<svg 
 xmlns="http://www.w3.org/2000/svg"
 xmlns:xlink="http://www.w3.org/1999/xlink"
 width="33px" height="32px">
<path fill-rule="evenodd"  fill="rgb(245, 127, 0)"
 d="M32.887,7.897 C32.774,8.545 32.215,9.001 31.584,9.001 C31.509,9.001 31.431,8.995 31.354,8.982 C30.635,8.855 30.151,8.164 30.278,7.439 C30.508,6.115 30.097,4.811 29.156,3.862 C28.212,2.911 26.909,2.497 25.603,2.731 C24.881,2.853 24.199,2.371 24.072,1.646 C23.945,0.920 24.429,0.230 25.148,0.103 C27.289,-0.276 29.489,0.427 31.028,1.976 C32.564,3.526 33.260,5.738 32.887,7.897 ZM30.837,16.289 C30.837,20.622 28.924,24.505 25.915,27.156 L28.468,29.728 C28.985,30.249 28.985,31.094 28.468,31.614 C28.209,31.875 27.871,32.005 27.532,32.005 C27.193,32.005 26.854,31.875 26.596,31.614 L23.739,28.736 C21.610,29.999 19.138,30.736 16.493,30.736 C13.848,30.736 11.377,29.999 9.248,28.736 L6.392,31.614 C6.134,31.875 5.795,32.005 5.456,32.005 C5.117,32.005 4.778,31.875 4.520,31.614 C4.003,31.094 4.003,30.249 4.520,29.728 L7.073,27.156 C4.064,24.506 2.151,20.622 2.151,16.289 C2.151,8.323 8.585,1.843 16.493,1.843 C24.403,1.843 30.837,8.323 30.837,16.289 ZM16.493,4.510 C10.046,4.510 4.799,9.794 4.799,16.289 C4.799,22.785 10.046,28.069 16.493,28.069 C22.942,28.069 28.189,22.785 28.189,16.289 C28.189,9.794 22.942,4.510 16.493,4.510 ZM17.238,17.362 L13.762,20.862 C13.503,21.122 13.165,21.253 12.826,21.253 C12.487,21.253 12.148,21.122 11.890,20.862 C11.373,20.341 11.373,19.496 11.890,18.977 L15.169,15.674 L15.169,10.418 C15.169,9.681 15.761,9.084 16.493,9.084 C17.224,9.084 17.817,9.681 17.817,10.418 L17.817,16.289 C17.817,16.741 17.579,17.121 17.238,17.362 ZM7.385,2.731 C6.074,2.497 4.776,2.911 3.835,3.862 C2.891,4.811 2.482,6.115 2.712,7.439 C2.836,8.164 2.356,8.855 1.634,8.982 C1.556,8.995 1.482,9.001 1.407,9.001 C0.773,9.001 0.214,8.545 0.103,7.897 C-0.272,5.738 0.424,3.526 1.963,1.976 C3.501,0.426 5.697,-0.279 7.840,0.103 C8.562,0.230 9.043,0.920 8.919,1.646 C8.792,2.371 8.104,2.854 7.385,2.731 Z"/>
</svg>