<svg 
 xmlns="http://www.w3.org/2000/svg"
 xmlns:xlink="http://www.w3.org/1999/xlink"
 width="11px" height="13px">
<path fill-rule="evenodd"  fill="rgb(60, 74, 124)"
 d="M10.425,13.005 L2.794,13.005 C2.479,13.005 2.224,12.755 2.224,12.446 C2.224,12.138 2.479,11.888 2.794,11.888 L9.855,11.888 L9.855,1.109 L2.794,1.109 C2.479,1.109 2.224,0.859 2.224,0.550 C2.224,0.242 2.479,-0.008 2.794,-0.008 L10.425,-0.008 C10.741,-0.008 10.996,0.242 10.996,0.550 L10.996,12.446 C10.996,12.755 10.741,13.005 10.425,13.005 ZM3.453,4.141 C3.267,3.892 3.324,3.542 3.579,3.361 C3.833,3.179 4.190,3.235 4.375,3.484 L7.024,6.084 C7.042,6.100 7.058,6.116 7.074,6.133 L7.112,6.170 C7.119,6.180 7.116,6.194 7.123,6.204 C7.179,6.291 7.220,6.387 7.221,6.497 C7.221,6.498 7.221,6.500 7.220,6.501 C7.220,6.611 7.179,6.707 7.123,6.793 C7.116,6.804 7.119,6.817 7.112,6.827 L7.074,6.864 C7.058,6.882 7.042,6.898 7.024,6.913 L4.375,9.512 C4.264,9.662 4.090,9.742 3.913,9.742 C3.797,9.742 3.679,9.708 3.579,9.635 C3.324,9.453 3.267,9.104 3.453,8.855 L5.355,7.057 L0.576,7.057 C0.261,7.057 0.006,6.807 0.006,6.499 C0.006,6.190 0.261,5.940 0.576,5.940 L5.355,5.940 L3.453,4.141 Z"/>
</svg>