<svg 
 xmlns="http://www.w3.org/2000/svg"
 xmlns:xlink="http://www.w3.org/1999/xlink"
 width="36px" height="31px">
<path fill-rule="evenodd"  fill="rgb(245, 127, 0)"
 d="M34.674,30.998 L1.334,30.998 C0.601,30.998 0.008,30.388 0.008,29.634 C0.008,28.880 0.601,28.721 1.334,28.721 L34.674,28.721 C35.408,28.721 36.001,28.880 36.001,29.634 C36.001,30.388 35.408,30.998 34.674,30.998 ZM33.726,13.413 L31.218,13.413 L31.218,24.345 L32.021,24.345 C32.754,24.345 33.348,24.956 33.348,25.710 C33.348,26.465 32.754,26.566 32.021,26.566 L3.988,26.566 C3.255,26.566 2.661,26.465 2.661,25.710 C2.661,24.956 3.255,24.345 3.988,24.345 L4.789,24.345 L4.789,13.413 L2.280,13.413 C1.700,13.413 1.184,13.024 1.013,12.452 C0.842,11.880 1.052,11.259 1.531,10.922 L17.756,0.209 C18.206,-0.108 18.802,-0.108 19.253,0.209 L34.475,10.922 C34.957,11.259 35.167,11.880 34.993,12.452 C34.822,13.024 34.309,13.413 33.726,13.413 ZM23.466,24.345 L28.564,24.345 L28.564,13.413 L23.466,13.413 L23.466,24.345 ZM15.194,24.345 L20.812,24.345 L20.812,13.413 L15.194,13.413 L15.194,24.345 ZM7.442,24.345 L12.541,24.345 L12.541,13.413 L7.442,13.413 L7.442,24.345 ZM18.504,2.989 L6.572,10.683 L29.437,10.683 L18.504,2.989 Z"/>
</svg>