<svg 
 xmlns="http://www.w3.org/2000/svg"
 xmlns:xlink="http://www.w3.org/1999/xlink"
 width="11px" height="12px">
<path fill-rule="evenodd"  fill="rgb(122, 179, 253)"
 d="M9.500,11.999 C8.671,11.999 8.000,11.328 8.000,10.499 L8.000,1.499 C8.000,0.671 8.671,-0.000 9.500,-0.000 C10.328,-0.000 11.000,0.671 11.000,1.499 L11.000,10.499 C11.000,11.328 10.328,11.999 9.500,11.999 ZM1.500,11.999 C0.671,11.999 -0.000,11.328 -0.000,10.499 L-0.000,1.499 C-0.000,0.671 0.671,-0.000 1.500,-0.000 C2.328,-0.000 3.000,0.671 3.000,1.499 L3.000,10.499 C3.000,11.328 2.328,11.999 1.500,11.999 Z"/>
</svg>