<svg 
 xmlns="http://www.w3.org/2000/svg"
 xmlns:xlink="http://www.w3.org/1999/xlink"
 width="27px" height="31px">
<path fill-rule="evenodd"  fill="rgb(245, 127, 0)"
 d="M24.851,23.294 C19.897,28.405 16.784,30.998 13.499,30.998 C10.219,30.998 7.106,28.407 2.159,23.305 C0.817,21.892 0.011,19.440 0.004,17.880 L0.004,5.905 C-0.001,4.049 1.341,2.223 3.124,1.659 C9.809,-0.567 17.176,-0.574 23.899,1.663 C25.629,2.213 27.000,4.079 27.000,5.905 L27.000,17.870 C26.990,19.442 26.186,21.897 24.851,23.294 ZM24.585,5.905 C24.585,5.131 23.903,4.209 23.153,3.971 C20.024,2.929 16.782,2.404 13.504,2.404 C10.224,2.404 6.982,2.930 3.866,3.967 C3.072,4.219 2.416,5.102 2.419,5.902 L2.419,17.873 C2.423,18.910 3.058,20.737 3.897,21.621 C8.267,26.126 11.094,28.572 13.499,28.572 C15.909,28.572 18.737,26.124 23.116,21.609 C23.946,20.737 24.578,18.911 24.585,17.863 L24.585,5.905 ZM13.226,18.878 C13.001,19.178 12.668,19.359 12.312,19.374 C12.298,19.374 12.283,19.374 12.266,19.374 C11.926,19.374 11.602,19.222 11.367,18.952 L9.330,16.611 C8.857,16.067 8.877,15.207 9.374,14.690 C9.871,14.172 10.654,14.192 11.129,14.737 L12.198,15.965 L15.801,11.151 C16.237,10.573 17.018,10.485 17.549,10.962 C18.080,11.438 18.155,12.295 17.721,12.875 L13.226,18.878 Z"/>
</svg>