<svg 
 xmlns="http://www.w3.org/2000/svg"
 xmlns:xlink="http://www.w3.org/1999/xlink"
 width="89px" height="42px">
<path fill-rule="evenodd"  fill="rgb(255, 140, 0)"
 d="M63.212,12.652 L63.212,26.107 C63.216,26.308 63.061,26.475 62.865,26.479 C62.860,26.480 62.854,26.480 62.849,26.479 L60.175,26.479 C59.979,26.484 59.817,26.325 59.812,26.124 C59.812,26.118 59.812,26.113 59.812,26.107 L59.812,12.652 C59.808,12.451 59.963,12.284 60.159,12.279 C60.165,12.279 60.170,12.279 60.175,12.279 L62.849,12.279 C63.045,12.275 63.207,12.434 63.212,12.635 C63.212,12.640 63.212,12.646 63.212,12.652 ZM84.079,12.279 C84.184,12.279 84.314,12.332 84.443,12.439 C84.521,12.519 84.521,12.652 84.495,12.759 L80.082,26.241 C80.028,26.383 79.895,26.478 79.745,26.481 L77.357,26.481 C77.202,26.481 77.072,26.400 77.020,26.241 L74.449,18.381 L71.880,26.239 C71.825,26.382 71.692,26.477 71.543,26.479 L69.155,26.479 C68.999,26.479 68.869,26.400 68.818,26.239 L64.405,12.758 C64.379,12.652 64.379,12.545 64.457,12.439 C64.509,12.332 64.639,12.279 64.742,12.279 L67.727,12.279 C67.883,12.279 68.012,12.385 68.065,12.545 L70.426,20.511 L73.022,12.545 C73.077,12.402 73.210,12.307 73.359,12.305 L75.462,12.305 C75.617,12.305 75.747,12.385 75.799,12.545 L78.395,20.511 L80.757,12.545 C80.800,12.390 80.937,12.282 81.094,12.279 L84.079,12.279 L84.079,12.279 ZM88.595,12.279 C88.777,12.279 88.933,12.439 88.958,12.652 L88.958,26.107 C88.963,26.308 88.808,26.475 88.612,26.479 C88.606,26.480 88.601,26.480 88.595,26.479 L85.922,26.479 C85.726,26.484 85.563,26.325 85.559,26.124 C85.559,26.118 85.559,26.113 85.559,26.107 L85.559,12.652 C85.554,12.451 85.710,12.284 85.906,12.279 C85.911,12.279 85.917,12.279 85.922,12.279 L88.595,12.279 ZM58.255,26.001 C58.410,26.188 58.280,26.453 58.046,26.453 L54.776,26.453 C54.646,26.457 54.521,26.398 54.439,26.294 L53.895,25.601 C52.752,26.346 51.402,26.800 49.975,26.800 C45.978,26.800 42.734,23.469 42.734,19.366 C42.734,15.263 45.978,11.932 49.975,11.932 C53.972,11.932 57.216,15.263 57.216,19.366 C57.216,20.832 56.801,22.217 56.074,23.389 L58.255,26.000 L58.255,26.001 ZM30.924,26.724 C31.599,26.991 31.859,28.030 31.910,28.483 C32.014,29.309 31.781,29.628 31.521,29.628 C31.262,29.628 30.898,29.309 30.509,28.670 C30.119,28.030 29.964,27.311 30.172,26.938 C30.301,26.698 30.587,26.592 30.924,26.724 L30.924,26.724 ZM26.979,29.736 C27.394,29.736 27.861,29.922 28.277,30.295 C29.081,30.988 29.315,31.787 28.900,32.373 C28.666,32.666 28.277,32.853 27.836,32.853 C27.394,32.853 26.927,32.693 26.616,32.400 C25.889,31.760 25.682,30.694 26.148,30.108 C26.330,29.868 26.616,29.736 26.979,29.736 ZM17.896,37.436 C8.032,37.436 0.038,29.229 0.038,19.104 C0.038,8.980 8.033,0.774 17.895,0.774 C27.758,0.774 35.752,8.981 35.752,19.104 C35.752,22.541 34.818,25.765 33.235,28.510 C33.182,28.589 33.053,28.563 33.027,28.456 C32.404,23.954 29.730,21.476 25.837,20.730 C25.500,20.676 25.448,20.463 25.889,20.410 C27.083,20.304 28.770,20.330 29.652,20.490 C29.704,20.037 29.730,19.557 29.730,19.078 C29.730,12.390 24.435,6.954 17.920,6.954 C11.406,6.954 6.111,12.390 6.111,19.078 C6.111,25.765 11.406,31.202 17.921,31.202 L18.466,31.202 C18.281,30.120 18.202,29.022 18.232,27.924 C18.259,27.178 18.414,27.071 18.726,27.657 C20.361,30.562 22.697,33.172 27.265,34.212 C31.002,35.065 34.739,36.050 38.763,41.299 C39.126,41.752 38.581,42.231 38.165,41.859 C34.065,38.128 30.328,36.902 26.927,36.902 C23.112,36.930 20.517,37.436 17.895,37.436 L17.896,37.436 ZM51.766,23.017 L50.338,21.231 C50.183,21.045 50.313,20.752 50.546,20.752 L53.556,20.752 C53.712,20.325 53.790,19.845 53.790,19.366 C53.790,17.156 52.181,15.237 49.975,15.237 C47.769,15.237 46.159,17.156 46.159,19.366 C46.159,21.577 47.769,23.469 49.975,23.469 C50.597,23.496 51.221,23.310 51.766,23.017 Z"/>
</svg>