<svg 
 xmlns="http://www.w3.org/2000/svg"
 xmlns:xlink="http://www.w3.org/1999/xlink"
 width="18px" height="18px">
<path fill-rule="evenodd"  fill="rgb(135, 190, 225)"
 d="M17.973,10.589 C17.905,10.823 17.738,11.017 17.514,11.123 L9.644,14.806 C9.524,14.862 9.395,14.889 9.270,14.889 C9.103,14.889 8.947,14.828 8.806,14.739 L7.704,15.812 C8.403,16.359 9.180,16.450 9.503,16.134 C9.841,15.804 10.388,15.805 10.726,16.133 C11.064,16.462 11.064,16.995 10.726,17.324 C10.252,17.787 9.620,18.013 8.943,18.013 C8.078,18.013 7.146,17.635 6.366,16.925 C5.718,17.306 4.980,17.522 4.204,17.522 C3.079,17.522 2.023,17.096 1.228,16.321 C0.433,15.548 -0.005,14.518 -0.005,13.423 C-0.005,12.329 0.433,11.299 1.228,10.525 L2.847,8.950 C2.687,8.709 2.653,8.400 2.787,8.128 L6.568,0.465 C6.676,0.246 6.876,0.084 7.115,0.019 C7.355,-0.047 7.614,-0.007 7.821,0.126 C11.843,2.696 15.220,5.985 17.862,9.902 C17.998,10.104 18.039,10.355 17.973,10.589 ZM2.451,11.716 C1.983,12.172 1.725,12.778 1.725,13.423 C1.725,14.068 1.983,14.674 2.451,15.130 C3.390,16.045 5.023,16.043 5.959,15.130 L7.722,13.412 C6.711,12.126 5.539,10.985 4.216,9.999 L2.451,11.716 ZM7.693,2.075 L4.667,8.206 C6.572,9.522 8.215,11.122 9.564,12.974 L15.860,10.028 C13.626,6.918 10.885,4.249 7.693,2.075 Z"/>
</svg>