<svg 
 xmlns="http://www.w3.org/2000/svg"
 xmlns:xlink="http://www.w3.org/1999/xlink"
 width="32px" height="32px">
<path fill-rule="evenodd"  fill="rgb(0, 186, 255)"
 d="M31.069,19.399 C31.312,18.334 31.425,17.270 31.425,16.168 C31.425,15.775 31.425,15.384 31.387,15.010 C30.789,7.242 24.215,1.117 16.169,1.117 C15.290,1.117 14.413,1.174 13.554,1.322 C12.191,0.482 10.585,-0.003 8.848,-0.003 C3.956,-0.003 -0.003,3.899 -0.003,8.735 C-0.003,10.324 0.426,11.855 1.211,13.143 C1.100,13.684 1.006,14.244 0.950,14.786 C0.931,15.253 0.894,15.700 0.894,16.168 C0.894,24.477 7.729,31.219 16.169,31.219 C17.122,31.219 18.054,31.125 18.969,30.957 C20.202,31.630 21.622,32.003 23.152,32.003 C28.044,32.003 32.003,28.081 32.003,23.264 C32.003,21.882 31.648,20.555 31.069,19.399 L31.069,19.399 ZM23.992,23.357 C23.301,24.328 22.255,25.113 20.911,25.692 C19.549,26.233 17.961,26.494 16.112,26.494 C13.928,26.494 12.079,26.120 10.660,25.374 C9.632,24.813 8.792,24.103 8.139,23.170 C7.504,22.256 7.186,21.340 7.186,20.444 C7.186,19.884 7.373,19.436 7.822,19.026 C8.214,18.651 8.774,18.445 9.409,18.445 C9.912,18.445 10.379,18.595 10.754,18.913 C11.107,19.192 11.388,19.622 11.649,20.202 C11.912,20.818 12.191,21.340 12.509,21.732 C12.807,22.106 13.237,22.461 13.778,22.722 C14.356,22.984 15.085,23.095 16.000,23.095 C17.269,23.095 18.315,22.835 19.081,22.311 C19.829,21.788 20.202,21.191 20.202,20.444 C20.202,19.827 20.033,19.379 19.642,18.988 C19.193,18.614 18.652,18.334 17.998,18.111 C17.307,17.904 16.355,17.662 15.197,17.437 C13.610,17.101 12.247,16.691 11.183,16.261 C10.100,15.795 9.222,15.160 8.568,14.356 C8.363,14.095 8.195,13.815 8.046,13.516 C7.729,12.881 7.579,12.172 7.579,11.331 C7.579,10.210 7.933,9.165 8.624,8.307 C9.315,7.410 10.287,6.738 11.593,6.289 C12.863,5.785 14.356,5.561 16.056,5.561 C17.439,5.561 18.633,5.729 19.642,6.028 C20.650,6.346 21.471,6.775 22.144,7.260 C22.834,7.783 23.319,8.326 23.637,8.904 C23.955,9.520 24.105,10.080 24.105,10.640 C24.105,11.182 23.899,11.668 23.488,12.079 C23.058,12.507 22.536,12.731 21.920,12.731 C21.359,12.731 20.911,12.602 20.613,12.340 C20.333,12.079 20.014,11.705 19.698,11.126 C19.324,10.435 18.858,9.857 18.315,9.445 C17.811,9.072 16.953,8.886 15.776,8.886 C14.675,8.886 13.778,9.109 13.124,9.540 C12.489,9.950 12.172,10.398 12.172,10.977 C12.172,11.294 12.285,11.593 12.489,11.855 C12.714,12.097 13.013,12.340 13.405,12.546 C13.815,12.731 14.208,12.881 14.618,12.993 C14.712,13.031 14.787,13.031 14.880,13.051 C15.309,13.180 15.944,13.311 16.748,13.516 C17.961,13.778 19.119,14.058 20.126,14.375 C21.135,14.693 21.993,15.104 22.722,15.571 C23.470,16.019 24.048,16.635 24.440,17.344 C24.852,18.073 25.056,18.969 25.056,20.015 C25.056,21.248 24.701,22.367 23.992,23.357 L23.992,23.357 Z"/>
</svg>