<svg 
 xmlns="http://www.w3.org/2000/svg"
 xmlns:xlink="http://www.w3.org/1999/xlink"
 width="18px" height="18px">
<path fill-rule="evenodd"  fill="rgb(255, 255, 255)"
 d="M14.123,17.969 C13.977,17.969 13.829,17.922 13.704,17.827 L8.996,14.252 L4.288,17.827 C4.037,18.017 3.700,18.017 3.450,17.827 C3.200,17.637 3.096,17.301 3.191,16.994 L4.990,11.210 L0.282,7.635 C0.033,7.445 -0.072,7.109 0.023,6.802 C0.119,6.495 0.392,6.287 0.701,6.287 L6.520,6.287 L8.318,0.503 C8.414,0.196 8.687,-0.012 8.996,-0.012 C9.305,-0.012 9.579,0.196 9.674,0.503 L11.472,6.287 L17.291,6.287 C17.600,6.287 17.874,6.495 17.969,6.802 C18.065,7.109 17.960,7.445 17.710,7.635 L13.002,11.210 L14.801,16.994 C14.897,17.301 14.793,17.637 14.542,17.827 C14.418,17.922 14.270,17.969 14.123,17.969 L14.123,17.969 ZM8.996,12.586 C9.143,12.586 9.290,12.633 9.415,12.728 L12.767,15.273 L11.485,11.156 C11.391,10.849 11.495,10.512 11.744,10.322 L15.096,7.777 L10.954,7.777 C10.644,7.777 10.372,7.569 10.275,7.262 L8.996,3.145 L7.716,7.262 C7.621,7.569 7.347,7.777 7.038,7.777 L2.895,7.777 L6.247,10.322 C6.498,10.512 6.602,10.849 6.506,11.156 L5.225,15.273 L8.577,12.728 C8.702,12.633 8.850,12.586 8.996,12.586 L8.996,12.586 Z"/>
</svg>