<svg 
 xmlns="http://www.w3.org/2000/svg"
 xmlns:xlink="http://www.w3.org/1999/xlink"
 width="33px" height="33px">
<path fill-rule="evenodd"  fill="rgb(0, 84, 175)"
 d="M26.078,12.244 C26.078,14.531 24.215,16.390 21.925,16.390 C19.635,16.390 17.772,14.531 17.772,12.244 C17.772,9.958 19.635,8.097 21.925,8.097 C24.215,8.097 26.078,9.958 26.078,12.244 ZM18.812,12.237 C18.812,13.957 20.209,15.351 21.932,15.351 C23.655,15.351 25.052,13.957 25.052,12.237 C25.052,10.517 23.655,9.123 21.932,9.123 C20.209,9.123 18.812,10.517 18.812,12.237 ZM12.347,20.270 L10.249,19.404 C11.058,19.100 11.978,19.086 12.837,19.443 C13.702,19.804 14.376,20.478 14.733,21.344 C15.090,22.210 15.088,23.162 14.728,24.026 C13.983,25.811 11.923,26.657 10.136,25.914 C9.310,25.570 8.688,24.944 8.328,24.197 L10.358,25.034 C11.675,25.582 13.190,24.960 13.738,23.644 C14.288,22.328 13.664,20.818 12.347,20.270 ZM16.471,32.998 C8.905,32.998 2.532,27.921 0.569,20.994 L6.905,23.609 C7.333,25.746 9.227,27.360 11.492,27.360 C14.072,27.360 16.170,25.264 16.170,22.688 C16.170,22.615 16.168,22.541 16.165,22.468 L21.783,18.465 C21.830,18.466 21.878,18.467 21.926,18.467 C25.362,18.467 28.158,15.675 28.158,12.244 C28.158,8.813 25.362,6.021 21.926,6.021 C18.488,6.021 15.692,8.813 15.692,12.244 C15.692,12.271 15.692,12.298 15.692,12.325 L11.752,18.025 C11.666,18.021 11.580,18.019 11.492,18.019 C10.517,18.019 9.610,18.318 8.859,18.830 L-0.000,15.174 C0.676,6.680 7.789,-0.004 16.471,-0.004 C25.599,-0.004 33.000,7.383 33.000,16.497 C33.000,25.610 25.599,32.998 16.471,32.998 Z"/>
</svg>