<svg 
 xmlns="http://www.w3.org/2000/svg"
 xmlns:xlink="http://www.w3.org/1999/xlink"
 width="15px" height="14px">
<path fill-rule="evenodd"  fill="rgb(68, 153, 236)"
 d="M11.332,5.081 C11.332,5.995 10.582,6.738 9.660,6.738 C8.738,6.738 7.988,5.995 7.988,5.081 C7.988,4.167 8.738,3.423 9.660,3.423 C10.582,3.423 11.332,4.167 11.332,5.081 ZM8.407,5.078 C8.407,5.766 8.969,6.323 9.663,6.323 C10.357,6.323 10.919,5.766 10.919,5.078 C10.919,4.391 10.357,3.833 9.663,3.833 C8.969,3.833 8.407,4.391 8.407,5.078 ZM5.804,8.289 L4.960,7.943 C5.285,7.822 5.655,7.816 6.002,7.959 C6.350,8.103 6.621,8.372 6.765,8.719 C6.909,9.065 6.908,9.446 6.763,9.790 C6.463,10.504 5.633,10.843 4.914,10.545 C4.582,10.408 4.331,10.158 4.186,9.859 L5.003,10.193 C5.534,10.413 6.143,10.164 6.364,9.638 C6.586,9.112 6.335,8.508 5.804,8.289 ZM7.465,13.377 C4.418,13.377 1.852,11.347 1.063,8.579 L3.613,9.624 C3.786,10.478 4.548,11.123 5.460,11.123 C6.498,11.123 7.343,10.286 7.343,9.256 C7.343,9.227 7.342,9.197 7.341,9.168 L9.603,7.568 C9.622,7.568 9.641,7.569 9.660,7.569 C11.044,7.569 12.170,6.453 12.170,5.081 C12.170,3.710 11.044,2.594 9.660,2.594 C8.277,2.594 7.151,3.710 7.151,5.081 C7.151,5.092 7.151,5.103 7.151,5.113 L5.565,7.392 C5.530,7.390 5.495,7.389 5.460,7.389 C5.067,7.389 4.702,7.509 4.400,7.714 L0.833,6.252 C1.105,2.857 3.969,0.185 7.465,0.185 C11.139,0.185 14.119,3.138 14.119,6.781 C14.119,10.424 11.139,13.377 7.465,13.377 Z"/>
</svg>