<svg 
 xmlns="http://www.w3.org/2000/svg"
 xmlns:xlink="http://www.w3.org/1999/xlink"
 width="34px" height="27px">
<path fill-rule="evenodd"  fill="rgb(0, 203, 254)"
 d="M33.014,-0.002 C32.897,-0.002 32.776,0.019 32.656,0.065 L1.626,11.823 C0.749,12.155 0.773,13.400 1.661,13.700 L8.855,16.124 L13.194,24.783 C13.195,24.785 13.196,24.787 13.197,24.790 L13.209,24.813 L13.212,24.811 C13.290,24.971 13.454,25.074 13.629,25.074 C13.731,25.074 13.836,25.040 13.927,24.963 L17.991,21.526 L13.453,18.092 L13.809,22.603 L10.546,15.867 L27.885,5.481 L13.453,18.092 L24.688,26.594 C25.064,26.879 25.495,27.010 25.918,27.010 C26.809,27.010 27.666,26.427 27.907,25.465 L33.981,1.239 C34.145,0.582 33.631,-0.002 33.014,-0.002 Z"/>
</svg>