<svg 
 xmlns="http://www.w3.org/2000/svg"
 xmlns:xlink="http://www.w3.org/1999/xlink"
 width="33px" height="30px">
<path fill-rule="evenodd"  fill="rgb(245, 127, 0)"
 d="M31.678,28.651 C31.627,29.410 31.026,30.001 30.300,30.001 L25.221,30.001 C24.458,30.001 23.840,29.352 23.840,28.550 C23.840,27.748 24.458,27.099 25.221,27.099 L29.011,27.099 L29.262,23.247 C29.311,22.512 28.625,21.327 27.754,20.991 C26.209,20.410 26.577,20.098 24.913,20.068 C24.153,20.054 23.543,19.394 23.557,18.592 C23.570,17.791 24.196,17.129 24.962,17.166 C26.925,17.202 26.856,17.572 28.698,18.263 C30.672,19.027 32.156,21.350 32.018,23.446 L31.678,28.651 ZM24.852,15.616 C22.107,15.616 19.871,13.009 19.871,9.805 C19.871,6.601 22.107,3.994 24.852,3.994 C27.598,3.994 29.831,6.601 29.831,9.805 C29.831,13.009 27.598,15.616 24.852,15.616 ZM24.852,6.896 C23.628,6.896 22.633,8.201 22.633,9.805 C22.633,11.408 23.628,12.713 24.852,12.713 C26.074,12.713 27.069,11.408 27.069,9.805 C27.069,8.201 26.074,6.896 24.852,6.896 ZM20.923,28.649 C20.874,29.410 20.270,30.001 19.545,30.001 L1.766,30.001 C1.041,30.001 0.440,29.412 0.388,28.651 L-0.003,22.621 C-0.151,20.294 1.502,17.709 3.687,16.860 C8.193,15.165 13.139,15.172 17.614,16.856 C19.814,17.707 21.468,20.292 21.314,22.623 L20.923,28.649 ZM16.672,19.584 C12.819,18.133 8.506,18.129 4.631,19.586 C3.522,20.017 2.694,21.493 2.753,22.425 L3.058,27.099 L18.256,27.099 L18.558,22.425 C18.620,21.491 17.792,20.017 16.672,19.584 ZM10.772,14.085 C7.462,14.085 4.774,10.925 4.774,7.042 C4.774,3.158 7.462,-0.003 10.772,-0.003 C14.078,-0.003 16.767,3.158 16.767,7.042 C16.767,10.925 14.078,14.085 10.772,14.085 ZM10.772,2.900 C8.986,2.900 7.535,4.757 7.535,7.042 C7.535,9.325 8.986,11.183 10.772,11.183 C12.554,11.183 14.005,9.325 14.005,7.042 C14.005,4.757 12.554,2.900 10.772,2.900 Z"/>
</svg>