<svg 
 xmlns="http://www.w3.org/2000/svg"
 xmlns:xlink="http://www.w3.org/1999/xlink"
 width="17px" height="13px">
<path fill-rule="evenodd"  fill="rgb(116, 130, 182)"
 d="M8.486,13.008 C4.585,13.008 1.183,10.492 0.022,6.747 C-0.027,6.591 -0.027,6.422 0.022,6.265 C1.185,2.521 4.587,0.005 8.486,0.005 C12.387,0.005 15.789,2.521 16.951,6.265 C17.000,6.422 17.000,6.591 16.951,6.747 C15.789,10.492 12.387,13.008 8.486,13.008 ZM8.486,1.557 C5.312,1.557 2.537,3.535 1.505,6.506 C2.537,9.478 5.312,11.456 8.486,11.456 C11.661,11.456 14.436,9.478 15.469,6.506 C14.435,3.535 11.661,1.557 8.486,1.557 ZM8.486,10.712 C6.281,10.712 4.486,8.826 4.486,6.506 C4.486,6.077 4.816,5.730 5.224,5.730 C5.632,5.730 5.962,6.077 5.962,6.506 C5.962,7.970 7.094,9.160 8.486,9.160 C9.878,9.160 11.008,7.970 11.008,6.506 C11.008,5.044 9.878,3.854 8.486,3.854 C8.078,3.854 7.748,3.507 7.748,3.078 C7.748,2.649 8.078,2.302 8.486,2.302 C10.691,2.302 12.485,4.188 12.485,6.506 C12.485,8.826 10.691,10.712 8.486,10.712 Z"/>
</svg>