<svg 
 xmlns="http://www.w3.org/2000/svg"
 xmlns:xlink="http://www.w3.org/1999/xlink"
 width="40px" height="24px">
<path fill-rule="evenodd"  fill="rgb(39, 135, 245)"
 d="M39.471,1.966 C38.946,1.585 37.061,1.585 35.196,1.585 C33.290,1.623 31.385,1.623 30.938,1.795 C30.531,1.947 29.617,4.126 28.432,6.362 C27.070,8.886 25.419,11.332 24.368,11.292 C22.989,11.292 23.320,7.145 23.416,4.069 C23.435,2.062 23.105,1.412 22.813,1.241 C22.094,0.743 20.112,0.267 20.112,0.267 C20.112,0.267 14.163,-0.174 13.328,2.349 C14.475,2.502 16.419,2.157 15.661,9.974 C15.602,10.357 14.747,13.567 11.987,9.228 C11.287,8.140 8.644,1.623 7.711,1.585 C4.658,1.527 1.627,1.393 0.578,1.966 C-0.414,2.540 1.899,7.012 5.806,13.014 C8.974,17.944 12.337,21.767 18.168,22.722 C19.276,22.838 22.114,22.951 23.028,22.531 C23.630,22.244 22.872,18.002 24.952,17.580 C25.866,17.409 29.422,22.015 30.763,22.531 C31.581,22.856 33.368,22.989 35.196,22.912 C37.178,22.856 39.432,23.104 39.646,21.767 C40.132,18.843 33.641,15.019 33.465,13.223 C33.310,11.924 35.837,9.535 37.119,7.700 C38.712,5.483 40.463,2.808 39.471,1.966 L39.471,1.966 Z"/>
</svg>