<svg 
 xmlns="http://www.w3.org/2000/svg"
 xmlns:xlink="http://www.w3.org/1999/xlink"
 width="18px" height="18px">
<path fill-rule="evenodd"  fill="rgb(236, 186, 131)"
 d="M17.939,4.451 C17.877,4.816 17.573,5.072 17.229,5.072 C17.188,5.072 17.146,5.069 17.104,5.061 C16.712,4.990 16.449,4.602 16.518,4.194 C16.643,3.450 16.419,2.716 15.906,2.182 C15.392,1.648 14.682,1.414 13.971,1.546 C13.578,1.615 13.206,1.344 13.137,0.936 C13.067,0.528 13.331,0.140 13.723,0.069 C14.889,-0.145 16.088,0.251 16.926,1.121 C17.763,1.993 18.142,3.238 17.939,4.451 ZM16.822,9.171 C16.822,11.607 15.780,13.791 14.141,15.281 L15.532,16.727 C15.813,17.020 15.813,17.495 15.532,17.788 C15.391,17.934 15.206,18.008 15.022,18.008 C14.837,18.008 14.653,17.934 14.512,17.788 L12.955,16.169 C11.795,16.880 10.448,17.294 9.007,17.294 C7.567,17.294 6.220,16.880 5.060,16.170 L3.504,17.788 C3.363,17.934 3.179,18.008 2.994,18.008 C2.810,18.008 2.625,17.934 2.484,17.788 C2.203,17.495 2.203,17.020 2.484,16.727 L3.875,15.281 C2.236,13.791 1.194,11.607 1.194,9.171 C1.194,4.691 4.699,1.047 9.007,1.047 C13.317,1.047 16.822,4.691 16.822,9.171 ZM9.007,2.547 C5.495,2.547 2.637,5.518 2.637,9.171 C2.637,12.823 5.495,15.794 9.007,15.794 C12.521,15.794 15.379,12.823 15.379,9.171 C15.379,5.518 12.521,2.547 9.007,2.547 ZM7.520,11.742 C7.379,11.888 7.194,11.961 7.010,11.961 C6.825,11.961 6.640,11.888 6.500,11.742 C6.218,11.449 6.218,10.974 6.500,10.681 L8.286,8.825 L8.286,4.182 C8.286,3.768 8.609,3.432 9.007,3.432 C9.406,3.432 9.729,3.768 9.729,4.182 L9.729,9.171 C9.729,9.425 9.599,9.638 9.413,9.774 L7.520,11.742 ZM4.045,1.546 C3.331,1.414 2.624,1.648 2.111,2.182 C1.597,2.716 1.374,3.450 1.500,4.194 C1.567,4.602 1.305,4.990 0.912,5.061 C0.870,5.069 0.829,5.072 0.788,5.072 C0.443,5.072 0.139,4.816 0.078,4.451 C-0.126,3.238 0.253,1.993 1.091,1.121 C1.929,0.250 3.125,-0.146 4.293,0.069 C4.686,0.140 4.948,0.528 4.881,0.936 C4.812,1.344 4.437,1.616 4.045,1.546 Z"/>
</svg>