<svg width="25" height="25" viewBox="0 0 25 25" fill="none" xmlns="http://www.w3.org/2000/svg">
<path d="M24.0256 5.2132C23.1231 4.14046 21.457 3.70288 18.2751 3.70288H6.72468C3.46992 3.70288 1.77556 4.16869 0.876532 5.31078C0 6.42433 0 8.06506 0 10.3359V14.664C0 19.0633 1.04 21.2969 6.72468 21.2969H18.2752C21.0345 21.2969 22.5635 20.9108 23.5527 19.9641C24.5672 18.9933 25 17.4082 25 14.664V10.3359C25 7.94111 24.9322 6.2907 24.0256 5.2132ZM16.0501 13.0975L10.8051 15.8387C10.6878 15.9 10.5596 15.9304 10.4315 15.9304C10.2865 15.9304 10.1419 15.8914 10.0137 15.8138C9.77242 15.6676 9.62508 15.406 9.62508 15.1239V9.65909C9.62508 9.37748 9.77202 9.11619 10.0128 8.9699C10.2537 8.82361 10.5533 8.81361 10.8032 8.94345L16.0482 11.667C16.3151 11.8055 16.4827 12.081 16.4831 12.3816C16.4834 12.6824 16.3165 12.9583 16.0501 13.0975Z" fill="white"/>
</svg>
