<svg width="66" height="70" viewBox="0 0 66 70" fill="none" xmlns="http://www.w3.org/2000/svg">
<path d="M65.5623 68.5387L61.2168 56.3717C60.3965 54.0737 58.5075 52.2909 56.1669 51.6018L52.6329 50.5627L54.1073 42.6986C54.7264 39.3954 54.8511 36.0288 54.4781 32.6918L52.3048 32.9346C52.6526 36.0562 52.5356 39.2062 51.957 42.2972L50.5231 49.9437L41.1867 47.1972L38.5978 42.8823L42.1416 40.9136C43.1248 40.3678 43.7538 39.3725 43.8238 38.2503L44.0261 34.9996H45.938C47.7471 34.9996 49.2193 33.5274 49.2193 31.7183V27.3433C49.2193 25.5342 47.7471 24.062 45.938 24.062H44.7097L44.8421 21.9423L42.6589 21.8055L42.5998 22.7429L38.4698 24.4546C34.8932 25.9378 30.7642 24.5093 28.8655 21.1351L28.4739 20.4383L32.4552 21.8132C32.5711 21.8547 32.6925 21.8744 32.8129 21.8744C32.9332 21.8744 33.0546 21.8547 33.1705 21.8143L44.1081 18.0353C44.3794 17.9413 44.5839 17.7422 44.7108 17.4983H44.8442V17.0006V16.0152L46.9607 15.0526L49.4916 22.3185L51.5578 21.5988L48.9601 14.1448L54.6881 11.5417V15.3119H56.8756V9.84305H56.8713C56.8713 9.83101 56.8756 9.82008 56.8756 9.80914C56.8614 9.36835 56.5836 8.97788 56.1712 8.82147L33.2022 0.071368C32.9518 -0.0237893 32.675 -0.0237893 32.4235 0.071368L9.45445 8.82147C9.04211 8.97897 8.76429 9.36835 8.75007 9.80914C8.73585 10.2499 8.98851 10.6557 9.39102 10.8384L16.6645 14.1448L12.7795 25.2914C10.8359 30.8717 10.3842 36.8907 11.4724 42.6975L13.0114 50.904L9.2532 52.1203C7.00771 52.8465 5.25003 54.5331 4.42971 56.7458L0.0677825 68.5267C-0.0558127 68.8625 -0.00878107 69.2376 0.195753 69.5308C0.400286 69.8239 0.736072 70 1.09373 70H64.532C64.8874 70 65.221 69.8272 65.4256 69.5362C65.6312 69.2453 65.6815 68.8734 65.5623 68.5387ZM36.4726 60.4711C36.3676 60.3771 36.2473 60.3049 36.1357 60.2185C36.0143 60.1244 35.8973 60.0271 35.7682 59.9429C35.6074 59.8389 35.4368 59.7558 35.2662 59.6694C35.1294 59.6005 34.9993 59.5239 34.856 59.466C34.6635 59.3883 34.4622 59.3369 34.261 59.2811C34.1287 59.2439 34.0018 59.1947 33.8651 59.1685C33.5205 59.1007 33.1694 59.0624 32.8129 59.0624C32.465 59.0624 32.1227 59.1007 31.7869 59.1663C31.625 59.1969 31.473 59.2516 31.3166 59.2964C31.1525 59.3446 30.9874 59.3861 30.8277 59.4485C30.6461 59.5196 30.4766 59.6103 30.3049 59.7C30.1824 59.7646 30.0599 59.8247 29.9417 59.8969C29.7689 60.0041 29.6081 60.1255 29.4495 60.2513C29.385 60.3016 29.3128 60.341 29.2505 60.3946L20.0388 50.9292L24.8568 49.3705L32.0396 56.5533C32.2528 56.7677 32.5328 56.8748 32.8129 56.8748C33.0929 56.8748 33.3729 56.7677 33.5861 56.5544L40.77 49.3705L46.0911 50.9663L36.4726 60.4711ZM29.5316 64.5312C29.5316 63.8202 29.7645 63.1662 30.1506 62.628C30.1517 62.6259 30.155 62.6248 30.1561 62.6237C30.3005 62.4235 30.4667 62.2485 30.6439 62.0888C30.6844 62.0527 30.726 62.0199 30.7675 61.9871C30.9075 61.8733 31.0563 61.7749 31.2105 61.6863C31.2772 61.6491 31.3428 61.6097 31.4117 61.5769C31.5605 61.5058 31.7169 61.4511 31.8755 61.403C31.9477 61.3811 32.0166 61.3527 32.091 61.3363C32.3261 61.2827 32.5657 61.2499 32.8129 61.2499C33.0644 61.2499 33.3105 61.2849 33.55 61.3407C33.6179 61.356 33.6813 61.3822 33.7469 61.4019C33.9165 61.4533 34.0816 61.5135 34.2402 61.5912C34.3102 61.6251 34.378 61.6633 34.4458 61.7027C34.5946 61.7891 34.7357 61.8876 34.8702 61.9969C34.9271 62.0429 34.9851 62.0866 35.0387 62.1358C35.2071 62.2923 35.3624 62.4629 35.4969 62.6554C35.871 63.187 36.0941 63.8323 36.0941 64.5312C36.0941 66.3403 34.6219 67.8125 32.8129 67.8125C31.0038 67.8125 29.5316 66.3403 29.5316 64.5312ZM28.8545 44.0877L31.345 45.3324C32.2649 45.7928 33.3619 45.7917 34.2807 45.3324L36.7657 44.0899L39.0681 47.9793L32.8129 54.2345L26.5336 47.9552L27.694 46.0214L28.8545 44.0877ZM45.938 26.2495C46.5407 26.2495 47.0318 26.7406 47.0318 27.3433V31.7183C47.0318 32.321 46.5407 32.8121 45.938 32.8121H44.1628L44.573 26.2495H45.938ZM35.5473 27.2262C36.8062 27.2262 38.0815 26.9834 39.3076 26.4759L42.4478 25.1743L41.6395 38.1113C41.6166 38.4854 41.4065 38.8179 41.0784 38.9995L33.3433 43.2969C33.0097 43.4817 32.6138 43.4817 32.2813 43.2969L24.5451 38.9995C24.2181 38.8168 24.0081 38.4854 23.9851 38.1113L23.3737 28.3342C25.6804 27.9612 27.6404 26.4934 28.6883 24.4393C30.5334 26.2276 33.0021 27.2262 35.5473 27.2262ZM21.4629 32.8121H19.6877C19.085 32.8121 18.5939 32.321 18.5939 31.7183V27.3433C18.5939 26.7406 19.085 26.2495 19.6877 26.2495H21.0527L21.4629 32.8121ZM32.8129 19.6235L22.969 16.223V15.3119V10.6568L26.2131 9.68336C27.8264 9.19882 29.4747 8.89694 31.1317 8.77444C31.3177 8.76131 31.5036 8.76131 31.6896 8.75256C31.7005 8.75256 31.7125 8.75147 31.7235 8.75147L31.7191 16.4056H33.9066L33.911 8.75256C35.7354 8.84335 37.5532 9.13976 39.3295 9.66804L42.6567 10.659V15.3119V16.223L32.8129 19.6235ZM32.8129 2.26327L52.9425 9.93164L44.8442 13.6132V9.84305C44.8442 9.72273 44.8246 9.60461 44.7874 9.49523C44.7699 9.44492 44.7381 9.40226 44.7141 9.35523C44.6856 9.29945 44.6649 9.24038 44.6277 9.19007C44.5992 9.15179 44.5588 9.12444 44.5249 9.08944C44.4778 9.04132 44.4363 8.98772 44.3805 8.94944C44.3542 8.93085 44.3214 8.92319 44.293 8.90679C44.2197 8.86413 44.1475 8.82038 44.0644 8.79522L40.0415 7.58771C38.2401 7.04739 36.4004 6.71598 34.5519 6.58691C34.4787 6.58144 34.4054 6.58363 34.3321 6.57926C33.8257 6.54863 33.3193 6.52457 32.8129 6.52457C32.7964 6.52457 32.78 6.52676 32.7636 6.52676C32.3108 6.52676 31.858 6.55191 31.4052 6.57598C31.2619 6.58363 31.1197 6.58254 30.9764 6.59238C29.1291 6.72582 27.2926 7.06161 25.4945 7.60521L21.7276 8.74491L21.5602 8.79522C21.4443 8.83022 21.3371 8.88272 21.2419 8.95054C21.2069 8.97569 21.1818 9.01179 21.1501 9.04022C21.0965 9.08835 21.0396 9.13319 20.9969 9.19007C20.9422 9.26445 20.904 9.34867 20.869 9.43507C20.8602 9.45585 20.8449 9.47335 20.8383 9.49523C20.8011 9.6057 20.7815 9.72273 20.7815 9.84305V13.6132L12.6832 9.93273L32.8129 2.26327ZM14.8467 26.0121L18.665 15.0537L20.7815 16.0162V17.0017V17.4994H20.9149C21.0407 17.7433 21.2463 17.9424 21.5176 18.0364L25.3589 19.3632L26.9601 22.208C27.0104 22.2966 27.0728 22.3732 27.1253 22.4596C26.6211 24.3365 25.1073 25.7496 23.237 26.1346L22.9668 21.8055L20.7836 21.9423L20.916 24.062H19.6877C17.8786 24.062 16.4064 25.5342 16.4064 27.3433V31.7183C16.4064 33.5274 17.8786 34.9996 19.6877 34.9996H21.5996L21.803 38.2481C21.873 39.3703 22.502 40.3656 23.4841 40.9114L27.0279 42.8802L24.4368 47.1983L15.0698 50.0082L13.6239 42.295C12.6045 36.8634 13.0278 31.2316 14.8467 26.0121ZM6.4827 57.5049C7.06786 55.9244 8.3235 54.7201 9.92696 54.2006L17.7156 51.6806L27.9084 62.1544C27.5584 62.8763 27.344 63.6759 27.344 64.5312C27.344 65.7671 27.7717 66.8959 28.4662 67.8125H2.66547L6.4827 57.5049ZM37.1595 67.8125C37.854 66.8959 38.2817 65.7671 38.2817 64.5312C38.2817 63.7196 38.0924 62.9551 37.7731 62.2605L43.7505 56.3542V64.5312C43.7505 64.9457 43.9845 65.3242 44.3553 65.5101C44.7261 65.695 45.168 65.6545 45.5005 65.4062L49.2193 62.6171L52.9381 65.4062C53.1317 65.5506 53.3625 65.625 53.5943 65.625C53.7606 65.625 53.929 65.5867 54.0833 65.5101C54.454 65.3242 54.6881 64.9457 54.6881 64.5312V59.0624H52.5006V62.3437L49.8755 60.3749C49.4873 60.0829 48.9513 60.0829 48.563 60.3749L45.938 62.3437V54.1929L48.4777 51.6828L51.047 52.4539C51.1509 52.4845 51.257 52.4998 51.362 52.4998C51.386 52.4998 51.4101 52.491 51.4342 52.49L52.5006 52.8039V56.8748H54.6881V53.447L55.55 53.7007C57.2224 54.1929 58.571 55.4661 59.1572 57.1078L62.9799 67.8125H37.1595Z" fill="#00B4CB"/>
<path d="M52.501 19.6869V22.9682C52.501 24.7773 53.9732 26.2495 55.7823 26.2495C57.5913 26.2495 59.0636 24.7773 59.0636 22.9682V19.6869C59.0636 17.8778 57.5913 16.4056 55.7823 16.4056C53.9732 16.4056 52.501 17.8778 52.501 19.6869ZM56.876 19.6869V22.9682C56.876 23.5709 56.3849 24.062 55.7823 24.062C55.1796 24.062 54.6885 23.5709 54.6885 22.9682V19.6869C54.6885 19.0842 55.1796 18.5931 55.7823 18.5931C56.3849 18.5931 56.876 19.0842 56.876 19.6869Z" fill="#00B4CB"/>
<path d="M56.876 27.3433H54.6885V30.6245H56.876V27.3433Z" fill="#00B4CB"/>
<path d="M59.1915 25.9244L57.2969 27.018L58.9372 29.8599L60.8318 28.7663L59.1915 25.9244Z" fill="#00B4CB"/>
<path d="M52.3727 25.9203L50.7324 28.7622L52.627 29.8557L54.2674 27.0138L52.3727 25.9203Z" fill="#00B4CB"/>
</svg>
