<svg width="70" height="70" viewBox="0 0 70 70" fill="none" xmlns="http://www.w3.org/2000/svg">
<path d="M40.4677 63.4355C42.2767 63.4355 43.7488 61.9634 43.7488 60.1544C43.7488 58.3454 42.2767 56.8732 40.4677 56.8732C38.6587 56.8732 37.1865 58.3454 37.1865 60.1544C37.1865 61.9634 38.6587 63.4355 40.4677 63.4355ZM40.4677 59.0607C41.0703 59.0607 41.5614 59.5506 41.5614 60.1544C41.5614 60.7581 41.0703 61.2481 40.4677 61.2481C39.865 61.2481 39.374 60.7581 39.374 60.1544C39.374 59.5506 39.865 59.0607 40.4677 59.0607Z" fill="#00B4CB"/>
<path d="M31.7177 61.2481H29.5303V63.4355H31.7177V61.2481Z" fill="#00B4CB"/>
<path d="M36.0927 54.6858H33.9053V56.8732H36.0927V54.6858Z" fill="#00B4CB"/>
<path d="M25.1551 50.3109C22.7424 50.3109 20.7803 52.2731 20.7803 54.6858C20.7803 57.0985 22.7424 59.0607 25.1551 59.0607C27.5679 59.0607 29.53 57.0985 29.53 54.6858C29.53 52.2731 27.5679 50.3109 25.1551 50.3109ZM25.1551 56.8732C23.9488 56.8732 22.9677 55.8922 22.9677 54.6858C22.9677 53.4794 23.9488 52.4984 25.1551 52.4984C26.3615 52.4984 27.3426 53.4794 27.3426 54.6858C27.3426 55.8922 26.3615 56.8732 25.1551 56.8732Z" fill="#00B4CB"/>
<path d="M31.7177 0H29.5303V2.18743H31.7177V0Z" fill="#00B4CB"/>
<path d="M38.2802 3.28115H36.0928V5.46858H38.2802V3.28115Z" fill="#00B4CB"/>
<path d="M36.0927 8.74973H33.9053V10.9372H36.0927V8.74973Z" fill="#00B4CB"/>
<path d="M31.7178 16.4057V22.968C31.7178 24.777 33.1899 26.2492 34.9989 26.2492C36.8079 26.2492 38.2801 24.777 38.2801 22.968V19.6869H36.0926V22.968C36.0926 23.5718 35.6016 24.0617 34.9989 24.0617C34.3963 24.0617 33.9052 23.5718 33.9052 22.968V16.4057H31.7178Z" fill="#00B4CB"/>
<path d="M66.7167 24.0617H53.5921C51.7831 24.0617 50.3109 25.5339 50.3109 27.3429C50.3109 28.7691 51.2253 29.9853 52.4984 30.437V41.3742C50.4181 37.3307 46.9751 34.0211 42.6549 32.1924V12.9376C43.928 12.4859 44.8423 11.2696 44.8423 9.84344C44.8423 8.03444 43.3702 6.56229 41.5612 6.56229H39.3738V8.74973H41.5612C42.1638 8.74973 42.6549 9.23971 42.6549 9.84344C42.6549 10.4472 42.1638 10.9372 41.5612 10.9372H38.2801V13.1246H40.4675V32.9318C40.4675 33.3868 40.7486 33.7936 41.174 33.9555C47.9474 36.5148 52.4984 43.088 52.4984 50.3109C52.4984 51.3828 52.3802 52.4415 52.1877 53.4816C45.6244 52.7138 41.4496 51.0514 37.0496 49.2949C32.1159 47.3262 27.0159 45.2962 18.4411 44.6969C20.0752 39.8627 23.7708 35.864 28.8238 33.9555C29.2492 33.7936 29.5303 33.3868 29.5303 32.9318V13.1246H31.7178V10.9372H28.4366C27.834 10.9372 27.3429 10.4472 27.3429 9.84344C27.3429 9.23971 27.834 8.74973 28.4366 8.74973H32.8115V6.56229H28.4366C26.6276 6.56229 25.1555 8.03444 25.1555 9.84344C25.1555 11.2696 26.0698 12.4859 27.3429 12.9376V32.1913C22.9615 34.0375 19.5545 37.3121 17.4995 41.3151V30.437C18.7725 29.9853 19.6869 28.7691 19.6869 27.3429C19.6869 25.5339 18.2147 24.0617 16.4057 24.0617H3.28115C1.47214 24.0617 0 25.5339 0 27.3429C0 28.7691 0.914346 29.9853 2.18743 30.437V49.681V62.3418C2.18743 64.4308 3.01319 66.382 4.51267 67.8366C5.95419 69.2355 7.83757 69.9978 9.83907 69.9978C9.91891 69.9978 9.99875 69.9967 10.0775 69.9945C14.1702 69.8709 17.4995 66.3153 17.4995 62.0662V59.3232C20.4678 65.0116 26.1803 69.1414 32.7437 69.872C33.5125 69.9573 34.2749 70 35.0328 70C39.8834 69.9989 44.4639 68.2588 48.1213 64.9864C48.9493 64.246 49.6853 63.4257 50.3689 62.5682C50.4422 62.4763 50.5187 62.3877 50.5909 62.2948C50.837 61.9743 51.0678 61.6462 51.2931 61.3126C51.4232 61.1212 51.5479 60.9276 51.6715 60.7319C51.8618 60.4267 52.0488 60.1216 52.2216 59.8066C52.3179 59.6327 52.4076 59.4544 52.4984 59.2761V62.0662C52.4984 66.3153 55.8276 69.8709 59.9192 69.9945C59.9991 69.9967 60.0789 69.9978 60.1576 69.9978C62.1602 69.9978 64.0436 69.2355 65.4851 67.8366C66.9846 66.382 67.8104 64.4308 67.8104 62.3418V49.681V30.437C69.0835 29.9853 69.9978 28.7691 69.9978 27.3429C69.9978 25.5339 68.5257 24.0617 66.7167 24.0617ZM3.28115 26.2492H16.4057C17.0084 26.2492 17.4995 26.7392 17.4995 27.3429C17.4995 27.9466 17.0084 28.4366 16.4057 28.4366H13.1246V30.624H15.312V43.2586C12.4924 43.858 10.5773 44.9867 8.72785 46.0881C7.35743 46.904 6.04169 47.6805 4.37486 48.2351V30.624H10.9372V28.4366H3.28115C2.67851 28.4366 2.18743 27.9466 2.18743 27.3429C2.18743 26.7392 2.67851 26.2492 3.28115 26.2492ZM15.312 62.0662C15.312 65.1439 12.9343 67.7196 10.0119 67.8071C8.52223 67.8585 7.10587 67.3051 6.03512 66.2672C4.96547 65.2281 4.37486 63.8336 4.37486 62.3418V50.5297C6.61261 49.8931 8.25427 48.9153 9.84782 47.966C11.5048 46.9806 13.0841 46.0389 15.312 45.4931V62.0662ZM17.6777 52.8484C17.6066 52.3431 17.5585 51.8389 17.5301 51.3379C17.447 49.8308 17.5574 48.328 17.8593 46.8471C26.3487 47.3776 31.1578 49.2971 36.2381 51.3259C40.5244 53.0365 44.9484 54.8028 51.6606 55.6242C51.5567 55.9501 51.4298 56.2651 51.3084 56.5812C51.2329 56.7781 51.1629 56.9771 51.0809 57.1718C50.9507 57.4759 50.8053 57.7712 50.6598 58.0654C50.5625 58.2612 50.4662 58.4569 50.3612 58.6483C50.195 58.9535 50.02 59.2532 49.8373 59.5463C49.7455 59.6928 49.6492 59.8372 49.5541 59.9816C49.3342 60.3097 49.1122 60.6367 48.8716 60.9484C48.853 60.9725 48.8333 60.9943 48.8147 61.0184C46.0968 64.5085 42.1102 66.8906 37.6763 67.5916C37.6162 67.6004 37.5571 67.6102 37.497 67.6179C37.0857 67.678 36.6712 67.7218 36.2534 67.7535C36.0303 67.7688 35.805 67.7754 35.5808 67.783C35.28 67.794 34.9803 67.806 34.6774 67.8016C34.1163 67.7907 33.553 67.7623 32.9854 67.6988C25.2014 66.8304 18.7638 60.5864 17.6777 52.8484ZM65.6229 62.3418C65.6229 63.8336 65.0323 65.2281 63.9616 66.2672C62.8908 67.3051 61.4767 67.8607 59.9848 67.8071C57.0635 67.7196 54.6858 65.1439 54.6858 62.0662V45.4942C56.9137 46.04 58.493 46.9806 60.15 47.9671C61.7435 48.9164 63.3852 49.8942 65.6229 50.5308V62.3418ZM66.7167 28.4366H59.0607V30.624H65.6229V48.2351C63.9561 47.6805 62.6404 46.904 61.27 46.0881C59.4205 44.9867 57.5054 43.858 54.6858 43.2586V30.624H56.8732V28.4366H53.5921C52.9894 28.4366 52.4984 27.9466 52.4984 27.3429C52.4984 26.7392 52.9894 26.2492 53.5921 26.2492H66.7167C67.3193 26.2492 67.8104 26.7392 67.8104 27.3429C67.8104 27.9466 67.3193 28.4366 66.7167 28.4366Z" fill="#00B4CB"/>
<path d="M57.9668 62.3418C57.9668 64.1508 59.4389 65.6229 61.2479 65.6229C63.057 65.6229 64.5291 64.1508 64.5291 62.3418C64.5291 60.5328 63.057 59.0607 61.2479 59.0607C59.4389 59.0607 57.9668 60.5328 57.9668 62.3418ZM62.3417 62.3418C62.3417 62.9455 61.8506 63.4355 61.2479 63.4355C60.6453 63.4355 60.1542 62.9455 60.1542 62.3418C60.1542 61.7381 60.6453 61.2481 61.2479 61.2481C61.8506 61.2481 62.3417 61.7381 62.3417 62.3418Z" fill="#00B4CB"/>
<path d="M61.248 9.84344H59.0605V12.0309H61.248V9.84344Z" fill="#00B4CB"/>
<path d="M66.7167 15.312H64.5293V17.4995H66.7167V15.312Z" fill="#00B4CB"/>
<path d="M59.0605 18.5932H56.873V20.7806H59.0605V18.5932Z" fill="#00B4CB"/>
<path d="M59.0604 50.8578C59.0604 51.1586 58.8155 51.4046 58.5136 51.4046C58.2117 51.4046 57.9667 51.1586 57.9667 50.8578V50.3109H55.7793V50.8578C55.7793 52.366 57.0064 53.5921 58.5136 53.5921C60.0207 53.5921 61.2479 52.366 61.2479 50.8578V50.3109H59.0604V50.8578Z" fill="#00B4CB"/>
<path d="M8.7499 59.0607C6.94089 59.0607 5.46875 60.5328 5.46875 62.3418C5.46875 64.1508 6.94089 65.6229 8.7499 65.6229C10.5589 65.6229 12.031 64.1508 12.031 62.3418C12.031 60.5328 10.5589 59.0607 8.7499 59.0607ZM8.7499 63.4355C8.14726 63.4355 7.65618 62.9455 7.65618 62.3418C7.65618 61.7381 8.14726 61.2481 8.7499 61.2481C9.35253 61.2481 9.84361 61.7381 9.84361 62.3418C9.84361 62.9455 9.35253 63.4355 8.7499 63.4355Z" fill="#00B4CB"/>
<path d="M12.0312 9.84344H9.84375V12.0309H12.0312V9.84344Z" fill="#00B4CB"/>
<path d="M7.65618 16.4057H5.46875V18.5932H7.65618V16.4057Z" fill="#00B4CB"/>
<path d="M14.2187 19.6869H12.0312V21.8743H14.2187V19.6869Z" fill="#00B4CB"/>
<path d="M8.75 50.3109V50.8578C8.75 52.366 9.97715 53.5921 11.4843 53.5921C12.9914 53.5921 14.2186 52.366 14.2186 50.8578V50.3109H12.0311V50.8578C12.0311 51.1586 11.7862 51.4046 11.4843 51.4046C11.1824 51.4046 10.9374 51.1586 10.9374 50.8578V50.3109H8.75Z" fill="#00B4CB"/>
</svg>
