<svg width="70" height="70" viewBox="0 0 70 70" fill="none" xmlns="http://www.w3.org/2000/svg">
<path d="M25.1572 28.438C23.3482 28.438 21.876 29.9102 21.876 31.7193V38.2818C21.876 38.8855 22.366 39.3755 22.9697 39.3755H27.3447C27.9485 39.3755 28.4385 38.8855 28.4385 38.2818V31.7193C28.4385 29.9102 26.9663 28.438 25.1572 28.438ZM26.251 37.188H24.0635V31.7193C24.0635 31.1166 24.5546 30.6255 25.1572 30.6255C25.7599 30.6255 26.251 31.1166 26.251 31.7193V37.188Z" fill="#00B4CB"/>
<path d="M44.8447 28.438C43.0357 28.438 41.5635 29.9102 41.5635 31.7193V38.2818C41.5635 38.8855 42.0535 39.3755 42.6572 39.3755H47.0322C47.636 39.3755 48.126 38.8855 48.126 38.2818V31.7193C48.126 29.9102 46.6538 28.438 44.8447 28.438ZM45.9385 37.188H43.751V31.7193C43.751 31.1166 44.2421 30.6255 44.8447 30.6255C45.4474 30.6255 45.9385 31.1166 45.9385 31.7193V37.188Z" fill="#00B4CB"/>
<path d="M35.001 28.438C33.1919 28.438 31.7197 29.9102 31.7197 31.7193V38.2818C31.7197 38.8855 32.2097 39.3755 32.8135 39.3755H37.1885C37.7922 39.3755 38.2823 38.8855 38.2823 38.2818V31.7193C38.2823 29.9102 36.8101 28.438 35.001 28.438ZM36.0947 37.188H33.9072V31.7193C33.9072 31.1166 34.3983 30.6255 35.001 30.6255C35.6036 30.6255 36.0947 31.1166 36.0947 31.7193V37.188Z" fill="#00B4CB"/>
<path d="M57.9698 38.2818V31.7193C57.9698 29.9102 56.4976 28.438 54.6885 28.438C52.8794 28.438 51.4072 29.9102 51.4072 31.7193V38.2818C51.4072 38.8855 51.8972 39.3755 52.501 39.3755H56.876C57.4797 39.3755 57.9698 38.8855 57.9698 38.2818ZM55.7822 37.188H53.5947V31.7193C53.5947 31.1166 54.0858 30.6255 54.6885 30.6255C55.2911 30.6255 55.7822 31.1166 55.7822 31.7193V37.188Z" fill="#00B4CB"/>
<path d="M15.313 28.438C13.5039 28.438 12.0317 29.9102 12.0317 31.7193V38.2818C12.0317 38.8855 12.5217 39.3755 13.1255 39.3755H17.5005C18.1043 39.3755 18.5943 38.8855 18.5943 38.2818V31.7193C18.5943 29.9102 17.1221 28.438 15.313 28.438ZM16.4068 37.188H14.2192V31.7193C14.2192 31.1166 14.7103 30.6255 15.313 30.6255C15.9157 30.6255 16.4068 31.1166 16.4068 31.7193V37.188Z" fill="#00B4CB"/>
<path d="M8.75049 62.3444H15.313C15.9168 62.3444 16.4068 61.8544 16.4068 61.2506V53.5943C16.4068 51.1815 14.4446 49.2193 12.0318 49.2193C9.61893 49.2193 7.65674 51.1815 7.65674 53.5943V61.2506C7.65674 61.8544 8.14674 62.3444 8.75049 62.3444ZM14.2193 60.1569H9.84425V57.9694H14.2193V60.1569ZM12.0318 51.4068C13.2382 51.4068 14.2193 52.3879 14.2193 53.5943V55.7819H9.84425V53.5943C9.84425 52.3879 10.8253 51.4068 12.0318 51.4068Z" fill="#00B4CB"/>
<path d="M19.6885 62.3444H26.251C26.8548 62.3444 27.3448 61.8544 27.3448 61.2506V53.5943C27.3448 51.1815 25.3826 49.2193 22.9697 49.2193C20.5569 49.2193 18.5947 51.1815 18.5947 53.5943V61.2506C18.5947 61.8544 19.0847 62.3444 19.6885 62.3444ZM25.1573 60.1569H20.7822V57.9694H25.1573V60.1569ZM22.9697 51.4068C24.1762 51.4068 25.1573 52.3879 25.1573 53.5943V55.7819H20.7822V53.5943C20.7822 52.3879 21.7633 51.4068 22.9697 51.4068Z" fill="#00B4CB"/>
<path d="M43.751 62.3444H50.3135C50.9173 62.3444 51.4073 61.8544 51.4073 61.2506V53.5943C51.4073 51.1815 49.4451 49.2193 47.0322 49.2193C44.6194 49.2193 42.6572 51.1815 42.6572 53.5943V61.2506C42.6572 61.8544 43.1472 62.3444 43.751 62.3444ZM49.2198 60.1569H44.8447V57.9694H49.2198V60.1569ZM47.0322 51.4068C48.2387 51.4068 49.2198 52.3879 49.2198 53.5943V55.7819H44.8447V53.5943C44.8447 52.3879 45.8258 51.4068 47.0322 51.4068Z" fill="#00B4CB"/>
<path d="M54.6885 62.3444H61.251C61.8548 62.3444 62.3448 61.8544 62.3448 61.2506V53.5943C62.3448 51.1815 60.3826 49.2193 57.9697 49.2193C55.5569 49.2193 53.5947 51.1815 53.5947 53.5943V61.2506C53.5947 61.8544 54.0847 62.3444 54.6885 62.3444ZM60.1573 60.1569H55.7822V57.9694H60.1573V60.1569ZM57.9697 51.4068C59.1762 51.4068 60.1573 52.3879 60.1573 53.5943V55.7819H55.7822V53.5943C55.7822 52.3879 56.7633 51.4068 57.9697 51.4068Z" fill="#00B4CB"/>
<path d="M35.001 21.8755C39.2229 21.8755 42.6573 18.4411 42.6573 14.2192C42.6573 9.9973 39.2229 6.56291 35.001 6.56291C30.7791 6.56291 27.3447 9.9973 27.3447 14.2192C27.3447 18.4411 30.7791 21.8755 35.001 21.8755ZM35.001 8.75042C38.0165 8.75042 40.4698 11.2037 40.4698 14.2192C40.4698 17.2347 38.0165 19.688 35.001 19.688C31.9855 19.688 29.5322 17.2347 29.5322 14.2192C29.5322 11.2037 31.9855 8.75042 35.001 8.75042Z" fill="#00B4CB"/>
<path d="M34.3933 16.2229C34.5782 16.3465 34.7904 16.4067 35.0004 16.4067C35.2826 16.4067 35.5626 16.2973 35.7747 16.0862L39.056 12.805L37.5094 11.2584L34.8626 13.9053L33.1475 12.7612L32.3272 12.2143L31.1143 14.0343L31.9346 14.5812L34.3933 16.2229Z" fill="#00B4CB"/>
<path d="M68.9068 47.0312C69.5106 47.0312 70.0006 46.5412 70.0006 45.9374V42.6561C70.0006 42.0524 69.5106 41.5624 68.9068 41.5624H66.7193V26.2498H68.9068C69.2721 26.2498 69.6134 26.0672 69.8168 25.7631C70.0202 25.459 70.0574 25.0729 69.9163 24.7361L64.4476 11.611C64.278 11.2031 63.8799 10.9373 63.438 10.9373H47.0317V8.4971C47.0317 8.13398 46.8513 7.79491 46.5516 7.59148L35.614 0.187852C35.2432 -0.0626174 34.7587 -0.0626174 34.3879 0.187852L23.4504 7.59148C23.1496 7.79491 22.9691 8.13398 22.9691 8.4971V10.9373H6.56282C6.12094 10.9373 5.72281 11.2031 5.55328 11.6099L0.0845085 24.735C-0.0565858 25.073 -0.0193982 25.458 0.18404 25.762C0.387478 26.0661 0.72873 26.2498 1.09404 26.2498H3.28155V41.5624H1.09404C0.490291 41.5624 0.000289421 42.0524 0.000289421 42.6561V45.9374C0.000289421 46.5412 0.490291 47.0312 1.09404 47.0312H3.28155V64.5312H1.09404C0.490291 64.5312 0.000289421 65.0212 0.000289421 65.625V68.9062C0.000289421 69.51 0.490291 70 1.09404 70H68.9068C69.5106 70 70.0006 69.51 70.0006 68.9062V65.625C70.0006 65.0212 69.5106 64.5312 68.9068 64.5312H66.7193V47.0312H68.9068ZM64.5318 37.1874H62.3443V31.7186C62.3443 31.1159 62.8354 30.6248 63.438 30.6248C64.0407 30.6248 64.5318 31.1159 64.5318 31.7186V37.1874ZM62.7085 13.1248L67.2662 24.0623H65.6255H47.0317V13.1248H62.7085ZM25.1566 9.07789L35.0004 2.41474L44.8442 9.07789V12.031V24.0623H25.1566V12.031V9.07789ZM7.29235 13.1248H22.9691V24.0623H4.37531H2.73468L7.29235 13.1248ZM5.46906 31.7186C5.46906 31.1159 5.96016 30.6248 6.56282 30.6248C7.16547 30.6248 7.65657 31.1159 7.65657 31.7186V37.1874H5.46906V31.7186ZM2.1878 43.7499H54.688V41.5624H5.46906V39.3749H8.75032C9.35408 39.3749 9.84408 38.8849 9.84408 38.2811V31.7186C9.84408 29.9095 8.37189 28.4373 6.56282 28.4373C6.17781 28.4373 5.8125 28.5161 5.46906 28.6386V26.2498H64.5318V28.6386C64.1884 28.5161 63.823 28.4373 63.438 28.4373C61.629 28.4373 60.1568 29.9095 60.1568 31.7186V38.2811C60.1568 38.8849 60.6468 39.3749 61.2505 39.3749H64.5318V41.5624H56.8755V43.7499H67.8131V44.8437H2.1878V43.7499ZM67.8131 67.8125H2.1878V66.7187H67.8131V67.8125ZM36.0942 51.5932C37.3673 52.0449 38.2817 53.2612 38.2817 54.6874V64.5312H36.0942V51.5932ZM33.9067 64.5312H31.7192V54.6874C31.7192 53.2612 32.6335 52.0449 33.9067 51.5932V64.5312ZM64.5318 64.5312H40.4692V54.6874C40.4692 51.672 38.0159 49.2187 35.0004 49.2187C31.9849 49.2187 29.5317 51.672 29.5317 54.6874V64.5312H5.46906V47.0312H64.5318V64.5312Z" fill="#00B4CB"/>
</svg>
