<svg width="36" height="36" viewBox="0 0 36 36" fill="none" xmlns="http://www.w3.org/2000/svg">
<path d="M34.3475 25.6882L20.7567 15.2436L10.312 1.65277C8.83815 -0.253346 5.90458 -0.66433 3.93469 1.2347L1.23495 3.93444C-0.564871 5.81221 -0.373551 8.65366 1.65302 10.3118L14.1243 19.899C12.9834 20.1612 11.4033 20.2675 9.88687 19.5306C9.39085 19.2896 8.78855 19.4951 8.55472 19.9982C8.31379 20.4942 8.5122 21.1178 9.02239 21.3304C11.3749 22.3224 12.9692 22.0744 13.2173 22.0532C12.5795 23.6687 12.4095 25.8016 13.8692 27.8707C14.1455 28.2675 14.8328 28.4163 15.2651 28.0904C15.7044 27.7573 15.8107 27.1408 15.4848 26.6944C13.777 24.349 15.4422 21.9681 15.8107 21.4934L25.6885 34.3472C27.1624 36.2533 30.0959 36.6643 32.0658 34.7653L34.7656 32.0656C36.5654 30.1807 36.3741 27.3463 34.3475 25.6882ZM10.9072 12.0124C10.5175 11.6227 9.88687 11.6227 9.49006 12.0124L8.47677 13.0257L7.26508 12.0974L9.57509 9.78741C9.96482 9.39769 9.96482 8.76704 9.57509 8.37023C9.18536 7.9805 8.55472 7.9805 8.1579 8.37023L5.67074 10.8716L2.87889 8.72452C1.816 7.8813 1.74514 6.22319 2.65922 5.35162L5.35896 2.65188C6.28722 1.67403 7.89572 1.82992 8.73186 2.87155L18.7088 15.8671L15.8674 18.7086L10.0782 14.2586L10.9072 13.4296C11.297 13.0399 11.297 12.4021 10.9072 12.0124ZM33.3484 30.6484L30.6486 33.3481C29.7204 34.326 28.1119 34.1701 27.2757 33.1285L17.2917 20.1329L20.1331 17.2914L33.1287 27.2755C34.1916 28.1258 34.2625 29.7768 33.3484 30.6484Z" fill="#4451BA"/>
</svg>
