<svg width="31" height="37" viewBox="0 0 31 37" fill="none" xmlns="http://www.w3.org/2000/svg">
<path d="M27.3054 0.0751343H3.30536C1.64677 0.0751343 0.300049 1.42186 0.300049 3.07336V33.0769C0.300049 34.7284 1.64677 36.0751 3.29828 36.0751H27.3054C28.9569 36.0751 30.3036 34.7284 30.3036 33.0769V3.07336C30.3107 1.42186 28.964 0.0751343 27.3054 0.0751343ZM28.3048 33.084C28.3048 33.6369 27.8582 34.0834 27.3054 34.0834H3.30536C2.7525 34.0834 2.30596 33.6369 2.30596 33.084V3.07336C2.30596 2.5205 2.7525 2.07395 3.30536 2.07395H27.3125C27.8653 2.07395 28.3119 2.5205 28.3119 3.07336V33.084H28.3048Z" fill="#4451BA"/>
<path d="M5.30417 16.1862H25.3065C25.8594 16.1862 26.3059 15.7396 26.3059 15.1867V5.07924C26.3059 4.52638 25.8594 4.07983 25.3065 4.07983H5.30417C4.75131 4.07983 4.30476 4.52638 4.30476 5.07924V15.1938C4.30476 15.7396 4.75131 16.1862 5.30417 16.1862ZM6.30358 12.7343H8.99703C9.54989 12.7343 9.99644 12.2877 9.99644 11.7349C9.99644 11.182 9.54989 10.7355 8.99703 10.7355H6.30358V9.53051H11.9953C12.5481 9.53051 12.9947 9.08397 12.9947 8.5311C12.9947 7.97824 12.5481 7.53169 11.9953 7.53169H6.30358V6.07865H24.3071V14.1944H6.30358V12.7343Z" fill="#4451BA"/>
<path d="M7.39517 18.1921C5.74366 18.1921 4.39694 19.5388 4.39694 21.1903C4.39694 22.8418 5.74366 24.1885 7.39517 24.1885C9.04668 24.1885 10.3934 22.8418 10.3934 21.1903C10.3934 19.5388 9.04668 18.1921 7.39517 18.1921ZM7.39517 22.1897C6.8423 22.1897 6.39576 21.7432 6.39576 21.1903C6.39576 20.6374 6.8423 20.1909 7.39517 20.1909C7.94803 20.1909 8.39458 20.6374 8.39458 21.1903C8.39458 21.7432 7.94095 22.1897 7.39517 22.1897Z" fill="#4451BA"/>
<path d="M15.3904 18.1921C13.7389 18.1921 12.3922 19.5388 12.3922 21.1903C12.3922 22.8418 13.7389 24.1885 15.3904 24.1885C17.0419 24.1885 18.3887 22.8418 18.3887 21.1903C18.3887 19.5388 17.049 18.1921 15.3904 18.1921ZM15.3904 22.1897C14.8376 22.1897 14.391 21.7432 14.391 21.1903C14.391 20.6374 14.8376 20.1909 15.3904 20.1909C15.9433 20.1909 16.3898 20.6374 16.3898 21.1903C16.3898 21.7432 15.9433 22.1897 15.3904 22.1897Z" fill="#4451BA"/>
<path d="M23.3928 18.1921C21.7413 18.1921 20.3945 19.5388 20.3945 21.1903C20.3945 22.8418 21.7413 24.1885 23.3928 24.1885C25.0443 24.1885 26.391 22.8418 26.391 21.1903C26.391 19.5388 25.0514 18.1921 23.3928 18.1921ZM23.3928 22.1897C22.8399 22.1897 22.3934 21.7432 22.3934 21.1903C22.3934 20.6374 22.8399 20.1909 23.3928 20.1909C23.9456 20.1909 24.3922 20.6374 24.3922 21.1903C24.3922 21.7432 23.9456 22.1897 23.3928 22.1897Z" fill="#4451BA"/>
<path d="M7.39517 26.1945C5.74366 26.1945 4.39694 27.5412 4.39694 29.1927C4.39694 30.8442 5.74366 32.1909 7.39517 32.1909C9.04668 32.1909 10.3934 30.8442 10.3934 29.1927C10.3934 27.5412 9.04668 26.1945 7.39517 26.1945ZM7.39517 30.1921C6.8423 30.1921 6.39576 29.7455 6.39576 29.1927C6.39576 28.6398 6.8423 28.1933 7.39517 28.1933C7.94803 28.1933 8.39458 28.6398 8.39458 29.1927C8.39458 29.7455 7.94095 30.1921 7.39517 30.1921Z" fill="#4451BA"/>
<path d="M15.3904 26.1945C13.7389 26.1945 12.3922 27.5412 12.3922 29.1927C12.3922 30.8442 13.7389 32.1909 15.3904 32.1909C17.0419 32.1909 18.3887 30.8442 18.3887 29.1927C18.3887 27.5412 17.049 26.1945 15.3904 26.1945ZM15.3904 30.1921C14.8376 30.1921 14.391 29.7455 14.391 29.1927C14.391 28.6398 14.8376 28.1933 15.3904 28.1933C15.9433 28.1933 16.3898 28.6398 16.3898 29.1927C16.3898 29.7455 15.9433 30.1921 15.3904 30.1921Z" fill="#4451BA"/>
<path d="M23.3928 26.1945C21.7413 26.1945 20.3945 27.5412 20.3945 29.1927C20.3945 30.8442 21.7413 32.1909 23.3928 32.1909C25.0443 32.1909 26.391 30.8442 26.391 29.1927C26.391 27.5412 25.0514 26.1945 23.3928 26.1945ZM23.3928 30.1921C22.8399 30.1921 22.3934 29.7455 22.3934 29.1927C22.3934 28.6398 22.8399 28.1933 23.3928 28.1933C23.9456 28.1933 24.3922 28.6398 24.3922 29.1927C24.3922 29.7455 23.9456 30.1921 23.3928 30.1921Z" fill="#4451BA"/>
</svg>
