<svg width="41" height="36" viewBox="0 0 41 36" fill="none" xmlns="http://www.w3.org/2000/svg">
<path d="M39.8937 3.35006C35.8374 1.15854 28.8086 -1.40754 20.2417 0.919463C18.09 0.313806 10.1049 -1.64661 0.589719 3.35006C0.223137 3.54132 0 3.92384 0 4.33824V34.8681C0 35.2188 0.167353 35.5535 0.446274 35.7687C0.725195 35.9679 1.05193 36.0715 1.43445 35.944C8.41545 33.7046 14.3923 30.764 19.6998 33.5931C20.0265 33.7684 20.3851 33.7604 20.7677 33.5931C26.9119 30.4293 33.1916 34.4139 39.033 35.944C39.3518 36.0555 39.6785 35.9759 40.0212 35.7687C40.3081 35.5535 40.4675 35.2188 40.4675 34.8681V4.33824C40.4834 3.92384 40.2603 3.54132 39.8937 3.35006ZM19.118 30.8756C13.1969 28.8355 6.98897 31.7522 2.24731 33.3301V5.01562C7.57868 2.31407 13.6751 1.56497 19.118 2.93566V30.8756ZM28.2348 2.3061C29.2787 2.36188 30.3227 2.48939 31.3587 2.68862V6.68914L30.5458 5.96395C30.1235 5.5894 29.478 5.5894 29.0556 5.96395L28.2427 6.68914V2.3061H28.2348ZM38.2361 33.3301C36.3394 32.9874 27.669 28.4848 21.3654 30.8676V2.93566C22.8636 2.55314 24.4175 2.34595 25.9875 2.29016V9.19146C26.0592 10.1717 27.1111 10.7056 27.8602 10.0282L29.7967 8.30689L31.7332 10.0282C32.4823 10.6419 33.5662 10.1717 33.606 9.19146V3.21458C35.1839 3.66086 36.7379 4.25855 38.2281 5.01562V33.3301H38.2361Z" fill="#4451BA"/>
<path d="M4.5982 7.3984C4.00849 7.60559 3.70566 8.24313 3.91286 8.83285C4.12802 9.39069 4.73368 9.74133 5.34731 9.5182C8.78999 8.30688 12.4558 7.86061 15.9543 8.22719C16.5679 8.29891 17.1257 7.84467 17.1895 7.23104C17.2533 6.60945 16.807 6.05958 16.1854 5.99582C12.3681 5.58939 8.35965 6.07551 4.5982 7.3984Z" fill="#4451BA"/>
<path d="M16.1933 11.8532C12.3681 11.4468 8.36762 11.9329 4.60617 13.2637C4.01645 13.4709 3.71362 14.1085 3.92082 14.6982C4.13599 15.256 4.74164 15.6067 5.35527 15.3835C8.79795 14.1722 12.4638 13.7259 15.9622 14.0925C16.5759 14.1642 17.1337 13.71 17.1975 13.0964C17.2532 12.4748 16.807 11.9169 16.1933 11.8532Z" fill="#4451BA"/>
<path d="M16.1933 17.7185C12.3681 17.312 8.36762 17.7982 4.60617 19.129C4.01645 19.3362 3.71362 19.9738 3.92082 20.5635C4.13599 21.1213 4.74164 21.472 5.35527 21.2488C8.79795 20.0375 12.4638 19.5912 15.9622 19.9578C16.5759 20.0295 17.1337 19.5753 17.1975 18.9617C17.2532 18.3321 16.807 17.7822 16.1933 17.7185Z" fill="#4451BA"/>
<path d="M16.1933 23.5758C12.3681 23.1694 8.36762 23.6555 4.60617 24.9864C4.01645 25.1936 3.71362 25.8311 3.92082 26.4208C4.13599 26.9787 4.74164 27.3293 5.35527 27.1062C8.79795 25.8949 12.4638 25.4486 15.9622 25.8152C16.5759 25.8869 17.1337 25.4327 17.1975 24.819C17.2532 24.1974 16.807 23.6396 16.1933 23.5758Z" fill="#4451BA"/>
<path d="M4.64603 7.3984C4.05631 7.60559 3.75348 8.24313 3.96068 8.83285C4.17584 9.39069 4.7815 9.74133 5.39513 9.5182C8.83781 8.30688 12.5036 7.86061 16.0021 8.22719C16.6157 8.29891 17.1736 7.84467 17.2373 7.23104C17.3011 6.60945 16.8548 6.05958 16.2332 5.99582C12.408 5.58939 8.39951 6.07551 4.64603 7.3984Z" fill="#4451BA"/>
<path d="M16.2332 11.8531C12.408 11.4467 8.40751 11.9328 4.64606 13.2637C4.05634 13.4709 3.75351 14.1084 3.96071 14.6981C4.17587 15.256 4.78153 15.6066 5.39516 15.3835C8.83784 14.1722 12.5037 13.7259 16.0021 14.0925C16.6158 14.1642 17.1736 13.71 17.2373 13.0963C17.2931 12.4747 16.8469 11.9169 16.2332 11.8531Z" fill="#4451BA"/>
<path d="M16.2332 17.7184C12.408 17.312 8.40751 17.7981 4.64606 19.129C4.05634 19.3362 3.75351 19.9737 3.96071 20.5634C4.17587 21.1213 4.78153 21.4719 5.39516 21.2488C8.83784 20.0375 12.5037 19.5912 16.0021 19.9578C16.6158 20.0295 17.1736 19.5753 17.2373 18.9616C17.2931 18.3321 16.8469 17.7822 16.2332 17.7184Z" fill="#4451BA"/>
<path d="M16.2332 23.5758C12.408 23.1694 8.40751 23.6555 4.64606 24.9863C4.05634 25.1935 3.75351 25.8311 3.96071 26.4208C4.17587 26.9786 4.78153 27.3293 5.39516 27.1061C8.83784 25.8948 12.5037 25.4486 16.0021 25.8151C16.6158 25.8869 17.1736 25.4326 17.2373 24.819C17.2931 24.1974 16.8469 23.6396 16.2332 23.5758Z" fill="#4451BA"/>
<path d="M24.0271 11.9886C27.8523 11.5822 31.8528 12.0683 35.6142 13.3992C36.2039 13.6064 36.5068 14.2439 36.2996 14.8336C36.0844 15.3915 35.4788 15.7421 34.8651 15.519C31.4224 14.3077 27.7566 13.8614 24.2582 14.228C23.6445 14.2997 23.0867 13.8455 23.0229 13.2318C22.9592 12.6102 23.4055 12.0524 24.0271 11.9886Z" fill="#4451BA"/>
<path d="M24.0271 17.854C27.8523 17.4475 31.8528 17.9337 35.6142 19.2645C36.2039 19.4717 36.5068 20.1092 36.2996 20.699C36.0844 21.2568 35.4788 21.6075 34.8651 21.3843C31.4224 20.173 27.7566 19.7267 24.2582 20.0933C23.6445 20.165 23.0867 19.7108 23.0229 19.0972C22.9592 18.4676 23.4055 17.9177 24.0271 17.854Z" fill="#4451BA"/>
<path d="M24.0271 23.7113C27.8523 23.3049 31.8528 23.791 35.6142 25.1218C36.2039 25.329 36.5068 25.9666 36.2996 26.5563C36.0844 27.1141 35.4788 27.4648 34.8651 27.2416C31.4224 26.0303 27.7566 25.5841 24.2582 25.9506C23.6445 26.0224 23.0867 25.5681 23.0229 24.9545C22.9592 24.3329 23.4055 23.7751 24.0271 23.7113Z" fill="#4451BA"/>
</svg>
