<svg width="37" height="36" viewBox="0 0 37 36" fill="none" xmlns="http://www.w3.org/2000/svg">
<path d="M10.4214 7.66364H21.5021C22.0551 7.66364 22.5017 7.21701 22.5017 6.66403C22.5017 6.11106 22.048 5.66443 21.5021 5.66443H10.4214C9.86844 5.66443 9.42181 6.11106 9.42181 6.66403C9.42181 7.21701 9.86844 7.66364 10.4214 7.66364Z" fill="#4451BA"/>
<path d="M4.99803 13.3281H21.495C22.048 13.3281 22.4946 12.8814 22.4946 12.3285C22.4946 11.7755 22.048 11.3289 21.495 11.3289H4.99803C4.44505 11.3289 3.99842 11.7755 3.99842 12.3285C3.99842 12.8814 4.44505 13.3281 4.99803 13.3281Z" fill="#4451BA"/>
<path d="M4.99803 18.9996H21.495C22.048 18.9996 22.4946 18.5529 22.4946 18C22.4946 17.447 22.048 17.0004 21.495 17.0004H4.99803C4.44505 17.0004 3.99842 17.447 3.99842 18C3.99842 18.5529 4.44505 18.9996 4.99803 18.9996Z" fill="#4451BA"/>
<path d="M14.271 22.6648H4.99803C4.44505 22.6648 3.99842 23.1114 3.99842 23.6644C3.99842 24.2174 4.44505 24.664 4.99803 24.664H14.2639C14.8168 24.664 15.2635 24.2174 15.2635 23.6644C15.2706 23.1114 14.8239 22.6648 14.271 22.6648Z" fill="#4451BA"/>
<path d="M14.271 28.3292H4.99803C4.44505 28.3292 3.99842 28.7759 3.99842 29.3288C3.99842 29.8818 4.44505 30.3284 4.99803 30.3284H14.2639C14.8168 30.3284 15.2635 29.8818 15.2635 29.3288C15.2706 28.7759 14.8239 28.3292 14.271 28.3292Z" fill="#4451BA"/>
<path d="M35.2697 13.7463L33.8519 12.3285C32.7601 11.343 31.3777 11.3501 30.3142 12.3285L26.4931 16.1496V2.99881C26.4931 1.34699 25.1461 0 23.4942 0H7.58565C6.78455 0 6.02598 0.311933 5.45883 0.879085L0.879085 5.45883C0.311933 6.02598 0 6.77746 0 7.57856V33.0011C0 34.653 1.34698 35.9999 2.99881 35.9999H23.4942C25.1461 35.9999 26.4931 34.653 26.4931 33.0011V26.0535L35.2626 17.2839C36.2906 16.2276 36.241 14.6821 35.2697 13.7463ZM5.7495 3.41709V5.7495H3.41709L5.7495 3.41709ZM24.5009 33.0011C24.5009 33.5541 24.0543 34.0007 23.5013 34.0007H2.99881C2.44584 34.0007 1.99921 33.5541 1.99921 33.0011V7.74871H6.7491C7.30208 7.74871 7.74871 7.30208 7.74871 6.7491V1.99921H23.4942C24.0472 1.99921 24.4939 2.44584 24.4939 2.99881V18.1488L17.5604 25.0894C17.3761 25.2737 17.2698 25.5289 17.2698 25.7983V29.3359C17.2698 29.8889 17.7164 30.3355 18.2694 30.3355H21.807C22.0693 30.3355 22.3245 30.2292 22.5159 30.0448L24.5009 28.0598V33.0011ZM21.3887 28.3292H19.269V26.2095L29.0311 16.4403L31.1508 18.56L21.3887 28.3292ZM33.8519 15.8661L32.5687 17.1492L30.4489 15.0295L31.7321 13.7463C31.9873 13.5407 32.2213 13.562 32.4411 13.7463L33.8519 15.1571C34.0362 15.2918 34.0716 15.6888 33.8519 15.8661Z" fill="#4451BA"/>
</svg>
