<svg width="36" height="36" viewBox="0 0 36 36" fill="none" xmlns="http://www.w3.org/2000/svg">
<path d="M33.0089 7.74011H26.3532C25.9917 3.41642 22.391 0 18.0035 0C13.6161 0 10.0154 3.41642 9.65387 7.74011H2.99823C1.34672 7.74011 0 9.08683 0 10.7383V18.9888C0 20.3709 0.935617 21.5688 2.27525 21.9019L3.03367 22.0862V33.0018C3.03367 34.6533 4.38039 36 6.0319 36H29.9681C31.6196 36 32.9663 34.6533 32.9663 33.0018V22.0862L33.7247 21.9019C35.0644 21.5688 36 20.3709 36 18.9888V10.7383C36.0071 9.08683 34.6604 7.74011 33.0089 7.74011ZM18.0035 1.99882C21.2853 1.99882 23.9929 4.51506 24.3473 7.74011H11.6598C12.0142 4.51506 14.7218 1.99882 18.0035 1.99882ZM30.9675 33.0089C30.9675 33.5617 30.521 34.0083 29.9681 34.0083H6.03898C5.48612 34.0083 5.03957 33.5617 5.03957 33.0089V22.5895L8.7466 23.5109V27.0904C8.7466 27.6432 9.19315 28.0898 9.74601 28.0898C10.2989 28.0898 10.7454 27.6432 10.7454 27.0904V24.0071L17.2877 25.6302C17.7696 25.7507 18.2516 25.7507 18.7336 25.6302L25.2758 24.0071V27.0904C25.2758 27.6432 25.7224 28.0898 26.2753 28.0898C26.8281 28.0898 27.2747 27.6432 27.2747 27.0904V23.5109L30.9817 22.5895V33.0089H30.9675ZM34.0083 18.9888C34.0083 19.4495 33.6964 19.8464 33.2499 19.9598L18.2445 23.681C18.0886 23.7236 17.9185 23.7236 17.7626 23.681L2.75724 19.9598C2.31069 19.8464 1.99882 19.4495 1.99882 18.9888V17.8476H4.69226C5.24513 17.8476 5.69167 17.4011 5.69167 16.8482C5.69167 16.2953 5.24513 15.8488 4.69226 15.8488H1.99882V13.446H7.69049C8.24335 13.446 8.6899 12.9994 8.6899 12.4465C8.6899 11.8937 8.24335 11.4471 7.69049 11.4471H1.99882V10.7454C1.99882 10.1926 2.44536 9.74601 2.99823 9.74601H33.0018C33.5546 9.74601 34.0012 10.1926 34.0012 10.7454V18.9888H34.0083Z" fill="#4451BA"/>
</svg>
