<svg width="36" height="36" viewBox="0 0 36 36" fill="none" xmlns="http://www.w3.org/2000/svg">
<path d="M35.0008 9.50315H27.9992V5.97402H28.0063C28.5591 5.97402 29.0055 5.52756 29.0055 4.9748C29.0055 4.42205 28.5591 3.97559 28.0063 3.97559H18.9992C18.4465 3.97559 18 4.42205 18 4.9748C18 5.52756 18.4465 5.97402 18.9992 5.97402H19.0063V9.50315H7.49764V0.999213C7.49764 0.446457 7.05118 0 6.49843 0C5.94567 0 5.49921 0.446457 5.49921 0.999213V9.50315H0.999213C0.446457 9.50315 0 9.94961 0 10.5024C0 11.0551 0.446457 11.5016 0.999213 11.5016H5.49921V34.0016H0.999213C0.446457 34.0016 0 34.448 0 35.0008C0 35.5535 0.446457 36 0.999213 36H15.7394C16.2921 36 16.7386 35.5535 16.7386 35.0008C16.7386 34.448 16.2921 34.0016 15.7394 34.0016H7.49764V11.5016H18.9992V14.2016C15.3142 15.9307 12.9685 19.5945 12.9685 23.7189C12.9685 29.5299 17.6953 34.2567 23.4992 34.2567C29.3102 34.2567 34.037 29.5299 34.037 23.7189C34.037 19.5945 31.6913 15.9307 27.9992 14.2016V11.5016H35.0008C35.5535 11.5016 36 11.0551 36 10.5024C36 9.94961 35.5535 9.50315 35.0008 9.50315ZM23.4992 32.2512C19.8496 32.2512 16.7386 29.9409 15.5197 26.7165H31.4787C30.2669 29.948 27.1488 32.2512 23.4992 32.2512ZM32.0386 23.7189C32.0386 24.0591 32.0102 24.3921 31.9748 24.7181H15.0378C14.9457 24.3638 14.9102 23.4 15.0236 22.8331H17.4331C17.9858 22.8331 18.4323 22.3866 18.4323 21.8339C18.4323 21.2811 17.9858 20.8346 17.4331 20.8346H15.4701C15.6472 20.3386 15.8598 19.8638 16.122 19.4173H20.1047C20.6575 19.4173 21.1039 18.9709 21.1039 18.4181C21.1039 17.8654 20.6575 17.4189 20.1047 17.4189H17.7449C18.4961 16.7386 19.3748 16.1787 20.3669 15.789C20.7496 15.6402 21.0047 15.2717 21.0047 14.8606V5.97402H26.0079V14.8535C26.0079 15.2646 26.2559 15.6331 26.6386 15.7819C29.9197 17.0787 32.0386 20.1898 32.0386 23.7189Z" fill="#4451BA"/>
</svg>
