<svg width="36" height="36" viewBox="0 0 36 36" fill="none" xmlns="http://www.w3.org/2000/svg">
<path d="M12.7346 36H3.99685C1.79291 36 0 34.2071 0 32.0032V23.2725C0 21.0685 1.79291 19.2756 3.99685 19.2756H12.7276C14.9315 19.2756 16.7244 21.0685 16.7244 23.2725V32.0032C16.7315 34.2071 14.9386 36 12.7346 36ZM3.99685 21.274C2.89134 21.274 1.99843 22.174 1.99843 23.2725V32.0032C1.99843 33.1087 2.89843 34.0016 3.99685 34.0016H12.7276C13.8331 34.0016 14.726 33.1016 14.726 32.0032V23.2725C14.726 22.1669 13.826 21.274 12.7276 21.274H3.99685Z" fill="#4451BA"/>
<path d="M32.0031 36H23.2653C21.0614 36 19.2685 34.2071 19.2685 32.0032V23.2725C19.2685 21.0685 21.0614 19.2756 23.2653 19.2756H31.9961C34.2 19.2756 35.9929 21.0685 35.9929 23.2725V32.0032C36 34.2071 34.2071 36 32.0031 36ZM23.2653 21.274C22.1598 21.274 21.2669 22.174 21.2669 23.2725V32.0032C21.2669 33.1087 22.1669 34.0016 23.2653 34.0016H31.9961C33.1016 34.0016 33.9945 33.1016 33.9945 32.0032V23.2725C33.9945 22.1669 33.0945 21.274 31.9961 21.274H23.2653Z" fill="#4451BA"/>
<path d="M21.7701 11.9055C21.9685 12.4441 21.6071 12.9543 21.0614 12.9543C20.7567 12.9543 20.4732 12.7701 20.3528 12.4654L19.7787 11.0339H16.2213L15.6402 12.4654C15.5197 12.7701 15.2362 12.9543 14.9315 12.9543C14.3575 12.9543 14.0102 12.5433 14.2228 11.9055L17.2843 4.25198C17.4047 3.96143 17.6882 3.763 18.0071 3.763C18.3118 3.763 18.5953 3.96143 18.7158 4.25198L21.7701 11.9055ZM19.1622 9.51733L18.0071 6.59056L16.8378 9.51733H19.1622Z" fill="#4451BA"/>
<path d="M22.3654 0H13.6347C11.4307 0 9.63782 1.79291 9.63782 3.99685V12.7276C9.63782 14.9315 11.4307 16.7244 13.6347 16.7244H22.3654C24.5693 16.7244 26.3622 14.9315 26.3622 12.7276V3.99685C26.3622 1.79291 24.5693 0 22.3654 0ZM24.3638 12.7276C24.3638 13.8331 23.4638 14.726 22.3654 14.726H13.6347C12.5292 14.726 11.6362 13.826 11.6362 12.7276V3.99685C11.6362 2.89134 12.5362 1.99843 13.6347 1.99843H22.3654C23.4709 1.99843 24.3638 2.89843 24.3638 3.99685V12.7276Z" fill="#4451BA"/>
<path d="M10.2472 26.9787C10.5094 26.5819 10.6512 26.0858 10.6512 25.5331C10.6795 24.0094 9.57401 23.0953 8.17086 23.0386H6.05905C5.64094 23.0386 5.30078 23.3787 5.30078 23.7968V31.4646C5.30078 31.8827 5.64094 32.2228 6.05905 32.2228H8.73779C9.97086 32.2228 11.4307 31.1173 11.4307 29.3457C11.4307 28.3181 11.0126 27.4748 10.2472 26.9787ZM6.83858 24.5764H8.17795C8.17795 24.5764 9.13464 24.6543 9.13464 25.5331C9.13464 26.4543 8.17795 26.4898 7.97952 26.4898H6.83858V24.5764ZM8.64566 30.6921H6.83858V28.0134H8.64566C9.58818 28.0134 9.87873 28.8638 9.89291 29.3527C9.93543 30.685 8.65984 30.6921 8.64566 30.6921Z" fill="#4451BA"/>
<path d="M31.1386 30.6425C31.337 31.011 31.1882 31.4716 30.8268 31.6771C30.1606 32.0315 29.4094 32.2299 28.637 32.2299C26.1071 32.2299 24.0449 30.1677 24.0449 27.6378C24.0449 25.1079 26.1071 23.0457 28.637 23.0457C29.4094 23.0457 30.1606 23.2441 30.8268 23.5984C31.1953 23.811 31.337 24.2646 31.1386 24.6331C30.926 25.0157 30.4724 25.1433 30.0897 24.9449C29.6575 24.6968 29.1472 24.5764 28.6299 24.5764C26.9504 24.5764 25.5685 25.9441 25.5685 27.6378C25.5685 29.3315 26.9433 30.6992 28.6299 30.6992C29.1401 30.6992 29.6504 30.5787 30.0897 30.3307C30.4724 30.1323 30.933 30.2598 31.1386 30.6425Z" fill="#4451BA"/>
</svg>
