<svg width="37" height="37" viewBox="0 0 37 37" fill="none" xmlns="http://www.w3.org/2000/svg">
<path d="M23.703 13.2663C21.1174 10.6807 16.3996 10.8932 13.3536 11.6087C13.8707 9.01605 14.4161 3.98656 11.696 1.2593C11.3418 0.90511 10.7042 0.834272 10.2792 1.2593C10.2792 1.2593 10.2792 1.26638 10.2721 1.26638L0.312324 11.2262C0.312324 11.2262 0.694848 10.8437 0.30524 11.2333C-0.084368 11.6229 -0.0560329 12.31 0.30524 12.65C3.74088 15.8731 9.59917 14.5201 10.6547 14.3147C10.1375 16.9074 9.48583 22.0502 12.3193 24.6641C15.84 27.9085 21.6062 26.5342 22.6688 26.3217C22.1516 28.9144 21.6062 33.9439 24.3264 36.6711C24.6876 37.0324 25.3181 37.0962 25.736 36.6711L35.71 26.6972C36.1421 26.2721 36.0642 25.6346 35.71 25.2804C32.9898 22.5602 27.9603 23.1057 25.3606 23.6157C25.8777 21.016 26.4232 15.9936 23.703 13.2663ZM2.52955 11.8354L10.8884 3.47652C11.2639 4.12115 11.4976 4.8862 11.6322 5.70083L4.75386 12.5863C3.93214 12.4517 3.17417 12.2179 2.52955 11.8354ZM7.45986 12.6996L11.7456 8.41392C11.6676 9.85193 11.4197 11.212 11.1859 12.14C10.258 12.3808 8.89787 12.6288 7.45986 12.6996ZM12.8152 13.7764C13.5519 13.5993 14.9758 13.2947 16.5484 13.2096L12.2556 17.5024C12.3335 16.0644 12.5814 14.7043 12.8152 13.7764ZM12.3831 20.2084L19.2685 13.323C20.1398 13.4647 20.8836 13.7126 21.4928 14.0668L13.134 22.4257C12.7444 21.7881 12.5106 21.0231 12.3831 20.2084ZM14.5295 23.8495L22.8883 15.4906C23.2638 16.1353 23.4976 16.9003 23.6321 17.7149L16.7467 24.6004C15.8825 24.4587 15.1316 24.2108 14.5295 23.8495ZM31.2685 25.3371C32.0831 25.4717 32.8482 25.7054 33.4928 26.0809L25.1339 34.4398C24.7585 33.7951 24.5247 33.0301 24.3901 32.2154L31.2685 25.3371ZM28.5554 25.2167L24.2626 29.5094C24.3405 28.0714 24.5885 26.7113 24.8222 25.7763C25.7573 25.5425 27.1174 25.2946 28.5554 25.2167ZM23.2 24.147C22.4633 24.3241 21.0466 24.6287 19.4669 24.7137L23.7597 20.4209C23.6817 21.8589 23.4338 23.212 23.2 24.147Z" fill="#4451BA"/>
</svg>
