<svg width="45" height="37" viewBox="0 0 45 37" fill="none" xmlns="http://www.w3.org/2000/svg">
<path d="M43.8774 31.1259L40.6874 23.8783V3.99832C40.6874 2.01628 39.0711 0.400024 37.0891 0.400024H8.10706C6.12502 0.400024 4.50876 2.01628 4.50876 3.99832V23.8698L1.31878 31.1259C0.229933 33.5078 2.01632 36.4 4.76396 36.4H40.4407C43.1883 36.4 44.9832 33.5418 43.8774 31.1259ZM6.90763 17.4558H10.5485C11.212 17.4558 11.7479 16.9199 11.7479 16.2564C11.7479 15.5928 11.212 15.0569 10.5485 15.0569H6.90763V12.9133H13.6449C14.3084 12.9133 14.8443 12.3773 14.8443 11.7138C14.8443 11.0503 14.3084 10.5144 13.6449 10.5144H6.90763V3.99832C6.90763 3.33481 7.44354 2.79889 8.10706 2.79889H37.0806C37.7441 2.79889 38.28 3.33481 38.28 3.99832V22.9255H6.90763V17.4558ZM40.4322 34.0012H4.76396C3.81122 34.0777 3.07114 32.8528 3.52199 32.0957L6.49931 25.3329H38.7054L41.6827 32.0957C42.0995 32.9208 41.3339 34.0607 40.4322 34.0012Z" fill="#4451BA"/>
<path d="M26.2261 28.4634H18.9785C18.315 28.4634 17.7791 28.9993 17.7791 29.6628C17.7791 30.3263 18.315 30.8622 18.9785 30.8622H26.2261C26.8896 30.8622 27.4256 30.3263 27.4256 29.6628C27.4256 28.9993 26.8896 28.4634 26.2261 28.4634Z" fill="#4451BA"/>
</svg>
