<svg width="29" height="36" viewBox="0 0 29 36" fill="none" xmlns="http://www.w3.org/2000/svg">
<path d="M27.3226 23.3242C27.7125 22.9342 27.7125 22.3033 27.3226 21.9063C26.9327 21.5164 26.3017 21.5164 25.9047 21.9063C20.4458 27.3651 11.5557 27.3651 6.09689 21.9063C0.638046 16.4474 0.638046 7.55731 6.09689 2.09847C6.48681 1.70855 6.48681 1.0776 6.09689 0.680591C5.70697 0.290674 5.07601 0.290674 4.67901 0.680591C-1.55967 6.91927 -1.55967 17.0784 4.67901 23.3171C7.54313 26.1812 11.2367 27.7267 14.9941 27.9606V30.0024H12.6546C11.5274 30.0024 10.4427 30.4845 9.69122 31.3139L6.95471 34.3269C6.40882 34.9862 6.72785 35.8866 7.69909 36H24.2883C25.3659 36 25.5289 34.9153 25.0327 34.3269L22.2962 31.3139C21.5376 30.4774 20.46 30.0024 19.3328 30.0024H16.9933V27.9606C20.7649 27.7338 24.4584 26.1883 27.3226 23.3242ZM19.347 32.0158C19.9141 32.0158 20.4529 32.2568 20.8287 32.6751L22.0481 34.0221H9.9677L11.1871 32.6751C11.5628 32.2568 12.1087 32.0158 12.6688 32.0158H19.347Z" fill="#4451BA"/>
<path d="M16.0079 24.0118C22.6294 24.0118 28.0102 18.6239 28.0102 12.0095C28.0102 5.39504 22.6223 0 16.0079 0C9.39345 0 3.99841 5.38795 3.99841 12.0024C3.99841 18.6168 9.38636 24.0118 16.0079 24.0118ZM20.5451 20.9067C20.9492 20.2473 21.3107 19.4959 21.6085 18.6735C22.1118 18.8011 22.5797 18.9571 23.0193 19.1201C22.2962 19.8362 21.4596 20.4388 20.5451 20.9067ZM24.3521 17.5037C23.6928 17.2202 22.9697 16.9649 22.1827 16.7594C22.4521 15.5967 22.6294 14.3348 22.6861 13.0091H25.9543C25.7912 14.6538 25.2241 16.1851 24.3521 17.5037ZM25.9614 11.0028H22.6932C22.6365 9.67704 22.4592 8.41512 22.1898 7.25246C22.9767 7.04687 23.6999 6.79874 24.3663 6.50807C25.2241 7.8267 25.7912 9.35802 25.9614 11.0028ZM23.0193 4.8846C22.5797 5.04766 22.1048 5.19653 21.6014 5.33123C21.2966 4.50886 20.9421 3.75739 20.5309 3.09807C21.4525 3.56597 22.2962 4.16857 23.0193 4.8846ZM17.0075 2.2757C17.9787 2.78614 18.9216 3.99842 19.6164 5.73533C18.7798 5.86294 17.9078 5.94801 17.0075 5.98346V2.2757ZM17.0075 7.98267C18.1205 7.94013 19.1981 7.83379 20.219 7.67074C20.46 8.68452 20.6302 9.79756 20.6869 11.0098H17.0075V7.98267ZM17.0075 13.002H20.6869C20.6302 14.2143 20.46 15.3273 20.219 16.3411C19.1981 16.1709 18.1205 16.0646 17.0075 16.0291V13.002ZM17.0075 18.0284C17.9007 18.0638 18.7798 18.1418 19.6164 18.2694C18.9216 20.0063 17.9858 21.2186 17.0075 21.729V18.0284ZM6.05434 13.002H9.32256C9.37927 14.3348 9.55651 15.5967 9.83299 16.7664C9.04607 16.972 8.32295 17.2202 7.66364 17.5108C6.79164 16.1922 6.2174 14.6609 6.05434 13.002ZM8.98935 19.1272C9.4289 18.9642 9.8968 18.8153 10.4001 18.6806C10.705 19.503 11.0595 20.2473 11.4636 20.9067C10.549 20.4388 9.71956 19.8432 8.98935 19.1272ZM15.0083 21.7361C14.037 21.2257 13.0941 20.0134 12.3994 18.2765C13.2359 18.1489 14.1079 18.0638 15.0083 18.0284V21.7361ZM15.0083 16.0291C13.8952 16.0717 12.8176 16.178 11.7968 16.3482C11.5557 15.3344 11.3856 14.2143 11.3289 13.002H15.0083V16.0291ZM15.0083 2.2757V5.98346C14.1079 5.94801 13.2359 5.86294 12.3994 5.73533C13.0941 3.99842 14.0299 2.78614 15.0083 2.2757ZM15.0083 7.98267V11.0098H11.3289C11.3856 9.80465 11.5557 8.68452 11.7968 7.67074C12.8176 7.83379 13.8952 7.94013 15.0083 7.98267ZM11.4706 3.09807C11.0665 3.75739 10.705 4.50886 10.4001 5.33123C9.8968 5.20362 9.4289 5.04766 8.98227 4.8846C9.71956 4.16857 10.5561 3.56597 11.4706 3.09807ZM7.65655 6.51516C8.31586 6.79874 9.04607 7.05396 9.8259 7.25955C9.55651 8.42221 9.37927 9.67704 9.32256 11.0098H6.05434C6.2174 9.35802 6.78455 7.8267 7.65655 6.51516Z" fill="#4451BA"/>
</svg>
