<svg width="37" height="37" viewBox="0 0 37 37" fill="none" xmlns="http://www.w3.org/2000/svg">
<path d="M35.0313 13.6026H29.7092C29.6454 13.4325 26.513 7.99698 26.3997 7.86234L30.0706 1.50556C30.347 1.02366 30.184 0.414203 29.7021 0.137822C29.2273 -0.13856 28.6107 0.0244343 28.3343 0.506331L24.6634 6.86311C24.4862 6.82768 18.5688 6.80642 18.5688 6.80642C17.4987 6.80642 16.5066 7.38044 15.968 8.3088C15.968 8.3088 13.0129 13.4821 12.9491 13.6805C12.7436 13.638 6.41514 13.6309 6.23797 13.6664L2.57414 7.30249C2.29776 6.82768 1.6883 6.65759 1.2064 6.93398C0.731594 7.21036 0.561513 7.81982 0.837895 8.30171L4.50881 14.6585C4.38834 14.7931 1.41901 19.9027 1.41901 19.9027C0.887502 20.831 0.887502 21.9791 1.41901 22.9003C1.41901 22.9003 4.39542 28.0028 4.50881 28.1445L0.837895 34.5013C0.561513 34.9832 0.724507 35.5926 1.2064 35.869C1.68121 36.1454 2.29776 35.9824 2.57414 35.5005L6.24505 29.1437C6.42222 29.1792 12.701 29.1792 12.8853 29.1437L16.5562 35.5005C16.8326 35.9753 17.4421 36.1454 17.924 35.869C18.3988 35.5926 18.5688 34.9832 18.2925 34.5013L14.6145 28.1445C14.7278 28.0099 17.8885 22.5318 17.9523 22.3334C18.1578 22.3759 24.4862 22.383 24.6634 22.3476L28.3343 28.7043C28.6107 29.1792 29.2202 29.3492 29.7021 29.0729C30.1769 28.7965 30.347 28.187 30.0706 27.7051L26.3997 21.3483C26.5201 21.2137 29.6525 15.7782 29.7162 15.6081H35.0384C35.5911 15.6081 36.0376 15.1616 36.0376 14.6089C36.0376 14.049 35.584 13.6026 35.0313 13.6026ZM15.968 21.9011L13.1971 26.7059C13.0199 27.0177 12.6869 27.2091 12.3325 27.2091H6.79073C6.4364 27.2091 6.10332 27.0177 5.92615 26.7059L4.36708 24.0059H6.35136C6.90412 24.0059 7.35058 23.5594 7.35058 23.0066C7.35058 22.4539 6.90412 22.0074 6.35136 22.0074H3.20486C3.20486 22.0074 2.85761 21.4476 3.14816 20.909L3.65841 20.0302H9.27108C9.82384 20.0302 10.2703 19.5838 10.2703 19.031C10.2703 18.4782 9.82384 18.0318 9.27108 18.0318H4.81354L5.91907 16.1113C6.09623 15.7994 6.42931 15.6081 6.78364 15.6081H12.3255C12.6798 15.6081 13.0129 15.7994 13.19 16.1113L15.9609 20.909C16.1452 21.2137 16.1452 21.5964 15.968 21.9011ZM27.7532 15.105L24.9823 19.9027C24.8051 20.2145 24.4721 20.4058 24.1177 20.4058H18.5759C18.2216 20.4058 17.8885 20.2145 17.7114 19.9027L14.9404 15.105C14.7633 14.8002 14.7633 14.4105 14.9404 14.1057L17.7114 9.30802C17.8885 8.99621 18.2216 8.80487 18.5759 8.80487H24.1177C24.4721 8.80487 24.8051 8.99621 24.9823 9.30802L27.7532 14.1057C27.9304 14.4105 27.9304 14.7931 27.7532 15.105Z" fill="#4451BA"/>
</svg>
