<svg width="19" height="10" viewBox="0 0 19 10" fill="none" xmlns="http://www.w3.org/2000/svg">
<path d="M0.138462 5.07692C0.0461539 4.98461 0 4.84615 0 4.75385C0 4.66154 0.0461539 4.52308 0.138462 4.43077L0.784615 3.78461C0.969231 3.6 1.24615 3.6 1.43077 3.78461L1.47692 3.83077L4.01538 6.55385C4.10769 6.64615 4.24615 6.64615 4.33846 6.55385L10.5231 0.138462H10.5692C10.7538 -0.0461538 11.0308 -0.0461538 11.2154 0.138462L11.8615 0.784615C12.0462 0.969231 12.0462 1.24615 11.8615 1.43077L4.47692 9.09231C4.38462 9.18461 4.29231 9.23077 4.15385 9.23077C4.01538 9.23077 3.92308 9.18461 3.83077 9.09231L0.230769 5.21538L0.138462 5.07692Z" fill="#01D27F"/>
<path d="M7.13846 5.07692C7.04615 4.98461 7 4.84615 7 4.75385C7 4.66154 7.04615 4.52308 7.13846 4.43077L7.78462 3.78461C7.96923 3.6 8.24615 3.6 8.43077 3.78461L8.47692 3.83077L11.0154 6.55385C11.1077 6.64615 11.2462 6.64615 11.3385 6.55385L17.5231 0.138462H17.5692C17.7538 -0.0461538 18.0308 -0.0461538 18.2154 0.138462L18.8615 0.784615C19.0462 0.969231 19.0462 1.24615 18.8615 1.43077L11.4769 9.09231C11.3846 9.18461 11.2923 9.23077 11.1538 9.23077C11.0154 9.23077 10.9231 9.18461 10.8308 9.09231L7.23077 5.21538L7.13846 5.07692Z" fill="#01D27F"/>
</svg>
