<svg width="12" height="10" viewBox="0 0 12 10" fill="none" xmlns="http://www.w3.org/2000/svg">
<path d="M0.138462 5.46154C0.0461539 5.36923 0 5.23077 0 5.13846C0 5.04615 0.0461539 4.90769 0.138462 4.81538L0.784615 4.16923C0.969231 3.98461 1.24615 3.98461 1.43077 4.16923L1.47692 4.21538L4.01538 6.93846C4.10769 7.03077 4.24615 7.03077 4.33846 6.93846L10.5231 0.523075H10.5692C10.7538 0.338459 11.0308 0.338459 11.2154 0.523075L11.8615 1.16923C12.0462 1.35384 12.0462 1.63077 11.8615 1.81538L4.47692 9.47692C4.38462 9.56923 4.29231 9.61538 4.15385 9.61538C4.01538 9.61538 3.92308 9.56923 3.83077 9.47692L0.230769 5.6L0.138462 5.46154Z" fill="#4451BA"/>
</svg>
