<svg width="15" height="14" viewBox="0 0 15 14" fill="none" xmlns="http://www.w3.org/2000/svg">
<path fill-rule="evenodd" clip-rule="evenodd" d="M0.500193 2.33549H1.40388C1.62592 3.12507 2.34602 3.6706 3.16622 3.6706C3.98643 3.6706 4.70653 3.12507 4.92857 2.33549H13.5052C13.7815 2.33549 14.0054 2.11155 14.0054 1.8353C14.0054 1.55905 13.7815 1.33511 13.5052 1.33511H4.93191C4.70987 0.545532 3.98976 0 3.16956 0C2.34936 0 1.62925 0.545532 1.40721 1.33511H0.500193C0.223944 1.33511 0 1.55905 0 1.8353C0 2.11155 0.223944 2.33549 0.500193 2.33549ZM3.16811 1.00165C3.62853 1.00165 4.00177 1.37489 4.00177 1.8353C4.00177 2.29572 3.62853 2.66896 3.16811 2.66896C2.7077 2.66896 2.33446 2.29572 2.33446 1.8353C2.33446 1.37489 2.7077 1.00165 3.16811 1.00165Z" fill="#4451BA"/>
<path fill-rule="evenodd" clip-rule="evenodd" d="M13.5052 6.00359H8.71004C8.43715 5.29843 7.75883 4.83359 7.00271 4.83359C6.24659 4.83359 5.56826 5.29843 5.29538 6.00359H0.500193C0.223944 6.00359 0 6.22754 0 6.50379C0 6.78004 0.223944 7.00398 0.500193 7.00398H5.20201C5.36524 7.87077 6.12235 8.49862 7.00438 8.49862C7.8864 8.49862 8.64351 7.87077 8.80674 7.00398H13.5052C13.7815 7.00398 14.0054 6.78004 14.0054 6.50379C14.0054 6.22754 13.7815 6.00359 13.5052 6.00359ZM7.00293 7.50416C6.54251 7.50416 6.16927 7.13092 6.16927 6.67051C6.16927 6.21009 6.54251 5.83685 7.00293 5.83685C7.46335 5.83685 7.83659 6.21009 7.83659 6.67051C7.83659 7.13092 7.46335 7.50416 7.00293 7.50416Z" fill="#4451BA"/>
<path fill-rule="evenodd" clip-rule="evenodd" d="M13.5052 10.6721H12.6015C12.3795 9.88248 11.6594 9.33694 10.8392 9.33694C10.019 9.33694 9.29889 9.88248 9.07684 10.6721H0.500193C0.223944 10.6721 0 10.896 0 11.1722C0 11.4485 0.223944 11.6724 0.500193 11.6724H9.07351C9.29555 12.462 10.0157 13.0075 10.8359 13.0075C11.6561 13.0075 12.3762 12.462 12.5982 11.6724H13.5052C13.7815 11.6724 14.0054 11.4485 14.0054 11.1722C14.0054 10.896 13.7815 10.6721 13.5052 10.6721ZM10.8377 12.0059C10.3773 12.0059 10.0041 11.6327 10.0041 11.1722C10.0041 10.7118 10.3773 10.3386 10.8377 10.3386C11.2982 10.3386 11.6714 10.7118 11.6714 11.1722C11.6714 11.6327 11.2982 12.0059 10.8377 12.0059Z" fill="#4451BA"/>
</svg>
