<svg width="20" height="20" viewBox="0 0 20 20" fill="none" xmlns="http://www.w3.org/2000/svg">
<path d="M10 20C15.5228 20 20 15.5228 20 10C20 4.47715 15.5228 0 10 0C4.47715 0 0 4.47715 0 10C0 15.5228 4.47715 20 10 20Z" fill="#FFE17D"/>
<path d="M10.0001 14.9193C8.61243 14.9193 7.29563 14.3882 6.47754 13.4987C6.32665 13.3349 6.33735 13.0797 6.50118 12.929C6.665 12.7782 6.92047 12.7888 7.07106 12.9528C7.73918 13.6793 8.83418 14.1129 10.0001 14.1129C11.166 14.1129 12.261 13.6792 12.9291 12.9528C13.0797 12.7888 13.3352 12.7782 13.499 12.929C13.6629 13.0797 13.6736 13.3349 13.5227 13.4987C12.7045 14.3882 11.3877 14.9193 10.0001 14.9193Z" fill="#AA7346"/>
<path d="M6.6128 9.99999C6.1674 9.99999 5.80635 9.63894 5.80635 9.19354V8.54839C5.80635 8.103 6.1674 7.74194 6.6128 7.74194C7.05819 7.74194 7.41924 8.103 7.41924 8.54839V9.19354C7.41924 9.63894 7.05819 9.99999 6.6128 9.99999Z" fill="#7D5046"/>
<path d="M6.6129 7.74194C6.55767 7.74194 6.50376 7.74761 6.45161 7.75819V8.87097C6.45161 9.13819 6.66826 9.35483 6.93548 9.35483C7.20271 9.35483 7.41935 9.13819 7.41935 8.87097V8.54839C7.41935 8.10296 7.05833 7.74194 6.6129 7.74194Z" fill="#9C6846"/>
<path d="M13.3872 9.99999C12.9418 9.99999 12.5807 9.63894 12.5807 9.19354V8.54839C12.5807 8.103 12.9418 7.74194 13.3872 7.74194C13.8326 7.74194 14.1936 8.103 14.1936 8.54839V9.19354C14.1936 9.63894 13.8326 9.99999 13.3872 9.99999Z" fill="#7D5046"/>
<path d="M13.3871 7.74194C13.3319 7.74194 13.278 7.74761 13.2258 7.75819V8.87097C13.2258 9.13819 13.4425 9.35483 13.7097 9.35483C13.9769 9.35483 14.1936 9.13819 14.1936 8.87097V8.54839C14.1936 8.10296 13.8325 7.74194 13.3871 7.74194Z" fill="#9C6846"/>
<path d="M11.4516 18.5484C5.92875 18.5484 1.4516 14.0712 1.4516 8.54836C1.4516 6.15668 2.29227 3.96199 3.69285 2.24121C1.43996 4.0748 0 6.86879 0 9.99996C0 15.5228 4.47715 20 10 20C13.1312 20 15.9252 18.56 17.7588 16.3071C16.038 17.7077 13.8433 18.5484 11.4516 18.5484Z" fill="#FFD164"/>
</svg>
