<svg width="20" height="20" viewBox="0 0 20 20" fill="none" xmlns="http://www.w3.org/2000/svg">
<g clip-path="url(#clip0)">
<path d="M10 20C15.5228 20 20 15.5228 20 10C20 4.47715 15.5228 0 10 0C4.47715 0 0 4.47715 0 10C0 15.5228 4.47715 20 10 20Z" fill="#FFE17D"/>
<path d="M10.0002 14.9194C8.61253 14.9194 7.29574 14.3882 6.47765 13.4988C6.32675 13.3349 6.33746 13.0798 6.50128 12.929C6.66511 12.7783 6.92058 12.7889 7.07117 12.9528C7.73929 13.6793 8.83429 14.1129 10.0002 14.1129C11.1661 14.1129 12.2611 13.6793 12.9293 12.9528C13.0798 12.7889 13.3353 12.7783 13.4991 12.929C13.663 13.0798 13.6737 13.3349 13.5228 13.4988C12.7046 14.3883 11.3878 14.9194 10.0002 14.9194Z" fill="#AA7346"/>
<path d="M6.61284 9.99999C6.16745 9.99999 5.8064 9.63894 5.8064 9.19354V8.54839C5.8064 8.103 6.16745 7.74194 6.61284 7.74194C7.05823 7.74194 7.41929 8.103 7.41929 8.54839V9.19354C7.41929 9.63894 7.05823 9.99999 6.61284 9.99999Z" fill="#7D5046"/>
<path d="M6.61295 7.74194C6.55771 7.74194 6.50381 7.74761 6.45166 7.75819V8.87097C6.45166 9.13819 6.6683 9.35483 6.93553 9.35483C7.20275 9.35483 7.41939 9.13819 7.41939 8.87097V8.54839C7.41939 8.10296 7.05838 7.74194 6.61295 7.74194Z" fill="#9C6846"/>
<path d="M13.3873 9.99999C12.9419 9.99999 12.5808 9.63894 12.5808 9.19354V8.54839C12.5808 8.103 12.9419 7.74194 13.3873 7.74194C13.8326 7.74194 14.1937 8.103 14.1937 8.54839V9.19354C14.1937 9.63894 13.8326 9.99999 13.3873 9.99999Z" fill="#7D5046"/>
<path d="M13.3871 7.74194C13.3319 7.74194 13.278 7.74761 13.2258 7.75819V8.87097C13.2258 9.13819 13.4425 9.35483 13.7097 9.35483C13.9769 9.35483 14.1936 9.13819 14.1936 8.87097V8.54839C14.1936 8.10296 13.8325 7.74194 13.3871 7.74194Z" fill="#9C6846"/>
<path d="M11.4516 18.5484C5.92875 18.5484 1.4516 14.0713 1.4516 8.54842C1.4516 6.15674 2.29227 3.96205 3.69285 2.24127C1.43996 4.07487 0 6.86885 0 10C0 15.5229 4.47715 20 10 20C13.1312 20 15.9252 18.56 17.7588 16.3071C16.038 17.7077 13.8433 18.5484 11.4516 18.5484Z" fill="#FFD164"/>
</g>
<defs>
<clipPath id="clip0">
<rect width="20" height="20" fill="white"/>
</clipPath>
</defs>
</svg>
