<svg width="8" height="8" viewBox="0 0 8 8" fill="none" xmlns="http://www.w3.org/2000/svg">
<path d="M0.627784 4.40271C0.679089 4.45398 0.738131 4.47965 0.804829 4.47965C0.871528 4.47965 0.93057 4.45398 0.981875 4.40271L4.00688 1.37765L7.03199 4.40271C7.08327 4.45398 7.14234 4.47965 7.20893 4.47965C7.27573 4.47965 7.33478 4.45398 7.38605 4.40271L7.77088 4.0178C7.82216 3.96652 7.84763 3.90745 7.84763 3.84086C7.84763 3.77414 7.822 3.7151 7.77088 3.66382L4.18379 0.0769165C4.13254 0.025531 4.07358 0 4.00688 0C3.94018 0 3.88111 0.0256119 3.82983 0.0769165L0.243013 3.66379C0.191627 3.7151 0.166016 3.77406 0.166016 3.84092C0.166016 3.90745 0.191708 3.9665 0.243013 4.0178L0.627784 4.40271Z" fill="#00B4CB"/>
<path d="M4.18379 3.03269C4.13254 2.9813 4.07358 2.95569 4.00688 2.95569C3.94018 2.95569 3.88111 2.98138 3.82983 3.03269L0.243013 6.61956C0.191627 6.67086 0.166016 6.72988 0.166016 6.79669C0.166016 6.86333 0.191708 6.92235 0.243013 6.97365L0.627784 7.35853C0.679089 7.40983 0.738131 7.43531 0.804829 7.43531C0.871528 7.43531 0.93057 7.40967 0.981875 7.35853L4.00688 4.33339L7.03199 7.35853C7.08327 7.40983 7.14234 7.43542 7.20893 7.43542C7.27573 7.43542 7.33478 7.40986 7.38605 7.35853L7.77088 6.97365C7.82216 6.92235 7.84763 6.8633 7.84763 6.79669C7.84763 6.72988 7.822 6.67086 7.77088 6.61956L4.18379 3.03269Z" fill="#00B4CB"/>
</svg>
