<svg width="8" height="8" viewBox="0 0 8 8" fill="none" xmlns="http://www.w3.org/2000/svg">
<path d="M0.627296 4.40271C0.6786 4.45398 0.737643 4.47965 0.804341 4.47965C0.87104 4.47965 0.930082 4.45398 0.981387 4.40271L4.00639 1.37765L7.0315 4.40271C7.08278 4.45398 7.14185 4.47965 7.20844 4.47965C7.27525 4.47965 7.33429 4.45398 7.38557 4.40271L7.77039 4.0178C7.82167 3.96652 7.84715 3.90745 7.84715 3.84086C7.84715 3.77414 7.82151 3.7151 7.77039 3.66382L4.1833 0.0769165C4.13205 0.025531 4.07309 0 4.00639 0C3.93969 0 3.88062 0.0256119 3.82935 0.0769165L0.242525 3.66379C0.191139 3.7151 0.165527 3.77406 0.165527 3.84092C0.165527 3.90745 0.19122 3.9665 0.242525 4.0178L0.627296 4.40271Z" fill="#4451BA"/>
<path d="M4.1833 3.03269C4.13205 2.9813 4.07309 2.95569 4.00639 2.95569C3.93969 2.95569 3.88062 2.98138 3.82935 3.03269L0.242525 6.61956C0.191139 6.67087 0.165527 6.72988 0.165527 6.79669C0.165527 6.86333 0.19122 6.92235 0.242525 6.97365L0.627296 7.35853C0.6786 7.40983 0.737643 7.43531 0.804341 7.43531C0.87104 7.43531 0.930082 7.40967 0.981387 7.35853L4.00639 4.33339L7.0315 7.35853C7.08278 7.40983 7.14185 7.43542 7.20844 7.43542C7.27525 7.43542 7.33429 7.40986 7.38557 7.35853L7.77039 6.97365C7.82167 6.92235 7.84715 6.8633 7.84715 6.79669C7.84715 6.72988 7.82151 6.67087 7.77039 6.61956L4.1833 3.03269Z" fill="#4451BA"/>
</svg>
