<svg width="30" height="30" viewBox="0 0 30 30" fill="none" xmlns="http://www.w3.org/2000/svg">
<mask id="mask0" mask-type="alpha" maskUnits="userSpaceOnUse" x="0" y="0" width="30" height="30">
<path fill-rule="evenodd" clip-rule="evenodd" d="M0 15C0 6.71573 6.71573 0 15 0C23.2843 0 30 6.71573 30 15C30 23.2843 23.2843 30 15 30C6.71573 30 0 23.2843 0 15Z" fill="white"/>
</mask>
<g mask="url(#mask0)">
<path fill-rule="evenodd" clip-rule="evenodd" d="M0 15C0 6.71573 6.71573 0 15 0C23.2843 0 30 6.71573 30 15C30 23.2843 23.2843 30 15 30C6.71573 30 0 23.2843 0 15Z" fill="white"/>
<path fill-rule="evenodd" clip-rule="evenodd" d="M0 15C0 6.71573 6.71573 0 15 0C23.2843 0 30 6.71573 30 15C30 23.2843 23.2843 30 15 30C6.71573 30 0 23.2843 0 15Z" fill="url(#paint0_linear)"/>
<path fill-rule="evenodd" clip-rule="evenodd" d="M15.0007 7C12.8281 7 12.5554 7.0095 11.702 7.04833C10.8504 7.08733 10.269 7.22217 9.76036 7.42C9.23419 7.62434 8.78785 7.89768 8.34318 8.34251C7.89818 8.78719 7.62484 9.23352 7.41984 9.75953C7.2215 10.2684 7.0865 10.8499 7.04817 11.7012C7.01 12.5546 7 12.8274 7 15.0001C7 17.1728 7.00967 17.4446 7.04833 18.298C7.0875 19.1496 7.22234 19.731 7.42 20.2396C7.62451 20.7658 7.89784 21.2121 8.34268 21.6568C8.78719 22.1018 9.23352 22.3758 9.75936 22.5802C10.2684 22.778 10.8499 22.9128 11.7014 22.9518C12.5547 22.9907 12.8272 23.0002 14.9998 23.0002C17.1726 23.0002 17.4444 22.9907 18.2978 22.9518C19.1495 22.9128 19.7315 22.778 20.2405 22.5802C20.7665 22.3758 21.2121 22.1018 21.6567 21.6568C22.1017 21.2121 22.375 20.7658 22.58 20.2398C22.7767 19.731 22.9117 19.1495 22.9517 18.2981C22.99 17.4448 23 17.1728 23 15.0001C23 12.8274 22.99 12.5547 22.9517 11.7014C22.9117 10.8497 22.7767 10.2684 22.58 9.7597C22.375 9.23352 22.1017 8.78719 21.6567 8.34251C21.2116 7.89751 20.7666 7.62417 20.24 7.42C19.73 7.22217 19.1483 7.08733 18.2966 7.04833C17.4433 7.0095 17.1716 7 14.9983 7H15.0007ZM14.2831 8.4417C14.4961 8.44136 14.7338 8.4417 15.0008 8.4417C17.1368 8.4417 17.39 8.44936 18.2335 8.4877C19.0135 8.52336 19.4368 8.6537 19.7188 8.7632C20.0922 8.9082 20.3583 9.08154 20.6382 9.36154C20.9182 9.64154 21.0915 9.90821 21.2368 10.2815C21.3464 10.5632 21.4769 10.9866 21.5124 11.7666C21.5507 12.6099 21.559 12.8632 21.559 14.9983C21.559 17.1333 21.5507 17.3866 21.5124 18.23C21.4767 19.01 21.3464 19.4333 21.2368 19.715C21.0918 20.0883 20.9182 20.3542 20.6382 20.634C20.3582 20.914 20.0923 21.0873 19.7188 21.2323C19.4372 21.3423 19.0135 21.4723 18.2335 21.508C17.3901 21.5463 17.1368 21.5547 15.0008 21.5547C12.8646 21.5547 12.6114 21.5463 11.7681 21.508C10.9881 21.472 10.5647 21.3417 10.2826 21.2322C9.90923 21.0872 9.64256 20.9138 9.36256 20.6338C9.08256 20.3538 8.90922 20.0878 8.76389 19.7143C8.65438 19.4326 8.52388 19.0093 8.48838 18.2293C8.45005 17.386 8.44238 17.1326 8.44238 14.9963C8.44238 12.8599 8.45005 12.6079 8.48838 11.7646C8.52405 10.9846 8.65438 10.5612 8.76389 10.2792C8.90889 9.90588 9.08256 9.63921 9.36256 9.35921C9.64256 9.0792 9.90923 8.90587 10.2826 8.76053C10.5646 8.65053 10.9881 8.52053 11.7681 8.4847C12.5061 8.45136 12.7921 8.44136 14.2831 8.4397V8.4417ZM19.271 9.76999C18.741 9.76999 18.311 10.1995 18.311 10.7297C18.311 11.2597 18.741 11.6897 19.271 11.6897C19.8011 11.6897 20.2311 11.2597 20.2311 10.7297C20.2311 10.1997 19.8011 9.76965 19.271 9.76965V9.76999ZM15.001 10.8917C12.7321 10.8917 10.8926 12.7312 10.8926 15.0001C10.8926 17.269 12.7321 19.1076 15.001 19.1076C17.2698 19.1076 19.1087 17.269 19.1087 15.0001C19.1087 12.7312 17.2696 10.8917 15.0008 10.8917H15.001ZM15.0007 12.3334C16.4734 12.3334 17.6674 13.5272 17.6674 15.0001C17.6674 16.4728 16.4734 17.6668 15.0007 17.6668C13.5278 17.6668 12.334 16.4728 12.334 15.0001C12.334 13.5272 13.5278 12.3334 15.0007 12.3334Z" fill="white"/>
</g>
<defs>
<linearGradient id="paint0_linear" x1="2.74622" y1="27.254" x2="27.2538" y2="2.74603" gradientUnits="userSpaceOnUse">
<stop stop-color="#FFC107"/>
<stop offset="0.507" stop-color="#F44336"/>
<stop offset="0.99" stop-color="#9C27B0"/>
</linearGradient>
</defs>
</svg>
