<svg width="20" height="19" viewBox="0 0 20 19" fill="none" xmlns="http://www.w3.org/2000/svg">
<path fill-rule="evenodd" clip-rule="evenodd" d="M0.909091 1.81818H19.0909C19.593 1.81818 20 1.41117 20 0.909091C20 0.407014 19.593 0 19.0909 0H0.909091C0.407014 0 0 0.407014 0 0.909091C0 1.41117 0.407014 1.81818 0.909091 1.81818Z" fill="white"/>
<path fill-rule="evenodd" clip-rule="evenodd" d="M0.909091 6.06061H12.4242C12.9263 6.06061 13.3333 5.6536 13.3333 5.15152C13.3333 4.64945 12.9263 4.24243 12.4242 4.24243H0.909091C0.407014 4.24243 0 4.64945 0 5.15152C0 5.6536 0.407014 6.06061 0.909091 6.06061Z" fill="white"/>
<path fill-rule="evenodd" clip-rule="evenodd" d="M0.909091 10.303H17.8788C18.3809 10.303 18.7879 9.896 18.7879 9.39392C18.7879 8.89185 18.3809 8.48483 17.8788 8.48483H0.909091C0.407014 8.48483 0 8.89185 0 9.39392C0 9.896 0.407014 10.303 0.909091 10.303Z" fill="white"/>
<path fill-rule="evenodd" clip-rule="evenodd" d="M0.909091 14.5455H16.0606C16.5627 14.5455 16.9697 14.1385 16.9697 13.6364C16.9697 13.1343 16.5627 12.7273 16.0606 12.7273H0.909091C0.407014 12.7273 0 13.1343 0 13.6364C0 14.1385 0.407014 14.5455 0.909091 14.5455Z" fill="white"/>
<path fill-rule="evenodd" clip-rule="evenodd" d="M19.0909 16.9697H0.909091C0.407014 16.9697 0 17.3767 0 17.8788C0 18.3809 0.407014 18.7879 0.909091 18.7879H19.0909C19.593 18.7879 20 18.3809 20 17.8788C20 17.3767 19.593 16.9697 19.0909 16.9697Z" fill="white"/>
</svg>
