<svg width="14" height="11" viewBox="0 0 14 11" fill="none" xmlns="http://www.w3.org/2000/svg">
<path d="M11.9219 1.01953C11.9766 0.964844 12.0312 0.9375 12.1406 0.9375C12.2227 0.9375 12.3047 0.964844 12.3867 1.01953L13.1523 1.8125C13.207 1.86719 13.2617 1.94922 13.2617 2.03125C13.2617 2.14062 13.207 2.22266 13.1523 2.27734L4.94922 10.4805C4.89453 10.5352 4.8125 10.5625 4.73047 10.5625C4.62109 10.5625 4.53906 10.5352 4.48438 10.4805L0.847656 6.81641C0.765625 6.76172 0.738281 6.70703 0.738281 6.59766C0.738281 6.51562 0.765625 6.43359 0.847656 6.35156L1.61328 5.58594C1.66797 5.53125 1.75 5.47656 1.85938 5.47656C1.94141 5.47656 2.02344 5.53125 2.07812 5.58594L4.73047 8.23828L11.9219 1.01953Z" fill="#01D27F"/>
</svg>
