<svg width="10" height="10" viewBox="0 0 10 10" fill="none" xmlns="http://www.w3.org/2000/svg">
<path d="M6.3125 4.75L9.23828 7.70312C9.32031 7.78516 9.375 7.89453 9.375 8.00391C9.375 8.14062 9.32031 8.25 9.23828 8.30469L8.55469 8.98828C8.47266 9.09766 8.36328 9.125 8.25391 9.125C8.11719 9.125 8.00781 9.09766 7.95312 8.98828L5 6.0625L2.04688 8.98828C1.96484 9.09766 1.85547 9.125 1.74609 9.125C1.60938 9.125 1.5 9.09766 1.44531 8.98828L0.761719 8.30469C0.652344 8.25 0.625 8.14062 0.625 8.00391C0.625 7.89453 0.652344 7.78516 0.761719 7.70312L3.6875 4.75L0.761719 1.79688C0.652344 1.74219 0.625 1.63281 0.625 1.49609C0.625 1.38672 0.652344 1.27734 0.761719 1.19531L1.44531 0.511719C1.5 0.429688 1.60938 0.375 1.74609 0.375C1.85547 0.375 1.96484 0.429688 2.04688 0.511719L5 3.4375L7.95312 0.511719C8.00781 0.429688 8.11719 0.375 8.25391 0.375C8.36328 0.375 8.47266 0.429688 8.55469 0.511719L9.23828 1.19531C9.32031 1.27734 9.375 1.38672 9.375 1.49609C9.375 1.63281 9.32031 1.74219 9.23828 1.79688L6.3125 4.75Z" fill="#D20101"/>
</svg>
