<svg width="20" height="20" viewBox="0 0 20 20" fill="none" xmlns="http://www.w3.org/2000/svg">
<g clip-path="url(#clip0)">
<path d="M10 20C15.5228 20 20 15.5228 20 10C20 4.47715 15.5228 0 10 0C4.47715 0 0 4.47715 0 10C0 15.5228 4.47715 20 10 20Z" fill="#FFE17D"/>
<path d="M6.61284 10C6.16745 10 5.8064 9.63898 5.8064 9.19359V8.54843C5.8064 8.10304 6.16745 7.74199 6.61284 7.74199C7.05823 7.74199 7.41929 8.10304 7.41929 8.54843V9.19359C7.41929 9.63898 7.05823 10 6.61284 10Z" fill="#7D5046"/>
<path d="M6.61295 7.74199C6.55771 7.74199 6.50381 7.74765 6.45166 7.75824V8.87101C6.45166 9.13824 6.6683 9.35488 6.93553 9.35488C7.20275 9.35488 7.41939 9.13824 7.41939 8.87101V8.54843C7.41939 8.103 7.05838 7.74199 6.61295 7.74199Z" fill="#9C6846"/>
<path d="M13.3873 10C12.9419 10 12.5808 9.63898 12.5808 9.19359V8.54843C12.5808 8.10304 12.9419 7.74199 13.3873 7.74199C13.8326 7.74199 14.1937 8.10304 14.1937 8.54843V9.19359C14.1937 9.63898 13.8326 10 13.3873 10Z" fill="#7D5046"/>
<path d="M13.3871 7.74199C13.3319 7.74199 13.278 7.74765 13.2258 7.75824V8.87101C13.2258 9.13824 13.4425 9.35488 13.7097 9.35488C13.9769 9.35488 14.1936 9.13824 14.1936 8.87101V8.54843C14.1936 8.103 13.8325 7.74199 13.3871 7.74199Z" fill="#9C6846"/>
<path d="M6.77294 14.9194C6.67529 14.9194 6.57732 14.8841 6.49982 14.8129C6.33599 14.662 6.32529 14.407 6.47619 14.243C7.29462 13.3535 8.61169 12.8226 9.99872 12.8226C11.3864 12.8226 12.7032 13.3537 13.5213 14.2431C13.6721 14.407 13.6614 14.6621 13.4976 14.8129C13.3341 14.9638 13.0786 14.9535 12.9277 14.7891C12.2596 14.0626 11.1646 13.629 9.99868 13.629C8.8331 13.629 7.7381 14.0626 7.06962 14.7892C6.99033 14.8756 6.88161 14.9194 6.77294 14.9194Z" fill="#AA7346"/>
<path d="M11.4516 18.5484C5.92875 18.5484 1.4516 14.0713 1.4516 8.54842C1.4516 6.15674 2.29227 3.96205 3.69285 2.24127C1.43996 4.07487 0 6.86885 0 10C0 15.5229 4.47715 20 10 20C13.1312 20 15.9252 18.56 17.7588 16.3071C16.038 17.7077 13.8433 18.5484 11.4516 18.5484Z" fill="#FFD164"/>
</g>
<defs>
<clipPath id="clip0">
<rect width="20" height="20" fill="white"/>
</clipPath>
</defs>
</svg>
