<svg width="13" height="15" viewBox="0 0 13 15" fill="none" xmlns="http://www.w3.org/2000/svg">
<path fill-rule="evenodd" clip-rule="evenodd" d="M12.9371 2.1397C12.7358 1.34115 11.6335 0 6.48393 0C4.05757 0 2.29668 0.266182 1.24901 0.791722C0.09214 1.37186 0 2.15676 0 2.38882V6.92757C0.00541521 9.75726 1.53354 12.365 3.99956 13.7528L5.98228 14.8687C6.29379 15.0438 6.67407 15.0438 6.98558 14.8687L8.9683 13.7528C11.4343 12.365 12.9624 9.75726 12.9679 6.92757V2.38882C12.9679 2.30483 12.9576 2.22116 12.9371 2.1397Z" fill="#4451BA"/>
<path fill-rule="evenodd" clip-rule="evenodd" d="M6.3134 11.6029C6.59611 11.6029 6.82529 11.3737 6.82529 11.091C6.82529 10.8083 6.59611 10.5791 6.3134 10.5791C6.03069 10.5791 5.80151 10.8083 5.80151 11.091C5.80151 11.3737 6.03069 11.6029 6.3134 11.6029Z" fill="white"/>
<path fill-rule="evenodd" clip-rule="evenodd" d="M6.3134 2.90076C6.03069 2.90076 5.80151 3.12994 5.80151 3.41265V8.8728C5.80151 9.1555 6.03069 9.38469 6.3134 9.38469C6.59611 9.38469 6.82529 9.1555 6.82529 8.8728V3.41265C6.82529 3.12994 6.59611 2.90076 6.3134 2.90076Z" fill="white"/>
</svg>
