<svg width="20" height="20" viewBox="0 0 20 20" fill="none" xmlns="http://www.w3.org/2000/svg">
<g clip-path="url(#clip0)">
<path d="M10.001 20C15.5238 20 20.001 15.5228 20.001 9.99998C20.001 4.47714 15.5238 0 10.001 0C4.47813 0 0.000976562 4.47714 0.000976562 9.99998C0.000976562 15.5228 4.47813 20 10.001 20Z" fill="#FFE17D"/>
<path d="M11.4516 18.5484C5.92874 18.5484 1.4516 14.0712 1.4516 8.54841C1.4516 6.15673 2.29226 3.96205 3.69284 2.24127C1.43996 4.07486 0 6.86884 0 10C0 15.5228 4.47714 20 9.99998 20C13.1312 20 15.9252 18.56 17.7588 16.3071C16.038 17.7077 13.8433 18.5484 11.4516 18.5484Z" fill="#FFD164"/>
<path d="M7.09658 20C7.45143 20 7.74174 19.7097 7.74174 19.3549C7.74174 19 7.45143 18.7097 7.09658 18.7097H7.41916C7.774 18.7097 8.06431 18.4194 8.06431 18.0646C8.06431 17.7097 7.774 17.4194 7.41916 17.4194H7.74174C8.09658 17.4194 8.38689 17.1291 8.38689 16.7743C8.38689 16.4194 8.09658 16.1291 7.74174 16.1291H11.2901C11.6465 16.1291 11.9353 15.8402 11.9353 15.4839C11.9353 15.1276 11.6464 14.8388 11.2901 14.8388H5.48369C4.94924 14.8388 4.51596 14.4055 4.51596 13.8711V11.9356C4.51596 11.5793 4.2271 11.2904 3.87081 11.2904C3.51448 11.2904 3.22565 11.5793 3.22565 11.9356V13.5147C3.22565 13.9542 3.07608 14.3806 2.80151 14.7238L2.50081 15.0997C2.13476 15.5573 1.9353 16.1258 1.9353 16.7118V18.0646C1.9353 19.1335 2.80186 20.0001 3.87077 20.0001H7.09658V20Z" fill="#FFD164"/>
<path d="M7.74198 19.3548H7.09683H3.87101C3.15953 19.3548 2.5807 18.776 2.5807 18.0645V16.7117C2.5807 16.2739 2.73133 15.8445 3.0048 15.5026L3.30554 15.1268C3.67019 14.6709 3.87101 14.0984 3.87101 13.5146V11.2903C3.51472 11.2903 3.22586 11.5792 3.22586 11.9355V13.5146C3.22586 13.9541 3.07629 14.3805 2.80176 14.7237L2.50105 15.0996C2.135 15.5572 1.93555 16.1257 1.93555 16.7117V18.0646C1.93555 19.1335 2.80207 20 3.87101 20H7.09683C7.45163 20 7.74198 19.7097 7.74198 19.3548Z" fill="#FFC350"/>
<path d="M11.9356 15.4839H7.4195C7.24134 15.4839 7.09692 15.6283 7.09692 15.8064C7.09692 15.9846 7.24134 16.129 7.4195 16.129H7.74208H11.2905C11.6468 16.129 11.9356 15.8402 11.9356 15.4839Z" fill="#FFC350"/>
<path d="M6.77441 17.0968C6.77441 17.2749 6.91883 17.4194 7.09699 17.4194H7.41957H7.74215C8.09699 17.4194 8.3873 17.129 8.3873 16.7742H7.09699C6.91883 16.7742 6.77441 16.9186 6.77441 17.0968Z" fill="#FFC350"/>
<path d="M6.45166 18.3872C6.45166 18.5653 6.59607 18.7097 6.77424 18.7097H7.09681H7.41939C7.77424 18.7097 8.06455 18.4194 8.06455 18.0646H6.77424C6.59607 18.0646 6.45166 18.209 6.45166 18.3872Z" fill="#FFC350"/>
<path d="M11.6123 13.3064C11.5516 13.3064 11.4898 13.2925 11.4315 13.2632C11.4094 13.2522 9.19769 12.1528 6.75285 12.0967C6.53011 12.0916 6.35371 11.907 6.35875 11.6843C6.36379 11.4618 6.54871 11.2774 6.77109 11.2906C9.40339 11.3509 11.6983 12.4946 11.7947 12.5432C11.9935 12.6434 12.0732 12.8858 11.973 13.0846C11.9022 13.2253 11.7601 13.3064 11.6123 13.3064Z" fill="#AA7346"/>
<path d="M7.41915 5.24194C7.33126 5.24194 7.24275 5.21327 7.16872 5.15436C7.10794 5.10663 5.72087 4.04217 4.05131 4.87682C3.85283 4.97651 3.60967 4.89542 3.51041 4.69647C3.41088 4.49721 3.4915 4.25514 3.69092 4.15541C5.83244 3.08373 7.59747 4.46444 7.67149 4.52381C7.8454 4.66288 7.87341 4.91663 7.7345 5.09053C7.65482 5.1901 7.53763 5.24194 7.41915 5.24194Z" fill="#AA7346"/>
<path d="M11.9354 5.88725C11.747 5.88725 11.5788 5.75463 11.5404 5.56295C11.4966 5.34463 11.6384 5.13217 11.8567 5.08854L15.0825 4.44339C15.3021 4.39975 15.5131 4.5412 15.5569 4.75967C15.6007 4.97799 15.4589 5.19045 15.2406 5.23409L12.0148 5.87924C11.9881 5.88455 11.9616 5.88725 11.9354 5.88725Z" fill="#AA7346"/>
<path d="M5.93784 8.12571C5.49581 8.07122 5.18163 7.66868 5.23612 7.22665L5.31507 6.58634C5.36956 6.14431 5.7721 5.83013 6.21413 5.88462C6.65616 5.93911 6.97034 6.34165 6.91585 6.78368L6.8369 7.42399C6.78241 7.86602 6.37987 8.1802 5.93784 8.12571Z" fill="#7D5046"/>
<path d="M6.21404 5.8846C6.15919 5.87785 6.10501 5.87687 6.05197 5.88101L5.91579 6.98543C5.8831 7.25066 6.07158 7.49218 6.33681 7.52488C6.60205 7.55757 6.84357 7.3691 6.87627 7.10386L6.91576 6.78371C6.97025 6.34164 6.65611 5.9391 6.21404 5.8846Z" fill="#9C6846"/>
<path d="M12.6917 8.83129C12.2497 8.77679 11.9355 8.37425 11.99 7.93222L12.069 7.29191C12.1235 6.84987 12.526 6.53569 12.968 6.59019C13.4101 6.64468 13.7242 7.04722 13.6698 7.48925L13.5908 8.12957C13.5363 8.57164 13.1338 8.88582 12.6917 8.83129Z" fill="#7D5046"/>
<path d="M12.9679 6.59023C12.9131 6.58347 12.8589 6.5825 12.8059 6.58664L12.6697 7.69106C12.637 7.95629 12.8255 8.19782 13.0907 8.23051C13.356 8.26321 13.5975 8.07473 13.6302 7.8095L13.6697 7.48934C13.7242 7.04727 13.41 6.64476 12.9679 6.59023Z" fill="#9C6846"/>
</g>
<defs>
<clipPath id="clip0">
<rect width="20" height="20" fill="white"/>
</clipPath>
</defs>
</svg>
