<svg width="30" height="30" viewBox="0 0 30 30" fill="none" xmlns="http://www.w3.org/2000/svg">
<path fill-rule="evenodd" clip-rule="evenodd" d="M15 0C23.2843 0 30 6.71573 30 15C30 23.2843 23.2843 30 15 30C6.71573 30 0 23.2843 0 15C0 6.71573 6.71573 0 15 0Z" fill="#7F4DA0"/>
<path fill-rule="evenodd" clip-rule="evenodd" d="M18.0354 13.5595C17.9788 13.0993 17.8373 12.7379 17.5861 12.4178C17.2599 12.0057 16.843 11.7588 16.2258 11.6124C15.8236 11.5148 15.6611 11.526 15.5156 11.6589C15.3802 11.7834 15.3537 12.033 15.4572 12.1946C15.5301 12.3119 15.6141 12.3539 15.8477 12.3998C16.1589 12.457 16.3739 12.5313 16.5695 12.6432C16.9847 12.8829 17.178 13.258 17.1987 13.8653C17.2084 14.1505 17.233 14.2381 17.3326 14.3393C17.5172 14.5242 17.8457 14.4882 17.9851 14.267C18.0362 14.1836 18.044 14.1473 18.0494 13.9537C18.053 13.8338 18.0478 13.6554 18.0354 13.5595Z" fill="white"/>
<path fill-rule="evenodd" clip-rule="evenodd" d="M19.6609 14.0785C19.5789 12.6685 19.0274 11.534 18.0403 10.7359C17.4842 10.2874 16.812 9.97897 16.0751 9.82899C15.8052 9.77535 15.3082 9.73187 15.223 9.75674C15.1425 9.77977 15.0287 9.86688 14.978 9.94566C14.9244 10.0311 14.9123 10.2218 14.9581 10.3322C15.0319 10.5166 15.1693 10.5818 15.554 10.6154C16.1471 10.6673 16.7589 10.8757 17.2211 11.1842C17.7488 11.5354 18.1683 12.0158 18.4397 12.5804C18.6742 13.0654 18.8184 13.7645 18.8144 14.3904C18.8131 14.6168 18.848 14.7447 18.9391 14.8381C19.0765 14.9819 19.2768 15.0133 19.4536 14.9178C19.6495 14.8148 19.6954 14.6339 19.6609 14.0785Z" fill="white"/>
<path fill-rule="evenodd" clip-rule="evenodd" d="M21.9331 19.1756C21.9056 19.0946 21.8412 18.9697 21.7953 18.8979C21.5059 18.4584 19.9508 17.2346 19.1744 16.8344C18.7311 16.6054 18.4026 16.5291 18.1591 16.6008C17.8973 16.6748 17.7594 16.7974 17.3207 17.3457C17.1438 17.5655 16.9624 17.7714 16.9141 17.8037C16.7947 17.887 16.5604 17.9541 16.395 17.9541C16.0114 17.9518 15.3154 17.7019 14.7802 17.3734C14.3644 17.119 13.8315 16.6633 13.4226 16.2122C12.9402 15.6824 12.6118 15.2151 12.3522 14.6877C12.0169 14.0098 11.9319 13.5957 12.072 13.2927C12.1064 13.2163 12.1524 13.1354 12.173 13.1099C12.1937 13.0868 12.4097 12.9087 12.6485 12.7143C13.1171 12.3396 13.1929 12.254 13.2802 11.9972C13.3905 11.671 13.3606 11.3379 13.1906 11.0025C13.0597 10.748 12.7174 10.1928 12.4694 9.83424C12.1409 9.36233 11.3232 8.35371 11.16 8.21718C10.866 7.97662 10.4894 7.93495 10.0736 8.09692C9.63486 8.26811 8.8125 8.93435 8.46105 9.39934C8.14406 9.82036 8.02235 10.1188 8.00396 10.512C7.98789 10.8359 8.01545 10.9701 8.18543 11.3842C9.51541 14.6321 11.5 17.2254 14.2266 19.2843C15.6508 20.36 17.1277 21.1789 18.6599 21.7388C19.5534 22.0649 19.9416 22.0811 20.3987 21.8128C20.5916 21.6971 21.0694 21.2044 21.3359 20.8458C21.7769 20.2489 21.94 19.9737 21.9859 19.7539C22.0181 19.6035 21.9928 19.3421 21.9331 19.1756Z" fill="white"/>
<path fill-rule="evenodd" clip-rule="evenodd" d="M21.3159 14.4024C21.2865 13.6048 21.1522 12.9506 20.8721 12.2212C20.5957 11.5037 20.3159 11.0355 19.7875 10.4022C19.2879 9.80845 18.8999 9.46943 18.2845 9.09205C17.4259 8.56625 16.381 8.2183 15.21 8.07196C14.8106 8.02082 14.7203 8.02447 14.5978 8.10622C14.3604 8.26108 14.3635 8.64734 14.6017 8.79988C14.6805 8.8484 14.7505 8.86608 15.0699 8.90789C15.5603 8.97391 15.8756 9.03612 16.2497 9.13821C17.7169 9.53927 18.8451 10.3591 19.5994 11.576C20.2306 12.5903 20.4927 13.6047 20.4554 14.9003C20.4425 15.3383 20.4519 15.4154 20.5189 15.5206C20.6471 15.7167 20.9852 15.7555 21.1587 15.5928C21.2666 15.4936 21.2869 15.4191 21.3082 15.0442C21.3184 14.8487 21.3206 14.56 21.3159 14.4024Z" fill="white"/>
</svg>
