<svg width="104" height="99" viewBox="0 0 104 99" fill="none" xmlns="http://www.w3.org/2000/svg">
<path d="M72.652 9.5524C69.8266 9.5524 66.7322 11.1669 64.0414 13.9922C64.0414 13.9922 61.0815 16.9521 60.1397 20.9884C60.1397 21.1229 60.1397 21.2574 60.0052 21.392C59.6015 23.0065 59.1979 25.1591 61.3506 27.3118C62.5614 28.5226 64.1759 28.7917 65.2522 28.7917C66.3286 28.7917 67.1358 28.5226 67.1358 28.5226L68.4812 28.2536C70.903 27.4463 73.0556 26.1009 74.8046 24.2173C79.1099 19.643 80.0517 14.2613 76.9573 11.3014C75.7464 10.0906 74.2665 9.5524 72.652 9.5524Z" fill="white"/>
<path d="M31.7516 10.0905C30.0026 10.0905 28.5226 10.6287 27.3118 11.8396C25.9663 13.185 25.2936 15.3376 25.6973 17.6248C26.1009 20.0466 27.5808 22.6028 29.7335 24.7555C29.7335 24.7555 32.6934 27.8499 36.5951 28.7917C36.7296 28.7917 36.8641 28.9263 36.9987 28.9263C37.6714 29.0608 38.4786 29.3299 39.2859 29.3299C40.6313 29.3299 41.8422 28.7917 42.9185 27.7154C45.2057 25.4282 44.2639 21.9301 44.2639 21.9301L43.9948 20.5847C43.1876 18.163 41.9767 16.0103 40.0931 14.2613C37.6714 11.5705 34.577 10.0905 31.7516 10.0905Z" fill="white"/>
<path d="M12.3777 89.066C15.4722 89.3351 17.8939 89.3351 20.0466 89.3351C26.7736 89.3351 32.4243 88.9314 37.5368 83.8189C38.7477 82.608 93.1022 28.2536 93.1022 28.2536C93.6403 27.7154 94.5821 27.7154 95.1203 28.2536C95.6584 28.7917 95.6584 29.7335 95.1203 30.2717C95.1203 30.2717 31.2134 94.7167 30.2716 95.5239C28.119 97.1384 27.4463 97.273 19.7775 97.273C16.8176 97.273 13.3195 97.0039 13.3195 97.0039C12.5123 97.0039 11.8396 96.4657 11.705 95.5239L11.0323 90.815C10.7632 90.0078 11.4359 89.066 12.3777 89.066Z" fill="#1072B9"/>
<path d="M12.2432 89.8733C12.1087 89.8733 11.8396 90.0078 11.8396 90.1423C11.705 90.4114 11.5705 90.6805 11.705 90.9496L12.3778 95.6585C12.5123 96.1967 12.7814 96.4657 13.3195 96.4657C13.3195 96.4657 16.9521 96.7348 19.7775 96.7348C27.3118 96.7348 27.8499 96.6003 29.868 95.1203C31.0789 94.1786 72.7865 52.0673 94.5821 30.0026C94.8512 29.7335 94.8512 29.1954 94.5821 28.9263C94.3131 28.6572 93.7749 28.6572 93.5058 28.9263L38.075 84.4916C32.8279 89.7387 27.1772 90.1423 20.1811 90.1423C17.6248 90.1423 15.0686 90.0078 12.2432 89.8733ZM19.912 98.2148C17.0867 98.2148 13.7232 97.9457 13.3195 97.9457C12.1087 97.9457 11.1669 97.1385 10.8978 95.9276L10.2251 91.2187C10.0906 90.546 10.2251 89.7387 10.7633 89.2005C11.1669 88.6624 11.8396 88.3933 12.5123 88.5278C15.2031 88.7969 17.6248 88.7969 20.1811 88.7969C27.0427 88.7969 32.2898 88.3933 37.1332 83.5498L92.6986 27.9845C93.1022 27.5809 93.6404 27.3118 94.1785 27.3118C94.7167 27.3118 95.2548 27.5809 95.6585 27.9845C96.4657 28.7917 96.4657 30.2717 95.6585 31.0789C89.2005 37.6714 31.7516 95.524 30.8098 96.3312C28.5226 97.9457 27.5809 98.2148 19.912 98.2148Z" fill="#1A1A1A"/>
<path d="M91.0841 89.066C87.9896 89.3351 85.5679 89.3351 83.4152 89.3351C76.6882 89.3351 71.0375 88.9314 65.9249 83.8189C64.7141 82.608 10.7632 28.6572 10.7632 28.6572C10.2251 28.119 9.28329 28.119 8.74513 28.6572C8.07242 29.4644 8.07242 30.2717 8.74513 30.9444C8.74513 30.9444 72.2484 94.9858 73.1901 95.793C75.3428 97.4075 76.0155 97.542 83.6843 97.542C86.6442 97.542 90.1423 97.273 90.1423 97.273C90.9495 97.273 91.6222 96.7348 91.7568 95.793L92.4295 91.0841C92.6986 90.0078 92.1604 89.066 91.0841 89.066Z" fill="#1072B9"/>
<path d="M9.68694 29.0608C9.5524 29.0608 9.28332 29.1953 9.14878 29.3299C8.8797 29.599 8.8797 30.1371 9.14878 30.4062C30.9444 52.3364 72.3829 94.1785 73.5938 95.1203C75.6119 96.6003 76.1501 96.7348 83.6844 96.7348C86.5097 96.7348 90.1423 96.4657 90.1423 96.4657C90.6805 96.4657 90.9495 96.1966 91.0841 95.5239L91.7568 90.815C91.8913 90.4114 91.7568 90.1423 91.6223 89.8732C91.4877 89.7387 91.3532 89.6041 91.0841 89.6041C88.3933 89.8732 85.837 89.8732 83.2807 89.8732C76.2846 89.8732 70.4994 89.4696 65.2523 84.2225C64.0414 83.0117 10.0906 29.0608 10.0906 29.0608C10.0906 29.1953 9.95603 29.0608 9.68694 29.0608ZM83.6844 98.2148C75.881 98.2148 75.0737 97.9457 72.7866 96.3312C71.8448 95.6585 14.665 38.075 8.207 31.4825C7.39975 30.6753 7.39975 29.1953 8.207 28.3881C8.61062 27.9845 9.14878 27.7154 9.68694 27.7154C10.2251 27.7154 10.7633 27.9845 11.1669 28.3881C11.1669 28.3881 65.1177 82.3389 66.3286 83.5498C71.1721 88.3933 76.4192 88.7969 83.2807 88.7969C85.837 88.7969 88.2587 88.6624 90.9496 88.5278C91.6223 88.5278 92.295 88.7969 92.6986 89.2005C93.1022 89.7387 93.3713 90.5459 93.2367 91.2186L92.564 95.9276C92.295 97.273 91.3532 97.9457 90.1423 97.9457C89.8732 97.9457 86.3752 98.2148 83.6844 98.2148Z" fill="#1A1A1A"/>
<path d="M20.1811 31.8862C30.6753 29.868 41.304 25.9664 51.7982 20.1811C62.0233 25.9664 72.5174 30.0026 83.4152 31.8862L80.4553 69.9612C71.9793 78.8409 62.4269 86.3751 51.9327 92.8331C41.4385 87.1824 32.0207 79.6481 23.5446 70.3648L20.1811 31.8862Z" fill="#FFCC02"/>
<path d="M51.9327 18.2975C51.6636 18.2975 51.3945 18.4321 51.1255 18.5666C40.6313 24.3519 30.1371 28.2536 20.0465 30.1371C19.1048 30.2717 18.5666 31.0789 18.5666 32.0207L21.9301 70.6339C21.9301 71.0375 22.0646 71.4411 22.3337 71.7102C30.9443 81.2626 40.6313 88.9314 51.1255 94.5822C51.3945 94.7167 51.6636 94.8512 51.9327 94.8512C52.2018 94.8512 52.6054 94.7167 52.8745 94.5822C63.9068 87.8551 73.7283 80.0518 81.8007 71.4411C82.0698 71.1721 82.2044 70.7684 82.3389 70.3648L85.4333 32.2898C85.5679 31.348 84.8952 30.5408 83.9534 30.4062C73.5938 28.6572 63.5032 24.89 52.8745 18.8357C52.4709 18.4321 52.2018 18.2975 51.9327 18.2975ZM51.9327 20.1811C62.1578 25.9664 72.652 30.0026 83.5498 31.8862L80.4553 69.9612C71.9793 78.9754 62.4269 86.3752 51.9327 92.8331C41.4385 87.1824 32.0207 79.6481 23.5446 70.3648L20.1811 31.8862C30.8098 29.8681 41.304 25.9664 51.9327 20.1811Z" fill="#343333"/>
<path d="M26.1009 34.3079C34.846 32.5589 43.1875 29.599 50.9909 25.4282C51.5291 25.1591 52.2018 25.1591 52.7399 25.4282C60.5433 29.4644 68.8848 32.5589 77.63 34.3079C78.5718 34.4424 79.1099 35.3842 79.1099 36.326L76.4191 67.8085C76.4191 68.2122 76.15 68.6158 75.8809 68.8849C69.6921 75.2083 61.7542 81.1281 52.8745 86.9133C52.3363 87.3169 51.5291 87.3169 50.9909 87.0478C41.9767 82.2044 34.4424 76.1501 27.9844 69.0194C27.7154 68.7503 27.5808 68.3467 27.5808 67.9431L24.89 36.326C24.4864 35.3842 25.1591 34.577 26.1009 34.3079Z" fill="#B72025"/>
<path d="M40.3622 67.2704L50.1837 68.2122V71.3066H49.1074L48.9729 70.4994L46.5511 70.3648L46.6857 78.4373L47.3584 79.11V80.4554L44.1294 78.5718L43.9948 77.3609L44.6675 77.4955L44.533 69.6921L41.8422 69.1539L41.7077 70.3648L40.4968 69.9612L40.3622 67.2704Z" fill="white"/>
<path d="M40.3622 66.1941C40.0931 66.1941 39.824 66.3286 39.555 66.4631C39.2859 66.7322 39.1513 67.0013 39.2859 67.2704L39.4204 70.0957C39.4204 70.4994 39.6895 70.903 40.2277 71.0375L41.4385 71.4411H41.7076C41.8421 71.4411 42.1112 71.4411 42.2458 71.3066C42.5149 71.1721 42.6494 70.903 42.7839 70.4994V70.3648L43.5912 70.4994L43.7257 76.1501C43.5912 76.1501 43.4566 76.2846 43.3221 76.4191C43.053 76.6882 42.9185 76.9573 42.9185 77.3609L43.053 78.5718C43.053 78.8409 43.3221 79.2445 43.5912 79.379L46.8202 81.3972C46.9547 81.5317 47.2238 81.5317 47.3583 81.5317C47.4929 81.5317 47.7619 81.5317 47.8965 81.3972C48.3001 81.2626 48.4346 80.859 48.4346 80.4554V79.11C48.4346 78.8409 48.3001 78.5718 48.1656 78.4373L47.7619 78.0336V71.5757H48.031C48.1656 72.1138 48.5692 72.5175 49.1073 72.5175H50.1837C50.7218 72.5175 51.26 71.9793 51.26 71.4411V68.3467C51.26 67.8085 50.8564 67.2704 50.3182 67.2704L40.3622 66.1941ZM40.3622 67.2704L50.1837 68.2122V71.3066H49.1073L48.9728 70.4994L46.5511 70.3648L46.6856 78.4373L47.3583 79.11V80.4554L44.1293 78.4373L43.9948 77.2264L44.802 77.3609L44.6675 69.5576L41.9767 69.0194L41.7076 70.3648L40.4967 69.9612L40.3622 67.2704Z" fill="#8C191C"/>
<path d="M58.6597 73.0556L60.5433 76.0155L61.6196 75.3428L61.4851 76.8227L58.3907 79.2445V77.7645L58.9288 77.2264L57.5834 74.6701L55.1617 79.379L55.6998 79.1099V80.9935L52.3363 82.3389L52.2018 80.3208L53.009 80.0517L56.3725 73.1901L53.9508 69.423H53.009V67.943H56.5071L56.7762 69.423H56.1035L57.5834 71.5756L58.9288 69.0194H58.2561L58.3907 67.8085L62.2923 67.4049L62.0233 68.8848L61.216 69.0194L58.6597 73.0556Z" fill="white"/>
<path d="M62.2924 66.3286L58.3907 66.7322C57.9871 66.7322 57.718 67.0013 57.5834 67.4049C57.4489 67.1358 57.0453 66.8667 56.6417 66.8667H53.1436C52.6054 66.8667 52.0673 67.2704 52.0673 67.9431V69.423C52.0673 69.6921 52.2018 69.9612 52.3364 70.2303C52.6054 70.3648 52.8745 70.4993 53.1436 70.4993H53.5472L55.2962 73.3247L52.3364 79.2445L51.9327 79.379C51.3946 79.5136 51.1255 80.0517 51.1255 80.4554L51.26 82.4735C51.26 82.8771 51.5291 83.1462 51.7982 83.2807C51.9327 83.4153 52.2018 83.4153 52.3364 83.4153C52.4709 83.4153 52.6054 83.4153 52.74 83.2807L56.1035 81.9353C56.5071 81.8008 56.7762 81.3971 56.7762 80.9935V79.2445V79.1099C56.7762 78.9754 56.7762 78.7063 56.6417 78.5718L57.5834 76.8228V76.9573C57.4489 77.0918 57.3144 77.3609 57.3144 77.63V79.1099C57.3144 79.5136 57.5834 79.9172 57.8525 80.0517C57.9871 80.1863 58.1216 80.1863 58.3907 80.1863C58.6598 80.1863 58.7943 80.0517 59.0634 79.9172L62.1578 77.4955C62.4269 77.3609 62.5615 77.0918 62.5615 76.6882L62.696 75.0737V74.9392C62.696 74.401 62.1578 73.8629 61.6197 73.8629C61.3506 73.8629 61.216 73.9974 61.0815 73.9974L60.8124 74.1319L59.8706 72.652L61.7542 69.5576H62.0233C62.5615 69.5576 62.8305 69.1539 62.9651 68.7503L63.2342 67.2704C63.3687 66.8667 63.2342 66.5977 62.9651 66.3286C62.8305 66.4631 62.5615 66.3286 62.2924 66.3286ZM62.2924 67.4049L62.0233 68.8849L61.216 69.0194L58.6598 73.0556L60.5433 76.0155L61.7542 75.2083L61.6197 76.8228L58.5252 79.2445V77.7645L59.0634 77.2264L57.5834 74.6701L55.1617 79.379L55.8344 79.1099V80.9935L52.4709 82.3389L52.3364 80.3208L53.1436 80.0517L56.6417 73.1902L54.2199 69.423H53.2781V67.9431H56.7762L57.0453 69.2885H56.3726L57.8525 71.3066L59.1979 68.8849H58.6598L58.7943 67.674L62.2924 67.4049Z" fill="#8C191C"/>
<path d="M55.4308 33.6352C55.9689 33.097 58.1216 29.4644 58.3907 27.4463C58.7943 28.2535 60.0052 29.868 61.0815 30.1371C58.7943 30.6753 56.238 32.8279 55.4308 33.6352Z" fill="#BE2026"/>
<path d="M58.6598 28.7917C58.3907 29.599 57.9871 30.4062 57.5835 31.2135C58.2562 30.8098 59.0634 30.2717 59.7361 30.0026C59.3325 29.7335 58.9289 29.1953 58.6598 28.7917ZM55.4308 34.1733C55.2963 34.1733 55.1617 34.1733 55.0272 34.0388C54.8926 33.7697 54.7581 33.5006 55.0272 33.2316C55.5653 32.6934 57.5835 29.1953 57.8525 27.4463C57.8525 27.1772 57.9871 27.0427 58.2562 26.9081C58.5252 26.9081 58.7943 26.9082 58.7943 27.1772C59.3325 28.119 60.4088 29.4644 61.0815 29.599C61.3506 29.599 61.4851 29.868 61.4851 30.1371C61.4851 30.4062 61.3506 30.5407 61.0815 30.6753C58.9289 31.2135 56.3726 33.3661 55.6999 34.0388L55.4308 34.1733Z" fill="#343333"/>
<path d="M61.216 27.4463C58.6598 25.0246 59.467 22.4683 59.8706 20.8538C60.8124 16.683 63.9068 13.7231 63.9068 13.7231C68.4812 8.87968 74.1319 7.93789 77.2264 10.8978C80.3208 13.8577 79.7826 19.5084 75.2083 24.3519C73.1902 26.5045 71.0375 27.7154 68.7503 28.5226L67.5394 28.7917C67.4049 28.7917 63.7723 29.868 61.216 27.4463ZM45.7438 45.2057C49.2419 41.5731 48.031 42.7839 53.5472 36.8642C56.9107 33.3661 61.4851 31.2134 63.3687 31.2134C67.4049 31.0789 72.3829 29.868 76.2846 25.5627C81.6662 19.7775 82.2044 13.0504 78.3027 9.41784C74.401 5.78524 67.674 6.59249 62.2924 12.2432C58.3907 16.2794 57.0453 21.2574 57.3143 25.2936C57.4489 27.5808 54.7581 31.6171 51.5291 34.9806C46.1475 40.6313 47.0892 39.6895 43.7257 43.1876C42.9185 44.2639 44.8021 46.1475 45.7438 45.2057Z" fill="#FFCC02"/>
<path d="M72.652 7.93793C69.423 7.93793 65.7904 9.68696 62.965 12.7814C59.6015 16.2795 57.8525 20.9884 58.2561 25.2937C58.5252 27.9845 55.2962 32.2898 52.2018 35.5188L44.3984 43.7258C44.3984 43.7258 44.2639 43.8603 44.3984 44.1294C44.533 44.3985 44.9366 44.6676 45.0711 44.6676L45.2057 44.533L53.009 36.1915C55.2962 33.9043 60.1397 30.4062 63.3687 30.2717C66.194 30.1372 71.5757 29.3299 75.881 24.8901C78.3027 22.3338 79.9172 19.2394 80.1863 16.414C80.4553 13.7232 79.6481 11.3014 77.8991 9.68696C76.5537 8.61063 74.6701 7.93793 72.652 7.93793ZM45.0711 46.1475C44.2639 46.1475 43.4566 45.6093 43.053 44.6676C42.7839 43.9949 42.9185 43.1876 43.3221 42.6494L51.1255 34.4425C54.6235 30.6753 56.9107 27.0427 56.7762 25.2937C56.3726 20.5848 58.2561 15.4722 61.8887 11.7051C65.1177 8.20701 69.0194 6.32344 72.652 6.32344C75.0737 6.32344 77.2264 7.13069 78.9754 8.74517C80.9935 10.7633 82.0698 13.5886 81.6662 16.6831C81.3971 19.7775 79.6481 23.141 76.9573 25.9664C72.3829 30.8099 66.5976 31.7516 63.5032 31.7516C61.8887 31.7516 57.4489 33.6352 54.0854 37.1333L46.282 45.4748C45.8784 46.013 45.4748 46.1475 45.0711 46.1475Z" fill="#343333"/>
<path d="M72.652 9.55239C69.8266 9.55239 66.7322 11.1669 64.0414 13.9922C64.0414 13.9922 61.0815 16.9521 60.1397 20.9884C60.1397 21.1229 60.1397 21.2574 60.0052 21.392C59.6015 23.0065 59.1979 25.1591 61.3506 27.3118C62.5614 28.5226 64.1759 28.7917 65.2522 28.7917C66.3286 28.7917 67.1358 28.5226 67.1358 28.5226L68.4812 28.119C70.903 27.3118 73.0556 25.9664 74.8046 24.0828C79.1099 19.5084 80.0517 14.1268 76.8227 11.1669C75.7464 10.0906 74.2665 9.55239 72.652 9.55239ZM65.3868 29.3299C64.1759 29.3299 62.4269 29.0608 60.9469 27.7154C58.3907 25.2937 59.0634 22.7374 59.3324 21.1229C59.3324 20.9884 59.3325 20.8538 59.467 20.7193C60.4088 16.5485 63.3687 13.4541 63.5032 13.3195C66.3286 10.3596 69.5575 8.74515 72.652 8.74515C74.5356 8.74515 76.15 9.41785 77.3609 10.4942C80.7244 13.7232 79.9172 19.6429 75.3428 24.4864C73.4592 26.37 71.3066 27.8499 68.7503 28.6572L67.4049 29.0608C67.4049 29.0608 66.5977 29.3299 65.3868 29.3299Z" fill="#FAAF3B"/>
<path d="M65.1177 31.6171C63.5032 31.6171 61.216 31.2135 59.1979 29.3299C57.718 27.8499 55.969 25.1591 57.0453 20.7193V20.5847C57.1798 20.1811 57.4489 19.912 57.8525 20.0466C58.2561 20.1811 58.5252 20.5847 58.3907 20.8538V20.9884C57.718 24.0828 58.2561 26.5045 60.1397 28.2536C62.9651 30.9444 66.8668 29.8681 67.0013 29.8681C67.4049 29.7335 67.8085 30.0026 67.9431 30.4062C68.0776 30.8098 67.8085 31.2135 67.4049 31.348C67.4049 31.348 66.4631 31.6171 65.1177 31.6171Z" fill="#343333"/>
<path d="M48.8383 36.5951L40.6313 45.3402C39.8241 46.282 40.3622 47.0893 41.1695 47.8965C42.1113 48.7038 42.9185 49.2419 43.7258 48.3001L51.7982 39.8241C52.6054 38.8823 51.9327 38.4787 50.991 37.5369C50.1837 36.8642 49.2419 36.1915 48.8383 36.5951Z" fill="#D8DF27"/>
<path d="M49.2419 37.2678L41.0349 45.8784C40.7659 46.1475 40.7659 46.282 40.9004 46.5511C41.0349 46.8202 41.1695 47.0893 41.5731 47.4929C42.1113 48.031 42.5149 48.1656 42.6494 48.1656C42.784 48.1656 42.9185 48.1656 43.053 47.8965L51.1255 39.4204C51.26 39.2859 51.26 39.1514 51.26 39.1514C51.26 39.0168 50.8564 38.6132 50.5873 38.3441L50.3182 38.075C49.7801 37.5369 49.511 37.2678 49.2419 37.2678ZM42.784 49.511C42.1113 49.511 41.4386 49.1074 40.6313 48.4347C40.0931 47.8965 39.6895 47.3583 39.555 46.8202C39.4204 46.282 39.4204 45.6093 40.0931 44.8021L48.3001 36.0569C48.5692 35.7878 48.8383 35.6533 49.1074 35.6533C49.511 35.6533 50.1837 35.7878 51.3946 36.9987L51.6637 37.2678C52.2018 37.806 52.74 38.3441 52.74 39.0168C52.74 39.4204 52.6054 39.8241 52.2018 40.2277L44.1294 48.7038C43.8603 49.3765 43.3221 49.511 42.784 49.511Z" fill="#343333"/>
<path d="M55.2963 33.2316C55.8344 32.6934 59.467 30.4062 61.3506 30.1371C60.5434 29.7335 58.7943 28.5226 58.5252 27.5809C58.1216 29.7335 55.969 32.4243 55.2963 33.2316Z" fill="#E43E3E"/>
<path d="M58.7943 28.7917C58.5252 29.599 58.1216 30.4062 57.5834 31.0789C58.3907 30.6753 59.1979 30.2717 60.0052 30.0026C59.6015 29.599 59.1979 29.1953 58.7943 28.7917ZM55.2962 33.7697C55.1617 33.7697 55.0271 33.7697 54.8926 33.6352C54.6235 33.5006 54.6235 33.097 54.8926 32.8279C55.5653 32.1552 57.5834 29.599 58.1216 27.3118C58.1216 27.0427 58.3907 26.9081 58.6597 26.9081C58.9288 26.9081 59.0634 27.0427 59.1979 27.3118C59.3325 27.9845 60.8124 29.0608 61.7542 29.599C62.0233 29.7335 62.0233 30.0026 62.0233 30.1371C62.0233 30.4062 61.7542 30.5408 61.4851 30.5408C59.7361 30.6753 56.238 32.9625 55.6999 33.5006C55.5653 33.6352 55.4308 33.7697 55.2962 33.7697Z" fill="#343333"/>
<path d="M67.2703 17.4903C67.1358 17.4903 67.0013 17.4903 66.8667 17.6248C66.5976 17.8939 66.5976 18.163 66.8667 18.4321L67.674 19.2393L68.4812 18.4321L67.674 17.6248C67.5394 17.4903 67.4049 17.4903 67.2703 17.4903ZM69.1539 19.2393L68.3467 20.0466L69.1539 20.8538L69.9612 20.0466L69.1539 19.2393ZM70.7684 20.8538L70.0957 21.5265L71.0375 22.4683L71.8447 21.6611L70.7684 20.8538ZM72.5174 22.4683L71.7102 23.2755L72.1138 23.6792C72.2484 23.8137 72.3829 23.8137 72.5174 23.8137C72.652 23.8137 72.7865 23.8137 72.9211 23.6792C73.1901 23.4101 73.1901 23.141 72.9211 22.8719L72.5174 22.4683Z" fill="#BAB9B9"/>
<path d="M67.4049 14.1268C67.2704 14.1268 67.1359 14.1268 67.0013 14.2613C66.7322 14.5304 66.7322 14.7995 67.0013 15.0686L67.5395 15.6067L68.3467 14.7995L67.8086 14.2613C67.674 14.2613 67.5395 14.1268 67.4049 14.1268ZM69.154 15.6067L68.3467 16.414L69.423 17.4903L70.2303 16.6831L69.154 15.6067ZM71.0375 17.4903L70.2303 18.2975L71.0375 19.1048L71.8448 18.2975L71.0375 17.4903ZM72.652 19.1048L71.8448 19.912L72.7866 20.8538L73.5938 20.0466L72.652 19.1048ZM74.2665 20.7193L73.5938 21.5265L74.2665 22.1992C74.4011 22.3338 74.5356 22.3338 74.6701 22.3338C74.8047 22.3338 74.9392 22.3338 75.0738 22.1992C75.3428 21.9301 75.3428 21.6611 75.0738 21.392L74.2665 20.7193Z" fill="#BAB9B9"/>
<path d="M68.6157 11.9741C68.4812 11.9741 68.3467 11.9741 68.2121 12.1087C67.943 12.3777 67.943 12.6468 68.2121 12.9159L69.1539 13.8577L69.9612 13.0504L69.0194 12.1087C69.0194 12.1087 68.7503 11.9741 68.6157 11.9741ZM70.7684 13.8577L69.9612 14.6649L71.0375 15.7413L71.8447 14.934L70.7684 13.8577ZM72.652 15.7413L71.8447 16.5485L72.652 17.3558L73.4592 16.5485L72.652 15.7413ZM74.2665 17.3558L73.4592 18.163L74.401 19.1048L75.2082 18.2975L74.2665 17.3558ZM76.0155 19.1048L75.2082 19.912L75.4773 20.1811C75.6119 20.3156 75.7464 20.3156 75.8809 20.3156C76.0155 20.3156 76.15 20.3156 76.2846 20.1811C76.5537 19.912 76.5537 19.6429 76.2846 19.3739L76.0155 19.1048Z" fill="#BAB9B9"/>
<path d="M70.6339 10.6287C70.4993 10.6287 70.3648 10.6287 70.2303 10.7632C69.9612 11.0323 69.9612 11.3014 70.2303 11.5705L70.903 12.2432L71.7102 11.436L71.0375 10.7632C70.903 10.7632 70.7684 10.6287 70.6339 10.6287ZM72.5174 12.2432L71.7102 13.0504L72.7865 14.1268L73.5938 13.3195L72.5174 12.2432ZM74.2665 14.1268L73.5938 14.7995L74.401 15.6067L75.2083 14.7995L74.2665 14.1268ZM75.881 15.7413L75.0737 16.5485L75.4773 16.9521C75.6119 17.0867 75.7464 17.0867 75.881 17.0867C76.0155 17.0867 76.15 17.0867 76.2846 16.9521C76.5537 16.683 76.5537 16.414 76.2846 16.1449L75.881 15.7413Z" fill="#BAB9B9"/>
<path d="M75.6119 11.436C75.4774 11.436 75.3428 11.436 75.2083 11.5705L73.4592 13.3195L72.652 14.1268L71.7102 15.0686L70.903 15.8758L69.9612 16.8176L69.423 17.4903L68.4812 18.4321L67.674 19.2393L67.1358 19.7775C66.8668 20.0466 66.8668 20.3157 67.1358 20.5847C67.2704 20.7193 67.4049 20.7193 67.5395 20.7193C67.674 20.7193 67.8085 20.7193 67.9431 20.5847L68.4812 20.0466L69.2885 19.2393L70.2303 18.2976L71.0375 17.4903L71.9793 16.5485L72.7865 15.7413L73.7283 14.7995L74.5356 13.9922L76.2846 12.2432C76.5537 11.9741 76.5537 11.7051 76.2846 11.436C76.0155 11.436 75.7464 11.436 75.6119 11.436Z" fill="#BAB9B9"/>
<path d="M76.8227 13.4541C76.6882 13.4541 76.5536 13.4541 76.4191 13.5886L75.0737 14.934L74.2665 15.7413L73.3247 16.6831L72.5174 17.4903L71.5756 18.4321L70.7684 19.2393L69.8266 20.1811L69.0194 20.9884L67.8085 22.1992C67.5394 22.4683 67.5394 22.7374 67.8085 23.0065C67.943 23.141 68.0776 23.141 68.2121 23.141C68.3467 23.141 68.4812 23.141 68.6157 23.0065L69.8266 21.7956L70.6339 20.9884L71.5756 20.0466L72.3829 19.2393L73.3247 18.2976L74.1319 17.4903L75.0737 16.5485L75.8809 15.7413L77.2264 14.3959C77.4954 14.1268 77.4954 13.8577 77.2264 13.5886C77.2264 13.4541 76.9573 13.4541 76.8227 13.4541Z" fill="#BAB9B9"/>
<path d="M76.1501 17.6248C76.0155 17.6248 75.881 17.6248 75.7464 17.7594L75.2083 18.2976L74.401 19.1048L73.4592 20.0466L72.652 20.8538L71.7102 21.7956L70.903 22.6029L69.6921 23.8137C69.423 24.0828 69.423 24.3519 69.6921 24.621C69.8266 24.7555 69.9612 24.7555 70.0957 24.7555C70.2303 24.7555 70.3648 24.7555 70.4994 24.621L71.7102 23.4101L72.5175 22.6029L73.4592 21.6611L74.2665 20.8538L75.2083 19.912L76.0155 19.1048L76.5537 18.5666C76.8228 18.2976 76.8228 18.0285 76.5537 17.7594C76.4191 17.6248 76.2846 17.6248 76.1501 17.6248Z" fill="#BAB9B9"/>
<path d="M73.0556 10.2251C72.9211 10.2251 72.7865 10.2251 72.652 10.3597L71.5757 11.436L70.7684 12.2432L69.8266 13.185L69.0194 13.9923L68.3467 14.7995L67.5394 15.6067L66.8667 16.414C66.5976 16.6831 66.5976 16.9522 66.8667 17.2212C67.0013 17.3558 67.1358 17.3558 67.2703 17.3558C67.4049 17.3558 67.5394 17.3558 67.674 17.2212L68.3467 16.414L69.1539 15.6067L70.0957 14.665L70.903 13.8577L71.8447 12.9159L72.652 12.1087L73.7283 11.0324C73.9974 10.7633 73.9974 10.4942 73.7283 10.2251C73.4592 10.2251 73.1901 10.2251 73.0556 10.2251Z" fill="#BAB9B9"/>
<path d="M43.3221 27.9845C40.7658 30.5407 38.2096 29.599 36.5951 29.1953C32.4243 28.2535 29.5989 25.0246 29.5989 25.0246C24.89 20.3156 24.0828 14.6649 27.1772 11.5705C30.1371 8.6106 35.7878 9.2833 40.6313 13.9922C42.6494 16.0103 43.8603 18.2975 44.533 20.5847L44.8021 21.7956C44.8021 21.7956 45.8784 25.4282 43.3221 27.9845ZM60.5433 43.8603C56.9107 40.2277 58.2561 41.5731 52.4709 35.7878C48.9728 32.2898 47.0892 27.7154 47.0892 25.8318C47.0892 21.7956 45.8784 16.8176 41.8422 12.6468C36.1914 6.99611 29.4644 6.45794 25.6973 10.2251C21.9301 13.9922 22.6028 20.7193 28.119 26.37C32.1552 30.4062 36.9987 31.8861 41.0349 31.6171C43.3221 31.4825 47.2238 34.3079 50.5873 37.6714C56.1035 43.1876 55.1617 42.2458 58.6597 45.7438C59.6015 46.6856 61.4851 44.9366 60.5433 43.8603Z" fill="#FFCC02"/>
<path d="M41.1695 30.9444C43.8603 30.9444 48.0311 34.1733 51.1255 37.2678L59.1979 45.3402L59.467 45.4748C59.7361 45.4748 60.1397 45.2057 60.1397 44.9366C60.2743 44.8021 60.1397 44.6675 60.1397 44.6675L52.0673 36.5951C49.7801 34.3079 46.4166 29.1953 46.4166 26.1009C46.4166 23.2755 45.7439 17.8939 41.4386 13.4541C38.4787 10.4942 34.9806 8.87968 31.7516 8.87968C29.599 8.87968 27.7154 9.68692 26.2355 11.0323C22.6029 14.6649 23.5446 20.9883 28.6572 26.1009C31.8862 29.3299 36.0569 31.2134 40.2277 31.2134C40.4968 31.2134 40.7659 31.2134 40.9004 31.2134L41.1695 30.9444ZM59.3325 46.6856C58.9289 46.6856 58.3907 46.5511 58.1216 46.1475L50.0492 38.075C46.4166 34.4424 42.784 32.1552 41.0349 32.1552C40.7659 32.1552 40.4968 32.1552 40.2277 32.1552C35.6533 32.1552 31.0789 30.1371 27.5809 26.6391C24.7555 23.8137 23.0065 20.5847 22.6029 17.4903C22.1992 14.3958 23.0065 11.5705 25.1591 9.55238C26.9082 8.07243 29.1954 7.13065 31.7516 7.13065C35.3842 7.13065 39.1514 8.87968 42.3803 12.1087C47.0893 16.8176 47.762 22.7374 47.762 25.6973C47.762 27.3118 49.511 31.7516 52.8745 35.2497L60.947 43.3221C61.4851 43.8603 61.6197 44.533 61.3506 45.2057C61.0815 46.1475 60.1397 46.6856 59.3325 46.6856Z" fill="#343333"/>
<path d="M31.7516 10.0906C30.0026 10.0906 28.5227 10.6287 27.3118 11.8396C25.9664 13.185 25.2937 15.3377 25.6973 17.6248C26.1009 20.0466 27.5809 22.6029 29.7335 24.7555C29.7335 24.7555 32.6934 27.8499 36.5951 28.7917C36.7296 28.7917 36.8642 28.7917 36.9987 28.9263C37.6714 29.0608 38.4787 29.3299 39.2859 29.3299C40.6313 29.3299 41.8422 28.7917 42.9185 27.7154C45.2057 25.4282 44.2639 21.9301 44.2639 21.9301L43.9948 20.5847C43.1876 18.163 41.9767 16.0104 40.0932 14.2613C37.6714 11.5705 34.577 10.0906 31.7516 10.0906ZM39.4205 30.0026C38.4787 30.0026 37.5369 29.7335 36.8642 29.599C36.7296 29.599 36.5951 29.4644 36.4606 29.4644C32.2898 28.3881 29.3299 25.2937 29.1954 25.1591C27.0427 22.8719 25.5628 20.1811 25.0246 17.6248C24.621 15.0686 25.2937 12.7814 26.7736 11.3014C28.119 10.0906 29.8681 9.41786 31.7516 9.41786C34.7115 9.41786 37.9405 11.0324 40.7659 13.7232C42.6494 15.6067 43.9948 17.8939 44.8021 20.4502L45.0712 21.7956C45.0712 21.9302 46.1475 25.5627 43.4567 28.2536C42.3804 29.3299 41.0349 30.0026 39.4205 30.0026Z" fill="#FAAF3B"/>
<path d="M39.4204 32.2898C38.4786 32.2898 37.5368 32.1553 36.4605 31.8862H36.326C35.9223 31.7516 35.6533 31.348 35.7878 31.0789C35.9223 30.6753 36.326 30.4062 36.5951 30.5408H36.7296C39.824 31.348 42.2458 30.8098 43.9948 29.0608C46.8201 26.2355 45.8784 22.4683 45.7438 22.3338C45.6093 21.9302 45.8784 21.5265 46.282 21.392C46.6856 21.2575 47.0892 21.5265 47.2238 21.9302C47.2238 22.0647 48.4346 26.6391 45.0711 30.1371C43.9948 31.0789 42.2458 32.2898 39.4204 32.2898Z" fill="#343333"/>
<path d="M52.2018 40.4968L60.6779 48.9728C61.4851 49.7801 62.4269 49.3765 63.2342 48.4347C64.0414 47.6274 64.5796 46.6856 63.7723 45.8784L55.4308 37.6714C54.6236 36.8642 54.0854 37.5369 53.1436 38.3441C52.4709 39.1514 51.6637 40.0932 52.2018 40.4968Z" fill="#D8DF27"/>
<path d="M52.74 40.0932L61.0815 48.4347C61.3506 48.7038 61.4851 48.7038 61.4851 48.7038C61.6196 48.7038 62.0233 48.5692 62.5614 48.0311C63.6378 46.9547 63.2341 46.6857 63.0996 46.4166L54.8926 38.2096C54.7581 38.0751 54.6235 38.0751 54.6235 38.0751C54.489 38.0751 54.0854 38.4787 53.8163 38.7478L53.5472 39.0168C53.009 39.555 52.8745 39.9586 52.74 40.0932ZM61.6196 50.1837C61.0815 50.1837 60.5433 49.9146 60.1397 49.511L51.6636 41.035C50.5873 39.9586 52.2018 38.3441 52.74 37.9405L53.009 37.6714C53.5472 37.1333 54.0854 36.5951 54.7581 36.5951C55.1617 36.5951 55.5653 36.7296 55.9689 37.1333L64.1759 45.3403C64.8486 46.013 65.3868 47.2238 63.6378 48.9729C63.2341 49.511 62.5614 50.1837 61.6196 50.1837Z" fill="#343333"/>
<path d="M48.8383 33.9043C48.3001 33.3661 46.1475 29.7335 45.8784 27.7154C45.4748 28.5227 44.2639 30.1371 43.1876 30.4062C45.4748 31.0789 48.031 33.2316 48.8383 33.9043Z" fill="#E43E3E"/>
<path d="M44.533 30.4062C45.3402 30.8099 46.0129 31.2135 46.6856 31.6171C46.282 30.8099 45.8784 29.8681 45.6093 29.1954C45.3402 29.599 44.9366 30.0026 44.533 30.4062ZM48.8383 34.4425L48.4347 34.3079C47.762 33.6352 45.2057 31.6171 43.053 30.9444C42.784 30.9444 42.6494 30.6753 42.6494 30.4062C42.6494 30.1371 42.784 30.0026 43.053 29.8681C43.7257 29.7335 44.9366 28.2536 45.3402 27.4463C45.4748 27.1773 45.7438 27.1773 45.8784 27.1773C46.1475 27.1773 46.282 27.4463 46.282 27.7154C46.4166 29.4644 48.5692 32.9625 48.9728 33.5007C49.1074 33.7697 49.1074 34.0388 48.9728 34.3079C49.1074 34.4425 48.9728 34.4425 48.8383 34.4425Z" fill="#343333"/>
<path d="M29.0608 18.163C28.9262 18.163 28.7917 18.163 28.6571 18.2976C28.3881 18.5666 28.3881 18.8357 28.6571 19.1048L29.1953 19.643L30.0025 18.8357L29.4644 18.2976C29.3298 18.163 29.1953 18.163 29.0608 18.163ZM30.8098 19.5084L30.0025 20.3157L30.8098 21.1229L31.617 20.3157L30.8098 19.5084ZM32.4243 21.1229L31.617 21.9301L32.5588 22.8719L33.3661 22.0647L32.4243 21.1229ZM34.1733 22.8719L33.3661 23.6792L33.6351 23.9483C33.7697 24.0828 33.9042 24.0828 34.0388 24.0828C34.1733 24.0828 34.3078 24.0828 34.4424 23.9483C34.7115 23.6792 34.7115 23.4101 34.4424 23.141L34.1733 22.8719Z" fill="#BAB9B9"/>
<path d="M29.3299 14.7995C29.1954 14.7995 29.0608 14.7995 28.9263 14.934C28.6572 15.2031 28.6572 15.4722 28.9263 15.7413L29.1954 16.0104L30.0026 15.2031L29.7335 14.934C29.599 14.7995 29.4645 14.7995 29.3299 14.7995ZM30.6753 16.0104L29.8681 16.8176L30.9444 17.8939L31.7517 17.0867L30.6753 16.0104ZM32.5589 17.7594L31.7517 18.5666L32.5589 19.3739L33.3661 18.5666L32.5589 17.7594ZM34.1734 19.3739L33.3661 20.1811L34.3079 21.1229L35.1152 20.3157L34.1734 19.3739ZM35.9224 21.1229L35.1152 21.9301L36.326 23.141C36.4606 23.2756 36.5951 23.2755 36.7297 23.2755C36.8642 23.2755 36.9987 23.2756 37.1333 23.141C37.4024 22.8719 37.4024 22.6028 37.1333 22.3338L35.9224 21.1229Z" fill="#BAB9B9"/>
<path d="M30.4062 12.5123C30.2717 12.5123 30.1371 12.5123 30.0026 12.6468C29.7335 12.9159 29.7335 13.185 30.0026 13.4541L30.9444 14.3959L31.7516 13.5886L30.8098 12.6468C30.6753 12.5123 30.5408 12.5123 30.4062 12.5123ZM32.4243 14.2613L31.6171 15.0686L32.6934 16.1449L33.5007 15.3376L32.4243 14.2613ZM34.3079 16.1449L33.5007 16.9521L34.3079 17.7594L35.1151 16.9521L34.3079 16.1449ZM35.9224 17.7594L35.1151 18.5666L36.0569 19.5084L36.8642 18.7012L35.9224 17.7594ZM37.5369 19.5084L36.7296 20.1811L37.4023 20.8538C37.5369 20.9883 37.6714 20.9884 37.806 20.9884C37.9405 20.9884 38.075 20.9883 38.2096 20.8538C38.4787 20.5847 38.4787 20.3156 38.2096 20.0466L37.5369 19.5084Z" fill="#BAB9B9"/>
<path d="M31.8861 10.6287C31.6171 10.6287 31.4825 10.6287 31.4825 10.7632C31.2134 11.0323 31.2134 11.3014 31.4825 11.5705L32.5588 12.6468L33.3661 11.8396L32.1552 10.7632C32.1552 10.6287 32.0207 10.6287 31.8861 10.6287ZM34.0388 12.6468L33.2315 13.4541L34.3079 14.5304L35.1151 13.7231L34.0388 12.6468ZM35.9224 14.3958L35.1151 15.2031L35.9224 16.0103L36.7296 15.2031L35.9224 14.3958ZM37.5368 16.0103L36.7296 16.8176L36.8641 16.9521C36.9987 17.0867 37.1332 17.0867 37.2678 17.0867C37.4023 17.0867 37.5368 17.0867 37.6714 16.9521C37.9405 16.683 37.9405 16.414 37.6714 16.1449L37.5368 16.0103Z" fill="#BAB9B9"/>
<path d="M35.9224 13.185C35.7878 13.185 35.6533 13.185 35.5187 13.3195L35.2497 13.5886L34.4424 14.3958L33.5006 15.3376L32.6934 16.1449L31.7516 17.0867L30.9444 17.8939L30.0026 18.8357L29.1953 19.6429L27.9845 20.8538C27.7154 21.1229 27.7154 21.392 27.9845 21.661C28.119 21.7956 28.2535 21.7956 28.3881 21.7956C28.5226 21.7956 28.6572 21.7956 28.7917 21.661L30.0026 20.4502L30.8098 19.6429L31.7516 18.7012L32.5589 17.8939L33.5006 16.9521L34.3079 16.1449L35.2497 15.2031L36.0569 14.3958L36.326 14.1268C36.5951 13.8577 36.5951 13.5886 36.326 13.3195C36.1915 13.3195 36.0569 13.185 35.9224 13.185Z" fill="#BAB9B9"/>
<path d="M37.2678 15.0686C37.1333 15.0686 36.9987 15.0686 36.8642 15.2031L36.0569 16.0104L35.1151 16.9522L34.3079 17.7594L33.3661 18.7012L32.5589 19.5084L31.6171 20.4502L30.9444 21.1229L30.0026 22.0647C29.7335 22.3338 29.7335 22.6029 30.0026 22.872C30.1371 23.0065 30.2717 23.0065 30.4062 23.0065C30.5408 23.0065 30.6753 23.0065 30.8098 22.872L31.7516 21.9302L32.5589 21.1229L33.5007 20.1811L34.3079 19.3739L35.2497 18.4321L36.0569 17.6249L36.9987 16.6831L37.806 15.8758C38.075 15.6068 38.075 15.3377 37.806 15.0686C37.5369 15.2031 37.4023 15.0686 37.2678 15.0686Z" fill="#BAB9B9"/>
<path d="M37.5369 18.163C37.4024 18.163 37.2678 18.163 37.1333 18.2976L36.7296 18.7012L35.9224 19.5084L34.9806 20.4502L34.1734 21.2574L33.2316 22.1992L32.5589 22.8719L32.4243 23.0065C32.1553 23.2756 32.1553 23.5446 32.4243 23.8137C32.5589 23.9483 32.6934 23.9483 32.828 23.9483C32.9625 23.9483 33.097 23.9483 33.2316 23.8137L33.3661 23.6792L34.1734 22.8719L35.1152 21.9301L35.9224 21.1229L36.8642 20.1811L37.6714 19.3739L38.0751 18.9703C38.3441 18.7012 38.3441 18.4321 38.0751 18.163C37.806 18.163 37.6714 18.163 37.5369 18.163Z" fill="#BAB9B9"/>
<path d="M34.0388 11.3014C33.9042 11.3014 33.7697 11.3014 33.6352 11.436L33.3661 11.705L32.5588 12.5123L31.617 13.4541L30.8098 14.2613L29.868 15.2031L29.0608 16.0103L28.5226 16.5485C28.2535 16.8176 28.2535 17.0867 28.5226 17.3558C28.6572 17.4903 28.7917 17.4903 28.9262 17.4903C29.0608 17.4903 29.1953 17.4903 29.3299 17.3558L29.868 16.8176L30.6753 16.0103L31.617 15.0686L32.4243 14.2613L33.3661 13.3195L34.1733 12.5123L34.4424 12.2432C34.7115 11.9741 34.7115 11.705 34.4424 11.436C34.3079 11.436 34.1733 11.3014 34.0388 11.3014Z" fill="#BAB9B9"/>
<path d="M55.6999 8.207C54.3544 10.6287 51.26 11.5705 48.8383 10.2251C46.4165 8.87971 45.6093 5.78527 46.8202 3.36354C48.3001 0.941805 51.3946 1.93715e-05 53.8163 1.34543C56.238 2.69083 57.0453 5.78527 55.6999 8.207Z" fill="#D8DF27"/>
<path d="M51.3946 1.47996C49.7801 1.47996 48.4347 2.28721 47.6274 3.63262C46.5511 5.65073 47.2238 8.34154 49.2419 9.41787C49.9146 9.82149 50.5873 9.95603 51.26 9.95603C52.8745 9.95603 54.2199 9.14879 55.0272 7.80338C55.5653 6.86159 55.6999 5.65073 55.4308 4.5744C55.1617 3.49807 54.3545 2.55629 53.4127 2.01813C52.8745 1.6145 52.0673 1.47996 51.3946 1.47996ZM51.3946 11.436C50.4528 11.436 49.511 11.1669 48.5692 10.7633C45.7439 9.28333 44.8021 5.78527 46.282 2.95991C47.3584 1.07634 49.2419 1.52588e-05 51.3946 1.52588e-05C52.3364 1.52588e-05 53.2781 0.269097 54.2199 0.672719C55.5653 1.34542 56.5071 2.69083 56.9107 4.03624C57.3144 5.51619 57.1798 6.99613 56.3726 8.34154C55.4308 10.3597 53.4127 11.436 51.3946 11.436Z" fill="#343333"/>
<path d="M56.1035 4.17078C54.3545 5.65072 54.3545 3.49807 52.3364 2.95991C50.5873 2.55629 49.6455 4.30532 49.9146 5.51618C50.4528 7.39975 52.4709 6.45797 52.6054 8.8797C52.74 10.4942 50.5873 11.0324 50.0492 10.6287" fill="#D8DF27"/>
<path d="M50.5873 11.436C50.1837 11.436 49.9146 11.3014 49.6455 11.1669C49.3764 10.8978 49.2419 10.4942 49.511 10.2251C49.7801 9.95602 50.1837 9.82148 50.4528 10.0906C50.5873 10.0906 51.1255 10.0906 51.5291 9.82148C51.7982 9.5524 51.9327 9.28331 51.9327 9.01423C51.9327 8.07245 51.6636 7.93791 50.9909 7.66882C50.4528 7.39974 49.6455 6.99612 49.2419 5.78525C48.9728 4.84347 49.2419 3.76714 50.0491 2.9599C50.7218 2.28719 51.6636 2.01811 52.6054 2.28719C53.5472 2.55628 54.2199 3.09444 54.6235 3.6326C55.1617 4.03622 55.1617 4.03622 55.6999 3.6326C55.9689 3.36352 56.5071 3.36352 56.7762 3.6326C57.0453 3.90168 57.0453 4.43985 56.7762 4.70893C55.2962 6.05434 54.3544 5.24709 53.6817 4.57439C53.2781 4.17077 52.8745 3.76714 52.3363 3.6326C51.9327 3.49806 51.5291 3.6326 51.26 3.90168C50.8564 4.30531 50.7218 4.84347 50.8564 5.24709C50.9909 5.78525 51.26 5.91979 51.7982 6.18888C52.4709 6.5925 53.4127 6.99612 53.5472 8.74515C53.5472 9.68694 53.1436 10.4942 52.2018 11.0323C51.6636 11.1669 51.1255 11.436 50.5873 11.436Z" fill="#343333"/>
<path d="M18.0285 68.3467C18.2976 77.0919 4.30535 79.11 1.07637 79.7827C7.39979 75.7465 9.28336 71.5757 11.1669 66.5977C6.99617 67.2704 3.63265 65.925 0.941833 64.0414C10.7633 61.0815 15.2032 55.1617 16.8176 49.2419C18.0285 55.4308 18.0285 66.1941 18.0285 68.3467Z" fill="white"/>
<path d="M11.1669 65.6559C11.436 65.6559 11.705 65.7904 11.8396 65.925C12.1087 66.1941 12.1087 66.4631 11.9741 66.8668C10.3596 71.0375 8.74515 74.6701 4.84347 78.0336C9.95601 76.8228 17.3558 74.132 17.0867 68.3467C17.0867 65.2523 16.9521 58.2562 16.2794 52.8745C14.2613 57.0453 10.4942 61.6197 2.9599 64.445C4.57439 65.2523 6.45796 65.925 8.74515 65.925C9.41785 65.925 10.2251 65.7904 10.8978 65.6559H11.1669ZM1.07633 80.5899C0.672704 80.5899 0.403622 80.3208 0.269081 80.0518C0.134541 79.6481 0.269081 79.2445 0.672704 78.9754C6.05433 75.4774 8.07244 71.9793 9.82147 67.5395C9.55239 67.5395 9.14877 67.5395 8.87969 67.5395C5.24709 67.5395 2.55627 66.0595 0.403622 64.7141C0.134541 64.5796 0 64.3105 0 63.9069C0 63.5032 0.269081 63.2342 0.672704 63.2342C10.8978 60.1397 14.5304 53.8163 15.8758 49.1074C16.0103 48.7038 16.414 48.4347 16.8176 48.4347C17.2212 48.4347 17.6248 48.7038 17.6248 49.1074C18.8357 54.7581 18.9702 64.445 18.9702 68.3467C19.2393 77.3609 6.18887 79.7827 1.88357 80.5899C1.61449 80.5899 1.47995 80.7245 1.21087 80.7245L1.07633 80.5899Z" fill="#343333"/>
<path d="M13.8577 62.0233C13.9922 66.5977 18.163 64.9832 18.0284 68.6158V57.4489L14.6649 58.1216L13.8577 62.0233Z" fill="#D8D7D7"/>
<path d="M14.7995 62.1578C14.7995 63.9069 15.6067 64.445 16.683 64.9832C16.8176 65.1177 17.0867 65.2523 17.2212 65.2523V58.5252L15.4722 58.9289L14.7995 62.1578ZM18.163 69.5576C17.6248 69.5576 17.2212 69.1539 17.2212 68.6158V68.3467C17.2212 67.4049 16.8176 67.1358 15.7412 66.4631C14.5304 65.7904 13.0504 64.8486 12.9159 62.0233V61.7542L13.7231 57.8525C13.8577 57.4489 14.1268 57.1798 14.3958 57.1798L17.7594 56.5071C18.0284 56.5071 18.2975 56.5071 18.5666 56.6417C18.8357 56.7762 18.8357 57.0453 18.8357 57.3144V68.2122V68.4812C18.9702 69.154 18.5666 69.5576 18.163 69.5576Z" fill="#343333"/>
<path d="M85.9715 68.4812C85.7025 77.2264 99.6947 79.2445 102.924 79.9172C96.6003 75.881 94.7167 71.7102 92.8331 66.7322C97.0039 67.5394 100.367 66.0595 103.058 64.3105C93.2367 61.3506 88.7969 55.4308 87.1824 49.511C85.9715 55.5653 85.9715 66.4631 85.9715 68.4812Z" fill="white"/>
<path d="M87.586 53.0091C86.9133 58.3907 86.7788 65.3868 86.7788 68.4813C86.6442 74.4011 94.044 77.0919 99.022 78.3027C95.1203 74.9392 93.5058 71.3066 91.8913 67.1359C91.7568 66.8668 91.8913 66.4632 92.0259 66.1941C92.2949 65.925 92.564 65.7904 92.8331 65.925C93.5058 66.0595 94.313 66.1941 94.9857 66.1941C97.2729 66.1941 99.1565 65.5214 100.771 64.7141C93.3713 61.7542 89.6041 57.1798 87.586 53.0091ZM102.924 80.859H102.789C102.655 80.859 102.385 80.7245 102.116 80.7245C97.8111 79.9172 84.7607 77.4955 85.0297 68.4813C85.0297 64.5796 85.1643 55.0272 86.3751 49.3765C86.5097 48.9729 86.7788 48.7038 87.1824 48.7038C87.586 48.7038 87.9896 48.9729 88.1242 49.3765C89.4696 54.0854 93.2367 60.5434 103.327 63.5033C103.731 63.6378 103.865 63.9069 104 64.176C104 64.5796 103.865 64.8487 103.596 65.1177C101.578 66.4632 98.7529 67.9431 95.1203 67.9431C94.8512 67.9431 94.4476 67.9431 94.1785 67.9431C95.9275 72.3829 97.9456 75.881 103.327 79.3791C103.731 79.6481 103.865 80.0518 103.731 80.4554C103.596 80.5899 103.327 80.859 102.924 80.859Z" fill="#343333"/>
<path d="M90.1423 62.2924C90.0078 66.8668 85.837 65.3868 85.9716 68.8849L86.2406 56.5071L88.6624 57.9871L90.1423 62.2924Z" fill="#D8D7D7"/>
<path d="M87.0479 58.1216L86.9134 65.5214C87.0479 65.3868 87.1824 65.3868 87.317 65.2523C88.3933 64.5796 89.2006 64.176 89.2006 62.4269L87.8551 58.6598L87.0479 58.1216ZM85.9716 69.8267C85.4334 69.8267 85.0298 69.423 85.0298 69.0194C85.0298 68.7503 85.0298 68.6158 85.0298 68.4813L85.2989 56.5071C85.2989 56.2381 85.4334 55.8344 85.837 55.6999C86.1061 55.5653 86.5097 55.5653 86.7788 55.6999L89.2006 57.1798C89.3351 57.3144 89.4696 57.4489 89.6042 57.5835L91.0841 61.8888C91.0841 62.0233 91.0841 62.2924 91.0841 62.4269C90.9496 65.1177 89.4696 65.925 88.2588 66.5977C87.4515 67.1358 86.9134 67.4049 86.7788 68.2122V68.7503C86.7788 69.423 86.3752 69.8267 85.9716 69.8267Z" fill="#343333"/>
<path d="M88.6624 41.1695C83.2807 42.3803 72.1138 46.282 51.9327 46.282C31.7516 46.282 20.7193 42.3803 15.2031 41.1695C13.5886 40.7658 12.2432 42.2458 12.5123 43.7257C13.7232 49.7801 13.9922 59.467 13.7232 62.2924C15.8758 57.0453 27.0427 64.5795 51.7982 64.5795C76.5537 64.5795 87.7206 57.0453 89.8732 62.2924C89.4696 59.467 89.8732 49.7801 91.0841 43.7257C91.6223 42.2458 90.2769 40.9004 88.6624 41.1695Z" fill="white"/>
<path d="M17.3558 59.6016C19.2393 59.6016 21.9302 60.1397 25.1591 60.8124C31.4826 62.0233 39.9586 63.7723 51.9327 63.7723C63.9069 63.7723 72.5175 62.0233 78.7064 60.8124C81.9353 60.1397 84.6262 59.6016 86.5097 59.6016C87.317 59.6016 88.1242 59.7361 89.066 60.0052C89.066 55.8344 89.4696 48.5692 90.4114 43.5912C90.5459 43.1876 90.4114 42.784 90.1423 42.5149C89.8732 42.1113 89.3351 41.9767 88.7969 42.1113C87.8551 42.2458 86.9133 42.6494 85.7025 42.9185C79.3791 44.533 68.8849 47.2238 51.9327 47.2238C34.9806 47.2238 24.4864 44.533 18.163 42.9185C16.9522 42.6494 15.8758 42.3804 15.0686 42.1113C14.5304 41.9767 14.1268 42.2458 13.7232 42.5149C13.4541 42.784 13.3196 43.1876 13.4541 43.5912C14.3959 48.5692 14.7995 55.8344 14.7995 60.0052C15.7413 59.6016 16.6831 59.6016 17.3558 59.6016ZM52.0673 65.5214C39.9586 65.5214 30.9444 63.7723 24.8901 62.5615C21.6611 61.8888 19.2393 61.4851 17.4903 61.4851C15.7413 61.4851 15.0686 62.0233 14.7995 62.8305C14.665 63.2342 14.1268 63.5032 13.7232 63.3687C13.3196 63.2342 13.0505 62.8305 13.0505 62.4269C13.4541 59.6016 13.0505 50.0492 11.8396 44.1294C11.7051 43.1876 11.8396 42.2458 12.5123 41.5731C13.185 40.6313 14.3959 40.2277 15.6067 40.4968C16.5485 40.7659 17.6249 41.0349 18.8357 41.304C25.0246 42.9185 35.3842 45.6093 52.0673 45.6093C68.7503 45.6093 79.11 42.9185 85.2989 41.304C86.5097 41.0349 87.5861 40.7659 88.5278 40.4968C89.6042 40.2277 90.815 40.6313 91.6223 41.5731C92.1604 42.2458 92.4295 43.1876 92.295 44.1294C91.2186 50.0492 90.815 59.467 91.0841 62.4269C91.0841 62.8305 90.815 63.2342 90.4114 63.3687C90.0078 63.5032 89.4696 63.2342 89.3351 62.8305C89.066 62.0233 88.3933 61.4851 86.6443 61.4851C84.8952 61.4851 82.339 62.0233 79.2445 62.5615C73.1902 63.7723 64.176 65.5214 52.0673 65.5214Z" fill="#343333"/>
<path d="M22.7374 52.0673C22.8719 51.5291 23.0065 51.1255 23.4101 50.8564C23.6792 50.5873 23.9483 50.4528 24.3519 50.4528L23.6792 54.0854C23.2755 53.9508 23.0065 53.6818 22.8719 53.4127C22.7374 53.0091 22.6028 52.4709 22.7374 52.0673ZM27.3118 52.2018C27.3118 52.4709 27.3118 52.6054 27.3118 52.8745C27.3118 53.1436 27.1772 53.4127 27.0427 53.5472C26.9081 53.6818 26.7736 53.9508 26.6391 54.0854C26.5045 54.2199 26.37 54.3545 26.1009 54.3545C25.9664 54.3545 25.8318 54.489 25.6973 54.489L26.37 50.8564C26.5045 50.8564 26.6391 50.991 26.7736 51.1255C26.9081 51.26 27.0427 51.3946 27.0427 51.6637C27.3118 51.7982 27.3118 52.0673 27.3118 52.2018ZM28.9263 50.8564C28.6572 50.4528 28.3881 50.1837 27.9845 49.9146C27.5808 49.6455 27.1772 49.511 26.6391 49.3765L26.7736 48.9728L26.6391 48.8383L24.89 48.4347H24.7555L24.621 48.8383C24.0828 48.8383 23.6792 48.8383 23.2755 48.8383C22.8719 48.9728 22.4683 49.1074 22.0647 49.3765C21.6611 49.6455 21.392 49.9146 21.1229 50.3182C20.8538 50.7219 20.7193 51.1255 20.5847 51.5291C20.4502 52.0673 20.4502 52.4709 20.5847 53.0091C20.7193 53.4127 20.8538 53.8163 20.9884 54.2199C21.2574 54.6236 21.5265 54.8926 21.9301 55.1617C22.3338 55.4308 22.7374 55.5653 23.2755 55.6999L23.141 56.238V56.3726L25.0246 56.7762L25.1591 56.6417L25.2937 56.1035C25.8318 56.1035 26.2354 56.1035 26.6391 56.1035C27.0427 55.969 27.4463 55.8344 27.8499 55.5653C28.2536 55.2963 28.5226 55.0272 28.7917 54.6235C29.0608 54.2199 29.1953 53.8163 29.3299 53.2781C29.4644 52.8745 29.4644 52.3364 29.3299 51.9327C29.3299 51.5291 29.1953 51.1255 28.9263 50.8564Z" fill="#1072B9"/>
<path d="M35.3842 53.2782C35.3842 53.5472 35.3842 53.9509 35.3842 54.2199C35.3842 54.6236 35.2497 54.8926 35.1152 55.2963C34.9806 55.5653 34.9806 55.8344 34.7115 56.1035C34.577 56.2381 34.4424 56.5071 34.3079 56.5071C34.0388 56.5071 33.9043 56.6417 33.6352 56.5071C33.3661 56.5071 33.2316 56.3726 32.9625 56.238C32.828 56.1035 32.6934 55.969 32.5589 55.6999C32.4243 55.4308 32.4243 55.1617 32.4243 54.8926C32.4243 54.6236 32.4243 54.2199 32.4243 53.8163C32.4243 53.4127 32.5589 53.1436 32.5589 52.8745C32.6934 52.6054 32.6934 52.3364 32.828 52.0673C32.9625 51.7982 33.097 51.6637 33.3661 51.5291C33.5007 51.3946 33.6352 51.3946 33.9043 51.3946H34.0388C34.3079 51.3946 34.4424 51.5291 34.7115 51.6637C34.8461 51.7982 34.9806 52.0673 34.9806 52.2018C35.3842 52.6054 35.3842 53.0091 35.3842 53.2782ZM37.1333 51.3946C36.8642 50.991 36.5951 50.5873 36.1915 50.3183C35.7879 50.0492 35.2497 49.9146 34.7115 49.7801C34.0388 49.6456 33.5007 49.7801 33.097 49.9146C32.5589 50.0492 32.1553 50.3183 31.8862 50.7219C31.4826 51.1255 31.2135 51.5291 31.0789 51.9327C30.8098 52.4709 30.6753 53.0091 30.6753 53.5472C30.5408 54.0854 30.5408 54.7581 30.6753 55.2963C30.8098 55.8344 30.9444 56.3726 31.2135 56.7762C31.4826 57.1798 31.7516 57.5835 32.2898 57.8525C32.6934 58.1216 33.2316 58.2562 33.7697 58.3907C33.9043 58.3907 34.1734 58.3907 34.3079 58.3907C34.7115 58.3907 34.9806 58.3907 35.3842 58.2562C35.9224 58.1216 36.326 57.8525 36.5951 57.4489C36.9987 57.1798 37.2678 56.6417 37.4023 56.238C37.6714 55.6999 37.806 55.1617 37.806 54.6236C37.9405 54.0854 37.9405 53.5472 37.806 53.0091C37.5369 52.3364 37.2678 51.7982 37.1333 51.3946Z" fill="#1072B9"/>
<path d="M41.8422 52.3364H42.3803C42.6494 52.3364 42.9185 52.4709 43.053 52.6054C43.1876 52.74 43.1876 53.0091 43.1876 53.4127C43.1876 53.8163 43.053 53.9509 42.9185 54.2199C42.7839 54.3545 42.6494 54.489 42.3803 54.489H42.2458H41.7076L41.8422 52.3364ZM44.8021 51.7982C44.6675 51.5291 44.3984 51.3946 43.9948 51.1255C43.7257 50.991 43.3221 50.8564 42.7839 50.8564L39.1513 50.5873L39.0168 52.0673L39.1513 52.2018H39.824L39.4204 57.1798H38.7477L38.6132 57.3144L38.4786 58.6598L38.6132 58.7943L42.2458 59.0634L42.3803 57.718L42.2458 57.5835H41.4385L41.5731 56.238L42.6494 56.3726C43.053 56.3726 43.4566 56.3726 43.7257 56.238C43.9948 56.1035 44.2639 55.969 44.533 55.6999C44.8021 55.4308 44.9366 55.1617 45.0711 54.8926C45.2057 54.6236 45.2057 54.2199 45.3402 53.9509C45.3402 53.5472 45.3402 53.2781 45.2057 52.8745C45.2057 52.3364 45.0711 51.9327 44.8021 51.7982Z" fill="#1072B9"/>
<path d="M56.3726 51.1255H53.1436H53.0091C52.8745 51.3946 52.8745 51.6636 52.74 51.9327C52.6054 52.2018 52.4709 52.6054 52.3364 52.8745C52.2018 53.1436 52.0673 53.5472 51.9327 53.8163C51.7982 54.0854 51.6637 54.3545 51.6637 54.6235V55.1617L51.5291 55.4308C51.3946 55.1617 51.3946 55.0272 51.26 54.7581C50.9909 54.2199 50.8564 53.5472 50.5873 53.0091C50.3182 52.4709 50.1837 51.7982 49.9146 51.26H49.7801H46.5511L46.4166 51.3946V52.8745H47.0893V57.8525H46.4166V59.3325L46.5511 59.467H49.7801V58.1216V57.718H49.2419V54.3545L49.3765 54.6235C49.6455 55.1617 49.7801 55.6999 50.0492 56.238C50.3182 56.7762 50.4528 57.3144 50.7219 57.8525H50.8564H52.4709H52.6054C52.74 57.718 52.74 57.4489 52.8745 57.1798C53.0091 56.9107 53.0091 56.6417 53.1436 56.3726C53.2781 56.1035 53.2781 55.8344 53.4127 55.5653L53.6818 54.8926C53.6818 54.7581 53.8163 54.6235 53.8163 54.489V57.8525H53.2781V59.3325L53.4127 59.467H56.5071V59.1979V57.718H55.969V52.74H56.5071L56.6417 52.6054L56.3726 51.1255Z" fill="#1072B9"/>
<path d="M64.7141 50.5873L61.7542 50.8564L61.8887 52.3364L62.0233 52.4709H62.4269L61.8887 53.9509L61.6196 55.1617L61.0815 53.9509L60.2742 52.4709H60.6778L60.8124 52.3364L60.6778 50.8564L57.718 51.1255V51.26L57.8525 52.6054L57.987 52.74H58.3907L60.6778 56.9107H60.8124H61.216L61.0815 57.1798C61.0815 57.3144 60.9469 57.4489 60.9469 57.4489L60.6778 57.5835H60.4088H60.2742C60.1397 57.5835 60.0051 57.5835 59.7361 57.5835H59.6015L59.1979 58.9289L59.3324 59.0634C59.6015 59.1979 60.0051 59.1979 60.2742 59.1979C60.4088 59.1979 60.5433 59.1979 60.6778 59.1979H60.9469C61.3506 59.1979 61.7542 59.0634 62.0233 58.7943C62.2923 58.5252 62.5614 58.1216 62.696 57.5835L64.445 52.0673H64.8486V51.9327L64.7141 50.5873Z" fill="#1072B9"/>
<path d="M73.8629 55.9689L73.1902 56.1035L72.5175 51.1255L73.1902 50.9909L73.0556 49.6455L72.9211 49.511L66.1941 50.4528L66.0595 50.5873L66.1941 51.9327H66.3286L67.1358 51.7982L67.2704 52.74C67.4049 53.4127 67.4049 53.9508 67.4049 54.489C67.4049 54.8926 67.4049 55.2962 67.2704 55.6999C67.1358 55.9689 67.0013 56.3726 66.8668 56.5071C66.7322 56.7762 66.4631 57.0453 66.0595 57.1798V57.3143L66.7322 58.7943H66.8668C67.5395 58.5252 68.0776 58.2561 68.3467 57.718C68.7503 57.3144 68.8849 56.7762 69.0194 56.238C69.1539 55.6999 69.154 55.0272 69.154 54.3545C69.154 53.6818 69.0194 52.8745 68.8849 52.0673L68.7503 51.5291L69.9612 51.3946L70.6339 56.3726L70.4994 56.5071V56.6416L70.6339 57.9871L70.7684 58.1216L74.132 57.718L73.8629 55.9689Z" fill="#1072B9"/>
<path d="M78.8409 51.5291C78.9755 51.9327 79.2445 52.3363 79.3791 52.74L78.1682 53.0091C78.1682 52.8745 78.1682 52.6054 78.1682 52.3363C78.1682 52.0673 78.1682 51.7982 78.1682 51.5291C78.1682 51.26 78.1682 50.9909 78.1682 50.8564V50.5873C78.5718 50.8564 78.7064 51.26 78.8409 51.5291ZM83.1462 54.2199H82.6081L79.2445 48.3001H79.11L76.6883 48.8383L76.0156 55.6999L75.6119 55.8344V55.9689L75.881 57.3144L78.8409 56.6416L78.9755 56.5071L78.7064 55.1617L78.5718 55.0272L78.0337 55.1617V54.489L80.1863 54.0854L80.4554 54.6235L80.0518 54.7581L79.9172 54.8926L80.1863 56.238L83.2808 55.5653L83.4153 55.4308L83.1462 54.2199Z" fill="#1072B9"/>
</svg>
