<?xml version="1.0" encoding="iso-8859-1"?>
<!-- Generator: Adobe Illustrator 22.0.1, SVG Export Plug-In . SVG Version: 6.00 Build 0)  -->
<svg version="1.1" id="&#x421;&#x43B;&#x43E;&#x439;_1"
	 xmlns="http://www.w3.org/2000/svg" xmlns:xlink="http://www.w3.org/1999/xlink" x="0px" y="0px" viewBox="0 0 33.384 43.207"
	 style="enable-background:new 0 0 33.384 43.207;fill: #5f6061;" xml:space="preserve">
<g>
	<path d="M0,43.207V0h14.838c5.36,0,9.545,0.994,12.551,2.982c3.008,1.989,4.51,4.951,4.51,8.888c0,2.057-0.484,3.887-1.454,5.49
		c-0.969,1.604-2.462,2.81-4.481,3.62c2.533,0.573,4.402,1.726,5.609,3.458c1.206,1.731,1.81,3.724,1.81,5.979
		c0,4.214-1.414,7.399-4.243,9.556c-2.83,2.156-6.884,3.234-12.168,3.234H0z M10.06,18.013h4.985c2.275-0.04,3.977-0.48,5.105-1.321
		c1.128-0.841,1.692-2.073,1.692-3.694c0-1.841-0.574-3.181-1.721-4.022c-1.148-0.84-2.909-1.261-5.282-1.261H10.06V18.013z
		 M10.06,24.66v10.831h6.913c2.138,0,3.74-0.421,4.808-1.262c1.068-0.841,1.603-2.131,1.603-3.872c0-1.88-0.459-3.3-1.381-4.259
		c-0.919-0.958-2.408-1.439-4.465-1.439H10.06z M10.06,24.66"/>
</g>
</svg>
