<?xml version="1.0" encoding="iso-8859-1"?>
<!-- Generator: Adobe Illustrator 22.0.1, SVG Export Plug-In . SVG Version: 6.00 Build 0)  -->
<svg version="1.1" id="&#x421;&#x43B;&#x43E;&#x439;_1"
	 xmlns="http://www.w3.org/2000/svg" xmlns:xlink="http://www.w3.org/1999/xlink" x="0px" y="0px" viewBox="0 0 46.871 61.1"
	 style="enable-background:new 0 0 46.871 61.1;" xml:space="preserve">
<g>
	<path style="fill:#A5E094;" d="M18.246,5.503c-0.275,0-0.547-0.123-0.729-0.357c-0.312-0.402-0.239-0.981,0.162-1.293l1.624-1.262
		c0.402-0.313,0.982-0.239,1.294,0.162c0.312,0.403,0.24,0.982-0.163,1.294L18.812,5.31C18.643,5.44,18.444,5.503,18.246,5.503
		L18.246,5.503z M18.246,5.503"/>
	<path style="fill:#A5E094;" d="M3.325,7.279c-0.13,0-0.264-0.028-0.389-0.087L1.23,6.396C0.769,6.181,0.569,5.632,0.784,5.17
		C0.999,4.709,1.548,4.51,2.01,4.725l1.705,0.796c0.462,0.215,0.661,0.764,0.446,1.226C4.005,7.081,3.672,7.279,3.325,7.279
		L3.325,7.279z M3.325,7.279"/>
	<path style="fill:#A5E094;" d="M2.744,9.494H1.028c-0.509,0-0.922-0.413-0.922-0.922c0-0.509,0.413-0.922,0.922-0.922h1.716
		c0.509,0,0.922,0.413,0.922,0.922C3.666,9.081,3.253,9.494,2.744,9.494L2.744,9.494z M2.744,9.494"/>
	<path style="fill:#A5E094;" d="M2.572,17.032c-0.298,0-0.59-0.145-0.768-0.412c-0.282-0.424-0.167-0.996,0.256-1.278l1.458-0.971
		c0.424-0.282,0.996-0.168,1.279,0.257c0.282,0.424,0.167,0.996-0.257,1.278l-1.458,0.971C2.925,16.981,2.747,17.032,2.572,17.032
		L2.572,17.032z M2.572,17.032"/>
	<path style="fill:#A5E094;" d="M21.951,15.145c-0.432,0-0.819-0.306-0.904-0.746c-0.097-0.5,0.229-0.984,0.729-1.081l1.334-0.26
		c0.5-0.097,0.984,0.229,1.082,0.729c0.097,0.5-0.229,0.984-0.729,1.082l-1.335,0.26C22.068,15.139,22.01,15.145,21.951,15.145
		L21.951,15.145z M21.951,15.145"/>
	<path style="fill:#A5E094;" d="M32.309,10.157c-0.391,0-0.752-0.249-0.878-0.64L30.81,7.583c-0.156-0.485,0.111-1.004,0.596-1.16
		c0.485-0.156,1.004,0.112,1.16,0.596l0.621,1.934c0.156,0.485-0.111,1.004-0.596,1.16C32.497,10.143,32.402,10.157,32.309,10.157
		L32.309,10.157z M32.309,10.157"/>
	<path style="fill:#A5E094;" d="M29.987,12.723c-0.163,0-0.329-0.043-0.479-0.135l-1.725-1.053
		c-0.435-0.265-0.573-0.833-0.307-1.268c0.265-0.434,0.832-0.572,1.268-0.307l1.725,1.053c0.435,0.265,0.573,0.833,0.307,1.268
		C30.602,12.565,30.298,12.723,29.987,12.723L29.987,12.723z M29.987,12.723"/>
	<path style="fill:#A5E094;" d="M41.507,27.441c-0.263,0-0.525-0.113-0.707-0.33l-1.006-1.199c-0.327-0.39-0.276-0.971,0.114-1.299
		c0.39-0.327,0.972-0.276,1.299,0.114l1.006,1.2c0.327,0.391,0.276,0.972-0.114,1.299C41.926,27.37,41.716,27.441,41.507,27.441
		L41.507,27.441z M41.507,27.441"/>
	<path style="fill:#A5E094;" d="M43.428,24.623c-0.058,0-0.117-0.006-0.176-0.017l-1.871-0.363c-0.5-0.096-0.827-0.58-0.73-1.08
		c0.097-0.5,0.581-0.827,1.08-0.73l1.871,0.363c0.5,0.097,0.827,0.581,0.73,1.081C44.248,24.316,43.861,24.623,43.428,24.623
		L43.428,24.623z M43.428,24.623"/>
	<path style="fill:#A5E094;" d="M41.537,8.829c-0.178,0-0.357-0.051-0.515-0.158c-0.422-0.284-0.534-0.858-0.249-1.28l1.112-1.65
		c0.285-0.422,0.858-0.534,1.28-0.249c0.422,0.285,0.534,0.857,0.249,1.28l-1.112,1.649C42.124,8.686,41.833,8.829,41.537,8.829
		L41.537,8.829z M41.537,8.829"/>
	<g>
		<defs>
			<rect id="SVGID_1_" width="46.871" height="61.1"/>
		</defs>
		<clipPath id="SVGID_2_">
			<use xlink:href="#SVGID_1_"  style="overflow:visible;"/>
		</clipPath>
		<path style="clip-path:url(#SVGID_2_);fill:#A5E094;" d="M43.06,10.252c-0.227,0-0.454-0.084-0.633-0.252
			c-0.37-0.349-0.387-0.933-0.038-1.303l1.348-1.428c0.349-0.371,0.933-0.388,1.303-0.038c0.37,0.349,0.388,0.933,0.038,1.303
			l-1.348,1.428C43.55,10.155,43.305,10.252,43.06,10.252L43.06,10.252z M43.06,10.252"/>
		<path style="clip-path:url(#SVGID_2_);fill:#A5E094;" d="M44.187,12.089c-0.391,0-0.752-0.25-0.879-0.641
			c-0.155-0.485,0.112-1.004,0.597-1.159l1.753-0.562c0.485-0.155,1.004,0.112,1.159,0.597c0.155,0.485-0.112,1.004-0.597,1.159
			l-1.752,0.562C44.374,12.075,44.28,12.089,44.187,12.089L44.187,12.089z M44.187,12.089"/>
	</g>
	<path style="fill:#A5E094;" d="M9.933,36.92c-0.383,0-0.741-0.24-0.872-0.623c-0.165-0.482,0.092-1.006,0.574-1.171l2.167-0.743
		c0.482-0.165,1.007,0.092,1.171,0.574c0.165,0.482-0.092,1.006-0.574,1.171l-2.168,0.743C10.133,36.904,10.032,36.92,9.933,36.92
		L9.933,36.92z M9.933,36.92"/>
	<path style="fill:#A5E094;" d="M11.785,31.482c-0.085,0-0.172-0.012-0.257-0.037l-1.779-0.517
		c-0.489-0.141-0.771-0.653-0.628-1.142c0.142-0.489,0.654-0.77,1.142-0.628l1.779,0.517c0.489,0.142,0.771,0.653,0.629,1.142
		C12.553,31.22,12.185,31.482,11.785,31.482L11.785,31.482z M11.785,31.482"/>
	<path style="fill:#A5E094;" d="M38.215,35.397h-2.122c-0.509,0-0.922-0.413-0.922-0.922s0.413-0.922,0.922-0.922h2.122
		c0.51,0,0.922,0.413,0.922,0.922C39.137,34.983,38.724,35.397,38.215,35.397L38.215,35.397z M38.215,35.397"/>
	<path style="fill:#80C56E;" d="M44.21,19.536c-3.099,7.254-9.924,11.545-13.174,10.334c-3.087-1.151-4.773-7.254-1.932-15.998
		c1.839-5.66,6.971-8.34,11.078-6.809C44.289,8.594,46.57,14.013,44.21,19.536L44.21,19.536z M44.21,19.536"/>
	<g>
		<defs>
			<rect id="SVGID_3_" width="46.871" height="61.1"/>
		</defs>
		<clipPath id="SVGID_4_">
			<use xlink:href="#SVGID_3_"  style="overflow:visible;"/>
		</clipPath>
		<path style="clip-path:url(#SVGID_4_);fill:#70B25D;" d="M40.182,7.062c-0.644-0.24-1.313-0.376-1.99-0.414
			c1.748,2.469,2.257,6.128,0.673,9.837c-1.21,2.833-2.989,5.213-4.901,6.991c1.127,1.56,1.899,3.393,2.195,5.381
			c2.972-1.666,6.186-4.957,8.051-9.322C46.57,14.013,44.289,8.594,40.182,7.062L40.182,7.062z M40.182,7.062"/>
		<path style="clip-path:url(#SVGID_4_);fill:#80C56E;" d="M20.64,8.863c3.315,9.492,0.895,19.259-0.535,20.197
			c-0.721,0.472-13.612-5.536-16.841-15.304C1.175,7.432,4.03,1.617,8.748,0.279C13.466-1.06,18.425,2.518,20.64,8.863L20.64,8.863z
			 M20.64,8.863"/>
		<path style="clip-path:url(#SVGID_4_);fill:#70B25D;" d="M16.504,20.859c1.655-1.255,3.638-2.103,5.796-2.392
			c-0.05-2.98-0.509-6.308-1.66-9.603C18.425,2.518,13.466-1.06,8.748,0.279C7.651,0.59,6.656,1.143,5.8,1.888
			c3.75,0.441,7.27,3.743,9.04,8.812C16.063,14.202,16.505,17.74,16.504,20.859L16.504,20.859z M16.504,20.859"/>
	</g>
	<path style="fill:#80C56E;" d="M31.989,49.119c2.492-5.223,4.306-12.105,4.306-18.422c0-6.815-5.525-12.341-12.341-12.341
		s-12.341,5.525-12.341,12.341c0,6.812,1.756,13.446,4.149,18.422H31.989z M31.989,49.119"/>
	<path style="fill:#70B25D;" d="M23.955,18.355c-1.048,0-2.064,0.131-3.035,0.377c5.348,1.353,9.305,6.196,9.305,11.964
		c0,6.317-1.813,13.2-4.306,18.422h6.07c2.492-5.223,4.306-12.105,4.306-18.422C36.296,23.881,30.77,18.355,23.955,18.355
		L23.955,18.355z M23.955,18.355"/>
	<path style="fill:#80C56E;" d="M27.507,45.304c0.131-0.289,0.262-0.589,0.392-0.907c1.552-3.793,2.339-8.159,2.339-12.976
		c0-0.208-0.006-0.423-0.014-0.641C30.212,35.629,29.136,40.804,27.507,45.304L27.507,45.304z M27.507,45.304"/>
	<path style="fill:#FA9A39;" d="M31.745,61.1H16.165c-0.799,0-1.494-0.549-1.678-1.326l-3.971-16.695h26.879l-3.971,16.695
		C33.238,60.551,32.544,61.1,31.745,61.1L31.745,61.1z M31.745,61.1"/>
	<path style="fill:#ED8A2F;" d="M31.283,43.079l-3.971,16.695c-0.185,0.777-0.88,1.326-1.679,1.326h6.112
		c0.799,0,1.493-0.549,1.678-1.326l3.971-16.695H31.283z M31.283,43.079"/>
	<path style="fill:#C35F58;" d="M38.763,44.167H9.147c-0.615,0-1.113-0.498-1.113-1.113v-1.406c0-0.615,0.498-1.113,1.113-1.113
		h29.616c0.614,0,1.113,0.498,1.113,1.113v1.406C39.876,43.668,39.377,44.167,38.763,44.167L38.763,44.167z M38.763,44.167"/>
	<path style="fill:#AF4B48;" d="M38.763,40.535h-4.982v3.632h4.982c0.614,0,1.113-0.498,1.113-1.113v-1.406
		C39.876,41.033,39.377,40.535,38.763,40.535L38.763,40.535z M38.763,40.535"/>
	<path style="fill:#A5E094;" d="M15.012,22.193c0.603-0.634,1.272-1.203,1.997-1.698c-0.226,0.113-0.452,0.236-0.69,0.394
		c-2.659-2.453-5.033-5.761-6.734-9.397C7.992,8.09,7.2,4.757,7.515,2.793c0.121-0.752,0.383-1.217,0.777-1.381
		C8.345,1.39,8.405,1.38,8.472,1.38c0.232,0,0.551,0.125,0.909,0.361c3.061,2.018,7.767,10.933,8.105,18.444
		c0.567-0.35,1.165-0.655,1.788-0.911C18.628,11.691,14.024,2.592,10.397,0.2c-0.096-0.063-0.19-0.12-0.282-0.173
		C9.658,0.067,9.202,0.15,8.748,0.279C7.667,0.586,6.684,1.128,5.836,1.857C5.779,2.055,5.731,2.268,5.694,2.501
		c-0.376,2.344,0.453,5.998,2.219,9.773C9.7,16.097,12.203,19.585,15.012,22.193L15.012,22.193z M15.012,22.193"/>
	<path style="fill:#A5E094;" d="M20.743,40.535c-0.708-2.493-1.226-5.538-1.226-9.113c0-2.625,0.579-5.794,1.511-8.272
		c0.885-2.352,2.033-3.872,2.927-3.872c0.659,0,1.821,1.071,2.923,4.089c0.92,2.516,1.514,5.677,1.514,8.055
		c0,3.646-0.476,6.669-1.136,9.113h1.908c0.713-2.807,1.074-5.856,1.074-9.113c0-2.576-0.638-5.986-1.626-8.688
		c-0.535-1.463-1.305-3.095-2.328-4.157c-0.754-0.144-1.533-0.22-2.329-0.22c-0.816,0-1.613,0.08-2.384,0.231
		c-2.436,2.475-3.899,8.426-3.899,12.835c0,3.522,0.483,6.566,1.163,9.113H20.743z M20.743,40.535"/>
	<path style="fill:#A5E094;" d="M32.408,14.384c-0.781,1.758-1.406,3.753-1.767,5.938c0.593,0.383,1.151,0.815,1.668,1.291
		c0.009-0.035,0.015-0.063,0.019-0.086h0c0.001-0.007,0.001-0.014,0.002-0.02c0-0.003,0.001-0.006,0.001-0.008
		c0.306-2.419,0.952-4.55,1.761-6.36c0.2-0.449,0.016-0.975-0.422-1.199C33.201,13.699,32.623,13.901,32.408,14.384L32.408,14.384z
		 M32.408,14.384"/>
	<path style="fill:#A5E094;" d="M42.374,8.394c-0.646-0.575-1.383-1.029-2.191-1.331c-0.468-0.174-0.95-0.291-1.439-0.358
		c-0.172,0.084-0.347,0.178-0.524,0.287c-1.17,0.714-2.431,1.914-3.596,3.517c-0.332,0.456-0.17,1.101,0.331,1.358l0.01,0.005
		c0.404,0.206,0.899,0.088,1.166-0.279c1.065-1.46,2.165-2.486,3.05-3.026c0.658-0.402,1.046-0.446,1.169-0.428
		c0.056,0.072,0.277,0.43,0.296,1.545c0.057,3.567-2.065,10.822-6.057,14.628l-0.048,0.041c0.325,0.542,0.61,1.111,0.85,1.703
		c0.347-0.299,0.425-0.366,0.453-0.391c2.928-2.782,4.602-6.853,5.338-9.032C42.275,13.404,42.728,10.262,42.374,8.394L42.374,8.394
		z M42.374,8.394"/>
</g>
</svg>
