<?xml version="1.0" encoding="iso-8859-1"?>
<!-- Generator: Adobe Illustrator 22.0.1, SVG Export Plug-In . SVG Version: 6.00 Build 0)  -->
<svg version="1.1" id="Layer_1" xmlns="http://www.w3.org/2000/svg" xmlns:xlink="http://www.w3.org/1999/xlink" x="0px" y="0px"
	 viewBox="-49 141 93 93" style="enable-background:new -49 141 93 93;" xml:space="preserve">
<path d="M-45.243,234c-0.961,0-1.923-0.367-2.656-1.1c-1.467-1.467-1.467-3.846,0-5.313L37.587,142.1
	c1.467-1.467,3.846-1.467,5.313,0c1.467,1.467,1.467,3.846,0,5.313L-42.587,232.9C-43.32,233.633-44.282,234-45.243,234z"/>
<path d="M40.243,234c-0.961,0-1.923-0.367-2.656-1.1L-47.9,147.413c-1.467-1.467-1.467-3.846,0-5.313
	c1.467-1.467,3.846-1.467,5.313,0L42.9,227.587c1.467,1.467,1.467,3.846,0,5.313C42.166,233.633,41.205,234,40.243,234z"/>
</svg>
