<?xml version="1.0" encoding="iso-8859-1"?>
<!-- Generator: Adobe Illustrator 22.0.1, SVG Export Plug-In . SVG Version: 6.00 Build 0)  -->
<svg version="1.1" id="Capa_1" xmlns="http://www.w3.org/2000/svg" xmlns:xlink="http://www.w3.org/1999/xlink" x="0px" y="0px"
	 viewBox="-49 226.333 132.98 88.667" style="enable-background:new -49 226.333 132.98 88.667;" xml:space="preserve">
<path style="fill:#FFC107;" d="M72.917,237.417c-6.121,0-11.083,4.962-11.083,11.083c0.002,1.162,0.189,2.316,0.554,3.419
	l-8.989,5.713c-5.918,3.771-13.721,2.521-18.166-2.909l-8.811-10.779c1.402-1.888,2.16-4.176,2.161-6.528
	c0-6.121-4.962-11.083-11.083-11.083s-11.083,4.962-11.083,11.083c0.001,2.352,0.759,4.64,2.161,6.528l-8.811,10.779
	c-4.444,5.427-12.243,6.677-18.16,2.909l-8.994-5.713c0.365-1.103,0.552-2.257,0.554-3.419c0.001-6.121-4.96-11.084-11.082-11.085
	s-11.084,4.96-11.085,11.081c-0.001,5.746,4.39,10.54,10.114,11.043l6.55,39.29c0.222,1.336,1.378,2.316,2.732,2.316h94.208
	c1.354-0.001,2.51-0.98,2.732-2.316l6.55-39.29c6.097-0.547,10.596-5.932,10.049-12.029
	C83.424,241.803,78.646,237.427,72.917,237.417z"/>
<ellipse style="fill:#FFA000;" cx="17.5" cy="298.375" rx="47.104" ry="13.854"/>
<path style="fill:#FFD54F;" d="M17.5,315c-24.788,0-49.875-5.708-49.875-16.625S-7.288,281.75,17.5,281.75
	s49.875,5.708,49.875,16.625S42.288,315,17.5,315z M17.5,287.292c-29.105,0-44.333,7.204-44.333,11.083
	c0,3.879,15.229,11.083,44.333,11.083s44.333-7.204,44.333-11.083C61.833,294.496,46.605,287.292,17.5,287.292z"/>
</svg>
