<?xml version="1.0" encoding="iso-8859-1"?>
<!-- Generator: Adobe Illustrator 22.0.1, SVG Export Plug-In . SVG Version: 6.00 Build 0)  -->
<svg version="1.1" id="Layer_1" xmlns="http://www.w3.org/2000/svg" xmlns:xlink="http://www.w3.org/1999/xlink" x="0px" y="0px"
	 viewBox="-49 146.565 175 171.195" style="enable-background:new -49 146.565 175 171.195;" xml:space="preserve">
<path style="fill:#FFDAB3;" d="M75.402,300.36c0,9.412-7.479,17.275-16.89,17.399c-9.079,0.119-16.582-6.865-17.286-15.739
	c-3.672-16.883-11.715-22.294-41.28-52.737l-9-0.001c-3.138,0-5.707-2.556-5.707-5.707v-79.891c0-3.151,2.555-5.706,5.706-5.706
	H91.761c12.827,0.008,21.463,13.82,14.834,25.511c7.422,4.704,10.472,14.422,5.707,22.826c7.422,4.704,10.472,14.422,5.707,22.826
	c4.789,3.035,7.988,8.344,7.992,14.434c-0.006,9.457-7.663,17.114-17.12,17.12h-41.54C72.073,274.89,75.402,285.157,75.402,300.36
	L75.402,300.36z"/>
<path style="fill:#32BBFF;" d="M-9.054,260.695h-34.239c-3.138,0-5.707-2.556-5.707-5.707V152.271c0-3.149,2.557-5.706,5.707-5.706
	h34.239c3.149,0,5.707,2.557,5.707,5.706v102.717C-3.348,258.139-5.917,260.695-9.054,260.695z"/>
<path style="fill:#2C9FD9;" d="M-9.054,260.695h-17.12v-114.13h17.12c3.149,0,5.707,2.557,5.707,5.706v102.717
	C-3.348,258.139-5.917,260.695-9.054,260.695z"/>
<path style="fill:#FFC3A6;" d="M108.88,260.695H99.37L-3.347,157.978h95.108c12.827,0.008,21.463,13.82,14.834,25.511
	c7.422,4.704,10.472,14.422,5.707,22.826c7.422,4.704,10.472,14.422,5.707,22.826c4.789,3.035,7.988,8.344,7.992,14.434
	C125.994,253.032,118.337,260.689,108.88,260.695z"/>
</svg>
