<?xml version="1.0" encoding="iso-8859-1"?>
<!-- Generator: Adobe Illustrator 22.0.1, SVG Export Plug-In . SVG Version: 6.00 Build 0)  -->
<svg version="1.1" id="&#x421;&#x43B;&#x43E;&#x439;_1"
	 xmlns="http://www.w3.org/2000/svg" xmlns:xlink="http://www.w3.org/1999/xlink" x="0px" y="0px" viewBox="0 0 48 64.001"
	 style="enable-background:new 0 0 48 64.001;" xml:space="preserve">
<g>
	<path style="fill:#3CAED6;" d="M48,40C48,27.201,26,2.2,24.2,0.2C24.2,0.2,0,26.8,0,40C0,53.2,10.8,64.001,24,64.001
		c0.8,0,1.8,0,2.6-0.201c0.2,0,0.4,0,0.599-0.2c0.601,0,1.201-0.2,1.8-0.2c0.201,0,0.401-0.2,0.8-0.2c0.6-0.2,1.201-0.2,1.8-0.401
		c0.2,0,0.401-0.2,0.601-0.2c0.599-0.2,1.2-0.399,1.8-0.599c0.2,0,0.399-0.201,0.399-0.201c0.601-0.2,1.201-0.599,1.8-1
		c0.2,0,0.2-0.2,0.401-0.2c0.599-0.399,1.2-0.8,1.8-1.2c0,0,0.2,0,0.2-0.2c0.599-0.401,1.2-1,1.8-1.4C45,53.2,48,47,48,40L48,40z
		 M48,40"/>
	<path style="fill:#63BFDE;" d="M34,32c-2.2,0-4,1.8-4,4c0,2.201,1.8,4.001,4,4.001c2.2,0,4-1.8,4-4.001C38,33.8,36.2,32,34,32
		L34,32z M34,32"/>
	<path style="fill:#369DC0;" d="M26,62C12.8,62,2,51.201,2,38C2,27,18.4,6.8,24.2,0.2L24,0C24,0,0,26.8,0,40
		C0,53.2,10.8,64.001,24,64.001c7.2,0,13.6-3.201,18.001-8C37.6,59.6,32.2,62,26,62L26,62z M26,62"/>
</g>
</svg>
