<?xml version="1.0" encoding="iso-8859-1"?>
<!-- Generator: Adobe Illustrator 22.0.1, SVG Export Plug-In . SVG Version: 6.00 Build 0)  -->
<svg version="1.1" id="Layer_1" xmlns="http://www.w3.org/2000/svg" xmlns:xlink="http://www.w3.org/1999/xlink" x="0px" y="0px"
	 viewBox="-29.309 156.875 20.23 20.125" style="enable-background:new -29.309 156.875 20.23 20.125; fill: #f07fc9;" xml:space="preserve">
<path d="M-10.779,156.875l-2.75,2.612l-4.302,4.302l0.04,0.04c-1.195-0.862-2.659-1.376-4.245-1.376
	c-4.017,0-7.273,3.256-7.273,7.273c0,4.017,3.256,7.273,7.273,7.273s7.273-3.256,7.273-7.273c0-1.587-0.514-3.05-1.376-4.245
	l0.041,0.041l4.302-4.302l2.717-2.7L-10.779,156.875z M-22.036,174.549c-2.659,0-4.822-2.163-4.822-4.822
	c0-2.659,2.163-4.822,4.822-4.822s4.822,2.163,4.822,4.822C-17.214,172.386-19.377,174.549-22.036,174.549z"/>
<rect x="-17.069" y="159.225" transform="matrix(0.7071 0.7071 -0.7071 0.7071 109.9253 56.5615)" width="7.512" height="3.495"/>
</svg>
