<?xml version="1.0" encoding="iso-8859-1"?>
<!-- Generator: Adobe Illustrator 22.0.1, SVG Export Plug-In . SVG Version: 6.00 Build 0)  -->
<svg version="1.1" id="&#x421;&#x43B;&#x43E;&#x439;_1"
	 xmlns="http://www.w3.org/2000/svg" xmlns:xlink="http://www.w3.org/1999/xlink" x="0px" y="0px" viewBox="0 0 38 29.674"
	 style="enable-background:new 0 0 38 29.674;" xml:space="preserve">
<g>
	<path d="M21.463,13.824h-0.638V1.825C20.825,0.817,20.008,0,19,0s-1.825,0.817-1.825,1.825v11.999h-0.639
		c-1.512,0-2.737,1.226-2.737,2.737v0.201c0,1.512,1.226,2.737,2.737,2.737h0.639v8.35c0,1.008,0.817,1.825,1.825,1.825
		s1.825-0.817,1.825-1.825v-8.35h0.638c1.512,0,2.737-1.226,2.737-2.737v-0.201C24.2,15.049,22.975,13.824,21.463,13.824
		L21.463,13.824z M19.989,17.665h-1.977c-0.554,0-1.004-0.45-1.004-1.004c0-0.554,0.449-1.004,1.004-1.004h1.977
		c0.554,0,1.003,0.45,1.003,1.004C20.992,17.216,20.543,17.665,19.989,17.665L19.989,17.665z M19.989,17.665"/>
	<path d="M7.664,8.35H7.026V1.825C7.026,0.817,6.209,0,5.201,0C4.193,0,3.376,0.817,3.376,1.825V8.35H2.737
		C1.226,8.35,0,9.575,0,11.087v0.201c0,1.512,1.226,2.737,2.737,2.737h0.639v13.824c0,1.008,0.817,1.825,1.825,1.825
		c1.008,0,1.825-0.817,1.825-1.825V14.025h0.638c1.512,0,2.737-1.226,2.737-2.737v-0.201C10.401,9.575,9.175,8.35,7.664,8.35
		L7.664,8.35z M6.189,12.191H4.212c-0.554,0-1.004-0.45-1.004-1.004c0-0.554,0.449-1.004,1.004-1.004h1.977
		c0.554,0,1.004,0.45,1.004,1.004C7.193,11.742,6.743,12.191,6.189,12.191L6.189,12.191z M6.189,12.191"/>
	<path d="M35.263,5.612h-0.639V1.825C34.624,0.817,33.807,0,32.799,0c-1.008,0-1.825,0.817-1.825,1.825v3.788h-0.639
		c-1.512,0-2.737,1.226-2.737,2.737v0.201c0,1.512,1.226,2.737,2.737,2.737h0.639v16.561c0,1.008,0.817,1.825,1.825,1.825
		c1.008,0,1.825-0.817,1.825-1.825V11.288h0.639c1.512,0,2.737-1.226,2.737-2.737V8.35C38,6.838,36.774,5.612,35.263,5.612
		L35.263,5.612z M33.788,9.454h-1.977c-0.554,0-1.004-0.45-1.004-1.004c0-0.554,0.449-1.004,1.004-1.004h1.977
		c0.554,0,1.004,0.45,1.004,1.004C34.792,9.004,34.342,9.454,33.788,9.454L33.788,9.454z M33.788,9.454"/>
</g>
</svg>
