<?xml version="1.0" encoding="iso-8859-1"?>
<!-- Generator: Adobe Illustrator 22.0.1, SVG Export Plug-In . SVG Version: 6.00 Build 0)  -->
<svg version="1.1" id="Capa_1" xmlns="http://www.w3.org/2000/svg" xmlns:xlink="http://www.w3.org/1999/xlink" x="0px" y="0px"
	 viewBox="-49 175.019 70.272 60.934" style="enable-background:new -49 175.019 70.272 60.934;" xml:space="preserve">
<g>
	<path style="fill:#F0F0F0;" d="M-34.265,185.924c3.856-5.985-7.068-6.161-2.81,0.278L-34.265,185.924z"/>
	<path style="fill:#F0F0F0;" d="M1.499,179.539c-3.856-5.985,7.068-6.161,2.81,0.278L1.499,179.539z"/>
</g>
<g>
	<path style="fill:#D9D9D9;" d="M-36.256,186.006c-2.215-6.766-9.238,1.602-1.555,2.357L-36.256,186.006z"/>
	<path style="fill:#D9D9D9;" d="M3.49,179.621c2.215-6.766,9.238,1.602,1.555,2.357L3.49,179.621z"/>
</g>
<path style="fill:#7A6154;" d="M-11.576,181.229c0,0-16.587,4.406-19.445,15.124v0l0.008,0.005l1.153,4.633l18.264,8.113
	l19.096-4.413C15.596,187.488-10.709,189.208-11.576,181.229z"/>
<path style="fill:#6B554A;" d="M-27.913,198.181c1.928-7.23,11.261-12.419,17.133-15.031c-0.439-0.577-0.718-1.21-0.796-1.921
	c0,0-16.587,4.406-19.445,15.124v0l0.008,0.005l1.153,4.633L-27.913,198.181z"/>
<path style="fill:#A18576;" d="M-31.021,196.354c0,0-11.476,5.478-8.239,14.291l-0.575,9.754l26.699,1.457l28.19-1.4
	C28.256,197.868-26.02,203.261-31.021,196.354z"/>
<g>
	<path style="fill:#7A6154;" d="M-34.983,215.26l-0.307-1.968c-2.309-6.287,3.727-12.224,7.377-15.11
		c-1.496-0.503-2.579-1.096-3.108-1.828c0,0-11.476,5.478-8.239,14.291l-0.218,3.702L-34.983,215.26z"/>
	<path style="fill:#7A6154;" d="M17.624,221.781c-14.466-8.86-54.843-4.158-56.884-11.137c0,0-12.029,8.304-9.351,19.512
		c0.817,3.417,3.917,5.798,7.431,5.798h54.769C21.301,235.954,24.201,225.809,17.624,221.781z"/>
</g>
<path style="fill:#6B554A;" d="M-41.541,230.156c-1.771-7.413,2.891-13.554,6.251-16.864c-2.201-0.633-3.627-1.475-3.97-2.647
	c0,0-12.029,8.304-9.351,19.512c0.817,3.417,3.917,5.798,7.431,5.798h7.07C-37.624,235.954-40.725,233.573-41.541,230.156z"/>
<g>
	<path style="fill:#3B484A;" d="M-26.908,228.336c-0.586,0-1.06-0.475-1.06-1.06v-2.361c0-0.586,0.475-1.06,1.06-1.06
		c0.586,0,1.06,0.475,1.06,1.06v2.361C-25.847,227.861-26.322,228.336-26.908,228.336z"/>
	<path style="fill:#3B484A;" d="M-0.82,228.336c-0.586,0-1.06-0.475-1.06-1.06v-2.361c0-0.586,0.475-1.06,1.06-1.06
		s1.06,0.475,1.06,1.06v2.361C0.241,227.861-0.234,228.336-0.82,228.336z"/>
	<path style="fill:#3B484A;" d="M-13.864,229.596c-1.561,0-3.025-0.651-4.018-1.787c-0.385-0.441-0.34-1.111,0.101-1.496
		c0.441-0.385,1.111-0.34,1.496,0.101c0.59,0.675,1.472,1.062,2.421,1.062s1.831-0.387,2.421-1.062
		c0.385-0.441,1.055-0.486,1.496-0.1c0.441,0.385,0.486,1.055,0.1,1.496C-10.838,228.945-12.303,229.596-13.864,229.596z"/>
	<circle style="fill:#3B484A;" cx="-35.174" cy="188.057" r="3.228"/>
	<circle style="fill:#3B484A;" cx="2.409" cy="181.672" r="3.228"/>
</g>
</svg>
