<?xml version="1.0" encoding="iso-8859-1"?>
<!-- Generator: Adobe Illustrator 22.0.1, SVG Export Plug-In . SVG Version: 6.00 Build 0)  -->
<svg version="1.1" id="&#x421;&#x43B;&#x43E;&#x439;_1"
	 xmlns="http://www.w3.org/2000/svg" xmlns:xlink="http://www.w3.org/1999/xlink" x="0px" y="0px" viewBox="0 0 87 87"
	 style="enable-background:new 0 0 87 87;" xml:space="preserve">
<g>
	<path style="fill:#FFCC4D;" d="M43.5,87c-11.619,0-22.543-4.525-30.759-12.741C4.525,66.043,0,55.119,0,43.5
		s4.525-22.543,12.741-30.759C20.957,4.525,31.881,0,43.5,0s22.543,4.525,30.759,12.741C82.475,20.957,87,31.881,87,43.5
		s-4.525,22.543-12.741,30.759C66.043,82.475,55.119,87,43.5,87L43.5,87z M43.5,87"/>
	<path style="fill:#B0467A;" d="M43.5,71.994c-15.712,0-28.494-12.783-28.494-28.494c0-1.434,1.162-2.596,2.595-2.596h51.798
		c1.434,0,2.596,1.162,2.596,2.596C71.994,59.212,59.212,71.994,43.5,71.994L43.5,71.994z M43.5,71.994"/>
	<path style="fill:#6E294B;" d="M69.398,40.904H43.5v31.09c15.712,0,28.494-12.783,28.494-28.494
		C71.994,42.066,70.832,40.904,69.398,40.904L69.398,40.904z M69.398,40.904"/>
	<path style="fill:#FF468C;" d="M43.5,51.162c-8.391,0-16.242,3.634-22.152,10.238c5.228,6.457,13.216,10.593,22.152,10.593
		s16.924-4.136,22.152-10.593C59.742,54.796,51.891,51.162,43.5,51.162L43.5,51.162z M43.5,51.162"/>
	<path style="fill:#D72878;" d="M65.652,61.401c-5.91-6.605-13.761-10.238-22.152-10.238v20.832
		C52.436,71.994,60.424,67.858,65.652,61.401L65.652,61.401z M65.652,61.401"/>
	<path style="fill:#664500;" d="M34.037,35.078c-1.434,0-2.596-1.162-2.596-2.595v-2.999c0-1.336-1.086-2.423-2.423-2.423
		c-1.335,0-2.422,1.086-2.422,2.423v2.999c0,1.433-1.162,2.595-2.596,2.595c-1.434,0-2.596-1.162-2.596-2.595v-2.999
		c0-4.198,3.416-7.614,7.614-7.614c4.199,0,7.614,3.416,7.614,7.614v2.999C36.633,33.916,35.471,35.078,34.037,35.078L34.037,35.078
		z M34.037,35.078"/>
	<path style="fill:#664500;" d="M62.999,35.078c-1.434,0-2.596-1.162-2.596-2.595v-2.999c0-1.336-1.087-2.423-2.422-2.423
		c-1.336,0-2.423,1.086-2.423,2.423v2.999c0,1.433-1.162,2.595-2.596,2.595c-1.433,0-2.595-1.162-2.595-2.595v-2.999
		c0-4.198,3.415-7.614,7.614-7.614c4.198,0,7.614,3.416,7.614,7.614v2.999C65.595,33.916,64.433,35.078,62.999,35.078L62.999,35.078
		z M62.999,35.078"/>
</g>
</svg>
