<?xml version="1.0" encoding="iso-8859-1"?>
<!-- Generator: Adobe Illustrator 22.0.1, SVG Export Plug-In . SVG Version: 6.00 Build 0)  -->
<svg version="1.1" id="Capa_1" xmlns="http://www.w3.org/2000/svg" xmlns:xlink="http://www.w3.org/1999/xlink" x="0px" y="0px"
	 viewBox="-49 141 512 512" style="enable-background:new -49 141 512 512; fill: #fff;" xml:space="preserve">
<path d="M303,141H111c-88.352,0-160,71.648-160,160v192c0,88.352,71.648,160,160,160h192c88.352,0,160-71.648,160-160V301
	C463,212.648,391.352,141,303,141z M415,493c0,61.76-50.24,112-112,112H111C49.24,605-1,554.76-1,493V301c0-61.76,50.24-112,112-112
	h192c61.76,0,112,50.24,112,112V493z"/>
<path d="M207,269c-70.688,0-128,57.312-128,128s57.312,128,128,128s128-57.312,128-128S277.688,269,207,269z M207,477
	c-44.096,0-80-35.904-80-80c0-44.128,35.904-80,80-80s80,35.872,80,80C287,441.096,251.096,477,207,477z"/>
<circle cx="344.6" cy="259.4" r="17.056"/>
</svg>
