<?xml version="1.0" encoding="iso-8859-1"?>
<!-- Generator: Adobe Illustrator 22.0.1, SVG Export Plug-In . SVG Version: 6.00 Build 0)  -->
<svg version="1.1" id="Capa_1" xmlns="http://www.w3.org/2000/svg" xmlns:xlink="http://www.w3.org/1999/xlink" x="0px" y="0px"
	 viewBox="-49 167.576 143.716 128.796" style="enable-background:new -49 167.576 143.716 128.796;" xml:space="preserve">
<path style="fill:#596675;" d="M-14.549,262.803c-6.475,6.854-24.825,15.148-31.68,8.673c-6.854-6.475,0.383-25.267,6.858-32.121
	c6.475-6.854,17.281-7.162,24.135-0.687S-8.074,255.949-14.549,262.803z"/>
<path style="opacity:0.1;enable-background:new    ;" d="M-15.236,238.668c-6.854-6.475-17.66-6.168-24.135,0.687
	c-0.527,0.557-1.058,1.195-1.587,1.897c1.178,11.967,5.474,22.198,12.65,30.175c5.569-2.191,10.856-5.551,13.758-8.623
	C-8.074,255.949-8.381,245.143-15.236,238.668z"/>
<path style="fill:#596675;" d="M60.266,262.803c6.475,6.854,24.825,15.148,31.68,8.673c6.854-6.475-0.383-25.267-6.858-32.121
	c-6.475-6.854-17.281-7.162-24.135-0.687C54.098,245.143,53.791,255.949,60.266,262.803z"/>
<path style="opacity:0.1;enable-background:new    ;" d="M60.952,238.668c6.854-6.475,17.66-6.168,24.135,0.687
	c0.527,0.557,1.058,1.195,1.587,1.897c-1.178,11.967-5.474,22.198-12.65,30.175c-5.569-2.191-10.856-5.551-13.758-8.623
	C53.791,255.949,54.098,245.143,60.952,238.668z"/>
<path style="fill:#596675;" d="M81.396,234.341c0-35.389-26.209-64.078-58.538-64.078s-58.538,28.689-58.538,64.078
	s26.209,50.532,58.538,50.532S81.396,269.73,81.396,234.341z"/>
<path style="opacity:0.1;enable-background:new    ;" d="M81.396,234.341c0-35.389-26.209-64.078-58.538-64.078
	s-58.538,28.689-58.538,64.078s26.209,50.532,58.538,50.532S81.396,269.73,81.396,234.341z"/>
<path style="fill:#8090A0;" d="M22.858,207.094c-21.17,0-38.332,18.638-38.332,41.629c0,13.494,5.914,25.487,15.078,33.093
	c7.128,2.064,14.99,3.056,23.254,3.056s16.125-0.992,23.254-3.056c9.164-7.607,15.078-19.599,15.078-33.093
	C61.19,225.732,44.028,207.094,22.858,207.094z"/>
<g style="opacity:0.1;">
	<path d="M22.858,254.749c-0.539,0-1.078-0.205-1.489-0.617l-5.378-5.378c-0.822-0.822-0.822-2.155,0-2.977
		c0.822-0.822,2.155-0.822,2.977,0l3.89,3.89l3.889-3.889c0.822-0.822,2.155-0.822,2.977,0c0.822,0.822,0.822,2.155,0,2.977
		l-5.378,5.378C23.936,254.544,23.397,254.749,22.858,254.749z"/>
	<path d="M5.963,265.122c-0.558,0-1.094-0.222-1.489-0.617l-5.378-5.378c-0.822-0.822-0.822-2.155,0-2.977
		c0.822-0.822,2.155-0.822,2.977,0l3.889,3.89l3.889-3.89c0.822-0.822,2.155-0.822,2.977,0c0.822,0.822,0.822,2.155,0,2.977
		l-5.378,5.378C7.056,264.901,6.521,265.122,5.963,265.122z"/>
	<path d="M39.754,265.122L39.754,265.122c-0.558,0-1.094-0.222-1.489-0.617l-5.378-5.378c-0.822-0.822-0.822-2.155,0-2.977
		c0.822-0.822,2.155-0.822,2.977,0l3.889,3.89l3.889-3.89c0.822-0.822,2.155-0.822,2.977,0c0.822,0.822,0.822,2.155,0,2.977
		l-5.378,5.378C40.848,264.901,40.312,265.122,39.754,265.122z"/>
</g>
<path style="opacity:0.1;enable-background:new    ;" d="M14.49,170.918c-28.365,4.445-50.17,31.145-50.17,63.423
	c0,35.389,26.209,50.532,58.538,50.532c2.474,0,4.912-0.09,7.306-0.269C-31.088,278.953-6.385,190.751,14.49,170.918z"/>
<path style="fill:#596675;" d="M83.165,168.233L83.165,168.233c-10.14,5.878-21.652,8.973-33.372,8.973h-53.87
	c-11.72,0-23.232-3.096-33.372-8.973l0,0c-3.61-2.093-7.99,1.135-7.041,5.199c1.883,8.064,6.341,15.632,14.714,19.3
	c-2.718,4.642-4.278,10.044-4.278,15.812c0,17.307,14.03,31.338,31.338,31.338c10.558,0,19.897-5.221,25.574-13.223
	c5.678,8.002,15.016,13.223,25.574,13.223c17.307,0,31.338-14.03,31.338-31.338c0-5.768-1.56-11.17-4.278-15.812
	c8.373-3.668,12.831-11.237,14.714-19.3C91.155,169.368,86.775,166.14,83.165,168.233z"/>
<g>
	<circle style="fill:#FFFFFF;" cx="-2.716" cy="208.545" r="19.811"/>
	<circle style="fill:#FFFFFF;" cx="48.432" cy="208.545" r="19.811"/>
</g>
<path style="opacity:0.1;enable-background:new    ;" d="M27.297,215.487l6.683,6.901c1.208,1.247,1.366,3.173,0.379,4.601
	l-9.951,14.389c-0.749,1.083-2.351,1.083-3.1,0l-9.951-14.389c-0.987-1.428-0.829-3.354,0.379-4.601l6.683-6.901L27.297,215.487
	L27.297,215.487z"/>
<path style="fill:#FBDD56;" d="M18.42,215.487l-4.536,4.089c-1.444,1.302-1.733,3.459-0.681,5.095l7.667,11.924
	c0.931,1.447,3.046,1.447,3.977,0l7.667-11.924c1.052-1.636,0.763-3.792-0.681-5.095l-4.536-4.089
	C24.775,213.214,20.942,213.214,18.42,215.487z"/>
<path style="opacity:0.1;enable-background:new    ;" d="M22.489,213.799c-1.464,0.081-2.906,0.64-4.07,1.689l-4.536,4.089
	c-1.444,1.302-1.733,3.459-0.681,5.094l7.667,11.924c0.574,0.892,1.597,1.232,2.516,1.025
	C20.832,233.131,21.284,218.439,22.489,213.799z"/>
<g>
	<path style="fill:#FBDD56;" d="M5.937,296.373L5.937,296.373c-4.779,0-8.653-3.874-8.653-8.653v-5.694
		c0-4.779,3.874-8.653,8.653-8.653l0,0c4.779,0,8.653,3.874,8.653,8.653v5.694C14.59,292.498,10.716,296.373,5.937,296.373z"/>
	<path style="fill:#FBDD56;" d="M39.779,296.373L39.779,296.373c4.779,0,8.653-3.874,8.653-8.653v-5.694
		c0-4.779-3.874-8.653-8.653-8.653l0,0c-4.779,0-8.653,3.874-8.653,8.653v5.694C31.126,292.498,35.001,296.373,39.779,296.373z"/>
</g>
<g>
	<path style="fill:#414B58;" d="M-2.462,212.133c-1.163,0-2.105-0.943-2.105-2.105v-4.274c0-1.163,0.943-2.105,2.105-2.105
		s2.105,0.943,2.105,2.105v4.274C-0.357,211.191-1.299,212.133-2.462,212.133z"/>
	<path style="fill:#414B58;" d="M48.178,212.133c-1.163,0-2.105-0.943-2.105-2.105v-4.274c0-1.163,0.943-2.105,2.105-2.105
		s2.105,0.943,2.105,2.105v4.274C50.284,211.191,49.341,212.133,48.178,212.133z"/>
</g>
</svg>
