<?xml version="1.0" encoding="iso-8859-1"?>
<!-- Generator: Adobe Illustrator 22.0.1, SVG Export Plug-In . SVG Version: 6.00 Build 0)  -->
<svg version="1.1" id="Capa_1" xmlns="http://www.w3.org/2000/svg" xmlns:xlink="http://www.w3.org/1999/xlink" x="0px" y="0px"
	 viewBox="-49 141 138 138" style="enable-background:new -49 141 138 138;" xml:space="preserve">
<path style="fill:#FFCC4D;" d="M89,210c0,38.107-30.893,69-69,69c-38.103,0-69-30.893-69-69c0-38.103,30.897-69,69-69
	C58.107,141,89,171.897,89,210"/>
<g>
	<path style="fill:#664500;" d="M4.667,200.417c0,7.414-4.289,13.417-9.583,13.417s-9.583-6.003-9.583-13.417
		c0-7.41,4.29-13.417,9.583-13.417S4.667,193.007,4.667,200.417"/>
	<path style="fill:#664500;" d="M60.085,209.222c-0.226-0.518-5.746-12.638-17.085-12.638c-11.335,0-16.855,12.121-17.085,12.638
		c-0.353,0.794-0.123,1.721,0.552,2.266c0.671,0.544,1.633,0.564,2.342,0.054c0.046-0.035,4.838-3.458,14.191-3.458
		c9.3,0,14.084,3.377,14.191,3.454c0.337,0.253,0.744,0.38,1.142,0.38c0.422,0,0.847-0.142,1.196-0.418
		C60.208,210.954,60.442,210.019,60.085,209.222"/>
	<path style="fill:#664500;" d="M-26.004,183.167c-0.797,0-1.606-0.249-2.296-0.767c-1.694-1.269-2.035-3.672-0.767-5.367
		c12.504-16.675,29.195-16.867,29.9-16.867c2.116,0,3.833,1.717,3.833,3.833c0,2.112-1.706,3.826-3.818,3.833
		c-0.594,0.008-13.681,0.33-23.782,13.8C-23.688,182.638-24.838,183.167-26.004,183.167"/>
	<path style="fill:#664500;" d="M62.167,194.667c-1.169,0-2.319-0.529-3.07-1.533c-9.936-13.248-26.684-10.074-26.849-10.043
		c-2.097,0.426-4.094-0.932-4.512-3.005c-0.414-2.074,0.935-4.094,3.009-4.508c0.882-0.184,21.685-4.109,34.485,12.957
		c1.273,1.694,0.928,4.098-0.767,5.367C63.773,194.417,62.968,194.667,62.167,194.667"/>
	<path style="fill:#664500;" d="M31.006,248.333c5.118-1.579,10.078-4.431,10.078-9.583c0-10.04-18.829-11.377-20.976-11.496
		c-1.05-0.1-1.951,0.74-2.02,1.794c-0.065,1.046,0.728,1.955,1.779,2.032c0.134,0.008,13.551,1.146,13.551,7.671
		S20,246.413,19.866,246.421c-0.054,0.004-0.096,0.035-0.142,0.042c-0.203,0.023-0.387,0.065-0.563,0.153
		c-0.027,0.012-0.046,0.031-0.069,0.042c-0.18,0.1-0.341,0.215-0.479,0.372c-0.054,0.057-0.092,0.119-0.138,0.184
		c-0.084,0.123-0.169,0.242-0.226,0.391c-0.046,0.111-0.069,0.23-0.092,0.349c-0.019,0.092-0.065,0.169-0.069,0.261
		c-0.004,0.038,0.015,0.077,0.015,0.119c0,0.042-0.019,0.081-0.015,0.119c0.004,0.096,0.05,0.173,0.069,0.264
		c0.023,0.119,0.042,0.23,0.088,0.341c0.05,0.119,0.119,0.219,0.188,0.322c0.065,0.096,0.123,0.192,0.203,0.276
		c0.084,0.088,0.192,0.157,0.295,0.23c0.096,0.065,0.176,0.13,0.284,0.18c0.123,0.058,0.253,0.081,0.383,0.104
		c0.092,0.023,0.173,0.069,0.268,0.077c0.134,0.008,13.551,1.146,13.551,7.67c0,6.524-13.417,7.663-13.551,7.671
		c-1.05,0.077-1.844,0.985-1.779,2.032c0.065,1.016,0.909,1.798,1.909,1.798c0.038,0,0.077,0,0.111-0.004
		c2.147-0.119,20.976-1.457,20.976-11.496C41.083,252.765,36.123,249.913,31.006,248.333"/>
</g>
<path style="fill:#E75A70;" d="M86.715,245.351c2.833-5.811,0.422-12.83-5.386-15.663c-3.534-1.721-7.498-1.499-10.706,0.23
	c-0.613-3.592-2.875-6.858-6.402-8.579c-5.819-2.837-12.834-0.418-15.667,5.393c-0.406,0.82-0.69,1.671-0.885,2.526
	c-2.967,9.794,2.453,24.307,8.406,30.467c8.522,0.897,23.295-3.753,29.191-12.117C85.822,246.923,86.313,246.175,86.715,245.351"/>
<rect x="-49" y="141" style="fill:none;" width="138" height="138"/>
</svg>
