<?xml version="1.0" encoding="iso-8859-1"?>
<!-- Generator: Adobe Illustrator 22.0.1, SVG Export Plug-In . SVG Version: 6.00 Build 0)  -->
<svg version="1.1" id="&#x421;&#x43B;&#x43E;&#x439;_1"
	 xmlns="http://www.w3.org/2000/svg" xmlns:xlink="http://www.w3.org/1999/xlink" x="0px" y="0px" viewBox="0 0 17.602 16"
	 style="enable-background:new 0 0 17.602 16; fill: #bdd5ec;" xml:space="preserve">
<g>
	<path d="M0,16h3.199V6.398H0V16z M17.602,7.199c0-0.879-0.723-1.597-1.602-1.597h-5.039l0.801-3.68V1.68
		c0-0.321-0.16-0.641-0.321-0.879L10.559,0L5.281,5.281c-0.32,0.239-0.48,0.641-0.48,1.117v8C4.801,15.281,5.52,16,6.398,16h7.204
		c0.636,0,1.199-0.398,1.437-0.961l2.402-5.68c0.079-0.16,0.079-0.398,0.079-0.558V7.199H17.602
		C17.602,7.281,17.602,7.199,17.602,7.199L17.602,7.199z M17.602,7.199"/>
</g>
</svg>