<svg version="1.1"
                                     xmlns="http://www.w3.org/2000/svg" xmlns:xlink="http://www.w3.org/1999/xlink" x="0px" y="0px" viewBox="0 0 35.947 20.653"
                                     style="enable-background:new 0 0 35.947 20.653; fill: #898989;" xml:space="preserve" >
                                <g>
                                    <g>
                                        <path  d="M19.05,20.305L35.591,3.763c0.236-0.238,0.355-0.51,0.355-0.817
                                            c0-0.308-0.119-0.581-0.355-0.817l-1.774-1.774C33.581,0.119,33.308,0,33,0c-0.309,0-0.581,0.119-0.817,0.355l-13.95,13.951
                                            L4.28,0.355C4.045,0.119,3.772,0,3.463,0C3.157,0,2.885,0.119,2.646,0.355L0.873,2.13C0.636,2.366,0.519,2.638,0.519,2.947
                                            c0,0.307,0.117,0.579,0.353,0.817l16.544,16.541c0.236,0.236,0.508,0.356,0.817,0.356C18.539,20.661,18.811,20.543,19.05,20.305
                                            L19.05,20.305z M19.05,20.305"/>
                                    </g>
                                </g>
                                </svg>