<?xml version="1.0" encoding="iso-8859-1"?>
<!-- Generator: Adobe Illustrator 22.0.1, SVG Export Plug-In . SVG Version: 6.00 Build 0)  -->
<svg version="1.1" id="Layer_1" xmlns="http://www.w3.org/2000/svg" xmlns:xlink="http://www.w3.org/1999/xlink" x="0px" y="0px"
	 viewBox="-29.309 160.692 39.309 39.309" style="enable-background:new -29.309 160.692 39.309 39.309; fill: #7f8ff0;" xml:space="preserve">
<path d="M7.587,160.692H-4.891v4.826h6.653l-8.471,8.471l0.079,0.079c-2.354-1.697-5.235-2.709-8.359-2.709
	c-7.909,0-14.321,6.412-14.321,14.321s6.412,14.321,14.321,14.321s14.321-6.412,14.321-14.321c0-3.124-1.011-6.005-2.709-8.359
	l0.08,0.08l8.471-8.471v6.653H10v-12.478v-2.413H7.587z M-14.988,195.175c-5.236,0-9.495-4.259-9.495-9.495
	c0-5.236,4.259-9.495,9.495-9.495s9.495,4.259,9.495,9.495C-5.493,190.916-9.753,195.175-14.988,195.175z"/>
</svg>
