<svg xmlns="http://www.w3.org/2000/svg" xmlns:xlink="http://www.w3.org/1999/xlink" version="1.1" id="Capa_1" x="0px" y="0px" viewBox="-49 250.872 140.375 80.128" style="enable-background:new -49 250.872 140.375 80.128;" xml:space="preserve">
<path style="fill:#C1C4C7;" d="M-23.135,263.936c-2.134-8.918-13.721-13.063-19.886-13.063l-0.001,0  c-3.033-0.007-5.591,1.775-5.94,4.3c-0.183,1.322,0.274,2.613,1.169,3.66c-0.796,0.987-1.194,2.183-1.023,3.407  c0.184,1.311,0.987,2.412,2.146,3.147c-0.528,0.982-0.711,2.077-0.441,3.145c0.57,2.259,2.976,3.667,5.702,3.523  c0.877-0.046,1.74,0.286,2.34,0.927C-33.248,279.204-21.111,272.39-23.135,263.936z"/>
<path style="opacity:0.1;enable-background:new    ;" d="M-23.135,263.936c-2.134-8.918-13.721-13.063-19.886-13.063l-0.001,0  c-3.033-0.007-5.591,1.775-5.94,4.3c-0.183,1.322,0.274,2.613,1.169,3.66c-0.796,0.987-1.194,2.183-1.023,3.407  c0.184,1.311,0.987,2.412,2.146,3.147c-0.528,0.982-0.711,2.077-0.441,3.145c0.57,2.259,2.976,3.667,5.702,3.523  c0.877-0.046,1.74,0.286,2.34,0.927C-33.248,279.204-21.111,272.39-23.135,263.936z"/>
<ellipse transform="matrix(0.3079 -0.9514 0.9514 0.3079 -275.4955 150.8516)" style="fill:#F5D7B7;" cx="-34.06" cy="264.786" rx="5.66" ry="7.988"/>
<path style="fill:#C1C4C7;" d="M-4.678,263.936c2.134-8.918,13.721-13.063,19.886-13.063l0.001,0c3.033-0.007,5.591,1.775,5.94,4.3  c0.183,1.322-0.274,2.613-1.169,3.66c0.796,0.987,1.194,2.183,1.023,3.407c-0.184,1.311-0.987,2.412-2.146,3.147  c0.528,0.982,0.711,2.077,0.441,3.145c-0.57,2.259-2.976,3.667-5.702,3.523c-0.877-0.046-1.74,0.286-2.34,0.927  C5.435,279.204-6.701,272.39-4.678,263.936z"/>
<path style="opacity:0.1;enable-background:new    ;" d="M-4.678,263.936c2.134-8.918,13.721-13.063,19.886-13.063l0.001,0  c3.033-0.007,5.591,1.775,5.94,4.3c0.183,1.322-0.274,2.613-1.169,3.66c0.796,0.987,1.194,2.183,1.023,3.407  c-0.184,1.311-0.987,2.412-2.146,3.147c0.528,0.982,0.711,2.077,0.441,3.145c-0.57,2.259-2.976,3.667-5.702,3.523  c-0.877-0.046-1.74,0.286-2.34,0.927C5.435,279.204-6.701,272.39-4.678,263.936z"/>
<ellipse transform="matrix(0.9514 -0.3079 0.3079 0.9514 -81.226 14.7881)" style="fill:#F5D7B7;" cx="6.248" cy="264.788" rx="7.988" ry="5.66"/>
<path style="fill:#C1C4C7;" d="M9.341,271.774c0-11.544-10.408-20.902-23.248-20.902s-23.248,9.358-23.248,20.902  c0,11.544,10.408,19.162,23.248,19.162S9.341,283.317,9.341,271.774z"/>
<g>
	<ellipse style="fill:#E4A2B7;" cx="-27.687" cy="270.569" rx="4.911" ry="3.911"/>
	<ellipse style="fill:#E4A2B7;" cx="-0.125" cy="270.569" rx="4.911" ry="3.911"/>
</g>
<g>
	<path style="fill:#464D59;" d="M-13.906,278.65c-1.268,0-2.475-0.549-3.31-1.507c-0.373-0.428-0.328-1.077,0.1-1.451   c0.428-0.373,1.077-0.329,1.451,0.1c0.444,0.51,1.085,0.802,1.759,0.802s1.315-0.292,1.759-0.802   c0.373-0.428,1.022-0.473,1.451-0.1c0.428,0.373,0.473,1.023,0.1,1.451C-11.431,278.1-12.638,278.65-13.906,278.65z"/>
	<path style="fill:#464D59;" d="M-13.906,273.575c1.656,0,3.544-1.856,3.757-4.905c0.208-2.961-1.682-4.016-3.757-4.016   s-3.965,1.056-3.757,4.016C-17.45,271.718-15.562,273.575-13.906,273.575z"/>
	<path style="fill:#464D59;" d="M-22.409,268.075c-0.568,0-1.028-0.46-1.028-1.028c0-0.765-0.623-1.388-1.388-1.388   s-1.388,0.622-1.388,1.388c0,0.568-0.46,1.028-1.028,1.028s-1.028-0.46-1.028-1.028c0-1.899,1.545-3.444,3.444-3.444   s3.444,1.545,3.444,3.444C-21.381,267.615-21.841,268.075-22.409,268.075z"/>
	<path style="fill:#464D59;" d="M-0.572,268.075c-0.568,0-1.028-0.46-1.028-1.028c0-0.765-0.623-1.388-1.388-1.388   c-0.765,0-1.388,0.622-1.388,1.388c0,0.568-0.46,1.028-1.028,1.028s-1.028-0.46-1.028-1.028c0-1.899,1.545-3.444,3.444-3.444   c1.899,0,3.444,1.545,3.444,3.444C0.456,267.615-0.004,268.075-0.572,268.075z"/>
</g>
<path style="opacity:0.05;enable-background:new    ;" d="M-22.333,252.288c-8.673,3.034-14.821,10.614-14.821,19.485  c0,11.544,10.408,19.162,23.248,19.162c1.057,0,2.097-0.053,3.117-0.154C-36.944,282.636-29.951,259.839-22.333,252.288z"/>
</svg>