<?xml version="1.0" encoding="iso-8859-1"?>
<!-- Generator: Adobe Illustrator 22.0.1, SVG Export Plug-In . SVG Version: 6.00 Build 0)  -->
<svg version="1.1" id="&#x421;&#x43B;&#x43E;&#x439;_1"
	 xmlns="http://www.w3.org/2000/svg" xmlns:xlink="http://www.w3.org/1999/xlink" x="0px" y="0px" viewBox="0 0 45.84 77"
	 style="enable-background:new 0 0 45.84 77; fill: #fff;" xml:space="preserve">
<g>
	<g>
		<defs>
			<rect id="SVGID_1_" width="45.84" height="77"/>
		</defs>
		<clipPath id="SVGID_2_">
			<use xlink:href="#SVGID_1_"  style="overflow:visible;"/>
		</clipPath>
		<path style="clip-path:url(#SVGID_2_);fill-rule:evenodd;clip-rule:evenodd;" d="M19.172,53.8
			c-5.918-0.617-11.258-2.074-15.832-5.648c-0.567-0.445-1.152-0.875-1.668-1.371c-2-1.922-2.203-4.121-0.621-6.391
			c1.355-1.941,3.629-2.461,5.992-1.347c0.457,0.218,0.895,0.488,1.312,0.777c8.52,5.851,20.219,6.016,28.774,0.262
			c0.848-0.649,1.75-1.18,2.801-1.45c2.043-0.523,3.945,0.227,5.039,2.012c1.254,2.039,1.234,4.031-0.305,5.613
			c-2.367,2.426-5.211,4.184-8.371,5.411c-2.988,1.156-6.258,1.738-9.5,2.128c0.492,0.532,0.719,0.793,1.027,1.098
			c4.399,4.422,8.817,8.82,13.2,13.254c1.492,1.512,1.804,3.383,0.984,5.141c-0.902,1.918-2.914,3.183-4.887,3.047
			c-1.25-0.086-2.226-0.707-3.094-1.582c-3.32-3.34-6.699-6.618-9.953-10.02c-0.945-0.992-1.402-0.805-2.234,0.055
			c-3.34,3.437-6.734,6.824-10.148,10.187c-1.532,1.512-3.356,1.785-5.133,0.922c-1.891-0.914-3.094-2.844-3-4.781
			c0.062-1.313,0.707-2.317,1.609-3.215c4.352-4.344,8.691-8.703,13.035-13.055C18.488,54.558,18.754,54.25,19.172,53.8L19.172,53.8
			z M19.172,53.8"/>
		<path style="clip-path:url(#SVGID_2_);fill-rule:evenodd;clip-rule:evenodd;" d="M22.781,38.664
			C12.219,38.629,3.555,29.871,3.617,19.289C3.676,8.589,12.344-0.032,23.012,0C33.703,0.027,42.281,8.773,42.23,19.582
			C42.176,30.14,33.453,38.699,22.781,38.664L22.781,38.664z M32.383,19.316c-0.02-5.254-4.203-9.437-9.445-9.441
			c-5.29-0.008-9.508,4.25-9.469,9.554c0.039,5.231,4.258,9.387,9.515,9.367C28.227,28.777,32.398,24.566,32.383,19.316
			L32.383,19.316z M32.383,19.316"/>
	</g>
</g>
</svg>
