<?xml version="1.0" encoding="iso-8859-1"?>
<!-- Generator: Adobe Illustrator 22.0.1, SVG Export Plug-In . SVG Version: 6.00 Build 0)  -->
<svg version="1.1" id="&#x421;&#x43B;&#x43E;&#x439;_1"
	 xmlns="http://www.w3.org/2000/svg" xmlns:xlink="http://www.w3.org/1999/xlink" x="0px" y="0px" viewBox="0 0 49.533 69"
	 style="enable-background:new 0 0 49.533 69;" xml:space="preserve">
<g>
	<path style="fill:#868491;" d="M27.945,62.39h-6.448c-0.594,0-1.075,0.481-1.075,1.075v1.075c0,2.371,1.929,4.299,4.299,4.299
		c2.371,0,4.299-1.928,4.299-4.299v-1.075C29.02,62.871,28.539,62.39,27.945,62.39L27.945,62.39z M27.945,62.39"/>
	<g>
		<defs>
			<rect id="SVGID_1_" width="49.533" height="69"/>
		</defs>
		<clipPath id="SVGID_2_">
			<use xlink:href="#SVGID_1_"  style="overflow:visible;"/>
		</clipPath>
		<path style="clip-path:url(#SVGID_2_);fill:#5C546A;" d="M24.719,62.39h-3.223c-0.594,0-1.075,0.481-1.075,1.075v1.075
			c0,2.371,1.928,4.298,4.298,4.299V62.39z M24.719,62.39"/>
		<path style="clip-path:url(#SVGID_2_);fill:#FFCD00;" d="M41.645,6.756C36.622,2.035,30.042-0.33,23.141,0.103
			C10.565,0.886,0.405,11.376,0.012,23.986c-0.29,9.343,4.618,17.946,12.809,22.452c2.036,1.12,3.301,3.273,3.301,5.619v8.183
			c0,2.371,1.928,4.299,4.299,4.299h8.598c2.371,0,4.299-1.929,4.299-4.299v-8.183c0-2.344,1.275-4.501,3.327-5.633
			C44.537,42.07,49.44,33.775,49.44,24.773C49.44,17.979,46.599,11.411,41.645,6.756L41.645,6.756z M41.645,6.756"/>
	</g>
	<path style="fill:#FFE671;" d="M41.916,24.773c0,9.497-7.699,17.196-17.197,17.196c-9.497,0-17.196-7.699-17.196-17.196
		c0-9.497,7.699-17.196,17.196-17.196C34.217,7.577,41.916,15.276,41.916,24.773L41.916,24.773z M41.916,24.773"/>
	<path style="fill:#FFFFFF;" d="M28.479,31.222c-1.428,0-2.159-0.833-2.691-1.441c-0.469-0.535-0.656-0.708-1.074-0.708
		c-0.417,0-0.603,0.173-1.07,0.707c-0.501,0.574-1.26,1.442-2.689,1.442c-1.427,0-2.186-0.868-2.688-1.442
		c-0.467-0.534-0.653-0.707-1.069-0.707c-0.594,0-1.074-0.481-1.074-1.075c0-0.594,0.48-1.074,1.074-1.074
		c1.427,0,2.186,0.868,2.688,1.442c0.467,0.535,0.653,0.708,1.069,0.708c0.417,0,0.604-0.173,1.071-0.708
		c0.502-0.574,1.261-1.442,2.688-1.442c1.428,0,2.159,0.833,2.691,1.441c0.469,0.535,0.656,0.709,1.074,0.709
		c0.418,0,0.605-0.173,1.074-0.708c0.503-0.574,1.262-1.442,2.692-1.442c0.594,0,1.074,0.481,1.074,1.074
		c0,0.594-0.481,1.075-1.074,1.075c-0.419,0-0.606,0.173-1.075,0.708C30.667,30.355,29.908,31.222,28.479,31.222L28.479,31.222z
		 M28.479,31.222"/>
	<path style="fill:#5C546A;" d="M21.495,51.643c-0.495,0-0.939-0.343-1.05-0.846l-5.374-24.719
		c-0.126-0.581,0.243-1.153,0.822-1.279c0.583-0.128,1.153,0.242,1.279,0.822l5.374,24.72c0.126,0.58-0.243,1.153-0.822,1.279
		C21.647,51.635,21.571,51.643,21.495,51.643L21.495,51.643z M21.495,51.643"/>
	<path style="fill:#5C546A;" d="M27.946,51.643c-0.076,0-0.152-0.007-0.23-0.024c-0.579-0.127-0.948-0.699-0.822-1.279l5.374-24.72
		c0.127-0.58,0.694-0.949,1.28-0.822c0.579,0.127,0.948,0.699,0.821,1.279l-5.374,24.719C28.886,51.299,28.44,51.643,27.946,51.643
		L27.946,51.643z M27.946,51.643"/>
	<path style="fill:#B4B6BC;" d="M15.938,50.568c0.114,0.482,0.184,0.979,0.184,1.489v8.183c0,2.371,1.928,4.299,4.299,4.299h8.598
		c2.371,0,4.299-1.929,4.299-4.299v-8.183c0-0.509,0.07-1.006,0.186-1.489H15.938z M15.938,50.568"/>
	<path style="fill:#868491;" d="M24.719,50.568h-8.782c0.114,0.482,0.184,0.979,0.184,1.489v8.183c0,2.371,1.928,4.299,4.299,4.299
		h4.298V50.568z M24.719,50.568"/>
	<rect x="24.719" y="53.792" style="fill:#868491;" width="8.598" height="2.15"/>
	<rect x="24.72" y="58.091" style="fill:#868491;" width="8.598" height="2.15"/>
	<rect x="16.121" y="53.792" style="fill:#5C546A;" width="8.598" height="2.15"/>
	<rect x="16.121" y="58.091" style="fill:#5C546A;" width="8.598" height="2.15"/>
</g>
</svg>
