<?xml version="1.0" encoding="iso-8859-1"?>
<!-- Generator: Adobe Illustrator 22.0.1, SVG Export Plug-In . SVG Version: 6.00 Build 0)  -->
<svg version="1.1" id="Capa_1" xmlns="http://www.w3.org/2000/svg" xmlns:xlink="http://www.w3.org/1999/xlink" x="0px" y="0px"
	 viewBox="-49 151.884 129.211 123.717" style="enable-background:new -49 151.884 129.211 123.717;" xml:space="preserve">
<path style="fill:#464D59;" d="M-27.958,215.642l-3.305,0.897c-6.186,1.678-11.895,4.776-16.674,9.048l0,0
	c-1.417,1.266-1.417,3.483,0,4.749l0,0c4.779,4.272,10.488,7.37,16.674,9.048l3.305,0.897L-27.958,215.642L-27.958,215.642z"/>
<path style="fill:#ABDFEB;" d="M5.819,208.315h17.452c11.864,0,21.481-9.617,21.481-21.481l0,0c0-11.864-9.617-21.481-21.481-21.481
	l0,0c-11.864,0-21.481,9.617-21.481,21.481v17.452C1.79,206.511,3.593,208.315,5.819,208.315z"/>
<path style="fill:#8BCDD8;" d="M5.819,208.315h17.452c11.864,0,21.481-9.617,21.481-21.481l0,0c0-11.864-9.617-21.481-21.481-21.481
	l0,0c-11.864,0-21.481,9.617-21.481,21.481v17.452C1.79,206.511,3.593,208.315,5.819,208.315z"/>
<path style="fill:#464D59;" d="M-20.334,275.601c-0.992,0-1.993-0.309-2.849-0.949c-2.108-1.575-2.539-4.561-0.964-6.669
	c3.617-4.839,3.617-9.56,3.617-16.707c0-2.631,2.133-4.765,4.765-4.765S-11,248.645-11,251.276c0,7.732,0,15.036-5.513,22.412
	C-17.449,274.94-18.883,275.601-20.334,275.601z"/>
<path style="opacity:0.14;enable-background:new    ;" d="M-15.765,246.512c-2.631,0-4.765,2.133-4.765,4.765
	c0,3.105-0.001,5.752-0.297,8.149c2.842,1.4,5.941,2.356,9.21,2.772c0.615-3.579,0.617-7.2,0.617-10.922
	C-11,248.645-13.134,246.512-15.765,246.512z"/>
<g>
	<path style="fill:#464D59;" d="M-1.795,275.601c-0.992,0-1.993-0.309-2.849-0.949c-2.108-1.576-2.539-4.561-0.964-6.669
		c3.617-4.839,3.617-9.56,3.617-16.707c0-2.631,2.133-4.765,4.765-4.765s4.765,2.133,4.765,4.765c0,7.732,0,15.036-5.514,22.412
		C1.09,274.94-0.344,275.601-1.795,275.601z"/>
	<path style="fill:#464D59;" d="M16.744,275.601c-0.992,0-1.993-0.309-2.849-0.949c-2.108-1.575-2.539-4.561-0.964-6.669
		c3.617-4.839,3.617-9.56,3.617-16.707c0-2.631,2.133-4.765,4.765-4.765s4.765,2.133,4.765,4.765c0,7.732,0,15.036-5.513,22.412
		C19.629,274.94,18.195,275.601,16.744,275.601z"/>
</g>
<path style="opacity:0.14;enable-background:new    ;" d="M21.313,246.512c-2.631,0-4.765,2.133-4.765,4.765
	c0,4.458,0,7.972-0.878,11.159h9.75c0.656-3.656,0.658-7.356,0.658-11.159C26.078,248.645,23.944,246.512,21.313,246.512z"/>
<path style="fill:#464D59;" d="M35.283,275.601c-0.992,0-1.993-0.309-2.849-0.949c-2.108-1.575-2.539-4.561-0.964-6.669
	c3.617-4.839,3.617-9.56,3.617-16.707c0-2.631,2.133-4.765,4.765-4.765s4.765,2.133,4.765,4.765c0,7.732,0,15.036-5.513,22.412
	C38.168,274.94,36.734,275.601,35.283,275.601z"/>
<path style="opacity:0.14;enable-background:new    ;" d="M39.852,246.512c-2.631,0-4.765,2.133-4.765,4.765
	c0,4.066-0.001,7.346-0.667,10.31c3.696-0.909,7.117-2.516,10.114-4.676c0.082-1.857,0.083-3.732,0.083-5.634
	C44.617,248.645,42.483,246.512,39.852,246.512z"/>
<path style="fill:#F7D88B;" d="M27.388,257.326H-7.866c-16.218,0-29.365-13.147-29.365-29.365l0,0
	c0-16.218,13.147-29.365,29.365-29.365h35.254c16.218,0,29.365,13.147,29.365,29.365l0,0
	C56.753,244.179,43.606,257.326,27.388,257.326z"/>
<path style="opacity:0.14;enable-background:new    ;" d="M2.774,246.512c-2.631,0-4.765,2.133-4.765,4.765
	c0,4.458,0,7.972-0.878,11.159h9.75c0.656-3.656,0.658-7.356,0.658-11.159C7.539,248.645,5.405,246.512,2.774,246.512z"/>
<path style="fill:#464D59;" d="M-7.866,198.596c-0.57,0-1.135,0.018-1.697,0.05c-11.362,13.92-10.749,44.621,5.193,58.68h26.968
	c-15.961-14.075-16.557-44.834-5.153-58.73H-7.866z"/>
<path style="opacity:0.05;enable-background:new    ;" d="M27.388,198.596H2.915c-2.446,4.308-3.818,9.14-3.818,14.245
	c0,18.105,17.245,32.782,38.518,32.782c5.307,0,10.363-0.914,14.964-2.566c2.649-4.412,4.174-9.576,4.174-15.096l0,0
	C56.753,211.743,43.606,198.596,27.388,198.596z"/>
<path style="fill:#ABDFEB;" d="M1.246,208.315h-17.452c-11.864,0-21.481-9.617-21.481-21.481l0,0
	c0-11.864,9.617-21.481,21.481-21.481l0,0c11.864,0,21.481,9.617,21.481,21.481v17.452C5.275,206.511,3.471,208.315,1.246,208.315z"
	/>
<ellipse style="fill:#F7D88B;" cx="41.692" cy="207.078" rx="38.518" ry="32.782"/>
<g>
	<ellipse style="fill:#F27281;" cx="24.532" cy="206.56" rx="7.461" ry="5.941"/>
	<ellipse style="fill:#F27281;" cx="64.973" cy="206.56" rx="7.461" ry="5.941"/>
</g>
<g>
	<path style="fill:#464D59;" d="M32.431,201.988c-1.046,0-1.893-0.847-1.893-1.893c0-0.914-0.744-1.658-1.658-1.658
		c-0.915,0-1.659,0.744-1.659,1.658c0,1.046-0.847,1.893-1.893,1.893c-1.046,0-1.893-0.847-1.893-1.893
		c0-3.002,2.442-5.444,5.444-5.444s5.444,2.442,5.444,5.444C34.324,201.141,33.477,201.988,32.431,201.988z"/>
	<path style="fill:#464D59;" d="M64.175,201.988c-1.046,0-1.893-0.847-1.893-1.893c0-0.914-0.744-1.658-1.658-1.658
		c-0.915,0-1.659,0.744-1.659,1.658c0,1.046-0.847,1.893-1.893,1.893s-1.893-0.847-1.893-1.893c0-3.002,2.442-5.444,5.444-5.444
		c3.002,0,5.444,2.442,5.444,5.444C66.068,201.141,65.221,201.988,64.175,201.988z"/>
	<path style="fill:#464D59;" d="M44.752,207.855c-1.991,0-3.884-0.862-5.194-2.365c-0.687-0.788-0.605-1.984,0.183-2.671
		c0.789-0.687,1.984-0.605,2.671,0.183c0.591,0.678,1.444,1.067,2.34,1.067c0.896,0,1.749-0.389,2.34-1.067
		c0.687-0.788,1.882-0.87,2.671-0.183c0.788,0.687,0.87,1.882,0.183,2.671C48.636,206.993,46.743,207.855,44.752,207.855z"/>
	<path style="fill:#464D59;" d="M28.117,183.106c-0.92,0-1.727-0.673-1.869-1.61c-0.637-4.22-0.544-22.099,11.78-25.929
		c0.998-0.311,2.059,0.248,2.369,1.246c0.31,0.998-0.247,2.059-1.246,2.369c-3.942,1.225-6.71,4.667-8.226,10.23
		c-1.263,4.634-1.251,9.427-0.935,11.519c0.156,1.034-0.555,1.998-1.589,2.154C28.306,183.099,28.211,183.106,28.117,183.106z"/>
	<circle style="fill:#464D59;" cx="38.591" cy="157.373" r="5.489"/>
	<path style="fill:#464D59;" d="M55.265,183.106c-0.92,0-1.727-0.673-1.869-1.61c-0.637-4.22-0.544-22.099,11.78-25.929
		c0.998-0.311,2.059,0.248,2.369,1.246c0.31,0.998-0.247,2.059-1.246,2.369c-3.942,1.225-6.71,4.667-8.226,10.23
		c-1.263,4.634-1.251,9.427-0.935,11.519c0.156,1.034-0.555,1.998-1.589,2.154C55.454,183.099,55.359,183.106,55.265,183.106z"/>
	<circle style="fill:#464D59;" cx="65.738" cy="157.373" r="5.489"/>
</g>
</svg>
