<?xml version="1.0" encoding="iso-8859-1"?>
<!-- Generator: Adobe Illustrator 22.0.1, SVG Export Plug-In . SVG Version: 6.00 Build 0)  -->
<svg version="1.1" id="&#x421;&#x43B;&#x43E;&#x439;_1"
	 xmlns="http://www.w3.org/2000/svg" xmlns:xlink="http://www.w3.org/1999/xlink" x="0px" y="0px" viewBox="0 0 111 100.843"
	 style="enable-background:new 0 0 111 100.843;" xml:space="preserve">
<g>
	<g>
		<defs>
			<rect id="SVGID_1_" width="111" height="100.843"/>
		</defs>
		<clipPath id="SVGID_2_">
			<use xlink:href="#SVGID_1_"  style="overflow:visible;"/>
		</clipPath>
		<path style="clip-path:url(#SVGID_2_);fill:#E2574C;" d="M9.708,15.119c16.451-16.71,32.643-9.351,45.717,2.511
			c12.988-11.862,29.18-19.308,45.718-2.511c12.901,13.075,12.988,34.115,0,47.19C79.41,82.223,68.067,92.527,62.092,97.981
			c-3.723,3.377-9.351,3.377-13.075,0c-5.974-5.368-17.403-15.759-39.309-35.672C-3.28,49.321-3.192,28.28,9.708,15.119
			L9.708,15.119z M9.708,15.119"/>
		<path style="clip-path:url(#SVGID_2_);fill:#D65348;" d="M55.425,17.63v82.949c2.338,0,4.763-0.865,6.667-2.511
			c5.975-5.454,17.317-15.759,39.051-35.674c12.988-13.074,12.901-34.115,0-47.188C84.605-1.678,68.413,5.768,55.425,17.63
			L55.425,17.63z M55.425,17.63"/>
	</g>
	<path style="fill:#E67067;" d="M12.133,37.718c0-11.17,9.091-20.261,20.261-20.261c1.299,0,2.251,1.039,2.251,2.251
		c0,1.299-1.039,2.251-2.251,2.251c-8.659,0-15.671,7.014-15.671,15.673c0,1.299-1.039,2.251-2.252,2.251
		C13.171,39.969,12.133,38.931,12.133,37.718L12.133,37.718z M12.133,37.718"/>
</g>
</svg>
