<?xml version="1.0" encoding="iso-8859-1"?>
<!-- Generator: Adobe Illustrator 22.0.1, SVG Export Plug-In . SVG Version: 6.00 Build 0)  -->
<svg version="1.1" id="Capa_1" xmlns="http://www.w3.org/2000/svg" xmlns:xlink="http://www.w3.org/1999/xlink" x="0px" y="0px"
	 viewBox="-49 141 118.364 118.364" style="enable-background:new -49 141 118.364 118.364;" xml:space="preserve">
<circle style="fill:#FFD93B;" cx="10.182" cy="200.182" r="59.182"/>
<path style="fill:#664500;" d="M28.809,234.433c2.885,0.747,5.741-1.424,5.626-4.402c-0.488-12.695-10.96-23.292-24.253-23.292
	c-13.32,0-23.787,10.627-24.253,23.332c-0.107,2.963,2.722,5.141,5.593,4.405C4.267,231.223,16.688,231.289,28.809,234.433z"/>
<path style="fill:#E24B4B;" d="M23.794,233.324c0.133-0.614,0.215-1.247,0.215-1.905c0-4.953-4.01-8.962-8.944-8.962
	c-2.449,0-4.646,0.962-6.24,2.537c-1.087-0.455-2.267-0.706-3.521-0.706c-4.934,0-8.944,4.01-8.944,8.944
	c0,0.055,0.015,0.107,0.018,0.163C5.684,231.626,14.82,231.637,23.794,233.324z"/>
<path style="fill:#65B1EF;" d="M55.016,221.913c0-4.217-7.634-17.178-7.634-17.178s-7.634,12.961-7.634,17.178
	c0,4.217,3.418,7.634,7.634,7.634S55.016,226.129,55.016,221.913z"/>
<g>
	<path style="fill:#664500;" d="M48.195,203.722l-6.61-7.209c-7.601-8.263-21.272-8.504-21.424-8.504l-3.754-0.03l2.763-2.556
		c3.514-3.303,7.242-4.598,10.997-3.847c8.322,1.624,13.671,12.798,13.882,13.279L48.195,203.722z"/>
	<path style="fill:#664500;" d="M14.813,151.886c15.158,17.048,19.785,17.891,25.004,22.563c-5.045-0.007-11.518-2.29-16.534-6.817
		C17.095,161.802,14.757,155.673,14.813,151.886z"/>
	<path style="fill:#664500;" d="M-28.223,203.722l6.61-7.209c7.601-8.263,21.272-8.504,21.424-8.504l3.754-0.03l-2.763-2.556
		c-3.514-3.303-7.242-4.598-10.997-3.847c-8.322,1.624-13.671,12.798-13.882,13.279L-28.223,203.722z"/>
	<path style="fill:#664500;" d="M5.159,151.886c-15.158,17.048-19.785,17.891-25.004,22.563c5.045-0.007,11.518-2.29,16.534-6.817
		C2.88,161.802,5.214,155.673,5.159,151.886z"/>
</g>
<g style="opacity:0.2;">
	<path style="fill:#FFFFFF;" d="M51.502,225.319c-1.069,1.272-2.626,1.794-3.396,1.095c-0.806-0.662-0.555-2.253,0.547-3.529
		c1.073-1.306,2.593-1.794,3.396-1.095C52.856,222.456,52.604,224.047,51.502,225.319z"/>
</g>
</svg>
