<?xml version="1.0" encoding="iso-8859-1"?>
<!-- Generator: Adobe Illustrator 22.0.1, SVG Export Plug-In . SVG Version: 6.00 Build 0)  -->
<svg version="1.1" id="&#x421;&#x43B;&#x43E;&#x439;_1"
	 xmlns="http://www.w3.org/2000/svg" xmlns:xlink="http://www.w3.org/1999/xlink" x="0px" y="0px" viewBox="0 0 34.501 36.763"
	 style="enable-background:new 0 0 34.501 36.763;" xml:space="preserve">
<g>
	<g>
		<defs>
			<rect id="SVGID_1_" width="34.501" height="36.763"/>
		</defs>
		<clipPath id="SVGID_2_">
			<use xlink:href="#SVGID_1_"  style="overflow:visible;"/>
		</clipPath>
		<path style="clip-path:url(#SVGID_2_);" d="M34.036,32.816l-8.518-8.859c2.191-2.606,3.391-5.883,3.391-9.295
			c0-7.969-6.484-14.453-14.456-14.453C6.484,0.21,0,6.694,0,14.663c0,7.972,6.484,14.456,14.452,14.456
			c2.992,0,5.846-0.902,8.282-2.617l8.586,8.929c0.359,0.375,0.841,0.58,1.36,0.58c0.488,0,0.951-0.187,1.304-0.527
			C34.736,34.762,34.757,33.568,34.036,32.816L34.036,32.816z M14.452,3.981c5.892,0,10.685,4.793,10.685,10.682
			c0,5.892-4.793,10.684-10.685,10.684c-5.888,0-10.681-4.793-10.681-10.684C3.771,8.775,8.564,3.981,14.452,3.981L14.452,3.981z
			 M14.452,3.981"/>
	</g>
</g>
</svg>
