<?xml version="1.0" encoding="iso-8859-1"?>
<!-- Generator: Adobe Illustrator 22.0.1, SVG Export Plug-In . SVG Version: 6.00 Build 0)  -->
<svg version="1.1" id="Capa_1" xmlns="http://www.w3.org/2000/svg" xmlns:xlink="http://www.w3.org/1999/xlink" x="0px" y="0px"
	 viewBox="-23.254 141 299.254 332.715" style="enable-background:new -23.254 141 299.254 332.715;" xml:space="preserve">
<path style="fill:#FFB915;" d="M245.666,435.478c-29.41,24.657-66.752,38.236-105.146,38.236
	c-43.745,0-84.873-17.035-115.806-47.968s-47.968-72.061-47.968-115.806s17.035-84.873,47.968-115.806s72.061-47.969,115.806-47.969
	c35.806,0,69.832,11.371,98.4,32.885c3.327,2.505,4.694,6.847,3.404,10.807c-1.291,3.96-4.954,6.662-9.118,6.726
	c-60.136,0.924-109.059,50.617-109.059,110.773c0,61.093,49.702,110.795,110.795,110.795c1.029,0,2.14-0.018,3.399-0.057
	c0.799-0.029,1.6,0.049,2.382,0.221l0.69,0.154c3.651,0.769,6.542,3.555,7.447,7.173
	C249.765,429.263,248.525,433.082,245.666,435.478z"/>
<path style="fill:#73788C;" d="M71.323,305.063c-1.573-5.149-7.022-8.044-12.171-6.474c-5.884,1.8-12.173,0.841-17.256-2.627
	l-0.972-0.663c-4.447-3.034-10.512-1.888-13.545,2.56s-1.888,10.512,2.56,13.545l0.972,0.663c6.687,4.561,14.434,6.914,22.295,6.914
	c3.891,0,7.812-0.577,11.643-1.747C69.998,315.66,72.897,310.211,71.323,305.063z"/>
<path style="fill:#414B50;" d="M159.561,375.057c-3.806-3.806-9.978-3.806-13.785,0c-17.537,17.536-38.983,5.772-39.973,5.213
	c-4.644-2.673-10.582-1.096-13.283,3.54c-2.71,4.652-1.138,10.62,3.513,13.33c0.905,0.528,9.172,5.191,20.844,6.617
	c2.256,0.276,4.483,0.413,6.68,0.413c13.565,0,25.906-5.228,36.005-15.327C163.367,385.035,163.367,378.863,159.561,375.057z"/>
<path style="fill:#CDD2E1;" d="M238.921,179.052c-28.569-21.515-62.595-32.886-98.4-32.886c-5.036,0-10.034,0.237-14.988,0.683
	c-24.685,2.226-48.223,9.926-69.183,22.527c-11.381,6.843-22.003,15.126-31.635,24.759c-7.745,7.745-14.618,16.13-20.572,25.034
	l126.151,51.989c4.009-11.463,9.854-22.096,17.189-31.529c7.784-10.009,17.241-18.664,27.936-25.54
	c16.766-10.779,36.577-17.178,57.788-17.505c4.164-0.064,7.827-2.766,9.118-6.726C243.615,185.899,242.247,181.557,238.921,179.052z
	"/>
<path style="fill:#C73A5A;" d="M239.403,141c-20.179,0-36.596,16.417-36.596,36.596c0,20.18,16.417,36.597,36.596,36.597
	c20.179,0,36.597-16.417,36.597-36.597C275.999,157.417,259.583,141,239.403,141z"/>
<g>
	<path style="fill:#004866;" d="M129.314,260.21L11.055,211.474c-4.978-2.05-10.675,0.32-12.726,5.297
		c-2.051,4.978,0.321,10.675,5.298,12.726l118.259,48.736c1.215,0.501,2.473,0.738,3.71,0.738c3.831,0,7.465-2.274,9.016-6.036
		C136.663,267.959,134.291,262.261,129.314,260.21z"/>
	<path style="fill:#004866;" d="M175.419,214.089l-49.887-67.24c-22.588,2.037-44.216,8.657-63.787,19.422l85.738,73.357
		C155.267,229.619,164.725,220.965,175.419,214.089z"/>
</g>
<path style="fill:#D69110;" d="M91.514,386.267c-0.427,1.64-0.419,3.338,0,4.931V386.267z"/>
<path style="fill:#EBF0FA;" d="M91.514,153.609c-12.299,3.837-24.094,9.11-35.165,15.766c-11.381,6.843-22.003,15.126-31.635,24.759
	c-7.745,7.745-14.618,16.13-20.572,25.034l87.371,36.007L91.514,153.609L91.514,153.609z"/>
<g>
	<path style="fill:#007FB8;" d="M91.514,244.632l-80.458-33.158c-4.978-2.05-10.675,0.32-12.726,5.297
		c-2.051,4.978,0.321,10.675,5.298,12.726l87.887,36.219V244.632z"/>
	<path style="fill:#007FB8;" d="M91.514,153.603c-10.321,3.22-20.288,7.453-29.77,12.668l29.77,25.47V153.603z"/>
</g>
</svg>
