<?xml version="1.0" encoding="iso-8859-1"?>
<!-- Generator: Adobe Illustrator 22.0.1, SVG Export Plug-In . SVG Version: 6.00 Build 0)  -->
<svg version="1.1" id="&#x421;&#x43B;&#x43E;&#x439;_1"
	 xmlns="http://www.w3.org/2000/svg" xmlns:xlink="http://www.w3.org/1999/xlink" x="0px" y="0px" viewBox="0 0 35.947 20.653"
	 style="enable-background:new 0 0 35.947 20.653; fill: #bababa;" xml:space="preserve">
<g>
	<g>
		<defs>
			<rect id="SVGID_1_" width="35.947" height="20.653"/>
		</defs>
		<clipPath id="SVGID_2_">
			<use xlink:href="#SVGID_1_"  style="overflow:visible;"/>
		</clipPath>
		<path style="clip-path:url(#SVGID_2_);" d="M19.05,20.305L35.591,3.763c0.236-0.238,0.355-0.51,0.355-0.817
			c0-0.308-0.119-0.581-0.355-0.817l-1.774-1.774C33.581,0.119,33.308,0,33,0c-0.309,0-0.581,0.119-0.817,0.355l-13.95,13.951
			L4.28,0.355C4.045,0.119,3.772,0,3.463,0C3.157,0,2.885,0.119,2.646,0.355L0.873,2.13C0.636,2.366,0.519,2.638,0.519,2.947
			c0,0.307,0.117,0.579,0.353,0.817l16.544,16.541c0.236,0.236,0.508,0.356,0.817,0.356C18.539,20.661,18.811,20.543,19.05,20.305
			L19.05,20.305z M19.05,20.305"/>
	</g>
</g>
</svg>
