<?xml version="1.0" encoding="iso-8859-1"?>
<!-- Generator: Adobe Illustrator 22.0.1, SVG Export Plug-In . SVG Version: 6.00 Build 0)  -->
<svg version="1.1" id="&#x421;&#x43B;&#x43E;&#x439;_1"
	 xmlns="http://www.w3.org/2000/svg" xmlns:xlink="http://www.w3.org/1999/xlink" x="0px" y="0px" viewBox="0 0 119.946 146.627"
	 style="enable-background:new 0 0 119.946 146.627;" xml:space="preserve">
<g>
	<path style="fill:#102D35;" d="M99.639,92.085c1.653-7.32,2.598-15.585,2.598-23.848C102.238,30.458,83.349,0,59.973,0
		C36.597,0,17.709,30.694,17.709,68.237c0,8.5,0.944,16.528,2.597,23.848C7.792,99.168,0,109.557,0,120.89
		c0,21.251,26.917,25.501,59.973,25.501c33.056,0,59.974-4.25,59.974-25.501C119.946,109.321,112.154,99.168,99.639,92.085
		L99.639,92.085z M99.639,92.085"/>
	<path style="fill:#102D35;" d="M59.973,146.627c33.056,0,59.974-4.25,59.974-25.501c0-11.569-7.792-21.958-20.307-28.807
		c1.653-7.32,2.598-15.583,2.598-23.846c0-37.779-18.889-68.237-42.265-68.237"/>
	<path style="fill:#FFFFFF;" d="M92.32,51.709c0-26.208-14.639-34.237-32.347-34.237s-32.348,8.265-32.348,34.237
		c0,18.889,7.556,35.181,18.654,42.737c2.597,17.236,7.791,33.291,13.694,33.291s11.098-16.055,13.695-33.291
		C84.766,87.126,92.32,70.834,92.32,51.709L92.32,51.709z M92.32,51.709"/>
	<path style="fill:#D3EDEB;" d="M59.973,127.974c5.903,0,11.098-16.056,13.695-33.291C84.766,87.126,92.32,70.834,92.32,51.946
		c0-26.208-14.639-34.237-32.347-34.237"/>
	<path style="fill:#B8D1D1;" d="M67.057,89.723c0,15.112-3.07,31.64-7.085,31.64c-3.777,0-7.083-16.292-7.083-31.64
		c0-15.346,3.07-12.513,7.083-12.513C63.751,77.21,67.057,74.377,67.057,89.723L67.057,89.723z M67.057,89.723"/>
	<path style="fill:#065177;" d="M67.057,87.363c0,15.112-3.07,27.625-7.085,27.625c-3.777,0-7.083-12.279-7.083-27.625
		c0-15.348,3.07-12.515,7.083-12.515C63.751,74.611,67.057,72.014,67.057,87.363L67.057,87.363z M67.057,87.363"/>
	<path style="fill:#102D35;" d="M59.973,74.611c3.779,0,7.085-2.597,7.085,12.515s-3.07,27.625-7.085,27.625"/>
	<path style="fill:#102D35;" d="M53.362,37.306c3.306,3.304,1.416,10.389-4.014,15.819c-5.432,5.43-12.515,7.083-15.821,3.777
		c-3.304-3.304,4.015-4.721,9.445-10.153C48.403,41.084,50.056,34,53.362,37.306L53.362,37.306z M53.362,37.306"/>
	<path style="fill:#065177;" d="M33.528,56.668c-3.304-3.306,4.015-4.723,9.445-10.154c5.43-5.43,7.083-12.513,10.389-9.207"/>
	<path style="fill:#102D35;" d="M66.584,37.306c-3.306,3.304-1.416,10.389,4.014,15.819c5.43,5.43,12.515,7.083,15.819,3.777
		c3.306-3.304-4.014-4.721-9.443-10.153C71.543,41.084,69.89,34,66.584,37.306L66.584,37.306z M66.584,37.306"/>
	<path style="fill:#065177;" d="M86.417,56.668c3.306-3.306-4.014-4.723-9.443-10.154c-5.43-5.43-7.083-12.513-10.389-9.207"/>
	<path style="fill:#B8D1D1;" d="M30.458,71.071c3.069,10.389,8.736,18.652,15.82,23.611c-0.236-4.014-1.889-8.5-4.486-12.751
		C38.487,76.737,34.473,72.96,30.458,71.071L30.458,71.071z M30.458,71.071"/>
	<path style="fill:#B8D1D1;" d="M73.904,94.682c7.083-4.723,12.513-13.222,15.819-23.611c-4.014,1.889-8.263,5.666-11.333,10.86
		C75.557,86.182,74.14,90.669,73.904,94.682L73.904,94.682z M73.904,94.682"/>
	<path style="fill:#B8D1D1;" d="M62.571,62.571c-0.946,0-1.89-0.473-2.362-1.417c0,0-0.236-0.236-0.236,0h-0.235
		c-0.236,0.944-1.182,1.417-2.362,1.417c-1.417,0-2.361-0.946-2.361-2.126c0-0.473,0.236-0.708,0.471-1.18l4.487-7.556l4.959,7.556
		v0.944C64.931,61.389,63.751,62.571,62.571,62.571L62.571,62.571z M62.571,62.571"/>
	<path style="fill:#102D35;" d="M62.571,63.042c-0.946,0-1.89-0.471-2.362-1.417c0,0-0.236-0.236-0.236,0h-0.235
		c-0.236,0.946-1.182,1.417-2.362,1.417c-1.417,0-2.361-0.944-2.361-2.124c0-0.473,0.236-0.709,0.471-1.18l4.487-5.195l4.722,4.959
		c0.236,0.471,0.236,0.944,0.236,1.417C64.931,62.098,63.751,63.042,62.571,63.042L62.571,63.042z M62.571,63.042"/>
	<path style="fill:#065177;" d="M59.973,61.389C59.973,61.389,59.738,61.625,59.973,61.389c-0.471,0.946-1.417,1.653-2.597,1.653
		c-1.417,0-2.361-0.944-2.361-2.124c0-0.473,0.236-0.709,0.471-1.18l4.487-5.195"/>
</g>
</svg>
