<?xml version="1.0" encoding="iso-8859-1"?>
<!-- Generator: Adobe Illustrator 22.0.1, SVG Export Plug-In . SVG Version: 6.00 Build 0)  -->
<svg version="1.1" id="Layer_1" xmlns="http://www.w3.org/2000/svg" xmlns:xlink="http://www.w3.org/1999/xlink" x="0px" y="0px"
	 viewBox="-6.333 188.437 117.333 114.71" style="enable-background:new -6.333 188.437 117.333 114.71;" xml:space="preserve">
<g>
	<path style="fill:#6AC259;" d="M25.854,194.511c-0.005,0.012-0.012,0.018-0.014,0.028l-0.632,1.092
		c-0.014,0.022-0.025,0.047-0.034,0.07L14.32,214.488l22.974,13.263l10.544-18.261l1.32-2.286l3.179-5.502l7.654-13.265H37.018
		C32.339,188.437,28.22,190.856,25.854,194.511z"/>
	<path style="fill:#6AC259;" d="M79.135,195.068c-1.123-1.951-2.763-3.646-4.854-4.854c-2.092-1.209-4.377-1.778-6.634-1.778H44.677
		h-7.658c4.67,0,8.775,2.404,11.149,6.043l0.717,1.251l18.494,32.019l22.968-13.262L79.135,195.068z"/>
	<polygon style="fill:#6AC259;" points="56.346,227.751 82.691,227.751 95.864,204.939 	"/>
	<path style="fill:#6AC259;" d="M109.538,247.729c-0.005-0.008-0.007-0.015-0.019-0.025l-0.63-1.095
		c-0.009-0.025-0.029-0.047-0.039-0.066l-10.846-18.791L75.03,241.016l10.546,18.261l1.32,2.288l3.172,5.503l7.661,13.261
		l11.488-19.894C111.557,256.382,111.52,251.607,109.538,247.729z"/>
	<path style="fill:#6AC259;" d="M82.414,293.596c2.253,0,4.54-0.568,6.629-1.778c2.094-1.209,3.729-2.903,4.856-4.854l11.486-19.895
		l3.832-6.634c-2.337,4.042-6.467,6.398-10.805,6.631h-1.448l-36.974,0.004v26.526h22.424V293.596z"/>
	<polygon style="fill:#6AC259;" points="65.502,257.52 52.336,280.332 65.502,303.147 	"/>
	<path style="fill:#6AC259;" d="M44.673,267.067H23.582h-2.64l-6.352-0.001l-15.313,0.001l11.483,19.895
		c2.342,4.052,6.492,6.409,10.842,6.631c0.012-0.001,0.019,0,0.032,0h1.263c0.025,0.004,0.053,0,0.08-0.004l21.695,0.004v-26.526
		H44.673z"/>
	<path style="fill:#6AC259;" d="M-4.559,247.17c-1.121,1.95-1.774,4.215-1.774,6.632c0,2.416,0.654,4.678,1.774,6.631l11.488,19.893
		l3.832,6.635c-2.333-4.042-2.306-8.8-0.341-12.676l0.722-1.251l18.487-32.021L6.654,227.748L-4.559,247.17z"/>
	<polygon style="fill:#6AC259;" points="35.139,250.562 21.971,227.751 -4.372,227.747 	"/>
</g>
</svg>
