<?xml version="1.0" encoding="iso-8859-1"?>
<!-- Generator: Adobe Illustrator 22.0.1, SVG Export Plug-In . SVG Version: 6.00 Build 0)  -->
<svg version="1.1" id="&#x421;&#x43B;&#x43E;&#x439;_1"
	 xmlns="http://www.w3.org/2000/svg" xmlns:xlink="http://www.w3.org/1999/xlink" x="0px" y="0px" viewBox="0 0 12.801 10.398"
	 style="enable-background:new 0 0 12.801 10.398; fill: #fff;" xml:space="preserve">
<g>
	<path d="M12.801,1.23c-0.469,0.208-0.977,0.352-1.508,0.415c0.543-0.325,0.957-0.84,1.156-1.454
		c-0.508,0.301-1.07,0.52-1.672,0.637C10.301,0.32,9.617,0,8.863,0C7.414,0,6.238,1.176,6.238,2.625
		c0,0.207,0.024,0.406,0.067,0.598C4.121,3.113,2.188,2.07,0.891,0.48C0.664,0.867,0.535,1.32,0.535,1.801
		c0,0.91,0.465,1.715,1.168,2.183c-0.43-0.011-0.832-0.132-1.187-0.328v0.032c0,1.273,0.906,2.335,2.105,2.578
		C2.402,6.324,2.168,6.355,1.93,6.355c-0.168,0-0.332-0.015-0.496-0.046c0.336,1.043,1.304,1.8,2.453,1.824
		C2.988,8.836,1.855,9.254,0.625,9.254C0.414,9.254,0.207,9.242,0,9.219c1.164,0.746,2.543,1.179,4.027,1.179
		c4.828,0,7.469-4,7.469-7.468l-0.008-0.34C12.004,2.219,12.449,1.758,12.801,1.23L12.801,1.23z M12.801,1.23"/>
</g>
</svg>
