<?xml version="1.0" encoding="iso-8859-1"?>
<!-- Generator: Adobe Illustrator 22.0.1, SVG Export Plug-In . SVG Version: 6.00 Build 0)  -->
<svg version="1.1" id="Layer_1" xmlns="http://www.w3.org/2000/svg" xmlns:xlink="http://www.w3.org/1999/xlink" x="0px" y="0px"
	 viewBox="-31.381 141 56.381 60.548" style="enable-background:new -31.381 141 56.381 60.548;fill:#5f6061;" xml:space="preserve">
<path d="M-16.271,181.242c3.333,2.752,7.751,4.127,13.193,4.127c5.382,0,9.727-1.375,13.051-4.127
	c3.323-2.751,4.977-6.627,4.977-11.628V141H4.654v28.615c0,2.711-0.613,4.709-1.968,5.994c-1.355,1.285-3.256,1.928-5.767,1.928
	c-2.53,0-4.489-0.648-5.875-1.943c-1.385-1.295-2.079-3.288-2.079-5.98V141H-21.33v28.615
	C-21.33,174.615-19.605,178.491-16.271,181.242z"/>
<rect x="-31.381" y="193.458" width="56.381" height="8.089"/>
</svg>
