<?xml version="1.0" encoding="iso-8859-1"?>
<!-- Generator: Adobe Illustrator 22.0.1, SVG Export Plug-In . SVG Version: 6.00 Build 0)  -->
<svg version="1.1" id="&#x421;&#x43B;&#x43E;&#x439;_1"
	 xmlns="http://www.w3.org/2000/svg" xmlns:xlink="http://www.w3.org/1999/xlink" x="0px" y="0px" viewBox="0 0 54.945 35.199"
	 style="enable-background:new 0 0 54.945 35.199;" xml:space="preserve">
<g>
	<path style="fill:#B9BBC1;" d="M20.605,0c-1.453,0-2.754,0.92-3.238,2.289c-0.158,0.447,0.075,0.938,0.523,1.096
		c0.293,0.105,0.6,0.026,0.826-0.161l3.606,4.33v1.031c0,0.474,0.384,0.858,0.859,0.858c0.474,0,0.858-0.384,0.858-0.858V3.434
		C24.038,1.541,22.498,0,20.605,0L20.605,0z M20.605,0"/>
	<path style="fill:#8B8996;" d="M18.029,1.717c-1.574,0-3.061,0.604-4.22,1.736L2.801,15.469l1.266,1.16l0.297-0.325l17.957,4.923
		v0.235c0,0.474,0.384,0.858,0.859,0.858c0.474,0,0.858-0.384,0.858-0.858V7.727C24.038,4.413,21.343,1.717,18.029,1.717
		L18.029,1.717z M18.029,1.717"/>
	<path style="fill:#B9BBC1;" d="M34.341,0c1.452,0,2.754,0.92,3.238,2.289c0.159,0.447-0.076,0.938-0.523,1.096
		c-0.293,0.105-0.6,0.026-0.826-0.161l-3.606,4.33v1.031c0,0.474-0.384,0.858-0.858,0.858c-0.475,0-0.859-0.384-0.859-0.858V3.434
		C30.906,1.541,32.447,0,34.341,0L34.341,0z M34.341,0"/>
	<path style="fill:#8B8996;" d="M36.916,1.717c1.574,0,3.061,0.604,4.221,1.736L52.144,15.47l-1.266,1.159l-0.298-0.325
		l-17.957,4.923v0.235c0,0.474-0.384,0.858-0.858,0.858c-0.475,0-0.859-0.384-0.859-0.858V7.727
		C30.906,4.413,33.603,1.717,36.916,1.717L36.916,1.717z M36.916,1.717"/>
	<path style="fill:#53DCFF;" d="M21.463,23.18c0,5.215-4.228,9.443-9.443,9.443c-5.216,0-9.444-4.228-9.444-9.443
		c0-5.216,4.228-9.444,9.444-9.444C17.235,13.736,21.463,17.964,21.463,23.18L21.463,23.18z M21.463,23.18"/>
	<path style="fill:#5C546A;" d="M12.02,11.161C5.392,11.161,0,16.553,0,23.18s5.392,12.019,12.02,12.019
		c6.627,0,12.019-5.391,12.019-12.019S18.647,11.161,12.02,11.161L12.02,11.161z M12.02,31.765c-4.734,0-8.585-3.851-8.585-8.585
		s3.851-8.585,8.585-8.585c4.734,0,8.585,3.851,8.585,8.585S16.753,31.765,12.02,31.765L12.02,31.765z M12.02,31.765"/>
	<path style="fill:#5C546A;" d="M20.605,12.02h13.736l0.132-0.002c-1.671,1.636-2.707,3.917-2.707,6.441v3.005H23.18v-3.005
		c0-2.524-1.037-4.805-2.708-6.441"/>
	<path style="fill:#FFFFFF;" d="M17.17,21.463c0,1.896-1.537,3.434-3.434,3.434c-1.896,0-3.434-1.538-3.434-3.434
		c0-1.896,1.537-3.434,3.434-3.434C15.633,18.029,17.17,19.567,17.17,21.463L17.17,21.463z M17.17,21.463"/>
	<path style="fill:#53DCFF;" d="M52.369,23.18c0,5.215-4.228,9.443-9.443,9.443c-5.215,0-9.443-4.228-9.443-9.443
		c0-5.216,4.228-9.444,9.443-9.444C48.141,13.736,52.369,17.964,52.369,23.18L52.369,23.18z M52.369,23.18"/>
	<path style="fill:#5C546A;" d="M42.926,11.161c-6.627,0-12.02,5.392-12.02,12.02s5.392,12.019,12.02,12.019
		c6.628,0,12.02-5.391,12.02-12.019S49.553,11.161,42.926,11.161L42.926,11.161z M42.926,31.765c-4.734,0-8.585-3.851-8.585-8.585
		s3.851-8.585,8.585-8.585s8.585,3.851,8.585,8.585S47.66,31.765,42.926,31.765L42.926,31.765z M42.926,31.765"/>
	<path style="fill:#FFFFFF;" d="M48.077,21.463c0,1.896-1.537,3.434-3.434,3.434c-1.897,0-3.434-1.538-3.434-3.434
		c0-1.896,1.537-3.434,3.434-3.434C46.54,18.029,48.077,19.567,48.077,21.463L48.077,21.463z M48.077,21.463"/>
	<rect x="20.605" y="10.302" style="fill:#8B8996;" width="13.736" height="1.717"/>
</g>
</svg>
