<?xml version="1.0" encoding="iso-8859-1"?>
<!-- Generator: Adobe Illustrator 22.0.1, SVG Export Plug-In . SVG Version: 6.00 Build 0)  -->
<svg version="1.1" id="&#x421;&#x43B;&#x43E;&#x439;_1"
	 xmlns="http://www.w3.org/2000/svg" xmlns:xlink="http://www.w3.org/1999/xlink" x="0px" y="0px" viewBox="0 0 78 44"
	 style="enable-background:new 0 0 78 44; fill: #fff;" xml:space="preserve">
<g>
	<g>
		<defs>
			<rect id="SVGID_1_" width="78" height="44"/>
		</defs>
		<clipPath id="SVGID_2_">
			<use xlink:href="#SVGID_1_"  style="overflow:visible;"/>
		</clipPath>
		<path style="clip-path:url(#SVGID_2_);fill-rule:evenodd;clip-rule:evenodd;" d="M74,35.386c-2.301-2.758-5.004-5.109-7.562-7.605
			c-2.309-2.254-2.458-3.559-0.598-6.16c2.023-2.836,4.203-5.563,6.246-8.387c1.906-2.641,3.859-5.273,4.863-8.434
			c0.637-2.007,0.074-2.898-1.988-3.25c-0.356-0.062-0.723-0.062-1.086-0.062l-12.23-0.016c-1.508-0.023-2.34,0.633-2.872,1.969
			c-0.722,1.805-1.461,3.609-2.32,5.352c-1.941,3.945-4.113,7.765-7.156,10.996c-0.672,0.711-1.414,1.613-2.535,1.242
			c-1.407-0.512-1.817-2.824-1.797-3.606L44.953,3.308C44.684,1.293,44.234,0.39,42.234,0L29.527,0.003
			c-1.695,0-2.547,0.653-3.453,1.715c-0.523,0.614-0.679,1.012,0.395,1.215c2.109,0.399,3.297,1.762,3.613,3.879
			c0.504,3.379,0.469,6.77,0.18,10.16c-0.086,0.992-0.258,1.981-0.653,2.903c-0.613,1.457-1.605,1.75-2.906,0.855
			c-1.18-0.809-2.012-1.949-2.82-3.098c-3.047-4.304-5.481-8.949-7.461-13.828c-0.574-1.41-1.563-2.265-3.055-2.285
			c-3.672-0.058-7.34-0.07-11.012,0C0.148,1.562-0.508,2.632,0.391,4.636c3.996,8.891,8.445,17.535,14.25,25.407
			c2.984,4.043,6.406,7.609,10.828,10.136c5.011,2.867,10.406,3.727,16.09,3.461c2.66-0.125,3.461-0.816,3.582-3.469
			c0.086-1.812,0.289-3.617,1.187-5.246c0.875-1.601,2.207-1.906,3.742-0.91c0.766,0.5,1.41,1.133,2.024,1.801
			c1.496,1.641,2.941,3.328,4.496,4.91c1.949,1.985,4.258,3.156,7.16,2.918h11.246c1.809-0.117,2.75-2.34,1.711-4.359
			C75.977,37.867,75.016,36.605,74,35.386L74,35.386z M74,35.386"/>
	</g>
</g>
</svg>
