<?xml version="1.0" encoding="iso-8859-1"?>
<!-- Generator: Adobe Illustrator 22.0.1, SVG Export Plug-In . SVG Version: 6.00 Build 0)  -->
<svg version="1.1" id="&#x421;&#x43B;&#x43E;&#x439;_1"
	 xmlns="http://www.w3.org/2000/svg" xmlns:xlink="http://www.w3.org/1999/xlink" x="0px" y="0px" viewBox="0 0 33.602 35.727"
	 style="enable-background:new 0 0 33.602 35.727;" xml:space="preserve">
<path style="fill:#FFCC4D;" d="M20.746,33.289c7.746-1.496,12.856-8.304,12.856-16.488C33.602,7.524,26.078,0,16.801,0
	C7.523,0,0,7.524,0,16.801c0,8.184,5.855,14.992,13.602,16.488"/>
<path style="fill:#664500;" d="M13.602,13.602c-0.442,0-0.801-0.36-0.801-0.801c0-1.324-1.078-2.402-2.403-2.402
	C9.078,10.399,8,11.477,8,12.801c0,0.441-0.359,0.801-0.801,0.801c-0.441,0-0.801-0.36-0.801-0.801c0-2.207,1.797-4,4-4
	c2.207,0,4,1.793,4,4C14.398,13.242,14.043,13.602,13.602,13.602L13.602,13.602z M13.602,13.602"/>
<path style="fill:#FFFFFF;" d="M28,12c0,2.653-2.148,4.801-4.801,4.801c-2.648,0-4.801-2.148-4.801-4.801
	c0-2.652,2.153-4.801,4.801-4.801C25.852,7.199,28,9.348,28,12L28,12z M28,12"/>
<path style="fill:#E75A70;" d="M13.602,22.399v9.879c0,1.894,1.55,3.449,3.445,3.449h0.305c1.898,0,3.449-1.555,3.449-3.449v-9.879
	H13.602z M13.602,22.399"/>
<path style="fill:#664500;" d="M25.602,12c0,1.324-1.075,2.399-2.403,2.399c-1.324,0-2.398-1.075-2.398-2.399
	c0-1.324,1.074-2.398,2.398-2.398C24.527,9.602,25.602,10.676,25.602,12L25.602,12z M25.602,12"/>
<path style="fill:#664500;" d="M13.602,22.399H8c0,3.73,2.324,6.91,5.602,8.191V22.399z M13.602,22.399"/>
<path style="fill:#664500;" d="M20.801,22.399v8c3.133-1.344,4.801-4.371,4.801-8H20.801z M20.801,22.399"/>
<path style="fill:#954C3C;" d="M16.801,30.399c0,0.441,0.359,0.8,0.801,0.8c0.441,0,0.796-0.359,0.796-0.8
	c0-0.739-0.097-2.793-0.234-4.559c-0.141-1.773-0.262-2.828-0.453-3.441H16c0,0.203,0.074,0.39,0.199,0.531
	C16.488,23.922,16.801,28.977,16.801,30.399L16.801,30.399z M16.801,30.399"/>
</svg>
