<?xml version="1.0" encoding="iso-8859-1"?>
<!-- Generator: Adobe Illustrator 22.0.1, SVG Export Plug-In . SVG Version: 6.00 Build 0)  -->
<svg version="1.1" id="&#x421;&#x43B;&#x43E;&#x439;_1"
	 xmlns="http://www.w3.org/2000/svg" xmlns:xlink="http://www.w3.org/1999/xlink" x="0px" y="0px" viewBox="0 0 375.794 37.884"
	 style="enable-background:new 0 0 375.794 37.884;" xml:space="preserve">
<g>
	<path style="fill:#647bae;" d="M79.405,9.871c-1.025-1.709-3.845-3.332-7.092-3.332c-4.188,0-6.195,1.751-6.195,3.973
		c0,2.606,3.076,3.333,6.665,3.76c6.238,0.769,12.048,2.393,12.048,9.528c0,6.665-5.896,9.527-12.561,9.527
		c-6.109,0-10.81-1.88-13.031-7.349l4.7-2.436c1.324,3.29,4.785,4.743,8.417,4.743c3.546,0,6.878-1.239,6.878-4.486
		c0-2.82-2.948-3.974-6.921-4.401c-6.11-0.726-11.75-2.35-11.75-9.058c0-6.152,6.067-8.673,11.579-8.716
		c4.657,0,9.484,1.325,11.749,5.939L79.405,9.871z"/>
	<path style="fill:#647bae;" d="M110.425,26.918H94.788l-2.563,5.64h-6.11L99.53,2.053h6.152l13.415,30.505h-6.152L110.425,26.918z
		 M102.606,8.932l-5.555,12.731h11.108L102.606,8.932z"/>
	<path style="fill:#647bae;" d="M141.315,2.053h5.64v30.505h-3.504v0.042l-15.723-20.208v20.166h-5.64V2.053h4.572l14.655,19.141
		V2.053z"/>
	<path style="fill:#647bae;" d="M178.486,28.798c-3.076,3.034-7.049,4.443-11.364,4.443c-11.108,0-15.808-7.648-15.851-15.423
		C151.229,10,156.312,2.053,167.122,2.053c4.059,0,7.904,1.538,10.98,4.571l-3.76,3.632c-1.966-1.923-4.614-2.82-7.221-2.82
		c-7.221,0-10.339,5.383-10.297,10.382c0.043,4.956,2.905,10.125,10.297,10.125c2.606,0,5.554-1.068,7.52-3.034L178.486,28.798z"/>
	<path style="fill:#647bae;" d="M188.955,7.778h-9.485V2.053c8.63,0,15.937,0,24.609,0v5.725h-9.485v24.78h-5.639V7.778z"/>
	<path style="fill:#647bae;" d="M234.628,2.053v17.773c0,8.844-5.426,13.373-12.945,13.373c-7.178,0-13.287-4.358-13.287-13.373
		V2.053h5.597v17.773c0,5.383,3.076,8.246,7.733,8.246s7.306-3.119,7.306-8.246V2.053H234.628z"/>
	<path style="fill:#647bae;" d="M261.375,26.918h-15.638l-2.563,5.64h-6.109l13.415-30.505h6.152l13.416,30.505h-6.152
		L261.375,26.918z M253.556,8.932l-5.554,12.731h11.108L253.556,8.932z"/>
	<path style="fill:#647bae;" d="M299.102,32.558h-6.708l-8.716-9.998h-5.426v9.998h-5.641V2.053c4.743,0,9.485,0,14.228,0
		c7.05,0.042,10.767,5.341,10.767,10.51c0,4.102-1.88,8.246-7.563,9.399l9.059,10.211V32.558z M278.252,7.906v9.57h8.587
		c3.589,0,5.127-2.393,5.127-4.785s-1.581-4.785-5.127-4.785H278.252z"/>
	<path style="fill:#647bae;" d="M301.451,32.558V2.053h5.598v30.505H301.451z"/>
	<path style="fill:#647bae;" d="M338.579,2.053v17.773c0,8.844-5.426,13.373-12.945,13.373c-7.178,0-13.287-4.358-13.287-13.373
		V2.053h5.597v17.773c0,5.383,3.076,8.246,7.733,8.246s7.306-3.119,7.306-8.246V2.053H338.579z"/>
	<path style="fill:#647bae;" d="M370.154,10.896l-9.741,12.988h-1.11l-9.527-13.031v21.747h-5.641V2.053h6.494l9.357,13.501
		l9.356-13.501h6.451v30.548h-5.64V10.896z"/>
</g>
<polygon style="fill:#647bae;" points="19.188,37.884 0,30.012 0,0 19.188,7.872 "/>
<polygon style="fill:#647bae;" points="23.124,37.884 42.312,30.012 42.312,0 23.124,7.872 "/>
<g>
</g>
<g>
</g>
<g>
</g>
<g>
</g>
<g>
</g>
<g>
</g>
<g>
</g>
<g>
</g>
<g>
</g>
<g>
</g>
<g>
</g>
<g>
</g>
<g>
</g>
<g>
</g>
<g>
</g>
</svg>
