<svg width="120" height="126" viewBox="0 0 120 126" fill="none" xmlns="http://www.w3.org/2000/svg">
<path opacity="0.25" fill-rule="evenodd" clip-rule="evenodd" d="M26 101.246C26 101.246 26.7151 97.2918 29.5271 106.592C32.3391 115.891 64.1366 136.245 74.7805 119.761C85.4245 103.277 100.473 121.775 110.868 116.827C121.263 111.88 122.909 105.351 115.161 89.6189C107.413 73.8866 126.472 54.7163 107.474 42.3916C88.4748 30.067 103.183 33.0948 103.183 33.0948L108.549 58.4498L103.086 83.4122L77.6544 106.497L51.789 110.129L26 101.246Z" fill="#C3E2FF"/>
<path opacity="0.5" fill-rule="evenodd" clip-rule="evenodd" d="M106 52.3152C106 52.3152 104.587 52.5178 109.5 50.3102C114.413 48.1027 117.947 29.1549 108.182 24.3315C98.4171 19.508 107.549 9.83163 104.131 4.35884C100.713 -1.11396 97.0188 -1.58816 88.9106 3.81839C80.8024 9.22493 65.16 -5.21542 59.6828 6.24744C54.2056 17.7103 63.5092 3.79313 63.5092 3.79313L86.3219 10.9927L100.71 23.6315L106 52.3152Z" fill="#C3E2FF"/>
<path d="M51.8916 68H39.3105V65.7402L44.0967 60.9287C45.5101 59.4814 46.4453 58.4574 46.9023 57.8564C47.3678 57.2471 47.7064 56.6758 47.918 56.1426C48.1296 55.6094 48.2354 55.0381 48.2354 54.4287C48.2354 53.5908 47.9814 52.9307 47.4736 52.4482C46.9743 51.9658 46.2803 51.7246 45.3916 51.7246C44.6807 51.7246 43.9909 51.8558 43.3223 52.1182C42.6621 52.3805 41.8962 52.8545 41.0244 53.54L39.4121 51.5723C40.4447 50.7005 41.4476 50.0827 42.4209 49.7188C43.3942 49.3548 44.431 49.1729 45.5312 49.1729C47.2578 49.1729 48.6416 49.6257 49.6826 50.5312C50.7236 51.4284 51.2441 52.6387 51.2441 54.1621C51.2441 55 51.0918 55.7956 50.7871 56.5488C50.4909 57.3021 50.0296 58.0807 49.4033 58.8848C48.7855 59.6803 47.7529 60.7594 46.3057 62.1221L43.0811 65.2451V65.3721H51.8916V68ZM58.252 65.2705C57.8457 66.8447 57.1009 68.8717 56.0176 71.3516H53.8213C54.4053 69.0664 54.8411 66.9421 55.1289 64.9785H58.0615L58.252 65.2705ZM67.418 56.4092C69.2884 56.4092 70.7695 56.9043 71.8613 57.8945C72.9531 58.8848 73.499 60.2347 73.499 61.9443C73.499 63.9248 72.877 65.4736 71.6328 66.5908C70.3971 67.6995 68.6367 68.2539 66.3516 68.2539C64.278 68.2539 62.6488 67.9196 61.4639 67.251V64.5469C62.1494 64.9362 62.9365 65.2367 63.8252 65.4482C64.7139 65.6598 65.5391 65.7656 66.3008 65.7656C67.6465 65.7656 68.6706 65.4652 69.373 64.8643C70.0755 64.2633 70.4268 63.3831 70.4268 62.2236C70.4268 60.0062 69.0133 58.8975 66.1865 58.8975C65.7887 58.8975 65.2979 58.9398 64.7139 59.0244C64.1299 59.1006 63.6178 59.1895 63.1777 59.291L61.8447 58.5039L62.5557 49.4395H72.2041V52.0928H65.1836L64.7646 56.6885C65.0609 56.6377 65.4206 56.5785 65.8438 56.5107C66.2754 56.443 66.8001 56.4092 67.418 56.4092Z" fill="#353535"/>
<path d="M110.153 59.3315C110.153 88.4119 86.6083 111.976 57.5766 111.976C28.5449 111.976 5 88.4119 5 59.3315C5 30.2512 28.5449 6.68701 57.5766 6.68701C86.6083 6.68701 110.153 30.2512 110.153 59.3315Z" stroke="#DAD7FE" stroke-width="10"/>
<path d="M53.9474 6.80916C63.3518 6.16956 72.7551 8.08067 81.1696 12.3426" stroke="#4339F2" stroke-width="10" stroke-linecap="round"/>
</svg>
