<svg width="120" height="126" viewBox="0 0 120 126" fill="none" xmlns="http://www.w3.org/2000/svg">
<path opacity="0.25" fill-rule="evenodd" clip-rule="evenodd" d="M26 101.246C26 101.246 26.7151 97.2918 29.5271 106.592C32.3391 115.891 64.1366 136.245 74.7805 119.761C85.4245 103.277 100.473 121.775 110.868 116.827C121.263 111.88 122.909 105.351 115.161 89.6189C107.413 73.8866 126.472 54.7163 107.474 42.3916C88.4748 30.067 103.183 33.0948 103.183 33.0948L108.549 58.4498L103.086 83.4122L77.6544 106.497L51.789 110.129L26 101.246Z" fill="#C3E2FF"/>
<path opacity="0.5" fill-rule="evenodd" clip-rule="evenodd" d="M106 52.3152C106 52.3152 104.587 52.5178 109.5 50.3102C114.413 48.1027 117.947 29.1549 108.182 24.3315C98.417 19.508 107.549 9.83163 104.131 4.35884C100.713 -1.11396 97.0187 -1.58816 88.9105 3.81839C80.8023 9.22493 65.1599 -5.21542 59.6827 6.24744C54.2055 17.7103 63.5092 3.79313 63.5092 3.79313L86.3219 10.9927L100.709 23.6315L106 52.3152Z" fill="#C3E2FF"/>
<path d="M31.6299 59.8745C31.6299 52.6128 34.5879 48.9819 40.5039 48.9819C41.4349 48.9819 42.222 49.0539 42.8652 49.1978V51.686C42.222 51.4998 41.4772 51.4067 40.6309 51.4067C38.6419 51.4067 37.1481 51.9399 36.1494 53.0063C35.1507 54.0728 34.609 55.7824 34.5244 58.1353H34.6768C35.0745 57.4497 35.6331 56.9207 36.3525 56.5483C37.0719 56.1675 37.9183 55.9771 38.8916 55.9771C40.5758 55.9771 41.8877 56.4933 42.8271 57.5259C43.7666 58.5584 44.2363 59.9591 44.2363 61.728C44.2363 63.6746 43.6904 65.215 42.5986 66.3491C41.5153 67.4748 40.0342 68.0376 38.1553 68.0376C36.8265 68.0376 35.6712 67.7202 34.6895 67.0854C33.7077 66.4422 32.9502 65.5112 32.417 64.2925C31.8923 63.0653 31.6299 61.5926 31.6299 59.8745ZM38.1045 65.5747C39.1286 65.5747 39.9157 65.2446 40.4658 64.5845C41.0244 63.9243 41.3037 62.9806 41.3037 61.7534C41.3037 60.687 41.0413 59.8491 40.5166 59.2397C40.0003 58.6304 39.2217 58.3257 38.1807 58.3257C37.5374 58.3257 36.945 58.4653 36.4033 58.7446C35.8617 59.0155 35.4342 59.3921 35.1211 59.8745C34.8079 60.3485 34.6514 60.8351 34.6514 61.3345C34.6514 62.5278 34.973 63.535 35.6162 64.356C36.2679 65.1685 37.0973 65.5747 38.1045 65.5747ZM59.6738 63.7339H57.1729V67.7837H54.2656V63.7339H45.7852V61.436L54.2656 49.1724H57.1729V61.2583H59.6738V63.7339ZM54.2656 61.2583V56.5991C54.2656 54.9403 54.3079 53.5819 54.3926 52.5239H54.291C54.054 53.0825 53.6816 53.7596 53.1738 54.5552L48.5654 61.2583H54.2656ZM63.6855 54.7837C63.6855 56.0448 63.8083 56.9842 64.0537 57.6021C64.2992 58.2199 64.7012 58.5288 65.2598 58.5288C66.377 58.5288 66.9355 57.2804 66.9355 54.7837C66.9355 52.2869 66.377 51.0386 65.2598 51.0386C64.7012 51.0386 64.2992 51.3475 64.0537 51.9653C63.8083 52.5832 63.6855 53.5226 63.6855 54.7837ZM69.3984 54.7583C69.3984 56.7049 69.0472 58.1691 68.3447 59.1509C67.6507 60.1242 66.6224 60.6108 65.2598 60.6108C63.9733 60.6108 62.9746 60.1073 62.2637 59.1001C61.5612 58.0845 61.21 56.6372 61.21 54.7583C61.21 50.8905 62.5599 48.9565 65.2598 48.9565C66.5885 48.9565 67.6084 49.4601 68.3193 50.4673C69.0387 51.466 69.3984 52.8963 69.3984 54.7583ZM75.7715 62.1978C75.7715 63.4588 75.8942 64.4025 76.1396 65.0288C76.3936 65.6551 76.7998 65.9683 77.3584 65.9683C78.4671 65.9683 79.0215 64.7114 79.0215 62.1978C79.0215 59.7179 78.4671 58.478 77.3584 58.478C76.7998 58.478 76.3936 58.7827 76.1396 59.3921C75.8942 60.0015 75.7715 60.9367 75.7715 62.1978ZM81.4844 62.1978C81.4844 64.1444 81.1331 65.6043 80.4307 66.5776C79.7282 67.5509 78.7041 68.0376 77.3584 68.0376C76.0719 68.0376 75.0732 67.5382 74.3623 66.5396C73.6514 65.5324 73.2959 64.0851 73.2959 62.1978C73.2959 58.3299 74.6501 56.396 77.3584 56.396C78.6618 56.396 79.6732 56.8953 80.3926 57.894C81.1204 58.8927 81.4844 60.3273 81.4844 62.1978ZM77.7139 49.2231L67.418 67.7837H64.9551L75.251 49.2231H77.7139Z" fill="#353535"/>
<path d="M110.153 59.3315C110.153 88.4119 86.6083 111.976 57.5766 111.976C28.5449 111.976 5 88.4119 5 59.3315C5 30.2512 28.5449 6.68701 57.5766 6.68701C86.6083 6.68701 110.153 30.2512 110.153 59.3315Z" stroke="#DAD7FE" stroke-width="10"/>
<path d="M53.9474 6.80914C63.3519 6.16954 72.7551 8.08066 81.1697 12.3425C89.5843 16.6045 96.7004 23.0604 101.769 31.0335C106.838 39.0067 109.673 48.2024 109.973 57.6546C110.274 67.1067 108.03 76.465 103.478 84.7462C98.9258 93.0272 92.2341 99.9249 84.1071 104.716C75.9802 109.507 66.7173 112.015 57.2914 111.977C47.8654 111.94 38.6227 109.358 30.534 104.502C22.4452 99.6467 15.8084 92.6959 11.3221 84.3788" stroke="#4339F2" stroke-width="10" stroke-linecap="round"/>
</svg>
