<svg width="120" height="126" viewBox="0 0 120 126" fill="none" xmlns="http://www.w3.org/2000/svg">
<path opacity="0.25" fill-rule="evenodd" clip-rule="evenodd" d="M26 101.246C26 101.246 26.7151 97.2918 29.5271 106.592C32.3391 115.891 64.1366 136.245 74.7805 119.761C85.4245 103.277 100.473 121.775 110.868 116.827C121.263 111.88 122.909 105.351 115.161 89.6189C107.413 73.8866 126.472 54.7163 107.474 42.3916C88.4748 30.067 103.183 33.0948 103.183 33.0948L108.549 58.4498L103.086 83.4122L77.6544 106.497L51.789 110.129L26 101.246Z" fill="#C3E2FF"/>
<path opacity="0.5" fill-rule="evenodd" clip-rule="evenodd" d="M106 52.3152C106 52.3152 104.587 52.5178 109.5 50.3102C114.413 48.1027 117.947 29.1549 108.182 24.3315C98.417 19.508 107.549 9.83163 104.131 4.35884C100.713 -1.11396 97.0187 -1.58816 88.9105 3.81839C80.8023 9.22493 65.1599 -5.21542 59.6827 6.24744C54.2055 17.7103 63.5092 3.79313 63.5092 3.79313L86.3219 10.9927L100.709 23.6315L106 52.3152Z" fill="#C3E2FF"/>
<path d="M40.3389 67.7837H37.3555V55.7993C37.3555 54.369 37.3893 53.2349 37.457 52.397C37.2624 52.6001 37.0212 52.8244 36.7334 53.0698C36.4541 53.3153 35.5062 54.0939 33.8896 55.4058L32.3916 53.5142L37.8506 49.2231H40.3389V67.7837ZM52.7295 56.1929C54.5999 56.1929 56.0811 56.688 57.1729 57.6782C58.2646 58.6685 58.8105 60.0184 58.8105 61.728C58.8105 63.7085 58.1885 65.2573 56.9443 66.3745C55.7087 67.4832 53.9482 68.0376 51.6631 68.0376C49.5895 68.0376 47.9603 67.7033 46.7754 67.0347V64.3306C47.4609 64.7199 48.248 65.0203 49.1367 65.2319C50.0254 65.4435 50.8506 65.5493 51.6123 65.5493C52.958 65.5493 53.9821 65.2489 54.6846 64.6479C55.387 64.047 55.7383 63.1668 55.7383 62.0073C55.7383 59.7899 54.3249 58.6812 51.498 58.6812C51.1003 58.6812 50.6094 58.7235 50.0254 58.8081C49.4414 58.8843 48.9294 58.9731 48.4893 59.0747L47.1562 58.2876L47.8672 49.2231H57.5156V51.8765H50.4951L50.0762 56.4722C50.3724 56.4214 50.7321 56.3621 51.1553 56.2944C51.5869 56.2267 52.1117 56.1929 52.7295 56.1929ZM63.6855 54.7837C63.6855 56.0448 63.8083 56.9842 64.0537 57.6021C64.2992 58.2199 64.7012 58.5288 65.2598 58.5288C66.377 58.5288 66.9355 57.2804 66.9355 54.7837C66.9355 52.2869 66.377 51.0386 65.2598 51.0386C64.7012 51.0386 64.2992 51.3475 64.0537 51.9653C63.8083 52.5832 63.6855 53.5226 63.6855 54.7837ZM69.3984 54.7583C69.3984 56.7049 69.0472 58.1691 68.3447 59.1509C67.6507 60.1242 66.6224 60.6108 65.2598 60.6108C63.9733 60.6108 62.9746 60.1073 62.2637 59.1001C61.5612 58.0845 61.21 56.6372 61.21 54.7583C61.21 50.8905 62.5599 48.9565 65.2598 48.9565C66.5885 48.9565 67.6084 49.4601 68.3193 50.4673C69.0387 51.466 69.3984 52.8963 69.3984 54.7583ZM75.7715 62.1978C75.7715 63.4588 75.8942 64.4025 76.1396 65.0288C76.3936 65.6551 76.7998 65.9683 77.3584 65.9683C78.4671 65.9683 79.0215 64.7114 79.0215 62.1978C79.0215 59.7179 78.4671 58.478 77.3584 58.478C76.7998 58.478 76.3936 58.7827 76.1396 59.3921C75.8942 60.0015 75.7715 60.9367 75.7715 62.1978ZM81.4844 62.1978C81.4844 64.1444 81.1331 65.6043 80.4307 66.5776C79.7282 67.5509 78.7041 68.0376 77.3584 68.0376C76.0719 68.0376 75.0732 67.5382 74.3623 66.5396C73.6514 65.5324 73.2959 64.0851 73.2959 62.1978C73.2959 58.3299 74.6501 56.396 77.3584 56.396C78.6618 56.396 79.6732 56.8953 80.3926 57.894C81.1204 58.8927 81.4844 60.3273 81.4844 62.1978ZM77.7139 49.2231L67.418 67.7837H64.9551L75.251 49.2231H77.7139Z" fill="#353535"/>
<path d="M110.153 59.3315C110.153 88.4119 86.6083 111.976 57.5766 111.976C28.5449 111.976 5 88.4119 5 59.3315C5 30.2512 28.5449 6.68701 57.5766 6.68701C86.6083 6.68701 110.153 30.2512 110.153 59.3315Z" stroke="#DAD7FE" stroke-width="10"/>
<path d="M53.9474 6.80916C63.3518 6.16956 72.7551 8.08067 81.1696 12.3426C89.5843 16.6045 96.7004 23.0604 101.769 31.0335" stroke="#4339F2" stroke-width="10" stroke-linecap="round"/>
</svg>
