<svg width="120" height="126" viewBox="0 0 120 126" fill="none" xmlns="http://www.w3.org/2000/svg">
<path opacity="0.25" fill-rule="evenodd" clip-rule="evenodd" d="M26 101.246C26 101.246 26.7151 97.2918 29.5271 106.592C32.3391 115.891 64.1366 136.245 74.7805 119.761C85.4245 103.277 100.473 121.775 110.868 116.827C121.263 111.88 122.909 105.351 115.161 89.6189C107.413 73.8866 126.472 54.7163 107.474 42.3916C88.4748 30.067 103.183 33.0948 103.183 33.0948L108.549 58.4498L103.086 83.4122L77.6544 106.497L51.789 110.129L26 101.246Z" fill="#C3E2FF"/>
<path opacity="0.5" fill-rule="evenodd" clip-rule="evenodd" d="M106 52.3152C106 52.3152 104.587 52.5178 109.5 50.3102C114.413 48.1027 117.948 29.1549 108.182 24.3315C98.4171 19.508 107.549 9.83163 104.131 4.35884C100.713 -1.11396 97.0189 -1.58816 88.9106 3.81839C80.8024 9.22493 65.16 -5.21542 59.6828 6.24744C54.2056 17.7103 63.5093 3.79313 63.5093 3.79313L86.322 10.9927L100.71 23.6315L106 52.3152Z" fill="#C3E2FF"/>
<path d="M33.6865 67.7837L41.0244 51.8765H31.376V49.2485H44.2109V51.3306L36.9111 67.7837H33.6865ZM59.0137 58.5034C59.0137 61.728 58.4932 64.1232 57.4521 65.689C56.4196 67.2547 54.8369 68.0376 52.7041 68.0376C50.639 68.0376 49.0732 67.2293 48.0068 65.6128C46.9404 63.9963 46.4072 61.6265 46.4072 58.5034C46.4072 55.228 46.9235 52.8159 47.9561 51.2671C48.9971 49.7098 50.5798 48.9312 52.7041 48.9312C54.7777 48.9312 56.3477 49.7437 57.4141 51.3687C58.4805 52.9937 59.0137 55.3719 59.0137 58.5034ZM49.4287 58.5034C49.4287 61.034 49.6868 62.841 50.2031 63.9243C50.7279 65.0076 51.5615 65.5493 52.7041 65.5493C53.8467 65.5493 54.6803 64.9992 55.2051 63.8989C55.7383 62.7987 56.0049 61.0002 56.0049 58.5034C56.0049 56.0151 55.7383 54.2166 55.2051 53.1079C54.6803 51.9907 53.8467 51.4321 52.7041 51.4321C51.5615 51.4321 50.7279 51.978 50.2031 53.0698C49.6868 54.1616 49.4287 55.9728 49.4287 58.5034ZM63.6855 54.7837C63.6855 56.0448 63.8083 56.9842 64.0537 57.6021C64.2992 58.2199 64.7012 58.5288 65.2598 58.5288C66.377 58.5288 66.9355 57.2804 66.9355 54.7837C66.9355 52.2869 66.377 51.0386 65.2598 51.0386C64.7012 51.0386 64.2992 51.3475 64.0537 51.9653C63.8083 52.5832 63.6855 53.5226 63.6855 54.7837ZM69.3984 54.7583C69.3984 56.7049 69.0472 58.1691 68.3447 59.1509C67.6507 60.1242 66.6224 60.6108 65.2598 60.6108C63.9733 60.6108 62.9746 60.1073 62.2637 59.1001C61.5612 58.0845 61.21 56.6372 61.21 54.7583C61.21 50.8905 62.5599 48.9565 65.2598 48.9565C66.5885 48.9565 67.6084 49.4601 68.3193 50.4673C69.0387 51.466 69.3984 52.8963 69.3984 54.7583ZM75.7715 62.1978C75.7715 63.4588 75.8942 64.4025 76.1396 65.0288C76.3936 65.6551 76.7998 65.9683 77.3584 65.9683C78.4671 65.9683 79.0215 64.7114 79.0215 62.1978C79.0215 59.7179 78.4671 58.478 77.3584 58.478C76.7998 58.478 76.3936 58.7827 76.1396 59.3921C75.8942 60.0015 75.7715 60.9367 75.7715 62.1978ZM81.4844 62.1978C81.4844 64.1444 81.1331 65.6043 80.4307 66.5776C79.7282 67.5509 78.7041 68.0376 77.3584 68.0376C76.0719 68.0376 75.0732 67.5382 74.3623 66.5396C73.6514 65.5324 73.2959 64.0851 73.2959 62.1978C73.2959 58.3299 74.6501 56.396 77.3584 56.396C78.6618 56.396 79.6732 56.8953 80.3926 57.894C81.1204 58.8927 81.4844 60.3273 81.4844 62.1978ZM77.7139 49.2231L67.418 67.7837H64.9551L75.251 49.2231H77.7139Z" fill="#353535"/>
<path d="M110.153 59.3315C110.153 88.4119 86.6083 111.976 57.5766 111.976C28.5449 111.976 5 88.4119 5 59.3315C5 30.2512 28.5449 6.68701 57.5766 6.68701C86.6083 6.68701 110.153 30.2512 110.153 59.3315Z" stroke="#DAD7FE" stroke-width="10"/>
<path fill-rule="evenodd" clip-rule="evenodd" d="M54.2867 11.7976C62.7928 11.2191 71.2983 12.9476 78.9105 16.8031C86.5228 20.6586 92.9622 26.4999 97.5499 33.716C102.138 40.9324 104.704 49.2564 104.976 57.8136C105.248 66.3707 103.216 74.8421 99.0962 82.3376C94.9761 89.8329 88.9204 96.0743 81.5679 100.409C74.2156 104.743 65.8368 107.011 57.3113 106.977C48.7857 106.943 40.4251 104.608 33.1074 100.215C25.9399 95.9129 19.7121 89.4209 15.6397 82.0637C15.5826 81.9251 15.5189 81.7878 15.4484 81.6522C11.8564 74.7503 10.0139 67.0564 10.1003 59.2456C10.1308 56.4844 7.91716 54.2212 5.15591 54.1907C2.39465 54.1601 0.13146 56.3738 0.100926 59.1351C-0.001628 68.4095 2.14201 77.5501 6.32882 85.7848C6.40527 85.9841 6.49534 86.1808 6.59938 86.3737C11.5064 95.4709 19.0921 103.466 27.9606 108.789C36.8202 114.108 46.945 116.936 57.2714 116.977C67.5978 117.018 77.7447 114.271 86.6463 109.023C95.5478 103.776 102.875 96.2216 107.859 87.1548C112.843 78.0879 115.3 67.8428 114.971 57.4956C114.642 47.1484 111.539 37.081 105.989 28.351C100.439 19.6209 92.6458 12.5504 83.4288 7.88206C74.2119 3.21376 63.911 1.11999 53.6081 1.82069C50.8531 2.00806 48.7716 4.39337 48.9589 7.14843C49.1463 9.90349 51.5316 11.985 54.2867 11.7976Z" fill="#4339F2"/>
</svg>
