<?xml version="1.0" standalone="no"?>
<!DOCTYPE svg PUBLIC "-//W3C//DTD SVG 1.1//EN" "http://www.w3.org/Graphics/SVG/1.1/DTD/svg11.dtd" >
<svg>
<metadata>
Created by FontForge 20090914 at Thu Aug 11 13:50:50 2016
 By www-data
Copyright &#194;&#169; 2011 ParaType Inc., ParaType Ltd. All rights reserved.
</metadata>
<defs>
<font id="Circe-Regular" horiz-adv-x="592" >
  <font-face 
    font-family="Circe"
    font-weight="400"
    font-stretch="normal"
    units-per-em="1000"
    panose-1="2 11 5 2 2 2 3 2 2 3"
    ascent="773"
    descent="-227"
    x-height="450"
    cap-height="700"
    bbox="-534 -391.997 1681 1005"
    underline-thickness="50"
    underline-position="-50"
    unicode-range="U+0020-U+FB02"
  />
<missing-glyph horiz-adv-x="225" 
 />
    <glyph glyph-name="uniF350.var.accented" unicode="&#xf350;`" horiz-adv-x="590" 
d="M12 0l246 528h74l246 -528h-91l-64 140h-261l-64 -140h-86zM293 426l-95 -206h189zM409 705l-135 -125l-40 44l126 142z" />
    <glyph glyph-name="uniF355.var.accented" unicode="&#xf355;`" horiz-adv-x="488" 
d="M84 0v525h340v-80h-255v-140h230v-80h-230v-145h263v-80h-348zM367 705l-135 -125l-40 44l126 142z" />
    <glyph glyph-name="uniF358.var.accented" unicode="&#xf358;`" horiz-adv-x="656" 
d="M159 0h-75v525h85v-390l328 390h75v-525h-85v390zM437 705l-135 -125l-40 44l126 142z" />
    <glyph glyph-name="uniF35E.var.accented" unicode="&#xf35e;`" horiz-adv-x="655" 
d="M40 262c0 76.667 26.999 140.833 80.999 192.5s123 77.5 207 77.5c82.667 0 151.167 -25 205.5 -75s81.5 -115 81.5 -195c0 -78.667 -27.167 -143.5 -81.5 -194.5s-122.833 -76.5 -205.5 -76.5c-83.333 0 -152.166 25 -206.499 75s-81.5 115.333 -81.5 196z
M129.999 261.999c0 -54 19.001 -99.333 57.001 -136s85 -55 141 -55c60 0 107.833 18 143.5 54s53.5 81.667 53.5 137s-18.833 100.833 -56.5 136.5s-84.5 53.5 -140.5 53.5c-56.667 0 -103.834 -17.833 -141.501 -53.5s-56.5 -81.167 -56.5 -136.5zM448 704.999l-135 -125
l-40 44l126 142z" />
    <glyph glyph-name="uniF363.var.accented" unicode="&#xf363;`" horiz-adv-x="546" 
d="M536 525l-196.999 -401c-20.667 -42 -43 -73.167 -67 -93.5s-52.333 -30.5 -85 -30.5c-28 0 -51 6.66699 -69 20l30 72c14.667 -8.66699 29 -13 43 -13c23.333 0 43.666 16 60.999 48l10 18l-251 380h106l189 -296l143 296h87zM397.001 705l-135 -125l-40 44l126 142z
" />
    <glyph glyph-name="uniF36B.var.accented" unicode="&#xf36b;`" horiz-adv-x="706" 
d="M537 0v525h85v-525h-85zM233 265c-16.667 0 -38.001 -1 -64.001 -3v-182c26.667 -1.33301 47.334 -2 62.001 -2c87.333 0 131 32.333 131 97c0 60 -43 90 -129 90zM168.999 525v-182.999c28 2 51.667 3 71 3c70 0 122.833 -14.833 158.5 -44.5
s53.5 -70.834 53.5 -123.501c0 -55.333 -20.5 -99 -61.5 -131s-97.5 -48 -169.5 -48c-18.667 0 -43.667 0.333008 -75 1s-52 1 -62 1v525h85zM446.999 705.001l-135 -125l-40 44l126 142z" />
    <glyph glyph-name="uniF36D.var.accented" unicode="&#xf36d;`" horiz-adv-x="557" 
d="M157 228l-0.000976562 79.999h272c-9.33301 46.667 -31.666 82.5 -66.999 107.5s-81.333 37.5 -138 37.5c-66 0 -118.333 -13.667 -157 -41l-34 64c50 38 115 57 195 57c86 0 155.833 -24.667 209.5 -74s80.5 -114.666 80.5 -195.999c0 -82 -27.167 -147.667 -81.5 -197
s-126.833 -74 -217.5 -74c-80.667 0 -145 18.333 -193 55l37 71c44 -30.667 99.333 -46 166 -46c55.333 0 101 13.5 137 40.5s57.333 65.5 64 115.5h-273zM346.999 704.999l-135 -125l-40 44l126 142z" />
    <glyph glyph-name="uniF36E.var.accented" unicode="&#xf36e;`" horiz-adv-x="871" 
d="M84 0l-0.000976562 524.999h85v-217h112c9.33301 66 38.333 120 87 162s110 63 184 63c84.667 0 152.334 -24.667 203.001 -74s76 -114.666 76 -195.999c0 -80 -25.5 -145.167 -76.5 -195.5s-118.5 -75.5 -202.5 -75.5c-74 0 -136 21.5 -186 64.5
s-78.667 100.167 -86 171.5h-111v-228h-85zM367.999 262.999c0 -55.333 17.333 -101 52 -137s79.334 -54 134.001 -54c57.333 0 102.833 18 136.5 54s50.5 81.667 50.5 137c0 56.667 -17.167 102.5 -51.5 137.5s-79.5 52.5 -135.5 52.5
c-54.667 0 -99.334 -17.667 -134.001 -53s-52 -81 -52 -137zM537.999 704.999l-135 -125l-40 44l126 142z" />
    <glyph glyph-name="uniF36F.var.accented" unicode="&#xf36f;`" horiz-adv-x="534" 
d="M365 0v180h-112l-134 -180h-101l149 197c-30 13.333 -54.667 32.666 -74 57.999s-29 55.333 -29 90c0 52.667 19 96.334 57 131.001s94.333 52 169 52c21.333 0 51 -0.5 89 -1.5s61.667 -1.5 71 -1.5v-525h-85zM245 260l120 -0.000976562v185c-34 2 -61.667 3 -83 3
c-41.333 0 -73 -9.16699 -95 -27.5s-33 -41.833 -33 -70.5c0 -23.333 9 -43.166 27 -59.499s39.333 -26.5 64 -30.5zM397 704.999l-135 -125l-40 44l126 142z" />
    <glyph glyph-name="uniF371.var.accented" unicode="&#xf371;`" horiz-adv-x="488" 
d="M84 654c0 12.667 4.66699 23 14 31s20.666 12 33.999 12c11.333 0 21.333 -4 30 -12s13 -18.333 13 -31c0 -14 -4.33301 -25.167 -13 -33.5s-18.667 -12.5 -30 -12.5c-13.333 0 -24.666 4.16699 -33.999 12.5s-14 19.5 -14 33.5zM332 654c0 12.667 4.5 23 13.5 31
s19.833 12 32.5 12c12 0 22.333 -4 31 -12s13 -18.333 13 -31c0 -14 -4.33301 -25.167 -13 -33.5s-19 -12.5 -31 -12.5c-12.667 0 -23.5 4.16699 -32.5 12.5s-13.5 19.5 -13.5 33.5zM337 723l-109 -143l-45 28l85 158zM84 0v525h340v-80h-255v-140h230v-80h-230v-145h263
v-80h-348z" />
    <glyph glyph-name="afii10017.var.accented" unicode="&#x410;`" horiz-adv-x="705" 
d="M15 0l301 704h73l301 -704h-91l-90 212h-319l-89 -212h-86zM350 591l-126 -299h252zM513 819l-202 -84l-23 48l195 104z" />
    <glyph glyph-name="afii10022.var.accented" unicode="&#x415;`" horiz-adv-x="575" 
d="M105 0v700h395v-80h-310v-226h280v-80h-280v-234h320v-80h-405zM463 819l-202 -84l-23 48l195 104z" />
    <glyph glyph-name="afii10026.var.accented" unicode="&#x418;`" horiz-adv-x="795" 
d="M180 0h-75v700h85v-560l425 560h75v-700h-85v560zM553 819l-202 -84l-23 48l195 104z" />
    <glyph glyph-name="afii10032.var.accented" unicode="&#x41e;`" horiz-adv-x="814" 
d="M50 350c0 102 33.668 187.499 101.001 256.499s152.666 103.5 255.999 103.5c102.667 0 187.834 -33.667 255.501 -101s101.5 -153.666 101.5 -258.999c0 -103.333 -34 -189.166 -102 -257.499s-153 -102.5 -255 -102.5c-102.667 0 -187.834 33.667 -255.501 101
s-101.5 153.666 -101.5 258.999zM140.001 349.999c0 -79.333 25.667 -145.833 77 -199.5s114.666 -80.5 189.999 -80.5c78.667 0 142.834 26.667 192.501 80s74.5 120 74.5 200c0 80.667 -25.667 147.5 -77 200.5s-114.666 79.5 -189.999 79.5
c-76.667 0 -140.334 -26.333 -191.001 -79s-76 -119.667 -76 -201zM563.001 818.999l-202 -84l-23 48l195 104z" />
    <glyph glyph-name="afii10037.var.accented" unicode="&#x423;`" horiz-adv-x="666" 
d="M651 700l-242.002 -540c-24.667 -55.333 -50.5 -95.833 -77.5 -121.5s-59.167 -38.5 -96.5 -38.5c-35.333 -0 -63.666 8.33301 -84.999 25l30 72c17.333 -12 35.333 -18 54 -18c34.667 0 63.334 23.667 86.001 71l12 26l-317 524h96l262 -439l192 439h86zM507.998 819
l-202 -84l-23 48l195 104z" />
    <glyph glyph-name="afii10045.var.accented" unicode="&#x42b;`" horiz-adv-x="845" 
d="M655 0v700h85v-700h-85zM277 365c-23.333 0 -52.333 -2.00098 -87 -6.00098v-278c54 -2 82 -3 84 -3c118.667 0 178 49.667 178 149c0 44.667 -15 78.834 -45 102.501s-73.333 35.5 -130 35.5zM190 699.999l-0.000976562 -260.001c42 3.33301 73 5 93 5
c86 0 150.667 -19 194 -57s65 -91 65 -159c0 -73.333 -24.5 -130.166 -73.5 -170.499s-117.167 -60.5 -204.5 -60.5c-21.333 0 -50.166 0.333008 -86.499 1s-60.5 1 -72.5 1v700h85zM562.999 818.998l-202 -84l-23 48l195 104z" />
    <glyph glyph-name="afii10047.var.accented" unicode="&#x42d;`" horiz-adv-x="677" 
d="M193 317l0.00195312 80h346c-8.66699 72.667 -38.334 129.667 -89.001 171s-115.334 62 -194.001 62c-68.667 0 -127.667 -19 -177 -57l-33 64c55.333 48.667 132 73 230 73c104.667 0 189.334 -32.667 254.001 -98s97 -152 97 -260
c0 -107.333 -32.667 -194.5 -98 -261.5s-152.333 -100.5 -261 -100.5c-94.667 0 -172.334 24.333 -233.001 73l37 71c56.667 -42.667 121.334 -64 194.001 -64c74.667 0 137.167 22.167 187.5 66.5s79.166 104.5 86.499 180.5h-347zM443.002 819l-202 -84l-23 48l195 104z
" />
    <glyph glyph-name="afii10048.var.accented" unicode="&#x42e;`" horiz-adv-x="1078" 
d="M105 0v699.999h85v-303h151c10 91.333 46.167 166.333 108.5 225s139.5 88 231.5 88c102 0 185.333 -33.5 250 -100.5s97 -153.5 97 -259.5c0 -104 -32.5 -190 -97.5 -258s-148.167 -102 -249.5 -102c-92 0 -170.167 30.333 -234.5 91s-99.833 139.334 -106.5 236.001
h-150v-317h-85zM429 349.999c0 -79.333 24.165 -145.833 72.498 -199.5s108.833 -80.5 181.5 -80.5c78.667 0 140.834 26.333 186.501 79s68.5 119.667 68.5 201c0 82 -23.667 149.167 -71 201.5s-108.666 78.5 -183.999 78.5c-73.333 0 -134 -26.333 -182 -79
s-72 -119.667 -72 -201zM712.998 818.999l-202 -84l-23 48l195 104z" />
    <glyph glyph-name="afii10049.var.accented" unicode="&#x42f;`" horiz-adv-x="623" 
d="M433 0l-0.000976562 260h-131l-181 -260h-96l194 275c-39.333 16 -72.166 41 -98.499 75s-39.5 74.333 -39.5 121c0 67.333 23 122.833 69 166.5s114 65.5 204 65.5c16 0 44 -0.5 84 -1.5s66.667 -1.5 80 -1.5v-700h-85zM291.999 340l141 -0.000976562v280
c-46 2 -77.667 3 -95 3c-52.667 0 -93.667 -13.667 -123 -41s-44 -62.666 -44 -105.999c0 -35.333 12 -65.5 36 -90.5s52.333 -40.167 85 -45.5zM517.999 818.999l-202 -84l-23 48l195 104z" />
    <glyph glyph-name="afii10023.var.accented" unicode="&#x401;`" horiz-adv-x="575" 
d="M124 813c0 14 4 24.999 12 32.999s18.333 12 31 12c11.333 0 21 -4.16699 29 -12.5s12 -19.166 12 -32.499c0 -15.333 -4 -27.333 -12 -36s-17.667 -13 -29 -13c-12.667 0 -23 4.33301 -31 13s-12 20.667 -12 36zM403 812.999c0 13.333 4.33301 24.166 13 32.499
s19 12.5 31 12.5c11.333 0 21 -4.16699 29 -12.5s12 -19.166 12 -32.499c0 -15.333 -4 -27.333 -12 -36s-17.667 -13 -29 -13c-12 0 -22.333 4.33301 -31 13s-13 20.667 -13 36zM403 865.999l-139 -125l-29 15l101 131zM105 -0.000976562v700h395v-80h-310v-226h280v-80
h-280v-234h320v-80h-405z" />
    <glyph glyph-name="afii10065.var.accented" unicode="&#x430;`" horiz-adv-x="460" 
d="M96 355l-21.002 64c44 27.333 94 41 150 41c62 0 106.333 -15.333 133 -46s40 -76.667 40 -138v-276h-76v58c-34.667 -43.333 -82.667 -65 -144 -65c-41.333 0 -74.666 12.5 -99.999 37.5s-38 58.833 -38 101.5c0 44.667 15.833 79.667 47.5 105s72.5 38 122.5 38
c48 0 85.333 -9.66699 112 -29c0 48 -6.66699 83.667 -20 107s-40.666 35 -81.999 35c-40.667 0 -82 -11 -124 -33zM205.998 65c44.667 0 83.335 19.333 116.002 58v57c-28 20 -61.667 30 -101 30c-26.667 0 -49.334 -6.33301 -68.001 -19s-28 -31 -28 -55
c0 -22 7.16699 -39.333 21.5 -52s34.166 -19 59.499 -19zM354.999 674l-120 -143l-48 34l106 157z" />
    <glyph glyph-name="afii10070.var.accented" unicode="&#x435;`" horiz-adv-x="520" 
d="M427 112l25 -63c-43.333 -39.333 -99.666 -59 -168.999 -59c-72.667 0 -131 21.333 -175 64s-66 99.667 -66 171c0 68 20.667 124.167 62 168.5s98 66.5 170 66.5c59.333 0 109 -19.167 149 -57.5s60 -87.833 60 -148.5c0 -20.667 -1.66699 -38.667 -5 -54h-346
c3.33301 -42 19.166 -75 47.499 -99s64.833 -36 109.5 -36c58.667 0 104.667 15.667 138 47zM270 385c-40 0 -72.667 -11.167 -98 -33.5s-40.333 -51.166 -45 -86.499h273c-2 37.333 -14.5 66.666 -37.5 87.999s-53.833 32 -92.5 32zM384 674l-120 -143l-48 34l106 157z" />
    <glyph glyph-name="afii10074.var.accented" unicode="&#x438;`" horiz-adv-x="565" 
d="M152 0h-80v450h80v-335l260 335h80v-450h-80v335zM392 674l-120 -143l-48 34l106 157z" />
    <glyph glyph-name="afii10080.var.accented" unicode="&#x43e;`" horiz-adv-x="565" 
d="M42 225c0 68 22.167 124.167 66.5 168.5s102.166 66.5 173.499 66.5s129.166 -22.167 173.499 -66.5s66.5 -100.5 66.5 -168.5s-22.167 -124.167 -66.5 -168.5s-102.166 -66.5 -173.499 -66.5s-129.166 22.167 -173.499 66.5s-66.5 100.5 -66.5 168.5zM127 225
c0 -46.667 14.5 -85 43.5 -115s66.167 -45 111.5 -45s82.5 14.833 111.5 44.5s43.5 68.167 43.5 115.5c0 46.667 -14.5 85 -43.5 115s-66.167 45 -111.5 45c-44.667 0 -81.667 -14.833 -111 -44.5s-44 -68.167 -44 -115.5zM397 674l-120 -143l-48 34l106 157z" />
    <glyph glyph-name="afii10085.var.accented" unicode="&#x443;`" horiz-adv-x="491" 
d="M481 450l-180 -450c-32 -78 -60.333 -130.833 -85 -158.5s-53.667 -41.5 -87 -41.5c-28.667 0 -57 9.33301 -85 28l26 61c21.333 -10 38 -15 50 -15c18.667 0 35.5 8 50.5 24s30.167 42 45.5 78l10 24l-216 450h96l132 -286c2.66699 -6 11.667 -28.667 27 -68
c6 22 13 45 21 69l104 285h91zM370 674l-120 -143l-48 34l106 157z" />
    <glyph glyph-name="afii10093.var.accented" unicode="&#x44b;`" horiz-adv-x="642" 
d="M72 0v450h80v-135h74c64 0 109.667 -14.5 137 -43.5s41 -66.167 41 -111.5s-14.833 -83.333 -44.5 -114s-77.167 -46 -142.5 -46h-145zM490 0v450h80v-450h-80zM211 240h-59v-165h58c38.667 0 66.5 6.83301 83.5 20.5s25.5 34.167 25.5 61.5c0 55.333 -36 83 -108 83z
M420 674l-120 -143l-48 34l106 157z" />
    <glyph glyph-name="afii10095.var.accented" unicode="&#x44d;`" horiz-adv-x="489" 
d="M142 196v65h221c-6 40.667 -23 71.5 -51 92.5s-63 31.5 -105 31.5c-55.333 0 -101.333 -16.333 -138 -49l-34 60c20 20 46 35.667 78 47s63 17 93 17c71.333 0 129.166 -21.333 173.499 -64s66.5 -99.667 66.5 -171c0 -66 -21.667 -121.667 -65 -167
s-97.666 -68 -162.999 -68c-82 0 -142.333 19 -181 57l38 59c30 -27.333 76 -41 138 -41c42 0 76.333 11.5 103 34.5s42.667 55.167 48 96.5h-222zM332 674l-120 -143l-48 34l106 157z" />
    <glyph glyph-name="afii10096.var.accented" unicode="&#x44e;`" horiz-adv-x="760" 
d="M72 0l-0.000976562 450h85v-180h98c9.33301 56.667 34.333 102.5 75 137.5s91.334 52.5 152.001 52.5c70 0 126.667 -22.167 170 -66.5s65 -100.5 65 -168.5s-21.833 -124.167 -65.5 -168.5s-100.167 -66.5 -169.5 -66.5c-62.667 0 -114.5 18.5 -155.5 55.5
s-65.167 85.167 -72.5 144.5h-97v-190h-85zM341.999 225c0 -46.667 13.333 -84.167 40 -112.5s61 -42.5 103 -42.5s76.167 14.167 102.5 42.5s39.5 65.833 39.5 112.5c0 46 -13 83.333 -39 112s-60.333 43 -103 43c-42 0 -76.333 -14.333 -103 -43s-40 -66 -40 -112z
M496.999 674l-120 -143l-48 34l106 157z" />
    <glyph glyph-name="afii10097.var.accented" unicode="&#x44f;`" horiz-adv-x="482" 
d="M269 450l140 0.000976562v-450h-80v150h-87l-110 -150h-97l130 170c-26 6 -48.667 20.5 -68 43.5s-29 51.833 -29 86.5c0 43.333 16 79.166 48 107.499s83 42.5 153 42.5zM153 298.001c0 -22 8.66797 -39.667 26.001 -53s36.666 -20 57.999 -20h92v150h-73
c-35.333 0 -61.333 -7.16699 -78 -21.5s-25 -32.833 -25 -55.5zM393.001 674.001l-120 -143l-48 34l106 157z" />
    <glyph glyph-name="afii10071.var.accented" unicode="&#x451;`" horiz-adv-x="520" 
d="M96 602c0 12 3.83301 21.499 11.5 28.499s17.167 10.5 28.5 10.5c10 0 18.667 -3.66699 26 -11s11 -16.666 11 -27.999c0 -12.667 -3.66699 -22.667 -11 -30s-16 -11 -26 -11c-11.333 0 -20.833 3.66699 -28.5 11s-11.5 17.333 -11.5 30zM360 601.999
c0 11.333 4 20.666 12 27.999s17.333 11 28 11c10 0 18.667 -3.66699 26 -11s11 -16.666 11 -27.999c0 -12.667 -3.66699 -22.667 -11 -30s-16 -11 -26 -11c-11.333 0 -20.833 3.66699 -28.5 11s-11.5 17.333 -11.5 30zM360 673.999l-120 -143l-39 27l107 157zM427 111.999
l25 -63c-43.333 -39.333 -99.666 -59 -168.999 -59c-72.667 0 -131 21.333 -175 64s-66 99.667 -66 171c0 68 20.667 124.167 62 168.5s98 66.5 170 66.5c59.333 0 109 -19.167 149 -57.5s60 -87.833 60 -148.5c0 -20.667 -1.66699 -38.667 -5 -54h-346
c3.33301 -42 19.166 -75 47.499 -99s64.833 -36 109.5 -36c58.667 0 104.667 15.667 138 47zM270 384.999c-40 0 -72.667 -11.167 -98 -33.5s-40.333 -51.166 -45 -86.499h273c-2 37.333 -14.5 66.666 -37.5 87.999s-53.833 32 -92.5 32z" />
    <glyph glyph-name="fi" unicode="fi" horiz-adv-x="514" 
d="M364 0l-0.000976562 375h-202v-375h-80v511c0 66.667 16.667 116.5 50 149.5s79.333 49.5 138 49.5c72.667 0 127.667 -24.667 165 -74l-58 -47c-23.333 30.667 -54.666 46 -93.999 46c-80.667 0 -121 -44.333 -121 -133v-52h282v-450h-80z" />
    <glyph glyph-name="fl" unicode="fl" horiz-adv-x="561" 
d="M344 120l-0.00195312 487c-25.333 18.667 -52.666 28 -81.999 28c-66.667 0 -100 -40.333 -100 -121v-64h103v-75h-103v-375h-80v523c0 62 13.667 108.667 41 140s66.333 47 117 47c48 0 86 -10.667 114 -32h70v-522c0 -30.667 4.16699 -53.167 12.5 -67.5
s21.833 -21.5 40.5 -21.5c17.333 0 36 6.66699 56 20l18 -61c-27.333 -22.667 -62.666 -34 -105.999 -34c-67.333 0 -101 42.667 -101 128z" />
    <glyph glyph-name=".notdef" horiz-adv-x="225" 
 />
    <glyph glyph-name="space" unicode=" " horiz-adv-x="225" 
 />
    <glyph glyph-name="exclam" unicode="!" horiz-adv-x="310" 
d="M112 215v485h85v-485h-85zM99 54c0 14 5.33301 26.333 16 37s24.667 16 42 16c14.667 0 27.167 -5.5 37.5 -16.5s15.5 -23.167 15.5 -36.5c0 -15.333 -5 -28.666 -15 -39.999s-22.667 -17 -38 -17c-17.333 0 -31.333 5.66699 -42 17s-16 24.666 -16 39.999z" />
    <glyph glyph-name="quotedbl" unicode="&#x22;" horiz-adv-x="415" 
d="M250 477v223h80v-223h-80zM85 477v223h80v-223h-80z" />
    <glyph glyph-name="numbersign" unicode="#" horiz-adv-x="704" 
d="M317 12l67 183h-184l-76 -205l-63 22l68 183h-89v70h115l63 170h-178v70h204l76 205l63 -23l-68 -182h184l76 205l63 -22l-68 -183h94v-70h-120l-63 -170h183v-70h-209l-76 -205zM289 435l-63 -170h184l63 170h-184z" />
    <glyph glyph-name="dollar" unicode="$" 
d="M430 179c0 23.333 -6.33203 43.666 -18.999 60.999s-29 31.5 -49 42.5s-42.167 21.5 -66.5 31.5s-48.666 20.833 -72.999 32.5s-46.5 24.834 -66.5 39.501s-36.333 34 -49 58s-19 51.667 -19 83c0 46 15.667 85.5 47 118.5s73.666 53.5 126.999 61.5v83h80v-82
c67.333 -8 119 -31.667 155 -71l-46 -64c-38 38 -85.333 57 -142 57c-41.333 0 -73.5 -9.33301 -96.5 -28s-34.5 -43.667 -34.5 -75c0 -23.333 6.33301 -43.666 19 -60.999s29 -31.333 49 -42s42.167 -20.834 66.5 -30.501s48.666 -20.167 72.999 -31.5
s46.5 -24.166 66.5 -38.499s36.333 -33.833 49 -58.5s19 -53 19 -85c0 -49.333 -16.5 -90.833 -49.5 -124.5s-75.833 -54.167 -128.5 -61.5v-94h-80v92c-40.667 4.66699 -78.167 16.167 -112.5 34.5s-58.833 41.166 -73.5 68.499l49 58c20 -26 46 -46.333 78 -61
s63.667 -22 95 -22c38 0 69.5 9.66699 94.5 29s37.5 46 37.5 80z" />
    <glyph glyph-name="percent" unicode="%" horiz-adv-x="877" 
d="M159 23l514 687l46 -34l-513 -686zM45 537c0 50 17.1709 90.667 51.5039 122s78.166 47 131.499 47s97.166 -15.667 131.499 -47s51.5 -72 51.5 -122s-17.333 -90.833 -52 -122.5s-78.334 -47.5 -131.001 -47.5s-96.334 15.833 -131.001 47.5s-52 72.5 -52 122.5z
M120.004 537c0 -31.333 10.668 -56.666 32.001 -75.999s46.666 -29 75.999 -29c30 0 55.5 9.66699 76.5 29s31.5 44.666 31.5 75.999c0 30.667 -10.5 55.667 -31.5 75s-46.5 29 -76.5 29s-55.5 -9.66699 -76.5 -29s-31.5 -44.333 -31.5 -75zM466.005 164
c0 50 17.1709 90.667 51.5039 122s78.166 47 131.499 47s97.166 -15.667 131.499 -47s51.5 -72 51.5 -122s-17.333 -90.833 -52 -122.5s-78.334 -47.5 -131.001 -47.5s-96.334 15.833 -131.001 47.5s-52 72.5 -52 122.5zM541.009 164
c0 -31.333 10.668 -56.666 32.001 -75.999s46.666 -29 75.999 -29c30 0 55.5 9.66699 76.5 29s31.5 44.666 31.5 75.999c0 30.667 -10.5 55.667 -31.5 75s-46.5 29 -76.5 29s-55.5 -9.66699 -76.5 -29s-31.5 -44.333 -31.5 -75z" />
    <glyph glyph-name="ampersand" unicode="&#x26;" horiz-adv-x="744" 
d="M584 0l-72.999 92c-52.667 -68 -124.334 -102 -215.001 -102c-66 0 -120.167 18.833 -162.5 56.5s-63.5 85.5 -63.5 143.5c0 52.667 14.833 97.667 44.5 135s70.167 73.333 121.5 108c-28 9.33301 -50.5 25.5 -67.5 48.5s-25.5 50.833 -25.5 83.5
c0 42 15.167 76.667 45.5 104s66.5 41 108.5 41s78.333 -13.5 109 -40.5s46 -61.833 46 -104.5c0 -32 -10.167 -60.833 -30.5 -86.5s-44.833 -41.167 -73.5 -46.5l170 -219c38.667 68 58 147 58 237h79c0 -116.667 -29.333 -217 -88 -301l117 -149h-100zM298.001 70
c70.667 0 125.333 28.667 164 86l-175 230c-41.333 -31.333 -72.833 -61 -94.5 -89s-32.5 -58.333 -32.5 -91c0 -39.333 13.5 -71.833 40.5 -97.5s59.5 -38.5 97.5 -38.5zM218 565c0 -21.333 7.66699 -39.833 23 -55.5s34 -23.5 56 -23.5s40.833 7.66699 56.5 23
s23.5 34 23.5 56s-7.83301 40.833 -23.5 56.5s-34.5 23.5 -56.5 23.5s-40.667 -7.66699 -56 -23s-23 -34.333 -23 -57z" />
    <glyph glyph-name="quotesingle" unicode="'" horiz-adv-x="250" 
d="M85 477v223h80v-223h-80z" />
    <glyph glyph-name="parenleft" unicode="(" horiz-adv-x="293" 
d="M293 -162l-51 -44.002c-134.667 116 -202 259.667 -202 431c0 165.333 67.667 309 203 431l50 -44c-60.667 -58 -104.667 -118.167 -132 -180.5s-41 -131.166 -41 -206.499c0 -74 15 -144.667 45 -212s72.667 -125.666 128 -174.999z" />
    <glyph glyph-name="parenright" unicode=")" horiz-adv-x="293" 
d="M51 -206l-51 44.002c55.333 49.333 98 107.666 128 174.999s45 138 45 212c0 75.333 -13.667 144.166 -41 206.499s-71.333 122.5 -132 180.5l50 44c135.333 -122 203 -265.667 203 -431c0 -171.333 -67.333 -315 -202 -431z" />
    <glyph glyph-name="asterisk" unicode="*" horiz-adv-x="479" 
d="M189 657c0 14 5.16797 26.168 15.501 36.501s22.166 15.5 35.499 15.5c14.667 0 27.167 -5.16699 37.5 -15.5s15.5 -22.5 15.5 -36.5c0 -14.667 -5 -26.834 -15 -36.501s-22.667 -14.5 -38 -14.5c-14 0 -26 5 -36 15s-15 22 -15 36zM187.001 375.001
c0 14.667 5.16699 27.334 15.5 38.001s22.5 16 36.5 16s26.333 -5.33301 37 -16s16 -23.334 16 -38.001c0 -13.333 -5.33301 -25.333 -16 -36s-23 -16 -37 -16c-13.333 0 -25.333 5.33301 -36 16s-16 22.667 -16 36zM305.001 584.001c0 14.667 4.83301 27.167 14.5 37.5
s21.5 15.5 35.5 15.5c14.667 0 27.167 -5.16699 37.5 -15.5s15.5 -22.833 15.5 -37.5c0 -14 -5.16699 -26.167 -15.5 -36.5s-22.833 -15.5 -37.5 -15.5c-14 0 -25.833 5.16699 -35.5 15.5s-14.5 22.5 -14.5 36.5zM305.001 451.001c0 14.667 4.83301 27 14.5 37
s21.5 15 35.5 15c14.667 0 27.167 -5 37.5 -15s15.5 -22.333 15.5 -37s-5.16699 -27.167 -15.5 -37.5s-22.833 -15.5 -37.5 -15.5c-14 0 -25.833 5.16699 -35.5 15.5s-14.5 22.833 -14.5 37.5zM71.001 451.001c0 14.667 5 27 15 37s22 15 36 15c14.667 0 27 -5 37 -15
s15 -22.333 15 -37s-5 -27.167 -15 -37.5s-22.333 -15.5 -37 -15.5c-14 0 -26 5.16699 -36 15.5s-15 22.833 -15 37.5zM71.001 584.001c0 14.667 5 27.167 15 37.5s22 15.5 36 15.5c14.667 0 27 -5.16699 37 -15.5s15 -22.833 15 -37.5c0 -14 -5 -26.167 -15 -36.5
s-22.333 -15.5 -37 -15.5c-14 0 -26 5.16699 -36 15.5s-15 22.5 -15 36.5z" />
    <glyph glyph-name="plus" unicode="+" 
d="M69 325v70h188v191h75v-191h191v-70h-191v-193h-75v193h-188z" />
    <glyph glyph-name="comma" unicode="," horiz-adv-x="223" 
d="M54 46c0 16 5.00098 28.833 15.001 38.5s24 14.5 42 14.5c21.333 0 38.666 -8.83301 51.999 -26.5s20 -41.167 20 -70.5c0 -36.667 -10 -68 -30 -94s-46.667 -44 -80 -54l-22 38c34.667 11.333 56 33.666 64 66.999c5.33301 22.667 5 39.334 -1 50.001
c-4 -6 -11.333 -9 -22 -9c-10 0 -18.833 4.5 -26.5 13.5s-11.5 19.833 -11.5 32.5z" />
    <glyph glyph-name="hyphen" unicode="-" horiz-adv-x="389" 
d="M75 235v75h239v-75h-239z" />
    <glyph glyph-name="period" unicode="." horiz-adv-x="210" 
d="M50 54c0 14 5.33301 26.333 16 37s24.334 16 41.001 16c14.667 0 27.167 -5.5 37.5 -16.5s15.5 -23.167 15.5 -36.5c0 -15.333 -5 -28.666 -15 -39.999s-22.667 -17 -38 -17c-16.667 0 -30.334 5.66699 -41.001 17s-16 24.666 -16 39.999z" />
    <glyph glyph-name="slash" unicode="/" horiz-adv-x="335" 
d="M-30 -185l333 895l62 -23l-332 -895z" />
    <glyph glyph-name="zero" unicode="0" horiz-adv-x="564" 
d="M55 350c0 110 18.833 197.167 56.5 261.5s94.5 96.5 170.5 96.5s132.833 -32.167 170.5 -96.5s56.5 -151.5 56.5 -261.5c0 -110.667 -18.5 -198 -55.5 -262s-93.5 -96 -169.5 -96s-133.167 32.167 -171.5 96.5s-57.5 151.5 -57.5 261.5zM140 350
c0 -188.667 48 -283 144 -283c49.333 0 85 23.667 107 71s33 118 33 212c0 93.333 -11.333 163.833 -34 211.5s-58.667 71.5 -108 71.5c-94.667 0 -142 -94.333 -142 -283z" />
    <glyph glyph-name="one" unicode="1" horiz-adv-x="379" 
d="M35 574l168 130h56v-704h-80v589l-102 -80z" />
    <glyph glyph-name="two" unicode="2" horiz-adv-x="527" 
d="M45 0l0.00195312 64.999c94.667 93.333 161.334 164 200.001 212c75.333 94 113 173.333 113 238c0 32.667 -9.83301 59.667 -29.5 81s-47.834 32 -84.501 32c-30 0 -56.667 -9.66699 -80 -29s-38.333 -47 -45 -83l-68 28c8 50.667 30.667 90.667 68 120
s81.333 44 132 44c61.333 0 108.666 -17.5 141.999 -52.5s50 -76.5 50 -124.5c0 -45.333 -11.833 -93.166 -35.5 -143.499s-54.834 -98 -93.501 -143s-69.5 -79 -92.5 -102s-47.167 -45.5 -72.5 -67.5h323v-75h-427z" />
    <glyph glyph-name="three" unicode="3" horiz-adv-x="532" 
d="M247 -10c-49.333 0 -92.5 10.333 -129.5 31s-64.5 50.334 -82.5 89.001l46 57c16.667 -31.333 39.667 -55.333 69 -72s60.666 -25 93.999 -25c42.667 0 76.334 11.833 101.001 35.5s37 53.834 37 90.501c0 37.333 -13.167 67 -39.5 89s-60.833 33 -103.5 33h-55v80h50
c32 0 60.167 11.5 84.5 34.5s36.5 51.833 36.5 86.5s-10.167 61.834 -30.5 81.501s-48.166 29.5 -83.499 29.5c-62.667 0 -110.667 -29 -144 -87l-45 55c16 35.333 41.167 62.833 75.5 82.5s74.166 29.5 119.499 29.5c58.667 0 105.5 -15.833 140.5 -47.5
s52.5 -74.834 52.5 -129.501c0 -38.667 -9.33301 -72.667 -28 -102s-45.667 -51.333 -81 -66v-3c42 -6.66699 75.167 -25.834 99.5 -57.501s36.5 -68.834 36.5 -111.501c0 -61.333 -20.667 -110.5 -62 -147.5s-94 -55.5 -158 -55.5z" />
    <glyph glyph-name="four" unicode="4" horiz-adv-x="550" 
d="M343 0v175h-323v57l290 468h92l-277 -445h218v195h80v-195h97v-80h-97v-175h-80z" />
    <glyph glyph-name="five" unicode="5" horiz-adv-x="516" 
d="M99 348l44.001 352h316v-80h-246l-26 -189c17.333 4.66699 36 7 56 7c64.667 0 117.667 -19.833 159 -59.5s62 -92.167 62 -157.5c0 -70 -22 -126 -66 -168s-98 -63 -162 -63c-40 0 -78.5 9 -115.5 27s-65.5 44.333 -85.5 79l46 59c16.667 -26.667 39.5 -47.5 68.5 -62.5
s58.5 -22.5 88.5 -22.5c40 0 73.5 14 100.5 42s40.5 63.333 40.5 106s-15.5 78 -46.5 106s-72.167 42 -123.5 42c-42.667 0 -79.334 -6 -110.001 -18z" />
    <glyph glyph-name="six" unicode="6" horiz-adv-x="554" 
d="M50 248c0 61.333 10.3301 119.501 30.9971 174.501s47.834 101.667 81.501 140s70 70.166 109 95.499s78.5 42.666 118.5 51.999l33 -61c-66.667 -17.333 -126.167 -53 -178.5 -107s-85.833 -122 -100.5 -204c32.667 62 87.667 93 165 93c58 0 105.833 -20 143.5 -60
s56.5 -91.667 56.5 -155c0 -66 -21.667 -120.167 -65 -162.5s-93.666 -63.5 -150.999 -63.5c-75.333 0 -134.666 24.833 -177.999 74.5s-65 110.834 -65 183.501zM134.997 248.001c0 -50.667 13.667 -92.999 41 -126.999s66 -51 116 -51c38 0 69.5 13.833 94.5 41.5
s37.5 60.5 37.5 98.5c0 42.667 -12.333 77.667 -37 105s-59.667 41 -105 41c-37.333 0 -68.833 -10.833 -94.5 -32.5s-43.167 -46.834 -52.5 -75.501z" />
    <glyph glyph-name="seven" unicode="7" horiz-adv-x="485" 
d="M30 620v80h420v-52l-258 -648h-88l249 620h-323z" />
    <glyph glyph-name="eight" unicode="8" horiz-adv-x="595" 
d="M285 400h26c30 0 56.167 11.333 78.5 34s33.5 49.667 33.5 81c0 35.333 -12.333 63.333 -37 84s-54.667 31 -90 31s-64.833 -10.667 -88.5 -32s-35.5 -49 -35.5 -83c0 -31.333 11.333 -58.333 34 -81s49 -34 79 -34zM310 320l-22 0.000976562
c-38 0 -70.5 -11.667 -97.5 -35s-40.5 -53 -40.5 -89c0 -36.667 13.833 -66.834 41.5 -90.501s62.834 -35.5 105.501 -35.5c44.667 0 80.5 11.5 107.5 34.5s40.5 53.5 40.5 91.5c-0.666992 38 -13.834 68.167 -39.501 90.5s-57.5 33.5 -95.5 33.5zM298 -9.99902
c-65.333 0 -120.498 17.333 -165.498 52s-67.5 81 -67.5 139c0 42.667 12.167 80 36.5 112s56.166 53.667 95.499 65v3c-31.333 10.667 -57.5 31.5 -78.5 62.5s-31.5 65.5 -31.5 103.5c0 54 20.167 98 60.5 132s90.166 51 149.499 51s109.333 -17 150 -51s61 -78 61 -132
c0 -34.667 -10.333 -67.334 -31 -98.001s-48.667 -53 -84 -67v-3c39.333 -6.66699 72 -25.667 98 -57s39 -69.666 39 -114.999c0 -60.667 -22.333 -108.667 -67 -144s-99.667 -53 -165 -53z" />
    <glyph glyph-name="nine" unicode="9" horiz-adv-x="551" 
d="M501 447c0 -128.667 -32.835 -233.831 -98.502 -315.498s-149.5 -128.834 -251.5 -141.501l-27 63c78.667 15.333 142.834 49.166 192.501 101.499s79.834 119.5 90.501 201.5c-31.333 -58 -84 -87 -158 -87c-60.667 0 -110.667 20.5 -150 61.5s-59 92.167 -59 153.5
c0 66 22.667 120.167 68 162.5s97 63.5 155 63.5c75.333 0 133.833 -24.5 175.5 -73.5s62.5 -112.167 62.5 -189.5zM415.998 447.003c0 51.333 -13 94.667 -39 130s-63.667 53 -113 53c-38 0 -70.667 -13.833 -98 -41.5s-41 -60.5 -41 -98.5
c0 -40.667 12.833 -75.167 38.5 -103.5s60.834 -42.5 105.501 -42.5c38 0 69.667 10.167 95 30.5s42.666 44.5 51.999 72.5z" />
    <glyph glyph-name="colon" unicode=":" horiz-adv-x="320" 
d="M105 406c0 14 5.33301 26.333 16 37s24.334 16 41.001 16c14.667 0 27.167 -5.5 37.5 -16.5s15.5 -23.167 15.5 -36.5c0 -15.333 -5 -28.666 -15 -39.999s-22.667 -17 -38 -17c-16.667 0 -30.334 5.66699 -41.001 17s-16 24.666 -16 39.999zM105 54
c0 14 5.33301 26.333 16 37s24.334 16 41.001 16c14.667 0 27.167 -5.5 37.5 -16.5s15.5 -23.167 15.5 -36.5c0 -15.333 -5 -28.666 -15 -39.999s-22.667 -17 -38 -17c-16.667 0 -30.334 5.66699 -41.001 17s-16 24.666 -16 39.999z" />
    <glyph glyph-name="semicolon" unicode=";" horiz-adv-x="324" 
d="M105 406c0 14 5.33301 26.333 16 37s24.334 16 41.001 16c14.667 0 27.167 -5.5 37.5 -16.5s15.5 -23.167 15.5 -36.5c0 -15.333 -5 -28.666 -15 -39.999s-22.667 -17 -38 -17c-16.667 0 -30.334 5.66699 -41.001 17s-16 24.666 -16 39.999zM105 46
c0 16 5.00098 28.833 15.001 38.5s24 14.5 42 14.5c21.333 0 38.666 -8.83301 51.999 -26.5s20 -41.167 20 -70.5c0 -36.667 -10 -68 -30 -94s-46.667 -44 -80 -54l-22 38c34.667 11.333 56 33.666 64 66.999c5.33301 22.667 5 39.334 -1 50.001c-4 -6 -11.333 -9 -22 -9
c-10 0 -18.833 4.5 -26.5 13.5s-11.5 19.833 -11.5 32.5z" />
    <glyph glyph-name="less" unicode="&#x3c;" 
d="M497 79l-440 266v34l440 264v-87l-329 -194l329 -196v-87z" />
    <glyph glyph-name="equal" unicode="=" 
d="M69 415v70h454v-70h-454zM69 235v70h454v-70h-454z" />
    <glyph glyph-name="greater" unicode="&#x3e;" 
d="M534 345l-439 -266v87l329 196l-329 194v87l439 -264v-34z" />
    <glyph glyph-name="question" unicode="?" horiz-adv-x="466" 
d="M350 520c0 30.667 -11.502 56.667 -34.502 78s-52.167 32 -87.5 32c-57.333 0 -104 -24.667 -140 -74l-48 53c18.667 30 45.167 54.333 79.5 73s72.166 28 113.499 28c62.667 0 112.167 -16.667 148.5 -50s54.5 -74.333 54.5 -123
c0 -30.667 -5.33301 -58.334 -16 -83.001s-24 -44 -40 -58l-50.5 -43l-48 -40c-14.333 -12 -25.333 -27.333 -33 -46s-9.16699 -40 -4.5 -64l-72 -1c-6.66699 34.667 -5.16699 64.334 4.5 89.001s23.834 44.667 42.501 60s37.834 30 57.501 44s36.834 31.5 51.501 52.5
s22 45.167 22 72.5zM151.998 54c0 14 5.33301 26.333 16 37s24.667 16 42 16c14.667 0 27.167 -5.5 37.5 -16.5s15.5 -23.167 15.5 -36.5c0 -15.333 -5 -28.666 -15 -39.999s-22.667 -17 -38 -17c-17.333 0 -31.333 5.66699 -42 17s-16 24.666 -16 39.999z" />
    <glyph glyph-name="at" unicode="@" horiz-adv-x="1006" 
d="M628 0v47.001c-38 -38 -84.333 -57 -139 -57c-68 0 -122.167 21.333 -162.5 64s-60.5 99.667 -60.5 171c0 66 24 121.667 72 167s108.333 68 181 68c72 0 135 -17 189 -51v-334h21c41.333 0 74.5 18.5 99.5 55.5s37.5 83.5 37.5 139.5
c0 90.667 -32.833 166.334 -98.5 227.001s-150.5 91 -254.5 91c-106.667 0 -195.5 -33.833 -266.5 -101.5s-106.5 -154.834 -106.5 -261.501c0 -103.333 35.833 -189.666 107.5 -258.999s160.167 -104 265.5 -104c38 0 74 4 108 12l5 -74c-39.333 -8.66699 -77 -13 -113 -13
c-129.333 0 -236.333 41.667 -321 125s-127 187.666 -127 312.999c0 123.333 42.5 227.166 127.5 311.499s191.833 126.5 320.5 126.5c123.333 0 225.5 -36.5 306.5 -109.5s121.5 -167.167 121.5 -282.5c0 -73.333 -20.333 -136.833 -61 -190.5s-97 -80.5 -169 -80.5h-83z
M502 65.001c24.667 0 48.333 5.83301 71 17.5s41 25.5 55 41.5v232c-34 19.333 -70.667 29 -110 29c-49.333 0 -89.5 -15.833 -120.5 -47.5s-46.5 -70.5 -46.5 -116.5c0 -48 13.833 -86 41.5 -114s64.167 -42 109.5 -42z" />
    <glyph glyph-name="A" unicode="A" horiz-adv-x="705" 
d="M15 0l301 704h73l301 -704h-91l-90 212h-319l-89 -212h-86zM350 591l-126 -299h252z" />
    <glyph glyph-name="B" unicode="B" horiz-adv-x="617" 
d="M105 1v697.999c104 2.66699 168 4 192 4c78.667 0 135.834 -15.667 171.501 -47s53.5 -73.333 53.5 -126c0 -42 -11 -76.5 -33 -103.5s-51 -46.5 -87 -58.5v-2c44.667 -7.33301 80 -25.166 106 -53.499s39 -65.833 39 -112.5c0 -68 -23.167 -118.833 -69.5 -152.5
s-107.833 -50.5 -184.5 -50.5c-70.667 0 -133.334 1.33301 -188.001 4zM303 318.999l-112.999 -0.000976562v-238c30.667 -2.66699 66.667 -4 108 -4c52.667 0 93.167 10.833 121.5 32.5s42.5 53.5 42.5 95.5c0 36.667 -13.833 64.834 -41.5 84.501
s-66.834 29.5 -117.501 29.5zM295.001 622.998c-20 0 -55.001 -1.00098 -105.001 -3.00098v-226h112c38.667 0 70.834 10.333 96.501 31s38.5 49.334 38.5 86.001c0 74.667 -47.333 112 -142 112z" />
    <glyph glyph-name="C" unicode="C" horiz-adv-x="656" 
d="M592 132l34.001 -64c-23.333 -24 -55 -43 -95 -57s-82 -21 -126 -21c-105.333 0 -190.833 32.833 -256.5 98.5s-98.5 152.834 -98.5 261.501c0 103.333 31.5 189.166 94.5 257.499s147.833 102.5 254.5 102.5c89.333 0 160.333 -22.667 213 -68l-39 -64
c-46.667 34.667 -104.334 52 -173.001 52c-76 0 -138.333 -26 -187 -78s-73 -119.333 -73 -202c0 -83.333 25.167 -150.833 75.5 -202.5s116.166 -77.5 197.499 -77.5c68.667 0 128.334 20.667 179.001 62z" />
    <glyph glyph-name="D" unicode="D" horiz-adv-x="739" 
d="M105 0l0.00195312 699.997h12c14.667 0 43.167 0.5 85.5 1.5s73.5 1.5 93.5 1.5c68 0 127.667 -9.16699 179 -27.5s92.333 -43.666 123 -75.999s53.5 -68.666 68.5 -108.999s22.5 -84.166 22.5 -131.499c0 -104.667 -34.833 -191 -104.5 -259s-168.5 -102 -296.5 -102
c-14.667 0 -41.834 0.333008 -81.501 1s-69.834 1 -90.501 1h-11zM294.002 622.997c-12.667 0 -24.667 -0.167969 -36 -0.500977s-23.5 -0.833008 -36.5 -1.5s-23.5 -1 -31.5 -1v-540c61.333 -1.33301 95 -2 101 -2c97.333 0 173 25.833 227 77.5s81 119.5 81 203.5
c0 78.667 -26.333 142.334 -79 191.001s-128 73 -226 73z" />
    <glyph glyph-name="E" unicode="E" horiz-adv-x="575" 
d="M105 0v700h395v-80h-310v-226h280v-80h-280v-234h320v-80h-405z" />
    <glyph glyph-name="F" unicode="F" horiz-adv-x="540" 
d="M105 0v700h395v-80h-310v-248h280v-80h-280v-292h-85z" />
    <glyph glyph-name="G" unicode="G" horiz-adv-x="727" 
d="M398 276l0.00195312 80h269v-269c-30 -30 -69.667 -53.667 -119 -71s-97 -26 -143 -26c-108.667 0 -195 32.667 -259 98s-96 152.666 -96 261.999c0 102.667 31.667 188.334 95 257.001s146.333 103 249 103c89.333 0 162.666 -22.667 219.999 -68l-37 -68
c-41.333 37.333 -99 56 -173 56c-78.667 0 -142.334 -25.667 -191.001 -77s-73 -119 -73 -203c0 -84.667 24.5 -152.5 73.5 -203.5s113.5 -76.5 193.5 -76.5c33.333 0 67 5.83301 101 17.5s60.333 26.5 79 44.5v144h-189z" />
    <glyph glyph-name="H" unicode="H" horiz-adv-x="765" 
d="M575 0v317h-385v-317h-85v700h85v-303h385v303h85v-700h-85z" />
    <glyph glyph-name="I" unicode="I" horiz-adv-x="335" 
d="M125 0v700h85v-700h-85z" />
    <glyph glyph-name="J" unicode="J" horiz-adv-x="374" 
d="M269 700v-541c0 -112.667 -51 -169 -153 -169c-46 0 -81.333 12.333 -106 37l29 65c19.333 -14.667 41.333 -22 66 -22c52.667 0 79 34.333 79 103v527h85z" />
    <glyph glyph-name="K" unicode="K" horiz-adv-x="653" 
d="M617 700l-312 -329l328 -371h-109l-317 365l307 335h103zM105 0v700h85v-700h-85z" />
    <glyph glyph-name="L" unicode="L" horiz-adv-x="550" 
d="M105 0v700h85v-620h345v-80h-430z" />
    <glyph glyph-name="M" unicode="M" horiz-adv-x="892" 
d="M105 0v700h86l263 -359l252 359h81v-700h-85v566l-248 -348h-13l-251 345v-563h-85z" />
    <glyph glyph-name="N" unicode="N" horiz-adv-x="795" 
d="M690 0h-68l-437 550v-550h-80v700h68l437 -552v552h80v-700z" />
    <glyph glyph-name="O" unicode="O" horiz-adv-x="814" 
d="M50 350c0 102 33.668 187.499 101.001 256.499s152.666 103.5 255.999 103.5c102.667 0 187.834 -33.667 255.501 -101s101.5 -153.666 101.5 -258.999c0 -103.333 -34 -189.166 -102 -257.499s-153 -102.5 -255 -102.5c-102.667 0 -187.834 33.667 -255.501 101
s-101.5 153.666 -101.5 258.999zM140.001 349.999c0 -79.333 25.667 -145.833 77 -199.5s114.666 -80.5 189.999 -80.5c78.667 0 142.834 26.667 192.501 80s74.5 120 74.5 200c0 80.667 -25.667 147.5 -77 200.5s-114.666 79.5 -189.999 79.5
c-76.667 0 -140.334 -26.333 -191.001 -79s-76 -119.667 -76 -201z" />
    <glyph glyph-name="P" unicode="P" horiz-adv-x="597" 
d="M190 0h-84.999v700c12.667 0 42.5 0.333008 89.5 1s78.167 1 93.5 1c92 0 158.167 -20.5 198.5 -61.5s60.5 -92.833 60.5 -155.5c0 -61.333 -21.833 -113.333 -65.5 -156s-105.834 -64 -186.501 -64c-38.667 0 -73.667 1.33301 -105 4v-269zM296.001 622
c-26.667 0 -61.999 -0.666992 -105.999 -2v-270c38 -3.33301 72 -5 102 -5c51.333 0 91.666 12.5 120.999 37.5s44 59.5 44 103.5c0 42.667 -13.333 76 -40 100s-67 36 -121 36z" />
    <glyph glyph-name="Q" unicode="Q" horiz-adv-x="814" 
d="M50 350c0 102 33.668 187.501 101.001 256.501s152.666 103.5 255.999 103.5c102.667 0 187.834 -33.667 255.501 -101s101.5 -153.666 101.5 -258.999c0 -104.667 -35 -191.334 -105 -260.001l77 -90h-100l-37 43c-57.333 -35.333 -121.333 -53 -192 -53
c-102.667 0 -187.834 33.667 -255.501 101s-101.5 153.666 -101.5 258.999zM140.001 350.001c0 -79.333 25.668 -145.833 77.001 -199.5s114.666 -80.5 189.999 -80.5c51.333 0 97.333 12 138 36l-61 73l56 51l64 -75c46.667 53.333 70 118.333 70 195
c0 80.667 -25.667 147.5 -77 200.5s-114.666 79.5 -189.999 79.5c-76.667 0 -140.334 -26.333 -191.001 -79s-76 -119.667 -76 -201z" />
    <glyph glyph-name="R" unicode="R" horiz-adv-x="643" 
d="M190 0h-85.001v700c14.667 0 48.334 0.333008 101.001 1s81.667 1 87 1c166 0 249 -69.333 249 -208c0 -51.333 -14.833 -94.5 -44.5 -129.5s-65.5 -57.833 -107.5 -68.5l233 -296h-104l-215 280h-114v-280zM287.999 622c-21.333 0 -54.001 -0.666992 -98.001 -2v-260
h103c42.667 0 79.834 12.167 111.501 36.5s47.5 56.5 47.5 96.5c0 86 -54.667 129 -164 129z" />
    <glyph glyph-name="S" unicode="S" horiz-adv-x="549" 
d="M409 179c0 23.333 -6.33008 43.665 -18.9971 60.998s-29 31.5 -49 42.5s-42.167 21.5 -66.5 31.5s-48.666 20.833 -72.999 32.5s-46.5 24.834 -66.5 39.501s-36.333 34 -49 58s-19 51.667 -19 83c0 52 19 95.5 57 130.5s89.333 52.5 154 52.5
c40 0 77.167 -6.66699 111.5 -20s61.5 -31 81.5 -53l-46 -64c-38 38 -85.333 57 -142 57c-38.667 0 -69.334 -9.33301 -92.001 -28s-34 -43.667 -34 -75c0 -23.333 6.33301 -43.666 19 -60.999s29 -31.333 49 -42s42.167 -20.834 66.5 -30.501s48.666 -20.167 72.999 -31.5
s46.5 -24.166 66.5 -38.499s36.333 -33.833 49 -58.5s19 -53 19 -85c0 -56.667 -21.833 -102.5 -65.5 -137.5s-97.834 -52.5 -162.501 -52.5c-45.333 0 -89.333 9.5 -132 28.5s-72.334 44.5 -89.001 76.5l49 58c20 -26 46 -46.333 78 -61s63.667 -22 95 -22
c38.667 0 71.167 9.66699 97.5 29s39.5 46 39.5 80z" />
    <glyph glyph-name="T" unicode="T" horiz-adv-x="595" 
d="M10 620v80h575v-80h-245v-620h-85v620h-245z" />
    <glyph glyph-name="U" unicode="U" horiz-adv-x="751" 
d="M656 700l-0.000976562 -408c0 -100.667 -25.667 -176 -77 -226s-116 -75 -194 -75c-87.333 0 -157.5 26.5 -210.5 79.5s-79.5 129.167 -79.5 228.5v401h85v-385c0 -76.667 17.833 -136.5 53.5 -179.5s86.167 -64.5 151.5 -64.5c58.667 0 104.334 20.167 137.001 60.5
s49 99.5 49 177.5v391h85z" />
    <glyph glyph-name="V" unicode="V" horiz-adv-x="656" 
d="M651 700l-288 -704h-63l-295 704h91l238 -576l231 576h86z" />
    <glyph glyph-name="W" unicode="W" horiz-adv-x="970" 
d="M960 700l-202 -700h-78l-192 563l-188 -563h-78l-212 700h96l163 -557l181 557h82l186 -557l159 557h83z" />
    <glyph glyph-name="X" unicode="X" horiz-adv-x="664" 
d="M635 700l-248 -344l257 -356h-101l-212 291l-211 -291h-100l257 356l-246 344h100l203 -280l200 280h101z" />
    <glyph glyph-name="Y" unicode="Y" horiz-adv-x="604" 
d="M594 700l-251 -400v-300h-85v300l-248 400h98l196 -320l197 320h93z" />
    <glyph glyph-name="Z" unicode="Z" horiz-adv-x="635" 
d="M60 620v80h525v-57l-430 -563h440v-80h-555v57l428 563h-408z" />
    <glyph glyph-name="bracketleft" unicode="[" horiz-adv-x="320" 
d="M60 -200v850h250v-75h-170v-700h170v-75h-250z" />
    <glyph glyph-name="backslash" unicode="\" horiz-adv-x="335" 
d="M32 710l333 -895l-63 -23l-332 895z" />
    <glyph glyph-name="bracketright" unicode="]" horiz-adv-x="320" 
d="M260 650v-850h-250v75h170v700h-170v75h250z" />
    <glyph glyph-name="asciicircum" unicode="^" horiz-adv-x="492" 
d="M40 450l180 258h54l178 -258h-87l-119 176l-119 -176h-87z" />
    <glyph glyph-name="underscore" unicode="_" horiz-adv-x="312" 
d="M0 -200v80h312v-80h-312z" />
    <glyph glyph-name="grave" unicode="`" horiz-adv-x="290" 
d="M181 531l-121 142l63 48l107 -156z" />
    <glyph glyph-name="a" unicode="a" horiz-adv-x="460" 
d="M96 355l-21.002 64c44 27.333 94 41 150 41c62 0 106.333 -15.333 133 -46s40 -76.667 40 -138v-276h-76v58c-34.667 -43.333 -82.667 -65 -144 -65c-41.333 0 -74.666 12.5 -99.999 37.5s-38 58.833 -38 101.5c0 44.667 15.833 79.667 47.5 105s72.5 38 122.5 38
c48 0 85.333 -9.66699 112 -29c0 48 -6.66699 83.667 -20 107s-40.666 35 -81.999 35c-40.667 0 -82 -11 -124 -33zM205.998 65c44.667 0 83.335 19.333 116.002 58v57c-28 20 -61.667 30 -101 30c-26.667 0 -49.334 -6.33301 -68.001 -19s-28 -31 -28 -55
c0 -22 7.16699 -39.333 21.5 -52s34.166 -19 59.499 -19z" />
    <glyph glyph-name="b" unicode="b" horiz-adv-x="549" 
d="M72 42v658h80v-293c16.667 15.333 37.667 28 63 38s51 15 77 15c66 0 118.167 -21 156.5 -63s57.5 -97 57.5 -165c0 -74 -22.667 -132.833 -68 -176.5s-106 -65.5 -182 -65.5c-74.667 0 -136 17.333 -184 52zM274 385c-24.667 0 -48.167 -5.83301 -70.5 -17.5
s-39.5 -25.167 -51.5 -40.5v-231c30.667 -20.667 66.667 -31 108 -31c46.667 0 85.167 14.5 115.5 43.5s45.5 68.167 45.5 117.5c0 50 -13.5 89 -40.5 117s-62.5 42 -106.5 42z" />
    <glyph glyph-name="c" unicode="c" horiz-adv-x="488" 
d="M418 123l38.002 -58c-18.667 -24 -43.334 -42.5 -74.001 -55.5s-63.667 -19.5 -99 -19.5c-72 0 -130.167 21.5 -174.5 64.5s-66.5 99.833 -66.5 170.5c0 66 21.667 121.667 65 167s97.666 68 162.999 68c78.667 0 137.667 -19.667 177 -59l-37 -63
c-34 31.333 -77 47 -129 47c-42 0 -78.167 -15.167 -108.5 -45.5s-45.5 -68.5 -45.5 -114.5c0 -48 15.5 -86.667 46.5 -116s69.5 -44 115.5 -44c52 0 95 19.333 129 58z" />
    <glyph glyph-name="d" unicode="d" horiz-adv-x="554" 
d="M402 0l0.000976562 57c-40 -43.333 -87.667 -65 -143 -65c-66 0 -118.667 21 -158 63s-59 97.667 -59 167c0 70 23.167 127.167 69.5 171.5s105.166 66.5 176.499 66.5c46 0 84 -10.667 114 -32v272h80v-700h-80zM274.001 67c49.333 0 92.001 20 128.001 60v223
c-36.667 23.333 -73.667 35 -111 35c-46 0 -84.833 -14.833 -116.5 -44.5s-47.5 -68.5 -47.5 -116.5c0 -48.667 13.667 -87 41 -115s62.666 -42 105.999 -42z" />
    <glyph glyph-name="e" unicode="e" horiz-adv-x="520" 
d="M427 112l25 -63c-43.333 -39.333 -99.666 -59 -168.999 -59c-72.667 0 -131 21.333 -175 64s-66 99.667 -66 171c0 68 20.667 124.167 62 168.5s98 66.5 170 66.5c59.333 0 109 -19.167 149 -57.5s60 -87.833 60 -148.5c0 -20.667 -1.66699 -38.667 -5 -54h-346
c3.33301 -42 19.166 -75 47.499 -99s64.833 -36 109.5 -36c58.667 0 104.667 15.667 138 47zM270 385c-40 0 -72.667 -11.167 -98 -33.5s-40.333 -51.166 -45 -86.499h273c-2 37.333 -14.5 66.666 -37.5 87.999s-53.833 32 -92.5 32z" />
    <glyph glyph-name="f" unicode="f" horiz-adv-x="330" 
d="M82 0v523c0 62 13.667 108.667 41 140s66.333 47 117 47c52 0 92 -13.333 120 -40l-28 -61c-20.667 17.333 -47 26 -79 26c-60.667 0 -91 -40.333 -91 -121v-64h150v-75h-150v-375h-80z" />
    <glyph glyph-name="g" unicode="g" horiz-adv-x="494" 
d="M10 -65c0 35.333 12.832 64.6689 38.499 88.002s60.834 39.666 105.501 48.999c-7.33301 9.33301 -11 21.666 -11 36.999s4 28 12 38c-32 12.667 -56.833 32.167 -74.5 58.5s-26.5 56.166 -26.5 89.499c0 46.667 16.833 85.834 50.5 117.501s78.167 47.5 133.5 47.5
c43.333 0 81.333 -11 114 -33l132 32l2 -65l-85 -21c14 -22.667 21 -48.667 21 -78c0 -46 -17 -84.5 -51 -115.5s-78.333 -46.5 -133 -46.5c-13.333 0 -23.333 0.333008 -30 1c-3.33301 -6.66699 -5 -15 -5 -25c0 -12 3 -22 9 -30c2.66699 0 7 0.166992 13 0.5
s10.667 0.5 14 0.5c68.667 0 124 -12.333 166 -37s63 -60.667 63 -108c0 -46.667 -21 -82.167 -63 -106.5s-97.333 -36.5 -166 -36.5s-124 12 -166 36s-63 59.667 -63 107zM84.999 -64.9971c0 -24.667 13.833 -43.832 41.5 -57.499s65.167 -20.5 112.5 -20.5
s84.833 6.66699 112.5 20s41.5 32.666 41.5 57.999c0 24.667 -13.667 44.167 -41 58.5s-65 21.5 -113 21.5s-85.667 -7.16699 -113 -21.5s-41 -33.833 -41 -58.5zM128.999 295.005c0 -28 10 -51.167 30 -69.5s46.333 -27.5 79 -27.5c32 0 58.167 9 78.5 27
s30.5 41.333 30.5 70s-10 52.5 -30 71.5s-46.333 28.5 -79 28.5s-59 -9.5 -79 -28.5s-30 -42.833 -30 -71.5z" />
    <glyph glyph-name="h" unicode="h" horiz-adv-x="549" 
d="M72 0l0.000976562 700.002h80v-302c17.333 17.333 39.166 31.666 65.499 42.999s53.5 17 81.5 17c124.667 0 187 -66.667 187 -200v-258h-80v247c0 90.667 -42 136 -126 136c-24 0 -47.667 -5.33301 -71 -16s-42.333 -24.334 -57 -41.001v-326h-80z" />
    <glyph glyph-name="i" unicode="i" horiz-adv-x="268" 
d="M94 0v450h80v-450h-80zM84 619c0 14 5 25.5 15 34.5s22.333 13.5 37 13.5c13.333 0 24.833 -4.5 34.5 -13.5s14.5 -20.5 14.5 -34.5c0 -16 -4.83301 -28.667 -14.5 -38s-21.167 -14 -34.5 -14c-14.667 0 -27 4.66699 -37 14s-15 22 -15 38z" />
    <glyph glyph-name="j" unicode="j" horiz-adv-x="266" 
d="M178 450v-483c0 -116.667 -47 -175 -141 -175c-42 0 -75.333 9.66699 -100 29l23 64c19.333 -12 39 -18 59 -18c52.667 0 79 35.333 79 106v477h80zM87 619c0 14 5 25.5 15 34.5s22.333 13.5 37 13.5c13.333 0 24.833 -4.5 34.5 -13.5s14.5 -20.5 14.5 -34.5
c0 -16 -4.83301 -28.667 -14.5 -38s-21.167 -14 -34.5 -14c-14.667 0 -27 4.66699 -37 14s-15 22 -15 38z" />
    <glyph glyph-name="k" unicode="k" horiz-adv-x="491" 
d="M457 450l-191 -209l215 -241h-109l-203 235l186 215h102zM72 0v700h80v-700h-80z" />
    <glyph glyph-name="l" unicode="l" horiz-adv-x="290" 
d="M72 120v580h80v-544c0 -30.667 4.16699 -53.167 12.5 -67.5s21.833 -21.5 40.5 -21.5c18 0 37 6.66699 57 20l18 -61c-28.667 -22.667 -64 -34 -106 -34c-68 0 -102 42.667 -102 128z" />
    <glyph glyph-name="m" unicode="m" horiz-adv-x="803" 
d="M740 295l-0.00195312 -294.999h-80v273c0 73.333 -32.333 110 -97 110c-26 0 -49.5 -6 -70.5 -18s-36.833 -27.667 -47.5 -47c0.666992 -5.33301 1 -16 1 -32v-286h-80v290c0 28 -8.33301 50.5 -25 67.5s-40.334 25.5 -71.001 25.5c-50 0 -89.333 -20.333 -118 -61v-322
h-80v450h80v-57c16.667 19.333 38.5 35 65.5 47s54.833 18 83.5 18c34.667 0 63.834 -7 87.501 -21s39.834 -33 48.501 -57c16.667 23.333 38.834 42.166 66.501 56.499s58.167 21.5 91.5 21.5c96.667 0 145 -54.333 145 -163z" />
    <glyph glyph-name="n" unicode="n" horiz-adv-x="549" 
d="M72 0l-0.000976562 450h80v-55c16.667 18 38.334 33 65.001 45s54 18 82 18c124.667 0 187 -66 187 -198v-260h-80v245c0 92 -42.333 138 -127 138c-50.667 0 -93 -19.333 -127 -58v-325h-80z" />
    <glyph glyph-name="o" unicode="o" horiz-adv-x="565" 
d="M42 225c0 68 22.167 124.167 66.5 168.5s102.166 66.5 173.499 66.5s129.166 -22.167 173.499 -66.5s66.5 -100.5 66.5 -168.5s-22.167 -124.167 -66.5 -168.5s-102.166 -66.5 -173.499 -66.5s-129.166 22.167 -173.499 66.5s-66.5 100.5 -66.5 168.5zM127 225
c0 -46.667 14.5 -85 43.5 -115s66.167 -45 111.5 -45s82.5 14.833 111.5 44.5s43.5 68.167 43.5 115.5c0 46.667 -14.5 85 -43.5 115s-66.167 45 -111.5 45c-44.667 0 -81.667 -14.833 -111 -44.5s-44 -68.167 -44 -115.5z" />
    <glyph glyph-name="p" unicode="p" horiz-adv-x="556" 
d="M72 -200l-0.00292969 649.998h80v-53c16 18.667 37.833 33.834 65.5 45.501s56.834 17.5 87.501 17.5c63.333 0 113.833 -21.167 151.5 -63.5s56.5 -97.166 56.5 -164.499c0 -69.333 -21.667 -127 -65 -173s-99.666 -69 -168.999 -69
c-53.333 0 -95.666 10.333 -126.999 31v-221h-80zM281.997 384.998c-53.333 0 -96.666 -20.668 -129.999 -62.001v-223c34.667 -23.333 74.667 -35 120 -35c47.333 0 85.166 15.333 113.499 46s42.5 70 42.5 118c0 46.667 -13 84.334 -39 113.001s-61.667 43 -107 43z" />
    <glyph glyph-name="q" unicode="q" horiz-adv-x="557" 
d="M404 -200v236c-39.333 -30.667 -83 -46 -131 -46c-70 0 -126 21.333 -168 64s-63 99.667 -63 171c0 66 24 121.667 72 167s108.333 68 181 68c72 0 135 -17 189 -51v-609h-80zM283 65c23.333 0 46.166 5.16797 68.499 15.501s39.833 23.166 52.5 38.499v237
c-34 19.333 -70.667 29 -110 29c-49.333 0 -89.5 -15.833 -120.5 -47.5s-46.5 -70.5 -46.5 -116.5s14.333 -83.5 43 -112.5s66.334 -43.5 113.001 -43.5z" />
    <glyph glyph-name="r" unicode="r" horiz-adv-x="340" 
d="M72 0v450h80v-53c27.333 40.667 65 61 113 61c31.333 0 54.666 -5.66699 69.999 -17l-28 -75c-19.333 11.333 -39.666 17 -60.999 17c-40.667 0 -72 -21.333 -94 -64v-319h-80z" />
    <glyph glyph-name="s" unicode="s" horiz-adv-x="430" 
d="M300 122c0 16.667 -8.33398 30.166 -25.001 40.499s-36.834 19 -60.501 26s-47.5 15.167 -71.5 24.5s-44.333 24 -61 44s-25 45.333 -25 76c0 38.667 14.167 69.5 42.5 92.5s65.166 34.5 110.499 34.5c66.667 0 118.334 -17.667 155.001 -53l-38 -61
c-32.667 29.333 -70.334 44 -113.001 44c-22 0 -39.5 -5.5 -52.5 -16.5s-19.5 -24.167 -19.5 -39.5c0 -17.333 8.33301 -31.5 25 -42.5s36.834 -20 60.501 -27s47.5 -15 71.5 -24s44.333 -23 61 -42s25 -43.167 25 -72.5c0 -44.667 -16.667 -78.5 -50 -101.5
s-74.666 -34.5 -123.999 -34.5c-34.667 0 -68.167 7.33301 -100.5 22s-54.166 30.667 -65.499 48l45 57c13.333 -15.333 32.833 -28.666 58.5 -39.999s49.5 -17 71.5 -17c22.667 0 41.667 5.5 57 16.5s23 26.167 23 45.5z" />
    <glyph glyph-name="t" unicode="t" horiz-adv-x="353" 
d="M62 171l-0.000976562 404h80v-125h165v-75h-165v-196c0 -74.667 26.667 -112 80 -112c25.333 0 49 8.33301 71 25l25 -62c-30.667 -25.333 -69 -38 -115 -38c-49.333 0 -85.166 15 -107.499 45s-33.5 74.667 -33.5 134z" />
    <glyph glyph-name="u" unicode="u" horiz-adv-x="540" 
d="M467 450v-450h-80v64c-17.333 -20.667 -39.833 -38.167 -67.5 -52.5s-58.167 -21.5 -91.5 -21.5c-52 0 -92.667 16 -122 48s-44 80 -44 144v268h80v-250c0 -90 38.667 -135 116 -135c24.667 0 48.667 6.33301 72 19s42.333 28.667 57 48v318h80z" />
    <glyph glyph-name="v" unicode="v" horiz-adv-x="476" 
d="M471 450l-198.999 -454.001h-58l-209 454h94l109 -243c12 -27.333 24.667 -60.666 38 -99.999c11.333 36.667 23.666 70.667 36.999 102l103 241h85z" />
    <glyph glyph-name="w" unicode="w" horiz-adv-x="706" 
d="M696 450l-144.002 -453.999h-70l-112 293c-5.33301 13.333 -11 31.666 -17 54.999c-7.33301 -26.667 -13.666 -46 -18.999 -58l-109 -290h-66l-149 454h86l88 -284c2.66699 -8 5.83398 -19.167 9.50098 -33.5l7.5 -29.5c12 40.667 18.333 61.667 19 63l102 284h69
l103 -283c1.33301 -3.33301 8.33301 -25 21 -65c4.66699 22.667 10.667 45.667 18 69l82 279h81z" />
    <glyph glyph-name="x" unicode="x" horiz-adv-x="507" 
d="M472 450l-161 -217l171 -233h-98l-132 182l-134 -182h-93l170 229l-160 221h98l122 -170l124 170h93z" />
    <glyph glyph-name="y" unicode="y" horiz-adv-x="491" 
d="M481 450l-180 -450c-32 -78 -60.333 -130.833 -85 -158.5s-53.667 -41.5 -87 -41.5c-28.667 0 -57 9.33301 -85 28l26 61c21.333 -10 38 -15 50 -15c18.667 0 35.5 8 50.5 24s30.167 42 45.5 78l10 24l-216 450h96l132 -286c2.66699 -6 11.667 -28.667 27 -68
c6 22 13 45 21 69l104 285h91z" />
    <glyph glyph-name="z" unicode="z" horiz-adv-x="485" 
d="M60 375v75h380v-56l-282 -319h277v-75h-390v56l281 319h-266z" />
    <glyph glyph-name="braceleft" unicode="{" horiz-adv-x="335" 
d="M110 -65l0.00195312 157.001c0 36 -9 61.5 -27 76.5s-39 22.167 -63 21.5v70c23.333 0 44.166 8.33301 62.499 25s27.5 45 27.5 85v139c0 47.333 10.5 82.666 31.5 105.999s56.5 35 106.5 35h67v-75h-48c-28.667 0 -48.667 -7 -60 -21s-17 -38 -17 -72v-142
c0 -32 -6.83301 -58.167 -20.5 -78.5s-31.834 -32.166 -54.501 -35.499c50 -6 75 -44 75 -114v-145c0 -32.667 6.66699 -56.167 20 -70.5s34.333 -21.5 63 -21.5h42v-75h-71c-44.667 0 -78.167 10.667 -100.5 32s-33.5 55.666 -33.5 102.999z" />
    <glyph glyph-name="bar" unicode="|" horiz-adv-x="330" 
d="M125 0v700h80v-700h-80z" />
    <glyph glyph-name="braceright" unicode="}" horiz-adv-x="335" 
d="M225 92l0.00292969 -157.001c0 -47.333 -11.333 -81.666 -34 -102.999s-56.334 -32 -101.001 -32h-70v75h42c28.667 0 49.667 7.16699 63 21.5s20 37.833 20 70.5v145c0 70 25 108 75 114c-22.667 3.33301 -40.834 15.166 -54.501 35.499s-20.5 46.5 -20.5 78.5v142
c0 34 -5.83301 58 -17.5 72s-31.5 21 -59.5 21h-48v75h67c50 0 85.5 -11.667 106.5 -35s31.5 -58.666 31.5 -105.999v-139c0 -40 9.16699 -68.333 27.5 -85s39.166 -25 62.499 -25v-70c-24 0.666992 -45 -6.5 -63 -21.5s-27 -40.5 -27 -76.5z" />
    <glyph glyph-name="asciitilde" unicode="~" 
d="M86 307l-35.999 51c44.667 48 90 72 136 72c28 0 67.333 -11.833 118 -35.5s88.667 -35.5 114 -35.5c30.667 0 61 15 91 45l32 -55c-42 -40 -83.333 -60 -124 -60c-27.333 0 -66 11.833 -116 35.5s-87 35.5 -111 35.5c-32.667 0 -67.334 -17.667 -104.001 -53z" />
    <glyph glyph-name="uni00A0" unicode="&#xa0;" horiz-adv-x="225" 
 />
    <glyph glyph-name="exclamdown" unicode="&#xa1;" horiz-adv-x="310" 
d="M198 242v-485h-85v485h85zM211 403c0 -14 -5.33301 -26.333 -16 -37s-24.667 -16 -42 -16c-14.667 0 -27.167 5.5 -37.5 16.5s-15.5 23.167 -15.5 36.5c0 15.333 5 28.666 15 39.999s22.667 17 38 17c17.333 0 31.333 -5.66699 42 -17s16 -24.666 16 -39.999z" />
    <glyph glyph-name="cent" unicode="&#xa2;" 
d="M465 123l37.999 -57.998c-33.333 -42 -81 -66.333 -143 -73v-112h-80v114c-58.667 9.33301 -105.167 34.666 -139.5 75.999s-51.5 93 -51.5 155c0 59.333 17.667 110.666 53 153.999s81.333 69.333 138 78v109h80v-108c56.667 -6 101.334 -25 134.001 -57l-37 -63
c-34 31.333 -77 47 -129 47c-42 0 -78.167 -15.167 -108.5 -45.5s-45.5 -68.5 -45.5 -114.5c0 -48 15.5 -86.667 46.5 -116s69.5 -44 115.5 -44c52 0 95 19.333 129 58z" />
    <glyph glyph-name="sterling" unicode="&#xa3;" 
d="M75 275l0.00195312 64.9951h79c-2.66699 6.66699 -8.33398 18.834 -17.001 36.501s-15 31.5 -19 41.5s-8 23.833 -12 41.5s-6 35.834 -6 54.501c0 54 20 99.833 60 137.5s92 56.5 156 56.5c81.333 0 145 -25.333 191 -76l-45 -62c-40.667 38.667 -88.667 58 -144 58
c-38 0 -68.833 -11.667 -92.5 -35s-35.5 -51.333 -35.5 -84c0 -22 3.16699 -42.167 9.5 -60.5s14.666 -37.666 24.999 -57.999s17.833 -37.166 22.5 -50.499h162v-65h-150v-9c0 -47.333 -18 -93.666 -54 -138.999c22 -2 56 -11 102 -27s81.333 -24 106 -24
c40.667 0 77 15.333 109 46l36 -62c-42 -42.667 -91 -64 -147 -64c-26 0 -64 8.66699 -114 26s-88 26 -114 26c-36 0 -73 -18.333 -111 -55l-34 63c25.333 27.333 53.333 47.333 84 60c34.667 44 52 89 52 135c0 10.667 -0.333008 18.667 -1 24h-98z" />
    <glyph glyph-name="currency" unicode="&#xa4;" 
d="M69 345c0 50.667 13.667 95.667 41 135l-83 85l50 50l83 -85c38.667 28 84 42 136 42c50.667 0 95.667 -13.667 135 -41l88 87l50 -50l-88 -87c28 -40.667 42 -86 42 -136c0 -50.667 -14 -95.667 -42 -135l85 -85l-49 -49l-85 84c-38.667 -28 -84 -42 -136 -42
s-97.333 14 -136 42l-88 -88l-49 49l87 89c-27.333 38.667 -41 83.667 -41 135zM144 345c0 -44 13.833 -81.167 41.5 -111.5s64.5 -45.5 110.5 -45.5c47.333 0 84.5 15 111.5 45s40.5 67.333 40.5 112c0 45.333 -13.667 82.833 -41 112.5s-64.333 44.5 -111 44.5
c-46 0 -82.833 -15 -110.5 -45s-41.5 -67.333 -41.5 -112z" />
    <glyph glyph-name="yen" unicode="&#xa5;" 
d="M68 299v65h146l-195 336h98l181 -320l182 320h93l-198 -336h147v-65h-185v-105h185v-65h-185v-129h-85v129h-184v65h184v105h-184z" />
    <glyph glyph-name="brokenbar" unicode="&#xa6;" horiz-adv-x="330" 
d="M205 440h-80v260h80v-260zM125 260h80v-260h-80v260z" />
    <glyph glyph-name="section" unicode="&#xa7;" horiz-adv-x="524" 
d="M65 249c0 42.667 11.668 79.668 35.001 111.001s55.666 52.666 96.999 63.999c-54.667 30.667 -82 75.667 -82 135c0 40.667 14.5 74.334 43.5 101.001s68.167 40 117.5 40c56 0 101 -21.667 135 -65l-48 -54c-8.66699 10 -15.667 17.333 -21 22s-13.833 9.5 -25.5 14.5
s-24.5 7.5 -38.5 7.5c-23.333 0 -43 -7.83301 -59 -23.5s-24 -34.834 -24 -57.501c0 -45.333 29 -82.666 87 -111.999c54 -4 97 -23 129 -57s48 -76 48 -126c0 -42.667 -12 -79.834 -36 -111.501s-56.667 -52.834 -98 -63.501c54.667 -31.333 82 -75.666 82 -132.999
c0 -40.667 -14.5 -74.334 -43.5 -101.001s-68.167 -40 -117.5 -40c-58 0 -103.333 21.667 -136 65l48 54c8.66699 -9.33301 15.667 -16.5 21 -21.5s14 -10 26 -15s25 -7.5 39 -7.5c23.333 0 43 7.83301 59 23.5s24 34.834 24 57.501c0 44.667 -29.667 81.667 -89 111
c-53.333 4.66699 -95.5 24 -126.5 58s-46.5 75.333 -46.5 124zM145.001 249.001c0 -31.333 10.999 -58 32.999 -80s50 -33 84 -33c34.667 0 62.834 11 84.501 33s32.5 48.667 32.5 80s-11 58.166 -33 80.499s-50 33.5 -84 33.5s-62 -11.167 -84 -33.5
s-33 -49.166 -33 -80.499z" />
    <glyph glyph-name="dieresis" unicode="&#xa8;" horiz-adv-x="415" 
d="M60 610c0 14 4.5 25.167 13.5 33.5s20.167 12.5 33.5 12.5c11.333 0 21.5 -4.33301 30.5 -13s13.5 -19.667 13.5 -33c0 -15.333 -4.33301 -27.5 -13 -36.5s-19 -13.5 -31 -13.5c-13.333 0 -24.5 4.5 -33.5 13.5s-13.5 21.167 -13.5 36.5zM263 610
c0 13.333 4.66699 24.333 14 33s20.666 13 33.999 13c11.333 0 21.5 -4.33301 30.5 -13s13.5 -19.667 13.5 -33c0 -15.333 -4.33301 -27.5 -13 -36.5s-19 -13.5 -31 -13.5c-13.333 0 -24.666 4.5 -33.999 13.5s-14 21.167 -14 36.5z" />
    <glyph glyph-name="copyright" unicode="&#xa9;" horiz-adv-x="1018" 
d="M75 221c0 121.333 41.667 224 125 308s186.333 126 309 126s225.667 -42 309 -126s125 -186.667 125 -308s-41.667 -224 -125 -308s-186.333 -126 -309 -126s-225.667 42 -309 126s-125 186.667 -125 308zM145 220c0 -101.333 34.667 -187.168 104 -257.501
s156 -105.5 260 -105.5c103.333 0 189.833 35.333 259.5 106s104.5 156.334 104.5 257.001c0 101.333 -34.833 187.5 -104.5 258.5s-156.167 106.5 -259.5 106.5c-104 0 -190.667 -35.5 -260 -106.5s-104 -157.167 -104 -258.5zM652 122.998l38.002 -58
c-18.667 -24 -43.334 -42.5 -74.001 -55.5s-63.667 -19.5 -99 -19.5c-72 0 -130.167 21.5 -174.5 64.5s-66.5 99.833 -66.5 170.5c0 66 21.667 121.667 65 167s97.666 68 162.999 68c78.667 0 137.667 -19.667 177 -59l-37 -63c-34 31.333 -77 47 -129 47
c-42 0 -78.167 -15.167 -108.5 -45.5s-45.5 -68.5 -45.5 -114.5c0 -48 15.5 -86.667 46.5 -116s69.5 -44 115.5 -44c52 0 95 19.333 129 58z" />
    <glyph glyph-name="ordfeminine" unicode="&#xaa;" horiz-adv-x="425" 
d="M114 573l-29.999 46.999c34.667 25.333 78 38 130 38c41.333 0 75.166 -11 101.499 -33s39.5 -54 39.5 -96v-204h-70v47c-28 -34 -69.333 -51 -124 -51c-33.333 0 -60.166 10 -80.499 30s-30.5 44.333 -30.5 73c0 34.667 11.167 61.334 33.5 80.001s53.166 28 92.499 28
c44 0 80.333 -8.33301 109 -25v5c0 57.333 -28 86 -84 86c-34 0 -63 -8.33301 -87 -25zM195.001 379.999c30.667 0 60.667 11.999 90 35.999v46c-28 13.333 -56.667 20 -86 20c-22 0 -39.833 -4.5 -53.5 -13.5s-20.5 -21.5 -20.5 -37.5
c0 -15.333 6.33301 -27.666 19 -36.999s29.667 -14 51 -14z" />
    <glyph glyph-name="guillemotleft" unicode="&#xab;" horiz-adv-x="530" 
d="M420 30l-185 218v4l188 216l52 -46l-148 -172l147 -173zM230 30l-185 218v4l188 216l52 -46l-148 -172l147 -173z" />
    <glyph glyph-name="logicalnot" unicode="&#xac;" 
d="M59 325v70h474v-201h-70v131h-404z" />
    <glyph glyph-name="uni00AD" unicode="&#xad;" horiz-adv-x="389" 
d="M75 235v75h239v-75h-239z" />
    <glyph glyph-name="registered" unicode="&#xae;" horiz-adv-x="618" 
d="M50 497c0 71.333 25.3311 132.166 75.998 182.499s112 75.5 184 75.5c70.667 0 131.334 -25.167 182.001 -75.5s76 -111.166 76 -182.499c0 -72.667 -25.167 -134.334 -75.5 -185.001s-111.166 -76 -182.499 -76c-72.667 0 -134.167 25.333 -184.5 76
s-75.5 112.334 -75.5 185.001zM114.998 496c0 -53.333 19 -99 57 -137s83.667 -57 137 -57s99 19 137 57s57 83.667 57 137s-19 99 -57 137s-83.667 57 -137 57s-99 -19 -137 -57s-57 -83.667 -57 -137zM265.998 360h-55.001v280h98c72 0 108 -29 108 -87
c0 -19.333 -5.66699 -36.333 -17 -51s-25.666 -24.667 -42.999 -30l74 -112h-65l-63 101h-37v-101zM301.997 600l-36.001 -0.00195312v-99h39c16 0 29.5 4.83301 40.5 14.5s16.5 21.834 16.5 36.501s-5.16699 26.334 -15.5 35.001s-25.166 13 -44.499 13z" />
    <glyph glyph-name="macron" unicode="&#xaf;" horiz-adv-x="384" 
d="M60 580v65h264v-65h-264z" />
    <glyph glyph-name="degree" unicode="&#xb0;" horiz-adv-x="410" 
d="M50 569c0 44 15 81 45 111s66.333 45 109 45c43.333 0 80.166 -14.5 110.499 -43.5s45.5 -65.5 45.5 -109.5c0 -43.333 -15.167 -80.333 -45.5 -111s-67.166 -46 -110.499 -46c-42.667 0 -79 14.833 -109 44.5s-45 66.167 -45 109.5zM120 570
c0 -23.333 8.33301 -43.333 25 -60s36.667 -25 60 -25s43.333 8.33301 60 25s25 36.667 25 60c0 22.667 -8.33301 42.5 -25 59.5s-36.667 25.5 -60 25.5s-43.333 -8.33301 -60 -25s-25 -36.667 -25 -60z" />
    <glyph glyph-name="plusminus" unicode="&#xb1;" 
d="M69 410v70h188v191h75v-191h191v-70h-191v-123h-75v123h-188zM69 165v70h454v-70h-454z" />
    <glyph glyph-name="twosuperior" unicode="&#xb2;" horiz-adv-x="349" 
d="M35 350v51.002c2.66699 2 11 7.5 25 16.5l29 19l27.5 19.5c13 9.33301 22.5 16.5 28.5 21.5l25 21c10.667 9 18.667 16.667 24 23s11 13.666 17 21.999s10.167 16.166 12.5 23.499s3.5 14.666 3.5 21.999c0 16 -5.33301 29.167 -16 39.5s-25.667 15.5 -45 15.5
c-16.667 0 -31.667 -5.5 -45 -16.5s-21.333 -24.833 -24 -41.5l-59 21c4.66699 30 19.5 53.667 44.5 71s55.167 26 90.5 26c41.333 0 73 -10 95 -30s33 -45.667 33 -77c0 -21.333 -6.66699 -42.666 -20 -63.999s-30.5 -40.333 -51.5 -57s-39.5 -30 -55.5 -40
s-31.667 -18.667 -47 -26h192v-60h-284z" />
    <glyph glyph-name="threesuperior" unicode="&#xb3;" horiz-adv-x="350" 
d="M169 344c-70.667 0 -118.666 23.332 -143.999 69.999l41 38c8 -15.333 20.667 -27.5 38 -36.5s35.333 -13.5 54 -13.5c24 0 42.833 5 56.5 15s20.5 22.667 20.5 38c0 14 -6.16699 25.333 -18.5 34s-29.833 13 -52.5 13h-34v50h30c17.333 0 32 4.83301 44 14.5
s18 21.834 18 36.501c0 14 -5.66699 25 -17 33s-26.666 12 -45.999 12c-38.667 0 -68.334 -15 -89.001 -45l-34 38c24 42.667 69.667 64 137 64c37.333 0 67.333 -7.83301 90 -23.5s34 -37.167 34 -64.5c0 -20.667 -6.5 -38.334 -19.5 -53.001s-31.167 -25 -54.5 -31v-1
c27.333 -2 48.666 -11 63.999 -27s23 -34.667 23 -56c0 -31.333 -13.5 -56.666 -40.5 -75.999s-60.5 -29 -100.5 -29z" />
    <glyph glyph-name="acute" unicode="&#xb4;" horiz-adv-x="288" 
d="M228 674l-120 -143l-48 34l106 157z" />
    <glyph glyph-name="mu" unicode="&#xb5;" horiz-adv-x="545" 
d="M472 450l0.000976562 -450h-80v64c-17.333 -20.667 -39.833 -38.167 -67.5 -52.5s-58.167 -21.5 -91.5 -21.5c-32.667 0 -61.334 6.66699 -86.001 20v-210h-80v650h80v-250c0 -90 38.667 -135 116 -135c24.667 0 48.667 6.33301 72 19s42.333 28.667 57 48v318h80z" />
    <glyph glyph-name="mu" unicode="&#x3bc;" horiz-adv-x="545" 
d="M472 450l0.000976562 -450h-80v64c-17.333 -20.667 -39.833 -38.167 -67.5 -52.5s-58.167 -21.5 -91.5 -21.5c-32.667 0 -61.334 6.66699 -86.001 20v-210h-80v650h80v-250c0 -90 38.667 -135 116 -135c24.667 0 48.667 6.33301 72 19s42.333 28.667 57 48v318h80z" />
    <glyph glyph-name="paragraph" unicode="&#xb6;" horiz-adv-x="461" 
d="M45 481c0 67.333 19.667 120.666 59 159.999s91 59 155 59h172v-75h-94v-638c0 -130 -55 -195 -165 -195c-47.333 0 -85.333 13.667 -114 41l33 58c21.333 -16 46.333 -24 75 -24c34.667 0 58.5 10.833 71.5 32.5s19.5 51.834 19.5 90.501v273
c-59.333 0.666992 -109.5 20.667 -150.5 60s-61.5 92 -61.5 158z" />
    <glyph glyph-name="periodcentered" unicode="&#xb7;" horiz-adv-x="225" 
d="M57 299c0 14 5.33301 26.333 16 37s24.334 16 41.001 16c14.667 0 27.167 -5.5 37.5 -16.5s15.5 -23.167 15.5 -36.5c0 -15.333 -5 -28.666 -15 -39.999s-22.667 -17 -38 -17c-16.667 0 -30.334 5.66699 -41.001 17s-16 24.666 -16 39.999z" />
    <glyph glyph-name="cedilla" unicode="&#xb8;" horiz-adv-x="351" 
d="M60 -171l23.999 39.001c23.333 -15.333 47 -23 71 -23c16.667 0 30.167 3.16699 40.5 9.5s15.5 15.166 15.5 26.499c0 26 -19.333 39 -58 39h-6v80h43v-43c67.333 -4 101 -30.667 101 -80c0 -24.667 -11.167 -44.5 -33.5 -59.5s-53.166 -22.5 -92.499 -22.5
c-36 0 -71 11.333 -105 34z" />
    <glyph glyph-name="onesuperior" unicode="&#xb9;" horiz-adv-x="252" 
d="M22 630l105 71h50v-351h-70v269l-58 -37z" />
    <glyph glyph-name="ordmasculine" unicode="&#xba;" horiz-adv-x="476" 
d="M55 489c0 50 17.1709 90.667 51.5039 122s78.166 47 131.499 47s97.166 -15.667 131.499 -47s51.5 -72 51.5 -122s-17.333 -90.833 -52 -122.5s-78.334 -47.5 -131.001 -47.5s-96.334 15.833 -131.001 47.5s-52 72.5 -52 122.5zM130.004 489
c0 -31.333 10.668 -56.666 32.001 -75.999s46.666 -29 75.999 -29c30 0 55.5 9.66699 76.5 29s31.5 44.666 31.5 75.999c0 30.667 -10.5 55.667 -31.5 75s-46.5 29 -76.5 29s-55.5 -9.66699 -76.5 -29s-31.5 -44.333 -31.5 -75z" />
    <glyph glyph-name="guillemotright" unicode="&#xbb;" horiz-adv-x="530" 
d="M485 248l-185 -218l-54 47l147 173l-148 172l52 46l188 -216v-4zM295 248l-185 -218l-54 47l147 173l-148 172l52 46l188 -216v-4z" />
    <glyph glyph-name="onequarter" unicode="&#xbc;" horiz-adv-x="673" 
d="M32 630l105 71h50v-351h-70v269l-58 -37zM50 23l514 687l46 -34l-513 -686zM529 0v79h-194v46l168 225h67l-163 -216h122v91h65v-91h59v-55h-59v-79h-65z" />
    <glyph glyph-name="onehalf" unicode="&#xbd;" horiz-adv-x="689" 
d="M32 630l105 71h50v-351h-70v269l-58 -37zM30 23l514 687l46 -34l-513 -686zM365 0v51.002c2.66699 2 11 7.5 25 16.5l29 19l27.5 19.5c13 9.33301 22.5 16.5 28.5 21.5l25 21c10.667 9 18.667 16.667 24 23s11 13.666 17 21.999s10.167 16.166 12.5 23.499
s3.5 14.666 3.5 21.999c0 16 -5.33301 29.167 -16 39.5s-25.667 15.5 -45 15.5c-16.667 0 -31.667 -5.5 -45 -16.5s-21.333 -24.833 -24 -41.5l-59 21c4.66699 30 19.5 53.667 44.5 71s55.167 26 90.5 26c41.333 0 73 -10 95 -30s33 -45.667 33 -77
c0 -21.333 -6.66699 -42.666 -20 -63.999s-30.5 -40.333 -51.5 -57s-39.5 -30 -55.5 -40s-31.667 -18.667 -47 -26h192v-60h-284z" />
    <glyph glyph-name="threequarters" unicode="&#xbe;" horiz-adv-x="723" 
d="M110 23l514 687l46 -34l-513 -686zM579 0v79h-194v46l168 225h67l-163 -216h122v91h65v-91h59v-55h-59v-79h-65zM174 344c-70.667 0 -118.666 23.332 -143.999 69.999l41 38c8 -15.333 20.667 -27.5 38 -36.5s35.333 -13.5 54 -13.5c24 0 42.833 5 56.5 15
s20.5 22.667 20.5 38c0 14 -6.16699 25.333 -18.5 34s-29.833 13 -52.5 13h-34v50h30c17.333 0 32 4.83301 44 14.5s18 21.834 18 36.501c0 14 -5.66699 25 -17 33s-26.666 12 -45.999 12c-38.667 0 -68.334 -15 -89.001 -45l-34 38c24 42.667 69.667 64 137 64
c37.333 0 67.333 -7.83301 90 -23.5s34 -37.167 34 -64.5c0 -20.667 -6.5 -38.334 -19.5 -53.001s-31.167 -25 -54.5 -31v-1c27.333 -2 48.666 -11 63.999 -27s23 -34.667 23 -56c0 -31.333 -13.5 -56.666 -40.5 -75.999s-60.5 -29 -100.5 -29z" />
    <glyph glyph-name="questiondown" unicode="&#xbf;" horiz-adv-x="466" 
d="M116 -63c0 -30.667 11.502 -56.667 34.502 -78s52.167 -32 87.5 -32c57.333 0 104 24.667 140 74l48 -53c-18.667 -30 -45.167 -54.333 -79.5 -73s-72.166 -28 -113.499 -28c-62.667 0 -112.167 16.667 -148.5 50s-54.5 74.333 -54.5 123
c0 30.667 5.33301 58.334 16 83.001s24 44 40 58l50.5 43l48 40c14.333 12 25.333 27.333 33 46s9.16699 40 4.5 64l72 1c6.66699 -34.667 5.16699 -64.334 -4.5 -89.001s-23.834 -44.667 -42.501 -60s-37.834 -30 -57.501 -44s-36.834 -31.5 -51.501 -52.5
s-22 -45.167 -22 -72.5zM314.002 403c0 -14 -5.33301 -26.333 -16 -37s-24.667 -16 -42 -16c-14.667 0 -27.167 5.5 -37.5 16.5s-15.5 23.167 -15.5 36.5c0 15.333 5 28.666 15 39.999s22.667 17 38 17c17.333 0 31.333 -5.66699 42 -17s16 -24.666 16 -39.999z" />
    <glyph glyph-name="Agrave" unicode="&#xc0;" horiz-adv-x="705" 
d="M15 0l301 704h73l301 -704h-91l-90 212h-319l-89 -212h-86zM350 591l-126 -299h252zM395 735l-202 84l30 68l195 -104z" />
    <glyph glyph-name="Aacute" unicode="&#xc1;" horiz-adv-x="705" 
d="M15 0l301 704h73l301 -704h-91l-90 212h-319l-89 -212h-86zM350 591l-126 -299h252zM513 819l-202 -84l-23 48l195 104z" />
    <glyph glyph-name="Acircumflex" unicode="&#xc2;" horiz-adv-x="705" 
d="M15 0l301 704h73l301 -704h-91l-90 212h-319l-89 -212h-86zM350 591l-126 -299h252zM177 778l171 104h4l174 -103l-33 -46l-143 76l-144 -76z" />
    <glyph glyph-name="Atilde" unicode="&#xc3;" horiz-adv-x="705" 
d="M15 0l301 704h73l301 -704h-91l-90 212h-319l-89 -212h-86zM350 591l-126 -299h252zM204 761l-26 50c29.333 31.333 62.666 47 99.999 47c20.667 0 46.5 -6.66699 77.5 -20s55.167 -20 72.5 -20c30 0 55 10.667 75 32l22 -50c-26 -34.667 -60 -52 -102 -52
c-18 0 -43.167 6.66699 -75.5 20s-58.166 20 -77.499 20c-22 0 -44 -9 -66 -27z" />
    <glyph glyph-name="Adieresis" unicode="&#xc4;" horiz-adv-x="705" 
d="M15 0l301 704h73l301 -704h-91l-90 212h-319l-89 -212h-86zM350 591l-126 -299h252zM182 813c0 13.333 5.33301 24.166 16 32.499s23.667 12.5 39 12.5c14 0 26.167 -4.16699 36.5 -12.5s15.5 -19.166 15.5 -32.499c0 -14.667 -5.16699 -26.334 -15.5 -35.001
s-22.5 -13 -36.5 -13c-16 0 -29.167 4.33301 -39.5 13s-15.5 20.334 -15.5 35.001zM414 813c0 13.333 5.5 24.167 16.5 32.5s24.167 12.5 39.5 12.5c14 0 26 -4 36 -12s15 -19 15 -33c0 -14.667 -5 -26.334 -15 -35.001s-22 -13 -36 -13c-16 0 -29.333 4.33301 -40 13
s-16 20.334 -16 35.001z" />
    <glyph glyph-name="Aring" unicode="&#xc5;" horiz-adv-x="705" 
d="M227 792c0 32 11.501 55.999 34.501 71.999s52.833 24 89.5 24c37.333 0 67.666 -8 90.999 -24s35 -40 35 -72c0 -25.333 -7.66699 -46.166 -23 -62.499s-36 -27.5 -62 -33.5l298 -696h-91l-90 212h-319l-89 -212h-86l297 696c-25.333 5.33301 -45.833 16.333 -61.5 33
s-23.5 37.667 -23.5 63zM350.001 590.999l-126 -299h252zM287.001 791.999c0 -18 6 -31.667 18 -41s27.667 -14 47 -14c18.667 0 34.167 4.66699 46.5 14s18.5 23 18.5 41c0 34 -21.667 51 -65 51s-65 -17 -65 -51z" />
    <glyph glyph-name="AE" unicode="&#xc6;" horiz-adv-x="956" 
d="M881 700v-80h-310v-226h280v-80h-280v-234h320v-80h-405v216h-250l-152 -216h-99l503 700h393zM486 571l-194 -275h194v275z" />
    <glyph glyph-name="Ccedilla" unicode="&#xc7;" horiz-adv-x="656" 
d="M276 -169l26.001 42.002c26.667 -18.667 51.334 -28 74.001 -28c16.667 0 30.167 3.16699 40.5 9.5s15.5 15.166 15.5 26.499c0 26 -19.333 39 -58 39h-6v72c-96 7.33301 -173 43.333 -231 108s-87 148 -87 250c0 103.333 31.5 189.166 94.5 257.499
s147.833 102.5 254.5 102.5c89.333 0 160.333 -22.667 213 -68l-39 -64c-46.667 34.667 -104.334 52 -173.001 52c-76 0 -138.333 -26 -187 -78s-73 -119.333 -73 -202c0 -83.333 25.167 -150.833 75.5 -202.5s116.166 -77.5 197.499 -77.5
c68.667 0 128.334 20.667 179.001 62l34 -64c-22.667 -23.333 -53.334 -41.833 -92.001 -55.5s-79.667 -21.167 -123 -22.5v-33c70.667 -4 106 -30.667 106 -80c0 -24.667 -11 -44.5 -33 -59.5s-52 -22.5 -90 -22.5c-42.667 0 -82 12 -118 36z" />
    <glyph glyph-name="Egrave" unicode="&#xc8;" horiz-adv-x="575" 
d="M105 0v700h395v-80h-310v-226h280v-80h-280v-234h320v-80h-405zM360 735l-202 84l30 68l195 -104z" />
    <glyph glyph-name="Eacute" unicode="&#xc9;" horiz-adv-x="575" 
d="M105 0v700h395v-80h-310v-226h280v-80h-280v-234h320v-80h-405zM453 819l-202 -84l-23 48l195 104z" />
    <glyph glyph-name="Ecircumflex" unicode="&#xca;" horiz-adv-x="575" 
d="M105 0v700h395v-80h-310v-226h280v-80h-280v-234h320v-80h-405zM129 778l171 104h4l174 -103l-33 -46l-143 76l-144 -76z" />
    <glyph glyph-name="Edieresis" unicode="&#xcb;" horiz-adv-x="575" 
d="M105 0v700h395v-80h-310v-226h280v-80h-280v-234h320v-80h-405zM136 813c0 13.333 5.33301 24.166 16 32.499s23.667 12.5 39 12.5c14 0 26.167 -4.16699 36.5 -12.5s15.5 -19.166 15.5 -32.499c0 -14.667 -5.16699 -26.334 -15.5 -35.001s-22.5 -13 -36.5 -13
c-16 0 -29.167 4.33301 -39.5 13s-15.5 20.334 -15.5 35.001zM368 813c0 13.333 5.5 24.167 16.5 32.5s24.167 12.5 39.5 12.5c14 0 26 -4 36 -12s15 -19 15 -33c0 -14.667 -5 -26.334 -15 -35.001s-22 -13 -36 -13c-16 0 -29.333 4.33301 -40 13s-16 20.334 -16 35.001z
" />
    <glyph glyph-name="Igrave" unicode="&#xcc;" horiz-adv-x="335" 
d="M125 0v700h85v-700h-85zM200 735l-202 84l30 68l195 -104z" />
    <glyph glyph-name="Iacute" unicode="&#xcd;" horiz-adv-x="335" 
d="M125 0v700h85v-700h-85zM338 819l-202 -84l-23 48l195 104z" />
    <glyph glyph-name="Icircumflex" unicode="&#xce;" horiz-adv-x="335" 
d="M125 0v700h85v-700h-85zM-7 778l171 104h4l174 -103l-33 -46l-143 76l-144 -76z" />
    <glyph glyph-name="Idieresis" unicode="&#xcf;" horiz-adv-x="335" 
d="M125 0v700h85v-700h-85zM-2 813c0 13.333 5.33301 24.166 16 32.499s23.667 12.5 39 12.5c14 0 26.167 -4.16699 36.5 -12.5s15.5 -19.166 15.5 -32.499c0 -14.667 -5.16699 -26.334 -15.5 -35.001s-22.5 -13 -36.5 -13c-16 0 -29.167 4.33301 -39.5 13
s-15.5 20.334 -15.5 35.001zM230 813c0 13.333 5.5 24.167 16.5 32.5s24.167 12.5 39.5 12.5c14 0 26 -4 36 -12s15 -19 15 -33c0 -14.667 -5 -26.334 -15 -35.001s-22 -13 -36 -13c-16 0 -29.333 4.33301 -40 13s-16 20.334 -16 35.001z" />
    <glyph glyph-name="Eth" unicode="&#xd0;" horiz-adv-x="754" 
d="M10 316l0.00195312 74.9971h110v309h12c14.667 0 43.167 0.5 85.5 1.5s73.5 1.5 93.5 1.5c68 0 127.667 -9.16699 179 -27.5s92.333 -43.666 123 -75.999s53.5 -68.666 68.5 -108.999s22.5 -84.166 22.5 -131.499c0 -104.667 -34.833 -191 -104.5 -259
s-168.5 -102 -296.5 -102c-14.667 0 -41.834 0.333008 -81.501 1s-69.834 1 -90.501 1h-11v316h-110zM309.002 622.997c-12.667 0 -24.667 -0.167969 -36 -0.500977s-23.5 -0.833008 -36.5 -1.5s-23.5 -1 -31.5 -1v-229h188v-75h-188v-236c61.333 -1.33301 95 -2 101 -2
c97.333 0 173 25.833 227 77.5s81 119.5 81 203.5c0 78.667 -26.333 142.334 -79 191.001s-128 73 -226 73z" />
    <glyph glyph-name="Ntilde" unicode="&#xd1;" horiz-adv-x="795" 
d="M690 0h-68l-437 550v-550h-80v700h68l437 -552v552h80v-700zM256 761l-26 50c29.333 31.333 62.666 47 99.999 47c20.667 0 46.5 -6.66699 77.5 -20s55.167 -20 72.5 -20c30 0 55 10.667 75 32l22 -50c-26 -34.667 -60 -52 -102 -52c-18 0 -43.167 6.66699 -75.5 20
s-58.166 20 -77.499 20c-22 0 -44 -9 -66 -27z" />
    <glyph glyph-name="Ograve" unicode="&#xd2;" horiz-adv-x="814" 
d="M50 350c0 102 33.668 187.499 101.001 256.499s152.666 103.5 255.999 103.5c102.667 0 187.834 -33.667 255.501 -101s101.5 -153.666 101.5 -258.999c0 -103.333 -34 -189.166 -102 -257.499s-153 -102.5 -255 -102.5c-102.667 0 -187.834 33.667 -255.501 101
s-101.5 153.666 -101.5 258.999zM140.001 349.999c0 -79.333 25.667 -145.833 77 -199.5s114.666 -80.5 189.999 -80.5c78.667 0 142.834 26.667 192.501 80s74.5 120 74.5 200c0 80.667 -25.667 147.5 -77 200.5s-114.666 79.5 -189.999 79.5
c-76.667 0 -140.334 -26.333 -191.001 -79s-76 -119.667 -76 -201zM480.001 734.999l-202 84l30 68l195 -104z" />
    <glyph glyph-name="Oacute" unicode="&#xd3;" horiz-adv-x="814" 
d="M50 350c0 102 33.668 187.499 101.001 256.499s152.666 103.5 255.999 103.5c102.667 0 187.834 -33.667 255.501 -101s101.5 -153.666 101.5 -258.999c0 -103.333 -34 -189.166 -102 -257.499s-153 -102.5 -255 -102.5c-102.667 0 -187.834 33.667 -255.501 101
s-101.5 153.666 -101.5 258.999zM140.001 349.999c0 -79.333 25.667 -145.833 77 -199.5s114.666 -80.5 189.999 -80.5c78.667 0 142.834 26.667 192.501 80s74.5 120 74.5 200c0 80.667 -25.667 147.5 -77 200.5s-114.666 79.5 -189.999 79.5
c-76.667 0 -140.334 -26.333 -191.001 -79s-76 -119.667 -76 -201zM563.001 818.999l-202 -84l-23 48l195 104z" />
    <glyph glyph-name="Ocircumflex" unicode="&#xd4;" horiz-adv-x="814" 
d="M50 350c0 102 33.668 187.499 101.001 256.499s152.666 103.5 255.999 103.5c102.667 0 187.834 -33.667 255.501 -101s101.5 -153.666 101.5 -258.999c0 -103.333 -34 -189.166 -102 -257.499s-153 -102.5 -255 -102.5c-102.667 0 -187.834 33.667 -255.501 101
s-101.5 153.666 -101.5 258.999zM140.001 349.999c0 -79.333 25.667 -145.833 77 -199.5s114.666 -80.5 189.999 -80.5c78.667 0 142.834 26.667 192.501 80s74.5 120 74.5 200c0 80.667 -25.667 147.5 -77 200.5s-114.666 79.5 -189.999 79.5
c-76.667 0 -140.334 -26.333 -191.001 -79s-76 -119.667 -76 -201zM236.001 777.999l171 104h4l174 -103l-33 -46l-143 76l-144 -76z" />
    <glyph glyph-name="Otilde" unicode="&#xd5;" horiz-adv-x="814" 
d="M50 350c0 102 33.668 187.499 101.001 256.499s152.666 103.5 255.999 103.5c102.667 0 187.834 -33.667 255.501 -101s101.5 -153.666 101.5 -258.999c0 -103.333 -34 -189.166 -102 -257.499s-153 -102.5 -255 -102.5c-102.667 0 -187.834 33.667 -255.501 101
s-101.5 153.666 -101.5 258.999zM140.001 349.999c0 -79.333 25.667 -145.833 77 -199.5s114.666 -80.5 189.999 -80.5c78.667 0 142.834 26.667 192.501 80s74.5 120 74.5 200c0 80.667 -25.667 147.5 -77 200.5s-114.666 79.5 -189.999 79.5
c-76.667 0 -140.334 -26.333 -191.001 -79s-76 -119.667 -76 -201zM258.001 760.999l-26 50c29.333 31.333 62.666 47 99.999 47c20.667 0 46.5 -6.66699 77.5 -20s55.167 -20 72.5 -20c30 0 55 10.667 75 32l22 -50c-26 -34.667 -60 -52 -102 -52
c-18 0 -43.167 6.66699 -75.5 20s-58.166 20 -77.499 20c-22 0 -44 -9 -66 -27z" />
    <glyph glyph-name="Odieresis" unicode="&#xd6;" horiz-adv-x="814" 
d="M50 350c0 102 33.668 187.499 101.001 256.499s152.666 103.5 255.999 103.5c102.667 0 187.834 -33.667 255.501 -101s101.5 -153.666 101.5 -258.999c0 -103.333 -34 -189.166 -102 -257.499s-153 -102.5 -255 -102.5c-102.667 0 -187.834 33.667 -255.501 101
s-101.5 153.666 -101.5 258.999zM140.001 349.999c0 -79.333 25.667 -145.833 77 -199.5s114.666 -80.5 189.999 -80.5c78.667 0 142.834 26.667 192.501 80s74.5 120 74.5 200c0 80.667 -25.667 147.5 -77 200.5s-114.666 79.5 -189.999 79.5
c-76.667 0 -140.334 -26.333 -191.001 -79s-76 -119.667 -76 -201zM236.001 812.999c0 13.333 5.33301 24.166 16 32.499s23.667 12.5 39 12.5c14 0 26.167 -4.16699 36.5 -12.5s15.5 -19.166 15.5 -32.499c0 -14.667 -5.16699 -26.334 -15.5 -35.001s-22.5 -13 -36.5 -13
c-16 0 -29.167 4.33301 -39.5 13s-15.5 20.334 -15.5 35.001zM468.001 812.999c0 13.333 5.5 24.167 16.5 32.5s24.167 12.5 39.5 12.5c14 0 26 -4 36 -12s15 -19 15 -33c0 -14.667 -5 -26.334 -15 -35.001s-22 -13 -36 -13c-16 0 -29.333 4.33301 -40 13
s-16 20.334 -16 35.001z" />
    <glyph glyph-name="multiply" unicode="&#xd7;" 
d="M111 495l50 50l135 -136l135 136l49 -50l-135 -135l137 -136l-50 -50l-136 136l-137 -136l-49 50l136 136z" />
    <glyph glyph-name="Oslash" unicode="&#xd8;" horiz-adv-x="814" 
d="M50 350c0 102 33.668 187.499 101.001 256.499s152.666 103.5 255.999 103.5c90 0 167 -26.667 231 -80l44 43l46 -47l-43 -42c52.667 -64 79 -142 79 -234c0 -103.333 -34 -189.166 -102 -257.499s-153 -102.5 -255 -102.5c-94.667 0 -174.667 29 -240 87l-45 -44
l-47 48l46 45c-47.333 62 -71 136.667 -71 224zM674.001 349.999c0 64.667 -17.667 121.667 -53 171l-392 -383c49.333 -45.333 108.666 -68 177.999 -68c78.667 0 142.834 26.667 192.501 80s74.5 120 74.5 200zM140.001 349.999c0 -60 15.333 -113.667 46 -161l390 381
c-47.333 40 -103.666 60 -168.999 60c-76.667 0 -140.334 -26.333 -191.001 -79s-76 -119.667 -76 -201z" />
    <glyph glyph-name="Ugrave" unicode="&#xd9;" horiz-adv-x="751" 
d="M656 700l-0.000976562 -408c0 -100.667 -25.667 -176 -77 -226s-116 -75 -194 -75c-87.333 0 -157.5 26.5 -210.5 79.5s-79.5 129.167 -79.5 228.5v401h85v-385c0 -76.667 17.833 -136.5 53.5 -179.5s86.167 -64.5 151.5 -64.5c58.667 0 104.334 20.167 137.001 60.5
s49 99.5 49 177.5v391h85zM434.999 735l-202 84l30 68l195 -104z" />
    <glyph glyph-name="Uacute" unicode="&#xda;" horiz-adv-x="751" 
d="M656 700l-0.000976562 -408c0 -100.667 -25.667 -176 -77 -226s-116 -75 -194 -75c-87.333 0 -157.5 26.5 -210.5 79.5s-79.5 129.167 -79.5 228.5v401h85v-385c0 -76.667 17.833 -136.5 53.5 -179.5s86.167 -64.5 151.5 -64.5c58.667 0 104.334 20.167 137.001 60.5
s49 99.5 49 177.5v391h85zM527.999 819l-202 -84l-23 48l195 104z" />
    <glyph glyph-name="Ucircumflex" unicode="&#xdb;" horiz-adv-x="751" 
d="M656 700l-0.000976562 -408c0 -100.667 -25.667 -176 -77 -226s-116 -75 -194 -75c-87.333 0 -157.5 26.5 -210.5 79.5s-79.5 129.167 -79.5 228.5v401h85v-385c0 -76.667 17.833 -136.5 53.5 -179.5s86.167 -64.5 151.5 -64.5c58.667 0 104.334 20.167 137.001 60.5
s49 99.5 49 177.5v391h85zM199.999 778l171 104h4l174 -103l-33 -46l-143 76l-144 -76z" />
    <glyph glyph-name="Udieresis" unicode="&#xdc;" horiz-adv-x="751" 
d="M656 700l-0.000976562 -408c0 -100.667 -25.667 -176 -77 -226s-116 -75 -194 -75c-87.333 0 -157.5 26.5 -210.5 79.5s-79.5 129.167 -79.5 228.5v401h85v-385c0 -76.667 17.833 -136.5 53.5 -179.5s86.167 -64.5 151.5 -64.5c58.667 0 104.334 20.167 137.001 60.5
s49 99.5 49 177.5v391h85zM200.999 813c0 13.333 5.33301 24.166 16 32.499s23.667 12.5 39 12.5c14 0 26.167 -4.16699 36.5 -12.5s15.5 -19.166 15.5 -32.499c0 -14.667 -5.16699 -26.334 -15.5 -35.001s-22.5 -13 -36.5 -13c-16 0 -29.167 4.33301 -39.5 13
s-15.5 20.334 -15.5 35.001zM432.999 813c0 13.333 5.5 24.167 16.5 32.5s24.167 12.5 39.5 12.5c14 0 26 -4 36 -12s15 -19 15 -33c0 -14.667 -5 -26.334 -15 -35.001s-22 -13 -36 -13c-16 0 -29.333 4.33301 -40 13s-16 20.334 -16 35.001z" />
    <glyph glyph-name="Yacute" unicode="&#xdd;" horiz-adv-x="604" 
d="M594 700l-251 -400v-300h-85v300l-248 400h98l196 -320l197 320h93zM458 819l-202 -84l-23 48l195 104z" />
    <glyph glyph-name="Thorn" unicode="&#xde;" horiz-adv-x="597" 
d="M190 0h-84.999v700h85v-105c8.66699 0 25.5 0.333008 50.5 1s40.833 1 47.5 1c92 0 158.167 -20.5 198.5 -61.5s60.5 -92.833 60.5 -155.5c0 -61.333 -21.833 -113.333 -65.5 -156s-105.834 -64 -186.501 -64c-38.667 0 -73.667 1.33301 -105 4v-164zM289.001 517
c-20 0 -52.999 -1 -98.999 -3v-269c38 -3.33301 72 -5 102 -5c51.333 0 91.666 12.5 120.999 37.5s44 59.5 44 103.5c0 42.667 -14 76 -42 100s-70 36 -126 36z" />
    <glyph glyph-name="germandbls" unicode="&#xdf;" horiz-adv-x="546" 
d="M421 154c0 20 -6.33398 38.0039 -19.001 54.0039s-27.834 29.833 -45.501 41.5l-53.5 35.5c-18 12 -33.333 26.833 -46 44.5s-19 37.167 -19 58.5c0 22 4.83301 41.833 14.5 59.5s20.5 31.5 32.5 41.5s22.833 22 32.5 36s14.5 28.667 14.5 44
c0 19.333 -7.83301 35.166 -23.5 47.499s-34.5 18.5 -56.5 18.5c-33.333 0 -57.833 -11 -73.5 -33s-23.5 -56.667 -23.5 -104v-500h-80v510c0 134.667 62.667 202 188 202c44 0 80.667 -12.167 110 -36.5s44 -54.5 44 -90.5c0 -18 -3.16699 -34.333 -9.5 -49
s-14.166 -26.834 -23.499 -36.501l-28 -28c-9.33301 -9 -17.166 -19 -23.499 -30s-9.5 -23.167 -9.5 -36.5c0 -18.667 6.33301 -35.334 19 -50.001s27.834 -27.667 45.501 -39l53.5 -35.5c18 -12.333 33.333 -29.333 46 -51s19 -46.834 19 -75.501
c0 -46 -14.667 -84.5 -44 -115.5s-66 -46.5 -110 -46.5c-62.667 0 -110.334 21.667 -143.001 65l27 61c28.667 -34 61 -51 97 -51c24 0 44.667 8 62 24s26 37.667 26 65z" />
    <glyph glyph-name="agrave" unicode="&#xe0;" horiz-adv-x="460" 
d="M96 355l-21.002 64c44 27.333 94 41 150 41c62 0 106.333 -15.333 133 -46s40 -76.667 40 -138v-276h-76v58c-34.667 -43.333 -82.667 -65 -144 -65c-41.333 0 -74.666 12.5 -99.999 37.5s-38 58.833 -38 101.5c0 44.667 15.833 79.667 47.5 105s72.5 38 122.5 38
c48 0 85.333 -9.66699 112 -29c0 48 -6.66699 83.667 -20 107s-40.666 35 -81.999 35c-40.667 0 -82 -11 -124 -33zM205.998 65c44.667 0 83.335 19.333 116.002 58v57c-28 20 -61.667 30 -101 30c-26.667 0 -49.334 -6.33301 -68.001 -19s-28 -31 -28 -55
c0 -22 7.16699 -39.333 21.5 -52s34.166 -19 59.499 -19zM250.999 531l-121 142l63 48l107 -156z" />
    <glyph glyph-name="aacute" unicode="&#xe1;" horiz-adv-x="460" 
d="M96 355l-21.002 64c44 27.333 94 41 150 41c62 0 106.333 -15.333 133 -46s40 -76.667 40 -138v-276h-76v58c-34.667 -43.333 -82.667 -65 -144 -65c-41.333 0 -74.666 12.5 -99.999 37.5s-38 58.833 -38 101.5c0 44.667 15.833 79.667 47.5 105s72.5 38 122.5 38
c48 0 85.333 -9.66699 112 -29c0 48 -6.66699 83.667 -20 107s-40.666 35 -81.999 35c-40.667 0 -82 -11 -124 -33zM205.998 65c44.667 0 83.335 19.333 116.002 58v57c-28 20 -61.667 30 -101 30c-26.667 0 -49.334 -6.33301 -68.001 -19s-28 -31 -28 -55
c0 -22 7.16699 -39.333 21.5 -52s34.166 -19 59.499 -19zM334.999 674l-120 -143l-48 34l106 157z" />
    <glyph glyph-name="acircumflex" unicode="&#xe2;" horiz-adv-x="460" 
d="M96 355l-21.002 64c44 27.333 94 41 150 41c62 0 106.333 -15.333 133 -46s40 -76.667 40 -138v-276h-76v58c-34.667 -43.333 -82.667 -65 -144 -65c-41.333 0 -74.666 12.5 -99.999 37.5s-38 58.833 -38 101.5c0 44.667 15.833 79.667 47.5 105s72.5 38 122.5 38
c48 0 85.333 -9.66699 112 -29c0 48 -6.66699 83.667 -20 107s-40.666 35 -81.999 35c-40.667 0 -82 -11 -124 -33zM205.998 65c44.667 0 83.335 19.333 116.002 58v57c-28 20 -61.667 30 -101 30c-26.667 0 -49.334 -6.33301 -68.001 -19s-28 -31 -28 -55
c0 -22 7.16699 -39.333 21.5 -52s34.166 -19 59.499 -19zM231.999 707l139 -133l-38 -48l-104 91l-104 -90l-38 47l141 133h4z" />
    <glyph glyph-name="atilde" unicode="&#xe3;" horiz-adv-x="460" 
d="M96 355l-21.002 64c44 27.333 94 41 150 41c62 0 106.333 -15.333 133 -46s40 -76.667 40 -138v-276h-76v58c-34.667 -43.333 -82.667 -65 -144 -65c-41.333 0 -74.666 12.5 -99.999 37.5s-38 58.833 -38 101.5c0 44.667 15.833 79.667 47.5 105s72.5 38 122.5 38
c48 0 85.333 -9.66699 112 -29c0 48 -6.66699 83.667 -20 107s-40.666 35 -81.999 35c-40.667 0 -82 -11 -124 -33zM205.998 65c44.667 0 83.335 19.333 116.002 58v57c-28 20 -61.667 30 -101 30c-26.667 0 -49.334 -6.33301 -68.001 -19s-28 -31 -28 -55
c0 -22 7.16699 -39.333 21.5 -52s34.166 -19 59.499 -19zM98.999 557l-33.001 37c35.333 40 72 60 110 60c16 0 35.5 -7.33301 58.5 -22s41.167 -22 54.5 -22c19.333 0 43 11.667 71 35l28 -41c-37.333 -39.333 -72.666 -59 -105.999 -59c-14.667 0 -33.5 7.33301 -56.5 22
s-42.167 22 -57.5 22c-18 0 -41 -10.667 -69 -32z" />
    <glyph glyph-name="adieresis" unicode="&#xe4;" horiz-adv-x="460" 
d="M96 355l-21.002 64c44 27.333 94 41 150 41c62 0 106.333 -15.333 133 -46s40 -76.667 40 -138v-276h-76v58c-34.667 -43.333 -82.667 -65 -144 -65c-41.333 0 -74.666 12.5 -99.999 37.5s-38 58.833 -38 101.5c0 44.667 15.833 79.667 47.5 105s72.5 38 122.5 38
c48 0 85.333 -9.66699 112 -29c0 48 -6.66699 83.667 -20 107s-40.666 35 -81.999 35c-40.667 0 -82 -11 -124 -33zM205.998 65c44.667 0 83.335 19.333 116.002 58v57c-28 20 -61.667 30 -101 30c-26.667 0 -49.334 -6.33301 -68.001 -19s-28 -31 -28 -55
c0 -22 7.16699 -39.333 21.5 -52s34.166 -19 59.499 -19zM82.999 610c0 14 4.5 25.167 13.5 33.5s20.167 12.5 33.5 12.5c11.333 0 21.5 -4.33301 30.5 -13s13.5 -19.667 13.5 -33c0 -15.333 -4.33301 -27.5 -13 -36.5s-19 -13.5 -31 -13.5c-13.333 0 -24.5 4.5 -33.5 13.5
s-13.5 21.167 -13.5 36.5zM285.999 610c0 13.333 4.66699 24.333 14 33s20.666 13 33.999 13c11.333 0 21.5 -4.33301 30.5 -13s13.5 -19.667 13.5 -33c0 -15.333 -4.33301 -27.5 -13 -36.5s-19 -13.5 -31 -13.5c-13.333 0 -24.666 4.5 -33.999 13.5s-14 21.167 -14 36.5z
" />
    <glyph glyph-name="aring" unicode="&#xe5;" horiz-adv-x="460" 
d="M96 355l-21.002 64c44 27.333 94 41 150 41c62 0 106.333 -15.333 133 -46s40 -76.667 40 -138v-276h-76v58c-34.667 -43.333 -82.667 -65 -144 -65c-41.333 0 -74.666 12.5 -99.999 37.5s-38 58.833 -38 101.5c0 44.667 15.833 79.667 47.5 105s72.5 38 122.5 38
c48 0 85.333 -9.66699 112 -29c0 48 -6.66699 83.667 -20 107s-40.666 35 -81.999 35c-40.667 0 -82 -11 -124 -33zM205.998 65c44.667 0 83.335 19.333 116.002 58v57c-28 20 -61.667 30 -101 30c-26.667 0 -49.334 -6.33301 -68.001 -19s-28 -31 -28 -55
c0 -22 7.16699 -39.333 21.5 -52s34.166 -19 59.499 -19zM115.999 613c0 30.667 11 56.834 33 78.501s49 32.5 81 32.5c32.667 0 60.167 -10.833 82.5 -32.5s33.5 -47.834 33.5 -78.501s-11.167 -56.667 -33.5 -78s-49.833 -32 -82.5 -32c-32 0 -59 10.667 -81 32
s-33 47.333 -33 78zM167.999 614c0 -18.667 6 -34.334 18 -47.001s27 -19 45 -19s33 6.33301 45 19s18 28.334 18 47.001c0 18 -6 33.333 -18 46s-27 19 -45 19s-33 -6.33301 -45 -19s-18 -28 -18 -46z" />
    <glyph glyph-name="ae" unicode="&#xe6;" horiz-adv-x="775" 
d="M225 460c68 0 115.331 -19.667 141.998 -59c42.667 39.333 96.667 59 162 59c59.333 0 109 -19.167 149 -57.5s60 -87.833 60 -148.5c0 -20.667 -1.66699 -38.667 -5 -54h-335v-62c29.333 -48.667 78 -73 146 -73c58.667 0 104.667 15.667 138 47l25 -63
c-43.333 -39.333 -99.666 -59 -168.999 -59c-76 0 -136.333 23.333 -181 70c-49.333 -44.667 -103.666 -67 -162.999 -67c-48.667 0 -86.5 12.167 -113.5 36.5s-40.5 58.5 -40.5 102.5c0 44.667 15.833 79.667 47.5 105s72.5 38 122.5 38c42.667 0 78.667 -4.66699 108 -14
c2 42 -4.33301 73.167 -19 93.5s-41 30.5 -79 30.5c-40.667 0 -82 -11 -124 -33l-21 67c44 27.333 94 41 150 41zM397.998 276v-10.999h257c-2 37.333 -14.5 66.666 -37.5 87.999s-53.833 32 -92.5 32c-58 0 -101 -23 -129 -69c1.33301 -16 2 -29.333 2 -40zM205.998 68.001
c43.333 0 80.6689 18.333 112.002 55v73c-34 9.33301 -66.333 14 -97 14c-26.667 0 -49.334 -6.33301 -68.001 -19s-28 -31 -28 -55c0 -20.667 7.66699 -37.167 23 -49.5s34.666 -18.5 57.999 -18.5z" />
    <glyph glyph-name="ccedilla" unicode="&#xe7;" horiz-adv-x="488" 
d="M159 -171l24.001 39c23.333 -15.333 47 -23 71 -23c16.667 0 30.167 3.16699 40.5 9.5s15.5 15.166 15.5 26.499c0 26 -19.333 39 -58 39h-6v72c-62 7.33301 -111.5 31.833 -148.5 73.5s-55.5 94.834 -55.5 159.501c0 66 21.667 121.667 65 167s97.666 68 162.999 68
c78.667 0 137.667 -19.667 177 -59l-37 -63c-34 31.333 -77 47 -129 47c-42 0 -78.167 -15.167 -108.5 -45.5s-45.5 -68.5 -45.5 -114.5c0 -48 15.5 -86.667 46.5 -116s69.5 -44 115.5 -44c52 0 95 19.333 129 58l38 -58c-36.667 -48 -92.334 -73 -167.001 -75v-33
c67.333 -4 101 -30.667 101 -80c0 -24.667 -11.167 -44.5 -33.5 -59.5s-53.166 -22.5 -92.499 -22.5c-36 0 -71 11.333 -105 34z" />
    <glyph glyph-name="egrave" unicode="&#xe8;" horiz-adv-x="520" 
d="M427 112l25 -63c-43.333 -39.333 -99.666 -59 -168.999 -59c-72.667 0 -131 21.333 -175 64s-66 99.667 -66 171c0 68 20.667 124.167 62 168.5s98 66.5 170 66.5c59.333 0 109 -19.167 149 -57.5s60 -87.833 60 -148.5c0 -20.667 -1.66699 -38.667 -5 -54h-346
c3.33301 -42 19.166 -75 47.499 -99s64.833 -36 109.5 -36c58.667 0 104.667 15.667 138 47zM270 385c-40 0 -72.667 -11.167 -98 -33.5s-40.333 -51.166 -45 -86.499h273c-2 37.333 -14.5 66.666 -37.5 87.999s-53.833 32 -92.5 32zM286 531l-121 142l63 48l107 -156z" />
    <glyph glyph-name="eacute" unicode="&#xe9;" horiz-adv-x="520" 
d="M427 112l25 -63c-43.333 -39.333 -99.666 -59 -168.999 -59c-72.667 0 -131 21.333 -175 64s-66 99.667 -66 171c0 68 20.667 124.167 62 168.5s98 66.5 170 66.5c59.333 0 109 -19.167 149 -57.5s60 -87.833 60 -148.5c0 -20.667 -1.66699 -38.667 -5 -54h-346
c3.33301 -42 19.166 -75 47.499 -99s64.833 -36 109.5 -36c58.667 0 104.667 15.667 138 47zM270 385c-40 0 -72.667 -11.167 -98 -33.5s-40.333 -51.166 -45 -86.499h273c-2 37.333 -14.5 66.666 -37.5 87.999s-53.833 32 -92.5 32zM390 674l-120 -143l-48 34l106 157z" />
    <glyph glyph-name="ecircumflex" unicode="&#xea;" horiz-adv-x="520" 
d="M427 112l25 -63c-43.333 -39.333 -99.666 -59 -168.999 -59c-72.667 0 -131 21.333 -175 64s-66 99.667 -66 171c0 68 20.667 124.167 62 168.5s98 66.5 170 66.5c59.333 0 109 -19.167 149 -57.5s60 -87.833 60 -148.5c0 -20.667 -1.66699 -38.667 -5 -54h-346
c3.33301 -42 19.166 -75 47.499 -99s64.833 -36 109.5 -36c58.667 0 104.667 15.667 138 47zM270 385c-40 0 -72.667 -11.167 -98 -33.5s-40.333 -51.166 -45 -86.499h273c-2 37.333 -14.5 66.666 -37.5 87.999s-53.833 32 -92.5 32zM272 707l139 -133l-38 -48l-104 91
l-104 -90l-38 47l141 133h4z" />
    <glyph glyph-name="edieresis" unicode="&#xeb;" horiz-adv-x="520" 
d="M427 112l25 -63c-43.333 -39.333 -99.666 -59 -168.999 -59c-72.667 0 -131 21.333 -175 64s-66 99.667 -66 171c0 68 20.667 124.167 62 168.5s98 66.5 170 66.5c59.333 0 109 -19.167 149 -57.5s60 -87.833 60 -148.5c0 -20.667 -1.66699 -38.667 -5 -54h-346
c3.33301 -42 19.166 -75 47.499 -99s64.833 -36 109.5 -36c58.667 0 104.667 15.667 138 47zM270 385c-40 0 -72.667 -11.167 -98 -33.5s-40.333 -51.166 -45 -86.499h273c-2 37.333 -14.5 66.666 -37.5 87.999s-53.833 32 -92.5 32zM119 610c0 14 4.5 25.167 13.5 33.5
s20.167 12.5 33.5 12.5c11.333 0 21.5 -4.33301 30.5 -13s13.5 -19.667 13.5 -33c0 -15.333 -4.33301 -27.5 -13 -36.5s-19 -13.5 -31 -13.5c-13.333 0 -24.5 4.5 -33.5 13.5s-13.5 21.167 -13.5 36.5zM322 610c0 13.333 4.66699 24.333 14 33s20.666 13 33.999 13
c11.333 0 21.5 -4.33301 30.5 -13s13.5 -19.667 13.5 -33c0 -15.333 -4.33301 -27.5 -13 -36.5s-19 -13.5 -31 -13.5c-13.333 0 -24.666 4.5 -33.999 13.5s-14 21.167 -14 36.5z" />
    <glyph glyph-name="igrave" unicode="&#xec;" horiz-adv-x="268" 
d="M94 0v450h80v-450h-80zM127 531l-121 142l63 48l107 -156z" />
    <glyph glyph-name="iacute" unicode="&#xed;" horiz-adv-x="268" 
d="M94 0v450h80v-450h-80zM246 674l-120 -143l-48 34l106 157z" />
    <glyph glyph-name="icircumflex" unicode="&#xee;" horiz-adv-x="268" 
d="M94 0v450h80v-450h-80zM137 707l139 -133l-38 -48l-104 91l-104 -90l-38 47l141 133h4z" />
    <glyph glyph-name="idieresis" unicode="&#xef;" horiz-adv-x="268" 
d="M94 0v450h80v-450h-80zM-13 610c0 14 4.5 25.167 13.5 33.5s20.167 12.5 33.5 12.5c11.333 0 21.5 -4.33301 30.5 -13s13.5 -19.667 13.5 -33c0 -15.333 -4.33301 -27.5 -13 -36.5s-19 -13.5 -31 -13.5c-13.333 0 -24.5 4.5 -33.5 13.5s-13.5 21.167 -13.5 36.5zM190 610
c0 13.333 4.66699 24.333 14 33s20.666 13 33.999 13c11.333 0 21.5 -4.33301 30.5 -13s13.5 -19.667 13.5 -33c0 -15.333 -4.33301 -27.5 -13 -36.5s-19 -13.5 -31 -13.5c-13.333 0 -24.666 4.5 -33.999 13.5s-14 21.167 -14 36.5z" />
    <glyph glyph-name="eth" unicode="&#xf0;" horiz-adv-x="565" 
d="M196 512l-23 71l96 40c-33.333 29.333 -67.666 53.333 -102.999 72l90 15c30 -16 58 -35 84 -57l105 45l23 -71l-72 -30c40 -47.333 71 -100.833 93 -160.5s33 -118.5 33 -176.5c0 -84 -21.833 -150 -65.5 -198s-101.834 -72 -174.501 -72
c-71.333 0 -129.166 22.167 -173.499 66.5s-66.5 100.5 -66.5 168.5s22.167 124.167 66.5 168.5s102.166 66.5 173.499 66.5c28.667 0 55 -7.16699 79 -21.5s42.667 -33.5 56 -57.5c-15.333 67.333 -46.333 129 -93 185zM127 225c0 -46.667 14.5 -85.001 43.5 -115.001
s66.167 -45 111.5 -45c48 0 86.5 18.167 115.5 54.5s42.167 84.833 39.5 145.5c-6.66699 32.667 -24 60.834 -52 84.501s-62.333 35.5 -103 35.5c-44.667 0 -81.667 -14.833 -111 -44.5s-44 -68.167 -44 -115.5z" />
    <glyph glyph-name="ntilde" unicode="&#xf1;" horiz-adv-x="549" 
d="M72 0l-0.000976562 450h80v-55c16.667 18 38.334 33 65.001 45s54 18 82 18c124.667 0 187 -66 187 -198v-260h-80v245c0 92 -42.333 138 -127 138c-50.667 0 -93 -19.333 -127 -58v-325h-80zM143.999 557l-33.001 37c35.333 40 72 60 110 60
c16 0 35.5 -7.33301 58.5 -22s41.167 -22 54.5 -22c19.333 0 43 11.667 71 35l28 -41c-37.333 -39.333 -72.666 -59 -105.999 -59c-14.667 0 -33.5 7.33301 -56.5 22s-42.167 22 -57.5 22c-18 0 -41 -10.667 -69 -32z" />
    <glyph glyph-name="ograve" unicode="&#xf2;" horiz-adv-x="565" 
d="M42 225c0 68 22.167 124.167 66.5 168.5s102.166 66.5 173.499 66.5s129.166 -22.167 173.499 -66.5s66.5 -100.5 66.5 -168.5s-22.167 -124.167 -66.5 -168.5s-102.166 -66.5 -173.499 -66.5s-129.166 22.167 -173.499 66.5s-66.5 100.5 -66.5 168.5zM127 225
c0 -46.667 14.5 -85 43.5 -115s66.167 -45 111.5 -45s82.5 14.833 111.5 44.5s43.5 68.167 43.5 115.5c0 46.667 -14.5 85 -43.5 115s-66.167 45 -111.5 45c-44.667 0 -81.667 -14.833 -111 -44.5s-44 -68.167 -44 -115.5zM290 531l-121 142l63 48l107 -156z" />
    <glyph glyph-name="oacute" unicode="&#xf3;" horiz-adv-x="565" 
d="M42 225c0 68 22.167 124.167 66.5 168.5s102.166 66.5 173.499 66.5s129.166 -22.167 173.499 -66.5s66.5 -100.5 66.5 -168.5s-22.167 -124.167 -66.5 -168.5s-102.166 -66.5 -173.499 -66.5s-129.166 22.167 -173.499 66.5s-66.5 100.5 -66.5 168.5zM127 225
c0 -46.667 14.5 -85 43.5 -115s66.167 -45 111.5 -45s82.5 14.833 111.5 44.5s43.5 68.167 43.5 115.5c0 46.667 -14.5 85 -43.5 115s-66.167 45 -111.5 45c-44.667 0 -81.667 -14.833 -111 -44.5s-44 -68.167 -44 -115.5zM394 674l-120 -143l-48 34l106 157z" />
    <glyph glyph-name="ocircumflex" unicode="&#xf4;" horiz-adv-x="565" 
d="M42 225c0 68 22.167 124.167 66.5 168.5s102.166 66.5 173.499 66.5s129.166 -22.167 173.499 -66.5s66.5 -100.5 66.5 -168.5s-22.167 -124.167 -66.5 -168.5s-102.166 -66.5 -173.499 -66.5s-129.166 22.167 -173.499 66.5s-66.5 100.5 -66.5 168.5zM127 225
c0 -46.667 14.5 -85 43.5 -115s66.167 -45 111.5 -45s82.5 14.833 111.5 44.5s43.5 68.167 43.5 115.5c0 46.667 -14.5 85 -43.5 115s-66.167 45 -111.5 45c-44.667 0 -81.667 -14.833 -111 -44.5s-44 -68.167 -44 -115.5zM285 707l139 -133l-38 -48l-104 91l-104 -90
l-38 47l141 133h4z" />
    <glyph glyph-name="otilde" unicode="&#xf5;" horiz-adv-x="565" 
d="M42 225c0 68 22.167 124.167 66.5 168.5s102.166 66.5 173.499 66.5s129.166 -22.167 173.499 -66.5s66.5 -100.5 66.5 -168.5s-22.167 -124.167 -66.5 -168.5s-102.166 -66.5 -173.499 -66.5s-129.166 22.167 -173.499 66.5s-66.5 100.5 -66.5 168.5zM127 225
c0 -46.667 14.5 -85 43.5 -115s66.167 -45 111.5 -45s82.5 14.833 111.5 44.5s43.5 68.167 43.5 115.5c0 46.667 -14.5 85 -43.5 115s-66.167 45 -111.5 45c-44.667 0 -81.667 -14.833 -111 -44.5s-44 -68.167 -44 -115.5zM152 557l-33.001 37c35.333 40 72 60 110 60
c16 0 35.5 -7.33301 58.5 -22s41.167 -22 54.5 -22c19.333 0 43 11.667 71 35l28 -41c-37.333 -39.333 -72.666 -59 -105.999 -59c-14.667 0 -33.5 7.33301 -56.5 22s-42.167 22 -57.5 22c-18 0 -41 -10.667 -69 -32z" />
    <glyph glyph-name="odieresis" unicode="&#xf6;" horiz-adv-x="565" 
d="M42 225c0 68 22.167 124.167 66.5 168.5s102.166 66.5 173.499 66.5s129.166 -22.167 173.499 -66.5s66.5 -100.5 66.5 -168.5s-22.167 -124.167 -66.5 -168.5s-102.166 -66.5 -173.499 -66.5s-129.166 22.167 -173.499 66.5s-66.5 100.5 -66.5 168.5zM127 225
c0 -46.667 14.5 -85 43.5 -115s66.167 -45 111.5 -45s82.5 14.833 111.5 44.5s43.5 68.167 43.5 115.5c0 46.667 -14.5 85 -43.5 115s-66.167 45 -111.5 45c-44.667 0 -81.667 -14.833 -111 -44.5s-44 -68.167 -44 -115.5zM139 610c0 14 4.5 25.167 13.5 33.5
s20.167 12.5 33.5 12.5c11.333 0 21.5 -4.33301 30.5 -13s13.5 -19.667 13.5 -33c0 -15.333 -4.33301 -27.5 -13 -36.5s-19 -13.5 -31 -13.5c-13.333 0 -24.5 4.5 -33.5 13.5s-13.5 21.167 -13.5 36.5zM342 610c0 13.333 4.66699 24.333 14 33s20.666 13 33.999 13
c11.333 0 21.5 -4.33301 30.5 -13s13.5 -19.667 13.5 -33c0 -15.333 -4.33301 -27.5 -13 -36.5s-19 -13.5 -31 -13.5c-13.333 0 -24.666 4.5 -33.999 13.5s-14 21.167 -14 36.5z" />
    <glyph glyph-name="divide" unicode="&#xf7;" 
d="M246 564c0 12.667 4.5 23.832 13.5 33.499s21.167 14.5 36.5 14.5c14 0 25.667 -5 35 -15s14 -21 14 -33c0 -13.333 -4.5 -25.166 -13.5 -35.499s-20.833 -15.5 -35.5 -15.5c-15.333 0 -27.5 5 -36.5 15s-13.5 22 -13.5 36zM246 156.998c0 12 4.5 22.833 13.5 32.5
s21.167 14.5 36.5 14.5c14 0 25.667 -4.83301 35 -14.5s14 -20.5 14 -32.5c0 -14 -4.5 -26 -13.5 -36s-20.833 -15 -35.5 -15c-15.333 0 -27.5 5 -36.5 15s-13.5 22 -13.5 36zM69 324.998v70h454v-70h-454z" />
    <glyph glyph-name="oslash" unicode="&#xf8;" horiz-adv-x="565" 
d="M42 225c0 68 22.167 124.167 66.5 168.5s102.166 66.5 173.499 66.5c60 0 111 -16.333 153 -49l46 44l44 -49l-45 -43c28 -39.333 42 -85.333 42 -138c0 -68 -22.167 -124.167 -66.5 -168.5s-102.166 -66.5 -173.499 -66.5c-56 0 -104.667 14.333 -146 43l-50 -47l-45 51
l46 44c-30 40.667 -45 88.667 -45 144zM127 225c0 -33.333 6.99902 -62 20.999 -86l228 216c-27.333 20 -58.666 30 -93.999 30c-44.667 0 -81.667 -14.833 -111 -44.5s-44 -68.167 -44 -115.5zM436.999 225c0 27.333 -6 53.667 -18 79l-224 -214
c24.667 -16.667 53.667 -25 87 -25c45.333 0 82.5 14.833 111.5 44.5s43.5 68.167 43.5 115.5z" />
    <glyph glyph-name="ugrave" unicode="&#xf9;" horiz-adv-x="540" 
d="M467 450v-450h-80v64c-17.333 -20.667 -39.833 -38.167 -67.5 -52.5s-58.167 -21.5 -91.5 -21.5c-52 0 -92.667 16 -122 48s-44 80 -44 144v268h80v-250c0 -90 38.667 -135 116 -135c24.667 0 48.667 6.33301 72 19s42.333 28.667 57 48v318h80zM275 531l-121 142l63 48
l107 -156z" />
    <glyph glyph-name="uacute" unicode="&#xfa;" horiz-adv-x="540" 
d="M467 450v-450h-80v64c-17.333 -20.667 -39.833 -38.167 -67.5 -52.5s-58.167 -21.5 -91.5 -21.5c-52 0 -92.667 16 -122 48s-44 80 -44 144v268h80v-250c0 -90 38.667 -135 116 -135c24.667 0 48.667 6.33301 72 19s42.333 28.667 57 48v318h80zM384 674l-120 -143
l-48 34l106 157z" />
    <glyph glyph-name="ucircumflex" unicode="&#xfb;" horiz-adv-x="540" 
d="M467 450v-450h-80v64c-17.333 -20.667 -39.833 -38.167 -67.5 -52.5s-58.167 -21.5 -91.5 -21.5c-52 0 -92.667 16 -122 48s-44 80 -44 144v268h80v-250c0 -90 38.667 -135 116 -135c24.667 0 48.667 6.33301 72 19s42.333 28.667 57 48v318h80zM269 707l139 -133
l-38 -48l-104 91l-104 -90l-38 47l141 133h4z" />
    <glyph glyph-name="udieresis" unicode="&#xfc;" horiz-adv-x="540" 
d="M467 450v-450h-80v64c-17.333 -20.667 -39.833 -38.167 -67.5 -52.5s-58.167 -21.5 -91.5 -21.5c-52 0 -92.667 16 -122 48s-44 80 -44 144v268h80v-250c0 -90 38.667 -135 116 -135c24.667 0 48.667 6.33301 72 19s42.333 28.667 57 48v318h80zM121 610
c0 14 4.5 25.167 13.5 33.5s20.167 12.5 33.5 12.5c11.333 0 21.5 -4.33301 30.5 -13s13.5 -19.667 13.5 -33c0 -15.333 -4.33301 -27.5 -13 -36.5s-19 -13.5 -31 -13.5c-13.333 0 -24.5 4.5 -33.5 13.5s-13.5 21.167 -13.5 36.5zM324 610c0 13.333 4.66699 24.333 14 33
s20.666 13 33.999 13c11.333 0 21.5 -4.33301 30.5 -13s13.5 -19.667 13.5 -33c0 -15.333 -4.33301 -27.5 -13 -36.5s-19 -13.5 -31 -13.5c-13.333 0 -24.666 4.5 -33.999 13.5s-14 21.167 -14 36.5z" />
    <glyph glyph-name="yacute" unicode="&#xfd;" horiz-adv-x="491" 
d="M481 450l-180 -450c-32 -78 -60.333 -130.833 -85 -158.5s-53.667 -41.5 -87 -41.5c-28.667 0 -57 9.33301 -85 28l26 61c21.333 -10 38 -15 50 -15c18.667 0 35.5 8 50.5 24s30.167 42 45.5 78l10 24l-216 450h96l132 -286c2.66699 -6 11.667 -28.667 27 -68
c6 22 13 45 21 69l104 285h91zM355 674l-120 -143l-48 34l106 157z" />
    <glyph glyph-name="thorn" unicode="&#xfe;" horiz-adv-x="556" 
d="M72 -200l-0.00195312 899.999h80v-298c40 38.667 91 58 153 58c63.333 0 113.833 -21.167 151.5 -63.5s56.5 -97.166 56.5 -164.499c0 -69.333 -21.667 -127 -65 -173s-99.666 -69 -168.999 -69c-53.333 0 -95.666 10.333 -126.999 31v-221h-80zM281.998 384.999
c-53.333 0 -96.666 -20.668 -129.999 -62.001v-223c34.667 -23.333 74.667 -35 120 -35c47.333 0 85.166 15.333 113.499 46s42.5 70 42.5 118c0 46.667 -13 84.334 -39 113.001s-61.667 43 -107 43z" />
    <glyph glyph-name="ydieresis" unicode="&#xff;" horiz-adv-x="491" 
d="M481 450l-180 -450c-32 -78 -60.333 -130.833 -85 -158.5s-53.667 -41.5 -87 -41.5c-28.667 0 -57 9.33301 -85 28l26 61c21.333 -10 38 -15 50 -15c18.667 0 35.5 8 50.5 24s30.167 42 45.5 78l10 24l-216 450h96l132 -286c2.66699 -6 11.667 -28.667 27 -68
c6 22 13 45 21 69l104 285h91zM103 610c0 14 4.5 25.167 13.5 33.5s20.167 12.5 33.5 12.5c11.333 0 21.5 -4.33301 30.5 -13s13.5 -19.667 13.5 -33c0 -15.333 -4.33301 -27.5 -13 -36.5s-19 -13.5 -31 -13.5c-13.333 0 -24.5 4.5 -33.5 13.5s-13.5 21.167 -13.5 36.5z
M306 610c0 13.333 4.66699 24.333 14 33s20.666 13 33.999 13c11.333 0 21.5 -4.33301 30.5 -13s13.5 -19.667 13.5 -33c0 -15.333 -4.33301 -27.5 -13 -36.5s-19 -13.5 -31 -13.5c-13.333 0 -24.666 4.5 -33.999 13.5s-14 21.167 -14 36.5z" />
    <glyph glyph-name="Amacron" unicode="&#x100;" horiz-adv-x="705" 
d="M15 0l301 704h73l301 -704h-91l-90 212h-319l-89 -212h-86zM350 591l-126 -299h252zM200 770v65h304v-65h-304z" />
    <glyph glyph-name="amacron" unicode="&#x101;" horiz-adv-x="460" 
d="M96 355l-21.002 64c44 27.333 94 41 150 41c62 0 106.333 -15.333 133 -46s40 -76.667 40 -138v-276h-76v58c-34.667 -43.333 -82.667 -65 -144 -65c-41.333 0 -74.666 12.5 -99.999 37.5s-38 58.833 -38 101.5c0 44.667 15.833 79.667 47.5 105s72.5 38 122.5 38
c48 0 85.333 -9.66699 112 -29c0 48 -6.66699 83.667 -20 107s-40.666 35 -81.999 35c-40.667 0 -82 -11 -124 -33zM205.998 65c44.667 0 83.335 19.333 116.002 58v57c-28 20 -61.667 30 -101 30c-26.667 0 -49.334 -6.33301 -68.001 -19s-28 -31 -28 -55
c0 -22 7.16699 -39.333 21.5 -52s34.166 -19 59.499 -19zM100.999 580v65h264v-65h-264z" />
    <glyph glyph-name="Abreve" unicode="&#x102;" horiz-adv-x="705" 
d="M15 0l301 704h73l301 -704h-91l-90 212h-319l-89 -212h-86zM350 591l-126 -299h252zM177 838l36 42.001c38.667 -43.333 86.334 -65 143.001 -65s103.334 21.667 140.001 65l31 -42c-16.667 -26 -40.334 -48 -71.001 -66s-64 -27 -100 -27
c-40.667 0 -76.834 9.66699 -108.501 29s-55.167 40.666 -70.5 63.999z" />
    <glyph glyph-name="abreve" unicode="&#x103;" horiz-adv-x="460" 
d="M96 355l-21.002 64c44 27.333 94 41 150 41c62 0 106.333 -15.333 133 -46s40 -76.667 40 -138v-276h-76v58c-34.667 -43.333 -82.667 -65 -144 -65c-41.333 0 -74.666 12.5 -99.999 37.5s-38 58.833 -38 101.5c0 44.667 15.833 79.667 47.5 105s72.5 38 122.5 38
c48 0 85.333 -9.66699 112 -29c0 48 -6.66699 83.667 -20 107s-40.666 35 -81.999 35c-40.667 0 -82 -11 -124 -33zM205.998 65c44.667 0 83.335 19.333 116.002 58v57c-28 20 -61.667 30 -101 30c-26.667 0 -49.334 -6.33301 -68.001 -19s-28 -31 -28 -55
c0 -22 7.16699 -39.333 21.5 -52s34.166 -19 59.499 -19zM78.999 640l37.001 41c34 -40.667 72 -61 114 -61c43.333 0 81.666 20 114.999 60l29 -39c-41.333 -57.333 -90.333 -86 -147 -86c-62 0 -111.333 28.333 -148 85z" />
    <glyph glyph-name="Aogonek" unicode="&#x104;" horiz-adv-x="705" 
d="M661 -126l23.999 -49c-20 -16.667 -48.667 -25 -86 -25c-33.333 0 -62 7.33301 -86 22s-36 38 -36 70c0 28.667 11.167 52.667 33.5 72s50.833 33.333 85.5 42l-87 206h-319l-89 -212h-86l301 704h73l301 -704h-19c-30.667 -1.33301 -57.334 -9.83301 -80.001 -25.5
s-34 -34.5 -34 -56.5c0 -18.667 6.33301 -32.167 19 -40.5s26.334 -12.5 41.001 -12.5c16.667 0 31.334 3 44.001 9zM349.999 591l-126 -299h252z" />
    <glyph glyph-name="aogonek" unicode="&#x105;" horiz-adv-x="460" 
d="M383 -126l23.9961 -49.002c-20 -16.667 -48.667 -25 -86 -25c-33.333 0 -62 7.33301 -86 22s-36 38 -36 70c0 28.667 11.5 52.834 34.5 72.501s52.5 33.834 88.5 42.501v51c-34.667 -43.333 -82.667 -65 -144 -65c-41.333 0 -74.666 12.5 -99.999 37.5
s-38 58.833 -38 101.5c0 44.667 15.833 79.667 47.5 105s72.5 38 122.5 38c48 0 85.333 -9.66699 112 -29c0 48 -6.66699 83.667 -20 107s-40.666 35 -81.999 35c-40.667 0 -82 -11 -124 -33l-21 64c44 27.333 94 41 150 41c62 0 106.333 -15.333 133 -46
s40 -76.667 40 -138v-276c-31.333 -0 -59 -8.16699 -83 -24.5s-36 -35.5 -36 -57.5c0 -18.667 6.33301 -32.167 19 -40.5s26.334 -12.5 41.001 -12.5c16.667 0 31.334 3 44.001 9zM205.996 64.998c44.667 0 83.335 19.333 116.002 58v57c-28 20 -61.667 30 -101 30
c-26.667 0 -49.334 -6.33301 -68.001 -19s-28 -31 -28 -55c0 -22 7.16699 -39.333 21.5 -52s34.166 -19 59.499 -19z" />
    <glyph glyph-name="Cacute" unicode="&#x106;" horiz-adv-x="656" 
d="M592 132l34.001 -64c-23.333 -24 -55 -43 -95 -57s-82 -21 -126 -21c-105.333 0 -190.833 32.833 -256.5 98.5s-98.5 152.834 -98.5 261.501c0 103.333 31.5 189.166 94.5 257.499s147.833 102.5 254.5 102.5c89.333 0 160.333 -22.667 213 -68l-39 -64
c-46.667 34.667 -104.334 52 -173.001 52c-76 0 -138.333 -26 -187 -78s-73 -119.333 -73 -202c0 -83.333 25.167 -150.833 75.5 -202.5s116.166 -77.5 197.499 -77.5c68.667 0 128.334 20.667 179.001 62zM538.001 819l-202 -84l-23 48l195 104z" />
    <glyph glyph-name="cacute" unicode="&#x107;" horiz-adv-x="488" 
d="M418 123l38.002 -58c-18.667 -24 -43.334 -42.5 -74.001 -55.5s-63.667 -19.5 -99 -19.5c-72 0 -130.167 21.5 -174.5 64.5s-66.5 99.833 -66.5 170.5c0 66 21.667 121.667 65 167s97.666 68 162.999 68c78.667 0 137.667 -19.667 177 -59l-37 -63
c-34 31.333 -77 47 -129 47c-42 0 -78.167 -15.167 -108.5 -45.5s-45.5 -68.5 -45.5 -114.5c0 -48 15.5 -86.667 46.5 -116s69.5 -44 115.5 -44c52 0 95 19.333 129 58zM382.002 674l-120 -143l-48 34l106 157z" />
    <glyph glyph-name="Ccircumflex" unicode="&#x108;" horiz-adv-x="656" 
d="M592 132l34.001 -64c-23.333 -24 -55 -43 -95 -57s-82 -21 -126 -21c-105.333 0 -190.833 32.833 -256.5 98.5s-98.5 152.834 -98.5 261.501c0 103.333 31.5 189.166 94.5 257.499s147.833 102.5 254.5 102.5c89.333 0 160.333 -22.667 213 -68l-39 -64
c-46.667 34.667 -104.334 52 -173.001 52c-76 0 -138.333 -26 -187 -78s-73 -119.333 -73 -202c0 -83.333 25.167 -150.833 75.5 -202.5s116.166 -77.5 197.499 -77.5c68.667 0 128.334 20.667 179.001 62zM216.001 778l171 104h4l174 -103l-33 -46l-143 76l-144 -76z" />
    <glyph glyph-name="ccircumflex" unicode="&#x109;" horiz-adv-x="488" 
d="M418 123l38.002 -58c-18.667 -24 -43.334 -42.5 -74.001 -55.5s-63.667 -19.5 -99 -19.5c-72 0 -130.167 21.5 -174.5 64.5s-66.5 99.833 -66.5 170.5c0 66 21.667 121.667 65 167s97.666 68 162.999 68c78.667 0 137.667 -19.667 177 -59l-37 -63
c-34 31.333 -77 47 -129 47c-42 0 -78.167 -15.167 -108.5 -45.5s-45.5 -68.5 -45.5 -114.5c0 -48 15.5 -86.667 46.5 -116s69.5 -44 115.5 -44c52 0 95 19.333 129 58zM279.002 707l139 -133l-38 -48l-104 91l-104 -90l-38 47l141 133h4z" />
    <glyph glyph-name="Cdotaccent" unicode="&#x10a;" horiz-adv-x="656" 
d="M592 132l34.001 -64c-23.333 -24 -55 -43 -95 -57s-82 -21 -126 -21c-105.333 0 -190.833 32.833 -256.5 98.5s-98.5 152.834 -98.5 261.501c0 103.333 31.5 189.166 94.5 257.499s147.833 102.5 254.5 102.5c89.333 0 160.333 -22.667 213 -68l-39 -64
c-46.667 34.667 -104.334 52 -173.001 52c-76 0 -138.333 -26 -187 -78s-73 -119.333 -73 -202c0 -83.333 25.167 -150.833 75.5 -202.5s116.166 -77.5 197.499 -77.5c68.667 0 128.334 20.667 179.001 62zM325.001 817c0 15.333 5.5 27.666 16.5 36.999s24.5 14 40.5 14
c14.667 0 27.334 -4.66699 38.001 -14s16 -21.666 16 -36.999c0 -16.667 -5.33301 -29.834 -16 -39.501s-23.334 -14.5 -38.001 -14.5c-16 0 -29.5 4.83301 -40.5 14.5s-16.5 22.834 -16.5 39.501z" />
    <glyph glyph-name="cdotaccent" unicode="&#x10b;" horiz-adv-x="488" 
d="M418 123l38.002 -58c-18.667 -24 -43.334 -42.5 -74.001 -55.5s-63.667 -19.5 -99 -19.5c-72 0 -130.167 21.5 -174.5 64.5s-66.5 99.833 -66.5 170.5c0 66 21.667 121.667 65 167s97.666 68 162.999 68c78.667 0 137.667 -19.667 177 -59l-37 -63
c-34 31.333 -77 47 -129 47c-42 0 -78.167 -15.167 -108.5 -45.5s-45.5 -68.5 -45.5 -114.5c0 -48 15.5 -86.667 46.5 -116s69.5 -44 115.5 -44c52 0 95 19.333 129 58zM226.002 619c0 14 5 25.5 15 34.5s22.333 13.5 37 13.5c13.333 0 24.833 -4.5 34.5 -13.5
s14.5 -20.5 14.5 -34.5c0 -16 -4.83301 -28.667 -14.5 -38s-21.167 -14 -34.5 -14c-14.667 0 -27 4.66699 -37 14s-15 22 -15 38z" />
    <glyph glyph-name="Ccaron" unicode="&#x10c;" horiz-adv-x="656" 
d="M592 132l34.001 -64c-23.333 -24 -55 -43 -95 -57s-82 -21 -126 -21c-105.333 0 -190.833 32.833 -256.5 98.5s-98.5 152.834 -98.5 261.501c0 103.333 31.5 189.166 94.5 257.499s147.833 102.5 254.5 102.5c89.333 0 160.333 -22.667 213 -68l-39 -64
c-46.667 34.667 -104.334 52 -173.001 52c-76 0 -138.333 -26 -187 -78s-73 -119.333 -73 -202c0 -83.333 25.167 -150.833 75.5 -202.5s116.166 -77.5 197.499 -77.5c68.667 0 128.334 20.667 179.001 62zM390.001 738l-175 103l33 46l144 -81l143 81l30 -45l-171 -104h-4z
" />
    <glyph glyph-name="ccaron" unicode="&#x10d;" horiz-adv-x="488" 
d="M418 123l38.002 -58c-18.667 -24 -43.334 -42.5 -74.001 -55.5s-63.667 -19.5 -99 -19.5c-72 0 -130.167 21.5 -174.5 64.5s-66.5 99.833 -66.5 170.5c0 66 21.667 121.667 65 167s97.666 68 162.999 68c78.667 0 137.667 -19.667 177 -59l-37 -63
c-34 31.333 -77 47 -129 47c-42 0 -78.167 -15.167 -108.5 -45.5s-45.5 -68.5 -45.5 -114.5c0 -48 15.5 -86.667 46.5 -116s69.5 -44 115.5 -44c52 0 95 19.333 129 58zM273.002 529l-140 133l39 48l104 -103l104 102l37 -47l-140 -133h-4z" />
    <glyph glyph-name="Dcaron" unicode="&#x10e;" horiz-adv-x="739" 
d="M105 0l0.00195312 699.997h12c14.667 0 43.167 0.5 85.5 1.5s73.5 1.5 93.5 1.5c68 0 127.667 -9.16699 179 -27.5s92.333 -43.666 123 -75.999s53.5 -68.666 68.5 -108.999s22.5 -84.166 22.5 -131.499c0 -104.667 -34.833 -191 -104.5 -259s-168.5 -102 -296.5 -102
c-14.667 0 -41.834 0.333008 -81.501 1s-69.834 1 -90.501 1h-11zM294.002 622.997c-12.667 0 -24.667 -0.167969 -36 -0.500977s-23.5 -0.833008 -36.5 -1.5s-23.5 -1 -31.5 -1v-540c61.333 -1.33301 95 -2 101 -2c97.333 0 173 25.833 227 77.5s81 119.5 81 203.5
c0 78.667 -26.333 142.334 -79 191.001s-128 73 -226 73zM335.002 737.996l-175 103l33 46l144 -81l143 81l30 -45l-171 -104h-4z" />
    <glyph glyph-name="dcaron" unicode="&#x10f;" horiz-adv-x="554" 
d="M402 0l0.000976562 57c-40 -43.333 -87.667 -65 -143 -65c-66 0 -118.667 21 -158 63s-59 97.667 -59 167c0 70 23.167 127.167 69.5 171.5s105.166 66.5 176.499 66.5c46 0 84 -10.667 114 -32v272h80v-700h-80zM274.001 67c49.333 0 92.001 20 128.001 60v223
c-36.667 23.333 -73.667 35 -111 35c-46 0 -84.833 -14.833 -116.5 -44.5s-47.5 -68.5 -47.5 -116.5c0 -48.667 13.667 -87 41 -115s62.666 -42 105.999 -42zM571.002 700l78 0.000976562c5.33301 -10.667 8 -23.334 8 -38.001c0 -37.333 -8.33301 -69 -25 -95
s-37 -45.333 -61 -58l-36 35c31.333 26.667 47 63 47 109c0 18 -3.66699 33.667 -11 47z" />
    <glyph glyph-name="Dcroat" unicode="&#x110;" horiz-adv-x="754" 
d="M10 316l0.00195312 74.9971h110v309h12c14.667 0 43.167 0.5 85.5 1.5s73.5 1.5 93.5 1.5c68 0 127.667 -9.16699 179 -27.5s92.333 -43.666 123 -75.999s53.5 -68.666 68.5 -108.999s22.5 -84.166 22.5 -131.499c0 -104.667 -34.833 -191 -104.5 -259
s-168.5 -102 -296.5 -102c-14.667 0 -41.834 0.333008 -81.501 1s-69.834 1 -90.501 1h-11v316h-110zM309.002 622.997c-12.667 0 -24.667 -0.167969 -36 -0.500977s-23.5 -0.833008 -36.5 -1.5s-23.5 -1 -31.5 -1v-229h188v-75h-188v-236c61.333 -1.33301 95 -2 101 -2
c97.333 0 173 25.833 227 77.5s81 119.5 81 203.5c0 78.667 -26.333 142.334 -79 191.001s-128 73 -226 73z" />
    <glyph glyph-name="dcroat" unicode="&#x111;" horiz-adv-x="554" 
d="M245 534l0.000976562 65h157v101h80v-101h92v-65h-92v-534h-80v57c-40 -43.333 -87.667 -65 -143 -65c-66 0 -118.667 21 -158 63s-59 97.667 -59 167c0 70 23.167 127.167 69.5 171.5s105.166 66.5 176.499 66.5c46 0 84 -10.667 114 -32v106h-157zM274.001 67
c49.333 0 92.001 20 128.001 60v223c-36.667 23.333 -73.667 35 -111 35c-46 0 -84.833 -14.833 -116.5 -44.5s-47.5 -68.5 -47.5 -116.5c0 -48.667 13.667 -87 41 -115s62.666 -42 105.999 -42z" />
    <glyph glyph-name="Emacron" unicode="&#x112;" horiz-adv-x="575" 
d="M105 0v700h395v-80h-310v-226h280v-80h-280v-234h320v-80h-405zM150 770v65h304v-65h-304z" />
    <glyph glyph-name="emacron" unicode="&#x113;" horiz-adv-x="520" 
d="M427 112l25 -63c-43.333 -39.333 -99.666 -59 -168.999 -59c-72.667 0 -131 21.333 -175 64s-66 99.667 -66 171c0 68 20.667 124.167 62 168.5s98 66.5 170 66.5c59.333 0 109 -19.167 149 -57.5s60 -87.833 60 -148.5c0 -20.667 -1.66699 -38.667 -5 -54h-346
c3.33301 -42 19.166 -75 47.499 -99s64.833 -36 109.5 -36c58.667 0 104.667 15.667 138 47zM270 385c-40 0 -72.667 -11.167 -98 -33.5s-40.333 -51.166 -45 -86.499h273c-2 37.333 -14.5 66.666 -37.5 87.999s-53.833 32 -92.5 32zM132 580v65h264v-65h-264z" />
    <glyph glyph-name="Edotaccent" unicode="&#x116;" horiz-adv-x="575" 
d="M105 0v700h395v-80h-310v-226h280v-80h-280v-234h320v-80h-405zM250 817c0 15.333 5.5 27.666 16.5 36.999s24.5 14 40.5 14c14.667 0 27.334 -4.66699 38.001 -14s16 -21.666 16 -36.999c0 -16.667 -5.33301 -29.834 -16 -39.501s-23.334 -14.5 -38.001 -14.5
c-16 0 -29.5 4.83301 -40.5 14.5s-16.5 22.834 -16.5 39.501z" />
    <glyph glyph-name="edotaccent" unicode="&#x117;" horiz-adv-x="520" 
d="M427 112l25 -63c-43.333 -39.333 -99.666 -59 -168.999 -59c-72.667 0 -131 21.333 -175 64s-66 99.667 -66 171c0 68 20.667 124.167 62 168.5s98 66.5 170 66.5c59.333 0 109 -19.167 149 -57.5s60 -87.833 60 -148.5c0 -20.667 -1.66699 -38.667 -5 -54h-346
c3.33301 -42 19.166 -75 47.499 -99s64.833 -36 109.5 -36c58.667 0 104.667 15.667 138 47zM270 385c-40 0 -72.667 -11.167 -98 -33.5s-40.333 -51.166 -45 -86.499h273c-2 37.333 -14.5 66.666 -37.5 87.999s-53.833 32 -92.5 32zM215 619c0 14 5 25.5 15 34.5
s22.333 13.5 37 13.5c13.333 0 24.833 -4.5 34.5 -13.5s14.5 -20.5 14.5 -34.5c0 -16 -4.83301 -28.667 -14.5 -38s-21.167 -14 -34.5 -14c-14.667 0 -27 4.66699 -37 14s-15 22 -15 38z" />
    <glyph glyph-name="Eogonek" unicode="&#x118;" horiz-adv-x="575" 
d="M105 0l-0.000976562 700h395v-80h-310v-226h280v-80h-280v-234h320v-80h-5c-30.667 -1.33301 -57.334 -9.83301 -80.001 -25.5s-34 -34.5 -34 -56.5c0 -18.667 6.33301 -32.167 19 -40.5s26.334 -12.5 41.001 -12.5c16.667 0 31.334 3 44.001 9l24 -49
c-20 -16.667 -48.667 -25 -86 -25c-33.333 0 -62 7.33301 -86 22s-36 38 -36 70c0 49.333 32.667 85.333 98 108h-304z" />
    <glyph glyph-name="eogonek" unicode="&#x119;" horiz-adv-x="520" 
d="M427 112l24.999 -63.002c-21.333 -19.333 -46 -33.666 -74 -42.999c-44.667 -29.333 -67 -58.666 -67 -87.999c0 -18.667 6.5 -32.167 19.5 -40.5s26.833 -12.5 41.5 -12.5c16.667 0 31.334 3 44.001 9l24 -49c-20 -16.667 -48.667 -25 -86 -25
c-33.333 0 -62.166 7.33301 -86.499 22s-36.5 38 -36.5 70c0 37.333 24 70.333 72 99c-2 0 -5.33301 -0.166992 -10 -0.5s-8 -0.5 -10 -0.5c-72.667 0 -131 21.333 -175 64s-66 99.667 -66 171c0 68 20.667 124.167 62 168.5s98 66.5 170 66.5
c59.333 0 109 -19.167 149 -57.5s60 -87.833 60 -148.5c0 -20.667 -1.66699 -38.667 -5 -54h-346c3.33301 -42 19.166 -75 47.499 -99s64.833 -36 109.5 -36c58.667 0 104.667 15.667 138 47zM269.999 384.998c-40 0 -72.667 -11.167 -98 -33.5s-40.333 -51.166 -45 -86.499
h273c-2 37.333 -14.5 66.666 -37.5 87.999s-53.833 32 -92.5 32z" />
    <glyph glyph-name="Ecaron" unicode="&#x11a;" horiz-adv-x="575" 
d="M105 0v700h395v-80h-310v-226h280v-80h-280v-234h320v-80h-405zM310 738l-175 103l33 46l144 -81l143 81l30 -45l-171 -104h-4z" />
    <glyph glyph-name="ecaron" unicode="&#x11b;" horiz-adv-x="520" 
d="M427 112l25 -63c-43.333 -39.333 -99.666 -59 -168.999 -59c-72.667 0 -131 21.333 -175 64s-66 99.667 -66 171c0 68 20.667 124.167 62 168.5s98 66.5 170 66.5c59.333 0 109 -19.167 149 -57.5s60 -87.833 60 -148.5c0 -20.667 -1.66699 -38.667 -5 -54h-346
c3.33301 -42 19.166 -75 47.499 -99s64.833 -36 109.5 -36c58.667 0 104.667 15.667 138 47zM270 385c-40 0 -72.667 -11.167 -98 -33.5s-40.333 -51.166 -45 -86.499h273c-2 37.333 -14.5 66.666 -37.5 87.999s-53.833 32 -92.5 32zM271 529l-140 133l39 48l104 -103
l104 102l37 -47l-140 -133h-4z" />
    <glyph glyph-name="Gcircumflex" unicode="&#x11c;" horiz-adv-x="727" 
d="M398 276l0.00195312 80h269v-269c-30 -30 -69.667 -53.667 -119 -71s-97 -26 -143 -26c-108.667 0 -195 32.667 -259 98s-96 152.666 -96 261.999c0 102.667 31.667 188.334 95 257.001s146.333 103 249 103c89.333 0 162.666 -22.667 219.999 -68l-37 -68
c-41.333 37.333 -99 56 -173 56c-78.667 0 -142.334 -25.667 -191.001 -77s-73 -119 -73 -203c0 -84.667 24.5 -152.5 73.5 -203.5s113.5 -76.5 193.5 -76.5c33.333 0 67 5.83301 101 17.5s60.333 26.5 79 44.5v144h-189zM216.002 778l171 104h4l174 -103l-33 -46l-143 76
l-144 -76z" />
    <glyph glyph-name="gcircumflex" unicode="&#x11d;" horiz-adv-x="494" 
d="M10 -65c0 35.333 12.832 64.6689 38.499 88.002s60.834 39.666 105.501 48.999c-7.33301 9.33301 -11 21.666 -11 36.999s4 28 12 38c-32 12.667 -56.833 32.167 -74.5 58.5s-26.5 56.166 -26.5 89.499c0 46.667 16.833 85.834 50.5 117.501s78.167 47.5 133.5 47.5
c43.333 0 81.333 -11 114 -33l132 32l2 -65l-85 -21c14 -22.667 21 -48.667 21 -78c0 -46 -17 -84.5 -51 -115.5s-78.333 -46.5 -133 -46.5c-13.333 0 -23.333 0.333008 -30 1c-3.33301 -6.66699 -5 -15 -5 -25c0 -12 3 -22 9 -30c2.66699 0 7 0.166992 13 0.5
s10.667 0.5 14 0.5c68.667 0 124 -12.333 166 -37s63 -60.667 63 -108c0 -46.667 -21 -82.167 -63 -106.5s-97.333 -36.5 -166 -36.5s-124 12 -166 36s-63 59.667 -63 107zM84.999 -64.9971c0 -24.667 13.833 -43.832 41.5 -57.499s65.167 -20.5 112.5 -20.5
s84.833 6.66699 112.5 20s41.5 32.666 41.5 57.999c0 24.667 -13.667 44.167 -41 58.5s-65 21.5 -113 21.5s-85.667 -7.16699 -113 -21.5s-41 -33.833 -41 -58.5zM128.999 295.005c0 -28 10 -51.167 30 -69.5s46.333 -27.5 79 -27.5c32 0 58.167 9 78.5 27
s30.5 41.333 30.5 70s-10 52.5 -30 71.5s-46.333 28.5 -79 28.5s-59 -9.5 -79 -28.5s-30 -42.833 -30 -71.5zM244.999 707.005l139 -133l-38 -48l-104 91l-104 -90l-38 47l141 133h4z" />
    <glyph glyph-name="Gbreve" unicode="&#x11e;" horiz-adv-x="727" 
d="M398 276l0.00195312 80h269v-269c-30 -30 -69.667 -53.667 -119 -71s-97 -26 -143 -26c-108.667 0 -195 32.667 -259 98s-96 152.666 -96 261.999c0 102.667 31.667 188.334 95 257.001s146.333 103 249 103c89.333 0 162.666 -22.667 219.999 -68l-37 -68
c-41.333 37.333 -99 56 -173 56c-78.667 0 -142.334 -25.667 -191.001 -77s-73 -119 -73 -203c0 -84.667 24.5 -152.5 73.5 -203.5s113.5 -76.5 193.5 -76.5c33.333 0 67 5.83301 101 17.5s60.333 26.5 79 44.5v144h-189zM226.002 838l36 42.001
c38.667 -43.333 86.334 -65 143.001 -65s103.334 21.667 140.001 65l31 -42c-16.667 -26 -40.334 -48 -71.001 -66s-64 -27 -100 -27c-40.667 0 -76.834 9.66699 -108.501 29s-55.167 40.666 -70.5 63.999z" />
    <glyph glyph-name="gbreve" unicode="&#x11f;" horiz-adv-x="494" 
d="M10 -65c0 35.333 12.832 64.6689 38.499 88.002s60.834 39.666 105.501 48.999c-7.33301 9.33301 -11 21.666 -11 36.999s4 28 12 38c-32 12.667 -56.833 32.167 -74.5 58.5s-26.5 56.166 -26.5 89.499c0 46.667 16.833 85.834 50.5 117.501s78.167 47.5 133.5 47.5
c43.333 0 81.333 -11 114 -33l132 32l2 -65l-85 -21c14 -22.667 21 -48.667 21 -78c0 -46 -17 -84.5 -51 -115.5s-78.333 -46.5 -133 -46.5c-13.333 0 -23.333 0.333008 -30 1c-3.33301 -6.66699 -5 -15 -5 -25c0 -12 3 -22 9 -30c2.66699 0 7 0.166992 13 0.5
s10.667 0.5 14 0.5c68.667 0 124 -12.333 166 -37s63 -60.667 63 -108c0 -46.667 -21 -82.167 -63 -106.5s-97.333 -36.5 -166 -36.5s-124 12 -166 36s-63 59.667 -63 107zM84.999 -64.9971c0 -24.667 13.833 -43.832 41.5 -57.499s65.167 -20.5 112.5 -20.5
s84.833 6.66699 112.5 20s41.5 32.666 41.5 57.999c0 24.667 -13.667 44.167 -41 58.5s-65 21.5 -113 21.5s-85.667 -7.16699 -113 -21.5s-41 -33.833 -41 -58.5zM128.999 295.005c0 -28 10 -51.167 30 -69.5s46.333 -27.5 79 -27.5c32 0 58.167 9 78.5 27
s30.5 41.333 30.5 70s-10 52.5 -30 71.5s-46.333 28.5 -79 28.5s-59 -9.5 -79 -28.5s-30 -42.833 -30 -71.5zM91.999 640.005l37.001 41c34 -40.667 72 -61 114 -61c43.333 0 81.666 20 114.999 60l29 -39c-41.333 -57.333 -90.333 -86 -147 -86
c-62 0 -111.333 28.333 -148 85z" />
    <glyph glyph-name="Gdotaccent" unicode="&#x120;" horiz-adv-x="727" 
d="M398 276l0.00195312 80h269v-269c-30 -30 -69.667 -53.667 -119 -71s-97 -26 -143 -26c-108.667 0 -195 32.667 -259 98s-96 152.666 -96 261.999c0 102.667 31.667 188.334 95 257.001s146.333 103 249 103c89.333 0 162.666 -22.667 219.999 -68l-37 -68
c-41.333 37.333 -99 56 -173 56c-78.667 0 -142.334 -25.667 -191.001 -77s-73 -119 -73 -203c0 -84.667 24.5 -152.5 73.5 -203.5s113.5 -76.5 193.5 -76.5c33.333 0 67 5.83301 101 17.5s60.333 26.5 79 44.5v144h-189zM325.002 817c0 15.333 5.5 27.666 16.5 36.999
s24.5 14 40.5 14c14.667 0 27.334 -4.66699 38.001 -14s16 -21.666 16 -36.999c0 -16.667 -5.33301 -29.834 -16 -39.501s-23.334 -14.5 -38.001 -14.5c-16 0 -29.5 4.83301 -40.5 14.5s-16.5 22.834 -16.5 39.501z" />
    <glyph glyph-name="gdotaccent" unicode="&#x121;" horiz-adv-x="494" 
d="M10 -65c0 35.333 12.832 64.6689 38.499 88.002s60.834 39.666 105.501 48.999c-7.33301 9.33301 -11 21.666 -11 36.999s4 28 12 38c-32 12.667 -56.833 32.167 -74.5 58.5s-26.5 56.166 -26.5 89.499c0 46.667 16.833 85.834 50.5 117.501s78.167 47.5 133.5 47.5
c43.333 0 81.333 -11 114 -33l132 32l2 -65l-85 -21c14 -22.667 21 -48.667 21 -78c0 -46 -17 -84.5 -51 -115.5s-78.333 -46.5 -133 -46.5c-13.333 0 -23.333 0.333008 -30 1c-3.33301 -6.66699 -5 -15 -5 -25c0 -12 3 -22 9 -30c2.66699 0 7 0.166992 13 0.5
s10.667 0.5 14 0.5c68.667 0 124 -12.333 166 -37s63 -60.667 63 -108c0 -46.667 -21 -82.167 -63 -106.5s-97.333 -36.5 -166 -36.5s-124 12 -166 36s-63 59.667 -63 107zM84.999 -64.9971c0 -24.667 13.833 -43.832 41.5 -57.499s65.167 -20.5 112.5 -20.5
s84.833 6.66699 112.5 20s41.5 32.666 41.5 57.999c0 24.667 -13.667 44.167 -41 58.5s-65 21.5 -113 21.5s-85.667 -7.16699 -113 -21.5s-41 -33.833 -41 -58.5zM128.999 295.005c0 -28 10 -51.167 30 -69.5s46.333 -27.5 79 -27.5c32 0 58.167 9 78.5 27
s30.5 41.333 30.5 70s-10 52.5 -30 71.5s-46.333 28.5 -79 28.5s-59 -9.5 -79 -28.5s-30 -42.833 -30 -71.5zM188.999 619.005c0 14 5 25.5 15 34.5s22.333 13.5 37 13.5c13.333 0 24.833 -4.5 34.5 -13.5s14.5 -20.5 14.5 -34.5c0 -16 -4.83301 -28.667 -14.5 -38
s-21.167 -14 -34.5 -14c-14.667 0 -27 4.66699 -37 14s-15 22 -15 38z" />
    <glyph glyph-name="Gcommaaccent" unicode="&#x122;" horiz-adv-x="727" 
d="M398 276l0.00195312 80h269v-269c-30 -30 -69.667 -53.667 -119 -71s-97 -26 -143 -26c-108.667 0 -195 32.667 -259 98s-96 152.666 -96 261.999c0 102.667 31.667 188.334 95 257.001s146.333 103 249 103c89.333 0 162.666 -22.667 219.999 -68l-37 -68
c-41.333 37.333 -99 56 -173 56c-78.667 0 -142.334 -25.667 -191.001 -77s-73 -119 -73 -203c0 -84.667 24.5 -152.5 73.5 -203.5s113.5 -76.5 193.5 -76.5c33.333 0 67 5.83301 101 17.5s60.333 26.5 79 44.5v144h-189zM351.002 -65l75 18.999
c19.333 -4.66699 29 -21 29 -49c0 -29.333 -10 -53.333 -30 -72s-44.333 -31 -73 -37l-23 36c30.667 12 46 32.667 46 62c0 20.667 -8 34.334 -24 41.001z" />
    <glyph glyph-name="gcommaaccent" unicode="&#x123;" horiz-adv-x="494" 
d="M10 -65c0 35.333 12.832 64.6689 38.499 88.002s60.834 39.666 105.501 48.999c-7.33301 9.33301 -11 21.666 -11 36.999s4 28 12 38c-32 12.667 -56.833 32.167 -74.5 58.5s-26.5 56.166 -26.5 89.499c0 46.667 16.833 85.834 50.5 117.501s78.167 47.5 133.5 47.5
c43.333 0 81.333 -11 114 -33l132 32l2 -65l-85 -21c14 -22.667 21 -48.667 21 -78c0 -46 -17 -84.5 -51 -115.5s-78.333 -46.5 -133 -46.5c-13.333 0 -23.333 0.333008 -30 1c-3.33301 -6.66699 -5 -15 -5 -25c0 -12 3 -22 9 -30c2.66699 0 7 0.166992 13 0.5
s10.667 0.5 14 0.5c68.667 0 124 -12.333 166 -37s63 -60.667 63 -108c0 -46.667 -21 -82.167 -63 -106.5s-97.333 -36.5 -166 -36.5s-124 12 -166 36s-63 59.667 -63 107zM84.999 -64.9971c0 -24.667 13.833 -43.832 41.5 -57.499s65.167 -20.5 112.5 -20.5
s84.833 6.66699 112.5 20s41.5 32.666 41.5 57.999c0 24.667 -13.667 44.167 -41 58.5s-65 21.5 -113 21.5s-85.667 -7.16699 -113 -21.5s-41 -33.833 -41 -58.5zM128.999 295.005c0 -28 10 -51.167 30 -69.5s46.333 -27.5 79 -27.5c32 0 58.167 9 78.5 27
s30.5 41.333 30.5 70s-10 52.5 -30 71.5s-46.333 28.5 -79 28.5s-59 -9.5 -79 -28.5s-30 -42.833 -30 -71.5zM284.999 562.005l-75 -18.999c-19.333 4.66699 -29 21 -29 49c0 29.333 10 53.333 30 72s44.333 31 73 37l23 -36c-30.667 -12 -46 -32.667 -46 -62
c0 -20.667 8 -34.334 24 -41.001z" />
    <glyph glyph-name="Hcircumflex" unicode="&#x124;" horiz-adv-x="765" 
d="M575 0v317h-385v-317h-85v700h85v-303h385v303h85v-700h-85zM209 778l171 104h4l174 -103l-33 -46l-143 76l-144 -76z" />
    <glyph glyph-name="hcircumflex" unicode="&#x125;" horiz-adv-x="549" 
d="M72 0l0.000976562 700.002h80v-302c17.333 17.333 39.166 31.666 65.499 42.999s53.5 17 81.5 17c124.667 0 187 -66.667 187 -200v-258h-80v247c0 90.667 -42 136 -126 136c-24 0 -47.667 -5.33301 -71 -16s-42.333 -24.334 -57 -41.001v-326h-80zM-16.999 778.002
l171 104h4l174 -103l-33 -46l-143 76l-144 -76z" />
    <glyph glyph-name="Hbar" unicode="&#x126;" horiz-adv-x="775" 
d="M25 514v75h85v111h85v-111h385v111h85v-111h85v-75h-85v-514h-85v317h-385v-317h-85v514h-85zM195 397h385v117h-385v-117z" />
    <glyph glyph-name="hbar" unicode="&#x127;" horiz-adv-x="574" 
d="M-20 520l0.000976562 75.002h117v105h80v-105h162v-75h-162v-122c17.333 17.333 39.166 31.666 65.499 42.999s53.5 17 81.5 17c124.667 0 187 -66.667 187 -200v-258h-80v247c0 90.667 -42 136 -126 136c-24 0 -47.667 -5.33301 -71 -16s-42.333 -24.334 -57 -41.001
v-326h-80v520h-117z" />
    <glyph glyph-name="Imacron" unicode="&#x12a;" horiz-adv-x="335" 
d="M125 0v700h85v-700h-85zM18 770v65h304v-65h-304z" />
    <glyph glyph-name="imacron" unicode="&#x12b;" horiz-adv-x="268" 
d="M94 0v450h80v-450h-80zM2 580v65h264v-65h-264z" />
    <glyph glyph-name="Iogonek" unicode="&#x12e;" horiz-adv-x="335" 
d="M195 -126l23.999 -48.998c-20 -16.667 -48.667 -25 -86 -25c-33.333 0 -62 7.33301 -86 22s-36 38 -36 70c0 27.333 10.5 50.666 31.5 69.999s48.5 33.666 82.5 42.999v695h85v-700h-5c-30.667 -1.33301 -57.334 -9.83301 -80.001 -25.5s-34 -34.5 -34 -56.5
c0 -18.667 6.33301 -32.167 19 -40.5s26.334 -12.5 41.001 -12.5c16.667 0 31.334 3 44.001 9z" />
    <glyph glyph-name="iogonek" unicode="&#x12f;" horiz-adv-x="268" 
d="M158 -126l24 -49c-20 -16.667 -48.667 -25 -86 -25c-33.333 0 -62 7.33301 -86 22s-36 38 -36 70c0 28.667 11.167 52.667 33.5 72s51.166 33.333 86.499 42v444h80v-450h-6c-30.667 -1.33301 -57.334 -9.83301 -80.001 -25.5s-34 -34.5 -34 -56.5
c0 -18.667 6.33301 -32.167 19 -40.5s26.334 -12.5 41.001 -12.5c16.667 0 31.334 3 44.001 9zM81 619c0 14 5 25.5 15 34.5s22.333 13.5 37 13.5c13.333 0 24.833 -4.5 34.5 -13.5s14.5 -20.5 14.5 -34.5c0 -16 -4.83301 -28.667 -14.5 -38s-21.167 -14 -34.5 -14
c-14.667 0 -27 4.66699 -37 14s-15 22 -15 38z" />
    <glyph glyph-name="Idotaccent" unicode="&#x130;" horiz-adv-x="335" 
d="M125 0v700h85v-700h-85zM112 817c0 15.333 5.5 27.666 16.5 36.999s24.5 14 40.5 14c14.667 0 27.334 -4.66699 38.001 -14s16 -21.666 16 -36.999c0 -16.667 -5.33301 -29.834 -16 -39.501s-23.334 -14.5 -38.001 -14.5c-16 0 -29.5 4.83301 -40.5 14.5
s-16.5 22.834 -16.5 39.501z" />
    <glyph glyph-name="dotlessi" unicode="&#x131;" horiz-adv-x="268" 
d="M94 0v450h80v-450h-80z" />
    <glyph glyph-name="Jcircumflex" unicode="&#x134;" horiz-adv-x="374" 
d="M269 700v-541c0 -112.667 -51 -169 -153 -169c-46 0 -81.333 12.333 -106 37l29 65c19.333 -14.667 41.333 -22 66 -22c52.667 0 79 34.333 79 103v527h85zM47 778l171 104h4l174 -103l-33 -46l-143 76l-144 -76z" />
    <glyph glyph-name="jcircumflex" unicode="&#x135;" horiz-adv-x="266" 
d="M178 450v-483c0 -116.667 -47 -175 -141 -175c-42 0 -75.333 9.66699 -100 29l23 64c19.333 -12 39 -18 59 -18c52.667 0 79 35.333 79 106v477h80zM141 707l139 -133l-38 -48l-104 91l-104 -90l-38 47l141 133h4z" />
    <glyph glyph-name="Kcommaaccent" unicode="&#x136;" horiz-adv-x="653" 
d="M617 700l-312 -329l328 -371h-109l-317 365l307 335h103zM105 0v700h85v-700h-85zM271 -65l75 18.999c19.333 -4.66699 29 -21 29 -49c0 -29.333 -10 -53.333 -30 -72s-44.333 -31 -73 -37l-23 36c30.667 12 46 32.667 46 62c0 20.667 -8 34.334 -24 41.001z" />
    <glyph glyph-name="kcommaaccent" unicode="&#x137;" horiz-adv-x="491" 
d="M457 450l-191 -209l215 -241h-109l-203 235l186 215h102zM72 0v700h80v-700h-80zM185 -65l75 18.999c19.333 -4.66699 29 -21 29 -49c0 -29.333 -10 -53.333 -30 -72s-44.333 -31 -73 -37l-23 36c30.667 12 46 32.667 46 62c0 20.667 -8 34.334 -24 41.001z" />
    <glyph glyph-name="Lacute" unicode="&#x139;" horiz-adv-x="550" 
d="M105 0v700h85v-620h345v-80h-430zM438 819l-202 -84l-23 48l195 104z" />
    <glyph glyph-name="lacute" unicode="&#x13a;" horiz-adv-x="290" 
d="M72 120v580h80v-544c0 -30.667 4.16699 -53.167 12.5 -67.5s21.833 -21.5 40.5 -21.5c18 0 37 6.66699 57 20l18 -61c-28.667 -22.667 -64 -34 -106 -34c-68 0 -102 42.667 -102 128zM295 819l-202 -84l-23 48l195 104z" />
    <glyph glyph-name="Lcommaaccent" unicode="&#x13b;" horiz-adv-x="550" 
d="M105 0v700h85v-620h345v-80h-430zM261 -65l75 18.999c19.333 -4.66699 29 -21 29 -49c0 -29.333 -10 -53.333 -30 -72s-44.333 -31 -73 -37l-23 36c30.667 12 46 32.667 46 62c0 20.667 -8 34.334 -24 41.001z" />
    <glyph glyph-name="lcommaaccent" unicode="&#x13c;" horiz-adv-x="290" 
d="M72 120v580h80v-544c0 -30.667 4.16699 -53.167 12.5 -67.5s21.833 -21.5 40.5 -21.5c18 0 37 6.66699 57 20l18 -61c-28.667 -22.667 -64 -34 -106 -34c-68 0 -102 42.667 -102 128zM118 -65l75 18.999c19.333 -4.66699 29 -21 29 -49c0 -29.333 -10 -53.333 -30 -72
s-44.333 -31 -73 -37l-23 36c30.667 12 46 32.667 46 62c0 20.667 -8 34.334 -24 41.001z" />
    <glyph glyph-name="Lcaron" unicode="&#x13d;" horiz-adv-x="550" 
d="M105 0v700h85v-620h345v-80h-430zM356 700l78 0.000976562c5.33301 -10.667 8 -23.334 8 -38.001c0 -37.333 -8.33301 -69 -25 -95s-37 -45.333 -61 -58l-36 35c31.333 26.667 47 63 47 109c0 18 -3.66699 33.667 -11 47z" />
    <glyph glyph-name="lcaron" unicode="&#x13e;" horiz-adv-x="290" 
d="M72 120v580h80v-544c0 -30.667 4.16699 -53.167 12.5 -67.5s21.833 -21.5 40.5 -21.5c18 0 37 6.66699 57 20l18 -61c-28.667 -22.667 -64 -34 -106 -34c-68 0 -102 42.667 -102 128zM246 700l78 0.000976562c5.33301 -10.667 8 -23.334 8 -38.001
c0 -37.333 -8.33301 -69 -25 -95s-37 -45.333 -61 -58l-36 35c31.333 26.667 47 63 47 109c0 18 -3.66699 33.667 -11 47z" />
    <glyph glyph-name="Ldot" unicode="&#x13f;" horiz-adv-x="550" 
d="M105 0v700h85v-620h345v-80h-430zM368 374c0 14 5.33301 26.333 16 37s24.334 16 41.001 16c14.667 0 27.167 -5.5 37.5 -16.5s15.5 -23.167 15.5 -36.5c0 -15.333 -5 -28.666 -15 -39.999s-22.667 -17 -38 -17c-16.667 0 -30.334 5.66699 -41.001 17
s-16 24.666 -16 39.999z" />
    <glyph glyph-name="ldot" unicode="&#x140;" horiz-adv-x="324" 
d="M72 120v580h80v-544c0 -30.667 4.16699 -53.167 12.5 -67.5s21.833 -21.5 40.5 -21.5c18 0 37 6.66699 57 20l18 -61c-28.667 -22.667 -64 -34 -106 -34c-68 0 -102 42.667 -102 128zM226 326c0 14 5 25.5 15 34.5s22.333 13.5 37 13.5c13.333 0 24.833 -4.5 34.5 -13.5
s14.5 -20.5 14.5 -34.5c0 -16 -4.83301 -28.667 -14.5 -38s-21.167 -14 -34.5 -14c-14.667 0 -27 4.66699 -37 14s-15 22 -15 38z" />
    <glyph glyph-name="Lslash" unicode="&#x141;" horiz-adv-x="560" 
d="M25 219v83l90 43v355h85v-314l176 86v-82l-176 -86v-224h345v-80h-430v263z" />
    <glyph glyph-name="lslash" unicode="&#x142;" horiz-adv-x="320" 
d="M15 222v83l77 37v358h80v-320l105 51v-82l-105 -51v-142c0 -30.667 4.16699 -53.167 12.5 -67.5s21.833 -21.5 40.5 -21.5c18 0 37 6.66699 57 20l18 -61c-28.667 -22.667 -64 -34 -106 -34c-68 0 -102 42.667 -102 128v139z" />
    <glyph glyph-name="Nacute" unicode="&#x143;" horiz-adv-x="795" 
d="M690 0h-68l-437 550v-550h-80v700h68l437 -552v552h80v-700zM563 819l-202 -84l-23 48l195 104z" />
    <glyph glyph-name="nacute" unicode="&#x144;" horiz-adv-x="549" 
d="M72 0l-0.000976562 450h80v-55c16.667 18 38.334 33 65.001 45s54 18 82 18c124.667 0 187 -66 187 -198v-260h-80v245c0 92 -42.333 138 -127 138c-50.667 0 -93 -19.333 -127 -58v-325h-80zM390.999 674l-120 -143l-48 34l106 157z" />
    <glyph glyph-name="Ncommaaccent" unicode="&#x145;" horiz-adv-x="795" 
d="M690 0h-68l-437 550v-550h-80v700h68l437 -552v552h80v-700zM346 -65l75 18.999c19.333 -4.66699 29 -21 29 -49c0 -29.333 -10 -53.333 -30 -72s-44.333 -31 -73 -37l-23 36c30.667 12 46 32.667 46 62c0 20.667 -8 34.334 -24 41.001z" />
    <glyph glyph-name="ncommaaccent" unicode="&#x146;" horiz-adv-x="549" 
d="M72 0l-0.000976562 450h80v-55c16.667 18 38.334 33 65.001 45s54 18 82 18c124.667 0 187 -66 187 -198v-260h-80v245c0 92 -42.333 138 -127 138c-50.667 0 -93 -19.333 -127 -58v-325h-80zM223.999 -65l75 18.999c19.333 -4.66699 29 -21 29 -49
c0 -29.333 -10 -53.333 -30 -72s-44.333 -31 -73 -37l-23 36c30.667 12 46 32.667 46 62c0 20.667 -8 34.334 -24 41.001z" />
    <glyph glyph-name="Ncaron" unicode="&#x147;" horiz-adv-x="795" 
d="M690 0h-68l-437 550v-550h-80v700h68l437 -552v552h80v-700zM397 738l-175 103l33 46l144 -81l143 81l30 -45l-171 -104h-4z" />
    <glyph glyph-name="ncaron" unicode="&#x148;" horiz-adv-x="549" 
d="M72 0l-0.000976562 450h80v-55c16.667 18 38.334 33 65.001 45s54 18 82 18c124.667 0 187 -66 187 -198v-260h-80v245c0 92 -42.333 138 -127 138c-50.667 0 -93 -19.333 -127 -58v-325h-80zM270.999 529l-140 133l39 48l104 -103l104 102l37 -47l-140 -133h-4z" />
    <glyph glyph-name="Omacron" unicode="&#x14c;" horiz-adv-x="814" 
d="M50 350c0 102 33.668 187.499 101.001 256.499s152.666 103.5 255.999 103.5c102.667 0 187.834 -33.667 255.501 -101s101.5 -153.666 101.5 -258.999c0 -103.333 -34 -189.166 -102 -257.499s-153 -102.5 -255 -102.5c-102.667 0 -187.834 33.667 -255.501 101
s-101.5 153.666 -101.5 258.999zM140.001 349.999c0 -79.333 25.667 -145.833 77 -199.5s114.666 -80.5 189.999 -80.5c78.667 0 142.834 26.667 192.501 80s74.5 120 74.5 200c0 80.667 -25.667 147.5 -77 200.5s-114.666 79.5 -189.999 79.5
c-76.667 0 -140.334 -26.333 -191.001 -79s-76 -119.667 -76 -201zM260.001 769.999v65h304v-65h-304z" />
    <glyph glyph-name="omacron" unicode="&#x14d;" horiz-adv-x="565" 
d="M42 225c0 68 22.167 124.167 66.5 168.5s102.166 66.5 173.499 66.5s129.166 -22.167 173.499 -66.5s66.5 -100.5 66.5 -168.5s-22.167 -124.167 -66.5 -168.5s-102.166 -66.5 -173.499 -66.5s-129.166 22.167 -173.499 66.5s-66.5 100.5 -66.5 168.5zM127 225
c0 -46.667 14.5 -85 43.5 -115s66.167 -45 111.5 -45s82.5 14.833 111.5 44.5s43.5 68.167 43.5 115.5c0 46.667 -14.5 85 -43.5 115s-66.167 45 -111.5 45c-44.667 0 -81.667 -14.833 -111 -44.5s-44 -68.167 -44 -115.5zM155 580v65h264v-65h-264z" />
    <glyph glyph-name="Ohungarumlaut" unicode="&#x150;" horiz-adv-x="814" 
d="M50 350c0 102 33.668 187.499 101.001 256.499s152.666 103.5 255.999 103.5c102.667 0 187.834 -33.667 255.501 -101s101.5 -153.666 101.5 -258.999c0 -103.333 -34 -189.166 -102 -257.499s-153 -102.5 -255 -102.5c-102.667 0 -187.834 33.667 -255.501 101
s-101.5 153.666 -101.5 258.999zM140.001 349.999c0 -79.333 25.667 -145.833 77 -199.5s114.666 -80.5 189.999 -80.5c78.667 0 142.834 26.667 192.501 80s74.5 120 74.5 200c0 80.667 -25.667 147.5 -77 200.5s-114.666 79.5 -189.999 79.5
c-76.667 0 -140.334 -26.333 -191.001 -79s-76 -119.667 -76 -201zM662.001 835.999l-179 -101l-33 35l157 117zM467.001 850.999l-161 -116l-34 32l128 120z" />
    <glyph glyph-name="ohungarumlaut" unicode="&#x151;" horiz-adv-x="565" 
d="M42 225c0 68 22.167 124.167 66.5 168.5s102.166 66.5 173.499 66.5s129.166 -22.167 173.499 -66.5s66.5 -100.5 66.5 -168.5s-22.167 -124.167 -66.5 -168.5s-102.166 -66.5 -173.499 -66.5s-129.166 22.167 -173.499 66.5s-66.5 100.5 -66.5 168.5zM127 225
c0 -46.667 14.5 -85 43.5 -115s66.167 -45 111.5 -45s82.5 14.833 111.5 44.5s43.5 68.167 43.5 115.5c0 46.667 -14.5 85 -43.5 115s-66.167 45 -111.5 45c-44.667 0 -81.667 -14.833 -111 -44.5s-44 -68.167 -44 -115.5zM485 671l-125 -140l-48 34l114 151zM318 680
l-113 -149l-48 34l103 158z" />
    <glyph glyph-name="OE" unicode="&#x152;" horiz-adv-x="1042" 
d="M572 0v28c-47.333 -25.333 -103 -38 -167 -38c-105.333 0 -190.833 32.833 -256.5 98.5s-98.5 152.834 -98.5 261.501c0 103.333 31.5 189.166 94.5 257.499s147.833 102.5 254.5 102.5c66 0 123.667 -13.333 173 -40v30h395v-80h-310v-226h280v-80h-280v-234h320v-80
h-405zM413 70c60 0 113.001 15.333 159.001 46v462c-46.667 34.667 -104 52 -172 52c-76 0 -138.333 -26 -187 -78s-73 -119.333 -73 -202c0 -83.333 25.167 -150.833 75.5 -202.5s116.166 -77.5 197.499 -77.5z" />
    <glyph glyph-name="oe" unicode="&#x153;" horiz-adv-x="837" 
d="M744 112l24.998 -63c-42 -39.333 -98 -59 -168 -59c-65.333 0 -119 17 -161 51c-42 -34 -94.667 -51 -158 -51c-71.333 0 -129.166 22.167 -173.499 66.5s-66.5 100.5 -66.5 168.5s22.167 124.167 66.5 168.5s102.166 66.5 173.499 66.5c62 0 114 -17.333 156 -52
c42 34.667 93.333 52 154 52c59.333 0 108.833 -19.167 148.5 -57.5s59.5 -87.833 59.5 -148.5c0 -20.667 -1.66699 -38.667 -5 -54h-345c2.66699 -42 18.334 -75 47.001 -99s65.334 -36 110.001 -36c58 0 103.667 15.667 137 47zM281.998 65c43.333 0 79 12.333 107 37
c-19.333 34.667 -29 75.667 -29 123c0 45.333 9.66699 86.333 29 123c-29.333 24.667 -65 37 -107 37c-44.667 0 -81.667 -14.833 -111 -44.5s-44 -68.167 -44 -115.5c0 -46.667 14.5 -85 43.5 -115s66.167 -45 111.5 -45zM586.998 385c-40 0 -72.5 -11.167 -97.5 -33.5
s-39.833 -51.166 -44.5 -86.499h273c-2.66699 37.333 -15.5 66.666 -38.5 87.999s-53.833 32 -92.5 32z" />
    <glyph glyph-name="Racute" unicode="&#x154;" horiz-adv-x="643" 
d="M190 0h-85.001v700c14.667 0 48.334 0.333008 101.001 1s81.667 1 87 1c166 0 249 -69.333 249 -208c0 -51.333 -14.833 -94.5 -44.5 -129.5s-65.5 -57.833 -107.5 -68.5l233 -296h-104l-215 280h-114v-280zM287.999 622c-21.333 0 -54.001 -0.666992 -98.001 -2v-260
h103c42.667 0 79.834 12.167 111.501 36.5s47.5 56.5 47.5 96.5c0 86 -54.667 129 -164 129zM432.998 819l-202 -84l-23 48l195 104z" />
    <glyph glyph-name="racute" unicode="&#x155;" horiz-adv-x="340" 
d="M72 0v450h80v-53c27.333 40.667 65 61 113 61c31.333 0 54.666 -5.66699 69.999 -17l-28 -75c-19.333 11.333 -39.666 17 -60.999 17c-40.667 0 -72 -21.333 -94 -64v-319h-80zM305 674l-120 -143l-48 34l106 157z" />
    <glyph glyph-name="Rcommaaccent" unicode="&#x156;" horiz-adv-x="643" 
d="M190 0h-85.001v700c14.667 0 48.334 0.333008 101.001 1s81.667 1 87 1c166 0 249 -69.333 249 -208c0 -51.333 -14.833 -94.5 -44.5 -129.5s-65.5 -57.833 -107.5 -68.5l233 -296h-104l-215 280h-114v-280zM287.999 622c-21.333 0 -54.001 -0.666992 -98.001 -2v-260
h103c42.667 0 79.834 12.167 111.501 36.5s47.5 56.5 47.5 96.5c0 86 -54.667 129 -164 129zM265.998 -65l75 18.999c19.333 -4.66699 29 -21 29 -49c0 -29.333 -10 -53.333 -30 -72s-44.333 -31 -73 -37l-23 36c30.667 12 46 32.667 46 62c0 20.667 -8 34.334 -24 41.001z
" />
    <glyph glyph-name="rcommaaccent" unicode="&#x157;" horiz-adv-x="340" 
d="M72 0v450h80v-53c27.333 40.667 65 61 113 61c31.333 0 54.666 -5.66699 69.999 -17l-28 -75c-19.333 11.333 -39.666 17 -60.999 17c-40.667 0 -72 -21.333 -94 -64v-319h-80zM109 -65l75 18.999c19.333 -4.66699 29 -21 29 -49c0 -29.333 -10 -53.333 -30 -72
s-44.333 -31 -73 -37l-23 36c30.667 12 46 32.667 46 62c0 20.667 -8 34.334 -24 41.001z" />
    <glyph glyph-name="Rcaron" unicode="&#x158;" horiz-adv-x="643" 
d="M190 0h-85.001v700c14.667 0 48.334 0.333008 101.001 1s81.667 1 87 1c166 0 249 -69.333 249 -208c0 -51.333 -14.833 -94.5 -44.5 -129.5s-65.5 -57.833 -107.5 -68.5l233 -296h-104l-215 280h-114v-280zM287.999 622c-21.333 0 -54.001 -0.666992 -98.001 -2v-260
h103c42.667 0 79.834 12.167 111.501 36.5s47.5 56.5 47.5 96.5c0 86 -54.667 129 -164 129zM289.998 738l-175 103l33 46l144 -81l143 81l30 -45l-171 -104h-4z" />
    <glyph glyph-name="rcaron" unicode="&#x159;" horiz-adv-x="340" 
d="M72 0v450h80v-53c27.333 40.667 65 61 113 61c31.333 0 54.666 -5.66699 69.999 -17l-28 -75c-19.333 11.333 -39.666 17 -60.999 17c-40.667 0 -72 -21.333 -94 -64v-319h-80zM191 529l-140 133l39 48l104 -103l104 102l37 -47l-140 -133h-4z" />
    <glyph glyph-name="Sacute" unicode="&#x15a;" horiz-adv-x="549" 
d="M409 179c0 23.333 -6.33008 43.665 -18.9971 60.998s-29 31.5 -49 42.5s-42.167 21.5 -66.5 31.5s-48.666 20.833 -72.999 32.5s-46.5 24.834 -66.5 39.501s-36.333 34 -49 58s-19 51.667 -19 83c0 52 19 95.5 57 130.5s89.333 52.5 154 52.5
c40 0 77.167 -6.66699 111.5 -20s61.5 -31 81.5 -53l-46 -64c-38 38 -85.333 57 -142 57c-38.667 0 -69.334 -9.33301 -92.001 -28s-34 -43.667 -34 -75c0 -23.333 6.33301 -43.666 19 -60.999s29 -31.333 49 -42s42.167 -20.834 66.5 -30.501s48.666 -20.167 72.999 -31.5
s46.5 -24.166 66.5 -38.499s36.333 -33.833 49 -58.5s19 -53 19 -85c0 -56.667 -21.833 -102.5 -65.5 -137.5s-97.834 -52.5 -162.501 -52.5c-45.333 0 -89.333 9.5 -132 28.5s-72.334 44.5 -89.001 76.5l49 58c20 -26 46 -46.333 78 -61s63.667 -22 95 -22
c38.667 0 71.167 9.66699 97.5 29s39.5 46 39.5 80zM441.003 818.999l-202 -84l-23 48l195 104z" />
    <glyph glyph-name="sacute" unicode="&#x15b;" horiz-adv-x="430" 
d="M300 122c0 16.667 -8.33398 30.166 -25.001 40.499s-36.834 19 -60.501 26s-47.5 15.167 -71.5 24.5s-44.333 24 -61 44s-25 45.333 -25 76c0 38.667 14.167 69.5 42.5 92.5s65.166 34.5 110.499 34.5c66.667 0 118.334 -17.667 155.001 -53l-38 -61
c-32.667 29.333 -70.334 44 -113.001 44c-22 0 -39.5 -5.5 -52.5 -16.5s-19.5 -24.167 -19.5 -39.5c0 -17.333 8.33301 -31.5 25 -42.5s36.834 -20 60.501 -27s47.5 -15 71.5 -24s44.333 -23 61 -42s25 -43.167 25 -72.5c0 -44.667 -16.667 -78.5 -50 -101.5
s-74.666 -34.5 -123.999 -34.5c-34.667 0 -68.167 7.33301 -100.5 22s-54.166 30.667 -65.499 48l45 57c13.333 -15.333 32.833 -28.666 58.5 -39.999s49.5 -17 71.5 -17c22.667 0 41.667 5.5 57 16.5s23 26.167 23 45.5zM325.999 673.999l-120 -143l-48 34l106 157z" />
    <glyph glyph-name="Scircumflex" unicode="&#x15c;" horiz-adv-x="549" 
d="M409 179c0 23.333 -6.33008 43.665 -18.9971 60.998s-29 31.5 -49 42.5s-42.167 21.5 -66.5 31.5s-48.666 20.833 -72.999 32.5s-46.5 24.834 -66.5 39.501s-36.333 34 -49 58s-19 51.667 -19 83c0 52 19 95.5 57 130.5s89.333 52.5 154 52.5
c40 0 77.167 -6.66699 111.5 -20s61.5 -31 81.5 -53l-46 -64c-38 38 -85.333 57 -142 57c-38.667 0 -69.334 -9.33301 -92.001 -28s-34 -43.667 -34 -75c0 -23.333 6.33301 -43.666 19 -60.999s29 -31.333 49 -42s42.167 -20.834 66.5 -30.501s48.666 -20.167 72.999 -31.5
s46.5 -24.166 66.5 -38.499s36.333 -33.833 49 -58.5s19 -53 19 -85c0 -56.667 -21.833 -102.5 -65.5 -137.5s-97.834 -52.5 -162.501 -52.5c-45.333 0 -89.333 9.5 -132 28.5s-72.334 44.5 -89.001 76.5l49 58c20 -26 46 -46.333 78 -61s63.667 -22 95 -22
c38.667 0 71.167 9.66699 97.5 29s39.5 46 39.5 80zM99.0029 777.999l171 104h4l174 -103l-33 -46l-143 76l-144 -76z" />
    <glyph glyph-name="scircumflex" unicode="&#x15d;" horiz-adv-x="430" 
d="M300 122c0 16.667 -8.33398 30.166 -25.001 40.499s-36.834 19 -60.501 26s-47.5 15.167 -71.5 24.5s-44.333 24 -61 44s-25 45.333 -25 76c0 38.667 14.167 69.5 42.5 92.5s65.166 34.5 110.499 34.5c66.667 0 118.334 -17.667 155.001 -53l-38 -61
c-32.667 29.333 -70.334 44 -113.001 44c-22 0 -39.5 -5.5 -52.5 -16.5s-19.5 -24.167 -19.5 -39.5c0 -17.333 8.33301 -31.5 25 -42.5s36.834 -20 60.501 -27s47.5 -15 71.5 -24s44.333 -23 61 -42s25 -43.167 25 -72.5c0 -44.667 -16.667 -78.5 -50 -101.5
s-74.666 -34.5 -123.999 -34.5c-34.667 0 -68.167 7.33301 -100.5 22s-54.166 30.667 -65.499 48l45 57c13.333 -15.333 32.833 -28.666 58.5 -39.999s49.5 -17 71.5 -17c22.667 0 41.667 5.5 57 16.5s23 26.167 23 45.5zM218.999 706.999l139 -133l-38 -48l-104 91
l-104 -90l-38 47l141 133h4z" />
    <glyph glyph-name="Scedilla" unicode="&#x15e;" horiz-adv-x="549" 
d="M152 -169l26.001 41.999c26.667 -18.667 51.334 -28 74.001 -28c16.667 0 30.167 3.16699 40.5 9.5s15.5 15.166 15.5 26.499c0 26 -19.333 39 -58 39h-6v71c-41.333 4 -80.333 15.167 -117 33.5s-62.334 41.833 -77.001 70.5l49 58c20 -26 46 -46.333 78 -61
s63.667 -22 95 -22c38.667 0 71.167 9.66699 97.5 29s39.5 46 39.5 80c0 23.333 -6.33301 43.666 -19 60.999s-29 31.5 -49 42.5s-42.167 21.5 -66.5 31.5s-48.666 20.833 -72.999 32.5s-46.5 24.834 -66.5 39.501s-36.333 34 -49 58s-19 51.667 -19 83
c0 52 19 95.5 57 130.5s89.333 52.5 154 52.5c40 0 77.167 -6.66699 111.5 -20s61.5 -31 81.5 -53l-46 -64c-38 38 -85.333 57 -142 57c-38.667 0 -69.334 -9.33301 -92.001 -28s-34 -43.667 -34 -75c0 -23.333 6.33301 -43.666 19 -60.999s29 -31.333 49 -42
s42.167 -20.834 66.5 -30.501s48.666 -20.167 72.999 -31.5s46.5 -24.166 66.5 -38.499s36.333 -33.833 49 -58.5s19 -53 19 -85c0 -54 -20.167 -98.167 -60.5 -132.5s-90.833 -53.166 -151.5 -56.499v-34c70.667 -4 106 -30.667 106 -80c0 -24.667 -11 -44.5 -33 -59.5
s-52 -22.5 -90 -22.5c-42.667 0 -82 12 -118 36z" />
    <glyph glyph-name="scedilla" unicode="&#x15f;" horiz-adv-x="430" 
d="M94 -171l24 39c23.333 -15.333 47 -23 71 -23c16.667 0 30.167 3.16699 40.5 9.5s15.5 15.166 15.5 26.499c0 26 -19.333 39 -58 39h-6v72c-30 4 -57.833 12.667 -83.5 26s-43.167 27.333 -52.5 42l45 57c13.333 -15.333 32.833 -28.666 58.5 -39.999s49.5 -17 71.5 -17
c22.667 0 41.667 5.5 57 16.5s23 26.167 23 45.5c0 16.667 -8.33301 30.167 -25 40.5s-36.834 19 -60.501 26s-47.5 15.167 -71.5 24.5s-44.333 24 -61 44s-25 45.333 -25 76c0 38.667 14.167 69.5 42.5 92.5s65.166 34.5 110.499 34.5
c66.667 0 118.334 -17.667 155.001 -53l-38 -61c-32.667 29.333 -70.334 44 -113.001 44c-22 0 -39.5 -5.5 -52.5 -16.5s-19.5 -24.167 -19.5 -39.5c0 -17.333 8.33301 -31.5 25 -42.5s36.834 -20 60.501 -27s47.5 -15 71.5 -24s44.333 -23 61 -42s25 -43.167 25 -72.5
c0 -42.667 -15.333 -75.5 -46 -98.5s-69 -35.5 -115 -37.5v-33c67.333 -4 101 -30.667 101 -80c0 -24.667 -11.167 -44.5 -33.5 -59.5s-53.166 -22.5 -92.499 -22.5c-36 0 -71 11.333 -105 34z" />
    <glyph glyph-name="Scaron" unicode="&#x160;" horiz-adv-x="549" 
d="M409 179c0 23.333 -6.33008 43.665 -18.9971 60.998s-29 31.5 -49 42.5s-42.167 21.5 -66.5 31.5s-48.666 20.833 -72.999 32.5s-46.5 24.834 -66.5 39.501s-36.333 34 -49 58s-19 51.667 -19 83c0 52 19 95.5 57 130.5s89.333 52.5 154 52.5
c40 0 77.167 -6.66699 111.5 -20s61.5 -31 81.5 -53l-46 -64c-38 38 -85.333 57 -142 57c-38.667 0 -69.334 -9.33301 -92.001 -28s-34 -43.667 -34 -75c0 -23.333 6.33301 -43.666 19 -60.999s29 -31.333 49 -42s42.167 -20.834 66.5 -30.501s48.666 -20.167 72.999 -31.5
s46.5 -24.166 66.5 -38.499s36.333 -33.833 49 -58.5s19 -53 19 -85c0 -56.667 -21.833 -102.5 -65.5 -137.5s-97.834 -52.5 -162.501 -52.5c-45.333 0 -89.333 9.5 -132 28.5s-72.334 44.5 -89.001 76.5l49 58c20 -26 46 -46.333 78 -61s63.667 -22 95 -22
c38.667 0 71.167 9.66699 97.5 29s39.5 46 39.5 80zM278.003 737.999l-175 103l33 46l144 -81l143 81l30 -45l-171 -104h-4z" />
    <glyph glyph-name="scaron" unicode="&#x161;" horiz-adv-x="430" 
d="M300 122c0 16.667 -8.33398 30.166 -25.001 40.499s-36.834 19 -60.501 26s-47.5 15.167 -71.5 24.5s-44.333 24 -61 44s-25 45.333 -25 76c0 38.667 14.167 69.5 42.5 92.5s65.166 34.5 110.499 34.5c66.667 0 118.334 -17.667 155.001 -53l-38 -61
c-32.667 29.333 -70.334 44 -113.001 44c-22 0 -39.5 -5.5 -52.5 -16.5s-19.5 -24.167 -19.5 -39.5c0 -17.333 8.33301 -31.5 25 -42.5s36.834 -20 60.501 -27s47.5 -15 71.5 -24s44.333 -23 61 -42s25 -43.167 25 -72.5c0 -44.667 -16.667 -78.5 -50 -101.5
s-74.666 -34.5 -123.999 -34.5c-34.667 0 -68.167 7.33301 -100.5 22s-54.166 30.667 -65.499 48l45 57c13.333 -15.333 32.833 -28.666 58.5 -39.999s49.5 -17 71.5 -17c22.667 0 41.667 5.5 57 16.5s23 26.167 23 45.5zM211.999 528.999l-140 133l39 48l104 -103l104 102
l37 -47l-140 -133h-4z" />
    <glyph glyph-name="Tcedilla" unicode="&#x162;" horiz-adv-x="595" 
d="M184 -169l25.999 42.001c26.667 -18.667 51.334 -28 74.001 -28c16.667 0 30.167 3.16699 40.5 9.5s15.5 15.166 15.5 26.499c0 26 -19.333 39 -58 39h-6v80h-21v620h-245v80h575v-80h-245v-620h-21v-43c70.667 -4 106 -30.667 106 -80c0 -24.667 -11 -44.5 -33 -59.5
s-52 -22.5 -90 -22.5c-42.667 0 -82 12 -118 36z" />
    <glyph glyph-name="tcedilla" unicode="&#x163;" horiz-adv-x="353" 
d="M67 -171l23.999 39.001c23.333 -15.333 47 -23 71 -23c16.667 0 30.167 3.16699 40.5 9.5s15.5 15.166 15.5 26.499c0 26 -19.333 39 -58 39h-6v79c-61.333 16.667 -92 74 -92 172v404h80v-125h165v-75h-165v-196c0 -74.667 26.667 -112 80 -112
c25.333 0 49 8.33301 71 25l25 -62c-30.667 -25.333 -69 -38 -115 -38h-6v-35c67.333 -4 101 -30.667 101 -80c0 -24.667 -11.167 -44.5 -33.5 -59.5s-53.166 -22.5 -92.499 -22.5c-36 0 -71 11.333 -105 34z" />
    <glyph glyph-name="Tcaron" unicode="&#x164;" horiz-adv-x="595" 
d="M10 620v80h575v-80h-245v-620h-85v620h-245zM294 738l-175 103l33 46l144 -81l143 81l30 -45l-171 -104h-4z" />
    <glyph glyph-name="tcaron" unicode="&#x165;" horiz-adv-x="353" 
d="M62 171l-0.000976562 404h80v-125h165v-75h-165v-196c0 -74.667 26.667 -112 80 -112c25.333 0 49 8.33301 71 25l25 -62c-30.667 -25.333 -69 -38 -115 -38c-49.333 0 -85.166 15 -107.499 45s-33.5 74.667 -33.5 134zM245.999 700l78 0.000976562
c5.33301 -10.667 8 -23.334 8 -38.001c0 -37.333 -8.33301 -69 -25 -95s-37 -45.333 -61 -58l-36 35c31.333 26.667 47 63 47 109c0 18 -3.66699 33.667 -11 47z" />
    <glyph glyph-name="Umacron" unicode="&#x16a;" horiz-adv-x="751" 
d="M656 700l-0.000976562 -408c0 -100.667 -25.667 -176 -77 -226s-116 -75 -194 -75c-87.333 0 -157.5 26.5 -210.5 79.5s-79.5 129.167 -79.5 228.5v401h85v-385c0 -76.667 17.833 -136.5 53.5 -179.5s86.167 -64.5 151.5 -64.5c58.667 0 104.334 20.167 137.001 60.5
s49 99.5 49 177.5v391h85zM227.999 770v65h304v-65h-304z" />
    <glyph glyph-name="umacron" unicode="&#x16b;" horiz-adv-x="540" 
d="M467 450v-450h-80v64c-17.333 -20.667 -39.833 -38.167 -67.5 -52.5s-58.167 -21.5 -91.5 -21.5c-52 0 -92.667 16 -122 48s-44 80 -44 144v268h80v-250c0 -90 38.667 -135 116 -135c24.667 0 48.667 6.33301 72 19s42.333 28.667 57 48v318h80zM135 580v65h264v-65h-264
z" />
    <glyph glyph-name="Ubreve" unicode="&#x16c;" horiz-adv-x="751" 
d="M656 700l-0.000976562 -408c0 -100.667 -25.667 -176 -77 -226s-116 -75 -194 -75c-87.333 0 -157.5 26.5 -210.5 79.5s-79.5 129.167 -79.5 228.5v401h85v-385c0 -76.667 17.833 -136.5 53.5 -179.5s86.167 -64.5 151.5 -64.5c58.667 0 104.334 20.167 137.001 60.5
s49 99.5 49 177.5v391h85zM197.999 838l36 42.001c38.667 -43.333 86.334 -65 143.001 -65s103.334 21.667 140.001 65l31 -42c-16.667 -26 -40.334 -48 -71.001 -66s-64 -27 -100 -27c-40.667 0 -76.834 9.66699 -108.501 29s-55.167 40.666 -70.5 63.999z" />
    <glyph glyph-name="ubreve" unicode="&#x16d;" horiz-adv-x="540" 
d="M467 450v-450h-80v64c-17.333 -20.667 -39.833 -38.167 -67.5 -52.5s-58.167 -21.5 -91.5 -21.5c-52 0 -92.667 16 -122 48s-44 80 -44 144v268h80v-250c0 -90 38.667 -135 116 -135c24.667 0 48.667 6.33301 72 19s42.333 28.667 57 48v318h80zM119 640l37.001 41
c34 -40.667 72 -61 114 -61c43.333 0 81.666 20 114.999 60l29 -39c-41.333 -57.333 -90.333 -86 -147 -86c-62 0 -111.333 28.333 -148 85z" />
    <glyph glyph-name="Uring" unicode="&#x16e;" horiz-adv-x="751" 
d="M656 700l-0.000976562 -408c0 -100.667 -25.667 -176 -77 -226s-116 -75 -194 -75c-87.333 0 -157.5 26.5 -210.5 79.5s-79.5 129.167 -79.5 228.5v401h85v-385c0 -76.667 17.833 -136.5 53.5 -179.5s86.167 -64.5 151.5 -64.5c58.667 0 104.334 20.167 137.001 60.5
s49 99.5 49 177.5v391h85zM250.999 792c0 32 11.502 56 34.502 72s52.833 24 89.5 24c37.333 0 67.666 -8 90.999 -24s35 -40 35 -72s-11.833 -56.667 -35.5 -74s-53.834 -26 -90.501 -26c-36 0 -65.667 8.66699 -89 26s-35 42 -35 74zM311.001 792c0 -18 6 -31.667 18 -41
s27.667 -14 47 -14c18.667 0 34.167 4.66699 46.5 14s18.5 23 18.5 41c0 34 -21.667 51 -65 51s-65 -17 -65 -51z" />
    <glyph glyph-name="uring" unicode="&#x16f;" horiz-adv-x="540" 
d="M467 450v-450h-80v64c-17.333 -20.667 -39.833 -38.167 -67.5 -52.5s-58.167 -21.5 -91.5 -21.5c-52 0 -92.667 16 -122 48s-44 80 -44 144v268h80v-250c0 -90 38.667 -135 116 -135c24.667 0 48.667 6.33301 72 19s42.333 28.667 57 48v318h80zM152 613
c0 30.667 11 56.834 33 78.501s49 32.5 81 32.5c32.667 0 60.167 -10.833 82.5 -32.5s33.5 -47.834 33.5 -78.501s-11.167 -56.667 -33.5 -78s-49.833 -32 -82.5 -32c-32 0 -59 10.667 -81 32s-33 47.333 -33 78zM204 614c0 -18.667 6 -34.334 18 -47.001s27 -19 45 -19
s33 6.33301 45 19s18 28.334 18 47.001c0 18 -6 33.333 -18 46s-27 19 -45 19s-33 -6.33301 -45 -19s-18 -28 -18 -46z" />
    <glyph glyph-name="Uhungarumlaut" unicode="&#x170;" horiz-adv-x="751" 
d="M656 700l-0.000976562 -408c0 -100.667 -25.667 -176 -77 -226s-116 -75 -194 -75c-87.333 0 -157.5 26.5 -210.5 79.5s-79.5 129.167 -79.5 228.5v401h85v-385c0 -76.667 17.833 -136.5 53.5 -179.5s86.167 -64.5 151.5 -64.5c58.667 0 104.334 20.167 137.001 60.5
s49 99.5 49 177.5v391h85zM616.999 836l-179 -101l-33 35l157 117zM421.999 851l-161 -116l-34 32l128 120z" />
    <glyph glyph-name="uhungarumlaut" unicode="&#x171;" horiz-adv-x="540" 
d="M467 450v-450h-80v64c-17.333 -20.667 -39.833 -38.167 -67.5 -52.5s-58.167 -21.5 -91.5 -21.5c-52 0 -92.667 16 -122 48s-44 80 -44 144v268h80v-250c0 -90 38.667 -135 116 -135c24.667 0 48.667 6.33301 72 19s42.333 28.667 57 48v318h80zM470 671l-125 -140
l-48 34l114 151zM303 680l-113 -149l-48 34l103 158z" />
    <glyph glyph-name="Uogonek" unicode="&#x172;" horiz-adv-x="751" 
d="M656 700l-0.00292969 -408c0 -83.333 -18 -149.333 -54 -198s-83.333 -80 -142 -94c-50.667 -24 -76 -51.333 -76 -82c0 -18.667 6.33301 -32.167 19 -40.5s26.334 -12.5 41.001 -12.5c16.667 0 31.334 3 44.001 9l24 -49c-20 -16.667 -48.667 -25 -86 -25
c-33.333 0 -62 7.33301 -86 22s-36 38 -36 70c0 40.667 26.667 73.667 80 99c-86.667 0 -156.5 26.5 -209.5 79.5s-79.5 129.167 -79.5 228.5v401h85v-385c0 -76.667 17.833 -136.5 53.5 -179.5s86.167 -64.5 151.5 -64.5c58.667 0 104.334 20.167 137.001 60.5
s49 99.5 49 177.5v391h85z" />
    <glyph glyph-name="uogonek" unicode="&#x173;" horiz-adv-x="540" 
d="M452 -126l23.999 -49.001c-20 -16.667 -48.667 -25 -86 -25c-33.333 0 -62 7.33301 -86 22s-36 38 -36 70c0 28 11.167 51.833 33.5 71.5s50.833 33.834 85.5 42.501v58c-17.333 -20.667 -39.833 -38.167 -67.5 -52.5s-58.167 -21.5 -91.5 -21.5
c-52 0 -92.667 16 -122 48s-44 80 -44 144v268h80v-250c0 -90 38.667 -135 116 -135c24.667 0 48.667 6.33301 72 19s42.333 28.667 57 48v318h80v-450h-5c-30.667 -1.33301 -57.334 -9.83301 -80.001 -25.5s-34 -34.5 -34 -56.5c0 -18.667 6.33301 -32.167 19 -40.5
s26.334 -12.5 41.001 -12.5c16.667 0 31.334 3 44.001 9z" />
    <glyph glyph-name="Ydieresis" unicode="&#x178;" horiz-adv-x="604" 
d="M594 700l-251 -400v-300h-85v300l-248 400h98l196 -320l197 320h93zM132 813c0 13.333 5.33301 24.166 16 32.499s23.667 12.5 39 12.5c14 0 26.167 -4.16699 36.5 -12.5s15.5 -19.166 15.5 -32.499c0 -14.667 -5.16699 -26.334 -15.5 -35.001s-22.5 -13 -36.5 -13
c-16 0 -29.167 4.33301 -39.5 13s-15.5 20.334 -15.5 35.001zM364 813c0 13.333 5.5 24.167 16.5 32.5s24.167 12.5 39.5 12.5c14 0 26 -4 36 -12s15 -19 15 -33c0 -14.667 -5 -26.334 -15 -35.001s-22 -13 -36 -13c-16 0 -29.333 4.33301 -40 13s-16 20.334 -16 35.001z
" />
    <glyph glyph-name="Zacute" unicode="&#x179;" horiz-adv-x="635" 
d="M60 620v80h525v-57l-430 -563h440v-80h-555v57l428 563h-408zM478 819l-202 -84l-23 48l195 104z" />
    <glyph glyph-name="zacute" unicode="&#x17a;" horiz-adv-x="485" 
d="M60 375v75h380v-56l-282 -319h277v-75h-390v56l281 319h-266zM359 674l-120 -143l-48 34l106 157z" />
    <glyph glyph-name="Zdotaccent" unicode="&#x17b;" horiz-adv-x="635" 
d="M60 620v80h525v-57l-430 -563h440v-80h-555v57l428 563h-408zM260 817c0 15.333 5.5 27.666 16.5 36.999s24.5 14 40.5 14c14.667 0 27.334 -4.66699 38.001 -14s16 -21.666 16 -36.999c0 -16.667 -5.33301 -29.834 -16 -39.501s-23.334 -14.5 -38.001 -14.5
c-16 0 -29.5 4.83301 -40.5 14.5s-16.5 22.834 -16.5 39.501z" />
    <glyph glyph-name="zdotaccent" unicode="&#x17c;" horiz-adv-x="485" 
d="M60 375v75h380v-56l-282 -319h277v-75h-390v56l281 319h-266zM189 619c0 14 5 25.5 15 34.5s22.333 13.5 37 13.5c13.333 0 24.833 -4.5 34.5 -13.5s14.5 -20.5 14.5 -34.5c0 -16 -4.83301 -28.667 -14.5 -38s-21.167 -14 -34.5 -14c-14.667 0 -27 4.66699 -37 14
s-15 22 -15 38z" />
    <glyph glyph-name="Zcaron" unicode="&#x17d;" horiz-adv-x="635" 
d="M60 620v80h525v-57l-430 -563h440v-80h-555v57l428 563h-408zM320 738l-175 103l33 46l144 -81l143 81l30 -45l-171 -104h-4z" />
    <glyph glyph-name="zcaron" unicode="&#x17e;" horiz-adv-x="485" 
d="M60 375v75h380v-56l-282 -319h277v-75h-390v56l281 319h-266zM245 529l-140 133l39 48l104 -103l104 102l37 -47l-140 -133h-4z" />
    <glyph glyph-name="longs" unicode="&#x17f;" horiz-adv-x="255" 
d="M82 0v523c0 62 13.667 108.667 41 140s66.333 47 117 47c52 0 92 -13.333 120 -40l-28 -61c-20.667 17.333 -47 26 -79 26c-60.667 0 -91 -40.333 -91 -121v-514h-80z" />
    <glyph glyph-name="uni018F" unicode="&#x18f;" horiz-adv-x="779" 
d="M48 397h589c-8.66699 72.667 -37.834 129.667 -87.501 171s-113.167 62 -190.5 62c-69.333 0 -128.333 -19 -177 -57l-34 64c56.667 48.667 133.334 73 230.001 73c105.333 0 190.166 -32.5 254.499 -97.5s96.5 -151.833 96.5 -260.5
c0 -107.333 -31.5 -194.5 -94.5 -261.5s-147.167 -100.5 -252.5 -100.5c-106.667 0 -191.167 37.5 -253.5 112.5s-89.166 173.167 -80.499 294.5zM381 70c74 0 133.833 22.333 179.5 67s72.167 104.667 79.5 180h-504c3.33301 -70 27 -128.667 71 -176s102 -71 174 -71z" />
    <glyph glyph-name="florin" unicode="&#x192;" 
d="M377 514l-12.002 -64h144v-75h-157l-72 -408c-10.667 -59.333 -27.667 -103.333 -51 -132s-58.666 -43 -105.999 -43c-43.333 0 -76.666 9.66699 -99.999 29l22 64c19.333 -12 39 -18 59 -18c28 0 49.5 9 64.5 27s25.5 45 31.5 81l71 400h-139v75h152l13 73
c12 65.333 31 112.833 57 142.5s63.333 44.5 112 44.5c52.667 0 93 -13.333 121 -40l-28 -61c-20.667 17.333 -47 26 -79 26c-28.667 0 -51 -9.5 -67 -28.5s-28 -49.833 -36 -92.5z" />
    <glyph glyph-name="uni01DD" unicode="&#x1dd;" horiz-adv-x="520" 
d="M98 338l-25.001 62.001c21.333 19.333 47.833 34.166 79.5 44.499s63.167 15.5 94.5 15.5c72 0 128.5 -21.167 169.5 -63.5s61.5 -99.5 61.5 -171.5c0 -68 -20.5 -124.167 -61.5 -168.5s-96.833 -66.5 -167.5 -66.5c-60.667 0 -111.167 19 -151.5 57
s-60.5 87.667 -60.5 149c0 24 1.66699 43.667 5 59h346c-2 38 -16.167 69.167 -42.5 93.5s-61.166 36.5 -104.499 36.5c-28.667 0 -56 -4.33301 -82 -13s-46.333 -20 -61 -34zM252.999 65.001c38.667 0 70.834 11.667 96.501 35s40.167 53.333 43.5 90h-273
c1.33301 -40 13.666 -70.833 36.999 -92.5s55.333 -32.5 96 -32.5z" />
    <glyph glyph-name="Scommaaccent" unicode="&#x218;" horiz-adv-x="549" 
d="M409 179c0 23.333 -6.33008 43.665 -18.9971 60.998s-29 31.5 -49 42.5s-42.167 21.5 -66.5 31.5s-48.666 20.833 -72.999 32.5s-46.5 24.834 -66.5 39.501s-36.333 34 -49 58s-19 51.667 -19 83c0 52 19 95.5 57 130.5s89.333 52.5 154 52.5
c40 0 77.167 -6.66699 111.5 -20s61.5 -31 81.5 -53l-46 -64c-38 38 -85.333 57 -142 57c-38.667 0 -69.334 -9.33301 -92.001 -28s-34 -43.667 -34 -75c0 -23.333 6.33301 -43.666 19 -60.999s29 -31.333 49 -42s42.167 -20.834 66.5 -30.501s48.666 -20.167 72.999 -31.5
s46.5 -24.166 66.5 -38.499s36.333 -33.833 49 -58.5s19 -53 19 -85c0 -56.667 -21.833 -102.5 -65.5 -137.5s-97.834 -52.5 -162.501 -52.5c-45.333 0 -89.333 9.5 -132 28.5s-72.334 44.5 -89.001 76.5l49 58c20 -26 46 -46.333 78 -61s63.667 -22 95 -22
c38.667 0 71.167 9.66699 97.5 29s39.5 46 39.5 80zM229.003 -65.001l75 18.999c19.333 -4.66699 29 -21 29 -49c0 -29.333 -10 -53.333 -30 -72s-44.333 -31 -73 -37l-23 36c30.667 12 46 32.667 46 62c0 20.667 -8 34.334 -24 41.001z" />
    <glyph glyph-name="scommaaccent" unicode="&#x219;" horiz-adv-x="430" 
d="M300 122c0 16.667 -8.33398 30.166 -25.001 40.499s-36.834 19 -60.501 26s-47.5 15.167 -71.5 24.5s-44.333 24 -61 44s-25 45.333 -25 76c0 38.667 14.167 69.5 42.5 92.5s65.166 34.5 110.499 34.5c66.667 0 118.334 -17.667 155.001 -53l-38 -61
c-32.667 29.333 -70.334 44 -113.001 44c-22 0 -39.5 -5.5 -52.5 -16.5s-19.5 -24.167 -19.5 -39.5c0 -17.333 8.33301 -31.5 25 -42.5s36.834 -20 60.501 -27s47.5 -15 71.5 -24s44.333 -23 61 -42s25 -43.167 25 -72.5c0 -44.667 -16.667 -78.5 -50 -101.5
s-74.666 -34.5 -123.999 -34.5c-34.667 0 -68.167 7.33301 -100.5 22s-54.166 30.667 -65.499 48l45 57c13.333 -15.333 32.833 -28.666 58.5 -39.999s49.5 -17 71.5 -17c22.667 0 41.667 5.5 57 16.5s23 26.167 23 45.5zM169.999 -65.001l75 18.999
c19.333 -4.66699 29 -21 29 -49c0 -29.333 -10 -53.333 -30 -72s-44.333 -31 -73 -37l-23 36c30.667 12 46 32.667 46 62c0 20.667 -8 34.334 -24 41.001z" />
    <glyph glyph-name="Tcommaaccent" unicode="&#x21a;" horiz-adv-x="595" 
d="M10 620v80h575v-80h-245v-620h-85v620h-245zM246 -65l75 18.999c19.333 -4.66699 29 -21 29 -49c0 -29.333 -10 -53.333 -30 -72s-44.333 -31 -73 -37l-23 36c30.667 12 46 32.667 46 62c0 20.667 -8 34.334 -24 41.001z" />
    <glyph glyph-name="tcommaaccent" unicode="&#x21b;" horiz-adv-x="353" 
d="M62 171l-0.000976562 404h80v-125h165v-75h-165v-196c0 -74.667 26.667 -112 80 -112c25.333 0 49 8.33301 71 25l25 -62c-30.667 -25.333 -69 -38 -115 -38c-49.333 0 -85.166 15 -107.499 45s-33.5 74.667 -33.5 134zM132.999 -65l75 18.999
c19.333 -4.66699 29 -21 29 -49c0 -29.333 -10 -53.333 -30 -72s-44.333 -31 -73 -37l-23 36c30.667 12 46 32.667 46 62c0 20.667 -8 34.334 -24 41.001z" />
    <glyph glyph-name="uni0237" unicode="&#x237;" horiz-adv-x="266" 
d="M178 450v-483c0 -116.667 -47 -175 -141 -175c-42 0 -75.333 9.66699 -100 29l23 64c19.333 -12 39 -18 59 -18c52.667 0 79 35.333 79 106v477h80z" />
    <glyph glyph-name="uni0259" unicode="&#x259;" horiz-adv-x="520" 
d="M98 338l-25.001 62.001c21.333 19.333 47.833 34.166 79.5 44.499s63.167 15.5 94.5 15.5c72 0 128.5 -21.167 169.5 -63.5s61.5 -99.5 61.5 -171.5c0 -68 -20.5 -124.167 -61.5 -168.5s-96.833 -66.5 -167.5 -66.5c-60.667 0 -111.167 19 -151.5 57
s-60.5 87.667 -60.5 149c0 24 1.66699 43.667 5 59h346c-2 38 -16.167 69.167 -42.5 93.5s-61.166 36.5 -104.499 36.5c-28.667 0 -56 -4.33301 -82 -13s-46.333 -20 -61 -34zM252.999 65.001c38.667 0 70.834 11.667 96.501 35s40.167 53.333 43.5 90h-273
c1.33301 -40 13.666 -70.833 36.999 -92.5s55.333 -32.5 96 -32.5z" />
    <glyph glyph-name="afii57929" unicode="&#x2bc;" horiz-adv-x="242" 
d="M86 630l67 40c19.333 -20.667 29 -48 29 -82c0 -67.333 -28.333 -117 -85 -149l-37 35c31.333 22 47 54.333 47 97c0 25.333 -7 45 -21 59z" />
    <glyph glyph-name="circumflex" unicode="&#x2c6;" horiz-adv-x="404" 
d="M205 707l139 -133l-38 -48l-104 91l-104 -90l-38 47l141 133h4z" />
    <glyph glyph-name="caron" unicode="&#x2c7;" horiz-adv-x="404" 
d="M200 529l-140 133l39 48l104 -103l104 102l37 -47l-140 -133h-4z" />
    <glyph glyph-name="breve" unicode="&#x2d8;" horiz-adv-x="415" 
d="M60 640l37.001 41c34 -40.667 72 -61 114 -61c43.333 0 81.666 20 114.999 60l29 -39c-41.333 -57.333 -90.333 -86 -147 -86c-62 0 -111.333 28.333 -148 85z" />
    <glyph glyph-name="dotaccent" unicode="&#x2d9;" horiz-adv-x="221" 
d="M60 619c0 14 5 25.5 15 34.5s22.333 13.5 37 13.5c13.333 0 24.833 -4.5 34.5 -13.5s14.5 -20.5 14.5 -34.5c0 -16 -4.83301 -28.667 -14.5 -38s-21.167 -14 -34.5 -14c-14.667 0 -27 4.66699 -37 14s-15 22 -15 38z" />
    <glyph glyph-name="ring" unicode="&#x2da;" horiz-adv-x="350" 
d="M60 613c0 30.667 11 56.834 33 78.501s49 32.5 81 32.5c32.667 0 60.167 -10.833 82.5 -32.5s33.5 -47.834 33.5 -78.501s-11.167 -56.667 -33.5 -78s-49.833 -32 -82.5 -32c-32 0 -59 10.667 -81 32s-33 47.333 -33 78zM112 614c0 -18.667 6 -34.334 18 -47.001
s27 -19 45 -19s33 6.33301 45 19s18 28.334 18 47.001c0 18 -6 33.333 -18 46s-27 19 -45 19s-33 -6.33301 -45 -19s-18 -28 -18 -46z" />
    <glyph glyph-name="ogonek" unicode="&#x2db;" horiz-adv-x="328" 
d="M244 -126l23.998 -48.999c-20 -16.667 -48.667 -25 -86 -25c-33.333 0 -62 7.33301 -86 22s-36 38 -36 70c0 38.667 20.5 69.167 61.5 91.5s86.833 33.166 137.5 32.499v-16c-31.333 -0 -59 -8.16699 -83 -24.5s-36 -35.5 -36 -57.5c0 -18.667 6.33301 -32.167 19 -40.5
s26.334 -12.5 41.001 -12.5c16.667 0 31.334 3 44.001 9z" />
    <glyph glyph-name="tilde" unicode="&#x2dc;" horiz-adv-x="442" 
d="M93 557l-33.001 37c35.333 40 72 60 110 60c16 0 35.5 -7.33301 58.5 -22s41.167 -22 54.5 -22c19.333 0 43 11.667 71 35l28 -41c-37.333 -39.333 -72.666 -59 -105.999 -59c-14.667 0 -33.5 7.33301 -56.5 22s-42.167 22 -57.5 22c-18 0 -41 -10.667 -69 -32z" />
    <glyph glyph-name="hungarumlaut" unicode="&#x2dd;" horiz-adv-x="448" 
d="M388 671l-125 -140l-48 34l114 151zM221 680l-113 -149l-48 34l103 158z" />
    <glyph glyph-name="gravecomb" unicode="&#x300;" horiz-adv-x="0" 
d="M-269 531l-121 142l63 48l107 -156z" />
    <glyph glyph-name="acutecomb" unicode="&#x301;" horiz-adv-x="0" 
d="M-153 674l-120 -143l-48 34l106 157z" />
    <glyph glyph-name="uni0394" unicode="&#x394;" horiz-adv-x="726" 
d="M30 0l303 708h53l310 -708h-666zM357 564l-204 -484h416z" />
    <glyph glyph-name="uni0394" unicode="&#x2206;" horiz-adv-x="726" 
d="M30 0l303 708h53l310 -708h-666zM357 564l-204 -484h416z" />
    <glyph glyph-name="uni03A9" unicode="&#x3a9;" horiz-adv-x="816" 
d="M68 0v80.001h169c-49.333 16.667 -91.833 51.667 -127.5 105s-53.5 115 -53.5 185c0 100 33.667 181.667 101 245s151 95 251 95c101.333 0 185.333 -31.5 252 -94.5s100 -144.833 100 -245.5c0 -72 -18 -134.167 -54 -186.5s-78.667 -86.833 -128 -103.5h169v-80h-286
v80c62.667 16 113.167 49.667 151.5 101s57.5 109.666 57.5 174.999c0 76.667 -24.333 141.5 -73 194.5s-111.667 79.5 -189 79.5c-78.667 0 -142 -26.5 -190 -79.5s-72 -118.167 -72 -195.5c0 -62.667 19.167 -120.5 57.5 -173.5s88.5 -86.833 150.5 -101.5v-80h-286z" />
    <glyph glyph-name="uni03A9" unicode="&#x2126;" horiz-adv-x="816" 
d="M68 0v80.001h169c-49.333 16.667 -91.833 51.667 -127.5 105s-53.5 115 -53.5 185c0 100 33.667 181.667 101 245s151 95 251 95c101.333 0 185.333 -31.5 252 -94.5s100 -144.833 100 -245.5c0 -72 -18 -134.167 -54 -186.5s-78.667 -86.833 -128 -103.5h169v-80h-286
v80c62.667 16 113.167 49.667 151.5 101s57.5 109.666 57.5 174.999c0 76.667 -24.333 141.5 -73 194.5s-111.667 79.5 -189 79.5c-78.667 0 -142 -26.5 -190 -79.5s-72 -118.167 -72 -195.5c0 -62.667 19.167 -120.5 57.5 -173.5s88.5 -86.833 150.5 -101.5v-80h-286z" />
    <glyph glyph-name="pi" unicode="&#x3c0;" horiz-adv-x="635" 
d="M46 375l-0.000976562 74.999h536v-75h-90v-229c0 -28.667 3 -49 9 -61s16.667 -18 32 -18c16 0 34 6.66699 54 20l18 -61c-28.667 -22.667 -63 -34 -103 -34c-60 0 -90 39.333 -90 118v265h-192v-61c0 -64 -4 -117.167 -12 -159.5s-20.167 -75.166 -36.5 -98.499
s-35.166 -39.5 -56.499 -48.5s-47.666 -13.5 -78.999 -13.5l-6 78c33.333 -1.33301 59.666 14.667 78.999 48s29.333 93 30 179l1 76h-94z" />
    <glyph glyph-name="afii10023" unicode="&#x401;" horiz-adv-x="575" 
d="M105 0v700h395v-80h-310v-226h280v-80h-280v-234h320v-80h-405zM139 813c0 13.333 5.33301 24.166 16 32.499s23.667 12.5 39 12.5c14 0 26.167 -4.16699 36.5 -12.5s15.5 -19.166 15.5 -32.499c0 -14.667 -5.16699 -26.334 -15.5 -35.001s-22.5 -13 -36.5 -13
c-16 0 -29.167 4.33301 -39.5 13s-15.5 20.334 -15.5 35.001zM371 813c0 13.333 5.5 24.167 16.5 32.5s24.167 12.5 39.5 12.5c14 0 26 -4 36 -12s15 -19 15 -33c0 -14.667 -5 -26.334 -15 -35.001s-22 -13 -36 -13c-16 0 -29.333 4.33301 -40 13s-16 20.334 -16 35.001z
" />
    <glyph glyph-name="afii10051" unicode="&#x402;" horiz-adv-x="762" 
d="M712 204c0 -72 -15.502 -125.667 -46.502 -161s-73.5 -53 -127.5 -53c-22 0 -43.167 4 -63.5 12s-34.166 16.333 -41.499 25l29 65c19.333 -14.667 41.333 -22 66 -22c66 0 99 44 99 132c0 94 -46.667 141 -140 141c-22 0 -43.167 -3 -63.5 -9
s-35.166 -11.5 -44.499 -16.5s-22.333 -12.5 -39 -22.5v-295h-85v620h-245v80h575v-80h-245v-247c50 33.333 104.333 50 163 50c139.333 0 209 -73 209 -219z" />
    <glyph glyph-name="afii10052" unicode="&#x403;" horiz-adv-x="505" 
d="M105 0v700h390v-80h-305v-620h-85zM483 819l-202 -84l-23 48l195 104z" />
    <glyph glyph-name="afii10053" unicode="&#x404;" horiz-adv-x="677" 
d="M483 397l-0.00390625 -79.999h-347c7.33301 -77.333 37.333 -137.833 90 -181.5s117.334 -65.5 194.001 -65.5c69.333 0 132.333 21.333 189 64l33 -71c-60.667 -48.667 -137 -73 -229 -73c-109.333 0 -197.166 32.667 -263.499 98s-99.5 152.666 -99.5 261.999
c0 106 32.5 192.5 97.5 259.5s149.5 100.5 253.5 100.5c96.667 0 173.334 -24.333 230.001 -73l-39 -64c-48.667 38 -107.667 57 -177 57c-76.667 0 -139.667 -21 -189 -63s-78.666 -98.667 -87.999 -170h345z" />
    <glyph glyph-name="afii10054" unicode="&#x405;" horiz-adv-x="549" 
d="M409 179c0 23.333 -6.33008 43.665 -18.9971 60.998s-29 31.5 -49 42.5s-42.167 21.5 -66.5 31.5s-48.666 20.833 -72.999 32.5s-46.5 24.834 -66.5 39.501s-36.333 34 -49 58s-19 51.667 -19 83c0 52 19 95.5 57 130.5s89.333 52.5 154 52.5
c40 0 77.167 -6.66699 111.5 -20s61.5 -31 81.5 -53l-46 -64c-38 38 -85.333 57 -142 57c-38.667 0 -69.334 -9.33301 -92.001 -28s-34 -43.667 -34 -75c0 -23.333 6.33301 -43.666 19 -60.999s29 -31.333 49 -42s42.167 -20.834 66.5 -30.501s48.666 -20.167 72.999 -31.5
s46.5 -24.166 66.5 -38.499s36.333 -33.833 49 -58.5s19 -53 19 -85c0 -56.667 -21.833 -102.5 -65.5 -137.5s-97.834 -52.5 -162.501 -52.5c-45.333 0 -89.333 9.5 -132 28.5s-72.334 44.5 -89.001 76.5l49 58c20 -26 46 -46.333 78 -61s63.667 -22 95 -22
c38.667 0 71.167 9.66699 97.5 29s39.5 46 39.5 80z" />
    <glyph glyph-name="afii10055" unicode="&#x406;" horiz-adv-x="335" 
d="M125 0v700h85v-700h-85z" />
    <glyph glyph-name="afii10056" unicode="&#x407;" horiz-adv-x="335" 
d="M43 813c0 13.333 4.66699 24.166 14 32.499s20.666 12.5 33.999 12.5c12.667 0 23.5 -4.16699 32.5 -12.5s13.5 -19.166 13.5 -32.499c0 -14.667 -4.5 -26.334 -13.5 -35.001s-19.833 -13 -32.5 -13c-13.333 0 -24.666 4.33301 -33.999 13s-14 20.334 -14 35.001z
M199 813c0 13.333 4.66699 24.166 14 32.499s20.666 12.5 33.999 12.5c12.667 0 23.5 -4.16699 32.5 -12.5s13.5 -19.166 13.5 -32.499c0 -14.667 -4.5 -26.334 -13.5 -35.001s-19.833 -13 -32.5 -13c-13.333 0 -24.666 4.33301 -33.999 13s-14 20.334 -14 35.001zM125 0
v700h85v-700h-85z" />
    <glyph glyph-name="afii10057" unicode="&#x408;" horiz-adv-x="374" 
d="M269 700v-541c0 -112.667 -51 -169 -153 -169c-46 0 -81.333 12.333 -106 37l29 65c19.333 -14.667 41.333 -22 66 -22c52.667 0 79 34.333 79 103v527h85z" />
    <glyph glyph-name="afii10058" unicode="&#x409;" horiz-adv-x="1023" 
d="M536 0l0.00195312 619.999h-254l-12 -132c-8 -86.667 -18.333 -160.834 -31 -222.501s-26.334 -110.167 -41.001 -145.5s-31.834 -62.666 -51.501 -81.999s-38.834 -31.333 -57.501 -36s-40 -5.33398 -64 -2.00098l1 85c12.667 -1.33301 24 -0.333008 34 3
s22.167 13.833 36.5 31.5s27 42.5 38 74.5s21.833 79.333 32.5 142s19 137.334 25 224.001l10 140h419v-260c42 3.33301 73 5 93 5c86 0 150.667 -19 194 -57s65 -91 65 -159c0 -73.333 -24.5 -130.166 -73.5 -170.499s-117.167 -60.5 -204.5 -60.5
c-21.333 0 -50.166 0.333008 -86.499 1s-60.5 1 -72.5 1zM708.002 364.999c-22.667 0 -51.667 -2.00098 -87 -6.00098v-278c54 -2 82 -3 84 -3c118.667 0 178 49.667 178 149c0 44.667 -15 78.834 -45 102.501s-73.333 35.5 -130 35.5z" />
    <glyph glyph-name="afii10059" unicode="&#x40a;" horiz-adv-x="1052" 
d="M105 0v700h85v-279h375v279h85v-275c42 3.33301 73 5 93 5c86 0 150.667 -18.5 194 -55.5s65 -88.167 65 -153.5c0 -70 -24.5 -124.667 -73.5 -164s-117.167 -59 -204.5 -59c-16.667 0 -40 0.333008 -70 1s-51 1 -63 1h-26v341h-375v-341h-85zM650 344v-263
c54 -2 82 -3 84 -3c58 0 102.167 12 132.5 36s45.5 59.333 45.5 106c0 41.333 -15 73.333 -45 96s-73.333 34 -130 34c-23.333 0 -52.333 -2 -87 -6z" />
    <glyph glyph-name="afii10060" unicode="&#x40b;" horiz-adv-x="762" 
d="M10 620v80h575v-80h-245v-247c46.667 33.333 102.667 50 168 50c60 0 109 -18.167 147 -54.5s57 -92.833 57 -169.5v-199h-85v177c0 110.667 -47.333 166 -142 166c-48 0 -96.333 -16 -145 -48v-295h-85v620h-245z" />
    <glyph glyph-name="afii10061" unicode="&#x40c;" horiz-adv-x="653" 
d="M617 700l-312 -329l328 -371h-109l-317 365l307 335h103zM105 0v700h85v-700h-85zM513 819l-202 -84l-23 48l195 104z" />
    <glyph glyph-name="afii10062" unicode="&#x40e;" horiz-adv-x="666" 
d="M651 700l-242.002 -540c-24.667 -55.333 -50.5 -95.833 -77.5 -121.5s-59.167 -38.5 -96.5 -38.5c-35.333 -0 -63.666 8.33301 -84.999 25l30 72c17.333 -12 35.333 -18 54 -18c34.667 0 63.334 23.667 86.001 71l12 26l-317 524h96l262 -439l192 439h86zM158.998 860h80
c16 -43.333 51.667 -65 107 -65c58.667 0 93 21.667 103 65h80c-4.66699 -37.333 -24.167 -67.5 -58.5 -90.5s-75.833 -34.5 -124.5 -34.5c-51.333 0 -93.833 11.5 -127.5 34.5s-53.5 53.167 -59.5 90.5z" />
    <glyph glyph-name="afii10145" unicode="&#x40f;" horiz-adv-x="750" 
d="M105 0v700h85v-620h370v620h85v-700h-231v-155h-80v155h-229z" />
    <glyph glyph-name="afii10017" unicode="&#x410;" horiz-adv-x="705" 
d="M15 0l301 704h73l301 -704h-91l-90 212h-319l-89 -212h-86zM350 591l-126 -299h252z" />
    <glyph glyph-name="afii10018" unicode="&#x411;" horiz-adv-x="612" 
d="M105 0l-0.000976562 700h396v-80h-311v-201c35.333 4 71 6 107 6c77.333 0 137.5 -18.333 180.5 -55s64.5 -87 64.5 -151c0 -72 -23.667 -127.167 -71 -165.5s-113.333 -57.5 -198 -57.5c-26 0 -57.667 0.666992 -95 2s-61.666 2 -72.999 2zM291.999 345
c-31.333 0 -65.334 -2.00098 -102.001 -6.00098v-259c41.333 -2.66699 73.333 -4 96 -4c56.667 0 99.334 12 128.001 36s43 57.667 43 101c0 40.667 -14 72.834 -42 96.501s-69 35.5 -123 35.5z" />
    <glyph glyph-name="afii10019" unicode="&#x412;" horiz-adv-x="617" 
d="M105 1v697.999c104 2.66699 168 4 192 4c78.667 0 135.834 -15.667 171.501 -47s53.5 -73.333 53.5 -126c0 -42 -11 -76.5 -33 -103.5s-51 -46.5 -87 -58.5v-2c44.667 -7.33301 80 -25.166 106 -53.499s39 -65.833 39 -112.5c0 -68 -23.167 -118.833 -69.5 -152.5
s-107.833 -50.5 -184.5 -50.5c-70.667 0 -133.334 1.33301 -188.001 4zM303 318.999l-112.999 -0.000976562v-238c30.667 -2.66699 66.667 -4 108 -4c52.667 0 93.167 10.833 121.5 32.5s42.5 53.5 42.5 95.5c0 36.667 -13.833 64.834 -41.5 84.501
s-66.834 29.5 -117.501 29.5zM295.001 622.998c-20 0 -55.001 -1.00098 -105.001 -3.00098v-226h112c38.667 0 70.834 10.333 96.501 31s38.5 49.334 38.5 86.001c0 74.667 -47.333 112 -142 112z" />
    <glyph glyph-name="afii10020" unicode="&#x413;" horiz-adv-x="505" 
d="M105 0v700h390v-80h-305v-620h-85z" />
    <glyph glyph-name="afii10021" unicode="&#x414;" horiz-adv-x="749" 
d="M15 -130l0.000976562 210h75c21.333 26.667 44.166 81.167 68.499 163.5s39.833 187.833 46.5 316.5l7 140h412v-620h95v-210h-80v130h-544v-130h-80zM285.001 495c-7.33301 -106.667 -21.668 -197.168 -43.001 -271.501s-40.666 -122.166 -57.999 -143.499h355v540h-245
z" />
    <glyph glyph-name="afii10022" unicode="&#x415;" horiz-adv-x="575" 
d="M105 0v700h395v-80h-310v-226h280v-80h-280v-234h320v-80h-405z" />
    <glyph glyph-name="afii10024" unicode="&#x416;" horiz-adv-x="934" 
d="M903 700l-283 -334l294 -366h-99l-288 365l277 335h99zM424 0v700h85v-700h-85zM314 365l-283 335h99l277 -335l-288 -365h-99z" />
    <glyph glyph-name="afii10025" unicode="&#x417;" horiz-adv-x="578" 
d="M269 -10c-50.667 0 -96.498 10.666 -137.498 31.999s-71.5 47.333 -91.5 78l47 57c22 -26 49.667 -47 83 -63s64.666 -24 93.999 -24c47.333 0 85.666 11.833 114.999 35.5s44 56.5 44 98.5c0 34.667 -12 62.334 -36 83.001s-57.667 31 -101 31h-81v80h75
c30.667 0 57.667 11.167 81 33.5s35 50.5 35 84.5c0 36.667 -11.833 64.834 -35.5 84.501s-54.167 29.5 -91.5 29.5c-62 0 -115 -26 -159 -78l-50 56c24 31.333 55.167 56.166 93.5 74.499s79.833 27.5 124.5 27.5c61.333 0 110.5 -16.333 147.5 -49
s55.5 -78.334 55.5 -137.001c0 -31.333 -8.66699 -61.666 -26 -90.999s-42.333 -52.333 -75 -69v-3c41.333 -8 73 -27 95 -57s33 -66 33 -108c0 -62.667 -23.167 -112.667 -69.5 -150s-102.833 -56 -169.5 -56z" />
    <glyph glyph-name="afii10026" unicode="&#x418;" horiz-adv-x="795" 
d="M180 0h-75v700h85v-560l425 560h75v-700h-85v560z" />
    <glyph glyph-name="afii10027" unicode="&#x419;" horiz-adv-x="795" 
d="M180 0h-75v700h85v-560l425 560h75v-700h-85v560zM217 860h80c16 -43.333 51.667 -65 107 -65c58.667 0 93 21.667 103 65h80c-4.66699 -37.333 -24.167 -67.5 -58.5 -90.5s-75.833 -34.5 -124.5 -34.5c-51.333 0 -93.833 11.5 -127.5 34.5s-53.5 53.167 -59.5 90.5z" />
    <glyph glyph-name="afii10028" unicode="&#x41a;" horiz-adv-x="653" 
d="M617 700l-312 -329l328 -371h-109l-317 365l307 335h103zM105 0v700h85v-700h-85z" />
    <glyph glyph-name="afii10029" unicode="&#x41b;" horiz-adv-x="726" 
d="M536 0l0.00292969 620h-254l-12 -132c-8 -86.667 -18.333 -160.834 -31 -222.501s-26.334 -110.167 -41.001 -145.5s-31.834 -62.666 -51.501 -81.999s-38.834 -31.333 -57.501 -36s-40 -5.33398 -64 -2.00098l1 85c12.667 -1.33301 24 -0.333008 34 3
s22.167 13.833 36.5 31.5s27 42.5 38 74.5s21.833 79.333 32.5 142s19 137.334 25 224.001l10 140h419v-700h-85z" />
    <glyph glyph-name="afii10030" unicode="&#x41c;" horiz-adv-x="892" 
d="M105 0v700h86l263 -359l252 359h81v-700h-85v566l-248 -348h-13l-251 345v-563h-85z" />
    <glyph glyph-name="afii10031" unicode="&#x41d;" horiz-adv-x="765" 
d="M575 0v317h-385v-317h-85v700h85v-303h385v303h85v-700h-85z" />
    <glyph glyph-name="afii10032" unicode="&#x41e;" horiz-adv-x="814" 
d="M50 350c0 102 33.668 187.499 101.001 256.499s152.666 103.5 255.999 103.5c102.667 0 187.834 -33.667 255.501 -101s101.5 -153.666 101.5 -258.999c0 -103.333 -34 -189.166 -102 -257.499s-153 -102.5 -255 -102.5c-102.667 0 -187.834 33.667 -255.501 101
s-101.5 153.666 -101.5 258.999zM140.001 349.999c0 -79.333 25.667 -145.833 77 -199.5s114.666 -80.5 189.999 -80.5c78.667 0 142.834 26.667 192.501 80s74.5 120 74.5 200c0 80.667 -25.667 147.5 -77 200.5s-114.666 79.5 -189.999 79.5
c-76.667 0 -140.334 -26.333 -191.001 -79s-76 -119.667 -76 -201z" />
    <glyph glyph-name="afii10033" unicode="&#x41f;" horiz-adv-x="760" 
d="M570 0v620h-380v-620h-85v700h550v-700h-85z" />
    <glyph glyph-name="afii10034" unicode="&#x420;" horiz-adv-x="597" 
d="M190 0h-84.999v700c12.667 0 42.5 0.333008 89.5 1s78.167 1 93.5 1c92 0 158.167 -20.5 198.5 -61.5s60.5 -92.833 60.5 -155.5c0 -61.333 -21.833 -113.333 -65.5 -156s-105.834 -64 -186.501 -64c-38.667 0 -73.667 1.33301 -105 4v-269zM296.001 622
c-26.667 0 -61.999 -0.666992 -105.999 -2v-270c38 -3.33301 72 -5 102 -5c51.333 0 91.666 12.5 120.999 37.5s44 59.5 44 103.5c0 42.667 -13.333 76 -40 100s-67 36 -121 36z" />
    <glyph glyph-name="afii10035" unicode="&#x421;" horiz-adv-x="656" 
d="M592 132l34.001 -64c-23.333 -24 -55 -43 -95 -57s-82 -21 -126 -21c-105.333 0 -190.833 32.833 -256.5 98.5s-98.5 152.834 -98.5 261.501c0 103.333 31.5 189.166 94.5 257.499s147.833 102.5 254.5 102.5c89.333 0 160.333 -22.667 213 -68l-39 -64
c-46.667 34.667 -104.334 52 -173.001 52c-76 0 -138.333 -26 -187 -78s-73 -119.333 -73 -202c0 -83.333 25.167 -150.833 75.5 -202.5s116.166 -77.5 197.499 -77.5c68.667 0 128.334 20.667 179.001 62z" />
    <glyph glyph-name="afii10036" unicode="&#x422;" horiz-adv-x="595" 
d="M10 620v80h575v-80h-245v-620h-85v620h-245z" />
    <glyph glyph-name="afii10037" unicode="&#x423;" horiz-adv-x="666" 
d="M651 700l-242.002 -540c-24.667 -55.333 -50.5 -95.833 -77.5 -121.5s-59.167 -38.5 -96.5 -38.5c-35.333 -0 -63.666 8.33301 -84.999 25l30 72c17.333 -12 35.333 -18 54 -18c34.667 0 63.334 23.667 86.001 71l12 26l-317 524h96l262 -439l192 439h86z" />
    <glyph glyph-name="afii10038" unicode="&#x424;" horiz-adv-x="834" 
d="M373 -8l-0.000976562 92.001h-1c-100.667 0 -181.167 24.333 -241.5 73s-90.5 116.334 -90.5 203.001s30 154.167 90 202.5s141 72.833 243 73.5v72h85v-72c102.667 -0.666992 184.334 -25.334 245.001 -74.001s91 -116 91 -202c0 -86.667 -30.5 -154.334 -91.5 -203.001
s-141.5 -73 -241.5 -73h-3v-92h-85zM458.999 557.001l-1 -0.000976562v-395h2c76.667 0 136.5 16.833 179.5 50.5s64.5 82.834 64.5 147.501c0 62 -21.5 110.333 -64.5 145s-103.167 52 -180.5 52zM129.999 360c0 -64 21.667 -113 65 -147s102.333 -51 177 -51h1v395
c-76 0 -135.5 -17.5 -178.5 -52.5s-64.5 -83.167 -64.5 -144.5z" />
    <glyph glyph-name="afii10039" unicode="&#x425;" horiz-adv-x="664" 
d="M635 700l-248 -344l257 -356h-101l-212 291l-211 -291h-100l257 356l-246 344h100l203 -280l200 280h101z" />
    <glyph glyph-name="afii10040" unicode="&#x426;" horiz-adv-x="775" 
d="M105 0v700h85v-620h375v620h85v-620h95v-210h-80v130h-560z" />
    <glyph glyph-name="afii10041" unicode="&#x427;" horiz-adv-x="650" 
d="M545 700v-700h-85v306c-50 -36 -111.667 -54 -185 -54c-61.333 0 -111.666 18 -150.999 54s-59 92.333 -59 169v225h85v-202c0 -57.333 13.167 -99.333 39.5 -126s62.166 -40 107.499 -40c56.667 0 111 17.667 163 53v315h85z" />
    <glyph glyph-name="afii10042" unicode="&#x428;" horiz-adv-x="995" 
d="M105 0v700h85v-620h265v620h85v-620h265v620h85v-700h-785z" />
    <glyph glyph-name="afii10043" unicode="&#x429;" horiz-adv-x="1015" 
d="M105 0v700h85v-620h265v620h85v-620h265v620h85v-620h95v-210h-80v130h-800z" />
    <glyph glyph-name="afii10044" unicode="&#x42a;" horiz-adv-x="669" 
d="M5 620v79.999h252v-260c42 3.33301 74.667 5 98 5c88 0 154 -19 198 -57s66 -91 66 -159c0 -73.333 -24.833 -130.166 -74.5 -170.499s-119.167 -60.5 -208.5 -60.5c-21.333 0 -51 0.333008 -89 1s-63 1 -75 1v620h-167zM349 364.999
c-26.667 0 -57.335 -2.00098 -92.002 -6.00098v-278c54 -2 83.667 -3 89 -3c58.667 0 103.834 12.5 135.501 37.5s47.5 62.167 47.5 111.5c0 44.667 -15.667 78.834 -47 102.501s-75.666 35.5 -132.999 35.5z" />
    <glyph glyph-name="afii10045" unicode="&#x42b;" horiz-adv-x="845" 
d="M655 0v700h85v-700h-85zM277 365c-23.333 0 -52.333 -2.00098 -87 -6.00098v-278c54 -2 82 -3 84 -3c118.667 0 178 49.667 178 149c0 44.667 -15 78.834 -45 102.501s-73.333 35.5 -130 35.5zM190 699.999l-0.000976562 -260.001c42 3.33301 73 5 93 5
c86 0 150.667 -19 194 -57s65 -91 65 -159c0 -73.333 -24.5 -130.166 -73.5 -170.499s-117.167 -60.5 -204.5 -60.5c-21.333 0 -50.166 0.333008 -86.499 1s-60.5 1 -72.5 1v700h85z" />
    <glyph glyph-name="afii10046" unicode="&#x42c;" horiz-adv-x="602" 
d="M282 365c-26 0 -56.6689 -2.00098 -92.002 -6.00098v-278c54 -2 83.667 -3 89 -3c58.667 0 103.834 12.5 135.501 37.5s47.5 62.167 47.5 111.5c0 44.667 -15.667 78.834 -47 102.501s-75.666 35.5 -132.999 35.5zM189.998 699.999v-260.001c42 3.33301 74.667 5 98 5
c88 0 154 -19 198 -57s66 -91 66 -159c0 -73.333 -24.833 -130.166 -74.5 -170.499s-119.167 -60.5 -208.5 -60.5c-21.333 0 -51 0.333008 -89 1s-63 1 -75 1v700h85z" />
    <glyph glyph-name="afii10047" unicode="&#x42d;" horiz-adv-x="677" 
d="M193 317l0.00195312 80h346c-8.66699 72.667 -38.334 129.667 -89.001 171s-115.334 62 -194.001 62c-68.667 0 -127.667 -19 -177 -57l-33 64c55.333 48.667 132 73 230 73c104.667 0 189.334 -32.667 254.001 -98s97 -152 97 -260
c0 -107.333 -32.667 -194.5 -98 -261.5s-152.333 -100.5 -261 -100.5c-94.667 0 -172.334 24.333 -233.001 73l37 71c56.667 -42.667 121.334 -64 194.001 -64c74.667 0 137.167 22.167 187.5 66.5s79.166 104.5 86.499 180.5h-347z" />
    <glyph glyph-name="afii10048" unicode="&#x42e;" horiz-adv-x="1078" 
d="M105 0v699.999h85v-303h151c10 91.333 46.167 166.333 108.5 225s139.5 88 231.5 88c102 0 185.333 -33.5 250 -100.5s97 -153.5 97 -259.5c0 -104 -32.5 -190 -97.5 -258s-148.167 -102 -249.5 -102c-92 0 -170.167 30.333 -234.5 91s-99.833 139.334 -106.5 236.001
h-150v-317h-85zM429 349.999c0 -79.333 24.165 -145.833 72.498 -199.5s108.833 -80.5 181.5 -80.5c78.667 0 140.834 26.333 186.501 79s68.5 119.667 68.5 201c0 82 -23.667 149.167 -71 201.5s-108.666 78.5 -183.999 78.5c-73.333 0 -134 -26.333 -182 -79
s-72 -119.667 -72 -201z" />
    <glyph glyph-name="afii10049" unicode="&#x42f;" horiz-adv-x="623" 
d="M433 0l-0.000976562 260h-131l-181 -260h-96l194 275c-39.333 16 -72.166 41 -98.499 75s-39.5 74.333 -39.5 121c0 67.333 23 122.833 69 166.5s114 65.5 204 65.5c16 0 44 -0.5 84 -1.5s66.667 -1.5 80 -1.5v-700h-85zM291.999 340l141 -0.000976562v280
c-46 2 -77.667 3 -95 3c-52.667 0 -93.667 -13.667 -123 -41s-44 -62.666 -44 -105.999c0 -35.333 12 -65.5 36 -90.5s52.333 -40.167 85 -45.5z" />
    <glyph glyph-name="afii10065" unicode="&#x430;" horiz-adv-x="460" 
d="M96 355l-21.002 64c44 27.333 94 41 150 41c62 0 106.333 -15.333 133 -46s40 -76.667 40 -138v-276h-76v58c-34.667 -43.333 -82.667 -65 -144 -65c-41.333 0 -74.666 12.5 -99.999 37.5s-38 58.833 -38 101.5c0 44.667 15.833 79.667 47.5 105s72.5 38 122.5 38
c48 0 85.333 -9.66699 112 -29c0 48 -6.66699 83.667 -20 107s-40.666 35 -81.999 35c-40.667 0 -82 -11 -124 -33zM205.998 65c44.667 0 83.335 19.333 116.002 58v57c-28 20 -61.667 30 -101 30c-26.667 0 -49.334 -6.33301 -68.001 -19s-28 -31 -28 -55
c0 -22 7.16699 -39.333 21.5 -52s34.166 -19 59.499 -19z" />
    <glyph glyph-name="afii10066" unicode="&#x431;" horiz-adv-x="552" 
d="M420 710l43.002 -63c-16 -22 -35.333 -37 -58 -45s-50.667 -14.667 -84 -20s-62.333 -13.666 -87 -24.999c-68 -30.667 -106 -103 -114 -217h2c14.667 31.333 38.5 56.666 71.5 75.999s68.5 29 106.5 29c64 0 114.833 -20.333 152.5 -61s56.5 -95 56.5 -163
c0 -64 -21.667 -118.5 -65 -163.5s-98.666 -67.5 -165.999 -67.5c-73.333 0 -131.333 25 -174 75s-64 118.333 -64 205c0 195.333 55.667 316.333 167 363c27.333 12 56.666 20.5 87.999 25.5s56.666 10.5 75.999 16.5s35.666 17.667 48.999 35zM125.002 255
c0 -57.333 13.999 -103.332 41.999 -137.999s64.333 -52 109 -52c43.333 0 78.833 14.667 106.5 44s41.5 65.333 41.5 108c0 45.333 -12.667 82.166 -38 110.499s-60.666 42.5 -105.999 42.5c-40 0 -74 -11.333 -102 -34s-45.667 -49.667 -53 -81z" />
    <glyph glyph-name="afii10067" unicode="&#x432;" horiz-adv-x="494" 
d="M72 0l0.00195312 450c10.667 0 34.5 0.666992 71.5 2s67.5 2 91.5 2c129.333 0 194 -38.667 194 -116c0 -26.667 -8.33301 -49.5 -25 -68.5s-38.334 -30.5 -65.001 -34.5v-2c70 -12.667 105 -48 105 -106c0 -87.333 -69 -131 -207 -131c-20 0 -49.333 0.666992 -88 2
s-64.334 2 -77.001 2zM248.002 202h-96v-138c48 -2 78.667 -3 92 -3c76.667 0 115 24 115 72c0 46 -37 69 -111 69zM241.002 389c-19.333 0 -49 -1 -89 -3v-134h101c27.333 0 49.333 6.33301 66 19s25 29.667 25 51c0 44.667 -34.333 67 -103 67z" />
    <glyph glyph-name="afii10068" unicode="&#x433;" horiz-adv-x="362" 
d="M72 0v450h285v-75h-205v-375h-80z" />
    <glyph glyph-name="afii10069" unicode="&#x434;" horiz-adv-x="539" 
d="M10 -110v185h56c16 20 30.5 53 43.5 99s21.5 98.333 25.5 157l7 119h307v-375h75v-185h-75v110h-364v-110h-75zM212 300c-4.66699 -52.667 -13 -99.333 -25 -140s-24 -69 -36 -85h218v300h-152z" />
    <glyph glyph-name="afii10070" unicode="&#x435;" horiz-adv-x="520" 
d="M427 112l25 -63c-43.333 -39.333 -99.666 -59 -168.999 -59c-72.667 0 -131 21.333 -175 64s-66 99.667 -66 171c0 68 20.667 124.167 62 168.5s98 66.5 170 66.5c59.333 0 109 -19.167 149 -57.5s60 -87.833 60 -148.5c0 -20.667 -1.66699 -38.667 -5 -54h-346
c3.33301 -42 19.166 -75 47.499 -99s64.833 -36 109.5 -36c58.667 0 104.667 15.667 138 47zM270 385c-40 0 -72.667 -11.167 -98 -33.5s-40.333 -51.166 -45 -86.499h273c-2 37.333 -14.5 66.666 -37.5 87.999s-53.833 32 -92.5 32z" />
    <glyph glyph-name="afii10072" unicode="&#x436;" horiz-adv-x="679" 
d="M652 450l-163 -217l175 -233h-99l-167 233l155 217h99zM298 0v450h80v-450h-80zM187 233l-163 217h100l154 -217l-165 -233h-98z" />
    <glyph glyph-name="afii10073" unicode="&#x437;" horiz-adv-x="462" 
d="M221 -10c-34.667 0 -70.6689 5.83105 -108.002 17.498s-63.333 26.167 -78 43.5l41 60c18 -14.667 39.5 -26.5 64.5 -35.5s47.833 -13.5 68.5 -13.5c34.667 0 63 6.83301 85 20.5s33 31.5 33 53.5c0 18.667 -7.83301 33 -23.5 43s-37.167 15 -64.5 15h-76v65h71
c22.667 0 41.334 6.16699 56.001 18.5s22 27.5 22 45.5c0 20 -8.66699 35.833 -26 47.5s-40.666 17.5 -69.999 17.5c-48 0 -93 -16.667 -135 -50l-31 62c18 18.667 43.167 33.334 75.5 44.001s66.5 16 102.5 16c54 0 95.667 -10.833 125 -32.5s44 -51.167 44 -88.5
c0 -52 -26.333 -87.333 -79 -106v-2c30 -3.33301 53.167 -15 69.5 -35s24.5 -43.667 24.5 -71c0 -41.333 -17.667 -74.166 -53 -98.499s-81.333 -36.5 -138 -36.5z" />
    <glyph glyph-name="afii10074" unicode="&#x438;" horiz-adv-x="565" 
d="M152 0h-80v450h80v-335l260 335h80v-450h-80v335z" />
    <glyph glyph-name="afii10075" unicode="&#x439;" horiz-adv-x="565" 
d="M152 0h-80v450h80v-335l260 335h80v-450h-80v335zM136 680h75c4 -52.667 29.667 -79 77 -79c44.667 0 69 26.333 73 79h75c0 -40 -13.667 -73.333 -41 -100s-63 -40 -107 -40c-48 0 -85.333 13 -112 39s-40 59.667 -40 101z" />
    <glyph glyph-name="afii10076" unicode="&#x43a;" horiz-adv-x="498" 
d="M466 450l-197 -215l216 -235h-111l-203 230l190 220h105zM72 0v450h80v-450h-80z" />
    <glyph glyph-name="afii10077" unicode="&#x43b;" horiz-adv-x="532" 
d="M380 0l-0.00195312 370.002h-158l-5 -76c-4 -50 -10 -93.167 -18 -129.5s-17.167 -65.333 -27.5 -87s-22.833 -38.834 -37.5 -51.501s-29.667 -21.167 -45 -25.5s-33 -6.5 -53 -6.5l-6 78c8 -0.666992 15.833 0.5 23.5 3.5s16.334 9.5 26.001 19.5
s18.334 23.333 26.001 40s14.667 40.167 21 70.5s10.5 65.166 12.5 104.499l8 140h313v-450h-80z" />
    <glyph glyph-name="afii10078" unicode="&#x43c;" horiz-adv-x="626" 
d="M72 0v450h73l173 -223l164 223h71v-450h-80v328l-156 -209h-3l-162 209v-328h-80z" />
    <glyph glyph-name="afii10079" unicode="&#x43d;" horiz-adv-x="555" 
d="M402 0v190h-250v-190h-80v450h80v-185h250v185h80v-450h-80z" />
    <glyph glyph-name="afii10080" unicode="&#x43e;" horiz-adv-x="565" 
d="M42 225c0 68 22.167 124.167 66.5 168.5s102.166 66.5 173.499 66.5s129.166 -22.167 173.499 -66.5s66.5 -100.5 66.5 -168.5s-22.167 -124.167 -66.5 -168.5s-102.166 -66.5 -173.499 -66.5s-129.166 22.167 -173.499 66.5s-66.5 100.5 -66.5 168.5zM127 225
c0 -46.667 14.5 -85 43.5 -115s66.167 -45 111.5 -45s82.5 14.833 111.5 44.5s43.5 68.167 43.5 115.5c0 46.667 -14.5 85 -43.5 115s-66.167 45 -111.5 45c-44.667 0 -81.667 -14.833 -111 -44.5s-44 -68.167 -44 -115.5z" />
    <glyph glyph-name="afii10081" unicode="&#x43f;" horiz-adv-x="550" 
d="M397 0v375h-245v-375h-80v450h405v-450h-80z" />
    <glyph glyph-name="afii10082" unicode="&#x440;" horiz-adv-x="556" 
d="M72 -200l-0.00292969 649.998h80v-53c16 18.667 37.833 33.834 65.5 45.501s56.834 17.5 87.501 17.5c63.333 0 113.833 -21.167 151.5 -63.5s56.5 -97.166 56.5 -164.499c0 -69.333 -21.667 -127 -65 -173s-99.666 -69 -168.999 -69
c-53.333 0 -95.666 10.333 -126.999 31v-221h-80zM281.997 384.998c-53.333 0 -96.666 -20.668 -129.999 -62.001v-223c34.667 -23.333 74.667 -35 120 -35c47.333 0 85.166 15.333 113.499 46s42.5 70 42.5 118c0 46.667 -13 84.334 -39 113.001s-61.667 43 -107 43z" />
    <glyph glyph-name="afii10083" unicode="&#x441;" horiz-adv-x="488" 
d="M418 123l38.002 -58c-18.667 -24 -43.334 -42.5 -74.001 -55.5s-63.667 -19.5 -99 -19.5c-72 0 -130.167 21.5 -174.5 64.5s-66.5 99.833 -66.5 170.5c0 66 21.667 121.667 65 167s97.666 68 162.999 68c78.667 0 137.667 -19.667 177 -59l-37 -63
c-34 31.333 -77 47 -129 47c-42 0 -78.167 -15.167 -108.5 -45.5s-45.5 -68.5 -45.5 -114.5c0 -48 15.5 -86.667 46.5 -116s69.5 -44 115.5 -44c52 0 95 19.333 129 58z" />
    <glyph glyph-name="afii10084" unicode="&#x442;" horiz-adv-x="440" 
d="M15 370v80h410v-80h-165v-370h-80v370h-165z" />
    <glyph glyph-name="afii10085" unicode="&#x443;" horiz-adv-x="491" 
d="M481 450l-180 -450c-32 -78 -60.333 -130.833 -85 -158.5s-53.667 -41.5 -87 -41.5c-28.667 0 -57 9.33301 -85 28l26 61c21.333 -10 38 -15 50 -15c18.667 0 35.5 8 50.5 24s30.167 42 45.5 78l10 24l-216 450h96l132 -286c2.66699 -6 11.667 -28.667 27 -68
c6 22 13 45 21 69l104 285h91z" />
    <glyph glyph-name="afii10086" unicode="&#x444;" horiz-adv-x="675" 
d="M297 -200v190h-11c-75.333 0 -134.833 22 -178.5 66s-65.5 100.333 -65.5 169c0 64.667 22 120 66 166s103 69 177 69h12v240h80v-240h13c73.333 0 132 -22.333 176 -67s66 -100.667 66 -168c0 -69.333 -21.167 -125.833 -63.5 -169.5s-101.833 -65.5 -178.5 -65.5h-13
v-190h-80zM127 225c0 -48 14.332 -86.667 42.999 -116s68.334 -44 119.001 -44h8v320h-13c-49.333 0 -87.833 -15.167 -115.5 -45.5s-41.5 -68.5 -41.5 -114.5zM389.999 385h-13v-320h9c51.333 0 91 14.667 119 44s42 68 42 116c0 44 -14 81.667 -42 113s-66.333 47 -115 47
z" />
    <glyph glyph-name="afii10087" unicode="&#x445;" horiz-adv-x="507" 
d="M472 450l-161 -217l171 -233h-98l-132 182l-134 -182h-93l170 229l-160 221h98l122 -170l124 170h93z" />
    <glyph glyph-name="afii10088" unicode="&#x446;" horiz-adv-x="562" 
d="M72 0v450h80v-375h240v375h80v-375h75v-185h-75v110h-400z" />
    <glyph glyph-name="afii10089" unicode="&#x447;" horiz-adv-x="482" 
d="M410 450l0.000976562 -450h-80v175c-34.667 -22 -76.334 -33 -125.001 -33c-106.667 0 -160 57.333 -160 172v136h85v-127c0 -70.667 32.333 -106 97 -106c42 0 76.333 9.33301 103 28v205h80z" />
    <glyph glyph-name="afii10090" unicode="&#x448;" horiz-adv-x="715" 
d="M72 0v450h80v-375h165v375h80v-375h165v375h80v-450h-570z" />
    <glyph glyph-name="afii10091" unicode="&#x449;" horiz-adv-x="732" 
d="M72 0v450h80v-375h165v375h80v-375h165v375h80v-375h75v-185h-75v110h-570z" />
    <glyph glyph-name="afii10092" unicode="&#x44a;" horiz-adv-x="509" 
d="M5 375v75h209v-135h82c64 0 109.667 -14.5 137 -43.5s41 -66.167 41 -111.5s-15 -83.333 -45 -114s-77.667 -46 -143 -46h-152v375h-129zM281 240h-67v-165h66c72.667 0 109 27.333 109 82c0 55.333 -36 83 -108 83z" />
    <glyph glyph-name="afii10093" unicode="&#x44b;" horiz-adv-x="642" 
d="M72 0v450h80v-135h74c64 0 109.667 -14.5 137 -43.5s41 -66.167 41 -111.5s-14.833 -83.333 -44.5 -114s-77.167 -46 -142.5 -46h-145zM490 0v450h80v-450h-80zM211 240h-59v-165h58c38.667 0 66.5 6.83301 83.5 20.5s25.5 34.167 25.5 61.5c0 55.333 -36 83 -108 83z
" />
    <glyph glyph-name="afii10094" unicode="&#x44c;" horiz-adv-x="447" 
d="M72 0v450h80v-135h82c64 0 109.667 -14.5 137 -43.5s41 -66.167 41 -111.5s-15 -83.333 -45 -114s-77.667 -46 -143 -46h-152zM219 240h-67v-165h66c72.667 0 109 27.333 109 82c0 55.333 -36 83 -108 83z" />
    <glyph glyph-name="afii10095" unicode="&#x44d;" horiz-adv-x="489" 
d="M142 196v65h221c-6 40.667 -23 71.5 -51 92.5s-63 31.5 -105 31.5c-55.333 0 -101.333 -16.333 -138 -49l-34 60c20 20 46 35.667 78 47s63 17 93 17c71.333 0 129.166 -21.333 173.499 -64s66.5 -99.667 66.5 -171c0 -66 -21.667 -121.667 -65 -167
s-97.666 -68 -162.999 -68c-82 0 -142.333 19 -181 57l38 59c30 -27.333 76 -41 138 -41c42 0 76.333 11.5 103 34.5s42.667 55.167 48 96.5h-222z" />
    <glyph glyph-name="afii10096" unicode="&#x44e;" horiz-adv-x="760" 
d="M72 0l-0.000976562 450h85v-180h98c9.33301 56.667 34.333 102.5 75 137.5s91.334 52.5 152.001 52.5c70 0 126.667 -22.167 170 -66.5s65 -100.5 65 -168.5s-21.833 -124.167 -65.5 -168.5s-100.167 -66.5 -169.5 -66.5c-62.667 0 -114.5 18.5 -155.5 55.5
s-65.167 85.167 -72.5 144.5h-97v-190h-85zM341.999 225c0 -46.667 13.333 -84.167 40 -112.5s61 -42.5 103 -42.5s76.167 14.167 102.5 42.5s39.5 65.833 39.5 112.5c0 46 -13 83.333 -39 112s-60.333 43 -103 43c-42 0 -76.333 -14.333 -103 -43s-40 -66 -40 -112z" />
    <glyph glyph-name="afii10097" unicode="&#x44f;" horiz-adv-x="482" 
d="M269 450l140 0.000976562v-450h-80v150h-87l-110 -150h-97l130 170c-26 6 -48.667 20.5 -68 43.5s-29 51.833 -29 86.5c0 43.333 16 79.166 48 107.499s83 42.5 153 42.5zM153 298.001c0 -22 8.66797 -39.667 26.001 -53s36.666 -20 57.999 -20h92v150h-73
c-35.333 0 -61.333 -7.16699 -78 -21.5s-25 -32.833 -25 -55.5z" />
    <glyph glyph-name="afii10071" unicode="&#x451;" horiz-adv-x="520" 
d="M427 112l25 -63c-43.333 -39.333 -99.666 -59 -168.999 -59c-72.667 0 -131 21.333 -175 64s-66 99.667 -66 171c0 68 20.667 124.167 62 168.5s98 66.5 170 66.5c59.333 0 109 -19.167 149 -57.5s60 -87.833 60 -148.5c0 -20.667 -1.66699 -38.667 -5 -54h-346
c3.33301 -42 19.166 -75 47.499 -99s64.833 -36 109.5 -36c58.667 0 104.667 15.667 138 47zM270 385c-40 0 -72.667 -11.167 -98 -33.5s-40.333 -51.166 -45 -86.499h273c-2 37.333 -14.5 66.666 -37.5 87.999s-53.833 32 -92.5 32zM121 610c0 14 4.5 25.167 13.5 33.5
s20.167 12.5 33.5 12.5c11.333 0 21.5 -4.33301 30.5 -13s13.5 -19.667 13.5 -33c0 -15.333 -4.33301 -27.5 -13 -36.5s-19 -13.5 -31 -13.5c-13.333 0 -24.5 4.5 -33.5 13.5s-13.5 21.167 -13.5 36.5zM324 610c0 13.333 4.66699 24.333 14 33s20.666 13 33.999 13
c11.333 0 21.5 -4.33301 30.5 -13s13.5 -19.667 13.5 -33c0 -15.333 -4.33301 -27.5 -13 -36.5s-19 -13.5 -31 -13.5c-13.333 0 -24.666 4.5 -33.999 13.5s-14 21.167 -14 36.5z" />
    <glyph glyph-name="afii10099" unicode="&#x452;" horiz-adv-x="596" 
d="M5 460l0.00292969 65.002h130v175h80v-175h180v-65h-180v-152c17.333 17.333 39.166 31.666 65.499 42.999s53.5 17 81.5 17c124.667 0 187 -65.667 187 -197c0 -80.667 -15.333 -154.167 -46 -220.5s-73 -116.5 -127 -150.5h-87c60 42.667 104.833 95.167 134.5 157.5
s44.5 126.833 44.5 193.5c0 94.667 -42 142 -126 142c-24.667 0 -48.334 -5.33301 -71.001 -16s-41.334 -24.334 -56.001 -41.001v-236h-80v460h-130z" />
    <glyph glyph-name="afii10100" unicode="&#x453;" horiz-adv-x="362" 
d="M72 0v450h285v-75h-205v-375h-80zM344 674l-120 -143l-48 34l106 157z" />
    <glyph glyph-name="afii10101" unicode="&#x454;" horiz-adv-x="489" 
d="M346 261v-65h-222c6 -42.667 24 -75.167 54 -97.5s66.333 -33.5 109 -33.5c58 0 102 13.667 132 41l33 -59c-40 -38 -98.667 -57 -176 -57c-68.667 0 -124.834 22.167 -168.501 66.5s-65.5 100.5 -65.5 168.5c0 71.333 22.167 128.333 66.5 171s102.5 64 174.5 64
c30 0 60.833 -5.66699 92.5 -17s57.5 -27 77.5 -47l-33 -60c-36.667 32.667 -83 49 -139 49c-41.333 0 -76.166 -10.667 -104.499 -32s-45.833 -52 -52.5 -92h222z" />
    <glyph glyph-name="afii10102" unicode="&#x455;" horiz-adv-x="430" 
d="M300 122c0 16.667 -8.33398 30.166 -25.001 40.499s-36.834 19 -60.501 26s-47.5 15.167 -71.5 24.5s-44.333 24 -61 44s-25 45.333 -25 76c0 38.667 14.167 69.5 42.5 92.5s65.166 34.5 110.499 34.5c66.667 0 118.334 -17.667 155.001 -53l-38 -61
c-32.667 29.333 -70.334 44 -113.001 44c-22 0 -39.5 -5.5 -52.5 -16.5s-19.5 -24.167 -19.5 -39.5c0 -17.333 8.33301 -31.5 25 -42.5s36.834 -20 60.501 -27s47.5 -15 71.5 -24s44.333 -23 61 -42s25 -43.167 25 -72.5c0 -44.667 -16.667 -78.5 -50 -101.5
s-74.666 -34.5 -123.999 -34.5c-34.667 0 -68.167 7.33301 -100.5 22s-54.166 30.667 -65.499 48l45 57c13.333 -15.333 32.833 -28.666 58.5 -39.999s49.5 -17 71.5 -17c22.667 0 41.667 5.5 57 16.5s23 26.167 23 45.5z" />
    <glyph glyph-name="afii10103" unicode="&#x456;" horiz-adv-x="268" 
d="M94 0v450h80v-450h-80zM84 619c0 14 5 25.5 15 34.5s22.333 13.5 37 13.5c13.333 0 24.833 -4.5 34.5 -13.5s14.5 -20.5 14.5 -34.5c0 -16 -4.83301 -28.667 -14.5 -38s-21.167 -14 -34.5 -14c-14.667 0 -27 4.66699 -37 14s-15 22 -15 38z" />
    <glyph glyph-name="afii10104" unicode="&#x457;" horiz-adv-x="293" 
d="M35 608c0 12 4.33301 22 13 30s19 12 31 12c10.667 0 20 -4 28 -12s12 -18 12 -30c0 -12.667 -4 -23.167 -12 -31.5s-17.333 -12.5 -28 -12.5c-12.667 0 -23.167 4 -31.5 12s-12.5 18.667 -12.5 32zM175 608c0 12 4.16699 22 12.5 30s18.5 12 30.5 12
c10.667 0 20 -4 28 -12s12 -18 12 -30c0 -13.333 -4 -24 -12 -32s-17.333 -12 -28 -12c-12 0 -22.167 4 -30.5 12s-12.5 18.667 -12.5 32zM106 0v450h80v-450h-80z" />
    <glyph glyph-name="afii10105" unicode="&#x458;" horiz-adv-x="273" 
d="M178 450v-483c0 -116.667 -47 -175 -141 -175c-42 0 -75.333 9.66699 -100 29l23 64c19.333 -12 39 -18 59 -18c52.667 0 79 35.333 79 106v477h80zM87 619c0 14 5 25.5 15 34.5s22.333 13.5 37 13.5c13.333 0 24.833 -4.5 34.5 -13.5s14.5 -20.5 14.5 -34.5
c0 -16 -4.83301 -28.667 -14.5 -38s-21.167 -14 -34.5 -14c-14.667 0 -27 4.66699 -37 14s-15 22 -15 38z" />
    <glyph glyph-name="afii10106" unicode="&#x459;" horiz-adv-x="742" 
d="M380 0l-0.00195312 370.002h-158l-5 -76c-4 -50 -10 -93.167 -18 -129.5s-17.167 -65.333 -27.5 -87s-22.833 -38.834 -37.5 -51.501s-29.667 -21.167 -45 -25.5s-33 -6.5 -53 -6.5l-6 78c8 -0.666992 15.833 0.5 23.5 3.5s16.334 9.5 26.001 19.5
s18.334 23.333 26.001 40s14.667 40.167 21 70.5s10.5 65.166 12.5 104.499l8 140h313v-135h69c64 0 109.667 -14.5 137 -43.5s41 -66.167 41 -111.5s-15 -83.333 -45 -114s-77.667 -46 -143 -46h-139zM513.998 240.002h-54v-165h53c72.667 0 109 27.333 109 82
c0 55.333 -36 83 -108 83z" />
    <glyph glyph-name="afii10107" unicode="&#x45a;" horiz-adv-x="764" 
d="M72 0v450h80v-175h250v175h80v-145h69c118.667 0 178 -50 178 -150c0 -44.667 -14.833 -81.667 -44.5 -111s-77.167 -44 -142.5 -44h-140v200h-250v-200h-80zM536 230l-54 0.000976562v-155h53c39.333 0 67.333 6.16699 84 18.5s25 31.833 25 58.5
c0 27.333 -8.5 47.166 -25.5 59.499s-44.5 18.5 -82.5 18.5z" />
    <glyph glyph-name="afii10108" unicode="&#x45b;" horiz-adv-x="596" 
d="M5 460l0.00292969 65.002h130v175h80v-175h180v-65h-180v-152c17.333 17.333 39.166 31.666 65.499 42.999s53.5 17 81.5 17c124.667 0 187 -66.667 187 -200v-168h-80v157c0 90.667 -42.333 136 -127 136c-24.667 0 -48.334 -5.33301 -71.001 -16
s-41.334 -24.334 -56.001 -41.001v-236h-80v460h-130z" />
    <glyph glyph-name="afii10109" unicode="&#x45c;" horiz-adv-x="498" 
d="M466 450l-197 -215l216 -235h-111l-203 230l190 220h105zM72 0v450h80v-450h-80zM365 674l-120 -143l-48 34l106 157z" />
    <glyph glyph-name="afii10110" unicode="&#x45e;" horiz-adv-x="491" 
d="M481 450l-180 -450c-32 -78 -60.333 -130.833 -85 -158.5s-53.667 -41.5 -87 -41.5c-28.667 0 -57 9.33301 -85 28l26 61c21.333 -10 38 -15 50 -15c18.667 0 35.5 8 50.5 24s30.167 42 45.5 78l10 24l-216 450h96l132 -286c2.66699 -6 11.667 -28.667 27 -68
c6 22 13 45 21 69l104 285h91zM101 680h75c4 -52.667 29.667 -79 77 -79c44.667 0 69 26.333 73 79h75c0 -40 -13.667 -73.333 -41 -100s-63 -40 -107 -40c-48 0 -85.333 13 -112 39s-40 59.667 -40 101z" />
    <glyph glyph-name="afii10193" unicode="&#x45f;" horiz-adv-x="540" 
d="M72 0v450h80v-375h235v375h80v-450h-160v-125h-75v125h-160z" />
    <glyph glyph-name="afii10146" unicode="&#x462;" horiz-adv-x="639" 
d="M227 700v-100h157v-80h-157v-100c42 3.33301 74.667 5 98 5c176 0 264 -68.667 264 -206c0 -72.667 -24.5 -127.667 -73.5 -165s-118.833 -56 -209.5 -56c-21.333 0 -51 0.333008 -89 1s-63 1 -75 1v520h-132v80h132v100h85zM319 345c-26 0 -56.667 -2 -92 -6v-258
c54 -2 83.667 -3 89 -3c122 0 183 46.333 183 139c0 85.333 -60 128 -180 128z" />
    <glyph glyph-name="afii10194" unicode="&#x463;" horiz-adv-x="506" 
d="M5 375v75h129v250h80v-250h150v-75h-150v-90h79c118.667 0 178 -48.667 178 -146c0 -92.667 -62.333 -139 -187 -139h-150v375h-129zM292 210h-78v-135h78c34 0 58.167 5.66699 72.5 17s21.5 28.333 21.5 51c0 44.667 -31.333 67 -94 67z" />
    <glyph glyph-name="afii10147" unicode="&#x472;" horiz-adv-x="814" 
d="M50 350c0 102 33.668 187.499 101.001 256.499s152.666 103.5 255.999 103.5c102.667 0 187.834 -33.667 255.501 -101s101.5 -153.666 101.5 -258.999c0 -103.333 -34 -189.166 -102 -257.499s-153 -102.5 -255 -102.5c-102.667 0 -187.834 33.667 -255.501 101
s-101.5 153.666 -101.5 258.999zM287.001 356.999c-48.667 0 -96.001 -20.667 -142.001 -62c11.333 -66 41.333 -120 90 -162s106 -63 172 -63c74 0 135.333 23.667 184 71s75.667 108 81 182c-46.667 -31.333 -92.334 -47 -137.001 -47
c-35.333 0 -77.666 13.5 -126.999 40.5s-89.666 40.5 -120.999 40.5zM541 350.999c21.333 0 44.001 5.33301 68.001 16s44 23 60 37c-11.333 66.667 -41.333 121 -90 163s-106 63 -172 63c-71.333 0 -131.833 -23.333 -181.5 -70s-77.834 -107 -84.501 -181
c50.667 35.333 99.667 53 147 53c36 0 79 -13.5 129 -40.5s91.333 -40.5 124 -40.5z" />
    <glyph glyph-name="afii10195" unicode="&#x473;" horiz-adv-x="575" 
d="M42 225c0 68.667 22.5 125 67.5 169s104.167 66 177.5 66s132.5 -22 177.5 -66s67.5 -100.333 67.5 -169s-22.5 -125 -67.5 -169s-104.167 -66 -177.5 -66s-132.5 22 -177.5 66s-67.5 100.333 -67.5 169zM203 227c-28.667 0 -55 -12.333 -79 -37
c6.66699 -42 25.167 -75 55.5 -99s66.166 -36 107.499 -36c43.333 0 80.333 12.833 111 38.5s48.334 61.5 53.001 107.5c-26.667 -22 -54 -33 -82 -33c-23.333 0 -52.333 9.83301 -87 29.5s-61 29.5 -79 29.5zM379 223c26.667 0 50.333 10.667 71 32
c-6 44 -24.167 78.333 -54.5 103s-66.5 37 -108.5 37c-42.667 0 -79.5 -13.167 -110.5 -39.5s-48.833 -62.5 -53.5 -108.5c28 23.333 56 35 84 35c24 0 54.5 -9.83301 91.5 -29.5s63.833 -29.5 80.5 -29.5z" />
    <glyph glyph-name="afii10148" unicode="&#x474;" horiz-adv-x="659" 
d="M547 504l-184 -508.002h-63l-295 704h91l238 -575l148 427c24 70 49.667 115.333 77 136s67.333 24 120 10l-13 -75c-29.333 10.667 -51.5 7.33398 -66.5 -9.99902s-32.5 -53.666 -52.5 -108.999z" />
    <glyph glyph-name="afii10196" unicode="&#x475;" horiz-adv-x="485" 
d="M393 288l-115.997 -292h-58l-214 454h94l114 -243c11.333 -25.333 23.666 -58 36.999 -98c10 32 21 65.333 33 100l49 128c21.333 55.333 43.666 91 66.999 107s58.666 17 105.999 3l-13 -74c-22.667 10.667 -40.5 9.16699 -53.5 -4.5s-28.167 -40.5 -45.5 -80.5z" />
    <glyph glyph-name="afii10050" unicode="&#x490;" horiz-adv-x="505" 
d="M105 0v700h310v125h80v-205h-305v-620h-85z" />
    <glyph glyph-name="afii10098" unicode="&#x491;" horiz-adv-x="362" 
d="M72 0v450h210v105h75v-180h-205v-375h-80z" />
    <glyph glyph-name="uni1E9E" unicode="&#x1e9e;" horiz-adv-x="644" 
d="M499 173c0 16.667 -4.33008 33.499 -12.9971 50.499s-18.5 32.167 -29.5 45.5s-27.667 28.833 -50 46.5s-41 31.667 -56 42l-65.5 43.5l135 191c-24 25.333 -58 38 -102 38c-38.667 0 -69.667 -11.667 -93 -35s-35 -59 -35 -107v-490h-85v488
c0 75.333 19.667 131.5 59 168.5s92 55.5 158 55.5c79.333 0 146.666 -32.667 201.999 -98l-137 -185c134.667 -83.333 202 -172 202 -266c0 -50 -17.5 -91 -52.5 -123s-74.5 -48 -118.5 -48c-62 0 -115.667 20.667 -161 62l38 66
c13.333 -11.333 23.666 -19.666 30.999 -24.999s17.666 -10.5 30.999 -15.5s27.333 -7.5 42 -7.5c26.667 0 50 9.33301 70 28s30 43.667 30 75z" />
    <glyph glyph-name="uni2010" unicode="&#x2010;" horiz-adv-x="389" 
d="M75 235v75h239v-75h-239z" />
    <glyph glyph-name="uni2011" unicode="&#x2011;" horiz-adv-x="389" 
d="M75 235v75h239v-75h-239z" />
    <glyph glyph-name="figuredash" unicode="&#x2012;" horiz-adv-x="594" 
d="M90 319v70h414v-70h-414z" />
    <glyph glyph-name="endash" unicode="&#x2013;" horiz-adv-x="594" 
d="M90 235v70h414v-70h-414z" />
    <glyph glyph-name="emdash" unicode="&#x2014;" horiz-adv-x="804" 
d="M90 235v70h624v-70h-624z" />
    <glyph glyph-name="afii00208" unicode="&#x2015;" horiz-adv-x="804" 
d="M90 235v70h624v-70h-624z" />
    <glyph glyph-name="quoteleft" unicode="&#x2018;" horiz-adv-x="239" 
d="M161 552l-67 -40.999c-19.333 21.333 -29 48.666 -29 81.999c0 68 28.333 118 85 150l37 -36c-31.333 -21.333 -47 -53.333 -47 -96c0 -25.333 7 -45 21 -59z" />
    <glyph glyph-name="quoteright" unicode="&#x2019;" horiz-adv-x="239" 
d="M78 700l67 40c19.333 -20.667 29 -48 29 -82c0 -67.333 -28.333 -117 -85 -149l-37 35c31.333 22 47 54.333 47 97c0 25.333 -7 45 -21 59z" />
    <glyph glyph-name="quotesinglbase" unicode="&#x201a;" horiz-adv-x="239" 
d="M78 35l67 40c19.333 -20.667 29 -48 29 -82c0 -67.333 -28.333 -117 -85 -149l-37 35c31.333 22 47 54.333 47 97c0 25.333 -7 45 -21 59z" />
    </font>
</defs>
</svg>
