<svg width="306" height="157" viewBox="0 0 306 157" fill="none" xmlns="http://www.w3.org/2000/svg">
<path d="M24.3999 27.3C24.1999 27.3 23.8999 27.3 23.6999 27.2C23.4999 27.2 23.1999 27.1 22.9999 27C22.7999 26.9 22.5999 26.8 22.3999 26.7C22.1999 26.6 21.9999 26.4 21.8999 26.3C21.6999 26.1 21.5999 26 21.4999 25.8C21.3999 25.6 21.2999 25.4 21.1999 25.2C21.0999 25 20.9999 24.8 20.9999 24.5C20.9999 24.3 20.8999 24 20.8999 23.8C20.8999 23.6 20.8999 23.3 20.9999 23.1C20.9999 22.9 21.0999 22.7 21.1999 22.4C21.2999 22.2 21.3999 22 21.4999 21.8C21.5999 21.6 21.7999 21.4 21.8999 21.3C22.0999 21.1 22.1999 21 22.3999 20.9C22.5999 20.8 22.7999 20.7 22.9999 20.6C23.1999 20.5 23.3999 20.4 23.6999 20.4C24.1999 20.3 24.5999 20.3 25.0999 20.4C25.2999 20.4 25.5999 20.5 25.7999 20.6C25.9999 20.7 26.1999 20.8 26.3999 20.9C26.5999 21 26.7999 21.2 26.8999 21.3C27.4999 22 27.8999 22.9 27.8999 23.8C27.8999 24.7 27.4999 25.6 26.8999 26.3C26.1999 27 25.2999 27.3 24.3999 27.3Z" fill="#29ABE2"/>
<path d="M86.3999 151.3C84.4999 151.3 82.8999 149.7 82.9999 147.7C82.9999 145.8 84.5999 144.2 86.5999 144.3C88.4999 144.3 90.0999 145.9 89.9999 147.9C89.9999 149.8 88.3999 151.3 86.3999 151.3C86.4999 151.3 86.3999 151.3 86.3999 151.3ZM103.1 146.3C102.6 144.4 103.6 142.5 105.5 142C107.4 141.5 109.3 142.5 109.8 144.4C110.3 146.3 109.3 148.2 107.4 148.7C107.1 148.8 106.7 148.8 106.4 148.8C105 148.8 103.6 147.8 103.1 146.3ZM65.4999 147.6C63.6999 147 62.6999 145 63.3999 143.1C63.9999 141.3 65.9999 140.3 67.8999 141C69.6999 141.6 70.6999 143.6 69.9999 145.5C69.4999 146.9 68.0999 147.8 66.6999 147.8C66.2999 147.8 65.8999 147.7 65.4999 147.6ZM121.8 138.6C120.7 137 121.1 134.8 122.7 133.7C124.3 132.6 126.5 133 127.6 134.6C128.7 136.2 128.3 138.4 126.7 139.5C126.1 139.9 125.4 140.1 124.7 140.1C123.6 140.1 122.5 139.6 121.8 138.6ZM46.7999 137.4C45.2999 136.2 44.9999 134 46.1999 132.5C47.3999 131 49.5999 130.7 51.0999 131.9C52.5999 133.1 52.8999 135.3 51.6999 136.8C50.9999 137.7 49.9999 138.1 48.8999 138.1C48.1999 138.1 47.4999 137.9 46.7999 137.4ZM137.1 125.4C135.6 124.2 135.2 122 136.4 120.5C137.6 119 139.8 118.7 141.3 119.8C142.8 121 143.2 123.2 142 124.7C141.3 125.6 140.3 126.1 139.2 126.1C138.5 126.1 137.7 125.9 137.1 125.4ZM32.2999 121.9C31.1999 120.3 31.6999 118.1 33.2999 117C34.8999 115.9 37.0999 116.3 38.1999 117.9C39.2999 119.5 38.8999 121.7 37.1999 122.8C36.5999 123.2 35.8999 123.4 35.2999 123.4C34.0999 123.4 32.9999 122.9 32.2999 121.9ZM274.9 105.4C274.9 103.5 276.5 101.9 278.4 101.9C280.3 101.9 281.9 103.5 281.9 105.4C281.9 107.3 280.3 108.9 278.4 108.9C276.5 108.9 274.9 107.3 274.9 105.4ZM147.5 108.1C145.7 107.5 144.7 105.5 145.3 103.7C145.9 101.9 147.9 100.9 149.7 101.5C151.5 102.1 152.5 104.1 151.9 105.9C151.4 107.4 150 108.3 148.6 108.3C148.3 108.3 147.9 108.3 147.5 108.1ZM23.3999 102.5C22.8999 100.6 23.9999 98.7 25.7999 98.2C27.6999 97.7 29.5999 98.8 30.0999 100.6C30.5999 102.5 29.4999 104.4 27.6999 104.9C27.3999 105 27.0999 105 26.7999 105C25.1999 105.1 23.7999 104.1 23.3999 102.5ZM274.9 85.2C274.9 83.3 276.5 81.7 278.4 81.7C280.3 81.7 281.9 83.3 281.9 85.2C281.9 87.1 280.3 88.7 278.4 88.7C276.5 88.7 274.9 87.1 274.9 85.2ZM151.9 88.4C150 88.4 148.4 86.8 148.4 84.9C148.4 83 150 81.4 151.9 81.4C153.8 81.4 155.4 83 155.4 84.9C155.4 86.9 153.9 88.4 151.9 88.4ZM20.8999 81.6C20.8999 79.7 22.4999 78.1 24.3999 78.1C26.2999 78.1 27.8999 79.7 27.8999 81.6C27.8999 83.5 26.2999 85.1 24.3999 85.1C22.4999 85.1 20.8999 83.5 20.8999 81.6ZM274.4 65.4C274.1 63.5 275.5 61.7 277.4 61.5C279.3 61.2 281.1 62.6 281.3 64.5C281.5 66.4 280.2 68.2 278.3 68.4C278.1 68.4 278 68.4 277.8 68.4C276.2 68.4 274.7 67.1 274.4 65.4ZM152 68.2C150.1 67.9 148.7 66.2 149 64.3C149.3 62.4 151 61 152.9 61.3C154.8 61.6 156.2 63.3 155.9 65.2C155.7 67 154.2 68.2 152.4 68.2C152.3 68.2 152.2 68.2 152 68.2ZM20.8999 61.3C20.8999 59.4 22.4999 57.8 24.3999 57.8C26.2999 57.8 27.8999 59.4 27.8999 61.3C27.8999 63.2 26.2999 64.8 24.3999 64.8C22.4999 64.8 20.8999 63.3 20.8999 61.3ZM269 47.1C268.2 45.3 268.9 43.3 270.6 42.4C272.3 41.6 274.4 42.3 275.3 44C276.1 45.7 275.4 47.8 273.7 48.7C273.2 48.9 272.7 49 272.2 49C270.9 49.1 269.6 48.4 269 47.1ZM156.7 48.6C155 47.8 154.2 45.7 155.1 43.9C156 42.2 158 41.4 159.8 42.3C161.5 43.1 162.3 45.2 161.4 47C160.8 48.3 159.5 49 158.2 49C157.8 48.9 157.2 48.8 156.7 48.6ZM20.8999 41.1C20.8999 39.2 22.4999 37.6 24.3999 37.6C26.2999 37.6 27.8999 39.2 27.8999 41.1C27.8999 43 26.2999 44.6 24.3999 44.6C22.4999 44.6 20.8999 43 20.8999 41.1ZM258.1 31.5C256.8 30.1 256.8 27.9 258.2 26.6C259.6 25.3 261.8 25.3 263.2 26.7C264.5 28.1 264.5 30.3 263.1 31.7C262.4 32.4 261.5 32.7 260.7 32.7C259.7 32.6 258.8 32.2 258.1 31.5ZM167.4 31.4C166 30.1 166 27.8 167.3 26.5C168.7 25.1 170.9 25.1 172.3 26.4C173.7 27.7 173.7 30 172.4 31.4C171.7 32.1 170.8 32.5 169.9 32.5C169 32.4 168.1 32.1 167.4 31.4ZM242.9 20.1C241.2 19.2 240.5 17.1 241.4 15.4C242.3 13.7 244.4 13 246.1 13.9C247.8 14.8 248.5 16.9 247.6 18.6C247 19.8 245.8 20.5 244.5 20.5C243.9 20.5 243.4 20.4 242.9 20.1ZM183 18.5C182.1 16.8 182.8 14.7 184.5 13.8C186.2 12.9 188.3 13.6 189.2 15.3C190.1 17 189.4 19.1 187.7 20C187.2 20.3 186.6 20.4 186.1 20.4C184.8 20.4 183.6 19.7 183 18.5ZM224.8 14.1C222.9 13.8 221.6 12 221.9 10.1C222.2 8.20003 224 6.90003 225.9 7.20003C227.8 7.50003 229.1 9.30003 228.8 11.2C228.5 12.9 227 14.1 225.3 14.1C225.2 14.2 225 14.1 224.8 14.1ZM201.7 11.2C201.4 9.30003 202.7 7.50003 204.6 7.20003C206.5 6.90003 208.3 8.20003 208.6 10.1C208.9 12 207.6 13.8 205.7 14.1C205.5 14.1 205.3 14.1 205.2 14.1C203.5 14.1 202 12.9 201.7 11.2Z" fill="#00C1EB"/>
<path d="M278.4 132.3C278.2 132.3 277.9 132.3 277.7 132.2C277.5 132.2 277.3 132.1 277 132C276.7 131.9 276.6 131.8 276.4 131.7C276.2 131.6 276 131.4 275.9 131.3C275.2 130.6 274.9 129.8 274.9 128.8C274.9 128.6 274.9 128.3 275 128.1C275 127.9 275.1 127.7 275.2 127.5C275.3 127.3 275.4 127.1 275.5 126.9C275.6 126.7 275.8 126.5 275.9 126.4C276.1 126.2 276.2 126.1 276.4 126C276.6 125.9 276.8 125.8 277 125.7C277.2 125.6 277.4 125.5 277.7 125.5C278.8 125.3 280 125.6 280.9 126.5C281.1 126.7 281.2 126.8 281.3 127C281.4 127.2 281.5 127.4 281.6 127.6C281.7 127.8 281.8 128 281.8 128.2C281.8 128.4 281.9 128.7 281.9 128.9C281.9 129.8 281.5 130.7 280.9 131.4C280.2 132 279.3 132.3 278.4 132.3Z" fill="#29ABE2"/>
<path d="M286.381 110.929L260.473 136.838C257.739 139.571 257.739 144.003 260.473 146.737C263.206 149.471 267.638 149.471 270.372 146.737L296.281 120.828C299.014 118.095 299.014 113.663 296.281 110.929C293.547 108.195 289.115 108.195 286.381 110.929Z" fill="#EB008B"/>
<path d="M296.456 136.909L270.316 110.77C267.582 108.036 263.15 108.036 260.417 110.77C257.683 113.503 257.683 117.935 260.417 120.669L286.556 146.809C289.29 149.542 293.722 149.542 296.456 146.809C299.189 144.075 299.189 139.643 296.456 136.909Z" fill="#EB008B"/>
<path d="M24.3 48.6C37.7205 48.6 48.6 37.7205 48.6 24.3C48.6 10.8795 37.7205 0 24.3 0C10.8795 0 0 10.8795 0 24.3C0 37.7205 10.8795 48.6 24.3 48.6Z" fill="#F7931E"/>
</svg>
