<svg width="136" height="92" viewBox="0 0 136 92" fill="none" xmlns="http://www.w3.org/2000/svg">
<path d="M65.2113 2.49816C68.1172 0.824003 71.2935 0.0204139 74.4021 0.0204137C80.7545 0.0204131 86.9042 3.30175 90.3507 9.1278L93.1215 13.8824C93.5269 14.5521 94.4731 14.5521 94.8785 13.8824L97.6493 9.1278C102.718 0.422206 114.003 -2.59127 122.789 2.43119C131.574 7.45365 134.615 18.637 129.547 27.3426L109.949 60.8926C106.637 66.5178 100.623 70 94 70C87.4448 70 81.3627 66.5178 78.0514 60.8926L58.4534 27.3426C53.385 18.637 56.4261 7.52062 65.2113 2.49816Z" fill="#EB008B"/>
<path d="M19.2113 19.4982C22.1172 17.824 25.2935 17.0204 28.4021 17.0204C34.7545 17.0204 40.9042 20.3018 44.3507 26.1278L47.1215 30.8824C47.5269 31.5521 48.4731 31.5521 48.8785 30.8824L51.6493 26.1278C56.7177 17.4222 68.0034 14.4087 76.7887 19.4312C85.5739 24.4536 88.615 35.637 83.5466 44.3426L63.9486 77.8926C60.6373 83.5178 54.6227 87 48 87C41.4448 87 35.3627 83.5178 32.0514 77.8926L12.4534 44.3426C7.38502 35.637 10.4261 24.5206 19.2113 19.4982Z" fill="#652D90"/>
</svg>
