<svg width="76" height="73" viewBox="0 0 76 73" fill="none" xmlns="http://www.w3.org/2000/svg">
<path d="M75.4318 27.0476C73.4851 21.0686 67.0153 17.785 61.0034 19.74L49.4378 23.4792V11.3885C49.4378 5.10582 44.3039 0 37.9868 0C31.6696 0 26.5357 5.10582 26.5357 11.3885V23.4792L14.9892 19.74C8.95827 17.804 2.5075 21.0686 0.560814 27.0476C-1.38587 33.0265 1.89677 39.461 7.90859 41.397L19.4742 45.1362L12.3363 54.9113C8.61474 59.9982 9.75985 67.116 14.8747 70.8172C16.9168 72.2787 19.2642 73 21.5926 73C25.1425 73 28.6351 71.3677 30.868 68.3118L38.0059 58.5367L45.1437 68.3118C47.3767 71.3866 50.8692 73 54.4191 73C56.7475 73 59.114 72.2977 61.137 70.8172C66.2518 67.116 67.397 59.9982 63.6754 54.9113L56.5375 45.1362L68.1031 41.397C74.0958 39.461 77.3976 33.0265 75.4318 27.0476Z" fill="#EB008B"/>
</svg>
