<svg width="204" height="37" viewBox="0 0 204 37" fill="none" xmlns="http://www.w3.org/2000/svg">
<path d="M4.80595 18.4841C7.26443 18.4841 9.25741 16.4953 9.25741 14.0421C9.25741 11.5888 7.26443 9.6001 4.80595 9.6001C2.34748 9.6001 0.354492 11.5888 0.354492 14.0421C0.354492 16.4953 2.34748 18.4841 4.80595 18.4841Z" fill="#65308F"/>
<path d="M0.354492 24.0308C0.354492 21.5787 2.34862 19.5889 4.80595 19.5889C7.26329 19.5889 9.25741 21.5787 9.25741 24.0308H0.354492Z" fill="#65308F"/>
<path d="M14.7845 18.4841C17.2429 18.4841 19.2359 16.4953 19.2359 14.0421C19.2359 11.5888 17.2429 9.6001 14.7845 9.6001C12.326 9.6001 10.333 11.5888 10.333 14.0421C10.333 16.4953 12.326 18.4841 14.7845 18.4841Z" fill="#F69320"/>
<path d="M24.8338 18.4841C27.2923 18.4841 29.2852 16.4953 29.2852 14.0421C29.2852 11.5888 27.2923 9.6001 24.8338 9.6001C22.3753 9.6001 20.3823 11.5888 20.3823 14.0421C20.3823 16.4953 22.3753 18.4841 24.8338 18.4841Z" fill="#E90E8B"/>
<path d="M10.3643 24.0308C10.3643 21.5787 12.3584 19.5889 14.8157 19.5889C17.2731 19.5889 19.2672 21.5787 19.2672 24.0308H10.3643Z" fill="#F69320"/>
<path d="M20.3823 24.0308C20.3823 21.5787 22.3765 19.5889 24.8338 19.5889C27.2911 19.5889 29.2852 21.5787 29.2852 24.0308H20.3823Z" fill="#E90E8B"/>
<path d="M29.2851 26.2554H0.354492V30.6974H29.2851V26.2554Z" fill="#65308F"/>
<path d="M14.8168 0.713214L11.4805 4.04248L14.8168 7.37175L18.1532 4.04248L14.8168 0.713214Z" fill="#F69320"/>
<path d="M44.3667 30.674H38.188L45.1517 9.61572H52.9869L59.9507 30.674H53.7642L49.1479 15.413H48.983L44.3667 30.674ZM43.2126 22.3619H54.8398V26.6394H43.2126V22.3619Z" fill="#65308F"/>
<path d="M61.9683 30.674V9.61572H71.1224C72.7318 9.61572 74.0822 9.83508 75.1813 10.266C76.2805 10.6968 77.1048 11.3079 77.6622 12.0992C78.2196 12.8904 78.5023 13.8148 78.5023 14.8881C78.5023 15.6637 78.3295 16.3688 77.9919 17.0034C77.6544 17.6379 77.1755 18.1706 76.5631 18.6015C75.9507 19.0324 75.2363 19.3301 74.4198 19.4946V19.6983C75.3226 19.7296 76.147 19.9568 76.8928 20.3799C77.6387 20.8029 78.2275 21.3827 78.6671 22.1191C79.1068 22.8555 79.3266 23.7172 79.3266 24.7122C79.3266 25.8638 79.0283 26.8901 78.4237 27.791C77.8192 28.6919 76.9713 29.397 75.8644 29.9062C74.7574 30.4233 73.4384 30.6818 71.9075 30.6818H61.9683V30.674ZM67.6994 18.1315H70.0468C70.5493 18.1315 70.9889 18.0531 71.3736 17.8964C71.7583 17.7398 72.0567 17.5126 72.2765 17.2149C72.4963 16.9172 72.5984 16.549 72.5984 16.1181C72.5984 15.4679 72.3629 14.9665 71.8996 14.6218C71.4286 14.2771 70.8398 14.1047 70.1253 14.1047H67.6916V18.1315H67.6994ZM67.6994 26.1067H70.3766C71.3422 26.1067 72.0567 25.9265 72.5434 25.5661C73.0223 25.2057 73.2657 24.673 73.2657 23.9679C73.2657 23.4744 73.1558 23.0592 72.9281 22.7145C72.7004 22.3698 72.3786 22.1112 71.9625 21.931C71.5464 21.7509 71.0439 21.6647 70.4629 21.6647H67.6994V26.1067Z" fill="#65308F"/>
<path d="M101.05 17.5124H95.2408C95.2015 17.0345 95.0916 16.5958 94.9189 16.2041C94.7462 15.8124 94.5028 15.4755 94.1966 15.1935C93.8904 14.9115 93.5214 14.6921 93.0896 14.5354C92.6578 14.3787 92.1632 14.3004 91.6136 14.3004C90.648 14.3004 89.8393 14.5354 89.1799 14.9976C88.5204 15.4677 88.0179 16.1336 87.6725 17.0032C87.3349 17.8728 87.1622 18.9226 87.1622 20.1369C87.1622 21.4295 87.3349 22.5028 87.6803 23.3724C88.0258 24.242 88.5282 24.8922 89.1877 25.3231C89.8472 25.754 90.6401 25.9733 91.5665 25.9733C92.0925 25.9733 92.5715 25.9028 92.9876 25.7696C93.4036 25.6365 93.7726 25.4406 94.0788 25.1899C94.385 24.9392 94.6441 24.6259 94.8404 24.2655C95.0366 23.9051 95.1701 23.4977 95.2408 23.0512L101.05 23.0904C100.98 23.9834 100.729 24.8844 100.297 25.8088C99.8649 26.7332 99.2526 27.5793 98.4596 28.3628C97.6667 29.1383 96.6853 29.7651 95.5155 30.243C94.3458 30.713 92.9875 30.9559 91.4409 30.9559C89.5017 30.9559 87.7667 30.5407 86.2279 29.7102C84.6891 28.8798 83.4801 27.6577 82.593 26.0517C81.7058 24.4378 81.2583 22.4715 81.2583 20.1369C81.2583 17.7944 81.7137 15.8202 82.6165 14.2064C83.5194 12.5926 84.7441 11.3783 86.2829 10.5557C87.8217 9.73308 89.541 9.31787 91.4331 9.31787C92.7677 9.31787 93.9925 9.49806 95.1152 9.86626C96.2378 10.2266 97.2192 10.7594 98.0592 11.4566C98.9071 12.1538 99.5823 13.0078 100.1 14.0262C100.626 15.0368 100.941 16.2041 101.05 17.5124Z" fill="#65308F"/>
<path d="M109.419 30.674V9.61572H124.258V14.2222H115.151V17.8416H123.355V22.4481H115.151V30.674H109.419Z" fill="#65308F"/>
<path d="M130.522 30.9165C129.51 30.9165 128.622 30.752 127.845 30.4152C127.068 30.0861 126.463 29.5769 126.024 28.8953C125.584 28.2137 125.364 27.352 125.364 26.3022C125.364 25.4404 125.513 24.704 125.804 24.0851C126.102 23.4741 126.51 22.9727 127.044 22.581C127.57 22.1893 128.191 21.8916 128.897 21.6879C129.604 21.4842 130.365 21.351 131.182 21.2883C132.069 21.2178 132.783 21.1395 133.317 21.0376C133.851 20.9358 134.244 20.7948 134.487 20.6146C134.723 20.4344 134.848 20.1916 134.848 19.886V19.8468C134.848 19.4395 134.691 19.1183 134.377 18.8989C134.063 18.6796 133.655 18.5699 133.16 18.5699C132.618 18.5699 132.179 18.6874 131.833 18.9224C131.496 19.1574 131.292 19.5178 131.221 20.0114H125.984C126.055 19.0478 126.361 18.1625 126.903 17.3556C127.453 16.5408 128.246 15.8906 129.298 15.4049C130.35 14.9113 131.661 14.6685 133.231 14.6685C134.361 14.6685 135.382 14.8016 136.285 15.068C137.188 15.3344 137.949 15.7026 138.585 16.1648C139.213 16.6348 139.7 17.1832 140.03 17.81C140.359 18.4367 140.532 19.1183 140.532 19.8547V30.6737H135.217V28.4488H135.092C134.777 29.0363 134.393 29.5142 133.945 29.8746C133.498 30.235 132.98 30.5013 132.407 30.6658C131.841 30.8382 131.213 30.9165 130.522 30.9165ZM132.375 27.3442C132.807 27.3442 133.215 27.258 133.6 27.0778C133.985 26.8976 134.291 26.6469 134.534 26.31C134.777 25.9732 134.895 25.5658 134.895 25.0879V23.7718C134.746 23.8344 134.581 23.8893 134.416 23.9441C134.251 23.999 134.071 24.0538 133.882 24.1008C133.694 24.1478 133.498 24.1948 133.286 24.234C133.074 24.2732 132.862 24.3123 132.634 24.3437C132.195 24.4142 131.833 24.5239 131.559 24.6805C131.284 24.8372 131.072 25.0252 130.938 25.2446C130.805 25.464 130.734 25.7146 130.734 25.9888C130.734 26.4276 130.891 26.7644 131.197 26.9995C131.504 27.2266 131.896 27.3442 132.375 27.3442Z" fill="#65308F"/>
<path d="M143.256 30.6741V14.8804H148.658V17.8809H148.823C149.152 16.8938 149.718 16.1104 150.511 15.5385C151.304 14.9588 152.253 14.6768 153.353 14.6768C154.467 14.6768 155.425 14.9666 156.226 15.5542C157.027 16.1417 157.514 16.9173 157.678 17.8809H157.843C158.11 16.9173 158.683 16.1417 159.555 15.5542C160.426 14.9666 161.447 14.6768 162.625 14.6768C164.14 14.6768 165.372 15.1625 166.314 16.1339C167.257 17.1054 167.728 18.4058 167.728 20.0197V30.6741H162.036V21.4612C162.036 20.7717 161.863 20.2234 161.51 19.8316C161.156 19.4399 160.685 19.2441 160.097 19.2441C159.516 19.2441 159.052 19.4399 158.715 19.8316C158.377 20.2234 158.204 20.7717 158.204 21.4612V30.6741H152.764V21.4612C152.764 20.7717 152.591 20.2234 152.238 19.8316C151.884 19.4399 151.413 19.2441 150.825 19.2441C150.432 19.2441 150.094 19.3303 149.812 19.5104C149.529 19.6906 149.309 19.9413 149.16 20.2782C149.003 20.6072 148.925 21.0068 148.925 21.469V30.682H143.256V30.6741Z" fill="#65308F"/>
<path d="M170.546 30.6739V14.8802H176.238V30.6739H170.546ZM173.396 13.2351C172.627 13.2351 171.967 12.9844 171.418 12.4751C170.868 11.9659 170.594 11.3549 170.594 10.6419C170.594 9.92903 170.868 9.31797 171.418 8.80874C171.967 8.29952 172.627 8.04883 173.396 8.04883C174.174 8.04883 174.833 8.29952 175.383 8.80874C175.932 9.31797 176.199 9.92903 176.199 10.6419C176.199 11.3549 175.924 11.9659 175.383 12.4751C174.833 12.9765 174.166 13.2351 173.396 13.2351Z" fill="#65308F"/>
<path d="M184.812 9.61572V30.674H179.12V9.61572H184.812Z" fill="#65308F"/>
<path d="M191.163 36.5732C190.511 36.5732 189.891 36.5262 189.294 36.4244C188.706 36.3226 188.187 36.1894 187.74 36.017L188.98 31.9824C189.679 32.2253 190.276 32.335 190.77 32.3036C191.265 32.2723 191.626 32.0529 191.862 31.6534L191.987 31.3635L186.421 14.8647H192.356L194.908 25.8091H195.073L197.671 14.8647H203.646L197.875 31.9746C197.585 32.8363 197.169 33.6198 196.627 34.3092C196.078 34.9986 195.363 35.547 194.476 35.9543C193.589 36.3774 192.482 36.5732 191.163 36.5732Z" fill="#65308F"/>
</svg>
