<?xml version="1.0" standalone="no"?>
<!DOCTYPE svg PUBLIC "-//W3C//DTD SVG 1.1//EN" "http://www.w3.org/Graphics/SVG/1.1/DTD/svg11.dtd" >
<svg>
<metadata>
Created by FontForge 20090914 at Wed Sep  9 19:09:49 2020
 By www-data
Copyright (c) 2015 by Typetype. Designer Ivan Gladkikh, technical designers Maria Mizernitskaya, Nadyr Rakhimov. All rights reserved.
</metadata>
<defs>
<font id="TTFirs-Italic" horiz-adv-x="540" >
  <font-face 
    font-family="TTFirs-Italic"
    font-weight="400"
    font-style="italic"
    font-stretch="normal"
    units-per-em="1000"
    panose-1="2 0 5 3 2 0 0 9 0 3"
    ascent="769"
    descent="-231"
    x-height="460"
    cap-height="690"
    bbox="-155.999 -270.001 1193 965"
    underline-thickness="50"
    underline-position="-150"
    unicode-range="U+000D-U+F6D4"
  />
<missing-glyph horiz-adv-x="0" 
 />
    <glyph glyph-name=".notdef" horiz-adv-x="0" 
 />
    <glyph glyph-name=".null" horiz-adv-x="0" 
 />
    <glyph glyph-name=".null" horiz-adv-x="0" 
 />
    <glyph glyph-name="nonmarkingreturn" unicode="&#xd;" horiz-adv-x="0" 
 />
    <glyph glyph-name="space" unicode=" " horiz-adv-x="170" 
 />
    <glyph glyph-name="exclam" unicode="!" horiz-adv-x="250" 
d="M146 690h50l-50 -360l-28 -130h-30l8 130zM113 25c-1.33301 -10 -5.83301 -18.333 -13.5 -25s-16.5 -10 -26.5 -10s-17.833 3.33301 -23.5 10s-7.83398 15 -6.50098 25s5.83301 18.333 13.5 25s16.5 10 26.5 10s17.833 -3.33301 23.5 -10s7.83398 -15 6.50098 -25z" />
    <glyph glyph-name="quotedbl" unicode="&#x22;" horiz-adv-x="300" 
d="M246 690h40l-19 -140l-24 -100h-20l4 100zM106 690h40l-19 -140l-24 -100h-20l4 100z" />
    <glyph glyph-name="numbersign" unicode="#" horiz-adv-x="640" 
d="M348 200h-180l-88 -200h-50l88 200h-120l6 45h130l88 200h-125l6 45h135l88 200h50l-88 -200h180l88 200h50l-88 -200h120l-6 -45h-130l-88 -200h125l-6 -45h-135l-88 -200h-50zM184 245h180l88 200h-180z" />
    <glyph glyph-name="dollar" unicode="$" horiz-adv-x="545" 
d="M209 70c-26 1.33301 -48.998 6.00684 -68.998 14.0068s-37.5 18.5 -52.5 31.5s-27.333 27.667 -37 44s-16.834 33.166 -21.501 50.499l46 10c4 -15.333 10 -29.666 18 -42.999s18.333 -25 31 -35s28 -17.833 46 -23.5s39.667 -8.5 65 -8.5
c28.667 0 54.167 3.16699 76.5 9.5s41.333 15 57 26s28 23.833 37 38.5s14.5 30 16.5 46c3.33301 23.333 -3.16699 41 -19.5 53s-37.5 21.667 -63.5 29s-54.333 13.833 -85 19.5s-58.834 13.667 -84.501 24s-46.334 24.666 -62.001 42.999s-21.167 43.833 -16.5 76.5
c2.66699 18.667 9.16699 36.5 19.5 53.5s24 32 41 45s36.833 23.667 59.5 32s48 13.166 76 14.499l14 100h45l-14 -100c24.667 -1.33301 46.5 -5.83301 65.5 -13.5s35.5 -17.5 49.5 -29.5s25.5 -26 34.5 -42s16.167 -32.667 21.5 -50l-47 -10
c-4 14.667 -9.66699 28.5 -17 41.5s-16.833 24.167 -28.5 33.5s-26 16.666 -43 21.999s-37.5 8 -61.5 8c-26 0 -49.167 -2.83301 -69.5 -8.5s-37.666 -13.334 -51.999 -23.001s-25.5 -20.834 -33.5 -33.501s-13 -26 -15 -40c-3.33301 -25.333 3 -44.5 19 -57.5
s37.167 -23.167 63.5 -30.5s54.833 -13.833 85.5 -19.5s58.834 -13.334 84.501 -23.001s46.334 -23.334 62.001 -41.001s21.167 -42.167 16.5 -73.5c-2.66699 -20 -9.83398 -39.333 -21.501 -58s-26.834 -35.334 -45.501 -50.001s-40.5 -26.667 -65.5 -36
s-51.833 -14.666 -80.5 -15.999l-14 -100h-45z" />
    <glyph glyph-name="percent" unicode="%" horiz-adv-x="710" 
d="M120 0h-55l521 690h55zM355 535c-3.33301 -25.333 -10.333 -48 -21 -68s-23.5 -37.333 -38.5 -52s-31.833 -25.834 -50.5 -33.501s-38 -11.5 -58 -11.5s-38.333 3.83301 -55 11.5s-30.5 18.834 -41.5 33.501s-18.833 32 -23.5 52s-5.33398 42.667 -2.00098 68
c3.33301 24.667 10.333 47.167 21 67.5s23.5 37.833 38.5 52.5s31.833 25.834 50.5 33.501s38 11.5 58 11.5s38.333 -3.83301 55 -11.5s30.5 -18.834 41.5 -33.501s18.833 -32.167 23.5 -52.5s5.33398 -42.833 2.00098 -67.5zM310 535
c2.66699 18.667 2.16895 35.667 -1.49805 51s-9.5 28.5 -17.5 39.5s-17.5 19.5 -28.5 25.5s-22.833 9 -35.5 9s-25.334 -3 -38.001 -9s-24.5 -14.5 -35.5 -25.5s-20.333 -24.167 -28 -39.5s-12.834 -32.333 -15.501 -51s-2.33398 -35.667 0.999023 -51s9 -28.5 17 -39.5
s17.5 -19.5 28.5 -25.5s22.833 -9 35.5 -9s25.334 3 38.001 9s24.5 14.5 35.5 25.5s20.5 24.167 28.5 39.5s13.333 32.333 16 51zM641.002 155c-3.33301 -25.333 -10.333 -48 -21 -68s-23.5 -37.333 -38.5 -52s-31.833 -25.834 -50.5 -33.501s-38 -11.5 -58 -11.5
s-38.333 3.83301 -55 11.5s-30.5 18.834 -41.5 33.501s-18.833 32 -23.5 52s-5.33398 42.667 -2.00098 68c3.33301 24.667 10.333 47.167 21 67.5s23.5 37.833 38.5 52.5s31.833 25.834 50.5 33.501s38 11.5 58 11.5s38.333 -3.83301 55 -11.5s30.5 -18.834 41.5 -33.501
s18.833 -32.167 23.5 -52.5s5.33398 -42.833 2.00098 -67.5zM596.002 155c2.66699 18.667 2.33203 35.667 -1.00098 51s-9 28.5 -17 39.5s-17.5 19.5 -28.5 25.5s-22.833 9 -35.5 9s-25.334 -3 -38.001 -9s-24.5 -14.5 -35.5 -25.5s-20.5 -24.167 -28.5 -39.5
s-13.333 -32.333 -16 -51s-2.16699 -35.667 1.5 -51s9.5 -28.5 17.5 -39.5s17.5 -19.5 28.5 -25.5s22.833 -9 35.5 -9s25.334 3 38.001 9s24.5 14.5 35.5 25.5s20.333 24.167 28 39.5s12.834 32.333 15.501 51z" />
    <glyph glyph-name="ampersand" unicode="&#x26;" horiz-adv-x="600" 
d="M159 640l6.99902 50.002h390l-6 -45h-335l-1 -5l326 -640h-55l-36 70c-18 -18.667 -38.333 -35.334 -61 -50.001c-19.333 -12.667 -42.833 -24.167 -70.5 -34.5s-58.5 -15.5 -92.5 -15.5c-32.667 0 -61.667 5.33301 -87 16s-46.333 25.167 -63 43.5s-28.667 40 -36 65
s-9 51.833 -5 80.5c2.66699 22.667 8.33398 43.5 17.001 62.5s18.667 36.5 30 52.5s24 30.333 38 43s28 24 42 34c32.667 23.333 68.667 42.666 108 57.999zM231.999 15.002c28 0 53.833 4.8291 77.5 14.4961s44.5 20.5 62.5 32.5c21.333 14 40.666 30 57.999 48l-141 275
c-34.667 -12 -66 -27.667 -94 -47c-12 -8 -24.167 -17.5 -36.5 -28.5s-23.5 -23.167 -33.5 -36.5s-18.667 -28.166 -26 -44.499s-12.333 -34.166 -15 -53.499c-3.33301 -22.667 -2.16602 -43.667 3.50098 -63s15 -36.166 28 -50.499s29.333 -25.666 49 -33.999
s42.167 -12.5 67.5 -12.5z" />
    <glyph glyph-name="quotesingle" unicode="'" horiz-adv-x="160" 
d="M127 550l-24 -100h-20l4 100l19 140h40z" />
    <glyph glyph-name="parenleft" unicode="(" horiz-adv-x="340" 
d="M110 290c-9.33301 -68 -7.99609 -128.332 4.00391 -180.999s27.667 -97 47 -133c22 -42.667 48.667 -79.667 80 -111l-25 -35c-36.667 32 -68 71 -94 117c-11.333 19.333 -21.833 41 -31.5 65s-17.667 50.333 -24 79s-10.333 59.667 -12 93
s0.166016 68.666 5.49902 105.999s13.5 72.5 24.5 105.5s23.667 63.833 38 92.5s29.666 55 45.999 79s32.833 45.667 49.5 65c38.667 45.333 81 84.666 127 117.999l15 -35c-40 -32 -77 -69 -111 -111c-14.667 -18 -29.167 -38.167 -43.5 -60.5
s-27.833 -46.666 -40.5 -72.999s-23.834 -54.5 -33.501 -84.5s-16.834 -62 -21.501 -96z" />
    <glyph glyph-name="parenright" unicode=")" horiz-adv-x="340" 
d="M210 290c4.66699 34 6.32715 66 4.99414 96s-4.5 58.167 -9.5 84.5s-11.667 50.666 -20 72.999s-17.166 42.5 -26.499 60.5c-22 42 -48.333 79 -79 111l25 35c36 -33.333 67 -72.666 93 -117.999c10.667 -19.333 21 -41 31 -65s18.167 -50.333 24.5 -79
s10.333 -59.5 12 -92.5s-0.166016 -68.167 -5.49902 -105.5s-13.5 -72.666 -24.5 -105.999s-23.667 -64.333 -38 -93s-29.666 -55 -45.999 -79s-32.833 -45.667 -49.5 -65c-38.667 -46 -80.667 -85 -126 -117l-15 35c39.333 31.333 76 68.333 110 111
c14 18 28.333 38.167 43 60.5s28.334 46.666 41.001 72.999s23.834 54.5 33.501 84.5s16.834 62 21.501 96z" />
    <glyph glyph-name="asterisk" unicode="*" horiz-adv-x="380" 
d="M213 520l-97 -115l-27 20l91 110h-105l5 35h120l16 120h40l-16 -120h120l-5 -35h-105l59 -110l-33 -20z" />
    <glyph glyph-name="plus" unicode="+" horiz-adv-x="445" 
d="M241 330h160l-6 -45h-160l-24 -170h-45l24 170h-160l6 45h160l24 170h45z" />
    <glyph glyph-name="comma" unicode="," horiz-adv-x="170" 
d="M3 25c1.33301 10 5.83203 18.332 13.499 24.999s16.5 10 26.5 10s17.833 -3.33301 23.5 -10s7.83398 -15 6.50098 -25c-0.666992 -4 -2 -8 -4 -12s-4.33301 -7.66699 -7 -11c-2.66699 -4 -5.66699 -8 -9 -12l-56 -80h-20l42 85c-3.33301 2 -6.33301 4.33301 -9 7
c-2 2.66699 -4 5.83398 -6 9.50098s-2.33301 8.16699 -1 13.5z" />
    <glyph glyph-name="hyphen" unicode="-" horiz-adv-x="430" 
d="M30 285l6 45h350l-6 -45h-350z" />
    <glyph glyph-name="period" unicode="." horiz-adv-x="170" 
d="M3 25c1.33301 10 5.83301 18.333 13.5 25s16.5 10 26.5 10s17.833 -3.33301 23.5 -10s7.83398 -15 6.50098 -25s-5.83301 -18.333 -13.5 -25s-16.5 -10 -26.5 -10s-17.833 3.33301 -23.5 10s-7.83398 15 -6.50098 25z" />
    <glyph glyph-name="slash" unicode="/" horiz-adv-x="380" 
d="M346 690h50l-366 -690h-50z" />
    <glyph glyph-name="zero" unicode="0" horiz-adv-x="730" 
d="M618 345c6.66699 50 5.50195 95.333 -3.49805 136s-23.5 75.334 -43.5 104.001s-44.167 50.834 -72.5 66.501s-58.166 23.5 -89.499 23.5s-63.333 -7.83301 -96 -23.5s-63 -37.834 -91 -66.501s-52.333 -63.334 -73 -104.001s-34.334 -86 -41.001 -136
c-7.33301 -50 -6.33301 -95.333 3 -136s24 -75.334 44 -104.001s44.167 -50.834 72.5 -66.501s58.166 -23.5 89.499 -23.5s63.333 7.83301 96 23.5s63 37.834 91 66.501s52.167 63.334 72.5 104.001s34.166 86 41.499 136zM58.002 345c8 56 23.833 107.167 47.5 153.5
s52 85.833 85 118.5s69.167 58 108.5 76s78.333 27 117 27s75 -9 109 -27s63 -43.333 87 -76s41.333 -72.167 52 -118.5s12 -97.5 4 -153.5s-23.833 -107.167 -47.5 -153.5s-52 -85.833 -85 -118.5s-69.167 -58 -108.5 -76s-78.333 -27 -117 -27s-75 9 -109 27
s-63 43.333 -87 76s-41.333 72.167 -52 118.5s-12 97.5 -4 153.5z" />
    <glyph glyph-name="one" unicode="1" horiz-adv-x="305" 
d="M196 580c-10 -11.333 -21.668 -21.334 -35.001 -30.001c-11.333 -7.33301 -25.166 -14.166 -41.499 -20.499s-35.166 -9.5 -56.499 -9.5l5 40c17.333 0 34.5 3.5 51.5 10.5s32.167 16.5 45.5 28.5s24.666 25.833 33.999 41.5s15 32.167 17 49.5h45l-96 -690h-50z" />
    <glyph glyph-name="two" unicode="2" horiz-adv-x="585" 
d="M502 515c3.33301 22.667 2.16992 43.666 -3.49707 62.999s-15.167 36.166 -28.5 50.499s-30.333 25.666 -51 33.999s-44 12.5 -70 12.5c-28.667 0 -54.5 -3.5 -77.5 -10.5s-43.667 -16.833 -62 -29.5s-34.5 -27.5 -48.5 -44.5s-26 -35.5 -36 -55.5l-49 10
c10.667 24 24.5 46.5 41.5 67.5s37.167 39.5 60.5 55.5s49.833 28.667 79.5 38s62.5 14 98.5 14c34 0 64 -5.33301 90 -16s47.5 -25.167 64.5 -43.5s29.167 -40 36.5 -65s9 -51.833 5 -80.5c-4 -29.333 -13.833 -55.166 -29.5 -77.499s-34.834 -42.5 -57.501 -60.5
s-47.834 -34.5 -75.501 -49.5l-85 -44l-85.5 -44c-28 -15 -53.333 -31.833 -76 -50.5s-41.834 -39.667 -57.501 -63s-25.5 -50.333 -29.5 -81h435l-6 -45h-485l4 35c6.66699 49.333 23.167 90.833 49.5 124.5s57.166 62.834 92.499 87.501s72.833 46.5 112.5 65.5
s76.834 38 111.501 57s64.167 39.833 88.5 62.5s38.833 50.334 43.5 83.001z" />
    <glyph glyph-name="three" unicode="3" horiz-adv-x="590" 
d="M54 175c5.33301 -24 13.001 -45.835 23.001 -65.502s23 -36.5 39 -50.5s35.167 -24.833 57.5 -32.5s48.5 -11.5 78.5 -11.5c27.333 0 53.333 4.66699 78 14s46.5 22.166 65.5 38.499s34.833 35.333 47.5 57s20.667 45.167 24 70.5c3.33301 24.667 1.83301 48 -4.5 70
s-16.833 41.167 -31.5 57.5s-33 29.166 -55 38.499s-46.667 14 -74 14h-95l6 40l271 225l1 5h-360l6 45h430l-7 -50l-260 -215v-5h15c34.667 0 65.834 -5.83301 93.501 -17.5s50.667 -27.667 69 -48s31.5 -44.166 39.5 -71.499s10 -56.666 6 -87.999
c-4.66699 -31.333 -14.834 -60.666 -30.501 -87.999s-35.5 -51.166 -59.5 -71.499s-51.667 -36.333 -83 -48s-64.333 -17.5 -99 -17.5c-37.333 0 -70.166 5 -98.499 15s-52.333 23.667 -72 41s-35.334 38 -47.001 62s-19.834 49.667 -24.501 77z" />
    <glyph glyph-name="four" unicode="4" horiz-adv-x="605" 
d="M380 0l23 165h-390l6 45l312 480h55l-312 -480h335l28 200h50l-28 -200h95l-6 -45h-95l-23 -165h-50z" />
    <glyph glyph-name="five" unicode="5" horiz-adv-x="570" 
d="M102 375l99.001 314.998h335l-6 -45h-290l-71 -225h120c34.667 0 65.834 -5.83301 93.501 -17.5s50.667 -27.667 69 -48s31.5 -44.166 39.5 -71.499s10 -56.666 6 -87.999c-4.66699 -31.333 -14.834 -60.666 -30.501 -87.999s-35.5 -51.166 -59.5 -71.499
s-51.667 -36.333 -83 -48s-64.333 -17.5 -99 -17.5c-37.333 0 -70.166 5 -98.499 15s-52.333 23.667 -72 41s-35.334 38 -47.001 62s-19.834 49.667 -24.501 77l51 10c5.33301 -24 13 -45.833 23 -65.5s23 -36.5 39 -50.5s35.167 -24.833 57.5 -32.5s48.5 -11.5 78.5 -11.5
c27.333 0 53.333 4.66699 78 14s46.5 22.166 65.5 38.499s34.833 35.333 47.5 57s20.667 45.167 24 70.5c3.33301 24.667 1.83301 48 -4.5 70s-16.833 41.167 -31.5 57.5s-33 29.166 -55 38.499s-46.667 14 -74 14h-180z" />
    <glyph glyph-name="six" unicode="6" horiz-adv-x="600" 
d="M30 215c3.33301 25.333 9.67188 48.834 19.0049 70.501s18.666 40.167 27.999 55.5c11.333 18 23.666 34.333 36.999 49l277 300h60l-246 -260h5c7.33301 5.33301 16.666 10.333 27.999 15c9.33301 3.33301 20.833 6.66602 34.5 9.99902s29.167 5 46.5 5
c37.333 0 70.833 -6.16699 100.5 -18.5s54.167 -29.5 73.5 -51.5s33.166 -48 41.499 -78s10.166 -62.333 5.49902 -97c-5.33301 -35.333 -16.333 -67.833 -33 -97.5s-37.834 -55.5 -63.501 -77.5s-55 -39.167 -88 -51.5s-68.167 -18.5 -105.5 -18.5
s-70.833 6.16699 -100.5 18.5s-54.167 29.5 -73.5 51.5s-33.166 47.833 -41.499 77.5s-9.83301 62.167 -4.5 97.5zM80.0059 215.001c-4 -28.667 -2.66699 -55.167 4 -79.5s17.834 -45.5 33.501 -63.5s35.334 -32 59.001 -42s50.5 -15 80.5 -15s58.333 5 85 15
s50.167 24 70.5 42s37.333 39.167 51 63.5s22.5 50.833 26.5 79.5s2.66699 55.167 -4 79.5s-17.834 45.5 -33.501 63.5s-35.334 32 -59.001 42s-50.5 15 -80.5 15s-58.333 -5 -85 -15s-50.167 -24 -70.5 -42s-37.333 -39.167 -51 -63.5s-22.5 -50.833 -26.5 -79.5z" />
    <glyph glyph-name="seven" unicode="7" horiz-adv-x="480" 
d="M55 0l389 640l1 5h-385l6 45h440l-7 -50l-389 -640h-55z" />
    <glyph glyph-name="eight" unicode="8" horiz-adv-x="630" 
d="M314 350c-34 0 -64.9971 -4.66699 -92.9971 -14s-52.333 -21.833 -73 -37.5s-37.334 -33.667 -50.001 -54s-20.334 -41.833 -23.001 -64.5c-3.33301 -21.333 -1.5 -41.833 5.5 -61.5s18.667 -37.167 35 -52.5s37.166 -27.666 62.499 -36.999s55 -14 89 -14
s64.833 4.66699 92.5 14s51.834 21.666 72.501 36.999s37.167 32.833 49.5 52.5s20.166 40.167 23.499 61.5c2.66699 22.667 0.666992 44.167 -6 64.5s-18.167 38.333 -34.5 54s-37 28.167 -62 37.5s-54.5 14 -88.5 14zM359.003 675c-28.667 0 -55 -4 -79 -12
s-44.833 -18.5 -62.5 -31.5s-31.834 -28 -42.501 -45s-17.334 -34.167 -20.001 -51.5s-0.833984 -34.5 5.49902 -51.5s16.5 -32 30.5 -45s31.833 -23.5 53.5 -31.5s46.834 -12 75.501 -12s55 4 79 12s45 18.5 63 31.5s32.333 28 43 45s17.334 34.167 20.001 51.5
s0.833984 34.5 -5.49902 51.5s-16.5 32 -30.5 45s-32 23.5 -54 31.5s-47.333 12 -76 12zM366.003 720c34.667 0 65.6641 -5.5 92.9971 -16.5s50.166 -25.167 68.499 -42.5s31.5 -37 39.5 -59s10.667 -44.333 8 -67c-5.33301 -34 -16.666 -61.333 -33.999 -82
s-35.666 -36.667 -54.999 -48c-22 -13.333 -46.667 -23 -74 -29v-6c30.667 -6 57.334 -17 80.001 -33c10 -6.66699 19.333 -14.834 28 -24.501s16 -20.834 22 -33.501s10.333 -27.167 13 -43.5s2.66699 -34.833 0 -55.5c-4 -28 -13.833 -54.667 -29.5 -80
s-36.334 -47.666 -62.001 -66.999s-55.667 -34.666 -90 -45.999s-72.166 -17 -113.499 -17s-77.5 5.66699 -108.5 17s-56.5 26.666 -76.5 45.999s-34.333 41.666 -43 66.999s-11 52 -7 80c2.66699 20.667 7.66699 39.167 15 55.5s15.833 30.833 25.5 43.5
s20.334 23.834 32.001 33.501s23.167 17.834 34.5 24.501c26.667 16 56.667 27 90 33v6c-25.333 6 -47.333 15.667 -66 29c-8 6 -15.667 12.833 -23 20.5s-13.5 16.834 -18.5 27.501s-8.5 22.667 -10.5 36s-1.66699 28.666 1 45.999c2.66699 22.667 11.334 45 26.001 67
s33.5 41.667 56.5 59s49.667 31.5 80 42.5s63.166 16.5 98.499 16.5z" />
    <glyph glyph-name="nine" unicode="9" horiz-adv-x="600" 
d="M566 475c-3.33301 -26 -9.6709 -49.668 -19.0039 -71.001s-18.666 -39.666 -27.999 -54.999c-11.333 -18 -23.666 -34.333 -36.999 -49l-277 -300h-60l246 260h-5c-8 -6 -17.333 -11 -28 -15c-9.33301 -4 -20.833 -7.5 -34.5 -10.5s-29.167 -4.5 -46.5 -4.5
c-37.333 0 -70.833 6.16699 -100.5 18.5s-54.167 29.5 -73.5 51.5s-33.166 47.833 -41.499 77.5s-10.166 62.167 -5.49902 97.5c4.66699 34.667 15.5 67 32.5 97s38.333 56 64 78s55 39.167 88 51.5s68.167 18.5 105.5 18.5s70.833 -6.16699 100.5 -18.5
s54.167 -29.5 73.5 -51.5s33 -48 41 -78s9.66699 -62.333 5 -97zM515.995 474.999c4 28.667 2.66699 55.167 -4 79.5s-17.834 45.5 -33.501 63.5s-35.334 32 -59.001 42s-50.5 15 -80.5 15s-58.333 -5 -85 -15s-50.167 -24 -70.5 -42s-37.333 -39.167 -51 -63.5
s-22.5 -50.833 -26.5 -79.5s-2.66699 -55.167 4 -79.5s17.834 -45.5 33.501 -63.5s35.334 -32 59.001 -42s50.5 -15 80.5 -15s58.333 5 85 15s50.167 24 70.5 42s37.333 39.167 51 63.5s22.5 50.833 26.5 79.5z" />
    <glyph glyph-name="colon" unicode=":" horiz-adv-x="170" 
d="M3 25c1.33301 10 5.83301 18.333 13.5 25s16.5 10 26.5 10s17.833 -3.33301 23.5 -10s7.83398 -15 6.50098 -25s-5.83301 -18.333 -13.5 -25s-16.5 -10 -26.5 -10s-17.833 3.33301 -23.5 10s-7.83398 15 -6.50098 25zM59 425c1.33301 10 5.83301 18.333 13.5 25
s16.5 10 26.5 10s17.833 -3.33301 23.5 -10s7.83398 -15 6.50098 -25s-5.83301 -18.333 -13.5 -25s-16.5 -10 -26.5 -10s-17.833 3.33301 -23.5 10s-7.83398 15 -6.50098 25z" />
    <glyph glyph-name="semicolon" unicode=";" horiz-adv-x="170" 
d="M59 425c1.33301 10 5.83301 18.333 13.5 25s16.5 10 26.5 10s17.833 -3.33301 23.5 -10s7.83398 -15 6.50098 -25s-5.83301 -18.333 -13.5 -25s-16.5 -10 -26.5 -10s-17.833 3.33301 -23.5 10s-7.83398 15 -6.50098 25zM3 25c1.33301 10 5.83203 18.332 13.499 24.999
s16.5 10 26.5 10s17.833 -3.33301 23.5 -10s7.83398 -15 6.50098 -25c-0.666992 -4 -2 -8 -4 -12s-4.33301 -7.66699 -7 -11c-2.66699 -4 -5.66699 -8 -9 -12l-56 -80h-20l42 85c-3.33301 2 -6.33301 4.33301 -9 7c-2 2.66699 -4 5.83398 -6 9.50098
s-2.33301 8.16699 -1 13.5z" />
    <glyph glyph-name="less" unicode="&#x3c;" horiz-adv-x="480" 
d="M18 200l7 55l426 180l-7 -50l-367 -155l-1 -5l323 -155l-7 -50z" />
    <glyph glyph-name="equal" unicode="=" horiz-adv-x="425" 
d="M42 370l6 45h345l-6 -45h-345zM17 195l6 45h345l-6 -45h-345z" />
    <glyph glyph-name="greater" unicode="&#x3e;" horiz-adv-x="480" 
d="M-8 20l7 50l367 155l1 5l-323 155l7 50l374 -180l-7 -55z" />
    <glyph glyph-name="question" unicode="?" horiz-adv-x="530" 
d="M309 675c-52.667 0 -96.333 -13.3311 -131 -39.998s-62.334 -60 -83.001 -100l-49 10c10.667 24 24.5 46.5 41.5 67.5s36.667 39.5 59 55.5s47.666 28.667 75.999 38s59.5 14 93.5 14c31.333 0 59.333 -5.16699 84 -15.5s45.334 -24 62.001 -41
s28.834 -36.167 36.501 -57.5s9.83398 -43.333 6.50098 -66c-4.66699 -32 -13.834 -58.333 -27.501 -79s-30 -38.5 -49 -53.5s-39 -28.667 -60 -41s-40.833 -25.833 -59.5 -40.5s-35 -31.834 -49 -51.501s-23 -44.5 -27 -74.5h-40c4.66699 34.667 14 63.5 28 86.5
s30 42.667 48 59s37.167 30.666 57.5 42.999s39.333 25.333 57 39s33 29.167 46 46.5s21.5 39.333 25.5 66c2.66699 16 1 32.167 -5 48.5s-15.5 30.833 -28.5 43.5s-29 23 -48 31s-40.5 12 -64.5 12zM223.001 25.002c-1.33301 -10 -5.83301 -18.333 -13.5 -25
s-16.5 -10 -26.5 -10s-17.833 3.33301 -23.5 10s-7.83398 15 -6.50098 25s5.83301 18.333 13.5 25s16.5 10 26.5 10s17.833 -3.33301 23.5 -10s7.83398 -15 6.50098 -25z" />
    <glyph glyph-name="at" unicode="@" horiz-adv-x="835" 
d="M498 205l-5 -0.00195312c-8 -9.33301 -17.667 -17.666 -29 -24.999c-9.33301 -6.66699 -20.666 -12.5 -33.999 -17.5s-28 -7.5 -44 -7.5c-21.333 0 -40.833 4.16699 -58.5 12.5s-32.5 19.833 -44.5 34.5s-20.667 32 -26 52s-6.33301 42 -3 66s10.666 46 21.999 66
s25 37.333 41 52s34 26.167 54 34.5s40.667 12.5 62 12.5c16 0 30 -2.66699 42 -8s21.667 -11 29 -17c8.66699 -7.33301 16 -15.666 22 -24.999h5l5 40h45l-38 -270c24.667 0 48.334 4.5 71.001 13.5s43 21.167 61 36.5s33 33.666 45 54.999s19.667 44.666 23 69.999
c4.66699 36 1.83398 70.333 -8.49902 103s-27.666 61.334 -51.999 86.001s-55.166 44.334 -92.499 59.001s-80.333 22 -129 22c-45.333 0 -88.833 -8.5 -130.5 -25.5s-79.334 -40.333 -113.001 -70s-61.834 -64.667 -84.501 -105s-37.334 -83.5 -44.001 -129.5
s-4.33398 -89.167 6.99902 -129.5s29.666 -75.333 54.999 -105s56.5 -53 93.5 -70s78.167 -25.5 123.5 -25.5c30 0 57.667 2.66699 83 8s47.333 11.666 66 18.999c22 8 41.667 17.333 59 28l-6 -45c-17.333 -9.33301 -37 -17.666 -59 -24.999
c-18.667 -6.66699 -40.667 -12.5 -66 -17.5s-53 -7.5 -83 -7.5c-52.667 0 -100.167 9.5 -142.5 28.5s-77.666 45 -105.999 78s-48.833 72 -61.5 117s-15.334 93.833 -8.00098 146.5s23.666 101.5 48.999 146.5s56.833 84 94.5 117s80.334 59 128.001 78
s97.834 28.5 150.501 28.5c54.667 0 103.334 -8.33301 146.001 -25s78 -39.334 106 -68.001s48.167 -61.667 60.5 -99s15.5 -76.666 9.5 -117.999c-4 -30 -13.5 -58 -28.5 -84s-34.167 -48.833 -57.5 -68.5s-50.333 -35 -81 -46s-63.334 -16.5 -98.001 -16.5h-30z
M523 379.998c-6 12 -13.335 22.6611 -22.002 31.9941c-7.33301 8 -17.166 15.5 -29.499 22.5s-27.166 10.5 -44.499 10.5c-14 0 -28 -3.16699 -42 -9.5s-27 -15.166 -39 -26.499s-22.167 -24.666 -30.5 -39.999s-13.833 -31.666 -16.5 -48.999
c-2 -17.333 -1 -33.666 3 -48.999s10.5 -28.666 19.5 -39.999s19.5 -20.166 31.5 -26.499s25 -9.5 39 -9.5c17.333 0 33 3.33301 47 10s26 14 36 22c12 9.33301 22.333 20.333 31 33z" />
    <glyph glyph-name="A" unicode="A" horiz-adv-x="670" 
d="M117 230h400l-42 415h-200zM101 185l-71 -185h-50l261 690h280l69 -690h-50l-19 185h-420z" />
    <glyph glyph-name="B" unicode="B" horiz-adv-x="685" 
d="M426 690c27.333 0 51.998 -4.66602 73.998 -13.999s40.333 -21.833 55 -37.5s25.334 -33.667 32.001 -54s8.66699 -41.833 6 -64.5c-4.66699 -29.333 -13.167 -52.833 -25.5 -70.5s-25.166 -31.834 -38.499 -42.501c-16 -12 -33 -21 -51 -27l-1 -5
c31.333 -5.33301 58.333 -15.333 81 -30c10 -6 19.333 -13.5 28 -22.5s16.167 -19.667 22.5 -32s10.833 -26.333 13.5 -42s2.66699 -33.5 0 -53.5c-4 -26 -13 -50.833 -27 -74.5s-31.667 -44.5 -53 -62.5s-45.833 -32.167 -73.5 -42.5s-57.167 -15.5 -88.5 -15.5h-340
l96 690h290zM385.998 45.001c24.667 0 47.834 3.83691 69.501 11.5039s40.5 18.167 56.5 31.5s29.167 29.166 39.5 47.499s17.166 38.166 20.499 59.499c2.66699 21.333 1.5 41.166 -3.5 59.499s-13.833 34.166 -26.5 47.499s-28.667 23.833 -48 31.5s-41.333 11.5 -66 11.5
h-290l-42 -300h290zM179.998 645.005l-36 -255h240c21.333 0 41 3.33301 59 10s34 15.667 48 27s25.5 25 34.5 41s14.833 33.333 17.5 52c4.66699 35.333 -4 65 -26 89s-54.333 36 -97 36h-240z" />
    <glyph glyph-name="C" unicode="C" horiz-adv-x="765" 
d="M345 -30c-45.333 0 -87.501 10.0039 -126.501 30.0039s-72.333 47 -100 81s-48.167 73.667 -61.5 119s-16.333 93.666 -9 144.999s24 99.666 50 144.999s57.667 85 95 119s78.333 61 123 81s89.667 30 135 30c41.333 0 78.166 -6.16699 110.499 -18.5s60 -28.333 83 -48
s41.5 -41.667 55.5 -66s23 -48.5 27 -72.5l-52 -10c-4.66699 21.333 -12.667 42.166 -24 62.499s-26.5 38.5 -45.5 54.5s-42 28.833 -69 38.5s-57.833 14.5 -92.5 14.5c-37.333 0 -75.166 -8.83301 -113.499 -26.5s-73.666 -41.5 -105.999 -71.5s-60 -65 -83 -105
s-37.5 -82.333 -43.5 -127c-6 -45.333 -3.33301 -88 8 -128s29 -75 53 -105s52.833 -53.667 86.5 -71s69.167 -26 106.5 -26s71.5 5 102.5 15s59 23.333 84 40s47 36.167 66 58.5s35.167 46.166 48.5 71.499l48 -10c-14 -27.333 -32.167 -54.166 -54.5 -80.499
s-48.5 -49.833 -78.5 -70.5s-63.667 -37.334 -101 -50.001s-78 -19 -122 -19z" />
    <glyph glyph-name="D" unicode="D" horiz-adv-x="700" 
d="M598 345c6 44 4.16797 84.333 -5.49902 121s-26.334 68.167 -50.001 94.5s-53.5 47 -89.5 62s-77 22.5 -123 22.5h-150l-84 -600h150c46 0 89.167 7.5 129.5 22.5s75.833 35.667 106.5 62s56.167 57.833 76.5 94.5s33.5 77 39.5 121zM648.001 345
c-7.33301 -50 -22.498 -96.1709 -45.498 -138.504s-52.5 -78.666 -88.5 -108.999s-77.167 -54.166 -123.5 -71.499s-96.5 -26 -150.5 -26h-200l96 690h200c54 0 101.833 -8.66699 143.5 -26s76.167 -41.166 103.5 -71.499s46.666 -66.666 57.999 -108.999
s13.666 -88.5 6.99902 -138.5z" />
    <glyph glyph-name="E" unicode="E" horiz-adv-x="600" 
d="M526 45l-6 -45h-480l96 690h480l-6 -45h-430l-38 -275h340l-7 -45h-340l-39 -280h430z" />
    <glyph glyph-name="F" unicode="F" horiz-adv-x="570" 
d="M90 0h-50l96 690h460l-6 -45h-410l-41 -295h330l-7 -45h-330z" />
    <glyph glyph-name="G" unicode="G" horiz-adv-x="780" 
d="M352 15c38.667 0 76 7.33398 112 22.001s68.333 34.334 97 59.001s52.667 53.334 72 86.001s31.666 67 36.999 103h-235l6 45h285l-3 -20c-7.33301 -50 -22.166 -95.833 -44.499 -137.5s-50.333 -77.5 -84 -107.5s-71.834 -53.333 -114.501 -70s-87.667 -25 -135 -25
c-45.333 0 -87.5 10 -126.5 30s-72.333 47 -100 81s-48.167 73.667 -61.5 119s-16.333 93.666 -9 144.999s24 99.666 50 144.999s57.667 85 95 119s78.333 61 123 81s89.667 30 135 30c41.333 0 78.166 -6.16699 110.499 -18.5s60 -28.333 83 -48s41.5 -41.667 55.5 -66
s23 -48.5 27 -72.5l-52 -10c-4.66699 21.333 -12.667 42.166 -24 62.499s-26.5 38.5 -45.5 54.5s-42 28.833 -69 38.5s-57.833 14.5 -92.5 14.5c-37.333 0 -75.166 -8.83301 -113.499 -26.5s-73.666 -41.5 -105.999 -71.5s-60 -65 -83 -105s-37.5 -82.333 -43.5 -127
c-6 -45.333 -3.33301 -88 8 -128s29 -75 53 -105s52.833 -53.667 86.5 -71s69.167 -26 106.5 -26z" />
    <glyph glyph-name="H" unicode="H" horiz-adv-x="700" 
d="M136 690h50l-44 -320h420l44 320h50l-96 -690h-50l45 325h-420l-45 -325h-50z" />
    <glyph glyph-name="I" unicode="I" horiz-adv-x="230" 
d="M90 0h-50l96 690h50z" />
    <glyph glyph-name="J" unicode="J" 
d="M430 220c-5.33301 -38.667 -15.8311 -73.499 -31.498 -104.499s-35 -57.167 -58 -78.5s-49 -37.833 -78 -49.5s-59.833 -17.5 -92.5 -17.5c-26 0 -49.833 4.5 -71.5 13.5s-40.334 20.667 -56.001 35s-28.334 30.5 -38.001 48.5s-15.834 35.667 -18.501 53l52 10
c2.66699 -15.333 7.66699 -29.833 15 -43.5s16.833 -25.834 28.5 -36.501s25.5 -19.167 41.5 -25.5s34 -9.5 54 -9.5c24.667 0 48.334 4.5 71.001 13.5s43 22.333 61 40s33.167 39.167 45.5 64.5s20.833 54.333 25.5 87l66 470h50z" />
    <glyph glyph-name="K" unicode="K" horiz-adv-x="620" 
d="M293 380l-172 -155l-31 -225h-50l96 690h50l-56 -400l441 400h65l-297 -270l211 -420h-60l-192 380h-5z" />
    <glyph glyph-name="L" unicode="L" horiz-adv-x="555" 
d="M96 45h405l-6 -45h-455l96 690h50z" />
    <glyph glyph-name="M" unicode="M" horiz-adv-x="860" 
d="M417 265l-236 350h-5l-86 -615h-50l96 690h55l236 -350l334 350h55l-96 -690h-50l86 615h-5z" />
    <glyph glyph-name="N" unicode="N" horiz-adv-x="710" 
d="M526 85h5l85 605h50l-96 -690h-55l-335 605h-5l-85 -605h-50l96 690h55z" />
    <glyph glyph-name="O" unicode="O" horiz-adv-x="820" 
d="M48 345c7.33301 51.333 24 99.666 50 144.999s58 85 96 119s80.167 61 126.5 81s93.166 30 140.499 30s91.333 -10 132 -30s75.167 -47 103.5 -81s49.166 -73.667 62.499 -119s16.333 -93.666 9 -144.999s-24 -99.666 -50 -144.999s-58 -85 -96 -119
s-80.167 -61 -126.5 -81s-93.166 -30 -140.499 -30s-91.333 10 -132 30s-75.167 47 -103.5 81s-49.166 73.667 -62.499 119s-16.333 93.666 -9 144.999zM718 345c6 44.667 3.16699 87 -8.5 127s-29.667 75 -54 105s-54 53.833 -89 71.5s-72.5 26.5 -112.5 26.5
s-79.833 -8.83301 -119.5 -26.5s-76 -41.5 -109 -71.5s-61 -65 -84 -105s-37.5 -82.333 -43.5 -127c-6 -45.333 -3.16699 -88 8.5 -128s29.667 -75 54 -105s54 -53.667 89 -71s72.5 -26 112.5 -26s79.833 8.66699 119.5 26s76 41 109 71s61 65 84 105s37.5 82.667 43.5 128z
" />
    <glyph glyph-name="P" unicode="P" horiz-adv-x="680" 
d="M593 450c4 27.333 2.49902 52.832 -4.50098 76.499s-18.5 44.334 -34.5 62.001s-36.167 31.5 -60.5 41.5s-52.166 15 -83.499 15h-230l-55 -390h230c31.333 0 60.5 5 87.5 15s51 23.667 72 41s38.333 38 52 62s22.5 49.667 26.5 77zM642.999 449.999
c-4.66699 -34 -15.3311 -65.5 -31.998 -94.5s-38 -54.333 -64 -76s-55.833 -38.667 -89.5 -51s-69.834 -18.5 -108.501 -18.5h-230l-29 -210h-50l96 690h280c38.667 0 73.167 -6.16699 103.5 -18.5s55.5 -29.333 75.5 -51s34.167 -47 42.5 -76s10.166 -60.5 5.49902 -94.5z
" />
    <glyph glyph-name="Q" unicode="Q" horiz-adv-x="820" 
d="M768 345c-5.33301 -39.333 -14.999 -74.334 -28.999 -105.001s-28.667 -56.667 -44 -78c-17.333 -25.333 -36.333 -47.666 -57 -66.999l89 -110l-40 -35l-89 110c-20.667 -17.333 -43.667 -32.333 -69 -45c-21.333 -11.333 -46.833 -21.666 -76.5 -30.999
s-62.167 -14 -97.5 -14c-47.333 0 -91.333 10 -132 30s-75.167 47 -103.5 81s-49.166 73.667 -62.499 119s-16.333 93.666 -9 144.999s24 99.666 50 144.999s58 85 96 119s80.167 61 126.5 81s93.166 30 140.499 30s91.333 -10 132 -30s75.167 -47 103.5 -81
s49.166 -73.667 62.499 -119s16.333 -93.666 9 -144.999zM548.001 204.999l59.999 -75c17.333 16 33.333 35 48 57c12.667 18.667 24.834 41.167 36.501 67.5s20.167 56.5 25.5 90.5c6 44.667 3.16699 87 -8.5 127s-29.667 75 -54 105s-54 53.833 -89 71.5
s-72.5 26.5 -112.5 26.5s-79.833 -8.83301 -119.5 -26.5s-76 -41.5 -109 -71.5s-61 -65 -84 -105s-37.5 -82.333 -43.5 -127c-6 -45.333 -3.16699 -88 8.5 -128s29.667 -75 54 -105s54 -53.667 89 -71s72.5 -26 112.5 -26c28.667 0 55.5 4.16699 80.5 12.5
s46.833 17.5 65.5 27.5c22 12 42 25.333 60 40l-60 75z" />
    <glyph glyph-name="R" unicode="R" horiz-adv-x="690" 
d="M125 250l-35 -250h-50l96 690h300c36 0 68 -5.66699 96 -17s51.167 -26.833 69.5 -46.5s31.333 -42.834 39 -69.501s9.5 -55.667 5.5 -87c-6.66699 -44 -20.167 -79.667 -40.5 -107s-41.5 -48.666 -63.5 -63.999c-26 -18 -54.667 -31 -86 -39l109 -260h-55l-105 250h-280
zM376 295c30 0 57.667 4.50098 83 13.501s47.5 21.167 66.5 36.5s34.667 33.666 47 54.999s20.166 44.666 23.499 69.999c3.33301 24.667 2 47.834 -4 69.501s-16.167 40.167 -30.5 55.5s-32.666 27.5 -54.999 36.5s-47.833 13.5 -76.5 13.5h-250l-49 -350h245z" />
    <glyph glyph-name="S" unicode="S" horiz-adv-x="620" 
d="M494 175c3.33301 25.333 0.00390625 46.499 -9.99609 63.499s-24.5 31.333 -43.5 43s-41.167 21.667 -66.5 30l-77.5 24.5c-26.333 8 -52 16.667 -77 26s-46.833 21.333 -65.5 36s-32.834 32.5 -42.501 53.5s-12.167 47.167 -7.5 78.5c3.33301 24 12.333 47.333 27 70
s33.5 42.834 56.5 60.501s49.667 32 80 43s63.166 16.5 98.499 16.5c36 0 67.5 -4.66699 94.5 -14s49.833 -22 68.5 -38s33.5 -34.5 44.5 -55.5s18.5 -43.5 22.5 -67.5l-51 -10c-4.66699 20 -11.667 38.5 -21 55.5s-21.333 31.833 -36 44.5s-32.667 22.5 -54 29.5
s-46.333 10.5 -75 10.5c-27.333 0 -53 -4.33301 -77 -13s-45 -19.834 -63 -33.501s-32.667 -29.167 -44 -46.5s-18.333 -34.666 -21 -51.999c-3.33301 -25.333 0.166992 -46.166 10.5 -62.499s25 -30.166 44 -41.499s41 -21 66 -29l77.5 -24
c26.667 -8 52.5 -16.833 77.5 -26.5s46.667 -21.834 65 -36.501s32.333 -32.834 42 -54.501s12.167 -48.5 7.5 -80.5c-4 -27.333 -13.5 -53.5 -28.5 -78.5s-34.667 -46.833 -59 -65.5s-53.166 -33.5 -86.499 -44.5s-70 -16.5 -110 -16.5c-38.667 0 -72.5 5 -101.5 15
s-53.5 23.667 -73.5 41s-35.833 38 -47.5 62s-19.834 49.667 -24.501 77l51 10c5.33301 -24 13.166 -45.833 23.499 -65.5s23.5 -36.5 39.5 -50.5s35.5 -24.833 58.5 -32.5s50.167 -11.5 81.5 -11.5s60.166 4.5 86.499 13.5s49.5 21 69.5 36s36.167 32.167 48.5 51.5
s19.833 39 22.5 59z" />
    <glyph glyph-name="T" unicode="T" horiz-adv-x="590" 
d="M60 645l6 45h550l-6 -45h-250l-90 -645h-50l90 645h-250z" />
    <glyph glyph-name="U" unicode="U" horiz-adv-x="710" 
d="M307 15c31.333 0 60.833 5.5 88.5 16.5s52.5 26.667 74.5 47s40.333 45 55 74s24.667 61.5 30 97.5l61 440h50l-61 -440c-6 -42.667 -18 -81.167 -36 -115.5s-40.5 -63.666 -67.5 -87.999s-57.667 -43.166 -92 -56.499s-70.833 -20 -109.5 -20
s-73.334 6.66699 -104.001 20s-56 32.166 -76 56.499s-34 53.666 -42 87.999s-9 72.833 -3 115.5l61 440h50l-61 -440c-5.33301 -36 -4.66602 -68.5 2.00098 -97.5s18.167 -53.667 34.5 -74s36.833 -36 61.5 -47s52.667 -16.5 84 -16.5z" />
    <glyph glyph-name="V" unicode="V" horiz-adv-x="690" 
d="M201 45h200l245 645h50l-261 -690h-280l-69 690h50z" />
    <glyph glyph-name="W" unicode="W" horiz-adv-x="920" 
d="M510 645h-20l-230 -645h-120l-54 690h50l50 -645h40l230 645h100l50 -645h40l230 645h50l-246 -690h-120z" />
    <glyph glyph-name="X" unicode="X" horiz-adv-x="605" 
d="M611 690l-281 -330l205 -360h-55l-181 320h-5l-269 -320h-55l305 360l-189 330h55l165 -290h5l245 290h55z" />
    <glyph glyph-name="Y" unicode="Y" horiz-adv-x="630" 
d="M56 690h55l193 -410l307 410h55l-344 -460l-32 -230h-50l32 230z" />
    <glyph glyph-name="Z" unicode="Z" horiz-adv-x="600" 
d="M-3 50l542 590l1 5h-440l6 45h500l-7 -50l-542 -590l-1 -5h460l-6 -45h-520z" />
    <glyph glyph-name="bracketleft" unicode="[" horiz-adv-x="325" 
d="M184 675l-108 -770h155l-6 -45h-205l121 860h205l-7 -45h-155z" />
    <glyph glyph-name="backslash" unicode="\" horiz-adv-x="380" 
d="M300 0h-50l-174 690h50z" />
    <glyph glyph-name="bracketright" unicode="]" horiz-adv-x="315" 
d="M64 675l7 45h205l-121 -860h-205l6 45h155l108 770h-155z" />
    <glyph glyph-name="asciicircum" unicode="^" horiz-adv-x="440" 
d="M291 685l101 -315h-50l-83 255h-4l-153 -255h-50l189 315h50z" />
    <glyph glyph-name="underscore" unicode="_" horiz-adv-x="350" 
d="M-74 -175l6 45h349l-6 -45h-349z" />
    <glyph glyph-name="grave" unicode="`" horiz-adv-x="240" 
d="M96 690l148 -90l-19 -30l-155 75z" />
    <glyph glyph-name="a" unicode="a" 
d="M385 75l-5.00098 0.00195312c-14 -18 -29.667 -34 -47 -48c-15.333 -12 -33.666 -22.833 -54.999 -32.5s-45 -14.5 -71 -14.5c-28.667 0 -55.5 6.16699 -80.5 18.5s-46 29.666 -63 51.999s-29.5 48.833 -37.5 79.5s-9.33301 64 -4 100
c4.66699 36 15.334 69.333 32.001 100s36.667 57.167 60 79.5s49.166 39.666 77.499 51.999s56.833 18.5 85.5 18.5c26 0 48.333 -5 67 -15s34 -21 46 -33c14 -14 25.333 -29.667 34 -47h5l10 75h45l-64 -460h-45zM418.999 320.002
c-8.66699 22.667 -19.667 42.6709 -33 60.0039c-11.333 15.333 -26.333 29.166 -45 41.499s-42 18.5 -70 18.5c-22.667 0 -45.167 -5 -67.5 -15s-43 -24.333 -62 -43s-35.167 -40.834 -48.5 -66.501s-22 -54.167 -26 -85.5c-4.66699 -31.333 -3.83398 -59.833 2.49902 -85.5
s16.166 -47.834 29.499 -66.501s29.833 -33 49.5 -43s40.834 -15 63.501 -15c28 0 53 6.16699 75 18.5s41 26.166 57 41.499c18.667 17.333 35.334 37.333 50.001 60z" />
    <glyph glyph-name="b" unicode="b" horiz-adv-x="545" 
d="M70 0l-45.0039 -0.00195312l96 690h45l-42 -305h5c14 17.333 29.667 33 47 47c15.333 12 33.5 23 54.5 33s44.833 15 71.5 15c28.667 0 55.334 -6.16699 80.001 -18.5s45.667 -29.666 63 -51.999s29.833 -48.833 37.5 -79.5s9.16699 -64 4.5 -100
c-5.33301 -36 -16.166 -69.333 -32.499 -100s-36.166 -57.167 -59.499 -79.5s-49.166 -39.666 -77.499 -51.999s-56.833 -18.5 -85.5 -18.5c-26.667 0 -49.167 4.83301 -67.5 14.5s-33.5 20.5 -45.5 32.5c-14 14 -25.333 30 -34 48h-5zM88.9961 139.998
c8.66699 -22.667 19.6699 -42.6709 33.0029 -60.0039c11.333 -15.333 26.333 -29.166 45 -41.499s42 -18.5 70 -18.5c22.667 0 45.167 5 67.5 15s43 24.333 62 43s35.167 40.834 48.5 66.501s22.333 54.167 27 85.5c4 31.333 3 59.833 -3 85.5s-15.833 47.834 -29.5 66.501
s-30.334 33 -50.001 43s-40.834 15 -63.501 15c-28 0 -53 -6.16699 -75 -18.5s-41 -26.166 -57 -41.499c-18.667 -17.333 -35.334 -37.333 -50.001 -60z" />
    <glyph glyph-name="c" unicode="c" horiz-adv-x="510" 
d="M217 -20c-30 0 -57.9961 6.50391 -83.9961 19.5039s-48 30.667 -66 53s-31.333 48.666 -40 78.999s-10.334 63.166 -5.00098 98.499c4.66699 34.667 15.5 67.334 32.5 98.001s37.833 57.167 62.5 79.5s51.667 40 81 53s59 19.5 89 19.5c27.333 0 51.5 -3.66699 72.5 -11
s38.667 -17.166 53 -29.499s25.833 -26.333 34.5 -42s14.334 -31.5 17.001 -47.5l-47 -10c-6 27.333 -19.5 50.833 -40.5 70.5s-52.833 29.5 -95.5 29.5c-24 0 -47.833 -5.33301 -71.5 -16s-45.334 -25.334 -65.001 -44.001s-36.5 -40.834 -50.5 -66.501
s-23 -53.5 -27 -83.5s-2.66699 -57.833 4 -83.5s17.167 -47.834 31.5 -66.501s31.833 -33.334 52.5 -44.001s43 -16 67 -16c22.667 0 43.5 3.16699 62.5 9.5s36.167 15 51.5 26s28.666 23.833 39.999 38.5s20.666 30 27.999 46l44 -10c-8 -18.667 -19 -37 -33 -55
s-31 -34 -51 -48s-42.333 -25.333 -67 -34s-51.334 -13 -80.001 -13z" />
    <glyph glyph-name="d" unicode="d" horiz-adv-x="545" 
d="M385 75l-5.00098 0.00195312c-14 -18 -29.667 -34 -47 -48c-15.333 -12 -33.666 -22.833 -54.999 -32.5s-45 -14.5 -71 -14.5c-28.667 0 -55.5 6.16699 -80.5 18.5s-46 29.666 -63 51.999s-29.5 48.833 -37.5 79.5s-9.33301 64 -4 100
c4.66699 36 15.334 69.333 32.001 100s36.667 57.167 60 79.5s49.166 39.666 77.499 51.999s56.833 18.5 85.5 18.5c26 0 48.333 -5 67 -15s34 -21 46 -33c14 -14 25.333 -29.667 34 -47h5l42 305h45l-96 -690h-45zM418.999 320.002
c-8.66699 22.667 -19.667 42.6709 -33 60.0039c-11.333 15.333 -26.333 29.166 -45 41.499s-42 18.5 -70 18.5c-22.667 0 -45.167 -5 -67.5 -15s-43 -24.333 -62 -43s-35.167 -40.834 -48.5 -66.501s-22 -54.167 -26 -85.5c-4.66699 -31.333 -3.83398 -59.833 2.49902 -85.5
s16.166 -47.834 29.499 -66.501s29.833 -33 49.5 -43s40.834 -15 63.501 -15c28 0 53 6.16699 75 18.5s41 26.166 57 41.499c18.667 17.333 35.334 37.333 50.001 60z" />
    <glyph glyph-name="e" unicode="e" horiz-adv-x="520" 
d="M277 480c28.667 0 55.3379 -6.16602 80.0049 -18.499s45.667 -29.666 63 -51.999s29.833 -48.833 37.5 -79.5s9.16699 -64 4.5 -100l-23 -20h-375c-1.33301 -27.333 1.66699 -52.666 9 -75.999s18.166 -43.5 32.499 -60.5s31.333 -30.167 51 -39.5s41.5 -14 65.5 -14
c22.667 0 43.5 3.16699 62.5 9.5s36.167 15 51.5 26s28.666 23.833 39.999 38.5s20.666 30 27.999 46l44 -10c-8 -18.667 -19 -37 -33 -55s-31 -34 -51 -48s-42.333 -25.333 -67 -34s-51.334 -13 -80.001 -13c-30 0 -58 6.5 -84 19.5s-48 30.667 -66 53
s-31.333 48.666 -40 78.999s-10.334 63.166 -5.00098 98.499c4.66699 36 15.334 69.333 32.001 100s36.667 57.167 60 79.5s49.166 39.666 77.499 51.999s56.833 18.5 85.5 18.5zM271.004 440.001c-22.667 0 -44.835 -4.66699 -66.502 -14s-41.667 -22.5 -60 -39.5
s-34.166 -37.167 -47.499 -60.5s-22.333 -48.666 -27 -75.999h350c2.66699 27.333 0.5 52.666 -6.5 75.999s-17.167 43.5 -30.5 60.5s-29.666 30.167 -48.999 39.5s-40.333 14 -63 14z" />
    <glyph glyph-name="f" unicode="f" horiz-adv-x="285" 
d="M34 460h75.002l14 100c6 42.667 23.333 76.667 52 102s63 38 103 38c11.333 0 21.5 -1 30.5 -3s16.5 -4.33301 22.5 -7c7.33301 -2.66699 13.666 -6 18.999 -10l-16 -40c-5.33301 4 -11.333 7.33301 -18 10c-5.33301 2.66699 -11.833 5 -19.5 7s-15.834 3 -24.501 3
c-28 0 -51.167 -8.5 -69.5 -25.5s-29.833 -41.833 -34.5 -74.5l-14 -100h130l-5 -40h-130l-59 -420h-45l59 420h-75z" />
    <glyph glyph-name="g" unicode="g" 
d="M439 460l45.002 0.000976562l-64 -455c-4 -31.333 -13.167 -60.166 -27.5 -86.499s-31.833 -49 -52.5 -68s-44 -33.833 -70 -44.5s-52.667 -16 -80 -16s-51.5 3.66699 -72.5 11s-38.667 17.166 -53 29.499s-25.833 26.333 -34.5 42s-14.334 31.5 -17.001 47.5l47 10
c6 -27.333 19.5 -50.833 40.5 -70.5s52.833 -29.5 95.5 -29.5c21.333 0 42 4.16699 62 12.5s38 20.166 54 35.499s29.5 33.833 40.5 55.5s18.5 45.5 22.5 71.5l13 90h-5c-14 -18 -29.667 -34 -47 -48c-15.333 -12 -33.666 -22.833 -54.999 -32.5s-45 -14.5 -71 -14.5
c-28.667 0 -55.5 6.16699 -80.5 18.5s-46.167 29.333 -63.5 51s-30 47 -38 76s-9.66699 60.5 -5 94.5s15.167 65.5 31.5 94.5s36.166 54.333 59.499 76s49.166 38.667 77.499 51s56.833 18.5 85.5 18.5c26 0 48.333 -5 67 -15s34 -21 46 -33c14 -14 25.333 -29.667 34 -47h5
zM419.002 320.001c-8.66699 22.667 -19.6699 42.6689 -33.0029 60.002c-11.333 15.333 -26.333 29.166 -45 41.499s-42 18.5 -70 18.5c-22.667 0 -45.167 -5 -67.5 -15s-42.833 -24 -61.5 -42s-34.667 -39.167 -48 -63.5s-22 -50.833 -26 -79.5s-2.83301 -55.167 3.5 -79.5
s16.333 -45.5 30 -63.5s30.334 -32 50.001 -42s40.834 -15 63.501 -15c28 0 53 6.16699 75 18.5s41 26.166 57 41.499c18.667 17.333 35.334 37.333 50.001 60z" />
    <glyph glyph-name="h" unicode="h" horiz-adv-x="535" 
d="M425 0h-44.999l37 270c8 55.333 0.5 97.5 -22.5 126.5s-55.833 43.5 -98.5 43.5c-28 0 -53 -6.16699 -75 -18.5s-41 -26.166 -57 -41.499c-18.667 -17.333 -35.334 -37.333 -50.001 -60l-44 -320h-45l96 690h45l-42 -300h5c14 16.667 29.667 31.667 47 45
c15.333 11.333 33.5 21.666 54.5 30.999s44.833 14 71.5 14c27.333 0 52 -4.83301 74 -14.5s40.167 -23.5 54.5 -41.5s24.333 -40 30 -66s6.16699 -55.333 1.5 -88z" />
    <glyph glyph-name="i" unicode="i" horiz-adv-x="205" 
d="M75 0h-45l64 460h45zM175 647c-1.33301 -8.66699 -5.49707 -16.167 -12.4971 -22.5s-14.833 -9.5 -23.5 -9.5c-9.33301 0 -16.833 3.16699 -22.5 9.5s-7.83398 13.833 -6.50098 22.5c1.33301 9.33301 5.66602 17.166 12.999 23.499s15.666 9.5 24.999 9.5
c8.66699 0 15.667 -3.16699 21 -9.5s7.33301 -14.166 6 -23.499z" />
    <glyph glyph-name="j" unicode="j" horiz-adv-x="210" 
d="M70 -70c-6 -42.667 -23.167 -76.667 -51.5 -102s-62.5 -38 -102.5 -38c-11.333 0 -21.5 1 -30.5 3s-16.5 4.33301 -22.5 7c-7.33301 2.66699 -13.666 6 -18.999 10l15 40c5.33301 -4 11.333 -7.33301 18 -10c5.33301 -2.66699 11.833 -5 19.5 -7s16.167 -3 25.5 -3
c27.333 0 50.166 8.5 68.499 25.5s29.833 41.833 34.5 74.5l74 530h45zM115 647c1.33301 9.33301 5.66895 17.166 13.002 23.499s15.666 9.5 24.999 9.5c8.66699 0 15.667 -3.16699 21 -9.5s7.33301 -14.166 6 -23.499c-1.33301 -8.66699 -5.5 -16.167 -12.5 -22.5
s-14.833 -9.5 -23.5 -9.5c-9.33301 0 -16.833 3.16699 -22.5 9.5s-7.83398 13.833 -6.50098 22.5z" />
    <glyph glyph-name="k" unicode="k" horiz-adv-x="475" 
d="M70 0h-45l96 690h45l-70 -500l303 270h55l-194 -175l155 -285h-50l-140 255l-137 -120z" />
    <glyph glyph-name="l" unicode="l" horiz-adv-x="215" 
d="M136 650h-85l5 40h130l-96 -690h-45z" />
    <glyph glyph-name="m" unicode="m" horiz-adv-x="785" 
d="M675 0l-45.0059 -0.000976562l39 280c7.33301 52.667 0.833008 92.5 -19.5 119.5s-48.166 40.5 -83.499 40.5c-40 0 -74.333 -13.5 -103 -40.5s-46.667 -66.833 -54 -119.5l-39 -280h-45l39 280c7.33301 52.667 0.833008 92.5 -19.5 119.5s-48.166 40.5 -83.499 40.5
c-24 0 -45.333 -6.16699 -64 -18.5s-34.667 -26.166 -48 -41.499c-15.333 -17.333 -28.666 -37.333 -39.999 -60l-44 -320h-45l64 460h45l-10 -75h5c10.667 17.333 23.334 33 38.001 47c12 12 26.833 23 44.5 33s37.834 15 60.501 15c28 0 50.667 -5.5 68 -16.5
s31 -23.167 41 -36.5c12 -15.333 20.667 -32.666 26 -51.999h5c10.667 19.333 24.334 36.666 41.001 51.999c13.333 13.333 30.333 25.5 51 36.5s45 16.5 73 16.5c24 0 45.667 -4.5 65 -13.5s35.333 -22.167 48 -39.5s21.667 -38.333 27 -63s6 -52.667 2 -84z" />
    <glyph glyph-name="n" unicode="n" horiz-adv-x="530" 
d="M420 0l-44.999 -0.000976562l37 270c8 55.333 0.5 97.5 -22.5 126.5s-55.833 43.5 -98.5 43.5c-28 0 -53 -6.16699 -75 -18.5s-41 -26.166 -57 -41.499c-18.667 -17.333 -35.334 -37.333 -50.001 -60l-44 -320h-45l64 460h45l-10 -75h5c14 17.333 29.667 33 47 47
c15.333 12 33.5 23 54.5 33s44.833 15 71.5 15c27.333 0 52 -4.83301 74 -14.5s40.167 -23.5 54.5 -41.5s24.333 -40 30 -66s6.16699 -55.333 1.5 -88z" />
    <glyph glyph-name="o" unicode="o" horiz-adv-x="550" 
d="M492 230c-5.33301 -35.333 -16.4971 -68.166 -33.4971 -98.499s-37.833 -56.666 -62.5 -78.999s-52 -40 -82 -53s-60.667 -19.5 -92 -19.5s-60.333 6.5 -87 19.5s-49.167 30.667 -67.5 53s-31.833 48.666 -40.5 78.999s-10.334 63.166 -5.00098 98.499
c4.66699 34.667 15.667 67.334 33 98.001s38.333 57.167 63 79.5s52 40 82 53s60.667 19.5 92 19.5s60.333 -6.5 87 -19.5s49.167 -30.667 67.5 -53s31.666 -48.833 39.999 -79.5s10.166 -63.334 5.49902 -98.001zM447.003 230c4 30 2.66602 57.833 -4.00098 83.5
s-17.5 47.834 -32.5 66.501s-33.333 33.334 -55 44.001s-44.834 16 -69.501 16c-25.333 0 -50.166 -5.33301 -74.499 -16s-46.5 -25.334 -66.5 -44.001s-37 -40.834 -51 -66.501s-23 -53.5 -27 -83.5s-2.66699 -57.833 4 -83.5s17.334 -47.834 32.001 -66.501
s32.667 -33.334 54 -44.001s44.666 -16 69.999 -16c24.667 0 49.334 5.33301 74.001 16s47 25.334 67 44.001s37.167 40.834 51.5 66.501s23.5 53.5 27.5 83.5z" />
    <glyph glyph-name="p" unicode="p" 
d="M119 385l4.99609 -0.00195312c14 17.333 29.667 33 47 47c15.333 12 33.5 23 54.5 33s44.833 15 71.5 15c28.667 0 55.334 -6.16699 80.001 -18.5s45.667 -29.666 63 -51.999s29.833 -48.833 37.5 -79.5s9.16699 -64 4.5 -100c-5.33301 -36 -16.166 -69.333 -32.499 -100
s-36.166 -57.167 -59.499 -79.5s-49.166 -39.666 -77.499 -51.999s-56.833 -18.5 -85.5 -18.5c-26.667 0 -49.167 4.83301 -67.5 14.5s-33.5 20.5 -45.5 32.5c-14 14 -25.333 30 -34 48h-5l-39 -275h-45l93 660h45zM83.9961 139.998
c8.66699 -22.667 19.6699 -42.6709 33.0029 -60.0039c11.333 -15.333 26.333 -29.166 45 -41.499s42 -18.5 70 -18.5c22.667 0 45.167 5 67.5 15s43 24.333 62 43s35.167 40.834 48.5 66.501s22.333 54.167 27 85.5c4 31.333 3 59.833 -3 85.5s-15.833 47.834 -29.5 66.501
s-30.334 33 -50.001 43s-40.834 15 -63.501 15c-28 0 -53 -6.16699 -75 -18.5s-41 -26.166 -57 -41.499c-18.667 -17.333 -35.334 -37.333 -50.001 -60z" />
    <glyph glyph-name="q" unicode="q" 
d="M439 460l44.999 0.00195312l-93 -660h-45l39 275h-5c-14 -18 -29.667 -34 -47 -48c-15.333 -12 -33.666 -22.833 -54.999 -32.5s-45 -14.5 -71 -14.5c-28.667 0 -55.5 6.16699 -80.5 18.5s-46 29.666 -63 51.999s-29.5 48.833 -37.5 79.5s-9.33301 64 -4 100
c4.66699 36 15.334 69.333 32.001 100s36.667 57.167 60 79.5s49.166 39.666 77.499 51.999s56.833 18.5 85.5 18.5c26 0 48.333 -5 67 -15s34 -21 46 -33c14 -14 25.333 -29.667 34 -47h5zM418.999 320.002c-8.66699 22.667 -19.667 42.6709 -33 60.0039
c-11.333 15.333 -26.333 29.166 -45 41.499s-42 18.5 -70 18.5c-22.667 0 -45.167 -5 -67.5 -15s-43 -24.333 -62 -43s-35.167 -40.834 -48.5 -66.501s-22 -54.167 -26 -85.5c-4.66699 -31.333 -3.83398 -59.833 2.49902 -85.5s16.166 -47.834 29.499 -66.501
s29.833 -33 49.5 -43s40.834 -15 63.501 -15c28 0 53 6.16699 75 18.5s41 26.166 57 41.499c18.667 17.333 35.334 37.333 50.001 60z" />
    <glyph glyph-name="r" unicode="r" horiz-adv-x="300" 
d="M301 440l-9.99902 -0.000976562c-28 0 -53 -6.16699 -75 -18.5s-41 -26.166 -57 -41.499c-18.667 -17.333 -35.334 -37.333 -50.001 -60l-44 -320h-45l64 460h45l-10 -75h5c14 17.333 29.667 33 47 47c15.333 12 33.5 23 54.5 33s44.833 15 71.5 15h10z" />
    <glyph glyph-name="s" unicode="s" horiz-adv-x="460" 
d="M64 350c2.66699 17.333 8.83203 33.835 18.499 49.502s22.667 29.5 39 41.5s35.833 21.5 58.5 28.5s48.334 10.5 77.001 10.5c24 0 45.333 -3.66699 64 -11s34.667 -16.666 48 -27.999s24 -23.666 32 -36.999s13 -26.333 15 -39l-47 -10c-2 10 -6 20 -12 30
s-14 19.167 -24 27.5s-21.833 15 -35.5 20s-29.167 7.5 -46.5 7.5c-21.333 0 -40.5 -2.5 -57.5 -7.5s-31.5 -11.833 -43.5 -20.5s-21.5 -18.334 -28.5 -29.001s-11.167 -21.667 -12.5 -33c-2.66699 -16 -0.166992 -29.333 7.5 -40s18.167 -19.5 31.5 -26.5
s29 -12.833 47 -17.5l55 -14c18.667 -4.66699 36.834 -10.167 54.501 -16.5s33 -14.333 46 -24s23 -21.834 30 -36.501s8.83301 -33 5.5 -55c-2.66699 -18.667 -9.16699 -36.5 -19.5 -53.5s-24.333 -31.833 -42 -44.5s-38.834 -22.834 -63.501 -30.501
s-52.667 -11.5 -84 -11.5c-25.333 0 -48.333 4 -69 12s-38.834 18.333 -54.501 31s-28.5 27.167 -38.5 43.5s-16.333 32.5 -19 48.5l46 10c2.66699 -14 7.5 -27.333 14.5 -40s16.333 -23.834 28 -33.501s25.5 -17.334 41.5 -23.001s34.667 -8.5 56 -8.5
c24 0 45.333 2.83301 64 8.5s34.834 13.167 48.501 22.5s24.334 20 32.001 32s12.5 24.333 14.5 37c3.33301 21.333 -1.83398 38 -15.501 50s-31.5 21.5 -53.5 28.5s-46 13.5 -72 19.5s-49.667 13.833 -71 23.5s-38.5 22.834 -51.5 39.501s-17.5 39.667 -13.5 69z" />
    <glyph glyph-name="t" unicode="t" horiz-adv-x="325" 
d="M34 460h74.998l18 130h45l-18 -130h130l-5 -40h-130l-43 -300c-4.66699 -32.667 -0.166992 -57.5 13.5 -74.5s34.5 -25.5 62.5 -25.5c8.66699 0 17 1 25 3s15.333 4.33301 22 7c7.33301 2.66699 14.333 6 21 10l5 -40c-6.66699 -4 -14 -7.33301 -22 -10
c-7.33301 -2.66699 -15.666 -5 -24.999 -7s-19.666 -3 -30.999 -3c-40 0 -70.833 12.667 -92.5 38s-29.5 59.333 -23.5 102l43 300h-75z" />
    <glyph glyph-name="u" unicode="u" 
d="M84 460l44.9961 0.000976562l-38 -270c-7.33301 -55.333 0.333984 -97.5 23.001 -126.5s55.334 -43.5 98.001 -43.5c28 0 53 6.16699 75 18.5s41 26.166 57 41.499c18.667 17.333 35.334 37.333 50.001 60l45 320h45l-64 -460h-45l10 75h-5c-14 -18 -29.667 -34 -47 -48
c-15.333 -12 -33.666 -22.833 -54.999 -32.5s-45 -14.5 -71 -14.5c-27.333 0 -52 4.83301 -74 14.5s-40.167 23.5 -54.5 41.5s-24.5 40 -30.5 66s-6.66699 55.333 -2 88z" />
    <glyph glyph-name="v" unicode="v" horiz-adv-x="480" 
d="M44 460h45l31 -420h150l149 420h45l-164 -460h-220z" />
    <glyph glyph-name="w" unicode="w" horiz-adv-x="680" 
d="M339 420l-149 -420h-110l-36 460h45l31 -420h40l149 420h90l31 -420h40l149 420h45l-164 -460h-110l-31 420h-20z" />
    <glyph glyph-name="x" unicode="x" horiz-adv-x="435" 
d="M20 0h-50l203 240l-129 220h50l109 -185h5l161 185h50l-191 -220l137 -240h-50l-117 205h-5z" />
    <glyph glyph-name="y" unicode="y" horiz-adv-x="480" 
d="M464 460l-164.001 -460.001c-14.667 -40 -29.167 -73.5 -43.5 -100.5s-29.333 -48.5 -45 -64.5s-31.834 -27.5 -48.501 -34.5s-34.334 -10.5 -53.001 -10.5c-11.333 0 -21.5 1 -30.5 3s-16.5 4.33301 -22.5 7c-7.33301 2.66699 -13.666 6 -18.999 10l15 40
c5.33301 -4 11.333 -7.33301 18 -10c5.33301 -2.66699 11.833 -5 19.5 -7s16.167 -3 25.5 -3c12.667 0 24.834 2.83301 36.501 8.5s23.334 15 35.001 28s23 30.333 34 52s22.167 48.834 33.5 81.501h-175l-36 460h45l31 -420h150l149 420h45z" />
    <glyph glyph-name="z" unicode="z" horiz-adv-x="440" 
d="M46 45l-1 -5h320l-5 -40h-380l6 45l362 370l1 5h-300l5 40h360l-6 -45z" />
    <glyph glyph-name="braceleft" unicode="{" horiz-adv-x="315" 
d="M130 290c10 -2 18.668 -6.33203 26.001 -12.999c6 -5.33301 11.167 -13 15.5 -23s5.5 -23 3.5 -39c-1.33301 -10 -6.33301 -26.5 -15 -49.5l-27.5 -73l-27.5 -73c-8.66699 -23 -13.667 -39.5 -15 -49.5c-2.66699 -20 1.16602 -35.833 11.499 -47.5
s26.833 -17.5 49.5 -17.5h60l-6 -45h-60c-40 0 -68.833 9.5 -86.5 28.5s-23.834 46.167 -18.501 81.5c1.33301 10 6.33301 26.5 15 49.5l27.5 73l27.5 73c8.66699 23 13.667 39.5 15 49.5c2 15.333 -2 28.333 -12 39s-23.667 16 -41 16h-25l7 45h25
c17.333 0 32.333 5.33301 45 16s20.334 23.667 23.001 39c1.33301 10 1 26.5 -1 49.5s-4.33301 47.333 -7 73s-5 50 -7 73s-2.33301 39.5 -1 49.5c5.33301 35.333 19.166 62.5 41.499 81.5s53.5 28.5 93.5 28.5h60l-6 -45h-60c-22.667 0 -40.667 -5.83301 -54 -17.5
s-21.666 -27.5 -24.999 -47.5c-1.33301 -10 -1 -26.5 1 -49.5s4.33301 -47.333 7 -73s5 -50 7 -73s2.33301 -39.5 1 -49.5c-2.66699 -16.667 -7.66699 -29.834 -15 -39.501s-14.666 -17.167 -21.999 -22.5c-8.66699 -6.66699 -18.334 -11 -29.001 -13z" />
    <glyph glyph-name="bar" unicode="|" horiz-adv-x="250" 
d="M85 -100h-50l120 850h50z" />
    <glyph glyph-name="braceright" unicode="}" horiz-adv-x="315" 
d="M166 295c-10 2 -18.6699 6.33203 -26.0029 12.999c-6 5.33301 -11.167 12.833 -15.5 22.5s-5.16602 22.834 -2.49902 39.501c1.33301 10 6.16602 26.5 14.499 49.5l27 73l27.5 73c8.66699 23 13.667 39.5 15 49.5c3.33301 20 -0.333984 35.833 -11.001 47.5
s-27.334 17.5 -50.001 17.5h-60l6 45h60c40 0 68.833 -9.5 86.5 -28.5s23.834 -46.167 18.501 -81.5c-1.33301 -10 -6.33301 -26.5 -15 -49.5l-27.5 -73l-27 -73c-8.33301 -23 -13.166 -39.5 -14.499 -49.5c-2.66699 -15.333 1 -28.333 11 -39s23.667 -16 41 -16h25l-7 -45
h-25c-17.333 0 -32.333 -5.33301 -45 -16s-20 -23.667 -22 -39c-1.33301 -10 -1 -26.5 1 -49.5l6.5 -73l6.5 -73c2 -23 2.33301 -39.5 1 -49.5c-5.33301 -35.333 -19.166 -62.5 -41.499 -81.5s-53.5 -28.5 -93.5 -28.5h-60l6 45h60c22.667 0 40.834 5.83301 54.501 17.5
s21.834 27.5 24.501 47.5c1.33301 10 1 26.5 -1 49.5l-6.5 73l-6.5 73c-2 23 -2.33301 39.5 -1 49.5c2 16 6.66699 29 14 39s14.666 17.667 21.999 23c8.66699 6.66699 18.334 11 29.001 13z" />
    <glyph glyph-name="asciitilde" unicode="~" horiz-adv-x="405" 
d="M265 250c-18.667 0 -33.999 4.5 -45.999 13.5s-23 18.667 -33 29l-29 29c-9.33301 9 -21 13.5 -35 13.5c-12.667 0 -26.334 -7 -41.001 -21s-25 -33.667 -31 -59l-33 15c2 14.667 6.66699 28.5 14 41.5s16 24.167 26 33.5s21 16.666 33 21.999s24.333 8 37 8
c18.667 0 34 -4.5 46 -13.5s23 -18.667 33 -29l29 -29c9.33301 -9 21 -13.5 35 -13.5c12.667 0 26.167 7 40.5 21s24.833 33.667 31.5 59l32 -15c-2 -15.333 -6.5 -29.333 -13.5 -42s-15.5 -23.667 -25.5 -33s-21 -16.666 -33 -21.999s-24.333 -8 -37 -8z" />
    <glyph glyph-name="nonbreakingspace" unicode="&#xa0;" horiz-adv-x="0" 
 />
    <glyph glyph-name="exclamdown" unicode="&#xa1;" horiz-adv-x="250" 
d="M69 140l28 130h30l-8 -130l-48 -340h-50zM172 445c-1.33301 -10 -5.83301 -18.333 -13.5 -25s-16.5 -10 -26.5 -10s-17.833 3.33301 -23.5 10s-7.83398 15 -6.50098 25s5.83301 18.333 13.5 25s16.5 10 26.5 10s17.833 -3.33301 23.5 -10s7.83398 -15 6.50098 -25z" />
    <glyph glyph-name="cent" unicode="&#xa2;" horiz-adv-x="510" 
d="M307 479c23.333 -1.33301 44.1689 -5.66406 62.502 -12.9971s34 -16.833 47 -28.5s23.5 -25.167 31.5 -40.5s13.333 -31 16 -47l-47 -10c-6 27.333 -19.5 50.833 -40.5 70.5s-52.833 29.5 -95.5 29.5c-24 0 -47.833 -5.33301 -71.5 -16s-45.334 -25.334 -65.001 -44.001
s-36.5 -40.834 -50.5 -66.501s-23 -53.5 -27 -83.5s-2.66699 -57.833 4 -83.5s17.167 -47.834 31.5 -66.501s31.833 -33.334 52.5 -44.001s43 -16 67 -16c22.667 0 43.5 3.16699 62.5 9.5s36.167 15 51.5 26s28.666 23.833 39.999 38.5s20.666 30 27.999 46l44 -10
c-8 -18.667 -18.5 -36.5 -31.5 -53.5s-28.333 -32.167 -46 -45.5s-37.667 -24.5 -60 -33.5s-46.833 -14.5 -73.5 -16.5l-12 -87h-45l12 88c-27.333 3.33301 -52.333 11.5 -75 24.5s-42 30.333 -58 52s-27.5 46.834 -34.5 75.501s-7.83301 60.667 -2.5 96
c4.66699 34.667 14.667 66.5 30 95.5s33.833 54.333 55.5 76s45.834 39 72.501 52s54 21.167 82 24.5l12 87h45z" />
    <glyph glyph-name="sterling" unicode="&#xa3;" horiz-adv-x="490" 
d="M174 140c-2.66699 -17.333 -6.83203 -31.668 -12.499 -43.001s-11.5 -20.666 -17.5 -27.999c-7.33301 -8 -14.666 -14.333 -21.999 -19l-1 -5h315l-6 -45h-460l6 45h40c28 0 52 8.83301 72 26.5s32 40.5 36 68.5l30 210h-75l6 45h75l23 165
c6 42.667 23.5 76.667 52.5 102s64.833 38 107.5 38c11.333 0 21.5 -1 30.5 -3s16.5 -4.33301 22.5 -7c7.33301 -2.66699 13.666 -6 18.999 -10l-16 -45c-4.66699 4 -10 7.33301 -16 10c-5.33301 2.66699 -11.833 5 -19.5 7s-16.5 3 -26.5 3
c-25.333 0 -47.833 -8.33301 -67.5 -25s-31.834 -40 -36.501 -70l-23 -165h130l-6 -45h-130z" />
    <glyph glyph-name="currency" unicode="&#xa4;" horiz-adv-x="625" 
d="M381 690c37.333 0 70.501 -5.83105 99.501 -17.498s53 -27.834 72 -48.501s32.667 -45 41 -73s10.166 -58.333 5.49902 -91s-14.834 -63 -30.501 -91s-36 -52.333 -61 -73s-53.667 -36.834 -86 -48.501s-67.166 -17.5 -104.499 -17.5h-170l-11 -80h255l-7 -45h-255
l-14 -105h-50l14 105h-75l7 45h75l11 80h-75l6 45h75l58 415h220zM205.001 645.002l-52.001 -370.002h170c30 0 58 4.66699 84 14s48.833 22.333 68.5 39s35.834 36.334 48.501 59.001s21 47 25 73s2.66699 50.333 -4 73s-17.5 42.334 -32.5 59.001s-34.167 29.667 -57.5 39
s-50 14 -80 14h-170z" />
    <glyph glyph-name="yen" unicode="&#xa5;" horiz-adv-x="590" 
d="M300 215l-11 -75h160l-6 -45h-160l-13 -95h-50l13 95h-160l6 45h160l11 75h-160l6 45h135l-175 430h55l171 -420l289 420h55l-295 -430h135l-6 -45h-160z" />
    <glyph glyph-name="brokenbar" unicode="&#xa6;" horiz-adv-x="250" 
d="M154 390h-50l51 360h50zM85 -100h-50l51 360h50z" />
    <glyph glyph-name="section" unicode="&#xa7;" horiz-adv-x="495" 
d="M113 345c-1.33301 -10 -0.498047 -19.168 2.50195 -27.501s7.5 -16 13.5 -23s13.167 -13.167 21.5 -18.5s16.833 -10 25.5 -14c20.667 -9.33301 44.667 -16.666 72 -21.999c23.333 6 44.333 14 63 24c16 8.66699 31.167 19.5 45.5 32.5s23.166 29.167 26.499 48.5
c2.66699 20 -2.83301 36.667 -16.5 50s-29.167 24 -46.5 32c-20.667 9.33301 -44.667 17 -72 23c-23.333 -6 -44.333 -14 -63 -24c-16 -8.66699 -31.333 -19.667 -46 -33s-23.334 -29.333 -26.001 -48zM428.002 344.999c-3.33301 -24 -11.6709 -43.6699 -25.0039 -59.0029
s-27.666 -27.666 -42.999 -36.999c-17.333 -10.667 -37 -18.667 -59 -24l-1 -5c20 -4.66699 37.333 -11.667 52 -21c12.667 -8 23.834 -19.167 33.501 -33.5s12.834 -32.833 9.50098 -55.5c-2.66699 -18.667 -9.33398 -36.5 -20.001 -53.5s-24.834 -31.833 -42.501 -44.5
s-38.834 -22.834 -63.501 -30.501s-52.667 -11.5 -84 -11.5c-26 0 -49.667 4 -71 12s-39.666 18.5 -54.999 31.5s-27.5 28 -36.5 45s-14.833 34.167 -17.5 51.5l46 10c6 -30 20.167 -55.833 42.5 -77.5s54.833 -32.5 97.5 -32.5c24 0 45.333 2.83301 64 8.5
s34.834 13.167 48.501 22.5s24.334 20 32.001 32s12.5 24.333 14.5 37c2.66699 20 -3 35.667 -17 47s-32.167 20.833 -54.5 28.5s-46.5 14.834 -72.5 21.501s-50 15.334 -72 26.001s-39.5 24.667 -52.5 42s-17.5 40.666 -13.5 69.999
c3.33301 23.333 11.833 43.166 25.5 59.499s28.167 29.166 43.5 38.499c17.333 11.333 37 20.333 59 27v5c-17.333 5.33301 -32 13.333 -44 24c-10.667 8.66699 -20 20.334 -28 35.001s-10.333 33.334 -7 56.001c2.66699 17.333 8.83398 33.833 18.501 49.5
s22.667 29.5 39 41.5s36 21.5 59 28.5s48.833 10.5 77.5 10.5c24 0 45.333 -3.66699 64 -11s34.667 -16.666 48 -27.999s24 -23.666 32 -36.999s13 -26.333 15 -39l-47 -10c-2 10 -6 20 -12 30s-14 19.167 -24 27.5s-21.833 15 -35.5 20s-29.167 7.5 -46.5 7.5
c-21.333 0 -40.5 -2.5 -57.5 -7.5s-31.5 -11.833 -43.5 -20.5s-21.5 -18.334 -28.5 -29.001s-11.5 -21.667 -13.5 -33c-2.66699 -21.333 2.5 -38.333 15.5 -51s30 -23.167 51 -31.5s44 -16 69 -23s47.833 -16 68.5 -27s37.167 -25.167 49.5 -42.5s16.5 -40.666 12.5 -69.999
z" />
    <glyph glyph-name="dieresis" unicode="&#xa8;" horiz-adv-x="290" 
d="M137 657c-1.33301 -8.66699 -5.66992 -16.167 -13.0029 -22.5s-15.333 -9.5 -24 -9.5c-9.33301 0 -16.666 3.16699 -21.999 9.5s-7.33301 13.833 -6 22.5c1.33301 9.33301 5.5 17.166 12.5 23.499s15.167 9.5 24.5 9.5c8.66699 0 15.834 -3.16699 21.501 -9.5
s7.83398 -14.166 6.50098 -23.499zM301.996 657c-1.33301 -8.66699 -5.66992 -16.167 -13.0029 -22.5s-15.333 -9.5 -24 -9.5c-9.33301 0 -16.666 3.16699 -21.999 9.5s-7.33301 13.833 -6 22.5c1.33301 9.33301 5.5 17.166 12.5 23.499s15.167 9.5 24.5 9.5
c8.66699 0 15.834 -3.16699 21.501 -9.5s7.83398 -14.166 6.50098 -23.499z" />
    <glyph glyph-name="copyright" unicode="&#xa9;" horiz-adv-x="910" 
d="M421 120c-21.333 0 -40.8281 4.16113 -58.4951 12.4941s-32.5 19.833 -44.5 34.5s-20.5 32 -25.5 52s-5.83301 42 -2.5 66s10.5 46 21.5 66s24.5 37.333 40.5 52s34 26.167 54 34.5s40.667 12.5 62 12.5c18.667 0 35.167 -2.66699 49.5 -8s26.666 -12.5 36.999 -21.5
s18.666 -19.5 24.999 -31.5s11.166 -25 14.499 -39l-41 -5c-1.33301 7.33301 -4.33301 14.833 -9 22.5s-10.667 14.667 -18 21s-16.333 11.5 -27 15.5s-23 6 -37 6s-28 -3.16699 -42 -9.5s-27 -15.166 -39 -26.499s-22.167 -24.666 -30.5 -39.999
s-13.5 -31.666 -15.5 -48.999c-2.66699 -17.333 -1.83398 -33.666 2.49902 -48.999s10.833 -28.666 19.5 -39.999s19 -20.166 31 -26.499s25 -9.5 39 -9.5c32.667 0 59 7.33301 79 22s33.667 30.667 41 48l39 -5c-14 -30 -34.333 -55 -61 -75s-61.334 -30 -104.001 -30z
M850.005 284.994c-8 -57.333 -26.5 -111.333 -55.5 -162s-64.5 -94.667 -106.5 -132s-89.167 -66.833 -141.5 -88.5s-105.833 -32.5 -160.5 -32.5c-55.333 0 -106 10.833 -152 32.5s-84.667 51.167 -116 88.5s-54.166 81.333 -68.499 132s-17.5 104.667 -9.5 162
s26.333 111.166 55 161.499s64 94.333 106 132s89 67.334 141 89.001s105.667 32.5 161 32.5c54.667 0 105.167 -10.833 151.5 -32.5s85.166 -51.334 116.499 -89.001s54.333 -81.667 69 -132s18 -104.166 10 -161.499zM805.005 284.994
c7.33301 52.667 4.49707 101.834 -8.50293 147.501s-33.5 85.334 -61.5 119.001s-62.5 60.167 -103.5 79.5s-85.833 29 -134.5 29s-96.167 -9.66699 -142.5 -29s-88.333 -45.833 -126 -79.5s-69.167 -73.334 -94.5 -119.001s-41.666 -94.834 -48.999 -147.501
s-4.66602 -101.834 8.00098 -147.501s33 -85.334 61 -119.001s62.5 -60.167 103.5 -79.5s85.833 -29 134.5 -29s96.167 9.66699 142.5 29s88.333 45.833 126 79.5s69.334 73.334 95.001 119.001s42.167 94.834 49.5 147.501z" />
    <glyph glyph-name="ordfeminine" unicode="&#xaa;" horiz-adv-x="330" 
d="M141 400c17.333 0 33.5 3.33105 48.5 9.99805s28.167 14.334 39.5 23.001c12.667 9.33301 24.667 20.333 36 33l6 44h-85c-32.667 0 -56.5 -5.66699 -71.5 -17s-23.833 -25.666 -26.5 -42.999c-2 -12.667 2 -24.167 12 -34.5s23.667 -15.5 41 -15.5zM211 689.998
c38 0 66.6641 -12 85.9971 -36s26 -58.667 20 -104l-25 -180h-40l7 50c-11.333 -11.333 -23.333 -21.333 -36 -30c-11.333 -7.33301 -24.5 -14.166 -39.5 -20.499s-31.167 -9.5 -48.5 -9.5c-32.667 0 -57 8.66699 -73 26s-22.333 38.666 -19 63.999
c4 30 17.833 54.167 41.5 72.5s59.5 27.5 107.5 27.5h85c4.66699 32.667 0.333984 57.5 -12.999 74.5s-32.666 25.5 -57.999 25.5c-22.667 0 -41.167 -5.16699 -55.5 -15.5s-24.833 -21.833 -31.5 -34.5l-34 10c8 20 22.833 38.333 44.5 55s48.834 25 81.501 25z" />
    <glyph glyph-name="guillemotleft" unicode="&#xab;" horiz-adv-x="415" 
d="M22 230l137 190h50l-137 -190l83 -190h-50zM197 230l137 190h50l-137 -190l83 -190h-50z" />
    <glyph glyph-name="logicalnot" unicode="&#xac;" horiz-adv-x="420" 
d="M330 325h-295l7 45h340l-23 -160h-45z" />
    <glyph glyph-name="uni00AD" unicode="&#xad;" horiz-adv-x="430" 
d="M30 285l6 45h350l-6 -45h-350z" />
    <glyph glyph-name="registered" unicode="&#xae;" horiz-adv-x="910" 
d="M507 445c32.667 0 57.833 -10 75.5 -30s24.167 -45 19.5 -75c-2.66699 -19.333 -8.5 -35 -17.5 -47s-18.167 -21.667 -27.5 -29c-12 -8 -24.667 -14.333 -38 -19l63 -120h-50l-54 110h-115l-16 -110h-45l45 320h160zM385.999 405l-18 -130h115c20 0 37.5 6.5 52.5 19.5
s23.833 28.167 26.5 45.5s-1.83301 32.5 -13.5 45.5s-27.5 19.5 -47.5 19.5h-115zM849.999 285c-8 -57.333 -26.5 -111.333 -55.5 -162s-64.5 -94.667 -106.5 -132s-89.167 -66.833 -141.5 -88.5s-105.833 -32.5 -160.5 -32.5c-55.333 0 -106 10.833 -152 32.5
s-84.667 51.167 -116 88.5s-54.166 81.333 -68.499 132s-17.5 104.667 -9.5 162s26.333 111.166 55 161.499s64 94.333 106 132s89 67.334 141 89.001s105.667 32.5 161 32.5c54.667 0 105.167 -10.833 151.5 -32.5s85.166 -51.334 116.499 -89.001s54.333 -81.667 69 -132
s18 -104.166 10 -161.499zM804.999 285c7.33301 52.667 4.49707 101.834 -8.50293 147.501s-33.5 85.334 -61.5 119.001s-62.5 60.167 -103.5 79.5s-85.833 29 -134.5 29s-96.167 -9.66699 -142.5 -29s-88.333 -45.833 -126 -79.5s-69.167 -73.334 -94.5 -119.001
s-41.666 -94.834 -48.999 -147.501s-4.66602 -101.834 8.00098 -147.501s33 -85.334 61 -119.001s62.5 -60.167 103.5 -79.5s85.833 -29 134.5 -29s96.167 9.66699 142.5 29s88.333 45.833 126 79.5s69.334 73.334 95.001 119.001s42.167 94.834 49.5 147.501z" />
    <glyph glyph-name="macron" unicode="&#xaf;" horiz-adv-x="300" 
d="M76 690h240l-6 -45h-240z" />
    <glyph glyph-name="degree" unicode="&#xb0;" horiz-adv-x="330" 
d="M318 560c-2.66699 -17.333 -8.16797 -33.666 -16.501 -48.999s-19 -28.666 -32 -39.999s-27.5 -20.166 -43.5 -26.499s-32.667 -9.5 -50 -9.5s-33.166 3.16699 -47.499 9.5s-26.5 15.166 -36.5 26.499s-17.167 24.666 -21.5 39.999s-5.16602 31.666 -2.49902 48.999
s8.33398 33.666 17.001 48.999s19.334 28.666 32.001 39.999s27.167 20.166 43.5 26.499s33.166 9.5 50.499 9.5s33.166 -3.16699 47.499 -9.5s26.333 -15.166 36 -26.499s16.667 -24.666 21 -39.999s5.16602 -31.666 2.49902 -48.999zM282.999 560
c3.33301 25.333 -2.33105 46.666 -16.998 63.999s-34.667 26 -60 26c-12.667 0 -24.834 -2.33301 -36.501 -7s-22.167 -11 -31.5 -19s-17 -17.5 -23 -28.5s-10 -22.833 -12 -35.5c-3.33301 -25.333 2.5 -46.666 17.5 -63.999s35.167 -26 60.5 -26
c12.667 0 24.667 2.33301 36 7s21.666 11 30.999 19s17 17.5 23 28.5s10 22.833 12 35.5z" />
    <glyph glyph-name="plusminus" unicode="&#xb1;" horiz-adv-x="445" 
d="M6 115h160l25 180h-160l6 45h160l24 170h45l-24 -170h160l-6 -45h-160l-25 -180h160l-7 -45h-365z" />
    <glyph glyph-name="twosuperior" unicode="&#xb2;" horiz-adv-x="305" 
d="M257 590c2.66699 17.333 -1.33301 31.6689 -12 43.002s-28.667 17 -54 17s-45.333 -5.5 -60 -16.5s-25.667 -24.167 -33 -39.5l-34 6c8.66699 25.333 24 46.666 46 63.999s50.667 26 86 26c38 0 66.167 -9.66699 84.5 -29s25.5 -43 21.5 -71
c-2.66699 -18.667 -9.5 -34.5 -20.5 -47.5s-24.333 -24.667 -40 -35s-32.167 -19.5 -49.5 -27.5s-33.666 -16 -48.999 -24s-28.333 -16.5 -39 -25.5s-16.667 -19.167 -18 -30.5h195l-6 -40h-240l4 30c2.66699 19.333 9.66699 35.666 21 48.999s24.666 25 39.999 35
s31.833 19 49.5 27s34.167 16.333 49.5 25s28.333 18 39 28s17 22 19 36z" />
    <glyph glyph-name="threesuperior" unicode="&#xb3;" horiz-adv-x="300" 
d="M156 400c22.667 0 41.665 6.66797 56.998 20.001s24.666 30 27.999 50c2.66699 20 -2 36.667 -14 50s-29.333 20 -52 20h-50l5 30l105 75l1 5h-150l5 40h215l-5 -40l-106 -75c32.667 -2.66699 57 -13.334 73 -32.001s22 -43 18 -73c-2 -15.333 -7 -29.666 -15 -42.999
s-18 -25 -30 -35s-25.833 -17.833 -41.5 -23.5s-32.167 -8.5 -49.5 -8.5c-35.333 0 -61.666 8.66699 -78.999 26s-26.666 38.666 -27.999 63.999l36 6c2.66699 -15.333 9.83398 -28.5 21.501 -39.5s30.167 -16.5 55.5 -16.5z" />
    <glyph glyph-name="acute" unicode="&#xb4;" horiz-adv-x="240" 
d="M250 645l-175 -75l-11 30l172 90z" />
    <glyph glyph-name="mu" unicode="&#xb5;" 
d="M84 460h44.9961l-38 -270c-7.33301 -55.333 0.333984 -97.5 23.001 -126.5s55.334 -43.5 98.001 -43.5c28 0 53 6.16699 75 18.5s41 26.166 57 41.499c18.667 17.333 35.334 37.333 50.001 60l45 320h45l-64 -460h-45l10 75h-5c-14 -18 -29.667 -34 -47 -48
c-15.333 -12 -33.666 -22.833 -54.999 -32.5s-45 -14.5 -71 -14.5c-28 0 -50.167 4.33301 -66.5 13s-29.166 18.334 -38.499 29.001c-10.667 12 -18.334 26.333 -23.001 43h-5l-38 -265h-45z" />
    <glyph glyph-name="paragraph" unicode="&#xb6;" horiz-adv-x="385" 
d="M73 520c2.66699 22.667 10.168 44.167 22.501 64.5s27.666 38.333 45.999 54s39 28.167 62 37.5s47.167 14 72.5 14h125l-6 -45h-90l-119 -845h-45l78 550c-22.667 0 -43.5 4.66699 -62.5 14s-35.333 21.833 -49 37.5s-23.667 33.667 -30 54s-7.83301 41.833 -4.5 64.5z
" />
    <glyph glyph-name="periodcentered" unicode="&#xb7;" horiz-adv-x="170" 
d="M49 350c1.33301 10 5.83301 18.333 13.5 25s16.5 10 26.5 10s17.833 -3.33301 23.5 -10s7.83398 -15 6.50098 -25s-5.83301 -18.333 -13.5 -25s-16.5 -10 -26.5 -10s-17.833 3.33301 -23.5 10s-7.83398 15 -6.50098 25z" />
    <glyph glyph-name="cedilla" unicode="&#xb8;" horiz-adv-x="230" 
d="M67 -55c14 -2 25.999 -6.66699 35.999 -14c8.66699 -6 16 -14.5 22 -25.5s7.66699 -26.167 5 -45.5c-2 -12.667 -6.16699 -24.5 -12.5 -35.5s-14.166 -20.5 -23.499 -28.5s-20.166 -14.333 -32.499 -19s-25.5 -7 -39.5 -7c-12.667 0 -23.5 1.66699 -32.5 5
s-16.167 7.33301 -21.5 12c-6.66699 4.66699 -12 10.334 -16 17.001l29 27c3.33301 -4.66699 7.33301 -8.33398 12 -11.001c4 -2.66699 9 -5 15 -7s12.667 -3 20 -3c15.333 0 28.166 4.5 38.499 13.5s16.5 21.167 18.5 36.5s-1.33301 27.5 -10 36.5s-23 13.5 -43 13.5h-20
l53 95h35z" />
    <glyph glyph-name="onesuperior" unicode="&#xb9;" horiz-adv-x="170" 
d="M121 615c-6 -6.66699 -12.666 -12.667 -19.999 -18c-6.66699 -4.66699 -15 -8.66699 -25 -12s-21.667 -5 -35 -5l4 30c10 0 19.833 2 29.5 6s18.5 9.66699 26.5 17s14.667 15.833 20 25.5s8.66602 20.167 9.99902 31.5h45l-46 -330h-45z" />
    <glyph glyph-name="ordmasculine" unicode="&#xba;" horiz-adv-x="350" 
d="M343 525c-3.33301 -25.333 -10.333 -48 -21 -68s-23.5 -37.333 -38.5 -52s-31.833 -25.834 -50.5 -33.501s-38 -11.5 -58 -11.5s-38.333 3.83301 -55 11.5s-30.5 18.834 -41.5 33.501s-18.833 32 -23.5 52s-5.33398 42.667 -2.00098 68
c3.33301 24.667 10.333 47.167 21 67.5s23.5 37.833 38.5 52.5s31.833 25.834 50.5 33.501s38 11.5 58 11.5s38.333 -3.83301 55 -11.5s30.5 -18.834 41.5 -33.501s18.833 -32.167 23.5 -52.5s5.33398 -42.833 2.00098 -67.5zM298 525
c2.66699 18.667 2.33203 35.667 -1.00098 51s-9 28.5 -17 39.5s-17.5 19.5 -28.5 25.5s-22.833 9 -35.5 9s-25.334 -3 -38.001 -9s-24.5 -14.5 -35.5 -25.5s-20.5 -24.167 -28.5 -39.5s-13.333 -32.333 -16 -51s-2.16699 -35.667 1.5 -51s9.5 -28.5 17.5 -39.5
s17.5 -19.5 28.5 -25.5s22.833 -9 35.5 -9s25.334 3 38.001 9s24.5 14.5 35.5 25.5s20.333 24.167 28 39.5s12.834 32.333 15.501 51z" />
    <glyph glyph-name="guillemotright" unicode="&#xbb;" horiz-adv-x="415" 
d="M220 40h-50l137 190l-83 190h50l83 -190zM45 40h-50l137 190l-83 190h50l83 -190z" />
    <glyph glyph-name="onequarter" unicode="&#xbc;" horiz-adv-x="655" 
d="M60 0h-55l521 690h55zM141 615c-6 -6.66699 -12.666 -12.667 -19.999 -18c-6.66699 -4.66699 -15 -8.66699 -25 -12s-21.667 -5 -35 -5l4 30c10 0 19.833 2 29.5 6s18.5 9.66699 26.5 17s14.667 15.833 20 25.5s8.66602 20.167 9.99902 31.5h45l-46 -330h-45zM490.001 1
l11 80h-165l6 40l133 210h45l-129 -210h116l9 65h45l-9 -65h40l-6 -40h-40l-11 -80h-45z" />
    <glyph glyph-name="onehalf" unicode="&#xbd;" horiz-adv-x="665" 
d="M60 0h-55l521 690h55zM141 615c-6 -6.66699 -12.666 -12.667 -19.999 -18c-6.66699 -4.66699 -15 -8.66699 -25 -12s-21.667 -5 -35 -5l4 30c10 0 19.833 2 29.5 6s18.5 9.66699 26.5 17s14.667 15.833 20 25.5s8.66602 20.167 9.99902 31.5h45l-46 -330h-45z
M556.001 231c2.66699 17.333 -1.33301 31.6689 -12 43.002s-28.667 17 -54 17s-45.333 -5.5 -60 -16.5s-25.667 -24.167 -33 -39.5l-34 6c8.66699 25.333 24 46.666 46 63.999s50.667 26 86 26c38 0 66.167 -9.66699 84.5 -29s25.5 -43 21.5 -71
c-2.66699 -18.667 -9.5 -34.5 -20.5 -47.5s-24.333 -24.667 -40 -35s-32.167 -19.5 -49.5 -27.5s-33.666 -16 -48.999 -24s-28.333 -16.5 -39 -25.5s-16.667 -19.167 -18 -30.5h195l-6 -40h-240l4 30c2.66699 19.333 9.66699 35.666 21 48.999s24.666 25 39.999 35
s31.833 19 49.5 27s34.167 16.333 49.5 25s28.333 18 39 28s17 22 19 36z" />
    <glyph glyph-name="threequarters" unicode="&#xbe;" horiz-adv-x="710" 
d="M115 0h-55l521 690h55zM545 1l11 80h-165l6 40l133 210h45l-129 -210h116l9 65h45l-9 -65h40l-6 -40h-40l-11 -80h-45zM156 400c22.667 0 41.665 6.66797 56.998 20.001s24.666 30 27.999 50c2.66699 20 -2 36.667 -14 50s-29.333 20 -52 20h-50l5 30l105 75l1 5h-150
l5 40h215l-5 -40l-106 -75c32.667 -2.66699 57 -13.334 73 -32.001s22 -43 18 -73c-2 -15.333 -7 -29.666 -15 -42.999s-18 -25 -30 -35s-25.833 -17.833 -41.5 -23.5s-32.167 -8.5 -49.5 -8.5c-35.333 0 -61.666 8.66699 -78.999 26s-26.666 38.666 -27.999 63.999l36 6
c2.66699 -15.333 9.83398 -28.5 21.501 -39.5s30.167 -16.5 55.5 -16.5z" />
    <glyph glyph-name="questiondown" unicode="&#xbf;" horiz-adv-x="530" 
d="M188 -185c52.667 0 96.5039 13.3359 131.504 40.0029s62.833 60 83.5 100l49 -10c-11.333 -24 -25.333 -46.5 -42 -67.5s-36.334 -39.5 -59.001 -55.5s-48 -28.667 -76 -38s-59 -14 -93 -14c-31.333 0 -59.333 5.16699 -84 15.5s-45.334 24 -62.001 41
s-29 36.167 -37 57.5s-10.333 43.333 -7 66c4.66699 31.333 14 57 28 77s30.167 36.667 48.5 50s38 25.166 59 35.499s40.667 21.666 59 33.999s34.333 27.166 48 44.499s22.5 40.333 26.5 69h40c-4.66699 -33.333 -13.834 -60.5 -27.501 -81.5s-29.334 -38.5 -47.001 -52.5
s-36.5 -26 -56.5 -36s-38.833 -21 -56.5 -33s-33 -26.167 -46 -42.5s-21.5 -37.833 -25.5 -64.5c-2 -16 0 -32.167 6 -48.5s15.333 -30.833 28 -43.5s28.5 -23 47.5 -31s40.5 -12 64.5 -12zM271.004 435.003c1.33301 10 5.83301 18.333 13.5 25s16.5 10 26.5 10
s17.833 -3.33301 23.5 -10s7.83398 -15 6.50098 -25s-5.83301 -18.333 -13.5 -25s-16.5 -10 -26.5 -10s-17.833 3.33301 -23.5 10s-7.83398 15 -6.50098 25z" />
    <glyph glyph-name="Agrave" unicode="&#xc0;" horiz-adv-x="670" 
d="M117 230h400l-42 415h-200zM101 185l-71 -185h-50l261 690h280l69 -690h-50l-19 185h-420zM336 910l148 -90l-19 -30l-155 75z" />
    <glyph glyph-name="Aacute" unicode="&#xc1;" horiz-adv-x="670" 
d="M117 230h400l-42 415h-200zM101 185l-71 -185h-50l261 690h280l69 -690h-50l-19 185h-420zM495 865l-175 -75l-11 30l172 90z" />
    <glyph glyph-name="Acircumflex" unicode="&#xc2;" horiz-adv-x="670" 
d="M117 230h400l-42 415h-200zM101 185l-71 -185h-50l261 690h280l69 -690h-50l-19 185h-420zM432 915l94 -150h-50l-69 110l-101 -110h-50l136 150h40z" />
    <glyph glyph-name="Atilde" unicode="&#xc3;" horiz-adv-x="670" 
d="M117 230h400l-42 415h-200zM101 185l-71 -185h-50l261 690h280l69 -690h-50l-19 185h-420zM450 790c-14 0 -25.167 3.33301 -33.5 10s-15.666 14.167 -21.999 22.5s-12.5 15.833 -18.5 22.5s-13.333 10 -22 10c-7.33301 0 -14.666 -3.33301 -21.999 -10
s-11.666 -15 -12.999 -25l-3 -25h-40l3 25c3.33301 22.667 12.666 40.834 27.999 54.501s33 20.5 53 20.5c14 0 25.167 -3.33301 33.5 -10s15.666 -14.167 21.999 -22.5s12.5 -15.833 18.5 -22.5s13.333 -10 22 -10c7.33301 0 14.666 3.33301 21.999 10s11.666 15 12.999 25
l3 25h40l-3 -25c-3.33301 -22.667 -12.666 -40.834 -27.999 -54.501s-33 -20.5 -53 -20.5z" />
    <glyph glyph-name="Adieresis" unicode="&#xc4;" horiz-adv-x="670" 
d="M117 230h400l-42 415h-200zM101 185l-71 -185h-50l261 690h280l69 -690h-50l-19 185h-420zM353 842c-1.33301 -8.66699 -5.66992 -16.167 -13.0029 -22.5s-15.333 -9.5 -24 -9.5c-9.33301 0 -16.666 3.16699 -21.999 9.5s-7.33301 13.833 -6 22.5
c1.33301 9.33301 5.5 17.166 12.5 23.499s15.167 9.5 24.5 9.5c8.66699 0 15.834 -3.16699 21.501 -9.5s7.83398 -14.166 6.50098 -23.499zM517.996 842c-1.33301 -8.66699 -5.66992 -16.167 -13.0029 -22.5s-15.333 -9.5 -24 -9.5c-9.33301 0 -16.666 3.16699 -21.999 9.5
s-7.33301 13.833 -6 22.5c1.33301 9.33301 5.5 17.166 12.5 23.499s15.167 9.5 24.5 9.5c8.66699 0 15.834 -3.16699 21.501 -9.5s7.83398 -14.166 6.50098 -23.499z" />
    <glyph glyph-name="Aring" unicode="&#xc5;" horiz-adv-x="670" 
d="M117 230h400l-42 415h-200zM101 185l-71 -185h-50l261 690h280l69 -690h-50l-19 185h-420zM509 860c-2 -14 -6.33105 -27 -12.998 -39s-15.334 -22.5 -26.001 -31.5s-22.334 -16.167 -35.001 -21.5s-26 -8 -40 -8c-28 0 -50.167 9.66699 -66.5 29s-22.833 43 -19.5 71
c2 14 6.5 27 13.5 39s15.667 22.5 26 31.5s21.833 16.167 34.5 21.5s26 8 40 8c28 0 50.333 -9.66699 67 -29s23 -43 19 -71zM474.002 860c2.66699 17.333 -1.5 32.5 -12.5 45.5s-25.167 19.5 -42.5 19.5s-33.5 -6.5 -48.5 -19.5s-23.833 -28.167 -26.5 -45.5
c-2 -17.333 2.5 -32.5 13.5 -45.5s25.167 -19.5 42.5 -19.5s33.5 6.5 48.5 19.5s23.5 28.167 25.5 45.5z" />
    <glyph glyph-name="AE" unicode="&#xc6;" horiz-adv-x="965" 
d="M891 45l-6 -45h-460l26 185h-350l-71 -185h-50l261 690h740l-6 -45h-410l-38 -275h320l-7 -45h-320l-39 -280h410zM117 230h340l58 415h-240z" />
    <glyph glyph-name="Ccedilla" unicode="&#xc7;" horiz-adv-x="765" 
d="M701 190c-13.333 -26 -30.498 -51.6631 -51.498 -76.9961s-45.5 -48 -73.5 -68s-59.333 -36.667 -94 -50s-72.334 -21.333 -113.001 -24l-25 -46c14 -2 26 -6.66699 36 -14c8.66699 -6 16 -14.5 22 -25.5s7.66699 -26.167 5 -45.5c-2 -12.667 -6.16699 -24.5 -12.5 -35.5
s-14.166 -20.5 -23.499 -28.5s-20.166 -14.333 -32.499 -19s-25.5 -7 -39.5 -7c-12.667 0 -23.5 1.66699 -32.5 5s-16.167 7.33301 -21.5 12c-6.66699 4.66699 -12 10.334 -16 17.001l29 27c3.33301 -4.66699 7.33301 -8.33398 12 -11.001c4 -2.66699 9 -5 15 -7
s12.667 -3 20 -3c15.333 0 28.166 4.5 38.499 13.5s16.5 21.167 18.5 36.5s-1.33301 27.5 -10 36.5s-23 13.5 -43 13.5h-20l45 81c-44 1.33301 -84.833 12.166 -122.5 32.499s-69.834 47.5 -96.501 81.5s-46.334 73.333 -59.001 118s-15.334 92 -8.00098 142
c7.33301 51.333 24 99.666 50 144.999s57.667 85 95 119s78.333 61 123 81s89.667 30 135 30c41.333 0 78.166 -6.16699 110.499 -18.5s60 -28.333 83 -48s41.5 -41.667 55.5 -66s23 -48.5 27 -72.5l-52 -10c-4.66699 21.333 -12.667 42.166 -24 62.499
s-26.5 38.5 -45.5 54.5s-42 28.833 -69 38.5s-57.833 14.5 -92.5 14.5c-37.333 0 -75.166 -8.83301 -113.499 -26.5s-73.666 -41.5 -105.999 -71.5s-60 -65 -83 -105s-37.5 -82.333 -43.5 -127c-6 -45.333 -3.33301 -88 8 -128s29 -75 53 -105s52.833 -53.667 86.5 -71
s69.167 -26 106.5 -26s71.5 5 102.5 15s59 23.333 84 40s47 36.167 66 58.5s35.167 46.166 48.5 71.499z" />
    <glyph glyph-name="Egrave" unicode="&#xc8;" horiz-adv-x="600" 
d="M526 45l-6 -45h-480l96 690h480l-6 -45h-430l-38 -275h340l-7 -45h-340l-39 -280h430zM331 910l148 -90l-19 -30l-155 75z" />
    <glyph glyph-name="Eacute" unicode="&#xc9;" horiz-adv-x="600" 
d="M526 45l-6 -45h-480l96 690h480l-6 -45h-430l-38 -275h340l-7 -45h-340l-39 -280h430zM505 865l-175 -75l-11 30l172 90z" />
    <glyph glyph-name="Ecircumflex" unicode="&#xca;" horiz-adv-x="600" 
d="M526 45l-6 -45h-480l96 690h480l-6 -45h-430l-38 -275h340l-7 -45h-340l-39 -280h430zM429 925l94 -150h-50l-69 110l-101 -110h-50l136 150h40z" />
    <glyph glyph-name="Edieresis" unicode="&#xcb;" horiz-adv-x="600" 
d="M526 45l-6 -45h-480l96 690h480l-6 -45h-430l-38 -275h340l-7 -45h-340l-39 -280h430zM348 842c-1.33301 -8.66699 -5.66992 -16.167 -13.0029 -22.5s-15.333 -9.5 -24 -9.5c-9.33301 0 -16.666 3.16699 -21.999 9.5s-7.33301 13.833 -6 22.5
c1.33301 9.33301 5.5 17.166 12.5 23.499s15.167 9.5 24.5 9.5c8.66699 0 15.834 -3.16699 21.501 -9.5s7.83398 -14.166 6.50098 -23.499zM512.996 842c-1.33301 -8.66699 -5.66992 -16.167 -13.0029 -22.5s-15.333 -9.5 -24 -9.5c-9.33301 0 -16.666 3.16699 -21.999 9.5
s-7.33301 13.833 -6 22.5c1.33301 9.33301 5.5 17.166 12.5 23.499s15.167 9.5 24.5 9.5c8.66699 0 15.834 -3.16699 21.501 -9.5s7.83398 -14.166 6.50098 -23.499z" />
    <glyph glyph-name="Igrave" unicode="&#xcc;" horiz-adv-x="240" 
d="M100 0h-50l96 690h50zM77 900l148 -90l-19 -30l-155 75z" />
    <glyph glyph-name="Iacute" unicode="&#xcd;" horiz-adv-x="240" 
d="M100 0h-50l96 690h50zM330 865l-175 -75l-11 30l172 90z" />
    <glyph glyph-name="Icircumflex" unicode="&#xce;" horiz-adv-x="230" 
d="M90 0h-50l96 690h50zM216 930l94 -150h-50l-69 110l-101 -110h-50l136 150h40z" />
    <glyph glyph-name="Idieresis" unicode="&#xcf;" horiz-adv-x="230" 
d="M90 0h-50l96 690h50zM133 832c-1.33301 -8.66699 -5.66992 -16.167 -13.0029 -22.5s-15.333 -9.5 -24 -9.5c-9.33301 0 -16.666 3.16699 -21.999 9.5s-7.33301 13.833 -6 22.5c1.33301 9.33301 5.5 17.166 12.5 23.499s15.167 9.5 24.5 9.5
c8.66699 0 15.834 -3.16699 21.501 -9.5s7.83398 -14.166 6.50098 -23.499zM297.996 832c-1.33301 -8.66699 -5.66992 -16.167 -13.0029 -22.5s-15.333 -9.5 -24 -9.5c-9.33301 0 -16.666 3.16699 -21.999 9.5s-7.33301 13.833 -6 22.5
c1.33301 9.33301 5.5 17.166 12.5 23.499s15.167 9.5 24.5 9.5c8.66699 0 15.834 -3.16699 21.501 -9.5s7.83398 -14.166 6.50098 -23.499z" />
    <glyph glyph-name="Eth" unicode="&#xd0;" horiz-adv-x="730" 
d="M42 370l80.002 -0.00390625l44 320h200c54 0 101.833 -8.66699 143.5 -26s76.167 -41.166 103.5 -71.499s46.666 -66.666 57.999 -108.999s13.666 -88.5 6.99902 -138.5c-7.33301 -50 -22.5 -96.167 -45.5 -138.5s-52.5 -78.666 -88.5 -108.999
s-77.167 -54.166 -123.5 -71.499s-96.5 -26 -150.5 -26h-200l45 325h-80zM628.002 344.996c6 44 4.16797 84.333 -5.49902 121s-26.334 68.167 -50.001 94.5s-53.5 47 -89.5 62s-77 22.5 -123 22.5h-150l-38 -275h185l-7 -45h-185l-39 -280h150c46 0 89.167 7.5 129.5 22.5
s75.833 35.667 106.5 62s56.167 57.833 76.5 94.5s33.5 77 39.5 121z" />
    <glyph glyph-name="Ntilde" unicode="&#xd1;" horiz-adv-x="710" 
d="M526 85h5l85 605h50l-96 -690h-55l-335 605h-5l-85 -605h-50l96 690h55zM481 795c-14 0 -25.167 3.33301 -33.5 10s-15.666 14.167 -21.999 22.5s-12.5 15.833 -18.5 22.5s-13.333 10 -22 10c-7.33301 0 -14.666 -3.33301 -21.999 -10s-11.666 -15 -12.999 -25l-3 -25
h-40l3 25c3.33301 22.667 12.666 40.834 27.999 54.501s33 20.5 53 20.5c14 0 25.167 -3.33301 33.5 -10s15.666 -14.167 21.999 -22.5s12.5 -15.833 18.5 -22.5s13.333 -10 22 -10c7.33301 0 14.666 3.33301 21.999 10s11.666 15 12.999 25l3 25h40l-3 -25
c-3.33301 -22.667 -12.666 -40.834 -27.999 -54.501s-33 -20.5 -53 -20.5z" />
    <glyph glyph-name="Ograve" unicode="&#xd2;" horiz-adv-x="820" 
d="M48 345c7.33301 51.333 24 99.666 50 144.999s58 85 96 119s80.167 61 126.5 81s93.166 30 140.499 30s91.333 -10 132 -30s75.167 -47 103.5 -81s49.166 -73.667 62.499 -119s16.333 -93.666 9 -144.999s-24 -99.666 -50 -144.999s-58 -85 -96 -119
s-80.167 -61 -126.5 -81s-93.166 -30 -140.499 -30s-91.333 10 -132 30s-75.167 47 -103.5 81s-49.166 73.667 -62.499 119s-16.333 93.666 -9 144.999zM718 345c6 44.667 3.16699 87 -8.5 127s-29.667 75 -54 105s-54 53.833 -89 71.5s-72.5 26.5 -112.5 26.5
s-79.833 -8.83301 -119.5 -26.5s-76 -41.5 -109 -71.5s-61 -65 -84 -105s-37.5 -82.333 -43.5 -127c-6 -45.333 -3.16699 -88 8.5 -128s29.667 -75 54 -105s54 -53.667 89 -71s72.5 -26 112.5 -26s79.833 8.66699 119.5 26s76 41 109 71s61 65 84 105s37.5 82.667 43.5 128z
M404 925l148 -90l-19 -30l-155 75z" />
    <glyph glyph-name="Oacute" unicode="&#xd3;" horiz-adv-x="820" 
d="M48 345c7.33301 51.333 24 99.666 50 144.999s58 85 96 119s80.167 61 126.5 81s93.166 30 140.499 30s91.333 -10 132 -30s75.167 -47 103.5 -81s49.166 -73.667 62.499 -119s16.333 -93.666 9 -144.999s-24 -99.666 -50 -144.999s-58 -85 -96 -119
s-80.167 -61 -126.5 -81s-93.166 -30 -140.499 -30s-91.333 10 -132 30s-75.167 47 -103.5 81s-49.166 73.667 -62.499 119s-16.333 93.666 -9 144.999zM718 345c6 44.667 3.16699 87 -8.5 127s-29.667 75 -54 105s-54 53.833 -89 71.5s-72.5 26.5 -112.5 26.5
s-79.833 -8.83301 -119.5 -26.5s-76 -41.5 -109 -71.5s-61 -65 -84 -105s-37.5 -82.333 -43.5 -127c-6 -45.333 -3.16699 -88 8.5 -128s29.667 -75 54 -105s54 -53.667 89 -71s72.5 -26 112.5 -26s79.833 8.66699 119.5 26s76 41 109 71s61 65 84 105s37.5 82.667 43.5 128z
M593 880l-175 -75l-11 30l172 90z" />
    <glyph glyph-name="Ocircumflex" unicode="&#xd4;" horiz-adv-x="820" 
d="M48 345c7.33301 51.333 24 99.666 50 144.999s58 85 96 119s80.167 61 126.5 81s93.166 30 140.499 30s91.333 -10 132 -30s75.167 -47 103.5 -81s49.166 -73.667 62.499 -119s16.333 -93.666 9 -144.999s-24 -99.666 -50 -144.999s-58 -85 -96 -119
s-80.167 -61 -126.5 -81s-93.166 -30 -140.499 -30s-91.333 10 -132 30s-75.167 47 -103.5 81s-49.166 73.667 -62.499 119s-16.333 93.666 -9 144.999zM718 345c6 44.667 3.16699 87 -8.5 127s-29.667 75 -54 105s-54 53.833 -89 71.5s-72.5 26.5 -112.5 26.5
s-79.833 -8.83301 -119.5 -26.5s-76 -41.5 -109 -71.5s-61 -65 -84 -105s-37.5 -82.333 -43.5 -127c-6 -45.333 -3.16699 -88 8.5 -128s29.667 -75 54 -105s54 -53.667 89 -71s72.5 -26 112.5 -26s79.833 8.66699 119.5 26s76 41 109 71s61 65 84 105s37.5 82.667 43.5 128z
M511 940l94 -150h-50l-69 110l-101 -110h-50l136 150h40z" />
    <glyph glyph-name="Otilde" unicode="&#xd5;" horiz-adv-x="820" 
d="M48 345c7.33301 51.333 24 99.666 50 144.999s58 85 96 119s80.167 61 126.5 81s93.166 30 140.499 30s91.333 -10 132 -30s75.167 -47 103.5 -81s49.166 -73.667 62.499 -119s16.333 -93.666 9 -144.999s-24 -99.666 -50 -144.999s-58 -85 -96 -119
s-80.167 -61 -126.5 -81s-93.166 -30 -140.499 -30s-91.333 10 -132 30s-75.167 47 -103.5 81s-49.166 73.667 -62.499 119s-16.333 93.666 -9 144.999zM718 345c6 44.667 3.16699 87 -8.5 127s-29.667 75 -54 105s-54 53.833 -89 71.5s-72.5 26.5 -112.5 26.5
s-79.833 -8.83301 -119.5 -26.5s-76 -41.5 -109 -71.5s-61 -65 -84 -105s-37.5 -82.333 -43.5 -127c-6 -45.333 -3.16699 -88 8.5 -128s29.667 -75 54 -105s54 -53.667 89 -71s72.5 -26 112.5 -26s79.833 8.66699 119.5 26s76 41 109 71s61 65 84 105s37.5 82.667 43.5 128z
M517 805c-14 0 -25.167 3.33301 -33.5 10s-15.666 14.167 -21.999 22.5s-12.5 15.833 -18.5 22.5s-13.333 10 -22 10c-7.33301 0 -14.666 -3.33301 -21.999 -10s-11.666 -15 -12.999 -25l-3 -25h-40l3 25c3.33301 22.667 12.666 40.834 27.999 54.501s33 20.5 53 20.5
c14 0 25.167 -3.33301 33.5 -10s15.666 -14.167 21.999 -22.5s12.5 -15.833 18.5 -22.5s13.333 -10 22 -10c7.33301 0 14.666 3.33301 21.999 10s11.666 15 12.999 25l3 25h40l-3 -25c-3.33301 -22.667 -12.666 -40.834 -27.999 -54.501s-33 -20.5 -53 -20.5z" />
    <glyph glyph-name="Odieresis" unicode="&#xd6;" horiz-adv-x="820" 
d="M48 345c7.33301 51.333 24 99.666 50 144.999s58 85 96 119s80.167 61 126.5 81s93.166 30 140.499 30s91.333 -10 132 -30s75.167 -47 103.5 -81s49.166 -73.667 62.499 -119s16.333 -93.666 9 -144.999s-24 -99.666 -50 -144.999s-58 -85 -96 -119
s-80.167 -61 -126.5 -81s-93.166 -30 -140.499 -30s-91.333 10 -132 30s-75.167 47 -103.5 81s-49.166 73.667 -62.499 119s-16.333 93.666 -9 144.999zM718 345c6 44.667 3.16699 87 -8.5 127s-29.667 75 -54 105s-54 53.833 -89 71.5s-72.5 26.5 -112.5 26.5
s-79.833 -8.83301 -119.5 -26.5s-76 -41.5 -109 -71.5s-61 -65 -84 -105s-37.5 -82.333 -43.5 -127c-6 -45.333 -3.16699 -88 8.5 -128s29.667 -75 54 -105s54 -53.667 89 -71s72.5 -26 112.5 -26s79.833 8.66699 119.5 26s76 41 109 71s61 65 84 105s37.5 82.667 43.5 128z
M435 862c-1.33301 -8.66699 -5.66992 -16.167 -13.0029 -22.5s-15.333 -9.5 -24 -9.5c-9.33301 0 -16.666 3.16699 -21.999 9.5s-7.33301 13.833 -6 22.5c1.33301 9.33301 5.5 17.166 12.5 23.499s15.167 9.5 24.5 9.5c8.66699 0 15.834 -3.16699 21.501 -9.5
s7.83398 -14.166 6.50098 -23.499zM599.996 862c-1.33301 -8.66699 -5.66992 -16.167 -13.0029 -22.5s-15.333 -9.5 -24 -9.5c-9.33301 0 -16.666 3.16699 -21.999 9.5s-7.33301 13.833 -6 22.5c1.33301 9.33301 5.5 17.166 12.5 23.499s15.167 9.5 24.5 9.5
c8.66699 0 15.834 -3.16699 21.501 -9.5s7.83398 -14.166 6.50098 -23.499z" />
    <glyph glyph-name="multiply" unicode="&#xd7;" horiz-adv-x="390" 
d="M53 170l-25 30l131 115l-99 115l34 30l99 -115l131 115l26 -30l-131 -115l99 -115l-35 -30l-98 115z" />
    <glyph glyph-name="Oslash" unicode="&#xd8;" horiz-adv-x="850" 
d="M128 200c12 -35.333 28.999 -66.333 50.999 -93c9.33301 -11.333 20.333 -22.5 33 -33.5s27.167 -20.833 43.5 -29.5s34.5 -15.667 54.5 -21s42.333 -8 67 -8c40 0 79.833 8.66699 119.5 26s76 41 109 71s61 65 84 105s37.5 82.667 43.5 128
c2 13.333 2.83301 26.5 2.5 39.5s-1.16602 24.167 -2.49902 33.5c-1.33301 11.333 -3 22 -5 32zM782.999 345c-7.33301 -51.333 -23.998 -99.666 -49.998 -144.999s-58 -85 -96 -119s-80.167 -61 -126.5 -81s-93.166 -30 -140.499 -30c-28.667 0 -54.834 3 -78.501 9
s-45 13.833 -64 23.5s-35.833 20.834 -50.5 33.501s-27.334 25.667 -38.001 39c-26 30.667 -45.667 65.667 -59 105l-112 -45l7 45l95 40c-2.66699 10.667 -5 22.667 -7 36c-1.33301 11.333 -2.33301 24.666 -3 39.999s0.333008 31.666 3 48.999
c7.33301 51.333 24 99.666 50 144.999s58 85 96 119s80.167 61 126.5 81s93.166 30 140.499 30c28.667 0 54.834 -3 78.501 -9s45 -14 64 -24s35.667 -21.333 50 -34s27.166 -25.334 38.499 -38.001c26 -31.333 45.667 -66.333 59 -105l112 45l-7 -45l-95 -40
c2.66699 -11.333 5 -23.333 7 -36c1.33301 -11.333 2.33301 -24.666 3 -39.999s-0.333008 -31.666 -3 -48.999zM718.001 490c-12 34.667 -29.001 65.334 -51.001 92.001c-9.33301 11.333 -20.333 22.666 -33 33.999s-27.167 21.333 -43.5 30s-34.666 15.667 -54.999 21
s-42.5 8 -66.5 8c-40 0 -79.833 -8.83301 -119.5 -26.5s-76 -41.5 -109 -71.5s-61 -65 -84 -105s-37.5 -82.333 -43.5 -127c-2 -14 -3 -27.333 -3 -40s0.666992 -23.667 2 -33c1.33301 -11.333 3.33301 -22 6 -32z" />
    <glyph glyph-name="Ugrave" unicode="&#xd9;" horiz-adv-x="710" 
d="M307 15c31.333 0 60.833 5.5 88.5 16.5s52.5 26.667 74.5 47s40.333 45 55 74s24.667 61.5 30 97.5l61 440h50l-61 -440c-6 -42.667 -18 -81.167 -36 -115.5s-40.5 -63.666 -67.5 -87.999s-57.667 -43.166 -92 -56.499s-70.833 -20 -109.5 -20
s-73.334 6.66699 -104.001 20s-56 32.166 -76 56.499s-34 53.666 -42 87.999s-9 72.833 -3 115.5l61 440h50l-61 -440c-5.33301 -36 -4.66602 -68.5 2.00098 -97.5s18.167 -53.667 34.5 -74s36.833 -36 61.5 -47s52.667 -16.5 84 -16.5zM353 920l148 -90l-19 -30l-155 75z
" />
    <glyph glyph-name="Uacute" unicode="&#xda;" horiz-adv-x="710" 
d="M307 15c31.333 0 60.833 5.5 88.5 16.5s52.5 26.667 74.5 47s40.333 45 55 74s24.667 61.5 30 97.5l61 440h50l-61 -440c-6 -42.667 -18 -81.167 -36 -115.5s-40.5 -63.666 -67.5 -87.999s-57.667 -43.166 -92 -56.499s-70.833 -20 -109.5 -20
s-73.334 6.66699 -104.001 20s-56 32.166 -76 56.499s-34 53.666 -42 87.999s-9 72.833 -3 115.5l61 440h50l-61 -440c-5.33301 -36 -4.66602 -68.5 2.00098 -97.5s18.167 -53.667 34.5 -74s36.833 -36 61.5 -47s52.667 -16.5 84 -16.5zM537 875l-175 -75l-11 30l172 90z
" />
    <glyph glyph-name="Ucircumflex" unicode="&#xdb;" horiz-adv-x="710" 
d="M307 15c31.333 0 60.833 5.5 88.5 16.5s52.5 26.667 74.5 47s40.333 45 55 74s24.667 61.5 30 97.5l61 440h50l-61 -440c-6 -42.667 -18 -81.167 -36 -115.5s-40.5 -63.666 -67.5 -87.999s-57.667 -43.166 -92 -56.499s-70.833 -20 -109.5 -20
s-73.334 6.66699 -104.001 20s-56 32.166 -76 56.499s-34 53.666 -42 87.999s-9 72.833 -3 115.5l61 440h50l-61 -440c-5.33301 -36 -4.66602 -68.5 2.00098 -97.5s18.167 -53.667 34.5 -74s36.833 -36 61.5 -47s52.667 -16.5 84 -16.5zM459 930l94 -150h-50l-69 110
l-101 -110h-50l136 150h40z" />
    <glyph glyph-name="Udieresis" unicode="&#xdc;" horiz-adv-x="710" 
d="M307 15c31.333 0 60.833 5.5 88.5 16.5s52.5 26.667 74.5 47s40.333 45 55 74s24.667 61.5 30 97.5l61 440h50l-61 -440c-6 -42.667 -18 -81.167 -36 -115.5s-40.5 -63.666 -67.5 -87.999s-57.667 -43.166 -92 -56.499s-70.833 -20 -109.5 -20
s-73.334 6.66699 -104.001 20s-56 32.166 -76 56.499s-34 53.666 -42 87.999s-9 72.833 -3 115.5l61 440h50l-61 -440c-5.33301 -36 -4.66602 -68.5 2.00098 -97.5s18.167 -53.667 34.5 -74s36.833 -36 61.5 -47s52.667 -16.5 84 -16.5zM368 842
c-1.33301 -8.66699 -5.66992 -16.167 -13.0029 -22.5s-15.333 -9.5 -24 -9.5c-9.33301 0 -16.666 3.16699 -21.999 9.5s-7.33301 13.833 -6 22.5c1.33301 9.33301 5.5 17.166 12.5 23.499s15.167 9.5 24.5 9.5c8.66699 0 15.834 -3.16699 21.501 -9.5
s7.83398 -14.166 6.50098 -23.499zM532.996 842c-1.33301 -8.66699 -5.66992 -16.167 -13.0029 -22.5s-15.333 -9.5 -24 -9.5c-9.33301 0 -16.666 3.16699 -21.999 9.5s-7.33301 13.833 -6 22.5c1.33301 9.33301 5.5 17.166 12.5 23.499s15.167 9.5 24.5 9.5
c8.66699 0 15.834 -3.16699 21.501 -9.5s7.83398 -14.166 6.50098 -23.499z" />
    <glyph glyph-name="Yacute" unicode="&#xdd;" horiz-adv-x="630" 
d="M56 690h55l193 -410l307 410h55l-344 -460l-32 -230h-50l32 230zM500 865l-175 -75l-11 30l172 90z" />
    <glyph glyph-name="Thorn" unicode="&#xde;" horiz-adv-x="630" 
d="M304 640c47.333 0 89.333 -7.33496 126 -22.002s67 -35 91 -61s41.167 -56.667 51.5 -92s12.5 -73.666 6.5 -114.999s-19 -79.666 -39 -114.999s-45.5 -66 -76.5 -92s-67 -46.333 -108 -61s-85.167 -22 -132.5 -22h-125l-11 -80h-50l104 740h50l-12 -80h125zM173 594.998
l-69 -490h125c40 0 77.167 6.16699 111.5 18.5s64.666 29.5 90.999 51.5s47.833 47.833 64.5 77.5s27.667 62.167 33 97.5c4.66699 34.667 2.83398 67 -5.49902 97s-22.5 56 -42.5 78s-45.5 39.167 -76.5 51.5s-66.5 18.5 -106.5 18.5h-125z" />
    <glyph glyph-name="germandbls" unicode="&#xdf;" 
d="M264 390c18.667 0 36.665 3.50098 53.998 10.501s33 16.667 47 29s25.667 26.666 35 42.999s15.333 33.833 18 52.5c2.66699 21.333 1.83398 40.833 -2.49902 58.5s-11.666 33 -21.999 46s-23.166 23 -38.499 30s-32.333 10.5 -51 10.5s-36.834 -3.5 -54.501 -10.5
s-33.5 -17 -47.5 -30s-25.833 -28.333 -35.5 -46s-15.834 -37.167 -18.501 -58.5l-73 -525h-45l73 525c4 26 12.167 50.333 24.5 73s27.833 42.334 46.5 59.001s39.5 29.667 62.5 39s47.167 14 72.5 14c24.667 0 47.334 -4.66699 68.001 -14s38 -22.333 52 -39
s24.167 -36.334 30.5 -59.001s7.5 -47 3.5 -73c-4.66699 -32 -13.667 -57.167 -27 -75.5s-27.333 -32.833 -42 -43.5c-17.333 -12 -36 -20.667 -56 -26l-1 -5c28.667 -4.66699 53.334 -14 74.001 -28c8.66699 -6 17 -13.5 25 -22.5s14.667 -19.667 20 -32
s9.16602 -26.5 11.499 -42.5s2.16602 -34.333 -0.500977 -55c-4 -26 -12.333 -50.833 -25 -74.5s-29 -44.5 -49 -62.5s-43 -32.167 -69 -42.5s-54 -15.5 -84 -15.5h-55l5 40h55c21.333 0 42 4.16699 62 12.5s38 19.5 54 33.5s29.333 30.333 40 49s17.667 38.667 21 60
c2.66699 21.333 1.33398 41.333 -3.99902 60s-14 35 -26 49s-26.833 25.167 -44.5 33.5s-37.167 12.5 -58.5 12.5h-40l5 40h10z" />
    <glyph glyph-name="agrave" unicode="&#xe0;" 
d="M385 75l-5.00098 0.00195312c-14 -18 -29.667 -34 -47 -48c-15.333 -12 -33.666 -22.833 -54.999 -32.5s-45 -14.5 -71 -14.5c-28.667 0 -55.5 6.16699 -80.5 18.5s-46 29.666 -63 51.999s-29.5 48.833 -37.5 79.5s-9.33301 64 -4 100
c4.66699 36 15.334 69.333 32.001 100s36.667 57.167 60 79.5s49.166 39.666 77.499 51.999s56.833 18.5 85.5 18.5c26 0 48.333 -5 67 -15s34 -21 46 -33c14 -14 25.333 -29.667 34 -47h5l10 75h45l-64 -460h-45zM418.999 320.002
c-8.66699 22.667 -19.667 42.6709 -33 60.0039c-11.333 15.333 -26.333 29.166 -45 41.499s-42 18.5 -70 18.5c-22.667 0 -45.167 -5 -67.5 -15s-43 -24.333 -62 -43s-35.167 -40.834 -48.5 -66.501s-22 -54.167 -26 -85.5c-4.66699 -31.333 -3.83398 -59.833 2.49902 -85.5
s16.166 -47.834 29.499 -66.501s29.833 -33 49.5 -43s40.834 -15 63.501 -15c28 0 53 6.16699 75 18.5s41 26.166 57 41.499c18.667 17.333 35.334 37.333 50.001 60zM241.999 699.006l148 -90l-19 -30l-155 75z" />
    <glyph glyph-name="aacute" unicode="&#xe1;" 
d="M385 75l-5.00098 0.00195312c-14 -18 -29.667 -34 -47 -48c-15.333 -12 -33.666 -22.833 -54.999 -32.5s-45 -14.5 -71 -14.5c-28.667 0 -55.5 6.16699 -80.5 18.5s-46 29.666 -63 51.999s-29.5 48.833 -37.5 79.5s-9.33301 64 -4 100
c4.66699 36 15.334 69.333 32.001 100s36.667 57.167 60 79.5s49.166 39.666 77.499 51.999s56.833 18.5 85.5 18.5c26 0 48.333 -5 67 -15s34 -21 46 -33c14 -14 25.333 -29.667 34 -47h5l10 75h45l-64 -460h-45zM418.999 320.002
c-8.66699 22.667 -19.667 42.6709 -33 60.0039c-11.333 15.333 -26.333 29.166 -45 41.499s-42 18.5 -70 18.5c-22.667 0 -45.167 -5 -67.5 -15s-43 -24.333 -62 -43s-35.167 -40.834 -48.5 -66.501s-22 -54.167 -26 -85.5c-4.66699 -31.333 -3.83398 -59.833 2.49902 -85.5
s16.166 -47.834 29.499 -66.501s29.833 -33 49.5 -43s40.834 -15 63.501 -15c28 0 53 6.16699 75 18.5s41 26.166 57 41.499c18.667 17.333 35.334 37.333 50.001 60zM410.999 655.006l-175 -75l-11 30l172 90z" />
    <glyph glyph-name="acircumflex" unicode="&#xe2;" 
d="M385 75l-5.00098 0.00195312c-14 -18 -29.667 -34 -47 -48c-15.333 -12 -33.666 -22.833 -54.999 -32.5s-45 -14.5 -71 -14.5c-28.667 0 -55.5 6.16699 -80.5 18.5s-46 29.666 -63 51.999s-29.5 48.833 -37.5 79.5s-9.33301 64 -4 100
c4.66699 36 15.334 69.333 32.001 100s36.667 57.167 60 79.5s49.166 39.666 77.499 51.999s56.833 18.5 85.5 18.5c26 0 48.333 -5 67 -15s34 -21 46 -33c14 -14 25.333 -29.667 34 -47h5l10 75h45l-64 -460h-45zM418.999 320.002
c-8.66699 22.667 -19.667 42.6709 -33 60.0039c-11.333 15.333 -26.333 29.166 -45 41.499s-42 18.5 -70 18.5c-22.667 0 -45.167 -5 -67.5 -15s-43 -24.333 -62 -43s-35.167 -40.834 -48.5 -66.501s-22 -54.167 -26 -85.5c-4.66699 -31.333 -3.83398 -59.833 2.49902 -85.5
s16.166 -47.834 29.499 -66.501s29.833 -33 49.5 -43s40.834 -15 63.501 -15c28 0 53 6.16699 75 18.5s41 26.166 57 41.499c18.667 17.333 35.334 37.333 50.001 60zM338.999 715.006l94 -150h-50l-69 110l-101 -110h-50l136 150h40z" />
    <glyph glyph-name="atilde" unicode="&#xe3;" 
d="M385 75l-5.00098 0.00195312c-14 -18 -29.667 -34 -47 -48c-15.333 -12 -33.666 -22.833 -54.999 -32.5s-45 -14.5 -71 -14.5c-28.667 0 -55.5 6.16699 -80.5 18.5s-46 29.666 -63 51.999s-29.5 48.833 -37.5 79.5s-9.33301 64 -4 100
c4.66699 36 15.334 69.333 32.001 100s36.667 57.167 60 79.5s49.166 39.666 77.499 51.999s56.833 18.5 85.5 18.5c26 0 48.333 -5 67 -15s34 -21 46 -33c14 -14 25.333 -29.667 34 -47h5l10 75h45l-64 -460h-45zM418.999 320.002
c-8.66699 22.667 -19.667 42.6709 -33 60.0039c-11.333 15.333 -26.333 29.166 -45 41.499s-42 18.5 -70 18.5c-22.667 0 -45.167 -5 -67.5 -15s-43 -24.333 -62 -43s-35.167 -40.834 -48.5 -66.501s-22 -54.167 -26 -85.5c-4.66699 -31.333 -3.83398 -59.833 2.49902 -85.5
s16.166 -47.834 29.499 -66.501s29.833 -33 49.5 -43s40.834 -15 63.501 -15c28 0 53 6.16699 75 18.5s41 26.166 57 41.499c18.667 17.333 35.334 37.333 50.001 60zM355.999 580.006c-14 0 -25.167 3.33301 -33.5 10s-15.666 14.167 -21.999 22.5s-12.5 15.833 -18.5 22.5
s-13.333 10 -22 10c-7.33301 0 -14.666 -3.33301 -21.999 -10s-11.666 -15 -12.999 -25l-3 -25h-40l3 25c3.33301 22.667 12.666 40.834 27.999 54.501s33 20.5 53 20.5c14 0 25.167 -3.33301 33.5 -10s15.666 -14.167 21.999 -22.5s12.5 -15.833 18.5 -22.5
s13.333 -10 22 -10c7.33301 0 14.666 3.33301 21.999 10s11.666 15 12.999 25l3 25h40l-3 -25c-3.33301 -22.667 -12.666 -40.834 -27.999 -54.501s-33 -20.5 -53 -20.5z" />
    <glyph glyph-name="adieresis" unicode="&#xe4;" 
d="M385 75l-5.00098 0.00195312c-14 -18 -29.667 -34 -47 -48c-15.333 -12 -33.666 -22.833 -54.999 -32.5s-45 -14.5 -71 -14.5c-28.667 0 -55.5 6.16699 -80.5 18.5s-46 29.666 -63 51.999s-29.5 48.833 -37.5 79.5s-9.33301 64 -4 100
c4.66699 36 15.334 69.333 32.001 100s36.667 57.167 60 79.5s49.166 39.666 77.499 51.999s56.833 18.5 85.5 18.5c26 0 48.333 -5 67 -15s34 -21 46 -33c14 -14 25.333 -29.667 34 -47h5l10 75h45l-64 -460h-45zM418.999 320.002
c-8.66699 22.667 -19.667 42.6709 -33 60.0039c-11.333 15.333 -26.333 29.166 -45 41.499s-42 18.5 -70 18.5c-22.667 0 -45.167 -5 -67.5 -15s-43 -24.333 -62 -43s-35.167 -40.834 -48.5 -66.501s-22 -54.167 -26 -85.5c-4.66699 -31.333 -3.83398 -59.833 2.49902 -85.5
s16.166 -47.834 29.499 -66.501s29.833 -33 49.5 -43s40.834 -15 63.501 -15c28 0 53 6.16699 75 18.5s41 26.166 57 41.499c18.667 17.333 35.334 37.333 50.001 60zM256.999 623.006c-1.33301 -8.66699 -5.66992 -16.167 -13.0029 -22.5s-15.333 -9.5 -24 -9.5
c-9.33301 0 -16.666 3.16699 -21.999 9.5s-7.33301 13.833 -6 22.5c1.33301 9.33301 5.5 17.166 12.5 23.499s15.167 9.5 24.5 9.5c8.66699 0 15.834 -3.16699 21.501 -9.5s7.83398 -14.166 6.50098 -23.499zM421.995 623.006
c-1.33301 -8.66699 -5.66992 -16.167 -13.0029 -22.5s-15.333 -9.5 -24 -9.5c-9.33301 0 -16.666 3.16699 -21.999 9.5s-7.33301 13.833 -6 22.5c1.33301 9.33301 5.5 17.166 12.5 23.499s15.167 9.5 24.5 9.5c8.66699 0 15.834 -3.16699 21.501 -9.5
s7.83398 -14.166 6.50098 -23.499z" />
    <glyph glyph-name="aring" unicode="&#xe5;" 
d="M385 75l-5.00098 0.00195312c-14 -18 -29.667 -34 -47 -48c-15.333 -12 -33.666 -22.833 -54.999 -32.5s-45 -14.5 -71 -14.5c-28.667 0 -55.5 6.16699 -80.5 18.5s-46 29.666 -63 51.999s-29.5 48.833 -37.5 79.5s-9.33301 64 -4 100
c4.66699 36 15.334 69.333 32.001 100s36.667 57.167 60 79.5s49.166 39.666 77.499 51.999s56.833 18.5 85.5 18.5c26 0 48.333 -5 67 -15s34 -21 46 -33c14 -14 25.333 -29.667 34 -47h5l10 75h45l-64 -460h-45zM418.999 320.002
c-8.66699 22.667 -19.667 42.6709 -33 60.0039c-11.333 15.333 -26.333 29.166 -45 41.499s-42 18.5 -70 18.5c-22.667 0 -45.167 -5 -67.5 -15s-43 -24.333 -62 -43s-35.167 -40.834 -48.5 -66.501s-22 -54.167 -26 -85.5c-4.66699 -31.333 -3.83398 -59.833 2.49902 -85.5
s16.166 -47.834 29.499 -66.501s29.833 -33 49.5 -43s40.834 -15 63.501 -15c28 0 53 6.16699 75 18.5s41 26.166 57 41.499c18.667 17.333 35.334 37.333 50.001 60zM410.999 660.006c-2 -14 -6.33105 -27 -12.998 -39s-15.334 -22.5 -26.001 -31.5
s-22.334 -16.167 -35.001 -21.5s-26 -8 -40 -8c-28 0 -50.167 9.66699 -66.5 29s-22.833 43 -19.5 71c2 14 6.5 27 13.5 39s15.667 22.5 26 31.5s21.833 16.167 34.5 21.5s26 8 40 8c28 0 50.333 -9.66699 67 -29s23 -43 19 -71zM376.001 660.006
c2.66699 17.333 -1.5 32.5 -12.5 45.5s-25.167 19.5 -42.5 19.5s-33.5 -6.5 -48.5 -19.5s-23.833 -28.167 -26.5 -45.5c-2 -17.333 2.5 -32.5 13.5 -45.5s25.167 -19.5 42.5 -19.5s33.5 6.5 48.5 19.5s23.5 28.167 25.5 45.5z" />
    <glyph glyph-name="ae" unicode="&#xe6;" horiz-adv-x="865" 
d="M431 365c10.667 14 22.832 27.8389 36.499 41.5059s28.834 26 45.501 37s34.5 19.833 53.5 26.5s39.167 10 60.5 10c27.333 0 53 -6.16699 77 -18.5s44.5 -29.666 61.5 -51.999s29.333 -48.833 37 -79.5s9.16699 -64 4.5 -100l-23 -20h-365
c-2.66699 -26 -0.333984 -50.667 6.99902 -74s17.833 -43.5 31.5 -60.5s30 -30.5 49 -40.5s39.167 -15 60.5 -15c22 0 42.333 3.16699 61 9.5s35.834 15 51.501 26s29.334 23.833 41.001 38.5s21.167 30 28.5 46l44 -10c-8 -18.667 -19 -37 -33 -55s-31 -34 -51 -48
s-42.333 -25.333 -67 -34s-51.334 -13 -80.001 -13c-25.333 0 -47.833 4 -67.5 12s-37 18.167 -52 30.5s-27.333 26.166 -37 41.499s-16.5 30.666 -20.5 45.999h-5c-14 -24.667 -31.667 -46.334 -53 -65.001c-18 -16.667 -41.167 -31.667 -69.5 -45s-61.833 -20 -100.5 -20
c-26 0 -49 3.66699 -69 11s-36.5 17.333 -49.5 30s-22.333 27.167 -28 43.5s-7.16699 33.166 -4.5 50.499s9 34.166 19 50.499s23.333 30.666 40 42.999s36 22.333 58 30s46 11.5 72 11.5h185l4 30c6.66699 50 -1.5 89.167 -24.5 117.5s-55.833 42.5 -98.5 42.5
c-24 0 -44.833 -4.16699 -62.5 -12.5s-32.167 -17.5 -43.5 -27.5c-13.333 -12 -25 -25.333 -35 -40l-38 15c12 19.333 26.667 36.666 44 51.999c15.333 13.333 34.5 25.5 57.5 36.5s50.833 16.5 83.5 16.5c36 0 64.5 -6 85.5 -18s37.167 -25.333 48.5 -40
c12.667 -17.333 21 -36.333 25 -57h5zM620.998 440.006c-20 0 -40.499 -4.66797 -61.499 -14.001s-40.667 -22.5 -59 -39.5s-34.333 -37.167 -48 -60.5s-22.834 -48.666 -27.501 -75.999h340c2 26 -0.5 50.667 -7.5 74s-17.333 43.5 -31 60.5s-29.667 30.5 -48 40.5
s-37.5 15 -57.5 15zM161.999 20.0049c26 0 50.999 4.66797 74.999 14.001s45.5 22.5 64.5 39.5s34.833 37.167 47.5 60.5s21 48.666 25 75.999h-185c-42.667 0 -75.5 -8.83301 -98.5 -26.5s-36.167 -40.5 -39.5 -68.5c-4 -28 2.83301 -50.833 20.5 -68.5
s47.834 -26.5 90.501 -26.5z" />
    <glyph glyph-name="ccedilla" unicode="&#xe7;" horiz-adv-x="510" 
d="M448 130c-7.33301 -18 -17.498 -35.4971 -30.498 -52.4971s-28.667 -32.333 -47 -46s-38.833 -25 -61.5 -34s-47 -14.5 -73 -16.5l-26 -46c14 -2 26 -6.66699 36 -14c8.66699 -6 16 -14.5 22 -25.5s7.66699 -26.167 5 -45.5c-3.33301 -25.333 -15 -46.666 -35 -63.999
s-44 -26 -72 -26c-12.667 0 -23.5 1.66699 -32.5 5s-16.167 7.33301 -21.5 12c-6.66699 4.66699 -12 10.334 -16 17.001l28 27c3.33301 -4.66699 7.33301 -8.33398 12 -11.001c4 -2.66699 9 -5 15 -7s12.667 -3 20 -3c15.333 0 28.166 4.5 38.499 13.5
s16.5 21.167 18.5 36.5c2.66699 15.333 -0.5 27.5 -9.5 36.5s-23.5 13.5 -43.5 13.5h-20l46 81c-28 2 -54 9.83301 -78 23.5s-44.333 31.667 -61 54s-28.667 48.166 -36 77.499s-8.66602 60.666 -3.99902 93.999c4.66699 34.667 15.5 67.334 32.5 98.001
s37.833 57.167 62.5 79.5s51.667 40 81 53s59 19.5 89 19.5c27.333 0 51.5 -3.66699 72.5 -11s38.667 -17.166 53 -29.499s25.833 -26.333 34.5 -42s14.334 -31.5 17.001 -47.5l-47 -10c-6 27.333 -19.5 50.833 -40.5 70.5s-52.833 29.5 -95.5 29.5
c-24 0 -47.833 -5.33301 -71.5 -16s-45.334 -25.334 -65.001 -44.001s-36.5 -40.834 -50.5 -66.501s-23 -53.5 -27 -83.5s-2.66699 -57.833 4 -83.5s17.167 -47.834 31.5 -66.501s31.833 -33.334 52.5 -44.001s43 -16 67 -16c22.667 0 43.5 3.16699 62.5 9.5
s36.167 15 51.5 26s28.666 23.833 39.999 38.5s20.666 30 27.999 46z" />
    <glyph glyph-name="egrave" unicode="&#xe8;" horiz-adv-x="520" 
d="M277 480c28.667 0 55.3379 -6.16602 80.0049 -18.499s45.667 -29.666 63 -51.999s29.833 -48.833 37.5 -79.5s9.16699 -64 4.5 -100l-23 -20h-375c-1.33301 -27.333 1.66699 -52.666 9 -75.999s18.166 -43.5 32.499 -60.5s31.333 -30.167 51 -39.5s41.5 -14 65.5 -14
c22.667 0 43.5 3.16699 62.5 9.5s36.167 15 51.5 26s28.666 23.833 39.999 38.5s20.666 30 27.999 46l44 -10c-8 -18.667 -19 -37 -33 -55s-31 -34 -51 -48s-42.333 -25.333 -67 -34s-51.334 -13 -80.001 -13c-30 0 -58 6.5 -84 19.5s-48 30.667 -66 53
s-31.333 48.666 -40 78.999s-10.334 63.166 -5.00098 98.499c4.66699 36 15.334 69.333 32.001 100s36.667 57.167 60 79.5s49.166 39.666 77.499 51.999s56.833 18.5 85.5 18.5zM271.004 440.001c-22.667 0 -44.835 -4.66699 -66.502 -14s-41.667 -22.5 -60 -39.5
s-34.166 -37.167 -47.499 -60.5s-22.333 -48.666 -27 -75.999h350c2.66699 27.333 0.5 52.666 -6.5 75.999s-17.167 43.5 -30.5 60.5s-29.666 30.167 -48.999 39.5s-40.333 14 -63 14zM242.003 700.001l148 -90l-19 -30l-155 75z" />
    <glyph glyph-name="eacute" unicode="&#xe9;" horiz-adv-x="520" 
d="M277 480c28.667 0 55.3379 -6.16602 80.0049 -18.499s45.667 -29.666 63 -51.999s29.833 -48.833 37.5 -79.5s9.16699 -64 4.5 -100l-23 -20h-375c-1.33301 -27.333 1.66699 -52.666 9 -75.999s18.166 -43.5 32.499 -60.5s31.333 -30.167 51 -39.5s41.5 -14 65.5 -14
c22.667 0 43.5 3.16699 62.5 9.5s36.167 15 51.5 26s28.666 23.833 39.999 38.5s20.666 30 27.999 46l44 -10c-8 -18.667 -19 -37 -33 -55s-31 -34 -51 -48s-42.333 -25.333 -67 -34s-51.334 -13 -80.001 -13c-30 0 -58 6.5 -84 19.5s-48 30.667 -66 53
s-31.333 48.666 -40 78.999s-10.334 63.166 -5.00098 98.499c4.66699 36 15.334 69.333 32.001 100s36.667 57.167 60 79.5s49.166 39.666 77.499 51.999s56.833 18.5 85.5 18.5zM271.004 440.001c-22.667 0 -44.835 -4.66699 -66.502 -14s-41.667 -22.5 -60 -39.5
s-34.166 -37.167 -47.499 -60.5s-22.333 -48.666 -27 -75.999h350c2.66699 27.333 0.5 52.666 -6.5 75.999s-17.167 43.5 -30.5 60.5s-29.666 30.167 -48.999 39.5s-40.333 14 -63 14zM401.003 655.001l-175 -75l-11 30l172 90z" />
    <glyph glyph-name="ecircumflex" unicode="&#xea;" horiz-adv-x="520" 
d="M277 480c28.667 0 55.3379 -6.16602 80.0049 -18.499s45.667 -29.666 63 -51.999s29.833 -48.833 37.5 -79.5s9.16699 -64 4.5 -100l-23 -20h-375c-1.33301 -27.333 1.66699 -52.666 9 -75.999s18.166 -43.5 32.499 -60.5s31.333 -30.167 51 -39.5s41.5 -14 65.5 -14
c22.667 0 43.5 3.16699 62.5 9.5s36.167 15 51.5 26s28.666 23.833 39.999 38.5s20.666 30 27.999 46l44 -10c-8 -18.667 -19 -37 -33 -55s-31 -34 -51 -48s-42.333 -25.333 -67 -34s-51.334 -13 -80.001 -13c-30 0 -58 6.5 -84 19.5s-48 30.667 -66 53
s-31.333 48.666 -40 78.999s-10.334 63.166 -5.00098 98.499c4.66699 36 15.334 69.333 32.001 100s36.667 57.167 60 79.5s49.166 39.666 77.499 51.999s56.833 18.5 85.5 18.5zM271.004 440.001c-22.667 0 -44.835 -4.66699 -66.502 -14s-41.667 -22.5 -60 -39.5
s-34.166 -37.167 -47.499 -60.5s-22.333 -48.666 -27 -75.999h350c2.66699 27.333 0.5 52.666 -6.5 75.999s-17.167 43.5 -30.5 60.5s-29.666 30.167 -48.999 39.5s-40.333 14 -63 14zM333.003 705.001l94 -150h-50l-69 110l-101 -110h-50l136 150h40z" />
    <glyph glyph-name="edieresis" unicode="&#xeb;" horiz-adv-x="520" 
d="M277 480c28.667 0 55.3379 -6.16602 80.0049 -18.499s45.667 -29.666 63 -51.999s29.833 -48.833 37.5 -79.5s9.16699 -64 4.5 -100l-23 -20h-375c-1.33301 -27.333 1.66699 -52.666 9 -75.999s18.166 -43.5 32.499 -60.5s31.333 -30.167 51 -39.5s41.5 -14 65.5 -14
c22.667 0 43.5 3.16699 62.5 9.5s36.167 15 51.5 26s28.666 23.833 39.999 38.5s20.666 30 27.999 46l44 -10c-8 -18.667 -19 -37 -33 -55s-31 -34 -51 -48s-42.333 -25.333 -67 -34s-51.334 -13 -80.001 -13c-30 0 -58 6.5 -84 19.5s-48 30.667 -66 53
s-31.333 48.666 -40 78.999s-10.334 63.166 -5.00098 98.499c4.66699 36 15.334 69.333 32.001 100s36.667 57.167 60 79.5s49.166 39.666 77.499 51.999s56.833 18.5 85.5 18.5zM271.004 440.001c-22.667 0 -44.835 -4.66699 -66.502 -14s-41.667 -22.5 -60 -39.5
s-34.166 -37.167 -47.499 -60.5s-22.333 -48.666 -27 -75.999h350c2.66699 27.333 0.5 52.666 -6.5 75.999s-17.167 43.5 -30.5 60.5s-29.666 30.167 -48.999 39.5s-40.333 14 -63 14zM247.003 623.001c-1.33301 -8.66699 -5.66992 -16.167 -13.0029 -22.5
s-15.333 -9.5 -24 -9.5c-9.33301 0 -16.666 3.16699 -21.999 9.5s-7.33301 13.833 -6 22.5c1.33301 9.33301 5.5 17.166 12.5 23.499s15.167 9.5 24.5 9.5c8.66699 0 15.834 -3.16699 21.501 -9.5s7.83398 -14.166 6.50098 -23.499zM411.999 623.001
c-1.33301 -8.66699 -5.66992 -16.167 -13.0029 -22.5s-15.333 -9.5 -24 -9.5c-9.33301 0 -16.666 3.16699 -21.999 9.5s-7.33301 13.833 -6 22.5c1.33301 9.33301 5.5 17.166 12.5 23.499s15.167 9.5 24.5 9.5c8.66699 0 15.834 -3.16699 21.501 -9.5
s7.83398 -14.166 6.50098 -23.499z" />
    <glyph glyph-name="igrave" unicode="&#xec;" horiz-adv-x="200" 
d="M29 700l148 -90l-19 -30l-155 75zM89 460h45l-64 -460h-45z" />
    <glyph glyph-name="iacute" unicode="&#xed;" horiz-adv-x="200" 
d="M260 645l-175 -75l-11 30l172 90zM89 460h45l-64 -460h-45z" />
    <glyph glyph-name="icircumflex" unicode="&#xee;" horiz-adv-x="210" 
d="M172 690l94 -150h-50l-69 110l-101 -110h-50l136 150h40zM99 460h45l-64 -460h-45z" />
    <glyph glyph-name="idieresis" unicode="&#xef;" horiz-adv-x="190" 
d="M82 613c-1.33301 -8.66699 -5.66992 -16.167 -13.0029 -22.5s-15.333 -9.5 -24 -9.5c-9.33301 0 -16.666 3.16699 -21.999 9.5s-7.33301 13.833 -6 22.5c1.33301 9.33301 5.5 17.166 12.5 23.499s15.167 9.5 24.5 9.5c8.66699 0 15.834 -3.16699 21.501 -9.5
s7.83398 -14.166 6.50098 -23.499zM246.996 613c-1.33301 -8.66699 -5.66992 -16.167 -13.0029 -22.5s-15.333 -9.5 -24 -9.5c-9.33301 0 -16.666 3.16699 -21.999 9.5s-7.33301 13.833 -6 22.5c1.33301 9.33301 5.5 17.166 12.5 23.499s15.167 9.5 24.5 9.5
c8.66699 0 15.834 -3.16699 21.501 -9.5s7.83398 -14.166 6.50098 -23.499zM88.9922 460h45l-64 -460h-45z" />
    <glyph glyph-name="eth" unicode="&#xf0;" 
d="M305 575l76.9932 55.002c-9.33301 14 -19.166 28 -29.499 42l-32.5 43l34 25l32 -42c10.667 -14 20.667 -28.667 30 -44l78 56l21 -30l-79 -56c18.667 -31.333 33.334 -64.333 44.001 -99s13 -73 7 -115l-28 -200c-4.66699 -34 -14.667 -65 -30 -93
s-34.166 -52.167 -56.499 -72.5s-47.666 -36.166 -75.999 -47.499s-58.166 -17 -89.499 -17s-59.666 5.66699 -84.999 17s-46.333 27.166 -63 47.499s-28.667 44.5 -36 72.5s-8.66602 59 -3.99902 93s14.5 65 29.5 93s33.833 52.167 56.5 72.5s48.167 36.166 76.5 47.499
s58.166 17 89.499 17c32.667 0 59 -5.83301 79 -17.5s35.667 -24.167 47 -37.5c12.667 -16.667 22.334 -35 29.001 -55h5l11 80c5.33301 38 4 72.167 -4 102.5s-20 59.166 -36 86.499l-76 -54zM211.993 20.002c24.667 0 48.333 4.5 71 13.5s43 21.833 61 38.5
s33.167 36.667 45.5 60s20.5 49.333 24.5 78s3.16699 54.667 -2.5 78s-15 43.333 -28 60s-29.667 29.5 -50 38.5s-42.833 13.5 -67.5 13.5c-25.333 0 -49.333 -4.5 -72 -13.5s-43 -21.833 -61 -38.5s-33 -36.667 -45 -60s-20 -49.333 -24 -78s-3.16699 -54.667 2.5 -78
s15 -43.333 28 -60s29.5 -29.5 49.5 -38.5s42.667 -13.5 68 -13.5z" />
    <glyph glyph-name="ntilde" unicode="&#xf1;" horiz-adv-x="530" 
d="M420 0l-44.999 -0.000976562l37 270c8 55.333 0.5 97.5 -22.5 126.5s-55.833 43.5 -98.5 43.5c-28 0 -53 -6.16699 -75 -18.5s-41 -26.166 -57 -41.499c-18.667 -17.333 -35.334 -37.333 -50.001 -60l-44 -320h-45l64 460h45l-10 -75h5c14 17.333 29.667 33 47 47
c15.333 12 33.5 23 54.5 33s44.833 15 71.5 15c27.333 0 52 -4.83301 74 -14.5s40.167 -23.5 54.5 -41.5s24.333 -40 30 -66s6.16699 -55.333 1.5 -88zM346.001 584.999c-14 0 -25.167 3.33301 -33.5 10s-15.666 14.167 -21.999 22.5s-12.5 15.833 -18.5 22.5
s-13.333 10 -22 10c-7.33301 0 -14.666 -3.33301 -21.999 -10s-11.666 -15 -12.999 -25l-3 -25h-40l3 25c3.33301 22.667 12.666 40.834 27.999 54.501s33 20.5 53 20.5c14 0 25.167 -3.33301 33.5 -10s15.666 -14.167 21.999 -22.5s12.5 -15.833 18.5 -22.5
s13.333 -10 22 -10c7.33301 0 14.666 3.33301 21.999 10s11.666 15 12.999 25l3 25h40l-3 -25c-3.33301 -22.667 -12.666 -40.834 -27.999 -54.501s-33 -20.5 -53 -20.5z" />
    <glyph glyph-name="ograve" unicode="&#xf2;" horiz-adv-x="550" 
d="M492 230c-5.33301 -35.333 -16.4971 -68.166 -33.4971 -98.499s-37.833 -56.666 -62.5 -78.999s-52 -40 -82 -53s-60.667 -19.5 -92 -19.5s-60.333 6.5 -87 19.5s-49.167 30.667 -67.5 53s-31.833 48.666 -40.5 78.999s-10.334 63.166 -5.00098 98.499
c4.66699 34.667 15.667 67.334 33 98.001s38.333 57.167 63 79.5s52 40 82 53s60.667 19.5 92 19.5s60.333 -6.5 87 -19.5s49.167 -30.667 67.5 -53s31.666 -48.833 39.999 -79.5s10.166 -63.334 5.49902 -98.001zM447.003 230c4 30 2.66602 57.833 -4.00098 83.5
s-17.5 47.834 -32.5 66.501s-33.333 33.334 -55 44.001s-44.834 16 -69.501 16c-25.333 0 -50.166 -5.33301 -74.499 -16s-46.5 -25.334 -66.5 -44.001s-37 -40.834 -51 -66.501s-23 -53.5 -27 -83.5s-2.66699 -57.833 4 -83.5s17.334 -47.834 32.001 -66.501
s32.667 -33.334 54 -44.001s44.666 -16 69.999 -16c24.667 0 49.334 5.33301 74.001 16s47 25.334 67 44.001s37.167 40.834 51.5 66.501s23.5 53.5 27.5 83.5zM246.002 690l148 -90l-19 -30l-155 75z" />
    <glyph glyph-name="oacute" unicode="&#xf3;" horiz-adv-x="550" 
d="M492 230c-5.33301 -35.333 -16.4971 -68.166 -33.4971 -98.499s-37.833 -56.666 -62.5 -78.999s-52 -40 -82 -53s-60.667 -19.5 -92 -19.5s-60.333 6.5 -87 19.5s-49.167 30.667 -67.5 53s-31.833 48.666 -40.5 78.999s-10.334 63.166 -5.00098 98.499
c4.66699 34.667 15.667 67.334 33 98.001s38.333 57.167 63 79.5s52 40 82 53s60.667 19.5 92 19.5s60.333 -6.5 87 -19.5s49.167 -30.667 67.5 -53s31.666 -48.833 39.999 -79.5s10.166 -63.334 5.49902 -98.001zM447.003 230c4 30 2.66602 57.833 -4.00098 83.5
s-17.5 47.834 -32.5 66.501s-33.333 33.334 -55 44.001s-44.834 16 -69.501 16c-25.333 0 -50.166 -5.33301 -74.499 -16s-46.5 -25.334 -66.5 -44.001s-37 -40.834 -51 -66.501s-23 -53.5 -27 -83.5s-2.66699 -57.833 4 -83.5s17.334 -47.834 32.001 -66.501
s32.667 -33.334 54 -44.001s44.666 -16 69.999 -16c24.667 0 49.334 5.33301 74.001 16s47 25.334 67 44.001s37.167 40.834 51.5 66.501s23.5 53.5 27.5 83.5zM416.002 655l-175 -75l-11 30l172 90z" />
    <glyph glyph-name="ocircumflex" unicode="&#xf4;" horiz-adv-x="550" 
d="M492 230c-5.33301 -35.333 -16.4971 -68.166 -33.4971 -98.499s-37.833 -56.666 -62.5 -78.999s-52 -40 -82 -53s-60.667 -19.5 -92 -19.5s-60.333 6.5 -87 19.5s-49.167 30.667 -67.5 53s-31.833 48.666 -40.5 78.999s-10.334 63.166 -5.00098 98.499
c4.66699 34.667 15.667 67.334 33 98.001s38.333 57.167 63 79.5s52 40 82 53s60.667 19.5 92 19.5s60.333 -6.5 87 -19.5s49.167 -30.667 67.5 -53s31.666 -48.833 39.999 -79.5s10.166 -63.334 5.49902 -98.001zM447.003 230c4 30 2.66602 57.833 -4.00098 83.5
s-17.5 47.834 -32.5 66.501s-33.333 33.334 -55 44.001s-44.834 16 -69.501 16c-25.333 0 -50.166 -5.33301 -74.499 -16s-46.5 -25.334 -66.5 -44.001s-37 -40.834 -51 -66.501s-23 -53.5 -27 -83.5s-2.66699 -57.833 4 -83.5s17.334 -47.834 32.001 -66.501
s32.667 -33.334 54 -44.001s44.666 -16 69.999 -16c24.667 0 49.334 5.33301 74.001 16s47 25.334 67 44.001s37.167 40.834 51.5 66.501s23.5 53.5 27.5 83.5zM345.002 720l94 -150h-50l-69 110l-101 -110h-50l136 150h40z" />
    <glyph glyph-name="otilde" unicode="&#xf5;" horiz-adv-x="550" 
d="M492 230c-5.33301 -35.333 -16.4971 -68.166 -33.4971 -98.499s-37.833 -56.666 -62.5 -78.999s-52 -40 -82 -53s-60.667 -19.5 -92 -19.5s-60.333 6.5 -87 19.5s-49.167 30.667 -67.5 53s-31.833 48.666 -40.5 78.999s-10.334 63.166 -5.00098 98.499
c4.66699 34.667 15.667 67.334 33 98.001s38.333 57.167 63 79.5s52 40 82 53s60.667 19.5 92 19.5s60.333 -6.5 87 -19.5s49.167 -30.667 67.5 -53s31.666 -48.833 39.999 -79.5s10.166 -63.334 5.49902 -98.001zM447.003 230c4 30 2.66602 57.833 -4.00098 83.5
s-17.5 47.834 -32.5 66.501s-33.333 33.334 -55 44.001s-44.834 16 -69.501 16c-25.333 0 -50.166 -5.33301 -74.499 -16s-46.5 -25.334 -66.5 -44.001s-37 -40.834 -51 -66.501s-23 -53.5 -27 -83.5s-2.66699 -57.833 4 -83.5s17.334 -47.834 32.001 -66.501
s32.667 -33.334 54 -44.001s44.666 -16 69.999 -16c24.667 0 49.334 5.33301 74.001 16s47 25.334 67 44.001s37.167 40.834 51.5 66.501s23.5 53.5 27.5 83.5zM359.002 571c-14 0 -25.167 3.33301 -33.5 10s-15.666 14.167 -21.999 22.5s-12.5 15.833 -18.5 22.5
s-13.333 10 -22 10c-7.33301 0 -14.666 -3.33301 -21.999 -10s-11.666 -15 -12.999 -25l-3 -25h-40l3 25c3.33301 22.667 12.666 40.834 27.999 54.501s33 20.5 53 20.5c14 0 25.167 -3.33301 33.5 -10s15.666 -14.167 21.999 -22.5s12.5 -15.833 18.5 -22.5
s13.333 -10 22 -10c7.33301 0 14.666 3.33301 21.999 10s11.666 15 12.999 25l3 25h40l-3 -25c-3.33301 -22.667 -12.666 -40.834 -27.999 -54.501s-33 -20.5 -53 -20.5z" />
    <glyph glyph-name="odieresis" unicode="&#xf6;" horiz-adv-x="550" 
d="M492 230c-5.33301 -35.333 -16.4971 -68.166 -33.4971 -98.499s-37.833 -56.666 -62.5 -78.999s-52 -40 -82 -53s-60.667 -19.5 -92 -19.5s-60.333 6.5 -87 19.5s-49.167 30.667 -67.5 53s-31.833 48.666 -40.5 78.999s-10.334 63.166 -5.00098 98.499
c4.66699 34.667 15.667 67.334 33 98.001s38.333 57.167 63 79.5s52 40 82 53s60.667 19.5 92 19.5s60.333 -6.5 87 -19.5s49.167 -30.667 67.5 -53s31.666 -48.833 39.999 -79.5s10.166 -63.334 5.49902 -98.001zM447.003 230c4 30 2.66602 57.833 -4.00098 83.5
s-17.5 47.834 -32.5 66.501s-33.333 33.334 -55 44.001s-44.834 16 -69.501 16c-25.333 0 -50.166 -5.33301 -74.499 -16s-46.5 -25.334 -66.5 -44.001s-37 -40.834 -51 -66.501s-23 -53.5 -27 -83.5s-2.66699 -57.833 4 -83.5s17.334 -47.834 32.001 -66.501
s32.667 -33.334 54 -44.001s44.666 -16 69.999 -16c24.667 0 49.334 5.33301 74.001 16s47 25.334 67 44.001s37.167 40.834 51.5 66.501s23.5 53.5 27.5 83.5zM263.002 633c-1.33301 -8.66699 -5.66992 -16.167 -13.0029 -22.5s-15.333 -9.5 -24 -9.5
c-9.33301 0 -16.666 3.16699 -21.999 9.5s-7.33301 13.833 -6 22.5c1.33301 9.33301 5.5 17.166 12.5 23.499s15.167 9.5 24.5 9.5c8.66699 0 15.834 -3.16699 21.501 -9.5s7.83398 -14.166 6.50098 -23.499zM427.998 633
c-1.33301 -8.66699 -5.66992 -16.167 -13.0029 -22.5s-15.333 -9.5 -24 -9.5c-9.33301 0 -16.666 3.16699 -21.999 9.5s-7.33301 13.833 -6 22.5c1.33301 9.33301 5.5 17.166 12.5 23.499s15.167 9.5 24.5 9.5c8.66699 0 15.834 -3.16699 21.501 -9.5
s7.83398 -14.166 6.50098 -23.499z" />
    <glyph glyph-name="divide" unicode="&#xf7;" horiz-adv-x="430" 
d="M176 85c-10 0 -17.833 3.33301 -23.5 10s-7.83398 15 -6.50098 25s5.83301 18.333 13.5 25s16.5 10 26.5 10s17.833 -3.33301 23.5 -10s7.83398 -15 6.50098 -25s-5.83301 -18.333 -13.5 -25s-16.5 -10 -26.5 -10zM36 330h350l-6 -45h-350zM239 530
c10 0 17.833 -3.33301 23.5 -10s7.83398 -15 6.50098 -25s-5.83301 -18.333 -13.5 -25s-16.5 -10 -26.5 -10s-17.833 3.33301 -23.5 10s-7.83398 15 -6.50098 25s5.83301 18.333 13.5 25s16.5 10 26.5 10z" />
    <glyph glyph-name="oslash" unicode="&#xf8;" horiz-adv-x="580" 
d="M507 230c-5.33301 -35.333 -16.502 -68.1689 -33.502 -98.502s-37.833 -56.666 -62.5 -78.999s-52 -40 -82 -53s-60.667 -19.5 -92 -19.5c-38 0 -69.167 7.33301 -93.5 22s-43.833 30.667 -58.5 48c-17.333 20.667 -30.333 44 -39 70l-85 -35l6 40l69 30
c-1.33301 6.66699 -2 13.667 -2 21c-1.33301 12.667 -0.333008 30.667 3 54c4.66699 34.667 15.667 67.334 33 98.001s38.333 57.167 63 79.5s52 40 82 53s60.667 19.5 92 19.5c38 0 69 -7.33301 93 -22s43.333 -30.667 58 -48c17.333 -20.667 30.333 -44 39 -70l85 35
l-5 -40l-70 -30l2 -21c0.666992 -6.66699 0.833984 -14.5 0.500977 -23.5s-1.16602 -19.167 -2.49902 -30.5zM461.998 229.997c2 16.667 2.99902 30.998 2.99902 42.998v17l-377 -155c7.33301 -21.333 18 -40.666 32 -57.999c11.333 -14.667 27 -27.834 47 -39.501
s45 -17.5 75 -17.5c24.667 0 49.334 5.33301 74.001 16s47 25.334 67 44.001s37.167 40.834 51.5 66.501s23.5 53.5 27.5 83.5zM81.9971 229.995c-1.33301 -9.33301 -2.33398 -17.498 -3.00098 -24.498s-1 -13.167 -1 -18.5v-17l377 155c-8 20.667 -18.667 39.667 -32 57
c-12 14.667 -27.833 28 -47.5 40s-44.5 18 -74.5 18c-25.333 0 -50.166 -5.33301 -74.499 -16s-46.5 -25.334 -66.5 -44.001s-37 -40.834 -51 -66.501s-23 -53.5 -27 -83.5z" />
    <glyph glyph-name="ugrave" unicode="&#xf9;" 
d="M84 460l44.9961 0.000976562l-38 -270c-7.33301 -55.333 0.333984 -97.5 23.001 -126.5s55.334 -43.5 98.001 -43.5c28 0 53 6.16699 75 18.5s41 26.166 57 41.499c18.667 17.333 35.334 37.333 50.001 60l45 320h45l-64 -460h-45l10 75h-5c-14 -18 -29.667 -34 -47 -48
c-15.333 -12 -33.666 -22.833 -54.999 -32.5s-45 -14.5 -71 -14.5c-27.333 0 -52 4.83301 -74 14.5s-40.167 23.5 -54.5 41.5s-24.5 40 -30.5 66s-6.66699 55.333 -2 88zM244.996 686.001l148 -90l-19 -30l-155 75z" />
    <glyph glyph-name="uacute" unicode="&#xfa;" 
d="M84 460l44.9961 0.000976562l-38 -270c-7.33301 -55.333 0.333984 -97.5 23.001 -126.5s55.334 -43.5 98.001 -43.5c28 0 53 6.16699 75 18.5s41 26.166 57 41.499c18.667 17.333 35.334 37.333 50.001 60l45 320h45l-64 -460h-45l10 75h-5c-14 -18 -29.667 -34 -47 -48
c-15.333 -12 -33.666 -22.833 -54.999 -32.5s-45 -14.5 -71 -14.5c-27.333 0 -52 4.83301 -74 14.5s-40.167 23.5 -54.5 41.5s-24.5 40 -30.5 66s-6.66699 55.333 -2 88zM412.996 636.001l-175 -75l-11 30l172 90z" />
    <glyph glyph-name="ucircumflex" unicode="&#xfb;" 
d="M84 460l44.9961 0.000976562l-38 -270c-7.33301 -55.333 0.333984 -97.5 23.001 -126.5s55.334 -43.5 98.001 -43.5c28 0 53 6.16699 75 18.5s41 26.166 57 41.499c18.667 17.333 35.334 37.333 50.001 60l45 320h45l-64 -460h-45l10 75h-5c-14 -18 -29.667 -34 -47 -48
c-15.333 -12 -33.666 -22.833 -54.999 -32.5s-45 -14.5 -71 -14.5c-27.333 0 -52 4.83301 -74 14.5s-40.167 23.5 -54.5 41.5s-24.5 40 -30.5 66s-6.66699 55.333 -2 88zM337.996 710.001l94 -150h-50l-69 110l-101 -110h-50l136 150h40z" />
    <glyph glyph-name="udieresis" unicode="&#xfc;" 
d="M84 460l44.9961 0.000976562l-38 -270c-7.33301 -55.333 0.333984 -97.5 23.001 -126.5s55.334 -43.5 98.001 -43.5c28 0 53 6.16699 75 18.5s41 26.166 57 41.499c18.667 17.333 35.334 37.333 50.001 60l45 320h45l-64 -460h-45l10 75h-5c-14 -18 -29.667 -34 -47 -48
c-15.333 -12 -33.666 -22.833 -54.999 -32.5s-45 -14.5 -71 -14.5c-27.333 0 -52 4.83301 -74 14.5s-40.167 23.5 -54.5 41.5s-24.5 40 -30.5 66s-6.66699 55.333 -2 88zM254.996 613.001c-1.33301 -8.66699 -5.66992 -16.167 -13.0029 -22.5s-15.333 -9.5 -24 -9.5
c-9.33301 0 -16.666 3.16699 -21.999 9.5s-7.33301 13.833 -6 22.5c1.33301 9.33301 5.5 17.166 12.5 23.499s15.167 9.5 24.5 9.5c8.66699 0 15.834 -3.16699 21.501 -9.5s7.83398 -14.166 6.50098 -23.499zM419.992 613.001
c-1.33301 -8.66699 -5.66992 -16.167 -13.0029 -22.5s-15.333 -9.5 -24 -9.5c-9.33301 0 -16.666 3.16699 -21.999 9.5s-7.33301 13.833 -6 22.5c1.33301 9.33301 5.5 17.166 12.5 23.499s15.167 9.5 24.5 9.5c8.66699 0 15.834 -3.16699 21.501 -9.5
s7.83398 -14.166 6.50098 -23.499z" />
    <glyph glyph-name="yacute" unicode="&#xfd;" horiz-adv-x="480" 
d="M464 460l-164.001 -460.001c-14.667 -40 -29.167 -73.5 -43.5 -100.5s-29.333 -48.5 -45 -64.5s-31.834 -27.5 -48.501 -34.5s-34.334 -10.5 -53.001 -10.5c-11.333 0 -21.5 1 -30.5 3s-16.5 4.33301 -22.5 7c-7.33301 2.66699 -13.666 6 -18.999 10l15 40
c5.33301 -4 11.333 -7.33301 18 -10c5.33301 -2.66699 11.833 -5 19.5 -7s16.167 -3 25.5 -3c12.667 0 24.834 2.83301 36.501 8.5s23.334 15 35.001 28s23 30.333 34 52s22.167 48.834 33.5 81.501h-175l-36 460h45l31 -420h150l149 420h45zM384.999 644.999l-175 -75
l-11 30l172 90z" />
    <glyph glyph-name="thorn" unicode="&#xfe;" horiz-adv-x="545" 
d="M124 385l4.99609 -0.00195312c14 17.333 29.667 33 47 47c15.333 12 33.5 23 54.5 33s44.833 15 71.5 15c28.667 0 55.334 -6.16699 80.001 -18.5s45.667 -29.666 63 -51.999s29.833 -48.833 37.5 -79.5s9.16699 -64 4.5 -100c-5.33301 -36 -16.166 -69.333 -32.499 -100
s-36.166 -57.167 -59.499 -79.5s-49.166 -39.666 -77.499 -51.999s-56.833 -18.5 -85.5 -18.5c-26.667 0 -49.167 4.83301 -67.5 14.5s-33.5 20.5 -45.5 32.5c-14 14 -25.333 30 -34 48h-5l-39 -275h-45l125 890h45zM88.9961 139.998
c8.66699 -22.667 19.6699 -42.6709 33.0029 -60.0039c11.333 -15.333 26.333 -29.166 45 -41.499s42 -18.5 70 -18.5c22.667 0 45.167 5 67.5 15s43 24.333 62 43s35.167 40.834 48.5 66.501s22.333 54.167 27 85.5c4 31.333 3 59.833 -3 85.5s-15.833 47.834 -29.5 66.501
s-30.334 33 -50.001 43s-40.834 15 -63.501 15c-28 0 -53 -6.16699 -75 -18.5s-41 -26.166 -57 -41.499c-18.667 -17.333 -35.334 -37.333 -50.001 -60z" />
    <glyph glyph-name="ydieresis" unicode="&#xff;" horiz-adv-x="480" 
d="M464 460l-164.001 -460.001c-14.667 -40 -29.167 -73.5 -43.5 -100.5s-29.333 -48.5 -45 -64.5s-31.834 -27.5 -48.501 -34.5s-34.334 -10.5 -53.001 -10.5c-11.333 0 -21.5 1 -30.5 3s-16.5 4.33301 -22.5 7c-7.33301 2.66699 -13.666 6 -18.999 10l15 40
c5.33301 -4 11.333 -7.33301 18 -10c5.33301 -2.66699 11.833 -5 19.5 -7s16.167 -3 25.5 -3c12.667 0 24.834 2.83301 36.501 8.5s23.334 15 35.001 28s23 30.333 34 52s22.167 48.834 33.5 81.501h-175l-36 460h45l31 -420h150l149 420h45zM223.999 602.999
c-1.33301 -8.66699 -5.66992 -16.167 -13.0029 -22.5s-15.333 -9.5 -24 -9.5c-9.33301 0 -16.666 3.16699 -21.999 9.5s-7.33301 13.833 -6 22.5c1.33301 9.33301 5.5 17.166 12.5 23.499s15.167 9.5 24.5 9.5c8.66699 0 15.834 -3.16699 21.501 -9.5
s7.83398 -14.166 6.50098 -23.499zM388.995 602.999c-1.33301 -8.66699 -5.66992 -16.167 -13.0029 -22.5s-15.333 -9.5 -24 -9.5c-9.33301 0 -16.666 3.16699 -21.999 9.5s-7.33301 13.833 -6 22.5c1.33301 9.33301 5.5 17.166 12.5 23.499s15.167 9.5 24.5 9.5
c8.66699 0 15.834 -3.16699 21.501 -9.5s7.83398 -14.166 6.50098 -23.499z" />
    <glyph glyph-name="Amacron" unicode="&#x100;" horiz-adv-x="670" 
d="M117 230h400l-42 415h-200zM101 185l-71 -185h-50l261 690h280l69 -690h-50l-19 185h-420zM284 855h240l-6 -45h-240z" />
    <glyph glyph-name="amacron" unicode="&#x101;" 
d="M385 75l-5.00098 0.00195312c-14 -18 -29.667 -34 -47 -48c-15.333 -12 -33.666 -22.833 -54.999 -32.5s-45 -14.5 -71 -14.5c-28.667 0 -55.5 6.16699 -80.5 18.5s-46 29.666 -63 51.999s-29.5 48.833 -37.5 79.5s-9.33301 64 -4 100
c4.66699 36 15.334 69.333 32.001 100s36.667 57.167 60 79.5s49.166 39.666 77.499 51.999s56.833 18.5 85.5 18.5c26 0 48.333 -5 67 -15s34 -21 46 -33c14 -14 25.333 -29.667 34 -47h5l10 75h45l-64 -460h-45zM418.999 320.002
c-8.66699 22.667 -19.667 42.6709 -33 60.0039c-11.333 15.333 -26.333 29.166 -45 41.499s-42 18.5 -70 18.5c-22.667 0 -45.167 -5 -67.5 -15s-43 -24.333 -62 -43s-35.167 -40.834 -48.5 -66.501s-22 -54.167 -26 -85.5c-4.66699 -31.333 -3.83398 -59.833 2.49902 -85.5
s16.166 -47.834 29.499 -66.501s29.833 -33 49.5 -43s40.834 -15 63.501 -15c28 0 53 6.16699 75 18.5s41 26.166 57 41.499c18.667 17.333 35.334 37.333 50.001 60zM200.999 661.006h240l-6 -45h-240z" />
    <glyph glyph-name="Abreve" unicode="&#x102;" horiz-adv-x="670" 
d="M117 230h400l-42 415h-200zM101 185l-71 -185h-50l261 690h280l69 -690h-50l-19 185h-420zM401 830c25.333 0 46.8311 7.83301 64.498 23.5s28.167 36.167 31.5 61.5h40c-2 -17.333 -7.33301 -33.666 -16 -48.999s-19.334 -28.666 -32.001 -39.999
s-27.167 -20.166 -43.5 -26.499s-33.166 -9.5 -50.499 -9.5s-33.166 3.16699 -47.499 9.5s-26.333 15.166 -36 26.499s-16.667 24.666 -21 39.999s-5.5 31.666 -3.5 48.999h40c-3.33301 -25.333 1.83398 -45.833 15.501 -61.5s33.167 -23.5 58.5 -23.5z" />
    <glyph glyph-name="abreve" unicode="&#x103;" 
d="M385 75l-5.00098 0.00195312c-14 -18 -29.667 -34 -47 -48c-15.333 -12 -33.666 -22.833 -54.999 -32.5s-45 -14.5 -71 -14.5c-28.667 0 -55.5 6.16699 -80.5 18.5s-46 29.666 -63 51.999s-29.5 48.833 -37.5 79.5s-9.33301 64 -4 100
c4.66699 36 15.334 69.333 32.001 100s36.667 57.167 60 79.5s49.166 39.666 77.499 51.999s56.833 18.5 85.5 18.5c26 0 48.333 -5 67 -15s34 -21 46 -33c14 -14 25.333 -29.667 34 -47h5l10 75h45l-64 -460h-45zM418.999 320.002
c-8.66699 22.667 -19.667 42.6709 -33 60.0039c-11.333 15.333 -26.333 29.166 -45 41.499s-42 18.5 -70 18.5c-22.667 0 -45.167 -5 -67.5 -15s-43 -24.333 -62 -43s-35.167 -40.834 -48.5 -66.501s-22 -54.167 -26 -85.5c-4.66699 -31.333 -3.83398 -59.833 2.49902 -85.5
s16.166 -47.834 29.499 -66.501s29.833 -33 49.5 -43s40.834 -15 63.501 -15c28 0 53 6.16699 75 18.5s41 26.166 57 41.499c18.667 17.333 35.334 37.333 50.001 60zM306.999 620.006c25.333 0 46.8311 7.83301 64.498 23.5s28.167 36.167 31.5 61.5h40
c-2 -17.333 -7.33301 -33.666 -16 -48.999s-19.334 -28.666 -32.001 -39.999s-27.167 -20.166 -43.5 -26.499s-33.166 -9.5 -50.499 -9.5s-33.166 3.16699 -47.499 9.5s-26.333 15.166 -36 26.499s-16.667 24.666 -21 39.999s-5.5 31.666 -3.5 48.999h40
c-3.33301 -25.333 1.83398 -45.833 15.501 -61.5s33.167 -23.5 58.5 -23.5z" />
    <glyph glyph-name="Aogonek" unicode="&#x104;" horiz-adv-x="670" 
d="M101 185l-71 -185h-50l261 690h280l69 -690c-23.333 -10 -44.333 -21.333 -63 -34c-16 -11.333 -31 -24.666 -45 -39.999s-22.333 -32.333 -25 -51c-2 -15.333 1.5 -28.333 10.5 -39s21.167 -16 36.5 -16c6 0 12 0.666992 18 2s11.667 3 17 5
c6 2.66699 11.667 5.33398 17 8.00098l10 -40c-6 -2.66699 -12.667 -5.33398 -20 -8.00098c-6 -2 -13.167 -3.66699 -21.5 -5s-16.833 -2 -25.5 -2c-30 0 -53 8.66699 -69 26s-22.333 38.666 -19 63.999c3.33301 22.667 12.166 42.167 26.499 58.5s29.5 29.833 45.5 40.5
c18.667 12 39.334 22.333 62.001 31h-5l-19 185h-420zM117 230h400l-42 415h-200z" />
    <glyph glyph-name="aogonek" unicode="&#x105;" 
d="M329 -220c-30 0 -53.001 8.66895 -69.001 26.002s-22.333 38.666 -19 63.999c3.33301 22.667 12.166 42.167 26.499 58.5s29.5 29.833 45.5 40.5c18.667 12 39.334 22.333 62.001 31l10 75h-5c-14 -18 -29.667 -34 -47 -48c-15.333 -12 -33.666 -22.833 -54.999 -32.5
s-45 -14.5 -71 -14.5c-28.667 0 -55.5 6.16699 -80.5 18.5s-46 29.666 -63 51.999s-29.5 48.833 -37.5 79.5s-9.33301 64 -4 100c4.66699 36 15.334 69.333 32.001 100s36.667 57.167 60 79.5s49.166 39.666 77.499 51.999s56.833 18.5 85.5 18.5c26 0 48.333 -5 67 -15
s34 -21 46 -33c14 -14 25.333 -29.667 34 -47h5l10 75h45l-64 -460c-23.333 -10 -44.333 -21.333 -63 -34c-16 -11.333 -31 -24.666 -45 -39.999s-22.333 -32.333 -25 -51c-2 -15.333 1.5 -28.333 10.5 -39s21.167 -16 36.5 -16c6 0 12 0.666992 18 2s11.667 3 17 5
c6 2.66699 11.667 5.33398 17 8.00098l10 -40c-6 -2.66699 -12.667 -5.33398 -20 -8.00098c-6 -2 -13.167 -3.66699 -21.5 -5s-16.833 -2 -25.5 -2zM418.999 320.002c-8.66699 22.667 -19.667 42.6709 -33 60.0039c-11.333 15.333 -26.333 29.166 -45 41.499
s-42 18.5 -70 18.5c-22.667 0 -45.167 -5 -67.5 -15s-43 -24.333 -62 -43s-35.167 -40.834 -48.5 -66.501s-22 -54.167 -26 -85.5c-4.66699 -31.333 -3.83398 -59.833 2.49902 -85.5s16.166 -47.834 29.499 -66.501s29.833 -33 49.5 -43s40.834 -15 63.501 -15
c28 0 53 6.16699 75 18.5s41 26.166 57 41.499c18.667 17.333 35.334 37.333 50.001 60z" />
    <glyph glyph-name="Cacute" unicode="&#x106;" horiz-adv-x="765" 
d="M345 -30c-45.333 0 -87.501 10.0039 -126.501 30.0039s-72.333 47 -100 81s-48.167 73.667 -61.5 119s-16.333 93.666 -9 144.999s24 99.666 50 144.999s57.667 85 95 119s78.333 61 123 81s89.667 30 135 30c41.333 0 78.166 -6.16699 110.499 -18.5s60 -28.333 83 -48
s41.5 -41.667 55.5 -66s23 -48.5 27 -72.5l-52 -10c-4.66699 21.333 -12.667 42.166 -24 62.499s-26.5 38.5 -45.5 54.5s-42 28.833 -69 38.5s-57.833 14.5 -92.5 14.5c-37.333 0 -75.166 -8.83301 -113.499 -26.5s-73.666 -41.5 -105.999 -71.5s-60 -65 -83 -105
s-37.5 -82.333 -43.5 -127c-6 -45.333 -3.33301 -88 8 -128s29 -75 53 -105s52.833 -53.667 86.5 -71s69.167 -26 106.5 -26s71.5 5 102.5 15s59 23.333 84 40s47 36.167 66 58.5s35.167 46.166 48.5 71.499l48 -10c-14 -27.333 -32.167 -54.166 -54.5 -80.499
s-48.5 -49.833 -78.5 -70.5s-63.667 -37.334 -101 -50.001s-78 -19 -122 -19zM577.999 885.004l-175 -75l-11 30l172 90z" />
    <glyph glyph-name="cacute" unicode="&#x107;" horiz-adv-x="510" 
d="M217 -20c-30 0 -57.9961 6.50391 -83.9961 19.5039s-48 30.667 -66 53s-31.333 48.666 -40 78.999s-10.334 63.166 -5.00098 98.499c4.66699 34.667 15.5 67.334 32.5 98.001s37.833 57.167 62.5 79.5s51.667 40 81 53s59 19.5 89 19.5c27.333 0 51.5 -3.66699 72.5 -11
s38.667 -17.166 53 -29.499s25.833 -26.333 34.5 -42s14.334 -31.5 17.001 -47.5l-47 -10c-6 27.333 -19.5 50.833 -40.5 70.5s-52.833 29.5 -95.5 29.5c-24 0 -47.833 -5.33301 -71.5 -16s-45.334 -25.334 -65.001 -44.001s-36.5 -40.834 -50.5 -66.501
s-23 -53.5 -27 -83.5s-2.66699 -57.833 4 -83.5s17.167 -47.834 31.5 -66.501s31.833 -33.334 52.5 -44.001s43 -16 67 -16c22.667 0 43.5 3.16699 62.5 9.5s36.167 15 51.5 26s28.666 23.833 39.999 38.5s20.666 30 27.999 46l44 -10c-8 -18.667 -19 -37 -33 -55
s-31 -34 -51 -48s-42.333 -25.333 -67 -34s-51.334 -13 -80.001 -13zM416.004 655.004l-175 -75l-11 30l172 90z" />
    <glyph glyph-name="Ccircumflex" unicode="&#x108;" horiz-adv-x="765" 
d="M345 -30c-45.333 0 -87.501 10.0039 -126.501 30.0039s-72.333 47 -100 81s-48.167 73.667 -61.5 119s-16.333 93.666 -9 144.999s24 99.666 50 144.999s57.667 85 95 119s78.333 61 123 81s89.667 30 135 30c41.333 0 78.166 -6.16699 110.499 -18.5s60 -28.333 83 -48
s41.5 -41.667 55.5 -66s23 -48.5 27 -72.5l-52 -10c-4.66699 21.333 -12.667 42.166 -24 62.499s-26.5 38.5 -45.5 54.5s-42 28.833 -69 38.5s-57.833 14.5 -92.5 14.5c-37.333 0 -75.166 -8.83301 -113.499 -26.5s-73.666 -41.5 -105.999 -71.5s-60 -65 -83 -105
s-37.5 -82.333 -43.5 -127c-6 -45.333 -3.33301 -88 8 -128s29 -75 53 -105s52.833 -53.667 86.5 -71s69.167 -26 106.5 -26s71.5 5 102.5 15s59 23.333 84 40s47 36.167 66 58.5s35.167 46.166 48.5 71.499l48 -10c-14 -27.333 -32.167 -54.166 -54.5 -80.499
s-48.5 -49.833 -78.5 -70.5s-63.667 -37.334 -101 -50.001s-78 -19 -122 -19zM500.999 940.004l94 -150h-50l-69 110l-101 -110h-50l136 150h40z" />
    <glyph glyph-name="ccircumflex" unicode="&#x109;" horiz-adv-x="510" 
d="M217 -20c-30 0 -57.9961 6.50391 -83.9961 19.5039s-48 30.667 -66 53s-31.333 48.666 -40 78.999s-10.334 63.166 -5.00098 98.499c4.66699 34.667 15.5 67.334 32.5 98.001s37.833 57.167 62.5 79.5s51.667 40 81 53s59 19.5 89 19.5c27.333 0 51.5 -3.66699 72.5 -11
s38.667 -17.166 53 -29.499s25.833 -26.333 34.5 -42s14.334 -31.5 17.001 -47.5l-47 -10c-6 27.333 -19.5 50.833 -40.5 70.5s-52.833 29.5 -95.5 29.5c-24 0 -47.833 -5.33301 -71.5 -16s-45.334 -25.334 -65.001 -44.001s-36.5 -40.834 -50.5 -66.501
s-23 -53.5 -27 -83.5s-2.66699 -57.833 4 -83.5s17.167 -47.834 31.5 -66.501s31.833 -33.334 52.5 -44.001s43 -16 67 -16c22.667 0 43.5 3.16699 62.5 9.5s36.167 15 51.5 26s28.666 23.833 39.999 38.5s20.666 30 27.999 46l44 -10c-8 -18.667 -19 -37 -33 -55
s-31 -34 -51 -48s-42.333 -25.333 -67 -34s-51.334 -13 -80.001 -13zM339.004 715.004l94 -150h-50l-69 110l-101 -110h-50l136 150h40z" />
    <glyph glyph-name="Ccaron" unicode="&#x10c;" horiz-adv-x="765" 
d="M345 -30c-45.333 0 -87.501 10.0039 -126.501 30.0039s-72.333 47 -100 81s-48.167 73.667 -61.5 119s-16.333 93.666 -9 144.999s24 99.666 50 144.999s57.667 85 95 119s78.333 61 123 81s89.667 30 135 30c41.333 0 78.166 -6.16699 110.499 -18.5s60 -28.333 83 -48
s41.5 -41.667 55.5 -66s23 -48.5 27 -72.5l-52 -10c-4.66699 21.333 -12.667 42.166 -24 62.499s-26.5 38.5 -45.5 54.5s-42 28.833 -69 38.5s-57.833 14.5 -92.5 14.5c-37.333 0 -75.166 -8.83301 -113.499 -26.5s-73.666 -41.5 -105.999 -71.5s-60 -65 -83 -105
s-37.5 -82.333 -43.5 -127c-6 -45.333 -3.33301 -88 8 -128s29 -75 53 -105s52.833 -53.667 86.5 -71s69.167 -26 106.5 -26s71.5 5 102.5 15s59 23.333 84 40s47 36.167 66 58.5s35.167 46.166 48.5 71.499l48 -10c-14 -27.333 -32.167 -54.166 -54.5 -80.499
s-48.5 -49.833 -78.5 -70.5s-63.667 -37.334 -101 -50.001s-78 -19 -122 -19zM450.999 800.004l-94 150h50l70 -110l100 110h50l-136 -150h-40z" />
    <glyph glyph-name="ccaron" unicode="&#x10d;" horiz-adv-x="510" 
d="M217 -20c-30 0 -57.9961 6.50391 -83.9961 19.5039s-48 30.667 -66 53s-31.333 48.666 -40 78.999s-10.334 63.166 -5.00098 98.499c4.66699 34.667 15.5 67.334 32.5 98.001s37.833 57.167 62.5 79.5s51.667 40 81 53s59 19.5 89 19.5c27.333 0 51.5 -3.66699 72.5 -11
s38.667 -17.166 53 -29.499s25.833 -26.333 34.5 -42s14.334 -31.5 17.001 -47.5l-47 -10c-6 27.333 -19.5 50.833 -40.5 70.5s-52.833 29.5 -95.5 29.5c-24 0 -47.833 -5.33301 -71.5 -16s-45.334 -25.334 -65.001 -44.001s-36.5 -40.834 -50.5 -66.501
s-23 -53.5 -27 -83.5s-2.66699 -57.833 4 -83.5s17.167 -47.834 31.5 -66.501s31.833 -33.334 52.5 -44.001s43 -16 67 -16c22.667 0 43.5 3.16699 62.5 9.5s36.167 15 51.5 26s28.666 23.833 39.999 38.5s20.666 30 27.999 46l44 -10c-8 -18.667 -19 -37 -33 -55
s-31 -34 -51 -48s-42.333 -25.333 -67 -34s-51.334 -13 -80.001 -13zM279.004 575.004l-94 150h50l70 -110l100 110h50l-136 -150h-40z" />
    <glyph glyph-name="Dcaron" unicode="&#x10e;" horiz-adv-x="700" 
d="M598 345c6 44 4.16797 84.333 -5.49902 121s-26.334 68.167 -50.001 94.5s-53.5 47 -89.5 62s-77 22.5 -123 22.5h-150l-84 -600h150c46 0 89.167 7.5 129.5 22.5s75.833 35.667 106.5 62s56.167 57.833 76.5 94.5s33.5 77 39.5 121zM648.001 345
c-7.33301 -50 -22.498 -96.1709 -45.498 -138.504s-52.5 -78.666 -88.5 -108.999s-77.167 -54.166 -123.5 -71.499s-96.5 -26 -150.5 -26h-200l96 690h200c54 0 101.833 -8.66699 143.5 -26s76.167 -41.166 103.5 -71.499s46.666 -66.666 57.999 -108.999
s13.666 -88.5 6.99902 -138.5zM363.003 779.996l-94 150h50l70 -110l100 110h50l-136 -150h-40z" />
    <glyph glyph-name="dcaron" unicode="&#x10f;" horiz-adv-x="585" 
d="M385 75l-5.00098 0.00195312c-14 -18 -29.667 -34 -47 -48c-15.333 -12 -33.666 -22.833 -54.999 -32.5s-45 -14.5 -71 -14.5c-28.667 0 -55.5 6.16699 -80.5 18.5s-46 29.666 -63 51.999s-29.5 48.833 -37.5 79.5s-9.33301 64 -4 100
c4.66699 36 15.334 69.333 32.001 100s36.667 57.167 60 79.5s49.166 39.666 77.499 51.999s56.833 18.5 85.5 18.5c26 0 48.333 -5 67 -15s34 -21 46 -33c14 -14 25.333 -29.667 34 -47h5l42 305h45l-96 -690h-45zM418.999 320.002
c-8.66699 22.667 -19.667 42.6709 -33 60.0039c-11.333 15.333 -26.333 29.166 -45 41.499s-42 18.5 -70 18.5c-22.667 0 -45.167 -5 -67.5 -15s-43 -24.333 -62 -43s-35.167 -40.834 -48.5 -66.501s-22 -54.167 -26 -85.5c-4.66699 -31.333 -3.83398 -59.833 2.49902 -85.5
s16.166 -47.834 29.499 -66.501s29.833 -33 49.5 -43s40.834 -15 63.501 -15c28 0 53 6.16699 75 18.5s41 26.166 57 41.499c18.667 17.333 35.334 37.333 50.001 60zM575.999 655.006c1.33301 10 5.83301 18.332 13.5 24.999s16.5 10 26.5 10s17.833 -3.33301 23.5 -10
s7.83398 -15 6.50098 -25c-0.666992 -4 -2 -8 -4 -12s-4.33301 -7.66699 -7 -11c-2.66699 -4 -5.66699 -8 -9 -12l-56 -80h-19l40 85c-3.33301 2 -6.33301 4.33301 -9 7c-2 2.66699 -3.83301 5.83398 -5.5 9.50098s-1.83398 8.16699 -0.500977 13.5z" />
    <glyph glyph-name="Dcroat" unicode="&#x110;" horiz-adv-x="730" 
d="M42 370l80.002 -0.00390625l44 320h200c54 0 101.833 -8.66699 143.5 -26s76.167 -41.166 103.5 -71.499s46.666 -66.666 57.999 -108.999s13.666 -88.5 6.99902 -138.5c-7.33301 -50 -22.5 -96.167 -45.5 -138.5s-52.5 -78.666 -88.5 -108.999
s-77.167 -54.166 -123.5 -71.499s-96.5 -26 -150.5 -26h-200l45 325h-80zM628.002 344.996c6 44 4.16797 84.333 -5.49902 121s-26.334 68.167 -50.001 94.5s-53.5 47 -89.5 62s-77 22.5 -123 22.5h-150l-38 -275h185l-7 -45h-185l-39 -280h150c46 0 89.167 7.5 129.5 22.5
s75.833 35.667 106.5 62s56.167 57.833 76.5 94.5s33.5 77 39.5 121z" />
    <glyph glyph-name="dcroat" unicode="&#x111;" horiz-adv-x="565" 
d="M385 75l-5.00098 0.00195312c-14 -18 -29.667 -34 -47 -48c-15.333 -12 -33.666 -22.833 -54.999 -32.5s-45 -14.5 -71 -14.5c-28.667 0 -55.5 6.16699 -80.5 18.5s-46 29.666 -63 51.999s-29.5 48.833 -37.5 79.5s-9.33301 64 -4 100
c4.66699 36 15.334 69.333 32.001 100s36.667 57.167 60 79.5s49.166 39.666 77.499 51.999s56.833 18.5 85.5 18.5c26 0 48.333 -5 67 -15s34 -21 46 -33c14 -14 25.333 -29.667 34 -47h5l23 165h-130l5 40h130l14 100h45l-14 -100h75l-5 -40h-75l-77 -550h-45z
M418.999 320.002c-8.66699 22.667 -19.667 42.6719 -33 60.0049c-11.333 15.333 -26.333 29.166 -45 41.499s-42 18.5 -70 18.5c-22.667 0 -45.167 -5 -67.5 -15s-43 -24.333 -62 -43s-35.167 -40.834 -48.5 -66.501s-22 -54.167 -26 -85.5
c-4.66699 -31.333 -3.83398 -59.833 2.49902 -85.5s16.166 -47.834 29.499 -66.501s29.833 -33 49.5 -43s40.834 -15 63.501 -15c28 0 53 6.16699 75 18.5s41 26.166 57 41.499c18.667 17.333 35.334 37.666 50.001 60.999z" />
    <glyph glyph-name="Emacron" unicode="&#x112;" horiz-adv-x="600" 
d="M526 45l-6 -45h-480l96 690h480l-6 -45h-430l-38 -275h340l-7 -45h-340l-39 -280h430zM279 860h240l-6 -45h-240z" />
    <glyph glyph-name="emacron" unicode="&#x113;" horiz-adv-x="520" 
d="M277 480c28.667 0 55.3379 -6.16602 80.0049 -18.499s45.667 -29.666 63 -51.999s29.833 -48.833 37.5 -79.5s9.16699 -64 4.5 -100l-23 -20h-375c-1.33301 -27.333 1.66699 -52.666 9 -75.999s18.166 -43.5 32.499 -60.5s31.333 -30.167 51 -39.5s41.5 -14 65.5 -14
c22.667 0 43.5 3.16699 62.5 9.5s36.167 15 51.5 26s28.666 23.833 39.999 38.5s20.666 30 27.999 46l44 -10c-8 -18.667 -19 -37 -33 -55s-31 -34 -51 -48s-42.333 -25.333 -67 -34s-51.334 -13 -80.001 -13c-30 0 -58 6.5 -84 19.5s-48 30.667 -66 53
s-31.333 48.666 -40 78.999s-10.334 63.166 -5.00098 98.499c4.66699 36 15.334 69.333 32.001 100s36.667 57.167 60 79.5s49.166 39.666 77.499 51.999s56.833 18.5 85.5 18.5zM271.004 440.001c-22.667 0 -44.835 -4.66699 -66.502 -14s-41.667 -22.5 -60 -39.5
s-34.166 -37.167 -47.499 -60.5s-22.333 -48.666 -27 -75.999h350c2.66699 27.333 0.5 52.666 -6.5 75.999s-17.167 43.5 -30.5 60.5s-29.666 30.167 -48.999 39.5s-40.333 14 -63 14zM183.003 641.001h240l-6 -45h-240z" />
    <glyph glyph-name="Edotaccent" unicode="&#x116;" horiz-adv-x="600" 
d="M526 45l-6 -45h-480l96 690h480l-6 -45h-430l-38 -275h340l-7 -45h-340l-39 -280h430zM427 837c-1.33301 -8.66699 -5.66992 -16.167 -13.0029 -22.5s-15.333 -9.5 -24 -9.5c-9.33301 0 -16.666 3.16699 -21.999 9.5s-7.33301 13.833 -6 22.5
c1.33301 9.33301 5.5 17.166 12.5 23.499s15.167 9.5 24.5 9.5c8.66699 0 15.834 -3.16699 21.501 -9.5s7.83398 -14.166 6.50098 -23.499z" />
    <glyph glyph-name="edotaccent" unicode="&#x117;" horiz-adv-x="520" 
d="M277 480c28.667 0 55.3379 -6.16602 80.0049 -18.499s45.667 -29.666 63 -51.999s29.833 -48.833 37.5 -79.5s9.16699 -64 4.5 -100l-23 -20h-375c-1.33301 -27.333 1.66699 -52.666 9 -75.999s18.166 -43.5 32.499 -60.5s31.333 -30.167 51 -39.5s41.5 -14 65.5 -14
c22.667 0 43.5 3.16699 62.5 9.5s36.167 15 51.5 26s28.666 23.833 39.999 38.5s20.666 30 27.999 46l44 -10c-8 -18.667 -19 -37 -33 -55s-31 -34 -51 -48s-42.333 -25.333 -67 -34s-51.334 -13 -80.001 -13c-30 0 -58 6.5 -84 19.5s-48 30.667 -66 53
s-31.333 48.666 -40 78.999s-10.334 63.166 -5.00098 98.499c4.66699 36 15.334 69.333 32.001 100s36.667 57.167 60 79.5s49.166 39.666 77.499 51.999s56.833 18.5 85.5 18.5zM271.004 440.001c-22.667 0 -44.835 -4.66699 -66.502 -14s-41.667 -22.5 -60 -39.5
s-34.166 -37.167 -47.499 -60.5s-22.333 -48.666 -27 -75.999h350c2.66699 27.333 0.5 52.666 -6.5 75.999s-17.167 43.5 -30.5 60.5s-29.666 30.167 -48.999 39.5s-40.333 14 -63 14zM336.003 618.001c-1.33301 -8.66699 -5.66992 -16.167 -13.0029 -22.5
s-15.333 -9.5 -24 -9.5c-9.33301 0 -16.666 3.16699 -21.999 9.5s-7.33301 13.833 -6 22.5c1.33301 9.33301 5.5 17.166 12.5 23.499s15.167 9.5 24.5 9.5c8.66699 0 15.834 -3.16699 21.501 -9.5s7.83398 -14.166 6.50098 -23.499z" />
    <glyph glyph-name="Eogonek" unicode="&#x118;" horiz-adv-x="600" 
d="M526 45l-6 -45c-23.333 -10 -44.333 -21.333 -63 -34c-16 -11.333 -31 -24.666 -45 -39.999s-22.333 -32.333 -25 -51c-2 -15.333 1.5 -28.333 10.5 -39s21.167 -16 36.5 -16c6 0 12 0.666992 18 2s11.667 3 17 5c6 2.66699 11.667 5.33398 17 8.00098l10 -40
c-6 -2.66699 -12.667 -5.33398 -20 -8.00098c-6 -2 -13.167 -3.66699 -21.5 -5s-16.833 -2 -25.5 -2c-30 0 -53 8.66699 -69 26s-22.333 38.666 -19 63.999c3.33301 22.667 12.166 42.167 26.499 58.5s29.5 29.833 45.5 40.5c18.667 12 39.334 22.333 62.001 31h-435l96 690
h480l-6 -45h-430l-38 -275h340l-7 -45h-340l-39 -280h430z" />
    <glyph glyph-name="eogonek" unicode="&#x119;" horiz-adv-x="520" 
d="M224 -220c-30 0 -52.9951 8.66895 -68.9951 26.002s-22.333 38.666 -19 63.999c2 13.333 6.16699 25.666 12.5 36.999s13.666 21.5 21.999 30.5s17.333 17 27 24s19.167 13.167 28.5 18.5h-9c-30 0 -58 6.5 -84 19.5s-48 30.667 -66 53s-31.333 48.666 -40 78.999
s-10.334 63.166 -5.00098 98.499c4.66699 36 15.334 69.333 32.001 100s36.667 57.167 60 79.5s49.166 39.666 77.499 51.999s56.833 18.5 85.5 18.5s55.334 -6.16699 80.001 -18.5s45.667 -29.666 63 -51.999s29.833 -48.833 37.5 -79.5s9.16699 -64 4.5 -100l-23 -20h-375
c-1.33301 -27.333 1.66699 -52.666 9 -75.999s18.166 -43.5 32.499 -60.5s31.333 -30.167 51 -39.5s41.5 -14 65.5 -14c22.667 0 43.5 3.16699 62.5 9.5s36.167 15 51.5 26s28.666 23.833 39.999 38.5s20.666 30 27.999 46l44 -10c-11.333 -28 -29.333 -54.167 -54 -78.5
s-54.667 -42.833 -90 -55.5c-6.66699 -3.33301 -16.334 -8.5 -29.001 -15.5s-25.5 -15.667 -38.5 -26s-24.833 -22.166 -35.5 -35.499s-17 -28 -19 -44c-2 -15.333 1.5 -28.333 10.5 -39s21.167 -16 36.5 -16c6 0 12 0.666992 18 2s11.667 3 17 5
c6 2.66699 11.667 5.33398 17 8.00098l10 -40c-6 -2.66699 -12.667 -5.33398 -20 -8.00098c-6 -2 -13.167 -3.66699 -21.5 -5s-16.833 -2 -25.5 -2zM271.005 440.002c-22.667 0 -44.835 -4.66699 -66.502 -14s-41.667 -22.5 -60 -39.5s-34.166 -37.167 -47.499 -60.5
s-22.333 -48.666 -27 -75.999h350c2.66699 27.333 0.5 52.666 -6.5 75.999s-17.167 43.5 -30.5 60.5s-29.666 30.167 -48.999 39.5s-40.333 14 -63 14z" />
    <glyph glyph-name="Ecaron" unicode="&#x11a;" horiz-adv-x="600" 
d="M526 45l-6 -45h-480l96 690h480l-6 -45h-430l-38 -275h340l-7 -45h-340l-39 -280h430zM369 785l-94 150h50l70 -110l100 110h50l-136 -150h-40z" />
    <glyph glyph-name="ecaron" unicode="&#x11b;" horiz-adv-x="520" 
d="M277 480c28.667 0 55.3379 -6.16602 80.0049 -18.499s45.667 -29.666 63 -51.999s29.833 -48.833 37.5 -79.5s9.16699 -64 4.5 -100l-23 -20h-375c-1.33301 -27.333 1.66699 -52.666 9 -75.999s18.166 -43.5 32.499 -60.5s31.333 -30.167 51 -39.5s41.5 -14 65.5 -14
c22.667 0 43.5 3.16699 62.5 9.5s36.167 15 51.5 26s28.666 23.833 39.999 38.5s20.666 30 27.999 46l44 -10c-8 -18.667 -19 -37 -33 -55s-31 -34 -51 -48s-42.333 -25.333 -67 -34s-51.334 -13 -80.001 -13c-30 0 -58 6.5 -84 19.5s-48 30.667 -66 53
s-31.333 48.666 -40 78.999s-10.334 63.166 -5.00098 98.499c4.66699 36 15.334 69.333 32.001 100s36.667 57.167 60 79.5s49.166 39.666 77.499 51.999s56.833 18.5 85.5 18.5zM271.004 440.001c-22.667 0 -44.835 -4.66699 -66.502 -14s-41.667 -22.5 -60 -39.5
s-34.166 -37.167 -47.499 -60.5s-22.333 -48.666 -27 -75.999h350c2.66699 27.333 0.5 52.666 -6.5 75.999s-17.167 43.5 -30.5 60.5s-29.666 30.167 -48.999 39.5s-40.333 14 -63 14zM273.003 565.001l-94 150h50l70 -110l100 110h50l-136 -150h-40z" />
    <glyph glyph-name="Gbreve" unicode="&#x11e;" horiz-adv-x="780" 
d="M352 15c38.667 0 76 7.33398 112 22.001s68.333 34.334 97 59.001s52.667 53.334 72 86.001s31.666 67 36.999 103h-235l6 45h285l-3 -20c-7.33301 -50 -22.166 -95.833 -44.499 -137.5s-50.333 -77.5 -84 -107.5s-71.834 -53.333 -114.501 -70s-87.667 -25 -135 -25
c-45.333 0 -87.5 10 -126.5 30s-72.333 47 -100 81s-48.167 73.667 -61.5 119s-16.333 93.666 -9 144.999s24 99.666 50 144.999s57.667 85 95 119s78.333 61 123 81s89.667 30 135 30c41.333 0 78.166 -6.16699 110.499 -18.5s60 -28.333 83 -48s41.5 -41.667 55.5 -66
s23 -48.5 27 -72.5l-52 -10c-4.66699 21.333 -12.667 42.166 -24 62.499s-26.5 38.5 -45.5 54.5s-42 28.833 -69 38.5s-57.833 14.5 -92.5 14.5c-37.333 0 -75.166 -8.83301 -113.499 -26.5s-73.666 -41.5 -105.999 -71.5s-60 -65 -83 -105s-37.5 -82.333 -43.5 -127
c-6 -45.333 -3.33301 -88 8 -128s29 -75 53 -105s52.833 -53.667 86.5 -71s69.167 -26 106.5 -26zM473 840.001c25.333 0 46.8311 7.83301 64.498 23.5s28.167 36.167 31.5 61.5h40c-2 -17.333 -7.33301 -33.666 -16 -48.999s-19.334 -28.666 -32.001 -39.999
s-27.167 -20.166 -43.5 -26.499s-33.166 -9.5 -50.499 -9.5s-33.166 3.16699 -47.499 9.5s-26.333 15.166 -36 26.499s-16.667 24.666 -21 39.999s-5.5 31.666 -3.5 48.999h40c-3.33301 -25.333 1.83398 -45.833 15.501 -61.5s33.167 -23.5 58.5 -23.5z" />
    <glyph glyph-name="gbreve" unicode="&#x11f;" 
d="M439 460l45.002 0.000976562l-64 -455c-4 -31.333 -13.167 -60.166 -27.5 -86.499s-31.833 -49 -52.5 -68s-44 -33.833 -70 -44.5s-52.667 -16 -80 -16s-51.5 3.66699 -72.5 11s-38.667 17.166 -53 29.499s-25.833 26.333 -34.5 42s-14.334 31.5 -17.001 47.5l47 10
c6 -27.333 19.5 -50.833 40.5 -70.5s52.833 -29.5 95.5 -29.5c21.333 0 42 4.16699 62 12.5s38 20.166 54 35.499s29.5 33.833 40.5 55.5s18.5 45.5 22.5 71.5l13 90h-5c-14 -18 -29.667 -34 -47 -48c-15.333 -12 -33.666 -22.833 -54.999 -32.5s-45 -14.5 -71 -14.5
c-28.667 0 -55.5 6.16699 -80.5 18.5s-46.167 29.333 -63.5 51s-30 47 -38 76s-9.66699 60.5 -5 94.5s15.167 65.5 31.5 94.5s36.166 54.333 59.499 76s49.166 38.667 77.499 51s56.833 18.5 85.5 18.5c26 0 48.333 -5 67 -15s34 -21 46 -33c14 -14 25.333 -29.667 34 -47h5
zM419.002 320.001c-8.66699 22.667 -19.6699 42.6689 -33.0029 60.002c-11.333 15.333 -26.333 29.166 -45 41.499s-42 18.5 -70 18.5c-22.667 0 -45.167 -5 -67.5 -15s-42.833 -24 -61.5 -42s-34.667 -39.167 -48 -63.5s-22 -50.833 -26 -79.5s-2.83301 -55.167 3.5 -79.5
s16.333 -45.5 30 -63.5s30.334 -32 50.001 -42s40.834 -15 63.501 -15c28 0 53 6.16699 75 18.5s41 26.166 57 41.499c18.667 17.333 35.334 37.333 50.001 60zM299.999 610.003c25.333 0 46.8311 7.83301 64.498 23.5s28.167 36.167 31.5 61.5h40
c-2 -17.333 -7.33301 -33.666 -16 -48.999s-19.334 -28.666 -32.001 -39.999s-27.167 -20.166 -43.5 -26.499s-33.166 -9.5 -50.499 -9.5s-33.166 3.16699 -47.499 9.5s-26.333 15.166 -36 26.499s-16.667 24.666 -21 39.999s-5.5 31.666 -3.5 48.999h40
c-3.33301 -25.333 1.83398 -45.833 15.501 -61.5s33.167 -23.5 58.5 -23.5z" />
    <glyph glyph-name="Gcommaaccent" unicode="&#x122;" horiz-adv-x="780" 
d="M352 15c38.667 0 76 7.33398 112 22.001s68.333 34.334 97 59.001s52.667 53.334 72 86.001s31.666 67 36.999 103h-235l6 45h285l-3 -20c-7.33301 -50 -22.166 -95.833 -44.499 -137.5s-50.333 -77.5 -84 -107.5s-71.834 -53.333 -114.501 -70s-87.667 -25 -135 -25
c-45.333 0 -87.5 10 -126.5 30s-72.333 47 -100 81s-48.167 73.667 -61.5 119s-16.333 93.666 -9 144.999s24 99.666 50 144.999s57.667 85 95 119s78.333 61 123 81s89.667 30 135 30c41.333 0 78.166 -6.16699 110.499 -18.5s60 -28.333 83 -48s41.5 -41.667 55.5 -66
s23 -48.5 27 -72.5l-52 -10c-4.66699 21.333 -12.667 42.166 -24 62.499s-26.5 38.5 -45.5 54.5s-42 28.833 -69 38.5s-57.833 14.5 -92.5 14.5c-37.333 0 -75.166 -8.83301 -113.499 -26.5s-73.666 -41.5 -105.999 -71.5s-60 -65 -83 -105s-37.5 -82.333 -43.5 -127
c-6 -45.333 -3.33301 -88 8 -128s29 -75 53 -105s52.833 -53.667 86.5 -71s69.167 -26 106.5 -26zM304 -144.999c1.33301 10 5.83301 18.332 13.5 24.999s16.5 10 26.5 10s17.833 -3.33301 23.5 -10s7.83398 -15 6.50098 -25c-0.666992 -4 -2 -8 -4 -12
s-4.33301 -7.66699 -7 -11c-2.66699 -4 -5.66699 -8 -9 -12l-56 -80h-19l40 85c-3.33301 2 -6.33301 4.33301 -9 7c-2 2.66699 -3.83301 5.83398 -5.5 9.50098s-1.83398 8.16699 -0.500977 13.5z" />
    <glyph glyph-name="gcommaaccent" unicode="&#x123;" 
d="M341 615c-1.33301 -10 -5.83203 -18.3311 -13.499 -24.998s-16.5 -10 -26.5 -10s-17.833 3.33301 -23.5 10s-7.83398 15 -6.50098 25c0.666992 3.33301 2 7.16602 4 11.499s4.33301 8.16602 7 11.499c2.66699 4 5.66699 8 9 12l56 80h20l-42 -85
c3.33301 -2.66699 6.33301 -5.33398 9 -8.00098c2 -2.66699 3.83301 -5.66699 5.5 -9s2.16699 -7.66602 1.5 -12.999zM439.001 460.002l45.002 0.000976562l-64 -455c-4 -31.333 -13.167 -60.166 -27.5 -86.499s-31.833 -49 -52.5 -68s-44 -33.833 -70 -44.5
s-52.667 -16 -80 -16s-51.5 3.66699 -72.5 11s-38.667 17.166 -53 29.499s-25.833 26.333 -34.5 42s-14.334 31.5 -17.001 47.5l47 10c6 -27.333 19.5 -50.833 40.5 -70.5s52.833 -29.5 95.5 -29.5c21.333 0 42 4.16699 62 12.5s38 20.166 54 35.499s29.5 33.833 40.5 55.5
s18.5 45.5 22.5 71.5l13 90h-5c-14 -18 -29.667 -34 -47 -48c-15.333 -12 -33.666 -22.833 -54.999 -32.5s-45 -14.5 -71 -14.5c-28.667 0 -55.5 6.16699 -80.5 18.5s-46.167 29.333 -63.5 51s-30 47 -38 76s-9.66699 60.5 -5 94.5s15.167 65.5 31.5 94.5
s36.166 54.333 59.499 76s49.166 38.667 77.499 51s56.833 18.5 85.5 18.5c26 0 48.333 -5 67 -15s34 -21 46 -33c14 -14 25.333 -29.667 34 -47h5zM419.003 320.003c-8.66699 22.667 -19.6699 42.6689 -33.0029 60.002c-11.333 15.333 -26.333 29.166 -45 41.499
s-42 18.5 -70 18.5c-22.667 0 -45.167 -5 -67.5 -15s-42.833 -24 -61.5 -42s-34.667 -39.167 -48 -63.5s-22 -50.833 -26 -79.5s-2.83301 -55.167 3.5 -79.5s16.333 -45.5 30 -63.5s30.334 -32 50.001 -42s40.834 -15 63.501 -15c28 0 53 6.16699 75 18.5
s41 26.166 57 41.499c18.667 17.333 35.334 37.333 50.001 60z" />
    <glyph glyph-name="Imacron" unicode="&#x12a;" horiz-adv-x="260" 
d="M105 0h-50l96 690h50zM77 845h240l-6 -45h-240z" />
    <glyph glyph-name="imacron" unicode="&#x12b;" horiz-adv-x="200" 
d="M21 646h240l-6 -45h-240zM94 460h45l-64 -460h-45z" />
    <glyph glyph-name="Iogonek" unicode="&#x12e;" horiz-adv-x="245" 
d="M9 -220c-30 0 -52.833 8.66699 -68.5 26s-21.834 38.666 -18.501 63.999c3.33301 22.667 12 42.167 26 58.5s29 29.833 45 40.5c18.667 12 39.334 22.333 62.001 31h-5l96 690h50l-96 -690c-23.333 -10 -44.333 -21.333 -63 -34c-16 -11.333 -31 -24.666 -45 -39.999
s-22.333 -32.333 -25 -51c-2 -15.333 1.5 -28.333 10.5 -39s21.167 -16 36.5 -16c6 0 12 0.666992 18 2s11.667 3 17 5c6 2.66699 11.667 5.33398 17 8.00098l10 -40c-6 -2.66699 -12.667 -5.33398 -20 -8.00098c-6 -2 -13.167 -3.66699 -21.5 -5s-16.833 -2 -25.5 -2z" />
    <glyph glyph-name="iogonek" unicode="&#x12f;" horiz-adv-x="190" 
d="M-31 -220c-30 0 -52.832 8.66699 -68.499 26s-21.834 38.666 -18.501 63.999c3.33301 22.667 12 42.167 26 58.5s29 29.833 45 40.5c18.667 12 39.334 22.333 62.001 31l64 460h45l-64 -460c-22.667 -10 -43.334 -21.333 -62.001 -34
c-16 -11.333 -31 -24.666 -45 -39.999s-22.333 -32.333 -25 -51c-2 -15.333 1.5 -28.333 10.5 -39s20.833 -16 35.5 -16c6 0 12 0.666992 18 2s11.667 3 17 5c6 2.66699 11.667 5.33398 17 8.00098l10 -40c-6 -2.66699 -12.667 -5.33398 -20 -8.00098
c-6 -2 -13.167 -3.66699 -21.5 -5s-16.833 -2 -25.5 -2zM159.001 637c-1.33301 -8.66699 -5.49707 -16.167 -12.4971 -22.5s-14.833 -9.5 -23.5 -9.5c-9.33301 0 -16.833 3.16699 -22.5 9.5s-7.83398 13.833 -6.50098 22.5c1.33301 9.33301 5.66602 17.166 12.999 23.499
s15.666 9.5 24.999 9.5c8.66699 0 15.667 -3.16699 21 -9.5s7.33301 -14.166 6 -23.499z" />
    <glyph glyph-name="Idotaccent" unicode="&#x130;" horiz-adv-x="245" 
d="M97 0h-50l96 690h50zM222 837c-1.33301 -8.66699 -5.66992 -16.167 -13.0029 -22.5s-15.333 -9.5 -24 -9.5c-9.33301 0 -16.666 3.16699 -21.999 9.5s-7.33301 13.833 -6 22.5c1.33301 9.33301 5.5 17.166 12.5 23.499s15.167 9.5 24.5 9.5
c8.66699 0 15.834 -3.16699 21.501 -9.5s7.83398 -14.166 6.50098 -23.499z" />
    <glyph glyph-name="dotlessi" unicode="&#x131;" horiz-adv-x="185" 
d="M84 460h45l-64 -460h-45z" />
    <glyph glyph-name="Kcommaaccent" unicode="&#x136;" horiz-adv-x="620" 
d="M293 380l-172 -155l-31 -225h-50l96 690h50l-56 -400l441 400h65l-297 -270l211 -420h-60l-192 380h-5zM213 -115c1.33301 10 5.83301 18.332 13.5 24.999s16.5 10 26.5 10s17.833 -3.33301 23.5 -10s7.83398 -15 6.50098 -25c-0.666992 -4 -2 -8 -4 -12
s-4.33301 -7.66699 -7 -11c-2.66699 -4 -5.66699 -8 -9 -12l-56 -80h-19l40 85c-3.33301 2 -6.33301 4.33301 -9 7c-2 2.66699 -3.83301 5.83398 -5.5 9.50098s-1.83398 8.16699 -0.500977 13.5z" />
    <glyph glyph-name="kcommaaccent" unicode="&#x137;" horiz-adv-x="480" 
d="M75 0h-45l96 690h45l-70 -500l303 270h55l-194 -175l155 -285h-50l-140 255l-137 -120zM163 -115c1.33301 10 5.83301 18.332 13.5 24.999s16.5 10 26.5 10s17.833 -3.33301 23.5 -10s7.83398 -15 6.50098 -25c-0.666992 -4 -2 -8 -4 -12s-4.33301 -7.66699 -7 -11
c-2.66699 -4 -5.66699 -8 -9 -12l-56 -80h-19l40 85c-3.33301 2 -6.33301 4.33301 -9 7c-2 2.66699 -3.83301 5.83398 -5.5 9.50098s-1.83398 8.16699 -0.500977 13.5z" />
    <glyph glyph-name="Lacute" unicode="&#x139;" horiz-adv-x="555" 
d="M96 45h405l-6 -45h-455l96 690h50zM338 850l-175 -75l-11 30l172 90z" />
    <glyph glyph-name="lacute" unicode="&#x13a;" horiz-adv-x="230" 
d="M136 650h-85l5 40h130l-96 -690h-45zM300 865l-175 -75l-11 30l172 90z" />
    <glyph glyph-name="Lcommaaccent" unicode="&#x13b;" horiz-adv-x="555" 
d="M96 45h405l-6 -45h-455l96 690h50zM220 -135c1.33301 10 5.83301 18.332 13.5 24.999s16.5 10 26.5 10s17.833 -3.33301 23.5 -10s7.83398 -15 6.50098 -25c-0.666992 -4 -2 -8 -4 -12s-4.33301 -7.66699 -7 -11c-2.66699 -4 -5.66699 -8 -9 -12l-56 -80h-19l40 85
c-3.33301 2 -6.33301 4.33301 -9 7c-2 2.66699 -3.83301 5.83398 -5.5 9.50098s-1.83398 8.16699 -0.500977 13.5z" />
    <glyph glyph-name="lcommaaccent" unicode="&#x13c;" horiz-adv-x="235" 
d="M136 650h-85l5 40h130l-96 -690h-45zM20 -105c1.33301 10 5.83301 18.332 13.5 24.999s16.5 10 26.5 10s17.833 -3.33301 23.5 -10s7.83398 -15 6.50098 -25c-0.666992 -4 -2 -8 -4 -12s-4.33301 -7.66699 -7 -11c-2.66699 -4 -5.66699 -8 -9 -12l-56 -80h-19l40 85
c-3.33301 2 -6.33301 4.33301 -9 7c-2 2.66699 -3.83301 5.83398 -5.5 9.50098s-1.83398 8.16699 -0.500977 13.5z" />
    <glyph glyph-name="Lcaron" unicode="&#x13d;" horiz-adv-x="555" 
d="M96 45h405l-6 -45h-455l96 690h50zM271 655c1.33301 10 5.83301 18.332 13.5 24.999s16.5 10 26.5 10s17.833 -3.33301 23.5 -10s7.83398 -15 6.50098 -25c-0.666992 -4 -2 -8 -4 -12s-4.33301 -7.66699 -7 -11c-2.66699 -4 -5.66699 -8 -9 -12l-56 -80h-19l40 85
c-3.33301 2 -6.33301 4.33301 -9 7c-2 2.66699 -3.83301 5.83398 -5.5 9.50098s-1.83398 8.16699 -0.500977 13.5z" />
    <glyph glyph-name="lcaron" unicode="&#x13e;" horiz-adv-x="255" 
d="M136 650h-85l5 40h130l-96 -690h-45zM246 656c1.33301 10 5.83301 18.332 13.5 24.999s16.5 10 26.5 10s17.833 -3.33301 23.5 -10s7.83398 -15 6.50098 -25c-0.666992 -4 -2 -8 -4 -12s-4.33301 -7.66699 -7 -11c-2.66699 -4 -5.66699 -8 -9 -12l-56 -80h-19l40 85
c-3.33301 2 -6.33301 4.33301 -9 7c-2 2.66699 -3.83301 5.83398 -5.5 9.50098s-1.83398 8.16699 -0.500977 13.5z" />
    <glyph glyph-name="Lslash" unicode="&#x141;" horiz-adv-x="585" 
d="M24 315l95 40l47 335h50l-43 -311l138 61l-6 -45l-139 -61l-40 -289h405l-6 -45h-455l43 310l-96 -40z" />
    <glyph glyph-name="lslash" unicode="&#x142;" horiz-adv-x="250" 
d="M1 295l91 40l44 315h-85l5 40h130l-47 -335l96 40l-6 -45l-96 -40l-43 -310h-45l40 290l-90 -40z" />
    <glyph glyph-name="Nacute" unicode="&#x143;" horiz-adv-x="710" 
d="M526 85h5l85 605h50l-96 -690h-55l-335 605h-5l-85 -605h-50l96 690h55zM542 875l-175 -75l-11 30l172 90z" />
    <glyph glyph-name="nacute" unicode="&#x144;" horiz-adv-x="530" 
d="M420 0l-44.999 -0.000976562l37 270c8 55.333 0.5 97.5 -22.5 126.5s-55.833 43.5 -98.5 43.5c-28 0 -53 -6.16699 -75 -18.5s-41 -26.166 -57 -41.499c-18.667 -17.333 -35.334 -37.333 -50.001 -60l-44 -320h-45l64 460h45l-10 -75h5c14 17.333 29.667 33 47 47
c15.333 12 33.5 23 54.5 33s44.833 15 71.5 15c27.333 0 52 -4.83301 74 -14.5s40.167 -23.5 54.5 -41.5s24.333 -40 30 -66s6.16699 -55.333 1.5 -88zM416.001 654.999l-175 -75l-11 30l172 90z" />
    <glyph glyph-name="Ncommaaccent" unicode="&#x145;" horiz-adv-x="710" 
d="M526 85h5l85 605h50l-96 -690h-55l-335 605h-5l-85 -605h-50l96 690h55zM261 -130c1.33301 10 5.83301 18.332 13.5 24.999s16.5 10 26.5 10s17.833 -3.33301 23.5 -10s7.83398 -15 6.50098 -25c-0.666992 -4 -2 -8 -4 -12s-4.33301 -7.66699 -7 -11
c-2.66699 -4 -5.66699 -8 -9 -12l-56 -80h-19l40 85c-3.33301 2 -6.33301 4.33301 -9 7c-2 2.66699 -3.83301 5.83398 -5.5 9.50098s-1.83398 8.16699 -0.500977 13.5z" />
    <glyph glyph-name="ncommaaccent" unicode="&#x146;" horiz-adv-x="530" 
d="M420 0l-44.999 -0.000976562l37 270c8 55.333 0.5 97.5 -22.5 126.5s-55.833 43.5 -98.5 43.5c-28 0 -53 -6.16699 -75 -18.5s-41 -26.166 -57 -41.499c-18.667 -17.333 -35.334 -37.333 -50.001 -60l-44 -320h-45l64 460h45l-10 -75h5c14 17.333 29.667 33 47 47
c15.333 12 33.5 23 54.5 33s44.833 15 71.5 15c27.333 0 52 -4.83301 74 -14.5s40.167 -23.5 54.5 -41.5s24.333 -40 30 -66s6.16699 -55.333 1.5 -88zM178.001 -115.001c1.33301 10 5.83301 18.332 13.5 24.999s16.5 10 26.5 10s17.833 -3.33301 23.5 -10
s7.83398 -15 6.50098 -25c-0.666992 -4 -2 -8 -4 -12s-4.33301 -7.66699 -7 -11c-2.66699 -4 -5.66699 -8 -9 -12l-56 -80h-19l40 85c-3.33301 2 -6.33301 4.33301 -9 7c-2 2.66699 -3.83301 5.83398 -5.5 9.50098s-1.83398 8.16699 -0.500977 13.5z" />
    <glyph glyph-name="Ncaron" unicode="&#x147;" horiz-adv-x="710" 
d="M526 85h5l85 605h50l-96 -690h-55l-335 605h-5l-85 -605h-50l96 690h55zM410 790l-94 150h50l70 -110l100 110h50l-136 -150h-40z" />
    <glyph glyph-name="ncaron" unicode="&#x148;" horiz-adv-x="530" 
d="M420 0l-44.999 -0.000976562l37 270c8 55.333 0.5 97.5 -22.5 126.5s-55.833 43.5 -98.5 43.5c-28 0 -53 -6.16699 -75 -18.5s-41 -26.166 -57 -41.499c-18.667 -17.333 -35.334 -37.333 -50.001 -60l-44 -320h-45l64 460h45l-10 -75h5c14 17.333 29.667 33 47 47
c15.333 12 33.5 23 54.5 33s44.833 15 71.5 15c27.333 0 52 -4.83301 74 -14.5s40.167 -23.5 54.5 -41.5s24.333 -40 30 -66s6.16699 -55.333 1.5 -88zM290.001 579.999l-94 150h50l70 -110l100 110h50l-136 -150h-40z" />
    <glyph glyph-name="Omacron" unicode="&#x14c;" horiz-adv-x="820" 
d="M48 345c7.33301 51.333 24 99.666 50 144.999s58 85 96 119s80.167 61 126.5 81s93.166 30 140.499 30s91.333 -10 132 -30s75.167 -47 103.5 -81s49.166 -73.667 62.499 -119s16.333 -93.666 9 -144.999s-24 -99.666 -50 -144.999s-58 -85 -96 -119
s-80.167 -61 -126.5 -81s-93.166 -30 -140.499 -30s-91.333 10 -132 30s-75.167 47 -103.5 81s-49.166 73.667 -62.499 119s-16.333 93.666 -9 144.999zM718 345c6 44.667 3.16699 87 -8.5 127s-29.667 75 -54 105s-54 53.833 -89 71.5s-72.5 26.5 -112.5 26.5
s-79.833 -8.83301 -119.5 -26.5s-76 -41.5 -109 -71.5s-61 -65 -84 -105s-37.5 -82.333 -43.5 -127c-6 -45.333 -3.16699 -88 8.5 -128s29.667 -75 54 -105s54 -53.667 89 -71s72.5 -26 112.5 -26s79.833 8.66699 119.5 26s76 41 109 71s61 65 84 105s37.5 82.667 43.5 128z
M367 880h240l-6 -45h-240z" />
    <glyph glyph-name="omacron" unicode="&#x14d;" horiz-adv-x="550" 
d="M492 230c-5.33301 -35.333 -16.4971 -68.166 -33.4971 -98.499s-37.833 -56.666 -62.5 -78.999s-52 -40 -82 -53s-60.667 -19.5 -92 -19.5s-60.333 6.5 -87 19.5s-49.167 30.667 -67.5 53s-31.833 48.666 -40.5 78.999s-10.334 63.166 -5.00098 98.499
c4.66699 34.667 15.667 67.334 33 98.001s38.333 57.167 63 79.5s52 40 82 53s60.667 19.5 92 19.5s60.333 -6.5 87 -19.5s49.167 -30.667 67.5 -53s31.666 -48.833 39.999 -79.5s10.166 -63.334 5.49902 -98.001zM447.003 230c4 30 2.66602 57.833 -4.00098 83.5
s-17.5 47.834 -32.5 66.501s-33.333 33.334 -55 44.001s-44.834 16 -69.501 16c-25.333 0 -50.166 -5.33301 -74.499 -16s-46.5 -25.334 -66.5 -44.001s-37 -40.834 -51 -66.501s-23 -53.5 -27 -83.5s-2.66699 -57.833 4 -83.5s17.334 -47.834 32.001 -66.501
s32.667 -33.334 54 -44.001s44.666 -16 69.999 -16c24.667 0 49.334 5.33301 74.001 16s47 25.334 67 44.001s37.167 40.834 51.5 66.501s23.5 53.5 27.5 83.5zM200.002 651h240l-6 -45h-240z" />
    <glyph glyph-name="Ohungarumlaut" unicode="&#x150;" horiz-adv-x="820" 
d="M48 345c7.33301 51.333 24 99.666 50 144.999s58 85 96 119s80.167 61 126.5 81s93.166 30 140.499 30s91.333 -10 132 -30s75.167 -47 103.5 -81s49.166 -73.667 62.499 -119s16.333 -93.666 9 -144.999s-24 -99.666 -50 -144.999s-58 -85 -96 -119
s-80.167 -61 -126.5 -81s-93.166 -30 -140.499 -30s-91.333 10 -132 30s-75.167 47 -103.5 81s-49.166 73.667 -62.499 119s-16.333 93.666 -9 144.999zM718 345c6 44.667 3.16699 87 -8.5 127s-29.667 75 -54 105s-54 53.833 -89 71.5s-72.5 26.5 -112.5 26.5
s-79.833 -8.83301 -119.5 -26.5s-76 -41.5 -109 -71.5s-61 -65 -84 -105s-37.5 -82.333 -43.5 -127c-6 -45.333 -3.16699 -88 8.5 -128s29.667 -75 54 -105s54 -53.667 89 -71s72.5 -26 112.5 -26s79.833 8.66699 119.5 26s76 41 109 71s61 65 84 105s37.5 82.667 43.5 128z
M471 945h50l-106 -150h-35zM611 945h50l-106 -150h-35z" />
    <glyph glyph-name="ohungarumlaut" unicode="&#x151;" horiz-adv-x="550" 
d="M492 230c-5.33301 -35.333 -16.4971 -68.166 -33.4971 -98.499s-37.833 -56.666 -62.5 -78.999s-52 -40 -82 -53s-60.667 -19.5 -92 -19.5s-60.333 6.5 -87 19.5s-49.167 30.667 -67.5 53s-31.833 48.666 -40.5 78.999s-10.334 63.166 -5.00098 98.499
c4.66699 34.667 15.667 67.334 33 98.001s38.333 57.167 63 79.5s52 40 82 53s60.667 19.5 92 19.5s60.333 -6.5 87 -19.5s49.167 -30.667 67.5 -53s31.666 -48.833 39.999 -79.5s10.166 -63.334 5.49902 -98.001zM447.003 230c4 30 2.66602 57.833 -4.00098 83.5
s-17.5 47.834 -32.5 66.501s-33.333 33.334 -55 44.001s-44.834 16 -69.501 16c-25.333 0 -50.166 -5.33301 -74.499 -16s-46.5 -25.334 -66.5 -44.001s-37 -40.834 -51 -66.501s-23 -53.5 -27 -83.5s-2.66699 -57.833 4 -83.5s17.334 -47.834 32.001 -66.501
s32.667 -33.334 54 -44.001s44.666 -16 69.999 -16c24.667 0 49.334 5.33301 74.001 16s47 25.334 67 44.001s37.167 40.834 51.5 66.501s23.5 53.5 27.5 83.5zM303.002 710h50l-106 -150h-35zM443.002 710h50l-106 -150h-35z" />
    <glyph glyph-name="OE" unicode="&#x152;" horiz-adv-x="1005" 
d="M931 45l-5.99902 -44.9961h-565c-54 0 -101.833 8.66699 -143.5 26s-76.167 41.166 -103.5 71.499s-46.833 66.666 -58.5 108.999s-13.834 88.5 -6.50098 138.5c6.66699 50 21.667 96.167 45 138.5s53 78.666 89 108.999s77.167 54.166 123.5 71.499s96.5 26 150.5 26
h565l-6 -45h-410l-38 -275h320l-7 -45h-320l-39 -280h410zM98.001 345.004c-6 -44 -4.16602 -84.333 5.50098 -121s26.167 -68.167 49.5 -94.5s53.166 -47 89.499 -62s77.5 -22.5 123.5 -22.5h105l84 600h-105c-46 0 -89.167 -7.5 -129.5 -22.5s-75.833 -35.667 -106.5 -62
s-56.167 -57.833 -76.5 -94.5s-33.5 -77 -39.5 -121z" />
    <glyph glyph-name="oe" unicode="&#x153;" horiz-adv-x="905" 
d="M667 480c27.333 0 53.0029 -6.16602 77.0029 -18.499s44.5 -29.666 61.5 -51.999s29.333 -48.833 37 -79.5s9.16699 -64 4.5 -100l-23 -20h-365c-2.66699 -26 -0.333984 -50.667 6.99902 -74s17.833 -43.5 31.5 -60.5s30 -30.5 49 -40.5s39.167 -15 60.5 -15
s41.5 3.16699 60.5 9.5s36.167 15 51.5 26s29 23.833 41 38.5s21.667 30 29 46l44 -10c-8 -18.667 -19 -37 -33 -55s-31 -34 -51 -48s-42.333 -25.333 -67 -34s-51.334 -13 -80.001 -13c-35.333 0 -64.333 6.66699 -87 20s-40.667 28.333 -54 45
c-16 18.667 -28 40.334 -36 65.001h-5c-14.667 -24.667 -32.667 -46.334 -54 -65.001c-18 -16.667 -40.167 -31.667 -66.5 -45s-57.166 -20 -92.499 -20c-28.667 0 -55.5 6.16699 -80.5 18.5s-46 29.666 -63 51.999s-29.5 48.833 -37.5 79.5s-9.33301 64 -4 100
c4.66699 36 15.334 69.333 32.001 100s36.667 57.167 60 79.5s49.166 39.666 77.499 51.999s56.833 18.5 85.5 18.5c17.333 0 33.166 -2 47.499 -6s27.166 -9.16699 38.499 -15.5s21.5 -13.5 30.5 -21.5s16.833 -16.333 23.5 -25c15.333 -20 27.333 -42.333 36 -67h5
c15.333 24.667 33.333 47 54 67c17.333 17.333 39 33 65 47s56 21 90 21zM417.003 230.001c4 31.333 3.00293 59.833 -2.99707 85.5s-15.833 47.834 -29.5 66.501s-30.334 33 -50.001 43s-40.834 15 -63.501 15s-45.167 -5 -67.5 -15s-43 -24.333 -62 -43
s-35.167 -40.834 -48.5 -66.501s-22 -54.167 -26 -85.5c-4.66699 -31.333 -3.83398 -59.833 2.49902 -85.5s16.166 -47.834 29.499 -66.501s29.833 -33 49.5 -43s40.834 -15 63.501 -15s45.167 5 67.5 15s43 24.333 62 43s35.167 40.834 48.5 66.501s22.333 54.167 27 85.5z
M661.006 440.001c-20 0 -40.499 -4.66797 -61.499 -14.001s-40.667 -22.5 -59 -39.5s-34.333 -37.167 -48 -60.5s-22.834 -48.666 -27.501 -75.999h340c2 26 -0.5 50.667 -7.5 74s-17.333 43.5 -31 60.5s-29.667 30.5 -48 40.5s-37.5 15 -57.5 15z" />
    <glyph glyph-name="Racute" unicode="&#x154;" horiz-adv-x="690" 
d="M125 250l-35 -250h-50l96 690h300c36 0 68 -5.66699 96 -17s51.167 -26.833 69.5 -46.5s31.333 -42.834 39 -69.501s9.5 -55.667 5.5 -87c-6.66699 -44 -20.167 -79.667 -40.5 -107s-41.5 -48.666 -63.5 -63.999c-26 -18 -54.667 -31 -86 -39l109 -260h-55l-105 250h-280
zM376 295c30 0 57.667 4.50098 83 13.501s47.5 21.167 66.5 36.5s34.667 33.666 47 54.999s20.166 44.666 23.499 69.999c3.33301 24.667 2 47.834 -4 69.501s-16.167 40.167 -30.5 55.5s-32.666 27.5 -54.999 36.5s-47.833 13.5 -76.5 13.5h-250l-49 -350h245zM505 865.001
l-175 -75l-11 30l172 90z" />
    <glyph glyph-name="racute" unicode="&#x155;" horiz-adv-x="300" 
d="M301 440l-9.99902 -0.000976562c-28 0 -53 -6.16699 -75 -18.5s-41 -26.166 -57 -41.499c-18.667 -17.333 -35.334 -37.333 -50.001 -60l-44 -320h-45l64 460h45l-10 -75h5c14 17.333 29.667 33 47 47c15.333 12 33.5 23 54.5 33s44.833 15 71.5 15h10zM327.001 659.999
l-175 -75l-11 30l172 90z" />
    <glyph glyph-name="Rcommaaccent" unicode="&#x156;" horiz-adv-x="690" 
d="M125 250l-35 -250h-50l96 690h300c36 0 68 -5.66699 96 -17s51.167 -26.833 69.5 -46.5s31.333 -42.834 39 -69.501s9.5 -55.667 5.5 -87c-6.66699 -44 -20.167 -79.667 -40.5 -107s-41.5 -48.666 -63.5 -63.999c-26 -18 -54.667 -31 -86 -39l109 -260h-55l-105 250h-280
zM376 295c30 0 57.667 4.50098 83 13.501s47.5 21.167 66.5 36.5s34.667 33.666 47 54.999s20.166 44.666 23.499 69.999c3.33301 24.667 2 47.834 -4 69.501s-16.167 40.167 -30.5 55.5s-32.666 27.5 -54.999 36.5s-47.833 13.5 -76.5 13.5h-250l-49 -350h245z
M250 -104.999c1.33301 10 5.83301 18.332 13.5 24.999s16.5 10 26.5 10s17.833 -3.33301 23.5 -10s7.83398 -15 6.50098 -25c-0.666992 -4 -2 -8 -4 -12s-4.33301 -7.66699 -7 -11c-2.66699 -4 -5.66699 -8 -9 -12l-56 -80h-19l40 85c-3.33301 2 -6.33301 4.33301 -9 7
c-2 2.66699 -3.83301 5.83398 -5.5 9.50098s-1.83398 8.16699 -0.500977 13.5z" />
    <glyph glyph-name="rcommaaccent" unicode="&#x157;" horiz-adv-x="310" 
d="M311 440l-9.99902 -0.000976562c-28 0 -53 -6.16699 -75 -18.5s-41 -26.166 -57 -41.499c-18.667 -17.333 -35.334 -37.333 -50.001 -60l-44 -320h-45l64 460h45l-10 -75h5c14 17.333 29.667 33 47 47c15.333 12 33.5 23 54.5 33s44.833 15 71.5 15h10zM1.00098 -130.001
c1.33301 10 5.83301 18.332 13.5 24.999s16.5 10 26.5 10s17.833 -3.33301 23.5 -10s7.83398 -15 6.50098 -25c-0.666992 -4 -2 -8 -4 -12s-4.33301 -7.66699 -7 -11c-2.66699 -4 -5.66699 -8 -9 -12l-56 -80h-19l40 85c-3.33301 2 -6.33301 4.33301 -9 7
c-2 2.66699 -3.83301 5.83398 -5.5 9.50098s-1.83398 8.16699 -0.500977 13.5z" />
    <glyph glyph-name="Rcaron" unicode="&#x158;" horiz-adv-x="690" 
d="M125 250l-35 -250h-50l96 690h300c36 0 68 -5.66699 96 -17s51.167 -26.833 69.5 -46.5s31.333 -42.834 39 -69.501s9.5 -55.667 5.5 -87c-6.66699 -44 -20.167 -79.667 -40.5 -107s-41.5 -48.666 -63.5 -63.999c-26 -18 -54.667 -31 -86 -39l109 -260h-55l-105 250h-280
zM376 295c30 0 57.667 4.50098 83 13.501s47.5 21.167 66.5 36.5s34.667 33.666 47 54.999s20.166 44.666 23.499 69.999c3.33301 24.667 2 47.834 -4 69.501s-16.167 40.167 -30.5 55.5s-32.666 27.5 -54.999 36.5s-47.833 13.5 -76.5 13.5h-250l-49 -350h245zM379 785.001
l-94 150h50l70 -110l100 110h50l-136 -150h-40z" />
    <glyph glyph-name="rcaron" unicode="&#x159;" horiz-adv-x="310" 
d="M306 440l-9.99902 -0.000976562c-28 0 -53 -6.16699 -75 -18.5s-41 -26.166 -57 -41.499c-18.667 -17.333 -35.334 -37.333 -50.001 -60l-44 -320h-45l64 460h45l-10 -75h5c14 17.333 29.667 33 47 47c15.333 12 33.5 23 54.5 33s44.833 15 71.5 15h10zM204.001 569.999
l-94 150h50l70 -110l100 110h50l-136 -150h-40z" />
    <glyph glyph-name="Sacute" unicode="&#x15a;" horiz-adv-x="620" 
d="M494 175c3.33301 25.333 0.00390625 46.499 -9.99609 63.499s-24.5 31.333 -43.5 43s-41.167 21.667 -66.5 30l-77.5 24.5c-26.333 8 -52 16.667 -77 26s-46.833 21.333 -65.5 36s-32.834 32.5 -42.501 53.5s-12.167 47.167 -7.5 78.5c3.33301 24 12.333 47.333 27 70
s33.5 42.834 56.5 60.501s49.667 32 80 43s63.166 16.5 98.499 16.5c36 0 67.5 -4.66699 94.5 -14s49.833 -22 68.5 -38s33.5 -34.5 44.5 -55.5s18.5 -43.5 22.5 -67.5l-51 -10c-4.66699 20 -11.667 38.5 -21 55.5s-21.333 31.833 -36 44.5s-32.667 22.5 -54 29.5
s-46.333 10.5 -75 10.5c-27.333 0 -53 -4.33301 -77 -13s-45 -19.834 -63 -33.501s-32.667 -29.167 -44 -46.5s-18.333 -34.666 -21 -51.999c-3.33301 -25.333 0.166992 -46.166 10.5 -62.499s25 -30.166 44 -41.499s41 -21 66 -29l77.5 -24
c26.667 -8 52.5 -16.833 77.5 -26.5s46.667 -21.834 65 -36.501s32.333 -32.834 42 -54.501s12.167 -48.5 7.5 -80.5c-4 -27.333 -13.5 -53.5 -28.5 -78.5s-34.667 -46.833 -59 -65.5s-53.166 -33.5 -86.499 -44.5s-70 -16.5 -110 -16.5c-38.667 0 -72.5 5 -101.5 15
s-53.5 23.667 -73.5 41s-35.833 38 -47.5 62s-19.834 49.667 -24.501 77l51 10c5.33301 -24 13.166 -45.833 23.499 -65.5s23.5 -36.5 39.5 -50.5s35.5 -24.833 58.5 -32.5s50.167 -11.5 81.5 -11.5s60.166 4.5 86.499 13.5s49.5 21 69.5 36s36.167 32.167 48.5 51.5
s19.833 39 22.5 59zM493.004 884.999l-175 -75l-11 30l172 90z" />
    <glyph glyph-name="sacute" unicode="&#x15b;" horiz-adv-x="460" 
d="M64 350c2.66699 17.333 8.83203 33.835 18.499 49.502s22.667 29.5 39 41.5s35.833 21.5 58.5 28.5s48.334 10.5 77.001 10.5c24 0 45.333 -3.66699 64 -11s34.667 -16.666 48 -27.999s24 -23.666 32 -36.999s13 -26.333 15 -39l-47 -10c-2 10 -6 20 -12 30
s-14 19.167 -24 27.5s-21.833 15 -35.5 20s-29.167 7.5 -46.5 7.5c-21.333 0 -40.5 -2.5 -57.5 -7.5s-31.5 -11.833 -43.5 -20.5s-21.5 -18.334 -28.5 -29.001s-11.167 -21.667 -12.5 -33c-2.66699 -16 -0.166992 -29.333 7.5 -40s18.167 -19.5 31.5 -26.5
s29 -12.833 47 -17.5l55 -14c18.667 -4.66699 36.834 -10.167 54.501 -16.5s33 -14.333 46 -24s23 -21.834 30 -36.501s8.83301 -33 5.5 -55c-2.66699 -18.667 -9.16699 -36.5 -19.5 -53.5s-24.333 -31.833 -42 -44.5s-38.834 -22.834 -63.501 -30.501
s-52.667 -11.5 -84 -11.5c-25.333 0 -48.333 4 -69 12s-38.834 18.333 -54.501 31s-28.5 27.167 -38.5 43.5s-16.333 32.5 -19 48.5l46 10c2.66699 -14 7.5 -27.333 14.5 -40s16.333 -23.834 28 -33.501s25.5 -17.334 41.5 -23.001s34.667 -8.5 56 -8.5
c24 0 45.333 2.83301 64 8.5s34.834 13.167 48.501 22.5s24.334 20 32.001 32s12.5 24.333 14.5 37c3.33301 21.333 -1.83398 38 -15.501 50s-31.5 21.5 -53.5 28.5s-46 13.5 -72 19.5s-49.667 13.833 -71 23.5s-38.5 22.834 -51.5 39.501s-17.5 39.667 -13.5 69z
M374.998 645.002l-175 -75l-11 30l172 90z" />
    <glyph glyph-name="Scedilla" unicode="&#x15e;" horiz-adv-x="620" 
d="M495 180c3.33301 24.667 -0.164062 45.332 -10.4971 61.999s-25 30.667 -44 42s-41.167 21 -66.5 29l-77.5 23.5c-26.333 7.66699 -52 16.167 -77 25.5s-46.833 21.333 -65.5 36s-32.834 32.5 -42.501 53.5s-12.167 47.167 -7.5 78.5c3.33301 24 12.333 47.333 27 70
s33.5 42.834 56.5 60.501s49.667 32 80 43s63.166 16.5 98.499 16.5c36 0 67.5 -4.66699 94.5 -14s49.833 -22 68.5 -38s33.5 -34.5 44.5 -55.5s18.5 -43.5 22.5 -67.5l-51 -10c-4.66699 20 -11.667 38.5 -21 55.5s-21.333 31.833 -36 44.5s-32.667 22.5 -54 29.5
s-46.333 10.5 -75 10.5c-27.333 0 -53 -4.33301 -77 -13s-45 -19.834 -63 -33.501s-32.667 -29.167 -44 -46.5s-18.333 -34.666 -21 -51.999c-3.33301 -25.333 0.166992 -46.166 10.5 -62.499s25 -30.166 44 -41.499s41.167 -21 66.5 -29l77.5 -23.5
c26.333 -7.66699 52 -16.167 77 -25.5s46.833 -21.333 65.5 -36s32.834 -32.5 42.501 -53.5s12.167 -47.167 7.5 -78.5c-4 -26 -13 -50.833 -27 -74.5s-32.167 -45 -54.5 -64s-48.333 -34.833 -78 -47.5s-61.834 -20.334 -96.501 -23.001l-25 -46c14 -2 26 -6.66699 36 -14
c8.66699 -6 16 -14.5 22 -25.5s7.66699 -26.167 5 -45.5c-2 -12.667 -6.16699 -24.5 -12.5 -35.5s-14.166 -20.5 -23.499 -28.5s-20.166 -14.333 -32.499 -19s-25.5 -7 -39.5 -7c-12.667 0 -23.5 1.66699 -32.5 5s-16.167 7.33301 -21.5 12
c-6.66699 4.66699 -12 10.334 -16 17.001l29 27c3.33301 -4.66699 7.33301 -8.33398 12 -11.001c4 -2.66699 9 -5 15 -7s12.667 -3 20 -3c15.333 0 28.166 4.5 38.499 13.5s16.5 21.167 18.5 36.5s-1.33301 27.5 -10 36.5s-23 13.5 -43 13.5h-20l44 80
c-37.333 0.666992 -70 6.16699 -98 16.5s-51.833 24.166 -71.5 41.499s-35.167 37.666 -46.5 60.999s-19.333 48.666 -24 75.999l51 10c5.33301 -24 13.166 -45.833 23.499 -65.5s23.5 -36.5 39.5 -50.5s35.5 -24.833 58.5 -32.5s50.167 -11.5 81.5 -11.5
c30 0 58.167 4.83301 84.5 14.5s49.666 22.334 69.999 38.001s37 33.334 50 53.001s20.833 39.5 23.5 59.5z" />
    <glyph glyph-name="scedilla" unicode="&#x15f;" horiz-adv-x="460" 
d="M64 350c2.66699 17.333 8.83008 33.8389 18.4971 49.5059s22.667 29.5 39 41.5s35.833 21.5 58.5 28.5s48.334 10.5 77.001 10.5c24 0 45.167 -3.33301 63.5 -10s34.166 -15.334 47.499 -26.001s24 -22.5 32 -35.5s13.667 -25.833 17 -38.5l-47 -10
c-3.33301 10 -8.16602 19.833 -14.499 29.5s-14.333 18.167 -24 25.5s-21.167 13.333 -34.5 18s-28.666 7 -45.999 7c-21.333 0 -40.5 -2.5 -57.5 -7.5s-31.5 -11.833 -43.5 -20.5s-21.5 -18.334 -28.5 -29.001s-11.167 -21.667 -12.5 -33
c-2.66699 -16 -0.166992 -29.333 7.5 -40s18.167 -19.5 31.5 -26.5s29 -12.833 47 -17.5l55 -14c18.667 -4.66699 36.834 -10.167 54.501 -16.5s33 -14.333 46 -24s23 -21.834 30 -36.501s8.83301 -33 5.5 -55c-5.33301 -36 -24.166 -67.333 -56.499 -94
s-76.833 -41.667 -133.5 -45l-26 -46c14 -2 26 -6.66699 36 -14c8.66699 -6 16 -14.5 22 -25.5s7.66699 -26.167 5 -45.5c-3.33301 -25.333 -15 -46.666 -35 -63.999s-44 -26 -72 -26c-12.667 0 -23.5 1.66699 -32.5 5s-16.167 7.33301 -21.5 12
c-6.66699 4.66699 -12 10.334 -16 17.001l28 27c3.33301 -4.66699 7.33301 -8.33398 12 -11.001c4 -2.66699 9 -5 15 -7s12.667 -3 20 -3c15.333 0 28.166 4.5 38.499 13.5s16.5 21.167 18.5 36.5c2.66699 15.333 -0.5 27.5 -9.5 36.5s-23.5 13.5 -43.5 13.5h-20l46 81
c-23.333 2 -44.5 7.16699 -63.5 15.5s-35.667 18.666 -50 30.999s-25.833 26.166 -34.5 41.499s-14.334 30.666 -17.001 45.999l46 10c2.66699 -14 7.5 -27.333 14.5 -40s16.333 -23.834 28 -33.501s25.5 -17.334 41.5 -23.001s34.667 -8.5 56 -8.5
c24 0 45.333 2.83301 64 8.5s34.834 13.167 48.501 22.5s24.334 20 32.001 32s12.5 24.333 14.5 37c3.33301 21.333 -1.83398 38 -15.501 50s-31.5 21.5 -53.5 28.5s-46 13.5 -72 19.5s-49.667 13.833 -71 23.5s-38.5 22.834 -51.5 39.501s-17.5 39.667 -13.5 69z" />
    <glyph glyph-name="Scaron" unicode="&#x160;" horiz-adv-x="620" 
d="M494 175c3.33301 25.333 0.00390625 46.499 -9.99609 63.499s-24.5 31.333 -43.5 43s-41.167 21.667 -66.5 30l-77.5 24.5c-26.333 8 -52 16.667 -77 26s-46.833 21.333 -65.5 36s-32.834 32.5 -42.501 53.5s-12.167 47.167 -7.5 78.5c3.33301 24 12.333 47.333 27 70
s33.5 42.834 56.5 60.501s49.667 32 80 43s63.166 16.5 98.499 16.5c36 0 67.5 -4.66699 94.5 -14s49.833 -22 68.5 -38s33.5 -34.5 44.5 -55.5s18.5 -43.5 22.5 -67.5l-51 -10c-4.66699 20 -11.667 38.5 -21 55.5s-21.333 31.833 -36 44.5s-32.667 22.5 -54 29.5
s-46.333 10.5 -75 10.5c-27.333 0 -53 -4.33301 -77 -13s-45 -19.834 -63 -33.501s-32.667 -29.167 -44 -46.5s-18.333 -34.666 -21 -51.999c-3.33301 -25.333 0.166992 -46.166 10.5 -62.499s25 -30.166 44 -41.499s41 -21 66 -29l77.5 -24
c26.667 -8 52.5 -16.833 77.5 -26.5s46.667 -21.834 65 -36.501s32.333 -32.834 42 -54.501s12.167 -48.5 7.5 -80.5c-4 -27.333 -13.5 -53.5 -28.5 -78.5s-34.667 -46.833 -59 -65.5s-53.166 -33.5 -86.499 -44.5s-70 -16.5 -110 -16.5c-38.667 0 -72.5 5 -101.5 15
s-53.5 23.667 -73.5 41s-35.833 38 -47.5 62s-19.834 49.667 -24.501 77l51 10c5.33301 -24 13.166 -45.833 23.499 -65.5s23.5 -36.5 39.5 -50.5s35.5 -24.833 58.5 -32.5s50.167 -11.5 81.5 -11.5s60.166 4.5 86.499 13.5s49.5 21 69.5 36s36.167 32.167 48.5 51.5
s19.833 39 22.5 59zM361.004 799.999l-94 150h50l70 -110l100 110h50l-136 -150h-40z" />
    <glyph glyph-name="scaron" unicode="&#x161;" horiz-adv-x="460" 
d="M64 350c2.66699 17.333 8.83203 33.835 18.499 49.502s22.667 29.5 39 41.5s35.833 21.5 58.5 28.5s48.334 10.5 77.001 10.5c24 0 45.333 -3.66699 64 -11s34.667 -16.666 48 -27.999s24 -23.666 32 -36.999s13 -26.333 15 -39l-47 -10c-2 10 -6 20 -12 30
s-14 19.167 -24 27.5s-21.833 15 -35.5 20s-29.167 7.5 -46.5 7.5c-21.333 0 -40.5 -2.5 -57.5 -7.5s-31.5 -11.833 -43.5 -20.5s-21.5 -18.334 -28.5 -29.001s-11.167 -21.667 -12.5 -33c-2.66699 -16 -0.166992 -29.333 7.5 -40s18.167 -19.5 31.5 -26.5
s29 -12.833 47 -17.5l55 -14c18.667 -4.66699 36.834 -10.167 54.501 -16.5s33 -14.333 46 -24s23 -21.834 30 -36.501s8.83301 -33 5.5 -55c-2.66699 -18.667 -9.16699 -36.5 -19.5 -53.5s-24.333 -31.833 -42 -44.5s-38.834 -22.834 -63.501 -30.501
s-52.667 -11.5 -84 -11.5c-25.333 0 -48.333 4 -69 12s-38.834 18.333 -54.501 31s-28.5 27.167 -38.5 43.5s-16.333 32.5 -19 48.5l46 10c2.66699 -14 7.5 -27.333 14.5 -40s16.333 -23.834 28 -33.501s25.5 -17.334 41.5 -23.001s34.667 -8.5 56 -8.5
c24 0 45.333 2.83301 64 8.5s34.834 13.167 48.501 22.5s24.334 20 32.001 32s12.5 24.333 14.5 37c3.33301 21.333 -1.83398 38 -15.501 50s-31.5 21.5 -53.5 28.5s-46 13.5 -72 19.5s-49.667 13.833 -71 23.5s-38.5 22.834 -51.5 39.501s-17.5 39.667 -13.5 69z
M247.998 565.002l-94 150h50l70 -110l100 110h50l-136 -150h-40z" />
    <glyph glyph-name="Tcommaaccent" unicode="&#x162;" horiz-adv-x="590" 
d="M60 645l6 45h550l-6 -45h-250l-90 -645h-50l90 645h-250zM181 -130c1.33301 10 5.83301 18.332 13.5 24.999s16.5 10 26.5 10s17.833 -3.33301 23.5 -10s7.83398 -15 6.50098 -25c-0.666992 -4 -2 -8 -4 -12s-4.33301 -7.66699 -7 -11c-2.66699 -4 -5.66699 -8 -9 -12
l-56 -80h-19l40 85c-3.33301 2 -6.33301 4.33301 -9 7c-2 2.66699 -3.83301 5.83398 -5.5 9.50098s-1.83398 8.16699 -0.500977 13.5z" />
    <glyph glyph-name="tcommaaccent" unicode="&#x163;" horiz-adv-x="325" 
d="M34 460h74.998l18 130h45l-18 -130h130l-5 -40h-130l-43 -300c-4.66699 -32.667 -0.166992 -57.5 13.5 -74.5s34.5 -25.5 62.5 -25.5c8.66699 0 17 1 25 3s15.333 4.33301 22 7c7.33301 2.66699 14.333 6 21 10l5 -40c-6.66699 -4 -14 -7.33301 -22 -10
c-7.33301 -2.66699 -15.666 -5 -24.999 -7s-19.666 -3 -30.999 -3c-40 0 -70.833 12.667 -92.5 38s-29.5 59.333 -23.5 102l43 300h-75zM82.998 -150c1.33301 10 5.83301 18.332 13.5 24.999s16.5 10 26.5 10s17.833 -3.33301 23.5 -10s7.83398 -15 6.50098 -25
c-0.666992 -4 -2 -8 -4 -12s-4.33301 -7.66699 -7 -11c-2.66699 -4 -5.66699 -8 -9 -12l-56 -80h-19l40 85c-3.33301 2 -6.33301 4.33301 -9 7c-2 2.66699 -3.83301 5.83398 -5.5 9.50098s-1.83398 8.16699 -0.500977 13.5z" />
    <glyph glyph-name="Tcaron" unicode="&#x164;" horiz-adv-x="590" 
d="M60 645l6 45h550l-6 -45h-250l-90 -645h-50l90 645h-250zM325 790l-94 150h50l70 -110l100 110h50l-136 -150h-40z" />
    <glyph glyph-name="tcaron" unicode="&#x165;" horiz-adv-x="345" 
d="M34 460h74.998l18 130h45l-18 -130h130l-5 -40h-130l-43 -300c-4.66699 -32.667 -0.166992 -57.5 13.5 -74.5s34.5 -25.5 62.5 -25.5c8.66699 0 17 1 25 3s15.333 4.33301 22 7c7.33301 2.66699 14.333 6 21 10l5 -40c-6.66699 -4 -14 -7.33301 -22 -10
c-7.33301 -2.66699 -15.666 -5 -24.999 -7s-19.666 -3 -30.999 -3c-40 0 -70.833 12.667 -92.5 38s-29.5 59.333 -23.5 102l43 300h-75zM335.998 655c1.33301 10 5.83301 18.332 13.5 24.999s16.5 10 26.5 10s17.833 -3.33301 23.5 -10s7.83398 -15 6.50098 -25
c-0.666992 -4 -2 -8 -4 -12s-4.33301 -7.66699 -7 -11c-2.66699 -4 -5.66699 -8 -9 -12l-56 -80h-19l40 85c-3.33301 2 -6.33301 4.33301 -9 7c-2 2.66699 -3.83301 5.83398 -5.5 9.50098s-1.83398 8.16699 -0.500977 13.5z" />
    <glyph glyph-name="Umacron" unicode="&#x16a;" horiz-adv-x="710" 
d="M307 15c31.333 0 60.833 5.5 88.5 16.5s52.5 26.667 74.5 47s40.333 45 55 74s24.667 61.5 30 97.5l61 440h50l-61 -440c-6 -42.667 -18 -81.167 -36 -115.5s-40.5 -63.666 -67.5 -87.999s-57.667 -43.166 -92 -56.499s-70.833 -20 -109.5 -20
s-73.334 6.66699 -104.001 20s-56 32.166 -76 56.499s-34 53.666 -42 87.999s-9 72.833 -3 115.5l61 440h50l-61 -440c-5.33301 -36 -4.66602 -68.5 2.00098 -97.5s18.167 -53.667 34.5 -74s36.833 -36 61.5 -47s52.667 -16.5 84 -16.5zM309 855h240l-6 -45h-240z" />
    <glyph glyph-name="umacron" unicode="&#x16b;" 
d="M84 460l44.9961 0.000976562l-38 -270c-7.33301 -55.333 0.333984 -97.5 23.001 -126.5s55.334 -43.5 98.001 -43.5c28 0 53 6.16699 75 18.5s41 26.166 57 41.499c18.667 17.333 35.334 37.333 50.001 60l45 320h45l-64 -460h-45l10 75h-5c-14 -18 -29.667 -34 -47 -48
c-15.333 -12 -33.666 -22.833 -54.999 -32.5s-45 -14.5 -71 -14.5c-27.333 0 -52 4.83301 -74 14.5s-40.167 23.5 -54.5 41.5s-24.5 40 -30.5 66s-6.66699 55.333 -2 88zM192.996 636.001h240l-6 -45h-240z" />
    <glyph glyph-name="Uring" unicode="&#x16e;" horiz-adv-x="710" 
d="M307 15c31.333 0 60.833 5.5 88.5 16.5s52.5 26.667 74.5 47s40.333 45 55 74s24.667 61.5 30 97.5l61 440h50l-61 -440c-6 -42.667 -18 -81.167 -36 -115.5s-40.5 -63.666 -67.5 -87.999s-57.667 -43.166 -92 -56.499s-70.833 -20 -109.5 -20
s-73.334 6.66699 -104.001 20s-56 32.166 -76 56.499s-34 53.666 -42 87.999s-9 72.833 -3 115.5l61 440h50l-61 -440c-5.33301 -36 -4.66602 -68.5 2.00098 -97.5s18.167 -53.667 34.5 -74s36.833 -36 61.5 -47s52.667 -16.5 84 -16.5zM530 865
c-2 -14 -6.33105 -27 -12.998 -39s-15.334 -22.5 -26.001 -31.5s-22.334 -16.167 -35.001 -21.5s-26 -8 -40 -8c-28 0 -50.167 9.66699 -66.5 29s-22.833 43 -19.5 71c2 14 6.5 27 13.5 39s15.667 22.5 26 31.5s21.833 16.167 34.5 21.5s26 8 40 8
c28 0 50.333 -9.66699 67 -29s23 -43 19 -71zM495.002 865c2.66699 17.333 -1.5 32.5 -12.5 45.5s-25.167 19.5 -42.5 19.5s-33.5 -6.5 -48.5 -19.5s-23.833 -28.167 -26.5 -45.5c-2 -17.333 2.5 -32.5 13.5 -45.5s25.167 -19.5 42.5 -19.5s33.5 6.5 48.5 19.5
s23.5 28.167 25.5 45.5z" />
    <glyph glyph-name="uring" unicode="&#x16f;" 
d="M84 460l44.9961 0.000976562l-38 -270c-7.33301 -55.333 0.333984 -97.5 23.001 -126.5s55.334 -43.5 98.001 -43.5c28 0 53 6.16699 75 18.5s41 26.166 57 41.499c18.667 17.333 35.334 37.333 50.001 60l45 320h45l-64 -460h-45l10 75h-5c-14 -18 -29.667 -34 -47 -48
c-15.333 -12 -33.666 -22.833 -54.999 -32.5s-45 -14.5 -71 -14.5c-27.333 0 -52 4.83301 -74 14.5s-40.167 23.5 -54.5 41.5s-24.5 40 -30.5 66s-6.66699 55.333 -2 88zM410.996 625.001c-2 -14 -6.33105 -27 -12.998 -39s-15.334 -22.5 -26.001 -31.5
s-22.334 -16.167 -35.001 -21.5s-26 -8 -40 -8c-28 0 -50.167 9.66699 -66.5 29s-22.833 43 -19.5 71c2 14 6.5 27 13.5 39s15.667 22.5 26 31.5s21.833 16.167 34.5 21.5s26 8 40 8c28 0 50.333 -9.66699 67 -29s23 -43 19 -71zM375.998 625.001
c2.66699 17.333 -1.5 32.5 -12.5 45.5s-25.167 19.5 -42.5 19.5s-33.5 -6.5 -48.5 -19.5s-23.833 -28.167 -26.5 -45.5c-2 -17.333 2.5 -32.5 13.5 -45.5s25.167 -19.5 42.5 -19.5s33.5 6.5 48.5 19.5s23.5 28.167 25.5 45.5z" />
    <glyph glyph-name="Uhungarumlaut" unicode="&#x170;" horiz-adv-x="710" 
d="M307 15c31.333 0 60.833 5.5 88.5 16.5s52.5 26.667 74.5 47s40.333 45 55 74s24.667 61.5 30 97.5l61 440h50l-61 -440c-6 -42.667 -18 -81.167 -36 -115.5s-40.5 -63.666 -67.5 -87.999s-57.667 -43.166 -92 -56.499s-70.833 -20 -109.5 -20
s-73.334 6.66699 -104.001 20s-56 32.166 -76 56.499s-34 53.666 -42 87.999s-9 72.833 -3 115.5l61 440h50l-61 -440c-5.33301 -36 -4.66602 -68.5 2.00098 -97.5s18.167 -53.667 34.5 -74s36.833 -36 61.5 -47s52.667 -16.5 84 -16.5zM401 940h50l-106 -150h-35zM541 940
h50l-106 -150h-35z" />
    <glyph glyph-name="uhungarumlaut" unicode="&#x171;" 
d="M84 460l44.9961 0.000976562l-38 -270c-7.33301 -55.333 0.333984 -97.5 23.001 -126.5s55.334 -43.5 98.001 -43.5c28 0 53 6.16699 75 18.5s41 26.166 57 41.499c18.667 17.333 35.334 37.333 50.001 60l45 320h45l-64 -460h-45l10 75h-5c-14 -18 -29.667 -34 -47 -48
c-15.333 -12 -33.666 -22.833 -54.999 -32.5s-45 -14.5 -71 -14.5c-27.333 0 -52 4.83301 -74 14.5s-40.167 23.5 -54.5 41.5s-24.5 40 -30.5 66s-6.66699 55.333 -2 88zM294.996 720.001h50l-106 -150h-35zM434.996 720.001h50l-106 -150h-35z" />
    <glyph glyph-name="Uogonek" unicode="&#x172;" horiz-adv-x="710" 
d="M307 -230c-30 0 -52.8301 8.6709 -68.4971 26.0039s-21.834 38.666 -18.501 63.999c2 13.333 6 25.666 12 36.999s13.167 21.5 21.5 30.5s17.333 17 27 24s19.167 13.167 28.5 18.5h-9c-38.667 0 -73.334 6.66699 -104.001 20s-56 32.166 -76 56.499
s-34 53.666 -42 87.999s-9 72.833 -3 115.5l61 440h50l-61 -440c-5.33301 -36 -4.66602 -68.5 2.00098 -97.5s18.167 -53.667 34.5 -74s36.833 -36 61.5 -47s52.667 -16.5 84 -16.5s60.833 5.5 88.5 16.5s52.5 26.667 74.5 47s40.333 45 55 74s24.667 61.5 30 97.5l61 440
h50l-61 -440c-5.33301 -35.333 -14.5 -68 -27.5 -98s-29.5 -56.5 -49.5 -79.5s-42.833 -42.333 -68.5 -58s-53.5 -27.167 -83.5 -34.5c-9.33301 -4.66699 -19.833 -10.667 -31.5 -18s-23 -15.833 -34 -25.5s-20.667 -20.5 -29 -32.5s-13.5 -25 -15.5 -39
c-2.66699 -15.333 0.666016 -28.333 9.99902 -39s21.666 -16 36.999 -16c6 0 12 0.666992 18 2s11.667 3 17 5c6 2.66699 11.667 5.33398 17 8.00098l9 -40c-6 -2.66699 -12.667 -5.33398 -20 -8.00098c-6 -2 -13.167 -3.66699 -21.5 -5s-16.833 -2 -25.5 -2z" />
    <glyph glyph-name="uogonek" unicode="&#x173;" 
d="M84 460l44.9961 0.000976562l-38 -270c-7.33301 -55.333 0.333984 -97.5 23.001 -126.5s55.334 -43.5 98.001 -43.5c28 0 53 6.16699 75 18.5s41 26.166 57 41.499c18.667 17.333 35.334 37.333 50.001 60l45 320h45l-64 -460c-23.333 -10 -44.333 -21.333 -63 -34
c-16 -11.333 -31 -24.666 -45 -39.999s-22.333 -32.333 -25 -51c-2 -15.333 1.5 -28.333 10.5 -39s21.167 -16 36.5 -16c6 0 12 0.666992 18 2s11.667 3 17 5c6 2.66699 11.667 5.33398 17 8.00098l10 -40c-6 -2.66699 -12.667 -5.33398 -20 -8.00098
c-6 -2 -13.167 -3.66699 -21.5 -5s-16.833 -2 -25.5 -2c-30 0 -53 8.66699 -69 26s-22.333 38.666 -19 63.999c3.33301 22.667 12.166 42.167 26.499 58.5s29.5 29.833 45.5 40.5c18.667 12 39.334 22.333 62.001 31l10 75h-5c-14 -18 -29.667 -34 -47 -48
c-15.333 -12 -33.666 -22.833 -54.999 -32.5s-45 -14.5 -71 -14.5c-27.333 0 -52 4.83301 -74 14.5s-40.167 23.5 -54.5 41.5s-24.5 40 -30.5 66s-6.66699 55.333 -2 88z" />
    <glyph glyph-name="Ydieresis" unicode="&#x178;" horiz-adv-x="630" 
d="M56 690h55l193 -410l307 410h55l-344 -460l-32 -230h-50l32 230zM336 832c-1.33301 -8.66699 -5.66992 -16.167 -13.0029 -22.5s-15.333 -9.5 -24 -9.5c-9.33301 0 -16.666 3.16699 -21.999 9.5s-7.33301 13.833 -6 22.5c1.33301 9.33301 5.5 17.166 12.5 23.499
s15.167 9.5 24.5 9.5c8.66699 0 15.834 -3.16699 21.501 -9.5s7.83398 -14.166 6.50098 -23.499zM500.996 832c-1.33301 -8.66699 -5.66992 -16.167 -13.0029 -22.5s-15.333 -9.5 -24 -9.5c-9.33301 0 -16.666 3.16699 -21.999 9.5s-7.33301 13.833 -6 22.5
c1.33301 9.33301 5.5 17.166 12.5 23.499s15.167 9.5 24.5 9.5c8.66699 0 15.834 -3.16699 21.501 -9.5s7.83398 -14.166 6.50098 -23.499z" />
    <glyph glyph-name="Zacute" unicode="&#x179;" horiz-adv-x="600" 
d="M-3 50l542 590l1 5h-440l6 45h500l-7 -50l-542 -590l-1 -5h460l-6 -45h-520zM509 890l-175 -75l-11 30l172 90z" />
    <glyph glyph-name="zacute" unicode="&#x17a;" horiz-adv-x="440" 
d="M46 45l-1 -5h320l-5 -40h-380l6 45l362 370l1 5h-300l5 40h360l-6 -45zM370 650l-175 -75l-11 30l172 90z" />
    <glyph glyph-name="Zdotaccent" unicode="&#x17b;" horiz-adv-x="600" 
d="M-3 50l542 590l1 5h-440l6 45h500l-7 -50l-542 -590l-1 -5h460l-6 -45h-520zM413 847c-1.33301 -8.66699 -5.66992 -16.167 -13.0029 -22.5s-15.333 -9.5 -24 -9.5c-9.33301 0 -16.666 3.16699 -21.999 9.5s-7.33301 13.833 -6 22.5
c1.33301 9.33301 5.5 17.166 12.5 23.499s15.167 9.5 24.5 9.5c8.66699 0 15.834 -3.16699 21.501 -9.5s7.83398 -14.166 6.50098 -23.499z" />
    <glyph glyph-name="zdotaccent" unicode="&#x17c;" horiz-adv-x="440" 
d="M46 45l-1 -5h320l-5 -40h-380l6 45l362 370l1 5h-300l5 40h360l-6 -45zM285 613c-1.33301 -8.66699 -5.66992 -16.167 -13.0029 -22.5s-15.333 -9.5 -24 -9.5c-9.33301 0 -16.666 3.16699 -21.999 9.5s-7.33301 13.833 -6 22.5c1.33301 9.33301 5.5 17.166 12.5 23.499
s15.167 9.5 24.5 9.5c8.66699 0 15.834 -3.16699 21.501 -9.5s7.83398 -14.166 6.50098 -23.499z" />
    <glyph glyph-name="Zcaron" unicode="&#x17d;" horiz-adv-x="600" 
d="M-3 50l542 590l1 5h-440l6 45h500l-7 -50l-542 -590l-1 -5h460l-6 -45h-520zM356 800l-94 150h50l70 -110l100 110h50l-136 -150h-40z" />
    <glyph glyph-name="zcaron" unicode="&#x17e;" horiz-adv-x="440" 
d="M46 45l-1 -5h320l-5 -40h-380l6 45l362 370l1 5h-300l5 40h360l-6 -45zM234 575l-94 150h50l70 -110l100 110h50l-136 -150h-40z" />
    <glyph glyph-name="florin" unicode="&#x192;" horiz-adv-x="295" 
d="M44 460h75.002l14 100c6 42.667 23.333 76.667 52 102s63 38 103 38c11.333 0 21.5 -1 30.5 -3s16.5 -4.33301 22.5 -7c7.33301 -2.66699 13.666 -6 18.999 -10l-16 -40c-5.33301 4 -11.333 7.33301 -18 10c-5.33301 2.66699 -11.833 5 -19.5 7s-15.834 3 -24.501 3
c-28 0 -51.167 -8.5 -69.5 -25.5s-29.833 -41.833 -34.5 -74.5l-14 -100h130l-5 -40h-130l-69 -490c-6 -42.667 -23.167 -76.667 -51.5 -102s-62.5 -38 -102.5 -38c-11.333 0 -21.5 1 -30.5 3s-16.5 4.33301 -22.5 7c-7.33301 2.66699 -13.666 6 -18.999 10l15 40
c5.33301 -4 11.333 -7.33301 18 -10c5.33301 -2.66699 11.833 -5 19.5 -7s16.167 -3 25.5 -3c27.333 0 50.166 8.5 68.499 25.5s29.833 41.833 34.5 74.5l69 490h-75z" />
    <glyph glyph-name="Scommaaccent" unicode="&#x218;" horiz-adv-x="620" 
d="M494 175c3.33301 25.333 0.00390625 46.499 -9.99609 63.499s-24.5 31.333 -43.5 43s-41.167 21.667 -66.5 30l-77.5 24.5c-26.333 8 -52 16.667 -77 26s-46.833 21.333 -65.5 36s-32.834 32.5 -42.501 53.5s-12.167 47.167 -7.5 78.5c3.33301 24 12.333 47.333 27 70
s33.5 42.834 56.5 60.501s49.667 32 80 43s63.166 16.5 98.499 16.5c36 0 67.5 -4.66699 94.5 -14s49.833 -22 68.5 -38s33.5 -34.5 44.5 -55.5s18.5 -43.5 22.5 -67.5l-51 -10c-4.66699 20 -11.667 38.5 -21 55.5s-21.333 31.833 -36 44.5s-32.667 22.5 -54 29.5
s-46.333 10.5 -75 10.5c-27.333 0 -53 -4.33301 -77 -13s-45 -19.834 -63 -33.501s-32.667 -29.167 -44 -46.5s-18.333 -34.666 -21 -51.999c-3.33301 -25.333 0.166992 -46.166 10.5 -62.499s25 -30.166 44 -41.499s41 -21 66 -29l77.5 -24
c26.667 -8 52.5 -16.833 77.5 -26.5s46.667 -21.834 65 -36.501s32.333 -32.834 42 -54.501s12.167 -48.5 7.5 -80.5c-4 -27.333 -13.5 -53.5 -28.5 -78.5s-34.667 -46.833 -59 -65.5s-53.166 -33.5 -86.499 -44.5s-70 -16.5 -110 -16.5c-38.667 0 -72.5 5 -101.5 15
s-53.5 23.667 -73.5 41s-35.833 38 -47.5 62s-19.834 49.667 -24.501 77l51 10c5.33301 -24 13.166 -45.833 23.499 -65.5s23.5 -36.5 39.5 -50.5s35.5 -24.833 58.5 -32.5s50.167 -11.5 81.5 -11.5s60.166 4.5 86.499 13.5s49.5 21 69.5 36s36.167 32.167 48.5 51.5
s19.833 39 22.5 59zM224.004 -145.001c1.33301 10 5.83301 18.332 13.5 24.999s16.5 10 26.5 10s17.833 -3.33301 23.5 -10s7.83398 -15 6.50098 -25c-0.666992 -4 -2 -8 -4 -12s-4.33301 -7.66699 -7 -11c-2.66699 -4 -5.66699 -8 -9 -12l-56 -80h-19l40 85
c-3.33301 2 -6.33301 4.33301 -9 7c-2 2.66699 -3.83301 5.83398 -5.5 9.50098s-1.83398 8.16699 -0.500977 13.5z" />
    <glyph glyph-name="scommaaccent" unicode="&#x219;" horiz-adv-x="460" 
d="M64 350c2.66699 17.333 8.83203 33.835 18.499 49.502s22.667 29.5 39 41.5s35.833 21.5 58.5 28.5s48.334 10.5 77.001 10.5c24 0 45.333 -3.66699 64 -11s34.667 -16.666 48 -27.999s24 -23.666 32 -36.999s13 -26.333 15 -39l-47 -10c-2 10 -6 20 -12 30
s-14 19.167 -24 27.5s-21.833 15 -35.5 20s-29.167 7.5 -46.5 7.5c-21.333 0 -40.5 -2.5 -57.5 -7.5s-31.5 -11.833 -43.5 -20.5s-21.5 -18.334 -28.5 -29.001s-11.167 -21.667 -12.5 -33c-2.66699 -16 -0.166992 -29.333 7.5 -40s18.167 -19.5 31.5 -26.5
s29 -12.833 47 -17.5l55 -14c18.667 -4.66699 36.834 -10.167 54.501 -16.5s33 -14.333 46 -24s23 -21.834 30 -36.501s8.83301 -33 5.5 -55c-2.66699 -18.667 -9.16699 -36.5 -19.5 -53.5s-24.333 -31.833 -42 -44.5s-38.834 -22.834 -63.501 -30.501
s-52.667 -11.5 -84 -11.5c-25.333 0 -48.333 4 -69 12s-38.834 18.333 -54.501 31s-28.5 27.167 -38.5 43.5s-16.333 32.5 -19 48.5l46 10c2.66699 -14 7.5 -27.333 14.5 -40s16.333 -23.834 28 -33.501s25.5 -17.334 41.5 -23.001s34.667 -8.5 56 -8.5
c24 0 45.333 2.83301 64 8.5s34.834 13.167 48.501 22.5s24.334 20 32.001 32s12.5 24.333 14.5 37c3.33301 21.333 -1.83398 38 -15.501 50s-31.5 21.5 -53.5 28.5s-46 13.5 -72 19.5s-49.667 13.833 -71 23.5s-38.5 22.834 -51.5 39.501s-17.5 39.667 -13.5 69z
M143.998 -144.998c1.33301 10 5.83301 18.332 13.5 24.999s16.5 10 26.5 10s17.833 -3.33301 23.5 -10s7.83398 -15 6.50098 -25c-0.666992 -4 -2 -8 -4 -12s-4.33301 -7.66699 -7 -11c-2.66699 -4 -5.66699 -8 -9 -12l-56 -80h-19l40 85c-3.33301 2 -6.33301 4.33301 -9 7
c-2 2.66699 -3.83301 5.83398 -5.5 9.50098s-1.83398 8.16699 -0.500977 13.5z" />
    <glyph glyph-name="afii57929" unicode="&#x2bc;" horiz-adv-x="140" 
d="M82 655c1.33301 10 5.66797 18.332 13.001 24.999s16 10 26 10s18 -3.33301 24 -10s8.33301 -15 7 -25c-2 -8 -5.66699 -15.667 -11 -23c-2.66699 -4 -5.66699 -8 -9 -12l-57 -80h-20l42 85c-3.33301 2 -6.33301 4.33301 -9 7c-2 2.66699 -3.83301 5.83398 -5.5 9.50098
s-1.83398 8.16699 -0.500977 13.5z" />
    <glyph glyph-name="circumflex" unicode="&#x2c6;" horiz-adv-x="330" 
d="M231 690l94 -150h-50l-69 110l-101 -110h-50l136 150h40z" />
    <glyph glyph-name="caron" unicode="&#x2c7;" horiz-adv-x="330" 
d="M170 540l-94 150h50l70 -110l100 110h50l-136 -150h-40z" />
    <glyph glyph-name="breve" unicode="&#x2d8;" horiz-adv-x="310" 
d="M190 605c25.333 0 46.8311 7.83301 64.498 23.5s28.167 36.167 31.5 61.5h40c-2 -17.333 -7.33301 -33.666 -16 -48.999s-19.334 -28.666 -32.001 -39.999s-27.167 -20.166 -43.5 -26.499s-33.166 -9.5 -50.499 -9.5s-33.166 3.16699 -47.499 9.5
s-26.333 15.166 -36 26.499s-16.667 24.666 -21 39.999s-5.5 31.666 -3.5 48.999h40c-3.33301 -25.333 1.83398 -45.833 15.501 -61.5s33.167 -23.5 58.5 -23.5z" />
    <glyph glyph-name="dotaccent" unicode="&#x2d9;" horiz-adv-x="125" 
d="M137 657c-1.33301 -8.66699 -5.66992 -16.167 -13.0029 -22.5s-15.333 -9.5 -24 -9.5c-9.33301 0 -16.666 3.16699 -21.999 9.5s-7.33301 13.833 -6 22.5c1.33301 9.33301 5.5 17.166 12.5 23.499s15.167 9.5 24.5 9.5c8.66699 0 15.834 -3.16699 21.501 -9.5
s7.83398 -14.166 6.50098 -23.499z" />
    <glyph glyph-name="ring" unicode="&#x2da;" horiz-adv-x="260" 
d="M262 590c-2 -14 -6.33105 -27 -12.998 -39s-15.334 -22.5 -26.001 -31.5s-22.334 -16.167 -35.001 -21.5s-26 -8 -40 -8c-28 0 -50.167 9.66699 -66.5 29s-22.833 43 -19.5 71c2 14 6.5 27 13.5 39s15.667 22.5 26 31.5s21.833 16.167 34.5 21.5s26 8 40 8
c28 0 50.333 -9.66699 67 -29s23 -43 19 -71zM227.002 590c2.66699 17.333 -1.5 32.5 -12.5 45.5s-25.167 19.5 -42.5 19.5s-33.5 -6.5 -48.5 -19.5s-23.833 -28.167 -26.5 -45.5c-2 -17.333 2.5 -32.5 13.5 -45.5s25.167 -19.5 42.5 -19.5s33.5 6.5 48.5 19.5
s23.5 28.167 25.5 45.5z" />
    <glyph glyph-name="ogonek" unicode="&#x2db;" horiz-adv-x="225" 
d="M49 -220c-30 0 -53 8.66699 -69 26s-22.333 38.666 -19 63.999c3.33301 22.667 12.166 42.167 26.499 58.5s29.5 29.833 45.5 40.5c18.667 12 39.334 22.333 62.001 31h45c-23.333 -10 -44.333 -21.333 -63 -34c-16 -11.333 -31 -24.666 -45 -39.999
s-22.333 -32.333 -25 -51c-2 -15.333 1.5 -28.333 10.5 -39s21.167 -16 36.5 -16c6 0 12 0.666992 18 2s11.667 3 17 5c6 2.66699 11.667 5.33398 17 8.00098l10 -40c-6 -2.66699 -12.667 -5.33398 -20 -8.00098c-6 -2 -13.167 -3.66699 -21.5 -5s-16.833 -2 -25.5 -2z" />
    <glyph glyph-name="tilde" unicode="&#x2dc;" horiz-adv-x="305" 
d="M236 580c-14 0 -25.167 3.33301 -33.5 10s-15.666 14.167 -21.999 22.5s-12.5 15.833 -18.5 22.5s-13.333 10 -22 10c-7.33301 0 -14.666 -3.33301 -21.999 -10s-11.666 -15 -12.999 -25l-3 -25h-40l3 25c3.33301 22.667 12.666 40.834 27.999 54.501s33 20.5 53 20.5
c14 0 25.167 -3.33301 33.5 -10s15.666 -14.167 21.999 -22.5s12.5 -15.833 18.5 -22.5s13.333 -10 22 -10c7.33301 0 14.666 3.33301 21.999 10s11.666 15 12.999 25l3 25h40l-3 -25c-3.33301 -22.667 -12.666 -40.834 -27.999 -54.501s-33 -20.5 -53 -20.5z" />
    <glyph glyph-name="hungarumlaut" unicode="&#x2dd;" horiz-adv-x="320" 
d="M146 690h50l-106 -150h-35zM286 690h50l-106 -150h-35z" />
    <glyph glyph-name="afii10023" unicode="&#x401;" horiz-adv-x="600" 
d="M526 45l-6 -45h-480l96 690h480l-6 -45h-430l-38 -275h340l-7 -45h-340l-39 -280h430zM354 842c-1.33301 -8.66699 -5.66992 -16.167 -13.0029 -22.5s-15.333 -9.5 -24 -9.5c-9.33301 0 -16.666 3.16699 -21.999 9.5s-7.33301 13.833 -6 22.5
c1.33301 9.33301 5.5 17.166 12.5 23.499s15.167 9.5 24.5 9.5c8.66699 0 15.834 -3.16699 21.501 -9.5s7.83398 -14.166 6.50098 -23.499zM518.996 842c-1.33301 -8.66699 -5.66992 -16.167 -13.0029 -22.5s-15.333 -9.5 -24 -9.5c-9.33301 0 -16.666 3.16699 -21.999 9.5
s-7.33301 13.833 -6 22.5c1.33301 9.33301 5.5 17.166 12.5 23.499s15.167 9.5 24.5 9.5c8.66699 0 15.834 -3.16699 21.501 -9.5s7.83398 -14.166 6.50098 -23.499z" />
    <glyph glyph-name="afii10051" unicode="&#x402;" horiz-adv-x="720" 
d="M586 185c4 27.333 2.99805 52.3311 -3.00195 74.998s-16.5 42.167 -31.5 58.5s-34.167 29 -57.5 38s-50.666 13.5 -81.999 13.5h-190l-52 -370h-50l90 645h-190l6 45h465l-6 -45h-225l-32 -230h190c38.667 0 72.667 -5.66699 102 -17s53.333 -27.166 72 -47.499
s31.834 -44.5 39.501 -72.5s9.16699 -59 4.5 -93l-19 -135c-6.66699 -45.333 -24.5 -80.833 -53.5 -106.5s-64.833 -38.5 -107.5 -38.5c-14 0 -27.333 2.33301 -40 7c-6.66699 2.66699 -12.667 5.33398 -18 8.00098l16 40c4 -2 8.33301 -3.66699 13 -5
c8.66699 -3.33301 20.334 -5 35.001 -5c28 0 51.167 8.5 69.5 25.5s30.166 41.833 35.499 74.5z" />
    <glyph glyph-name="afii10052" unicode="&#x403;" horiz-adv-x="545" 
d="M490 865l-175 -75l-11 30l172 90zM180 645l-90 -645h-50l96 690h455l-6 -45h-405z" />
    <glyph glyph-name="afii10053" unicode="&#x404;" horiz-adv-x="765" 
d="M345 -30c-45.333 0 -87.498 10.0039 -126.498 30.0039s-72.333 47 -100 81s-48.167 73.667 -61.5 119s-16.333 93.666 -9 144.999s24 99.666 50 144.999s57.667 85 95 119s78.333 61 123 81s89.667 30 135 30c41.333 0 78.166 -6.16699 110.499 -18.5s60 -28.333 83 -48
s41.5 -41.667 55.5 -66s23 -48.5 27 -72.5l-52 -10c-4.66699 21.333 -12.667 42.166 -24 62.499s-26.5 38.5 -45.5 54.5s-42 28.833 -69 38.5s-57.833 14.5 -92.5 14.5c-36 0 -72.667 -8.33301 -110 -25s-71.833 -39 -103.5 -67s-59 -60 -82 -96s-38.5 -73.333 -46.5 -112
h325l-6 -45h-325c-4 -44 0.166992 -85 12.5 -123s30.166 -71.333 53.499 -100s51.5 -51.167 84.5 -67.5s68.167 -24.5 105.5 -24.5s71.5 5 102.5 15s59 23.333 84 40s47 36.167 66 58.5s35.167 46.166 48.5 71.499l48 -10c-14 -27.333 -32.167 -54.166 -54.5 -80.499
s-48.5 -49.833 -78.5 -70.5s-63.667 -37.334 -101 -50.001s-78 -19 -122 -19z" />
    <glyph glyph-name="afii10054" unicode="&#x405;" horiz-adv-x="620" 
d="M494 175c3.33301 25.333 0.00390625 46.499 -9.99609 63.499s-24.5 31.333 -43.5 43s-41.167 21.667 -66.5 30l-77.5 24.5c-26.333 8 -52 16.667 -77 26s-46.833 21.333 -65.5 36s-32.834 32.5 -42.501 53.5s-12.167 47.167 -7.5 78.5c3.33301 24 12.333 47.333 27 70
s33.5 42.834 56.5 60.501s49.667 32 80 43s63.166 16.5 98.499 16.5c36 0 67.5 -4.66699 94.5 -14s49.833 -22 68.5 -38s33.5 -34.5 44.5 -55.5s18.5 -43.5 22.5 -67.5l-51 -10c-4.66699 20 -11.667 38.5 -21 55.5s-21.333 31.833 -36 44.5s-32.667 22.5 -54 29.5
s-46.333 10.5 -75 10.5c-27.333 0 -53 -4.33301 -77 -13s-45 -19.834 -63 -33.501s-32.667 -29.167 -44 -46.5s-18.333 -34.666 -21 -51.999c-3.33301 -25.333 0.166992 -46.166 10.5 -62.499s25 -30.166 44 -41.499s41 -21 66 -29l77.5 -24
c26.667 -8 52.5 -16.833 77.5 -26.5s46.667 -21.834 65 -36.501s32.333 -32.834 42 -54.501s12.167 -48.5 7.5 -80.5c-4 -27.333 -13.5 -53.5 -28.5 -78.5s-34.667 -46.833 -59 -65.5s-53.166 -33.5 -86.499 -44.5s-70 -16.5 -110 -16.5c-38.667 0 -72.5 5 -101.5 15
s-53.5 23.667 -73.5 41s-35.833 38 -47.5 62s-19.834 49.667 -24.501 77l51 10c5.33301 -24 13.166 -45.833 23.499 -65.5s23.5 -36.5 39.5 -50.5s35.5 -24.833 58.5 -32.5s50.167 -11.5 81.5 -11.5s60.166 4.5 86.499 13.5s49.5 21 69.5 36s36.167 32.167 48.5 51.5
s19.833 39 22.5 59z" />
    <glyph glyph-name="afii10055" unicode="&#x406;" horiz-adv-x="230" 
d="M90 0h-50l96 690h50z" />
    <glyph glyph-name="afii10056" unicode="&#x407;" horiz-adv-x="250" 
d="M100 0h-50l96 690h50zM140 827c-1.33301 -8.66699 -5.66992 -16.167 -13.0029 -22.5s-15.333 -9.5 -24 -9.5c-9.33301 0 -16.666 3.16699 -21.999 9.5s-7.33301 13.833 -6 22.5c1.33301 9.33301 5.5 17.166 12.5 23.499s15.167 9.5 24.5 9.5
c8.66699 0 15.834 -3.16699 21.501 -9.5s7.83398 -14.166 6.50098 -23.499zM304.996 827c-1.33301 -8.66699 -5.66992 -16.167 -13.0029 -22.5s-15.333 -9.5 -24 -9.5c-9.33301 0 -16.666 3.16699 -21.999 9.5s-7.33301 13.833 -6 22.5
c1.33301 9.33301 5.5 17.166 12.5 23.499s15.167 9.5 24.5 9.5c8.66699 0 15.834 -3.16699 21.501 -9.5s7.83398 -14.166 6.50098 -23.499z" />
    <glyph glyph-name="afii10057" unicode="&#x408;" 
d="M430 220c-5.33301 -38.667 -15.8311 -73.499 -31.498 -104.499s-35 -57.167 -58 -78.5s-49 -37.833 -78 -49.5s-59.833 -17.5 -92.5 -17.5c-26 0 -49.833 4.5 -71.5 13.5s-40.334 20.667 -56.001 35s-28.334 30.5 -38.001 48.5s-15.834 35.667 -18.501 53l52 10
c2.66699 -15.333 7.66699 -29.833 15 -43.5s16.833 -25.834 28.5 -36.501s25.5 -19.167 41.5 -25.5s34 -9.5 54 -9.5c24.667 0 48.334 4.5 71.001 13.5s43 22.333 61 40s33.167 39.167 45.5 64.5s20.833 54.333 25.5 87l66 470h50z" />
    <glyph glyph-name="afii10058" unicode="&#x409;" horiz-adv-x="1050" 
d="M981 225c-4 -31.333 -13.832 -60.6699 -29.499 -88.0029s-35.834 -51.166 -60.501 -71.499s-52.834 -36.333 -84.501 -48s-65.5 -17.5 -101.5 -17.5h-255l90 645h-265l-245 -645h-50l261 690h355l-33 -240h205c36 0 68.333 -5.83301 97 -17.5s52.334 -27.667 71.001 -48
s32 -44.166 40 -71.499s9.66699 -56.666 5 -87.999zM931.001 224.996c3.33301 24.667 1.83496 48.002 -4.49805 70.002s-17 41.167 -32 57.5s-33.833 29.166 -56.5 38.499s-48.334 14 -77.001 14h-205l-50 -360h205c28.667 0 55.667 4.66699 81 14
s47.666 22.166 66.999 38.499s35.333 35.333 48 57s20.667 45.167 24 70.5z" />
    <glyph glyph-name="afii10059" unicode="&#x40a;" horiz-adv-x="1090" 
d="M1018 205c-4 -28.667 -13.167 -55.5 -27.5 -80.5s-32.5 -46.667 -54.5 -65s-47.5 -32.833 -76.5 -43.5s-60.5 -16 -94.5 -16h-285l51 365h-390l-51 -365h-50l96 690h50l-39 -280h390l39 280h50l-39 -280h235c34 0 64 -5.33301 90 -16s47.5 -25.167 64.5 -43.5
s29.167 -40 36.5 -65s9 -51.833 5 -80.5zM968 205c3.33301 22.667 2.16602 43.6709 -3.50098 63.0039s-15.167 36.166 -28.5 50.499s-30.166 25.666 -50.499 33.999s-43.5 12.5 -69.5 12.5h-235l-45 -320h235c26 0 50.333 4.16699 73 12.5s42.667 19.666 60 33.999
s31.5 31.166 42.5 50.499s18.167 40.333 21.5 63z" />
    <glyph glyph-name="afii10060" unicode="&#x40b;" horiz-adv-x="720" 
d="M560 0l25.998 184.999c4 27.333 3 52.333 -3 75s-16.5 42.167 -31.5 58.5s-34.167 29 -57.5 38s-50.666 13.5 -81.999 13.5h-190l-52 -370h-50l90 645h-190l6 45h465l-6 -45h-225l-32 -230h190c38.667 0 72.667 -5.66699 102 -17s53.333 -27.166 72 -47.499
s31.834 -44.5 39.501 -72.5s9.16699 -59 4.5 -93l-26 -185h-50z" />
    <glyph glyph-name="afii10061" unicode="&#x40c;" horiz-adv-x="680" 
d="M504 855l-175 -75l-11 30l172 90zM90 0l-50.002 -0.00195312l96 690h50l-44 -320h250c30 0 55.333 9.33301 76 28s33.334 44.334 38.001 77.001l15 105c5.33301 38 20 67.5 44 88.5s55 31.5 93 31.5h30l-6 -45h-30c-22.667 0 -41 -6.16699 -55 -18.5
s-22.667 -31.166 -26 -56.499l-15 -105c-4 -28 -11.5 -50 -22.5 -66s-22.5 -28.333 -34.5 -37c-14 -10 -29 -16.667 -45 -20l-1 -4c18 -3.33301 33 -10.333 45 -21c10.667 -9.33301 19.667 -22.333 27 -39s9 -39.334 5 -68.001l-15 -110c-7.33301 -50 12.334 -75 59.001 -75
h30l-6 -45h-30c-38 0 -66 10.5 -84 31.5s-24.333 50.5 -19 88.5l15 110c5.33301 32.667 0 58.334 -16 77.001s-39 28 -69 28h-260z" />
    <glyph glyph-name="afii10062" unicode="&#x40e;" horiz-adv-x="640" 
d="M377 771c-18.667 0 -35.499 3.33203 -50.499 9.99902s-27.5 15.667 -37.5 27s-17.167 25 -21.5 41s-5.16602 33.333 -2.49902 52h40c-3.33301 -25.333 2.5 -46.666 17.5 -63.999s35.167 -26 60.5 -26c12.667 0 24.667 2.33301 36 7s21.666 11 30.999 19s17 17.5 23 28.5
s10 22.833 12 35.5h40c-2.66699 -18.667 -8.33398 -36 -17.001 -52s-19.5 -29.667 -32.5 -41s-28 -20.333 -45 -27s-34.833 -10 -53.5 -10zM380.001 144.999c-30 -57.333 -61 -99.167 -93 -125.5s-70.333 -39.5 -115 -39.5h-45l6 45h45c32.667 0 61 10 85 30
s46.333 50 67 90l55 105h-203l-116 440h50l105 -395h185l210 395h50z" />
    <glyph glyph-name="afii10145" unicode="&#x40f;" horiz-adv-x="700" 
d="M275 0h-235l96 690h50l-90 -645h420l90 645h50l-96 -690h-235l-19 -130h-50z" />
    <glyph glyph-name="afii10017" unicode="&#x410;" horiz-adv-x="670" 
d="M117 230h400l-42 415h-200zM101 185l-71 -185h-50l261 690h280l69 -690h-50l-19 185h-420z" />
    <glyph glyph-name="afii10018" unicode="&#x411;" horiz-adv-x="670" 
d="M609 210c-4 -30 -13.333 -57.8291 -28 -83.4961s-33.167 -47.834 -55.5 -66.501s-48.5 -33.334 -78.5 -44.001s-62.333 -16 -97 -16h-310l96 690h470l-6 -45h-420l-31 -225h260c34.667 0 65.5 -5.33301 92.5 -16s49.167 -25.334 66.5 -44.001s29.5 -40.834 36.5 -66.501
s8.5 -53.5 4.5 -83.5zM356 45.0039c27.333 0 52.6699 4.16699 76.0029 12.5s43.833 19.833 61.5 34.5s32.167 32 43.5 52s18.666 42 21.999 66s2.16602 46 -3.50098 66s-15.334 37.333 -29.001 52s-31 26.167 -52 34.5s-45.167 12.5 -72.5 12.5h-260l-46 -330h260z" />
    <glyph glyph-name="afii10019" unicode="&#x412;" horiz-adv-x="685" 
d="M426 690c27.333 0 51.998 -4.66602 73.998 -13.999s40.333 -21.833 55 -37.5s25.334 -33.667 32.001 -54s8.66699 -41.833 6 -64.5c-4.66699 -29.333 -13.167 -52.833 -25.5 -70.5s-25.166 -31.834 -38.499 -42.501c-16 -12 -33 -21 -51 -27l-1 -5
c31.333 -5.33301 58.333 -15.333 81 -30c10 -6 19.333 -13.5 28 -22.5s16.167 -19.667 22.5 -32s10.833 -26.333 13.5 -42s2.66699 -33.5 0 -53.5c-4 -26 -13 -50.833 -27 -74.5s-31.667 -44.5 -53 -62.5s-45.833 -32.167 -73.5 -42.5s-57.167 -15.5 -88.5 -15.5h-340
l96 690h290zM385.998 45.001c24.667 0 47.834 3.83691 69.501 11.5039s40.5 18.167 56.5 31.5s29.167 29.166 39.5 47.499s17.166 38.166 20.499 59.499c2.66699 21.333 1.5 41.166 -3.5 59.499s-13.833 34.166 -26.5 47.499s-28.667 23.833 -48 31.5s-41.333 11.5 -66 11.5
h-290l-42 -300h290zM179.998 645.005l-36 -255h240c21.333 0 41 3.33301 59 10s34 15.667 48 27s25.5 25 34.5 41s14.833 33.333 17.5 52c4.66699 35.333 -4 65 -26 89s-54.333 36 -97 36h-240z" />
    <glyph glyph-name="afii10020" unicode="&#x413;" horiz-adv-x="545" 
d="M180 645l-90 -645h-50l96 690h455l-6 -45h-405z" />
    <glyph glyph-name="afii10021" unicode="&#x414;" horiz-adv-x="710" 
d="M0 0l-19 -130h-49l24 175h70l245 645h260l65 -645h70l-25 -175h-50l19 130h-610zM305 645l-229 -600h470l-61 600h-180z" />
    <glyph glyph-name="afii10022" unicode="&#x415;" horiz-adv-x="600" 
d="M526 45l-6 -45h-480l96 690h480l-6 -45h-430l-38 -275h340l-7 -45h-340l-39 -280h430z" />
    <glyph glyph-name="afii10024" unicode="&#x416;" horiz-adv-x="1010" 
d="M482 370l43.998 319.999h50l-44 -320h190c30 0 55.333 9.33301 76 28s33.334 44.334 38.001 77.001l15 105c5.33301 38 20 67.5 44 88.5s55 31.5 93 31.5h30l-6 -45h-30c-22.667 0 -41 -6.16699 -55 -18.5s-22.667 -31.166 -26 -56.499l-15 -105
c-4 -28 -11.5 -50 -22.5 -66s-22.5 -28.333 -34.5 -37c-14 -10 -29 -16.667 -45 -20l-1 -4c18 -3.33301 33 -10.333 45 -21c10.667 -9.33301 19.667 -22.333 27 -39s9 -39.334 5 -68.001l-15 -110c-7.33301 -50 12.334 -75 59.001 -75h30l-6 -45h-30
c-38 0 -66 10.5 -84 31.5s-24.333 50.5 -19 88.5l15 110c5.33301 32.667 0 58.334 -16 77.001s-39 28 -69 28h-200l-45 -325h-50l45 325h-200c-30 0 -55.333 -9.33301 -76 -28s-33.667 -44.334 -39 -77.001l-15 -110c-5.33301 -38 -20 -67.5 -44 -88.5s-55 -31.5 -93 -31.5
h-30l6 45h30c46.667 0 73.667 25 81 75l15 110c4 28.667 12.167 51.334 24.5 68.001s25.166 29.667 38.499 39c15.333 10.667 32 17.667 50 21l1 4c-15.333 3.33301 -28.666 10 -39.999 20c-9.33301 8.66699 -17.333 21 -24 37s-8 38 -4 66l15 105c6.66699 50 -13 75 -59 75
h-30l6 45h30c38 0 66 -10.5 84 -31.5s24.333 -50.5 19 -88.5l-15 -105c-4.66699 -32.667 1 -58.334 17 -77.001s39 -28 69 -28h190z" />
    </font>
</defs>
</svg>
