<svg height="512pt" viewBox="0 0 512 512.00001" width="512pt" xmlns="http://www.w3.org/2000/svg" fill="#fff"><path d="m490.683594 356.972656-39.675782-39.671875c-28.378906-28.382812-74.554687-28.382812-102.9375 0l-26.707031 26.703125c-10.347656 10.355469-26.628906 11.085938-37.867187 1.707032-42.394532-35.378907-81.828125-74.8125-117.207032-117.207032-9.378906-11.238281-8.644531-27.519531 1.707032-37.867187l26.703125-26.707031c28.378906-28.378907 28.378906-74.558594 0-102.9375l-39.671875-39.675782c-13.746094-13.746094-32.027344-21.316406-51.46875-21.316406s-37.71875 7.570312-51.46875 21.316406c-29.648438 29.652344-47.925782 68.992188-51.460938 110.777344-3.535156 41.78125 7.875 83.632812 32.125 117.84375 63.117188 89.039062 140.265625 166.191406 229.308594 229.308594 30.132812 21.359375 66.1875 32.757812 102.90625 32.753906 4.96875 0 9.957031-.210938 14.9375-.628906 41.785156-3.535156 81.125-21.8125 110.773438-51.460938 13.75-13.746094 21.320312-32.027344 21.320312-51.46875s-7.570312-37.722656-21.316406-51.46875zm-217.054688 105.957032c-87.195312-61.808594-162.75-137.363282-224.558594-224.558594-44.644531-62.984375-37.425781-148.320313 17.164063-202.910156 9.96875-9.96875 23.226563-15.460938 37.324219-15.460938 14.101562 0 27.355468 5.492188 37.328125 15.460938l39.671875 39.671874c9.972656 9.972657 15.460937 23.226563 15.460937 37.328126 0 14.101562-5.492187 27.355468-15.460937 37.328124l-1.648438 1.648438-65.175781-65.175781c-3.90625-3.902344-10.238281-3.902344-14.144531 0-3.902344 3.90625-3.902344 10.238281 0 14.144531l65.175781 65.175781-10.914063 10.910157c-17.714843 17.71875-18.972656 45.589843-2.917968 64.828124 36.144531 43.316407 76.433594 83.601563 119.746094 119.746094 19.242187 16.054688 47.109374 14.800782 64.828124-2.917968l10.914063-10.910157 113.214844 113.214844c-54.214844 40.8125-129.199219 42.742187-186.007813 2.476563zm202.910156-17.164063c-.5625.5625-1.132812 1.113281-1.699218 1.664063-.191406-.226563-.386719-.449219-.601563-.664063l-113.675781-113.675781 1.652344-1.648438c9.96875-9.96875 23.222656-15.460937 37.324218-15.460937 14.101563 0 27.355469 5.492187 37.328126 15.460937l39.671874 39.675782c9.972657 9.96875 15.460938 23.226562 15.460938 37.324218 0 14.101563-5.492188 27.355469-15.460938 37.324219zm0 0"/><path d="m79.304688 55.980469c-2.628907 0-5.207032 1.058593-7.066407 2.929687-1.863281 1.859375-2.933593 4.441406-2.933593 7.070313 0 2.628906 1.070312 5.210937 2.933593 7.070312 1.859375 1.859375 4.4375 2.929688 7.066407 2.929688 2.640624 0 5.210937-1.070313 7.070312-2.929688 1.863281-1.859375 2.929688-4.441406 2.929688-7.070312 0-2.628907-1.066407-5.210938-2.929688-7.070313-1.859375-1.871094-4.4375-2.929687-7.070312-2.929687zm0 0"/><path d="m218.308594 367.914062c-20.484375-18.226562-40.367188-37.617187-59.089844-57.632812-3.773438-4.035156-10.101562-4.246094-14.132812-.472656-4.035157 3.773437-4.246094 10.101562-.472657 14.132812 19.140625 20.464844 39.460938 40.285156 60.402344 58.917969 1.902344 1.695313 4.277344 2.527344 6.640625 2.527344 2.757812 0 5.5-1.132813 7.476562-3.351563 3.671876-4.128906 3.300782-10.449218-.824218-14.121094zm0 0"/><path d="m133.230469 281.269531c-3.59375-4.191406-9.910157-4.675781-14.101563-1.078125-4.1875 3.597656-4.671875 9.910156-1.074218 14.101563l.164062.191406c1.976562 2.304687 4.777344 3.492187 7.597656 3.492187 2.300782 0 4.617188-.792968 6.5-2.410156 4.195313-3.59375 4.679688-9.90625 1.085938-14.101562zm0 0"/></svg>