<svg width="95" height="66" viewBox="0 0 95 66" fill="none" xmlns="http://www.w3.org/2000/svg">
<path fill-rule="evenodd" clip-rule="evenodd" d="M53.324 3.87978C52.5076 4.93182 52.0763 6.23527 52.1028 7.57034V18.6105C52.0312 19.4362 51.727 20.2241 51.2261 20.8816C50.9443 21.1655 49.2535 22.7111 49.1282 22.8688H50.0676C50.3807 22.5849 53.6371 19.7145 53.9816 19.3044C54.9351 18.264 55.4707 16.9037 55.4845 15.4877V4.69991C55.468 3.62699 55.8602 2.58847 56.5804 1.79793C56.9875 1.38787 58.2713 0.283856 58.4904 0.0630529H57.4885C57.238 0.283856 53.6371 3.56435 53.324 3.91133" fill="white"/>
<path fill-rule="evenodd" clip-rule="evenodd" d="M45.2768 44.0345L49.2534 47.5358H51.9149C54.4695 47.5477 56.9245 46.5381 58.7409 44.7285C59.4821 43.937 60.0601 43.0055 60.4417 41.9876C60.8233 40.9697 61.0009 39.8857 60.964 38.7983V33.0575C60.9591 32.4131 60.82 31.777 60.5557 31.1901C60.2914 30.6033 59.9079 30.0789 59.4298 29.6508L58.0834 28.3575V32.8051L59.6176 34.3823C60.8075 35.644 60.8075 37.9467 57.0501 41.6372C55.7157 43.0645 53.8892 43.9224 51.9462 44.0345H45.2768Z" fill="white"/>
<path fill-rule="evenodd" clip-rule="evenodd" d="M56.3299 20.4723C55.776 21.2427 55.4798 22.1707 55.4845 23.122V25.2985H57.6763C58.1037 25.2606 58.5188 25.1346 58.8958 24.9284C59.2728 24.7223 59.6038 24.4402 59.8681 24.0998V21.9549C60.1965 22.4267 60.5983 22.8421 61.058 23.1851C61.2772 22.9012 63.2498 20.4723 64.9406 20.4723C67.7274 20.4723 67.1012 23.9736 65.9426 25.1092L63.4377 27.4749C62.1226 28.7367 59.8681 28.1373 59.8681 24.8884C59.8681 24.8884 57.4571 27.191 57.0814 27.5065C56.7056 27.8219 55.4845 29.1467 55.4845 29.1467V34.856C55.5496 35.6925 55.4256 36.533 55.1219 37.3142C54.8182 38.0955 54.3426 38.7972 53.731 39.3667C53.4492 39.6822 50.3807 42.521 49.9736 42.8049H48.9716L51.1321 40.7862C51.7606 40.0172 52.0741 39.0358 52.0089 38.0419C52.0089 37.6634 52.0089 29.0205 52.0089 29.0205H38.0751C33.2218 29.0205 32.1885 23.5951 32.1572 22.1441V16.7502C32.1536 16.1888 32.0185 15.6362 31.7627 15.1374C31.507 14.6386 31.1379 14.2077 30.6855 13.8798H32.0633C32.2198 13.8798 33.0652 14.2899 33.0652 17.6019C33.0652 17.6019 33.0652 21.4817 33.0652 21.7025C33.0509 22.5898 33.3627 23.4511 33.9407 24.1208C34.5187 24.7904 35.3222 25.2211 36.1964 25.33H51.8523C52.0205 24.2774 52.4395 23.2816 53.0735 22.428C53.4805 21.9549 56.8935 18.8005 57.2692 18.5167H58.2712C58.1147 18.5167 56.4864 20.1254 56.1107 20.5039L56.3299 20.4723ZM61.3085 23.6582C61.714 24.2199 62.1643 24.7474 62.6549 25.2354C64.377 26.5917 65.1911 25.2354 64.0326 23.532C63.5942 22.9327 61.8408 23.0904 61.3085 23.532" fill="white"/>
<path fill-rule="evenodd" clip-rule="evenodd" d="M44.588 34.0036C44.588 34.7922 42.1456 36.811 41.9891 36.9687C41.9891 36.117 41.2063 35.2023 39.3902 33.3728L42.0517 30.6916C43.8365 32.4896 44.588 32.8996 44.588 34.0036Z" fill="white"/>
<path fill-rule="evenodd" clip-rule="evenodd" d="M49.2221 3.18586C49.7544 3.7221 50.8816 5.20463 50.1927 5.89858L48.6585 7.47574C48.6585 7.12877 47.7191 6.2771 47.7191 6.2771V9.21062C47.7191 10.3777 47.2494 10.6932 47.2494 10.6932C48.5041 12.0351 49.2568 13.7746 49.3787 15.6139C49.3787 16.9703 49.3787 18.2004 49.3787 18.4528C49.3928 18.9874 49.2022 19.5069 48.8463 19.9038L46.3414 22.3957C45.9028 22.8146 45.3174 23.0414 44.7132 23.0266H37.3236C36.1651 23.0266 34.9439 22.0803 34.9439 21.1655C34.9439 20.9447 34.9439 18.3897 34.9439 18.3897C35.1151 18.6884 35.3617 18.9362 35.6586 19.108C35.9556 19.2797 36.2924 19.3692 36.6348 19.3675C37.2721 19.2873 37.8659 18.9993 38.3256 18.5474C38.5448 18.3582 43.9304 12.6488 43.9304 12.6488C42.6086 11.4137 41.2182 10.2553 39.7659 9.17908C39.5761 9.07652 39.3659 9.01816 39.1507 9.00828C38.9355 8.99841 38.7209 9.03727 38.5226 9.12201C38.3244 9.20676 38.1475 9.33522 38.005 9.49795C37.8625 9.66068 37.7581 9.85352 37.6994 10.0623C37.4247 11.9342 37.4247 13.8366 37.6994 15.7085L35.6641 13.6582C35.2444 13.1193 35.0323 12.4458 35.0668 11.7618C35.1013 11.0777 35.3802 10.4293 35.852 9.93612C36.7492 8.87954 38.0167 8.21282 39.3902 8.07506H42.5214C44.0672 8.30001 45.5087 8.99306 46.6545 10.0623C46.8425 9.87583 46.9637 9.63172 46.9989 9.36834C46.9989 8.35895 46.9989 5.58315 46.9989 5.58315C45.5273 4.06907 45.3081 2.42883 46.0283 1.79796L47.8444 0C47.9556 1.21189 48.5143 2.33758 49.41 3.15432L49.2221 3.18586ZM40.0164 18.1689C39.5882 18.7085 39.0689 19.1677 38.4821 19.5253H46.8424C49.0968 19.5253 48.6585 18.1374 48.2514 17.4119C47.1643 15.9286 45.9601 14.5362 44.6506 13.2482L39.8912 18.2004" fill="white"/>
<path fill-rule="evenodd" clip-rule="evenodd" d="M30.4037 25.835H29.026C29.5013 26.1549 29.8865 26.5931 30.1443 27.107C30.4022 27.621 30.5239 28.1933 30.4976 28.7685V35.4873C30.4951 37.6433 31.3165 39.7176 32.7915 41.2798C34.2665 42.8421 36.2819 43.7724 38.4195 43.8778H42.0517C42.8356 43.9454 43.6245 43.8361 44.3612 43.5578C45.0978 43.2795 45.7636 42.8392 46.3101 42.2691C46.7798 41.8274 47.406 41.1335 47.6252 40.8812C48.1649 40.4116 48.5898 39.823 48.8668 39.161C49.1438 38.499 49.2654 37.7815 49.2221 37.0644V34.8879C49.2053 34.2723 49.0501 33.6686 48.768 33.1222C48.486 32.5758 48.0845 32.101 47.5939 31.7336L46.3101 30.5034V35.0141C46.3101 35.0141 47.2494 35.992 47.6252 36.3074C47.9901 36.6009 48.257 37.0001 48.39 37.451C48.523 37.902 48.5157 38.3832 48.369 38.8299C48.2224 39.2765 47.9434 39.6672 47.5697 39.9494C47.196 40.2315 46.7455 40.3916 46.2788 40.408H38.3256C36.4975 40.3675 34.756 39.6158 33.466 38.3104C32.1759 37.0049 31.4376 35.2471 31.4057 33.4054V29.6518C31.4057 25.8981 30.4037 25.8981 30.4037 25.8981" fill="white"/>
<path fill-rule="evenodd" clip-rule="evenodd" d="M39.1084 34.0356C39.1084 34.7926 36.6974 36.8429 36.5408 36.9691C36.3529 36.149 35.758 35.2342 33.9419 33.4047L36.6034 30.7235C38.3882 32.5215 39.1084 32.9 39.1084 34.0356Z" fill="white"/>
<path fill-rule="evenodd" clip-rule="evenodd" d="M11.2096 63.8755H6.95122C5.60481 63.8755 5.69875 62.7714 5.60481 61.7936V55.6111H7.57745C8.97611 55.449 10.3924 55.6668 11.6793 56.242C11.3061 55.4731 10.7206 54.829 9.993 54.3869C9.26542 53.9449 8.42669 53.7238 7.57745 53.7501H5.60481V51.7313C5.62893 50.9712 5.47894 50.2156 5.16645 49.5233H7.9845C10.1558 49.2633 12.3523 49.7169 14.2469 50.8166C14.2469 50.8166 13.8711 47.6622 9.17436 47.6622H0C0.516153 48.2003 0.918323 48.8385 1.18208 49.538C1.44583 50.2375 1.56566 50.9837 1.53428 51.7313V62.9607C1.53428 65.7996 2.63019 65.8627 2.63019 65.8627H11.7106C12.0423 65.902 12.3784 65.8741 12.6993 65.7806C13.0201 65.6871 13.3191 65.53 13.5788 65.3184C13.8384 65.1068 14.0535 64.845 14.2112 64.5484C14.369 64.2519 14.4663 63.9266 14.4974 63.5916V62.5191C14.4974 62.5191 13.8398 63.8755 11.1157 63.8755" fill="white"/>
<path fill-rule="evenodd" clip-rule="evenodd" d="M35.3823 62.8976V55.0434C35.387 54.4926 35.2743 53.9472 35.0518 53.4441C34.8293 52.9409 34.5022 52.4918 34.0926 52.127C33.6829 51.7622 33.2003 51.4902 32.6774 51.3294C32.1544 51.1686 31.6033 51.1228 31.0613 51.1951C30.2672 51.2195 29.5017 51.499 28.8765 51.9927C28.2512 52.4864 27.7989 53.1684 27.5857 53.9394C27.2947 53.1093 26.75 52.3934 26.0299 51.8947C25.3098 51.396 24.4513 51.14 23.5778 51.1636C22.7404 51.1721 21.9281 51.4531 21.2622 51.9647C20.5964 52.4763 20.1126 53.1911 19.883 54.0024C19.883 54.0024 19.883 51.2582 17.4407 51.2582H15.1236C15.1236 51.2582 16.47 51.826 16.47 54.1917V62.9292C16.47 65.7996 17.6285 65.8627 17.6285 65.8627H21.4486C20.9925 65.5166 20.6223 65.0688 20.367 64.5543C20.1116 64.0399 19.9781 63.4728 19.9769 62.8976V55.138C20.1298 54.6284 20.4627 54.1929 20.9128 53.9139C21.3628 53.6349 21.8988 53.5317 22.4192 53.6239C22.9371 53.6708 23.4192 53.9097 23.7721 54.2944C24.125 54.6791 24.3236 55.182 24.3293 55.7058V62.8976C24.3293 65.8312 25.4878 65.8312 25.4878 65.8312H29.3078C28.8611 65.4835 28.4971 65.0397 28.2425 64.5322C27.9879 64.0246 27.849 63.4662 27.8362 62.8976V55.138C27.9787 54.695 28.2605 54.3107 28.6389 54.0432C29.0174 53.7757 29.472 53.6396 29.9341 53.6555C30.4851 53.6554 31.014 53.8737 31.4065 54.2633C31.7991 54.6528 32.0237 55.1823 32.0319 55.7373V62.9292C32.0319 65.8627 33.1592 65.8312 33.1592 65.8312H37.0105C36.5587 65.4883 36.191 65.0455 35.9359 64.5369C35.6807 64.0283 35.5449 63.4675 35.5389 62.8976" fill="white"/>
<path fill-rule="evenodd" clip-rule="evenodd" d="M42.0831 62.8978C42.0843 63.4685 42.218 64.031 42.4735 64.5404C42.7291 65.0497 43.0993 65.4918 43.5547 65.8313H39.7347C39.7347 65.8313 38.5762 65.8313 38.5762 62.9293V54.1603C38.5762 51.8576 37.2297 51.2583 37.2297 51.2583H39.5468C40.3922 51.2583 42.0831 51.2583 42.0831 54.4126V62.8978Z" fill="white"/>
<path fill-rule="evenodd" clip-rule="evenodd" d="M53.7311 52.3623C53.7311 52.3623 53.3867 51.3214 51.7898 51.3214C49.3787 51.3214 48.6586 54.1918 48.6586 54.1918C48.4707 51.9207 47.8758 51.2583 46.1849 51.2583H43.8679C43.8679 51.2583 45.2143 51.7945 45.2143 54.1603V62.8978C45.2143 65.7997 46.3728 65.8313 46.3728 65.8313H50.1928C49.7432 65.4885 49.379 65.045 49.129 64.5358C48.879 64.0266 48.7501 63.4658 48.7525 62.8978V55.7375C48.7901 55.4356 48.8939 55.146 49.0564 54.8896C49.2188 54.6331 49.4359 54.4164 49.6919 54.2549C50.3285 53.8552 51.0864 53.699 51.8278 53.8148C52.5691 53.9306 53.2445 54.3106 53.7311 54.8858V52.3623Z" fill="white"/>
<path fill-rule="evenodd" clip-rule="evenodd" d="M71.704 52.8991C72.4898 52.9041 73.2628 53.0988 73.9585 53.4669V51.2588H70.8273V47.9152C70.1362 49.0186 69.2686 49.9992 68.2597 50.8172C67.1959 51.5926 66.064 52.2683 64.8781 52.836H67.3204V62.9929C67.3204 65.8003 68.4789 65.8003 68.4789 65.8003H72.299C71.8526 65.4738 71.4874 65.0475 71.2321 64.555C70.9767 64.0624 70.8382 63.5169 70.8273 62.9614V52.8675H71.7667" fill="white"/>
<path fill-rule="evenodd" clip-rule="evenodd" d="M83.3206 57.2829C81.1914 59.554 79.5006 59.2071 78.1542 60.8473C78.2004 61.4883 78.3978 62.1089 78.73 62.6575C79.0622 63.2061 79.5196 63.6669 80.0642 64.0016C80.8616 64.3939 81.7809 64.4514 82.6203 64.1616C83.4597 63.8719 84.1508 63.2585 84.5418 62.456V64.8218C83.3773 65.7317 81.9025 66.14 80.44 65.9573C79.5563 65.9627 78.6814 65.7796 77.873 65.4201C77.0645 65.0606 76.3408 64.5328 75.7493 63.8714C75.1578 63.21 74.7119 62.4299 74.441 61.5825C74.1702 60.7351 74.0804 59.8396 74.1776 58.9547C74.1776 54.9803 76.2755 51.3213 80.2208 51.2897C84.1661 51.2582 86.2013 54.444 83.352 57.3776L83.3206 57.2829ZM81.0036 56.4628C81.6611 55.2957 82.1621 52.2991 79.9703 52.4568C77.7785 52.6145 77.935 59.3648 77.935 59.3648C78.7804 58.45 80.0329 58.2608 81.0662 56.4628" fill="white"/>
<path fill-rule="evenodd" clip-rule="evenodd" d="M40.2983 50.0911C40.7633 50.0911 41.2093 49.905 41.5381 49.5737C41.867 49.2425 42.0517 48.7932 42.0517 48.3247C42.0517 47.8562 41.867 47.4069 41.5381 47.0756C41.2093 46.7444 40.7633 46.5583 40.2983 46.5583C39.8332 46.5583 39.3872 46.7444 39.0584 47.0756C38.7295 47.4069 38.5448 47.8562 38.5448 48.3247C38.5448 48.7932 38.7295 49.2425 39.0584 49.5737C39.3872 49.905 39.8332 50.0911 40.2983 50.0911Z" fill="white"/>
<path fill-rule="evenodd" clip-rule="evenodd" d="M57.8642 64.348C57.424 64.2926 57.0219 64.0681 56.7419 63.7214C56.4619 63.3747 56.3256 62.9325 56.3613 62.487C56.3613 58.8595 59.3046 58.3548 60.1187 57.377V63.6856C59.8343 63.9925 59.4815 64.2268 59.0896 64.3694C58.6976 64.512 58.2776 64.5587 57.8642 64.5057V64.348ZM59.9934 55.8313C59.0854 57.377 52.1655 57.7239 53.2301 63.1178C53.2797 63.5397 53.4133 63.947 53.623 64.3156C53.8327 64.6841 54.1141 65.0061 54.4504 65.2624C54.7867 65.5187 55.1709 65.7039 55.5799 65.8069C55.989 65.91 56.4145 65.9287 56.8309 65.8621C57.4593 65.8822 58.0815 65.7318 58.6323 65.4266C59.1832 65.1213 59.6425 64.6726 59.9621 64.1272C60.2126 65.7359 61.0267 65.8305 61.0267 65.8305H64.8468C64.388 65.4993 64.013 65.0641 63.7519 64.56C63.4908 64.0559 63.351 63.4971 63.3438 62.9286V54.885C63.3438 52.9294 61.1833 51.4153 58.8975 51.4153C57.6272 51.3998 56.3823 51.7738 55.328 52.4878V54.885C55.5448 54.3165 55.9203 53.8233 56.4093 53.4651C56.8982 53.1068 57.4797 52.8989 58.0834 52.8663C60.056 52.8663 60.1813 53.8441 60.1813 54.3488C60.2767 54.8712 60.1763 55.4108 59.8995 55.8629" fill="white"/>
<path fill-rule="evenodd" clip-rule="evenodd" d="M91.8062 61.8883C91.779 62.2343 91.6829 62.5713 91.5238 62.8791C91.3646 63.1869 91.1455 63.4593 90.8796 63.6801C90.6138 63.9008 90.3065 64.0654 89.9762 64.164C89.6458 64.2626 89.2992 64.2933 88.9568 64.2541C88.344 64.2249 87.7532 64.0151 87.2578 63.6506C86.7623 63.2861 86.3841 62.783 86.1701 62.2038V64.8219C87.2567 65.5124 88.5175 65.8738 89.8023 65.8628C91.1004 65.9155 92.3681 65.4581 93.3379 64.5871C94.3077 63.7161 94.9036 62.4996 95 61.1944C94.991 60.2694 94.6832 59.3725 94.1233 58.6394C93.0371 57.505 91.7663 56.5662 90.3659 55.8636C90.0905 55.6997 89.8512 55.4809 89.6628 55.2205C89.4743 54.9602 89.3406 54.6638 89.27 54.3495C89.27 53.8448 89.4891 52.867 91.4305 52.867C92.0232 52.9113 92.5912 53.1247 93.0681 53.4821C93.5449 53.8396 93.9109 54.3265 94.1233 54.8857V52.4569C93.0537 51.6908 91.7722 51.2825 90.4598 51.2898C89.4336 51.1911 88.4094 51.4978 87.6033 52.1451C86.7972 52.7924 86.2721 53.7298 86.1388 54.7596C86.146 55.5055 86.3354 56.2382 86.6904 56.8928C87.0453 57.5475 87.5549 58.104 88.174 58.5132C88.8018 58.9794 89.4609 59.401 90.1467 59.7749C90.5659 59.9578 90.9292 60.2501 91.1989 60.6216C91.4686 60.9931 91.635 61.4304 91.681 61.8883" fill="white"/>
</svg>
