<svg width="27" height="31" viewBox="0 0 27 31" fill="none" xmlns="http://www.w3.org/2000/svg">
<g clip-path="url(#clip0)">
<path d="M26.9968 7.74604C26.8256 7.73609 26.6585 7.72245 26.4948 7.70586C26.485 7.70476 26.4756 7.70365 26.4662 7.70255C26.4233 7.69812 26.3808 7.69333 26.3383 7.68854C26.1268 7.66348 25.9217 7.63288 25.723 7.59713C23.4563 7.1869 22.0211 6.08449 21.1124 4.84201C21.1128 4.84238 21.1132 4.84275 21.1135 4.84275C20.3316 3.7735 19.9392 2.60142 19.7424 1.6785C19.742 1.67666 19.7416 1.67482 19.7412 1.67334C19.736 1.64865 19.7311 1.62432 19.7258 1.6C19.725 1.59631 19.7243 1.59263 19.7235 1.58894C19.719 1.56646 19.7145 1.54397 19.71 1.52149C19.7092 1.51707 19.7081 1.51264 19.7074 1.50822C19.7028 1.48463 19.6983 1.46141 19.6942 1.43856C19.6904 1.41866 19.687 1.39912 19.6833 1.37959C19.6829 1.37664 19.6821 1.37332 19.6814 1.37C19.5538 0.65828 19.5448 0.144114 19.5444 0.026169V0H18.3986H14.2207V20.3776C14.2207 21.3171 14.1222 22.1534 13.9257 22.8872C12.223 26.5612 7.40545 26.081 6.07453 23.5595C6.07491 23.5595 6.07491 23.5599 6.07528 23.5599C6.06287 23.537 6.05083 23.5138 6.03916 23.4902C6.02486 23.4611 6.01019 23.432 5.99664 23.4025C4.66722 20.4834 6.34094 16.4069 11.3437 17.1278C11.3437 11.4694 11.3403 17.1278 11.3403 11.4709C11.2609 11.4587 11.1819 11.4473 11.1032 11.437C11.0769 11.4333 11.0505 11.43 11.0242 11.4263C10.9888 11.4219 10.9535 11.4178 10.9181 11.4138C-0.0585466 10.1016 -4.08405 24.9059 5.06195 29.7568C5.06797 29.7601 5.07437 29.7634 5.08039 29.7664C5.23918 29.85 5.40173 29.9308 5.56805 30.0085C5.59402 30.0207 5.61998 30.0328 5.64632 30.045C5.68658 30.0634 5.72722 30.0815 5.76786 30.0996C5.80436 30.1158 5.84086 30.1316 5.87736 30.1475C5.91386 30.1633 5.95073 30.1788 5.98761 30.1943C6.03502 30.2142 6.08319 30.2337 6.13135 30.2529C6.1592 30.2643 6.18704 30.2757 6.21526 30.2868C6.2909 30.3167 6.36728 30.3458 6.44442 30.3742C6.46813 30.383 6.49183 30.3915 6.51554 30.4C6.57386 30.421 6.63219 30.442 6.69127 30.4626C6.71911 30.4722 6.74695 30.4818 6.77518 30.4914C6.83388 30.5113 6.89295 30.5308 6.95241 30.55C6.97762 30.5581 7.00283 30.5666 7.02842 30.5743C7.1127 30.6008 7.19737 30.627 7.28316 30.6521C9.37682 31.1003 10.6242 31.0711 12.0093 30.8142C16.9533 29.8957 19.5941 25.339 19.5286 20.6923L19.5369 10.4304C22.1893 12.7476 26.4512 13.0491 27.0002 13.0174C27.0002 7.74604 26.9968 14.093 26.9968 7.74604Z" fill="white"/>
</g>
<defs>
<clipPath id="clip0">
<rect width="27" height="31" fill="white"/>
</clipPath>
</defs>
</svg>
