<svg width="25" height="25" viewBox="0 0 25 25" fill="none" xmlns="http://www.w3.org/2000/svg">
<path d="M21.4423 0H3.55769C1.53846 0 0 1.53846 0 3.55769V21.4423C0 23.4615 1.53846 25 3.55769 25H21.4423C23.4615 25 25 23.4615 25 21.4423V3.55769C25 1.53846 23.4615 0 21.4423 0ZM12.5 20C16.6346 20 20 16.7308 20 12.7885C20 12.1154 19.9038 11.3462 19.7115 10.7692H21.8269V20.9615C21.8269 21.4423 21.4423 21.9231 20.8654 21.9231H4.13462C3.65385 21.9231 3.17308 21.5385 3.17308 20.9615V10.6731H5.38462C5.19231 11.3462 5.09616 12.0192 5.09616 12.6923C5 16.7308 8.36538 20 12.5 20ZM12.5 17.1154C9.80769 17.1154 7.69231 15 7.69231 12.4038C7.69231 9.80769 9.80769 7.69231 12.5 7.69231C15.1923 7.69231 17.3077 9.80769 17.3077 12.4038C17.3077 15.0962 15.1923 17.1154 12.5 17.1154ZM21.7308 6.82692C21.7308 7.40384 21.25 7.88462 20.6731 7.88462H17.9808C17.4038 7.88462 16.9231 7.40384 16.9231 6.82692V4.23077C16.9231 3.65385 17.4038 3.17308 17.9808 3.17308H20.6731C21.25 3.17308 21.7308 3.65385 21.7308 4.23077V6.82692Z" fill="white"/>
</svg>
