<svg width="44" height="42" viewBox="0 0 44 42" fill="none" xmlns="http://www.w3.org/2000/svg">
<path fill-rule="evenodd" clip-rule="evenodd" d="M0.0625 20.0116C0.0625 20.0116 3.49129 11.3462 10.9723 10.7695C18.4532 10.1928 43.8262 20.448 43.8262 20.448V0H0.187183L0.0625 20.0116Z" fill="#D83942"/>
<path fill-rule="evenodd" clip-rule="evenodd" d="M0.06234 22.5831C0.06234 22.5831 2.80537 15.1021 10.4266 14.0423C18.0479 12.9825 43.639 21.1804 43.639 21.1804V41.3167L0 41.4414L0.06234 22.5831Z" fill="#263C84"/>
<path d="M9.56941 6.62372C10.224 6.51462 10.9877 6.24967 11.1279 5.5795C11.2385 5.06628 11.1546 4.53031 10.8926 4.07538C10.6306 3.62046 10.2091 3.27895 9.70968 3.11701C9.24715 2.97792 8.75393 2.97792 8.29141 3.11701C7.89422 3.22667 7.52272 3.41399 7.19839 3.66814C6.87406 3.92229 6.60333 4.23822 6.40188 4.59765C6.20042 4.95709 6.07222 5.3529 6.0247 5.7622C5.97718 6.1715 6.01129 6.58615 6.12504 6.98218C6.31051 7.60604 6.69332 8.15292 7.21602 8.54072C6.67053 7.46533 7.80826 6.88867 9.56941 6.62372ZM12.1722 5.28338C11.969 4.54155 11.4893 3.90574 10.8318 3.50665C11.1226 3.79579 11.3395 4.15065 11.4643 4.54126C11.5891 4.93188 11.618 5.34678 11.5488 5.75094C11.3617 6.53021 10.9098 6.9666 9.72527 7.15362C8.54078 7.34065 7.80826 7.6056 7.57448 8.08875C7.53529 8.16936 7.51267 8.25703 7.50797 8.34654C7.50326 8.43606 7.51655 8.52561 7.54707 8.6099C7.57759 8.69418 7.6247 8.77149 7.68563 8.83724C7.74656 8.90299 7.82005 8.95586 7.90177 8.9927C8.2224 9.15582 8.57272 9.25233 8.93164 9.27644C9.29057 9.30055 9.65066 9.25174 9.99021 9.13297C10.3888 9.02498 10.762 8.83886 11.088 8.58543C11.4141 8.332 11.6865 8.01631 11.8895 7.65669C12.0925 7.29708 12.2221 6.90071 12.2706 6.49061C12.3191 6.08051 12.2856 5.66486 12.1722 5.26779V5.28338Z" fill="white"/>
<path fill-rule="evenodd" clip-rule="evenodd" d="M7.44849 24.1419C7.44963 24.0915 7.43721 24.0418 7.41253 23.9979C7.38785 23.9541 7.35182 23.9176 7.30822 23.8925C7.21367 23.8198 7.10856 23.762 6.99651 23.721L6.57571 23.5652C6.42443 23.5234 6.28189 23.4548 6.1549 23.3626C6.00922 23.2804 5.88869 23.1601 5.8063 23.0146C5.72392 22.869 5.68279 22.7037 5.68734 22.5366C5.68514 22.3758 5.717 22.2165 5.78085 22.069C5.84639 21.9433 5.93649 21.832 6.04581 21.7417C6.16546 21.6469 6.30342 21.578 6.45102 21.5391C6.62686 21.5153 6.80509 21.5153 6.98093 21.5391C7.19326 21.5153 7.40759 21.5153 7.61993 21.5391C7.78841 21.5643 7.95163 21.6169 8.10307 21.6949L7.86929 22.3339H7.71344H7.49525L7.26146 22.2093H6.98093C6.84463 22.201 6.70896 22.2335 6.59129 22.3028C6.5465 22.3266 6.50947 22.3627 6.4846 22.4069C6.45974 22.4511 6.44809 22.5015 6.45102 22.5521C6.45143 22.6022 6.46451 22.6513 6.48904 22.6949C6.51357 22.7385 6.54875 22.7752 6.59129 22.8015C6.68951 22.8684 6.79389 22.9258 6.903 22.9729L7.32381 23.1288C7.47245 23.1774 7.61396 23.2455 7.74461 23.3314C7.87834 23.4059 7.99096 23.5132 8.0719 23.6431C8.16873 23.7852 8.21785 23.9544 8.21217 24.1263C8.22027 24.3042 8.18271 24.4813 8.10307 24.6406C8.04167 24.782 7.9451 24.9054 7.82254 24.999C7.69161 25.0943 7.54339 25.1631 7.38615 25.2017C7.19994 25.2263 7.01128 25.2263 6.82507 25.2017H6.41985H6.09256H5.81202L5.625 25.1237L5.87437 24.4847C5.92603 24.4924 5.97855 24.4924 6.03022 24.4847L6.24841 24.5627H6.49778H6.77831C6.95461 24.5707 7.13045 24.5387 7.29263 24.4691C7.34949 24.4377 7.39509 24.3892 7.42303 24.3305C7.45098 24.2718 7.45988 24.2058 7.44849 24.1419Z" fill="white"/>
<path fill-rule="evenodd" clip-rule="evenodd" d="M8.33984 22.4429H8.82299V21.8818H9.53992V22.4429H10.2413V23.0352H9.53992V23.9703C9.50882 24.1193 9.50882 24.2732 9.53992 24.4223C9.56008 24.4699 9.59551 24.5096 9.64064 24.535C9.68577 24.5604 9.73805 24.5701 9.78928 24.5625H9.97631H10.1477L10.3036 25.108L9.92955 25.2327H9.52434C9.41922 25.2435 9.31303 25.2309 9.21333 25.1959C9.11364 25.1609 9.02293 25.1043 8.94768 25.0301C8.80729 24.8542 8.74028 24.6308 8.76065 24.4067V23.0663H8.35543L8.33984 22.4429Z" fill="white"/>
<path fill-rule="evenodd" clip-rule="evenodd" d="M10.3803 24.7339C10.3799 24.6253 10.4187 24.5202 10.4894 24.4378C10.5284 24.3999 10.575 24.3707 10.6259 24.3519C10.6769 24.3331 10.7313 24.3252 10.7855 24.3287C10.8374 24.3254 10.8894 24.3335 10.9378 24.3524C10.9863 24.3712 11.03 24.4003 11.0661 24.4378C11.1374 24.52 11.1766 24.6251 11.1766 24.7339C11.1766 24.8427 11.1374 24.9478 11.0661 25.03C10.9892 25.0997 10.8893 25.1386 10.7855 25.1391C10.7311 25.1439 10.6763 25.1367 10.625 25.118C10.5737 25.0993 10.5271 25.0696 10.4885 25.031C10.4498 24.9924 10.4201 24.9457 10.4015 24.8944C10.3828 24.8431 10.3756 24.7883 10.3803 24.7339Z" fill="white"/>
<path fill-rule="evenodd" clip-rule="evenodd" d="M13.1378 22.2091H12.9352H12.7793V23.2689H13.3872C13.4763 23.257 13.5616 23.2251 13.6365 23.1754C13.7126 23.1353 13.777 23.0762 13.8236 23.0039C13.8507 22.9018 13.8507 22.7944 13.8236 22.6922C13.843 22.605 13.843 22.5145 13.8236 22.4273C13.7767 22.3592 13.712 22.3053 13.6365 22.2714C13.5918 22.2463 13.5449 22.2255 13.4963 22.2091H13.1378ZM12.0312 21.6324H12.53H13.0755C13.2674 21.617 13.4602 21.617 13.6521 21.6324C13.8311 21.6636 14.0045 21.7214 14.1664 21.8039C14.3203 21.8954 14.4489 22.024 14.5405 22.1779C14.6492 22.3616 14.7033 22.5724 14.6963 22.7857C14.6992 22.9849 14.6566 23.1822 14.5717 23.3624C14.487 23.5113 14.3698 23.6392 14.2288 23.7364C14.0852 23.843 13.9205 23.9174 13.7456 23.9546C13.568 24.0046 13.3846 24.0308 13.2002 24.0326H12.7793V25.2482H12.0312V21.6324Z" fill="white"/>
<path fill-rule="evenodd" clip-rule="evenodd" d="M16.1759 22.9261C16.0926 22.9202 16.0091 22.9326 15.9311 22.9622C15.853 22.9918 15.7824 23.0379 15.7239 23.0975C15.6127 23.2168 15.5466 23.3711 15.5369 23.5339H16.6123C16.6376 23.3818 16.6041 23.2259 16.5188 23.0975C16.4784 23.0447 16.4266 23.0018 16.3672 22.9721C16.3077 22.9424 16.2423 22.9267 16.1759 22.9261ZM17.2357 24.8742C17.0959 24.9773 16.9369 25.0514 16.7681 25.0924C16.5674 25.1615 16.357 25.1983 16.1447 25.2015C15.9599 25.2159 15.7741 25.1883 15.6014 25.1208C15.4287 25.0534 15.2735 24.9478 15.1473 24.8119C14.9191 24.519 14.803 24.1542 14.82 23.7833C14.8065 23.5917 14.8313 23.3993 14.8928 23.2174C14.9544 23.0355 15.0514 22.8676 15.1784 22.7235C15.3154 22.6001 15.4754 22.5049 15.6493 22.4434C15.8231 22.3819 16.0073 22.3552 16.1915 22.365C16.3313 22.3497 16.4724 22.3497 16.6123 22.365C16.7422 22.4048 16.8638 22.4682 16.9707 22.552C17.0869 22.6353 17.1784 22.7484 17.2357 22.8793C17.3008 23.0483 17.3325 23.2282 17.3292 23.4092C17.3369 23.487 17.3369 23.5653 17.3292 23.643C17.336 23.7312 17.336 23.8198 17.3292 23.908H15.5213C15.5194 24.0964 15.5859 24.2791 15.7083 24.4223C15.8729 24.5485 16.0782 24.6096 16.285 24.5937C16.4241 24.6188 16.5667 24.6188 16.7058 24.5937L17.0019 24.4534L17.2357 24.8742Z" fill="white"/>
<path fill-rule="evenodd" clip-rule="evenodd" d="M19.5925 24.9678L19.1406 25.1236H18.7354C18.6302 25.1345 18.524 25.1219 18.4244 25.0869C18.3247 25.0518 18.2339 24.9952 18.1587 24.921C18.0238 24.7428 17.9625 24.5197 17.9873 24.2976V22.9573H17.582V22.365H17.9873V21.804H18.6886V22.365H19.3899V22.9573H18.6886V23.8924C18.6575 24.0414 18.6575 24.1953 18.6886 24.3444C18.7088 24.3921 18.7442 24.4317 18.7893 24.4571C18.8344 24.4825 18.8867 24.4922 18.938 24.4846H19.125H19.2653C19.3366 24.6683 19.4485 24.8334 19.5925 24.9678Z" fill="white"/>
<path fill-rule="evenodd" clip-rule="evenodd" d="M21.088 22.9261C21.0023 22.919 20.916 22.9307 20.8353 22.9603C20.7546 22.9899 20.6812 23.0368 20.6204 23.0976C20.5198 23.222 20.46 23.3744 20.449 23.534H21.5867C21.6075 23.3799 21.5684 23.2237 21.4776 23.0976C21.435 23.0357 21.3759 22.9868 21.3071 22.9566C21.2383 22.9263 21.1624 22.9158 21.088 22.9261ZM22.1478 24.8743C22.0051 24.9725 21.8471 25.0463 21.6802 25.0925C21.4741 25.1617 21.2586 25.1985 21.0412 25.2016C20.8566 25.2137 20.6715 25.1851 20.4991 25.1178C20.3268 25.0505 20.1713 24.9461 20.0438 24.812C19.8176 24.5127 19.7069 24.142 19.732 23.7677C19.7149 23.5759 19.738 23.3826 19.7997 23.2001C19.8614 23.0176 19.9604 22.85 20.0905 22.7079C20.2247 22.585 20.382 22.49 20.5532 22.4285C20.7245 22.3669 20.9062 22.3401 21.088 22.3495C21.2278 22.3334 21.369 22.3334 21.5088 22.3495C21.6421 22.3928 21.7682 22.4558 21.8828 22.5365C21.9943 22.6207 22.0806 22.7339 22.1322 22.8638C22.2101 23.0293 22.2475 23.2109 22.2413 23.3937C22.249 23.4714 22.249 23.5497 22.2413 23.6275C22.2475 23.7157 22.2475 23.8042 22.2413 23.8924H20.4178C20.4159 23.9873 20.4328 24.0816 20.4675 24.1699C20.5023 24.2582 20.5543 24.3387 20.6204 24.4067C20.778 24.5348 20.9793 24.5963 21.1815 24.5782C21.326 24.6017 21.4734 24.6017 21.6179 24.5782L21.8984 24.4379L22.1478 24.8743Z" fill="white"/>
<path fill-rule="evenodd" clip-rule="evenodd" d="M24.0317 22.3807C24.174 22.3943 24.3148 22.4204 24.4525 22.4586C24.323 22.6302 24.2471 22.8363 24.2343 23.0509C24.1362 23.0359 24.0363 23.0359 23.9382 23.0509C23.8121 23.046 23.6874 23.0785 23.5797 23.1444C23.4901 23.2165 23.4248 23.3144 23.3927 23.4249V25.1237H22.6758V22.443H23.2369V22.8171C23.2941 22.6861 23.3857 22.5731 23.5018 22.4898C23.5785 22.4374 23.6648 22.4008 23.7558 22.3821C23.8468 22.3634 23.9406 22.3629 24.0317 22.3807Z" fill="white"/>
<path fill-rule="evenodd" clip-rule="evenodd" d="M24.7201 24.4223H24.8915H25.0941H25.3123H25.5461C25.6334 24.4418 25.7238 24.4418 25.8111 24.4223C25.8442 24.3998 25.8714 24.3696 25.8904 24.3343C25.9094 24.2991 25.9196 24.2597 25.9202 24.2197C25.9215 24.1772 25.9083 24.1356 25.8828 24.1016C25.8574 24.0676 25.821 24.0433 25.7799 24.0327C25.6815 23.9821 25.5766 23.9454 25.4682 23.9236L25.1721 23.8145C25.0702 23.7868 24.9748 23.7391 24.8915 23.6742C24.803 23.6064 24.7288 23.5216 24.6733 23.4248C24.6134 23.3041 24.5865 23.1697 24.5954 23.0352C24.5882 22.923 24.6054 22.8106 24.6458 22.7057C24.6861 22.6008 24.7487 22.5058 24.8292 22.4274C25.0349 22.2723 25.2889 22.195 25.5461 22.2092C25.8866 22.2005 26.2255 22.2588 26.5436 22.3806L26.3877 22.9261L26.0604 22.817C25.9206 22.8017 25.7795 22.8017 25.6396 22.817C25.5523 22.798 25.462 22.798 25.3747 22.817C25.3519 22.8773 25.3519 22.9438 25.3747 23.004C25.3765 23.0436 25.3891 23.0819 25.4111 23.1148C25.433 23.1478 25.4636 23.1741 25.4994 23.1911L25.8266 23.3002L26.1228 23.3937C26.2247 23.4213 26.32 23.469 26.4033 23.5339C26.4953 23.598 26.5702 23.6836 26.6215 23.7833C26.6976 23.9522 26.7189 24.1407 26.6826 24.3223C26.6463 24.504 26.5541 24.6697 26.4189 24.7964C26.1854 24.9818 25.8899 25.071 25.5929 25.0457C25.4114 25.0617 25.2289 25.0617 25.0474 25.0457C24.8993 25.0181 24.757 24.9654 24.6266 24.8899L24.7201 24.4223Z" fill="white"/>
<path fill-rule="evenodd" clip-rule="evenodd" d="M27.6192 24.5157H27.8218H28.0711C28.5075 24.5157 28.7257 24.2195 28.7257 23.6429C28.7394 23.4457 28.6903 23.2493 28.5854 23.0818C28.5388 23.0193 28.4774 22.9695 28.4066 22.9368C28.3358 22.9042 28.258 22.8897 28.1802 22.8948C28.0516 22.8877 27.9246 22.9263 27.8218 23.0039C27.7217 23.0826 27.6504 23.1922 27.6192 23.3156V24.5157ZM26.9022 21.5544H27.6192V22.6766C27.7057 22.5818 27.8122 22.5073 27.9309 22.4584C28.063 22.3997 28.2072 22.373 28.3517 22.3805C28.4981 22.37 28.645 22.3942 28.7804 22.451C28.9158 22.5079 29.0359 22.5959 29.1309 22.7078C29.3355 22.9985 29.4345 23.3505 29.4115 23.7052C29.4181 23.9183 29.381 24.1305 29.3024 24.3286C29.247 24.5044 29.1509 24.6646 29.0218 24.7962C28.8985 24.9242 28.7499 25.025 28.5854 25.0923C28.3949 25.1574 28.1945 25.1891 27.9932 25.1858C27.7706 25.2119 27.5457 25.2119 27.323 25.1858C27.1635 25.1677 27.0066 25.1311 26.8555 25.0767L26.9022 21.5544Z" fill="white"/>
<path fill-rule="evenodd" clip-rule="evenodd" d="M30.6395 22.4429V24.0014C30.627 24.1679 30.6593 24.3347 30.733 24.4846C30.7701 24.5398 30.8218 24.5836 30.8823 24.6111C30.9429 24.6387 31.0099 24.6488 31.0759 24.6404C31.2116 24.6455 31.3445 24.6012 31.45 24.5157C31.5523 24.4427 31.6287 24.339 31.6681 24.2196V22.4429H32.3851V24.2975C32.3773 24.4429 32.3773 24.5886 32.3851 24.7339C32.3764 24.8637 32.3764 24.9938 32.3851 25.1236H31.8863L31.7461 24.7028C31.6613 24.8541 31.5302 24.9743 31.372 25.0456C31.2107 25.1528 31.0201 25.2073 30.8265 25.2015C30.6972 25.219 30.5662 25.219 30.4369 25.2015C30.3264 25.1694 30.2285 25.1041 30.1564 25.0145C30.0831 24.9111 30.0302 24.7947 30.0005 24.6716C29.9738 24.496 29.9738 24.3173 30.0005 24.1417V22.4429H30.6395Z" fill="white"/>
<path fill-rule="evenodd" clip-rule="evenodd" d="M35.6442 24.5001C35.7754 24.5062 35.9055 24.4737 36.0183 24.4066C36.1084 24.3606 36.184 24.2904 36.2365 24.204V23.0507C36.0836 22.9879 35.9182 22.9612 35.7533 22.9727C35.6676 22.9646 35.581 22.9757 35.5001 23.0054C35.4192 23.035 35.346 23.0825 35.2858 23.1442C35.1587 23.3202 35.0979 23.5355 35.1143 23.752C35.0984 23.9543 35.1475 24.1563 35.2546 24.3287C35.3036 24.3834 35.3637 24.427 35.4309 24.4566C35.4981 24.4862 35.5708 24.501 35.6442 24.5001ZM36.9378 25.0144C36.9511 25.175 36.9287 25.3366 36.8721 25.4875C36.8155 25.6384 36.7262 25.7749 36.6105 25.8872C36.3371 26.0908 36 26.1902 35.6598 26.1677C35.453 26.1965 35.2432 26.1965 35.0364 26.1677C34.9071 26.1496 34.7812 26.1128 34.6624 26.0586C34.6998 25.9514 34.731 25.8422 34.7559 25.7313C34.7647 25.6745 34.7647 25.6167 34.7559 25.5599V25.482L35.052 25.6067C35.1916 25.6257 35.3332 25.6257 35.4728 25.6067C35.5811 25.6253 35.6918 25.6253 35.8001 25.6067C35.8838 25.5883 35.96 25.5448 36.0183 25.482C36.0773 25.4332 36.1207 25.3682 36.143 25.295C36.1515 25.2121 36.1515 25.1285 36.143 25.0456V24.843C36.0794 24.9477 35.9796 25.0254 35.8624 25.0612C35.7177 25.0816 35.5708 25.0816 35.4261 25.0612C35.2765 25.0704 35.1267 25.0473 34.9869 24.9936C34.8471 24.9398 34.7204 24.8565 34.6156 24.7495C34.414 24.4697 34.3199 24.1267 34.3507 23.7832C34.3255 23.5923 34.3443 23.3983 34.4057 23.2158C34.4671 23.0334 34.5693 22.8674 34.7047 22.7305C34.84 22.5937 35.0049 22.4896 35.1866 22.4262C35.3684 22.3628 35.5622 22.3419 35.7533 22.3649C35.9712 22.3471 36.1901 22.3471 36.4079 22.3649L36.8911 22.474L36.9378 25.0144Z" fill="white"/>
<path fill-rule="evenodd" clip-rule="evenodd" d="M34.1177 22.3805C34.2827 22.3859 34.4458 22.4175 34.6008 22.474C34.4473 22.6308 34.3489 22.8332 34.3203 23.0507C34.2223 23.0344 34.1222 23.0344 34.0242 23.0507C33.8981 23.0458 33.7733 23.0783 33.6657 23.1442C33.5761 23.2163 33.5108 23.3143 33.4787 23.4247V25.1236H32.7773V22.4429H33.3228L33.4008 22.8169C33.4637 22.6849 33.5605 22.572 33.6813 22.4896C33.8081 22.4002 33.9637 22.3613 34.1177 22.3805Z" fill="white"/>
<path fill-rule="evenodd" clip-rule="evenodd" d="M7.15288 31.124C7.15166 31.5273 7.19345 31.9296 7.27756 32.3241C7.34167 32.6568 7.46862 32.9741 7.65161 33.2592C7.80739 33.5146 8.02781 33.7242 8.29061 33.8671C8.57968 34.0154 8.90084 34.0904 9.22573 34.0853C9.52109 34.1012 9.81606 34.0474 10.0868 33.9283C10.3575 33.8092 10.5965 33.628 10.7843 33.3995C11.2058 32.7193 11.3971 31.9214 11.3298 31.124C11.3351 30.7316 11.2985 30.3398 11.2207 29.9551C11.1563 29.6177 11.0294 29.2953 10.8466 29.0044C10.6826 28.7517 10.4643 28.5387 10.2076 28.381C9.90809 28.2307 9.57638 28.1557 9.24132 28.1628C8.94417 28.1448 8.6471 28.1993 8.37563 28.3214C8.10416 28.4436 7.8664 28.6298 7.68278 28.8642C7.27495 29.5438 7.08968 30.3339 7.15288 31.124ZM5.18912 31.124C5.17888 30.4639 5.27357 29.8063 5.46965 29.1759C5.61965 28.638 5.89165 28.142 6.26451 27.7264C6.61319 27.3353 7.04437 27.0266 7.52692 26.8225C8.06789 26.6103 8.64469 26.5045 9.22573 26.5108C9.83736 26.5122 10.4422 26.6395 11.0025 26.8848C11.49 27.0946 11.9221 27.4147 12.2649 27.8199C12.6073 28.2572 12.8662 28.7538 13.0286 29.285C13.2038 29.8926 13.2878 30.5229 13.2779 31.1552C13.2898 31.8206 13.1951 32.4835 12.9974 33.119C12.8359 33.6553 12.5593 34.15 12.187 34.5684C11.8356 34.9634 11.3984 35.2726 10.909 35.4724C10.3734 35.6844 9.8017 35.7903 9.22573 35.7841C8.62131 35.7925 8.02168 35.6758 7.46459 35.4412C6.97084 35.2424 6.53623 34.9204 6.20217 34.5061C5.85081 34.0746 5.59097 33.5761 5.43849 33.041C5.25863 32.4184 5.17454 31.772 5.18912 31.124Z" fill="white"/>
<path fill-rule="evenodd" clip-rule="evenodd" d="M17.3172 28.2095H16.8029H16.4133V30.8434H16.5691H17.2081C17.452 30.8589 17.6967 30.8589 17.9406 30.8434C18.1659 30.8133 18.383 30.7392 18.5796 30.6252C18.7714 30.5168 18.9324 30.3612 19.0472 30.1732C19.1684 29.9374 19.2274 29.6745 19.2186 29.4095C19.2254 29.1794 19.1659 28.9522 19.0472 28.7549C18.9381 28.599 18.794 28.4709 18.6264 28.3809C18.4286 28.2857 18.2189 28.2175 18.003 28.1783C17.7739 28.1727 17.5448 28.1831 17.3172 28.2095ZM14.5586 26.7756L15.8054 26.6197C16.273 26.6197 16.725 26.6197 17.1925 26.6197C17.6623 26.6173 18.1315 26.6538 18.5952 26.7288C19.0497 26.7833 19.4892 26.9263 19.8888 27.1496C20.2675 27.3674 20.5841 27.6786 20.8083 28.0536C21.0863 28.5239 21.2166 29.0669 21.1824 29.6121C21.1916 30.1028 21.0848 30.5888 20.8707 31.0304C20.6724 31.4116 20.3833 31.7381 20.0291 31.9811C19.6744 32.2398 19.2717 32.4253 18.8446 32.5266C18.4013 32.6391 17.9459 32.6967 17.4886 32.698H16.4133V35.6748H14.5586V26.7756Z" fill="white"/>
<path fill-rule="evenodd" clip-rule="evenodd" d="M22.2852 26.6978H27.9271V28.3342H24.1398V30.2668H27.5686V31.9033H24.1398V33.9138H27.9894V35.5502H22.2852V26.6978Z" fill="white"/>
<path fill-rule="evenodd" clip-rule="evenodd" d="M31.8416 30.9371L31.0779 29.6123H31.0312L31.2338 30.9526V35.5503H29.4727V26.6355H30.813L34.4288 31.3579L35.1457 32.6515H35.2237L35.0211 31.3423V26.6978H36.7666V35.6127H35.4263L31.8416 30.9371Z" fill="white"/>
</svg>
