<svg width="29" height="30" viewBox="0 0 29 30" fill="none" xmlns="http://www.w3.org/2000/svg">
<path d="M14.2377 9.7802C13.4852 9.7802 12.9889 9.85332 12.703 9.92709V14.8107C13.0296 14.8844 13.4129 14.9086 13.9466 14.9086C15.9117 14.9086 17.1243 13.9018 17.1243 12.2096C17.125 10.6877 16.0808 9.7802 14.2377 9.7802Z" fill="#051D5A"/>
<path d="M25.488 0H3.51263C1.57207 0 0 1.59108 0 3.55364V26.447C0 28.4096 1.57271 30 3.51263 30H25.488C27.4286 30 29 28.4089 29 26.447V3.55364C29.0006 1.59042 27.4286 0 25.488 0ZM26.8361 25.877C26.8361 26.9458 25.9804 27.8102 24.9253 27.8102H4.03536C2.97957 27.8102 2.12384 26.9445 2.12384 25.877V4.16474C2.12384 3.09728 2.97957 2.23156 4.03536 2.23156H24.9246C25.9804 2.23156 26.8355 3.09728 26.8355 4.16474L26.8361 25.877Z" fill="#051D5A"/>
<path d="M24.9246 3.59543H4.03536C3.7243 3.59543 3.47133 3.85005 3.47133 4.1654V25.8777C3.47133 26.1911 3.72366 26.4477 4.03536 26.4477H24.9246C25.235 26.4477 25.488 26.1917 25.488 25.8777V4.16474C25.488 3.85005 25.2357 3.59543 24.9246 3.59543ZM19.2888 16.0387C18.0284 17.2407 16.1543 17.7806 13.9705 17.7806C13.4858 17.7806 13.0709 17.7558 12.703 17.7069V23.6363H9.06778V7.3012C10.2113 7.10468 11.8015 6.95713 14.0576 6.95713C16.3383 6.95713 17.9594 7.39913 19.052 8.28313C20.0942 9.11687 20.7963 10.4918 20.7963 12.111C20.7963 13.7321 20.2607 15.1071 19.2888 16.0387Z" fill="#051D5A"/>
</svg>
