<svg width="165" height="42" viewBox="0 0 165 42" fill="none" xmlns="http://www.w3.org/2000/svg">
<path fill-rule="evenodd" clip-rule="evenodd" d="M120.556 26.4273V16.9913H115.475V26.0313H109.899V16.9913H104.884V26.5262C104.884 29.4626 104.884 31.3102 109.272 31.3102H116.201C120.457 31.3102 120.589 29.4296 120.589 26.4273H120.556Z" fill="white"/>
<path fill-rule="evenodd" clip-rule="evenodd" d="M87.9921 31.3098H93.007V23.4245H98.9787V31.2768H103.829V25.0081C103.829 22.8966 102.872 21.9398 101.816 21.7088C102.406 21.5713 102.93 21.2326 103.297 20.7509C103.664 20.2692 103.852 19.6747 103.829 19.0694V17.0898H98.9787V19.7952H93.007V17.0898H87.9921V31.3098Z" fill="white"/>
<path fill-rule="evenodd" clip-rule="evenodd" d="M56.8138 31.2772H70.5058V26.2293H62.0597V23.6229H69.879V19.5977H62.0597V16.9913H56.8138V31.2772Z" fill="white"/>
<path fill-rule="evenodd" clip-rule="evenodd" d="M40.3173 31.2772H45.3652V23.8208H52.7886C56.0879 23.8208 55.89 21.6433 55.89 19.7627V16.9913H51.139V19.5977H45.2993V16.9913H40.3173V31.2772Z" fill="white"/>
<path fill-rule="evenodd" clip-rule="evenodd" d="M71.9245 16.3315H87.0023V11.5146H71.9245V16.3315Z" fill="white"/>
<path fill-rule="evenodd" clip-rule="evenodd" d="M76.7415 31.2772H81.9543V16.9913H76.7415V31.2772Z" fill="white"/>
<path fill-rule="evenodd" clip-rule="evenodd" d="M142.694 31.2772H147.907V16.9913H142.694V31.2772Z" fill="white"/>
<path fill-rule="evenodd" clip-rule="evenodd" d="M56.8468 16.3315H70.5058V11.5146H56.8468V16.3315Z" fill="white"/>
<path fill-rule="evenodd" clip-rule="evenodd" d="M147.907 16.3315V11.5146H142.661V16.3315H147.907Z" fill="white"/>
<path fill-rule="evenodd" clip-rule="evenodd" d="M40.3173 11.4815H52.1948C54.8672 11.4815 55.824 13.0322 55.824 14.3849V16.3315H40.3173V11.4815Z" fill="white"/>
<path fill-rule="evenodd" clip-rule="evenodd" d="M87.9921 11.5146H100.034C102.74 11.5146 103.697 13.0652 103.697 14.3849V16.3645H87.9921V11.5146Z" fill="white"/>
<path fill-rule="evenodd" clip-rule="evenodd" d="M112.374 11.4815H116.168C120.259 11.4815 120.556 13.3621 120.556 16.3315H112.374V11.4815Z" fill="white"/>
<path fill-rule="evenodd" clip-rule="evenodd" d="M113.133 11.4815H109.306C105.247 11.4815 104.917 13.3621 104.917 16.3315H113.133V11.4815Z" fill="white"/>
<path fill-rule="evenodd" clip-rule="evenodd" d="M149.161 31.2443H154.176V23.392H160.016V31.2443H164.964V24.9756C164.964 22.8311 164.008 21.8743 162.952 21.6763C163.545 21.532 164.069 21.1869 164.436 20.6997C164.803 20.2125 164.989 19.6133 164.964 19.0039V17.0243H159.983V19.7627H154.143V17.0243H149.161V31.3432V31.2443Z" fill="white"/>
<path fill-rule="evenodd" clip-rule="evenodd" d="M149.161 11.4485H161.203C163.909 11.4485 164.866 12.9991 164.866 14.3519V16.2984H149.161V11.4485Z" fill="white"/>
<path fill-rule="evenodd" clip-rule="evenodd" d="M139.461 11.4815H133.192L132.598 16.2985L139.923 16.3315L139.461 11.4815Z" fill="white"/>
<path fill-rule="evenodd" clip-rule="evenodd" d="M122.635 16.9582H130.388L131.378 20.7854L132.434 17.0572H140.088L141.705 31.2772H136.657L135.337 21.5443L133.522 31.2772H129.266L126.99 21.3463L125.967 31.2772H121.018L122.635 16.9582Z" fill="white"/>
<path fill-rule="evenodd" clip-rule="evenodd" d="M123.229 11.5146H129.398L130.289 16.3645H122.635L123.229 11.5146Z" fill="white"/>
<path fill-rule="evenodd" clip-rule="evenodd" d="M18.542 0.363444L26.6912 14.4184H10.4917L18.542 0.363444Z" fill="white"/>
<path d="M26.9882 14.6159H10.1618L10.3268 14.3189L18.542 0L26.9882 14.6159ZM10.8217 14.2529H26.3943L18.575 0.725842L10.8217 14.2529Z" fill="white"/>
<path fill-rule="evenodd" clip-rule="evenodd" d="M15.3747 2.30941L8.51214 13.7579L1.41867 9.56784L15.3747 2.30941Z" fill="white"/>
<path d="M8.57818 14.0224L1.0558 9.56832L1.35273 9.40336L15.8696 1.84798L8.57818 14.0224ZM1.81463 9.60131L8.41321 13.4945L15.0118 2.77178L1.81463 9.60131Z" fill="white"/>
<path fill-rule="evenodd" clip-rule="evenodd" d="M29.0998 13.923L36.0943 9.53495L21.9733 2.37549L29.0998 13.923Z" fill="white"/>
<path d="M29.0338 14.2535V14.0885L21.5774 1.98014L36.5562 9.6015L29.0338 14.2535ZM22.4352 2.90395L29.0338 13.7256L35.6324 9.6345L22.4352 2.90395Z" fill="white"/>
<path fill-rule="evenodd" clip-rule="evenodd" d="M18.707 30.3203L26.5263 16.5293L10.7227 16.6942L18.707 30.3203Z" fill="white"/>
<path d="M18.707 30.7493L10.3928 16.5623H26.8892L18.707 30.7493ZM11.0526 16.9252L18.707 30.1224L26.1964 16.9252H11.0526Z" fill="white"/>
<path fill-rule="evenodd" clip-rule="evenodd" d="M36.8861 27.6483V11.6467L29.7266 15.7049L36.8861 27.6483Z" fill="white"/>
<path d="M37.051 28.3077L29.4627 15.6384L37.051 11.3494V28.3077ZM29.9905 15.7704L36.5891 26.988V11.9762L29.9905 15.7704Z" fill="white"/>
<path fill-rule="evenodd" clip-rule="evenodd" d="M36.4242 30.9144L28.3409 17.4863L20.4556 30.9474L36.4242 30.9144Z" fill="white"/>
<path d="M20.1257 31.1449L28.3409 17.1229L36.7211 31.1119L20.1257 31.1449ZM28.3739 17.9477L20.7856 30.7489H36.0943L28.3739 17.9477Z" fill="white"/>
<path fill-rule="evenodd" clip-rule="evenodd" d="M16.8593 30.9144L8.80908 17.4863L0.923777 30.9474L16.8593 30.9144Z" fill="white"/>
<path d="M0.593872 31.1449L8.8091 17.1229L17.1893 31.1119L0.593872 31.1449ZM8.8091 17.9477L1.25373 30.7489H16.4965L8.8091 17.9477Z" fill="white"/>
<path fill-rule="evenodd" clip-rule="evenodd" d="M0.329976 27.7473L0.527932 11.6798L7.58841 15.8699L0.329976 27.7473Z" fill="white"/>
<path d="M0 28.4067L0.230949 11.3824L7.72034 15.8034L0 28.4067ZM0.593873 11.9103L0.395918 26.988L7.22545 15.8364L0.593873 11.9103Z" fill="white"/>
<path fill-rule="evenodd" clip-rule="evenodd" d="M17.3872 41.6702L17.4862 33.389L3.5962 33.422L17.3872 41.6702Z" fill="white"/>
<path d="M17.5523 42.0005L2.90342 33.2243H17.6513L17.5523 42.0005ZM4.35511 33.5873L17.3213 41.3406V33.5543L4.35511 33.5873Z" fill="white"/>
<path fill-rule="evenodd" clip-rule="evenodd" d="M19.8617 41.6371L19.7628 33.3559L33.6528 33.3889L19.8617 41.6371Z" fill="white"/>
<path d="M19.7957 41.9674V33.1583H34.5436L19.7957 41.9674ZM19.7957 33.5542V41.3075L32.9929 33.5872L19.7957 33.5542Z" fill="white"/>
</svg>
