<svg width="36" height="36" viewBox="0 0 36 36" fill="none" xmlns="http://www.w3.org/2000/svg">
<path d="M12.7362 6.32047C13.1481 6.73242 13.8159 6.73228 14.2277 6.32047C14.6396 5.90859 14.6396 5.24085 14.2277 4.82897L13.7688 4.37005H22.2323L21.7734 4.82897C21.3615 5.24085 21.3615 5.90859 21.7734 6.32047C22.1853 6.73242 22.8532 6.73228 23.2649 6.32047L25.5242 4.06117C25.9361 3.64929 25.9361 2.98155 25.5242 2.56967L23.2649 0.310375C22.8531 -0.101505 22.1853 -0.101505 21.7734 0.310375C21.3615 0.722255 21.3615 1.39 21.7734 1.80188L22.2323 2.2608H13.7688L14.2277 1.80188C14.6396 1.39 14.6396 0.722255 14.2277 0.310375C13.8159 -0.101505 13.1481 -0.101505 12.7362 0.310375L10.4769 2.56967C10.065 2.98155 10.065 3.64929 10.4769 4.06117L12.7362 6.32047Z" fill="#F04438"/>
<path d="M34.9451 22.5946H31.481V20.2602C31.481 18.3071 30.4705 16.5868 28.9456 15.5911C29.8099 14.7799 30.3513 13.6285 30.3513 12.3524C30.3513 9.90211 28.3579 7.90869 25.9076 7.90869C23.4573 7.90869 21.4639 9.90211 21.4639 12.3524C21.4639 13.6285 22.0054 14.7799 22.8697 15.5911C21.3449 16.5867 20.3343 18.3071 20.3343 20.2602V22.5946H15.6655V20.2602C15.6655 18.3072 14.6549 16.5868 13.1301 15.5911C13.9944 14.7799 14.5359 13.6285 14.5359 12.3524C14.5359 9.90211 12.5424 7.90869 10.0922 7.90869C7.64194 7.90869 5.64845 9.90211 5.64845 12.3524C5.64845 13.6285 6.18993 14.7799 7.0542 15.5911C5.52934 16.5867 4.51875 18.3071 4.51875 20.2602V22.5946H1.05468C0.472216 22.5946 0 23.0668 0 23.6493V28.168C0 28.7505 0.472216 29.2227 1.05468 29.2227H4.51875V34.9461C4.51875 35.5285 4.99096 36.0008 5.57343 36.0008H14.6109C15.1933 36.0008 15.6655 35.5285 15.6655 34.9461V29.2227H20.3343V34.9461C20.3343 35.5285 20.8065 36.0008 21.3889 36.0008H30.4264C31.0088 36.0008 31.481 35.5285 31.481 34.9461V29.2227H34.9451C35.5276 29.2227 35.9998 28.7505 35.9998 28.168V23.6493C35.9998 23.0668 35.5276 22.5946 34.9451 22.5946ZM4.51875 25.9075V27.1133H2.10936V24.7039H4.74494C4.5989 25.0772 4.51875 25.4832 4.51875 25.9075ZM10.0921 10.0181C11.3793 10.0181 12.4265 11.0654 12.4265 12.3525C12.4265 13.6397 11.3792 14.6868 10.0921 14.6868C8.80497 14.6868 7.75774 13.6396 7.75774 12.3525C7.75774 11.0653 8.80497 10.0181 10.0921 10.0181ZM9.03743 33.8914H6.62811V25.9087C6.62811 25.5869 6.75334 25.2846 6.98171 25.0565C7.20875 24.8292 7.51102 24.704 7.83277 24.704C8.49701 24.704 9.03743 25.2444 9.03743 25.9087V33.8914ZM13.5562 33.8914H11.1468V25.9087C11.1468 25.5869 11.272 25.2846 11.5004 25.0565C11.7274 24.8292 12.0297 24.704 12.3514 24.704C13.0157 24.704 13.5561 25.2444 13.5561 25.9087V33.8914H13.5562ZM13.5562 22.5946H12.3503C11.4785 22.5946 10.6843 22.9331 10.0922 23.4856C9.50001 22.9331 8.70576 22.5946 7.83389 22.5946H6.62811V20.2602C6.62811 18.3501 8.18208 16.7961 10.0922 16.7961C12.0023 16.7961 13.5562 18.3501 13.5562 20.2602V22.5946H13.5562ZM20.3343 25.9087V27.1133H15.6655V25.9075C15.6655 25.4832 15.5853 25.0772 15.4393 24.704H20.5609C20.4146 25.0775 20.3343 25.4839 20.3343 25.9087ZM25.9077 10.0181C27.1949 10.0181 28.242 11.0654 28.242 12.3525C28.242 13.6397 27.1949 14.6868 25.9077 14.6868C24.6205 14.6868 23.5733 13.6396 23.5733 12.3525C23.5733 11.0653 24.6205 10.0181 25.9077 10.0181ZM24.853 33.8914H22.4436V25.9087C22.4436 25.5868 22.5688 25.2846 22.7972 25.0565C23.0243 24.8292 23.3265 24.704 23.6483 24.704C24.3125 24.704 24.8529 25.2444 24.8529 25.9087V33.8914H24.853ZM29.3717 33.8914H26.9623V25.9087C26.9623 25.5868 27.0875 25.2846 27.3159 25.0565C27.5429 24.8292 27.8452 24.704 28.167 24.704C28.8312 24.704 29.3716 25.2444 29.3716 25.9087V33.8914H29.3717ZM29.3717 22.5946H28.1659C27.2941 22.5946 26.4999 22.9331 25.9078 23.4856C25.3156 22.9331 24.5213 22.5946 23.6495 22.5946H22.4436V20.2602C22.4436 18.3501 23.9976 16.7961 25.9077 16.7961C27.8178 16.7961 29.3718 18.3501 29.3718 20.2602V22.5946H29.3717ZM33.8904 27.1133H31.481V25.9075C31.481 25.4832 31.4008 25.0772 31.2548 24.704H33.8904V27.1133Z" fill="#F04438"/>
</svg>
