<svg width="37" height="37" viewBox="0 0 37 37" fill="none" xmlns="http://www.w3.org/2000/svg">
<path fill-rule="evenodd" clip-rule="evenodd" d="M22.2277 2.11356C22.8104 2.11356 23.2828 1.64119 23.2828 1.05849C23.2828 0.47579 22.8104 0.00341797 22.2277 0.00341797C21.645 0.00341797 21.1726 0.47579 21.1726 1.05849C21.1726 1.64119 21.645 2.11356 22.2277 2.11356ZM9.56583 10.6243C10.1485 10.6243 10.6209 10.1519 10.6209 9.56925C10.6209 8.98654 10.1485 8.51417 9.56583 8.51417C8.98313 8.51417 8.51076 8.98654 8.51076 9.56925C8.51076 10.1519 8.98313 10.6243 9.56583 10.6243ZM29.6127 9.56931C29.6127 11.3146 28.1928 12.7345 26.4475 12.7345C24.7022 12.7345 23.2823 11.3146 23.2821 9.56931C23.2821 9.01406 23.4284 8.46725 23.7051 7.98804L25.5337 4.82142C25.7222 4.49505 26.0705 4.29395 26.4474 4.29395C26.8244 4.29395 27.1726 4.49505 27.3611 4.82142L29.1898 7.98797C29.4665 8.46725 29.6127 9.01406 29.6127 9.56931ZM26.906 8.24779C26.781 8.03365 26.63 7.77487 26.4475 7.45882C26.2651 7.77458 26.1142 8.03317 25.9893 8.24719L25.9892 8.24741C25.432 9.20197 25.3924 9.26975 25.3924 9.56931C25.3924 10.1511 25.8657 10.6244 26.4475 10.6244C27.0293 10.6244 27.5026 10.1511 27.5026 9.56931C27.5026 9.26975 27.4628 9.2016 26.906 8.24779ZM15.8975 8.44399C17.6428 8.44399 19.0627 7.02407 19.0627 5.27877C19.0627 4.72353 18.9165 4.17672 18.6397 3.69743L16.8112 0.530883C16.6227 0.204444 16.2744 0.00341797 15.8975 0.00341797C15.5205 0.00341797 15.1723 0.204515 14.9838 0.530883L13.1551 3.6975C12.8784 4.17672 12.7322 4.72353 12.7322 5.27877C12.7323 7.02407 14.1522 8.44399 15.8975 8.44399ZM16.356 3.9572L16.356 3.95724L16.356 3.95727C16.9128 4.91106 16.9525 4.97922 16.9525 5.27877C16.9525 5.86054 16.4792 6.33385 15.8975 6.33385C15.3157 6.33385 14.8424 5.86054 14.8424 5.27877C14.8424 4.97921 14.882 4.91143 15.4391 3.95686C15.5641 3.7428 15.7151 3.48415 15.8975 3.16828C16.08 3.48431 16.231 3.74307 16.356 3.9572ZM32.733 23.2299C33.8477 23.2121 34.935 23.7752 35.5482 24.7972C36.4517 26.3029 35.971 28.2782 34.4768 29.2005L24.2635 35.5431C23.7589 35.8545 23.1825 36.0163 22.5985 36.0163C22.4253 36.0163 22.2515 36.002 22.0786 35.9733L9.47714 33.8358H1.05507C0.472391 33.8358 0 33.3634 0 32.7807V24.3402C0 23.7575 0.472391 23.2851 1.05507 23.2851H4.7365C5.18195 22.6025 5.76118 22.0291 6.44002 21.5938C6.57964 20.4257 7.10112 19.3446 7.94588 18.4998C8.86675 17.5789 10.0681 17.0404 11.3572 16.9641C12.5684 14.4049 15.1496 12.7344 18.0066 12.7344C20.8635 12.7344 23.4448 14.4051 24.6559 16.9642C27.0921 17.1102 29.088 18.9168 29.5238 21.2648C30.7934 21.5027 31.9394 22.2035 32.733 23.2299ZM15.4064 19.9919C14.9943 20.4039 14.3263 20.4039 13.9143 19.9919C12.4242 18.5018 9.91556 18.8573 8.89847 20.7146C10.0056 20.5835 11.1276 20.7761 12.148 21.2863L16.1455 23.2851H20.1167C22.4566 23.2851 24.4454 24.8164 25.1341 26.9293L30.5527 23.9966C29.996 23.5449 29.2939 23.285 28.5573 23.285C27.9746 23.285 27.5022 22.8126 27.5022 22.23C27.5022 19.3674 24.0303 18.0603 22.0988 19.9918C21.6869 20.4038 21.0189 20.4039 20.6067 19.9918C20.1947 19.5798 20.1947 18.9118 20.6067 18.4997C21.1369 17.9696 21.7607 17.5676 22.44 17.3062C21.4891 15.7982 19.826 14.8445 18.0066 14.8445C16.1877 14.8445 14.5245 15.7974 13.5734 17.3047C14.2529 17.5661 14.8761 17.9696 15.4064 18.4998C15.8183 18.9118 15.8183 19.5798 15.4064 19.9919ZM23.1528 33.7489L33.366 27.4064C33.885 27.086 34.0511 26.4033 33.739 25.8828C33.4313 25.3701 32.7785 25.1913 32.2526 25.476L24.8567 29.4789C24.6923 29.5721 24.506 29.6051 24.3174 29.6015H15.8965C15.3139 29.6015 14.8415 29.1431 14.8415 28.5605C14.8415 27.9778 15.3139 27.5054 15.8965 27.5054H23.1013C22.6658 26.2772 21.4924 25.3952 20.1168 25.3952H15.8965C15.7327 25.3952 15.5712 25.3571 15.4247 25.2839L11.2044 23.1738C10.3291 22.7361 9.33583 22.6656 8.40765 22.975C7.47933 23.2844 6.72707 23.9368 6.28949 24.812C6.11069 25.1695 5.74543 25.3952 5.34577 25.3952H2.11021V31.7257H9.56605C9.62521 31.7257 9.68415 31.7307 9.74246 31.7405L22.4284 33.8923C22.6774 33.9337 22.9355 33.883 23.1528 33.7489Z" fill="#F04438"/>
</svg>
