<svg width="36" height="22" viewBox="0 0 36 22" fill="none" xmlns="http://www.w3.org/2000/svg">
<path fill-rule="evenodd" clip-rule="evenodd" d="M36 9.5249C36 5.45402 32.6881 2.14209 28.6172 2.14209H25.3241C23.5808 2.14209 22.0828 1.73857 20.9917 0.975184C20.1105 0.358613 19.0759 0.0327148 18 0.0327148C16.9241 0.0327148 15.8896 0.358613 15.0083 0.975184C13.9172 1.73857 12.4192 2.14209 10.6759 2.14209H7.38281C3.31193 2.14209 0 5.45402 0 9.5249C0 13.4635 3.10029 16.6916 6.98857 16.8972C8.17362 17.8518 12.6302 21.1265 18 21.1265C23.3698 21.1265 27.8264 17.8518 29.0114 16.8972C32.8997 16.6916 36 13.4635 36 9.5249ZM2.10938 9.5249C2.10938 6.97825 3.924 4.84757 6.32812 4.35757V14.6922C3.924 14.2022 2.10938 12.0716 2.10938 9.5249ZM8.4375 15.3511V4.25146H10.6759C12.8851 4.25146 14.7496 3.73066 16.2175 2.70354C16.7425 2.33622 17.3589 2.14209 18 2.14209C18.6411 2.14209 19.2575 2.33622 19.7825 2.70354C21.2505 3.73066 23.1149 4.25146 25.3241 4.25146H27.5625V15.3511C26.3881 16.2648 22.4778 19.0171 18 19.0171C13.5222 19.0171 9.61193 16.2648 8.4375 15.3511ZM29.6719 4.35757C32.076 4.8475 33.8906 6.97818 33.8906 9.5249C33.8906 12.0716 32.076 14.2022 29.6719 14.6922V4.35757ZM18.6485 4.44061C20.1667 5.5372 22.1536 6.19118 24.3942 6.33173C24.9755 6.36823 25.4173 6.86906 25.3808 7.45048C25.3443 8.03175 24.8436 8.47282 24.2622 8.43703C21.906 8.28923 19.7655 7.64306 18.0231 6.55941C16.2377 7.64384 14.0811 8.29008 11.738 8.43703C11.7155 8.43844 11.6931 8.43914 11.6709 8.43914C11.1186 8.43914 10.6544 8.00925 10.6193 7.45041C10.5829 6.86906 11.0246 6.36823 11.6059 6.33173C13.8369 6.19188 15.8496 5.53474 17.4263 4.43147C17.7942 4.17405 18.2845 4.17778 18.6485 4.44061ZM22.2188 10.5796C22.8012 10.5796 23.2734 11.0518 23.2734 11.6343C23.2734 12.2167 22.8012 12.689 22.2188 12.689H13.7812C13.1988 12.689 12.7266 12.2167 12.7266 11.6343C12.7266 11.0518 13.1988 10.5796 13.7812 10.5796H22.2188ZM14.8359 15.853C14.8359 15.2706 15.3082 14.7983 15.8906 14.7983H20.1094C20.6918 14.7983 21.1641 15.2706 21.1641 15.853C21.1641 16.4355 20.6918 16.9077 20.1094 16.9077H15.8906C15.3082 16.9077 14.8359 16.4355 14.8359 15.853Z" fill="#F04438"/>
</svg>
