<svg width="21" height="37" viewBox="0 0 21 37" fill="none" xmlns="http://www.w3.org/2000/svg">
<path fill-rule="evenodd" clip-rule="evenodd" d="M2.1 6.18311C2.1 3.28826 4.45515 0.933105 7.35 0.933105C10.2449 0.933105 12.6 3.28826 12.6 6.18311V24.3155C13.94 25.6897 14.7 27.5256 14.7 29.4231C14.7 33.4759 11.4028 36.7731 7.35 36.7731C3.29721 36.7731 0 33.4759 0 29.4231C0 27.5256 0.75999 25.6897 2.1 24.3155V6.18311ZM2.1 29.4231C2.1 32.318 4.45515 34.6731 7.35 34.6731C10.2449 34.6731 12.6 32.318 12.6 29.4231C12.6 27.0491 11.0788 25.7351 10.622 25.3406L10.622 25.3406L10.622 25.3405C10.5582 25.2854 10.5152 25.2483 10.5 25.2287V6.18311C10.5 4.4462 9.08691 3.03311 7.35 3.03311C5.61309 3.03311 4.2 4.4462 4.2 6.18311V25.2287C4.18548 25.2474 4.14383 25.2836 4.08183 25.3375L4.08182 25.3375C3.63041 25.7295 2.1 27.0587 2.1 29.4231ZM8.4 7.23311V26.4537C9.62213 26.8871 10.5 28.0543 10.5 29.4231C10.5 31.16 9.08691 32.5731 7.35 32.5731C5.61309 32.5731 4.2 31.16 4.2 29.4231C4.2 28.0543 5.07787 26.8871 6.3 26.4537V7.23311H8.4ZM6.3 29.4231C6.3 30.0021 6.77103 30.4731 7.35 30.4731C7.92897 30.4731 8.4 30.0021 8.4 29.4231C8.4 28.8441 7.92897 28.3731 7.35 28.3731C6.77103 28.3731 6.3 28.8441 6.3 29.4231ZM14.7 7.30334H18.9V9.40335H14.7V7.30334ZM21 11.5033H14.7V13.6033H21V11.5033ZM14.7 15.7033H18.9V17.8033H14.7V15.7033ZM21 19.9033H14.7V22.0033H21V19.9033Z" fill="#F04438"/>
</svg>
