<svg width="33" height="34" viewBox="0 0 33 34" fill="none" xmlns="http://www.w3.org/2000/svg">
<path d="M20.0086 26.7936H19.1903C18.4977 26.7936 17.9362 26.2322 17.9362 25.5395C17.9362 24.8469 18.4977 24.2854 19.1903 24.2854H20.0086C20.7012 24.2854 21.2627 24.8469 21.2627 25.5395C21.2627 26.2322 20.7012 26.7936 20.0086 26.7936ZM10.4773 15.6319C10.4773 14.9393 9.91578 14.3778 9.22313 14.3778H7.27924C6.58659 14.3778 6.02512 14.9393 6.02512 15.6319C6.02512 16.3246 6.58659 16.8861 7.27924 16.8861H9.22313C9.91578 16.8861 10.4773 16.3246 10.4773 15.6319ZM11.7314 7.16662C11.7314 6.47397 12.2928 5.9125 12.9855 5.9125H14.1597L14.2861 4.51259C14.3756 3.52214 14.8292 2.60714 15.5634 1.93631C16.2976 1.26548 17.2496 0.896012 18.2442 0.896012H21.7999C22.4926 0.896012 23.054 1.45748 23.054 2.15013C23.054 2.84279 22.4926 3.40426 21.7999 3.40426H18.2442C17.4805 3.40426 16.8529 3.97777 16.7842 4.73827L16.6724 5.97577C17.6193 6.141 18.4868 6.62785 19.1225 7.36841C19.9173 8.29439 20.267 9.51804 20.0819 10.7257L19.7332 13.0002C19.6382 13.6205 19.1039 14.0645 18.4952 14.0645C18.432 14.0645 18.368 14.0598 18.3036 14.0499C17.619 13.945 17.149 13.3049 17.254 12.6202L17.6026 10.3457C17.6779 9.85496 17.5417 9.37783 17.2192 9.00216C16.8974 8.6273 16.4473 8.42081 15.9518 8.42081H12.9854C12.2928 8.42074 11.7314 7.85927 11.7314 7.16662ZM24.8997 20.4603H26.4015C28.1995 20.4603 29.6622 21.9231 29.6622 23.7244L29.6653 24.8531C29.6672 25.5446 30.2283 26.1039 30.9194 26.1039H30.9228C31.6155 26.102 32.1754 25.5389 32.1736 24.8464L32.1705 23.721C32.1705 20.54 29.5825 17.9521 26.4015 17.9521H24.8997C24.207 17.9521 23.6455 18.5135 23.6455 19.2062C23.6455 19.8988 24.207 20.4603 24.8997 20.4603ZM31.8062 30.8606C32.296 31.3504 32.296 32.1445 31.8062 32.6342C31.5614 32.8791 31.2404 33.0015 30.9194 33.0015C30.5984 33.0015 30.2775 32.8791 30.0326 32.6342L29.4975 32.0991C28.5776 32.6847 27.5058 33.0015 26.4015 33.0015H18.7514C15.5704 33.0015 12.9824 30.4136 12.9824 27.2326V23.721C12.9824 21.5434 14.1944 19.6117 16.0297 18.6313L5.81919 8.42074H4.25323C3.75572 8.42074 3.30348 8.62836 2.97986 9.00535C2.65749 9.3809 2.52123 9.8569 2.5961 10.3456L5.50378 29.3154C5.60844 29.9979 6.1869 30.4934 6.8793 30.4934H10.4741C11.1668 30.4934 11.7282 31.0548 11.7282 31.7475C11.7282 32.4401 11.1668 33.0016 10.4741 33.0016H6.8793C5.94818 33.0016 5.04621 32.6679 4.33964 32.0621C3.63263 31.456 3.16553 30.6154 3.02451 29.6954L0.116886 10.7256C-0.0679084 9.51998 0.281929 8.29746 1.07673 7.37161C1.68423 6.66391 2.50267 6.18753 3.03228 6.00117L0.0680384 3.03699C-0.0544266 2.54719 -0.0544266 1.75314 0.435371 1.26334C0.925168 0.773547 1.71922 0.773547 2.20895 1.26334L31.8062 30.8606ZM27.6449 30.2465L17.9567 20.5583C16.5159 20.9173 15.4907 22.2146 15.4907 23.721V27.2326C15.4907 29.0305 16.9534 30.4933 18.7514 30.4933H26.4015C26.8322 30.4933 27.254 30.4078 27.6449 30.2465Z" fill="#F04438"/>
</svg>
