<svg width="32" height="26" viewBox="0 0 32 26" fill="none" xmlns="http://www.w3.org/2000/svg">
<path d="M6.98631 14.2629V24.8467C6.98631 25.4776 7.51422 25.9871 8.16716 25.9871C8.81899 25.9871 9.34801 25.4776 9.34801 24.8467V14.2629C9.34801 13.6332 8.81899 13.1225 8.16716 13.1225C7.51422 13.1225 6.98631 13.6326 6.98631 14.2629Z" fill="white"/>
<path d="M3.27987 26H5.87996V13.4343C5.88709 13.3741 5.89844 13.314 5.89844 13.2523C5.89844 7.83114 10.4292 3.42128 15.9975 3.42128C21.5651 3.42128 26.0959 7.83114 26.0959 13.2523C26.0959 13.3352 26.1085 13.4155 26.1213 13.4956V26H28.7217C30.5315 26 32 24.5332 32 22.7235V16.1706C32 14.6782 30.9991 13.4209 29.6326 13.0253C29.5069 5.82343 23.4408 0 15.9981 0C8.55332 0 2.48629 5.82397 2.3618 13.0281C0.997234 13.4242 0 14.6805 0 16.1717V22.7235C0 24.5321 1.46835 26 3.27987 26Z" fill="white"/>
<path d="M22.6542 14.2629V24.8467C22.6542 25.4776 23.1829 25.9871 23.835 25.9871C24.487 25.9871 25.0157 25.4776 25.0157 24.8467V14.2629C25.0157 13.6332 24.487 13.1225 23.835 13.1225C23.1817 13.1225 22.6542 13.6326 22.6542 14.2629Z" fill="white"/>
</svg>
