<svg width="29" height="28" viewBox="0 0 29 28" fill="none" xmlns="http://www.w3.org/2000/svg">
<path d="M24.2876 14.706C24.156 14.5577 24.0444 14.3959 23.9524 14.225C23.9072 18.817 20.1 22.5392 15.4259 22.5392C10.7239 22.5392 6.89838 18.7725 6.89838 14.1426C6.89838 9.51265 10.7239 5.74587 15.4259 5.74587C19.4709 5.74587 22.8671 8.53357 23.7373 12.2601L24.5269 6.48037C22.328 3.95171 19.064 2.34629 15.4259 2.34629C12.5876 2.34629 9.97715 3.32385 7.92228 4.9542V7.67359C7.92228 9.27283 7.08049 10.7329 5.74849 11.5672V21.0872C7.92943 24.0257 11.4548 25.9386 15.4259 25.9386C19.5989 25.9386 23.2797 23.8264 25.4254 20.6313V15.4456C24.9901 15.3062 24.5956 15.0529 24.2876 14.706Z" fill="#051D5A"/>
<path d="M15.4259 7.17292C11.523 7.17292 8.34758 10.2995 8.34758 14.1426C8.34758 17.9858 11.5229 21.1124 15.4259 21.1124C19.329 21.1124 22.5043 17.9858 22.5043 14.1426C22.5043 10.2995 19.3289 7.17292 15.4259 7.17292Z" fill="#051D5A"/>
<path d="M28.9678 1.09961C28.9678 0.4923 28.4679 0 27.8511 0C27.2919 0 26.8189 0.407253 26.7444 0.953016L25.1126 12.8965C25.0696 13.2109 25.1667 13.5282 25.3787 13.767C25.5907 14.0058 25.8971 14.1426 26.2193 14.1426H26.8745V26.9536C26.8745 27.5315 27.3503 28 27.9373 28C28.5242 28 29 27.5315 29 26.9536L28.9678 1.09961Z" fill="#051D5A"/>
<path d="M6.47309 1.33182C6.47309 0.9377 6.14875 0.618347 5.74849 0.618347C5.34822 0.618347 5.02389 0.9377 5.02389 1.33182V5.27964H3.96114V1.33182C3.96114 0.9377 3.63681 0.618347 3.23654 0.618347C2.83627 0.618347 2.51194 0.9377 2.51194 1.33182V5.27964H1.4492V1.33182C1.4492 0.9377 1.12487 0.618347 0.724599 0.618347C0.324331 0.618347 0 0.9377 0 1.33182V7.76891C0 9.15963 0.909807 10.3444 2.1738 10.7785V26.9536C2.1738 27.5315 2.64962 28 3.23654 28C3.82347 28 4.29929 27.5315 4.29929 26.9536V10.7785C5.56328 10.3444 6.47309 9.15963 6.47309 7.76891V1.33182Z" fill="#051D5A"/>
</svg>
