<svg width="64" height="63" viewBox="0 0 64 63" fill="none" xmlns="http://www.w3.org/2000/svg">
<path d="M39.6828 50.7331H38.0799C36.723 50.7331 35.6231 49.6332 35.6231 48.2763C35.6231 46.9194 36.723 45.8195 38.0799 45.8195H39.6828C41.0397 45.8195 42.1396 46.9194 42.1396 48.2763C42.1396 49.6332 41.0397 50.7331 39.6828 50.7331ZM21.0111 28.8675C21.0111 27.5106 19.9112 26.4107 18.5543 26.4107H14.7462C13.3894 26.4107 12.2894 27.5106 12.2894 28.8675C12.2894 30.2244 13.3894 31.3243 14.7462 31.3243H18.5543C19.9112 31.3243 21.0111 30.2244 21.0111 28.8675ZM23.4679 12.2841C23.4679 10.9272 24.5678 9.82726 25.9247 9.82726H28.2249L28.4727 7.08485C28.648 5.14458 29.5366 3.3521 30.9748 2.03795C32.4131 0.723806 34.2781 3.06859e-05 36.2263 3.06859e-05H43.192C44.5489 3.06859e-05 45.6488 1.09994 45.6488 2.45684C45.6488 3.81373 44.5489 4.91364 43.192 4.91364H36.2263C34.7304 4.91364 33.5009 6.03714 33.3664 7.52695L33.1474 9.9512C35.0022 10.2749 36.7017 11.2286 37.947 12.6794C39.5041 14.4933 40.1891 16.8905 39.8264 19.2562L39.1434 23.712C38.9572 24.927 37.9105 25.797 36.7181 25.797C36.5943 25.797 36.469 25.7877 36.3428 25.7682C35.0016 25.5627 34.0809 24.3088 34.2866 22.9676L34.9696 18.5118C35.117 17.5505 34.8502 16.6158 34.2185 15.8798C33.5881 15.1455 32.7064 14.741 31.7357 14.741H25.9246C24.5678 14.7409 23.4679 13.641 23.4679 12.2841ZM49.2644 38.3262H52.2065C55.7287 38.3262 58.5942 41.1917 58.5942 44.7205L58.6002 46.9317C58.6039 48.2862 59.7031 49.3818 61.0569 49.3818H61.0637C62.4206 49.3781 63.5175 48.2752 63.5139 46.9184L63.5078 44.7139C63.5078 38.4823 58.4381 33.4126 52.2065 33.4126H49.2644C47.9075 33.4126 46.8076 34.5125 46.8076 35.8694C46.8076 37.2263 47.9075 38.3262 49.2644 38.3262ZM62.7942 58.7003C63.7537 59.6598 63.7537 61.2153 62.7942 62.1747C62.3146 62.6544 61.6859 62.8943 61.057 62.8943C60.4282 62.8943 59.7995 62.6544 59.3198 62.1747L58.2715 61.1264C56.4693 62.2736 54.3699 62.8943 52.2065 62.8943H37.22C30.9884 62.8943 25.9187 57.8245 25.9187 51.593V44.7139C25.9187 40.448 28.293 36.6638 31.8884 34.7432L11.886 14.7409H8.81834C7.84373 14.7409 6.95781 15.1476 6.32383 15.8861C5.6923 16.6218 5.42537 17.5543 5.57204 18.5117L11.2681 55.6731C11.4732 57.0102 12.6064 57.9808 13.9628 57.9808H21.005C22.3619 57.9808 23.4618 59.0807 23.4618 60.4376C23.4618 61.7945 22.3619 62.8944 21.005 62.8944H13.9628C12.1387 62.8944 10.3718 62.2408 8.98762 61.054C7.60259 59.8665 6.68756 58.2199 6.41129 56.4176L0.715307 19.2561C0.353297 16.8943 1.03862 14.4994 2.59562 12.6856C3.7857 11.2993 5.38901 10.366 6.42652 10.001L0.619614 4.19417C0.379707 3.23466 0.379707 1.67913 1.33921 0.719629C2.29872 -0.239876 3.85425 -0.239876 4.81363 0.719629L62.7942 58.7003ZM54.6423 57.4973L35.6632 38.5181C32.8407 39.2213 30.8323 41.7629 30.8323 44.7139V51.593C30.8323 55.1152 33.6978 57.9807 37.22 57.9807H52.2065C53.0502 57.9807 53.8764 57.8131 54.6423 57.4973Z" fill="#F04438"/>
</svg>
