<svg width="71" height="70" viewBox="0 0 71 70" fill="none" xmlns="http://www.w3.org/2000/svg">
<path fill-rule="evenodd" clip-rule="evenodd" d="M44.2137 4.10159C45.3466 4.10159 46.265 3.18342 46.265 2.05079C46.265 0.918171 45.3466 0 44.2137 0C43.0808 0 42.1624 0.918171 42.1624 2.05079C42.1624 3.18342 43.0808 4.10159 44.2137 4.10159ZM19.5962 20.6444C20.7291 20.6444 21.6475 19.7262 21.6475 18.5936C21.6475 17.461 20.7291 16.5428 19.5962 16.5428C18.4633 16.5428 17.5449 17.461 17.5449 18.5936C17.5449 19.7262 18.4633 20.6444 19.5962 20.6444ZM58.5717 18.5937C58.5717 21.9861 55.8111 24.7461 52.4178 24.7461C49.0246 24.7461 46.2639 21.9861 46.2637 18.5937C46.2637 17.5144 46.548 16.4516 47.086 15.5201L50.6413 9.365C51.0078 8.73063 51.6848 8.33974 52.4177 8.33974C53.1506 8.33974 53.8276 8.73063 54.1941 9.365L57.7494 15.52C58.2874 16.4516 58.5717 17.5144 58.5717 18.5937ZM53.3094 16.025C53.0663 15.6088 52.7727 15.1058 52.4178 14.4914C52.0644 15.1033 51.7717 15.6048 51.5292 16.02L51.527 16.0239L51.5268 16.0243C50.4435 17.8797 50.3665 18.0114 50.3665 18.5937C50.3665 19.7245 51.2868 20.6445 52.4178 20.6445C53.5489 20.6445 54.4691 19.7245 54.4691 18.5937C54.4691 18.0114 54.3918 17.879 53.3094 16.025ZM31.9063 16.4063C35.2996 16.4063 38.0602 13.6464 38.0602 10.254C38.0602 9.1747 37.7759 8.11185 37.2379 7.18024L33.6828 1.02526C33.3163 0.390745 32.6392 0 31.9063 0C31.1735 0 30.4964 0.390881 30.1299 1.02526L26.5746 7.18037C26.0366 8.11185 25.7523 9.1747 25.7523 10.254C25.7524 13.6464 28.5131 16.4063 31.9063 16.4063ZM31.9063 6.1517C32.2612 6.76603 32.5548 7.26902 32.7979 7.68525C33.8803 9.53923 33.9576 9.6717 33.9576 10.254C33.9576 11.3848 33.0374 12.3048 31.9063 12.3048C30.7753 12.3048 29.855 11.3848 29.855 10.254C29.855 9.67169 29.932 9.53995 31.0152 7.68454L31.0152 7.68451L31.0155 7.68413C31.2584 7.26812 31.5518 6.76547 31.9063 6.1517ZM64.6385 45.1465C66.8056 45.1119 68.9197 46.2065 70.1119 48.1929C71.8685 51.1196 70.9339 54.9591 68.0287 56.7519L48.1719 69.0802C47.1908 69.6854 46.07 70 44.9347 70C44.598 70 44.2601 69.9723 43.9239 69.9164L19.4238 65.7617H3.04935C1.91648 65.7617 0.998047 64.8435 0.998047 63.7109V47.3046C0.998047 46.172 1.91648 45.2538 3.04935 45.2538H10.2069C11.0729 43.9269 12.1991 42.8124 13.5189 41.9664C13.7904 39.6959 14.8042 37.5944 16.4466 35.9524C18.237 34.1624 20.5726 33.1157 23.079 32.9674C25.4339 27.993 30.4524 24.7459 36.0069 24.7459C41.5614 24.7459 46.5801 27.9932 48.9347 32.9676C53.6713 33.2513 57.5517 36.763 58.399 41.3268C60.8674 41.7893 63.0955 43.1515 64.6385 45.1465ZM30.9515 38.8526C30.1504 39.6535 28.8515 39.6535 28.0506 38.8526C25.1536 35.9563 20.2761 36.6473 18.2987 40.2574C20.4512 40.0025 22.6327 40.377 24.6164 41.3686L32.3885 45.2538H40.1095C44.6587 45.2538 48.5255 48.2302 49.8643 52.3372L60.3994 46.6367C59.3171 45.7588 57.9521 45.2537 56.5199 45.2537C55.387 45.2537 54.4686 44.3354 54.4686 43.2029C54.4686 37.6388 47.7184 35.0981 43.9632 38.8524C43.1622 39.6534 41.8635 39.6535 41.0622 38.8524C40.2611 38.0515 40.2611 36.7531 41.0622 35.9522C42.0931 34.9218 43.3058 34.1404 44.6266 33.6322C42.7778 30.7011 39.5443 28.8475 36.0069 28.8475C32.4706 28.8475 29.2369 30.6996 27.3879 33.6294C28.7089 34.1375 29.9205 34.9218 30.9515 35.9524C31.7525 36.7533 31.7525 38.0517 30.9515 38.8526ZM46.0123 65.5927L65.8691 53.2645C66.8782 52.6418 67.2011 51.3147 66.5943 50.303C65.9962 49.3066 64.727 48.959 63.7045 49.5123L49.3251 57.293C49.0054 57.4742 48.6433 57.5382 48.2766 57.5312H31.9045C30.7717 57.5312 29.8532 56.6403 29.8532 55.5078C29.8532 54.3752 30.7717 53.457 31.9045 53.457H45.9122C45.0655 51.0697 42.7841 49.3554 40.1097 49.3554H31.9045C31.586 49.3554 31.2721 49.2813 30.9872 49.139L22.782 45.0374C21.0801 44.1867 19.149 44.0496 17.3444 44.651C15.5396 45.2524 14.077 46.5205 13.2262 48.2217C12.8786 48.9165 12.1685 49.3554 11.3914 49.3554H5.10078V61.6601H19.5966C19.7116 61.6601 19.8262 61.6698 19.9396 61.689L44.604 65.8715C45.088 65.952 45.5899 65.8535 46.0123 65.5927Z" fill="#F04438"/>
</svg>
