<svg width="70" height="70" viewBox="0 0 70 70" fill="none" xmlns="http://www.w3.org/2000/svg">
<path d="M24.7613 12.287C25.5622 13.0881 26.8609 13.0878 27.6615 12.287C28.4624 11.4862 28.4624 10.1878 27.6615 9.38688L26.7692 8.49453H43.2263L42.3339 9.38688C41.533 10.1878 41.533 11.4862 42.3339 12.287C43.1348 13.0881 44.4335 13.0878 45.2341 12.287L49.6272 7.89394C50.4281 7.09305 50.4281 5.79466 49.6272 4.99377L45.2341 0.600663C44.4333 -0.200221 43.1348 -0.200221 42.3339 0.600663C41.533 1.40155 41.533 2.69994 42.3339 3.50083L43.2263 4.39318H26.7692L27.6615 3.50083C28.4624 2.69994 28.4624 1.40155 27.6615 0.600663C26.8608 -0.200221 25.5622 -0.200221 24.7613 0.600663L20.3682 4.99377C19.5674 5.79466 19.5674 7.09305 20.3682 7.89394L24.7613 12.287Z" fill="#F04438"/>
<path d="M67.9494 43.9316H61.2136V39.3925C61.2136 35.5949 59.2486 32.2496 56.2835 30.3137C57.9641 28.7362 59.017 26.4974 59.017 24.0161C59.017 19.2516 55.1408 15.3755 50.3763 15.3755C45.6118 15.3755 41.7357 19.2516 41.7357 24.0161C41.7357 26.4974 42.7885 28.7364 44.4692 30.3137C41.5042 32.2495 39.5391 35.5949 39.5391 39.3925V43.9316H30.461V39.3925C30.461 35.595 28.4959 32.2496 25.5309 30.3137C27.2116 28.7362 28.2645 26.4974 28.2645 24.0161C28.2645 19.2516 24.3882 15.3755 19.6238 15.3755C14.8594 15.3755 10.9832 19.2516 10.9832 24.0161C10.9832 26.4974 12.0361 28.7362 13.7166 30.3137C10.7516 32.2495 8.78652 35.5949 8.78652 39.3925V43.9316H2.05079C0.918205 43.9316 0 44.8498 0 45.9824V54.7689C0 55.9015 0.918205 56.8197 2.05079 56.8197H8.78652V67.9486C8.78652 69.0812 9.70473 69.9994 10.8373 69.9994H28.4102C29.5428 69.9994 30.461 69.0812 30.461 67.9486V56.8197H39.5391V67.9486C39.5391 69.0812 40.4574 69.9994 41.5899 69.9994H59.1628C60.2954 69.9994 61.2136 69.0812 61.2136 67.9486V56.8197H67.9494C69.0819 56.8197 70.0001 55.9015 70.0001 54.7689V45.9824C70.0001 44.8498 69.0819 43.9316 67.9494 43.9316ZM8.78652 50.3735V52.7181H4.10157V48.0332H9.22635C8.94238 48.759 8.78652 49.5484 8.78652 50.3735ZM19.6237 19.4772C22.1266 19.4772 24.1628 21.5135 24.1628 24.0163C24.1628 26.5192 22.1265 28.5553 19.6237 28.5553C17.1209 28.5553 15.0846 26.519 15.0846 24.0163C15.0846 21.5134 17.1209 19.4772 19.6237 19.4772ZM17.5729 65.8978H12.8881V50.3757C12.8881 49.7501 13.1316 49.1623 13.5757 48.7188C14.0171 48.2768 14.6049 48.0333 15.2305 48.0333C16.5221 48.0333 17.5729 49.0841 17.5729 50.3757V65.8978ZM26.3594 65.8978H21.6745V50.3757C21.6745 49.7501 21.918 49.1623 22.362 48.7188C22.8035 48.2768 23.3913 48.0333 24.0169 48.0333C25.3085 48.0333 26.3593 49.0841 26.3593 50.3757V65.8978H26.3594ZM26.3594 43.9316H24.0147C22.3195 43.9316 20.7751 44.5898 19.6238 45.6642C18.4724 44.5899 16.928 43.9316 15.2327 43.9316H12.8881V39.3925C12.8881 35.6784 15.9097 32.6568 19.6238 32.6568C23.3379 32.6568 26.3596 35.6784 26.3596 39.3925V43.9316H26.3594ZM39.5391 50.3757V52.7181H30.461V50.3735C30.461 49.5484 30.305 48.759 30.021 48.0333H39.9798C39.6954 48.7595 39.5391 49.5498 39.5391 50.3757ZM50.3765 19.4772C52.8794 19.4772 54.9155 21.5135 54.9155 24.0163C54.9155 26.5192 52.8794 28.5553 50.3765 28.5553C47.8735 28.5553 45.8374 26.519 45.8374 24.0163C45.8374 21.5134 47.8735 19.4772 50.3765 19.4772ZM48.3257 65.8978H43.6407V50.3757C43.6407 49.7499 43.8842 49.1623 44.3283 48.7188C44.7697 48.2768 45.3575 48.0333 45.9831 48.0333C47.2747 48.0333 48.3255 49.0841 48.3255 50.3757V65.8978H48.3257ZM57.1121 65.8978H52.4271V50.3757C52.4271 49.7499 52.6706 49.1623 53.1147 48.7188C53.5561 48.2768 54.1439 48.0333 54.7695 48.0333C56.0611 48.0333 57.1119 49.0841 57.1119 50.3757V65.8978H57.1121ZM57.1121 43.9316H54.7675C53.0723 43.9316 51.5279 44.5898 50.3766 45.6642C49.2251 44.5899 47.6808 43.9316 45.9854 43.9316H43.6407V39.3925C43.6407 35.6784 46.6623 32.6568 50.3765 32.6568C54.0906 32.6568 57.1122 35.6784 57.1122 39.3925V43.9316H57.1121ZM65.8986 52.7181H61.2136V50.3735C61.2136 49.5484 61.0576 48.759 60.7737 48.0333H65.8986V52.7181Z" fill="#F04438"/>
</svg>
