<svg width="78" height="46" viewBox="0 0 78 46" fill="none" xmlns="http://www.w3.org/2000/svg">
<path fill-rule="evenodd" clip-rule="evenodd" d="M78 20.5664C78 11.7462 70.8242 4.57031 62.0039 4.57031H54.8689C51.0918 4.57031 47.846 3.69601 45.4821 2.04202C43.5728 0.706113 41.3312 0 39 0C36.6688 0 34.4274 0.706113 32.5179 2.04202C30.154 3.69601 26.9082 4.57031 23.1311 4.57031H15.9961C7.17585 4.57031 0 11.7462 0 20.5664C0 29.1001 6.71729 36.0942 15.1419 36.5396C17.7095 38.608 27.3654 45.7031 39 45.7031C50.6345 45.7031 60.2905 38.608 62.8579 36.5396C71.2827 36.0942 78 29.1001 78 20.5664ZM4.57031 20.5664C4.57031 15.0487 8.502 10.4322 13.7109 9.37051V31.7621C8.502 30.7006 4.57031 26.0841 4.57031 20.5664ZM18.2812 33.1899V9.14062H23.1311C27.9178 9.14062 31.9575 8.01221 35.1379 5.78678C36.2755 4.99093 37.6109 4.57031 39 4.57031C40.3891 4.57031 41.7245 4.99093 42.8621 5.78678C46.0427 8.01221 50.0822 9.14062 54.8689 9.14062H59.7188V33.1899C57.1742 35.1695 48.7019 41.1328 39 41.1328C29.2981 41.1328 20.8258 35.1695 18.2812 33.1899ZM64.2891 9.37051C69.498 10.432 73.4297 15.0485 73.4297 20.5664C73.4297 26.0843 69.498 30.7006 64.2891 31.7623V9.37051ZM40.405 9.55048C43.6946 11.9264 47.9994 13.3434 52.8541 13.6479C54.1137 13.727 55.0707 14.8121 54.9918 16.0719C54.9127 17.3313 53.8279 18.2869 52.568 18.2094C47.463 17.8892 42.8253 16.4891 39.0499 14.1412C35.1818 16.4908 30.5089 17.891 25.4322 18.2094C25.3836 18.2124 25.335 18.214 25.2871 18.214C24.0902 18.214 23.0845 17.2825 23.0085 16.0717C22.9295 14.8121 23.8866 13.727 25.1461 13.6479C29.9799 13.3449 34.3407 11.9211 37.757 9.53068C38.5541 8.97295 39.6165 8.98102 40.405 9.55048ZM48.1406 22.8516C49.4026 22.8516 50.4258 23.8747 50.4258 25.1367C50.4258 26.3987 49.4026 27.4219 48.1406 27.4219H29.8594C28.5974 27.4219 27.5742 26.3987 27.5742 25.1367C27.5742 23.8747 28.5974 22.8516 29.8594 22.8516H48.1406ZM32.1445 34.2773C32.1445 33.0153 33.1677 31.9922 34.4297 31.9922H43.5703C44.8323 31.9922 45.8555 33.0153 45.8555 34.2773C45.8555 35.5394 44.8323 36.5625 43.5703 36.5625H34.4297C33.1677 36.5625 32.1445 35.5394 32.1445 34.2773Z" fill="#F04438"/>
</svg>
