<svg width="42" height="70" viewBox="0 0 42 70" fill="none" xmlns="http://www.w3.org/2000/svg">
<path fill-rule="evenodd" clip-rule="evenodd" d="M4.10156 10.2539C4.10156 4.5999 8.70146 0 14.3555 0C20.0095 0 24.6094 4.5999 24.6094 10.2539V45.6687C27.2266 48.3526 28.7109 51.9385 28.7109 55.6445C28.7109 63.5601 22.2711 70 14.3555 70C6.43986 70 0 63.5601 0 55.6445C0 51.9385 1.48436 48.3526 4.10156 45.6687V10.2539ZM4.10156 55.6445C4.10156 61.2985 8.70146 65.8984 14.3555 65.8984C20.0095 65.8984 24.6094 61.2985 24.6094 55.6445C24.6094 51.0078 21.6382 48.4414 20.7462 47.6709C20.6215 47.5632 20.5375 47.4906 20.5078 47.4523V10.2539C20.5078 6.8615 17.7479 4.10156 14.3555 4.10156C10.9631 4.10156 8.20312 6.8615 8.20312 10.2539V47.4523C8.17476 47.4889 8.09341 47.5596 7.97231 47.6648C7.09065 48.4305 4.10156 51.0266 4.10156 55.6445ZM16.4062 12.3047V49.8449C18.7932 50.6915 20.5078 52.971 20.5078 55.6445C20.5078 59.0369 17.7479 61.7969 14.3555 61.7969C10.9631 61.7969 8.20312 59.0369 8.20312 55.6445C8.20312 52.971 9.91772 50.6915 12.3047 49.8449V12.3047H16.4062ZM12.3047 55.6445C12.3047 56.7753 13.2247 57.6953 14.3555 57.6953C15.4863 57.6953 16.4062 56.7753 16.4062 55.6445C16.4062 54.5137 15.4863 53.5938 14.3555 53.5938C13.2247 53.5938 12.3047 54.5137 12.3047 55.6445ZM28.7109 12.4414H36.9141V16.543H28.7109V12.4414ZM41.0156 20.6445H28.7109V24.7461H41.0156V20.6445ZM28.7109 28.8477H36.9141V32.9492H28.7109V28.8477ZM41.0156 37.0508H28.7109V41.1523H41.0156V37.0508Z" fill="#F04438"/>
</svg>
