<svg width="28" height="20" viewBox="0 0 28 20" fill="none" xmlns="http://www.w3.org/2000/svg">
<rect x="0.25" y="0.25" width="27.5" height="19.5" rx="1.75" fill="white" stroke="#F5F5F5" stroke-width="0.5"/>
<mask id="mask0" mask-type="alpha" maskUnits="userSpaceOnUse" x="0" y="0" width="28" height="20">
<rect x="0.25" y="0.25" width="27.5" height="19.5" rx="1.75" fill="white" stroke="white" stroke-width="0.5"/>
</mask>
<g mask="url(#mask0)">
<path fill-rule="evenodd" clip-rule="evenodd" d="M0 13.3332H28V6.6665H0V13.3332Z" fill="#0C47B7"/>
<path fill-rule="evenodd" clip-rule="evenodd" d="M0 20.0002H28V13.3335H0V20.0002Z" fill="#E53B35"/>
<path d="M6.94965 3.33333C5.87499 3.33333 4.99243 4.1826 4.95113 5.25647L4.69188 11.9969C4.66841 12.6073 4.92509 13.1948 5.38882 13.5923L8.2645 16.0572C9.26314 16.9132 10.7368 16.9132 11.7354 16.0572L14.6111 13.5923C15.0748 13.1948 15.3315 12.6073 15.308 11.9969L15.0488 5.25647C15.0075 4.1826 14.1249 3.33333 13.0502 3.33333H6.94965Z" fill="#F73744" stroke="white" stroke-width="1.33333"/>
<mask id="mask1" mask-type="alpha" maskUnits="userSpaceOnUse" x="4" y="2" width="12" height="16">
<path d="M6.94965 3.33333C5.87499 3.33333 4.99243 4.1826 4.95113 5.25647L4.69188 11.9969C4.66841 12.6073 4.92509 13.1948 5.38882 13.5923L8.2645 16.0572C9.26314 16.9132 10.7368 16.9132 11.7354 16.0572L14.6111 13.5923C15.0748 13.1948 15.3315 12.6073 15.308 11.9969L15.0488 5.25647C15.0075 4.1826 14.1249 3.33333 13.0502 3.33333H6.94965Z" fill="white" stroke="white" stroke-width="1.33333"/>
</mask>
<g mask="url(#mask1)">
<path fill-rule="evenodd" clip-rule="evenodd" d="M9.33325 11.0002C9.33325 10.8161 9.18401 10.6668 8.99992 10.6668H7.66659C7.48249 10.6668 7.33325 10.5176 7.33325 10.3335V9.66683C7.33325 9.48273 7.48249 9.3335 7.66659 9.3335H8.99992C9.18401 9.3335 9.33325 9.18426 9.33325 9.00016V8.3335C9.33325 8.1494 9.18401 8.00016 8.99992 8.00016H8.33325C8.14916 8.00016 7.99992 7.85092 7.99992 7.66683V7.00016C7.99992 6.81607 8.14916 6.66683 8.33325 6.66683H8.99992C9.18401 6.66683 9.33325 6.51759 9.33325 6.3335V5.66683C9.33325 5.48273 9.48249 5.3335 9.66659 5.3335H10.3333C10.5173 5.3335 10.6666 5.48273 10.6666 5.66683V6.3335C10.6666 6.51759 10.8158 6.66683 10.9999 6.66683H11.6666C11.8507 6.66683 11.9999 6.81607 11.9999 7.00016V7.66683C11.9999 7.85092 11.8507 8.00016 11.6666 8.00016H10.9999C10.8158 8.00016 10.6666 8.1494 10.6666 8.3335V9.00016C10.6666 9.18426 10.8158 9.3335 10.9999 9.3335H12.3333C12.5173 9.3335 12.6666 9.48273 12.6666 9.66683V10.3335C12.6666 10.5176 12.5173 10.6668 12.3333 10.6668H10.9999C10.8158 10.6668 10.6666 10.8161 10.6666 11.0002V13.0002C10.6666 13.1843 10.5173 13.3335 10.3333 13.3335H9.66659C9.48249 13.3335 9.33325 13.1843 9.33325 13.0002V11.0002Z" fill="white"/>
<path fill-rule="evenodd" clip-rule="evenodd" d="M11.2035 13.4253C10.9889 12.9765 10.5307 12.6665 10 12.6665C9.46934 12.6665 9.01109 12.9765 8.79647 13.4253C7.17545 13.6807 6 14.4383 6 15.3332C6 16.4377 7.79086 17.3332 10 17.3332C12.2091 17.3332 14 16.4377 14 15.3332C14 14.4383 12.8246 13.6807 11.2035 13.4253Z" fill="#1251A1"/>
</g>
</g>
</svg>
