<svg width="31" height="26" viewBox="0 0 31 26" fill="none" xmlns="http://www.w3.org/2000/svg">
<path d="M22.2391 0C21.7153 0 21.2098 0.0537189 20.7228 0.142355C20.3569 0.206818 20.1121 0.564049 20.1753 0.937396C20.2385 1.31343 20.5886 1.56322 20.9545 1.49876C21.3809 1.42087 21.8074 1.37521 22.2391 1.37521C26.3405 1.37521 29.6522 4.75413 29.6522 8.93884C29.6522 9.84401 29.489 10.7089 29.1994 11.52C29.1099 11.7537 29.1494 12.0169 29.3047 12.2103C29.4626 12.4037 29.7075 12.495 29.9496 12.4494C30.1918 12.4037 30.3893 12.2264 30.4656 11.9901C30.8052 11.0393 31 10.0159 31 8.93884C31 4.01012 27.0697 0 22.2391 0ZM22.2391 4.12562C21.9522 4.12562 21.681 4.15517 21.4231 4.20083C21.0572 4.26797 20.8097 4.62252 20.8755 4.99855C20.9387 5.3719 21.2888 5.62169 21.6547 5.55723C21.8522 5.52231 22.047 5.50083 22.2391 5.50083C24.1082 5.50083 25.6087 7.03182 25.6087 8.93884C25.6087 9.34979 25.535 9.74194 25.4007 10.1126C25.2744 10.4698 25.456 10.8647 25.8061 10.9936C26.1562 11.1225 26.5432 10.9399 26.6696 10.5826C26.8512 10.0723 26.9565 9.51901 26.9565 8.93884C26.9565 6.28781 24.8374 4.12562 22.2391 4.12562ZM12.9228 4.40496C10.7589 4.36198 7.49465 6.10517 4.58577 9.01674C1.69268 11.9686 0 15.0628 0 17.7273C0 22.9058 6.48905 26 12.907 26C21.2283 26 26.7986 21.1089 26.7986 17.2223C26.7986 14.8479 24.8242 13.5506 23.0605 12.9758C22.6393 12.8308 22.3576 12.761 22.5682 12.1835C22.7077 11.8397 22.913 11.1843 22.913 10.314C22.913 9.32562 22.2391 8.4688 20.8913 8.3157C20.2227 8.2405 17.5217 8.25124 15.729 9.01674C15.729 9.01674 14.7392 9.45186 15.0209 8.6595C15.5158 7.07748 15.4447 5.78017 14.6681 5.06033C14.2469 4.62789 13.6467 4.41839 12.9228 4.40496ZM12.341 12.3312C17.6007 12.3312 21.8627 15.0682 21.8627 18.4471C21.8627 21.8233 17.6007 24.5603 12.341 24.5603C7.08398 24.5603 2.82201 21.8233 2.82201 18.4471C2.82201 15.0682 7.08398 12.3312 12.341 12.3312ZM11.6355 13.7682C9.60063 13.7843 7.62364 14.9205 6.76545 16.6717C5.7072 18.8983 6.69438 21.3452 9.23208 22.1349C11.7698 22.9971 14.7998 21.7025 15.858 19.3308C16.9136 17.0316 15.5763 14.5874 13.0386 13.9428C12.5753 13.8192 12.1041 13.7655 11.6355 13.7682ZM12.6859 16.6744C13.0755 16.6744 13.3914 16.994 13.3914 17.3915C13.3914 17.789 13.0755 18.1114 12.6859 18.1114C12.2963 18.1114 11.9804 17.789 11.9804 17.3915C11.9804 16.994 12.2963 16.6744 12.6859 16.6744ZM9.71646 17.3915C9.93758 17.3942 10.1587 17.4291 10.3667 17.5017C11.2696 17.7944 11.546 18.6674 10.9906 19.3952C10.5062 20.1231 9.39793 20.4857 8.56343 20.1231C7.73421 19.7605 7.52624 18.8849 8.01062 18.2322C8.3739 17.6843 9.05044 17.3835 9.71646 17.3915Z" fill="white"/>
</svg>
