<svg width="25" height="24" viewBox="0 0 25 24" fill="none" xmlns="http://www.w3.org/2000/svg">
<path d="M12.6574 24C12.5865 24 12.5189 23.9974 12.4675 23.9948C12.4267 23.9984 12.3846 24 12.3424 24C10.8539 24 9.85857 23.2804 8.98025 22.645C8.35072 22.1903 7.75701 21.761 7.06147 21.6427C6.71986 21.5847 6.38005 21.5554 6.05172 21.5554C5.46014 21.5554 4.99261 21.6492 4.65128 21.7174C4.44123 21.7593 4.26012 21.7953 4.12013 21.7953C3.97351 21.7953 3.79538 21.7621 3.72114 21.5029C3.6623 21.2984 3.6201 21.1003 3.57937 20.9095C3.47746 20.4328 3.40356 20.1419 3.22901 20.1142C1.36204 19.8197 0.258948 19.3858 0.0392189 18.8603C0.0161978 18.8051 0.0033272 18.7495 0.000474438 18.6945C-0.00808386 18.5379 0.100055 18.4005 0.251053 18.375C1.73369 18.1253 3.052 17.324 4.16956 15.9925C5.03527 14.9616 5.4604 13.9767 5.50605 13.868C5.50804 13.8631 5.51036 13.8579 5.51275 13.8533C5.72816 13.4063 5.77102 13.0201 5.64052 12.7057C5.39996 12.1256 4.60325 11.8671 4.07615 11.6961C3.94505 11.6537 3.82106 11.6135 3.72227 11.5734C3.25502 11.3847 2.48656 10.9859 2.58893 10.4355C2.6635 10.0342 3.18263 9.75469 3.60219 9.75469C3.71869 9.75469 3.82192 9.77558 3.90883 9.81731C4.38292 10.0444 4.80944 10.1596 5.17625 10.1596C5.63243 10.1596 5.85276 9.98195 5.90603 9.93148C5.89289 9.68264 5.87684 9.41956 5.86131 9.17072C5.86131 9.17045 5.86098 9.16746 5.86098 9.16746C5.75391 7.42566 5.62036 5.25803 6.16258 4.01499C7.78547 0.294155 11.2272 0.0048166 12.243 0.0048166C12.2701 0.0048166 12.6858 0.000610227 12.6858 0.000610227C12.7046 0.000271026 12.7249 0 12.746 0C13.7647 0 17.2135 0.289678 18.8374 4.01275C19.3796 5.25661 19.246 7.42607 19.1385 9.1697L19.1335 9.25315C19.1188 9.48991 19.1052 9.71398 19.0937 9.93121C19.1439 9.97843 19.3455 10.1412 19.7557 10.1577C20.1054 10.144 20.5072 10.0294 20.9497 9.81758C21.0865 9.75191 21.238 9.73827 21.3408 9.73827C21.4963 9.73827 21.6544 9.76921 21.7862 9.82545L21.7933 9.82823C22.1688 9.96452 22.4147 10.2369 22.42 10.523C22.4247 10.7898 22.2309 11.1885 21.2774 11.5736C21.1797 11.6131 21.0551 11.6535 20.9235 11.6962C20.396 11.8674 19.5999 12.1258 19.3593 12.7055C19.2286 13.02 19.2716 13.4061 19.4871 13.8529C19.4895 13.8577 19.4916 13.8627 19.4939 13.8678C19.5602 14.0269 21.1661 17.771 24.7489 18.3746C24.8998 18.4003 25.0081 18.5378 24.9995 18.6942C24.9963 18.7504 24.9831 18.8066 24.9598 18.8614C24.7416 19.384 23.6386 19.8173 21.7711 20.1123C21.5958 20.14 21.522 20.4296 21.421 20.9038C21.3792 21.0997 21.3367 21.2917 21.2787 21.4934C21.2243 21.6832 21.1034 21.7759 20.9093 21.7759H20.8801C20.7537 21.7759 20.5746 21.7524 20.3488 21.7073C19.954 21.6287 19.5113 21.5556 18.9483 21.5556C18.6201 21.5556 18.2803 21.585 17.9383 21.6429C17.2435 21.7612 16.6499 22.1898 16.0215 22.6441C15.1414 23.2803 14.1458 24 12.6574 24Z" fill="white"/>
</svg>
