<svg width="30" height="26" viewBox="0 0 30 26" fill="none" xmlns="http://www.w3.org/2000/svg">
<path d="M4.9607 13.6887H9.03702C8.23121 12.1375 6.8583 10.1433 4.52875 8.02546C4.07444 7.61243 3.46419 7.37555 2.85431 7.37555C2.21313 7.37555 1.5848 7.61973 0.986707 8.10141C-0.878255 9.6032 0.39353 11.4587 0.827749 11.9916C1.40152 12.6959 2.00207 13.6881 2.5313 14.8687C3.09159 14.152 3.97193 13.6887 4.9607 13.6887Z" fill="#051D5A"/>
<path d="M29.0133 8.10141C28.4152 7.6198 27.7869 7.37555 27.1457 7.37555C26.5359 7.37555 25.9256 7.61243 25.4713 8.02546C23.1416 10.1433 21.7688 12.1375 20.963 13.6887H25.0394C26.0278 13.6887 26.908 14.1517 27.4682 14.8681C27.9976 13.6876 28.5984 12.6959 29.1722 11.9916C29.6065 11.4587 30.8783 9.60314 29.0133 8.10141Z" fill="#051D5A"/>
<path d="M26.8416 20.6791V16.6973C26.8416 15.721 26.0332 14.9267 25.0394 14.9267H4.96071C3.96695 14.9267 3.15849 15.721 3.15849 16.6973V20.6791C3.15849 21.6554 3.96695 22.4496 4.96071 22.4496H25.0394C26.0332 22.4496 26.8416 21.6554 26.8416 20.6791Z" fill="#051D5A"/>
<path d="M22.776 23.6876L23.0733 26H24.5896L24.8869 23.6876H22.776Z" fill="#051D5A"/>
<path d="M5.11317 23.6876L5.41049 26H6.92685L7.22416 23.6876H5.11317Z" fill="#051D5A"/>
<path d="M19.5562 13.6887C20.4198 11.8484 21.9394 9.54972 24.6154 7.11683C24.9929 6.77367 25.4309 6.51507 25.9023 6.34975C24.2064 2.63833 19.9595 0 15 0C10.0405 0 5.79292 2.63802 4.09693 6.3495C4.56863 6.51482 5.00689 6.77349 5.38459 7.11683C8.06059 9.54966 9.58024 11.8482 10.4438 13.6887H19.5562Z" fill="#051D5A"/>
</svg>
