<svg width="24" height="20" viewBox="0 0 24 20" fill="none" xmlns="http://www.w3.org/2000/svg">
<path d="M0.420841 9.59984L5.93856 11.5653L8.08952 18.1766C8.18304 18.6233 8.74416 18.7126 9.11824 18.4446L12.2044 16.0324C12.485 15.7644 12.9526 15.7644 13.3267 16.0324L18.8443 19.8741C19.2184 20.1421 19.7796 19.9634 19.8731 19.5167L23.988 0.755067C24.0815 0.308361 23.6139 -0.138341 23.1463 0.0403416L0.420841 8.43841C-0.14028 8.61709 -0.14028 9.42116 0.420841 9.59984ZM7.80897 10.5826L18.6573 4.23937C18.8443 4.15003 19.0314 4.41806 18.8443 4.5074L9.95992 12.4588C9.67936 12.7268 9.39879 13.0841 9.39879 13.5309L9.11824 15.675C9.11824 15.9431 8.65064 16.0324 8.55712 15.675L7.43486 11.744C7.1543 11.2973 7.34136 10.7613 7.80897 10.5826Z" fill="white"/>
</svg>
