<svg width="27" height="22" viewBox="0 0 27 22" fill="none" xmlns="http://www.w3.org/2000/svg">
<path d="M27 2.67948C26.0357 3.10255 24.9337 3.38461 23.8316 3.52564C24.9337 2.82051 25.898 1.69231 26.3112 0.423081C25.2092 1.12821 24.1072 1.55129 22.7296 1.83334C21.7653 0.705132 20.25 0 18.7347 0C15.7041 0 13.2245 2.53846 13.2245 5.64102C13.2245 6.0641 13.2245 6.48717 13.3622 6.91025C8.81633 6.62819 4.68367 4.37179 1.92856 0.987175C1.5153 1.83333 1.23979 2.82051 1.23979 3.80769C1.23979 5.78204 2.20408 7.47436 3.71939 8.46154C2.7551 8.46154 1.92856 8.17948 1.23979 7.75641C1.23979 10.4359 3.16836 12.8333 5.64795 13.2564C5.23468 13.3974 4.68368 13.3974 4.13266 13.3974C3.71939 13.3974 3.44388 13.3974 3.03061 13.2564C3.71939 15.5128 5.78572 17.2051 8.26531 17.2051C6.33674 18.7564 3.9949 19.6025 1.37755 19.6025C0.964286 19.6025 0.551021 19.6026 0 19.4615C2.47959 21.0128 5.37245 22 8.54082 22C18.7347 22 24.2449 13.3974 24.2449 5.92307V5.21794C25.3469 4.79487 26.3112 3.80768 27 2.67948Z" fill="white"/>
</svg>
