<svg width="31" height="18" viewBox="0 0 31 18" fill="none" xmlns="http://www.w3.org/2000/svg">
<path d="M30.7121 16.1507C30.7121 16.0274 30.5887 16.0274 30.5887 15.9041C30.0953 14.9178 28.9853 13.6849 27.5052 12.3288C26.7651 11.7123 26.3951 11.2192 26.1484 10.9726C25.7784 10.4795 25.7784 10.1096 25.9017 9.61645C26.0251 9.24658 26.5184 8.63013 27.3818 7.52054C27.8752 6.9041 28.1219 6.53425 28.4919 6.16439C30.342 3.69863 31.2054 2.09588 30.9587 1.35615L30.8354 1.23288C30.7121 1.10959 30.5887 0.986306 30.342 0.986306C30.0953 0.863018 29.7253 0.863018 29.3553 0.986306H24.6683C24.545 0.986306 24.545 0.986306 24.2983 0.986306C24.1749 0.986306 24.0516 0.986306 24.0516 0.986306H23.9283H23.8049L23.6816 1.10958C23.5582 1.23287 23.5582 1.23287 23.5582 1.35615C23.0649 2.71232 22.4482 3.82191 21.8314 5.05479C21.4614 5.67123 21.0914 6.28768 20.7214 6.78083C20.3514 7.27398 20.1047 7.64383 19.858 7.89041C19.6113 8.13698 19.3646 8.26027 19.2413 8.50685C19.1179 8.63013 18.8713 8.75343 18.8713 8.63014C18.7479 8.63014 18.6246 8.63013 18.6246 8.50685C18.5012 8.38356 18.3779 8.26027 18.2546 8.13698C18.1312 8.01369 18.1312 7.76712 18.0079 7.52054C18.0079 7.27397 18.0079 7.02739 18.0079 6.9041C18.0079 6.78082 18.0079 6.41096 18.0079 6.16439C18.0079 5.79452 18.0079 5.54794 18.0079 5.42465C18.0079 5.05479 18.0079 4.56165 18.0079 4.0685C18.0079 3.57535 18.0079 3.20547 18.0079 2.9589C18.0079 2.71232 18.0079 2.34246 18.0079 2.09589C18.0079 1.72602 18.0079 1.47944 18.0079 1.35615C18.0079 1.23287 17.8845 0.986298 17.8845 0.86301C17.7612 0.739723 17.6378 0.616431 17.5145 0.493143C17.3912 0.369856 17.1445 0.369859 17.0211 0.246572C16.4044 0.123284 15.6644 0 14.801 0C12.8275 0 11.4708 0.123292 10.9774 0.369867C10.7307 0.493155 10.484 0.616435 10.3607 0.86301C10.114 1.10959 10.114 1.23288 10.2374 1.23288C10.8541 1.35617 11.3474 1.60273 11.5941 1.97259L11.7175 2.21918C11.8408 2.34247 11.8408 2.58904 11.9641 2.9589C12.0875 3.32876 12.0875 3.69862 12.0875 4.19178C12.0875 4.9315 12.0875 5.67124 12.0875 6.16439C12.0875 6.78083 11.9641 7.15068 11.9641 7.52054C11.9641 7.8904 11.8408 8.13699 11.7175 8.26028C11.5941 8.50685 11.5941 8.63014 11.4708 8.63014C11.4708 8.63014 11.4708 8.75342 11.3474 8.75342C11.2241 8.75342 11.1007 8.87671 10.8541 8.87671C10.7307 8.87671 10.484 8.75343 10.3607 8.63014C10.114 8.50686 9.86733 8.26028 9.74399 8.0137C9.49731 7.76713 9.25062 7.39725 9.00394 6.9041C8.75725 6.41095 8.38721 5.91781 8.14053 5.17808L7.89387 4.68494C7.77053 4.43836 7.52385 3.9452 7.27716 3.32877C7.03048 2.71233 6.78379 2.21918 6.53711 1.60274C6.41376 1.35617 6.29044 1.23287 6.1671 1.10958H6.04375C6.04375 1.10958 5.92039 0.986306 5.79705 0.986306C5.67371 0.986306 5.55038 0.86301 5.42704 0.86301H0.986736C0.49337 0.86301 0.246691 0.986294 0.123349 1.10958L0 1.23288C0 1.23288 0 1.35616 0 1.47945C0 1.60274 7.52633e-06 1.72602 0.123349 1.97259C0.740057 3.45205 1.4801 4.93151 2.22015 6.41096C2.9602 7.76712 3.70026 9.00001 4.19362 9.86302C4.81033 10.726 5.30369 11.589 5.9204 12.3288C6.53711 13.0685 6.90712 13.5616 7.03046 13.8082C7.27715 14.0548 7.40048 14.1781 7.52382 14.3014L7.89387 14.6712C8.14055 14.9178 8.51057 15.2877 9.00394 15.6575C9.4973 16.0274 10.114 16.3973 10.7307 16.7671C11.3474 17.137 12.0875 17.3836 12.8275 17.6302C13.6909 17.8767 14.431 18 15.171 17.8767H17.0211C17.3912 17.8767 17.6379 17.7534 17.8845 17.5069L18.0079 17.3836C18.0079 17.2603 18.1312 17.2603 18.1312 17.137C18.1312 17.0137 18.1312 16.8904 18.1312 16.6438C18.1312 16.1507 18.1312 15.7808 18.2546 15.411C18.3779 15.0411 18.3779 14.7945 18.5012 14.548C18.6246 14.3014 18.7479 14.1781 18.8713 14.0548C18.9946 13.9315 19.118 13.8082 19.118 13.8082H19.2413C19.488 13.6849 19.858 13.8082 20.1047 14.0548C20.4747 14.3014 20.8447 14.6712 21.0914 15.0411C21.3381 15.411 21.7081 15.7808 22.2015 16.274C22.6949 16.7671 23.0649 17.137 23.3116 17.2603L23.6816 17.5069C23.9283 17.6301 24.175 17.7534 24.545 17.8767C24.915 18 25.1617 18 25.4083 18L29.602 17.8767C29.972 17.8767 30.342 17.7534 30.5887 17.6302C30.8354 17.5069 30.9587 17.3836 30.9587 17.137C30.9587 17.0137 30.9587 16.7671 30.9587 16.6438C30.712 16.3973 30.7121 16.274 30.7121 16.1507Z" fill="white"/>
</svg>
