<svg width="54" height="50" viewBox="0 0 54 50" fill="none" xmlns="http://www.w3.org/2000/svg">
<path d="M52.418 10.8787H40.3945V1.56904C40.3945 0.70251 39.6862 0 38.8125 0H1.58203C0.708328 0 0 0.70251 0 1.56904V42.1548C0 46.4806 3.5485 50 7.91016 50H46.0898C50.4515 50 54 46.4806 54 42.1548V12.4477C54 11.5812 53.2917 10.8787 52.418 10.8787ZM7.91016 46.8619C5.29316 46.8619 3.16406 44.7503 3.16406 42.1548V3.13808H37.2305C37.2305 44.6094 37.2105 42.3038 37.2668 42.8951C37.4043 44.3497 37.9512 45.7213 38.8162 46.8619H7.91016ZM50.8359 42.1548C50.8359 44.7503 48.7068 46.8619 46.0898 46.8619C45.7348 46.8619 45.4892 46.8619 45.1406 46.8619C42.5236 46.8619 40.3945 44.7503 40.3945 42.1548V14.0167H50.8359V42.1548Z" fill="#0E99FE"/>
<path d="M32.0605 7.5293H8.43555C7.56184 7.5293 6.85352 8.23184 6.85352 9.09841C6.85352 9.96499 7.56184 10.6675 8.43555 10.6675H32.0605C32.9342 10.6675 33.6426 9.96499 33.6426 9.09841C33.6426 8.23184 32.9342 7.5293 32.0605 7.5293Z" fill="#0E99FE"/>
<path d="M32.0605 14.2285H8.43555C7.56184 14.2285 6.85352 14.931 6.85352 15.7975C6.85352 16.664 7.56184 17.3665 8.43555 17.3665H32.0605C32.9342 17.3665 33.6426 16.664 33.6426 15.7975C33.6426 14.931 32.9342 14.2285 32.0605 14.2285Z" fill="#0E99FE"/>
<path d="M32.0605 39.332H8.43555C7.56184 39.332 6.85352 40.0346 6.85352 40.9011C6.85352 41.7677 7.56184 42.4703 8.43555 42.4703H32.0605C32.9342 42.4703 33.6426 41.7677 33.6426 40.9011C33.6426 40.0346 32.9342 39.332 32.0605 39.332Z" fill="#0E99FE"/>
<path d="M32.0625 20.918H20.25C19.3763 20.918 18.668 21.6205 18.668 22.487V34.2025C18.668 35.069 19.3763 35.7715 20.25 35.7715H32.0625C32.9362 35.7715 33.6445 35.069 33.6445 34.2025V22.487C33.6445 21.6205 32.9362 20.918 32.0625 20.918ZM30.4805 32.6334H21.832V24.056H30.4805V32.6334Z" fill="#0E99FE"/>
<path d="M8.43555 26.5696H13.498C14.3718 26.5696 15.0801 25.8671 15.0801 25.0006C15.0801 24.1341 14.3718 23.4316 13.498 23.4316H8.43555C7.56184 23.4316 6.85352 24.1341 6.85352 25.0006C6.85352 25.8671 7.56184 26.5696 8.43555 26.5696Z" fill="#0E99FE"/>
<path d="M8.43555 33.2593H13.498C14.3718 33.2593 15.0801 32.5568 15.0801 31.6902C15.0801 30.8236 14.3718 30.1211 13.498 30.1211H8.43555C7.56184 30.1211 6.85352 30.8236 6.85352 31.6902C6.85352 32.5568 7.56184 33.2593 8.43555 33.2593Z" fill="#0E99FE"/>
</svg>
