<svg width="54" height="44" viewBox="0 0 54 44" fill="none" xmlns="http://www.w3.org/2000/svg">
<path fill-rule="evenodd" clip-rule="evenodd" d="M45.6373 3.61231C51.03 6.13956 54 9.64478 54 13.4822C54 13.9704 53.9514 14.4533 53.8563 14.9295L50.5878 34.1736C50.0767 37.253 47.3896 39.8111 42.8177 41.5651C34.8309 44.8116 19.1485 44.8117 11.1616 41.5652C6.58988 39.8111 3.90263 37.253 3.3906 34.1676L0.123096 14.9294C-0.669099 10.1459 2.3962 6.50473 8.34216 3.61252C18.1768 -1.20414 35.8026 -1.20414 45.6373 3.61231ZM44.2936 6.5042C35.2953 2.08387 18.6843 2.08398 9.686 6.50399C-1.02341 11.5967 2.72064 18.168 12.1607 21.4736V16.0352H41.819V21.4736C51.2554 18.1701 55.0051 11.5975 44.2936 6.5042ZM15.3382 22.4349C22.3103 24.2467 31.6692 24.2467 38.6412 22.4349V19.2262H15.3382V22.4349ZM24.3417 38.1601V40.7614C26.0713 40.8386 27.9082 40.8386 29.6378 40.7614V38.1601C29.6378 36.6938 28.4499 35.5009 26.9897 35.5009C25.5296 35.5009 24.3417 36.6938 24.3417 38.1601ZM32.8155 40.5287C36.2099 40.178 39.2531 39.517 41.6836 38.5843C45.0933 37.2761 47.1427 35.5213 47.4544 33.643L48.025 30.2835C45.2264 32.205 41.3089 33.7095 36.6092 34.6113L36.0127 31.4769C42.3056 30.2693 47.2104 27.7996 48.923 24.9964L49.6016 21.001C38.5663 29.0333 15.4077 29.0302 4.37801 21.001L5.05655 24.9964C6.76921 27.7996 11.674 30.2693 17.9668 31.4769L17.3704 34.6113C12.6707 33.7095 8.75325 32.205 5.95456 30.2835C5.95456 30.2835 6.52411 33.637 6.524 33.6371C7.6418 38.2771 15.9931 39.9648 21.164 40.5287V38.16C21.164 34.9341 23.7774 32.3096 26.9897 32.3096C30.202 32.3096 32.8155 34.9341 32.8155 38.16V40.5287ZM40.7733 12.4336C38.1436 11.3113 33.6083 9.97351 26.9363 9.97351C20.2644 9.97351 15.7291 11.3113 13.0992 12.4336L11.8564 9.49687C19.3909 5.93562 34.4559 5.92584 42.0161 9.49687L40.7733 12.4336Z" fill="#45CD53"/>
</svg>
