<svg width="50" height="50" viewBox="0 0 50 50" fill="none" xmlns="http://www.w3.org/2000/svg">
<path d="M45.6055 11.7188H37.5744C35.6569 4.96289 29.4323 0 22.0703 0C13.2146 0 5.95703 7.20547 5.95703 16.1133V17.5781C2.74463 17.5781 0 20.1742 0 23.4375C0 26.7016 2.74531 29.2969 5.95703 29.2969H6.02432C6.32578 32.6262 7.64336 35.6666 9.66494 38.1038C4.29199 38.4181 0 43.0437 0 48.5352C0 49.3441 0.655859 50 1.46484 50H42.5781C43.3871 50 44.043 49.3441 44.043 48.5352C44.043 43.0715 39.7958 38.4706 34.4707 38.1097C36.495 35.6715 37.8146 32.6289 38.1163 29.2969H38.1836C41.4145 29.2969 44.043 26.6684 44.043 23.4375C44.043 22.3706 43.755 21.3704 43.2547 20.5078H45.6055C48.0286 20.5078 50 18.5364 50 16.1133C50 13.6901 48.0286 11.7188 45.6055 11.7188ZM5.95703 26.3672C4.31602 26.3672 2.92969 25.0256 2.92969 23.4375C2.92969 21.8494 4.31602 20.5078 5.95703 20.5078V26.3672ZM11.074 8.84951C12.6638 9.11367 13.9674 10.2336 14.4941 11.7188H9.64082C10.0023 10.6991 10.4858 9.73691 11.074 8.84951ZM8.88672 16.1133C8.88672 15.6182 8.91514 15.1296 8.96855 14.6484H14.7461V17.5781H8.88672V16.1133ZM40.9672 47.0703H3.07578C3.76113 43.6669 6.77041 41.0156 10.2539 41.0156H12.8166C15.437 42.8605 18.6292 43.9453 22.0703 43.9453C25.5114 43.9453 28.7036 42.8605 31.324 41.0156H33.7891C37.2727 41.0156 40.2818 43.6669 40.9672 47.0703ZM35.2539 27.832C35.2539 35.1015 29.3397 41.0156 22.0703 41.0156C14.8009 41.0156 8.88672 35.1015 8.88672 27.832V20.5078C11.4385 20.5078 31.8404 20.5078 35.2539 20.5078V27.832ZM35.2539 17.5781C33.6826 17.5781 20.0491 17.5781 17.6758 17.5781V13.1836C17.6758 10.1354 15.8035 7.51719 13.1491 6.41582C15.4985 4.25283 18.6326 2.92969 22.0703 2.92969C29.3397 2.92969 35.2539 8.84385 35.2539 16.1133V17.5781ZM38.1836 26.3672V20.5078C39.799 20.5078 41.1133 21.8221 41.1133 23.4375C41.1133 25.0529 39.799 26.3672 38.1836 26.3672ZM45.6055 17.5781H38.1836V16.1133C38.1836 15.6194 38.1601 15.1311 38.1163 14.6484H45.6055C46.4132 14.6484 47.0703 15.3056 47.0703 16.1133C47.0703 16.921 46.4132 17.5781 45.6055 17.5781Z" fill="#FEC90E"/>
</svg>
