<svg width="27" height="20" viewBox="0 0 27 20" fill="none" xmlns="http://www.w3.org/2000/svg">
<path d="M27 7.67676C27 7.0707 26.9015 6.36364 26.9015 5.55555C26.8029 4.74747 26.7044 3.93939 26.6058 3.23232C26.4088 2.42424 26.1131 1.81818 25.5219 1.31313C25.0292 0.808084 24.3394 0.505044 23.6496 0.404034C21.3832 0.101004 18.0329 0 13.5 0C8.96717 0 5.51824 0.101004 3.35036 0.404034C2.66058 0.505044 1.9708 0.808084 1.4781 1.31313C0.985402 1.81818 0.591235 2.42424 0.394155 3.23232C0.197074 3.93939 0.0985462 4.64646 0.0985462 5.55555C6.01295e-06 6.36364 0 7.0707 0 7.67676C0 8.28282 0 8.98989 0 9.99999C0 11.0101 0 11.8182 0 12.3232C0 12.9293 0.0985462 13.6364 0.0985462 14.4444C0.197086 15.2525 0.295614 16.0606 0.394155 16.7677C0.591235 17.5757 0.886862 18.1818 1.4781 18.6869C1.9708 19.1919 2.66058 19.4949 3.35036 19.596C5.61678 19.899 8.96717 20 13.5 20C18.0329 20 21.4818 19.899 23.6496 19.596C24.3394 19.4949 25.0292 19.1919 25.5219 18.6869C26.0146 18.1818 26.4088 17.5757 26.6058 16.7677C26.8029 16.0606 26.9015 15.3535 26.9015 14.4444C27 13.6364 27 12.9293 27 12.3232C27 11.7172 27 11.0101 27 9.99999C27 8.98989 27 8.18181 27 7.67676ZM18.7226 10.8081L10.938 15.7576C10.8394 15.8586 10.6423 15.9596 10.4453 15.9596C10.2482 15.9596 10.1496 15.9596 9.95256 15.8586C9.65694 15.6566 9.45986 15.3535 9.45986 14.9495V4.94949C9.45986 4.54545 9.65694 4.24242 9.95256 4.0404C10.2482 3.83838 10.6423 3.83838 10.938 4.0404L18.7226 8.98989C19.0183 9.19191 19.2153 9.49494 19.2153 9.79798C19.2153 10.101 19.0183 10.6061 18.7226 10.8081Z" fill="white"/>
</svg>
