
<svg width="209" height="244" viewBox="0 0 209 244" fill="none" xmlns="http://www.w3.org/2000/svg">
<path d="M207.184 237.646C207.184 237.646 184.507 248.309 169.321 241.311C154.136 234.319 107.228 231.187 78.0262 237.646C34.7765 247.204 21.9302 231.596 26.4657 221.317L61.4047 216.794C61.4047 216.794 106.526 218.425 140.315 218.835C174.11 219.244 205.618 232.006 207.184 237.646Z" fill="#CDCFF8"/>
<path d="M183.48 204.124C183.48 216.749 142.407 226.99 91.7367 226.99C41.0729 226.99 0 216.749 0 204.124C0 191.498 41.0729 181.258 91.7432 181.258C142.407 181.258 183.48 191.498 183.48 204.124Z" fill="#CDCFF8"/>
<mask id="mask0" mask-type="alpha" maskUnits="userSpaceOnUse" x="0" y="0" width="209" height="244">
<path opacity="0.1" d="M207.184 237.646C207.184 237.646 184.507 248.309 169.321 241.311C154.136 234.319 107.228 231.187 78.0262 237.646C34.7765 247.204 21.9302 231.596 26.4657 221.317L61.4047 216.794C61.4047 216.794 106.526 218.425 140.315 218.835C174.11 219.244 205.618 232.006 207.184 237.646Z" fill="#4451BA"/>
<path opacity="0.1" d="M183.48 204.124C183.48 216.749 142.407 226.99 91.7367 226.99C41.0729 226.99 0 216.749 0 204.124C0 191.498 41.0729 181.258 91.7432 181.258C142.407 181.258 183.48 191.498 183.48 204.124Z" fill="#4451BA"/>
<path d="M57.2266 203.311C57.2266 203.311 24.2305 210.31 31.4821 228.38C36.6674 241.298 97.7277 226.983 128.203 227.704C150.009 228.218 166.975 232.727 173.155 235.612C209.439 252.546 225.774 227.23 185.423 218.068C165.383 213.519 149.327 213.078 126.858 214.169C91.6717 215.878 54.6989 223.019 52.808 219.978C49.702 214.994 76.9086 207.275 76.9086 207.275C76.9086 207.275 73.5362 197.145 57.2266 203.311Z" fill="#3C2A34"/>
<path d="M52.99 75.0892C52.99 75.0892 46.7001 92.4449 30.0461 118.722C17.1218 139.113 -3.9117 203.584 89.339 208.341C182.59 213.097 161.68 157.566 153.161 127.52C144.636 97.4808 157.014 35.7057 120.704 30.137C84.3941 24.5683 86.3305 29.4092 73.1853 38.0709C69.3906 40.5791 52.99 75.0892 52.99 75.0892Z" fill="#FFFAEF"/>
<path d="M156.585 139.437C156.585 139.437 124.18 137.806 120.867 108.508C120.867 108.508 132.023 135.103 154.499 131.77C154.493 131.776 155.806 136.552 156.585 139.437Z" fill="#F4EFD7"/>
<path d="M71.9053 134.765C71.9053 134.765 60.677 150.692 47.3044 142.264C33.9318 133.83 26.4723 125.175 26.4723 125.175L31.3847 115.61C31.3847 115.61 43.1393 141.66 71.9053 134.765Z" fill="#F4EFD7"/>
<path d="M25.0167 128.32C25.0167 128.32 2.04031 185.442 64.0623 188.847C126.084 192.245 161.192 186.833 160.133 154.87C160.133 154.87 172.245 196.086 135.688 204.754C102.588 212.597 53.9647 211.707 37.1677 195.163C20.3708 178.613 9.82474 151.14 25.0167 128.32Z" fill="#F4EFD7"/>
<path d="M124.882 34.5231L171.42 34.1202C171.42 34.1202 167.943 48.1686 125.61 54.9329L124.882 34.5231Z" fill="#3C2A34"/>
<path d="M136.513 38.4738L162.316 39.5395C162.316 39.5395 153.375 46.6546 141.159 48.2596L136.513 38.4738Z" fill="#F58981"/>
<path d="M90.4241 36.5894L70.3392 0C70.3392 0 65.3814 27.6354 68.3964 45.8359L90.4241 36.5894Z" fill="#3C2A34"/>
<path d="M81.8405 30.6049L72.9645 11.8586C72.9645 11.8586 70.7682 26.0369 69.839 39.6694C69.839 39.6629 80.5474 35.2314 81.8405 30.6049Z" fill="#F58981"/>
<path d="M104.057 28.0707C104.057 28.0707 115.837 72.0092 90.7815 80.6449C65.7258 89.287 52.99 75.0892 52.99 75.0892C52.99 75.0892 58.942 61.4632 63.549 50.1699C71.8792 29.7537 92.4255 26.2578 104.057 28.0707Z" fill="#3C2A34"/>
<path d="M114.7 29.2663C114.7 29.2663 103.056 73.3477 117.585 82.2368C132.114 91.1259 148.3 79.7806 148.3 79.7806C148.3 79.7806 152.316 29.5067 114.7 29.2663Z" fill="#3C2A34"/>
<path d="M107.682 83.6208L108.079 90.684L109.495 91.0479L108.202 83.7508L107.682 83.6208Z" fill="#3C2A34"/>
<path d="M101.672 99.4691C101.672 99.4691 108.105 81.4506 122.192 87.4221C122.192 87.4221 111.516 85.7782 101.672 99.4691Z" fill="#3C2A34"/>
<path d="M71.9962 58.8575L96.5321 59.0135C96.5321 59.0135 100.977 73.991 85.4338 75.2191C69.8974 76.4472 71.9962 58.8575 71.9962 58.8575Z" fill="#FAB217"/>
<path d="M74.7578 56.421L93.9135 56.5444C93.9135 56.5444 97.3833 68.2406 85.2518 69.1957C73.1138 70.1574 74.7578 56.421 74.7578 56.421Z" fill="#3C2A34"/>
<path d="M95.213 61.1968C95.2065 61.97 94.5827 62.5873 93.8095 62.5808C93.0428 62.5743 92.419 61.9506 92.4255 61.1773C92.432 60.4106 93.0557 59.7868 93.829 59.7933C94.6022 59.7998 95.2195 60.4236 95.213 61.1968Z" fill="#FFFAEF"/>
<path d="M115.941 59.137L140.477 59.293C140.477 59.293 144.922 74.2705 129.379 75.4986C113.836 76.7267 115.941 59.137 115.941 59.137Z" fill="#FAB217"/>
<path d="M118.696 56.7003L137.852 56.8238C137.852 56.8238 141.322 68.5199 129.19 69.4751C117.052 70.4368 118.696 56.7003 118.696 56.7003Z" fill="#3C2A34"/>
<path d="M139.158 61.4697C139.151 62.2429 138.528 62.8602 137.754 62.8537C136.988 62.8472 136.364 62.2234 136.37 61.4502C136.377 60.6834 137.001 60.0597 137.774 60.0662C138.541 60.0726 139.158 60.7029 139.158 61.4697Z" fill="#FFFAEF"/>
<path d="M97.7277 72.2237C97.7277 72.2237 90.4501 84.2772 71.2944 77.8573C71.2879 77.8573 85.2583 82.8022 97.7277 72.2237Z" fill="#6E7C7D"/>
<path d="M99.2742 48.9288L99.2287 56.1155L70.5277 55.9335L97.8382 54.7574L99.2742 48.9288Z" fill="#6E7C7D"/>
<path d="M115.363 50.4364L115.863 57.571L141.822 57.2981L117.527 56.226L115.363 50.4364Z" fill="#6E7C7D"/>
<path d="M116.929 72.3406C116.929 72.3406 127.416 90.7101 140.321 73.5882C140.321 73.5882 129.424 88.4228 116.929 72.3406Z" fill="#6E7C7D"/>
<path d="M135.298 36.9468C135.298 36.9468 146.774 36.6609 149.886 43.7696C149.886 43.7696 141.829 37.9995 135.051 38.0645C135.051 38.0645 145.169 39.494 147.157 46.3102C147.157 46.3102 140.23 38.1424 133.953 39.1431L135.298 36.9468Z" fill="#3C2A34"/>
<path d="M84.9789 31.8265C84.9789 31.8265 79.7416 21.6119 72.0027 22.2811C72.0027 22.2811 80.9242 26.5957 84.1082 32.5802C84.1082 32.5802 78.0132 24.3864 71.0735 25.8939C71.0735 25.8939 81.561 28.0642 83.6858 34.0553L84.9789 31.8265Z" fill="#3C2A34"/>
<path d="M102.237 82.8866L56.8042 68.3574C56.8042 68.3574 80.9957 78.2342 102.237 82.8866Z" fill="#DBECCC"/>
<path d="M102.237 82.8866L52.6196 80.5539C52.6131 80.5539 79.5207 84.0692 102.237 82.8866Z" fill="#DBECCC"/>
<path d="M99.2287 83.7249L53.6073 92.4905C53.6073 92.4905 78.676 89.8003 99.2287 83.7249Z" fill="#DBECCC"/>
<path d="M112.998 79.8132L157.073 61.5867C157.073 61.5867 133.784 73.4193 112.998 79.8132Z" fill="#DBECCC"/>
<path d="M112.998 79.8131L162.251 73.3932C162.258 73.3932 135.74 79.1178 112.998 79.8131Z" fill="#DBECCC"/>
<path d="M116.065 80.3979L162.258 85.3688C162.258 85.3688 137.053 84.758 116.065 80.3979Z" fill="#DBECCC"/>
<path d="M141.887 86.6943C141.887 86.6943 126.851 88.0199 116.331 108.482C116.338 108.482 121.939 84.6215 141.887 86.6943Z" fill="#DBECCC"/>
<path d="M141.582 150.061C141.582 150.061 94.8882 95.382 47.7073 154.032C47.7073 154.032 85.2389 102.081 141.582 150.061Z" fill="#DBECCC"/>
<path d="M19.2986 168.47C19.2986 168.47 46.5051 194.052 41.7812 203.129C33.0481 219.913 11.9171 207.223 4.62648 192.297C-4.56149 173.506 -0.259906 150.666 19.2986 168.47Z" fill="#3C2A34"/>
<path d="M155.149 134.389C155.149 134.389 126.019 130.197 121.185 110.515C118.566 99.8395 132.719 87.4091 141.634 87.539C150.549 87.669 141.712 98.5464 141.66 106.415C141.653 107.572 150.334 110.327 150.334 110.327C150.334 110.327 154.006 125.746 155.149 134.389Z" fill="#3C2A34"/>
<path d="M28.9804 191.869C28.9804 191.869 21.274 177.658 15.8873 183.623C10.5006 189.588 18.7138 201.349 26.3748 201.81C34.0488 202.272 28.9804 191.869 28.9804 191.869Z" fill="#DF9FA1"/>
<path d="M19.5845 173.545C19.5845 173.545 22.3461 177.983 19.4286 178.652C15.6988 179.503 15.7118 168.827 19.5845 173.545Z" fill="#DF9FA1"/>
<path d="M12.8333 176.085C12.8333 176.085 16.732 179.568 14.1263 181.03C10.7865 182.902 7.78444 172.648 12.8333 176.085Z" fill="#DF9FA1"/>
<path d="M7.97932 181.647C7.97932 181.647 12.9827 183.174 11.2217 185.592C8.97349 188.698 1.95581 180.647 7.97932 181.647Z" fill="#DF9FA1"/>
<path d="M164.188 168.47C164.188 168.47 136.981 194.052 141.705 203.129C150.438 219.913 171.569 207.223 178.86 192.297C188.041 173.506 183.74 150.666 164.188 168.47Z" fill="#3C2A34"/>
<path d="M154.499 191.869C154.499 191.869 162.206 177.658 167.593 183.623C172.979 189.588 164.766 201.349 157.105 201.81C149.438 202.272 154.499 191.869 154.499 191.869Z" fill="#DF9FA1"/>
<path d="M163.895 173.545C163.895 173.545 161.134 177.983 164.051 178.652C167.788 179.503 167.775 168.827 163.895 173.545Z" fill="#DF9FA1"/>
<path d="M170.647 176.085C170.647 176.085 166.748 179.568 169.354 181.03C172.7 182.902 175.695 172.648 170.647 176.085Z" fill="#DF9FA1"/>
<path d="M175.501 181.647C175.501 181.647 170.497 183.174 172.258 185.592C174.506 188.698 181.524 180.647 175.501 181.647Z" fill="#DF9FA1"/>
<path d="M103.413 78.1692C103.413 78.1692 110.21 74.5564 112.029 77.8898C112.029 77.8898 108.982 85.3883 108.183 85.3363C107.384 85.2844 103.413 78.1692 103.413 78.1692Z" fill="#F58981"/>
<path d="M94.4982 39.8188C94.4982 39.8188 87.1232 43.1263 76.7461 42.0346C76.7461 42.0346 86.9997 45.368 94.4982 39.8188Z" fill="#6E7C7D"/>
<path d="M135.734 42.7754C135.734 42.7754 127.657 42.5935 118.755 37.1483C118.755 37.1483 126.578 44.5623 135.734 42.7754Z" fill="#6E7C7D"/>
<path d="M138.905 89.5339L132.459 99.664C132.459 99.664 139.294 96.2527 138.905 89.5339Z" fill="#6E7C7D"/>
<path d="M143.388 91.2623L136.942 101.392C136.942 101.392 143.778 97.9811 143.388 91.2623Z" fill="#6E7C7D"/>
<path d="M45.0626 128.645L132.082 112.432L141.887 168.561L54.3286 185.007L45.0626 128.645Z" fill="#FAB217"/>
<path opacity="0.2" d="M47.2849 142.147C47.2849 142.147 58.7081 152.147 71.4894 135.175C71.4894 135.175 57.467 144.545 46.3947 136.741L47.2849 142.147Z" fill="#BC8611"/>
<path d="M43.4186 95.6808C43.4186 95.6808 49.4421 111.009 53.6008 117.306C57.7594 123.602 76.0898 129.691 71.8987 134.772C71.8987 134.772 60.1441 147.612 42.5349 134.148C34.2632 127.826 30.0396 118.722 30.0396 118.722C30.0396 118.722 33.4184 108.514 43.4186 95.6808Z" fill="#3C2A34"/>
<path d="M55.9725 132.725L66.8564 137.793C66.8564 137.793 62.5809 131.465 55.9725 132.725Z" fill="#6E7C7D"/>
<path d="M59.007 129.327L69.8909 134.395C69.8909 134.389 65.6218 128.06 59.007 129.327Z" fill="#6E7C7D"/>
<path d="M141.887 168.561L54.8809 187.879L45.0626 140.815L47.0055 140.464L55.9725 184.701L141.887 168.561Z" fill="#F4EFD7"/>
</mask>
<g mask="url(#mask0)">
<path d="M57.2267 203.311C57.2267 203.311 24.2306 210.309 31.4822 228.38C36.6675 241.298 97.7278 226.983 128.203 227.704C150.01 228.218 166.975 232.727 173.155 235.612C209.439 252.545 225.774 227.23 185.423 218.068C165.383 213.519 149.327 213.078 126.858 214.169C91.6718 215.878 54.699 223.019 52.8081 219.978C49.7022 214.994 76.9087 207.275 76.9087 207.275C76.9087 207.275 73.5363 197.145 57.2267 203.311Z" fill="#3C2A34"/>
<path d="M52.99 75.0892C52.99 75.0892 46.7001 92.4449 30.0461 118.722C17.1218 139.113 -3.9117 203.584 89.339 208.341C182.59 213.097 161.68 157.566 153.161 127.52C144.636 97.4808 157.014 35.7057 120.704 30.137C84.3941 24.5683 86.3305 29.4092 73.1853 38.0709C69.3906 40.5791 52.99 75.0892 52.99 75.0892Z" fill="#FFFAEF"/>
<path d="M156.585 139.437C156.585 139.437 124.18 137.806 120.867 108.508C120.867 108.508 132.023 135.103 154.499 131.77C154.493 131.776 155.806 136.552 156.585 139.437Z" fill="#F4EFD7"/>
<path d="M71.9053 134.765C71.9053 134.765 60.677 150.692 47.3044 142.264C33.9318 133.83 26.4723 125.175 26.4723 125.175L31.3847 115.61C31.3847 115.61 43.1393 141.66 71.9053 134.765Z" fill="#F4EFD7"/>
<path d="M25.0167 128.32C25.0167 128.32 2.04031 185.442 64.0623 188.847C126.084 192.245 161.192 186.833 160.133 154.87C160.133 154.87 172.245 196.086 135.688 204.754C102.588 212.597 53.9647 211.707 37.1677 195.163C20.3708 178.613 9.82474 151.14 25.0167 128.32Z" fill="#F4EFD7"/>
<path d="M124.882 34.5231L171.42 34.1202C171.42 34.1202 167.944 48.1686 125.61 54.9329L124.882 34.5231Z" fill="#3C2A34"/>
<path d="M136.513 38.4738L162.316 39.5394C162.316 39.5394 153.375 46.6546 141.159 48.2595L136.513 38.4738Z" fill="#F58981"/>
<path d="M90.4242 36.5894L70.3393 0C70.3393 0 65.3815 27.6354 68.3965 45.8359L90.4242 36.5894Z" fill="#3C2A34"/>
<path d="M81.8405 30.6049L72.9645 11.8586C72.9645 11.8586 70.7682 26.0369 69.839 39.6694C69.839 39.6629 80.5474 35.2314 81.8405 30.6049Z" fill="#F58981"/>
<path d="M104.057 28.0707C104.057 28.0707 115.837 72.0092 90.7815 80.6449C65.7258 89.287 52.99 75.0892 52.99 75.0892C52.99 75.0892 58.942 61.4632 63.549 50.1699C71.8792 29.7537 92.4255 26.2578 104.057 28.0707Z" fill="#3C2A34"/>
<path d="M114.7 29.2663C114.7 29.2663 103.056 73.3477 117.585 82.2368C132.114 91.1259 148.3 79.7806 148.3 79.7806C148.3 79.7806 152.316 29.5067 114.7 29.2663Z" fill="#3C2A34"/>
<path d="M107.682 83.6208L108.079 90.684L109.495 91.0479L108.202 83.7508L107.682 83.6208Z" fill="#3C2A34"/>
<path d="M101.672 99.4691C101.672 99.4691 108.105 81.4506 122.192 87.4221C122.192 87.4221 111.516 85.7782 101.672 99.4691Z" fill="#3C2A34"/>
<path d="M71.9963 58.8575L96.5322 59.0135C96.5322 59.0135 100.977 73.991 85.4339 75.2191C69.8975 76.4472 71.9963 58.8575 71.9963 58.8575Z" fill="#FAB217"/>
<path d="M74.7578 56.4209L93.9135 56.5444C93.9135 56.5444 97.3833 68.2405 85.2518 69.1957C73.1138 70.1574 74.7578 56.4209 74.7578 56.4209Z" fill="#3C2A34"/>
<path d="M95.213 61.1968C95.2065 61.97 94.5827 62.5873 93.8095 62.5808C93.0428 62.5743 92.419 61.9506 92.4255 61.1773C92.432 60.4106 93.0557 59.7868 93.829 59.7933C94.6022 59.7998 95.2195 60.4236 95.213 61.1968Z" fill="#FFFAEF"/>
<path d="M115.941 59.137L140.477 59.293C140.477 59.293 144.922 74.2705 129.379 75.4986C113.836 76.7267 115.941 59.137 115.941 59.137Z" fill="#FAB217"/>
<path d="M118.696 56.7003L137.852 56.8238C137.852 56.8238 141.322 68.5199 129.19 69.4751C117.052 70.4368 118.696 56.7003 118.696 56.7003Z" fill="#3C2A34"/>
<path d="M139.158 61.4697C139.152 62.2429 138.528 62.8602 137.755 62.8537C136.988 62.8472 136.364 62.2234 136.371 61.4502C136.377 60.6834 137.001 60.0597 137.774 60.0662C138.541 60.0726 139.158 60.7029 139.158 61.4697Z" fill="#FFFAEF"/>
<path d="M97.7277 72.2237C97.7277 72.2237 90.4501 84.2772 71.2944 77.8573C71.2879 77.8573 85.2583 82.8022 97.7277 72.2237Z" fill="#6E7C7D"/>
<path d="M99.2742 48.9288L99.2287 56.1155L70.5277 55.9335L97.8382 54.7574L99.2742 48.9288Z" fill="#6E7C7D"/>
<path d="M115.363 50.4364L115.863 57.571L141.822 57.2981L117.527 56.226L115.363 50.4364Z" fill="#6E7C7D"/>
<path d="M116.929 72.3406C116.929 72.3406 127.416 90.7101 140.321 73.5882C140.321 73.5882 129.424 88.4228 116.929 72.3406Z" fill="#6E7C7D"/>
<path d="M135.298 36.9468C135.298 36.9468 146.774 36.6609 149.886 43.7696C149.886 43.7696 141.829 37.9995 135.051 38.0645C135.051 38.0645 145.169 39.494 147.157 46.3102C147.157 46.3102 140.23 38.1424 133.953 39.1431L135.298 36.9468Z" fill="#3C2A34"/>
<path d="M84.9789 31.8265C84.9789 31.8265 79.7416 21.6119 72.0027 22.2811C72.0027 22.2811 80.9242 26.5957 84.1082 32.5802C84.1082 32.5802 78.0132 24.3864 71.0735 25.8939C71.0735 25.8939 81.561 28.0642 83.6858 34.0553L84.9789 31.8265Z" fill="#3C2A34"/>
<path d="M102.237 82.8866L56.8042 68.3574C56.8042 68.3574 80.9957 78.2342 102.237 82.8866Z" fill="#DBECCC"/>
<path d="M102.237 82.8866L52.6196 80.5539C52.6131 80.5539 79.5207 84.0692 102.237 82.8866Z" fill="#DBECCC"/>
<path d="M99.2287 83.7249L53.6073 92.4905C53.6073 92.4905 78.676 89.8003 99.2287 83.7249Z" fill="#DBECCC"/>
<path d="M112.998 79.8132L157.073 61.5867C157.073 61.5867 133.784 73.4193 112.998 79.8132Z" fill="#DBECCC"/>
<path d="M112.998 79.8131L162.251 73.3932C162.258 73.3932 135.74 79.1178 112.998 79.8131Z" fill="#DBECCC"/>
<path d="M116.065 80.3979L162.258 85.3688C162.258 85.3688 137.053 84.758 116.065 80.3979Z" fill="#DBECCC"/>
<path d="M141.887 86.6943C141.887 86.6943 126.851 88.0199 116.331 108.482C116.338 108.482 121.939 84.6215 141.887 86.6943Z" fill="#DBECCC"/>
<path d="M141.582 150.061C141.582 150.061 94.8882 95.382 47.7073 154.032C47.7073 154.032 85.2389 102.081 141.582 150.061Z" fill="#DBECCC"/>
<path d="M19.2986 168.47C19.2986 168.47 46.5051 194.052 41.7812 203.129C33.0481 219.913 11.9171 207.223 4.62648 192.297C-4.56149 173.506 -0.259906 150.666 19.2986 168.47Z" fill="#3C2A34"/>
<path d="M155.149 134.389C155.149 134.389 126.019 130.197 121.185 110.515C118.566 99.8395 132.719 87.4091 141.634 87.539C150.549 87.669 141.712 98.5464 141.66 106.415C141.653 107.572 150.334 110.327 150.334 110.327C150.334 110.327 154.006 125.746 155.149 134.389Z" fill="#3C2A34"/>
<path d="M28.9804 191.869C28.9804 191.869 21.274 177.658 15.8873 183.623C10.5006 189.588 18.7138 201.349 26.3748 201.81C34.0488 202.272 28.9804 191.869 28.9804 191.869Z" fill="#DF9FA1"/>
<path d="M19.5845 173.545C19.5845 173.545 22.3461 177.983 19.4286 178.652C15.6988 179.503 15.7118 168.827 19.5845 173.545Z" fill="#DF9FA1"/>
<path d="M12.8333 176.085C12.8333 176.085 16.732 179.568 14.1263 181.03C10.7865 182.902 7.78444 172.648 12.8333 176.085Z" fill="#DF9FA1"/>
<path d="M7.97944 181.647C7.97944 181.647 12.9828 183.174 11.2219 185.592C8.97361 188.698 1.95593 180.647 7.97944 181.647Z" fill="#DF9FA1"/>
<path d="M164.188 168.47C164.188 168.47 136.981 194.052 141.705 203.129C150.438 219.913 171.569 207.223 178.86 192.297C188.041 173.506 183.74 150.666 164.188 168.47Z" fill="#3C2A34"/>
<path d="M154.499 191.869C154.499 191.869 162.206 177.658 167.593 183.623C172.979 189.588 164.766 201.349 157.105 201.81C149.438 202.272 154.499 191.869 154.499 191.869Z" fill="#DF9FA1"/>
<path d="M163.895 173.545C163.895 173.545 161.134 177.983 164.051 178.652C167.788 179.503 167.775 168.827 163.895 173.545Z" fill="#DF9FA1"/>
<path d="M170.647 176.085C170.647 176.085 166.748 179.568 169.354 181.03C172.7 182.902 175.695 172.648 170.647 176.085Z" fill="#DF9FA1"/>
<path d="M175.501 181.647C175.501 181.647 170.497 183.174 172.258 185.592C174.506 188.698 181.524 180.647 175.501 181.647Z" fill="#DF9FA1"/>
<path d="M103.413 78.1692C103.413 78.1692 110.21 74.5564 112.029 77.8898C112.029 77.8898 108.982 85.3883 108.183 85.3363C107.384 85.2844 103.413 78.1692 103.413 78.1692Z" fill="#F58981"/>
<path d="M94.4982 39.8188C94.4982 39.8188 87.1232 43.1263 76.7461 42.0346C76.7461 42.0346 86.9997 45.368 94.4982 39.8188Z" fill="#6E7C7D"/>
<path d="M135.734 42.7754C135.734 42.7754 127.657 42.5935 118.755 37.1483C118.755 37.1483 126.578 44.5623 135.734 42.7754Z" fill="#6E7C7D"/>
<path d="M138.905 89.5339L132.459 99.664C132.459 99.664 139.294 96.2527 138.905 89.5339Z" fill="#6E7C7D"/>
<path d="M143.388 91.2623L136.942 101.392C136.942 101.392 143.778 97.9811 143.388 91.2623Z" fill="#6E7C7D"/>
<path d="M45.0626 128.645L132.082 112.432L141.887 168.561L54.3286 185.007L45.0626 128.645Z" fill="white"/>
<path opacity="0.2" d="M47.2849 142.147C47.2849 142.147 58.7081 152.147 71.4894 135.175C71.4894 135.175 57.467 144.545 46.3947 136.741L47.2849 142.147Z" fill="#BC8611"/>
<path d="M43.4186 95.6808C43.4186 95.6808 49.4421 111.009 53.6008 117.306C57.7594 123.602 76.0898 129.691 71.8987 134.772C71.8987 134.772 60.1441 147.612 42.5349 134.148C34.2632 127.826 30.0396 118.722 30.0396 118.722C30.0396 118.722 33.4184 108.514 43.4186 95.6808Z" fill="#3C2A34"/>
<path d="M55.9725 132.725L66.8564 137.793C66.8564 137.793 62.5809 131.465 55.9725 132.725Z" fill="#6E7C7D"/>
<path d="M59.0071 129.327L69.891 134.395C69.891 134.389 65.6219 128.06 59.0071 129.327Z" fill="#6E7C7D"/>
<path d="M141.887 168.561L54.8809 187.879L45.0626 140.815L47.0055 140.464L55.9725 184.701L141.887 168.561Z" fill="#F4EFD7"/>
<g style="mix-blend-mode:color">
<rect x="-30.2078" y="-23.85" width="440.87" height="470.143" fill="url(#paint0_radial)"/>
</g>
<path d="M71.2093 170.8C68.9746 171.252 66.9923 171.291 65.2625 170.918C63.5277 170.519 62.1176 169.809 61.0323 168.788C59.9717 167.762 59.276 166.559 58.945 165.179C58.8998 164.955 58.9366 164.754 59.0554 164.575C59.1743 164.395 59.3454 164.283 59.5689 164.238L64.5598 163.228C65.1309 163.113 65.5759 163.268 65.8948 163.695C66.9018 165.223 68.324 165.801 70.1615 165.429C71.254 165.208 72.1049 164.687 72.7142 163.866C73.3432 163.015 73.5347 161.981 73.2885 160.764C73.0675 159.672 72.5142 158.853 71.6286 158.309C70.7679 157.759 69.7664 157.6 68.6242 157.831C67.9786 157.962 67.4748 158.154 67.1127 158.408C66.7704 158.633 66.4307 158.934 66.0937 159.312C65.7369 159.721 65.4343 159.95 65.186 160L60.3069 160.987C60.0834 161.032 59.8697 160.998 59.6658 160.884C59.4816 160.741 59.3669 160.557 59.3217 160.334L58.0327 147.064C57.9872 146.711 58.0561 146.413 58.2393 146.169C58.4475 145.92 58.7129 145.763 59.0357 145.698L73.9711 142.676C74.2442 142.621 74.4853 142.662 74.6943 142.801C74.9281 142.935 75.0726 143.138 75.1279 143.411L75.8362 146.912C75.8915 147.185 75.8373 147.429 75.6739 147.643C75.5352 147.852 75.3293 147.984 75.0562 148.039L64.255 150.225L64.7429 155.127C65.2783 154.579 65.8983 154.131 66.603 153.782C67.3027 153.407 68.2485 153.1 69.4404 152.859C71.0047 152.542 72.5549 152.603 74.0911 153.042C75.6222 153.456 76.9281 154.226 78.0088 155.351C79.1142 156.471 79.8352 157.863 80.1718 159.527C80.5285 161.29 80.413 162.955 79.8252 164.521C79.2325 166.062 78.1946 167.384 76.7115 168.485C75.2533 169.581 73.4192 170.353 71.2093 170.8ZM96.7329 165.597C93.3013 166.266 90.5232 165.885 88.3985 164.453C86.2689 162.997 84.8331 160.82 84.0914 157.92C83.7704 156.589 83.5045 155.402 83.2935 154.359C83.0775 153.292 82.8536 152.057 82.6219 150.657C82.3445 148.775 82.4574 147.033 82.9606 145.432C83.4836 143.801 84.4418 142.406 85.8353 141.245C87.2238 140.059 89.0478 139.238 91.3074 138.781C94.6645 138.127 97.4302 138.511 99.6045 139.932C101.779 141.353 103.232 143.489 103.964 146.339C104.295 147.72 104.568 148.944 104.784 150.011C104.995 151.054 105.211 152.251 105.433 153.602C105.852 156.567 105.363 159.134 103.967 161.304C102.566 163.448 100.154 164.879 96.7329 165.597ZM95.6403 160.197C96.8569 159.951 97.6829 159.37 98.118 158.455C98.573 157.51 98.6771 156.3 98.4304 154.825C98.3344 154.095 98.1256 152.935 97.8041 151.346C97.4826 149.757 97.2292 148.632 97.0439 147.972C96.7079 146.566 96.159 145.514 95.3973 144.816C94.6356 144.117 93.6315 143.88 92.3849 144.107C91.1733 144.378 90.34 144.986 89.885 145.931C89.4548 146.871 89.3581 148.053 89.5948 149.479C89.7056 150.154 89.9218 151.287 90.2433 152.876C90.5648 154.465 90.8108 155.617 90.9813 156.332C91.7284 159.386 93.2814 160.674 95.6403 160.197ZM122.793 160.325C119.361 160.993 116.583 160.612 114.459 159.181C112.329 157.725 110.893 155.547 110.151 152.647C109.831 151.317 109.565 150.13 109.354 149.087C109.138 148.019 108.914 146.785 108.682 145.384C108.405 143.502 108.517 141.76 109.021 140.16C109.544 138.529 110.502 137.133 111.895 135.972C113.284 134.787 115.108 133.965 117.367 133.508C120.725 132.855 123.49 133.239 125.665 134.66C127.839 136.081 129.292 138.216 130.024 141.067C130.355 142.447 130.628 143.671 130.844 144.739C131.055 145.782 131.271 146.979 131.493 148.329C131.912 151.295 131.423 153.862 130.027 156.031C128.626 158.176 126.215 159.607 122.793 160.325ZM121.7 154.924C122.917 154.678 123.743 154.098 124.178 153.182C124.633 152.237 124.737 151.027 124.491 149.552C124.394 148.822 124.186 147.663 123.864 146.074C123.543 144.484 123.289 143.36 123.104 142.699C122.768 141.294 122.219 140.242 121.457 139.543C120.696 138.844 119.692 138.608 118.445 138.834C117.233 139.105 116.4 139.713 115.945 140.658C115.515 141.598 115.418 142.781 115.655 144.206C115.766 144.882 115.982 146.014 116.303 147.603C116.625 149.192 116.871 150.344 117.041 151.059C117.789 154.113 119.341 155.402 121.7 154.924Z" fill="#253854"/>
</g>
<defs>
<radialGradient id="paint0_radial" cx="0" cy="0" r="1" gradientUnits="userSpaceOnUse" gradientTransform="translate(393.05 -153.139) rotate(133.776) scale(1048.3 1047.59)">
<stop stop-color="#4451BA"/>
<stop offset="1" stop-color="#0D1163"/>
</radialGradient>
</defs>
</svg>
