<svg width="209" height="244" viewBox="0 0 209 244" fill="none" xmlns="http://www.w3.org/2000/svg">
<path d="M207.184 237.646C207.184 237.646 184.507 248.309 169.321 241.311C154.136 234.319 107.228 231.187 78.0262 237.646C34.7765 247.204 21.9302 231.596 26.4657 221.317L61.4047 216.794C61.4047 216.794 106.526 218.425 140.315 218.835C174.11 219.244 205.618 232.006 207.184 237.646Z" fill="#CDCFF8"/>
<path d="M183.48 204.124C183.48 216.749 142.407 226.99 91.7367 226.99C41.0729 226.99 0 216.749 0 204.124C0 191.498 41.0729 181.258 91.7432 181.258C142.407 181.258 183.48 191.498 183.48 204.124Z" fill="#CDCFF8"/>
<mask id="mask0" mask-type="alpha" maskUnits="userSpaceOnUse" x="0" y="0" width="210" height="244">
<path opacity="0.1" d="M207.184 237.646C207.184 237.646 184.507 248.309 169.321 241.311C154.136 234.319 107.228 231.187 78.0262 237.646C34.7765 247.204 21.9302 231.596 26.4657 221.317L61.4047 216.794C61.4047 216.794 106.526 218.425 140.315 218.835C174.11 219.244 205.618 232.006 207.184 237.646Z" fill="#4451BA"/>
<path opacity="0.1" d="M183.48 204.124C183.48 216.749 142.407 226.99 91.7367 226.99C41.0729 226.99 0 216.749 0 204.124C0 191.498 41.0729 181.258 91.7432 181.258C142.407 181.258 183.48 191.498 183.48 204.124Z" fill="#4451BA"/>
<path d="M57.2266 203.311C57.2266 203.311 24.2305 210.31 31.4821 228.38C36.6674 241.298 97.7277 226.983 128.203 227.704C150.009 228.218 166.975 232.727 173.155 235.612C209.439 252.546 225.774 227.23 185.423 218.068C165.383 213.519 149.327 213.078 126.858 214.169C91.6717 215.878 54.6989 223.019 52.808 219.978C49.7021 214.994 76.9086 207.275 76.9086 207.275C76.9086 207.275 73.5362 197.145 57.2266 203.311Z" fill="#3C2A34"/>
<path d="M52.99 75.0892C52.99 75.0892 46.7001 92.4449 30.0461 118.722C17.1218 139.113 -3.91171 203.584 89.339 208.341C182.59 213.097 161.68 157.566 153.161 127.52C144.636 97.4808 157.014 35.7057 120.704 30.137C84.3941 24.5683 86.3305 29.4092 73.1853 38.0709C69.3906 40.5791 52.99 75.0892 52.99 75.0892Z" fill="#FFFAEF"/>
<path d="M156.585 139.437C156.585 139.437 124.18 137.806 120.867 108.508C120.867 108.508 132.023 135.103 154.499 131.77C154.493 131.776 155.806 136.552 156.585 139.437Z" fill="#F4EFD7"/>
<path d="M71.9052 134.765C71.9052 134.765 60.6769 150.692 47.3044 142.264C33.9318 133.83 26.4723 125.175 26.4723 125.175L31.3846 115.61C31.3846 115.61 43.1392 141.66 71.9052 134.765Z" fill="#F4EFD7"/>
<path d="M25.0167 128.32C25.0167 128.32 2.04029 185.442 64.0623 188.847C126.084 192.245 161.192 186.833 160.133 154.87C160.133 154.87 172.245 196.086 135.688 204.754C102.588 212.597 53.9646 211.707 37.1677 195.163C20.3707 178.613 9.82472 151.14 25.0167 128.32Z" fill="#F4EFD7"/>
<path d="M124.882 34.5231L171.42 34.1202C171.42 34.1202 167.944 48.1686 125.61 54.9329L124.882 34.5231Z" fill="#3C2A34"/>
<path d="M136.513 38.4738L162.316 39.5395C162.316 39.5395 153.375 46.6546 141.159 48.2596L136.513 38.4738Z" fill="#F58981"/>
<path d="M90.4241 36.5894L70.3393 0C70.3393 0 65.3814 27.6354 68.3964 45.8359L90.4241 36.5894Z" fill="#3C2A34"/>
<path d="M81.8405 30.6049L72.9644 11.8586C72.9644 11.8586 70.7681 26.0369 69.8389 39.6694C69.8389 39.6629 80.5474 35.2314 81.8405 30.6049Z" fill="#F58981"/>
<path d="M104.057 28.0707C104.057 28.0707 115.837 72.0092 90.7815 80.6449C65.7258 89.287 52.99 75.0892 52.99 75.0892C52.99 75.0892 58.942 61.4632 63.549 50.1699C71.8792 29.7537 92.4255 26.2578 104.057 28.0707Z" fill="#3C2A34"/>
<path d="M114.7 29.2663C114.7 29.2663 103.056 73.3477 117.585 82.2368C132.114 91.1259 148.3 79.7806 148.3 79.7806C148.3 79.7806 152.316 29.5067 114.7 29.2663Z" fill="#3C2A34"/>
<path d="M107.682 83.6208L108.079 90.684L109.495 91.0479L108.202 83.7508L107.682 83.6208Z" fill="#3C2A34"/>
<path d="M101.672 99.4691C101.672 99.4691 108.105 81.4506 122.192 87.4221C122.192 87.4221 111.516 85.7782 101.672 99.4691Z" fill="#3C2A34"/>
<path d="M71.9962 58.8575L96.5321 59.0135C96.5321 59.0135 100.977 73.991 85.4338 75.2191C69.8974 76.4472 71.9962 58.8575 71.9962 58.8575Z" fill="#FAB217"/>
<path d="M74.7578 56.421L93.9135 56.5444C93.9135 56.5444 97.3833 68.2406 85.2518 69.1957C73.1138 70.1574 74.7578 56.421 74.7578 56.421Z" fill="#3C2A34"/>
<path d="M95.2131 61.1968C95.2066 61.97 94.5828 62.5873 93.8095 62.5808C93.0428 62.5743 92.419 61.9506 92.4255 61.1773C92.432 60.4106 93.0558 59.7868 93.829 59.7933C94.6023 59.7998 95.2196 60.4236 95.2131 61.1968Z" fill="#FFFAEF"/>
<path d="M115.941 59.137L140.477 59.293C140.477 59.293 144.922 74.2705 129.379 75.4986C113.836 76.7267 115.941 59.137 115.941 59.137Z" fill="#FAB217"/>
<path d="M118.696 56.7003L137.852 56.8238C137.852 56.8238 141.322 68.5199 129.19 69.4751C117.052 70.4368 118.696 56.7003 118.696 56.7003Z" fill="#3C2A34"/>
<path d="M139.158 61.4697C139.152 62.2429 138.528 62.8602 137.755 62.8537C136.988 62.8472 136.364 62.2234 136.37 61.4502C136.377 60.6834 137.001 60.0597 137.774 60.0662C138.541 60.0726 139.158 60.7029 139.158 61.4697Z" fill="#FFFAEF"/>
<path d="M97.7277 72.2237C97.7277 72.2237 90.4501 84.2772 71.2945 77.8573C71.288 77.8573 85.2583 82.8022 97.7277 72.2237Z" fill="#6E7C7D"/>
<path d="M99.2742 48.9288L99.2287 56.1155L70.5277 55.9335L97.8382 54.7574L99.2742 48.9288Z" fill="#6E7C7D"/>
<path d="M115.363 50.4364L115.863 57.571L141.822 57.2981L117.527 56.226L115.363 50.4364Z" fill="#6E7C7D"/>
<path d="M116.929 72.3406C116.929 72.3406 127.416 90.7101 140.321 73.5882C140.321 73.5882 129.424 88.4228 116.929 72.3406Z" fill="#6E7C7D"/>
<path d="M135.298 36.9468C135.298 36.9468 146.773 36.6609 149.886 43.7696C149.886 43.7696 141.829 37.9995 135.051 38.0645C135.051 38.0645 145.169 39.494 147.157 46.3102C147.157 46.3102 140.23 38.1424 133.953 39.1431L135.298 36.9468Z" fill="#3C2A34"/>
<path d="M84.9789 31.8265C84.9789 31.8265 79.7416 21.6119 72.0027 22.2811C72.0027 22.2811 80.9243 26.5957 84.1082 32.5802C84.1082 32.5802 78.0132 24.3864 71.0735 25.8939C71.0735 25.8939 81.561 28.0642 83.6858 34.0553L84.9789 31.8265Z" fill="#3C2A34"/>
<path d="M102.237 82.8866L56.8042 68.3574C56.8042 68.3574 80.9957 78.2342 102.237 82.8866Z" fill="#DBECCC"/>
<path d="M102.237 82.8866L52.6196 80.5539C52.6131 80.5539 79.5207 84.0692 102.237 82.8866Z" fill="#DBECCC"/>
<path d="M99.2287 83.7249L53.6073 92.4905C53.6073 92.4905 78.676 89.8003 99.2287 83.7249Z" fill="#DBECCC"/>
<path d="M112.998 79.8132L157.073 61.5867C157.073 61.5867 133.784 73.4193 112.998 79.8132Z" fill="#DBECCC"/>
<path d="M112.998 79.8131L162.251 73.3932C162.258 73.3932 135.74 79.1178 112.998 79.8131Z" fill="#DBECCC"/>
<path d="M116.065 80.3979L162.258 85.3688C162.258 85.3688 137.053 84.758 116.065 80.3979Z" fill="#DBECCC"/>
<path d="M141.887 86.6943C141.887 86.6943 126.851 88.0199 116.331 108.482C116.338 108.482 121.939 84.6215 141.887 86.6943Z" fill="#DBECCC"/>
<path d="M141.582 150.061C141.582 150.061 94.8881 95.382 47.7072 154.032C47.7072 154.032 85.2388 102.081 141.582 150.061Z" fill="#DBECCC"/>
<path d="M19.2986 168.47C19.2986 168.47 46.5051 194.052 41.7812 203.129C33.0481 219.913 11.917 207.223 4.62645 192.297C-4.56152 173.506 -0.259937 150.666 19.2986 168.47Z" fill="#3C2A34"/>
<path d="M155.149 134.389C155.149 134.389 126.019 130.197 121.185 110.515C118.566 99.8395 132.719 87.4091 141.634 87.539C150.549 87.669 141.712 98.5464 141.66 106.415C141.653 107.572 150.334 110.327 150.334 110.327C150.334 110.327 154.006 125.746 155.149 134.389Z" fill="#3C2A34"/>
<path d="M28.9804 191.869C28.9804 191.869 21.274 177.658 15.8872 183.623C10.5005 189.588 18.7138 201.349 26.3748 201.81C34.0487 202.272 28.9804 191.869 28.9804 191.869Z" fill="#DF9FA1"/>
<path d="M19.5845 173.545C19.5845 173.545 22.3461 177.983 19.4286 178.652C15.6988 179.503 15.7118 168.827 19.5845 173.545Z" fill="#DF9FA1"/>
<path d="M12.8333 176.085C12.8333 176.085 16.732 179.568 14.1263 181.03C10.7864 182.902 7.78442 172.648 12.8333 176.085Z" fill="#DF9FA1"/>
<path d="M7.97935 181.647C7.97935 181.647 12.9827 183.174 11.2218 185.592C8.97352 188.698 1.95584 180.647 7.97935 181.647Z" fill="#DF9FA1"/>
<path d="M164.188 168.47C164.188 168.47 136.981 194.052 141.705 203.129C150.438 219.913 171.569 207.223 178.86 192.297C188.041 173.506 183.74 150.666 164.188 168.47Z" fill="#3C2A34"/>
<path d="M154.499 191.869C154.499 191.869 162.206 177.658 167.593 183.623C172.979 189.588 164.766 201.349 157.105 201.81C149.438 202.272 154.499 191.869 154.499 191.869Z" fill="#DF9FA1"/>
<path d="M163.895 173.545C163.895 173.545 161.134 177.983 164.051 178.652C167.788 179.503 167.775 168.827 163.895 173.545Z" fill="#DF9FA1"/>
<path d="M170.647 176.085C170.647 176.085 166.748 179.568 169.354 181.03C172.7 182.902 175.695 172.648 170.647 176.085Z" fill="#DF9FA1"/>
<path d="M175.501 181.647C175.501 181.647 170.497 183.174 172.258 185.592C174.506 188.698 181.524 180.647 175.501 181.647Z" fill="#DF9FA1"/>
<path d="M103.413 78.1692C103.413 78.1692 110.21 74.5564 112.029 77.8898C112.029 77.8898 108.982 85.3883 108.183 85.3363C107.384 85.2844 103.413 78.1692 103.413 78.1692Z" fill="#F58981"/>
<path d="M94.4982 39.8188C94.4982 39.8188 87.1232 43.1263 76.7461 42.0346C76.7461 42.0346 86.9997 45.368 94.4982 39.8188Z" fill="#6E7C7D"/>
<path d="M135.734 42.7754C135.734 42.7754 127.657 42.5935 118.755 37.1483C118.755 37.1483 126.578 44.5623 135.734 42.7754Z" fill="#6E7C7D"/>
<path d="M138.905 89.5339L132.459 99.664C132.459 99.664 139.294 96.2527 138.905 89.5339Z" fill="#6E7C7D"/>
<path d="M143.388 91.2623L136.942 101.392C136.942 101.392 143.778 97.9811 143.388 91.2623Z" fill="#6E7C7D"/>
<path d="M45.0626 128.645L132.082 112.432L141.887 168.561L54.3286 185.007L45.0626 128.645Z" fill="#FAB217"/>
<path opacity="0.2" d="M47.2849 142.147C47.2849 142.147 58.7081 152.147 71.4894 135.175C71.4894 135.175 57.467 144.545 46.3947 136.741L47.2849 142.147Z" fill="#BC8611"/>
<path d="M43.4187 95.6808C43.4187 95.6808 49.4422 111.009 53.6008 117.306C57.7594 123.602 76.0899 129.691 71.8987 134.772C71.8987 134.772 60.1441 147.612 42.5349 134.148C34.2632 127.826 30.0396 118.722 30.0396 118.722C30.0396 118.722 33.4185 108.514 43.4187 95.6808Z" fill="#3C2A34"/>
<path d="M55.9725 132.725L66.8564 137.793C66.8564 137.793 62.5808 131.465 55.9725 132.725Z" fill="#6E7C7D"/>
<path d="M59.007 129.327L69.8909 134.395C69.8909 134.389 65.6218 128.06 59.007 129.327Z" fill="#6E7C7D"/>
<path d="M141.887 168.561L54.8809 187.879L45.0626 140.815L47.0055 140.464L55.9725 184.701L141.887 168.561Z" fill="#F4EFD7"/>
</mask>
<g mask="url(#mask0)">
<path d="M57.2266 203.311C57.2266 203.311 24.2305 210.309 31.4821 228.38C36.6674 241.298 97.7277 226.983 128.203 227.704C150.009 228.218 166.975 232.727 173.155 235.612C209.439 252.545 225.774 227.23 185.423 218.068C165.383 213.519 149.327 213.078 126.858 214.169C91.6717 215.878 54.6989 223.019 52.808 219.978C49.7021 214.994 76.9086 207.275 76.9086 207.275C76.9086 207.275 73.5362 197.145 57.2266 203.311Z" fill="#3C2A34"/>
<path d="M52.99 75.0892C52.99 75.0892 46.7001 92.4449 30.0461 118.722C17.1218 139.113 -3.91171 203.584 89.339 208.341C182.59 213.097 161.68 157.566 153.161 127.52C144.636 97.4808 157.014 35.7057 120.704 30.137C84.3941 24.5683 86.3305 29.4092 73.1853 38.0709C69.3906 40.5791 52.99 75.0892 52.99 75.0892Z" fill="#FFFAEF"/>
<path d="M156.585 139.437C156.585 139.437 124.18 137.806 120.867 108.508C120.867 108.508 132.023 135.103 154.499 131.77C154.493 131.776 155.806 136.552 156.585 139.437Z" fill="#F4EFD7"/>
<path d="M71.9052 134.765C71.9052 134.765 60.677 150.692 47.3044 142.264C33.9318 133.83 26.4723 125.175 26.4723 125.175L31.3846 115.61C31.3846 115.61 43.1392 141.66 71.9052 134.765Z" fill="#F4EFD7"/>
<path d="M25.0167 128.32C25.0167 128.32 2.04029 185.442 64.0623 188.847C126.084 192.245 161.192 186.833 160.133 154.87C160.133 154.87 172.245 196.086 135.688 204.754C102.588 212.597 53.9646 211.707 37.1677 195.163C20.3707 178.613 9.82472 151.14 25.0167 128.32Z" fill="#F4EFD7"/>
<path d="M124.882 34.5231L171.42 34.1202C171.42 34.1202 167.944 48.1686 125.61 54.9329L124.882 34.5231Z" fill="#3C2A34"/>
<path d="M136.513 38.4738L162.316 39.5394C162.316 39.5394 153.375 46.6546 141.159 48.2595L136.513 38.4738Z" fill="#F58981"/>
<path d="M90.4241 36.5894L70.3393 0C70.3393 0 65.3814 27.6354 68.3964 45.8359L90.4241 36.5894Z" fill="#3C2A34"/>
<path d="M81.8405 30.6049L72.9644 11.8586C72.9644 11.8586 70.7681 26.0369 69.8389 39.6694C69.8389 39.6629 80.5474 35.2314 81.8405 30.6049Z" fill="#F58981"/>
<path d="M104.057 28.0707C104.057 28.0707 115.837 72.0092 90.7815 80.6449C65.7258 89.287 52.99 75.0892 52.99 75.0892C52.99 75.0892 58.942 61.4632 63.549 50.1699C71.8792 29.7537 92.4255 26.2578 104.057 28.0707Z" fill="#3C2A34"/>
<path d="M114.7 29.2663C114.7 29.2663 103.056 73.3477 117.585 82.2368C132.114 91.1259 148.3 79.7806 148.3 79.7806C148.3 79.7806 152.316 29.5067 114.7 29.2663Z" fill="#3C2A34"/>
<path d="M107.682 83.6208L108.079 90.684L109.495 91.0479L108.202 83.7508L107.682 83.6208Z" fill="#3C2A34"/>
<path d="M101.672 99.4691C101.672 99.4691 108.105 81.4506 122.192 87.4221C122.192 87.4221 111.516 85.7782 101.672 99.4691Z" fill="#3C2A34"/>
<path d="M71.9962 58.8575L96.5321 59.0135C96.5321 59.0135 100.977 73.991 85.4338 75.2191C69.8974 76.4472 71.9962 58.8575 71.9962 58.8575Z" fill="#FAB217"/>
<path d="M74.7578 56.4209L93.9135 56.5444C93.9135 56.5444 97.3833 68.2405 85.2518 69.1957C73.1138 70.1574 74.7578 56.4209 74.7578 56.4209Z" fill="#3C2A34"/>
<path d="M95.2131 61.1968C95.2066 61.97 94.5828 62.5873 93.8095 62.5808C93.0428 62.5743 92.419 61.9506 92.4255 61.1773C92.432 60.4106 93.0558 59.7868 93.829 59.7933C94.6023 59.7998 95.2196 60.4236 95.2131 61.1968Z" fill="#FFFAEF"/>
<path d="M115.941 59.137L140.477 59.293C140.477 59.293 144.922 74.2705 129.379 75.4986C113.836 76.7267 115.941 59.137 115.941 59.137Z" fill="#FAB217"/>
<path d="M118.696 56.7003L137.852 56.8238C137.852 56.8238 141.322 68.5199 129.19 69.4751C117.052 70.4368 118.696 56.7003 118.696 56.7003Z" fill="#3C2A34"/>
<path d="M139.158 61.4697C139.152 62.2429 138.528 62.8602 137.755 62.8537C136.988 62.8472 136.364 62.2234 136.37 61.4502C136.377 60.6834 137.001 60.0597 137.774 60.0662C138.541 60.0726 139.158 60.7029 139.158 61.4697Z" fill="#FFFAEF"/>
<path d="M97.7277 72.2237C97.7277 72.2237 90.4501 84.2772 71.2945 77.8573C71.288 77.8573 85.2583 82.8022 97.7277 72.2237Z" fill="#6E7C7D"/>
<path d="M99.2742 48.9288L99.2287 56.1155L70.5277 55.9335L97.8382 54.7574L99.2742 48.9288Z" fill="#6E7C7D"/>
<path d="M115.363 50.4364L115.863 57.571L141.822 57.2981L117.527 56.226L115.363 50.4364Z" fill="#6E7C7D"/>
<path d="M116.929 72.3406C116.929 72.3406 127.416 90.7101 140.321 73.5882C140.321 73.5882 129.424 88.4228 116.929 72.3406Z" fill="#6E7C7D"/>
<path d="M135.298 36.9468C135.298 36.9468 146.773 36.6609 149.886 43.7696C149.886 43.7696 141.829 37.9995 135.051 38.0645C135.051 38.0645 145.169 39.494 147.157 46.3102C147.157 46.3102 140.23 38.1424 133.953 39.1431L135.298 36.9468Z" fill="#3C2A34"/>
<path d="M84.9789 31.8265C84.9789 31.8265 79.7416 21.6119 72.0027 22.2811C72.0027 22.2811 80.9243 26.5957 84.1082 32.5802C84.1082 32.5802 78.0132 24.3864 71.0735 25.8939C71.0735 25.8939 81.561 28.0642 83.6858 34.0553L84.9789 31.8265Z" fill="#3C2A34"/>
<path d="M102.237 82.8866L56.8042 68.3574C56.8042 68.3574 80.9957 78.2342 102.237 82.8866Z" fill="#DBECCC"/>
<path d="M102.237 82.8866L52.6196 80.5539C52.6131 80.5539 79.5207 84.0692 102.237 82.8866Z" fill="#DBECCC"/>
<path d="M99.2287 83.7249L53.6073 92.4905C53.6073 92.4905 78.676 89.8003 99.2287 83.7249Z" fill="#DBECCC"/>
<path d="M112.998 79.8132L157.073 61.5867C157.073 61.5867 133.784 73.4193 112.998 79.8132Z" fill="#DBECCC"/>
<path d="M112.998 79.8131L162.251 73.3932C162.258 73.3932 135.74 79.1178 112.998 79.8131Z" fill="#DBECCC"/>
<path d="M116.065 80.3979L162.258 85.3688C162.258 85.3688 137.053 84.758 116.065 80.3979Z" fill="#DBECCC"/>
<path d="M141.887 86.6943C141.887 86.6943 126.851 88.0199 116.331 108.482C116.338 108.482 121.939 84.6215 141.887 86.6943Z" fill="#DBECCC"/>
<path d="M141.582 150.061C141.582 150.061 94.8881 95.382 47.7072 154.032C47.7072 154.032 85.2388 102.081 141.582 150.061Z" fill="#DBECCC"/>
<path d="M19.2986 168.47C19.2986 168.47 46.5051 194.052 41.7812 203.129C33.0481 219.913 11.917 207.223 4.62645 192.297C-4.56152 173.506 -0.259937 150.666 19.2986 168.47Z" fill="#3C2A34"/>
<path d="M155.149 134.389C155.149 134.389 126.019 130.197 121.185 110.515C118.566 99.8395 132.719 87.4091 141.634 87.539C150.549 87.669 141.712 98.5464 141.66 106.415C141.653 107.572 150.334 110.327 150.334 110.327C150.334 110.327 154.006 125.746 155.149 134.389Z" fill="#3C2A34"/>
<path d="M28.9804 191.869C28.9804 191.869 21.274 177.658 15.8872 183.623C10.5005 189.588 18.7138 201.349 26.3748 201.81C34.0487 202.272 28.9804 191.869 28.9804 191.869Z" fill="#DF9FA1"/>
<path d="M19.5845 173.545C19.5845 173.545 22.3461 177.983 19.4286 178.652C15.6988 179.503 15.7118 168.827 19.5845 173.545Z" fill="#DF9FA1"/>
<path d="M12.8333 176.085C12.8333 176.085 16.732 179.568 14.1263 181.03C10.7864 182.902 7.78443 172.648 12.8333 176.085Z" fill="#DF9FA1"/>
<path d="M7.97936 181.647C7.97936 181.647 12.9827 183.174 11.2218 185.592C8.97353 188.698 1.95585 180.647 7.97936 181.647Z" fill="#DF9FA1"/>
<path d="M164.188 168.47C164.188 168.47 136.981 194.052 141.705 203.129C150.438 219.913 171.569 207.223 178.86 192.297C188.041 173.506 183.74 150.666 164.188 168.47Z" fill="#3C2A34"/>
<path d="M154.499 191.869C154.499 191.869 162.206 177.658 167.593 183.623C172.979 189.588 164.766 201.349 157.105 201.81C149.438 202.272 154.499 191.869 154.499 191.869Z" fill="#DF9FA1"/>
<path d="M163.895 173.545C163.895 173.545 161.134 177.983 164.051 178.652C167.788 179.503 167.775 168.827 163.895 173.545Z" fill="#DF9FA1"/>
<path d="M170.647 176.085C170.647 176.085 166.748 179.568 169.354 181.03C172.7 182.902 175.695 172.648 170.647 176.085Z" fill="#DF9FA1"/>
<path d="M175.501 181.647C175.501 181.647 170.497 183.174 172.258 185.592C174.506 188.698 181.524 180.647 175.501 181.647Z" fill="#DF9FA1"/>
<path d="M103.413 78.1692C103.413 78.1692 110.21 74.5564 112.029 77.8898C112.029 77.8898 108.982 85.3883 108.183 85.3363C107.384 85.2844 103.413 78.1692 103.413 78.1692Z" fill="#F58981"/>
<path d="M94.4982 39.8188C94.4982 39.8188 87.1232 43.1263 76.7461 42.0346C76.7461 42.0346 86.9997 45.368 94.4982 39.8188Z" fill="#6E7C7D"/>
<path d="M135.734 42.7754C135.734 42.7754 127.657 42.5935 118.755 37.1483C118.755 37.1483 126.578 44.5623 135.734 42.7754Z" fill="#6E7C7D"/>
<path d="M138.905 89.5339L132.459 99.664C132.459 99.664 139.294 96.2527 138.905 89.5339Z" fill="#6E7C7D"/>
<path d="M143.388 91.2623L136.942 101.392C136.942 101.392 143.778 97.9811 143.388 91.2623Z" fill="#6E7C7D"/>
<path d="M45.0626 128.645L132.082 112.432L141.887 168.561L54.3286 185.007L45.0626 128.645Z" fill="white"/>
<path opacity="0.2" d="M47.2849 142.147C47.2849 142.147 58.7081 152.147 71.4894 135.175C71.4894 135.175 57.467 144.545 46.3947 136.741L47.2849 142.147Z" fill="#BC8611"/>
<path d="M43.4187 95.6808C43.4187 95.6808 49.4422 111.009 53.6008 117.306C57.7594 123.602 76.0899 129.691 71.8987 134.772C71.8987 134.772 60.1441 147.612 42.5349 134.148C34.2632 127.826 30.0396 118.722 30.0396 118.722C30.0396 118.722 33.4185 108.514 43.4187 95.6808Z" fill="#3C2A34"/>
<path d="M55.9725 132.725L66.8564 137.793C66.8564 137.793 62.5808 131.465 55.9725 132.725Z" fill="#6E7C7D"/>
<path d="M59.007 129.327L69.8909 134.395C69.8909 134.389 65.6218 128.06 59.007 129.327Z" fill="#6E7C7D"/>
<path d="M141.887 168.561L54.8809 187.879L45.0626 140.815L47.0055 140.464L55.9725 184.701L141.887 168.561Z" fill="#F4EFD7"/>
<g style="mix-blend-mode:color">
<rect x="-30.2077" y="-23.85" width="440.87" height="470.143" fill="url(#paint0_radial)"/>
</g>
<path d="M72.9689 170.018C72.7206 170.068 72.4795 170.026 72.2457 169.893C72.0317 169.729 71.8996 169.523 71.8493 169.275L70.9978 165.066L59.4145 167.41C59.1414 167.465 58.9003 167.423 58.6914 167.285C58.4824 167.146 58.3503 166.94 58.295 166.667L57.5791 163.129C57.5038 162.756 57.5625 162.344 57.7552 161.891L65.6247 145.024C65.8869 144.531 66.3035 144.227 66.8746 144.112L72.3125 143.011C72.5856 142.956 72.8266 142.998 73.0356 143.137C73.2446 143.275 73.3767 143.481 73.432 143.754L76.3557 158.205L79.6333 157.542C79.9313 157.482 80.1873 157.534 80.4013 157.697C80.6103 157.836 80.7399 158.029 80.7901 158.278L81.5361 161.965C81.5914 162.238 81.5497 162.479 81.411 162.688C81.2724 162.897 81.0665 163.029 80.7934 163.084L77.4785 163.755L78.33 167.964C78.3803 168.212 78.3386 168.453 78.205 168.687C78.0663 168.896 77.8604 169.028 77.5873 169.083L72.9689 170.018ZM70.0768 159.747L68.2984 150.957L63.8196 161.013L70.0768 159.747ZM97.3512 165.472C93.9196 166.141 91.1415 165.759 89.0168 164.328C86.8871 162.872 85.4514 160.695 84.7096 157.795C84.3887 156.464 84.1227 155.277 83.9117 154.234C83.6957 153.166 83.4719 151.932 83.2402 150.532C82.9628 148.649 83.0756 146.908 83.5788 145.307C84.1018 143.676 85.0601 142.28 86.4536 141.12C87.8421 139.934 89.6661 139.113 91.9256 138.656C95.2827 138.002 98.0485 138.386 100.223 139.807C102.397 141.228 103.85 143.364 104.582 146.214C104.913 147.594 105.186 148.819 105.402 149.886C105.613 150.929 105.83 152.126 106.051 153.477C106.47 156.442 105.982 159.009 104.585 161.178C103.184 163.323 100.773 164.754 97.3512 165.472ZM96.2585 160.072C97.4752 159.826 98.3011 159.245 98.7363 158.33C99.1913 157.385 99.2954 156.175 99.0487 154.7C98.9526 153.97 98.7439 152.81 98.4224 151.221C98.1009 149.632 97.8474 148.507 97.6621 147.847C97.3261 146.441 96.7773 145.389 96.0156 144.69C95.2539 143.992 94.2497 143.755 93.0032 143.982C91.7916 144.253 90.9582 144.861 90.5033 145.806C90.0731 146.746 89.9764 147.928 90.2131 149.354C90.3239 150.029 90.54 151.161 90.8616 152.751C91.1831 154.34 91.4291 155.492 91.5996 156.207C92.3467 159.261 93.8997 160.549 96.2585 160.072ZM125.198 159.451C124.95 159.501 124.709 159.459 124.475 159.326C124.261 159.162 124.129 158.956 124.079 158.708L123.227 154.499L111.644 156.843C111.371 156.898 111.13 156.856 110.921 156.718C110.712 156.579 110.58 156.373 110.524 156.1L109.808 152.562C109.733 152.189 109.792 151.777 109.985 151.324L117.854 134.457C118.116 133.964 118.533 133.66 119.104 133.545L124.542 132.444C124.815 132.389 125.056 132.431 125.265 132.57C125.474 132.708 125.606 132.914 125.661 133.187L128.585 147.638L131.863 146.975C132.161 146.915 132.417 146.967 132.631 147.13C132.84 147.269 132.969 147.462 133.019 147.71L133.765 151.398C133.821 151.671 133.779 151.912 133.64 152.121C133.502 152.33 133.296 152.462 133.023 152.517L129.708 153.188L130.559 157.397C130.61 157.645 130.568 157.886 130.434 158.12C130.296 158.329 130.09 158.461 129.817 158.516L125.198 159.451ZM122.306 149.18L120.528 140.39L116.049 150.446L122.306 149.18Z" fill="#253854"/>
</g>
<defs>
<radialGradient id="paint0_radial" cx="0" cy="0" r="1" gradientUnits="userSpaceOnUse" gradientTransform="translate(393.05 -153.139) rotate(133.776) scale(1048.3 1047.59)">
<stop stop-color="#4451BA"/>
<stop offset="1" stop-color="#0D1163"/>
</radialGradient>
</defs>
</svg>
