<svg width="137" height="22" viewBox="0 0 137 22" fill="none" xmlns="http://www.w3.org/2000/svg">
<path d="M33.0889 17.4592H35.7843V2.88962H40.058V0.461368H28.8152V2.88962H33.0889V17.4592Z" fill="white"/>
<path d="M41.8077 11.1457C41.8077 8.66887 43.4589 6.8234 45.8386 6.8234C48.194 6.8234 49.9181 8.64459 49.9181 11.1214C49.9181 13.5982 48.194 15.4194 45.8386 15.4194C43.4832 15.4194 41.8077 13.6468 41.8077 11.1457ZM39.1366 11.1457C39.1366 14.9823 41.9534 17.7748 45.8386 17.7748C49.6995 17.7748 52.5649 14.9338 52.5649 11.1214C52.5649 7.30905 49.7481 4.46799 45.8386 4.46799C42.0262 4.46799 39.1366 7.30905 39.1366 11.1457Z" fill="white"/>
<path d="M53.787 22H56.4338V15.7837C56.7737 16.3179 58.1335 17.7748 60.5375 17.7748C64.1556 17.7748 66.5596 15.0309 66.5596 11.0971C66.5596 7.2362 63.9856 4.46799 60.3675 4.46799C57.915 4.46799 56.628 5.99779 56.2881 6.45916V4.78366H53.787V22ZM56.3366 11.0971C56.3366 8.766 57.7693 6.8234 60.1004 6.8234C62.2616 6.8234 63.8885 8.4989 63.8885 11.0971C63.8885 13.6468 62.3344 15.4194 60.1247 15.4194C58.0121 15.4194 56.3366 13.8411 56.3366 11.0971Z" fill="white"/>
<path d="M79.7247 17.7748C83.8528 17.7748 86.281 15.0552 86.281 11.1943V0.461368H83.6099V11.17C83.6099 13.6711 82.2258 15.2737 79.7247 15.2737C77.1993 15.2737 75.8395 13.6954 75.8395 11.1943V0.461368H73.1441V11.2185C73.1441 15.1523 75.4753 17.7748 79.7247 17.7748Z" fill="white"/>
<path d="M94.6503 4.46799C92.9506 4.46799 91.6393 5.43929 91.0808 6.43488V4.78366H88.4826V17.4592H91.1294V9.81015C91.1294 8.08609 92.2221 6.84768 93.8976 6.84768C95.3545 6.84768 96.4473 7.86755 96.4473 9.61589V17.4592H99.0698V9.83444C99.0698 7.06623 97.9285 4.46799 94.6503 4.46799Z" fill="white"/>
<path d="M100.957 17.4592H103.604V4.78366H100.957V17.4592ZM100.617 1.65121C100.617 2.57395 101.345 3.30243 102.268 3.30243C103.191 3.30243 103.919 2.57395 103.919 1.65121C103.919 0.728477 103.191 0 102.268 0C101.345 0 100.617 0.728477 100.617 1.65121Z" fill="white"/>
<path d="M111.943 17.4592L116.606 4.78366H113.837L110.462 14.5938L107.063 4.78366H104.246L108.957 17.4592H111.943Z" fill="white"/>
<path d="M116.497 11.17C116.497 15.0066 119.12 17.7748 123.078 17.7748C126.089 17.7748 127.764 16.0508 128.371 15.0066L126.623 13.6954C126.137 14.3996 125.045 15.468 123.126 15.468C120.868 15.468 119.241 14.011 119.192 11.7528H128.735C128.76 11.5342 128.76 11.3157 128.76 11.0971C128.76 7.11479 126.501 4.46799 122.665 4.46799C119.192 4.46799 116.497 7.2362 116.497 11.17ZM119.29 9.93157C119.46 7.9404 120.868 6.6777 122.689 6.6777C124.51 6.6777 125.967 7.84327 126.064 9.93157H119.29Z" fill="white"/>
<path d="M136.13 4.46799C134.333 4.46799 132.998 5.51214 132.512 6.77483V4.78366H129.914V17.4592H132.561V11.9956C132.561 9.25166 133.362 7.13907 136.13 7.13907V4.46799Z" fill="white"/>
<g opacity="0.6">
<rect y="8.15088" width="6.07064" height="9.30831" fill="white"/>
<rect x="8.09424" y="0.461182" width="6.07064" height="16.9978" fill="white"/>
<rect x="16.1885" y="4.91309" width="6.07064" height="12.546" fill="white"/>
</g>
</svg>
