<svg width="93" height="15" viewBox="0 0 93 15" fill="none" xmlns="http://www.w3.org/2000/svg">
<path d="M22.5607 11.904H24.3985V1.9702H27.3124V0.314569H19.6468V1.9702H22.5607V11.904Z" fill="#FAFAFA"/>
<path d="M28.5053 7.59934C28.5053 5.9106 29.6312 4.65232 31.2537 4.65232C32.8596 4.65232 34.0351 5.89404 34.0351 7.58278C34.0351 9.27152 32.8596 10.5132 31.2537 10.5132C29.6477 10.5132 28.5053 9.30464 28.5053 7.59934ZM26.6841 7.59934C26.6841 10.2152 28.6047 12.1192 31.2537 12.1192C33.8861 12.1192 35.8398 10.1821 35.8398 7.58278C35.8398 4.98344 33.9192 3.04636 31.2537 3.04636C28.6543 3.04636 26.6841 4.98344 26.6841 7.59934Z" fill="#FAFAFA"/>
<path d="M36.673 15H38.4776V10.7616C38.7094 11.1258 39.6366 12.1192 41.2757 12.1192C43.7425 12.1192 45.3816 10.2483 45.3816 7.56622C45.3816 4.93377 43.6266 3.04636 41.1598 3.04636C39.4876 3.04636 38.6101 4.0894 38.3783 4.40397V3.26159H36.673V15ZM38.4114 7.56622C38.4114 5.97682 39.3882 4.65232 40.9776 4.65232C42.4512 4.65232 43.5604 5.7947 43.5604 7.56622C43.5604 9.30464 42.5008 10.5132 40.9942 10.5132C39.5538 10.5132 38.4114 9.43709 38.4114 7.56622Z" fill="#FAFAFA"/>
<path d="M54.3578 12.1192C57.1724 12.1192 58.828 10.2649 58.828 7.63245V0.314569H57.0068V7.61589C57.0068 9.32119 56.0631 10.4139 54.3578 10.4139C52.636 10.4139 51.7088 9.33775 51.7088 7.63245V0.314569H49.8711V7.64901C49.8711 10.3311 51.4605 12.1192 54.3578 12.1192Z" fill="#FAFAFA"/>
<path d="M64.5344 3.04636C63.3755 3.04636 62.4814 3.70861 62.1006 4.38742V3.26159H60.3291V11.904H62.1337V6.68874C62.1337 5.51325 62.8788 4.66887 64.0212 4.66887C65.0145 4.66887 65.7596 5.36424 65.7596 6.55629V11.904H67.5476V6.7053C67.5476 4.81788 66.7695 3.04636 64.5344 3.04636Z" fill="#FAFAFA"/>
<path d="M68.8342 11.904H70.6389V3.26159H68.8342V11.904ZM68.6025 1.12583C68.6025 1.75497 69.0991 2.25166 69.7283 2.25166C70.3574 2.25166 70.8541 1.75497 70.8541 1.12583C70.8541 0.496689 70.3574 0 69.7283 0C69.0991 0 68.6025 0.496689 68.6025 1.12583Z" fill="#FAFAFA"/>
<path d="M76.3251 11.904L79.5039 3.26159H77.6165L75.3151 9.95033L72.9972 3.26159H71.0767L74.2886 11.904H76.3251Z" fill="#FAFAFA"/>
<path d="M79.4299 7.61589C79.4299 10.2318 81.218 12.1192 83.9166 12.1192C85.9696 12.1192 87.112 10.9437 87.5259 10.2318L86.3339 9.33775C86.0027 9.81788 85.2577 10.5464 83.9498 10.5464C82.41 10.5464 81.3007 9.55298 81.2676 8.01324H87.7743C87.7908 7.86424 87.7908 7.71523 87.7908 7.56622C87.7908 4.85099 86.2511 3.04636 83.6352 3.04636C81.2676 3.04636 79.4299 4.93377 79.4299 7.61589ZM81.3339 6.77152C81.4498 5.41391 82.41 4.55298 83.6517 4.55298C84.8935 4.55298 85.8868 5.34768 85.9531 6.77152H81.3339Z" fill="#FAFAFA"/>
<path d="M92.816 3.04636C91.5909 3.04636 90.6803 3.75828 90.3491 4.6192V3.26159H88.5776V11.904H90.3823V8.17881C90.3823 6.30795 90.9286 4.86755 92.816 4.86755V3.04636Z" fill="#FAFAFA"/>
<rect y="5.5574" width="4.13907" height="6.34658" fill="#253854"/>
<rect x="5.51877" y="0.314575" width="4.13907" height="11.5894" fill="#253854"/>
<rect x="11.0375" y="3.34988" width="4.13907" height="8.55408" fill="#253854"/>
</svg>