<svg width="30" height="30" viewBox="0 0 30 30" fill="none" xmlns="http://www.w3.org/2000/svg">
<path d="M29.9827 15.4102C29.9827 15.3437 29.9827 15.2769 29.9827 15.2101C29.9827 15.092 29.9827 14.9738 29.9827 14.8557C29.9827 14.7895 29.9827 14.7234 29.9827 14.6573C29.981 14.1245 29.9772 13.5906 29.9097 13.0622C29.7209 11.5905 29.3186 10.1783 28.7049 8.82503C27.9719 7.20964 26.9868 5.76751 25.7524 4.49724C25.0673 3.79254 24.3168 3.16188 23.5036 2.60735C22.4992 1.92227 21.4332 1.35603 20.2925 0.932031C20.2277 0.907921 20.1633 0.882777 20.092 0.896899C20.0352 0.914465 19.9932 0.954075 19.9494 0.991273C19.3387 1.51343 18.7367 2.04523 18.1291 2.57049C17.2825 3.30207 16.4404 4.0388 15.5948 4.77176C14.9789 5.30562 14.3672 5.84363 13.749 6.3744C13.6863 6.42813 13.606 6.47979 13.6329 6.58588C13.6825 6.66613 13.7696 6.68542 13.8489 6.71642C15.9037 7.5248 17.9614 8.32732 20.0193 9.12778C20.1602 9.18255 20.2222 9.2597 20.2208 9.41986C20.2139 10.3722 20.2177 11.3249 20.217 12.2773C20.217 12.392 20.2239 12.5067 20.2084 12.6214C20.1888 12.6944 20.1244 12.7288 20.0731 12.7719C18.4126 14.1572 16.7462 15.5359 15.0864 16.9219C14.6242 17.308 14.1554 17.6866 13.697 18.0772C13.6239 18.1395 13.511 18.1932 13.5802 18.3262C13.7972 18.4722 14.051 18.5335 14.2897 18.6272C16.1893 19.3726 18.0933 20.1062 19.9887 20.8622C20.2177 20.9535 20.2177 20.9556 20.2177 21.1998C20.2181 22.1745 20.2181 23.1493 20.2174 24.124C20.2174 24.198 20.2274 24.2738 20.1867 24.3427C20.144 24.4285 20.0617 24.4757 19.9921 24.5332C18.2621 25.9574 16.5371 27.3882 14.8088 28.8145C14.433 29.1245 14.0528 29.4293 13.6846 29.7482C13.6267 29.7982 13.5272 29.8381 13.5799 29.9501C13.6749 29.9986 13.7838 29.9614 13.8805 29.9993C13.9263 29.9993 13.9725 29.9993 14.0183 29.9993C14.0414 29.978 14.0641 29.978 14.0872 29.9993C14.133 29.9993 14.1792 29.9993 14.225 29.9993C14.2939 29.9721 14.3627 29.9721 14.4316 29.9993C14.7991 29.9993 15.1663 29.9993 15.5338 29.9993C15.5913 29.9718 15.6485 29.9718 15.706 29.9993C15.7635 29.9993 15.8207 29.9993 15.8782 29.9993C15.9013 29.978 15.9241 29.978 15.9471 29.9993C15.9702 29.9993 15.9929 29.9993 16.016 29.9993C16.057 29.9676 16.1045 29.9859 16.149 29.9824C16.4855 29.9566 16.8247 29.9645 17.1595 29.9156C18.5479 29.7124 19.8823 29.3259 21.1615 28.7456C23.2498 27.7984 25.0343 26.4493 26.5122 24.6978C27.4208 23.6211 28.16 22.4352 28.7324 21.1471C29.5439 19.3212 30.0082 17.4189 29.9827 15.4102Z" fill="#FE0000"/>
<path d="M16.3667 23.1314C16.4332 23.0745 16.5169 23.0129 16.4611 22.9006C16.4022 22.8317 16.3185 22.8069 16.2386 22.7759C15.9334 22.6588 15.6286 22.5403 15.3234 22.4225C13.5627 21.7423 11.8047 21.0551 10.0433 20.3773C9.78254 20.277 9.78288 20.275 9.78254 19.9912C9.78254 19.0212 9.7822 18.0513 9.78288 17.0814C9.78288 17.0015 9.776 16.9206 9.80045 16.8417C9.81492 16.7862 9.86314 16.7614 9.9024 16.7294C11.6903 15.2649 13.469 13.7893 15.2549 12.322C15.6358 12.009 16.0181 11.6972 16.3956 11.38C16.4621 11.3242 16.5551 11.2702 16.4886 11.1558C16.4294 11.0976 16.3512 11.0738 16.2768 11.0456C15.7619 10.8506 15.2504 10.6474 14.7368 10.4494C13.1638 9.84283 11.5936 9.22974 10.0205 8.62354C9.78323 8.53192 9.78323 8.52985 9.78323 8.27325C9.78289 7.2868 9.78289 6.3 9.78323 5.31355C9.78323 5.23915 9.77841 5.16441 9.79563 5.09036C9.85177 4.99323 9.94752 4.9364 10.0312 4.86923C11.9111 3.36613 13.7821 1.85201 15.662 0.348564C15.7247 0.298622 15.7936 0.254534 15.8435 0.191503C15.8807 0.144661 15.9362 0.0902404 15.8476 0.0368535C15.6864 -0.00310061 15.5221 0.0265205 15.3596 0.0172209C15.29 0.0172209 15.2201 0.0172209 15.1502 0.0172209C15.0406 0.0172209 14.9308 0.0172209 14.8212 0.0172209C14.7544 0.0172209 14.6876 0.0172209 14.6208 0.0172209C14.1964 0.0120544 13.7714 0.0230762 13.3502 0.0585527C12.5717 0.123995 11.8071 0.276922 11.0521 0.482548C8.5636 1.1597 6.3954 2.40344 4.53237 4.17933C3.76188 4.91366 3.08404 5.73031 2.49127 6.61585C1.80172 7.64604 1.2403 8.74133 0.818025 9.90689C0.456716 10.903 0.203215 11.926 0.0692307 12.9775C0.0278989 13.3002 0.050287 13.6274 0 13.9495C0 13.9953 0 14.0415 0 14.0873C0.0210103 14.1065 0.0161883 14.132 0.0172216 14.1561C0.0161883 14.1803 0.0210103 14.2057 0 14.225C0 14.6728 0 15.1206 0 15.5683C0.0272101 15.6372 0.0272101 15.7061 0 15.775C0 15.8783 0 15.9816 0 16.085C0.0489093 16.3953 0.0268656 16.7111 0.0661308 17.0218C0.257979 18.5487 0.692307 20.0053 1.34638 21.3958C2.22434 23.2622 3.4326 24.8845 4.97187 26.2588C6.20218 27.3572 7.58369 28.219 9.09402 28.8758C9.23421 28.9367 9.37163 29.017 9.53352 29.0118C9.63512 28.9815 9.71538 28.9188 9.79391 28.8506C10.0236 28.6522 10.2506 28.4504 10.48 28.2517C11.2157 27.6138 11.9511 26.9752 12.6847 26.3353C13.4573 25.6612 14.2309 24.9882 15.0048 24.3159C15.4595 23.9215 15.9086 23.5212 16.3667 23.1314Z" fill="#FE0000"/>
<path d="M29.9711 15.2246C29.9711 15.0978 29.9711 14.9714 29.9711 14.8447C29.9811 14.8264 29.9904 14.8257 29.9997 14.845C29.9997 14.9714 29.9997 15.0975 29.9997 15.2239C29.9907 15.2432 29.9811 15.2425 29.9711 15.2246Z" fill="#FDD4D4"/>
<path d="M15.1557 0.0285878C15.0407 0.0285878 14.9253 0.0285878 14.8103 0.0285878C14.7968 0.0220436 14.7923 0.0154994 14.7972 0.00929966C14.8013 0.00309989 14.8058 0 14.8106 0C14.9253 0 15.0403 0 15.155 0C15.1688 0.00619977 15.1733 0.0123995 15.1688 0.0189437C15.1647 0.0254879 15.1602 0.0285878 15.1557 0.0285878Z" fill="#FDD2D2"/>
<path d="M14.8106 0C14.8106 0.00964409 14.8103 0.0189437 14.8099 0.0285878C14.741 0.0285878 14.6722 0.0285878 14.6033 0.0285878C14.6036 0.0189437 14.6036 0.00964409 14.604 0C14.6728 0 14.7417 0 14.8106 0Z" fill="#FDE6E6"/>
<path d="M15.1557 0.0285878C15.1554 0.0189437 15.155 0.00964409 15.155 0C15.2239 0 15.2928 0 15.3617 0C15.362 0.00964409 15.362 0.0189437 15.3624 0.0285878C15.2935 0.0285878 15.2246 0.0285878 15.1557 0.0285878Z" fill="#FDE6E6"/>
<path d="M30 14.845L29.9855 14.8443L29.9711 14.8447C29.9711 14.7758 29.9711 14.7069 29.9711 14.6377C29.9807 14.6366 29.99 14.6366 29.9997 14.6383C30 14.7072 30 14.7761 30 14.845Z" fill="#FDE5E5"/>
<path d="M29.9711 15.2246C29.9807 15.2253 29.9904 15.2249 30 15.2239C30 15.2928 30 15.3617 30 15.4305L29.9855 15.4312L29.9711 15.4309C29.9711 15.3623 29.9711 15.2935 29.9711 15.2246Z" fill="#FDE9E9"/>
<path d="M0 15.5683C0.0427095 15.6372 0.0588978 15.7061 0 15.775C0 15.7061 0 15.6372 0 15.5683Z" fill="#FD3C3C"/>
<path d="M14.2251 30C14.294 29.9411 14.3629 29.9559 14.4318 30C14.3629 30 14.294 30 14.2251 30Z" fill="#FD3737"/>
<path d="M15.5338 30C15.5913 29.9573 15.6485 29.9439 15.706 30C15.6485 30 15.5913 30 15.5338 30Z" fill="#FD3737"/>
<path d="M0 14.0873C0.0396096 14.0969 0.0323766 14.1265 0.0289323 14.1544C0.0206659 14.1782 0.0110218 14.1785 0 14.1561C0 14.1331 0 14.1103 0 14.0873Z" fill="#FD9797"/>
<path d="M0 14.1561C0.00964409 14.1551 0.0192882 14.1544 0.0289323 14.1548C0.0344432 14.1844 0.0337543 14.2112 0 14.225C0 14.2019 0 14.1792 0 14.1561Z" fill="#FD7777"/>
<path d="M14.0184 30C14.0415 29.9494 14.0642 29.9545 14.0873 30C14.0642 30 14.0415 30 14.0184 30Z" fill="#FDA7A7"/>
<path d="M15.8783 30C15.9014 29.9545 15.9241 29.9494 15.9472 30C15.9241 30 15.9014 30 15.8783 30Z" fill="#FDA7A7"/>
<path d="M16.4652 22.9464C15.4323 22.5434 14.4 22.1394 13.3664 21.7381C12.1998 21.2852 11.0325 20.8336 9.86351 20.3862C9.75123 20.3432 9.70852 20.2922 9.70921 20.1665C9.71506 19.0887 9.71196 18.011 9.71437 16.9333C9.71437 16.8823 9.68131 16.8186 9.74606 16.779C9.89038 16.7535 10.0151 16.8196 10.1415 16.8692C11.1238 17.2553 12.1096 17.6328 13.0912 18.0207C13.1924 18.0606 13.2951 18.0978 13.3967 18.1374C13.4725 18.1671 13.5441 18.2029 13.5796 18.2835C15.1891 18.9096 16.7987 19.5355 18.4078 20.1627C18.9886 20.389 19.5669 20.6218 20.1489 20.8454C20.2564 20.8867 20.2909 20.9408 20.2902 21.0579C20.2847 22.1246 20.2881 23.1916 20.2822 24.2583C20.2819 24.299 20.3577 24.4061 20.2213 24.3999C20.0925 24.4488 19.9857 24.3723 19.8772 24.3303C18.888 23.948 17.8984 23.566 16.9096 23.1816C16.8135 23.1441 16.7153 23.1121 16.6202 23.0718C16.5569 23.0449 16.4918 23.0191 16.4652 22.9464Z" fill="#FEFEFE"/>
<path d="M16.4897 11.2002C14.5113 10.4346 12.5325 9.66923 10.5541 8.90356C10.3089 8.80849 10.0654 8.7093 9.81806 8.6194C9.74194 8.59185 9.71094 8.55844 9.71094 8.47371C9.71369 7.35499 9.71266 6.23662 9.71335 5.11791C9.71335 5.08553 9.70405 5.0473 9.74676 5.03008C9.84113 5.01251 9.92758 5.04179 10.0137 5.0752C10.9805 5.45201 11.9463 5.83226 12.9128 6.21114C13.0943 6.28243 13.2789 6.34581 13.458 6.42227C13.5252 6.45086 13.602 6.46946 13.6326 6.54937C14.3435 6.8318 15.0534 7.11665 15.7657 7.39564C17.2185 7.96464 18.6723 8.53157 20.1272 9.09541C20.2426 9.14018 20.2915 9.19185 20.2908 9.32583C20.2839 10.3863 20.2874 11.4468 20.2857 12.5073C20.2857 12.5662 20.3146 12.6341 20.2543 12.684C20.172 12.6947 20.0969 12.6699 20.0211 12.6406C18.9097 12.2118 17.7996 11.7799 16.6877 11.3525C16.6068 11.3215 16.5276 11.2874 16.4897 11.2002Z" fill="#FEFEFE"/>
<path d="M16.4897 11.2002C17.6632 11.6559 18.8367 12.1113 20.0098 12.568C20.0938 12.6007 20.1868 12.6162 20.2543 12.684C19.8796 13.0385 19.4708 13.3526 19.0754 13.6822C17.2829 15.1764 15.4874 16.6667 13.6936 18.1588C13.6502 18.1946 13.5972 18.2232 13.5796 18.2831C12.3218 17.792 11.0642 17.3012 9.80637 16.8096C9.78536 16.8014 9.76607 16.789 9.74609 16.7783C11.9632 14.9521 14.1803 13.1259 16.3971 11.2991C16.4318 11.2708 16.4591 11.2333 16.4897 11.2002Z" fill="#FEB1B1"/>
<path d="M16.4652 22.9464C17.7172 23.431 18.9692 23.9156 20.2212 24.3999C19.9732 24.6623 19.676 24.8673 19.4021 25.0991C18.8355 25.5789 18.2593 26.0477 17.6865 26.5199C17.0741 27.0251 16.4603 27.5291 15.8479 28.0343C15.2796 28.5031 14.7117 28.9726 14.1447 29.4431C13.9515 29.6032 13.7617 29.7672 13.5702 29.9294C12.9575 29.8963 12.3561 29.7854 11.7578 29.6566C11.0476 29.5037 10.3525 29.2987 9.67468 29.0359C9.62749 29.0177 9.58341 28.9929 9.5376 28.9708C9.89891 28.7074 10.2168 28.3925 10.5564 28.1036C11.0572 27.6772 11.5522 27.2439 12.0489 26.8123C12.4332 26.4782 12.8152 26.1413 13.1993 25.8072C13.7001 25.3719 14.2026 24.9386 14.703 24.5029C15.0998 24.1571 15.4966 23.8109 15.8893 23.4603C16.0815 23.2888 16.2957 23.1424 16.4652 22.9464Z" fill="#CF0000"/>
<path d="M13.6329 6.54937C13.005 6.30758 12.3764 6.0682 11.7496 5.82296C11.0807 5.56154 10.4142 5.2946 9.7467 5.03008C10.4686 4.44902 11.1906 3.86866 11.9118 3.28726C12.8824 2.50436 13.8516 1.72009 14.8229 0.937888C15.1347 0.686797 15.4508 0.441217 15.7636 0.190815C15.8077 0.155683 15.8421 0.108841 15.8814 0.0671644C16.6405 0.0833527 17.3869 0.202871 18.1267 0.359931C18.7922 0.501148 19.45 0.674053 20.0831 0.929966C19.8806 1.17348 19.6168 1.35052 19.3849 1.56234C18.9882 1.924 18.5748 2.26774 18.1681 2.61906C17.6838 3.03754 17.1985 3.455 16.7153 3.87486C16.3226 4.21584 15.933 4.56062 15.5404 4.9023C15.0489 5.32974 14.5557 5.7558 14.0628 6.18186C13.9198 6.30448 13.7759 6.42675 13.6329 6.54937Z" fill="#CF0000"/>
</svg>
