<svg width="30" height="30" viewBox="0 0 30 30" fill="none" xmlns="http://www.w3.org/2000/svg">
<circle cx="15" cy="15" r="15" fill="#4E6297"/>
<path d="M21.75 10.364C21.75 9.24093 20.7591 8.25 19.636 8.25H11.114C9.99093 8.25 9 9.24093 9 10.364V18.886C9 20.0091 9.99093 21 11.114 21H15.408V16.1775H13.8225V14.0635H15.408V13.2047C15.408 11.7513 16.465 10.4961 17.7863 10.4961H19.5039V12.6101H17.7863C17.5881 12.6101 17.3899 12.8083 17.3899 13.2047V14.0635H19.5039V16.1775H17.3899V21H19.636C20.7591 21 21.75 20.0091 21.75 18.886V10.364Z" fill="white"/>
</svg>
