<svg width="30" height="30" viewBox="0 0 30 30" fill="none" xmlns="http://www.w3.org/2000/svg">
<circle cx="15" cy="15" r="15" fill="#7294C7"/>
<path d="M22.3546 18.8365C22.3546 18.7742 22.2924 18.7742 22.2924 18.712C22.0433 18.2138 21.4829 17.5911 20.7357 16.9062C20.3621 16.5949 20.1753 16.3458 20.0507 16.2213C19.8639 15.9722 19.864 15.7854 19.9262 15.5363C19.9885 15.3495 20.2375 15.0382 20.6734 14.4778C20.9225 14.1664 21.047 13.9797 21.2338 13.7928C22.1678 12.5475 22.6037 11.738 22.4792 11.3644L22.4169 11.3022C22.3546 11.2399 22.2924 11.1776 22.1678 11.1776C22.0433 11.1154 21.8565 11.1154 21.6697 11.1776H19.3035C19.2413 11.1776 19.2413 11.1776 19.1167 11.1776C19.0545 11.1776 18.9922 11.1776 18.9922 11.1776H18.9299H18.8677L18.8054 11.2399C18.7431 11.3022 18.7431 11.3022 18.7431 11.3644C18.4941 12.0494 18.1827 12.6098 17.8714 13.2324C17.6846 13.5438 17.4978 13.8551 17.311 14.1042C17.1242 14.3533 16.9996 14.5401 16.8751 14.6646C16.7506 14.7891 16.626 14.8514 16.5638 14.9759C16.5015 15.0382 16.377 15.1005 16.377 15.0382C16.3147 15.0382 16.2524 15.0382 16.2524 14.9759C16.1902 14.9137 16.1279 14.8514 16.0656 14.7891C16.0034 14.7269 16.0034 14.6023 15.9411 14.4778C15.9411 14.3532 15.9411 14.2287 15.9411 14.1664C15.9411 14.1042 15.9411 13.9174 15.9411 13.7928C15.9411 13.606 15.9411 13.4815 15.9411 13.4192C15.9411 13.2324 15.9411 12.9834 15.9411 12.7343C15.9411 12.4852 15.9411 12.2984 15.9411 12.1739C15.9411 12.0494 15.9411 11.8626 15.9411 11.738C15.9411 11.5512 15.9411 11.4267 15.9411 11.3644C15.9411 11.3022 15.8789 11.1776 15.8789 11.1154C15.8166 11.0531 15.7543 10.9908 15.692 10.9286C15.6298 10.8663 15.5052 10.8663 15.443 10.804C15.1316 10.7418 14.758 10.6795 14.3222 10.6795C13.3259 10.6795 12.641 10.7418 12.3919 10.8663C12.2673 10.9286 12.1428 10.9908 12.0805 11.1154C11.956 11.2399 11.956 11.3022 12.0183 11.3022C12.3296 11.3644 12.5787 11.489 12.7032 11.6758L12.7655 11.8003C12.8278 11.8626 12.8277 11.9871 12.89 12.1739C12.9523 12.3607 12.9523 12.5475 12.9523 12.7966C12.9523 13.1702 12.9523 13.5438 12.9523 13.7928C12.9523 14.1042 12.89 14.291 12.89 14.4778C12.89 14.6646 12.8278 14.7891 12.7655 14.8514C12.7032 14.9759 12.7032 15.0382 12.6409 15.0382C12.6409 15.0382 12.6409 15.1005 12.5787 15.1005C12.5164 15.1005 12.4541 15.1627 12.3296 15.1627C12.2673 15.1627 12.1428 15.1005 12.0805 15.0382C11.956 14.9759 11.8315 14.8514 11.7692 14.7269C11.6447 14.6023 11.5201 14.4155 11.3956 14.1664C11.2711 13.9174 11.0843 13.6683 10.9597 13.2947L10.8352 13.0456C10.7729 12.9211 10.6484 12.672 10.5239 12.3607C10.3993 12.0494 10.2748 11.8003 10.1503 11.489C10.088 11.3644 10.0257 11.3022 9.96347 11.2399H9.9012C9.9012 11.2399 9.83892 11.1776 9.77665 11.1776C9.71439 11.1776 9.65213 11.1154 9.58986 11.1154H7.34824C7.09917 11.1154 6.97464 11.1776 6.91237 11.2399L6.8501 11.3022C6.8501 11.3022 6.8501 11.3644 6.8501 11.4267C6.8501 11.489 6.8501 11.5512 6.91237 11.6758C7.2237 12.423 7.59731 13.1702 7.97091 13.9174C8.34451 14.6023 8.71812 15.225 8.96719 15.6609C9.27852 16.0967 9.52759 16.5326 9.83892 16.9062C10.1503 17.2798 10.3371 17.5289 10.3993 17.6534C10.5239 17.7779 10.5861 17.8402 10.6484 17.9025L10.8352 18.0893C10.9597 18.2138 11.1465 18.4006 11.3956 18.5874C11.6447 18.7742 11.956 18.961 12.2673 19.1478C12.5787 19.3346 12.9523 19.4592 13.3259 19.5837C13.7618 19.7082 14.1354 19.7705 14.509 19.7082H15.443C15.6298 19.7082 15.7543 19.646 15.8789 19.5214L15.9411 19.4592C15.9411 19.3969 16.0034 19.3969 16.0034 19.3346C16.0034 19.2724 16.0034 19.2101 16.0034 19.0856C16.0034 18.8365 16.0034 18.6497 16.0656 18.4629C16.1279 18.2761 16.1279 18.1516 16.1902 18.027C16.2525 17.9025 16.3147 17.8402 16.377 17.7779C16.4392 17.7157 16.5015 17.6534 16.5015 17.6534H16.5638C16.6883 17.5911 16.8751 17.6534 16.9997 17.7779C17.1865 17.9025 17.3732 18.0893 17.4978 18.2761C17.6223 18.4629 17.8091 18.6497 18.0582 18.8988C18.3073 19.1478 18.4941 19.3346 18.6186 19.3969L18.8054 19.5214C18.9299 19.5837 19.0545 19.646 19.2413 19.7082C19.4281 19.7705 19.5526 19.7705 19.6771 19.7705L21.7942 19.7082C21.981 19.7082 22.1678 19.646 22.2924 19.5837C22.4169 19.5214 22.4792 19.4592 22.4792 19.3346C22.4792 19.2724 22.4792 19.1478 22.4792 19.0856C22.3546 18.961 22.3546 18.8988 22.3546 18.8365Z" fill="white"/>
</svg>
