<svg 
 xmlns="http://www.w3.org/2000/svg"
 xmlns:xlink="http://www.w3.org/1999/xlink"
 width="17px" height="17px">
<path fill-rule="evenodd"  fill="rgb(119, 177, 255)"
 d="M13.438,6.371 C13.438,7.559 12.472,8.526 11.285,8.526 C10.098,8.526 9.131,7.559 9.131,6.371 C9.131,5.184 10.098,4.217 11.285,4.217 C12.472,4.217 13.438,5.184 13.438,6.371 ZM9.671,6.368 C9.671,7.262 10.396,7.986 11.288,7.986 C12.181,7.986 12.906,7.262 12.906,6.368 C12.906,5.474 12.181,4.749 11.288,4.749 C10.396,4.749 9.671,5.474 9.671,6.368 ZM6.318,10.542 L5.231,10.092 C5.650,9.933 6.127,9.927 6.573,10.112 C7.022,10.299 7.371,10.651 7.556,11.100 C7.741,11.550 7.740,12.046 7.553,12.494 C7.166,13.421 6.100,13.861 5.172,13.475 C4.744,13.297 4.421,12.971 4.235,12.582 L5.287,13.018 C5.971,13.302 6.756,12.978 7.040,12.295 C7.325,11.612 7.002,10.827 6.318,10.542 ZM8.491,17.000 C4.655,17.000 1.412,14.464 0.350,10.979 L3.571,12.307 C3.734,13.032 4.231,13.667 4.965,13.973 C6.166,14.474 7.551,13.903 8.050,12.703 C8.180,12.389 8.241,12.060 8.232,11.731 L11.212,9.605 C11.236,9.605 11.260,9.606 11.285,9.606 C13.067,9.606 14.517,8.154 14.517,6.371 C14.517,4.588 13.067,3.137 11.285,3.137 C9.502,3.137 8.053,4.588 8.053,6.371 C8.053,6.385 8.053,6.400 8.053,6.413 L5.971,9.435 C5.634,9.419 5.295,9.478 4.974,9.610 C4.833,9.668 4.700,9.739 4.576,9.820 L0.004,7.940 C0.004,7.940 0.004,7.941 0.004,7.941 C0.003,7.939 0.001,7.937 0.000,7.935 C0.292,3.504 3.981,-0.000 8.491,-0.000 C13.190,-0.000 17.000,3.805 17.000,8.500 C17.000,13.194 13.190,17.000 8.491,17.000 Z"/>
</svg>