<svg 
 xmlns="http://www.w3.org/2000/svg"
 xmlns:xlink="http://www.w3.org/1999/xlink"
 width="96px" height="22px">
<path fill-rule="evenodd"  fill="rgb(2, 107, 180)"
 d="M93.392,15.849 C92.670,17.826 91.792,18.858 90.136,18.858 L90.136,17.683 C91.116,17.683 91.720,16.909 92.067,15.849 L89.300,8.687 L90.885,8.687 L92.729,13.959 L92.816,13.959 L94.458,8.687 L96.000,8.687 L93.392,15.849 ZM85.965,15.190 C86.742,15.190 87.464,14.918 88.255,14.446 L88.255,15.535 C87.607,15.908 86.742,16.194 85.705,16.194 C83.285,16.194 82.291,14.704 82.291,12.441 C82.291,10.263 83.399,8.687 85.561,8.687 C87.363,8.687 88.473,9.848 88.473,12.182 L88.473,12.713 L83.775,12.713 C83.775,14.431 84.481,15.190 85.965,15.190 ZM87.103,11.752 C87.032,10.248 86.296,9.647 85.518,9.647 C84.639,9.647 83.962,10.320 83.803,11.752 L87.103,11.752 ZM79.134,11.165 C79.134,10.033 78.573,9.833 77.837,9.833 C77.261,9.833 76.526,10.092 76.079,10.349 L76.079,16.022 L74.581,16.022 L74.581,9.747 C75.229,9.360 76.598,8.687 78.255,8.687 C79.984,8.687 80.631,9.360 80.631,10.835 L80.631,16.022 L79.134,16.022 L79.134,11.165 ZM70.156,16.194 C68.182,16.194 66.870,14.889 66.870,12.440 C66.870,9.933 68.254,8.687 70.156,8.687 C72.058,8.687 73.441,9.933 73.441,12.440 C73.441,14.889 72.130,16.194 70.156,16.194 ZM70.156,9.691 C69.205,9.691 68.383,10.507 68.383,12.440 C68.383,14.403 69.133,15.190 70.156,15.190 C71.178,15.190 71.927,14.403 71.927,12.440 C71.927,10.507 71.135,9.691 70.156,9.691 ZM64.013,8.707 L63.883,8.707 L60.943,16.070 L60.022,16.070 L57.081,8.878 L56.952,8.878 L56.952,16.070 L55.655,16.070 L55.655,5.913 L57.399,5.913 L60.626,13.920 L60.699,13.920 L63.782,5.913 L65.569,5.913 L65.569,16.070 L64.013,16.070 L64.013,8.707 ZM50.756,16.278 C49.992,16.278 48.810,16.034 47.945,15.575 L47.945,5.577 L49.444,5.220 L49.444,9.301 C49.876,9.073 50.610,8.771 51.389,8.771 C53.176,8.771 54.141,10.003 54.141,12.296 C54.141,14.975 52.844,16.278 50.756,16.278 ZM51.000,9.889 C50.423,9.889 50.006,10.047 49.429,10.361 L49.429,15.045 C49.890,15.246 50.395,15.276 50.756,15.276 C51.822,15.276 52.628,14.616 52.628,12.296 C52.628,10.476 51.965,9.889 51.000,9.889 ZM43.571,15.190 C44.349,15.190 45.069,14.918 45.861,14.446 L45.861,15.535 C45.213,15.908 44.349,16.194 43.310,16.194 C40.890,16.194 39.896,14.704 39.896,12.441 C39.896,10.263 41.005,8.687 43.167,8.687 C44.968,8.687 46.078,9.848 46.078,12.182 L46.078,12.713 L41.380,12.713 C41.380,14.431 42.086,15.190 43.571,15.190 ZM44.708,11.752 C44.637,10.248 43.901,9.647 43.124,9.647 C42.245,9.647 41.567,10.320 41.409,11.752 L44.708,11.752 ZM35.471,16.076 L33.512,8.926 L33.410,8.926 L31.508,16.076 L29.953,16.076 L27.618,5.919 L29.232,5.919 L30.846,13.498 L30.946,13.498 L32.819,5.919 L34.102,5.919 L36.105,13.498 L36.206,13.498 L37.676,5.919 L39.362,5.919 L37.027,16.076 L35.471,16.076 ZM20.025,11.450 L21.357,10.274 L22.582,11.576 L21.229,12.752 L20.025,11.450 ZM18.328,7.562 L19.660,6.386 L20.863,7.689 L19.531,8.865 L18.328,7.562 ZM16.609,3.675 L17.941,2.478 L19.145,3.801 L17.812,4.978 L16.609,3.675 ZM14.310,0.796 L11.646,3.108 L10.077,1.447 L5.178,5.755 L8.315,9.138 L7.090,10.189 L10.185,13.572 L8.960,14.622 L13.387,19.434 L16.007,17.081 L18.285,19.603 C17.834,19.939 17.339,20.276 16.803,20.569 C15.170,21.473 13.279,21.998 11.259,21.998 C5.049,21.998 0.001,17.060 0.001,10.988 C-0.021,4.957 5.028,-0.003 11.237,-0.003 C12.999,-0.003 14.675,0.397 16.179,1.111 C16.415,1.216 16.653,1.342 16.888,1.468 L15.857,2.372 L14.310,0.796 ZM17.554,14.644 L15.750,12.668 L17.748,10.903 L19.553,12.878 L17.554,14.644 ZM17.834,8.718 L15.836,10.483 L14.031,8.529 L16.029,6.765 L17.834,8.718 ZM15.986,4.767 L13.988,6.554 L12.183,4.578 L14.181,2.813 L15.986,4.767 ZM9.948,3.486 L12.355,6.112 L9.669,8.466 L7.263,5.839 L9.948,3.486 ZM16.179,15.106 L13.493,17.460 L11.087,14.854 L13.751,12.480 L16.179,15.106 ZM11.860,7.962 L14.267,10.588 L11.581,12.941 L9.174,10.315 L11.860,7.962 ZM19.510,14.875 L21.314,16.829 L19.316,18.615 L17.511,16.641 L19.510,14.875 Z"/>
</svg>