<svg 
 xmlns="http://www.w3.org/2000/svg"
 xmlns:xlink="http://www.w3.org/1999/xlink"
 width="93px" height="15px">
<path fill-rule="evenodd"  fill="rgb(255, 255, 255)"
 d="M46.500,14.996 L-0.000,14.996 L-0.000,14.058 L-0.000,13.122 L46.500,13.122 L93.000,13.122 L93.000,14.058 L93.000,14.996 L46.500,14.996 ZM91.442,7.760 C91.570,7.922 91.977,8.423 92.337,8.872 C92.698,9.323 93.000,9.760 93.000,9.834 C93.000,9.960 92.663,9.997 91.686,9.997 L90.373,9.997 L89.140,8.497 L87.897,6.998 L86.932,8.497 L85.967,9.985 L84.955,9.997 L83.932,9.997 L83.932,5.061 L83.932,0.124 L84.979,0.124 L86.025,0.124 L86.048,3.011 L86.083,5.898 L88.001,3.011 L89.919,0.124 L91.163,0.124 C91.861,0.124 92.419,0.149 92.419,0.187 C92.419,0.225 92.221,0.549 91.977,0.911 C91.721,1.274 91.000,2.349 90.361,3.323 L89.199,5.086 L89.675,5.635 C90.198,6.247 91.059,7.285 91.442,7.760 ZM77.585,7.898 C76.074,6.685 74.505,5.423 74.098,5.098 L73.354,4.498 L73.354,7.247 L73.354,9.997 L72.307,9.997 L71.261,9.997 L71.261,4.986 C71.261,0.549 71.284,-0.013 71.436,0.049 C71.540,0.087 73.110,1.324 74.923,2.811 C76.748,4.286 78.259,5.498 78.294,5.498 C78.329,5.498 78.352,4.286 78.352,2.811 L78.352,0.124 L79.399,0.124 L80.445,0.124 L80.468,5.123 C80.491,7.873 80.468,10.122 80.410,10.122 C80.364,10.122 79.096,9.122 77.585,7.898 ZM67.797,9.997 L66.646,9.997 L66.379,9.372 L66.100,8.747 L64.065,8.773 L62.031,8.809 L61.752,9.396 L61.461,9.997 L60.392,9.997 C59.811,9.997 59.287,9.960 59.253,9.910 C59.206,9.872 59.415,9.347 59.706,8.760 C60.008,8.173 60.717,6.698 61.299,5.498 C61.868,4.298 62.566,2.861 62.833,2.311 C63.100,1.761 63.461,1.011 63.635,0.649 C63.798,0.299 63.984,-0.001 64.030,-0.001 C64.135,-0.001 64.240,0.199 66.204,4.186 C68.564,8.997 68.936,9.772 68.936,9.884 C68.936,9.947 68.425,9.997 67.797,9.997 ZM64.600,5.648 C64.344,5.086 64.089,4.623 64.054,4.623 C64.019,4.623 63.763,5.086 63.507,5.648 L63.031,6.685 L63.542,6.723 C63.821,6.748 64.286,6.748 64.565,6.723 L65.077,6.685 L64.600,5.648 ZM57.474,7.172 C57.486,8.173 57.183,8.809 56.486,9.323 C55.684,9.897 54.963,9.997 51.592,9.997 L48.592,9.997 L48.592,5.061 L48.592,0.124 L51.673,0.124 C54.463,0.124 54.800,0.149 55.370,0.374 C56.032,0.649 56.637,1.224 56.835,1.786 C57.148,2.661 56.916,3.898 56.323,4.498 L56.044,4.773 L56.532,5.173 C57.218,5.735 57.462,6.260 57.474,7.172 ZM54.579,2.561 C54.300,2.261 54.254,2.249 52.487,2.249 L50.685,2.249 L50.685,3.124 L50.685,3.998 L52.371,3.998 C53.638,3.998 54.149,3.948 54.393,3.811 C54.951,3.511 55.021,3.023 54.579,2.561 ZM54.661,6.123 C54.428,6.060 53.428,5.999 52.464,5.999 L50.685,5.999 L50.685,6.935 L50.685,7.885 L52.777,7.873 L54.870,7.848 L55.102,7.535 C55.533,6.948 55.347,6.335 54.661,6.123 ZM37.537,8.385 C36.840,7.535 36.491,6.611 36.409,5.361 C36.270,2.899 37.572,0.961 39.897,0.187 C41.211,-0.263 43.117,0.211 44.233,1.261 C46.012,2.935 46.279,6.022 44.826,8.072 C43.024,10.610 39.502,10.759 37.537,8.385 ZM42.129,2.436 C40.815,1.848 39.490,2.349 38.886,3.673 C38.374,4.798 38.455,5.835 39.141,6.873 C39.909,8.035 41.896,8.210 42.838,7.197 C43.222,6.797 43.594,5.735 43.594,5.098 C43.582,3.973 42.943,2.811 42.129,2.436 ZM29.876,7.310 L26.389,4.498 L26.389,7.247 L26.389,9.997 L25.342,9.997 L24.296,9.997 L24.296,4.998 C24.296,2.249 24.343,-0.001 24.389,-0.001 C24.447,-0.001 26.028,1.236 27.912,2.761 L31.329,5.523 L31.364,2.824 L31.387,0.124 L32.434,0.124 L33.480,0.124 L33.480,4.924 C33.480,7.560 33.515,9.810 33.550,9.922 C33.585,10.034 33.561,10.122 33.492,10.122 C33.422,10.122 31.794,8.860 29.876,7.310 ZM17.716,9.947 C14.473,10.759 11.462,7.622 12.136,4.136 C12.357,3.023 12.671,2.361 13.392,1.536 C13.985,0.874 14.833,0.349 15.659,0.136 C17.972,-0.451 20.437,0.986 21.169,3.361 C21.518,4.473 21.448,6.135 21.018,7.148 C20.402,8.585 19.251,9.560 17.716,9.947 ZM17.833,2.436 C16.635,1.899 15.426,2.249 14.717,3.335 C14.450,3.748 14.368,4.048 14.310,4.773 C14.229,5.610 14.252,5.735 14.554,6.385 C14.996,7.334 15.589,7.772 16.519,7.848 C18.181,7.972 19.239,6.847 19.193,4.998 C19.170,3.811 18.623,2.799 17.833,2.436 ZM7.091,9.997 L7.091,7.598 L7.091,5.198 L5.812,6.560 L4.522,7.922 L3.313,6.623 L2.092,5.310 L2.092,7.660 L2.092,9.997 L1.046,9.997 L-0.000,9.997 L-0.000,4.998 C-0.000,2.249 0.035,-0.001 0.093,-0.001 C0.139,-0.001 1.174,1.074 2.383,2.374 L4.592,4.748 L6.801,2.374 C8.021,1.062 9.056,-0.001 9.102,-0.001 C9.149,-0.001 9.184,2.249 9.184,4.998 L9.184,9.997 L8.137,9.997 L7.091,9.997 Z"/>
</svg>