<svg 
 xmlns="http://www.w3.org/2000/svg"
 xmlns:xlink="http://www.w3.org/1999/xlink"
 width="100px" height="13px">
<path fill-rule="evenodd"  fill="rgb(255, 255, 255)"
 d="M99.998,10.822 L98.960,10.771 L97.923,10.822 L95.272,6.842 L95.272,10.822 C95.175,10.822 95.024,10.814 94.821,10.796 C94.618,10.779 94.462,10.771 94.357,10.771 C94.259,10.771 94.108,10.779 93.905,10.796 C93.702,10.814 93.546,10.822 93.441,10.822 L93.441,2.221 C93.546,2.221 93.702,2.233 93.905,2.259 C94.108,2.283 94.259,2.296 94.357,2.296 C94.454,2.296 94.605,2.283 94.808,2.259 C95.012,2.233 95.167,2.221 95.272,2.221 L95.272,6.151 C96.330,4.903 97.390,3.594 98.448,2.221 C98.521,2.229 98.632,2.244 98.784,2.264 C98.934,2.285 99.041,2.296 99.107,2.296 C99.197,2.296 99.298,2.288 99.412,2.271 C99.527,2.254 99.640,2.239 99.754,2.221 L99.754,2.321 C99.298,2.766 98.863,3.213 98.448,3.665 C98.179,3.949 97.800,4.376 97.312,4.945 C97.019,5.280 96.779,5.565 96.592,5.799 L99.998,10.658 L99.998,10.822 ZM90.412,10.771 C90.322,10.771 90.176,10.779 89.972,10.796 C89.770,10.814 89.614,10.822 89.509,10.822 L89.509,6.627 C89.289,6.627 88.929,6.620 88.428,6.603 C87.927,6.585 87.665,6.578 87.640,6.578 C87.355,6.578 87.030,6.584 86.663,6.596 C86.297,6.609 85.999,6.620 85.772,6.627 L85.772,10.822 C85.674,10.822 85.523,10.814 85.320,10.796 C85.117,10.779 84.961,10.771 84.856,10.771 C84.758,10.771 84.607,10.779 84.404,10.796 C84.201,10.814 84.045,10.822 83.940,10.822 L83.940,2.221 C84.038,2.221 84.189,2.233 84.392,2.259 C84.595,2.283 84.751,2.296 84.856,2.296 C84.954,2.296 85.104,2.283 85.308,2.259 C85.511,2.233 85.666,2.221 85.772,2.221 L85.772,5.623 C86.033,5.623 86.387,5.634 86.834,5.655 C87.282,5.675 87.550,5.686 87.640,5.686 C87.926,5.686 88.158,5.682 88.336,5.674 C89.045,5.641 89.435,5.623 89.509,5.623 L89.509,2.221 C89.606,2.221 89.757,2.233 89.960,2.259 C90.163,2.283 90.314,2.296 90.412,2.296 C90.518,2.296 90.673,2.283 90.876,2.259 C91.079,2.233 91.235,2.221 91.340,2.221 L91.340,10.822 C91.243,10.822 91.092,10.814 90.889,10.796 C90.686,10.779 90.527,10.771 90.412,10.771 ZM81.732,10.803 C81.610,10.803 81.408,10.810 81.128,10.829 C80.847,10.845 80.702,10.853 80.694,10.853 C80.506,10.243 80.369,9.798 80.279,9.522 C80.115,9.028 79.966,8.601 79.827,8.242 L76.981,8.242 C76.721,8.998 76.531,9.556 76.414,9.914 C76.296,10.271 76.200,10.585 76.127,10.853 L75.553,10.803 L74.967,10.853 L78.160,2.887 C78.161,2.884 78.163,2.880 78.164,2.876 C78.183,2.820 78.194,2.760 78.194,2.696 C78.194,2.439 78.013,2.219 77.799,2.219 C77.960,2.219 78.186,2.219 78.428,2.219 L78.430,2.214 L79.416,2.214 L79.416,2.214 C79.423,2.214 79.429,2.214 79.435,2.214 C79.498,2.393 79.562,2.573 79.627,2.752 L82.794,10.853 C82.680,10.853 82.482,10.845 82.196,10.829 C81.911,10.810 81.757,10.803 81.732,10.803 ZM78.459,4.550 L77.311,7.476 L79.546,7.476 L78.459,4.550 ZM71.691,5.925 C72.554,5.925 73.216,6.102 73.676,6.458 C74.135,6.814 74.366,7.343 74.366,8.046 C74.366,9.069 74.029,9.799 73.352,10.243 C72.823,10.595 72.087,10.771 71.142,10.771 L68.565,10.771 L68.565,2.221 L73.963,2.221 C73.938,2.339 73.922,2.426 73.914,2.485 C73.906,2.543 73.902,2.635 73.902,2.761 C73.902,2.928 73.922,3.108 73.963,3.301 C73.531,3.242 73.065,3.199 72.565,3.169 C72.064,3.139 71.342,3.125 70.397,3.125 L70.397,5.925 L71.691,5.925 ZM70.397,10.067 C70.560,10.060 70.727,10.050 70.898,10.042 C71.069,10.035 71.211,10.013 71.325,9.980 C71.708,9.872 71.995,9.661 72.186,9.352 C72.377,9.043 72.473,8.682 72.473,8.272 C72.473,7.787 72.355,7.389 72.119,7.079 C71.882,6.771 71.601,6.615 71.276,6.615 L70.397,6.615 L70.397,10.067 ZM66.587,3.904 C66.360,3.569 66.060,3.293 65.689,3.074 C65.318,2.857 64.943,2.748 64.560,2.748 C63.615,2.748 62.887,3.158 62.374,3.978 C61.934,4.682 61.714,5.552 61.714,6.590 C61.714,7.695 61.966,8.580 62.472,9.246 C62.977,9.911 63.693,10.243 64.621,10.243 C65.004,10.243 65.392,10.158 65.787,9.986 C66.182,9.815 66.521,9.586 66.807,9.302 L66.966,9.378 L66.697,10.457 C66.338,10.641 65.953,10.778 65.543,10.865 C65.132,10.953 64.711,10.997 64.279,10.997 C62.943,10.997 61.853,10.615 61.006,9.854 C60.127,9.069 59.687,8.039 59.687,6.766 C59.687,5.202 60.164,3.996 61.116,3.150 C61.988,2.380 63.131,1.995 64.548,1.995 C64.970,1.995 65.402,2.047 65.842,2.152 C66.282,2.257 66.680,2.409 67.039,2.610 L66.758,3.904 L66.587,3.904 ZM56.878,8.160 C56.268,9.456 55.873,10.344 55.694,10.822 C55.645,10.822 55.564,10.812 55.450,10.796 C55.335,10.779 55.247,10.771 55.181,10.771 L54.656,10.822 C54.795,10.577 55.022,10.121 55.340,9.449 C55.438,9.241 55.580,8.939 55.767,8.545 C55.531,8.024 55.174,7.355 54.693,6.534 C54.603,6.383 54.143,5.620 53.313,4.246 C52.759,3.331 52.365,2.656 52.128,2.221 C52.250,2.221 52.433,2.233 52.678,2.259 C52.922,2.283 53.105,2.296 53.227,2.296 C53.349,2.296 53.533,2.283 53.777,2.259 C54.021,2.233 54.204,2.221 54.327,2.221 C54.432,2.447 54.652,2.857 54.986,3.451 C55.052,3.559 55.372,4.129 55.951,5.159 C56.341,5.845 56.581,6.281 56.671,6.465 C56.866,6.155 57.196,5.490 57.660,4.468 C57.904,3.933 58.234,3.183 58.649,2.221 L59.248,2.259 L59.834,2.221 C59.597,2.656 59.162,3.504 58.527,4.769 C57.941,5.940 57.392,7.070 56.878,8.160 ZM51.176,6.540 C50.590,6.891 49.681,7.067 48.453,7.067 L48.453,10.822 C48.355,10.822 48.204,10.814 48.001,10.796 C47.798,10.779 47.642,10.771 47.537,10.771 C47.431,10.771 47.276,10.779 47.073,10.796 C46.870,10.814 46.718,10.822 46.621,10.822 L46.621,2.221 L49.625,2.221 C51.366,2.221 52.238,2.928 52.238,4.343 C52.238,5.381 51.884,6.113 51.176,6.540 ZM50.022,3.370 C49.807,3.064 49.535,2.912 49.210,2.912 L48.453,2.912 L48.453,6.364 C48.738,6.364 49.007,6.334 49.258,6.276 C49.633,6.168 49.913,5.955 50.101,5.636 C50.265,5.352 50.345,4.996 50.345,4.569 C50.345,4.074 50.237,3.676 50.022,3.370 ZM44.349,10.771 C44.227,10.771 44.026,10.779 43.745,10.796 C43.464,10.814 43.319,10.822 43.311,10.822 C43.123,10.211 42.986,9.767 42.896,9.490 C42.733,8.996 42.583,8.569 42.444,8.209 L39.599,8.209 C39.338,8.966 39.149,9.523 39.031,9.881 C38.914,10.239 38.817,10.553 38.744,10.822 L38.170,10.771 L37.584,10.822 L40.777,2.856 C40.778,2.851 40.780,2.847 40.781,2.844 C40.801,2.788 40.812,2.727 40.812,2.664 C40.812,2.407 40.630,2.187 40.416,2.187 C40.577,2.187 40.804,2.187 41.045,2.187 L41.047,2.182 L42.034,2.182 C42.040,2.182 42.046,2.182 42.052,2.182 C42.116,2.361 42.180,2.541 42.244,2.720 L45.412,10.822 C45.297,10.822 45.099,10.814 44.813,10.796 C44.528,10.779 44.374,10.771 44.349,10.771 ZM41.077,4.518 L39.928,7.444 L42.164,7.444 L41.077,4.518 ZM36.119,10.733 C35.997,10.733 35.818,10.746 35.581,10.771 C35.345,10.796 35.166,10.808 35.044,10.808 C34.792,9.937 34.450,8.903 34.018,7.708 C33.635,6.670 33.256,5.631 32.883,4.593 C32.670,5.121 32.405,5.801 32.083,6.634 C31.760,7.467 31.503,8.165 31.307,8.725 C31.038,9.493 30.806,10.189 30.611,10.808 L30.037,10.771 L29.475,10.808 C29.866,9.862 30.261,8.913 30.660,7.959 C31.058,7.005 31.442,6.053 31.808,5.109 C32.112,4.335 32.392,3.589 32.650,2.871 L32.649,2.871 C32.669,2.815 32.680,2.755 32.680,2.690 C32.680,2.433 32.499,2.214 32.284,2.214 C32.687,2.214 33.500,2.214 33.921,2.208 C34.262,3.171 34.612,4.132 34.971,5.097 C35.198,5.706 35.564,6.661 36.070,7.959 C36.395,8.795 36.770,9.745 37.193,10.808 C37.071,10.808 36.892,10.796 36.656,10.771 C36.419,10.746 36.241,10.733 36.119,10.733 ZM28.767,10.771 L24.102,10.771 L24.102,2.221 L28.767,2.221 C28.750,2.313 28.737,2.409 28.724,2.510 C28.712,2.610 28.706,2.693 28.706,2.761 C28.706,2.819 28.714,2.907 28.730,3.024 C28.747,3.142 28.760,3.233 28.767,3.301 C28.344,3.242 27.912,3.199 27.473,3.169 C27.033,3.139 26.520,3.125 25.934,3.125 L25.934,5.837 L27.216,5.837 C27.436,5.837 27.650,5.829 27.858,5.812 C28.065,5.794 28.352,5.766 28.718,5.724 C28.711,5.766 28.699,5.849 28.682,5.974 C28.665,6.100 28.657,6.193 28.657,6.251 C28.657,6.309 28.665,6.397 28.682,6.515 C28.699,6.632 28.711,6.723 28.718,6.791 C28.237,6.723 27.737,6.690 27.216,6.690 L25.934,6.690 L25.934,9.867 C26.520,9.867 27.033,9.853 27.473,9.823 C27.912,9.793 28.344,9.749 28.767,9.692 C28.750,9.784 28.737,9.880 28.724,9.980 C28.712,10.080 28.706,10.163 28.706,10.231 C28.706,10.289 28.714,10.376 28.730,10.495 C28.747,10.612 28.760,10.703 28.767,10.771 ZM19.889,5.925 C20.752,5.925 21.414,6.102 21.873,6.458 C22.333,6.814 22.564,7.343 22.564,8.046 C22.564,9.069 22.226,9.799 21.550,10.243 C21.020,10.595 20.284,10.771 19.340,10.771 L16.763,10.771 L16.763,2.221 L22.160,2.221 C22.136,2.339 22.119,2.426 22.112,2.485 C22.104,2.543 22.099,2.635 22.099,2.761 C22.099,2.928 22.119,3.108 22.160,3.301 C21.729,3.242 21.263,3.199 20.762,3.169 C20.262,3.139 19.539,3.125 18.595,3.125 L18.595,5.925 L19.889,5.925 ZM18.595,10.067 C18.758,10.060 18.924,10.050 19.095,10.042 C19.266,10.035 19.408,10.013 19.523,9.980 C19.906,9.872 20.193,9.661 20.383,9.352 C20.575,9.043 20.670,8.682 20.670,8.272 C20.670,7.787 20.553,7.389 20.317,7.079 C20.080,6.771 19.799,6.615 19.474,6.615 L18.595,6.615 L18.595,10.067 ZM-0.000,-0.004 L11.993,-0.004 L11.993,13.010 L-0.000,13.010 L-0.000,-0.004 ZM0.732,9.390 C2.199,9.390 3.395,10.688 3.395,12.279 L5.437,12.279 C5.437,9.468 3.324,7.174 0.732,7.174 L0.732,9.390 ZM0.732,6.264 C3.785,6.264 6.276,8.967 6.276,12.279 L8.318,12.279 C8.318,7.746 4.910,4.049 0.732,4.049 L0.732,6.264 ZM0.732,3.131 L0.732,3.138 C5.373,3.138 9.157,7.245 9.157,12.279 L11.199,12.279 C11.199,8.533 9.513,5.201 6.921,3.131 L11.199,3.131 L11.199,0.922 L0.732,0.922 L0.732,3.131 Z"/>
</svg>