<svg 
 xmlns="http://www.w3.org/2000/svg"
 xmlns:xlink="http://www.w3.org/1999/xlink"
 width="86px" height="40px">
<path fill-rule="evenodd"  fill="rgb(255, 140, 0)"
 d="M61.093,11.521 L61.093,24.577 C61.097,24.773 60.947,24.935 60.757,24.939 C60.752,24.939 60.747,24.939 60.741,24.939 L58.156,24.939 C57.966,24.944 57.809,24.789 57.805,24.594 C57.805,24.588 57.805,24.583 57.805,24.577 L57.805,11.521 C57.800,11.326 57.950,11.164 58.140,11.159 C58.145,11.159 58.151,11.159 58.156,11.159 L60.741,11.159 C60.931,11.155 61.088,11.310 61.093,11.505 C61.093,11.510 61.093,11.516 61.093,11.521 ZM81.275,11.159 C81.375,11.159 81.501,11.211 81.626,11.315 C81.701,11.392 81.701,11.521 81.676,11.626 L77.409,24.707 C77.356,24.845 77.227,24.938 77.083,24.940 L74.773,24.940 C74.623,24.940 74.497,24.862 74.447,24.707 L71.961,17.080 L69.476,24.706 C69.423,24.845 69.294,24.936 69.150,24.939 L66.840,24.939 C66.690,24.939 66.564,24.862 66.514,24.706 L62.246,11.625 C62.222,11.521 62.222,11.417 62.296,11.315 C62.347,11.211 62.473,11.159 62.573,11.159 L65.459,11.159 C65.610,11.159 65.735,11.262 65.786,11.417 L68.070,19.148 L70.581,11.417 C70.633,11.280 70.762,11.187 70.907,11.185 L72.940,11.185 C73.090,11.185 73.216,11.262 73.266,11.417 L75.777,19.148 L78.061,11.417 C78.103,11.268 78.235,11.162 78.387,11.159 L81.274,11.159 L81.275,11.159 ZM85.642,11.159 C85.818,11.159 85.968,11.315 85.993,11.521 L85.993,24.577 C85.998,24.773 85.848,24.935 85.658,24.939 C85.653,24.939 85.647,24.939 85.642,24.939 L83.057,24.939 C82.867,24.944 82.710,24.789 82.706,24.594 C82.705,24.588 82.705,24.583 82.706,24.577 L82.706,11.521 C82.701,11.326 82.851,11.164 83.041,11.159 C83.046,11.159 83.051,11.159 83.057,11.159 L85.642,11.159 ZM56.298,24.475 C56.449,24.656 56.323,24.914 56.097,24.914 L52.934,24.914 C52.808,24.917 52.687,24.860 52.608,24.758 L52.081,24.087 C50.976,24.810 49.670,25.250 48.290,25.250 C44.425,25.250 41.287,22.018 41.287,18.037 C41.287,14.055 44.425,10.823 48.290,10.823 C52.156,10.823 55.294,14.055 55.294,18.037 C55.294,19.459 54.892,20.803 54.189,21.940 L56.298,24.474 L56.298,24.475 ZM29.865,25.177 C30.518,25.435 30.769,26.443 30.819,26.883 C30.920,27.685 30.694,27.995 30.443,27.995 C30.192,27.995 29.840,27.685 29.464,27.065 C29.087,26.443 28.937,25.746 29.138,25.383 C29.263,25.150 29.539,25.048 29.866,25.177 L29.865,25.177 ZM26.050,28.098 C26.452,28.098 26.903,28.280 27.305,28.641 C28.083,29.313 28.309,30.089 27.908,30.658 C27.681,30.943 27.305,31.123 26.878,31.123 C26.452,31.123 26.000,30.968 25.699,30.684 C24.996,30.064 24.795,29.029 25.246,28.460 C25.423,28.227 25.699,28.098 26.050,28.098 ZM17.265,35.570 C7.725,35.570 -0.006,27.607 -0.006,17.782 C-0.006,7.958 7.726,-0.004 17.264,-0.004 C26.803,-0.004 34.535,7.959 34.535,17.782 C34.535,21.117 33.631,24.247 32.100,26.909 C32.050,26.987 31.924,26.960 31.899,26.857 C31.297,22.488 28.711,20.083 24.946,19.360 C24.619,19.308 24.569,19.101 24.996,19.049 C26.151,18.946 27.782,18.971 28.636,19.126 C28.685,18.687 28.711,18.222 28.711,17.757 C28.711,11.268 23.590,5.992 17.289,5.992 C10.989,5.992 5.868,11.268 5.868,17.757 C5.868,24.247 10.989,29.521 17.290,29.521 L17.816,29.521 C17.638,28.471 17.562,27.406 17.590,26.340 C17.616,25.616 17.767,25.513 18.068,26.081 C19.649,28.900 21.909,31.434 26.326,32.442 C29.941,33.269 33.555,34.226 37.446,39.319 C37.797,39.758 37.271,40.223 36.869,39.862 C32.903,36.242 29.289,35.053 26.000,35.053 C22.310,35.079 19.800,35.570 17.264,35.570 L17.265,35.570 ZM50.022,21.579 L48.641,19.846 C48.492,19.666 48.617,19.381 48.843,19.381 L51.754,19.381 C51.905,18.967 51.981,18.502 51.981,18.037 C51.981,15.891 50.424,14.029 48.290,14.029 C46.157,14.029 44.600,15.891 44.600,18.037 C44.600,20.182 46.157,22.018 48.290,22.018 C48.893,22.044 49.496,21.863 50.022,21.579 Z"/>
</svg>