<svg width="159" height="150" viewBox="0 0 159 150" fill="none" xmlns="http://www.w3.org/2000/svg">
<mask id="mask0" mask-type="alpha" maskUnits="userSpaceOnUse" x="0" y="0" width="159" height="150">
<path d="M35.557 0.555176H158.225L123.563 149.806H0.894531L35.557 0.555176Z" fill="#051D5A"/>
</mask>
<g mask="url(#mask0)">
<rect x="-9.17969" y="0.555176" width="175.332" height="149.251" rx="1.83213" fill="white"/>
<mask id="mask1" mask-type="alpha" maskUnits="userSpaceOnUse" x="-10" y="0" width="177" height="150">
<rect x="-9.17969" y="0.555176" width="175.332" height="149.251" rx="1.83213" fill="white"/>
</mask>
<g mask="url(#mask1)">
<rect x="-9.17969" y="0.555176" width="175.332" height="149.251" fill="#30C6E0"/>
<path fill-rule="evenodd" clip-rule="evenodd" d="M78.4849 105.031C92.3183 105.031 103.532 91.6666 103.532 75.1808C103.532 58.695 92.3183 45.3306 78.4849 45.3306C64.6516 45.3306 53.4375 58.695 53.4375 75.1808C53.4375 91.6666 64.6516 105.031 78.4849 105.031Z" fill="#FFCD4B"/>
<path fill-rule="evenodd" clip-rule="evenodd" d="M68.2685 128.534L78.4867 110.357L88.7049 128.534L91.2932 106.873L107.118 117.967L101.563 97.1126L119.859 98.9255L107.263 83.0083L124.407 75.181L107.263 67.3537L119.859 51.4365L101.563 53.2494L107.118 32.3949L91.2932 43.4889L88.7049 21.8276L78.4867 40.0054L68.2685 21.8276L65.6802 43.4889L49.8559 32.3949L55.4102 53.2494L37.1139 51.4365L49.7108 67.3537L32.5664 75.181L49.7108 83.0083L37.1139 98.9255L55.4102 97.1126L49.8559 117.967L65.6802 106.873L68.2685 128.534ZM107.707 75.1806C107.707 94.4141 94.624 110.006 78.4851 110.006C62.3462 110.006 49.2631 94.4141 49.2631 75.1806C49.2631 55.9471 62.3462 40.3553 78.4851 40.3553C94.624 40.3553 107.707 55.9471 107.707 75.1806Z" fill="#FFCD4B"/>
<path fill-rule="evenodd" clip-rule="evenodd" d="M-0.832031 10.8107C-0.832031 10.6421 -0.695319 10.5054 -0.526677 10.5054H7.21176C7.3804 10.5054 7.51712 10.6421 7.51712 10.8107V20.1501C7.51712 20.3187 7.3804 20.4555 7.21176 20.4555H-0.526677C-0.69532 20.4555 -0.832031 20.3187 -0.832031 20.1501V10.8107ZM-0.831345 30.7109C-0.831345 30.5422 -0.694634 30.4055 -0.525991 30.4055H7.21245C7.38109 30.4055 7.5178 30.5422 7.5178 30.7109V40.0502C7.5178 40.2189 7.38109 40.3556 7.21245 40.3556H-0.525992C-0.694634 40.3556 -0.831345 40.2189 -0.831345 40.0502V30.7109ZM-0.525991 50.3057C-0.694634 50.3057 -0.831345 50.4424 -0.831345 50.6111V59.9505C-0.831345 60.1191 -0.694634 60.2558 -0.525992 60.2558H7.21245C7.38109 60.2558 7.5178 60.1191 7.5178 59.9505V50.6111C7.5178 50.4424 7.38109 50.3057 7.21245 50.3057H-0.525991ZM-0.831345 70.5113C-0.831345 70.3427 -0.694634 70.206 -0.525991 70.206H7.21245C7.38109 70.206 7.5178 70.3427 7.5178 70.5113V79.8507C7.5178 80.0193 7.38109 80.156 7.21245 80.156H-0.525992C-0.694634 80.156 -0.831345 80.0193 -0.831345 79.8507V70.5113ZM-0.525991 90.1057C-0.694634 90.1057 -0.831345 90.2424 -0.831345 90.4111V99.7505C-0.831345 99.9191 -0.694634 100.056 -0.525992 100.056H7.21245C7.38109 100.056 7.5178 99.9191 7.5178 99.7505V90.4111C7.5178 90.2424 7.38109 90.1057 7.21245 90.1057H-0.525991ZM-0.831345 110.311C-0.831345 110.143 -0.694634 110.006 -0.525991 110.006H7.21245C7.38109 110.006 7.5178 110.143 7.5178 110.311V119.651C7.5178 119.819 7.38109 119.956 7.21245 119.956H-0.525992C-0.694634 119.956 -0.831345 119.819 -0.831345 119.651V110.311ZM-0.525991 129.906C-0.694634 129.906 -0.831345 130.043 -0.831345 130.212V139.551C-0.831345 139.72 -0.694634 139.856 -0.525992 139.856H7.21245C7.38109 139.856 7.5178 139.72 7.5178 139.551V130.212C7.5178 130.043 7.38109 129.906 7.21245 129.906H-0.525991ZM7.517 120.261C7.517 120.093 7.65371 119.956 7.82235 119.956H15.5608C15.7294 119.956 15.8661 120.093 15.8661 120.261V129.601C15.8661 129.769 15.7294 129.906 15.5608 129.906H7.82235C7.65371 129.906 7.517 129.769 7.517 129.601V120.261ZM7.82235 100.056C7.65371 100.056 7.517 100.193 7.517 100.361V109.701C7.517 109.869 7.65371 110.006 7.82235 110.006H15.5608C15.7294 110.006 15.8661 109.869 15.8661 109.701V100.361C15.8661 100.193 15.7294 100.056 15.5608 100.056H7.82235ZM7.517 80.461C7.517 80.2923 7.65371 80.1556 7.82235 80.1556H15.5608C15.7294 80.1556 15.8661 80.2923 15.8661 80.461V89.8003C15.8661 89.969 15.7294 90.1057 15.5608 90.1057H7.82235C7.65371 90.1057 7.517 89.969 7.517 89.8003V80.461ZM7.82235 60.2558C7.65371 60.2558 7.517 60.3926 7.517 60.5612V69.9006C7.517 70.0692 7.65371 70.2059 7.82235 70.2059H15.5608C15.7294 70.2059 15.8661 70.0692 15.8661 69.9006V60.5612C15.8661 60.3926 15.7294 60.2558 15.5608 60.2558H7.82235ZM7.517 40.661C7.517 40.4923 7.65371 40.3556 7.82235 40.3556H15.5608C15.7294 40.3556 15.8661 40.4923 15.8661 40.661V50.0003C15.8661 50.169 15.7294 50.3057 15.5608 50.3057H7.82235C7.65371 50.3057 7.517 50.169 7.517 50.0003V40.661ZM7.82235 20.4554C7.65371 20.4554 7.517 20.5921 7.517 20.7608V30.1001C7.517 30.2688 7.65371 30.4055 7.82235 30.4055H15.5608C15.7294 30.4055 15.8661 30.2688 15.8661 30.1001V20.7608C15.8661 20.5921 15.7294 20.4554 15.5608 20.4554H7.82235Z" fill="#FFCD4B"/>
</g>
</g>
</svg>
