<svg width="88" height="42" viewBox="0 0 88 42" fill="none" xmlns="http://www.w3.org/2000/svg">
<path d="M62.4254 36.0181C64.6984 34.2643 65.3992 32.9575 65.3992 31.4444C65.4163 29.4155 63.7926 28.0055 61.1094 28.0055C59.161 27.9195 57.281 28.7105 55.9821 30.172L57.5886 31.4616C58.3748 30.5847 59.4857 30.0861 60.665 30.0689C62.169 30.0689 62.8868 30.8426 62.8697 31.7883C62.8526 32.734 62.4595 33.5249 60.7505 34.7973L54.6148 39.6462L54.2901 41.2625H63.7926L64.237 39.2163H58.2894L62.4254 36.0181Z" fill="#00A7E2"/>
<path d="M83.4984 28.0055C79.4821 28.0055 76.7817 31.9946 76.7817 36.6027C76.7475 36.8607 76.7475 37.1358 76.7646 37.3937C76.9184 39.7493 78.9352 41.5204 81.2595 41.3828C85.2417 41.3828 87.9591 37.4797 87.9591 32.8716C87.9933 32.6136 88.0104 32.3385 87.9933 32.0634C87.8737 29.7078 85.857 27.8852 83.4984 28.0055ZM81.4817 39.3367C80.029 39.3367 79.1744 38.4082 79.1744 36.534C79.2086 33.8172 80.6613 30.172 83.2762 30.172C84.6948 30.172 85.5322 31.1005 85.5322 32.9747C85.498 35.7086 84.0624 39.3367 81.4817 39.3367Z" fill="#00A7E2"/>
<path d="M66.8348 35.3475H70.1163C72.2013 35.3475 73.0046 35.9837 73.0046 37.067C72.9875 38.4941 71.8424 39.3195 69.8257 39.3195C68.5097 39.371 67.245 38.9068 66.2537 38.0299L65.0403 39.9213C66.3221 41.0045 67.9799 41.5719 69.6548 41.4688C73.0559 41.4688 75.3803 39.6118 75.4315 36.8263C75.4486 34.6598 73.9104 33.3014 70.5948 33.3014H69.6206L70.5606 30.2924L76.1152 30.3096L76.5424 28.2806H68.937L66.8348 35.3475Z" fill="#00A7E2"/>
<path d="M22.2618 0.374023L14.8785 11.8599H24.6716L23.048 11.2753L24.4494 8.91967L25.116 12.2382L25.8167 15.935L0.727295 20.5087H9.27273L5.75201 25.9938H14.2975L17.5618 20.5087H26.8251L27.9531 25.9938H35.644L30.3287 0.374023H22.2618Z" fill="#00A7E2"/>
<path d="M57.5545 21.1793C57.5887 21.4372 57.6399 21.6951 57.7083 21.9359C57.7938 22.4001 57.9818 22.83 58.2552 23.1911C58.9047 23.7757 58.8192 23.9992 58.6654 24.8073C58.5628 25.3232 59.2807 25.7702 59.2977 25.7874H66.8348L67.9628 20.3024H75.3803C83.0028 20.3024 86.3868 16.8635 87.6857 10.0889C88.3351 7.07986 88.318 0.374023 78.3541 0.374023H59.7934C59.8617 0.459996 59.913 0.545968 59.9643 0.63194C60.0327 0.838274 60.0668 1.0618 60.101 1.28533C60.101 1.64641 60.2377 1.71519 60.101 1.9903C60.101 2.55772 59.913 2.48894 59.7592 2.81564C59.6225 3.07355 59.5199 3.34866 59.4345 3.64097C59.4345 3.64097 59.6225 3.64097 59.6225 3.83011C59.5541 4.13961 59.4345 4.44911 59.2636 4.70703C59.161 4.89616 59.0243 5.0853 58.8534 5.22286C58.5799 5.37761 58.4945 5.22286 58.4603 5.36041C58.4261 5.49797 58.1527 5.94503 58.1185 6.08258C58.1014 6.25453 58.1014 6.44367 58.1185 6.61561C58.6483 6.83914 60.0327 7.32058 60.3745 7.90519L55.6745 9.4355L57.6912 9.19478C58.5799 9.09161 59.9814 8.93686 60.4428 8.93686C60.8359 8.95406 61.229 9.00564 61.605 9.07442C62.169 9.07442 62.6476 9.17758 63.3141 9.29795C63.6388 9.34953 63.9294 9.48708 64.1857 9.69342L64.3225 9.81378L66.4076 9.67622H66.8177C68.4926 9.38392 70.065 8.69614 71.3981 7.64728C72.697 6.85633 74.1668 6.39208 75.6708 6.27172C76.9697 6.11697 78.2686 6.46086 79.3112 7.23461C80.2341 8.05994 80.5417 9.36672 80.0973 10.5188C79.9777 11.6364 79.3453 12.6337 78.3883 13.2011C77.3628 13.8201 76.1664 14.078 74.9701 13.9233C73.1755 13.6138 71.4664 12.9088 69.9624 11.8599C69.1421 11.3785 68.2534 11.069 67.3134 10.9658C67.2108 10.9658 66.9203 10.9658 66.6981 10.9658L65.2454 11.069C65.2625 11.2065 65.2625 11.3441 65.2454 11.4816C65.2454 11.7396 65.0745 11.8771 64.9206 11.8599C64.6472 11.7568 64.4079 11.5676 64.2712 11.3097V11.4473C64.2712 11.4473 64.2712 11.7568 64.0661 11.7911C63.8952 11.8255 63.7072 11.7911 63.5705 11.6708C63.5363 11.6364 63.485 11.6192 63.4508 11.6536L63.4337 11.6708C63.4337 11.8427 63.4337 11.9459 63.0406 11.8771C62.6476 11.8083 62.8697 11.8771 62.733 11.9631C62.5963 12.0491 62.2374 11.8599 61.9639 11.7396C61.6905 11.6192 61.793 11.3613 61.5367 11.3097H61.3316C61.5025 11.9115 61.6392 12.5305 61.7076 13.1495H61.4341C61.4341 13.4934 61.6563 14.1468 61.7076 14.6282C61.7759 15.1441 61.7759 15.6427 61.7076 16.1585C61.8272 16.1413 61.9297 16.0898 62.0323 16.0382C62.0323 15.8662 62.0665 15.6943 62.1177 15.5395V15.4364C62.1177 15.4364 62.1177 15.4364 62.1177 15.3504V14.9893L62.4767 14.3187C62.4767 14.3187 62.4767 14.1468 62.7159 14.1812C62.8526 14.2671 62.9381 14.4219 62.9552 14.5766C62.9381 14.783 62.8868 14.9721 62.7843 15.1441L62.9381 15.3848C63.1261 15.4364 63.3483 15.402 63.5021 15.2816L63.7243 15.1097C63.7243 14.9205 63.8268 14.6798 64.2712 14.7658C64.425 14.7658 64.8694 15.1784 64.2712 15.5395C64.8694 15.5395 64.801 16.2273 64.3908 16.4508C64.3908 16.4508 64.3908 16.4508 64.3908 16.5368C64.4763 16.6572 64.5276 16.7947 64.5276 16.9323C64.5276 16.9323 64.5276 17.1214 63.9465 17.3278C63.9465 17.3278 63.7756 17.3278 63.8439 17.5169L64.0832 17.6029C64.0832 17.6029 64.613 17.7232 64.5105 18.0155C64.5105 18.0155 64.425 18.2563 63.9294 18.1015C63.7585 18.1187 63.6046 18.1187 63.4337 18.1015C63.1261 18.2047 62.8014 18.2906 62.4767 18.3422C62.3741 18.3594 62.2886 18.411 62.2203 18.497C61.7588 18.9612 61.1606 19.2707 60.5112 19.3911C60.0327 19.3911 59.9643 19.0128 59.6054 18.6517C59.0243 17.9296 58.6996 17.0354 58.6996 16.1069H58.597C58.6312 17.0183 58.3748 17.9124 57.8279 18.6345C57.2981 19.0472 56.6828 19.3223 56.0163 19.4255C52.5981 20.2336 48.9236 22.3485 49.3338 22.8644C49.5047 23.0535 49.8978 22.6752 50.5643 22.3657C52.7178 21.4372 55.0592 20.9902 57.4007 21.0246C57.4861 21.0418 57.5374 21.0933 57.5545 21.1793Z" fill="#00A7E2"/>
<path d="M50.6839 17.9296C48.9577 18.5486 52.7006 16.2101 55.5377 15.5395C57.5545 15.0409 54.0508 14.9377 50.8377 16.3649C50.137 16.64 49.4705 16.9667 48.8381 17.3622C49.1116 16.9323 49.2483 16.4165 49.2312 15.9006C49.1628 15.5223 49.197 15.1441 49.3679 14.8002C49.4876 14.5766 49.3679 13.9405 49.5388 13.6138L51.2479 14.1468L58.0843 11.8427L51.641 12.8056L49.4192 10.8798C48.9919 10.2436 48.8723 9.4527 49.0945 8.71334C49.4363 8.1975 49.8123 7.73326 50.2566 7.30339C50.8036 7.04548 51.3846 6.83914 51.9657 6.68439C52.4785 6.42648 52.8886 6.59842 53.2476 6.52964C53.6406 6.42648 54.0337 6.30612 54.4268 6.16856C54.4268 6.16856 54.4268 5.82467 54.4268 5.7215C54.3243 5.30884 54.2901 4.89617 54.2901 4.46631C54.2901 4.07084 54.6832 3.70975 54.7003 3.45184C54.7174 3.19392 54.5294 2.90161 54.7003 2.6437C54.8541 2.35139 54.9737 2.0247 55.0421 1.698C55.0421 1.3885 54.8028 1.28533 54.9396 0.975835L55.1959 0.460001H31.5934L32.9436 6.94231H42.2069L41.1814 11.9287H48.1716L33.9178 14.5251H40.6516L38.293 25.9938H45.5737L45.9327 25.5983C46.2574 25.2716 45.9327 24.4291 46.0694 24.1196C46.2061 23.8101 46.8727 23.4662 46.9923 23.0535C47.1119 22.6408 46.0352 22.5893 46.565 21.9875C47.0948 21.3857 47.3854 21.7467 47.3512 21.3857C47.317 21.0246 47.8639 20.3884 48.1203 20.1992C49.6072 19.1332 51.2479 18.2906 52.9741 17.706C54.4781 17.259 52.4101 17.3106 50.6839 17.9296Z" fill="#00A7E2"/>
<path d="M70.7315 11.0346C70.7486 11.0002 70.7657 10.9486 70.7486 10.9142C70.7657 10.4156 70.8512 9.93413 71.005 9.45269C71.0562 9.34952 71.0221 9.22916 70.9366 9.17758C70.8682 9.14319 70.7828 9.14319 70.7144 9.17758C70.0137 9.59024 69.2617 9.88255 68.4755 10.0889C68.4072 10.1061 68.3388 10.1749 68.3388 10.2436C68.3388 10.3468 68.3388 10.3984 68.4413 10.3984C69.125 10.5703 69.7744 10.8282 70.4068 11.1377V11.1549C70.5264 11.2065 70.6632 11.1549 70.7315 11.0346Z" fill="#00A7E2"/>
<path d="M85.0024 25.9766L85.2075 24.9105H85.6348V24.6526H84.5068V24.9105H84.9169L84.6948 25.9766H85.0024Z" fill="#00A7E2"/>
<path d="M87.0704 25.9766L87.3438 24.6526H87.1046L86.4722 25.4779L86.1475 24.6526H85.8911L85.6348 25.9766H85.874L86.0449 25.1856L86.3013 25.839H86.438L86.9508 25.1856L86.7969 25.9766H87.0704Z" fill="#00A7E2"/>
</svg>
