<svg width="56" height="53" viewBox="0 0 56 53" fill="none" xmlns="http://www.w3.org/2000/svg">
<path fill-rule="evenodd" clip-rule="evenodd" d="M0.0791016 25.4116C0.0791016 25.4116 4.43311 14.4078 13.9328 13.6755C23.4324 12.9433 55.6521 25.9657 55.6521 25.9657V0H0.237429L0.0791016 25.4116Z" fill="#D83942"/>
<path fill-rule="evenodd" clip-rule="evenodd" d="M0.0791618 28.6774C0.0791618 28.6774 3.56237 19.1778 13.2401 17.832C22.9179 16.4862 55.4147 26.8963 55.4147 26.8963V52.4662L0 52.6245L0.0791618 28.6774Z" fill="#263C84"/>
<path d="M12.1516 8.41062C12.9829 8.27209 13.9526 7.93564 14.1307 7.08463C14.2711 6.43292 14.1646 5.75232 13.8319 5.17464C13.4992 4.59696 12.9639 4.1633 12.3298 3.95766C11.7424 3.78104 11.1161 3.78104 10.5288 3.95766C10.0244 4.09691 9.55268 4.33478 9.14083 4.65751C8.72898 4.98023 8.3852 5.38141 8.12938 5.83784C7.87356 6.29427 7.71077 6.79689 7.65043 7.31663C7.59009 7.83637 7.6334 8.36292 7.77785 8.86582C8.01336 9.65802 8.49948 10.3525 9.16321 10.8449C8.47053 9.47933 9.91527 8.74707 12.1516 8.41062ZM15.4567 6.7086C15.1987 5.7666 14.5896 4.95922 13.7547 4.45243C14.1239 4.8196 14.3994 5.27022 14.5578 5.76623C14.7163 6.26225 14.7531 6.78911 14.6651 7.30233C14.4276 8.29188 13.8537 8.84603 12.3496 9.08352C10.8454 9.32101 9.91527 9.65745 9.61841 10.271C9.56864 10.3733 9.53992 10.4847 9.53394 10.5983C9.52796 10.712 9.54484 10.8257 9.58359 10.9328C9.62235 11.0398 9.68218 11.138 9.75955 11.2214C9.83691 11.3049 9.93024 11.3721 10.034 11.4188C10.4412 11.626 10.886 11.7485 11.3418 11.7792C11.7976 11.8098 12.2548 11.7478 12.686 11.597C13.1921 11.4598 13.666 11.2235 14.08 10.9017C14.4941 10.5799 14.84 10.179 15.0978 9.72233C15.3556 9.26568 15.5201 8.76235 15.5817 8.24159C15.6433 7.72083 15.6008 7.19302 15.4567 6.68881V6.7086Z" fill="white"/>
<path fill-rule="evenodd" clip-rule="evenodd" d="M9.46007 30.6559C9.46152 30.592 9.44576 30.5289 9.41442 30.4731C9.38308 30.4174 9.33732 30.3712 9.28195 30.3392C9.16189 30.2469 9.02841 30.1735 8.88614 30.1215L8.35178 29.9236C8.15968 29.8706 7.97868 29.7834 7.81742 29.6663C7.63242 29.562 7.47938 29.4092 7.37476 29.2244C7.27014 29.0396 7.21791 28.8297 7.2237 28.6174C7.2209 28.4133 7.26136 28.211 7.34244 28.0237C7.42566 27.864 7.54007 27.7227 7.67889 27.6081C7.83083 27.4877 8.00602 27.4002 8.19345 27.3508C8.41673 27.3206 8.64306 27.3206 8.86634 27.3508C9.13597 27.3206 9.40814 27.3206 9.67777 27.3508C9.89172 27.3828 10.099 27.4496 10.2913 27.5487L9.99443 28.3601H9.79652H9.51945L9.22258 28.2018H8.86634C8.69327 28.1912 8.52099 28.2326 8.37157 28.3206C8.31469 28.3508 8.26766 28.3966 8.23609 28.4528C8.20452 28.5089 8.18972 28.5729 8.19345 28.6372C8.19397 28.7007 8.21058 28.7631 8.24173 28.8185C8.27288 28.8738 8.31755 28.9204 8.37157 28.9539C8.49629 29.0388 8.62883 29.1117 8.76739 29.1716L9.30175 29.3695C9.4905 29.4311 9.6702 29.5177 9.8361 29.6268C10.0059 29.7214 10.1489 29.8576 10.2517 30.0226C10.3747 30.203 10.437 30.4179 10.4298 30.6361C10.4401 30.862 10.3924 31.0869 10.2913 31.2892C10.2133 31.4688 10.0907 31.6255 9.93506 31.7444C9.7688 31.8653 9.58058 31.9527 9.38091 32.0017C9.14445 32.033 8.90489 32.033 8.66844 32.0017H8.15387H7.73826H7.38202L7.14453 31.9027L7.46119 31.0913C7.5268 31.101 7.59348 31.101 7.65909 31.0913L7.93616 31.1902H8.25282H8.60906C8.83293 31.2005 9.05622 31.1599 9.26216 31.0715C9.33437 31.0315 9.39226 30.9699 9.42775 30.8954C9.46324 30.8209 9.47453 30.7371 9.46007 30.6559Z" fill="white"/>
<path fill-rule="evenodd" clip-rule="evenodd" d="M10.5881 28.4986H11.2017V27.7861H12.112V28.4986H13.0026V29.2507H12.112V30.4381C12.0726 30.6274 12.0726 30.8228 12.112 31.0121C12.1376 31.0726 12.1826 31.123 12.2399 31.1552C12.2972 31.1875 12.3636 31.1997 12.4287 31.1902H12.6662H12.8839L13.0818 31.8829L12.6068 32.0412H12.0923C11.9588 32.0549 11.8239 32.039 11.6973 31.9945C11.5707 31.95 11.4555 31.8781 11.36 31.7839C11.1817 31.5605 11.0966 31.2769 11.1225 30.9923V29.2902H10.6079L10.5881 28.4986Z" fill="white"/>
<path fill-rule="evenodd" clip-rule="evenodd" d="M13.1808 31.4082C13.1803 31.2702 13.2294 31.1368 13.3193 31.0321C13.3688 30.9841 13.4279 30.9469 13.4927 30.9231C13.5574 30.8992 13.6264 30.8892 13.6953 30.8936C13.7612 30.8895 13.8272 30.8997 13.8887 30.9237C13.9502 30.9476 14.0058 30.9846 14.0516 31.0321C14.1421 31.1365 14.1919 31.27 14.1919 31.4082C14.1919 31.5463 14.1421 31.6798 14.0516 31.7842C13.954 31.8727 13.8271 31.922 13.6953 31.9227C13.6262 31.9288 13.5567 31.9196 13.4915 31.8959C13.4263 31.8722 13.3671 31.8345 13.3181 31.7854C13.269 31.7364 13.2313 31.6772 13.2076 31.612C13.1839 31.5468 13.1747 31.4772 13.1808 31.4082Z" fill="white"/>
<path fill-rule="evenodd" clip-rule="evenodd" d="M16.6837 28.202H16.4264H16.2285V29.5478H17.0004C17.1136 29.5328 17.2219 29.4922 17.317 29.4291C17.4136 29.3782 17.4954 29.3032 17.5545 29.2114C17.5889 29.0817 17.5889 28.9452 17.5545 28.8155C17.5793 28.7048 17.5793 28.5899 17.5545 28.4791C17.4949 28.3927 17.4128 28.3242 17.317 28.2812C17.2602 28.2493 17.2006 28.2228 17.1389 28.202H16.6837ZM15.2786 27.4698H15.9119H16.6046C16.8483 27.4502 17.0931 27.4502 17.3368 27.4698C17.5641 27.5094 17.7843 27.5828 17.9899 27.6875C18.1853 27.8038 18.3486 27.967 18.4649 28.1624C18.6029 28.3957 18.6716 28.6634 18.6628 28.9343C18.6664 29.1873 18.6123 29.4377 18.5045 29.6666C18.397 29.8556 18.2481 30.018 18.0691 30.1415C17.8868 30.2768 17.6776 30.3713 17.4556 30.4186C17.2301 30.4821 16.9971 30.5153 16.7629 30.5176H16.2285V32.0613H15.2786V27.4698Z" fill="white"/>
<path fill-rule="evenodd" clip-rule="evenodd" d="M20.543 29.1128C20.4373 29.1054 20.3312 29.121 20.2321 29.1586C20.133 29.1962 20.0433 29.2548 19.969 29.3305C19.8279 29.482 19.7439 29.6779 19.7316 29.8847H21.0971C21.1292 29.6916 21.0868 29.4935 20.9784 29.3305C20.9272 29.2635 20.8613 29.209 20.7859 29.1713C20.7104 29.1336 20.6273 29.1136 20.543 29.1128ZM21.8888 31.5867C21.7112 31.7175 21.5094 31.8117 21.295 31.8637C21.0401 31.9514 20.7729 31.9982 20.5034 32.0023C20.2686 32.0205 20.0328 31.9855 19.8135 31.8998C19.5942 31.8141 19.397 31.68 19.2368 31.5075C18.9471 31.1355 18.7997 30.6723 18.8212 30.2013C18.8041 29.958 18.8355 29.7138 18.9137 29.4827C18.9918 29.2517 19.1151 29.0385 19.2764 28.8555C19.4503 28.6988 19.6535 28.578 19.8743 28.4998C20.095 28.4217 20.329 28.3879 20.5628 28.4003C20.7404 28.3809 20.9195 28.3809 21.0971 28.4003C21.2622 28.4509 21.4165 28.5314 21.5523 28.6378C21.6998 28.7436 21.816 28.8872 21.8888 29.0534C21.9714 29.268 22.0117 29.4965 22.0075 29.7263C22.0173 29.825 22.0173 29.9245 22.0075 30.0232C22.0161 30.1352 22.0161 30.2476 22.0075 30.3596H19.7118C19.7094 30.5989 19.7937 30.8309 19.9493 31.0127C20.1582 31.173 20.4189 31.2506 20.6815 31.2304C20.8582 31.2623 21.0392 31.2623 21.2159 31.2304L21.5919 31.0523L21.8888 31.5867Z" fill="white"/>
<path fill-rule="evenodd" clip-rule="evenodd" d="M24.8773 31.7051L24.3033 31.903H23.7888C23.6553 31.9167 23.5204 31.9008 23.3938 31.8563C23.2672 31.8118 23.152 31.7399 23.0565 31.6457C22.8853 31.4194 22.8073 31.1361 22.8388 30.8541V29.152H22.3242V28.4H22.8388V27.6875H23.7294V28.4H24.62V29.152H23.7294V30.3395C23.6899 30.5288 23.6899 30.7242 23.7294 30.9134C23.755 30.974 23.8 31.0243 23.8573 31.0566C23.9146 31.0888 23.981 31.1011 24.046 31.0915H24.2835H24.4616C24.5523 31.3247 24.6943 31.5344 24.8773 31.7051Z" fill="white"/>
<path fill-rule="evenodd" clip-rule="evenodd" d="M26.7771 29.1128C26.6683 29.1038 26.5588 29.1187 26.4563 29.1562C26.3537 29.1938 26.2606 29.2533 26.1834 29.3305C26.0557 29.4885 25.9796 29.682 25.9657 29.8847H27.4104C27.4368 29.689 27.3872 29.4907 27.2719 29.3305C27.2177 29.2519 27.1428 29.1899 27.0554 29.1515C26.968 29.113 26.8717 29.0997 26.7771 29.1128ZM28.1229 31.5867C27.9418 31.7114 27.7411 31.805 27.5292 31.8638C27.2675 31.9516 26.9938 31.9983 26.7177 32.0023C26.4833 32.0177 26.2483 31.9814 26.0294 31.8959C25.8105 31.8104 25.6131 31.6778 25.4511 31.5075C25.1639 31.1276 25.0234 30.6568 25.0553 30.1815C25.0336 29.9379 25.0628 29.6924 25.1412 29.4607C25.2196 29.229 25.3453 29.0162 25.5105 28.8358C25.6809 28.6797 25.8806 28.559 26.0981 28.4809C26.3155 28.4027 26.5463 28.3686 26.7771 28.3806C26.9546 28.3601 27.1339 28.3601 27.3115 28.3806C27.4808 28.4356 27.6409 28.5156 27.7865 28.6181C27.928 28.725 28.0376 28.8688 28.1031 29.0337C28.202 29.2438 28.2495 29.4745 28.2416 29.7066C28.2514 29.8053 28.2514 29.9047 28.2416 30.0034C28.2495 30.1154 28.2495 30.2279 28.2416 30.3399H25.9261C25.9236 30.4603 25.9451 30.5801 25.9893 30.6922C26.0334 30.8043 26.0994 30.9066 26.1834 30.993C26.3835 31.1556 26.6391 31.2337 26.8959 31.2107C27.0794 31.2406 27.2665 31.2406 27.45 31.2107L27.8062 31.0326L28.1229 31.5867Z" fill="white"/>
<path fill-rule="evenodd" clip-rule="evenodd" d="M30.5177 28.4198C30.6984 28.4372 30.8772 28.4703 31.0521 28.5188C30.8876 28.7367 30.7912 28.9983 30.775 29.2709C30.6504 29.2518 30.5236 29.2518 30.399 29.2709C30.2388 29.2646 30.0805 29.3059 29.9438 29.3896C29.83 29.4812 29.747 29.6056 29.7063 29.7458V31.9031H28.7959V28.499H29.5084V28.974C29.5811 28.8077 29.6973 28.6642 29.8448 28.5584C29.9422 28.4919 30.0519 28.4454 30.1674 28.4216C30.2829 28.3978 30.402 28.3972 30.5177 28.4198Z" fill="white"/>
<path fill-rule="evenodd" clip-rule="evenodd" d="M31.3885 31.0126H31.6062H31.8634H32.1405H32.4374C32.5482 31.0374 32.663 31.0374 32.7738 31.0126C32.8159 30.984 32.8504 30.9457 32.8745 30.9009C32.8987 30.8561 32.9116 30.8062 32.9124 30.7553C32.9141 30.7014 32.8974 30.6485 32.865 30.6053C32.8326 30.5622 32.7865 30.5313 32.7342 30.5178C32.6093 30.4536 32.4761 30.407 32.3384 30.3793L31.9624 30.2408C31.833 30.2056 31.7119 30.1451 31.6062 30.0627C31.4937 29.9765 31.3995 29.8689 31.3291 29.746C31.253 29.5927 31.2189 29.422 31.2301 29.2512C31.221 29.1088 31.2428 28.966 31.2941 28.8328C31.3453 28.6996 31.4248 28.579 31.527 28.4794C31.7882 28.2824 32.1107 28.1843 32.4374 28.2023C32.8698 28.1913 33.3001 28.2653 33.704 28.42L33.5061 29.1127L33.0905 28.9741C32.9129 28.9547 32.7337 28.9547 32.5561 28.9741C32.4453 28.95 32.3305 28.95 32.2197 28.9741C32.1908 29.0507 32.1908 29.1351 32.2197 29.2116C32.222 29.2619 32.238 29.3105 32.2659 29.3523C32.2938 29.3942 32.3325 29.4276 32.378 29.4491L32.7936 29.5877L33.1696 29.7064C33.299 29.7415 33.4201 29.8021 33.5259 29.8845C33.6427 29.9659 33.7379 30.0746 33.8029 30.2012C33.8995 30.4157 33.9267 30.655 33.8805 30.8856C33.8344 31.1163 33.7173 31.3268 33.5457 31.4876C33.2492 31.7231 32.874 31.8363 32.4967 31.8043C32.2663 31.8245 32.0345 31.8245 31.8041 31.8043C31.616 31.7692 31.4353 31.7022 31.2697 31.6063L31.3885 31.0126Z" fill="white"/>
<path fill-rule="evenodd" clip-rule="evenodd" d="M35.0696 31.1314H35.3269H35.6435C36.1977 31.1314 36.4748 30.7553 36.4748 30.0231C36.4922 29.7727 36.4298 29.5233 36.2967 29.3106C36.2375 29.2313 36.1594 29.168 36.0695 29.1265C35.9797 29.085 35.8808 29.0667 35.7821 29.0731C35.6188 29.0641 35.4575 29.1132 35.3269 29.2117C35.1998 29.3116 35.1093 29.4507 35.0696 29.6075V31.1314ZM34.1592 27.3711H35.0696V28.796C35.1796 28.6757 35.3147 28.5811 35.4654 28.519C35.6333 28.4444 35.8164 28.4105 35.9998 28.42C36.1858 28.4067 36.3723 28.4374 36.5442 28.5096C36.7161 28.5818 36.8686 28.6935 36.9893 28.8356C37.2491 29.2048 37.3748 29.6518 37.3456 30.1022C37.354 30.3728 37.3069 30.6423 37.207 30.8939C37.1368 31.1171 37.0147 31.3206 36.8508 31.4876C36.6942 31.6501 36.5055 31.7782 36.2967 31.8636C36.0547 31.9463 35.8002 31.9865 35.5446 31.9824C35.2619 32.0155 34.9763 32.0155 34.6936 31.9824C34.491 31.9594 34.2917 31.9129 34.0999 31.8438L34.1592 27.3711Z" fill="white"/>
<path fill-rule="evenodd" clip-rule="evenodd" d="M38.9089 28.499V30.4781C38.893 30.6896 38.934 30.9014 39.0277 31.0916C39.0747 31.1618 39.1404 31.2174 39.2173 31.2524C39.2942 31.2873 39.3793 31.3002 39.463 31.2895C39.6353 31.296 39.8041 31.2397 39.938 31.1312C40.068 31.0385 40.165 30.9068 40.2151 30.7552V28.499H41.1255V30.8541C41.1156 31.0387 41.1156 31.2237 41.1255 31.4083C41.1145 31.573 41.1145 31.7383 41.1255 31.9031H40.4922L40.3141 31.3687C40.2064 31.5609 40.0399 31.7136 39.8391 31.8041C39.6343 31.9402 39.3922 32.0094 39.1464 32.002C38.9822 32.0243 38.8158 32.0243 38.6516 32.002C38.5113 31.9613 38.387 31.8783 38.2954 31.7645C38.2024 31.6333 38.1352 31.4855 38.0975 31.3291C38.0635 31.1061 38.0635 30.8793 38.0975 30.6562V28.499H38.9089Z" fill="white"/>
<path fill-rule="evenodd" clip-rule="evenodd" d="M45.2619 31.1111C45.4284 31.1189 45.5936 31.0776 45.7368 30.9924C45.8513 30.934 45.9472 30.8449 46.0139 30.7351V29.2706C45.8197 29.1909 45.6098 29.157 45.4004 29.1716C45.2914 29.1612 45.1816 29.1754 45.0788 29.2131C44.9761 29.2507 44.8831 29.311 44.8067 29.3893C44.6452 29.6128 44.5681 29.8862 44.589 30.1611C44.5687 30.418 44.6311 30.6746 44.7671 30.8934C44.8292 30.9629 44.9055 31.0183 44.9909 31.0559C45.0762 31.0934 45.1686 31.1122 45.2619 31.1111ZM46.9045 31.7642C46.9214 31.9682 46.8929 32.1734 46.821 32.365C46.7492 32.5566 46.6357 32.7299 46.4889 32.8725C46.1416 33.131 45.7136 33.2573 45.2816 33.2287C45.019 33.2653 44.7526 33.2653 44.49 33.2287C44.3258 33.2057 44.1659 33.159 44.015 33.0902C44.0626 32.9541 44.1022 32.8153 44.1338 32.6746C44.1449 32.6025 44.1449 32.529 44.1338 32.4569V32.3579L44.5098 32.5163C44.6871 32.5404 44.8669 32.5404 45.0442 32.5163C45.1817 32.5399 45.3222 32.5399 45.4598 32.5163C45.5661 32.493 45.6628 32.4377 45.7368 32.3579C45.8118 32.2961 45.8669 32.2135 45.8952 32.1205C45.906 32.0152 45.906 31.9091 45.8952 31.8038V31.5465C45.8145 31.6795 45.6877 31.7781 45.5389 31.8236C45.3551 31.8496 45.1686 31.8496 44.9848 31.8236C44.7949 31.8353 44.6047 31.806 44.4271 31.7377C44.2496 31.6694 44.0888 31.5637 43.9557 31.4278C43.6996 31.0725 43.5802 30.6369 43.6192 30.2007C43.5873 29.9584 43.6112 29.712 43.6891 29.4803C43.767 29.2486 43.8969 29.0378 44.0688 28.864C44.2406 28.6903 44.45 28.5581 44.6808 28.4776C44.9116 28.3971 45.1577 28.3705 45.4004 28.3998C45.677 28.3772 45.955 28.3772 46.2316 28.3998L46.8451 28.5383L46.9045 31.7642Z" fill="white"/>
<path fill-rule="evenodd" clip-rule="evenodd" d="M43.3224 28.4202C43.5319 28.427 43.739 28.4671 43.9359 28.5389C43.741 28.738 43.616 28.9949 43.5797 29.2712C43.4552 29.2505 43.3281 29.2505 43.2036 29.2712C43.0435 29.2649 42.8851 29.3062 42.7484 29.3899C42.6346 29.4815 42.5517 29.6059 42.511 29.7461V31.9034H41.6204V28.4993H42.313L42.412 28.9743C42.4919 28.8067 42.6148 28.6633 42.7682 28.5587C42.9293 28.4452 43.1269 28.3958 43.3224 28.4202Z" fill="white"/>
<path fill-rule="evenodd" clip-rule="evenodd" d="M9.0841 39.5225C9.08255 40.0347 9.13562 40.5455 9.24242 41.0464C9.32384 41.4688 9.48505 41.8718 9.71741 42.2339C9.91522 42.5581 10.1951 42.8244 10.5288 43.0057C10.8959 43.1941 11.3037 43.2893 11.7163 43.2828C12.0914 43.303 12.4659 43.2347 12.8097 43.0835C13.1535 42.9322 13.4569 42.7022 13.6954 42.412C14.2307 41.5482 14.4735 40.5351 14.3881 39.5225C14.3948 39.0242 14.3484 38.5266 14.2495 38.0382C14.1678 37.6097 14.0067 37.2003 13.7745 36.8309C13.5663 36.51 13.2891 36.2396 12.9631 36.0393C12.5828 35.8484 12.1616 35.7533 11.7361 35.7622C11.3588 35.7394 10.9815 35.8085 10.6368 35.9637C10.2921 36.1188 9.99016 36.3553 9.75699 36.6528C9.2391 37.5159 9.00384 38.5192 9.0841 39.5225ZM6.59043 39.5225C6.57743 38.6842 6.69767 37.8492 6.94667 37.0486C7.13714 36.3657 7.48254 35.7359 7.95601 35.2081C8.39878 34.7115 8.94631 34.3194 9.55907 34.0602C10.246 33.7908 10.9785 33.6564 11.7163 33.6644C12.493 33.6663 13.261 33.8279 13.9725 34.1394C14.5915 34.4058 15.1403 34.8123 15.5755 35.3268C16.0103 35.8821 16.3391 36.5128 16.5453 37.1872C16.7678 37.9588 16.8745 38.7592 16.8619 39.5621C16.877 40.407 16.7568 41.2489 16.5057 42.0558C16.3007 42.7368 15.9494 43.365 15.4766 43.8963C15.0304 44.3979 14.4753 44.7906 13.8537 45.0442C13.1736 45.3135 12.4477 45.4479 11.7163 45.44C10.9488 45.4508 10.1873 45.3025 9.47992 45.0046C8.85294 44.7522 8.30105 44.3433 7.87685 43.8172C7.43068 43.2693 7.10073 42.6363 6.90709 41.9568C6.6787 41.1661 6.57192 40.3453 6.59043 39.5225Z" fill="white"/>
<path fill-rule="evenodd" clip-rule="evenodd" d="M21.9876 35.8216H21.3345H20.8397V39.1662H21.0377H21.8491C22.1588 39.1859 22.4695 39.1859 22.7793 39.1662C23.0653 39.1281 23.341 39.0339 23.5907 38.8892C23.8342 38.7515 24.0386 38.554 24.1844 38.3152C24.3383 38.0157 24.4132 37.682 24.4021 37.3455C24.4108 37.0532 24.3352 36.7647 24.1844 36.5142C24.0459 36.3163 23.8629 36.1536 23.6501 36.0393C23.3989 35.9184 23.1326 35.8318 22.8584 35.782C22.5676 35.7748 22.2766 35.7881 21.9876 35.8216ZM18.4846 34.0008L20.0679 33.8029C20.6616 33.8029 21.2356 33.8029 21.8293 33.8029C22.4258 33.7998 23.0216 33.8461 23.6105 33.9414C24.1877 34.0106 24.7457 34.1921 25.2531 34.4758C25.734 34.7523 26.1361 35.1475 26.4208 35.6236C26.7738 36.2209 26.9392 36.9104 26.8958 37.6027C26.9075 38.2259 26.7718 38.8429 26.5 39.4037C26.2482 39.8877 25.8811 40.3023 25.4312 40.611C24.9809 40.9395 24.4695 41.175 23.9271 41.3036C23.3643 41.4465 22.786 41.5196 22.2053 41.5213H20.8397V45.3014H18.4846V34.0008Z" fill="white"/>
<path fill-rule="evenodd" clip-rule="evenodd" d="M28.301 33.9023H35.4653V35.9804H30.6562V38.4345H35.0102V40.5125H30.6562V43.0656H35.5445V45.1436H28.301V33.9023Z" fill="white"/>
<path fill-rule="evenodd" clip-rule="evenodd" d="M40.433 39.2846L39.4633 37.6023H39.4039L39.6612 39.3044V45.1427H37.4248V33.8223H39.1268L43.7183 39.8189L44.6287 41.4616H44.7277L44.4704 39.7991V33.9014H46.687V45.2219H44.9849L40.433 39.2846Z" fill="white"/>
</svg>
