<svg width="604" height="573" viewBox="0 0 604 573" fill="none" xmlns="http://www.w3.org/2000/svg">
<rect x="-38.1855" y="0.127686" width="672.588" height="572.54" rx="1.83213" fill="white"/>
<mask id="mask0" mask-type="alpha" maskUnits="userSpaceOnUse" x="-39" y="0" width="674" height="573">
<rect x="-38.1855" y="0.127686" width="672.588" height="572.54" rx="1.83213" fill="white"/>
</mask>
<g mask="url(#mask0)">
<rect x="-38.1855" y="0.127686" width="672.588" height="572.54" fill="#30C6E0"/>
<path fill-rule="evenodd" clip-rule="evenodd" d="M298.108 400.905C351.174 400.905 394.192 349.638 394.192 286.397C394.192 223.156 351.174 171.89 298.108 171.89C245.043 171.89 202.024 223.156 202.024 286.397C202.024 349.638 245.043 400.905 298.108 400.905Z" fill="#FFCD4B"/>
<path fill-rule="evenodd" clip-rule="evenodd" d="M258.91 491.065L298.108 421.334L337.306 491.065L347.235 407.971L407.938 450.528L386.631 370.529L456.817 377.483L408.495 316.424L474.262 286.397L408.495 256.371L456.817 195.312L386.631 202.266L407.938 122.267L347.235 164.824L337.306 81.7297L298.108 151.461L258.91 81.7297L248.981 164.824L188.278 122.267L209.585 202.266L139.399 195.312L187.721 256.371L121.954 286.397L187.721 316.424L139.399 377.483L209.585 370.529L188.278 450.528L248.981 407.971L258.91 491.065ZM410.206 286.397C410.206 360.179 360.018 419.99 298.108 419.99C236.198 419.99 186.01 360.179 186.01 286.397C186.01 212.616 236.198 152.805 298.108 152.805C360.018 152.805 410.206 212.616 410.206 286.397Z" fill="#FFCD4B"/>
<path fill-rule="evenodd" clip-rule="evenodd" d="M-6.15713 38.6023C-6.15713 38.4337 -6.02041 38.297 -5.85177 38.297H25.5655C25.7342 38.297 25.8709 38.4337 25.8709 38.6023V76.1609C25.8709 76.3296 25.7342 76.4663 25.5655 76.4663H-5.85177C-6.02041 76.4663 -6.15713 76.3296 -6.15713 76.1609V38.6023ZM-6.15723 114.941C-6.15723 114.772 -6.02051 114.636 -5.85187 114.636H25.5654C25.7341 114.636 25.8708 114.772 25.8708 114.941V152.5C25.8708 152.668 25.7341 152.805 25.5654 152.805H-5.85187C-6.02051 152.805 -6.15723 152.668 -6.15723 152.5V114.941ZM-5.85187 190.974C-6.02051 190.974 -6.15723 191.111 -6.15723 191.28V228.838C-6.15723 229.007 -6.02051 229.143 -5.85187 229.143H25.5654C25.7341 229.143 25.8708 229.007 25.8708 228.838V191.28C25.8708 191.111 25.7341 190.974 25.5654 190.974H-5.85187ZM-6.15723 267.618C-6.15723 267.449 -6.02051 267.313 -5.85187 267.313H25.5654C25.7341 267.313 25.8708 267.449 25.8708 267.618V305.177C25.8708 305.345 25.7341 305.482 25.5654 305.482H-5.85187C-6.02051 305.482 -6.15723 305.345 -6.15723 305.177V267.618ZM-5.85187 343.651C-6.02051 343.651 -6.15723 343.788 -6.15723 343.957V381.515C-6.15723 381.684 -6.02051 381.821 -5.85187 381.821H25.5654C25.7341 381.821 25.8708 381.684 25.8708 381.515V343.957C25.8708 343.788 25.7341 343.651 25.5654 343.651H-5.85187ZM-6.15723 420.295C-6.15723 420.127 -6.02051 419.99 -5.85187 419.99H25.5654C25.7341 419.99 25.8708 420.127 25.8708 420.295V457.854C25.8708 458.023 25.7341 458.159 25.5654 458.159H-5.85187C-6.02051 458.159 -6.15723 458.023 -6.15723 457.854V420.295ZM-5.85187 496.329C-6.02051 496.329 -6.15723 496.465 -6.15723 496.634V534.193C-6.15723 534.361 -6.02051 534.498 -5.85187 534.498H25.5654C25.7341 534.498 25.8708 534.361 25.8708 534.193V496.634C25.8708 496.465 25.7341 496.329 25.5654 496.329H-5.85187ZM25.871 458.465C25.871 458.296 26.0077 458.159 26.1763 458.159H57.5936C57.7623 458.159 57.899 458.296 57.899 458.465V496.023C57.899 496.192 57.7623 496.329 57.5936 496.329H26.1763C26.0077 496.329 25.871 496.192 25.871 496.023V458.465ZM26.1763 381.821C26.0077 381.821 25.871 381.957 25.871 382.126V419.685C25.871 419.853 26.0077 419.99 26.1763 419.99H57.5936C57.7623 419.99 57.899 419.853 57.899 419.685V382.126C57.899 381.957 57.7623 381.821 57.5936 381.821H26.1763ZM25.871 305.787C25.871 305.619 26.0077 305.482 26.1763 305.482H57.5936C57.7623 305.482 57.899 305.619 57.899 305.787V343.346C57.899 343.515 57.7623 343.651 57.5936 343.651H26.1763C26.0077 343.651 25.871 343.515 25.871 343.346V305.787ZM26.1763 229.143C26.0077 229.143 25.871 229.28 25.871 229.449V267.007C25.871 267.176 26.0077 267.313 26.1763 267.313H57.5936C57.7623 267.313 57.899 267.176 57.899 267.007V229.449C57.899 229.28 57.7623 229.143 57.5936 229.143H26.1763ZM25.871 153.11C25.871 152.942 26.0077 152.805 26.1763 152.805H57.5936C57.7623 152.805 57.899 152.942 57.899 153.11V190.669C57.899 190.837 57.7623 190.974 57.5936 190.974H26.1763C26.0077 190.974 25.871 190.837 25.871 190.669V153.11ZM26.1763 76.4663C26.0077 76.4663 25.871 76.603 25.871 76.7716V114.33C25.871 114.499 26.0077 114.636 26.1763 114.636H57.5936C57.7623 114.636 57.899 114.499 57.899 114.33V76.7716C57.899 76.603 57.7623 76.4663 57.5936 76.4663H26.1763Z" fill="#FFCD4B"/>
</g>
</svg>
