<svg width="58" height="29" viewBox="0 0 58 29" fill="none" xmlns="http://www.w3.org/2000/svg">
<path d="M15.4359 5.531C14.9691 3.75245 14.2047 2.06573 13.1749 0.542328C12.2735 1.89353 11.571 3.36727 11.089 4.91836C10.4923 6.96222 10.3137 9.1054 10.5639 11.2198C10.7411 12.5933 11.0839 13.9402 11.5849 15.2312C11.9937 16.2227 12.5175 17.1627 13.1457 18.0319C14.4957 16.0762 15.3744 13.8345 15.713 11.4824C16.0053 9.49712 15.8962 7.47335 15.3921 5.531H15.4359ZM13.1311 17.39C12.6208 16.4073 12.3509 15.3175 12.3435 14.2101C12.3485 13.1146 12.6241 12.0373 13.1457 11.074C13.6025 12.0121 13.856 13.036 13.8897 14.0788C13.9186 15.2287 13.6578 16.3674 13.1311 17.39ZM15.2171 9.89245C15.2057 10.7751 15.108 11.6545 14.9253 12.5181C14.9844 11.2522 14.8913 9.9838 14.6482 8.74009C14.3501 7.33255 13.8593 5.97288 13.1895 4.69956C12.5281 5.97146 12.0376 7.32515 11.7308 8.7255C11.4973 9.97105 11.385 11.2363 11.3953 12.5035C11.195 11.2939 11.112 10.0678 11.1473 8.8422C11.1828 7.73628 11.3294 6.63674 11.5849 5.56018C11.9328 4.29374 12.4221 3.07048 13.0436 1.91348C13.7058 3.04601 14.2252 4.2562 14.5898 5.51642C15.0146 6.93708 15.2404 8.40977 15.2608 9.89245H15.2171Z" fill="#007AC2"/>
<path d="M14.1665 18.6155H9.71755V21.6204C10.2205 21.1155 10.9033 20.8311 11.616 20.8298C12.3286 20.8284 13.0125 21.1102 13.5174 21.6131C14.0223 22.116 14.3067 22.7989 14.308 23.5115C14.3094 24.2241 14.0276 24.9081 13.5247 25.413C13.0296 25.9112 12.441 26.3068 11.7927 26.5771C11.1444 26.8474 10.4491 26.9872 9.74672 26.9883C8.77071 26.9879 7.81316 26.7222 6.97656 26.2195C6.13996 25.7168 5.45579 24.9961 4.99727 24.1345C4.53875 23.2729 4.32313 22.3028 4.37349 21.3281C4.42385 20.3534 4.73829 19.4107 5.28316 18.6009C5.47709 18.3186 5.69684 18.0549 5.93957 17.8133C6.43865 17.3122 7.03205 16.915 7.68551 16.6446C8.33897 16.3742 9.03953 16.236 9.74672 16.2379V9.06119C8.15316 9.04931 6.58186 9.43561 5.17546 10.185C3.76906 10.9344 2.5721 12.0232 1.69322 13.3526C0.814346 14.6819 0.281391 16.2097 0.142736 17.7973C0.00408111 19.3848 0.264117 20.9819 0.899237 22.4435C1.53436 23.9051 2.52445 25.1849 3.77964 26.1667C5.03484 27.1486 6.51538 27.8015 8.08687 28.066C9.65837 28.3305 11.271 28.1984 12.7785 27.6816C14.286 27.1648 15.6406 26.2797 16.7192 25.1066V18.6155H14.1665Z" fill="#007AC2"/>
<path d="M22.3788 16.9233C22.3788 17.6089 22.2913 18.6591 20.9202 18.6591H19.3156C17.9736 18.6591 17.8569 17.6089 17.8569 16.9233V10.7385C17.8569 10.0529 17.9445 9.00267 19.3156 9.00267H20.9202C22.2621 9.00267 22.3788 10.0529 22.3788 10.7385V12.0951H20.4534V10.5197C20.4535 10.4371 20.4217 10.3576 20.3646 10.2978C20.3075 10.238 20.2296 10.2025 20.1471 10.1988C20.1056 10.1987 20.0645 10.2071 20.0264 10.2234C19.9882 10.2397 19.9538 10.2636 19.9251 10.2936C19.8965 10.3236 19.8742 10.3591 19.8597 10.398C19.8452 10.4369 19.8388 10.4783 19.8407 10.5197V17.0983C19.8388 17.1398 19.8452 17.1812 19.8597 17.22C19.8742 17.2589 19.8965 17.2944 19.9251 17.3244C19.9538 17.3544 19.9882 17.3783 20.0264 17.3946C20.0645 17.4109 20.1056 17.4193 20.1471 17.4192C20.2296 17.4155 20.3075 17.38 20.3646 17.3202C20.4217 17.2605 20.4535 17.181 20.4534 17.0983V14.9832H20.1616V13.9184H22.3788V16.9233Z" fill="#007AC2"/>
<path d="M25.2815 15.0269L25.617 10.2133H25.7337L26.0546 15.0269H25.2815ZM23.1519 18.659H25.0336L25.2232 16.0334H26.1713L26.3464 18.6007H28.2426L27.2362 8.94426H24.1583L23.1519 18.659Z" fill="#007AC2"/>
<path d="M28.9136 17.4338L30.7515 10.2134H29.1032V9.00267H32.7499V10.2134L30.8974 17.4192H32.852V18.6591H28.9136V17.4338Z" fill="#007AC2"/>
<path d="M35.6964 14.1664V10.1988H35.9298C36.1486 10.1988 36.2944 10.3884 36.2944 10.6801V13.685C36.2944 13.9913 36.1486 14.1664 35.9298 14.1664H35.6964ZM33.7563 18.6591H35.6964V15.3771H36.7904C38.147 15.3771 38.2491 14.3268 38.2491 13.6558V10.7385C38.2491 10.0529 38.1615 9.00267 36.7904 9.00267H33.7563V18.6591Z" fill="#007AC2"/>
<path d="M41.1518 13.8751V10.1992H41.3998C41.604 10.1992 41.7645 10.3888 41.7645 10.6805V13.3937C41.7645 13.7 41.604 13.8751 41.3998 13.8751H41.1518ZM43.9379 18.6595L42.9752 14.8961C43.206 14.8028 43.4003 14.6373 43.5291 14.4243C43.658 14.2113 43.7144 13.9623 43.6899 13.7146V10.7972C43.6899 10.1117 43.6024 9.06142 42.2313 9.06142H39.2993V18.6595H41.2248V15.0858H41.3706L42.027 18.6595H43.9379Z" fill="#007AC2"/>
<path d="M47.5117 17.0983C47.5118 17.181 47.48 17.2605 47.423 17.3202C47.3659 17.38 47.288 17.4155 47.2054 17.4192C47.1639 17.4193 47.1229 17.4109 47.0847 17.3946C47.0466 17.3783 47.0121 17.3544 46.9835 17.3244C46.9548 17.2944 46.9326 17.2589 46.9181 17.22C46.9036 17.1812 46.8971 17.1398 46.8991 17.0983V10.5197C46.8971 10.4783 46.9036 10.4369 46.9181 10.398C46.9326 10.3591 46.9548 10.3236 46.9835 10.2936C47.0121 10.2636 47.0466 10.2397 47.0847 10.2234C47.1229 10.2071 47.1639 10.1987 47.2054 10.1988C47.288 10.2025 47.3659 10.238 47.423 10.2978C47.48 10.3576 47.5118 10.4371 47.5117 10.5197V17.0983ZM44.9736 16.9233C44.9736 17.6089 45.0612 18.6591 46.4323 18.6591H48.0514C49.408 18.6591 49.5101 17.6089 49.5101 16.9233V10.7385C49.5101 10.0529 49.4372 9.00267 48.0514 9.00267H46.4469C45.1049 9.00267 44.9882 10.0529 44.9882 10.7385L44.9736 16.9233Z" fill="#007AC2"/>
<path d="M55.491 9.00267H57.9999V18.6591H56.0745V12.6056H56.0015L55.0096 18.6591H53.4634L52.4715 12.6056H52.4132V18.6591H50.4731V9.00267H52.9821L54.2365 15.7855L55.491 9.00267Z" fill="#007AC2"/>
<path d="M57.9559 21.5911H17.8423V28.2281H57.9559V21.5911Z" fill="#007AC2"/>
<path d="M22.029 22.8455V23.4582H20.6432V24.3917H21.9123V25.019H20.6432V26.2443H22.029V26.8569H19.8701V22.8455H22.029Z" fill="white"/>
<path d="M26.9736 22.8453L27.4987 24.1581L28.053 22.8453H28.9136L27.9071 24.7854L28.9428 26.8567H28.0968L27.4987 25.398L26.8861 26.8567H26.04L27.0174 24.7854L26.0838 22.8162L26.9736 22.8453Z" fill="white"/>
<path d="M33.8147 26.8861H33.0562V22.8455H34.5148C34.6644 22.8469 34.812 22.8793 34.9483 22.9407C35.0847 23.0021 35.2068 23.0912 35.3069 23.2023C35.407 23.3134 35.483 23.444 35.5299 23.586C35.5769 23.728 35.5938 23.8782 35.5797 24.0271C35.5959 24.1778 35.5806 24.3303 35.5347 24.4748C35.4889 24.6193 35.4135 24.7527 35.3134 24.8665C35.2133 24.9803 35.0906 25.0721 34.9531 25.136C34.8156 25.1999 34.6664 25.2346 34.5148 25.2378H33.8292L33.8147 26.8861ZM33.8147 24.6397H34.2085C34.6023 24.6397 34.792 24.4209 34.792 24.0271C34.8044 23.9476 34.7979 23.8663 34.773 23.7898C34.7481 23.7134 34.7055 23.6438 34.6486 23.587C34.5917 23.5301 34.5222 23.4875 34.4457 23.4625C34.3693 23.4376 34.288 23.4311 34.2085 23.4436H33.8147V24.6397Z" fill="white"/>
<path d="M41.1229 22.7726C41.896 22.7726 42.4211 23.1227 42.4211 24.1583V25.617C42.4211 26.6527 41.896 26.9882 41.1229 26.9882C40.9393 27.0107 40.753 26.9903 40.5787 26.9287C40.4043 26.867 40.2466 26.7658 40.118 26.6329C39.9894 26.5 39.8933 26.3391 39.8373 26.1629C39.7814 25.9866 39.767 25.7998 39.7955 25.617V24.1583C39.7676 23.975 39.7822 23.7878 39.8381 23.611C39.8941 23.4342 39.9898 23.2727 40.1181 23.1388C40.2464 23.0049 40.4037 22.9022 40.5779 22.8387C40.7521 22.7752 40.9385 22.7526 41.1229 22.7726ZM40.5977 24.0562V25.7191C40.5977 26.1421 40.7582 26.3609 41.1229 26.3609C41.4875 26.3609 41.6334 26.1421 41.6334 25.7191V24.0708C41.6334 23.6332 41.4584 23.3852 41.1229 23.3852C40.7874 23.3852 40.5977 23.6332 40.5977 24.0562Z" fill="white"/>
<path d="M47.4533 26.8862H46.6802V22.8456H48.2847C48.4206 22.8436 48.5555 22.8691 48.6813 22.9206C48.807 22.9722 48.921 23.0486 49.0165 23.1454C49.1119 23.2422 49.1867 23.3573 49.2364 23.4837C49.2861 23.6102 49.3097 23.7455 49.3058 23.8813C49.3058 24.494 49.0432 24.8003 48.6786 24.844C48.8488 24.8694 49.0029 24.9593 49.1088 25.095C49.2146 25.2308 49.2643 25.402 49.2474 25.5734V26.0839C49.2474 26.4486 49.2474 26.7695 49.4225 26.7695V26.8862H48.6494C48.508 26.6984 48.4452 26.463 48.4743 26.2298V25.763C48.4743 25.4421 48.3722 25.1795 48.0076 25.1795H47.4533V26.8862ZM47.4533 24.5961H47.9638C48.241 24.5961 48.5035 24.4502 48.5035 23.998C48.5035 23.5458 48.2993 23.4437 47.9492 23.4437H47.4533V24.5961Z" fill="white"/>
<path d="M55.0972 26.8861H54.3387V23.4582H53.376V22.8455H56.0599V23.4582H55.0972V26.8861Z" fill="white"/>
</svg>
