<svg width="103" height="37" viewBox="0 0 103 37" fill="none" xmlns="http://www.w3.org/2000/svg">
<path d="M47.8379 15.9785C47.8379 16.3965 47.7656 16.7637 47.6211 17.0801C47.4766 17.3945 47.2695 17.6367 47 17.8066C46.7324 17.9746 46.4238 18.0586 46.0742 18.0586C45.7285 18.0586 45.4199 17.9746 45.1484 17.8066C44.8789 17.6367 44.6699 17.3955 44.5215 17.083C44.375 16.7705 44.3008 16.4102 44.2988 16.002V15.7617C44.2988 15.3457 44.3721 14.9785 44.5186 14.6602C44.667 14.3418 44.875 14.0986 45.1426 13.9307C45.4121 13.7607 45.7207 13.6758 46.0684 13.6758C46.416 13.6758 46.7236 13.7598 46.9912 13.9277C47.2607 14.0938 47.4688 14.334 47.6152 14.6484C47.7617 14.9609 47.8359 15.3252 47.8379 15.7412V15.9785ZM47.0967 15.7559C47.0967 15.2832 47.0068 14.9209 46.8271 14.6689C46.6494 14.417 46.3965 14.291 46.0684 14.291C45.748 14.291 45.4971 14.417 45.3154 14.6689C45.1357 14.9189 45.0439 15.2734 45.04 15.7324V15.9785C45.04 16.4473 45.1309 16.8096 45.3125 17.0654C45.4961 17.3213 45.75 17.4492 46.0742 17.4492C46.4023 17.4492 46.6543 17.3242 46.8301 17.0742C47.0078 16.8242 47.0967 16.459 47.0967 15.9785V15.7559ZM49.3174 16.415V18H48.5762V13.7344H50.208C50.6846 13.7344 51.0625 13.8584 51.3418 14.1064C51.623 14.3545 51.7637 14.6826 51.7637 15.0908C51.7637 15.5088 51.626 15.834 51.3506 16.0664C51.0771 16.2988 50.6934 16.415 50.1992 16.415H49.3174ZM49.3174 15.8203H50.208C50.4717 15.8203 50.6729 15.7588 50.8115 15.6357C50.9502 15.5107 51.0195 15.3311 51.0195 15.0967C51.0195 14.8662 50.9492 14.6826 50.8086 14.5459C50.668 14.4072 50.4746 14.3359 50.2285 14.332H49.3174V15.8203ZM55.1416 14.332H53.1729V18H52.4346V13.7344H55.1416V14.332ZM57.5439 17.0068H55.8916L55.5459 18H54.7754L56.3867 13.7344H57.0518L58.666 18H57.8926L57.5439 17.0068ZM56.0996 16.4092H57.3359L56.7178 14.6396L56.0996 16.4092ZM62.5391 18H61.8008V16.1045H59.8936V18H59.1523V13.7344H59.8936V15.5098H61.8008V13.7344H62.5391V18ZM66.0312 13.7344H66.7725V18H66.0312V14.9619L64.1592 18H63.418V13.7344H64.1592V16.7754L66.0312 13.7344ZM69.793 14.8975C69.793 14.7061 69.7207 14.5537 69.5762 14.4404C69.4316 14.3271 69.2354 14.2705 68.9873 14.2705C68.7744 14.2705 68.5967 14.3271 68.4541 14.4404C68.3115 14.5518 68.2402 14.6963 68.2402 14.874H67.502C67.502 14.6416 67.5664 14.4346 67.6953 14.2529C67.8242 14.0713 68.0029 13.9307 68.2314 13.8311C68.46 13.7295 68.7119 13.6787 68.9873 13.6787C69.4756 13.6787 69.8545 13.7852 70.124 13.998C70.3955 14.2109 70.5312 14.5088 70.5312 14.8916C70.5312 15.085 70.4727 15.2627 70.3555 15.4248C70.2383 15.5869 70.0742 15.7148 69.8633 15.8086C70.1016 15.8906 70.2832 16.0156 70.4082 16.1836C70.5352 16.3496 70.5986 16.5566 70.5986 16.8047C70.5986 17.1875 70.4521 17.4922 70.1592 17.7188C69.8662 17.9434 69.4756 18.0557 68.9873 18.0557C68.6865 18.0557 68.4141 18.002 68.1699 17.8945C67.9277 17.7871 67.7451 17.6406 67.6221 17.4551C67.501 17.2695 67.4404 17.0566 67.4404 16.8164H68.1787C68.1787 17 68.2549 17.1553 68.4072 17.2822C68.5596 17.4072 68.7529 17.4697 68.9873 17.4697C69.249 17.4697 69.459 17.4082 69.6172 17.2852C69.7773 17.1621 69.8574 17.002 69.8574 16.8047C69.8574 16.5645 69.7871 16.3906 69.6465 16.2832C69.5078 16.1738 69.3037 16.1191 69.0342 16.1191H68.5332V15.5332H69.0078C69.5312 15.5332 69.793 15.3213 69.793 14.8975ZM73.6748 17.0068H72.0225L71.6768 18H70.9062L72.5176 13.7344H73.1826L74.7969 18H74.0234L73.6748 17.0068ZM72.2305 16.4092H73.4668L72.8486 14.6396L72.2305 16.4092ZM78.0137 14.332H76.6836V18H75.9482V14.332H74.6299V13.7344H78.0137V14.332ZM81.8984 15.9785C81.8984 16.3965 81.8262 16.7637 81.6816 17.0801C81.5371 17.3945 81.3301 17.6367 81.0605 17.8066C80.793 17.9746 80.4844 18.0586 80.1348 18.0586C79.7891 18.0586 79.4805 17.9746 79.209 17.8066C78.9395 17.6367 78.7305 17.3955 78.582 17.083C78.4355 16.7705 78.3613 16.4102 78.3594 16.002V15.7617C78.3594 15.3457 78.4326 14.9785 78.5791 14.6602C78.7275 14.3418 78.9355 14.0986 79.2031 13.9307C79.4727 13.7607 79.7812 13.6758 80.1289 13.6758C80.4766 13.6758 80.7842 13.7598 81.0518 13.9277C81.3213 14.0938 81.5293 14.334 81.6758 14.6484C81.8223 14.9609 81.8965 15.3252 81.8984 15.7412V15.9785ZM81.1572 15.7559C81.1572 15.2832 81.0674 14.9209 80.8877 14.6689C80.71 14.417 80.457 14.291 80.1289 14.291C79.8086 14.291 79.5576 14.417 79.376 14.6689C79.1963 14.9189 79.1045 15.2734 79.1006 15.7324V15.9785C79.1006 16.4473 79.1914 16.8096 79.373 17.0654C79.5566 17.3213 79.8105 17.4492 80.1348 17.4492C80.4629 17.4492 80.7148 17.3242 80.8906 17.0742C81.0684 16.8242 81.1572 16.459 81.1572 15.9785V15.7559ZM83.3779 16.415V18H82.6367V13.7344H84.2686C84.7451 13.7344 85.123 13.8584 85.4023 14.1064C85.6836 14.3545 85.8242 14.6826 85.8242 15.0908C85.8242 15.5088 85.6865 15.834 85.4111 16.0664C85.1377 16.2988 84.7539 16.415 84.2598 16.415H83.3779ZM83.3779 15.8203H84.2686C84.5322 15.8203 84.7334 15.7588 84.8721 15.6357C85.0107 15.5107 85.0801 15.3311 85.0801 15.0967C85.0801 14.8662 85.0098 14.6826 84.8691 14.5459C84.7285 14.4072 84.5352 14.3359 84.2891 14.332H83.3779V15.8203ZM47.6885 23.6113C47.6455 24.0664 47.4775 24.4219 47.1846 24.6777C46.8916 24.9316 46.502 25.0586 46.0156 25.0586C45.6758 25.0586 45.376 24.9785 45.1162 24.8184C44.8584 24.6562 44.6592 24.4268 44.5186 24.1299C44.3779 23.833 44.3047 23.4883 44.2988 23.0957V22.6973C44.2988 22.2949 44.3701 21.9404 44.5127 21.6338C44.6553 21.3271 44.8594 21.0908 45.125 20.9248C45.3926 20.7588 45.7012 20.6758 46.0508 20.6758C46.5215 20.6758 46.9004 20.8037 47.1875 21.0596C47.4746 21.3154 47.6416 21.6768 47.6885 22.1436H46.9502C46.915 21.8369 46.8252 21.6162 46.6807 21.4814C46.5381 21.3447 46.3281 21.2764 46.0508 21.2764C45.7285 21.2764 45.4805 21.3945 45.3066 21.6309C45.1348 21.8652 45.0469 22.21 45.043 22.665V23.043C45.043 23.5039 45.125 23.8555 45.2891 24.0977C45.4551 24.3398 45.6973 24.4609 46.0156 24.4609C46.3066 24.4609 46.5254 24.3955 46.6719 24.2646C46.8184 24.1338 46.9111 23.916 46.9502 23.6113H47.6885ZM51.7578 22.9785C51.7578 23.3965 51.6855 23.7637 51.541 24.0801C51.3965 24.3945 51.1895 24.6367 50.9199 24.8066C50.6523 24.9746 50.3438 25.0586 49.9941 25.0586C49.6484 25.0586 49.3398 24.9746 49.0684 24.8066C48.7988 24.6367 48.5898 24.3955 48.4414 24.083C48.2949 23.7705 48.2207 23.4102 48.2188 23.002V22.7617C48.2188 22.3457 48.292 21.9785 48.4385 21.6602C48.5869 21.3418 48.7949 21.0986 49.0625 20.9307C49.332 20.7607 49.6406 20.6758 49.9883 20.6758C50.3359 20.6758 50.6436 20.7598 50.9111 20.9277C51.1807 21.0938 51.3887 21.334 51.5352 21.6484C51.6816 21.9609 51.7559 22.3252 51.7578 22.7412V22.9785ZM51.0166 22.7559C51.0166 22.2832 50.9268 21.9209 50.7471 21.6689C50.5693 21.417 50.3164 21.291 49.9883 21.291C49.668 21.291 49.417 21.417 49.2354 21.6689C49.0557 21.9189 48.9639 22.2734 48.96 22.7324V22.9785C48.96 23.4473 49.0508 23.8096 49.2324 24.0654C49.416 24.3213 49.6699 24.4492 49.9941 24.4492C50.3223 24.4492 50.5742 24.3242 50.75 24.0742C50.9277 23.8242 51.0166 23.459 51.0166 22.9785V22.7559ZM55.1914 21.332H53.2256V22.3662H54.0986C54.4111 22.3662 54.6836 22.4199 54.916 22.5273C55.1484 22.6348 55.3252 22.7871 55.4463 22.9844C55.5674 23.1816 55.6279 23.4102 55.6279 23.6699C55.6279 24.0684 55.4922 24.3887 55.2207 24.6309C54.9512 24.873 54.583 24.9961 54.1162 25H52.4844V20.7344H55.1914V21.332ZM53.2256 22.9609V24.4082H54.0957C54.3457 24.4082 54.54 24.3408 54.6787 24.2061C54.8193 24.0693 54.8896 23.8887 54.8896 23.6641C54.8896 23.4492 54.8213 23.2793 54.6846 23.1543C54.5479 23.0293 54.3584 22.9648 54.1162 22.9609H53.2256ZM57.0312 22.3662H57.9043C58.2168 22.3662 58.4893 22.4199 58.7217 22.5273C58.9541 22.6348 59.1309 22.7871 59.252 22.9844C59.373 23.1816 59.4336 23.4102 59.4336 23.6699C59.4336 24.0684 59.2979 24.3887 59.0264 24.6309C58.7568 24.873 58.3887 24.9961 57.9219 25H56.29V20.7344H57.0312V22.3662ZM60.5938 25H59.8555V20.7344H60.5938V25ZM57.0312 22.9609V24.4082H57.9014C58.1514 24.4082 58.3457 24.3408 58.4844 24.2061C58.625 24.0693 58.6953 23.8887 58.6953 23.6641C58.6953 23.4492 58.627 23.2793 58.4902 23.1543C58.3535 23.0293 58.1641 22.9648 57.9219 22.9609H57.0312ZM64.4961 21.332H63.166V25H62.4307V21.332H61.1123V20.7344H64.4961V21.332ZM67.6719 20.7344H68.4131V25H67.6719V21.9619L65.7998 25H65.0586V20.7344H65.7998V23.7754L67.6719 20.7344ZM71.4043 25V23.4062H70.5781L69.7549 25H68.9609L69.9131 23.1865C69.417 22.9521 69.1689 22.5684 69.1689 22.0352C69.1689 21.627 69.3027 21.3096 69.5703 21.083C69.8398 20.8545 70.2148 20.7383 70.6953 20.7344H72.1455V25H71.4043ZM69.9072 22.0674C69.9072 22.3076 69.9746 22.4951 70.1094 22.6299C70.2441 22.7646 70.4463 22.832 70.7158 22.832H71.4043V21.332H70.7158C70.4424 21.332 70.2393 21.3975 70.1064 21.5283C69.9736 21.6592 69.9072 21.8389 69.9072 22.0674Z" fill="#253238"/>
<g clip-path="url(#clip0)">
<path d="M4.65934 33.4096C5.83796 33.5028 6.74448 33.5273 7.54704 33.5273C10.077 33.5273 12.1943 33.3958 14.1082 31.4819C14.5622 31.0279 34.9259 10.6657 34.9259 10.6657C35.1399 10.4517 35.4839 10.4517 35.6979 10.6657C35.9104 10.8782 35.9104 11.2237 35.6979 11.4377C35.6979 11.4377 11.7525 35.6094 11.3825 35.8754C10.5708 36.4624 10.3155 36.5403 7.45532 36.5403C6.36383 36.5403 5.01247 36.4547 5.01247 36.4547C4.71132 36.4547 4.45603 36.2774 4.38418 35.9029L4.1136 34.1372C4.03716 33.7428 4.27564 33.3805 4.65934 33.4096Z" fill="#1072BA"/>
<path d="M7.45531 36.8124C6.41121 36.8124 5.11794 36.7329 5.00481 36.7253C4.54926 36.7222 4.20989 36.4272 4.1197 35.9548L3.84759 34.18C3.79256 33.9033 3.85676 33.6221 4.02645 33.4142C4.18696 33.2185 4.41932 33.1191 4.68073 33.139C5.69578 33.2185 6.60688 33.2567 7.54703 33.2567C10.1259 33.2567 12.0934 33.1161 13.9171 31.2908L34.7348 10.4731C34.8892 10.3202 35.0925 10.2331 35.3111 10.2331C35.5297 10.2331 35.7346 10.3202 35.889 10.4731C36.207 10.791 36.207 11.3108 35.889 11.6272C33.437 14.1022 11.9191 35.8234 11.543 36.0955C10.6747 36.7222 10.3598 36.8124 7.45531 36.8124ZM4.615 33.6801C4.54468 33.6801 4.48811 33.7061 4.44378 33.7596C4.37958 33.8391 4.35512 33.9614 4.37958 34.0868L4.65321 35.8646C4.69296 36.0741 4.81678 36.1857 5.01398 36.1857H5.0308C5.04456 36.1872 6.38675 36.2728 7.45531 36.2728C10.2666 36.2728 10.4714 36.2025 11.2251 35.6583C11.6745 35.2822 27.3054 19.526 35.5053 11.2481C35.6138 11.1411 35.6138 10.9653 35.5068 10.8583C35.4029 10.7543 35.2209 10.7543 35.117 10.8583L14.2993 31.6745C12.3318 33.6419 10.1687 33.7994 7.54703 33.7994C6.59159 33.7994 5.66826 33.7612 4.63945 33.6817L4.615 33.6801Z" fill="#343333"/>
<path d="M34.1555 33.4096C32.9754 33.5028 32.0704 33.5273 31.2678 33.5273C28.7379 33.5273 26.6206 33.3958 24.7067 31.4819C24.2511 31.0279 4.03114 10.8079 4.03114 10.8079C3.81865 10.5938 3.47163 10.5938 3.25915 10.8079C3.04513 11.0203 3.04513 11.3674 3.25915 11.5798C3.25915 11.5798 27.0609 35.6094 27.4308 35.8769C28.2426 36.4639 28.4979 36.5419 31.358 36.5419C32.4495 36.5419 33.8009 36.4563 33.8009 36.4563C34.102 36.4563 34.3573 36.2789 34.4292 35.9044L34.6998 34.1388C34.7777 33.7428 34.5392 33.3805 34.1555 33.4096Z" fill="#1072BA"/>
<path d="M31.358 36.8124C28.4535 36.8124 28.1386 36.7222 27.2718 36.0955C26.8957 35.8234 5.50322 14.2306 3.06648 11.7694C2.75005 11.4514 2.75005 10.9332 3.06801 10.6152C3.22241 10.4624 3.42726 10.3783 3.64586 10.3783C3.86293 10.3783 4.06931 10.4624 4.2237 10.6152C4.2237 10.6152 24.4437 30.8368 24.8993 31.2908C26.7245 33.1161 28.6904 33.2567 31.2693 33.2567C32.2095 33.2567 33.1206 33.22 34.1356 33.139C34.397 33.1191 34.6294 33.2185 34.7914 33.4141C34.9611 33.6205 35.0253 33.9033 34.9688 34.1907L34.6997 35.9441C34.6065 36.4257 34.2671 36.7207 33.8131 36.7238C33.6954 36.7329 32.4021 36.8124 31.358 36.8124ZM3.64433 10.9179C3.57095 10.9179 3.50063 10.9485 3.45019 10.9989C3.34318 11.1059 3.34318 11.2817 3.45019 11.3887C11.6027 19.6192 27.1403 35.2837 27.5959 35.6644C28.3419 36.201 28.5467 36.2728 31.358 36.2728C32.4281 36.2728 33.7703 36.1872 33.7825 36.1857H33.8008C33.998 36.1857 34.1203 36.0741 34.1631 35.8539L34.4322 34.0975C34.4597 33.9614 34.4353 33.8391 34.3695 33.7596C34.3206 33.7 34.2549 33.674 34.1754 33.6801C33.145 33.7596 32.2217 33.7978 31.2663 33.7978C28.6446 33.7978 26.4815 33.6404 24.514 31.673C24.06 31.2189 3.84 10.9989 3.84 10.9989C3.78803 10.947 3.71771 10.9179 3.64433 10.9179Z" fill="#343333"/>
<path d="M7.58984 11.9421C11.5308 11.2007 15.4947 9.71943 19.4663 7.5441C23.2865 9.69038 27.2305 11.2237 31.3427 11.9421L30.1839 26.2293C27.0241 29.5833 23.4225 32.4052 19.4678 34.8129C15.5436 32.7033 11.9986 29.8783 8.84184 26.3929L7.58984 11.9421Z" fill="#FFCD03"/>
<path d="M19.4663 7.54562C23.2865 9.69037 27.2305 11.2252 31.3427 11.9421L30.184 26.2293C27.0241 29.5832 23.4225 32.4052 19.4678 34.8129C15.5437 32.7033 11.9986 29.8783 8.84188 26.3929L7.5914 11.9406C11.5308 11.2022 15.4947 9.71942 19.4663 7.54562ZM19.4663 6.86993C19.3547 6.86993 19.2431 6.89592 19.1407 6.95248C15.2089 9.10488 11.2801 10.5602 7.46452 11.2772C7.12363 11.3429 6.88515 11.6547 6.91572 12.0018L8.16619 26.454C8.17995 26.6008 8.23957 26.7414 8.33894 26.8499C11.5614 30.4072 15.1982 33.2888 19.1453 35.4106C19.2446 35.4641 19.3562 35.4901 19.4648 35.4901C19.5871 35.4901 19.7094 35.458 19.8164 35.3923C23.9561 32.8715 27.6096 29.9471 30.6731 26.694C30.7786 26.5824 30.8428 26.4387 30.855 26.2859L32.0153 11.9972C32.0428 11.6502 31.8013 11.3368 31.4574 11.2756C27.5836 10.5999 23.768 9.1859 19.795 6.95401C19.6941 6.89898 19.5809 6.86993 19.4663 6.86993Z" fill="#343333"/>
<path d="M9.7865 12.8685C13.0747 12.1928 16.1917 11.1014 19.1146 9.54362C19.3164 9.43661 19.5548 9.43355 19.7566 9.5375C22.6994 11.0555 25.798 12.1959 29.0878 12.8716C29.4302 12.9404 29.6626 13.2583 29.632 13.6054L28.6108 25.4237C28.5971 25.5842 28.5283 25.7355 28.4151 25.8486C26.0808 28.2105 23.1213 30.4408 19.7765 32.5902C19.5655 32.7247 19.2965 32.7369 19.0748 32.6177C15.7132 30.794 12.8515 28.5177 10.4331 25.8456C10.3322 25.734 10.2711 25.5903 10.2573 25.4405L9.23311 13.6023C9.2056 13.2522 9.44407 12.9404 9.7865 12.8685Z" fill="#B81F25"/>
<path d="M15.1384 25.2127L18.8103 25.5521L18.792 26.7108L18.3915 26.7307L18.3533 26.4311L17.4651 26.3577L17.4941 29.4044L17.7341 29.6643L17.754 30.184L16.5357 29.4441L16.476 29.0054L16.7558 29.065L16.716 26.1513L15.6979 25.9312L15.6184 26.3898L15.1782 26.2507L15.1384 25.2127Z" fill="white"/>
<path d="M15.1386 25.2127L18.8105 25.5521L18.7906 26.7093L18.3916 26.7292L18.3519 26.4296L17.4637 26.3577L17.4928 29.4044L17.7328 29.6643L17.7526 30.184L16.5358 29.4441L16.4762 29.0054L16.7559 29.065L16.7162 26.1513L15.6981 25.9312L15.6186 26.3913L15.1783 26.2522L15.1386 25.2127ZM15.1386 24.8076C15.0346 24.8076 14.9353 24.8474 14.8588 24.9192C14.7732 25.0002 14.7289 25.1134 14.7335 25.2295L14.7732 26.2675C14.7809 26.4387 14.894 26.587 15.056 26.639L15.4948 26.7781L15.6186 26.7965C15.692 26.7965 15.7638 26.7766 15.828 26.7384C15.9289 26.6772 15.9977 26.5763 16.0176 26.4601L16.0252 26.4189L16.3141 26.48L16.3432 28.6217C16.2897 28.6401 16.2423 28.6691 16.1995 28.7073C16.1032 28.7975 16.0558 28.9274 16.0726 29.0589L16.1322 29.4977C16.149 29.6184 16.2194 29.7254 16.3248 29.7881L17.5417 30.5265C17.6059 30.5662 17.6793 30.5846 17.7526 30.5846C17.8245 30.5846 17.8948 30.5662 17.9575 30.5295C18.0859 30.4531 18.1623 30.3124 18.1577 30.1626L18.1379 29.6444C18.1348 29.5481 18.0966 29.4548 18.0309 29.3845L17.8979 29.2393L17.8749 26.7949L17.9942 26.8041C18.0309 26.9937 18.199 27.1328 18.3916 27.1328L18.413 27.1312L18.812 27.1114C19.026 27.1007 19.1927 26.9264 19.1973 26.7124L19.2171 25.5552C19.2202 25.3427 19.0597 25.1638 18.8487 25.1439L15.1753 24.8046L15.1386 24.8076Z" fill="#8D191C"/>
<path d="M21.981 27.3957L22.6888 28.5116L23.1244 28.2273L23.0694 28.825L21.9 29.7101L21.9122 29.1384L22.117 28.9336L21.5728 27.969L20.6556 29.7514L20.891 29.6597L20.8742 30.3491L19.6207 30.8582L19.5488 30.0954L19.8576 30.0052L21.1463 27.4461L20.2398 26.0122L19.876 26.0306L19.8989 25.4833L21.2059 25.4909L21.2915 26.0122L21.0194 26.0306L21.582 26.8102L22.0712 25.8853L21.8541 25.867L21.9122 25.4359L23.343 25.2861L23.233 25.8303L22.9379 25.8578L21.981 27.3957Z" fill="white"/>
<path d="M23.3431 25.2861L23.2345 25.8303L22.9395 25.8578L21.9825 27.3957L22.6903 28.5116L23.126 28.2258L23.0709 28.825L21.9015 29.7117L21.9153 29.1384L22.1201 28.9336L21.5759 27.969L20.6587 29.7499L20.8941 29.6597L20.8757 30.3491L19.6237 30.8567L19.5519 30.0938L19.8607 30.0036L21.1478 27.4431L20.2413 26.0092L19.8775 26.029L19.9004 25.4818L21.2075 25.4879L21.2931 26.0092L21.021 26.029L21.5835 26.8087L22.0727 25.8838L21.8556 25.8655L21.9137 25.4344L23.3431 25.2861ZM23.3431 24.881L23.3002 24.8825L21.8709 25.0323C21.7257 25.0461 21.6034 25.1393 21.5438 25.2662C21.4719 25.1562 21.3466 25.0843 21.2075 25.0843L19.902 25.0782H19.9004C19.6834 25.0782 19.5045 25.2494 19.4953 25.4665L19.4724 26.0138C19.4678 26.1284 19.5106 26.2385 19.5916 26.318C19.6681 26.3929 19.7705 26.4357 19.8775 26.4357H19.8989L20.0258 26.4296L20.6831 27.4691L19.5779 29.6658L19.4372 29.7071C19.2507 29.7621 19.13 29.941 19.1483 30.1351L19.2202 30.8979C19.2324 31.0263 19.3042 31.1395 19.4143 31.2067C19.4785 31.2465 19.5519 31.2648 19.6253 31.2648C19.6772 31.2648 19.7277 31.2556 19.7781 31.2342L21.0301 30.7252C21.18 30.6656 21.2793 30.5219 21.2824 30.3598L21.3007 29.6872L21.3022 29.6597C21.3022 29.594 21.2854 29.5313 21.2579 29.4747L21.5927 28.8235L21.6156 28.8648C21.5499 28.9366 21.5132 29.0299 21.5102 29.1277L21.4964 29.6994C21.4933 29.8554 21.5789 29.9991 21.7165 30.0709C21.7746 30.1015 21.8388 30.1152 21.9015 30.1152C21.9886 30.1152 22.0742 30.0862 22.1461 30.0327L23.3171 29.1476C23.4073 29.0788 23.4653 28.9748 23.476 28.8617L23.528 28.2793L23.5311 28.2242C23.5311 28.0011 23.3492 27.8191 23.126 27.8191H23.1229C23.0388 27.8191 22.9624 27.8451 22.8982 27.8879L22.8126 27.9445L22.461 27.3911L23.1764 26.24L23.2712 26.2324C23.4501 26.2155 23.5968 26.0825 23.632 25.9068L23.7405 25.3625C23.7665 25.2357 23.7298 25.1057 23.6427 25.0094C23.5647 24.9269 23.4562 24.881 23.3431 24.881Z" fill="#8D191C"/>
<path d="M20.8025 12.5873C21.015 12.3641 21.8344 11.0112 21.8924 10.285C22.0545 10.574 22.5177 11.2099 22.8953 11.3016C22.053 11.5233 21.0945 12.3304 20.8025 12.5873Z" fill="#BF2026"/>
<path d="M20.8023 12.7921C20.7488 12.7921 20.6968 12.7707 20.657 12.7294C20.5821 12.6499 20.5806 12.5276 20.6555 12.4481C20.8451 12.2494 21.6369 10.9408 21.6904 10.2698C21.6966 10.1796 21.7623 10.1062 21.8494 10.0878C21.9381 10.068 22.0268 10.1077 22.0711 10.1857C22.2576 10.5205 22.6764 11.0402 22.944 11.1044C23.0342 11.1243 23.0999 11.2053 23.0999 11.2986C23.1014 11.3918 23.0387 11.4728 22.9486 11.4973C22.146 11.7083 21.2074 12.5016 20.9399 12.7386L20.8023 12.7921ZM21.9885 10.7941C21.8922 11.0952 21.7439 11.4239 21.5865 11.7251C21.8448 11.5508 22.1292 11.3826 22.4181 11.2573C22.2576 11.1212 22.1093 10.9531 21.9885 10.7941Z" fill="#343333"/>
<path d="M17.1442 16.9242C18.4542 15.5392 17.9972 16.0238 20.0899 13.8117C21.3435 12.4879 23.0801 11.7144 23.7879 11.6945C25.2906 11.6547 27.1724 11.164 28.6552 9.60019C30.693 7.44779 30.8596 4.91169 29.4058 3.53586C27.9535 2.16004 25.4297 2.46578 23.3919 4.61971C21.9427 6.14993 21.423 8.02258 21.5468 9.49776C21.6186 10.3309 20.5776 11.8535 19.3699 13.1299C17.3429 15.2716 17.7082 14.8833 16.4486 16.2164C16.071 16.6123 16.7834 17.3048 17.1442 16.9242ZM22.9471 10.2973C21.9779 9.38005 22.2989 8.41851 22.4319 7.80397C22.7667 6.25235 23.9208 5.12112 23.9208 5.12112C25.6605 3.28516 27.7518 2.96566 28.9166 4.06938C30.0815 5.17004 29.8782 7.2781 28.14 9.11253C27.3986 9.89675 26.5517 10.3768 25.7293 10.655L25.2569 10.7773C25.2554 10.7803 23.9163 11.213 22.9471 10.2973Z" fill="#FFCD03"/>
<path d="M16.8905 17.3048C16.5847 17.3048 16.2652 17.0785 16.1307 16.7682C16.0176 16.5053 16.0619 16.2286 16.2499 16.0299L19.1713 12.945C20.4859 11.5554 21.3328 10.1796 21.2763 9.52069C21.128 7.76117 21.8434 5.85794 23.1933 4.43167C24.4147 3.14146 25.8501 2.43214 27.2382 2.43214C28.1493 2.43214 28.9625 2.74705 29.5893 3.34019C30.3705 4.08007 30.7312 5.13334 30.6059 6.30585C30.479 7.486 29.8553 8.72118 28.8479 9.78668C27.122 11.6104 24.939 11.9345 23.791 11.9666C23.2085 11.9834 21.5362 12.6759 20.2842 13.9998L17.3384 17.1106C17.2191 17.2375 17.0647 17.3048 16.8905 17.3048ZM27.2397 2.9733C26.0198 2.9733 24.6898 3.63981 23.5877 4.80315C22.3418 6.11935 21.6799 7.86512 21.8159 9.4733C21.9 10.4624 20.7076 12.1072 19.5641 13.3149L16.6428 16.3998C16.6245 16.4197 16.5878 16.4579 16.6291 16.5527C16.681 16.6734 16.811 16.7621 16.8905 16.7621L16.947 16.7361L19.8928 13.6237C20.7244 12.7447 22.5879 11.4545 23.7787 11.4224C24.8427 11.3933 26.8636 11.0937 28.4565 9.41215C29.3829 8.43379 29.9562 7.30867 30.0693 6.24623C30.1763 5.24341 29.8736 4.35218 29.2178 3.73C28.6935 3.23471 28.0102 2.9733 27.2397 2.9733Z" fill="#343333"/>
<path d="M24.5017 11.0173C24.0507 11.0173 23.398 10.9103 22.8538 10.3951C21.9045 9.49777 22.1215 8.55151 22.2668 7.92627C22.279 7.8743 22.2897 7.82538 22.3004 7.77646C22.6382 6.20344 23.7786 5.07373 23.826 5.02634C24.864 3.92874 26.1099 3.29892 27.2411 3.29892C27.9321 3.29892 28.542 3.53128 29.0083 3.97154C30.2863 5.18227 29.9622 7.38359 28.2363 9.20885C27.5484 9.93344 26.7198 10.4639 25.7705 10.7849L25.289 10.9103C25.2829 10.9149 24.9557 11.0173 24.5017 11.0173ZM27.2426 3.57103C26.1848 3.57103 25.0108 4.17027 24.0202 5.2159C24.0049 5.23119 22.8859 6.34255 22.5648 7.83455C22.5541 7.88347 22.5434 7.93392 22.5312 7.98589C22.3936 8.58667 22.2056 9.40757 23.0418 10.1994C23.5203 10.6519 24.1012 10.7482 24.5032 10.7482C24.9114 10.7482 25.2125 10.6519 25.2156 10.6519L25.6956 10.5266C26.593 10.2239 27.3863 9.71637 28.0437 9.02387C29.661 7.31479 29.9912 5.27399 28.8248 4.17027C28.409 3.7774 27.8618 3.57103 27.2426 3.57103Z" fill="#FBB03B"/>
<path d="M24.4132 11.8703C23.7926 11.8703 22.9442 11.7144 22.2196 11.0264C21.6402 10.4776 21.0287 9.46871 21.414 7.78562L21.4231 7.74282C21.4552 7.59606 21.5989 7.50434 21.7457 7.53645C21.8924 7.57008 21.9842 7.71377 21.9521 7.859L21.9414 7.90333C21.6784 9.05597 21.897 9.97471 22.5926 10.632C23.6749 11.6563 25.1302 11.2435 25.1455 11.2389C25.2892 11.1961 25.439 11.2787 25.4818 11.4224C25.5231 11.5646 25.4421 11.7159 25.2984 11.7587C25.2663 11.7694 24.9116 11.8703 24.4132 11.8703Z" fill="#343333"/>
<path d="M18.3274 13.7399L15.2364 17.0052C14.9245 17.3338 15.1141 17.6671 15.4428 17.9774C15.7714 18.2893 16.1139 18.4589 16.4242 18.1303L19.4342 14.9521C19.746 14.6235 19.4694 14.4293 19.1407 14.119C18.8334 13.827 18.4833 13.5748 18.3274 13.7399Z" fill="#D9E027"/>
<path d="M16.0573 18.5782C15.802 18.5782 15.5482 18.4498 15.2562 18.1746C15.0346 17.9652 14.8985 17.7695 14.8404 17.5769C14.7839 17.3889 14.7717 17.103 15.0392 16.8202L18.1302 13.5549C18.2143 13.4647 18.3274 13.4189 18.4543 13.4189C18.5995 13.4189 18.8471 13.4708 19.3256 13.9233L19.4128 14.0028C19.6268 14.2031 19.8316 14.3911 19.8393 14.6632C19.8454 14.8268 19.7751 14.9858 19.6298 15.1386L16.6198 18.3183C16.4547 18.4895 16.2667 18.5782 16.0573 18.5782ZM18.4848 13.9677L15.432 17.1917C15.3312 17.2971 15.3419 17.3644 15.3587 17.4194C15.3877 17.5188 15.4794 17.6396 15.6292 17.7802C15.8524 17.9927 15.9854 18.037 16.0573 18.037C16.0924 18.037 16.149 18.0263 16.227 17.9438L19.237 14.7656C19.2935 14.7075 19.2981 14.677 19.2981 14.677C19.2905 14.6265 19.1422 14.4889 19.0443 14.3972L18.9542 14.3131C18.6882 14.064 18.5429 13.9891 18.4848 13.9677Z" fill="#343333"/>
<path d="M20.7517 12.4436C20.9688 12.2249 22.2987 11.3704 23.0233 11.2909C22.7298 11.138 22.0801 10.6932 21.9792 10.3171C21.782 11.164 21.0009 12.1439 20.7517 12.4436Z" fill="#E43E3E"/>
<path d="M20.7517 12.6453C20.7028 12.6453 20.6524 12.6285 20.6142 12.5918C20.5347 12.52 20.5255 12.3962 20.5958 12.3121C20.8267 12.0369 21.5941 11.0769 21.7821 10.2682C21.8035 10.178 21.883 10.1123 21.9762 10.1108C22.0664 10.1077 22.1505 10.1719 22.175 10.2621C22.2453 10.5281 22.7773 10.9317 23.1166 11.109C23.1961 11.1503 23.2389 11.2389 23.2221 11.3261C23.2068 11.4132 23.1334 11.4805 23.0448 11.4896C22.3767 11.5615 21.0896 12.387 20.8939 12.5842C20.8542 12.627 20.8022 12.6453 20.7517 12.6453ZM22.0374 10.7941C21.9197 11.0845 21.7607 11.3735 21.5941 11.6379C21.8906 11.4713 22.2162 11.3138 22.5143 11.2099C22.3508 11.0922 22.1765 10.9485 22.0374 10.7941Z" fill="#343333"/>
<path d="M27.1939 8.44297L26.9066 8.73037L27.0732 8.897C27.1129 8.93674 27.1649 8.95661 27.2169 8.95661C27.2689 8.95661 27.3208 8.93674 27.3606 8.897C27.4401 8.8175 27.4401 8.68909 27.3606 8.6096L27.1939 8.44297ZM26.555 7.80551L26.2676 8.0929L26.6192 8.4445L26.9066 8.15711L26.555 7.80551ZM25.9496 7.20015L25.6622 7.48754L25.9802 7.80551L26.2676 7.51811L25.9496 7.20015ZM25.2204 6.55504C25.1684 6.55504 25.1165 6.57491 25.0767 6.61466C24.9972 6.69415 24.9972 6.82256 25.0767 6.90205L25.3763 7.20015L25.6637 6.91275L25.3641 6.61466C25.3244 6.57491 25.2724 6.55504 25.2204 6.55504Z" fill="#BBBABA"/>
<path d="M27.8556 7.78258L27.5682 8.06997L27.8021 8.30386C27.8419 8.34361 27.8938 8.36195 27.9458 8.36195C27.9978 8.36195 28.0498 8.34208 28.0895 8.30386C28.169 8.22437 28.169 8.09596 28.0895 8.01647L27.8556 7.78258ZM27.2166 7.14359L26.9292 7.43098L27.2808 7.78258L27.5682 7.49518L27.2166 7.14359ZM26.6113 6.53822L26.3239 6.82562L26.6418 7.14359L26.9292 6.85619L26.6113 6.53822ZM25.9279 5.8549L25.6451 6.14535L26.038 6.53822L26.3254 6.25083L25.9279 5.8549ZM25.2905 5.30304C25.2385 5.30304 25.1865 5.32291 25.1468 5.36266C25.0673 5.44215 25.0673 5.57056 25.1468 5.65005L25.3577 5.86101L25.6405 5.57056L25.4342 5.36419C25.3944 5.32138 25.3425 5.30304 25.2905 5.30304Z" fill="#BBBABA"/>
<path d="M28.4825 7.1558L28.1967 7.44167L28.3174 7.56243C28.3572 7.60218 28.4091 7.62205 28.4611 7.62205C28.5131 7.62205 28.5651 7.60218 28.6048 7.56243C28.6843 7.48294 28.6843 7.35606 28.6048 7.27504L28.4825 7.1558ZM27.8435 6.51681L27.5561 6.80267L27.9077 7.15427L28.1936 6.86841L27.8435 6.51681ZM27.2382 5.91144L26.9523 6.19731L27.2703 6.51528L27.5561 6.22941L27.2382 5.91144ZM26.5472 5.21895L26.2644 5.5094L26.6649 5.90992L26.9508 5.62405L26.5472 5.21895ZM25.7492 4.50658C25.6972 4.50658 25.6453 4.52645 25.6055 4.5662C25.526 4.64569 25.526 4.77257 25.6055 4.85206L25.977 5.22353L26.2598 4.93308L25.8929 4.5662C25.8516 4.52645 25.8012 4.50658 25.7492 4.50658Z" fill="#BBBABA"/>
<path d="M28.4701 5.88853L28.1828 6.17593L28.3341 6.32727C28.3738 6.36702 28.4258 6.38536 28.4778 6.38536C28.5282 6.38536 28.5802 6.36549 28.62 6.32727C28.6995 6.24778 28.6995 6.11937 28.62 6.03987L28.4701 5.88853ZM27.8663 5.28317L27.5804 5.57057L27.8984 5.88853L28.1858 5.60114L27.8663 5.28317ZM27.1646 4.58456L26.8818 4.87501L27.2915 5.2847L27.5774 4.99884L27.1646 4.58456ZM26.489 3.9899C26.437 3.9899 26.385 4.00977 26.3453 4.04952C26.2658 4.12901 26.2658 4.25742 26.3453 4.33538L26.596 4.58609L26.8788 4.29564L26.6311 4.04952C26.5914 4.00977 26.5409 3.9899 26.489 3.9899Z" fill="#BBBABA"/>
<path d="M28.3708 4.28798C28.3188 4.28798 28.2668 4.30785 28.2271 4.3476L27.5774 4.99729L27.2915 5.28316L26.9506 5.62406L26.6648 5.90992L26.3239 6.25082L26.0365 6.53821L25.662 6.91274L25.3761 7.20014L25.1758 7.4004C25.0963 7.47989 25.0963 7.6083 25.1758 7.68779C25.2156 7.72754 25.2676 7.74588 25.3195 7.74588C25.3715 7.74588 25.4235 7.72601 25.4632 7.68779L25.6635 7.48753L25.9509 7.20014L26.3254 6.82561L26.6128 6.53821L26.9537 6.19732L27.2396 5.91145L27.5805 5.57055L27.8663 5.28316L28.516 4.63346C28.5955 4.55397 28.5955 4.42556 28.516 4.34607C28.4747 4.30785 28.4228 4.28798 28.3708 4.28798Z" fill="#BBBABA"/>
<path d="M28.8249 5.04622C28.7729 5.04622 28.7209 5.06609 28.6812 5.10584L28.1844 5.60266L27.897 5.89006L27.5561 6.23096L27.2702 6.51682L26.9293 6.85772L26.6419 7.14511L26.2674 7.51964L25.98 7.80704L25.5015 8.28552C25.422 8.36501 25.422 8.49342 25.5015 8.57291C25.5397 8.61419 25.5917 8.63406 25.6452 8.63406C25.6972 8.63406 25.7492 8.61419 25.7889 8.57291L26.2674 8.09443L26.5548 7.80704L26.9293 7.43251L27.2167 7.14511L27.5576 6.80422L27.845 6.51835L28.1859 6.17745L28.4733 5.89006L28.9701 5.39323C29.0496 5.31374 29.0496 5.18533 28.9701 5.10584C28.9273 5.06456 28.8769 5.04622 28.8249 5.04622Z" fill="#BBBABA"/>
<path d="M28.5498 6.5963C28.4978 6.5963 28.4458 6.61617 28.4061 6.65592L28.1951 6.86688L27.9092 7.15274L27.5683 7.49364L27.281 7.78103L26.9064 8.15556L26.619 8.44296L26.1436 8.91838C26.0641 8.99787 26.0641 9.12628 26.1436 9.20578C26.1833 9.24552 26.2353 9.2654 26.2873 9.2654C26.3393 9.2654 26.3912 9.24552 26.431 9.20578L26.9064 8.73035L27.1938 8.44296L27.5683 8.06843L27.8557 7.78103L28.1966 7.44014L28.4825 7.15427L28.6935 6.94331C28.773 6.86382 28.773 6.73541 28.6935 6.65592C28.6537 6.6177 28.6017 6.5963 28.5498 6.5963Z" fill="#BBBABA"/>
<path d="M27.4139 3.83701C27.3604 3.83701 27.3084 3.85688 27.2686 3.89815L26.8788 4.29714L26.596 4.58759L26.2597 4.93308L25.9769 5.22353L25.6406 5.56901L25.3578 5.85947L25.0841 6.14074C25.0062 6.22177 25.0077 6.35018 25.0872 6.42814C25.1269 6.46636 25.1774 6.48623 25.2294 6.48623C25.2813 6.48623 25.3348 6.46636 25.3746 6.42508L25.6452 6.14686L25.928 5.85641L26.2643 5.51092L26.5471 5.22047L26.8834 4.87499L27.1662 4.58454L27.5591 4.18096C27.6371 4.10147 27.6371 3.97306 27.556 3.89357C27.5163 3.85535 27.4643 3.83701 27.4139 3.83701Z" fill="#BBBABA"/>
<path d="M22.6993 16.4533C21.351 15.105 21.8234 15.5774 19.6694 13.4234C18.3807 12.1348 17.6546 10.3783 17.6546 9.6705C17.6546 8.16779 17.2174 6.27222 15.6933 4.74658C13.5975 2.65227 11.0675 2.41532 9.65191 3.82937C8.23634 5.24493 8.47329 7.77492 10.5691 9.87076C12.0596 11.3628 13.917 11.933 15.3967 11.8474C16.2314 11.8 17.7234 12.8808 18.9678 14.1251C21.0529 16.2102 20.6768 15.8327 21.9732 17.129C22.3599 17.5173 23.0708 16.8233 22.6993 16.4533ZM16.2345 10.47C15.2928 11.4117 14.3404 11.0662 13.7305 10.9164C12.188 10.5403 11.0889 9.35406 11.0889 9.35406C9.30031 7.56549 9.04043 5.46659 10.1747 4.33078C11.309 3.19802 13.4079 3.45789 15.1965 5.24646C15.9593 6.00928 16.4164 6.86688 16.6717 7.69849L16.7817 8.17544C16.7802 8.17544 17.1777 9.52527 16.2345 10.47Z" fill="#FFCD03"/>
<path d="M22.2423 17.5142C22.068 17.5142 21.9075 17.447 21.7822 17.3216L18.7767 14.3162C17.4361 12.9755 16.0771 12.0797 15.4121 12.1195C15.3127 12.1256 15.2118 12.1286 15.1094 12.1286C13.4156 12.1286 11.6897 11.3765 10.3781 10.0634C9.34165 9.02692 8.68431 7.81008 8.52533 6.63299C8.36787 5.46201 8.6996 4.4011 9.45936 3.63981C10.0953 3.00387 10.9376 2.66603 11.893 2.66603C13.2475 2.66603 14.6646 3.33713 15.8829 4.55702C17.6577 6.33336 17.9237 8.52245 17.9237 9.6705C17.9237 10.2545 18.5704 11.9437 19.8591 13.2324L22.8905 16.2622C23.0754 16.4472 23.1228 16.7117 23.0173 16.9669C22.8874 17.2849 22.5618 17.5142 22.2423 17.5142ZM15.4518 11.5768C16.447 11.5768 18.02 12.7951 19.1604 13.9356L22.1659 16.9394L22.2438 16.9731C22.3432 16.9731 22.4746 16.8722 22.5205 16.7606C22.5511 16.6841 22.5251 16.6597 22.5098 16.6444L19.4784 13.613C18.6239 12.7585 17.3856 10.8598 17.3856 9.66897C17.3856 8.605 17.141 6.5749 15.5038 4.93767C14.3879 3.82019 13.1053 3.20566 11.8961 3.20566C11.0874 3.20566 10.3781 3.48694 9.84459 4.02045C8.4703 5.39322 8.85553 7.77339 10.7618 9.67814C11.9725 10.8904 13.5593 11.586 15.1109 11.586C15.2027 11.586 15.2944 11.5829 15.383 11.5768H15.4518Z" fill="#343333"/>
<path d="M14.7961 11.2389C14.4383 11.2389 14.1097 11.1533 13.8467 11.0861C13.7963 11.0738 13.7474 11.0601 13.7 11.0494C12.1346 10.6672 11.037 9.49776 10.9911 9.44731C10.1259 8.58207 9.56182 7.57772 9.40283 6.61923C9.24691 5.67602 9.48691 4.8276 10.08 4.236C10.5524 3.76363 11.1868 3.51292 11.9129 3.51292C13.0365 3.51292 14.2366 4.09536 15.2929 5.15168C15.9991 5.85794 16.5067 6.70178 16.8002 7.65874L16.9133 8.14333C16.9286 8.19378 17.3199 9.57572 16.3309 10.5617C15.8768 11.0173 15.3754 11.2389 14.7961 11.2389ZM11.9114 3.78503C11.2587 3.78503 10.6915 4.00822 10.2711 4.42861C9.7422 4.95601 9.52819 5.72036 9.67035 6.57642C9.81864 7.47682 10.3567 8.4292 11.1853 9.25928C11.199 9.27457 12.2798 10.4226 13.7627 10.7849C13.8116 10.7971 13.862 10.8109 13.914 10.8231C14.1754 10.8904 14.4735 10.9684 14.7961 10.9684C15.3005 10.9684 15.7393 10.7727 16.1398 10.3737C17.0127 9.50081 16.655 8.22588 16.6519 8.21518L16.5403 7.73059C16.2621 6.82407 15.7775 6.01845 15.1018 5.34277C14.1097 4.35371 12.9479 3.78503 11.9114 3.78503Z" fill="#FBB03B"/>
<path d="M14.7868 12.0843C14.4551 12.0843 14.0882 12.04 13.6831 11.9345L13.6403 11.9238C13.4951 11.8886 13.4064 11.7403 13.4431 11.5967C13.4798 11.4514 13.6265 11.3628 13.7702 11.3979L13.8161 11.4102C14.9611 11.7037 15.8844 11.511 16.5616 10.8338C17.6088 9.78515 17.2541 8.35888 17.2373 8.29773C17.1991 8.15404 17.2862 8.00728 17.4299 7.96907C17.5752 7.93085 17.7219 8.01645 17.7601 8.16015C17.78 8.232 18.2141 9.94414 16.9423 11.216C16.5158 11.644 15.8248 12.0843 14.7868 12.0843Z" fill="#343333"/>
<path d="M19.5488 15.1814L22.7285 18.3611C23.048 18.6806 23.3858 18.5002 23.7069 18.1807C24.0264 17.8612 24.2052 17.5234 23.8872 17.2039L20.7916 14.1098C20.4721 13.7903 20.2704 14.0609 19.9509 14.3804C19.6512 14.6785 19.3898 15.0225 19.5488 15.1814Z" fill="#D9E027"/>
<path d="M23.0893 18.7999C22.8875 18.7999 22.7025 18.7173 22.539 18.5522L19.3593 15.3725C18.9679 14.9827 19.5626 14.385 19.7598 14.1893L19.8423 14.1052C20.0487 13.8958 20.2429 13.6956 20.515 13.6956C20.677 13.6956 20.8345 13.7705 20.9812 13.9172L24.0768 17.0128C24.3459 17.2819 24.5339 17.7374 23.898 18.3734C23.7145 18.5568 23.4317 18.7999 23.0893 18.7999ZM19.7812 15.0316L22.9211 18.17C23.0006 18.2495 23.0557 18.2587 23.0893 18.2587C23.1627 18.2587 23.2941 18.2128 23.5158 17.9912C23.9026 17.6029 23.7772 17.4775 23.6946 17.398L20.599 14.3009C20.541 14.2444 20.5134 14.2382 20.5134 14.2382C20.463 14.2444 20.3224 14.3896 20.2276 14.4844L20.1404 14.5715C19.8821 14.8314 19.8041 14.9735 19.7812 15.0316Z" fill="#343333"/>
<path d="M18.3196 12.7233C18.1071 12.5001 17.2877 11.1457 17.2296 10.4211C17.0676 10.71 16.6059 11.3475 16.2268 11.4377C17.0691 11.6593 18.0276 12.4665 18.3196 12.7233Z" fill="#E43E3E"/>
<path d="M18.3198 12.9266L18.1853 12.8746C17.9162 12.6362 16.9776 11.8443 16.175 11.6334C16.0849 11.6104 16.0222 11.5279 16.0237 11.4346C16.0252 11.3414 16.0894 11.2603 16.1796 11.2389C16.4472 11.1747 16.866 10.6565 17.0525 10.3217C17.0969 10.2438 17.1855 10.204 17.2727 10.2224C17.3598 10.2407 17.424 10.3156 17.4316 10.4043C17.4851 11.0754 18.2755 12.3839 18.465 12.5842C18.5399 12.6637 18.5399 12.786 18.4635 12.8655C18.4253 12.9052 18.3733 12.9266 18.3198 12.9266ZM16.7055 11.3918C16.9944 11.5187 17.2788 11.6853 17.5371 11.8596C17.3797 11.5584 17.2314 11.2282 17.1335 10.9286C17.0128 11.0876 16.8645 11.2573 16.7055 11.3918Z" fill="#343333"/>
<path d="M12.7936 8.58054L12.5062 8.86794L12.5964 8.95813C12.6361 8.99788 12.6881 9.01775 12.7401 9.01775C12.792 9.01775 12.844 8.99788 12.8838 8.95813C12.9633 8.87864 12.9633 8.75023 12.8838 8.67074L12.7936 8.58054ZM12.1546 7.94155L11.8672 8.22894L12.2188 8.58054L12.5062 8.29315L12.1546 7.94155ZM11.5507 7.33619L11.2633 7.62358L11.5813 7.94155L11.8687 7.65416L11.5507 7.33619ZM10.9133 6.78586C10.8613 6.78586 10.8093 6.80573 10.7696 6.84548C10.6901 6.92497 10.6901 7.05338 10.7696 7.13287L10.976 7.33924L11.2633 7.05185L11.0585 6.84701C11.0172 6.8042 10.9653 6.78586 10.9133 6.78586Z" fill="#BBBABA"/>
<path d="M13.4552 7.91862L13.1678 8.20602L13.5989 8.63558C13.6372 8.67533 13.6907 8.6952 13.7426 8.6952C13.7946 8.6952 13.8466 8.67533 13.8863 8.63558C13.9658 8.55609 13.9658 8.42768 13.8863 8.34971L13.4552 7.91862ZM12.8162 7.27963L12.5289 7.56702L12.8805 7.91862L13.1678 7.63123L12.8162 7.27963ZM12.2109 6.6758L11.9235 6.96319L12.2415 7.28116L12.5289 6.99376L12.2109 6.6758ZM11.5153 5.98024L11.2295 6.26763L11.6376 6.6758L11.9235 6.3884L11.5153 5.98024ZM10.9833 5.53233C10.9314 5.53233 10.8794 5.55221 10.8396 5.59195C10.7602 5.67144 10.7602 5.79985 10.8396 5.87935L10.9421 5.98177L11.2295 5.69437L11.127 5.59195C11.0873 5.55221 11.0353 5.53233 10.9833 5.53233Z" fill="#BBBABA"/>
<path d="M14.0822 7.29186L13.7963 7.57926L14.07 7.85289C14.1097 7.89264 14.1617 7.91251 14.2137 7.91251C14.2656 7.91251 14.3176 7.89264 14.3574 7.85289C14.4368 7.7734 14.4368 7.64346 14.3574 7.5655L14.0822 7.29186ZM13.4432 6.65287L13.1573 6.93873L13.5089 7.29033L13.7963 7.00294L13.4432 6.65287ZM12.8378 6.04904L12.5504 6.3349L12.8684 6.65287L13.1558 6.367L12.8378 6.04904ZM12.1438 5.35348L11.8564 5.64087L12.2646 6.04904L12.552 5.76164L12.1438 5.35348ZM11.3825 4.67627C11.3305 4.67627 11.2786 4.69614 11.2388 4.73589C11.1593 4.81538 11.1593 4.94379 11.2388 5.02328L11.569 5.35348L11.8549 5.06609L11.5247 4.73589C11.4865 4.69614 11.4345 4.67627 11.3825 4.67627Z" fill="#BBBABA"/>
<path d="M14.0716 6.0261L13.7842 6.3135L13.853 6.38229C13.8928 6.42203 13.9447 6.44191 13.9967 6.44191C14.0487 6.44191 14.1007 6.42203 14.1404 6.38229C14.2184 6.3028 14.2184 6.17439 14.1404 6.09489L14.0716 6.0261ZM13.4663 5.42074L13.1789 5.70813L13.4968 6.0261L13.7842 5.73871L13.4663 5.42074ZM12.7722 4.72518L12.4848 5.01258L12.893 5.42074L13.1804 5.13335L12.7722 4.72518ZM11.9574 3.97307H11.9116C11.8673 3.97765 11.8245 3.99753 11.7908 4.03116C11.7113 4.11065 11.7113 4.23906 11.7908 4.31855L12.1975 4.72518L12.4848 4.43779L12.0782 4.03116C12.0431 3.99753 12.0018 3.97765 11.9574 3.97307Z" fill="#BBBABA"/>
<path d="M13.4476 4.94991C13.3957 4.94991 13.3437 4.96978 13.3039 5.00952L13.1786 5.13488L12.8912 5.42227L12.5503 5.76317L12.2629 6.05056L11.9235 6.3884L11.6361 6.6758L11.2616 7.05033L10.9742 7.33772L10.5171 7.7948C10.4376 7.87429 10.4376 8.0027 10.5171 8.0822C10.5569 8.12194 10.6089 8.14181 10.6608 8.14181C10.7128 8.14181 10.7648 8.12194 10.8045 8.0822L11.2616 7.62512L11.549 7.33772L11.9235 6.96319L12.2109 6.6758L12.5518 6.3349L12.8392 6.04904L13.1801 5.70814L13.4675 5.42074L13.5929 5.29539C13.6708 5.2159 13.6708 5.08749 13.5929 5.008C13.5516 4.96825 13.4996 4.94991 13.4476 4.94991Z" fill="#BBBABA"/>
<path d="M13.9508 5.65616C13.8988 5.65616 13.8469 5.67603 13.8071 5.71578L13.7842 5.73871L13.4968 6.0261L13.1559 6.367L12.8685 6.65287L12.5276 6.99376L12.2402 7.28116L11.8657 7.65569L11.5783 7.94308L11.2267 8.29468C11.1487 8.37417 11.1487 8.50258 11.2267 8.58208C11.2664 8.62335 11.3184 8.64169 11.3704 8.64169C11.4224 8.64169 11.4743 8.62182 11.5141 8.58208L11.8657 8.23048L12.1531 7.94308L12.5276 7.56855L12.815 7.28116L13.1559 6.94026L13.4418 6.65439L13.7827 6.3135L14.0701 6.0261L14.093 6.00317C14.1725 5.92368 14.1725 5.79527 14.093 5.71578C14.0548 5.67603 14.0028 5.65616 13.9508 5.65616Z" fill="#BBBABA"/>
<path d="M14.0929 6.79045C14.0409 6.79045 13.9889 6.81032 13.9507 6.85007L13.7963 7.00447L13.5089 7.29186L13.168 7.63276L12.8806 7.92016L12.5061 8.29468L12.2187 8.58208L12.1453 8.65546C12.0658 8.73495 12.0658 8.86336 12.1453 8.94285C12.1835 8.98107 12.237 9.00094 12.289 9.00094C12.341 9.00094 12.393 8.98107 12.4327 8.94285L12.5061 8.86947L12.7935 8.58208L13.168 8.20755L13.4554 7.92016L13.7963 7.57926L14.0822 7.29186L14.2381 7.13594C14.3176 7.05797 14.3176 6.92956 14.2381 6.85007C14.1968 6.81032 14.1448 6.79045 14.0929 6.79045Z" fill="#BBBABA"/>
<path d="M12.7522 4.25435C12.7002 4.25435 12.6483 4.27422 12.6085 4.31397L12.4832 4.43932L12.1958 4.72671L11.8549 5.06761L11.569 5.35501L11.2281 5.69591L10.9407 5.9833L10.7481 6.17592C10.6686 6.25541 10.6686 6.38382 10.7481 6.46331C10.7878 6.50306 10.8398 6.52293 10.8918 6.52293C10.9438 6.52293 10.9957 6.50306 11.0355 6.46331L11.2296 6.26764L11.517 5.98024L11.8579 5.63934L12.1453 5.35195L12.4862 5.01105L12.7736 4.72366L12.899 4.59983C12.9785 4.52034 12.9785 4.39193 12.899 4.31244C12.8562 4.27422 12.8042 4.25435 12.7522 4.25435Z" fill="#BBBABA"/>
<path d="M20.9064 3.05281C20.405 3.96085 19.2646 4.28799 18.3581 3.78811C17.4515 3.2867 17.1229 2.14629 17.6228 1.23978C18.1242 0.331735 19.2661 0.00459483 20.1726 0.504477C21.0791 1.00589 21.4078 2.14782 20.9064 3.05281Z" fill="#D9E027"/>
<path d="M19.263 4.29257C18.9023 4.29257 18.543 4.19932 18.2266 4.02352C17.1901 3.45179 16.8141 2.14323 17.3858 1.10677C17.7634 0.424976 18.4849 0 19.2676 0C19.6284 0 19.9861 0.0917215 20.3041 0.26905C20.8055 0.545743 21.1708 1.00129 21.3283 1.55315C21.4873 2.10501 21.4215 2.68438 21.1449 3.1858C20.7657 3.86759 20.0457 4.29257 19.263 4.29257ZM19.2676 0.541157C18.6821 0.541157 18.144 0.857596 17.8612 1.36818C17.4332 2.14476 17.716 3.12312 18.4895 3.55115C18.7265 3.68262 18.9955 3.75141 19.2646 3.75141C19.85 3.75141 20.3881 3.43497 20.671 2.92286C20.8773 2.54833 20.9262 2.11418 20.807 1.70143C20.6893 1.28869 20.4172 0.947789 20.0411 0.739887C19.8042 0.611477 19.5351 0.541157 19.2676 0.541157Z" fill="#343333"/>
<path d="M21.0409 1.54245C20.4096 2.11876 20.3912 1.28716 19.636 1.0869C18.9787 0.912627 18.6179 1.57149 18.7372 2.0301C18.9267 2.75623 19.6834 2.37711 19.7247 3.28669C19.7522 3.90581 18.9772 4.08925 18.7616 3.94555L21.0409 1.54245Z" fill="#D9E027"/>
<path d="M18.9617 4.26199C18.8318 4.26199 18.7095 4.23448 18.6116 4.16874C18.4863 4.08619 18.4542 3.91804 18.5383 3.79421C18.6208 3.67039 18.789 3.63676 18.9143 3.72084C18.9525 3.73307 19.1482 3.72084 19.3011 3.61077C19.4112 3.53128 19.4616 3.42886 19.4555 3.29892C19.4417 2.96566 19.3317 2.91369 19.1146 2.80668C18.896 2.69967 18.5964 2.55139 18.4786 2.09889C18.3854 1.74424 18.5031 1.3269 18.7691 1.06244C19.0137 0.817849 19.3561 0.733771 19.7077 0.827021C20.0822 0.926386 20.307 1.14958 20.4721 1.31315C20.6754 1.5134 20.6754 1.5134 20.8604 1.34372C20.9704 1.24283 21.1416 1.25047 21.2425 1.35901C21.3434 1.46907 21.3358 1.64029 21.2257 1.74118C20.6586 2.25941 20.3161 1.92004 20.0899 1.69532C19.9493 1.55468 19.804 1.41098 19.5686 1.34831C19.3989 1.30397 19.2583 1.33608 19.1497 1.44461C19.0198 1.57455 18.9571 1.79163 19.003 1.96284C19.058 2.17686 19.1696 2.23036 19.3531 2.32055C19.6129 2.44896 19.9676 2.62171 19.9982 3.27446C20.0135 3.62759 19.8377 3.93332 19.5166 4.11371C19.3561 4.20237 19.1513 4.26199 18.9617 4.26199Z" fill="#343333"/>
<path d="M6.78255 25.5995C6.87274 28.8632 1.64461 29.6551 0.403316 29.8997C2.76056 28.3924 3.47446 26.8255 4.19295 24.9376C2.62451 25.2418 1.38321 24.693 0.339111 24.0234C3.99727 22.9273 5.66355 20.7046 6.2842 18.4819C6.77491 20.7642 6.78255 24.8321 6.78255 25.5995Z" fill="white"/>
<path d="M0.40338 30.2375C0.267326 30.2375 0.141973 30.155 0.0899977 30.025C0.0303787 29.8737 0.0854116 29.7025 0.221465 29.6153C2.25157 28.316 3.00827 26.9998 3.6702 25.3472C3.55096 25.3564 3.43172 25.3595 3.31401 25.3595C1.97182 25.3595 0.921606 24.7969 0.155731 24.3077C0.0441369 24.2359 -0.0139534 24.1059 0.00286222 23.976C0.0212065 23.8445 0.114457 23.7375 0.241338 23.6993C4.06154 22.5543 5.46029 20.1803 5.96018 18.3902C6.00145 18.2403 6.1375 18.1379 6.29649 18.1425C6.45241 18.1471 6.58388 18.2572 6.61598 18.4085C7.07154 20.5334 7.12045 24.1457 7.12045 25.5979C7.2137 28.9641 2.31272 29.8829 0.701475 30.184C0.612811 30.2008 0.534847 30.2161 0.467585 30.2284L0.40338 30.2375ZM4.19301 24.5967C4.29237 24.5967 4.38715 24.641 4.45289 24.7174C4.53238 24.8107 4.55378 24.9406 4.50945 25.0553C3.9102 26.6298 3.30025 27.9873 1.83424 29.2607C3.72829 28.8067 6.50592 27.8191 6.44477 25.6086C6.44477 24.4285 6.41267 21.8297 6.15738 19.795C5.42055 21.3726 3.97288 23.0787 1.15244 24.109C1.74863 24.4209 2.4717 24.6853 3.31248 24.6853C3.58 24.6853 3.85364 24.6578 4.12727 24.6043L4.19301 24.5967Z" fill="#343333"/>
<path d="M5.20801 23.2591C5.24011 24.9544 6.83454 24.3888 6.78562 25.7386L6.80243 21.5347L5.51833 21.8053L5.20801 23.2591Z" fill="#D9D8D8"/>
<path d="M6.78588 26.078H6.77823C6.59326 26.0734 6.44651 25.9236 6.44804 25.7386V25.6392C6.43581 25.2815 6.27376 25.1714 5.90994 24.9528C5.48037 24.6945 4.88877 24.3414 4.8689 23.2667L4.87654 23.1903L5.18534 21.7365C5.21285 21.605 5.31527 21.5041 5.44674 21.4766L6.73084 21.206C6.83021 21.1861 6.93569 21.2091 7.01365 21.2748C7.09314 21.3405 7.139 21.4368 7.139 21.5393L7.12219 25.6331V25.7539C7.11607 25.9343 6.96779 26.078 6.78588 26.078ZM5.54764 23.2912C5.57057 23.9607 5.87478 24.1442 6.25848 24.3735C6.32268 24.4117 6.38689 24.4499 6.45262 24.4942L6.46179 21.952L5.8014 22.0911L5.54764 23.2912Z" fill="#343333"/>
<path d="M32.2172 25.679C32.127 28.9427 37.3552 29.7331 38.5964 29.9777C36.2392 28.4704 35.5253 26.9019 34.8068 25.014C36.3753 25.3182 37.6166 24.7694 38.6622 24.0998C35.0025 23.0038 33.3362 20.781 32.7156 18.5583C32.2249 20.8437 32.2172 24.9116 32.2172 25.679Z" fill="white"/>
<path d="M38.5963 30.3155L38.5306 30.3094C38.4633 30.2972 38.3854 30.2819 38.2967 30.265C36.687 29.9639 31.786 29.0436 31.8792 25.6698C31.8792 24.2252 31.9282 20.6144 32.3852 18.488C32.4173 18.3367 32.5488 18.2251 32.7047 18.222C32.8591 18.219 32.9998 18.3183 33.041 18.4681C33.5409 20.2598 34.9397 22.6338 38.7584 23.7773C38.8852 23.814 38.9785 23.924 38.9968 24.054C39.0152 24.1854 38.9556 24.3138 38.844 24.3857C38.0781 24.8764 37.0279 25.4374 35.6857 25.4374C35.568 25.4374 35.4487 25.4329 35.3295 25.4252C35.993 27.0762 36.7466 28.3939 38.7798 29.6933C38.9158 29.7805 38.9724 29.9532 38.9112 30.1045C38.8577 30.2345 38.7324 30.3155 38.5963 30.3155ZM32.8423 19.8745C32.5886 21.9077 32.5565 24.5049 32.5565 25.679C32.4953 27.8956 35.2729 28.8846 37.1685 29.3387C35.701 28.0668 35.091 26.7108 34.4918 25.1348C34.449 25.0201 34.4704 24.8917 34.5499 24.7984C34.6278 24.7037 34.7532 24.6593 34.8724 24.6838C35.1461 24.7373 35.4212 24.7633 35.6887 24.7633C36.5311 24.7633 37.2541 24.5003 37.8503 24.1885C35.0268 23.1582 33.5791 21.4506 32.8423 19.8745Z" fill="#343333"/>
<path d="M33.7915 23.3385C33.7594 25.0323 32.1665 24.4789 32.2139 25.8288L32.3316 21.1632L33.2443 21.7365L33.8022 23.3599L33.7915 23.3385Z" fill="#D9D8D8"/>
<path d="M32.2141 26.1682C32.0322 26.1682 31.8839 26.0245 31.8763 25.8425C31.8732 25.763 31.8748 25.6881 31.8809 25.6194L31.994 21.1556C31.997 21.0333 32.0658 20.9232 32.1729 20.8666C32.2799 20.8086 32.4098 20.8147 32.5122 20.8774L33.4248 21.4537C33.4906 21.4934 33.5395 21.5576 33.5655 21.6295L34.1235 23.2529C34.1464 23.3217 34.1464 23.3951 34.1265 23.4608C34.0684 24.4453 33.5059 24.7877 33.0916 25.0384C32.7797 25.2265 32.5917 25.3411 32.5581 25.6606L32.5535 25.841C32.5489 26.0229 32.3991 26.1682 32.2172 26.1697H32.2141V26.1682ZM32.6544 21.767L32.5841 24.5554C32.636 24.5218 32.6895 24.4912 32.74 24.4591C33.1222 24.2282 33.4248 24.0448 33.4524 23.3844L32.9647 21.9612L32.6544 21.767Z" fill="#343333"/>
<path d="M33.2627 15.4505C31.228 15.903 27.073 17.3766 19.5045 17.3766C11.9374 17.3766 7.78093 15.9015 5.74776 15.4505C5.16686 15.3206 4.64711 15.8311 4.76023 16.4136C5.20202 18.6913 5.33807 22.2944 5.20814 23.3599C6.01987 21.3986 10.1794 24.2252 19.5045 24.2252C28.831 24.2252 32.9906 21.3971 33.8023 23.3599C33.6709 22.2944 33.8069 18.6913 34.2487 16.4136C34.3618 15.8311 33.8421 15.3206 33.2627 15.4505Z" fill="white"/>
<path d="M19.5045 24.5646C14.9566 24.5646 11.5644 23.8843 9.31878 23.4348C8.1264 23.1948 7.1832 23.0068 6.53044 23.0068C5.85629 23.0068 5.63922 23.201 5.51998 23.4914C5.45424 23.6473 5.28456 23.7314 5.12099 23.6886C4.95742 23.6443 4.85194 23.4868 4.87181 23.3202C5.00481 22.2425 4.855 18.6745 4.42849 16.4793C4.36123 16.1353 4.44989 15.7837 4.67155 15.5162C4.94825 15.1814 5.3931 15.0255 5.8196 15.1203C6.16203 15.1967 6.56102 15.3007 7.02421 15.4214C9.34629 16.0253 13.2338 17.0388 19.5045 17.0388C25.7767 17.0388 29.6626 16.0268 31.9847 15.4214C32.4464 15.3007 32.8454 15.1983 33.1878 15.1203C33.6143 15.0255 34.0591 15.1814 34.3358 15.5162C34.5575 15.7853 34.6462 16.1369 34.5804 16.4793C34.1539 18.6745 34.0041 22.2425 34.1371 23.3202C34.1585 23.4868 34.0515 23.6443 33.8879 23.6886C33.7243 23.7314 33.5547 23.6473 33.4889 23.4914C33.3697 23.201 33.1511 23.0068 32.4769 23.0068C31.8242 23.0068 30.8825 23.1948 29.6886 23.4348C27.446 23.8843 24.0538 24.5646 19.5045 24.5646ZM6.53197 22.3296C7.25199 22.3296 8.22271 22.5253 9.4533 22.7714C11.8044 23.2422 15.0239 23.8889 19.5045 23.8889C23.9851 23.8889 27.2045 23.2422 29.5556 22.7714C30.7862 22.5253 31.7569 22.3296 32.4769 22.3296C32.7613 22.3296 33.1037 22.3556 33.4156 22.4962C33.3926 20.9186 33.5562 18.2021 33.9154 16.3494C33.9445 16.2026 33.9078 16.0589 33.8145 15.9458C33.6984 15.8051 33.5149 15.7394 33.3345 15.7792C33.0043 15.8525 32.6099 15.9565 32.1559 16.0742C29.8017 16.6872 25.8623 17.713 19.5045 17.713C13.1466 17.713 9.20718 16.6872 6.853 16.0742C6.39745 15.9565 6.00304 15.8525 5.67285 15.7792C5.49246 15.7394 5.30902 15.8051 5.19284 15.9458C5.09959 16.0604 5.0629 16.2041 5.09042 16.3494C5.45119 18.2006 5.61476 20.9171 5.5903 22.4962C5.90368 22.3556 6.24764 22.3296 6.53197 22.3296Z" fill="#343333"/>
<path d="M10.8534 19.049C10.7694 18.913 10.6547 18.7937 10.511 18.6913C10.3765 18.595 10.2144 18.5186 10.031 18.4666L10.0616 18.3198L10.0356 18.2801L9.33544 18.1349L9.29569 18.1624L9.26665 18.3061C9.08626 18.2816 8.91352 18.2893 8.75301 18.3244C8.58332 18.3611 8.4274 18.4284 8.28982 18.517C8.15376 18.6103 8.03605 18.7265 7.94433 18.8641C7.85108 19.0016 7.78535 19.1606 7.75019 19.3349C7.71197 19.5229 7.70586 19.7018 7.73184 19.8669C7.75936 20.0335 7.81745 20.1848 7.90458 20.3209C7.99325 20.457 8.11096 20.5731 8.25313 20.671C8.38918 20.7642 8.55122 20.8361 8.73466 20.888L8.69033 21.1036L8.69492 21.1296L8.71632 21.1449L9.41799 21.2886L9.42563 21.2901L9.45926 21.2626L9.5036 21.0455C9.69163 21.0684 9.86743 21.0608 10.0279 21.0272C10.1976 20.9905 10.3505 20.9263 10.4835 20.8361C10.6165 20.7444 10.7281 20.6266 10.8167 20.486C10.9054 20.3454 10.9696 20.1818 11.0063 20.0014C11.0415 19.8271 11.0476 19.659 11.0231 19.4985C10.9941 19.3349 10.9375 19.1851 10.8534 19.049ZM10.2374 19.5917C10.2404 19.6743 10.2313 19.7614 10.2144 19.8516C10.1946 19.9464 10.1625 20.032 10.1197 20.1054C10.0784 20.1787 10.0279 20.2399 9.97291 20.2888C9.91787 20.3377 9.85672 20.3729 9.78946 20.3958C9.73596 20.4142 9.68245 20.4249 9.62742 20.4264L9.90411 19.0857C9.96985 19.1102 10.0264 19.1438 10.0707 19.1881C10.1227 19.2386 10.164 19.2997 10.19 19.3655C10.219 19.4343 10.2343 19.5107 10.2374 19.5917ZM8.53135 19.5076C8.56804 19.3257 8.646 19.179 8.76218 19.072C8.86766 18.9757 8.9869 18.9283 9.13212 18.9283H9.13824L8.86155 20.2674C8.72091 20.2063 8.62154 20.113 8.56498 19.9907C8.50383 19.8562 8.49313 19.6926 8.53135 19.5076Z" fill="#1072BA"/>
<path d="M13.9017 19.2845C13.8115 19.1285 13.6846 18.994 13.5287 18.8931C13.3712 18.7892 13.1771 18.7219 12.9493 18.6929C12.7215 18.6623 12.5151 18.6776 12.3347 18.7357C12.1559 18.7938 11.9984 18.8885 11.8685 19.0185C11.7401 19.1469 11.6346 19.3043 11.5551 19.4878C11.4772 19.6712 11.4221 19.8761 11.3931 20.0962C11.364 20.3224 11.364 20.538 11.3915 20.7367C11.4206 20.9355 11.4817 21.1143 11.5765 21.2687C11.6698 21.4216 11.7982 21.55 11.9556 21.6494C12.1116 21.7502 12.3072 21.816 12.535 21.845C12.6069 21.8542 12.6787 21.8573 12.746 21.8573C12.882 21.8573 13.012 21.8374 13.1312 21.8007C13.3085 21.7426 13.4645 21.6494 13.5944 21.5225C13.7228 21.3971 13.8298 21.2381 13.9124 21.0547C13.9934 20.8712 14.0484 20.6649 14.079 20.4432C14.108 20.2261 14.108 20.0152 14.0805 19.818C14.0515 19.6208 13.9919 19.4404 13.9017 19.2845ZM13.2581 19.9663C13.2581 20.084 13.2489 20.2078 13.2321 20.3377C13.2137 20.4784 13.1862 20.6083 13.1541 20.7199C13.1205 20.8315 13.0792 20.9278 13.0272 21.0027C12.9783 21.0761 12.9187 21.1327 12.8514 21.1678C12.7842 21.2045 12.7077 21.2152 12.6191 21.2045C12.5258 21.1923 12.4479 21.1602 12.3898 21.1113C12.3317 21.0623 12.2874 20.9951 12.2568 20.9125C12.2262 20.83 12.2094 20.7276 12.2063 20.6114C12.2033 20.4906 12.2109 20.3546 12.2308 20.2047C12.2476 20.0763 12.2721 19.9556 12.3026 19.844C12.3332 19.7324 12.3745 19.6376 12.4249 19.555C12.4754 19.4771 12.5365 19.4159 12.6084 19.3762C12.6619 19.3456 12.7246 19.3303 12.7934 19.3303L12.8621 19.3349C12.9585 19.3471 13.0364 19.3823 13.0899 19.4358C13.145 19.4924 13.1878 19.5657 13.2137 19.6544C13.2443 19.7477 13.2581 19.8516 13.2581 19.9663Z" fill="#1072BA"/>
<path d="M16.8217 19.3945C16.7468 19.3013 16.6474 19.2248 16.5236 19.1667C16.4013 19.1086 16.2499 19.0735 16.0741 19.0597L14.7044 18.9634L14.68 18.9711L14.6677 18.994L14.6311 19.5245L14.6632 19.5596L14.894 19.5764L14.761 21.4475L14.5286 21.4323L14.4935 21.4628L14.4568 21.9933L14.4889 22.03L15.8326 22.1263H15.8341L15.8555 22.1171L15.8678 22.0942L15.906 21.5653L15.8739 21.5286L15.562 21.5056L15.5972 21.0058L15.9931 21.0333C16.1521 21.044 16.2927 21.0256 16.415 20.9782C16.5373 20.9309 16.6413 20.8636 16.7254 20.7765C16.8094 20.6893 16.8752 20.5869 16.921 20.4738C16.9669 20.3606 16.9944 20.2414 17.0036 20.1161C17.0128 19.9754 17.0051 19.8424 16.9776 19.7217C16.9486 19.5963 16.8966 19.4878 16.8217 19.3945ZM15.6935 19.633L15.8724 19.6452C15.9763 19.6529 16.0527 19.6896 16.1017 19.7568C16.1521 19.8256 16.172 19.9326 16.1628 20.0733C16.1536 20.2017 16.12 20.2964 16.0619 20.3576C16.0115 20.4126 15.9457 20.4371 15.8632 20.4371L15.8341 20.4356L15.6354 20.4218L15.6935 19.633Z" fill="#1072BA"/>
<path d="M21.1477 19.1774L19.937 19.1744L19.9064 19.1973C19.8759 19.2829 19.8376 19.3838 19.7948 19.5046C19.749 19.6253 19.7046 19.7476 19.6588 19.873C19.6129 19.9983 19.5686 20.1206 19.5258 20.2368C19.4815 20.3515 19.4448 20.4493 19.4157 20.5273L19.3637 20.6694L19.3332 20.752C19.3041 20.6756 19.272 20.5915 19.2353 20.4967C19.1543 20.2827 19.0702 20.0641 18.9831 19.8424C18.896 19.6208 18.8119 19.4052 18.7309 19.1958L18.6988 19.1744L17.488 19.1729L17.4544 19.2065L17.4529 19.7369L17.4636 19.7614L17.488 19.7706L17.7357 19.7721L17.7342 21.6432H17.4865L17.4621 21.6524L17.4529 21.6769V22.2073L17.4865 22.2409L18.6896 22.244L18.7125 22.2333L18.7217 22.2104L18.7232 21.6799L18.6896 21.6447H18.4832L18.4847 20.4019L18.5291 20.5212C18.6101 20.7245 18.6881 20.9201 18.7645 21.1112C18.8409 21.3023 18.9204 21.498 19.0045 21.6983L19.0351 21.7181L19.6435 21.7197L19.6756 21.6967C19.7016 21.6249 19.7322 21.5423 19.7673 21.4506C19.8025 21.3574 19.8392 21.261 19.8759 21.1617C19.9125 21.0623 19.9492 20.963 19.9859 20.8666L20.0868 20.5976C20.1082 20.5395 20.1281 20.4829 20.148 20.4294L20.1556 20.4111L20.1541 21.6493L19.9706 21.6478L19.9462 21.6585L19.937 21.6814L19.9355 22.2119L19.9691 22.2455L21.1462 22.2471L21.1798 22.2119V21.6814L21.1707 21.6585L21.1477 21.6478H20.9383L20.9414 19.7767H21.1508L21.1844 19.7431L21.1859 19.2126L21.1752 19.1897L21.1477 19.1774Z" fill="#1072BA"/>
<path d="M24.2619 18.9497L23.1612 19.0276L23.1383 19.0399L23.1306 19.0643L23.1688 19.5948L23.204 19.6238L23.3798 19.6116L23.2101 20.2108L23.0832 20.6878L22.8845 20.2521L22.5971 19.6651L22.7607 19.6529L22.7912 19.6177L22.753 19.0873L22.7423 19.0643L22.7179 19.0567L21.6019 19.1362L21.579 19.1469L21.5698 19.1729L21.608 19.7018L21.6447 19.7339L21.8114 19.7217L22.6552 21.3008L22.6873 21.3192L22.8172 21.31L22.7851 21.4185C22.7683 21.472 22.7469 21.5087 22.7209 21.5301L22.6292 21.5653L22.5467 21.5683L22.5084 21.5668C22.4626 21.5653 22.4014 21.5607 22.3265 21.5485L22.299 21.5546L22.2868 21.5775L22.218 22.1095L22.244 22.1462C22.3693 22.1783 22.484 22.1966 22.5849 22.2058C22.6414 22.2104 22.6965 22.2119 22.7469 22.2119L22.8555 22.2073C23.0129 22.1966 23.1474 22.1462 23.2514 22.0606C23.3538 21.9734 23.4379 21.8297 23.499 21.6295L24.138 19.5535L24.3077 19.5413L24.3306 19.5306L24.3383 19.5046L24.3016 18.9757L24.2619 18.9497Z" fill="#1072BA"/>
<path d="M27.6846 20.9935L27.4462 21.0256L27.1924 19.1667L27.4309 19.1331L27.4538 19.1209L27.4615 19.0964L27.3896 18.5705L27.3514 18.5415L24.8245 18.8855L24.7954 18.9237L24.8673 19.4495L24.881 19.4725L24.9055 19.4786L25.2158 19.4358L25.2647 19.7904C25.2984 20.0396 25.3198 20.2536 25.3289 20.4279C25.3381 20.6007 25.3274 20.7535 25.2999 20.8789C25.2724 21.0027 25.2234 21.1128 25.1547 21.2045C25.0843 21.2977 24.985 21.3833 24.8596 21.4628L24.8459 21.5056L25.1042 22.0499L25.1348 22.0697L25.147 22.0667C25.3901 21.9704 25.5796 21.842 25.7096 21.6845C25.841 21.5255 25.9343 21.3375 25.9847 21.125C26.0367 20.914 26.0581 20.674 26.0459 20.4111C26.0352 20.1497 26.0077 19.8592 25.9649 19.5489L25.9358 19.338L26.396 19.2737L26.6497 21.1326L26.4464 21.1602L26.4235 21.1724L26.4174 21.1984L26.4892 21.7242L26.5274 21.7533L27.7641 21.5836L27.7871 21.5714L27.7932 21.5469L27.7213 21.021L27.6846 20.9935Z" fill="#1072BA"/>
<path d="M31.1744 20.3148L31.1347 20.2888L30.9543 20.3286L29.716 18.0905L29.6794 18.0737L28.7973 18.2618L28.7713 18.2923L28.5038 20.8498L28.328 20.8865L28.3066 20.9018L28.302 20.9278L28.4121 21.4476L28.4274 21.469L28.4457 21.4735L28.4533 21.472L29.5525 21.2397L29.5785 21.1999L29.4684 20.6802L29.4271 20.6542L29.2437 20.6924L29.262 20.4478L30.0569 20.2796L30.1701 20.4967L29.9973 20.5334L29.9713 20.5731L30.0814 21.0929L30.0967 21.1128L30.1211 21.1189L31.26 20.8758L31.286 20.8361L31.1744 20.3148ZM29.5678 19.3227C29.6396 19.4618 29.713 19.607 29.7848 19.7538L29.3094 19.8547C29.314 19.7859 29.3201 19.711 29.3262 19.6269C29.3339 19.526 29.3415 19.4266 29.3492 19.3288C29.3568 19.231 29.3629 19.1392 29.369 19.0536L29.3751 18.9436C29.4378 19.072 29.5036 19.1988 29.5678 19.3227Z" fill="#1072BA"/>
</g>
<defs>
<clipPath id="clip0">
<rect width="39" height="36.8124" fill="white"/>
</clipPath>
</defs>
</svg>
