<svg width="134" height="35" viewBox="0 0 134 35" fill="none" xmlns="http://www.w3.org/2000/svg">
<path d="M83.658 16.1698H81.1348V15.4156H86.9021V16.1698H84.4001V21.8607H83.658V16.1698Z" fill="#007AC2"/>
<path d="M88.3228 15.4156H89.0649V21.8835H88.3228V15.4156Z" fill="#007AC2"/>
<path d="M92.9663 16.1698H90.4431V15.4156H96.2317V16.1698H93.7085V21.8607H92.9663V16.1698Z" fill="#007AC2"/>
<path d="M97.4401 15.4156H98.1822V21.1293H102.02V21.8607H97.4401V15.4156Z" fill="#007AC2"/>
<path d="M103.738 15.4156H108.381V16.1698H104.48V18.1353H106.876V18.8895H104.48V21.175H108.721V21.9064H103.738V15.4156Z" fill="#007AC2"/>
<path d="M81.6092 29.8813C82.3621 30.5388 83.3139 30.9117 84.3047 30.9372C85.4692 30.9372 86.2023 30.3653 86.2023 29.6393C86.2023 28.9134 85.7279 28.6054 84.7791 28.5395C83.9299 28.5452 83.0853 28.4115 82.2777 28.1435C82.0256 28.0427 81.8089 27.8674 81.6552 27.64C81.5015 27.4127 81.4179 27.1437 81.4151 26.8676C81.4151 25.9217 82.3208 25.1518 83.7656 25.1518C84.8173 25.1613 85.8381 25.5161 86.6767 26.1637L86.2455 26.8016C85.551 26.2059 84.673 25.8788 83.7656 25.8777C82.7952 25.8777 82.1914 26.3177 82.1914 26.8236C82.1885 26.932 82.2127 27.0394 82.2617 27.1356C82.3108 27.2319 82.383 27.3138 82.4717 27.3736C82.9893 27.7915 83.8734 27.7035 84.9732 27.8135C86.073 27.9235 86.9786 28.7154 86.9786 29.6613C86.9786 30.6073 86.0083 31.6412 84.3047 31.6412C83.1574 31.6685 82.0365 31.2874 81.1348 30.5633L81.6092 29.8813Z" fill="#007AC2"/>
<path d="M89.2213 25.2837H92.6931C93.9007 25.2837 94.6123 25.9217 94.6123 26.9776C94.6219 27.2209 94.5812 27.4635 94.493 27.6897C94.4048 27.9159 94.2709 28.1206 94.1001 28.2907C93.9294 28.4608 93.7255 28.5923 93.5017 28.6769C93.2778 28.7614 93.0391 28.797 92.801 28.7814H89.9761V31.4872H89.2213V25.2837ZM92.65 28.0555C93.4263 28.0555 93.8145 27.7255 93.8145 27.0436C93.8145 26.3616 93.4263 26.0097 92.6931 26.0097H89.9761V28.0555H92.65Z" fill="#007AC2"/>
<path d="M96.1434 28.4075C96.1477 27.7732 96.3359 27.1544 96.6844 26.6292C97.033 26.1039 97.5262 25.6957 98.1018 25.456C98.6775 25.2162 99.3098 25.1558 99.9191 25.2822C100.528 25.4086 101.087 25.7162 101.525 26.1662C101.964 26.6162 102.261 27.1885 102.381 27.8109C102.501 28.4333 102.437 29.078 102.198 29.6635C101.959 30.2491 101.556 30.7494 101.039 31.1014C100.521 31.4533 99.9135 31.6411 99.2918 31.6412C98.8732 31.6535 98.4566 31.5781 98.0678 31.4196C97.6789 31.2612 97.326 31.0231 97.0309 30.72C96.7359 30.4169 96.5049 30.0553 96.3522 29.6576C96.1995 29.2598 96.1285 28.8343 96.1434 28.4075ZM101.664 28.4075C101.647 27.933 101.494 27.4741 101.223 27.0879C100.952 26.7017 100.576 26.4053 100.141 26.2356C99.7067 26.0659 99.2327 26.0303 98.7784 26.1334C98.3241 26.2365 97.9095 26.4736 97.5864 26.8152C97.2632 27.1569 97.0457 27.588 96.9609 28.0548C96.8762 28.5216 96.9279 29.0036 97.1097 29.4406C97.2915 29.8777 97.5953 30.2505 97.9833 30.5127C98.3713 30.7749 98.8264 30.9149 99.2918 30.9152C99.6115 30.9186 99.9286 30.8553 100.224 30.7293C100.519 30.6033 100.785 30.4173 101.007 30.1825C101.229 29.9478 101.402 29.6693 101.515 29.364C101.628 29.0588 101.678 28.7333 101.664 28.4075Z" fill="#007AC2"/>
<path d="M104.553 25.2837H104.942L108.888 29.9253V25.2837H109.642V31.4872H109.254L105.33 26.8456V31.4872H104.575L104.553 25.2837Z" fill="#007AC2"/>
<path d="M112.079 29.8813C112.844 30.5328 113.801 30.9045 114.796 30.9372C115.961 30.9372 116.694 30.3653 116.694 29.6393C116.694 28.9134 116.22 28.6054 115.271 28.5395C114.422 28.5452 113.577 28.4115 112.769 28.1435C112.517 28.0427 112.301 27.8674 112.147 27.64C111.993 27.4127 111.91 27.1437 111.907 26.8676C111.907 25.9217 112.812 25.1518 114.257 25.1518C115.309 25.1613 116.33 25.5161 117.168 26.1637L116.737 26.8016C116.047 26.2139 115.178 25.8875 114.279 25.8777C113.308 25.8777 112.705 26.3177 112.705 26.8236C112.702 26.932 112.726 27.0394 112.775 27.1356C112.824 27.2319 112.896 27.3138 112.985 27.3736C113.503 27.7915 114.365 27.7035 115.486 27.8135C116.608 27.9235 117.492 28.7154 117.492 29.6613C117.492 30.6073 116.522 31.6412 114.818 31.6412C113.671 31.6685 112.55 31.2874 111.648 30.5633L112.079 29.8813Z" fill="#007AC2"/>
<path d="M119.238 28.4075C119.243 27.7732 119.431 27.1544 119.78 26.6292C120.128 26.1039 120.621 25.6957 121.197 25.456C121.773 25.2162 122.405 25.1558 123.014 25.2822C123.623 25.4086 124.182 25.7162 124.621 26.1662C125.059 26.6162 125.356 27.1885 125.476 27.8109C125.596 28.4333 125.532 29.078 125.293 29.6635C125.055 30.2491 124.651 30.7494 124.134 31.1014C123.616 31.4533 123.009 31.6411 122.387 31.6412C121.968 31.6535 121.552 31.5781 121.163 31.4196C120.774 31.2612 120.421 31.0231 120.126 30.72C119.831 30.4169 119.6 30.0553 119.447 29.6576C119.295 29.2598 119.224 28.8343 119.238 28.4075ZM124.737 28.4075C124.72 27.9321 124.566 27.4723 124.295 27.0857C124.023 26.6991 123.646 26.4027 123.21 26.2337C122.774 26.0646 122.299 26.0304 121.844 26.1353C121.389 26.2401 120.975 26.4795 120.652 26.8233C120.33 27.1671 120.114 27.6002 120.032 28.0684C119.95 28.5367 120.005 29.0193 120.19 29.4559C120.375 29.8925 120.682 30.2638 121.073 30.5234C121.463 30.7829 121.921 30.9192 122.387 30.9152C122.705 30.9156 123.02 30.8501 123.312 30.7228C123.604 30.5955 123.868 30.4089 124.088 30.1745C124.308 29.9401 124.479 29.6626 124.59 29.3589C124.702 29.0551 124.752 28.7315 124.737 28.4075Z" fill="#007AC2"/>
<path d="M127.605 25.2837H131.077C132.285 25.2837 132.996 25.9217 132.996 27.0216C133.001 27.4402 132.858 27.8465 132.592 28.1658C132.327 28.4851 131.957 28.6959 131.552 28.7594L133.061 31.4872H132.242L130.71 28.7814H128.36V31.4872H127.605V25.2837ZM131.034 28.0555C131.81 28.0555 132.198 27.7255 132.198 27.0436C132.198 26.3616 131.81 26.0097 131.077 26.0097H128.36V28.0555H131.034Z" fill="#007AC2"/>
<path d="M19.0499 6.1996C18.4698 3.98932 17.5198 1.89318 16.2401 0C15.1199 1.67918 14.2469 3.51065 13.6479 5.43824C12.9063 7.97822 12.6843 10.6416 12.9953 13.2693C13.2155 14.9761 13.6416 16.65 14.2642 18.2544C14.7721 19.4865 15.4232 20.6547 16.2039 21.7348C17.8815 19.3045 18.9735 16.5186 19.3943 13.5956C19.7576 11.1284 19.622 8.61341 18.9955 6.1996H19.0499ZM16.1857 20.9372C15.5515 19.7159 15.2161 18.3616 15.2069 16.9854C15.2132 15.624 15.5557 14.2852 16.2039 13.088C16.7715 14.2538 17.0865 15.5263 17.1284 16.8223C17.1643 18.2513 16.8402 19.6664 16.1857 20.9372ZM18.778 11.6197C18.7639 12.7166 18.6425 13.8094 18.4154 14.8827C18.4888 13.3095 18.3732 11.7332 18.071 10.1876C17.7006 8.43845 17.0906 6.74873 16.2582 5.16633C15.4363 6.74696 14.8268 8.42924 14.4455 10.1695C14.1553 11.7174 14.0157 13.2897 14.0286 14.8645C13.7797 13.3613 13.6765 11.8376 13.7204 10.3145C13.7644 8.94017 13.9466 7.57373 14.2642 6.23585C14.6966 4.662 15.3046 3.14182 16.077 1.70398C16.8999 3.1114 17.5453 4.61535 17.9985 6.18147C18.5264 7.94698 18.807 9.77714 18.8324 11.6197H18.778Z" fill="#007AC2"/>
<path d="M17.4729 22.4599H11.944V26.1942C12.569 25.5668 13.4177 25.2134 14.3033 25.2117C15.1888 25.21 16.0388 25.5601 16.6662 26.1851C17.2936 26.8101 17.6471 27.6588 17.6488 28.5444C17.6505 29.4299 17.3003 30.2799 16.6753 30.9073C16.06 31.5265 15.3285 32.0181 14.5229 32.354C13.7172 32.69 12.8532 32.8637 11.9803 32.8651C10.7674 32.8646 9.57739 32.5344 8.53772 31.9096C7.49805 31.2849 6.64781 30.3893 6.07799 29.3185C5.50817 28.2478 5.24022 27.0422 5.3028 25.8309C5.36538 24.6196 5.75615 23.4481 6.43328 22.4418C6.67428 22.0909 6.94737 21.7632 7.24902 21.4629C7.86924 20.8403 8.60668 20.3467 9.41876 20.0106C10.2308 19.6746 11.1014 19.5028 11.9803 19.5052V10.5864C9.99992 10.5717 8.04721 11.0517 6.29943 11.9831C4.55166 12.9144 3.06415 14.2675 1.97194 15.9195C0.879732 17.5715 0.217411 19.4702 0.0450997 21.4431C-0.127211 23.416 0.195943 25.4007 0.985229 27.2171C1.77452 29.0334 3.00494 30.6239 4.56481 31.8441C6.12468 33.0643 7.96459 33.8756 9.91754 34.2043C11.8705 34.5331 13.8746 34.3689 15.748 33.7267C17.6214 33.0844 19.3048 31.9845 20.6452 30.5267V22.4599H17.4729Z" fill="#007AC2"/>
<path d="M27.6786 20.3571C27.6786 21.2091 27.5698 22.5143 25.8659 22.5143H23.8718C22.2041 22.5143 22.0591 21.2091 22.0591 20.3571V12.6711C22.0591 11.8191 22.1678 10.5139 23.8718 10.5139H25.8659C27.5336 10.5139 27.6786 11.8191 27.6786 12.6711V14.3569H25.2858V12.3992C25.2859 12.2965 25.2464 12.1977 25.1754 12.1234C25.1045 12.0491 25.0077 12.005 24.9051 12.0004C24.8535 12.0003 24.8025 12.0107 24.7551 12.031C24.7077 12.0512 24.6649 12.0809 24.6293 12.1182C24.5937 12.1555 24.566 12.1996 24.548 12.2479C24.53 12.2962 24.522 12.3477 24.5244 12.3992V20.5747C24.522 20.6262 24.53 20.6776 24.548 20.7259C24.566 20.7742 24.5937 20.8183 24.6293 20.8556C24.6649 20.8929 24.7077 20.9226 24.7551 20.9429C24.8025 20.9631 24.8535 20.9735 24.9051 20.9735C25.0077 20.9688 25.1045 20.9247 25.1754 20.8504C25.2464 20.7761 25.2859 20.6774 25.2858 20.5747V17.9462H24.9232V16.6229H27.6786V20.3571Z" fill="#007AC2"/>
<path d="M31.2863 18.0006L31.7032 12.0185H31.8482L32.247 18.0006H31.2863ZM28.6396 22.5143H30.9781L31.2137 19.2514H32.392L32.6096 22.4418H34.9661L33.7153 10.4414H29.8904L28.6396 22.5143Z" fill="#007AC2"/>
<path d="M35.7998 20.9916L38.0839 12.0185H36.0355V10.5139H40.5673V12.0185L38.2651 20.9735H40.6942V22.5143H35.7998V20.9916Z" fill="#007AC2"/>
<path d="M44.2288 16.931V12.0004H44.5189C44.7908 12.0004 44.972 12.236 44.972 12.5986V16.3328C44.972 16.7135 44.7908 16.931 44.5189 16.931H44.2288ZM41.8179 22.5143H44.2288V18.4356H45.5884C47.2742 18.4356 47.4011 17.1304 47.4011 16.2966V12.6711C47.4011 11.8191 47.2924 10.5139 45.5884 10.5139H41.8179V22.5143Z" fill="#007AC2"/>
<path d="M51.0087 16.5685V12.0004H51.3169C51.5707 12.0004 51.7701 12.236 51.7701 12.5986V15.9703C51.7701 16.351 51.5707 16.5685 51.3169 16.5685H51.0087ZM54.4711 22.5143L53.2747 17.8374C53.5614 17.7215 53.803 17.5157 53.9631 17.251C54.1232 16.9864 54.1933 16.677 54.1629 16.3691V12.7436C54.1629 11.8916 54.0541 10.5864 52.3502 10.5864H48.7065V22.5143H51.0994V18.0731H51.2806L52.0964 22.5143H54.4711Z" fill="#007AC2"/>
<path d="M58.9125 20.5747C58.9126 20.6774 58.8731 20.7761 58.8022 20.8504C58.7312 20.9247 58.6344 20.9688 58.5318 20.9735C58.4802 20.9735 58.4292 20.9631 58.3818 20.9429C58.3344 20.9226 58.2916 20.8929 58.256 20.8556C58.2204 20.8183 58.1928 20.7742 58.1747 20.7259C58.1567 20.6776 58.1487 20.6262 58.1511 20.5747V12.3992C58.1487 12.3477 58.1567 12.2962 58.1747 12.2479C58.1928 12.1996 58.2204 12.1555 58.256 12.1182C58.2916 12.0809 58.3344 12.0512 58.3818 12.031C58.4292 12.0107 58.4802 12.0003 58.5318 12.0004C58.6344 12.005 58.7312 12.0491 58.8022 12.1234C58.8731 12.1977 58.9126 12.2965 58.9125 12.3992V20.5747ZM55.7583 20.3571C55.7583 21.2091 55.8671 22.5143 57.571 22.5143H59.5832C61.2691 22.5143 61.3959 21.2091 61.3959 20.3571V12.6711C61.3959 11.8191 61.3053 10.5139 59.5832 10.5139H57.5892C55.9215 10.5139 55.7764 11.8191 55.7764 12.6711L55.7583 20.3571Z" fill="#007AC2"/>
<path d="M68.8281 10.5139H71.9461V22.5143H69.5532V14.9914H69.4626L68.2299 22.5143H66.3084L65.0757 14.9914H65.0032V22.5143H62.5923V10.5139H65.7102L67.2692 18.9432L68.8281 10.5139Z" fill="#007AC2"/>
<path d="M71.8916 26.1579H22.041V34.4059H71.8916V26.1579Z" fill="#007AC2"/>
<path d="M27.2434 27.7169V28.4783H25.5213V29.6384H27.0984V30.4179H25.5213V31.9406H27.2434V32.702H24.5605V27.7169H27.2434Z" fill="white"/>
<path d="M33.3887 27.7169L34.0413 29.3484L34.7301 27.7169H35.7996L34.5488 30.1278L35.8359 32.7019H34.7845L34.0413 30.8892L33.2799 32.7019H32.2285L33.4431 30.1278L32.2829 27.6806L33.3887 27.7169Z" fill="white"/>
<path d="M41.8904 32.7382H40.9478V27.7169H42.7605C42.9463 27.7186 43.1298 27.7589 43.2992 27.8352C43.4687 27.9115 43.6204 28.0222 43.7449 28.1602C43.8693 28.2983 43.9637 28.4607 44.022 28.6371C44.0803 28.8136 44.1014 29.0002 44.0838 29.1852C44.1039 29.3726 44.0849 29.562 44.028 29.7416C43.971 29.9212 43.8773 30.087 43.7529 30.2284C43.6285 30.3699 43.476 30.484 43.3052 30.5634C43.1343 30.6428 42.9489 30.6859 42.7605 30.6898H41.9085L41.8904 32.7382ZM41.8904 29.9466H42.3798C42.8693 29.9466 43.1049 29.6747 43.1049 29.1852C43.1204 29.0865 43.1123 28.9855 43.0814 28.8904C43.0504 28.7954 42.9974 28.709 42.9268 28.6383C42.8561 28.5676 42.7697 28.5146 42.6746 28.4837C42.5796 28.4527 42.4786 28.4447 42.3798 28.4601H41.8904V29.9466Z" fill="white"/>
<path d="M50.9725 27.6263C51.9332 27.6263 52.5858 28.0613 52.5858 29.3484V31.1611C52.5858 32.4482 51.9332 32.8651 50.9725 32.8651C50.7443 32.8931 50.5128 32.8677 50.2962 32.7911C50.0795 32.7145 49.8835 32.5887 49.7236 32.4236C49.5638 32.2585 49.4444 32.0585 49.3749 31.8395C49.3053 31.6204 49.2875 31.3882 49.3229 31.1611V29.3484C49.2882 29.1206 49.3063 28.8879 49.3758 28.6682C49.4454 28.4485 49.5644 28.2477 49.7238 28.0813C49.8832 27.9149 50.0787 27.7873 50.2952 27.7084C50.5117 27.6296 50.7434 27.6014 50.9725 27.6263ZM50.3199 29.2215V31.288C50.3199 31.8137 50.5193 32.0856 50.9725 32.0856C51.4256 32.0856 51.6069 31.8137 51.6069 31.288V29.2396C51.6069 28.6958 51.3894 28.3876 50.9725 28.3876C50.5555 28.3876 50.3199 28.6958 50.3199 29.2215Z" fill="white"/>
<path d="M58.8397 32.7382H57.8789V27.7169H59.8729C60.0418 27.7144 60.2094 27.7461 60.3657 27.8101C60.522 27.8741 60.6637 27.9691 60.7823 28.0894C60.9009 28.2097 60.9938 28.3527 61.0556 28.5099C61.1174 28.6671 61.1468 28.8351 61.1418 29.0039C61.1418 29.7653 60.8156 30.146 60.3624 30.2004C60.574 30.2319 60.7654 30.3436 60.897 30.5123C61.0286 30.681 61.0903 30.8938 61.0693 31.1067V31.7412C61.0693 32.1944 61.0693 32.5932 61.2869 32.5932V32.7382H60.3261C60.1504 32.5049 60.0723 32.2123 60.1086 31.9225V31.3424C60.1086 30.9436 59.9817 30.6173 59.5285 30.6173H58.8397V32.7382ZM58.8397 29.8922H59.4741C59.8185 29.8922 60.1448 29.7109 60.1448 29.149C60.1448 28.587 59.8911 28.4601 59.456 28.4601H58.8397V29.8922Z" fill="white"/>
<path d="M68.3387 32.7382H67.3961V28.4783H66.1997V27.7169H69.5352V28.4783H68.3387V32.7382Z" fill="white"/>
</svg>
