<svg width="69" height="33" viewBox="0 0 69 33" fill="none" xmlns="http://www.w3.org/2000/svg">
<path d="M48.8602 28.4519C50.6502 27.0708 51.2021 26.0417 51.2021 24.8501C51.2155 23.2523 49.9369 22.142 47.8238 22.142C46.2895 22.0743 44.809 22.6972 43.7861 23.8481L45.0513 24.8637C45.6704 24.1731 46.5452 23.7804 47.4739 23.7669C48.6583 23.7669 49.2236 24.3762 49.2101 25.1209C49.1967 25.8657 48.8871 26.4885 47.5412 27.4906L42.7094 31.309L42.4537 32.5818H49.9369L50.2868 30.9705H45.6031L48.8602 28.4519Z" fill="#00A7E2"/>
<path d="M65.4552 22.142C62.2923 22.142 60.1658 25.2834 60.1658 28.9123C60.1389 29.1154 60.1389 29.3321 60.1523 29.5352C60.2735 31.3903 61.8616 32.7849 63.6921 32.6766C66.828 32.6766 68.968 29.6029 68.968 25.974C68.9949 25.7709 69.0084 25.5542 68.9949 25.3376C68.9007 23.4825 67.3126 22.0472 65.4552 22.142ZM63.867 31.0653C62.723 31.0653 62.0501 30.3341 62.0501 28.8582C62.077 26.7187 63.221 23.8481 65.2802 23.8481C66.3973 23.8481 67.0568 24.5793 67.0568 26.0552C67.0299 28.2082 65.8994 31.0653 63.867 31.0653Z" fill="#00A7E2"/>
<path d="M52.3326 27.9238H54.9168C56.5588 27.9238 57.1913 28.4248 57.1913 29.2779C57.1779 30.4018 56.2761 31.0517 54.688 31.0517C53.6516 31.0923 52.6556 30.7267 51.875 30.0362L50.9194 31.5256C51.9289 32.3787 53.2344 32.8255 54.5534 32.7443C57.2317 32.7443 59.0622 31.2819 59.1025 29.0883C59.116 27.3822 57.9047 26.3125 55.2936 26.3125H54.5265L55.2667 23.9429L59.6409 23.9564L59.9774 22.3586H53.9881L52.3326 27.9238Z" fill="#00A7E2"/>
<path d="M17.2314 0.382195L11.4171 9.42734H19.1291L17.8505 8.96696L18.9541 7.11189L19.479 9.72523L20.0309 12.6365L0.272949 16.2383H7.00248L4.22991 20.5577H10.9594L13.5301 16.2383H20.8249L21.7132 20.5577H27.7698L23.5841 0.382195H17.2314Z" fill="#00A7E2"/>
<path d="M45.0244 16.7664C45.0513 16.9695 45.0917 17.1726 45.1455 17.3621C45.2128 17.7277 45.3608 18.0663 45.5762 18.3506C46.0876 18.811 46.0203 18.987 45.8992 19.6234C45.8184 20.0297 46.3837 20.3817 46.3972 20.3953H52.3326L53.2209 16.0758H59.0622C65.0649 16.0758 67.7298 13.3677 68.7527 8.03265C69.2641 5.66304 69.2507 0.382195 61.404 0.382195H46.7875C46.8413 0.449898 46.8817 0.517601 46.9221 0.585304C46.9759 0.747792 47.0028 0.92382 47.0298 1.09985C47.0298 1.3842 47.1374 1.43836 47.0298 1.65501C47.0298 2.10185 46.8817 2.04769 46.7606 2.30496C46.6529 2.50807 46.5721 2.72472 46.5049 2.95491C46.5049 2.95491 46.6529 2.95491 46.6529 3.10386C46.5991 3.34759 46.5049 3.59132 46.3703 3.79443C46.2895 3.94338 46.1818 4.09233 46.0472 4.20065C45.8319 4.32252 45.7646 4.20065 45.7377 4.30898C45.7108 4.4173 45.4954 4.76936 45.4685 4.87768C45.4551 5.01309 45.4551 5.16204 45.4685 5.29744C45.8857 5.47347 46.9759 5.85261 47.2451 6.31299L43.5439 7.51811L45.132 7.32854C45.8319 7.2473 46.9355 7.12543 47.2989 7.12543C47.6085 7.13897 47.9181 7.17959 48.2142 7.23376C48.6583 7.23376 49.0352 7.315 49.5601 7.40978C49.8158 7.45041 50.0446 7.55873 50.2465 7.72122L50.3541 7.816L51.9962 7.70768H52.3192C53.6382 7.47749 54.8764 6.93586 55.9262 6.10988C56.9491 5.48701 58.1066 5.12142 59.291 5.02663C60.3139 4.90477 61.3367 5.17558 62.1577 5.78491C62.8845 6.43486 63.1268 7.46395 62.7769 8.37117C62.6826 9.25131 62.1847 10.0367 61.431 10.4835C60.6234 10.971 59.6813 11.1741 58.7391 11.0522C57.3259 10.8085 55.98 10.2533 54.7956 9.42734C54.1496 9.0482 53.4497 8.80447 52.7095 8.72322C52.6287 8.72322 52.3999 8.72322 52.225 8.72322L51.0809 8.80447C51.0944 8.91279 51.0944 9.02112 51.0809 9.12944C51.0809 9.33255 50.9464 9.44088 50.8252 9.42734C50.6099 9.34609 50.4214 9.19715 50.3138 8.99404V9.10236C50.3138 9.10236 50.3138 9.34609 50.1523 9.37317C50.0177 9.40026 49.8696 9.37318 49.7619 9.27839C49.735 9.25131 49.6947 9.23777 49.6677 9.26485L49.6543 9.27839C49.6543 9.4138 49.6543 9.49504 49.3447 9.44088C49.0352 9.38671 49.2101 9.44088 49.1025 9.50858C48.9948 9.57628 48.7121 9.42734 48.4968 9.33255C48.2815 9.23777 48.3622 9.03466 48.1603 8.99404H47.9988C48.1334 9.46796 48.2411 9.95542 48.2949 10.4429H48.0796C48.0796 10.7137 48.2545 11.2282 48.2949 11.6074C48.3487 12.0136 48.3487 12.4063 48.2949 12.8125C48.3891 12.799 48.4699 12.7583 48.5506 12.7177C48.5506 12.5823 48.5775 12.4469 48.6179 12.325V12.2438C48.6179 12.2438 48.6179 12.2438 48.6179 12.1761V11.8917L48.9006 11.3636C48.9006 11.3636 48.9006 11.2282 49.089 11.2553C49.1967 11.323 49.264 11.4449 49.2774 11.5668C49.264 11.7292 49.2236 11.8782 49.1428 12.0136L49.264 12.2032C49.412 12.2438 49.587 12.2167 49.7081 12.1219L49.8831 11.9865C49.8831 11.8376 49.9638 11.648 50.3138 11.7157C50.4349 11.7157 50.7848 12.0407 50.3138 12.325C50.7848 12.325 50.731 12.8667 50.408 13.0427C50.408 13.0427 50.408 13.0427 50.408 13.1104C50.4753 13.2052 50.5157 13.3135 50.5157 13.4218C50.5157 13.4218 50.5157 13.5708 50.0581 13.7333C50.0581 13.7333 49.9235 13.7333 49.9773 13.8822L50.1657 13.9499C50.1657 13.9499 50.583 14.0447 50.5022 14.2749C50.5022 14.2749 50.4349 14.4645 50.0446 14.3426C49.91 14.3561 49.7889 14.3561 49.6543 14.3426C49.412 14.4238 49.1563 14.4915 48.9006 14.5322C48.8198 14.5457 48.7525 14.5863 48.6987 14.654C48.3353 15.0196 47.8642 15.2634 47.3528 15.3581C46.9759 15.3581 46.9221 15.0602 46.6394 14.7759C46.1818 14.2072 45.9261 13.5031 45.9261 12.7719H45.8454C45.8723 13.4895 45.6704 14.1936 45.2397 14.7623C44.8225 15.0873 44.3379 15.304 43.813 15.3852C41.1212 16.0216 38.2275 17.6871 38.5505 18.0933C38.6851 18.2423 38.9947 17.9444 39.5196 17.7007C41.2154 16.9695 43.0593 16.6174 44.9032 16.6445C44.9705 16.658 45.0109 16.6987 45.0244 16.7664Z" fill="#00A7E2"/>
<path d="M39.6138 14.2072C38.2544 14.6946 41.202 12.8531 43.4362 12.325C45.0243 11.9324 42.2652 11.8511 39.7349 12.975C39.1831 13.1916 38.6582 13.4489 38.1602 13.7603C38.3756 13.4218 38.4832 13.0156 38.4698 12.6094C38.4159 12.3115 38.4429 12.0136 38.5774 11.7428C38.6717 11.5668 38.5774 11.0658 38.712 10.8085L40.0579 11.2282L45.4416 9.4138L40.3675 10.1721L38.6178 8.65553C38.2813 8.15452 38.1871 7.53165 38.3621 6.94941C38.6313 6.54319 38.9274 6.17759 39.2773 5.83907C39.708 5.63596 40.1656 5.47348 40.6232 5.35161C41.027 5.1485 41.35 5.28391 41.6327 5.22975C41.9422 5.1485 42.2518 5.05372 42.5613 4.94539C42.5613 4.94539 42.5613 4.67458 42.5613 4.59334C42.4806 4.26836 42.4537 3.94339 42.4537 3.60487C42.4537 3.29344 42.7632 3.00908 42.7767 2.80597C42.7901 2.60286 42.6421 2.37267 42.7767 2.16956C42.8978 1.93937 42.992 1.6821 43.0459 1.42483C43.0459 1.1811 42.8574 1.09985 42.9651 0.856121L43.167 0.449902H24.58L25.6433 5.55472H32.9381L32.1306 9.4815H37.6353L26.4105 11.5261H31.7133L29.856 20.5577H35.5895L35.8722 20.2463C36.1279 19.989 35.8722 19.3255 35.9799 19.0818C36.0875 18.8381 36.6124 18.5673 36.7066 18.2423C36.8008 17.9173 35.9529 17.8767 36.3702 17.4028C36.7874 16.9289 37.0162 17.2132 36.9893 16.9289C36.9624 16.6445 37.3931 16.1435 37.5949 15.9945C38.7659 15.155 40.0579 14.4915 41.4173 14.0312C42.6017 13.6791 40.9732 13.7197 39.6138 14.2072Z" fill="#00A7E2"/>
<path d="M55.4013 8.77738C55.4147 8.7503 55.4282 8.70968 55.4147 8.6826C55.4282 8.28992 55.4955 7.91078 55.6166 7.53164C55.657 7.4504 55.6301 7.35562 55.5628 7.31499C55.509 7.28791 55.4417 7.28791 55.3878 7.31499C54.836 7.63997 54.2438 7.87016 53.6247 8.03265C53.5708 8.04619 53.517 8.10035 53.517 8.15451C53.517 8.23576 53.517 8.27638 53.5978 8.27638C54.1361 8.41179 54.6476 8.61489 55.1456 8.85863V8.87217C55.2398 8.91279 55.3474 8.87217 55.4013 8.77738Z" fill="#00A7E2"/>
<path d="M66.6396 20.5442L66.8011 19.7047H67.1376V19.5016H66.2493V19.7047H66.5723L66.3973 20.5442H66.6396Z" fill="#00A7E2"/>
<path d="M68.2681 20.5442L68.4835 19.5016H68.2951L67.7971 20.1515L67.5414 19.5016H67.3395L67.1376 20.5442H67.326L67.4606 19.9213L67.6625 20.4359H67.7702L68.1739 19.9213L68.0528 20.5442H68.2681Z" fill="#00A7E2"/>
</svg>
