<svg width="44" height="42" viewBox="0 0 44 42" fill="none" xmlns="http://www.w3.org/2000/svg">
<path fill-rule="evenodd" clip-rule="evenodd" d="M0.0622559 20.0116C0.0622559 20.0116 3.49104 11.3462 10.972 10.7695C18.453 10.1928 43.826 20.448 43.826 20.448V0H0.186939L0.0622559 20.0116Z" fill="#D83942"/>
<path fill-rule="evenodd" clip-rule="evenodd" d="M0.06234 22.5832C0.06234 22.5832 2.80537 15.1022 10.4266 14.0424C18.0479 12.9826 43.639 21.1805 43.639 21.1805V41.3168L0 41.4415L0.06234 22.5832Z" fill="#263C84"/>
<path d="M9.56941 6.62381C10.224 6.51471 10.9877 6.24976 11.1279 5.57959C11.2385 5.06637 11.1546 4.5304 10.8926 4.07547C10.6306 3.62055 10.2091 3.27904 9.70968 3.1171C9.24715 2.97801 8.75393 2.97801 8.29141 3.1171C7.89422 3.22676 7.52272 3.41409 7.19839 3.66823C6.87406 3.92238 6.60333 4.23831 6.40188 4.59774C6.20042 4.95718 6.07222 5.353 6.0247 5.76229C5.97718 6.17159 6.01129 6.58624 6.12504 6.98228C6.31051 7.60614 6.69332 8.15301 7.21602 8.54081C6.67053 7.46542 7.80826 6.88876 9.56941 6.62381ZM12.1722 5.28347C11.969 4.54164 11.4893 3.90583 10.8318 3.50674C11.1226 3.79588 11.3395 4.15074 11.4643 4.54135C11.5891 4.93197 11.618 5.34687 11.5488 5.75103C11.3617 6.5303 10.9098 6.96669 9.72527 7.15372C8.54078 7.34074 7.80826 7.60569 7.57448 8.08884C7.53529 8.16946 7.51267 8.25712 7.50797 8.34664C7.50326 8.43615 7.51655 8.5257 7.54707 8.60999C7.57759 8.69428 7.6247 8.77158 7.68563 8.83733C7.74656 8.90309 7.82005 8.95595 7.90177 8.99279C8.2224 9.15591 8.57272 9.25243 8.93164 9.27653C9.29057 9.30064 9.65066 9.25183 9.99021 9.13306C10.3888 9.02507 10.762 8.83895 11.088 8.58552C11.4141 8.33209 11.6865 8.0164 11.8895 7.65678C12.0925 7.29717 12.2221 6.9008 12.2706 6.4907C12.3191 6.0806 12.2856 5.66495 12.1722 5.26788V5.28347Z" fill="white"/>
<path fill-rule="evenodd" clip-rule="evenodd" d="M7.44971 24.1417C7.45085 24.0914 7.43843 24.0417 7.41376 23.9978C7.38908 23.9539 7.35304 23.9175 7.30944 23.8924C7.21489 23.8196 7.10978 23.7618 6.99774 23.7209L6.57693 23.5651C6.42565 23.5233 6.28311 23.4547 6.15612 23.3625C6.01044 23.2803 5.88991 23.16 5.80752 23.0144C5.72514 22.8689 5.68401 22.7036 5.68856 22.5364C5.68636 22.3757 5.71823 22.2164 5.78207 22.0689C5.84761 21.9432 5.93771 21.8319 6.04703 21.7416C6.16668 21.6468 6.30464 21.5778 6.45224 21.539C6.62808 21.5152 6.80631 21.5152 6.98215 21.539C7.19448 21.5152 7.40881 21.5152 7.62115 21.539C7.78963 21.5642 7.95285 21.6168 8.1043 21.6948L7.87051 22.3338H7.71466H7.49647L7.26268 22.2091H6.98215C6.84586 22.2008 6.71018 22.2334 6.59251 22.3027C6.54772 22.3264 6.51069 22.3626 6.48582 22.4068C6.46096 22.451 6.44931 22.5014 6.45224 22.552C6.45265 22.6021 6.46574 22.6512 6.49026 22.6948C6.51479 22.7384 6.54997 22.7751 6.59251 22.8014C6.69073 22.8683 6.79511 22.9257 6.90422 22.9728L7.32503 23.1287C7.47367 23.1772 7.61518 23.2454 7.74583 23.3313C7.87956 23.4058 7.99218 23.5131 8.07312 23.643C8.16995 23.7851 8.21907 23.9543 8.21339 24.1261C8.22149 24.3041 8.18393 24.4811 8.1043 24.6405C8.04289 24.7819 7.94632 24.9053 7.82376 24.9989C7.69283 25.0942 7.54461 25.163 7.38737 25.2015C7.20116 25.2262 7.01251 25.2262 6.8263 25.2015H6.42107H6.09378H5.81324L5.62622 25.1236L5.87559 24.4846C5.92725 24.4923 5.97977 24.4923 6.03144 24.4846L6.24963 24.5625H6.499H6.77954C6.95584 24.5706 7.13167 24.5386 7.29386 24.469C7.35072 24.4375 7.39631 24.389 7.42425 24.3304C7.4522 24.2717 7.4611 24.2057 7.44971 24.1417Z" fill="white"/>
<path fill-rule="evenodd" clip-rule="evenodd" d="M8.33813 22.443H8.82128V21.8819H9.53821V22.443H10.2396V23.0352H9.53821V23.9703C9.50711 24.1194 9.50711 24.2733 9.53821 24.4223C9.55837 24.47 9.5938 24.5097 9.63893 24.535C9.68406 24.5604 9.73634 24.5701 9.78758 24.5626H9.9746H10.146L10.3019 25.1081L9.92784 25.2328H9.52263C9.41752 25.2436 9.31132 25.231 9.21163 25.196C9.11193 25.161 9.02122 25.1043 8.94597 25.0301C8.80558 24.8542 8.73857 24.6309 8.75894 24.4067V23.0664H8.35372L8.33813 22.443Z" fill="white"/>
<path fill-rule="evenodd" clip-rule="evenodd" d="M10.3798 24.734C10.3794 24.6254 10.4182 24.5203 10.4889 24.4379C10.528 24.4 10.5745 24.3708 10.6255 24.352C10.6765 24.3332 10.7308 24.3253 10.7851 24.3288C10.8369 24.3255 10.8889 24.3336 10.9373 24.3525C10.9858 24.3713 11.0295 24.4004 11.0656 24.4379C11.1369 24.5201 11.1761 24.6252 11.1761 24.734C11.1761 24.8428 11.1369 24.9479 11.0656 25.0301C10.9887 25.0998 10.8888 25.1387 10.7851 25.1392C10.7306 25.144 10.6759 25.1368 10.6245 25.1181C10.5732 25.0994 10.5266 25.0697 10.488 25.0311C10.4494 24.9925 10.4197 24.9459 10.401 24.8945C10.3823 24.8432 10.3751 24.7884 10.3798 24.734Z" fill="white"/>
<path fill-rule="evenodd" clip-rule="evenodd" d="M13.1385 22.2092H12.9359H12.7801V23.269H13.3879C13.4771 23.2571 13.5623 23.2252 13.6373 23.1755C13.7134 23.1354 13.7778 23.0763 13.8243 23.004C13.8514 22.9019 13.8514 22.7944 13.8243 22.6923C13.8438 22.6051 13.8438 22.5146 13.8243 22.4274C13.7774 22.3593 13.7127 22.3054 13.6373 22.2715C13.5926 22.2464 13.5456 22.2255 13.497 22.2092H13.1385ZM12.032 21.6325H12.5307H13.0762C13.2681 21.6171 13.4609 21.6171 13.6529 21.6325C13.8319 21.6637 14.0052 21.7215 14.1672 21.8039C14.3211 21.8955 14.4496 22.0241 14.5412 22.178C14.6499 22.3617 14.704 22.5725 14.6971 22.7858C14.6999 22.985 14.6573 23.1823 14.5724 23.3625C14.4877 23.5114 14.3705 23.6393 14.2295 23.7365C14.086 23.8431 13.9212 23.9175 13.7464 23.9547C13.5688 24.0047 13.3854 24.0309 13.2009 24.0327H12.7801V25.2483H12.032V21.6325Z" fill="white"/>
<path fill-rule="evenodd" clip-rule="evenodd" d="M16.1776 22.9261C16.0943 22.9202 16.0108 22.9326 15.9328 22.9622C15.8547 22.9918 15.7841 23.0379 15.7256 23.0975C15.6144 23.2168 15.5483 23.3711 15.5386 23.5339H16.614C16.6393 23.3818 16.6059 23.2259 16.5205 23.0975C16.4801 23.0447 16.4283 23.0018 16.3689 22.9721C16.3095 22.9424 16.244 22.9267 16.1776 22.9261ZM17.2374 24.8742C17.0976 24.9773 16.9386 25.0514 16.7698 25.0924C16.5691 25.1615 16.3587 25.1983 16.1464 25.2015C15.9616 25.2159 15.7758 25.1883 15.6031 25.1208C15.4304 25.0534 15.2752 24.9478 15.149 24.8119C14.9208 24.519 14.8048 24.1542 14.8217 23.7833C14.8082 23.5917 14.833 23.3993 14.8945 23.2174C14.9561 23.0355 15.0532 22.8676 15.1801 22.7235C15.3172 22.6001 15.4771 22.5049 15.651 22.4434C15.8248 22.3819 16.0091 22.3552 16.1932 22.365C16.333 22.3497 16.4741 22.3497 16.614 22.365C16.744 22.4048 16.8655 22.4682 16.9725 22.552C17.0886 22.6353 17.1801 22.7484 17.2374 22.8793C17.3025 23.0483 17.3342 23.2282 17.3309 23.4092C17.3386 23.487 17.3386 23.5653 17.3309 23.643C17.3377 23.7312 17.3377 23.8198 17.3309 23.908H15.523C15.5211 24.0964 15.5876 24.2791 15.71 24.4223C15.8746 24.5485 16.0799 24.6096 16.2867 24.5937C16.4258 24.6188 16.5684 24.6188 16.7075 24.5937L17.0036 24.4534L17.2374 24.8742Z" fill="white"/>
<path fill-rule="evenodd" clip-rule="evenodd" d="M19.5908 24.9678L19.1389 25.1236H18.7336C18.6285 25.1344 18.5223 25.1219 18.4226 25.0868C18.323 25.0518 18.2322 24.9952 18.157 24.921C18.0221 24.7428 17.9608 24.5197 17.9855 24.2976V22.9572H17.5803V22.365H17.9855V21.8039H18.6869V22.365H19.3882V22.9572H18.6869V23.8924C18.6558 24.0414 18.6558 24.1953 18.6869 24.3443C18.707 24.392 18.7425 24.4317 18.7876 24.4571C18.8327 24.4825 18.885 24.4921 18.9363 24.4846H19.1233H19.2635C19.3349 24.6682 19.4468 24.8334 19.5908 24.9678Z" fill="white"/>
<path fill-rule="evenodd" clip-rule="evenodd" d="M21.087 22.9261C21.0013 22.919 20.9151 22.9307 20.8343 22.9603C20.7536 22.9899 20.6802 23.0367 20.6194 23.0975C20.5188 23.2219 20.459 23.3743 20.448 23.5339H21.5857C21.6065 23.3798 21.5675 23.2237 21.4766 23.0975C21.434 23.0356 21.375 22.9868 21.3061 22.9565C21.2373 22.9262 21.1615 22.9157 21.087 22.9261ZM22.1468 24.8742C22.0042 24.9724 21.8461 25.0462 21.6792 25.0924C21.4732 25.1616 21.2576 25.1984 21.0402 25.2015C20.8556 25.2137 20.6705 25.1851 20.4982 25.1177C20.3258 25.0504 20.1703 24.946 20.0428 24.8119C19.8166 24.5127 19.7059 24.1419 19.7311 23.7677C19.714 23.5758 19.737 23.3825 19.7987 23.2C19.8604 23.0176 19.9595 22.85 20.0895 22.7079C20.2237 22.5849 20.381 22.4899 20.5522 22.4284C20.7235 22.3669 20.9053 22.34 21.087 22.3494C21.2268 22.3333 21.368 22.3333 21.5078 22.3494C21.6411 22.3927 21.7672 22.4558 21.8819 22.5364C21.9934 22.6207 22.0796 22.7339 22.1312 22.8637C22.2091 23.0292 22.2465 23.2109 22.2403 23.3936C22.248 23.4714 22.248 23.5497 22.2403 23.6274C22.2465 23.7156 22.2465 23.8042 22.2403 23.8924H20.4168C20.4149 23.9872 20.4318 24.0816 20.4666 24.1698C20.5013 24.2581 20.5533 24.3386 20.6194 24.4067C20.777 24.5347 20.9783 24.5963 21.1805 24.5781C21.325 24.6017 21.4724 24.6017 21.6169 24.5781L21.8974 24.4379L22.1468 24.8742Z" fill="white"/>
<path fill-rule="evenodd" clip-rule="evenodd" d="M24.0327 22.3806C24.175 22.3942 24.3158 22.4203 24.4535 22.4585C24.324 22.6301 24.2481 22.8362 24.2353 23.0508C24.1372 23.0358 24.0373 23.0358 23.9392 23.0508C23.8131 23.0459 23.6883 23.0784 23.5807 23.1443C23.4911 23.2164 23.4258 23.3143 23.3937 23.4248V25.1236H22.6768V22.4429H23.2378V22.817C23.2951 22.6861 23.3866 22.573 23.5028 22.4897C23.5795 22.4373 23.6658 22.4007 23.7568 22.382C23.8478 22.3633 23.9415 22.3628 24.0327 22.3806Z" fill="white"/>
<path fill-rule="evenodd" clip-rule="evenodd" d="M24.7184 24.4223H24.8898H25.0924H25.3106H25.5444C25.6316 24.4418 25.7221 24.4418 25.8094 24.4223C25.8425 24.3998 25.8697 24.3696 25.8887 24.3343C25.9077 24.2991 25.9179 24.2597 25.9185 24.2197C25.9198 24.1772 25.9066 24.1355 25.8811 24.1015C25.8556 24.0676 25.8193 24.0433 25.7782 24.0327C25.6798 23.9821 25.5749 23.9454 25.4665 23.9236L25.1704 23.8145C25.0685 23.7868 24.9731 23.7391 24.8898 23.6742C24.8013 23.6063 24.7271 23.5216 24.6716 23.4248C24.6117 23.3041 24.5848 23.1697 24.5937 23.0352C24.5865 22.923 24.6037 22.8106 24.644 22.7057C24.6844 22.6008 24.747 22.5058 24.8275 22.4274C25.0332 22.2723 25.2872 22.195 25.5444 22.2092C25.8849 22.2005 26.2238 22.2587 26.5419 22.3806L26.386 22.9261L26.0587 22.817C25.9189 22.8017 25.7778 22.8017 25.6379 22.817C25.5506 22.798 25.4603 22.798 25.373 22.817C25.3502 22.8773 25.3502 22.9437 25.373 23.004C25.3748 23.0436 25.3874 23.0819 25.4094 23.1148C25.4313 23.1478 25.4619 23.1741 25.4976 23.191L25.8249 23.3001L26.1211 23.3937C26.223 23.4213 26.3183 23.469 26.4016 23.5339C26.4936 23.598 26.5685 23.6836 26.6198 23.7833C26.6959 23.9522 26.7172 24.1406 26.6809 24.3223C26.6446 24.5039 26.5524 24.6697 26.4172 24.7963C26.1837 24.9818 25.8882 25.071 25.5912 25.0457C25.4097 25.0616 25.2272 25.0616 25.0457 25.0457C24.8976 25.0181 24.7552 24.9654 24.6249 24.8898L24.7184 24.4223Z" fill="white"/>
<path fill-rule="evenodd" clip-rule="evenodd" d="M27.6172 24.5158H27.8198H28.0692C28.5056 24.5158 28.7238 24.2197 28.7238 23.643C28.7375 23.4459 28.6884 23.2494 28.5835 23.0819C28.5369 23.0195 28.4754 22.9696 28.4046 22.937C28.3339 22.9043 28.256 22.8898 28.1783 22.8949C28.0496 22.8878 27.9227 22.9265 27.8198 23.004C27.7197 23.0827 27.6485 23.1923 27.6172 23.3157V24.5158ZM26.9003 21.5546H27.6172V22.6767C27.7038 22.5819 27.8102 22.5074 27.9289 22.4585C28.0611 22.3998 28.2053 22.3731 28.3497 22.3806C28.4962 22.3701 28.6431 22.3943 28.7784 22.4512C28.9138 22.508 29.0339 22.596 29.129 22.7079C29.3335 22.9986 29.4325 23.3506 29.4095 23.7053C29.4162 23.9184 29.379 24.1306 29.3004 24.3288C29.2451 24.5046 29.1489 24.6648 29.0199 24.7963C28.8966 24.9243 28.748 25.0252 28.5835 25.0924C28.3929 25.1575 28.1926 25.1892 27.9912 25.186C27.7686 25.212 27.5437 25.212 27.3211 25.186C27.1615 25.1678 27.0046 25.1312 26.8535 25.0769L26.9003 21.5546Z" fill="white"/>
<path fill-rule="evenodd" clip-rule="evenodd" d="M30.641 22.4429V24.0015C30.6285 24.168 30.6607 24.3348 30.7345 24.4846C30.7716 24.5399 30.8233 24.5837 30.8838 24.6112C30.9444 24.6387 31.0114 24.6489 31.0774 24.6405C31.213 24.6455 31.3459 24.6012 31.4514 24.5158C31.5537 24.4428 31.6302 24.339 31.6696 24.2197V22.4429H32.3865V24.2976C32.3788 24.443 32.3788 24.5886 32.3865 24.734C32.3778 24.8637 32.3778 24.9939 32.3865 25.1236H31.8878L31.7475 24.7028C31.6628 24.8542 31.5317 24.9744 31.3735 25.0457C31.2122 25.1529 31.0216 25.2073 30.828 25.2016C30.6987 25.2191 30.5677 25.2191 30.4384 25.2016C30.3279 25.1695 30.23 25.1042 30.1578 25.0145C30.0846 24.9112 30.0317 24.7948 30.002 24.6717C29.9753 24.496 29.9753 24.3174 30.002 24.1418V22.4429H30.641Z" fill="white"/>
<path fill-rule="evenodd" clip-rule="evenodd" d="M35.6438 24.5002C35.7749 24.5063 35.905 24.4738 36.0178 24.4067C36.1079 24.3607 36.1835 24.2905 36.236 24.2041V23.0508C36.0831 22.988 35.9178 22.9613 35.7529 22.9728C35.6671 22.9646 35.5805 22.9758 35.4996 23.0055C35.4187 23.0351 35.3455 23.0826 35.2853 23.1443C35.1582 23.3203 35.0975 23.5356 35.1139 23.7521C35.0979 23.9544 35.147 24.1564 35.2541 24.3288C35.3031 24.3835 35.3632 24.4271 35.4304 24.4567C35.4976 24.4862 35.5703 24.5011 35.6438 24.5002ZM36.9373 25.0145C36.9506 25.1751 36.9282 25.3367 36.8716 25.4876C36.815 25.6385 36.7257 25.775 36.6101 25.8873C36.3366 26.0909 35.9995 26.1903 35.6593 26.1678C35.4525 26.1966 35.2427 26.1966 35.0359 26.1678C34.9066 26.1497 34.7807 26.1129 34.6619 26.0587C34.6993 25.9515 34.7306 25.8422 34.7554 25.7314C34.7642 25.6746 34.7642 25.6168 34.7554 25.56V25.4821L35.0515 25.6068C35.1911 25.6258 35.3327 25.6258 35.4723 25.6068C35.5806 25.6254 35.6913 25.6254 35.7996 25.6068C35.8833 25.5884 35.9595 25.5449 36.0178 25.4821C36.0768 25.4333 36.1202 25.3683 36.1425 25.295C36.151 25.2121 36.151 25.1286 36.1425 25.0457V24.8431C36.0789 24.9478 35.9791 25.0255 35.862 25.0613C35.7172 25.0817 35.5703 25.0817 35.4256 25.0613C35.276 25.0705 35.1263 25.0474 34.9864 24.9936C34.8466 24.9399 34.7199 24.8566 34.6151 24.7496C34.4135 24.4698 34.3194 24.1267 34.3502 23.7833C34.325 23.5924 34.3439 23.3984 34.4052 23.2159C34.4666 23.0335 34.5688 22.8675 34.7042 22.7306C34.8395 22.5938 35.0044 22.4897 35.1862 22.4263C35.3679 22.3629 35.5618 22.342 35.7529 22.365C35.9707 22.3472 36.1896 22.3472 36.4074 22.365L36.8906 22.4741L36.9373 25.0145Z" fill="white"/>
<path fill-rule="evenodd" clip-rule="evenodd" d="M34.1165 22.3806C34.2815 22.386 34.4445 22.4176 34.5996 22.4741C34.4461 22.6309 34.3477 22.8333 34.3191 23.0508C34.221 23.0345 34.121 23.0345 34.023 23.0508C33.8969 23.0459 33.7721 23.0784 33.6645 23.1443C33.5749 23.2164 33.5096 23.3144 33.4775 23.4248V25.1236H32.7761V22.443H33.3216L33.3995 22.817C33.4624 22.685 33.5592 22.5721 33.6801 22.4897C33.8069 22.4003 33.9625 22.3614 34.1165 22.3806Z" fill="white"/>
<path fill-rule="evenodd" clip-rule="evenodd" d="M7.15361 31.124C7.15239 31.5273 7.19419 31.9296 7.27829 32.3241C7.34241 32.6567 7.46936 32.9741 7.65234 33.2592C7.80812 33.5145 8.02855 33.7242 8.29134 33.867C8.58041 34.0154 8.90157 34.0903 9.22646 34.0852C9.52182 34.1011 9.81679 34.0474 10.0875 33.9282C10.3583 33.8091 10.5972 33.628 10.785 33.3995C11.2065 32.7192 11.3978 31.9214 11.3305 31.124C11.3358 30.7316 11.2992 30.3397 11.2214 29.9551C11.157 29.6177 11.0301 29.2952 10.8473 29.0044C10.6833 28.7516 10.465 28.5387 10.2083 28.381C9.90882 28.2306 9.57711 28.1557 9.24205 28.1628C8.9449 28.1448 8.64783 28.1992 8.37636 28.3214C8.10489 28.4436 7.86713 28.6298 7.68351 28.8641C7.27568 29.5438 7.09041 30.3339 7.15361 31.124ZM5.18985 31.124C5.17961 30.4638 5.2743 29.8063 5.47039 29.1758C5.62038 28.638 5.89238 28.142 6.26524 27.7264C6.61392 27.3353 7.04511 27.0265 7.52765 26.8224C8.06862 26.6103 8.64542 26.5044 9.22646 26.5107C9.8381 26.5122 10.4429 26.6395 11.0032 26.8848C11.4907 27.0946 11.9228 27.4147 12.2656 27.8199C12.608 28.2572 12.8669 28.7538 13.0293 29.2849C13.2045 29.8926 13.2885 30.5228 13.2787 31.1552C13.2906 31.8205 13.1958 32.4835 12.9981 33.1189C12.8366 33.6553 12.5601 34.1499 12.1877 34.5684C11.8363 34.9633 11.3991 35.2726 10.9097 35.4723C10.3741 35.6844 9.80244 35.7902 9.22646 35.784C8.62204 35.7925 8.02241 35.6757 7.46532 35.4411C6.97157 35.2423 6.53696 34.9204 6.2029 34.506C5.85154 34.0746 5.59171 33.5761 5.43922 33.041C5.25936 32.4183 5.17527 31.7719 5.18985 31.124Z" fill="white"/>
<path fill-rule="evenodd" clip-rule="evenodd" d="M17.3153 28.2095H16.8009H16.4113V30.8434H16.5672H17.2062C17.4501 30.8589 17.6947 30.8589 17.9387 30.8434C18.1639 30.8134 18.3811 30.7392 18.5777 30.6252C18.7695 30.5169 18.9304 30.3613 19.0452 30.1733C19.1664 29.9374 19.2254 29.6746 19.2167 29.4096C19.2235 29.1795 19.164 28.9522 19.0452 28.755C18.9362 28.5991 18.792 28.471 18.6244 28.3809C18.4266 28.2858 18.217 28.2176 18.001 28.1783C17.772 28.1727 17.5428 28.1831 17.3153 28.2095ZM14.5566 26.7757L15.8035 26.6198C16.271 26.6198 16.723 26.6198 17.1906 26.6198C17.6603 26.6174 18.1295 26.6539 18.5933 26.7289C19.0478 26.7834 19.4872 26.9263 19.8868 27.1497C20.2656 27.3675 20.5822 27.6787 20.8064 28.0537C21.0843 28.524 21.2146 29.0669 21.1804 29.6122C21.1896 30.1029 21.0828 30.5888 20.8687 31.0305C20.6704 31.4116 20.3814 31.7381 20.0271 31.9812C19.6724 32.2399 19.2698 32.4253 18.8426 32.5267C18.3994 32.6392 17.944 32.6967 17.4867 32.6981H16.4113V35.6749H14.5566V26.7757Z" fill="white"/>
<path fill-rule="evenodd" clip-rule="evenodd" d="M22.2871 26.6978H27.929V28.3342H24.1418V30.2668H27.5706V31.9033H24.1418V33.9138H27.9914V35.5502H22.2871V26.6978Z" fill="white"/>
<path fill-rule="evenodd" clip-rule="evenodd" d="M31.8409 30.937L31.0772 29.6122H31.0305L31.2331 30.9526V35.5502H29.4719V26.6354H30.8123L34.4281 31.3578L35.145 32.6514H35.2229L35.0203 31.3422V26.6977H36.7659V35.6126H35.4255L31.8409 30.937Z" fill="white"/>
</svg>
