<svg width="24" height="23" viewBox="0 0 24 23" fill="none" xmlns="http://www.w3.org/2000/svg">
<g clip-path="url(#clip0)">
<path d="M2.86804 20.8747C3.59334 20.933 4.1512 20.9482 4.64508 20.9482C6.202 20.9482 7.50492 20.8661 8.68271 19.6703C8.96211 19.3866 21.4936 6.66457 21.4936 6.66457C21.6253 6.53086 21.837 6.53086 21.9687 6.66457C22.0995 6.79733 22.0995 7.01319 21.9687 7.1469C21.9687 7.1469 7.23304 22.2491 7.00539 22.4153C6.50586 22.782 6.34875 22.8308 4.58864 22.8308C3.91696 22.8308 3.08535 22.7773 3.08535 22.7773C2.90002 22.7773 2.74292 22.6665 2.69871 22.4325L2.5322 21.3293C2.48516 21.0829 2.63191 20.8565 2.86804 20.8747Z" fill="#1072BA"/>
<path d="M4.58743 22.9999C3.94491 22.9999 3.14905 22.9503 3.07943 22.9455C2.79909 22.9436 2.59025 22.7593 2.53475 22.4641L2.3673 21.3552C2.33343 21.1824 2.37294 21.0066 2.47736 20.8767C2.57614 20.7545 2.71913 20.6924 2.88 20.7048C3.50465 20.7545 4.06532 20.7784 4.64387 20.7784C6.23089 20.7784 7.44162 20.6905 8.56391 19.5501L21.3748 6.5434C21.4698 6.44789 21.595 6.39345 21.7295 6.39345C21.864 6.39345 21.9901 6.44789 22.0851 6.5434C22.2808 6.74206 22.2808 7.0668 22.0851 7.26451C20.5761 8.81083 7.33437 22.382 7.10295 22.552C6.56862 22.9436 6.37482 22.9999 4.58743 22.9999ZM2.83955 21.0429C2.79627 21.0429 2.76147 21.0592 2.73418 21.0926C2.69467 21.1423 2.67962 21.2187 2.69467 21.297L2.86306 22.4078C2.88752 22.5386 2.96372 22.6083 3.08508 22.6083H3.09543C3.10389 22.6093 3.92986 22.6628 4.58743 22.6628C6.31744 22.6628 6.4435 22.6189 6.90728 22.2788C7.18386 22.0439 16.8029 12.1996 21.849 7.02764C21.9157 6.96078 21.9157 6.85095 21.8499 6.78409C21.7859 6.71914 21.674 6.71914 21.61 6.78409L8.7991 19.7898C7.58837 21.019 6.25723 21.1174 4.64387 21.1174C4.05591 21.1174 3.48771 21.0935 2.8546 21.0439L2.83955 21.0429Z" fill="#343333"/>
<path d="M21.0182 20.8737C20.2919 20.932 19.735 20.9473 19.2411 20.9473C17.6842 20.9473 16.3813 20.8651 15.2035 19.6694C14.9232 19.3857 2.4801 6.75245 2.4801 6.75245C2.34934 6.61873 2.13579 6.61873 2.00503 6.75245C1.87332 6.88521 1.87332 7.10202 2.00503 7.23478C2.00503 7.23478 16.6523 22.2481 16.8799 22.4153C17.3794 22.7821 17.5365 22.8308 19.2967 22.8308C19.9683 22.8308 20.7999 22.7773 20.7999 22.7773C20.9853 22.7773 21.1424 22.6665 21.1866 22.4325L21.3531 21.3293C21.4011 21.082 21.2543 20.8556 21.0182 20.8737Z" fill="#1072BA"/>
<path d="M19.2963 23.0007C17.5089 23.0007 17.3151 22.9444 16.7817 22.5528C16.5503 22.3828 3.3857 8.89185 1.88617 7.35412C1.69143 7.15546 1.69143 6.83168 1.88711 6.63301C1.98212 6.5375 2.10818 6.48497 2.2427 6.48497C2.37629 6.48497 2.50329 6.5375 2.5983 6.63301C2.5983 6.63301 15.0414 19.2672 15.3217 19.5509C16.445 20.6913 17.6547 20.7791 19.2418 20.7791C19.8203 20.7791 20.381 20.7562 21.0056 20.7056C21.1665 20.6932 21.3095 20.7553 21.4092 20.8775C21.5136 21.0065 21.5531 21.1832 21.5183 21.3627L21.3528 22.4582C21.2954 22.7591 21.0865 22.9434 20.8071 22.9453C20.7347 22.9511 19.9388 23.0007 19.2963 23.0007ZM2.24176 6.82212C2.19661 6.82212 2.15333 6.84123 2.12229 6.87274C2.05644 6.9396 2.05644 7.04944 2.12229 7.1163C7.13922 12.2586 16.7008 22.0456 16.9812 22.2834C17.4403 22.6187 17.5663 22.6636 19.2963 22.6636C19.9548 22.6636 20.7808 22.6101 20.7883 22.6091H20.7996C20.921 22.6091 20.9962 22.5394 21.0226 22.4019L21.1881 21.3045C21.2051 21.2195 21.19 21.143 21.1496 21.0934C21.1195 21.0561 21.079 21.0399 21.0301 21.0437C20.396 21.0934 19.8278 21.1173 19.2399 21.1173C17.6265 21.1173 16.2954 21.0189 15.0847 19.7897C14.8053 19.506 2.36218 6.87274 2.36218 6.87274C2.33019 6.84027 2.28692 6.82212 2.24176 6.82212Z" fill="#343333"/>
<path d="M4.66992 7.46219C7.09513 6.99896 9.53446 6.07346 11.9785 4.71434C14.3294 6.05531 16.7565 7.01329 19.287 7.46219L18.574 16.3886C16.6295 18.4842 14.4131 20.2473 11.9794 21.7516C9.56456 20.4335 7.383 18.6685 5.44038 16.4908L4.66992 7.46219Z" fill="#FFCD03"/>
<path d="M11.979 4.71427C14.3298 6.05429 16.7569 7.01322 19.2875 7.46117L18.5744 16.3876C16.6299 18.4831 14.4136 20.2463 11.9799 21.7506C9.56503 20.4325 7.38347 18.6675 5.44085 16.4898L4.67133 7.46021C7.0956 6.9989 9.53493 6.07244 11.979 4.71427ZM11.979 4.29211C11.9103 4.29211 11.8416 4.30835 11.7786 4.34369C9.35901 5.68849 6.94132 6.59775 4.59325 7.0457C4.38347 7.08677 4.23671 7.28161 4.25553 7.49842L5.02505 16.528C5.03352 16.6197 5.0702 16.7076 5.13135 16.7754C7.11442 18.9979 9.35242 20.7983 11.7814 22.124C11.8425 22.1574 11.9112 22.1737 11.978 22.1737C12.0533 22.1737 12.1285 22.1536 12.1944 22.1126C14.7419 20.5376 16.9902 18.7105 18.8755 16.678C18.9404 16.6083 18.9799 16.5185 18.9874 16.423L19.7014 7.49555C19.7184 7.27874 19.5697 7.08295 19.3581 7.04474C16.9742 6.62258 14.6262 5.73911 12.1812 4.34465C12.1191 4.31026 12.0495 4.29211 11.979 4.29211Z" fill="#343333"/>
<path d="M6.02156 8.04016C8.04508 7.618 9.96324 6.93606 11.7619 5.9628C11.8861 5.89594 12.0329 5.89403 12.157 5.95898C13.9679 6.9074 15.8748 7.61991 17.8993 8.04207C18.11 8.08505 18.253 8.28372 18.2342 8.50053L17.6058 15.8845C17.5973 15.9848 17.555 16.0793 17.4853 16.15C16.0488 17.6256 14.2276 19.0192 12.1693 20.362C12.0394 20.4461 11.8739 20.4537 11.7375 20.3792C9.66879 19.2398 7.90773 17.8176 6.41949 16.1481C6.3574 16.0784 6.31977 15.9886 6.31131 15.895L5.68102 8.49862C5.66408 8.2799 5.81084 8.08505 6.02156 8.04016Z" fill="#B81F25"/>
<path d="M9.31641 15.7531L11.576 15.9651L11.5648 16.6891L11.3183 16.7015L11.2948 16.5143L10.7482 16.4685L10.7661 18.372L10.9138 18.5344L10.926 18.8591L10.1762 18.3968L10.1395 18.1227L10.3117 18.16L10.2872 16.3395L9.66072 16.202L9.6118 16.4885L9.34087 16.4016L9.31641 15.7531Z" fill="white"/>
<path d="M9.3159 15.7531L11.5755 15.9651L11.5633 16.6881L11.3178 16.7005L11.2933 16.5133L10.7468 16.4684L10.7646 18.372L10.9123 18.5343L10.9246 18.8591L10.1757 18.3968L10.139 18.1227L10.3112 18.1599L10.2867 16.3395L9.66021 16.202L9.61129 16.4895L9.34036 16.4025L9.3159 15.7531ZM9.3159 15.5C9.25193 15.5 9.19078 15.5248 9.14375 15.5697C9.09106 15.6203 9.06378 15.691 9.06661 15.7636L9.09106 16.4121C9.09577 16.5191 9.16538 16.6117 9.2651 16.6442L9.53509 16.7311L9.61129 16.7426C9.65645 16.7426 9.70066 16.7301 9.74017 16.7063C9.80226 16.6681 9.84459 16.605 9.85682 16.5324L9.86153 16.5066L10.0393 16.5448L10.0572 17.883C10.0243 17.8944 9.99511 17.9126 9.96877 17.9364C9.9095 17.9928 9.88034 18.074 9.89069 18.1561L9.92738 18.4302C9.93772 18.5057 9.981 18.5725 10.0459 18.6117L10.7947 19.073C10.8342 19.0979 10.8794 19.1093 10.9246 19.1093C10.9688 19.1093 11.012 19.0979 11.0506 19.0749C11.1296 19.0272 11.1767 18.9393 11.1738 18.8457L11.1616 18.5219C11.1597 18.4618 11.1362 18.4035 11.0958 18.3596L11.0139 18.2688L10.9998 16.7416L11.0732 16.7473C11.0958 16.8658 11.1992 16.9527 11.3178 16.9527L11.331 16.9517L11.5765 16.9393C11.7082 16.9326 11.8107 16.8237 11.8135 16.69L11.8258 15.967C11.8277 15.8342 11.7289 15.7225 11.5991 15.7101L9.33848 15.498L9.3159 15.5Z" fill="#8D191C"/>
<path d="M13.526 17.1163L13.9616 17.8135L14.2297 17.6359L14.1958 18.0093L13.4761 18.5623L13.4837 18.2051L13.6097 18.0771L13.2748 17.4745L12.7104 18.5881L12.8553 18.5308L12.8449 18.9616L12.0735 19.2796L12.0293 18.803L12.2193 18.7467L13.0124 17.1478L12.4545 16.2519L12.2306 16.2634L12.2447 15.9214L13.0491 15.9262L13.1017 16.2519L12.9343 16.2634L13.2805 16.7505L13.5815 16.1726L13.4479 16.1612L13.4837 15.8918L14.3642 15.7982L14.2965 16.1383L14.1149 16.1554L13.526 17.1163Z" fill="white"/>
<path d="M14.3657 15.7987L14.2989 16.1388L14.1174 16.156L13.5285 17.1168L13.964 17.814L14.2321 17.6354L14.1983 18.0098L13.4786 18.5638L13.4871 18.2056L13.6131 18.0776L13.2782 17.475L12.7138 18.5877L12.8586 18.5313L12.8474 18.9621L12.0769 19.2792L12.0327 18.8026L12.2227 18.7462L13.0148 17.1464L12.457 16.2505L12.2331 16.2629L12.2472 15.921L13.0515 15.9248L13.1042 16.2505L12.9367 16.2629L13.2829 16.75L13.584 16.1722L13.4504 16.1607L13.4861 15.8914L14.3657 15.7987ZM14.3657 15.5456L14.3394 15.5466L13.4598 15.6402C13.3704 15.6488 13.2952 15.7071 13.2585 15.7863C13.2142 15.7176 13.1371 15.6727 13.0515 15.6727L12.2481 15.6688H12.2472C12.1136 15.6688 12.0035 15.7758 11.9979 15.9114L11.9838 16.2534C11.9809 16.325 12.0073 16.3938 12.0571 16.4434C12.1042 16.4902 12.1672 16.517 12.2331 16.517H12.2462L12.3243 16.5132L12.7288 17.1626L12.0487 18.5351L11.9621 18.5609C11.8474 18.5953 11.773 18.7071 11.7843 18.8283L11.8285 19.3049C11.8361 19.3852 11.8803 19.4559 11.948 19.4979C11.9875 19.5227 12.0327 19.5342 12.0778 19.5342C12.1098 19.5342 12.1409 19.5284 12.1719 19.5151L12.9424 19.197C13.0346 19.1598 13.0957 19.07 13.0976 18.9688L13.1089 18.5485L13.1098 18.5313C13.1098 18.4902 13.0995 18.4511 13.0825 18.4157L13.2886 18.0089L13.3027 18.0347C13.2622 18.0795 13.2396 18.1378 13.2378 18.1989L13.2293 18.5561C13.2274 18.6536 13.2801 18.7433 13.3648 18.7882C13.4005 18.8073 13.44 18.8159 13.4786 18.8159C13.5322 18.8159 13.5849 18.7978 13.6291 18.7644L14.3497 18.2113C14.4052 18.1684 14.441 18.1034 14.4476 18.0327L14.4795 17.6688L14.4814 17.6345C14.4814 17.495 14.3695 17.3814 14.2321 17.3814H14.2302C14.1785 17.3814 14.1315 17.3976 14.092 17.4243L14.0393 17.4597L13.8229 17.1139L14.2632 16.3947L14.3215 16.39C14.4316 16.3795 14.5219 16.2964 14.5435 16.1865L14.6103 15.8465C14.6263 15.7672 14.6037 15.686 14.5501 15.6259C14.5021 15.5743 14.4353 15.5456 14.3657 15.5456Z" fill="#8D191C"/>
<path d="M12.8008 7.8648C12.9315 7.72536 13.4358 6.88008 13.4715 6.42641C13.5712 6.60692 13.8563 7.00425 14.0886 7.06156C13.5703 7.20005 12.9805 7.70434 12.8008 7.8648Z" fill="#BF2026"/>
<path d="M12.8022 7.99224C12.7692 7.99224 12.7372 7.97887 12.7128 7.95308C12.6667 7.90342 12.6657 7.82701 12.7118 7.77734C12.8285 7.65318 13.3158 6.8356 13.3487 6.41631C13.3525 6.35996 13.3929 6.31411 13.4466 6.30265C13.5011 6.29024 13.5557 6.31507 13.583 6.36378C13.6977 6.57295 13.9555 6.89769 14.1201 6.9378C14.1756 6.95022 14.2161 7.00084 14.2161 7.0591C14.217 7.11736 14.1784 7.16798 14.1229 7.18326C13.6291 7.31507 13.0514 7.81077 12.8868 7.95881L12.8022 7.99224ZM13.5322 6.74391C13.4729 6.93207 13.3816 7.13742 13.2847 7.32558C13.4437 7.21669 13.6187 7.11163 13.7965 7.03331C13.6977 6.94831 13.6065 6.84325 13.5322 6.74391Z" fill="#343333"/>
<path d="M10.5507 10.5747C11.3569 9.70932 11.0756 10.0121 12.3635 8.63005C13.1349 7.80292 14.2036 7.31964 14.6391 7.30722C15.5639 7.28239 16.7219 6.9758 17.6344 5.99872C18.8884 4.65393 18.991 3.0694 18.0963 2.2098C17.2026 1.3502 15.6495 1.54122 14.3955 2.88697C13.5037 3.84304 13.1838 5.01305 13.26 5.93473C13.3042 6.45526 12.6636 7.40655 11.9204 8.20407C10.673 9.54218 10.8978 9.29958 10.1227 10.1324C9.8903 10.3798 10.3287 10.8125 10.5507 10.5747ZM14.1217 6.43425C13.5253 5.86119 13.7229 5.26042 13.8047 4.87647C14.0107 3.90703 14.721 3.20025 14.721 3.20025C15.7915 2.05316 17.0785 1.85355 17.7953 2.54313C18.5121 3.23081 18.387 4.54791 17.3174 5.69404C16.8611 6.18401 16.34 6.48392 15.8339 6.65775L15.5432 6.73416C15.5422 6.73607 14.7181 7.00636 14.1217 6.43425Z" fill="#FFCD03"/>
<path d="M10.3941 10.8119C10.206 10.8119 10.0094 10.6705 9.92658 10.4766C9.85697 10.3123 9.88425 10.1395 9.99996 10.0153L11.7977 8.0879C12.6067 7.2197 13.1279 6.3601 13.0931 5.94845C13.0018 4.84912 13.4421 3.66001 14.2728 2.76889C15.0244 1.96278 15.9078 1.51961 16.762 1.51961C17.3226 1.51961 17.8231 1.71636 18.2088 2.08694C18.6895 2.54922 18.9115 3.20729 18.8344 3.93986C18.7563 4.6772 18.3725 5.44893 17.7525 6.11464C16.6905 7.25409 15.3471 7.45657 14.6406 7.47663C14.2822 7.48713 13.253 7.9198 12.4826 8.74692L10.6698 10.6906C10.5964 10.7698 10.5014 10.8119 10.3941 10.8119ZM16.7629 1.85772C16.0122 1.85772 15.1938 2.27414 14.5155 3.00098C13.7488 3.82333 13.3414 4.91407 13.4252 5.91884C13.4769 6.5368 12.7431 7.5645 12.0395 8.31903L10.2417 10.2464C10.2304 10.2589 10.2079 10.2827 10.2333 10.342C10.2652 10.4174 10.3452 10.4728 10.3941 10.4728L10.4289 10.4566L12.2417 8.51197C12.7535 7.96278 13.9002 7.15667 14.6331 7.13661C15.2878 7.11846 16.5315 6.93126 17.5117 5.88064C18.0818 5.26937 18.4346 4.56641 18.5042 3.90261C18.57 3.27605 18.3838 2.71923 17.9802 2.3305C17.6575 2.02104 17.237 1.85772 16.7629 1.85772Z" fill="#343333"/>
<path d="M15.0781 6.88377C14.8006 6.88377 14.3989 6.81691 14.064 6.49504C13.4798 5.93439 13.6134 5.34317 13.7028 4.95253C13.7103 4.92006 13.7169 4.8895 13.7235 4.85893C13.9314 3.87613 14.6332 3.1703 14.6623 3.14069C15.3011 2.45492 16.0678 2.06142 16.7639 2.06142C17.1891 2.06142 17.5645 2.20659 17.8514 2.48166C18.6379 3.23811 18.4384 4.61347 17.3763 5.75387C16.953 6.20659 16.4431 6.53802 15.8589 6.73859L15.5626 6.81691C15.5588 6.81977 15.3575 6.88377 15.0781 6.88377ZM16.7649 2.23143C16.1139 2.23143 15.3914 2.60583 14.7818 3.25912C14.7724 3.26868 14.0838 3.96304 13.8862 4.89523C13.8796 4.92579 13.873 4.95731 13.8655 4.98978C13.7808 5.36514 13.6651 5.87804 14.1797 6.37278C14.4742 6.65549 14.8316 6.71567 15.0791 6.71567C15.3302 6.71567 15.5156 6.65549 15.5174 6.65549L15.8128 6.57718C16.365 6.38806 16.8533 6.07097 17.2578 5.6383C18.2531 4.57049 18.4563 3.29542 17.7385 2.60583C17.4826 2.36037 17.1459 2.23143 16.7649 2.23143Z" fill="#FBB03B"/>
<path d="M15.0234 7.41631C14.6414 7.41631 14.1193 7.31889 13.6734 6.88909C13.3169 6.5462 12.9406 5.91583 13.1777 4.86426L13.1833 4.83751C13.2031 4.74582 13.2915 4.68852 13.3818 4.70857C13.4721 4.72959 13.5286 4.81937 13.5088 4.9101L13.5022 4.9378C13.3404 5.65795 13.4749 6.23197 13.903 6.64267C14.569 7.28259 15.4646 7.02471 15.474 7.02185C15.5624 6.99511 15.6546 7.04668 15.681 7.13646C15.7064 7.22529 15.6565 7.31984 15.5681 7.34659C15.5483 7.35327 15.3301 7.41631 15.0234 7.41631Z" fill="#343333"/>
<path d="M11.2772 8.58489L9.37505 10.625C9.18314 10.8304 9.29979 11.0386 9.50204 11.2325C9.7043 11.4273 9.91503 11.5333 10.106 11.328L11.9583 9.34229C12.1502 9.13694 11.9799 9.01564 11.7777 8.82175C11.5886 8.63933 11.3732 8.48173 11.2772 8.58489Z" fill="#D9E027"/>
<path d="M9.88246 11.6072C9.72535 11.6072 9.56919 11.527 9.38951 11.3551C9.25311 11.2242 9.16938 11.102 9.13363 10.9816C9.09882 10.8642 9.0913 10.6856 9.25593 10.5089L11.1581 8.46875C11.2098 8.4124 11.2794 8.38374 11.3575 8.38374C11.4469 8.38374 11.5993 8.41622 11.8937 8.69893L11.9474 8.7486C12.0791 8.87371 12.2051 8.99119 12.2098 9.1612C12.2136 9.2634 12.1703 9.36273 12.081 9.45824L10.2286 11.4449C10.127 11.5518 10.0113 11.6072 9.88246 11.6072ZM11.3763 8.72663L9.4977 10.741C9.43561 10.8069 9.44219 10.8489 9.45254 10.8833C9.47041 10.9453 9.52686 11.0208 9.61905 11.1087C9.7564 11.2414 9.83824 11.2691 9.88246 11.2691C9.90409 11.2691 9.9389 11.2624 9.98688 11.2109L11.8392 9.22519C11.874 9.1889 11.8768 9.1698 11.8768 9.1698C11.8721 9.13828 11.7809 9.05232 11.7207 8.99501L11.6651 8.94248C11.5015 8.7868 11.4121 8.74 11.3763 8.72663Z" fill="#343333"/>
<path d="M12.7695 7.77448C12.9031 7.6379 13.7216 7.10399 14.1675 7.05433C13.9868 6.95882 13.587 6.68088 13.5249 6.44592C13.4036 6.97505 12.9229 7.58728 12.7695 7.77448Z" fill="#E43E3E"/>
<path d="M12.7697 7.90143C12.7396 7.90143 12.7086 7.89093 12.685 7.868C12.6361 7.82311 12.6305 7.74575 12.6737 7.69322C12.8158 7.5213 13.288 6.92149 13.4038 6.41624C13.4169 6.35988 13.4658 6.31882 13.5232 6.31786C13.5787 6.31595 13.6305 6.35606 13.6455 6.41242C13.6888 6.57861 14.0162 6.83075 14.225 6.94155C14.2739 6.96733 14.3003 7.02273 14.2899 7.07717C14.2805 7.13161 14.2354 7.17364 14.1808 7.17937C13.7697 7.22426 12.9776 7.74002 12.8572 7.86323C12.8327 7.88997 12.8007 7.90143 12.7697 7.90143ZM13.5609 6.74479C13.4884 6.92627 13.3906 7.10678 13.288 7.27201C13.4706 7.16791 13.6709 7.06953 13.8544 7.00458C13.7537 6.93104 13.6465 6.84126 13.5609 6.74479Z" fill="#343333"/>
<path d="M16.7341 5.2752L16.5573 5.45476L16.6598 5.55887C16.6843 5.5837 16.7163 5.59612 16.7482 5.59612C16.7802 5.59612 16.8122 5.5837 16.8367 5.55887C16.8856 5.5092 16.8856 5.42898 16.8367 5.37931L16.7341 5.2752ZM16.3409 4.87692L16.1641 5.05648L16.3804 5.27616L16.5573 5.0966L16.3409 4.87692ZM15.9684 4.4987L15.7915 4.67826L15.9872 4.87692L16.1641 4.69736L15.9684 4.4987ZM15.5196 4.09564C15.4877 4.09564 15.4557 4.10806 15.4312 4.13289C15.3823 4.18256 15.3823 4.26279 15.4312 4.31245L15.6156 4.4987L15.7925 4.31914L15.6081 4.13289C15.5836 4.10806 15.5516 4.09564 15.5196 4.09564Z" fill="#BBBABA"/>
<path d="M17.1412 4.86263L16.9643 5.0422L17.1082 5.18833C17.1327 5.21316 17.1647 5.22462 17.1967 5.22462C17.2287 5.22462 17.2606 5.2122 17.2851 5.18833C17.334 5.13866 17.334 5.05843 17.2851 5.00877L17.1412 4.86263ZM16.7479 4.4634L16.5711 4.64296L16.7875 4.86263L16.9643 4.68307L16.7479 4.4634ZM16.3754 4.08518L16.1986 4.26474L16.3942 4.4634L16.5711 4.28384L16.3754 4.08518ZM15.9549 3.65824L15.7809 3.83971L16.0226 4.08518L16.1995 3.90561L15.9549 3.65824ZM15.5626 3.31345C15.5306 3.31345 15.4986 3.32586 15.4742 3.3507C15.4253 3.40036 15.4253 3.48059 15.4742 3.53026L15.604 3.66206L15.778 3.48059L15.651 3.35165C15.6266 3.32491 15.5946 3.31345 15.5626 3.31345Z" fill="#BBBABA"/>
<path d="M17.5279 4.47077L17.3519 4.64938L17.4263 4.72483C17.4507 4.74967 17.4827 4.76208 17.5147 4.76208C17.5467 4.76208 17.5786 4.74967 17.6031 4.72483C17.652 4.67517 17.652 4.59589 17.6031 4.54527L17.5279 4.47077ZM17.1346 4.07154L16.9578 4.25014L17.1741 4.46982L17.3501 4.29121L17.1346 4.07154ZM16.7621 3.69331L16.5862 3.87192L16.7818 4.07058L16.9578 3.89198L16.7621 3.69331ZM16.3369 3.26065L16.1628 3.44212L16.4093 3.69236L16.5852 3.51375L16.3369 3.26065ZM15.8458 2.81557C15.8138 2.81557 15.7819 2.82798 15.7574 2.85282C15.7085 2.90248 15.7085 2.98176 15.7574 3.03142L15.986 3.26351L16.16 3.08204L15.9342 2.85282C15.9089 2.82798 15.8778 2.81557 15.8458 2.81557Z" fill="#BBBABA"/>
<path d="M17.5201 3.67965L17.3432 3.85922L17.4364 3.95377C17.4608 3.9786 17.4928 3.99007 17.5248 3.99007C17.5558 3.99007 17.5878 3.97765 17.6123 3.95377C17.6612 3.90411 17.6612 3.82388 17.6123 3.77421L17.5201 3.67965ZM17.1485 3.30143L16.9726 3.48099L17.1683 3.67965L17.3451 3.50009L17.1485 3.30143ZM16.7167 2.86495L16.5427 3.04642L16.7948 3.30239L16.9707 3.12378L16.7167 2.86495ZM16.3009 2.49341C16.2689 2.49341 16.2369 2.50582 16.2125 2.53066C16.1636 2.58032 16.1636 2.66055 16.2125 2.70926L16.3667 2.8659L16.5408 2.68443L16.3884 2.53066C16.3639 2.50582 16.3329 2.49341 16.3009 2.49341Z" fill="#BBBABA"/>
<path d="M17.4599 2.67889C17.4279 2.67889 17.3959 2.69131 17.3714 2.71614L16.9716 3.12206L16.7957 3.30067L16.5859 3.51366L16.41 3.69227L16.2002 3.90525L16.0234 4.08482L15.7929 4.31882L15.617 4.49838L15.4937 4.6235C15.4448 4.67316 15.4448 4.75339 15.4937 4.80306C15.5182 4.82789 15.5502 4.83935 15.5821 4.83935C15.6141 4.83935 15.6461 4.82694 15.6706 4.80306L15.7938 4.67794L15.9707 4.49838L16.2012 4.26438L16.378 4.08482L16.5878 3.87183L16.7637 3.69322L16.9735 3.48023L17.1494 3.30067L17.5492 2.89475C17.5981 2.84508 17.5981 2.76485 17.5492 2.71519C17.5238 2.69131 17.4918 2.67889 17.4599 2.67889Z" fill="#BBBABA"/>
<path d="M17.7381 3.15358C17.7061 3.15358 17.6741 3.166 17.6497 3.19083L17.3439 3.50124L17.1671 3.6808L16.9573 3.89379L16.7814 4.0724L16.5716 4.28539L16.3947 4.46495L16.1642 4.69895L15.9874 4.87851L15.6929 5.17746C15.644 5.22712 15.644 5.30735 15.6929 5.35702C15.7165 5.38281 15.7484 5.39522 15.7814 5.39522C15.8134 5.39522 15.8453 5.38281 15.8698 5.35702L16.1642 5.05807L16.3411 4.87851L16.5716 4.64451L16.7484 4.46495L16.9582 4.25196L17.1351 4.07335L17.3449 3.86036L17.5217 3.6808L17.8275 3.37039C17.8764 3.32072 17.8764 3.2405 17.8275 3.19083C17.8011 3.16504 17.7701 3.15358 17.7381 3.15358Z" fill="#BBBABA"/>
<path d="M17.5682 4.12128C17.5362 4.12128 17.5042 4.13369 17.4798 4.15853L17.3499 4.29033L17.174 4.46894L16.9642 4.68193L16.7874 4.86149L16.5569 5.09549L16.38 5.27505L16.0875 5.57209C16.0386 5.62176 16.0386 5.70198 16.0875 5.75165C16.1119 5.77648 16.1439 5.7889 16.1759 5.7889C16.2079 5.7889 16.2399 5.77648 16.2643 5.75165L16.5569 5.45461L16.7338 5.27505L16.9642 5.04105L17.1411 4.86149L17.3509 4.6485L17.5268 4.46989L17.6566 4.33809C17.7055 4.28842 17.7055 4.20819 17.6566 4.15853C17.6322 4.13465 17.6002 4.12128 17.5682 4.12128Z" fill="#BBBABA"/>
<path d="M16.8695 2.39822C16.8365 2.39822 16.8046 2.41064 16.7801 2.43643L16.5402 2.68571L16.3662 2.86718L16.1592 3.08304L15.9852 3.26451L15.7782 3.48036L15.6042 3.66183L15.4358 3.83757C15.3878 3.8882 15.3888 3.96842 15.4377 4.01714C15.4621 4.04101 15.4932 4.05343 15.5252 4.05343C15.5571 4.05343 15.5901 4.04101 15.6145 4.01522L15.781 3.84139L15.9551 3.65992L16.162 3.44407L16.3361 3.2626L16.543 3.04674L16.7171 2.86527L16.9588 2.61312C17.0068 2.56346 17.0068 2.48323 16.957 2.43356C16.9325 2.40969 16.9005 2.39822 16.8695 2.39822Z" fill="#BBBABA"/>
<path d="M13.9679 10.2807C13.1382 9.43832 13.4289 9.73345 12.1034 8.3877C11.3103 7.58255 10.8635 6.48512 10.8635 6.04291C10.8635 5.10404 10.5944 3.9197 9.65651 2.9665C8.36677 1.658 6.80985 1.50996 5.93873 2.39343C5.06761 3.27787 5.21343 4.85857 6.50317 6.16803C7.42039 7.10022 8.56338 7.45647 9.47401 7.40299C9.98765 7.37338 10.9058 8.04864 11.6716 8.8261C12.9547 10.1289 12.7233 9.89296 13.521 10.7029C13.7591 10.9455 14.1965 10.5119 13.9679 10.2807ZM9.98953 6.54243C9.41004 7.13078 8.82396 6.91492 8.44861 6.82132C7.49941 6.58637 6.82302 5.8452 6.82302 5.8452C5.72236 4.72772 5.56244 3.41636 6.26046 2.70671C6.95849 1.99897 8.25012 2.16134 9.35078 3.27882C9.8202 3.75542 10.1015 4.29124 10.2586 4.81082L10.3263 5.10881C10.3254 5.10881 10.57 5.95217 9.98953 6.54243Z" fill="#FFCD03"/>
<path d="M13.6874 10.943C13.5802 10.943 13.4814 10.901 13.4043 10.8227L11.5548 8.94494C10.7297 8.10731 9.89343 7.54761 9.48421 7.57244C9.42306 7.57626 9.36098 7.57818 9.29795 7.57818C8.25561 7.57818 7.19353 7.10826 6.38638 6.28782C5.74856 5.64026 5.34404 4.87999 5.24621 4.14456C5.14931 3.41294 5.35345 2.7501 5.821 2.27445C6.21234 1.87713 6.73068 1.66605 7.31864 1.66605C8.15213 1.66605 9.02419 2.08534 9.77396 2.84752C10.8662 3.95735 11.0298 5.32507 11.0298 6.04236C11.0298 6.40721 11.4278 7.46261 12.2208 8.26776L14.0863 10.1608C14.2001 10.2764 14.2293 10.4416 14.1644 10.6011C14.0844 10.7998 13.884 10.943 13.6874 10.943ZM9.50867 7.23338C10.1211 7.23338 11.0891 7.9946 11.7909 8.70712L13.6404 10.5839L13.6884 10.6049C13.7495 10.6049 13.8304 10.5419 13.8586 10.4722C13.8774 10.4244 13.8614 10.4091 13.852 10.3996L11.9866 8.50559C11.4607 7.97168 10.6987 6.78543 10.6987 6.0414C10.6987 5.37665 10.5482 4.10826 9.54066 3.08534C8.85392 2.38715 8.06465 2.0032 7.32052 2.0032C6.82288 2.0032 6.38638 2.17894 6.05806 2.51227C5.21234 3.36996 5.44941 4.85707 6.6225 6.04713C7.36756 6.80454 8.34404 7.23911 9.29889 7.23911C9.35533 7.23911 9.41178 7.2372 9.46634 7.23338H9.50867Z" fill="#343333"/>
<path d="M9.10527 7.02277C8.88514 7.02277 8.68288 6.96929 8.52107 6.92726C8.49003 6.91962 8.45992 6.91103 8.43076 6.90434C7.46745 6.66556 6.792 5.9349 6.76378 5.90339C6.23133 5.36279 5.8842 4.73529 5.78636 4.13643C5.6904 3.54713 5.8381 3.01704 6.2031 2.64742C6.49379 2.35229 6.8842 2.19565 7.33104 2.19565C8.02248 2.19565 8.76096 2.55955 9.41101 3.21953C9.84563 3.66079 10.1579 4.18801 10.3386 4.78591L10.4082 5.08868C10.4176 5.12019 10.6584 5.98361 10.0498 6.59966C9.77037 6.88428 9.46181 7.02277 9.10527 7.02277ZM7.3301 2.36566C6.92841 2.36566 6.5794 2.5051 6.3207 2.76776C5.9952 3.09727 5.8635 3.57483 5.95099 4.10969C6.04224 4.67225 6.37338 5.26728 6.88325 5.78591C6.89172 5.79546 7.55682 6.51275 8.46933 6.73911C8.49944 6.74675 8.53048 6.75534 8.56246 6.76298C8.72333 6.80501 8.90677 6.85372 9.10527 6.85372C9.41571 6.85372 9.6857 6.73147 9.93217 6.48218C10.4693 5.93681 10.2492 5.14025 10.2473 5.13357L10.1786 4.8308C10.0074 4.26442 9.70922 3.76107 9.29341 3.33891C8.68288 2.72096 7.96792 2.36566 7.3301 2.36566Z" fill="#FBB03B"/>
<path d="M9.09958 7.54988C8.89544 7.54988 8.66967 7.52218 8.42037 7.45628L8.39403 7.4496C8.30466 7.42763 8.2501 7.33498 8.27268 7.2452C8.29525 7.15447 8.38556 7.09907 8.47399 7.12104L8.50221 7.12868C9.20682 7.31206 9.77503 7.19172 10.1918 6.7686C10.8362 6.1134 10.6179 5.22228 10.6076 5.18407C10.5841 5.09429 10.6377 5.0026 10.7261 4.97873C10.8155 4.95485 10.9058 5.00833 10.9293 5.09811C10.9415 5.143 11.2087 6.21273 10.426 7.00738C10.1636 7.27481 9.73834 7.54988 9.09958 7.54988Z" fill="#343333"/>
<path d="M12.0296 9.48565L13.9863 11.4723C14.1829 11.6719 14.3908 11.5592 14.5884 11.3596C14.785 11.16 14.8951 10.9489 14.6994 10.7493L12.7944 8.81612C12.5978 8.6165 12.4736 8.78555 12.277 8.98517C12.0926 9.17142 11.9318 9.38632 12.0296 9.48565Z" fill="#D9E027"/>
<path d="M14.2077 11.7461C14.0836 11.7461 13.9697 11.6946 13.8691 11.5914L11.9123 9.60478C11.6715 9.36123 12.0375 8.98778 12.1588 8.86552L12.2096 8.81299C12.3366 8.68214 12.4561 8.55702 12.6235 8.55702C12.7233 8.55702 12.8202 8.60382 12.9105 8.69551L14.8155 10.6296C14.981 10.7977 15.0967 11.0823 14.7054 11.4797C14.5925 11.5943 14.4185 11.7461 14.2077 11.7461ZM12.172 9.39179L14.1043 11.3526C14.1532 11.4023 14.187 11.408 14.2077 11.408C14.2529 11.408 14.3338 11.3794 14.4702 11.2409C14.7082 10.9983 14.6311 10.92 14.5803 10.8703L12.6753 8.93525C12.6395 8.89991 12.6226 8.89609 12.6226 8.89609C12.5916 8.89991 12.505 8.99064 12.4467 9.04986L12.3931 9.1043C12.2341 9.26667 12.1861 9.35549 12.172 9.39179Z" fill="#343333"/>
<path d="M11.2742 7.95022C11.1434 7.81078 10.6392 6.96455 10.6034 6.51183C10.5037 6.69234 10.2196 7.09062 9.98633 7.14697C10.5047 7.28546 11.0945 7.78976 11.2742 7.95022Z" fill="#E43E3E"/>
<path d="M11.2743 8.07726L11.1915 8.04478C11.026 7.89579 10.4484 7.40104 9.95448 7.26923C9.89897 7.25491 9.8604 7.20333 9.86134 7.14507C9.86229 7.08681 9.9018 7.03619 9.9573 7.02282C10.1219 6.9827 10.3797 6.65892 10.4945 6.44975C10.5217 6.40104 10.5763 6.37621 10.6299 6.38767C10.6835 6.39913 10.7231 6.44593 10.7278 6.50133C10.7607 6.92062 11.247 7.73819 11.3637 7.86331C11.4098 7.91298 11.4098 7.98939 11.3628 8.03905C11.3392 8.06389 11.3073 8.07726 11.2743 8.07726ZM10.2809 7.11833C10.4587 7.1976 10.6337 7.30171 10.7927 7.41059C10.6958 7.22243 10.6045 7.01613 10.5443 6.82893C10.47 6.92826 10.3787 7.03428 10.2809 7.11833Z" fill="#343333"/>
<path d="M7.87206 5.36094L7.69521 5.5405L7.75071 5.59685C7.77517 5.62168 7.80715 5.6341 7.83914 5.6341C7.87112 5.6341 7.90311 5.62168 7.92757 5.59685C7.97649 5.54718 7.97649 5.46696 7.92757 5.41729L7.87206 5.36094ZM7.47884 4.9617L7.30198 5.14126L7.51835 5.36094L7.69521 5.18138L7.47884 4.9617ZM7.10725 4.58348L6.93039 4.76304L7.12606 4.9617L7.30292 4.78214L7.10725 4.58348ZM6.71496 4.23964C6.68298 4.23964 6.65099 4.25206 6.62653 4.27689C6.57761 4.32655 6.57761 4.40678 6.62653 4.45645L6.75353 4.58539L6.93039 4.40583L6.80433 4.27784C6.77893 4.2511 6.74695 4.23964 6.71496 4.23964Z" fill="#BBBABA"/>
<path d="M8.28105 4.94837L8.10419 5.12793L8.36948 5.39632C8.393 5.42115 8.42592 5.43357 8.45791 5.43357C8.48989 5.43357 8.52188 5.42115 8.54634 5.39632C8.59525 5.34665 8.59525 5.26642 8.54634 5.21771L8.28105 4.94837ZM7.88782 4.54913L7.71096 4.72869L7.92733 4.94837L8.10419 4.76881L7.88782 4.54913ZM7.51529 4.17187L7.33843 4.35143L7.53411 4.55009L7.71096 4.37053L7.51529 4.17187ZM7.08726 3.73729L6.91134 3.91685L7.16252 4.17187L7.33843 3.9923L7.08726 3.73729ZM6.75988 3.45744C6.7279 3.45744 6.69591 3.46986 6.67145 3.49469C6.62254 3.54436 6.62254 3.62459 6.67145 3.67425L6.73448 3.73825L6.91134 3.55869L6.84831 3.49469C6.82385 3.46986 6.79187 3.45744 6.75988 3.45744Z" fill="#BBBABA"/>
<path d="M8.66536 4.55592L8.48944 4.73548L8.65783 4.90644C8.68229 4.93127 8.71428 4.94369 8.74626 4.94369C8.77825 4.94369 8.81023 4.93127 8.83469 4.90644C8.88361 4.85678 8.88361 4.77559 8.83469 4.72688L8.66536 4.55592ZM8.27213 4.15668L8.09622 4.33529L8.31258 4.55496L8.48944 4.3754L8.27213 4.15668ZM7.8996 3.77941L7.72274 3.95802L7.91842 4.15668L8.09527 3.97807L7.8996 3.77941ZM7.47251 3.34484L7.29565 3.5244L7.54683 3.77941L7.72369 3.59985L7.47251 3.34484ZM7.00402 2.92172C6.97204 2.92172 6.94005 2.93414 6.91559 2.95897C6.86668 3.00864 6.86668 3.08887 6.91559 3.13853L7.11879 3.34484L7.29471 3.16528L7.09151 2.95897C7.06799 2.93414 7.03601 2.92172 7.00402 2.92172Z" fill="#BBBABA"/>
<path d="M8.65901 3.76513L8.48216 3.94469L8.52449 3.98767C8.54895 4.01251 8.58093 4.02492 8.61292 4.02492C8.6449 4.02492 8.67689 4.01251 8.70135 3.98767C8.74932 3.93801 8.74932 3.85778 8.70135 3.80811L8.65901 3.76513ZM8.28648 3.38691L8.10963 3.56647L8.3053 3.76513L8.48216 3.58557L8.28648 3.38691ZM7.85939 2.95234L7.68253 3.1319L7.93371 3.38691L8.11057 3.20735L7.85939 2.95234ZM7.35798 2.48242H7.32976C7.30248 2.48529 7.27613 2.4977 7.25544 2.51872C7.20652 2.56838 7.20652 2.64861 7.25544 2.69828L7.50567 2.95234L7.68253 2.77278L7.4323 2.51872C7.41066 2.4977 7.38526 2.48529 7.35798 2.48242Z" fill="#BBBABA"/>
<path d="M8.27562 3.09256C8.24364 3.09256 8.21165 3.10498 8.18719 3.12981L8.11005 3.20813L7.93319 3.38769L7.72341 3.60068L7.54655 3.78024L7.33771 3.99132L7.16085 4.17088L6.93037 4.40488L6.75351 4.58444L6.47224 4.87002C6.42332 4.91968 6.42332 4.99991 6.47224 5.04958C6.49669 5.07441 6.52868 5.08683 6.56066 5.08683C6.59265 5.08683 6.62463 5.07441 6.64909 5.04958L6.93037 4.764L7.10723 4.58444L7.33771 4.35044L7.51457 4.17088L7.72435 3.95789L7.90121 3.77928L8.11099 3.56629L8.28785 3.38673L8.36499 3.30841C8.41297 3.25875 8.41297 3.17852 8.36499 3.12885C8.33959 3.10402 8.30761 3.09256 8.27562 3.09256Z" fill="#BBBABA"/>
<path d="M8.58542 3.53432C8.55343 3.53432 8.52145 3.54673 8.49699 3.57157L8.48288 3.58589L8.30602 3.76545L8.09624 3.97844L7.91938 4.15705L7.70959 4.37004L7.53274 4.5496L7.30226 4.7836L7.1254 4.96316L6.90903 5.18284C6.86105 5.2325 6.86105 5.31273 6.90903 5.3624C6.93349 5.38819 6.96547 5.39965 6.99746 5.39965C7.02944 5.39965 7.06143 5.38723 7.08589 5.3624L7.30226 5.14272L7.47911 4.96316L7.70959 4.72916L7.88645 4.5496L8.09624 4.33661L8.27215 4.158L8.48194 3.94501L8.65879 3.76545L8.67291 3.75113C8.72182 3.70146 8.72182 3.62123 8.67291 3.57157C8.64939 3.54673 8.6174 3.53432 8.58542 3.53432Z" fill="#BBBABA"/>
<path d="M8.67268 4.2433C8.6407 4.2433 8.60871 4.25572 8.5852 4.28055L8.49018 4.37702L8.31332 4.55658L8.10354 4.76957L7.92668 4.94913L7.6962 5.18313L7.51934 5.36269L7.47419 5.40854C7.42527 5.4582 7.42527 5.53843 7.47419 5.5881C7.49771 5.61197 7.53063 5.62439 7.56262 5.62439C7.5946 5.62439 7.62659 5.61197 7.65105 5.5881L7.6962 5.54225L7.87306 5.36269L8.10354 5.12869L8.2804 4.94913L8.49018 4.73614L8.6661 4.55658L8.76205 4.45916C8.81097 4.41045 8.81097 4.33022 8.76205 4.28055C8.73665 4.25572 8.70467 4.2433 8.67268 4.2433Z" fill="#BBBABA"/>
<path d="M7.84812 2.65814C7.81613 2.65814 7.78415 2.67056 7.75969 2.69539L7.68255 2.77371L7.50569 2.95327L7.29591 3.16626L7.11999 3.34582L6.9102 3.55881L6.73335 3.73837L6.61481 3.85872C6.5659 3.90838 6.5659 3.98861 6.61481 4.03828C6.63927 4.06311 6.67126 4.07553 6.70324 4.07553C6.73523 4.07553 6.76721 4.06311 6.79167 4.03828L6.91114 3.91602L7.088 3.73646L7.29779 3.52347L7.47464 3.34391L7.68443 3.13092L7.86129 2.95136L7.93843 2.874C7.98734 2.82433 7.98734 2.7441 7.93843 2.69444C7.91209 2.67056 7.8801 2.65814 7.84812 2.65814Z" fill="#BBBABA"/>
<path d="M12.8656 1.90828C12.5571 2.47561 11.8553 2.68001 11.2974 2.36769C10.7396 2.05441 10.5373 1.3419 10.8449 0.775519C11.1535 0.208184 11.8562 0.00379008 12.4141 0.316111C12.9719 0.629387 13.1742 1.34285 12.8656 1.90828Z" fill="#D9E027"/>
<path d="M11.8548 2.6823C11.6328 2.6823 11.4117 2.62404 11.217 2.5142C10.5791 2.15699 10.3477 1.33941 10.6996 0.69185C10.9319 0.265871 11.3759 0.000350952 11.8576 0.000350952C12.0796 0.000350952 12.2997 0.0576575 12.4954 0.16845C12.804 0.341325 13.0288 0.625948 13.1257 0.970743C13.2235 1.31554 13.1831 1.67752 13.0128 1.9908C12.7795 2.41678 12.3364 2.6823 11.8548 2.6823ZM11.8576 0.33846C11.4973 0.33846 11.1662 0.536168 10.9921 0.855174C10.7287 1.34037 10.9028 1.95164 11.3788 2.21907C11.5246 2.30121 11.6901 2.34419 11.8557 2.34419C12.216 2.34419 12.5472 2.14648 12.7212 1.82652C12.8482 1.59252 12.8783 1.32127 12.8049 1.06339C12.7325 0.805509 12.565 0.592519 12.3336 0.462624C12.1878 0.382395 12.0222 0.33846 11.8576 0.33846Z" fill="#343333"/>
<path d="M12.9492 0.964284C12.5606 1.32436 12.5493 0.804781 12.0846 0.679662C11.6801 0.570779 11.4581 0.982431 11.5315 1.26896C11.6481 1.72264 12.1138 1.48577 12.1392 2.05406C12.1561 2.44088 11.6792 2.5555 11.5465 2.46572L12.9492 0.964284Z" fill="#D9E027"/>
<path d="M11.6683 2.66265C11.5883 2.66265 11.5131 2.64546 11.4529 2.60439C11.3757 2.55281 11.356 2.44775 11.4077 2.37039C11.4585 2.29302 11.562 2.27201 11.6391 2.32454C11.6627 2.33218 11.7831 2.32454 11.8771 2.25578C11.9449 2.20611 11.9759 2.14212 11.9722 2.06093C11.9637 1.85272 11.896 1.82025 11.7624 1.75339C11.6278 1.68653 11.4435 1.59388 11.371 1.31117C11.3136 1.08959 11.3861 0.828841 11.5498 0.663607C11.7003 0.510789 11.911 0.458258 12.1274 0.51652C12.3579 0.578602 12.4961 0.718048 12.5977 0.820245C12.7229 0.945364 12.7229 0.945364 12.8367 0.839347C12.9044 0.77631 13.0098 0.781085 13.0719 0.848898C13.134 0.917666 13.1293 1.02464 13.0615 1.08768C12.7125 1.41146 12.5018 1.19942 12.3626 1.05902C12.276 0.971152 12.1866 0.881372 12.0418 0.842212C11.9373 0.814514 11.8508 0.834572 11.784 0.902384C11.704 0.983569 11.6655 1.11919 11.6937 1.22617C11.7276 1.35988 11.7962 1.39331 11.9091 1.44966C12.069 1.52989 12.2873 1.63782 12.3061 2.04565C12.3155 2.26628 12.2073 2.4573 12.0098 2.57001C11.911 2.6254 11.7849 2.66265 11.6683 2.66265Z" fill="#343333"/>
<path d="M4.17418 15.995C4.22968 18.0341 1.01237 18.5289 0.248495 18.6817C1.69911 17.7399 2.13843 16.7609 2.58057 15.5814C1.61538 15.7715 0.851506 15.4286 0.208984 15.0102C2.46016 14.3254 3.48556 12.9367 3.8675 11.548C4.16947 12.9739 4.17418 15.5155 4.17418 15.995Z" fill="white"/>
<path d="M0.248234 18.8926C0.164508 18.8926 0.0873681 18.841 0.0553832 18.7598C0.0186946 18.6652 0.052561 18.5583 0.136286 18.5038C1.38558 17.692 1.85124 16.8696 2.25858 15.8372C2.1852 15.8429 2.11183 15.8448 2.03939 15.8448C1.21343 15.8448 0.567142 15.4933 0.0958347 15.1877C0.0271612 15.1428 -0.00858671 15.0616 0.00176137 14.9804C0.0130502 14.8983 0.0704349 14.8314 0.148516 14.8075C2.49941 14.0922 3.36018 12.6089 3.6678 11.4905C3.6932 11.3969 3.77693 11.3329 3.87476 11.3357C3.97072 11.3386 4.05162 11.4074 4.07138 11.5019C4.35171 12.8295 4.38182 15.0864 4.38182 15.9938C4.4392 18.0969 1.42321 18.671 0.431677 18.8591C0.377114 18.8696 0.329137 18.8792 0.287744 18.8868L0.248234 18.8926ZM2.58031 15.3682C2.64146 15.3682 2.69979 15.3959 2.74024 15.4437C2.78916 15.5019 2.80233 15.5831 2.77504 15.6547C2.40628 16.6385 2.03092 17.4866 1.12876 18.2822C2.29433 17.9986 4.00364 17.3816 3.96601 16.0005C3.96601 15.2631 3.94626 13.6395 3.78916 12.3682C3.33572 13.3539 2.44485 14.4198 0.709193 15.0635C1.07608 15.2584 1.52105 15.4236 2.03845 15.4236C2.20308 15.4236 2.37147 15.4064 2.53986 15.373L2.58031 15.3682Z" fill="#343333"/>
<path d="M3.20508 14.5326C3.22483 15.5919 4.20602 15.2385 4.17592 16.0818L4.18626 13.4553L3.39605 13.6243L3.20508 14.5326Z" fill="#D9D8D8"/>
<path d="M4.17577 16.2936H4.17107C4.05724 16.2908 3.96693 16.1972 3.96787 16.0816V16.0195C3.96035 15.796 3.86063 15.7273 3.63673 15.5907C3.37239 15.4293 3.00832 15.2086 2.99609 14.5372L3.0008 14.4894L3.19083 13.5811C3.20776 13.499 3.27079 13.4359 3.35169 13.4188L4.14191 13.2497C4.20305 13.2373 4.26797 13.2516 4.31594 13.2927C4.36486 13.3337 4.39308 13.3939 4.39308 13.4579L4.38274 16.0157V16.0912C4.37897 16.2039 4.28772 16.2936 4.17577 16.2936ZM3.41378 14.5525C3.42789 14.9708 3.6151 15.0854 3.85122 15.2287C3.89073 15.2526 3.93024 15.2764 3.97069 15.3041L3.97634 13.7158L3.56994 13.8027L3.41378 14.5525Z" fill="#343333"/>
<path d="M19.8249 16.0445C19.7694 18.0836 22.9867 18.5774 23.7506 18.7302C22.3 17.7885 21.8607 16.8085 21.4185 15.629C22.3837 15.819 23.1476 15.4762 23.7911 15.0578C21.5389 14.373 20.5135 12.9843 20.1316 11.5956C19.8296 13.0234 19.8249 15.565 19.8249 16.0445Z" fill="white"/>
<path d="M23.7516 18.9416L23.7111 18.9378C23.6697 18.9301 23.6218 18.9206 23.5672 18.9101C22.5766 18.7219 19.5606 18.1469 19.618 16.039C19.618 15.1364 19.6481 12.8805 19.9294 11.5519C19.9491 11.4573 20.03 11.3876 20.126 11.3857C20.221 11.3838 20.3076 11.4459 20.333 11.5395C20.6406 12.6589 21.5013 14.1422 23.8513 14.8566C23.9294 14.8795 23.9868 14.9483 23.9981 15.0295C24.0093 15.1116 23.9727 15.1918 23.904 15.2367C23.4327 15.5433 22.7864 15.8938 21.9604 15.8938C21.888 15.8938 21.8146 15.891 21.7412 15.8862C22.1495 16.9177 22.6133 17.741 23.8645 18.5529C23.9482 18.6073 23.983 18.7152 23.9454 18.8098C23.9124 18.891 23.8353 18.9416 23.7516 18.9416ZM20.2107 12.4182C20.0545 13.6885 20.0347 15.3112 20.0347 16.0447C19.9971 17.4296 21.7064 18.0476 22.8729 18.3313C21.9698 17.5366 21.5945 16.6894 21.2257 15.7047C21.1994 15.6331 21.2125 15.5529 21.2615 15.4946C21.3094 15.4354 21.3866 15.4077 21.46 15.423C21.6283 15.4564 21.7977 15.4726 21.9623 15.4726C22.4806 15.4726 22.9256 15.3083 23.2925 15.1135C21.555 14.4698 20.6641 13.4029 20.2107 12.4182Z" fill="#343333"/>
<path d="M20.7957 14.5825C20.7759 15.6408 19.7957 15.2951 19.8249 16.1384L19.8973 13.2234L20.4589 13.5816L20.8023 14.5959L20.7957 14.5825Z" fill="#D9D8D8"/>
<path d="M19.8241 16.3497C19.7121 16.3497 19.6209 16.2599 19.6162 16.1463C19.6143 16.0966 19.6152 16.0498 19.619 16.0068L19.6886 13.2179C19.6905 13.1415 19.7328 13.0727 19.7987 13.0374C19.8645 13.0011 19.9445 13.0049 20.0075 13.0441L20.5691 13.4042C20.6096 13.429 20.6397 13.4691 20.6557 13.514L20.9991 14.5283C21.0132 14.5713 21.0132 14.6172 21.0009 14.6582C20.9652 15.2733 20.619 15.4873 20.3641 15.6439C20.1721 15.7614 20.0564 15.833 20.0357 16.0326L20.0329 16.1453C20.0301 16.259 19.9379 16.3497 19.826 16.3507H19.8241V16.3497ZM20.095 13.6L20.0517 15.3421C20.0837 15.3211 20.1166 15.302 20.1477 15.2819C20.3829 15.1377 20.5691 15.0231 20.5861 14.6105L20.286 13.7213L20.095 13.6Z" fill="#343333"/>
<path d="M20.4695 9.65339C19.2174 9.9361 16.6605 10.8568 12.0029 10.8568C7.34627 10.8568 4.78841 9.93515 3.53724 9.65339C3.17976 9.57221 2.85991 9.89121 2.92952 10.2551C3.20139 11.6782 3.28512 13.9294 3.20516 14.5951C3.70469 13.3697 6.26442 15.1357 12.0029 15.1357C17.7423 15.1357 20.3021 13.3688 20.8016 14.5951C20.7207 13.9294 20.8044 11.6782 21.0763 10.2551C21.1459 9.89121 20.826 9.57221 20.4695 9.65339Z" fill="white"/>
<path d="M12.002 15.3485C9.20331 15.3485 7.11582 14.9235 5.73388 14.6427C5.00011 14.4928 4.41968 14.3753 4.01798 14.3753C3.60312 14.3753 3.46954 14.4966 3.39616 14.678C3.35571 14.7755 3.25129 14.828 3.15063 14.8013C3.04997 14.7736 2.98506 14.6752 2.99729 14.5711C3.07913 13.8977 2.98694 11.6685 2.72447 10.297C2.68308 10.0821 2.73764 9.86238 2.87405 9.69524C3.04432 9.48607 3.31808 9.38865 3.58054 9.44786C3.79127 9.49562 4.0368 9.56056 4.32184 9.63602C5.75081 10.0133 8.1431 10.6465 12.002 10.6465C15.8618 10.6465 18.2532 10.0142 19.6821 9.63602C19.9662 9.56056 20.2118 9.49657 20.4225 9.44786C20.685 9.38865 20.9587 9.48607 21.129 9.69524C21.2654 9.86333 21.32 10.083 21.2795 10.297C21.017 11.6685 20.9249 13.8977 21.0067 14.5711C21.0199 14.6752 20.954 14.7736 20.8534 14.8013C20.7527 14.828 20.6483 14.7755 20.6078 14.678C20.5344 14.4966 20.3999 14.3753 19.9851 14.3753C19.5834 14.3753 19.0039 14.4928 18.2692 14.6427C16.8891 14.9235 14.8016 15.3485 12.002 15.3485ZM4.01892 13.9522C4.46201 13.9522 5.05938 14.0744 5.81667 14.2282C7.26351 14.5224 9.2447 14.9264 12.002 14.9264C14.7593 14.9264 16.7405 14.5224 18.1873 14.2282C18.9446 14.0744 19.542 13.9522 19.9851 13.9522C20.16 13.9522 20.3708 13.9684 20.5627 14.0563C20.5486 13.0706 20.6492 11.3734 20.8703 10.2158C20.8882 10.1241 20.8656 10.0343 20.8082 9.96362C20.7367 9.87575 20.6238 9.83468 20.5128 9.85951C20.3096 9.90536 20.0669 9.97031 19.7875 10.0439C18.3388 10.4268 15.9145 11.0677 12.002 11.0677C8.08948 11.0677 5.66521 10.4268 4.21648 10.0439C3.93614 9.97031 3.69343 9.90536 3.49023 9.85951C3.37923 9.83468 3.26634 9.87575 3.19484 9.96362C3.13746 10.0353 3.11488 10.125 3.13181 10.2158C3.35383 11.3724 3.45448 13.0696 3.43943 14.0563C3.63228 13.9684 3.84395 13.9522 4.01892 13.9522Z" fill="#343333"/>
<path d="M6.67874 11.9019C6.62699 11.8169 6.55644 11.7424 6.46801 11.6784C6.38523 11.6182 6.28551 11.5705 6.17262 11.538L6.19143 11.4463L6.17544 11.4215L5.74459 11.3307L5.72013 11.3479L5.70225 11.4377C5.59125 11.4224 5.48494 11.4272 5.38617 11.4492C5.28175 11.4721 5.18579 11.5141 5.10112 11.5695C5.0174 11.6278 4.94496 11.7004 4.88852 11.7863C4.83113 11.8723 4.79068 11.9716 4.76905 12.0805C4.74553 12.198 4.74176 12.3097 4.75776 12.4129C4.77469 12.517 4.81044 12.6116 4.86406 12.6966C4.91862 12.7816 4.99106 12.8542 5.07855 12.9153C5.16227 12.9735 5.26199 13.0184 5.37488 13.0509L5.3476 13.1856L5.35042 13.2018L5.36359 13.2114L5.79539 13.3011L5.80009 13.3021L5.82079 13.2849L5.84807 13.1493C5.96378 13.1636 6.07196 13.1588 6.17074 13.1378C6.27516 13.1149 6.36923 13.0748 6.45108 13.0184C6.53292 12.9611 6.6016 12.8876 6.65616 12.7997C6.71072 12.7118 6.75023 12.6096 6.77281 12.4969C6.79445 12.3881 6.79821 12.283 6.78316 12.1827C6.76528 12.0805 6.73048 11.9869 6.67874 11.9019ZM6.29962 12.241C6.3015 12.2925 6.29586 12.347 6.28551 12.4033C6.27328 12.4626 6.25352 12.516 6.22718 12.5619C6.20178 12.6077 6.17074 12.6459 6.13687 12.6765C6.10301 12.7071 6.06538 12.729 6.02398 12.7434C5.99106 12.7548 5.95813 12.7615 5.92427 12.7625L6.09454 11.9248C6.13499 11.9401 6.1698 11.9611 6.19708 11.9888C6.22906 12.0203 6.25446 12.0585 6.27046 12.0996C6.28833 12.1426 6.29774 12.1903 6.29962 12.241ZM5.24976 12.1884C5.27234 12.0748 5.32032 11.9831 5.39181 11.9162C5.45672 11.8561 5.5301 11.8265 5.61947 11.8265H5.62323L5.45296 12.6631C5.36641 12.6249 5.30526 12.5667 5.27046 12.4903C5.23283 12.4062 5.22624 12.304 5.24976 12.1884Z" fill="#1072BA"/>
<path d="M8.55532 12.0492C8.49981 11.9518 8.42173 11.8678 8.32578 11.8047C8.22888 11.7398 8.10941 11.6978 7.96924 11.6796C7.82907 11.6605 7.70207 11.6701 7.59106 11.7063C7.481 11.7426 7.3841 11.8019 7.30414 11.883C7.22512 11.9633 7.16021 12.0617 7.11129 12.1763C7.06331 12.2909 7.02945 12.4189 7.01157 12.5564C6.9937 12.6978 6.9937 12.8324 7.01063 12.9566C7.02851 13.0808 7.06614 13.1925 7.12446 13.289C7.18185 13.3845 7.26087 13.4647 7.35776 13.5268C7.45372 13.5898 7.57413 13.6309 7.7143 13.649C7.75852 13.6548 7.80273 13.6567 7.84412 13.6567C7.92785 13.6567 8.00781 13.6443 8.08119 13.6213C8.19031 13.5851 8.28627 13.5268 8.36623 13.4475C8.44525 13.3692 8.5111 13.2699 8.5619 13.1553C8.61176 13.0406 8.64563 12.9117 8.66444 12.7732C8.68232 12.6376 8.68232 12.5058 8.66538 12.3826C8.64751 12.2594 8.61082 12.1467 8.55532 12.0492ZM8.15927 12.4752C8.15927 12.5488 8.15362 12.6261 8.14328 12.7073C8.13199 12.7952 8.11505 12.8764 8.0953 12.9461C8.0746 13.0158 8.0492 13.076 8.01722 13.1228C7.98711 13.1686 7.95042 13.204 7.90903 13.2259C7.86764 13.2489 7.8206 13.2555 7.76604 13.2489C7.70866 13.2412 7.66068 13.2212 7.62493 13.1906C7.58918 13.16 7.5619 13.118 7.54309 13.0664C7.52427 13.0149 7.51392 12.9509 7.51204 12.8783C7.51016 12.8028 7.51487 12.7178 7.52709 12.6242C7.53744 12.544 7.55249 12.4685 7.57131 12.3988C7.59012 12.3291 7.61552 12.2699 7.64657 12.2183C7.67761 12.1696 7.71524 12.1314 7.75946 12.1065C7.79238 12.0874 7.83095 12.0779 7.87329 12.0779L7.91562 12.0808C7.97488 12.0884 8.02286 12.1104 8.05579 12.1438C8.08965 12.1791 8.11599 12.225 8.13199 12.2804C8.1508 12.3386 8.15927 12.4036 8.15927 12.4752Z" fill="#1072BA"/>
<path d="M10.3518 12.1175C10.3057 12.0592 10.2446 12.0115 10.1684 11.9752C10.0931 11.9389 9.99996 11.9169 9.89178 11.9083L9.04888 11.8481L9.03383 11.8529L9.02631 11.8672L9.00373 12.1987L9.02348 12.2206L9.16553 12.2311L9.08369 13.4002L8.9407 13.3906L8.91906 13.4097L8.89648 13.7412L8.91624 13.7641L9.74314 13.8243H9.74409L9.75726 13.8185L9.76478 13.8042L9.7883 13.4737L9.76854 13.4508L9.57663 13.4365L9.59827 13.1242L9.84192 13.1414C9.93976 13.148 10.0263 13.1366 10.1016 13.107C10.1768 13.0774 10.2408 13.0353 10.2925 12.9809C10.3443 12.9265 10.3847 12.8625 10.4129 12.7918C10.4412 12.7211 10.4581 12.6466 10.4637 12.5683C10.4694 12.4804 10.4647 12.3973 10.4478 12.3219C10.4299 12.2436 10.3979 12.1757 10.3518 12.1175ZM9.65754 12.2665L9.7676 12.2741C9.83157 12.2789 9.87861 12.3018 9.90871 12.3438C9.93976 12.3868 9.95199 12.4537 9.94634 12.5416C9.9407 12.6218 9.92 12.681 9.88425 12.7192C9.85321 12.7536 9.81276 12.7689 9.76196 12.7689L9.74409 12.7679L9.62179 12.7593L9.65754 12.2665Z" fill="#1072BA"/>
<path d="M13.014 11.9816L12.2689 11.9797L12.2501 11.994C12.2313 12.0475 12.2078 12.1105 12.1814 12.186C12.1532 12.2614 12.1259 12.3379 12.0977 12.4162C12.0695 12.4945 12.0422 12.5709 12.0159 12.6435C11.9886 12.7151 11.966 12.7762 11.9481 12.825L11.9162 12.9138L11.8973 12.9654C11.8795 12.9176 11.8597 12.8651 11.8371 12.8059C11.7873 12.6721 11.7355 12.5356 11.6819 12.3971C11.6283 12.2586 11.5765 12.1239 11.5267 11.9931L11.5069 11.9797L10.7619 11.9787L10.7412 11.9997L10.7402 12.3312L10.7468 12.3464L10.7619 12.3522L10.9143 12.3531L10.9133 13.5222H10.7609L10.7459 13.5279L10.7402 13.5432V13.8746L10.7609 13.8956L11.5013 13.8975L11.5154 13.8909L11.521 13.8765L11.522 13.5451L11.5013 13.5231H11.3743L11.3752 12.7466L11.4025 12.8211C11.4524 12.9482 11.5003 13.0704 11.5474 13.1898C11.5944 13.3092 11.6433 13.4315 11.6951 13.5566L11.7139 13.569L12.0883 13.5699L12.1081 13.5556C12.1241 13.5107 12.1429 13.4592 12.1645 13.4018C12.1861 13.3436 12.2087 13.2834 12.2313 13.2213C12.2539 13.1592 12.2765 13.0972 12.299 13.037L12.3611 12.8689C12.3743 12.8326 12.3865 12.7973 12.3987 12.7638L12.4035 12.7524L12.4025 13.526L12.2896 13.5251L12.2746 13.5317L12.2689 13.5461L12.268 13.8775L12.2887 13.8985L13.013 13.8995L13.0337 13.8775V13.5461L13.0281 13.5317L13.014 13.5251H12.8851L12.887 12.356H13.0159L13.0366 12.335L13.0375 12.0036L13.0309 11.9892L13.014 11.9816Z" fill="#1072BA"/>
<path d="M14.9301 11.8396L14.2527 11.8883L14.2386 11.896L14.2339 11.9112L14.2574 12.2427L14.2791 12.2608L14.3873 12.2532L14.2828 12.6276L14.2048 12.9256L14.0825 12.6534L13.9056 12.2866L14.0063 12.279L14.0251 12.257L14.0016 11.9256L13.995 11.9112L13.9799 11.9065L13.2932 11.9561L13.2791 11.9628L13.2734 11.9791L13.297 12.3095L13.3195 12.3296L13.4221 12.3219L13.9414 13.3086L13.9611 13.32L14.0411 13.3143L14.0213 13.3821C14.011 13.4155 13.9978 13.4385 13.9818 13.4518L13.9254 13.4738L13.8746 13.4757L13.851 13.4748C13.8228 13.4738 13.7852 13.4709 13.7391 13.4633L13.7222 13.4671L13.7146 13.4815L13.6723 13.8138L13.6883 13.8368C13.7654 13.8568 13.836 13.8683 13.8981 13.874C13.9329 13.8769 13.9668 13.8778 13.9978 13.8778L14.0646 13.875C14.1615 13.8683 14.2443 13.8368 14.3082 13.7833C14.3713 13.7288 14.423 13.639 14.4606 13.5139L14.8539 12.2169L14.9583 12.2092L14.9724 12.2026L14.9771 12.1863L14.9545 11.8559L14.9301 11.8396Z" fill="#1072BA"/>
<path d="M17.0358 13.1166L16.889 13.1366L16.7329 11.9752L16.8796 11.9542L16.8937 11.9466L16.8985 11.9313L16.8542 11.6027L16.8307 11.5846L15.2757 11.7995L15.2578 11.8233L15.302 12.1519L15.3105 12.1662L15.3255 12.17L15.5165 12.1433L15.5466 12.3649C15.5673 12.5206 15.5805 12.6543 15.5861 12.7632C15.5918 12.8711 15.5852 12.9666 15.5683 13.0449C15.5513 13.1223 15.5212 13.1911 15.4789 13.2484C15.4356 13.3066 15.3745 13.3601 15.2973 13.4098L15.2889 13.4365L15.4478 13.7765L15.4667 13.789L15.4742 13.787C15.6238 13.7269 15.7404 13.6466 15.8204 13.5483C15.9013 13.4489 15.9587 13.3315 15.9897 13.1987C16.0217 13.0669 16.0349 12.9169 16.0273 12.7527C16.0207 12.5893 16.0038 12.4079 15.9775 12.214L15.9596 12.0822L16.2428 12.0421L16.3989 13.2035L16.2738 13.2207L16.2597 13.2283L16.2559 13.2445L16.3001 13.5731L16.3237 13.5912L17.0847 13.4852L17.0988 13.4776L17.1026 13.4623L17.0584 13.1338L17.0358 13.1166Z" fill="#1072BA"/>
<path d="M19.1837 12.6931L19.1592 12.6769L19.0482 12.7017L18.2862 11.3034L18.2636 11.2929L17.7208 11.4104L17.7048 11.4295L17.5402 13.0274L17.432 13.0503L17.4188 13.0599L17.416 13.0761L17.4837 13.4009L17.4932 13.4142L17.5044 13.4171L17.5091 13.4161L18.1855 13.271L18.2015 13.2461L18.1338 12.9214L18.1084 12.9051L17.9955 12.929L18.0068 12.7762L18.496 12.6711L18.5656 12.8068L18.4593 12.8297L18.4433 12.8545L18.511 13.1793L18.5204 13.1917L18.5355 13.1955L19.2363 13.0436L19.2523 13.0188L19.1837 12.6931ZM18.1949 12.0732C18.2392 12.1602 18.2843 12.2509 18.3285 12.3426L18.036 12.4056C18.0388 12.3626 18.0425 12.3158 18.0463 12.2633C18.051 12.2003 18.0557 12.1382 18.0604 12.0771C18.0651 12.0159 18.0689 11.9586 18.0726 11.9051L18.0764 11.8364C18.115 11.9166 18.1554 11.9959 18.1949 12.0732Z" fill="#1072BA"/>
</g>
<defs>
<clipPath id="clip0">
<rect width="24" height="23" fill="white"/>
</clipPath>
</defs>
</svg>
