<svg width="142" height="41" viewBox="0 0 142 41" fill="none" xmlns="http://www.w3.org/2000/svg">
<g clip-path="url(#clip0)">
<path d="M5.13694 36.8383C6.43645 36.9411 7.43594 36.9681 8.32082 36.9681C11.1103 36.9681 13.4447 36.8231 15.5549 34.7129C16.0555 34.2123 38.5078 11.7617 38.5078 11.7617C38.7438 11.5257 39.123 11.5257 39.359 11.7617C39.5932 11.996 39.5932 12.3769 39.359 12.6129C39.359 12.6129 12.9576 39.2637 12.5497 39.557C11.6547 40.2042 11.3732 40.2902 8.21969 40.2902C7.01625 40.2902 5.52629 40.1958 5.52629 40.1958C5.19425 40.1958 4.91277 40.0003 4.83355 39.5873L4.53522 37.6406C4.45095 37.2057 4.71389 36.8063 5.13694 36.8383Z" fill="#1072BA"/>
<path d="M8.21963 40.5887C7.06845 40.5887 5.64253 40.5011 5.51781 40.4926C5.01553 40.4893 4.64136 40.164 4.54191 39.6432L4.2419 37.6863C4.18122 37.3812 4.25201 37.0711 4.4391 36.8419C4.61607 36.6261 4.87227 36.5166 5.16048 36.5385C6.27964 36.6261 7.28419 36.6683 8.32076 36.6683C11.1642 36.6683 13.3334 36.5132 15.3442 34.5008L38.2971 11.5479C38.4673 11.3793 38.6915 11.2832 38.9325 11.2832C39.1735 11.2832 39.3994 11.3793 39.5696 11.5479C39.9202 11.8984 39.9202 12.4715 39.5696 12.8204C36.8661 15.5492 13.1412 39.4982 12.7266 39.7982C11.7693 40.4893 11.422 40.5887 8.21963 40.5887ZM5.08801 37.1352C5.01048 37.1352 4.94811 37.1638 4.89923 37.2228C4.82844 37.3105 4.80148 37.4453 4.82844 37.5835L5.13015 39.5437C5.17397 39.7746 5.31049 39.8977 5.52792 39.8977H5.54646C5.56163 39.8994 7.04148 39.9937 8.21963 39.9937C11.3192 39.9937 11.5451 39.9162 12.376 39.3162C12.8716 38.9015 30.1056 21.5293 39.1465 12.4024C39.2662 12.2844 39.2662 12.0906 39.1482 11.9726C39.0336 11.858 38.833 11.858 38.7184 11.9726L15.7655 34.9238C13.5963 37.093 11.2114 37.2666 8.32076 37.2666C7.26734 37.2666 6.24931 37.2245 5.11498 37.1368L5.08801 37.1352Z" fill="#343333"/>
<path d="M37.6583 36.8366C36.3571 36.9394 35.3593 36.9664 34.4744 36.9664C31.6849 36.9664 29.3505 36.8214 27.2403 34.7112C26.738 34.2106 4.44416 11.9168 4.44416 11.9168C4.20988 11.6808 3.82727 11.6808 3.59299 11.9168C3.35702 12.151 3.35702 12.5336 3.59299 12.7679C3.59299 12.7679 29.8359 39.262 30.2438 39.557C31.1388 40.2042 31.4203 40.2901 34.5738 40.2901C35.7773 40.2901 37.2672 40.1958 37.2672 40.1958C37.5993 40.1958 37.8807 40.0002 37.96 39.5873L38.2583 37.6406C38.3442 37.204 38.0813 36.8046 37.6583 36.8366Z" fill="#1072BA"/>
<path d="M34.5738 40.5901C31.3714 40.5901 31.0242 40.4906 30.0685 39.7996C29.6539 39.4996 6.06726 15.6922 3.3806 12.9785C3.03171 12.628 3.03171 12.0566 3.38229 11.706C3.55252 11.5374 3.77838 11.4447 4.0194 11.4447C4.25874 11.4447 4.48628 11.5374 4.65651 11.706C4.65651 11.706 26.9504 34.0015 27.4526 34.5021C29.4651 36.5146 31.6326 36.6697 34.476 36.6697C35.5126 36.6697 36.5172 36.6292 37.6363 36.5399C37.9245 36.518 38.1807 36.6275 38.3594 36.8433C38.5465 37.0708 38.6173 37.3826 38.5549 37.6995L38.2583 39.6327C38.1555 40.1637 37.7813 40.489 37.2807 40.4923C37.1509 40.5024 35.725 40.5901 34.5738 40.5901ZM4.01771 12.0397C3.93681 12.0397 3.85928 12.0734 3.80366 12.1291C3.68567 12.247 3.68567 12.4409 3.80366 12.5589C12.7923 21.6335 29.9236 38.9046 30.4258 39.3243C31.2484 39.9159 31.4742 39.9951 34.5738 39.9951C35.7536 39.9951 37.2335 39.9007 37.247 39.899H37.2672C37.4846 39.899 37.6195 39.776 37.6667 39.5333L37.9633 37.5967C37.9936 37.4467 37.9667 37.3118 37.8942 37.2242C37.8403 37.1585 37.7678 37.1298 37.6801 37.1365C36.5441 37.2242 35.5261 37.2663 34.4727 37.2663C31.5821 37.2663 29.1971 37.0927 27.0279 34.9235C26.5273 34.4229 4.23346 12.1291 4.23346 12.1291C4.17615 12.0717 4.09862 12.0397 4.01771 12.0397Z" fill="#343333"/>
<path d="M8.36914 13.1692C12.7143 12.3518 17.0848 10.7185 21.4636 8.3201C25.6757 10.6865 30.0242 12.3771 34.5582 13.1692L33.2806 28.9217C29.7967 32.6197 25.8257 35.7311 21.4653 38.3857C17.1387 36.0598 13.2301 32.945 9.74955 29.1021L8.36914 13.1692Z" fill="#FFCD03"/>
<path d="M21.4638 8.32C25.6758 10.6847 30.0243 12.3769 34.5583 13.1674L33.2807 28.92C29.7968 32.6179 25.8258 35.7293 21.4654 38.3839C17.1388 36.058 13.2302 32.9432 9.74966 29.1003L8.37094 13.1658C12.7144 12.3517 17.0849 10.7168 21.4638 8.32ZM21.4638 7.57501C21.3407 7.57501 21.2177 7.60367 21.1048 7.66603C16.7697 10.0392 12.438 11.6438 8.23104 12.4343C7.85518 12.5067 7.59224 12.8506 7.62595 13.2332L9.00468 29.1677C9.01985 29.3295 9.08558 29.4846 9.19514 29.6043C12.7481 33.5264 16.7579 36.7035 21.1098 39.043C21.2194 39.1019 21.3424 39.1306 21.4621 39.1306C21.5969 39.1306 21.7318 39.0952 21.8497 39.0227C26.414 36.2434 30.4423 33.019 33.82 29.4323C33.9363 29.3093 34.0071 29.1509 34.0206 28.9823L35.2999 13.2281C35.3302 12.8455 35.0639 12.5 34.6847 12.4326C30.4137 11.6876 26.2067 10.1285 21.8261 7.66771C21.7149 7.60704 21.5902 7.57501 21.4638 7.57501Z" fill="#343333"/>
<path d="M10.7903 14.1892C14.4157 13.4442 17.8524 12.2408 21.0751 10.5233C21.2975 10.4053 21.5605 10.4019 21.783 10.5165C25.0275 12.1902 28.444 13.4476 32.0711 14.1926C32.4487 14.2684 32.7049 14.619 32.6712 15.0016L31.5453 28.032C31.5301 28.209 31.4543 28.3759 31.3295 28.5006C28.7558 31.1047 25.4927 33.5638 21.8049 35.9336C21.5723 36.0819 21.2756 36.0954 21.0312 35.9639C17.3249 33.9531 14.1696 31.4435 11.5032 28.4972C11.392 28.3742 11.3246 28.2158 11.3094 28.0506L10.1801 14.9982C10.1498 14.6122 10.4127 14.2684 10.7903 14.1892Z" fill="#B81F25"/>
<path d="M16.6914 27.8002L20.7399 28.1743L20.7197 29.4519L20.2781 29.4739L20.236 29.1435L19.2567 29.0626L19.2887 32.4218L19.5534 32.7083L19.5753 33.2814L18.2319 32.4656L18.1662 31.9819L18.4746 32.0476L18.4308 28.8351L17.3083 28.5923L17.2206 29.098L16.7352 28.9446L16.6914 27.8002Z" fill="white"/>
<path d="M16.6911 27.8001L20.7397 28.1743L20.7178 29.4502L20.2779 29.4721L20.234 29.1418L19.2548 29.0625L19.2868 32.4217L19.5514 32.7082L19.5733 33.2813L18.2317 32.4655L18.1659 31.9818L18.4744 32.0475L18.4306 28.835L17.308 28.5923L17.2204 29.0996L16.735 28.9462L16.6911 27.8001ZM16.6911 27.3535C16.5765 27.3535 16.467 27.3973 16.3827 27.4765C16.2883 27.5658 16.2394 27.6906 16.2445 27.8187L16.2883 28.9631C16.2967 29.1519 16.4215 29.3154 16.6001 29.3727L17.0839 29.5261L17.2204 29.5463C17.3013 29.5463 17.3805 29.5244 17.4513 29.4822C17.5625 29.4148 17.6384 29.3036 17.6603 29.1755L17.6687 29.13L17.9873 29.1974L18.0193 31.5587C17.9603 31.579 17.9081 31.611 17.8609 31.6531C17.7547 31.7526 17.7024 31.8958 17.721 32.0408L17.7867 32.5245C17.8053 32.6577 17.8828 32.7757 17.9991 32.8448L19.3407 33.6589C19.4115 33.7027 19.4924 33.7229 19.5733 33.7229C19.6525 33.7229 19.7301 33.7027 19.7992 33.6622C19.9408 33.578 20.025 33.4229 20.02 33.2577L19.9981 32.6863C19.9947 32.5801 19.9526 32.4773 19.8801 32.3998L19.7334 32.2397L19.7082 29.5446L19.8396 29.5547C19.8801 29.7637 20.0655 29.9171 20.2779 29.9171L20.3015 29.9154L20.7414 29.8935C20.9773 29.8817 21.161 29.6895 21.1661 29.4536L21.188 28.1777C21.1914 27.9434 21.0144 27.7462 20.7818 27.7243L16.7316 27.3501L16.6911 27.3535Z" fill="#8D191C"/>
<path d="M24.2363 30.2058L25.0167 31.4362L25.497 31.1227L25.4364 31.7817L24.147 32.7576L24.1604 32.1273L24.3863 31.9014L23.7863 30.8379L22.775 32.8031L23.0345 32.702L23.016 33.4622L21.6339 34.0234L21.5547 33.1824L21.8952 33.0829L23.316 30.2614L22.3165 28.6805L21.9154 28.7007L21.9407 28.0973L23.3817 28.1057L23.4761 28.6805L23.1761 28.7007L23.7964 29.5603L24.3357 28.5406L24.0964 28.5203L24.1604 28.045L25.7381 27.8799L25.6167 28.4799L25.2914 28.5102L24.2363 30.2058Z" fill="white"/>
<path d="M25.7364 27.8807L25.6167 28.4808L25.2914 28.5111L24.2363 30.2067L25.0167 31.4371L25.497 31.1219L25.4363 31.7826L24.147 32.7602L24.1621 32.1281L24.388 31.9023L23.7879 30.8388L22.7767 32.8023L23.0362 32.7029L23.016 33.463L21.6356 34.0226L21.5564 33.1816L21.8968 33.0821L23.316 30.259L22.3165 28.678L21.9154 28.6999L21.9407 28.0965L23.3817 28.1032L23.4761 28.678L23.1761 28.6999L23.7964 29.5595L24.3357 28.5398L24.0964 28.5195L24.1604 28.0442L25.7364 27.8807ZM25.7364 27.4341L25.6892 27.4358L24.1132 27.6009C23.9531 27.6161 23.8183 27.7189 23.7525 27.8588C23.6733 27.7375 23.5351 27.6583 23.3817 27.6583L21.9423 27.6515H21.9407C21.7013 27.6515 21.5041 27.8403 21.494 28.0796L21.4687 28.683C21.4637 28.8094 21.5109 28.9308 21.6002 29.0184C21.6845 29.101 21.7974 29.1482 21.9154 29.1482H21.939L22.0789 29.1415L22.8036 30.2876L21.585 32.7096L21.43 32.7551C21.2243 32.8158 21.0912 33.013 21.1114 33.2271L21.1906 34.0681C21.2041 34.2097 21.2833 34.3344 21.4047 34.4086C21.4755 34.4524 21.5564 34.4727 21.6373 34.4727C21.6946 34.4727 21.7502 34.4625 21.8058 34.4389L23.1862 33.8777C23.3514 33.8119 23.461 33.6535 23.4643 33.4748L23.4846 32.7332L23.4862 32.7029C23.4862 32.6304 23.4677 32.5613 23.4374 32.499L23.8065 31.7809L23.8318 31.8264C23.7593 31.9057 23.7188 32.0085 23.7155 32.1163L23.7003 32.7467C23.6969 32.9186 23.7913 33.0771 23.943 33.1563C24.0071 33.19 24.0778 33.2052 24.147 33.2052C24.243 33.2052 24.3374 33.1731 24.4166 33.1142L25.7077 32.1383C25.8071 32.0624 25.8712 31.9478 25.883 31.8231L25.9403 31.1809L25.9437 31.1202C25.9437 30.8742 25.7431 30.6736 25.497 30.6736H25.4936C25.4009 30.6736 25.3167 30.7022 25.2459 30.7494L25.1515 30.8118L24.7638 30.2016L25.5526 28.9325L25.6571 28.924C25.8543 28.9055 26.0161 28.7589 26.0549 28.565L26.1746 27.965C26.2032 27.8251 26.1628 27.6818 26.0667 27.5757C25.9808 27.4846 25.8611 27.4341 25.7364 27.4341Z" fill="#8D191C"/>
<path d="M22.9355 13.8797C23.1698 13.6336 24.0732 12.142 24.1373 11.3414C24.316 11.6599 24.8267 12.3611 25.243 12.4622C24.3143 12.7066 23.2575 13.5966 22.9355 13.8797Z" fill="#BF2026"/>
<path d="M22.9358 14.1046C22.8768 14.1046 22.8195 14.081 22.7757 14.0355C22.6931 13.9479 22.6914 13.8131 22.774 13.7254C22.983 13.5063 23.8561 12.0635 23.9151 11.3236C23.9218 11.2242 23.9943 11.1432 24.0904 11.123C24.1881 11.1011 24.2859 11.1449 24.3348 11.2309C24.5404 11.6 25.0022 12.1731 25.2972 12.2439C25.3966 12.2658 25.4691 12.3551 25.4691 12.4579C25.4708 12.5607 25.4017 12.6501 25.3022 12.677C24.4173 12.9096 23.3825 13.7844 23.0875 14.0456L22.9358 14.1046ZM24.2437 11.9017C24.1375 12.2338 23.9741 12.5961 23.8005 12.9282C24.0853 12.736 24.3988 12.5506 24.7174 12.4124C24.5404 12.2624 24.3769 12.077 24.2437 11.9017Z" fill="#343333"/>
<path d="M18.9028 18.6618C20.3472 17.1347 19.8433 17.669 22.1507 15.2301C23.5328 13.7705 25.4475 12.9177 26.2279 12.8958C27.8847 12.8519 29.9595 12.3109 31.5944 10.5866C33.8412 8.21349 34.0249 5.41727 32.422 3.90034C30.8208 2.38341 28.0381 2.7205 25.7913 5.09535C24.1935 6.78251 23.6204 8.84723 23.757 10.4737C23.8362 11.3923 22.6884 13.071 21.3568 14.4784C19.1219 16.8398 19.5247 16.4117 18.1359 17.8814C17.7196 18.3179 18.505 19.0815 18.9028 18.6618ZM25.3009 11.3552C24.2323 10.3439 24.5862 9.28377 24.7328 8.6062C25.102 6.89544 26.3745 5.64818 26.3745 5.64818C28.2926 3.62392 30.5983 3.27166 31.8827 4.48857C33.167 5.70212 32.9428 8.0264 31.0264 10.049C30.209 10.9136 29.2752 11.4429 28.3684 11.7496L27.8476 11.8845C27.8459 11.8878 26.3694 12.3648 25.3009 11.3552Z" fill="#FFCD03"/>
<path d="M18.6224 19.0804C18.2853 19.0804 17.933 18.831 17.7847 18.4888C17.66 18.1989 17.7089 17.8939 17.9162 17.6747L21.1371 14.2734C22.5867 12.7413 23.5204 11.2244 23.4581 10.498C23.2946 8.55798 24.0834 6.45955 25.5716 4.887C26.9183 3.46445 28.501 2.68239 30.0314 2.68239C31.036 2.68239 31.9327 3.0296 32.6237 3.68356C33.485 4.49934 33.8828 5.66063 33.7445 6.9534C33.6047 8.25459 32.917 9.61646 31.8062 10.7912C29.9033 12.802 27.4965 13.1593 26.2307 13.1947C25.5885 13.2133 23.7446 13.9768 22.3642 15.4364L19.1163 18.8664C18.9848 19.0063 18.8146 19.0804 18.6224 19.0804ZM30.0331 3.27905C28.6881 3.27905 27.2217 4.01392 26.0065 5.29657C24.6328 6.74777 23.903 8.67259 24.053 10.4457C24.1457 11.5362 22.8311 13.3498 21.5703 14.6813L18.3494 18.0826C18.3291 18.1045 18.2887 18.1467 18.3342 18.2512C18.3915 18.3843 18.5348 18.4821 18.6224 18.4821L18.6848 18.4534L21.9327 15.0218C22.8496 14.0526 24.9042 12.6301 26.2172 12.5947C27.3903 12.5627 29.6185 12.2323 31.3748 10.3783C32.3962 9.29959 33.0282 8.05907 33.1529 6.88766C33.2709 5.78199 32.9372 4.79935 32.2141 4.11336C31.636 3.56727 30.8826 3.27905 30.0331 3.27905Z" fill="#343333"/>
<path d="M27.0152 12.1485C26.518 12.1485 25.7983 12.0305 25.1983 11.4625C24.1516 10.4731 24.3909 9.42983 24.551 8.74047C24.5645 8.68317 24.5763 8.62923 24.5881 8.57529C24.9606 6.84093 26.218 5.59536 26.2702 5.54311C27.4147 4.33294 28.7883 3.63852 30.0356 3.63852C30.7974 3.63852 31.4699 3.89471 31.984 4.38013C33.3931 5.71503 33.0358 8.14213 31.1328 10.1546C30.3744 10.9535 29.4608 11.5384 28.4142 11.8923L27.8832 12.0305C27.8765 12.0356 27.5158 12.1485 27.0152 12.1485ZM30.0373 3.93854C28.8709 3.93854 27.5765 4.59924 26.4843 5.75211C26.4674 5.76897 25.2337 6.99431 24.8797 8.63934C24.8679 8.69328 24.8561 8.7489 24.8426 8.80621C24.6909 9.4686 24.4836 10.3737 25.4056 11.2468C25.9331 11.7457 26.5736 11.8519 27.0169 11.8519C27.4669 11.8519 27.799 11.7457 27.8023 11.7457L28.3316 11.6075C29.3209 11.2738 30.1957 10.7142 30.9205 9.95065C32.7037 8.06628 33.0678 5.81616 31.7818 4.59924C31.3233 4.16608 30.7199 3.93854 30.0373 3.93854Z" fill="#FBB03B"/>
<path d="M26.9163 13.0883C26.232 13.0883 25.2966 12.9163 24.4977 12.1579C23.8589 11.5528 23.1847 10.4404 23.6094 8.58466L23.6195 8.53747C23.6549 8.37566 23.8134 8.27453 23.9752 8.30993C24.137 8.34701 24.2381 8.50544 24.2027 8.66557L24.1909 8.71444C23.901 9.9853 24.142 10.9983 24.9089 11.723C26.1022 12.8523 27.7068 12.3972 27.7237 12.3922C27.8821 12.345 28.0473 12.436 28.0945 12.5944C28.14 12.7512 28.0507 12.918 27.8922 12.9652C27.8568 12.977 27.4658 13.0883 26.9163 13.0883Z" fill="#343333"/>
<path d="M20.2061 15.1504L16.7981 18.7506C16.4543 19.113 16.6633 19.4804 17.0256 19.8226C17.388 20.1664 17.7656 20.3535 18.1077 19.9911L21.4264 16.487C21.7703 16.1247 21.4652 15.9106 21.1028 15.5684C20.764 15.2465 20.3781 14.9684 20.2061 15.1504Z" fill="#D9E027"/>
<path d="M17.7043 20.484C17.4228 20.484 17.143 20.3424 16.8211 20.0391C16.5767 19.8081 16.4267 19.5924 16.3626 19.38C16.3003 19.1727 16.2868 18.8575 16.5817 18.5457L19.9898 14.9455C20.0825 14.8461 20.2072 14.7955 20.3471 14.7955C20.5072 14.7955 20.7803 14.8528 21.3078 15.3517L21.4039 15.4394C21.6399 15.6602 21.8657 15.8675 21.8742 16.1675C21.8809 16.3478 21.8034 16.5231 21.6432 16.6917L18.3245 20.1975C18.1425 20.3863 17.9352 20.484 17.7043 20.484ZM20.3808 15.4006L17.0149 18.9553C16.9037 19.0716 16.9155 19.1457 16.934 19.2064C16.966 19.316 17.0672 19.4491 17.2323 19.6042C17.4784 19.8385 17.6251 19.8874 17.7043 19.8874C17.743 19.8874 17.8054 19.8756 17.8914 19.7845L21.2101 16.2804C21.2724 16.2164 21.2775 16.1827 21.2775 16.1827C21.2691 16.127 21.1056 15.9754 20.9977 15.8742L20.8983 15.7815C20.605 15.5068 20.4449 15.4242 20.3808 15.4006Z" fill="#343333"/>
<path d="M22.8809 13.7203C23.1202 13.4793 24.5866 12.5371 25.3855 12.4495C25.0619 12.2809 24.3455 11.7905 24.2343 11.3758C24.0169 12.3096 23.1556 13.39 22.8809 13.7203Z" fill="#E43E3E"/>
<path d="M22.8805 13.9444C22.8266 13.9444 22.771 13.9258 22.7288 13.8854C22.6412 13.8062 22.6311 13.6696 22.7086 13.5769C22.9631 13.2736 23.8092 12.2151 24.0165 11.3235C24.0401 11.224 24.1278 11.1515 24.2306 11.1498C24.33 11.1465 24.4227 11.2173 24.4497 11.3167C24.5272 11.61 25.1138 12.055 25.488 12.2505C25.5756 12.296 25.6228 12.3937 25.6043 12.4898C25.5874 12.5859 25.5065 12.66 25.4087 12.6702C24.6722 12.7494 23.253 13.6595 23.0373 13.877C22.9934 13.9242 22.9361 13.9444 22.8805 13.9444ZM24.298 11.9033C24.1682 12.2235 23.9929 12.5421 23.8092 12.8336C24.1362 12.6499 24.4952 12.4763 24.8239 12.3617C24.6435 12.2319 24.4514 12.0735 24.298 11.9033Z" fill="#343333"/>
<path d="M29.9822 9.30987L29.6653 9.62674L29.849 9.81046C29.8928 9.85428 29.9501 9.87619 30.0074 9.87619C30.0647 9.87619 30.1221 9.85428 30.1659 9.81046C30.2535 9.72281 30.2535 9.58123 30.1659 9.49359L29.9822 9.30987ZM29.2776 8.60703L28.9608 8.9239L29.3484 9.31156L29.6653 8.99469L29.2776 8.60703ZM28.6102 7.93957L28.2933 8.25645L28.6439 8.60703L28.9608 8.29016L28.6102 7.93957ZM27.8062 7.2283C27.7489 7.2283 27.6916 7.25021 27.6478 7.29404C27.5601 7.38168 27.5601 7.52326 27.6478 7.61091L27.9781 7.93957L28.295 7.6227L27.9646 7.29404C27.9208 7.25021 27.8635 7.2283 27.8062 7.2283Z" fill="#BBBABA"/>
<path d="M30.7126 8.5818L30.3957 8.89867L30.6536 9.15655C30.6974 9.20037 30.7547 9.22059 30.812 9.22059C30.8693 9.22059 30.9266 9.19868 30.9704 9.15655C31.0581 9.0689 31.0581 8.92732 30.9704 8.83968L30.7126 8.5818ZM30.008 7.87727L29.6912 8.19414L30.0788 8.5818L30.3957 8.26493L30.008 7.87727ZM29.3406 7.20982L29.0237 7.52669L29.3743 7.87727L29.6912 7.5604L29.3406 7.20982ZM28.5872 6.45641L28.2754 6.77665L28.7085 7.20982L29.0254 6.89294L28.5872 6.45641ZM27.8843 5.84795C27.827 5.84795 27.7697 5.86986 27.7259 5.91368C27.6382 6.00133 27.6382 6.14291 27.7259 6.23055L27.9585 6.46315L28.2703 6.14291L28.0428 5.91537C27.9989 5.86817 27.9416 5.84795 27.8843 5.84795Z" fill="#BBBABA"/>
<path d="M31.4038 7.89028L31.0886 8.20547L31.2218 8.33862C31.2656 8.38245 31.3229 8.40436 31.3802 8.40436C31.4375 8.40436 31.4948 8.38245 31.5387 8.33862C31.6263 8.25098 31.6263 8.11108 31.5387 8.02175L31.4038 7.89028ZM30.6993 7.18575L30.3824 7.50094L30.7701 7.8886L31.0853 7.57341L30.6993 7.18575ZM30.0318 6.5183L29.7167 6.83349L30.0672 7.18407L30.3824 6.86888L30.0318 6.5183ZM29.27 5.75478L28.9582 6.07502L29.3998 6.51662L29.715 6.20143L29.27 5.75478ZM28.3902 4.96935C28.3329 4.96935 28.2756 4.99126 28.2317 5.03508C28.1441 5.12272 28.1441 5.26262 28.2317 5.35026L28.6413 5.75984L28.9531 5.43959L28.5486 5.03508C28.5031 4.99126 28.4475 4.96935 28.3902 4.96935Z" fill="#BBBABA"/>
<path d="M31.391 6.4942L31.0741 6.81107L31.241 6.97793C31.2848 7.02176 31.3421 7.04198 31.3994 7.04198C31.455 7.04198 31.5123 7.02007 31.5562 6.97793C31.6438 6.89029 31.6438 6.74871 31.5562 6.66106L31.391 6.4942ZM30.7252 5.82675L30.41 6.14362L30.7606 6.4942L31.0775 6.17733L30.7252 5.82675ZM29.9516 5.05649L29.6398 5.37673L30.0915 5.82844L30.4067 5.51325L29.9516 5.05649ZM29.2066 4.40083C29.1493 4.40083 29.092 4.42274 29.0482 4.46657C28.9605 4.55421 28.9605 4.69579 29.0482 4.78175L29.3246 5.05817L29.6364 4.73793L29.3633 4.46657C29.3195 4.42274 29.2639 4.40083 29.2066 4.40083Z" fill="#BBBABA"/>
<path d="M31.2798 4.72815C31.2225 4.72815 31.1652 4.75006 31.1214 4.79388L30.405 5.51021L30.0898 5.8254L29.714 6.20126L29.3988 6.51645L29.0229 6.89231L28.7061 7.20918L28.2931 7.62212L27.9779 7.93899L27.7571 8.15979C27.6695 8.24743 27.6695 8.38902 27.7571 8.47666C27.801 8.52048 27.8583 8.54071 27.9156 8.54071C27.9729 8.54071 28.0302 8.5188 28.074 8.47666L28.2948 8.25586L28.6117 7.93899L29.0246 7.52605L29.3415 7.20918L29.7174 6.83332L30.0325 6.51813L30.4084 6.14227L30.7236 5.8254L31.4399 5.10907C31.5276 5.02142 31.5276 4.87984 31.4399 4.7922C31.3944 4.75006 31.3371 4.72815 31.2798 4.72815Z" fill="#BBBABA"/>
<path d="M31.7808 5.56584C31.7234 5.56584 31.6661 5.58775 31.6223 5.63158L31.0745 6.17936L30.7577 6.49623L30.3818 6.87209L30.0666 7.18728L29.6908 7.56314L29.3739 7.88001L28.9609 8.29295L28.6441 8.60982L28.1165 9.13738C28.0289 9.22502 28.0289 9.3666 28.1165 9.45425C28.1587 9.49976 28.216 9.52167 28.2749 9.52167C28.3323 9.52167 28.3896 9.49976 28.4334 9.45425L28.9609 8.92669L29.2778 8.60982L29.6908 8.19688L30.0076 7.88001L30.3835 7.50415L30.7004 7.18896L31.0762 6.8131L31.3931 6.49623L31.9409 5.94845C32.0285 5.8608 32.0285 5.71922 31.9409 5.63158C31.8937 5.58607 31.8381 5.56584 31.7808 5.56584Z" fill="#BBBABA"/>
<path d="M31.4784 7.27353C31.4211 7.27353 31.3638 7.29544 31.32 7.33926L31.0874 7.57186L30.7722 7.88704L30.3964 8.26291L30.0795 8.57978L29.6666 8.99272L29.3497 9.30959L28.8255 9.83378C28.7379 9.92142 28.7379 10.063 28.8255 10.1506C28.8693 10.1945 28.9266 10.2164 28.9839 10.2164C29.0412 10.2164 29.0985 10.1945 29.1424 10.1506L29.6666 9.62646L29.9834 9.30959L30.3964 8.89665L30.7132 8.57978L31.0891 8.20391L31.4043 7.88873L31.6369 7.65613C31.7245 7.56849 31.7245 7.42691 31.6369 7.33926C31.5931 7.29713 31.5358 7.27353 31.4784 7.27353Z" fill="#BBBABA"/>
<path d="M30.2259 4.23286C30.1669 4.23286 30.1096 4.25478 30.0657 4.30028L29.6359 4.74019L29.3241 5.06044L28.9533 5.44135L28.6415 5.7616L28.2707 6.14251L27.9589 6.46276L27.6572 6.77288C27.5712 6.86222 27.5729 7.0038 27.6606 7.08976C27.7044 7.13189 27.76 7.1538 27.8173 7.1538C27.8746 7.1538 27.9336 7.13189 27.9774 7.08638L28.2758 6.77963L28.5876 6.45939L28.9584 6.07847L29.2702 5.75823L29.641 5.37731L29.9528 5.05706L30.386 4.6121C30.4719 4.52445 30.4719 4.38287 30.3826 4.29523C30.3388 4.25309 30.2815 4.23286 30.2259 4.23286Z" fill="#BBBABA"/>
<path d="M25.0274 18.1431C23.5408 16.6565 24.0616 17.1774 21.6867 14.8025C20.2659 13.3816 19.4653 11.445 19.4653 10.6646C19.4653 9.00782 18.9832 6.91782 17.3028 5.23571C14.992 2.9266 12.2025 2.66535 10.6418 4.22443C9.08102 5.78518 9.34227 8.57465 11.6531 10.8854C13.2964 12.5305 15.3443 13.1592 16.9758 13.0648C17.8961 13.0125 19.5411 14.2042 20.9131 15.5761C23.2121 17.8751 22.7975 17.4588 24.2268 18.8881C24.6532 19.3162 25.4369 18.551 25.0274 18.1431ZM17.8995 11.5462C16.8612 12.5844 15.8111 12.2035 15.1386 12.0383C13.438 11.6237 12.2261 10.3158 12.2261 10.3158C10.2541 8.34374 9.96758 6.02958 11.2182 4.77726C12.4688 3.52832 14.783 3.81485 16.755 5.78687C17.5961 6.62792 18.1 7.57348 18.3815 8.49038L18.5029 9.01625C18.5012 9.01625 18.9394 10.5045 17.8995 11.5462Z" fill="#FFCD03"/>
<path d="M24.5234 19.3119C24.3313 19.3119 24.1543 19.2377 24.0161 19.0995L20.7025 15.7858C19.2243 14.3077 17.7259 13.32 16.9927 13.3638C16.8832 13.3706 16.7719 13.3739 16.659 13.3739C14.7915 13.3739 12.8886 12.5447 11.4424 11.0968C10.2997 9.95408 9.57491 8.61244 9.39962 7.31462C9.22601 6.02354 9.59176 4.85382 10.4294 4.01445C11.1306 3.31329 12.0593 2.9408 13.1127 2.9408C14.6061 2.9408 16.1685 3.68072 17.5118 5.02574C19.4687 6.98427 19.762 9.39787 19.762 10.6637C19.762 11.3075 20.4749 13.17 21.8958 14.5908L25.2381 17.9315C25.442 18.1354 25.4943 18.427 25.378 18.7085C25.2347 19.0591 24.8757 19.3119 24.5234 19.3119ZM17.0365 12.7655C18.1338 12.7655 19.8681 14.1088 21.1255 15.3662L24.4392 18.6781L24.5251 18.7152C24.6347 18.7152 24.7796 18.604 24.8302 18.4809C24.8639 18.3967 24.8353 18.3697 24.8184 18.3528L21.4761 15.0105C20.5339 14.0683 19.1687 11.975 19.1687 10.662C19.1687 9.48889 18.899 7.25057 17.0938 5.44542C15.8634 4.21333 14.4493 3.53577 13.1161 3.53577C12.2245 3.53577 11.4424 3.8459 10.8542 4.43413C9.33894 5.94769 9.76368 8.57199 11.8655 10.6721C13.2004 12.0087 14.9499 12.7756 16.6607 12.7756C16.7618 12.7756 16.8629 12.7722 16.9607 12.7655H17.0365Z" fill="#343333"/>
<path d="M16.3139 12.3938C15.9195 12.3938 15.5571 12.2994 15.2672 12.2253C15.2116 12.2118 15.1577 12.1966 15.1054 12.1848C13.3795 11.7634 12.1693 10.4741 12.1188 10.4184C11.1648 9.46445 10.5428 8.35709 10.3676 7.30029C10.1956 6.26035 10.4603 5.32491 11.1142 4.67263C11.635 4.15182 12.3345 3.8754 13.1351 3.8754C14.3739 3.8754 15.697 4.51757 16.8617 5.68223C17.6404 6.46093 18.2 7.39131 18.5236 8.44642L18.6483 8.98072C18.6652 9.03634 19.0967 10.56 18.0062 11.6472C17.5056 12.1494 16.9527 12.3938 16.3139 12.3938ZM13.1334 4.17541C12.4137 4.17541 11.7884 4.42149 11.3249 4.885C10.7417 5.46649 10.5058 6.30923 10.6625 7.2531C10.826 8.24585 11.4193 9.2959 12.3328 10.2111C12.348 10.228 13.5396 11.4938 15.1745 11.8932C15.2285 11.9067 15.2841 11.9219 15.3414 11.9354C15.6296 12.0095 15.9583 12.0955 16.3139 12.0955C16.8701 12.0955 17.3539 11.8797 17.7955 11.4398C18.7579 10.4774 18.3635 9.07174 18.3601 9.05994L18.2371 8.52564C17.9303 7.52615 17.396 6.6379 16.651 5.89292C15.5571 4.80241 14.2762 4.17541 13.1334 4.17541Z" fill="#FBB03B"/>
<path d="M16.3032 13.324C15.9374 13.324 15.5329 13.2751 15.0863 13.1588L15.0391 13.147C14.8789 13.1082 14.7812 12.9447 14.8216 12.7863C14.8621 12.6262 15.0239 12.5284 15.1823 12.5672L15.2329 12.5807C16.4953 12.9043 17.5133 12.6919 18.26 11.9453C19.4146 10.789 19.0235 9.21646 19.005 9.14904C18.9629 8.99061 19.0589 8.8288 19.2174 8.78666C19.3775 8.74453 19.5393 8.83891 19.5814 8.99735C19.6033 9.07657 20.082 10.9643 18.6797 12.3666C18.2095 12.8386 17.4476 13.324 16.3032 13.324Z" fill="#343333"/>
<path d="M21.555 16.74L25.0608 20.2458C25.413 20.5981 25.7855 20.3992 26.1395 20.0469C26.4917 19.6947 26.6889 19.3222 26.3384 18.9699L22.9253 15.5585C22.573 15.2062 22.3505 15.5046 21.9982 15.8568C21.6679 16.1855 21.3797 16.5647 21.555 16.74Z" fill="#D9E027"/>
<path d="M25.4576 20.7291C25.2352 20.7291 25.0312 20.6381 24.8509 20.4561L21.3451 16.9503C20.9136 16.5205 21.5692 15.8615 21.7867 15.6457L21.8777 15.553C22.1052 15.3221 22.3193 15.1013 22.6193 15.1013C22.798 15.1013 22.9716 15.1839 23.1334 15.3457L26.5465 18.7588C26.8431 19.0554 27.0504 19.5577 26.3493 20.2589C26.147 20.4611 25.8352 20.7291 25.4576 20.7291ZM21.8103 16.5744L25.2722 20.0347C25.3599 20.1224 25.4206 20.1325 25.4576 20.1325C25.5386 20.1325 25.6835 20.0819 25.9279 19.8375C26.3543 19.4094 26.2161 19.2712 26.1251 19.1835L22.712 15.7688C22.648 15.7064 22.6176 15.6996 22.6176 15.6996C22.562 15.7064 22.4069 15.8665 22.3024 15.971L22.2064 16.0671C21.9215 16.3536 21.8355 16.5104 21.8103 16.5744Z" fill="#343333"/>
<path d="M20.198 14.0305C19.9638 13.7844 19.0603 12.291 18.9963 11.4921C18.8176 11.8107 18.3086 12.5135 17.8906 12.613C18.8193 12.8574 19.8761 13.7473 20.198 14.0305Z" fill="#E43E3E"/>
<path d="M20.1976 14.2547L20.0493 14.1974C19.7527 13.9344 18.7178 13.0613 17.8329 12.8288C17.7335 12.8035 17.6644 12.7125 17.666 12.6096C17.6677 12.5068 17.7385 12.4175 17.838 12.3939C18.1329 12.3231 18.5947 11.7517 18.8004 11.3826C18.8493 11.2966 18.947 11.2528 19.0431 11.2731C19.1392 11.2933 19.2099 11.3759 19.2184 11.4736C19.2774 12.2136 20.1488 13.6563 20.3578 13.8771C20.4403 13.9648 20.4403 14.0996 20.3561 14.1873C20.3139 14.2311 20.2566 14.2547 20.1976 14.2547ZM18.4178 12.5624C18.7363 12.7023 19.0498 12.8861 19.3347 13.0782C19.1611 12.7462 18.9976 12.3821 18.8897 12.0517C18.7566 12.227 18.5931 12.4141 18.4178 12.5624Z" fill="#343333"/>
<path d="M14.1059 9.46116L13.789 9.77803L13.8885 9.87748C13.9323 9.9213 13.9896 9.94321 14.0469 9.94321C14.1042 9.94321 14.1615 9.9213 14.2053 9.87748C14.293 9.78983 14.293 9.64825 14.2053 9.56061L14.1059 9.46116ZM13.4014 8.75663L13.0845 9.0735L13.4722 9.46116L13.789 9.14429L13.4014 8.75663ZM12.7356 8.08918L12.4187 8.40605L12.7693 8.75663L13.0862 8.43976L12.7356 8.08918ZM12.0328 7.48241C11.9755 7.48241 11.9182 7.50432 11.8743 7.54814C11.7867 7.63579 11.7867 7.77737 11.8743 7.86501L12.1019 8.09255L12.4187 7.77568L12.1929 7.54983C12.1474 7.50263 12.0901 7.48241 12.0328 7.48241Z" fill="#BBBABA"/>
<path d="M14.8363 8.73309L14.5194 9.04996L14.9947 9.52358C15.0369 9.5674 15.0959 9.58931 15.1532 9.58931C15.2105 9.58931 15.2678 9.5674 15.3116 9.52358C15.3993 9.43593 15.3993 9.29435 15.3116 9.20839L14.8363 8.73309ZM14.1318 8.02856L13.8149 8.34543L14.2026 8.73309L14.5194 8.41622L14.1318 8.02856ZM13.4643 7.36279L13.1475 7.67966L13.498 8.03024L13.8149 7.71337L13.4643 7.36279ZM12.6974 6.5959L12.3822 6.91277L12.8323 7.36279L13.1475 7.04592L12.6974 6.5959ZM12.1109 6.10205C12.0536 6.10205 11.9963 6.12396 11.9525 6.16779C11.8648 6.25543 11.8648 6.39701 11.9525 6.48466L12.0654 6.59758L12.3822 6.28071L12.2693 6.16779C12.2255 6.12396 12.1682 6.10205 12.1109 6.10205Z" fill="#BBBABA"/>
<path d="M15.5269 8.04055L15.2117 8.35742L15.5134 8.65912C15.5572 8.70294 15.6145 8.72486 15.6719 8.72486C15.7292 8.72486 15.7865 8.70294 15.8303 8.65912C15.9179 8.57148 15.9179 8.42821 15.8303 8.34225L15.5269 8.04055ZM14.8224 7.33602L14.5072 7.6512L14.8948 8.03887L15.2117 7.722L14.8224 7.33602ZM14.1549 6.67025L13.838 6.98544L14.1886 7.33602L14.5055 7.02084L14.1549 6.67025ZM13.3897 5.90336L13.0728 6.22023L13.5229 6.67025L13.8397 6.35338L13.3897 5.90336ZM12.5503 5.15669C12.493 5.15669 12.4357 5.1786 12.3919 5.22243C12.3043 5.31007 12.3043 5.45165 12.3919 5.5393L12.756 5.90336L13.0712 5.58649L12.7071 5.22243C12.665 5.1786 12.6076 5.15669 12.5503 5.15669Z" fill="#BBBABA"/>
<path d="M15.516 6.64506L15.1991 6.96193L15.275 7.03777C15.3188 7.0816 15.3761 7.10351 15.4334 7.10351C15.4907 7.10351 15.548 7.0816 15.5919 7.03777C15.6778 6.95013 15.6778 6.80855 15.5919 6.7209L15.516 6.64506ZM14.8486 5.97761L14.5317 6.29448L14.8823 6.64506L15.1991 6.32819L14.8486 5.97761ZM14.0834 5.21071L13.7665 5.52758L14.2165 5.97761L14.5334 5.66074L14.0834 5.21071ZM13.185 4.38145H13.1344C13.0856 4.38651 13.0384 4.40842 13.0013 4.4455C12.9136 4.53315 12.9136 4.67473 13.0013 4.76237L13.4496 5.21071L13.7665 4.89384L13.3182 4.4455C13.2794 4.40842 13.2339 4.38651 13.185 4.38145Z" fill="#BBBABA"/>
<path d="M14.8281 5.45818C14.7707 5.45818 14.7134 5.48009 14.6696 5.52391L14.5314 5.66212L14.2145 5.97899L13.8387 6.35485L13.5218 6.67172L13.1476 7.04421L12.8308 7.36108L12.4178 7.77403L12.1009 8.0909L11.597 8.59486C11.5093 8.6825 11.5093 8.82408 11.597 8.91173C11.6408 8.95555 11.6981 8.97746 11.7554 8.97746C11.8127 8.97746 11.87 8.95555 11.9139 8.91173L12.4178 8.40777L12.7347 8.0909L13.1476 7.67795L13.4645 7.36108L13.8404 6.98522L14.1572 6.67004L14.5331 6.29417L14.85 5.9773L14.9882 5.83909C15.0741 5.75145 15.0741 5.60987 14.9882 5.52222C14.9427 5.4784 14.8854 5.45818 14.8281 5.45818Z" fill="#BBBABA"/>
<path d="M15.3805 6.23772C15.3232 6.23772 15.2659 6.25963 15.2221 6.30345L15.1968 6.32873L14.8799 6.6456L14.504 7.02147L14.1872 7.33665L13.8113 7.71251L13.4944 8.02938L13.0815 8.44233L12.7646 8.7592L12.377 9.14686C12.291 9.2345 12.291 9.37608 12.377 9.46373C12.4208 9.50924 12.4781 9.52946 12.5354 9.52946C12.5927 9.52946 12.65 9.50755 12.6938 9.46373L13.0815 9.07607L13.3984 8.7592L13.8113 8.34625L14.1282 8.02938L14.504 7.65352L14.8192 7.33834L15.1951 6.96247L15.512 6.6456L15.5372 6.62032C15.6249 6.53268 15.6249 6.3911 15.5372 6.30345C15.4951 6.25963 15.4378 6.23772 15.3805 6.23772Z" fill="#BBBABA"/>
<path d="M15.5392 7.48888C15.4819 7.48888 15.4246 7.51079 15.3825 7.55461L15.2122 7.72484L14.8954 8.04171L14.5195 8.41758L14.2026 8.73445L13.7897 9.14739L13.4728 9.46426L13.3919 9.54516C13.3043 9.63281 13.3043 9.77439 13.3919 9.86203C13.434 9.90417 13.493 9.92608 13.5503 9.92608C13.6076 9.92608 13.665 9.90417 13.7088 9.86203L13.7897 9.78113L14.1066 9.46426L14.5195 9.05132L14.8364 8.73445L15.2122 8.35859L15.5274 8.04171L15.6993 7.8698C15.787 7.78384 15.787 7.64226 15.6993 7.55461C15.6538 7.51079 15.5965 7.48888 15.5392 7.48888Z" fill="#BBBABA"/>
<path d="M14.0606 4.69154C14.0032 4.69154 13.9459 4.71345 13.9021 4.75728L13.7639 4.89549L13.447 5.21236L13.0712 5.58822L12.756 5.90509L12.3801 6.28095L12.0633 6.59782L11.8509 6.81019C11.7632 6.89784 11.7632 7.03942 11.8509 7.12706C11.8947 7.17089 11.952 7.1928 12.0093 7.1928C12.0666 7.1928 12.1239 7.17089 12.1678 7.12706L12.3818 6.91132L12.6987 6.59445L13.0745 6.21859L13.3914 5.90172L13.7673 5.52586L14.0842 5.20899L14.2224 5.07246C14.31 4.98482 14.31 4.84324 14.2224 4.75559C14.1752 4.71345 14.1179 4.69154 14.0606 4.69154Z" fill="#BBBABA"/>
<path d="M23.0498 3.36827C22.497 4.36945 21.2396 4.73014 20.2401 4.17899C19.2407 3.62615 18.8783 2.36878 19.4294 1.36929C19.9823 0.368114 21.2413 0.00742105 22.2408 0.558573C23.2403 1.11141 23.6027 2.37047 23.0498 3.36827Z" fill="#D9E027"/>
<path d="M21.2374 4.73417C20.8396 4.73417 20.4435 4.63136 20.0946 4.43753C18.9518 3.80716 18.5372 2.36439 19.1676 1.22163C19.5839 0.469907 20.3795 0.00134277 21.2424 0.00134277C21.6402 0.00134277 22.0346 0.102472 22.3852 0.297987C22.938 0.60306 23.3408 1.10533 23.5144 1.71379C23.6897 2.32225 23.6173 2.96105 23.3122 3.51389C22.8942 4.26561 22.1003 4.73417 21.2374 4.73417ZM21.2424 0.598003C20.5969 0.598003 20.0036 0.946898 19.6918 1.50985C19.2198 2.36607 19.5317 3.44478 20.3845 3.91672C20.6458 4.06167 20.9424 4.13751 21.239 4.13751C21.8846 4.13751 22.4779 3.78862 22.7897 3.22398C23.0172 2.81104 23.0712 2.33236 22.9397 1.87728C22.8099 1.4222 22.5099 1.04634 22.0953 0.817116C21.834 0.675535 21.5374 0.598003 21.2424 0.598003Z" fill="#343333"/>
<path d="M23.1997 1.70237C22.5036 2.3378 22.4834 1.42089 21.6507 1.2001C20.926 1.00795 20.5282 1.73439 20.6597 2.24004C20.8687 3.04064 21.703 2.62264 21.7485 3.6255C21.7788 4.30812 20.9243 4.51038 20.6866 4.35195L23.1997 1.70237Z" fill="#D9E027"/>
<path d="M20.9073 4.69951C20.7641 4.69951 20.6292 4.66917 20.5214 4.59669C20.3831 4.50568 20.3477 4.32027 20.4404 4.18375C20.5315 4.04723 20.7169 4.01015 20.8551 4.10285C20.8972 4.11633 21.113 4.10285 21.2815 3.98149C21.4029 3.89385 21.4585 3.78092 21.4517 3.63765C21.4366 3.27022 21.3152 3.21291 21.0759 3.09493C20.8349 2.97695 20.5045 2.81345 20.3747 2.31455C20.2719 1.92352 20.4017 1.46338 20.695 1.1718C20.9646 0.902118 21.3422 0.809417 21.7298 0.912231C22.1428 1.02179 22.3906 1.26787 22.5726 1.44821C22.7968 1.66901 22.7968 1.66901 23.0007 1.48192C23.1221 1.37068 23.3108 1.37911 23.4221 1.49878C23.5333 1.62013 23.5249 1.80891 23.4035 1.92015C22.7782 2.49153 22.4007 2.11735 22.1512 1.86958C21.9961 1.71452 21.836 1.55608 21.5765 1.48698C21.3894 1.4381 21.2343 1.4735 21.1146 1.59317C20.9714 1.73643 20.9023 1.97577 20.9528 2.16454C21.0135 2.40051 21.1366 2.4595 21.3388 2.55895C21.6253 2.70053 22.0164 2.89099 22.0501 3.61069C22.0669 4.00003 21.8731 4.33713 21.5192 4.53602C21.3422 4.63377 21.1163 4.69951 20.9073 4.69951Z" fill="#343333"/>
<path d="M7.47735 28.227C7.57679 31.8255 1.81245 32.6986 0.443837 32.9683C3.04285 31.3064 3.82997 29.5788 4.62215 27.4972C2.89284 27.8326 1.52423 27.2275 0.373047 26.4893C4.4064 25.2808 6.24358 22.8301 6.92788 20.3794C7.46892 22.8958 7.47735 27.3809 7.47735 28.227Z" fill="white"/>
<path d="M0.444752 33.3404C0.294744 33.3404 0.156535 33.2494 0.0992282 33.1061C0.0334944 32.9392 0.0941718 32.7505 0.24418 32.6544C2.4825 31.2217 3.31681 29.7705 4.04663 27.9485C3.91516 27.9586 3.78369 27.962 3.65391 27.962C2.17406 27.962 1.01613 27.3418 0.171704 26.8024C0.0486638 26.7232 -0.0153845 26.5799 0.00315578 26.4367C0.0233816 26.2917 0.126196 26.1737 0.266091 26.1316C4.47811 24.8692 6.02032 22.2516 6.57148 20.2779C6.61699 20.1127 6.76699 19.9998 6.94228 20.0049C7.1142 20.0099 7.25915 20.1313 7.29455 20.2981C7.79682 22.641 7.85076 26.6237 7.85076 28.225C7.95357 31.9364 2.54992 32.9494 0.773421 33.2814C0.675663 33.2999 0.589703 33.3168 0.515542 33.3303L0.444752 33.3404ZM4.62306 27.121C4.73262 27.121 4.83712 27.1698 4.90959 27.2541C4.99724 27.3569 5.02083 27.5002 4.97196 27.6266C4.31125 29.3627 3.63874 30.8594 2.02236 32.2634C4.11067 31.7628 7.17319 30.674 7.10577 28.2368C7.10577 26.9356 7.07038 24.0702 6.7889 21.8269C5.9765 23.5663 4.38035 25.4473 1.27064 26.5833C1.92798 26.9271 2.72521 27.2187 3.65222 27.2187C3.94718 27.2187 4.24888 27.1884 4.55058 27.1294L4.62306 27.121Z" fill="#343333"/>
<path d="M5.74219 25.6465C5.77758 27.5157 7.53554 26.892 7.4816 28.3803L7.50014 23.7452L6.08434 24.0436L5.74219 25.6465Z" fill="#D9D8D8"/>
<path d="M7.48273 28.7541H7.47431C7.27036 28.749 7.10856 28.5839 7.11024 28.3799V28.2704C7.09676 27.876 6.9181 27.7546 6.51695 27.5136C6.04333 27.2287 5.39105 26.8394 5.36914 25.6545L5.37757 25.5702L5.71803 23.9673C5.74837 23.8224 5.8613 23.7111 6.00625 23.6808L7.42206 23.3825C7.53161 23.3606 7.64791 23.3858 7.73387 23.4583C7.82152 23.5308 7.87208 23.637 7.87208 23.7499L7.85354 28.2636V28.3968C7.8468 28.5957 7.68331 28.7541 7.48273 28.7541ZM6.11749 25.6815C6.14278 26.4197 6.47819 26.622 6.90124 26.8748C6.97203 26.9169 7.04282 26.9591 7.1153 27.0079L7.12541 24.205L6.39728 24.3584L6.11749 25.6815Z" fill="#343333"/>
<path d="M35.5208 28.3143C35.4214 31.9129 41.1857 32.7842 42.5543 33.0539C39.9553 31.392 39.1682 29.6627 38.376 27.5812C40.1053 27.9166 41.4739 27.3115 42.6268 26.5732C38.5917 25.3648 36.7546 22.9141 36.0703 20.4634C35.5292 22.9832 35.5208 27.4682 35.5208 28.3143Z" fill="white"/>
<path d="M42.5559 33.4269L42.4834 33.4202C42.4093 33.4067 42.3233 33.3898 42.2255 33.3713C40.4507 33.0392 35.0471 32.0246 35.1499 28.3047C35.1499 26.7119 35.2038 22.7308 35.7078 20.3863C35.7432 20.2195 35.8881 20.0964 36.06 20.0931C36.2303 20.0897 36.3853 20.1992 36.4309 20.3644C36.982 22.3398 38.5242 24.9574 42.7346 26.2181C42.8744 26.2586 42.9773 26.3799 42.9975 26.5232C43.0177 26.6681 42.952 26.8097 42.8289 26.8889C41.9845 27.43 40.8266 28.0485 39.3467 28.0485C39.217 28.0485 39.0855 28.0435 38.954 28.0351C39.6855 29.8554 40.5165 31.3083 42.7581 32.7409C42.9082 32.837 42.9705 33.0274 42.9031 33.1943C42.8441 33.3376 42.7059 33.4269 42.5559 33.4269ZM36.2117 21.9151C35.9319 24.1568 35.8966 27.0204 35.8966 28.3148C35.8291 30.7588 38.8917 31.8493 40.9817 32.3499C39.3636 30.9476 38.6911 29.4525 38.0304 27.7148C37.9832 27.5884 38.0068 27.4468 38.0944 27.344C38.1804 27.2395 38.3186 27.1906 38.4501 27.2176C38.7518 27.2766 39.0551 27.3052 39.3501 27.3052C40.2788 27.3052 41.076 27.0153 41.7334 26.6715C38.6203 25.5355 37.0241 23.6528 36.2117 21.9151Z" fill="#343333"/>
<path d="M37.2581 25.7345C37.2227 27.602 35.4665 26.9919 35.5187 28.4802L35.6485 23.3361L36.6547 23.9681L37.2699 25.7581L37.2581 25.7345Z" fill="#D9D8D8"/>
<path d="M35.5187 28.8531C35.3181 28.8531 35.1546 28.6946 35.1462 28.494C35.1428 28.4064 35.1445 28.3238 35.1513 28.248L35.276 23.3264C35.2794 23.1915 35.3552 23.0702 35.4732 23.0078C35.5912 22.9438 35.7344 22.9505 35.8474 23.0196L36.8536 23.655C36.9261 23.6989 36.98 23.7696 37.0087 23.8489L37.6239 25.6388C37.6492 25.7147 37.6492 25.7956 37.6272 25.8681C37.5632 26.9535 36.9429 27.3311 36.4862 27.6075C36.1423 27.8148 35.935 27.9412 35.8979 28.2935L35.8929 28.4924C35.8878 28.6929 35.7227 28.8531 35.5221 28.8547H35.5187V28.8531ZM36.0041 24.0006L35.9266 27.0749C35.9839 27.0378 36.0429 27.0041 36.0985 26.9687C36.5199 26.7142 36.8536 26.5119 36.8839 25.7838L36.3463 24.2146L36.0041 24.0006Z" fill="#343333"/>
<path d="M36.6735 17.0361C34.4301 17.535 29.849 19.1598 21.5041 19.1598C13.161 19.1598 8.57818 17.5333 6.33649 17.0361C5.69601 16.8928 5.12294 17.4558 5.24767 18.0979C5.73477 20.6093 5.88478 24.582 5.74151 25.7567C6.63651 23.5943 11.2227 26.7107 21.5041 26.7107C31.7873 26.7107 36.3735 23.5926 37.2684 25.7567C37.1235 24.582 37.2735 20.6093 37.7606 18.0979C37.8853 17.4558 37.3123 16.8928 36.6735 17.0361Z" fill="white"/>
<path d="M21.5039 27.0863C16.4896 27.0863 12.7495 26.3362 10.2735 25.8407C8.95885 25.5761 7.91891 25.3688 7.19921 25.3688C6.45592 25.3688 6.21658 25.5828 6.08511 25.9031C6.01263 26.075 5.82554 26.1677 5.6452 26.1205C5.46485 26.0716 5.34855 25.898 5.37046 25.7143C5.5171 24.526 5.35192 20.5921 4.88168 18.1718C4.80751 17.7925 4.90527 17.4049 5.14967 17.1099C5.45474 16.7408 5.94521 16.5689 6.41546 16.6734C6.79301 16.7576 7.23292 16.8722 7.74362 17.0054C10.3039 17.6712 14.59 18.7886 21.5039 18.7886C28.4194 18.7886 32.7039 17.6729 35.2642 17.0054C35.7732 16.8722 36.2131 16.7593 36.5906 16.6734C37.0609 16.5689 37.5514 16.7408 37.8564 17.1099C38.1008 17.4065 38.1986 17.7942 38.1261 18.1718C37.6559 20.5921 37.4907 24.526 37.6373 25.7143C37.6609 25.898 37.5429 26.0716 37.3626 26.1205C37.1822 26.1677 36.9952 26.075 36.9227 25.9031C36.7912 25.5828 36.5502 25.3688 35.8069 25.3688C35.0872 25.3688 34.0489 25.5761 32.7326 25.8407C30.26 26.3362 26.5199 27.0863 21.5039 27.0863ZM7.2009 24.6221C7.99476 24.6221 9.06504 24.8378 10.4219 25.1092C13.0141 25.6283 16.5637 26.3413 21.5039 26.3413C26.444 26.3413 29.9937 25.6283 32.5859 25.1092C33.9427 24.8378 35.013 24.6221 35.8069 24.6221C36.1204 24.6221 36.4979 24.6507 36.8418 24.8058C36.8165 23.0664 36.9968 20.0713 37.3929 18.0285C37.4249 17.8667 37.3845 17.7082 37.2817 17.5835C37.1536 17.4285 36.9513 17.356 36.7524 17.3998C36.3884 17.4807 35.9535 17.5953 35.4529 17.7251C32.8573 18.401 28.5138 19.5319 21.5039 19.5319C14.494 19.5319 10.1505 18.401 7.55485 17.7251C7.05258 17.5953 6.61772 17.4807 6.25366 17.3998C6.05477 17.356 5.85251 17.4285 5.72442 17.5835C5.6216 17.7099 5.58115 17.8684 5.61149 18.0285C6.00926 20.0696 6.18961 23.0647 6.16264 24.8058C6.50816 24.6507 6.8874 24.6221 7.2009 24.6221Z" fill="#343333"/>
<path d="M11.967 21.004C11.8743 20.854 11.7478 20.7225 11.5894 20.6096C11.4411 20.5034 11.2624 20.4191 11.0602 20.3618L11.0939 20.2L11.0652 20.1562L10.2933 19.9961L10.2495 20.0264L10.2174 20.1849C10.0185 20.1579 9.82809 20.1663 9.65111 20.2051C9.46402 20.2455 9.2921 20.3197 9.14041 20.4174C8.9904 20.5203 8.86062 20.6484 8.75949 20.8001C8.65668 20.9517 8.5842 21.127 8.54543 21.3192C8.5033 21.5265 8.49656 21.7237 8.52521 21.9057C8.55555 22.0894 8.6196 22.2563 8.71567 22.4063C8.81343 22.5563 8.94321 22.6844 9.09996 22.7923C9.24997 22.8951 9.42863 22.9743 9.63088 23.0316L9.58201 23.2693L9.58706 23.2979L9.61066 23.3148L10.3843 23.4732L10.3927 23.4749L10.4298 23.4446L10.4787 23.2052C10.686 23.2305 10.8798 23.2221 11.0568 23.185C11.2439 23.1446 11.4124 23.0738 11.5591 22.9743C11.7057 22.8732 11.8288 22.7434 11.9265 22.5883C12.0243 22.4333 12.0951 22.2529 12.1355 22.0541C12.1743 21.8619 12.181 21.6765 12.1541 21.4995C12.122 21.3192 12.0597 21.154 11.967 21.004ZM11.2877 21.6023C11.2911 21.6934 11.281 21.7894 11.2624 21.8889C11.2405 21.9934 11.2051 22.0878 11.1579 22.1687C11.1124 22.2496 11.0568 22.317 10.9961 22.3709C10.9354 22.4249 10.868 22.4636 10.7939 22.4889C10.7349 22.5091 10.6759 22.5209 10.6152 22.5226L10.9203 21.0444C10.9928 21.0714 11.0551 21.1085 11.104 21.1574C11.1613 21.213 11.2068 21.2804 11.2355 21.3529C11.2675 21.4287 11.2843 21.513 11.2877 21.6023ZM9.40672 21.5096C9.44717 21.3091 9.53313 21.1473 9.66122 21.0293C9.77752 20.9231 9.90899 20.8708 10.0691 20.8708H10.0759L9.77078 22.3473C9.61572 22.2799 9.50616 22.1771 9.4438 22.0423C9.37638 21.8939 9.36458 21.7136 9.40672 21.5096Z" fill="#1072BA"/>
<path d="M15.3272 21.264C15.2278 21.0921 15.0879 20.9438 14.916 20.8325C14.7424 20.7179 14.5283 20.6437 14.2772 20.6117C14.026 20.578 13.7985 20.5949 13.5996 20.6589C13.4024 20.723 13.2288 20.8275 13.0855 20.9707C12.9439 21.1123 12.8276 21.2859 12.74 21.4882C12.654 21.6904 12.5934 21.9163 12.5613 22.159C12.5293 22.4084 12.5293 22.6461 12.5597 22.8652C12.5917 23.0843 12.6591 23.2815 12.7636 23.4518C12.8664 23.6203 13.008 23.7619 13.1816 23.8714C13.3535 23.9827 13.5693 24.0552 13.8204 24.0872C13.8996 24.0973 13.9788 24.1007 14.053 24.1007C14.203 24.1007 14.3463 24.0788 14.4777 24.0383C14.6733 23.9743 14.8452 23.8714 14.9884 23.7315C15.13 23.5933 15.248 23.418 15.339 23.2158C15.4283 23.0135 15.489 22.786 15.5227 22.5416C15.5548 22.3023 15.5548 22.0697 15.5244 21.8522C15.4924 21.6348 15.4267 21.4359 15.3272 21.264ZM14.6176 22.0157C14.6176 22.1455 14.6075 22.282 14.589 22.4253C14.5688 22.5804 14.5384 22.7236 14.503 22.8467C14.4659 22.9697 14.4204 23.0759 14.3631 23.1585C14.3092 23.2394 14.2435 23.3018 14.1693 23.3405C14.0951 23.381 14.0109 23.3928 13.9131 23.381C13.8103 23.3675 13.7243 23.3321 13.6603 23.2782C13.5962 23.2242 13.5473 23.1501 13.5136 23.059C13.4799 22.968 13.4614 22.8551 13.458 22.727C13.4546 22.5939 13.4631 22.4438 13.485 22.2787C13.5035 22.1371 13.5305 22.0039 13.5642 21.8809C13.5979 21.7579 13.6434 21.6534 13.699 21.5623C13.7547 21.4764 13.8221 21.409 13.9013 21.3651C13.9603 21.3314 14.0294 21.3146 14.1052 21.3146L14.1811 21.3196C14.2873 21.3331 14.3732 21.3719 14.4322 21.4309C14.4929 21.4932 14.5401 21.5741 14.5688 21.6719C14.6025 21.7747 14.6176 21.8893 14.6176 22.0157Z" fill="#1072BA"/>
<path d="M18.5469 21.3845C18.4643 21.2816 18.3547 21.1974 18.2182 21.1333C18.0834 21.0693 17.9165 21.0305 17.7227 21.0153L16.2125 20.9091L16.1855 20.9176L16.172 20.9429L16.1316 21.5277L16.167 21.5665L16.4215 21.585L16.2749 23.6481L16.0187 23.6312L15.9799 23.6649L15.9395 24.2498L15.9748 24.2902L17.4564 24.3964H17.4581L17.4817 24.3863L17.4952 24.361L17.5373 23.7778L17.5019 23.7374L17.1581 23.7121L17.1968 23.161L17.6334 23.1913C17.8087 23.2031 17.9637 23.1829 18.0986 23.1306C18.2334 23.0784 18.348 23.0042 18.4407 22.9081C18.5334 22.8121 18.6059 22.6991 18.6564 22.5744C18.707 22.4497 18.7374 22.3182 18.7475 22.18C18.7576 22.0249 18.7492 21.8783 18.7188 21.7451C18.6868 21.6069 18.6295 21.4873 18.5469 21.3845ZM17.303 21.6474L17.5002 21.6609C17.6148 21.6693 17.6991 21.7098 17.753 21.7839C17.8087 21.8598 17.8306 21.9777 17.8205 22.1328C17.8103 22.2744 17.7733 22.3789 17.7092 22.4463C17.6536 22.507 17.5811 22.534 17.4901 22.534L17.4581 22.5323L17.239 22.5171L17.303 21.6474Z" fill="#1072BA"/>
<path d="M23.3179 21.1446L21.983 21.1412L21.9493 21.1665C21.9156 21.2609 21.8735 21.3722 21.8263 21.5053C21.7757 21.6385 21.7269 21.7733 21.6763 21.9115C21.6257 22.0497 21.5768 22.1846 21.5297 22.3127C21.4808 22.4391 21.4403 22.5469 21.4083 22.6329L21.351 22.7896L21.3173 22.8807C21.2853 22.7964 21.2499 22.7037 21.2094 22.5992C21.1201 22.3632 21.0274 22.1222 20.9313 21.8778C20.8352 21.6334 20.7425 21.3958 20.6532 21.1648L20.6178 21.1412L19.2829 21.1396L19.2458 21.1766L19.2441 21.7615L19.2559 21.7885L19.2829 21.7986L19.556 21.8003L19.5543 23.8633H19.2812L19.2543 23.8734L19.2441 23.9004V24.4852L19.2812 24.5223L20.6077 24.5257L20.633 24.5139L20.6431 24.4886L20.6448 23.9037L20.6077 23.865H20.3802L20.3818 22.4947L20.4307 22.6262C20.5201 22.8503 20.606 23.0661 20.6903 23.2767C20.7746 23.4874 20.8622 23.7032 20.9549 23.924L20.9886 23.9459L21.6594 23.9476L21.6948 23.9223C21.7235 23.8431 21.7572 23.7521 21.796 23.6509C21.8347 23.5481 21.8752 23.4419 21.9156 23.3324C21.9561 23.2228 21.9965 23.1133 22.037 23.0071L22.1482 22.7104C22.1718 22.6464 22.1937 22.584 22.2156 22.525L22.2241 22.5048L22.2224 23.87L22.0201 23.8684L21.9932 23.8801L21.983 23.9054L21.9814 24.4903L22.0184 24.5274L23.3163 24.5291L23.3533 24.4903V23.9054L23.3432 23.8801L23.3179 23.8684H23.087L23.0904 21.8053H23.3213L23.3584 21.7682L23.3601 21.1834L23.3483 21.1581L23.3179 21.1446Z" fill="#1072BA"/>
<path d="M26.7494 20.8941L25.5358 20.98L25.5106 20.9935L25.5021 21.0205L25.5443 21.6053L25.583 21.6374L25.7769 21.6239L25.5898 22.2846L25.4499 22.8105L25.2308 22.3301L24.9139 21.6829L25.0942 21.6694L25.1279 21.6306L25.0858 21.0458L25.074 21.0205L25.047 21.0121L23.8166 21.0997L23.7914 21.1115L23.7812 21.1402L23.8234 21.7233L23.8638 21.7587L24.0476 21.7452L24.9779 23.4863L25.0133 23.5066L25.1566 23.4965L25.1212 23.6161C25.1027 23.6751 25.0791 23.7156 25.0504 23.7392L24.9493 23.7779L24.8583 23.7813L24.8161 23.7796C24.7656 23.7779 24.6982 23.7729 24.6156 23.7594L24.5852 23.7661L24.5717 23.7914L24.4959 24.378L24.5245 24.4184C24.6628 24.4538 24.7892 24.474 24.9004 24.4841C24.9628 24.4892 25.0234 24.4909 25.0791 24.4909L25.1987 24.4858C25.3723 24.474 25.5207 24.4184 25.6353 24.324C25.7482 24.228 25.8409 24.0695 25.9083 23.8487L26.6129 21.5598L26.7999 21.5464L26.8252 21.5346L26.8337 21.5059L26.7932 20.9227L26.7494 20.8941Z" fill="#1072BA"/>
<path d="M30.5235 23.1475L30.2605 23.1829L29.9807 21.1334L30.2437 21.0963L30.2689 21.0828L30.2774 21.0558L30.1982 20.476L30.156 20.444L27.3699 20.8232L27.3379 20.8654L27.4171 21.4452L27.4323 21.4705L27.4592 21.4772L27.8014 21.43L27.8553 21.821C27.8924 22.0958 27.916 22.3317 27.9261 22.5239C27.9362 22.7143 27.9244 22.8829 27.8941 23.0211C27.8638 23.1576 27.8098 23.279 27.734 23.3801C27.6564 23.4829 27.5469 23.5773 27.4087 23.665L27.3935 23.7121L27.6784 24.3122L27.7121 24.3341L27.7256 24.3307C27.9935 24.2245 28.2025 24.083 28.3458 23.9094C28.4908 23.7341 28.5936 23.5267 28.6492 23.2925C28.7065 23.0599 28.7301 22.7952 28.7166 22.5053C28.7048 22.2171 28.6745 21.8969 28.6273 21.5547L28.5953 21.3221L29.1026 21.2513L29.3824 23.3009L29.1582 23.3312L29.1329 23.3447L29.1262 23.3734L29.2054 23.9532L29.2475 23.9852L30.6111 23.7981L30.6364 23.7846L30.6431 23.7577L30.5639 23.1779L30.5235 23.1475Z" fill="#1072BA"/>
<path d="M34.3721 22.4002L34.3283 22.3716L34.1294 22.4154L32.7641 19.9479L32.7237 19.9293L31.7512 20.1366L31.7225 20.1703L31.4276 22.9902L31.2337 23.0306L31.2101 23.0475L31.2051 23.0761L31.3264 23.6492L31.3433 23.6728L31.3635 23.6778L31.3719 23.6761L32.5838 23.42L32.6125 23.3761L32.4911 22.8031L32.4456 22.7744L32.2433 22.8166L32.2636 22.5469L33.14 22.3615L33.2647 22.6008L33.0743 22.6413L33.0456 22.6851L33.167 23.2581L33.1838 23.2801L33.2108 23.2868L34.4665 23.0188L34.4951 22.975L34.3721 22.4002ZM32.6007 21.3064C32.6799 21.4597 32.7608 21.6199 32.84 21.7817L32.3158 21.8929C32.3209 21.8171 32.3276 21.7345 32.3344 21.6418C32.3428 21.5305 32.3512 21.421 32.3596 21.3131C32.3681 21.2052 32.3748 21.1041 32.3815 21.0097L32.3883 20.8884C32.4574 21.0299 32.5299 21.1698 32.6007 21.3064Z" fill="#1072BA"/>
</g>
<path d="M60.348 16.168C63.106 16.168 64.982 14.096 64.982 11.338C64.982 8.58 63.106 6.508 60.348 6.508C57.576 6.508 55.714 8.58 55.714 11.338C55.714 14.096 57.576 16.168 60.348 16.168ZM60.348 15.132C58.248 15.132 56.918 13.508 56.918 11.338C56.918 9.154 58.248 7.544 60.348 7.544C62.434 7.544 63.778 9.154 63.778 11.338C63.778 13.508 62.434 15.132 60.348 15.132ZM70.0871 16.168C71.8651 16.168 73.0971 14.796 73.0971 12.612C73.0971 10.414 71.8651 9.07 70.0871 9.07C69.1351 9.07 68.2951 9.56 67.8051 10.246V9.238H66.7551V18.576H67.8051V14.978C68.3511 15.734 69.1631 16.168 70.0871 16.168ZM69.8211 15.23C68.9951 15.23 68.1691 14.726 67.8051 14.138V11.086C68.1691 10.498 68.9951 10.008 69.8211 10.008C71.1791 10.008 71.9911 11.114 71.9911 12.612C71.9911 14.11 71.1791 15.23 69.8211 15.23ZM79.4988 9.238H74.7668V16H75.8168V10.162H79.4988V9.238ZM86.1425 16V11.352C86.1425 9.714 84.9525 9.07 83.5245 9.07C82.4185 9.07 81.5505 9.434 80.8225 10.19L81.3125 10.918C81.9145 10.274 82.5725 9.98 83.3845 9.98C84.3645 9.98 85.0925 10.498 85.0925 11.408V12.626C84.5465 11.996 83.7765 11.702 82.8525 11.702C81.7045 11.702 80.4865 12.416 80.4865 13.928C80.4865 15.398 81.7045 16.168 82.8525 16.168C83.7625 16.168 84.5325 15.846 85.0925 15.23V16H86.1425ZM83.2305 15.412C82.2505 15.412 81.5645 14.796 81.5645 13.942C81.5645 13.074 82.2505 12.458 83.2305 12.458C83.9725 12.458 84.6865 12.738 85.0925 13.298V14.572C84.6865 15.132 83.9725 15.412 83.2305 15.412ZM89.2973 16V12.976H92.8253V16H93.8753V9.238H92.8253V12.052H89.2973V9.238H88.2473V16H89.2973ZM96.9799 16L100.55 10.736V16H101.6V9.238H100.564L97.0219 14.404V9.238H95.9719V16H96.9799ZM106.09 16.168C108.036 16.168 109.184 15.328 109.184 14.194C109.184 13.074 108.008 12.598 107.224 12.542C108.022 12.444 109.044 11.898 109.044 10.89C109.044 9.742 107.756 9.07 105.936 9.084C104.704 9.084 103.794 9.518 103.164 10.162L103.71 10.806C104.284 10.218 105.026 9.938 105.978 9.938C107.098 9.938 107.952 10.372 107.952 11.016C107.952 11.786 107.07 12.15 105.95 12.15H104.438V13.004H105.95C107.14 13.004 108.078 13.284 108.078 14.124C108.078 14.838 107.294 15.3 106.09 15.3C105.082 15.3 104.186 14.992 103.556 14.39L103.038 15.062C103.71 15.734 104.732 16.168 106.09 16.168ZM116.166 16V11.352C116.166 9.714 114.976 9.07 113.548 9.07C112.442 9.07 111.574 9.434 110.846 10.19L111.336 10.918C111.938 10.274 112.596 9.98 113.408 9.98C114.388 9.98 115.116 10.498 115.116 11.408V12.626C114.57 11.996 113.8 11.702 112.876 11.702C111.728 11.702 110.51 12.416 110.51 13.928C110.51 15.398 111.728 16.168 112.876 16.168C113.786 16.168 114.556 15.846 115.116 15.23V16H116.166ZM113.254 15.412C112.274 15.412 111.588 14.796 111.588 13.942C111.588 13.074 112.274 12.458 113.254 12.458C113.996 12.458 114.71 12.738 115.116 13.298V14.572C114.71 15.132 113.996 15.412 113.254 15.412ZM120.553 16V10.162H122.527V9.238H117.543V10.162H119.503V16H120.553ZM126.858 16.168C128.916 16.168 130.204 14.572 130.204 12.612C130.204 10.652 128.916 9.07 126.858 9.07C124.8 9.07 123.512 10.652 123.512 12.612C123.512 14.572 124.8 16.168 126.858 16.168ZM126.858 15.23C125.416 15.23 124.604 13.998 124.604 12.612C124.604 11.24 125.416 10.008 126.858 10.008C128.3 10.008 129.098 11.24 129.098 12.612C129.098 13.998 128.3 15.23 126.858 15.23ZM135.247 16.168C137.025 16.168 138.257 14.796 138.257 12.612C138.257 10.414 137.025 9.07 135.247 9.07C134.295 9.07 133.455 9.56 132.965 10.246V9.238H131.915V18.576H132.965V14.978C133.511 15.734 134.323 16.168 135.247 16.168ZM134.981 15.23C134.155 15.23 133.329 14.726 132.965 14.138V11.086C133.329 10.498 134.155 10.008 134.981 10.008C136.339 10.008 137.151 11.114 137.151 12.612C137.151 14.11 136.339 15.23 134.981 15.23ZM59.032 33.168C60.264 33.168 60.992 32.664 61.51 31.992L60.81 31.348C60.362 31.95 59.788 32.23 59.088 32.23C57.646 32.23 56.75 31.11 56.75 29.612C56.75 28.114 57.646 27.008 59.088 27.008C59.788 27.008 60.362 27.274 60.81 27.89L61.51 27.246C60.992 26.574 60.264 26.07 59.032 26.07C57.016 26.07 55.658 27.61 55.658 29.612C55.658 31.628 57.016 33.168 59.032 33.168ZM65.9356 33.168C67.9936 33.168 69.2816 31.572 69.2816 29.612C69.2816 27.652 67.9936 26.07 65.9356 26.07C63.8776 26.07 62.5896 27.652 62.5896 29.612C62.5896 31.572 63.8776 33.168 65.9356 33.168ZM65.9356 32.23C64.4936 32.23 63.6816 30.998 63.6816 29.612C63.6816 28.24 64.4936 27.008 65.9356 27.008C67.3776 27.008 68.1756 28.24 68.1756 29.612C68.1756 30.998 67.3776 32.23 65.9356 32.23ZM73.9474 32.23C72.5054 32.23 71.6934 30.998 71.6934 29.598C71.6934 28.24 72.5054 27.008 73.9474 27.008C75.3894 27.008 76.1874 28.24 76.1874 29.598C76.1874 30.998 75.3894 32.23 73.9474 32.23ZM73.9474 33.168C76.0334 33.168 77.2794 31.544 77.2794 29.598C77.2794 27.68 76.0334 26.07 74.1154 26.07C72.9114 26.07 72.0574 26.742 71.5674 27.512C71.8054 26.364 72.4074 25.496 74.4094 25.216C75.5574 25.062 77.0694 24.768 77.0694 23.662H76.0474C76.0474 23.942 75.6274 24.124 74.1434 24.348C71.7914 24.656 70.6014 26.014 70.6014 29.304C70.6014 31.544 71.8754 33.168 73.9474 33.168ZM79.0734 26.238V33H82.6574C84.0434 33 84.7854 32.048 84.7854 30.928C84.7854 29.822 84.0574 28.856 82.6574 28.856H80.1234V26.238H79.0734ZM82.5454 29.78C83.3154 29.78 83.7074 30.27 83.7074 30.928C83.7074 31.6 83.3014 32.076 82.5454 32.076H80.1234V29.78H82.5454ZM86.9414 33V26.238H85.8914V33H86.9414ZM91.3222 33V27.162H93.2962V26.238H88.3122V27.162H90.2722V33H91.3222ZM95.681 33L99.251 27.736V33H100.301V26.238H99.265L95.723 31.404V26.238H94.673V33H95.681ZM103.406 33L105.058 30.382H106.906V33H107.956V26.238H104.386C103.014 26.238 102.244 27.162 102.244 28.31C102.244 29.444 102.972 30.214 103.98 30.34L102.174 33H103.406ZM104.498 29.458C103.728 29.458 103.322 28.982 103.322 28.31C103.322 27.638 103.756 27.162 104.498 27.162H106.906V29.458H104.498Z" fill="#999999"/>
<defs>
<clipPath id="clip0">
<rect width="43" height="40.5881" fill="white" transform="translate(0 0.000732422)"/>
</clipPath>
</defs>
</svg>
