<svg width="196" height="94" viewBox="0 0 196 94" fill="none" xmlns="http://www.w3.org/2000/svg">
<path d="M51.7237 16.8329C50.1487 10.8317 47.5693 5.1403 44.0947 0C41.0532 4.55926 38.6829 9.53202 37.0564 14.7657C35.0428 21.6622 34.4401 28.8938 35.2845 36.0284C35.8824 40.6627 37.0392 45.2075 38.7298 49.5637C40.1089 52.9092 41.8765 56.081 43.9963 59.0138C48.5513 52.4149 51.5163 44.8508 52.6588 36.9144C53.6452 30.2155 53.277 23.3869 51.576 16.8329H51.7237ZM43.947 56.8481C42.2251 53.532 41.3142 49.8548 41.2892 46.1183C41.3063 42.4219 42.2362 38.7868 43.9963 35.5362C45.5375 38.7015 46.3929 42.1566 46.5064 45.6754C46.6041 49.5553 45.7239 53.3975 43.947 56.8481ZM50.9854 31.5495C50.9472 34.5277 50.6175 37.495 50.001 40.4089C50.2003 36.1376 49.8863 31.8577 49.0658 27.6612C48.0602 22.9118 46.4039 18.3239 44.1439 14.0275C41.9123 18.3191 40.2573 22.8868 39.222 27.6119C38.4341 31.8147 38.055 36.0839 38.09 40.3597C37.4141 36.2782 37.1339 32.141 37.2532 28.0057C37.3728 24.2741 37.8675 20.564 38.7298 16.9314C39.9036 12.6581 41.5547 8.53056 43.6517 4.6266C45.8861 8.44799 47.6386 12.5315 48.869 16.7837C50.3023 21.5774 51.0642 26.5466 51.133 31.5495H50.9854Z" fill="#007AC2"/>
<path d="M47.4419 60.9831H32.4301V71.1222C34.1271 69.4187 36.4313 68.4591 38.8358 68.4545C41.2403 68.4499 43.5481 69.4006 45.2517 71.0976C46.9552 72.7946 47.9148 75.0988 47.9194 77.5033C47.924 79.9078 46.9733 82.2157 45.2763 83.9192C43.6056 85.6003 41.6196 86.9351 39.4321 87.8473C37.2446 88.7594 34.8986 89.231 32.5285 89.2349C29.2352 89.2336 26.0042 88.3368 23.1814 86.6406C20.3585 84.9444 18.0499 82.5125 16.5028 79.6053C14.9556 76.698 14.2281 73.4248 14.398 70.1359C14.5679 66.847 15.6289 63.6662 17.4674 60.9339C18.1218 59.9812 18.8633 59.0914 19.6823 58.276C21.3663 56.5854 23.3686 55.2452 25.5735 54.3328C27.7784 53.4204 30.1423 52.954 32.5285 52.9604V28.7446C27.1515 28.7045 21.8495 30.0079 17.104 32.5366C12.3585 35.0653 8.31967 38.7392 5.35415 43.2247C2.38862 47.7102 0.590307 52.8653 0.122453 58.2221C-0.3454 63.5789 0.532019 68.9678 2.67506 73.8995C4.81811 78.8312 8.15892 83.1495 12.3942 86.4626C16.6295 89.7757 21.6252 91.9785 26.9278 92.8712C32.2304 93.7638 37.6719 93.318 42.7585 91.5742C47.8451 89.8304 52.4157 86.8438 56.0553 82.8856V60.9831H47.4419Z" fill="#007AC2"/>
<path d="M75.1486 55.2729C75.1486 57.5862 74.8533 61.1299 70.2267 61.1299H64.8125C60.2844 61.1299 59.8906 57.5862 59.8906 55.2729V34.404C59.8906 32.0907 60.1859 28.5469 64.8125 28.5469H70.2267C74.7548 28.5469 75.1486 32.0907 75.1486 34.404V38.9813H68.6516V33.6657C68.6519 33.3868 68.5446 33.1186 68.3521 32.9169C68.1595 32.7152 67.8966 32.5955 67.618 32.5828C67.4781 32.5827 67.3395 32.611 67.2108 32.666C67.0821 32.7209 66.9659 32.8015 66.8692 32.9028C66.7725 33.004 66.6975 33.1239 66.6485 33.255C66.5996 33.3861 66.5778 33.5258 66.5844 33.6657V55.8635C66.5778 56.0033 66.5996 56.143 66.6485 56.2742C66.6975 56.4053 66.7725 56.5251 66.8692 56.6264C66.9659 56.7276 67.0821 56.8082 67.2108 56.8632C67.3395 56.9182 67.4781 56.9465 67.618 56.9463C67.8966 56.9336 68.1595 56.814 68.3521 56.6123C68.5446 56.4106 68.6519 56.1423 68.6516 55.8635V48.7267H67.6673V45.1337H75.1486V55.2729Z" fill="#007AC2"/>
<path d="M84.9438 48.875L86.0758 32.6327H86.4696L87.5524 48.875H84.9438ZM77.7578 61.1305H84.1071L84.7469 52.2711H87.9462L88.5368 60.9337H94.9353L91.5392 28.3506H81.1539L77.7578 61.1305Z" fill="#007AC2"/>
<path d="M97.2031 56.9955L103.405 32.6321H97.843V28.5469H110.148V32.6321L103.897 56.9463H110.492V61.1299H97.2031V56.9955Z" fill="#007AC2"/>
<path d="M120.089 45.9705V32.5828H120.877C121.615 32.5828 122.107 33.2227 122.107 34.2071V44.3462C122.107 45.3798 121.615 45.9705 120.877 45.9705H120.089ZM113.543 61.1299H120.089V50.0556H123.781C128.358 50.0556 128.702 46.5119 128.702 44.2478V34.404C128.702 32.0907 128.407 28.5469 123.781 28.5469H113.543V61.1299Z" fill="#007AC2"/>
<path d="M138.497 44.9879V32.5847H139.334C140.023 32.5847 140.564 33.2245 140.564 34.2089V43.3637C140.564 44.3973 140.023 44.9879 139.334 44.9879H138.497ZM147.898 61.1318L144.649 48.4333C145.428 48.1184 146.084 47.5598 146.518 46.8411C146.953 46.1225 147.144 45.2824 147.061 44.4465V34.6027C147.061 32.2894 146.766 28.7456 142.139 28.7456H132.246V61.1318H138.743V49.0731H139.235L141.45 61.1318H147.898Z" fill="#007AC2"/>
<path d="M159.955 55.8635C159.955 56.1423 159.848 56.4106 159.655 56.6123C159.463 56.814 159.2 56.9336 158.921 56.9463C158.781 56.9465 158.643 56.9182 158.514 56.8632C158.385 56.8082 158.269 56.7276 158.172 56.6264C158.076 56.5251 158.001 56.4053 157.952 56.2742C157.903 56.143 157.881 56.0033 157.888 55.8635V33.6657C157.881 33.5258 157.903 33.3861 157.952 33.255C158.001 33.1239 158.076 33.004 158.172 32.9028C158.269 32.8015 158.385 32.7209 158.514 32.666C158.643 32.611 158.781 32.5827 158.921 32.5828C159.2 32.5955 159.463 32.7152 159.655 32.9169C159.848 33.1186 159.955 33.3868 159.955 33.6657V55.8635ZM151.391 55.2729C151.391 57.5862 151.686 61.1299 156.313 61.1299H161.776C166.353 61.1299 166.698 57.5862 166.698 55.2729V34.404C166.698 32.0907 166.452 28.5469 161.776 28.5469H156.362C151.834 28.5469 151.44 32.0907 151.44 34.404L151.391 55.2729Z" fill="#007AC2"/>
<path d="M186.881 28.5469H195.346V61.1299H188.849V40.704H188.603L185.256 61.1299H180.039L176.692 40.704H176.495V61.1299H169.949V28.5469H178.415L182.648 51.4338L186.881 28.5469Z" fill="#007AC2"/>
<path d="M195.2 71.0234H59.8477V93.4182H195.2V71.0234Z" fill="#007AC2"/>
<path d="M73.9719 75.2559V77.3231H69.2961V80.4731H73.5782V82.5895H69.2961V86.7239H73.9719V88.7911H66.6875V75.2559H73.9719Z" fill="white"/>
<path d="M90.6578 75.2557L92.4297 79.6854L94.3001 75.2557H97.204L93.8079 81.8018L97.3024 88.7909H94.4477L92.4297 83.869L90.3625 88.7909H87.5078L90.8055 81.8018L87.6555 75.1572L90.6578 75.2557Z" fill="white"/>
<path d="M113.739 88.8896H111.18V75.2559H116.102C116.606 75.2604 117.104 75.3698 117.564 75.577C118.024 75.7842 118.436 76.0847 118.774 76.4596C119.112 76.8344 119.368 77.2753 119.527 77.7544C119.685 78.2335 119.742 78.7403 119.695 79.2426C119.749 79.7512 119.698 80.2656 119.543 80.7532C119.388 81.2408 119.134 81.691 118.796 82.0751C118.458 82.4592 118.044 82.7689 117.581 82.9845C117.117 83.2002 116.613 83.3171 116.102 83.3278H113.788L113.739 88.8896ZM113.739 81.3098H115.068C116.397 81.3098 117.037 80.5715 117.037 79.2426C117.079 78.9745 117.057 78.7002 116.973 78.4421C116.889 78.1841 116.745 77.9495 116.553 77.7576C116.361 77.5657 116.127 77.4218 115.868 77.3378C115.61 77.2537 115.336 77.2318 115.068 77.2738H113.739V81.3098Z" fill="white"/>
<path d="M138.398 75.0101C141.007 75.0101 142.779 76.1914 142.779 79.6859V84.6078C142.779 88.1024 141.007 89.2344 138.398 89.2344C137.779 89.3104 137.15 89.2416 136.562 89.0336C135.973 88.8256 135.441 88.484 135.007 88.0357C134.573 87.5873 134.249 87.0444 134.06 86.4497C133.871 85.8549 133.823 85.2244 133.919 84.6078V79.6859C133.825 79.0674 133.874 78.4356 134.063 77.8391C134.252 77.2426 134.575 76.6974 135.008 76.2456C135.44 75.7938 135.971 75.4475 136.559 75.2332C137.147 75.019 137.776 74.9427 138.398 75.0101ZM136.626 79.3414V84.9524C136.626 86.3797 137.168 87.118 138.398 87.118C139.629 87.118 140.121 86.3797 140.121 84.9524V79.3906C140.121 77.914 139.53 77.0773 138.398 77.0773C137.266 77.0773 136.626 77.914 136.626 79.3414Z" fill="white"/>
<path d="M159.757 88.8899H157.148V75.2562H162.563C163.021 75.2494 163.476 75.3355 163.901 75.5093C164.325 75.6831 164.71 75.9411 165.032 76.2677C165.354 76.5942 165.606 76.9826 165.774 77.4093C165.942 77.8361 166.021 78.2924 166.008 78.7508C166.008 80.818 165.122 81.8516 163.891 81.9993C164.466 82.0849 164.986 82.3881 165.343 82.8461C165.7 83.3042 165.868 83.8821 165.811 84.4602V86.1829C165.811 87.4134 165.811 88.4962 166.402 88.4962V88.8899H163.793C163.316 88.2565 163.104 87.4621 163.202 86.6751V85.1001C163.202 84.0172 162.858 83.1313 161.627 83.1313H159.757V88.8899ZM159.757 81.1625H161.48C162.415 81.1625 163.301 80.6703 163.301 79.1445C163.301 77.6188 162.612 77.2742 161.43 77.2742H159.757V81.1625Z" fill="white"/>
<path d="M185.55 88.8896H182.991V77.3231H179.742V75.2559H188.798V77.3231H185.55V88.8896Z" fill="white"/>
</svg>
