<svg width="148" height="30" viewBox="0 0 148 30" fill="none" xmlns="http://www.w3.org/2000/svg">
<path d="M24.1647 27.0792C17.2836 27.0792 11.707 21.6716 11.707 15.0014C11.707 8.33086 17.2836 2.92846 24.1647 2.92846C26.59 2.92846 28.8545 3.59885 30.7673 4.76088L24.1647 15.0014L36.5948 8.04542C35.2444 5.96002 33.3074 4.1631 30.9653 2.79955C27.985 1.07022 23.8391 0 19.2548 0C12.7154 0 6.97839 2.30307 3.779 5.75203C1.41026 8.30164 0 11.5105 0 15.0013C0 18.4945 1.41026 21.7057 3.779 24.2571C6.98671 27.7104 12.6383 30 19.0698 30C25.5004 30 31.1503 27.7086 34.3601 24.2571C34.5358 24.0671 34.706 23.8752 34.867 23.6762L34.3823 21.9155C32.1271 25.0353 28.3919 27.0792 24.1647 27.0792Z" fill="#BF1920"/>
<path d="M65.3753 29.2738L60.1583 10.4118C59.3202 7.36373 56.4564 5.12342 53.0469 5.12342C52.1626 5.12342 51.3153 5.27654 50.5291 5.55373L39.2977 9.51189H50.8491L52.8231 16.6565C50.9083 15.0593 48.4145 14.0876 45.6839 14.0876C40.2616 14.0876 35.8715 17.6091 35.8715 21.9531C35.8715 26.2975 40.2616 29.8243 45.6839 29.8243C49.5874 29.8243 53.0395 27.9721 55.1688 25.1267L56.314 29.2738H65.3753ZM49.4616 26.3441C46.9604 26.3441 44.9328 24.3808 44.9328 21.9531C44.9328 19.529 46.9604 17.5639 49.4616 17.5639C51.9628 17.5639 53.9923 19.529 53.9923 21.9531C53.9923 24.3808 51.9628 26.3441 49.4616 26.3441Z" fill="#BF1920"/>
<path d="M86.6466 5.12664C85.9621 5.12664 85.3146 5.27331 84.7374 5.53598L77.5261 8.79309C77.1691 6.71253 75.3043 5.12664 73.0547 5.12664C72.3739 5.12664 71.7245 5.27331 71.1399 5.53598L62.3358 9.51189H68.5258V29.274H77.5872V11.7104C77.5872 10.4986 78.5991 9.51207 79.8534 9.51207C81.1003 9.51207 82.1197 10.4986 82.1197 11.7104V29.274H91.1773V9.51189C91.1773 7.08833 89.1478 5.12664 86.6466 5.12664Z" fill="#BF1920"/>
<path d="M120.622 17.5638C120.622 24.4328 114.878 30 107.792 30C100.701 30 94.9531 24.4328 94.9531 17.5638C94.9531 10.6965 100.701 5.12664 107.792 5.12664C114.878 5.12664 120.622 10.6967 120.622 17.5638ZM108.323 8.90121C107.92 7.43778 106.368 6.56909 104.858 6.96247C103.35 7.35423 102.449 8.85943 102.854 10.3227L107.256 26.2258C107.663 27.6907 109.211 28.5584 110.721 28.1712C112.23 27.7749 113.128 26.2706 112.722 24.8076L108.323 8.90121Z" fill="#BF1920"/>
<path d="M143.471 5.12664C142.785 5.12664 142.134 5.27331 141.547 5.53598L134.343 8.79309C133.988 6.71253 132.123 5.12664 129.874 5.12664C129.193 5.12664 128.544 5.27331 127.957 5.53598L119.157 9.51189H125.345V29.274H134.404V11.7104C134.404 10.4986 135.418 9.51207 136.672 9.51207C137.923 9.51207 138.935 10.4986 138.935 11.7104V29.274H148V9.51189C148 7.08833 145.969 5.12664 143.471 5.12664Z" fill="#BF1920"/>
</svg>
