<svg width="204" height="52" viewBox="0 0 204 52" fill="none" xmlns="http://www.w3.org/2000/svg">
<path fill-rule="evenodd" clip-rule="evenodd" d="M149.081 32.7191V21.0366H142.798V32.2289H135.903V21.0366H129.701V32.8416C129.701 36.4771 129.701 38.7646 135.128 38.7646H143.696C148.959 38.7646 149.122 36.4363 149.122 32.7191H149.081Z" fill="#00579F"/>
<path fill-rule="evenodd" clip-rule="evenodd" d="M108.812 38.7641H115.014V29.0014H122.398V38.7232H128.396V30.9621C128.396 28.3478 127.213 27.1633 125.907 26.8773C126.637 26.707 127.284 26.2877 127.738 25.6913C128.192 25.095 128.425 24.3588 128.396 23.6095V21.1586H122.398V24.5081H115.014V21.1586H108.812V38.7641Z" fill="#00579F"/>
<path fill-rule="evenodd" clip-rule="evenodd" d="M70.2567 38.7237H87.1884V32.474H76.7438V29.247H86.4133V24.2636H76.7438V21.0366H70.2567V38.7237Z" fill="#00579F"/>
<path fill-rule="evenodd" clip-rule="evenodd" d="M49.8569 38.7237H56.0993V29.4921H65.2791C69.3591 29.4921 69.1143 26.7962 69.1143 24.4678V21.0366H63.2392V24.2636H56.0177V21.0366H49.8569V38.7237Z" fill="#00579F"/>
<path fill-rule="evenodd" clip-rule="evenodd" d="M88.9428 20.2198H107.588V14.256H88.9428V20.2198Z" fill="#00579F"/>
<path fill-rule="evenodd" clip-rule="evenodd" d="M94.8995 38.7237H101.346V21.0366H94.8995V38.7237Z" fill="#00579F"/>
<path fill-rule="evenodd" clip-rule="evenodd" d="M176.458 38.7237H182.904V21.0366H176.458V38.7237Z" fill="#00579F"/>
<path fill-rule="evenodd" clip-rule="evenodd" d="M70.2974 20.2198H87.1884V14.256H70.2974V20.2198Z" fill="#00579F"/>
<path fill-rule="evenodd" clip-rule="evenodd" d="M182.904 20.2198V14.256H176.417V20.2198H182.904Z" fill="#00579F"/>
<path fill-rule="evenodd" clip-rule="evenodd" d="M49.8569 14.2151H64.5447C67.8495 14.2151 69.0327 16.1349 69.0327 17.8097V20.2197H49.8569V14.2151Z" fill="#00579F"/>
<path fill-rule="evenodd" clip-rule="evenodd" d="M108.812 14.256H123.704C127.049 14.256 128.233 16.1758 128.233 17.8097V20.2606H108.812V14.256Z" fill="#00579F"/>
<path fill-rule="evenodd" clip-rule="evenodd" d="M138.963 14.2151H143.655C148.714 14.2151 149.081 16.5434 149.081 20.2197H138.963V14.2151Z" fill="#00579F"/>
<path fill-rule="evenodd" clip-rule="evenodd" d="M139.901 14.2151H135.169C130.15 14.2151 129.742 16.5434 129.742 20.2197H139.901V14.2151Z" fill="#00579F"/>
<path fill-rule="evenodd" clip-rule="evenodd" d="M184.454 38.683H190.656V28.9612H197.877V38.683H203.997V30.9219C203.997 28.2667 202.814 27.0821 201.508 26.8371C202.241 26.6584 202.89 26.2311 203.343 25.6279C203.797 25.0247 204.028 24.2828 203.997 23.5284V21.0775H197.837V24.4679H190.615V21.0775H184.454V38.8055V38.683Z" fill="#00579F"/>
<path fill-rule="evenodd" clip-rule="evenodd" d="M184.454 14.1742H199.346C202.692 14.1742 203.875 16.094 203.875 17.7688V20.1788H184.454V14.1742Z" fill="#00579F"/>
<path fill-rule="evenodd" clip-rule="evenodd" d="M172.459 14.2151H164.707L163.973 20.1789L173.031 20.2197L172.459 14.2151Z" fill="#00579F"/>
<path fill-rule="evenodd" clip-rule="evenodd" d="M151.652 20.9957H161.24L162.463 25.734L163.769 21.1182H173.235L175.234 38.7237H168.991L167.359 26.6735L165.115 38.7237H159.852L157.037 26.4285L155.772 38.7237H149.652L151.652 20.9957Z" fill="#00579F"/>
<path fill-rule="evenodd" clip-rule="evenodd" d="M152.386 14.256H160.016L161.117 20.2606H151.652L152.386 14.256Z" fill="#00579F"/>
<path fill-rule="evenodd" clip-rule="evenodd" d="M22.9293 0.449973L33.0067 17.8512H12.9742L22.9293 0.449973Z" fill="#00579F"/>
<path d="M33.374 18.0956H12.5662L12.7702 17.728L22.9293 0L33.374 18.0956ZM13.3822 17.6463H32.6396L22.9701 0.898651L13.3822 17.6463Z" fill="#00579F"/>
<path fill-rule="evenodd" clip-rule="evenodd" d="M19.0125 2.85923L10.5262 17.0335L1.75435 11.8458L19.0125 2.85923Z" fill="#00579F"/>
<path d="M10.6079 17.3608L1.30561 11.8464L1.67281 11.6421L19.6246 2.28795L10.6079 17.3608ZM2.244 11.8872L10.4039 16.7073L18.5638 3.4317L2.244 11.8872Z" fill="#00579F"/>
<path fill-rule="evenodd" clip-rule="evenodd" d="M35.9852 17.2378L44.6347 11.805L27.1725 2.94105L35.9852 17.2378Z" fill="#00579F"/>
<path d="M35.9036 17.647V17.4428L26.6829 2.45158L45.2059 11.8874L35.9036 17.647ZM27.7437 3.59532L35.9036 16.9934L44.0635 11.9283L27.7437 3.59532Z" fill="#00579F"/>
<path fill-rule="evenodd" clip-rule="evenodd" d="M23.1333 37.539L32.8028 20.4646L13.2599 20.6688L23.1333 37.539Z" fill="#00579F"/>
<path d="M23.1333 38.0701L12.8518 20.5055H33.2515L23.1333 38.0701ZM13.6678 20.9548L23.1333 37.294L32.3948 20.9548H13.6678Z" fill="#00579F"/>
<path fill-rule="evenodd" clip-rule="evenodd" d="M45.6138 34.2308V14.4196L36.7603 19.4439L45.6138 34.2308Z" fill="#00579F"/>
<path d="M45.8178 35.0473L36.4339 19.3617L45.8178 14.0514V35.0473ZM37.0867 19.525L45.2466 33.4133V14.8275L37.0867 19.525Z" fill="#00579F"/>
<path fill-rule="evenodd" clip-rule="evenodd" d="M45.0426 38.2746L35.0467 21.6495L25.2957 38.3154L45.0426 38.2746Z" fill="#00579F"/>
<path d="M24.8877 38.5599L35.0468 21.1995L45.4098 38.519L24.8877 38.5599ZM35.0876 22.2207L25.7037 38.0697H44.6346L35.0876 22.2207Z" fill="#00579F"/>
<path fill-rule="evenodd" clip-rule="evenodd" d="M20.8485 38.2746L10.8934 21.6495L1.14235 38.3154L20.8485 38.2746Z" fill="#00579F"/>
<path d="M0.734389 38.5599L10.8935 21.1995L21.2565 38.519L0.734389 38.5599ZM10.8935 22.2207L1.55037 38.0697H20.3997L10.8935 22.2207Z" fill="#00579F"/>
<path fill-rule="evenodd" clip-rule="evenodd" d="M0.408053 34.3534L0.652847 14.4605L9.38393 19.6482L0.408053 34.3534Z" fill="#00579F"/>
<path d="M0 35.1699L0.285595 14.0923L9.54707 19.566L0 35.1699ZM0.734392 14.7459L0.489597 33.4134L8.93508 19.6068L0.734392 14.7459Z" fill="#00579F"/>
<path fill-rule="evenodd" clip-rule="evenodd" d="M21.5013 51.5911L21.6237 41.3383L4.44711 41.3791L21.5013 51.5911Z" fill="#00579F"/>
<path d="M21.7054 52L3.59041 41.1345H21.8278L21.7054 52ZM5.38559 41.5838L21.4198 51.183V41.5429L5.38559 41.5838Z" fill="#00579F"/>
<path fill-rule="evenodd" clip-rule="evenodd" d="M24.5613 51.5502L24.4389 41.2974L41.6155 41.3382L24.5613 51.5502Z" fill="#00579F"/>
<path d="M24.4796 51.959V41.0526H42.717L24.4796 51.959ZM24.4796 41.5428V51.1421L40.7994 41.5837L24.4796 41.5428Z" fill="#00579F"/>
</svg>
