<svg width="139" height="96" viewBox="0 0 139 96" fill="none" xmlns="http://www.w3.org/2000/svg">
<path fill-rule="evenodd" clip-rule="evenodd" d="M78.0214 5.64332C76.827 7.17356 76.1959 9.06948 76.2347 11.0114V27.0698C76.1298 28.2708 75.6848 29.4168 74.9519 30.3732C74.5396 30.7861 72.0656 33.0343 71.8823 33.2637H73.2568C73.7149 32.8508 78.4796 28.6756 78.9835 28.0792C80.3787 26.5658 81.1624 24.5872 81.1826 22.5276V6.83623C81.1584 5.27562 81.7322 3.76505 82.7861 2.61517C83.3817 2.01872 85.2601 0.412881 85.5808 0.0917134H84.1147C83.7482 0.412881 78.4796 5.18451 78.0214 5.6892" fill="#D71920"/>
<path fill-rule="evenodd" clip-rule="evenodd" d="M66.2471 64.0502L72.0655 69.143H75.9597C79.6975 69.1603 83.2895 67.6917 85.9472 65.0596C87.0316 63.9084 87.8775 62.5534 88.4358 61.0729C88.9941 59.5923 89.2539 58.0156 89.2 56.4339V48.0836C89.1928 47.1463 88.9893 46.221 88.6026 45.3675C88.2159 44.5139 87.6546 43.7511 86.9551 43.1284L84.9851 41.2473V47.7166L87.23 50.0106C88.9709 51.8458 88.9709 55.1952 83.4733 60.5632C81.5209 62.6392 78.8485 63.8871 76.0055 64.0502H66.2471Z" fill="#D71920"/>
<path fill-rule="evenodd" clip-rule="evenodd" d="M82.4195 29.7779C81.609 30.8985 81.1758 32.2483 81.1825 33.632V36.7977H84.3895C85.0148 36.7427 85.6222 36.5595 86.1738 36.2596C86.7255 35.9596 87.2097 35.5494 87.5965 35.0543V31.9344C88.077 32.6206 88.6649 33.2248 89.3375 33.7237C89.6581 33.3108 92.5444 29.7779 95.0184 29.7779C99.0959 29.7779 98.1796 34.8707 96.4845 36.5225L92.8193 39.9635C90.8951 41.7988 87.5965 40.927 87.5965 36.2013C87.5965 36.2013 84.0688 39.5506 83.5191 40.0094C82.9693 40.4682 81.1825 42.3952 81.1825 42.3952V50.6997C81.2778 51.9164 81.0964 53.1388 80.652 54.2752C80.2076 55.4116 79.5119 56.4323 78.617 57.2607C78.2046 57.7195 73.7148 61.8488 73.1193 62.2617H71.6532L74.8144 59.3253C75.7339 58.2069 76.1927 56.7793 76.0972 55.3337C76.0972 54.7831 76.0972 42.2117 76.0972 42.2117H55.7099C48.6087 42.2117 47.0969 34.3202 47.051 32.2096V24.364C47.0458 23.5474 46.8481 22.7436 46.4739 22.018C46.0997 21.2925 45.5597 20.6657 44.8978 20.1888H46.9136C47.1427 20.1888 48.3797 20.7853 48.3797 25.6028C48.3797 25.6028 48.3797 31.2461 48.3797 31.5673C48.3586 32.8579 48.8148 34.1108 49.6606 35.0848C50.5064 36.0588 51.6819 36.6853 52.9611 36.8436H75.8681C76.1141 35.3126 76.7272 33.8642 77.6549 32.6226C78.2505 31.9344 83.2442 27.3462 83.794 26.9333H85.26C85.0309 26.9333 82.6486 29.2733 82.0988 29.8238L82.4195 29.7779ZM89.704 34.4119C90.2973 35.229 90.9561 35.9962 91.674 36.706C94.1937 38.6789 95.3849 36.706 93.6898 34.2284C93.0484 33.3567 90.4828 33.5861 89.704 34.2284" fill="#D71920"/>
<path fill-rule="evenodd" clip-rule="evenodd" d="M65.2392 49.4598C65.2392 50.6069 61.6657 53.5433 61.4366 53.7727C61.4366 52.5339 60.2913 51.2033 57.6341 48.5422L61.5283 44.6423C64.1397 47.2575 65.2392 47.854 65.2392 49.4598Z" fill="#D71920"/>
<path fill-rule="evenodd" clip-rule="evenodd" d="M72.0197 4.63398C72.7985 5.41396 74.4478 7.57037 73.4399 8.57976L71.195 10.8738C71.195 10.3691 69.8206 9.13033 69.8206 9.13033V13.3973C69.8206 15.0949 69.1334 15.5537 69.1334 15.5537C70.9692 17.5055 72.0705 20.0357 72.2488 22.7111C72.2488 24.684 72.2488 26.4734 72.2488 26.8404C72.2695 27.618 71.9906 28.3737 71.4699 28.9509L67.8048 32.5755C67.163 33.1848 66.3065 33.5147 65.4225 33.4932H54.6103C52.9152 33.4932 51.1285 32.1167 51.1285 30.7862C51.1285 30.465 51.1285 26.7487 51.1285 26.7487C51.3789 27.1832 51.7397 27.5436 52.1742 27.7934C52.6087 28.0432 53.1014 28.1734 53.6024 28.171C54.535 28.0543 55.4038 27.6354 56.0764 26.9781C56.3971 26.7028 64.2771 18.3983 64.2771 18.3983C62.3431 16.6018 60.3087 14.9168 58.1838 13.3514C57.9061 13.2022 57.5985 13.1173 57.2837 13.103C56.9689 13.0886 56.6548 13.1451 56.3647 13.2684C56.0746 13.3916 55.8158 13.5785 55.6073 13.8152C55.3988 14.0519 55.246 14.3324 55.1601 14.6361C54.7582 17.3588 54.7582 20.126 55.1601 22.8488L52.1822 19.8665C51.5681 19.0827 51.2578 18.103 51.3083 17.108C51.3588 16.1131 51.7668 15.1699 52.4571 14.4525C53.7698 12.9157 55.6245 11.9459 57.6341 11.7455H62.2155C64.4773 12.0727 66.5864 13.0808 68.2629 14.6361C68.538 14.3649 68.7153 14.0098 68.7669 13.6267C68.7669 12.1585 68.7669 8.12094 68.7669 8.12094C66.6136 5.91865 66.2929 3.53284 67.3467 2.61522L70.0039 0C70.1665 1.76275 70.984 3.40012 72.2946 4.58811L72.0197 4.63398ZM58.5503 26.4275C57.9239 27.2123 57.1639 27.8802 56.3055 28.4004H68.5378C71.8364 28.4004 71.195 26.3816 70.5994 25.3263C69.0089 23.1689 67.2469 21.1435 65.3308 19.27L58.3671 26.4734" fill="#D71920"/>
<path fill-rule="evenodd" clip-rule="evenodd" d="M44.4854 37.5782H42.4696C43.165 38.0436 43.7287 38.6809 44.1059 39.4284C44.4832 40.176 44.6612 41.0084 44.6229 41.8452V51.6178C44.6191 54.7539 45.821 57.771 47.9791 60.0434C50.1373 62.3158 53.0861 63.6689 56.2138 63.8222H61.5283C62.6752 63.9206 63.8296 63.7615 64.9074 63.3568C65.9853 62.952 66.9594 62.3116 67.759 61.4823C68.4462 60.8399 69.3625 59.8305 69.6832 59.4635C70.4729 58.7806 71.0946 57.9243 71.4999 56.9614C71.9051 55.9985 72.083 54.9549 72.0197 53.9119V50.7461C71.9952 49.8506 71.768 48.9724 71.3553 48.1777C70.9427 47.3829 70.3553 46.6923 69.6374 46.158L67.759 44.3686V50.9296C67.759 50.9296 69.1334 52.3519 69.6832 52.8107C70.2171 53.2377 70.6077 53.8183 70.8022 54.4742C70.9968 55.1302 70.9861 55.8301 70.7715 56.4798C70.5569 57.1295 70.1488 57.6978 69.602 58.1082C69.0552 58.5185 68.396 58.7514 67.7132 58.7753H56.0764C53.4016 58.7164 50.8535 57.623 48.966 55.7242C47.0785 53.8253 45.9982 51.2686 45.9515 48.5897V43.1298C45.9515 37.67 44.4854 37.67 44.4854 37.67" fill="#D71920"/>
<path fill-rule="evenodd" clip-rule="evenodd" d="M57.2217 49.5063C57.2217 50.6074 53.694 53.5897 53.465 53.7732C53.1901 52.5803 52.3196 51.2498 49.6624 48.5887L53.5566 44.6888C56.168 47.304 57.2217 47.8546 57.2217 49.5063Z" fill="#D71920"/>
<path fill-rule="evenodd" clip-rule="evenodd" d="M16.4014 92.9098H10.1707C8.20073 92.9098 8.33817 91.3039 8.20073 89.8816V80.8889H11.087C13.1335 80.6531 15.2057 80.9699 17.0887 81.8065C16.5426 80.6881 15.6859 79.7512 14.6213 79.1083C13.5568 78.4653 12.3296 78.1437 11.087 78.1819H8.20073V75.2456C8.23602 74.1399 8.01655 73.0409 7.55933 72.0339H11.6826C14.8595 71.6557 18.0734 72.3155 20.8454 73.915C20.8454 73.915 20.2956 69.3269 13.4235 69.3269H0C0.755213 70.1096 1.34365 71.0378 1.72956 72.0553C2.11547 73.0727 2.29081 74.1581 2.2449 75.2456V91.5792C2.2449 95.7085 3.84838 95.8003 3.84838 95.8003H17.1345C17.6198 95.8574 18.1116 95.8169 18.581 95.6809C19.0505 95.5449 19.488 95.3163 19.8679 95.0085C20.2478 94.7007 20.5624 94.32 20.7932 93.8886C21.0241 93.4573 21.1664 92.9841 21.2119 92.4968V90.9369C21.2119 90.9369 20.2498 92.9098 16.264 92.9098" fill="#D71920"/>
<path fill-rule="evenodd" clip-rule="evenodd" d="M51.7699 91.4875V80.0631C51.7768 79.2619 51.6119 78.4687 51.2864 77.7368C50.9608 77.005 50.4822 76.3517 49.8828 75.8211C49.2835 75.2904 48.5773 74.8948 47.8122 74.661C47.047 74.4271 46.2406 74.3605 45.4476 74.4656C44.2857 74.5011 43.1657 74.9076 42.2508 75.6257C41.336 76.3438 40.6742 77.3359 40.3622 78.4573C39.9365 77.2498 39.1395 76.2086 38.0859 75.4832C37.0323 74.7578 35.7761 74.3855 34.498 74.4197C33.2727 74.4321 32.0843 74.8409 31.11 75.585C30.1357 76.3292 29.4278 77.3689 29.0919 78.549C29.0919 78.549 29.0919 74.5574 25.5184 74.5574H22.1282C22.1282 74.5574 24.0982 75.3832 24.0982 78.8243V91.5334C24.0982 95.7085 25.7933 95.8003 25.7933 95.8003H31.3826C30.7154 95.2969 30.1737 94.6455 29.8001 93.8972C29.4265 93.1489 29.2311 92.3241 29.2294 91.4875V80.2007C29.453 79.4595 29.9402 78.8261 30.5987 78.4202C31.2572 78.0144 32.0414 77.8643 32.8029 77.9984C33.5606 78.0666 34.266 78.4142 34.7824 78.9737C35.2987 79.5332 35.5892 80.2648 35.5975 81.0266V91.4875C35.5975 95.7544 37.2927 95.7544 37.2927 95.7544H42.882C42.2283 95.2488 41.6957 94.6032 41.3232 93.865C40.9506 93.1267 40.7475 92.3144 40.7287 91.4875V80.2007C40.9372 79.5563 41.3495 78.9973 41.9033 78.6083C42.4571 78.2193 43.1222 78.0213 43.7983 78.0443C44.6045 78.0442 45.3784 78.3618 45.9527 78.9284C46.5271 79.495 46.8558 80.2652 46.8678 81.0725V91.5334C46.8678 95.8003 48.5171 95.7544 48.5171 95.7544H54.1522C53.4911 95.2557 52.9532 94.6117 52.5798 93.8719C52.2065 93.1321 52.0078 92.3163 51.999 91.4875" fill="#D71920"/>
<path fill-rule="evenodd" clip-rule="evenodd" d="M61.5742 91.4877C61.5759 92.3178 61.7716 93.136 62.1455 93.8769C62.5194 94.6178 63.0611 95.2608 63.7274 95.7546H58.1381C58.1381 95.7546 56.443 95.7546 56.443 91.5335V78.7786C56.443 75.4293 54.473 74.5575 54.473 74.5575H57.8632C59.1002 74.5575 61.5742 74.5575 61.5742 79.1457V91.4877Z" fill="#D71920"/>
<path fill-rule="evenodd" clip-rule="evenodd" d="M78.6171 76.1634C78.6171 76.1634 78.1131 74.6493 75.7766 74.6493C72.2489 74.6493 71.1952 78.8245 71.1952 78.8245C70.9203 75.5211 70.0498 74.5575 67.5759 74.5575H64.1856C64.1856 74.5575 66.1556 75.3375 66.1556 78.7786V91.4877C66.1556 95.7087 67.8508 95.7546 67.8508 95.7546H73.4401C72.7822 95.256 72.2492 94.6108 71.8834 93.8702C71.5176 93.1296 71.3291 92.3139 71.3326 91.4877V81.0727C71.3876 80.6336 71.5395 80.2123 71.7772 79.8394C72.0149 79.4664 72.3325 79.1511 72.707 78.9162C73.6385 78.3348 74.7475 78.1077 75.8322 78.2761C76.9168 78.4445 77.9051 78.9973 78.6171 79.8339V76.1634Z" fill="#D71920"/>
<path fill-rule="evenodd" clip-rule="evenodd" d="M104.914 76.9441C106.064 76.9514 107.195 77.2346 108.213 77.77V74.5583H103.632V69.6949C102.62 71.2998 101.351 72.726 99.8748 73.916C98.3183 75.0437 96.6621 76.0266 94.9269 76.8523H98.5004V91.626C98.5004 95.7095 100.195 95.7095 100.195 95.7095H105.785C105.132 95.2346 104.597 94.6146 104.224 93.8981C103.85 93.1817 103.647 92.3883 103.632 91.5802V76.8982H105.006" fill="#D71920"/>
<path fill-rule="evenodd" clip-rule="evenodd" d="M121.911 83.3206C118.796 86.624 116.322 86.1194 114.352 88.5052C114.42 89.4375 114.708 90.3402 115.194 91.1382C115.681 91.9362 116.35 92.6064 117.147 93.0933C118.313 93.6638 119.658 93.7475 120.887 93.326C122.115 92.9045 123.126 92.0123 123.698 90.8451V94.2862C121.994 95.6097 119.836 96.2036 117.696 95.9379C116.403 95.9458 115.123 95.6795 113.94 95.1565C112.758 94.6336 111.699 93.8659 110.833 92.9038C109.968 91.9417 109.315 90.8071 108.919 89.5746C108.523 88.342 108.391 87.0394 108.534 85.7523C108.534 79.9713 111.603 74.6491 117.376 74.6032C123.148 74.5573 126.126 79.1913 121.957 83.4583L121.911 83.3206ZM118.521 82.1277C119.483 80.4301 120.216 76.0714 117.009 76.3008C113.802 76.5302 114.031 86.3488 114.031 86.3488C115.268 85.0182 117.101 84.7429 118.613 82.1277" fill="#D71920"/>
<path fill-rule="evenodd" clip-rule="evenodd" d="M58.9627 72.8598C59.6432 72.8598 60.2957 72.5891 60.7769 72.1072C61.258 71.6254 61.5283 70.9719 61.5283 70.2904C61.5283 69.609 61.258 68.9555 60.7769 68.4736C60.2957 67.9918 59.6432 67.7211 58.9627 67.7211C58.2823 67.7211 57.6297 67.9918 57.1486 68.4736C56.6674 68.9555 56.3971 69.609 56.3971 70.2904C56.3971 70.9719 56.6674 71.6254 57.1486 72.1072C57.6297 72.5891 58.2823 72.8598 58.9627 72.8598Z" fill="#D71920"/>
<path fill-rule="evenodd" clip-rule="evenodd" d="M84.6645 93.5971C84.0203 93.5165 83.4321 93.19 83.0224 92.6857C82.6127 92.1814 82.4132 91.5381 82.4654 90.8901C82.4654 85.6138 86.7719 84.8797 87.9631 83.4574V92.6336C87.547 93.0799 87.0309 93.4208 86.4574 93.6282C85.8839 93.8356 85.2694 93.9036 84.6645 93.8265V93.5971ZM87.7799 81.2092C86.4512 83.4574 76.3263 83.9621 77.884 91.8077C77.9566 92.4213 78.1521 93.0139 78.4589 93.5499C78.7658 94.0859 79.1775 94.5544 79.6695 94.9271C80.1616 95.2999 80.7237 95.5693 81.3222 95.7192C81.9207 95.8691 82.5433 95.8964 83.1526 95.7994C84.072 95.8286 84.9824 95.6098 85.7884 95.1659C86.5944 94.722 87.2664 94.0692 87.734 93.2759C88.1006 95.6159 89.2917 95.7535 89.2917 95.7535H94.881C94.2098 95.2718 93.6611 94.6387 93.2791 93.9055C92.8971 93.1723 92.6925 92.3594 92.682 91.5325V79.8328C92.682 76.9882 89.5208 74.7859 86.1764 74.7859C84.3177 74.7633 82.4962 75.3074 80.9535 76.3458V79.8328C81.2707 79.0058 81.8202 78.2884 82.5357 77.7674C83.2511 77.2463 84.1018 76.9438 84.9852 76.8964C87.8715 76.8964 88.0547 78.3187 88.0547 79.0528C88.1944 79.8127 88.0474 80.5975 87.6424 81.2551" fill="#D71920"/>
<path fill-rule="evenodd" clip-rule="evenodd" d="M134.327 90.0194C134.287 90.5227 134.147 91.0128 133.914 91.4605C133.681 91.9082 133.36 92.3045 132.971 92.6255C132.582 92.9466 132.133 93.186 131.649 93.3295C131.166 93.4729 130.659 93.5175 130.158 93.4605C129.261 93.4181 128.397 93.1128 127.672 92.5826C126.947 92.0524 126.394 91.3207 126.08 90.4782V94.2863C127.67 95.2908 129.515 95.8164 131.395 95.8004C133.294 95.8771 135.149 95.2117 136.568 93.9448C137.987 92.6779 138.859 90.9085 139 89.01C138.987 87.6646 138.537 86.36 137.717 85.2936C136.128 83.6436 134.269 82.2781 132.22 81.2561C131.817 81.0177 131.466 80.6994 131.191 80.3207C130.915 79.942 130.719 79.5109 130.616 79.0538C130.616 78.3197 130.937 76.8974 133.777 76.8974C134.645 76.9619 135.476 77.2722 136.173 77.7922C136.871 78.3122 137.407 79.0203 137.717 79.8338V76.301C136.152 75.1866 134.277 74.5928 132.357 74.6034C130.855 74.4598 129.357 74.9059 128.177 75.8474C126.998 76.789 126.23 78.1524 126.035 79.6503C126.045 80.7353 126.322 81.801 126.842 82.7532C127.361 83.7054 128.107 84.5149 129.013 85.1101C129.931 85.7882 130.895 86.4014 131.899 86.9454C132.512 87.2114 133.044 87.6365 133.438 88.1769C133.833 88.7173 134.076 89.3533 134.144 90.0194" fill="#D71920"/>
</svg>
