<svg width="254" height="122" viewBox="0 0 254 122" fill="none" xmlns="http://www.w3.org/2000/svg">
<path d="M67.0807 21.8307C65.0382 14.0476 61.6929 6.66648 57.1867 0C53.2422 5.91292 50.168 12.3621 48.0586 19.1497C45.4472 28.0938 44.6657 37.4725 45.7606 46.7254C46.5361 52.7356 48.0364 58.6298 50.2289 64.2793C52.0174 68.6182 54.3099 72.7317 57.059 76.5352C62.9665 67.9771 66.8118 58.1672 68.2935 47.8744C69.5728 39.1866 69.0952 30.3305 66.8892 21.8307H67.0807ZM56.9952 73.7265C54.7619 69.4259 53.5806 64.6569 53.5482 59.811C53.5705 55.0171 54.7764 50.3028 57.059 46.0871C59.0578 50.1922 60.1672 54.6731 60.3145 59.2366C60.4411 64.2685 59.2996 69.2515 56.9952 73.7265V73.7265ZM66.1232 40.9166C66.0737 44.7791 65.6461 48.6274 64.8466 52.4065C65.105 46.8669 64.6978 41.3164 63.6337 35.8739C62.3296 29.7144 60.1815 23.7644 57.2505 18.1923C54.3563 23.7582 52.21 29.682 50.8672 35.81C49.8455 41.2606 49.3538 46.7973 49.3991 52.3426C48.5226 47.0494 48.1592 41.6838 48.314 36.3207C48.469 31.4811 49.1106 26.6695 50.2289 21.9584C51.7513 16.4164 53.8925 11.0633 56.6122 6.00026C59.51 10.9562 61.7827 16.2521 63.3784 21.7669C65.2373 27.9838 66.2255 34.4284 66.3147 40.9166H66.1232Z" fill="#007AC2"/>
<path d="M61.5276 79.0893H42.0587V92.2388C44.2595 90.0295 47.2478 88.785 50.3663 88.779C53.4847 88.773 56.4778 90.006 58.6871 92.2069C60.8963 94.4077 62.1409 97.396 62.1468 100.514C62.1528 103.633 60.9198 106.626 58.719 108.835C56.5522 111.015 53.9766 112.747 51.1396 113.93C48.3026 115.113 45.2601 115.724 42.1864 115.729C37.9153 115.727 33.725 114.564 30.064 112.365C26.403 110.165 23.409 107.011 21.4025 103.24C19.396 99.4701 18.4524 95.225 18.6728 90.9596C18.8932 86.6942 20.2692 82.569 22.6536 79.0254C23.5022 77.79 24.4639 76.636 25.5261 75.5785C27.7101 73.3859 30.3068 71.6478 33.1664 70.4645C36.026 69.2812 39.0917 68.6763 42.1864 68.6846V37.279C35.2128 37.227 28.3368 38.9175 22.1823 42.1969C16.0278 45.4764 10.7898 50.2411 6.94381 56.0583C3.09781 61.8756 0.765571 68.5613 0.15881 75.5086C-0.447951 82.4559 0.689978 89.4447 3.4693 95.8406C6.24862 102.237 10.5813 107.837 16.0741 112.134C21.5669 116.43 28.0458 119.287 34.9228 120.445C41.7997 121.603 48.8569 121.025 55.4537 118.763C62.0505 116.501 67.9781 112.628 72.6983 107.495V79.0893H61.5276Z" fill="#007AC2"/>
<path d="M97.4653 71.684C97.4653 74.6841 97.0823 79.2801 91.0821 79.2801H84.0605C78.1879 79.2801 77.6772 74.6841 77.6772 71.684V44.619C77.6772 41.6189 78.0602 37.0229 84.0605 37.0229H91.0821C96.9547 37.0229 97.4653 41.6189 97.4653 44.619V50.5554H89.0394V43.6615C89.0398 43.2999 88.9006 42.952 88.6509 42.6904C88.4012 42.4288 88.0602 42.2737 87.6989 42.2572C87.5174 42.257 87.3377 42.2937 87.1708 42.365C87.0039 42.4363 86.8531 42.5408 86.7278 42.6721C86.6024 42.8034 86.5051 42.9588 86.4416 43.1289C86.3781 43.299 86.3498 43.4802 86.3585 43.6615V72.45C86.3498 72.6313 86.3781 72.8125 86.4416 72.9826C86.5051 73.1527 86.6024 73.3081 86.7278 73.4394C86.8531 73.5707 87.0039 73.6752 87.1708 73.7465C87.3377 73.8178 87.5174 73.8545 87.6989 73.8543C88.0602 73.8379 88.4012 73.6827 88.6509 73.4211C88.9006 73.1595 89.0398 72.8116 89.0394 72.45V63.1943H87.7628V58.5345H97.4653V71.684Z" fill="#007AC2"/>
<path d="M110.168 63.3857L111.636 42.321H112.147L113.551 63.3857H110.168V63.3857ZM100.848 79.28H109.083L109.912 67.7902H114.061L114.827 79.0247H123.126L118.721 36.7676H105.253L100.848 79.28Z" fill="#007AC2"/>
<path d="M126.062 73.9181L134.105 42.321H126.892V37.0229H142.85V42.321L134.743 73.8543H143.297V79.2801H126.062V73.9181Z" fill="#007AC2"/>
<path d="M155.745 59.6197V42.2572H156.766C157.723 42.2572 158.362 43.087 158.362 44.3637V57.5132C158.362 58.8537 157.723 59.6197 156.766 59.6197H155.745ZM147.255 79.2801H155.745V64.9178H160.532C166.468 64.9178 166.915 60.3218 166.915 57.3855V44.619C166.915 41.6189 166.532 37.0229 160.532 37.0229H147.255V79.2801Z" fill="#007AC2"/>
<path d="M179.618 58.345V42.2592H180.703C181.597 42.2592 182.299 43.089 182.299 44.3657V56.2385C182.299 57.579 181.597 58.345 180.703 58.345H179.618ZM191.81 79.2821L187.597 62.8133C188.607 62.4049 189.457 61.6805 190.021 60.7485C190.585 59.8164 190.832 58.7269 190.725 57.6428V44.8763C190.725 41.8762 190.342 37.2803 184.342 37.2803H171.511V79.2821H179.937V63.6431H180.575L183.448 79.2821H191.81Z" fill="#007AC2"/>
<path d="M207.448 72.45C207.449 72.8116 207.31 73.1595 207.06 73.4211C206.81 73.6827 206.469 73.8379 206.108 73.8543C205.926 73.8545 205.747 73.8178 205.58 73.7465C205.413 73.6752 205.262 73.5707 205.137 73.4394C205.011 73.3081 204.914 73.1527 204.851 72.9826C204.787 72.8125 204.759 72.6313 204.767 72.45V43.6615C204.759 43.4802 204.787 43.299 204.851 43.1289C204.914 42.9588 205.011 42.8034 205.137 42.6721C205.262 42.5408 205.413 42.4363 205.58 42.365C205.747 42.2937 205.926 42.257 206.108 42.2572C206.469 42.2737 206.81 42.4288 207.06 42.6904C207.31 42.952 207.449 43.2999 207.448 43.6615V72.45ZM196.342 71.684C196.342 74.6841 196.725 79.2801 202.725 79.2801H209.81C215.747 79.2801 216.193 74.6841 216.193 71.684V44.619C216.193 41.6189 215.874 37.0229 209.81 37.0229H202.789C196.916 37.0229 196.405 41.6189 196.405 44.619L196.342 71.684Z" fill="#007AC2"/>
<path d="M242.365 37.0229H253.345V79.2801H244.919V52.7896H244.599L240.259 79.2801H233.493L229.152 52.7896H228.897V79.2801H220.407V37.0229H231.386L236.876 66.7051L242.365 37.0229Z" fill="#007AC2"/>
<path d="M253.152 92.1108H77.613V121.155H253.152V92.1108Z" fill="#007AC2"/>
<path d="M95.9335 97.5996V100.281H89.8694V104.366H95.4229V107.111H89.8694V112.473H95.9335V115.154H86.4863V97.5996H95.9335Z" fill="white"/>
<path d="M117.573 97.5993L119.871 103.344L122.296 97.5993H126.062L121.658 106.089L126.19 115.153H122.488L119.871 108.77L117.19 115.153H113.487L117.764 106.089L113.679 97.4717L117.573 97.5993Z" fill="white"/>
<path d="M147.51 115.281H144.191V97.5996H150.574C151.229 97.6055 151.875 97.7473 152.471 98.0161C153.068 98.2848 153.602 98.6746 154.04 99.1607C154.479 99.6468 154.811 100.219 155.016 100.84C155.222 101.461 155.296 102.119 155.234 102.77C155.305 103.43 155.238 104.097 155.037 104.729C154.837 105.362 154.507 105.945 154.069 106.443C153.631 106.942 153.094 107.343 152.492 107.623C151.891 107.903 151.237 108.054 150.574 108.068H147.574L147.51 115.281ZM147.51 105.451H149.234C150.957 105.451 151.787 104.494 151.787 102.77C151.842 102.422 151.813 102.067 151.704 101.732C151.595 101.397 151.408 101.093 151.16 100.844C150.911 100.595 150.606 100.409 150.272 100.3C149.937 100.191 149.581 100.162 149.234 100.217H147.51V105.451Z" fill="white"/>
<path d="M179.49 97.2809C182.873 97.2809 185.171 98.8128 185.171 103.345V109.728C185.171 114.26 182.873 115.728 179.49 115.728C178.687 115.827 177.872 115.738 177.109 115.468C176.346 115.198 175.656 114.755 175.093 114.174C174.53 113.592 174.109 112.888 173.865 112.117C173.62 111.345 173.557 110.528 173.681 109.728V103.345C173.559 102.543 173.623 101.723 173.868 100.95C174.113 100.176 174.532 99.4691 175.093 98.8832C175.654 98.2973 176.343 97.848 177.105 97.5702C177.868 97.2924 178.683 97.1934 179.49 97.2809V97.2809ZM177.192 102.898V110.175C177.192 112.026 177.894 112.984 179.49 112.984C181.086 112.984 181.724 112.026 181.724 110.175V102.962C181.724 101.047 180.958 99.9618 179.49 99.9618C178.022 99.9618 177.192 101.047 177.192 102.898Z" fill="white"/>
<path d="M207.193 115.282H203.81V97.6001H210.832C211.427 97.5912 212.017 97.7029 212.567 97.9283C213.117 98.1538 213.616 98.4883 214.034 98.9118C214.452 99.3353 214.779 99.839 214.997 100.392C215.214 100.946 215.317 101.538 215.3 102.132C215.3 104.813 214.151 106.154 212.555 106.345C213.301 106.456 213.975 106.849 214.438 107.443C214.901 108.038 215.119 108.787 215.045 109.537V111.771C215.045 113.367 215.045 114.771 215.811 114.771V115.282H212.428C211.809 114.46 211.534 113.43 211.662 112.409V110.367C211.662 108.962 211.215 107.813 209.619 107.813H207.193V115.282ZM207.193 105.26H209.428C210.64 105.26 211.789 104.622 211.789 102.643C211.789 100.664 210.896 100.217 209.364 100.217H207.193V105.26Z" fill="white"/>
<path d="M240.642 115.281H237.322V100.281H233.109V97.5996H244.855V100.281H240.642V115.281Z" fill="white"/>
</svg>
