<svg width="110" height="108" viewBox="0 0 110 108" fill="none" xmlns="http://www.w3.org/2000/svg">
<path d="M109.148 0.486328H0V107.563H109.148V0.486328Z" fill="white"/>
<path fill-rule="evenodd" clip-rule="evenodd" d="M5.36963 52.4281C5.36963 52.4281 13.0907 32.9149 29.9366 31.6164C46.7826 30.3178 103.918 53.4108 103.918 53.4108V7.36523H5.65039L5.36963 52.4281Z" fill="#D83942"/>
<path fill-rule="evenodd" clip-rule="evenodd" d="M5.36987 58.2188C5.36987 58.2188 11.5467 41.3729 28.7085 38.9864C45.8703 36.5999 103.498 55.0602 103.498 55.0602V100.404L5.22949 100.685L5.36987 58.2188Z" fill="#263C84"/>
<path d="M26.778 22.2809C28.252 22.0352 29.9717 21.4386 30.2875 19.9294C30.5364 18.7738 30.3476 17.5668 29.7575 16.5424C29.1675 15.518 28.2183 14.749 27.0938 14.3843C26.0523 14.0711 24.9416 14.0711 23.9001 14.3843C23.0057 14.6313 22.1691 15.0531 21.4388 15.6254C20.7085 16.1977 20.0988 16.9091 19.6452 17.7185C19.1915 18.5279 18.9029 19.4192 18.7959 20.3408C18.6889 21.2625 18.7657 22.1963 19.0218 23.0881C19.4394 24.4929 20.3015 25.7244 21.4785 26.5976C20.2502 24.176 22.8121 22.8775 26.778 22.2809ZM32.6389 19.2626C32.1814 17.5921 31.1013 16.1604 29.6207 15.2617C30.2755 15.9128 30.7639 16.7119 31.0449 17.5915C31.3259 18.4711 31.3911 19.4054 31.2351 20.3155C30.814 22.0703 29.7962 23.053 27.1289 23.4741C24.4616 23.8953 22.8121 24.4919 22.2857 25.5798C22.1975 25.7614 22.1465 25.9588 22.1359 26.1604C22.1253 26.3619 22.1553 26.5636 22.224 26.7534C22.2927 26.9432 22.3988 27.1173 22.536 27.2653C22.6732 27.4134 22.8387 27.5324 23.0227 27.6154C23.7447 27.9827 24.5336 28.2001 25.3418 28.2543C26.15 28.3086 26.9609 28.1987 27.7255 27.9313C28.6231 27.6881 29.4634 27.269 30.1976 26.6983C30.9318 26.1276 31.5453 25.4167 32.0025 24.6069C32.4596 23.7971 32.7513 22.9046 32.8605 21.9811C32.9698 21.0576 32.8945 20.1216 32.6389 19.2275V19.2626Z" fill="white"/>
<path fill-rule="evenodd" clip-rule="evenodd" d="M22.0051 61.7283C22.0077 61.615 21.9797 61.5031 21.9242 61.4043C21.8686 61.3055 21.7874 61.2235 21.6893 61.1668C21.4764 61.0031 21.2397 60.8729 20.9874 60.7808L20.0398 60.4298C19.6991 60.3357 19.3781 60.1812 19.0922 59.9736C18.7641 59.7886 18.4927 59.5176 18.3072 59.1899C18.1217 58.8621 18.0291 58.49 18.0393 58.1135C18.0343 57.7516 18.1061 57.3928 18.2499 57.0606C18.3975 56.7775 18.6003 56.5269 18.8465 56.3236C19.116 56.1102 19.4266 55.9549 19.759 55.8674C20.1549 55.8139 20.5563 55.8139 20.9522 55.8674C21.4304 55.8137 21.913 55.8137 22.3912 55.8674C22.7706 55.9241 23.1381 56.0427 23.4791 56.2183L22.9527 57.6572H22.6018H22.1104L21.584 57.3765H20.9522C20.6453 57.3577 20.3398 57.4311 20.0749 57.587C19.974 57.6406 19.8906 57.722 19.8346 57.8215C19.7786 57.921 19.7524 58.0346 19.759 58.1486C19.7599 58.2612 19.7894 58.3718 19.8446 58.47C19.8998 58.5682 19.9791 58.6508 20.0749 58.7101C20.296 58.8608 20.5311 58.9901 20.7768 59.0962L21.7244 59.4471C22.0591 59.5565 22.3777 59.7099 22.6719 59.9034C22.9731 60.0711 23.2267 60.3127 23.409 60.6053C23.627 60.9252 23.7376 61.3063 23.7248 61.6932C23.743 62.0939 23.6585 62.4926 23.4791 62.8514C23.3409 63.1699 23.1234 63.4478 22.8474 63.6586C22.5526 63.873 22.2188 64.028 21.8647 64.1148C21.4454 64.1704 21.0206 64.1704 20.6013 64.1148H19.6888H18.9518H18.3201L17.8989 63.9394L18.4605 62.5004C18.5768 62.5177 18.6951 62.5177 18.8114 62.5004L19.3027 62.6759H19.8643H20.496C20.893 62.6941 21.289 62.6221 21.6542 62.4654C21.7822 62.3944 21.8849 62.2853 21.9478 62.1531C22.0107 62.021 22.0308 61.8724 22.0051 61.7283Z" fill="white"/>
<path fill-rule="evenodd" clip-rule="evenodd" d="M24.0056 57.9031H25.0936V56.6396H26.708V57.9031H28.2873V59.2367H26.708V61.3425C26.638 61.6781 26.638 62.0246 26.708 62.3602C26.7534 62.4677 26.8332 62.5569 26.9348 62.6141C27.0364 62.6713 27.1542 62.6931 27.2695 62.6761H27.6907H28.0767L28.4277 63.9045L27.5854 64.1852H26.6729C26.4362 64.2096 26.1971 64.1813 25.9726 64.1024C25.7481 64.0235 25.5438 63.896 25.3744 63.729C25.0582 63.3328 24.9073 62.8299 24.9532 62.3252V59.3069H24.0407L24.0056 57.9031Z" fill="white"/>
<path fill-rule="evenodd" clip-rule="evenodd" d="M28.6031 63.0617C28.6022 62.8172 28.6894 62.5805 28.8487 62.3949C28.9366 62.3097 29.0413 62.2439 29.1562 62.2016C29.271 62.1592 29.3934 62.1414 29.5155 62.1493C29.6324 62.142 29.7494 62.1601 29.8584 62.2026C29.9675 62.245 30.0661 62.3106 30.1473 62.3949C30.3078 62.58 30.3961 62.8168 30.3961 63.0617C30.3961 63.3067 30.3078 63.5435 30.1473 63.7286C29.9742 63.8855 29.7492 63.973 29.5155 63.9742C29.393 63.9849 29.2696 63.9687 29.1541 63.9266C29.0385 63.8846 28.9335 63.8177 28.8466 63.7307C28.7596 63.6438 28.6927 63.5388 28.6507 63.4232C28.6086 63.3077 28.5923 63.1843 28.6031 63.0617Z" fill="white"/>
<path fill-rule="evenodd" clip-rule="evenodd" d="M34.815 57.3763H34.3588H34.0078V59.7629H35.3766C35.5773 59.7362 35.7693 59.6642 35.9381 59.5523C36.1094 59.4621 36.2545 59.3291 36.3592 59.1662C36.4203 58.9362 36.4203 58.6943 36.3592 58.4643C36.4031 58.2679 36.4031 58.0641 36.3592 57.8677C36.2536 57.7144 36.1079 57.593 35.9381 57.5167C35.8374 57.4602 35.7317 57.4132 35.6222 57.3763H34.815ZM32.3232 56.0778H33.4463H34.6746C35.1068 56.0431 35.541 56.0431 35.9732 56.0778C36.3763 56.1481 36.7667 56.2782 37.1314 56.4639C37.4779 56.6701 37.7674 56.9596 37.9736 57.3062C38.2184 57.7197 38.3402 58.1946 38.3246 58.6749C38.331 59.1235 38.235 59.5676 38.0438 59.9734C37.8532 60.3087 37.5892 60.5967 37.2717 60.8157C36.9485 61.0556 36.5774 61.2232 36.1838 61.3071C35.7839 61.4196 35.3708 61.4786 34.9554 61.4825H34.0078V64.22H32.3232V56.0778Z" fill="white"/>
<path fill-rule="evenodd" clip-rule="evenodd" d="M41.6588 58.991C41.4713 58.9778 41.2832 59.0056 41.1075 59.0722C40.9317 59.1389 40.7726 59.2429 40.641 59.377C40.3906 59.6457 40.2417 59.9931 40.2198 60.3597H42.6414C42.6984 60.0173 42.6231 59.666 42.4309 59.377C42.34 59.2581 42.2233 59.1616 42.0895 59.0947C41.9557 59.0278 41.8084 58.9923 41.6588 58.991ZM44.0453 63.3779C43.7304 63.6099 43.3725 63.777 42.9924 63.8693C42.5403 64.0248 42.0665 64.1077 41.5886 64.1149C41.1723 64.1473 40.754 64.0852 40.3651 63.9332C39.9762 63.7813 39.6266 63.5435 39.3424 63.2376C38.8287 62.5779 38.5673 61.7565 38.6054 60.9212C38.5751 60.4898 38.6309 60.0567 38.7695 59.647C38.9081 59.2373 39.1267 58.8592 39.4126 58.5347C39.7212 58.2568 40.0814 58.0425 40.4729 57.904C40.8643 57.7655 41.2792 57.7055 41.6938 57.7275C42.0088 57.693 42.3265 57.693 42.6414 57.7275C42.9341 57.8171 43.2077 57.9599 43.4486 58.1487C43.7102 58.3362 43.9163 58.5908 44.0453 58.8857C44.1918 59.2661 44.2633 59.6713 44.2558 60.0789C44.2732 60.254 44.2732 60.4303 44.2558 60.6054C44.2711 60.804 44.2711 61.0034 44.2558 61.202H40.1847C40.1805 61.6263 40.3301 62.0377 40.6059 62.3602C40.9764 62.6444 41.4388 62.7819 41.9044 62.7462C42.2178 62.8028 42.5387 62.8028 42.852 62.7462L43.5188 62.4304L44.0453 63.3779Z" fill="white"/>
<path fill-rule="evenodd" clip-rule="evenodd" d="M49.3447 63.5883L48.327 63.9393H47.4145C47.1778 63.9636 46.9386 63.9353 46.7141 63.8564C46.4897 63.7776 46.2854 63.6501 46.1159 63.483C45.8123 63.0817 45.6741 62.5793 45.7299 62.0792V59.0609H44.8174V57.7273H45.7299V56.4639H47.3092V57.7273H48.8885V59.0609H47.3092V61.1667C47.2392 61.5023 47.2392 61.8488 47.3092 62.1845C47.3546 62.2919 47.4344 62.3812 47.536 62.4383C47.6376 62.4955 47.7554 62.5173 47.8707 62.5003H48.2919H48.6077C48.7684 62.9138 49.0203 63.2857 49.3447 63.5883Z" fill="white"/>
<path fill-rule="evenodd" clip-rule="evenodd" d="M52.7139 58.9908C52.5209 58.9748 52.3267 59.0011 52.1449 59.0678C51.9631 59.1344 51.7979 59.2399 51.661 59.3768C51.4345 59.657 51.2997 60.0001 51.2749 60.3595H53.8369C53.8837 60.0126 53.7958 59.6609 53.5913 59.3768C53.4952 59.2374 53.3623 59.1275 53.2073 59.0593C53.0524 58.9911 52.8815 58.9674 52.7139 58.9908ZM55.1004 63.3777C54.7792 63.5989 54.4233 63.7649 54.0475 63.8691C53.5834 64.0248 53.098 64.1077 52.6086 64.1147C52.1928 64.1421 51.776 64.0776 51.3879 63.926C50.9997 63.7744 50.6497 63.5393 50.3625 63.2374C49.8532 62.5635 49.6039 61.7287 49.6605 60.8859C49.622 60.4539 49.6739 60.0186 49.8129 59.6077C49.9518 59.1968 50.1749 58.8194 50.4677 58.4994C50.7699 58.2226 51.124 58.0087 51.5097 57.8701C51.8953 57.7315 52.3046 57.671 52.7139 57.6922C53.0287 57.656 53.3466 57.656 53.6615 57.6922C53.9617 57.7897 54.2456 57.9317 54.5038 58.1134C54.7548 58.303 54.9491 58.558 55.0653 58.8504C55.2406 59.223 55.3248 59.632 55.311 60.0436C55.3283 60.2187 55.3283 60.395 55.311 60.5701C55.3248 60.7687 55.3248 60.9681 55.311 61.1667H51.2047C51.2004 61.3803 51.2384 61.5927 51.3168 61.7915C51.3951 61.9903 51.5121 62.1716 51.661 62.3249C52.0158 62.6132 52.4691 62.7517 52.9244 62.7109C53.2499 62.764 53.5817 62.764 53.9071 62.7109L54.5388 62.3951L55.1004 63.3777Z" fill="white"/>
<path fill-rule="evenodd" clip-rule="evenodd" d="M59.347 57.7627C59.6674 57.7934 59.9845 57.8521 60.2946 57.9382C60.003 58.3246 59.8321 58.7886 59.8033 59.2718C59.5823 59.2381 59.3575 59.2381 59.1365 59.2718C58.8525 59.2608 58.5716 59.334 58.3293 59.4824C58.1274 59.6448 57.9804 59.8653 57.9081 60.1141V63.9395H56.2937V57.9031H57.5571V58.7454C57.6862 58.4505 57.8923 58.1959 58.1538 58.0084C58.3265 57.8905 58.5209 57.808 58.7258 57.7658C58.9306 57.7237 59.1418 57.7226 59.347 57.7627Z" fill="white"/>
<path fill-rule="evenodd" clip-rule="evenodd" d="M60.8912 62.3599H61.2772H61.7335H62.2248H62.7513C62.9477 62.4038 63.1514 62.4038 63.3479 62.3599C63.4225 62.3092 63.4837 62.2412 63.5265 62.1618C63.5693 62.0824 63.5923 61.9938 63.5936 61.9036C63.5966 61.808 63.5669 61.7142 63.5095 61.6376C63.4521 61.5611 63.3704 61.5064 63.2777 61.4825C63.0562 61.3686 62.82 61.286 62.5758 61.2368L61.909 60.9912C61.6795 60.9289 61.4647 60.8215 61.2772 60.6753C61.0779 60.5225 60.9108 60.3317 60.7859 60.1138C60.651 59.8419 60.5905 59.5392 60.6104 59.2364C60.5942 58.9838 60.6329 58.7306 60.7238 58.4944C60.8147 58.2581 60.9556 58.0443 61.1369 57.8676C61.6001 57.5184 62.172 57.3443 62.7513 57.3763C63.518 57.3568 64.2811 57.4879 64.9974 57.7624L64.6464 58.9907L63.9094 58.745C63.5945 58.7105 63.2768 58.7105 62.9618 58.745C62.7653 58.7023 62.5618 58.7023 62.3652 58.745C62.314 58.8807 62.314 59.0305 62.3652 59.1662C62.3694 59.2552 62.3977 59.3415 62.4472 59.4157C62.4966 59.4899 62.5654 59.5492 62.646 59.5873L63.383 59.833L64.0498 60.0436C64.2793 60.1059 64.494 60.2132 64.6815 60.3594C64.8887 60.5036 65.0574 60.6964 65.1729 60.921C65.3441 61.3013 65.3922 61.7257 65.3104 62.1347C65.2286 62.5437 65.021 62.917 64.7166 63.2022C64.1909 63.6197 63.5255 63.8206 62.8565 63.7637C62.4479 63.7996 62.0369 63.7996 61.6282 63.7637C61.2947 63.7015 60.9742 63.5828 60.6806 63.4128L60.8912 62.3599Z" fill="white"/>
<path fill-rule="evenodd" clip-rule="evenodd" d="M67.4189 62.5705H67.8751H68.4367C69.4194 62.5705 69.9107 61.9037 69.9107 60.6052C69.9416 60.1612 69.831 59.7189 69.5948 59.3417C69.4899 59.201 69.3515 59.0888 69.1921 59.0153C69.0327 58.9417 68.8575 58.9092 68.6823 58.9206C68.3927 58.9046 68.1068 58.9916 67.8751 59.1662C67.6498 59.3434 67.4893 59.5902 67.4189 59.8682V62.5705ZM65.8045 55.9023H67.4189V58.4292C67.6139 58.2158 67.8536 58.0481 68.1208 57.9379C68.4185 57.8057 68.7431 57.7456 69.0684 57.7624C69.3982 57.7389 69.729 57.7933 70.0338 57.9214C70.3387 58.0494 70.6091 58.2474 70.8232 58.4994C71.2838 59.1542 71.5067 59.9467 71.4549 60.7455C71.4699 61.2254 71.3863 61.7032 71.2092 62.1494C71.0846 62.5452 70.8682 62.906 70.5775 63.2023C70.2999 63.4904 69.9652 63.7175 69.5948 63.8691C69.1658 64.0157 68.7146 64.0869 68.2612 64.0796C67.7599 64.1383 67.2534 64.1383 66.7521 64.0796C66.3928 64.0388 66.0395 63.9564 65.6992 63.834L65.8045 55.9023Z" fill="white"/>
<path fill-rule="evenodd" clip-rule="evenodd" d="M74.2275 57.9028V61.4124C74.1993 61.7874 74.272 62.163 74.438 62.5004C74.5215 62.6247 74.6379 62.7234 74.7743 62.7854C74.9106 62.8474 75.0616 62.8702 75.2101 62.8513C75.5156 62.8627 75.8149 62.763 76.0524 62.5706C76.2828 62.4061 76.4549 62.1725 76.5438 61.9037V57.9028H78.1582V62.0792C78.1407 62.4066 78.1407 62.7346 78.1582 63.0619C78.1386 63.354 78.1386 63.6472 78.1582 63.9393H77.0351L76.7193 62.9917C76.5284 63.3326 76.2331 63.6032 75.877 63.7638C75.5137 64.0052 75.0845 64.1278 74.6486 64.1148C74.3575 64.1543 74.0624 64.1543 73.7712 64.1148C73.5224 64.0425 73.3019 63.8955 73.1395 63.6936C72.9745 63.4609 72.8554 63.1988 72.7885 62.9215C72.7284 62.526 72.7284 62.1237 72.7885 61.7283V57.9028H74.2275Z" fill="white"/>
<path fill-rule="evenodd" clip-rule="evenodd" d="M85.4932 62.5354C85.7885 62.5493 86.0814 62.476 86.3355 62.3248C86.5384 62.2213 86.7086 62.0633 86.8269 61.8686V59.2715C86.4825 59.1302 86.1102 59.0701 85.7389 59.096C85.5457 59.0776 85.3508 59.1027 85.1686 59.1696C84.9864 59.2364 84.8215 59.3432 84.686 59.4821C84.3998 59.8785 84.263 60.3633 84.3 60.8508C84.264 61.3063 84.3747 61.7613 84.6158 62.1494C84.726 62.2726 84.8614 62.3708 85.0127 62.4374C85.164 62.504 85.3279 62.5374 85.4932 62.5354ZM88.4062 63.6936C88.4361 64.0553 88.3856 64.4191 88.2581 64.7589C88.1307 65.0988 87.9295 65.4061 87.6692 65.6589C87.0533 66.1173 86.2943 66.3413 85.5283 66.2907C85.0626 66.3555 84.5902 66.3555 84.1245 66.2907C83.8334 66.2498 83.5497 66.167 83.2822 66.045C83.3665 65.8036 83.4368 65.5575 83.4928 65.308C83.5125 65.1801 83.5125 65.0499 83.4928 64.9219V64.7465L84.1596 65.0272C84.474 65.0701 84.7927 65.0701 85.1072 65.0272C85.351 65.0691 85.6003 65.0691 85.8442 65.0272C86.0327 64.9859 86.2042 64.8879 86.3355 64.7465C86.4684 64.6367 86.5661 64.4902 86.6163 64.3253C86.6355 64.1386 86.6355 63.9505 86.6163 63.7638V63.3075C86.4732 63.5433 86.2483 63.7182 85.9845 63.7989C85.6586 63.845 85.3278 63.845 85.0019 63.7989C84.6651 63.8196 84.3279 63.7677 84.013 63.6466C83.6981 63.5255 83.4129 63.338 83.1769 63.097C82.7228 62.467 82.511 61.6945 82.5803 60.921C82.5236 60.4913 82.566 60.0543 82.7042 59.6435C82.8424 59.2326 83.0727 58.8588 83.3775 58.5506C83.6823 58.2425 84.0535 58.008 84.4628 57.8653C84.8721 57.7226 85.3085 57.6754 85.7389 57.7273C86.2294 57.6873 86.7224 57.6873 87.2129 57.7273L88.3009 57.973L88.4062 63.6936Z" fill="white"/>
<path fill-rule="evenodd" clip-rule="evenodd" d="M82.0539 57.7628C82.4254 57.7749 82.7926 57.846 83.1419 57.9733C82.7962 58.3263 82.5745 58.782 82.5101 59.2719C82.2894 59.2352 82.0641 59.2352 81.8433 59.2719C81.5593 59.2608 81.2785 59.3341 81.0361 59.4824C80.8343 59.6449 80.6873 59.8654 80.615 60.1142V63.9396H79.0356V57.9031H80.264L80.4395 58.7454C80.5811 58.4482 80.7991 58.1939 81.0712 58.0084C81.3568 57.8071 81.7072 57.7195 82.0539 57.7628Z" fill="white"/>
<path fill-rule="evenodd" clip-rule="evenodd" d="M21.3383 77.4514C21.3356 78.3596 21.4297 79.2655 21.6191 80.1538C21.7634 80.9029 22.0493 81.6175 22.4614 82.2595C22.8122 82.8345 23.3085 83.3067 23.9003 83.6283C24.5512 83.9624 25.2744 84.1312 26.006 84.1196C26.6711 84.1555 27.3354 84.0344 27.945 83.7661C28.5547 83.4979 29.0927 83.09 29.5156 82.5754C30.4648 81.0437 30.8955 79.247 30.744 77.4514C30.7559 76.5678 30.6736 75.6854 30.4983 74.8192C30.3533 74.0594 30.0676 73.3334 29.656 72.6784C29.2867 72.1093 28.7951 71.6297 28.2171 71.2746C27.5426 70.936 26.7956 70.7673 26.0411 70.7832C25.372 70.7428 24.703 70.8654 24.0917 71.1404C23.4804 71.4155 22.945 71.8349 22.5316 72.3625C21.6132 73.893 21.196 75.6722 21.3383 77.4514ZM16.9162 77.4514C16.8932 75.9649 17.1064 74.4841 17.548 73.0645C17.8857 71.8534 18.4982 70.7365 19.3379 69.8006C20.123 68.9199 21.094 68.2246 22.1806 67.765C23.3988 67.2873 24.6976 67.049 26.006 67.0631C27.3833 67.0664 28.7452 67.3531 30.007 67.9054C31.1047 68.3778 32.0779 69.0987 32.8497 70.0111C33.6207 70.9958 34.2037 72.1141 34.5694 73.3101C34.9639 74.6784 35.1532 76.0977 35.1309 77.5216C35.1577 79.0199 34.9444 80.5128 34.4992 81.9437C34.1356 83.1515 33.5128 84.2653 32.6742 85.2076C31.883 86.097 30.8986 86.7934 29.7964 87.2431C28.5904 87.7206 27.303 87.959 26.006 87.945C24.645 87.9641 23.2947 87.7012 22.0402 87.1729C20.9284 86.7252 19.9497 86.0003 19.1975 85.0672C18.4063 84.0956 17.8212 82.9732 17.4778 81.7682C17.0728 80.3661 16.8834 78.9105 16.9162 77.4514Z" fill="white"/>
<path fill-rule="evenodd" clip-rule="evenodd" d="M44.2207 70.8886H43.0626H42.1852V76.8198H42.5361H43.9751C44.5243 76.8547 45.0753 76.8547 45.6246 76.8198C46.1318 76.7521 46.6208 76.5851 47.0635 76.3284C47.4954 76.0844 47.8578 75.7341 48.1164 75.3107C48.3892 74.7796 48.5221 74.1877 48.5024 73.591C48.5178 73.0728 48.3838 72.5611 48.1164 72.117C47.8708 71.7659 47.5462 71.4774 47.1688 71.2747C46.7234 71.0603 46.2512 70.9068 45.7649 70.8184C45.2492 70.8058 44.7332 70.8292 44.2207 70.8886ZM38.0088 67.6598L40.8164 67.3088C41.8693 67.3088 42.8871 67.3088 43.94 67.3088C44.9978 67.3034 46.0543 67.3856 47.0986 67.5545C48.1221 67.6772 49.1117 67.9991 50.0115 68.5021C50.8644 68.9925 51.5773 69.6933 52.0822 70.5377C52.7081 71.5967 53.0015 72.8194 52.9245 74.0472C52.9452 75.1522 52.7047 76.2465 52.2226 77.2409C51.776 78.0992 51.1252 78.8345 50.3274 79.3818C49.5287 79.9644 48.622 80.3819 47.6601 80.6101C46.662 80.8634 45.6365 80.9931 44.6068 80.9962H42.1852V87.6995H38.0088V67.6598Z" fill="white"/>
<path fill-rule="evenodd" clip-rule="evenodd" d="M55.4163 67.4844H68.1209V71.1694H59.5927V75.5213H67.3137V79.2063H59.5927V83.7337H68.2613V87.4187H55.4163V67.4844Z" fill="white"/>
<path fill-rule="evenodd" clip-rule="evenodd" d="M76.93 77.0297L75.2103 74.0465H75.105L75.5613 77.0648V87.418H71.5955V67.3433H74.6137L82.7559 77.9773L84.3703 80.8902H84.5458L84.0895 77.9422V67.4836H88.0203V87.5584H85.002L76.93 77.0297Z" fill="white"/>
</svg>
