<svg width="183" height="48" viewBox="0 0 183 48" fill="none" xmlns="http://www.w3.org/2000/svg">
<path fill-rule="evenodd" clip-rule="evenodd" d="M133.973 29.8533V19.4365H128.364V29.4163H122.208V19.4365H116.672V29.9626C116.672 33.2042 116.672 35.2439 121.516 35.2439H129.165C133.864 35.2439 134.009 33.1678 134.009 29.8533H133.973Z" fill="#00579F"/>
<path fill-rule="evenodd" clip-rule="evenodd" d="M98.0239 35.244H103.56V26.539H110.153V35.2075H115.507V28.2873C115.507 25.9562 114.45 24.9 113.285 24.645C113.936 24.4932 114.514 24.1193 114.92 23.5875C115.325 23.0558 115.533 22.3994 115.507 21.7312V19.5459H110.153V22.5325H103.56V19.5459H98.0239V24.7907V35.244Z" fill="#00579F"/>
<path fill-rule="evenodd" clip-rule="evenodd" d="M63.6045 35.2074H78.7198V29.6348H69.3957V26.7574H78.0278V22.3139H69.3957V19.4365H63.6045V35.2074Z" fill="#00579F"/>
<path fill-rule="evenodd" clip-rule="evenodd" d="M45.3933 35.2074H50.9659V26.976H59.161C62.8032 26.976 62.5847 24.5721 62.5847 22.496V19.4365H57.3399V22.3139H50.8931V19.4365H45.3933V35.2074Z" fill="#00579F"/>
<path fill-rule="evenodd" clip-rule="evenodd" d="M80.2861 18.7083H96.9312V13.3906H80.2861V18.7083Z" fill="#00579F"/>
<path fill-rule="evenodd" clip-rule="evenodd" d="M85.604 35.2074H91.3588V19.4365H85.604V35.2074Z" fill="#00579F"/>
<path fill-rule="evenodd" clip-rule="evenodd" d="M158.412 35.2074H164.167V19.4365H158.412V35.2074Z" fill="#00579F"/>
<path fill-rule="evenodd" clip-rule="evenodd" d="M63.6411 18.7083H78.72V13.3906H63.6411V18.7083Z" fill="#00579F"/>
<path fill-rule="evenodd" clip-rule="evenodd" d="M164.167 18.7083V13.3906H158.376V18.7083H164.167Z" fill="#00579F"/>
<path fill-rule="evenodd" clip-rule="evenodd" d="M45.3933 13.354H58.5054C61.4556 13.354 62.5119 15.0659 62.5119 16.5592V18.7081H45.3933V13.354Z" fill="#00579F"/>
<path fill-rule="evenodd" clip-rule="evenodd" d="M98.0239 13.3906H111.318C114.305 13.3906 115.361 15.1025 115.361 16.5594V18.7447H98.0239V13.3906Z" fill="#00579F"/>
<path fill-rule="evenodd" clip-rule="evenodd" d="M124.94 13.354H129.129C133.645 13.354 133.973 15.4301 133.973 18.7081H124.94V13.354Z" fill="#00579F"/>
<path fill-rule="evenodd" clip-rule="evenodd" d="M125.778 13.354H121.553C117.073 13.354 116.708 15.4301 116.708 18.7081H125.778V13.354Z" fill="#00579F"/>
<path fill-rule="evenodd" clip-rule="evenodd" d="M165.551 35.1707H171.087V26.5022H177.534V35.1707H182.998V28.2505C182.998 25.883 181.941 24.8268 180.776 24.6082C181.43 24.4489 182.009 24.0679 182.414 23.5301C182.819 22.9922 183.025 22.3307 182.998 21.658V19.4727H177.498V22.4957H171.051V19.4727H165.551V24.8632V35.28V35.1707Z" fill="#00579F"/>
<path fill-rule="evenodd" clip-rule="evenodd" d="M165.551 13.3179H178.845C181.832 13.3179 182.888 15.0297 182.888 16.5231V18.672H165.551V13.3179Z" fill="#00579F"/>
<path fill-rule="evenodd" clip-rule="evenodd" d="M154.843 13.354H147.923L147.267 18.6717L155.353 18.7081L154.843 13.354Z" fill="#00579F"/>
<path fill-rule="evenodd" clip-rule="evenodd" d="M136.267 19.3999H144.827L145.919 23.6249L147.085 19.5092H155.535L157.32 35.2072H151.747L150.29 24.4626L148.287 35.2072H143.588L141.075 24.2441L139.946 35.2072H134.483L136.267 19.3999Z" fill="#00579F"/>
<path fill-rule="evenodd" clip-rule="evenodd" d="M136.923 13.3906H143.734L144.718 18.7447H136.268L136.923 13.3906Z" fill="#00579F"/>
<path fill-rule="evenodd" clip-rule="evenodd" d="M21.3546 1.08008L30.351 16.596H12.4675L21.3546 1.08008Z" fill="#00579F"/>
<path d="M30.679 16.8143H12.1035L12.2856 16.4865L21.3548 0.679199L30.679 16.8143ZM12.832 16.4137H30.0234L21.3912 1.48049L12.832 16.4137Z" fill="#00579F"/>
<path fill-rule="evenodd" clip-rule="evenodd" d="M17.8581 3.22852L10.2822 15.8671L2.45142 11.2415L17.8581 3.22852Z" fill="#00579F"/>
<path d="M10.3551 16.1586L2.05078 11.2416L2.37858 11.0595L18.4045 2.71875L10.3551 16.1586ZM2.8885 11.278L10.173 15.5759L17.4575 3.73858L2.8885 11.278Z" fill="#00579F"/>
<path fill-rule="evenodd" clip-rule="evenodd" d="M33.0098 16.0491L40.7314 11.2049L25.1426 3.30127L33.0098 16.0491Z" fill="#00579F"/>
<path d="M32.937 16.4134V16.2313L24.7056 2.86426L41.2414 11.2778L32.937 16.4134ZM25.6525 3.88409L32.937 15.8307L40.2215 11.3143L25.6525 3.88409Z" fill="#00579F"/>
<path fill-rule="evenodd" clip-rule="evenodd" d="M21.5369 34.1509L30.169 18.9263L12.7227 19.1084L21.5369 34.1509Z" fill="#00579F"/>
<path d="M21.5369 34.6245L12.3584 18.9629H30.5696L21.5369 34.6245ZM13.0869 19.3635L21.5369 33.9325L29.8048 19.3635H13.0869Z" fill="#00579F"/>
<path fill-rule="evenodd" clip-rule="evenodd" d="M41.6056 31.201V13.5361L33.7019 18.0161L41.6056 31.201Z" fill="#00579F"/>
<path d="M41.7876 31.9291L33.4104 17.9429L41.7876 13.208V31.9291ZM33.9932 18.0886L41.2776 30.4722V13.9L33.9932 18.0886Z" fill="#00579F"/>
<path fill-rule="evenodd" clip-rule="evenodd" d="M41.0958 34.8068L32.1722 19.9829L23.4673 34.8433L41.0958 34.8068Z" fill="#00579F"/>
<path d="M23.103 35.0621L32.1722 19.5825L41.4235 35.0256L23.103 35.0621ZM32.2086 20.4931L23.8315 34.625H40.7315L32.2086 20.4931Z" fill="#00579F"/>
<path fill-rule="evenodd" clip-rule="evenodd" d="M19.4973 34.8068L10.6102 19.9829L1.90527 34.8433L19.4973 34.8068Z" fill="#00579F"/>
<path d="M1.54102 35.0621L10.6102 19.5825L19.8615 35.0256L1.54102 35.0621ZM10.6102 20.4931L2.26946 34.625H19.0966L10.6102 20.4931Z" fill="#00579F"/>
<path fill-rule="evenodd" clip-rule="evenodd" d="M1.24951 31.31L1.46804 13.5723L9.26245 18.1979L1.24951 31.31Z" fill="#00579F"/>
<path d="M0.885254 32.0386L1.14021 13.2446L9.40811 18.1252L0.885254 32.0386ZM1.54086 13.8274L1.32233 30.4725L8.86177 18.1617L1.54086 13.8274Z" fill="#00579F"/>
<path fill-rule="evenodd" clip-rule="evenodd" d="M20.0801 46.6806L20.1893 37.5386L4.85547 37.575L20.0801 46.6806Z" fill="#00579F"/>
<path d="M20.2619 47.0448L4.09033 37.3564H20.3712L20.2619 47.0448ZM5.69292 37.7571L20.0069 46.3164V37.7207L5.69292 37.7571Z" fill="#00579F"/>
<path fill-rule="evenodd" clip-rule="evenodd" d="M22.8117 46.644L22.7024 37.502L38.0362 37.5384L22.8117 46.644Z" fill="#00579F"/>
<path d="M22.7388 47.008V37.2832H39.0196L22.7388 47.008ZM22.7388 37.7203V46.2796L37.3077 37.7567L22.7388 37.7203Z" fill="#00579F"/>
</svg>