<svg width="124" height="94" viewBox="0 0 124 94" fill="none" xmlns="http://www.w3.org/2000/svg">
<path d="M124 0H0V93.6889H124V0Z" fill="#D71920"/>
<path fill-rule="evenodd" clip-rule="evenodd" d="M67.96 17.3345C67.1247 18.4032 66.6833 19.7272 66.7104 21.0834V32.2978C66.6371 33.1366 66.3259 33.9369 65.8133 34.6048C65.5249 34.8932 63.7947 36.4632 63.6665 36.6234H64.6278C64.9482 36.335 68.2805 33.4193 68.6329 33.0027C69.6086 31.9459 70.1568 30.5641 70.1709 29.1257V18.1676C70.154 17.0777 70.5553 16.0228 71.2923 15.2198C71.7089 14.8033 73.0226 13.6818 73.2469 13.4575H72.2215C71.9652 13.6818 68.2805 17.0141 67.96 17.3666" fill="white"/>
<path fill-rule="evenodd" clip-rule="evenodd" d="M59.7251 58.1223L63.7943 61.6789H66.5179C69.132 61.691 71.6441 60.6654 73.5029 58.8272C74.2613 58.0233 74.8529 57.077 75.2433 56.0431C75.6338 55.0091 75.8155 53.908 75.7778 52.8034V46.9719C75.7728 46.3174 75.6304 45.6712 75.36 45.0751C75.0895 44.479 74.697 43.9463 74.2078 43.5114L72.83 42.1978V46.7156L74.4 48.3176C75.6176 49.5993 75.6176 51.9383 71.7726 55.6872C70.4072 57.1369 68.5382 58.0084 66.5499 58.1223H59.7251Z" fill="white"/>
<path fill-rule="evenodd" clip-rule="evenodd" d="M71.0358 34.1879C70.469 34.9704 70.166 35.9131 70.1707 36.8793V39.0902H72.4136C72.8509 39.0517 73.2757 38.9238 73.6615 38.7143C74.0473 38.5049 74.386 38.2184 74.6565 37.8726V35.6938C74.9926 36.173 75.4037 36.595 75.8741 36.9434C76.0983 36.655 78.1169 34.1879 79.8472 34.1879C82.6989 34.1879 82.058 37.7444 80.8725 38.8979L78.3092 41.301C76.9635 42.5827 74.6565 41.9739 74.6565 38.6736C74.6565 38.6736 72.1893 41.0127 71.8048 41.3331C71.4203 41.6535 70.1707 42.9992 70.1707 42.9992V48.7987C70.2373 49.6484 70.1104 50.5021 69.7996 51.2957C69.4889 52.0893 69.0023 52.8021 68.3764 53.3806C68.088 53.701 64.9479 56.5848 64.5314 56.8731H63.5061L65.7169 54.8225C66.36 54.0414 66.6809 53.0444 66.6141 52.0349C66.6141 51.6504 66.6141 42.8711 66.6141 42.8711H52.3557C47.3893 42.8711 46.3319 37.3599 46.2999 35.886V30.407C46.2962 29.8367 46.1579 29.2754 45.8962 28.7687C45.6345 28.262 45.2569 27.8243 44.7939 27.4912H46.2038C46.364 27.4912 47.2291 27.9077 47.2291 31.2721C47.2291 31.2721 47.2291 35.2132 47.2291 35.4375C47.2144 36.3388 47.5335 37.2137 48.125 37.8939C48.7165 38.5742 49.5386 39.0116 50.4332 39.1222H66.4539C66.626 38.053 67.0547 37.0415 67.7035 36.1744C68.12 35.6938 71.6126 32.4897 71.997 32.2013H73.0224C72.8622 32.2013 71.196 33.8354 70.8115 34.2199L71.0358 34.1879ZM76.1304 37.424C76.5453 37.9946 77.0061 38.5304 77.5082 39.0261C79.2704 40.4039 80.1035 39.0261 78.918 37.2959C78.4694 36.6871 76.6751 36.8473 76.1304 37.2959" fill="white"/>
<path fill-rule="evenodd" clip-rule="evenodd" d="M59.02 47.9337C59.02 48.7347 56.5208 50.7854 56.3606 50.9456C56.3606 50.0804 55.5596 49.1512 53.7012 47.2929L56.4247 44.5693C58.251 46.3957 59.02 46.8122 59.02 47.9337Z" fill="white"/>
<path fill-rule="evenodd" clip-rule="evenodd" d="M63.7622 16.6292C64.3069 17.1739 65.4604 18.6799 64.7555 19.3848L63.1855 20.9869C63.1855 20.6344 62.2242 19.7693 62.2242 19.7693V22.7491C62.2242 23.9347 61.7436 24.2551 61.7436 24.2551C63.0275 25.6182 63.7977 27.3851 63.9224 29.2535C63.9224 30.6313 63.9224 31.8809 63.9224 32.1373C63.9369 32.6803 63.7419 33.208 63.3777 33.6112L60.8144 36.1424C60.3656 36.5679 59.7665 36.7983 59.1483 36.7832H51.5865C50.401 36.7832 49.1514 35.822 49.1514 34.8928C49.1514 34.6685 49.1514 32.0732 49.1514 32.0732C49.3266 32.3766 49.5789 32.6283 49.8828 32.8028C50.1866 32.9772 50.5312 33.0682 50.8816 33.0665C51.5338 32.985 52.1414 32.6924 52.6118 32.2334C52.8361 32.0411 58.3472 26.2416 58.3472 26.2416C56.9946 24.987 55.5718 23.8103 54.0857 22.7171C53.8915 22.6129 53.6764 22.5536 53.4562 22.5436C53.236 22.5336 53.0164 22.573 52.8135 22.6591C52.6106 22.7452 52.4296 22.8757 52.2838 23.041C52.138 23.2063 52.0311 23.4022 51.971 23.6143C51.6899 25.5157 51.6899 27.4482 51.971 29.3497L49.8883 27.267C49.4589 26.7196 49.2418 26.0354 49.2771 25.3406C49.3125 24.6457 49.5978 23.9871 50.0806 23.4861C50.9987 22.4128 52.2958 21.7356 53.7012 21.5956H56.9054C58.4872 21.8241 59.9623 22.5281 61.1348 23.6143C61.3272 23.4249 61.4512 23.1769 61.4873 22.9093C61.4873 21.884 61.4873 19.0644 61.4873 19.0644C59.9813 17.5264 59.7571 15.8602 60.494 15.2194L62.3524 13.3931C62.4662 14.6241 63.0379 15.7676 63.9545 16.5972L63.7622 16.6292ZM54.3421 31.8489C53.9039 32.397 53.3724 32.8634 52.772 33.2267H61.3271C63.6341 33.2267 63.1855 31.8168 62.7689 31.0799C61.6565 29.5732 60.4242 28.1588 59.0842 26.8504L54.2139 31.8809" fill="white"/>
<path fill-rule="evenodd" clip-rule="evenodd" d="M44.5055 39.6353H43.0957C43.5821 39.9602 43.9763 40.4053 44.2401 40.9274C44.5039 41.4494 44.6285 42.0308 44.6017 42.6151V49.4399C44.599 51.63 45.4396 53.737 46.9489 55.324C48.4583 56.9109 50.5206 57.8559 52.7081 57.9629H56.4249C57.227 58.0316 58.0344 57.9205 58.7882 57.6379C59.542 57.3552 60.2233 56.908 60.7825 56.3288C61.2631 55.8802 61.904 55.1753 62.1283 54.919C62.6806 54.442 63.1154 53.8441 63.3988 53.1716C63.6822 52.4992 63.8067 51.7704 63.7624 51.042V48.8311C63.7452 48.2058 63.5864 47.5925 63.2977 47.0374C63.0091 46.4824 62.5983 46.0002 62.0962 45.627L60.7825 44.3774V48.9593C60.7825 48.9593 61.7438 49.9526 62.1283 50.273C62.5017 50.5712 62.7748 50.9766 62.9109 51.4347C63.047 51.8928 63.0395 52.3816 62.8894 52.8353C62.7394 53.289 62.4539 53.6859 62.0715 53.9725C61.6891 54.2591 61.2281 54.4216 60.7505 54.4383H52.612C50.7413 54.3972 48.9592 53.6336 47.6391 52.3076C46.3191 50.9815 45.5635 49.196 45.5308 47.3252V43.5123C45.5308 39.6993 44.5055 39.6993 44.5055 39.6993" fill="white"/>
<path fill-rule="evenodd" clip-rule="evenodd" d="M53.4128 47.9659C53.4128 48.7349 50.9456 50.8176 50.7854 50.9457C50.5932 50.1127 49.9844 49.1835 48.126 47.3251L50.8495 44.6016C52.6758 46.4279 53.4128 46.8124 53.4128 47.9659Z" fill="white"/>
<path fill-rule="evenodd" clip-rule="evenodd" d="M24.8643 78.2769H20.5067C19.129 78.2769 19.2251 77.1554 19.129 76.1621V69.882H21.1476C22.5788 69.7174 24.0281 69.9386 25.345 70.5229C24.9631 69.7418 24.3639 69.0875 23.6194 68.6385C22.8749 68.1895 22.0166 67.9649 21.1476 67.9916H19.129V65.941C19.1536 65.1688 19.0001 64.4013 18.6804 63.6981H21.5641C23.7859 63.4339 26.0337 63.8947 27.9724 65.0118C27.9724 65.0118 27.5879 61.8076 22.7817 61.8076H13.3936C13.9217 62.3542 14.3333 63.0025 14.6032 63.713C14.8731 64.4236 14.9957 65.1816 14.9636 65.941V77.3477C14.9636 80.2314 16.085 80.2955 16.085 80.2955H25.377C25.7164 80.3354 26.0604 80.3071 26.3887 80.2121C26.717 80.1172 27.023 79.9575 27.2887 79.7426C27.5544 79.5276 27.7745 79.2617 27.9359 78.9605C28.0973 78.6592 28.1969 78.3288 28.2287 77.9885V76.8991C28.2287 76.8991 27.5558 78.2769 24.7682 78.2769" fill="white"/>
<path fill-rule="evenodd" clip-rule="evenodd" d="M49.5999 77.2839V69.3056C49.6047 68.7461 49.4894 68.1921 49.2617 67.6811C49.034 67.17 48.6993 66.7137 48.2801 66.3432C47.8609 65.9726 47.3671 65.6963 46.832 65.533C46.2968 65.3697 45.7328 65.3232 45.1782 65.3966C44.3656 65.4214 43.5823 65.7053 42.9425 66.2067C42.3026 66.7082 41.8398 67.4011 41.6216 68.1842C41.3238 67.341 40.7665 66.6138 40.0296 66.1072C39.2927 65.6006 38.4142 65.3406 37.5203 65.3645C36.6634 65.3732 35.8322 65.6586 35.1508 66.1783C34.4695 66.698 33.9744 67.4241 33.7394 68.2483C33.7394 68.2483 33.7394 65.4607 31.2402 65.4607H28.8691C28.8691 65.4607 30.2469 66.0374 30.2469 68.4405V77.316C30.2469 80.2317 31.4325 80.2958 31.4325 80.2958H35.3415C34.8748 79.9443 34.496 79.4893 34.2347 78.9668C33.9734 78.4442 33.8368 77.8682 33.8356 77.2839V69.4017C33.992 68.8841 34.3327 68.4417 34.7932 68.1583C35.2537 67.8749 35.8022 67.7701 36.3348 67.8638C36.8647 67.9114 37.3581 68.1541 37.7192 68.5448C38.0803 68.9355 38.2835 69.4465 38.2893 69.9785V77.2839C38.2893 80.2638 39.4748 80.2638 39.4748 80.2638H43.3839C42.9267 79.9106 42.5543 79.4598 42.2937 78.9443C42.0331 78.4287 41.8911 77.8614 41.8779 77.2839V69.4017C42.0238 68.9517 42.3121 68.5613 42.6994 68.2897C43.0867 68.018 43.5519 67.8797 44.0247 67.8958C44.5886 67.8957 45.1298 68.1175 45.5315 68.5132C45.9332 68.9089 46.1631 69.4467 46.1715 70.0105V77.316C46.1715 80.2958 47.325 80.2638 47.325 80.2638H51.266C50.8037 79.9155 50.4274 79.4657 50.1663 78.9491C49.9052 78.4324 49.7663 77.8627 49.7601 77.2839" fill="white"/>
<path fill-rule="evenodd" clip-rule="evenodd" d="M56.4571 77.2837C56.4584 77.8634 56.5952 78.4348 56.8567 78.9522C57.1182 79.4696 57.4971 79.9187 57.9631 80.2635H54.054C54.054 80.2635 52.8685 80.2635 52.8685 77.3157V68.4083C52.8685 66.0692 51.4907 65.4604 51.4907 65.4604H53.8618C54.7269 65.4604 56.4571 65.4604 56.4571 68.6646V77.1555V77.2837Z" fill="white"/>
<path fill-rule="evenodd" clip-rule="evenodd" d="M68.3762 66.5819C68.3762 66.5819 68.0238 65.5245 66.3897 65.5245C63.9225 65.5245 63.1855 68.4403 63.1855 68.4403C62.9933 66.1333 62.3845 65.4604 60.6543 65.4604H58.2832C58.2832 65.4604 59.661 66.0052 59.661 68.4083V77.2837C59.661 80.2315 60.8465 80.2635 60.8465 80.2635H64.7556C64.2954 79.9153 63.9227 79.4648 63.6669 78.9476C63.4111 78.4304 63.2792 77.8607 63.2817 77.2837V70.0103C63.3201 69.7037 63.4263 69.4095 63.5926 69.149C63.7589 68.8886 63.981 68.6684 64.2429 68.5044C64.8944 68.0983 65.67 67.9397 66.4286 68.0573C67.1871 68.1749 67.8783 68.561 68.3762 69.1452V66.5819Z" fill="white"/>
<path fill-rule="evenodd" clip-rule="evenodd" d="M86.7682 67.1265C87.5723 67.1316 88.3633 67.3294 89.0752 67.7032V65.4603H85.8711V62.064C85.1638 63.1847 84.276 64.1808 83.2437 65.0118C82.1551 65.7993 80.9968 66.4858 79.7832 67.0624H82.2824V77.3797C82.2824 80.2314 83.468 80.2314 83.468 80.2314H87.377C86.9202 79.8998 86.5465 79.4668 86.2853 78.9665C86.024 78.4661 85.8822 77.912 85.8711 77.3477V67.0945H86.8323" fill="white"/>
<path fill-rule="evenodd" clip-rule="evenodd" d="M98.6552 71.5803C96.4764 73.8873 94.7462 73.5348 93.3684 75.2009C93.4157 75.852 93.6177 76.4824 93.9576 77.0397C94.2976 77.597 94.7657 78.0651 95.3229 78.4051C96.1389 78.8035 97.0796 78.8619 97.9386 78.5676C98.7976 78.2733 99.5047 77.6502 99.9048 76.8351V79.2382C98.7132 80.1625 97.204 80.5772 95.7074 80.3916C94.8031 80.3971 93.9079 80.2112 93.0806 79.846C92.2533 79.4808 91.5127 78.9446 90.9074 78.2728C90.3021 77.6009 89.8459 76.8085 89.5687 75.9478C89.2915 75.087 89.1997 74.1773 89.2992 73.2785C89.2992 69.2413 91.4459 65.5245 95.4831 65.4924C99.5203 65.4604 101.603 68.6966 98.6873 71.6764L98.6552 71.5803ZM96.2842 70.7472C96.957 69.5617 97.4697 66.5177 95.2268 66.6779C92.9839 66.8382 93.1441 73.695 93.1441 73.695C94.0092 72.7658 95.2909 72.5736 96.3483 70.7472" fill="white"/>
<path fill-rule="evenodd" clip-rule="evenodd" d="M54.6307 64.2747C55.1066 64.2747 55.563 64.0856 55.8995 63.7491C56.236 63.4126 56.4251 62.9562 56.4251 62.4803C56.4251 62.0045 56.236 61.5481 55.8995 61.2116C55.563 60.8751 55.1066 60.686 54.6307 60.686C54.1549 60.686 53.6985 60.8751 53.362 61.2116C53.0255 61.5481 52.8364 62.0045 52.8364 62.4803C52.8364 62.9562 53.0255 63.4126 53.362 63.7491C53.6985 64.0856 54.1549 64.2747 54.6307 64.2747Z" fill="white"/>
<path fill-rule="evenodd" clip-rule="evenodd" d="M72.6057 78.7575C72.1552 78.7012 71.7438 78.4732 71.4573 78.121C71.1708 77.7688 71.0312 77.3196 71.0677 76.8671C71.0677 73.1823 74.0796 72.6697 74.9127 71.6764V78.0847C74.6217 78.3964 74.2607 78.6344 73.8596 78.7793C73.4585 78.9241 73.0288 78.9716 72.6057 78.9177V78.7575ZM74.7845 70.1064C73.8553 71.6764 66.7742 72.0289 67.8636 77.5079C67.9144 77.9364 68.0511 78.3502 68.2657 78.7246C68.4803 79.0989 68.7683 79.4261 69.1124 79.6864C69.4565 79.9467 69.8496 80.1348 70.2682 80.2395C70.6868 80.3442 71.1222 80.3632 71.5484 80.2955C72.1914 80.3159 72.828 80.1631 73.3917 79.8531C73.9554 79.5431 74.4254 79.0872 74.7525 78.5333C75.0088 80.1674 75.8419 80.2635 75.8419 80.2635H79.7509C79.2815 79.927 78.8977 79.485 78.6306 78.9729C78.3634 78.4609 78.2204 77.8932 78.213 77.3157V69.1451C78.213 67.1586 76.0021 65.6206 73.6631 65.6206C72.3632 65.6048 71.0893 65.9848 70.0104 66.71V69.1451C70.2322 68.5676 70.6165 68.0666 71.1169 67.7027C71.6172 67.3388 72.2122 67.1276 72.83 67.0945C74.8486 67.0945 74.9768 68.0878 74.9768 68.6004C75.0744 69.1311 74.9717 69.6792 74.6884 70.1384" fill="white"/>
<path fill-rule="evenodd" clip-rule="evenodd" d="M107.339 76.2584C107.311 76.6099 107.212 76.9522 107.05 77.2648C106.887 77.5775 106.662 77.8542 106.39 78.0785C106.118 78.3027 105.804 78.4699 105.466 78.57C105.128 78.6702 104.773 78.7013 104.423 78.6615C103.796 78.6319 103.191 78.4187 102.684 78.0485C102.177 77.6782 101.79 77.1672 101.571 76.5788V79.2383C102.683 79.9398 103.973 80.3068 105.288 80.2956C106.616 80.3492 107.914 79.8845 108.906 78.9998C109.898 78.115 110.508 76.8794 110.607 75.5535C110.598 74.6139 110.283 73.7029 109.71 72.9582C108.598 71.8059 107.298 70.8522 105.865 70.1385C105.583 69.9721 105.338 69.7498 105.145 69.4853C104.952 69.2208 104.816 68.9198 104.743 68.6005C104.743 68.0879 104.967 67.0946 106.954 67.0946C107.561 67.1396 108.142 67.3564 108.63 67.7195C109.118 68.0826 109.492 68.5771 109.71 69.1453V66.6781C108.615 65.8998 107.304 65.4851 105.961 65.4925C104.911 65.3923 103.863 65.7038 103.038 66.3613C102.213 67.0189 101.675 67.971 101.539 69.0171C101.546 69.7748 101.74 70.519 102.104 71.184C102.467 71.849 102.988 72.4143 103.622 72.83C104.264 73.3035 104.939 73.7318 105.64 74.1117C106.069 74.2974 106.441 74.5943 106.717 74.9717C106.993 75.3491 107.163 75.7933 107.21 76.2584" fill="white"/>
</svg>
