<svg width="173" height="44" viewBox="0 0 173 44" fill="none" xmlns="http://www.w3.org/2000/svg">
<path fill-rule="evenodd" clip-rule="evenodd" d="M126.427 27.6854V17.8002H121.098V27.2706H115.251V17.8002H109.992V27.7891C109.992 30.8652 109.992 32.8008 114.594 32.8008H121.86C126.323 32.8008 126.461 30.8307 126.461 27.6854H126.427Z" fill="#00579F"/>
<path fill-rule="evenodd" clip-rule="evenodd" d="M92.277 32.8004H97.5361V24.5397H103.799V32.7658H108.885V26.1987C108.885 23.9866 107.881 22.9843 106.774 22.7423C107.393 22.5982 107.942 22.2434 108.327 21.7388C108.712 21.2342 108.909 20.6113 108.885 19.9773V17.9034H103.799V20.7377H97.5361V17.9034H92.277V32.8004Z" fill="#00579F"/>
<path fill-rule="evenodd" clip-rule="evenodd" d="M59.5804 32.7662H73.9392V27.478H65.0817V24.7475H73.2818V20.5307H65.0817V17.8002H59.5804V32.7662Z" fill="#00579F"/>
<path fill-rule="evenodd" clip-rule="evenodd" d="M42.2806 32.7662H47.5744V24.9549H55.3593C58.8192 24.9549 58.6116 22.6737 58.6116 20.7035V17.8002H53.6293V20.5307H47.5052V17.8002H42.2806V32.7662Z" fill="#00579F"/>
<path fill-rule="evenodd" clip-rule="evenodd" d="M75.427 17.109H91.239V12.0627H75.427V17.109Z" fill="#00579F"/>
<path fill-rule="evenodd" clip-rule="evenodd" d="M80.4785 32.7662H85.9452V17.8002H80.4785V32.7662Z" fill="#00579F"/>
<path fill-rule="evenodd" clip-rule="evenodd" d="M149.643 32.7662H155.11V17.8002H149.643V32.7662Z" fill="#00579F"/>
<path fill-rule="evenodd" clip-rule="evenodd" d="M59.615 17.109H73.9392V12.0627H59.615V17.109Z" fill="#00579F"/>
<path fill-rule="evenodd" clip-rule="evenodd" d="M155.11 17.109V12.0627H149.608V17.109H155.11Z" fill="#00579F"/>
<path fill-rule="evenodd" clip-rule="evenodd" d="M42.2806 12.0281H54.7365C57.539 12.0281 58.5424 13.6526 58.5424 15.0697V17.109H42.2806V12.0281Z" fill="#00579F"/>
<path fill-rule="evenodd" clip-rule="evenodd" d="M92.277 12.0627H104.906C107.743 12.0627 108.746 13.6872 108.746 15.0698V17.1436H92.277V12.0627Z" fill="#00579F"/>
<path fill-rule="evenodd" clip-rule="evenodd" d="M117.846 12.0281H121.825C126.115 12.0281 126.427 13.9983 126.427 17.109H117.846V12.0281Z" fill="#00579F"/>
<path fill-rule="evenodd" clip-rule="evenodd" d="M118.642 12.0281H114.628C110.373 12.0281 110.027 13.9983 110.027 17.109H118.642V12.0281Z" fill="#00579F"/>
<path fill-rule="evenodd" clip-rule="evenodd" d="M156.424 32.7317H161.684V24.5056H167.808V32.7317H172.998V26.1646C172.998 23.918 171.994 22.9157 170.887 22.7083C171.509 22.5571 172.058 22.1955 172.443 21.6852C172.828 21.1748 173.024 20.547 172.998 19.9086V17.8348H167.773V20.7036H161.649V17.8348H156.424V32.8354V32.7317Z" fill="#00579F"/>
<path fill-rule="evenodd" clip-rule="evenodd" d="M156.424 11.9935H169.053C171.891 11.9935 172.894 13.618 172.894 15.0351V17.0744H156.424V11.9935Z" fill="#00579F"/>
<path fill-rule="evenodd" clip-rule="evenodd" d="M146.252 12.0281H139.678L139.056 17.0744L146.737 17.109L146.252 12.0281Z" fill="#00579F"/>
<path fill-rule="evenodd" clip-rule="evenodd" d="M128.607 17.7656H136.737L137.775 21.775L138.883 17.8693H146.91L148.605 32.7662H143.311L141.927 22.5699L140.024 32.7662H135.561L133.174 22.3625L132.101 32.7662H126.911L128.607 17.7656Z" fill="#00579F"/>
<path fill-rule="evenodd" clip-rule="evenodd" d="M129.229 12.0627H135.699L136.634 17.1436H128.607L129.229 12.0627Z" fill="#00579F"/>
<path fill-rule="evenodd" clip-rule="evenodd" d="M19.4449 0.380746L27.991 15.1048H11.0026L19.4449 0.380746Z" fill="#00579F"/>
<path d="M28.3024 15.3117H10.6567L10.8297 15.0006L19.445 0L28.3024 15.3117ZM11.3487 14.9315H27.6796L19.4796 0.760397L11.3487 14.9315Z" fill="#00579F"/>
<path fill-rule="evenodd" clip-rule="evenodd" d="M16.1234 2.41935L8.92665 14.4129L1.48775 10.0233L16.1234 2.41935Z" fill="#00579F"/>
<path d="M8.99591 14.6899L1.10721 10.0238L1.41861 9.85103L16.6424 1.93596L8.99591 14.6899ZM1.903 10.0584L8.82291 14.1369L15.7428 2.90374L1.903 10.0584Z" fill="#00579F"/>
<path fill-rule="evenodd" clip-rule="evenodd" d="M30.5168 14.5858L37.8519 9.98888L23.0433 2.48858L30.5168 14.5858Z" fill="#00579F"/>
<path d="M30.4476 14.9321V14.7593L22.6282 2.07441L38.3363 10.0586L30.4476 14.9321ZM23.5277 3.0422L30.4476 14.3791L37.3676 10.0932L23.5277 3.0422Z" fill="#00579F"/>
<path fill-rule="evenodd" clip-rule="evenodd" d="M19.618 31.7638L27.8181 17.3162L11.2449 17.489L19.618 31.7638Z" fill="#00579F"/>
<path d="M19.6179 32.2132L10.8988 17.3508H28.1986L19.6179 32.2132ZM11.5908 17.731L19.6179 31.5565L27.472 17.731H11.5908Z" fill="#00579F"/>
<path fill-rule="evenodd" clip-rule="evenodd" d="M38.6823 28.9646V12.2012L31.1742 16.4525L38.6823 28.9646Z" fill="#00579F"/>
<path d="M38.8553 29.6554L30.8974 16.3829L38.8553 11.8897V29.6554ZM31.451 16.5212L38.3709 28.2728V12.5464L31.451 16.5212Z" fill="#00579F"/>
<path fill-rule="evenodd" clip-rule="evenodd" d="M38.1979 32.3862L29.721 18.3188L21.4517 32.4208L38.1979 32.3862Z" fill="#00579F"/>
<path d="M21.1057 32.6276L29.721 17.9381L38.5093 32.593L21.1057 32.6276ZM29.7556 18.8021L21.7977 32.2128H37.8519L29.7556 18.8021Z" fill="#00579F"/>
<path fill-rule="evenodd" clip-rule="evenodd" d="M17.6803 32.3862L9.23805 18.3188L0.968761 32.4208L17.6803 32.3862Z" fill="#00579F"/>
<path d="M0.622791 32.6276L9.23808 17.9381L18.0264 32.593L0.622791 32.6276ZM9.23808 18.8021L1.31478 32.2128H17.2998L9.23808 18.8021Z" fill="#00579F"/>
<path fill-rule="evenodd" clip-rule="evenodd" d="M0.346045 29.0683L0.55364 12.2358L7.95794 16.6254L0.346045 29.0683Z" fill="#00579F"/>
<path d="M0 29.7591L0.242196 11.9243L8.09629 16.5558L0 29.7591ZM0.622793 12.4773L0.415197 28.2729L7.5773 16.5904L0.622793 12.4773Z" fill="#00579F"/>
<path fill-rule="evenodd" clip-rule="evenodd" d="M18.2339 43.654L18.3377 34.9785L3.77132 35.0131L18.2339 43.654Z" fill="#00579F"/>
<path d="M18.407 44L3.04481 34.8061H18.5108L18.407 44ZM4.56719 35.1863L18.1648 43.3087V35.1517L4.56719 35.1863Z" fill="#00579F"/>
<path fill-rule="evenodd" clip-rule="evenodd" d="M20.8289 43.6194L20.7251 34.9439L35.2915 34.9785L20.8289 43.6194Z" fill="#00579F"/>
<path d="M20.7597 43.9653V34.7369H36.2257L20.7597 43.9653ZM20.7597 35.1516V43.2741L34.5995 35.1862L20.7597 35.1516Z" fill="#00579F"/>
</svg>
