<svg width="145" height="100" viewBox="0 0 145 100" fill="none" xmlns="http://www.w3.org/2000/svg">
<path d="M5.06881 89.7281H0.756348V88.5322H10.6134V89.7281H6.33718V98.7517H5.06881V89.7281Z" fill="#007AC2"/>
<path d="M13.0413 88.5322H14.3096V98.7879H13.0413V88.5322Z" fill="#007AC2"/>
<path d="M20.9775 89.7281H16.665V88.5322H26.5583V89.7281H22.2459V98.7517H20.9775V89.7281Z" fill="#007AC2"/>
<path d="M28.6243 88.5322H29.8926V97.592H36.4519V98.7517H28.6243V88.5322Z" fill="#007AC2"/>
<path d="M39.3872 88.5322H47.3236V89.7281H40.6556V92.8447H44.7506V94.0406H40.6556V97.6645H47.9034V98.8242H39.3872V88.5322Z" fill="#007AC2"/>
<path d="M58.1955 96.1064C59.4607 97.1894 61.0604 97.8037 62.7254 97.8458C64.6823 97.8458 65.9144 96.9036 65.9144 95.7077C65.9144 94.5118 65.1171 94.0045 63.5226 93.8958C62.0954 93.9053 60.676 93.685 59.3189 93.2435C58.8953 93.0774 58.5311 92.7886 58.2728 92.4141C58.0145 92.0396 57.874 91.5965 57.8693 91.1416C57.8693 89.5833 59.3914 88.3149 61.8194 88.3149C63.5869 88.3306 65.3023 88.9151 66.7117 89.9819L65.9869 91.0329C64.8198 90.0515 63.3443 89.5126 61.8194 89.5108C60.1886 89.5108 59.1739 90.2356 59.1739 91.0691C59.169 91.2477 59.2096 91.4246 59.292 91.5832C59.3745 91.7417 59.496 91.8766 59.645 91.9751C60.5148 92.6636 62.0006 92.5187 63.8488 92.6999C65.697 92.8811 67.219 94.1857 67.219 95.744C67.219 97.3022 65.5882 99.0055 62.7254 99.0055C60.7972 99.0506 58.9136 98.4227 57.3982 97.2298L58.1955 96.1064Z" fill="#007AC2"/>
<path d="M70.9878 88.5322H76.8223C78.8517 88.5322 80.0476 89.5832 80.0476 91.3226C80.0636 91.7234 79.9953 92.123 79.847 92.4957C79.6987 92.8684 79.4738 93.2057 79.1868 93.4859C78.8998 93.766 78.5572 93.9828 78.181 94.122C77.8049 94.2613 77.4037 94.32 77.0035 94.2943H72.2562V98.7517H70.9878V88.5322ZM76.7498 93.0984C78.0544 93.0984 78.7067 92.5548 78.7067 91.4314C78.7067 90.3079 78.0544 89.7281 76.8223 89.7281H72.2562V93.0984H76.7498Z" fill="#007AC2"/>
<path d="M82.6202 93.678C82.6274 92.6331 82.9437 91.6138 83.5295 90.7485C84.1152 89.8832 84.944 89.2107 85.9114 88.8158C86.8788 88.4209 87.9414 88.3212 88.9654 88.5295C89.9893 88.7377 90.9287 89.2444 91.665 89.9858C92.4013 90.7272 92.9016 91.67 93.1029 92.6953C93.3041 93.7206 93.1972 94.7826 92.7957 95.7473C92.3942 96.712 91.7161 97.5362 90.8468 98.1159C89.9775 98.6957 88.956 99.0051 87.9111 99.0052C87.2077 99.0254 86.5076 98.9012 85.8541 98.6402C85.2007 98.3792 84.6076 97.9869 84.1118 97.4876C83.6159 96.9884 83.2277 96.3927 82.9711 95.7374C82.7146 95.0822 82.5951 94.3813 82.6202 93.678ZM91.8974 93.678C91.869 92.8964 91.6112 92.1404 91.1563 91.5042C90.7013 90.868 90.0693 90.3797 89.3389 90.1001C88.6084 89.8205 87.8118 89.7619 87.0484 89.9317C86.2849 90.1015 85.5882 90.4922 85.0451 91.055C84.502 91.6178 84.1365 92.328 83.9941 93.0971C83.8517 93.8661 83.9386 94.6601 84.2441 95.3801C84.5497 96.1001 85.0602 96.7143 85.7123 97.1462C86.3643 97.5782 87.129 97.8088 87.9111 97.8093C88.4485 97.8148 88.9813 97.7106 89.4771 97.503C89.9728 97.2955 90.4209 96.9889 90.7941 96.6022C91.1672 96.2155 91.4575 95.7567 91.6473 95.2539C91.837 94.7511 91.9221 94.2149 91.8974 93.678Z" fill="#007AC2"/>
<path d="M96.7539 88.5322H97.4062L104.038 96.1787V88.5322H105.306V98.7517H104.654L98.0585 91.1052V98.7517H96.7902L96.7539 88.5322Z" fill="#007AC2"/>
<path d="M109.401 96.1064C110.687 97.1795 112.294 97.7919 113.967 97.8458C115.924 97.8458 117.156 96.9036 117.156 95.7077C117.156 94.5118 116.359 94.0045 114.765 93.8958C113.338 93.9053 111.918 93.685 110.561 93.2435C110.137 93.0774 109.773 92.7886 109.515 92.4141C109.257 92.0396 109.116 91.5965 109.111 91.1416C109.111 89.5833 110.633 88.3149 113.061 88.3149C114.829 88.3306 116.544 88.9151 117.954 89.9819L117.229 91.0329C116.068 90.0647 114.609 89.5271 113.098 89.5108C111.467 89.5108 110.452 90.2356 110.452 91.0691C110.447 91.2477 110.488 91.4246 110.57 91.5832C110.653 91.7417 110.774 91.8766 110.923 91.9751C111.793 92.6636 113.243 92.5187 115.127 92.6999C117.012 92.8811 118.497 94.1857 118.497 95.744C118.497 97.3022 116.867 99.0055 114.004 99.0055C112.076 99.0506 110.192 98.4227 108.677 97.2298L109.401 96.1064Z" fill="#007AC2"/>
<path d="M121.432 93.678C121.44 92.6331 121.756 91.6138 122.342 90.7485C122.927 89.8832 123.756 89.2107 124.724 88.8158C125.691 88.4209 126.754 88.3212 127.778 88.5295C128.802 88.7377 129.741 89.2444 130.477 89.9858C131.214 90.7272 131.714 91.67 131.915 92.6953C132.116 93.7206 132.009 94.7826 131.608 95.7473C131.206 96.712 130.528 97.5362 129.659 98.1159C128.79 98.6957 127.768 99.0051 126.723 99.0052C126.02 99.0254 125.32 98.9012 124.666 98.6402C124.013 98.3792 123.42 97.9869 122.924 97.4876C122.428 96.9884 122.04 96.3927 121.783 95.7374C121.527 95.0822 121.407 94.3813 121.432 93.678ZM130.673 93.678C130.645 92.8949 130.386 92.1375 129.93 91.5006C129.473 90.8637 128.839 90.3755 128.106 90.097C127.374 89.8185 126.575 89.7621 125.811 89.9349C125.047 90.1076 124.35 90.5018 123.809 91.0683C123.267 91.6347 122.904 92.3482 122.766 93.1195C122.628 93.8909 122.72 94.6859 123.031 95.4052C123.342 96.1245 123.858 96.7362 124.515 97.1638C125.172 97.5914 125.94 97.8159 126.723 97.8093C127.258 97.8098 127.787 97.702 128.278 97.4922C128.77 97.2825 129.213 96.9752 129.583 96.589C129.952 96.2028 130.239 95.7457 130.426 95.2453C130.614 94.745 130.698 94.2118 130.673 93.678Z" fill="#007AC2"/>
<path d="M135.493 88.5322H141.328C143.357 88.5322 144.553 89.5832 144.553 91.3951C144.561 92.0847 144.32 92.7541 143.874 93.28C143.428 93.806 142.807 94.1533 142.125 94.258L144.662 98.7517H143.285L140.712 94.2943H136.762V98.7517H135.493V88.5322ZM141.255 93.0984C142.56 93.0984 143.212 92.5548 143.212 91.4314C143.212 90.3079 142.56 89.7281 141.328 89.7281H136.762V93.0984H141.255Z" fill="#007AC2"/>
<path d="M38.7711 12.3938C37.6115 7.97516 35.7123 3.78471 33.1541 0C30.9147 3.3569 29.1694 7.01825 27.9719 10.8717C26.4893 15.9495 26.0456 21.274 26.6672 26.527C27.1075 29.9392 27.9593 33.2855 29.204 36.4928C30.2194 38.9561 31.5208 41.2914 33.0816 43.4507C36.4354 38.5921 38.6185 33.0228 39.4597 27.1794C40.1859 22.2471 39.9148 17.2193 38.6624 12.3938H38.7711ZM33.0453 41.8562C31.7775 39.4146 31.1068 36.7071 31.0884 33.9561C31.1011 31.2344 31.7857 28.558 33.0816 26.1647C34.2163 28.4952 34.8462 31.0391 34.9298 33.6299C35.0017 36.4867 34.3536 39.3156 33.0453 41.8562ZM38.2275 23.2293C38.1994 25.4221 37.9567 27.6069 37.5028 29.7523C37.6495 26.6074 37.4183 23.4562 36.8142 20.3664C36.0738 16.8695 34.8543 13.4916 33.1903 10.3282C31.5472 13.488 30.3287 16.8511 29.5664 20.3302C28.9863 23.4246 28.7072 26.5679 28.7329 29.7161C28.2353 26.711 28.029 23.6648 28.1168 20.6201C28.2049 17.8726 28.5691 15.1409 29.204 12.4663C30.0683 9.31994 31.2839 6.28089 32.8279 3.40648C34.4731 6.2201 35.7633 9.22668 36.6693 12.3575C37.7246 15.887 38.2856 19.5458 38.3363 23.2293H38.2275Z" fill="#007AC2"/>
<path d="M35.6183 44.9004H24.5654V52.3656C25.8149 51.1114 27.5114 50.4048 29.2818 50.4014C31.0522 50.398 32.7514 51.0981 34.0057 52.3475C35.26 53.597 35.9665 55.2935 35.9699 57.0639C35.9733 58.8343 35.2733 60.5336 34.0238 61.7878C32.7937 63.0256 31.3315 64.0084 29.7208 64.68C28.1102 65.3516 26.3829 65.6988 24.6379 65.7016C22.2131 65.7007 19.8342 65.0404 17.7557 63.7915C15.6773 62.5427 13.9776 60.7521 12.8384 58.6116C11.6993 56.471 11.1636 54.061 11.2887 51.6394C11.4138 49.2179 12.195 46.8759 13.5487 44.8641C14.0305 44.1627 14.5764 43.5076 15.1795 42.9072C16.4194 41.6625 17.8936 40.6757 19.517 40.0039C21.1405 39.3321 22.881 38.9887 24.6379 38.9934V21.1637C20.6789 21.1342 16.7752 22.0939 13.2811 23.9558C9.78709 25.8176 6.81336 28.5226 4.6299 31.8252C2.44644 35.1278 1.12238 38.9234 0.777904 42.8676C0.433432 46.8117 1.07946 50.7794 2.65734 54.4105C4.23523 58.0416 6.695 61.2211 9.81338 63.6605C12.9318 66.0998 16.61 67.7217 20.5142 68.379C24.4184 69.0362 28.4249 68.708 32.1701 67.4241C35.9152 66.1401 39.2804 63.9412 41.9602 61.0268V44.9004H35.6183Z" fill="#007AC2"/>
<path d="M56.0208 40.6969C56.0208 42.4001 55.8033 45.0093 52.3968 45.0093H48.4105C45.0765 45.0093 44.7866 42.4001 44.7866 40.6969V25.3315C44.7866 23.6283 45.0041 21.019 48.4105 21.019H52.3968C55.7308 21.019 56.0208 23.6283 56.0208 25.3315V28.7017H51.2372V24.7879C51.2374 24.5826 51.1584 24.3851 51.0166 24.2366C50.8749 24.0881 50.6813 24 50.4762 23.9907C50.3731 23.9905 50.2711 24.0114 50.1763 24.0518C50.0815 24.0923 49.996 24.1517 49.9248 24.2262C49.8537 24.3008 49.7984 24.389 49.7623 24.4855C49.7263 24.5821 49.7102 24.685 49.7151 24.7879V41.1318C49.7102 41.2347 49.7263 41.3376 49.7623 41.4341C49.7984 41.5307 49.8537 41.6189 49.9248 41.6935C49.996 41.768 50.0815 41.8273 50.1763 41.8678C50.2711 41.9083 50.3731 41.9291 50.4762 41.929C50.6813 41.9197 50.8749 41.8316 51.0166 41.6831C51.1584 41.5346 51.2374 41.3371 51.2372 41.1318V35.8771H50.5124V33.2316H56.0208V40.6969Z" fill="#007AC2"/>
<path d="M63.2323 35.9853L64.0658 24.0263H64.3557L65.153 35.9853H63.2323ZM57.9414 45.0088H62.6163L63.0874 38.4858H65.4429L65.8778 44.8638H70.5889L68.0884 20.8735H60.4419L57.9414 45.0088Z" fill="#007AC2"/>
<path d="M72.2561 41.9653L76.8222 24.0269H72.7272V21.019H81.787V24.0269L77.1846 41.929H82.0407V45.0093H72.2561V41.9653Z" fill="#007AC2"/>
<path d="M89.1072 33.8477V23.9907H89.687C90.2306 23.9907 90.593 24.4618 90.593 25.1865V32.6518C90.593 33.4128 90.2306 33.8477 89.687 33.8477H89.1072ZM84.2874 45.0093H89.1072V36.8555H91.8251C95.1953 36.8555 95.449 34.2463 95.449 32.5793V25.3315C95.449 23.6283 95.2316 21.019 91.8251 21.019H84.2874V45.0093Z" fill="#007AC2"/>
<path d="M102.661 33.1225V23.9902H103.277C103.784 23.9902 104.183 24.4613 104.183 25.1861V31.9266C104.183 32.6876 103.784 33.1225 103.277 33.1225H102.661ZM109.582 45.0089L107.191 35.6592C107.764 35.4274 108.247 35.0161 108.567 34.487C108.887 33.9578 109.027 33.3393 108.966 32.7239V25.476C108.966 23.7728 108.749 21.1636 105.342 21.1636H98.0583V45.0089H102.842V36.1303H103.204L104.835 45.0089H109.582Z" fill="#007AC2"/>
<path d="M118.461 41.1318C118.461 41.3371 118.382 41.5346 118.241 41.6831C118.099 41.8316 117.905 41.9197 117.7 41.929C117.597 41.9291 117.495 41.9083 117.4 41.8678C117.305 41.8273 117.22 41.768 117.149 41.6935C117.078 41.6189 117.022 41.5307 116.986 41.4341C116.95 41.3376 116.934 41.2347 116.939 41.1318V24.7879C116.934 24.685 116.95 24.5821 116.986 24.4855C117.022 24.389 117.078 24.3008 117.149 24.2262C117.22 24.1517 117.305 24.0923 117.4 24.0518C117.495 24.0114 117.597 23.9905 117.7 23.9907C117.905 24 118.099 24.0881 118.241 24.2366C118.382 24.3851 118.461 24.5826 118.461 24.7879V41.1318ZM112.156 40.6969C112.156 42.4001 112.373 45.0093 115.779 45.0093H119.802C123.172 45.0093 123.426 42.4001 123.426 40.6969V25.3315C123.426 23.6283 123.245 21.019 119.802 21.019H115.816C112.482 21.019 112.192 23.6283 112.192 25.3315L112.156 40.6969Z" fill="#007AC2"/>
<path d="M138.284 21.019H144.517V45.0093H139.733V29.9701H139.552L137.088 45.0093H133.246L130.782 29.9701H130.637V45.0093H125.817V21.019H132.051L135.167 37.8702L138.284 21.019Z" fill="#007AC2"/>
<path d="M144.408 52.2935H44.7505V68.7823H144.408V52.2935Z" fill="#007AC2"/>
<path d="M55.1512 55.4097V56.9317H51.7085V59.251H54.8613V60.8093H51.7085V63.8534H55.1512V65.3754H49.7878V55.4097H55.1512Z" fill="white"/>
<path d="M67.436 55.4099L68.7406 58.6714L70.1177 55.4099H72.2558L69.7553 60.2297L72.3283 65.3756H70.2264L68.7406 61.7517L67.2186 65.3756H65.1167L67.5447 60.2297L65.2254 55.3374L67.436 55.4099Z" fill="white"/>
<path d="M84.4323 65.4479H82.5479V55.4097H86.1718C86.5433 55.413 86.91 55.4935 87.2488 55.6461C87.5875 55.7987 87.8909 56.02 88.1396 56.2959C88.3883 56.5719 88.577 56.8966 88.6937 57.2493C88.8103 57.6021 88.8524 57.9752 88.8172 58.345C88.8575 58.7195 88.8195 59.0983 88.7056 59.4573C88.5917 59.8163 88.4045 60.1477 88.1557 60.4305C87.907 60.7134 87.6022 60.9414 87.2607 61.1002C86.9191 61.2589 86.5483 61.345 86.1718 61.3529H84.4685L84.4323 65.4479ZM84.4323 59.8671H85.4107C86.3892 59.8671 86.8603 59.3235 86.8603 58.345C86.8913 58.1476 86.8751 57.9457 86.8132 57.7557C86.7513 57.5657 86.6454 57.393 86.5041 57.2517C86.3628 57.1103 86.1901 57.0044 86.0001 56.9425C85.8101 56.8806 85.6082 56.8645 85.4107 56.8955H84.4323V59.8671Z" fill="white"/>
<path d="M102.588 55.228C104.509 55.228 105.814 56.0977 105.814 58.6707V62.2946C105.814 64.8676 104.509 65.7011 102.588 65.7011C102.132 65.757 101.669 65.7063 101.236 65.5532C100.803 65.4 100.411 65.1485 100.092 64.8184C99.7721 64.4883 99.5334 64.0886 99.3944 63.6507C99.2554 63.2128 99.2198 62.7486 99.2905 62.2946V58.6707C99.2212 58.2153 99.2574 57.75 99.3964 57.3109C99.5354 56.8717 99.7733 56.4703 100.092 56.1376C100.411 55.805 100.801 55.55 101.234 55.3923C101.667 55.2345 102.13 55.1783 102.588 55.228ZM101.284 58.417V62.5483C101.284 63.5992 101.682 64.1428 102.588 64.1428C103.494 64.1428 103.857 63.5992 103.857 62.5483V58.4532C103.857 57.3661 103.422 56.75 102.588 56.75C101.755 56.75 101.284 57.3661 101.284 58.417Z" fill="white"/>
<path d="M118.316 65.4482H116.395V55.4099H120.382C120.719 55.4049 121.054 55.4683 121.367 55.5963C121.679 55.7243 121.962 55.9142 122.199 56.1546C122.437 56.3951 122.622 56.681 122.746 56.9952C122.87 57.3094 122.928 57.6454 122.918 57.9829C122.918 59.505 122.266 60.266 121.36 60.3747C121.783 60.4377 122.166 60.661 122.429 60.9982C122.692 61.3355 122.815 61.761 122.773 62.1867V63.455C122.773 64.361 122.773 65.1583 123.208 65.1583V65.4482H121.288C120.936 64.9818 120.78 64.3969 120.853 63.8174V62.6578C120.853 61.8605 120.599 61.2082 119.693 61.2082H118.316V65.4482ZM118.316 59.7586H119.584C120.273 59.7586 120.925 59.3962 120.925 58.2728C120.925 57.1494 120.418 56.8958 119.548 56.8958H118.316V59.7586Z" fill="white"/>
<path d="M137.306 65.4479H135.421V56.9317H133.029V55.4097H139.697V56.9317H137.306V65.4479Z" fill="white"/>
</svg>
