<svg width="195" height="41" viewBox="0 0 195 41" fill="none" xmlns="http://www.w3.org/2000/svg">
<path d="M154.31 0V19.1092H173.419V0H154.31ZM163.865 14.3007C162.926 14.3007 162.008 14.0223 161.228 13.5008C160.447 12.9793 159.839 12.2381 159.48 11.3709C159.121 10.5036 159.027 9.54935 159.21 8.6287C159.393 7.70805 159.845 6.86238 160.509 6.19863C161.172 5.53487 162.018 5.08286 162.939 4.89973C163.859 4.7166 164.814 4.81059 165.681 5.16981C166.548 5.52902 167.289 6.13734 167.811 6.91783C168.332 7.69832 168.611 8.61593 168.611 9.55462C168.611 10.1779 168.488 10.795 168.249 11.3709C168.011 11.9467 167.661 12.4699 167.221 12.9106C166.78 13.3513 166.257 13.7009 165.681 13.9394C165.105 14.1779 164.488 14.3007 163.865 14.3007Z" fill="#F6A71C"/>
<path d="M170.234 20.9826C169.919 20.9801 169.607 21.0524 169.325 21.1935C169.043 21.3346 168.798 21.5405 168.611 21.7944V22.1066L165.363 27.727C164.676 28.976 163.49 28.976 162.741 27.727L159.618 22.294C159.555 22.0546 159.425 21.8381 159.243 21.6695C159.063 21.4483 158.833 21.2714 158.574 21.1523C158.314 21.0332 158.03 20.9752 157.745 20.9826H154.248V40.2167H173.482V20.9826H170.234Z" fill="#B28648"/>
<path d="M190.968 4.45181e-08H178.478C177.561 -0.000146136 176.681 0.359714 176.027 1.0021C175.373 1.6445 174.997 2.51803 174.981 3.43466V19.1092H194.09V3.43466C194.094 2.57533 193.775 1.74589 193.197 1.11004C192.619 0.474181 191.823 0.078114 190.968 4.45181e-08Z" fill="#007E42"/>
<path d="M177.916 31.1616C177.165 31.1614 176.443 31.4555 175.906 31.9808C175.369 32.5061 175.06 33.2208 175.043 33.9718" fill="#ED1C24"/>
<path d="M177.916 31.1615C177.165 31.1613 176.443 31.4554 175.906 31.9806C175.369 32.5059 175.06 33.2207 175.043 33.9717V40.2165H194.402V20.9199H185.722V27.5395C185.706 28.5058 185.31 29.427 184.621 30.1045C183.932 30.782 183.004 31.1616 182.037 31.1615H177.916Z" fill="#ED1C24"/>
<path d="M63.5725 11.8654C62.4939 11.7467 61.4023 11.8718 60.3785 12.2315C59.3546 12.5912 58.4247 13.1763 57.6573 13.9436C56.89 14.711 56.3048 15.6409 55.9451 16.6648C55.5854 17.6886 55.4604 18.7802 55.5791 19.8589C55.5791 21.9623 56.4147 23.9795 57.9021 25.4669C59.3894 26.9542 61.4067 27.7898 63.5101 27.7898C65.6135 27.7898 67.6308 26.9542 69.1181 25.4669C70.6055 23.9795 71.441 21.9623 71.441 19.8589C71.5566 18.7917 71.4336 17.7122 71.0809 16.6984C70.7282 15.6846 70.1546 14.7619 69.4016 13.9969C68.6486 13.232 67.735 12.6439 66.7269 12.2753C65.7188 11.9067 64.6414 11.7667 63.5725 11.8654ZM63.5725 24.8547C62.1362 24.8547 60.4501 24.1678 60.4501 19.8589C60.4501 15.5499 62.1362 14.863 63.5725 14.863C65.0089 14.863 66.6325 15.5499 66.6325 19.8589C66.6325 24.1678 64.9464 24.8547 63.5725 24.8547ZM23.0435 12.6773C22.7544 12.7755 22.496 12.9478 22.2941 13.1769V27.7274H27.2275V12.4899H24.3549C23.9098 12.4683 23.4647 12.5318 23.0435 12.6773ZM141.696 12.6773C141.111 12.6619 140.532 12.7905 140.009 13.052C139.583 13.3954 139.259 13.8489 139.073 14.3634C138.648 13.5766 138.001 12.9321 137.213 12.5102C136.424 12.0882 135.529 11.9075 134.639 11.9903C128.956 11.9903 127.332 16.2368 127.332 20.4209C127.19 21.428 127.274 22.4544 127.58 23.4244C127.887 24.3945 128.406 25.2837 129.101 26.0265C129.796 26.7694 130.649 27.347 131.596 27.717C132.544 28.087 133.562 28.2399 134.576 28.1645C135.395 28.1964 136.211 28.0382 136.958 27.7023C137.706 27.3664 138.365 26.862 138.885 26.2286V27.7898C138.885 31.5992 136.949 31.5992 136.013 31.5992C135.076 31.5992 133.452 31.5992 133.327 29.7882H128.332C128.332 33.5351 131.704 34.784 135.95 34.784C141.446 34.784 143.694 32.5983 143.944 27.9147V12.4899L141.696 12.6773ZM135.888 25.167C134.576 25.167 132.641 24.6049 132.641 20.3584C132.641 16.1119 134.327 15.3626 135.825 15.3626C138.386 15.3626 139.135 17.4234 139.135 20.4209C139.385 24.2927 137.512 24.7923 136.138 24.7923L135.888 25.167ZM24.8545 5.12101C24.0976 5.13695 23.3762 5.44472 22.8409 5.98003C22.3056 6.51534 21.9978 7.23677 21.9819 7.99364C21.9982 8.74464 22.308 9.45936 22.845 9.98465C23.382 10.5099 24.1033 10.804 24.8545 10.8038C25.5998 10.8038 26.3146 10.5078 26.8416 9.98074C27.3686 9.45373 27.6647 8.73895 27.6647 7.99364C27.6649 7.24247 27.3708 6.52111 26.8455 5.98415C26.3202 5.44719 25.6055 5.13734 24.8545 5.12101ZM101.416 12.9271C101.14 13.0169 100.9 13.1918 100.729 13.4267V27.9772H105.538V12.4899H102.478C102.117 12.4971 101.758 12.5603 101.416 12.6773V12.9271ZM103.227 5.12101C102.47 5.13695 101.749 5.44472 101.214 5.98003C100.678 6.51534 100.371 7.23677 100.355 7.99364C100.371 8.74464 100.681 9.45936 101.218 9.98465C101.755 10.5099 102.476 10.804 103.227 10.8038C103.973 10.8038 104.687 10.5078 105.214 9.98074C105.741 9.45373 106.037 8.73895 106.037 7.99364C106.038 7.24247 105.744 6.52111 105.218 5.98415C104.693 5.44719 103.978 5.13734 103.227 5.12101ZM11.4905 21.9821L6.61953 6.68222L6.24485 5.12101H0V5.7455C0.749382 5.7455 1.62366 6.24509 1.87345 6.99447L8.1183 27.7274H13.9885L21.5447 4.62143C19.7256 4.44236 17.8994 4.88243 16.3615 5.87039L11.4905 21.9821ZM119.714 11.9903C117.961 11.8914 116.239 12.4731 114.905 13.614C114.691 13.2206 114.417 12.8626 114.093 12.5524H107.849V13.3018C108.598 13.3018 109.472 13.8014 109.722 14.5507V27.7274H114.843V19.1719C114.843 17.236 115.155 15.0503 117.59 15.0503C120.026 15.0503 119.964 16.7364 119.964 18.9221V27.7274H125.022V18.1727C125.022 13.9262 123.648 11.9903 119.714 11.9903ZM77.6859 4.68388C77.1839 4.77418 76.6992 4.94276 76.2496 5.18346C75.4806 5.48573 74.7641 5.90722 74.1263 6.43243V9.55485V27.7274H79.2471V7.11936V4.43408C78.7182 4.45087 78.1936 4.5348 77.6859 4.68388ZM96.4204 4.68388C95.9212 4.78457 95.438 4.95263 94.9841 5.18346C94.2226 5.46205 93.5226 5.88626 92.9233 6.43243V13.4267C91.7305 12.3413 90.164 11.7595 88.5519 11.803C82.8691 11.803 81.3079 15.9871 81.3079 19.7964C81.3079 23.6058 83.4312 27.8523 88.4895 27.8523C89.4014 27.9048 90.3108 27.7125 91.1233 27.2952C91.9359 26.878 92.622 26.251 93.1107 25.4792V27.6649H97.7943V6.74467V4.43408C97.3916 4.47866 96.9942 4.56232 96.6078 4.68388H96.4204ZM89.8633 24.8547C86.9283 24.8547 86.5536 21.7323 86.5536 19.8589C86.5536 15.6124 88.427 14.8005 89.8633 14.8005C91.2997 14.8005 93.1107 15.6124 93.1107 19.8589C93.0482 22.0445 93.0482 24.8547 90.0507 24.8547H89.8633Z" fill="#1E1858"/>
<path d="M37.282 27.7274V6.43243C38.7082 5.23778 40.4827 4.53674 42.3403 4.43408V14.176H47.7733V6.43243C49.214 5.22117 51.0138 4.51878 52.8941 4.43408V27.7274H47.7733V17.6107H42.3403V27.9772L37.282 27.7274Z" fill="#1E1858"/>
</svg>
