<svg width="480" height="152" viewBox="0 0 480 152" fill="none" xmlns="http://www.w3.org/2000/svg">
<path d="M264.527 21.2663L33.6238 31.1219C28.6188 31.3355 24.733 35.6063 24.9445 40.661L28.3736 122.607C28.5851 127.662 32.8139 131.586 37.8188 131.372L268.722 121.517C273.727 121.303 277.613 117.033 277.402 111.978L273.973 30.0319C273.761 24.9772 269.532 21.0527 264.527 21.2663Z" fill="#008C95"/>
<path d="M469.94 37.1064L175.941 1.11575C170.908 0.499537 166.333 4.12118 165.722 9.2049L154.296 104.408C153.686 109.492 157.272 114.113 162.306 114.729L456.304 150.72C461.338 151.336 465.913 147.714 466.523 142.63L477.949 47.427C478.559 42.3433 474.974 37.7226 469.94 37.1064Z" fill="black"/>
<path d="M96.3683 61.8823V97.7417H87.8011V79.1185C87.8011 78.2807 87.8011 77.333 87.9371 76.2618C88.0731 75.1905 88.1547 74.188 88.3179 73.2403L78.69 91.5614C78.4461 92.0729 78.0576 92.4999 77.5735 92.7883C77.0894 93.0768 76.5314 93.2138 75.9702 93.182H74.9367C74.377 93.2049 73.8227 93.0642 73.3403 92.7767C72.8579 92.4892 72.4678 92.0673 72.217 91.5614L62.5755 73.1716C62.7659 74.1193 62.9019 75.1356 63.0107 76.2069C63.1275 77.1733 63.1955 78.1451 63.2146 79.1185V97.7417H54.6475V61.8823H62.5619C63.2266 61.8855 63.8837 62.0257 64.4929 62.2943C65.2121 62.6485 65.7954 63.2327 66.152 63.9562L73.4409 77.7588C73.8352 78.5004 74.2024 79.297 74.556 80.1348C74.9095 80.9725 75.2495 81.8515 75.5759 82.7305C75.875 81.8149 76.2014 80.9497 76.555 80.1348C76.9086 79.297 77.2757 78.5004 77.6701 77.7588L84.9318 63.9562C85.2641 63.2055 85.8531 62.6009 86.5908 62.2531C87.2019 62.0114 87.852 61.8857 88.5082 61.8823H96.3683Z" fill="white"/>
<path d="M118.506 74.9022C120.65 74.8555 122.786 75.1664 124.83 75.8224C126.389 76.3423 127.825 77.1842 129.045 78.2945C130.093 79.2871 130.894 80.5151 131.384 81.8791C131.873 83.2723 132.117 84.741 132.105 86.219C132.124 87.8122 131.819 89.3923 131.207 90.861C130.576 92.2488 129.647 93.4778 128.488 94.4593C127.245 95.5293 125.802 96.3372 124.245 96.8353C122.394 97.4262 120.461 97.7137 118.52 97.6868H103.711V61.9099H112.727V74.9022H118.506ZM118.506 91.0396C119.205 91.0913 119.906 90.9958 120.566 90.7594C121.227 90.523 121.831 90.1508 122.341 89.6662C122.777 89.2086 123.119 88.6685 123.348 88.0769C123.577 87.4853 123.687 86.8539 123.674 86.219C123.677 85.6243 123.576 85.0336 123.375 84.4748C123.183 83.9231 122.867 83.4245 122.45 83.019C121.992 82.5794 121.451 82.2384 120.859 82.0164C120.119 81.742 119.335 81.6115 118.547 81.6318H112.727V91.0533L118.506 91.0396ZM147.526 61.9099V97.7417H138.007V61.9099H147.526Z" fill="white"/>
<path d="M190.811 67.8567C193.697 67.7963 196.575 68.1713 199.351 68.9691C201.452 69.5709 203.409 70.599 205.104 71.9906C206.524 73.1818 207.643 74.6978 208.367 76.413C209.051 78.1186 209.397 79.9429 209.387 81.7829C209.425 84.0307 208.998 86.2616 208.136 88.3341C207.322 90.2681 206.08 91.9877 204.505 93.3607C202.798 94.8251 200.813 95.9233 198.671 96.5882C196.129 97.3938 193.476 97.7833 190.811 97.7418H172.983V47.3107H207.538V55.2352H183.305V67.8567H190.811ZM190.811 89.7487C192.192 89.7844 193.57 89.5942 194.891 89.1856C195.853 88.8931 196.734 88.3755 197.461 87.6748C198.091 87.0706 198.559 86.3144 198.821 85.4774C199.091 84.6207 199.225 83.7259 199.215 82.8267C199.231 81.8641 199.098 80.9049 198.821 79.9838C198.562 79.1418 198.093 78.3807 197.461 77.7726C196.723 77.1177 195.842 76.6473 194.891 76.3992C193.561 76.0383 192.188 75.8718 190.811 75.9048H183.305V89.7761L190.811 89.7487Z" fill="white"/>
<path d="M222.442 81.3022C222.472 84.0248 223.477 86.6445 225.271 88.6773C226.11 89.4621 227.095 90.0713 228.168 90.4697C229.242 90.8681 230.383 91.0477 231.526 90.9984C232.672 91.0238 233.815 90.8662 234.912 90.5314C235.777 90.2522 236.618 89.9031 237.428 89.4876L239.386 88.4438C239.918 88.143 240.517 87.9824 241.127 87.9769C241.459 87.9616 241.789 88.0303 242.088 88.1766C242.388 88.3228 242.646 88.5422 242.84 88.8147L245.56 92.2893C244.592 93.4282 243.465 94.4183 242.214 95.2284C241.029 95.9867 239.76 96.6043 238.434 97.0688C237.149 97.5123 235.823 97.8252 234.477 98.0027C233.197 98.1753 231.906 98.2624 230.615 98.2636C228.248 98.2829 225.897 97.8639 223.679 97.0276C221.574 96.2301 219.663 94.9841 218.077 93.3743C216.417 91.6688 215.134 89.6282 214.31 87.3863C213.348 84.7265 212.886 81.9084 212.95 79.0773C212.937 76.7355 213.338 74.4101 214.133 72.2103C214.883 70.1032 216.059 68.1764 217.585 66.5522C219.111 64.928 220.955 63.6418 223 62.7751C225.287 61.8193 227.745 61.3517 230.22 61.4017C232.362 61.3759 234.491 61.7436 236.503 62.4867C238.379 63.1892 240.082 64.2966 241.491 65.7317C242.9 67.1667 243.982 68.8949 244.662 70.7957C245.458 72.9945 245.85 75.3217 245.818 77.6627C245.824 78.2551 245.788 78.8472 245.709 79.4344C245.668 79.8239 245.553 80.2016 245.369 80.5468C245.22 80.8059 244.991 81.0085 244.717 81.1236C244.369 81.2327 244.006 81.2837 243.642 81.2747L222.442 81.3022ZM237.401 75.6026C237.403 74.6409 237.27 73.6837 237.006 72.7597C236.748 71.8813 236.318 71.0641 235.741 70.3562C235.157 69.6454 234.417 69.0812 233.579 68.7082C232.177 68.1399 230.647 67.9675 229.155 68.2094C227.663 68.4514 226.264 69.0985 225.107 70.0815C223.714 71.6229 222.838 73.5697 222.605 75.6438L237.401 75.6026Z" fill="white"/>
<path d="M260.287 66.607C260.986 65.8203 261.745 65.0902 262.558 64.4233C263.355 63.7694 264.216 63.1989 265.128 62.7203C266.072 62.2422 267.066 61.8736 268.092 61.6216C269.217 61.3387 270.373 61.2002 271.533 61.2095C273.355 61.1896 275.156 61.6136 276.782 62.4456C278.4 63.303 279.797 64.5305 280.862 66.0301C282.105 67.7669 283.026 69.7165 283.581 71.7846C284.258 74.3229 284.582 76.9435 284.547 79.5718C284.568 82.0949 284.201 84.6061 283.459 87.0155C282.802 89.1689 281.755 91.1806 280.372 92.9486C279.077 94.5911 277.438 95.9232 275.572 96.849C273.628 97.7979 271.489 98.2685 269.33 98.2224C267.771 98.2933 266.213 98.0438 264.752 97.4891C263.292 96.9343 261.957 96.0858 260.831 94.9949V109.278H251.312V61.91H257.159C257.682 61.8729 258.202 62.0175 258.632 62.3197C259.062 62.622 259.378 63.0638 259.525 63.5718L260.287 66.607ZM260.831 88.2928C261.609 89.2499 262.609 89.9996 263.741 90.4765C264.811 90.8978 265.951 91.1121 267.1 91.1082C268.177 91.1225 269.245 90.8975 270.227 90.449C271.191 89.9754 272.019 89.2617 272.634 88.3752C273.375 87.3091 273.91 86.1117 274.212 84.8456C274.609 83.1402 274.796 81.392 274.769 79.6404C274.8 77.9346 274.644 76.2306 274.307 74.5589C274.056 73.3643 273.596 72.2247 272.947 71.1941C272.446 70.3925 271.735 69.7461 270.894 69.3263C270.042 68.9282 269.112 68.731 268.174 68.7494C266.706 68.7007 265.251 69.0467 263.958 69.752C262.711 70.5021 261.617 71.4857 260.735 72.6499L260.831 88.2928Z" fill="white"/>
<path d="M297.697 81.3022C297.738 84.0252 298.747 86.6426 300.539 88.6773C301.375 89.463 302.358 90.0728 303.429 90.4713C304.501 90.8698 305.64 91.049 306.781 90.9984C307.931 91.0235 309.079 90.8659 310.181 90.5314C311.042 90.2548 311.879 89.9056 312.683 89.4876L314.655 88.4438C315.183 88.1447 315.776 87.9841 316.382 87.9769C316.716 87.9618 317.048 88.0304 317.349 88.1766C317.651 88.3228 317.912 88.542 318.109 88.8147L320.828 92.2894C319.87 93.4268 318.752 94.4169 317.51 95.2284C316.32 95.9869 315.047 96.6045 313.716 97.0688C312.431 97.5123 311.106 97.8252 309.759 98.0027C308.484 98.1757 307.198 98.2629 305.911 98.2636C303.544 98.2829 301.193 97.8639 298.975 97.0276C296.868 96.2336 294.957 94.9871 293.373 93.3743C291.709 91.6725 290.424 89.6308 289.606 87.3863C288.643 84.7265 288.182 81.9084 288.246 79.0773C288.231 76.7341 288.636 74.4075 289.443 72.2103C290.188 70.1024 291.36 68.1746 292.884 66.55C294.408 64.9254 296.251 63.6398 298.295 62.7751C300.588 61.8194 303.051 61.3518 305.53 61.4017C307.672 61.3759 309.801 61.7436 311.813 62.4867C313.657 63.1696 315.339 64.2365 316.749 65.618C318.178 67.0722 319.282 68.8191 319.985 70.7408C320.776 72.941 321.168 75.2672 321.141 77.6077C321.147 78.2002 321.111 78.7923 321.032 79.3794C320.985 79.7676 320.87 80.1442 320.692 80.4919C320.543 80.751 320.314 80.9535 320.04 81.0687C319.692 81.1768 319.329 81.2278 318.965 81.2198L297.697 81.3022ZM312.656 75.6026C312.661 74.6397 312.524 73.6813 312.248 72.7597C312 71.8798 311.574 71.0615 310.997 70.3562C310.412 69.6454 309.672 69.0812 308.834 68.7081C307.845 68.2718 306.772 68.0608 305.693 68.0901C304.72 68.0359 303.747 68.1807 302.831 68.5159C301.915 68.851 301.075 69.3695 300.362 70.0403C298.97 71.5841 298.09 73.5289 297.847 75.6026H312.656Z" fill="white"/>
<path d="M378.894 97.7417H372.353C371.04 97.8176 369.729 97.5528 368.546 96.9726C367.599 96.3874 366.868 95.5045 366.465 94.4593L361.883 84.9691C361.542 84.1914 360.972 83.539 360.251 83.1013C359.518 82.6933 358.694 82.4851 357.857 82.497H355.342V97.7417H346.162V82.552H343.647C342.81 82.54 341.986 82.7483 341.253 83.1563C340.532 83.5939 339.962 84.2463 339.621 85.0241L335.052 94.4593C334.644 95.4786 333.925 96.3399 332.999 96.9177C331.81 97.4962 330.495 97.7608 329.178 97.6868H322.637L330.51 82.909C331.027 81.9513 331.688 81.0803 332.469 80.3271C333.291 79.588 334.267 79.0437 335.324 78.7339C334.515 78.429 333.775 77.9619 333.148 77.3605C332.468 76.6755 331.879 75.9046 331.394 75.067L323.521 61.8961H330.986C331.831 61.8877 332.661 62.121 333.38 62.5691C334.09 63.0113 334.675 63.6309 335.08 64.3682L340.519 74.2704C340.824 74.9213 341.293 75.4801 341.879 75.891C342.569 76.257 343.344 76.4279 344.123 76.3854H346.162V61.9098H355.342V76.3991H357.205C358.013 76.4337 358.817 76.2638 359.544 75.9047C360.181 75.5192 360.696 74.9567 361.026 74.2841L366.465 64.3819C366.856 63.6394 367.439 63.0177 368.151 62.5828C368.872 62.1375 369.701 61.9044 370.545 61.9098H378.011L370.096 75.0807C369.634 75.9223 369.057 76.6943 368.383 77.3743C367.757 77.9756 367.016 78.4428 366.207 78.7477C367.268 79.0573 368.249 79.6015 369.076 80.3408C369.853 81.1086 370.501 81.9993 370.994 82.9777L378.894 97.7417Z" fill="white"/>
<path d="M388.93 81.3021C388.972 84.0252 389.98 86.6425 391.772 88.6773C392.608 89.463 393.591 90.0728 394.662 90.4713C395.734 90.8698 396.873 91.0489 398.014 90.9983C399.16 91.0238 400.303 90.8662 401.4 90.5314C402.266 90.2548 403.108 89.9056 403.916 89.4876L405.874 88.4438C406.407 88.1446 407.005 87.9842 407.615 87.9769C407.949 87.963 408.281 88.0321 408.582 88.1782C408.883 88.3243 409.144 88.5428 409.342 88.8146L412.062 92.2893C411.099 93.4278 409.976 94.418 408.73 95.2284C407.538 95.9843 406.265 96.6017 404.936 97.0688C403.651 97.5123 402.325 97.8252 400.979 98.0027C399.703 98.1753 398.417 98.2624 397.13 98.2636C394.763 98.2829 392.413 97.8639 390.195 97.0276C388.088 96.2335 386.176 94.9871 384.592 93.3743C382.928 91.6696 381.64 89.629 380.812 87.3863C379.856 84.7247 379.395 81.9078 379.452 79.0772C379.437 76.734 379.842 74.4074 380.649 72.2103C381.401 70.092 382.585 68.1566 384.124 66.5291C385.663 64.9015 387.522 63.618 389.583 62.7613C391.875 61.8056 394.338 61.338 396.817 61.3879C398.955 61.3638 401.079 61.7314 403.086 62.4729C404.919 63.1632 406.586 64.2347 407.982 65.618C409.411 67.0721 410.515 68.819 411.219 70.7407C412.005 72.9418 412.392 75.268 412.361 77.6077C412.37 78.1998 412.338 78.7918 412.266 79.3794C412.218 79.7675 412.103 80.1441 411.926 80.4918C411.773 80.7532 411.538 80.9561 411.259 81.0687C410.916 81.1779 410.558 81.229 410.199 81.2197L388.93 81.3021ZM403.889 75.6026C403.899 74.6403 403.766 73.682 403.494 72.7596C403.246 71.8798 402.82 71.0614 402.243 70.3562C401.656 69.6417 400.911 69.0771 400.068 68.7081C398.667 68.1395 397.14 67.967 395.65 68.2089C394.159 68.4509 392.763 69.0983 391.609 70.0815C390.211 71.6216 389.331 73.5683 389.093 75.6438L403.889 75.6026Z" fill="white"/>
<path d="M459.725 61.8823V97.7417H451.158V79.1185C451.158 78.2807 451.158 77.333 451.294 76.2618C451.43 75.1905 451.512 74.188 451.675 73.2403L442.033 91.5614C441.797 92.064 441.42 92.4855 440.948 92.7735C440.477 93.0616 439.932 93.2036 439.382 93.182H438.348C437.789 93.2032 437.235 93.0617 436.753 92.7745C436.271 92.4872 435.881 92.0662 435.628 91.5614L425.933 73.1716C426.109 74.1193 426.259 75.1356 426.368 76.2069C426.477 77.2781 426.517 78.2532 426.517 79.1185V97.7417H417.95V61.8823H425.865C426.529 61.8881 427.186 62.0282 427.796 62.2943C428.51 62.6501 429.089 63.2343 429.441 63.9562L436.73 77.7588C437.124 78.5004 437.505 79.297 437.859 80.1348C438.212 80.9725 438.552 81.8515 438.865 82.7305C439.164 81.8515 439.491 80.9863 439.858 80.1348C440.225 79.2833 440.578 78.5004 440.973 77.7588L448.234 63.9562C448.561 63.2065 449.146 62.6015 449.88 62.2531C450.496 62.0121 451.15 61.8865 451.811 61.8823H459.725Z" fill="white"/>
<path d="M56.4825 36.4273L36.8664 16.6162C33.6907 13.4089 28.5418 13.4089 25.366 16.6162L5.74995 36.4273C2.57421 39.6347 2.57421 44.8348 5.74995 48.0421L25.366 67.8532C28.5418 71.0605 33.6907 71.0605 36.8664 67.8532L56.4825 48.0421C59.6582 44.8348 59.6582 39.6347 56.4825 36.4273Z" fill="black"/>
<path d="M34.3722 58.916L30.4558 54.7958L26.3626 58.7512L22.4189 54.631L26.4985 50.6894L22.5821 46.5692L18.5025 50.5246L14.6133 46.3907L18.6929 42.4353L14.7765 38.3152L18.8561 34.3598L22.7725 38.48L26.8521 34.5246L22.9357 30.4045L27.0153 26.4491L30.9317 30.5693L35.0113 26.6139L38.9277 30.7341L34.8481 34.6894L38.7646 38.8096L42.8442 34.8542L46.7606 38.9744L42.681 42.9297L46.5974 47.0499L42.5178 51.0053L38.6014 46.8851L34.5218 50.8404L38.4382 54.9606L34.3722 58.916ZM30.5781 46.6928L34.6578 42.7375L30.7413 38.6173L26.6617 42.5727L30.5781 46.6928Z" fill="white"/>
</svg>
