<?xml version="1.0" encoding="UTF-8"?>
<svg id="SVGDoc" width="803" height="188" xmlns="http://www.w3.org/2000/svg" version="1.1" xmlns:xlink="http://www.w3.org/1999/xlink" xmlns:avocode="https://avocode.com/" viewBox="0 0 803 188"><defs><clipPath id="clip-8E51218A-BBA8-4AB7-996B-229197B3C9AA"><path d="M253.85,0.73001v0h55.31531v0v67.85909v0h-55.31531v0z" ></path></clipPath><clipPath id="clip-9A3207FC-3666-4B2D-97BC-E494B7F29B23"><path d="M739.65,12.61v0h63.02311v0v76.58063v0h-63.02311v0z" ></path></clipPath></defs><desc>Generated with Avocode.</desc><g><g clip-path="url(#clip-4531049E-3C18-4A46-942E-E54DB6D4E994)"><title>Group 31</title><g><title>Fill 1</title><path d="M59.90755,66.66899v0l6.18086,6.32482v0l19.39075,54.17905v0l-47.20462,-38.48995v0l-3.59738,-4.18048v0l-6.95103,4.90838v0l5.97613,3.47226v0l6.60007,5.41987v0l17.52869,48.04111v0l-47.18512,-38.14566v0l-3.52914,-4.21983v0l-7.11676,5.01658v0l5.97613,3.47226v0l48.75471,39.5326v0l4.70876,-3.31488v0l-17.96739,-49.40837v0l40.81903,33.2668v0l4.70876,-3.33455v0l-20.2779,-56.65783v0l-1.60859,-9.55117v0z" fill="#1d1d1b" fill-opacity="1"></path></g><g><title>Fill 2</title><path d="M73,57.58547v0l7.97335,-5.58547v0l1.05543,4.81674v0l31.92218,46.89263v0l4.04904,2.71489v0l-7.96375,5.57574v0l-1.05544,-4.80701v0l-31.91258,-46.90236v0z" fill="#1d1d1b" fill-opacity="1"></path></g><g><title>Fill 3</title><path d="M161.80631,69.92535v0l1.19369,10.84386v0l-37.38241,20.23079v0l-0.59684,-4.91836v0l-28.10147,-50.19075v0l-3.91928,-3.12898v0l8.80347,-4.76191v0l0.59684,4.91836v0l30.03127,53.61307v0l21.7749,-11.78256v0l7.3412,-14.67685v0z" fill="#1d1d1b" fill-opacity="1"></path></g><g><title>Group 30</title><g><title>Fill 4</title><path d="M216.96669,30.94381c4.77788,19.59313 -4.29034,35.54375 -22.96306,40.13604l-23.97714,5.90438l0.70206,-4.91542l-13.59257,-55.78312l-2.89598,-4.02438l23.98689,-5.89458l0.82374,0.52259c-0.34826,0.07399 -0.69867,0.15441 -1.05119,0.24128l-15.82232,3.88727l15.45187,63.39078l15.82231,-3.88727l16.8167,-37.7368c-0.665,-2.72884 -1.44469,-5.2535 -2.3337,-7.57105zM179.05063,6.88932l28.88367,18.32421c-5.65976,-14.75439 -15.75017,-21.11442 -28.88367,-18.32421z" fill="#1d1d1b" fill-opacity="1"></path></g><g><title>Group 8</title><g><title>Clip 7</title></g><g clip-path="url(#clip-8E51218A-BBA8-4AB7-996B-229197B3C9AA)"><title>Fill 6</title><path d="M254.25873,31.02431c2.74972,-20.35688 17.56114,-32.45938 35.91208,-29.97229c4.72912,0.64625 8.32716,1.62541 13.15379,2.29125l3.38351,0.4602v0l2.4572,9.5175v0l-0.29253,-0.03916v0l-5.11915,-4.3475c-5.1094,-4.3475 -8.18089,-6.45271 -13.77783,-7.20667c-14.38239,-1.95833 -25.89804,7.52979 -28.83302,29.24771c-2.90573,21.52208 5.67494,33.75187 20.73988,35.80812c9.46799,1.28271 17.28811,-2.09541 21.83197,-8.08791l0.6338,0.47979c-4.56336,6.09042 -12.86126,10.6925 -24.64019,9.09646c-17.47338,-2.37938 -28.12122,-17.45854 -25.44951,-37.2475" fill="#1d1d1b" fill-opacity="1"></path></g></g><g><title>Fill 9</title><path d="M319.32777,52.75271l-11.65217,11.90667l-1.25785,7.65708l-6.34775,-2.73188l6.89379,-5.22875l40.48519,-41.44812l0.12676,-5.27771l6.09423,2.62417l-1.59913,65.85875l0.65331,6.13937l-8.1419,-3.50541l1.38461,-4.72938l0.49729,-19.58333zM347.41973,23.95542l-25.9858,26.61375l25.06922,10.79042z" fill="#1d1d1b" fill-opacity="1"></path></g><g><title>Fill 11</title><path d="M424.36903,61.0325v0l-7.61535,3.91667v0l-48.47107,39.01979v0l-4.59261,-2.97667v0l14.82117,-63.22479v0l0.27302,-6.2275v0l7.46909,4.82729v0l-2.09642,4.35729v0l-14.31413,60.9825v0l46.2479,-37.17896v0l2.5352,-7.20666v0z" fill="#1d1d1b" fill-opacity="1"></path></g><g><title>Fill 13</title><path d="M431.53457,67.07v0l7.96637,5.80646v0l-4.18308,2.62417v0l-33.58164,46.4125v0l-1.18959,4.8175v0l-7.95663,-5.81625v0l4.19283,-2.63396v0l33.56214,-46.40271v0z" fill="#1d1d1b" fill-opacity="1"></path></g><g><title>Fill 15</title><path d="M428.92748,119.15354l-13.63157,9.60563l-2.60346,7.31437l-5.77245,-3.84812l7.73236,-3.89709l47.33023,-33.44833l1.08233,-5.17l5.51894,3.69146l-13.44631,64.54667l-0.44854,6.16874l-7.39108,-4.935l2.21342,-4.40625l4.02707,-19.19166zM461.77807,95.90813l-30.38364,21.47312l22.74628,15.18688z" fill="#1d1d1b" fill-opacity="1"></path></g><g><title>Fill 17</title><path d="M489.09795,141.85958l-9.42899,28.4448l0.31203,4.95458l-9.35099,-3.13333l3.208,-3.77959l18.04867,-54.45146l-0.31202,-4.95458l22.12449,7.39271c11.28164,3.76979 16.52755,11.81854 13.45606,21.11083c-3.05199,9.20417 -12.14946,13.08167 -23.25558,9.36084l-1.47237,-0.48959l15.67924,41.68313l-7.11806,-2.37938l-15.60123,-41.65375zM489.31247,141.21333l14.34338,4.78813c8.05413,2.7025 13.88509,-0.93021 17.05409,-10.50646c3.19825,-9.65459 0.45829,-15.95063 -7.87862,-18.73146l-13.88509,-4.64125z" fill="#1d1d1b" fill-opacity="1"></path></g><g><title>Fill 19</title><path d="M606.32152,126.40312v0l-0.28277,0.04896v0l-13.3488,-6.84437v0l-13.23179,1.84083v0l8.37591,60.69854v0l2.46694,4.30834v0l-9.75077,1.35125v0l1.2091,-4.80771v0l-8.38566,-60.69854v0l-13.22204,1.84083v0l-10.98912,10.2225v0l-0.29252,0.03917v0l1.71614,-9.62521v0l51.4743,-7.15771v0z" fill="#1d1d1b" fill-opacity="1"></path></g><g><title>Fill 21</title><path d="M618.6646,155.94292l1.21885,16.65562l4.90463,6.00229l-6.25024,2.98646l0.6338,-8.65583l-4.29034,-57.88833l-3.8613,-3.56417l5.98697,-2.86896l48.19805,44.65l5.04114,3.54458l-8.01513,3.83834l-2.6132,-4.16146l-14.31413,-13.29708zM615.65161,115.75792l2.75947,37.15938l24.62069,-11.78917z" fill="#1d1d1b" fill-opacity="1"></path></g><g><title>Fill 23</title><path d="M672.71404,142.14146v0l0.16576,-0.10771v0l6.70853,0.00979c6.84504,0.02938 10.37482,-0.55812 14.89917,-3.78937c8.97071,-6.42334 9.88728,-14.76584 4.69012,-22.09979c-3.67604,-5.19938 -7.98588,-6.55063 -14.13861,-5.7673c-6.14299,0.78334 -13.20254,3.66209 -19.56004,4.48459c-6.23074,0.84208 -11.19388,-1.26313 -14.91868,-6.53104c-5.99672,-8.45021 -3.31526,-18.18313 6.377,-25.11563c3.17875,-2.26187 5.31417,-3.29979 8.97071,-5.91417l3.89056,-2.78083v0l7.85912,5.67917v0l-0.24377,0.16646v0l-6.47451,-0.17625c-6.55252,-0.13709 -9.55576,0.6952 -13.60232,3.59354c-7.79087,5.56166 -9.27298,12.75854 -4.64137,19.29937c2.94473,4.15167 6.94255,5.73792 12.94902,4.92521c5.92847,-0.75396 13.41706,-3.69146 19.7258,-4.60208c6.3575,-0.81271 11.25239,0.85187 15.60123,7.00104c6.84504,9.65458 4.4756,20.83667 -6.09423,28.38604c-4.04657,2.89833 -7.0498,4.56292 -10.62833,7.11854l-2.78872,1.98771v0z" fill="#1d1d1b" fill-opacity="1"></path></g><g><title>Fill 25</title><path d="M729.93275,43.74229v0l-0.23402,0.16646v0l-14.99668,-0.235v0l-11.06712,7.52v0l34.18619,50.77958v0l4.09532,2.77104v0l-8.15164,5.54209v0l-1.03358,-4.85667v0l-34.1862,-50.78937v0l-11.06712,7.52v0l-5.37267,14.04125v0l-0.24377,0.16645v0l-2.68146,-9.40979v0l43.05939,-29.21833v0z" fill="#1d1d1b" fill-opacity="1"></path></g><g><title>Group 29</title><g><title>Clip 28</title></g><g clip-path="url(#clip-9A3207FC-3666-4B2D-97BC-E494B7F29B23)"><title>Fill 27</title><path d="M802.54245,62.33208v0l0.13651,10.9275v0l-36.72139,15.93105v0l-0.11701,-4.96438v0l-22.67053,-52.69875v0l-3.52003,-3.49562v0l35.56105,-15.42188v0l6.59152,7.1675v0l-0.18527,0.07833v0l-14.55789,-2.96687v0l-19.79406,8.5775v0l11.68142,27.17187v0l26.0638,-11.30937v0l1.12134,2.61437v0l-26.05405,11.29959v0l12.95877,30.13875v0l20.76913,-9.01813v0l8.56118,-13.95312v0z" fill="#1d1d1b" fill-opacity="1"></path></g></g></g></g></g></svg>