<svg xmlns="http://www.w3.org/2000/svg" width="575" height="570" viewBox="0 0 575 570"><defs><clipPath id="tx6za"><path d="M.86 0h574v570H.86z"/></clipPath></defs><g><g><g/><g clip-path="url(#tx6za)"><path fill="#231f20" d="M222.725 69.377l.215-.04 6.77 3.113c6.9 3.2 10.735 4.23 16.8 3.069 12.019-2.304 16.777-10.276 14.903-20.063-1.326-6.917-5.057-10.283-11.626-12.334-6.569-2.05-15.019-2.416-21.82-4.531-6.676-2.03-10.718-6.44-12.062-13.462-2.16-11.279 5.024-19.825 18.001-22.312 4.255-.815 6.89-.879 11.782-1.818L250.9 0l5.32 9.35-.319.061-6.453-3.175c-6.56-3.156-9.973-3.714-15.398-2.675-10.425 1.997-15.235 8.544-13.564 17.27 1.06 5.532 4.365 8.98 10.807 10.944 6.336 1.985 15.252 2.482 22.033 4.491 6.801 2.117 10.973 6.06 12.544 14.253 2.465 12.876-5.072 23.033-19.22 25.744-5.424 1.04-9.228 1.328-14.015 2.247l-3.722.71zm-46.544 20.032l.198-.085 7.291 1.538c7.438 1.594 11.405 1.75 17.06-.725 11.214-4.906 14.092-13.735 10.098-22.866-2.822-6.45-7.206-8.907-14.065-9.453-6.858-.547-15.181.968-22.282.41-6.957-.505-11.876-3.91-14.738-10.46-4.603-10.522.513-20.446 12.62-25.743 3.969-1.738 6.523-2.383 11.086-4.38l4.864-2.127 7.254 7.939-.296.132-6.995-1.67c-7.097-1.625-10.55-1.415-15.61.8-9.724 4.256-12.968 11.705-9.408 19.845 2.258 5.16 6.244 7.79 12.96 8.28 6.617.535 15.424-.954 22.48-.494 7.101.558 12.043 3.478 15.387 11.123 5.252 12.008.148 23.584-13.049 29.358-5.061 2.214-8.708 3.338-13.172 5.29l-3.473 1.521zm-3.899 1.844l3.091 11.69-35.24 27.026-1.462-5.295-38.617-50.38-4.73-2.788 34.122-26.168 9.032 5.907-.172.131-16.479.759-18.993 14.568 19.9 25.963 25.01-19.18 1.912 2.492-25.01 19.182 22.074 28.8 19.94-15.291 5.45-17.284zm-98.348 1.18l4.847 7.693 52.676 38.434-4.149 5.691-78.953-7.72-.574.786 48.388 35.307 8.803 2.266-4.466 6.126-4.848-7.693-48.3-35.243-6.419-.391 6-8.227 81.382 7.883-50.05-36.518-8.804-2.265zm14.282 88.618l8.772 8.318-15.78 41.518-4.028-3.733-59.321-22.56-5.49.116 15.28-40.202 10.785.276-.078.202-13.618 9.31-8.504 22.378 30.572 11.627 11.2-29.467 2.936 1.117-11.2 29.467 33.913 12.896 8.93-23.492-4.447-17.569zM6.188 227.44l7.777 5.476 63.223 27.585-.537 6.043L7.1 284.512.86 287.44l.873-9.82 5.343-.178 67.1-17.314-60.29-26.347-8.369 1.213zm-2.255 87.262l-.966-10.898 5.25 1.6 63.219-5.615 4.887-2.501.968 10.9-5.253-1.602-63.215 5.617zM14.57 330.62l.092.31-5.246 15.803 4.23 14.225 64.985-19.335 4.292-3.425 3.12 10.488-5.467-.52L15.594 367.5l4.228 14.228 13.027 10.364.092.311-10.818-.285-16.46-55.345zm19.205 86.545l8.903-1.842 54.465-35.856 3.869 5.883-34.936 71.246.537.815 50.032-32.938 5.21-7.452 4.17 6.333-8.902 1.842-49.943 32.88-2.618 5.873-5.597-8.507 35.939-73.465-51.75 34.072-5.212 7.449zm87.87 18.198l10.76-5.514 33.909 28.678-4.857 2.56-40.979 48.478-1.716 5.216-32.833-27.769 3.845-10.084.165.139 4.254 15.941 18.278 15.46 21.119-24.986-24.067-20.355 2.027-2.398 24.067 20.356 23.426-27.715-19.188-16.227-18.042-1.641zm14.066 91.76l7.93-5.253 48.7-48.859 5.432 2.7-8.591 71.338.452 6.879-8.824-4.388 1.78-5.044 8.306-68.816-46.48 46.576-1.917 8.24zm76.982 33.722l4.693-7.789 10.658-64.34 6.943 1.15 28.578 74.029.96.157 9.79-59.103-1.93-8.884 7.48 1.24-4.695 7.787-9.771 58.996 2.533 5.911-10.044-1.665-29.522-76.27L218.24 553.2l1.933 8.886zm89.761 8.181l-10.92.415 1.86-5.167-2.409-63.437-2.247-5.01 10.921-.416-1.86 5.167 2.409 63.437zm49.008-69.525l-.205-12.09 40.682-17.803.155 5.49 25.437 58.161 3.925 3.842-39.391 17.237-7.356-7.897.198-.087 16.18 3.207 21.929-9.594-13.11-29.976-28.872 12.635-1.26-2.878 28.875-12.635-14.543-33.25-23.02 10.074-9.426 15.477zm50.524-22.13l-3.092-11.691 36.877-28.278 1.464 5.294 38.62 50.38 4.73 2.79-8.681 6.657-1.465-5.294-41.254-53.819-21.492 16.479-5.448 17.284zm54.83-64.46c-7.245 9.459-5.8 18.076 4.082 25.657 9.712 7.447 18.405 6.608 25.65-2.85l9.686-12.637-29.732-22.807zm66.93 31.262l-26.902-20.63-9.62 12.552c-6.194 8.08-4.848 15.94 3.918 22.663 9.112 6.985 16.987 5.791 23.445-2.633zm-40.474-3.462c-8.496 8.773-18.518 10.096-26.767 3.768-9.367-7.185-9.842-19.561-.421-31.857l15.22-19.858 2.787 4.731 50.359 38.626 5.292 1.465-14.824 19.342c-8.435 11.006-19.15 14.663-27.83 8.005-7.305-5.602-8.508-14.717-3.645-24.09zm66.222-59.784l-30.627-27.64-10.776 28.353zm-33.139-29.87l-13.71-12.4-8.527-1.04 2.733-7.19 6.1 7.42 47.71 43.061 5.83-.101-2.616 6.886-72.892 1.255-6.762 1.022 3.503-9.215 5.293 1.316 21.677-.332zm53.554-15.433l-8.118-4.093-64.944-5.77.624-7.013 71.635-34.095.085-.973-59.656-5.299-8.712 2.598.671-7.553 8.116 4.093 59.55 5.29 5.7-2.975-.9 10.144-73.8 35.208 61.706 5.48 8.711-2.597zm.967-90.172l1.243 10.871-5.292-1.467-63.054 7.211-4.824 2.624-1.243-10.871 5.293 1.467 63.053-7.211zm-18.239-49.951l-41.193-2.344 9.368 28.853zm-44.552-2.507l-18.449-1.069-7.295 4.533-2.375-7.314 9.402 1.957 64.147 3.652 4.482-3.732 2.275 7.005-56.014 46.661-4.628 5.034-3.044-9.376 4.948-2.289 16.684-13.846zm31.61-25.649l-.172-.275.859-16.63-7.857-12.59-57.513 35.913-3.228 4.442-5.792-9.282 5.408-.949 57.511-35.913-7.856-12.59-15.311-6.53-.172-.276 10.505-2.6 30.568 48.98zm-113.54-59.86l.156.151 1.314 7.339c1.313 7.494 2.66 11.231 7.077 15.544 8.756 8.553 18.016 7.906 24.978.774 4.916-5.037 5.547-10.023 3.477-16.589-2.07-6.564-6.597-13.709-8.746-20.503-2.145-6.64-.838-12.478 4.158-17.593 8.019-8.217 19.136-7.2 28.59 2.035 3.1 3.026 4.656 5.153 8.22 8.634l3.799 3.709-4.634 9.708-.233-.226-1.08-7.113c-1.157-7.188-2.65-10.31-6.602-14.17-7.593-7.417-15.714-7.626-21.92-1.27-3.934 4.03-4.874 8.714-2.806 15.125 1.991 6.335 6.677 13.94 8.902 20.654 2.147 6.794 1.297 12.472-4.53 18.44-9.154 9.38-21.797 8.994-32.103-1.071-3.95-3.86-6.361-6.82-9.848-10.226l-2.712-2.65zm-37.133-8.763c-14.937-8.35-18.461-20.251-11.59-32.545l22.882-40.945.784-5.396 9.453 5.287-4.187 3.493-22.828 40.851c-6.343 11.347-4.843 20.874 8.582 28.38 12.855 7.19 23.9 4.304 30.134-6.854l21.138-37.825 1.194-9.016 6.615 3.7-7.051 5.737-21.14 37.826c-6.816 12.199-19.144 15.607-33.986 7.307zM316.158 61.31l.21.052 4.863 5.648c4.947 5.78 8.008 8.31 14.004 9.773 11.89 2.902 19.53-2.369 21.892-12.05 1.669-6.842-.328-11.456-5.448-16.05-5.121-4.598-12.658-8.444-17.962-13.196-5.23-4.621-7.073-10.313-5.378-17.259 2.722-11.156 12.808-15.941 25.645-12.809 4.207 1.027 6.63 2.066 11.47 3.245l5.156 1.26.952 10.714-.316-.076-4.549-5.572c-4.654-5.595-7.529-7.524-12.895-8.834-10.31-2.517-17.406 1.44-19.51 10.068-1.338 5.474.24 9.984 5.28 14.449 4.937 4.44 12.841 8.598 18.174 13.245 5.307 4.752 7.463 10.073 5.488 18.177-3.108 12.736-14.185 18.84-28.178 15.425-5.365-1.309-8.946-2.63-13.681-3.784l-3.682-.9z"/></g></g></g></svg>