<?xml version="1.0" encoding="UTF-8"?>
<svg id="SVGDoc" width="59" height="97" xmlns="http://www.w3.org/2000/svg" version="1.1" xmlns:xlink="http://www.w3.org/1999/xlink" xmlns:avocode="https://avocode.com/" viewBox="0 0 59 97"><defs><clipPath id="clip-32BB543F-EE3E-798A-C610-E9E6FE941A21"><path d="M47.33,0.75v0h11.15v0v24.18125v0h-11.15v0z" ></path></clipPath></defs><desc>Generated with Avocode.</desc><g><g><title>Group 10</title><g><title>Fill 1</title><path d="M33.93951,27.20284c4.27512,0 7.22342,1.04414 10.64586,3.20779c0.31804,0.19978 0.63219,0.39014 0.96,0.61065c0.20878,0.14136 0.43122,0.30533 0.64585,0.45422c0.31024,0.21674 0.62049,0.42783 0.94439,0.66154c0.76098,0.55033 1.55122,1.13648 2.4039,1.78294l5.96293,4.61002v0h0.49756v0l-4.27317,-11.61552v0h-2.91512v0h-1.15708v0h-0.00195c-0.26146,0 -0.52292,-0.01131 -0.78439,-0.01319c-0.38244,-0.00377 -0.76683,-0.01319 -1.15122,-0.02073c-3.94536,-0.07916 -7.92195,-0.35056 -11.67805,-0.35056c-3.53951,0 -6.90341,0.47872 -10.03902,1.38527l0.5522,1.57374c2.69658,-1.53228 5.83219,-2.28617 9.38731,-2.28617" fill="#00040c" fill-opacity="1"></path></g><g><title>Fill 3</title><path d="M35.65246,93.92067c-14.69508,0 -21.9422,-10.83936 -21.9422,-33.72225c0,-5.56946 0.44843,-10.33287 1.29266,-14.37891l-3.43151,-10.28951c-6.57447,6.24742 -10.57141,15.5062 -10.57141,26.67469c0,20.27552 12.41195,34.32531 30.97918,34.32531c13.8021,0 21.84472,-7.72748 25.02082,-14.35132l-0.6941,-0.30153c-3.37498,6.72632 -10.72349,12.04352 -20.65344,12.04352" fill="#00040c" fill-opacity="1"></path></g><g><title>Group 7</title><g><title>Clip 6</title></g><g clip-path="url(#clip-32BB543F-EE3E-798A-C610-E9E6FE941A21)"><title>Fill 5</title><path d="M47.786,24.93164v0h0.354v0l4.33,-13.63672v0l6.01,-10.54492v0h-8.352v0l1.528,10.54492v0l-4.326,13.62891c0.152,0.00195 0.306,0.00781 0.456,0.00781" fill="#00040c" fill-opacity="1"></path></g></g><g><title>Fill 8</title><path d="M12.15468,33.267v0l0.36066,1.06621v0l3.04994,9.06771v0l0.64488,1.92037v0l8.14624,24.20871v0h10.28277v0l11.36083,-36.7048c-0.21757,-0.15709 -0.43907,-0.32203 -0.6488,-0.47126l-10.01423,32.3732v0l-11.32947,-33.41192v0l-0.37046,-1.08977v0l-0.6292,-1.85949v0l-0.35086,-1.03087v0l-6.98585,-20.60559v0l-0.19994,-5.1995v0h-15.47119v0l3.39296,5.70021v0z" fill="#00040c" fill-opacity="1"></path></g></g></g></svg>