<?xml version="1.0" encoding="UTF-8"?>
<svg width="333px" height="30px" viewBox="0 0 333 30" version="1.1" xmlns="http://www.w3.org/2000/svg" xmlns:xlink="http://www.w3.org/1999/xlink">
    <title>Logo Medium</title>
    <g id="Home" stroke="none" stroke-width="1" fill="none" fill-rule="evenodd">
        <g id="1.-HomePage---V2" transform="translate(-42.000000, -596.000000)">
            <rect fill="#F5F2EE" x="0" y="0" width="1024" height="4276"></rect>
            <g id="Header" transform="translate(0.000000, 581.000000)">
                <rect id="Rectangle-Copy-2" fill="#FFFFFF" x="0" y="0" width="1024" height="60"></rect>
                <g id="Combined-Shape" transform="translate(42.000000, 15.000000)" fill="#1D1D1B">
                    <path d="M38.5715992,0 C46.6636835,0 52.6997125,6.17186398 52.6997125,14.8708904 C52.6997125,23.6577536 46.8772173,30 38.4859742,30 C30.394947,30 24.3589181,23.828136 24.3589181,15.1291096 C24.3589181,6.34330464 30.2247542,0 38.5715992,0 Z M252.201146,9.97467193 C253.628228,9.97467193 254.883003,10.1471709 256.338627,10.1471709 L257.280501,10.1471709 L258.422167,13.9738959 L258.050068,13.9738959 L256.56696,12.6605757 C255.054253,11.3461973 253.999269,10.5747143 252.088036,10.5747143 C248.377623,10.5747143 246.12389,13.2034711 246.12389,19.4875123 C246.12389,25.7154649 248.291998,28.6574714 252.515104,28.6574714 C255.340726,28.6574714 257.280501,27.2859461 258.306943,25.5725977 L258.736125,25.8572739 C257.794251,27.6859743 255.426351,29.8575561 251.459063,29.8575561 C246.06575,29.8575561 242.471617,25.8869056 242.471617,20.1161281 C242.471617,14.0310428 246.580556,9.97467193 252.201146,9.97467193 Z M207.122052,0.429024975 L207.122052,0.771906307 L201.084966,3.98588966 L193.080621,11.5282207 L207.463495,29.442712 L207.463495,29.5718216 L201.170591,29.5718216 L188.841658,14.3146606 L200.314342,3.47156766 L200.314342,0.429024975 L207.122052,0.429024975 Z M150.054517,0.429024975 L151.895981,6.21461832 L151.338891,6.21461832 L145.559737,1.32855933 L137.896834,1.32855933 L137.896834,13.371737 L149.327233,13.371737 L149.327233,15.2575843 L137.896834,15.2575843 L137.896834,28.671229 L146.073486,28.671229 L152.495356,23.3142373 L153.051389,23.3142373 L150.782857,29.5718216 L131.347055,29.5718216 L131.347055,29.3569917 L132.84602,27.385424 L132.84602,2.61436433 L131.347055,0.64279667 L131.347055,0.429024975 L150.054517,0.429024975 Z M161.743482,0.429024975 L176.169697,25.328136 L176.169697,4.67165232 L174.243665,0.64279667 L174.243665,0.429024975 L179.16657,0.429024975 L179.16657,0.64279667 L177.197196,4.67165232 L177.197196,29.5718216 L172.702416,29.5718216 L157.547861,3.38584733 L157.163077,3.38584733 L157.163077,25.328136 L159.08911,29.3569917 L159.08911,29.5718216 L154.166205,29.5718216 L154.166205,29.3569917 L156.134521,25.328136 L156.134521,3.21440666 L154.08058,0.64279667 L154.08058,0.429024975 L161.743482,0.429024975 Z M61.6920214,0.429448286 L61.6920214,0.64321998 L60.1930565,2.61478764 L60.1930565,28.6716523 L68.5832425,28.6716523 L75.0484532,23.185551 L75.6044867,23.185551 L73.3359546,29.5711867 L53.6443351,29.5711867 L53.6443351,29.357415 L55.1422428,27.3858473 L55.1422428,2.61478764 L53.6443351,0.64321998 L53.6443351,0.429448286 L61.6920214,0.429448286 Z M99.2800967,0.429024975 L99.2800967,0.814237336 L81.7703272,28.671229 L92.6013522,28.671229 L99.1511307,23.228517 L99.7071642,23.228517 L97.3530072,29.5718216 L75.5207645,29.5718216 L75.5207645,29.185551 L93.0728179,1.32855933 L82.2417929,1.32855933 L76.4192977,6.30033865 L75.8622071,6.30033865 L77.6613877,0.429024975 L99.2800967,0.429024975 Z M296.326632,10.1465359 L296.326632,10.2894031 L295.328731,11.6037816 L295.328731,28.1149993 L296.326632,29.4283195 L296.326632,29.5711867 L290.962917,29.5711867 L290.962917,29.4283195 L291.960817,28.1149993 L291.960817,11.6037816 L290.962917,10.2894031 L290.962917,10.1465359 L296.326632,10.1465359 Z M307.428062,10.1464301 L314.218859,27.9434528 L315.360525,29.4292719 L315.360525,29.5710809 L310.338253,29.5710809 L310.338253,29.4292719 L310.710351,28.1434669 L308.826603,23.2298928 L300.865598,23.2298928 L299.4956,26.9148088 L300.351849,29.4292719 L300.351849,29.5710809 L297.099159,29.5710809 L297.099159,29.4292719 L298.839142,26.8290885 L304.432247,11.9179836 L303.775789,10.1464301 L307.428062,10.1464301 Z M277.918223,10.1467476 L277.918223,10.2896148 L277.575723,11.5754198 L283.054662,27.8855651 L287.79046,12.8030196 L286.991294,10.2896148 L286.991294,10.1467476 L290.2165,10.1467476 L290.2165,10.2896148 L288.476517,12.8887399 L283.225912,29.5713983 L280.086331,29.5713983 L274.0947,11.8029491 L272.92555,10.2896148 L272.92555,10.1467476 L277.918223,10.1467476 Z M109.684688,0.429024975 L109.684688,0.64279667 L108.185724,2.61436433 L108.185724,13.8426697 L121.542155,13.8426697 L121.542155,2.61436433 L120.044248,0.64279667 L120.044248,0.429024975 L128.091934,0.429024975 L128.091934,0.64279667 L126.594026,2.61436433 L126.594026,27.385424 L128.091934,29.3569917 L128.091934,29.5718216 L120.044248,29.5718216 L120.044248,29.3569917 L121.542155,27.385424 L121.542155,14.7855933 L108.185724,14.7855933 L108.185724,27.385424 L109.684688,29.3569917 L109.684688,29.5718216 L101.637002,29.5718216 L101.637002,29.3569917 L103.13491,27.385424 L103.13491,2.61436433 L101.637002,0.64279667 L101.637002,0.429024975 L109.684688,0.429024975 Z M268.612696,10.1464301 L275.403493,27.9434528 L276.545159,29.4292719 L276.545159,29.5710809 L271.522887,29.5710809 L271.522887,29.4292719 L271.894985,28.1434669 L270.011237,23.2298928 L262.050232,23.2298928 L260.680234,26.9148088 L261.536483,29.4292719 L261.536483,29.5710809 L258.283793,29.5710809 L258.283793,29.4292719 L260.023776,26.8290885 L265.616881,11.9179836 L264.960423,10.1464301 L268.612696,10.1464301 Z M189.869157,0.429024975 L189.869157,0.64279667 L188.370193,2.61436433 L188.370193,27.385424 L189.869157,29.3569917 L189.869157,29.5718216 L181.820414,29.5718216 L181.820414,29.3569917 L183.319379,27.385424 L183.319379,2.61436433 L181.820414,0.64279667 L181.820414,0.429024975 L189.869157,0.429024975 Z M7.49165274,0.429130803 L7.49165274,0.642902498 L6.97790316,2.57108085 L15.1968392,27.0437068 L22.3037084,4.41459715 L21.1049593,0.642902498 L21.1049593,0.429130803 L25.9422393,0.429130803 L25.9422393,0.642902498 L23.3312075,4.54370679 L15.453714,29.5708692 L10.7454,29.5708692 L1.75583959,2.91502046 L1.13686838e-13,0.642902498 L1.13686838e-13,0.429130803 L7.49165274,0.429130803 Z M224.118917,0.42923663 L234.307227,27.1284747 L236.019726,29.3572033 L236.019726,29.570975 L228.485789,29.570975 L228.485789,29.3572033 L229.041822,27.429025 L226.2162,20.0570763 L214.273108,20.0570763 L212.217052,25.5855087 L213.501426,29.3572033 L213.501426,29.570975 L208.621862,29.570975 L208.621862,29.3572033 L211.233951,25.4574573 L219.62308,3.08656695 L218.638922,0.42923663 L224.118917,0.42923663 Z M324.496705,10.1463243 C328.548561,10.1463243 330.859377,12.060745 330.859377,14.9170312 C330.859377,17.430436 329.090852,19.3734302 326.009412,19.8306053 L333,29.4852547 L333,29.570975 L329.118337,29.570975 L322.185889,19.9448991 L320.673182,19.9448991 L320.673182,28.1147876 L321.671082,29.4291661 L321.671082,29.570975 L316.307367,29.570975 L316.307367,29.4291661 L317.305268,28.1147876 L317.305268,11.6035699 L316.307367,10.2891915 L316.307367,10.1463243 L324.496705,10.1463243 Z M38.5282582,0.942923663 C32.7068201,0.942923663 29.8822545,5.14321998 29.8822545,15 C29.8822545,24.814449 32.7068201,29.0570763 38.5282582,29.0570763 C44.3507533,29.0570763 47.176376,24.85678 47.176376,15 C47.176376,5.18660928 44.3507533,0.942923663 38.5282582,0.942923663 Z M265.987922,12.7180401 L262.506899,22.0012347 L269.55457,22.0012347 L265.987922,12.7180401 Z M304.803288,12.7180401 L301.322265,22.0012347 L308.369936,22.0012347 L304.803288,12.7180401 Z M323.811705,10.7463666 L320.673182,10.7463666 L320.673182,19.3162833 L323.925872,19.3162833 C326.15212,19.3162833 327.264187,17.8304642 327.264187,15.0598984 C327.264187,12.2036122 326.122521,10.7463666 323.811705,10.7463666 Z M220.180171,4.28559334 L214.95705,18.2146183 L225.5312,18.2146183 L220.180171,4.28559334 Z"></path>
                </g>
            </g>
        </g>
    </g>
</svg>