<svg 
 xmlns="http://www.w3.org/2000/svg"
 xmlns:xlink="http://www.w3.org/1999/xlink"
 width="0.597in" height="0.486in">
<path fill-rule="evenodd"  fill="rgb(250, 185, 109)"
 d="M34.020,26.011 L13.980,26.011 C13.970,26.011 13.961,26.011 13.952,26.011 C13.412,26.003 12.980,25.574 12.987,25.052 C12.995,24.530 13.460,23.993 14.000,24.000 C12.369,22.245 11.000,19.539 11.000,17.000 C11.000,14.461 12.308,10.645 13.939,8.890 L8.964,8.890 L8.964,25.060 C8.964,25.069 8.964,25.078 8.964,25.087 C8.957,25.609 8.512,26.026 7.972,26.019 C7.432,26.011 7.000,25.582 7.007,25.060 L7.007,7.946 C7.006,7.451 7.399,7.039 7.909,7.000 C7.935,6.999 7.960,6.999 7.986,7.000 L34.020,7.000 C34.050,6.999 34.081,6.999 34.111,7.000 C34.615,7.046 35.000,7.456 34.998,7.946 L34.998,25.066 C34.998,25.588 34.560,26.011 34.020,26.011 ZM17.000,9.000 C14.822,10.449 13.000,13.248 13.000,16.000 C13.000,18.752 14.822,22.550 17.000,24.000 L25.000,24.000 C27.178,22.550 29.000,19.752 29.000,17.000 C29.000,14.248 27.178,10.449 25.000,9.000 L17.000,9.000 ZM33.000,9.000 L28.000,9.000 C29.631,10.754 31.000,14.461 31.000,17.000 C31.000,19.539 29.631,22.245 28.000,24.000 L33.000,24.000 L33.000,9.000 ZM20.082,15.039 C20.145,15.114 20.274,15.222 20.441,15.304 C20.775,15.469 21.143,15.538 21.143,15.538 C21.143,15.538 21.774,15.616 22.439,15.944 C22.772,16.108 23.143,16.341 23.454,16.709 C23.765,17.076 24.001,17.606 24.001,18.192 C24.001,18.960 23.547,19.706 22.954,20.065 C22.654,20.247 22.335,20.356 22.002,20.424 L22.002,21.017 C22.002,21.026 22.002,21.036 22.002,21.045 C21.994,21.597 21.541,22.038 20.989,22.030 C20.437,22.022 19.996,21.569 20.003,21.017 L20.003,20.424 C19.083,20.245 18.489,19.877 18.489,19.877 C18.015,19.593 17.861,18.978 18.146,18.504 C18.430,18.030 19.045,17.876 19.519,18.160 C19.519,18.160 20.104,18.519 21.003,18.519 C21.460,18.519 21.789,18.420 21.908,18.348 C22.028,18.275 22.002,18.344 22.002,18.192 C22.002,18.090 21.988,18.080 21.924,18.004 C21.860,17.929 21.732,17.822 21.565,17.739 C21.230,17.574 20.862,17.505 20.862,17.505 C20.862,17.505 20.231,17.427 19.566,17.099 C19.234,16.935 18.862,16.702 18.551,16.334 C18.241,15.967 18.005,15.437 18.005,14.851 C18.005,14.084 18.459,13.337 19.051,12.978 C19.352,12.796 19.671,12.687 20.003,12.619 L20.003,12.026 C19.992,11.509 20.379,11.068 20.893,11.012 C20.925,11.010 20.956,11.010 20.987,11.012 C20.997,11.012 21.008,11.012 21.018,11.012 C21.570,11.020 22.011,11.475 22.002,12.026 L22.002,12.619 C22.923,12.799 23.517,13.166 23.517,13.166 C23.991,13.450 24.145,14.065 23.860,14.539 C23.576,15.014 22.960,15.167 22.486,14.883 C22.486,14.883 21.901,14.524 21.003,14.524 C20.546,14.524 20.217,14.623 20.097,14.695 C19.977,14.768 20.003,14.699 20.003,14.851 C20.003,14.954 20.018,14.963 20.082,15.039 Z"/>
</svg>