<svg 
 xmlns="http://www.w3.org/2000/svg"
 xmlns:xlink="http://www.w3.org/1999/xlink"
 width="0.583in" height="0.472in">
<path fill-rule="evenodd"  fill="rgb(253, 189, 107)"
 d="M31.105,26.007 L9.889,26.007 C8.303,26.007 6.996,24.719 6.996,23.156 L6.996,19.973 C6.996,20.019 6.996,19.771 6.996,19.355 C6.996,17.871 6.996,14.202 6.996,13.654 L6.996,13.587 L6.996,9.852 C6.996,8.290 8.303,7.002 9.889,7.002 L31.105,7.002 C32.691,7.002 33.998,8.290 33.998,9.852 L33.998,13.654 C33.998,15.802 33.998,18.474 33.998,19.355 L33.998,19.655 L33.998,23.156 C33.998,24.719 32.691,26.007 31.105,26.007 ZM32.000,10.000 C32.000,9.457 31.551,9.000 31.000,9.000 L10.000,9.000 C9.449,9.000 9.000,9.457 9.000,10.000 L9.000,23.000 C9.000,23.543 9.449,24.000 10.000,24.000 L31.000,24.000 C31.551,24.000 32.069,23.699 32.069,23.156 L32.000,10.000 ZM24.354,22.206 C22.768,22.206 21.461,20.918 21.461,19.355 C21.461,17.792 22.768,16.504 24.354,16.504 C25.941,16.504 27.247,17.792 27.247,19.355 C27.247,20.918 25.941,22.206 24.354,22.206 ZM24.354,18.405 C23.810,18.405 23.390,18.819 23.390,19.355 C23.390,19.891 23.810,20.306 24.354,20.306 C24.898,20.306 25.319,19.891 25.319,19.355 C25.319,18.819 24.898,18.405 24.354,18.405 ZM16.357,21.928 C16.348,21.937 16.339,21.945 16.330,21.954 C15.946,22.318 15.336,22.306 14.966,21.928 C14.597,21.549 14.609,20.947 14.993,20.584 L24.637,11.081 C24.812,10.904 25.049,10.801 25.300,10.793 C25.570,10.786 25.832,10.890 26.020,11.081 C26.391,11.458 26.383,12.059 26.001,12.425 L16.357,21.928 ZM16.640,16.506 C15.053,16.506 13.747,15.218 13.747,13.655 C13.747,12.092 15.053,10.804 16.640,10.804 C18.226,10.804 19.533,12.092 19.533,13.655 C19.533,15.218 18.226,16.506 16.640,16.506 ZM16.640,12.705 C16.096,12.705 15.675,13.119 15.675,13.655 C15.675,14.191 16.096,14.605 16.640,14.605 C17.184,14.605 17.604,14.191 17.604,13.655 C17.604,13.119 17.184,12.705 16.640,12.705 Z"/>
</svg>