<svg 
 xmlns="http://www.w3.org/2000/svg"
 xmlns:xlink="http://www.w3.org/1999/xlink"
 width="25px" height="20px">
<path fill-rule="evenodd"  fill="rgb(144, 249, 194)"
 d="M31.156,26.235 C30.456,26.899 29.548,26.998 29.070,26.998 C28.967,26.998 28.886,26.993 28.834,26.989 L9.782,26.989 C8.752,26.989 8.130,26.546 7.787,26.174 C6.981,25.301 6.992,24.082 6.996,23.946 L6.995,9.938 C6.995,8.318 8.246,7.001 9.782,7.001 L24.475,7.001 C26.012,7.001 27.263,8.318 27.263,9.938 L27.263,11.623 L29.212,11.623 C31.186,11.623 31.960,13.359 31.999,14.525 L32.000,24.053 C32.000,25.196 31.541,25.870 31.156,26.235 ZM30.070,14.584 C30.049,14.241 29.910,13.657 29.212,13.657 L13.707,13.657 C13.175,13.657 12.742,13.201 12.742,12.640 C12.742,12.080 13.175,11.624 13.707,11.624 L25.333,11.624 L25.333,9.938 C25.333,9.440 24.948,9.034 24.475,9.034 L9.782,9.034 C9.310,9.034 8.925,9.440 8.925,9.938 L8.925,23.979 C8.924,24.157 8.974,24.549 9.174,24.761 C9.219,24.809 9.358,24.956 9.771,24.956 L28.877,24.956 C28.911,24.956 28.945,24.958 28.979,24.961 C29.101,24.974 29.613,24.967 29.869,24.720 C29.919,24.672 30.070,24.527 30.070,24.054 L30.070,14.584 ZM25.218,21.225 C24.097,21.225 23.185,20.264 23.185,19.082 C23.185,17.901 24.097,16.940 25.218,16.940 C26.339,16.940 27.251,17.901 27.251,19.082 C27.251,20.264 26.339,21.225 25.218,21.225 Z"/>
</svg>