<svg id="Icon" xmlns="http://www.w3.org/2000/svg" width="60" height="60" viewBox="0 0 60 60">
  <defs>
    <style>
      .cls-1 {
        fill: #8d4dcb;
        fill-opacity: 0.9;
      }

      .cls-1, .cls-2 {
        fill-rule: evenodd;
      }

      .cls-2 {
        fill: #bd7afe;
      }
    </style>
  </defs>
  <path class="cls-1" d="M10.491,29.067a13.166,13.166,0,0,1-4.2-9.637,12.876,12.876,0,0,1,22.386-8.863l-1.4,1.309A10.974,10.974,0,0,0,8.2,19.431a11.224,11.224,0,0,0,3.576,8.214Zm0.183,7.778a19.337,19.337,0,0,1-7.709-7.036A19.543,19.543,0,0,1,0,19.431,19.339,19.339,0,0,1,19.2,0,19.094,19.094,0,0,1,36.369,10.714l-1.7.867A17.2,17.2,0,0,0,19.2,1.929a17.541,17.541,0,0,0-7.68,33.188ZM22.513,4.978H15.891a2.537,2.537,0,0,1-2.519-2.549v-0.8h1.906v0.8a0.617,0.617,0,0,0,.612.62h6.622a0.617,0.617,0,0,0,.613-0.62v-0.8h1.907v0.8A2.537,2.537,0,0,1,22.513,4.978ZM2.775,17.07a2.48,2.48,0,0,1-1.163-.29l-0.7-.37L1.8,14.7l0.7,0.37a0.61,0.61,0,0,0,.827-0.262L6.39,8.871a0.624,0.624,0,0,0-.259-0.837l-0.7-.37,0.883-1.71,0.7,0.37A2.567,2.567,0,0,1,8.08,9.765L5.011,15.7A2.518,2.518,0,0,1,2.775,17.07Zm28.339-5.779L30.325,9.765a2.56,2.56,0,0,1-.172-1.943,2.525,2.525,0,0,1,1.237-1.5l0.7-.37,0.883,1.71-0.7.37a0.624,0.624,0,0,0-.259.836L32.8,10.4ZM6.316,32.906L5.433,31.2l0.7-.37a0.624,0.624,0,0,0,.259-0.836L3.322,24.053A0.609,0.609,0,0,0,2.5,23.791l-0.7.37L0.913,22.451l0.7-.37a2.507,2.507,0,0,1,3.4,1.078L8.08,29.1a2.567,2.567,0,0,1-1.065,3.44Zm5.758-26.4a0.815,0.815,0,1,0-.815.825A0.82,0.82,0,0,0,12.075,6.511Zm0,25.76a0.815,0.815,0,1,0-.815.825A0.82,0.82,0,0,0,12.075,32.27ZM27.982,6.511a0.815,0.815,0,1,0-.815.825A0.82,0.82,0,0,0,27.982,6.511ZM4.87,19.3a0.815,0.815,0,1,0-.815.825A0.82,0.82,0,0,0,4.87,19.3Z"/>
  <path class="cls-2" d="M31.158,52.223a16.833,16.833,0,0,1-10.2-21.367,16.588,16.588,0,0,1,21.15-10.317,16.833,16.833,0,0,1,10.2,21.367A16.587,16.587,0,0,1,31.158,52.223ZM41.346,22.752a14.269,14.269,0,0,0-18.194,8.876,14.48,14.48,0,0,0,8.771,18.381,14.269,14.269,0,0,0,18.194-8.875A14.48,14.48,0,0,0,41.346,22.752ZM28.925,58.68A23.694,23.694,0,0,1,14.573,28.6,23.349,23.349,0,0,1,44.344,14.08,23.694,23.694,0,0,1,58.7,44.157,23.349,23.349,0,0,1,28.925,58.68ZM43.578,16.294A21.031,21.031,0,0,0,16.763,29.375,21.342,21.342,0,0,0,29.691,56.466,21.031,21.031,0,0,0,56.506,43.385,21.342,21.342,0,0,0,43.578,16.294ZM30.4,57.958l-2.19-.772,2.232-6.457,2.19,0.772ZM42.824,22.03l-2.19-.772L42.866,14.8l2.19,0.772ZM57.218,44.878L50.83,42.626,51.6,40.412l6.388,2.252ZM21.674,32.348L15.286,30.1l0.765-2.214,6.388,2.252ZM45.234,57.1L42.3,50.943l2.09-1.019,2.938,6.158ZM28.884,22.836l-2.938-6.158,2.09-1.019,2.938,6.158ZM17.133,47.195l-1.008-2.111,6.1-2.974,1.008,2.111ZM51.049,30.65l-1.007-2.112,6.1-2.973,1.007,2.112Z"/>
</svg>
