<svg xmlns="http://www.w3.org/2000/svg" width="31" height="31" viewBox="0 0 31 31"><g><g><path fill="#fff" d="M28.168 26.786h-7.244c-.63 2.425-2.817 4.23-5.434 4.23-2.618 0-4.805-1.804-5.435-4.23H2.81a2.821 2.821 0 0 1-2.817-2.82v-.826c0-.753.293-1.46.825-1.994l1.753-1.753c.213-.214.35-.485.396-.784L4.543 8.367a9.81 9.81 0 0 1 9.746-8.369h2.401a9.81 9.81 0 0 1 9.747 8.369L28.01 18.61c.046.298.183.568.396.782l1.753 1.755c.532.532.825 1.24.825 1.993v.826a2.821 2.821 0 0 1-2.817 2.82zm-12.678 1.41a2.808 2.808 0 0 0 2.425-1.41h-4.851a2.808 2.808 0 0 0 2.426 1.41zm12.678-5.056l-1.753-1.755a4.205 4.205 0 0 1-1.188-2.346L23.652 8.795a7.006 7.006 0 0 0-6.962-5.977H14.29a7.007 7.007 0 0 0-6.962 5.978L5.752 19.038a4.202 4.202 0 0 1-1.188 2.348L2.81 23.14v.826H28.17z"/></g></g></svg>