<svg xmlns="http://www.w3.org/2000/svg" width="39" height="42" viewBox="0 0 39 42"><defs><mask id="c1f2b" width="2" height="2" x="-1" y="-1"><path fill="#fff" d="M5 6h29v30H5z"/><path d="M19.498 25.099c-2.329 0-4.223-1.836-4.223-4.093 0-2.257 1.894-4.094 4.223-4.094 2.33 0 4.223 1.837 4.223 4.094 0 2.257-1.894 4.093-4.223 4.093zm0-5.458c-.777 0-1.408.612-1.408 1.365 0 .752.631 1.364 1.408 1.364.777 0 1.408-.612 1.408-1.364 0-.753-.631-1.365-1.408-1.365zm1.408 16.373H18.09c-1.552 0-2.815-1.224-2.815-2.729v-.463c0-.986-.527-1.87-1.408-2.363a2.865 2.865 0 0 0-2.816 0l-.413.23c-1.338.753-3.068.308-3.847-.996l-1.408-2.365a2.642 2.642 0 0 1-.282-2.07 2.723 2.723 0 0 1 1.314-1.657l.413-.232c.881-.493 1.408-1.377 1.408-2.363 0-.987-.527-1.87-1.408-2.363l-.414-.233a2.723 2.723 0 0 1-1.313-1.657 2.645 2.645 0 0 1 .282-2.07l1.408-2.363c.778-1.302 2.5-1.753 3.847-.998l.413.232c.88.49 1.93.492 2.816-.001.881-.494 1.408-1.377 1.408-2.363v-.464c0-1.505 1.263-2.729 2.815-2.729h2.816c1.552 0 2.815 1.224 2.815 2.73v.463c0 .986.527 1.87 1.408 2.363a2.864 2.864 0 0 0 2.816 0l.414-.231c1.337-.753 3.067-.308 3.846.997l1.408 2.364c.376.63.476 1.366.282 2.07a2.722 2.722 0 0 1-1.314 1.658l-.413.23c-.88.495-1.407 1.378-1.407 2.365 0 .986.526 1.87 1.407 2.363l.414.232a2.722 2.722 0 0 1 1.313 1.657c.194.704.094 1.44-.282 2.07l-1.408 2.364c-.778 1.302-2.499 1.754-3.846.998l-.414-.232a2.864 2.864 0 0 0-2.816 0c-.88.494-1.408 1.378-1.408 2.364v.463c0 1.505-1.263 2.73-2.815 2.73zm-8.447-8.659c.968 0 1.934.248 2.816.74 1.762.987 2.815 2.754 2.815 4.727v.463h2.816v-.463c0-1.973 1.053-3.74 2.815-4.727a5.73 5.73 0 0 1 5.632 0l.413.232 1.408-2.363-.413-.232c-1.763-.986-2.816-2.753-2.816-4.726 0-1.974 1.053-3.74 2.816-4.727l.413-.231-1.408-2.364-.413.232a5.73 5.73 0 0 1-5.632 0c-1.762-.987-2.815-2.754-2.815-4.726v-.464H18.09v.464c0 1.972-1.053 3.74-2.815 4.726a5.73 5.73 0 0 1-5.631 0l-.414-.232-1.408 2.364.414.231c1.762.987 2.815 2.753 2.815 4.727 0 1.973-1.053 3.74-2.815 4.727l-.414.23 1.408 2.364.414-.232a5.762 5.762 0 0 1 2.815-.74z"/></mask><filter id="c1f2a" width="65" height="66" x="-13" y="-12" filterUnits="userSpaceOnUse"><feOffset in="SourceGraphic" result="FeOffset1059Out"/><feGaussianBlur in="FeOffset1059Out" result="FeGaussianBlur1060Out" stdDeviation="3.2 3.2"/></filter></defs><g><g><g filter="url(#c1f2a)"><path fill="none" d="M19.498 25.099c-2.329 0-4.223-1.836-4.223-4.093 0-2.257 1.894-4.094 4.223-4.094 2.33 0 4.223 1.837 4.223 4.094 0 2.257-1.894 4.093-4.223 4.093zm0-5.458c-.777 0-1.408.612-1.408 1.365 0 .752.631 1.364 1.408 1.364.777 0 1.408-.612 1.408-1.364 0-.753-.631-1.365-1.408-1.365zm1.408 16.373H18.09c-1.552 0-2.815-1.224-2.815-2.729v-.463c0-.986-.527-1.87-1.408-2.363a2.865 2.865 0 0 0-2.816 0l-.413.23c-1.338.753-3.068.308-3.847-.996l-1.408-2.365a2.642 2.642 0 0 1-.282-2.07 2.723 2.723 0 0 1 1.314-1.657l.413-.232c.881-.493 1.408-1.377 1.408-2.363 0-.987-.527-1.87-1.408-2.363l-.414-.233a2.723 2.723 0 0 1-1.313-1.657 2.645 2.645 0 0 1 .282-2.07l1.408-2.363c.778-1.302 2.5-1.753 3.847-.998l.413.232c.88.49 1.93.492 2.816-.001.881-.494 1.408-1.377 1.408-2.363v-.464c0-1.505 1.263-2.729 2.815-2.729h2.816c1.552 0 2.815 1.224 2.815 2.73v.463c0 .986.527 1.87 1.408 2.363a2.864 2.864 0 0 0 2.816 0l.414-.231c1.337-.753 3.067-.308 3.846.997l1.408 2.364c.376.63.476 1.366.282 2.07a2.722 2.722 0 0 1-1.314 1.658l-.413.23c-.88.495-1.407 1.378-1.407 2.365 0 .986.526 1.87 1.407 2.363l.414.232a2.722 2.722 0 0 1 1.313 1.657c.194.704.094 1.44-.282 2.07l-1.408 2.364c-.778 1.302-2.499 1.754-3.846.998l-.414-.232a2.864 2.864 0 0 0-2.816 0c-.88.494-1.408 1.378-1.408 2.364v.463c0 1.505-1.263 2.73-2.815 2.73zm-8.447-8.659c.968 0 1.934.248 2.816.74 1.762.987 2.815 2.754 2.815 4.727v.463h2.816v-.463c0-1.973 1.053-3.74 2.815-4.727a5.73 5.73 0 0 1 5.632 0l.413.232 1.408-2.363-.413-.232c-1.763-.986-2.816-2.753-2.816-4.726 0-1.974 1.053-3.74 2.816-4.727l.413-.231-1.408-2.364-.413.232a5.73 5.73 0 0 1-5.632 0c-1.762-.987-2.815-2.754-2.815-4.726v-.464H18.09v.464c0 1.972-1.053 3.74-2.815 4.726a5.73 5.73 0 0 1-5.631 0l-.414-.232-1.408 2.364.414.231c1.762.987 2.815 2.753 2.815 4.727 0 1.973-1.053 3.74-2.815 4.727l-.414.23 1.408 2.364.414-.232a5.762 5.762 0 0 1 2.815-.74z" mask="url(&quot;#c1f2b&quot;)"/><path fill="#ff74cc" fill-opacity=".18" d="M19.498 25.099c-2.329 0-4.223-1.836-4.223-4.093 0-2.257 1.894-4.094 4.223-4.094 2.33 0 4.223 1.837 4.223 4.094 0 2.257-1.894 4.093-4.223 4.093zm0-5.458c-.777 0-1.408.612-1.408 1.365 0 .752.631 1.364 1.408 1.364.777 0 1.408-.612 1.408-1.364 0-.753-.631-1.365-1.408-1.365zm1.408 16.373H18.09c-1.552 0-2.815-1.224-2.815-2.729v-.463c0-.986-.527-1.87-1.408-2.363a2.865 2.865 0 0 0-2.816 0l-.413.23c-1.338.753-3.068.308-3.847-.996l-1.408-2.365a2.642 2.642 0 0 1-.282-2.07 2.723 2.723 0 0 1 1.314-1.657l.413-.232c.881-.493 1.408-1.377 1.408-2.363 0-.987-.527-1.87-1.408-2.363l-.414-.233a2.723 2.723 0 0 1-1.313-1.657 2.645 2.645 0 0 1 .282-2.07l1.408-2.363c.778-1.302 2.5-1.753 3.847-.998l.413.232c.88.49 1.93.492 2.816-.001.881-.494 1.408-1.377 1.408-2.363v-.464c0-1.505 1.263-2.729 2.815-2.729h2.816c1.552 0 2.815 1.224 2.815 2.73v.463c0 .986.527 1.87 1.408 2.363a2.864 2.864 0 0 0 2.816 0l.414-.231c1.337-.753 3.067-.308 3.846.997l1.408 2.364c.376.63.476 1.366.282 2.07a2.722 2.722 0 0 1-1.314 1.658l-.413.23c-.88.495-1.407 1.378-1.407 2.365 0 .986.526 1.87 1.407 2.363l.414.232a2.722 2.722 0 0 1 1.313 1.657c.194.704.094 1.44-.282 2.07l-1.408 2.364c-.778 1.302-2.499 1.754-3.846.998l-.414-.232a2.864 2.864 0 0 0-2.816 0c-.88.494-1.408 1.378-1.408 2.364v.463c0 1.505-1.263 2.73-2.815 2.73zm-8.447-8.659c.968 0 1.934.248 2.816.74 1.762.987 2.815 2.754 2.815 4.727v.463h2.816v-.463c0-1.973 1.053-3.74 2.815-4.727a5.73 5.73 0 0 1 5.632 0l.413.232 1.408-2.363-.413-.232c-1.763-.986-2.816-2.753-2.816-4.726 0-1.974 1.053-3.74 2.816-4.727l.413-.231-1.408-2.364-.413.232a5.73 5.73 0 0 1-5.632 0c-1.762-.987-2.815-2.754-2.815-4.726v-.464H18.09v.464c0 1.972-1.053 3.74-2.815 4.726a5.73 5.73 0 0 1-5.631 0l-.414-.232-1.408 2.364.414.231c1.762.987 2.815 2.753 2.815 4.727 0 1.973-1.053 3.74-2.815 4.727l-.414.23 1.408 2.364.414-.232a5.762 5.762 0 0 1 2.815-.74z"/></g><g filter="url(#c1f2a)"><path fill="none" d="M19.498 25.099c-2.329 0-4.223-1.836-4.223-4.093 0-2.257 1.894-4.094 4.223-4.094 2.33 0 4.223 1.837 4.223 4.094 0 2.257-1.894 4.093-4.223 4.093zm0-5.458c-.777 0-1.408.612-1.408 1.365 0 .752.631 1.364 1.408 1.364.777 0 1.408-.612 1.408-1.364 0-.753-.631-1.365-1.408-1.365zm1.408 16.373H18.09c-1.552 0-2.815-1.224-2.815-2.729v-.463c0-.986-.527-1.87-1.408-2.363a2.865 2.865 0 0 0-2.816 0l-.413.23c-1.338.753-3.068.308-3.847-.996l-1.408-2.365a2.642 2.642 0 0 1-.282-2.07 2.723 2.723 0 0 1 1.314-1.657l.413-.232c.881-.493 1.408-1.377 1.408-2.363 0-.987-.527-1.87-1.408-2.363l-.414-.233a2.723 2.723 0 0 1-1.313-1.657 2.645 2.645 0 0 1 .282-2.07l1.408-2.363c.778-1.302 2.5-1.753 3.847-.998l.413.232c.88.49 1.93.492 2.816-.001.881-.494 1.408-1.377 1.408-2.363v-.464c0-1.505 1.263-2.729 2.815-2.729h2.816c1.552 0 2.815 1.224 2.815 2.73v.463c0 .986.527 1.87 1.408 2.363a2.864 2.864 0 0 0 2.816 0l.414-.231c1.337-.753 3.067-.308 3.846.997l1.408 2.364c.376.63.476 1.366.282 2.07a2.722 2.722 0 0 1-1.314 1.658l-.413.23c-.88.495-1.407 1.378-1.407 2.365 0 .986.526 1.87 1.407 2.363l.414.232a2.722 2.722 0 0 1 1.313 1.657c.194.704.094 1.44-.282 2.07l-1.408 2.364c-.778 1.302-2.499 1.754-3.846.998l-.414-.232a2.864 2.864 0 0 0-2.816 0c-.88.494-1.408 1.378-1.408 2.364v.463c0 1.505-1.263 2.73-2.815 2.73zm-8.447-8.659c.968 0 1.934.248 2.816.74 1.762.987 2.815 2.754 2.815 4.727v.463h2.816v-.463c0-1.973 1.053-3.74 2.815-4.727a5.73 5.73 0 0 1 5.632 0l.413.232 1.408-2.363-.413-.232c-1.763-.986-2.816-2.753-2.816-4.726 0-1.974 1.053-3.74 2.816-4.727l.413-.231-1.408-2.364-.413.232a5.73 5.73 0 0 1-5.632 0c-1.762-.987-2.815-2.754-2.815-4.726v-.464H18.09v.464c0 1.972-1.053 3.74-2.815 4.726a5.73 5.73 0 0 1-5.631 0l-.414-.232-1.408 2.364.414.231c1.762.987 2.815 2.753 2.815 4.727 0 1.973-1.053 3.74-2.815 4.727l-.414.23 1.408 2.364.414-.232a5.762 5.762 0 0 1 2.815-.74z" mask="url(&quot;#c1f2b&quot;)"/><path fill="#ff74cc" fill-opacity=".18" d="M19.498 25.099c-2.329 0-4.223-1.836-4.223-4.093 0-2.257 1.894-4.094 4.223-4.094 2.33 0 4.223 1.837 4.223 4.094 0 2.257-1.894 4.093-4.223 4.093zm0-5.458c-.777 0-1.408.612-1.408 1.365 0 .752.631 1.364 1.408 1.364.777 0 1.408-.612 1.408-1.364 0-.753-.631-1.365-1.408-1.365zm1.408 16.373H18.09c-1.552 0-2.815-1.224-2.815-2.729v-.463c0-.986-.527-1.87-1.408-2.363a2.865 2.865 0 0 0-2.816 0l-.413.23c-1.338.753-3.068.308-3.847-.996l-1.408-2.365a2.642 2.642 0 0 1-.282-2.07 2.723 2.723 0 0 1 1.314-1.657l.413-.232c.881-.493 1.408-1.377 1.408-2.363 0-.987-.527-1.87-1.408-2.363l-.414-.233a2.723 2.723 0 0 1-1.313-1.657 2.645 2.645 0 0 1 .282-2.07l1.408-2.363c.778-1.302 2.5-1.753 3.847-.998l.413.232c.88.49 1.93.492 2.816-.001.881-.494 1.408-1.377 1.408-2.363v-.464c0-1.505 1.263-2.729 2.815-2.729h2.816c1.552 0 2.815 1.224 2.815 2.73v.463c0 .986.527 1.87 1.408 2.363a2.864 2.864 0 0 0 2.816 0l.414-.231c1.337-.753 3.067-.308 3.846.997l1.408 2.364c.376.63.476 1.366.282 2.07a2.722 2.722 0 0 1-1.314 1.658l-.413.23c-.88.495-1.407 1.378-1.407 2.365 0 .986.526 1.87 1.407 2.363l.414.232a2.722 2.722 0 0 1 1.313 1.657c.194.704.094 1.44-.282 2.07l-1.408 2.364c-.778 1.302-2.499 1.754-3.846.998l-.414-.232a2.864 2.864 0 0 0-2.816 0c-.88.494-1.408 1.378-1.408 2.364v.463c0 1.505-1.263 2.73-2.815 2.73zm-8.447-8.659c.968 0 1.934.248 2.816.74 1.762.987 2.815 2.754 2.815 4.727v.463h2.816v-.463c0-1.973 1.053-3.74 2.815-4.727a5.73 5.73 0 0 1 5.632 0l.413.232 1.408-2.363-.413-.232c-1.763-.986-2.816-2.753-2.816-4.726 0-1.974 1.053-3.74 2.816-4.727l.413-.231-1.408-2.364-.413.232a5.73 5.73 0 0 1-5.632 0c-1.762-.987-2.815-2.754-2.815-4.726v-.464H18.09v.464c0 1.972-1.053 3.74-2.815 4.726a5.73 5.73 0 0 1-5.631 0l-.414-.232-1.408 2.364.414.231c1.762.987 2.815 2.753 2.815 4.727 0 1.973-1.053 3.74-2.815 4.727l-.414.23 1.408 2.364.414-.232a5.762 5.762 0 0 1 2.815-.74z"/></g><path fill="#fff" d="M19.498 25.099c-2.329 0-4.223-1.836-4.223-4.093 0-2.257 1.894-4.094 4.223-4.094 2.33 0 4.223 1.837 4.223 4.094 0 2.257-1.894 4.093-4.223 4.093zm0-5.458c-.777 0-1.408.612-1.408 1.365 0 .752.631 1.364 1.408 1.364.777 0 1.408-.612 1.408-1.364 0-.753-.631-1.365-1.408-1.365zm1.408 16.373H18.09c-1.552 0-2.815-1.224-2.815-2.729v-.463c0-.986-.527-1.87-1.408-2.363a2.865 2.865 0 0 0-2.816 0l-.413.23c-1.338.753-3.068.308-3.847-.996l-1.408-2.365a2.642 2.642 0 0 1-.282-2.07 2.723 2.723 0 0 1 1.314-1.657l.413-.232c.881-.493 1.408-1.377 1.408-2.363 0-.987-.527-1.87-1.408-2.363l-.414-.233a2.723 2.723 0 0 1-1.313-1.657 2.645 2.645 0 0 1 .282-2.07l1.408-2.363c.778-1.302 2.5-1.753 3.847-.998l.413.232c.88.49 1.93.492 2.816-.001.881-.494 1.408-1.377 1.408-2.363v-.464c0-1.505 1.263-2.729 2.815-2.729h2.816c1.552 0 2.815 1.224 2.815 2.73v.463c0 .986.527 1.87 1.408 2.363a2.864 2.864 0 0 0 2.816 0l.414-.231c1.337-.753 3.067-.308 3.846.997l1.408 2.364c.376.63.476 1.366.282 2.07a2.722 2.722 0 0 1-1.314 1.658l-.413.23c-.88.495-1.407 1.378-1.407 2.365 0 .986.526 1.87 1.407 2.363l.414.232a2.722 2.722 0 0 1 1.313 1.657c.194.704.094 1.44-.282 2.07l-1.408 2.364c-.778 1.302-2.499 1.754-3.846.998l-.414-.232a2.864 2.864 0 0 0-2.816 0c-.88.494-1.408 1.378-1.408 2.364v.463c0 1.505-1.263 2.73-2.815 2.73zm-8.447-8.659c.968 0 1.934.248 2.816.74 1.762.987 2.815 2.754 2.815 4.727v.463h2.816v-.463c0-1.973 1.053-3.74 2.815-4.727a5.73 5.73 0 0 1 5.632 0l.413.232 1.408-2.363-.413-.232c-1.763-.986-2.816-2.753-2.816-4.726 0-1.974 1.053-3.74 2.816-4.727l.413-.231-1.408-2.364-.413.232a5.73 5.73 0 0 1-5.632 0c-1.762-.987-2.815-2.754-2.815-4.726v-.464H18.09v.464c0 1.972-1.053 3.74-2.815 4.726a5.73 5.73 0 0 1-5.631 0l-.414-.232-1.408 2.364.414.231c1.762.987 2.815 2.753 2.815 4.727 0 1.973-1.053 3.74-2.815 4.727l-.414.23 1.408 2.364.414-.232a5.762 5.762 0 0 1 2.815-.74z"/></g></g></svg>