<svg id="Aliexpress_logo" xmlns="http://www.w3.org/2000/svg" viewBox="0 0 186.931 44.058">
  <defs>
    <style>
      .cls-1 {
        fill: #e33225;
      }

      .cls-2 {
        fill: #f6961d;
      }

      .cls-3 {
        fill: #e33326;
      }

      .cls-4 {
        fill: #fcfcfc;
      }

      .cls-5 {
        fill: #e43528;
      }
    </style>
  </defs>
  <g id="g3811" transform="translate(0)">
    <path id="Subtraction_2" data-name="Subtraction 2" class="cls-1" d="M3.368,32.553H.281c-.138,0-.281,0-.281-.281V10.1A14.2,14.2,0,0,1,.842,6.595,10.693,10.693,0,0,1,2.526,3.929a6.081,6.081,0,0,0,.422-.492,6.113,6.113,0,0,1,.42-.49A11.043,11.043,0,0,1,9.121.14a1.817,1.817,0,0,0,.391-.06A2.567,2.567,0,0,1,10.1,0h1.824a11.417,11.417,0,0,1,6.84,3.14,10.927,10.927,0,0,1,3.262,6.823,1.982,1.982,0,0,1-.041.393c-.026.14-.042.225.041.308v1.543A11.031,11.031,0,0,1,19.644,18.1a9.949,9.949,0,0,1-3.227,2.666,13.925,13.925,0,0,1-4.069,1.4H10.524A10.393,10.393,0,0,1,3.788,18.8v13.33C3.788,32.412,3.788,32.553,3.368,32.553ZM11.023,3.545A7.294,7.294,0,0,0,5.332,6.174a7.794,7.794,0,0,0-1.4,6.735,7.312,7.312,0,0,0,7.139,5.742,6.64,6.64,0,0,0,3.244-.831c2.717-1.43,3.929-3.767,3.929-7.577,0-1.4-.968-3.338-2.526-5.051A7.416,7.416,0,0,0,11.023,3.545Z" transform="translate(88.818 11.505)"/>
    <path id="path3703" class="cls-1" d="M33.456,83.983H45.1a.372.372,0,0,1,.421.421V87.21c0,.281,0,.421-.421.421H33.456v9.12H47.627c.281,0,.281.14.281.281v3.508c-.14.14-.14,0-.281,0h-18.1V71.355c.14-.14.14,0,.281,0H46.786v3.508c0,.281,0,.281-.281.281H33.316V83.7c0,.14,0,.14.14.281Z" transform="translate(16.916 -67.286)"/>
    <path id="Subtraction_1" data-name="Subtraction 1" class="cls-2" d="M25.958,29.243H22.731c-.14,0-.14,0-.281-.14-.14-.491-.319-.954-.491-1.4s-.351-.913-.491-1.4c-.14-.421-.319-.849-.491-1.262s-.351-.842-.492-1.264a4.931,4.931,0,0,0-.221-.52,4.732,4.732,0,0,1-.34-.883c-.14-.281-.14-.281-.421-.281H6.595c-.138,0-.281,0-.281.281C5.891,23.5,5.462,24.6,5.047,25.676l-.006.015c-.411,1.061-.835,2.158-1.253,3.272v.14c0,.14-.143.14-.281.14H.281c-.14,0-.14,0-.281-.14.21-.561.424-1.167.631-1.753s.421-1.193.632-1.755v0a25.437,25.437,0,0,0,1.121-2.943c.211-.491.389-.991.561-1.473s.351-.982.561-1.473l0-.007a25.327,25.327,0,0,0,1.12-2.939c.211-.491.389-.99.561-1.473s.351-.982.561-1.473v0a25.452,25.452,0,0,0,1.121-2.943c.14-.42.318-.848.49-1.261s.351-.843.492-1.264.319-.85.492-1.264.351-.841.491-1.261.318-.849.491-1.262.351-.843.491-1.264.319-.849.491-1.263.351-.841.491-1.263A1.073,1.073,0,0,1,11.085.2h3.648c.082-.041.153-.083.21-.116A.513.513,0,0,1,15.118,0c.025,0,.036.018.036.058l.007.017c.826,2.2,1.679,4.478,2.519,6.577l2.526,6.735,0,.007c.827,2.068,1.682,4.205,2.383,6.448.218.561.437,1.116.648,1.653.772,1.962,1.5,3.815,2.158,5.784a7.069,7.069,0,0,1,.35.911,7.049,7.049,0,0,0,.351.913A.138.138,0,0,1,25.958,29.243ZM13.189,4.548h0c0,.14,0,.14-.14.28-.837,2.163-1.688,4.4-2.511,6.558l-.006.015,0,.009C9.7,13.588,8.841,15.839,8,18.018c-.057.114-.072.19-.045.232s.109.048.186.048H18.1c.137,0,.206,0,.226-.032s-.015-.106-.086-.248c-.434-1.14-.852-2.271-1.256-3.364l0-.006v0c-.659-1.783-1.281-3.467-1.968-5.185-.147-.4-.29-.807-.442-1.235v0C14.147,7.027,13.708,5.792,13.189,4.548Z" transform="translate(0 4.011)"/>
    <path id="Subtraction_3" data-name="Subtraction 3" class="cls-1" d="M12.628,21.889H9.682A10.567,10.567,0,0,1,4.21,19.644,10.334,10.334,0,0,1,1.4,16.416,10.464,10.464,0,0,1,.14,12.909a1.263,1.263,0,0,0-.14-.7V9.682A10.889,10.889,0,0,1,1.123,5.893,12,12,0,0,1,3.087,3.227a9.245,9.245,0,0,1,3.087-2.1A10.251,10.251,0,0,1,9.541.14.844.844,0,0,0,10.1,0h1.123A.237.237,0,0,0,11.4.062a1.045,1.045,0,0,0,.226-.036A.79.79,0,0,1,11.786,0h.562a10.233,10.233,0,0,1,4.91,2.105,9.275,9.275,0,0,1,3.508,7.016v3.227c0,.28-.143.28-.281.28H4.21c-.281,0-.281.143-.281.281a7.528,7.528,0,0,0,7.266,5.478c.1,0,.208,0,.311-.006A7.789,7.789,0,0,0,16.557,16c.07-.07.105-.105.158-.105a.764.764,0,0,1,.263.105c.421.351.813.672,1.193.982s.772.632,1.193.982c.07.07.105.105.105.14s-.035.07-.105.14a10.185,10.185,0,0,1-6.314,3.508.518.518,0,0,0-.421.14Zm-1.922-18.3a6.562,6.562,0,0,0-.884.06A7.188,7.188,0,0,0,3.789,8.98c0,.14,0,.21.035.245s.105.035.245.035H16.7c.281,0,.281,0,.281-.28a4.392,4.392,0,0,1-.14-.561,4.391,4.391,0,0,0-.14-.561A6.363,6.363,0,0,0,10.706,3.588Z" transform="translate(125.299 11.646)"/>
    <path id="path3709" class="cls-1" d="M49.333,93.745c-.561-.7-1.122-1.543-1.684-2.245A24.812,24.812,0,0,1,45.4,88.414l-1.684-2.1c-.14-.14-.14-.14-.281,0-1.123,1.543-2.385,3.087-3.508,4.63-.7.982-1.4,1.824-2.1,2.806H33.618c-.14,0-.281.14-.281-.14.7-.842,1.263-1.684,1.964-2.526s1.263-1.684,1.964-2.526,1.4-1.824,2.1-2.666,1.263-1.684,1.964-2.526c.14-.14.14-.14,0-.281-.842-1.122-1.684-2.245-2.526-3.227s-1.543-2.1-2.385-3.087c-.7-.842-1.4-1.824-2.1-2.666-.281-.421-.7-.842-.982-1.263h4.209c.14,0,.281,0,.281.14,1.123,1.543,2.245,2.947,3.367,4.35.7.982,1.543,1.964,2.245,2.947.14.14.14.14.281,0,.982-1.263,1.824-2.385,2.806-3.648.842-.982,1.543-1.964,2.385-2.947,0-.14.14-.14.14-.281.281-.561.561-.561,1.123-.561h3.648c-.14.281-.421.561-.561.842-.842,1.122-1.824,2.385-2.666,3.508-1.122,1.543-2.385,3.087-3.508,4.63a12.135,12.135,0,0,0-.982,1.4c-.14.14-.14.14,0,.281,1.122,1.543,2.385,3.087,3.508,4.63,1.122,1.4,2.245,2.947,3.367,4.35.281.421.7.842.982,1.263a.137.137,0,0,1-.14.14c-1.684-.14-3.087-.14-4.49-.14Z" transform="translate(33.311 -60.632)"/>
    <path id="path3711" class="cls-1" d="M56.406,94.9a10.61,10.61,0,0,1-7.717-3.648.263.263,0,0,1,0-.421c.842-.561,1.543-1.263,2.385-1.824a.263.263,0,0,1,.421,0,6.309,6.309,0,0,0,5.613,2.526,4.782,4.782,0,0,0,3.087-.982,2.624,2.624,0,0,0-.14-4.35,10.262,10.262,0,0,0-2.666-.982,16.988,16.988,0,0,1-4.35-1.263,8.686,8.686,0,0,1-2.385-1.543,4.86,4.86,0,0,1-1.263-3.648A5.3,5.3,0,0,1,52.337,74a9.251,9.251,0,0,1,9.682.14,8.589,8.589,0,0,1,2.385,2.1.263.263,0,0,1,0,.421,22.853,22.853,0,0,1-2.385,1.543c-.14.14-.281.14-.421-.14a5.716,5.716,0,0,0-6.735-1.684,3.563,3.563,0,0,0-1.4,1.123,1.978,1.978,0,0,0,.421,2.947,5.094,5.094,0,0,0,2.385.982c1.263.421,2.385.421,3.648.842a9.42,9.42,0,0,1,2.1.842,5.327,5.327,0,0,1,3.087,4.35,6.115,6.115,0,0,1-1.543,5.051,7.155,7.155,0,0,1-3.648,1.964,13.353,13.353,0,0,1-3.508.421Z" transform="translate(98.92 -61.229)"/>
    <path id="path3713" class="cls-1" d="M59.538,94.781a9.649,9.649,0,0,1-4.771-1.4,9.829,9.829,0,0,1-2.666-2.1.263.263,0,0,1,0-.421c.842-.561,1.684-1.263,2.385-1.824a.263.263,0,0,1,.421,0,6.854,6.854,0,0,0,7.717,2.1,2.853,2.853,0,0,0,1.263-.842,2.625,2.625,0,0,0-.561-4.069A9.4,9.4,0,0,0,60.8,85.24a32.157,32.157,0,0,1-3.929-.982,8.58,8.58,0,0,1-1.684-.7,4.98,4.98,0,0,1-2.526-4.069,5.561,5.561,0,0,1,3.367-5.612,9.069,9.069,0,0,1,8.278-.281,8.9,8.9,0,0,1,3.367,2.666.263.263,0,0,1,0,.421c-.842.561-1.684,1.122-2.385,1.684-.14.14-.14.14-.281,0a5.913,5.913,0,0,0-7.437-1.543,2.472,2.472,0,0,0-1.263,1.824,1.934,1.934,0,0,0,.7,1.824A7.444,7.444,0,0,0,59.4,81.592a27.8,27.8,0,0,0,3.648.842,12.283,12.283,0,0,1,3.648,1.684,4.821,4.821,0,0,1,1.824,3.508,7.569,7.569,0,0,1-.421,3.508A6.435,6.435,0,0,1,64.309,94.5a43.686,43.686,0,0,1-4.771.281Z" transform="translate(113.607 -61.106)"/>
    <path id="path3715" class="cls-1" d="M42.174,94.2V73.294h3.788v2.1a11.592,11.592,0,0,1,6.314-2.666h.982v3.648h-.7a6.673,6.673,0,0,0-2.947.982A7.608,7.608,0,0,0,46.1,82.134c0,.281-.14.421-.14.7V94.2H42.174Z" transform="translate(71.339 -61.087)"/>
    <path id="path3717" class="cls-2" d="M26.141,100.463V71.278h3.788v29.045h0a34.192,34.192,0,0,1-3.788.14Z" transform="translate(2.343 -67.349)"/>
    <path id="path3719" class="cls-2" d="M32.872,81.622c0,.14.14.421-.14.421s-.14-.281-.14-.421a6.013,6.013,0,0,0-1.4-3.367,6.653,6.653,0,0,0-3.367-1.824h0c-.14-.14-.421,0-.561,0a.137.137,0,0,1-.14-.14c0-.14.14-.14.281-.14.561-.14,1.122-.14,1.684-.281a5.351,5.351,0,0,0,3.648-4.209c0-.281.14-.561.14-.842,0-.14,0-.281.14-.281s.14.14.14.281v.561a3.833,3.833,0,0,0,1.123,2.666,6.1,6.1,0,0,0,2.947,1.964c.281,0,.561.14.842.14.14.14.421,0,.561,0,.14.14.14.281,0,.281H38.2a4.9,4.9,0,0,0-3.087,1.122,5.969,5.969,0,0,0-1.964,3.227V81.2c-.281.281-.14.281-.281.421Z" transform="translate(6.556 -70.537)"/>
    <path id="path3721" class="cls-3" d="M56.8,74.4c.281-.7.421-1.263.7-1.824.14-.421.421-.14.561-.14.281,0,.14.14.14.281v2.1c0,.14,0,.281-.281.281s-.281-.14-.281-.281V73.139a.515.515,0,0,0-.14.421l-.421,1.263a.281.281,0,0,1-.561,0,9.743,9.743,0,0,0-.7-1.824v1.824c0,.14,0,.281-.14.281-.281,0-.14-.14-.14-.281v-2.1c0-.14-.14-.281.14-.281.14,0,.421-.14.561.14.14.561.421,1.122.561,1.684-.14,0-.14,0,0,.14Z" transform="translate(128.693 -62.755)"/>
    <path id="path3723" class="cls-4" d="M31.622,83.249v9.962a.372.372,0,0,1-.421.421H28.114c-.281,0-.281,0-.281-.281v-20.2c0-.281,0-.281.281-.281h3.227c.281,0,.281.14.281.281Z" transform="translate(9.63 -60.518)"/>
    <path id="path3725" class="cls-5" d="M55.848,73.766v-.842c0-.14,0-.281-.281-.281h-.281c-.14,0-.281,0-.281-.14s.14-.14.281-.14H56.83c.14,0,.281,0,.281.14a.3.3,0,0,1-.281.281c-.561,0-.561,0-.561.561v1.543c0,.14-.14.14-.281.14s-.281,0-.281-.14a1.662,1.662,0,0,0,.14-1.122Z" transform="translate(126.558 -62.681)"/>
    <path id="path3727" class="cls-4" d="M29.527,76.781H47.768c0,.14-.14.14-.281.14H29.667C29.667,76.781,29.527,76.921,29.527,76.781Z" transform="translate(16.916 -43.667)"/>
    <path id="path3729" class="cls-4" d="M46.786,71.418H29.527c0-.14.14-.14.281-.14H46.5C46.645,71.278,46.786,71.278,46.786,71.418Z" transform="translate(16.916 -67.349)"/>
    <path id="path3731" class="cls-4" d="M30.268,83.24v0Z" transform="translate(20.104 -53.914)"/>
    <path id="path3733" class="cls-4" d="M30.268,80.745v0Z" transform="translate(20.104 -64.047)"/>
    <path id="path3735" class="cls-4" d="M33.361,76.781h4.35c0,.14-.14,0-.281,0Z" transform="translate(33.147 -43.667)"/>
    <path id="path3737" class="cls-4" d="M36.353,76.781h4.49c0,.14,0,.14-.14.14-1.543-.14-2.947-.14-4.35-.14h0Z" transform="translate(46.291 -43.667)"/>
    <path id="path3739" class="cls-4" d="M26.7,71.39H26.42C26.561,71.249,26.7,71.249,26.7,71.39Z" transform="translate(-11.547 -67.321)"/>
    <path id="path3741" class="cls-4" d="M20.8,76.9c0,.14.14,0,.281,0H24.3c.14,0,.14,0,.281-.14,0,.14-.14.14-.281.14H20.936S20.8,77.035,20.8,76.9Z" transform="translate(-20.656 -43.781)"/>
    <path id="path3743" class="cls-4" d="M25.029,76.755c0,.14.14,0,.281,0h3.367c0,.281-.14.14-.14.14H25.31C25.17,76.9,25.029,77.035,25.029,76.755Z" transform="translate(-2.439 -43.781)"/>
    <path id="path3745" class="cls-4" d="M29.929,71.418H26.141c0-.14.14-.14.281-.14h3.227C29.789,71.278,29.789,71.278,29.929,71.418Z" transform="translate(2.343 -67.349)"/>
    <path id="path3747" class="cls-4" d="M45.962,72.889h-.281C45.822,72.889,45.822,72.749,45.962,72.889Z" transform="translate(71.339 -60.682)"/>
    <path id="path3749" class="cls-4" d="M26.141,76.781h3.788c-.14.14-.14,0-.281,0H26.421C26.281,76.781,26.141,76.921,26.141,76.781Z" transform="translate(2.343 -43.667)"/>
    <path id="path3751" class="cls-4" d="M44.238,76.5v-.14C44.378,76.355,44.378,76.5,44.238,76.5Z" transform="translate(80.219 -61.201)"/>
    <path id="path3753" class="cls-4" d="M42.174,76.781h3.788a.137.137,0,0,1-.14.14H42.455A.435.435,0,0,0,42.174,76.781Z" transform="translate(71.339 -43.667)"/>
    <path id="path3755" class="cls-4" d="M46.354,76.887H47.9A2.87,2.87,0,0,1,46.354,76.887Z" transform="translate(89.328 -43.212)"/>
    <path id="path3757" class="cls-4" d="M44.482,74.744v.7A.626.626,0,0,1,44.482,74.744Z" transform="translate(80.817 -52.434)"/>
    <path id="path3759" class="cls-4" d="M27.119,71.648h.561C27.54,71.789,27.4,71.789,27.119,71.648Z" transform="translate(6.556 -65.755)"/>
    <path id="path3761" class="cls-4" d="M29.692,71.646H29.13C29.411,71.646,29.551,71.506,29.692,71.646Z" transform="translate(15.209 -66.033)"/>
    <path id="path3763" class="cls-4" d="M47.074,72.784h-.561C46.654,72.784,46.794,72.643,47.074,72.784Z" transform="translate(90.011 -61.138)"/>
    <path id="path3765" class="cls-4" d="M46.863,72.784H46.3C46.442,72.643,46.722,72.784,46.863,72.784Z" transform="translate(89.1 -61.138)"/>
    <path id="path3767" class="cls-4" d="M39.957,72.784H39.4C39.536,72.643,39.817,72.784,39.957,72.784Z" transform="translate(59.384 -61.138)"/>
    <path id="path3769" class="cls-4" d="M41.671,75.059v0Z" transform="translate(69.176 -52.89)"/>
    <path id="path3771" class="cls-4" d="M40.082,72.784h-.421C39.8,72.784,39.941,72.643,40.082,72.784Z" transform="translate(60.523 -61.138)"/>
    <path id="path3773" class="cls-4" d="M39.687,76.964h.421C39.968,76.964,39.827,76.824,39.687,76.964Z" transform="translate(60.636 -43.149)"/>
    <path id="path3775" class="cls-4" d="M37.491,74.612v0Z" transform="translate(51.187 -53.003)"/>
    <path id="path3777" class="cls-4" d="M44.132,73.421h.421C44.413,73.561,44.272,73.421,44.132,73.421Z" transform="translate(79.764 -58.127)"/>
    <path id="path3779" class="cls-4" d="M41.645,75.35v-.421A.263.263,0,0,1,41.645,75.35Z" transform="translate(69.062 -51.637)"/>
    <path id="path3781" class="cls-4" d="M44.474,72.707h0Z" transform="translate(79.423 -61.201)"/>
    <path id="path3783" class="cls-4" d="M44.4,74.956v0Z" transform="translate(80.903 -51.523)"/>
    <path id="path3785" class="cls-4" d="M28.231,71.037v0Z" transform="translate(11.338 -70.195)"/>
    <path id="path3787" class="cls-4" d="M28.2,72.969v-.421C28.345,72.829,28.345,72.829,28.2,72.969Z" transform="translate(11.224 -61.884)"/>
    <path id="path3789" class="cls-4" d="M29.183,71.675h0Z" transform="translate(15.436 -65.641)"/>
    <path id="path3791" class="cls-4" d="M44.4,74.559v0Z" transform="translate(80.903 -53.231)"/>
    <path id="path3793" class="cls-4" d="M46.222,76.887h0Z" transform="translate(88.758 -43.212)"/>
    <path id="path3795" class="cls-4" d="M46.7,76.887h0Z" transform="translate(90.808 -43.212)"/>
    <path id="path3797" class="cls-4" d="M39.475,76.887h.281C39.616,77.027,39.616,77.027,39.475,76.887Z" transform="translate(59.726 -43.212)"/>
    <path id="path3799" class="cls-4" d="M46.953,72.733h0Z" transform="translate(90.694 -61.087)"/>
    <path id="path3801" class="cls-4" d="M42.888,74.919v0Z" transform="translate(74.413 -52.89)"/>
    <path id="path3809" class="cls-2" d="M31.482,83.248v10.1c0,.281,0,.281-.281.281H28.114c-.14,0-.281,0-.281-.281v-20.2c0-.281.14-.281.281-.281H31.2c.281,0,.281,0,.281.281v10.1Z" transform="translate(9.63 -60.518)"/>
  </g>
</svg>
