<svg xmlns="http://www.w3.org/2000/svg" width="14" height="16" viewBox="0 0 14 16">
  <path id="Path_53" data-name="Path 53" d="M4-9v-1a3.966,3.966,0,0,0-.531-2.016,3.891,3.891,0,0,0-1.453-1.453A3.966,3.966,0,0,0,0-14a3.966,3.966,0,0,0-2.016.531,3.891,3.891,0,0,0-1.453,1.453A3.966,3.966,0,0,0-4-10v1H-7V-.5a2.407,2.407,0,0,0,.734,1.766A2.407,2.407,0,0,0-4.5,2h9a2.407,2.407,0,0,0,1.766-.734A2.407,2.407,0,0,0,7-.5V-9Zm-6-1a1.922,1.922,0,0,1,.594-1.406A1.922,1.922,0,0,1,0-12a1.922,1.922,0,0,1,1.406.594A1.922,1.922,0,0,1,2-10v1H-2ZM3-6.25a.723.723,0,0,1-.531-.219A.723.723,0,0,1,2.25-7a.723.723,0,0,1,.219-.531A.723.723,0,0,1,3-7.75a.723.723,0,0,1,.531.219A.723.723,0,0,1,3.75-7a.723.723,0,0,1-.219.531A.723.723,0,0,1,3-6.25Zm-6,0a.723.723,0,0,1-.531-.219A.723.723,0,0,1-3.75-7a.723.723,0,0,1,.219-.531A.723.723,0,0,1-3-7.75a.723.723,0,0,1,.531.219A.723.723,0,0,1-2.25-7a.723.723,0,0,1-.219.531A.723.723,0,0,1-3-6.25Z" transform="translate(7 14)" fill="#fff"/>
</svg>
