<svg xmlns="http://www.w3.org/2000/svg" xmlns:xlink="http://www.w3.org/1999/xlink" viewBox="0 0 43.809 43.859">
  <defs>
    <style>
      .cls-1 {
        fill: url(#linear-gradient);
      }
    </style>
    <linearGradient id="linear-gradient" x1="0.5" x2="0.5" y2="1" gradientUnits="objectBoundingBox">
      <stop offset="0" stop-color="#d31f3d"/>
      <stop offset="1" stop-color="#f6961d"/>
    </linearGradient>
  </defs>
  <path id="Union_4" data-name="Union 4" class="cls-1" d="M-3379.162-3412.041a1.831,1.831,0,0,1-1.839-1.838v-14.6a1.831,1.831,0,0,1,1.839-1.838h7.3a1.837,1.837,0,0,1,1.685,1.174l8.68-2.91a1.783,1.783,0,0,1,2.2.919l1.838,3.676a1.8,1.8,0,0,1-.358,2.094l-.51.51h13.837a1.7,1.7,0,0,1,1.634,1.072,1.805,1.805,0,0,1-.153,1.889l-5.463,7.3a1.887,1.887,0,0,1-1.48.715h-20.066a1.83,1.83,0,0,1-1.838,1.838Zm1.837-3.676h3.625v-10.978h-3.625Zm7.3-9.65v7.812h19.147l2.808-3.677h-16.441v-1.838a1.774,1.774,0,0,1,.51-1.276l2.706-2.706-.51-1.072Zm16.39-1.328v-3.676h12.765v-21.9h-5.463v10.927a1.9,1.9,0,0,1-1.124,1.685,1.8,1.8,0,0,1-.714.153,1.775,1.775,0,0,1-1.277-.51l-4.187-4.187-4.187,4.187a1.813,1.813,0,0,1-1.991.408,1.845,1.845,0,0,1-1.124-1.685v-10.978h-5.463v16.492h-3.676v-16.441a3.694,3.694,0,0,1,3.676-3.676h25.581a3.639,3.639,0,0,1,3.625,3.625v21.9a3.694,3.694,0,0,1-3.676,3.676Zm1.328-21.343,2.349,2.349h.051v-6.587h-7.3v6.587l2.349-2.349a1.775,1.775,0,0,1,1.277-.511A1.775,1.775,0,0,1-3352.305-3448.037Z" transform="translate(3381 3455.9)"/>
</svg>
