<svg xmlns="http://www.w3.org/2000/svg" xmlns:xlink="http://www.w3.org/1999/xlink" viewBox="0 0 56.079 56.079">
  <defs>
    <style>
      .cls-1 {
        fill: url(#linear-gradient);
      }
    </style>
    <linearGradient id="linear-gradient" x1="0.5" x2="0.5" y2="1" gradientUnits="objectBoundingBox">
      <stop offset="0" stop-color="#d31f3d"/>
      <stop offset="1" stop-color="#f6961d"/>
    </linearGradient>
  </defs>
  <path id="Path_22" data-name="Path 22" class="cls-1" d="M40.785,19a1.991,1.991,0,1,0-2.816-2.816L23.044,31.105a6.219,6.219,0,0,0,0,8.786,6.358,6.358,0,0,0,8.786,0L46.755,24.966A10.448,10.448,0,0,0,32,10.209L17.074,25.135A14.656,14.656,0,1,0,37.8,45.862L48.746,34.916A1.991,1.991,0,0,0,45.93,32.1L34.984,43.045A10.674,10.674,0,0,1,19.89,27.951L34.815,13.025A6.468,6.468,0,0,1,43.94,22.15L29.014,37.075a2.23,2.23,0,0,1-3.154-3.154Z" transform="translate(-14.351 29.652) rotate(-45)"/>
</svg>
