<svg id="astonio_logo" xmlns="http://www.w3.org/2000/svg" viewBox="0 0 186.689 47.984">
  <defs>
    <style>
      .cls-1, .cls-2 {
        fill: #d31f3d;
      }

      .cls-2 {
        fill-rule: evenodd;
      }
    </style>
  </defs>
  <g id="_2516074061472">
    <path id="Path_1" data-name="Path 1" class="cls-1" d="M16061.671,434.54a4.443,4.443,0,0,1-1.406,3.456,4.791,4.791,0,0,1-3.326,1.28,4.882,4.882,0,0,1-3.4-1.28,4.449,4.449,0,0,1-1.406-3.456,4.521,4.521,0,0,1,1.406-3.52,4.874,4.874,0,0,1,3.4-1.28,4.79,4.79,0,0,1,3.326,1.28A4.521,4.521,0,0,1,16061.671,434.54Z" transform="translate(-15906.965 -429.74)"/>
    <path id="Path_2" data-name="Path 2" class="cls-1" d="M16172.229,1921.912h-7.43V1888.44h7.43Z" transform="translate(-16018.574 -1874.823)"/>
    <path id="Path_3" data-name="Path 3" class="cls-1" d="M12668.7,1814.812a47.967,47.967,0,0,1,5.589-1.216,46.376,46.376,0,0,1,7.616-.576,16.874,16.874,0,0,1,6.569,1.12,10.286,10.286,0,0,1,4.211,3.136,12.231,12.231,0,0,1,2.21,4.865,28.219,28.219,0,0,1,.646,6.24V1847.2h-7.433v-17.6a26.33,26.33,0,0,0-.338-4.576,8.344,8.344,0,0,0-1.1-3.072,4.462,4.462,0,0,0-2.089-1.728,8.5,8.5,0,0,0-3.227-.544,23.9,23.9,0,0,0-2.946.192c-1.021.127-1.781.234-2.272.32V1847.2h-7.433Z" transform="translate(-12555.11 -1800.107)"/>
    <path id="Path_4" data-name="Path 4" class="cls-1" d="M6712,806.43l7.434-1.28v10.112h11.422v6.464h-11.422v13.632q0,4.03,1.228,5.76c.817,1.151,2.094,1.627,4.059,1.627a11.939,11.939,0,0,0,3.676-.628c1.14-.376,1.627-.542,2.5-.911l1.251,6.5a27.048,27.048,0,0,1-3.379,1.184,17.686,17.686,0,0,1-4.914.608,15,15,0,0,1-5.742-.96,8.494,8.494,0,0,1-3.654-2.784,11.254,11.254,0,0,1-1.9-4.416,28.531,28.531,0,0,1-.554-5.92Z" transform="translate(-6654.009 -801.646)"/>
    <path id="Path_5" data-name="Path 5" class="cls-1" d="M3765.972,1828.046a9.43,9.43,0,0,0,4.3-.736,2.639,2.639,0,0,0,1.351-2.528,3.317,3.317,0,0,0-1.443-2.752,20.6,20.6,0,0,0-4.76-2.368,38.219,38.219,0,0,1-3.716-1.632,12.651,12.651,0,0,1-2.918-2.016,8.271,8.271,0,0,1-1.935-2.784,10.065,10.065,0,0,1-.706-4,8.872,8.872,0,0,1,3.255-7.264q3.254-2.655,8.844-2.656a26.126,26.126,0,0,1,5.405.544,25.464,25.464,0,0,1,3.869,1.056l-1.351,6.272a17.678,17.678,0,0,0-3.133-1.056,18.208,18.208,0,0,0-4.422-.48,7.439,7.439,0,0,0-3.685.8,2.644,2.644,0,0,0-1.413,2.464,3.106,3.106,0,0,0,1.229,2.656,9.666,9.666,0,0,0,1.781,1.088c.736.362,1.644.721,2.7,1.12a37.1,37.1,0,0,1,4.484,2.016,12.17,12.17,0,0,1,3.041,2.24,7.71,7.71,0,0,1,1.75,2.848,11.836,11.836,0,0,1,.552,3.84,8.393,8.393,0,0,1-3.408,7.264q-3.408,2.463-9.736,2.464a25.633,25.633,0,0,1-6.817-.736,34.2,34.2,0,0,1-3.624-1.184l1.29-6.464a32.529,32.529,0,0,0,3.962,1.344A19.65,19.65,0,0,0,3765.972,1828.046Z" transform="translate(-3725.081 -1786.525)"/>
    <path id="Path_6" data-name="Path 6" class="cls-1" d="M513.584,1828.173a26.554,26.554,0,0,0,5.221-.384v-8.576a13.9,13.9,0,0,0-1.781-.384,15.925,15.925,0,0,0-2.579-.192,16.46,16.46,0,0,0-2.488.192,7.519,7.519,0,0,0-2.272.7,3.95,3.95,0,0,0-2.242,3.776q0,2.752,1.658,3.808A8.277,8.277,0,0,0,513.584,1828.173Zm-.614-28.864a17.511,17.511,0,0,1,6.2.96,9.87,9.87,0,0,1,4.023,2.688,10.208,10.208,0,0,1,2.15,4.192,21.333,21.333,0,0,1,.645,5.408v20.288q-1.72.384-5.19.928a50.916,50.916,0,0,1-7.831.544,22.581,22.581,0,0,1-5.282-.576,10.887,10.887,0,0,1-4.084-1.856,8.689,8.689,0,0,1-2.641-3.328,11.966,11.966,0,0,1-.952-5.056,10.1,10.1,0,0,1,1.075-4.864,9.043,9.043,0,0,1,2.918-3.232,12.348,12.348,0,0,1,4.269-1.792,23.118,23.118,0,0,1,5.067-.544,21.96,21.96,0,0,1,2.58.16,23.121,23.121,0,0,1,2.887.544v-1.28a10.42,10.42,0,0,0-.307-2.56,5.388,5.388,0,0,0-1.075-2.144,5.029,5.029,0,0,0-2.027-1.44,8.452,8.452,0,0,0-3.163-.512,26.931,26.931,0,0,0-4.729.384,20.09,20.09,0,0,0-3.5.9l-.921-6.272a28.35,28.35,0,0,1,4.115-1.024A31.008,31.008,0,0,1,512.969,1799.309Z" transform="translate(-500.01 -1786.525)"/>
    <path id="Path_7" data-name="Path 7" class="cls-1" d="M10164.073,3178.81a4.444,4.444,0,0,1-1.407,3.455,4.79,4.79,0,0,1-3.33,1.281,4.874,4.874,0,0,1-3.392-1.281,4.447,4.447,0,0,1-1.407-3.455,4.521,4.521,0,0,1,1.407-3.52,4.868,4.868,0,0,1,3.392-1.281,4.79,4.79,0,0,1,3.33,1.281A4.525,4.525,0,0,1,10164.073,3178.81Z" transform="translate(-10064.416 -3148.392)"/>
    <path id="Path_8" data-name="Path 8" class="cls-2" d="M9180.781,1824.593a15.952,15.952,0,0,1-2.958,5.083,14.087,14.087,0,0,1-4.875,3.584,15.19,15.19,0,0,1-6.289,1.28,14.978,14.978,0,0,1-6.257-1.28,14.151,14.151,0,0,1-4.846-3.584,16.346,16.346,0,0,1-2.988-5.095l6.947-2.7a10.36,10.36,0,0,0,1.408,2.992,7.06,7.06,0,0,0,11.472,0,10.386,10.386,0,0,0,1.409-2.993Zm-28.242-15.306a16.115,16.115,0,0,1,3.049-5.147,14.094,14.094,0,0,1,4.876-3.552,15.147,15.147,0,0,1,6.2-1.248,15.37,15.37,0,0,1,6.228,1.248,13.74,13.74,0,0,1,4.876,3.552,16.455,16.455,0,0,1,3.019,5.148l-6.96,2.7a10.218,10.218,0,0,0-1.426-3.018,7.105,7.105,0,0,0-11.472,0,10.216,10.216,0,0,0-1.426,3.017Z" transform="translate(-9071.771 -1786.555)"/>
    <path id="Path_9" data-name="Path 9" class="cls-1" d="M18507.68,3178.8a4.446,4.446,0,0,1-1.406,3.456,4.793,4.793,0,0,1-3.33,1.281,4.878,4.878,0,0,1-3.393-1.281,4.452,4.452,0,0,1-1.406-3.456,4.521,4.521,0,0,1,1.406-3.52,4.875,4.875,0,0,1,3.393-1.28,4.8,4.8,0,0,1,3.33,1.28A4.524,4.524,0,0,1,18507.68,3178.8Z" transform="translate(-18330.141 -3148.383)"/>
    <path id="Path_10" data-name="Path 10" class="cls-2" d="M17502.57,1824.593a15.927,15.927,0,0,1-2.955,5.083,14.147,14.147,0,0,1-4.879,3.584,15.164,15.164,0,0,1-6.287,1.28,14.982,14.982,0,0,1-6.258-1.28,14.233,14.233,0,0,1-4.848-3.584,16.39,16.39,0,0,1-2.982-5.095l6.945-2.7a10.21,10.21,0,0,0,1.408,2.992,7.059,7.059,0,0,0,11.471,0,10.356,10.356,0,0,0,1.406-2.993Zm-28.242-15.306a16.1,16.1,0,0,1,3.049-5.147,14.136,14.136,0,0,1,4.875-3.552,15.166,15.166,0,0,1,6.2-1.248,15.372,15.372,0,0,1,6.227,1.248,13.676,13.676,0,0,1,4.875,3.552,16.327,16.327,0,0,1,3.02,5.148l-6.959,2.7a10.267,10.267,0,0,0-1.426-3.018,7.1,7.1,0,0,0-11.471,0,10.171,10.171,0,0,0-1.428,3.017Z" transform="translate(-17315.881 -1786.555)"/>
  </g>
</svg>
