<svg xmlns="http://www.w3.org/2000/svg" xmlns:xlink="http://www.w3.org/1999/xlink" viewBox="0 0 50.637 43.042">
  <defs>
    <style>
      .cls-1 {
        fill: url(#linear-gradient);
      }
    </style>
    <linearGradient id="linear-gradient" x1="0.5" x2="0.5" y2="1" gradientUnits="objectBoundingBox">
      <stop offset="0" stop-color="#d31f3d"/>
      <stop offset="1" stop-color="#f6961d"/>
    </linearGradient>
  </defs>
  <path id="Union_3" data-name="Union 3" class="cls-1" d="M-2218.425-2576.958v-2.532h-25.32A20.314,20.314,0,0,1-2264-2599.745,20.314,20.314,0,0,1-2243.745-2620a20.315,20.315,0,0,1,20.255,20.255v15.191h10.128v7.6Zm-40.511-22.787a15.236,15.236,0,0,0,15.191,15.191h15.192v-15.191a15.237,15.237,0,0,0-15.192-15.192A15.236,15.236,0,0,0-2258.936-2599.745Zm23.086,4.745v-4.83a.982.982,0,0,0-.99-1.11.982.982,0,0,0-.99,1.11v4.83h-2.46v-4.83a.982.982,0,0,0-.99-1.11.982.982,0,0,0-.99,1.11v4.83h-2.46v-8.07h2.4v.661a2.732,2.732,0,0,1,1.876-.751,2.449,2.449,0,0,1,1.965.855,3.143,3.143,0,0,1,2.28-.855,2.789,2.789,0,0,1,1.935.69,3.03,3.03,0,0,1,.885,2.31v5.16Zm-14.52,0v-8.055l-2.28,1.98v-2.625l2.28-1.98h2.46V-2595Z" transform="translate(2264 2620)"/>
</svg>
