<svg xmlns="http://www.w3.org/2000/svg" width="15" height="9.656" viewBox="0 0 15 9.656">
  <path id="Path_51" data-name="Path 51" d="M6.7-4.5.328-10.875a1.085,1.085,0,0,1-.328-.8,1.085,1.085,0,0,1,.328-.8L1.406-13.5a1.085,1.085,0,0,1,.8-.328A1.085,1.085,0,0,1,3-13.5L7.5-9,12-13.5a1.085,1.085,0,0,1,.8-.328,1.085,1.085,0,0,1,.8.328l1.078,1.031a1.085,1.085,0,0,1,.328.8,1.085,1.085,0,0,1-.328.8L8.3-4.5a1.085,1.085,0,0,1-.8.328A1.085,1.085,0,0,1,6.7-4.5Z" transform="translate(0 13.828)" fill="#fff"/>
</svg>
