<svg xmlns="http://www.w3.org/2000/svg" viewBox="0 0 18.01 18.01">
  <defs>
    <style>
      .cls-1 {
        fill: #fff;
      }
    </style>
  </defs>
  <path id="Path_45" data-name="Path 45" class="cls-1" d="M-7.321-13.121l3.661-.845a.794.794,0,0,1,.563.07.776.776,0,0,1,.387.387l1.69,3.942a.878.878,0,0,1,.035.546.843.843,0,0,1-.282.44l-2.112,1.76A12.932,12.932,0,0,0-.826-3.16,12.373,12.373,0,0,0,2.852-.59L4.577-2.7A.707.707,0,0,1,5.034-3a.894.894,0,0,1,.528.053L9.5-1.259a.758.758,0,0,1,.422.387A.794.794,0,0,1,10-.309L9.153,3.352a.668.668,0,0,1-.282.493.892.892,0,0,1-.528.176A16.064,16.064,0,0,1,.106,1.8,16.411,16.411,0,0,1-5.772-4.075,16.064,16.064,0,0,1-7.99-12.312a.892.892,0,0,1,.176-.528A.668.668,0,0,1-7.321-13.121Z" transform="translate(7.99 13.99)"/>
</svg>
