<svg xmlns="http://www.w3.org/2000/svg" xmlns:xlink="http://www.w3.org/1999/xlink" viewBox="0 0 43.256 43.256">
  <defs>
    <style>
      .cls-1 {
        fill: url(#linear-gradient);
      }
    </style>
    <linearGradient id="linear-gradient" x1="0.5" x2="0.5" y2="1" gradientUnits="objectBoundingBox">
      <stop offset="0" stop-color="#d31f3d"/>
      <stop offset="1" stop-color="#f6961d"/>
    </linearGradient>
  </defs>
  <path id="Union_2" data-name="Union 2" class="cls-1" d="M-2259.674-2576.744a4.336,4.336,0,0,1-4.325-4.325V-2602.7a4.337,4.337,0,0,1,4.325-4.325h12.976A13.015,13.015,0,0,1-2233.721-2620a13.015,13.015,0,0,1,12.978,12.978,13.138,13.138,0,0,1-4.325,9.732v16.221a4.339,4.339,0,0,1-4.327,4.325Zm0-4.325h30.278v-4.325h-30.278Zm0-8.65h30.278v-4.976a13.932,13.932,0,0,1-4.325.648,12.8,12.8,0,0,1-12.112-8.65h-13.841Zm17.3-17.3a8.676,8.676,0,0,0,8.651,8.65,8.675,8.675,0,0,0,8.652-8.65,8.679,8.679,0,0,0-8.652-8.652A8.677,8.677,0,0,0-2242.372-2607.022Zm-10.814,12.976a2.043,2.043,0,0,1-2.163-2.163,2.043,2.043,0,0,1,2.163-2.163h2.162a2.043,2.043,0,0,1,2.163,2.163,2.043,2.043,0,0,1-2.163,2.163Zm17.324-8.693v-2.141H-2238a2.092,2.092,0,0,1-2.141-2.141,2.091,2.091,0,0,1,2.141-2.141h2.141v-2.141a2.092,2.092,0,0,1,2.142-2.142,2.09,2.09,0,0,1,2.141,2.142v2.141h2.141a2.09,2.09,0,0,1,2.141,2.141,2.091,2.091,0,0,1-2.141,2.141h-2.141v2.141a2.09,2.09,0,0,1-2.141,2.141A2.092,2.092,0,0,1-2235.863-2602.74Z" transform="translate(2263.999 2620)"/>
</svg>
