<svg width="20" height="20" viewBox="0 0 20 20" fill="none" xmlns="http://www.w3.org/2000/svg">
<path d="M18.7 10.3813L16.825 6.00625C16.7772 5.89328 16.6971 5.79689 16.5949 5.7291C16.4926 5.6613 16.3727 5.6251 16.25 5.625H14.375V4.375C14.375 4.20924 14.3092 4.05027 14.1919 3.93306C14.0747 3.81585 13.9158 3.75 13.75 3.75H1.875C1.70924 3.75 1.55027 3.81585 1.43306 3.93306C1.31585 4.05027 1.25 4.20924 1.25 4.375V15C1.25 15.1658 1.31585 15.3247 1.43306 15.4419C1.55027 15.5592 1.70924 15.625 1.875 15.625H3.2125C3.35643 16.1546 3.67063 16.6221 4.10662 16.9555C4.54262 17.2888 5.07619 17.4694 5.625 17.4694C6.17381 17.4694 6.70738 17.2888 7.14338 16.9555C7.57937 16.6221 7.89357 16.1546 8.0375 15.625H11.9625C12.1064 16.1546 12.4206 16.6221 12.8566 16.9555C13.2926 17.2888 13.8262 17.4694 14.375 17.4694C14.9238 17.4694 15.4574 17.2888 15.8934 16.9555C16.3294 16.6221 16.6436 16.1546 16.7875 15.625H18.125C18.2908 15.625 18.4497 15.5592 18.5669 15.4419C18.6842 15.3247 18.75 15.1658 18.75 15V10.625C18.7498 10.5412 18.7328 10.4583 18.7 10.3813ZM14.375 6.875H15.8375L17.175 10H14.375V6.875ZM5.625 16.25C5.37777 16.25 5.1361 16.1767 4.93054 16.0393C4.72498 15.902 4.56476 15.7068 4.47015 15.4784C4.37554 15.2499 4.35079 14.9986 4.39902 14.7561C4.44725 14.5137 4.5663 14.2909 4.74112 14.1161C4.91593 13.9413 5.13866 13.8222 5.38114 13.774C5.62361 13.7258 5.87495 13.7505 6.10335 13.8451C6.33176 13.9398 6.52699 14.1 6.66434 14.3055C6.80169 14.5111 6.875 14.7528 6.875 15C6.875 15.3315 6.7433 15.6495 6.50888 15.8839C6.27446 16.1183 5.95652 16.25 5.625 16.25ZM11.9625 14.375H8.0375C7.89357 13.8454 7.57937 13.3779 7.14338 13.0445C6.70738 12.7112 6.17381 12.5306 5.625 12.5306C5.07619 12.5306 4.54262 12.7112 4.10662 13.0445C3.67063 13.3779 3.35643 13.8454 3.2125 14.375H2.5V5H13.125V12.85C12.8404 13.0152 12.5912 13.2349 12.3917 13.4966C12.1922 13.7583 12.0464 14.0568 11.9625 14.375ZM14.375 16.25C14.1278 16.25 13.8861 16.1767 13.6805 16.0393C13.475 15.902 13.3148 15.7068 13.2201 15.4784C13.1255 15.2499 13.1008 14.9986 13.149 14.7561C13.1972 14.5137 13.3163 14.2909 13.4911 14.1161C13.6659 13.9413 13.8887 13.8222 14.1311 13.774C14.3736 13.7258 14.6249 13.7505 14.8534 13.8451C15.0818 13.9398 15.277 14.1 15.4143 14.3055C15.5517 14.5111 15.625 14.7528 15.625 15C15.625 15.3315 15.4933 15.6495 15.2589 15.8839C15.0245 16.1183 14.7065 16.25 14.375 16.25ZM17.5 14.375H16.7875C16.6493 13.8397 16.3375 13.3653 15.901 13.0261C15.4645 12.6868 14.9278 12.5018 14.375 12.5V11.25H17.5V14.375Z" fill="#1D71B8"/>
</svg>
