<svg width="47" height="48" viewBox="0 0 47 48" fill="none" xmlns="http://www.w3.org/2000/svg">
<path d="M34.4012 14.4975C35.0063 15.1026 35.0529 16.0547 34.5408 16.7132L34.4012 16.8714L17.6155 33.6571C17.0104 34.2622 16.0583 34.3087 15.3998 33.7967L15.2416 33.6571L8.52735 26.9428C7.87182 26.2873 7.87182 25.2245 8.52735 24.5689C9.13245 23.9638 10.0846 23.9173 10.7431 24.4293L10.9012 24.5689L16.4286 30.095L32.0273 14.4975C32.6829 13.842 33.7457 13.842 34.4012 14.4975ZM44.4726 14.4975C45.0777 15.1026 45.1243 16.0547 44.6123 16.7132L44.4726 16.8714L27.6869 33.6571C27.0314 34.3126 25.9686 34.3126 25.3131 33.6571C24.708 33.052 24.6614 32.0998 25.1734 31.4413L25.3131 31.2832L42.0988 14.4975C42.7543 13.842 43.8171 13.842 44.4726 14.4975Z" fill="#E8482A"/>
</svg>
