<svg width="16" height="19" viewBox="0 0 16 19" fill="none" xmlns="http://www.w3.org/2000/svg">
<path d="M15.0714 7.44027C15.0714 3.52871 11.9058 0.357178 8.00002 0.357178C4.09425 0.357178 0.928589 3.52871 0.928589 7.44027C0.928589 10.2278 2.6408 13.5924 6.0203 17.5881C6.94503 18.6815 8.58105 18.8182 9.67442 17.8934C9.7845 17.8003 9.88663 17.6982 9.97973 17.5881C13.3592 13.5924 15.0714 10.2278 15.0714 7.44027ZM8.65963 16.6936C8.22891 17.0579 7.58442 17.004 7.22013 16.5733C4.05841 12.8351 2.50002 9.77273 2.50002 7.44027C2.50002 4.39594 4.96278 1.92861 8.00002 1.92861C11.0373 1.92861 13.5 4.39594 13.5 7.44027C13.5 9.77273 11.9416 12.8351 8.77991 16.5733C8.74323 16.6167 8.703 16.6569 8.65963 16.6936ZM4.85716 7.42861C4.85716 5.6933 6.26471 4.28575 8.00002 4.28575C9.73532 4.28575 11.1429 5.6933 11.1429 7.42861C11.1429 9.16391 9.73532 10.5715 8.00002 10.5715C6.26471 10.5715 4.85716 9.16391 4.85716 7.42861ZM6.42859 7.42861C6.42859 8.29603 7.13259 9.00003 8.00002 9.00003C8.86745 9.00003 9.57145 8.29603 9.57145 7.42861C9.57145 6.56118 8.86745 5.85718 8.00002 5.85718C7.13259 5.85718 6.42859 6.56118 6.42859 7.42861Z" fill="#1D71B8"/>
</svg>
