<svg width="332" height="57" viewBox="0 0 332 57" fill="none" xmlns="http://www.w3.org/2000/svg">
<g filter="url(#filter0_d)">
<path d="M95.4019 9.54907V10.2624C94.5934 10.2862 93.9752 10.3813 93.5471 10.5478C93.1429 10.6905 92.8694 10.9758 92.7268 11.4038C92.5841 11.8081 92.5128 12.4501 92.5128 13.3299V31.0215C92.5128 32.3294 92.6792 33.1735 93.0121 33.554C93.345 33.9107 94.0703 34.089 95.1879 34.089H96.258C96.1628 35.0164 96.0915 35.9081 96.0439 36.7642C96.0202 37.6202 96.0083 38.2742 96.0083 38.726C96.0083 39.6771 96.0439 40.4499 96.1153 41.0444H95.2949C95.0571 39.475 94.6767 38.2266 94.1535 37.2992C93.6304 36.3956 92.9527 35.7536 92.1204 35.3731C91.3119 34.9926 90.3489 34.8024 89.2313 34.8024H80.5995C79.4818 34.8024 78.5069 34.9926 77.6746 35.3731C76.8662 35.7536 76.2003 36.3956 75.6772 37.2992C75.1541 38.2266 74.7736 39.475 74.5358 41.0444H73.7154C73.7868 40.4499 73.8224 39.6771 73.8224 38.726C73.8224 38.2742 73.7987 37.6202 73.7511 36.7642C73.7273 35.9081 73.6679 35.0164 73.5728 34.089H83.9523C85.165 34.089 85.9497 33.9107 86.3064 33.554C86.6631 33.1735 86.8415 32.3294 86.8415 31.0215V13.3299C86.8415 12.0221 86.6512 11.1898 86.2708 10.8331C85.9141 10.4527 85.2839 10.2624 84.3803 10.2624H83.9166C83.4173 10.2624 83.013 10.3457 82.7039 10.5121C82.3948 10.6548 82.157 10.952 81.9905 11.4038C81.8479 11.8319 81.7409 12.4739 81.6695 13.3299C81.5268 14.9469 81.3842 16.7185 81.2415 18.6446C81.1226 20.5707 80.9324 22.4849 80.6708 24.3872C80.433 26.2657 80.0644 27.9897 79.5651 29.5591C79.0895 31.1286 78.4237 32.3888 77.5676 33.34C76.7116 34.2912 75.594 34.7667 74.2148 34.7667V34.089C75.3086 34.089 76.2241 33.6848 76.9613 32.8763C77.6984 32.044 78.2929 30.9264 78.7447 29.5235C79.1965 28.1205 79.5532 26.5273 79.8148 24.7439C80.1001 22.9367 80.3141 21.0581 80.4568 19.1082C80.5995 17.1584 80.7302 15.2323 80.8491 13.3299C80.9205 12.0696 80.7778 11.2612 80.4211 10.9045C80.0644 10.524 79.2441 10.31 77.96 10.2624V9.54907C78.4593 9.57285 79.0538 9.59663 79.7434 9.62041C80.433 9.64419 81.0632 9.65608 81.6338 9.65608C82.1808 9.65608 82.7039 9.64419 83.2033 9.62041C83.7264 9.57285 84.2495 9.54907 84.7727 9.54907C85.6763 9.54907 86.4967 9.57285 87.2338 9.62041C87.971 9.64419 88.8508 9.65608 89.8733 9.65608C90.4678 9.65608 91.1098 9.65608 91.7994 9.65608C92.5128 9.6323 93.1786 9.62041 93.7968 9.62041C94.4389 9.59663 94.9739 9.57285 95.4019 9.54907Z" fill="white"/>
<path d="M102.195 35.0521C100.601 35.0521 99.4481 34.636 98.7347 33.8037C98.0213 32.9714 97.6646 31.9608 97.6646 30.7719C97.6646 29.7494 97.8905 28.9171 98.3423 28.2751C98.8179 27.633 99.4243 27.1099 100.161 26.7057C100.899 26.2776 101.671 25.9328 102.48 25.6713C103.312 25.3859 104.097 25.1125 104.834 24.8509C105.595 24.5655 106.201 24.2445 106.653 23.8878C107.129 23.5311 107.366 23.0793 107.366 22.5324V19.7503C107.366 19.132 107.259 18.5851 107.045 18.1095C106.855 17.6102 106.546 17.2297 106.118 16.9681C105.714 16.7066 105.179 16.5758 104.513 16.5758C104.037 16.5758 103.562 16.6471 103.086 16.7898C102.611 16.9087 102.218 17.1227 101.909 17.4318C102.575 17.6696 103.086 18.0382 103.443 18.5375C103.823 19.0131 104.014 19.56 104.014 20.1783C104.014 20.9868 103.728 21.6288 103.158 22.1044C102.611 22.58 101.957 22.8178 101.196 22.8178C100.34 22.8178 99.6859 22.5562 99.2341 22.0331C98.806 21.4862 98.592 20.8322 98.592 20.0713C98.592 19.3817 98.7585 18.811 99.0914 18.3592C99.4481 17.9074 99.9355 17.4794 100.554 17.0751C101.22 16.6947 102.016 16.3974 102.944 16.1834C103.895 15.9694 104.917 15.8624 106.011 15.8624C107.105 15.8624 108.092 15.9813 108.972 16.2191C109.851 16.4331 110.589 16.8373 111.183 17.4318C111.73 17.9787 112.087 18.6564 112.253 19.4649C112.42 20.2496 112.503 21.2484 112.503 22.4611V32.1629C112.503 32.7336 112.562 33.1379 112.681 33.3757C112.8 33.6135 113.002 33.7324 113.287 33.7324C113.525 33.7324 113.751 33.6729 113.965 33.554C114.179 33.4351 114.381 33.2924 114.572 33.126L114.928 33.7324C114.429 34.1604 113.846 34.4933 113.18 34.7311C112.538 34.9451 111.813 35.0521 111.005 35.0521C109.578 35.0521 108.627 34.7667 108.151 34.196C107.699 33.6016 107.462 32.9239 107.438 32.1629C106.843 33.1379 106.106 33.8631 105.226 34.3387C104.37 34.8143 103.36 35.0521 102.195 35.0521ZM104.941 32.7693C105.393 32.7693 105.809 32.6623 106.189 32.4483C106.594 32.2343 106.986 31.8538 107.366 31.3069V23.9948C107.081 24.4704 106.677 24.8747 106.154 25.2076C105.654 25.5167 105.131 25.8615 104.584 26.242C104.061 26.5986 103.621 27.0623 103.265 27.633C102.908 28.2037 102.73 28.9647 102.73 29.9158C102.73 30.9383 102.944 31.6755 103.372 32.1273C103.8 32.5553 104.323 32.7693 104.941 32.7693Z" fill="white"/>
<path d="M136.956 16.3974V17.1465C136.124 17.1465 135.53 17.3248 135.173 17.6815C134.84 18.0382 134.674 18.7159 134.674 19.7146V31.4852C134.674 32.484 134.84 33.1617 135.173 33.5183C135.53 33.875 136.124 34.0534 136.956 34.0534V34.8024C136.505 34.7786 135.815 34.7549 134.888 34.7311C133.984 34.6835 133.104 34.6597 132.248 34.6597C131.344 34.6597 130.453 34.6835 129.573 34.7311C128.717 34.7549 128.063 34.7786 127.611 34.8024V34.0534C128.325 34.0534 128.824 33.875 129.109 33.5183C129.395 33.1617 129.537 32.484 129.537 31.4852V19.7146C129.537 18.7159 129.395 18.0382 129.109 17.6815C128.824 17.3248 128.325 17.1465 127.611 17.1465V16.3974C128.039 16.4212 128.669 16.4569 129.502 16.5044C130.334 16.5282 131.178 16.5401 132.034 16.5401C132.961 16.5401 133.889 16.5282 134.816 16.5044C135.767 16.4569 136.481 16.4212 136.956 16.3974ZM125.293 16.3974V17.1465C124.603 17.1465 124.104 17.3248 123.795 17.6815C123.509 18.0382 123.367 18.7159 123.367 19.7146V31.4852C123.367 32.484 123.509 33.1617 123.795 33.5183C124.104 33.875 124.603 34.0534 125.293 34.0534V34.8024C124.865 34.7786 124.235 34.7549 123.402 34.7311C122.594 34.6835 121.75 34.6597 120.87 34.6597C119.966 34.6597 119.039 34.6835 118.088 34.7311C117.137 34.7549 116.423 34.7786 115.948 34.8024V34.0534C116.78 34.0534 117.362 33.875 117.695 33.5183C118.052 33.1617 118.23 32.484 118.23 31.4852V19.7146C118.23 18.7159 118.052 18.0382 117.695 17.6815C117.362 17.3248 116.78 17.1465 115.948 17.1465V16.3974C116.399 16.4212 117.077 16.4569 117.981 16.5044C118.908 16.5282 119.8 16.5401 120.656 16.5401C121.583 16.5401 122.475 16.5282 123.331 16.5044C124.211 16.4569 124.865 16.4212 125.293 16.3974ZM131.392 24.9579V25.6713H121.334V24.9579H131.392Z" fill="white"/>
<path d="M160.309 16.3974V17.1465C159.477 17.1465 158.882 17.3248 158.526 17.6815C158.193 18.0382 158.026 18.7159 158.026 19.7146V31.4852C158.026 32.484 158.193 33.1617 158.526 33.5183C158.882 33.875 159.477 34.0534 160.309 34.0534V34.8024C159.857 34.7786 159.168 34.7549 158.24 34.7311C157.337 34.6835 156.457 34.6597 155.601 34.6597C154.697 34.6597 153.806 34.6835 152.926 34.7311C152.07 34.7549 151.416 34.7786 150.964 34.8024V34.0534C151.677 34.0534 152.177 33.875 152.462 33.5183C152.747 33.1617 152.89 32.484 152.89 31.4852V19.7146C152.89 18.7159 152.747 18.0382 152.462 17.6815C152.177 17.3248 151.677 17.1465 150.964 17.1465V16.3974C151.392 16.4212 152.022 16.4569 152.854 16.5044C153.687 16.5282 154.531 16.5401 155.387 16.5401C156.314 16.5401 157.242 16.5282 158.169 16.5044C159.12 16.4569 159.834 16.4212 160.309 16.3974ZM148.004 16.3974V17.1465C147.314 17.1465 146.815 17.3248 146.505 17.6815C146.22 18.0382 146.077 18.7159 146.077 19.7146V31.4852C146.077 32.484 146.22 33.1617 146.505 33.5183C146.815 33.875 147.314 34.0534 148.004 34.0534V34.8024C147.576 34.7786 146.945 34.7549 146.113 34.7311C145.305 34.6835 144.46 34.6597 143.581 34.6597C142.677 34.6597 141.75 34.6835 140.799 34.7311C139.847 34.7549 139.134 34.7786 138.658 34.8024V34.0534C139.491 34.0534 140.073 33.875 140.406 33.5183C140.763 33.1617 140.941 32.484 140.941 31.4852V19.7146C140.941 18.7159 140.763 18.0382 140.406 17.6815C140.073 17.3248 139.491 17.1465 138.658 17.1465V16.3974C139.11 16.4212 139.788 16.4569 140.692 16.5044C141.619 16.5282 142.511 16.5401 143.367 16.5401C144.294 16.5401 145.186 16.5282 146.042 16.5044C146.922 16.4569 147.576 16.4212 148.004 16.3974ZM153.318 18.5732L153.925 18.9299L145.435 33.3043L144.829 32.9476L153.318 18.5732Z" fill="white"/>
<path d="M181.863 16.3974V17.1465C181.102 17.1465 180.567 17.3248 180.258 17.6815C179.949 18.0382 179.794 18.7159 179.794 19.7146V31.4852C179.794 32.484 179.949 33.1617 180.258 33.5183C180.591 33.875 181.126 34.0534 181.863 34.0534V34.8024C181.435 34.7786 180.805 34.7549 179.972 34.7311C179.14 34.6835 178.248 34.6597 177.297 34.6597C176.346 34.6597 175.371 34.6835 174.372 34.7311C173.374 34.7549 172.613 34.7786 172.09 34.8024V34.0534C172.969 34.0534 173.611 33.875 174.016 33.5183C174.444 33.1617 174.658 32.484 174.658 31.4852V19.7146C174.658 18.7159 174.515 18.0382 174.23 17.6815C173.944 17.3248 173.445 17.1465 172.732 17.1465H172.411C171.769 17.1465 171.364 17.3367 171.198 17.7172C171.055 18.0739 170.936 18.7397 170.841 19.7146C170.651 21.9261 170.413 24.0543 170.128 26.0993C169.866 28.1443 169.426 29.9753 168.808 31.5922C168.356 32.6861 167.797 33.5778 167.132 34.2674C166.466 34.957 165.645 35.3018 164.671 35.3018C164.147 35.3018 163.624 35.1948 163.101 34.9808C162.578 34.7667 162.138 34.422 161.781 33.9464C161.425 33.447 161.246 32.8169 161.246 32.0559C161.246 31.1523 161.508 30.4508 162.031 29.9515C162.578 29.4284 163.256 29.1668 164.064 29.1668C164.896 29.1668 165.538 29.4165 165.99 29.9158C166.442 30.4152 166.668 31.0215 166.668 31.7349C166.668 32.4721 166.454 33.0665 166.026 33.5183C165.598 33.9701 165.051 34.3387 164.385 34.6241C164.433 34.6479 164.504 34.6716 164.599 34.6954C164.694 34.6954 164.778 34.6954 164.849 34.6954C165.42 34.6954 165.907 34.529 166.311 34.196C166.716 33.8631 167.072 33.447 167.381 32.9476C167.69 32.4245 167.952 31.9133 168.166 31.4139C168.57 30.3914 168.891 29.2381 169.129 27.9541C169.391 26.6462 169.605 25.2789 169.771 23.8522C169.938 22.4254 170.068 21.0462 170.163 19.7146C170.235 18.7159 170.021 18.0382 169.521 17.6815C169.046 17.3248 168.321 17.1465 167.346 17.1465V16.3974C167.536 16.4212 167.833 16.445 168.237 16.4688C168.665 16.4688 169.117 16.4688 169.593 16.4688C170.116 16.4688 170.615 16.4688 171.091 16.4688C171.566 16.445 172.173 16.4331 172.91 16.4331C173.885 16.4331 174.682 16.4569 175.3 16.5044C175.942 16.5282 176.667 16.5401 177.476 16.5401C178.236 16.5401 179.045 16.5282 179.901 16.5044C180.781 16.4569 181.435 16.4212 181.863 16.3974Z" fill="white"/>
<path d="M188.44 35.0521C186.847 35.0521 185.694 34.636 184.98 33.8037C184.267 32.9714 183.91 31.9608 183.91 30.7719C183.91 29.7494 184.136 28.9171 184.588 28.2751C185.063 27.633 185.67 27.1099 186.407 26.7057C187.144 26.2776 187.917 25.9328 188.725 25.6713C189.558 25.3859 190.342 25.1125 191.079 24.8509C191.84 24.5655 192.447 24.2445 192.899 23.8878C193.374 23.5311 193.612 23.0793 193.612 22.5324V19.7503C193.612 19.132 193.505 18.5851 193.291 18.1095C193.101 17.6102 192.792 17.2297 192.364 16.9681C191.959 16.7066 191.424 16.5758 190.758 16.5758C190.283 16.5758 189.807 16.6471 189.332 16.7898C188.856 16.9087 188.464 17.1227 188.155 17.4318C188.82 17.6696 189.332 18.0382 189.688 18.5375C190.069 19.0131 190.259 19.56 190.259 20.1783C190.259 20.9868 189.974 21.6288 189.403 22.1044C188.856 22.58 188.202 22.8178 187.441 22.8178C186.585 22.8178 185.931 22.5562 185.48 22.0331C185.052 21.4862 184.837 20.8322 184.837 20.0713C184.837 19.3817 185.004 18.811 185.337 18.3592C185.694 17.9074 186.181 17.4794 186.799 17.0751C187.465 16.6947 188.262 16.3974 189.189 16.1834C190.14 15.9694 191.163 15.8624 192.257 15.8624C193.35 15.8624 194.337 15.9813 195.217 16.2191C196.097 16.4331 196.834 16.8373 197.428 17.4318C197.975 17.9787 198.332 18.6564 198.499 19.4649C198.665 20.2496 198.748 21.2484 198.748 22.4611V32.1629C198.748 32.7336 198.808 33.1379 198.927 33.3757C199.045 33.6135 199.248 33.7324 199.533 33.7324C199.771 33.7324 199.997 33.6729 200.211 33.554C200.425 33.4351 200.627 33.2924 200.817 33.126L201.174 33.7324C200.674 34.1604 200.092 34.4933 199.426 34.7311C198.784 34.9451 198.059 35.0521 197.25 35.0521C195.823 35.0521 194.872 34.7667 194.397 34.196C193.945 33.6016 193.707 32.9239 193.683 32.1629C193.089 33.1379 192.352 33.8631 191.472 34.3387C190.616 34.8143 189.605 35.0521 188.44 35.0521ZM191.187 32.7693C191.638 32.7693 192.054 32.6623 192.435 32.4483C192.839 32.2343 193.231 31.8538 193.612 31.3069V23.9948C193.327 24.4704 192.922 24.8747 192.399 25.2076C191.9 25.5167 191.377 25.8615 190.83 26.242C190.307 26.5986 189.867 27.0623 189.51 27.633C189.153 28.2037 188.975 28.9647 188.975 29.9158C188.975 30.9383 189.189 31.6755 189.617 32.1273C190.045 32.5553 190.568 32.7693 191.187 32.7693Z" fill="white"/>
<path d="M243.641 9.54907V10.2624C242.927 10.2862 242.38 10.3813 242 10.5478C241.643 10.6905 241.406 10.9758 241.287 11.4038C241.168 11.8081 241.108 12.4501 241.108 13.3299V31.0215C241.108 31.8776 241.168 32.5196 241.287 32.9476C241.429 33.3757 241.679 33.661 242.036 33.8037C242.392 33.9464 242.927 34.0415 243.641 34.089V34.8024C242.904 34.7549 241.964 34.7311 240.823 34.7311C239.682 34.7073 238.516 34.6954 237.327 34.6954C236.043 34.6954 234.831 34.7073 233.689 34.7311C232.572 34.7311 231.668 34.7549 230.978 34.8024V34.089C231.787 34.0415 232.393 33.9464 232.798 33.8037C233.226 33.661 233.511 33.3757 233.654 32.9476C233.796 32.5196 233.868 31.8776 233.868 31.0215V11.9389L234.224 11.8675L225.271 34.7667H224.701L214.642 11.8675V27.8114C214.642 29.4046 214.702 30.6292 214.821 31.4852C214.963 32.3175 215.284 32.9239 215.784 33.3043C216.307 33.661 217.127 33.9226 218.245 34.089V34.8024C217.769 34.7549 217.151 34.7311 216.39 34.7311C215.629 34.7073 214.916 34.6954 214.25 34.6954C213.727 34.6954 213.192 34.7073 212.645 34.7311C212.098 34.7311 211.646 34.7549 211.289 34.8024V34.089C212.027 33.9226 212.573 33.6729 212.93 33.34C213.287 32.9833 213.525 32.4245 213.643 31.6636C213.762 30.9027 213.822 29.8564 213.822 28.5247V13.3299C213.822 12.4501 213.762 11.8081 213.643 11.4038C213.525 10.9758 213.275 10.6905 212.894 10.5478C212.538 10.3813 212.003 10.2862 211.289 10.2624V9.54907C211.646 9.57285 212.098 9.59663 212.645 9.62041C213.192 9.64419 213.727 9.65608 214.25 9.65608C215.629 9.65608 216.949 9.64419 218.209 9.62041C219.469 9.59663 220.611 9.57285 221.633 9.54907L228.696 25.4573L227.626 26.6343L234.224 9.65608C234.7 9.65608 235.211 9.65608 235.758 9.65608C236.305 9.65608 236.828 9.65608 237.327 9.65608C238.516 9.65608 239.682 9.64419 240.823 9.62041C241.964 9.59663 242.904 9.57285 243.641 9.54907Z" fill="white"/>
<path d="M249.776 35.0521C248.159 35.0521 246.982 34.6241 246.245 33.768C245.531 32.8882 245.175 31.8776 245.175 30.7362C245.175 29.7137 245.401 28.8814 245.852 28.2394C246.304 27.5974 246.887 27.0742 247.6 26.67C248.337 26.2657 249.11 25.9328 249.919 25.6713C250.727 25.3859 251.488 25.1125 252.201 24.8509C252.939 24.5893 253.533 24.2921 253.985 23.9592C254.437 23.6025 254.663 23.1507 254.663 22.6038V19.4293C254.663 19.0488 254.591 18.6327 254.449 18.1809C254.33 17.7291 254.092 17.3367 253.735 17.0038C253.379 16.6709 252.844 16.5044 252.13 16.5044C251.75 16.5044 251.381 16.5639 251.024 16.6828C250.692 16.7779 250.394 16.9206 250.133 17.1108C250.965 17.4199 251.571 17.8598 251.952 18.4305C252.332 18.9775 252.522 19.5838 252.522 20.2496C252.522 21.2008 252.19 21.9498 251.524 22.4968C250.858 23.0437 250.073 23.3171 249.17 23.3171C248.218 23.3171 247.481 23.0199 246.958 22.4254C246.435 21.8309 246.173 21.0938 246.173 20.214C246.173 19.4768 246.352 18.8586 246.709 18.3592C247.089 17.8361 247.648 17.3605 248.385 16.9325C249.098 16.5282 249.954 16.2429 250.953 16.0764C251.952 15.8862 252.998 15.7911 254.092 15.7911C255.257 15.7911 256.339 15.91 257.338 16.1478C258.336 16.3618 259.193 16.8373 259.906 17.5745C260.405 18.0976 260.726 18.7516 260.869 19.5363C261.012 20.321 261.083 21.3316 261.083 22.5681V32.1273C261.083 32.7218 261.119 33.126 261.19 33.34C261.285 33.554 261.44 33.661 261.654 33.661C261.844 33.661 262.022 33.6016 262.189 33.4827C262.379 33.3638 262.557 33.2449 262.724 33.126L263.08 33.7324C262.557 34.1842 261.903 34.5171 261.119 34.7311C260.358 34.9451 259.549 35.0521 258.693 35.0521C257.148 35.0521 256.113 34.7786 255.59 34.2317C255.091 33.6848 254.817 33.0547 254.77 32.3413C254.294 33.126 253.652 33.7799 252.844 34.3031C252.035 34.8024 251.013 35.0521 249.776 35.0521ZM253.343 32.1986C253.604 32.1986 253.83 32.1629 254.021 32.0916C254.235 31.9965 254.449 31.83 254.663 31.5922V24.0662C254.425 24.4942 254.128 24.8747 253.771 25.2076C253.414 25.5167 253.058 25.8615 252.701 26.242C252.368 26.5986 252.083 27.0504 251.845 27.5974C251.631 28.1205 251.524 28.7982 251.524 29.6305C251.524 30.5816 251.69 31.2474 252.023 31.6279C252.38 32.0084 252.82 32.1986 253.343 32.1986Z" fill="white"/>
<path d="M271.578 15.7911C272.625 15.7911 273.54 15.91 274.325 16.1478C275.133 16.3618 275.716 16.5639 276.073 16.7541C276.905 17.2535 277.416 16.9444 277.606 15.8267H278.32C278.272 16.5163 278.237 17.3605 278.213 18.3592C278.189 19.3341 278.177 20.6301 278.177 22.2471H277.464C277.369 21.3673 277.155 20.4993 276.822 19.6433C276.513 18.7872 276.049 18.0739 275.431 17.5032C274.836 16.9325 274.051 16.6471 273.076 16.6471C272.482 16.6471 271.983 16.8255 271.578 17.1821C271.174 17.5388 270.972 18.0263 270.972 18.6446C270.972 19.3579 271.186 20 271.614 20.5707C272.042 21.1176 272.589 21.6526 273.255 22.1757C273.921 22.6751 274.586 23.2101 275.252 23.7808C276.346 24.6607 277.262 25.5405 277.999 26.4203C278.736 27.3001 279.104 28.4296 279.104 29.8088C279.104 30.8789 278.772 31.83 278.106 32.6623C277.464 33.4946 276.596 34.1485 275.502 34.6241C274.432 35.0759 273.231 35.3018 271.899 35.3018C271.067 35.3018 270.342 35.2067 269.724 35.0164C269.105 34.85 268.606 34.6479 268.226 34.4101C267.845 34.2198 267.512 34.0772 267.227 33.982C266.965 33.8631 266.704 33.8037 266.442 33.8037C266.204 33.8037 266.002 33.9345 265.836 34.196C265.669 34.4338 265.539 34.7192 265.443 35.0521H264.73C264.778 34.2912 264.813 33.3638 264.837 32.2699C264.861 31.1761 264.873 29.7256 264.873 27.9184H265.586C265.729 29.1787 266.002 30.2963 266.406 31.2712C266.835 32.2462 267.37 33.019 268.012 33.5897C268.677 34.1366 269.438 34.4101 270.294 34.4101C270.841 34.4101 271.317 34.2555 271.721 33.9464C272.149 33.6135 272.363 33.1141 272.363 32.4483C272.363 31.402 272.042 30.5222 271.4 29.8088C270.782 29.0954 269.997 28.3107 269.046 27.4547C268.333 26.7889 267.655 26.1468 267.013 25.5286C266.395 24.8866 265.883 24.197 265.479 23.4598C265.075 22.6989 264.873 21.8547 264.873 20.9273C264.873 19.8573 265.182 18.9418 265.8 18.1809C266.442 17.4199 267.274 16.8373 268.297 16.4331C269.319 16.0051 270.413 15.7911 271.578 15.7911Z" fill="white"/>
<path d="M289.152 10.5121V16.2904H292.647V17.0038H289.152V31.8063C289.152 32.2581 289.235 32.591 289.401 32.805C289.568 32.9952 289.841 33.0903 290.222 33.0903C290.483 33.0903 290.792 33.019 291.149 32.8763C291.506 32.7099 291.839 32.4364 292.148 32.0559L292.683 32.484C292.183 33.34 291.518 34.0296 290.685 34.5527C289.877 35.0521 288.854 35.3018 287.618 35.3018C286.833 35.3018 286.12 35.1948 285.478 34.9808C284.859 34.7905 284.348 34.4933 283.944 34.089C283.421 33.5659 283.088 32.9239 282.945 32.1629C282.803 31.3782 282.731 30.3676 282.731 29.1311V17.0038H280.02V16.2904H282.731V12.0815C283.992 12.0815 285.133 11.9626 286.155 11.7249C287.202 11.4633 288.2 11.059 289.152 10.5121Z" fill="white"/>
<path d="M302.697 15.7911C304.789 15.7911 306.43 16.4093 307.619 17.6458C308.832 18.8586 309.438 20.9036 309.438 23.7808H298.274L298.202 23.1031H304.23C304.254 21.938 304.207 20.8679 304.088 19.893C303.969 18.8942 303.779 18.0976 303.517 17.5032C303.256 16.9087 302.899 16.6114 302.447 16.6114C301.805 16.6114 301.282 17.1227 300.878 18.1452C300.473 19.1439 300.212 20.8679 300.093 23.3171L300.236 23.6025C300.212 23.8403 300.2 24.0781 300.2 24.3159C300.2 24.5536 300.2 24.8033 300.2 25.0649C300.2 26.7294 300.402 28.0254 300.806 28.9528C301.234 29.8802 301.757 30.5222 302.376 30.8789C303.018 31.2356 303.66 31.4139 304.302 31.4139C304.777 31.4139 305.419 31.295 306.228 31.0572C307.036 30.7956 307.833 30.1179 308.618 29.0241L309.224 29.2381C308.939 30.1893 308.475 31.1404 307.833 32.0916C307.215 33.019 306.406 33.7918 305.408 34.4101C304.409 35.0045 303.196 35.3018 301.769 35.3018C300.247 35.3018 298.856 34.9926 297.596 34.3744C296.36 33.7561 295.373 32.7336 294.636 31.3069C293.898 29.8802 293.53 27.9659 293.53 25.5643C293.53 23.2815 293.934 21.4267 294.743 20C295.551 18.5494 296.645 17.4913 298.024 16.8255C299.427 16.1359 300.985 15.7911 302.697 15.7911Z" fill="white"/>
<path d="M323.783 15.7911C324.639 15.7911 325.305 15.9813 325.78 16.3618C326.256 16.7185 326.589 17.1821 326.779 17.7528C326.969 18.2998 327.064 18.8467 327.064 19.3936C327.064 20.4637 326.755 21.3197 326.137 21.9617C325.542 22.58 324.758 22.8891 323.783 22.8891C322.736 22.8891 321.94 22.6513 321.393 22.1757C320.87 21.7002 320.608 21.0819 320.608 20.321C320.608 19.5125 320.775 18.8467 321.108 18.3235C321.464 17.8004 321.904 17.3605 322.427 17.0038C321.999 17.0038 321.619 17.087 321.286 17.2535C320.905 17.4199 320.549 17.6696 320.216 18.0025C319.907 18.3116 319.657 18.6802 319.467 19.1082C319.277 19.5125 319.181 19.9524 319.181 20.428V31.1286C319.181 32.2699 319.419 33.0428 319.895 33.447C320.37 33.8513 321.155 34.0534 322.249 34.0534V34.8024C321.702 34.7786 320.882 34.7549 319.788 34.7311C318.718 34.6835 317.612 34.6597 316.471 34.6597C315.401 34.6597 314.319 34.6835 313.225 34.7311C312.131 34.7549 311.311 34.7786 310.764 34.8024V34.0534C311.501 34.0534 312.012 33.875 312.297 33.5183C312.607 33.1617 312.761 32.484 312.761 31.4852V20.1783C312.761 19.1082 312.618 18.3235 312.333 17.8242C312.048 17.301 311.525 17.0395 310.764 17.0395V16.2904C311.525 16.3618 312.262 16.3974 312.975 16.3974C314.164 16.3974 315.27 16.3618 316.292 16.2904C317.339 16.1953 318.302 16.0645 319.181 15.8981V18.4662C319.491 17.848 319.871 17.3486 320.323 16.9681C320.775 16.5639 321.286 16.2667 321.857 16.0764C322.451 15.8862 323.093 15.7911 323.783 15.7911Z" fill="white"/>
<path fill-rule="evenodd" clip-rule="evenodd" d="M34.0558 0.0783691H32.6843C32.0352 4.96577 30.7203 10.7326 28.0826 15.4745C23.5311 23.6557 14.2873 25.069 10.9289 25.4841C10.905 25.3372 10.8719 25.1937 10.8302 25.0544L11.1012 24.9692C14.723 23.8322 21.2721 21.7761 24.9584 15.1495C27.5777 10.4413 28.8915 4.84385 29.543 0.0783691H28.1705C27.5301 4.6219 26.2796 9.88372 23.8577 14.2369C20.1915 20.8267 13.9129 23.1225 10.2959 24.0005C10.1979 23.8717 10.0909 23.751 9.97579 23.6395C13.004 22.2403 17.3363 19.339 20.5908 13.4892C22.9163 9.3091 24.1417 4.38 24.7814 0.0783691H23.4074C22.7823 4.14787 21.6236 8.74051 19.4901 12.5758C15.7672 19.2682 10.4146 21.8761 7.77426 22.7999C7.30199 22.8246 6.85799 22.9638 6.4662 23.192C6.35911 23.2178 6.28006 23.2349 6.23193 23.2447V22.9698C8.98987 21.4508 12.7068 18.6074 15.5546 13.4888C17.88 9.30882 19.1054 4.3799 19.7451 0.0783691H18.3715C17.7465 4.14797 16.5878 8.74079 14.4542 12.5762C11.9627 17.0551 8.75735 19.6817 6.23193 21.1767V19.2727C7.91909 17.6156 9.38872 15.6718 10.6029 13.4892C12.9285 9.3091 14.1539 4.38 14.7935 0.0783691H13.422C12.7972 4.14595 11.6381 8.73729 9.50248 12.5758C8.56709 14.2568 7.47069 15.7876 6.23193 17.1421V15.8404C6.59085 15.0517 6.92715 14.2166 7.23351 13.3564C8.6572 9.36 9.43326 4.67623 9.85286 0.521076C9.34748 0.715219 8.86689 0.96943 8.41787 1.27612C8.01796 4.84514 7.34832 8.7113 6.23193 12.0738V3.56363C5.48303 4.74872 5.0054 6.16518 4.90069 7.69886V15.5C4.88472 15.6016 4.88505 15.7051 4.90069 15.8046V18.7366C4.88472 18.8381 4.88439 18.9429 4.90069 19.0452V22.2854C4.88339 22.3898 4.88272 22.4982 4.90069 22.6063V24.1419C4.88272 24.2499 4.88339 24.3584 4.90069 24.4627L4.90066 25.6516C4.8863 25.7793 4.87891 25.9094 4.87891 26.0413C4.87891 26.1732 4.8863 26.3032 4.90065 26.431L4.90056 31.3999C4.88659 31.4897 4.88459 31.5839 4.8969 31.6789L4.87891 31.9059V38.8753C4.87891 41.5579 6.01749 43.9419 7.78155 45.4509C8.2642 45.3519 8.72693 45.0754 9.09839 44.6216L9.23445 44.4554C9.63029 43.9721 10.3089 43.9413 10.7323 44.3779C10.7723 44.4412 10.8202 44.4969 10.873 44.5428L10.9549 44.6427C11.9052 45.8038 13.453 45.8038 14.4034 44.6427L14.4799 44.5493C14.8249 44.1285 15.3418 44.0444 15.7559 44.2938C15.8002 44.336 15.8484 44.371 15.8993 44.3978C15.9512 44.4421 16.0004 44.4928 16.047 44.5493C16.5077 45.1114 17.1201 45.4213 17.7717 45.4213C18.4231 45.4213 19.0354 45.1118 19.4962 44.5493L19.6013 44.4213C20.4242 43.4157 20.7941 41.98 20.5906 40.5809C20.5901 40.5779 20.5831 40.5464 20.5707 40.4927L20.4909 40.3581L10.7819 27.177C10.7955 27.1381 10.8085 27.0988 10.8208 27.0592C11.1318 26.9837 11.5537 26.9044 12.0642 26.8084C15.8925 26.0888 24.7077 24.4318 29.183 16.3875C32.0226 11.2837 33.3982 5.18143 34.0558 0.0783691ZM9.83871 28.5682C9.92623 28.493 10.0098 28.4127 10.0889 28.3278L19.2893 40.9237C19.3984 41.7822 19.1655 42.6562 18.6609 43.2728L18.5561 43.4007C18.1237 43.9283 17.4205 43.9275 16.9887 43.4007C16.9099 43.3045 16.8267 43.2159 16.7402 43.1355L9.83871 28.5682ZM8.05498 29.2839C8.29242 29.2734 8.52284 29.2339 8.74322 29.1688L15.2273 42.5303C14.615 42.5421 14.0059 42.8321 13.5399 43.4011L13.4633 43.4945C13.0312 44.0221 12.3284 44.0221 11.8963 43.4945L11.8663 43.458L8.05498 29.2839ZM6.23191 28.7392C6.27134 28.7673 6.31142 28.7945 6.35212 28.8207L10.3362 42.4617C9.61033 42.3472 8.85058 42.6282 8.29473 43.3073L8.15868 43.4734C8.11776 43.5234 8.07419 43.5685 8.02861 43.6095L6.2318 31.5807L6.23191 28.7392ZM5.4483 34.0392V41.5174C5.4483 41.8736 5.56639 42.2221 5.77263 42.4735L6.5916 43.4734C6.61854 43.5063 6.64681 43.5376 6.67609 43.5664L5.4483 34.0392ZM8.66308 24.6206C9.19045 24.8928 9.55101 25.4429 9.55101 26.0772C9.55101 26.9819 8.81764 27.7153 7.91297 27.7153C7.0083 27.7153 6.27493 26.9819 6.27493 26.0772C6.27493 25.369 6.72433 24.7658 7.35351 24.5372C7.53034 24.4608 7.7237 24.4186 7.92629 24.4186C8.19354 24.4186 8.44472 24.4919 8.66308 24.6206Z" fill="#EF560B"/>
<path d="M15.9742 28.408L17.0947 29.8891L53.5167 30.0472V28.4207H18.2108L15.9742 28.408Z" fill="#EF560B"/>
<path d="M24.2811 25.1683L44.222 25.1676C44.213 25.0627 44.2084 24.9566 44.2084 24.8496C44.2084 24.389 44.2934 23.9477 44.4489 23.541L27.3646 23.5418C26.5607 24.1341 25.1134 24.6766 24.2811 25.1683Z" fill="#EF560B"/>
<path d="M29.8876 20.2886L45.4024 20.2879V18.6613L31.1188 18.6621C30.7418 19.2142 30.3322 19.7598 29.8876 20.2886Z" fill="#EF560B"/>
<path d="M32.9831 15.4091L45.4024 15.4083V13.7817L33.7052 13.7824C33.4923 14.3026 33.2526 14.8487 32.9831 15.4091Z" fill="#EF560B"/>
<path d="M34.8437 10.5293L45.4024 10.5285L45.4024 8.90199L35.291 8.9027C35.288 8.91389 35.2846 8.92648 35.2809 8.94061C35.2667 8.99379 35.252 9.04984 35.2346 9.11613L35.1923 9.27672C35.1195 9.553 35.0217 9.91796 34.8967 10.3482C34.8796 10.4073 34.8619 10.4677 34.8437 10.5293Z" fill="#EF560B"/>
<path d="M36.0442 5.6496L45.4024 5.64887V4.02231L36.3924 4.02305C36.3292 4.32025 36.2664 4.61486 36.2046 4.90302C36.1511 5.15313 36.0973 5.40327 36.0442 5.6496Z" fill="#EF560B"/>
<path d="M36.8765 1.73029L44.9347 1.72958C45.0919 1.72958 45.2479 1.735 45.4024 1.74567V0.0902476C45.2476 0.0817154 45.0917 0.0773926 44.9347 0.0773926L37.2216 0.0781086C37.1186 0.573584 37.0012 1.13594 36.8765 1.73029Z" fill="#EF560B"/>
<path fill-rule="evenodd" clip-rule="evenodd" d="M48.6033 1.52994L47.0546 0.596928L47.0546 23.0173C46.7803 23.1363 46.538 23.3165 46.3447 23.541C46.1894 23.7214 46.0655 23.9304 45.982 24.1591C45.9035 24.3743 45.8606 24.607 45.8606 24.8498C45.8606 24.9529 45.8683 25.0543 45.8832 25.1532C46.0276 26.1096 46.8438 26.8423 47.829 26.8423C48.8206 26.8423 49.641 26.1001 49.7775 25.1345C49.7906 25.0415 49.7974 24.9464 49.7974 24.8498C49.7974 24.6442 49.7667 24.4459 49.7096 24.2594C49.6276 23.9913 49.4912 23.7474 49.3135 23.541C49.1201 23.3165 48.8777 23.1363 48.6033 23.0173V1.52994ZM48.8476 24.8417C48.8476 25.3769 48.4138 25.8108 47.8785 25.8108C47.3433 25.8108 46.9094 25.3769 46.9094 24.8417C46.9094 24.3065 47.3433 23.8726 47.8785 23.8726C48.4138 23.8726 48.8476 24.3065 48.8476 24.8417Z" fill="#EF560B"/>
<path d="M51.4359 25.1676C51.445 25.0627 51.4496 24.9566 51.4496 24.8496C51.4496 24.389 51.3646 23.9477 51.2091 23.541H53.5167V25.1676H51.4359Z" fill="#EF560B"/>
<path d="M53.5167 20.2879H50.2555V18.6613H53.5167V20.2879Z" fill="#EF560B"/>
<path d="M50.2555 15.4082L53.5167 15.4082V13.7817H50.2555V15.4082Z" fill="#EF560B"/>
<path d="M53.5167 10.5285H50.2555V8.90199H53.5167V10.5285Z" fill="#EF560B"/>
<path d="M50.2555 5.64887H52.8938V5.39109C52.6683 4.89631 52.3852 4.43685 52.0502 4.02231H52.0249C51.5493 3.25265 50.9504 2.56634 50.2555 1.99059V5.64887Z" fill="#EF560B"/>
<path d="M18.7262 33.3004H53.5167V34.9269H20.2648L18.7262 33.3004Z" fill="#EF560B"/>
<path d="M53.5167 38.18H22.1599L23.5415 39.8066H53.5167V38.18Z" fill="#EF560B"/>
<path d="M22.8153 43.0597H53.0006C52.7466 43.6494 52.4055 44.1964 51.9925 44.6863H22.4091L22.8153 43.0597Z" fill="#EF560B"/>
<path d="M9.10211 47.7646C10.3036 48.4348 11.6898 48.8169 13.1657 48.8169H44.9347C48.0118 48.8169 50.6985 47.1558 52.136 44.6867H50.1267C48.9078 46.1975 47.0349 47.1648 44.9347 47.1648H13.1657C12.2845 47.1648 11.4433 46.9945 10.6736 46.6852L9.10211 47.7646Z" fill="#EF560B"/>
</g>
<defs>
<filter id="filter0_d" x="0.878906" y="0.0773926" width="330.185" height="56.7396" filterUnits="userSpaceOnUse" color-interpolation-filters="sRGB">
<feFlood flood-opacity="0" result="BackgroundImageFix"/>
<feColorMatrix in="SourceAlpha" type="matrix" values="0 0 0 0 0 0 0 0 0 0 0 0 0 0 0 0 0 0 127 0"/>
<feOffset dy="4"/>
<feGaussianBlur stdDeviation="2"/>
<feColorMatrix type="matrix" values="0 0 0 0 0.358333 0 0 0 0 0.0654347 0 0 0 0 0 0 0 0 1 0"/>
<feBlend mode="normal" in2="BackgroundImageFix" result="effect1_dropShadow"/>
<feBlend mode="normal" in="SourceGraphic" in2="effect1_dropShadow" result="shape"/>
</filter>
</defs>
</svg>
