<svg width="401" height="62" viewBox="0 0 401 62" fill="none" xmlns="http://www.w3.org/2000/svg">
<path d="M108.196 42.12C107.991 44.2613 107.888 46.168 107.888 47.84C107.888 49.0427 107.932 49.996 108.02 50.7H107.008C106.568 47.884 105.747 45.8893 104.544 44.716C103.341 43.572 101.669 43 99.528 43H88.88C86.7387 43 85.0667 43.572 83.864 44.716C82.6614 45.8893 81.84 47.884 81.4 50.7H80.388C80.476 49.996 80.52 49.0427 80.52 47.84C80.52 46.168 80.4174 44.2613 80.212 42.12H81.004C83.028 42.12 84.5827 40.9613 85.668 38.644C86.7827 36.3267 87.5454 33.54 87.956 30.284C88.396 27.028 88.7774 22.804 89.1 17.612L89.188 16.512C89.2467 15.456 89.188 14.6787 89.012 14.18C88.8654 13.652 88.5427 13.3 88.044 13.124C87.5454 12.9187 86.7387 12.7867 85.624 12.728V11.848C86.856 11.936 88.3667 11.98 90.156 11.98C90.596 11.98 91.256 11.9507 92.136 11.892L94.028 11.848L96.976 11.892C98.3254 11.9507 99.44 11.98 100.32 11.98C103.341 11.98 105.615 11.936 107.14 11.848V12.728C106.084 12.7867 105.307 12.904 104.808 13.08C104.339 13.256 104.016 13.5933 103.84 14.092C103.664 14.5907 103.576 15.3973 103.576 16.512V38.336C103.576 39.4507 103.649 40.272 103.796 40.8C103.972 41.2987 104.28 41.6507 104.72 41.856C105.189 42.032 105.908 42.12 106.876 42.12H108.196ZM96.58 16.512C96.58 15.456 96.4774 14.664 96.272 14.136C96.096 13.5787 95.788 13.212 95.348 13.036C94.9374 12.8307 94.336 12.728 93.544 12.728H92.972C92.2974 12.728 91.784 12.8307 91.432 13.036C91.08 13.2413 90.8014 13.608 90.596 14.136C90.42 14.664 90.288 15.456 90.2 16.512L89.848 20.824C89.584 24.6373 89.2907 27.82 88.968 30.372C88.6454 32.8947 88.088 35.256 87.296 37.456C86.504 39.656 85.3894 41.2107 83.952 42.12H93.016C94.0427 42.12 94.8054 42.032 95.304 41.856C95.8027 41.6507 96.14 41.2987 96.316 40.8C96.492 40.272 96.58 39.4507 96.58 38.336V16.512ZM115.519 43.308C113.642 43.308 112.234 42.824 111.295 41.856C110.386 40.888 109.931 39.612 109.931 38.028C109.931 36.708 110.269 35.6227 110.943 34.772C111.647 33.892 112.483 33.2173 113.451 32.748C114.449 32.2787 115.71 31.78 117.235 31.252C118.849 30.6947 120.022 30.196 120.755 29.756C121.518 29.2867 121.899 28.656 121.899 27.864V24.432C121.899 23.2 121.606 22.2467 121.019 21.572C120.462 20.868 119.582 20.516 118.379 20.516C116.971 20.516 115.901 20.868 115.167 21.572C115.989 21.8653 116.619 22.3053 117.059 22.892C117.529 23.4787 117.763 24.168 117.763 24.96C117.763 25.9573 117.426 26.7493 116.751 27.336C116.077 27.9227 115.255 28.216 114.287 28.216C113.261 28.216 112.469 27.8933 111.911 27.248C111.354 26.6027 111.075 25.796 111.075 24.828C111.075 24.0067 111.266 23.3173 111.647 22.76C112.058 22.1733 112.674 21.6307 113.495 21.132C114.287 20.6627 115.255 20.296 116.399 20.032C117.573 19.768 118.849 19.636 120.227 19.636C121.665 19.636 122.911 19.7827 123.967 20.076C125.023 20.3693 125.903 20.868 126.607 21.572C127.253 22.2173 127.678 23.0093 127.883 23.948C128.118 24.8867 128.235 26.1627 128.235 27.776V39.744C128.235 40.448 128.294 40.9467 128.411 41.24C128.558 41.5333 128.822 41.68 129.203 41.68C129.643 41.68 130.171 41.4307 130.787 40.932L131.227 41.68C129.907 42.7653 128.294 43.308 126.387 43.308C124.774 43.308 123.645 42.9853 122.999 42.34C122.354 41.6947 122.017 40.8293 121.987 39.744C120.521 42.12 118.365 43.308 115.519 43.308ZM118.907 40.492C120.051 40.492 121.049 39.8907 121.899 38.688V29.668C121.547 30.2547 120.799 30.9 119.655 31.604C118.511 32.3373 117.646 33.0707 117.059 33.804C116.473 34.5373 116.179 35.5933 116.179 36.972C116.179 38.1747 116.429 39.0693 116.927 39.656C117.426 40.2133 118.086 40.492 118.907 40.492ZM158.401 21.22C157.374 21.22 156.641 21.4547 156.201 21.924C155.79 22.364 155.585 23.1853 155.585 24.388V38.908C155.585 40.1107 155.79 40.9467 156.201 41.416C156.641 41.856 157.374 42.076 158.401 42.076V43C155.467 42.8827 153.531 42.824 152.593 42.824C151.713 42.824 149.806 42.8827 146.873 43V42.076C147.753 42.076 148.369 41.856 148.721 41.416C149.073 40.9467 149.249 40.1107 149.249 38.908V31.736H141.637V38.908C141.637 40.1107 141.813 40.9467 142.165 41.416C142.517 41.856 143.133 42.076 144.013 42.076V43C141.314 42.8827 139.495 42.824 138.557 42.824C137.677 42.824 135.653 42.8827 132.485 43V42.076C133.541 42.076 134.274 41.856 134.685 41.416C135.095 40.9467 135.301 40.1107 135.301 38.908V24.388C135.301 23.1853 135.095 22.364 134.685 21.924C134.274 21.4547 133.541 21.22 132.485 21.22V20.296C135.535 20.4133 137.471 20.472 138.293 20.472C139.29 20.472 141.197 20.4133 144.013 20.296V21.22C143.133 21.22 142.517 21.4547 142.165 21.924C141.813 22.364 141.637 23.1853 141.637 24.388V30.856H149.249V24.388C149.249 23.1853 149.073 22.364 148.721 21.924C148.369 21.4547 147.753 21.22 146.873 21.22V20.296C149.689 20.4133 151.507 20.472 152.329 20.472C153.326 20.472 155.35 20.4133 158.401 20.296V21.22ZM187.208 21.22C186.182 21.22 185.448 21.4547 185.008 21.924C184.598 22.364 184.392 23.1853 184.392 24.388V38.908C184.392 40.1107 184.598 40.9467 185.008 41.416C185.448 41.856 186.182 42.076 187.208 42.076V43C184.275 42.8827 182.339 42.824 181.4 42.824C180.52 42.824 178.614 42.8827 175.68 43V42.076C176.56 42.076 177.176 41.856 177.528 41.416C177.88 40.9467 178.056 40.1107 178.056 38.908V25.576L169.696 39.744C169.755 40.624 169.96 41.24 170.312 41.592C170.694 41.9147 171.266 42.076 172.028 42.076V43C169.33 42.8827 167.511 42.824 166.572 42.824C165.692 42.824 163.668 42.8827 160.5 43V42.076C161.556 42.076 162.29 41.856 162.7 41.416C163.111 40.9467 163.316 40.1107 163.316 38.908V24.388C163.316 23.1853 163.111 22.364 162.7 21.924C162.29 21.4547 161.556 21.22 160.5 21.22V20.296C163.551 20.4133 165.487 20.472 166.308 20.472C167.306 20.472 169.212 20.4133 172.028 20.296V21.22C171.148 21.22 170.532 21.4547 170.18 21.924C169.828 22.364 169.652 23.1853 169.652 24.388V38.116L178.056 23.904C178.027 22.8773 177.822 22.1733 177.44 21.792C177.088 21.4107 176.502 21.22 175.68 21.22V20.296C178.496 20.4133 180.315 20.472 181.136 20.472C182.134 20.472 184.158 20.4133 187.208 20.296V21.22ZM213.796 21.22C212.828 21.22 212.154 21.4547 211.772 21.924C211.42 22.364 211.244 23.1853 211.244 24.388V38.908C211.244 40.1107 211.435 40.9467 211.816 41.416C212.198 41.856 212.858 42.076 213.796 42.076V43C210.98 42.8827 209.103 42.824 208.164 42.824C207.402 42.824 205.568 42.868 202.664 42.956C202.43 42.9853 202.122 43 201.74 43V42.076C202.855 42.076 203.662 41.856 204.16 41.416C204.659 40.9467 204.908 40.1107 204.908 38.908V24.388C204.908 23.1853 204.732 22.364 204.38 21.924C204.028 21.4547 203.412 21.22 202.532 21.22H202.136C201.608 21.22 201.212 21.3227 200.948 21.528C200.714 21.704 200.552 21.9973 200.464 22.408C200.376 22.8187 200.288 23.4787 200.2 24.388C199.878 27.9373 199.54 30.8267 199.188 33.056C198.866 35.2853 198.367 37.28 197.692 39.04C196.431 42.0907 194.73 43.616 192.588 43.616C191.474 43.616 190.491 43.2787 189.64 42.604C188.79 41.9 188.364 40.9027 188.364 39.612C188.364 38.4973 188.687 37.632 189.332 37.016C189.978 36.3707 190.814 36.048 191.84 36.048C192.838 36.048 193.615 36.356 194.172 36.972C194.759 37.5587 195.052 38.3067 195.052 39.216C195.052 40.8 194.114 41.988 192.236 42.78C192.412 42.8387 192.603 42.868 192.808 42.868C194.392 42.868 195.756 41.5187 196.9 38.82C197.546 37.1187 198.059 35.0653 198.44 32.66C198.822 30.2253 199.13 27.468 199.364 24.388C199.452 23.2147 199.203 22.3933 198.616 21.924C198.059 21.4547 197.15 21.22 195.888 21.22V20.296C196.534 20.3547 197.458 20.384 198.66 20.384L202.752 20.34C203.603 20.34 204.644 20.3693 205.876 20.428L208.384 20.472C209.176 20.472 210.98 20.4133 213.796 20.296V21.22ZM221.91 43.308C220.033 43.308 218.625 42.824 217.686 41.856C216.777 40.888 216.322 39.612 216.322 38.028C216.322 36.708 216.659 35.6227 217.334 34.772C218.038 33.892 218.874 33.2173 219.842 32.748C220.839 32.2787 222.101 31.78 223.626 31.252C225.239 30.6947 226.413 30.196 227.146 29.756C227.909 29.2867 228.29 28.656 228.29 27.864V24.432C228.29 23.2 227.997 22.2467 227.41 21.572C226.853 20.868 225.973 20.516 224.77 20.516C223.362 20.516 222.291 20.868 221.558 21.572C222.379 21.8653 223.01 22.3053 223.45 22.892C223.919 23.4787 224.154 24.168 224.154 24.96C224.154 25.9573 223.817 26.7493 223.142 27.336C222.467 27.9227 221.646 28.216 220.678 28.216C219.651 28.216 218.859 27.8933 218.302 27.248C217.745 26.6027 217.466 25.796 217.466 24.828C217.466 24.0067 217.657 23.3173 218.038 22.76C218.449 22.1733 219.065 21.6307 219.886 21.132C220.678 20.6627 221.646 20.296 222.79 20.032C223.963 19.768 225.239 19.636 226.618 19.636C228.055 19.636 229.302 19.7827 230.358 20.076C231.414 20.3693 232.294 20.868 232.998 21.572C233.643 22.2173 234.069 23.0093 234.274 23.948C234.509 24.8867 234.626 26.1627 234.626 27.776V39.744C234.626 40.448 234.685 40.9467 234.802 41.24C234.949 41.5333 235.213 41.68 235.594 41.68C236.034 41.68 236.562 41.4307 237.178 40.932L237.618 41.68C236.298 42.7653 234.685 43.308 232.778 43.308C231.165 43.308 230.035 42.9853 229.39 42.34C228.745 41.6947 228.407 40.8293 228.378 39.744C226.911 42.12 224.755 43.308 221.91 43.308ZM225.298 40.492C226.442 40.492 227.439 39.8907 228.29 38.688V29.668C227.938 30.2547 227.19 30.9 226.046 31.604C224.902 32.3373 224.037 33.0707 223.45 33.804C222.863 34.5373 222.57 35.5933 222.57 36.972C222.57 38.1747 222.819 39.0693 223.318 39.656C223.817 40.2133 224.477 40.492 225.298 40.492ZM290.004 12.728C289.066 12.7867 288.376 12.904 287.936 13.08C287.526 13.256 287.247 13.5933 287.1 14.092C286.954 14.5907 286.88 15.3973 286.88 16.512V38.336C286.88 39.4507 286.954 40.2573 287.1 40.756C287.276 41.2547 287.57 41.592 287.98 41.768C288.391 41.944 289.066 42.0613 290.004 42.12V43C288.215 42.912 285.619 42.868 282.216 42.868C278.667 42.868 276.056 42.912 274.384 43V42.12C275.44 42.0613 276.203 41.944 276.672 41.768C277.171 41.592 277.508 41.2547 277.684 40.756C277.86 40.2573 277.948 39.4507 277.948 38.336V15.852L267.344 42.956H266.64L254.232 14.708V34.376C254.232 36.5467 254.32 38.116 254.496 39.084C254.672 40.0227 255.054 40.712 255.64 41.152C256.256 41.592 257.268 41.9147 258.676 42.12V43C257.474 42.912 255.831 42.868 253.748 42.868C252.194 42.868 250.976 42.912 250.096 43V42.12C251.006 41.9147 251.68 41.6067 252.12 41.196C252.56 40.756 252.854 40.096 253 39.216C253.147 38.336 253.22 37.016 253.22 35.256V16.512C253.22 15.3973 253.132 14.5907 252.956 14.092C252.81 13.5933 252.531 13.256 252.12 13.08C251.71 12.904 251.035 12.7867 250.096 12.728V11.848C250.976 11.936 252.194 11.98 253.748 11.98C257.268 11.98 260.304 11.936 262.856 11.848L271.172 30.548L278.388 11.98H282.216C285.619 11.98 288.215 11.936 290.004 11.848V12.728ZM297.573 43.308C295.695 43.308 294.273 42.8093 293.305 41.812C292.366 40.7853 291.897 39.5093 291.897 37.984C291.897 36.664 292.234 35.5787 292.909 34.728C293.613 33.848 294.434 33.1733 295.373 32.704C296.311 32.2347 297.529 31.7507 299.025 31.252C300.609 30.724 301.767 30.24 302.501 29.8C303.234 29.36 303.601 28.744 303.601 27.952V24.036C303.601 23.0973 303.366 22.2613 302.897 21.528C302.427 20.7947 301.621 20.428 300.477 20.428C299.567 20.428 298.746 20.6773 298.013 21.176C299.01 21.528 299.743 22.056 300.213 22.76C300.711 23.4347 300.961 24.1973 300.961 25.048C300.961 26.192 300.55 27.116 299.729 27.82C298.937 28.4947 297.969 28.832 296.825 28.832C295.681 28.832 294.771 28.48 294.097 27.776C293.451 27.0427 293.129 26.1187 293.129 25.004C293.129 24.124 293.349 23.3613 293.789 22.716C294.229 22.0707 294.918 21.484 295.857 20.956C297.499 20.0173 299.846 19.548 302.897 19.548C304.51 19.548 305.903 19.7093 307.077 20.032C308.25 20.3253 309.247 20.8973 310.069 21.748C310.655 22.364 311.037 23.1413 311.213 24.08C311.418 24.9893 311.521 26.2653 311.521 27.908V39.7C311.521 40.4333 311.565 40.932 311.653 41.196C311.77 41.46 311.961 41.592 312.225 41.592C312.43 41.592 312.65 41.5333 312.885 41.416C313.119 41.2693 313.339 41.108 313.545 40.932L313.985 41.68C312.723 42.7653 310.919 43.308 308.573 43.308C306.813 43.308 305.581 43.0147 304.877 42.428C304.173 41.812 303.791 40.9907 303.733 39.964C302.354 42.1933 300.301 43.308 297.573 43.308ZM301.973 39.788C302.589 39.788 303.131 39.5387 303.601 39.04V29.756C303.337 30.196 302.853 30.768 302.149 31.472C301.357 32.2347 300.755 32.9827 300.345 33.716C299.934 34.42 299.729 35.388 299.729 36.62C299.729 38.732 300.477 39.788 301.973 39.788ZM324.468 19.548C325.612 19.548 326.682 19.68 327.68 19.944C328.706 20.1787 329.484 20.4427 330.012 20.736C330.334 20.912 330.598 21 330.804 21C331.42 21 331.786 20.5307 331.904 19.592H332.784C332.666 21.1173 332.608 23.7573 332.608 27.512H331.728C331.493 25.576 330.936 23.948 330.056 22.628C329.205 21.2787 327.958 20.604 326.316 20.604C325.582 20.604 324.966 20.824 324.468 21.264C323.969 21.704 323.72 22.3053 323.72 23.068C323.72 24.036 324.042 24.9013 324.688 25.664C325.333 26.3973 326.345 27.3067 327.724 28.392C327.782 28.4213 328.208 28.7587 329 29.404C330.642 30.7533 331.845 31.956 332.608 33.012C333.37 34.0387 333.752 35.3147 333.752 36.84C333.752 38.1307 333.356 39.304 332.564 40.36C331.772 41.3867 330.686 42.1933 329.308 42.78C327.958 43.3373 326.477 43.616 324.864 43.616C323.016 43.616 321.505 43.2493 320.332 42.516C319.833 42.252 319.422 42.0613 319.1 41.944C318.777 41.8267 318.454 41.768 318.132 41.768C317.574 41.768 317.164 42.2813 316.9 43.308H316.02C316.137 41.636 316.196 38.7027 316.196 34.508H317.076C317.34 36.9133 317.985 38.8493 319.012 40.316C320.038 41.7827 321.329 42.516 322.884 42.516C323.617 42.516 324.218 42.3107 324.688 41.9C325.186 41.4893 325.436 40.888 325.436 40.096C325.436 39.2747 325.26 38.5413 324.908 37.896C324.585 37.2507 324.174 36.6787 323.676 36.18C323.206 35.652 322.429 34.904 321.344 33.936C320.112 32.792 319.173 31.8827 318.528 31.208C317.882 30.5333 317.325 29.756 316.856 28.876C316.416 27.9667 316.196 26.9693 316.196 25.884C316.196 24.6227 316.577 23.508 317.34 22.54C318.102 21.572 319.114 20.8387 320.376 20.34C321.637 19.812 323.001 19.548 324.468 19.548ZM346.146 20.164H350.458V21.044H346.146V39.304C346.146 39.8907 346.248 40.3013 346.454 40.536C346.659 40.7707 346.996 40.888 347.466 40.888C347.818 40.888 348.214 40.7853 348.654 40.58C349.094 40.3747 349.49 40.052 349.842 39.612L350.502 40.14C349.152 42.4573 347.07 43.616 344.254 43.616C342.23 43.616 340.719 43.1173 339.722 42.12C339.106 41.504 338.695 40.7413 338.49 39.832C338.314 38.9227 338.226 37.6467 338.226 36.004V21.044H334.882V20.164H338.226V14.972C339.81 14.972 341.232 14.8253 342.494 14.532C343.784 14.2093 345.002 13.7107 346.146 13.036V20.164ZM364.835 38.82C366.976 38.82 368.751 37.8373 370.159 35.872L370.907 36.136C370.261 38.1893 369.161 39.9493 367.607 41.416C366.081 42.8827 364.116 43.616 361.711 43.616C358.631 43.616 356.167 42.6627 354.319 40.756C352.471 38.8493 351.547 35.7987 351.547 31.604C351.547 27.5853 352.573 24.5787 354.627 22.584C356.709 20.56 359.452 19.548 362.855 19.548C368.399 19.548 371.171 22.8333 371.171 29.404H359.819C359.789 29.756 359.775 30.284 359.775 30.988C359.775 33.804 360.259 35.8133 361.227 37.016C362.224 38.2187 363.427 38.82 364.835 38.82ZM362.547 20.56C360.904 20.56 359.936 23.2293 359.643 28.568H364.747C364.776 26.2213 364.6 24.3 364.219 22.804C363.867 21.308 363.309 20.56 362.547 20.56ZM388.866 19.548C390.303 19.548 391.33 19.988 391.946 20.868C392.591 21.748 392.914 22.7893 392.914 23.992C392.914 25.312 392.533 26.368 391.77 27.16C391.037 27.9227 390.069 28.304 388.866 28.304C387.605 28.304 386.637 28.0253 385.962 27.468C385.287 26.8813 384.95 26.104 384.95 25.136C384.95 23.4053 385.698 22.0413 387.194 21.044C386.666 21.044 386.197 21.1467 385.786 21.352C385.053 21.6747 384.437 22.2027 383.938 22.936C383.439 23.64 383.19 24.4173 383.19 25.268V38.468C383.19 39.8467 383.469 40.8 384.026 41.328C384.613 41.8267 385.595 42.076 386.974 42.076V43C386.593 43 386.27 42.9853 386.006 42.956C382.926 42.868 380.873 42.824 379.846 42.824C378.937 42.824 376.898 42.868 373.73 42.956C373.495 42.9853 373.187 43 372.806 43V42.076C373.715 42.076 374.346 41.856 374.698 41.416C375.079 40.9467 375.27 40.1107 375.27 38.908V24.96C375.27 23.6107 375.079 22.628 374.698 22.012C374.346 21.396 373.715 21.088 372.806 21.088V20.164C373.745 20.252 374.654 20.296 375.534 20.296C378.585 20.296 381.137 20.0907 383.19 19.68V22.848C384.305 20.648 386.197 19.548 388.866 19.548Z" fill="black"/>
<g filter="url(#filter0_d)">
<path fill-rule="evenodd" clip-rule="evenodd" d="M35.5879 0.667202H33.9218C33.1333 6.60428 31.536 13.6097 28.3318 19.3699C22.8027 29.3083 11.5735 31.0252 7.49392 31.5293C7.46493 31.351 7.42468 31.1767 7.37399 31.0074L7.70322 30.9039C12.1028 29.5227 20.0586 27.0251 24.5366 18.9753C27.7184 13.2558 29.3144 6.45618 30.1058 0.667202H28.4386C27.6606 6.18656 26.1415 12.5785 23.1994 17.8667C18.7458 25.8717 11.1188 28.6606 6.72494 29.7272C6.60593 29.5707 6.4759 29.4241 6.33609 29.2887C10.0146 27.5889 15.2775 24.0645 19.2309 16.9584C22.0558 11.8804 23.5445 5.89271 24.3215 0.667202H22.6524C21.8931 5.61073 20.4856 11.1897 17.8938 15.8488C13.3714 23.9785 6.86918 27.1465 3.66173 28.2687C3.08802 28.2988 2.54867 28.4679 2.07274 28.7451C1.94265 28.7764 1.84661 28.7971 1.78814 28.8091V28.4751C5.13842 26.6299 9.65366 23.1758 13.113 16.9579C15.9379 11.8801 17.4265 5.89259 18.2036 0.667202H16.535C15.7757 5.61085 14.3682 11.1901 11.7763 15.8493C8.74972 21.2901 4.85597 24.4807 1.78814 26.2968V23.9839C3.83767 21.971 5.62293 19.6097 7.09785 16.9584C9.92298 11.8804 11.4116 5.89271 12.1886 0.667202H10.5225C9.76341 5.6084 8.35542 11.1858 5.76113 15.8488C4.62484 17.8908 3.29296 19.7503 1.78814 21.3957V19.8145C2.22415 18.8564 2.63268 17.842 3.00484 16.797C4.7343 11.9423 5.67704 6.25256 6.18676 1.20499C5.57283 1.44083 4.98903 1.74964 4.44357 2.1222C3.95777 6.45774 3.14431 11.1543 1.78814 15.239V4.90101C0.878405 6.34062 0.298193 8.06129 0.170988 9.92437V19.401C0.151592 19.5244 0.151996 19.6502 0.170988 19.7711V23.3327C0.151592 23.456 0.151188 23.5833 0.170988 23.7076V27.6437C0.149976 27.7705 0.149168 27.9023 0.170988 28.0335V29.8989C0.149168 30.0301 0.149976 30.1619 0.170988 30.2887L0.170962 31.7328C0.153514 31.8881 0.144538 32.0461 0.144538 32.2063C0.144538 32.3665 0.153509 32.5245 0.170945 32.6796L0.170835 38.7158C0.153864 38.8248 0.151439 38.9393 0.16639 39.0547L0.144531 39.3305V47.7967C0.144531 51.0554 1.52765 53.9514 3.67058 55.7846C4.2569 55.6642 4.81901 55.3284 5.27025 54.7771L5.43552 54.5753C5.91639 53.9882 6.74072 53.9507 7.25513 54.4811C7.30362 54.558 7.3618 54.6256 7.42605 54.6814L7.52546 54.8027C8.67993 56.2133 10.5601 56.2133 11.7146 54.8027L11.8076 54.6893C12.2266 54.1781 12.8545 54.076 13.3576 54.3789C13.4114 54.4302 13.47 54.4727 13.5318 54.5052C13.5948 54.559 13.6546 54.6207 13.7112 54.6893C14.2709 55.3721 15.0148 55.7485 15.8064 55.7485C16.5976 55.7485 17.3415 55.3726 17.9012 54.6893L18.0289 54.5339C19.0286 53.3123 19.4779 51.5682 19.2306 49.8686C19.2301 49.8649 19.2215 49.8267 19.2066 49.7614L19.1096 49.598L7.3153 33.5859C7.33188 33.5386 7.34763 33.4909 7.36253 33.4428C7.74037 33.3511 8.25283 33.2547 8.87305 33.1382C13.5236 32.264 24.232 30.2512 29.6685 20.479C33.1179 14.2791 34.789 6.86626 35.5879 0.667202ZM6.16957 35.2759C6.27589 35.1845 6.37736 35.087 6.47352 34.9839L17.6498 50.285C17.7824 51.3279 17.4995 52.3897 16.8865 53.1386L16.7592 53.294C16.2339 53.9349 15.3797 53.9339 14.8552 53.294C14.7594 53.1771 14.6584 53.0695 14.5533 52.9719L6.16957 35.2759ZM4.00274 36.1452C4.29117 36.1325 4.57108 36.0846 4.83879 36.0054L12.7155 52.2367C11.9716 52.251 11.2317 52.6033 10.6656 53.2945L10.5727 53.408C10.0478 54.0489 9.19393 54.0489 8.66902 53.408L8.63265 53.3636L4.00274 36.1452ZM1.78813 35.4836C1.83602 35.5178 1.88471 35.5508 1.93415 35.5827L6.77386 52.1534C5.89214 52.0142 4.96921 52.3556 4.29398 53.1805L4.12871 53.3823C4.07901 53.443 4.02607 53.4978 3.97071 53.5476L1.78799 38.9353L1.78813 35.4836ZM1.03448 41.2516L0.915633 48.1447C0.977603 49.4668 1.02118 49.6685 1.2484 50.4741L2.37825 53.0631C2.41098 53.1031 2.44533 53.1411 2.48089 53.1761L1.03448 41.2516ZM4.74145 30.4805C5.38207 30.8111 5.82008 31.4793 5.82008 32.2499C5.82008 33.3489 4.92919 34.2398 3.83023 34.2398C2.73127 34.2398 1.84038 33.3489 1.84038 32.2499C1.84038 31.3896 2.3863 30.6569 3.15061 30.3791C3.36542 30.2863 3.60031 30.2351 3.84641 30.2351C4.17106 30.2351 4.47619 30.3241 4.74145 30.4805Z" fill="#D85B1E"/>
<path d="M13.6228 35.0812L14.984 36.8805L59.2284 37.0726V35.0967H16.3397L13.6228 35.0812Z" fill="#D85B1E"/>
<path d="M23.7138 31.1458L47.9375 31.1449C47.9265 31.0175 47.9209 30.8886 47.9209 30.7586C47.9209 30.1992 48.0242 29.663 48.2131 29.169L27.4595 29.1699C26.4829 29.8894 24.7249 30.5484 23.7138 31.1458Z" fill="#D85B1E"/>
<path d="M30.5244 25.2181L49.3714 25.2172V23.2413L32.02 23.2422C31.562 23.9129 31.0645 24.5757 30.5244 25.2181Z" fill="#D85B1E"/>
<path d="M34.2848 19.2906L49.3714 19.2896V17.3136L35.162 17.3145C34.9034 17.9465 34.6121 18.6098 34.2848 19.2906Z" fill="#D85B1E"/>
<path d="M36.5449 13.3627L49.3714 13.3618L49.3714 11.3859L37.0883 11.3868C37.0847 11.4004 37.0806 11.4156 37.076 11.4328C37.0588 11.4974 37.0409 11.5655 37.0198 11.646L36.9685 11.8411C36.88 12.1767 36.7612 12.6201 36.6094 13.1428C36.5885 13.2146 36.5671 13.2879 36.5449 13.3627Z" fill="#D85B1E"/>
<path d="M38.0033 7.43498L49.3714 7.4341V5.4582L38.4263 5.4591C38.3495 5.82013 38.2732 6.17801 38.1982 6.52806C38.1331 6.83188 38.0678 7.13574 38.0033 7.43498Z" fill="#D85B1E"/>
<path d="M39.0143 2.67391L48.8032 2.67305C48.9942 2.67305 49.1837 2.67964 49.3714 2.6926V0.681632C49.1834 0.671267 48.9939 0.666016 48.8032 0.666016L39.4336 0.666885C39.3084 1.26878 39.1658 1.95191 39.0143 2.67391Z" fill="#D85B1E"/>
<path fill-rule="evenodd" clip-rule="evenodd" d="M53.2598 2.43053L51.3785 1.29713L51.3785 28.5328C51.0452 28.6773 50.7509 28.8963 50.516 29.169C50.3274 29.3881 50.1769 29.642 50.0755 29.9199C49.9801 30.1813 49.9279 30.4639 49.9279 30.7588C49.9279 30.8841 49.9374 31.0072 49.9555 31.1274C50.1309 32.2893 51.1223 33.1793 52.3191 33.1793C53.5237 33.1793 54.5203 32.2777 54.6861 31.1047C54.7021 30.9918 54.7103 30.8763 54.7103 30.7588C54.7103 30.5091 54.673 30.2683 54.6036 30.0417C54.504 29.716 54.3383 29.4197 54.1224 29.169C53.8875 28.8963 53.5931 28.6773 53.2598 28.5328V2.43053ZM53.5566 30.7491C53.5566 31.3992 53.0295 31.9263 52.3793 31.9263C51.7292 31.9263 51.2021 31.3992 51.2021 30.7491C51.2021 30.0989 51.7292 29.5718 52.3793 29.5718C53.0295 29.5718 53.5566 30.0989 53.5566 30.7491Z" fill="#D85B1E"/>
<path d="M56.7008 31.1449C56.7118 31.0175 56.7174 30.8886 56.7174 30.7586C56.7174 30.1992 56.6141 29.663 56.4252 29.169H59.2284V31.1449H56.7008Z" fill="#D85B1E"/>
<path d="M59.2284 25.2172H55.2668V23.2413H59.2284V25.2172Z" fill="#D85B1E"/>
<path d="M55.2668 19.2895L59.2284 19.2895V17.3136H55.2668V19.2895Z" fill="#D85B1E"/>
<path d="M59.2284 13.3618H55.2668V11.3859H59.2284V13.3618Z" fill="#D85B1E"/>
<path d="M55.2668 7.4341H58.4717V7.12095C58.1979 6.51991 57.8539 5.96177 57.4469 5.4582H57.4162C56.8385 4.52323 56.111 3.68953 55.2668 2.99012V7.4341Z" fill="#D85B1E"/>
<path d="M16.9659 41.0244H59.2284V43.0003H18.8349L16.9659 41.0244Z" fill="#D85B1E"/>
<path d="M59.2284 46.9521H21.137L22.8153 48.928H59.2284V46.9521Z" fill="#D85B1E"/>
<path d="M21.9331 52.8798H58.6015C58.2929 53.5961 57.8785 54.2606 57.3769 54.8557H21.4397L21.9331 52.8798Z" fill="#D85B1E"/>
<path d="M5.27477 58.5951C6.73436 59.4093 8.4182 59.8735 10.2112 59.8735H48.8032C52.5412 59.8735 55.805 57.8556 57.5512 54.8563H55.1103C53.6297 56.6914 51.3545 57.8665 48.8032 57.8665H10.2112C9.14065 57.8665 8.11877 57.6596 7.18379 57.2839L5.27477 58.5951Z" fill="#D85B1E"/>
</g>
<defs>
<filter id="filter0_d" x="0.144531" y="0.666016" width="59.0839" height="61.2075" filterUnits="userSpaceOnUse" color-interpolation-filters="sRGB">
<feFlood flood-opacity="0" result="BackgroundImageFix"/>
<feColorMatrix in="SourceAlpha" type="matrix" values="0 0 0 0 0 0 0 0 0 0 0 0 0 0 0 0 0 0 127 0"/>
<feOffset dy="2"/>
<feColorMatrix type="matrix" values="0 0 0 0 1 0 0 0 0 0.84319 0 0 0 0 0.766667 0 0 0 0.3 0"/>
<feBlend mode="normal" in2="BackgroundImageFix" result="effect1_dropShadow"/>
<feBlend mode="normal" in="SourceGraphic" in2="effect1_dropShadow" result="shape"/>
</filter>
</defs>
</svg>
