<svg width="200" height="97" viewBox="0 0 200 97" fill="none" xmlns="http://www.w3.org/2000/svg">
<path d="M42.3751 80.6189L58.3607 51.9132L80.1053 64.6366L63.602 92.421L56.4179 80.6762L42.3751 80.6189Z" fill="url(#paint0_linear)"/>
<path d="M158.867 80.6189L142.881 51.9132L121.137 64.6366L137.64 92.421L144.824 80.6762L158.867 80.6189Z" fill="url(#paint1_linear)"/>
<g filter="url(#filter0_d)">
<rect x="4" y="1" width="191.499" height="66.0226" rx="33.0113" fill="url(#paint2_linear)"/>
</g>
<rect x="6.85059" y="3.38916" width="186" height="61" rx="30.5" fill="url(#paint3_linear)"/>
<rect x="6.85059" y="3.38916" width="186" height="61" rx="30.5" fill="white"/>
<rect x="9.60059" y="6.13916" width="180.5" height="55.5" rx="27.75" fill="url(#paint4_linear)" stroke="url(#paint5_linear)" stroke-width="1.5"/>
<path d="M53.0741 16.5212C52.9761 17.8372 52.9271 19.0132 52.9271 20.0492C52.9271 20.6932 52.9481 21.1972 52.9901 21.5612H52.5071C52.1711 19.9372 51.6531 18.7752 50.9531 18.0752C50.2671 17.3612 49.4971 17.0042 48.6431 17.0042H48.3701C47.9921 17.0042 47.7121 17.0392 47.5301 17.1092C47.3621 17.1652 47.2431 17.2842 47.1731 17.4662C47.1171 17.6342 47.0891 17.9212 47.0891 18.3272V29.1632C47.0891 29.6952 47.1311 30.0802 47.2151 30.3182C47.2991 30.5562 47.4531 30.7172 47.6771 30.8012C47.9151 30.8852 48.2861 30.9412 48.7901 30.9692V31.3892C47.9361 31.3472 46.6971 31.3262 45.0731 31.3262C43.3791 31.3262 42.1331 31.3472 41.3351 31.3892V30.9692C41.7831 30.9412 42.1051 30.8852 42.3011 30.8012C42.4971 30.7172 42.6301 30.5562 42.7001 30.3182C42.7841 30.0802 42.8261 29.6952 42.8261 29.1632V18.7472C42.8261 18.2152 42.7911 17.8302 42.7211 17.5922C42.6511 17.3542 42.5111 17.1932 42.3011 17.1092C42.1051 17.0252 41.7831 16.9692 41.3351 16.9412V16.5212C42.9591 16.5632 45.4091 16.5842 48.6851 16.5842C50.7431 16.5842 52.2061 16.5632 53.0741 16.5212ZM65.3228 29.6252C65.5048 30.0732 65.7008 30.4092 65.9108 30.6332C66.1348 30.8432 66.3518 30.9552 66.5618 30.9692V31.3892C65.5538 31.3472 64.2798 31.3262 62.7398 31.3262C61.1438 31.3262 59.9678 31.3472 59.2118 31.3892V30.9692C59.7438 30.9412 60.1218 30.8782 60.3458 30.7802C60.5698 30.6682 60.6818 30.4792 60.6818 30.2132C60.6818 29.9612 60.5978 29.6252 60.4298 29.2052L59.1908 25.7612H54.9488L54.5918 26.7062C54.1298 27.8962 53.8988 28.8062 53.8988 29.4362C53.8988 30.0102 54.0598 30.4022 54.3818 30.6122C54.7038 30.8222 55.1798 30.9412 55.8098 30.9692V31.3892C54.7598 31.3472 53.8428 31.3262 53.0588 31.3262C52.4008 31.3262 51.8618 31.3472 51.4418 31.3892V30.9692C51.7918 30.9132 52.1208 30.6962 52.4288 30.3182C52.7368 29.9402 53.0518 29.3382 53.3738 28.5122L58.0358 16.5212C58.4838 16.5492 58.8548 16.5632 59.1488 16.5632C59.4288 16.5632 59.7928 16.5492 60.2408 16.5212L65.3228 29.6252ZM59.0438 25.3412L57.1328 20.0912L55.1168 25.3412H59.0438ZM72.7649 25.3832V28.9532C72.7649 29.5412 72.8209 29.9682 72.9329 30.2342C73.0589 30.5002 73.2759 30.6822 73.5839 30.7802C73.9059 30.8642 74.4099 30.9062 75.0959 30.9062V31.3892C73.2059 31.3472 71.7639 31.3262 70.7699 31.3262C70.1119 31.3262 69.1949 31.3402 68.0189 31.3682L67.0109 31.3892V30.9692C67.4589 30.9412 67.7809 30.8852 67.9769 30.8012C68.1869 30.7172 68.3269 30.5562 68.3969 30.3182C68.4669 30.0802 68.5019 29.6952 68.5019 29.1632V18.7472C68.5019 18.2152 68.4599 17.8302 68.3759 17.5922C68.3059 17.3542 68.1729 17.1932 67.9769 17.1092C67.7809 17.0252 67.4589 16.9692 67.0109 16.9412V16.5212C67.8089 16.5632 69.0129 16.5842 70.6229 16.5842L73.0379 16.5632C73.3179 16.5492 73.6399 16.5422 74.0039 16.5422C76.0759 16.5422 77.6439 16.9202 78.7079 17.6762C79.7859 18.4182 80.3249 19.4192 80.3249 20.6792C80.3249 21.4492 80.1149 22.1912 79.6949 22.9052C79.2749 23.6052 78.5609 24.1932 77.5529 24.6692C76.5449 25.1452 75.2079 25.3832 73.5419 25.3832H72.7649ZM73.8989 16.9412C73.5769 16.9412 73.3319 16.9902 73.1639 17.0882C73.0099 17.1862 72.9049 17.3612 72.8489 17.6132C72.7929 17.8652 72.7649 18.2432 72.7649 18.7472V24.9632H73.3319C74.3119 24.9632 74.9839 24.5992 75.3479 23.8712C75.7259 23.1432 75.9149 22.1562 75.9149 20.9102C75.9149 19.5522 75.7609 18.5512 75.4529 17.9072C75.1449 17.2632 74.6269 16.9412 73.8989 16.9412ZM92.6802 29.6252C92.8622 30.0732 93.0582 30.4092 93.2682 30.6332C93.4922 30.8432 93.7092 30.9552 93.9192 30.9692V31.3892C92.9112 31.3472 91.6372 31.3262 90.0972 31.3262C88.5012 31.3262 87.3252 31.3472 86.5692 31.3892V30.9692C87.1012 30.9412 87.4792 30.8782 87.7032 30.7802C87.9272 30.6682 88.0392 30.4792 88.0392 30.2132C88.0392 29.9612 87.9552 29.6252 87.7872 29.2052L86.5482 25.7612H82.3062L81.9492 26.7062C81.4872 27.8962 81.2562 28.8062 81.2562 29.4362C81.2562 30.0102 81.4172 30.4022 81.7392 30.6122C82.0612 30.8222 82.5372 30.9412 83.1672 30.9692V31.3892C82.1172 31.3472 81.2002 31.3262 80.4162 31.3262C79.7582 31.3262 79.2192 31.3472 78.7992 31.3892V30.9692C79.1492 30.9132 79.4782 30.6962 79.7862 30.3182C80.0942 29.9402 80.4092 29.3382 80.7312 28.5122L85.3932 16.5212C85.8412 16.5492 86.2122 16.5632 86.5062 16.5632C86.7862 16.5632 87.1502 16.5492 87.5982 16.5212L92.6802 29.6252ZM86.4012 25.3412L84.4902 20.0912L82.4742 25.3412H86.4012ZM110.601 16.9412C110.153 16.9692 109.824 17.0252 109.614 17.1092C109.418 17.1932 109.285 17.3542 109.215 17.5922C109.145 17.8302 109.11 18.2152 109.11 18.7472V29.1632C109.11 29.6952 109.145 30.0802 109.215 30.3182C109.299 30.5562 109.439 30.7172 109.635 30.8012C109.831 30.8852 110.153 30.9412 110.601 30.9692V31.3892C109.845 31.3472 108.669 31.3262 107.073 31.3262C105.463 31.3262 104.224 31.3472 103.356 31.3892V30.9692C103.804 30.9412 104.126 30.8852 104.322 30.8012C104.532 30.7172 104.672 30.5562 104.742 30.3182C104.812 30.0802 104.847 29.6952 104.847 29.1632V24.1232H100.122V29.1632C100.122 29.6952 100.157 30.0802 100.227 30.3182C100.311 30.5562 100.451 30.7172 100.647 30.8012C100.843 30.8852 101.165 30.9412 101.613 30.9692V31.3892C100.801 31.3472 99.6323 31.3262 98.1063 31.3262C96.4123 31.3262 95.1663 31.3472 94.3683 31.3892V30.9692C94.8163 30.9412 95.1383 30.8852 95.3343 30.8012C95.5443 30.7172 95.6843 30.5562 95.7543 30.3182C95.8243 30.0802 95.8593 29.6952 95.8593 29.1632V18.7472C95.8593 18.2152 95.8173 17.8302 95.7333 17.5922C95.6633 17.3542 95.5303 17.1932 95.3343 17.1092C95.1383 17.0252 94.8163 16.9692 94.3683 16.9412V16.5212C95.1663 16.5632 96.4123 16.5842 98.1063 16.5842C99.6183 16.5842 100.787 16.5632 101.613 16.5212V16.9412C101.165 16.9692 100.836 17.0252 100.626 17.1092C100.43 17.1932 100.297 17.3542 100.227 17.5922C100.157 17.8302 100.122 18.2152 100.122 18.7472V23.7032H104.847V18.7472C104.847 18.2152 104.805 17.8302 104.721 17.5922C104.651 17.3542 104.518 17.1932 104.322 17.1092C104.126 17.0252 103.804 16.9692 103.356 16.9412V16.5212C104.224 16.5632 105.463 16.5842 107.073 16.5842C108.669 16.5842 109.845 16.5632 110.601 16.5212V16.9412ZM125.387 16.5212C125.289 18.0752 125.24 19.4612 125.24 20.6792C125.24 21.3232 125.261 21.8272 125.303 22.1912H124.82C124.358 20.3572 123.763 19.0342 123.035 18.2222C122.307 17.4102 121.523 17.0042 120.683 17.0042H120.662V29.0162C120.662 29.6042 120.718 30.0312 120.83 30.2972C120.956 30.5632 121.173 30.7452 121.481 30.8432C121.803 30.9272 122.307 30.9692 122.993 30.9692V31.3892C121.019 31.3472 119.486 31.3262 118.394 31.3262C117.4 31.3262 115.958 31.3472 114.068 31.3892V30.9692C114.754 30.9692 115.251 30.9272 115.559 30.8432C115.881 30.7452 116.098 30.5632 116.21 30.2972C116.336 30.0312 116.399 29.6042 116.399 29.0162V17.0042H116.378C115.524 17.0042 114.733 17.4102 114.005 18.2222C113.291 19.0202 112.703 20.3432 112.241 22.1912H111.758C111.8 21.8272 111.821 21.3232 111.821 20.6792C111.821 19.4612 111.772 18.0752 111.674 16.5212C113.004 16.5632 115.293 16.5842 118.541 16.5842C121.775 16.5842 124.057 16.5632 125.387 16.5212ZM143.116 16.9412C142.668 16.9692 142.346 17.0252 142.15 17.1092C141.954 17.1932 141.814 17.3542 141.73 17.5922C141.66 17.8302 141.625 18.2152 141.625 18.7472V29.1632C141.625 29.6952 141.66 30.0802 141.73 30.3182C141.814 30.5562 141.954 30.7172 142.15 30.8012C142.346 30.8852 142.668 30.9412 143.116 30.9692V31.3892C142.318 31.3472 141.072 31.3262 139.378 31.3262C137.866 31.3262 136.697 31.3472 135.871 31.3892V30.9692C136.319 30.9412 136.641 30.8852 136.837 30.8012C137.033 30.7172 137.166 30.5562 137.236 30.3182C137.32 30.0802 137.362 29.6952 137.362 29.1632V19.5032L132.217 29.4992C132.231 29.9052 132.28 30.2132 132.364 30.4232C132.448 30.6192 132.588 30.7522 132.784 30.8222C132.994 30.8922 133.302 30.9412 133.708 30.9692V31.3892C132.896 31.3472 131.727 31.3262 130.201 31.3262C128.507 31.3262 127.261 31.3472 126.463 31.3892V30.9692C126.911 30.9412 127.233 30.8852 127.429 30.8012C127.625 30.7172 127.758 30.5562 127.828 30.3182C127.912 30.0802 127.954 29.6952 127.954 29.1632V18.7472C127.954 18.2152 127.912 17.8302 127.828 17.5922C127.758 17.3542 127.625 17.1932 127.429 17.1092C127.233 17.0252 126.911 16.9692 126.463 16.9412V16.5212C127.261 16.5632 128.507 16.5842 130.201 16.5842C131.713 16.5842 132.882 16.5632 133.708 16.5212V16.9412C133.26 16.9692 132.938 17.0252 132.742 17.1092C132.546 17.1932 132.406 17.3542 132.322 17.5922C132.252 17.8302 132.217 18.2152 132.217 18.7472V28.4492L137.362 18.4742C137.348 18.0402 137.299 17.7252 137.215 17.5292C137.131 17.3192 136.991 17.1792 136.795 17.1092C136.599 17.0252 136.291 16.9692 135.871 16.9412V16.5212C136.683 16.5632 137.852 16.5842 139.378 16.5842C141.072 16.5842 142.318 16.5632 143.116 16.5212V16.9412ZM158.375 16.9412C157.927 16.9692 157.605 17.0252 157.409 17.1092C157.213 17.1932 157.073 17.3542 156.989 17.5922C156.919 17.8302 156.884 18.2152 156.884 18.7472V29.1632C156.884 29.6952 156.919 30.0802 156.989 30.3182C157.059 30.5562 157.192 30.7172 157.388 30.8012C157.598 30.8852 157.927 30.9412 158.375 30.9692V31.3892C157.577 31.3472 156.331 31.3262 154.637 31.3262C153.125 31.3262 151.956 31.3472 151.13 31.3892V30.9692C151.578 30.9412 151.9 30.8852 152.096 30.8012C152.292 30.7172 152.425 30.5562 152.495 30.3182C152.579 30.0802 152.621 29.6952 152.621 29.1632V24.3332H151.466C150.976 24.3332 150.605 24.5852 150.353 25.0892C150.115 25.5932 149.926 26.3352 149.786 27.3152L149.471 29.4152C149.345 30.2412 149.016 30.8292 148.484 31.1792C147.952 31.5152 147.217 31.6832 146.279 31.6832C145.621 31.6832 145.04 31.5922 144.536 31.4102C144.032 31.2422 143.591 30.9552 143.213 30.5492L143.486 30.2762C143.668 30.4582 143.885 30.5492 144.137 30.5492C144.389 30.5492 144.585 30.4512 144.725 30.2552C144.865 30.0592 144.984 29.7022 145.082 29.1842L145.481 27.0002C145.635 26.1462 146.083 25.5232 146.825 25.1312C147.567 24.7252 148.673 24.4382 150.143 24.2702H150.164C148.302 24.1162 146.986 23.7032 146.216 23.0312C145.446 22.3452 145.061 21.4702 145.061 20.4062C145.061 19.0902 145.579 18.1172 146.615 17.4872C147.651 16.8572 149.24 16.5422 151.382 16.5422C151.746 16.5422 152.068 16.5492 152.348 16.5632L154.763 16.5842C156.373 16.5842 157.577 16.5632 158.375 16.5212V16.9412ZM151.487 16.9412C150.773 16.9412 150.255 17.2352 149.933 17.8232C149.625 18.4112 149.471 19.2792 149.471 20.4272C149.471 21.5332 149.653 22.3942 150.017 23.0102C150.381 23.6122 151.06 23.9132 152.054 23.9132H152.621V18.7472C152.621 18.2432 152.593 17.8652 152.537 17.6132C152.481 17.3612 152.369 17.1862 152.201 17.0882C152.047 16.9902 151.809 16.9412 151.487 16.9412Z" fill="#EF560B"/>
<path d="M49.123 43.4432C48.811 43.4432 48.595 43.5332 48.475 43.7132C48.355 43.8932 48.295 44.2352 48.295 44.7392V50.7152C48.295 51.2072 48.355 51.5492 48.475 51.7412C48.595 51.9212 48.811 52.0112 49.123 52.0112V52.3892C47.923 52.3412 47.125 52.3172 46.729 52.3172C46.333 52.3172 45.439 52.3412 44.047 52.3892V52.0112C44.419 52.0112 44.677 51.9212 44.821 51.7412C44.977 51.5492 45.055 51.2072 45.055 50.7152V44.7392C45.055 44.2472 44.995 43.9112 44.875 43.7312C44.755 43.5392 44.539 43.4432 44.227 43.4432H44.065C43.837 43.4432 43.675 43.4852 43.579 43.5692C43.483 43.6412 43.417 43.7492 43.381 43.8932C43.357 44.0372 43.327 44.3192 43.291 44.7392C43.159 46.2032 43.021 47.3972 42.877 48.3212C42.745 49.2332 42.541 50.0492 42.265 50.7692C42.013 51.4052 41.713 51.8792 41.365 52.1912C41.017 52.4912 40.609 52.6412 40.141 52.6412C39.625 52.6412 39.157 52.4732 38.737 52.1372C38.317 51.8012 38.107 51.3032 38.107 50.6432C38.107 50.0912 38.263 49.6532 38.575 49.3292C38.899 49.0052 39.319 48.8432 39.835 48.8432C40.339 48.8432 40.723 48.9992 40.987 49.3112C41.263 49.6112 41.401 49.9832 41.401 50.4272C41.401 51.2432 40.921 51.8552 39.961 52.2632C40.033 52.2872 40.123 52.2992 40.231 52.2992C40.915 52.2992 41.473 51.7592 41.905 50.6792C42.181 49.9832 42.391 49.1372 42.535 48.1412C42.691 47.1332 42.817 45.9992 42.913 44.7392C42.949 44.2592 42.847 43.9232 42.607 43.7312C42.379 43.5392 42.007 43.4432 41.491 43.4432V43.0652C41.755 43.0892 42.115 43.1012 42.571 43.1012C42.883 43.1012 43.117 43.0952 43.273 43.0832L44.335 43.0652C44.815 43.0652 45.331 43.0772 45.883 43.1012C46.339 43.1252 46.675 43.1372 46.891 43.1372C47.179 43.1372 47.923 43.1132 49.123 43.0652V43.4432ZM57.6675 43.1192C58.3515 43.1192 58.8135 43.0952 59.0535 43.0472V43.4252C58.8015 43.5092 58.5675 43.6832 58.3515 43.9472C58.1475 44.2112 57.9555 44.6192 57.7755 45.1712L55.5255 51.8672L54.7695 54.0452C54.5535 54.6692 54.2895 55.1012 53.9775 55.3412C53.6055 55.6292 53.0475 55.7732 52.3035 55.7732C51.7035 55.7732 51.1455 55.6292 50.6295 55.3412C50.1135 55.0652 49.8555 54.6452 49.8555 54.0812C49.8555 53.6612 50.0175 53.3252 50.3415 53.0732C50.6655 52.8212 51.0915 52.6952 51.6195 52.6952C52.1235 52.6952 52.5195 52.8092 52.8075 53.0372C53.0955 53.2652 53.2395 53.5952 53.2395 54.0272C53.2395 54.3152 53.1375 54.5852 52.9335 54.8372C52.7415 55.1012 52.4535 55.2932 52.0695 55.4132C52.1895 55.4372 52.3935 55.4492 52.6815 55.4492C53.5095 55.4492 54.0795 54.9692 54.3915 54.0092L54.4815 53.7032L50.2875 44.4332C50.1075 44.0252 49.9275 43.7552 49.7475 43.6232C49.5795 43.4912 49.4115 43.4252 49.2435 43.4252V43.0472C50.2035 43.1192 51.1815 43.1552 52.1775 43.1552C52.9575 43.1552 53.8275 43.1192 54.7875 43.0472V43.4252C54.4395 43.4252 54.1695 43.4492 53.9775 43.4972C53.7975 43.5452 53.7075 43.6532 53.7075 43.8212C53.7075 43.9172 53.7315 44.0132 53.7795 44.1092L55.9935 49.3832L56.7495 47.0792C56.9775 46.3832 57.0915 45.7712 57.0915 45.2432C57.0915 44.6792 56.9715 44.2412 56.7315 43.9292C56.4915 43.6172 56.1735 43.4492 55.7775 43.4252V43.0472C56.2215 43.0952 56.8515 43.1192 57.6675 43.1192ZM69.8949 43.4432C69.5229 43.4432 69.2589 43.5392 69.1029 43.7312C68.9589 43.9112 68.8869 44.2472 68.8869 44.7392V50.7152C68.8869 51.2072 68.9589 51.5492 69.1029 51.7412C69.2589 51.9212 69.5229 52.0112 69.8949 52.0112V52.3892C68.5989 52.3412 67.7289 52.3172 67.2849 52.3172C66.9969 52.3172 66.1149 52.3352 64.6389 52.3712L64.0989 52.3892V52.0112C64.6149 52.0112 64.9989 51.9032 65.2509 51.6872C65.5149 51.4712 65.6469 51.0872 65.6469 50.5352V48.5732C65.3589 48.7052 64.9509 48.8192 64.4229 48.9152C63.9069 48.9992 63.3789 49.0412 62.8389 49.0412C61.8429 49.0412 61.1469 48.8492 60.7509 48.4652C60.5229 48.2612 60.3789 48.0152 60.3189 47.7272C60.2589 47.4392 60.2289 47.0492 60.2289 46.5572V44.7392C60.2289 44.2472 60.1509 43.9112 59.9949 43.7312C59.8509 43.5392 59.5929 43.4432 59.2209 43.4432V43.0652C60.5169 43.1132 61.3629 43.1372 61.7589 43.1372C62.1549 43.1372 63.0009 43.1132 64.2969 43.0652V43.4432C63.9849 43.4432 63.7689 43.5392 63.6489 43.7312C63.5289 43.9112 63.4689 44.2472 63.4689 44.7392V46.5752C63.4689 47.0552 63.4929 47.4212 63.5409 47.6732C63.5889 47.9132 63.6969 48.0992 63.8649 48.2312C64.0329 48.3512 64.2969 48.4112 64.6569 48.4112C65.0889 48.4112 65.4189 48.3452 65.6469 48.2132V44.7392C65.6469 44.2472 65.5869 43.9112 65.4669 43.7312C65.3469 43.5392 65.1309 43.4432 64.8189 43.4432V43.0652C66.0189 43.1132 66.8169 43.1372 67.2129 43.1372C67.6089 43.1372 68.5029 43.1132 69.8949 43.0652V43.4432ZM87.4654 43.4432C87.0934 43.4432 86.8294 43.5392 86.6734 43.7312C86.5294 43.9112 86.4574 44.2472 86.4574 44.7392V50.7152C86.4574 51.2072 86.5294 51.5492 86.6734 51.7412C86.8294 51.9212 87.0934 52.0112 87.4654 52.0112V52.3892C86.1694 52.3412 85.3594 52.3172 85.0354 52.3172C84.7714 52.3172 84.3514 52.3292 83.7754 52.3532C83.1274 52.3772 82.5514 52.3892 82.0474 52.3892C81.5074 52.3892 80.8894 52.3772 80.1934 52.3532C79.6894 52.3292 79.3414 52.3172 79.1494 52.3172C78.9574 52.3172 78.6094 52.3292 78.1054 52.3532C77.4094 52.3772 76.7854 52.3892 76.2334 52.3892C75.7534 52.3892 75.1894 52.3772 74.5414 52.3532C73.9894 52.3292 73.5634 52.3172 73.2634 52.3172C72.9634 52.3172 72.2194 52.3352 71.0314 52.3712C70.9354 52.3832 70.8094 52.3892 70.6534 52.3892V52.0112C71.0254 52.0112 71.2834 51.9212 71.4274 51.7412C71.5834 51.5492 71.6614 51.2072 71.6614 50.7152V44.7392C71.6614 44.2472 71.5834 43.9112 71.4274 43.7312C71.2834 43.5392 71.0254 43.4432 70.6534 43.4432V43.0652C71.9494 43.1132 72.7954 43.1372 73.1914 43.1372C73.5874 43.1372 74.4334 43.1132 75.7294 43.0652V43.4432C75.4174 43.4432 75.2014 43.5392 75.0814 43.7312C74.9614 43.9112 74.9014 44.2472 74.9014 44.7392V50.7152C74.9014 51.2072 74.9614 51.5492 75.0814 51.7412C75.2014 51.9212 75.4174 52.0112 75.7294 52.0112H76.6114C76.9234 52.0112 77.1394 51.9212 77.2594 51.7412C77.3794 51.5492 77.4394 51.2072 77.4394 50.7152V44.7392C77.4394 44.2472 77.3794 43.9112 77.2594 43.7312C77.1394 43.5392 76.9234 43.4432 76.6114 43.4432V43.0652C77.8114 43.1132 78.6034 43.1372 78.9874 43.1372C79.3714 43.1372 80.2114 43.1132 81.5074 43.0652V43.4432C81.1954 43.4432 80.9794 43.5392 80.8594 43.7312C80.7394 43.9112 80.6794 44.2472 80.6794 44.7392V50.7152C80.6794 51.2072 80.7394 51.5492 80.8594 51.7412C80.9794 51.9212 81.1954 52.0112 81.5074 52.0112H82.3894C82.7014 52.0112 82.9174 51.9212 83.0374 51.7412C83.1574 51.5492 83.2174 51.2072 83.2174 50.7152V44.7392C83.2174 44.2472 83.1574 43.9112 83.0374 43.7312C82.9174 43.5392 82.7014 43.4432 82.3894 43.4432V43.0652C83.5894 43.1132 84.3874 43.1372 84.7834 43.1372C85.1794 43.1372 86.0734 43.1132 87.4654 43.0652V43.4432ZM93.8299 50.6792C94.7059 50.6792 95.4319 50.2772 96.0079 49.4732L96.3139 49.5812C96.0499 50.4212 95.5999 51.1412 94.9639 51.7412C94.3399 52.3412 93.5359 52.6412 92.5519 52.6412C91.2919 52.6412 90.2839 52.2512 89.5279 51.4712C88.7719 50.6912 88.3939 49.4432 88.3939 47.7272C88.3939 46.0832 88.8139 44.8532 89.6539 44.0372C90.5059 43.2092 91.6279 42.7952 93.0199 42.7952C95.2879 42.7952 96.4219 44.1392 96.4219 46.8272H91.7779C91.7659 46.9712 91.7599 47.1872 91.7599 47.4752C91.7599 48.6272 91.9579 49.4492 92.3539 49.9412C92.7619 50.4332 93.2539 50.6792 93.8299 50.6792ZM92.8939 43.2092C92.2219 43.2092 91.8259 44.3012 91.7059 46.4852H93.7939C93.8059 45.5252 93.7339 44.7392 93.5779 44.1272C93.4339 43.5152 93.2059 43.2092 92.8939 43.2092ZM108.661 43.4432C108.289 43.4432 108.025 43.5392 107.869 43.7312C107.725 43.9112 107.653 44.2472 107.653 44.7392V50.7152C107.653 51.2072 107.725 51.5492 107.869 51.7412C108.025 51.9212 108.289 52.0112 108.661 52.0112V52.3892C107.365 52.3412 106.525 52.3172 106.141 52.3172C105.733 52.3172 104.881 52.3412 103.585 52.3892V52.0112C103.897 52.0112 104.113 51.9212 104.233 51.7412C104.353 51.5492 104.413 51.2072 104.413 50.7152V45.2972L101.515 51.0032C101.539 51.3872 101.611 51.6512 101.731 51.7952C101.851 51.9392 102.055 52.0112 102.343 52.0112V52.3892C101.143 52.3412 100.351 52.3172 99.9667 52.3172C99.5587 52.3172 98.6587 52.3412 97.2667 52.3892V52.0112C97.6387 52.0112 97.8967 51.9212 98.0407 51.7412C98.1967 51.5492 98.2747 51.2072 98.2747 50.7152V44.7392C98.2747 44.2472 98.1967 43.9112 98.0407 43.7312C97.8967 43.5392 97.6387 43.4432 97.2667 43.4432V43.0652C98.5627 43.1132 99.4027 43.1372 99.7867 43.1372C100.195 43.1372 101.047 43.1132 102.343 43.0652V43.4432C102.031 43.4432 101.815 43.5392 101.695 43.7312C101.575 43.9112 101.515 44.2472 101.515 44.7392V50.2112L104.413 44.5412C104.401 44.1212 104.329 43.8332 104.197 43.6772C104.077 43.5212 103.873 43.4432 103.585 43.4432V43.0652C104.785 43.1132 105.577 43.1372 105.961 43.1372C106.369 43.1372 107.269 43.1132 108.661 43.0652V43.4432ZM105.493 38.1152C105.949 38.1152 106.321 38.2652 106.609 38.5652C106.909 38.8532 107.059 39.2252 107.059 39.6812C107.059 40.0052 106.957 40.2992 106.753 40.5632C106.561 40.8272 106.315 41.0372 106.015 41.1932C105.259 41.6012 104.245 41.8052 102.973 41.8052C101.689 41.8052 100.669 41.6012 99.9127 41.1932C99.6247 41.0372 99.3847 40.8272 99.1927 40.5632C99.0007 40.2992 98.9047 40.0052 98.9047 39.6812C98.9047 39.2132 99.0487 38.8352 99.3367 38.5472C99.6247 38.2592 100.003 38.1152 100.471 38.1152C100.915 38.1152 101.287 38.2652 101.587 38.5652C101.887 38.8532 102.037 39.2252 102.037 39.6812C102.037 40.0412 101.929 40.3532 101.713 40.6172C101.509 40.8692 101.233 41.0552 100.885 41.1752C101.545 41.3552 102.241 41.4452 102.973 41.4452C103.705 41.4452 104.395 41.3492 105.043 41.1572C104.695 41.0372 104.419 40.8512 104.215 40.5992C104.023 40.3352 103.927 40.0292 103.927 39.6812C103.927 39.2252 104.071 38.8532 104.359 38.5652C104.659 38.2652 105.037 38.1152 105.493 38.1152ZM124.455 43.4432C124.083 43.4432 123.819 43.5392 123.663 43.7312C123.519 43.9112 123.447 44.2472 123.447 44.7392V50.7152C123.447 51.2072 123.549 51.5492 123.753 51.7412C123.957 51.9212 124.311 52.0112 124.815 52.0112C124.731 52.8032 124.689 53.4992 124.689 54.0992C124.689 54.5792 124.707 54.9512 124.743 55.2152H124.329C124.113 54.1592 123.771 53.4212 123.303 53.0012C122.835 52.5812 122.139 52.3712 121.215 52.3712H120.423C120.183 52.3832 119.715 52.3892 119.019 52.3892C118.479 52.3892 117.885 52.3772 117.237 52.3532C116.733 52.3292 116.361 52.3172 116.121 52.3172C115.713 52.3172 114.813 52.3412 113.421 52.3892V52.0112C113.793 52.0112 114.051 51.9212 114.195 51.7412C114.351 51.5492 114.429 51.2072 114.429 50.7152V44.7392C114.429 44.2472 114.351 43.9112 114.195 43.7312C114.051 43.5392 113.793 43.4432 113.421 43.4432V43.0652C114.717 43.1132 115.557 43.1372 115.941 43.1372C116.349 43.1372 117.201 43.1132 118.497 43.0652V43.4432C118.185 43.4432 117.969 43.5392 117.849 43.7312C117.729 43.9112 117.669 44.2472 117.669 44.7392V50.7152C117.669 51.2072 117.729 51.5492 117.849 51.7412C117.969 51.9212 118.185 52.0112 118.497 52.0112H119.379C119.691 52.0112 119.907 51.9212 120.027 51.7412C120.147 51.5492 120.207 51.2072 120.207 50.7152V44.7392C120.207 44.2472 120.147 43.9112 120.027 43.7312C119.907 43.5392 119.691 43.4432 119.379 43.4432V43.0652C120.579 43.1132 121.371 43.1372 121.755 43.1372C122.163 43.1372 123.063 43.1132 124.455 43.0652V43.4432ZM130.885 50.6792C131.761 50.6792 132.487 50.2772 133.063 49.4732L133.369 49.5812C133.105 50.4212 132.655 51.1412 132.019 51.7412C131.395 52.3412 130.591 52.6412 129.607 52.6412C128.347 52.6412 127.339 52.2512 126.583 51.4712C125.827 50.6912 125.449 49.4432 125.449 47.7272C125.449 46.0832 125.869 44.8532 126.709 44.0372C127.561 43.2092 128.683 42.7952 130.075 42.7952C132.343 42.7952 133.477 44.1392 133.477 46.8272H128.833C128.821 46.9712 128.815 47.1872 128.815 47.4752C128.815 48.6272 129.013 49.4492 129.409 49.9412C129.817 50.4332 130.309 50.6792 130.885 50.6792ZM129.949 43.2092C129.277 43.2092 128.881 44.3012 128.761 46.4852H130.849C130.861 45.5252 130.789 44.7392 130.633 44.1272C130.489 43.5152 130.261 43.2092 129.949 43.2092ZM145.355 43.4432C144.983 43.4432 144.719 43.5392 144.563 43.7312C144.419 43.9112 144.347 44.2472 144.347 44.7392V50.7152C144.347 51.2072 144.419 51.5492 144.563 51.7412C144.719 51.9212 144.983 52.0112 145.355 52.0112V52.3892C144.059 52.3412 143.219 52.3172 142.835 52.3172C142.427 52.3172 141.575 52.3412 140.279 52.3892V52.0112C140.591 52.0112 140.807 51.9212 140.927 51.7412C141.047 51.5492 141.107 51.2072 141.107 50.7152V47.7632H138.569V50.7152C138.569 51.2072 138.629 51.5492 138.749 51.7412C138.869 51.9212 139.085 52.0112 139.397 52.0112V52.3892C138.197 52.3412 137.405 52.3172 137.021 52.3172C136.613 52.3172 135.713 52.3412 134.321 52.3892V52.0112C134.693 52.0112 134.951 51.9212 135.095 51.7412C135.251 51.5492 135.329 51.2072 135.329 50.7152V44.7392C135.329 44.2472 135.251 43.9112 135.095 43.7312C134.951 43.5392 134.693 43.4432 134.321 43.4432V43.0652C135.617 43.1132 136.457 43.1372 136.841 43.1372C137.249 43.1372 138.101 43.1132 139.397 43.0652V43.4432C139.085 43.4432 138.869 43.5392 138.749 43.7312C138.629 43.9112 138.569 44.2472 138.569 44.7392V47.4032H141.107V44.7392C141.107 44.2472 141.047 43.9112 140.927 43.7312C140.807 43.5392 140.591 43.4432 140.279 43.4432V43.0652C141.479 43.1132 142.271 43.1372 142.655 43.1372C143.063 43.1372 143.963 43.1132 145.355 43.0652V43.4432ZM151.57 46.9712C153.034 46.9712 154.138 47.2112 154.882 47.6912C155.626 48.1592 155.998 48.7712 155.998 49.5272C155.998 50.0192 155.836 50.4812 155.512 50.9132C155.188 51.3452 154.672 51.6992 153.964 51.9752C153.256 52.2512 152.35 52.3892 151.246 52.3892C151.03 52.3892 150.67 52.3772 150.166 52.3532C149.59 52.3292 149.11 52.3172 148.726 52.3172C148.366 52.3172 147.538 52.3412 146.242 52.3892V52.0112C146.554 52.0112 146.77 51.9212 146.89 51.7412C147.01 51.5492 147.07 51.2072 147.07 50.7152V44.7392C147.07 44.2472 147.01 43.9112 146.89 43.7312C146.77 43.5392 146.554 43.4432 146.242 43.4432V43.0652C147.442 43.1132 148.24 43.1372 148.636 43.1372C149.032 43.1372 149.926 43.1132 151.318 43.0652V43.4432C150.946 43.4432 150.682 43.5392 150.526 43.7312C150.382 43.9112 150.31 44.2472 150.31 44.7392V46.9892L151.57 46.9712ZM161.2 43.4432C160.828 43.4432 160.564 43.5392 160.408 43.7312C160.264 43.9112 160.192 44.2472 160.192 44.7392V50.7152C160.192 51.2072 160.264 51.5492 160.408 51.7412C160.564 51.9212 160.828 52.0112 161.2 52.0112V52.3892C159.808 52.3412 158.908 52.3172 158.5 52.3172C158.092 52.3172 157.24 52.3412 155.944 52.3892V52.0112C156.316 52.0112 156.574 51.9212 156.718 51.7412C156.874 51.5492 156.952 51.2072 156.952 50.7152V44.7392C156.952 44.2472 156.874 43.9112 156.718 43.7312C156.574 43.5392 156.316 43.4432 155.944 43.4432V43.0652C157.336 43.1132 158.248 43.1372 158.68 43.1372C159.064 43.1372 159.904 43.1132 161.2 43.0652V43.4432ZM150.994 52.0112C152.122 52.0112 152.686 51.2492 152.686 49.7252C152.686 48.8732 152.506 48.2672 152.146 47.9072C151.798 47.5472 151.204 47.3672 150.364 47.3672H150.31V51.3452C150.31 51.6332 150.352 51.8192 150.436 51.9032C150.52 51.9752 150.706 52.0112 150.994 52.0112Z" fill="black"/>
<defs>
<filter id="filter0_d" x="0" y="0" width="199.499" height="74.0226" filterUnits="userSpaceOnUse" color-interpolation-filters="sRGB">
<feFlood flood-opacity="0" result="BackgroundImageFix"/>
<feColorMatrix in="SourceAlpha" type="matrix" values="0 0 0 0 0 0 0 0 0 0 0 0 0 0 0 0 0 0 127 0"/>
<feOffset dy="3"/>
<feGaussianBlur stdDeviation="2"/>
<feColorMatrix type="matrix" values="0 0 0 0 0 0 0 0 0 0 0 0 0 0 0 0 0 0 0.2 0"/>
<feBlend mode="normal" in2="BackgroundImageFix" result="effect1_dropShadow"/>
<feBlend mode="normal" in="SourceGraphic" in2="effect1_dropShadow" result="shape"/>
</filter>
<linearGradient id="paint0_linear" x1="70.0659" y1="69.9051" x2="43.6031" y2="77.1992" gradientUnits="userSpaceOnUse">
<stop stop-color="#EED184"/>
<stop offset="1" stop-color="#EF6B2A"/>
</linearGradient>
<linearGradient id="paint1_linear" x1="131.176" y1="69.9051" x2="157.639" y2="77.1992" gradientUnits="userSpaceOnUse">
<stop stop-color="#EED184"/>
<stop offset="1" stop-color="#EF6B2A"/>
</linearGradient>
<linearGradient id="paint2_linear" x1="143.272" y1="33.8112" x2="13.8651" y2="33.8112" gradientUnits="userSpaceOnUse">
<stop stop-color="#F3CC64"/>
<stop offset="1" stop-color="#ED6C2C"/>
</linearGradient>
<linearGradient id="paint3_linear" x1="18.1233" y1="42.2073" x2="192.851" y2="42.2073" gradientUnits="userSpaceOnUse">
<stop offset="0.168034" stop-color="#FFEEBE"/>
<stop offset="0.58224" stop-color="#FFF9EA"/>
<stop offset="1" stop-color="white"/>
</linearGradient>
<linearGradient id="paint4_linear" x1="19.8809" y1="41.6619" x2="190.851" y2="41.6619" gradientUnits="userSpaceOnUse">
<stop offset="0.168034" stop-color="#FFEEBE"/>
<stop offset="0.58224" stop-color="#FFF9EA"/>
<stop offset="1" stop-color="white"/>
</linearGradient>
<linearGradient id="paint5_linear" x1="141.214" y1="33.7164" x2="18.2263" y2="33.7164" gradientUnits="userSpaceOnUse">
<stop stop-color="#F3CC64"/>
<stop offset="1" stop-color="#ED6C2C"/>
</linearGradient>
</defs>
</svg>
