<svg width="235" height="101" viewBox="0 0 235 101" fill="none" xmlns="http://www.w3.org/2000/svg">
<g filter="url(#filter0_d)">
<path d="M59.4581 80.619L75.4437 51.9133L97.1883 64.6367L80.685 92.4211L73.5009 80.6763L59.4581 80.619Z" fill="url(#paint0_linear)"/>
</g>
<g filter="url(#filter1_d)">
<path d="M175.95 80.619L159.964 51.9133L138.22 64.6367L154.723 92.4211L161.907 80.6763L175.95 80.619Z" fill="url(#paint1_linear)"/>
</g>
<g filter="url(#filter2_d)">
<rect x="4" y="1" width="227" height="66" rx="33" fill="url(#paint2_linear)"/>
</g>
<rect x="8" y="3" width="220" height="61" rx="30.5" fill="url(#paint3_linear)"/>
<rect x="8" y="3" width="220" height="61" rx="30.5" fill="white"/>
<rect x="10.75" y="5.75" width="213.5" height="55.5" rx="27.75" stroke="url(#paint4_linear)" stroke-width="1.5"/>
<path d="M40.4023 42.536C40.4023 43.848 40.5943 44.76 40.9783 45.272C41.3943 45.752 42.0983 45.992 43.0903 45.992V47C39.6343 46.872 37.4263 46.808 36.4663 46.808C35.3463 46.808 32.8663 46.856 29.0263 46.952L27.6343 47V45.992C29.0103 45.992 30.0343 45.704 30.7063 45.128C31.4103 44.552 31.7623 43.528 31.7623 42.056V30.248C31.7623 28.712 31.6343 27.592 31.3783 26.888C31.1543 26.152 30.7543 25.672 30.1783 25.448C29.6343 25.192 28.7863 25.064 27.6343 25.064V24.008C30.7383 23.944 33.2663 23.736 35.2183 23.384C37.2023 23 38.9303 22.392 40.4023 21.56V42.536ZM61.1671 21.416C63.8871 21.416 66.3031 21.944 68.4151 23C70.5591 24.056 72.2231 25.56 73.4071 27.512C74.5911 29.432 75.1831 31.64 75.1831 34.136C75.1831 36.696 74.5751 39 73.3591 41.048C72.1431 43.096 70.4311 44.712 68.2231 45.896C66.0151 47.08 63.4871 47.672 60.6391 47.672C57.9511 47.672 55.5351 47.144 53.3911 46.088C51.2791 45.032 49.6151 43.544 48.3991 41.624C47.2151 39.672 46.6231 37.432 46.6231 34.904C46.6231 32.376 47.2311 30.088 48.4471 28.04C49.6631 25.992 51.3591 24.376 53.5351 23.192C55.7431 22.008 58.2871 21.416 61.1671 21.416ZM60.7351 22.28C59.7431 22.28 58.8471 22.792 58.0471 23.816C57.2791 24.808 56.6711 26.248 56.2231 28.136C55.8071 29.992 55.5991 32.2 55.5991 34.76C55.5991 38.824 56.1111 41.848 57.1351 43.832C58.1591 45.816 59.4711 46.808 61.0711 46.808C62.0631 46.808 62.9431 46.312 63.7111 45.32C64.5111 44.296 65.1191 42.84 65.5351 40.952C65.9831 39.064 66.2071 36.84 66.2071 34.28C66.2071 30.216 65.6951 27.208 64.6711 25.256C63.6471 23.272 62.3351 22.28 60.7351 22.28ZM98.3738 21.048L79.6538 48.76L79.0458 48.344L97.7658 20.632L98.3738 21.048ZM83.6218 22.648C85.2644 22.648 86.5871 23.1173 87.5898 24.056C88.5924 24.9733 89.0938 26.2427 89.0938 27.864C89.0938 28.9307 88.8591 29.8693 88.3898 30.68C87.9204 31.4907 87.2698 32.12 86.4378 32.568C85.6058 33.016 84.6671 33.24 83.6218 33.24C81.9791 33.24 80.6458 32.7813 79.6218 31.864C78.6191 30.9253 78.1178 29.6453 78.1178 28.024C78.1178 26.9787 78.3524 26.0507 78.8218 25.24C79.3124 24.408 79.9738 23.768 80.8058 23.32C81.6378 22.872 82.5764 22.648 83.6218 22.648ZM83.5578 23.224C82.3418 23.224 81.7338 24.8133 81.7338 27.992C81.7338 29.528 81.9044 30.6907 82.2458 31.48C82.5871 32.2693 83.0671 32.664 83.6858 32.664C84.8804 32.664 85.4778 31.0853 85.4778 27.928C85.4778 26.3707 85.3071 25.1973 84.9658 24.408C84.6458 23.6187 84.1764 23.224 83.5578 23.224ZM93.6058 36.856C95.2484 36.856 96.5711 37.3253 97.5738 38.264C98.5764 39.1813 99.0778 40.4507 99.0778 42.072C99.0778 43.1387 98.8431 44.0773 98.3738 44.888C97.9044 45.6987 97.2538 46.328 96.4218 46.776C95.5898 47.224 94.6511 47.448 93.6058 47.448C91.9631 47.448 90.6298 46.9893 89.6058 46.072C88.6031 45.1333 88.1018 43.8533 88.1018 42.232C88.1018 41.1867 88.3364 40.2587 88.8058 39.448C89.2964 38.616 89.9578 37.976 90.7898 37.528C91.6218 37.08 92.5604 36.856 93.6058 36.856ZM93.5417 37.432C92.3258 37.432 91.7178 39.0213 91.7178 42.2C91.7178 43.736 91.8884 44.8987 92.2298 45.688C92.5711 46.4773 93.0511 46.872 93.6698 46.872C94.8644 46.872 95.4618 45.2933 95.4618 42.136C95.4618 40.5787 95.2911 39.4053 94.9498 38.616C94.6298 37.8267 94.1604 37.432 93.5417 37.432Z" fill="#EF560B"/>
<path d="M118.011 22.048C117.681 22.048 117.446 22.1333 117.307 22.304C117.179 22.464 117.115 22.7627 117.115 23.2V28.512C117.115 28.9493 117.179 29.2533 117.307 29.424C117.446 29.584 117.681 29.664 118.011 29.664V30C116.859 29.9573 116.113 29.936 115.771 29.936C115.409 29.936 114.651 29.9573 113.499 30V29.664C113.777 29.664 113.969 29.584 114.075 29.424C114.182 29.2533 114.235 28.9493 114.235 28.512V25.888H111.979V28.512C111.979 28.9493 112.033 29.2533 112.139 29.424C112.246 29.584 112.438 29.664 112.715 29.664V30C111.649 29.9573 110.945 29.936 110.603 29.936C110.241 29.936 109.441 29.9573 108.203 30V29.664C108.534 29.664 108.763 29.584 108.891 29.424C109.03 29.2533 109.099 28.9493 109.099 28.512V23.2C109.099 22.7627 109.03 22.464 108.891 22.304C108.763 22.1333 108.534 22.048 108.203 22.048V21.712C109.355 21.7547 110.102 21.776 110.443 21.776C110.806 21.776 111.563 21.7547 112.715 21.712V22.048C112.438 22.048 112.246 22.1333 112.139 22.304C112.033 22.464 111.979 22.7627 111.979 23.2V25.568H114.235V23.2C114.235 22.7627 114.182 22.464 114.075 22.304C113.969 22.1333 113.777 22.048 113.499 22.048V21.712C114.566 21.7547 115.27 21.776 115.611 21.776C115.974 21.776 116.774 21.7547 118.011 21.712V22.048ZM120.768 30.112C120.085 30.112 119.568 29.9307 119.216 29.568C118.874 29.1947 118.704 28.7307 118.704 28.176C118.704 27.696 118.826 27.3013 119.072 26.992C119.328 26.672 119.626 26.4267 119.968 26.256C120.309 26.0853 120.752 25.9093 121.296 25.728C121.872 25.536 122.293 25.36 122.56 25.2C122.826 25.04 122.96 24.816 122.96 24.528V23.104C122.96 22.7627 122.874 22.4587 122.704 22.192C122.533 21.9253 122.24 21.792 121.824 21.792C121.493 21.792 121.194 21.8827 120.928 22.064C121.29 22.192 121.557 22.384 121.728 22.64C121.909 22.8853 122 23.1627 122 23.472C122 23.888 121.85 24.224 121.552 24.48C121.264 24.7253 120.912 24.848 120.496 24.848C120.08 24.848 119.749 24.72 119.504 24.464C119.269 24.1973 119.152 23.8613 119.152 23.456C119.152 23.136 119.232 22.8587 119.392 22.624C119.552 22.3893 119.802 22.176 120.144 21.984C120.741 21.6427 121.594 21.472 122.704 21.472C123.29 21.472 123.797 21.5307 124.224 21.648C124.65 21.7547 125.013 21.9627 125.312 22.272C125.525 22.496 125.664 22.7787 125.728 23.12C125.802 23.4507 125.84 23.9147 125.84 24.512V28.8C125.84 29.0667 125.856 29.248 125.888 29.344C125.93 29.44 126 29.488 126.096 29.488C126.17 29.488 126.25 29.4667 126.336 29.424C126.421 29.3707 126.501 29.312 126.576 29.248L126.736 29.52C126.277 29.9147 125.621 30.112 124.768 30.112C124.128 30.112 123.68 30.0053 123.424 29.792C123.168 29.568 123.029 29.2693 123.008 28.896C122.506 29.7067 121.76 30.112 120.768 30.112ZM122.368 28.832C122.592 28.832 122.789 28.7413 122.96 28.56V25.184C122.864 25.344 122.688 25.552 122.432 25.808C122.144 26.0853 121.925 26.3573 121.776 26.624C121.626 26.88 121.552 27.232 121.552 27.68C121.552 28.448 121.824 28.832 122.368 28.832ZM136.91 21.472C137.742 21.472 138.414 21.8133 138.926 22.496C139.438 23.1787 139.694 24.176 139.694 25.488C139.694 27.184 139.353 28.4 138.67 29.136C137.987 29.8613 137.086 30.224 135.966 30.224C135.347 30.224 134.851 30.1227 134.478 29.92V31.248C134.478 31.7387 134.59 32.08 134.814 32.272C135.049 32.464 135.395 32.56 135.854 32.56V32.896L135.39 32.88C134.11 32.848 133.283 32.832 132.91 32.832C132.59 32.832 131.854 32.8533 130.702 32.896V32.56C131.033 32.56 131.262 32.4747 131.39 32.304C131.529 32.144 131.598 31.8453 131.598 31.408V23.456C131.598 22.9653 131.529 22.608 131.39 22.384C131.262 22.16 131.033 22.048 130.702 22.048V21.712C131.033 21.744 131.363 21.76 131.694 21.76C132.803 21.76 133.731 21.6853 134.478 21.536V22.672C134.969 21.872 135.779 21.472 136.91 21.472ZM135.038 29.744C135.625 29.744 136.046 29.4293 136.302 28.8C136.569 28.16 136.702 27.1787 136.702 25.856C136.702 24.544 136.606 23.6267 136.414 23.104C136.222 22.5707 135.961 22.304 135.63 22.304C135.321 22.304 135.049 22.416 134.814 22.64C134.59 22.8533 134.478 23.1253 134.478 23.456V29.616C134.617 29.7013 134.803 29.744 135.038 29.744ZM147.113 21.76C147.721 21.76 148.132 21.7387 148.345 21.696V22.032C148.121 22.1067 147.913 22.2613 147.721 22.496C147.54 22.7307 147.369 23.0933 147.209 23.584L145.209 29.536L144.537 31.472C144.345 32.0267 144.111 32.4107 143.833 32.624C143.503 32.88 143.007 33.008 142.345 33.008C141.812 33.008 141.316 32.88 140.857 32.624C140.399 32.3787 140.169 32.0053 140.169 31.504C140.169 31.1307 140.313 30.832 140.601 30.608C140.889 30.384 141.268 30.272 141.737 30.272C142.185 30.272 142.537 30.3733 142.793 30.576C143.049 30.7787 143.177 31.072 143.177 31.456C143.177 31.712 143.087 31.952 142.905 32.176C142.735 32.4107 142.479 32.5813 142.137 32.688C142.244 32.7093 142.425 32.72 142.681 32.72C143.417 32.72 143.924 32.2933 144.201 31.44L144.281 31.168L140.553 22.928C140.393 22.5653 140.233 22.3253 140.073 22.208C139.924 22.0907 139.775 22.032 139.625 22.032V21.696C140.479 21.76 141.348 21.792 142.233 21.792C142.927 21.792 143.7 21.76 144.553 21.696V22.032C144.244 22.032 144.004 22.0533 143.833 22.096C143.673 22.1387 143.593 22.2347 143.593 22.384C143.593 22.4693 143.615 22.5547 143.657 22.64L145.625 27.328L146.297 25.28C146.5 24.6613 146.601 24.1173 146.601 23.648C146.601 23.1467 146.495 22.7573 146.281 22.48C146.068 22.2027 145.785 22.0533 145.433 22.032V21.696C145.828 21.7387 146.388 21.76 147.113 21.76ZM156.393 22.048C156.116 22.048 155.924 22.128 155.817 22.288C155.711 22.448 155.657 22.752 155.657 23.2V28.512C155.657 28.9493 155.711 29.2533 155.817 29.424C155.924 29.584 156.116 29.664 156.393 29.664V30C155.327 29.9573 154.617 29.936 154.265 29.936C153.913 29.936 153.119 29.9573 151.881 30V29.664C152.212 29.664 152.441 29.584 152.569 29.424C152.708 29.2533 152.777 28.9493 152.777 28.512V23.2C152.777 22.7627 152.724 22.464 152.617 22.304C152.511 22.1333 152.319 22.048 152.041 22.048H151.897C151.695 22.048 151.551 22.0853 151.465 22.16C151.38 22.224 151.321 22.32 151.289 22.448C151.268 22.576 151.241 22.8267 151.209 23.2C151.092 24.5013 150.969 25.5627 150.841 26.384C150.724 27.1947 150.543 27.92 150.297 28.56C150.073 29.1253 149.807 29.5467 149.497 29.824C149.188 30.0907 148.825 30.224 148.409 30.224C147.951 30.224 147.535 30.0747 147.161 29.776C146.788 29.4773 146.601 29.0347 146.601 28.448C146.601 27.9573 146.74 27.568 147.017 27.28C147.305 26.992 147.679 26.848 148.137 26.848C148.585 26.848 148.927 26.9867 149.161 27.264C149.407 27.5307 149.529 27.8613 149.529 28.256C149.529 28.9813 149.103 29.5253 148.249 29.888C148.313 29.9093 148.393 29.92 148.489 29.92C149.097 29.92 149.593 29.44 149.977 28.48C150.223 27.8613 150.409 27.1093 150.537 26.224C150.676 25.328 150.788 24.32 150.873 23.2C150.905 22.7733 150.815 22.4747 150.601 22.304C150.399 22.1333 150.068 22.048 149.609 22.048V21.712C149.844 21.7333 150.164 21.744 150.569 21.744C150.847 21.744 151.055 21.7387 151.193 21.728L152.137 21.712C152.564 21.712 153.023 21.7227 153.513 21.744C153.919 21.7653 154.217 21.776 154.409 21.776C154.665 21.776 155.327 21.7547 156.393 21.712V22.048ZM161.428 21.472C162.74 21.472 163.754 21.8187 164.468 22.512C165.183 23.1947 165.54 24.3093 165.54 25.856C165.54 27.4027 165.183 28.5173 164.468 29.2C163.754 29.8827 162.74 30.224 161.428 30.224C160.116 30.224 159.103 29.8827 158.388 29.2C157.674 28.5173 157.316 27.4027 157.316 25.856C157.316 24.3093 157.674 23.1947 158.388 22.512C159.103 21.8187 160.116 21.472 161.428 21.472ZM161.428 21.792C161.087 21.792 160.815 22.128 160.612 22.8C160.41 23.472 160.308 24.4907 160.308 25.856C160.308 27.2213 160.41 28.24 160.612 28.912C160.815 29.5733 161.087 29.904 161.428 29.904C161.77 29.904 162.042 29.5733 162.244 28.912C162.447 28.24 162.548 27.2213 162.548 25.856C162.548 24.4907 162.447 23.472 162.244 22.8C162.042 22.128 161.77 21.792 161.428 21.792ZM176.183 22.048C175.852 22.048 175.618 22.1333 175.479 22.304C175.351 22.464 175.287 22.7627 175.287 23.2V28.512C175.287 28.9493 175.351 29.2533 175.479 29.424C175.618 29.584 175.852 29.664 176.183 29.664V30C175.031 29.9573 174.284 29.936 173.943 29.936C173.58 29.936 172.823 29.9573 171.671 30V29.664C171.948 29.664 172.14 29.584 172.247 29.424C172.354 29.2533 172.407 28.9493 172.407 28.512V25.888H170.151V28.512C170.151 28.9493 170.204 29.2533 170.311 29.424C170.418 29.584 170.61 29.664 170.887 29.664V30C169.82 29.9573 169.116 29.936 168.775 29.936C168.412 29.936 167.612 29.9573 166.375 30V29.664C166.706 29.664 166.935 29.584 167.063 29.424C167.202 29.2533 167.271 28.9493 167.271 28.512V23.2C167.271 22.7627 167.202 22.464 167.063 22.304C166.935 22.1333 166.706 22.048 166.375 22.048V21.712C167.527 21.7547 168.274 21.776 168.615 21.776C168.978 21.776 169.735 21.7547 170.887 21.712V22.048C170.61 22.048 170.418 22.1333 170.311 22.304C170.204 22.464 170.151 22.7627 170.151 23.2V25.568H172.407V23.2C172.407 22.7627 172.354 22.464 172.247 22.304C172.14 22.1333 171.948 22.048 171.671 22.048V21.712C172.738 21.7547 173.442 21.776 173.783 21.776C174.146 21.776 174.946 21.7547 176.183 21.712V22.048ZM186.667 22.048C186.337 22.048 186.102 22.1333 185.963 22.304C185.835 22.464 185.771 22.7627 185.771 23.2V28.512C185.771 28.9493 185.835 29.2533 185.963 29.424C186.102 29.584 186.337 29.664 186.667 29.664V30C185.515 29.9573 184.769 29.936 184.427 29.936C184.065 29.936 183.307 29.9573 182.155 30V29.664C182.433 29.664 182.625 29.584 182.731 29.424C182.838 29.2533 182.891 28.9493 182.891 28.512V25.888H180.635V28.512C180.635 28.9493 180.689 29.2533 180.795 29.424C180.902 29.584 181.094 29.664 181.371 29.664V30C180.305 29.9573 179.601 29.936 179.259 29.936C178.897 29.936 178.097 29.9573 176.859 30V29.664C177.19 29.664 177.419 29.584 177.547 29.424C177.686 29.2533 177.755 28.9493 177.755 28.512V23.2C177.755 22.7627 177.686 22.464 177.547 22.304C177.419 22.1333 177.19 22.048 176.859 22.048V21.712C178.011 21.7547 178.758 21.776 179.099 21.776C179.462 21.776 180.219 21.7547 181.371 21.712V22.048C181.094 22.048 180.902 22.1333 180.795 22.304C180.689 22.464 180.635 22.7627 180.635 23.2V25.568H182.891V23.2C182.891 22.7627 182.838 22.464 182.731 22.304C182.625 22.1333 182.433 22.048 182.155 22.048V21.712C183.222 21.7547 183.926 21.776 184.267 21.776C184.63 21.776 185.43 21.7547 186.667 21.712V22.048ZM192.192 25.184C193.493 25.184 194.474 25.3973 195.136 25.824C195.797 26.24 196.128 26.784 196.128 27.456C196.128 27.8933 195.984 28.304 195.696 28.688C195.408 29.072 194.949 29.3867 194.32 29.632C193.69 29.8773 192.885 30 191.904 30C191.712 30 191.392 29.9893 190.944 29.968C190.432 29.9467 190.005 29.936 189.664 29.936C189.344 29.936 188.608 29.9573 187.456 30V29.664C187.733 29.664 187.925 29.584 188.032 29.424C188.138 29.2533 188.192 28.9493 188.192 28.512V23.2C188.192 22.7627 188.138 22.464 188.032 22.304C187.925 22.1333 187.733 22.048 187.456 22.048V21.712C188.522 21.7547 189.232 21.776 189.584 21.776C189.936 21.776 190.73 21.7547 191.968 21.712V22.048C191.637 22.048 191.402 22.1333 191.264 22.304C191.136 22.464 191.072 22.7627 191.072 23.2V25.2L192.192 25.184ZM200.752 22.048C200.421 22.048 200.186 22.1333 200.048 22.304C199.92 22.464 199.856 22.7627 199.856 23.2V28.512C199.856 28.9493 199.92 29.2533 200.048 29.424C200.186 29.584 200.421 29.664 200.752 29.664V30C199.514 29.9573 198.714 29.936 198.352 29.936C197.989 29.936 197.232 29.9573 196.08 30V29.664C196.41 29.664 196.64 29.584 196.768 29.424C196.906 29.2533 196.976 28.9493 196.976 28.512V23.2C196.976 22.7627 196.906 22.464 196.768 22.304C196.64 22.1333 196.41 22.048 196.08 22.048V21.712C197.317 21.7547 198.128 21.776 198.512 21.776C198.853 21.776 199.6 21.7547 200.752 21.712V22.048ZM191.68 29.664C192.682 29.664 193.184 28.9867 193.184 27.632C193.184 26.8747 193.024 26.336 192.704 26.016C192.394 25.696 191.866 25.536 191.12 25.536H191.072V29.072C191.072 29.328 191.109 29.4933 191.184 29.568C191.258 29.632 191.424 29.664 191.68 29.664ZM206.414 28.48C207.193 28.48 207.838 28.1227 208.35 27.408L208.622 27.504C208.387 28.2507 207.987 28.8907 207.422 29.424C206.867 29.9573 206.153 30.224 205.278 30.224C204.158 30.224 203.262 29.8773 202.59 29.184C201.918 28.4907 201.582 27.3813 201.582 25.856C201.582 24.3947 201.955 23.3013 202.702 22.576C203.459 21.84 204.457 21.472 205.694 21.472C207.71 21.472 208.718 22.6667 208.718 25.056H204.59C204.579 25.184 204.574 25.376 204.574 25.632C204.574 26.656 204.75 27.3867 205.102 27.824C205.465 28.2613 205.902 28.48 206.414 28.48ZM205.582 21.84C204.985 21.84 204.633 22.8107 204.526 24.752H206.382C206.393 23.8987 206.329 23.2 206.19 22.656C206.062 22.112 205.859 21.84 205.582 21.84ZM139.179 46.784C139.307 47.0933 139.419 47.312 139.515 47.44C139.621 47.5573 139.781 47.632 139.995 47.664V48C139.547 48.064 139.12 48.096 138.715 48.096C137.936 48.096 137.349 47.9627 136.955 47.696C136.56 47.4187 136.277 46.9653 136.107 46.336C136.096 46.272 136.053 46.1013 135.979 45.824C135.915 45.536 135.819 45.2587 135.691 44.992C135.573 44.7253 135.435 44.5067 135.275 44.336C135.019 44.0587 134.688 43.9093 134.283 43.888V46.512C134.283 46.9493 134.336 47.2533 134.443 47.424C134.549 47.584 134.741 47.664 135.019 47.664V48C133.867 47.9573 133.125 47.936 132.795 47.936C132.443 47.936 131.733 47.9573 130.667 48V47.664C130.944 47.664 131.136 47.584 131.243 47.424C131.349 47.2533 131.403 46.9493 131.403 46.512V43.872C130.976 43.8933 130.64 44.048 130.395 44.336C130.032 44.752 129.755 45.4187 129.562 46.336C129.435 46.9653 129.152 47.4187 128.715 47.696C128.288 47.9627 127.696 48.096 126.939 48.096C126.544 48.096 126.123 48.064 125.675 48V47.664C125.888 47.632 126.043 47.5573 126.139 47.44C126.245 47.312 126.363 47.0933 126.491 46.784C126.597 46.5173 126.72 46.1707 126.859 45.744C126.987 45.3707 127.093 45.088 127.179 44.896C127.264 44.6933 127.376 44.5067 127.515 44.336C128.005 43.7813 128.768 43.504 129.803 43.504C130.08 43.504 130.336 43.52 130.571 43.552C130.325 43.424 130.139 43.248 130.011 43.024C129.883 42.7893 129.76 42.448 129.643 42L129.531 41.52C129.413 41.0613 129.312 40.7253 129.227 40.512C129.141 40.2987 129.013 40.1333 128.843 40.016C128.683 39.8987 128.443 39.8293 128.123 39.808C128.443 39.9787 128.677 40.1867 128.827 40.432C128.976 40.6773 129.051 40.9333 129.051 41.2C129.051 41.6267 128.885 41.9467 128.555 42.16C128.235 42.3733 127.883 42.48 127.499 42.48C127.083 42.48 126.741 42.352 126.475 42.096C126.208 41.8293 126.075 41.4667 126.075 41.008C126.075 40.5387 126.224 40.1653 126.523 39.888C126.832 39.6107 127.296 39.472 127.914 39.472C128.363 39.472 128.704 39.552 128.939 39.712C129.184 39.872 129.365 40.096 129.483 40.384C129.611 40.672 129.749 41.12 129.899 41.728C130.016 42.1867 130.117 42.528 130.203 42.752C130.299 42.976 130.437 43.1573 130.619 43.296C130.8 43.4347 131.061 43.5307 131.403 43.584V41.2C131.403 40.7627 131.333 40.464 131.195 40.304C131.067 40.1333 130.837 40.048 130.507 40.048V39.712C131.744 39.7547 132.549 39.776 132.923 39.776C133.275 39.776 134.027 39.7547 135.179 39.712V40.048C134.848 40.048 134.613 40.1333 134.475 40.304C134.347 40.464 134.283 40.7627 134.283 41.2V43.568C134.603 43.5253 134.848 43.44 135.019 43.312C135.2 43.1733 135.339 42.992 135.435 42.768C135.541 42.5333 135.653 42.1867 135.771 41.728C135.92 41.12 136.053 40.672 136.171 40.384C136.299 40.096 136.48 39.872 136.715 39.712C136.96 39.552 137.307 39.472 137.755 39.472C138.373 39.472 138.832 39.6107 139.131 39.888C139.44 40.1653 139.595 40.5387 139.595 41.008C139.595 41.4667 139.461 41.8293 139.195 42.096C138.928 42.352 138.587 42.48 138.171 42.48C137.787 42.48 137.429 42.3733 137.099 42.16C136.779 41.9467 136.619 41.6267 136.619 41.2C136.619 40.9333 136.693 40.6773 136.843 40.432C136.992 40.1867 137.227 39.9787 137.547 39.808C137.227 39.8293 136.981 39.904 136.811 40.032C136.64 40.16 136.512 40.336 136.427 40.56C136.341 40.784 136.24 41.1307 136.123 41.6L136.027 42C135.909 42.448 135.787 42.7893 135.659 43.024C135.531 43.248 135.349 43.424 135.115 43.552C135.371 43.52 135.637 43.504 135.915 43.504C136.928 43.504 137.675 43.7813 138.155 44.336C138.304 44.5067 138.421 44.6987 138.507 44.912C138.603 45.1253 138.709 45.4133 138.827 45.776C138.944 46.1493 139.061 46.4853 139.179 46.784ZM142.557 48.112C141.874 48.112 141.357 47.9307 141.005 47.568C140.663 47.1947 140.493 46.7307 140.493 46.176C140.493 45.696 140.615 45.3013 140.861 44.992C141.117 44.672 141.415 44.4267 141.757 44.256C142.098 44.0853 142.541 43.9093 143.085 43.728C143.661 43.536 144.082 43.36 144.349 43.2C144.615 43.04 144.749 42.816 144.749 42.528V41.104C144.749 40.7627 144.663 40.4587 144.493 40.192C144.322 39.9253 144.029 39.792 143.613 39.792C143.282 39.792 142.983 39.8827 142.717 40.064C143.079 40.192 143.346 40.384 143.517 40.64C143.698 40.8853 143.789 41.1627 143.789 41.472C143.789 41.888 143.639 42.224 143.341 42.48C143.053 42.7253 142.701 42.848 142.285 42.848C141.869 42.848 141.538 42.72 141.293 42.464C141.058 42.1973 140.941 41.8613 140.941 41.456C140.941 41.136 141.021 40.8587 141.181 40.624C141.341 40.3893 141.591 40.176 141.933 39.984C142.53 39.6427 143.383 39.472 144.493 39.472C145.079 39.472 145.586 39.5307 146.013 39.648C146.439 39.7547 146.802 39.9627 147.101 40.272C147.314 40.496 147.453 40.7787 147.517 41.12C147.591 41.4507 147.629 41.9147 147.629 42.512V46.8C147.629 47.0667 147.645 47.248 147.677 47.344C147.719 47.44 147.789 47.488 147.885 47.488C147.959 47.488 148.039 47.4667 148.125 47.424C148.21 47.3707 148.29 47.312 148.365 47.248L148.525 47.52C148.066 47.9147 147.41 48.112 146.557 48.112C145.917 48.112 145.469 48.0053 145.213 47.792C144.957 47.568 144.818 47.2693 144.797 46.896C144.295 47.7067 143.549 48.112 142.557 48.112ZM144.157 46.832C144.381 46.832 144.578 46.7413 144.749 46.56V43.184C144.653 43.344 144.477 43.552 144.221 43.808C143.933 44.0853 143.714 44.3573 143.565 44.624C143.415 44.88 143.341 45.232 143.341 45.68C143.341 46.448 143.613 46.832 144.157 46.832ZM158.417 40.048C158.139 40.048 157.947 40.128 157.841 40.288C157.734 40.448 157.681 40.752 157.681 41.2V46.512C157.681 46.9493 157.734 47.2533 157.841 47.424C157.947 47.584 158.139 47.664 158.417 47.664V48C157.35 47.9573 156.641 47.936 156.289 47.936C155.937 47.936 155.142 47.9573 153.905 48V47.664C154.235 47.664 154.465 47.584 154.593 47.424C154.731 47.2533 154.801 46.9493 154.801 46.512V41.2C154.801 40.7627 154.747 40.464 154.641 40.304C154.534 40.1333 154.342 40.048 154.065 40.048H153.921C153.718 40.048 153.574 40.0853 153.489 40.16C153.403 40.224 153.345 40.32 153.313 40.448C153.291 40.576 153.265 40.8267 153.233 41.2C153.115 42.5013 152.993 43.5627 152.865 44.384C152.747 45.1947 152.566 45.92 152.321 46.56C152.097 47.1253 151.83 47.5467 151.521 47.824C151.211 48.0907 150.849 48.224 150.433 48.224C149.974 48.224 149.558 48.0747 149.185 47.776C148.811 47.4773 148.625 47.0347 148.625 46.448C148.625 45.9573 148.763 45.568 149.041 45.28C149.329 44.992 149.702 44.848 150.161 44.848C150.609 44.848 150.95 44.9867 151.185 45.264C151.43 45.5307 151.553 45.8613 151.553 46.256C151.553 46.9813 151.126 47.5253 150.273 47.888C150.337 47.9093 150.417 47.92 150.513 47.92C151.121 47.92 151.617 47.44 152.001 46.48C152.246 45.8613 152.433 45.1093 152.561 44.224C152.699 43.328 152.811 42.32 152.897 41.2C152.929 40.7733 152.838 40.4747 152.625 40.304C152.422 40.1333 152.091 40.048 151.633 40.048V39.712C151.867 39.7333 152.187 39.744 152.593 39.744C152.87 39.744 153.078 39.7387 153.217 39.728L154.161 39.712C154.587 39.712 155.046 39.7227 155.537 39.744C155.942 39.7653 156.241 39.776 156.433 39.776C156.689 39.776 157.35 39.7547 158.417 39.712V40.048ZM168.124 39.472C169.382 39.472 170.353 39.8187 171.036 40.512C171.729 41.1947 172.076 42.3093 172.076 43.856C172.076 45.4027 171.729 46.5173 171.036 47.2C170.353 47.8827 169.382 48.224 168.124 48.224C166.886 48.224 165.926 47.8987 165.244 47.248C164.561 46.5867 164.204 45.52 164.172 44.048H162.956V46.512C162.956 46.9493 163.009 47.2533 163.116 47.424C163.222 47.584 163.414 47.664 163.692 47.664V48C162.625 47.9573 161.921 47.936 161.58 47.936C161.217 47.936 160.417 47.9573 159.18 48V47.664C159.51 47.664 159.74 47.584 159.868 47.424C160.006 47.2533 160.076 46.9493 160.076 46.512V41.2C160.076 40.7627 160.006 40.464 159.868 40.304C159.74 40.1333 159.51 40.048 159.18 40.048V39.712C160.332 39.7547 161.078 39.776 161.42 39.776C161.782 39.776 162.54 39.7547 163.692 39.712V40.048C163.414 40.048 163.222 40.1333 163.116 40.304C163.009 40.464 162.956 40.7627 162.956 41.2V43.728H164.172C164.193 42.224 164.545 41.1413 165.228 40.48C165.91 39.808 166.876 39.472 168.124 39.472ZM168.124 47.904C168.422 47.904 168.657 47.6053 168.828 47.008C168.998 46.4 169.084 45.3493 169.084 43.856C169.084 42.3627 168.998 41.312 168.828 40.704C168.657 40.096 168.422 39.792 168.124 39.792C167.825 39.792 167.59 40.096 167.42 40.704C167.249 41.312 167.164 42.3627 167.164 43.856C167.164 45.3493 167.249 46.4 167.42 47.008C167.59 47.6053 167.825 47.904 168.124 47.904ZM176.738 39.472C177.666 39.472 178.418 39.632 178.994 39.952C179.57 40.272 179.858 40.7467 179.858 41.376C179.858 42.6027 178.669 43.3333 176.29 43.568C177.57 43.568 178.557 43.728 179.25 44.048C179.954 44.368 180.306 44.9013 180.306 45.648C180.306 46.4267 179.922 47.0507 179.154 47.52C178.397 47.9893 177.33 48.224 175.954 48.224C174.951 48.224 174.194 48.064 173.682 47.744C173.149 47.4133 172.882 46.976 172.882 46.432C172.882 46.048 173.01 45.7333 173.266 45.488C173.522 45.2427 173.885 45.12 174.354 45.12C174.802 45.12 175.17 45.2427 175.458 45.488C175.746 45.7227 175.89 46.032 175.89 46.416C175.89 46.7467 175.778 47.0293 175.554 47.264C175.341 47.4987 175.069 47.664 174.738 47.76C174.962 47.8347 175.197 47.872 175.442 47.872C176.029 47.872 176.498 47.7013 176.85 47.36C177.213 47.008 177.394 46.5067 177.394 45.856C177.394 45.3653 177.282 44.9227 177.058 44.528C176.845 44.1333 176.503 43.8613 176.034 43.712C175.778 43.8507 175.554 43.92 175.362 43.92C175.127 43.92 175.01 43.8293 175.01 43.648C175.01 43.4773 175.133 43.392 175.378 43.392C175.527 43.392 175.751 43.424 176.05 43.488C176.381 43.2853 176.615 43.0293 176.754 42.72C176.903 42.4107 176.978 42.048 176.978 41.632C176.978 41.1093 176.871 40.7253 176.658 40.48C176.455 40.224 176.146 40.096 175.73 40.096C175.133 40.096 174.674 40.3253 174.354 40.784C174.034 41.232 173.842 41.8187 173.778 42.544H173.41C173.41 41.136 173.383 40.1547 173.33 39.6H173.698C173.73 39.8453 173.773 40.0267 173.826 40.144C173.879 40.2507 173.954 40.304 174.05 40.304C174.146 40.304 174.327 40.2133 174.594 40.032C174.903 39.8293 175.223 39.6853 175.554 39.6C175.885 39.5147 176.279 39.472 176.738 39.472ZM191.105 40.048C190.774 40.048 190.539 40.1333 190.401 40.304C190.273 40.464 190.209 40.7627 190.209 41.2V46.512C190.209 46.9493 190.273 47.2533 190.401 47.424C190.539 47.584 190.774 47.664 191.105 47.664V48C189.953 47.9573 189.206 47.936 188.865 47.936C188.502 47.936 187.745 47.9573 186.593 48V47.664C186.87 47.664 187.062 47.584 187.169 47.424C187.275 47.2533 187.329 46.9493 187.329 46.512V41.696L184.753 46.768C184.774 47.1093 184.838 47.344 184.945 47.472C185.051 47.6 185.233 47.664 185.489 47.664V48C184.422 47.9573 183.718 47.936 183.377 47.936C183.014 47.936 182.214 47.9573 180.977 48V47.664C181.307 47.664 181.537 47.584 181.665 47.424C181.803 47.2533 181.873 46.9493 181.873 46.512V41.2C181.873 40.7627 181.803 40.464 181.665 40.304C181.537 40.1333 181.307 40.048 180.977 40.048V39.712C182.129 39.7547 182.875 39.776 183.217 39.776C183.579 39.776 184.337 39.7547 185.489 39.712V40.048C185.211 40.048 185.019 40.1333 184.913 40.304C184.806 40.464 184.753 40.7627 184.753 41.2V46.064L187.329 41.024C187.318 40.6507 187.254 40.3947 187.137 40.256C187.03 40.1173 186.849 40.048 186.593 40.048V39.712C187.659 39.7547 188.363 39.776 188.705 39.776C189.067 39.776 189.867 39.7547 191.105 39.712V40.048Z" fill="black"/>
<defs>
<filter id="filter0_d" x="55.458" y="51.9133" width="45.7302" height="48.5078" filterUnits="userSpaceOnUse" color-interpolation-filters="sRGB">
<feFlood flood-opacity="0" result="BackgroundImageFix"/>
<feColorMatrix in="SourceAlpha" type="matrix" values="0 0 0 0 0 0 0 0 0 0 0 0 0 0 0 0 0 0 127 0"/>
<feOffset dy="4"/>
<feGaussianBlur stdDeviation="2"/>
<feColorMatrix type="matrix" values="0 0 0 0 0.8625 0 0 0 0 0.770903 0 0 0 0 0.521094 0 0 0 1 0"/>
<feBlend mode="normal" in2="BackgroundImageFix" result="effect1_dropShadow"/>
<feBlend mode="normal" in="SourceGraphic" in2="effect1_dropShadow" result="shape"/>
</filter>
<filter id="filter1_d" x="134.22" y="51.9133" width="45.7302" height="48.5078" filterUnits="userSpaceOnUse" color-interpolation-filters="sRGB">
<feFlood flood-opacity="0" result="BackgroundImageFix"/>
<feColorMatrix in="SourceAlpha" type="matrix" values="0 0 0 0 0 0 0 0 0 0 0 0 0 0 0 0 0 0 127 0"/>
<feOffset dy="4"/>
<feGaussianBlur stdDeviation="2"/>
<feColorMatrix type="matrix" values="0 0 0 0 0.8625 0 0 0 0 0.770903 0 0 0 0 0.521094 0 0 0 1 0"/>
<feBlend mode="normal" in2="BackgroundImageFix" result="effect1_dropShadow"/>
<feBlend mode="normal" in="SourceGraphic" in2="effect1_dropShadow" result="shape"/>
</filter>
<filter id="filter2_d" x="0" y="0" width="235" height="74" filterUnits="userSpaceOnUse" color-interpolation-filters="sRGB">
<feFlood flood-opacity="0" result="BackgroundImageFix"/>
<feColorMatrix in="SourceAlpha" type="matrix" values="0 0 0 0 0 0 0 0 0 0 0 0 0 0 0 0 0 0 127 0"/>
<feOffset dy="3"/>
<feGaussianBlur stdDeviation="2"/>
<feColorMatrix type="matrix" values="0 0 0 0 0 0 0 0 0 0 0 0 0 0 0 0 0 0 0.2 0"/>
<feBlend mode="normal" in2="BackgroundImageFix" result="effect1_dropShadow"/>
<feBlend mode="normal" in="SourceGraphic" in2="effect1_dropShadow" result="shape"/>
</filter>
<linearGradient id="paint0_linear" x1="87.149" y1="69.9052" x2="60.6861" y2="77.1993" gradientUnits="userSpaceOnUse">
<stop stop-color="#EED184"/>
<stop offset="1" stop-color="#EF6B2A"/>
</linearGradient>
<linearGradient id="paint1_linear" x1="148.259" y1="69.9052" x2="174.722" y2="77.1993" gradientUnits="userSpaceOnUse">
<stop stop-color="#EED184"/>
<stop offset="1" stop-color="#EF6B2A"/>
</linearGradient>
<linearGradient id="paint2_linear" x1="169.091" y1="33.8" x2="15.6939" y2="33.8" gradientUnits="userSpaceOnUse">
<stop stop-color="#F3CC64"/>
<stop offset="1" stop-color="#ED6C2C"/>
</linearGradient>
<linearGradient id="paint3_linear" x1="21.3333" y1="41.8182" x2="228" y2="41.8182" gradientUnits="userSpaceOnUse">
<stop offset="0.168034" stop-color="#FFEEBE"/>
<stop offset="0.58224" stop-color="#FFF9EA"/>
<stop offset="1" stop-color="white"/>
</linearGradient>
<linearGradient id="paint4_linear" x1="166.364" y1="33.3273" x2="21.0758" y2="33.3273" gradientUnits="userSpaceOnUse">
<stop stop-color="#F3CC64"/>
<stop offset="1" stop-color="#ED6C2C"/>
</linearGradient>
</defs>
</svg>
