<svg width="63" height="63" viewBox="0 0 63 63" fill="none" xmlns="http://www.w3.org/2000/svg">
<path d="M14.7 41.475C11.2256 41.475 8.40002 44.3005 8.40002 47.775C8.40002 51.2495 11.2256 54.075 14.7 54.075C18.1745 54.075 21 51.2495 21 47.775C21 44.3005 18.1744 41.475 14.7 41.475ZM14.7 51.975C12.3837 51.975 10.5001 50.0912 10.5001 47.775C10.5001 45.4586 12.3838 43.575 14.7 43.575C17.0163 43.575 18.9 45.4588 18.9 47.775C18.9 50.0912 17.0163 51.975 14.7 51.975Z" fill="#5975B7"/>
<path d="M50.4 41.475C46.9255 41.475 44.1 44.3005 44.1 47.775C44.1 51.2495 46.9255 54.075 50.4 54.075C53.8745 54.075 56.7 51.2495 56.7 47.775C56.7 44.3005 53.8745 41.475 50.4 41.475ZM50.4 51.975C48.0836 51.975 46.2 50.0912 46.2 47.775C46.2 45.4586 48.0837 43.575 50.4 43.575C52.7163 43.575 54.5999 45.4588 54.5999 47.775C54.5999 50.0912 52.7163 51.975 50.4 51.975Z" fill="#5975B7"/>
<path d="M62.833 35.657L53.383 20.957C53.1898 20.6566 52.857 20.475 52.4999 20.475H40.95C40.3693 20.475 39.9 20.9454 39.9 21.5249V47.7749C39.9 48.3556 40.3693 48.8249 40.95 48.8249H45.1499V46.7248H41.9999V22.575H51.9266L60.8999 36.5337V46.7251H55.6499V48.825H61.9499C62.5306 48.825 62.9999 48.3557 62.9999 47.775V36.225C63 36.0244 62.9423 35.8259 62.833 35.657Z" fill="#5975B7"/>
<path d="M46.2 34.125V26.7751H54.6001V24.675H45.1501C44.5694 24.675 44.1001 25.1454 44.1001 25.725V35.175C44.1001 35.7557 44.5694 36.225 45.1501 36.225H60.9001V34.1249H46.2V34.125Z" fill="#5975B7"/>
<path d="M40.95 13.1251H1.04996C0.470408 13.1251 0 13.5955 0 14.175V47.7751C0 48.3557 0.470408 48.825 1.04996 48.825H9.45V46.725H2.10004V15.225H39.9V46.725H19.95V48.825H40.95C41.5307 48.825 42 48.3557 42 47.7751V14.175C42 13.5955 41.5307 13.1251 40.95 13.1251Z" fill="#5975B7"/>
<path d="M7.34993 42.525H1.04993V44.6251H7.34993V42.525Z" fill="#5975B7"/>
<path d="M39.9001 42.525H22.05V44.6251H39.9001V42.525Z" fill="#5975B7"/>
<path d="M61.95 42.525H57.75V44.6251H61.95V42.525Z" fill="#5975B7"/>
<path d="M40.95 17.325H4.19995V19.425H40.95V17.325Z" fill="#5975B7"/>
<path d="M15.7499 46.7249H13.6499V48.8249H15.7499V46.7249Z" fill="#F7892F"/>
<path d="M51.4501 46.7249H49.3501V48.8249H51.4501V46.7249Z" fill="#F7892F"/>
<path d="M18.9 8.92502H4.19995V11.0251H18.9V8.92502Z" fill="#F7892F"/>
<path d="M2.10004 8.92502H0V11.0251H2.10004V8.92502Z" fill="#5975B7"/>
</svg>
