<svg width="63" height="63" viewBox="0 0 63 63" fill="none" xmlns="http://www.w3.org/2000/svg">
<g clip-path="url(#clip0)">
<path d="M50.7434 7.75195H26.1123C25.4328 7.75195 24.8818 8.30296 24.8818 8.98242C24.8818 9.66189 25.4327 10.2129 26.1123 10.2129H50.7434C51.4229 10.2129 51.9739 9.66189 51.9739 8.98242C51.9739 8.30296 51.4229 7.75195 50.7434 7.75195Z" fill="#5975B7"/>
<path d="M13.6359 8.11248C13.4072 7.88361 13.0897 7.75195 12.7661 7.75195C12.4411 7.75195 12.125 7.88349 11.8962 8.11248C11.6661 8.34135 11.5356 8.65881 11.5356 8.98242C11.5356 9.30604 11.6661 9.6235 11.8962 9.85224C12.125 10.0812 12.4411 10.2129 12.7661 10.2129C13.0897 10.2129 13.4072 10.0812 13.6359 9.85224C13.8648 9.6235 13.9966 9.30604 13.9966 8.98242C13.9966 8.65881 13.8649 8.34135 13.6359 8.11248Z" fill="#5975B7"/>
<path d="M9.11396 8.11248C8.88521 7.88361 8.56775 7.75195 8.24414 7.75195C7.92053 7.75195 7.60307 7.88349 7.3742 8.11248C7.14533 8.34147 7.01367 8.65881 7.01367 8.98242C7.01367 9.30604 7.14521 9.6235 7.3742 9.85224C7.60307 10.0812 7.92053 10.2129 8.24414 10.2129C8.56775 10.2129 8.88521 10.0812 9.11396 9.85224C9.34295 9.6235 9.47461 9.30604 9.47461 8.98242C9.47461 8.65881 9.34295 8.34135 9.11396 8.11248Z" fill="#5975B7"/>
<path d="M18.1579 8.11248C17.9292 7.88361 17.6117 7.75195 17.2881 7.75195C16.9631 7.75195 16.6458 7.88349 16.4181 8.11248C16.188 8.34135 16.0576 8.65881 16.0576 8.98242C16.0576 9.30604 16.188 9.6235 16.4181 9.85224C16.6458 10.0812 16.9631 10.2129 17.2881 10.2129C17.6117 10.2129 17.9292 10.0812 18.1579 9.85224C18.3869 9.6235 18.5186 9.30604 18.5186 8.98242C18.5186 8.65881 18.3869 8.34135 18.1579 8.11248Z" fill="#5975B7"/>
<path d="M56.8477 3.32227H1.23047C0.551004 3.32227 0 3.87327 0 4.55273V58.4473C0 59.1267 0.551004 59.6777 1.23047 59.6777H46.6348C47.3142 59.6777 47.8652 59.1267 47.8652 58.4473C47.8652 57.7678 47.3142 57.2168 46.6348 57.2168H2.46094V14.6426H55.6038C55.6083 14.6426 55.6128 14.642 55.6172 14.6418V40.2363C55.6172 40.9158 56.1682 41.4668 56.8477 41.4668C57.5271 41.4668 58.0781 40.9158 58.0781 40.2363V4.55273C58.0781 3.87327 57.5271 3.32227 56.8477 3.32227ZM55.6172 12.1824C55.6126 12.1824 55.6082 12.1816 55.6038 12.1816H2.46094V5.7832H55.6172V12.1824Z" fill="#5975B7"/>
<path d="M52.3747 57.5773C52.146 57.3485 51.8297 57.2168 51.5049 57.2168C51.1813 57.2168 50.8638 57.3483 50.6349 57.5773C50.4061 57.8063 50.2744 58.1237 50.2744 58.4473C50.2744 58.7709 50.406 59.0883 50.6349 59.3171C50.8638 59.546 51.1813 59.6777 51.5049 59.6777C51.8297 59.6777 52.146 59.5461 52.3747 59.3171C52.6036 59.0883 52.7354 58.7709 52.7354 58.4473C52.7354 58.1237 52.6037 57.8062 52.3747 57.5773Z" fill="#5975B7"/>
<path d="M61.8117 49.8798C61.8085 49.8767 61.8053 49.8734 61.8021 49.8703L54.5175 42.7435C54.0357 42.2721 53.264 42.2762 52.787 42.753L51.5068 44.0332L50.1224 42.6488C51.9029 40.5304 52.9772 37.7996 52.9772 34.8223C52.9772 28.1053 47.5126 22.6406 40.7956 22.6406C36.5283 22.6406 32.767 24.8466 30.5907 28.1777H13.2891C9.62534 28.1777 6.64453 31.1585 6.64453 34.8223C6.64453 38.486 9.62534 41.4668 13.2891 41.4668H30.5906C32.7669 44.7979 36.5281 47.0039 40.7955 47.0039C43.6505 47.0039 46.2789 46.0162 48.358 44.365L49.7664 45.7734L48.7059 46.834C48.4735 47.0664 48.3438 47.3822 48.3455 47.7108C48.3472 48.0395 48.4806 48.3539 48.7155 48.5837L55.9958 55.7062C56.762 56.4697 57.7826 56.8892 58.8728 56.8892C58.8795 56.8892 58.8864 56.8892 58.8932 56.8892C59.989 56.884 61.0185 56.455 61.792 55.6814C62.5658 54.9078 62.9947 53.8784 63 52.7824C63.0053 51.6823 62.5832 50.6514 61.8117 49.8798ZM29.3541 39.0059H13.2891C10.9822 39.0059 9.10547 37.1291 9.10547 34.8223C9.10547 32.5154 10.9822 30.6387 13.2891 30.6387H29.3541C28.8753 31.944 28.6138 33.3531 28.6138 34.8223C28.6138 36.2914 28.8753 37.7006 29.3541 39.0059ZM40.7955 44.543C35.4354 44.543 31.0747 40.1823 31.0747 34.8223C31.0747 29.4622 35.4354 25.1016 40.7955 25.1016C46.1555 25.1016 50.5162 29.4622 50.5162 34.8223C50.5162 40.1823 46.1555 44.543 40.7955 44.543ZM60.0519 53.9413C59.74 54.2532 59.3243 54.4261 58.8814 54.4283C58.8787 54.4283 58.8758 54.4283 58.8731 54.4283C58.4378 54.4283 58.0323 54.2624 57.7308 53.9607C57.7276 53.9577 57.7244 53.9543 57.7212 53.9513L51.3257 47.6944L52.376 46.6441C52.3763 46.6439 52.3765 46.6437 52.3767 46.6435C52.377 46.6433 52.3771 46.643 52.3774 46.6428L53.6664 45.3537L60.0754 51.6238C60.3765 51.927 60.541 52.3339 60.5391 52.7705C60.5368 53.2136 60.364 53.6292 60.0519 53.9413Z" fill="#F7892F"/>
<path d="M21.1063 33.9487C20.8762 33.7186 20.5599 33.5881 20.2363 33.5881C19.9114 33.5881 19.594 33.7198 19.3664 33.9487C19.1363 34.1775 19.0059 34.4939 19.0059 34.8186C19.0059 35.1422 19.1363 35.4597 19.3664 35.6885C19.5953 35.9173 19.9115 36.0491 20.2363 36.0491C20.5599 36.0491 20.8762 35.9174 21.1063 35.6885C21.335 35.4584 21.4668 35.1422 21.4668 34.8186C21.4668 34.495 21.3351 34.1775 21.1063 33.9487Z" fill="#5975B7"/>
<path d="M16.0046 33.9855C15.7758 33.7567 15.4584 33.6262 15.1348 33.6262C14.8112 33.6262 14.4937 33.7567 14.2648 33.9855C14.036 34.2155 13.9043 34.533 13.9043 34.8567C13.9043 35.1803 14.0358 35.4978 14.2648 35.7265C14.4937 35.9554 14.8112 36.0872 15.1348 36.0872C15.4584 36.0872 15.7758 35.9555 16.0046 35.7265C16.2335 35.4964 16.3652 35.1803 16.3652 34.8567C16.3652 34.533 16.2336 34.2155 16.0046 33.9855Z" fill="#5975B7"/>
<path d="M26.2065 33.9105C25.9777 33.6816 25.6615 33.5499 25.3367 33.5499C25.0131 33.5499 24.6956 33.6815 24.4667 33.9105C24.2379 34.1394 24.1062 34.4568 24.1062 34.7804C24.1062 35.104 24.2377 35.4215 24.4667 35.6502C24.6956 35.8791 25.0131 36.0109 25.3367 36.0109C25.6603 36.0109 25.9777 35.8792 26.2065 35.6502C26.4354 35.4215 26.5671 35.104 26.5671 34.7804C26.5671 34.4568 26.4355 34.1393 26.2065 33.9105Z" fill="#5975B7"/>
<path d="M40.7954 28.5469C40.1159 28.5469 39.5649 29.0979 39.5649 29.7773C39.5649 30.4568 40.1159 31.0078 40.7954 31.0078C42.8988 31.0078 44.6099 32.7189 44.6099 34.8223C44.6099 35.5017 45.1609 36.0527 45.8403 36.0527C46.5198 36.0527 47.0708 35.5017 47.0708 34.8223C47.0708 31.3621 44.2556 28.5469 40.7954 28.5469Z" fill="#5975B7"/>
<path d="M24.6708 45.4043H15.1348C14.4553 45.4043 13.9043 45.9553 13.9043 46.6348C13.9043 47.3142 14.4553 47.8652 15.1348 47.8652H24.6708C25.3502 47.8652 25.9013 47.3142 25.9013 46.6348C25.9013 45.9553 25.3502 45.4043 24.6708 45.4043Z" fill="#5975B7"/>
<path d="M30.7136 45.765C30.4848 45.5361 30.1685 45.4044 29.8438 45.4044C29.5201 45.4044 29.2027 45.536 28.9738 45.765C28.7449 45.994 28.6133 46.3113 28.6133 46.6349C28.6133 46.9585 28.7448 47.276 28.9738 47.5047C29.2039 47.7336 29.5201 47.8654 29.8438 47.8654C30.1674 47.8654 30.4848 47.7336 30.7136 47.5047C30.9437 47.276 31.0742 46.9585 31.0742 46.6349C31.0742 46.3113 30.9437 45.9938 30.7136 45.765Z" fill="#5975B7"/>
</g>
<defs>
<clipPath id="clip0">
<rect width="63" height="63" fill="white"/>
</clipPath>
</defs>
</svg>
