<svg width="63" height="63" viewBox="0 0 63 63" fill="none" xmlns="http://www.w3.org/2000/svg">
<path d="M63 31.5C63 30.6322 62.6051 29.8314 61.9166 29.3031L59.9059 27.7602L61.4487 25.7495C61.9771 25.0611 62.1512 24.1854 61.9267 23.347C61.702 22.5087 61.1133 21.8375 60.3116 21.5055L57.9701 20.5357L58.9399 18.1942C59.272 17.3924 59.2137 16.5014 58.7797 15.7499C58.3458 14.9983 57.6034 14.5023 56.7429 14.389L54.2304 14.0582L54.5612 11.5455C54.6745 10.6851 54.3876 9.83969 53.7739 9.22606C53.1603 8.61242 52.3147 8.32547 51.4544 8.43868L48.9416 8.76943L48.6109 6.25681C48.4976 5.39634 48.0016 4.654 47.2499 4.22002C46.4984 3.78615 45.6074 3.72783 44.8058 4.05993L42.4643 5.02979L41.4945 2.68833C41.1624 1.88655 40.491 1.2979 39.6527 1.07334C38.8145 0.848654 37.9389 1.02289 37.2505 1.55125L35.2398 3.09414L33.697 1.08355C33.1686 0.394857 32.3679 0 31.5 0C30.6322 0 29.8314 0.394857 29.3031 1.08343L27.7604 3.09401L25.7498 1.55125C25.0613 1.02289 24.1857 0.848654 23.3474 1.07334C22.5091 1.2979 21.8379 1.88655 21.5056 2.68833L20.5358 5.02979L18.1943 4.05993C17.3924 3.72771 16.5014 3.78615 15.75 4.22014C14.9984 4.654 14.5024 5.39647 14.3891 6.25681L14.0584 8.76955L11.5457 8.43868C10.6854 8.32547 9.83981 8.61242 9.22618 9.22606C8.61254 9.83969 8.3256 10.6851 8.43892 11.5456L8.76967 14.0582L6.25706 14.389C5.39659 14.5022 4.65437 14.9983 4.22038 15.7499C3.78652 16.5014 3.72807 17.3923 4.06018 18.1942L5.03003 20.5357L2.68857 21.5055C1.8868 21.8376 1.29814 22.5088 1.07358 23.347C0.8489 24.1854 1.02313 25.0611 1.55138 25.7495L3.09426 27.7602L1.08367 29.303C0.394857 29.8314 0 30.6322 0 31.5C0 32.3679 0.394857 33.1686 1.08343 33.697L3.09401 35.2398L1.55113 37.2505C1.02289 37.9389 0.848654 38.8146 1.07334 39.653C1.2979 40.4913 1.88655 41.1625 2.68833 41.4945L5.02979 42.4643L4.05993 44.8058C3.72783 45.6076 3.78615 46.4984 4.22014 47.25C4.65413 48.0016 5.39647 48.4976 6.25681 48.6109L8.76955 48.9416L8.43868 51.4543C8.32547 52.3147 8.61242 53.1602 9.22606 53.7738C9.83969 54.3875 10.6851 54.6742 11.5456 54.5612L14.0582 54.2304L14.389 56.7431C14.5023 57.6035 14.9983 58.3459 15.75 58.7799C16.5016 59.2137 17.3926 59.272 18.1942 58.9401L20.5357 57.9702L21.5055 60.3116C21.8376 61.1133 22.5088 61.702 23.347 61.9265C24.1852 62.1512 25.061 61.977 25.7495 61.4487L27.7602 59.9059L29.303 61.9165C29.8314 62.6051 30.6322 63 31.5 63C32.3679 63 33.1686 62.6051 33.6969 61.9166L35.2398 59.906L37.2504 61.4489C37.9388 61.9771 38.8143 62.1513 39.6528 61.9267C40.4912 61.7021 41.1624 61.1134 41.4944 60.3117L42.4642 57.9702L44.8057 58.9401C45.6076 59.2722 46.4984 59.2138 47.2498 58.78C48.0013 58.3461 48.4974 57.6037 48.6108 56.7432L48.9415 54.2306L51.4543 54.5613C52.3145 54.6742 53.1601 54.3876 53.7739 53.7739C54.3875 53.1603 54.6744 52.3149 54.5611 51.4544L54.2303 48.9418L56.7431 48.611C57.6034 48.4977 58.3456 48.0017 58.7796 47.2501C59.2136 46.4986 59.2719 45.6077 58.9398 44.8058L57.97 42.4645L60.3114 41.4946C61.1132 41.1625 61.7019 40.4913 61.9265 39.6531C62.1511 38.8148 61.977 37.939 61.4486 37.2506L59.9057 35.2399L61.9165 33.6971C62.6051 33.1686 63 32.3679 63 31.5ZM60.793 32.2326L58.0502 34.3372C57.856 34.4862 57.729 34.7062 57.6971 34.9489C57.6651 35.1915 57.7308 35.437 57.8798 35.6312L59.9844 38.374C60.1606 38.6036 60.2186 38.8956 60.1437 39.1752C60.0689 39.4547 59.8725 39.6786 59.6051 39.7893L56.4111 41.1123C55.9402 41.3073 55.7165 41.8473 55.9116 42.318L57.2346 45.5121C57.3453 45.7795 57.3258 46.0766 57.1811 46.3273C57.0364 46.5779 56.7888 46.7433 56.502 46.7811L53.0743 47.2323C52.5691 47.2988 52.2133 47.7624 52.2799 48.2677L52.7311 51.6953C52.7689 51.9823 52.6732 52.2642 52.4685 52.4688C52.2639 52.6734 51.9826 52.7694 51.6949 52.7314L48.2674 52.2802C48.0251 52.2484 47.7793 52.314 47.5852 52.463C47.391 52.612 47.264 52.832 47.232 53.0747L46.7808 56.5023C46.7429 56.7892 46.5777 57.0368 46.327 57.1815C46.0765 57.3261 45.7792 57.3456 45.512 57.2349L42.3179 55.9119C41.847 55.7169 41.3072 55.9406 41.1122 56.4113L39.7892 59.6054C39.6784 59.8728 39.4545 60.069 39.175 60.144C38.8957 60.2189 38.6035 60.1609 38.3738 59.9846L35.6311 57.88C35.437 57.7311 35.1918 57.6654 34.9489 57.6972C34.7061 57.7292 34.4861 57.8561 34.3371 58.0503L32.2325 60.7932C32.0564 61.0226 31.7895 61.1543 31.5 61.1543C31.2105 61.1543 30.9436 61.0226 30.7674 60.793L28.6628 58.0502C28.5138 57.856 28.2938 57.729 28.0511 57.6971C28.0109 57.6918 27.9708 57.6892 27.9307 57.6892C27.7286 57.6892 27.5309 57.7556 27.3688 57.8799L24.626 59.9845C24.3964 60.1607 24.1043 60.2189 23.8248 60.1438C23.5453 60.069 23.3214 59.8726 23.2107 59.6053L21.8877 56.4112C21.6927 55.9403 21.1526 55.7166 20.682 55.9118L17.4879 57.2348C17.2205 57.3454 16.9234 57.3261 16.6729 57.1814C16.4222 57.0367 16.2568 56.7891 16.2191 56.5021L15.7678 53.0745C15.7359 52.8319 15.6089 52.6119 15.4147 52.4629C15.2205 52.314 14.9752 52.248 14.7324 52.28L11.3048 52.7312C11.0185 52.7694 10.736 52.6734 10.5313 52.4687C10.3267 52.264 10.231 51.9821 10.2688 51.6952L10.72 48.2676C10.7865 47.7622 10.4307 47.2987 9.92545 47.2322L6.49786 46.7809C6.21091 46.7432 5.96334 46.5778 5.81864 46.3271C5.67394 46.0765 5.6545 45.7795 5.76524 45.5121L7.08824 42.318C7.28327 41.8471 7.05969 41.3073 6.58879 41.1123L3.39474 39.7893C3.12736 39.6786 2.93098 39.4547 2.85616 39.1752C2.78123 38.8956 2.83931 38.6036 3.01551 38.374L5.1201 35.6312C5.26911 35.437 5.33482 35.1915 5.30295 34.9489C5.27096 34.7062 5.14397 34.4862 4.94981 34.3372L2.20697 32.2326C1.97736 32.0564 1.8457 31.7894 1.8457 31.5C1.8457 31.2106 1.97736 30.9436 2.20709 30.7674L4.94993 28.6628C5.1441 28.5138 5.27108 28.2938 5.30307 28.0511C5.33494 27.8085 5.26924 27.563 5.12023 27.3688L3.01563 24.626C2.83943 24.3964 2.78135 24.1044 2.85629 23.8248C2.9311 23.5453 3.12748 23.3214 3.39486 23.2107L6.58891 21.8877C6.81507 21.7941 6.99472 21.6144 7.08836 21.3883C7.182 21.1621 7.182 20.9081 7.08836 20.682L5.76536 17.4879C5.65462 17.2205 5.67406 16.9235 5.81876 16.6727C5.96347 16.4221 6.21104 16.2567 6.49798 16.2189L9.92558 15.7677C10.4308 15.7011 10.7867 15.2376 10.7201 14.7323L10.2689 11.3047C10.2311 11.0177 10.3267 10.7358 10.5313 10.5312C10.736 10.3266 11.0181 10.2311 11.3048 10.2686L14.7324 10.7198C15.2387 10.7859 15.7014 10.4306 15.7678 9.92533L16.2191 6.49774C16.2568 6.21079 16.4222 5.96334 16.6729 5.81852C16.9237 5.67381 17.2207 5.6545 17.488 5.76512L20.6821 7.08812C21.153 7.28302 21.6928 7.05957 21.8878 6.58867L23.2108 3.39462C23.3216 3.12724 23.5454 2.93085 23.825 2.85604C24.1048 2.78111 24.3966 2.83931 24.6261 3.01539L27.3688 5.11998C27.7732 5.43018 28.3526 5.35389 28.6628 4.94968L30.7674 2.20685C30.9436 1.97736 31.2106 1.8457 31.5 1.8457C31.7894 1.8457 32.0565 1.97736 32.2327 2.20697L34.3373 4.94981C34.4863 5.14397 34.7064 5.27108 34.9491 5.30307C35.1913 5.33482 35.4371 5.26924 35.6313 5.12023L38.3741 3.01563C38.6036 2.83943 38.8954 2.78147 39.1753 2.85629C39.4549 2.93122 39.6788 3.12761 39.7895 3.39486L41.1125 6.58891C41.3076 7.05969 41.8473 7.28339 42.3183 7.08836L45.5123 5.76536C45.7797 5.65462 46.077 5.67406 46.3274 5.81876C46.578 5.96347 46.7434 6.21104 46.7812 6.49798L47.2324 9.92558C47.2987 10.4308 47.7622 10.7864 48.2677 10.7201L51.6954 10.2689C51.9816 10.2307 52.2642 10.3267 52.4689 10.5315C52.6735 10.7361 52.7691 11.018 52.7315 11.3049L52.2803 14.7326C52.2137 15.238 52.5694 15.7016 53.0748 15.7681L56.5023 16.2193C56.7892 16.2571 57.0368 16.4225 57.1815 16.6731C57.3262 16.9237 57.3456 17.2209 57.235 17.4883L55.912 20.6823C55.717 21.1532 55.9404 21.693 56.4115 21.8881L59.6055 23.2111C59.8729 23.3218 60.0693 23.5456 60.1441 23.8252C60.219 24.1048 60.1609 24.3967 59.9847 24.6264L57.8801 27.3692C57.7311 27.5634 57.6654 27.8088 57.6974 28.0515C57.7294 28.2941 57.8564 28.5141 58.0506 28.6632L60.7934 30.7677C61.0226 30.9436 61.1543 31.2106 61.1543 31.5C61.1543 31.7894 61.0226 32.0564 60.793 32.2326Z" fill="#5975B7"/>
<path d="M32.1526 33.4576C31.7921 33.0972 31.2079 33.0973 30.8475 33.4576L20.015 44.29C19.6552 44.6498 19.0698 44.6498 18.7099 44.29C18.3501 43.9302 18.3501 43.3447 18.7099 42.9849L42.985 18.7098C43.1593 18.5355 43.391 18.4395 43.6376 18.4395C43.884 18.4395 44.1158 18.5355 44.2901 18.7098C44.65 19.0696 44.65 19.6552 44.2901 20.015L33.4576 30.8474C33.0972 31.2078 33.0972 31.7922 33.4576 32.1524C33.8182 32.5128 34.4024 32.5128 34.7628 32.1524L45.5952 21.32C46.6745 20.2405 46.6745 18.4841 45.5951 17.4047C45.0722 16.8817 44.3771 16.5938 43.6376 16.5938C42.8979 16.5938 42.2028 16.8818 41.6799 17.4047L17.4048 41.6797C16.3253 42.7591 16.3253 44.5156 17.4048 45.5951C17.9445 46.1349 18.6535 46.4047 19.3625 46.4047C20.0715 46.4047 20.7804 46.1349 21.3202 45.5951L32.1526 34.7626C32.5129 34.4024 32.5129 33.818 32.1526 33.4576Z" fill="#F7892F"/>
<path d="M40.6357 32.3301C36.0559 32.3301 32.3301 36.056 32.3301 40.6358C32.3301 45.2156 36.0559 48.9414 40.6357 48.9414C45.2155 48.9414 48.9414 45.2156 48.9414 40.6358C48.9414 36.056 45.2155 32.3301 40.6357 32.3301ZM40.6357 47.0957C37.0738 47.0957 34.1758 44.1979 34.1758 40.6358C34.1758 37.0737 37.0738 34.1758 40.6357 34.1758C44.1977 34.1758 47.0957 37.0737 47.0957 40.6358C47.0957 44.1979 44.1977 47.0957 40.6357 47.0957Z" fill="#F7892F"/>
<path d="M40.6357 36.0215C38.0914 36.0215 36.0215 38.0914 36.0215 40.6358C36.0215 43.1801 38.0914 45.25 40.6357 45.25C43.1801 45.25 45.25 43.1801 45.25 40.6358C45.25 38.0914 43.1801 36.0215 40.6357 36.0215ZM40.6357 43.4043C39.1092 43.4043 37.8672 42.1624 37.8672 40.6358C37.8672 39.1091 39.1092 37.8672 40.6357 37.8672C42.1623 37.8672 43.4043 39.1091 43.4043 40.6358C43.4043 42.1624 42.1623 43.4043 40.6357 43.4043Z" fill="#F7892F"/>
<path d="M30.6699 22.3642C30.6699 17.7844 26.9441 14.0586 22.3643 14.0586C17.7845 14.0586 14.0586 17.7844 14.0586 22.3642C14.0586 26.944 17.7845 30.6699 22.3643 30.6699C26.9441 30.6699 30.6699 26.944 30.6699 22.3642ZM15.9043 22.3642C15.9043 18.8021 18.8022 15.9043 22.3643 15.9043C25.9263 15.9043 28.8242 18.8021 28.8242 22.3642C28.8242 25.9263 25.9263 28.8242 22.3643 28.8242C18.8022 28.8242 15.9043 25.9263 15.9043 22.3642Z" fill="#F7892F"/>
<path d="M26.9785 22.3642C26.9785 19.8199 24.9086 17.75 22.3643 17.75C19.8199 17.75 17.75 19.8199 17.75 22.3642C17.75 24.9086 19.8199 26.9785 22.3643 26.9785C24.9086 26.9785 26.9785 24.9086 26.9785 22.3642ZM19.5957 22.3642C19.5957 20.8376 20.8376 19.5957 22.3643 19.5957C23.8909 19.5957 25.1328 20.8376 25.1328 22.3642C25.1328 23.8909 23.8909 25.1328 22.3643 25.1328C20.8376 25.1328 19.5957 23.8909 19.5957 22.3642Z" fill="#F7892F"/>
</svg>
