<svg width="17" height="17" viewBox="0 0 17 17" fill="none" xmlns="http://www.w3.org/2000/svg">
<g clip-path="url(#clip0)">
<path d="M15.2376 2.21412H14.1704V1.36832C14.1704 1.12477 13.9711 0.925499 13.7275 0.925499C13.484 0.925499 13.2847 1.12477 13.2847 1.36832V2.21412H8.94505V1.36832C8.94505 1.12477 8.74577 0.925499 8.50222 0.925499C8.25867 0.925499 8.0594 1.12477 8.0594 1.36832V2.21412H3.67544V1.36832C3.67544 1.12477 3.47617 0.925499 3.23262 0.925499C2.98906 0.925499 2.78979 1.12477 2.78979 1.36832V2.21412H1.76687C0.792655 2.21412 0 3.03334 0 4.00755V14.3032C0 15.2818 0.788227 16.0745 1.76687 16.0745H15.2331C16.2118 16.0745 17 15.2818 17 14.3076V4.00755C17.0044 3.03334 16.2118 2.21412 15.2376 2.21412ZM16.1188 14.3032C16.1188 14.7903 15.7291 15.1844 15.242 15.1888H15.2376H1.76687C1.27976 15.1888 0.885648 14.7947 0.885648 14.3076V14.3032V4.00755C0.885648 3.51602 1.27976 3.09976 1.76687 3.09976H2.78979V3.74186C2.78979 3.98541 2.98906 4.18468 3.23262 4.18468C3.47617 4.18468 3.67544 3.98541 3.67544 3.74186V3.09976H8.0594V3.74186C8.0594 3.98541 8.25867 4.18468 8.50222 4.18468C8.74577 4.18468 8.94505 3.98541 8.94505 3.74186V3.09976H13.2847V3.74186C13.2847 3.98541 13.484 4.18468 13.7275 4.18468C13.9711 4.18468 14.1704 3.98541 14.1704 3.74186V3.09976H15.2376C15.7291 3.09976 16.1188 3.52045 16.1188 4.00755V14.3032Z" fill="white"/>
<path d="M7.33764 5.97812H6.5627C6.31914 5.97812 6.11987 6.17739 6.11987 6.42094C6.11987 6.6645 6.31914 6.86377 6.5627 6.86377H7.33764C7.58119 6.86377 7.78046 6.6645 7.78046 6.42094C7.78046 6.17739 7.58119 5.97812 7.33764 5.97812Z" fill="white"/>
<path d="M10.4197 5.97812H9.64473C9.40118 5.97812 9.2019 6.17739 9.2019 6.42094C9.2019 6.6645 9.40118 6.86377 9.64473 6.86377H10.4197C10.6632 6.86377 10.8625 6.6645 10.8625 6.42094C10.8625 6.17739 10.6677 5.97812 10.4197 5.97812Z" fill="white"/>
<path d="M13.5283 5.97812H12.7534C12.5098 5.97812 12.3105 6.17739 12.3105 6.42094C12.3105 6.6645 12.5098 6.86377 12.7534 6.86377H13.5283C13.7719 6.86377 13.9711 6.6645 13.9711 6.42094C13.9711 6.17739 13.7719 5.97812 13.5283 5.97812Z" fill="white"/>
<path d="M7.33764 9.0336H6.5627C6.31914 9.0336 6.11987 9.23287 6.11987 9.47642C6.11987 9.71998 6.31914 9.91925 6.5627 9.91925H7.33764C7.58119 9.91925 7.78046 9.71998 7.78046 9.47642C7.78046 9.23287 7.58119 9.0336 7.33764 9.0336Z" fill="white"/>
<path d="M4.23342 9.0336H3.45405C3.2105 9.0336 3.01123 9.23287 3.01123 9.47642C3.01123 9.71998 3.2105 9.91925 3.45405 9.91925H4.229C4.47255 9.91925 4.67182 9.71998 4.67182 9.47642C4.67182 9.23287 4.47698 9.0336 4.23342 9.0336Z" fill="white"/>
<path d="M10.4197 9.0336H9.64473C9.40118 9.0336 9.2019 9.23287 9.2019 9.47642C9.2019 9.71998 9.40118 9.91925 9.64473 9.91925H10.4197C10.6632 9.91925 10.8625 9.71998 10.8625 9.47642C10.8625 9.23287 10.6677 9.0336 10.4197 9.0336Z" fill="white"/>
<path d="M13.5283 9.0336H12.7534C12.5098 9.0336 12.3105 9.23287 12.3105 9.47642C12.3105 9.71998 12.5098 9.91925 12.7534 9.91925H13.5283C13.7719 9.91925 13.9711 9.71998 13.9711 9.47642C13.9711 9.23287 13.7719 9.0336 13.5283 9.0336Z" fill="white"/>
<path d="M7.33764 12.0448H6.5627C6.31914 12.0448 6.11987 12.2441 6.11987 12.4876C6.11987 12.7312 6.31914 12.9304 6.5627 12.9304H7.33764C7.58119 12.9304 7.78046 12.7312 7.78046 12.4876C7.78046 12.2441 7.58119 12.0448 7.33764 12.0448Z" fill="white"/>
<path d="M4.23342 12.0448H3.45405C3.2105 12.0448 3.01123 12.2441 3.01123 12.4876C3.01123 12.7312 3.2105 12.9304 3.45405 12.9304H4.229C4.47255 12.9304 4.67182 12.7312 4.67182 12.4876C4.67182 12.2441 4.47698 12.0448 4.23342 12.0448Z" fill="white"/>
<path d="M10.4197 12.0448H9.64473C9.40118 12.0448 9.2019 12.2441 9.2019 12.4876C9.2019 12.7312 9.40118 12.9304 9.64473 12.9304H10.4197C10.6632 12.9304 10.8625 12.7312 10.8625 12.4876C10.8625 12.2441 10.6677 12.0448 10.4197 12.0448Z" fill="white"/>
</g>
<defs>
<clipPath id="clip0">
<rect width="17" height="17" fill="white"/>
</clipPath>
</defs>
</svg>
