<svg width="17" height="17" viewBox="0 0 17 17" fill="none" xmlns="http://www.w3.org/2000/svg">
<g clip-path="url(#clip0)">
<path d="M15.2376 2.21415H14.1704V1.36836C14.1704 1.12481 13.9711 0.925537 13.7275 0.925537C13.484 0.925537 13.2847 1.12481 13.2847 1.36836V2.21415H8.94505V1.36836C8.94505 1.12481 8.74577 0.925537 8.50222 0.925537C8.25867 0.925537 8.0594 1.12481 8.0594 1.36836V2.21415H3.67544V1.36836C3.67544 1.12481 3.47617 0.925537 3.23262 0.925537C2.98906 0.925537 2.78979 1.12481 2.78979 1.36836V2.21415H1.76687C0.792655 2.21415 0 3.03338 0 4.00759V14.3032C0 15.2819 0.788227 16.0745 1.76687 16.0745H15.2331C16.2118 16.0745 17 15.2819 17 14.3077V4.00759C17.0044 3.03338 16.2118 2.21415 15.2376 2.21415ZM16.1188 14.3032C16.1188 14.7903 15.7291 15.1845 15.242 15.1889H15.2376H1.76687C1.27976 15.1889 0.885648 14.7948 0.885648 14.3077V14.3032V4.00759C0.885648 3.51605 1.27976 3.0998 1.76687 3.0998H2.78979V3.74189C2.78979 3.98545 2.98906 4.18472 3.23262 4.18472C3.47617 4.18472 3.67544 3.98545 3.67544 3.74189V3.0998H8.0594V3.74189C8.0594 3.98545 8.25867 4.18472 8.50222 4.18472C8.74577 4.18472 8.94505 3.98545 8.94505 3.74189V3.0998H13.2847V3.74189C13.2847 3.98545 13.484 4.18472 13.7275 4.18472C13.9711 4.18472 14.1704 3.98545 14.1704 3.74189V3.0998H15.2376C15.7291 3.0998 16.1188 3.52048 16.1188 4.00759V14.3032Z" fill="black"/>
<path d="M7.33886 5.97815H6.56392C6.32036 5.97815 6.12109 6.17742 6.12109 6.42097C6.12109 6.66453 6.32036 6.8638 6.56392 6.8638H7.33886C7.58241 6.8638 7.78168 6.66453 7.78168 6.42097C7.78168 6.17742 7.58241 5.97815 7.33886 5.97815Z" fill="black"/>
<path d="M10.4209 5.97815H9.64595C9.4024 5.97815 9.20312 6.17742 9.20312 6.42097C9.20312 6.66453 9.4024 6.8638 9.64595 6.8638H10.4209C10.6644 6.8638 10.8637 6.66453 10.8637 6.42097C10.8637 6.17742 10.6689 5.97815 10.4209 5.97815Z" fill="black"/>
<path d="M13.5264 5.97815H12.7514C12.5079 5.97815 12.3086 6.17742 12.3086 6.42097C12.3086 6.66453 12.5079 6.8638 12.7514 6.8638H13.5264C13.7699 6.8638 13.9692 6.66453 13.9692 6.42097C13.9692 6.17742 13.7699 5.97815 13.5264 5.97815Z" fill="black"/>
<path d="M7.33886 9.03357H6.56392C6.32036 9.03357 6.12109 9.23284 6.12109 9.47639C6.12109 9.71995 6.32036 9.91922 6.56392 9.91922H7.33886C7.58241 9.91922 7.78168 9.71995 7.78168 9.47639C7.78168 9.23284 7.58241 9.03357 7.33886 9.03357Z" fill="black"/>
<path d="M4.23391 9.03357H3.45454C3.21099 9.03357 3.01172 9.23284 3.01172 9.47639C3.01172 9.71995 3.21099 9.91922 3.45454 9.91922H4.22948C4.47304 9.91922 4.67231 9.71995 4.67231 9.47639C4.67231 9.23284 4.47747 9.03357 4.23391 9.03357Z" fill="black"/>
<path d="M10.4209 9.03357H9.64595C9.4024 9.03357 9.20312 9.23284 9.20312 9.47639C9.20312 9.71995 9.4024 9.91922 9.64595 9.91922H10.4209C10.6644 9.91922 10.8637 9.71995 10.8637 9.47639C10.8637 9.23284 10.6689 9.03357 10.4209 9.03357Z" fill="black"/>
<path d="M13.5264 9.03357H12.7514C12.5079 9.03357 12.3086 9.23284 12.3086 9.47639C12.3086 9.71995 12.5079 9.91922 12.7514 9.91922H13.5264C13.7699 9.91922 13.9692 9.71995 13.9692 9.47639C13.9692 9.23284 13.7699 9.03357 13.5264 9.03357Z" fill="black"/>
<path d="M7.33886 12.0448H6.56392C6.32036 12.0448 6.12109 12.2441 6.12109 12.4876C6.12109 12.7312 6.32036 12.9304 6.56392 12.9304H7.33886C7.58241 12.9304 7.78168 12.7312 7.78168 12.4876C7.78168 12.2441 7.58241 12.0448 7.33886 12.0448Z" fill="black"/>
<path d="M4.23391 12.0448H3.45454C3.21099 12.0448 3.01172 12.2441 3.01172 12.4876C3.01172 12.7312 3.21099 12.9304 3.45454 12.9304H4.22948C4.47304 12.9304 4.67231 12.7312 4.67231 12.4876C4.67231 12.2441 4.47747 12.0448 4.23391 12.0448Z" fill="black"/>
<path d="M10.4209 12.0448H9.64595C9.4024 12.0448 9.20312 12.2441 9.20312 12.4876C9.20312 12.7312 9.4024 12.9304 9.64595 12.9304H10.4209C10.6644 12.9304 10.8637 12.7312 10.8637 12.4876C10.8637 12.2441 10.6689 12.0448 10.4209 12.0448Z" fill="black"/>
</g>
<defs>
<clipPath id="clip0">
<rect width="17" height="17" fill="white"/>
</clipPath>
</defs>
</svg>
