<svg width="19" height="19" viewBox="0 0 19 19" fill="none" xmlns="http://www.w3.org/2000/svg">
<path d="M6.06096 14.7786C4.96544 14.7786 4.07739 15.6667 4.07739 16.7621C4.07739 17.8576 4.96548 18.7457 6.06096 18.7457C7.15647 18.7457 8.04452 17.8576 8.04452 16.7621C8.04456 15.6667 7.15647 14.7786 6.06096 14.7786ZM6.06096 17.8641C5.45235 17.8641 4.95899 17.3708 4.95899 16.7622C4.95899 16.1536 5.45235 15.6602 6.06096 15.6602C6.66957 15.6602 7.16293 16.1536 7.16293 16.7622C7.16297 17.3708 6.66957 17.8641 6.06096 17.8641Z" fill="#fff"/>
<path d="M14.436 14.7786C13.3404 14.7786 12.4524 15.6667 12.4524 16.7621C12.4524 17.8576 13.3405 18.7457 14.436 18.7457C15.5314 18.7457 16.4195 17.8576 16.4195 16.7621C16.4195 15.6667 15.5315 14.7786 14.436 14.7786ZM14.436 17.8641C13.8273 17.8641 13.334 17.3708 13.334 16.7622C13.334 16.1536 13.8273 15.6602 14.436 15.6602C15.0446 15.6602 15.5379 16.1536 15.5379 16.7622C15.538 17.3708 15.0446 17.8641 14.436 17.8641Z" fill="#fff"/>
<path d="M18.9102 3.20776C18.8184 3.10749 18.6928 3.04472 18.5575 3.03143L4.20962 2.83307L3.8129 1.62087C3.53343 0.810527 2.77459 0.263464 1.91746 0.254395H0.440798C0.197344 0.254395 0 0.451739 0 0.695192C0 0.938644 0.197344 1.13599 0.440798 1.13599H1.91746C2.39673 1.14658 2.81876 1.45432 2.97539 1.90739L5.77445 10.3486L5.55407 10.8555C5.30826 11.4894 5.38208 12.2029 5.75243 12.773C6.11923 13.333 6.73633 13.6786 7.40543 13.6987H15.9789C16.2224 13.6987 16.4197 13.5013 16.4197 13.2579C16.4197 13.0144 16.2224 12.8171 15.9789 12.8171H7.40539C7.02753 12.8076 6.67971 12.6089 6.47971 12.2881C6.28194 11.9713 6.24132 11.581 6.36952 11.2302L6.54586 10.8335L15.8246 9.86372C16.8438 9.75146 17.6822 9.01018 17.9184 8.01236L18.9764 3.58237C19.024 3.4548 18.9987 3.31133 18.9102 3.20776ZM17.0589 7.81405C16.9158 8.45637 16.3704 8.93015 15.7144 8.98217L6.54586 9.92987L4.49614 3.71467L18.0065 3.91302L17.0589 7.81405Z" fill="#fff"/>
</svg>
