<svg width="18" height="14" viewBox="0 0 18 14" fill="none" xmlns="http://www.w3.org/2000/svg">
<path d="M16.128 0H1.55409C0.698234 0 0 0.697474 0 1.55409V11.9147C0 12.7684 0.695126 13.4688 1.55409 13.4688H16.128C16.9817 13.4688 17.6821 12.7736 17.6821 11.9147V1.55409C17.6821 0.700375 16.9869 0 16.128 0ZM15.9134 1.03606L8.87397 8.07548L1.7737 1.03606H15.9134ZM1.03606 11.7001V1.76368L6.02568 6.71051L1.03606 11.7001ZM1.76865 12.4327L6.76142 7.43993L8.51087 9.17436C8.71338 9.37515 9.04019 9.37449 9.24188 9.17277L10.9477 7.46697L15.9134 12.4327H1.76865ZM16.646 11.7001L11.6803 6.73438L16.646 1.76862V11.7001Z" fill="white"/>
</svg>
