<svg width="25" height="21" viewBox="0 0 25 21" fill="none" xmlns="http://www.w3.org/2000/svg">
<path d="M17.9114 0.151607C15.8259 0.140462 13.8433 1.05636 12.5 2.65158C11.165 1.04546 9.17695 0.126954 7.08857 0.151607C3.17365 0.151607 0 3.32525 0 7.24018C0 13.9491 11.7088 20.4997 12.1835 20.7528C12.3751 20.8808 12.6249 20.8808 12.8165 20.7528C13.2912 20.4997 25 14.044 25 7.24018C25 3.32525 21.8263 0.151607 17.9114 0.151607ZM12.5 19.487C10.6645 18.4111 1.26582 12.6833 1.26582 7.24018C1.26582 4.02437 3.87276 1.41737 7.08863 1.41737C9.05793 1.39151 10.9009 2.38482 11.962 4.04394C12.1775 4.34104 12.5931 4.40724 12.8902 4.19173C12.9469 4.15054 12.9968 4.10069 13.038 4.04394C14.7979 1.35244 18.4065 0.597232 21.098 2.35714C22.7456 3.43453 23.7374 5.27148 23.7341 7.24012C23.7342 12.7465 14.3354 18.4427 12.5 19.487Z" fill="#E08F4D"/>
</svg>
