<svg width="20" height="18" viewBox="0 0 20 18" fill="none" xmlns="http://www.w3.org/2000/svg">
<path d="M17.1672 6.15356V1.94099H13.6835V3.47356L9.99996 0.639893L0 8.33274L2.09508 11.0561L3.1209 10.267V17.36H9.03961V12.163H11.1939V17.36H16.8792V10.267L17.905 11.0561L20 8.33278L17.1672 6.15356ZM15.7059 16.1868H12.3671V10.9897H7.86633V16.1868H4.2941V9.36438L10 4.97517L15.7059 9.36438V16.1868H15.7059ZM17.6904 9.41083L10 3.49466L2.30957 9.41083L1.64527 8.54731L10 2.12013L14.8568 5.85638V3.11423H15.994V6.73126L18.3547 8.54731L17.6904 9.41083Z" fill="#fff"/>
</svg>
