<svg width="5" height="14" viewBox="0 0 5 14" fill="none" xmlns="http://www.w3.org/2000/svg">
<path d="M2.99969 0.333374C2.08051 0.333374 1.33301 1.08083 1.33301 2.00005C1.33301 2.91927 2.08047 3.66673 2.99969 3.66673C3.91891 3.66673 4.66637 2.91927 4.66637 2.00005C4.66637 1.08083 3.91887 0.333374 2.99969 0.333374ZM2.99969 2.83337C2.54031 2.83337 2.16637 2.45943 2.16637 2.00005C2.16637 1.54068 2.54031 1.16673 2.99969 1.16673C3.45907 1.16673 3.83301 1.54068 3.83301 2.00005C3.83301 2.45943 3.45907 2.83337 2.99969 2.83337Z" fill="black"/>
<path d="M4.25 4.5H0.91668C0.686367 4.5 0.5 4.68637 0.5 4.91668V6.58336C0.5 6.81367 0.686367 7.00004 0.91668 7.00004H1.33336V13.25C1.33336 13.4804 1.51973 13.6667 1.75004 13.6667H4.25004C4.48035 13.6667 4.66672 13.4804 4.66672 13.25V4.91668C4.66668 4.68637 4.48031 4.5 4.25 4.5ZM3.83332 12.8333H2.16664V6.58332C2.16664 6.35301 1.98027 6.16664 1.74996 6.16664H1.33328V5.33332H3.83328V12.8333H3.83332Z" fill="black"/>
</svg>
