<svg width="25" height="23" viewBox="0 0 25 23" fill="none" xmlns="http://www.w3.org/2000/svg">
<path d="M24.6288 13.6933L21.7771 7.58543L23.0081 7.93853C23.2785 8.01611 23.5605 7.85995 23.6379 7.58941C23.7155 7.31906 23.5594 7.03718 23.289 6.9596L14.7299 4.50342C14.7317 4.46682 14.7327 4.43021 14.7327 4.39341C14.7329 3.37708 14.0468 2.48886 13.0633 2.23284C12.0798 1.97662 11.0475 2.41725 10.552 3.30447L1.99207 0.848495C1.72173 0.770913 1.43965 0.927271 1.36207 1.19762C1.28468 1.46796 1.44084 1.74984 1.71119 1.82742L3.40049 2.31221L0.341163 8.86494C0.137062 8.93635 0.000199197 9.12892 2.67926e-07 9.34535C-0.000596521 10.9987 0.995838 12.489 2.52381 13.1202C4.05178 13.7516 5.80972 13.3991 6.97624 12.2276C7.75345 11.4699 8.19249 10.4309 8.19448 9.34535C8.19448 9.11738 8.0427 8.91726 7.82328 8.85539L4.97999 2.76557L10.2703 4.2834C10.2685 4.32001 10.2675 4.35661 10.2675 4.39361C10.2691 5.42983 10.9823 6.32919 11.9908 6.56671V16.6542H10.5852C9.46205 16.6542 8.52788 17.5556 8.52788 18.6789V18.9745C7.58277 19.1734 6.90423 20.0046 6.89826 20.9706V21.6835C6.90681 21.971 7.14016 22.2009 7.42781 22.2051H17.5724C17.86 22.2009 18.0934 21.971 18.1019 21.6835V20.9706C18.096 20.0046 17.4174 19.1734 16.4723 18.9745V18.6789C16.4723 17.5556 15.5379 16.6542 14.415 16.6542H13.0094V6.56671C13.6197 6.42249 14.1415 6.02901 14.4482 5.48215L20.2124 7.13624L17.1467 13.7029C16.9424 13.7743 16.8055 13.9669 16.8053 14.1831C16.8049 15.8364 17.8014 17.3268 19.3293 17.958C20.8573 18.5894 22.615 18.2371 23.7816 17.0656C24.5588 16.3077 24.998 15.2687 25 14.1831C24.9998 13.9551 24.8482 13.7552 24.6288 13.6933ZM4.08441 3.23027L6.69018 8.81163H1.47884L4.08441 3.23027ZM4.08441 12.3866C2.58449 12.3953 1.30159 11.3108 1.06089 9.83014H7.1312C6.872 11.3096 5.58652 12.3884 4.08441 12.3866ZM17.0834 20.9706V21.1866H7.91677V20.9706C7.91677 20.409 8.3942 19.9644 8.95558 19.9644H16.0446C16.606 19.9644 17.0834 20.409 17.0834 20.9706ZM15.4538 18.6789V18.9459H9.5464V18.6789C9.5464 18.1173 10.0238 17.6727 10.5852 17.6727H14.415C14.9764 17.6727 15.4538 18.1173 15.4538 18.6789ZM12.5001 5.60747C11.9823 5.60787 11.5212 5.28004 11.3515 4.79087C11.1818 4.3017 11.3407 3.75883 11.7473 3.43835C12.1542 3.11788 12.7193 3.09043 13.1552 3.37012C13.591 3.64961 13.8017 4.17459 13.6801 4.67788C13.6672 4.71011 13.6577 4.74333 13.6515 4.77734C13.4858 5.27268 13.0223 5.60688 12.5001 5.60747ZM23.4957 13.6496H18.2844L20.8899 8.06823L23.4957 13.6496ZM20.8899 17.2245C19.39 17.2333 18.1071 16.1487 17.8664 14.6681H23.9367C23.6775 16.1475 22.392 17.2263 20.8899 17.2245Z" fill="#E08F4D"/>
</svg>
