<svg width="23" height="23" viewBox="0 0 23 23" fill="none" xmlns="http://www.w3.org/2000/svg">
<path d="M11.5 0C7.04141 0 3.41406 3.62735 3.41406 8.08594C3.41406 9.59235 3.83134 11.0625 4.62107 12.3379L11.0397 22.6815C11.1627 22.8796 11.3793 23 11.6123 23C11.6141 23 11.6158 23 11.6176 23C11.8526 22.9982 12.0697 22.874 12.1904 22.6724L18.4454 12.2286C19.1916 10.9802 19.5859 9.54765 19.5859 8.08594C19.5859 3.62735 15.9586 0 11.5 0ZM17.2889 11.5367L11.6021 21.0318L5.76649 11.6278C5.10914 10.5663 4.75273 9.3415 4.75273 8.08594C4.75273 4.37045 7.78451 1.33867 11.5 1.33867C15.2155 1.33867 18.2428 4.37045 18.2428 8.08594C18.2428 9.30426 17.9099 10.4977 17.2889 11.5367Z" fill="black"/>
<path d="M11.5 4.04297C9.27071 4.04297 7.45703 5.85664 7.45703 8.08594C7.45703 10.301 9.24119 12.1289 11.5 12.1289C13.7867 12.1289 15.543 10.2766 15.543 8.08594C15.543 5.85664 13.7293 4.04297 11.5 4.04297ZM11.5 10.7902C10.006 10.7902 8.7957 9.57586 8.7957 8.08594C8.7957 6.59974 10.0138 5.38164 11.5 5.38164C12.9862 5.38164 14.1998 6.59974 14.1998 8.08594C14.1998 9.55412 13.0176 10.7902 11.5 10.7902Z" fill="black"/>
</svg>
