<svg width="23" height="23" viewBox="0 0 23 23" fill="none" xmlns="http://www.w3.org/2000/svg">
<path d="M16.53 23C15.7876 23 15.0514 22.8687 14.3316 22.6072C11.1603 21.4552 8.21671 19.5789 5.81888 17.1811C3.42105 14.7833 1.54474 11.8397 0.392761 8.6684C0.0225752 7.64925 -0.0866704 6.59723 0.068169 5.54143C0.213216 4.55247 0.596294 3.59239 1.17603 2.76496C1.75833 1.9339 2.53464 1.24267 3.421 0.766021C4.36621 0.257751 5.39789 0 6.48747 0C6.82634 0 7.11922 0.236774 7.19024 0.568104L8.31836 5.83269C8.36944 6.07108 8.29617 6.31913 8.12381 6.49153L6.19616 8.41914C8.01461 12.0346 10.9653 14.9853 14.5808 16.8037L16.5084 14.8761C16.6808 14.7037 16.9289 14.6305 17.1672 14.6815L22.4318 15.8097C22.7632 15.8807 22.9999 16.1735 22.9999 16.5124C22.9999 17.602 22.7421 18.6337 22.2338 19.5789C21.7572 20.4653 21.066 21.2416 20.2349 21.8239C19.4075 22.4036 18.4474 22.7867 17.4584 22.9318C17.1485 22.9773 16.8387 23 16.53 23ZM5.91321 1.46889C4.47599 1.62754 3.20035 2.38085 2.35325 3.58987C1.40068 4.94938 1.17855 6.62153 1.74382 8.17765C3.95856 14.2745 8.72552 19.0414 14.8223 21.2562C16.3784 21.8214 18.0506 21.5993 19.4101 20.6467C20.6191 19.7996 21.3724 18.524 21.5311 17.0868L17.2484 16.1691L15.2352 18.1822C15.021 18.3964 14.6955 18.4533 14.4214 18.3245C10.1455 16.3157 6.68431 12.8545 4.67548 8.57856C4.5467 8.30441 4.60357 7.97892 4.81779 7.76474L6.83093 5.75161L5.91321 1.46889Z" fill="black"/>
</svg>
