<svg width="23" height="23" viewBox="0 0 23 23" fill="none" xmlns="http://www.w3.org/2000/svg">
<path d="M11.5 3.75C11.775 3.75 12 3.525 12 3.25V3C12 2.725 11.775 2.5 11.5 2.5C11.225 2.5 11 2.725 11 3V3.25C11 3.525 11.225 3.75 11.5 3.75Z" fill="black"/>
<path d="M11.5 19.25C11.225 19.25 11 19.475 11 19.75V20C11 20.275 11.225 20.5 11.5 20.5C11.775 20.5 12 20.275 12 20V19.75C12 19.475 11.775 19.25 11.5 19.25Z" fill="black"/>
<path d="M3.25 11H3C2.725 11 2.5 11.225 2.5 11.5C2.5 11.775 2.725 12 3 12H3.25C3.525 12 3.75 11.775 3.75 11.5C3.75 11.225 3.525 11 3.25 11Z" fill="black"/>
<path d="M20 11H19.75C19.475 11 19.25 11.225 19.25 11.5C19.25 11.775 19.475 12 19.75 12H20C20.275 12 20.5 11.775 20.5 11.5C20.5 11.225 20.275 11 20 11Z" fill="black"/>
<path d="M5.85 5.15C5.65 4.95 5.35 4.95 5.15 5.15C4.95 5.35 4.95 5.65 5.15 5.85L5.325 6.025C5.425 6.125 5.55 6.175 5.675 6.175C5.8 6.175 5.925 6.125 6.025 6.025C6.225 5.825 6.225 5.525 6.025 5.325L5.85 5.15Z" fill="black"/>
<path d="M5.325 16.975L5.15 17.15C4.95 17.35 4.95 17.65 5.15 17.85C5.25 17.95 5.375 18 5.5 18C5.625 18 5.75 17.95 5.85 17.85L6.025 17.675C6.225 17.475 6.225 17.175 6.025 16.975C5.825 16.775 5.525 16.775 5.325 16.975Z" fill="black"/>
<path d="M17.1492 5.15L16.9742 5.325C16.7742 5.525 16.7742 5.825 16.9742 6.025C17.0742 6.125 17.1992 6.175 17.3242 6.175C17.4492 6.175 17.5742 6.125 17.6742 6.025L17.8492 5.85C18.0492 5.65 18.0492 5.35 17.8492 5.15C17.6492 4.95 17.3492 4.95 17.1492 5.15Z" fill="black"/>
<path d="M12 11.3V6.75C12 6.475 11.775 6.25 11.5 6.25C11.225 6.25 11 6.475 11 6.75V11.5C11 11.625 11.05 11.75 11.15 11.85L16.625 17.325C16.725 17.425 16.85 17.475 16.975 17.475C17.1 17.475 17.225 17.425 17.325 17.325C17.525 17.125 17.525 16.825 17.325 16.625L12 11.3Z" fill="black"/>
<path d="M11.5 0C5.15 0 0 5.15 0 11.5C0 17.85 5.15 23 11.5 23C17.85 23 23 17.85 23 11.5C23 5.15 17.85 0 11.5 0ZM11.5 22C5.7 22 1 17.3 1 11.5C1 5.7 5.7 1 11.5 1C17.3 1 22 5.7 22 11.5C22 17.3 17.3 22 11.5 22Z" fill="black"/>
</svg>
