<svg width="14" height="14" viewBox="0 0 14 14" fill="none" xmlns="http://www.w3.org/2000/svg">
<path d="M7 0C4.96456 0 3.30859 1.65596 3.30859 3.69141C3.30859 5.72685 4.96456 7.38281 7 7.38281C9.03544 7.38281 10.6914 5.72685 10.6914 3.69141C10.6914 1.65596 9.03544 0 7 0ZM7 6.5625C5.41688 6.5625 4.12891 5.27453 4.12891 3.69141C4.12891 2.10829 5.41688 0.820312 7 0.820312C8.58312 0.820312 9.87109 2.10829 9.87109 3.69141C9.87109 5.27453 8.58312 6.5625 7 6.5625Z" fill="white"/>
<path d="M8.14387 8.23047H5.8561C3.96386 8.23047 2.09642 9.10413 0.847656 10.9774V14H13.1523V10.9774C11.9054 9.10684 10.0385 8.23047 8.14387 8.23047ZM12.3321 13.1797H1.66797V11.2284C2.62585 9.86243 4.18228 9.05078 5.85613 9.05078H8.1439C9.81775 9.05078 11.3742 9.86243 12.3321 11.2284V13.1797Z" fill="white"/>
</svg>
