<svg width="8" height="10" viewBox="0 0 8 10" fill="none" xmlns="http://www.w3.org/2000/svg">
<path d="M4.25693 0L6.96463 3.1136C7.7045 3.96472 8.04749 4.95903 7.99472 6.09879C7.95405 7.23854 7.522 8.19081 6.69859 8.95557C5.88837 9.70897 4.92314 10.0544 3.804 9.99306C2.69146 9.91351 1.7702 9.45556 1.04133 8.61694C0.306964 7.77263 -0.0393319 6.77491 0.00354279 5.62266C0.057411 4.45903 0.489456 3.50109 1.30078 2.74769L4.25693 0ZM4.18437 2.94201L2.68266 4.33744C2.26491 4.72494 2.04174 5.20221 2.01206 5.76925C1.96478 6.34083 2.12639 6.83969 2.49577 7.26468C2.86515 7.68968 3.32798 7.90899 3.88315 7.92149C4.42623 7.94535 4.90555 7.76354 5.3233 7.37491C5.74765 6.98059 5.97632 6.50446 6.0115 5.94424C6.04118 5.37834 5.87298 4.88517 5.50909 4.46585L4.18437 2.94201Z" fill="#5974B7"/>
</svg>
