<svg width="347" height="321" viewBox="0 0 347 321" fill="none" xmlns="http://www.w3.org/2000/svg">
<g clip-path="url(#clip0)">
<path d="M102.446 28.5721C101.942 28.3078 101.453 28.3202 101.005 28.4608C100.779 28.0741 100.381 27.8118 99.831 27.738C94.1578 27.0181 88.2925 30.5455 86.9456 36.2808C85.6912 41.6351 89.0094 47.5617 94.1728 49.3562C99.3781 51.1728 105.673 48.4608 107.981 43.4445C110.555 37.9229 107.784 31.1562 102.446 28.5721ZM95.5807 45.8538C92.1017 44.7276 89.7856 40.6684 90.6432 37.0921C91.5229 33.4737 95.3711 31.036 98.9912 31.4846C99.3514 31.5124 99.6917 31.4761 99.9701 31.3537C100.114 31.5901 100.344 31.7643 100.68 31.9405C104.19 33.6198 106.268 37.9297 104.621 41.6829C103.218 44.9729 99.0177 46.9579 95.5807 45.8538Z" fill="#82A9FF" fill-opacity="0.21"/>
<path d="M128.202 145.407C127.288 139.184 126.439 132.941 125.524 126.718C125.17 124.332 121.388 124.496 121.743 126.883C122.657 133.106 123.507 139.349 124.421 145.572C124.734 147.937 128.557 147.794 128.202 145.407Z" fill="#82A9FF" fill-opacity="0.21"/>
<path d="M134.583 132.112C127.961 134.223 121.339 136.334 114.695 138.487C112.367 139.252 113.482 142.843 115.831 142.142C122.453 140.031 129.075 137.92 135.719 135.767C138.048 135.002 136.954 131.369 134.583 132.112Z" fill="#82A9FF" fill-opacity="0.21"/>
<path d="M113.602 126.48C104.148 119.591 97.2387 109.688 94.3064 98.3275C91.633 87.8005 92.6454 76.5757 96.9004 66.6215C98.7673 69.8011 100.592 72.9587 102.459 76.1384C103.711 78.2441 106.914 76.2196 105.662 74.1139C103.406 70.247 101.15 66.3802 98.8515 62.4913C98.9178 62.365 98.9619 62.2808 99.0281 62.1545C99.9531 60.4923 97.9102 58.6697 96.3196 59.6609C92.3432 62.1388 88.3248 64.5947 84.3484 67.0726C82.2851 68.3527 84.2781 71.5984 86.3635 70.2762C88.5549 68.9559 90.7265 67.5715 92.9179 66.2513C84.1043 88.5771 91.191 114.891 110.978 129.237C112.965 130.655 115.589 127.897 113.602 126.48Z" fill="#82A9FF" fill-opacity="0.21"/>
<path d="M78.7643 39.936C61.6216 42.8113 46.4321 52.9912 37.2187 67.8071C35.9249 69.8664 39.2849 71.628 40.5788 69.5687C48.9819 55.992 63.2258 46.39 78.9211 43.722C81.2855 43.2976 81.1706 39.5335 78.7643 39.936Z" fill="#82A9FF" fill-opacity="0.21"/>
<path d="M41.8183 89.0598C42.2419 83.8603 38.0514 79.0868 32.9484 78.5048C32.5882 78.477 32.2899 78.5353 32.0336 78.6157C31.7816 78.4835 31.4214 78.4557 31.017 78.5121C25.9921 79.3131 21.7649 83.6993 22.1038 88.9765C22.3851 93.955 26.9466 98.2252 31.9122 98.2521C36.8999 98.2368 41.3991 94.0468 41.8183 89.0598ZM32.3719 94.4135C29.3113 94.6339 26.3906 92.1365 25.9845 89.1323C25.5186 85.9357 28.0869 82.7732 31.2379 82.2781C31.4301 82.2178 31.6003 82.1997 31.7925 82.1394C31.9185 82.2055 32.0666 82.2294 32.2147 82.2534C35.2004 82.5841 37.9133 84.8653 38.125 88.036C38.2528 91.1626 35.4745 94.215 32.3719 94.4135Z" fill="#82A9FF" fill-opacity="0.21"/>
<path d="M59.5982 95.5902C59.5356 94.4839 58.6359 93.8511 57.5972 93.7897C55.88 93.6946 54.1629 93.5995 52.4237 93.5465C51.385 93.4851 50.5989 94.5759 50.6216 95.554C50.6841 96.6604 51.5839 97.2931 52.6225 97.3546C54.3397 97.4497 56.0568 97.5448 57.796 97.5977C58.7927 97.6372 59.6429 96.5262 59.5982 95.5902Z" fill="#82A9FF" fill-opacity="0.21"/>
<path d="M73.2298 96.3491C73.4613 95.3969 72.7844 94.2368 71.7898 94.0911C70.287 93.8937 68.8262 93.7183 67.3233 93.5208C66.3288 93.3751 65.2993 93.909 65.0656 94.9674C64.8341 95.9196 65.511 97.0797 66.5056 97.2253C68.0084 97.4228 69.4692 97.5982 70.9721 97.7956C71.9666 97.9413 72.9961 97.4075 73.2298 96.3491Z" fill="#82A9FF" fill-opacity="0.21"/>
<path d="M101.561 92.2537C101.222 91.1636 100.21 90.8476 99.1666 90.9986C97.2066 91.3666 95.2046 91.7127 93.2447 92.0808C92.2437 92.2538 91.7075 93.583 91.9864 94.4807C92.3251 95.5709 93.3375 95.8869 94.3804 95.7359C96.3404 95.3678 98.3424 95.0218 100.302 94.6537C101.325 94.4386 101.84 93.1515 101.561 92.2537Z" fill="#82A9FF" fill-opacity="0.21"/>
<path d="M122.062 90.1198C120.639 90.1789 119.216 90.2379 117.815 90.2549C115.351 90.3587 115.55 94.1668 117.972 94.0409C119.395 93.9819 120.818 93.9228 122.219 93.9059C124.661 93.8441 124.526 90.016 122.062 90.1198Z" fill="#82A9FF" fill-opacity="0.21"/>
<path d="M143.084 88.5267C141.661 88.5858 140.238 88.6448 138.837 88.6618C136.395 88.7235 136.572 92.5737 138.994 92.4478C140.417 92.3888 141.84 92.3297 143.241 92.3128C145.683 92.2511 145.526 88.465 143.084 88.5267Z" fill="#82A9FF" fill-opacity="0.21"/>
<path d="M84.3214 93.5758C83.7242 92.6723 82.6457 92.4826 81.7023 92.9542C81.1655 93.2632 80.5867 93.5502 80.0499 93.8592C79.1706 94.3108 78.8885 95.6659 79.4237 96.4833C80.0209 97.3868 81.0995 97.5765 82.0428 97.1049C82.5796 96.7959 83.1585 96.5089 83.6953 96.1999C84.5967 95.7062 84.8567 94.3932 84.3214 93.5758Z" fill="#82A9FF" fill-opacity="0.21"/>
<path d="M42.6108 130.647C41.0829 125.391 39.5551 120.134 38.0052 114.92C37.31 112.569 33.6997 113.736 34.3529 116.065C35.8807 121.321 37.4086 126.578 38.9585 131.792C39.6537 134.142 43.306 132.998 42.6108 130.647Z" fill="#82A9FF" fill-opacity="0.21"/>
<path d="M47.0879 118.125C41.0078 120.735 34.9476 123.408 28.8675 126.018C26.6404 126.997 27.7342 130.631 30.0032 129.673C36.0833 127.063 42.1436 124.39 48.2237 121.78C50.4507 120.801 49.3569 117.167 47.0879 118.125Z" fill="#82A9FF" fill-opacity="0.21"/>
<path d="M80.2044 143.915C78.2436 139.076 76.263 134.173 74.3023 129.333C73.3927 127.085 69.7625 128.188 70.65 130.478C72.6107 135.317 74.5913 140.221 76.5521 145.06C77.4837 147.266 81.1139 146.163 80.2044 143.915Z" fill="#82A9FF" fill-opacity="0.21"/>
<path d="M82.0913 130.411C76.4532 133.198 70.7931 136.028 65.197 138.838C63.0099 139.946 65.0249 143.149 67.2121 142.041C72.8501 139.254 78.5103 136.424 84.1063 133.614C86.2714 132.548 84.2563 129.345 82.0913 130.411Z" fill="#82A9FF" fill-opacity="0.21"/>
<path d="M59.7235 31.7246C57.6481 27.3085 55.5947 22.8502 53.5193 18.434C52.4816 16.226 49.2785 18.2504 50.3162 20.4585C52.3916 24.8747 54.4449 29.3329 56.5203 33.7491C57.516 35.9352 60.7192 33.9107 59.7235 31.7246Z" fill="#82A9FF" fill-opacity="0.21"/>
<path d="M59.9796 19.0832C55.6193 22.7018 51.237 26.3626 46.8347 29.9592C44.9572 31.4977 47.7696 34.0995 49.6052 32.539C53.9654 28.9203 58.3478 25.2596 62.75 21.663C64.6276 20.1244 61.8571 17.5447 59.9796 19.0832Z" fill="#82A9FF" fill-opacity="0.21"/>
<path d="M164.3 88.9136C161.71 88.9514 159.12 88.9892 156.53 89.0269C154.11 89.0465 154.245 92.8747 156.687 92.813C159.277 92.7752 161.866 92.7374 164.456 92.6997C166.918 92.7021 166.761 88.916 164.3 88.9136Z" fill="#82A9FF" fill-opacity="0.21"/>
<path d="M183.952 91.0575C183.931 89.9732 183.011 89.2763 181.951 89.2569L178.428 89.2351C177.409 89.2378 176.561 90.2425 176.626 91.2426C176.646 92.327 177.566 93.0239 178.627 93.0432C179.794 93.0645 180.983 93.0437 182.149 93.065C183.19 93.0202 184.038 92.0155 183.952 91.0575Z" fill="#82A9FF" fill-opacity="0.21"/>
<path d="M222.255 93.3716C223.219 87.6506 219.108 82.1134 213.593 80.8863C213.361 80.8183 213.149 80.8145 212.915 80.8527C212.725 80.8067 212.577 80.7828 212.387 80.7368C206.727 80.3998 201.289 84.8489 200.813 90.5575C200.338 96.1599 204.664 101.595 210.231 102.313C215.714 102.987 221.316 98.838 222.255 93.3716ZM210.415 98.4903C206.883 97.8733 204.156 94.1892 204.589 90.6052C205.113 86.7465 208.877 84.2647 212.566 84.4808C212.566 84.4808 212.566 84.4808 212.608 84.5028C212.65 84.5248 212.734 84.5688 212.798 84.5488C216.305 85.3141 219.121 88.8299 218.579 92.5182C218.015 96.2486 214.052 99.1093 210.415 98.4903Z" fill="#82A9FF" fill-opacity="0.21"/>
</g>
<g clip-path="url(#clip1)">
<path d="M243.679 171.336C243.259 171.094 242.844 171.087 242.458 171.191C242.28 170.855 241.95 170.618 241.485 170.536C236.689 169.728 231.582 172.523 230.239 177.351C228.987 181.858 231.602 187.009 235.928 188.713C240.289 190.437 245.732 188.35 247.868 184.167C250.246 179.564 248.126 173.717 243.679 171.336ZM237.246 185.785C234.328 184.708 232.5 181.178 233.353 178.168C234.226 175.123 237.581 173.185 240.642 173.692C240.947 173.728 241.238 173.709 241.478 173.614C241.592 173.82 241.782 173.976 242.061 174.137C244.986 175.686 246.603 179.421 245.073 182.554C243.767 185.301 240.129 186.843 237.246 185.785Z" fill="#82A9FF" fill-opacity="0.21"/>
<path d="M261.523 271.521C260.962 266.201 260.456 260.866 259.894 255.546C259.675 253.505 256.456 253.514 256.675 255.555C257.237 260.875 257.743 266.21 258.304 271.53C258.488 273.551 261.742 273.562 261.523 271.521Z" fill="#82A9FF" fill-opacity="0.21"/>
<path d="M267.407 260.443C261.706 262.008 256.005 263.573 250.284 265.172C248.279 265.742 249.103 268.833 251.123 268.318C256.824 266.753 262.524 265.189 268.245 263.589C270.251 263.019 269.447 259.894 267.407 260.443Z" fill="#82A9FF" fill-opacity="0.21"/>
<path d="M249.771 254.93C241.975 248.748 236.446 240.093 234.347 230.337C232.439 221.298 233.688 211.793 237.649 203.481C239.126 206.248 240.567 208.994 242.044 211.761C243.035 213.594 245.827 211.985 244.836 210.152C243.053 206.787 241.269 203.423 239.45 200.038C239.511 199.933 239.552 199.863 239.612 199.758C240.456 198.377 238.783 196.758 237.397 197.545C233.931 199.513 230.431 201.461 226.966 203.43C225.168 204.446 226.75 207.273 228.568 206.222C230.476 205.176 232.369 204.074 234.277 203.028C226.014 221.697 231.126 244.306 247.445 257.183C249.085 258.457 251.411 256.204 249.771 254.93Z" fill="#82A9FF" fill-opacity="0.21"/>
<path d="M223.159 180.174C208.49 182.024 195.229 190.149 186.886 202.422C185.715 204.127 188.51 205.741 189.681 204.035C197.292 192.788 209.73 185.121 223.161 183.397C225.185 183.118 225.218 179.915 223.159 180.174Z" fill="#82A9FF" fill-opacity="0.21"/>
<path d="M190.06 220.643C190.6 216.239 187.204 212.037 182.887 211.366C182.582 211.33 182.326 211.369 182.106 211.428C181.896 211.307 181.591 211.271 181.245 211.305C176.947 211.812 173.203 215.393 173.308 219.89C173.375 224.131 177.104 227.918 181.323 228.112C185.562 228.272 189.531 224.867 190.06 220.643ZM181.846 224.866C179.238 224.947 176.842 222.724 176.601 220.157C176.315 217.424 178.608 214.825 181.303 214.513C181.468 214.469 181.613 214.459 181.779 214.415C181.884 214.475 182.009 214.501 182.134 214.526C184.66 214.911 186.886 216.943 186.956 219.645C186.957 222.307 184.49 224.805 181.846 224.866Z" fill="#82A9FF" fill-opacity="0.21"/>
<path d="M204.945 226.809C204.93 225.866 204.187 225.297 203.306 225.209C201.85 225.069 200.394 224.929 198.918 224.823C198.037 224.735 197.332 225.635 197.317 226.467C197.332 227.41 198.075 227.978 198.955 228.067C200.411 228.207 201.867 228.347 203.343 228.452C204.189 228.52 204.95 227.606 204.945 226.809Z" fill="#82A9FF" fill-opacity="0.21"/>
<path d="M216.502 227.926C216.732 227.124 216.197 226.115 215.357 225.957C214.086 225.737 212.851 225.537 211.58 225.317C210.74 225.159 209.847 225.577 209.612 226.469C209.382 227.27 209.917 228.279 210.757 228.437C212.028 228.657 213.263 228.857 214.533 229.077C215.374 229.235 216.267 228.817 216.502 227.926Z" fill="#82A9FF" fill-opacity="0.21"/>
<path d="M240.722 225.426C240.471 224.488 239.622 224.184 238.73 224.276C237.052 224.521 235.339 224.746 233.66 224.991C232.803 225.103 232.302 226.214 232.508 226.987C232.758 227.925 233.607 228.229 234.499 228.137C236.177 227.892 237.891 227.667 239.569 227.422C240.446 227.275 240.928 226.199 240.722 225.426Z" fill="#82A9FF" fill-opacity="0.21"/>
<path d="M258.219 224.322C257.008 224.323 255.796 224.324 254.605 224.29C252.508 224.293 252.545 227.536 254.607 227.513C255.819 227.512 257.03 227.511 258.222 227.545C260.299 227.577 260.317 224.319 258.219 224.322Z" fill="#82A9FF" fill-opacity="0.21"/>
<path d="M276.14 223.696C274.929 223.697 273.717 223.698 272.526 223.664C270.448 223.632 270.465 226.91 272.528 226.887C273.74 226.886 274.951 226.885 276.142 226.919C278.22 226.951 278.218 223.728 276.14 223.696Z" fill="#82A9FF" fill-opacity="0.21"/>
<path d="M226.025 225.953C225.549 225.164 224.639 224.966 223.821 225.334C223.354 225.578 222.852 225.802 222.385 226.046C221.622 226.399 221.335 227.541 221.762 228.254C222.238 229.043 223.148 229.241 223.966 228.873C224.433 228.629 224.935 228.405 225.402 228.161C226.185 227.773 226.452 226.666 226.025 225.953Z" fill="#82A9FF" fill-opacity="0.21"/>
<path d="M189.294 256.014C188.177 251.494 187.061 246.974 185.924 242.489C185.415 240.467 182.306 241.334 182.781 243.335C183.897 247.855 185.014 252.375 186.15 256.86C186.66 258.882 189.803 258.036 189.294 256.014Z" fill="#82A9FF" fill-opacity="0.21"/>
<path d="M193.532 245.527C188.274 247.534 183.031 249.597 177.773 251.604C175.847 252.359 176.651 255.485 178.612 254.75C183.87 252.742 189.113 250.68 194.37 248.673C196.297 247.917 195.493 244.792 193.532 245.527Z" fill="#82A9FF" fill-opacity="0.21"/>
<path d="M220.784 268.591C219.285 264.411 217.772 260.175 216.273 255.995C215.578 254.053 212.454 254.864 213.129 256.841C214.628 261.022 216.142 265.257 217.64 269.438C218.356 271.345 221.479 270.534 220.784 268.591Z" fill="#82A9FF" fill-opacity="0.21"/>
<path d="M222.854 257.18C217.966 259.354 213.057 261.563 208.204 263.757C206.307 264.623 207.909 267.415 209.806 266.549C214.694 264.375 219.602 262.166 224.455 259.972C226.332 259.142 224.731 256.349 222.854 257.18Z" fill="#82A9FF" fill-opacity="0.21"/>
<path d="M207.261 172.536C205.651 168.711 204.06 164.851 202.449 161.026C201.644 159.113 198.851 160.723 199.657 162.636C201.268 166.461 202.858 170.321 204.469 174.146C205.24 176.038 208.032 174.428 207.261 172.536Z" fill="#82A9FF" fill-opacity="0.21"/>
<path d="M207.917 161.802C204.086 164.726 200.235 167.685 196.369 170.59C194.72 171.832 197.02 174.141 198.634 172.878C202.465 169.953 206.316 166.994 210.182 164.09C211.831 162.847 209.566 160.559 207.917 161.802Z" fill="#82A9FF" fill-opacity="0.21"/>
<path d="M294.156 224.759C291.954 224.702 289.752 224.644 287.549 224.587C285.492 224.52 285.474 227.778 287.551 227.81C289.754 227.867 291.956 227.925 294.159 227.983C296.251 228.07 296.249 224.847 294.156 224.759Z" fill="#82A9FF" fill-opacity="0.21"/>
<path d="M310.783 227.262C310.804 226.34 310.046 225.715 309.145 225.662L306.152 225.522C305.286 225.489 304.531 226.313 304.551 227.166C304.531 228.088 305.289 228.712 306.189 228.765C307.18 228.824 308.191 228.847 309.182 228.906C310.068 228.904 310.824 228.079 310.783 227.262Z" fill="#82A9FF" fill-opacity="0.21"/>
<path d="M343.256 230.555C344.274 225.726 340.971 220.878 336.328 219.644C336.133 219.578 335.952 219.568 335.752 219.592C335.592 219.546 335.467 219.521 335.307 219.475C330.509 218.993 325.733 222.586 325.131 227.421C324.534 232.165 328.022 236.934 332.728 237.737C337.365 238.5 342.269 235.168 343.256 230.555ZM333.016 234.495C330.036 233.848 327.846 230.623 328.339 227.592C328.917 224.331 332.202 222.352 335.33 222.663C335.33 222.663 335.33 222.663 335.365 222.683C335.399 222.703 335.469 222.744 335.524 222.729C338.479 223.501 340.75 226.586 340.162 229.702C339.554 232.853 336.087 235.147 333.016 234.495Z" fill="#82A9FF" fill-opacity="0.21"/>
</g>
<g clip-path="url(#clip2)">
<path d="M256.647 81.6638L256.648 81.6641C257.33 83.7664 257.699 86.0283 257.699 88.3978V225.355C257.699 237.457 247.866 247.296 235.773 247.296H131.818C119.726 247.296 109.893 237.457 109.893 225.355V88.3978C109.893 76.2964 119.726 66.4573 131.818 66.4573H235.773C241.186 66.4573 246.181 68.4553 250.021 71.7179C253.072 74.3503 255.386 77.771 256.647 81.6638Z" fill="white" stroke="black"/>
<path d="M248.034 83.124H137.411C134.83 83.124 132.679 80.8638 132.679 78.0655C132.679 75.2672 134.776 73.007 137.411 73.007H241.742C244.646 75.6439 246.851 79.1418 248.034 83.124Z" fill="#2F70FE"/>
<path d="M161.835 215.237L139.133 192.52L132.706 198.951L155.408 221.668L161.835 215.237Z" fill="#6DED02"/>
<path d="M155.416 192.497L132.714 215.214L139.14 221.645L161.843 198.928L155.416 192.497Z" fill="#6DED02"/>
<path d="M203.166 173.851L180.464 151.134L174.037 157.564L196.739 180.281L203.166 173.851Z" fill="#6DED02"/>
<path d="M196.699 151.138L173.997 173.855L180.424 180.286L203.126 157.569L196.699 151.138Z" fill="#6DED02"/>
<path d="M149.727 150.876C141.499 150.876 134.884 157.549 134.884 165.729C134.884 173.963 141.552 180.582 149.727 180.582C157.955 180.582 164.57 173.909 164.57 165.729C164.57 157.495 157.901 150.876 149.727 150.876ZM149.727 173.909C145.209 173.909 141.552 170.249 141.552 165.729C141.552 161.209 145.209 157.549 149.727 157.549C154.244 157.549 157.901 161.209 157.901 165.729C157.901 170.249 154.244 173.909 149.727 173.909Z" fill="#6DED02"/>
<path d="M222.274 104.65C214.045 104.65 207.431 111.323 207.431 119.503C207.431 127.736 214.099 134.355 222.274 134.355C230.502 134.355 237.117 127.682 237.117 119.503C237.117 111.323 230.448 104.65 222.274 104.65ZM222.274 127.736C217.756 127.736 214.099 124.077 214.099 119.556C214.099 115.036 217.756 111.377 222.274 111.377C226.791 111.377 230.448 115.036 230.448 119.556C230.448 124.077 226.791 127.736 222.274 127.736Z" fill="#6DED02"/>
<path d="M232.277 147.809C229.641 144.795 227.006 141.782 224.371 138.822C223.726 138.122 222.596 138.391 222.112 139.091C221.79 139.575 221.521 140.006 221.198 140.49C221.037 140.598 220.822 140.759 220.714 140.921C219.047 143.504 217.434 146.141 215.766 148.724C214.798 150.284 217.218 151.683 218.24 150.177C219.262 148.616 220.284 147.055 221.306 145.495C224.317 159.379 226.791 174.501 219.8 187.524C216.842 193.013 212.325 197.856 206.409 200.116C199.418 202.807 191.458 201.785 184.844 198.556C177.53 195.004 171.722 189.084 166.935 182.573C165.86 181.12 163.386 182.519 164.461 184.026C173.496 196.296 187.533 207.381 203.774 203.883C218.348 200.708 226.092 185.64 227.06 171.81C227.759 161.854 225.662 151.899 223.564 142.212C225.823 144.741 228.028 147.324 230.287 149.854C231.47 151.199 233.46 149.154 232.277 147.809Z" fill="#6DED02"/>
</g>
<defs>
<clipPath id="clip0">
<rect width="187.415" height="129.502" fill="white" transform="translate(60.1318) rotate(27.6672)"/>
</clipPath>
<clipPath id="clip1">
<rect width="159.409" height="110.15" fill="white" transform="translate(208.707 145.589) rotate(30)"/>
</clipPath>
<clipPath id="clip2">
<rect width="148.806" height="181.785" fill="white" transform="translate(109.393 65.9573)"/>
</clipPath>
</defs>
</svg>
