<svg width="380" height="256" viewBox="0 0 380 256" fill="none" xmlns="http://www.w3.org/2000/svg">
<path fill-rule="evenodd" clip-rule="evenodd" d="M171.7 215.803C149.512 222.041 111.263 224.61 62.515 225.053C17.2763 225.783 -0.777483 230.734 0.0255697 238.931C5.46848 251.58 80.3606 256.937 208.73 255.233C314.703 253.935 363.987 245.545 378.055 232.136C399.381 209.085 239.752 196.974 171.7 215.803Z" fill="url(#paint0_linear)"/>
<path opacity="0.1" d="M85.1977 41.748H264.258V227.597H85.1977V41.748Z" fill="#7BD53D"/>
<path d="M349.661 230.403V213.756H342.482L346.789 230.403H349.661Z" fill="#292678"/>
<path d="M322.032 230.403V213.756H329.566L325.044 230.403H322.032Z" fill="#292678"/>
<path d="M350.413 147.146C350.23 132.513 350.872 120.075 351.563 111.266C351.913 106.81 352.276 103.282 352.551 100.866C352.689 99.6587 352.804 98.7293 352.886 98.1011C352.916 97.8717 352.941 97.6825 352.961 97.5347L339.373 92.1096H328.36L313.78 99.3875L315.564 147.146H350.413Z" fill="white" stroke="black"/>
<path d="M334.648 110.618L334.649 110.62C334.935 111.794 335.273 113.048 335.663 114.347L335.663 114.347C337.569 120.722 340.598 128.162 343.897 133.229C345.554 135.773 347.239 137.656 348.835 138.54C349.624 138.977 350.365 139.155 351.059 139.077C351.75 138.999 352.452 138.66 353.156 137.956L353.157 137.956C356.782 134.338 358.636 128.29 359.57 122.239C360.499 116.211 360.5 110.293 360.5 107.024C360.5 103.961 358.747 101.635 356.926 100.045C356.02 99.2536 355.111 98.6582 354.429 98.2608C354.219 98.1388 354.031 98.0357 353.872 97.9516C353.239 101.329 352.74 107.273 352.393 112.539C352.21 115.338 352.07 117.932 351.976 119.827C351.928 120.775 351.893 121.547 351.869 122.083C351.857 122.35 351.848 122.559 351.842 122.7L351.836 122.861L351.834 122.902L351.834 122.912L351.834 122.915L351.833 122.916C351.833 122.916 351.833 122.916 351.334 122.896L351.833 122.916L351.764 124.648L350.9 123.145L342.048 107.738L342.048 107.738L340.642 105.287L333.958 107.371C334.129 108.358 334.36 109.456 334.648 110.618Z" fill="white" stroke="black"/>
<path d="M338.026 129.177L338.026 129.177L314.253 127.028L313.815 126.988L313.798 126.548L312.818 100.22C312.723 100.318 312.621 100.427 312.512 100.546C311.837 101.284 310.905 102.427 309.899 104.035C307.886 107.248 305.57 112.321 304.408 119.724C303.244 127.133 304.431 131.483 306.899 133.998C309.383 136.529 313.299 137.345 317.947 137.345H338.071H338.082H338.094H338.106H338.117H338.129H338.141H338.152H338.164H338.175H338.187H338.198H338.21H338.221H338.233H338.244H338.255H338.267H338.278H338.29H338.301H338.312H338.324H338.335H338.346H338.357H338.369H338.38H338.391H338.402H338.413H338.425H338.436H338.447H338.458H338.469H338.48H338.491H338.502H338.513H338.524H338.535H338.546H338.557H338.568H338.579H338.59H338.601H338.612H338.623H338.633H338.644H338.655H338.666H338.677H338.687H338.698H338.709H338.72H338.73H338.741H338.752H338.762H338.773H338.783H338.794H338.804H338.815H338.826H338.836H338.847H338.857H338.867H338.878H338.888H338.899H338.909H338.919H338.93H338.94H338.95H338.961H338.971H338.981H338.991H339.002H339.012H339.022H339.032H339.042H339.052H339.062H339.073H339.083H339.093H339.103H339.113H339.123H339.133H339.143H339.153H339.162H339.172H339.182H339.192H339.202H339.212H339.222H339.231H339.241H339.251H339.261H339.27H339.28H339.29H339.299H339.309H339.319H339.328H339.338H339.347H339.357H339.366H339.376H339.385H339.395H339.404H339.414H339.423H339.432H339.442H339.451H339.46H339.47H339.479H339.488H339.498H339.507H339.516H339.525H339.534H339.544H339.553H339.562H339.571H339.58H339.589H339.598H339.607H339.616H339.625H339.634H339.643H339.652H339.661H339.669H339.678H339.687H339.696H339.705H339.714H339.722H339.731H339.74H339.748H339.757H339.766H339.774H339.783H339.791H339.8H339.809H339.817H339.826H339.834H339.843H339.851H339.859H339.868H339.876H339.885H339.893H339.901H339.909H339.918H339.926H339.934H339.942H339.951H339.959H339.967H339.975H339.983H339.991H339.999H340.007H340.015H340.023H340.031H340.039H340.047H340.055H340.063H340.071H340.079H340.087H340.094H340.102H340.11H340.118H340.125H340.133H340.141H340.148H340.156H340.164H340.171H340.179H340.186H340.194H340.201H340.209H340.216H340.224H340.231H340.239H340.246H340.253H340.261H340.268H340.275H340.283H340.29H340.297H340.304H340.311H340.319H340.326H340.333H340.34H340.347H340.354H340.361H340.368H340.375H340.382H340.389H340.396H340.403H340.409H340.416H340.423H340.43H340.437H340.443H340.45H340.457H340.464H340.47H340.477H340.483H340.49H340.497H340.503H340.51H340.516H340.523H340.529H340.535H340.542H340.548H340.555H340.561H340.567H340.574H340.58H340.586H340.592H340.598H340.605H340.611H340.617H340.623H340.629H340.635H340.641H340.647H340.653H340.659H340.665H340.671H340.677H340.683H340.689H340.694H340.7H340.706H340.712H340.717H340.723H340.729H340.734H340.74H340.746H340.751H340.757H340.762H340.768H340.773H340.779H340.784H340.79H340.795H340.8H340.806H340.811H340.816H340.821H340.827H340.832H340.837H340.842H340.847H340.85V129.431L338.026 129.177Z" fill="white" stroke="black"/>
<path d="M341.349 130.836C341.349 130.836 349.772 130.37 350.238 137.837H341.349V130.836Z" fill="#F9A28B"/>
<path d="M273.028 219.561L285.151 221.895L300.168 169.596C300.168 169.596 319.286 171 334.932 173.333C350.571 175.667 350.246 155.12 350.246 155.12V147.653H325.281C325.281 147.653 300.723 146.759 289.259 149.241C286.35 149.869 284.285 150.718 283.678 151.856C283.219 152.712 282.657 154.884 282.028 157.949C278.519 174.966 273.028 219.561 273.028 219.561Z" fill="#292678"/>
<path d="M300.635 163.06L311.862 206.954L302.041 212.087L286.594 184.538L300.635 163.06Z" fill="#292678"/>
<path d="M175.834 216.666L175.072 223.202H183.036L183.798 217.131L175.834 216.666Z" fill="#F9A28B"/>
<path d="M202.042 217.131V223.202H209.532L209.998 217.131H202.042Z" fill="#F9A28B"/>
<path d="M221.699 98.05L211.404 219.465H200.642V117.667V98.05H221.699Z" fill="#2F70FE"/>
<path d="M213.277 98.05L204.388 112.999L184.73 219.465H172.096L187.069 98.05H213.277Z" fill="#2F70FE"/>
<path d="M186.439 57.9336C187.248 66.7451 188.007 79.1848 187.827 93.8202H221.279L223.979 46.059L209.406 38.7842H198.393L184.813 44.206C184.836 44.3529 184.865 44.5398 184.899 44.7657C184.993 45.3941 185.128 46.3239 185.288 47.5319C185.608 49.9479 186.03 53.4769 186.439 57.9336Z" fill="white" stroke="black"/>
<path d="M186.602 94.3201H222.632V98.5226H186.602V94.3201Z" fill="#6DED02"/>
<path d="M265.323 70.6268L267.159 70.2279C267.159 70.2279 269.705 67.5395 271.066 66.4538C272.436 65.3681 272.488 67.1111 270.622 69.2604C270.622 69.2604 275.596 65.9737 277.254 68.8911C279.082 72.1113 276.203 74.8514 269.734 74.8662L267.795 75.5088L265.323 70.6268Z" fill="#F9A28B"/>
<path d="M238.447 94.2953L238.447 94.2952C238.701 94.2446 239.182 94.0497 239.891 93.6932C240.582 93.3454 241.442 92.868 242.431 92.2898C244.408 91.134 246.879 89.5879 249.499 87.9007C254.739 84.5271 260.557 80.6007 264.183 78.1309L264.184 78.1305C265.271 77.3925 266.16 76.7837 266.777 76.3595C267.029 76.1863 267.236 76.0439 267.392 75.936L264.484 69.7264L260.886 70.9872L260.885 70.9877L259.694 71.4082L259.693 71.4086L239.636 78.4473L239.143 78.6203L238.992 78.1201L239.47 77.9755C238.992 78.1201 238.991 78.12 238.991 78.1198L238.991 78.1189L238.99 78.115L238.985 78.0994L238.966 78.0369C238.949 77.9815 238.924 77.8992 238.891 77.7916C238.825 77.5764 238.727 77.26 238.599 76.8561C238.345 76.0482 237.975 74.8906 237.512 73.4924C236.585 70.6954 235.286 66.9388 233.799 63.0963C232.31 59.2511 230.637 55.3326 228.963 52.2064C228.125 50.6428 227.293 49.2895 226.491 48.2465C225.911 47.4926 225.366 46.9262 224.865 46.5553L219.427 77.8302C219.433 77.8366 219.438 77.8431 219.444 77.8499C219.554 77.9788 219.717 78.1682 219.925 78.409C220.342 78.8907 220.943 79.5782 221.68 80.4004C223.153 82.0454 225.164 84.2273 227.319 86.3784C229.477 88.5322 231.767 90.6429 233.799 92.1534C234.817 92.9093 235.754 93.5033 236.567 93.8786C237.396 94.2611 238.021 94.3807 238.447 94.2953Z" fill="white" stroke="black"/>
<path d="M260.727 70.5083L264.464 78.5367C266.64 77.0596 268.024 76.0994 268.024 76.0994L264.746 69.0977L260.727 70.5083Z" fill="#228652"/>
<path d="M144.334 68.2925L142.498 67.8937C142.498 67.8937 139.952 65.2053 138.591 64.1195C137.221 63.0338 137.169 64.7769 139.035 66.9262C139.035 66.9262 134.061 63.6395 132.403 66.5569C130.575 69.7771 133.454 72.5172 139.923 72.532L141.862 73.1746L144.334 68.2925Z" fill="#F9A28B"/>
<path d="M141.632 73.7729C141.632 73.7729 143.016 74.7331 145.192 76.2102L141.632 73.7729ZM141.632 73.7729L144.911 66.7712L141.632 73.7729ZM184.791 44.2213C184.29 44.5923 183.745 45.1586 183.165 45.9125C182.363 46.9556 181.531 48.3088 180.694 49.8724C179.019 52.9986 177.346 56.9172 175.857 60.7623C174.37 64.6048 173.071 68.3615 172.145 71.1584C171.681 72.5566 171.311 73.7143 171.057 74.5221C170.93 74.926 170.832 75.2424 170.765 75.4577C170.732 75.5653 170.707 75.6476 170.69 75.7029L170.671 75.7654L170.666 75.7811L170.665 75.7849L170.665 75.7859C170.665 75.7861 170.665 75.7861 170.186 75.6415L170.665 75.7861L170.514 76.2863L170.02 76.1133L149.963 69.0746L149.962 69.0743L148.772 68.6537L148.77 68.6533L145.172 67.3925L142.264 73.602C142.42 73.7099 142.627 73.8524 142.879 74.0255C143.496 74.4498 144.386 75.0585 145.473 75.7965L145.473 75.797C149.099 78.2668 154.918 82.1932 160.157 85.5668C162.777 87.254 165.248 88.8 167.225 89.9558C168.214 90.534 169.075 91.0114 169.765 91.3592C170.474 91.7158 170.956 91.9107 171.209 91.9613L171.21 91.9613C171.635 92.0467 172.26 91.9272 173.089 91.5446C173.902 91.1694 174.84 90.5753 175.857 89.8194C177.889 88.3089 180.179 86.1982 182.337 84.0444C184.493 81.8933 186.504 79.7115 187.977 78.0664C188.713 77.2442 189.314 76.5567 189.731 76.075C189.94 75.8342 190.102 75.6449 190.212 75.5159C190.218 75.5092 190.224 75.5026 190.229 75.4963L184.791 44.2213Z" fill="white" stroke="black"/>
<path d="M148.93 68.1746L145.192 76.203C143.016 74.7258 141.632 73.7657 141.632 73.7657L144.911 66.7639L148.93 68.1746Z" fill="#228652"/>
<path d="M202.619 23.9116L200.303 38.1662L205.92 42.3835L209.214 39.407L209.458 27.0137L202.619 23.9116Z" fill="#F9A28B"/>
<path d="M199.326 17.5967C199.326 17.5967 197.86 36.3123 212.878 34.5767C227.895 32.841 216.297 10.6541 216.297 10.6541L201.524 13.2539L199.326 17.5967Z" fill="#F9A28B"/>
<path d="M201.279 20.4477C201.279 20.4477 197.371 15.2407 193.834 17.9661C190.296 20.6914 192.857 28.4982 197.616 27.6341C202.375 26.7699 203.478 25.278 203.478 25.278L201.279 20.4477Z" fill="#F9A28B"/>
<path d="M202.257 25.1524L204.211 16.474C204.211 16.474 221.056 17.5893 225.326 13.372C229.597 9.15471 231.062 2.58873 228.502 1.84276C225.941 1.0968 218.739 8.03946 218.739 8.03946C218.739 8.03946 219.59 -1.99785 216.297 0.358218C213.003 2.71429 212.759 6.80603 212.759 6.80603C212.759 6.80603 199.94 7.42643 199.089 9.90806C198.238 12.3897 198.97 13.0101 198.97 13.0101C198.97 13.0101 196.41 12.0204 196.039 13.2612C195.662 14.4946 202.257 25.1524 202.257 25.1524Z" fill="black"/>
<path d="M209.377 34.3255L203.093 30.5957L209.074 38.8013L209.377 34.3255Z" fill="#F9A28B"/>
<path d="M220.597 26.5554C220.597 26.5554 216.8 22.1239 210.368 24.5686C203.929 27.0133 202.864 21.053 202.864 21.053L201.709 25.4106C201.709 25.4106 200.717 28.6973 202.368 31.6811C204.018 34.665 211.279 38.0994 211.279 38.0994C211.279 38.0994 222.573 36.7256 220.597 26.5554Z" fill="black"/>
<path d="M310.19 207.847L311.508 211.43L305.528 214.295L303.914 211.068L310.19 207.847Z" fill="#F9A28B"/>
<path d="M314.216 217.456L311.507 211.429L305.527 214.295L297.866 226.29L314.216 217.456Z" fill="#292678"/>
<path d="M306.423 217.634L302.234 216.26" stroke="#7BD53D" stroke-width="4" stroke-miterlimit="10"/>
<path d="M304.091 219.369L300.901 218.335" stroke="#7BD53D" stroke-width="4" stroke-miterlimit="10"/>
<path d="M283.16 221.393L281.961 225.211L275.381 223.786L275.981 219.96L283.16 221.393Z" fill="#F9A28B"/>
<path d="M281.961 225.211L280.325 231.541L263.82 227.161L275.381 223.786L281.961 225.211Z" fill="#292678"/>
<path d="M273.153 223.106L273.472 226.289" stroke="#7BD53D" stroke-width="4" stroke-miterlimit="10"/>
<path d="M270.837 223.904L271 226.526" stroke="#7BD53D" stroke-width="4" stroke-miterlimit="10"/>
<path d="M202.042 221.77L201.398 229.185L219.568 229.931L209.17 222.405L202.042 221.77Z" fill="#292678"/>
<path d="M211.656 222.412L210.191 225.765" stroke="#7BD53D" stroke-width="4" stroke-miterlimit="10"/>
<path d="M213.699 224.044L212.589 226.843" stroke="#7BD53D" stroke-width="4" stroke-miterlimit="10"/>
<path d="M182.747 221.349L183.775 230.005L165.42 229.791L175.56 221.666L182.747 221.349Z" fill="#292678"/>
<path d="M173.043 221.533L174.701 225.507" stroke="#7BD53D" stroke-width="4" stroke-miterlimit="10"/>
<path d="M171.06 223.306L172.325 226.622" stroke="#7BD53D" stroke-width="4" stroke-miterlimit="10"/>
<path d="M301.22 168.998L292.605 195.255L296.438 201.466L301.22 168.998Z" fill="#1A1A56"/>
<path d="M209.717 112.423L202.545 117.438L200.391 133.369L201.109 151.095L203.973 119.225L209.717 112.423Z" fill="#1A1A56"/>
<path d="M316.585 214.834H356.182C357.336 214.834 358.276 213.904 358.276 212.744V177.233C358.276 174.264 355.864 171.856 352.888 171.856H319.886C316.91 171.856 314.498 174.264 314.498 177.233V212.744C314.498 213.896 315.43 214.834 316.585 214.834Z" fill="#7BD53D"/>
<path d="M211.989 39.4955L206.127 45.4632L197.275 38.7791" stroke="#228652" stroke-width="4" stroke-miterlimit="10"/>
<path d="M339.284 66.2172C339.284 66.2172 341.675 65.4195 342.874 68.1301C344.073 70.8333 341.601 77.1999 341.601 77.1999L338.574 73.9353L338.973 66.2984L339.284 66.2172Z" fill="black"/>
<path d="M332.562 96.5379L337.748 92.7399L335.529 79.4247L329.406 82.1315L329.647 93.9721L332.562 96.5379Z" fill="white" stroke="black"/>
<mask id="path-49-inside-1" fill="white">
<path fill-rule="evenodd" clip-rule="evenodd" d="M339.335 73.2708C339.325 72.7144 339.299 72.3919 339.299 72.3919L337.041 68.049L321.891 65.4492C321.891 65.4492 309.997 87.6361 325.399 89.3718C333.002 90.2286 336.486 86.1016 338.065 81.7026C338.854 81.9618 339.834 82.2147 341.046 82.429C345.93 83.2932 348.565 75.4864 344.931 72.761C342.936 71.2647 340.829 72.1595 339.335 73.2708Z"/>
</mask>
<path fill-rule="evenodd" clip-rule="evenodd" d="M339.335 73.2708C339.325 72.7144 339.299 72.3919 339.299 72.3919L337.041 68.049L321.891 65.4492C321.891 65.4492 309.997 87.6361 325.399 89.3718C333.002 90.2286 336.486 86.1016 338.065 81.7026C338.854 81.9618 339.834 82.2147 341.046 82.429C345.93 83.2932 348.565 75.4864 344.931 72.761C342.936 71.2647 340.829 72.1595 339.335 73.2708Z" fill="white"/>
<path d="M339.299 72.3919L340.186 71.9306L340.279 72.1102L340.296 72.3118L339.299 72.3919ZM339.335 73.2708L339.932 74.0732L338.371 75.2342L338.335 73.289L339.335 73.2708ZM337.041 68.049L337.211 67.0634L337.7 67.1474L337.929 67.5878L337.041 68.049ZM321.891 65.4492L321.01 64.9767L321.35 64.3418L322.06 64.4636L321.891 65.4492ZM325.399 89.3718L325.511 88.3781L325.399 89.3718ZM338.065 81.7026L337.124 81.3649L337.452 80.4489L338.377 80.7526L338.065 81.7026ZM341.046 82.429L340.871 83.4137H340.871L341.046 82.429ZM344.931 72.761L344.331 73.561L344.931 72.761ZM339.299 72.3919C340.296 72.3118 340.296 72.3119 340.296 72.3119C340.296 72.312 340.296 72.312 340.296 72.3121C340.296 72.3121 340.296 72.3122 340.296 72.3123C340.296 72.3125 340.296 72.3127 340.296 72.3129C340.296 72.3133 340.296 72.3138 340.296 72.3144C340.296 72.3156 340.296 72.3171 340.296 72.3189C340.296 72.3226 340.297 72.3274 340.297 72.3335C340.298 72.3457 340.299 72.3628 340.301 72.3847C340.304 72.4283 340.308 72.491 340.312 72.5712C340.32 72.7316 340.329 72.9624 340.335 73.2526L338.335 73.289C338.33 73.0227 338.322 72.8141 338.314 72.6741C338.311 72.6042 338.308 72.5514 338.305 72.5172C338.304 72.5001 338.303 72.4877 338.303 72.4801C338.302 72.4763 338.302 72.4737 338.302 72.4723C338.302 72.4716 338.302 72.4712 338.302 72.4712C338.302 72.4711 338.302 72.4712 338.302 72.4713C338.302 72.4713 338.302 72.4714 338.302 72.4715C338.302 72.4716 338.302 72.4716 338.302 72.4717C338.302 72.4717 338.302 72.4718 338.302 72.4718C338.302 72.4718 338.302 72.4719 339.299 72.3919ZM337.929 67.5878L340.186 71.9306L338.412 72.8531L336.154 68.5102L337.929 67.5878ZM322.06 64.4636L337.211 67.0634L336.872 69.0346L321.722 66.4348L322.06 64.4636ZM325.287 90.3655C321.145 89.8986 318.661 88.009 317.442 85.3136C316.266 82.7135 316.348 79.534 316.885 76.5807C317.427 73.6013 318.461 70.7006 319.35 68.5598C319.795 67.4857 320.208 66.5946 320.51 65.9704C320.661 65.6582 320.784 65.4124 320.871 65.2434C320.914 65.1588 320.948 65.0935 320.972 65.0486C320.983 65.0262 320.993 65.0089 320.999 64.9968C321.002 64.9908 321.005 64.9861 321.006 64.9828C321.007 64.9811 321.008 64.9798 321.009 64.9787C321.009 64.9782 321.009 64.9777 321.009 64.9775C321.009 64.9771 321.01 64.9767 321.891 65.4492C322.772 65.9217 322.772 65.9215 322.772 65.9214C322.772 65.9215 322.772 65.9215 322.772 65.9217C322.772 65.9221 322.772 65.9227 322.771 65.9237C322.77 65.9258 322.768 65.9291 322.766 65.9338C322.761 65.9431 322.753 65.9576 322.743 65.9772C322.722 66.0164 322.692 66.0759 322.651 66.1543C322.571 66.3111 322.454 66.5436 322.31 66.8415C322.022 67.4374 321.626 68.2933 321.197 69.3263C320.336 71.3998 319.36 74.1542 318.853 76.9385C318.342 79.7489 318.338 82.4416 319.264 84.4896C320.147 86.4425 321.953 87.977 325.511 88.3781L325.287 90.3655ZM339.006 82.0404C338.175 84.357 336.813 86.6854 334.581 88.3156C332.329 89.9604 329.297 90.8174 325.287 90.3655L325.511 88.3781C329.104 88.783 331.616 88.0048 333.401 86.7006C335.207 85.3818 336.376 83.4472 337.124 81.3649L339.006 82.0404ZM340.871 83.4137C339.618 83.1921 338.592 82.9282 337.753 82.6527L338.377 80.7526C339.116 80.9954 340.05 81.2374 341.22 81.4443L340.871 83.4137ZM345.531 71.961C347.846 73.6967 348.017 76.886 347.12 79.2907C346.214 81.7173 343.98 83.9636 340.871 83.4137L341.22 81.4443C342.996 81.7586 344.521 80.5336 345.246 78.5915C345.979 76.6275 345.651 74.5507 344.331 73.561L345.531 71.961ZM338.738 72.4684C339.549 71.8651 340.593 71.2682 341.766 71.0543C342.978 70.8333 344.291 71.031 345.531 71.961L344.331 73.561C343.576 72.9947 342.839 72.8916 342.125 73.0218C341.372 73.1591 340.615 73.5651 339.932 74.0732L338.738 72.4684Z" fill="black" mask="url(#path-49-inside-1)"/>
<path d="M337.493 78.6699C337.493 78.6699 342.519 68.0491 340.964 63.5142C339.41 58.9793 331.876 63.396 325.414 59.9321C325.414 59.9321 320.951 58.1816 318.398 61.3649C315.844 64.5482 318.716 70.1171 322.624 69.2456C326.532 68.3667 332.594 66.4612 333.785 68.5292C334.984 70.5972 336.657 70.996 336.657 70.996L337.493 78.6699Z" fill="black"/>
<path d="M339.921 105.325C339.921 105.325 339.699 102.607 339.373 100.022C339.048 97.4372 337.427 93.5523 336.457 93.2347C335.488 92.9097 335.488 94.8522 335.488 94.8522C335.488 94.8522 331.92 91.6172 330.625 91.6172C329.33 91.6172 333.541 97.1122 333.541 97.1122C333.541 97.1122 330.951 98.7297 331.594 100.347C332.238 101.965 335.517 106.706 335.517 106.706L339.921 105.325Z" fill="#F9A28B"/>
<path d="M270.63 69.2527L271.718 72.7979" stroke="#2F011C" stroke-width="4" stroke-miterlimit="10"/>
<path d="M278.098 68.2556L273.472 69.6146" stroke="#2F011C" stroke-width="4" stroke-miterlimit="10"/>
<path d="M278.098 70.8039L274.345 70.7227" stroke="#2F011C" stroke-width="4" stroke-miterlimit="10"/>
<path d="M277.935 73.1155L274.108 72.0815" stroke="#2F011C" stroke-width="4" stroke-miterlimit="10"/>
<path d="M345.472 134.625L350.416 136.848" stroke="#2F011C" stroke-width="4" stroke-miterlimit="10"/>
<path d="M346.508 133.192L349.062 134.063" stroke="#2F011C" stroke-width="4" stroke-miterlimit="10"/>
<path d="M132.329 65.3975L135.8 66.9484" stroke="#2F011C" stroke-width="4" stroke-miterlimit="10"/>
<path d="M131.315 67.0667L135.563 68.2558" stroke="#2F011C" stroke-width="4" stroke-miterlimit="10"/>
<path d="M131.434 69.334L135.445 69.6885" stroke="#2F011C" stroke-width="4" stroke-miterlimit="10"/>
<path d="M198.652 23.084C198.652 23.084 198.356 19.5019 193.39 20.5211" stroke="black" stroke-width="4" stroke-miterlimit="10"/>
<path d="M195.648 23.1432C195.648 23.1432 195.966 21.3115 197.883 21.3928" stroke="black" stroke-width="4" stroke-miterlimit="10"/>
<path d="M95.9732 122.445H266.773V126.744H95.9732V122.445Z" fill="#CBCBCB"/>
<path d="M127.185 229.273L117.859 125.673" stroke="#228652" stroke-width="4" stroke-miterlimit="10"/>
<path d="M111.642 126.389L103.263 228.321" stroke="#228652" stroke-width="4" stroke-miterlimit="10"/>
<path d="M125.275 208.741L104.7 208.985" stroke="#228652" stroke-width="4" stroke-miterlimit="10"/>
<path d="M127.185 229.273L117.859 125.673" stroke="#979797" stroke-width="4" stroke-miterlimit="10"/>
<path d="M111.642 126.389L103.263 228.321" stroke="#979797" stroke-width="4" stroke-miterlimit="10"/>
<path d="M125.275 208.741L104.7 208.985" stroke="#228652" stroke-width="4" stroke-miterlimit="10"/>
<path d="M259.477 229.628L250.143 126.027" stroke="#979797" stroke-width="4" stroke-miterlimit="10"/>
<path d="M243.927 126.744L235.556 228.675" stroke="#979797" stroke-width="4" stroke-miterlimit="10"/>
<path d="M257.56 209.103L236.991 209.339" stroke="#228652" stroke-width="4" stroke-miterlimit="10"/>
<path d="M135.445 122.446C135.445 122.446 132.81 111.707 124.44 112.179C116.069 112.659 114.152 122.446 114.152 122.446H135.445Z" fill="#979797"/>
<path d="M129.613 87.6879L125.401 109.565C125.327 109.949 124.95 110.2 124.565 110.126C124.202 110.052 123.958 109.72 124.002 109.358L126.423 87.3555C126.467 86.9788 126.8 86.6982 127.178 86.7277L128.969 86.8533C129.391 86.8828 129.694 87.2743 129.613 87.6879Z" fill="#979797"/>
<path d="M130.338 85.132C129.247 85.132 128.362 84.2491 128.362 83.16C128.362 82.0709 129.247 81.188 130.338 81.188C131.43 81.188 132.314 82.0709 132.314 83.16C132.314 84.2491 131.43 85.132 130.338 85.132Z" fill="#979797"/>
<path d="M149.159 96.0484L135.511 84.1056C135.163 83.8027 134.638 83.8323 134.327 84.172C134.023 84.5044 134.031 85.0066 134.342 85.3316L146.036 97.5329C146.221 97.7249 146.495 97.821 146.761 97.784L148.715 97.5255C149.433 97.4369 149.714 96.5284 149.159 96.0484Z" fill="#979797"/>
<path d="M159.685 106.064L146.318 109.831C146.318 109.831 141.736 100.362 150.122 98.3899C158.152 96.4844 159.685 106.064 159.685 106.064Z" fill="#979797"/>
<path d="M155.438 107.664C155.424 107.595 155.41 107.535 155.397 107.484L150.855 108.771C150.888 108.823 150.928 108.884 150.973 108.95C151.136 109.186 151.374 109.489 151.676 109.764C152.282 110.314 153.112 110.727 154.118 110.324C154.636 110.117 154.963 109.827 155.168 109.515C155.375 109.201 155.466 108.854 155.493 108.525C155.52 108.196 155.483 107.889 155.438 107.664ZM155.344 107.307L155.344 107.307L155.344 107.307Z" fill="white" stroke="black" stroke-width="0.4"/>
<path d="M358.231 184.959L358.076 209.664C358.061 212.345 355.9 214.524 353.213 214.561L333.259 214.856" stroke="#228652" stroke-width="4" stroke-miterlimit="10"/>
<path d="M351.489 173.865C351.489 173.865 356.092 176.901 357.158 180.756" stroke="#228652" stroke-width="4" stroke-miterlimit="10"/>
<path d="M112.02 58.3294L109.429 60.1758L105.921 56.3057" fill="white"/>
<path d="M112.02 58.3294L109.429 60.1758L105.921 56.3057" stroke="#7BD53D" stroke-miterlimit="10"/>
<path d="M77.8041 117.091C77.8041 117.091 82.7333 122.505 85.6938 143.429C88.6543 164.353 85.383 179.242 85.383 179.242L79.0919 178.873C79.0993 178.873 79.8394 120.112 77.8041 117.091Z" fill="#6DED02"/>
<path d="M81.1344 128.48C81.1344 128.48 84.0951 168.533 81.3194 183.674" stroke="#0AC41E" stroke-width="2" stroke-miterlimit="10"/>
<path d="M57.9602 126.508C57.9602 126.508 64.2069 130.334 72.8887 149.611C81.5704 168.88 82.5918 184.087 82.5918 184.087L76.4487 185.483C76.4487 185.483 60.7579 128.842 57.9602 126.508Z" fill="#6DED02"/>
<path d="M64.3333 136.515C64.3333 136.515 78.3588 174.161 79.9131 189.471" stroke="#0AC41E" stroke-width="2" stroke-miterlimit="10"/>
<path d="M97.2021 136.973C97.2021 136.973 90.4447 141.922 85.1306 162.521C79.8164 183.12 82.9768 198.268 82.9768 198.268L91.1331 198.475C91.1331 198.475 94.3526 139.795 97.2021 136.973Z" fill="#6DED02"/>
<path d="M92.0879 148.022C92.0879 148.022 85.4118 187.706 87.9209 203.061" stroke="#0AC41E" stroke-width="2" stroke-miterlimit="10"/>
<path d="M103.923 155.187C103.923 155.187 98.9714 157.203 92.4952 169.124C86.0191 181.044 85.6268 190.904 85.6268 190.904L90.6375 192.293C90.6375 192.293 101.725 156.494 103.923 155.187Z" fill="#6DED02"/>
<path d="M99.0449 161.236C99.0449 161.236 88.7645 184.752 87.9355 194.634" stroke="#0AC41E" stroke-width="2" stroke-miterlimit="10"/>
<path d="M55.0003 158.488C55.0003 158.488 60.196 158.326 68.5743 165.8C76.9526 173.274 79.0176 181.296 79.0176 181.296L74.3399 184.302C74.3399 184.302 57.3761 158.754 55.0003 158.488Z" fill="#6DED02"/>
<path d="M60.8103 161.686C60.8103 161.686 74.8876 177.359 77.3818 185.24" stroke="#0AC41E" stroke-width="2" stroke-miterlimit="10"/>
<path d="M96.2998 178.134L93.3393 227.604H73.3631L68.5522 176.657L96.2998 178.134Z" fill="#979797"/>
<path d="M95.9297 186.621L69.4774 185.697L68.5522 176.657L96.2998 178.134L95.9297 182.197" stroke="#002F7A" stroke-width="2" stroke-miterlimit="10"/>
<defs>
<linearGradient id="paint0_linear" x1="183.235" y1="261.486" x2="183.544" y2="219.226" gradientUnits="userSpaceOnUse">
<stop stop-color="white" stop-opacity="0"/>
<stop offset="1" stop-color="#82A9FF" stop-opacity="0.21"/>
</linearGradient>
</defs>
</svg>
