<svg width="283" height="241" viewBox="0 0 283 241" fill="none" xmlns="http://www.w3.org/2000/svg">
<path fill-rule="evenodd" clip-rule="evenodd" d="M180.712 215.032C193.938 218.516 216.662 219.687 245.599 219.506C272.455 219.526 283.215 222.287 282.813 227.137C279.697 234.66 235.296 238.505 159.091 238.665C96.1832 238.861 66.8567 234.352 58.3857 226.557C45.5202 213.133 140.153 204.526 180.712 215.032Z" fill="url(#paint0_linear)"/>
<path d="M205.207 75.2321L164.44 34.6899L163.697 41.0984L198.053 75.2321H205.207Z" fill="#6DED02"/>
<path d="M123.2 75.2321L157.556 41.0984L156.813 34.6899L116.113 75.2321H123.2Z" fill="#6DED02"/>
<path d="M164.913 224.044H155.531V33.8131C155.531 31.2497 157.624 29.0911 160.256 29.0911C162.821 29.0911 164.981 31.1823 164.981 33.8131L164.913 224.044Z" fill="#6DED02"/>
<path d="M155.598 201.311L135.012 223.91H124.955L155.666 189.978L155.598 201.311Z" fill="#2F70FE"/>
<path d="M164.71 201.311L185.296 223.91H195.353L164.71 189.978V201.311Z" fill="#2F70FE"/>
<path d="M160.256 41.3685C161.523 41.3685 162.551 40.3115 162.551 39.0075C162.551 37.7036 161.523 36.6465 160.256 36.6465C158.988 36.6465 157.961 37.7036 157.961 39.0075C157.961 40.3115 158.988 41.3685 160.256 41.3685Z" fill="#8EDEF2"/>
<path d="M248 165.356H73.3213V174.598H248V165.356Z" fill="#2F70FE"/>
<path d="M248 55.3999H73.3213V59.9196H248V55.3999Z" fill="#566CD3"/>
<path d="M78.9512 164.856V60.4192H242.303V164.856H78.9512Z" fill="white" stroke="black"/>
<path d="M89.0752 127.215V124.167H145.379V127.215H89.0752Z" stroke="black"/>
<path d="M89.0752 134.837V131.79H145.379V134.837H89.0752Z" stroke="black"/>
<path d="M89.0752 142.527V139.48H145.379V142.527H89.0752Z" stroke="black"/>
<path d="M89.0752 150.218V147.17H145.379V150.218H89.0752Z" stroke="black"/>
<path d="M89.0752 157.908V154.86H145.379V157.908H89.0752Z" stroke="black"/>
<path d="M234.568 101.406H160.391V158.408H234.568V101.406Z" fill="#E5E9FF"/>
<path d="M169.368 100.529H166.735V159.285H169.368V100.529Z" fill="white"/>
<path d="M177.804 100.529H175.172V159.285H177.804V100.529Z" fill="white"/>
<path d="M186.242 100.529H183.609V159.285H186.242V100.529Z" fill="white"/>
<path d="M194.678 100.529H192.046V159.285H194.678V100.529Z" fill="white"/>
<path d="M203.116 100.529H200.483V159.285H203.116V100.529Z" fill="white"/>
<path d="M211.552 100.529H208.92V159.285H211.552V100.529Z" fill="white"/>
<path d="M219.989 100.529H217.356V159.285H219.989V100.529Z" fill="white"/>
<path d="M228.426 100.529H225.794V159.285H228.426V100.529Z" fill="white"/>
<path d="M234.839 107.073H159.041V109.704H234.839V107.073Z" fill="white"/>
<path d="M234.839 115.572H159.041V118.203H234.839V115.572Z" fill="white"/>
<path d="M234.839 124.072H159.041V126.703H234.839V124.072Z" fill="white"/>
<path d="M234.839 132.639H159.041V135.27H234.839V132.639Z" fill="white"/>
<path d="M234.839 141.139H159.041V143.77H234.839V141.139Z" fill="white"/>
<path d="M234.839 149.638H159.041V152.269H234.839V149.638Z" fill="white"/>
<path d="M160.66 138.575L159.918 136.417L191.843 125.893L218.504 132.774L234.366 124.544L235.378 126.568L218.774 135.202L218.369 135.067L191.911 128.254L160.66 138.575Z" fill="#2747B3"/>
<path d="M218.639 136.822C220.391 136.822 221.811 135.402 221.811 133.651C221.811 131.9 220.391 130.48 218.639 130.48C216.887 130.48 215.467 131.9 215.467 133.651C215.467 135.402 216.887 136.822 218.639 136.822Z" fill="#F7B75D"/>
<path d="M234.366 128.794C236.118 128.794 237.538 127.374 237.538 125.623C237.538 123.872 236.118 122.453 234.366 122.453C232.614 122.453 231.193 123.872 231.193 125.623C231.193 127.374 232.614 128.794 234.366 128.794Z" fill="#F7B75D"/>
<path d="M191.912 130.21C193.664 130.21 195.084 128.791 195.084 127.04C195.084 125.289 193.664 123.869 191.912 123.869C190.16 123.869 188.739 125.289 188.739 127.04C188.739 128.791 190.16 130.21 191.912 130.21Z" fill="#F7B75D"/>
<path d="M160.593 140.464C162.345 140.464 163.765 139.045 163.765 137.294C163.765 135.543 162.345 134.123 160.593 134.123C158.841 134.123 157.421 135.543 157.421 137.294C157.421 139.045 158.841 140.464 160.593 140.464Z" fill="#F7B75D"/>
<path d="M175.24 86.3628H170.245V94.053H175.24V86.3628Z" fill="#2747B3"/>
<path d="M185.162 77.9307H180.167V94.0531H185.162V77.9307Z" fill="#F7B75D"/>
<path d="M195.084 83.4624H190.089V94.0533H195.084V83.4624Z" fill="#121F55"/>
<path d="M205.005 72.0618H200.011V94.053H205.005V72.0618Z" fill="#2747B3"/>
<path d="M214.927 68.7566H209.933V94.0533H214.927V68.7566Z" fill="#F7B75D"/>
<path d="M224.849 62.7527H219.854V94.0531H224.849V62.7527Z" fill="#121F55"/>
<path d="M118.341 92.1642H140.615C139.872 103.092 130.828 111.66 119.759 111.66C108.217 111.66 98.835 102.283 98.835 90.7476C98.835 79.6845 107.474 70.6451 118.341 69.9031V92.1642Z" fill="#121F55"/>
<path d="M121.108 88.5214V71.2522C127.79 71.7244 133.528 75.5695 136.7 81.101L121.108 88.5214Z" fill="#6DED02"/>
<path d="M139.197 89.3308H125.9L137.915 83.5969C138.657 85.4857 139.062 87.3746 139.197 89.3308Z" fill="#2F70FE"/>
<path d="M121.947 4.11475C121.947 4.11475 121.879 4.11475 121.744 4.11475C121.609 4.11475 121.407 4.11475 121.204 4.11475C120.732 4.11475 120.057 4.1822 119.18 4.24966C117.425 4.38458 114.927 4.65441 111.958 5.26153C110.473 5.53136 108.853 5.93611 107.233 6.40831C105.545 6.88052 103.858 7.48764 102.103 8.22968C101.226 8.63442 100.348 8.97171 99.4708 9.44392C99.0658 9.64629 98.5934 9.91612 98.1884 10.1185C97.9859 10.2534 97.7834 10.3883 97.5809 10.5232L97.2435 10.7256L96.906 10.928C96.0285 11.4677 95.2186 12.0748 94.4086 12.6819C94.0037 13.0192 93.5987 13.289 93.2612 13.6263C93.0587 13.8287 92.8562 13.9636 92.7213 14.166L92.1813 14.7056C91.4388 15.4477 90.7639 16.1897 90.1564 16.9992C89.8189 17.4039 89.549 17.8087 89.279 18.2134C89.144 18.4158 89.009 18.6182 88.874 18.8206C88.739 19.0229 88.604 19.2253 88.469 19.4277C87.4566 21.1141 86.6467 22.9355 86.1067 24.7569C85.5667 26.5782 85.2292 28.3321 85.0943 30.086C84.9593 31.7725 84.9593 33.3915 85.0268 34.8755C85.0268 35.2128 85.0943 35.6176 85.0943 35.9549C85.1618 36.2922 85.1617 36.6294 85.2292 36.9667C85.2292 37.1017 85.2967 37.304 85.2967 37.4389C85.2967 37.5739 85.3642 37.7762 85.3642 37.9111C85.4317 38.2484 85.4317 38.5183 85.4992 38.8556C85.7017 40.0698 85.9042 41.0817 86.1067 41.8912C86.3092 42.7007 86.4442 43.3752 86.5792 43.8474C86.7141 44.3196 86.7816 44.522 86.7816 44.522C86.7816 44.522 86.7141 44.2522 86.6467 43.8474C86.5792 43.3752 86.3767 42.7681 86.2417 41.8912C86.1067 41.0817 85.9042 40.0023 85.7692 38.8556C85.7692 38.5857 85.7017 38.2484 85.7017 37.9111C85.7017 37.7762 85.7017 37.5739 85.6342 37.4389C85.6342 37.304 85.6342 37.1017 85.6342 36.9667C85.6342 36.6294 85.5667 36.2922 85.5667 35.9549C85.5667 35.6176 85.5667 35.2128 85.5667 34.8755C85.5667 33.3915 85.5667 31.8399 85.8367 30.1535C86.0392 28.467 86.4442 26.7806 87.0516 25.0267C87.6591 23.2728 88.469 21.5863 89.549 19.9673C89.684 19.765 89.8189 19.5626 89.9539 19.3602C90.0889 19.1579 90.2239 18.9555 90.3589 18.7531C90.6289 18.3484 90.9664 18.0111 91.3038 17.6063C91.9113 16.8643 92.5863 16.1897 93.3287 15.5151L93.8687 15.0429C94.0712 14.908 94.2737 14.7056 94.4086 14.5707C94.8136 14.2334 95.1511 13.9636 95.5561 13.6938C96.366 13.1541 97.176 12.6144 97.9859 12.1422L98.3234 11.9399L98.6609 11.7375C98.8634 11.6026 99.0658 11.5351 99.2683 11.4002C99.6733 11.1978 100.078 10.9954 100.551 10.7931C101.361 10.3883 102.238 10.051 103.116 9.71375C104.803 9.10663 106.49 8.56697 108.11 8.16222C109.73 7.75747 111.283 7.42018 112.7 7.21781C115.602 6.7456 117.965 6.61069 119.652 6.54323C120.462 6.54323 121.137 6.47577 121.609 6.47577C121.812 6.47577 122.014 6.47577 122.082 6.47577C122.217 6.47577 122.217 6.47577 122.217 6.47577L121.947 4.11475Z" fill="#F7B75D"/>
<path d="M129.573 10.5235C129.303 10.456 129.101 10.1862 129.168 9.91633L130.248 5.3292C130.316 5.05937 130.586 4.85699 130.856 4.92445C131.126 4.99191 131.328 5.26174 131.261 5.53157L130.181 10.1187C130.181 10.3885 129.843 10.5909 129.573 10.5235Z" fill="#B9B8F1"/>
<path d="M132.476 11.4003C130.587 12.2098 128.224 13.3566 125.794 13.1542L125.524 14.1661C127.887 15.1779 131.262 16.662 132.206 17.0667C133.759 17.7413 134.434 17.2691 134.434 17.2691L140.036 14.7732C140.036 14.9081 134.366 10.6582 132.476 11.4003Z" fill="#6DED02"/>
<path d="M138.348 1.2817C138.348 1.2817 138.011 0.539663 136.256 0.472205C135.176 0.404747 131.531 0.202374 128.966 0L128.696 1.01187C130.991 1.95628 132.544 4.11493 133.826 5.66646C135.176 7.28545 142.195 6.00375 142.195 6.00375L138.348 1.2817Z" fill="#6DED02"/>
<path d="M155.817 9.32808C157.751 11.2628 158.954 13.7353 159.364 14.7706C158.534 15.5155 156.355 17.1851 153.66 18.005L153.656 18.006C152.222 18.4529 150.041 18.2843 147.49 17.714C144.965 17.1492 142.166 16.2121 139.548 15.2086C136.933 14.206 134.512 13.1418 132.743 12.3279C131.86 11.9211 131.139 11.5771 130.641 11.3351C130.477 11.2554 130.337 11.1869 130.223 11.1307L131.005 7.9442L130.523 7.82589L131.005 7.9442L131.787 4.75503C131.915 4.7572 132.072 4.76021 132.256 4.76438C132.81 4.77697 133.608 4.80005 134.581 4.84205C136.527 4.92607 139.169 5.08565 141.956 5.38769C144.746 5.69001 147.668 6.13371 150.179 6.78287C152.711 7.43771 154.736 8.28031 155.817 9.32808Z" stroke="black"/>
<path d="M154.547 18.214C157.855 17.0672 159.947 14.9085 159.947 14.9085C159.947 14.9085 159.07 12.0078 156.64 9.51191C156.437 9.30953 156.235 9.10716 156.032 8.90479C154.885 10.5912 153.198 13.8967 153.738 18.4838C154.008 18.4163 154.278 18.2814 154.547 18.214Z" fill="#6DED02"/>
<path d="M118.167 4.85688C118.167 4.85688 128.156 14.9081 129.911 7.69011C131.599 0.472112 118.167 4.85688 118.167 4.85688Z" fill="#F7B75D"/>
<path d="M131.329 7.08306C131.194 7.01561 130.451 6.81323 130.249 6.88069C130.114 6.88069 128.156 6.81323 127.076 6.81323L126.941 7.28544C127.954 7.75764 129.709 8.63459 129.844 8.70205C130.046 8.76951 130.721 8.97188 130.924 8.97188C131.059 8.97188 131.734 8.83697 132.071 8.70205L132.274 7.8251C132.004 7.55527 131.464 7.15052 131.329 7.08306Z" fill="#2F70FE"/>
<path d="M136.863 9.84885C137.133 8.70206 138.28 8.02748 139.428 8.29731C139.968 8.43223 140.44 8.76952 140.778 9.24172C141.048 9.71393 141.183 10.3211 141.048 10.8607C140.778 12.0075 139.63 12.6821 138.483 12.4122C137.943 12.2773 137.47 11.94 137.133 11.4678C136.796 10.9956 136.728 10.3885 136.863 9.84885Z" fill="#2F70FE"/>
<path d="M145.165 10.3213C144.896 9.84911 144.423 9.51182 143.816 9.3769C142.668 9.10707 141.521 9.78165 141.251 10.9284C141.116 11.4681 141.183 12.0752 141.521 12.5474C141.791 13.0196 142.263 13.3569 142.871 13.4918C144.018 13.7617 145.165 13.0871 145.435 11.9403C145.57 11.3332 145.503 10.7935 145.165 10.3213Z" fill="#2F70FE"/>
<path d="M149.89 12.952C150.025 12.4124 149.957 11.8052 149.62 11.333C149.35 10.8608 148.877 10.5235 148.27 10.3886C147.122 10.1188 145.975 10.7934 145.705 11.9402C145.57 12.4798 145.637 13.0869 145.975 13.5591C146.245 14.0313 146.717 14.3686 147.325 14.5036C148.472 14.8408 149.62 14.0988 149.89 12.952Z" fill="#2F70FE"/>
<path d="M84.4735 84.1249L84.5582 84.5201H84.9624H86.5823C86.5874 84.5201 86.6398 84.5273 86.7129 84.5958C86.7698 84.6491 86.8069 84.7105 86.8247 84.7591V87.5279C86.8247 87.5831 86.8044 87.6219 86.7728 87.6513C86.7362 87.6855 86.6884 87.7025 86.6498 87.7025H85.0299H84.6322L84.5427 88.09C84.351 88.9204 84.0315 89.7499 83.5856 90.5138L83.3912 90.8469L83.664 91.1195L84.8114 92.2663C84.8556 92.3105 84.8674 92.3531 84.8674 92.3849C84.8674 92.4166 84.8556 92.4593 84.8114 92.5034L82.7866 94.5272C82.7424 94.5713 82.6996 94.5832 82.6675 94.5832C82.6355 94.5832 82.5927 94.5713 82.5485 94.5272L81.4011 93.3804L81.1286 93.108L80.7958 93.3021C80.0017 93.765 79.2458 94.1386 78.3781 94.3244L77.9828 94.4091V94.8133V96.4323C77.9828 96.4875 77.9624 96.5263 77.9308 96.5558C77.8942 96.5899 77.8464 96.6069 77.8079 96.6069H74.973C74.9176 96.6069 74.8786 96.5864 74.8491 96.5548C74.815 96.5183 74.7981 96.4707 74.7981 96.4323V94.8133V94.4155L74.4105 94.3261C73.5795 94.1345 72.7495 93.8152 71.9851 93.3695L71.6523 93.1755L71.3798 93.4478L70.2324 94.5946C70.1882 94.6388 70.1454 94.6506 70.1134 94.6506C70.0813 94.6506 70.0385 94.6388 69.9944 94.5946L69.6409 94.9483L69.9943 94.5946L67.9695 92.5709C67.9253 92.5267 67.9135 92.4841 67.9135 92.4523C67.9135 92.4206 67.9253 92.3779 67.9695 92.3338L69.1169 91.187L69.3897 90.9144L69.1953 90.5813C68.7321 89.7877 68.3583 89.0322 68.1724 88.1651L68.0877 87.7699H67.6835H66.0636C66.0081 87.7699 65.9692 87.7494 65.9397 87.7179C65.9056 87.6813 65.8887 87.6337 65.8887 87.5954V84.7621C65.8887 84.7069 65.9091 84.6682 65.9407 84.6387C65.9773 84.6045 66.025 84.5875 66.0636 84.5875H67.6835H68.0812L68.1707 84.2C68.3624 83.3697 68.6819 82.5401 69.1278 81.7762L69.3222 81.4431L69.0494 81.1705L67.902 80.0237C67.8578 79.9795 67.846 79.9369 67.846 79.9052C67.846 79.8734 67.8578 79.8308 67.902 79.7866L69.9269 77.7629C69.971 77.7187 70.0138 77.7068 70.0459 77.7068C70.0769 77.7068 70.1181 77.718 70.1609 77.7589L71.2343 78.8988L71.5067 79.1881L71.8501 78.988C72.6442 78.525 73.4001 78.1514 74.2678 77.9656L74.6631 77.8809V77.4767V75.8577C74.6631 75.8025 74.6835 75.7637 74.7151 75.7342C74.7517 75.7001 74.7995 75.6831 74.8381 75.6831H77.6729C77.7284 75.6831 77.7673 75.7036 77.7968 75.7352C77.8309 75.7717 77.8478 75.8194 77.8478 75.8577V77.4767V77.8745L78.2355 77.9639C79.0664 78.1555 79.8965 78.4749 80.6608 78.9205L80.9936 79.1145L81.2661 78.8422L82.4135 77.6954C82.4577 77.6512 82.5005 77.6394 82.5326 77.6394C82.5646 77.6394 82.6074 77.6512 82.6516 77.6954L84.6764 79.7191C84.7206 79.7633 84.7324 79.8059 84.7324 79.8377C84.7324 79.8695 84.7206 79.9121 84.6764 79.9563L83.529 81.103L83.2562 81.3757L83.4506 81.7087C83.9139 82.5024 84.2876 83.2578 84.4735 84.1249Z" fill="white" stroke="black"/>
<path d="M82.5048 86.1112C82.5048 89.545 79.7591 92.2895 76.3227 92.2895C72.8863 92.2895 70.1406 89.545 70.1406 86.1112C70.1406 82.6774 72.8863 79.9329 76.3227 79.9329C79.7591 79.9329 82.5048 82.6774 82.5048 86.1112Z" fill="white" stroke="black"/>
<path d="M76.6012 81.8979C78.9288 82.0632 80.6812 84.083 80.5158 86.4087C80.3505 88.7344 78.3299 90.4862 76.0023 90.3209C73.6746 90.1555 71.9222 88.1357 72.0876 85.81C72.253 83.4844 74.2735 81.7325 76.6012 81.8979Z" fill="white" stroke="black"/>
<path fill-rule="evenodd" clip-rule="evenodd" d="M76.1201 86.651C76.9301 86.9208 77.1326 87.0558 77.1326 87.393C77.1326 87.7303 76.5926 87.8653 76.2551 87.8653C75.9176 87.8653 75.5802 87.7978 75.3102 87.5954C75.2427 87.528 75.1077 87.5954 75.0402 87.6629L74.6352 88.3375C74.5677 88.4049 74.5677 88.5398 74.7027 88.6073C75.0402 88.8097 75.4452 88.9446 75.8501 89.012V89.4168C75.8501 89.5517 75.9176 89.6192 76.0526 89.6192H76.7951C76.9301 89.6192 76.9976 89.5517 76.9976 89.4168V88.9446C77.8075 88.7422 78.28 88.1351 78.28 87.4605C78.28 86.1788 77.2 85.8415 76.4576 85.6391C75.6476 85.3693 75.5127 85.3019 75.5127 85.032C75.5127 84.6947 76.0526 84.6273 76.3901 84.6273C76.7951 84.6273 77.2 84.8296 77.47 85.032C77.5375 85.0995 77.5375 85.0995 77.605 85.0995C77.6725 85.0995 77.74 85.0995 77.74 85.032L78.28 84.4924C78.3475 84.4249 78.3475 84.29 78.28 84.2225C77.9425 83.8852 77.47 83.6154 76.9976 83.4805V83.0083C76.9976 82.8734 76.9301 82.8059 76.7951 82.8059H76.0526C75.9176 82.8059 75.8501 82.8734 75.8501 83.0083V83.413C74.9727 83.5479 74.3652 84.1551 74.3652 84.9646C74.3652 86.1113 75.4452 86.4486 76.1201 86.651Z" fill="#2F70FE"/>
<path d="M61.3363 17.4993H66.9172C66.4954 20.0103 64.3308 21.896 61.6738 21.896C58.7773 21.896 56.3691 19.4887 56.3691 16.5946C56.3691 13.9395 58.2558 11.7757 60.7688 11.3543V16.9993V17.4993H61.2688H61.3363Z" stroke="black"/>
<g clip-path="url(#clip0)">
<path d="M32.8233 62.5295C32.8233 71.6659 25.4991 79.0295 16.4117 79.0295C7.32421 79.0295 0 71.6659 0 62.5295C0 53.3932 7.32421 46.0295 16.4117 46.0295C25.4991 46.0295 32.8233 53.3932 32.8233 62.5295Z" fill="white"/>
<path d="M29.2967 62.5297C29.2967 69.6888 23.5323 75.4843 16.4116 75.4843C9.29079 75.4843 3.52637 69.6888 3.52637 62.5297C3.52637 55.3706 9.29079 49.5752 16.4116 49.5752C23.5323 49.5752 29.2967 55.3706 29.2967 62.5297Z" fill="#2F70FE"/>
<path d="M25.1599 62.5298C25.1599 67.3707 21.2265 71.257 16.4794 71.257C11.6644 71.257 7.79883 67.3025 7.79883 62.5298C7.79883 57.6889 11.7322 53.8025 16.4794 53.8025C21.2265 53.8025 25.1599 57.6889 25.1599 62.5298Z" fill="white"/>
<path d="M20.4808 62.5296C20.4808 64.7796 18.6497 66.6205 16.4118 66.6205C14.1738 66.6205 12.3428 64.7796 12.3428 62.5296C12.3428 60.2796 14.1738 58.4387 16.4118 58.4387C18.6497 58.4387 20.4808 60.2796 20.4808 62.5296Z" fill="#6DED02"/>
<path d="M40.69 63.825H16.4116C15.6656 63.825 15.123 63.2114 15.123 62.5296C15.123 61.7796 15.7334 61.2341 16.4116 61.2341H40.69C41.436 61.2341 41.9785 61.8478 41.9785 62.5296C41.9785 63.2796 41.436 63.825 40.69 63.825Z" fill="#000C2D"/>
<path d="M40.0791 62.2566L44.2159 59.7339H49.3022L46.4539 62.5293L49.3022 65.3248H44.2159L40.0791 62.8021V62.2566Z" fill="#000C2D"/>
</g>
<defs>
<linearGradient id="paint0_linear" x1="174.28" y1="242.128" x2="173.716" y2="217.163" gradientUnits="userSpaceOnUse">
<stop stop-color="white" stop-opacity="0"/>
<stop offset="1" stop-color="#82A9FF" stop-opacity="0.21"/>
</linearGradient>
<clipPath id="clip0">
<rect width="114" height="33" fill="white" transform="translate(0 46.0295)"/>
</clipPath>
</defs>
</svg>
