<svg width="257" height="256" viewBox="0 0 257 256" fill="none" xmlns="http://www.w3.org/2000/svg">
<path d="M121 33H204V232H121V33Z" fill="#82A9FF" fill-opacity="0.21"/>
<g clip-path="url(#clip0)">
<path d="M70.506 75.0001C84.5861 75.0001 96.0003 63.4901 96.0003 49.2917C96.0003 35.0933 84.5861 23.5833 70.506 23.5833C56.4259 23.5833 45.0117 35.0933 45.0117 49.2917C45.0117 63.4901 56.4259 75.0001 70.506 75.0001Z" fill="#F3F2FF"/>
<path d="M70.506 49.2915L72.6407 74.9077C71.9393 74.9692 71.2074 74.9999 70.506 74.9999C56.4171 74.9999 45.0117 63.4988 45.0117 49.2915H70.506Z" fill="#B5B9FF"/>
<path d="M70.506 49.2917H45.0117C45.0117 44.6175 46.262 40.22 48.4272 36.4375L70.506 49.2917Z" fill="#D9DAFF"/>
<path d="M70.262 49.7221L45.957 35.5763L46.201 35.1458C48.6711 30.8405 52.2391 27.2733 56.5085 24.7825C60.6254 22.3838 65.4132 21 70.506 21H70.9939V50.1219L70.262 49.7221ZM47.2683 35.2073L70.018 48.4613V21.9841C65.2607 22.0763 60.8084 23.3679 56.9659 25.6128C53.0015 27.9191 49.647 31.2403 47.2683 35.2073Z" fill="white"/>
<path d="M55.3492 31.794L46.5664 26.6892H12.5029V25.8281H46.7799L55.7761 31.0559L55.3492 31.794Z" fill="#EEEDFF"/>
<path d="M46.8416 47.139L39.8581 45.2631H12.4121V44.4021H39.9801L47.0551 46.3087L46.8416 47.139Z" fill="#EEEDFF"/>
<path d="M53.1842 66.1126L50.6226 68.6958H11.8018V67.8655H50.2871L52.6048 65.5283L53.1842 66.1126Z" fill="#EEEDFF"/>
<path d="M1.06778 23.2756H4.94072C5.18468 23.2756 5.39815 23.4909 5.39815 23.7369V27.6424C5.39815 27.8884 5.18468 28.1037 4.94072 28.1037H1.06778C0.82382 28.1037 0.610352 27.8884 0.610352 27.6424V23.7369C0.610352 23.4909 0.82382 23.2756 1.06778 23.2756Z" fill="#EEEDFF"/>
<path d="M6.58732 23.2756H10.4602C10.7042 23.2756 10.9177 23.4909 10.9177 23.7369V27.6424C10.9177 27.8884 10.7042 28.1037 10.4602 28.1037H6.58732C6.34335 28.1037 6.12988 27.8884 6.12988 27.6424V23.7369C6.12988 23.4909 6.31286 23.2756 6.58732 23.2756Z" fill="#EEEDFF"/>
<path d="M1.76896 42.7107H5.64189C5.88586 42.7107 6.09933 42.926 6.09933 43.172V47.0774C6.09933 47.3234 5.88586 47.5387 5.64189 47.5387H1.76896C1.52499 47.5387 1.31152 47.3234 1.31152 47.0774V43.172C1.31152 42.926 1.52499 42.7107 1.76896 42.7107Z" fill="#D9DAFF"/>
<path d="M0.457433 65.344H4.33037C4.57433 65.344 4.7878 65.5593 4.7878 65.8053V69.7107C4.7878 69.9567 4.57433 70.172 4.33037 70.172H0.457433C0.213469 70.172 0 69.9567 0 69.7107V65.8053C0 65.5593 0.213469 65.344 0.457433 65.344Z" fill="#B5B9FF"/>
<path d="M5.97696 65.344H9.8499C10.0939 65.344 10.3073 65.5593 10.3073 65.8053V69.7107C10.3073 69.9567 10.0939 70.172 9.8499 70.172H5.97696C5.733 70.172 5.51953 69.9567 5.51953 69.7107V65.8053C5.51953 65.5593 5.7025 65.344 5.97696 65.344Z" fill="#B5B9FF"/>
</g>
<path fill-rule="evenodd" clip-rule="evenodd" d="M155.459 230.549C168.475 233.978 190.841 235.13 219.321 234.952C245.753 234.971 256.343 237.689 255.947 242.463C252.88 249.866 209.181 253.652 134.179 253.809C72.2643 254.002 43.401 249.564 35.0637 241.892C22.4014 228.679 115.54 220.209 155.459 230.549Z" fill="url(#paint0_linear)"/>
<path d="M128.511 11.0364C128.511 11.0364 139.394 9.52258 141.58 8.00875C141.58 8.00875 146.099 8.00875 146.488 10.1086C146.488 10.1086 143.864 13.2828 147.168 18.2638C147.168 18.2638 147.654 16.0663 149.646 15.8709L149.354 8.10641C149.354 8.10641 149.84 2.97889 145.322 0.927884C140.803 -1.12312 130.891 0.634883 128.17 3.76023L127.15 6.78791H126.324C126.324 6.73907 125.109 10.5969 128.511 11.0364Z" fill="url(#paint1_linear)"/>
<path d="M146.536 10.0597C146.536 10.0597 143.912 13.2339 147.216 18.2149C147.216 18.2149 147.702 16.0174 149.694 15.822L149.402 8.59467C147.556 8.35051 146.536 10.0597 146.536 10.0597Z" fill="#4F4387"/>
<path d="M135.653 39.7016C135.772 39.8619 135.773 39.8619 135.773 39.8618L135.773 39.8615L135.775 39.8603L135.781 39.8556L135.806 39.837L135.902 39.7645C135.987 39.7009 136.112 39.6074 136.27 39.4876C136.587 39.2481 137.042 38.9035 137.59 38.4831C138.686 37.6424 140.159 36.4983 141.663 35.2853C143.168 34.0727 144.706 32.7894 145.934 31.6706C146.547 31.1113 147.086 30.5911 147.503 30.14C147.788 29.8333 148.023 29.5509 148.189 29.3051C148.733 30.1979 149.41 31.0533 150.123 31.8996C150.083 31.9563 150.031 32.0318 149.968 32.1254C149.81 32.3572 149.582 32.7006 149.295 33.1477C148.724 34.039 147.924 35.343 147.003 36.9993L140.161 45.1169L135.359 40.1486L135.238 40.0232L135.097 40.1263L132.209 42.241L132.676 38.8761L132.771 38.8761L132.791 38.6977L133.027 36.5235C133.189 36.7458 133.356 36.975 133.524 37.2049C134.289 38.2555 135.067 39.3227 135.501 39.8314L135.622 39.974L135.772 39.8619L135.653 39.7016Z" fill="white" stroke="black" stroke-width="0.4"/>
<path d="M140.171 45.4152L135.215 40.3365L131.814 42.827C130.453 44.3409 120.979 55.2308 120.202 64.6068C119.376 74.7154 120.202 95.5184 117.481 105.383C117.238 106.311 116.995 107.19 116.752 108.069C118.355 108.801 120.639 109.631 123.068 109.827C126.664 110.071 137.013 109.485 141.92 109.143C139.394 100.695 136.575 88.8771 136.138 76.6687C135.555 60.4071 142.843 44.8781 147.216 37.1135L140.171 45.4152Z" fill="white"/>
<path d="M147.167 37.0645C142.795 44.8779 135.507 60.3581 136.09 76.6197C136.527 88.8281 139.345 100.646 141.871 109.094C142.989 112.757 144.009 115.784 144.835 117.933L147.75 117.542C147.75 117.542 147.75 117.542 147.799 117.493C149.111 116.419 150.326 115.296 151.443 114.026C161.306 102.795 161.841 85.0191 161.841 85.0191C153.63 50.8844 163.541 40.6782 163.541 40.6782C163.541 40.6782 155.33 37.1622 150.423 31.8394C150.374 31.8882 149.062 33.7927 147.167 37.0645Z" fill="#36336B"/>
<path d="M144.689 117.493C144.738 117.689 144.835 117.835 144.884 117.982L147.799 117.591C147.799 117.591 147.799 117.591 147.848 117.542C149.159 116.468 150.374 115.345 151.492 114.075C161.355 102.843 161.889 85.0679 161.889 85.0679C156.545 62.751 158.877 50.6891 161.16 44.9756C161.16 44.9756 153.144 55.6701 155.379 95.9578C155.33 95.9578 155.864 109.875 144.689 117.493Z" fill="#27254D"/>
<path d="M163.493 40.7271C163.493 40.7271 153.581 50.9333 161.792 85.0679C161.792 85.0679 161.258 102.843 151.395 114.075C154.213 115.882 158.926 118.519 163.104 119.203C165.339 116.126 167.671 112.708 168.303 111.194L176.951 91.1233C176.951 91.1233 172.044 57.4281 172.044 44.1454C172.093 44.1454 169.032 41.8991 163.493 40.7271Z" fill="#36336B"/>
<path d="M155.816 116.614C158.1 117.786 160.724 118.812 163.153 119.251C165.388 116.175 167.72 112.757 168.352 111.243L177 91.1722C177 91.1722 172.093 57.4771 172.093 44.1943C172.093 44.1943 170.587 43.12 167.817 42.0457C169.178 50.0055 170.393 60.7489 168.06 64.0696C164.222 69.5389 177.972 82.3821 172.287 89.463C168.255 94.4929 158.78 107.092 155.816 116.614Z" fill="#27254D"/>
<path d="M163.104 119.252C158.926 118.519 154.213 115.882 151.395 114.124C150.326 115.394 149.111 116.517 147.751 117.591C147.751 117.591 152.27 122.914 156.788 125.014L158.392 125.551C158.44 125.551 160.724 122.572 163.104 119.252Z" fill="white"/>
<path d="M118.064 59.284C118.064 59.284 115.829 77.1571 114.517 81.9916C114.517 81.9916 108.395 100.793 109.756 124.135L111.894 123.988C111.894 123.988 114.274 116.81 116.752 108.069C116.995 107.19 117.238 106.311 117.481 105.383C120.202 95.5185 119.327 74.7154 120.202 64.6069C120.979 55.182 130.454 44.3409 131.814 42.8271C131.912 42.7294 131.96 42.6318 131.96 42.6318L132.495 38.7739C131.523 39.4088 123.117 44.9758 121.854 46.1966C121.028 47.0268 119.911 53.5705 118.064 59.284Z" fill="#36336B"/>
<path d="M114.517 81.9915C115.829 77.157 118.064 59.2839 118.064 59.2839C117.043 62.5069 115.732 65.437 114.128 67.0485C114.128 67.0485 103.245 67.2926 95.6166 61.8721C95.6166 61.8721 93.4788 64.4115 93.1387 69.8808L94.2562 75.1548C94.2562 75.2037 107.229 82.8705 114.517 81.9915Z" fill="#36336B"/>
<path d="M114.517 81.9915C115.829 77.157 118.064 59.2839 118.064 59.2839C117.043 62.5069 115.732 65.437 114.128 67.0485C114.128 67.0485 114.711 74.1782 113.059 78.036C113.059 78.036 100.281 75.8873 93.5273 71.5412L94.2561 75.1548C94.2561 75.2037 107.229 82.8705 114.517 81.9915Z" fill="#27254D"/>
<path d="M94.9197 62.0356C94.8991 62.067 94.8778 62.1 94.8557 62.1348C94.637 62.4785 94.3469 62.9895 94.0474 63.6737C93.5286 64.8595 92.9833 66.5625 92.7336 68.8131L88.5991 64.6577C88.7567 62.5528 89.5764 61.0603 90.3636 60.0865C90.7719 59.5814 91.1722 59.2153 91.4675 58.9772C91.5163 58.9379 91.5621 58.9022 91.6046 58.8699L91.7899 59.0748C92.7246 60.192 93.7793 61.191 94.9197 62.0356ZM91.9341 58.6409C91.9343 58.6408 91.9344 58.6407 91.9342 58.6408L91.9341 58.6409Z" fill="white" stroke="black"/>
<path d="M89.6343 59.4091C88.7751 60.4719 87.8934 62.0697 87.6728 64.2765C87.5601 64.2882 87.4444 64.3078 87.3296 64.3315C87.0036 64.3987 86.6275 64.5111 86.2587 64.6226L86.2408 64.628C85.4752 64.8595 84.7459 65.08 84.2113 65.0834C84.1583 65.0794 84.0539 65.0533 83.8899 64.9722C83.7248 64.8906 83.5321 64.77 83.3186 64.6158C82.8916 64.3074 82.4198 63.8929 81.9743 63.4693C81.5663 63.0812 81.1886 62.6932 80.8993 62.3869L81.58 62.2058L83.3611 63.0113L83.8178 63.2179L84.022 62.7633C84.0218 62.7638 84.0217 62.764 84.0218 62.7638L84.022 62.7633L84.0243 62.7586C84.0273 62.7524 84.0331 62.7409 84.0418 62.7246C84.0593 62.6919 84.0886 62.6401 84.1314 62.5728C84.2172 62.4382 84.3574 62.2423 84.5663 62.0157C84.983 61.5638 85.6778 60.985 86.7727 60.5265L87.0948 60.3916L87.079 60.0427L87.079 60.0427V60.0427L87.079 60.0425L87.0789 60.0415L87.0788 60.0372L87.078 60.0198L87.0752 59.9511C87.0729 59.891 87.0697 59.8035 87.0664 59.6943C87.0596 59.4757 87.0521 59.1713 87.0491 58.8279C87.0431 58.1344 87.0557 57.3061 87.1248 56.7039L87.1911 56.1264L86.6108 56.1472L86.6106 56.1472L86.6104 56.1472L86.6104 56.1472L86.6102 56.1472L86.6069 56.1473L86.5888 56.1477C86.572 56.148 86.546 56.1483 86.5118 56.1482C86.4435 56.1479 86.3433 56.146 86.2204 56.1393C85.9731 56.1257 85.641 56.0931 85.2948 56.0179C85.2035 55.9981 85.1142 55.976 85.0273 55.9515C85.7594 55.963 86.4836 55.9004 87.1066 55.818C87.6996 55.7396 88.2171 55.6409 88.5867 55.5617C88.6951 55.5385 88.7909 55.5169 88.8725 55.498L90.9989 58.0626C90.9635 58.09 90.9266 58.1191 90.8883 58.1499C90.5475 58.4246 90.0944 58.8399 89.6343 59.4091Z" fill="white" stroke="black"/>
<path d="M83.6806 56.4505C84.1177 56.725 84.615 56.8824 85.0304 56.976C85.4077 57.0609 85.7639 57.1036 86.0377 57.1251C86.0104 57.5618 86.0006 58.0307 85.9994 58.4606L85.5203 58.3559L83.0057 57.8065L83.3081 57.4688L83.316 57.46L83.3234 57.4509L82.9356 57.1352C83.3234 57.4509 83.3235 57.4507 83.3237 57.4505L83.324 57.4501L83.3246 57.4493L83.3261 57.4476L83.3294 57.4434L83.3379 57.4325C83.3443 57.424 83.3523 57.4133 83.3614 57.4005C83.3797 57.3747 83.403 57.3399 83.4287 57.2969C83.4798 57.2114 83.5423 57.0897 83.5924 56.9386C83.6384 56.7998 83.6743 56.6345 83.6806 56.4505ZM85.8235 59.1307L86.0009 58.8767C86.0041 59.2172 86.0116 59.5165 86.0184 59.7322C86.0186 59.7375 86.0187 59.7427 86.0189 59.7479C85.6273 59.9341 85.2821 60.1349 84.9791 60.3394L85.8235 59.1307ZM83.1099 61.8221L83.4596 61.7381C83.4097 61.8026 83.365 61.8633 83.3254 61.9196L83.1099 61.8221Z" fill="white" stroke="black"/>
<path d="M83.8101 61.1395L85.4134 58.8443L82.0609 58.1118L80.5061 58.649L79.9717 62.1162L81.5751 61.6767L83.8101 61.1395Z" fill="white"/>
<path d="M79.5778 56.4595L82.7294 56.4194C82.7266 56.4952 82.7114 56.5637 82.6915 56.6237C82.6841 56.6462 82.676 56.6672 82.6677 56.6866L80.073 57.1833C79.9461 57.066 79.8224 56.9458 79.7189 56.8378C79.6422 56.7579 79.5819 56.6903 79.5407 56.639C79.5322 56.6284 79.5254 56.6196 79.5201 56.6125C79.5274 56.5799 79.5432 56.5341 79.569 56.478C79.5719 56.4718 79.5748 56.4657 79.5778 56.4595ZM79.5155 56.6418C79.5155 56.6418 79.5154 56.6408 79.5156 56.6388C79.5156 56.6407 79.5156 56.6417 79.5155 56.6418Z" fill="white" stroke="black"/>
<path d="M116.752 108.069C114.274 116.81 111.893 123.988 111.893 123.988C111.893 123.988 105.14 149.87 104.945 172.871C104.945 172.871 117.675 192.306 115.634 223.462C115.634 223.462 121.125 229.518 130.211 226.685C130.211 226.685 131.328 183.858 123.506 172.968C123.506 172.968 125.352 160.369 130.113 156.121C130.113 156.121 131.474 171.455 136.381 179.121C136.381 179.121 144.204 208.275 137.401 227.662C137.401 227.662 137.401 228.101 137.304 228.785C140.803 231.422 149.062 231.666 149.062 231.666C149.062 231.666 163.979 196.311 150.228 169.55C150.228 169.55 148.868 144.84 156.01 128.676L153.484 128.969C151.152 131.069 149.014 131.997 149.014 131.997L143.135 122.426C143.135 122.426 143.086 122.426 139.394 122.963C135.701 123.5 136.478 121.302 136.478 121.302C138.373 121.107 143.572 118.177 143.572 118.177L144.884 117.982C144.106 115.833 143.038 112.805 141.92 109.143C137.061 109.485 126.664 110.071 123.068 109.827C120.59 109.631 118.307 108.801 116.752 108.069Z" fill="#36336B"/>
<path d="M145.807 231.324C147.653 231.569 149.014 231.569 149.014 231.569C149.014 231.569 163.93 196.213 150.18 169.452C150.18 169.452 148.82 144.743 155.962 128.579L153.435 128.872C151.589 130.532 149.888 131.46 149.257 131.802C146.779 139.713 143.524 153.972 145.71 169.257C145.71 169.257 155.427 207.494 145.71 230.592C145.71 230.641 145.759 230.885 145.807 231.324Z" fill="#27254D"/>
<path d="M125.546 227.369C126.955 227.369 128.51 227.125 130.211 226.588C130.211 226.588 131.328 183.761 123.506 172.871C123.506 172.871 125.352 160.272 130.113 156.023C130.113 156.023 128.947 136.734 129.142 130.581C129.142 130.581 116.898 150.7 118.987 171.113C118.938 171.161 125.886 204.417 125.546 227.369Z" fill="#27254D"/>
<path d="M149.014 231.569C149.014 231.569 140.754 231.325 137.256 228.688C136.964 230.446 135.75 233.815 131.377 235.573C130.405 237.722 127.247 240.017 127.247 240.017C127.247 240.017 121.805 241.433 121.465 243.484C121.174 245.584 121.125 245.828 121.125 245.828C121.125 245.828 139.248 249.539 144.981 243.679L145.176 244.217C145.176 244.217 149.403 244.412 150.472 242.752C150.472 242.752 151.832 235.231 149.014 231.569Z" fill="#36336B"/>
<path d="M149.014 231.569C149.014 231.569 147.653 231.52 145.807 231.325C144.641 231.178 143.329 230.983 142.017 230.641C140.219 230.201 138.47 229.567 137.304 228.688C137.207 229.225 137.013 229.908 136.721 230.641C136.624 230.836 136.527 231.08 136.43 231.276C136.527 231.373 136.624 231.422 136.721 231.52C138.47 232.838 141.386 234.206 146.293 234.596C146.584 237.233 146.876 240.847 146.633 244.217C147.945 244.119 149.84 243.826 150.471 242.8C150.471 242.752 151.832 235.231 149.014 231.569Z" fill="#27254D"/>
<path d="M131.377 235.573C131.522 234.108 130.21 226.636 130.21 226.636C121.125 229.469 115.634 223.413 115.634 223.413C115.634 223.413 112.768 233.815 104.362 234.645C95.9566 235.475 95.0335 234.987 94.3047 237.868C94.3047 237.868 107.034 243.679 118.015 238.698C118.015 238.698 121.611 238.552 121.805 240.017L127.247 239.968C127.198 240.017 130.405 237.722 131.377 235.573Z" fill="#36336B"/>
<mask id="path-38-inside-1" fill="white">
<path fill-rule="evenodd" clip-rule="evenodd" d="M128.629 12.3061C128.622 12.3062 128.615 12.3062 128.608 12.3062L128.565 11.1342L128.559 11.0365C128.559 11.0365 128.56 11.0364 128.561 11.0363L128.559 10.9876C128.559 10.9876 134.535 10.1575 138.519 9.08314C139.929 8.69247 141.046 8.3018 141.629 7.91113C141.629 7.91113 142.795 7.91113 144.01 8.20413C145.176 8.4483 146.342 8.98547 146.536 10.011C146.536 10.011 146.527 10.0219 146.511 10.0434C146.521 10.0808 146.529 10.1188 146.536 10.1575C146.536 10.1575 145.572 11.3427 145.549 13.3754C145.563 14.6716 145.964 16.296 147.217 18.1662C147.136 18.0934 147.057 18.0208 146.981 17.9484C147.056 18.0687 147.134 18.1902 147.217 18.3127C147.217 18.3127 147.751 16.0664 149.694 15.9199C151.027 16.1877 151.02 17.6392 151.008 19.7891V19.7895V19.7899C151.007 19.9914 151.006 20.1991 151.006 20.4125C151.006 22.9031 148.188 24.5634 148.188 24.5634L148.188 28.1075C147.168 30.305 135.653 38.8997 135.653 38.8997C135.021 38.2161 133.807 36.5069 132.883 35.1884L133.179 32.7041C132.839 32.4314 131.974 31.7051 131.474 31.0094C130.843 30.1304 129.385 24.3192 129.385 24.3192L128.899 17.1895L128.629 12.3061ZM128.851 17.1406L129.337 24.2703C128.413 24.1238 127.49 18.5568 127.49 17.9708C127.49 17.3359 128.851 17.1406 128.851 17.1406Z"/>
</mask>
<path fill-rule="evenodd" clip-rule="evenodd" d="M128.629 12.3061C128.622 12.3062 128.615 12.3062 128.608 12.3062L128.565 11.1342L128.559 11.0365C128.559 11.0365 128.56 11.0364 128.561 11.0363L128.559 10.9876C128.559 10.9876 134.535 10.1575 138.519 9.08314C139.929 8.69247 141.046 8.3018 141.629 7.91113C141.629 7.91113 142.795 7.91113 144.01 8.20413C145.176 8.4483 146.342 8.98547 146.536 10.011C146.536 10.011 146.527 10.0219 146.511 10.0434C146.521 10.0808 146.529 10.1188 146.536 10.1575C146.536 10.1575 145.572 11.3427 145.549 13.3754C145.563 14.6716 145.964 16.296 147.217 18.1662C147.136 18.0934 147.057 18.0208 146.981 17.9484C147.056 18.0687 147.134 18.1902 147.217 18.3127C147.217 18.3127 147.751 16.0664 149.694 15.9199C151.027 16.1877 151.02 17.6392 151.008 19.7891V19.7895V19.7899C151.007 19.9914 151.006 20.1991 151.006 20.4125C151.006 22.9031 148.188 24.5634 148.188 24.5634L148.188 28.1075C147.168 30.305 135.653 38.8997 135.653 38.8997C135.021 38.2161 133.807 36.5069 132.883 35.1884L133.179 32.7041C132.839 32.4314 131.974 31.7051 131.474 31.0094C130.843 30.1304 129.385 24.3192 129.385 24.3192L128.899 17.1895L128.629 12.3061ZM128.851 17.1406L129.337 24.2703C128.413 24.1238 127.49 18.5568 127.49 17.9708C127.49 17.3359 128.851 17.1406 128.851 17.1406Z" fill="white"/>
<path d="M128.608 12.3062L127.608 12.343L127.644 13.3062H128.608V12.3062ZM128.629 12.3061L129.628 12.251L129.576 11.3056L128.629 11.3061L128.629 12.3061ZM128.565 11.1342L129.564 11.0974L129.564 11.0882L129.563 11.079L128.565 11.1342ZM128.559 11.0365L128.421 10.046L127.51 10.1728L127.561 11.0917L128.559 11.0365ZM128.561 11.0363L128.699 12.0267L129.594 11.9019L129.56 10.9994L128.561 11.0363ZM128.559 10.9876L128.422 9.99716L127.527 10.1215L127.56 11.0245L128.559 10.9876ZM138.519 9.08314L138.78 10.0487L138.787 10.0468L138.519 9.08314ZM141.629 7.91113V6.91113H141.325L141.072 7.08038L141.629 7.91113ZM144.01 8.20413L143.775 9.17625L143.79 9.1798L143.805 9.18291L144.01 8.20413ZM146.536 10.011L147.312 10.6423L147.605 10.2817L147.519 9.82477L146.536 10.011ZM146.511 10.0434L145.71 9.44497L145.423 9.82908L145.543 10.2933L146.511 10.0434ZM146.536 10.1575L147.312 10.7888L147.602 10.4321L147.52 9.97949L146.536 10.1575ZM145.549 13.3754L144.549 13.3642L144.549 13.3754L144.549 13.3866L145.549 13.3754ZM147.217 18.1662L146.547 18.9093L148.047 17.6096L147.217 18.1662ZM146.981 17.9484L147.671 17.224L146.132 18.4766L146.981 17.9484ZM147.217 18.3127L146.386 18.8692L147.66 20.7709L148.189 18.5442L147.217 18.3127ZM149.694 15.9199L149.892 14.9395L149.757 14.9123L149.619 14.9227L149.694 15.9199ZM151.008 19.7891L150.008 19.784V19.7891H151.008ZM151.008 19.7899L152.008 19.7951V19.7899H151.008ZM148.188 24.5634L147.681 23.7018L147.188 23.9919L147.188 24.5634L148.188 24.5634ZM148.188 28.1075L149.095 28.5286L149.188 28.3283V28.1075L148.188 28.1075ZM135.653 38.8997L134.918 39.5783L135.529 40.2397L136.251 39.7011L135.653 38.8997ZM132.883 35.1884L131.89 35.0704L131.845 35.4493L132.064 35.7619L132.883 35.1884ZM133.179 32.7041L134.172 32.822L134.237 32.2719L133.805 31.9248L133.179 32.7041ZM131.474 31.0094L130.662 31.593H130.662L131.474 31.0094ZM129.385 24.3192L128.387 24.3872L128.393 24.4761L128.415 24.5625L129.385 24.3192ZM128.899 17.1895L127.901 17.2447L127.902 17.2575L128.899 17.1895ZM129.337 24.2703L129.18 25.2579L130.42 25.4547L130.334 24.2023L129.337 24.2703ZM128.851 17.1406L129.848 17.0726L129.775 15.9976L128.709 16.1507L128.851 17.1406ZM128.608 13.3062C128.615 13.3062 128.622 13.3062 128.63 13.3061L128.629 11.3061C128.622 11.3062 128.615 11.3062 128.608 11.3062V13.3062ZM127.565 11.1711L127.608 12.343L129.607 12.2693L129.564 11.0974L127.565 11.1711ZM127.561 11.0917L127.566 11.1894L129.563 11.079L129.558 10.9813L127.561 11.0917ZM128.423 10.0458C128.422 10.0459 128.422 10.046 128.422 10.046C128.422 10.046 128.421 10.046 128.421 10.046C128.421 10.046 128.421 10.046 128.421 10.046C128.421 10.046 128.421 10.046 128.421 10.046C128.421 10.046 128.421 10.046 128.421 10.046C128.421 10.046 128.421 10.046 128.421 10.046C128.421 10.046 128.421 10.046 128.421 10.046C128.421 10.046 128.421 10.046 128.421 10.046C128.421 10.046 128.421 10.046 128.421 10.046C128.421 10.046 128.421 10.046 128.559 11.0365C128.697 12.027 128.697 12.027 128.697 12.027C128.697 12.027 128.697 12.027 128.697 12.027C128.697 12.027 128.697 12.027 128.697 12.027C128.697 12.027 128.697 12.027 128.697 12.027C128.697 12.027 128.697 12.027 128.697 12.027C128.697 12.027 128.697 12.027 128.697 12.027C128.697 12.027 128.697 12.027 128.697 12.027C128.697 12.027 128.697 12.027 128.697 12.0269C128.697 12.0269 128.697 12.0269 128.698 12.0269C128.698 12.0268 128.698 12.0268 128.699 12.0267L128.423 10.0458ZM127.56 11.0245L127.562 11.0731L129.56 10.9994L129.558 10.9508L127.56 11.0245ZM138.259 8.11762C136.314 8.64227 133.861 9.11213 131.876 9.45267C130.888 9.62229 130.023 9.75862 129.405 9.8525C129.096 9.89942 128.849 9.93571 128.68 9.96021C128.596 9.97245 128.531 9.98175 128.487 9.98796C128.465 9.99106 128.448 9.99339 128.437 9.99493C128.432 9.9957 128.428 9.99627 128.425 9.99664C128.424 9.99683 128.423 9.99697 128.422 9.99705C128.422 9.99709 128.422 9.99712 128.422 9.99714C128.422 9.99715 128.422 9.99715 128.422 9.99716C128.422 9.99716 128.422 9.99716 128.559 10.9876C128.697 11.9781 128.697 11.9781 128.697 11.9781C128.697 11.9781 128.697 11.9781 128.697 11.9781C128.697 11.978 128.698 11.978 128.698 11.9779C128.699 11.9778 128.7 11.9777 128.702 11.9774C128.705 11.977 128.709 11.9764 128.715 11.9755C128.727 11.9739 128.745 11.9714 128.768 11.9682C128.813 11.9617 128.88 11.9521 128.967 11.9395C129.14 11.9144 129.392 11.8775 129.705 11.8298C130.333 11.7344 131.211 11.5961 132.214 11.4239C134.214 11.0807 136.741 10.5983 138.78 10.0487L138.259 8.11762ZM141.072 7.08038C140.643 7.36782 139.681 7.72336 138.252 8.11949L138.787 10.0468C140.176 9.66158 141.449 9.23578 142.186 8.74188L141.072 7.08038ZM144.244 7.23202C143.571 7.06958 142.921 6.99039 142.446 6.95115C142.207 6.93138 142.007 6.9214 141.866 6.91635C141.795 6.91382 141.738 6.91252 141.698 6.91184C141.678 6.91151 141.662 6.91133 141.651 6.91124C141.645 6.91119 141.64 6.91116 141.636 6.91115C141.635 6.91114 141.633 6.91114 141.632 6.91114C141.631 6.91113 141.631 6.91113 141.63 6.91113C141.63 6.91113 141.63 6.91113 141.63 6.91113C141.629 6.91113 141.629 6.91113 141.629 6.91113C141.629 6.91113 141.629 6.91113 141.629 7.91113C141.629 8.91113 141.629 8.91113 141.629 8.91113C141.629 8.91113 141.629 8.91113 141.629 8.91113C141.628 8.91113 141.628 8.91113 141.628 8.91113C141.628 8.91113 141.628 8.91113 141.628 8.91113C141.628 8.91113 141.628 8.91113 141.628 8.91113C141.629 8.91114 141.631 8.91115 141.634 8.91117C141.64 8.91122 141.651 8.91133 141.665 8.91157C141.693 8.91204 141.737 8.91303 141.795 8.91507C141.91 8.91918 142.078 8.92751 142.282 8.94436C142.693 8.97837 143.234 9.04569 143.775 9.17625L144.244 7.23202ZM147.519 9.82477C147.354 8.95266 146.781 8.35567 146.173 7.97029C145.573 7.58911 144.862 7.3609 144.215 7.22536L143.805 9.18291C144.324 9.29154 144.779 9.45399 145.102 9.65882C145.418 9.85944 145.525 10.0438 145.554 10.1972L147.519 9.82477ZM147.312 10.6419C147.316 10.637 147.318 10.6345 147.318 10.6346C147.318 10.6346 147.318 10.6352 147.317 10.6365C147.316 10.6372 147.315 10.638 147.315 10.639C147.314 10.6394 147.314 10.64 147.313 10.6405C147.313 10.6408 147.313 10.6411 147.313 10.6414C147.312 10.6416 147.312 10.6417 147.312 10.6419C147.312 10.6419 147.312 10.642 147.312 10.6421C147.312 10.6421 147.312 10.6422 147.312 10.6422C147.312 10.6422 147.312 10.6423 147.312 10.6423C147.312 10.6423 147.312 10.6423 146.536 10.011C145.761 9.37961 145.761 9.37964 145.761 9.37967C145.761 9.37968 145.761 9.37971 145.761 9.37973C145.761 9.37977 145.761 9.37981 145.761 9.37985C145.761 9.37993 145.761 9.38001 145.76 9.3801C145.76 9.38026 145.76 9.38043 145.76 9.3806C145.76 9.38095 145.759 9.3813 145.759 9.38167C145.759 9.38241 145.758 9.38318 145.757 9.38401C145.756 9.38566 145.754 9.38748 145.753 9.38949C145.75 9.39351 145.746 9.39824 145.742 9.4037C145.733 9.4146 145.723 9.42837 145.71 9.44497L147.312 10.6419ZM147.52 9.97949C147.509 9.91661 147.495 9.85463 147.48 9.79357L145.543 10.2933C145.547 10.3069 145.55 10.321 145.552 10.3355L147.52 9.97949ZM146.549 13.3866C146.558 12.5288 146.766 11.8583 146.965 11.4095C147.065 11.1849 147.162 11.0169 147.229 10.9108C147.263 10.8579 147.289 10.8208 147.304 10.8001C147.311 10.7898 147.316 10.7836 147.318 10.7817C147.318 10.7808 147.318 10.7809 147.317 10.782C147.317 10.7826 147.316 10.7835 147.315 10.7846C147.315 10.7852 147.314 10.7858 147.314 10.7865C147.313 10.7869 147.313 10.7872 147.313 10.7876C147.313 10.7878 147.312 10.7881 147.312 10.7882C147.312 10.7885 147.312 10.7888 146.536 10.1575C145.761 9.52619 145.761 9.52651 145.76 9.52683C145.76 9.52694 145.76 9.52727 145.76 9.5275C145.759 9.52796 145.759 9.52843 145.759 9.52893C145.758 9.52992 145.757 9.53098 145.756 9.53212C145.754 9.53441 145.752 9.537 145.75 9.53989C145.745 9.54568 145.74 9.55269 145.733 9.5609C145.721 9.57733 145.705 9.59862 145.686 9.62468C145.648 9.67677 145.598 9.74811 145.541 9.83805C145.427 10.0177 145.281 10.2731 145.137 10.5988C144.848 11.2508 144.562 12.1893 144.549 13.3642L146.549 13.3866ZM148.047 17.6096C146.894 15.8878 146.561 14.4508 146.549 13.3642L144.549 13.3866C144.566 14.8924 145.034 16.7042 146.386 18.7227L148.047 17.6096ZM146.292 18.6727C146.375 18.7516 146.46 18.8305 146.547 18.9093L147.886 17.423C147.812 17.3563 147.74 17.29 147.671 17.224L146.292 18.6727ZM148.047 17.7562C147.971 17.6429 147.899 17.5309 147.83 17.4202L146.132 18.4766C146.213 18.6066 146.297 18.7375 146.386 18.8692L148.047 17.7562ZM149.619 14.9227C148.221 15.0281 147.359 15.9009 146.888 16.6266C146.651 16.992 146.493 17.3457 146.395 17.6058C146.345 17.7372 146.309 17.8484 146.285 17.93C146.273 17.9709 146.263 18.0047 146.257 18.0302C146.253 18.043 146.251 18.0537 146.248 18.0622C146.247 18.0665 146.246 18.0703 146.246 18.0734C146.245 18.075 146.245 18.0765 146.245 18.0778C146.244 18.0784 146.244 18.079 146.244 18.0796C146.244 18.0799 146.244 18.0803 146.244 18.0805C146.244 18.0809 146.244 18.0812 147.217 18.3127C148.189 18.5442 148.189 18.5445 148.189 18.5449C148.189 18.545 148.189 18.5454 148.189 18.5456C148.189 18.546 148.189 18.5465 148.189 18.5468C148.189 18.5476 148.188 18.5482 148.188 18.5487C148.188 18.5497 148.188 18.5502 148.188 18.5503C148.188 18.5503 148.188 18.5484 148.189 18.5447C148.191 18.5372 148.195 18.5226 148.202 18.5018C148.214 18.46 148.235 18.3945 148.266 18.313C148.328 18.1474 148.426 17.9303 148.565 17.7158C148.847 17.2818 149.225 16.9581 149.77 16.917L149.619 14.9227ZM152.008 19.7943C152.014 18.7704 152.026 17.7236 151.826 16.9102C151.721 16.4816 151.541 16.0372 151.207 15.6663C150.86 15.2803 150.41 15.0436 149.892 14.9395L149.497 16.9003C149.646 16.9301 149.694 16.9752 149.72 17.0039C149.76 17.0477 149.826 17.1508 149.884 17.3872C150.011 17.904 150.014 18.6579 150.008 19.784L152.008 19.7943ZM152.008 19.7895V19.7891H150.008V19.7895H152.008ZM152.008 19.7899V19.7895H150.008V19.7899H152.008ZM152.006 20.4125C152.006 20.2021 152.007 19.997 152.008 19.7951L150.008 19.7847C150.007 19.9859 150.006 20.1961 150.006 20.4125H152.006ZM148.188 24.5634C148.696 25.425 148.696 25.4248 148.697 25.4246C148.697 25.4246 148.697 25.4244 148.697 25.4242C148.698 25.424 148.698 25.4237 148.699 25.4234C148.7 25.4227 148.701 25.422 148.702 25.4211C148.705 25.4194 148.709 25.4173 148.713 25.4147C148.721 25.4097 148.733 25.4029 148.746 25.3946C148.773 25.3778 148.81 25.3545 148.856 25.3247C148.947 25.2654 149.073 25.18 149.222 25.0702C149.518 24.8519 149.915 24.5307 150.315 24.1181C151.093 23.3162 152.006 22.0395 152.006 20.4125H150.006C150.006 21.2761 149.511 22.0749 148.879 22.7257C148.575 23.0395 148.268 23.289 148.036 23.4599C147.92 23.5447 147.826 23.6085 147.763 23.6496C147.732 23.6702 147.708 23.6849 147.694 23.6937C147.687 23.6981 147.682 23.701 147.68 23.7024C147.679 23.703 147.678 23.7033 147.678 23.7033C147.678 23.7032 147.679 23.7031 147.679 23.7028C147.679 23.7027 147.679 23.7026 147.68 23.7024C147.68 23.7023 147.68 23.7022 147.68 23.7021C147.68 23.702 147.681 23.7018 148.188 24.5634ZM149.188 28.1075L149.188 24.5634L147.188 24.5634L147.188 28.1075L149.188 28.1075ZM135.653 38.8997C136.251 39.7011 136.251 39.7011 136.251 39.701C136.251 39.7009 136.251 39.7008 136.252 39.7006C136.252 39.7003 136.253 39.6999 136.253 39.6994C136.255 39.6983 136.257 39.6966 136.26 39.6945C136.266 39.6902 136.274 39.6839 136.285 39.6756C136.307 39.659 136.34 39.6345 136.383 39.6025C136.468 39.5384 136.593 39.4444 136.752 39.3241C137.071 39.0835 137.527 38.7377 138.077 38.316C139.176 37.4729 140.654 36.3246 142.166 35.1062C143.675 33.8897 145.228 32.5948 146.473 31.4599C147.095 30.8932 147.651 30.3561 148.09 29.8817C148.506 29.4329 148.896 28.9587 149.095 28.5286L147.281 27.6864C147.226 27.8057 147.032 28.0808 146.623 28.5226C146.237 28.9389 145.727 29.4338 145.126 29.9818C143.925 31.0765 142.408 32.3423 140.91 33.5491C139.416 34.7541 137.951 35.8919 136.859 36.7289C136.314 37.1473 135.862 37.4901 135.547 37.7281C135.389 37.8471 135.266 37.9399 135.182 38.0029C135.14 38.0343 135.108 38.0583 135.087 38.0744C135.076 38.0824 135.068 38.0885 135.063 38.0925C135.06 38.0945 135.058 38.096 135.057 38.097C135.056 38.0974 135.055 38.0978 135.055 38.098C135.055 38.0982 135.055 38.0982 135.055 38.0983C135.055 38.0983 135.055 38.0983 135.653 38.8997ZM132.064 35.7619C132.968 37.0526 134.229 38.8323 134.918 39.5783L136.387 38.2211C135.813 37.5998 134.645 35.9612 133.703 34.6148L132.064 35.7619ZM132.186 32.5861L131.89 35.0704L133.876 35.3063L134.172 32.822L132.186 32.5861ZM130.662 31.593C131.25 32.4111 132.214 33.212 132.552 33.4834L133.805 31.9248C133.464 31.6508 132.698 30.9992 132.286 30.4259L130.662 31.593ZM129.385 24.3192C128.415 24.5625 128.415 24.5626 128.415 24.5627C128.415 24.5627 128.415 24.5628 128.415 24.5629C128.415 24.5631 128.415 24.5634 128.416 24.5638C128.416 24.5646 128.416 24.5658 128.416 24.5672C128.417 24.5702 128.418 24.5746 128.42 24.5803C128.422 24.5916 128.427 24.6084 128.432 24.6301C128.443 24.6737 128.459 24.7373 128.48 24.8185C128.522 24.9808 128.582 25.2132 128.655 25.4947C128.803 26.0572 129.007 26.8179 129.231 27.6076C129.454 28.3952 129.701 29.2219 129.934 29.9129C130.05 30.2577 130.167 30.5797 130.279 30.8511C130.382 31.1006 130.51 31.3814 130.662 31.593L132.286 30.4259C132.291 30.432 132.275 30.4105 132.241 30.3426C132.21 30.2796 132.172 30.1952 132.128 30.0881C132.039 29.8734 131.938 29.5972 131.829 29.2736C131.611 28.6278 131.375 27.8369 131.155 27.0618C130.936 26.2888 130.735 25.5418 130.59 24.9872C130.517 24.7102 130.458 24.4817 130.418 24.3228C130.397 24.2433 130.382 24.1813 130.371 24.1393C130.366 24.1183 130.362 24.1023 130.359 24.0916C130.358 24.0863 130.357 24.0823 130.356 24.0796C130.356 24.0783 130.355 24.0774 130.355 24.0767C130.355 24.0764 130.355 24.0762 130.355 24.0761C130.355 24.076 130.355 24.076 130.355 24.0759C130.355 24.0759 130.355 24.0759 129.385 24.3192ZM127.902 17.2575L128.387 24.3872L130.383 24.2512L129.897 17.1215L127.902 17.2575ZM127.631 12.3613L127.901 17.2447L129.898 17.1343L129.628 12.251L127.631 12.3613ZM130.334 24.2023L129.848 17.0726L127.853 17.2086L128.339 24.3383L130.334 24.2023ZM126.49 17.9708C126.49 18.2169 126.566 18.7635 126.662 19.3459C126.766 19.9697 126.915 20.7465 127.093 21.5126C127.27 22.2706 127.485 23.0532 127.728 23.6717C127.847 23.9766 127.991 24.2867 128.165 24.5431C128.301 24.7447 128.624 25.1697 129.18 25.2579L129.493 23.2826C129.818 23.3342 129.91 23.5533 129.82 23.42C129.766 23.3416 129.686 23.1882 129.59 22.9415C129.399 22.4566 129.21 21.7834 129.041 21.0581C128.874 20.3408 128.733 19.6068 128.635 19.0175C128.586 18.723 128.549 18.4691 128.523 18.2751C128.495 18.0583 128.49 17.9696 128.49 17.9708H126.49ZM128.851 17.1406C128.709 16.1507 128.708 16.1508 128.708 16.1508C128.708 16.1508 128.708 16.1508 128.708 16.1509C128.707 16.1509 128.707 16.151 128.707 16.151C128.706 16.1511 128.705 16.1513 128.704 16.1514C128.702 16.1517 128.7 16.152 128.697 16.1524C128.692 16.1532 128.686 16.1541 128.678 16.1554C128.663 16.1578 128.643 16.1611 128.618 16.1655C128.569 16.1742 128.502 16.187 128.422 16.2047C128.266 16.2391 128.047 16.2955 127.818 16.3819C127.6 16.464 127.31 16.5963 127.058 16.8088C126.8 17.0268 126.49 17.4129 126.49 17.9708H128.49C128.49 18.2112 128.351 18.3348 128.348 18.3376C128.344 18.3404 128.356 18.3303 128.391 18.3118C128.424 18.2939 128.469 18.2739 128.523 18.2533C128.634 18.2115 128.755 18.1794 128.854 18.1574C128.902 18.1468 128.941 18.1394 128.966 18.1349C128.979 18.1327 128.988 18.1312 128.993 18.1305C128.995 18.1301 128.996 18.1299 128.996 18.1299C128.996 18.1299 128.996 18.13 128.995 18.1301C128.995 18.1301 128.995 18.1301 128.994 18.1302C128.994 18.1302 128.994 18.1303 128.994 18.1303C128.993 18.1303 128.993 18.1304 128.993 18.1304C128.993 18.1304 128.993 18.1304 128.851 17.1406Z" fill="black" mask="url(#path-38-inside-1)"/>
<path d="M143.961 43.2666C145.079 40.8737 146.196 38.7739 147.168 37.0647L143.961 40.8737L140.171 45.3664L138.519 43.6572L135.216 40.2877L131.814 42.7294L134.973 41.2644L138.519 44.4874L140.9 46.6849L143.475 44.2921C143.67 43.9991 143.815 43.6572 143.961 43.2666Z" fill="#0AC41E"/>
<path d="M118.744 112.561C120.105 112.952 121.708 113.391 123.554 113.733C127.49 114.466 132.543 114.905 138.519 114.368C140.074 114.222 141.677 114.026 143.378 113.782V113.733C142.94 112.366 142.406 110.803 141.92 109.143C140.948 109.192 139.782 109.289 138.519 109.338C138.276 109.338 137.985 109.387 137.693 109.387C132.494 109.68 125.789 110.022 123.068 109.827C122.291 109.778 121.562 109.68 120.882 109.485C119.279 109.143 117.87 108.557 116.752 108.069C116.412 109.241 116.072 110.413 115.78 111.487C116.558 111.829 117.578 112.171 118.744 112.561Z" fill="#27254D"/>
<path d="M130.163 226.636C128.511 227.174 126.956 227.369 125.498 227.418C119.231 227.467 115.586 223.462 115.586 223.462C115.586 223.462 115.344 224.439 114.712 225.806C116.655 227.613 119.911 229.518 125.45 230.299C125.352 232.936 125.11 235.426 124.721 237.673C124.575 238.503 124.429 239.333 124.235 240.066H127.199C127.199 240.066 128.656 239.04 129.871 237.673C130.454 237.038 131.037 236.305 131.329 235.622C131.426 234.987 131.183 233.034 130.891 231.178C130.891 231.031 130.843 230.885 130.843 230.69C130.551 228.541 130.163 226.636 130.163 226.636Z" fill="#27254D"/>
<path d="M117.724 108.508C123.36 101.916 120.445 76.913 120.931 65.9254C120.979 64.5093 121.125 63.3373 121.319 62.4582C122.583 56.7936 128.85 47.3199 132.057 42.6807L131.863 42.7783L131.814 42.8272C130.454 44.341 120.979 55.2309 120.202 64.6069C120.202 64.6558 120.202 64.7046 120.202 64.8023C119.376 75.0085 120.202 95.5674 117.53 105.383C117.287 106.311 117.044 107.19 116.801 108.069C117.044 108.215 117.384 108.362 117.724 108.508Z" fill="#0AC41E"/>
<path d="M94.645 61.1396C93.6246 62.4582 92.2642 64.8022 91.584 68.3182L93.1388 69.9297C93.4789 64.4603 95.6167 61.921 95.6167 61.921C95.2766 61.628 94.9851 61.3838 94.645 61.1396Z" fill="#EEEDFF"/>
<path d="M151.454 114.799C151.46 114.792 151.467 114.785 151.473 114.778L151.478 114.773C151.479 114.771 151.481 114.769 151.483 114.767C151.797 114.96 152.147 115.171 152.493 115.38L152.497 115.382L152.497 115.382L152.499 115.384C155.176 116.98 158.829 118.861 162.26 119.6C161.886 120.132 161.501 120.647 161.126 121.149C161.125 121.149 161.125 121.149 161.125 121.15C161.011 121.116 160.907 121.09 160.81 121.065C158.811 120.442 157.153 119.679 155.834 118.874C153.595 117.496 152.253 115.993 151.454 114.799Z" fill="#F3F2FF" stroke="black"/>
<defs>
<linearGradient id="paint0_linear" x1="149.128" y1="257.217" x2="148.573" y2="232.646" gradientUnits="userSpaceOnUse">
<stop stop-color="white" stop-opacity="0"/>
<stop offset="1" stop-color="#82A9FF" stop-opacity="0.21"/>
</linearGradient>
<linearGradient id="paint1_linear" x1="137.888" y1="6.10186" x2="137.888" y2="-3.70706" gradientUnits="userSpaceOnUse">
<stop stop-color="#36336B"/>
<stop offset="1" stop-color="#4F4387"/>
</linearGradient>
<clipPath id="clip0">
<rect width="96" height="54" fill="white" transform="translate(0 21)"/>
</clipPath>
</defs>
</svg>
