
<svg width="186" height="53" viewBox="0 0 186 53" fill="none" xmlns="http://www.w3.org/2000/svg">
<g clip-path="url(#clip0)">
<path d="M23.6468 24.2212C23.9554 23.8135 24.1724 23.3431 24.2829 22.8425C24.3934 22.342 24.3948 21.8232 24.2868 21.3221C24.0735 20.2839 23.4516 19.1942 22.4212 18.053C21.7886 17.3474 21.1027 16.6921 20.3698 16.093C19.5705 15.4312 18.6365 14.7423 17.5678 14.026C16.0614 13.0066 14.505 12.0643 12.9045 11.2027C11.2193 10.2843 9.41814 9.39574 7.50093 8.53685C7.43504 8.53845 7.37022 8.51979 7.31511 8.48335C7.25977 8.44742 7.19512 8.42881 7.12929 8.42986C7.16469 8.42986 7.18238 8.42094 7.18238 8.40311C7.18238 8.38528 7.20008 8.37636 7.23547 8.37636C7.31361 8.26021 7.40303 8.1522 7.50241 8.05391C7.60075 7.95385 7.68916 7.84436 7.76639 7.72699C8.08593 7.4407 8.40546 7.1435 8.725 6.83541C9.04453 6.52732 9.38226 6.23013 9.73817 5.94383C11.5138 6.58775 13.1744 7.23167 14.72 7.87559C16.2655 8.51951 17.6956 9.18176 19.0101 9.86233C20.36 10.5063 21.5855 11.1596 22.6867 11.8223C23.7058 12.4287 24.6847 13.1013 25.6171 13.8358C26.8175 14.7075 27.9321 15.6933 28.9457 16.7795C29.7846 17.6687 30.4942 18.6733 31.0531 19.7633C31.536 20.7093 31.8362 21.7389 31.938 22.7977C32.0241 23.8365 31.9242 24.8824 31.643 25.8855C31.328 26.9152 30.8014 27.8665 30.0975 28.6777C29.3175 29.5485 28.3749 30.256 27.3234 30.7595C26.0886 31.4186 24.771 31.9065 23.4064 32.2098C21.7157 32.593 19.9949 32.8267 18.2639 32.9082C16.7714 33.0152 15.2882 33.087 13.8145 33.1237C12.3407 33.1603 10.8575 33.1603 9.36505 33.1237C7.90797 33.088 6.45138 33.0162 4.99529 32.9082C3.53919 32.8002 2.10079 32.6586 0.680092 32.4832C0.502113 31.7692 0.36863 31.0446 0.280428 30.3137C0.190958 29.5777 0.110828 28.8347 0.0400391 28.0848C1.35357 28.2284 2.65039 28.3275 3.9305 28.382C5.21061 28.4364 6.47007 28.4795 7.70888 28.5112C9.52089 28.5112 11.1923 28.4488 12.7231 28.324C14.2539 28.1992 15.6392 28.0293 16.879 27.8143C17.997 27.6004 19.0937 27.2861 20.156 26.8752C20.9949 26.5545 21.7914 26.1308 22.5274 25.6136C22.7408 25.3986 22.9453 25.1747 23.1409 24.9419C23.3309 24.7176 23.5002 24.4764 23.6468 24.2212ZM9.57889 11.5905C11.6436 13.13 13.0648 14.6962 13.8425 16.2891C14.6202 17.8821 14.7618 19.486 14.2672 21.1007C14.0252 21.9109 13.6167 22.6608 13.0682 23.3014C12.4608 23.9892 11.7284 24.5536 10.9106 24.9642C9.94221 25.4731 8.91196 25.8523 7.84603 26.0921C6.52317 26.3997 5.17767 26.5985 3.82284 26.6865L1.9307 26.7935C1.30933 26.8291 0.679109 26.8465 0.0400391 26.8455V26.5245C0.0400391 25.8806 0.0577364 25.2451 0.093131 24.618C0.128054 23.9966 0.19946 23.3779 0.306974 22.765H1.05321C3.07857 22.765 4.77506 22.6219 6.14267 22.3356C7.51027 22.0493 8.5495 21.6198 9.26034 21.0472C9.40192 20.9402 9.53514 20.8327 9.66001 20.7248C9.78882 20.6126 9.90503 20.4865 10.0066 20.3488C10.322 19.8674 10.437 19.2803 10.3266 18.7143C10.2204 18.1199 9.865 17.5022 9.26034 16.8612C8.927 16.4521 8.55126 16.08 8.13951 15.7512C7.67742 15.3758 7.16223 14.9909 6.59395 14.5966C6.16724 14.3103 5.71449 14.024 5.23568 13.7377C4.75687 13.4514 4.26822 13.1651 3.76975 12.8788C4.12468 12.2706 4.50665 11.6802 4.91565 11.1076C5.32466 10.535 5.75971 9.96239 6.22083 9.38979C6.8599 9.78605 7.46407 10.162 8.03333 10.5176C8.60259 10.8733 9.11778 11.2309 9.57889 11.5905ZM4.67674 18.631C4.45125 19.3985 3.95643 20.0571 3.28455 20.484C2.57371 20.9675 1.63231 21.3142 0.46035 21.5242C0.670901 20.2114 0.991585 18.9189 1.41896 17.6607C1.84438 16.4164 2.38145 15.2137 3.02351 14.0676C3.80416 14.8195 4.33705 15.5714 4.62217 16.3233C4.90543 17.0629 4.92472 17.8787 4.67674 18.631ZM43.4634 29.9066C43.8429 29.3731 44.1077 28.7657 44.2408 28.1232C44.3739 27.4806 44.3723 26.8172 44.2361 26.1753C43.9727 24.833 43.1841 23.4099 41.8706 21.9061C41.0726 21.0367 40.2183 20.2216 39.3133 19.4661C38.2035 18.5393 37.0472 17.6703 35.8491 16.8627C34.1742 15.7074 32.4399 14.642 30.6535 13.6709C28.7854 12.6505 26.8048 11.6752 24.7116 10.745C22.58 9.77813 20.333 8.85633 17.9704 7.97961C15.6078 7.10289 13.1302 6.25044 10.5375 5.42226C11.6607 4.537 12.855 3.74722 14.1079 3.06105C15.3395 2.38459 16.6227 1.80818 17.9453 1.33733C20.6996 0.442057 23.5769 -0.00929373 26.471 -4.37675e-05C28.2317 -0.00484404 29.989 0.156845 31.7197 0.482896C33.3731 0.794652 34.9894 1.28025 36.5422 1.93172C38.1126 2.58017 39.6125 3.38983 41.0182 4.3479C42.4722 5.3412 43.8284 6.47274 45.0679 7.72699C46.3062 9.00196 47.4295 10.3854 48.4245 11.861C49.3677 13.2637 50.1709 14.7569 50.8225 16.3189C51.4649 17.9035 51.9471 19.5494 52.2619 21.2315C52.9013 24.7278 52.9013 28.3123 52.2619 31.8086C51.9473 33.4908 51.4651 35.1366 50.8225 36.7212C50.1793 38.3037 49.3757 39.815 48.4245 41.2311C46.4391 44.1622 43.9271 46.6932 41.0182 48.6937C39.6128 49.6543 38.1129 50.4665 36.5422 51.1173C34.9895 51.7693 33.3731 52.2554 31.7197 52.5676C29.9895 52.893 28.2306 53.0369 26.471 52.997C24.7026 53.0361 22.9349 52.8922 21.1957 52.5676C19.5331 52.2581 17.9076 51.7719 16.3466 51.1173C14.7761 50.4692 13.2762 49.6595 11.8707 48.7011C10.4055 47.7 9.03198 46.5692 7.76639 45.322C6.90043 44.4174 6.08227 43.4676 5.31532 42.4764C4.58037 41.5262 3.92106 40.5191 3.34354 39.4643C2.14 37.3989 1.2764 35.1508 0.786276 32.8072C2.77526 33.2034 4.73819 33.5437 6.67506 33.828C8.61193 34.1124 10.5213 34.363 12.4031 34.5799C14.2859 34.7592 16.1333 34.9024 17.9453 35.0094C19.7573 35.1164 21.5511 35.1857 23.3268 35.2174C25.6353 35.2174 27.7491 35.1456 29.6683 35.002C31.422 34.8811 33.1662 34.6479 34.8905 34.3036C36.2911 34.0625 37.6652 33.6847 38.9933 33.1757C40.0531 32.7718 41.0561 32.2303 41.9768 31.5649C42.2609 31.3153 42.5362 31.0557 42.8027 30.7863C43.0641 30.5255 43.2885 30.2294 43.4693 29.9066H43.4634Z" fill="#F33333"/>
<path d="M63.6113 38.5504L70.646 11.9724H91.8017L90.0968 18.2551H76.2413L75.122 22.2895H87.6974L86.1518 28.0847H73.5764L72.4511 32.2692H86.519L84.8673 38.5519H63.6113V38.5504ZM88.6029 38.5504L95.9576 10.8475H103.098L95.7452 38.5504H88.6044H88.6029ZM108.583 38.9323C106.518 38.9323 104.973 38.5028 103.946 37.644C102.92 36.7851 102.405 35.6037 102.401 34.0999C102.401 33.6683 102.436 33.2373 102.507 32.8116C102.578 32.3817 102.667 31.9165 102.774 31.4163L104.852 23.8453H102.405L103.951 18.05H106.402L107.787 12.8491H114.925L113.54 18.05H118.283L116.737 23.8453H111.997L110.239 30.2884C110.204 30.5391 110.169 30.7719 110.133 30.9868C110.101 31.1639 110.083 31.3433 110.08 31.5233C110.08 31.9532 110.204 32.2752 110.453 32.4891C110.702 32.7031 111.11 32.8106 111.679 32.8116C112.099 32.8087 112.519 32.7639 112.931 32.6779C113.432 32.571 113.923 32.4184 114.397 32.2217L112.798 38.2354C112.137 38.4557 111.46 38.6261 110.773 38.7451C110.05 38.8716 109.317 38.9343 108.583 38.9323ZM116.105 38.5504L121.541 18.0441H128.681L123.245 38.5504H116.105ZM121.912 16.1613L123.347 10.8475H130.808L129.369 16.1628H121.909L121.912 16.1613ZM127.294 38.5504L132.73 18.0441H139.871L139.281 20.2998C140.002 19.5479 140.827 18.9057 141.732 18.3933C142.705 17.8349 143.809 17.5476 144.929 17.5611C146.35 17.5611 147.496 17.892 148.367 18.5538C149.237 19.2161 149.895 20.1214 150.259 21.1572C151.183 20.0752 152.304 19.1818 153.562 18.5255C154.815 17.879 156.205 17.5476 157.612 17.5596C159.566 17.5596 161.058 18.1045 162.088 19.1942C163.118 20.2839 163.634 21.7783 163.634 23.6774C163.629 24.2712 163.575 24.8636 163.474 25.4486C163.366 26.0996 163.224 26.7445 163.048 27.3804L160.065 38.5489H152.974L155.798 27.8098C155.869 27.5235 155.931 27.2263 155.984 26.9183C156.034 26.6661 156.063 26.4101 156.071 26.153C156.071 25.4734 155.894 24.9454 155.539 24.5689C155.184 24.1925 154.633 24.0048 153.887 24.0058C152.927 24.0058 152.146 24.3277 151.542 24.9716C150.938 25.6156 150.477 26.5284 150.157 27.7103L147.28 38.5578H140.08L142.957 27.8188C143.028 27.5325 143.09 27.2353 143.143 26.9272C143.192 26.6704 143.218 26.4099 143.223 26.1485C143.223 25.4689 143.045 24.9409 142.69 24.5645C142.335 24.188 141.785 24.0003 141.039 24.0013C140.079 24.0013 139.297 24.3233 138.694 24.9672C138.09 25.6111 137.628 26.524 137.309 27.7058L134.432 38.5534H127.291L127.294 38.5504ZM170.188 38.9323C168.516 38.9323 167.157 38.431 166.111 37.4285C165.065 36.426 164.541 35.0836 164.539 33.4015C164.52 32.3455 164.739 31.2989 165.179 30.3404C165.596 29.4557 166.215 28.6828 166.984 28.0847C167.818 27.4129 168.779 26.9194 169.809 26.6344C171.005 26.2995 172.243 26.1369 173.485 26.1515C174.378 26.1494 175.269 26.2215 176.15 26.367C176.98 26.5064 177.799 26.705 178.601 26.9613L178.707 26.6924C178.743 26.5141 178.778 26.3159 178.813 26.098C178.85 25.867 178.868 25.6335 178.867 25.3996C178.871 25.0901 178.8 24.7842 178.661 24.5083C178.522 24.2323 178.318 23.9946 178.067 23.8156C177.534 23.4044 176.646 23.1984 175.402 23.1974C174.417 23.2004 173.435 23.3085 172.472 23.5199C171.606 23.6995 170.752 23.9328 169.915 24.2183L168.902 19.0174C170.103 18.59 171.343 18.2844 172.605 18.105C174.025 17.8888 175.459 17.781 176.895 17.7825C178.239 17.7623 179.581 17.9065 180.891 18.212C182.028 18.4993 182.969 18.9287 183.716 19.5003C184.445 20.0178 185.025 20.7221 185.394 21.5405C185.775 22.402 185.965 23.3363 185.953 24.2792C185.951 24.7645 185.916 25.2492 185.847 25.7295C185.774 26.2374 185.667 26.7398 185.527 27.2333L182.543 38.5623H175.509L176.041 36.3616C175.258 37.1353 174.359 37.7789 173.376 38.2681C172.376 38.7288 171.286 38.9559 170.188 38.9323ZM173.491 34.5294C174.414 34.5294 175.276 34.1713 176.075 33.455C176.861 32.7582 177.426 31.8426 177.697 30.8234L177.856 30.125C177.448 29.9774 177.03 29.8607 176.604 29.7758C176.139 29.6847 175.666 29.6399 175.191 29.642C174.054 29.642 173.148 29.9105 172.473 30.4474C171.799 30.9844 171.461 31.7179 171.46 32.6481C171.449 32.9035 171.493 33.1583 171.59 33.3947C171.686 33.6311 171.833 33.8434 172.019 34.0167C172.427 34.3695 172.954 34.5509 173.491 34.5234V34.5294Z" fill="#101010"/>
</g>
<defs>
<clipPath id="clip0">
<rect width="186" height="53" fill="white"/>
</clipPath>
</defs>
</svg>
