<svg width="204" height="40" viewBox="0 0 204 40" fill="none" xmlns="http://www.w3.org/2000/svg">
<path fill-rule="evenodd" clip-rule="evenodd" d="M160.524 0.674927H170.061V30.8072H183.371L177.92 38.9871H161.585V23.8071H156.658L161.585 16.6525V13.5258L144.589 39.0201H135.105L160.524 0.674927Z" fill="#2B5CA7"/>
<path fill-rule="evenodd" clip-rule="evenodd" d="M170.061 23.8071H188.04L193.37 15.8107H175.457L170.061 23.8071ZM170.061 8.6789H198.123L203.42 0.674927H175.438L170.061 8.6789ZM3.56622 20.4627L2.71304 22.6513H0.580078L4.627 11.9954H6.19539L10.1322 22.6513H7.97264L7.17388 20.4627H3.56622ZM5.31562 15.0373H5.28777L4.14598 18.8095H6.61058L5.31562 15.0373ZM18.3931 14.555C18.007 14.0322 17.5121 13.7018 16.8361 13.7018C16.1905 13.7018 15.5703 14.198 15.5703 14.8727C15.5703 16.6208 19.6881 15.8917 19.6881 19.3741C19.6881 21.4539 18.3931 22.9298 16.2728 22.9298C14.8411 22.9298 13.7955 22.102 13.0778 20.9032L14.3867 19.6222C14.6614 20.4209 15.3918 21.1387 16.2589 21.1387C17.0842 21.1387 17.5956 20.4348 17.5956 19.6361C17.5956 18.5614 16.6032 18.2576 15.7905 17.9424C14.455 17.3917 13.4765 16.717 13.4765 15.1056C13.4765 13.3841 14.7576 11.9942 16.507 11.9942C17.4285 11.9942 18.7096 12.4486 19.3425 13.1499L18.3931 14.555ZM28.3883 14.555C28.0022 14.0322 27.506 13.7018 26.8325 13.7018C26.1844 13.7018 25.5641 14.198 25.5641 14.8727C25.5641 16.6208 29.6819 15.8917 29.6819 19.3741C29.6819 21.4539 28.3882 22.9298 26.2667 22.9298C24.8337 22.9298 23.7882 22.102 23.073 20.9032L24.3806 19.6222C24.6553 20.4209 25.3869 21.1387 26.2528 21.1387C27.0806 21.1387 27.5908 20.4348 27.5908 19.6361C27.5908 18.5614 26.5996 18.2576 25.7857 17.9424C24.4515 17.3917 23.4717 16.717 23.4717 15.1056C23.4717 13.3841 24.754 11.9942 26.5021 11.9942C27.4249 11.9942 28.7047 12.4486 29.3376 13.1499L28.3883 14.555ZM32.9972 17.4462C32.9972 14.5423 35.1048 11.9954 38.134 11.9954C41.1645 11.9954 43.2708 14.5423 43.2708 17.4462C43.2708 20.4209 41.1645 22.9298 38.134 22.9298C35.1048 22.9298 32.9972 20.4209 32.9972 17.4462ZM35.0909 17.3639C35.0909 18.9348 36.4125 20.9311 38.1328 20.9311C39.853 20.9311 41.1771 18.9348 41.1771 17.3639C41.1771 15.6841 39.91 13.9904 38.1328 13.9904C36.358 13.9904 35.0909 15.6841 35.0909 17.3639ZM53.9533 15.0246C53.6763 14.685 53.3281 14.4103 52.9333 14.22C52.5385 14.0297 52.1067 13.9284 51.6685 13.9233C49.7267 13.9233 48.6115 15.7132 48.6115 17.5019C48.6115 19.2513 49.7672 21.0007 51.6546 21.0007C52.5229 21.0007 53.3888 20.545 53.9533 19.8969V22.307C53.1964 22.6665 52.4381 22.9286 51.5989 22.9286C48.6785 22.9286 46.5177 20.407 46.5177 17.5436C46.5177 14.5967 48.5975 11.9954 51.6406 11.9954C52.4502 12.0002 53.2455 12.2087 53.9533 12.6018V15.0246Z" fill="#2B5CA7"/>
<path d="M58.041 22.6513H60.0651V12.2701H58.041V22.6513Z" fill="#2B5CA7"/>
<path fill-rule="evenodd" clip-rule="evenodd" d="M66.4106 20.4627L65.5575 22.6513H63.4232L67.4714 11.9954H69.0411L72.9791 22.6513H70.8158L70.0183 20.4627H66.4106ZM68.16 15.0373H68.1309L66.9891 18.8095H69.4537L68.16 15.0373ZM79.7223 22.6513H77.697V14.0322H75.6058V12.2701H81.816V14.0322H79.7223V22.6513ZM87.3339 14.0322V16.3183H90.5567V18.0804H87.3339V20.8905H90.6808V22.6513H85.311V12.2701H90.6808V14.0322H87.3339ZM94.7809 12.2701H97.6733C100.673 12.2701 102.684 14.5145 102.684 17.4753C102.684 20.3943 100.619 22.6513 97.6581 22.6513H94.7809V12.2701ZM96.8049 20.8905H97.1341C99.6278 20.8905 100.591 19.5133 100.591 17.4614C100.591 15.2018 99.4341 14.0322 97.1341 14.0322H96.8049V20.8905ZM3.47009 30.449V32.7351H6.69294V34.4959H3.47009V37.3048H6.81573V39.0694H1.44727V28.6869H6.81573V30.449H3.47009ZM10.9171 28.411H12.3753L17.8425 35.6668H17.8704V28.6869H19.8945V39.277H18.435L12.9678 32.0186H12.9412V39.0694H10.9171V28.411ZM33.2884 33.5478V33.8085C33.2884 36.7403 31.7871 39.3441 28.5656 39.3441C25.5351 39.3441 23.6224 36.7833 23.6224 33.9199C23.6224 30.9579 25.5908 28.4097 28.6896 28.4097C30.4529 28.4097 31.9935 29.3059 32.7922 30.8882L31.0023 31.8541C30.5896 30.9173 29.7086 30.1996 28.6339 30.1996C26.6794 30.1996 25.7161 32.1971 25.7161 33.9187C25.7161 35.6377 26.6921 37.5529 28.6478 37.5529C29.9149 37.5529 30.9757 36.4516 31.0175 35.1985H28.8124V33.5465H33.2884V33.5478Z" fill="#2B5CA7"/>
<path d="M37.043 39.0693H39.0683V28.6868H37.043V39.0693Z" fill="#2B5CA7"/>
<path fill-rule="evenodd" clip-rule="evenodd" d="M43.292 28.4109H44.7528L50.2175 35.6668H50.2466V28.6869H52.2694V39.277H50.8111L45.3439 32.0186H45.3173V39.0694H43.292V28.4109ZM58.5176 30.449V32.7351H61.7405V34.4959H58.5176V37.3048H61.8645V39.0694H56.4948V28.6869H61.8645V30.449H58.5176ZM67.9874 30.449V32.7351H71.2103V34.4959H67.9874V37.3048H71.3343V39.0694H65.9633V28.6869H71.3343V30.449H67.9874ZM82.4561 39.0694H80.0041L77.4851 34.8833H77.4572V39.0694H75.4344V28.6882H78.1737C80.2244 28.6882 81.6421 29.5971 81.6421 31.8136C81.6421 33.1351 80.9143 34.4567 79.5219 34.6896L82.4561 39.0694ZM77.4572 33.4642H77.7193C78.8345 33.4642 79.6193 33.1338 79.6193 31.8667C79.6193 30.5882 78.8079 30.3388 77.7345 30.3388H77.4572V33.4642Z" fill="#2B5CA7"/>
<path d="M85.8691 39.0693H87.8945V28.6868H85.8691V39.0693Z" fill="#2B5CA7"/>
<path fill-rule="evenodd" clip-rule="evenodd" d="M92.1191 28.4109H93.5774L99.0446 35.6668H99.0725V28.6869H101.097V39.277H99.637L94.1698 32.0186H94.1432V39.0694H92.1191V28.4109ZM114.492 33.5477V33.8085C114.492 36.7402 112.99 39.3441 109.768 39.3441C106.738 39.3441 104.826 36.7833 104.826 33.9199C104.826 30.9578 106.797 28.4097 109.892 28.4097C111.655 28.4097 113.197 29.3059 113.996 30.8882L112.206 31.854C111.793 30.9173 110.913 30.1996 109.837 30.1996C107.881 30.1996 106.919 32.1971 106.919 33.9186C106.919 35.6377 107.895 37.5529 109.849 37.5529C111.117 37.5529 112.178 36.4516 112.217 35.1984H110.017V33.5465H114.492V33.5477Z" fill="#2B5CA7"/>
</svg>
