<svg width="232" height="60" viewBox="0 0 232 60" fill="none" xmlns="http://www.w3.org/2000/svg">
<path fill-rule="evenodd" clip-rule="evenodd" d="M173.952 15.1492V32.9029C173.952 37.482 174.846 41.0557 176.745 43.512C178.641 46.0789 181.659 47.3083 185.564 47.3083C188.802 47.3083 191.26 46.4149 192.936 44.6281V46.7496H201.198V15.1492H192.936V32.4562C192.936 35.0245 192.488 36.9233 191.484 38.0394C190.701 39.0449 189.361 39.6036 187.574 39.6036C185.787 39.6036 184.447 39.0449 183.667 38.0394C182.66 36.8113 182.215 34.9125 182.215 32.2335V15.1492H173.952ZM77.2536 58.2507H81.274V57.1333H78.3697V52.4435H77.2536V58.2507ZM74.3493 57.1346H72.8985V55.6825H74.3493C74.9081 55.6825 75.2428 55.9065 75.2428 56.3532C75.2428 56.9106 74.9081 57.1346 74.3493 57.1346ZM70.777 52.4448H69.3249L67.3153 55.0118V52.4448H66.1992V58.2507H67.3153V56.4639L68.2087 55.4585L69.7729 58.2507H71.113L69.1035 54.4544L70.777 52.4448ZM72.8985 54.5664V53.561H74.3493C74.7961 53.561 75.0201 53.673 75.0201 54.0077C75.0201 54.3437 74.7974 54.5664 74.3493 54.5664H72.8985ZM71.7811 52.4448V58.2507H74.3493C75.8015 58.2507 76.4709 57.58 76.4709 56.3532C76.4709 55.7945 76.1362 55.3478 75.5775 55.1238C76.0242 54.7891 76.2469 54.4544 76.2469 54.0063C76.2469 53.0022 75.5775 52.4435 74.348 52.4435H71.7811V52.4448ZM114.213 39.0449C113.544 38.2635 113.208 37.37 113.208 36.1419C113.208 33.5737 114.772 32.2335 118.011 32.2335C120.466 32.2335 122.363 32.6802 123.704 33.4617V37.482C123.258 38.2648 122.586 38.9342 121.583 39.4916C120.466 40.0503 119.239 40.385 118.011 40.385C116.335 40.385 115.107 39.9383 114.213 39.0449ZM57.601 54.9011C58.0477 54.9011 58.2704 55.3478 58.2704 56.1292C58.2704 56.9106 58.0477 57.2466 57.601 57.2466C57.4542 57.2508 57.3082 57.2229 57.1732 57.1648C57.0383 57.1068 56.9176 57.0201 56.8196 56.9106V55.2358L57.601 54.9011ZM55.7022 52.7795V58.2507H56.8196V58.0267C57.0423 58.1387 57.3783 58.2507 57.713 58.2507C58.9425 58.2507 59.4999 57.58 59.4999 56.1292C59.4999 54.5651 58.9412 53.785 57.713 53.785L56.8196 54.1197V52.2221L55.7022 52.7795ZM62.7375 53.897L61.7321 56.9106L60.7267 53.897H59.4986L61.1734 58.2521L60.616 59.8149H61.7321L63.9657 53.8983H62.7375V53.897ZM51.2351 19.1683C48.5548 22.2952 47.2147 26.2036 47.2147 31.0041C47.2147 36.0286 48.5548 39.937 51.2351 42.8399C53.9153 45.8549 57.489 47.307 62.0668 47.307C64.1883 47.307 66.3099 46.8603 68.3207 46.0776C70.441 45.0722 72.1171 43.8453 73.3452 42.2812L67.4273 37.3674C66.1992 38.8209 64.4124 39.601 62.0681 39.601C60.3933 39.601 58.9412 39.1542 57.825 38.2608C56.4849 37.1434 55.7035 35.5806 55.5915 33.5697H74.3493L74.5734 31.0015C74.5734 26.3117 73.3452 22.4046 70.9997 19.3896C68.5434 16.1507 65.3045 14.4758 61.2854 14.4758C57.265 14.4798 53.9153 16.0426 51.2351 19.1683ZM20.3054 15.4839C18.9652 14.8132 17.2904 14.4785 15.3916 14.4785C12.4886 14.4785 10.143 15.3719 8.46821 17.2694V15.1479H0.206055V46.7483H8.46953V29.4426C8.46953 26.8743 8.91624 24.9755 9.69765 23.8594C10.4791 22.854 11.8192 22.2952 13.606 22.2952C15.2809 22.2952 16.621 22.854 17.4024 23.8594C18.1851 24.9755 18.6318 26.8743 18.6318 29.6653V46.7496H26.8953V29.4426C26.8953 26.8743 27.342 24.9755 28.1248 23.8594C28.9062 22.854 30.245 22.2952 32.0331 22.2952C33.708 22.2952 35.0481 22.854 35.8295 23.8594C36.6109 24.9755 37.0576 26.8743 37.0576 29.6653V46.7496H45.3211V28.8839C45.3211 19.2803 41.5247 14.4798 34.044 14.4798C31.6984 14.4798 29.5769 14.9265 27.9021 15.7079C26.5619 16.2653 25.2218 17.2707 23.9937 18.6109C22.7616 17.1587 21.5335 16.0426 20.3054 15.4839ZM108.63 28.3252C106.174 30.224 104.946 32.7923 104.946 36.1419C104.946 39.7156 106.174 42.5065 108.63 44.6268C110.752 46.4136 113.432 47.307 116.67 47.307C119.684 47.307 122.029 46.4136 123.704 44.6268V46.7483H132.078V25.6449C132.078 22.1832 130.85 19.3923 128.505 17.3814C126.161 15.4839 123.145 14.4785 119.238 14.4785C116.78 14.4785 114.659 14.8132 112.76 15.3719C111.196 15.8186 109.41 16.6 107.401 17.7174L110.64 23.5234C112.092 22.7419 113.32 22.1832 114.548 21.8485L119.239 21.4018C120.691 21.4018 121.918 21.7365 122.701 22.5179C123.37 23.2993 123.705 24.1928 123.705 25.4222V26.985C122.03 26.0916 120.019 25.6449 117.675 25.6449C113.991 25.6449 110.974 26.5383 108.63 28.3252ZM66.4219 27.4317H55.7022C55.8142 25.7569 56.3729 24.4168 57.2663 23.4127C58.1597 22.2952 59.3879 21.7378 60.84 21.7378C62.5148 21.7378 63.967 22.2965 64.9711 23.5247C65.8632 24.5288 66.3099 25.7569 66.4219 27.4317ZM84.2877 30.4467C84.2877 36.5886 86.0745 39.6036 89.6469 39.6036C91.7684 39.6036 93.4432 38.7089 94.7834 36.9233V24.9755C93.5552 23.1887 91.6564 22.2952 89.2001 22.2952C85.9625 22.2952 84.2877 24.9755 84.2877 30.4467ZM88.196 14.4798C90.7643 14.4798 92.9978 15.3732 94.7847 17.048V15.1505H103.048V41.3917C103.048 46.1935 102.379 49.8779 101.151 52.2235C99.6985 54.9037 97.0182 56.6906 93.3339 57.5827C90.9896 58.3641 87.8626 58.5881 83.8423 58.4761L81.386 52.2235H83.0608L88.1974 51.7767C90.7656 51.33 92.4404 50.5473 93.4459 49.5445C94.3393 48.5391 94.786 46.9763 94.786 44.7414C92.8885 46.4162 90.6549 47.3097 88.1974 47.3097C84.513 47.3097 81.61 45.9695 79.4885 43.4013C77.1429 40.3863 75.9148 36.1432 75.9148 30.56C75.9148 25.7582 77.0322 21.8512 79.1538 19.0589C81.2727 16.0426 84.2877 14.4798 88.196 14.4798ZM229.002 18.3869C226.992 15.8186 224.088 14.4785 220.182 14.4785C216.945 14.4785 214.487 15.3719 212.811 17.2694V15.1479H204.437V46.7483H212.811V29.4426C212.811 26.8743 213.259 24.9755 214.152 23.8594C215.046 22.854 216.386 22.2952 218.173 22.2952C219.96 22.2952 221.3 22.854 222.08 23.8594C223.087 25.0875 223.532 26.9863 223.532 29.6653V46.7496H231.795V28.8839C231.794 24.3061 230.901 20.8444 229.002 18.3869ZM230.566 1.30383C229.783 0.521104 228.891 0.186401 227.774 0.186401C226.77 0.186401 225.764 0.521104 224.984 1.30383C224.201 2.08525 223.867 3.08936 223.867 4.20679C223.867 5.43491 224.201 6.43902 224.984 7.22175C225.764 8.00317 226.77 8.33787 227.774 8.33787C228.891 8.33787 229.783 8.00317 230.566 7.22175C231.346 6.43902 231.794 5.43491 231.794 4.20679C231.794 2.97867 231.346 2.08393 230.566 1.30383ZM229.895 1.97324C230.454 2.53064 230.791 3.31337 230.791 4.20679C230.791 5.2109 230.454 5.99231 229.895 6.55103C229.339 7.10974 228.667 7.44445 227.775 7.44445C226.992 7.44445 226.212 7.10974 225.655 6.55103C225.097 5.99231 224.761 5.2109 224.761 4.20679C224.761 3.31337 225.096 2.53196 225.655 1.97324C226.218 1.40976 226.979 1.08906 227.775 1.07982C228.667 1.07982 229.339 1.41453 229.895 1.97324ZM227.887 3.98278H227.104V2.75466H227.887C228.443 2.75466 228.781 2.97735 228.781 3.31337C228.781 3.75876 228.443 3.98278 227.887 3.98278ZM226.212 2.08393V6.55103H227.106V4.6535H227.664L228.782 6.55103H229.675L228.558 4.6535C229.341 4.54149 229.675 4.20679 229.675 3.42406C229.675 2.53064 229.117 2.08393 228 2.08393H226.212Z" fill="#6D6E70"/>
<path fill-rule="evenodd" clip-rule="evenodd" d="M134.758 14.9252C134.758 19.2803 136.099 22.63 138.778 24.8635C141.122 26.761 145.367 28.4359 151.286 29.8867C154.3 30.5574 156.42 31.2281 157.651 31.8962C158.655 32.4549 159.214 33.2377 159.214 34.1298C159.214 35.2459 158.766 36.0273 157.872 36.474C157.092 36.9207 155.528 37.1447 153.182 37.1447C151.062 37.1447 148.716 36.6967 146.035 35.6926C143.469 34.6858 141.345 33.6831 139.56 32.4536L133.306 42.5039C135.874 44.1788 138.777 45.6296 142.128 46.635C145.7 47.6404 149.275 48.1992 152.958 48.1992C158.878 48.1992 163.457 47.0817 166.694 44.7375C170.38 42.1692 172.165 38.2622 172.165 33.1257C172.165 28.9946 170.824 25.7556 168.145 23.4114C165.577 21.2898 161.332 19.503 155.192 18.0522C152.178 17.3814 150.169 16.8227 149.162 16.2653C148.158 15.7079 147.599 15.0372 147.599 14.1438C147.599 12.2463 149.162 11.3515 152.4 11.3515C156.757 11.3515 160.998 12.8036 165.353 15.7066L171.607 5.5456C166.581 1.97324 160.328 0.186401 153.072 0.186401C147.487 0.186401 143.021 1.52653 139.67 4.20679C136.434 6.88573 134.758 10.4594 134.758 14.9252Z" fill="#ECB731"/>
</svg>
