<svg width="260" height="44" viewBox="0 0 260 44" fill="none" xmlns="http://www.w3.org/2000/svg">
<g clip-path="url(#clip0)">
<path d="M172.138 23.4094C172.138 26.8455 169.438 29.6301 166.108 29.6301C162.778 29.6301 160.077 26.8455 160.077 23.4094C160.077 19.9728 162.778 17.1838 166.108 17.1838C169.438 17.1838 172.138 19.9728 172.138 23.4094ZM135.204 19.8519H124.623C125.569 18.4405 127.319 17.4545 129.116 17.2322H129.126C129.376 17.1983 129.627 17.1838 129.883 17.1838C130.138 17.1838 130.389 17.1983 130.639 17.2322H130.654C132.46 17.4545 134.253 18.4405 135.204 19.8519Z" fill="#CD2027"/>
<path d="M238.549 2.93476C230.537 2.93476 223.617 7.66673 220.339 14.5254C218.672 11.044 216.08 8.11145 212.861 6.06213C209.641 4.01281 205.923 2.92917 202.13 2.93476C198.426 2.92833 194.791 3.96113 191.622 5.92058C188.452 7.88003 185.87 10.6909 184.157 14.0469C182.417 10.6411 179.783 7.79764 176.551 5.83484V23.4674C176.551 29.3159 171.921 34.0623 166.207 34.0623C160.494 34.0623 155.858 29.3159 155.858 23.4674C155.858 17.6184 160.494 12.8724 166.207 12.8724C166.344 12.8724 166.481 12.8772 166.619 12.8821C168.671 13.0029 170.563 13.9696 172.138 15.1006V3.84345C170.209 3.23732 168.202 2.931 166.183 2.93476C158.171 2.93476 151.252 7.66673 147.974 14.5254C146.306 11.044 143.715 8.11145 140.495 6.06213C137.275 4.01281 133.557 2.92917 129.764 2.93476C126.06 2.92833 122.425 3.96113 119.256 5.92058C116.087 7.88003 113.505 10.6909 111.791 14.0469C110.077 10.6909 107.495 7.88003 104.326 5.92058C101.157 3.96113 97.522 2.92833 93.8178 2.93476C85.8056 2.93476 78.8859 7.66673 75.6082 14.5254C73.9405 11.044 71.3491 8.11145 68.1295 6.06213C64.9099 4.01281 61.1916 2.92917 57.3985 2.93476C53.6944 2.92833 50.0596 3.96113 46.8903 5.92058C43.721 7.88003 41.1389 10.6909 39.4254 14.0469C37.7118 10.6909 35.1297 7.88003 31.9605 5.92058C28.7912 3.96113 25.1564 2.92833 21.4522 2.93476C10.2852 2.93476 1.23242 12.128 1.23242 23.4674C1.23242 34.8067 10.2852 44 21.4522 44C25.1564 44.0064 28.7912 42.9736 31.9605 41.0142C35.1297 39.0547 37.7118 36.2438 39.4254 32.8878C41.1389 36.2438 43.721 39.0547 46.8903 41.0142C50.0596 42.9736 53.6944 44.0064 57.3985 44C65.4108 44 72.3305 39.268 75.6082 32.4098C77.276 35.8911 79.8674 38.8235 83.087 40.8727C86.3066 42.922 90.0248 44.0056 93.8178 44C97.522 44.0064 101.157 42.9736 104.326 41.0142C107.495 39.0547 110.077 36.2438 111.791 32.8878C113.505 36.2438 116.087 39.0547 119.256 41.0142C122.425 42.9736 126.06 44.0064 129.764 44C137.776 44 144.696 39.268 147.974 32.4098C149.642 35.8911 152.233 38.8235 155.453 40.8727C158.672 42.922 162.39 44.0056 166.183 44C169.888 44.0064 173.522 42.9736 176.692 41.0142C179.861 39.0547 182.443 36.2438 184.157 32.8878C185.87 36.2438 188.452 39.0547 191.622 41.0142C194.791 42.9736 198.426 44.0064 202.13 44C210.142 44 217.062 39.268 220.339 32.4098C222.007 35.8911 224.599 38.8235 227.818 40.8727C231.038 42.922 234.756 44.0056 238.549 44C249.716 44 258.769 34.8067 258.769 23.4679C258.769 12.128 249.716 2.93476 238.549 2.93476ZM21.3907 34.1494C15.6772 34.1494 11.0467 29.4072 11.0467 23.5592C11.0467 17.7059 15.6772 12.9642 21.3907 12.9642C27.109 12.9642 31.7395 17.7059 31.7395 23.5592C31.7395 29.4077 27.109 34.1494 21.3907 34.1494ZM57.6161 34.0623C51.9025 34.0623 47.2674 29.3159 47.2674 23.4674C47.2674 17.6184 51.9025 12.8724 57.6161 12.8724C63.3297 12.8724 67.9601 17.6189 67.9601 23.4674C67.9601 29.3159 63.3297 34.0623 57.6161 34.0623ZM99.6165 22.4282C99.1625 19.4556 96.6699 17.1838 93.6618 17.1838C90.332 17.1838 87.6313 19.9679 87.6313 23.4094V33.4243H83.4171V23.4674C83.4171 17.6184 88.0475 12.8724 93.7611 12.8724C99.1341 12.8724 103.552 17.0678 104.063 22.4282H99.6165ZM140.321 23.6365H123.857C123.885 24.4529 124.065 25.2268 124.372 25.9324C125.309 28.1123 127.423 29.6301 129.882 29.6301C132.342 29.6301 134.456 28.1119 135.393 25.9324H140.042C138.959 30.5919 134.868 34.0623 129.981 34.0623C124.268 34.0623 119.632 29.3159 119.632 23.4674C119.632 17.6184 124.268 12.8724 129.981 12.8724C135.695 12.8724 140.325 17.6189 140.325 23.4674C140.326 23.5254 140.326 23.5785 140.321 23.6365ZM202.437 34.0623C196.724 34.0623 192.088 29.3159 192.088 23.4674C192.088 17.6184 196.724 12.8724 202.437 12.8724C208.151 12.8724 212.781 17.6189 212.781 23.4674C212.781 29.3159 208.151 34.0623 202.437 34.0623ZM238.469 34.0623C232.755 34.0623 228.125 29.3159 228.125 23.4674C228.125 17.6184 232.755 12.8724 238.469 12.8724C244.187 12.8724 248.817 17.6189 248.817 23.4674C248.817 29.3159 244.187 34.0623 238.469 34.0623Z" fill="#CD2027"/>
<path d="M244.499 23.4094C244.499 26.8455 241.803 29.63 238.473 29.63C235.139 29.63 232.438 26.8455 232.438 23.4094C232.438 19.9728 235.139 17.1838 238.473 17.1838C241.803 17.1838 244.499 19.9728 244.499 23.4094ZM208.368 23.4094C208.368 26.8455 205.668 29.63 202.338 29.63C199.008 29.63 196.307 26.8455 196.307 23.4094C196.307 19.9728 199.008 17.1838 202.338 17.1838C205.668 17.1838 208.368 19.9728 208.368 23.4094ZM63.5472 23.4094C63.5472 26.8455 60.8465 29.63 57.5167 29.63C54.187 29.63 51.4863 26.8455 51.4863 23.4094C51.4863 19.9679 54.187 17.1838 57.5167 17.1838C60.8465 17.1838 63.5472 19.9679 63.5472 23.4094ZM27.3266 23.4964C27.3266 26.933 24.6259 29.7219 21.2961 29.7219C17.9663 29.7219 15.2656 26.933 15.2656 23.4964C15.2656 20.0598 17.9663 17.2757 21.2961 17.2757C24.6259 17.2757 27.3266 20.0598 27.3266 23.4964Z" fill="#CD2027"/>
<path d="M21.3899 12.9643C15.6764 12.9643 11.0459 17.7059 11.0459 23.5593C11.0459 29.4078 15.6764 34.1494 21.3899 34.1494C27.1082 34.1494 31.7387 29.4073 31.7387 23.5593C31.7387 17.7059 27.1082 12.9643 21.3899 12.9643ZM21.2953 29.7219C17.9656 29.7219 15.2649 26.933 15.2649 23.4964C15.2649 20.0598 17.9656 17.2757 21.2953 17.2757C24.6251 17.2757 27.3258 20.0598 27.3258 23.4964C27.3258 26.933 24.6251 29.7219 21.2953 29.7219ZM57.6153 12.8724C51.9017 12.8724 47.2665 17.6189 47.2665 23.4674C47.2665 29.3159 51.9017 34.0624 57.6153 34.0624C63.3289 34.0624 67.9593 29.3159 67.9593 23.4674C67.9593 17.6189 63.3289 12.8724 57.6153 12.8724ZM57.516 29.6301C54.1862 29.6301 51.4855 26.8455 51.4855 23.4094C51.4855 19.968 54.1862 17.1839 57.516 17.1839C60.8457 17.1839 63.5464 19.968 63.5464 23.4094C63.5464 26.846 60.8457 29.6301 57.516 29.6301ZM202.436 12.8724C196.723 12.8724 192.087 17.6189 192.087 23.4674C192.087 29.3159 196.723 34.0624 202.436 34.0624C208.15 34.0624 212.78 29.3159 212.78 23.4674C212.78 17.6189 208.15 12.8724 202.436 12.8724ZM202.337 29.6301C199.007 29.6301 196.307 26.8455 196.307 23.4094C196.307 19.9728 199.007 17.1839 202.337 17.1839C205.667 17.1839 208.368 19.9728 208.368 23.4094C208.368 26.846 205.667 29.6301 202.337 29.6301ZM238.468 12.8724C232.754 12.8724 228.124 17.6189 228.124 23.4674C228.124 29.3159 232.754 34.0624 238.468 34.0624C244.186 34.0624 248.817 29.3159 248.817 23.4674C248.817 17.6189 244.186 12.8724 238.468 12.8724ZM238.473 29.6301C235.138 29.6301 232.437 26.8455 232.437 23.4094C232.437 19.9728 235.138 17.1839 238.473 17.1839C241.802 17.1839 244.498 19.9728 244.498 23.4094C244.498 26.846 241.802 29.6301 238.473 29.6301ZM172.137 3.84351V15.1007C170.562 13.9696 168.671 13.0029 166.618 12.8821C166.481 12.8773 166.343 12.8724 166.206 12.8724C160.493 12.8724 155.858 17.6189 155.858 23.4674C155.858 29.3159 160.493 34.0624 166.206 34.0624C171.92 34.0624 176.55 29.3159 176.55 23.4674V5.8349C175.179 4.99871 173.698 4.32685 172.137 3.84351ZM166.107 29.6301C162.777 29.6301 160.076 26.8455 160.076 23.4094C160.076 19.9728 162.777 17.1839 166.107 17.1839C169.437 17.1839 172.137 19.9728 172.137 23.4094C172.137 26.846 169.437 29.6301 166.107 29.6301ZM140.325 23.4674C140.325 17.6184 135.694 12.8724 129.981 12.8724C124.267 12.8724 119.632 17.6189 119.632 23.4674C119.632 29.3159 124.267 34.0624 129.981 34.0624C134.867 34.0624 138.958 30.5915 140.042 25.9325H135.392C134.456 28.1124 132.342 29.6301 129.882 29.6301C127.423 29.6301 125.308 28.1119 124.372 25.9325C124.057 25.2082 123.882 24.4286 123.856 23.6366H140.321C140.325 23.5786 140.325 23.5254 140.325 23.4674ZM124.622 19.852C125.568 18.4406 127.318 17.4546 129.115 17.2322H129.125C129.375 17.1984 129.626 17.1839 129.882 17.1839C130.137 17.1839 130.388 17.1984 130.638 17.2322H130.653C132.459 17.4546 134.252 18.4406 135.203 19.852H124.622ZM104.062 22.4282H99.6157C99.1617 19.4556 96.6691 17.1839 93.6609 17.1839C90.3312 17.1839 87.6305 19.968 87.6305 23.4094V33.4244H83.4162V23.4674C83.4162 17.6184 88.0467 12.8724 93.7603 12.8724C99.1333 12.8724 103.551 17.0679 104.062 22.4282Z" fill="white"/>
</g>
<defs>
<clipPath id="clip0">
<rect width="260" height="44" fill="white"/>
</clipPath>
</defs>
</svg>
