<svg width="295" height="16" viewBox="0 0 295 16" fill="none" xmlns="http://www.w3.org/2000/svg">
<g clip-path="url(#clip0)">
<path d="M4.79881 0H15.8017L11.3095 16H0.30957L4.79881 0ZM22.5371 0H56.9999C59.8075 0 60.9306 2.22303 60.2568 4.66545L56.9999 16H45.5507L48.4677 6.55503C48.9169 4.9989 48.58 3.22048 45.997 3.22048H21.5263L22.5371 0Z" fill="black"/>
<path d="M20.6279 6.33272H31.8555L29.1602 16H17.8203L20.6279 6.33272ZM63.8506 3.2234L64.8583 0H106.172L105.273 3.2234H63.8506ZM89.5034 6.11042L86.7519 16H75.2998L78.0542 6.11042H89.5034ZM110.212 0H145.464C148.833 0 149.841 1.77843 150.068 3.44278C150.29 5.11005 149.329 6.68665 148.159 7.11079C147.311 7.41499 147.388 8.01463 147.713 8.38903C148.15 8.89799 148.611 9.50055 148.159 10.8899L146.699 16H135.022L136.142 12.3349C136.592 10.7788 136.255 9.66728 134.349 9.55612H119.057L117.284 16H105.72L110.212 0Z" fill="black"/>
<path d="M119.979 6.1104H136.707C138.841 6.1104 138.838 3.23801 136.932 3.22046H120.899L119.979 6.1104Z" fill="white"/>
<path d="M157.699 3.2234C158.373 1.33382 159.721 0 162.076 0H194.99L194.068 3.2234H157.699ZM156.913 6.11042H193.288L192.277 9.33382H167.13L166.231 12.5572H191.379L190.478 16H157.699C155.229 16 154.33 14.9996 154.892 13.1101L156.913 6.11042ZM201.817 0H233.869C236.059 0 237.968 1.44497 237.069 4.7766C236.224 7.9064 234.209 9.49762 229.829 9.66435H210.574L208.777 16H197.325L201.817 0Z" fill="black"/>
<path d="M211.528 6.1104H223.988C226.4 6.1104 226.627 3.22046 224.606 3.22046H212.368L211.528 6.1104Z" fill="white"/>
<path d="M243.131 0H253.974L249.417 16H238.526L243.131 0ZM260.352 0.00877514H287.518C291.774 0.157952 295.347 2.78757 294.59 7.28629C293.494 13.8062 288.192 15.9532 284.152 15.9532H255.815L258.555 6.1309H269.265L267.448 12.5075H278.876C282.018 12.2852 283.815 10.2845 284.264 7.9532C284.642 5.98464 283.703 3.39598 280.895 3.22925H259.454L260.352 0.00877514Z" fill="black"/>
</g>
<defs>
<clipPath id="clip0">
<rect width="295" height="16" fill="white"/>
</clipPath>
</defs>
</svg>
