<svg width="195" height="64" viewBox="0 0 195 64" fill="none" xmlns="http://www.w3.org/2000/svg">
<path d="M0.174805 63.7856H63.6055V0.403076H0.174805V63.7856Z" fill="#D0D1D3"/>
<path fill-rule="evenodd" clip-rule="evenodd" d="M32.8751 2.46753H61.0242L60.8838 61.5796H35.5484L32.1719 32.4003L32.8751 2.46753Z" fill="#CC2229"/>
<path fill-rule="evenodd" clip-rule="evenodd" d="M9.37012 55.2929H11.5279L11.6222 61.72L18.5177 61.7672L13.7338 2.51361H9.37012V23.5786L10.2609 12.5069L11.4346 49.0052H9.37012V55.2929Z" fill="#1E71B8"/>
<path fill-rule="evenodd" clip-rule="evenodd" d="M8.19827 2.51361L2.52148 61.72L6.41569 61.7672L6.7437 55.2929H9.37093V49.0052H7.26035L9.37093 23.5786V2.51361H8.19827ZM25.6509 2.42035C20.4426 8.94074 16.1743 22.6407 16.8764 32.3531C17.6739 43.3305 20.6291 52.2905 25.8375 61.6739L32.7341 61.6268C28.9803 52.7129 24.4772 40.0001 23.4911 27.2391C22.7879 17.5749 26.0722 8.75525 29.4026 2.4214H25.6509V2.42035Z" fill="#1E71B8"/>
<path fill-rule="evenodd" clip-rule="evenodd" d="M54.1746 19.3564C50.5151 25.3622 49.4368 35.542 52.0158 44.5031C54.4094 52.6656 53.8927 57.0293 52.2506 61.5796H56.6142C60.8365 52.9958 57.3174 43.4719 55.254 36.3406C53.5175 30.5223 53.7523 24.8455 56.0515 19.3102L54.1746 19.3564Z" fill="white"/>
<path fill-rule="evenodd" clip-rule="evenodd" d="M43.3845 61.673L43.4317 44.6436L38.2705 19.4036L40.6169 19.4507L44.6515 40.2328L46.7631 19.4036L51.3134 19.4968L47.8886 42.5341L47.8415 61.6258L43.3845 61.673Z" fill="white"/>
<path fill-rule="evenodd" clip-rule="evenodd" d="M32.4527 2.32599C26.8703 8.89459 23.7264 24.3761 28.3238 35.6836C32.0315 44.8773 36.9569 54.0742 32.0315 61.6268H37.7083C43.5716 53.6529 37.5196 35.4499 33.7197 25.2679C30.5297 16.7302 32.5932 8.0971 36.347 2.32599H32.4527Z" fill="#1E71B8"/>
<path fill-rule="evenodd" clip-rule="evenodd" d="M36.3004 2.27887C33.9079 5.9855 32.0781 11.2871 32.0781 16.4944C32.0781 21.3737 33.0632 24.0953 35.222 29.7249C36.6755 33.3843 38.0368 37.9346 39.0219 42.5341C40.5226 49.5239 40.6169 56.7465 37.7088 61.6268L39.1623 61.7211C41.7896 57.5932 42.0243 50.509 40.8988 43.6606C39.8666 37.0899 36.7227 30.383 34.9873 24.5186C32.5005 15.9799 33.0632 9.92791 37.6145 2.27992H36.3004V2.27887Z" fill="#D0D1D3"/>
<path fill-rule="evenodd" clip-rule="evenodd" d="M176.81 40.2328V37.3719H176.998C177.419 37.3719 177.75 37.0889 177.937 36.8091C178.312 36.6205 178.453 36.0598 178.453 35.3063C178.453 34.557 178.312 34.0414 177.937 33.9471C177.75 33.573 177.421 33.4315 176.906 33.4315H176.811V30.4291H177.563C178.593 30.4291 179.346 30.8504 179.813 31.4603C180.235 32.2117 180.61 32.9631 180.752 33.8539C180.752 34.0425 180.845 34.4638 180.845 34.6975V35.4509C180.845 36.9516 180.609 38.1715 180.095 38.9207C179.625 39.8136 178.64 40.2349 177.562 40.2349H176.81V40.2328ZM189.29 35.2141L187.413 40.2328H184.552L187.836 32.2117L184.833 24.7985H187.507L189.291 29.6778L190.979 24.7985H193.748L190.792 32.2117L194.03 40.2328H191.121L189.29 35.2141ZM181.597 24.7985H183.802V40.2328H181.455V24.7985H181.597Z" fill="#1E71B8"/>
<path fill-rule="evenodd" clip-rule="evenodd" d="M176.81 30.4292V33.4316H175.216V37.3719H176.81V40.2328H172.823V24.7985H175.215V30.4292H176.81ZM158.139 34.9323V31.9298H158.186C158.655 31.9298 159.078 31.7894 159.358 31.6029C159.547 31.1805 159.78 30.7111 159.78 29.8192C159.78 29.0689 159.687 28.5533 159.358 28.3175C159.125 27.9423 158.655 27.8009 158.186 27.8009H158.139V24.7985H159.078C159.923 24.9389 160.579 25.2669 161.19 25.8768C161.893 26.58 162.173 27.9413 162.173 29.8182C162.173 31.3199 162.033 32.5387 161.565 33.1486C161.19 33.9472 160.72 34.4628 160.25 34.5571C159.969 34.84 159.688 34.9312 159.406 34.9312H158.139V34.9323ZM165.27 33.573V40.2328H162.926V24.7985H165.27V30.71H168.603V24.7985H170.9V40.2328H168.603V33.573H165.27Z" fill="#1E71B8"/>
<path fill-rule="evenodd" clip-rule="evenodd" d="M158.139 24.7984V27.8008H156.544V31.9287H158.139V34.9311H156.544V40.2327H154.2V24.7984H158.139ZM152.886 40.2327H147.772V37.3718H152.886V40.2327ZM147.77 40.2327H152.886H147.77ZM152.275 33.8527H147.771V30.9908H152.275V33.8527ZM147.77 33.8527H152.275H147.77ZM152.836 27.8008H147.77V24.7984H152.836V27.8008ZM147.77 27.8008H152.836H147.77ZM147.77 19.7787V16.9639H147.817C148.38 16.9639 148.896 16.682 149.179 16.0721C149.553 15.6036 149.741 14.9937 149.882 14.3367C149.929 13.82 150.07 13.2101 150.07 12.8349V11.8027C150.07 10.302 149.882 9.08223 149.647 8.47232C149.414 7.67482 149.038 7.20534 148.71 6.92344C148.569 6.78301 148.382 6.68974 148.24 6.68974H147.771V3.6402H147.865C149.554 3.6402 150.681 4.39053 151.524 6.1731C152.134 7.81525 152.557 9.69214 152.557 11.8027C152.557 13.9615 152.275 15.8845 151.524 17.4334C150.82 19.0755 149.554 19.7787 147.865 19.7787H147.77Z" fill="#1E71B8"/>
<path fill-rule="evenodd" clip-rule="evenodd" d="M147.769 3.6402V6.68974H147.349C147.155 6.70694 146.973 6.78933 146.832 6.92344C146.505 7.20534 146.176 7.67482 145.894 8.47232C145.705 9.22265 145.472 10.302 145.472 11.8027V12.6945C145.472 13.0697 145.612 13.4449 145.706 13.82C145.753 14.5714 145.941 15.3217 146.222 15.9317C146.551 16.5416 147.114 16.9639 147.77 16.9639V19.7798H147.677C146.034 19.7798 144.722 19.0766 144.018 17.4344C143.407 15.8855 142.986 13.8211 142.986 11.8038C142.986 9.69319 143.268 7.8163 144.018 6.17415C144.722 4.39158 146.034 3.64125 147.677 3.64125H147.769V3.6402ZM147.769 24.7984V27.8008H147.628V30.9918H147.769V33.8527H147.628V37.3707H147.769V40.2316H145.284V24.7984H147.769ZM136.698 34.557V30.4752C136.793 31.1322 136.839 31.8365 136.839 32.5386C136.839 33.2428 136.793 33.8999 136.698 34.557ZM136.698 27.8008H139.373V40.2327H141.718V27.8008H144.534V24.7984H136.698V27.8008ZM136.698 19.4507V16.682H138.81C138.95 16.682 139.092 16.5416 139.185 16.5416C139.279 16.4944 139.42 16.2136 139.559 15.9317C139.795 15.7441 139.842 15.3217 139.842 14.8523C139.842 14.1962 139.702 13.5863 139.42 13.4449C139.185 13.2101 138.763 13.0697 138.341 13.0697H136.699V10.1616H138.529C138.623 10.1616 138.67 10.1145 138.764 10.1145C138.951 10.1145 139.092 9.83256 139.233 9.69319C139.28 9.41024 139.421 8.9418 139.421 8.56663C139.421 8.05104 139.28 7.67587 139.186 7.44113C139.091 7.27787 138.954 7.14349 138.789 7.05245C138.624 6.96142 138.437 6.91717 138.248 6.92448H136.698V4.06462H138.949C139.842 4.06462 140.544 4.39158 140.874 4.81495C141.296 5.42486 141.577 5.89435 141.625 6.55037C141.718 6.78511 141.765 7.06701 141.765 7.30175V8.05209C141.765 8.80242 141.625 9.41233 141.483 9.83465C141.296 10.3041 141.015 10.7265 140.826 10.7736C140.732 10.9141 140.591 11.0555 140.544 11.0555C140.451 11.0555 140.309 11.196 140.263 11.196V11.3374C140.309 11.3374 140.451 11.4778 140.544 11.4778C140.591 11.4778 140.732 11.4778 140.826 11.525C141.201 11.8059 141.483 12.2282 141.765 12.6977C142.093 13.3076 142.235 14.1994 142.235 15.1845C142.235 16.6862 142.046 17.7174 141.483 18.3283C141.015 18.9382 140.452 19.3606 139.842 19.4549H136.698V19.4507Z" fill="#1E71B8"/>
<path fill-rule="evenodd" clip-rule="evenodd" d="M136.699 4.06251V6.92237H136.418V10.1606H136.699V13.0686H136.418V16.6809H136.699V19.4496H134.071V4.06251H136.699ZM136.558 24.7984H136.699V27.8008H136.558V24.7984ZM136.699 24.7984H136.558H136.699ZM136.699 30.4752C136.51 29.2082 136.183 27.9894 135.714 26.91C134.963 25.2207 133.791 24.4704 132.008 24.4704V27.3795H132.429C132.571 27.3795 132.758 27.5199 132.899 27.6604C133.274 27.9423 133.603 28.4107 133.883 29.2092C134.166 29.8191 134.305 31.04 134.305 32.5396C134.305 32.8226 134.212 33.1495 134.212 33.5729C134.212 33.947 134.165 34.5569 134.07 35.0736C133.93 35.7306 133.648 36.3406 133.414 36.809C133.131 37.4661 132.663 37.6998 132.006 37.6998V40.5628C133.788 40.5628 134.961 39.8114 135.711 38.1703C136.181 37.137 136.509 35.87 136.697 34.558V30.4752H136.699ZM132.899 7.0649H132.007V4.06146H132.899V7.0649ZM132.007 7.0649H132.899H132.007Z" fill="#1E71B8"/>
<path fill-rule="evenodd" clip-rule="evenodd" d="M125.766 61.063L123.516 50.4608V61.063H121.122V45.5816H124.407L126.611 56.0444L128.723 45.5816H131.96V61.063H129.615V50.4608L127.363 61.063H125.766ZM132.006 4.06252V7.06492H130.178V19.4507H127.785V7.06492H125.015V4.06252H132.006ZM132.006 24.4704V27.3796H131.631C131.396 27.3796 131.209 27.52 131.068 27.6604C130.74 27.9423 130.365 28.4108 130.178 29.2093C129.801 29.9607 129.708 31.0401 129.708 32.5397C129.708 32.8227 129.755 33.1496 129.755 33.4326C129.755 33.8539 129.801 34.1819 129.801 34.5581C129.896 35.3074 130.178 36.0609 130.506 36.763C130.834 37.3729 131.35 37.7009 131.96 37.7009H132.007V40.5639H131.96C130.458 40.5639 129.333 40.0955 128.535 38.8757C127.926 37.5144 127.503 36.0609 127.362 34.4648V34.0435V33.7145H126.096V40.2359H123.797V24.7985H126.096V30.71H127.362C127.362 30.4291 127.409 29.9597 127.503 29.443C127.551 28.9274 127.691 28.3175 127.972 27.8009C128.16 26.9101 128.723 26.1598 129.333 25.4084C129.896 24.7985 130.835 24.4704 131.96 24.4704H132.006ZM119.856 61.063H119.199V58.1549H119.856V61.063ZM119.199 61.063H119.856H119.199ZM119.809 48.6311H119.199V45.5816H119.809V48.6311ZM119.199 48.6311H119.809H119.199ZM119.199 40.2328V37.3718H119.387C119.809 37.3718 120.138 37.0889 120.372 36.8091C120.699 36.6205 120.841 36.0598 120.841 35.3063C120.841 34.557 120.699 34.0414 120.372 33.9471C120.254 33.7844 120.099 33.6525 119.919 33.5628C119.739 33.473 119.541 33.428 119.34 33.4315H119.199V30.4291H119.95C120.982 30.4291 121.732 30.8504 122.202 31.4603C122.623 32.2117 123.046 32.9631 123.092 33.8539C123.188 34.0425 123.235 34.4638 123.235 34.6975V35.4509C123.235 37.2314 122.952 38.4512 122.342 39.2026C121.732 39.954 120.889 40.2338 119.95 40.2338H119.199V40.2328ZM119.199 19.5912C119.481 19.6855 119.762 19.7316 119.997 19.7798H120.279C120.373 19.7798 120.561 19.9202 120.607 19.9202L120.748 19.7798C121.874 19.7798 122.813 19.4518 123.422 18.8408C123.938 18.1837 124.407 17.4334 124.595 16.5416C124.689 16.0721 124.83 15.7441 124.83 15.1814C124.97 14.8533 125.017 14.431 125.017 14.103H122.625C122.625 14.1973 122.625 14.431 122.531 14.5725C122.531 14.8533 122.485 15.1352 122.485 15.3228C122.343 15.7451 122.203 16.0732 121.875 16.4955C121.64 16.6831 121.312 17.1054 120.843 17.1054C120.234 17.1054 119.811 16.6831 119.434 16.2146C119.388 16.0732 119.294 15.9327 119.2 15.7451V19.5912H119.199ZM119.199 7.86242V3.87494C119.637 3.72464 120.096 3.64539 120.559 3.6402H120.7C121.779 3.6402 122.765 4.06253 123.235 4.67244C123.845 5.42277 124.312 6.17311 124.548 7.06492C124.595 7.44009 124.736 7.90957 124.736 8.19042C124.83 8.56559 124.83 8.94076 124.83 9.36414H122.531C122.531 9.22267 122.531 8.94076 122.485 8.80034C122.485 8.56559 122.39 8.3319 122.343 8.18938C122.296 7.81526 122.155 7.43904 121.78 7.2043C121.593 6.78198 121.264 6.6887 120.701 6.6887C120.09 6.68975 119.527 7.11208 119.199 7.86242Z" fill="#1E71B8"/>
<path fill-rule="evenodd" clip-rule="evenodd" d="M119.2 3.87488V7.86236C119.2 7.95668 119.153 8.04994 119.106 8.19037C118.683 9.08323 118.543 10.302 118.543 11.9442V12.9764C118.543 13.3044 118.683 13.82 118.778 14.431C118.872 14.8994 119.013 15.3699 119.2 15.744V19.5901C118.543 19.3553 117.84 18.8858 117.276 18.0422C116.431 17.1033 116.103 14.9927 116.103 12.0835C116.103 9.69105 116.431 7.57941 117.135 6.03157C117.604 4.90607 118.308 4.20289 119.2 3.87488ZM119.2 30.4291V33.4315H117.605V37.3718H119.2V40.2327H115.212V24.7984H117.604V30.4291H119.2ZM119.2 45.5815V48.6311H114.601V51.7749H119.2V54.6359H114.601V58.1539H119.2V61.062H112.163V45.5805H119.2V45.5815ZM86.9688 40.5628V37.6998C87.5787 37.6998 88.1415 37.5133 88.4234 36.8091C88.7514 36.3406 88.9861 35.7307 89.1266 35.0736C89.1737 34.558 89.268 33.9481 89.268 33.573V32.5397C89.268 31.039 89.1266 29.8192 88.8929 29.2093C88.5638 28.4118 88.2819 27.9433 87.8606 27.6604C87.7202 27.52 87.5787 27.3795 87.4865 27.3795H86.9699V24.4704H87.0631C88.7524 24.4704 89.9251 25.2207 90.6765 26.91C91.3797 28.5522 91.802 30.4291 91.802 32.5397C91.802 34.6974 91.4268 36.6215 90.6765 38.1704C90.0194 39.8115 88.7524 40.5628 87.0631 40.5628H86.9688ZM89.3142 7.06486H86.9678V4.06142H89.3142V7.06486ZM86.9688 7.06486H89.3142H86.9688ZM105.922 48.6311H103.106V45.5815H111.082V48.6311H108.268V61.063H105.921V48.6311H105.922ZM107.564 27.8008V40.2327H105.266V24.7984H113.335V40.2327H110.989V27.8008H107.564ZM97.1497 40.2327L94.8987 29.6777V40.2327H92.5534V24.7984H95.7905L97.9483 35.2141L100.107 24.7984H103.344V40.2327H100.999V29.6777L98.7479 40.2327H97.1497ZM110.943 7.06486V19.4507H113.287V7.06486H116.103V4.06246H108.129V7.06486H110.943ZM101.325 12.8349V19.4496H98.9323V4.06246H101.325V9.97295H104.609V4.06246H106.907V19.4507H104.609V12.8349H101.325ZM92.4109 10.1616H97.0083V13.0697H92.4109V16.5415H97.7125V19.4507H90.0184V4.06246H97.6182V7.06486H92.4109V10.1616Z" fill="#1E71B8"/>
<path fill-rule="evenodd" clip-rule="evenodd" d="M86.9684 4.06256V7.06495H85.2791V19.4507H82.9337V4.06256H86.9684ZM86.9684 24.4704V27.3796H86.546C86.3585 27.3796 86.218 27.52 86.0776 27.6604C85.7486 27.9423 85.4205 28.4108 85.1386 29.2093C84.8578 29.9607 84.7163 31.0401 84.7163 32.5397V33.4326C84.7163 33.8538 84.7635 34.1819 84.8578 34.5581C84.9039 35.3074 85.1858 36.0608 85.4666 36.763C85.7957 37.3729 86.3113 37.7009 86.9684 37.7009V40.5639H86.9212C85.2791 40.5639 83.966 39.8125 83.2617 38.1714C82.6057 36.6215 82.2295 34.5591 82.2295 32.5408C82.2295 30.4302 82.5114 28.5533 83.2617 26.9111C83.966 25.2218 85.2791 24.4715 86.9212 24.4715H86.9684V24.4704Z" fill="#1E71B8"/>
<path fill-rule="evenodd" clip-rule="evenodd" d="M81.8542 54.3561V52.1502H79.3213V43.8461C79.7908 44.0348 80.2592 44.2695 80.6344 44.6447C81.2443 45.3468 81.6195 45.9588 81.8542 46.9429V44.1731H86.8278V48.3974L88.2813 44.1731H93.0202V46.5677C95.5541 41.4998 103.107 43.7979 103.107 48.913C103.343 49.3815 103.343 51.6807 103.343 52.1491H98.7452C98.5094 51.2112 98.5094 49.7566 97.759 49.7566C96.446 49.7566 96.6807 56.6543 97.6186 56.6543C98.6037 56.6543 98.5104 55.8086 98.7452 54.3561H103.483C103.483 60.1733 99.965 66.0366 93.7716 61.3931L93.0202 59.9375V62.5187H88.0476L88.1409 58.3907L86.592 62.5187H81.8542V60.1733C81.151 61.3931 80.2592 62.1445 79.3213 62.5187V54.3561H81.8542ZM79.3213 41.5941H84.1534L79.4146 31.8816L84.013 23.2496H79.3213V41.5941ZM79.3213 20.811V2.46753H79.4146L83.402 20.811H79.3213Z" fill="#1E71B8"/>
<path fill-rule="evenodd" clip-rule="evenodd" d="M79.3223 52.1491H78.571C78.4305 51.3055 78.1958 49.7566 77.7273 49.7566C76.7412 49.7566 76.2728 56.7957 77.8206 56.7957C78.4305 56.7957 78.6653 55.1997 78.6653 54.3561H79.3223V62.5186C76.0852 63.8328 72.0034 60.8304 71.6282 55.95C71.2531 52.5253 71.7686 47.0833 74.3016 44.7379C75.381 43.7067 77.5398 43.188 79.3223 43.8451V52.1491ZM79.3223 2.46753V20.811H77.9621L77.5859 17.9018H76.5075L75.9909 20.811H70.5488L74.5363 2.46753H79.3223ZM79.3223 23.2506V41.5941H78.1025L76.976 38.686V41.5941H72.0034V23.2506H76.8827V25.7835L77.8206 23.2506H79.3223Z" fill="#1E71B8"/>
<path fill-rule="evenodd" clip-rule="evenodd" d="M99.4949 55.5287H101.7C101.7 55.95 101.653 56.2801 101.559 56.6992C101.559 57.1698 101.419 57.5921 101.372 58.0626C101.184 58.9534 100.667 59.7509 100.152 60.3587C99.4949 60.9686 98.6031 61.2977 97.5248 61.2977L97.3823 61.4392C97.2418 61.4392 97.1014 61.2977 97.0553 61.2977H96.7734C95.7422 61.2505 94.8504 60.6878 94.0047 59.6094C93.2072 58.5761 92.7859 56.4184 92.7859 53.5575C92.7859 51.165 93.2072 49.0052 93.8643 47.5055C94.5685 45.9116 95.7412 45.1602 97.2418 45.1602H97.4776C98.556 45.1602 99.4478 45.5364 100.012 46.1463C100.621 46.8956 101.089 47.647 101.278 48.5367C101.372 48.9601 101.512 49.4296 101.512 49.6151C101.559 50.0384 101.559 50.4136 101.559 50.7898H99.3084C99.3084 50.6483 99.3084 50.4136 99.2612 50.3193C99.2612 50.0384 99.1669 49.7565 99.1198 49.6151C99.0255 49.2881 98.885 48.9601 98.557 48.6771C98.3694 48.2559 97.9471 48.2087 97.4787 48.2087C96.7744 48.2087 96.1656 48.6771 95.7904 49.6151C95.4614 50.5079 95.3209 51.821 95.3209 53.416V54.4493C95.3209 54.7763 95.4614 55.3401 95.5557 55.95C95.6489 56.5599 95.9308 57.1698 96.2117 57.6854C96.4936 58.201 96.962 58.5761 97.573 58.5761C97.9943 58.5761 98.4166 58.202 98.6042 57.9662C98.9793 57.5921 99.1198 57.1698 99.2612 56.8428C99.2612 56.5599 99.3084 56.2801 99.3084 56.0914C99.3556 55.95 99.3556 55.6702 99.3556 55.5287H99.4949ZM85.2794 55.1996L88.9389 45.5364H91.2852V60.9686H88.9389V51.3065L85.2794 60.9686H82.9812V45.5364H85.2794V55.1996ZM79.4622 55.5287H81.6671C81.6671 55.95 81.5738 56.2801 81.5267 56.6992C81.5267 57.1698 81.3852 57.5921 81.3391 58.0626C81.0572 58.9534 80.6349 59.7509 80.0721 60.3587C79.4622 60.9686 78.5704 61.2977 77.492 61.2977L77.2573 61.4392C77.2101 61.4392 77.0697 61.2977 76.9754 61.2977H76.7407C75.7084 61.2505 74.8177 60.6878 73.972 59.6094C73.1284 58.5761 72.7521 56.4184 72.7521 53.5575C72.7521 51.165 73.1284 49.0052 73.8315 47.5055C74.5347 45.9116 75.7074 45.1602 77.2091 45.1602H77.3495C78.5243 45.1602 79.414 45.5364 79.9306 46.1463C80.5405 46.8956 80.9629 47.647 81.2437 48.5367C81.338 48.9601 81.4785 49.4296 81.4785 49.6151C81.5256 50.0384 81.5256 50.4136 81.5256 50.7898H79.2736C79.2736 50.6483 79.2736 50.4136 79.1793 50.3193C79.1793 50.0384 79.1331 49.7565 79.0388 49.6151C78.9917 49.2881 78.758 48.9601 78.5243 48.6771C78.2885 48.2559 77.8672 48.2087 77.3495 48.2087C76.7396 48.2087 76.0836 48.6771 75.7545 49.6151C75.4276 50.5079 75.2861 51.821 75.2861 53.416V54.4493C75.2861 54.7763 75.4265 55.3401 75.4737 55.95C75.6141 56.5599 75.8488 57.1698 76.1769 57.6854C76.4588 58.201 76.9282 58.5761 77.5382 58.5761C77.9605 58.5761 78.3828 58.202 78.5693 57.9662C78.8974 57.5921 79.0378 57.1698 79.1793 56.8428C79.1793 56.5599 79.2736 56.2801 79.2736 56.0914C79.3207 55.95 79.3207 55.6702 79.3207 55.5287H79.4622ZM75.4747 30.9447L78.5704 24.7051H81.3391L77.6325 31.695L81.5267 40.1394H78.7119L75.4747 32.8687V40.1394H73.1294V24.7051H75.4747V30.9447ZM76.7407 3.92102H77.9144L81.3852 19.3092H78.9917L78.3839 16.5416H76.7407V13.9143H77.9144L76.7407 8.28471V3.92102ZM75.7084 3.92102H76.7407V8.28471L75.568 13.9143H76.7407V16.5416H75.0996L74.5358 19.3092H72.1904L75.568 3.92102H75.7084Z" fill="white"/>
</svg>
