<svg width="36" height="44" viewBox="0 0 36 44" fill="none" xmlns="http://www.w3.org/2000/svg">
<path d="M7.45312 16.1406H10.5781V19.2656H7.45312V16.1406ZM7.45312 25.418V33.2305H13.7031V25.418H10.5781V22.3906H7.45312V25.418ZM11.3594 27.7617V30.8867H9.79688V27.7617H11.3594ZM10.5781 13.0156H13.7031V16.1406H10.5781V13.0156ZM7.45312 9.89062H10.5781V13.0156H7.45312V9.89062ZM10.5781 19.2656H13.7031V22.3906H10.5781V19.2656ZM10.5781 6.76562H13.7031V9.89062H10.5781V6.76562ZM34.7285 11.0918L24.2207 0.583984C23.9277 0.291016 23.5322 0.125 23.1172 0.125H2.375C1.51074 0.125 0.8125 0.823242 0.8125 1.6875V42.3125C0.8125 43.1768 1.51074 43.875 2.375 43.875H33.625C34.4893 43.875 35.1875 43.1768 35.1875 42.3125V12.2002C35.1875 11.7852 35.0215 11.3848 34.7285 11.0918ZM31.584 12.918H22.3945V3.72852L31.584 12.918ZM31.6719 40.3594H4.32812V3.64062H7.45312V6.76562H10.5781V3.64062H19.0742V14.1875C19.0742 14.7314 19.2903 15.253 19.6749 15.6376C20.0595 16.0222 20.5811 16.2383 21.125 16.2383H31.6719V40.3594Z" fill="#BF3D3D"/>
</svg>
