<svg width="36" height="44" viewBox="0 0 36 44" fill="none" xmlns="http://www.w3.org/2000/svg">
<path d="M34.7285 11.0918L24.2207 0.583984C23.9277 0.291016 23.5322 0.125 23.1172 0.125H2.375C1.51074 0.125 0.8125 0.823242 0.8125 1.6875V42.3125C0.8125 43.1768 1.51074 43.875 2.375 43.875H33.625C34.4893 43.875 35.1875 43.1768 35.1875 42.3125V12.2002C35.1875 11.7852 35.0215 11.3848 34.7285 11.0918ZM31.584 12.918H22.3945V3.72852L31.584 12.918ZM31.6719 40.3594H4.32812V3.64062H19.0742V14.1875C19.0742 14.7314 19.2903 15.253 19.6749 15.6376C20.0595 16.0222 20.5811 16.2383 21.125 16.2383H31.6719V40.3594ZM18.7861 20.0469H17.2139C16.9453 20.0469 16.7109 20.2275 16.6475 20.4912L14.2207 30.2031L11.9697 20.501C11.9062 20.2373 11.6719 20.0469 11.3984 20.0469H9.66992C9.58011 20.047 9.49152 20.0678 9.41099 20.1075C9.33045 20.1473 9.26012 20.205 9.2054 20.2762C9.15069 20.3475 9.11305 20.4303 9.09538 20.5184C9.07772 20.6064 9.0805 20.6974 9.10351 20.7842L12.7266 34.2607C12.7949 34.5146 13.0293 34.6953 13.293 34.6953H14.8555C15.1191 34.6953 15.3535 34.5195 15.4219 34.2607L18 24.6416L20.5781 34.2607C20.6465 34.5146 20.8809 34.6953 21.1445 34.6953H22.6973C22.9609 34.6953 23.1953 34.5195 23.2637 34.2607L26.8965 20.7842C26.9193 20.6974 26.9219 20.6065 26.9042 20.5185C26.8864 20.4305 26.8488 20.3478 26.7941 20.2766C26.7394 20.2054 26.6692 20.1477 26.5887 20.1079C26.5083 20.0681 26.4198 20.0472 26.3301 20.0469H24.5918C24.3184 20.0469 24.084 20.2373 24.0205 20.501L21.7842 30.2227L19.3525 20.4912C19.2891 20.2275 19.0547 20.0469 18.7861 20.0469Z" fill="#BF3D3D"/>
</svg>
