<svg width="20" height="20" viewBox="0 0 20 20" fill="none" xmlns="http://www.w3.org/2000/svg">
<path d="M10.0001 6.87531C8.27974 6.87531 6.87583 8.27921 6.87583 9.99952C6.87583 11.7198 8.27974 13.1237 10.0001 13.1237C11.7204 13.1237 13.1243 11.7198 13.1243 9.99952C13.1243 8.27921 11.7204 6.87531 10.0001 6.87531ZM19.3704 9.99952C19.3704 8.70577 19.3821 7.42374 19.3094 6.13234C19.2368 4.63234 18.8946 3.30109 17.7977 2.20421C16.6985 1.10499 15.3696 0.76515 13.8696 0.692494C12.5758 0.619838 11.2938 0.631557 10.0024 0.631557C8.70864 0.631557 7.42661 0.619838 6.13521 0.692494C4.63521 0.76515 3.30396 1.10734 2.20708 2.20421C1.10786 3.30343 0.768019 4.63234 0.695363 6.13234C0.622706 7.42609 0.634425 8.70812 0.634425 9.99952C0.634425 11.2909 0.622706 12.5753 0.695363 13.8667C0.768019 15.3667 1.11021 16.698 2.20708 17.7948C3.3063 18.8941 4.63521 19.2339 6.13521 19.3066C7.42896 19.3792 8.71099 19.3675 10.0024 19.3675C11.2961 19.3675 12.5782 19.3792 13.8696 19.3066C15.3696 19.2339 16.7008 18.8917 17.7977 17.7948C18.8969 16.6956 19.2368 15.3667 19.3094 13.8667C19.3844 12.5753 19.3704 11.2933 19.3704 9.99952ZM10.0001 14.8066C7.3399 14.8066 5.19302 12.6597 5.19302 9.99952C5.19302 7.33937 7.3399 5.19249 10.0001 5.19249C12.6602 5.19249 14.8071 7.33937 14.8071 9.99952C14.8071 12.6597 12.6602 14.8066 10.0001 14.8066ZM15.004 6.11827C14.3829 6.11827 13.8813 5.61671 13.8813 4.99562C13.8813 4.37452 14.3829 3.87296 15.004 3.87296C15.6251 3.87296 16.1266 4.37452 16.1266 4.99562C16.1268 5.1431 16.0979 5.28917 16.0415 5.42546C15.9852 5.56175 15.9025 5.68558 15.7982 5.78987C15.6939 5.89415 15.5701 5.97684 15.4338 6.0332C15.2975 6.08955 15.1514 6.11846 15.004 6.11827Z" fill="#2B2B2B"/>
</svg>
