<svg width="12" height="10" viewBox="0 0 12 10" fill="none" xmlns="http://www.w3.org/2000/svg">
<path fill-rule="evenodd" clip-rule="evenodd" d="M1.68919 2.00043L5.99999 5.018L10.3108 2.00043C10.2371 1.9093 10.1246 1.85039 9.99999 1.85039H1.99999C1.8754 1.85039 1.76291 1.9093 1.68919 2.00043ZM10.4 3.40278L6.34407 6.24193C6.13748 6.38654 5.86251 6.38654 5.65592 6.24193L1.59999 3.40278V8.25039C1.59999 8.46902 1.78136 8.65039 1.99999 8.65039H9.99999C10.2186 8.65039 10.4 8.46902 10.4 8.25039V3.40278ZM0.399994 2.25039C0.399994 1.36902 1.11862 0.650391 1.99999 0.650391H9.99999C10.8814 0.650391 11.6 1.36902 11.6 2.25039V8.25039C11.6 9.13176 10.8814 9.85039 9.99999 9.85039H1.99999C1.11862 9.85039 0.399994 9.13176 0.399994 8.25039V2.25039Z" fill="#BF3D3D"/>
</svg>
