<svg width="34" height="28" viewBox="0 0 34 28" fill="none" xmlns="http://www.w3.org/2000/svg">
<path d="M14.0548 5.06957L11.0385 5.82696M4.4963 7.47174L1 8.34783L10.4815 27L13.9778 26.1239M15.2222 2.13043L14.0572 5.0707L23.5387 23.7229L24.7037 20.7826M15.2222 2.13043L19.3704 1L28.8519 19.6522M15.2222 2.13043L24.7037 20.7826M24.7037 20.7826L28.8519 19.6522M28.8519 19.6522L30.1603 22.0611L30.1615 22.06L33 21.3478L23.5185 2.69565L20.603 3.42478M5.66015 4.53148L4.49511 7.47061L13.9766 26.1228L15.1416 23.1837M5.66015 4.53148L9.8083 3.40104L19.2898 22.0532M5.66015 4.53148L15.1416 23.1837M15.1416 23.1837L19.2898 22.0532M19.2898 22.0532L20.5982 24.461L20.597 24.4622L23.5363 23.7217" stroke="white" stroke-miterlimit="10" stroke-linecap="round" stroke-linejoin="round"/>
</svg>
