<svg width="28" height="26" viewBox="0 0 28 26" fill="none" xmlns="http://www.w3.org/2000/svg">
<path d="M15.4444 13.48H27M15.4444 13.48V25M15.4444 13.48L2.92593 1M27 13.48V25H15.4444M27 13.48L14.4815 1M15.4444 25L13.037 22.6M25.0741 23.08V15.4H17.3704V23.08H25.0741ZM25.0741 23.08L19.2963 17.32M6.2963 15.88H13.037M6.2963 15.88V22.6M6.2963 15.88L1 10.6M13.037 15.88V22.6M13.037 15.88L1 3.88M13.037 22.6H6.2963M6.2963 22.6L1 17.32M8.22222 17.8H11.1111V20.68H8.22222V17.8Z" stroke="white" stroke-miterlimit="10" stroke-linecap="round" stroke-linejoin="round"/>
</svg>
