<svg width="45" height="40" viewBox="0 0 45 40" fill="none" xmlns="http://www.w3.org/2000/svg">
<path d="M1.5 1.99998C0.671572 1.99998 0 2.59694 0 3.33332L0 23.3333C0 24.0697 0.671572 24.6667 1.5 24.6667H6.75C7.57842 24.6667 8.25 24.0697 8.25 23.3333V21.3333C12.24 21.3333 12.09 21.3333 12.3225 21.2667C12.555 21.2 14.37 20.2133 21 16.7667C21.4613 16.5299 21.7468 16.0935 21.75 15.62L21.75 14H25.5C25.9142 14 26.25 13.7015 26.25 13.3333C26.25 12.9651 25.9142 12.6667 25.5 12.6667H21.75V11.0467C21.7468 10.5732 21.4613 10.1367 21 9.89999C14.3625 6.45332 12.45 5.45998 12.315 5.39999C12.18 5.33998 12.315 5.33332 8.2425 5.33332V3.33332C8.2425 2.59694 7.57092 1.99998 6.7425 1.99998H1.5ZM11.25 6.66666V14C11.25 14.3682 11.5858 14.6667 12 14.6667C12.4142 14.6667 12.75 14.3682 12.75 14V7.15999L20.25 11.0467L20.25 15.62L12.75 19.5067V17.3333C12.75 16.9651 12.4142 16.6667 12 16.6667C11.5858 16.6667 11.25 16.9651 11.25 17.3333V20H8.25V6.66666H11.25ZM6.75 3.33332L6.75 23.3333H1.5L1.5 22H3C3.41421 22 3.75 21.7015 3.75 21.3333C3.75 20.9651 3.41421 20.6667 3 20.6667H1.5L1.5 19.3333H3C3.41421 19.3333 3.75 19.0349 3.75 18.6667C3.75 18.2985 3.41421 18 3 18H1.5V16.6667H3C3.41421 16.6667 3.75 16.3682 3.75 16C3.75 15.6318 3.41421 15.3333 3 15.3333H1.5V14H3C3.41421 14 3.75 13.7015 3.75 13.3333C3.75 12.9651 3.41421 12.6667 3 12.6667H1.5V11.3333H3C3.41421 11.3333 3.75 11.0348 3.75 10.6667C3.75 10.2985 3.41421 9.99999 3 9.99999H1.5V8.66666H3C3.41421 8.66666 3.75 8.36818 3.75 7.99999C3.75 7.6318 3.41421 7.33332 3 7.33332H1.5L1.5 5.99999H3C3.41421 5.99999 3.75 5.70151 3.75 5.33332C3.75 4.96513 3.41421 4.66666 3 4.66666H1.5L1.5 3.33332H6.75Z" fill="#BF3D3D"/>
<path d="M28.5 12.6667C28.0858 12.6667 27.75 12.9651 27.75 13.3333C27.75 13.7015 28.0858 14 28.5 14L36.75 14C37.1642 14 37.5 13.7015 37.5 13.3333C37.5 12.9651 37.1642 12.6667 36.75 12.6667L28.5 12.6667Z" fill="#BF3D3D"/>
<path d="M39.75 22.6667C39.75 23.0349 40.0858 23.3333 40.5 23.3333C40.9142 23.3333 41.25 23.0349 41.25 22.6667V16.6667C41.25 16.2985 40.9142 16 40.5 16C40.0858 16 39.75 16.2985 39.75 16.6667V22.6667Z" fill="#BF3D3D"/>
<path d="M39.375 10.4467C39.375 10.1933 39.555 10.54 35.9025 4.91999C35.7685 4.71278 35.5204 4.58483 35.2515 4.58436C34.9826 4.58389 34.7339 4.71095 34.599 4.91769C34.4641 5.12444 34.4635 5.37944 34.5975 5.58666L37.9725 10.78C38.1409 11.0441 38.4888 11.1738 38.8187 11.0954C39.1487 11.0169 39.3774 10.7503 39.375 10.4467Z" fill="#BF3D3D"/>
<path d="M30.75 8.33334C30.6498 8.48702 30.6228 8.66987 30.6749 8.84134C30.727 9.0128 30.8539 9.1587 31.0275 9.24667L36.87 12.2467C37.1025 12.366 37.389 12.3657 37.6213 12.246C37.8535 12.1263 37.9961 11.9053 37.995 11.6667C37.9961 11.4275 37.853 11.2062 37.62 11.0867L31.7775 8.08667C31.6046 7.99764 31.3989 7.97361 31.206 8.01992C31.0131 8.06623 30.849 8.17904 30.75 8.33334Z" fill="#BF3D3D"/>
<path d="M38.0025 15C38.0036 14.7613 37.861 14.5404 37.6288 14.4206C37.3966 14.3009 37.11 14.3007 36.8775 14.42L31.035 17.42C30.8019 17.5391 30.6579 17.7597 30.6574 17.9987C30.6569 18.2377 30.7998 18.4588 31.0324 18.5787C31.265 18.6986 31.5519 18.6991 31.785 18.58L37.6275 15.58C37.8605 15.4604 38.0036 15.2391 38.0025 15Z" fill="#BF3D3D"/>
<path d="M37.9725 15.8866L34.5975 21.08C34.4635 21.2872 34.4641 21.5422 34.599 21.749C34.7339 21.9557 34.9826 22.0828 35.2515 22.0823C35.5204 22.0818 35.7685 21.9539 35.9025 21.7467C39.54 16.1466 39.375 16.4733 39.375 16.22C39.3774 15.9164 39.1487 15.6497 38.8187 15.5713C38.4888 15.4929 38.1409 15.6225 37.9725 15.8866Z" fill="#BF3D3D"/>
<path d="M38.25 0.666668V6C38.25 6.73638 38.9216 7.33334 39.75 7.33334H43.5V32.6667H39.75C38.9216 32.6667 38.25 33.2636 38.25 34V39.3333C38.25 39.7015 38.5858 40 39 40C39.4142 40 39.75 39.7015 39.75 39.3333V34H43.5C44.3284 34 45 33.403 45 32.6667V7.33334C45 6.59695 44.3284 6 43.5 6H39.75V0.666668C39.75 0.298481 39.4142 0 39 0C38.5858 0 38.25 0.298481 38.25 0.666668Z" fill="#BF3D3D"/>
<path d="M41.25 13.3333C41.25 12.9651 40.9142 12.6667 40.5 12.6667C40.0858 12.6667 39.75 12.9651 39.75 13.3333C39.75 13.7015 40.0858 14 40.5 14C40.9142 14 41.25 13.7015 41.25 13.3333Z" fill="#BF3D3D"/>
<path d="M34.5 24C34.5 23.6318 34.1642 23.3333 33.75 23.3333C33.3358 23.3333 33 23.6318 33 24C33 24.3682 33.3358 24.6667 33.75 24.6667C34.1642 24.6667 34.5 24.3682 34.5 24Z" fill="#BF3D3D"/>
<path d="M34.5 2.66666C34.5 2.29848 34.1642 2 33.75 2C33.3358 2 33 2.29848 33 2.66666C33 3.03485 33.3358 3.33332 33.75 3.33332C34.1642 3.33332 34.5 3.03485 34.5 2.66666Z" fill="#BF3D3D"/>
</svg>
