<svg width="47" height="28" viewBox="0 0 47 28" fill="none" xmlns="http://www.w3.org/2000/svg">
<path d="M8.61666 20C7.31877 20 6.26666 20.8954 6.26666 22C6.26666 23.1046 7.31877 24 8.61666 24C9.91454 24 10.9667 23.1046 10.9667 22C10.9667 20.8954 9.91454 20 8.61666 20ZM8.61666 22.6667C8.18406 22.6667 7.83332 22.3682 7.83332 22C7.83332 21.6318 8.18406 21.3333 8.61666 21.3333C9.04925 21.3333 9.39999 21.6318 9.39999 22C9.39999 22.3682 9.04925 22.6667 8.61666 22.6667Z" fill="#BF3D3D"/>
<path d="M21.15 20C19.8521 20 18.8 20.8954 18.8 22C18.8 23.1046 19.8521 24 21.15 24C22.4479 24 23.5 23.1046 23.5 22C23.5 20.8954 22.4479 20 21.15 20ZM21.15 22.6667C20.7174 22.6667 20.3666 22.3682 20.3666 22C20.3666 21.6318 20.7174 21.3333 21.15 21.3333C21.5826 21.3333 21.9333 21.6318 21.9333 22C21.9333 22.3682 21.5826 22.6667 21.15 22.6667Z" fill="#BF3D3D"/>
<path d="M38.3833 20C37.0854 20 36.0333 20.8954 36.0333 22C36.0333 23.1046 37.0854 24 38.3833 24C39.6812 24 40.7333 23.1046 40.7333 22C40.7333 20.8954 39.6812 20 38.3833 20ZM38.3833 22.6667C37.9507 22.6667 37.6 22.3682 37.6 22C37.6 21.6318 37.9507 21.3333 38.3833 21.3333C38.8159 21.3333 39.1666 21.6318 39.1666 22C39.1666 22.3682 38.8159 22.6667 38.3833 22.6667Z" fill="#BF3D3D"/>
<path d="M46.9216 8.36867L43.7883 3.03533C43.6549 2.80825 43.3816 2.66525 43.0833 2.66667H29.7666V0.666667C29.7666 0.2985 29.4159 0 28.9833 0H0.783332C0.350737 0 0 0.2985 0 0.666667V22C0 22.3682 0.350737 22.6667 0.783332 22.6667H3.196C3.62595 25.2145 6.40139 26.9833 9.39519 26.6174C11.8014 26.3233 13.6918 24.7144 14.0373 22.6667H15.7293C16.1593 25.2145 18.9347 26.9833 21.9285 26.6174C24.3347 26.3233 26.2251 24.7145 26.5706 22.6667H32.9626C33.3926 25.2145 36.168 26.9833 39.1618 26.6174C41.568 26.3233 43.4584 24.7144 43.8039 22.6667H46.2166C46.6492 22.6667 46.9999 22.3682 46.9999 22V8.66667C47.0013 8.5635 46.9745 8.4615 46.9216 8.36867ZM8.61666 25.3333C6.45358 25.3333 4.69999 23.8409 4.69999 22C4.69999 20.1591 6.45358 18.6667 8.61666 18.6667C10.7797 18.6667 12.5333 20.1591 12.5333 22C12.5308 23.8401 10.7787 25.3312 8.61666 25.3333ZM21.15 25.3333C18.9869 25.3333 17.2333 23.8409 17.2333 22C17.2333 20.1591 18.9869 18.6667 21.15 18.6667C23.313 18.6667 25.0666 20.1591 25.0666 22C25.0641 23.8401 23.312 25.3312 21.15 25.3333ZM28.2 21.3333H26.5706C26.1407 18.7854 23.3652 17.0167 20.3714 17.3826C17.9652 17.6767 16.0749 19.2855 15.7293 21.3333H14.0373C13.6074 18.7854 10.8319 17.0167 7.83812 17.3826C5.43192 17.6767 3.54154 19.2855 3.196 21.3333H1.56666V16H28.2V21.3333ZM28.2 14.6667H1.56666V1.33333H28.2V14.6667ZM38.3833 25.3333C36.2202 25.3333 34.4666 23.8409 34.4666 22C34.4666 20.1591 36.2202 18.6667 38.3833 18.6667C40.5464 18.6667 42.2999 20.1591 42.2999 22C42.2974 23.8401 40.5453 25.3312 38.3833 25.3333ZM45.4333 16H43.8666V14.6667H45.4333V16ZM45.4333 13.3333H43.0833C42.6507 13.3333 42.2999 13.6318 42.2999 14V16.6667C42.2999 17.0348 42.6507 17.3333 43.0833 17.3333H45.4333V21.3333H43.8039C43.374 18.7854 40.5986 17.0167 37.6048 17.3826C35.1986 17.6767 33.3082 19.2855 32.9626 21.3333H29.7666V4H42.5992L45.4333 8.824V13.3333Z" fill="#BF3D3D"/>
<path d="M43.0049 8.36867L41.4383 5.702C41.3049 5.47492 41.0316 5.33192 40.7333 5.33333H32.1166C31.684 5.33333 31.3333 5.63183 31.3333 6V11.3333C31.3333 11.7015 31.684 12 32.1166 12H42.2999C42.7325 12 43.0833 11.7015 43.0833 11.3333V8.66667C43.0847 8.5635 43.0578 8.4615 43.0049 8.36867ZM41.5166 10.6667H32.9V6.66667H40.2492L41.5166 8.824V10.6667Z" fill="#BF3D3D"/>
<path d="M35.25 13.3333H32.1166C31.684 13.3333 31.3333 13.6318 31.3333 14C31.3333 14.3682 31.684 14.6667 32.1166 14.6667H35.25C35.6826 14.6667 36.0333 14.3682 36.0333 14C36.0333 13.6318 35.6826 13.3333 35.25 13.3333Z" fill="#BF3D3D"/>
<path d="M11.75 5.33333H3.91666C3.48407 5.33333 3.13333 5.63183 3.13333 6C3.13333 6.36817 3.48407 6.66667 3.91666 6.66667H11.75C12.1826 6.66667 12.5333 6.36817 12.5333 6C12.5333 5.63183 12.1826 5.33333 11.75 5.33333Z" fill="#BF3D3D"/>
<path d="M14.8833 8H7.04999C6.6174 8 6.26666 8.2985 6.26666 8.66667C6.26666 9.03483 6.6174 9.33333 7.04999 9.33333H14.8833C15.3159 9.33333 15.6667 9.03483 15.6667 8.66667C15.6667 8.2985 15.3159 8 14.8833 8Z" fill="#BF3D3D"/>
<path d="M25.85 2.66667C25.4174 2.66667 25.0666 2.96517 25.0666 3.33333V4.66667C25.0666 5.03483 25.4174 5.33333 25.85 5.33333C26.2826 5.33333 26.6333 5.03483 26.6333 4.66667V3.33333C26.6333 2.96517 26.2826 2.66667 25.85 2.66667Z" fill="#BF3D3D"/>
<path d="M25.85 6.66667C25.4174 6.66667 25.0666 6.96517 25.0666 7.33333V12.6667C25.0666 13.0348 25.4174 13.3333 25.85 13.3333C26.2826 13.3333 26.6333 13.0348 26.6333 12.6667V7.33333C26.6333 6.96517 26.2826 6.66667 25.85 6.66667Z" fill="#BF3D3D"/>
<path d="M34.4666 26.6667C33.6013 26.6667 32.9 26.0697 32.9 25.3333C32.9 24.9652 32.5492 24.6667 32.1166 24.6667C31.684 24.6667 31.3333 24.9652 31.3333 25.3333C31.3333 26.8061 32.7362 28 34.4666 28C34.8992 28 35.25 27.7015 35.25 27.3333C35.25 26.9652 34.8992 26.6667 34.4666 26.6667Z" fill="#BF3D3D"/>
</svg>
