<svg width="45" height="28" viewBox="0 0 45 28" fill="none" xmlns="http://www.w3.org/2000/svg">
<path d="M45 12.5264C45 11.7125 44.3284 11.0527 43.5 11.0527V2.21068C43.5 1.39676 42.8284 0.736979 41.9999 0.736979H33.75C33.7395 0.736979 33.7313 0.74216 33.7215 0.74285C33.6362 0.743887 33.5516 0.759601 33.4717 0.789305L33.4582 0.794486L30.1942 2.07805C29.6227 2.29961 29.2479 2.84274 29.25 3.44631V3.68429H25.5C25.0857 3.68429 24.75 4.01414 24.75 4.42109C24.75 4.82805 25.0857 5.1579 25.5 5.1579H29.25V5.39587C29.248 5.99927 29.6224 6.54223 30.1935 6.76414L33 7.86715V11.0525H25.5001C25.5001 10.6456 25.1643 10.3157 24.7501 10.3157H23.2501V5.8947C23.2501 5.48775 22.9143 5.1579 22.5001 5.1579H18.0001C17.5859 5.1579 17.2501 5.48775 17.2501 5.8947V10.3157H15.75C15.3358 10.3157 15 10.6456 15 11.0525H9.75006V8.84201H11.25C11.6642 8.84201 12 8.51217 12 8.10521H13.5C14.3285 8.10521 15 7.44542 15 6.63151V2.2105C15 1.39659 14.3285 0.736806 13.5 0.736806H12C12 0.329849 11.6642 0 11.25 0H1.50003C0.671572 0.000259043 0 0.660043 0 1.47387V16.2106C0 16.2283 0.00896484 16.2437 0.010459 16.2614C0.0119531 16.2791 0.00448242 16.2917 0.00667969 16.3079L1.4204 26.7201C1.51928 27.4526 2.1549 27.9998 2.90689 28H8.24994C9.0784 28 9.74997 27.3402 9.74997 26.5263H32.9999C32.9999 27.3402 33.6715 28 34.5 28H42.0929C42.8447 27.9998 43.4802 27.453 43.5794 26.7208L44.9931 16.3079C44.9931 16.2917 44.9887 16.277 44.9894 16.2614C44.9901 16.2459 45 16.2283 45 16.2106V12.5264ZM12 2.21076H13.5V6.63177H12V2.21076ZM34.5 2.21076H41.9999V11.0528H34.5V2.21076ZM30.75 5.39536V3.44718L33 2.56297V6.27956L30.75 5.39536ZM18.75 6.63177H21.7499V10.316H18.75V6.63177ZM16.5 11.7896H24V16.2106H16.5001L16.5 11.7896ZM15 12.5264V15.4737H9.75006V12.5264H15ZM8.25003 26.5263H2.90698L1.60726 16.9474H8.25003V26.5263ZM3.75003 7.36857C3.3358 7.36857 3.00006 7.69842 3.00006 8.10538C3.00006 8.51234 3.3358 8.84219 3.75003 8.84219H8.25003V15.4737H1.50003V1.47387H10.5V7.36857H3.75003ZM33 25.0526H9.74997V20.6316H32.9999V25.0526H33ZM33 19.1579H9.74997V16.9474H14.9999C14.9999 17.3544 15.3357 17.6842 15.7499 17.6842H24.7499C25.1641 17.6842 25.4999 17.3543 25.4999 16.9474H32.9999V19.1579H33ZM42.0937 26.5263H34.5V16.9474H43.3927L42.0937 26.5263ZM43.5 15.4738H25.5V12.5265H43.5V15.4738Z" fill="#BF3D3D"/>
<path d="M16.5 23.5789H30.7499C31.1642 23.5789 31.4999 23.2491 31.4999 22.8421C31.4999 22.4351 31.1642 22.1053 30.7499 22.1053H16.5C16.0857 22.1053 15.75 22.4352 15.75 22.8421C15.75 23.249 16.0858 23.5789 16.5 23.5789Z" fill="#BF3D3D"/>
<path d="M12 23.5789H13.5C13.9142 23.5789 14.25 23.2491 14.25 22.8421C14.25 22.4351 13.9141 22.1053 13.5 22.1053H12C11.5857 22.1053 11.25 22.4352 11.25 22.8421C11.25 23.249 11.5857 23.5789 12 23.5789Z" fill="#BF3D3D"/>
<path d="M21.75 13.2633H18.7501C18.3358 13.2633 18.0001 13.5931 18.0001 14.0001C18.0001 14.407 18.3359 14.7369 18.7501 14.7369H21.75C22.1643 14.7369 22.5 14.407 22.5 14.0001C22.5 13.5931 22.1643 13.2633 21.75 13.2633Z" fill="#BF3D3D"/>
</svg>
