<svg width="10" height="11" viewBox="0 0 10 11" fill="none" xmlns="http://www.w3.org/2000/svg">
<path d="M5 4C4.86739 4 4.74021 4.05268 4.64645 4.14645C4.55268 4.24021 4.5 4.36739 4.5 4.5V6C4.5 6.13261 4.55268 6.25979 4.64645 6.35355C4.74021 6.44732 4.86739 6.5 5 6.5C5.13261 6.5 5.25979 6.44732 5.35355 6.35355C5.44732 6.25979 5.5 6.13261 5.5 6V4.5C5.5 4.36739 5.44732 4.24021 5.35355 4.14645C5.25979 4.05268 5.13261 4 5 4ZM8.5 0.5H1.5C1.10218 0.5 0.720644 0.658035 0.43934 0.93934C0.158035 1.22064 0 1.60218 0 2V7C0 7.39782 0.158035 7.77936 0.43934 8.06066C0.720644 8.34196 1.10218 8.5 1.5 8.5H7.295L9.145 10.355C9.19172 10.4013 9.24713 10.438 9.30805 10.4629C9.36897 10.4878 9.4342 10.5004 9.5 10.5C9.56559 10.5017 9.63066 10.488 9.69 10.46C9.78131 10.4225 9.85947 10.3588 9.91464 10.2769C9.96981 10.1951 9.99951 10.0987 10 10V2C10 1.60218 9.84196 1.22064 9.56066 0.93934C9.27936 0.658035 8.89782 0.5 8.5 0.5ZM9 8.795L7.855 7.645C7.80828 7.59866 7.75287 7.562 7.69195 7.53711C7.63103 7.51223 7.5658 7.49962 7.5 7.5H1.5C1.36739 7.5 1.24021 7.44732 1.14645 7.35355C1.05268 7.25979 1 7.13261 1 7V2C1 1.86739 1.05268 1.74021 1.14645 1.64645C1.24021 1.55268 1.36739 1.5 1.5 1.5H8.5C8.63261 1.5 8.75979 1.55268 8.85355 1.64645C8.94732 1.74021 9 1.86739 9 2V8.795ZM5 2.5C4.90111 2.5 4.80444 2.52932 4.72221 2.58427C4.63999 2.63921 4.5759 2.7173 4.53806 2.80866C4.50022 2.90002 4.49031 3.00055 4.50961 3.09755C4.5289 3.19454 4.57652 3.28363 4.64645 3.35355C4.71637 3.42348 4.80546 3.4711 4.90245 3.49039C4.99945 3.50969 5.09998 3.49978 5.19134 3.46194C5.2827 3.4241 5.36079 3.36001 5.41573 3.27779C5.47068 3.19556 5.5 3.09889 5.5 3C5.5 2.86739 5.44732 2.74021 5.35355 2.64645C5.25979 2.55268 5.13261 2.5 5 2.5Z" fill="#BF3D3D"/>
</svg>
