<svg width="58" height="70" viewBox="0 0 58 70" fill="none" xmlns="http://www.w3.org/2000/svg">
<path d="M53.5421 58.0898C51.9682 53.0521 47.5808 49.2789 42.3658 48.4761L36.5355 47.5797V46.41C40.3347 44.205 43.1381 40.4724 44.0842 36.0511C46.8277 35.6684 48.9548 33.3313 48.9548 30.4839V21.4516H48.8973C48.3734 12.5074 41.7132 5.20145 33.0648 3.69194C32.6753 1.59532 30.8406 0 28.6323 0C26.4239 0 24.5892 1.59532 24.1997 3.69194C15.5513 5.20145 8.89113 12.5074 8.36726 21.4516H8.30968V30.4839C8.30968 33.3313 10.4368 35.6684 13.1803 36.0511C14.1265 40.4724 16.9298 44.205 20.729 46.41V47.5797L14.8987 48.4761C9.68371 49.2789 5.29516 53.0521 3.72242 58.0898L0 70H57.2645L53.5421 58.0898ZM44.3913 33.6779C44.4094 33.3663 44.4387 33.0581 44.4387 32.7419V27.3045C45.7495 27.7719 46.6968 29.0139 46.6968 30.4839C46.6968 31.9708 45.7269 33.224 44.3913 33.6779ZM46.6968 25.9971C46.0374 25.4981 45.2776 25.1244 44.4387 24.9539V23.7097H46.6968V25.9971ZM28.6323 2.25806C29.4813 2.25806 30.214 2.73452 30.599 3.43C30.319 3.41758 30.0436 3.3871 29.7613 3.3871H27.5032C27.221 3.3871 26.9455 3.41758 26.6655 3.43C27.0505 2.73452 27.7832 2.25806 28.6323 2.25806ZM26.9635 5.67113C27.1442 5.66661 27.3215 5.64516 27.5032 5.64516H29.7613C29.9465 5.64516 30.1248 5.66661 30.3077 5.67339C32.6471 9.10113 34.2627 13.0448 34.974 17.1297L37.1994 16.7413C36.5423 12.9613 35.1614 9.29532 33.1902 5.99516C40.5311 7.51032 46.1311 13.7956 46.6392 21.4516H37.6476C37.6306 20.659 37.5923 19.8653 37.5166 19.084L35.2698 19.3019C35.3387 20.011 35.3737 20.7313 35.3895 21.4505H21.884C22.0139 15.7805 23.7605 10.3544 26.9635 5.67113ZM42.0903 23.7097C41.5394 27.5326 38.2505 30.4839 34.2774 30.4839H22.9871C19.014 30.4839 15.7252 27.5326 15.1742 23.7097H42.0903ZM10.5677 23.7097H12.8258V24.9527C11.9869 25.1244 11.2271 25.4969 10.5677 25.996V23.7097ZM10.5677 30.4839C10.5677 29.0139 11.515 27.7719 12.8258 27.3045V32.7419C12.8258 33.0581 12.8552 33.3663 12.8732 33.6779C11.5376 33.224 10.5677 31.9708 10.5677 30.4839ZM10.6242 21.4516C11.1334 13.8013 16.7255 7.52161 24.0574 5.99968C21.2518 10.6773 19.7434 15.9623 19.626 21.4516H10.6242ZM15.0839 32.7419V28.954C16.9479 31.2606 19.7965 32.7419 22.9871 32.7419H34.2774C37.4681 32.7419 40.3166 31.2606 42.1806 28.954V32.7419C42.1806 40.2127 36.1031 46.2903 28.6323 46.2903C21.1615 46.2903 15.0839 40.2127 15.0839 32.7419ZM34.2774 47.4882V48.3835C34.0832 48.9718 32.8966 51.9355 28.6323 51.9355C24.369 51.9355 23.1847 48.9853 22.9871 48.3835V47.4882C24.7427 48.1634 26.6418 48.5484 28.6323 48.5484C30.6227 48.5484 32.5218 48.1634 34.2774 47.4882ZM10.7021 67.7419H3.07097L5.87661 58.7627C7.13323 54.7434 10.5373 51.7108 14.6334 50.8482L11.7555 59.4819L10.7021 67.7419ZM25.2452 67.7419H20.729V65.0164L18.471 62.7584V59.3137L19.6 58.5606V62.0968H26.3742V58.5606L27.5032 59.3137V62.7584L25.2452 65.0164V67.7419ZM38.7935 61.6294L37.6645 62.7584V67.7419H35.4065V62.7584L34.2774 61.6294V60.0555L36.1708 55.3226H36.9002L38.7935 60.0555V61.6294ZM39.9226 67.7419V63.6932L41.0516 62.5642V59.6219L38.4289 53.0645H34.6421L32.0194 59.6219V62.5642L33.1484 63.6932V67.7419H27.5032V65.9513L29.7613 63.6932V58.1056L24.1161 54.3426V59.8387H21.8581V54.3426L16.2129 58.1056V63.6932L18.471 65.9513V67.7419H12.976L13.9334 60.0905L17.1579 50.4147L21.1197 49.805C22.0071 51.7006 24.2832 54.1936 28.6323 54.1936C32.9813 54.1936 35.2574 51.7006 36.1448 49.8039L41.2966 50.5965L44.4602 60.0894L45.4176 67.7419H39.9226ZM46.6877 59.6987L43.8618 51.1655C47.4002 52.3306 50.2589 55.1532 51.3879 58.7627L54.1936 67.7419H47.6937L46.6877 59.6987Z" fill="#BF3D3D"/>
</svg>
