<svg width="70" height="70" viewBox="0 0 70 70" fill="none" xmlns="http://www.w3.org/2000/svg">
<path d="M68.9627 29.4549L63.2813 28.0394C62.5792 25.1738 61.451 22.4512 59.9186 19.9247L62.9347 14.9071C63.2582 14.3692 63.1735 13.68 62.7296 13.236L56.7631 7.26955C56.3193 6.82563 55.63 6.74114 55.092 7.06448L50.0745 10.0806C47.5479 8.54814 44.8255 7.41994 41.9597 6.7179L40.5446 1.03673C40.3928 0.427516 39.8457 0 39.218 0H30.7816C30.1538 0 29.6068 0.427516 29.4549 1.03673L28.0396 6.71817C25.1741 7.42022 22.4512 8.54868 19.9248 10.081L14.9073 7.06475C14.3692 6.74128 13.68 6.82577 13.2362 7.26983L7.26969 13.2362C6.82577 13.6801 6.74128 14.3693 7.06461 14.9073L10.0807 19.9248C8.54827 22.4514 7.42008 25.1738 6.71803 28.0396L1.03673 29.4549C0.427516 29.6066 0 30.1538 0 30.7814V39.2179C0 39.8457 0.427516 40.3927 1.03673 40.5446L6.71817 41.9599C7.42022 44.8255 8.54841 47.5481 10.081 50.0746L7.06475 55.0922C6.74128 55.6303 6.8259 56.3195 7.26983 56.7633L13.2363 62.7298C13.6801 63.1737 14.3694 63.2582 14.9074 62.9348L19.925 59.9186C22.4516 61.451 25.1741 62.5792 28.0397 63.2814L29.455 68.9629C29.6068 69.5721 30.1539 69.9996 30.7817 69.9996H39.2182C39.846 69.9996 40.393 69.5721 40.5449 68.9629L41.9603 63.2814C44.8258 62.5794 47.5484 61.4512 50.075 59.9186L55.0926 62.9348C55.6306 63.2582 56.3198 63.1737 56.7637 62.7298L62.7302 56.7633C63.1741 56.3193 63.2586 55.6301 62.9352 55.0922L59.9191 50.0746C61.4516 47.5481 62.5798 44.8255 63.2818 41.9599L68.9633 40.5446C69.5725 40.3928 70 39.8457 70 39.2179V30.7814C69.9995 30.1538 69.5719 29.6066 68.9627 29.4549ZM67.2651 38.1496L61.8061 39.5095C61.2994 39.6357 60.909 40.0394 60.7997 40.5499C60.1303 43.6772 58.908 46.6267 57.1667 49.3169C56.883 49.7553 56.8737 50.3168 57.1427 50.7641L60.0407 55.5852L55.5852 60.0407L50.7641 57.1427C50.3166 56.8736 49.7551 56.883 49.3169 57.1667C46.6266 58.9081 43.6769 60.1303 40.5499 60.7997C40.0394 60.909 39.6357 61.2994 39.5095 61.8061L38.1496 67.2651H31.8499L30.49 61.8061C30.3638 61.2994 29.96 60.909 29.4495 60.7997C26.3224 60.1303 23.3728 58.9081 20.6825 57.1667C20.2441 56.8829 19.6826 56.8737 19.2354 57.1427L14.4143 60.0407L9.95865 55.5853L12.8568 50.7642C13.1257 50.3169 13.1164 49.7553 12.8327 49.3171C11.0914 46.6267 9.86897 43.6772 9.1996 40.5501C9.09036 40.0395 8.69989 39.6358 8.19322 39.5096L2.73435 38.1496V31.8499L8.19335 30.49C8.70003 30.3638 9.0905 29.96 9.19973 29.4495C9.8691 26.3223 11.0915 23.3727 12.8327 20.6825C13.1164 20.2442 13.1257 19.6827 12.8568 19.2354L9.95865 14.4141L14.4141 9.95865L19.2352 12.8567C19.6827 13.1257 20.2442 13.1163 20.6825 12.8326C23.3726 11.0914 26.3221 9.86897 29.4495 9.1996C29.96 9.09036 30.3638 8.69989 30.49 8.19322L31.8499 2.73435H38.1496L39.5095 8.19335C39.6357 8.70003 40.0394 9.0905 40.5499 9.19973C43.6772 9.8691 46.6267 11.0915 49.3169 12.8327C49.7551 13.1164 50.3168 13.1257 50.7641 12.8568L55.5852 9.95879L60.0407 14.4143L57.1427 19.2354C56.8737 19.6827 56.883 20.2443 57.1667 20.6825C58.908 23.3727 60.1303 26.3223 60.7997 29.4495C60.909 29.96 61.2994 30.3638 61.8061 30.49L67.2651 31.8499V38.1496Z" fill="#BF3D3D"/>
<path d="M34.9997 14.4921C31.8112 14.4921 28.7553 15.2041 25.9167 16.6085C25.24 16.9433 24.9627 17.7633 25.2977 18.4401C25.6325 19.1168 26.4524 19.3942 27.1293 19.0591C29.5875 17.843 32.2356 17.2264 34.9997 17.2264C44.7999 17.2264 52.773 25.1995 52.773 34.9997C52.773 44.7999 44.7999 52.773 34.9997 52.773C25.1995 52.773 17.2264 44.7999 17.2264 34.9997C17.2264 31.8138 18.0787 28.6891 19.6914 25.9635C20.076 25.3137 19.8608 24.4752 19.211 24.0906C18.5613 23.7063 17.7227 23.9212 17.3381 24.571C15.4762 27.718 14.4921 31.3241 14.4921 34.9997C14.4921 46.3076 23.6918 55.5074 34.9997 55.5074C46.3076 55.5074 55.5074 46.3076 55.5074 34.9997C55.5074 23.6918 46.3076 14.4921 34.9997 14.4921Z" fill="#BF3D3D"/>
<path d="M34.9997 25.1561C29.5719 25.1561 25.1561 29.5719 25.1561 34.9997C25.1561 40.4276 29.5719 44.8434 34.9997 44.8434C40.4276 44.8434 44.8434 40.4276 44.8434 34.9997C44.8434 29.5719 40.4276 25.1561 34.9997 25.1561ZM34.9997 42.109C31.0796 42.109 27.8904 38.9198 27.8904 34.9997C27.8904 31.0796 31.0796 27.8904 34.9997 27.8904C38.9198 27.8904 42.109 31.0796 42.109 34.9997C42.109 38.9197 38.9198 42.109 34.9997 42.109Z" fill="#BF3D3D"/>
<path d="M22.9221 20.0278C22.6678 19.7735 22.3151 19.6272 21.9555 19.6272C21.5959 19.6272 21.2432 19.7735 20.9889 20.0278C20.7346 20.2821 20.5883 20.6348 20.5883 20.9944C20.5883 21.3539 20.7346 21.7067 20.9889 21.961C21.2432 22.2153 21.5959 22.3615 21.9555 22.3615C22.3151 22.3615 22.6678 22.2153 22.9221 21.961C23.1764 21.7067 23.3227 21.3539 23.3227 20.9944C23.3227 20.6348 23.1764 20.2821 22.9221 20.0278Z" fill="#BF3D3D"/>
</svg>
