<svg width="70" height="70" viewBox="0 0 70 70" fill="none" xmlns="http://www.w3.org/2000/svg">
<g clip-path="url(#clip0)">
<path d="M68.3772 20.0258C68.3559 20.0113 68.3345 19.997 68.3131 19.983L60.0761 14.4929H60.3174V6.04847C60.3174 5.38227 59.7773 4.84213 59.111 4.84213H53.0793C52.4131 4.84213 51.873 5.38227 51.873 6.04847V9.02212L40.479 1.42213C40.0737 1.15161 39.5453 1.15161 39.14 1.42213L11.3059 19.983C9.58685 21.1035 9.10159 23.4056 10.2221 25.1246C11.3427 26.8436 13.6447 27.3289 15.3637 26.2084C15.3853 26.1943 15.4067 26.18 15.4278 26.1655L19.3016 23.5827V47.0643H16.8889C16.8889 46.3981 16.3487 45.858 15.6825 45.858H6.03174C5.36553 45.858 4.82539 46.3981 4.82539 47.0643H0V49.477H4.82539V61.5405H0V63.9532H4.82539C4.82539 64.6194 5.36553 65.1595 6.03174 65.1595H15.6825C16.3487 65.1595 16.8889 64.6194 16.8889 63.9532V63.4936L25.8955 67.2332C30.8058 69.2368 36.2943 69.2971 41.2475 67.4021L59.8831 60.2979C60.9868 59.8783 61.8748 59.0316 62.3465 57.9492C62.8355 56.8514 62.8611 55.6027 62.4177 54.4858C62.0232 53.4873 61.2758 52.6687 60.3174 52.1852V23.5827L64.191 26.1655C65.8865 27.3215 68.198 26.8842 69.354 25.1888C70.51 23.4933 70.0727 21.1818 68.3772 20.0258ZM14.4762 62.7468H7.23809V48.2706H14.4762V62.7468ZM54.2857 7.25482H57.9047V13.0453L54.2857 10.6326V7.25482ZM60.1401 56.9744C59.9262 57.4662 59.5238 57.8513 59.023 58.0433L40.3873 65.1487C36.0083 66.8256 31.1551 66.773 26.8135 65.0015L16.8889 60.8794V49.477H19.947C23.9471 49.4817 27.8917 50.4131 31.4712 52.1985C32.6537 52.7872 33.9563 53.0944 35.2772 53.096H44.6349C45.6342 53.1019 46.4397 53.9167 46.4338 54.9161C46.429 55.7536 45.85 56.4785 45.0342 56.668C44.8761 56.6825 44.7205 56.7151 44.5601 56.7151H30.1587V59.1278H44.5601C44.5854 59.1278 44.6095 59.1278 44.6349 59.1278C44.659 59.1278 44.6819 59.1205 44.7073 59.1205C45.6645 59.1047 46.6098 58.9049 47.4915 58.5318L57.5778 54.2493C58.0582 54.0442 58.6017 54.0442 59.0821 54.2493C59.5814 54.4615 59.9733 54.8671 60.1678 55.3736C60.3732 55.8895 60.3632 56.4661 60.1401 56.9744ZM44.6349 50.6833H35.2772C34.3307 50.6817 33.3973 50.4617 32.5497 50.0404C29.1684 48.3555 25.4844 47.3642 21.7143 47.1246V21.9723L39.8095 9.90879L57.9047 21.9723V51.7232C57.4685 51.7602 57.0402 51.8627 56.6344 52.0272L48.8125 55.3495C48.8352 55.2025 48.8502 55.0542 48.8571 54.9056C48.8571 52.5737 46.9667 50.6833 44.6349 50.6833ZM66.8679 24.2221V24.2185C66.4446 24.4486 65.9283 24.4239 65.5288 24.1546L40.479 7.45749C40.0737 7.18697 39.5453 7.18697 39.14 7.45749L14.0901 24.1582C13.4906 24.5573 12.6811 24.3948 12.282 23.7952C12.1395 23.5811 12.0635 23.3297 12.0635 23.0725C12.0627 22.6362 12.2806 22.2285 12.6437 21.9867L39.8095 3.87705L66.9752 21.9904C67.3383 22.2322 67.5562 22.6398 67.5555 23.0761C67.5593 23.5568 67.2937 23.9992 66.8679 24.2221Z" fill="#BF3D3D"/>
<path d="M12.0634 57.9216H9.65074V60.3343H12.0634V57.9216Z" fill="#BF3D3D"/>
<path d="M43.2729 34.1497C42.9948 33.2557 42.3633 32.5141 41.5249 32.097L39.1737 30.9208C38.6646 30.6665 38.4582 30.0478 38.7124 29.5387C38.8867 29.1898 39.2432 28.9692 39.6333 28.9689H39.9855C40.554 28.9702 41.0144 29.4306 41.0158 29.9991V30.1752H43.4285V29.9991C43.4229 28.5002 42.4467 27.1778 41.0158 26.7311V25.3498H38.6031V26.7311C36.7937 27.2939 35.7832 29.2168 36.346 31.0262C36.624 31.9202 37.2556 32.6618 38.094 33.0789L40.4452 34.2551C40.9543 34.5094 41.1607 35.1281 40.9064 35.6371C40.7321 35.9861 40.3757 36.2067 39.9855 36.207H39.6333C39.0648 36.2056 38.6044 35.7453 38.6031 35.1768V35.0006H36.1904V35.1768C36.1959 36.6757 37.1722 37.9981 38.6031 38.4448V39.826H41.0158V38.4448C42.8251 37.882 43.8356 35.9591 43.2729 34.1497Z" fill="#BF3D3D"/>
<path d="M39.8095 20.5244C33.15 20.5317 27.7534 25.9284 27.746 32.5879C27.746 39.2504 33.147 44.6514 39.8095 44.6514C46.472 44.6514 51.873 39.2504 51.873 32.5879C51.873 25.9255 46.472 20.5244 39.8095 20.5244ZM39.8095 42.2387C34.4795 42.2387 30.1587 37.9178 30.1587 32.5879C30.1587 27.2579 34.4795 22.9371 39.8095 22.9371C45.137 22.9431 49.4542 27.2604 49.4603 32.5879C49.4603 37.918 45.1394 42.2387 39.8095 42.2387Z" fill="#BF3D3D"/>
<path d="M47.0476 31.3816H44.6349V33.7943H47.0476V31.3816Z" fill="#BF3D3D"/>
<path d="M34.9841 31.3816H32.5714V33.7943H34.9841V31.3816Z" fill="#BF3D3D"/>
</g>
<defs>
<clipPath id="clip0">
<rect width="70" height="70" fill="white"/>
</clipPath>
</defs>
</svg>
