<svg width="70" height="47" viewBox="0 0 70 47" fill="none" xmlns="http://www.w3.org/2000/svg">
<path d="M71 21.0264C71 19.6602 69.9404 18.5527 68.6333 18.5527V3.71078C68.6333 2.34457 67.5737 1.23707 66.2666 1.23707H53.25C53.2335 1.23707 53.2205 1.24577 53.2051 1.24693C53.0704 1.24867 52.937 1.27505 52.811 1.32491L52.7896 1.3336L47.6398 3.48815C46.738 3.86007 46.1467 4.77175 46.15 5.78488V6.18434H40.2333C39.5797 6.18434 39.05 6.73802 39.05 7.42112C39.05 8.10423 39.5797 8.6579 40.2333 8.6579H46.15V9.05736C46.1468 10.0702 46.7376 10.9816 47.6386 11.3541L52.0667 13.2056V18.5524H40.2334C40.2334 17.8693 39.7037 17.3157 39.0501 17.3157H36.6834V9.89468C36.6834 9.21158 36.1537 8.6579 35.5001 8.6579H28.4001C27.7466 8.6579 27.2169 9.21158 27.2169 9.89468V17.3157H24.85C24.1964 17.3157 23.6667 17.8693 23.6667 18.5524H15.3834V14.842H17.75C18.4036 14.842 18.9333 14.2883 18.9333 13.6052H21.3C22.6071 13.6052 23.6667 12.4977 23.6667 11.1315V3.71049C23.6667 2.34427 22.6071 1.23678 21.3 1.23678H18.9333C18.9333 0.553675 18.4036 0 17.75 0H2.36671C1.05959 0.000434823 0 1.10793 0 2.474V27.2106C0 27.2403 0.0141445 27.2663 0.016502 27.296C0.0188594 27.3257 0.00707227 27.3467 0.0105391 27.374L2.24108 44.8517C2.39708 46.0811 3.39996 46.9997 4.58643 47H13.0166C14.3237 47 15.3833 45.8925 15.3833 44.5263H52.0666C52.0666 45.8925 53.1262 47 54.4333 47H66.4133C67.5993 46.9997 68.6021 46.0818 68.7586 44.8528L70.9892 27.374C70.9892 27.3467 70.9821 27.3221 70.9832 27.296C70.9843 27.2699 71 27.2403 71 27.2106V21.0264ZM18.9333 3.71092H21.3V11.1319H18.9333V3.71092ZM54.4333 3.71092H66.2666V18.5529H54.4333V3.71092ZM48.5167 9.05649V5.78633L52.0667 4.30214V10.5407L48.5167 9.05649ZM29.5833 11.1319H34.3166V17.3161H29.5833V11.1319ZM26.0333 19.7897H37.8667V27.2106H26.0334L26.0333 19.7897ZM23.6667 21.0264V25.9737H15.3834V21.0264H23.6667ZM13.0167 44.5263H4.58657L2.53589 28.4474H13.0167V44.5263ZM5.91671 12.3687C5.26315 12.3687 4.73343 12.9224 4.73343 13.6055C4.73343 14.2886 5.26315 14.8422 5.91671 14.8422H13.0167V25.9737H2.36671V2.474H16.5667V12.3687H5.91671ZM52.0667 42.0526H15.3833V34.6316H52.0666V42.0526H52.0667ZM52.0667 32.1579H15.3833V28.4474H23.6666C23.6666 29.1305 24.1963 29.6842 24.8499 29.6842H39.0499C39.7034 29.6842 40.2331 29.1304 40.2331 28.4474H52.0664V32.1579H52.0667ZM66.4145 44.5263H54.4333V28.4474H68.4641L66.4145 44.5263ZM68.6333 25.9739H40.2333V21.0266H68.6333V25.9739Z" fill="#BF3D3D"/>
<path d="M26.0333 39.5789H48.5166C49.1701 39.5789 49.6999 39.0252 49.6999 38.3421C49.6999 37.659 49.1701 37.1053 48.5166 37.1053H26.0333C25.3797 37.1053 24.85 37.6591 24.85 38.3421C24.85 39.0251 25.3799 39.5789 26.0333 39.5789Z" fill="#BF3D3D"/>
<path d="M18.9333 39.5789H21.3C21.9536 39.5789 22.4833 39.0252 22.4833 38.3421C22.4833 37.659 21.9534 37.1053 21.3 37.1053H18.9333C18.2797 37.1053 17.75 37.6591 17.75 38.3421C17.75 39.0251 18.2797 39.5789 18.9333 39.5789Z" fill="#BF3D3D"/>
<path d="M34.3167 22.2634H29.5834C28.9299 22.2634 28.4001 22.817 28.4001 23.5001C28.4001 24.1833 28.93 24.7369 29.5834 24.7369H34.3167C34.9703 24.7369 35.5 24.1833 35.5 23.5001C35.5 22.817 34.9703 22.2634 34.3167 22.2634Z" fill="#BF3D3D"/>
</svg>
