<svg width="70" height="46" viewBox="0 0 70 46" fill="none" xmlns="http://www.w3.org/2000/svg">
<path d="M65.0997 19.631L63.287 12.3801C63.7826 12.2748 64.1544 11.8352 64.1544 11.3084V10.1393C64.1544 7.60098 62.0893 5.53598 59.5511 5.53598H51.2944V3.12453C51.2944 1.87547 50.2783 0.859375 49.0293 0.859375H6.94148C5.69242 0.859375 4.67633 1.87547 4.67633 3.12453V22.9993C4.67633 23.6046 5.16701 24.0954 5.7724 24.0954C6.37766 24.0954 6.86848 23.6047 6.86848 22.9993V3.12453C6.86848 3.0842 6.90115 3.05152 6.94148 3.05152H49.0291C49.0695 3.05152 49.1021 3.0842 49.1021 3.12453V22.9996C49.1021 23.6049 49.5928 24.0957 50.1982 24.0957C50.8035 24.0957 51.2943 23.605 51.2943 22.9996V21.7571H64.2236C64.2247 21.7571 64.2255 21.7574 64.2265 21.7574C64.2276 21.7574 64.2286 21.7572 64.2295 21.7572C65.8205 21.7583 67.1714 22.8026 67.6354 24.2416H64.2273C63.6221 24.2416 63.1313 24.7322 63.1313 25.3376V27.6758C63.1313 29.5695 64.6718 31.11 66.5655 31.11H67.8077V35.9325H64.9418C64.0004 33.2141 61.4162 31.2561 58.3818 31.2561C55.3473 31.2561 52.763 33.2141 51.8217 35.9325H51.294V27.6757C51.294 27.0704 50.8033 26.5796 50.1979 26.5796C49.5927 26.5796 49.1019 27.0703 49.1019 27.6757V35.9322H26.3617C25.4203 33.2139 22.8361 31.2558 19.8017 31.2558C16.7672 31.2558 14.1829 33.2139 13.2416 35.9322H6.94148C6.90115 35.9322 6.86848 35.8996 6.86848 35.8592V33.4479H11.6179C12.2232 33.4479 12.714 32.9572 12.714 32.3519C12.714 31.7465 12.2233 31.2558 11.6179 31.2558H1.09607C0.49082 31.2558 0 31.7465 0 32.3519C0 32.9572 0.490684 33.4479 1.09607 33.4479H4.67647V35.8592C4.67647 37.1083 5.69256 38.1244 6.94162 38.1244H12.8621C12.8618 38.1487 12.8602 38.1729 12.8602 38.1974C12.8602 42.025 15.9742 45.1389 19.8017 45.1389C23.6291 45.1389 26.7431 42.025 26.7431 38.1974C26.7431 38.1728 26.7415 38.1487 26.7412 38.1244H51.4422C51.4419 38.1487 51.4403 38.1729 51.4403 38.1974C51.4403 42.025 54.5543 45.1389 58.3818 45.1389C62.2092 45.1389 65.3233 42.025 65.3233 38.1974C65.3233 38.1728 65.3216 38.1487 65.3214 38.1244H68.9038C69.509 38.1244 69.9999 37.6337 69.9999 37.0283V25.3374C70 22.451 67.8703 20.0528 65.0997 19.631ZM51.2944 7.72799H59.5511C60.8807 7.72799 61.9624 8.80971 61.9624 10.1393V10.2123H51.2944V7.72799ZM51.2944 19.5651V12.4043H61.0336L62.8238 19.5651H51.2944ZM19.8017 42.9471C17.1828 42.9471 15.0522 40.8167 15.0522 38.1977C15.0522 35.5787 17.1828 33.4482 19.8017 33.4482C22.4205 33.4482 24.5511 35.5787 24.5511 38.1977C24.5511 40.8167 22.4205 42.9471 19.8017 42.9471ZM58.3821 42.9471C55.7632 42.9471 53.6326 40.8167 53.6326 38.1977C53.6326 35.5787 55.7632 33.4482 58.3821 33.4482C61.0009 33.4482 63.1315 35.5787 63.1315 38.1977C63.1315 40.8167 61.0009 42.9471 58.3821 42.9471ZM67.808 28.9179H66.5658C65.8808 28.9179 65.3235 28.3606 65.3235 27.6757V26.4334H67.8079L67.808 28.9179Z" fill="#BF3D3D"/>
<path d="M19.8017 35.9324C18.5526 35.9324 17.5366 36.9485 17.5366 38.1975C17.5366 39.4466 18.5526 40.4627 19.8017 40.4627C21.0508 40.4627 22.0669 39.4466 22.0669 38.1975C22.0669 36.9485 21.0508 35.9324 19.8017 35.9324Z" fill="#BF3D3D"/>
<path d="M58.3821 35.9324C57.133 35.9324 56.1169 36.9485 56.1169 38.1975C56.1169 39.4466 57.133 40.4627 58.3821 40.4627C59.6311 40.4627 60.6472 39.4466 60.6472 38.1975C60.6472 36.9485 59.6311 35.9324 58.3821 35.9324Z" fill="#BF3D3D"/>
<path d="M45.5218 31.2561H29.1544C28.5491 31.2561 28.0583 31.7468 28.0583 32.3522C28.0583 32.9576 28.549 33.4483 29.1544 33.4483H45.5218C46.127 33.4483 46.6179 32.9576 46.6179 32.3522C46.6179 31.7468 46.1272 31.2561 45.5218 31.2561Z" fill="#BF3D3D"/>
<path d="M17.4634 26.5799H3.43416C2.82891 26.5799 2.33809 27.0706 2.33809 27.676C2.33809 28.2814 2.82877 28.772 3.43416 28.772H17.4634C18.0687 28.772 18.5595 28.2814 18.5595 27.676C18.5595 27.0706 18.0687 26.5799 17.4634 26.5799Z" fill="#BF3D3D"/>
<path d="M38.1133 11.7026C37.6853 11.2747 36.9912 11.2747 36.5633 11.7027L26.8163 21.4495L21.7458 16.3791C21.3177 15.951 20.6238 15.951 20.1958 16.3791C19.7678 16.8071 19.7678 17.501 20.1958 17.929L26.0414 23.7746C26.2553 23.9887 26.5359 24.0956 26.8163 24.0956C27.0967 24.0956 27.3774 23.9887 27.5912 23.7746L38.1131 13.2527C38.5412 12.8245 38.5412 12.1307 38.1133 11.7026Z" fill="#BF3D3D"/>
</svg>
