<svg width="70" height="70" viewBox="0 0 70 70" fill="none" xmlns="http://www.w3.org/2000/svg">
<path d="M33.1097 70.0068C32.0089 69.8812 30.9025 69.7877 29.8086 69.626C20.5113 68.2498 12.8805 64.0411 6.90938 57.0668C3.77571 53.4059 1.47374 49.1551 0.151503 44.5877C0.105635 44.4314 0.0736666 44.2724 0 43.9745C0.972956 44.7107 1.97927 44.8242 3.03701 44.8162C3.17601 44.8162 3.39562 45.0834 3.45399 45.2691C4.14388 47.2128 5.0186 49.0913 6.06707 50.8807C6.12701 51.015 6.22999 51.1273 6.36101 51.2013C6.49203 51.2753 6.64423 51.3072 6.7954 51.2922C8.96648 51.2668 11.139 51.2668 13.31 51.2588H13.8757C13.2975 49.1131 12.7304 47.0087 12.1341 44.7935C13.1975 44.7935 14.1106 44.7775 15.0197 44.8135C15.1295 44.8135 15.274 45.0808 15.3241 45.2504C15.8726 47.1103 16.4124 48.9737 16.9433 50.8406C17.0309 51.1479 17.1921 51.2548 17.5299 51.2521C22.5855 51.2147 27.6403 51.1844 32.6941 51.1613C32.7969 51.1613 32.8984 51.1439 33.0555 51.1292C33.0652 50.9275 33.0805 50.7284 33.0819 50.5387C33.0944 48.8018 33.1152 47.0648 33.1083 45.3279C33.1083 44.9271 33.2042 44.7561 33.6559 44.7801C34.2981 44.8142 34.9417 44.8142 35.5838 44.7801C36.0188 44.7574 36.1022 44.9271 36.0953 45.3052C36.0605 46.9914 36.0522 48.6775 36.0369 50.3636C36.0369 50.5961 36.0369 50.8286 36.0369 51.1199C36.2468 51.1306 36.4302 51.1493 36.6137 51.1479C41.7732 51.1212 46.9312 51.0878 52.0907 51.0758C52.4937 51.0758 52.6828 50.9515 52.7856 50.5908C53.2735 48.8539 53.7989 47.117 54.2562 45.38C54.3771 44.9164 54.5453 44.7534 55.0429 44.7828C55.8032 44.8256 56.5718 44.7935 57.485 44.7935C56.929 46.9059 56.387 48.9447 55.8296 51.0544H56.3786C58.7582 51.0397 61.1378 51.0157 63.5173 51.0157C63.8982 51.0157 64.1303 50.9101 64.2832 50.5734C65.0755 48.8365 65.8983 47.0996 66.6614 45.352C66.8337 44.9578 66.9838 44.7828 67.4578 44.7775C68.2918 44.7668 69.1257 44.6572 70 44.5864C69.9872 44.6851 69.9677 44.7828 69.9416 44.879C66.2472 57.4542 54.7913 67.3253 41.3492 69.4844C40.0844 69.6875 38.8001 69.7796 37.5241 69.9266C37.3712 69.944 37.2211 69.9814 37.0682 70.0094L33.1097 70.0068ZM35.9994 53.9898V67.0834C36.0542 67.0898 36.1095 67.0925 36.1648 67.0914C36.2857 67.0807 36.4066 67.0647 36.5261 67.0487C39.584 66.6372 42.179 65.2757 44.4724 63.3477C47.426 60.8626 49.5165 57.7709 51.1886 54.3959C51.2441 54.2654 51.2905 54.1315 51.3276 53.9951L35.9994 53.9898ZM32.979 54.0967H18.3652C18.3922 54.2059 18.4261 54.3134 18.4667 54.4187C19.9762 57.4917 21.8623 60.3161 24.4212 62.685C26.7007 64.796 29.311 66.3552 32.4703 66.9418C32.6093 66.9672 32.7608 66.9685 32.9818 66.9872L32.979 54.0967ZM47.1745 64.8909C53.2443 62.6503 58.1633 58.9961 62.0732 53.915C61.8619 53.8936 61.7799 53.8775 61.6979 53.8789C59.474 53.8789 57.2501 53.8789 55.0262 53.9176C54.9182 53.9327 54.8152 53.9715 54.7252 54.0311C54.6353 54.0906 54.5609 54.1693 54.5078 54.261C52.7384 58.1677 50.4686 61.7524 47.2801 64.7493C47.2406 64.7934 47.2052 64.8408 47.1745 64.8909ZM22.0903 64.4994C21.8123 64.2095 21.519 63.9236 21.241 63.6296C18.6863 60.9401 16.7751 57.8591 15.2782 54.5296C15.1309 54.2022 14.9474 54.0886 14.5832 54.094C12.6929 54.1207 10.8012 54.122 8.9095 54.1354C8.74826 54.1354 8.58703 54.1608 8.31599 54.1822C11.9868 58.8652 16.525 62.3016 22.0903 64.4994Z" fill="#BF3D3D"/>
<path d="M36.2773 19.1768C36.2773 19.905 36.2773 20.6037 36.2773 21.3012C36.2704 22.3914 36.269 22.3914 35.1098 22.3901H33.3348V19.1955C33.1041 19.1835 32.9359 19.1674 32.7677 19.1688C27.6611 19.1902 22.5545 19.2182 17.4478 19.2236C17.0142 19.2236 16.839 19.3638 16.732 19.7473C16.5207 20.5049 16.2483 21.2451 16.0273 21.9999C15.9439 22.2832 15.8272 22.4074 15.495 22.4008C14.6471 22.3754 13.7965 22.3927 12.8541 22.3927L13.7603 19.2636C13.5199 19.2636 13.3336 19.2636 13.1474 19.2636C10.9235 19.273 8.69957 19.293 6.47568 19.2837C6.08927 19.2837 5.87661 19.3972 5.71816 19.7326C5.34844 20.5062 4.95508 21.2691 4.54505 22.0227C4.46444 22.1736 4.27541 22.37 4.12807 22.374C3.16346 22.4061 2.19606 22.3901 1.25646 22.3901C5.06906 12.0287 16.8293 0.260515 34.5385 0.00398718C52.4798 -0.247197 64.8072 11.4141 68.9241 22.3887C67.9512 22.3887 66.9782 22.4008 66.0136 22.3727C65.883 22.3727 65.7162 22.179 65.6411 22.0387C65.163 21.1489 64.7196 20.243 64.2289 19.3665C64.1713 19.275 64.0933 19.1969 64.0005 19.1378C63.9078 19.0786 63.8026 19.0399 63.6924 19.0245C61.1739 19.0165 58.6553 19.0378 56.1367 19.0539C56.0332 19.0621 55.9302 19.0755 55.8282 19.094C56.1451 20.1789 56.455 21.2424 56.79 22.3914C55.7726 22.3914 54.8441 22.4021 53.9142 22.3754C53.8141 22.3754 53.6779 22.1629 53.6362 22.0267C53.3582 21.2027 53.0918 20.3739 52.837 19.5402C52.7383 19.2115 52.5882 19.0619 52.1893 19.0659C47.0646 19.1033 41.9413 19.1207 36.8166 19.1447C36.6609 19.1407 36.5094 19.1608 36.2773 19.1768ZM33.4293 2.93135C33.143 2.96475 32.9192 2.98078 32.6996 3.01686C29.8113 3.50319 27.347 4.81389 25.1703 6.65635C22.1125 9.23766 19.965 12.4443 18.2874 15.9689C18.2386 16.0995 18.2001 16.2335 18.172 16.3697C18.4264 16.3697 18.6154 16.3697 18.8058 16.3697C23.4399 16.347 28.0753 16.3136 32.7052 16.3136C33.2514 16.3136 33.3626 16.1492 33.364 15.6616C33.3779 11.6065 33.4182 7.55153 33.4502 3.49651C33.4557 3.3442 33.4404 3.17585 33.4293 2.93135ZM36.401 16.216H51.3567C51.372 16.1158 51.3887 16.0824 51.379 16.0517C51.3401 15.9421 51.297 15.8326 51.2469 15.727C50.0891 13.3408 48.695 11.0935 46.9298 9.076C44.9714 6.83806 42.7072 4.95819 39.8536 3.85191C38.7861 3.43772 37.652 3.18253 36.401 2.80976V16.216ZM62.0968 16.1172C58.1827 11.0213 53.254 7.35245 47.1383 5.00361C47.1925 5.13722 47.1966 5.16929 47.2189 5.18933C50.4686 8.23159 52.7786 11.8697 54.5383 15.8553C54.6676 16.1466 54.8469 16.2 55.1332 16.1973C57.2876 16.1813 59.442 16.1759 61.5936 16.1653C61.7257 16.1706 61.8521 16.1412 62.0968 16.1172ZM7.85588 16.4218H8.58004C10.4898 16.4124 12.3996 16.3911 14.308 16.4058C14.7472 16.4058 14.9334 16.2588 15.1002 15.8793C16.7682 12.0782 18.9323 8.58833 21.9693 5.63825C22.0369 5.54654 22.0964 5.44956 22.1472 5.34832C16.2858 7.80271 11.6018 11.4315 7.85588 16.4218Z" fill="#BF3D3D"/>
<path d="M57.1528 43.3344C54.8413 43.3036 53.122 43.1473 51.4402 42.6596C46.517 41.226 43.8692 37.4489 44.2848 32.5161C44.642 28.2847 46.991 25.5364 51.1038 24.2538C54.9261 23.0633 58.8291 23.0767 62.6153 24.4208C67.4592 26.139 69.3022 30.0323 68.9172 34.4708C68.4877 39.4143 64.8128 42.2909 60.0036 43.0498C58.8777 43.2275 57.7282 43.2783 57.1528 43.3344ZM56.6483 27.0448C53.5445 27.0221 51.5124 28.5373 50.8675 31.4152C50.5477 32.8409 50.5758 34.3185 50.9495 35.7321C51.1582 36.5972 51.5882 37.3985 52.2005 38.0635C53.4987 39.4437 55.1874 39.8084 57.0235 39.7363C59.8771 39.6241 61.823 38.0408 62.3609 35.3486C62.518 34.5289 62.5819 33.6952 62.5513 32.8622C62.4457 29.216 60.2454 27.0729 56.6483 27.0448Z" fill="#BF3D3D"/>
<path d="M38.6193 28.3287C36.9653 27.9546 35.3919 27.5471 33.7949 27.2598C32.2552 26.9711 30.674 26.9525 29.1275 27.205C28.6333 27.291 28.1545 27.4444 27.7056 27.6606C27.094 27.9532 26.8202 28.4796 26.8633 29.149C26.8717 29.4283 26.9718 29.6979 27.1493 29.9192C27.3269 30.1404 27.5726 30.3021 27.8515 30.3809C28.6425 30.6276 29.4471 30.8319 30.2617 30.9928C32.177 31.3936 34.1173 31.6916 36.0104 32.1699C36.8948 32.4136 37.7236 32.8146 38.4539 33.3523C40.0649 34.5054 40.347 36.1915 40.1372 37.9872C39.8592 40.304 38.4817 41.775 36.2453 42.5539C34.2855 43.2367 32.2409 43.3556 30.1852 43.3235C27.4034 43.2674 24.6411 42.8632 21.9679 42.121C21.5509 42.0088 21.43 41.8325 21.4397 41.4276C21.4689 40.2492 21.4495 39.0681 21.4495 37.8068L22.3779 38.1676C24.9132 39.1496 27.5207 39.815 30.2797 39.7335C31.1954 39.6997 32.1015 39.5409 32.9706 39.2618C33.9603 38.9492 34.3244 38.2424 34.1813 37.3552C34.1425 37.0528 34.0109 36.7684 33.8032 36.5383C33.5955 36.3082 33.3211 36.1428 33.0151 36.0633C31.9379 35.7533 30.8343 35.5288 29.7404 35.2696C28.0906 34.8795 26.4046 34.5936 24.802 34.0738C23.0395 33.502 21.7441 32.365 21.3508 30.5038C20.8156 28.008 21.961 25.7073 24.3238 24.5556C25.8764 23.7993 27.5555 23.5455 29.2679 23.4867C32.2882 23.3838 35.2682 23.7285 38.2163 24.3405C38.3678 24.3725 38.5971 24.5609 38.5999 24.6812C38.6305 25.9117 38.6193 27.1449 38.6193 28.3287Z" fill="#BF3D3D"/>
<path d="M15.7646 42.9297H9.66282V23.833H15.7646V42.9297Z" fill="#BF3D3D"/>
</svg>
