<svg width="56" height="70" viewBox="0 0 56 70" fill="none" xmlns="http://www.w3.org/2000/svg">
<path d="M48.4983 9.17129H42.1655V6.33822C42.1655 5.42162 41.1656 5.00502 40.249 5.00502H35.3328C34.1663 1.67194 31.2498 0.00539528 27.9167 0.00539528C24.6203 -0.118531 21.622 1.90272 20.5006 5.00502H15.6677C14.751 5.00502 13.8344 5.42162 13.8344 6.33822V9.17129H7.50146C3.74859 9.21133 0.678352 12.1718 0.501953 15.9207V63.667C0.501953 67.3334 3.83504 69.9998 7.50146 69.9998H48.4983C52.1647 69.9998 55.4978 67.3334 55.4978 63.667V15.9209C55.3214 12.1718 52.2512 9.21133 48.4983 9.17129ZM17.1674 8.3381H21.7504C22.5504 8.24049 23.193 7.63187 23.3337 6.83823C23.8272 4.68922 25.7125 3.14661 27.9167 3.08855C30.1005 3.15474 31.9575 4.70214 32.4163 6.83823C32.5658 7.6593 33.2508 8.27574 34.0829 8.3381H38.8326V15.0043H17.1674V8.3381ZM52.1647 63.6671C52.1647 65.5004 50.3315 66.6669 48.4983 66.6669H7.50146C5.66825 66.6669 3.83504 65.5004 3.83504 63.6671V15.9209C4.00505 14.0127 5.58595 12.5395 7.50146 12.5045H13.8343V16.7542C13.9223 17.6879 14.731 18.3863 15.6675 18.3375H40.2489C41.2026 18.3897 42.0366 17.7008 42.1653 16.7542V12.5044H48.4982C50.4135 12.5395 51.9946 14.0125 52.1646 15.9207L52.1647 63.6671Z" fill="#BF3D3D"/>
<path d="M21.5837 37.2526C20.9587 36.5937 19.921 36.5566 19.2505 37.1694L13.9176 42.2522L11.6677 39.919C11.0427 39.2601 10.005 39.2231 9.33453 39.8358C8.68906 40.512 8.68906 41.576 9.33453 42.2522L12.7509 45.752C13.0466 46.0831 13.4737 46.2662 13.9174 46.252C14.357 46.2458 14.7763 46.066 15.0839 45.752L21.5834 39.5858C22.2278 38.9947 22.2708 37.9931 21.6796 37.3489C21.6493 37.3153 21.6172 37.2832 21.5837 37.2526Z" fill="#BF3D3D"/>
<path d="M45.4986 40.8356H26.3334C25.413 40.8356 24.6669 41.5817 24.6669 42.5021C24.6669 43.4226 25.413 44.1687 26.3334 44.1687H45.4986C46.419 44.1687 47.1651 43.4226 47.1651 42.5021C47.1651 41.5817 46.419 40.8356 45.4986 40.8356Z" fill="#BF3D3D"/>
<path d="M21.5837 23.9202C20.9587 23.2614 19.921 23.2242 19.2505 23.837L13.9176 28.9199L11.6677 26.5867C11.0427 25.9278 10.005 25.8906 9.33453 26.5034C8.68906 27.1796 8.68906 28.2436 9.33453 28.9199L12.7509 32.4196C13.0466 32.7507 13.4737 32.9338 13.9174 32.9196C14.357 32.9134 14.7763 32.7337 15.0839 32.4196L21.5834 26.2535C22.2278 25.6624 22.2708 24.6608 21.6796 24.0166C21.6493 23.9829 21.6172 23.9509 21.5837 23.9202Z" fill="#BF3D3D"/>
<path d="M45.4986 27.5032H26.3334C25.413 27.5032 24.6669 28.2494 24.6669 29.1698C24.6669 30.0902 25.413 30.8363 26.3334 30.8363H45.4986C46.419 30.8363 47.1651 30.0902 47.1651 29.1698C47.1651 28.2494 46.419 27.5032 45.4986 27.5032Z" fill="#BF3D3D"/>
<path d="M21.5837 50.5847C20.9587 49.9259 19.921 49.8889 19.2505 50.5015L13.9176 55.5844L11.6677 53.2512C11.0427 52.5923 10.005 52.5553 9.33453 53.1679C8.68906 53.8441 8.68906 54.9081 9.33453 55.5844L12.7509 59.0841C13.0466 59.4152 13.4737 59.5983 13.9174 59.5841C14.357 59.5779 14.7763 59.3982 15.0839 59.0841L21.5834 52.918C22.2278 52.3269 22.2708 51.3253 21.6796 50.6811C21.6493 50.6476 21.6172 50.6155 21.5837 50.5847Z" fill="#BF3D3D"/>
<path d="M45.4986 54.1679H26.3334C25.413 54.1679 24.6669 54.914 24.6669 55.8345C24.6669 56.7549 25.413 57.501 26.3334 57.501H45.4986C46.419 57.501 47.1651 56.7549 47.1651 55.8345C47.1651 54.914 46.419 54.1679 45.4986 54.1679Z" fill="#BF3D3D"/>
</svg>
