<svg width="70" height="70" viewBox="0 0 70 70" fill="none" xmlns="http://www.w3.org/2000/svg">
<path d="M35 0L0 10.3608V70H70V10.3608L35 0ZM57.6953 65.8984H12.3047V61.7969H57.6953V65.8984ZM57.6953 57.6953H12.3047V53.5938H57.6953V57.6953ZM57.6953 49.4922H12.3047V45.3906H57.6953V49.4922ZM57.6953 41.2891H12.3047V37.1875H57.6953V41.2891ZM65.8984 65.8984H61.7969V33.0859H8.20312V65.8984H4.10156V13.4282L35 4.32537L65.8984 13.4282V65.8984Z" fill="#BF3D3D"/>
<path d="M8.20312 18.0469V30.3516H61.7969V18.0469H8.20312ZM24.7006 26.25H12.3047V22.1484H24.7006V26.25ZM41.198 26.25H28.8021V22.1484H41.198V26.25ZM57.6953 26.25H45.2994V22.1484H57.6953V26.25Z" fill="#BF3D3D"/>
</svg>
