<svg width="58" height="70" viewBox="0 0 58 70" fill="none" xmlns="http://www.w3.org/2000/svg">
<path d="M57.2924 60.7276L50.0557 51.3169C52.4007 50.6082 54.4263 49.0912 55.7808 47.0295C57.485 44.0498 56.7144 40.4133 55.9687 36.9006C55.5179 35.0962 55.248 33.2503 55.1636 31.3911C55.2477 29.5303 55.5174 27.6827 55.9687 25.8768C56.7096 22.3617 57.485 18.7276 55.7808 15.7527C54.016 12.6683 50.4625 11.5267 47.0255 10.4248C45.3146 9.94797 43.6577 9.29161 42.0818 8.46638C40.6517 7.52807 39.3239 6.4394 38.1203 5.2184C35.5706 2.82452 32.6795 0.114258 28.9999 0.114258C25.3204 0.114258 22.4293 2.82452 19.8783 5.2172C18.6752 6.4385 17.3477 7.52762 15.9181 8.46638C14.3423 9.28995 12.6858 9.94466 10.9755 10.42C7.53858 11.5219 3.98507 12.6635 2.22021 15.7479C0.516007 18.7276 1.28665 22.3641 2.03231 25.8768C2.48319 27.6828 2.75256 29.5303 2.83625 31.3911C2.75211 33.2519 2.48245 35.0995 2.03112 36.9055C1.29021 40.4205 0.514817 44.0546 2.21902 47.0295C3.57537 49.092 5.60321 50.6085 7.95006 51.3157L0.707477 60.7264C0.304319 61.2509 0.397824 62.0066 0.916489 62.4144C1.16564 62.6104 1.48139 62.698 1.79446 62.6583L10.2977 61.5841L12.3967 69.0135C12.5196 69.449 12.874 69.7777 13.3136 69.864C13.3881 69.8783 13.4638 69.8857 13.5396 69.8857C13.9068 69.886 14.2536 69.7146 14.4791 69.4213L22.0737 59.5403C23.9426 61.3806 26.3975 62.4893 28.9999 62.668C31.6023 62.4893 34.0573 61.3806 35.9262 59.5403L43.5208 69.4177C43.7455 69.7123 44.0924 69.8851 44.4603 69.8857C44.5361 69.8857 44.6118 69.8783 44.6862 69.864C45.1258 69.7777 45.4802 69.449 45.6032 69.0135L47.7022 61.5853L56.2054 62.6595C56.8571 62.7422 57.4517 62.2749 57.5335 61.6157C57.5727 61.299 57.4861 60.9796 57.2924 60.7276ZM14.0391 66.0735L12.3039 59.9312C12.1426 59.3615 11.595 58.9955 11.0136 59.0687L4.35374 59.9108L10.3226 52.1493L10.9803 52.3622C12.689 52.8379 14.3438 53.4926 15.9181 54.3158C17.3482 55.2541 18.676 56.3428 19.8795 57.5638L20.2886 57.9464L14.0391 66.0735ZM28.9999 60.262C26.2527 60.262 23.942 58.0967 21.4945 55.8015C20.163 54.4558 18.6922 53.2593 17.1073 52.2323C15.3831 51.3193 13.568 50.5934 11.6927 50.067C8.54945 49.0577 5.57987 48.105 4.27644 45.8266C3.03248 43.6504 3.67468 40.6178 4.35612 37.4059C4.84654 35.4362 5.13434 33.4206 5.21477 31.3911C5.13479 29.3616 4.84743 27.346 4.35731 25.3763C3.67587 22.1656 3.03367 19.133 4.27763 16.9556C5.58581 14.6772 8.55063 13.7245 11.6938 12.7152C13.5689 12.1886 15.3834 11.4628 17.1073 10.5499C18.6917 9.52288 20.1623 8.32623 21.4933 6.98073C23.942 4.68549 26.2527 2.52017 28.9999 2.52017C31.7471 2.52017 34.0578 4.68549 36.5053 6.98073C37.8369 8.32639 39.3077 9.52288 40.8925 10.5499C42.6168 11.4629 44.4319 12.1888 46.3072 12.7152C49.4504 13.7245 52.42 14.6772 53.7234 16.9556C54.9674 19.1318 54.3252 22.1644 53.6437 25.3763C53.1533 27.346 52.8655 29.3616 52.7851 31.3911C52.8651 33.4206 53.1524 35.4362 53.6425 37.4059C54.324 40.6166 54.9662 43.6492 53.7222 45.8266C52.414 48.105 49.4492 49.0577 46.306 50.067C44.431 50.5936 42.6165 51.3194 40.8925 52.2323C39.3081 53.2593 37.8376 54.456 36.5065 55.8015C34.0578 58.0967 31.7471 60.262 28.9999 60.262ZM46.9922 59.0687C46.4108 58.9955 45.8632 59.3615 45.7019 59.9312L43.9608 66.0735L37.7124 57.9476L38.1215 57.565C39.3246 56.3437 40.6521 55.2546 42.0818 54.3158C43.6575 53.4923 45.314 52.8376 47.0243 52.3622L47.682 52.1493L53.6521 59.9108L46.9922 59.0687Z" fill="#BF3D3D"/>
<path d="M28.9998 9.7379C17.1772 9.7379 7.59315 19.4324 7.59315 31.3911C7.59315 43.3498 17.1772 53.0443 28.9998 53.0443C40.8224 53.0443 50.4064 43.3498 50.4064 31.3911C50.3928 19.4381 40.8167 9.75189 28.9998 9.7379ZM28.9998 50.6384C18.4909 50.6384 9.97166 42.021 9.97166 31.3911C9.97166 20.7612 18.4909 12.1438 28.9998 12.1438C39.5087 12.1438 48.0279 20.7612 48.0279 31.3911C48.0154 42.0159 39.5036 50.6258 28.9998 50.6384Z" fill="#BF3D3D"/>
<path d="M42.7213 26.3664C42.2738 25.7446 41.5597 25.3766 40.7994 25.3763H33.5188L31.2592 18.3667C30.8491 17.1043 29.5049 16.4175 28.2569 16.8323C27.5391 17.071 26.9759 17.6406 26.74 18.3667L24.4864 25.3763H17.1998C15.8861 25.3757 14.8207 26.4522 14.8201 27.781C14.8196 28.5509 15.1836 29.2743 15.7988 29.7274L21.6928 34.058L19.4415 41.0677C19.0354 42.3314 19.7191 43.6888 20.9683 44.0994C21.6927 44.3376 22.4859 44.2104 23.1021 43.7575L28.9996 39.428L34.8948 43.7587C35.7252 44.3827 36.8615 44.3827 37.6919 43.7587C38.5346 43.1528 38.8855 42.0599 38.5553 41.0689L36.304 34.058L42.198 29.7274C43.2602 28.9455 43.4944 27.4406 42.7213 26.3664ZM34.2062 32.6265C33.7891 32.9331 33.6147 33.4767 33.7745 33.9726L36.2933 41.8135L29.6989 36.968C29.2822 36.662 28.7182 36.662 28.3015 36.968L21.7071 41.8135L24.2247 33.9726C24.384 33.477 24.2097 32.9342 23.793 32.6277L17.1998 27.7822H25.3498C25.865 27.7822 26.3216 27.4466 26.4808 26.951L28.9996 19.1101L31.5185 26.9498C31.6777 27.4454 32.1342 27.781 32.6494 27.781L40.7994 27.7822L34.2062 32.6265Z" fill="#BF3D3D"/>
</svg>
