<svg width="62" height="70" viewBox="0 0 62 70" fill="none" xmlns="http://www.w3.org/2000/svg">
<path d="M54.1532 18.9853L56.1355 17.003L57.1025 17.97C57.5029 18.3705 58.0278 18.5708 58.5525 18.5708C59.0772 18.5708 59.6022 18.3705 60.0026 17.97C60.8035 17.1693 60.8035 15.8707 60.0026 15.0698L55.1683 10.2354C54.3677 9.43469 53.0691 9.43455 52.2681 10.2354C51.4672 11.0362 51.4672 12.3348 52.2681 13.1357L53.2351 14.1027L51.2528 16.085C47.2017 12.5311 42.3645 10.1418 37.1523 9.08934V4.10156H37.8359C38.9685 4.10156 39.8867 3.18336 39.8867 2.05078C39.8867 0.918203 38.9685 0 37.8359 0H24.1641C23.0315 0 22.1133 0.918203 22.1133 2.05078C22.1133 3.18336 23.0315 4.10156 24.1641 4.10156H24.8477V9.08934C19.6355 10.1418 14.7983 12.5311 10.747 16.0851L8.76475 14.1028L9.73176 13.1358C10.5327 12.3349 10.5327 11.0365 9.73176 10.2356C8.931 9.43469 7.63244 9.43469 6.83154 10.2356L1.99717 15.07C1.19627 15.8709 1.19627 17.1693 1.99717 17.9702C2.39762 18.3706 2.92248 18.5709 3.44721 18.5709C3.97193 18.5709 4.49693 18.3708 4.89725 17.9702L5.86426 17.0032L7.84654 18.9855C2.92672 24.5938 0.238281 31.7089 0.238281 39.2383C0.238281 47.4551 3.43805 55.18 9.24818 60.9901C15.0583 66.8002 22.7832 70 31 70C39.2168 70 46.9417 66.8002 52.7518 60.9901C58.562 55.18 61.7617 47.4551 61.7617 39.2383C61.7617 31.709 59.0733 24.5938 54.1532 18.9853ZM28.9492 4.10156H33.0508V8.54547C32.371 8.5009 31.6874 8.47656 31 8.47656C30.3126 8.47656 29.629 8.5009 28.9492 8.54547V4.10156ZM31 65.8984C16.2996 65.8984 4.33984 53.9387 4.33984 39.2383C4.33984 24.5379 16.2996 12.5781 31 12.5781C45.7004 12.5781 57.6602 24.5379 57.6602 39.2383C57.6602 53.9387 45.7004 65.8984 31 65.8984Z" fill="#BF3D3D"/>
<path d="M31 20.7812C32.1326 20.7812 33.0508 19.8631 33.0508 18.7305C33.0508 17.5979 32.1326 16.6797 31 16.6797C29.8674 16.6797 28.9492 17.5979 28.9492 18.7305C28.9492 19.8631 29.8674 20.7812 31 20.7812Z" fill="#BF3D3D"/>
<path d="M31 61.7969C32.1326 61.7969 33.0508 60.8787 33.0508 59.7461C33.0508 58.6135 32.1326 57.6953 31 57.6953C29.8674 57.6953 28.9492 58.6135 28.9492 59.7461C28.9492 60.8787 29.8674 61.7969 31 61.7969Z" fill="#BF3D3D"/>
<path d="M22.7333 22.0111C23.0266 20.917 22.3775 19.7923 21.2834 19.4989C20.1893 19.2056 19.0645 19.8547 18.7712 20.9488C18.4778 22.0429 19.1269 23.1677 20.2211 23.461C21.3152 23.7544 22.4399 23.1052 22.7333 22.0111Z" fill="#BF3D3D"/>
<path d="M40.2285 55.2225C39.2477 55.7888 38.9115 57.0431 39.4779 58.0239C40.0442 59.0047 41.2985 59.3409 42.2793 58.7745C43.2601 58.2082 43.5963 56.9539 43.0299 55.9731C42.4636 54.9923 41.2093 54.6562 40.2285 55.2225Z" fill="#BF3D3D"/>
<path d="M13.7774 30.9645C14.8715 30.6712 15.5206 29.5464 15.2273 28.4523C14.9339 27.3582 13.8092 26.7091 12.7151 27.0024C11.621 27.2958 10.9718 28.4205 11.2652 29.5146C11.5585 30.6087 12.6833 31.2579 13.7774 30.9645Z" fill="#BF3D3D"/>
<path d="M49.7857 47.7162C48.8049 47.1499 47.5506 47.486 46.9843 48.4668C46.418 49.4476 46.7541 50.7019 47.7349 51.2681C48.7157 51.8344 49.97 51.4984 50.5363 50.5176C51.1026 49.5367 50.7665 48.2825 49.7857 47.7162Z" fill="#BF3D3D"/>
<path d="M10.4922 41.2891C11.6248 41.2891 12.543 40.3709 12.543 39.2383C12.543 38.1057 11.6248 37.1875 10.4922 37.1875C9.35957 37.1875 8.44141 38.1057 8.44141 39.2383C8.44141 40.3709 9.35957 41.2891 10.4922 41.2891Z" fill="#BF3D3D"/>
<path d="M51.5078 41.2891C52.6404 41.2891 53.5586 40.3709 53.5586 39.2383C53.5586 38.1057 52.6404 37.1875 51.5078 37.1875C50.3752 37.1875 49.457 38.1057 49.457 39.2383C49.457 40.3709 50.3752 41.2891 51.5078 41.2891Z" fill="#BF3D3D"/>
<path d="M15.2276 50.031C15.5209 48.9369 14.8718 47.8122 13.7777 47.5188C12.6836 47.2255 11.5588 47.8746 11.2655 48.9687C10.9721 50.0628 11.6212 51.1876 12.7154 51.4809C13.8095 51.7743 14.9342 51.1251 15.2276 50.031Z" fill="#BF3D3D"/>
<path d="M49.7857 30.7603C50.7665 30.194 51.1027 28.9398 50.5363 27.959C49.97 26.9781 48.7157 26.642 47.7349 27.2084C46.7541 27.7747 46.4179 29.0289 46.9843 30.0097C47.5506 30.9906 48.8047 31.3268 49.7857 30.7603Z" fill="#BF3D3D"/>
<path d="M21.2894 58.9794C22.3835 58.686 23.0327 57.5613 22.7393 56.4672C22.446 55.3731 21.3212 54.7239 20.2271 55.0173C19.133 55.3106 18.4839 56.4354 18.7772 57.5295C19.0706 58.6236 20.1953 59.2727 21.2894 58.9794Z" fill="#BF3D3D"/>
<path d="M42.2793 19.702C41.2985 19.1357 40.0442 19.4717 39.4779 20.4526C38.9116 21.4334 39.2477 22.6876 40.2285 23.2539C41.2093 23.8202 42.4636 23.4842 43.0299 22.5033C43.5963 21.5225 43.2601 20.2683 42.2793 19.702Z" fill="#BF3D3D"/>
<path d="M31 33.0859C29.4765 33.0859 28.0817 33.6437 27.006 34.5643L21.3693 31.3099C20.3882 30.7434 19.1339 31.0796 18.5679 32.0605C18.0016 33.0414 18.3377 34.2956 19.3185 34.8619L24.9524 38.1146C24.8847 38.4792 24.8477 38.8544 24.8477 39.2383C24.8477 42.6307 27.6076 45.3906 31 45.3906C34.3924 45.3906 37.1523 42.6307 37.1523 39.2383C37.1523 35.8459 34.3924 33.0859 31 33.0859ZM31 41.2891C29.8692 41.2891 28.9492 40.3691 28.9492 39.2383C28.9492 38.925 29.022 38.6292 29.148 38.3633C29.1797 38.3175 29.2104 38.2704 29.2387 38.2214C29.2668 38.1726 29.2912 38.1225 29.3149 38.0725C29.6855 37.5384 30.3022 37.1875 31 37.1875C32.1308 37.1875 33.0508 38.1075 33.0508 39.2383C33.0508 40.3691 32.1308 41.2891 31 41.2891Z" fill="#BF3D3D"/>
</svg>
