<svg width="62" height="70" viewBox="0 0 62 70" fill="none" xmlns="http://www.w3.org/2000/svg">
<path d="M60.1908 43.3398C61.167 42.2502 61.7617 40.8119 61.7617 39.2383C61.7617 35.8463 59.0014 33.0859 55.6094 33.0859H43.6684C44.851 29.4971 45.3555 24.7352 45.3555 22.6939V20.6445C45.3555 16.1219 41.675 12.4414 37.1523 12.4414H35.1016C34.1609 12.4414 33.3406 13.0813 33.1123 13.9945L31.9953 18.4639C30.4299 24.7229 25.4602 31.6285 20.3168 32.8836C19.4158 30.6031 17.1914 28.9844 14.5938 28.9844H2.28906C1.15703 28.9844 0.238281 29.9031 0.238281 31.0352V67.9492C0.238281 69.0813 1.15703 70 2.28906 70H14.5938C17.0396 70 19.1561 68.5658 20.1473 66.4932L27.1938 68.842C29.4975 69.6104 31.8982 70 34.3277 70H51.5078C54.8998 70 57.6602 67.2396 57.6602 63.8477C57.6602 63.0479 57.507 62.2822 57.2281 61.5809C59.8367 60.8686 61.7617 58.4773 61.7617 55.6445C61.7617 54.0709 61.167 52.6326 60.1908 51.543C61.167 50.4533 61.7617 49.015 61.7617 47.4414C61.7617 45.8678 61.167 44.4295 60.1908 43.3398ZM16.6445 63.8477C16.6445 64.9783 15.7244 65.8984 14.5938 65.8984H4.33984V33.0859H14.5938C15.7244 33.0859 16.6445 34.0061 16.6445 35.1367V63.8477ZM51.5078 45.3906H55.6094C56.74 45.3906 57.6602 46.3107 57.6602 47.4414C57.6602 48.5721 56.74 49.4922 55.6094 49.4922H51.5078C50.3758 49.4922 49.457 50.4109 49.457 51.543C49.457 52.675 50.3758 53.5938 51.5078 53.5938H55.6094C56.74 53.5938 57.6602 54.5139 57.6602 55.6445C57.6602 56.7752 56.74 57.6953 55.6094 57.6953H51.5078C50.3758 57.6953 49.457 58.6141 49.457 59.7461C49.457 60.8781 50.3758 61.7969 51.5078 61.7969C52.6385 61.7969 53.5586 62.717 53.5586 63.8477C53.5586 64.9783 52.6385 65.8984 51.5078 65.8984H34.3277C32.3398 65.8984 30.3752 65.5799 28.4898 64.951L20.7461 62.3697V36.9934C23.9631 36.3822 27.1117 34.3451 29.9541 31.0105C32.7295 27.7539 34.9799 23.4363 35.9738 19.4592L36.7025 16.543H37.1523C39.4137 16.543 41.2539 18.3832 41.2539 20.6445V22.6939C41.2539 25.4475 40.3926 30.7289 39.2906 33.0859H35.1016C33.9695 33.0859 33.0508 34.0047 33.0508 35.1367C33.0508 36.2687 33.9695 37.1875 35.1016 37.1875H55.6094C56.74 37.1875 57.6602 38.1076 57.6602 39.2383C57.6602 40.3689 56.74 41.2891 55.6094 41.2891H51.5078C50.3758 41.2891 49.457 42.2078 49.457 43.3398C49.457 44.4719 50.3758 45.3906 51.5078 45.3906Z" fill="#BF3D3D"/>
<path d="M10.4922 61.7969C11.6248 61.7969 12.543 60.8787 12.543 59.7461C12.543 58.6135 11.6248 57.6953 10.4922 57.6953C9.35957 57.6953 8.44141 58.6135 8.44141 59.7461C8.44141 60.8787 9.35957 61.7969 10.4922 61.7969Z" fill="#BF3D3D"/>
<path d="M39.2031 0C38.0705 0 37.1523 0.918203 37.1523 2.05078V6.28906C37.1523 7.42164 38.0705 8.33984 39.2031 8.33984C40.3357 8.33984 41.2539 7.42164 41.2539 6.28906V2.05078C41.2539 0.918203 40.3357 0 39.2031 0Z" fill="#BF3D3D"/>
<path d="M30.5023 9.04367L27.6021 6.14345C26.8014 5.34256 25.5028 5.34256 24.7019 6.14345C23.901 6.94435 23.901 8.24277 24.7019 9.04367L27.6021 11.9439C28.4029 12.7446 29.7016 12.7448 30.5023 11.9439C31.3032 11.143 31.3032 9.84457 30.5023 9.04367Z" fill="#BF3D3D"/>
<path d="M53.7043 6.14345C52.9035 5.34256 51.605 5.34256 50.8041 6.14345L47.9039 9.04353C47.103 9.84443 47.103 11.1429 47.9039 11.9437C48.7046 12.7446 50.0032 12.7448 50.8041 11.9439L53.7043 9.04367C54.5052 8.24277 54.5052 6.94435 53.7043 6.14345Z" fill="#BF3D3D"/>
</svg>
