<svg width="80" height="81" viewBox="0 0 80 81" fill="none" xmlns="http://www.w3.org/2000/svg">
<path d="M23.247 5.89873C21.9121 5.90063 20.6324 6.43184 19.6886 7.37587C18.7449 8.31991 18.214 9.59971 18.2124 10.9346C18.2124 11.2362 18.3322 11.5254 18.5455 11.7387C18.7587 11.9519 19.048 12.0717 19.3496 12.0717C19.6511 12.0717 19.9404 11.9519 20.1536 11.7387C20.3669 11.5254 20.4867 11.2362 20.4867 10.9346C20.4874 10.2024 20.7785 9.50036 21.2963 8.98261C21.8141 8.46486 22.5161 8.17368 23.2483 8.173H30.6487C30.9503 8.173 31.2396 8.05319 31.4528 7.83994C31.6661 7.62669 31.7859 7.33745 31.7859 7.03587C31.7859 6.73428 31.6661 6.44505 31.4528 6.23179C31.2396 6.01854 30.9503 5.89873 30.6487 5.89873H23.247Z" fill="#BF3D3D"/>
<path d="M37.4609 5.89873H35.4465C35.1449 5.89873 34.8557 6.01854 34.6424 6.23179C34.4292 6.44505 34.3094 6.73428 34.3094 7.03587C34.3094 7.33745 34.4292 7.62669 34.6424 7.83994C34.8557 8.05319 35.1449 8.173 35.4465 8.173H37.4609C37.7624 8.173 38.0517 8.05319 38.2649 7.83994C38.4782 7.62669 38.598 7.33745 38.598 7.03587C38.598 6.73428 38.4782 6.44505 38.2649 6.23179C38.0517 6.01854 37.7624 5.89873 37.4609 5.89873Z" fill="#BF3D3D"/>
<path d="M31.2172 4.27426H37.461C37.7626 4.27426 38.0518 4.15446 38.2651 3.9412C38.4783 3.72795 38.5981 3.43872 38.5981 3.13713C38.5981 2.83555 38.4783 2.54631 38.2651 2.33306C38.0518 2.1198 37.7626 2 37.461 2H31.2172C30.9156 2 30.6264 2.1198 30.4131 2.33306C30.1998 2.54631 30.08 2.83555 30.08 3.13713C30.08 3.43872 30.1998 3.72795 30.4131 3.9412C30.6264 4.15446 30.9156 4.27426 31.2172 4.27426Z" fill="#BF3D3D"/>
<path d="M15.4495 12.0717C15.599 12.072 15.747 12.0428 15.8852 11.9857C16.0233 11.9287 16.1489 11.8449 16.2546 11.7393C16.3604 11.6337 16.4442 11.5082 16.5014 11.3702C16.5586 11.2321 16.588 11.0841 16.588 10.9346C16.5898 9.16897 17.292 7.47619 18.5404 6.22758C19.7887 4.97897 21.4814 4.2765 23.247 4.27426H26.249C26.5506 4.27426 26.8398 4.15446 27.0531 3.9412C27.2663 3.72795 27.3861 3.43872 27.3861 3.13713C27.3861 2.83555 27.2663 2.54631 27.0531 2.33306C26.8398 2.1198 26.5506 2 26.249 2H23.247C20.8784 2.00292 18.6077 2.94523 16.933 4.62019C15.2582 6.29516 14.3163 8.56601 14.3137 10.9346C14.3136 11.0838 14.3429 11.2316 14.4 11.3696C14.457 11.5075 14.5406 11.6328 14.6461 11.7384C14.7516 11.844 14.8768 11.9278 15.0147 11.985C15.1525 12.0422 15.3003 12.0716 15.4495 12.0717Z" fill="#BF3D3D"/>
<path d="M52.8284 5.89873C51.4932 5.90028 50.2133 6.43134 49.2692 7.37542C48.3251 8.31949 47.794 9.59948 47.7925 10.9346C47.7925 11.2362 47.9123 11.5254 48.1256 11.7387C48.3388 11.9519 48.628 12.0717 48.9296 12.0717C49.2312 12.0717 49.5205 11.9519 49.7337 11.7387C49.947 11.5254 50.0668 11.2362 50.0668 10.9346C50.0675 10.2024 50.3586 9.50036 50.8764 8.98261C51.3941 8.46486 52.0962 8.17368 52.8284 8.173H56.2573C56.5589 8.173 56.8481 8.05319 57.0614 7.83994C57.2746 7.62669 57.3944 7.33745 57.3944 7.03587C57.3944 6.73428 57.2746 6.44505 57.0614 6.23179C56.8481 6.01854 56.5589 5.89873 56.2573 5.89873H52.8284Z" fill="#BF3D3D"/>
<path d="M59.9124 7.03587C59.9124 7.18522 59.9417 7.33313 59.9988 7.47113C60.0559 7.60913 60.1397 7.73452 60.2453 7.84013C60.3509 7.94574 60.4763 8.0295 60.6143 8.08661C60.7523 8.14373 60.9002 8.17308 61.0496 8.173H67.0426C67.3442 8.173 67.6334 8.05319 67.8466 7.83994C68.0599 7.62669 68.1797 7.33745 68.1797 7.03587C68.1797 6.73428 68.0599 6.44505 67.8466 6.23179C67.6334 6.01854 67.3442 5.89873 67.0426 5.89873H61.0496C60.9002 5.89865 60.7523 5.928 60.6143 5.98512C60.4763 6.04224 60.3509 6.12599 60.2453 6.2316C60.1397 6.33721 60.0559 6.4626 59.9988 6.6006C59.9417 6.73861 59.9124 6.88651 59.9124 7.03587Z" fill="#BF3D3D"/>
<path d="M65.4759 4.27426H67.0425C67.3441 4.27426 67.6333 4.15446 67.8466 3.9412C68.0598 3.72795 68.1796 3.43872 68.1796 3.13713C68.1796 2.83555 68.0598 2.54631 67.8466 2.33306C67.6333 2.1198 67.3441 2 67.0425 2H65.4759C65.1743 2 64.885 2.1198 64.6718 2.33306C64.4585 2.54631 64.3387 2.83555 64.3387 3.13713C64.3387 3.43872 64.4585 3.72795 64.6718 3.9412C64.885 4.15446 65.1743 4.27426 65.4759 4.27426Z" fill="#BF3D3D"/>
<path d="M45.0309 12.0717C45.3325 12.0717 45.6217 11.9519 45.835 11.7387C46.0482 11.5254 46.168 11.2362 46.168 10.9346C46.1699 9.16875 46.8722 7.47576 48.1209 6.22712C49.3695 4.97847 51.0625 4.27615 52.8284 4.27426H59.2216C59.5232 4.27426 59.8125 4.15446 60.0257 3.9412C60.239 3.72795 60.3588 3.43872 60.3588 3.13713C60.3588 2.83555 60.239 2.54631 60.0257 2.33306C59.8125 2.1198 59.5232 2 59.2216 2H52.8284C50.4596 2.00258 48.1885 2.94473 46.5135 4.61973C44.8385 6.29474 43.8963 8.56579 43.8938 10.9346C43.8937 11.084 43.923 11.2319 43.9802 11.3699C44.0373 11.5079 44.121 11.6333 44.2266 11.7389C44.3322 11.8445 44.4576 11.9282 44.5956 11.9853C44.7336 12.0425 44.8815 12.0718 45.0309 12.0717Z" fill="#BF3D3D"/>
<path d="M70.0654 39.678C69.7638 39.678 69.4746 39.7978 69.2613 40.0111C69.0481 40.2243 68.9283 40.5136 68.9283 40.8152V44.7139C68.9283 45.0155 69.0481 45.3047 69.2613 45.518C69.4746 45.7312 69.7638 45.851 70.0654 45.851C70.367 45.851 70.6562 45.7312 70.8695 45.518C71.0827 45.3047 71.2025 45.0155 71.2025 44.7139V40.8152C71.2025 40.5136 71.0827 40.2243 70.8695 40.0111C70.6562 39.7978 70.367 39.678 70.0654 39.678Z" fill="#BF3D3D"/>
<path d="M77.8629 72.827H75.1013V32.4751L77.9987 32.1268C78.2927 32.0845 78.5584 31.9288 78.7391 31.6931C78.9198 31.4574 79.0011 31.1603 78.9656 30.8654C78.9302 30.5705 78.7807 30.3013 78.5492 30.1151C78.3178 29.929 78.0227 29.8408 77.7271 29.8694L54.5666 32.6518L53.9428 19.5677C54.1429 19.4784 54.3129 19.3331 54.4323 19.1493C54.5516 18.9655 54.6152 18.7511 54.6154 18.5319V14.6332C54.6152 14.3317 54.4953 14.0425 54.2821 13.8293C54.0689 13.6161 53.7798 13.4962 53.4782 13.4961H40.4825C40.1809 13.4961 39.8916 13.6159 39.6784 13.8291C39.4651 14.0424 39.3453 14.3316 39.3453 14.6332V18.5319C39.345 18.752 39.4086 18.9675 39.5284 19.152C39.6483 19.3366 39.8192 19.4824 40.0205 19.5716L39.3122 34.4881L25.1513 36.188L24.3638 19.5664C24.5635 19.477 24.7331 19.3319 24.8522 19.1483C24.9713 18.9648 25.0348 18.7507 25.035 18.5319V14.6332C25.035 14.3316 24.9152 14.0424 24.702 13.8291C24.4887 13.6159 24.1995 13.4961 23.8979 13.4961H10.9021C10.6005 13.4961 10.3113 13.6159 10.098 13.8291C9.88478 14.0424 9.76498 14.3316 9.76498 14.6332V18.5319C9.76498 18.7524 9.82911 18.968 9.94957 19.1526C10.07 19.3372 10.2416 19.4828 10.4434 19.5716L8.36858 63.0802H7.50371C7.21157 63.0802 6.93064 63.1926 6.71917 63.3941C6.50769 63.5957 6.38191 63.8709 6.36788 64.1627L5.95202 72.827H3.13713C2.98778 72.8269 2.83987 72.8563 2.70187 72.9134C2.56387 72.9705 2.43848 73.0543 2.33287 73.1599C2.22726 73.2655 2.1435 73.3909 2.08639 73.5289C2.02927 73.6669 1.99991 73.8148 2 73.9641V77.8629C1.99991 78.0122 2.02927 78.1601 2.08639 78.2981C2.1435 78.4361 2.22726 78.5615 2.33287 78.6671C2.43848 78.7727 2.56387 78.8565 2.70187 78.9136C2.83987 78.9707 2.98778 79.0001 3.13713 79H77.8629C78.0122 79.0001 78.1601 78.9707 78.2981 78.9136C78.4361 78.8565 78.5615 78.7727 78.6671 78.6671C78.7727 78.5615 78.8565 78.4361 78.9136 78.2981C78.9707 78.1601 79.0001 78.0122 79 77.8629V73.9641C79.0001 73.8148 78.9707 73.6669 78.9136 73.5289C78.8565 73.3909 78.7727 73.2655 78.6671 73.1599C78.5615 73.0543 78.4361 72.9705 78.2981 72.9134C78.1601 72.8563 78.0122 72.8269 77.8629 72.827ZM66.4467 72.827V60.9684C66.4467 60.6668 66.3269 60.3775 66.1137 60.1643C65.9004 59.951 65.6112 59.8312 65.3096 59.8312H57.5121C57.3628 59.8311 57.2149 59.8605 57.0769 59.9176C56.9389 59.9747 56.8135 60.0585 56.7079 60.1641C56.6023 60.2697 56.5185 60.3951 56.4614 60.5331C56.4043 60.6711 56.3749 60.819 56.375 60.9684V72.827H54.6206V60.9684C54.6206 60.6668 54.5008 60.3775 54.2875 60.1643C54.0743 59.951 53.785 59.8312 53.4834 59.8312H45.686C45.5366 59.8311 45.3887 59.8605 45.2507 59.9176C45.1127 59.9747 44.9873 60.0585 44.8817 60.1641C44.7761 60.2697 44.6923 60.3951 44.6352 60.5331C44.5781 60.6711 44.5488 60.819 44.5488 60.9684V72.827H18.5371V39.2738L72.827 32.7493V72.827H66.4467ZM64.1725 72.827H58.6493V62.1055H64.1725V72.827ZM52.3463 72.827H46.8231V62.1055H52.3463V72.827ZM41.6248 15.7703H52.3463V17.3948H41.6248V15.7703ZM42.298 19.6691H51.6712L52.3028 32.9248L41.6046 34.2107L42.298 19.6691ZM12.0431 15.7703H22.7608V17.3948H12.0392L12.0431 15.7703ZM12.7196 19.6691H22.0921L22.8868 36.4596L13.3642 37.6052C13.077 37.6404 12.8141 37.7836 12.6289 38.0059C12.4437 38.2281 12.3502 38.5125 12.3673 38.8013C12.3845 39.09 12.511 39.3614 12.7212 39.5601C12.9314 39.7589 13.2094 39.87 13.4987 39.871C13.5445 39.871 13.5903 39.8684 13.6358 39.8632L16.2629 39.5468V63.0802H10.6454L12.7196 19.6691ZM8.58756 65.3544H16.2629V72.827H8.22888L8.58756 65.3544ZM76.7257 76.7257H4.27426V75.1013H76.7257V76.7257Z" fill="#BF3D3D"/>
<path d="M38.192 56.041H25.1962C24.8946 56.041 24.6054 56.1608 24.3921 56.3741C24.1789 56.5873 24.0591 56.8765 24.0591 57.1781C24.0591 57.4797 24.1789 57.769 24.3921 57.9822C24.6054 58.1955 24.8946 58.3153 25.1962 58.3153H38.192C38.4936 58.3153 38.7828 58.1955 38.996 57.9822C39.2093 57.769 39.3291 57.4797 39.3291 57.1781C39.3291 56.8765 39.2093 56.5873 38.996 56.3741C38.7828 56.1608 38.4936 56.041 38.192 56.041Z" fill="#BF3D3D"/>
<path d="M38.192 48.2435H25.1962C24.8946 48.2435 24.6054 48.3633 24.3921 48.5766C24.1789 48.7898 24.0591 49.0791 24.0591 49.3807C24.0591 49.6823 24.1789 49.9715 24.3921 50.1847C24.6054 50.398 24.8946 50.5178 25.1962 50.5178H38.192C38.4936 50.5178 38.7828 50.398 38.996 50.1847C39.2093 49.9715 39.3291 49.6823 39.3291 49.3807C39.3291 49.0791 39.2093 48.7898 38.996 48.5766C38.7828 48.3633 38.4936 48.2435 38.192 48.2435Z" fill="#BF3D3D"/>
<path d="M38.192 52.1423H25.1962C24.8946 52.1423 24.6054 52.2621 24.3921 52.4753C24.1789 52.6886 24.0591 52.9778 24.0591 53.2794C24.0591 53.581 24.1789 53.8702 24.3921 54.0835C24.6054 54.2967 24.8946 54.4165 25.1962 54.4165H38.192C38.4936 54.4165 38.7828 54.2967 38.996 54.0835C39.2093 53.8702 39.3291 53.581 39.3291 53.2794C39.3291 52.9778 39.2093 52.6886 38.996 52.4753C38.7828 52.2621 38.4936 52.1423 38.192 52.1423Z" fill="#BF3D3D"/>
<path d="M51.532 50.1929H47.6332C47.4839 50.1928 47.336 50.2222 47.198 50.2793C47.06 50.3364 46.9346 50.4202 46.829 50.5258C46.7234 50.6314 46.6396 50.7568 46.5825 50.8948C46.5254 51.0328 46.496 51.1807 46.4961 51.33V55.2288C46.496 55.3781 46.5254 55.526 46.5825 55.664C46.6396 55.802 46.7234 55.9274 46.829 56.033C46.9346 56.1386 47.06 56.2224 47.198 56.2795C47.336 56.3366 47.4839 56.366 47.6332 56.3659H51.532C51.8336 56.3659 52.1228 56.2461 52.3361 56.0328C52.5493 55.8196 52.6691 55.5304 52.6691 55.2288V51.33C52.6691 51.0284 52.5493 50.7392 52.3361 50.526C52.1228 50.3127 51.8336 50.1929 51.532 50.1929ZM50.3948 54.0916H48.7704V52.4672H50.3948V54.0916Z" fill="#BF3D3D"/>
<path d="M63.3601 50.1929H59.4613C59.312 50.1928 59.1641 50.2222 59.0261 50.2793C58.8881 50.3364 58.7627 50.4202 58.6571 50.5258C58.5515 50.6314 58.4677 50.7568 58.4106 50.8948C58.3535 51.0328 58.3241 51.1807 58.3242 51.33V55.2288C58.3241 55.3781 58.3535 55.526 58.4106 55.664C58.4677 55.802 58.5515 55.9274 58.6571 56.033C58.7627 56.1386 58.8881 56.2224 59.0261 56.2795C59.1641 56.3366 59.312 56.366 59.4613 56.3659H63.3601C63.6617 56.3659 63.9509 56.2461 64.1642 56.0328C64.3774 55.8196 64.4972 55.5304 64.4972 55.2288V51.33C64.4972 51.0284 64.3774 50.7392 64.1642 50.526C63.9509 50.3127 63.6617 50.1929 63.3601 50.1929ZM62.2229 54.0916H60.5985V52.4672H62.2229V54.0916Z" fill="#BF3D3D"/>
<path d="M23.247 5.89873C21.9121 5.90063 20.6324 6.43184 19.6886 7.37587C18.7449 8.31991 18.214 9.59971 18.2124 10.9346C18.2124 11.2362 18.3322 11.5254 18.5455 11.7387C18.7587 11.9519 19.048 12.0717 19.3496 12.0717C19.6511 12.0717 19.9404 11.9519 20.1536 11.7387C20.3669 11.5254 20.4867 11.2362 20.4867 10.9346C20.4874 10.2024 20.7785 9.50036 21.2963 8.98261C21.8141 8.46486 22.5161 8.17368 23.2483 8.173H30.6487C30.9503 8.173 31.2396 8.05319 31.4528 7.83994C31.6661 7.62669 31.7859 7.33745 31.7859 7.03587C31.7859 6.73428 31.6661 6.44505 31.4528 6.23179C31.2396 6.01854 30.9503 5.89873 30.6487 5.89873H23.247Z" stroke="#BF3D3D" stroke-width="0.5"/>
<path d="M37.4609 5.89873H35.4465C35.1449 5.89873 34.8557 6.01854 34.6424 6.23179C34.4292 6.44505 34.3094 6.73428 34.3094 7.03587C34.3094 7.33745 34.4292 7.62669 34.6424 7.83994C34.8557 8.05319 35.1449 8.173 35.4465 8.173H37.4609C37.7624 8.173 38.0517 8.05319 38.2649 7.83994C38.4782 7.62669 38.598 7.33745 38.598 7.03587C38.598 6.73428 38.4782 6.44505 38.2649 6.23179C38.0517 6.01854 37.7624 5.89873 37.4609 5.89873Z" stroke="#BF3D3D" stroke-width="0.5"/>
<path d="M31.2172 4.27426H37.461C37.7626 4.27426 38.0518 4.15446 38.2651 3.9412C38.4783 3.72795 38.5981 3.43872 38.5981 3.13713C38.5981 2.83555 38.4783 2.54631 38.2651 2.33306C38.0518 2.1198 37.7626 2 37.461 2H31.2172C30.9156 2 30.6264 2.1198 30.4131 2.33306C30.1998 2.54631 30.08 2.83555 30.08 3.13713C30.08 3.43872 30.1998 3.72795 30.4131 3.9412C30.6264 4.15446 30.9156 4.27426 31.2172 4.27426Z" stroke="#BF3D3D" stroke-width="0.5"/>
<path d="M15.4495 12.0717C15.599 12.072 15.747 12.0428 15.8852 11.9857C16.0233 11.9287 16.1489 11.8449 16.2546 11.7393C16.3604 11.6337 16.4442 11.5082 16.5014 11.3702C16.5586 11.2321 16.588 11.0841 16.588 10.9346C16.5898 9.16897 17.292 7.47619 18.5404 6.22758C19.7887 4.97897 21.4814 4.2765 23.247 4.27426H26.249C26.5506 4.27426 26.8398 4.15446 27.0531 3.9412C27.2663 3.72795 27.3861 3.43872 27.3861 3.13713C27.3861 2.83555 27.2663 2.54631 27.0531 2.33306C26.8398 2.1198 26.5506 2 26.249 2H23.247C20.8784 2.00292 18.6077 2.94523 16.933 4.62019C15.2582 6.29516 14.3163 8.56601 14.3137 10.9346C14.3136 11.0838 14.3429 11.2316 14.4 11.3696C14.457 11.5075 14.5406 11.6328 14.6461 11.7384C14.7516 11.844 14.8768 11.9278 15.0147 11.985C15.1525 12.0422 15.3003 12.0716 15.4495 12.0717Z" stroke="#BF3D3D" stroke-width="0.5"/>
<path d="M52.8284 5.89873C51.4932 5.90028 50.2133 6.43134 49.2692 7.37542C48.3251 8.31949 47.794 9.59948 47.7925 10.9346C47.7925 11.2362 47.9123 11.5254 48.1256 11.7387C48.3388 11.9519 48.628 12.0717 48.9296 12.0717C49.2312 12.0717 49.5205 11.9519 49.7337 11.7387C49.947 11.5254 50.0668 11.2362 50.0668 10.9346C50.0675 10.2024 50.3586 9.50036 50.8764 8.98261C51.3941 8.46486 52.0962 8.17368 52.8284 8.173H56.2573C56.5589 8.173 56.8481 8.05319 57.0614 7.83994C57.2746 7.62669 57.3944 7.33745 57.3944 7.03587C57.3944 6.73428 57.2746 6.44505 57.0614 6.23179C56.8481 6.01854 56.5589 5.89873 56.2573 5.89873H52.8284Z" stroke="#BF3D3D" stroke-width="0.5"/>
<path d="M59.9124 7.03587C59.9124 7.18522 59.9417 7.33313 59.9988 7.47113C60.0559 7.60913 60.1397 7.73452 60.2453 7.84013C60.3509 7.94574 60.4763 8.0295 60.6143 8.08661C60.7523 8.14373 60.9002 8.17308 61.0496 8.173H67.0426C67.3442 8.173 67.6334 8.05319 67.8466 7.83994C68.0599 7.62669 68.1797 7.33745 68.1797 7.03587C68.1797 6.73428 68.0599 6.44505 67.8466 6.23179C67.6334 6.01854 67.3442 5.89873 67.0426 5.89873H61.0496C60.9002 5.89865 60.7523 5.928 60.6143 5.98512C60.4763 6.04224 60.3509 6.12599 60.2453 6.2316C60.1397 6.33721 60.0559 6.4626 59.9988 6.6006C59.9417 6.73861 59.9124 6.88651 59.9124 7.03587Z" stroke="#BF3D3D" stroke-width="0.5"/>
<path d="M65.4759 4.27426H67.0425C67.3441 4.27426 67.6333 4.15446 67.8466 3.9412C68.0598 3.72795 68.1796 3.43872 68.1796 3.13713C68.1796 2.83555 68.0598 2.54631 67.8466 2.33306C67.6333 2.1198 67.3441 2 67.0425 2H65.4759C65.1743 2 64.885 2.1198 64.6718 2.33306C64.4585 2.54631 64.3387 2.83555 64.3387 3.13713C64.3387 3.43872 64.4585 3.72795 64.6718 3.9412C64.885 4.15446 65.1743 4.27426 65.4759 4.27426Z" stroke="#BF3D3D" stroke-width="0.5"/>
<path d="M45.0309 12.0717C45.3325 12.0717 45.6217 11.9519 45.835 11.7387C46.0482 11.5254 46.168 11.2362 46.168 10.9346C46.1699 9.16875 46.8722 7.47576 48.1209 6.22712C49.3695 4.97847 51.0625 4.27615 52.8284 4.27426H59.2216C59.5232 4.27426 59.8125 4.15446 60.0257 3.9412C60.239 3.72795 60.3588 3.43872 60.3588 3.13713C60.3588 2.83555 60.239 2.54631 60.0257 2.33306C59.8125 2.1198 59.5232 2 59.2216 2H52.8284C50.4596 2.00258 48.1885 2.94473 46.5135 4.61973C44.8385 6.29474 43.8963 8.56579 43.8938 10.9346C43.8937 11.084 43.923 11.2319 43.9802 11.3699C44.0373 11.5079 44.121 11.6333 44.2266 11.7389C44.3322 11.8445 44.4576 11.9282 44.5956 11.9853C44.7336 12.0425 44.8815 12.0718 45.0309 12.0717Z" stroke="#BF3D3D" stroke-width="0.5"/>
<path d="M70.0654 39.678C69.7638 39.678 69.4746 39.7978 69.2613 40.0111C69.0481 40.2243 68.9283 40.5136 68.9283 40.8152V44.7139C68.9283 45.0155 69.0481 45.3047 69.2613 45.518C69.4746 45.7312 69.7638 45.851 70.0654 45.851C70.367 45.851 70.6562 45.7312 70.8695 45.518C71.0827 45.3047 71.2025 45.0155 71.2025 44.7139V40.8152C71.2025 40.5136 71.0827 40.2243 70.8695 40.0111C70.6562 39.7978 70.367 39.678 70.0654 39.678Z" stroke="#BF3D3D" stroke-width="0.5"/>
<path d="M77.8629 72.827H75.1013V32.4751L77.9987 32.1268C78.2927 32.0845 78.5584 31.9288 78.7391 31.6931C78.9198 31.4574 79.0011 31.1603 78.9656 30.8654C78.9302 30.5705 78.7807 30.3013 78.5492 30.1151C78.3178 29.929 78.0227 29.8408 77.7271 29.8694L54.5666 32.6518L53.9428 19.5677C54.1429 19.4784 54.3129 19.3331 54.4323 19.1493C54.5516 18.9655 54.6152 18.7511 54.6154 18.5319V14.6332C54.6152 14.3317 54.4953 14.0425 54.2821 13.8293C54.0689 13.6161 53.7798 13.4962 53.4782 13.4961H40.4825C40.1809 13.4961 39.8916 13.6159 39.6784 13.8291C39.4651 14.0424 39.3453 14.3316 39.3453 14.6332V18.5319C39.345 18.752 39.4086 18.9675 39.5284 19.152C39.6483 19.3366 39.8192 19.4824 40.0205 19.5716L39.3122 34.4881L25.1513 36.188L24.3638 19.5664C24.5635 19.477 24.7331 19.3319 24.8522 19.1483C24.9713 18.9648 25.0348 18.7507 25.035 18.5319V14.6332C25.035 14.3316 24.9152 14.0424 24.702 13.8291C24.4887 13.6159 24.1995 13.4961 23.8979 13.4961H10.9021C10.6005 13.4961 10.3113 13.6159 10.098 13.8291C9.88478 14.0424 9.76498 14.3316 9.76498 14.6332V18.5319C9.76498 18.7524 9.82911 18.968 9.94957 19.1526C10.07 19.3372 10.2416 19.4828 10.4434 19.5716L8.36858 63.0802H7.50371C7.21157 63.0802 6.93064 63.1926 6.71917 63.3941C6.50769 63.5957 6.38191 63.8709 6.36788 64.1627L5.95202 72.827H3.13713C2.98778 72.8269 2.83987 72.8563 2.70187 72.9134C2.56387 72.9705 2.43848 73.0543 2.33287 73.1599C2.22726 73.2655 2.1435 73.3909 2.08639 73.5289C2.02927 73.6669 1.99991 73.8148 2 73.9641V77.8629C1.99991 78.0122 2.02927 78.1601 2.08639 78.2981C2.1435 78.4361 2.22726 78.5615 2.33287 78.6671C2.43848 78.7727 2.56387 78.8565 2.70187 78.9136C2.83987 78.9707 2.98778 79.0001 3.13713 79H77.8629C78.0122 79.0001 78.1601 78.9707 78.2981 78.9136C78.4361 78.8565 78.5615 78.7727 78.6671 78.6671C78.7727 78.5615 78.8565 78.4361 78.9136 78.2981C78.9707 78.1601 79.0001 78.0122 79 77.8629V73.9641C79.0001 73.8148 78.9707 73.6669 78.9136 73.5289C78.8565 73.3909 78.7727 73.2655 78.6671 73.1599C78.5615 73.0543 78.4361 72.9705 78.2981 72.9134C78.1601 72.8563 78.0122 72.8269 77.8629 72.827ZM66.4467 72.827V60.9684C66.4467 60.6668 66.3269 60.3775 66.1137 60.1643C65.9004 59.951 65.6112 59.8312 65.3096 59.8312H57.5121C57.3628 59.8311 57.2149 59.8605 57.0769 59.9176C56.9389 59.9747 56.8135 60.0585 56.7079 60.1641C56.6023 60.2697 56.5185 60.3951 56.4614 60.5331C56.4043 60.6711 56.3749 60.819 56.375 60.9684V72.827H54.6206V60.9684C54.6206 60.6668 54.5008 60.3775 54.2875 60.1643C54.0743 59.951 53.785 59.8312 53.4834 59.8312H45.686C45.5366 59.8311 45.3887 59.8605 45.2507 59.9176C45.1127 59.9747 44.9873 60.0585 44.8817 60.1641C44.7761 60.2697 44.6923 60.3951 44.6352 60.5331C44.5781 60.6711 44.5488 60.819 44.5488 60.9684V72.827H18.5371V39.2738L72.827 32.7493V72.827H66.4467ZM64.1725 72.827H58.6493V62.1055H64.1725V72.827ZM52.3463 72.827H46.8231V62.1055H52.3463V72.827ZM41.6248 15.7703H52.3463V17.3948H41.6248V15.7703ZM42.298 19.6691H51.6712L52.3028 32.9248L41.6046 34.2107L42.298 19.6691ZM12.0431 15.7703H22.7608V17.3948H12.0392L12.0431 15.7703ZM12.7196 19.6691H22.0921L22.8868 36.4596L13.3642 37.6052C13.077 37.6404 12.8141 37.7836 12.6289 38.0059C12.4437 38.2281 12.3502 38.5125 12.3673 38.8013C12.3845 39.09 12.511 39.3614 12.7212 39.5601C12.9314 39.7589 13.2094 39.87 13.4987 39.871C13.5445 39.871 13.5903 39.8684 13.6358 39.8632L16.2629 39.5468V63.0802H10.6454L12.7196 19.6691ZM8.58756 65.3544H16.2629V72.827H8.22888L8.58756 65.3544ZM76.7257 76.7257H4.27426V75.1013H76.7257V76.7257Z" stroke="#BF3D3D" stroke-width="0.5"/>
<path d="M38.192 56.041H25.1962C24.8946 56.041 24.6054 56.1608 24.3921 56.3741C24.1789 56.5873 24.0591 56.8765 24.0591 57.1781C24.0591 57.4797 24.1789 57.769 24.3921 57.9822C24.6054 58.1955 24.8946 58.3153 25.1962 58.3153H38.192C38.4936 58.3153 38.7828 58.1955 38.996 57.9822C39.2093 57.769 39.3291 57.4797 39.3291 57.1781C39.3291 56.8765 39.2093 56.5873 38.996 56.3741C38.7828 56.1608 38.4936 56.041 38.192 56.041Z" stroke="#BF3D3D" stroke-width="0.5"/>
<path d="M38.192 48.2435H25.1962C24.8946 48.2435 24.6054 48.3633 24.3921 48.5766C24.1789 48.7898 24.0591 49.0791 24.0591 49.3807C24.0591 49.6823 24.1789 49.9715 24.3921 50.1847C24.6054 50.398 24.8946 50.5178 25.1962 50.5178H38.192C38.4936 50.5178 38.7828 50.398 38.996 50.1847C39.2093 49.9715 39.3291 49.6823 39.3291 49.3807C39.3291 49.0791 39.2093 48.7898 38.996 48.5766C38.7828 48.3633 38.4936 48.2435 38.192 48.2435Z" stroke="#BF3D3D" stroke-width="0.5"/>
<path d="M38.192 52.1423H25.1962C24.8946 52.1423 24.6054 52.2621 24.3921 52.4753C24.1789 52.6886 24.0591 52.9778 24.0591 53.2794C24.0591 53.581 24.1789 53.8702 24.3921 54.0835C24.6054 54.2967 24.8946 54.4165 25.1962 54.4165H38.192C38.4936 54.4165 38.7828 54.2967 38.996 54.0835C39.2093 53.8702 39.3291 53.581 39.3291 53.2794C39.3291 52.9778 39.2093 52.6886 38.996 52.4753C38.7828 52.2621 38.4936 52.1423 38.192 52.1423Z" stroke="#BF3D3D" stroke-width="0.5"/>
<path d="M51.532 50.1929H47.6332C47.4839 50.1928 47.336 50.2222 47.198 50.2793C47.06 50.3364 46.9346 50.4202 46.829 50.5258C46.7234 50.6314 46.6396 50.7568 46.5825 50.8948C46.5254 51.0328 46.496 51.1807 46.4961 51.33V55.2288C46.496 55.3781 46.5254 55.526 46.5825 55.664C46.6396 55.802 46.7234 55.9274 46.829 56.033C46.9346 56.1386 47.06 56.2224 47.198 56.2795C47.336 56.3366 47.4839 56.366 47.6332 56.3659H51.532C51.8336 56.3659 52.1228 56.2461 52.3361 56.0328C52.5493 55.8196 52.6691 55.5304 52.6691 55.2288V51.33C52.6691 51.0284 52.5493 50.7392 52.3361 50.526C52.1228 50.3127 51.8336 50.1929 51.532 50.1929ZM50.3948 54.0916H48.7704V52.4672H50.3948V54.0916Z" stroke="#BF3D3D" stroke-width="0.5"/>
<path d="M63.3601 50.1929H59.4613C59.312 50.1928 59.1641 50.2222 59.0261 50.2793C58.8881 50.3364 58.7627 50.4202 58.6571 50.5258C58.5515 50.6314 58.4677 50.7568 58.4106 50.8948C58.3535 51.0328 58.3241 51.1807 58.3242 51.33V55.2288C58.3241 55.3781 58.3535 55.526 58.4106 55.664C58.4677 55.802 58.5515 55.9274 58.6571 56.033C58.7627 56.1386 58.8881 56.2224 59.0261 56.2795C59.1641 56.3366 59.312 56.366 59.4613 56.3659H63.3601C63.6617 56.3659 63.9509 56.2461 64.1642 56.0328C64.3774 55.8196 64.4972 55.5304 64.4972 55.2288V51.33C64.4972 51.0284 64.3774 50.7392 64.1642 50.526C63.9509 50.3127 63.6617 50.1929 63.3601 50.1929ZM62.2229 54.0916H60.5985V52.4672H62.2229V54.0916Z" stroke="#BF3D3D" stroke-width="0.5"/>
</svg>
