<svg width="74" height="74" viewBox="0 0 74 74" fill="none" xmlns="http://www.w3.org/2000/svg">
<path d="M34.0337 50.1195C34.5949 49.5574 34.5949 48.6478 34.0337 48.0857C33.472 47.5253 32.5621 47.5253 31.9998 48.0857C31.4393 48.6478 31.4393 49.5574 31.9998 50.1195C32.5621 50.6799 33.472 50.6799 34.0337 50.1195Z" fill="#BF3D3D"/>
<path d="M27.226 16.008C27.226 24.7246 34.3196 31.8166 43.0389 31.8166C51.7581 31.8166 58.8518 24.7246 58.8518 16.008C58.8518 7.2915 51.7581 0.200012 43.0389 0.200012C34.3196 0.200012 27.226 7.2915 27.226 16.008ZM55.9771 16.008C55.9771 23.14 50.173 28.9422 43.0389 28.9422C35.9048 28.9422 30.1007 23.14 30.1007 16.008C30.1007 8.87668 35.9048 3.07445 43.0389 3.07445C50.173 3.07445 55.9771 8.87668 55.9771 16.008Z" fill="#BF3D3D"/>
<path d="M16.7581 73.375C17.3153 73.9366 18.2225 73.9427 18.787 73.3868L25.7565 66.5228C26.9406 65.3391 27.3006 63.5866 26.78 62.0631L28.2791 60.6178C29.0863 59.8384 30.149 59.4088 31.2724 59.4088H50.3831C53.7735 59.4088 56.978 58.1072 59.4073 55.7438C59.5073 55.6466 58.6485 56.6579 72.4449 40.1738C74.4912 37.7536 74.1851 34.1194 71.7619 32.0716C69.3539 30.0428 65.7467 30.3342 63.6948 32.7128L55.212 41.4288C54.1409 40.1109 52.5074 39.2894 50.7426 39.2894H34.7123C32.4312 38.3354 30.0108 37.8525 27.5135 37.8525C20.5912 37.8525 14.5467 41.0487 11.3029 47.0412C9.9363 46.7824 8.49498 47.1957 7.45808 48.2322L0.619401 55.089C0.0610721 55.6488 0.0599488 56.5546 0.617154 57.1161L16.7581 73.375ZM27.513 40.7263C29.7148 40.7263 31.8437 41.1694 33.8416 42.0431C34.0236 42.1229 34.2197 42.1638 34.4179 42.1638H50.7426C52.3013 42.1638 53.6179 43.4346 53.6179 45.0377C53.6179 46.6229 52.3283 47.9122 50.7426 47.9122H39.0138C38.2201 47.9122 37.5764 48.5557 37.5764 49.3491C37.5764 50.1431 38.2201 50.7861 39.0138 50.7861H50.7426C53.9134 50.7861 56.4927 48.2075 56.4927 45.0377C56.4927 44.785 56.4747 44.5346 56.4421 44.2864C64.648 35.854 65.8051 34.6692 65.8545 34.6102C66.8791 33.4013 68.6978 33.248 69.9077 34.2677C71.1188 35.2914 71.2721 37.1084 70.2448 38.3241L57.351 53.7335C55.4682 55.5405 52.9961 56.5349 50.3831 56.5349H31.2724C29.3997 56.5349 27.627 57.2509 26.2823 58.5497L25.0606 59.7283L13.7985 48.4703C16.4307 43.534 21.3697 40.7263 27.513 40.7263ZM9.49256 50.2633C9.96663 49.7893 10.6946 49.704 11.2726 50.0611C11.5214 50.2127 10.8069 49.5625 23.7238 62.4573C24.2984 63.0318 24.2675 63.9471 23.7316 64.4827L17.79 70.3344L3.66493 56.1059L9.49256 50.2633Z" fill="#BF3D3D"/>
<path d="M41.3139 7.38584V9.06985C39.6406 9.66282 38.4386 11.2604 38.4386 13.1342C38.4386 15.5111 40.3731 17.4455 42.7513 17.4455C43.5439 17.4455 44.1887 18.0902 44.1887 18.8825C44.1887 19.6748 43.5439 20.3194 42.7513 20.3194C42.1374 20.3194 41.474 19.9337 40.8848 19.2323C40.3736 18.6247 39.4671 18.5467 38.8593 19.0571C38.2515 19.5681 38.1729 20.4744 38.684 21.082C39.4525 21.9956 40.3562 22.6323 41.3139 22.9535V24.6308C41.3139 25.4248 41.9576 26.0678 42.7513 26.0678C43.545 26.0678 44.1887 25.4248 44.1887 24.6308V22.9468C45.862 22.3533 47.064 20.7557 47.064 18.8825C47.064 16.505 45.1295 14.5711 42.7513 14.5711C41.9588 14.5711 41.3139 13.9265 41.3139 13.1342C41.3139 12.3419 41.9588 11.6967 42.7513 11.6967C43.2608 11.6967 43.7983 11.9566 44.3061 12.448C44.8768 13 45.7867 12.9848 46.3389 12.4149C46.891 11.8443 46.8759 10.9347 46.3057 10.3827C45.5761 9.67686 44.8459 9.27761 44.1887 9.05974V7.38584C44.1887 6.59184 43.545 5.94834 42.7513 5.94834C41.9576 5.94834 41.3139 6.59184 41.3139 7.38584Z" fill="#BF3D3D"/>
</svg>
