<svg width="70" height="46" viewBox="0 0 70 46" fill="none" xmlns="http://www.w3.org/2000/svg">
<path d="M65.0997 19.6317L63.287 12.3808C63.7826 12.2755 64.1544 11.8358 64.1544 11.3091V10.14C64.1544 7.60165 62.0893 5.53665 59.5511 5.53665H51.2944V3.1252C51.2944 1.87614 50.2783 0.860046 49.0293 0.860046H6.94148C5.69242 0.860046 4.67633 1.87614 4.67633 3.1252V23C4.67633 23.6053 5.16701 24.0961 5.7724 24.0961C6.37766 24.0961 6.86848 23.6054 6.86848 23V3.1252C6.86848 3.08487 6.90115 3.0522 6.94148 3.0522H49.0291C49.0695 3.0522 49.1021 3.08487 49.1021 3.1252V23.0003C49.1021 23.6055 49.5928 24.0964 50.1982 24.0964C50.8035 24.0964 51.2943 23.6057 51.2943 23.0003V21.7578H64.2236L64.2265 21.7581L64.2295 21.7579C65.8205 21.759 67.1714 22.8033 67.6354 24.2422H64.2273C63.6221 24.2422 63.1312 24.7329 63.1312 25.3383V27.6765C63.1312 29.5702 64.6718 31.1107 66.5655 31.1107H67.8077V35.9332H64.9418C64.0004 33.2148 61.4163 31.2567 58.3818 31.2567C55.3473 31.2567 52.763 33.2148 51.8217 35.9332H51.294V27.6763C51.294 27.0711 50.8033 26.5803 50.1979 26.5803C49.5927 26.5803 49.1019 27.0709 49.1019 27.6763V35.9329H26.3617C25.4203 33.2145 22.8361 31.2565 19.8017 31.2565C16.7672 31.2565 14.1829 33.2145 13.2416 35.9329H6.94148C6.90115 35.9329 6.86848 35.9002 6.86848 35.8599V33.4486H11.6179C12.2232 33.4486 12.714 32.9579 12.714 32.3525C12.714 31.7471 12.2233 31.2565 11.6179 31.2565H1.09607C0.49082 31.2565 0 31.7471 0 32.3525C0 32.9579 0.490684 33.4486 1.09607 33.4486H4.67647V35.8599C4.67647 37.109 5.69256 38.1251 6.94162 38.1251H12.8621C12.8618 38.1494 12.8602 38.1736 12.8602 38.1981C12.8602 42.0257 15.9742 45.1396 19.8017 45.1396C23.6291 45.1396 26.7431 42.0257 26.7431 38.1981C26.7431 38.1735 26.7415 38.1494 26.7412 38.1251H51.4422C51.4419 38.1494 51.4403 38.1736 51.4403 38.1981C51.4403 42.0257 54.5543 45.1396 58.3818 45.1396C62.2092 45.1396 65.3233 42.0257 65.3233 38.1981C65.3233 38.1735 65.3216 38.1494 65.3213 38.1251H68.9038C69.509 38.1251 69.9999 37.6344 69.9999 37.029V25.338C70 22.4516 67.8703 20.0534 65.0997 19.6317ZM51.2944 7.72866H59.5511C60.8807 7.72866 61.9624 8.81038 61.9624 10.14V10.213H51.2944V7.72866ZM51.2944 19.5658V12.405H61.0336L62.8238 19.5658H51.2944ZM19.8017 42.9478C17.1828 42.9478 15.0522 40.8173 15.0522 38.1983C15.0522 35.5794 17.1828 33.4489 19.8017 33.4489C22.4205 33.4489 24.5511 35.5794 24.5511 38.1983C24.5511 40.8173 22.4205 42.9478 19.8017 42.9478ZM58.382 42.9478C55.7632 42.9478 53.6326 40.8173 53.6326 38.1983C53.6326 35.5794 55.7632 33.4489 58.382 33.4489C61.0009 33.4489 63.1315 35.5794 63.1315 38.1983C63.1315 40.8173 61.0009 42.9478 58.382 42.9478ZM67.808 28.9186H66.5658C65.8808 28.9186 65.3235 28.3613 65.3235 27.6763V26.4341H67.8079L67.808 28.9186Z" fill="#BF3D3D"/>
<path d="M19.8017 35.9332C18.5526 35.9332 17.5365 36.9493 17.5365 38.1984C17.5365 39.4474 18.5526 40.4635 19.8017 40.4635C21.0507 40.4635 22.0668 39.4474 22.0668 38.1984C22.0668 36.9493 21.0507 35.9332 19.8017 35.9332Z" fill="#BF3D3D"/>
<path d="M58.382 35.9332C57.133 35.9332 56.1169 36.9493 56.1169 38.1984C56.1169 39.4474 57.133 40.4635 58.382 40.4635C59.6311 40.4635 60.6472 39.4474 60.6472 38.1984C60.6472 36.9493 59.6311 35.9332 58.382 35.9332Z" fill="#BF3D3D"/>
<path d="M45.5219 31.2569H29.1545C28.5492 31.2569 28.0584 31.7476 28.0584 32.353C28.0584 32.9583 28.5491 33.449 29.1545 33.449H45.5219C46.1271 33.449 46.6179 32.9583 46.6179 32.353C46.6179 31.7476 46.1273 31.2569 45.5219 31.2569Z" fill="#BF3D3D"/>
<path d="M17.4635 26.5804H3.43424C2.82898 26.5804 2.33816 27.0711 2.33816 27.6765C2.33816 28.2819 2.82885 28.7726 3.43424 28.7726H17.4635C18.0688 28.7726 18.5596 28.2819 18.5596 27.6765C18.5596 27.0711 18.0688 26.5804 17.4635 26.5804Z" fill="#BF3D3D"/>
<path d="M38.1132 11.7029C37.6853 11.275 36.9912 11.275 36.5633 11.7031L26.8163 21.4499L21.7458 16.3794C21.3177 15.9513 20.6237 15.9513 20.1958 16.3794C19.7678 16.8075 19.7678 17.5013 20.1958 17.9294L26.0414 23.7749C26.2553 23.989 26.5359 24.0959 26.8163 24.0959C27.0967 24.0959 27.3774 23.989 27.5912 23.7749L38.1131 13.2531C38.5412 12.8248 38.5412 12.131 38.1132 11.7029Z" fill="#BF3D3D"/>
<path d="M65.0997 19.6317L63.287 12.3808C63.7826 12.2755 64.1544 11.8358 64.1544 11.3091V10.14C64.1544 7.60165 62.0893 5.53665 59.5511 5.53665H51.2944V3.1252C51.2944 1.87614 50.2783 0.860046 49.0293 0.860046H6.94148C5.69242 0.860046 4.67633 1.87614 4.67633 3.1252V23C4.67633 23.6053 5.16701 24.0961 5.7724 24.0961C6.37766 24.0961 6.86848 23.6054 6.86848 23V3.1252C6.86848 3.08487 6.90115 3.0522 6.94148 3.0522H49.0291C49.0695 3.0522 49.1021 3.08487 49.1021 3.1252V23.0003C49.1021 23.6055 49.5928 24.0964 50.1982 24.0964C50.8035 24.0964 51.2943 23.6057 51.2943 23.0003V21.7578H64.2236L64.2265 21.7581L64.2295 21.7579C65.8205 21.759 67.1714 22.8033 67.6354 24.2422H64.2273C63.6221 24.2422 63.1312 24.7329 63.1312 25.3383V27.6765C63.1312 29.5702 64.6718 31.1107 66.5655 31.1107H67.8077V35.9332H64.9418C64.0004 33.2148 61.4163 31.2567 58.3818 31.2567C55.3473 31.2567 52.763 33.2148 51.8217 35.9332H51.294V27.6763C51.294 27.0711 50.8033 26.5803 50.1979 26.5803C49.5927 26.5803 49.1019 27.0709 49.1019 27.6763V35.9329H26.3617C25.4203 33.2145 22.8361 31.2565 19.8017 31.2565C16.7672 31.2565 14.1829 33.2145 13.2416 35.9329H6.94148C6.90115 35.9329 6.86848 35.9002 6.86848 35.8599V33.4486H11.6179C12.2232 33.4486 12.714 32.9579 12.714 32.3525C12.714 31.7471 12.2233 31.2565 11.6179 31.2565H1.09607C0.49082 31.2565 0 31.7471 0 32.3525C0 32.9579 0.490684 33.4486 1.09607 33.4486H4.67647V35.8599C4.67647 37.109 5.69256 38.1251 6.94162 38.1251H12.8621C12.8618 38.1494 12.8602 38.1736 12.8602 38.1981C12.8602 42.0257 15.9742 45.1396 19.8017 45.1396C23.6291 45.1396 26.7431 42.0257 26.7431 38.1981C26.7431 38.1735 26.7415 38.1494 26.7412 38.1251H51.4422C51.4419 38.1494 51.4403 38.1736 51.4403 38.1981C51.4403 42.0257 54.5543 45.1396 58.3818 45.1396C62.2092 45.1396 65.3233 42.0257 65.3233 38.1981C65.3233 38.1735 65.3216 38.1494 65.3213 38.1251H68.9038C69.509 38.1251 69.9999 37.6344 69.9999 37.029V25.338C70 22.4516 67.8703 20.0534 65.0997 19.6317ZM51.2944 7.72866H59.5511C60.8807 7.72866 61.9624 8.81038 61.9624 10.14V10.213H51.2944V7.72866ZM51.2944 19.5658V12.405H61.0336L62.8238 19.5658H51.2944ZM19.8017 42.9478C17.1828 42.9478 15.0522 40.8173 15.0522 38.1983C15.0522 35.5794 17.1828 33.4489 19.8017 33.4489C22.4205 33.4489 24.5511 35.5794 24.5511 38.1983C24.5511 40.8173 22.4205 42.9478 19.8017 42.9478ZM58.382 42.9478C55.7632 42.9478 53.6326 40.8173 53.6326 38.1983C53.6326 35.5794 55.7632 33.4489 58.382 33.4489C61.0009 33.4489 63.1315 35.5794 63.1315 38.1983C63.1315 40.8173 61.0009 42.9478 58.382 42.9478ZM67.808 28.9186H66.5658C65.8808 28.9186 65.3235 28.3613 65.3235 27.6763V26.4341H67.8079L67.808 28.9186Z" stroke="#BF3D3D"/>
<path d="M19.8017 35.9332C18.5526 35.9332 17.5365 36.9493 17.5365 38.1984C17.5365 39.4474 18.5526 40.4635 19.8017 40.4635C21.0507 40.4635 22.0668 39.4474 22.0668 38.1984C22.0668 36.9493 21.0507 35.9332 19.8017 35.9332Z" stroke="#BF3D3D"/>
<path d="M58.382 35.9332C57.133 35.9332 56.1169 36.9493 56.1169 38.1984C56.1169 39.4474 57.133 40.4635 58.382 40.4635C59.6311 40.4635 60.6472 39.4474 60.6472 38.1984C60.6472 36.9493 59.6311 35.9332 58.382 35.9332Z" stroke="#BF3D3D"/>
<path d="M45.5219 31.2569H29.1545C28.5492 31.2569 28.0584 31.7476 28.0584 32.353C28.0584 32.9583 28.5491 33.449 29.1545 33.449H45.5219C46.1271 33.449 46.6179 32.9583 46.6179 32.353C46.6179 31.7476 46.1273 31.2569 45.5219 31.2569Z" stroke="#BF3D3D"/>
<path d="M17.4635 26.5804H3.43424C2.82898 26.5804 2.33816 27.0711 2.33816 27.6765C2.33816 28.2819 2.82885 28.7726 3.43424 28.7726H17.4635C18.0688 28.7726 18.5596 28.2819 18.5596 27.6765C18.5596 27.0711 18.0688 26.5804 17.4635 26.5804Z" stroke="#BF3D3D"/>
<path d="M38.1132 11.7029C37.6853 11.275 36.9912 11.275 36.5633 11.7031L26.8163 21.4499L21.7458 16.3794C21.3177 15.9513 20.6237 15.9513 20.1958 16.3794C19.7678 16.8075 19.7678 17.5013 20.1958 17.9294L26.0414 23.7749C26.2553 23.989 26.5359 24.0959 26.8163 24.0959C27.0967 24.0959 27.3774 23.989 27.5912 23.7749L38.1131 13.2531C38.5412 12.8248 38.5412 12.131 38.1132 11.7029Z" stroke="#BF3D3D"/>
</svg>
