<svg width="100" height="58" viewBox="0 0 100 58" fill="none" xmlns="http://www.w3.org/2000/svg">
<path fill-rule="evenodd" clip-rule="evenodd" d="M0.5 7C0.5 3.41015 3.41015 0.5 7 0.5H93C96.5899 0.5 99.5 3.41015 99.5 7V51C99.5 54.5899 96.5899 57.5 93 57.5H7C3.41015 57.5 0.5 54.5899 0.5 51V7ZM7 3.5C5.067 3.5 3.5 5.067 3.5 7V51C3.5 52.933 5.067 54.5 7 54.5H93C94.933 54.5 96.5 52.933 96.5 51V7C96.5 5.067 94.933 3.5 93 3.5H7Z" fill="#BF3D3D"/>
<path d="M26.1492 15.1133H18.7313V29H14.618V11.9375H26.1492V15.1133Z" fill="#BF3D3D"/>
<path d="M45.8766 20.8203C45.8766 22.4844 45.568 23.957 44.9508 25.2383C44.3336 26.5195 43.4547 27.5078 42.3141 28.2031C41.1813 28.8906 39.8883 29.2344 38.4352 29.2344C36.982 29.2344 35.693 28.9023 34.568 28.2383C33.443 27.5664 32.5641 26.6094 31.9313 25.3672C31.3063 24.125 30.9781 22.6992 30.9469 21.0898V20.1289C30.9469 18.457 31.2516 16.9844 31.8609 15.7109C32.4781 14.4297 33.357 13.4414 34.4977 12.7461C35.6461 12.0508 36.9508 11.7031 38.4117 11.7031C39.857 11.7031 41.1461 12.0469 42.2789 12.7344C43.4117 13.4219 44.2906 14.4023 44.9156 15.6758C45.5484 16.9414 45.8688 18.3945 45.8766 20.0352V20.8203ZM41.693 20.1055C41.693 18.4102 41.4078 17.125 40.8375 16.25C40.275 15.3672 39.4664 14.9258 38.4117 14.9258C36.3492 14.9258 35.2594 16.4727 35.1422 19.5664L35.1305 20.8203C35.1305 22.4922 35.4078 23.7773 35.9625 24.6758C36.5172 25.5742 37.3414 26.0234 38.4352 26.0234C39.4742 26.0234 40.275 25.582 40.8375 24.6992C41.4 23.8164 41.6852 22.5469 41.693 20.8906V20.1055Z" fill="#BF3D3D"/>
<path d="M66.0023 23.2227C65.9477 24.4102 65.6273 25.4609 65.0414 26.375C64.4555 27.2812 63.6313 27.9844 62.5688 28.4844C61.5141 28.9844 60.307 29.2344 58.9477 29.2344C56.7055 29.2344 54.9398 28.5039 53.6508 27.043C52.3617 25.582 51.7172 23.5195 51.7172 20.8555V20.0117C51.7172 18.3398 52.0063 16.8789 52.5844 15.6289C53.1703 14.3711 54.0102 13.4023 55.1039 12.7227C56.1977 12.0352 57.4633 11.6914 58.9008 11.6914C60.9711 11.6914 62.6352 12.2383 63.893 13.332C65.1508 14.418 65.8656 15.918 66.0375 17.832H61.9359C61.9047 16.793 61.643 16.0469 61.1508 15.5938C60.6586 15.1406 59.9086 14.9141 58.9008 14.9141C57.8773 14.9141 57.1273 15.2969 56.6508 16.0625C56.1742 16.8281 55.9242 18.0508 55.9008 19.7305V20.9375C55.9008 22.7578 56.1273 24.0586 56.5805 24.8398C57.0414 25.6211 57.8305 26.0117 58.9477 26.0117C59.893 26.0117 60.6156 25.7891 61.1156 25.3438C61.6156 24.8984 61.8813 24.1914 61.9125 23.2227H66.0023Z" fill="#BF3D3D"/>
<path d="M85.1906 15.1133H80.0695V29H75.9563V15.1133H70.9289V11.9375H85.1906V15.1133Z" fill="#BF3D3D"/>
<path d="M20.5096 44.0605C20.5096 45.0436 20.3061 45.7956 19.8992 46.3164C19.4923 46.8372 18.8966 47.0977 18.1121 47.0977C17.3374 47.0977 16.7449 46.8421 16.3348 46.3311C15.9246 45.82 15.7146 45.0876 15.7049 44.1338V42.8252C15.7049 41.8324 15.91 41.0788 16.3201 40.5645C16.7335 40.0501 17.3276 39.793 18.1023 39.793C18.8771 39.793 19.4695 40.0485 19.8797 40.5596C20.2898 41.0674 20.4998 41.7982 20.5096 42.752V44.0605ZM19.0984 42.625C19.0984 42.0358 19.0171 41.6077 18.8543 41.3408C18.6948 41.0706 18.4441 40.9355 18.1023 40.9355C17.7703 40.9355 17.5245 41.0641 17.365 41.3213C17.2088 41.5752 17.1258 41.974 17.116 42.5176V44.2461C17.116 44.8255 17.1941 45.2568 17.3504 45.54C17.5099 45.82 17.7638 45.96 18.1121 45.96C18.4572 45.96 18.7062 45.8249 18.8592 45.5547C19.0122 45.2845 19.0919 44.8711 19.0984 44.3145V42.625Z" fill="#BF3D3D"/>
<path d="M26.0518 44.0605C26.0518 45.0436 25.8483 45.7956 25.4414 46.3164C25.0345 46.8372 24.4388 47.0977 23.6543 47.0977C22.8796 47.0977 22.2871 46.8421 21.877 46.3311C21.4668 45.82 21.2568 45.0876 21.2471 44.1338V42.8252C21.2471 41.8324 21.4521 41.0788 21.8623 40.5645C22.2757 40.0501 22.8698 39.793 23.6445 39.793C24.4193 39.793 25.0117 40.0485 25.4219 40.5596C25.832 41.0674 26.042 41.7982 26.0518 42.752V44.0605ZM24.6406 42.625C24.6406 42.0358 24.5592 41.6077 24.3965 41.3408C24.237 41.0706 23.9863 40.9355 23.6445 40.9355C23.3125 40.9355 23.0667 41.0641 22.9072 41.3213C22.751 41.5752 22.668 41.974 22.6582 42.5176V44.2461C22.6582 44.8255 22.7363 45.2568 22.8926 45.54C23.0521 45.82 23.306 45.96 23.6543 45.96C23.9993 45.96 24.2484 45.8249 24.4014 45.5547C24.5544 45.2845 24.6341 44.8711 24.6406 44.3145V42.625Z" fill="#BF3D3D"/>
<path d="M30.2365 47H28.8254V41.5605L27.1408 42.083V40.9355L30.0852 39.8809H30.2365V47Z" fill="#BF3D3D"/>
<path d="M32.5609 43.5039L32.9711 39.8906H36.9555V41.0674H34.1283L33.9525 42.5957C34.2878 42.4167 34.6443 42.3271 35.0219 42.3271C35.699 42.3271 36.2296 42.5371 36.6137 42.957C36.9978 43.377 37.1898 43.9645 37.1898 44.7197C37.1898 45.1787 37.0922 45.5905 36.8969 45.9551C36.7048 46.3164 36.4281 46.598 36.0668 46.7998C35.7055 46.9984 35.279 47.0977 34.7875 47.0977C34.3578 47.0977 33.959 47.0114 33.5912 46.8389C33.2234 46.6631 32.932 46.4173 32.7172 46.1016C32.5056 45.7858 32.3933 45.4261 32.3803 45.0225H33.7768C33.8061 45.3187 33.9086 45.5498 34.0844 45.7158C34.2634 45.8786 34.4962 45.96 34.7826 45.96C35.1016 45.96 35.3474 45.846 35.5199 45.6182C35.6924 45.387 35.7787 45.0615 35.7787 44.6416C35.7787 44.238 35.6794 43.9287 35.4809 43.7139C35.2823 43.499 35.0007 43.3916 34.6361 43.3916C34.3008 43.3916 34.029 43.4795 33.8207 43.6553L33.684 43.7822L32.5609 43.5039Z" fill="#BF3D3D"/>
<path d="M40.6959 44.5244H37.9469V43.3867H40.6959V44.5244Z" fill="#BF3D3D"/>
<path d="M46.3553 44.0605C46.3553 45.0436 46.1518 45.7956 45.7449 46.3164C45.338 46.8372 44.7423 47.0977 43.9578 47.0977C43.1831 47.0977 42.5906 46.8421 42.1805 46.3311C41.7703 45.82 41.5604 45.0876 41.5506 44.1338V42.8252C41.5506 41.8324 41.7557 41.0788 42.1658 40.5645C42.5792 40.0501 43.1733 39.793 43.948 39.793C44.7228 39.793 45.3152 40.0485 45.7254 40.5596C46.1355 41.0674 46.3455 41.7982 46.3553 42.752V44.0605ZM44.9441 42.625C44.9441 42.0358 44.8628 41.6077 44.7 41.3408C44.5405 41.0706 44.2898 40.9355 43.948 40.9355C43.616 40.9355 43.3702 41.0641 43.2107 41.3213C43.0545 41.5752 42.9715 41.974 42.9617 42.5176V44.2461C42.9617 44.8255 43.0398 45.2568 43.1961 45.54C43.3556 45.82 43.6095 45.96 43.9578 45.96C44.3029 45.96 44.5519 45.8249 44.7049 45.5547C44.8579 45.2845 44.9376 44.8711 44.9441 44.3145V42.625Z" fill="#BF3D3D"/>
<path d="M51.8975 44.0605C51.8975 45.0436 51.694 45.7956 51.2871 46.3164C50.8802 46.8372 50.2845 47.0977 49.5 47.0977C48.7253 47.0977 48.1328 46.8421 47.7227 46.3311C47.3125 45.82 47.1025 45.0876 47.0928 44.1338V42.8252C47.0928 41.8324 47.2979 41.0788 47.708 40.5645C48.1214 40.0501 48.7155 39.793 49.4902 39.793C50.265 39.793 50.8574 40.0485 51.2676 40.5596C51.6777 41.0674 51.8877 41.7982 51.8975 42.752V44.0605ZM50.4863 42.625C50.4863 42.0358 50.4049 41.6077 50.2422 41.3408C50.0827 41.0706 49.832 40.9355 49.4902 40.9355C49.1582 40.9355 48.9124 41.0641 48.7529 41.3213C48.5967 41.5752 48.5137 41.974 48.5039 42.5176V44.2461C48.5039 44.8255 48.582 45.2568 48.7383 45.54C48.8978 45.82 49.1517 45.96 49.5 45.96C49.8451 45.96 50.0941 45.8249 50.2471 45.5547C50.4001 45.2845 50.4798 44.8711 50.4863 44.3145V42.625Z" fill="#BF3D3D"/>
<path d="M57.5275 47H52.6545V46.0332L54.9543 43.582C55.2701 43.237 55.5028 42.9359 55.6525 42.6787C55.8055 42.4216 55.882 42.1774 55.882 41.9463C55.882 41.6305 55.8023 41.3831 55.6428 41.2041C55.4833 41.0218 55.2554 40.9307 54.9592 40.9307C54.6402 40.9307 54.3879 41.0413 54.2023 41.2627C54.0201 41.4808 53.9289 41.7689 53.9289 42.127H52.5129C52.5129 41.694 52.6154 41.2985 52.8205 40.9404C53.0288 40.5824 53.3218 40.3024 53.6994 40.1006C54.077 39.8955 54.5051 39.793 54.9836 39.793C55.716 39.793 56.284 39.9688 56.6877 40.3203C57.0946 40.6719 57.298 41.1683 57.298 41.8096C57.298 42.1611 57.2069 42.5192 57.0246 42.8838C56.8423 43.2484 56.5298 43.6732 56.0871 44.1582L54.4709 45.8623H57.5275V47Z" fill="#BF3D3D"/>
<path d="M60.9994 44.5244H58.2504V43.3867H60.9994V44.5244Z" fill="#BF3D3D"/>
<path d="M66.7467 47H61.8736V46.0332L64.1734 43.582C64.4892 43.237 64.7219 42.9359 64.8717 42.6787C65.0247 42.4216 65.1012 42.1774 65.1012 41.9463C65.1012 41.6305 65.0214 41.3831 64.8619 41.2041C64.7024 41.0218 64.4745 40.9307 64.1783 40.9307C63.8593 40.9307 63.607 41.0413 63.4215 41.2627C63.2392 41.4808 63.148 41.7689 63.148 42.127H61.732C61.732 41.694 61.8346 41.2985 62.0396 40.9404C62.248 40.5824 62.541 40.3024 62.9186 40.1006C63.2962 39.8955 63.7242 39.793 64.2027 39.793C64.9352 39.793 65.5032 39.9688 65.9068 40.3203C66.3137 40.6719 66.5172 41.1683 66.5172 41.8096C66.5172 42.1611 66.426 42.5192 66.2438 42.8838C66.0615 43.2484 65.749 43.6732 65.3063 44.1582L63.69 45.8623H66.7467V47Z" fill="#BF3D3D"/>
<path d="M72.201 44.0605C72.201 45.0436 71.9975 45.7956 71.5906 46.3164C71.1837 46.8372 70.588 47.0977 69.8035 47.0977C69.0288 47.0977 68.4363 46.8421 68.0262 46.3311C67.616 45.82 67.4061 45.0876 67.3963 44.1338V42.8252C67.3963 41.8324 67.6014 41.0788 68.0115 40.5645C68.4249 40.0501 69.019 39.793 69.7937 39.793C70.5685 39.793 71.1609 40.0485 71.5711 40.5596C71.9812 41.0674 72.1912 41.7982 72.201 42.752V44.0605ZM70.7898 42.625C70.7898 42.0358 70.7085 41.6077 70.5457 41.3408C70.3862 41.0706 70.1355 40.9355 69.7937 40.9355C69.4617 40.9355 69.216 41.0641 69.0564 41.3213C68.9002 41.5752 68.8172 41.974 68.8074 42.5176V44.2461C68.8074 44.8255 68.8855 45.2568 69.0418 45.54C69.2013 45.82 69.4552 45.96 69.8035 45.96C70.1486 45.96 70.3976 45.8249 70.5506 45.5547C70.7036 45.2845 70.7833 44.8711 70.7898 44.3145V42.625Z" fill="#BF3D3D"/>
<path d="M76.3857 47H74.9746V41.5605L73.29 42.083V40.9355L76.2344 39.8809H76.3857V47Z" fill="#BF3D3D"/>
<path d="M83.3732 47H78.5002V46.0332L80.8 43.582C81.1158 43.237 81.3485 42.9359 81.4982 42.6787C81.6512 42.4216 81.7277 42.1774 81.7277 41.9463C81.7277 41.6305 81.648 41.3831 81.4885 41.2041C81.329 41.0218 81.1011 40.9307 80.8049 40.9307C80.4859 40.9307 80.2336 41.0413 80.048 41.2627C79.8658 41.4808 79.7746 41.7689 79.7746 42.127H78.3586C78.3586 41.694 78.4611 41.2985 78.6662 40.9404C78.8745 40.5824 79.1675 40.3024 79.5451 40.1006C79.9227 39.8955 80.3508 39.793 80.8293 39.793C81.5617 39.793 82.1298 39.9688 82.5334 40.3203C82.9403 40.6719 83.1438 41.1683 83.1438 41.8096C83.1438 42.1611 83.0526 42.5192 82.8703 42.8838C82.688 43.2484 82.3755 43.6732 81.9328 44.1582L80.3166 45.8623H83.3732V47Z" fill="#BF3D3D"/>
</svg>
