<svg width="80" height="80" viewBox="0 0 80 80" fill="none" xmlns="http://www.w3.org/2000/svg">
<path d="M77.8518 70.9698H74.0688V25.5407C74.0688 25.3574 74.025 25.1768 73.941 25.014C73.857 24.8511 73.7353 24.7107 73.5859 24.6044L40.6653 1.21209C40.4709 1.07412 40.2384 1 40 1C39.7616 1 39.5291 1.07412 39.3347 1.21209L6.41406 24.6044C6.26473 24.7107 6.14298 24.8511 6.05898 25.014C5.97498 25.1768 5.93116 25.3574 5.93118 25.5407V70.9698H2.14816C1.99736 70.9698 1.84802 70.9994 1.70868 71.0571C1.56934 71.1147 1.44273 71.1993 1.3361 71.306C1.22946 71.4126 1.14489 71.5392 1.08722 71.6785C1.02955 71.8179 0.999914 71.9672 1 72.118V77.8518C0.999914 78.0026 1.02955 78.1519 1.08722 78.2913C1.14489 78.4306 1.22946 78.5572 1.3361 78.6639C1.44273 78.7705 1.56934 78.8551 1.70868 78.9128C1.84802 78.9704 1.99736 79.0001 2.14816 79H77.8518C78.0026 79.0001 78.152 78.9704 78.2913 78.9128C78.4307 78.8551 78.5573 78.7705 78.6639 78.6639C78.7705 78.5572 78.8551 78.4306 78.9128 78.2913C78.9704 78.1519 79.0001 78.0026 79 77.8518V72.118C79.0001 71.9672 78.9704 71.8179 78.9128 71.6785C78.8551 71.5392 78.7705 71.4126 78.6639 71.306C78.5573 71.1993 78.4307 71.1147 78.2913 71.0571C78.152 70.9994 78.0026 70.9698 77.8518 70.9698ZM8.22749 26.1332L40 3.55703L71.7725 26.1332V70.9698H66.9299V32.7291C66.93 32.5782 66.9003 32.4289 66.8427 32.2896C66.785 32.1502 66.7004 32.0236 66.5938 31.917C66.4872 31.8103 66.3606 31.7258 66.2212 31.6681C66.0819 31.6104 65.9325 31.5808 65.7817 31.5809H14.2156C14.0648 31.5808 13.9155 31.6104 13.7762 31.6681C13.6368 31.7258 13.5102 31.8103 13.4036 31.917C13.2969 32.0236 13.2124 32.1502 13.1547 32.2896C13.097 32.4289 13.0674 32.5782 13.0675 32.7291V70.9698H8.22749V26.1332ZM56.0257 70.9698V57.242C56.0257 56.9375 55.9047 56.6455 55.6894 56.4301C55.4741 56.2148 55.182 56.0938 54.8775 56.0938H48.5869V42.3634C48.5869 42.0589 48.4659 41.7668 48.2506 41.5515C48.0353 41.3362 47.7433 41.2152 47.4388 41.2152H32.5612C32.2567 41.2152 31.9647 41.3362 31.7494 41.5515C31.5341 41.7668 31.4131 42.0589 31.4131 42.3634V56.0938H25.1225C24.818 56.0938 24.5259 56.2148 24.3106 56.4301C24.0953 56.6455 23.9743 56.9375 23.9743 57.242V70.9698H15.3664V33.8773H64.6336V70.9698H56.0257ZM26.2706 70.9698V62.9541H38.8518V70.9698H26.2706ZM53.7294 60.6577H41.1482V58.3902H53.7294V60.6577ZM46.2906 45.7798H33.7094V43.5122H46.2906V45.7798ZM33.7094 48.0762H46.2906V56.0938H33.7094V48.0762ZM38.8518 58.3902V60.6577H26.2706V58.3902H38.8518ZM41.1482 62.9541H53.7294V70.9698H41.1482V62.9541ZM76.7037 76.7062H3.29632V73.2662H76.7037V76.7062Z" fill="#BF3D3D"/>
<path d="M35.5275 28.9446H44.4727C44.7772 28.9446 45.0692 28.8237 45.2845 28.6083C45.4999 28.393 45.6208 28.101 45.6208 27.7964V23.2844C45.6207 22.9799 45.4996 22.688 45.2844 22.4727C45.0691 22.2574 44.7771 22.1363 44.4727 22.1362H35.5275C35.2231 22.1363 34.9311 22.2574 34.7158 22.4727C34.5006 22.688 34.3795 22.9799 34.3794 23.2844V27.7978C34.3797 28.102 34.5008 28.3938 34.7161 28.6088C34.9314 28.8238 35.2232 28.9446 35.5275 28.9446ZM36.6757 24.4326H43.3245V26.6482H36.6757V24.4326Z" fill="#BF3D3D"/>
<path d="M49.23 28.9446H58.1738C58.4783 28.9446 58.7703 28.8237 58.9856 28.6083C59.201 28.393 59.3219 28.101 59.3219 27.7964V23.2844C59.3218 22.9799 59.2007 22.688 58.9855 22.4727C58.7702 22.2574 58.4782 22.1363 58.1738 22.1362H49.23C48.9255 22.1363 48.6336 22.2574 48.4183 22.4727C48.203 22.688 48.082 22.9799 48.0818 23.2844V27.7978C48.0821 28.102 48.2033 28.3938 48.4185 28.6088C48.6338 28.8238 48.9257 28.9446 49.23 28.9446ZM50.3781 24.4326H57.0263V26.6482H50.3781V24.4326Z" fill="#BF3D3D"/>
<path d="M21.8261 28.9446H30.7699C31.0745 28.9446 31.3665 28.8237 31.5818 28.6083C31.7971 28.393 31.9181 28.101 31.9181 27.7964V23.2844C31.9179 22.9799 31.7969 22.688 31.5816 22.4727C31.3663 22.2574 31.0744 22.1363 30.7699 22.1362H21.8261C21.5217 22.1363 21.2297 22.2574 21.0144 22.4727C20.7992 22.688 20.6781 22.9799 20.678 23.2844V27.7978C20.6783 28.102 20.7994 28.3938 21.0147 28.6088C21.23 28.8238 21.5218 28.9446 21.8261 28.9446ZM22.9743 24.4326H29.6218V26.6482H22.9736L22.9743 24.4326Z" fill="#BF3D3D"/>
<path d="M77.8518 70.9698H74.0688V25.5407C74.0688 25.3574 74.025 25.1768 73.941 25.014C73.857 24.8511 73.7353 24.7107 73.5859 24.6044L40.6653 1.21209C40.4709 1.07412 40.2384 1 40 1C39.7616 1 39.5291 1.07412 39.3347 1.21209L6.41406 24.6044C6.26473 24.7107 6.14298 24.8511 6.05898 25.014C5.97498 25.1768 5.93116 25.3574 5.93118 25.5407V70.9698H2.14816C1.99736 70.9698 1.84802 70.9994 1.70868 71.0571C1.56934 71.1147 1.44273 71.1993 1.3361 71.306C1.22946 71.4126 1.14489 71.5392 1.08722 71.6785C1.02955 71.8179 0.999914 71.9672 1 72.118V77.8518C0.999914 78.0026 1.02955 78.1519 1.08722 78.2913C1.14489 78.4306 1.22946 78.5572 1.3361 78.6639C1.44273 78.7705 1.56934 78.8551 1.70868 78.9128C1.84802 78.9704 1.99736 79.0001 2.14816 79H77.8518C78.0026 79.0001 78.152 78.9704 78.2913 78.9128C78.4307 78.8551 78.5573 78.7705 78.6639 78.6639C78.7705 78.5572 78.8551 78.4306 78.9128 78.2913C78.9704 78.1519 79.0001 78.0026 79 77.8518V72.118C79.0001 71.9672 78.9704 71.8179 78.9128 71.6785C78.8551 71.5392 78.7705 71.4126 78.6639 71.306C78.5573 71.1993 78.4307 71.1147 78.2913 71.0571C78.152 70.9994 78.0026 70.9698 77.8518 70.9698ZM8.22749 26.1332L40 3.55703L71.7725 26.1332V70.9698H66.9299V32.7291C66.93 32.5782 66.9003 32.4289 66.8427 32.2896C66.785 32.1502 66.7004 32.0236 66.5938 31.917C66.4872 31.8103 66.3606 31.7258 66.2212 31.6681C66.0819 31.6104 65.9325 31.5808 65.7817 31.5809H14.2156C14.0648 31.5808 13.9155 31.6104 13.7762 31.6681C13.6368 31.7258 13.5102 31.8103 13.4036 31.917C13.2969 32.0236 13.2124 32.1502 13.1547 32.2896C13.097 32.4289 13.0674 32.5782 13.0675 32.7291V70.9698H8.22749V26.1332ZM56.0257 70.9698V57.242C56.0257 56.9375 55.9047 56.6455 55.6894 56.4301C55.4741 56.2148 55.182 56.0938 54.8775 56.0938H48.5869V42.3634C48.5869 42.0589 48.4659 41.7668 48.2506 41.5515C48.0353 41.3362 47.7433 41.2152 47.4388 41.2152H32.5612C32.2567 41.2152 31.9647 41.3362 31.7494 41.5515C31.5341 41.7668 31.4131 42.0589 31.4131 42.3634V56.0938H25.1225C24.818 56.0938 24.5259 56.2148 24.3106 56.4301C24.0953 56.6455 23.9743 56.9375 23.9743 57.242V70.9698H15.3664V33.8773H64.6336V70.9698H56.0257ZM26.2706 70.9698V62.9541H38.8518V70.9698H26.2706ZM53.7294 60.6577H41.1482V58.3902H53.7294V60.6577ZM46.2906 45.7798H33.7094V43.5122H46.2906V45.7798ZM33.7094 48.0762H46.2906V56.0938H33.7094V48.0762ZM38.8518 58.3902V60.6577H26.2706V58.3902H38.8518ZM41.1482 62.9541H53.7294V70.9698H41.1482V62.9541ZM76.7037 76.7062H3.29632V73.2662H76.7037V76.7062Z" stroke="#BF3D3D" stroke-width="0.5"/>
<path d="M35.5275 28.9446H44.4727C44.7772 28.9446 45.0692 28.8237 45.2845 28.6083C45.4999 28.393 45.6208 28.101 45.6208 27.7964V23.2844C45.6207 22.9799 45.4996 22.688 45.2844 22.4727C45.0691 22.2574 44.7771 22.1363 44.4727 22.1362H35.5275C35.2231 22.1363 34.9311 22.2574 34.7158 22.4727C34.5006 22.688 34.3795 22.9799 34.3794 23.2844V27.7978C34.3797 28.102 34.5008 28.3938 34.7161 28.6088C34.9314 28.8238 35.2232 28.9446 35.5275 28.9446ZM36.6757 24.4326H43.3245V26.6482H36.6757V24.4326Z" stroke="#BF3D3D" stroke-width="0.5"/>
<path d="M49.23 28.9446H58.1738C58.4783 28.9446 58.7703 28.8237 58.9856 28.6083C59.201 28.393 59.3219 28.101 59.3219 27.7964V23.2844C59.3218 22.9799 59.2007 22.688 58.9855 22.4727C58.7702 22.2574 58.4782 22.1363 58.1738 22.1362H49.23C48.9255 22.1363 48.6336 22.2574 48.4183 22.4727C48.203 22.688 48.082 22.9799 48.0818 23.2844V27.7978C48.0821 28.102 48.2033 28.3938 48.4185 28.6088C48.6338 28.8238 48.9257 28.9446 49.23 28.9446ZM50.3781 24.4326H57.0263V26.6482H50.3781V24.4326Z" stroke="#BF3D3D" stroke-width="0.5"/>
<path d="M21.8261 28.9446H30.7699C31.0745 28.9446 31.3665 28.8237 31.5818 28.6083C31.7971 28.393 31.9181 28.101 31.9181 27.7964V23.2844C31.9179 22.9799 31.7969 22.688 31.5816 22.4727C31.3663 22.2574 31.0744 22.1363 30.7699 22.1362H21.8261C21.5217 22.1363 21.2297 22.2574 21.0144 22.4727C20.7992 22.688 20.6781 22.9799 20.678 23.2844V27.7978C20.6783 28.102 20.7994 28.3938 21.0147 28.6088C21.23 28.8238 21.5218 28.9446 21.8261 28.9446ZM22.9743 24.4326H29.6218V26.6482H22.9736L22.9743 24.4326Z" stroke="#BF3D3D" stroke-width="0.5"/>
</svg>
