<svg width="70" height="70" viewBox="0 0 70 70" fill="none" xmlns="http://www.w3.org/2000/svg">
<path d="M33.1097 70.0067C32.0089 69.8811 30.9025 69.7875 29.8086 69.6259C20.5113 68.2497 12.8805 64.041 6.90938 57.0667C3.77571 53.4057 1.47374 49.155 0.151503 44.5876C0.105635 44.4313 0.0736666 44.2723 0 43.9744C0.972956 44.7105 1.97927 44.8241 3.03701 44.8161C3.17601 44.8161 3.39562 45.0833 3.45399 45.269C4.14388 47.2127 5.0186 49.0912 6.06707 50.8806C6.12701 51.0148 6.22999 51.1272 6.36101 51.2012C6.49203 51.2752 6.64423 51.3071 6.7954 51.2921C8.96648 51.2667 11.139 51.2667 13.31 51.2587H13.8757C13.2975 49.1129 12.7304 47.0086 12.1341 44.7934C13.1975 44.7934 14.1106 44.7773 15.0197 44.8134C15.1295 44.8134 15.274 45.0806 15.3241 45.2503C15.8726 47.1101 16.4124 48.9735 16.9433 50.8405C17.0309 51.1478 17.1921 51.2547 17.5299 51.252C22.5855 51.2146 27.6403 51.1843 32.6941 51.1612C32.7969 51.1612 32.8984 51.1438 33.0555 51.1291C33.0652 50.9273 33.0805 50.7283 33.0819 50.5385C33.0944 48.8016 33.1152 47.0647 33.1083 45.3278C33.1083 44.927 33.2042 44.756 33.6559 44.78C34.2981 44.8141 34.9417 44.8141 35.5838 44.78C36.0188 44.7573 36.1022 44.927 36.0953 45.3051C36.0605 46.9912 36.0522 48.6774 36.0369 50.3635C36.0369 50.596 36.0369 50.8285 36.0369 51.1197C36.2468 51.1304 36.4302 51.1491 36.6137 51.1478C41.7732 51.1211 46.9312 51.0877 52.0907 51.0757C52.4937 51.0757 52.6828 50.9514 52.7856 50.5906C53.2735 48.8537 53.7989 47.1168 54.2562 45.3799C54.3771 44.9163 54.5453 44.7533 55.0429 44.7827C55.8032 44.8254 56.5718 44.7934 57.485 44.7934C56.929 46.9057 56.387 48.9446 55.8296 51.0543H56.3786C58.7582 51.0396 61.1378 51.0155 63.5173 51.0155C63.8982 51.0155 64.1303 50.91 64.2832 50.5733C65.0755 48.8364 65.8983 47.0995 66.6614 45.3519C66.8337 44.9577 66.9838 44.7827 67.4578 44.7773C68.2918 44.7667 69.1257 44.6571 70 44.5863C69.9872 44.6849 69.9677 44.7827 69.9416 44.8789C66.2472 57.4541 54.7913 67.3251 41.3492 69.4842C40.0844 69.6873 38.8001 69.7795 37.5241 69.9265C37.3712 69.9439 37.2211 69.9813 37.0682 70.0093L33.1097 70.0067ZM35.9994 53.9897V67.0833C36.0542 67.0897 36.1095 67.0924 36.1648 67.0913C36.2857 67.0806 36.4066 67.0646 36.5261 67.0486C39.584 66.637 42.179 65.2756 44.4724 63.3476C47.426 60.8625 49.5165 57.7708 51.1886 54.3958C51.2441 54.2653 51.2905 54.1314 51.3276 53.995L35.9994 53.9897ZM32.979 54.0965H18.3652C18.3922 54.2057 18.4261 54.3133 18.4667 54.4185C19.9762 57.4915 21.8623 60.316 24.4212 62.6849C26.7007 64.7959 29.311 66.3551 32.4703 66.9417C32.6093 66.9671 32.7608 66.9684 32.9818 66.9871L32.979 54.0965ZM47.1745 64.8908C53.2443 62.6502 58.1633 58.996 62.0732 53.9148C61.8619 53.8935 61.7799 53.8774 61.6979 53.8788C59.474 53.8788 57.2501 53.8788 55.0262 53.9175C54.9182 53.9326 54.8152 53.9714 54.7252 54.031C54.6353 54.0905 54.5609 54.1692 54.5078 54.2609C52.7384 58.1676 50.4686 61.7523 47.2801 64.7492C47.2406 64.7932 47.2052 64.8406 47.1745 64.8908ZM22.0903 64.4993C21.8123 64.2094 21.519 63.9235 21.241 63.6295C18.6863 60.94 16.7751 57.859 15.2782 54.5294C15.1309 54.2021 14.9474 54.0885 14.5832 54.0939C12.6929 54.1206 10.8012 54.1219 8.9095 54.1353C8.74826 54.1353 8.58703 54.1607 8.31599 54.182C11.9868 58.865 16.525 62.3014 22.0903 64.4993Z" fill="#BF3D3D"/>
<path d="M36.2773 19.1767C36.2773 19.9048 36.2773 20.6036 36.2773 21.301C36.2704 22.3913 36.269 22.3913 35.1098 22.39H33.3348V19.1954C33.1041 19.1834 32.9359 19.1673 32.7677 19.1687C27.6611 19.19 22.5545 19.2181 17.4478 19.2234C17.0142 19.2234 16.839 19.3637 16.732 19.7472C16.5207 20.5047 16.2483 21.2449 16.0273 21.9998C15.9439 22.2831 15.8272 22.4073 15.495 22.4006C14.6471 22.3753 13.7965 22.3926 12.8541 22.3926L13.7603 19.2635C13.5199 19.2635 13.3336 19.2635 13.1474 19.2635C10.9235 19.2729 8.69957 19.2929 6.47568 19.2836C6.08927 19.2836 5.87661 19.3971 5.71816 19.7325C5.34844 20.5061 4.95508 21.269 4.54505 22.0225C4.46444 22.1735 4.27541 22.3699 4.12807 22.3739C3.16346 22.406 2.19606 22.39 1.25646 22.39C5.06906 12.0286 16.8293 0.260393 34.5385 0.00386511C52.4798 -0.247319 64.8072 11.414 68.9241 22.3886C67.9512 22.3886 66.9782 22.4006 66.0136 22.3726C65.883 22.3726 65.7162 22.1789 65.6411 22.0386C65.163 21.1487 64.7196 20.2429 64.2289 19.3664C64.1713 19.2749 64.0933 19.1968 64.0005 19.1376C63.9078 19.0785 63.8026 19.0398 63.6924 19.0244C61.1739 19.0163 58.6553 19.0377 56.1367 19.0538C56.0332 19.062 55.9302 19.0754 55.8282 19.0938C56.1451 20.1787 56.455 21.2423 56.79 22.3913C55.7726 22.3913 54.8441 22.402 53.9142 22.3753C53.8141 22.3753 53.6779 22.1628 53.6362 22.0265C53.3582 21.2026 53.0918 20.3738 52.837 19.5401C52.7383 19.2114 52.5882 19.0618 52.1893 19.0658C47.0646 19.1032 41.9413 19.1206 36.8166 19.1446C36.6609 19.1406 36.5094 19.1606 36.2773 19.1767ZM33.4293 2.93123C33.143 2.96463 32.9192 2.98066 32.6996 3.01673C29.8113 3.50307 27.347 4.81377 25.1703 6.65623C22.1125 9.23754 19.965 12.4441 18.2874 15.9687C18.2386 16.0994 18.2001 16.2334 18.172 16.3696C18.4264 16.3696 18.6154 16.3696 18.8058 16.3696C23.4399 16.3468 28.0753 16.3134 32.7052 16.3134C33.2514 16.3134 33.3626 16.1491 33.364 15.6614C33.3779 11.6064 33.4182 7.5514 33.4502 3.49639C33.4557 3.34407 33.4404 3.17573 33.4293 2.93123ZM36.401 16.2159H51.3567C51.372 16.1157 51.3887 16.0823 51.379 16.0516C51.3401 15.942 51.297 15.8325 51.2469 15.7269C50.0891 13.3407 48.695 11.0934 46.9298 9.07588C44.9714 6.83793 42.7072 4.95806 39.8536 3.85179C38.7861 3.4376 37.652 3.18241 36.401 2.80964V16.2159ZM62.0968 16.117C58.1827 11.0212 53.254 7.35233 47.1383 5.00349C47.1925 5.1371 47.1966 5.16917 47.2189 5.18921C50.4686 8.23147 52.7786 11.8696 54.5383 15.8552C54.6676 16.1464 54.8469 16.1999 55.1332 16.1972C57.2876 16.1812 59.442 16.1758 61.5936 16.1651C61.7257 16.1705 61.8521 16.1411 62.0968 16.117ZM7.85588 16.4217H8.58004C10.4898 16.4123 12.3996 16.3909 14.308 16.4056C14.7472 16.4056 14.9334 16.2587 15.1002 15.8792C16.7682 12.0781 18.9323 8.5882 21.9693 5.63813C22.0369 5.54642 22.0964 5.44944 22.1472 5.3482C16.2858 7.80259 11.6018 11.4314 7.85588 16.4217Z" fill="#BF3D3D"/>
<path d="M57.1528 43.3342C54.8413 43.3035 53.122 43.1472 51.4402 42.6595C46.517 41.2259 43.8692 37.4488 44.2848 32.516C44.642 28.2846 46.991 25.5363 51.1038 24.2536C54.9261 23.0632 58.8291 23.0766 62.6153 24.4207C67.4592 26.1389 69.3022 30.0322 68.9172 34.4707C68.4877 39.4142 64.8128 42.2908 60.0036 43.0497C58.8777 43.2274 57.7282 43.2781 57.1528 43.3342ZM56.6483 27.0447C53.5445 27.022 51.5124 28.5371 50.8675 31.4151C50.5477 32.8408 50.5758 34.3184 50.9495 35.7319C51.1582 36.597 51.5882 37.3984 52.2005 38.0634C53.4987 39.4436 55.1874 39.8083 57.0235 39.7362C59.8771 39.6239 61.823 38.0407 62.3609 35.3485C62.518 34.5288 62.5819 33.695 62.5513 32.862C62.4457 29.2159 60.2454 27.0728 56.6483 27.0447Z" fill="#BF3D3D"/>
<path d="M38.6193 28.3285C36.9653 27.9544 35.3919 27.5469 33.7949 27.2597C32.2552 26.971 30.674 26.9524 29.1275 27.2049C28.6333 27.2909 28.1545 27.4443 27.7056 27.6605C27.094 27.9531 26.8202 28.4795 26.8633 29.1489C26.8717 29.4282 26.9718 29.6978 27.1493 29.9191C27.3269 30.1403 27.5726 30.3019 27.8515 30.3808C28.6425 30.6275 29.4471 30.8318 30.2617 30.9927C32.177 31.3935 34.1173 31.6915 36.0104 32.1698C36.8948 32.4134 37.7236 32.8145 38.4539 33.3522C40.0649 34.5053 40.347 36.1914 40.1372 37.9871C39.8592 40.3039 38.4817 41.7749 36.2453 42.5538C34.2855 43.2366 32.2409 43.3555 30.1852 43.3234C27.4034 43.2673 24.6411 42.8631 21.9679 42.1209C21.5509 42.0087 21.43 41.8323 21.4397 41.4275C21.4689 40.2491 21.4495 39.068 21.4495 37.8067L22.3779 38.1675C24.9132 39.1495 27.5207 39.8148 30.2797 39.7333C31.1954 39.6995 32.1015 39.5407 32.9706 39.2617C33.9603 38.9491 34.3244 38.2423 34.1813 37.3551C34.1425 37.0527 34.0109 36.7683 33.8032 36.5382C33.5955 36.308 33.3211 36.1427 33.0151 36.0631C31.9379 35.7532 30.8343 35.5287 29.7404 35.2695C28.0906 34.8794 26.4046 34.5934 24.802 34.0737C23.0395 33.5019 21.7441 32.3648 21.3508 30.5037C20.8156 28.0079 21.961 25.7071 24.3238 24.5554C25.8764 23.7992 27.5555 23.5454 29.2679 23.4866C32.2882 23.3837 35.2682 23.7284 38.2163 24.3403C38.3678 24.3724 38.5971 24.5608 38.5999 24.681C38.6305 25.9116 38.6193 27.1448 38.6193 28.3285Z" fill="#BF3D3D"/>
<path d="M15.7646 42.9295H9.66282V23.8329H15.7646V42.9295Z" fill="#BF3D3D"/>
</svg>
