<svg width="10" height="8" viewBox="0 0 10 8" fill="none" xmlns="http://www.w3.org/2000/svg">
<path fill-rule="evenodd" clip-rule="evenodd" d="M8.23075 0.642541C8.3858 0.488841 8.59512 0.402339 8.81344 0.401737C9.03176 0.401134 9.24155 0.48648 9.39745 0.639322C9.55335 0.792164 9.64283 1.00022 9.64655 1.21851C9.65028 1.43681 9.56794 1.64779 9.41734 1.80586L4.99451 7.33439C4.9185 7.41627 4.82675 7.48197 4.72477 7.52758C4.62278 7.57318 4.51264 7.59776 4.40094 7.59983C4.28924 7.60189 4.17827 7.58142 4.07466 7.53962C3.97106 7.49782 3.87695 7.43555 3.79795 7.35655L0.867498 4.42499C0.785858 4.34892 0.720378 4.25718 0.674962 4.15525C0.629546 4.05332 0.605125 3.94329 0.603157 3.83172C0.601188 3.72015 0.621712 3.60933 0.663504 3.50586C0.705296 3.40239 0.7675 3.3084 0.846405 3.2295C0.92531 3.15059 1.0193 3.08839 1.12277 3.0466C1.22623 3.00481 1.33706 2.98428 1.44863 2.98625C1.5602 2.98822 1.67023 3.01264 1.77216 3.05805C1.87409 3.10347 1.96582 3.16895 2.0419 3.25059L4.36189 5.56947L8.2097 0.666916C8.21657 0.658333 8.22397 0.650192 8.23186 0.642541H8.23075Z" fill="#BF3D3D"/>
</svg>
