<svg width="34" height="36" viewBox="0 0 34 36" fill="none" xmlns="http://www.w3.org/2000/svg">
<path fill-rule="evenodd" clip-rule="evenodd" d="M28.7391 14.4887C28.9021 14.3262 29.0314 14.133 29.1196 13.9204C29.2078 13.7078 29.2533 13.4799 29.2533 13.2497C29.2533 13.0195 29.2078 12.7916 29.1196 12.579C29.0314 12.3664 28.9021 12.1733 28.7391 12.0107L18.2391 1.51071C18.0766 1.34774 17.8835 1.21844 17.6709 1.13022C17.4582 1.04199 17.2303 0.996582 17.0001 0.996582C16.7699 0.996582 16.542 1.04199 16.3294 1.13022C16.1168 1.21844 15.9237 1.34774 15.7611 1.51071L5.26114 12.0107C4.93253 12.3393 4.74792 12.785 4.74792 13.2497C4.74792 13.7144 4.93253 14.1601 5.26114 14.4887C5.58974 14.8173 6.03542 15.0019 6.50014 15.0019C6.96485 15.0019 7.41053 14.8173 7.73914 14.4887L17.0001 5.22421L26.2611 14.4887C26.4237 14.6517 26.6168 14.781 26.8294 14.8692C27.042 14.9574 27.2699 15.0028 27.5001 15.0028C27.7303 15.0028 27.9582 14.9574 28.1709 14.8692C28.3835 14.781 28.5766 14.6517 28.7391 14.4887Z" fill="white"/>
<path fill-rule="evenodd" clip-rule="evenodd" d="M17.0001 29C17.4642 29 17.9093 28.8156 18.2375 28.4874C18.5657 28.1593 18.7501 27.7141 18.7501 27.25V4.5C18.7501 4.03587 18.5657 3.59075 18.2375 3.26256C17.9093 2.93437 17.4642 2.75 17.0001 2.75C16.5359 2.75 16.0908 2.93437 15.7626 3.26256C15.4344 3.59075 15.2501 4.03587 15.2501 4.5V27.25C15.2501 27.7141 15.4344 28.1593 15.7626 28.4874C16.0908 28.8156 16.5359 29 17.0001 29ZM0.200073 34.6C0.200073 33.83 0.830073 33.2 1.60007 33.2H32.4001C32.7714 33.2 33.1275 33.3475 33.39 33.6101C33.6526 33.8726 33.8001 34.2287 33.8001 34.6C33.8001 34.9713 33.6526 35.3274 33.39 35.59C33.1275 35.8525 32.7714 36 32.4001 36H1.60007C1.22877 36 0.872674 35.8525 0.610123 35.59C0.347573 35.3274 0.200073 34.9713 0.200073 34.6Z" fill="white"/>
</svg>
