<svg width="21" height="16" viewBox="0 0 21 16" fill="none" xmlns="http://www.w3.org/2000/svg">
<path d="M20.1425 2.93984C20.0279 2.49462 19.8033 2.0886 19.4911 1.76243C19.1789 1.43625 18.7901 1.20136 18.3636 1.08125C16.7936 0.640625 10.5 0.640625 10.5 0.640625C10.5 0.640625 4.20645 0.640625 2.63643 1.07891C2.20971 1.19862 1.8207 1.43339 1.50845 1.75962C1.1962 2.08586 0.971709 2.49208 0.857519 2.9375C0.4375 4.57812 0.4375 8 0.4375 8C0.4375 8 0.4375 11.4219 0.857519 13.0602C1.08887 13.9648 1.77168 14.6773 2.63643 14.9188C4.20645 15.3594 10.5 15.3594 10.5 15.3594C10.5 15.3594 16.7936 15.3594 18.3636 14.9188C19.2306 14.6773 19.9111 13.9648 20.1425 13.0602C20.5625 11.4219 20.5625 8 20.5625 8C20.5625 8 20.5625 4.57813 20.1425 2.93984ZM8.50098 11.1406V4.85938L13.7119 7.97656L8.50098 11.1406Z" fill="#2B2B2B"/>
</svg>
