<svg width="44" height="44" viewBox="0 0 44 44" fill="none" xmlns="http://www.w3.org/2000/svg">
<g clip-path="url(#clip0)">
<path d="M42.8408 32.2967L36.6863 26.1542C34.4888 23.961 30.7549 24.8349 29.8708 27.6877C29.2099 29.6581 27.0124 30.7547 25.0382 30.3177C20.6433 29.2212 14.712 23.5156 13.6133 18.9151C12.9524 16.9447 14.2742 14.7515 16.2485 14.0919C19.1069 13.2181 19.9824 9.48285 17.785 7.28971L11.6305 1.14719C9.87081 -0.386302 7.23561 -0.386302 5.69913 1.14719L1.52746 5.3193C-2.64422 9.7056 1.97381 21.331 12.3 31.6371C22.6262 41.9431 34.2742 46.7663 38.6691 42.38L42.8408 38.2165C44.3772 36.4603 44.3772 33.8302 42.8408 32.2967Z" fill="white"/>
</g>
<defs>
<clipPath id="clip0">
<rect width="44" height="44" fill="white"/>
</clipPath>
</defs>
</svg>
