<svg width="414" height="95" viewBox="0 0 414 95" fill="none" xmlns="http://www.w3.org/2000/svg">
<g clip-path="url(#clip0)">
<path d="M19.4 52.8L18.4 52L17.9 50.9L17.6 49.8L17.1 48.7L16.6 47.7L16.3 46.6L15.9 45.8L14.2 41.6L13.6 40.8L13.3 39.5L12.4 37.7L12.2 36.5L11.8 35.6L11.3 34.7L10.8 33.8L10.2 32L9.2 31.1L8.1 30.9L7.1 31.8L6.7 32.9L6.6 33.9L6.7 45.4L6.6 46.5L6.8 48.6L6.7 49.4V50.5L6.8 51.6L6.1 52.6L5.2 53.2L4 53.4H1.9L0.9 52.7L0.4 51.8L0.3 50.5L0.4 49.4L0.5 48.5L0.4 47.4L0.5 44.1L0.2 43V41.9L0.3 40.9V37.8L0.2 36.7L0.3 35.6V29.2L0.2 28.1L0.3 27V24.8L0.2 23.6V22.7L0.3 21.7L0.2 12.1L0.3 11.2L0.2 10.1L0.1 9.1L0 8.3L0.5 7.2L1.4 6.9L2.4 6.8L4.5 6.5L5.6 7.1L6.5 8V11L6.7 11.9L6.5 13.1L6.8 14V15.2L6.7 16.9L6.8 18.4L6.7 19.6L6.5 23L6.7 24L7.2 24.9L8.1 25L9.7 24L10.6 23.3L13.3 20.2L14.3 18.3L14.8 17.4L15.3 16.4L15.6 15.5L16.8 12.4L17 11.5L17.1 10.4L17.6 8.1L18.3 7L19.6 6.5L20.7 6.4L21.6 6.6L22.7 6.4L23.6 7.1L23.9 8.1L23.8 9.4L23.4 10.3L23.3 11.4L23 12.5L22.5 13.6L21.6 16.7L21.1 17.6L20.7 18.7L19.2 21.6L18.7 22.5L18 23.3L16.8 25.2L16 25.9L15.5 27.2V28.6L17 32.4L17.3 33.5L17.9 34.4L18.2 35.2L18.7 36.2L19.5 38.3L20 39.2L20.4 40.1L20.7 41.3L21.2 42L21.5 43.1L22.2 45.1L22.7 46L23.1 47.2L23.6 48.1L23.9 49.1L24.4 50L24.7 51.1L25.1 51.9L25 53L24.1 53.3L20.7 53.4L19.4 52.8Z" fill="white"/>
<path d="M53.9998 53.3L52.8998 53.4L51.6998 53L51.0998 51.9L50.7998 50.1L50.6998 41.6L50.8998 40.5L50.7998 39L50.8998 36.3L50.7998 35.1L50.8998 34.1L50.6998 30.9L50.7998 29.9L50.6998 28.6L50.9998 22.4L51.0998 21.3L50.9998 20.1L51.2998 18.2L51.1998 16.1L51.0998 16L49.5998 21.3L49.0998 22.4L48.7998 23.5L48.2998 24.5L47.8998 26L47.5998 27.5L47.1998 28.5L46.8998 29.4L46.4998 30.6L46.2998 31.6L45.4998 33.7L45.1998 34.8L44.6998 35.7L43.9998 37.7L43.7998 38.6L43.2998 39.6L42.9998 40.7L40.4998 47.6L40.2998 48.7L39.7998 49.7L39.4998 50.6L39.1998 51.7L38.3998 52.7L37.0998 53.1L32.5998 53.2L31.2998 52.8L30.7998 51.6L30.8998 44L30.7998 43.1L30.9998 42L30.8998 39.9L30.9998 38.9V37.7L30.8998 36.7L30.9998 35.6L30.8998 32.3L30.9998 31.4V28.1L30.7998 26.8L30.9998 25.9L30.8998 24.8L30.9998 23.9L30.8998 22.7L31.0998 15.2L30.8998 14.2L30.7998 13.3L30.8998 12.3L30.7998 8.4L30.9998 7.3L31.9998 6.7L32.9998 6.8L34.0998 6.7L35.0998 6.8L36.2998 7.2L36.8998 7.9L37.0998 9V10L37.1998 11.1L37.0998 12.2V14.3L37.1998 15.4L37.0998 18.5L37.1998 20.7L36.9998 22.9L37.1998 31.4L37.0998 32.3L37.1998 34L37.0998 36.7L36.8998 37.8L36.7998 38.6L36.8998 39.7L36.7998 40.6L36.5998 41.7L36.7998 43.5L37.0998 43.6L37.2998 42.7L37.9998 40.7L38.0998 39.7L39.5998 35.1L39.8998 33.6L40.1998 32.5L40.4998 31.6L40.7998 30.5L43.8998 21.4L44.1998 20.3L44.6998 19.4L44.8998 18.4L45.3998 17.5L45.7998 16.4L45.9998 15.4L46.9998 12.1L47.6998 10.4L48.2998 8.1L49.1998 7.2L50.2998 6.5L51.3998 6.6L53.4998 6.5L55.3998 6.6L56.3998 7.2L57.0998 8.1L56.9998 9.4V10.3L57.1998 14.7L57.0998 15.7L57.1998 16.9L56.9998 21.3L57.1998 24.2V25.3L57.0998 26.6L57.1998 32.9L57.0998 34.1L57.1998 36.1L57.0998 37.2L57.1998 39.4V41.5L57.0998 43V45.7L57.1998 46.5L57.0998 47.6V48.7L57.2998 49.6L57.3998 51.8L56.8998 52.6L55.9998 53.3L54.8998 53.4L53.9998 53.3Z" fill="white"/>
<path d="M66.2999 52.8L65.6999 51.8L65.5999 50.6L65.7999 49.5L65.6999 47.4L65.7999 46.3L65.6999 45.3L65.8999 43.1L65.6999 41.4L65.8999 38.5L65.6999 37.5L65.7999 34.2L65.8999 33.3L65.5999 27.4L65.6999 23.6L65.5999 20.7L65.6999 18.4L65.5999 16.7L65.6999 15.4L65.5999 14.3L65.6999 13.3V12.2L65.3999 9.1L65.4999 8L65.9999 7L67.4999 6.5L68.9999 6.7H69.9999L71.0999 7.2L71.7999 8L71.9999 8.9L72.0999 9.9L71.9999 10.9L72.0999 12L71.9999 13.1V24.9L72.5999 26L73.6999 26.5L74.6999 26.4L75.7999 26.6L76.8999 26.7L80.9999 26.4L82.1999 26.5L83.0999 26.6L84.1999 25.9L84.5999 24.7L84.7999 23.6L84.6999 22.5L84.7999 21.6L84.6999 20.7L84.7999 18.7L84.6999 17.5L84.7999 13.3L84.6999 10.1L84.7999 9L84.6999 8.1L85.1999 7L86.0999 6.3L87.1999 6.4L89.4999 6.5L90.4999 7L91.0999 8L90.9999 9.3V10.6L90.8999 12.7L90.9999 13.6L90.8999 17L90.9999 18.1L90.8999 19L91.0999 21.1L90.9999 23.3L91.0999 25.7L90.9999 26.6V31L91.0999 31.9L90.9999 35.2L91.1999 37.4L90.9999 38.4L90.8999 47.9L90.9999 48.7V49.6L91.0999 50.7L91.1999 51.8L90.6999 52.7L89.8999 53.4H88.7999L87.6999 53.3L86.4999 53.4L85.5999 53L84.9999 52L84.5999 50V48L84.4999 47L84.5999 45.8L84.3999 44.9L84.4999 43.2L84.3999 39.5L84.4999 38.3L84.3999 37.2L84.4999 33.9L83.8999 32.7L82.9999 32.2L81.4999 32.5H80.3999L78.8999 32.4H77.8999L76.1999 32.3L73.5999 32.4L72.6999 32.9L72.0999 33.9L71.9999 51.6L71.5999 52.8L70.4999 53.2H69.3999L68.4999 53.3L67.1999 53.4L66.2999 52.8Z" fill="white"/>
<path d="M163.7 52.7L163.3 51.4L163.2 47.4L163.3 46.4L163.2 44.9L163.3 37L163.2 35.8L163.3 33.9L163.1 28.4L163.2 27.2V26.2L163.1 25.1L163.2 23.1L163.1 17.8L163.3 16.7L163.2 14.7L163.3 13.7L163.2 12.4L163.3 11.6L163.2 8.6L163.7 7.2L164.8 6.6H165.9L166.8 6.7L167.9 6.6L169 6.7L170.1 6.6L171.2 6.7H172.3L173.2 6.6L174.2 6.5L175.3 6.7L176.3 6.6L179.5 6.7L181.7 6.6L183.6 6.7L184.7 6.5L185.8 6.7H186.9L187.9 7.4L188.5 8.5V11.4L188.6 12.5L188.4 17L188.6 17.9L188.4 18.8L188.5 19.9L188.4 22.3L188.5 23.3L188.4 24.2L188.5 25.5L188.4 26.5L188.5 28.6L188.4 31.7L188.5 32.9L188.4 34L188.6 37.1L188.5 38.2L188.6 39.3L188.3 44.6L188.5 45.8L188.6 46.7L188.5 47.8L188.4 48.7L188.7 51.8L188.1 52.9L187.3 53.2L185.1 53.3L183 53L182.4 52L182.3 51.2L182.1 50.1L182.2 49L182.1 46L182.2 44.7L182 40L182.1 38.2L182.2 37.3L182.3 36.2L182.2 34.2L182.3 25.6L182.2 24.7L182.3 19.2L182.2 17.1L182.3 16L182 15L182.1 13.9L181.6 13L180.5 12.3L178.4 12.5L175.3 12.2H174.2L173.3 12.5L172.2 12.3L171.3 12.4L170.2 12.9L169.7 14.4L169.6 16.1L169.8 19.3L169.7 20.2L169.8 24.6L169.6 25.7L169.8 26.8L169.7 28.8L169.9 29.8L169.8 32.9L169.9 34.1L169.7 35.1L169.8 36.1L169.9 37.3L169.7 38.4L169.8 39.4L169.9 40.5L169.8 41.6L169.9 43.5L169.7 45.2V46.7L169.9 49.4L169.8 51.3L169.1 53.1L168.1 53.6H166.5L165 53.7L163.7 52.7Z" fill="#F4A11B"/>
<path d="M194.6 53.3L193.7 52.8L193.4 51.9L193.8 50.9L195 45.4L195.3 44.5L195.4 43.4L195.7 42.2L196 40.2L196.4 39.2L196.8 37.1L197.3 35.2L197.4 34.1L197.7 33L198.8 28.9L199.2 26.6L200.9 19.5L201.2 18.4L201.9 15.3L202 14.3L202.3 12.6L202.8 11.3L202.9 10.1L203.1 8.9L203.5 7.8L204.2 6.9L205.4 6.5H207.7L209.4 6.4L211.1 7.1L212 8.1L213.3 13.2L213.5 14.3L214 16.4L214.2 17.5L214.5 18.4L214.6 19.5L214.9 20.4L215.2 21.5L215.3 22.6L215.7 23.6L216 25.8L216.7 27.9L216.8 28.8L217.5 31L218.2 35L218.6 36L218.9 37L219 38.1L219.3 39.3L219.4 40.4L221.1 47.7L221.2 48.6L221.6 49.6L222.1 51.8L221.8 52.7L221 53.2L220 53.3L218.1 53.4L217 53.3L215.9 52.7L215.3 51.8L214.8 50.1L214.7 49.2L214.3 47.7L214.1 46.5L213.8 45.4L213.7 44.3L213.1 42.1L212.4 41L211.2 40.5H210.1L208.1 40.6L204.8 40.5L203.8 40.6L202.7 41.1L202 42L201.7 43.2L201.6 44.3L201.3 45.4L200.7 47.3L200.4 48.5L200.2 49.4L200.1 50.7L199.8 51.7L199.1 52.8L197.9 53.4L197 53.3L195.4 53.4L194.6 53.3ZM207.5 34.8L210 35.1L211.4 34.6L211.7 33.5L211.5 32.4L211.4 31.5L211.1 30.4L211 29.4L210.7 28.5L209 20L208.9 19L208.4 15.5L208.1 14.5L207.8 14.4L207 20L206.7 21.1L206.3 24L204.2 33.6L204.4 34.5L205.3 35.2L207.5 34.8Z" fill="#F4A11B"/>
<path d="M227.4 52.8L226.9 51.6V50.5L227 49.6L226.9 48.5L227 45.7L226.9 43.2L227 42.3L226.9 41.2L227 40.2L226.9 38.5L227 37.4L226.9 33.7L227 32.5V28.5L226.9 27.2L227.1 26.3L226.9 24L227.1 23L227 21L227.1 18.7L227 17.7L226.9 16.7L227.1 15.6V14.5L227 13.4V12.3L227.2 11.4L227.1 10.5V9.2L226.9 8.2L227.5 7.1L228.6 6.6H232.9L234 6.7L235.2 6.4L236.7 6.5H237.7L239.4 6.8L240.5 6.7L242.2 7L243.7 7.5L244.6 8L245.6 8.3L246.5 9L247.3 9.7L248 10.2L248.7 10.9L250.3 13.8L251 15.9L251.5 19V23.3L251.2 25.9L250.8 27.4L250.3 28.5L250 29.6L249.5 30.4L248.8 31.4L248.3 32.3L246.3 34.2L244.9 35.1L244 35.6L242.9 35.9L242 36.4L241 36.7L239.9 37L238.8 37.1L237.1 37.3L236.1 37.2L234.7 37.3L233.7 37.9L233.2 39.1L233.3 41L233.2 42.2L233.4 43.7L233.3 45.4L233.4 46.5V47.6L233.3 48.6L233.4 50.7L233.3 51.8L233 52.9L231.2 53.5H229L227.4 52.8ZM240.1 31.1L241.2 30.4L242.1 29.9L242.9 29.2L243.6 28.4L244.4 26.5L244.9 24.6L245.2 20.1L244.7 18L244 15.9L243.4 14.8L242.8 14L241.2 12.9L240.3 12.4L239.1 12.2L237.6 12.1L235 12.2L233.9 12.7L233.4 13.7L233.3 18.3L233.4 20.8L233.3 27.7L233.4 28.8V29.9L233.8 31.2L235.6 31.5L237.2 31.6L240.1 31.1Z" fill="#F4A11B"/>
<path d="M276.2 52.8L275.2 52L274.7 50.9L274.4 49.8L273.9 48.7L273.4 47.7L273.1 46.6L272.7 45.8L271 41.6L270.4 40.8L270.1 39.5L269.2 37.7L269 36.5L268.6 35.6L268.1 34.7L267.6 33.8L266.9 31.9L265.9 31L264.8 30.8L263.8 31.7L263.4 32.8L263.3 33.8L263.4 45.3L263.3 46.4L263.5 48.5L263.4 49.3V50.4L263.5 51.5L262.8 52.5L261.9 53.1L260.8 53.2H258.7L257.7 52.5L257.2 51.6L257.1 50.3L257.2 49.2L257.3 48.3L257.2 47.2L257.3 43.9L257.1 42.7V41.6L257.2 40.6V37.5L257.1 36.4L257.2 35.3V28.9L257.1 27.8L257.2 26.7V24.5L257.1 23.3V22.4L257.2 21.4L257.1 11.8L257.2 10.9L257.1 9.8L257 8.8L256.9 7.9L257.4 6.8L258.3 6.5L259.3 6.4L261.4 6.1L262.5 6.7L263.4 7.6V10.6L263.6 11.5L263.4 12.7L263.7 13.6V14.8L263.6 16.5L263.7 18L263.6 19.2L263.5 22.6L263.7 23.6L264.2 24.5L265.1 24.6L266.7 23.5L267.6 22.8L270.3 19.7L271.3 17.8L271.8 16.9L272.3 15.9L272.6 15L273.8 11.9L274 11L274.1 9.9L274.6 7.6L275.3 6.5L276.6 6L277.7 5.9L278.6 6.1L279.7 5.9L280.6 6.6L280.9 7.6L280.8 8.9L280.4 9.8L280.3 10.9L280.1 11.8L279.6 12.9L278.7 16L278.2 16.9L277.8 18L276.3 20.9L275.8 21.8L275.1 22.5L273.9 24.4L273.1 25.1L272.6 26.4V27.8L274.1 31.6L274.4 32.7L275 33.6L275.3 34.4L275.8 35.4L276.6 37.5L277.1 38.4L277.5 39.3L277.8 40.5L278.3 41.2L278.6 42.3L279.3 44.3L279.8 45.2L280.2 46.4L280.7 47.3L281 48.3L281.5 49.2L281.8 50.3L282.2 51.1L282.1 52.3L281.2 52.6L277.8 52.7L276.2 52.8Z" fill="#F4A11B"/>
<path d="M310.7 53.3L309.6 53.4L308.4 53.1L307.8 52L307.5 50.2L307.4 41.7L307.6 40.6L307.4 39.2L307.5 36.5L307.4 35.3L307.5 34.3L307.3 31.1L307.4 30.1L307.3 28.8L307.6 22.6L307.7 21.5L307.6 20.3L307.9 18.4L307.8 16.3L307.5 16.2L306 21.5L305.5 22.6L305.2 23.7L304.7 24.7L304.3 26.2L304 27.7L303.6 28.7L303.3 29.6L302.9 30.8L302.7 31.8L301.9 33.9L301.6 35L301.1 35.9L300.4 37.9L300.2 38.8L299.7 39.8L299.4 40.9L296.9 47.8L296.7 48.9L296.2 49.9L295.9 50.8L295.6 51.9L294.8 52.9L293.5 53.3L289 53.4L287.7 53L287.2 51.8L287.3 44.2L287.2 43.3L287.4 42.2L287.3 40.1L287.4 39.1V37.9L287.3 36.9L287.4 35.8L287.3 32.5L287.4 31.6V28.3L287.2 27L287.4 26.1L287.3 25L287.4 24.1L287.3 22.9L287.5 15.4L287.3 14.4L287.2 13.5L287.3 12.5L287.2 8.6L287.4 7.5L288.5 6.9L289.5 7L290.6 6.9L291.6 7L292.8 7.4L293.4 8.1L293.6 9.2V10.2L293.7 11.3L293.6 12.4V14.5L293.7 15.6L293.6 18.7L293.7 20.9L293.6 23.3L293.8 31.8L293.7 32.7L293.8 34.4L293.7 37.1L293.5 38.2L293.4 39L293.5 40.1L293.4 41L293.2 42.1L293.4 43.9L293.7 44L293.9 43.1L294.6 41.1L294.7 40.1L296.2 35.5L296.5 34L296.8 32.9L297.1 32L297.4 30.9L300.5 21.8L300.8 20.7L301.3 19.8L301.5 18.8L302 17.9L302.4 16.8L302.6 15.8L303.6 12.5L304.3 10.8L304.9 8.5L305.8 7.6L306.9 6.9L308 7L310.1 6.9L312 7L313 7.6L313.7 8.5L313.6 9.8V10.7L313.8 15.1L313.7 16.1L314 17L313.8 21.4L314 24.3V25.4L313.9 26.7L314 33L313.9 34.2L314 36.2L313.9 37.3L314 39.5V41.6L313.9 43.1V45.8L314 46.6L313.9 47.7V48.8L314.1 49.7L314.2 51.9L313.7 52.7L312.8 53.4L311.7 53.5L310.7 53.3Z" fill="#F4A11B"/>
<path d="M323 52.8L322.4 51.8L322.3 50.6L322.5 49.5L322.4 47.4L322.5 46.3L322.4 45.3L322.6 43.1L322.4 41.4L322.6 38.5L322.4 37.5L322.5 34.2L322.6 33.3L322.3 27.4L322.4 23.6L322.3 20.7L322.4 18.4L322.3 16.7L322.4 15.4L322.3 14.3L322.4 13.3V12.2L322.1 9.1L322.2 8L322.7 7L324.2 6.5L325.7 6.6L326.8 6.5L327.9 7L328.5 7.8L328.8 8.7L328.9 9.7L328.8 10.7L328.9 11.8L328.8 12.9V24.7L329.4 25.8L330.5 26.3L331.5 26.2L332.6 26.4L333.7 26.5L337.8 26.2L339 26.3L339.9 26.4L341 25.7L341.4 24.5L341.6 23.4L341.5 22.3L341.6 21.4L341.5 20.5L341.6 18.5L341.5 17.3L341.6 13.1L341.5 9.9L341.6 8.8L341.5 7.9L342 6.8L342.9 6.1L344 6.2L346.3 6.3L347.3 6.8L347.9 7.8L347.8 8.7V10L347.7 12.1L347.8 13L347.7 16.4L347.8 17.5L347.7 18.4L347.9 20.5L347.8 22.7L347.9 25.1L347.8 26V31L347.9 31.9L347.8 35.2L348 37.4L347.9 38.5L347.8 48L347.9 48.8V49.7L348 50.8L348.1 51.9L347.6 52.8L346.8 53.5H345.7L344.6 53.4L343.4 53.5L342.5 53L341.8 52L341.5 50.1V48L341.4 47L341.5 45.8L341.3 44.9L341.4 43.2L341.3 39.5L341.4 38.3L341.3 37.2L341.4 33.9L340.8 32.7L339.7 32.2L338.2 32.5H337.1L335.6 32.4H334.6L332.9 32.3L330.3 32.4L329.4 32.9L328.8 33.9L328.7 51.7L328.3 52.9L327.2 53.3H326.1L325.2 53.4L323.9 53.5L323 52.8Z" fill="#F4A11B"/>
<path d="M356.7 53L356 52.1L355.9 47.9L355.8 47L355.7 41.6L355.8 40.6L355.7 39.6L355.8 38.3L355.7 36.1L355.8 35.2L355.7 32.7L355.8 29.8L355.7 28.6L355.8 27.6L355.6 26.5L355.7 24.8L355.6 23.9L355.7 11.5L355.5 10.4L355.6 8.8L356.1 7.4L357.3 6.7L358.4 6.6H359.3L361.7 6.8L362.6 6.7L363.9 6.6L367.6 6.8L370.4 6.5L371.3 6.7L372.5 6.6H374.6L375.6 7.2L376.3 8.3L376.4 9.6L376.3 10.6L375.8 11.9L374.7 12.2L373.4 12.3H372.3L371.2 12.4L368 12.1L366.3 12.3L364.6 12.1H363.5L362.5 12.6L361.9 13.8L362 14.9L361.8 15.9L362 18.1V19.2L361.8 20.1L361.9 21.2L361.8 22.3L362 23.4L361.8 38.2L362 39.2V44.5L361.8 45.4L362 46.7V48.6L361.9 49.6L362 50.7L362.2 51.6L361.8 52.5L360.8 53.2L357.6 53.3L356.7 53Z" fill="#F4A11B"/>
<path d="M127.2 0C110.9 0 97.6001 13.2 97.6001 29.6C97.6001 45.9 110.8 59.2 127.2 59.2C143.5 59.2 156.8 46 156.8 29.6C156.8 13.2 143.6 0 127.2 0ZM142.9 12.5C147.2 12.5 150.7 16 150.7 20.3C150.7 24.6 147.2 28.1 142.9 28.1C138.6 28.1 135.1 24.6 135.1 20.3C135.1 16 138.6 12.5 142.9 12.5ZM127.3 2.8C131.6 2.8 135.1 6.3 135.1 10.6C135.1 14.9 131.6 18.4 127.3 18.4C123 18.4 119.5 14.9 119.5 10.6C119.5 6.3 123 2.8 127.3 2.8ZM132.6 33.5C132.1 33.7 131.5 33.5 131.2 33C131 32.5 131.2 31.9 131.7 31.6C132.2 31.4 132.8 31.6 133.1 32.1C133.4 32.6 133.2 33.2 132.6 33.5ZM126.8 27.9C127.7 27.5 128.8 27.9 129.3 28.8C129.8 29.7 129.3 30.8 128.4 31.3C127.5 31.7 126.4 31.3 125.9 30.4C125.4 29.5 125.8 28.4 126.8 27.9ZM127.1 23C127.6 22.8 128.2 23 128.5 23.5C128.7 24 128.5 24.6 128 24.9C127.5 25.1 126.9 24.9 126.6 24.4C126.4 23.8 126.6 23.2 127.1 23ZM123.3 33.5C122.8 33.7 122.2 33.5 121.9 33C121.7 32.5 121.9 31.9 122.4 31.6C122.9 31.4 123.5 31.6 123.8 32.1C124.1 32.6 123.8 33.2 123.3 33.5ZM111.7 12.5C116 12.5 119.5 16 119.5 20.3C119.5 24.6 116 28.1 111.7 28.1C107.4 28.1 103.9 24.6 103.9 20.3C103.8 16.1 107.4 12.5 111.7 12.5ZM111.7 46.6C107.4 46.6 103.9 43.1 103.9 38.8C103.9 34.5 107.4 31 111.7 31C116 31 119.5 34.5 119.5 38.8C119.5 43.1 116 46.6 111.7 46.6ZM127.3 56.3C123 56.3 119.5 52.8 119.5 48.5C119.5 44.2 123 40.7 127.3 40.7C131.6 40.7 135.1 44.2 135.1 48.5C135.1 52.8 131.6 56.3 127.3 56.3ZM142.9 46.6C138.6 46.6 135.1 43.1 135.1 38.8C135.1 34.5 138.6 31 142.9 31C147.2 31 150.7 34.5 150.7 38.8C150.7 43.1 147.2 46.6 142.9 46.6Z" fill="white"/>
<path d="M5.1999 87.5H14.0999V90.7H1.8999V70.6H13.8999V73.8H5.1999V79H13.1999V82.1H5.1999V87.5Z" fill="white"/>
<path d="M32.4998 87.5H34.5998V94.5H31.2998V90.7H19.0998V94.5H15.7998V87.5H17.6998C18.8998 86 19.3998 83.7 19.3998 80.6V70.6H32.3998L32.4998 87.5ZM21.2998 87.5H29.0998V73.7H22.6998V80.7C22.6998 83.6 22.2998 85.9 21.2998 87.5Z" fill="white"/>
<path d="M49.2997 90.6V77L39.7997 90.6H37.1997V70.5H40.4997V84.1L49.9997 70.6H52.5997V90.7H49.2997V90.6Z" fill="white"/>
<path d="M68.2999 70.6H71.5999V90.7H68.2999V82H59.6999V90.7H56.3999V70.6H59.6999V78.8H68.2999V70.6Z" fill="white"/>
<path d="M84.7998 91C81.7998 91 79.2998 90 77.2998 88C75.2998 86 74.2998 83.5 74.2998 80.6C74.2998 77.7 75.2998 75.2 77.2998 73.2C79.2998 71.2 81.7998 70.2 84.7998 70.2C86.5998 70.2 88.2998 70.6 89.7998 71.5C91.2998 72.4 92.4998 73.5 93.3998 75L90.4998 76.7C89.9998 75.7 89.1998 74.9 88.1998 74.3C87.1998 73.7 85.9998 73.4 84.7998 73.4C82.6998 73.4 80.8998 74.1 79.5998 75.4C78.2998 76.8 77.5998 78.5 77.5998 80.6C77.5998 82.7 78.2998 84.4 79.5998 85.8C80.8998 87.2 82.6998 87.8 84.7998 87.8C86.0998 87.8 87.1998 87.5 88.1998 86.9C89.1998 86.3 89.9998 85.5 90.4998 84.5L93.3998 86.1C92.5998 87.6 91.3998 88.7 89.7998 89.6C88.3998 90.6 86.6998 91 84.7998 91Z" fill="white"/>
<path d="M109.5 70.6V73.8H103.9V90.7H100.6V73.8H94.8999V70.6H109.5Z" fill="white"/>
<path d="M123.6 80.2C124.5 80.7 125.2 81.3 125.7 82.1C126.2 82.9 126.4 83.8 126.4 84.9C126.4 86.5 125.8 87.9 124.7 89C123.5 90.1 122.1 90.6 120.4 90.6H111.8V70.6H119.8C121.4 70.6 122.8 71.1 124 72.2C125.1 73.3 125.7 74.6 125.7 76.2C125.6 77.9 124.9 79.2 123.6 80.2ZM119.7 73.7H115V79H119.7C120.4 79 121 78.7 121.5 78.2C122 77.7 122.2 77.1 122.2 76.3C122.2 75.6 122 74.9 121.5 74.4C121.1 73.9 120.5 73.7 119.7 73.7ZM120.4 87.5C121.2 87.5 121.8 87.2 122.3 86.7C122.8 86.2 123.1 85.5 123.1 84.7C123.1 83.9 122.8 83.3 122.3 82.7C121.8 82.2 121.1 81.9 120.4 81.9H115.1V87.5H120.4Z" fill="white"/>
<path d="M132.5 87.5H141.4V90.7H129.2V70.6H141.2V73.8H132.5V79H140.5V82.1H132.5V87.5Z" fill="white"/>
<path d="M156.2 70.6H159.5V90.7H156.2V82H147.6V90.7H144.3V70.6H147.6V78.8H156.2V70.6Z" fill="white"/>
<path d="M175.2 70.6H178.5V90.7H175.2V82H166.6V90.7H163.3V70.6H166.6V78.8H175.2V70.6Z" fill="white"/>
<path d="M182.3 90.6V70.6H185.6V77.5H189.7C191.6 77.5 193.2 78.1 194.4 79.4C195.7 80.7 196.3 82.2 196.3 84.1C196.3 86 195.7 87.5 194.4 88.8C193.1 90.1 191.5 90.7 189.7 90.7L182.3 90.6ZM185.6 87.5H189.7C190.7 87.5 191.5 87.2 192.1 86.5C192.7 85.8 193 85 193 84C193 83 192.7 82.2 192.1 81.5C191.5 80.8 190.7 80.5 189.7 80.5H185.6V87.5ZM198.3 90.6V70.5H201.6V90.6H198.3Z" fill="white"/>
<path d="M217.5 90.6V77L208 90.6H205.4V70.5H208.7V84.1L218.2 70.5H220.8V90.6H217.5ZM209.1 68.6V65.9H217.1V68.6H209.1Z" fill="white"/>
<path d="M244.3 80.2C245.2 80.7 245.9 81.3 246.4 82.1C246.9 82.9 247.1 83.8 247.1 84.9C247.1 86.5 246.5 87.9 245.4 89C244.2 90.1 242.8 90.6 241.1 90.6H232.5V70.6H240.5C242.1 70.6 243.5 71.1 244.7 72.2C245.8 73.3 246.4 74.6 246.4 76.2C246.3 77.9 245.7 79.2 244.3 80.2ZM240.5 73.7H235.8V79H240.5C241.2 79 241.8 78.7 242.3 78.2C242.8 77.7 243 77.1 243 76.3C243 75.5 242.8 74.9 242.3 74.4C241.8 73.9 241.2 73.7 240.5 73.7ZM241.1 87.5C241.9 87.5 242.5 87.2 243 86.7C243.5 86.2 243.8 85.5 243.8 84.7C243.8 83.9 243.5 83.3 243 82.7C242.5 82.2 241.8 81.9 241.1 81.9H235.8V87.5H241.1Z" fill="white"/>
<path d="M272.5 70.6V90.7H269.2V73.8H261V90.7H257.7V70.6H272.5Z" fill="white"/>
<path d="M279.6 87.5H288.5V90.7H276.3V70.6H288.3V73.8H279.6V79H287.6V82.1H279.6V87.5Z" fill="white"/>
<path d="M304.8 70.6V73.8H299.2V90.7H295.9V73.7H290.2V70.5L304.8 70.6Z" fill="white"/>
<path d="M310.3 87.5H319.2V90.7H307V70.6H319V73.8H310.3V79H318.3V82.1H310.3V87.5Z" fill="white"/>
<path d="M329.5 70.6C331.4 70.6 333 71.2 334.2 72.5C335.5 73.8 336.1 75.3 336.1 77.2C336.1 79.1 335.5 80.6 334.2 81.9C332.9 83.2 331.3 83.8 329.5 83.8H325.4V90.7H322.1V70.6H329.5ZM329.5 80.6C330.5 80.6 331.3 80.3 331.9 79.6C332.5 78.9 332.8 78.1 332.8 77.1C332.8 76.1 332.5 75.3 331.9 74.6C331.3 73.9 330.5 73.6 329.5 73.6H325.4V80.6H329.5Z" fill="white"/>
<path d="M346.1 78.3C348 78.3 349.5 78.9 350.7 80C351.9 81.2 352.5 82.6 352.5 84.4C352.5 86.2 351.9 87.6 350.7 88.8C349.5 90 347.9 90.5 346.1 90.5H338.5V70.6H350.8V73.8H341.8V78.4L346.1 78.3ZM346.1 87.5C347 87.5 347.7 87.2 348.3 86.7C348.9 86.1 349.2 85.4 349.2 84.5C349.2 83.6 348.9 82.8 348.3 82.3C347.7 81.7 346.9 81.5 346.1 81.5H341.8V87.6H346.1V87.5Z" fill="white"/>
<path d="M366 70.6H369.3L363.1 85.5C361.6 89.1 359.1 90.9 355.7 90.7V87.6C356.8 87.7 357.7 87.5 358.4 87.1C359.1 86.6 359.7 85.9 360.1 84.8L353.4 70.6H356.7L361.6 81.2L366 70.6Z" fill="white"/>
<path d="M378.9 70.6C380.8 70.6 382.4 71.2 383.6 72.5C384.9 73.8 385.5 75.3 385.5 77.2C385.5 79.1 384.9 80.6 383.6 81.9C382.3 83.2 380.7 83.8 378.9 83.8H374.8V90.7H371.5V70.6H378.9ZM378.9 80.6C379.9 80.6 380.7 80.3 381.3 79.6C381.9 78.9 382.2 78.1 382.2 77.1C382.2 76.1 381.9 75.3 381.3 74.6C380.7 73.9 379.9 73.6 378.9 73.6H374.8V80.6H378.9Z" fill="white"/>
<path d="M399.3 70.6V73.8H391.3V90.7H388V70.6H399.3Z" fill="white"/>
<path d="M404.8 87.5H413.7V90.7H401.5V70.6H413.5V73.8H404.8V79H412.8V82.1H404.8V87.5Z" fill="white"/>
</g>
<defs>
<clipPath id="clip0">
<rect width="413.7" height="94.5" fill="white"/>
</clipPath>
</defs>
</svg>
