<?xml version="1.0" encoding="utf-8"?>
<!-- Generator: Adobe Illustrator 19.2.0, SVG Export Plug-In . SVG Version: 6.00 Build 0)  -->
<svg version="1.1" id="Layer_1" xmlns="http://www.w3.org/2000/svg" xmlns:xlink="http://www.w3.org/1999/xlink" x="0px" y="0px"
	 viewBox="0 0 32 32" style="enable-background:new 0 0 32 32;" xml:space="preserve">
<style type="text/css">
	.st0{fill:#FFFFFF;}
</style>
<path class="st0" d="M20.2,16l9.9-9.9c1.2-1.2,1.2-3.1,0-4.2c-1.2-1.2-3.1-1.2-4.2,0L16,11.8L6.1,1.9C4.9,0.7,3,0.7,1.9,1.9
	C0.7,3,0.7,4.9,1.9,6.1l9.9,9.9l-9.9,9.9c-1.2,1.2-1.2,3.1,0,4.2C2.5,30.7,3.2,31,4,31s1.5-0.3,2.1-0.9l9.9-9.9l9.9,9.9
	c0.6,0.6,1.3,0.9,2.1,0.9c0.8,0,1.5-0.3,2.1-0.9c1.2-1.2,1.2-3.1,0-4.2L20.2,16z"/>
</svg>
