<svg width="13" height="9" viewBox="0 0 13 9" fill="none" xmlns="http://www.w3.org/2000/svg">
<path d="M0.503052 1.413L6.5008 4.4115L12.4986 1.413C12.4763 1.03083 12.3089 0.671616 12.0304 0.40892C11.752 0.146224 11.3836 -7.01885e-05 11.0008 2.52625e-08H2.0008C1.61799 -7.01885e-05 1.24964 0.146224 0.971185 0.40892C0.692733 0.671616 0.525255 1.03083 0.503052 1.413Z" fill="#DD161B"/>
<path d="M12.5 3.0885L6.5 6.0885L0.5 3.0885V7.5C0.5 7.89783 0.658035 8.27936 0.93934 8.56066C1.22064 8.84197 1.60218 9 2 9H11C11.3978 9 11.7794 8.84197 12.0607 8.56066C12.342 8.27936 12.5 7.89783 12.5 7.5V3.0885Z" fill="#DD161B"/>
</svg>
