<svg width="20" height="20" viewBox="0 0 20 20" fill="none" xmlns="http://www.w3.org/2000/svg">
<path d="M8.45554 11.4665C9.61526 12.643 11.0185 13.5513 12.5667 14.1276L14.6611 12.461C14.7232 12.4182 14.7968 12.3953 14.8722 12.3953C14.9476 12.3953 15.0212 12.4182 15.0833 12.461L18.9722 14.9665C19.1199 15.0553 19.2448 15.1772 19.3373 15.3225C19.4297 15.4679 19.4871 15.6327 19.5049 15.8041C19.5227 15.9754 19.5004 16.1486 19.4397 16.3098C19.3791 16.4711 19.2818 16.616 19.1555 16.7332L17.3333 18.5332C17.0724 18.791 16.7516 18.9803 16.3997 19.084C16.0478 19.1877 15.6757 19.2027 15.3167 19.1276C11.7345 18.3878 8.43284 16.6551 5.78888 14.1276C3.20359 11.575 1.41458 8.32699 0.638876 4.77763C0.562246 4.4241 0.57824 4.05677 0.685307 3.71123C0.792374 3.36569 0.986884 3.05368 1.24999 2.80541L3.13888 0.983188C3.25576 0.86307 3.39831 0.770952 3.55585 0.713732C3.71338 0.656511 3.88182 0.635671 4.04855 0.652771C4.21528 0.669872 4.37598 0.72447 4.51862 0.812477C4.66126 0.900485 4.78214 1.01962 4.87221 1.16097L7.4611 4.99986C7.50575 5.06014 7.52986 5.13317 7.52986 5.20819C7.52986 5.28321 7.50575 5.35624 7.4611 5.41652L5.75554 7.46652C6.34753 8.98371 7.26984 10.3501 8.45554 11.4665Z" fill="white"/>
</svg>
