<svg width="17" height="13" viewBox="0 0 17 13" fill="none" xmlns="http://www.w3.org/2000/svg">
<path d="M0.903076 2.5896L8.50023 6.3877L16.0974 2.5896C16.0693 2.10553 15.8571 1.65052 15.5044 1.31777C15.1517 0.985022 14.6851 0.799716 14.2002 0.799805H2.80023C2.31533 0.799716 1.84875 0.985022 1.49604 1.31777C1.14334 1.65052 0.9312 2.10553 0.903076 2.5896Z" fill="white"/>
<path d="M16.1 4.71191L8.50002 8.51191L0.900024 4.71191V10.2998C0.900024 10.8037 1.1002 11.287 1.45652 11.6433C1.81284 11.9996 2.29611 12.1998 2.80002 12.1998H14.2C14.7039 12.1998 15.1872 11.9996 15.5435 11.6433C15.8998 11.287 16.1 10.8037 16.1 10.2998V4.71191Z" fill="white"/>
</svg>
