<svg width="629" height="416" viewBox="0 0 629 416" fill="none" xmlns="http://www.w3.org/2000/svg">
<g clip-path="url(#clip0)">
<path d="M613.163 231.671C612.302 231.172 611.561 230.491 610.991 229.675C610.422 228.858 610.038 227.927 609.866 226.946C609.695 225.965 609.74 224.958 610 223.996C610.259 223.035 610.725 222.142 611.366 221.38L604.273 169.454L619.049 170.181L621.369 220.829C622.575 221.992 623.314 223.558 623.444 225.231C623.574 226.903 623.088 228.565 622.076 229.901C621.064 231.238 619.598 232.156 617.955 232.482C616.313 232.809 614.608 232.52 613.163 231.671Z" fill="#FFB9B9"/>
<path d="M621.077 170.869C620.774 171.226 620.386 171.501 619.949 171.668L606.67 176.743C606.003 176.998 605.264 176.988 604.605 176.713C603.946 176.439 603.417 175.922 603.127 175.269L591.364 148.794C590.234 146.339 590.042 143.554 590.823 140.966C591.401 139.119 592.465 137.462 593.904 136.17C595.344 134.877 597.104 133.998 599 133.624C600.459 133.323 601.965 133.345 603.414 133.687C605.151 134.074 606.764 134.89 608.107 136.059C609.45 137.228 610.48 138.714 611.105 140.382L621.564 168.071C621.739 168.539 621.786 169.044 621.701 169.536C621.615 170.028 621.4 170.488 621.077 170.869Z" fill="#8800FF"/>
<path d="M551.881 358.41H542.694L539.361 322.753L551.881 322.921V358.41Z" fill="#FFB9B9"/>
<path d="M536.132 355.782H553.847V366.955H524.973C524.973 363.992 526.149 361.15 528.241 359.054C530.333 356.959 533.171 355.782 536.13 355.782H536.132Z" fill="#2F2E41"/>
<path d="M594.596 358.411H585.409L581.038 322.921H594.597L594.596 358.411Z" fill="#FFB9B9"/>
<path d="M578.847 355.782H596.562V366.955H567.688C567.688 363.992 568.864 361.15 570.956 359.054C573.048 356.959 575.886 355.782 578.845 355.782H578.847Z" fill="#2F2E41"/>
<path d="M595.752 345.784L581.324 344.714C580.503 344.653 579.732 344.294 579.157 343.704C578.581 343.114 578.241 342.333 578.2 341.509L574.983 274.916C574.952 274.278 574.69 273.672 574.245 273.213C573.8 272.754 573.203 272.474 572.566 272.424C571.929 272.375 571.296 272.56 570.786 272.944C570.276 273.329 569.923 273.887 569.794 274.513L556.373 340.114C556.207 340.921 555.752 341.639 555.094 342.134C554.436 342.629 553.621 342.867 552.8 342.802L539.757 341.757C539.315 341.721 538.885 341.599 538.491 341.398C538.096 341.196 537.746 340.918 537.458 340.581C537.171 340.243 536.953 339.852 536.817 339.43C536.681 339.008 536.629 338.564 536.664 338.121C536.666 338.099 536.668 338.077 536.67 338.055L548.771 216.865C548.818 216.392 548.965 215.933 549.201 215.521C549.438 215.108 549.759 214.75 550.144 214.47C550.528 214.19 550.967 213.995 551.433 213.897C551.898 213.799 552.378 213.8 552.843 213.902L598.859 223.92C599.621 224.087 600.301 224.513 600.785 225.126C601.269 225.738 601.527 226.499 601.515 227.28L599.372 342.479C599.355 343.362 598.994 344.204 598.365 344.823C597.736 345.443 596.89 345.791 596.008 345.794C595.923 345.793 595.838 345.79 595.752 345.784Z" fill="#2F2E41"/>
<path d="M583.128 115.537C593.293 115.537 601.533 107.284 601.533 97.1037C601.533 86.9233 593.293 78.6705 583.128 78.6705C572.963 78.6705 564.722 86.9233 564.722 97.1037C564.722 107.284 572.963 115.537 583.128 115.537Z" fill="#FFB9B9"/>
<path d="M554.571 226.212C552.801 224.623 551.396 222.668 550.452 220.483C549.509 218.298 549.049 215.934 549.105 213.554C549.105 187.06 572.003 127.867 572.721 126.023C572.788 125.578 573.392 125.386 576.564 123.241C579.737 121.097 584.31 120.766 590.158 122.262C590.752 122.414 591.294 122.727 591.723 123.166C592.153 123.605 592.453 124.154 592.593 124.752L593.681 126.326C593.776 126.726 593.963 127.097 594.228 127.411C594.492 127.725 594.827 127.972 595.204 128.132C599.92 130.122 614.912 139.298 609.803 173.832C605.058 205.911 603.132 224.774 602.525 231.4C602.453 232.186 602.109 232.922 601.551 233.479C600.993 234.037 600.258 234.381 599.473 234.451C597.161 234.658 593.192 234.934 588.468 234.934C577.507 234.931 562.477 233.452 554.571 226.212Z" fill="#8800FF"/>
<path d="M532.577 216.397C532.139 215.503 531.903 214.523 531.884 213.527C531.865 212.531 532.064 211.543 532.468 210.633C532.872 209.723 533.47 208.912 534.22 208.258C534.97 207.604 535.855 207.123 536.811 206.849L559.812 159.773L571.677 168.622L545.424 211.973C545.779 213.613 545.521 215.325 544.699 216.787C543.877 218.248 542.548 219.357 540.964 219.902C539.38 220.447 537.652 220.392 536.106 219.746C534.56 219.1 533.305 217.908 532.578 216.397H532.577Z" fill="#FFB9B9"/>
<path d="M572.976 170.328C572.525 170.456 572.05 170.468 571.595 170.362L557.744 167.167C557.048 167.006 556.441 166.585 556.046 165.989C555.651 165.394 555.499 164.669 555.622 163.965L560.587 135.417C561.016 132.748 562.406 130.328 564.494 128.615C566.001 127.403 567.807 126.621 569.721 126.352C571.635 126.082 573.586 126.334 575.368 127.082C576.747 127.646 577.986 128.504 578.999 129.596C580.225 130.888 581.111 132.465 581.575 134.185C582.04 135.905 582.069 137.714 581.66 139.448L574.938 168.274C574.823 168.761 574.581 169.208 574.236 169.569C573.891 169.93 573.456 170.192 572.975 170.328H572.976Z" fill="#8800FF"/>
<path d="M578.818 113.759C577.923 112.843 577.261 111.725 576.891 110.498C576.52 109.271 576.451 107.973 576.69 106.714C577.332 103.354 577.709 101.153 577.781 100.352C578.025 97.6152 575.262 95.3987 572.528 95.0432C572.422 95.0291 572.333 95.0203 572.26 95.0143C572.327 95.0815 572.404 95.1527 572.47 95.2159C572.989 95.7045 573.635 96.3127 573.482 96.9404C573.389 97.3181 573.044 97.5863 572.427 97.759C568.151 98.9573 564.858 97.8571 562.063 94.2945C561.277 93.2821 560.737 92.1007 560.485 90.8435C559.484 85.924 562.152 81.7304 564.566 79.0791C566.557 76.8929 569.784 74.2403 573.854 74.0118C577.019 73.835 580.783 75.659 581.907 78.946C582.438 78.1583 583.145 77.5053 583.972 77.0388C584.799 76.5722 585.723 76.3048 586.671 76.2578C588.832 76.2109 590.959 76.8033 592.785 77.9608C601.71 83.0805 605.545 95.2771 601.16 104.594C598.402 110.456 592.427 114.819 585.566 115.981C585.136 116.054 584.702 116.091 584.266 116.091C583.247 116.09 582.24 115.882 581.303 115.482C580.366 115.082 579.52 114.497 578.814 113.761L578.818 113.759Z" fill="#2F2E41"/>
<path d="M497.475 368H628.329C628.507 368 628.678 367.929 628.804 367.803C628.929 367.677 629 367.506 629 367.328C629 367.15 628.929 366.979 628.804 366.853C628.678 366.727 628.507 366.656 628.329 366.656H497.475C497.297 366.656 497.126 366.727 497 366.853C496.874 366.979 496.803 367.15 496.803 367.328C496.803 367.506 496.874 367.677 497 367.803C497.126 367.929 497.297 368 497.475 368Z" fill="#3F3D56"/>
<path opacity="0.3" d="M112.87 272.385C120.972 272.385 127.54 265.807 127.54 257.693C127.54 249.578 120.972 243 112.87 243C104.767 243 98.1993 249.578 98.1993 257.693C98.1993 265.807 104.767 272.385 112.87 272.385Z" fill="#F5D152"/>
<path d="M111.416 263.297C111.086 263.297 110.764 263.191 110.5 262.992L110.484 262.98L107.036 260.336C106.723 260.086 106.521 259.722 106.472 259.324C106.423 258.925 106.533 258.524 106.777 258.205C107.02 257.886 107.379 257.676 107.776 257.619C108.173 257.562 108.576 257.663 108.899 257.901L111.132 259.616L116.41 252.723C116.657 252.401 117.022 252.189 117.424 252.136C117.827 252.083 118.234 252.192 118.556 252.439L118.557 252.44L118.524 252.484L118.558 252.44C118.879 252.688 119.09 253.054 119.143 253.457C119.196 253.86 119.087 254.268 118.841 254.591L112.634 262.699C112.49 262.886 112.305 263.037 112.094 263.141C111.883 263.245 111.65 263.298 111.415 263.298L111.416 263.297Z" fill="white"/>
<path d="M154.096 292.142C153.791 291.418 153.281 290.799 152.629 290.362C151.977 289.925 151.211 289.689 150.426 289.683H77.174C76.1211 289.684 75.1114 290.103 74.3669 290.849C73.6224 291.594 73.2039 292.605 73.2034 293.66V386.466C73.2039 387.521 73.6224 388.532 74.3669 389.278C75.1114 390.023 76.1211 390.443 77.174 390.443H150.426C151.479 390.442 152.488 390.022 153.232 389.277C153.977 388.531 154.396 387.521 154.397 386.466V293.66C154.399 293.139 154.296 292.623 154.096 292.142ZM153.515 386.467C153.514 387.287 153.188 388.072 152.609 388.651C152.031 389.231 151.247 389.557 150.428 389.559H77.174C76.3553 389.559 75.5702 389.233 74.9913 388.653C74.4124 388.073 74.0871 387.287 74.0871 386.467V293.66C74.0887 292.84 74.4145 292.055 74.993 291.476C75.5716 290.896 76.3558 290.57 77.174 290.568H150.426C151.044 290.571 151.646 290.758 152.157 291.105C152.668 291.452 153.063 291.944 153.294 292.517C153.339 292.631 153.377 292.748 153.41 292.866C153.48 293.126 153.516 293.395 153.516 293.665L153.515 386.467Z" fill="#CCCCCC"/>
<path opacity="0.3" d="M138.807 311.595H116.743C116.275 311.595 115.826 311.409 115.495 311.077C115.164 310.746 114.978 310.296 114.978 309.827C114.978 309.358 115.164 308.909 115.495 308.577C115.826 308.246 116.275 308.059 116.743 308.059H138.806C139.275 308.059 139.724 308.246 140.055 308.577C140.386 308.909 140.572 309.358 140.572 309.827C140.572 310.296 140.386 310.746 140.055 311.077C139.724 311.409 139.275 311.595 138.806 311.595H138.807Z" fill="#8800FF"/>
<path opacity="0.3" d="M138.807 320.876H116.743C116.275 320.876 115.826 320.69 115.495 320.358C115.164 320.027 114.978 319.577 114.978 319.108C114.978 318.639 115.164 318.19 115.495 317.858C115.826 317.527 116.275 317.34 116.743 317.34H138.806C139.275 317.34 139.724 317.527 140.055 317.858C140.386 318.19 140.572 318.639 140.572 319.108C140.572 319.577 140.386 320.027 140.055 320.358C139.724 320.69 139.275 320.876 138.806 320.876H138.807Z" fill="#8800FF"/>
<path opacity="0.3" d="M105.422 326.161H89.2978C88.7713 326.16 88.2666 325.95 87.8943 325.578C87.522 325.205 87.3127 324.699 87.3121 324.172V305.116C87.3127 304.589 87.522 304.083 87.8943 303.71C88.2666 303.337 88.7713 303.128 89.2978 303.127H105.422C105.948 303.128 106.453 303.338 106.825 303.71C107.197 304.083 107.407 304.589 107.407 305.116V324.172C107.407 324.699 107.197 325.205 106.825 325.578C106.453 325.95 105.948 326.16 105.422 326.161Z" fill="#F5D152"/>
<path d="M138.653 339.879H88.7898C88.3216 339.879 87.8727 339.693 87.5416 339.362C87.2106 339.03 87.0246 338.58 87.0246 338.111C87.0246 337.643 87.2106 337.193 87.5416 336.861C87.8727 336.53 88.3216 336.344 88.7898 336.344H138.653C139.122 336.344 139.571 336.53 139.902 336.861C140.233 337.193 140.419 337.643 140.419 338.111C140.419 338.58 140.233 339.03 139.902 339.362C139.571 339.693 139.122 339.879 138.653 339.879Z" fill="#CCCCCC"/>
<path d="M138.653 349.163H88.7898C88.3216 349.163 87.8727 348.977 87.5416 348.645C87.2106 348.314 87.0246 347.864 87.0246 347.395C87.0246 346.926 87.2106 346.477 87.5416 346.145C87.8727 345.814 88.3216 345.627 88.7898 345.627H138.653C139.122 345.627 139.571 345.814 139.902 346.145C140.233 346.477 140.419 346.926 140.419 347.395C140.419 347.864 140.233 348.314 139.902 348.645C139.571 348.977 139.122 349.163 138.653 349.163Z" fill="#CCCCCC"/>
<path d="M138.653 358.441H88.7898C88.3216 358.441 87.8727 358.255 87.5416 357.923C87.2106 357.592 87.0246 357.142 87.0246 356.673C87.0246 356.204 87.2106 355.755 87.5416 355.423C87.8727 355.091 88.3216 354.905 88.7898 354.905H138.653C139.122 354.905 139.571 355.091 139.902 355.423C140.233 355.755 140.419 356.204 140.419 356.673C140.419 357.142 140.233 357.592 139.902 357.923C139.571 358.255 139.122 358.441 138.653 358.441Z" fill="#CCCCCC"/>
<path d="M138.653 367.724H88.7898C88.3216 367.724 87.8727 367.538 87.5416 367.206C87.2106 366.875 87.0246 366.425 87.0246 365.956C87.0246 365.487 87.2106 365.038 87.5416 364.706C87.8727 364.375 88.3216 364.188 88.7898 364.188H138.653C139.122 364.188 139.571 364.375 139.902 364.706C140.233 365.038 140.419 365.487 140.419 365.956C140.419 366.425 140.233 366.875 139.902 367.206C139.571 367.538 139.122 367.724 138.653 367.724Z" fill="#CCCCCC"/>
<path d="M138.653 377.003H88.7898C88.3216 377.003 87.8727 376.816 87.5416 376.485C87.2106 376.153 87.0246 375.704 87.0246 375.235C87.0246 374.766 87.2106 374.316 87.5416 373.985C87.8727 373.653 88.3216 373.467 88.7898 373.467H138.653C139.122 373.467 139.571 373.653 139.902 373.985C140.233 374.316 140.419 374.766 140.419 375.235C140.419 375.704 140.233 376.153 139.902 376.485C139.571 376.816 139.122 377.003 138.653 377.003Z" fill="#CCCCCC"/>
<path d="M61.5311 390.831H164.493C164.633 390.831 164.767 390.775 164.866 390.676C164.965 390.577 165.021 390.442 165.021 390.302C165.021 390.162 164.965 390.027 164.866 389.928C164.767 389.829 164.633 389.773 164.493 389.773H61.5311C61.4618 389.773 61.393 389.786 61.3288 389.812C61.2646 389.838 61.2061 389.877 61.1568 389.926C61.1075 389.975 61.0683 390.033 61.0414 390.097C61.0145 390.161 61.0004 390.229 61 390.299C60.9996 390.368 61.0129 390.437 61.0391 390.501C61.0652 390.566 61.1038 390.624 61.1526 390.674C61.2013 390.723 61.2593 390.762 61.3233 390.789C61.3872 390.816 61.4558 390.83 61.5251 390.831H61.5311Z" fill="#CCCCCC"/>
<path opacity="0.3" d="M460.87 116.385C468.972 116.385 475.54 109.807 475.54 101.693C475.54 93.5781 468.972 87 460.87 87C452.767 87 446.199 93.5781 446.199 101.693C446.199 109.807 452.767 116.385 460.87 116.385Z" fill="#F5526F"/>
<path d="M459.415 107.297C459.086 107.297 458.764 107.191 458.5 106.992L458.484 106.98L455.036 104.336C454.723 104.086 454.52 103.722 454.472 103.324C454.423 102.925 454.533 102.524 454.776 102.205C455.02 101.886 455.379 101.676 455.776 101.619C456.173 101.562 456.576 101.663 456.899 101.901L459.132 103.616L464.409 96.7233C464.657 96.4006 465.022 96.1893 465.424 96.1361C465.827 96.0828 466.234 96.192 466.556 96.4394L466.557 96.4397L466.524 96.4841L466.557 96.4404C466.879 96.6883 467.09 97.0539 467.143 97.4571C467.196 97.8602 467.087 98.268 466.841 98.591L460.633 106.699C460.49 106.886 460.305 107.037 460.094 107.141C459.883 107.245 459.65 107.298 459.415 107.298L459.415 107.297Z" fill="white"/>
<path d="M502.096 136.142C501.791 135.418 501.281 134.799 500.629 134.362C499.977 133.925 499.211 133.689 498.426 133.683H425.174C424.121 133.684 423.111 134.103 422.367 134.849C421.622 135.594 421.204 136.605 421.203 137.66V230.466C421.204 231.521 421.622 232.532 422.367 233.278C423.111 234.023 424.121 234.443 425.174 234.443H498.426C499.479 234.442 500.488 234.022 501.232 233.277C501.977 232.531 502.395 231.521 502.397 230.466V137.66C502.398 137.139 502.296 136.623 502.096 136.142ZM501.515 230.467C501.514 231.287 501.188 232.072 500.609 232.651C500.031 233.231 499.246 233.557 498.428 233.559H425.174C424.769 233.559 424.367 233.479 423.993 233.323C423.618 233.168 423.278 232.94 422.991 232.653C422.705 232.366 422.477 232.025 422.322 231.65C422.167 231.275 422.087 230.873 422.087 230.467V137.66C422.089 136.84 422.414 136.055 422.993 135.476C423.571 134.896 424.356 134.57 425.174 134.568H498.426C499.044 134.571 499.646 134.758 500.157 135.105C500.668 135.452 501.063 135.944 501.294 136.517C501.339 136.631 501.377 136.748 501.41 136.866C501.48 137.126 501.516 137.395 501.516 137.665L501.515 230.467Z" fill="#CCCCCC"/>
<path opacity="0.3" d="M486.807 155.595H464.743C464.275 155.595 463.826 155.409 463.495 155.077C463.164 154.746 462.978 154.296 462.978 153.827C462.978 153.358 463.164 152.909 463.495 152.577C463.826 152.246 464.275 152.059 464.743 152.059H486.806C487.275 152.059 487.724 152.246 488.055 152.577C488.386 152.909 488.572 153.358 488.572 153.827C488.572 154.296 488.386 154.746 488.055 155.077C487.724 155.409 487.275 155.595 486.806 155.595H486.807Z" fill="#8800FF"/>
<path opacity="0.3" d="M486.807 164.876H464.743C464.275 164.876 463.826 164.69 463.495 164.358C463.164 164.027 462.978 163.577 462.978 163.108C462.978 162.639 463.164 162.19 463.495 161.858C463.826 161.527 464.275 161.34 464.743 161.34H486.806C487.275 161.34 487.724 161.527 488.055 161.858C488.386 162.19 488.572 162.639 488.572 163.108C488.572 163.577 488.386 164.027 488.055 164.358C487.724 164.69 487.275 164.876 486.806 164.876H486.807Z" fill="#8800FF"/>
<path opacity="0.3" d="M453.422 170.161H437.298C436.771 170.16 436.267 169.95 435.894 169.578C435.522 169.205 435.313 168.699 435.312 168.172V149.116C435.313 148.589 435.522 148.083 435.894 147.71C436.267 147.337 436.771 147.128 437.298 147.127H453.422C453.948 147.128 454.453 147.338 454.825 147.71C455.197 148.083 455.407 148.589 455.407 149.116V168.172C455.407 168.699 455.197 169.205 454.825 169.578C454.453 169.95 453.948 170.16 453.422 170.161Z" fill="#F5526F"/>
<path d="M486.653 183.879H436.79C436.322 183.879 435.873 183.693 435.542 183.362C435.211 183.03 435.025 182.58 435.025 182.111C435.025 181.643 435.211 181.193 435.542 180.861C435.873 180.53 436.322 180.344 436.79 180.344H486.653C487.122 180.344 487.571 180.53 487.902 180.861C488.233 181.193 488.419 181.643 488.419 182.111C488.419 182.58 488.233 183.03 487.902 183.362C487.571 183.693 487.122 183.879 486.653 183.879Z" fill="#CCCCCC"/>
<path d="M486.653 193.163H436.79C436.322 193.163 435.873 192.977 435.542 192.645C435.211 192.314 435.025 191.864 435.025 191.395C435.025 190.926 435.211 190.477 435.542 190.145C435.873 189.814 436.322 189.627 436.79 189.627H486.653C487.122 189.627 487.571 189.814 487.902 190.145C488.233 190.477 488.419 190.926 488.419 191.395C488.419 191.864 488.233 192.314 487.902 192.645C487.571 192.977 487.122 193.163 486.653 193.163Z" fill="#CCCCCC"/>
<path d="M486.653 202.441H436.79C436.322 202.441 435.873 202.255 435.542 201.923C435.211 201.592 435.025 201.142 435.025 200.673C435.025 200.204 435.211 199.755 435.542 199.423C435.873 199.091 436.322 198.905 436.79 198.905H486.653C487.122 198.905 487.571 199.091 487.902 199.423C488.233 199.755 488.419 200.204 488.419 200.673C488.419 201.142 488.233 201.592 487.902 201.923C487.571 202.255 487.122 202.441 486.653 202.441Z" fill="#CCCCCC"/>
<path d="M486.653 211.724H436.79C436.322 211.724 435.873 211.538 435.542 211.206C435.211 210.875 435.025 210.425 435.025 209.956C435.025 209.487 435.211 209.038 435.542 208.706C435.873 208.375 436.322 208.188 436.79 208.188H486.653C487.122 208.188 487.571 208.375 487.902 208.706C488.233 209.038 488.419 209.487 488.419 209.956C488.419 210.425 488.233 210.875 487.902 211.206C487.571 211.538 487.122 211.724 486.653 211.724Z" fill="#CCCCCC"/>
<path d="M486.653 221.003H436.79C436.322 221.003 435.873 220.816 435.542 220.485C435.211 220.153 435.025 219.704 435.025 219.235C435.025 218.766 435.211 218.316 435.542 217.985C435.873 217.653 436.322 217.467 436.79 217.467H486.653C487.122 217.467 487.571 217.653 487.902 217.985C488.233 218.316 488.419 218.766 488.419 219.235C488.419 219.704 488.233 220.153 487.902 220.485C487.571 220.816 487.122 221.003 486.653 221.003Z" fill="#CCCCCC"/>
<path d="M409.531 234.831H512.493C512.633 234.831 512.767 234.775 512.866 234.676C512.965 234.577 513.021 234.442 513.021 234.302C513.021 234.162 512.965 234.027 512.866 233.928C512.767 233.829 512.633 233.773 512.493 233.773H409.531C409.462 233.773 409.393 233.786 409.329 233.812C409.265 233.838 409.206 233.877 409.157 233.926C409.107 233.975 409.068 234.033 409.041 234.097C409.014 234.161 409 234.229 409 234.299C409 234.368 409.013 234.437 409.039 234.501C409.065 234.566 409.104 234.624 409.153 234.674C409.201 234.723 409.259 234.762 409.323 234.789C409.387 234.816 409.456 234.83 409.525 234.831H409.531Z" fill="#CCCCCC"/>
<g filter="url(#filter0_d)">
<rect x="274" y="167" width="83" height="116" rx="5" fill="white"/>
</g>
<rect x="264" y="156" width="103" height="127" rx="5" fill="white"/>
<rect x="264" y="156" width="103" height="127" rx="5" fill="white"/>
<path d="M366.873 158.907C366.486 157.986 365.838 157.2 365.009 156.644C364.18 156.089 363.207 155.789 362.209 155.782H269.118C267.78 155.783 266.497 156.315 265.551 157.263C264.604 158.211 264.072 159.496 264.072 160.836V278.782C264.072 280.122 264.604 281.407 265.551 282.355C266.497 283.303 267.78 283.835 269.118 283.836H362.213C363.551 283.834 364.833 283.301 365.779 282.354C366.725 281.406 367.257 280.122 367.259 278.782V160.836C367.261 160.174 367.131 159.518 366.876 158.907H366.873ZM366.135 278.782C366.134 279.825 365.72 280.824 364.984 281.561C364.248 282.298 363.25 282.713 362.209 282.714H269.118C268.077 282.714 267.079 282.299 266.343 281.562C265.607 280.825 265.193 279.825 265.192 278.783V160.837C265.194 159.794 265.608 158.795 266.344 158.058C267.08 157.321 268.077 156.906 269.118 156.905H362.213C362.997 156.908 363.762 157.145 364.411 157.585C365.06 158.026 365.563 158.65 365.856 159.378C365.914 159.523 365.963 159.671 366.004 159.822C366.093 160.153 366.138 160.494 366.138 160.837L366.135 278.782Z" fill="#1B0033"/>
<path d="M347.446 183.629H319.406C318.811 183.629 318.24 183.392 317.82 182.971C317.399 182.549 317.163 181.978 317.163 181.382C317.163 180.786 317.399 180.215 317.82 179.793C318.24 179.372 318.811 179.135 319.406 179.135H347.446C348.041 179.135 348.612 179.372 349.033 179.793C349.453 180.215 349.69 180.786 349.69 181.382C349.69 181.978 349.453 182.549 349.033 182.971C348.612 183.392 348.041 183.629 347.446 183.629Z" fill="#8800FF"/>
<path d="M347.446 195.423H319.406C318.811 195.423 318.24 195.187 317.82 194.765C317.399 194.344 317.163 193.773 317.163 193.177C317.163 192.581 317.399 192.009 317.82 191.588C318.24 191.167 318.811 190.93 319.406 190.93H347.446C348.041 190.93 348.612 191.167 349.033 191.588C349.453 192.009 349.69 192.581 349.69 193.177C349.69 193.773 349.453 194.344 349.033 194.765C348.612 195.187 348.041 195.423 347.446 195.423Z" fill="#8800FF"/>
<path d="M305.019 202.139H284.527C283.858 202.139 283.216 201.872 282.743 201.398C282.27 200.924 282.004 200.282 282.003 199.612V175.393C282.004 174.723 282.27 174.081 282.743 173.607C283.216 173.133 283.858 172.866 284.527 172.866H305.019C305.688 172.866 306.329 173.133 306.802 173.607C307.275 174.081 307.542 174.723 307.542 175.393V199.612C307.542 200.282 307.275 200.924 306.802 201.398C306.329 201.872 305.688 202.139 305.019 202.139Z" fill="#5FEE3C"/>
<path d="M347.252 219.574H283.88C283.286 219.574 282.715 219.338 282.294 218.916C281.874 218.495 281.637 217.924 281.637 217.328C281.637 216.732 281.874 216.161 282.294 215.739C282.715 215.318 283.286 215.081 283.88 215.081H347.252C347.546 215.081 347.838 215.139 348.11 215.252C348.382 215.365 348.63 215.531 348.838 215.739C349.046 215.948 349.211 216.195 349.324 216.468C349.437 216.741 349.495 217.033 349.495 217.328C349.495 217.623 349.437 217.915 349.324 218.188C349.211 218.46 349.046 218.708 348.838 218.916C348.63 219.125 348.382 219.291 348.11 219.403C347.838 219.516 347.546 219.574 347.252 219.574Z" fill="#CCCCCC"/>
<path d="M347.252 231.369H283.88C283.286 231.369 282.715 231.132 282.294 230.711C281.874 230.29 281.637 229.718 281.637 229.122C281.637 228.527 281.874 227.955 282.294 227.534C282.715 227.112 283.286 226.876 283.88 226.876H347.252C347.847 226.876 348.417 227.112 348.838 227.534C349.259 227.955 349.495 228.527 349.495 229.122C349.495 229.718 349.259 230.29 348.838 230.711C348.417 231.132 347.847 231.369 347.252 231.369Z" fill="#CCCCCC"/>
<path d="M347.252 243.164H283.88C283.286 243.164 282.715 242.927 282.294 242.506C281.874 242.084 281.637 241.513 281.637 240.917C281.637 240.321 281.874 239.75 282.294 239.328C282.715 238.907 283.286 238.67 283.88 238.67H347.252C347.847 238.67 348.417 238.907 348.838 239.328C349.259 239.75 349.495 240.321 349.495 240.917C349.495 241.513 349.259 242.084 348.838 242.506C348.417 242.927 347.847 243.164 347.252 243.164Z" fill="#CCCCCC"/>
<path d="M347.252 254.958H283.88C283.286 254.958 282.715 254.722 282.294 254.3C281.874 253.879 281.637 253.308 281.637 252.712C281.637 252.116 281.874 251.544 282.294 251.123C282.715 250.702 283.286 250.465 283.88 250.465H347.252C347.847 250.465 348.417 250.702 348.838 251.123C349.259 251.544 349.495 252.116 349.495 252.712C349.495 253.308 349.259 253.879 348.838 254.3C348.417 254.722 347.847 254.958 347.252 254.958Z" fill="#CCCCCC"/>
<path d="M347.252 266.753H283.88C283.286 266.753 282.715 266.516 282.294 266.095C281.874 265.674 281.637 265.102 281.637 264.506C281.637 263.911 281.874 263.339 282.294 262.918C282.715 262.496 283.286 262.26 283.88 262.26H347.252C347.847 262.26 348.417 262.496 348.838 262.918C349.259 263.339 349.495 263.911 349.495 264.506C349.495 265.102 349.259 265.674 348.838 266.095C348.417 266.516 347.847 266.753 347.252 266.753Z" fill="#CCCCCC"/>
<path d="M317.24 127.364C329.197 127.364 338.89 117.657 338.89 105.682C338.89 93.7074 329.197 84 317.24 84C305.284 84 295.591 93.7074 295.591 105.682C295.591 117.657 305.284 127.364 317.24 127.364Z" fill="#5FEE3C"/>
<path d="M315.095 113.953C314.608 113.954 314.134 113.796 313.744 113.503L313.72 113.485L308.632 109.587C308.396 109.407 308.198 109.181 308.049 108.923C307.9 108.666 307.804 108.381 307.765 108.086C307.725 107.792 307.745 107.492 307.822 107.204C307.898 106.917 308.031 106.647 308.212 106.411C308.392 106.175 308.618 105.977 308.875 105.828C309.132 105.679 309.416 105.582 309.711 105.544C310.006 105.505 310.305 105.525 310.592 105.602C310.879 105.679 311.148 105.812 311.383 105.993L314.679 108.524L322.466 98.3491C322.831 97.8727 323.37 97.5609 323.964 97.4823C324.558 97.4037 325.159 97.5647 325.635 97.93L325.636 97.9305L325.588 97.9977L325.637 97.9305C326.112 98.2962 326.423 98.8359 326.502 99.4309C326.58 100.026 326.42 100.628 326.055 101.105L316.895 113.067C316.684 113.343 316.411 113.566 316.099 113.719C315.787 113.872 315.444 113.951 315.097 113.95L315.095 113.953Z" fill="white"/>
</g>
<defs>
<filter id="filter0_d" x="244" y="147" width="143" height="176" filterUnits="userSpaceOnUse" color-interpolation-filters="sRGB">
<feFlood flood-opacity="0" result="BackgroundImageFix"/>
<feColorMatrix in="SourceAlpha" type="matrix" values="0 0 0 0 0 0 0 0 0 0 0 0 0 0 0 0 0 0 127 0"/>
<feOffset dy="10"/>
<feGaussianBlur stdDeviation="15"/>
<feColorMatrix type="matrix" values="0 0 0 0 0.533333 0 0 0 0 0 0 0 0 0 1 0 0 0 0.2 0"/>
<feBlend mode="normal" in2="BackgroundImageFix" result="effect1_dropShadow"/>
<feBlend mode="normal" in="SourceGraphic" in2="effect1_dropShadow" result="shape"/>
</filter>
<clipPath id="clip0">
<rect width="629" height="416" fill="white"/>
</clipPath>
</defs>
</svg>
