<svg width="14" height="18" viewBox="0 0 14 18" fill="none" xmlns="http://www.w3.org/2000/svg">
<path d="M12.3289 3.08241C11.2365 1.19719 9.29611 0.0454394 7.1384 0.00142383C7.04629 -0.000474609 6.95358 -0.000474609 6.86144 0.00142383C4.70376 0.0454394 2.76341 1.19719 1.67097 3.08241C0.554337 5.00939 0.523786 7.32408 1.58923 9.27423L6.05277 17.4441C6.05478 17.4477 6.05678 17.4513 6.05886 17.4549C6.25524 17.7962 6.60705 18 6.99999 18C7.3929 18 7.7447 17.7962 7.94105 17.4549C7.94313 17.4513 7.94513 17.4477 7.94713 17.4441L12.4107 9.27423C13.4761 7.32408 13.4455 5.00939 12.3289 3.08241ZM6.99992 8.15626C5.60418 8.15626 4.46867 7.02075 4.46867 5.62501C4.46867 4.22928 5.60418 3.09377 6.99992 3.09377C8.39566 3.09377 9.53117 4.22928 9.53117 5.62501C9.53117 7.02075 8.39569 8.15626 6.99992 8.15626Z" fill="#C6C6C6"/>
</svg>
