<svg width="16" height="16" viewBox="0 0 16 16" fill="none" xmlns="http://www.w3.org/2000/svg">
<g clip-path="url(#clip0)">
<path d="M2.13101 13.8756C1.94795 13.6925 1.6517 13.6925 1.46867 13.8756L0.143889 15.2003C-0.0391738 15.3833 -0.0391738 15.6796 0.143889 15.8626C0.326951 16.0457 0.623201 16.0457 0.806264 15.8626L2.13098 14.5379C2.31404 14.3549 2.31404 14.0586 2.13101 13.8756Z" fill="#C6C6C6"/>
<path d="M4.78049 13.8756C4.59746 13.6925 4.30121 13.6925 4.11814 13.8756L2.79342 15.2003C2.61036 15.3833 2.61036 15.6796 2.79342 15.8626C2.97649 16.0457 3.27274 16.0457 3.45577 15.8626L4.78049 14.5379C4.96355 14.3549 4.96355 14.0586 4.78049 13.8756Z" fill="#C6C6C6"/>
<path d="M2.13098 11.2262C1.94792 11.0431 1.6517 11.0431 1.46864 11.2262L0.143889 12.5509C-0.0391738 12.7339 -0.0391738 13.0302 0.143889 13.2132C0.326951 13.3963 0.623201 13.3963 0.806264 13.2132L2.13098 11.8885C2.31404 11.7054 2.31404 11.4092 2.13098 11.2262Z" fill="#C6C6C6"/>
<path d="M15.6259 4.30649L11.6517 0.332305C11.5063 0.18693 11.336 0.0828672 11.1551 0.0146484L10.4084 5.59221L15.9934 4.9718C15.9351 4.72821 15.8157 4.49627 15.6259 4.30649Z" fill="#C6C6C6"/>
<path d="M9.66461 0.332563L2.37858 7.61859C2.21993 7.77725 2.1128 7.96594 2.04602 8.1655L8.89324 7.24891C9.10218 7.22112 9.26715 7.05616 9.29496 6.84725L10.2117 0C10.0121 0.06675 9.8233 0.173875 9.66461 0.332563Z" fill="#C6C6C6"/>
<path d="M10.2802 6.54956L10.2238 6.97134C10.14 7.59496 9.64614 8.09324 9.01742 8.17768L8.59567 8.23412L7.97327 13.8365C8.10477 13.7708 8.23033 13.6893 8.33986 13.5798L15.6259 6.29375C15.7353 6.18428 15.8168 6.05868 15.8825 5.92725L10.2802 6.54956Z" fill="#C6C6C6"/>
<path d="M2.06091 9.10896C2.12916 9.2899 2.23316 9.46024 2.3786 9.60565L6.35279 13.5798C6.54251 13.7696 6.77441 13.8891 7.01801 13.9474L7.63854 8.3623L2.06091 9.10896Z" fill="#C6C6C6"/>
</g>
<defs>
<clipPath id="clip0">
<rect width="16" height="16" fill="white"/>
</clipPath>
</defs>
</svg>
