<svg width="18" height="18" viewBox="0 0 18 18" fill="none" xmlns="http://www.w3.org/2000/svg">
<g clip-path="url(#clip0)">
<path d="M15.3625 2.63471C11.8473 -0.87947 6.14878 -0.878626 2.63459 2.63665C-0.879592 6.15192 -0.878748 11.8504 2.63652 15.3646C6.1518 18.8788 11.8503 18.8779 15.3645 15.3626C17.0522 13.6744 18.0001 11.3849 17.9995 8.99771C17.999 6.61096 17.0505 4.32214 15.3625 2.63471ZM13.6297 12.5365C13.6293 12.5369 13.6289 12.5373 13.6285 12.5377V12.5347L13.1725 12.9877C12.5828 13.5849 11.7239 13.8306 10.9075 13.6357C10.085 13.4156 9.30313 13.0652 8.5915 12.5977C7.93035 12.1752 7.31765 11.6813 6.7645 11.1247C6.25554 10.6195 5.7983 10.0647 5.39949 9.46874C4.96327 8.82742 4.618 8.12879 4.37349 7.39273C4.09319 6.52802 4.32547 5.57919 4.9735 4.94174L5.50749 4.40775C5.65595 4.25862 5.8972 4.25809 6.04629 4.40655C6.04668 4.40694 6.0471 4.40733 6.04749 4.40775L7.73348 6.09374C7.88261 6.2422 7.88314 6.48344 7.73467 6.63254C7.73429 6.63293 7.7339 6.63332 7.73348 6.63374L6.74348 7.62374C6.45942 7.90471 6.4237 8.35119 6.65949 8.67375C7.01756 9.16516 7.4138 9.62757 7.8445 10.0568C8.3247 10.539 8.84674 10.9777 9.40449 11.3678C9.72677 11.5926 10.1637 11.5547 10.4425 11.2778L11.3995 10.3058C11.5479 10.1566 11.7892 10.1561 11.9383 10.3046C11.9387 10.305 11.939 10.3054 11.9395 10.3058L13.6285 11.9978C13.7776 12.1462 13.7782 12.3874 13.6297 12.5365Z" fill="#C6C6C6"/>
</g>
<defs>
<clipPath id="clip0">
<rect width="18" height="18" fill="white"/>
</clipPath>
</defs>
</svg>
