<svg width="24" height="24" viewBox="0 0 24 24" fill="none" xmlns="http://www.w3.org/2000/svg">
<g clip-path="url(#clip0)">
<path d="M17.3373 13.1442L15.737 14.7446L15.7369 14.7445L4.68288 3.6904L5.53242 2.84085L2.00981 0.00175476L0 2.01156L2.8391 5.53413L3.68869 4.68459L14.7428 15.7387L13.1425 17.339L15.4248 19.6213L19.6195 15.4265L17.3373 13.1442Z" fill="#2F80ED"/>
<path d="M20.6139 16.4197L16.4192 20.6145L18.9359 23.1312C19.4962 23.6915 20.241 24 21.0334 24C21.8256 24 22.5705 23.6915 23.1307 23.1312C24.2872 21.9747 24.2872 20.093 23.1307 18.9365L20.6139 16.4197Z" fill="#2F80ED"/>
<path d="M12.1467 15.1302L8.87021 11.8537L6.4714 14.2522C4.70941 13.7 2.78665 14.1612 1.46059 15.4878C0.518893 16.4295 0 17.6814 0 19.0136C0 20.3453 0.518893 21.5978 1.46059 22.5395C2.43275 23.5116 3.70959 23.9977 4.98644 23.9977C6.26328 23.9977 7.54059 23.5116 8.51228 22.5395C9.83881 21.2134 10.3001 19.2906 9.74788 17.5286L12.1467 15.1302ZM6.12781 20.1545C5.49736 20.7849 4.47551 20.7849 3.84553 20.1545C3.21507 19.5245 3.21507 18.5026 3.84553 17.8722C4.47551 17.2422 5.49736 17.2422 6.12781 17.8722C6.7578 18.5026 6.7578 19.5245 6.12781 20.1545Z" fill="#2F80ED"/>
<path d="M23.6731 3.00756L23.2812 2.0068L20.7655 4.52252L19.7497 4.25018L19.4774 3.23443L21.9931 0.719178L20.9923 0.326845C19.2379 -0.360326 17.2438 0.055914 15.9122 1.3876C14.6925 2.60726 14.2406 4.38331 14.7019 6.02154L11.853 8.87072L15.1295 12.1472L17.9784 9.29803C18.4012 9.41708 18.8324 9.47521 19.2613 9.47521C20.4955 9.47474 21.7072 8.99288 22.6123 8.08774C23.944 6.7561 24.3602 4.76209 23.6731 3.00756Z" fill="#2F80ED"/>
</g>
<defs>
<clipPath id="clip0">
<rect width="24" height="24" fill="white"/>
</clipPath>
</defs>
</svg>
