<svg width="16" height="15" viewBox="0 0 16 15" fill="none" xmlns="http://www.w3.org/2000/svg">
<path d="M15.977 5.77914C15.9219 5.62003 15.7753 5.50407 15.5987 5.48005L10.6386 4.80432L8.42034 0.590653C8.3414 0.440654 8.17844 0.345703 8.00003 0.345703C7.82159 0.345703 7.65865 0.440654 7.57969 0.590653L5.36132 4.80432L0.401338 5.48005C0.224808 5.50407 0.0780893 5.62003 0.0229645 5.77911C-0.0321915 5.93822 0.0138083 6.11286 0.141589 6.22961L3.73058 9.50949L2.88345 14.1408C2.85327 14.3057 2.92558 14.4723 3.06992 14.5706C3.15158 14.6262 3.2483 14.6545 3.34548 14.6545C3.42011 14.6545 3.49498 14.6379 3.56355 14.6041L8 12.4174L12.4363 14.604C12.5942 14.6819 12.7856 14.6689 12.9299 14.5706C13.0743 14.4723 13.1466 14.3056 13.1164 14.1408L12.269 9.50949L15.8584 6.22958C15.9862 6.11286 16.0322 5.93822 15.977 5.77914Z" fill="#FFB300"/>
</svg>
