<svg width="18" height="18" viewBox="0 0 18 18" fill="none" xmlns="http://www.w3.org/2000/svg">
<path d="M9 18C13.9706 18 18 13.9706 18 9C18 4.02944 13.9706 0 9 0C4.02944 0 0 4.02944 0 9C0 13.9706 4.02944 18 9 18Z" fill="#039BE5"/>
<path d="M4.1182 8.80497L12.7957 5.45922C13.1985 5.31372 13.5502 5.55747 13.4197 6.16647L13.4205 6.16572L11.943 13.1265C11.8335 13.62 11.5402 13.74 11.13 13.5075L8.87995 11.8492L7.7947 12.8947C7.6747 13.0147 7.57345 13.116 7.34095 13.116L7.5007 10.8262L11.6707 7.05897C11.8522 6.89922 11.6302 6.80922 11.391 6.96822L6.2377 10.2127L4.0162 9.51972C3.53395 9.36672 3.52345 9.03747 4.1182 8.80497Z" fill="white"/>
</svg>
