<svg width="18" height="18" viewBox="0 0 18 18" fill="none" xmlns="http://www.w3.org/2000/svg">
<g clip-path="url(#clip0)">
<path d="M10.8002 0H7.19973C3.72542 0 0.898926 2.82649 0.898926 6.30081V9.00116C0.898926 11.4403 2.30567 13.6539 4.49938 14.6951V17.7023C4.49938 17.9634 4.82602 18.0999 5.01157 17.9144L7.624 15.302H10.8002C14.2744 15.302 17.101 12.4755 17.101 9.00116V6.30081C17.101 2.82649 14.2744 0 10.8002 0Z" fill="#665CAC"/>
<path d="M13.5299 11.1832L13.2601 9.72193C13.2378 9.60121 13.1443 9.50625 13.0239 9.48217L10.9023 9.05787C10.8038 9.03825 10.7022 9.06901 10.6313 9.13992L9.76933 10.0019C8.3171 9.35117 7.51111 8.54343 6.80193 7.02886L7.66108 6.16974C7.73199 6.0988 7.76279 5.99706 7.74314 5.89869L7.31884 3.77708C7.29475 3.65674 7.1998 3.56316 7.07907 3.54087L5.61777 3.27115C5.57776 3.2638 5.53656 3.26457 5.49683 3.27361C5.11099 3.36125 4.75893 3.55567 4.4787 3.83597C3.99348 4.32119 3.80803 5.02924 3.94247 5.88357C4.16813 7.31816 4.87098 9.31461 6.16772 10.6166L6.18543 10.6341C7.48636 11.93 9.48284 12.6329 10.9175 12.8586C11.0982 12.887 11.2723 12.9011 11.4392 12.9011C12.0613 12.9011 12.5825 12.7049 12.9652 12.3223C13.2454 12.042 13.4399 11.69 13.5275 11.3042C13.5364 11.2644 13.5372 11.2233 13.5299 11.1832Z" fill="white"/>
<path d="M7.36795 6.46313L7.6613 6.16975L7.66161 6.16943L7.36792 6.46309L7.36795 6.46313Z" fill="#E5E5E5"/>
<path d="M10.6314 9.13963L10.3352 9.43585L10.3353 9.4359L10.6315 9.13968L10.6314 9.13963Z" fill="#E5E5E5"/>
<path d="M12.005 12.3353C11.8381 12.3353 11.664 12.3212 11.4833 12.2928C10.0487 12.0671 8.0522 11.3641 6.75124 10.0683L6.73352 10.0507C5.43678 8.7488 4.73394 6.75235 4.50827 5.31776C4.39967 4.62754 4.50008 4.03287 4.79852 3.57397C4.68423 3.65023 4.57697 3.7377 4.4787 3.83596C3.99348 4.32119 3.80803 5.02923 3.94247 5.88356C4.16813 7.31815 4.87098 9.3146 6.16772 10.6165L6.18543 10.6341C7.48636 11.9299 9.48284 12.6329 10.9175 12.8586C11.0982 12.887 11.2723 12.9011 11.4392 12.9011C12.0613 12.9011 12.5825 12.7049 12.9652 12.3223C13.0634 12.224 13.1509 12.1168 13.2271 12.0025C12.8883 12.2229 12.4756 12.3353 12.005 12.3353Z" fill="#E5E5E5"/>
<path d="M9.60007 5.10065C9.43438 5.10065 9.30005 5.23498 9.30005 5.40067C9.30005 5.56636 9.43438 5.70069 9.60007 5.70069C10.2619 5.70069 10.8002 6.23908 10.8002 6.90086C10.8002 7.06433 10.9368 7.20088 11.1003 7.20088C11.2637 7.20088 11.4003 7.06433 11.4003 6.90086C11.4003 5.90819 10.5927 5.10065 9.60007 5.10065Z" fill="white"/>
<path d="M9.60012 3.90051C9.48914 3.90051 9.37713 3.90667 9.26716 3.91879C9.10245 3.93697 8.98366 4.08522 9.00184 4.24997C9.02001 4.41471 9.16858 4.53318 9.33301 4.51529C9.42118 4.50555 9.51104 4.50059 9.60012 4.50059C10.9236 4.50059 12.0004 5.57736 12.0004 6.90089C12.0004 6.99001 11.9955 7.07987 11.9857 7.16804C11.9678 7.3305 12.0885 7.48132 12.251 7.49921C12.4135 7.51711 12.5642 7.39641 12.5822 7.23389C12.5943 7.12392 12.6005 7.01191 12.6005 6.90089C12.6005 5.24651 11.2545 3.90051 9.60012 3.90051Z" fill="white"/>
<path d="M9.6006 2.70038C9.49337 2.70038 9.38477 2.70446 9.2779 2.71258C9.11267 2.72509 8.98884 2.86923 9.00136 3.03443C9.01384 3.19967 9.15847 3.32349 9.32321 3.31097C9.41508 3.30398 9.50842 3.30046 9.6006 3.30046C11.5859 3.30046 13.2011 4.91561 13.2011 6.90092C13.2011 7.18182 13.1686 7.46145 13.1047 7.73201C13.0681 7.88705 13.1635 8.04821 13.3173 8.09032C13.479 8.13462 13.6502 8.0332 13.6887 7.87003C13.7633 7.5543 13.8011 7.22826 13.8011 6.90092C13.8011 4.58472 11.9168 2.70038 9.6006 2.70038Z" fill="white"/>
</g>
<defs>
<clipPath id="clip0">
<rect width="18" height="18" fill="white"/>
</clipPath>
</defs>
</svg>
