<svg width="9" height="7" viewBox="0 0 9 7" fill="none" xmlns="http://www.w3.org/2000/svg">
<path fill-rule="evenodd" clip-rule="evenodd" d="M7.28449 0.659332C7.4157 0.529275 7.59281 0.456079 7.77755 0.455569C7.96229 0.455059 8.13981 0.527277 8.27173 0.656609C8.40365 0.785941 8.47937 0.961995 8.48252 1.14671C8.48566 1.33142 8.41599 1.50996 8.28856 1.64371L4.54605 6.32183C4.48173 6.39111 4.4041 6.44671 4.3178 6.4853C4.2315 6.52389 4.13831 6.54469 4.04379 6.54644C3.94927 6.54819 3.85537 6.53086 3.7677 6.49549C3.68003 6.46012 3.6004 6.40743 3.53355 6.34058L1.05387 3.85996C0.984786 3.79559 0.929378 3.71796 0.890948 3.63171C0.852518 3.54546 0.831853 3.45236 0.830188 3.35795C0.828522 3.26354 0.845889 3.16976 0.881252 3.08221C0.916616 2.99466 0.969251 2.91513 1.03602 2.84836C1.10279 2.78159 1.18232 2.72896 1.26987 2.69359C1.35742 2.65823 1.4512 2.64086 1.54561 2.64253C1.64002 2.64419 1.73312 2.66486 1.81937 2.70329C1.90562 2.74172 1.98325 2.79713 2.04762 2.86621L4.01074 4.82839L7.26668 0.679958C7.27249 0.672696 7.27875 0.665807 7.28543 0.659332H7.28449Z" fill="white"/>
</svg>
