<svg width="13" height="10" viewBox="0 0 13 10" fill="none" xmlns="http://www.w3.org/2000/svg">
<path fill-rule="evenodd" clip-rule="evenodd" d="M10.455 0.454932C10.6649 0.24684 10.9483 0.129726 11.2439 0.128911C11.5395 0.128095 11.8235 0.243643 12.0346 0.450574C12.2456 0.657505 12.3668 0.939192 12.3718 1.23473C12.3769 1.53028 12.2654 1.81593 12.0615 2.02993L6.07349 9.51493C5.97058 9.62578 5.84637 9.71474 5.70829 9.77648C5.57021 9.83823 5.4211 9.8715 5.26987 9.8743C5.11864 9.8771 4.9684 9.84937 4.82813 9.79278C4.68786 9.73619 4.56044 9.65189 4.45349 9.54493L0.485992 5.57593C0.375462 5.47294 0.286809 5.34874 0.225321 5.21074C0.163833 5.07274 0.13077 4.92377 0.128105 4.77272C0.12544 4.62166 0.153227 4.47162 0.209808 4.33154C0.26639 4.19145 0.350607 4.0642 0.457435 3.95738C0.564263 3.85055 0.691514 3.76633 0.831596 3.70975C0.971678 3.65317 1.12172 3.62538 1.27278 3.62804C1.42383 3.63071 1.5728 3.66377 1.7108 3.72526C1.8488 3.78675 1.973 3.8754 2.07599 3.98593L5.21699 7.12543L10.4265 0.487932C10.4358 0.476313 10.4458 0.465291 10.4565 0.454932H10.455Z" fill="#181818"/>
</svg>
