<svg width="22" height="20" viewBox="0 0 22 20" fill="none" xmlns="http://www.w3.org/2000/svg">
<path d="M21.4355 4.2008C21.0952 3.41277 20.6045 2.69866 19.9908 2.09846C19.3767 1.49646 18.6526 1.01806 17.858 0.689276C17.034 0.346992 16.1503 0.171792 15.258 0.173846C14.0063 0.173846 12.785 0.516619 11.7236 1.16408C11.4697 1.31896 11.2285 1.48908 11 1.67443C10.7715 1.48908 10.5303 1.31896 10.2764 1.16408C9.21504 0.516619 7.99375 0.173846 6.74199 0.173846C5.84063 0.173846 4.96719 0.346502 4.14199 0.689276C3.34473 1.01935 2.62617 1.49416 2.00918 2.09846C1.39472 2.69798 0.90387 3.41226 0.564453 4.2008C0.211523 5.02092 0.03125 5.89181 0.03125 6.7881C0.03125 7.63361 0.203906 8.51466 0.54668 9.41095C0.833594 10.16 1.24492 10.9369 1.77051 11.7215C2.60332 12.9631 3.74844 14.258 5.17031 15.5707C7.52656 17.7467 9.85996 19.2498 9.95899 19.3108L10.5607 19.6967C10.8273 19.8668 11.1701 19.8668 11.4367 19.6967L12.0385 19.3108C12.1375 19.2473 14.4684 17.7467 16.8272 15.5707C18.249 14.258 19.3941 12.9631 20.227 11.7215C20.7525 10.9369 21.1664 10.16 21.4508 9.41095C21.7936 8.51466 21.9662 7.63361 21.9662 6.7881C21.9688 5.89181 21.7885 5.02092 21.4355 4.2008Z" fill="white"/>
</svg>
