<svg width="36" height="36" viewBox="0 0 36 36" fill="none" xmlns="http://www.w3.org/2000/svg">
<path d="M27.0033 23L27.0009 23C26.5336 23.0009 26.0808 22.8382 25.721 22.54L25.7193 22.5386L17.9939 16.0816L10.2602 22.3031C10.2599 22.3034 10.2596 22.3036 10.2593 22.3039C10.0549 22.4696 9.81984 22.5934 9.56753 22.6682C9.31485 22.7431 9.04986 22.7672 8.78781 22.7394C8.52575 22.7115 8.27179 22.6321 8.04051 22.5057C7.80963 22.3796 7.6059 22.2092 7.441 22.0042M27.0033 23L7.82997 21.69M27.0033 23C27.2987 22.998 27.59 22.9307 27.8563 22.8027C28.1216 22.6752 28.3555 22.4907 28.5413 22.2625C28.7086 22.061 28.8347 21.8286 28.9125 21.5784C28.9906 21.3272 29.0183 21.0631 28.9942 20.8011C28.97 20.5392 28.8944 20.2846 28.7717 20.0519C28.6491 19.8194 28.4819 19.6133 28.2796 19.4455M27.0033 23L28.2796 19.4455M7.441 22.0042C7.44073 22.0038 7.44045 22.0035 7.44017 22.0031L7.82997 21.69M7.441 22.0042C7.44128 22.0045 7.44156 22.0049 7.44184 22.0052L7.82997 21.69M7.441 22.0042C7.27529 21.7998 7.15152 21.5648 7.07678 21.3126C7.00192 21.0599 6.97773 20.7949 7.00561 20.5328C7.03349 20.2708 7.11288 20.0168 7.23923 19.7855C7.36552 19.5544 7.53624 19.3504 7.74157 19.1854L7.74144 19.1855L8.05497 19.575M7.82997 21.69C7.70538 21.5366 7.61233 21.36 7.55618 21.1705C7.50003 20.981 7.48189 20.7823 7.5028 20.5857C7.52371 20.3892 7.58326 20.1987 7.67802 20.0253C7.77278 19.8518 7.90088 19.6988 8.05497 19.575M8.05497 19.575L7.74184 19.1852M8.05497 19.575L7.74184 19.1852M7.74184 19.1852L16.7396 11.942M7.74184 19.1852L16.7396 11.942M16.7396 11.942C16.7389 11.9426 16.7382 11.9432 16.7375 11.9437L17.055 12.33L16.7414 11.9405L16.7396 11.942ZM28.2796 19.4455C28.2794 19.4453 28.2793 19.4452 28.2791 19.4451L28.2796 19.4455Z" fill="black" stroke="black"/>
</svg>
