<svg width="36" height="36" viewBox="0 0 36 36" fill="none" xmlns="http://www.w3.org/2000/svg">
<path d="M26.9997 22.5C26.6493 22.5007 26.3096 22.3786 26.0397 22.155L17.9997 15.435L9.94473 21.915C9.7913 22.0396 9.61475 22.1326 9.42525 22.1888C9.23574 22.2449 9.037 22.2631 8.84046 22.2422C8.64391 22.2213 8.45344 22.1617 8.27999 22.067C8.10653 21.9722 7.95351 21.8441 7.82973 21.69C7.70513 21.5366 7.61208 21.36 7.55594 21.1705C7.49979 20.981 7.48165 20.7823 7.50256 20.5857C7.52347 20.3892 7.58301 20.1987 7.67777 20.0253C7.77253 19.8518 7.90064 19.6988 8.05473 19.575L17.0547 12.33C17.3231 12.1094 17.6598 11.9888 18.0072 11.9888C18.3547 11.9888 18.6913 12.1094 18.9597 12.33L27.9597 19.83C28.1116 19.9559 28.2372 20.1106 28.3292 20.2851C28.4212 20.4596 28.4779 20.6506 28.496 20.847C28.5142 21.0435 28.4933 21.2416 28.4348 21.43C28.3762 21.6184 28.281 21.7934 28.1547 21.945C28.0151 22.1171 27.8392 22.2561 27.6395 22.352C27.4398 22.448 27.2213 22.4985 26.9997 22.5Z" fill="black" stroke="black"/>
</svg>
