<svg width="10" height="6" viewBox="0 0 10 6" fill="none" xmlns="http://www.w3.org/2000/svg">
<path d="M5.00211 3.96326L1.26098 0.222284C1.15821 0.119277 1.02081 0.0626097 0.874309 0.0626097C0.727724 0.0626097 0.590406 0.119277 0.48748 0.222284L0.159837 0.550089C0.056748 0.652935 0 0.790414 0 0.936919C0 1.08342 0.056748 1.22074 0.159837 1.32367L4.61398 5.77789C4.71724 5.88123 4.8552 5.93781 5.00187 5.93741C5.14919 5.93781 5.28699 5.88131 5.39033 5.77789L9.84016 1.32781C9.94325 1.22489 10 1.08757 10 0.940984C10 0.79448 9.94325 0.657163 9.84016 0.554154L9.51252 0.226431C9.29927 0.0131788 8.95211 0.0131788 8.73894 0.226431L5.00211 3.96326Z" fill="#2F80ED"/>
</svg>
