<svg width="256" height="40" viewBox="0 0 256 40" fill="none" xmlns="http://www.w3.org/2000/svg">
<path fill-rule="evenodd" clip-rule="evenodd" d="M112.188 24.8374H102.86L107.751 13.4552L112.188 24.8374ZM113.78 4.46338H102.746L87.1614 39.065H96.7169L99.5609 32.5772H114.918L117.534 39.065H127.886L113.78 4.46338Z" fill="black"/>
<path fill-rule="evenodd" clip-rule="evenodd" d="M249.833 4.23574H250.743C251.198 4.23574 251.54 4.12192 251.654 4.0081C251.767 3.89428 251.881 3.66664 251.881 3.439C251.881 3.32518 251.881 3.21135 251.767 3.09753C251.653 2.98371 251.54 2.86989 251.426 2.86989C251.312 2.86989 250.971 2.75607 250.63 2.75607H249.72C249.833 2.86989 249.833 4.23574 249.833 4.23574ZM249.037 6.96745V2.18696H250.63C251.198 2.18696 251.54 2.18696 251.881 2.30079C252.109 2.41461 252.336 2.52843 252.45 2.75607C252.677 2.98371 252.677 3.21135 252.677 3.55282C252.677 3.89428 252.564 4.23574 252.336 4.46339C252.109 4.69103 251.767 4.80485 251.312 4.91867C251.426 5.03249 251.653 5.03249 251.767 5.14631C251.995 5.37396 252.222 5.6016 252.45 6.05688L253.019 6.96745H252.109L251.654 6.1707C251.312 5.6016 251.085 5.26013 250.857 5.03249C250.743 4.91867 250.516 4.91867 250.288 4.91867H249.833V6.96745H249.037ZM250.971 0.82111C250.402 0.82111 249.72 0.934931 249.151 1.27639C248.582 1.61786 248.127 2.07314 247.786 2.64225C247.444 3.21135 247.331 3.89428 247.331 4.46339C247.331 5.14631 247.444 5.71542 247.786 6.28452C248.127 6.85363 248.582 7.30891 249.151 7.65038C249.72 7.99184 250.288 8.10566 250.971 8.10566C251.653 8.10566 252.222 7.99184 252.791 7.65038C253.36 7.30891 253.815 6.85363 254.156 6.28452C254.497 5.71542 254.611 5.14631 254.611 4.46339C254.611 3.78046 254.497 3.21135 254.156 2.64225C253.815 2.07314 253.36 1.61786 252.791 1.27639C252.222 1.04875 251.653 0.82111 250.971 0.82111ZM250.971 0.138184C251.653 0.138184 252.45 0.365826 253.132 0.707289C253.815 1.04875 254.384 1.61786 254.725 2.30079C255.066 2.98371 255.294 3.78046 255.294 4.46339C255.294 5.26013 255.066 5.94306 254.725 6.62599C254.384 7.30891 253.815 7.87802 253.132 8.21948C252.45 8.56095 251.653 8.78859 250.971 8.78859C250.175 8.78859 249.492 8.56095 248.81 8.21948C248.127 7.87802 247.558 7.30891 247.217 6.62599C246.876 5.94306 246.648 5.14631 246.648 4.46339C246.648 3.66664 246.876 2.98371 247.217 2.30079C247.672 1.61786 248.127 1.04875 248.923 0.707289C249.492 0.252005 250.288 0.138184 250.971 0.138184Z" fill="black"/>
<path fill-rule="evenodd" clip-rule="evenodd" d="M227.878 11.2926C220.825 11.2926 216.161 15.3902 216.161 21.6504C216.161 28.1382 220.712 32.2357 227.878 32.2357C235.045 32.2357 239.595 28.1382 239.595 21.7642C239.595 15.3902 234.931 11.2926 227.878 11.2926ZM227.878 3.66663C233.68 3.66663 238.458 4.91866 242.212 7.42272C246.989 10.6097 249.151 15.0487 249.151 21.7642C249.151 28.4796 246.989 32.9187 242.212 36.1056C238.458 38.6097 233.68 39.8617 227.992 39.8617C222.19 39.8617 217.413 38.6097 213.659 36.1056C208.767 32.8048 206.72 28.4796 206.72 21.4227C206.72 15.0487 208.995 10.4959 213.659 7.3089C217.413 4.80484 222.077 3.66663 227.878 3.66663Z" fill="black"/>
<path fill-rule="evenodd" clip-rule="evenodd" d="M191.931 4.46338C199.212 4.46338 203.534 9.58533 203.534 14.9349C203.534 22.4471 200.008 25.9756 193.865 26.5447L204.672 39.065H194.206L183.627 26.7723H179.418V39.065H170.204V4.46338H191.931ZM179.646 12.0894H191.476C196.14 12.6585 195.799 18.5772 191.59 18.8048H179.646C179.646 18.9187 179.646 12.0894 179.646 12.0894Z" fill="black"/>
<path fill-rule="evenodd" clip-rule="evenodd" d="M139.717 19.7154L155.074 4.46338H166.336L151.889 18.8048L166.905 39.065H155.757L145.519 25.065L139.717 30.6422V39.065H130.389V4.46338H139.717V19.7154Z" fill="black"/>
<path fill-rule="evenodd" clip-rule="evenodd" d="M69.8704 19.0325V12.0894H92.6217V4.46338H60.4286V39.065H69.8704V26.5447H85.3413V19.0325H69.8704Z" fill="black"/>
<path fill-rule="evenodd" clip-rule="evenodd" d="M52.6932 4.46338H20.5001L0.592651 39.065H32.672L52.6932 4.46338Z" fill="#3AAA35"/>
<path d="M52.6932 4.46338H20.5001L0.592651 39.065H32.672L52.6932 4.46338Z" stroke="#3AAA35" stroke-width="0.00028" stroke-miterlimit="22.9256"/>
</svg>
