<svg 
 xmlns="http://www.w3.org/2000/svg"
 xmlns:xlink="http://www.w3.org/1999/xlink"
 width="24px" height="24px">
<path fill-rule="evenodd"  fill="rgb(255, 255, 255)"
 d="M14.828,12.000 L22.607,19.778 C23.388,20.559 23.388,21.825 22.607,22.606 C21.826,23.387 20.559,23.387 19.778,22.606 L12.000,14.828 L4.222,22.606 C3.441,23.387 2.174,23.387 1.393,22.606 C0.612,21.825 0.612,20.559 1.393,19.778 L9.171,12.000 L1.393,4.222 C0.612,3.440 0.612,2.174 1.393,1.393 C2.174,0.612 3.441,0.612 4.222,1.393 L12.000,9.171 L19.778,1.393 C20.559,0.612 21.826,0.612 22.607,1.393 C23.388,2.174 23.388,3.440 22.607,4.222 L14.828,12.000 Z"/>
</svg>