<?xml version="1.0" encoding="UTF-8"?>
<svg id="SVGDoc" width="30" height="30" xmlns="http://www.w3.org/2000/svg" version="1.1" xmlns:xlink="http://www.w3.org/1999/xlink" xmlns:avocode="https://avocode.com/" viewBox="0 0 30 30"><defs></defs><desc>Generated with Avocode.</desc><g><g><title>Fill 1</title><path d="M15,0c-8.28428,0 -15,6.75678 -15,15.09171c0,7.53272 5.48528,13.77621 12.65625,14.90829v-10.54584v0h-3.80859v0v-4.36245v0h3.80859v0v-3.32489c0,-3.78236 2.23939,-5.87162 5.66572,-5.87162c1.64113,0 3.35772,0.29476 3.35772,0.29476v0v3.71398v0h-1.8915c-1.86334,0 -2.44444,1.16333 -2.44444,2.35681v2.83096v0h4.16016v0l-0.66504,4.36245v0h-3.49512v0v10.54584c7.17097,-1.13208 12.65625,-7.37557 12.65625,-14.90829c0,-8.33493 -6.71572,-15.09171 -15,-15.09171" fill="#141414" fill-opacity="1"></path></g></g></svg>