<?xml version="1.0" encoding="UTF-8"?>
<svg id="SVGDoc" width="30" height="30" xmlns="http://www.w3.org/2000/svg" version="1.1" xmlns:xlink="http://www.w3.org/1999/xlink" xmlns:avocode="https://avocode.com/" viewBox="0 0 30 30"><defs></defs><desc>Generated with Avocode.</desc><g><g><title>Combined Shape</title><path d="M21.18442,0.09027c1.59664,0.07282 2.68698,0.32641 3.64115,0.69724c0.98638,0.38328 1.8229,0.89618 2.65679,1.73007c0.83395,0.83395 1.34679,1.67047 1.73013,2.65679c0.37083,0.95417 0.62442,2.04451 0.69724,3.64115c0.073,1.59991 0.09027,2.11072 0.09027,6.18445c0,4.07379 -0.01727,4.5846 -0.09027,6.18451c-0.07282,1.59658 -0.32641,2.68698 -0.69724,3.64109c-0.38334,0.98638 -0.89618,1.8229 -1.73013,2.65679c-0.83389,0.83395 -1.67041,1.34679 -2.65679,1.73019c-0.95417,0.37077 -2.04451,0.62436 -3.64115,0.69724c-1.59991,0.07294 -2.11066,0.09021 -6.18445,0.09021c-4.07373,0 -4.5846,-0.01727 -6.18445,-0.09021c-1.59664,-0.07288 -2.68698,-0.32647 -3.64115,-0.69724c-0.98632,-0.3834 -1.8229,-0.89624 -2.65679,-1.73019c-0.83395,-0.83389 -1.34679,-1.67047 -1.73013,-2.65679c-0.37083,-0.95411 -0.62436,-2.04451 -0.69724,-3.64109c-0.073,-1.59991 -0.09021,-2.11072 -0.09021,-6.18451c0,-4.07378 0.01721,-4.58454 0.09021,-6.18445c0.07288,-1.59664 0.32641,-2.68698 0.69724,-3.64115c0.38334,-0.98632 0.89618,-1.82284 1.73013,-2.65679c0.83389,-0.83389 1.67047,-1.34679 2.65679,-1.73007c0.95417,-0.37083 2.04451,-0.62442 3.64115,-0.69724c1.59985,-0.073 2.11072,-0.09027 6.18445,-0.09027zM8.93866,2.79011c-1.46243,0.06675 -2.25673,0.31111 -2.78529,0.51653c-0.7001,0.27211 -1.19984,0.59715 -1.72471,1.12208c-0.52487,0.52487 -0.84997,1.02455 -1.12208,1.72471c-0.20536,0.52856 -0.44972,1.3228 -0.51647,2.78528c-0.07217,1.58169 -0.08741,2.05613 -0.08741,6.06126c0,4.00519 0.01524,4.47963 0.08741,6.06132c0.06675,1.46248 0.31111,2.25672 0.51647,2.78528c0.27211,0.7001 0.59721,1.19985 1.12208,1.72471c0.52487,0.52493 1.02461,0.84997 1.72471,1.12208c0.52856,0.20537 1.32286,0.44979 2.78534,0.51648c1.58146,0.07216 2.05577,0.08746 6.06126,0.08746c4.00549,0 4.47981,-0.0153 6.06126,-0.08746c1.46248,-0.06669 2.25672,-0.31111 2.78528,-0.51648c0.70016,-0.27211 1.19991,-0.59715 1.72477,-1.12208c0.52487,-0.52486 0.84991,-1.02461 1.12208,-1.72471c0.20537,-0.52856 0.44973,-1.3228 0.51648,-2.78534c0.0721,-1.58163 0.0874,-2.05607 0.0874,-6.06126c0,-4.00513 -0.0153,-4.47957 -0.0874,-6.06126c-0.06675,-1.46248 -0.31111,-2.25672 -0.51648,-2.78528c-0.27217,-0.70016 -0.59721,-1.19984 -1.12208,-1.72477c-0.52486,-0.52487 -1.02461,-0.84991 -1.72477,-1.12202c-0.52856,-0.20542 -1.3228,-0.44978 -2.78528,-0.51653c-1.58169,-0.07217 -2.05607,-0.08741 -6.06126,-0.08741zM24.80699,6.99297c0,0.99413 -0.80584,1.79998 -1.79997,1.79998c-0.99412,0 -1.80003,-0.80585 -1.80003,-1.79998c0,-0.99412 0.80591,-1.79997 1.80003,-1.79997zM20,14.99997c0,-2.76141 -2.23862,-4.99997 -5.00003,-4.99997c-2.76141,0 -5.00003,2.23856 -5.00003,4.99997c0,2.76141 2.23862,5.00003 5.00003,5.00003zM22.70264,14.99997c0,4.25414 -3.44859,7.70273 -7.70267,7.70273c-4.25408,0 -7.70273,-3.44859 -7.70273,-7.70273c0,-4.25408 3.44865,-7.70267 7.70273,-7.70267z" fill="#141414" fill-opacity="1"></path></g></g></svg>