<svg width="319" height="305" viewBox="0 0 319 305" fill="none" xmlns="http://www.w3.org/2000/svg">
<path d="M301.362 147.724C311.363 114.273 304.381 75.5314 283.057 46.9945C281.736 45.1991 280.321 43.4983 278.905 41.7974C278.245 40.9469 277.49 40.0965 276.735 39.3406L275.603 38.1122L274.471 36.9782C271.357 33.86 268.055 30.9307 264.563 28.2849C257.487 22.9933 249.655 18.6466 241.258 15.4338C224.557 9.00833 206.158 6.7405 188.042 7.59093C169.832 8.44137 151.716 12.5046 134.638 19.2136C117.56 26.0171 101.519 35.2774 86.8944 46.6165C72.3639 57.9557 59.2486 71.3737 48.3035 86.3036C37.3584 101.233 28.5835 117.864 22.7335 135.629C28.0174 117.77 36.3205 100.761 46.8882 85.2641C57.4559 69.8618 70.2881 55.8768 84.7243 43.8762C99.1605 31.8756 115.295 21.8594 132.656 14.2999C150.017 6.83499 168.605 2.01585 187.57 0.503962C197.006 -0.251981 206.63 -0.157488 216.16 0.787441C225.69 1.82686 235.125 3.81122 244.277 7.02398C253.43 10.2367 262.205 14.6779 270.225 20.253C274.282 23.0878 278.056 26.206 281.547 29.6078L282.868 30.8362L284.189 32.1591C285.038 33.0095 285.888 33.9545 286.737 34.8049C288.341 36.6948 289.945 38.4901 291.454 40.38C303.626 55.5934 311.929 73.8305 316.081 92.9181C320.233 112.006 320.044 132.227 314.949 151.504C313.911 155.283 310.042 157.551 306.268 156.512C302.494 155.472 300.229 151.598 301.267 147.818C301.362 147.913 301.362 147.818 301.362 147.724Z" fill="white"/>
<path d="M17.6115 155.83C7.6252 189.392 14.5968 228.263 35.8884 256.895C37.2073 258.697 38.6205 260.403 40.0337 262.11C40.6931 262.963 41.4468 263.816 42.2005 264.575L43.331 265.807L44.4616 266.945C47.5705 270.074 50.8679 273.013 54.3537 275.667C61.4195 280.977 69.239 285.338 77.6237 288.561C94.299 295.008 112.67 297.284 130.759 296.43C148.941 295.577 167.03 291.5 184.082 284.769C201.134 277.943 217.15 268.652 231.752 257.275C246.261 245.898 259.356 232.435 270.285 217.455C281.213 202.476 289.975 185.789 295.816 167.965C290.54 185.884 282.249 202.95 271.698 218.498C261.146 233.952 248.333 247.983 233.919 260.024C219.505 272.065 203.395 282.114 186.06 289.699C168.725 297.189 150.166 302.024 131.23 303.541C121.809 304.3 112.199 304.205 102.684 303.257C93.1685 302.214 83.7474 300.223 74.609 296.999C65.4706 293.776 56.709 289.32 48.7011 283.726C44.65 280.882 40.8816 277.753 37.3958 274.34L36.0768 273.108L34.7579 271.78C33.91 270.927 33.0621 269.979 32.2142 269.126C30.6126 267.23 29.011 265.428 27.5037 263.532C15.3505 248.268 7.05994 229.97 2.91467 210.819C-1.2306 191.667 -1.04218 171.378 4.0452 152.038C5.08151 148.245 8.94415 145.97 12.7126 147.013C16.481 148.056 18.7421 151.943 17.7057 155.735C17.7057 155.64 17.6115 155.735 17.6115 155.83Z" fill="white"/>
</svg>
