<svg width="197" height="187" viewBox="0 0 197 187" fill="none" xmlns="http://www.w3.org/2000/svg">
<path d="M185.348 90.8557C191.5 70.2824 187.206 46.4546 174.09 28.9033C173.278 27.7991 172.408 26.753 171.537 25.7069C171.131 25.1839 170.667 24.6608 170.202 24.1959L169.506 23.4404L168.81 22.743C166.895 20.8251 164.863 19.0235 162.716 17.3962C158.364 14.1417 153.547 11.4683 148.383 9.49238C138.111 5.54045 126.795 4.14565 115.653 4.6687C104.453 5.19175 93.3108 7.69077 82.8071 11.817C72.3035 16.0014 62.4381 21.6969 53.4433 28.6709C44.5064 35.6449 36.4401 43.8974 29.7085 53.0799C22.9768 62.2623 17.5799 72.4908 13.982 83.4168C17.2317 72.4327 22.3385 61.9717 28.838 52.4406C35.3375 42.9676 43.2298 34.3663 52.1086 26.9855C60.9873 19.6047 70.9107 13.4443 81.5885 8.79498C92.2662 4.20377 103.698 1.23982 115.363 0.309955C121.166 -0.154978 127.085 -0.0968611 132.946 0.484305C138.807 1.12359 144.611 2.34404 150.24 4.32C155.869 6.29597 161.265 9.02745 166.198 12.4563C168.694 14.1998 171.015 16.1177 173.162 18.2099L173.974 18.9654L174.787 19.779C175.309 20.3021 175.831 20.8832 176.354 21.4063C177.34 22.5686 178.327 23.6728 179.255 24.8352C186.741 34.192 191.848 45.4085 194.401 57.148C196.955 68.8876 196.839 81.3246 193.705 93.1804C193.067 95.505 190.687 96.8998 188.366 96.2605C186.045 95.6213 184.652 93.2385 185.29 90.9138C185.349 90.9719 185.348 90.9138 185.348 90.8557Z" fill="#E8482A"/>
<path d="M10.8482 96.1443C4.69693 116.718 8.99124 140.545 22.1063 158.097C22.9188 159.201 23.7892 160.247 24.6597 161.293C25.0659 161.816 25.5302 162.339 25.9944 162.804L26.6908 163.56L27.3872 164.257C29.3022 166.175 31.3333 167.976 33.4805 169.604C37.8328 172.858 42.6494 175.532 47.8142 177.508C58.0858 181.46 69.4019 182.854 80.5439 182.331C91.7439 181.808 102.886 179.309 113.39 175.183C123.893 170.999 133.759 165.303 142.753 158.329C151.69 151.355 159.757 143.103 166.488 133.92C173.22 124.738 178.617 114.509 182.215 103.583C178.965 114.567 173.858 125.028 167.359 134.559C160.859 144.032 152.967 152.634 144.088 160.014C135.209 167.395 125.286 173.556 114.608 178.205C103.931 182.796 92.4983 185.76 80.834 186.69C75.0309 187.155 69.1117 187.097 63.2505 186.516C57.3894 185.876 51.5863 184.656 45.9572 182.68C40.3282 180.704 34.9313 177.973 29.9986 174.544C27.5032 172.8 25.182 170.882 23.0348 168.79L22.2224 168.035L21.41 167.221C20.8877 166.698 20.3654 166.117 19.8431 165.594C18.8566 164.431 17.87 163.327 16.9415 162.165C9.4555 152.808 4.34874 141.592 1.79536 129.852C-0.758019 118.112 -0.641955 105.675 2.49174 93.8196C3.13008 91.495 5.50936 90.1002 7.83062 90.7395C10.1519 91.3787 11.5446 93.7615 10.9063 96.0862C10.9063 96.0281 10.8482 96.0862 10.8482 96.1443Z" fill="#1D71B8"/>
<path d="M27.7934 121.542H25.8783L24.6597 129.853H26.6327L27.155 126.308L27.3291 124.797L27.7934 121.542Z" fill="black"/>
<path d="M29.8244 129.852H31.9715L29.7663 125.493L28.3736 124.796L28.0254 125.377C27.8513 125.726 27.9093 126.133 28.0834 126.481L29.8244 129.852Z" fill="black"/>
<path d="M31.7975 123.169C31.9136 123.169 31.9716 123.169 32.0877 123.227L32.668 121.425C32.4939 121.367 32.3198 121.309 32.0877 121.309C31.0431 121.309 30.2887 121.658 29.4182 123.052L28.5478 124.505L29.9405 125.203L30.5789 124.157C31.0431 123.343 31.3913 123.169 31.7975 123.169Z" fill="black"/>
<path d="M89.0743 121.658H87.1013L85.9406 129.969H87.9137L88.378 126.424L88.6101 124.855L89.0743 121.658Z" fill="black"/>
<path d="M91.1054 129.968H93.2525L91.0473 125.609L89.6546 124.912L89.3064 125.493C89.1323 125.842 89.1904 126.249 89.3644 126.597L91.1054 129.968Z" fill="black"/>
<path d="M93.0785 123.285C93.1946 123.285 93.2526 123.285 93.3687 123.343L93.949 121.541C93.7749 121.483 93.6008 121.425 93.3687 121.425C92.3241 121.425 91.5697 121.774 90.6992 123.169L89.8288 124.621L91.2215 125.319L91.8599 124.273C92.2661 123.401 92.6723 123.285 93.0785 123.285Z" fill="black"/>
<path d="M86.8692 136.71H84.9541L83.7355 145.079H85.7085L86.2308 141.533L86.4049 139.964L86.8692 136.71Z" fill="black"/>
<path d="M88.6683 145.079H90.8154L88.6103 140.72L87.2175 140.022L86.8693 140.604C86.6952 140.952 86.7532 141.359 86.9273 141.708L88.6683 145.079Z" fill="black"/>
<path d="M90.6413 138.395C90.7574 138.395 90.8154 138.395 90.9315 138.453L91.5118 136.652C91.3377 136.593 91.1636 136.535 90.9315 136.535C89.8869 136.535 89.1325 136.884 88.262 138.279L87.3916 139.732L88.7843 140.429L89.4227 139.383C89.8869 138.511 90.2351 138.395 90.6413 138.395Z" fill="black"/>
<path d="M81.1242 145.079H78.977L82.2848 140.72L83.7936 140.022L84.0257 140.604C84.1418 140.952 83.9677 141.359 83.6775 141.708L81.1242 145.079Z" fill="black"/>
<path d="M80.8339 138.395C80.7179 138.395 80.6598 138.395 80.5438 138.453L80.4277 136.652C80.6018 136.593 80.8339 136.535 81.008 136.535C82.0526 136.535 82.749 136.884 83.2132 138.279L83.7355 139.732L82.2267 140.429L81.8785 139.383C81.5883 138.511 81.2401 138.395 80.8339 138.395Z" fill="black"/>
<path d="M44.5064 121.542H42.7654L41.1406 133.165H43.0556L43.4618 130.55L43.5779 129.155L44.3903 122.414L44.5064 121.542Z" fill="black"/>
<path d="M47.1178 121.309C46.3053 121.309 45.4929 121.658 44.7965 122.122L44.6224 123.633C45.2608 123.11 45.7831 122.878 46.3634 122.878C47.6401 122.878 48.0463 123.866 47.8142 125.551C47.524 127.411 46.5955 128.399 45.4349 128.399C45.0286 128.399 44.5644 128.283 44.1001 127.934L43.9261 129.387C44.4483 129.794 45.0286 130.026 45.609 130.026C47.466 130.026 49.381 128.399 49.7872 125.551C50.1354 122.994 49.1489 121.309 47.1178 121.309Z" fill="black"/>
<path d="M71.3169 121.43H69.5759L67.951 133.053H69.9241L70.2723 130.438L70.3884 129.043L71.2008 122.302L71.3169 121.43Z" fill="black"/>
<path d="M73.9285 121.251C73.116 121.251 72.3036 121.599 71.6072 122.064L71.4331 123.575C72.0714 123.052 72.5937 122.82 73.174 122.82C74.4507 122.82 74.857 123.808 74.6248 125.493C74.3347 127.353 73.4062 128.341 72.2455 128.341C71.8393 128.341 71.3751 128.225 70.9108 127.876L70.7367 129.329C71.259 129.736 71.8393 129.968 72.4196 129.968C74.2766 129.968 76.1917 128.341 76.5979 125.493C76.9461 122.878 76.0176 121.251 73.9285 121.251Z" fill="black"/>
<path d="M54.4879 128.341H53.3853L53.7334 125.842L53.9656 124.389L54.3718 121.541H52.3987L51.2381 129.852H54.3138L54.4879 128.341Z" fill="black"/>
<path d="M55.1261 124.389H54.1976L54.0235 125.842H54.8359C55.9965 125.842 56.4608 126.249 56.3447 127.062C56.2287 127.818 55.7064 128.225 54.7779 128.283L54.6038 129.794C56.5188 129.736 57.9696 128.98 58.2598 127.062C58.4919 125.145 57.1572 124.389 55.1261 124.389Z" fill="black"/>
<path d="M64.0629 122.82C64.121 122.82 64.121 122.82 64.0629 122.82L64.295 121.309H64.237C62.264 121.309 60.1748 122.994 59.7686 125.668C59.3624 128.399 60.9873 130.026 63.2505 130.026C64.2951 130.026 65.3396 129.678 66.2101 129.096L65.6878 127.876C65.0495 128.283 64.4111 128.457 63.6567 128.457C62.322 128.457 61.5096 127.644 61.5096 126.133L61.6836 124.796C62.1479 123.575 63.1344 122.82 64.0629 122.82Z" fill="black"/>
<path d="M64.5852 121.367L64.4112 122.878C65.3397 122.994 65.6878 123.75 65.5137 124.912H62.0899L61.9158 126.249H66.9065C66.9645 126.016 67.0806 125.668 67.1386 125.319C67.4288 123.052 66.6163 121.483 64.5852 121.367Z" fill="black"/>
<path d="M80.0813 125.726C80.3134 124.04 81.416 122.936 82.7507 122.936C83.273 122.936 83.6792 123.169 84.0274 123.575L85.13 122.297C84.6077 121.774 83.9113 121.367 82.8087 121.367C80.6035 121.367 78.3984 122.994 78.0502 125.726H80.0813Z" fill="black"/>
<path d="M81.8786 128.457C80.6599 128.457 79.9055 127.469 80.0216 125.958H77.9905C77.7584 128.515 79.2091 130.026 81.4143 130.026C82.3428 130.026 83.3874 129.678 84.2579 128.98L83.6195 127.702C83.1553 128.167 82.5169 128.457 81.8786 128.457Z" fill="black"/>
<path d="M56.5779 140.894C56.81 139.209 57.9126 138.105 59.2473 138.105C59.7696 138.105 60.1758 138.337 60.524 138.744L61.6266 137.465C61.1044 136.942 60.408 136.535 59.3054 136.535C57.1002 136.535 54.895 138.163 54.5468 140.894H56.5779Z" fill="black"/>
<path d="M58.4339 143.684C57.2153 143.684 56.4609 142.696 56.5769 141.185H54.5458C54.3137 143.742 55.7645 145.253 57.9697 145.253C58.8982 145.253 59.9427 144.904 60.8132 144.207L60.1749 142.928C59.7106 143.335 59.0723 143.684 58.4339 143.684Z" fill="black"/>
<path d="M39.3996 121.541L37.6007 125.609C37.2525 126.365 35.2214 130.259 35.2214 130.259C34.8152 131.072 34.2349 131.712 33.3644 131.712C33.1903 131.712 32.9582 131.654 32.7841 131.595L32.2038 133.107C32.4939 133.223 32.7841 133.281 33.2483 133.281C35.0473 133.281 36.0919 132.119 37.0784 130.259L41.3147 121.541H39.3996Z" fill="black"/>
<path d="M36.1498 125.609L35.2794 121.541H33.3063L35.3374 129.503L36.44 127.469C36.3239 126.714 36.2659 126.249 36.1498 125.609Z" fill="black"/>
<path d="M78.1645 136.71L76.3655 140.778C76.0173 141.533 73.9862 145.427 73.9862 145.427C73.58 146.241 72.9997 146.88 72.1292 146.88C71.9551 146.88 71.723 146.822 71.5489 146.764L70.9686 148.275C71.2588 148.391 71.5489 148.449 72.0132 148.449C73.8121 148.449 74.8567 147.287 75.8432 145.427L80.0795 136.71H78.1645Z" fill="black"/>
<path d="M74.9148 140.836L74.0443 136.768H72.0713L74.1024 144.73L75.2049 142.696C75.1469 141.94 75.0309 141.475 74.9148 140.836Z" fill="black"/>
<path d="M67.7769 136.71L67.5448 138.279H68.4153L67.4868 145.079H69.4598L70.6205 136.71H67.7769Z" fill="black"/>
<path d="M64.9915 136.71C64.5272 138.453 64.121 140.139 63.6568 141.882C63.3666 142.928 62.9604 143.393 62.4381 143.393C62.264 143.393 62.1479 143.335 62.0319 143.335L61.4516 145.079C61.6837 145.195 61.9739 145.253 62.322 145.253C63.7148 145.253 64.7013 144.265 65.2236 142.405C65.5718 141.01 65.978 139.616 66.3262 138.279H67.1967L67.4288 136.71H64.9915Z" fill="black"/>
<path d="M94.3552 140.371C94.3552 140.197 94.4132 140.022 94.4132 139.848L94.7034 138.337C95.1096 136.477 95.6899 135.78 96.7925 135.431L97.0247 133.513C94.7614 134.153 93.1366 135.606 92.5562 139.964C92.092 143.161 93.1366 145.079 95.3998 145.253L95.5739 143.626C94.5293 143.393 94.0651 142.289 94.3552 140.371Z" fill="black"/>
<path d="M97.4889 137.117C96.6764 137.117 95.864 137.407 95.2257 137.93L94.9935 139.383C95.6319 138.802 96.2702 138.628 96.7925 138.628C97.9531 138.628 98.4754 139.441 98.3013 141.01C98.0692 142.638 97.2568 143.684 96.1542 143.684L95.9801 145.253C98.0692 145.253 99.9842 143.567 100.332 140.952C100.565 138.453 99.3459 137.117 97.4889 137.117Z" fill="black"/>
<path d="M98.8816 134.966C99.636 134.85 100.332 134.676 100.797 134.385L100.681 132.642C100.158 132.874 99.752 132.99 98.7655 133.106C98.3593 133.165 97.9531 133.223 97.6049 133.339L97.3727 135.199C97.7209 135.141 98.2432 135.082 98.8816 134.966Z" fill="black"/>
<path d="M97.4309 128.515C96.7345 128.515 96.2703 128.167 96.3863 127.469C96.5024 126.656 97.2568 126.132 99.1718 125.842L99.2879 124.621C96.1542 125.028 94.7034 125.958 94.4713 127.644C94.2972 129.096 95.1096 130.084 96.5604 130.084C97.3729 130.084 98.1273 129.736 98.8236 129.271L98.9397 127.934C98.4755 128.283 97.9532 128.515 97.4309 128.515Z" fill="black"/>
<path d="M99.1139 121.309C97.7792 121.309 96.5605 121.832 95.574 122.413L96.0963 123.692C96.9087 123.227 97.7211 122.878 98.5336 122.878C99.6362 122.878 99.9263 123.633 99.8103 124.505L99.404 128.922L99.288 129.852H101.029L101.725 124.912C102.015 122.587 101.145 121.309 99.1139 121.309Z" fill="black"/>
<path d="M104.337 143.742C103.64 143.742 103.176 143.393 103.292 142.696C103.408 141.882 104.163 141.359 106.078 141.068L106.194 139.848C103.06 140.255 101.609 141.185 101.377 142.87C101.145 144.323 102.015 145.311 103.466 145.311C104.279 145.311 105.033 144.962 105.729 144.497L105.845 143.161C105.381 143.509 104.859 143.742 104.337 143.742Z" fill="black"/>
<path d="M106.019 136.535C104.685 136.535 103.466 137.058 102.479 137.64L103.002 138.918C103.814 138.453 104.627 138.105 105.439 138.105C106.542 138.105 106.832 138.86 106.716 139.732L106.31 144.149L106.193 145.079H107.934L108.631 140.139C108.921 137.814 108.05 136.535 106.019 136.535Z" fill="black"/>
<path d="M108.109 121.541L107.876 122.994H108.921L108.515 125.493L108.341 126.888L107.934 129.852H109.908L111.068 121.541H108.109Z" fill="black"/>
<path d="M107.528 125.493C106.426 125.493 105.904 125.028 106.02 124.157C106.136 123.401 106.658 123.052 107.586 122.936L107.819 121.483C105.962 121.483 104.395 122.181 104.105 124.098C103.93 125.319 104.511 126.074 105.439 126.481L102.596 129.794H104.801L107.18 126.83H108.109L108.283 125.493H107.528Z" fill="black"/>
<path d="M41.7209 87.7755C41.0245 87.3106 40.3281 86.6713 40.3861 85.8577C40.4442 85.2765 40.8504 84.8116 41.3727 84.5791C41.895 84.3466 42.4753 84.2885 42.9976 84.3466C45.2027 84.5791 47.0597 86.032 48.6846 87.4849C50.1934 85.9158 53.6173 82.1382 53.6173 82.1382C53.6173 82.1382 53.3271 81.7314 53.153 81.4989C51.3541 79.2324 48.8007 77.6051 45.9572 76.8496C43.4038 76.2103 40.5602 76.3265 38.1229 77.4307C35.6856 78.535 33.6545 80.569 32.784 83.0681C31.9136 85.5671 32.2618 88.531 33.8286 90.6813C35.3955 92.7735 37.8908 93.994 40.3281 94.8657C41.0825 95.1563 41.895 95.3888 42.4753 95.9118C43.1136 96.4349 43.4618 97.3066 43.2297 98.0621C42.9976 98.7014 42.3592 99.1082 41.7209 99.2245C41.0825 99.3407 39.9219 99.2245 39.2836 98.992C37.2525 98.3527 34.7571 95.2144 34.7571 95.2144L28.7799 99.6313C28.7799 99.6313 29.7664 102.595 32.5519 104.978C34.2348 106.431 36.5561 107.012 38.7613 107.245C41.0825 107.477 43.4038 107.07 45.4929 106.082C47.582 105.094 49.323 103.409 50.3675 101.317C51.8764 98.3527 51.5862 94.4008 49.2649 91.9599C47.3499 89.9839 44.2162 89.4028 41.7209 87.7755Z" fill="black"/>
<path d="M59.0143 74.583C59.9428 75.2223 61.1034 75.3386 62.206 75.1642C63.7148 74.9317 65.1656 74.2343 66.2102 73.072C67.2547 71.9097 67.777 70.3405 67.5449 68.8295C67.2547 67.086 66.1521 65.9818 64.7014 65.575C62.7863 64.9938 60.349 65.575 58.8982 67.086C57.6215 68.4227 57.0992 70.4568 57.5635 72.2584C57.7956 73.1301 58.2599 74.0019 59.0143 74.583Z" fill="black"/>
<path d="M167.475 82.545C166.778 77.8376 161.846 76.036 155.578 77.0821C149.311 78.1282 145.771 83.3005 145.771 83.3005L149.891 87.8918C152.619 84.9278 155.346 84.4629 157.435 84.6372C159.524 84.8697 159.234 86.7875 159.234 86.7875L158.886 89.519C158.886 89.519 152.909 89.519 149.949 89.8677C146.99 90.2164 142.289 92.9479 142.057 99.0501C141.825 105.211 146.7 107.303 150.878 107.419C155.056 107.477 158.19 103.699 158.19 103.699C160.975 107.245 164.979 106.315 164.979 106.315C164.979 106.315 168.113 87.2525 167.475 82.545ZM157.029 98.9339C155.578 100.271 153.431 101.2 151.458 100.794C150.878 100.677 150.297 100.329 150.007 99.8057C149.253 98.3528 150.646 96.0862 152.038 95.6213C154.011 94.9239 157.9 95.0401 157.9 95.0401C157.783 96.2024 157.958 98.0622 157.029 98.9339Z" fill="black"/>
<path d="M135.5 67.3185L129.755 106.315H138.982L144.785 67.3185H135.5Z" fill="black"/>
<path d="M130.161 82.4869C129.29 78.7093 126.505 76.559 123.197 76.5009C119.889 76.4428 116.117 78.2444 114.957 80.1623C114.957 80.1623 113.1 76.4428 108.341 77.4889L102.77 116.195H112.345L113.622 105.675C113.622 105.675 114.783 107.187 118.322 107.128C121.862 107.07 126.331 104.106 127.782 100.213C129.29 96.3768 131.031 86.2645 130.161 82.4869ZM120.876 97.0742C120.876 97.0742 120.412 99.0502 118.148 99.1083C115.827 99.2245 115.131 98.0622 115.247 96.8999C115.363 95.7375 116.64 87.1363 116.64 87.1363C116.64 87.1363 117.51 84.6954 120.47 84.6372C122.036 84.6372 122.152 85.7996 122.211 86.6132C122.211 87.4268 120.876 97.0742 120.876 97.0742Z" fill="black"/>
<path d="M99.2299 76.8496C93.3687 76.0941 90.5252 79.4067 89.5967 80.3366C89.5967 80.3366 88.7262 77.8376 84.3159 76.7334C79.9055 75.6291 76.3075 79.2324 75.263 80.2785C75.263 80.2785 73.464 76.5009 68.4733 77.547L64.3531 106.315H73.8702L76.5397 86.9038C76.5397 86.9038 77.0039 84.521 80.0796 84.521C81.7625 84.521 82.1687 85.509 82.0526 87.0781C81.2402 95.4469 79.6153 106.315 79.6153 106.315H88.0299L90.6993 86.7875C90.6993 86.7875 91.2796 84.7535 94.0651 84.7535C96.8506 84.7535 95.9801 87.8336 95.9801 87.8336L93.5428 106.315H101.899L104.801 84.9859C104.801 84.9859 105.091 77.6051 99.2299 76.8496Z" fill="black"/>
<path d="M56.4609 77.547L52.2827 106.315H61.2775L65.4558 77.547H56.4609Z" fill="black"/>
</svg>
