<svg width="26" height="26" viewBox="0 0 26 26" fill="none" xmlns="http://www.w3.org/2000/svg">
<path d="M15.4133 16.7245L14.5744 17.5635C14.3503 17.7879 14.0162 17.8617 13.7185 17.7526C12.8841 17.4458 11.8403 16.6668 10.587 15.4134C9.33484 14.1612 8.55479 13.1173 8.24912 12.2817C8.13975 11.9841 8.21309 11.6501 8.43705 11.4257L9.2771 10.5867C10.8247 9.03898 10.9662 6.60129 9.60202 4.98333L8.61706 3.81261C7.49285 2.47544 5.46745 2.34071 4.09191 3.5103C3.58033 3.95119 3.19574 4.52069 2.97788 5.15996C2.88373 5.43824 2.82292 5.72671 2.79674 6.01932C2.29294 9.75908 4.09643 13.6845 8.2061 17.7945C12.3158 21.9045 16.2397 23.707 19.9803 23.2032C20.9521 23.1104 21.8507 22.6465 22.4891 21.9079C23.6598 20.5334 23.5239 18.5067 22.188 17.3824L21.0174 16.3962C19.3973 15.0341 16.9609 15.1768 15.4133 16.7245ZM12.2033 13.7972C12.8019 14.3959 13.324 14.85 13.746 15.1593C16.1726 12.7325 19.9485 12.5113 22.49 14.6481L23.6598 15.6336C25.9789 17.5853 26.2109 21.0632 24.2184 23.4026C23.1952 24.5863 21.755 25.3299 20.2854 25.4684C15.7345 26.0814 11.1578 23.9791 6.58979 19.4107C2.02168 14.8422 -0.0814676 10.2642 0.52012 5.81563C0.562412 5.34294 0.66064 4.87693 0.814356 4.42264C1.1635 3.39814 1.77984 2.48545 2.61129 1.76896C4.93959 -0.210735 8.41565 0.0211807 10.3661 2.3411L11.3495 3.50992C13.4891 6.04745 13.2699 9.82627 10.8923 12.204C11.1505 12.6765 11.6044 13.1983 12.2033 13.7972Z" fill="#1D71B8"/>
</svg>
