<svg width="36" height="36" viewBox="0 0 36 36" fill="none" xmlns="http://www.w3.org/2000/svg">
<rect width="36" height="36" rx="18" fill="#419FD9"/>
<path fill-rule="evenodd" clip-rule="evenodd" d="M22.0016 26.9132C23.2597 27.4637 23.7315 26.3104 23.7315 26.3104L27.0603 9.58769C27.0341 8.46061 25.5138 9.1421 25.5138 9.1421L6.87776 16.455C6.87776 16.455 5.98658 16.7695 6.06522 17.32C6.14385 17.8704 6.85155 18.1325 6.85155 18.1325L11.5433 19.7052C11.5433 19.7052 12.9587 24.3445 13.2471 25.2357C13.5092 26.1007 13.7451 26.1269 13.7451 26.1269C14.0072 26.2317 14.2431 26.0483 14.2431 26.0483L17.2836 23.2961L22.0016 26.9132ZM22.8142 12.5495C22.8142 12.5495 23.4694 12.1563 23.4432 12.5495C23.4432 12.5495 23.5481 12.6019 23.2073 12.9689C22.8928 13.2834 15.4751 19.941 14.479 20.8322C14.4004 20.8846 14.348 20.9633 14.348 21.0681L14.0597 23.532C14.0072 23.7941 13.6665 23.8203 13.5879 23.5844L12.3559 19.5479C12.3035 19.3906 12.3559 19.2071 12.5132 19.1023L22.8142 12.5495Z" fill="white"/>
</svg>
