<svg width="36" height="36" viewBox="0 0 36 36" fill="none" xmlns="http://www.w3.org/2000/svg">
<rect width="36" height="36" rx="18" fill="#0DC143"/>
<path d="M26.0631 9.90862C24.1333 7.92213 21.4658 6.84375 18.7415 6.84375C12.9523 6.84375 8.29821 11.5546 8.35497 17.287C8.35497 19.1032 8.86578 20.8627 9.71713 22.4519L8.24146 27.8438L13.7469 26.4248C15.2793 27.2762 16.982 27.6735 18.6847 27.6735C24.4171 27.6735 29.0712 22.9627 29.0712 17.2302C29.0712 14.4492 27.9928 11.8383 26.0631 9.90862ZM18.7415 25.914C17.209 25.914 15.6766 25.5167 14.3712 24.7221L14.0306 24.5519L10.7388 25.4032L11.5901 22.1681L11.3631 21.8275C8.86578 17.7978 10.0577 12.4627 14.1442 9.96537C18.2306 7.46807 23.509 8.65997 26.0063 12.7465C28.5036 16.8329 27.3117 22.1113 23.2252 24.6086C21.9198 25.46 20.3306 25.914 18.7415 25.914ZM23.736 19.614L23.1117 19.3302C23.1117 19.3302 22.2036 18.9329 21.6361 18.6492C21.5793 18.6492 21.5225 18.5924 21.4658 18.5924C21.2955 18.5924 21.182 18.6492 21.0685 18.7059C21.0685 18.7059 21.0117 18.7627 20.2171 19.6708C20.1604 19.7843 20.0469 19.841 19.9333 19.841H19.8766C19.8198 19.841 19.7063 19.7843 19.6496 19.7275L19.3658 19.614C18.7415 19.3302 18.1739 18.9897 17.7198 18.5356C17.6063 18.4221 17.4361 18.3086 17.3225 18.1951C16.9252 17.7978 16.5279 17.3438 16.2442 16.8329L16.1874 16.7194C16.1306 16.6627 16.1306 16.6059 16.0739 16.4924C16.0739 16.3789 16.0739 16.2654 16.1306 16.2086C16.1306 16.2086 16.3577 15.9248 16.5279 15.7546C16.6415 15.641 16.6982 15.4708 16.8117 15.3573C16.9252 15.187 16.982 14.96 16.9252 14.7897C16.8685 14.5059 16.1874 12.9735 16.0171 12.6329C15.9036 12.4627 15.7901 12.4059 15.6198 12.3492H15.4496C15.3361 12.3492 15.1658 12.3492 14.9955 12.3492C14.882 12.3492 14.7685 12.4059 14.655 12.4059L14.5982 12.4627C14.4847 12.5194 14.3712 12.6329 14.2577 12.6897C14.1442 12.8032 14.0874 12.9167 13.9739 13.0302C13.5766 13.541 13.3496 14.1654 13.3496 14.7897C13.3496 15.2438 13.4631 15.6978 13.6333 16.0951L13.6901 16.2654C14.2009 17.3438 14.882 18.3086 15.7901 19.16L16.0171 19.387C16.1874 19.5573 16.3577 19.6708 16.4712 19.841C17.6631 20.8627 19.0252 21.6005 20.5577 21.9978C20.7279 22.0546 20.955 22.0546 21.1252 22.1113C21.2955 22.1113 21.5225 22.1113 21.6928 22.1113C21.9766 22.1113 22.3171 21.9978 22.5442 21.8843C22.7144 21.7708 22.8279 21.7708 22.9415 21.6573L23.055 21.5437C23.1685 21.4302 23.282 21.3735 23.3955 21.26C23.509 21.1465 23.6225 21.0329 23.6793 20.9194C23.7928 20.6924 23.8496 20.4086 23.9063 20.1248C23.9063 20.0113 23.9063 19.841 23.9063 19.7275C23.9063 19.7275 23.8496 19.6708 23.736 19.614Z" fill="white"/>
</svg>
