<?xml version="1.0" standalone="no"?>
<!DOCTYPE svg PUBLIC "-//W3C//DTD SVG 1.1//EN" "http://www.w3.org/Graphics/SVG/1.1/DTD/svg11.dtd" >
<svg>
<metadata>
Created by FontForge 20090914 at Sat Aug 22 18:45:50 2020
 By www-data
Copyright 2017 The Barlow Project Authors (https://github.com/jpt/barlow)
</metadata>
<defs>
<font id="BarlowCondensed-Regular" horiz-adv-x="424" >
  <font-face 
    font-family="Barlow Condensed"
    font-weight="400"
    font-stretch="condensed"
    units-per-em="1000"
    panose-1="0 0 5 6 0 0 0 0 0 0"
    ascent="800"
    descent="-200"
    x-height="505.999"
    cap-height="700"
    bbox="-601.341 -209.001 979.998 1074"
    underline-thickness="50"
    underline-position="-50"
    unicode-range="U+000D-U+FB02"
  />
<missing-glyph horiz-adv-x="341" 
d="M4 0h333c2.66699 -0 4 1.33301 4 4v692c0 2.66699 -1.33301 4 -4 4h-333c-2.66699 0 -4 -1.33301 -4 -4v-692c-0 -2.66699 1.33301 -4 4 -4zM139 242l0.000976562 38.998c0 20.667 3.83301 37.334 11.5 50.001s19.5 27.334 35.5 44.001c16 16 28 30.667 36 44
s12 30.333 12 51c0 24 -5.5 43.167 -16.5 57.5s-25.167 21.5 -42.5 21.5c-18.667 0 -33.667 -7.33301 -45 -22s-17 -34 -17 -58v-19c0 -6.66699 -3.33301 -10 -10 -10l-31 2c-6.66699 0 -10 3.33301 -10 10v17c0 38 10.5 68.667 31.5 92s48.5 35 82.5 35
c32.667 0 59 -11.5 79 -34.5s30 -53.5 30 -91.5c0 -30 -4.83301 -53.5 -14.5 -70.5s-23.834 -34.833 -42.501 -53.5c-13.333 -13.333 -23 -24.5 -29 -33.5s-9 -20.167 -9 -33.5v-37c0 -6.66699 -3.33301 -10 -10 -10h-31c-6.66699 0 -10 3.33301 -10 10zM136.501 102.498
c-7.66699 7.66699 -11.5 17.167 -11.5 28.5s3.83301 20.833 11.5 28.5s17.167 11.5 28.5 11.5s20.833 -3.83301 28.5 -11.5s11.5 -17.167 11.5 -28.5s-3.83301 -20.833 -11.5 -28.5s-17.167 -11.5 -28.5 -11.5s-20.833 3.83301 -28.5 11.5z" />
    <glyph glyph-name="fi" unicode="fi" horiz-adv-x="484" 
d="M168 620.5c-10.667 -17 -16 -43.5 -16 -79.5v-31c0 -2.66699 1.33301 -4 4 -4h77c6.66699 0 10 -3.33301 10 -10v-33c0 -6.66699 -3.33301 -10 -10 -10h-77c-2.66699 0 -4 -1.33301 -4 -4v-439c0 -6.66699 -3.33301 -10 -10 -10h-50c-6.66699 -0 -10 3.33301 -10 10v439
c0 2.66699 -1.33301 4 -4 4h-40c-6.66699 0 -10 3.33301 -10 10v33c0 6.66699 3.33301 10 10 10h40c2.66699 0 4 1.33301 4 4v32c0 58 10.667 100 32 126s57 39 107 39h14c6.66699 0 10 -3.33301 10 -10l-1 -41c0 -6.66699 -3.33301 -10 -10 -10h-12
c-25.333 0 -43.333 -8.5 -54 -25.5zM339.5 614c-10.333 10.667 -15.5 24 -15.5 40c0 16.667 5.16699 30.167 15.5 40.5s23.833 15.5 40.5 15.5c16 0 29.167 -5.16699 39.5 -15.5s15.5 -23.833 15.5 -40.5c0 -16 -5.16699 -29.333 -15.5 -40s-23.5 -16 -39.5 -16
c-16.667 0 -30.167 5.33301 -40.5 16zM345 10v486c0 6.66699 3.33301 10 10 10h51c6.66699 0 10 -3.33301 10 -10v-486c0 -6.66699 -3.33301 -10 -10 -10h-51c-6.66699 -0 -10 3.33301 -10 10z" />
    <glyph glyph-name="fl" unicode="fl" horiz-adv-x="458" 
d="M168 620.5c-10.667 -17 -16 -43.5 -16 -79.5v-31c0 -2.66699 1.33301 -4 4 -4h77c6.66699 0 10 -3.33301 10 -10v-33c0 -6.66699 -3.33301 -10 -10 -10h-77c-2.66699 0 -4 -1.33301 -4 -4v-439c0 -6.66699 -3.33301 -10 -10 -10h-50c-6.66699 -0 -10 3.33301 -10 10v439
c0 2.66699 -1.33301 4 -4 4h-40c-6.66699 0 -10 3.33301 -10 10v33c0 6.66699 3.33301 10 10 10h40c2.66699 0 4 1.33301 4 4v32c0 58 10.667 100 32 126s57 39 107 39h14c6.66699 0 10 -3.33301 10 -10l-1 -41c0 -6.66699 -3.33301 -10 -10 -10h-12
c-25.333 0 -43.333 -8.5 -54 -25.5zM331 10v680c0 6.66699 3.33301 10 10 10h51c6.66699 0 10 -3.33301 10 -10v-680c0 -6.66699 -3.33301 -10 -10 -10h-51c-6.66699 -0 -10 3.33301 -10 10z" />
    <glyph glyph-name="I_J.liga" unicode="IJ" horiz-adv-x="640" 
d="M72 10v680c0 6.66699 3.33301 10 10 10h51c6.66699 0 10 -3.33301 10 -10v-680c0 -6.66699 -3.33301 -10 -10 -10h-51c-6.66699 -0 -10 3.33301 -10 10zM283 38.5c-30.667 31 -46 71.833 -46 122.5v84c0 6.66699 3.33301 10 10 10h51c6.66699 0 10 -3.33301 10 -10v-85
c0 -31.333 8.66699 -56.833 26 -76.5s40.333 -29.5 69 -29.5c28 0 50.833 9.83301 68.5 29.5s26.5 45.167 26.5 76.5v530c0 6.66699 3.33301 10 10 10h51c6.66699 0 10 -3.33301 10 -10v-529c0 -50.667 -15.333 -91.5 -46 -122.5s-70.667 -46.5 -120 -46.5
s-89.333 15.5 -120 46.5z" />
    <glyph glyph-name="f_f_i.liga" unicode="ffi" horiz-adv-x="745" 
d="M681 694.5c10.667 -10.333 16 -23.833 16 -40.5c0 -16 -5.33301 -29.333 -16 -40s-24 -16 -40 -16c-16.667 0 -30.167 5.33301 -40.5 16s-15.5 24 -15.5 40c0 16.667 5.16699 30.167 15.5 40.5s23.833 15.5 40.5 15.5c16 0 29.333 -5.16699 40 -15.5zM416 510
c0 -2.66699 1.33398 -4 4.00098 -4h77c6.66699 0 10 -3.33301 10 -10v-33c0 -6.66699 -3.33301 -10 -10 -10h-77c-2.66699 0 -4 -1.33301 -4 -4v-439c0 -6.66699 -3.33301 -10 -10 -10h-51c-6.66699 -0 -10 3.33301 -10 10v439c0 2.66699 -1.33301 4 -4 4h-184
c-2.66699 0 -4 -1.33301 -4 -4v-439c0 -6.66699 -3.33301 -10 -10 -10h-51c-6.66699 -0 -10 3.33301 -10 10v439c0 2.66699 -1.33301 4 -4 4h-40c-6.66699 0 -10 3.33301 -10 10v33c0 6.66699 3.33301 10 10 10h40c2.66699 0 4 1.33301 4 4v42
c0 54.667 11 94.334 33 119.001s57.667 36.667 107 36h10c6.66699 0 10 -3.33301 10 -10v-32c0 -6.66699 -3.33301 -10 -10 -10h-10c-26.667 -0.666992 -44.834 -9.83398 -54.501 -27.501s-14.5 -44.5 -14.5 -80.5v-37c0 -2.66699 1.33301 -4 4 -4h184
c2.66699 0 4 1.33301 4 4v42c0 54.667 11 94.334 33 119.001s57.667 36.667 107 36h10c6.66699 0 10 -3.33301 10 -10v-32c0 -6.66699 -3.33301 -10 -10 -10h-9c-26.667 -0.666992 -45 -9.83398 -55 -27.501s-15 -44.5 -15 -80.5v-37zM606.001 10v486
c0 6.66699 3.33301 10 10 10h51c6.66699 0 10 -3.33301 10 -10v-486c0 -6.66699 -3.33301 -10 -10 -10h-51c-6.66699 -0 -10 3.33301 -10 10z" />
    <glyph glyph-name="f_f_l.liga" unicode="ffl" horiz-adv-x="723" 
d="M418 510c0 -2.66699 1.33398 -4 4.00098 -4h77c6.66699 0 10 -3.33301 10 -10v-33c0 -6.66699 -3.33301 -10 -10 -10h-77c-2.66699 0 -4 -1.33301 -4 -4v-439c0 -6.66699 -3.33301 -10 -10 -10h-51c-6.66699 -0 -10 3.33301 -10 10v439c0 2.66699 -1.33301 4 -4 4h-186
c-2.66699 0 -4 -1.33301 -4 -4v-439c0 -6.66699 -3.33301 -10 -10 -10h-51c-6.66699 -0 -10 3.33301 -10 10v439c0 2.66699 -1.33301 4 -4 4h-40c-6.66699 0 -10 3.33301 -10 10v33c0 6.66699 3.33301 10 10 10h40c2.66699 0 4 1.33301 4 4v42
c0 54.667 11 94.334 33 119.001s57.667 36.667 107 36h10c6.66699 0 10 -3.33301 10 -10v-32c0 -6.66699 -3.33301 -10 -10 -10h-10c-26.667 -0.666992 -44.834 -9.83398 -54.501 -27.501s-14.5 -44.5 -14.5 -80.5v-37c0 -2.66699 1.33301 -4 4 -4h186
c2.66699 0 4 1.33301 4 4v42c0 54.667 11 94.334 33 119.001s57.667 36.667 107 36h10c6.66699 0 10 -3.33301 10 -10v-32c0 -6.66699 -3.33301 -10 -10 -10h-9c-26.667 -0.666992 -45 -9.83398 -55 -27.501s-15 -44.5 -15 -80.5v-37zM607.001 700h51
c6.66699 0 10 -3.33301 10 -10v-680c0 -6.66699 -3.33301 -10 -10 -10h-51c-6.66699 -0 -10 3.33301 -10 10v680c0 6.66699 3.33301 10 10 10z" />
    <glyph glyph-name="g_j.liga" unicode="gj" horiz-adv-x="612" 
d="M549 694.5c10.667 -10.333 16 -23.833 16 -40.5c0 -16 -5.33301 -29.333 -16 -40s-24 -16 -40 -16s-29.333 5.33301 -40 16s-16 24 -16 40c0 16.667 5.33301 30.167 16 40.5s24 15.5 40 15.5s29.333 -5.16699 40 -15.5zM289.5 461.5
c1 0.333008 1.50098 1.49707 1.50098 3.49707v31c0 6.66699 3.33301 10 10 10h51c6.66699 0 10 -3.33301 10 -10v-486c0 -71.333 -16.5 -125.5 -49.5 -162.5s-88.167 -53.833 -165.5 -50.5c-6.66699 0.666992 -10 4.33398 -10 11.001v43c0 6.66699 3.33301 10 10 10
c53.333 -1.33301 90.666 10.834 111.999 36.501s32 65.167 32 118.5v30c0 1.33301 -0.5 2.33301 -1.5 3s-2.16699 0.333984 -3.5 -0.999023c-11.333 -16.667 -25.833 -29.334 -43.5 -38.001s-36.5 -13 -56.5 -13c-42 0 -75.167 14 -99.5 42s-36.5 65 -36.5 111v211
c0 46.667 12.167 83.834 36.5 111.501s57.5 41.5 99.5 41.5c20 0 38.833 -4.16699 56.5 -12.5s32.167 -20.833 43.5 -37.5c1.33301 -2 2.5 -2.83301 3.5 -2.5zM474.001 495.997c0 6.66699 3.33301 10 10 10h50c6.66699 0 10 -3.33301 10 -10v-540
c0 -54 -10.667 -94.667 -32 -122s-58 -41.333 -110 -42c-6.66699 0 -10 3.33301 -10 10l1 42c0 6.66699 2.66699 10 8 10c23.333 0.666992 41.333 10 54 28s19 42.667 19 74v540zM267.501 85.4971c15.667 17.667 23.5 40.5 23.5 68.5v202
c0 28.667 -7.83301 51.834 -23.5 69.501s-35.834 26.5 -60.501 26.5c-25.333 0 -46 -8.83301 -62 -26.5s-24 -40.834 -24 -69.501v-202c0 -28 8 -50.833 24 -68.5s36.667 -26.5 62 -26.5c24.667 0 44.834 8.83301 60.501 26.5z" />
    <glyph glyph-name="i_j.liga" unicode="ij" horiz-adv-x="403" 
d="M63.5 614c-10.333 10.667 -15.5 24 -15.5 40c0 16.667 5.16699 30.167 15.5 40.5s23.833 15.5 40.5 15.5c16 0 29.167 -5.16699 39.5 -15.5s15.5 -23.833 15.5 -40.5c0 -16 -5.16699 -29.333 -15.5 -40s-23.5 -16 -39.5 -16c-16.667 0 -30.167 5.33301 -40.5 16z
M259.5 614c-10.333 10.667 -15.5 24 -15.5 40c0 16.667 5.16699 30.167 15.5 40.5s23.833 15.5 40.5 15.5c16 0 29.333 -5.16699 40 -15.5s16 -23.833 16 -40.5c0 -16 -5.33301 -29.333 -16 -40s-24 -16 -40 -16c-16.667 0 -30.167 5.33301 -40.5 16zM68 10v486
c0 6.66699 3.33301 10 10 10h51c6.66699 0 10 -3.33301 10 -10v-486c0 -6.66699 -3.33301 -10 -10 -10h-51c-6.66699 -0 -10 3.33301 -10 10zM173 -198v42c0 6.66699 3.33301 10 10 10c54 2 81 36 81 102v540c0 6.66699 3.33301 10 10 10h51c6.66699 0 10 -3.33301 10 -10
v-540c0 -54.667 -10.667 -95.667 -32 -123s-61.333 -41 -120 -41c-6.66699 0 -10 3.33301 -10 10z" />
    <glyph glyph-name="hyphen_hyphen.liga" unicode="&#x2d;&#x2d;" horiz-adv-x="592" 
d="M32 283v42c0 6.66699 3.33301 10 10 10h508c6.66699 0 10 -3.33301 10 -10v-42c0 -6.66699 -3.33301 -10 -10 -10h-508c-6.66699 0 -10 3.33301 -10 10z" />
    <glyph glyph-name=".notdef" horiz-adv-x="341" 
d="M4 0h333c2.66699 -0 4 1.33301 4 4v692c0 2.66699 -1.33301 4 -4 4h-333c-2.66699 0 -4 -1.33301 -4 -4v-692c-0 -2.66699 1.33301 -4 4 -4zM139 242l0.000976562 38.998c0 20.667 3.83301 37.334 11.5 50.001s19.5 27.334 35.5 44.001c16 16 28 30.667 36 44
s12 30.333 12 51c0 24 -5.5 43.167 -16.5 57.5s-25.167 21.5 -42.5 21.5c-18.667 0 -33.667 -7.33301 -45 -22s-17 -34 -17 -58v-19c0 -6.66699 -3.33301 -10 -10 -10l-31 2c-6.66699 0 -10 3.33301 -10 10v17c0 38 10.5 68.667 31.5 92s48.5 35 82.5 35
c32.667 0 59 -11.5 79 -34.5s30 -53.5 30 -91.5c0 -30 -4.83301 -53.5 -14.5 -70.5s-23.834 -34.833 -42.501 -53.5c-13.333 -13.333 -23 -24.5 -29 -33.5s-9 -20.167 -9 -33.5v-37c0 -6.66699 -3.33301 -10 -10 -10h-31c-6.66699 0 -10 3.33301 -10 10zM136.501 102.498
c-7.66699 7.66699 -11.5 17.167 -11.5 28.5s3.83301 20.833 11.5 28.5s17.167 11.5 28.5 11.5s20.833 -3.83301 28.5 -11.5s11.5 -17.167 11.5 -28.5s-3.83301 -20.833 -11.5 -28.5s-17.167 -11.5 -28.5 -11.5s-20.833 3.83301 -28.5 11.5z" />
    <glyph glyph-name="NULL" horiz-adv-x="0" 
 />
    <glyph glyph-name="NULL" horiz-adv-x="0" 
 />
    <glyph glyph-name="nonmarkingreturn" unicode="&#xd;" horiz-adv-x="200" 
 />
    <glyph glyph-name="space" unicode=" " horiz-adv-x="200" 
 />
    <glyph glyph-name="exclam" unicode="!" horiz-adv-x="251" 
d="M97 238l-6 452c0 6.66699 3.33301 10 10 10h51c6.66699 0 10 -3.33301 10 -10l-7 -452c0 -6.66699 -3.33301 -10 -10 -10h-38c-6.66699 0 -10 3.33301 -10 10zM85.5 19.5c-10.333 10.333 -15.5 23.5 -15.5 39.5c0 16.667 5.16699 30.167 15.5 40.5s23.833 15.5 40.5 15.5
c16 0 29.333 -5.16699 40 -15.5s16 -23.833 16 -40.5c0 -16 -5.33301 -29.167 -16 -39.5s-24 -15.5 -40 -15.5c-16.667 0 -30.167 5.16699 -40.5 15.5z" />
    <glyph glyph-name="quotedbl" unicode="&#x22;" horiz-adv-x="235" 
d="M30 498l-8 186c0 6.66699 3.33301 10 10 10h50c6.66699 0 10 -3.33301 10 -10l-8 -186c0 -6.66699 -3.33301 -10 -10 -10h-34c-6.66699 0 -10 3.33301 -10 10zM148 498l-7 186c0 6.66699 3.33301 10 10 10h50c6.66699 0 10 -3.33301 10 -10l-8 -186
c0 -6.66699 -3.33301 -10 -10 -10h-35c-6.66699 0 -10 3.33301 -10 10z" />
    <glyph glyph-name="numbersign" unicode="#" horiz-adv-x="589" 
d="M524 429h-63c-3.33301 0 -5 -1.33301 -5 -4l-23 -159c0 -2.66699 1 -4 3 -4h55c6.66699 0 10 -3.33301 10 -10v-42c0 -6.66699 -3.33301 -10 -10 -10h-65c-3.33301 0 -5 -1.33301 -5 -4l-25 -171c-0.666992 -6 -4 -9 -10 -9l-51 2c-2.66699 0 -5 1 -7 3
s-2.66699 4.66699 -2 8l24 167c0 2.66699 -1 4 -3 4h-146c-3.33301 0 -5 -1.33301 -5 -4l-25 -171c-0.666992 -6 -4 -9 -10 -9l-51 2c-2.66699 0 -5 1 -7 3s-2.66699 4.66699 -2 8l24 167c0 2.66699 -1 4 -3 4h-57c-6.66699 0 -10 3.33301 -10 10v42
c0 6.66699 3.33301 10 10 10h66c3.33301 0 5 1.33301 5 4l23 159c0 2.66699 -1 4 -3 4h-58c-6.66699 0 -10 3.33301 -10 10v43c0 6.66699 3.33301 10 10 10h68c3.33301 0 5 1.33301 5 4l25 171c0.666992 6 4 9 10 9l51 -2c2.66699 0 5 -1 7 -3s2.66699 -4.66699 2 -8
l-24 -167c0 -2.66699 1 -4 3 -4h146c3.33301 0 5 1.33301 5 4l25 171c0.666992 6 4 9 10 9l51 -2c2.66699 0 5 -1 7 -3s2.66699 -4.66699 2 -8l-24 -167c0 -2.66699 1 -4 3 -4h54c6.66699 0 10 -3.33301 10 -10v-43c0 -6.66699 -3.33301 -10 -10 -10zM361 266l23 159
c0 2.66699 -1 4 -3 4h-145c-3.33301 0 -5 -1.33301 -5 -4l-23 -159c0 -2.66699 1 -4 3 -4h145c3.33301 0 5 1.33301 5 4z" />
    <glyph glyph-name="dollar" unicode="$" horiz-adv-x="416" 
d="M340.5 54c-23.667 -31.333 -55.5029 -50.6641 -95.5029 -57.9971c-2.66699 -0.666992 -4 -2.33398 -4 -5.00098v-70c0 -6.66699 -3.33301 -10 -10 -10h-35c-6.66699 0 -10 3.33301 -10 10l1 68c0 2.66699 -1.33301 4 -4 4c-42.667 6 -76.834 24.833 -102.501 56.5
s-38.5 71.5 -38.5 119.5v23c0 6.66699 3.33301 10 10 10h49c6.66699 0 10 -3.33301 10 -10v-20c0 -35.333 9 -63.833 27 -85.5s41.333 -32.5 70 -32.5c28 0 51.333 10.333 70 31s28 48 28 82c0 22.667 -4.5 42.167 -13.5 58.5s-20.667 30.666 -35 42.999
s-38.166 31.166 -71.499 56.499c-33.333 24.667 -59.666 45.834 -78.999 63.501s-35.166 38.834 -47.499 63.501s-18.5 53.667 -18.5 87c0 47.333 12.667 85.833 38 115.5s59 47.167 101 52.5c2.66699 0 4 1.33301 4 4l-1 74c0 6.66699 3.33301 10 10 10h35
c6.66699 0 10 -3.33301 10 -10l-1 -76c0 -2.66699 1.33301 -4.33398 4 -5.00098c40 -7.33301 71.5 -26.833 94.5 -58.5s34.5 -71.167 34.5 -118.5v-25c0 -6.66699 -3.33301 -10 -10 -10h-50c-6.66699 0 -10 3.33301 -10 10v26c0 35.333 -8.83301 63.833 -26.5 85.5
s-41.167 32.5 -70.5 32.5c-26.667 0 -48.667 -9.5 -66 -28.5s-26 -45.833 -26 -80.5c0 -20.667 3.83301 -38.834 11.5 -54.501s19.167 -30.5 34.5 -44.5s38 -32.333 68 -55c40 -29.333 69.833 -53.166 89.5 -71.499s34.834 -38.333 45.501 -60s16 -47.834 16 -78.501
c0 -48 -11.833 -87.667 -35.5 -119z" />
    <glyph glyph-name="percent" unicode="%" horiz-adv-x="781" 
d="M141.5 444c-21.667 12.667 -38.667 29.834 -51 51.501s-18.5 45.5 -18.5 71.5s6.16699 49.833 18.5 71.5s29.333 38.834 51 51.501s45.167 19 70.5 19s48.666 -6.33301 69.999 -19s38.166 -29.834 50.499 -51.501s18.5 -45.5 18.5 -71.5s-6.16699 -49.833 -18.5 -71.5
s-29.166 -38.834 -50.499 -51.501s-44.666 -19 -69.999 -19s-48.833 6.33301 -70.5 19zM179.5 3.5c-1.66699 2.33301 -1.5 5.16602 0.5 8.49902l367 681c2 4.66699 6 7 12 7h32c4 0 6.83301 -1.16699 8.5 -3.5s1.5 -5.16602 -0.5 -8.49902l-367 -681
c-2 -4.66699 -6 -7 -12 -7h-32c-4 0 -6.83301 1.16699 -8.5 3.5zM279.5 496.5c18.333 19.667 27.5 43.167 27.5 70.5c0 28 -9.16699 51.667 -27.5 71s-40.833 29 -67.5 29s-49.334 -9.66699 -68.001 -29s-28 -43 -28 -71s9.33301 -51.667 28 -71s41.334 -29 68.001 -29
s49.167 9.83301 67.5 29.5zM500.5 10c-21.667 12.667 -38.667 30 -51 52s-18.5 46 -18.5 72c0 25.333 6.16699 48.833 18.5 70.5s29.333 38.834 51 51.501s45.167 19 70.5 19s48.666 -6.33301 69.999 -19s38.166 -29.834 50.499 -51.501s18.5 -45.167 18.5 -70.5
c0 -26 -6.16699 -50 -18.5 -72s-29.166 -39.333 -50.499 -52s-44.666 -19 -69.999 -19s-48.833 6.33301 -70.5 19zM638.5 62.5c18.333 19.667 27.502 43.5 27.502 71.5c0 27.333 -9.33301 50.666 -28 69.999s-41 29 -67 29c-26.667 0 -49.334 -9.66699 -68.001 -29
s-28 -42.666 -28 -69.999c0 -28.667 9.16699 -52.667 27.5 -72s41.166 -29 68.499 -29c26.667 0 49.167 9.83301 67.5 29.5z" />
    <glyph glyph-name="ampersand" unicode="&#x26;" horiz-adv-x="542" 
d="M494 6c0 -1.33301 -0.666992 -2.67285 -2 -4.00586s-3.33301 -2 -6 -2h-54c-5.33301 0 -9.33301 2 -12 6l-41 60c-0.666992 1.33301 -1.66699 2 -3 2s-2.33301 -0.333008 -3 -1c-24.667 -26.667 -50.167 -46 -76.5 -58s-55.833 -18 -88.5 -18
c-51.333 0 -92 14.333 -122 43s-45 69.334 -45 122.001c0 44.667 10.667 83.5 32 116.5s50.666 65.167 87.999 96.5c2 0.666992 2.33301 2.33398 1 5.00098c-24 36 -41.667 63.833 -53 83.5s-18.833 36.334 -22.5 50.001s-5.5 29.167 -5.5 46.5c0 46.667 13.333 84 40 112
s61.667 42 105 42s78.833 -14.167 106.5 -42.5s41.5 -65.166 41.5 -110.499c0 -40.667 -10.333 -75.5 -31 -104.5s-50.334 -59.833 -89.001 -92.5c-2 -0.666992 -2.33301 -2.33398 -1 -5.00098c26.667 -37.333 46.334 -65.666 59.001 -84.999l62 -88
c0.666992 -0.666992 1.66699 -1 3 -1s2.33301 0.333008 3 1c9.33301 14 25.333 41 48 81c1.33301 2.66699 3.33301 4.33398 6 5.00098s5.33398 0.333984 8.00098 -0.999023l38 -22c5.33301 -3.33301 6.33301 -8 3 -14c-21.333 -39.333 -43 -74.333 -65 -105
c-0.666992 -2 -0.666992 -4 0 -6l74 -106c1.33301 -1.33301 2 -3.33301 2 -6zM173 618.493c-14 -16.333 -21 -38.498 -21 -66.498c0 -18.667 3.5 -36.334 10.5 -53.001s23.167 -44.334 48.5 -83.001c1.33301 -2.66699 3 -3 5 -1c28 24 49.5 46.667 64.5 68
s22.5 45.333 22.5 72s-7 48 -21 64s-32 24 -54 24c-22.667 0 -41 -8.16699 -55 -24.5zM277 69.4951c19.333 11 39 27.832 59 50.499c1.33301 2 1.33301 4 0 6l-48 69l-83 117c-1.33301 2 -3 2 -5 0c-28.667 -24.667 -50.5 -49 -65.5 -73s-22.5 -51 -22.5 -81
c0 -31.333 9 -56.666 27 -75.999s43.333 -29 76 -29c22 0 42.667 5.5 62 16.5z" />
    <glyph glyph-name="quotesingle" unicode="'" horiz-adv-x="119" 
d="M30 503l-8 185c0 6.66699 3.33301 10 10 10h53c6.66699 0 10 -3.33301 10 -10l-8 -185c0 -6.66699 -3.33301 -10 -10 -10h-37c-6.66699 0 -10 3.33301 -10 10z" />
    <glyph glyph-name="parenleft" unicode="(" horiz-adv-x="222" 
d="M85 -97c-26 50.667 -47.1689 113.167 -63.502 187.5s-24.5 152.5 -24.5 234.5c0 84 8.33301 164 25 240s38.334 139.667 65.001 191c2.66699 4.66699 6.66699 7 12 7h49c3.33301 0 5.83301 -1.16699 7.5 -3.5s1.83398 -4.83301 0.500977 -7.5
c-22.667 -52.667 -41.334 -116.667 -56.001 -192s-22 -153.333 -22 -234c0 -79.333 7.33301 -155.833 22 -229.5s33.334 -136.5 56.001 -188.5l1 -4c0 -5.33301 -3 -8 -9 -8h-51c-5.33301 0 -9.33301 2.33301 -12 7z" />
    <glyph glyph-name="parenright" unicode=")" horiz-adv-x="222" 
d="M136 756c26 -50 47.168 -112.333 63.501 -187s24.5 -153 24.5 -235c0 -84.667 -8.33301 -165.167 -25 -241.5s-38.334 -139.5 -65.001 -189.5c-2.66699 -4.66699 -6.66699 -7 -12 -7h-48c-3.33301 0 -5.83301 1.16699 -7.5 3.5s-1.83398 4.83301 -0.500977 7.5
c22.667 53.333 41.334 117.5 56.001 192.5s22 152.5 22 232.5c0 79.333 -7.33301 155.833 -22 229.5s-33.334 137.167 -56.001 190.5c-0.666992 0.666992 -1 2 -1 4s0.833008 3.66699 2.5 5s3.83398 2 6.50098 2h50c5.33301 0 9.33301 -2.33301 12 -7z" />
    <glyph glyph-name="asterisk" unicode="*" horiz-adv-x="361" 
d="M157 404l1.00098 120.001c0 4 -1.66699 5 -5 3l-100 -61l-5 -2c-3.33301 0 -6.33301 2 -9 6l-12 22c-1.33301 2.66699 -2 4.66699 -2 6c0 4 1.66699 6.66699 5 8l102 61c1.33301 0.666992 2 1.66699 2 3s-0.666992 2.33301 -2 3l-102 61
c-2.66699 1.33301 -4.16699 3.33301 -4.5 6s0.166992 5.33398 1.5 8.00098l12 24c3.33301 6.66699 8 8 14 4l100 -62c3.33301 -1.33301 5 -0.333008 5 3l-1 119c0 6.66699 3.33301 10 10 10h26c6.66699 0 10 -3.33301 10 -10v-119c0 -1.33301 0.666992 -2.33301 2 -3
s2.33301 -0.666992 3 0l99 62c2.66699 1.33301 4.66699 2 6 2c3.33301 0 6 -2 8 -6l13 -24c0.666992 -1.33301 1 -3 1 -5c0 -4 -1.66699 -7 -5 -9l-101 -61c-0.666992 -0.666992 -1 -1.66699 -1 -3s0.333008 -2.33301 1 -3l101 -61c6 -4 7.33301 -8.66699 4 -14l-13 -24
c-1.33301 -2.66699 -3.33301 -4.33398 -6 -5.00098s-5.33398 -0.333984 -8.00098 0.999023l-99 63c-0.666992 0.666992 -1.66699 0.666992 -3 0s-2 -1.66699 -2 -3v-120c0 -6.66699 -3.33301 -10 -10 -10h-26c-6.66699 0 -10 3.33301 -10 10z" />
    <glyph glyph-name="plus" unicode="+" horiz-adv-x="442" 
d="M410 336v-35c0 -6.66699 -3.33301 -10 -10 -10h-147c-2.66699 0 -4 -1.33301 -4 -4v-147c0 -6.66699 -3.33301 -10 -10 -10h-36c-6.66699 0 -10 3.33301 -10 10v147c0 2.66699 -1.33301 4 -4 4h-147c-6.66699 0 -10 3.33301 -10 10v35c0 6.66699 3.33301 10 10 10h147
c2.66699 0 4 1.33301 4 4v147c0 6.66699 3.33301 10 10 10h36c6.66699 0 10 -3.33301 10 -10v-147c0 -2.66699 1.33301 -4 4 -4h147c6.66699 0 10 -3.33301 10 -10z" />
    <glyph glyph-name="comma" unicode="," horiz-adv-x="177" 
d="M41 -76c-2 2 -2.66602 4.66699 -1.99902 8l31 214c0.666992 6 4 9 10 9h45c7.33301 0 10.333 -3.66699 9 -11l-45 -214c-0.666992 -6 -4.33398 -9 -11.001 -9h-30c-2.66699 0 -5 1 -7 3z" />
    <glyph glyph-name="hyphen" unicode="-" horiz-adv-x="313" 
d="M32 290v42c0 6.66699 3.33301 10 10 10h229c6.66699 0 10 -3.33301 10 -10v-42c0 -6.66699 -3.33301 -10 -10 -10h-229c-6.66699 0 -10 3.33301 -10 10z" />
    <glyph glyph-name="period" unicode="." horiz-adv-x="190" 
d="M54.5 18c-10.333 10.667 -15.5 24 -15.5 40c0 16.667 5.16699 30.167 15.5 40.5s23.833 15.5 40.5 15.5c16 0 29.333 -5.16699 40 -15.5s16 -23.833 16 -40.5c0 -16 -5.33301 -29.333 -16 -40s-24 -16 -40 -16c-16.667 0 -30.167 5.33301 -40.5 16z" />
    <glyph glyph-name="slash" unicode="/" horiz-adv-x="334" 
d="M26.5 3c-1.66699 2 -2.16699 4.66699 -1.5 8l181 680c1.33301 6 5 9 11 9h50c3.33301 0 5.83301 -1 7.5 -3s2.16699 -4.66699 1.5 -8l-181 -680c-1.33301 -6 -5 -9 -11 -9h-50c-3.33301 0 -5.83301 1 -7.5 3z" />
    <glyph glyph-name="zero" unicode="0" horiz-adv-x="444" 
d="M98.5 39.5c-31 33 -46.5 76.167 -46.5 129.5v362c0 53.333 15.5 96.5 46.5 129.5s71.833 49.5 122.5 49.5c51.333 0 92.666 -16.5 123.999 -49.5s47 -76.167 47 -129.5v-362c0 -53.333 -15.667 -96.5 -47 -129.5s-72.666 -49.5 -123.999 -49.5
c-50.667 0 -91.5 16.5 -122.5 49.5zM294 83c18 20.667 27 48 27 82v370c0 34 -9 61.333 -27 82s-42.333 31 -73 31c-29.333 0 -53 -10.333 -71 -31s-27 -48 -27 -82v-370c0 -34 9 -61.333 27 -82s41.667 -31 71 -31c30.667 0 55 10.333 73 31z" />
    <glyph glyph-name="one" unicode="1" horiz-adv-x="256" 
d="M133 700l54 0.000976562c6.66699 0 10 -3.33301 10 -10v-680c0 -6.66699 -3.33301 -10 -10 -10h-51c-6.66699 0 -10 3.33301 -10 10v606c0 1.33301 -0.5 2.33301 -1.5 3s-2.16699 0.666992 -3.5 0l-94 -31l-3 -1c-4.66699 0 -7.66699 3 -9 9l-5 37v2
c0 3.33301 2.33301 6.66602 7 9.99902l103 52c4 2 8.33301 3 13 3z" />
    <glyph glyph-name="two" unicode="2" horiz-adv-x="402" 
d="M126 63.5c0.666992 -1 1.66504 -1.5 2.99805 -1.5h235c6.66699 0 10 -3.33301 10 -10v-42c0 -6.66699 -3.33301 -10 -10 -10h-314c-6.66699 -0 -10 3.33301 -10 10v45c0 5.33301 1.33301 9.66602 4 12.999c20.667 32.667 32.334 51.334 35.001 56.001l139 226
c42.667 73.333 64 134 64 182c0 34.667 -8 62.334 -24 83.001s-37 31 -63 31c-25.333 0 -45.833 -10.167 -61.5 -30.5s-23.167 -47.166 -22.5 -80.499v-38c0 -6.66699 -3.33301 -10 -10 -10h-52c-6.66699 0 -10 3.33301 -10 10v40c1.33301 51.333 16.5 92.666 45.5 123.999
s66.833 47 113.5 47s84.334 -16.167 113.001 -48.5s43 -74.833 43 -127.5c0 -62.667 -23.667 -133.334 -71 -212.001l-101 -164l-56 -89c-0.666992 -1.33301 -0.666992 -2.5 0 -3.5z" />
    <glyph glyph-name="three" unicode="3" horiz-adv-x="408" 
d="M356 212c0 -35.333 -3.66797 -67.668 -11.001 -97.001c-18.667 -82 -68 -123 -148 -123c-42 0 -76.5 11.667 -103.5 35s-43.833 55.666 -50.5 96.999c-4 23.333 -6 49 -6 77c0 6.66699 3.33301 10 10 10h51c6.66699 0 10 -3.33301 10 -10c0 -24 2 -45.667 6 -65
c11.333 -54.667 39 -82 83 -82c20.667 0 38 6.33301 52 19s24 31 30 55c5.33301 28 8 58 8 90c0 42 -4 77 -12 105c-6.66699 21.333 -16.667 37.5 -30 48.5s-29.333 16.5 -48 16.5c-6 0 -13.667 -2 -23 -6c-6 -3.33301 -10.667 -3 -14 1l-26 27
c-3.33301 4.66699 -3.66602 9.33398 -0.999023 14.001l133 209c0.666992 0.666992 0.666992 1.66699 0 3s-1.66699 2 -3 2h-211c-6.66699 0 -10 3.33301 -10 10v42c0 6.66699 3.33301 10 10 10h292c6.66699 0 10 -3.33301 10 -10v-45
c0 -3.33301 -1.33301 -7.66602 -4 -12.999l-124 -194c-0.666992 -1.33301 -0.833984 -2.5 -0.500977 -3.5s1.16602 -1.5 2.49902 -1.5c26.667 -2.66699 49.834 -13.5 69.501 -32.5s33.834 -43.833 42.501 -74.5c10.667 -34 16 -72 16 -114z" />
    <glyph glyph-name="four" unicode="4" horiz-adv-x="415" 
d="M393 246v-44c0 -6.66699 -3.33301 -10 -10 -10h-31c-2.66699 0 -4 -1.33301 -4 -4v-178c0 -6.66699 -3.33301 -10 -10 -10h-51c-6.66699 -0 -10 3.33301 -10 10v178c0 2.66699 -1.33301 4 -4 4h-241c-6.66699 0 -10 3.33301 -10 10v38c0 2.66699 0.666992 6.66699 2 12
l150 440c2 5.33301 6 8 12 8h55c7.33301 0 10 -3.66699 8 -11l-144 -428c-0.666992 -1.33301 -0.666992 -2.5 0 -3.5s1.66699 -1.5 3 -1.5h165c2.66699 0 4 1.33301 4 4v153c0 6.66699 3.33301 10 10 10h51c6.66699 0 10 -3.33301 10 -10v-153c0 -2.66699 1.33301 -4 4 -4
h31c6.66699 0 10 -3.33301 10 -10z" />
    <glyph glyph-name="five" unicode="5" horiz-adv-x="409" 
d="M372 213c0 -30 -2.00488 -57.665 -6.00488 -82.998c-6.66699 -44.667 -23.167 -78.834 -49.5 -102.501s-61.166 -35.5 -104.499 -35.5s-78.166 11.667 -104.499 35s-43.166 58.333 -50.499 105l-3 30v2c0 5.33301 3 8 9 8h51c6.66699 0 10.334 -3.33301 11.001 -10l3 -24
c10.667 -56 38.667 -84 84 -84c21.333 0 39 6.83301 53 20.5s23.667 33.5 29 59.5c4.66699 21.333 7 48 7 80c0 33.333 -3 62 -9 86c-12 46.667 -38.667 70 -80 70c-46 0 -74.667 -23 -86 -69c-2 -6 -5.66699 -9 -11 -9h-52c-6.66699 0 -10 3.33301 -10 10v388
c0 6.66699 3.33301 10 10 10h283c6.66699 0 10 -3.33301 10 -10v-42c0 -6.66699 -3.33301 -10 -10 -10h-218c-2.66699 0 -4 -1.33301 -4 -4l-1 -248c0 -1.33301 0.5 -2.33301 1.5 -3s2.16699 -0.333984 3.5 0.999023c10.667 16 24.834 28.167 42.501 36.5
s37.5 12.5 59.5 12.5c35.333 0 64.333 -10.667 87 -32s37.667 -52 45 -92c6.66699 -24.667 10 -56.667 10 -96z" />
    <glyph glyph-name="six" unicode="6" horiz-adv-x="410" 
d="M373 213c0 -28.667 -1.33105 -53.333 -3.99805 -74c-5.33301 -47.333 -21.5 -83.666 -48.5 -108.999s-62.833 -38 -107.5 -38c-41.333 0 -75.333 11.667 -102 35s-43.334 57.666 -50.001 102.999c-4.66699 21.333 -7 47.666 -7 78.999l-1 328c0 52 14.667 93.5 44 124.5
s68 46.5 116 46.5c43.333 0 79.166 -15.667 107.499 -47s42.5 -72.666 42.5 -123.999v-16c0 -6.66699 -3.33301 -10 -10 -10h-51c-6.66699 0 -10 3.33301 -10 10v14c0 32 -7.66699 58.167 -23 78.5s-34 30.5 -56 30.5c-26.667 0 -48 -10 -64 -30s-24 -46.333 -24 -79v-134
c0 -1.33301 0.5 -2.16602 1.5 -2.49902s2.16699 0.166992 3.5 1.5c9.33301 13.333 21.333 23.5 36 30.5s31 10.5 49 10.5c40.667 0 74 -12.333 100 -37s42.667 -58.667 50 -102c5.33301 -26.667 8 -56.334 8 -89.001zM302.002 218.001c0 30.667 -3 59.3311 -9 85.998
c-5.33301 24.667 -14.833 43.334 -28.5 56.001s-30.834 19 -51.501 19c-43.333 0 -70.666 -26.333 -81.999 -79c-4 -21.333 -6 -48.666 -6 -81.999c0 -31.333 1.66699 -57.333 5 -78c11.333 -57.333 39 -86 83 -86c22.667 0 41.167 7.66699 55.5 23s23.833 38 28.5 68
c3.33301 26.667 5 51 5 73z" />
    <glyph glyph-name="seven" unicode="7" horiz-adv-x="366" 
d="M103.5 3c-1.66699 2 -2.16699 4.66699 -1.5 8l171 623c0.666992 0.666992 0.5 1.5 -0.5 2.5s-2.16699 1.5 -3.5 1.5h-183c-2.66699 0 -4 -1.33301 -4 -4v-41c0 -6.66699 -3.33301 -10 -10 -10h-39c-6.66699 0 -10 3.33301 -10 10v97c0 6.66699 3.33301 10 10 10h306
c6.66699 0 10 -3.33301 10 -10v-46c0 -1.33301 -0.666992 -5.33301 -2 -12l-170 -623c-1.33301 -6 -5 -9 -11 -9h-55c-3.33301 0 -5.83301 1 -7.5 3z" />
    <glyph glyph-name="eight" unicode="8" horiz-adv-x="422" 
d="M295 368c24.667 -12.667 42.333 -31.6641 53 -56.9971c14.667 -32.667 22 -71.334 22 -116.001c0 -36.667 -4.66699 -68.334 -14 -95.001c-11.333 -34 -29.666 -60.5 -54.999 -79.5s-55.666 -28.5 -90.999 -28.5c-34 0 -63.5 9.33301 -88.5 28s-43.5 45 -55.5 79
c-9.33301 29.333 -14 61.666 -14 96.999c0 42.667 6.33301 78.667 19 108c11.333 28 30 49.333 56 64c2.66699 2 2.66699 4 0 6c-22 11.333 -39.667 29.333 -53 54c-14.667 28 -22 62 -22 102c0 40.667 7.33301 74.667 22 102c12.667 24.667 30.667 43.834 54 57.501
s50.666 20.5 81.999 20.5s58.666 -6.5 81.999 -19.5s41.333 -31.833 54 -56.5c16 -28 24 -63 24 -105c0 -40 -7 -73 -21 -99c-13.333 -24.667 -31.333 -43.334 -54 -56.001c-3.33301 -2 -3.33301 -4 0 -6zM121.999 524.003c0 -30 5.33203 -55 15.999 -75
c14.667 -32.667 38.667 -49 72 -49c18 0 33.5 4.66699 46.5 14s22.833 22.333 29.5 39c9.33301 20 14 44 14 72c0 32 -5.66699 57.333 -17 76c-15.333 31.333 -39.666 47 -72.999 47c-34 0 -58.333 -16.667 -73 -50c-10 -20 -15 -44.667 -15 -74zM299.998 199.003
c0 34.667 -4.66699 63.334 -14 86.001c-14 38.667 -39.333 58 -76 58c-18 0 -33.5 -5.33301 -46.5 -16s-22.833 -26 -29.5 -46c-8 -22 -12 -49.333 -12 -82c0 -27.333 3 -51.666 9 -72.999c6 -22.667 15.833 -40.334 29.5 -53.001s30.167 -19 49.5 -19
c20 0 37.167 6.5 51.5 19.5s24.5 31.5 30.5 55.5c5.33301 21.333 8 44.666 8 69.999z" />
    <glyph glyph-name="nine" unicode="9" horiz-adv-x="403" 
d="M350 163c0 -52 -14.6689 -93.501 -44.002 -124.501s-68 -46.5 -116 -46.5c-43.333 0 -79.166 15.667 -107.499 47s-42.5 72.666 -42.5 123.999v16c0 6.66699 3.33301 10 10 10h51c6.66699 0 10 -3.33301 10 -10v-14c0 -32 7.66699 -58.167 23 -78.5s34 -30.5 56 -30.5
c26.667 0 48 10 64 30s24 46.333 24 79v134c0 1.33301 -0.5 2.16602 -1.5 2.49902s-2.16699 -0.166992 -3.5 -1.5c-9.33301 -13.333 -21.333 -23.5 -36 -30.5s-31 -10.5 -49 -10.5c-40.667 0 -74 12.333 -100 37s-42.667 58.667 -50 102
c-5.33301 26.667 -8 56.334 -8 89.001c0 28.667 1.33301 53.334 4 74.001c5.33301 47.333 21.5 83.666 48.5 108.999s62.833 38 107.5 38c41.333 0 75.333 -11.667 102 -35s43.334 -57.666 50.001 -102.999c4.66699 -21.333 7 -47.666 7 -78.999zM271.998 399.999
c4 21.333 6 48.668 6 82.001c0 31.333 -1.66699 57.333 -5 78c-11.333 57.333 -39 86 -83 86c-22.667 0 -41.167 -7.66699 -55.5 -23s-23.833 -38 -28.5 -68c-3.33301 -26.667 -5 -51 -5 -73c0 -30 3 -58.667 9 -86c5.33301 -24.667 14.833 -43.334 28.5 -56.001
s30.834 -19 51.501 -19c43.333 0 70.666 26.333 81.999 79z" />
    <glyph glyph-name="colon" unicode=":" horiz-adv-x="211" 
d="M66.5 356c-10.333 10.667 -15.5 24 -15.5 40c0 16.667 5.16699 30.167 15.5 40.5s23.833 15.5 40.5 15.5c16 0 29.333 -5.16699 40 -15.5s16 -23.833 16 -40.5c0 -16 -5.33301 -29.333 -16 -40s-24 -16 -40 -16c-16.667 0 -30.167 5.33301 -40.5 16zM66.5 20
c-10.333 10.667 -15.5 24 -15.5 40c0 16.667 5.16699 30.167 15.5 40.5s23.833 15.5 40.5 15.5c16 0 29.333 -5.16699 40 -15.5s16 -23.833 16 -40.5c0 -16 -5.33301 -29.333 -16 -40s-24 -16 -40 -16c-16.667 0 -30.167 5.33301 -40.5 16z" />
    <glyph glyph-name="semicolon" unicode=";" horiz-adv-x="193" 
d="M57.5 364c-10.333 11.333 -15.5 25.668 -15.5 43.001c0 16 5.5 29.667 16.5 41s23.833 17 38.5 17c14 0 26.667 -5.66699 38 -17s17 -25 17 -41c0 -16.667 -5.33301 -30.834 -16 -42.501s-23.667 -17.5 -39 -17.5c-16 0 -29.167 5.66699 -39.5 17zM47 -71.998
c-2 2 -2.66699 4.33301 -2 7l21 207c0.666992 6 4.33398 9 11.001 9h44c3.33301 0 5.83301 -1 7.5 -3s2.16699 -4.66699 1.5 -8l-34 -206c-0.666992 -6 -4.33398 -9 -11.001 -9h-30c-3.33301 0 -6 1 -8 3z" />
    <glyph glyph-name="less" unicode="&#x3c;" horiz-adv-x="442" 
d="M406.5 63.5c-2.33301 -1.66699 -5.16699 -1.49902 -8.5 0.500977l-359 176c-4.66699 2.66699 -7 6.66699 -7 12v48c0 5.33301 2.33301 9.33301 7 12l359 176l5 2c2 0 3.66699 -0.833008 5 -2.5s2 -3.83398 2 -6.50098v-49c0 -5.33301 -2.33301 -9.33301 -7 -12l-298 -141
c-2.66699 -2 -2.66699 -4 0 -6l298 -141c4.66699 -2.66699 7 -6.66699 7 -12v-49c0 -3.33301 -1.16699 -5.83301 -3.5 -7.5z" />
    <glyph glyph-name="equal" unicode="=" horiz-adv-x="442" 
d="M32 415v35c0 6.66699 3.33301 10 10 10h358c6.66699 0 10 -3.33301 10 -10v-35c0 -6.66699 -3.33301 -10 -10 -10h-358c-6.66699 0 -10 3.33301 -10 10zM32 209v35c0 6.66699 3.33301 10 10 10h358c6.66699 0 10 -3.33301 10 -10v-35c0 -6.66699 -3.33301 -10 -10 -10
h-358c-6.66699 0 -10 3.33301 -10 10z" />
    <glyph glyph-name="greater" unicode="&#x3e;" horiz-adv-x="442" 
d="M39 62c-2 0 -3.66602 0.832031 -4.99902 2.49902s-2 3.83398 -2 6.50098v49c0 5.33301 2.33301 9.33301 7 12l298 141c2.66699 2 2.66699 4 0 6l-298 141c-4.66699 2.66699 -7 6.66699 -7 12v49c0 3.33301 1.16699 5.83301 3.5 7.5s5.16602 1.5 8.49902 -0.5l359 -176
c4.66699 -2.66699 7 -6.66699 7 -12v-48c0 -5.33301 -2.33301 -9.33301 -7 -12l-359 -176z" />
    <glyph glyph-name="question" unicode="?" horiz-adv-x="370" 
d="M135 210v58.9971c0 28.667 5.5 52.167 16.5 70.5s27.5 38.5 49.5 60.5c22.667 22.667 39.5 43.167 50.5 61.5s16.5 42.166 16.5 71.499c0 33.333 -7.5 60.166 -22.5 80.499s-34.833 30.5 -59.5 30.5c-26.667 0 -47.834 -10.333 -63.501 -31s-23.5 -47.667 -23.5 -81v-31
c0 -6.66699 -3.33301 -10 -10 -10l-51 3c-6.66699 0 -10 3.33301 -10 10v28c0 52.667 14.667 95.334 44 128.001s67.666 49 114.999 49c46.667 0 83.834 -16 111.501 -48s41.5 -74.667 41.5 -128c0 -29.333 -3.83301 -54.666 -11.5 -75.999s-16.667 -38.666 -27 -51.999
s-24.166 -28.666 -41.499 -45.999c-18 -17.333 -31.333 -32.666 -40 -45.999s-13 -29.333 -13 -48v-55c0 -6.66699 -3.33301 -10 -10 -10h-52c-6.66699 0 -10 3.33301 -10 10zM131.5 17.9971c-10.333 10.667 -15.5 24 -15.5 40c0 16.667 5.16699 30.167 15.5 40.5
s23.833 15.5 40.5 15.5c16 0 29.333 -5.16699 40 -15.5s16 -23.833 16 -40.5c0 -16 -5.33301 -29.333 -16 -40s-24 -16 -40 -16c-16.667 0 -30.167 5.33301 -40.5 16z" />
    <glyph glyph-name="at" unicode="@" horiz-adv-x="761" 
d="M573.5 581.5c43.667 -23 77.5029 -55.833 101.503 -98.5s36 -92 36 -148c0 -17.333 -1 -35 -3 -53c-8.66699 -62.667 -28.5 -111.5 -59.5 -146.5s-69.833 -52.5 -116.5 -52.5c-44 0 -75.667 15 -95 45c-2 2 -4 2 -6 0c-9.33301 -16 -21.5 -27.833 -36.5 -35.5
s-30.833 -11.5 -47.5 -11.5c-30 0 -54.167 8.83301 -72.5 26.5s-27.5 41.5 -27.5 71.5c0 10.667 3 40 9 88c2.66699 24 6 47.667 10 71c4.66699 33.333 16.667 59.666 36 78.999s44.333 29 75 29c11.333 0 22.666 -2.33301 33.999 -7s21 -11.667 29 -21
c1.33301 -1.33301 2.5 -1.66602 3.5 -0.999023s1.5 1.66699 1.5 3l1 12c0.666992 6 4 9 10 9h32c3.33301 0 6 -1.16699 8 -3.5s2.66699 -4.83301 2 -7.5l-26 -204c-0.666992 -4 -1 -10 -1 -18c0 -23.333 6.16699 -42 18.5 -56s29.166 -21 50.499 -21
c29.333 0 54 13.333 74 40s33 63.667 39 111c2 17.333 3 33.333 3 48c0 48 -9.83301 90 -29.5 126s-47.667 63.667 -84 83s-78.5 29 -126.5 29c-51.333 0 -99.333 -13 -144 -39s-81.834 -62.5 -111.501 -109.5s-48.167 -100.167 -55.5 -159.5c-2 -16.667 -3 -32.667 -3 -48
c0 -50.667 10.333 -94.834 31 -132.501s48.5 -66.5 83.5 -86.5s74.167 -30 117.5 -30c32 0 61.667 4.5 89 13.5s49.666 19.833 66.999 32.5c1.33301 1.33301 3.33301 2 6 2c3.33301 0 6 -1.33301 8 -4l16 -23c1.33301 -2.66699 2 -4.66699 2 -6
c0 -3.33301 -1.66699 -6 -5 -8c-22 -16.667 -49.667 -30.167 -83 -40.5s-69.666 -15.5 -108.999 -15.5c-53.333 0 -101 11.833 -143 35.5s-74.667 57.667 -98 102s-35 96.166 -35 155.499c0 12 1.33301 30.667 4 56c8.66699 68.667 30.5 129.834 65.5 183.501
s79.167 95.334 132.5 125.001s110.333 44.5 171 44.5c57.333 0 107.833 -11.5 151.5 -34.5zM420.003 218l7.99805 64.999l6 53c0.666992 2.66699 1 6.33398 1 11.001c0 16 -4.66699 29 -14 39s-21.666 15 -36.999 15c-17.333 0 -32.166 -6.16699 -44.499 -18.5
s-19.833 -27.833 -22.5 -46.5c-1.33301 -14 -2.66602 -24 -3.99902 -30c-2.66699 -16 -4.33398 -30.333 -5.00098 -43l-9 -71c-1.33301 -19.333 2.66699 -35 12 -47s22.333 -18 39 -18s31 6 43 18s19.667 27.667 23 47z" />
    <glyph glyph-name="A" unicode="A" horiz-adv-x="410" 
d="M325 9l-25 124c0 1.33301 -0.5 2.33301 -1.5 3s-2.16699 1 -3.5 1h-181c-1.33301 0 -2.5 -0.333008 -3.5 -1s-1.5 -1.66699 -1.5 -3l-25 -124c-0.666992 -6 -4.33398 -9 -11.001 -9h-51c-3.33301 0 -5.83301 1 -7.5 3s-2.16699 4.66699 -1.5 8l150 680
c1.33301 6 5 9 11 9h60c6.66699 0 10.334 -3 11.001 -9l152 -680v-2c0 -6 -3 -9 -9 -9h-52c-6 0 -9.66699 3 -11 9zM125 195h158.002c2 0 3 1.33301 3 4l-80 393c-0.666992 2 -1.33398 3 -2.00098 3s-1.33398 -1 -2.00098 -3l-80 -393c0 -2.66699 1 -4 3 -4z" />
    <glyph glyph-name="B" unicode="B" horiz-adv-x="449" 
d="M366 50c-32.667 -33.333 -76.333 -49.9971 -131 -49.9971h-153c-6.66699 0 -10 3.33301 -10 10v680c0 6.66699 3.33301 10 10 10h144c57.333 0 102.333 -15.833 135 -47.5s49 -76.834 49 -135.501c0 -74.667 -27.667 -125.667 -83 -153
c-1.33301 -0.666992 -2 -1.33398 -2 -2.00098s0.333008 -1.33398 1 -2.00098c58.667 -34 88 -90.667 88 -170c0.666992 -60 -15.333 -106.667 -48 -140zM143.001 634.003v-241c0 -2.66699 1.33301 -4 4 -4h79c36 0 64 10.667 84 32s30 51.333 30 90
c0 40 -10 71.167 -30 93.5s-48 33.5 -84 33.5h-79c-2.66699 0 -4 -1.33301 -4 -4zM313.001 98.5029c20 23.667 30 56.833 30 99.5c0 43.333 -10 77 -30 101s-47.667 36 -83 36h-83c-2.66699 0 -4 -1.33301 -4 -4v-264c0 -2.66699 1.33301 -4 4 -4h83
c35.333 0 63 11.833 83 35.5z" />
    <glyph glyph-name="C" unicode="C" horiz-adv-x="446" 
d="M101.5 39c-31 31.333 -46.501 73.333 -46.501 126v371c0 52 15.5 93.667 46.5 125s72.167 47 123.5 47c52 0 93.5 -15.5 124.5 -46.5s46.5 -72.833 46.5 -125.5v-17c0 -6.66699 -3.33301 -10 -10 -10l-52 -3c-6.66699 0 -10 3.33301 -10 10v25
c0 31.333 -9 56.666 -27 75.999s-42 29 -72 29c-29.333 0 -53.166 -9.66699 -71.499 -29s-27.5 -44.666 -27.5 -75.999v-382c0 -31.333 9.16699 -56.666 27.5 -75.999s42.166 -29 71.499 -29c30 0 54 9.66699 72 29s27 44.666 27 75.999v25c0 6.66699 3.33301 10 10 10
l52 -3c6.66699 0 10 -3.33301 10 -10v-16c0 -52.667 -15.667 -94.667 -47 -126s-72.666 -47 -123.999 -47s-92.5 15.667 -123.5 47z" />
    <glyph glyph-name="D" unicode="D" horiz-adv-x="465" 
d="M72 10v680.002c0 6.66699 3.33301 10 10 10h154c51.333 0 92.333 -16.833 123 -50.5s46 -78.834 46 -135.501v-328c0 -56.667 -15.333 -101.834 -46 -135.501s-71.667 -50.5 -123 -50.5h-154c-6.66699 -0 -10 3.33301 -10 10zM147 62.002l87.999 0.999023
c29.333 0 52.833 11.333 70.5 34s26.834 53.334 27.501 92.001v322c0 39.333 -8.66699 70.333 -26 93s-41.333 34 -72 34h-88c-2.66699 0 -4 -1.33301 -4 -4v-568c0 -2.66699 1.33301 -4 4 -4z" />
    <glyph glyph-name="E" unicode="E" horiz-adv-x="429" 
d="M379 638h-232c-2.66699 0 -4 -1.33301 -4 -4v-248c0 -2.66699 1.33301 -4 4 -4h146c6.66699 0 10 -3.33301 10 -10v-43c0 -6.66699 -3.33301 -10 -10 -10h-146c-2.66699 0 -4 -1.33301 -4 -4v-249c0 -2.66699 1.33301 -4 4 -4h232c6.66699 0 10 -3.33301 10 -10v-42
c0 -6.66699 -3.33301 -10 -10 -10h-297c-6.66699 -0 -10 3.33301 -10 10v680c0 6.66699 3.33301 10 10 10h297c6.66699 0 10 -3.33301 10 -10v-42c0 -6.66699 -3.33301 -10 -10 -10z" />
    <glyph glyph-name="F" unicode="F" horiz-adv-x="404" 
d="M377 638h-230c-2.66699 0 -4 -1.33301 -4 -4v-248c0 -2.66699 1.33301 -4 4 -4h145c6.66699 0 10 -3.33301 10 -10v-43c0 -6.66699 -3.33301 -10 -10 -10h-145c-2.66699 0 -4 -1.33301 -4 -4v-305c0 -6.66699 -3.33301 -10 -10 -10h-51c-6.66699 -0 -10 3.33301 -10 10
v680c0 6.66699 3.33301 10 10 10h295c6.66699 0 10 -3.33301 10 -10v-42c0 -6.66699 -3.33301 -10 -10 -10z" />
    <glyph glyph-name="G" unicode="G" horiz-adv-x="451" 
d="M102 37.5c-30.667 30.333 -46 70.834 -46 121.501v382c0 50.667 15.333 91.167 46 121.5s71.667 45.5 123 45.5s92.5 -15.333 123.5 -46s46.5 -71.334 46.5 -122.001v-43c0 -6.66699 -3.33301 -10 -10 -10h-51c-6.66699 0 -10 3.33301 -10 10v45
c0 31.333 -9 56.5 -27 75.5s-42 28.5 -72 28.5c-29.333 0 -53.166 -9.66699 -71.499 -29s-27.5 -44.333 -27.5 -75v-384c0 -30.667 9.16699 -55.667 27.5 -75s42.166 -29 71.499 -29c30 0 54 9.5 72 28.5s27 44.167 27 75.5v128c0 2.66699 -1.33301 4 -4 4h-86
c-6.66699 0 -10 3.33301 -10 10v42c0 6.66699 3.33301 10 10 10h151c6.66699 0 10 -3.33301 10 -10v-183c0 -50.667 -15.5 -91.167 -46.5 -121.5s-72.167 -45.5 -123.5 -45.5s-92.333 15.167 -123 45.5z" />
    <glyph glyph-name="H" unicode="H" horiz-adv-x="472" 
d="M339 700h51c6.66699 0 10 -3.33301 10 -10v-680c0 -6.66699 -3.33301 -10 -10 -10h-51c-6.66699 -0 -10 3.33301 -10 10v305c0 2.66699 -1.33301 4 -4 4h-178c-2.66699 0 -4 -1.33301 -4 -4v-305c0 -6.66699 -3.33301 -10 -10 -10h-51c-6.66699 -0 -10 3.33301 -10 10
v680c0 6.66699 3.33301 10 10 10h51c6.66699 0 10 -3.33301 10 -10v-304c0 -2.66699 1.33301 -4 4 -4h178c2.66699 0 4 1.33301 4 4v304c0 6.66699 3.33301 10 10 10z" />
    <glyph glyph-name="I" unicode="I" horiz-adv-x="215" 
d="M72 10v680c0 6.66699 3.33301 10 10 10h51c6.66699 0 10 -3.33301 10 -10v-680c0 -6.66699 -3.33301 -10 -10 -10h-51c-6.66699 -0 -10 3.33301 -10 10z" />
    <glyph glyph-name="J" unicode="J" horiz-adv-x="426" 
d="M68 38.5c-30.667 31 -46 71.833 -46 122.5v84c0 6.66699 3.33301 10 10 10h51c6.66699 0 10 -3.33301 10 -10v-85c0 -31.333 8.66699 -56.833 26 -76.5s40.333 -29.5 69 -29.5c28 0 50.833 9.83301 68.5 29.5s26.5 45.167 26.5 76.5v530c0 6.66699 3.33301 10 10 10h51
c6.66699 0 10 -3.33301 10 -10v-529c0 -50.667 -15.333 -91.5 -46 -122.5s-70.667 -46.5 -120 -46.5s-89.333 15.5 -120 46.5z" />
    <glyph glyph-name="K" unicode="K" horiz-adv-x="452" 
d="M72 10v680c0 6.66699 3.33301 10 10 10h51c6.66699 0 10 -3.33301 10 -10v-324c0 -2 0.666992 -3.33301 2 -4s2.33301 0 3 2l193 329c3.33301 4.66699 7.33301 7 12 7h56c4 0 6.66699 -1.16699 8 -3.5s1 -5.16602 -1 -8.49902l-156 -271
c-1.33301 -2.66699 -1.66602 -4.66699 -0.999023 -6l172 -399l1 -4c0 -5.33301 -3 -8 -9 -8h-57c-5.33301 0 -9 2.66699 -11 8l-144 340c-0.666992 2.66699 -2.33398 2.66699 -5.00098 0l-62 -96c-0.666992 -0.666992 -1 -2.33398 -1 -5.00098v-237
c0 -6.66699 -3.33301 -10 -10 -10h-51c-6.66699 -0 -10 3.33301 -10 10z" />
    <glyph glyph-name="L" unicode="L" horiz-adv-x="396" 
d="M72 10v680c0 6.66699 3.33301 10 10 10h51c6.66699 0 10 -3.33301 10 -10v-624c0 -2.66699 1.33301 -4 4 -4h229c6.66699 0 10 -3.33301 10 -10v-42c0 -6.66699 -3.33301 -10 -10 -10h-294c-6.66699 -0 -10 3.33301 -10 10z" />
    <glyph glyph-name="M" unicode="M" horiz-adv-x="521" 
d="M389 700h52c6.66699 0 10 -3.33301 10 -10v-680c0 -6.66699 -3.33301 -10 -10 -10h-51c-6.66699 -0 -10 3.33301 -10 10v536c0 2 -0.5 3 -1.5 3s-2.16699 -0.666992 -3.5 -2l-104 -216c-2 -4.66699 -5.33301 -7 -10 -7c-5.33301 0 -9 2.33301 -11 7l-104 215
c-1.33301 1.33301 -2.5 2 -3.5 2s-1.5 -1 -1.5 -3v-535c0 -6.66699 -3.33301 -10 -10 -10h-51c-6.66699 -0 -10 3.33301 -10 10v680c0 6.66699 3.33301 10 10 10h52c6 0 10 -2.33301 12 -7l114 -231c0.666992 -1.33301 1.66699 -2 3 -2s2.33301 0.666992 3 2l113 231
c2 4.66699 6 7 12 7z" />
    <glyph glyph-name="N" unicode="N" horiz-adv-x="493" 
d="M362 700h50c6.66699 0 10 -3.33301 10 -10v-680c0 -6.66699 -3.33301 -10 -10 -10h-59c-5.33301 0 -9 2.66699 -11 8l-195 517c-0.666992 2 -1.66699 2.83301 -3 2.5s-2 -1.5 -2 -3.5l1 -514c0 -6.66699 -3.33301 -10 -10 -10h-51c-6.66699 -0 -10 3.33301 -10 10v680
c0 6.66699 3.33301 10 10 10h58c5.33301 0 9 -2.66699 11 -8l196 -518c0.666992 -2 1.66699 -2.83301 3 -2.5s2 1.5 2 3.5v515c0 6.66699 3.33301 10 10 10z" />
    <glyph glyph-name="O" unicode="O" horiz-adv-x="456" 
d="M102.5 40c-31.667 32 -47.5 74.333 -47.5 127v366c0 52.667 15.833 95 47.5 127s73.167 48 124.5 48c52 0 94 -16 126 -48s48 -74.333 48 -127v-366c0 -52 -16 -94.167 -48 -126.5s-74 -48.5 -126 -48.5c-51.333 0 -92.833 16 -124.5 48zM301.5 84.5
c19 20.333 28.5 46.5 28.5 78.5v373c0 32.667 -9.5 59.167 -28.5 79.5s-43.833 30.5 -74.5 30.5c-30 0 -54.333 -10.167 -73 -30.5s-28 -46.833 -28 -79.5v-373c0 -32 9.33301 -58.167 28 -78.5s43 -30.5 73 -30.5c30.667 0 55.5 10.167 74.5 30.5z" />
    <glyph glyph-name="P" unicode="P" horiz-adv-x="442" 
d="M364 647.5c30 -35.667 45 -82.5 45 -140.5c0 -57.333 -14.667 -103.5 -44 -138.5s-68 -52.5 -116 -52.5h-103c-2.66699 0 -4 -1.33301 -4 -4v-302c0 -6.66699 -3.33301 -10 -10 -10h-51c-6.66699 -0 -10 3.33301 -10 10v681c0 6.66699 3.33301 10 10 10h165
c48.667 0 88 -17.833 118 -53.5zM310 410c18.667 24 28 56 28 96s-9.33301 72.167 -28 96.5s-43 36.5 -73 36.5h-91c-2.66699 0 -4 -1.33301 -4 -4v-257c0 -2.66699 1.33301 -4 4 -4h91c30 0 54.333 12 73 36z" />
    <glyph glyph-name="Q" unicode="Q" horiz-adv-x="443" 
d="M342 659c30.667 -32.667 46 -75.667 46 -129v-360c0 -46 -11.5 -84.5 -34.5 -115.5s-53.833 -50.5 -92.5 -58.5c-2.66699 -0.666992 -4 -2.33398 -4 -5.00098v-96c0 -6.66699 -3.33301 -10 -10 -10h-51c-6.66699 0 -10 3.33301 -10 10v96
c0 2.66699 -1.33301 4.33398 -4 5.00098c-38.667 8.66699 -69.5 28.5 -92.5 59.5s-34.5 69.167 -34.5 114.5v360c0 52.667 15.5 95.5 46.5 128.5s71.167 49.5 120.5 49.5s89.333 -16.333 120 -49zM317 537c0 32 -8.66699 58.167 -26 78.5s-40.333 30.5 -69 30.5
s-51.834 -10.167 -69.501 -30.5s-26.5 -46.5 -26.5 -78.5v-374c0 -32 8.83301 -58.167 26.5 -78.5s40.834 -30.5 69.501 -30.5s51.667 10.167 69 30.5s26 46.5 26 78.5v374z" />
    <glyph glyph-name="R" unicode="R" horiz-adv-x="443" 
d="M340 8l-102 309c-0.666992 2 -2 3 -4 3h-87c-2.66699 0 -4 -1.33301 -4 -4v-306c0 -6.66699 -3.33301 -10 -10 -10h-51c-6.66699 -0 -10 3.33301 -10 10v680c0 6.66699 3.33301 10 10 10h165c48.667 0 88 -17.833 118 -53.5s45 -82.167 45 -139.5
c0 -43.333 -9.33301 -80.666 -28 -111.999s-44 -53.333 -76 -66c-2.66699 -0.666992 -3.66699 -2.33398 -3 -5.00098l109 -313l1 -4c0 -4.66699 -3 -7 -9 -7h-52c-6 0 -10 2.66699 -12 8zM143 634v-253c0 -2.66699 1.33301 -4 4 -4h90c30.667 0 55.334 11.833 74.001 35.5
s28 55.167 28 94.5s-9.33301 71 -28 95s-43.334 36 -74.001 36h-90c-2.66699 0 -4 -1.33301 -4 -4z" />
    <glyph glyph-name="S" unicode="S" horiz-adv-x="416" 
d="M88 41c-30.667 32.667 -46.0049 75.334 -46.0049 128.001v23c0 6.66699 3.33301 10 10 10h49c6.66699 0 10 -3.33301 10 -10v-20c0 -35.333 9 -63.833 27 -85.5s41.333 -32.5 70 -32.5c28 0 51.333 10.333 70 31s28 48 28 82c0 22.667 -4.5 42.167 -13.5 58.5
s-20.667 30.666 -35 42.999s-38.166 31.166 -71.499 56.499c-33.333 24.667 -59.666 45.834 -78.999 63.501s-35.166 38.834 -47.499 63.501s-18.5 53.667 -18.5 87c0 52 15 93.167 45 123.5s69 45.5 117 45.5c50.667 0 91.167 -16.5 121.5 -49.5s45.5 -76.833 45.5 -131.5
v-25c0 -6.66699 -3.33301 -10 -10 -10h-50c-6.66699 0 -10 3.33301 -10 10v26c0 35.333 -8.83301 63.833 -26.5 85.5s-41.167 32.5 -70.5 32.5c-26.667 0 -48.667 -9.5 -66 -28.5s-26 -45.833 -26 -80.5c0 -20.667 3.83301 -38.834 11.5 -54.501s19.167 -30.5 34.5 -44.5
s38 -32.333 68 -55c40 -29.333 69.833 -53.166 89.5 -71.499s34.834 -38.333 45.501 -60s16 -47.834 16 -78.501c0 -54.667 -15.667 -98.5 -47 -131.5s-71.666 -49.5 -120.999 -49.5s-89.333 16.333 -120 49z" />
    <glyph glyph-name="T" unicode="T" horiz-adv-x="423" 
d="M389 690v-42c0 -6.66699 -3.33301 -10 -10 -10h-132c-2.66699 0 -4 -1.33301 -4 -4v-624c0 -6.66699 -3.33301 -10 -10 -10h-51c-6.66699 -0 -10 3.33301 -10 10v624c0 2.66699 -1.33301 4 -4 4h-124c-6.66699 0 -10 3.33301 -10 10v42c0 6.66699 3.33301 10 10 10h335
c6.66699 0 10 -3.33301 10 -10z" />
    <glyph glyph-name="U" unicode="U" horiz-adv-x="476" 
d="M113 45c-31.333 35.333 -47.002 82 -47.002 140v505c0 6.66699 3.33301 10 10 10h51c6.66699 0 10 -3.33301 10 -10v-513c0 -36.667 9.16699 -66.334 27.5 -89.001s42.5 -34 72.5 -34c30.667 0 55.334 11.333 74.001 34s28 52.334 28 89.001v513
c0 6.66699 3.33301 10 10 10h51c6.66699 0 10 -3.33301 10 -10v-505c0 -58 -15.833 -104.667 -47.5 -140s-73.5 -53 -125.5 -53c-51.333 0 -92.666 17.667 -123.999 53z" />
    <glyph glyph-name="V" unicode="V" horiz-adv-x="439" 
d="M180 9l-145.002 680v2c0 6 3 9 9 9h56c6.66699 0 10.334 -3 11.001 -9l108 -559c0.666992 -1.33301 1.33398 -2 2.00098 -2s1.33398 0.666992 2.00098 2l107 559c1.33301 6 5 9 11 9h54c7.33301 0 10.333 -3.66699 9 -11l-145 -680c-0.666992 -6 -4.33398 -9 -11.001 -9
h-57c-6 0 -9.66699 3 -11 9z" />
    <glyph glyph-name="W" unicode="W" horiz-adv-x="623" 
d="M161 9l-132.003 680v2c0 6 3 9 9 9h53c6.66699 0 10.334 -3 11.001 -9l94 -526c0.666992 -1.33301 1.33398 -2 2.00098 -2s1.33398 0.666992 2.00098 2l81 526c1.33301 6 4.66602 9 9.99902 9h46c6 0 9.33301 -3 10 -9l85 -526c0.666992 -1.33301 1.33398 -2 2.00098 -2
s1.33398 0.666992 2.00098 2l86 526c1.33301 6 4.66602 9 9.99902 9h53c3.33301 0 5.83301 -1 7.5 -3s2.16699 -4.66699 1.5 -8l-124 -680c-0.666992 -6 -4.33398 -9 -11.001 -9h-49c-5.33301 0 -8.66602 3 -9.99902 9l-84 528c-0.666992 1.33301 -1.5 2 -2.5 2
s-1.5 -0.666992 -1.5 -2l-82 -528c-0.666992 -6 -4 -9 -10 -9h-48c-6 0 -9.66699 3 -11 9z" />
    <glyph glyph-name="X" unicode="X" horiz-adv-x="434" 
d="M38.5 3.5c-1.66699 2.33301 -1.83398 5.16602 -0.500977 8.49902l140 335c1.33301 2 1.33301 4 0 6l-140 335l-1 4c0 5.33301 3 8 9 8h53c5.33301 0 9 -2.66699 11 -8l104 -266c0.666992 -2 1.66699 -3 3 -3s2.33301 1 3 3l104 266c2 5.33301 5.66699 8 11 8h53
c3.33301 0 5.83301 -1.16699 7.5 -3.5s1.83398 -5.16602 0.500977 -8.49902l-141 -336c-0.666992 -2 -0.666992 -4 0 -6l141 -334l1 -4c0 -5.33301 -3 -8 -9 -8h-53c-5.33301 0 -9 2.66699 -11 8l-104 265c-0.666992 2 -1.66699 3 -3 3s-2.33301 -1 -3 -3l-104 -265
c-2 -5.33301 -5.66699 -8 -11 -8h-53c-3.33301 0 -5.83301 1.16699 -7.5 3.5z" />
    <glyph glyph-name="Y" unicode="Y" 
d="M177 11l-0.000976562 298.999c0 2.66699 -0.333008 4.33398 -1 5.00098l-139 373l-1 4c0 5.33301 3 8 9 8h54c6 0 10 -2.66699 12 -8l98 -293c0.666992 -1.33301 1.66699 -2 3 -2s2.33301 0.666992 3 2l98 293c2 5.33301 6 8 12 8h54
c3.33301 0 5.83301 -1.16699 7.5 -3.5s1.83398 -5.16602 0.500977 -8.49902l-138 -373c-0.666992 -0.666992 -1 -2.33398 -1 -5.00098v-299c0 -6.66699 -3.33301 -10 -10 -10h-51c-6.66699 0 -10 3.33301 -10 10z" />
    <glyph glyph-name="Z" unicode="Z" horiz-adv-x="395" 
d="M33 10v46c0 3.33301 1 7.33301 3 12l243 565c0.666992 1.33301 0.666992 2.5 0 3.5s-1.66699 1.5 -3 1.5h-233c-6.66699 0 -10 3.33301 -10 10v42c0 6.66699 3.33301 10 10 10h303c6.66699 0 10 -3.33301 10 -10v-46c0 -2.66699 -1 -6.66699 -3 -12l-242 -565
c-0.666992 -1.33301 -0.666992 -2.5 0 -3.5s1.66699 -1.5 3 -1.5h232c6.66699 0 10 -3.33301 10 -10v-42c0 -6.66699 -3.33301 -10 -10 -10h-303c-6.66699 -0 -10 3.33301 -10 10z" />
    <glyph glyph-name="bracketleft" unicode="[" horiz-adv-x="303" 
d="M26 -111v875c0 6.66699 3.33301 10 10 10h155c6.66699 0 10 -3.33301 10 -10v-42c0 -6.66699 -3.33301 -10 -10 -10h-90c-2.66699 0 -4 -1.33301 -4 -4v-763c0 -2.66699 1.33301 -4 4 -4h91c6.66699 0 10 -3.33301 10 -10v-42c0 -6.66699 -3.33301 -10 -10 -10h-156
c-6.66699 0 -10 3.33301 -10 10z" />
    <glyph glyph-name="backslash" unicode="\" horiz-adv-x="334" 
d="M310 8c0 -5.33301 -3.33301 -8 -10 -8h-50c-6 0 -9.66699 3 -11 9l-181 680l-1 3c0 5.33301 3.33301 8 10 8h50c6 0 9.66699 -3 11 -9l181 -680z" />
    <glyph glyph-name="bracketright" unicode="]" horiz-adv-x="303" 
d="M267 -121h-157c-6.66699 0 -10 3.33301 -10 10v42c0 6.66699 3.33301 10 10 10h92c2.66699 0 4 1.33301 4 4v763c0 2.66699 -1.33301 4 -4 4h-91c-6.66699 0 -10 3.33301 -10 10v42c0 6.66699 3.33301 10 10 10h156c6.66699 0 10 -3.33301 10 -10v-875
c0 -6.66699 -3.33301 -10 -10 -10z" />
    <glyph glyph-name="asciicircum" unicode="^" horiz-adv-x="396" 
d="M36 318l127 374c2 5.33301 6 8 12 8h45c6 0 10 -2.66699 12 -8l128 -374l1 -4c0 -4.66699 -3 -7 -9 -7h-41c-6 0 -10 2.66699 -12 8l-98 303c-0.666992 1.33301 -1.66699 2 -3 2s-2.33301 -0.666992 -3 -2l-98 -303c-2 -5.33301 -6 -8 -12 -8h-41
c-7.33301 0 -10 3.66699 -8 11z" />
    <glyph glyph-name="underscore" unicode="_" horiz-adv-x="376" 
d="M22 10v37c0 6.66699 3.33301 10 10 10h312c6.66699 0 10 -3.33301 10 -10v-37c0 -6.66699 -3.33301 -10 -10 -10h-312c-6.66699 -0 -10 3.33301 -10 10z" />
    <glyph glyph-name="grave" unicode="`" horiz-adv-x="180" 
d="M153 578c0 -4 -3 -6 -9 -6h-32c-4.66699 0 -8.66699 2.33301 -12 7l-70 109c-1.33301 2.66699 -2 4.66699 -2 6c0 4 2.66699 6 8 6h42c4.66699 0 8.66699 -2.33301 12 -7l61 -109c1.33301 -2.66699 2 -4.66699 2 -6z" />
    <glyph glyph-name="a" unicode="a" horiz-adv-x="413" 
d="M321 468.5c28 -30.333 42 -70.8311 42 -121.498v-337c0 -6.66699 -3.33301 -10 -10 -10h-51c-6.66699 0 -10 3.33301 -10 10v30c0 1.33301 -0.5 2.16602 -1.5 2.49902s-2.16699 -0.166992 -3.5 -1.5c-24.667 -32.667 -61.667 -49 -111 -49
c-36.667 0 -68.5 10.5 -95.5 31.5s-40.5 58.167 -40.5 111.5c0 56.667 16.333 98.167 49 124.5s75.667 39.5 129 39.5h70c2.66699 0 4 1.33301 4 4v39c0 33.333 -7.66699 60 -23 80s-36 30 -62 30c-20 0 -37.167 -6.66699 -51.5 -20s-22.833 -30.333 -25.5 -51
c0 -6.66699 -3.33301 -10 -10 -10l-56 1c-3.33301 0 -5.83301 1 -7.5 3s-2.16699 4.33301 -1.5 7c3.33301 39.333 19.333 71.166 48 95.499s64 36.5 106 36.5c46.667 0 84 -15.167 112 -45.5zM262 80.502c20 17.667 30.001 42.166 30.001 73.499v84
c0 2.66699 -1.33301 4 -4 4h-71c-32 0 -57.333 -8.5 -76 -25.5s-28 -42.167 -28 -75.5c0 -29.333 7.16699 -51.166 21.5 -65.499s33.166 -21.5 56.499 -21.5c27.333 0 51 8.83301 71 26.5z" />
    <glyph glyph-name="b" unicode="b" horiz-adv-x="423" 
d="M334.5 472.5c25.667 -27.667 38.502 -64.833 38.502 -111.5v-216c0 -45.333 -12.667 -82.166 -38 -110.499s-59.333 -42.5 -102 -42.5c-18 0 -35.333 3.5 -52 10.5s-31.334 17.5 -44.001 31.5c-1.33301 1.33301 -2.5 1.66602 -3.5 0.999023s-1.5 -1.66699 -1.5 -3v-22
c0 -6.66699 -3.33301 -10 -10 -10h-51c-6.66699 -0 -10 3.33301 -10 10v680c0 6.66699 3.33301 10 10 10h51c6.66699 0 10 -3.33301 10 -10v-216c0 -1.33301 0.666992 -2.33301 2 -3s2.66602 0 3.99902 2c12 13.333 26.333 23.5 43 30.5s34 10.5 52 10.5
c42 0 75.833 -13.833 101.5 -41.5zM278.002 425.501c-16 17.667 -37 26.5 -63 26.5c-24.667 0 -44.667 -8.83301 -60 -26.5s-23 -40.834 -23 -69.501v-207c0 -28 7.66699 -50.833 23 -68.5s35.333 -26.5 60 -26.5c26 0 47 8.83301 63 26.5s24 40.5 24 68.5v207
c0 28.667 -8 51.834 -24 69.501z" />
    <glyph glyph-name="c" unicode="c" horiz-adv-x="402" 
d="M92.5 34c-28.333 28 -42.502 65.0029 -42.502 111.003v216c0 45.333 14.333 82.166 43 110.499s66.334 42.5 113.001 42.5c31.333 0 59 -6.33301 83 -19s42.5 -29.5 55.5 -50.5s19.5 -44.167 19.5 -69.5v-10c0 -6.66699 -3.33301 -10 -10 -10l-51 -2
c-6.66699 0 -10 3.33301 -10 10v7c0 22 -8.16699 41.167 -24.5 57.5s-37.166 24.5 -62.499 24.5s-45.833 -8.83301 -61.5 -26.5s-23.5 -40.834 -23.5 -69.501v-206c0 -28.667 7.83301 -51.834 23.5 -69.501s36.167 -26.5 61.5 -26.5s46.166 8.16699 62.499 24.5
s24.5 35.5 24.5 57.5v7c0 6.66699 3.33301 10 10 10l51 -1c6.66699 0 10 -3.33301 10 -10v-11c0 -40 -14.5 -73.167 -43.5 -99.5s-67.167 -39.5 -114.5 -39.5s-85.166 14 -113.499 42z" />
    <glyph glyph-name="d" unicode="d" horiz-adv-x="423" 
d="M301 700l51 -0.00195312c6.66699 0 10 -3.33301 10 -10v-680c0 -6.66699 -3.33301 -10 -10 -10h-51c-6.66699 0 -10 3.33301 -10 10v22c0 1.33301 -0.5 2.33301 -1.5 3s-2.16699 0.333984 -3.5 -0.999023c-25.333 -28 -57.333 -42 -96 -42
c-42.667 0 -76.667 14.167 -102 42.5s-38 65.166 -38 110.499v216c0 46.667 12.667 83.834 38 111.501s59.333 41.5 102 41.5c39.333 0 71.333 -14.333 96 -43c1.33301 -1.33301 2.5 -1.66602 3.5 -0.999023s1.5 1.66699 1.5 3v217c0 6.66699 3.33301 10 10 10z
M267.5 80.498c15.667 17.667 23.5 40.5 23.5 68.5v207c0 28.667 -7.83301 51.834 -23.5 69.501s-35.834 26.5 -60.501 26.5c-25.333 0 -46.166 -8.83301 -62.499 -26.5s-24.5 -40.834 -24.5 -69.501v-207c0 -28 8.16699 -50.833 24.5 -68.5s37.166 -26.5 62.499 -26.5
c24.667 0 44.834 8.83301 60.501 26.5z" />
    <glyph glyph-name="e" unicode="e" horiz-adv-x="407" 
d="M353 226h-228c-2.66699 0 -4 -1.33301 -4 -4v-73c0 -28 7.83301 -50.833 23.5 -68.5s36.167 -26.5 61.5 -26.5c21.333 0 39.5 6.5 54.5 19.5s24.833 29.833 29.5 50.5c2 6 5.66699 9 11 9l50 -2c2.66699 0 5 -1 7 -3s2.66699 -4.66699 2 -8
c-5.33301 -39.333 -21.5 -70.5 -48.5 -93.5s-62.167 -34.5 -105.5 -34.5c-47.333 0 -85.166 14 -113.499 42s-42.5 65 -42.5 111v216c0 45.333 14.167 82.166 42.5 110.499s66.166 42.5 113.499 42.5c48 0 86.167 -14.167 114.5 -42.5s42.5 -65.166 42.5 -110.499v-125
c0 -6.66699 -3.33301 -10 -10 -10zM144.5 425.5c-15.667 -17.667 -23.5 -40.834 -23.5 -69.501v-67c0 -2.66699 1.33301 -4 4 -4h164c2.66699 0 4 1.33301 4 4v67c0 28.667 -8 51.834 -24 69.501s-37 26.5 -63 26.5c-25.333 0 -45.833 -8.83301 -61.5 -26.5z" />
    <glyph glyph-name="f" unicode="f" horiz-adv-x="277" 
d="M168 620.5c-10.667 -17 -16 -43.5 -16 -79.5v-31c0 -2.66699 1.33301 -4 4 -4h77c6.66699 0 10 -3.33301 10 -10v-33c0 -6.66699 -3.33301 -10 -10 -10h-77c-2.66699 0 -4 -1.33301 -4 -4v-439c0 -6.66699 -3.33301 -10 -10 -10h-50c-6.66699 -0 -10 3.33301 -10 10v439
c0 2.66699 -1.33301 4 -4 4h-40c-6.66699 0 -10 3.33301 -10 10v33c0 6.66699 3.33301 10 10 10h40c2.66699 0 4 1.33301 4 4v32c0 58 10.667 100 32 126s57 39 107 39h14c6.66699 0 10 -3.33301 10 -10l-1 -41c0 -6.66699 -3.33301 -10 -10 -10h-12
c-25.333 0 -43.333 -8.5 -54 -25.5z" />
    <glyph glyph-name="g" unicode="g" horiz-adv-x="413" 
d="M301 506l51.001 -0.00292969c6.66699 0 10 -3.33301 10 -10v-486c0 -71.333 -16.5 -125.5 -49.5 -162.5s-88.167 -53.833 -165.5 -50.5c-6.66699 0.666992 -10 4.33398 -10 11.001v43c0 6.66699 3.33301 10 10 10c53.333 -1.33301 90.666 10.834 111.999 36.501
s32 65.167 32 118.5v30c0 1.33301 -0.5 2.33301 -1.5 3s-2.16699 0.333984 -3.5 -0.999023c-11.333 -16.667 -25.833 -29.334 -43.5 -38.001s-36.5 -13 -56.5 -13c-42 0 -75.167 14 -99.5 42s-36.5 65 -36.5 111v211c0 46.667 12.167 83.834 36.5 111.501
s57.5 41.5 99.5 41.5c20 0 38.833 -4.16699 56.5 -12.5s32.167 -20.833 43.5 -37.5c1.33301 -2 2.5 -2.83301 3.5 -2.5s1.5 1.5 1.5 3.5v31c0 6.66699 3.33301 10 10 10zM267.501 85.4971c15.667 17.667 23.5 40.5 23.5 68.5v202c0 28.667 -7.83301 51.834 -23.5 69.501
s-35.834 26.5 -60.501 26.5c-25.333 0 -46 -8.83301 -62 -26.5s-24 -40.834 -24 -69.501v-202c0 -28 8 -50.833 24 -68.5s36.667 -26.5 62 -26.5c24.667 0 44.834 8.83301 60.501 26.5z" />
    <glyph glyph-name="h" unicode="h" 
d="M335.5 471c22.333 -28 33.499 -67.001 33.499 -117.001v-344c0 -6.66699 -3.33301 -10 -10 -10h-51c-6.66699 0 -10 3.33301 -10 10v338c0 32.667 -7.16699 58 -21.5 76s-34.166 27 -59.499 27c-26.667 0 -47.5 -9.66699 -62.5 -29s-22.5 -45.666 -22.5 -78.999v-333
c0 -6.66699 -3.33301 -10 -10 -10h-51c-6.66699 -0 -10 3.33301 -10 10v680c0 6.66699 3.33301 10 10 10h51c6.66699 0 10 -3.33301 10 -10v-226c0 -1.33301 0.666992 -2.33301 2 -3s2.33301 0 3 2c12 16.667 27.167 29.167 45.5 37.5s37.833 12.5 58.5 12.5
c40.667 0 72.167 -14 94.5 -42z" />
    <glyph glyph-name="i" unicode="i" horiz-adv-x="208" 
d="M63.5 614c-10.333 10.667 -15.5 24 -15.5 40c0 16.667 5.16699 30.167 15.5 40.5s23.833 15.5 40.5 15.5c16 0 29.167 -5.16699 39.5 -15.5s15.5 -23.833 15.5 -40.5c0 -16 -5.16699 -29.333 -15.5 -40s-23.5 -16 -39.5 -16c-16.667 0 -30.167 5.33301 -40.5 16zM69 10
v486c0 6.66699 3.33301 10 10 10h51c6.66699 0 10 -3.33301 10 -10v-486c0 -6.66699 -3.33301 -10 -10 -10h-51c-6.66699 -0 -10 3.33301 -10 10z" />
    <glyph glyph-name="j" unicode="j" horiz-adv-x="200" 
d="M56 614c-10.667 10.667 -16 24 -16 40c0 16.667 5.33301 30.167 16 40.5s24 15.5 40 15.5c16.667 0 30.167 -5.16699 40.5 -15.5s15.5 -23.833 15.5 -40.5c0 -16 -5.33301 -29.333 -16 -40s-24 -16 -40 -16s-29.333 5.33301 -40 16zM-30 -198v42
c0 6.66699 3.33301 10 10 10c54 2 81 36 81 102v540c0 6.66699 3.33301 10 10 10h51c6.66699 0 10 -3.33301 10 -10v-540c0 -54.667 -10.667 -95.667 -32 -123s-61.333 -41 -120 -41c-6.66699 0 -10 3.33301 -10 10z" />
    <glyph glyph-name="k" unicode="k" horiz-adv-x="405" 
d="M61 10l0.000976562 680c0 6.66699 3.33301 10 10 10h51c6.66699 0 10 -3.33301 10 -10v-402c0 -1.33301 0.666992 -2.33301 2 -3s2.33301 -0.333984 3 0.999023l150 214c2.66699 4 6.66699 6 12 6h52c4 0 6.66699 -1.16699 8 -3.5s0.666016 -5.16602 -2.00098 -8.49902
l-99 -142c-2 -2 -2.33301 -4 -1 -6l118 -335l1 -4c0 -4.66699 -3 -7 -9 -7h-53c-6 0 -10 2.66699 -12 8l-89 278c-0.666992 4 -2.66699 4.33301 -6 1l-73 -104c-1.33301 -1.33301 -2 -3 -2 -5v-168c0 -6.66699 -3.33301 -10 -10 -10h-51c-6.66699 -0 -10 3.33301 -10 10z
" />
    <glyph glyph-name="l" unicode="l" horiz-adv-x="181" 
d="M55 10v680c0 6.66699 3.33301 10 10 10h51c6.66699 0 10 -3.33301 10 -10v-680c0 -6.66699 -3.33301 -10 -10 -10h-51c-6.66699 -0 -10 3.33301 -10 10z" />
    <glyph glyph-name="m" unicode="m" horiz-adv-x="648" 
d="M559 469c22 -29.333 33 -70.0029 33 -122.003v-337c0 -6.66699 -3.33301 -10 -10 -10h-50c-6.66699 0 -10 3.33301 -10 10v331c0 34 -7.16699 60.833 -21.5 80.5s-33.166 29.5 -56.499 29.5c-25.333 0 -45.333 -9.66699 -60 -29s-22 -45.666 -22 -78.999v-333
c0 -6.66699 -3.33301 -10 -10 -10h-51c-6.66699 0 -10 3.33301 -10 10v331c0 34 -7.16699 60.833 -21.5 80.5s-32.833 29.5 -55.5 29.5c-25.333 0 -45.5 -9.66699 -60.5 -29s-22.5 -45.666 -22.5 -78.999v-333c0 -6.66699 -3.33301 -10 -10 -10h-50
c-6.66699 0 -10 3.33301 -10 10v486c0 6.66699 3.33301 10 10 10h50c6.66699 0 10 -3.33301 10 -10v-31c0 -1.33301 0.5 -2.16602 1.5 -2.49902s2.16699 0.166992 3.5 1.5c12.667 16.667 27.667 29 45 37s35.666 12 54.999 12c25.333 0 47.333 -6.16699 66 -18.5
s33 -29.833 43 -52.5c0.666992 -1.33301 1.66699 -2 3 -2s2.33301 1 3 3c12 24 28.333 41.667 49 53s42.667 17 66 17c40 0 71 -14.667 93 -44z" />
    <glyph glyph-name="n" unicode="n" 
d="M335.5 471c22.333 -28 33.499 -67.001 33.499 -117.001v-344c0 -6.66699 -3.33301 -10 -10 -10h-51c-6.66699 0 -10 3.33301 -10 10v338c0 32.667 -7.16699 58 -21.5 76s-34.166 27 -59.499 27c-26.667 0 -47.5 -9.66699 -62.5 -29s-22.5 -45.666 -22.5 -78.999v-333
c0 -6.66699 -3.33301 -10 -10 -10h-51c-6.66699 -0 -10 3.33301 -10 10v486c0 6.66699 3.33301 10 10 10h51c6.66699 0 10 -3.33301 10 -10v-32c0 -1.33301 0.666992 -2.33301 2 -3s2.33301 0 3 2c12 16.667 27.167 29.167 45.5 37.5s37.833 12.5 58.5 12.5
c40.667 0 72.167 -14 94.5 -42z" />
    <glyph glyph-name="o" unicode="o" horiz-adv-x="415" 
d="M92.5 34c-28.333 28 -42.5 65 -42.5 111v215c0 45.333 14.333 82.333 43 111s66.667 43 114 43c48 0 86.333 -14.333 115 -43s43 -65.667 43 -111v-215c0 -46 -14.333 -83 -43 -111s-67 -42 -115 -42s-86.167 14 -114.5 42zM269.5 81c16.333 17.333 24.5 40.333 24.5 69
v206c0 28.667 -8.16699 51.834 -24.5 69.501s-37.166 26.5 -62.499 26.5s-46 -8.83301 -62 -26.5s-24 -40.834 -24 -69.501v-206c0 -28.667 8 -51.667 24 -69s36.667 -26 62 -26s46.166 8.66699 62.499 26z" />
    <glyph glyph-name="p" unicode="p" horiz-adv-x="428" 
d="M340 471.5c25.333 -28.333 38.0029 -65.166 38.0029 -110.499v-216c0 -46.667 -12.667 -83.834 -38 -111.501s-59 -41.5 -101 -41.5c-18.667 0 -36.334 3.5 -53.001 10.5s-31.334 17.833 -44.001 32.5c-1.33301 1.33301 -2.5 1.66602 -3.5 0.999023
s-1.5 -1.66699 -1.5 -3v-217c0 -6.66699 -3.33301 -10 -10 -10h-51c-6.66699 0 -10 3.33301 -10 10v680c0 6.66699 3.33301 10 10 10h51c6.66699 0 10 -3.33301 10 -10v-23c0 -1.33301 0.666992 -2.16602 2 -2.49902s2.66602 0.166992 3.99902 1.5
c12 14 26.5 24.5 43.5 31.5s34.5 10.5 52.5 10.5c42 0 75.667 -14.167 101 -42.5zM283.503 425.5c-16.333 17.667 -37.166 26.5 -62.499 26.5c-24.667 0 -44.834 -8.83301 -60.501 -26.5s-23.5 -40.834 -23.5 -69.501v-206c0 -28.667 7.83301 -51.834 23.5 -69.501
s35.834 -26.5 60.501 -26.5c25.333 0 46.166 8.83301 62.499 26.5s24.5 40.834 24.5 69.501v206c0 28.667 -8.16699 51.834 -24.5 69.501z" />
    <glyph glyph-name="q" unicode="q" horiz-adv-x="428" 
d="M301 506l51 -0.00195312c6.66699 0 10 -3.33301 10 -10v-680c0 -6.66699 -3.33301 -10 -10 -10h-51c-6.66699 0 -10 3.33301 -10 10v217c0 1.33301 -0.5 2.33301 -1.5 3s-2.16699 0.333984 -3.5 -0.999023c-24.667 -28.667 -56.667 -43 -96 -43
c-42.667 0 -76.667 13.833 -102 41.5s-38 64.834 -38 111.501v216c0 45.333 12.667 82.166 38 110.499s59.333 42.5 102 42.5c38.667 0 70.667 -14 96 -42c1.33301 -1.33301 2.5 -1.66602 3.5 -0.999023s1.5 1.66699 1.5 3v22c0 6.66699 3.33301 10 10 10zM267.5 80.498
c15.667 17.667 23.5 40.834 23.5 69.501v206c0 28.667 -7.83301 51.834 -23.5 69.501s-35.834 26.5 -60.501 26.5c-25.333 0 -46.166 -8.83301 -62.499 -26.5s-24.5 -40.834 -24.5 -69.501v-206c0 -28.667 8.16699 -51.834 24.5 -69.501s37.166 -26.5 62.499 -26.5
c24.667 0 44.834 8.83301 60.501 26.5z" />
    <glyph glyph-name="r" unicode="r" horiz-adv-x="292" 
d="M275 500c4.66699 -2.66699 6.33301 -7 5 -13l-12 -52c-0.666992 -6 -4.66699 -8 -12 -6c-8 4 -18 6 -30 6c-5.33301 0 -9.33301 -0.333008 -12 -1c-24 -1.33301 -43.667 -13.833 -59 -37.5s-23 -52.5 -23 -86.5v-300c0 -6.66699 -3.33301 -10 -10 -10h-51
c-6.66699 -0 -10 3.33301 -10 10v486c0 6.66699 3.33301 10 10 10h51c6.66699 0 10 -3.33301 10 -10v-60c0 -2 0.5 -3 1.5 -3s2.16699 0.666992 3.5 2c19.333 50.667 51 76 95 76c16.667 0 31 -3.66699 43 -11z" />
    <glyph glyph-name="s" unicode="s" horiz-adv-x="374" 
d="M82.5 30.5c-27.667 23.667 -41.5029 55.1621 -41.5029 94.4951v7c0 6.66699 3.33301 10 10 10h48c6.66699 0 10 -3.33301 10 -10v-6c0 -21.333 7.83301 -39.333 23.5 -54s36.167 -22 61.5 -22c24 0 43.333 7.33301 58 22s22 33.334 22 56.001
c0 17.333 -4.66699 31.833 -14 43.5s-20.166 20.834 -32.499 27.501s-30.833 15.334 -55.5 26.001c-26 10.667 -47.5 21.167 -64.5 31.5s-31.667 25 -44 44s-18.5 43.167 -18.5 72.5c0 42.667 13.167 76.334 39.5 101.001s61.833 37 106.5 37
c45.333 0 81.333 -12.667 108 -38s40 -59 40 -101v-3c0 -6.66699 -3.33301 -10 -10 -10h-46c-6.66699 0 -10 3.33301 -10 10v6c0 22.667 -7.5 41.334 -22.5 56.001s-34.5 22 -58.5 22s-43.167 -7.5 -57.5 -22.5s-21.5 -33.5 -21.5 -55.5c0 -16 4.33301 -29.5 13 -40.5
s19.334 -20 32.001 -27s30.334 -15.5 53.001 -25.5c27.333 -12 49.833 -23.333 67.5 -34s33.167 -25.667 46.5 -45s20 -43.333 20 -72c0 -41.333 -13.667 -74.333 -41 -99s-64.333 -37 -111 -37c-46 0 -82.833 11.833 -110.5 35.5z" />
    <glyph glyph-name="t" unicode="t" horiz-adv-x="267" 
d="M229 453l-76.001 0.000976562c-2.66699 0 -4 -1.33301 -4 -4v-306c0 -30.667 5.33301 -51.834 16 -63.501s27 -17.167 49 -16.5h10c6.66699 0 10 -3.33301 10 -10v-43c0 -6.66699 -3.33301 -10 -10 -10h-25c-39.333 0 -69.166 8.5 -89.499 25.5s-30.5 49.167 -30.5 96.5
v327c0 2.66699 -1.33301 4 -4 4h-39c-6.66699 0 -10 3.33301 -10 10v33c0 6.66699 3.33301 10 10 10h39c2.66699 0 4 1.33301 4 4v112c0 6.66699 3.33301 10 10 10h50c6.66699 0 10 -3.33301 10 -10v-112c0 -2.66699 1.33301 -4 4 -4h76c6.66699 0 10 -3.33301 10 -10v-33
c0 -6.66699 -3.33301 -10 -10 -10z" />
    <glyph glyph-name="u" unicode="u" 
d="M302 506l51 0.00195312c6.66699 0 10 -3.33301 10 -10v-486c0 -6.66699 -3.33301 -10 -10 -10h-51c-6.66699 0 -10 3.33301 -10 10v34c0 2 -0.5 3 -1.5 3s-2.16699 -0.666992 -3.5 -2c-20.667 -34.667 -54 -52 -100 -52c-40 0 -71.833 12.167 -95.5 36.5
s-35.5 61.166 -35.5 110.499v356c0 6.66699 3.33301 10 10 10h51c6.66699 0 10 -3.33301 10 -10v-340c0 -33.333 6.83301 -58.5 20.5 -75.5s33.5 -25.5 59.5 -25.5c26.667 0 47.5 9.66699 62.5 29s22.5 45.666 22.5 78.999v333c0 6.66699 3.33301 10 10 10z" />
    <glyph glyph-name="v" unicode="v" horiz-adv-x="379" 
d="M149 9l-124.002 486l-1 4c0 4.66699 3 7 9 7h58c6 0 9.66699 -3 11 -9l86 -379c0.666992 -2 1.33398 -3 2.00098 -3s1.33398 1 2.00098 3l85 379c1.33301 6 5 9 11 9l58 -1c3.33301 0 5.83301 -1 7.5 -3s1.83398 -4.66699 0.500977 -8l-123 -485
c-0.666992 -6 -4.33398 -9 -11.001 -9h-60c-6 0 -9.66699 3 -11 9z" />
    <glyph glyph-name="w" unicode="w" horiz-adv-x="554" 
d="M130 9l-106.002 486v2c0 6 3 9 9 9h49c6.66699 0 10.334 -3 11.001 -9l72 -382c0.666992 -1.33301 1.33398 -2 2.00098 -2s1.33398 0.666992 2.00098 2l74 382c1.33301 6 5 9 11 9h45c6.66699 0 10.334 -3 11.001 -9l74 -382c0.666992 -1.33301 1.33398 -2 2.00098 -2
s1.33398 0.666992 2.00098 2l74 382c1.33301 6 5 9 11 9l48 -1c7.33301 0 10.333 -3.66699 9 -11l-106 -485c-0.666992 -6 -4.33398 -9 -11.001 -9h-51c-6 0 -9.66699 3 -11 9l-74 366c-0.666992 2 -1.33398 3 -2.00098 3s-1.33398 -1 -2.00098 -3l-71 -366
c-0.666992 -6 -4.33398 -9 -11.001 -9h-50c-6 0 -9.66699 3 -11 9z" />
    <glyph glyph-name="x" unicode="x" horiz-adv-x="376" 
d="M23 3.5c-1.33301 2.33301 -1.33301 5.16602 0 8.49902l122 238c1.33301 2 1.33301 4 0 6l-122 238c-0.666992 1.33301 -1 3 -1 5c0 4.66699 2.66699 7 8 7h56c6 0 10 -2.33301 12 -7l87 -178c0.666992 -1.33301 1.66699 -2 3 -2s2.33301 0.666992 3 2l87 178
c2 4.66699 6 7 12 7h56c3.33301 0 5.66602 -1.16699 6.99902 -3.5s1.33301 -5.16602 0 -8.49902l-122 -238c-0.666992 -2 -0.666992 -4 0 -6l122 -238c0.666992 -1.33301 1 -3 1 -5c0 -4.66699 -2.66699 -7 -8 -7h-56c-6 -0 -10 2.33301 -12 7l-87 179
c-0.666992 1.33301 -1.66699 2 -3 2s-2.33301 -0.666992 -3 -2l-87 -179c-2 -4.66699 -6 -7 -12 -7h-56c-3.33301 0 -5.66602 1.16699 -6.99902 3.5z" />
    <glyph glyph-name="y" unicode="y" horiz-adv-x="368" 
d="M40 -197c-1.33301 2 -2.00488 4.33105 -2.00488 6.99805v40c0 6.66699 3.33301 10 10 10c20.667 0.666992 36.834 4.66699 48.501 12s21.167 20.333 28.5 39s14.666 47.334 21.999 86.001c0.666992 1.33301 0.833984 2.5 0.500977 3.5s-0.5 1.83301 -0.5 2.5l-127 492
l-1 3c0 5.33301 3.33301 8 10 8h54c6.66699 0 10.334 -3 11.001 -9l88 -393c0.666992 -2 1.33398 -3 2.00098 -3s1.33398 1 2.00098 3l87 393c1.33301 6 5 9 11 9l56 -1c3.33301 0 5.83301 -1 7.5 -3s1.83398 -4.66699 0.500977 -8l-139 -538
c-12 -44.667 -23.833 -77.667 -35.5 -99s-26.834 -36.166 -45.501 -44.499s-45 -12.5 -79 -12.5h-5c-1.33301 0 -2.66602 1 -3.99902 3z" />
    <glyph glyph-name="z" unicode="z" horiz-adv-x="361" 
d="M33 10l-0.00195312 48c0 4.66699 1 9 3 13l205 365c0.666992 1.33301 0.833984 2.5 0.500977 3.5s-1.16602 1.5 -2.49902 1.5h-192c-6.66699 0 -10 3.33301 -10 10v45c0 6.66699 3.33301 10 10 10h270c6.66699 0 10 -3.33301 10 -10v-48c0 -4.66699 -1 -9 -3 -13
l-207 -365c-0.666992 -1.33301 -0.666992 -2.5 0 -3.5s1.66699 -1.5 3 -1.5h199c6.66699 0 10 -3.33301 10 -10v-45c0 -6.66699 -3.33301 -10 -10 -10h-276c-6.66699 -0 -10 3.33301 -10 10z" />
    <glyph glyph-name="braceleft" unicode="{" horiz-adv-x="273" 
d="M110.5 -93c-16.333 18.667 -24.5 47.3379 -24.5 86.0049v217c0 27.333 -4.16699 48.333 -12.5 63s-21.166 23.667 -38.499 27c-6 1.33301 -9 4.66602 -9 9.99902v40c0 6 3 9.33301 9 10c17.333 3.33301 30.166 12.166 38.499 26.499s12.5 35.166 12.5 62.499v212
c0 38.667 8.16699 67.167 24.5 85.5s41.5 27.5 75.5 27.5h51c6.66699 0 10 -3.33301 10 -10v-42c0 -6.66699 -3.33301 -10 -10 -10h-26c-36 0 -54 -24.667 -54 -74v-194c0 -30 -4 -54 -12 -72s-20 -31.333 -36 -40c-1.33301 -0.666992 -2 -1.33398 -2 -2.00098
s0.666992 -1.33398 2 -2.00098c16 -9.33301 28 -23 36 -41s12 -42 12 -72v-199c0 -50 18 -75 54 -75h26c6.66699 0 10 -3.33301 10 -10v-42c0 -6.66699 -3.33301 -10 -10 -10h-51c-34 0 -59.167 9.33301 -75.5 28z" />
    <glyph glyph-name="bar" unicode="|" horiz-adv-x="144" 
d="M36 -70v820c0 6.66699 3.33301 10 10 10h51c6.66699 0 10 -3.33301 10 -10v-820c0 -6.66699 -3.33301 -10 -10 -10h-51c-6.66699 0 -10 3.33301 -10 10z" />
    <glyph glyph-name="braceright" unicode="}" horiz-adv-x="273" 
d="M36 -121c-6.66699 0 -10 3.3291 -10 9.99609v42c0 6.66699 3.33301 10 10 10h26c36 0 54 25 54 75v199c0 30 4 54 12 72s20 31.667 36 41c1.33301 0.666992 2 1.33398 2 2.00098s-0.666992 1.33398 -2 2.00098c-16 8.66699 -28 22 -36 40s-12 42 -12 72v194
c0 49.333 -18 74 -54 74h-26c-6.66699 0 -10 3.33301 -10 10v42c0 6.66699 3.33301 10 10 10h51c34 0 59.167 -9.16699 75.5 -27.5s24.5 -46.833 24.5 -85.5v-212c0 -27.333 4.16699 -48.166 12.5 -62.499s21.166 -23.166 38.499 -26.499c6 -0.666992 9 -4 9 -10v-40
c0 -5.33301 -3 -8.66602 -9 -9.99902c-17.333 -3.33301 -30.166 -12.333 -38.499 -27s-12.5 -35.667 -12.5 -63v-217c0 -38.667 -8.16699 -67.334 -24.5 -86.001s-41.5 -28 -75.5 -28h-51z" />
    <glyph glyph-name="asciitilde" unicode="~" horiz-adv-x="461" 
d="M272 240.5c-13.333 5.66699 -29.668 14.167 -49.001 25.5c-15.333 8.66699 -27.833 15.167 -37.5 19.5s-20.5 6.5 -32.5 6.5c-30.667 0 -54.667 -13.667 -72 -41c-3.33301 -6.66699 -8 -8 -14 -4l-27 16c-5.33301 3.33301 -7 8 -5 14
c10.667 23.333 25.834 42.166 45.501 56.499s41.834 21.5 66.501 21.5c16 0 30.167 -2.33301 42.5 -7s25.166 -11.334 38.499 -20.001c18 -11.333 33.333 -19.666 46 -24.999s27 -8 43 -8c13.333 0 24.5 3.33301 33.5 10s18.167 16.667 27.5 30
c4 5.33301 8.66699 6.33301 14 3l29 -19c5.33301 -3.33301 6.33301 -7.66602 3 -12.999c-29.333 -49.333 -64 -74 -104 -74c-18.667 0 -34.667 2.83301 -48 8.5z" />
    <glyph glyph-name="uni00A0" unicode="&#xa0;" horiz-adv-x="200" 
 />
    <glyph glyph-name="exclamdown" unicode="&#xa1;" horiz-adv-x="251" 
d="M166 692c10.667 -10.667 16 -24 16 -40c0 -16.667 -5.33301 -30.167 -16 -40.5s-24 -15.5 -40 -15.5c-16.667 0 -30.167 5.16699 -40.5 15.5s-15.5 23.833 -15.5 40.5c0 16 5.16699 29.333 15.5 40s23.833 16 40.5 16c16 0 29.333 -5.33301 40 -16zM107 483h38
c6.66699 0 10 -3.33301 10 -10l7 -451c0 -6.66699 -3.33301 -10 -10 -10h-51c-6.66699 0 -10 3.33301 -10 10l6 451c0 6.66699 3.33301 10 10 10z" />
    <glyph glyph-name="cent" unicode="&#xa2;" horiz-adv-x="402" 
d="M354 445l-51 -2c-6.66699 0 -10 3.33301 -10 10v7c0 22 -8.16699 41.167 -24.5 57.5s-37.166 24.5 -62.499 24.5s-45.833 -8.83301 -61.5 -26.5s-23.5 -40.834 -23.5 -69.501v-206c0 -28.667 7.83301 -51.834 23.5 -69.501s36.167 -26.5 61.5 -26.5
s46.166 8.16699 62.499 24.5s24.5 35.5 24.5 57.5v7c0 6.66699 3.33301 10 10 10l51 -1c6.66699 0 10 -3.33301 10 -10v-11c0 -34.667 -11.333 -64.5 -34 -89.5s-53 -40.5 -91 -46.5c-2.66699 -0.666992 -4 -2.33398 -4 -5.00098l2 -69c0 -6.66699 -3.33301 -10 -10 -10h-42
c-6.66699 0 -10 3.33301 -10 10l2 69c0 2.66699 -1.33301 4.33398 -4 5.00098c-38 6 -68 22.333 -90 49s-33 60.334 -33 101.001v216c0 39.333 11 72.5 33 99.5s52 43.833 90 50.5c2.66699 0.666992 4 2.33398 4 5.00098l-2 69c0 6.66699 3.33301 10 10 10h42
c6.66699 0 10 -3.33301 10 -10l-2 -69c0 -2.66699 1.33301 -4.33398 4 -5.00098c38 -6.66699 68.333 -22.667 91 -48s34 -54.666 34 -87.999v-10c0 -6.66699 -3.33301 -10 -10 -10z" />
    <glyph glyph-name="sterling" unicode="&#xa3;" horiz-adv-x="503" 
d="M183 62l276.999 -0.00195312c6.66699 0 10 -3.33301 10 -10v-42c0 -6.66699 -3.33301 -10 -10 -10h-351c-6.66699 0 -10 3.33301 -10 10v44c0 5.33301 2 9.33301 6 12c12 10.667 21.5 26.5 28.5 47.5s10.5 45.5 10.5 73.5v117c0 2.66699 -1.33301 4 -4 4h-58
c-6.66699 0 -10 3.33301 -10 10v39c0 6.66699 3.33301 10 10 10h58c2.66699 0 4 1.33301 4 4v141c0 61.333 14.833 109.333 44.5 144s70.167 52 121.5 52c38.667 0 70.667 -11.667 96 -35s43.333 -57 54 -101v-2c0 -5.33301 -2.66699 -8.66602 -8 -9.99902l-48 -7h-2
c-5.33301 0 -8.66602 3 -9.99902 9c-7.33301 28.667 -17.833 49.834 -31.5 63.501s-31.5 20.5 -53.5 20.5c-30 0 -53.167 -11.333 -69.5 -34s-24.5 -55 -24.5 -97v-144c0 -2.66699 1.33301 -4 4 -4h144c6.66699 0 10 -3.33301 10 -10v-39c0 -6.66699 -3.33301 -10 -10 -10
h-144c-2.66699 0 -4 -1.33301 -4 -4v-115c0 -26.667 -2.83301 -50.5 -8.5 -71.5s-13.5 -37.833 -23.5 -50.5c-2 -3.33301 -1.33301 -5 2 -5z" />
    <glyph glyph-name="currency" unicode="&#xa4;" horiz-adv-x="511" 
d="M415 188c-1.33301 -2 -0.998047 -3.99805 1.00195 -5.99805l65 -64c2 -2 3 -4 3 -6c0 -2.66699 -1.33301 -5.33398 -4 -8.00098l-32 -28c-2 -2 -4 -3 -6 -3c-2.66699 0 -5.33398 1.33301 -8.00098 4l-63 61c-2 2 -4 2.33301 -6 1c-34 -23.333 -71.667 -35 -113 -35
c-40.667 0 -77.334 11 -110.001 33c-2 1.33301 -4 1 -6 -1l-59 -59c-2 -2 -4.33301 -3.16699 -7 -3.5s-5 0.5 -7 2.5l-32 28c-4.66699 5.33301 -5 10 -1 14l61 60c2 2 2.33301 4 1 6c-26.667 35.333 -40 74.333 -40 117c0 42 12.333 80 37 114c1.33301 2 1 4 -1 6l-64 64
c-2 2 -3 4 -3 6c0 2.66699 1.33301 5.33398 4 8.00098l31 28c2 2 4 3 6 3c2.66699 0 5.33398 -1.33301 8.00098 -4l62 -62c2 -2 4 -2.33301 6 -1c33.333 24 71.333 36 114 36c44.667 0 84 -13 118 -39c2 -1.33301 4 -1 6 1l65 65c5.33301 5.33301 10 5.66602 14 0.999023
l31 -28c5.33301 -4.66699 5.66602 -9.33398 0.999023 -14.001l-69 -68c-2 -2 -2.33301 -4 -1 -6c22.667 -32 34 -68.667 34 -110c0 -42 -12 -79.667 -36 -113zM133.502 233.002c12.333 -20.667 28.999 -37.166 49.999 -49.499s43.833 -18.5 68.5 -18.5s47.334 6 68.001 18
s37.167 28.5 49.5 49.5s18.5 43.833 18.5 68.5s-6.16699 47.5 -18.5 68.5s-29 37.667 -50 50s-43.5 18.5 -67.5 18.5c-24.667 0 -47.5 -6.16699 -68.5 -18.5s-37.667 -29 -50 -50s-18.5 -43.833 -18.5 -68.5s6.16699 -47.334 18.5 -68.001z" />
    <glyph glyph-name="yen" unicode="&#xa5;" horiz-adv-x="523" 
d="M434 297l-136.001 -0.000976562c-2.66699 0 -4 -1.33301 -4 -4v-68c0 -2.66699 1.33301 -4 4 -4h136c6.66699 0 10 -3.33301 10 -10v-23c0 -6.66699 -3.33301 -10 -10 -10h-136c-2.66699 0 -4 -1.33301 -4 -4v-163c0 -6.66699 -3.33301 -10 -10 -10h-51
c-6.66699 0 -10 3.33301 -10 10v163c0 2.66699 -1.33301 4 -4 4h-131c-6.66699 0 -10 3.33301 -10 10v23c0 6.66699 3.33301 10 10 10h131c2.66699 0 4 1.33301 4 4v68c0 2.66699 -1.33301 4 -4 4h-131c-6.66699 0 -10 3.33301 -10 10v23c0 6.66699 3.33301 10 10 10h120
c1.33301 0 2.33301 0.5 3 1.5s0.666992 2.16699 0 3.5l-127 343l-1 4c0 5.33301 3 8 9 8h53c6 0 10 -2.66699 12 -8l99 -293c0.666992 -1.33301 1.66699 -2 3 -2s2.33301 0.666992 3 2l98 293c2 5.33301 6 8 12 8h53c3.33301 0 5.83301 -1.16699 7.5 -3.5
s1.83398 -5.16602 0.500977 -8.49902l-127 -343c-0.666992 -1.33301 -0.666992 -2.5 0 -3.5s1.66699 -1.5 3 -1.5h125c6.66699 0 10 -3.33301 10 -10v-23c0 -6.66699 -3.33301 -10 -10 -10z" />
    <glyph glyph-name="brokenbar" unicode="&#xa6;" horiz-adv-x="144" 
d="M36 395v355c0 6.66699 3.33301 10 10 10h51c6.66699 0 10 -3.33301 10 -10v-355c0 -6.66699 -3.33301 -10 -10 -10h-51c-6.66699 0 -10 3.33301 -10 10zM36 -70v348c0 6.66699 3.33301 10 10 10h51c6.66699 0 10 -3.33301 10 -10v-348c0 -6.66699 -3.33301 -10 -10 -10
h-51c-6.66699 0 -10 3.33301 -10 10z" />
    <glyph glyph-name="section" unicode="&#xa7;" horiz-adv-x="388" 
d="M87.5 -162.5c-27 29 -40.502 66.8301 -40.502 113.497v14c0 6.66699 3.33301 10 10 10h51c6.66699 0 10 -3.33301 10 -10v-10c0.666992 -29.333 8 -53.166 22 -71.499s32 -27.5 54 -27.5s40.167 9.33301 54.5 28s21.5 41.667 21.5 69c0 22.667 -5.5 41.667 -16.5 57
s-23.667 27.333 -38 36s-32.5 18 -54.5 28c-27.333 12.667 -49 25.167 -65 37.5s-28.667 29.5 -38 51.5c-10.667 24.667 -16 52.334 -16 83.001c0 33.333 8.33301 64.333 25 93c14.667 28.667 35 47.667 61 57c4 1.33301 4.33301 3 1 5
c-25.333 14.667 -45.666 35 -60.999 61s-23 56 -23 90c0 45.333 13.667 82.666 41 111.999s62.666 44 105.999 44s78.5 -14.833 105.5 -44.5s40.833 -68.167 41.5 -115.5v-12c0 -6.66699 -3.33301 -10 -10 -10h-52c-6.66699 0 -10 3.33301 -10 10v9
c0 29.333 -7 53.5 -21 72.5s-32 28.5 -54 28.5c-22.667 0 -41 -9.5 -55 -28.5s-21 -42.833 -21 -71.5c0 -30.667 8.33301 -55 25 -73s42.334 -34.333 77.001 -49c26.667 -12.667 47.5 -23.667 62.5 -33s28.167 -22.666 39.5 -39.999c18 -27.333 27 -59.666 27 -96.999
c0 -35.333 -6.66699 -66.333 -20 -93c-16 -32 -38.333 -52.667 -67 -62c-3.33301 -0.666992 -3.66602 -2.33398 -0.999023 -5.00098c54.667 -31.333 82 -79.333 82 -144c0 -45.333 -13.667 -82.666 -41 -111.999s-63 -44 -107 -44c-43.333 0 -78.5 14.5 -105.5 43.5z
M262.998 184.997c8.66699 19.333 12.999 41.333 12.999 66c0 28 -6.66699 52 -20 72c-7.33301 10 -16.666 18.167 -27.999 24.5s-23.333 9.5 -36 9.5c-15.333 0 -28.833 -4.66699 -40.5 -14s-20.167 -20.333 -25.5 -33c-8 -16.667 -12 -37.334 -12 -62.001
c0 -23.333 4.33301 -44.666 13 -63.999c6 -13.333 14.5 -24 25.5 -32s24.833 -12 41.5 -12c32.667 0 55.667 15 69 45z" />
    <glyph glyph-name="dieresis" unicode="&#xa8;" horiz-adv-x="306" 
d="M187.5 614c-10.333 10.667 -15.5 24 -15.5 40c0 16.667 5.16699 30.167 15.5 40.5s23.833 15.5 40.5 15.5c16 0 29.333 -5.16699 40 -15.5s16 -23.833 16 -40.5c0 -16 -5.33301 -29.333 -16 -40s-24 -16 -40 -16c-16.667 0 -30.167 5.33301 -40.5 16zM38.5 614
c-10.333 10.667 -15.5 24 -15.5 40c0 16.667 5.16699 30.167 15.5 40.5s23.833 15.5 40.5 15.5c16 0 29.333 -5.16699 40 -15.5s16 -23.833 16 -40.5c0 -16 -5.33301 -29.333 -16 -40s-24 -16 -40 -16c-16.667 0 -30.167 5.33301 -40.5 16z" />
    <glyph glyph-name="copyright" unicode="&#xa9;" horiz-adv-x="835" 
d="M233 39.5c-55.333 31.667 -98.833 74.834 -130.5 129.501s-47.5 115 -47.5 181s15.833 126.333 47.5 181s75.167 97.834 130.5 129.501s116.666 47.5 183.999 47.5c68 0 129.5 -15.833 184.5 -47.5s98.333 -74.834 130 -129.501s47.5 -115 47.5 -181
s-15.833 -126.333 -47.5 -181s-75 -97.834 -130 -129.501s-116.5 -47.5 -184.5 -47.5c-67.333 0 -128.666 15.833 -183.999 47.5zM577.5 77.5c48.333 27.667 86.333 65.5 114 113.5s41.5 101 41.5 159s-13.833 111 -41.5 159s-65.667 85.833 -114 113.5
s-101.833 41.5 -160.5 41.5s-112.167 -13.833 -160.5 -41.5s-86.333 -65.5 -114 -113.5s-41.5 -101 -41.5 -159s13.833 -111 41.5 -159s65.667 -85.833 114 -113.5s101.833 -41.5 160.5 -41.5s112.167 13.833 160.5 41.5zM355.5 203
c-15.667 14.667 -23.5 34.334 -23.5 59.001v171c0 24.667 7.83301 44.167 23.5 58.5s36.5 21.5 62.5 21.5s47 -7.16699 63 -21.5s24 -33.833 24 -58.5v-6c0 -6.66699 -3.33301 -10 -10 -10l-23 -1c-6.66699 0 -10 3.33301 -10 10v10c0 11.333 -4.16699 20.666 -12.5 27.999
s-18.833 11 -31.5 11s-23.167 -3.66699 -31.5 -11s-12.5 -16.666 -12.5 -27.999v-177c0 -12 4 -21.5 12 -28.5s18.667 -10.5 32 -10.5s24 3.5 32 10.5s12 16.5 12 28.5v10c0 6.66699 3.33301 10 10 10l23 -1c6.66699 0 10 -3.33301 10 -10v-6
c0 -24.667 -8 -44.334 -24 -59.001s-37 -22 -63 -22s-46.833 7.33301 -62.5 22z" />
    <glyph glyph-name="ordfeminine" unicode="&#xaa;" horiz-adv-x="276" 
d="M183 562c2.66699 0 3.99902 1.33301 3.99902 4v29c0 20.667 -4.66699 37.334 -14 50.001s-22.666 19 -39.999 19c-12.667 0 -23.834 -3.83301 -33.501 -11.5s-15.834 -17.5 -18.501 -29.5c-1.33301 -7.33301 -5 -10.333 -11 -9l-31 2c-7.33301 1.33301 -10.333 5 -9 11
c2.66699 24 13.667 43.5 33 58.5s42.333 22.5 69 22.5c32.667 0 58.5 -9.83301 77.5 -29.5s28.5 -46.167 28.5 -79.5v-220c0 -6.66699 -3.33301 -10 -10 -10h-31c-6.66699 0 -10 3.33301 -10 10v13c0 1.33301 -0.5 2.16602 -1.5 2.49902s-2.16699 -0.166992 -3.5 -1.5
c-15.333 -19.333 -37.666 -29 -66.999 -29c-25.333 0 -47.166 7 -65.499 21s-27.5 39 -27.5 75c0 68 38.667 102 116 102h45zM167.999 422c12.667 10.667 19 26 19 46v49c0 2.66699 -1.33301 4 -4 4h-44c-20 0 -36 -5.16699 -48 -15.5s-18 -25.833 -18 -46.5
c0 -18 4.5 -31.333 13.5 -40s21.167 -13 36.5 -13c17.333 0 32.333 5.33301 45 16zM30.999 317h209c6.66699 0 10 -3.33301 10 -10v-27c0 -6.66699 -3.33301 -10 -10 -10h-209c-6.66699 0 -10 3.33301 -10 10v27c0 6.66699 3.33301 10 10 10z" />
    <glyph glyph-name="guillemotleft" unicode="&#xab;" horiz-adv-x="472" 
d="M245 114c0 -4.66699 -3 -7.00098 -9 -7.00098h-45c-5.33301 0 -9.33301 2 -12 6l-106 161c-1.33301 2 -2 4.33301 -2 7s0.666992 5 2 7l106 161c3.33301 4 7.33301 6 12 6h45c4 0 6.66699 -1.16699 8 -3.5s1 -5.16602 -1 -8.49902l-105 -159
c-0.666992 -2 -0.666992 -4 0 -6l105 -159zM394 113.999c0 -4.66699 -3 -7.00098 -9 -7.00098h-46c-4.66699 0 -8.66699 2.33301 -12 7l-105 160c-1.33301 2 -2 4.33301 -2 7s0.666992 5 2 7l105 160c3.33301 4.66699 7.33301 7 12 7h46c4 0 6.66699 -1.16699 8 -3.5
s1 -5.16602 -1 -8.49902l-106 -159c-0.666992 -2 -0.666992 -4 0 -6l106 -159z" />
    <glyph glyph-name="logicalnot" unicode="&#xac;" horiz-adv-x="442" 
d="M410 334v-35l-1 -10h-1v-102c0 -6.66699 -3.33301 -10 -10 -10h-37c-6.66699 0 -10 3.33301 -10 10v98c0 2.66699 -1.33301 4 -4 4h-305c-6.66699 0 -10 3.33301 -10 10v35c0 6.66699 3.33301 10 10 10h358c6.66699 0 10 -3.33301 10 -10z" />
    <glyph glyph-name="uni00AD" unicode="&#xad;" horiz-adv-x="313" 
d="M32 290v42c0 6.66699 3.33301 10 10 10h229c6.66699 0 10 -3.33301 10 -10v-42c0 -6.66699 -3.33301 -10 -10 -10h-229c-6.66699 0 -10 3.33301 -10 10z" />
    <glyph glyph-name="registered" unicode="&#xae;" horiz-adv-x="438" 
d="M318 688c30 -17.333 53.8311 -40.833 71.498 -70.5s26.5 -62.167 26.5 -97.5c0 -36 -8.66699 -69 -26 -99s-41.166 -53.667 -71.499 -71s-63.5 -26 -99.5 -26s-69.167 8.66699 -99.5 26s-54.166 41 -71.499 71s-26 63 -26 99c0 35.333 8.83301 67.833 26.5 97.5
s41.5 53.167 71.5 70.5s63 26 99 26s69 -8.66699 99 -26zM299.498 382c24.333 14 43.5 33.167 57.5 57.5s21 51.166 21 80.499c0 28.667 -7 55 -21 79s-33.167 43 -57.5 57s-51.166 21 -80.499 21s-56.166 -7 -80.499 -21s-43.5 -33 -57.5 -57s-21 -50.333 -21 -79
c0 -29.333 7 -56.166 21 -80.499s33.167 -43.5 57.5 -57.5s51.166 -21 80.499 -21s56.166 7 80.499 21zM274.998 527c-4.66699 -8 -11 -13.667 -19 -17c-2.66699 -2 -3.66699 -4 -3 -6l26 -63l1 -4c0 -5.33301 -3 -8 -9 -8h-13c-5.33301 0 -9 2.66699 -11 8l-25 64
c-0.666992 2 -2 3 -4 3h-16c-2.66699 0 -4 -1.33301 -4 -4v-61c0 -6.66699 -3.33301 -10 -10 -10h-11c-6.66699 0 -10 3.33301 -10 10v159c0 6.66699 3.33301 10 10 10h53c15.333 0 27.833 -5 37.5 -15s14.5 -22.667 14.5 -38c0 -10.667 -2.33301 -20 -7 -28zM197.998 577
v-45.001c0 -2.66699 1.33301 -4 4 -4h24c7.33301 0 13.333 2.5 18 7.5s7 11.167 7 18.5c0 8.66699 -2.33301 15.334 -7 20.001s-10.667 7 -18 7h-24c-2.66699 0 -4 -1.33301 -4 -4z" />
    <glyph glyph-name="macron" unicode="&#xaf;" horiz-adv-x="491" 
d="M143 605v32c0 6.66699 3.33301 10 10 10h183c6.66699 0 10 -3.33301 10 -10v-32c0 -6.66699 -3.33301 -10 -10 -10h-183c-6.66699 0 -10 3.33301 -10 10z" />
    <glyph glyph-name="degree" unicode="&#xb0;" horiz-adv-x="358" 
d="M100 511c-24 14 -43 33.167 -57 57.5s-21 51.166 -21 80.499s7 56.166 21 80.499s33 43.5 57 57.5s50.333 21 79 21s55 -7 79 -21s43 -33.167 57 -57.5s21 -51.166 21 -80.499s-7 -56.166 -21 -80.499s-33 -43.5 -57 -57.5s-50.333 -21 -79 -21s-55 7 -79 21zM255 571.5
c20.667 21 31 46.833 31 77.5s-10.333 56.667 -31 78s-46 32 -76 32c-29.333 0 -54.5 -10.667 -75.5 -32s-31.5 -47.333 -31.5 -78s10.5 -56.5 31.5 -77.5s46.167 -31.5 75.5 -31.5c30 0 55.333 10.5 76 31.5z" />
    <glyph glyph-name="plusminus" unicode="&#xb1;" horiz-adv-x="442" 
d="M410 368v-35c0 -6.66699 -3.33301 -10 -10 -10h-147c-2.66699 0 -4 -1.33301 -4 -4v-147c0 -6.66699 -3.33301 -10 -10 -10h-36c-6.66699 0 -10 3.33301 -10 10v147c0 2.66699 -1.33301 4 -4 4h-147c-6.66699 0 -10 3.33301 -10 10v35c0 6.66699 3.33301 10 10 10h147
c2.66699 0 4 1.33301 4 4v147c0 6.66699 3.33301 10 10 10h36c6.66699 0 10 -3.33301 10 -10v-147c0 -2.66699 1.33301 -4 4 -4h147c6.66699 0 10 -3.33301 10 -10zM32 38v35c0 6.66699 3.33301 10 10 10h358c6.66699 0 10 -3.33301 10 -10v-35
c0 -6.66699 -3.33301 -10 -10 -10h-358c-6.66699 0 -10 3.33301 -10 10z" />
    <glyph glyph-name="uni00B2" unicode="&#xb2;" horiz-adv-x="245" 
d="M22 452l0.000976562 27.002c0 5.33301 1.33301 9.66602 4 12.999l38 58c30.667 46.667 53 81.667 67 105c24 40 36 74.667 36 104c0 20 -4.33301 35.5 -13 46.5s-20.334 16.5 -35.001 16.5c-14 0 -25.333 -5.5 -34 -16.5s-13 -25.833 -13 -44.5v-19
c0 -6.66699 -3.33301 -10 -10 -10h-31c-6.66699 0 -10 3.33301 -10 10v21c0.666992 32 10 57.333 28 76s41.667 28 71 28s53 -9.5 71 -28.5s27 -46.167 27 -81.5c0 -36.667 -12 -76.667 -36 -120c-16.667 -30.667 -38.667 -67.334 -66 -110.001l-23 -36
c-0.666992 -1.33301 -0.666992 -2.5 0 -3.5s1.66699 -1.5 3 -1.5h123c6.66699 0 10 -3.33301 10 -10v-24c0 -6.66699 -3.33301 -10 -10 -10h-187c-6.66699 0 -10 3.33301 -10 10z" />
    <glyph glyph-name="uni00B3" unicode="&#xb3;" horiz-adv-x="263" 
d="M227 570c0 -23.333 -2.66602 -44.0029 -7.99902 -62.0029c-5.33301 -22 -16 -39.333 -32 -52s-36.333 -19 -61 -19c-27.333 0 -49.833 8.33301 -67.5 25s-28.167 38.334 -31.5 65.001c-1.33301 14.667 -2 25.667 -2 33c0 6.66699 3.33301 10 10 10h30
c6.66699 0 10 -3.33301 10 -10c0 -6 0.666992 -13.667 2 -23c2 -17.333 7.16699 -30.833 15.5 -40.5s19.5 -14.5 33.5 -14.5c22.667 0 38 12.333 46 37c4.66699 16 7 34.667 7 56c0 20.667 -1.66699 37.334 -5 50.001c-7.33301 30.667 -23.333 46 -48 46
c-4.66699 0 -8.33398 -1 -11.001 -3c-1.33301 -0.666992 -3.66602 -1 -6.99902 -1c-2.66699 0 -5 1 -7 3l-15 15c-3.33301 4.66699 -3.66602 9.33398 -0.999023 14.001l79 114c0.666992 0.666992 0.666992 1.66699 0 3s-1.66699 2 -3 2h-123c-6.66699 0 -10 3.33301 -10 10
v24c0 6.66699 3.33301 10 10 10h176c6.66699 0 10 -3.33301 10 -10v-27c0 -5.33301 -1.33301 -9.66602 -4 -12.999l-69 -103c-0.666992 -0.666992 -0.833984 -1.5 -0.500977 -2.5s1.16602 -1.5 2.49902 -1.5c17.333 -2.66699 32 -11.334 44 -26.001s20 -32.667 24 -54
c4 -16 6 -34.333 6 -55z" />
    <glyph glyph-name="acute" unicode="&#xb4;" horiz-adv-x="180" 
d="M28 575.5c-1.33301 2.33301 -1 5.16602 1 8.49902l62 109c3.33301 4.66699 7.33301 7 12 7h41c4 0 6.5 -1.16699 7.5 -3.5s0.5 -5.16602 -1.5 -8.49902l-70 -109c-3.33301 -4.66699 -7.33301 -7 -12 -7h-32c-4 0 -6.66699 1.16699 -8 3.5z" />
    <glyph glyph-name="uni00B5" unicode="&#xb5;" horiz-adv-x="429" 
d="M308 506l51 0.000976562c6.66699 0 10 -3.33301 10 -10v-486c0 -6.66699 -3.33301 -10 -10 -10h-51c-6.66699 0 -10 3.33301 -10 10v34c0 2 -0.5 3.16699 -1.5 3.5s-2.16699 -0.166992 -3.5 -1.5c-20.667 -35.333 -54 -53 -100 -53c-21.333 0 -40 3.33301 -56 10
c-3.33301 1.33301 -5 0.333008 -5 -3v-190c0 -6.66699 -3.33301 -10 -10 -10h-51c-6.66699 0 -10 3.33301 -10 10v686c0 6.66699 3.33301 10 10 10h51c6.66699 0 10 -3.33301 10 -10v-340c0 -33.333 7 -58.5 21 -75.5s34 -25.5 60 -25.5s46.667 9.66699 62 29
s23 45.666 23 78.999v333c0 6.66699 3.33301 10 10 10z" />
    <glyph glyph-name="paragraph" unicode="&#xb6;" horiz-adv-x="470" 
d="M388 700c6.66699 0 10 -3.33398 10 -10.001v-880c0 -6.66699 -3.33301 -10 -10 -10h-40c-6.66699 0 -10 3.33301 -10 10v827c0 2.66699 -1.33301 4 -4 4h-79c-2.66699 0 -4 -1.33301 -4 -4v-827c0 -6.66699 -3.33301 -10 -10 -10h-41c-6.66699 0 -10 3.33301 -10 10v437
c0 2.66699 -1.33301 4 -4 4c-46 5.33301 -83 28.833 -111 70.5s-42 92.834 -42 153.501c0 42 7.16699 80.167 21.5 114.5s34.5 61.333 60.5 81s56 29.5 90 29.5h183z" />
    <glyph glyph-name="periodcentered" unicode="&#xb7;" horiz-adv-x="196" 
d="M57.5 238c-10.333 10.667 -15.5 24 -15.5 40c0 16.667 5.16699 30.167 15.5 40.5s23.833 15.5 40.5 15.5c16 0 29.333 -5.16699 40 -15.5s16 -23.833 16 -40.5c0 -16 -5.33301 -29.333 -16 -40s-24 -16 -40 -16c-16.667 0 -30.167 5.33301 -40.5 16z" />
    <glyph glyph-name="cedilla" unicode="&#xb8;" horiz-adv-x="121" 
d="M4 -170l3 20.998c1.33301 5.33301 4.66602 8 9.99902 8c0.666992 -0.666992 2 -1 4 -1c14 -2 25.833 0.666992 35.5 8s14.5 20.333 14.5 39c0 26.667 -13.667 54.334 -41 83.001c-2.66699 2 -4 4.33301 -4 7c0 3.33301 2.66699 5 8 5h27c4.66699 0 8 -1 10 -3l4 -4
c30.667 -28.667 46 -61 46 -97c0 -29.333 -7.66699 -50.166 -23 -62.499s-34.333 -18.5 -57 -18.5c-10.667 0 -20.667 1 -30 3c-5.33301 2 -7.66602 6 -6.99902 12z" />
    <glyph glyph-name="uni00B9" unicode="&#xb9;" horiz-adv-x="145" 
d="M71 862h34c6.66699 0 10 -3.33301 10 -10v-400c0 -6.66699 -3.33301 -10 -10 -10h-31c-6.66699 0 -10 3.33301 -10 10v357c0 1.33301 -0.5 2.5 -1.5 3.5s-1.83301 1.16699 -2.5 0.5l-29 -8l-3 -1c-5.33301 0 -8 3.33301 -8 10v18c0 6 2.33301 10 7 12l31 15
c4 2 8.33301 3 13 3z" />
    <glyph glyph-name="ordmasculine" unicode="&#xba;" horiz-adv-x="280" 
d="M62.5 391c-19 18.667 -28.5 43.667 -28.5 75v140c0 30.667 9.5 55.334 28.5 74.001s44.5 28 76.5 28c32.667 0 58.667 -9.33301 78 -28s29 -43.334 29 -74.001v-140c0 -31.333 -9.66699 -56.333 -29 -75s-45.333 -28 -78 -28c-32 0 -57.5 9.33301 -76.5 28zM179.5 424
c10.333 11.333 15.5 26 15.5 44v134c0 18 -5.16699 32.833 -15.5 44.5s-23.833 17.5 -40.5 17.5c-16 0 -29.167 -5.83301 -39.5 -17.5s-15.5 -26.5 -15.5 -44.5v-134c0 -18 5.16699 -32.667 15.5 -44s23.5 -17 39.5 -17c16.667 0 30.167 5.66699 40.5 17zM25 280v28
c0 6.66699 3.33301 10 10 10h210c6.66699 0 10 -3.33301 10 -10v-28c0 -6.66699 -3.33301 -10 -10 -10h-210c-6.66699 0 -10 3.33301 -10 10z" />
    <glyph glyph-name="guillemotright" unicode="&#xbb;" horiz-adv-x="472" 
d="M79 110.5c-1.33301 2.33301 -1 5.16699 1 8.5l105 159c1.33301 2 1.33301 4 0 6l-105 159l-2 5c0 4.66699 3 7 9 7h45c5.33301 0 9.33301 -2 12 -6l106 -161c1.33301 -2 2 -4.33301 2 -7s-0.666992 -5 -2 -7l-106 -161c-2.66699 -4 -6.66699 -6 -12 -6h-45
c-4 0 -6.66699 1.16699 -8 3.5zM228 110.501c-1.33301 2.33301 -1 5.16699 1 8.5l105 159c1.33301 2 1.33301 4 0 6l-105 159l-2 5c0 4.66699 3 7 9 7h45c5.33301 0 9.33301 -2 12 -6l106 -161c1.33301 -2 2 -4.33301 2 -7s-0.666992 -5 -2 -7l-106 -161
c-2.66699 -4 -6.66699 -6 -12 -6h-45c-4 0 -6.66699 1.16699 -8 3.5z" />
    <glyph glyph-name="onequarter" unicode="&#xbc;" horiz-adv-x="662" 
d="M71 700h34c6.66699 0 10 -3.33301 10 -10v-400c0 -6.66699 -3.33301 -10 -10 -10h-31c-6.66699 0 -10 3.33301 -10 10v357c0 1.33301 -0.5 2.5 -1.5 3.5s-1.83301 1.16699 -2.5 0.5l-29 -8l-3 -1c-5.33301 0 -8 3.33301 -8 10v18c0 6 2.33301 10 7 12l31 15
c4 2 8.33301 3 13 3zM67.5 3.5c-1 2.33301 -0.5 5.16602 1.5 8.49902l431 681c3.33301 4.66699 7.33301 7 12 7h33c4 0 6.5 -1.16699 7.5 -3.5s0.5 -5.16602 -1.5 -8.49902l-431 -681c-3.33301 -4.66699 -7.33301 -7 -12 -7h-33c-4 0 -6.5 1.16699 -7.5 3.5zM650 149v-26
c0 -6.66699 -3.33301 -10 -10 -10h-13c-2.66699 0 -4 -1.33301 -4 -4v-99c0 -6.66699 -3.33301 -10 -10 -10h-30c-6.66699 -0 -10 3.33301 -10 10v99c0 2.66699 -1.33301 4 -4 4h-134c-6.66699 0 -10 3.33301 -10 10v23c0 2.66699 0.666992 6.66699 2 12l86 254
c2 5.33301 6 8 12 8h33c7.33301 0 10 -3.66699 8 -11l-81 -245c-0.666992 -1.33301 -0.5 -2.5 0.5 -3.5s2.16699 -1.5 3.5 -1.5h80c2.66699 0 4 1.33301 4 4v81c0 6.66699 3.33301 10 10 10h30c6.66699 0 10 -3.33301 10 -10v-81c0 -2.66699 1.33301 -4 4 -4h13
c6.66699 0 10 -3.33301 10 -10z" />
    <glyph glyph-name="onehalf" unicode="&#xbd;" horiz-adv-x="665" 
d="M71 700h34c6.66699 0 10 -3.33301 10 -10v-400c0 -6.66699 -3.33301 -10 -10 -10h-31c-6.66699 0 -10 3.33301 -10 10v357c0 1.33301 -0.5 2.5 -1.5 3.5s-1.83301 1.16699 -2.5 0.5l-29 -8l-3 -1c-5.33301 0 -8 3.33301 -8 10v18c0 6 2.33301 10 7 12l31 15
c4 2 8.33301 3 13 3zM67.5 3.5c-1 2.33301 -0.5 5.16602 1.5 8.49902l431 681c3.33301 4.66699 7.33301 7 12 7h33c4 0 6.5 -1.16699 7.5 -3.5s0.5 -5.16602 -1.5 -8.49902l-431 -681c-3.33301 -4.66699 -7.33301 -7 -12 -7h-33c-4 0 -6.5 1.16699 -7.5 3.5zM442 10
l0.000976562 27.002c0 5.33301 1.33301 9.66602 4 12.999l38 58c30.667 46.667 53 81.667 67 105c24 40 36 74.667 36 104c0 20 -4.33301 35.5 -13 46.5s-20.334 16.5 -35.001 16.5c-14 0 -25.333 -5.5 -34 -16.5s-13 -25.833 -13 -44.5v-19
c0 -6.66699 -3.33301 -10 -10 -10h-31c-6.66699 0 -10 3.33301 -10 10v21c0.666992 32 10 57.333 28 76s41.667 28 71 28s53 -9.5 71 -28.5s27 -46.167 27 -81.5c0 -36.667 -12 -76.667 -36 -120c-16.667 -30.667 -38.667 -67.334 -66 -110.001l-23 -36
c-0.666992 -1.33301 -0.666992 -2.5 0 -3.5s1.66699 -1.5 3 -1.5h123c6.66699 0 10 -3.33301 10 -10v-24c0 -6.66699 -3.33301 -10 -10 -10h-187c-6.66699 -0 -10 3.33301 -10 10z" />
    <glyph glyph-name="threequarters" unicode="&#xbe;" horiz-adv-x="732" 
d="M227 406c0 -23.333 -2.66602 -44.0029 -7.99902 -62.0029c-5.33301 -22 -16 -39.333 -32 -52s-36.333 -19 -61 -19c-27.333 0 -49.833 8.33301 -67.5 25s-28.167 38.334 -31.5 65.001c-1.33301 14.667 -2 25.667 -2 33c0 6.66699 3.33301 10 10 10h30
c6.66699 0 10 -3.33301 10 -10c0 -6 0.666992 -13.667 2 -23c2 -17.333 7.16699 -30.833 15.5 -40.5s19.5 -14.5 33.5 -14.5c22.667 0 38 12.333 46 37c4.66699 16 7 34.667 7 56c0 20.667 -1.66699 37.334 -5 50.001c-7.33301 30.667 -23.333 46 -48 46
c-4.66699 0 -8.33398 -1 -11.001 -3c-1.33301 -0.666992 -3.66602 -1 -6.99902 -1c-2.66699 0 -5 1 -7 3l-15 15c-3.33301 4.66699 -3.66602 9.33398 -0.999023 14.001l79 114c0.666992 0.666992 0.666992 1.66699 0 3s-1.66699 2 -3 2h-123c-6.66699 0 -10 3.33301 -10 10
v24c0 6.66699 3.33301 10 10 10h176c6.66699 0 10 -3.33301 10 -10v-27c0 -5.33301 -1.33301 -9.66602 -4 -12.999l-69 -103c-0.666992 -0.666992 -0.833984 -1.5 -0.500977 -2.5s1.16602 -1.5 2.49902 -1.5c17.333 -2.66699 32 -11.334 44 -26.001s20 -32.667 24 -54
c4 -16 6 -34.333 6 -55zM136.501 3.49707c-1 2.33301 -0.5 5.16602 1.5 8.49902l431 681c3.33301 4.66699 7.33301 7 12 7h33c4 0 6.5 -1.16699 7.5 -3.5s0.5 -5.16602 -1.5 -8.49902l-431 -681c-3.33301 -4.66699 -7.33301 -7 -12 -7h-33c-4 0 -6.5 1.16699 -7.5 3.5z
M719.001 148.997v-26c0 -6.66699 -3.33301 -10 -10 -10h-13c-2.66699 0 -4 -1.33301 -4 -4v-99c0 -6.66699 -3.33301 -10 -10 -10h-30c-6.66699 0 -10 3.33301 -10 10v99c0 2.66699 -1.33301 4 -4 4h-134c-6.66699 0 -10 3.33301 -10 10v23c0 2.66699 0.666992 6.66699 2 12
l86 254c2 5.33301 6 8 12 8h33c7.33301 0 10 -3.66699 8 -11l-81 -245c-0.666992 -1.33301 -0.5 -2.5 0.5 -3.5s2.16699 -1.5 3.5 -1.5h80c2.66699 0 4 1.33301 4 4v81c0 6.66699 3.33301 10 10 10h30c6.66699 0 10 -3.33301 10 -10v-81c0 -2.66699 1.33301 -4 4 -4h13
c6.66699 0 10 -3.33301 10 -10z" />
    <glyph glyph-name="questiondown" unicode="&#xbf;" horiz-adv-x="370" 
d="M238 482c10.667 -10.667 16 -24 16 -40c0 -16.667 -5.33301 -30.167 -16 -40.5s-24 -15.5 -40 -15.5c-16.667 0 -30.167 5.16699 -40.5 15.5s-15.5 23.833 -15.5 40.5c0 16 5.33301 29.333 16 40s24 16 40 16s29.333 -5.33301 40 -16zM235 290v-58.9951
c0 -28.667 -5.66699 -52.334 -17 -71.001s-28 -38.667 -50 -60c-22.667 -23.333 -39.5 -44 -50.5 -62s-16.5 -41.667 -16.5 -71c0 -33.333 7.66699 -60.166 23 -80.499s35.333 -30.5 60 -30.5c26.667 0 47.834 10.333 63.501 31s23.5 47.667 23.5 81v31
c0 6.66699 3.33301 10 10 10l51 -3c6.66699 0 10 -3.33301 10 -10v-28c0 -52.667 -14.667 -95.334 -44 -128.001s-67.666 -49 -114.999 -49c-46.667 0 -83.834 16 -111.501 48s-41.5 74.667 -41.5 128c0 29.333 3.83301 54.666 11.5 75.999s16.667 38.666 27 51.999
s24.166 28.666 41.499 45.999c18 17.333 31.333 32.666 40 45.999s13 29.333 13 48v55c0 6.66699 3.33301 10 10 10h52c6.66699 0 10 -3.33301 10 -10z" />
    <glyph glyph-name="Agrave" unicode="&#xc0;" horiz-adv-x="410" 
d="M325 9l-25 124c0 1.33301 -0.5 2.33301 -1.5 3s-2.16699 1 -3.5 1h-181c-1.33301 0 -2.5 -0.333008 -3.5 -1s-1.5 -1.66699 -1.5 -3l-25 -124c-0.666992 -6 -4.33398 -9 -11.001 -9h-51c-3.33301 0 -5.83301 1 -7.5 3s-2.16699 4.66699 -1.5 8l150 680
c1.33301 6 5 9 11 9h60c6.66699 0 10.334 -3 11.001 -9l152 -680v-2c0 -6 -3 -9 -9 -9h-52c-6 0 -9.66699 3 -11 9zM125 195h158.002c2 0 3 1.33301 3 4l-80 393c-0.666992 2 -1.33398 3 -2.00098 3s-1.33398 -1 -2.00098 -3l-80 -393c0 -2.66699 1 -4 3 -4zM228.002 772
c0 -4 -3 -6 -9 -6h-32c-4.66699 0 -8.66699 2.33301 -12 7l-70 109c-1.33301 2.66699 -2 4.66699 -2 6c0 4 2.66699 6 8 6h42c4.66699 0 8.66699 -2.33301 12 -7l61 -109c1.33301 -2.66699 2 -4.66699 2 -6z" />
    <glyph glyph-name="Aacute" unicode="&#xc1;" horiz-adv-x="410" 
d="M325 9l-25 124c0 1.33301 -0.5 2.33301 -1.5 3s-2.16699 1 -3.5 1h-181c-1.33301 0 -2.5 -0.333008 -3.5 -1s-1.5 -1.66699 -1.5 -3l-25 -124c-0.666992 -6 -4.33398 -9 -11.001 -9h-51c-3.33301 0 -5.83301 1 -7.5 3s-2.16699 4.66699 -1.5 8l150 680
c1.33301 6 5 9 11 9h60c6.66699 0 10.334 -3 11.001 -9l152 -680v-2c0 -6 -3 -9 -9 -9h-52c-6 0 -9.66699 3 -11 9zM125 195h158.002c2 0 3 1.33301 3 4l-80 393c-0.666992 2 -1.33398 3 -2.00098 3s-1.33398 -1 -2.00098 -3l-80 -393c0 -2.66699 1 -4 3 -4zM162.002 769.5
c-1.33301 2.33301 -1 5.16602 1 8.49902l62 109c3.33301 4.66699 7.33301 7 12 7h41c4 0 6.5 -1.16699 7.5 -3.5s0.5 -5.16602 -1.5 -8.49902l-70 -109c-3.33301 -4.66699 -7.33301 -7 -12 -7h-32c-4 0 -6.66699 1.16699 -8 3.5z" />
    <glyph glyph-name="Acircumflex" unicode="&#xc2;" horiz-adv-x="410" 
d="M325 9l-25 124c0 1.33301 -0.5 2.33301 -1.5 3s-2.16699 1 -3.5 1h-181c-1.33301 0 -2.5 -0.333008 -3.5 -1s-1.5 -1.66699 -1.5 -3l-25 -124c-0.666992 -6 -4.33398 -9 -11.001 -9h-51c-3.33301 0 -5.83301 1 -7.5 3s-2.16699 4.66699 -1.5 8l150 680
c1.33301 6 5 9 11 9h60c6.66699 0 10.334 -3 11.001 -9l152 -680v-2c0 -6 -3 -9 -9 -9h-52c-6 0 -9.66699 3 -11 9zM125 195h158.002c2 0 3 1.33301 3 4l-80 393c-0.666992 2 -1.33398 3 -2.00098 3s-1.33398 -1 -2.00098 -3l-80 -393c0 -2.66699 1 -4 3 -4zM94.502 775.5
c-1 2.33301 -0.5 5.16699 1.5 8.5l65 103c3.33301 4.66699 7.33301 7 12 7h60c4.66699 0 8.66699 -2.33301 12 -7l67 -103c1.33301 -2.66699 2 -4.66699 2 -6c0 -4 -2.66699 -6 -8 -6h-44c-4.66699 0 -8.66699 2.33301 -12 7l-43 73c-0.666992 1.33301 -1.66699 2 -3 2
s-2.33301 -0.666992 -3 -2l-44 -73c-3.33301 -4.66699 -7.33301 -7 -12 -7h-43c-4 0 -6.5 1.16699 -7.5 3.5z" />
    <glyph glyph-name="Atilde" unicode="&#xc3;" horiz-adv-x="410" 
d="M325 9l-25 124c0 1.33301 -0.5 2.33301 -1.5 3s-2.16699 1 -3.5 1h-181c-1.33301 0 -2.5 -0.333008 -3.5 -1s-1.5 -1.66699 -1.5 -3l-25 -124c-0.666992 -6 -4.33398 -9 -11.001 -9h-51c-3.33301 0 -5.83301 1 -7.5 3s-2.16699 4.66699 -1.5 8l150 680
c1.33301 6 5 9 11 9h60c6.66699 0 10.334 -3 11.001 -9l152 -680v-2c0 -6 -3 -9 -9 -9h-52c-6 0 -9.66699 3 -11 9zM125 195h158.002c2 0 3 1.33301 3 4l-80 393c-0.666992 2 -1.33398 3 -2.00098 3s-1.33398 -1 -2.00098 -3l-80 -393c0 -2.66699 1 -4 3 -4zM242.002 807.5
c-7.33301 3.66699 -17.0068 9.16602 -29.0068 16.499c-2.66699 2 -7 5 -13 9s-11.333 6.83301 -16 8.5s-9.66699 2.5 -15 2.5c-9.33301 0 -17.5 -1.83301 -24.5 -5.5s-13.833 -10.5 -20.5 -20.5c-4 -6 -8.66699 -7 -14 -3l-18 13c-5.33301 4 -6.66602 8.66699 -3.99902 14
c18 34.667 43.333 52 76 52c10.667 0 20.334 -2 29.001 -6s18.334 -9.66699 29.001 -17c1.33301 -1.33301 5 -4 11 -8s11.833 -7.16699 17.5 -9.5s11.167 -3.5 16.5 -3.5c8.66699 0 16.334 2 23.001 6s13.334 11.333 20.001 22c1.33301 2.66699 3.33301 4.33398 6 5.00098
s5.33398 0.333984 8.00098 -0.999023l18 -12c2.66699 -2 4 -4.66699 4 -8s-1.33301 -7.33301 -4 -12c-9.33301 -16.667 -21 -28.834 -35 -36.501s-27.333 -11.5 -40 -11.5c-9.33301 0 -17.666 1.83301 -24.999 5.5z" />
    <glyph glyph-name="Adieresis" unicode="&#xc4;" horiz-adv-x="410" 
d="M325 9l-25 124c0 1.33301 -0.5 2.33301 -1.5 3s-2.16699 1 -3.5 1h-181c-1.33301 0 -2.5 -0.333008 -3.5 -1s-1.5 -1.66699 -1.5 -3l-25 -124c-0.666992 -6 -4.33398 -9 -11.001 -9h-51c-3.33301 0 -5.83301 1 -7.5 3s-2.16699 4.66699 -1.5 8l150 680
c1.33301 6 5 9 11 9h60c6.66699 0 10.334 -3 11.001 -9l152 -680v-2c0 -6 -3 -9 -9 -9h-52c-6 0 -9.66699 3 -11 9zM125 195h158.002c2 0 3 1.33301 3 4l-80 393c-0.666992 2 -1.33398 3 -2.00098 3s-1.33398 -1 -2.00098 -3l-80 -393c0 -2.66699 1 -4 3 -4zM238.502 808
c-10.333 10.667 -15.5 24 -15.5 40c0 16.667 5.16699 30.167 15.5 40.5s23.833 15.5 40.5 15.5c16 0 29.333 -5.16699 40 -15.5s16 -23.833 16 -40.5c0 -16 -5.33301 -29.333 -16 -40s-24 -16 -40 -16c-16.667 0 -30.167 5.33301 -40.5 16zM89.502 808
c-10.333 10.667 -15.5 24 -15.5 40c0 16.667 5.16699 30.167 15.5 40.5s23.833 15.5 40.5 15.5c16 0 29.333 -5.16699 40 -15.5s16 -23.833 16 -40.5c0 -16 -5.33301 -29.333 -16 -40s-24 -16 -40 -16c-16.667 0 -30.167 5.33301 -40.5 16z" />
    <glyph glyph-name="Aring" unicode="&#xc5;" horiz-adv-x="410" 
d="M325 9l-25 124c0 1.33301 -0.5 2.33301 -1.5 3s-2.16699 1 -3.5 1h-181c-1.33301 0 -2.5 -0.333008 -3.5 -1s-1.5 -1.66699 -1.5 -3l-25 -124c-0.666992 -6 -4.33398 -9 -11.001 -9h-51c-3.33301 0 -5.83301 1 -7.5 3s-2.16699 4.66699 -1.5 8l150 680
c1.33301 6 5 9 11 9h60c6.66699 0 10.334 -3 11.001 -9l152 -680v-2c0 -6 -3 -9 -9 -9h-52c-6 0 -9.66699 3 -11 9zM125 195h158.002c2 0 3 1.33301 3 4l-80 393c-0.666992 2 -1.33398 3 -2.00098 3s-1.33398 -1 -2.00098 -3l-80 -393c0 -2.66699 1 -4 3 -4zM130.002 804
c-20.667 20.667 -31 46.334 -31 77.001c0 30 10.333 55.5 31 76.5s45.667 31.5 75 31.5c30 0 55.167 -10.5 75.5 -31.5s30.5 -46.5 30.5 -76.5c0 -30.667 -10.167 -56.334 -30.5 -77.001s-45.5 -31 -75.5 -31c-29.333 0 -54.333 10.333 -75 31zM249.502 834.5
c12.333 12.333 18.5 27.833 18.5 46.5s-6.16699 34.334 -18.5 47.001s-27.166 19 -44.499 19s-32.166 -6.33301 -44.499 -19s-18.5 -28.334 -18.5 -47.001s6.16699 -34.167 18.5 -46.5s27.166 -18.5 44.499 -18.5s32.166 6.16699 44.499 18.5z" />
    <glyph glyph-name="AE" unicode="&#xc6;" horiz-adv-x="699" 
d="M649 638l-232 0.000976562c-2.66699 0 -4 -1.33301 -4 -4v-248c0 -2.66699 1.33301 -4 4 -4h146c6.66699 0 10 -3.33301 10 -10v-43c0 -6.66699 -3.33301 -10 -10 -10h-146c-2.66699 0 -4 -1.33301 -4 -4v-249c0 -2.66699 1.33301 -4 4 -4h232
c6.66699 0 10 -3.33301 10 -10v-42c0 -6.66699 -3.33301 -10 -10 -10h-298c-6.66699 0 -10 3.33301 -10 10v123c0 2.66699 -1.33301 4 -4 4h-191c-1.33301 0 -2.66602 -1 -3.99902 -3l-54 -126c-2 -5.33301 -5.66699 -8 -11 -8h-53c-3.33301 0 -5.83301 1.16699 -7.5 3.5
s-1.83398 5.16602 -0.500977 8.49902l297 680c2 5.33301 5.66699 8 11 8h325c6.66699 0 10 -3.33301 10 -10v-42c0 -6.66699 -3.33301 -10 -10 -10zM170 196.501c0.666992 -1 1.66699 -1.5 3 -1.5h164c2.66699 0 4 1.33301 4 4l1 392c0 2 -0.666992 3 -2 3
s-2.33301 -0.666992 -3 -2l-167 -392c-0.666992 -1.33301 -0.666992 -2.5 0 -3.5z" />
    <glyph glyph-name="Ccedilla" unicode="&#xc7;" horiz-adv-x="446" 
d="M386 509l-51.9961 -3c-6.66699 0 -10 3.33301 -10 10v25c0 31.333 -9 56.666 -27 75.999s-42 29 -72 29c-29.333 0 -53.166 -9.66699 -71.499 -29s-27.5 -44.666 -27.5 -75.999v-382c0 -31.333 9.16699 -56.666 27.5 -75.999s42.166 -29 71.499 -29
c30 0 54 9.66699 72 29s27 44.666 27 75.999v25c0 6.66699 3.33301 10 10 10l52 -3c6.66699 0 10 -3.33301 10 -10v-16c0 -46.667 -12.5 -85.167 -37.5 -115.5s-58.833 -48.5 -101.5 -54.5c-3.33301 -1.33301 -4 -3 -2 -5c27.333 -29.333 41 -60 41 -92
c0 -29.333 -7.83301 -50.333 -23.5 -63s-34.834 -19 -57.501 -19c-10.667 0 -20.334 1 -29.001 3c-6 1.33301 -8.66699 5 -8 11l3 22c1.33301 5.33301 4.66602 8 9.99902 8c0.666992 -0.666992 2 -1 4 -1c12.667 -1.33301 23.5 0.666992 32.5 6s14.5 15 16.5 29
c0.666992 2.66699 1 6.66699 1 12c0 28 -14.667 56.667 -44 86c-1.33301 1.33301 -3 2 -5 2c-42.667 5.33301 -76.834 23.333 -102.501 54s-38.5 69.667 -38.5 117v371c0 52 15.5 93.667 46.5 125s72.167 47 123.5 47c52 0 93.5 -15.5 124.5 -46.5s46.5 -72.833 46.5 -125.5
v-17c0 -6.66699 -3.33301 -10 -10 -10z" />
    <glyph glyph-name="Egrave" unicode="&#xc8;" horiz-adv-x="429" 
d="M379 638h-232c-2.66699 0 -4 -1.33301 -4 -4v-248c0 -2.66699 1.33301 -4 4 -4h146c6.66699 0 10 -3.33301 10 -10v-43c0 -6.66699 -3.33301 -10 -10 -10h-146c-2.66699 0 -4 -1.33301 -4 -4v-249c0 -2.66699 1.33301 -4 4 -4h232c6.66699 0 10 -3.33301 10 -10v-42
c0 -6.66699 -3.33301 -10 -10 -10h-297c-6.66699 -0 -10 3.33301 -10 10v680c0 6.66699 3.33301 10 10 10h297c6.66699 0 10 -3.33301 10 -10v-42c0 -6.66699 -3.33301 -10 -10 -10zM254 772c0 -4 -3 -6 -9 -6h-32c-4.66699 0 -8.66699 2.33301 -12 7l-70 109
c-1.33301 2.66699 -2 4.66699 -2 6c0 4 2.66699 6 8 6h42c4.66699 0 8.66699 -2.33301 12 -7l61 -109c1.33301 -2.66699 2 -4.66699 2 -6z" />
    <glyph glyph-name="Eacute" unicode="&#xc9;" horiz-adv-x="429" 
d="M379 638h-232c-2.66699 0 -4 -1.33301 -4 -4v-248c0 -2.66699 1.33301 -4 4 -4h146c6.66699 0 10 -3.33301 10 -10v-43c0 -6.66699 -3.33301 -10 -10 -10h-146c-2.66699 0 -4 -1.33301 -4 -4v-249c0 -2.66699 1.33301 -4 4 -4h232c6.66699 0 10 -3.33301 10 -10v-42
c0 -6.66699 -3.33301 -10 -10 -10h-297c-6.66699 -0 -10 3.33301 -10 10v680c0 6.66699 3.33301 10 10 10h297c6.66699 0 10 -3.33301 10 -10v-42c0 -6.66699 -3.33301 -10 -10 -10zM188 769.5c-1.33301 2.33301 -1 5.16602 1 8.49902l62 109
c3.33301 4.66699 7.33301 7 12 7h41c4 0 6.5 -1.16699 7.5 -3.5s0.5 -5.16602 -1.5 -8.49902l-70 -109c-3.33301 -4.66699 -7.33301 -7 -12 -7h-32c-4 0 -6.66699 1.16699 -8 3.5z" />
    <glyph glyph-name="Ecircumflex" unicode="&#xca;" horiz-adv-x="429" 
d="M379 638h-232c-2.66699 0 -4 -1.33301 -4 -4v-248c0 -2.66699 1.33301 -4 4 -4h146c6.66699 0 10 -3.33301 10 -10v-43c0 -6.66699 -3.33301 -10 -10 -10h-146c-2.66699 0 -4 -1.33301 -4 -4v-249c0 -2.66699 1.33301 -4 4 -4h232c6.66699 0 10 -3.33301 10 -10v-42
c0 -6.66699 -3.33301 -10 -10 -10h-297c-6.66699 -0 -10 3.33301 -10 10v680c0 6.66699 3.33301 10 10 10h297c6.66699 0 10 -3.33301 10 -10v-42c0 -6.66699 -3.33301 -10 -10 -10zM120.5 775.5c-1 2.33301 -0.5 5.16699 1.5 8.5l65 103c3.33301 4.66699 7.33301 7 12 7h60
c4.66699 0 8.66699 -2.33301 12 -7l67 -103c1.33301 -2.66699 2 -4.66699 2 -6c0 -4 -2.66699 -6 -8 -6h-44c-4.66699 0 -8.66699 2.33301 -12 7l-43 73c-0.666992 1.33301 -1.66699 2 -3 2s-2.33301 -0.666992 -3 -2l-44 -73c-3.33301 -4.66699 -7.33301 -7 -12 -7h-43
c-4 0 -6.5 1.16699 -7.5 3.5z" />
    <glyph glyph-name="Edieresis" unicode="&#xcb;" horiz-adv-x="429" 
d="M379 638h-232c-2.66699 0 -4 -1.33301 -4 -4v-248c0 -2.66699 1.33301 -4 4 -4h146c6.66699 0 10 -3.33301 10 -10v-43c0 -6.66699 -3.33301 -10 -10 -10h-146c-2.66699 0 -4 -1.33301 -4 -4v-249c0 -2.66699 1.33301 -4 4 -4h232c6.66699 0 10 -3.33301 10 -10v-42
c0 -6.66699 -3.33301 -10 -10 -10h-297c-6.66699 -0 -10 3.33301 -10 10v680c0 6.66699 3.33301 10 10 10h297c6.66699 0 10 -3.33301 10 -10v-42c0 -6.66699 -3.33301 -10 -10 -10zM264.5 808c-10.333 10.667 -15.5 24 -15.5 40c0 16.667 5.16699 30.167 15.5 40.5
s23.833 15.5 40.5 15.5c16 0 29.333 -5.16699 40 -15.5s16 -23.833 16 -40.5c0 -16 -5.33301 -29.333 -16 -40s-24 -16 -40 -16c-16.667 0 -30.167 5.33301 -40.5 16zM115.5 808c-10.333 10.667 -15.5 24 -15.5 40c0 16.667 5.16699 30.167 15.5 40.5s23.833 15.5 40.5 15.5
c16 0 29.333 -5.16699 40 -15.5s16 -23.833 16 -40.5c0 -16 -5.33301 -29.333 -16 -40s-24 -16 -40 -16c-16.667 0 -30.167 5.33301 -40.5 16z" />
    <glyph glyph-name="Igrave" unicode="&#xcc;" horiz-adv-x="215" 
d="M72 10v680c0 6.66699 3.33301 10 10 10h51c6.66699 0 10 -3.33301 10 -10v-680c0 -6.66699 -3.33301 -10 -10 -10h-51c-6.66699 -0 -10 3.33301 -10 10zM131 772c0 -4 -3 -6 -9 -6h-32c-4.66699 0 -8.66699 2.33301 -12 7l-70 109c-1.33301 2.66699 -2 4.66699 -2 6
c0 4 2.66699 6 8 6h42c4.66699 0 8.66699 -2.33301 12 -7l61 -109c1.33301 -2.66699 2 -4.66699 2 -6z" />
    <glyph glyph-name="Iacute" unicode="&#xcd;" horiz-adv-x="215" 
d="M72 10v680c0 6.66699 3.33301 10 10 10h51c6.66699 0 10 -3.33301 10 -10v-680c0 -6.66699 -3.33301 -10 -10 -10h-51c-6.66699 -0 -10 3.33301 -10 10zM65 769.5c-1.33301 2.33301 -1 5.16602 1 8.49902l62 109c3.33301 4.66699 7.33301 7 12 7h41
c4 0 6.5 -1.16699 7.5 -3.5s0.5 -5.16602 -1.5 -8.49902l-70 -109c-3.33301 -4.66699 -7.33301 -7 -12 -7h-32c-4 0 -6.66699 1.16699 -8 3.5z" />
    <glyph glyph-name="Icircumflex" unicode="&#xce;" horiz-adv-x="215" 
d="M72 10v680c0 6.66699 3.33301 10 10 10h51c6.66699 0 10 -3.33301 10 -10v-680c0 -6.66699 -3.33301 -10 -10 -10h-51c-6.66699 -0 -10 3.33301 -10 10zM-2.5 775.5c-1 2.33301 -0.5 5.16699 1.5 8.5l65 103c3.33301 4.66699 7.33301 7 12 7h60
c4.66699 0 8.66699 -2.33301 12 -7l67 -103c1.33301 -2.66699 2 -4.66699 2 -6c0 -4 -2.66699 -6 -8 -6h-44c-4.66699 0 -8.66699 2.33301 -12 7l-43 73c-0.666992 1.33301 -1.66699 2 -3 2s-2.33301 -0.666992 -3 -2l-44 -73c-3.33301 -4.66699 -7.33301 -7 -12 -7h-43
c-4 0 -6.5 1.16699 -7.5 3.5z" />
    <glyph glyph-name="Idieresis" unicode="&#xcf;" horiz-adv-x="215" 
d="M72 10v680c0 6.66699 3.33301 10 10 10h51c6.66699 0 10 -3.33301 10 -10v-680c0 -6.66699 -3.33301 -10 -10 -10h-51c-6.66699 -0 -10 3.33301 -10 10zM141.5 808c-10.333 10.667 -15.5 24 -15.5 40c0 16.667 5.16699 30.167 15.5 40.5s23.833 15.5 40.5 15.5
c16 0 29.333 -5.16699 40 -15.5s16 -23.833 16 -40.5c0 -16 -5.33301 -29.333 -16 -40s-24 -16 -40 -16c-16.667 0 -30.167 5.33301 -40.5 16zM-7.5 808c-10.333 10.667 -15.5 24 -15.5 40c0 16.667 5.16699 30.167 15.5 40.5s23.833 15.5 40.5 15.5
c16 0 29.333 -5.16699 40 -15.5s16 -23.833 16 -40.5c0 -16 -5.33301 -29.333 -16 -40s-24 -16 -40 -16c-16.667 0 -30.167 5.33301 -40.5 16z" />
    <glyph glyph-name="Eth" unicode="&#xd0;" horiz-adv-x="509" 
d="M402 649.5c30.667 -33.667 46 -78.832 46 -135.499v-328c0 -56.667 -15.333 -101.834 -46 -135.501s-71.667 -50.5 -123 -50.5h-154c-6.66699 -0 -10 3.33301 -10 10v329c0 2.66699 -1.33301 4 -4 4h-29c-6.66699 0 -10 3.33301 -10 10v26c0 6.66699 3.33301 10 10 10h29
c2.66699 0 4 1.33301 4 4v297c0 6.66699 3.33301 10 10 10h154c51.333 0 92.333 -16.833 123 -50.5zM376 511.002c0 39.333 -8.66602 70.332 -25.999 92.999s-41.333 34 -72 34h-88c-2.66699 0 -4 -1.33301 -4 -4v-241c0 -2.66699 1.33301 -4 4 -4h75
c6.66699 0 10 -3.33301 10 -10v-26c0 -6.66699 -3.33301 -10 -10 -10h-75c-2.66699 0 -4 -1.33301 -4 -4v-273c0 -2.66699 1.33301 -4 4 -4l89 1c29.333 0 52.666 11.333 69.999 34s26.333 53.334 27 92.001v322z" />
    <glyph glyph-name="Ntilde" unicode="&#xd1;" horiz-adv-x="493" 
d="M362 700h50c6.66699 0 10 -3.33301 10 -10v-680c0 -6.66699 -3.33301 -10 -10 -10h-59c-5.33301 0 -9 2.66699 -11 8l-195 517c-0.666992 2 -1.66699 2.83301 -3 2.5s-2 -1.5 -2 -3.5l1 -514c0 -6.66699 -3.33301 -10 -10 -10h-51c-6.66699 -0 -10 3.33301 -10 10v680
c0 6.66699 3.33301 10 10 10h58c5.33301 0 9 -2.66699 11 -8l196 -518c0.666992 -2 1.66699 -2.83301 3 -2.5s2 1.5 2 3.5v515c0 6.66699 3.33301 10 10 10zM284 814.5c-7.33301 3.66699 -17.0068 9.16602 -29.0068 16.499c-2.66699 2 -7 5 -13 9s-11.333 6.83301 -16 8.5
s-9.66699 2.5 -15 2.5c-9.33301 0 -17.5 -1.83301 -24.5 -5.5s-13.833 -10.5 -20.5 -20.5c-4 -6 -8.66699 -7 -14 -3l-18 13c-5.33301 4 -6.66602 8.66699 -3.99902 14c18 34.667 43.333 52 76 52c10.667 0 20.334 -2 29.001 -6s18.334 -9.66699 29.001 -17
c1.33301 -1.33301 5 -4 11 -8s11.833 -7.16699 17.5 -9.5s11.167 -3.5 16.5 -3.5c8.66699 0 16.334 2 23.001 6s13.334 11.333 20.001 22c1.33301 2.66699 3.33301 4.33398 6 5.00098s5.33398 0.333984 8.00098 -0.999023l18 -12c2.66699 -2 4 -4.66699 4 -8
s-1.33301 -7.33301 -4 -12c-9.33301 -16.667 -21 -28.834 -35 -36.501s-27.333 -11.5 -40 -11.5c-9.33301 0 -17.666 1.83301 -24.999 5.5z" />
    <glyph glyph-name="Ograve" unicode="&#xd2;" horiz-adv-x="456" 
d="M102.5 40c-31.667 32 -47.5 74.333 -47.5 127v366c0 52.667 15.833 95 47.5 127s73.167 48 124.5 48c52 0 94 -16 126 -48s48 -74.333 48 -127v-366c0 -52 -16 -94.167 -48 -126.5s-74 -48.5 -126 -48.5c-51.333 0 -92.833 16 -124.5 48zM301.5 84.5
c19 20.333 28.5 46.5 28.5 78.5v373c0 32.667 -9.5 59.167 -28.5 79.5s-43.833 30.5 -74.5 30.5c-30 0 -54.333 -10.167 -73 -30.5s-28 -46.833 -28 -79.5v-373c0 -32 9.33301 -58.167 28 -78.5s43 -30.5 73 -30.5c30.667 0 55.5 10.167 74.5 30.5zM250 771
c0 -4 -3 -6 -9 -6h-32c-4.66699 0 -8.66699 2.33301 -12 7l-70 109c-1.33301 2.66699 -2 4.66699 -2 6c0 4 2.66699 6 8 6h42c4.66699 0 8.66699 -2.33301 12 -7l61 -109c1.33301 -2.66699 2 -4.66699 2 -6z" />
    <glyph glyph-name="Oacute" unicode="&#xd3;" horiz-adv-x="456" 
d="M102.5 40c-31.667 32 -47.5 74.333 -47.5 127v366c0 52.667 15.833 95 47.5 127s73.167 48 124.5 48c52 0 94 -16 126 -48s48 -74.333 48 -127v-366c0 -52 -16 -94.167 -48 -126.5s-74 -48.5 -126 -48.5c-51.333 0 -92.833 16 -124.5 48zM301.5 84.5
c19 20.333 28.5 46.5 28.5 78.5v373c0 32.667 -9.5 59.167 -28.5 79.5s-43.833 30.5 -74.5 30.5c-30 0 -54.333 -10.167 -73 -30.5s-28 -46.833 -28 -79.5v-373c0 -32 9.33301 -58.167 28 -78.5s43 -30.5 73 -30.5c30.667 0 55.5 10.167 74.5 30.5zM185 768.5
c-1.33301 2.33301 -1 5.16602 1 8.49902l62 109c3.33301 4.66699 7.33301 7 12 7h41c4 0 6.5 -1.16699 7.5 -3.5s0.5 -5.16602 -1.5 -8.49902l-70 -109c-3.33301 -4.66699 -7.33301 -7 -12 -7h-32c-4 0 -6.66699 1.16699 -8 3.5z" />
    <glyph glyph-name="Ocircumflex" unicode="&#xd4;" horiz-adv-x="456" 
d="M102.5 40c-31.667 32 -47.5 74.333 -47.5 127v366c0 52.667 15.833 95 47.5 127s73.167 48 124.5 48c52 0 94 -16 126 -48s48 -74.333 48 -127v-366c0 -52 -16 -94.167 -48 -126.5s-74 -48.5 -126 -48.5c-51.333 0 -92.833 16 -124.5 48zM301.5 84.5
c19 20.333 28.5 46.5 28.5 78.5v373c0 32.667 -9.5 59.167 -28.5 79.5s-43.833 30.5 -74.5 30.5c-30 0 -54.333 -10.167 -73 -30.5s-28 -46.833 -28 -79.5v-373c0 -32 9.33301 -58.167 28 -78.5s43 -30.5 73 -30.5c30.667 0 55.5 10.167 74.5 30.5zM117.5 774.5
c-1 2.33301 -0.5 5.16699 1.5 8.5l65 103c3.33301 4.66699 7.33301 7 12 7h60c4.66699 0 8.66699 -2.33301 12 -7l67 -103c1.33301 -2.66699 2 -4.66699 2 -6c0 -4 -2.66699 -6 -8 -6h-44c-4.66699 0 -8.66699 2.33301 -12 7l-43 73c-0.666992 1.33301 -1.66699 2 -3 2
s-2.33301 -0.666992 -3 -2l-44 -73c-3.33301 -4.66699 -7.33301 -7 -12 -7h-43c-4 0 -6.5 1.16699 -7.5 3.5z" />
    <glyph glyph-name="Otilde" unicode="&#xd5;" horiz-adv-x="456" 
d="M102.5 40c-31.667 32 -47.5 74.333 -47.5 127v366c0 52.667 15.833 95 47.5 127s73.167 48 124.5 48c52 0 94 -16 126 -48s48 -74.333 48 -127v-366c0 -52 -16 -94.167 -48 -126.5s-74 -48.5 -126 -48.5c-51.333 0 -92.833 16 -124.5 48zM301.5 84.5
c19 20.333 28.5 46.5 28.5 78.5v373c0 32.667 -9.5 59.167 -28.5 79.5s-43.833 30.5 -74.5 30.5c-30 0 -54.333 -10.167 -73 -30.5s-28 -46.833 -28 -79.5v-373c0 -32 9.33301 -58.167 28 -78.5s43 -30.5 73 -30.5c30.667 0 55.5 10.167 74.5 30.5zM265 806.5
c-7.33301 3.66699 -17.0068 9.16602 -29.0068 16.499c-2.66699 2 -7 5 -13 9s-11.333 6.83301 -16 8.5s-9.66699 2.5 -15 2.5c-9.33301 0 -17.5 -1.83301 -24.5 -5.5s-13.833 -10.5 -20.5 -20.5c-4 -6 -8.66699 -7 -14 -3l-18 13c-5.33301 4 -6.66602 8.66699 -3.99902 14
c18 34.667 43.333 52 76 52c10.667 0 20.334 -2 29.001 -6s18.334 -9.66699 29.001 -17c1.33301 -1.33301 5 -4 11 -8s11.833 -7.16699 17.5 -9.5s11.167 -3.5 16.5 -3.5c8.66699 0 16.334 2 23.001 6s13.334 11.333 20.001 22c1.33301 2.66699 3.33301 4.33398 6 5.00098
s5.33398 0.333984 8.00098 -0.999023l18 -12c2.66699 -2 4 -4.66699 4 -8s-1.33301 -7.33301 -4 -12c-9.33301 -16.667 -21 -28.834 -35 -36.501s-27.333 -11.5 -40 -11.5c-9.33301 0 -17.666 1.83301 -24.999 5.5z" />
    <glyph glyph-name="Odieresis" unicode="&#xd6;" horiz-adv-x="456" 
d="M102.5 40c-31.667 32 -47.5 74.333 -47.5 127v366c0 52.667 15.833 95 47.5 127s73.167 48 124.5 48c52 0 94 -16 126 -48s48 -74.333 48 -127v-366c0 -52 -16 -94.167 -48 -126.5s-74 -48.5 -126 -48.5c-51.333 0 -92.833 16 -124.5 48zM301.5 84.5
c19 20.333 28.5 46.5 28.5 78.5v373c0 32.667 -9.5 59.167 -28.5 79.5s-43.833 30.5 -74.5 30.5c-30 0 -54.333 -10.167 -73 -30.5s-28 -46.833 -28 -79.5v-373c0 -32 9.33301 -58.167 28 -78.5s43 -30.5 73 -30.5c30.667 0 55.5 10.167 74.5 30.5zM261.5 807
c-10.333 10.667 -15.5 24 -15.5 40c0 16.667 5.16699 30.167 15.5 40.5s23.833 15.5 40.5 15.5c16 0 29.333 -5.16699 40 -15.5s16 -23.833 16 -40.5c0 -16 -5.33301 -29.333 -16 -40s-24 -16 -40 -16c-16.667 0 -30.167 5.33301 -40.5 16zM112.5 807
c-10.333 10.667 -15.5 24 -15.5 40c0 16.667 5.16699 30.167 15.5 40.5s23.833 15.5 40.5 15.5c16 0 29.333 -5.16699 40 -15.5s16 -23.833 16 -40.5c0 -16 -5.33301 -29.333 -16 -40s-24 -16 -40 -16c-16.667 0 -30.167 5.33301 -40.5 16z" />
    <glyph glyph-name="multiply" unicode="&#xd7;" horiz-adv-x="370" 
d="M334 425c0 -2.66699 -1 -5 -3 -7l-104 -104c-2 -2 -2 -4 0 -6l104 -104c2 -2 3 -4.33301 3 -7s-1 -5 -3 -7l-25 -25c-2 -2 -4.33301 -3 -7 -3s-5 1 -7 3l-104 104c-2 2 -4 2 -6 0l-104 -104c-2 -2 -4.33301 -3 -7 -3s-5 1 -7 3l-25 25c-2 2 -3 4.33301 -3 7s1 5 3 7
l104 104c2 2 2 4 0 6l-104 104c-2 2 -3 4.33301 -3 7s1 5 3 7l25 25c2 2 4.33301 3 7 3s5 -1 7 -3l104 -104c2 -2 4 -2 6 0l104 104c2 2 4.33301 3 7 3s5 -1 7 -3l25 -25c2 -2 3 -4.33301 3 -7z" />
    <glyph glyph-name="Oslash" unicode="&#xd8;" horiz-adv-x="524" 
d="M406 701l-28.998 -66.998c-1.33301 -2 -1 -4 1 -6c16 -26 24 -57.667 24 -95v-366c0 -52 -16 -94.167 -48 -126.5s-74 -48.5 -126 -48.5c-40.667 0 -75.334 10.333 -104.001 31c-2.66699 2 -4.66699 1.66699 -6 -1l-21 -50c-2 -6.66699 -6.33301 -8.33398 -13 -5.00098
l-29 15c-5.33301 3.33301 -7 7.66602 -5 12.999l30 71c1.33301 2 1 4 -1 6c-15.333 26.667 -23 58.334 -23 95.001v366c0 52.667 15.833 95 47.5 127s73.167 48 124.5 48c42 0 77.333 -10.667 106 -32c2.66699 -2 4.66699 -1.66699 6 1l21 50
c1.33301 3.33301 3.16602 5.5 5.49902 6.5s4.83301 0.5 7.5 -1.5l28 -17c4.66699 -2.66699 6 -7.33398 4 -14.001zM127.002 189.002c0 -2 0.666992 -3 2 -3s2.33301 0.666992 3 2l177 416c0.666992 2 0.333984 3.66699 -0.999023 5c-20.667 24.667 -47.334 37 -80.001 37
c-30 0 -54.333 -10.167 -73 -30.5s-28 -46.833 -28 -79.5v-347zM331.002 512.002c0 2 -0.666016 3 -1.99902 3s-2.33301 -0.666992 -3 -2l-177 -417c-0.666992 -1.33301 -0.333984 -3.33301 0.999023 -6c18.667 -24 44.667 -36 78 -36c30.667 0 55.5 10.167 74.5 30.5
s28.5 46.5 28.5 78.5v349z" />
    <glyph glyph-name="Ugrave" unicode="&#xd9;" horiz-adv-x="476" 
d="M113 45c-31.333 35.333 -47.002 82 -47.002 140v505c0 6.66699 3.33301 10 10 10h51c6.66699 0 10 -3.33301 10 -10v-513c0 -36.667 9.16699 -66.334 27.5 -89.001s42.5 -34 72.5 -34c30.667 0 55.334 11.333 74.001 34s28 52.334 28 89.001v513
c0 6.66699 3.33301 10 10 10h51c6.66699 0 10 -3.33301 10 -10v-505c0 -58 -15.833 -104.667 -47.5 -140s-73.5 -53 -125.5 -53c-51.333 0 -92.666 17.667 -123.999 53zM260.998 772c0 -4 -3 -6 -9 -6h-32c-4.66699 0 -8.66699 2.33301 -12 7l-70 109
c-1.33301 2.66699 -2 4.66699 -2 6c0 4 2.66699 6 8 6h42c4.66699 0 8.66699 -2.33301 12 -7l61 -109c1.33301 -2.66699 2 -4.66699 2 -6z" />
    <glyph glyph-name="Uacute" unicode="&#xda;" horiz-adv-x="476" 
d="M113 45c-31.333 35.333 -47.002 82 -47.002 140v505c0 6.66699 3.33301 10 10 10h51c6.66699 0 10 -3.33301 10 -10v-513c0 -36.667 9.16699 -66.334 27.5 -89.001s42.5 -34 72.5 -34c30.667 0 55.334 11.333 74.001 34s28 52.334 28 89.001v513
c0 6.66699 3.33301 10 10 10h51c6.66699 0 10 -3.33301 10 -10v-505c0 -58 -15.833 -104.667 -47.5 -140s-73.5 -53 -125.5 -53c-51.333 0 -92.666 17.667 -123.999 53zM194.998 769.5c-1.33301 2.33301 -1 5.16602 1 8.49902l62 109c3.33301 4.66699 7.33301 7 12 7h41
c4 0 6.5 -1.16699 7.5 -3.5s0.5 -5.16602 -1.5 -8.49902l-70 -109c-3.33301 -4.66699 -7.33301 -7 -12 -7h-32c-4 0 -6.66699 1.16699 -8 3.5z" />
    <glyph glyph-name="Ucircumflex" unicode="&#xdb;" horiz-adv-x="476" 
d="M113 45c-31.333 35.333 -47.002 82 -47.002 140v505c0 6.66699 3.33301 10 10 10h51c6.66699 0 10 -3.33301 10 -10v-513c0 -36.667 9.16699 -66.334 27.5 -89.001s42.5 -34 72.5 -34c30.667 0 55.334 11.333 74.001 34s28 52.334 28 89.001v513
c0 6.66699 3.33301 10 10 10h51c6.66699 0 10 -3.33301 10 -10v-505c0 -58 -15.833 -104.667 -47.5 -140s-73.5 -53 -125.5 -53c-51.333 0 -92.666 17.667 -123.999 53zM127.498 775.5c-1 2.33301 -0.5 5.16699 1.5 8.5l65 103c3.33301 4.66699 7.33301 7 12 7h60
c4.66699 0 8.66699 -2.33301 12 -7l67 -103c1.33301 -2.66699 2 -4.66699 2 -6c0 -4 -2.66699 -6 -8 -6h-44c-4.66699 0 -8.66699 2.33301 -12 7l-43 73c-0.666992 1.33301 -1.66699 2 -3 2s-2.33301 -0.666992 -3 -2l-44 -73c-3.33301 -4.66699 -7.33301 -7 -12 -7h-43
c-4 0 -6.5 1.16699 -7.5 3.5z" />
    <glyph glyph-name="Udieresis" unicode="&#xdc;" horiz-adv-x="476" 
d="M113 45c-31.333 35.333 -47.002 82 -47.002 140v505c0 6.66699 3.33301 10 10 10h51c6.66699 0 10 -3.33301 10 -10v-513c0 -36.667 9.16699 -66.334 27.5 -89.001s42.5 -34 72.5 -34c30.667 0 55.334 11.333 74.001 34s28 52.334 28 89.001v513
c0 6.66699 3.33301 10 10 10h51c6.66699 0 10 -3.33301 10 -10v-505c0 -58 -15.833 -104.667 -47.5 -140s-73.5 -53 -125.5 -53c-51.333 0 -92.666 17.667 -123.999 53zM271.498 808c-10.333 10.667 -15.5 24 -15.5 40c0 16.667 5.16699 30.167 15.5 40.5
s23.833 15.5 40.5 15.5c16 0 29.333 -5.16699 40 -15.5s16 -23.833 16 -40.5c0 -16 -5.33301 -29.333 -16 -40s-24 -16 -40 -16c-16.667 0 -30.167 5.33301 -40.5 16zM122.498 808c-10.333 10.667 -15.5 24 -15.5 40c0 16.667 5.16699 30.167 15.5 40.5
s23.833 15.5 40.5 15.5c16 0 29.333 -5.16699 40 -15.5s16 -23.833 16 -40.5c0 -16 -5.33301 -29.333 -16 -40s-24 -16 -40 -16c-16.667 0 -30.167 5.33301 -40.5 16z" />
    <glyph glyph-name="Yacute" unicode="&#xdd;" 
d="M177 11l-0.000976562 298.999c0 2.66699 -0.333008 4.33398 -1 5.00098l-139 373l-1 4c0 5.33301 3 8 9 8h54c6 0 10 -2.66699 12 -8l98 -293c0.666992 -1.33301 1.66699 -2 3 -2s2.33301 0.666992 3 2l98 293c2 5.33301 6 8 12 8h54
c3.33301 0 5.83301 -1.16699 7.5 -3.5s1.83398 -5.16602 0.500977 -8.49902l-138 -373c-0.666992 -0.666992 -1 -2.33398 -1 -5.00098v-299c0 -6.66699 -3.33301 -10 -10 -10h-51c-6.66699 0 -10 3.33301 -10 10zM169.999 769.499c-1.33301 2.33301 -1 5.16602 1 8.49902
l62 109c3.33301 4.66699 7.33301 7 12 7h41c4 0 6.5 -1.16699 7.5 -3.5s0.5 -5.16602 -1.5 -8.49902l-70 -109c-3.33301 -4.66699 -7.33301 -7 -12 -7h-32c-4 0 -6.66699 1.16699 -8 3.5z" />
    <glyph glyph-name="Thorn" unicode="&#xde;" horiz-adv-x="442" 
d="M364 490.5c30 -35.667 45 -82.5 45 -140.5c0 -57.333 -14.667 -103.5 -44 -138.5s-68 -52.5 -116 -52.5h-103c-2.66699 0 -4 -1.33301 -4 -4v-145c0 -6.66699 -3.33301 -10 -10 -10h-51c-6.66699 -0 -10 3.33301 -10 10v680c0 6.66699 3.33301 10 10 10h51
c6.66699 0 10 -3.33301 10 -10v-142c0 -2.66699 1.33301 -4 4 -4h100c48.667 0 88 -17.833 118 -53.5zM310 252.5c18.667 23.667 28 55.5 28 95.5c0 40.667 -9.33301 73.167 -28 97.5s-43.334 36.5 -74.001 36.5h-90c-2.66699 0 -4 -1.33301 -4 -4v-257
c0 -2.66699 1.33301 -4 4 -4h90c30.667 0 55.334 11.833 74.001 35.5z" />
    <glyph glyph-name="germandbls" unicode="&#xdf;" horiz-adv-x="430" 
d="M61 10l-0.000976562 499.998c0 62.667 13.333 111.5 40 146.5s64 52.5 112 52.5c50 0 89.333 -17 118 -51s43 -80 43 -138c0 -36 -6.16699 -66.5 -18.5 -91.5s-29.166 -43.5 -50.499 -55.5c-3.33301 -1.33301 -3.33301 -3 0 -5c24 -13.333 42.667 -35.166 56 -65.499
s20 -66.5 20 -108.5c0 -60.667 -15.167 -108.167 -45.5 -142.5s-72.5 -51.5 -126.5 -51.5h-29c-6.66699 0 -10 3.33301 -10 10v41c0 6.66699 3.33301 10 10 10l30 1c32 0.666992 56.833 13 74.5 37s26.5 58 26.5 102s-7.66699 78 -23 102s-37 36.667 -65 38h-30
c-6.66699 0 -10 3.33301 -10 10v38c0 6.66699 3.33301 10 10 10h30c25.333 0 45.166 10.333 59.499 31s21.5 49.334 21.5 86.001c0 40.667 -8.16699 72.667 -24.5 96s-38.166 35 -65.499 35c-26 0 -46.167 -11.167 -60.5 -33.5s-21.5 -53.833 -21.5 -94.5v-509
c0 -6.66699 -3.33301 -10 -10 -10h-51c-6.66699 -0 -10 3.33301 -10 10z" />
    <glyph glyph-name="agrave" unicode="&#xe0;" horiz-adv-x="411" 
d="M321 468.5c28 -30.333 42 -70.8311 42 -121.498v-337c0 -6.66699 -3.33301 -10 -10 -10h-51c-6.66699 0 -10 3.33301 -10 10v30c0 1.33301 -0.5 2.16602 -1.5 2.49902s-2.16699 -0.166992 -3.5 -1.5c-24.667 -32.667 -61.667 -49 -111 -49
c-36.667 0 -68.5 10.5 -95.5 31.5s-40.5 58.167 -40.5 111.5c0 56.667 16.333 98.167 49 124.5s75.667 39.5 129 39.5h70c2.66699 0 4 1.33301 4 4v39c0 33.333 -7.66699 60 -23 80s-36 30 -62 30c-20 0 -37.167 -6.66699 -51.5 -20s-22.833 -30.333 -25.5 -51
c0 -6.66699 -3.33301 -10 -10 -10l-56 1c-3.33301 0 -5.83301 1 -7.5 3s-2.16699 4.33301 -1.5 7c3.33301 39.333 19.333 71.166 48 95.499s64 36.5 106 36.5c46.667 0 84 -15.167 112 -45.5zM262 80.502c20 17.667 30.001 42.166 30.001 73.499v84
c0 2.66699 -1.33301 4 -4 4h-71c-32 0 -57.333 -8.5 -76 -25.5s-28 -42.167 -28 -75.5c0 -29.333 7.16699 -51.166 21.5 -65.499s33.166 -21.5 56.499 -21.5c27.333 0 51 8.83301 71 26.5zM229.001 578.001c0 -4 -3 -6 -9 -6h-32c-4.66699 0 -8.66699 2.33301 -12 7l-70 109
c-1.33301 2.66699 -2 4.66699 -2 6c0 4 2.66699 6 8 6h42c4.66699 0 8.66699 -2.33301 12 -7l61 -109c1.33301 -2.66699 2 -4.66699 2 -6z" />
    <glyph glyph-name="aacute" unicode="&#xe1;" horiz-adv-x="411" 
d="M321 468.5c28 -30.333 42 -70.8311 42 -121.498v-337c0 -6.66699 -3.33301 -10 -10 -10h-51c-6.66699 0 -10 3.33301 -10 10v30c0 1.33301 -0.5 2.16602 -1.5 2.49902s-2.16699 -0.166992 -3.5 -1.5c-24.667 -32.667 -61.667 -49 -111 -49
c-36.667 0 -68.5 10.5 -95.5 31.5s-40.5 58.167 -40.5 111.5c0 56.667 16.333 98.167 49 124.5s75.667 39.5 129 39.5h70c2.66699 0 4 1.33301 4 4v39c0 33.333 -7.66699 60 -23 80s-36 30 -62 30c-20 0 -37.167 -6.66699 -51.5 -20s-22.833 -30.333 -25.5 -51
c0 -6.66699 -3.33301 -10 -10 -10l-56 1c-3.33301 0 -5.83301 1 -7.5 3s-2.16699 4.33301 -1.5 7c3.33301 39.333 19.333 71.166 48 95.499s64 36.5 106 36.5c46.667 0 84 -15.167 112 -45.5zM262 80.502c20 17.667 30.001 42.166 30.001 73.499v84
c0 2.66699 -1.33301 4 -4 4h-71c-32 0 -57.333 -8.5 -76 -25.5s-28 -42.167 -28 -75.5c0 -29.333 7.16699 -51.166 21.5 -65.499s33.166 -21.5 56.499 -21.5c27.333 0 51 8.83301 71 26.5zM163.001 575.501c-1.33301 2.33301 -1 5.16602 1 8.49902l62 109
c3.33301 4.66699 7.33301 7 12 7h41c4 0 6.5 -1.16699 7.5 -3.5s0.5 -5.16602 -1.5 -8.49902l-70 -109c-3.33301 -4.66699 -7.33301 -7 -12 -7h-32c-4 0 -6.66699 1.16699 -8 3.5z" />
    <glyph glyph-name="acircumflex" unicode="&#xe2;" horiz-adv-x="411" 
d="M321 468.5c28 -30.333 42 -70.8311 42 -121.498v-337c0 -6.66699 -3.33301 -10 -10 -10h-51c-6.66699 0 -10 3.33301 -10 10v30c0 1.33301 -0.5 2.16602 -1.5 2.49902s-2.16699 -0.166992 -3.5 -1.5c-24.667 -32.667 -61.667 -49 -111 -49
c-36.667 0 -68.5 10.5 -95.5 31.5s-40.5 58.167 -40.5 111.5c0 56.667 16.333 98.167 49 124.5s75.667 39.5 129 39.5h70c2.66699 0 4 1.33301 4 4v39c0 33.333 -7.66699 60 -23 80s-36 30 -62 30c-20 0 -37.167 -6.66699 -51.5 -20s-22.833 -30.333 -25.5 -51
c0 -6.66699 -3.33301 -10 -10 -10l-56 1c-3.33301 0 -5.83301 1 -7.5 3s-2.16699 4.33301 -1.5 7c3.33301 39.333 19.333 71.166 48 95.499s64 36.5 106 36.5c46.667 0 84 -15.167 112 -45.5zM262 80.502c20 17.667 30.001 42.166 30.001 73.499v84
c0 2.66699 -1.33301 4 -4 4h-71c-32 0 -57.333 -8.5 -76 -25.5s-28 -42.167 -28 -75.5c0 -29.333 7.16699 -51.166 21.5 -65.499s33.166 -21.5 56.499 -21.5c27.333 0 51 8.83301 71 26.5zM95.501 581.501c-1 2.33301 -0.5 5.16699 1.5 8.5l65 103
c3.33301 4.66699 7.33301 7 12 7h60c4.66699 0 8.66699 -2.33301 12 -7l67 -103c1.33301 -2.66699 2 -4.66699 2 -6c0 -4 -2.66699 -6 -8 -6h-44c-4.66699 0 -8.66699 2.33301 -12 7l-43 73c-0.666992 1.33301 -1.66699 2 -3 2s-2.33301 -0.666992 -3 -2l-44 -73
c-3.33301 -4.66699 -7.33301 -7 -12 -7h-43c-4 0 -6.5 1.16699 -7.5 3.5z" />
    <glyph glyph-name="atilde" unicode="&#xe3;" horiz-adv-x="411" 
d="M321 468.5c28 -30.333 42 -70.8311 42 -121.498v-337c0 -6.66699 -3.33301 -10 -10 -10h-51c-6.66699 0 -10 3.33301 -10 10v30c0 1.33301 -0.5 2.16602 -1.5 2.49902s-2.16699 -0.166992 -3.5 -1.5c-24.667 -32.667 -61.667 -49 -111 -49
c-36.667 0 -68.5 10.5 -95.5 31.5s-40.5 58.167 -40.5 111.5c0 56.667 16.333 98.167 49 124.5s75.667 39.5 129 39.5h70c2.66699 0 4 1.33301 4 4v39c0 33.333 -7.66699 60 -23 80s-36 30 -62 30c-20 0 -37.167 -6.66699 -51.5 -20s-22.833 -30.333 -25.5 -51
c0 -6.66699 -3.33301 -10 -10 -10l-56 1c-3.33301 0 -5.83301 1 -7.5 3s-2.16699 4.33301 -1.5 7c3.33301 39.333 19.333 71.166 48 95.499s64 36.5 106 36.5c46.667 0 84 -15.167 112 -45.5zM262 80.502c20 17.667 30.001 42.166 30.001 73.499v84
c0 2.66699 -1.33301 4 -4 4h-71c-32 0 -57.333 -8.5 -76 -25.5s-28 -42.167 -28 -75.5c0 -29.333 7.16699 -51.166 21.5 -65.499s33.166 -21.5 56.499 -21.5c27.333 0 51 8.83301 71 26.5zM243.001 613.501c-7.33301 3.66699 -17.0068 9.16602 -29.0068 16.499
c-2.66699 2 -7 5 -13 9s-11.333 6.83301 -16 8.5s-9.66699 2.5 -15 2.5c-9.33301 0 -17.5 -1.83301 -24.5 -5.5s-13.833 -10.5 -20.5 -20.5c-4 -6 -8.66699 -7 -14 -3l-18 13c-5.33301 4 -6.66602 8.66699 -3.99902 14c18 34.667 43.333 52 76 52
c10.667 0 20.334 -2 29.001 -6s18.334 -9.66699 29.001 -17c1.33301 -1.33301 5 -4 11 -8s11.833 -7.16699 17.5 -9.5s11.167 -3.5 16.5 -3.5c8.66699 0 16.334 2 23.001 6s13.334 11.333 20.001 22c1.33301 2.66699 3.33301 4.33398 6 5.00098
s5.33398 0.333984 8.00098 -0.999023l18 -12c2.66699 -2 4 -4.66699 4 -8s-1.33301 -7.33301 -4 -12c-9.33301 -16.667 -21 -28.834 -35 -36.501s-27.333 -11.5 -40 -11.5c-9.33301 0 -17.666 1.83301 -24.999 5.5z" />
    <glyph glyph-name="adieresis" unicode="&#xe4;" horiz-adv-x="411" 
d="M321 468.5c28 -30.333 42 -70.8311 42 -121.498v-337c0 -6.66699 -3.33301 -10 -10 -10h-51c-6.66699 0 -10 3.33301 -10 10v30c0 1.33301 -0.5 2.16602 -1.5 2.49902s-2.16699 -0.166992 -3.5 -1.5c-24.667 -32.667 -61.667 -49 -111 -49
c-36.667 0 -68.5 10.5 -95.5 31.5s-40.5 58.167 -40.5 111.5c0 56.667 16.333 98.167 49 124.5s75.667 39.5 129 39.5h70c2.66699 0 4 1.33301 4 4v39c0 33.333 -7.66699 60 -23 80s-36 30 -62 30c-20 0 -37.167 -6.66699 -51.5 -20s-22.833 -30.333 -25.5 -51
c0 -6.66699 -3.33301 -10 -10 -10l-56 1c-3.33301 0 -5.83301 1 -7.5 3s-2.16699 4.33301 -1.5 7c3.33301 39.333 19.333 71.166 48 95.499s64 36.5 106 36.5c46.667 0 84 -15.167 112 -45.5zM262 80.502c20 17.667 30.001 42.166 30.001 73.499v84
c0 2.66699 -1.33301 4 -4 4h-71c-32 0 -57.333 -8.5 -76 -25.5s-28 -42.167 -28 -75.5c0 -29.333 7.16699 -51.166 21.5 -65.499s33.166 -21.5 56.499 -21.5c27.333 0 51 8.83301 71 26.5zM240.501 614.001c-10.333 10.667 -15.5 24 -15.5 40
c0 16.667 5.16699 30.167 15.5 40.5s23.833 15.5 40.5 15.5c16 0 29.333 -5.16699 40 -15.5s16 -23.833 16 -40.5c0 -16 -5.33301 -29.333 -16 -40s-24 -16 -40 -16c-16.667 0 -30.167 5.33301 -40.5 16zM91.501 614.001c-10.333 10.667 -15.5 24 -15.5 40
c0 16.667 5.16699 30.167 15.5 40.5s23.833 15.5 40.5 15.5c16 0 29.333 -5.16699 40 -15.5s16 -23.833 16 -40.5c0 -16 -5.33301 -29.333 -16 -40s-24 -16 -40 -16c-16.667 0 -30.167 5.33301 -40.5 16z" />
    <glyph glyph-name="aring" unicode="&#xe5;" horiz-adv-x="411" 
d="M321 468.5c28 -30.333 42 -70.8311 42 -121.498v-337c0 -6.66699 -3.33301 -10 -10 -10h-51c-6.66699 0 -10 3.33301 -10 10v30c0 1.33301 -0.5 2.16602 -1.5 2.49902s-2.16699 -0.166992 -3.5 -1.5c-24.667 -32.667 -61.667 -49 -111 -49
c-36.667 0 -68.5 10.5 -95.5 31.5s-40.5 58.167 -40.5 111.5c0 56.667 16.333 98.167 49 124.5s75.667 39.5 129 39.5h70c2.66699 0 4 1.33301 4 4v39c0 33.333 -7.66699 60 -23 80s-36 30 -62 30c-20 0 -37.167 -6.66699 -51.5 -20s-22.833 -30.333 -25.5 -51
c0 -6.66699 -3.33301 -10 -10 -10l-56 1c-3.33301 0 -5.83301 1 -7.5 3s-2.16699 4.33301 -1.5 7c3.33301 39.333 19.333 71.166 48 95.499s64 36.5 106 36.5c46.667 0 84 -15.167 112 -45.5zM262 80.502c20 17.667 30.001 42.166 30.001 73.499v84
c0 2.66699 -1.33301 4 -4 4h-71c-32 0 -57.333 -8.5 -76 -25.5s-28 -42.167 -28 -75.5c0 -29.333 7.16699 -51.166 21.5 -65.499s33.166 -21.5 56.499 -21.5c27.333 0 51 8.83301 71 26.5zM131.001 610.001c-20.667 20.667 -31 46.334 -31 77.001c0 30 10.333 55.5 31 76.5
s45.667 31.5 75 31.5c30 0 55.167 -10.5 75.5 -31.5s30.5 -46.5 30.5 -76.5c0 -30.667 -10.167 -56.334 -30.5 -77.001s-45.5 -31 -75.5 -31c-29.333 0 -54.333 10.333 -75 31zM250.501 640.501c12.333 12.333 18.5 27.833 18.5 46.5s-6.16699 34.334 -18.5 47.001
s-27.166 19 -44.499 19s-32.166 -6.33301 -44.499 -19s-18.5 -28.334 -18.5 -47.001s6.16699 -34.167 18.5 -46.5s27.166 -18.5 44.499 -18.5s32.166 6.16699 44.499 18.5z" />
    <glyph glyph-name="ae" unicode="&#xe6;" horiz-adv-x="652" 
d="M79 22.5c-26 20.333 -38.9961 57.499 -38.9961 111.499c0 56 15 95.833 45 119.5s71.667 35.5 125 35.5h76c2.66699 0 4 1.33301 4 4v49c0 34 -7.33301 60.833 -22 80.5s-35.667 29.5 -63 29.5c-21.333 0 -40 -6.5 -56 -19.5s-25.333 -30.167 -28 -51.5
c-0.666992 -6.66699 -4.33398 -10 -11.001 -10l-51 3c-3.33301 0 -5.83301 1 -7.5 3s-2.16699 4.33301 -1.5 7c2.66699 39.333 18.667 70.833 48 94.5s64.666 35.5 105.999 35.5c53.333 0 92.666 -22.667 117.999 -68c2 -2.66699 4 -2.66699 6 0
c12 21.333 28.833 38 50.5 50s46.5 18 74.5 18c46 0 83.333 -14.167 112 -42.5s43 -65.166 43 -110.499v-122c0 -6.66699 -3.33301 -10 -10 -10h-229c-2.66699 0 -4 -1.33301 -4 -4v-76c0 -26 8 -47.667 24 -65s36.667 -26 62 -26c20.667 0 38.5 6.16699 53.5 18.5
s25.167 28.5 30.5 48.5c2 6 5.66699 8.66699 11 8l50 -5c7.33301 -1.33301 10.333 -5 9 -11c-6 -38.667 -22.167 -69.167 -48.5 -91.5s-59.833 -33.5 -100.5 -33.5c-32 0 -59.667 7.16699 -83 21.5s-39 32.166 -47 53.499c-0.666992 1.33301 -1.33398 2.33301 -2.00098 3
s-1.33398 0.333984 -2.00098 -0.999023c-8.66699 -23.333 -26.667 -42 -54 -56s-58.666 -21 -93.999 -21c-37.333 0 -69 10.167 -95 30.5zM369.004 288.999h164c2.66699 0 4 1.33301 4 4v63c0 28.667 -8 51.834 -24 69.501s-36.667 26.5 -62 26.5s-46 -8.83301 -62 -26.5
s-24 -40.834 -24 -69.501v-63c0 -2.66699 1.33301 -4 4 -4zM260.504 74.999c19.667 16.667 29.499 40 29.499 70v79c0 2.66699 -1.33301 4 -4 4h-70c-32 0 -57.333 -7.66699 -76 -23s-28 -38.333 -28 -69c0 -28.667 7.33301 -50.167 22 -64.5s33.667 -21.5 57 -21.5
c26.667 0 49.834 8.33301 69.501 25z" />
    <glyph glyph-name="ccedilla" unicode="&#xe7;" horiz-adv-x="402" 
d="M354 355l-51.001 -1.99805c-6.66699 0 -10 3.33301 -10 10v7c0 22 -8.16699 41.167 -24.5 57.5s-37.166 24.5 -62.499 24.5s-45.833 -8.83301 -61.5 -26.5s-23.5 -40.834 -23.5 -69.501v-206c0 -28.667 7.83301 -51.834 23.5 -69.501s36.167 -26.5 61.5 -26.5
s46.166 8.16699 62.499 24.5s24.5 35.5 24.5 57.5v7c0 6.66699 3.33301 10 10 10l51 -1c6.66699 0 10 -3.33301 10 -10v-11c0 -34.667 -11.5 -64.5 -34.5 -89.5s-53.5 -40.5 -91.5 -46.5c-3.33301 -1.33301 -4 -3 -2 -5c27.333 -28 41 -59 41 -93
c0 -29.333 -7.66699 -50.166 -23 -62.499s-34.333 -18.5 -57 -18.5c-10.667 0 -20.667 1 -30 3c-5.33301 0.666992 -7.66602 4.33398 -6.99902 11.001l3 22c1.33301 5.33301 4.66602 8 9.99902 8c0.666992 -0.666992 2 -1 4 -1c14.667 -2 26.667 0.666992 36 8
s14 20.333 14 39c0 25.333 -14.667 54 -44 86c-1.33301 1.33301 -3 2 -5 2c-39.333 4.66699 -70.5 20.667 -93.5 48s-34.5 61.666 -34.5 102.999v216c0 45.333 14.333 82.166 43 110.499s66.334 42.5 113.001 42.5c31.333 0 59 -6.33301 83 -19s42.5 -29.5 55.5 -50.5
s19.5 -44.167 19.5 -69.5v-10c0 -6.66699 -3.33301 -10 -10 -10z" />
    <glyph glyph-name="egrave" unicode="&#xe8;" horiz-adv-x="408" 
d="M353 226h-228c-2.66699 0 -4 -1.33301 -4 -4v-73c0 -28 7.83301 -50.833 23.5 -68.5s36.167 -26.5 61.5 -26.5c21.333 0 39.5 6.5 54.5 19.5s24.833 29.833 29.5 50.5c2 6 5.66699 9 11 9l50 -2c2.66699 0 5 -1 7 -3s2.66699 -4.66699 2 -8
c-5.33301 -39.333 -21.5 -70.5 -48.5 -93.5s-62.167 -34.5 -105.5 -34.5c-47.333 0 -85.166 14 -113.499 42s-42.5 65 -42.5 111v216c0 45.333 14.167 82.166 42.5 110.499s66.166 42.5 113.499 42.5c48 0 86.167 -14.167 114.5 -42.5s42.5 -65.166 42.5 -110.499v-125
c0 -6.66699 -3.33301 -10 -10 -10zM144.5 425.5c-15.667 -17.667 -23.5 -40.834 -23.5 -69.501v-67c0 -2.66699 1.33301 -4 4 -4h164c2.66699 0 4 1.33301 4 4v67c0 28.667 -8 51.834 -24 69.501s-37 26.5 -63 26.5c-25.333 0 -45.833 -8.83301 -61.5 -26.5zM227 578
c0 -4 -3 -6 -9 -6h-32c-4.66699 0 -8.66699 2.33301 -12 7l-70 109c-1.33301 2.66699 -2 4.66699 -2 6c0 4 2.66699 6 8 6h42c4.66699 0 8.66699 -2.33301 12 -7l61 -109c1.33301 -2.66699 2 -4.66699 2 -6z" />
    <glyph glyph-name="eacute" unicode="&#xe9;" horiz-adv-x="408" 
d="M353 226h-228c-2.66699 0 -4 -1.33301 -4 -4v-73c0 -28 7.83301 -50.833 23.5 -68.5s36.167 -26.5 61.5 -26.5c21.333 0 39.5 6.5 54.5 19.5s24.833 29.833 29.5 50.5c2 6 5.66699 9 11 9l50 -2c2.66699 0 5 -1 7 -3s2.66699 -4.66699 2 -8
c-5.33301 -39.333 -21.5 -70.5 -48.5 -93.5s-62.167 -34.5 -105.5 -34.5c-47.333 0 -85.166 14 -113.499 42s-42.5 65 -42.5 111v216c0 45.333 14.167 82.166 42.5 110.499s66.166 42.5 113.499 42.5c48 0 86.167 -14.167 114.5 -42.5s42.5 -65.166 42.5 -110.499v-125
c0 -6.66699 -3.33301 -10 -10 -10zM144.5 425.5c-15.667 -17.667 -23.5 -40.834 -23.5 -69.501v-67c0 -2.66699 1.33301 -4 4 -4h164c2.66699 0 4 1.33301 4 4v67c0 28.667 -8 51.834 -24 69.501s-37 26.5 -63 26.5c-25.333 0 -45.833 -8.83301 -61.5 -26.5zM162 575.5
c-1.33301 2.33301 -1 5.16602 1 8.49902l62 109c3.33301 4.66699 7.33301 7 12 7h41c4 0 6.5 -1.16699 7.5 -3.5s0.5 -5.16602 -1.5 -8.49902l-70 -109c-3.33301 -4.66699 -7.33301 -7 -12 -7h-32c-4 0 -6.66699 1.16699 -8 3.5z" />
    <glyph glyph-name="ecircumflex" unicode="&#xea;" horiz-adv-x="408" 
d="M353 226h-228c-2.66699 0 -4 -1.33301 -4 -4v-73c0 -28 7.83301 -50.833 23.5 -68.5s36.167 -26.5 61.5 -26.5c21.333 0 39.5 6.5 54.5 19.5s24.833 29.833 29.5 50.5c2 6 5.66699 9 11 9l50 -2c2.66699 0 5 -1 7 -3s2.66699 -4.66699 2 -8
c-5.33301 -39.333 -21.5 -70.5 -48.5 -93.5s-62.167 -34.5 -105.5 -34.5c-47.333 0 -85.166 14 -113.499 42s-42.5 65 -42.5 111v216c0 45.333 14.167 82.166 42.5 110.499s66.166 42.5 113.499 42.5c48 0 86.167 -14.167 114.5 -42.5s42.5 -65.166 42.5 -110.499v-125
c0 -6.66699 -3.33301 -10 -10 -10zM144.5 425.5c-15.667 -17.667 -23.5 -40.834 -23.5 -69.501v-67c0 -2.66699 1.33301 -4 4 -4h164c2.66699 0 4 1.33301 4 4v67c0 28.667 -8 51.834 -24 69.501s-37 26.5 -63 26.5c-25.333 0 -45.833 -8.83301 -61.5 -26.5zM94.5 581.5
c-1 2.33301 -0.5 5.16699 1.5 8.5l65 103c3.33301 4.66699 7.33301 7 12 7h60c4.66699 0 8.66699 -2.33301 12 -7l67 -103c1.33301 -2.66699 2 -4.66699 2 -6c0 -4 -2.66699 -6 -8 -6h-44c-4.66699 0 -8.66699 2.33301 -12 7l-43 73c-0.666992 1.33301 -1.66699 2 -3 2
s-2.33301 -0.666992 -3 -2l-44 -73c-3.33301 -4.66699 -7.33301 -7 -12 -7h-43c-4 0 -6.5 1.16699 -7.5 3.5z" />
    <glyph glyph-name="edieresis" unicode="&#xeb;" horiz-adv-x="408" 
d="M353 226h-228c-2.66699 0 -4 -1.33301 -4 -4v-73c0 -28 7.83301 -50.833 23.5 -68.5s36.167 -26.5 61.5 -26.5c21.333 0 39.5 6.5 54.5 19.5s24.833 29.833 29.5 50.5c2 6 5.66699 9 11 9l50 -2c2.66699 0 5 -1 7 -3s2.66699 -4.66699 2 -8
c-5.33301 -39.333 -21.5 -70.5 -48.5 -93.5s-62.167 -34.5 -105.5 -34.5c-47.333 0 -85.166 14 -113.499 42s-42.5 65 -42.5 111v216c0 45.333 14.167 82.166 42.5 110.499s66.166 42.5 113.499 42.5c48 0 86.167 -14.167 114.5 -42.5s42.5 -65.166 42.5 -110.499v-125
c0 -6.66699 -3.33301 -10 -10 -10zM144.5 425.5c-15.667 -17.667 -23.5 -40.834 -23.5 -69.501v-67c0 -2.66699 1.33301 -4 4 -4h164c2.66699 0 4 1.33301 4 4v67c0 28.667 -8 51.834 -24 69.501s-37 26.5 -63 26.5c-25.333 0 -45.833 -8.83301 -61.5 -26.5zM238.5 614
c-10.333 10.667 -15.5 24 -15.5 40c0 16.667 5.16699 30.167 15.5 40.5s23.833 15.5 40.5 15.5c16 0 29.333 -5.16699 40 -15.5s16 -23.833 16 -40.5c0 -16 -5.33301 -29.333 -16 -40s-24 -16 -40 -16c-16.667 0 -30.167 5.33301 -40.5 16zM89.5 614
c-10.333 10.667 -15.5 24 -15.5 40c0 16.667 5.16699 30.167 15.5 40.5s23.833 15.5 40.5 15.5c16 0 29.333 -5.16699 40 -15.5s16 -23.833 16 -40.5c0 -16 -5.33301 -29.333 -16 -40s-24 -16 -40 -16c-16.667 0 -30.167 5.33301 -40.5 16z" />
    <glyph glyph-name="igrave" unicode="&#xec;" horiz-adv-x="169" 
d="M49 10v486c0 6.66699 3.33301 10 10 10h51c6.66699 0 10 -3.33301 10 -10v-486c0 -6.66699 -3.33301 -10 -10 -10h-51c-6.66699 -0 -10 3.33301 -10 10zM108 578c0 -4 -3 -6 -9 -6h-32c-4.66699 0 -8.66699 2.33301 -12 7l-70 109c-1.33301 2.66699 -2 4.66699 -2 6
c0 4 2.66699 6 8 6h42c4.66699 0 8.66699 -2.33301 12 -7l61 -109c1.33301 -2.66699 2 -4.66699 2 -6z" />
    <glyph glyph-name="iacute" unicode="&#xed;" horiz-adv-x="169" 
d="M49 10v486c0 6.66699 3.33301 10 10 10h51c6.66699 0 10 -3.33301 10 -10v-486c0 -6.66699 -3.33301 -10 -10 -10h-51c-6.66699 -0 -10 3.33301 -10 10zM42 575.5c-1.33301 2.33301 -1 5.16602 1 8.49902l62 109c3.33301 4.66699 7.33301 7 12 7h41
c4 0 6.5 -1.16699 7.5 -3.5s0.5 -5.16602 -1.5 -8.49902l-70 -109c-3.33301 -4.66699 -7.33301 -7 -12 -7h-32c-4 0 -6.66699 1.16699 -8 3.5z" />
    <glyph glyph-name="icircumflex" unicode="&#xee;" horiz-adv-x="169" 
d="M49 10v486c0 6.66699 3.33301 10 10 10h51c6.66699 0 10 -3.33301 10 -10v-486c0 -6.66699 -3.33301 -10 -10 -10h-51c-6.66699 -0 -10 3.33301 -10 10zM-25.5 581.5c-1 2.33301 -0.5 5.16699 1.5 8.5l65 103c3.33301 4.66699 7.33301 7 12 7h60
c4.66699 0 8.66699 -2.33301 12 -7l67 -103c1.33301 -2.66699 2 -4.66699 2 -6c0 -4 -2.66699 -6 -8 -6h-44c-4.66699 0 -8.66699 2.33301 -12 7l-43 73c-0.666992 1.33301 -1.66699 2 -3 2s-2.33301 -0.666992 -3 -2l-44 -73c-3.33301 -4.66699 -7.33301 -7 -12 -7h-43
c-4 0 -6.5 1.16699 -7.5 3.5z" />
    <glyph glyph-name="idieresis" unicode="&#xef;" horiz-adv-x="169" 
d="M49 10v486c0 6.66699 3.33301 10 10 10h51c6.66699 0 10 -3.33301 10 -10v-486c0 -6.66699 -3.33301 -10 -10 -10h-51c-6.66699 -0 -10 3.33301 -10 10zM118.5 614c-10.333 10.667 -15.5 24 -15.5 40c0 16.667 5.16699 30.167 15.5 40.5s23.833 15.5 40.5 15.5
c16 0 29.333 -5.16699 40 -15.5s16 -23.833 16 -40.5c0 -16 -5.33301 -29.333 -16 -40s-24 -16 -40 -16c-16.667 0 -30.167 5.33301 -40.5 16zM-30.5 614c-10.333 10.667 -15.5 24 -15.5 40c0 16.667 5.16699 30.167 15.5 40.5s23.833 15.5 40.5 15.5
c16 0 29.333 -5.16699 40 -15.5s16 -23.833 16 -40.5c0 -16 -5.33301 -29.333 -16 -40s-24 -16 -40 -16c-16.667 0 -30.167 5.33301 -40.5 16z" />
    <glyph glyph-name="eth" unicode="&#xf0;" horiz-adv-x="432" 
d="M380 627c0 -4 -2.33203 -7.00195 -6.99902 -9.00195l-69 -20c-2 -1.33301 -2.66699 -3 -2 -5c40 -68.667 61 -150 63 -244v-204c0 -46 -14.333 -83 -43 -111s-67 -42 -115 -42s-86.167 14 -114.5 42s-42.5 65 -42.5 111v204c0 44.667 13.833 81.334 41.5 110.001
s62.834 43 105.501 43c35.333 0 63.333 -11.333 84 -34c2.66699 -2 4 -1.33301 4 2c-6.66699 35.333 -20 71 -40 107c-1.33301 2.66699 -3 3.33398 -5 2.00098l-74 -21l-4 -1c-4 0 -7 2.66699 -9 8l-4 16l-1 4c0 4 2.66699 7 8 9l61 18c3.33301 1.33301 4 3 2 5
c-16.667 24.667 -35.334 48.334 -56.001 71.001c-2 2 -3 4 -3 6c0 4 2.66699 6 8 6h47c4 0 8 -2 12 -6c23.333 -26 39.666 -46.333 48.999 -61c1.33301 -2.66699 3 -3.33398 5 -2.00098l82 24l4 1c3.33301 0 6 -2.66699 8 -8l5 -18v-3zM269.501 413.498
c-16.333 17.667 -37.166 26.5 -62.499 26.5s-46 -8.83301 -62 -26.5s-24 -40.834 -24 -69.501v-194c0 -28.667 8 -51.834 24 -69.501s36.667 -26.5 62 -26.5s46.166 8.83301 62.499 26.5s24.5 40.834 24.5 69.501v194c0 28.667 -8.16699 51.834 -24.5 69.501z" />
    <glyph glyph-name="ntilde" unicode="&#xf1;" 
d="M163 644.5c-6 -3.66699 -12.001 -10.167 -18.001 -19.5c-4 -6 -8.66699 -7 -14 -3l-15 12c-4.66699 3.33301 -6 7.66602 -4 12.999c16 35.333 38.333 53 67 53c9.33301 0 17.833 -2 25.5 -6s16.167 -9.66699 25.5 -17c2 -1.33301 5.5 -4.16602 10.5 -8.49902
s10 -7.5 15 -9.5s9.83301 -3 14.5 -3c7.33301 0 14 2 20 6s11.667 11 17 21c1.33301 3.33301 3.33301 5.33301 6 6s5.33398 0 8.00098 -2l15 -11c4.66699 -2.66699 6 -7 4 -13c-8.66699 -19.333 -19.5 -33.333 -32.5 -42s-25.833 -13 -38.5 -13
c-8 0 -15.167 1.66699 -21.5 5s-14.833 9 -25.5 17l-11.5 9c-5 4 -9.5 6.83301 -13.5 8.5s-8.33301 2.5 -13 2.5c-8 0 -15 -1.83301 -21 -5.5zM335.499 471c22.333 -28 33.499 -67.001 33.499 -117.001v-344c0 -6.66699 -3.33301 -10 -10 -10h-51
c-6.66699 0 -10 3.33301 -10 10v338c0 32.667 -7.16699 58 -21.5 76s-34.166 27 -59.499 27c-26.667 0 -47.5 -9.66699 -62.5 -29s-22.5 -45.666 -22.5 -78.999v-333c0 -6.66699 -3.33301 -10 -10 -10h-51c-6.66699 -0 -10 3.33301 -10 10v486c0 6.66699 3.33301 10 10 10
h51c6.66699 0 10 -3.33301 10 -10v-32c0 -1.33301 0.666992 -2.33301 2 -3s2.33301 0 3 2c12 16.667 27.167 29.167 45.5 37.5s37.833 12.5 58.5 12.5c40.667 0 72.167 -14 94.5 -42z" />
    <glyph glyph-name="ograve" unicode="&#xf2;" horiz-adv-x="414" 
d="M92.5 34c-28.333 28 -42.5 65 -42.5 111v215c0 45.333 14.333 82.333 43 111s66.667 43 114 43c48 0 86.333 -14.333 115 -43s43 -65.667 43 -111v-215c0 -46 -14.333 -83 -43 -111s-67 -42 -115 -42s-86.167 14 -114.5 42zM269.5 81c16.333 17.333 24.5 40.333 24.5 69
v206c0 28.667 -8.16699 51.834 -24.5 69.501s-37.166 26.5 -62.499 26.5s-46 -8.83301 -62 -26.5s-24 -40.834 -24 -69.501v-206c0 -28.667 8 -51.667 24 -69s36.667 -26 62 -26s46.166 8.66699 62.499 26zM230 578c0 -4 -3 -6 -9 -6h-32c-4.66699 0 -8.66699 2.33301 -12 7
l-70 109c-1.33301 2.66699 -2 4.66699 -2 6c0 4 2.66699 6 8 6h42c4.66699 0 8.66699 -2.33301 12 -7l61 -109c1.33301 -2.66699 2 -4.66699 2 -6z" />
    <glyph glyph-name="oacute" unicode="&#xf3;" horiz-adv-x="414" 
d="M92.5 34c-28.333 28 -42.5 65 -42.5 111v215c0 45.333 14.333 82.333 43 111s66.667 43 114 43c48 0 86.333 -14.333 115 -43s43 -65.667 43 -111v-215c0 -46 -14.333 -83 -43 -111s-67 -42 -115 -42s-86.167 14 -114.5 42zM269.5 81c16.333 17.333 24.5 40.333 24.5 69
v206c0 28.667 -8.16699 51.834 -24.5 69.501s-37.166 26.5 -62.499 26.5s-46 -8.83301 -62 -26.5s-24 -40.834 -24 -69.501v-206c0 -28.667 8 -51.667 24 -69s36.667 -26 62 -26s46.166 8.66699 62.499 26zM165 575.5c-1.33301 2.33301 -1 5.16602 1 8.49902l62 109
c3.33301 4.66699 7.33301 7 12 7h41c4 0 6.5 -1.16699 7.5 -3.5s0.5 -5.16602 -1.5 -8.49902l-70 -109c-3.33301 -4.66699 -7.33301 -7 -12 -7h-32c-4 0 -6.66699 1.16699 -8 3.5z" />
    <glyph glyph-name="ocircumflex" unicode="&#xf4;" horiz-adv-x="414" 
d="M92.5 34c-28.333 28 -42.5 65 -42.5 111v215c0 45.333 14.333 82.333 43 111s66.667 43 114 43c48 0 86.333 -14.333 115 -43s43 -65.667 43 -111v-215c0 -46 -14.333 -83 -43 -111s-67 -42 -115 -42s-86.167 14 -114.5 42zM269.5 81c16.333 17.333 24.5 40.333 24.5 69
v206c0 28.667 -8.16699 51.834 -24.5 69.501s-37.166 26.5 -62.499 26.5s-46 -8.83301 -62 -26.5s-24 -40.834 -24 -69.501v-206c0 -28.667 8 -51.667 24 -69s36.667 -26 62 -26s46.166 8.66699 62.499 26zM97.5 581.5c-1 2.33301 -0.5 5.16699 1.5 8.5l65 103
c3.33301 4.66699 7.33301 7 12 7h60c4.66699 0 8.66699 -2.33301 12 -7l67 -103c1.33301 -2.66699 2 -4.66699 2 -6c0 -4 -2.66699 -6 -8 -6h-44c-4.66699 0 -8.66699 2.33301 -12 7l-43 73c-0.666992 1.33301 -1.66699 2 -3 2s-2.33301 -0.666992 -3 -2l-44 -73
c-3.33301 -4.66699 -7.33301 -7 -12 -7h-43c-4 0 -6.5 1.16699 -7.5 3.5z" />
    <glyph glyph-name="otilde" unicode="&#xf5;" horiz-adv-x="414" 
d="M92.5 34c-28.333 28 -42.5 65 -42.5 111v215c0 45.333 14.333 82.333 43 111s66.667 43 114 43c48 0 86.333 -14.333 115 -43s43 -65.667 43 -111v-215c0 -46 -14.333 -83 -43 -111s-67 -42 -115 -42s-86.167 14 -114.5 42zM269.5 81c16.333 17.333 24.5 40.333 24.5 69
v206c0 28.667 -8.16699 51.834 -24.5 69.501s-37.166 26.5 -62.499 26.5s-46 -8.83301 -62 -26.5s-24 -40.834 -24 -69.501v-206c0 -28.667 8 -51.667 24 -69s36.667 -26 62 -26s46.166 8.66699 62.499 26zM245 613.5c-7.33301 3.66699 -17.0068 9.16602 -29.0068 16.499
c-2.66699 2 -7 5 -13 9s-11.333 6.83301 -16 8.5s-9.66699 2.5 -15 2.5c-9.33301 0 -17.5 -1.83301 -24.5 -5.5s-13.833 -10.5 -20.5 -20.5c-4 -6 -8.66699 -7 -14 -3l-18 13c-5.33301 4 -6.66602 8.66699 -3.99902 14c18 34.667 43.333 52 76 52
c10.667 0 20.334 -2 29.001 -6s18.334 -9.66699 29.001 -17c1.33301 -1.33301 5 -4 11 -8s11.833 -7.16699 17.5 -9.5s11.167 -3.5 16.5 -3.5c8.66699 0 16.334 2 23.001 6s13.334 11.333 20.001 22c1.33301 2.66699 3.33301 4.33398 6 5.00098
s5.33398 0.333984 8.00098 -0.999023l18 -12c2.66699 -2 4 -4.66699 4 -8s-1.33301 -7.33301 -4 -12c-9.33301 -16.667 -21 -28.834 -35 -36.501s-27.333 -11.5 -40 -11.5c-9.33301 0 -17.666 1.83301 -24.999 5.5z" />
    <glyph glyph-name="odieresis" unicode="&#xf6;" horiz-adv-x="414" 
d="M92.5 34c-28.333 28 -42.5 65 -42.5 111v215c0 45.333 14.333 82.333 43 111s66.667 43 114 43c48 0 86.333 -14.333 115 -43s43 -65.667 43 -111v-215c0 -46 -14.333 -83 -43 -111s-67 -42 -115 -42s-86.167 14 -114.5 42zM269.5 81c16.333 17.333 24.5 40.333 24.5 69
v206c0 28.667 -8.16699 51.834 -24.5 69.501s-37.166 26.5 -62.499 26.5s-46 -8.83301 -62 -26.5s-24 -40.834 -24 -69.501v-206c0 -28.667 8 -51.667 24 -69s36.667 -26 62 -26s46.166 8.66699 62.499 26zM241.5 614c-10.333 10.667 -15.5 24 -15.5 40
c0 16.667 5.16699 30.167 15.5 40.5s23.833 15.5 40.5 15.5c16 0 29.333 -5.16699 40 -15.5s16 -23.833 16 -40.5c0 -16 -5.33301 -29.333 -16 -40s-24 -16 -40 -16c-16.667 0 -30.167 5.33301 -40.5 16zM92.5 614c-10.333 10.667 -15.5 24 -15.5 40
c0 16.667 5.16699 30.167 15.5 40.5s23.833 15.5 40.5 15.5c16 0 29.333 -5.16699 40 -15.5s16 -23.833 16 -40.5c0 -16 -5.33301 -29.333 -16 -40s-24 -16 -40 -16c-16.667 0 -30.167 5.33301 -40.5 16z" />
    <glyph glyph-name="divide" unicode="&#xf7;" horiz-adv-x="442" 
d="M183 441c-10 10 -15 22.333 -15 37s5.16699 27 15.5 37s22.5 15 36.5 15c14.667 0 27.167 -5 37.5 -15s15.5 -22.333 15.5 -37s-5.16699 -27 -15.5 -37s-22.833 -15 -37.5 -15s-27 5 -37 15zM32 308v35c0 6.66699 3.33301 10 10 10h358c6.66699 0 10 -3.33301 10 -10v-35
c0 -6.66699 -3.33301 -10 -10 -10h-358c-6.66699 0 -10 3.33301 -10 10zM183 138c-10 10 -15 22.333 -15 37c0 14 5.16699 26.167 15.5 36.5s22.5 15.5 36.5 15.5c14.667 0 27.167 -5.16699 37.5 -15.5s15.5 -22.5 15.5 -36.5c0 -14.667 -5.16699 -27 -15.5 -37
s-22.833 -15 -37.5 -15s-27 5 -37 15z" />
    <glyph glyph-name="oslash" unicode="&#xf8;" horiz-adv-x="430" 
d="M365 522l-27.999 -62c-0.666992 -1.33301 -0.333984 -3.33301 0.999023 -6c18.667 -26 28 -57.333 28 -94v-215c0 -46 -14.167 -83 -42.5 -111s-66.5 -42 -114.5 -42c-27.333 0 -51 4.33301 -71 13c-3.33301 1.33301 -5.33301 0.666016 -6 -2.00098l-20 -45
c-2.66699 -6 -7 -7.66699 -13 -5l-35 19c-5.33301 3.33301 -6.66602 8 -3.99902 14l25 54c0.666992 2 0.333984 3.66699 -0.999023 5c-22 26 -33 59.333 -33 100v215c0 45.333 14.5 82.333 43.5 111s67.167 43 114.5 43c29.333 0 54.333 -5.33301 75 -16
c3.33301 -1.33301 5.33301 -0.666016 6 2.00098l23 51c3.33301 7.33301 7.66602 9 12.999 5l35 -20c5.33301 -3.33301 6.66602 -8 3.99902 -14zM123.001 138c0 -2 0.665039 -2.83105 1.99805 -2.49805s2.33301 1.16602 3 2.49902l132 294c0.666992 2 0 3.66699 -2 5
c-13.333 10 -29.666 15 -48.999 15c-25.333 0 -46.166 -8.83301 -62.499 -26.5s-24.5 -40.834 -24.5 -69.501v-206c0 -5.33301 0.333008 -9.33301 1 -12zM292.999 357.002c-1.33301 0 -2.33203 -0.666016 -2.99902 -1.99902l-126 -284
c-0.666992 -2.66699 -0.333984 -4.33398 0.999023 -5.00098c13.333 -7.33301 28 -11 44 -11c25.333 0 46 8.66699 62 26s24 40.333 24 69v204c0 2 -0.666992 3 -2 3z" />
    <glyph glyph-name="ugrave" unicode="&#xf9;" 
d="M302 506l51 0.00195312c6.66699 0 10 -3.33301 10 -10v-486c0 -6.66699 -3.33301 -10 -10 -10h-51c-6.66699 0 -10 3.33301 -10 10v34c0 2 -0.5 3 -1.5 3s-2.16699 -0.666992 -3.5 -2c-20.667 -34.667 -54 -52 -100 -52c-40 0 -71.833 12.167 -95.5 36.5
s-35.5 61.166 -35.5 110.499v356c0 6.66699 3.33301 10 10 10h51c6.66699 0 10 -3.33301 10 -10v-340c0 -33.333 6.83301 -58.5 20.5 -75.5s33.5 -25.5 59.5 -25.5c26.667 0 47.5 9.66699 62.5 29s22.5 45.666 22.5 78.999v333c0 6.66699 3.33301 10 10 10zM232 578.002
c0 -4 -3 -6 -9 -6h-32c-4.66699 0 -8.66699 2.33301 -12 7l-70 109c-1.33301 2.66699 -2 4.66699 -2 6c0 4 2.66699 6 8 6h42c4.66699 0 8.66699 -2.33301 12 -7l61 -109c1.33301 -2.66699 2 -4.66699 2 -6z" />
    <glyph glyph-name="uacute" unicode="&#xfa;" 
d="M302 506l51 0.00195312c6.66699 0 10 -3.33301 10 -10v-486c0 -6.66699 -3.33301 -10 -10 -10h-51c-6.66699 0 -10 3.33301 -10 10v34c0 2 -0.5 3 -1.5 3s-2.16699 -0.666992 -3.5 -2c-20.667 -34.667 -54 -52 -100 -52c-40 0 -71.833 12.167 -95.5 36.5
s-35.5 61.166 -35.5 110.499v356c0 6.66699 3.33301 10 10 10h51c6.66699 0 10 -3.33301 10 -10v-340c0 -33.333 6.83301 -58.5 20.5 -75.5s33.5 -25.5 59.5 -25.5c26.667 0 47.5 9.66699 62.5 29s22.5 45.666 22.5 78.999v333c0 6.66699 3.33301 10 10 10zM166 575.502
c-1.33301 2.33301 -1 5.16602 1 8.49902l62 109c3.33301 4.66699 7.33301 7 12 7h41c4 0 6.5 -1.16699 7.5 -3.5s0.5 -5.16602 -1.5 -8.49902l-70 -109c-3.33301 -4.66699 -7.33301 -7 -12 -7h-32c-4 0 -6.66699 1.16699 -8 3.5z" />
    <glyph glyph-name="ucircumflex" unicode="&#xfb;" 
d="M302 506l51 0.00195312c6.66699 0 10 -3.33301 10 -10v-486c0 -6.66699 -3.33301 -10 -10 -10h-51c-6.66699 0 -10 3.33301 -10 10v34c0 2 -0.5 3 -1.5 3s-2.16699 -0.666992 -3.5 -2c-20.667 -34.667 -54 -52 -100 -52c-40 0 -71.833 12.167 -95.5 36.5
s-35.5 61.166 -35.5 110.499v356c0 6.66699 3.33301 10 10 10h51c6.66699 0 10 -3.33301 10 -10v-340c0 -33.333 6.83301 -58.5 20.5 -75.5s33.5 -25.5 59.5 -25.5c26.667 0 47.5 9.66699 62.5 29s22.5 45.666 22.5 78.999v333c0 6.66699 3.33301 10 10 10zM98.5 581.502
c-1 2.33301 -0.5 5.16699 1.5 8.5l65 103c3.33301 4.66699 7.33301 7 12 7h60c4.66699 0 8.66699 -2.33301 12 -7l67 -103c1.33301 -2.66699 2 -4.66699 2 -6c0 -4 -2.66699 -6 -8 -6h-44c-4.66699 0 -8.66699 2.33301 -12 7l-43 73c-0.666992 1.33301 -1.66699 2 -3 2
s-2.33301 -0.666992 -3 -2l-44 -73c-3.33301 -4.66699 -7.33301 -7 -12 -7h-43c-4 0 -6.5 1.16699 -7.5 3.5z" />
    <glyph glyph-name="udieresis" unicode="&#xfc;" 
d="M302 506l51 0.00195312c6.66699 0 10 -3.33301 10 -10v-486c0 -6.66699 -3.33301 -10 -10 -10h-51c-6.66699 0 -10 3.33301 -10 10v34c0 2 -0.5 3 -1.5 3s-2.16699 -0.666992 -3.5 -2c-20.667 -34.667 -54 -52 -100 -52c-40 0 -71.833 12.167 -95.5 36.5
s-35.5 61.166 -35.5 110.499v356c0 6.66699 3.33301 10 10 10h51c6.66699 0 10 -3.33301 10 -10v-340c0 -33.333 6.83301 -58.5 20.5 -75.5s33.5 -25.5 59.5 -25.5c26.667 0 47.5 9.66699 62.5 29s22.5 45.666 22.5 78.999v333c0 6.66699 3.33301 10 10 10zM242.5 614.002
c-10.333 10.667 -15.5 24 -15.5 40c0 16.667 5.16699 30.167 15.5 40.5s23.833 15.5 40.5 15.5c16 0 29.333 -5.16699 40 -15.5s16 -23.833 16 -40.5c0 -16 -5.33301 -29.333 -16 -40s-24 -16 -40 -16c-16.667 0 -30.167 5.33301 -40.5 16zM93.5 614.002
c-10.333 10.667 -15.5 24 -15.5 40c0 16.667 5.16699 30.167 15.5 40.5s23.833 15.5 40.5 15.5c16 0 29.333 -5.16699 40 -15.5s16 -23.833 16 -40.5c0 -16 -5.33301 -29.333 -16 -40s-24 -16 -40 -16c-16.667 0 -30.167 5.33301 -40.5 16z" />
    <glyph glyph-name="yacute" unicode="&#xfd;" horiz-adv-x="367" 
d="M40 -197c-1.33301 2 -2.00488 4.33105 -2.00488 6.99805v40c0 6.66699 3.33301 10 10 10c20.667 0.666992 36.834 4.66699 48.501 12s21.167 20.333 28.5 39s14.666 47.334 21.999 86.001c0.666992 1.33301 0.833984 2.5 0.500977 3.5s-0.5 1.83301 -0.5 2.5l-127 492
l-1 3c0 5.33301 3.33301 8 10 8h54c6.66699 0 10.334 -3 11.001 -9l88 -393c0.666992 -2 1.33398 -3 2.00098 -3s1.33398 1 2.00098 3l87 393c1.33301 6 5 9 11 9l56 -1c3.33301 0 5.83301 -1 7.5 -3s1.83398 -4.66699 0.500977 -8l-139 -538
c-12 -44.667 -23.833 -77.667 -35.5 -99s-26.834 -36.166 -45.501 -44.499s-45 -12.5 -79 -12.5h-5c-1.33301 0 -2.66602 1 -3.99902 3zM140.995 575.498c-1.33301 2.33301 -1 5.16602 1 8.49902l62 109c3.33301 4.66699 7.33301 7 12 7h41c4 0 6.5 -1.16699 7.5 -3.5
s0.5 -5.16602 -1.5 -8.49902l-70 -109c-3.33301 -4.66699 -7.33301 -7 -12 -7h-32c-4 0 -6.66699 1.16699 -8 3.5z" />
    <glyph glyph-name="thorn" unicode="&#xfe;" horiz-adv-x="417" 
d="M332 472.5c24 -27.667 36 -64.834 36 -111.501v-216c0 -46 -12 -83 -36 -111s-57 -42 -99 -42c-21.333 0 -41 4.66699 -59 14s-32.333 23.333 -43 42c-0.666992 2 -1.66699 2.83301 -3 2.5s-2 -1.5 -2 -3.5v-237c0 -6.66699 -3.33301 -10 -10 -10h-51
c-6.66699 0 -10 3.33301 -10 10v880c0 6.66699 3.33301 10 10 10h51c6.66699 0 10 -3.33301 10 -10v-233c0 -2 0.666992 -3 2 -3s2.33301 1 3 3c11.333 18.667 25.833 32.834 43.5 42.501s37.167 14.5 58.5 14.5c42 0 75 -13.833 99 -41.5zM272.5 425.5
c-16.333 17.667 -37.166 26.5 -62.499 26.5c-24.667 0 -44.667 -8.83301 -60 -26.5s-23 -40.834 -23 -69.501v-206c0 -28.667 7.66699 -51.834 23 -69.501s35.333 -26.5 60 -26.5c25.333 0 46.166 8.83301 62.499 26.5s24.5 40.834 24.5 69.501v206
c0 28.667 -8.16699 51.834 -24.5 69.501z" />
    <glyph glyph-name="ydieresis" unicode="&#xff;" horiz-adv-x="367" 
d="M40 -197c-1.33301 2 -2.00488 4.33105 -2.00488 6.99805v40c0 6.66699 3.33301 10 10 10c20.667 0.666992 36.834 4.66699 48.501 12s21.167 20.333 28.5 39s14.666 47.334 21.999 86.001c0.666992 1.33301 0.833984 2.5 0.500977 3.5s-0.5 1.83301 -0.5 2.5l-127 492
l-1 3c0 5.33301 3.33301 8 10 8h54c6.66699 0 10.334 -3 11.001 -9l88 -393c0.666992 -2 1.33398 -3 2.00098 -3s1.33398 1 2.00098 3l87 393c1.33301 6 5 9 11 9l56 -1c3.33301 0 5.83301 -1 7.5 -3s1.83398 -4.66699 0.500977 -8l-139 -538
c-12 -44.667 -23.833 -77.667 -35.5 -99s-26.834 -36.166 -45.501 -44.499s-45 -12.5 -79 -12.5h-5c-1.33301 0 -2.66602 1 -3.99902 3zM218.495 613.998c-10.333 10.667 -15.5 24 -15.5 40c0 16.667 5.16699 30.167 15.5 40.5s23.833 15.5 40.5 15.5
c16 0 29.333 -5.16699 40 -15.5s16 -23.833 16 -40.5c0 -16 -5.33301 -29.333 -16 -40s-24 -16 -40 -16c-16.667 0 -30.167 5.33301 -40.5 16zM69.4951 613.998c-10.333 10.667 -15.5 24 -15.5 40c0 16.667 5.16699 30.167 15.5 40.5s23.833 15.5 40.5 15.5
c16 0 29.333 -5.16699 40 -15.5s16 -23.833 16 -40.5c0 -16 -5.33301 -29.333 -16 -40s-24 -16 -40 -16c-16.667 0 -30.167 5.33301 -40.5 16z" />
    <glyph glyph-name="Amacron" unicode="&#x100;" horiz-adv-x="410" 
d="M325 9l-25 124c0 1.33301 -0.5 2.33301 -1.5 3s-2.16699 1 -3.5 1h-181c-1.33301 0 -2.5 -0.333008 -3.5 -1s-1.5 -1.66699 -1.5 -3l-25 -124c-0.666992 -6 -4.33398 -9 -11.001 -9h-51c-3.33301 0 -5.83301 1 -7.5 3s-2.16699 4.66699 -1.5 8l150 680
c1.33301 6 5 9 11 9h60c6.66699 0 10.334 -3 11.001 -9l152 -680v-2c0 -6 -3 -9 -9 -9h-52c-6 0 -9.66699 3 -11 9zM125 195h158.002c2 0 3 1.33301 3 4l-80 393c-0.666992 2 -1.33398 3 -2.00098 3s-1.33398 -1 -2.00098 -3l-80 -393c0 -2.66699 1 -4 3 -4zM102.002 799v32
c0 6.66699 3.33301 10 10 10h183c6.66699 0 10 -3.33301 10 -10v-32c0 -6.66699 -3.33301 -10 -10 -10h-183c-6.66699 0 -10 3.33301 -10 10z" />
    <glyph glyph-name="amacron" unicode="&#x101;" horiz-adv-x="411" 
d="M321 468.5c28 -30.333 42 -70.8311 42 -121.498v-337c0 -6.66699 -3.33301 -10 -10 -10h-51c-6.66699 0 -10 3.33301 -10 10v30c0 1.33301 -0.5 2.16602 -1.5 2.49902s-2.16699 -0.166992 -3.5 -1.5c-24.667 -32.667 -61.667 -49 -111 -49
c-36.667 0 -68.5 10.5 -95.5 31.5s-40.5 58.167 -40.5 111.5c0 56.667 16.333 98.167 49 124.5s75.667 39.5 129 39.5h70c2.66699 0 4 1.33301 4 4v39c0 33.333 -7.66699 60 -23 80s-36 30 -62 30c-20 0 -37.167 -6.66699 -51.5 -20s-22.833 -30.333 -25.5 -51
c0 -6.66699 -3.33301 -10 -10 -10l-56 1c-3.33301 0 -5.83301 1 -7.5 3s-2.16699 4.33301 -1.5 7c3.33301 39.333 19.333 71.166 48 95.499s64 36.5 106 36.5c46.667 0 84 -15.167 112 -45.5zM262 80.502c20 17.667 30.001 42.166 30.001 73.499v84
c0 2.66699 -1.33301 4 -4 4h-71c-32 0 -57.333 -8.5 -76 -25.5s-28 -42.167 -28 -75.5c0 -29.333 7.16699 -51.166 21.5 -65.499s33.166 -21.5 56.499 -21.5c27.333 0 51 8.83301 71 26.5zM103.001 605.001v32c0 6.66699 3.33301 10 10 10h183c6.66699 0 10 -3.33301 10 -10
v-32c0 -6.66699 -3.33301 -10 -10 -10h-183c-6.66699 0 -10 3.33301 -10 10z" />
    <glyph glyph-name="Abreve" unicode="&#x102;" horiz-adv-x="410" 
d="M325 9l-25 124c0 1.33301 -0.5 2.33301 -1.5 3s-2.16699 1 -3.5 1h-181c-1.33301 0 -2.5 -0.333008 -3.5 -1s-1.5 -1.66699 -1.5 -3l-25 -124c-0.666992 -6 -4.33398 -9 -11.001 -9h-51c-3.33301 0 -5.83301 1 -7.5 3s-2.16699 4.66699 -1.5 8l150 680
c1.33301 6 5 9 11 9h60c6.66699 0 10.334 -3 11.001 -9l152 -680v-2c0 -6 -3 -9 -9 -9h-52c-6 0 -9.66699 3 -11 9zM125 195h158.002c2 0 3 1.33301 3 4l-80 393c-0.666992 2 -1.33398 3 -2.00098 3s-1.33398 -1 -2.00098 -3l-80 -393c0 -2.66699 1 -4 3 -4zM133.002 779
c-19.333 18 -30.335 40.667 -33.002 68c0 6.66699 3.33301 10 10 10h23c6.66699 0 10.334 -3.33301 11.001 -10c2 -16.667 8.66699 -30.334 20 -41.001s25 -16 41 -16s29.667 5.33301 41 16s18 24.334 20 41.001c0.666992 6.66699 4.33398 10 11.001 10h23
c6.66699 0 10 -3.33301 10 -10c-2.66699 -28 -13.667 -50.833 -33 -68.5s-43.333 -26.5 -72 -26.5s-52.667 9 -72 27z" />
    <glyph glyph-name="abreve" unicode="&#x103;" horiz-adv-x="411" 
d="M321 468.5c28 -30.333 42 -70.8311 42 -121.498v-337c0 -6.66699 -3.33301 -10 -10 -10h-51c-6.66699 0 -10 3.33301 -10 10v30c0 1.33301 -0.5 2.16602 -1.5 2.49902s-2.16699 -0.166992 -3.5 -1.5c-24.667 -32.667 -61.667 -49 -111 -49
c-36.667 0 -68.5 10.5 -95.5 31.5s-40.5 58.167 -40.5 111.5c0 56.667 16.333 98.167 49 124.5s75.667 39.5 129 39.5h70c2.66699 0 4 1.33301 4 4v39c0 33.333 -7.66699 60 -23 80s-36 30 -62 30c-20 0 -37.167 -6.66699 -51.5 -20s-22.833 -30.333 -25.5 -51
c0 -6.66699 -3.33301 -10 -10 -10l-56 1c-3.33301 0 -5.83301 1 -7.5 3s-2.16699 4.33301 -1.5 7c3.33301 39.333 19.333 71.166 48 95.499s64 36.5 106 36.5c46.667 0 84 -15.167 112 -45.5zM262 80.502c20 17.667 30.001 42.166 30.001 73.499v84
c0 2.66699 -1.33301 4 -4 4h-71c-32 0 -57.333 -8.5 -76 -25.5s-28 -42.167 -28 -75.5c0 -29.333 7.16699 -51.166 21.5 -65.499s33.166 -21.5 56.499 -21.5c27.333 0 51 8.83301 71 26.5zM134.001 585.001c-19.333 18 -30.335 40.667 -33.002 68
c0 6.66699 3.33301 10 10 10h23c6.66699 0 10.334 -3.33301 11.001 -10c2 -16.667 8.66699 -30.334 20 -41.001s25 -16 41 -16s29.667 5.33301 41 16s18 24.334 20 41.001c0.666992 6.66699 4.33398 10 11.001 10h23c6.66699 0 10 -3.33301 10 -10
c-2.66699 -28 -13.667 -50.833 -33 -68.5s-43.333 -26.5 -72 -26.5s-52.667 9 -72 27z" />
    <glyph glyph-name="Aogonek" unicode="&#x104;" horiz-adv-x="410" 
d="M325 9l-25 124c0 1.33301 -0.5 2.33301 -1.5 3s-2.16699 1 -3.5 1h-181c-1.33301 0 -2.5 -0.333008 -3.5 -1s-1.5 -1.66699 -1.5 -3l-25 -124c-0.666992 -6 -4.33398 -9 -11.001 -9h-51c-3.33301 0 -5.83301 1 -7.5 3s-2.16699 4.66699 -1.5 8l150 680
c1.33301 6 5 9 11 9h60c6.66699 0 10.334 -3 11.001 -9l152 -680v-2c0 -6 -3 -9 -9 -9h-52c-6 0 -9.66699 3 -11 9zM125 195h158.002c2 0 3 1.33301 3 4l-80 393c-0.666992 2 -1.33398 3 -2.00098 3s-1.33398 -1 -2.00098 -3l-80 -393c0 -2.66699 1 -4 3 -4zM412.002 -173
c0 -4 -2.33105 -7 -6.99805 -9c-8.66699 -2 -18.334 -3 -29.001 -3c-22.667 0 -41.667 6.16699 -57 18.5s-23 33.5 -23 63.5c0 16.667 3.66699 33.334 11 50.001s18.666 32 33.999 46l4 4c2 2 5.33301 3 10 3h27c4.66699 0 7.5 -1.33301 8.5 -4
s-0.166992 -5.33398 -3.5 -8.00098c-12.667 -13.333 -22.834 -27.333 -30.501 -42s-11.5 -29 -11.5 -43c0 -16 3.83301 -27.667 11.5 -35s17.5 -11 29.5 -11c4.66699 0 8.33398 0.333008 11.001 1l4 1c4 0 6.66699 -2.66699 8 -8l3 -21v-3z" />
    <glyph glyph-name="aogonek" unicode="&#x105;" horiz-adv-x="411" 
d="M363 -141c4 0 6.66602 -2.66602 7.99902 -7.99902l3 -21v-3c0 -4 -2.33301 -7 -7 -9c-9.33301 -2 -19 -3 -29 -3c-22.667 0 -41.667 6.16699 -57 18.5s-23 33.5 -23 63.5c0 36.667 15.333 69.334 46 98.001c1.33301 1.33301 1.83301 2.5 1.5 3.5
s-1.16602 1.5 -2.49902 1.5h-1c-6.66699 0 -10 3.33301 -10 10v30c0 1.33301 -0.5 2.16602 -1.5 2.49902s-2.16699 -0.166992 -3.5 -1.5c-24.667 -32.667 -61.667 -49 -111 -49c-36.667 0 -68.5 10.5 -95.5 31.5s-40.5 58.167 -40.5 111.5c0 56.667 16.333 98.167 49 124.5
s75.667 39.5 129 39.5h70c2.66699 0 4 1.33301 4 4v39c0 33.333 -7.66699 60 -23 80s-36 30 -62 30c-20 0 -37.167 -6.66699 -51.5 -20s-22.833 -30.333 -25.5 -51c0 -6.66699 -3.33301 -10 -10 -10l-56 1c-3.33301 0 -5.83301 1 -7.5 3s-2.16699 4.33301 -1.5 7
c3.33301 39.333 19.5 71.166 48.5 95.499s64.167 36.5 105.5 36.5c46.667 0 84 -15.167 112 -45.5s42 -70.833 42 -121.5v-339v-8l-3 -2c-16 -14.667 -28.833 -30 -38.5 -46s-14.5 -32 -14.5 -48s4 -27.833 12 -35.5s18 -11.5 30 -11.5c4.66699 0 8 0.333008 10 1z
M261.999 80.501c20 17.667 30.001 42.166 30.001 73.499v84c0 2.66699 -1.33301 4 -4 4h-71c-32 0 -57.333 -8.5 -76 -25.5s-28 -42.167 -28 -75.5c0 -29.333 7.16699 -51.166 21.5 -65.499s33.166 -21.5 56.499 -21.5c27.333 0 51 8.83301 71 26.5z" />
    <glyph glyph-name="Cacute" unicode="&#x106;" horiz-adv-x="446" 
d="M101.5 39c-31 31.333 -46.501 73.333 -46.501 126v371c0 52 15.5 93.667 46.5 125s72.167 47 123.5 47c52 0 93.5 -15.5 124.5 -46.5s46.5 -72.833 46.5 -125.5v-17c0 -6.66699 -3.33301 -10 -10 -10l-52 -3c-6.66699 0 -10 3.33301 -10 10v25
c0 31.333 -9 56.666 -27 75.999s-42 29 -72 29c-29.333 0 -53.166 -9.66699 -71.499 -29s-27.5 -44.666 -27.5 -75.999v-382c0 -31.333 9.16699 -56.666 27.5 -75.999s42.166 -29 71.499 -29c30 0 54 9.66699 72 29s27 44.666 27 75.999v25c0 6.66699 3.33301 10 10 10
l52 -3c6.66699 0 10 -3.33301 10 -10v-16c0 -52.667 -15.667 -94.667 -47 -126s-72.666 -47 -123.999 -47s-92.5 15.667 -123.5 47zM181.999 769.5c-1.33301 2.33301 -1 5.16602 1 8.49902l62 109c3.33301 4.66699 7.33301 7 12 7h41c4 0 6.5 -1.16699 7.5 -3.5
s0.5 -5.16602 -1.5 -8.49902l-70 -109c-3.33301 -4.66699 -7.33301 -7 -12 -7h-32c-4 0 -6.66699 1.16699 -8 3.5z" />
    <glyph glyph-name="cacute" unicode="&#x107;" horiz-adv-x="402" 
d="M92.5 34c-28.333 28 -42.502 65.0029 -42.502 111.003v216c0 45.333 14.333 82.166 43 110.499s66.334 42.5 113.001 42.5c31.333 0 59 -6.33301 83 -19s42.5 -29.5 55.5 -50.5s19.5 -44.167 19.5 -69.5v-10c0 -6.66699 -3.33301 -10 -10 -10l-51 -2
c-6.66699 0 -10 3.33301 -10 10v7c0 22 -8.16699 41.167 -24.5 57.5s-37.166 24.5 -62.499 24.5s-45.833 -8.83301 -61.5 -26.5s-23.5 -40.834 -23.5 -69.501v-206c0 -28.667 7.83301 -51.834 23.5 -69.501s36.167 -26.5 61.5 -26.5s46.166 8.16699 62.499 24.5
s24.5 35.5 24.5 57.5v7c0 6.66699 3.33301 10 10 10l51 -1c6.66699 0 10 -3.33301 10 -10v-11c0 -40 -14.5 -73.167 -43.5 -99.5s-67.167 -39.5 -114.5 -39.5s-85.166 14 -113.499 42zM163.998 575.503c-1.33301 2.33301 -1 5.16602 1 8.49902l62 109
c3.33301 4.66699 7.33301 7 12 7h41c4 0 6.5 -1.16699 7.5 -3.5s0.5 -5.16602 -1.5 -8.49902l-70 -109c-3.33301 -4.66699 -7.33301 -7 -12 -7h-32c-4 0 -6.66699 1.16699 -8 3.5z" />
    <glyph glyph-name="Ccircumflex" unicode="&#x108;" horiz-adv-x="446" 
d="M101.5 39c-31 31.333 -46.501 73.333 -46.501 126v371c0 52 15.5 93.667 46.5 125s72.167 47 123.5 47c52 0 93.5 -15.5 124.5 -46.5s46.5 -72.833 46.5 -125.5v-17c0 -6.66699 -3.33301 -10 -10 -10l-52 -3c-6.66699 0 -10 3.33301 -10 10v25
c0 31.333 -9 56.666 -27 75.999s-42 29 -72 29c-29.333 0 -53.166 -9.66699 -71.499 -29s-27.5 -44.666 -27.5 -75.999v-382c0 -31.333 9.16699 -56.666 27.5 -75.999s42.166 -29 71.499 -29c30 0 54 9.66699 72 29s27 44.666 27 75.999v25c0 6.66699 3.33301 10 10 10
l52 -3c6.66699 0 10 -3.33301 10 -10v-16c0 -52.667 -15.667 -94.667 -47 -126s-72.666 -47 -123.999 -47s-92.5 15.667 -123.5 47zM115.499 775.5c-1 2.33301 -0.5 5.16699 1.5 8.5l65 103c3.33301 4.66699 7.33301 7 12 7h60c4.66699 0 8.66699 -2.33301 12 -7l67 -103
c1.33301 -2.66699 2 -4.66699 2 -6c0 -4 -2.66699 -6 -8 -6h-44c-4.66699 0 -8.66699 2.33301 -12 7l-43 73c-0.666992 1.33301 -1.66699 2 -3 2s-2.33301 -0.666992 -3 -2l-44 -73c-3.33301 -4.66699 -7.33301 -7 -12 -7h-43c-4 0 -6.5 1.16699 -7.5 3.5z" />
    <glyph glyph-name="ccircumflex" unicode="&#x109;" horiz-adv-x="402" 
d="M92.5 34c-28.333 28 -42.502 65.0029 -42.502 111.003v216c0 45.333 14.333 82.166 43 110.499s66.334 42.5 113.001 42.5c31.333 0 59 -6.33301 83 -19s42.5 -29.5 55.5 -50.5s19.5 -44.167 19.5 -69.5v-10c0 -6.66699 -3.33301 -10 -10 -10l-51 -2
c-6.66699 0 -10 3.33301 -10 10v7c0 22 -8.16699 41.167 -24.5 57.5s-37.166 24.5 -62.499 24.5s-45.833 -8.83301 -61.5 -26.5s-23.5 -40.834 -23.5 -69.501v-206c0 -28.667 7.83301 -51.834 23.5 -69.501s36.167 -26.5 61.5 -26.5s46.166 8.16699 62.499 24.5
s24.5 35.5 24.5 57.5v7c0 6.66699 3.33301 10 10 10l51 -1c6.66699 0 10 -3.33301 10 -10v-11c0 -40 -14.5 -73.167 -43.5 -99.5s-67.167 -39.5 -114.5 -39.5s-85.166 14 -113.499 42zM96.498 581.503c-1 2.33301 -0.5 5.16699 1.5 8.5l65 103
c3.33301 4.66699 7.33301 7 12 7h60c4.66699 0 8.66699 -2.33301 12 -7l67 -103c1.33301 -2.66699 2 -4.66699 2 -6c0 -4 -2.66699 -6 -8 -6h-44c-4.66699 0 -8.66699 2.33301 -12 7l-43 73c-0.666992 1.33301 -1.66699 2 -3 2s-2.33301 -0.666992 -3 -2l-44 -73
c-3.33301 -4.66699 -7.33301 -7 -12 -7h-43c-4 0 -6.5 1.16699 -7.5 3.5z" />
    <glyph glyph-name="Cdotaccent" unicode="&#x10a;" horiz-adv-x="446" 
d="M101.5 39c-31 31.333 -46.501 73.333 -46.501 126v371c0 52 15.5 93.667 46.5 125s72.167 47 123.5 47c52 0 93.5 -15.5 124.5 -46.5s46.5 -72.833 46.5 -125.5v-17c0 -6.66699 -3.33301 -10 -10 -10l-52 -3c-6.66699 0 -10 3.33301 -10 10v25
c0 31.333 -9 56.666 -27 75.999s-42 29 -72 29c-29.333 0 -53.166 -9.66699 -71.499 -29s-27.5 -44.666 -27.5 -75.999v-382c0 -31.333 9.16699 -56.666 27.5 -75.999s42.166 -29 71.499 -29c30 0 54 9.66699 72 29s27 44.666 27 75.999v25c0 6.66699 3.33301 10 10 10
l52 -3c6.66699 0 10 -3.33301 10 -10v-16c0 -52.667 -15.667 -94.667 -47 -126s-72.666 -47 -123.999 -47s-92.5 15.667 -123.5 47zM185.499 808c-10.333 10.667 -15.5 24 -15.5 40c0 16.667 5.16699 30.167 15.5 40.5s23.833 15.5 40.5 15.5c16 0 29.333 -5.16699 40 -15.5
s16 -23.833 16 -40.5c0 -16 -5.33301 -29.333 -16 -40s-24 -16 -40 -16c-16.667 0 -30.167 5.33301 -40.5 16z" />
    <glyph glyph-name="cdotaccent" unicode="&#x10b;" horiz-adv-x="402" 
d="M92.5 34c-28.333 28 -42.502 65.0029 -42.502 111.003v216c0 45.333 14.333 82.166 43 110.499s66.334 42.5 113.001 42.5c31.333 0 59 -6.33301 83 -19s42.5 -29.5 55.5 -50.5s19.5 -44.167 19.5 -69.5v-10c0 -6.66699 -3.33301 -10 -10 -10l-51 -2
c-6.66699 0 -10 3.33301 -10 10v7c0 22 -8.16699 41.167 -24.5 57.5s-37.166 24.5 -62.499 24.5s-45.833 -8.83301 -61.5 -26.5s-23.5 -40.834 -23.5 -69.501v-206c0 -28.667 7.83301 -51.834 23.5 -69.501s36.167 -26.5 61.5 -26.5s46.166 8.16699 62.499 24.5
s24.5 35.5 24.5 57.5v7c0 6.66699 3.33301 10 10 10l51 -1c6.66699 0 10 -3.33301 10 -10v-11c0 -40 -14.5 -73.167 -43.5 -99.5s-67.167 -39.5 -114.5 -39.5s-85.166 14 -113.499 42zM166.498 614.003c-10.333 10.667 -15.5 24 -15.5 40c0 16.667 5.16699 30.167 15.5 40.5
s23.833 15.5 40.5 15.5c16 0 29.333 -5.16699 40 -15.5s16 -23.833 16 -40.5c0 -16 -5.33301 -29.333 -16 -40s-24 -16 -40 -16c-16.667 0 -30.167 5.33301 -40.5 16z" />
    <glyph glyph-name="Ccaron" unicode="&#x10c;" horiz-adv-x="446" 
d="M101.5 39c-31 31.333 -46.501 73.333 -46.501 126v371c0 52 15.5 93.667 46.5 125s72.167 47 123.5 47c52 0 93.5 -15.5 124.5 -46.5s46.5 -72.833 46.5 -125.5v-17c0 -6.66699 -3.33301 -10 -10 -10l-52 -3c-6.66699 0 -10 3.33301 -10 10v25
c0 31.333 -9 56.666 -27 75.999s-42 29 -72 29c-29.333 0 -53.166 -9.66699 -71.499 -29s-27.5 -44.666 -27.5 -75.999v-382c0 -31.333 9.16699 -56.666 27.5 -75.999s42.166 -29 71.499 -29c30 0 54 9.66699 72 29s27 44.666 27 75.999v25c0 6.66699 3.33301 10 10 10
l52 -3c6.66699 0 10 -3.33301 10 -10v-16c0 -52.667 -15.667 -94.667 -47 -126s-72.666 -47 -123.999 -47s-92.5 15.667 -123.5 47zM116.999 888c0 4 2.66699 5.99902 8 5.99902h43c4.66699 0 8.66699 -2.33301 12 -7l44 -73c0.666992 -0.666992 1.66699 -1 3 -1
s2.33301 0.333008 3 1l43 73c3.33301 4.66699 7.33301 7 12 7h44c4 0 6.5 -1.16699 7.5 -3.5s0.5 -5.16602 -1.5 -8.49902l-67 -103c-3.33301 -4.66699 -7.33301 -7 -12 -7h-60c-4.66699 0 -8.66699 2.33301 -12 7l-65 103c-1.33301 2.66699 -2 4.66699 -2 6z" />
    <glyph glyph-name="ccaron" unicode="&#x10d;" horiz-adv-x="402" 
d="M92.5 34c-28.333 28 -42.502 65.0029 -42.502 111.003v216c0 45.333 14.333 82.166 43 110.499s66.334 42.5 113.001 42.5c31.333 0 59 -6.33301 83 -19s42.5 -29.5 55.5 -50.5s19.5 -44.167 19.5 -69.5v-10c0 -6.66699 -3.33301 -10 -10 -10l-51 -2
c-6.66699 0 -10 3.33301 -10 10v7c0 22 -8.16699 41.167 -24.5 57.5s-37.166 24.5 -62.499 24.5s-45.833 -8.83301 -61.5 -26.5s-23.5 -40.834 -23.5 -69.501v-206c0 -28.667 7.83301 -51.834 23.5 -69.501s36.167 -26.5 61.5 -26.5s46.166 8.16699 62.499 24.5
s24.5 35.5 24.5 57.5v7c0 6.66699 3.33301 10 10 10l51 -1c6.66699 0 10 -3.33301 10 -10v-11c0 -40 -14.5 -73.167 -43.5 -99.5s-67.167 -39.5 -114.5 -39.5s-85.166 14 -113.499 42zM97.998 694.003c0 4 2.66699 5.99902 8 5.99902h43c4.66699 0 8.66699 -2.33301 12 -7
l44 -73c0.666992 -0.666992 1.66699 -1 3 -1s2.33301 0.333008 3 1l43 73c3.33301 4.66699 7.33301 7 12 7h44c4 0 6.5 -1.16699 7.5 -3.5s0.5 -5.16602 -1.5 -8.49902l-67 -103c-3.33301 -4.66699 -7.33301 -7 -12 -7h-60c-4.66699 0 -8.66699 2.33301 -12 7l-65 103
c-1.33301 2.66699 -2 4.66699 -2 6z" />
    <glyph glyph-name="Dcaron" unicode="&#x10e;" horiz-adv-x="465" 
d="M72 10v680.002c0 6.66699 3.33301 10 10 10h154c51.333 0 92.333 -16.833 123 -50.5s46 -78.834 46 -135.501v-328c0 -56.667 -15.333 -101.834 -46 -135.501s-71.667 -50.5 -123 -50.5h-154c-6.66699 -0 -10 3.33301 -10 10zM147 62.002l87.999 0.999023
c29.333 0 52.833 11.333 70.5 34s26.834 53.334 27.501 92.001v322c0 39.333 -8.66699 70.333 -26 93s-41.333 34 -72 34h-88c-2.66699 0 -4 -1.33301 -4 -4v-568c0 -2.66699 1.33301 -4 4 -4zM120.999 886.001c0 4 2.66699 5.99902 8 5.99902h43
c4.66699 0 8.66699 -2.33301 12 -7l44 -73c0.666992 -0.666992 1.66699 -1 3 -1s2.33301 0.333008 3 1l43 73c3.33301 4.66699 7.33301 7 12 7h44c4 0 6.5 -1.16699 7.5 -3.5s0.5 -5.16602 -1.5 -8.49902l-67 -103c-3.33301 -4.66699 -7.33301 -7 -12 -7h-60
c-4.66699 0 -8.66699 2.33301 -12 7l-65 103c-1.33301 2.66699 -2 4.66699 -2 6z" />
    <glyph glyph-name="dcaron" unicode="&#x10f;" horiz-adv-x="423" 
d="M301 700l51 -0.00195312c6.66699 0 10 -3.33301 10 -10v-680c0 -6.66699 -3.33301 -10 -10 -10h-51c-6.66699 0 -10 3.33301 -10 10v22c0 1.33301 -0.5 2.33301 -1.5 3s-2.16699 0.333984 -3.5 -0.999023c-25.333 -28 -57.333 -42 -96 -42
c-42.667 0 -76.667 14.167 -102 42.5s-38 65.166 -38 110.499v216c0 46.667 12.667 83.834 38 111.501s59.333 41.5 102 41.5c39.333 0 71.333 -14.333 96 -43c1.33301 -1.33301 2.5 -1.66602 3.5 -0.999023s1.5 1.66699 1.5 3v217c0 6.66699 3.33301 10 10 10z
M267.5 80.498c15.667 17.667 23.5 40.5 23.5 68.5v207c0 28.667 -7.83301 51.834 -23.5 69.501s-35.834 26.5 -60.501 26.5c-25.333 0 -46.166 -8.83301 -62.499 -26.5s-24.5 -40.834 -24.5 -69.501v-207c0 -28 8.16699 -50.833 24.5 -68.5s37.166 -26.5 62.499 -26.5
c24.667 0 44.834 8.83301 60.501 26.5zM423 575.498c-1.33301 2.33301 -1 5.16602 1 8.49902l62 109c3.33301 4.66699 7.33301 7 12 7h41c4 0 6.5 -1.16699 7.5 -3.5s0.5 -5.16602 -1.5 -8.49902l-70 -109c-3.33301 -4.66699 -7.33301 -7 -12 -7h-32
c-4 0 -6.66699 1.16699 -8 3.5z" />
    <glyph glyph-name="Dcroat" unicode="&#x110;" horiz-adv-x="509" 
d="M402 649.5c30.667 -33.667 46 -78.832 46 -135.499v-328c0 -56.667 -15.333 -101.834 -46 -135.501s-71.667 -50.5 -123 -50.5h-154c-6.66699 -0 -10 3.33301 -10 10v329c0 2.66699 -1.33301 4 -4 4h-29c-6.66699 0 -10 3.33301 -10 10v26c0 6.66699 3.33301 10 10 10h29
c2.66699 0 4 1.33301 4 4v297c0 6.66699 3.33301 10 10 10h154c51.333 0 92.333 -16.833 123 -50.5zM376 511.002c0 39.333 -8.66602 70.332 -25.999 92.999s-41.333 34 -72 34h-88c-2.66699 0 -4 -1.33301 -4 -4v-241c0 -2.66699 1.33301 -4 4 -4h75
c6.66699 0 10 -3.33301 10 -10v-26c0 -6.66699 -3.33301 -10 -10 -10h-75c-2.66699 0 -4 -1.33301 -4 -4v-273c0 -2.66699 1.33301 -4 4 -4l89 1c29.333 0 52.666 11.333 69.999 34s26.333 53.334 27 92.001v322z" />
    <glyph glyph-name="dcroat" unicode="&#x111;" horiz-adv-x="423" 
d="M410 605v-28.002c0 -6.66699 -3.33301 -10 -10 -10h-34c-2.66699 0 -4 -1.33301 -4 -4v-553c0 -6.66699 -3.33301 -10 -10 -10h-51c-6.66699 0 -10 3.33301 -10 10v22c0 1.33301 -0.5 2.33301 -1.5 3s-2.16699 0.333984 -3.5 -0.999023c-25.333 -28 -57.333 -42 -96 -42
c-42.667 0 -76.667 14.167 -102 42.5s-38 65.166 -38 110.499v216c0 46.667 12.667 83.834 38 111.501s59.333 41.5 102 41.5c39.333 0 71.333 -14.333 96 -43c1.33301 -1.33301 2.5 -1.66602 3.5 -0.999023s1.5 1.66699 1.5 3v90c0 2.66699 -1.33301 4 -4 4h-134
c-6.66699 0 -10 3.33301 -10 10v28c0 6.66699 3.33301 10 10 10h134c2.66699 0 4 1.33301 4 4v71c0 6.66699 3.33301 10 10 10h51c6.66699 0 10 -3.33301 10 -10v-71c0 -2.66699 1.33301 -4 4 -4h34c6.66699 0 10 -3.33301 10 -10zM267.5 80.498
c15.667 17.667 23.5 40.5 23.5 68.5v207c0 28.667 -7.83301 51.834 -23.5 69.501s-35.834 26.5 -60.501 26.5c-25.333 0 -46.166 -8.83301 -62.499 -26.5s-24.5 -40.834 -24.5 -69.501v-207c0 -28 8.16699 -50.833 24.5 -68.5s37.166 -26.5 62.499 -26.5
c24.667 0 44.834 8.83301 60.501 26.5z" />
    <glyph glyph-name="Emacron" unicode="&#x112;" horiz-adv-x="429" 
d="M379 638h-232c-2.66699 0 -4 -1.33301 -4 -4v-248c0 -2.66699 1.33301 -4 4 -4h146c6.66699 0 10 -3.33301 10 -10v-43c0 -6.66699 -3.33301 -10 -10 -10h-146c-2.66699 0 -4 -1.33301 -4 -4v-249c0 -2.66699 1.33301 -4 4 -4h232c6.66699 0 10 -3.33301 10 -10v-42
c0 -6.66699 -3.33301 -10 -10 -10h-297c-6.66699 -0 -10 3.33301 -10 10v680c0 6.66699 3.33301 10 10 10h297c6.66699 0 10 -3.33301 10 -10v-42c0 -6.66699 -3.33301 -10 -10 -10zM128 799v32c0 6.66699 3.33301 10 10 10h183c6.66699 0 10 -3.33301 10 -10v-32
c0 -6.66699 -3.33301 -10 -10 -10h-183c-6.66699 0 -10 3.33301 -10 10z" />
    <glyph glyph-name="emacron" unicode="&#x113;" horiz-adv-x="408" 
d="M353 226h-228c-2.66699 0 -4 -1.33301 -4 -4v-73c0 -28 7.83301 -50.833 23.5 -68.5s36.167 -26.5 61.5 -26.5c21.333 0 39.5 6.5 54.5 19.5s24.833 29.833 29.5 50.5c2 6 5.66699 9 11 9l50 -2c2.66699 0 5 -1 7 -3s2.66699 -4.66699 2 -8
c-5.33301 -39.333 -21.5 -70.5 -48.5 -93.5s-62.167 -34.5 -105.5 -34.5c-47.333 0 -85.166 14 -113.499 42s-42.5 65 -42.5 111v216c0 45.333 14.167 82.166 42.5 110.499s66.166 42.5 113.499 42.5c48 0 86.167 -14.167 114.5 -42.5s42.5 -65.166 42.5 -110.499v-125
c0 -6.66699 -3.33301 -10 -10 -10zM144.5 425.5c-15.667 -17.667 -23.5 -40.834 -23.5 -69.501v-67c0 -2.66699 1.33301 -4 4 -4h164c2.66699 0 4 1.33301 4 4v67c0 28.667 -8 51.834 -24 69.501s-37 26.5 -63 26.5c-25.333 0 -45.833 -8.83301 -61.5 -26.5zM101 631v32
c0 6.66699 3.33301 10 10 10h183c6.66699 0 10 -3.33301 10 -10v-32c0 -6.66699 -3.33301 -10 -10 -10h-183c-6.66699 0 -10 3.33301 -10 10z" />
    <glyph glyph-name="Edotaccent" unicode="&#x116;" horiz-adv-x="429" 
d="M379 638h-232c-2.66699 0 -4 -1.33301 -4 -4v-248c0 -2.66699 1.33301 -4 4 -4h146c6.66699 0 10 -3.33301 10 -10v-43c0 -6.66699 -3.33301 -10 -10 -10h-146c-2.66699 0 -4 -1.33301 -4 -4v-249c0 -2.66699 1.33301 -4 4 -4h232c6.66699 0 10 -3.33301 10 -10v-42
c0 -6.66699 -3.33301 -10 -10 -10h-297c-6.66699 -0 -10 3.33301 -10 10v680c0 6.66699 3.33301 10 10 10h297c6.66699 0 10 -3.33301 10 -10v-42c0 -6.66699 -3.33301 -10 -10 -10zM190.5 808c-10.333 10.667 -15.5 24 -15.5 40c0 16.667 5.16699 30.167 15.5 40.5
s23.833 15.5 40.5 15.5c16 0 29.333 -5.16699 40 -15.5s16 -23.833 16 -40.5c0 -16 -5.33301 -29.333 -16 -40s-24 -16 -40 -16c-16.667 0 -30.167 5.33301 -40.5 16z" />
    <glyph glyph-name="edotaccent" unicode="&#x117;" horiz-adv-x="408" 
d="M353 226h-228c-2.66699 0 -4 -1.33301 -4 -4v-73c0 -28 7.83301 -50.833 23.5 -68.5s36.167 -26.5 61.5 -26.5c21.333 0 39.5 6.5 54.5 19.5s24.833 29.833 29.5 50.5c2 6 5.66699 9 11 9l50 -2c2.66699 0 5 -1 7 -3s2.66699 -4.66699 2 -8
c-5.33301 -39.333 -21.5 -70.5 -48.5 -93.5s-62.167 -34.5 -105.5 -34.5c-47.333 0 -85.166 14 -113.499 42s-42.5 65 -42.5 111v216c0 45.333 14.167 82.166 42.5 110.499s66.166 42.5 113.499 42.5c48 0 86.167 -14.167 114.5 -42.5s42.5 -65.166 42.5 -110.499v-125
c0 -6.66699 -3.33301 -10 -10 -10zM144.5 425.5c-15.667 -17.667 -23.5 -40.834 -23.5 -69.501v-67c0 -2.66699 1.33301 -4 4 -4h164c2.66699 0 4 1.33301 4 4v67c0 28.667 -8 51.834 -24 69.501s-37 26.5 -63 26.5c-25.333 0 -45.833 -8.83301 -61.5 -26.5zM164.5 614
c-10.333 10.667 -15.5 24 -15.5 40c0 16.667 5.16699 30.167 15.5 40.5s23.833 15.5 40.5 15.5c16 0 29.333 -5.16699 40 -15.5s16 -23.833 16 -40.5c0 -16 -5.33301 -29.333 -16 -40s-24 -16 -40 -16c-16.667 0 -30.167 5.33301 -40.5 16z" />
    <glyph glyph-name="Eogonek" unicode="&#x118;" horiz-adv-x="429" 
d="M379 638h-231.998c-2.66699 0 -4 -1.33301 -4 -4v-248c0 -2.66699 1.33301 -4 4 -4h146c6.66699 0 10 -3.33301 10 -10v-43c0 -6.66699 -3.33301 -10 -10 -10h-146c-2.66699 0 -4 -1.33301 -4 -4v-249c0 -2.66699 1.33301 -4 4 -4h232c6.66699 0 10 -3.33301 10 -10v-42
c0 -6.66699 -3.33301 -10 -10 -10h-123c-2 -0 -3.66699 -0.666992 -5 -2c-30 -30 -45 -58.667 -45 -86c0 -5.33301 0.333008 -9.33301 1 -12c2 -14 7.5 -23.667 16.5 -29s19.833 -7.33301 32.5 -6c2 0 3.33301 0.333008 4 1c5.33301 0 8.66602 -2.66699 9.99902 -8l3 -22v-2
c0 -4.66699 -2.66699 -7.66699 -8 -9c-8.66699 -2 -18.667 -3 -30 -3c-22 0 -40.833 6.16699 -56.5 18.5s-23.5 33.5 -23.5 63.5c0 32.667 13.667 63 41 91c1.33301 1.33301 1.66602 2.5 0.999023 3.5s-1.66699 1.5 -3 1.5h-112c-6.66699 -0 -10 3.33301 -10 10v680
c0 6.66699 3.33301 10 10 10h297c6.66699 0 10 -3.33301 10 -10v-42c0 -6.66699 -3.33301 -10 -10 -10z" />
    <glyph glyph-name="eogonek" unicode="&#x119;" horiz-adv-x="408" 
d="M353 226h-227.999c-2.66699 0 -4 -1.33301 -4 -4v-73c0 -28 7.83301 -50.833 23.5 -68.5s36.167 -26.5 61.5 -26.5c21.333 0 39.5 6.5 54.5 19.5s24.833 29.833 29.5 50.5c2 6 5.66699 9 11 9l50 -2c2.66699 0 5 -1 7 -3s2.66699 -4.66699 2 -8
c-5.33301 -36.667 -19.5 -66.167 -42.5 -88.5s-53.5 -35.166 -91.5 -38.499c-2 0 -3.66699 -0.666992 -5 -2c-25.333 -27.333 -38 -53.666 -38 -78.999c0 -16.667 4 -28.834 12 -36.501s18 -11.5 30 -11.5c4.66699 0 8 0.333008 10 1l4 1c4 0 6.66699 -2.66699 8 -8l3 -22
v-3c0 -4.66699 -2.33301 -7.33398 -7 -8.00098c-8.66699 -2 -18.667 -3 -30 -3c-18.667 0 -35.167 4.33301 -49.5 13s-23.833 23.667 -28.5 45c-1.33301 10.667 -2 18.334 -2 23.001c0 32.667 12 62 36 88c2.66699 2.66699 2 4.33398 -2 5.00098
c-36 7.33301 -64.5 24.166 -85.5 50.499s-31.5 59.166 -31.5 98.499v216c0 45.333 14.167 82.166 42.5 110.499s66.166 42.5 113.499 42.5c48 0 86.167 -14.167 114.5 -42.5s42.5 -65.166 42.5 -110.499v-125c0 -6.66699 -3.33301 -10 -10 -10zM144.501 425.5
c-15.667 -17.667 -23.5 -40.834 -23.5 -69.501v-67c0 -2.66699 1.33301 -4 4 -4h164c2.66699 0 4 1.33301 4 4v67c0 28.667 -8 51.834 -24 69.501s-37 26.5 -63 26.5c-25.333 0 -45.833 -8.83301 -61.5 -26.5z" />
    <glyph glyph-name="Ecaron" unicode="&#x11a;" horiz-adv-x="429" 
d="M379 638h-232c-2.66699 0 -4 -1.33301 -4 -4v-248c0 -2.66699 1.33301 -4 4 -4h146c6.66699 0 10 -3.33301 10 -10v-43c0 -6.66699 -3.33301 -10 -10 -10h-146c-2.66699 0 -4 -1.33301 -4 -4v-249c0 -2.66699 1.33301 -4 4 -4h232c6.66699 0 10 -3.33301 10 -10v-42
c0 -6.66699 -3.33301 -10 -10 -10h-297c-6.66699 -0 -10 3.33301 -10 10v680c0 6.66699 3.33301 10 10 10h297c6.66699 0 10 -3.33301 10 -10v-42c0 -6.66699 -3.33301 -10 -10 -10zM123 888c0 4 2.66699 5.99902 8 5.99902h43c4.66699 0 8.66699 -2.33301 12 -7l44 -73
c0.666992 -0.666992 1.66699 -1 3 -1s2.33301 0.333008 3 1l43 73c3.33301 4.66699 7.33301 7 12 7h44c4 0 6.5 -1.16699 7.5 -3.5s0.5 -5.16602 -1.5 -8.49902l-67 -103c-3.33301 -4.66699 -7.33301 -7 -12 -7h-60c-4.66699 0 -8.66699 2.33301 -12 7l-65 103
c-1.33301 2.66699 -2 4.66699 -2 6z" />
    <glyph glyph-name="ecaron" unicode="&#x11b;" horiz-adv-x="408" 
d="M353 226h-228c-2.66699 0 -4 -1.33301 -4 -4v-73c0 -28 7.83301 -50.833 23.5 -68.5s36.167 -26.5 61.5 -26.5c21.333 0 39.5 6.5 54.5 19.5s24.833 29.833 29.5 50.5c2 6 5.66699 9 11 9l50 -2c2.66699 0 5 -1 7 -3s2.66699 -4.66699 2 -8
c-5.33301 -39.333 -21.5 -70.5 -48.5 -93.5s-62.167 -34.5 -105.5 -34.5c-47.333 0 -85.166 14 -113.499 42s-42.5 65 -42.5 111v216c0 45.333 14.167 82.166 42.5 110.499s66.166 42.5 113.499 42.5c48 0 86.167 -14.167 114.5 -42.5s42.5 -65.166 42.5 -110.499v-125
c0 -6.66699 -3.33301 -10 -10 -10zM144.5 425.5c-15.667 -17.667 -23.5 -40.834 -23.5 -69.501v-67c0 -2.66699 1.33301 -4 4 -4h164c2.66699 0 4 1.33301 4 4v67c0 28.667 -8 51.834 -24 69.501s-37 26.5 -63 26.5c-25.333 0 -45.833 -8.83301 -61.5 -26.5zM96 692
c0 4 2.66699 5.99902 8 5.99902h43c4.66699 0 8.66699 -2.33301 12 -7l44 -73c0.666992 -0.666992 1.66699 -1 3 -1s2.33301 0.333008 3 1l43 73c3.33301 4.66699 7.33301 7 12 7h44c4 0 6.5 -1.16699 7.5 -3.5s0.5 -5.16602 -1.5 -8.49902l-67 -103
c-3.33301 -4.66699 -7.33301 -7 -12 -7h-60c-4.66699 0 -8.66699 2.33301 -12 7l-65 103c-1.33301 2.66699 -2 4.66699 -2 6z" />
    <glyph glyph-name="Gcircumflex" unicode="&#x11c;" horiz-adv-x="451" 
d="M102 37.5c-30.667 30.333 -46 70.834 -46 121.501v382c0 50.667 15.333 91.167 46 121.5s71.667 45.5 123 45.5s92.5 -15.333 123.5 -46s46.5 -71.334 46.5 -122.001v-43c0 -6.66699 -3.33301 -10 -10 -10h-51c-6.66699 0 -10 3.33301 -10 10v45
c0 31.333 -9 56.5 -27 75.5s-42 28.5 -72 28.5c-29.333 0 -53.166 -9.66699 -71.499 -29s-27.5 -44.333 -27.5 -75v-384c0 -30.667 9.16699 -55.667 27.5 -75s42.166 -29 71.499 -29c30 0 54 9.5 72 28.5s27 44.167 27 75.5v128c0 2.66699 -1.33301 4 -4 4h-86
c-6.66699 0 -10 3.33301 -10 10v42c0 6.66699 3.33301 10 10 10h151c6.66699 0 10 -3.33301 10 -10v-183c0 -50.667 -15.5 -91.167 -46.5 -121.5s-72.167 -45.5 -123.5 -45.5s-92.333 15.167 -123 45.5zM115.5 775.501c-1 2.33301 -0.5 5.16699 1.5 8.5l65 103
c3.33301 4.66699 7.33301 7 12 7h60c4.66699 0 8.66699 -2.33301 12 -7l67 -103c1.33301 -2.66699 2 -4.66699 2 -6c0 -4 -2.66699 -6 -8 -6h-44c-4.66699 0 -8.66699 2.33301 -12 7l-43 73c-0.666992 1.33301 -1.66699 2 -3 2s-2.33301 -0.666992 -3 -2l-44 -73
c-3.33301 -4.66699 -7.33301 -7 -12 -7h-43c-4 0 -6.5 1.16699 -7.5 3.5z" />
    <glyph glyph-name="gcircumflex" unicode="&#x11d;" horiz-adv-x="413" 
d="M301 506l51.001 -0.00292969c6.66699 0 10 -3.33301 10 -10v-486c0 -71.333 -16.5 -125.5 -49.5 -162.5s-88.167 -53.833 -165.5 -50.5c-6.66699 0.666992 -10 4.33398 -10 11.001v43c0 6.66699 3.33301 10 10 10c53.333 -1.33301 90.666 10.834 111.999 36.501
s32 65.167 32 118.5v30c0 1.33301 -0.5 2.33301 -1.5 3s-2.16699 0.333984 -3.5 -0.999023c-11.333 -16.667 -25.833 -29.334 -43.5 -38.001s-36.5 -13 -56.5 -13c-42 0 -75.167 14 -99.5 42s-36.5 65 -36.5 111v211c0 46.667 12.167 83.834 36.5 111.501
s57.5 41.5 99.5 41.5c20 0 38.833 -4.16699 56.5 -12.5s32.167 -20.833 43.5 -37.5c1.33301 -2 2.5 -2.83301 3.5 -2.5s1.5 1.5 1.5 3.5v31c0 6.66699 3.33301 10 10 10zM267.501 85.4971c15.667 17.667 23.5 40.5 23.5 68.5v202c0 28.667 -7.83301 51.834 -23.5 69.501
s-35.834 26.5 -60.501 26.5c-25.333 0 -46 -8.83301 -62 -26.5s-24 -40.834 -24 -69.501v-202c0 -28 8 -50.833 24 -68.5s36.667 -26.5 62 -26.5c24.667 0 44.834 8.83301 60.501 26.5zM97.501 581.497c-1 2.33301 -0.5 5.16699 1.5 8.5l65 103
c3.33301 4.66699 7.33301 7 12 7h60c4.66699 0 8.66699 -2.33301 12 -7l67 -103c1.33301 -2.66699 2 -4.66699 2 -6c0 -4 -2.66699 -6 -8 -6h-44c-4.66699 0 -8.66699 2.33301 -12 7l-43 73c-0.666992 1.33301 -1.66699 2 -3 2s-2.33301 -0.666992 -3 -2l-44 -73
c-3.33301 -4.66699 -7.33301 -7 -12 -7h-43c-4 0 -6.5 1.16699 -7.5 3.5z" />
    <glyph glyph-name="Gbreve" unicode="&#x11e;" horiz-adv-x="451" 
d="M102 37.5c-30.667 30.333 -46 70.834 -46 121.501v382c0 50.667 15.333 91.167 46 121.5s71.667 45.5 123 45.5s92.5 -15.333 123.5 -46s46.5 -71.334 46.5 -122.001v-43c0 -6.66699 -3.33301 -10 -10 -10h-51c-6.66699 0 -10 3.33301 -10 10v45
c0 31.333 -9 56.5 -27 75.5s-42 28.5 -72 28.5c-29.333 0 -53.166 -9.66699 -71.499 -29s-27.5 -44.333 -27.5 -75v-384c0 -30.667 9.16699 -55.667 27.5 -75s42.166 -29 71.499 -29c30 0 54 9.5 72 28.5s27 44.167 27 75.5v128c0 2.66699 -1.33301 4 -4 4h-86
c-6.66699 0 -10 3.33301 -10 10v42c0 6.66699 3.33301 10 10 10h151c6.66699 0 10 -3.33301 10 -10v-183c0 -50.667 -15.5 -91.167 -46.5 -121.5s-72.167 -45.5 -123.5 -45.5s-92.333 15.167 -123 45.5zM153 779.001c-19.333 18 -30.335 40.667 -33.002 68
c0 6.66699 3.33301 10 10 10h23c6.66699 0 10.334 -3.33301 11.001 -10c2 -16.667 8.66699 -30.334 20 -41.001s25 -16 41 -16s29.667 5.33301 41 16s18 24.334 20 41.001c0.666992 6.66699 4.33398 10 11.001 10h23c6.66699 0 10 -3.33301 10 -10
c-2.66699 -28 -13.667 -50.833 -33 -68.5s-43.333 -26.5 -72 -26.5s-52.667 9 -72 27z" />
    <glyph glyph-name="gbreve" unicode="&#x11f;" horiz-adv-x="413" 
d="M301 506l51.001 -0.00292969c6.66699 0 10 -3.33301 10 -10v-486c0 -71.333 -16.5 -125.5 -49.5 -162.5s-88.167 -53.833 -165.5 -50.5c-6.66699 0.666992 -10 4.33398 -10 11.001v43c0 6.66699 3.33301 10 10 10c53.333 -1.33301 90.666 10.834 111.999 36.501
s32 65.167 32 118.5v30c0 1.33301 -0.5 2.33301 -1.5 3s-2.16699 0.333984 -3.5 -0.999023c-11.333 -16.667 -25.833 -29.334 -43.5 -38.001s-36.5 -13 -56.5 -13c-42 0 -75.167 14 -99.5 42s-36.5 65 -36.5 111v211c0 46.667 12.167 83.834 36.5 111.501
s57.5 41.5 99.5 41.5c20 0 38.833 -4.16699 56.5 -12.5s32.167 -20.833 43.5 -37.5c1.33301 -2 2.5 -2.83301 3.5 -2.5s1.5 1.5 1.5 3.5v31c0 6.66699 3.33301 10 10 10zM267.501 85.4971c15.667 17.667 23.5 40.5 23.5 68.5v202c0 28.667 -7.83301 51.834 -23.5 69.501
s-35.834 26.5 -60.501 26.5c-25.333 0 -46 -8.83301 -62 -26.5s-24 -40.834 -24 -69.501v-202c0 -28 8 -50.833 24 -68.5s36.667 -26.5 62 -26.5c24.667 0 44.834 8.83301 60.501 26.5zM135.001 584.997c-19.333 18 -30.335 40.667 -33.002 68c0 6.66699 3.33301 10 10 10
h23c6.66699 0 10.334 -3.33301 11.001 -10c2 -16.667 8.66699 -30.334 20 -41.001s25 -16 41 -16s29.667 5.33301 41 16s18 24.334 20 41.001c0.666992 6.66699 4.33398 10 11.001 10h23c6.66699 0 10 -3.33301 10 -10c-2.66699 -28 -13.667 -50.833 -33 -68.5
s-43.333 -26.5 -72 -26.5s-52.667 9 -72 27z" />
    <glyph glyph-name="Gdotaccent" unicode="&#x120;" horiz-adv-x="451" 
d="M102 37.5c-30.667 30.333 -46 70.834 -46 121.501v382c0 50.667 15.333 91.167 46 121.5s71.667 45.5 123 45.5s92.5 -15.333 123.5 -46s46.5 -71.334 46.5 -122.001v-43c0 -6.66699 -3.33301 -10 -10 -10h-51c-6.66699 0 -10 3.33301 -10 10v45
c0 31.333 -9 56.5 -27 75.5s-42 28.5 -72 28.5c-29.333 0 -53.166 -9.66699 -71.499 -29s-27.5 -44.333 -27.5 -75v-384c0 -30.667 9.16699 -55.667 27.5 -75s42.166 -29 71.499 -29c30 0 54 9.5 72 28.5s27 44.167 27 75.5v128c0 2.66699 -1.33301 4 -4 4h-86
c-6.66699 0 -10 3.33301 -10 10v42c0 6.66699 3.33301 10 10 10h151c6.66699 0 10 -3.33301 10 -10v-183c0 -50.667 -15.5 -91.167 -46.5 -121.5s-72.167 -45.5 -123.5 -45.5s-92.333 15.167 -123 45.5zM185.5 808.001c-10.333 10.667 -15.5 24 -15.5 40
c0 16.667 5.16699 30.167 15.5 40.5s23.833 15.5 40.5 15.5c16 0 29.333 -5.16699 40 -15.5s16 -23.833 16 -40.5c0 -16 -5.33301 -29.333 -16 -40s-24 -16 -40 -16c-16.667 0 -30.167 5.33301 -40.5 16z" />
    <glyph glyph-name="gdotaccent" unicode="&#x121;" horiz-adv-x="413" 
d="M301 506l51.001 -0.00292969c6.66699 0 10 -3.33301 10 -10v-486c0 -71.333 -16.5 -125.5 -49.5 -162.5s-88.167 -53.833 -165.5 -50.5c-6.66699 0.666992 -10 4.33398 -10 11.001v43c0 6.66699 3.33301 10 10 10c53.333 -1.33301 90.666 10.834 111.999 36.501
s32 65.167 32 118.5v30c0 1.33301 -0.5 2.33301 -1.5 3s-2.16699 0.333984 -3.5 -0.999023c-11.333 -16.667 -25.833 -29.334 -43.5 -38.001s-36.5 -13 -56.5 -13c-42 0 -75.167 14 -99.5 42s-36.5 65 -36.5 111v211c0 46.667 12.167 83.834 36.5 111.501
s57.5 41.5 99.5 41.5c20 0 38.833 -4.16699 56.5 -12.5s32.167 -20.833 43.5 -37.5c1.33301 -2 2.5 -2.83301 3.5 -2.5s1.5 1.5 1.5 3.5v31c0 6.66699 3.33301 10 10 10zM267.501 85.4971c15.667 17.667 23.5 40.5 23.5 68.5v202c0 28.667 -7.83301 51.834 -23.5 69.501
s-35.834 26.5 -60.501 26.5c-25.333 0 -46 -8.83301 -62 -26.5s-24 -40.834 -24 -69.501v-202c0 -28 8 -50.833 24 -68.5s36.667 -26.5 62 -26.5c24.667 0 44.834 8.83301 60.501 26.5zM167.501 613.997c-10.333 10.667 -15.5 24 -15.5 40
c0 16.667 5.16699 30.167 15.5 40.5s23.833 15.5 40.5 15.5c16 0 29.333 -5.16699 40 -15.5s16 -23.833 16 -40.5c0 -16 -5.33301 -29.333 -16 -40s-24 -16 -40 -16c-16.667 0 -30.167 5.33301 -40.5 16z" />
    <glyph glyph-name="uni0122" unicode="&#x122;" horiz-adv-x="451" 
d="M102 37.5c-30.667 30.333 -46 70.834 -46 121.501v382c0 50.667 15.333 91.167 46 121.5s71.667 45.5 123 45.5s92.5 -15.333 123.5 -46s46.5 -71.334 46.5 -122.001v-43c0 -6.66699 -3.33301 -10 -10 -10h-51c-6.66699 0 -10 3.33301 -10 10v45
c0 31.333 -9 56.5 -27 75.5s-42 28.5 -72 28.5c-29.333 0 -53.166 -9.66699 -71.499 -29s-27.5 -44.333 -27.5 -75v-384c0 -30.667 9.16699 -55.667 27.5 -75s42.166 -29 71.499 -29c30 0 54 9.5 72 28.5s27 44.167 27 75.5v128c0 2.66699 -1.33301 4 -4 4h-86
c-6.66699 0 -10 3.33301 -10 10v42c0 6.66699 3.33301 10 10 10h151c6.66699 0 10 -3.33301 10 -10v-183c0 -50.667 -15.5 -91.167 -46.5 -121.5s-72.167 -45.5 -123.5 -45.5s-92.333 15.167 -123 45.5zM175 -194.499c-1.33301 2.33301 -1 5.16602 1 8.49902l62 109
c3.33301 4.66699 7.33301 7 12 7h41c4 0 6.5 -1.16699 7.5 -3.5s0.5 -5.16602 -1.5 -8.49902l-70 -109c-3.33301 -4.66699 -7.33301 -7 -12 -7h-32c-4 0 -6.66699 1.16699 -8 3.5z" />
    <glyph glyph-name="uni0123" unicode="&#x123;" horiz-adv-x="413" 
d="M256 692.5c1.33301 -2.33301 1 -5.16602 -1 -8.49902l-62 -109c-3.33301 -4.66699 -7.33301 -7 -12 -7h-41c-4 0 -6.5 1.16699 -7.5 3.5s-0.5 5.16602 1.5 8.49902l70 109c3.33301 4.66699 7.33301 7 12 7h32c4 0 6.66699 -1.16699 8 -3.5zM301 506l51.001 -0.00292969
c6.66699 0 10 -3.33301 10 -10v-486c0 -71.333 -16.5 -125.5 -49.5 -162.5s-88.167 -53.833 -165.5 -50.5c-6.66699 0.666992 -10 4.33398 -10 11.001v43c0 6.66699 3.33301 10 10 10c53.333 -1.33301 90.666 10.834 111.999 36.501s32 65.167 32 118.5v30
c0 1.33301 -0.5 2.33301 -1.5 3s-2.16699 0.333984 -3.5 -0.999023c-11.333 -16.667 -25.833 -29.334 -43.5 -38.001s-36.5 -13 -56.5 -13c-42 0 -75.167 14 -99.5 42s-36.5 65 -36.5 111v211c0 46.667 12.167 83.834 36.5 111.501s57.5 41.5 99.5 41.5
c20 0 38.833 -4.16699 56.5 -12.5s32.167 -20.833 43.5 -37.5c1.33301 -2 2.5 -2.83301 3.5 -2.5s1.5 1.5 1.5 3.5v31c0 6.66699 3.33301 10 10 10zM267.501 85.4971c15.667 17.667 23.5 40.5 23.5 68.5v202c0 28.667 -7.83301 51.834 -23.5 69.501
s-35.834 26.5 -60.501 26.5c-25.333 0 -46 -8.83301 -62 -26.5s-24 -40.834 -24 -69.501v-202c0 -28 8 -50.833 24 -68.5s36.667 -26.5 62 -26.5c24.667 0 44.834 8.83301 60.501 26.5z" />
    <glyph glyph-name="Hcircumflex" unicode="&#x124;" horiz-adv-x="472" 
d="M339 700h51c6.66699 0 10 -3.33301 10 -10v-680c0 -6.66699 -3.33301 -10 -10 -10h-51c-6.66699 -0 -10 3.33301 -10 10v305c0 2.66699 -1.33301 4 -4 4h-178c-2.66699 0 -4 -1.33301 -4 -4v-305c0 -6.66699 -3.33301 -10 -10 -10h-51c-6.66699 -0 -10 3.33301 -10 10
v680c0 6.66699 3.33301 10 10 10h51c6.66699 0 10 -3.33301 10 -10v-304c0 -2.66699 1.33301 -4 4 -4h178c2.66699 0 4 1.33301 4 4v304c0 6.66699 3.33301 10 10 10zM123.5 776.5c-1 2.33301 -0.5 5.16699 1.5 8.5l65 103c3.33301 4.66699 7.33301 7 12 7h60
c4.66699 0 8.66699 -2.33301 12 -7l67 -103c1.33301 -2.66699 2 -4.66699 2 -6c0 -4 -2.66699 -6 -8 -6h-44c-4.66699 0 -8.66699 2.33301 -12 7l-43 73c-0.666992 1.33301 -1.66699 2 -3 2s-2.33301 -0.666992 -3 -2l-44 -73c-3.33301 -4.66699 -7.33301 -7 -12 -7h-43
c-4 0 -6.5 1.16699 -7.5 3.5z" />
    <glyph glyph-name="hcircumflex" unicode="&#x125;" 
d="M335.5 471c22.333 -28 33.499 -67.001 33.499 -117.001v-344c0 -6.66699 -3.33301 -10 -10 -10h-51c-6.66699 0 -10 3.33301 -10 10v338c0 32.667 -7.16699 58 -21.5 76s-34.166 27 -59.499 27c-26.667 0 -47.5 -9.66699 -62.5 -29s-22.5 -45.666 -22.5 -78.999v-333
c0 -6.66699 -3.33301 -10 -10 -10h-51c-6.66699 -0 -10 3.33301 -10 10v680c0 6.66699 3.33301 10 10 10h51c6.66699 0 10 -3.33301 10 -10v-226c0 -1.33301 0.666992 -2.33301 2 -3s2.33301 0 3 2c12 16.667 27.167 29.167 45.5 37.5s37.833 12.5 58.5 12.5
c40.667 0 72.167 -14 94.5 -42zM108.499 753.499c-1 2.33301 -0.5 5.16699 1.5 8.5l65 103c3.33301 4.66699 7.33301 7 12 7h60c4.66699 0 8.66699 -2.33301 12 -7l67 -103c1.33301 -2.66699 2 -4.66699 2 -6c0 -4 -2.66699 -6 -8 -6h-44c-4.66699 0 -8.66699 2.33301 -12 7
l-43 73c-0.666992 1.33301 -1.66699 2 -3 2s-2.33301 -0.666992 -3 -2l-44 -73c-3.33301 -4.66699 -7.33301 -7 -12 -7h-43c-4 0 -6.5 1.16699 -7.5 3.5z" />
    <glyph glyph-name="Hbar" unicode="&#x126;" horiz-adv-x="472" 
d="M448 549v-31c0 -6.66699 -3.33301 -10 -10 -10h-34c-2.66699 0 -4 -1.33301 -4 -4v-494c0 -6.66699 -3.33301 -10 -10 -10h-51c-6.66699 -0 -10 3.33301 -10 10v305c0 2.66699 -1.33301 4 -4 4h-178c-2.66699 0 -4 -1.33301 -4 -4v-305c0 -6.66699 -3.33301 -10 -10 -10
h-51c-6.66699 -0 -10 3.33301 -10 10v494c0 2.66699 -1.33301 4 -4 4h-34c-6.66699 0 -10 3.33301 -10 10v31c0 6.66699 3.33301 10 10 10h34c2.66699 0 4 1.33301 4 4v127c0 6.66699 3.33301 10 10 10h51c6.66699 0 10 -3.33301 10 -10v-127c0 -2.66699 1.33301 -4 4 -4
h178c2.66699 0 4 1.33301 4 4v127c0 6.66699 3.33301 10 10 10h51c6.66699 0 10 -3.33301 10 -10v-127c0 -2.66699 1.33301 -4 4 -4h34c6.66699 0 10 -3.33301 10 -10zM329 386v118c0 2.66699 -1.33301 4 -4 4h-178c-2.66699 0 -4 -1.33301 -4 -4v-118
c0 -2.66699 1.33301 -4 4 -4h178c2.66699 0 4 1.33301 4 4z" />
    <glyph glyph-name="hbar" unicode="&#x127;" 
d="M335.5 471c22.333 -28 33.499 -67.001 33.499 -117.001v-344c0 -6.66699 -3.33301 -10 -10 -10h-51c-6.66699 0 -10 3.33301 -10 10v338c0 32.667 -7.16699 58 -21.5 76s-34.166 27 -59.499 27c-26.667 0 -47.5 -9.66699 -62.5 -29s-22.5 -45.666 -22.5 -78.999v-333
c0 -6.66699 -3.33301 -10 -10 -10h-51c-6.66699 -0 -10 3.33301 -10 10v540c0 2.66699 -1.33301 4 -4 4h-40c-6.66699 0 -10 3.33301 -10 10v27c0 6.66699 3.33301 10 10 10h40c2.66699 0 4 1.33301 4 4v85c0 6.66699 3.33301 10 10 10h51c6.66699 0 10 -3.33301 10 -10v-85
c0 -2.66699 1.33301 -4 4 -4h127c6.66699 0 10 -3.33301 10 -10v-27c0 -6.66699 -3.33301 -10 -10 -10h-127c-2.66699 0 -4 -1.33301 -4 -4v-86c0 -1.33301 0.666992 -2.33301 2 -3s2.33301 0 3 2c12 16.667 27.167 29.167 45.5 37.5s37.833 12.5 58.5 12.5
c40.667 0 72.167 -14 94.5 -42z" />
    <glyph glyph-name="Itilde" unicode="&#x128;" horiz-adv-x="215" 
d="M72 10v680c0 6.66699 3.33301 10 10 10h51c6.66699 0 10 -3.33301 10 -10v-680c0 -6.66699 -3.33301 -10 -10 -10h-51c-6.66699 -0 -10 3.33301 -10 10zM145 807.5c-7.33301 3.66699 -17.0068 9.16602 -29.0068 16.499c-2.66699 2 -7 5 -13 9s-11.333 6.83301 -16 8.5
s-9.66699 2.5 -15 2.5c-9.33301 0 -17.5 -1.83301 -24.5 -5.5s-13.833 -10.5 -20.5 -20.5c-4 -6 -8.66699 -7 -14 -3l-18 13c-5.33301 4 -6.66602 8.66699 -3.99902 14c18 34.667 43.333 52 76 52c10.667 0 20.334 -2 29.001 -6s18.334 -9.66699 29.001 -17
c1.33301 -1.33301 5 -4 11 -8s11.833 -7.16699 17.5 -9.5s11.167 -3.5 16.5 -3.5c8.66699 0 16.334 2 23.001 6s13.334 11.333 20.001 22c1.33301 2.66699 3.33301 4.33398 6 5.00098s5.33398 0.333984 8.00098 -0.999023l18 -12c2.66699 -2 4 -4.66699 4 -8
s-1.33301 -7.33301 -4 -12c-9.33301 -16.667 -21 -28.834 -35 -36.501s-27.333 -11.5 -40 -11.5c-9.33301 0 -17.666 1.83301 -24.999 5.5z" />
    <glyph glyph-name="itilde" unicode="&#x129;" horiz-adv-x="169" 
d="M49 10v486c0 6.66699 3.33301 10 10 10h51c6.66699 0 10 -3.33301 10 -10v-486c0 -6.66699 -3.33301 -10 -10 -10h-51c-6.66699 -0 -10 3.33301 -10 10zM122 613.5c-7.33301 3.66699 -17.0068 9.16602 -29.0068 16.499c-2.66699 2 -7 5 -13 9s-11.333 6.83301 -16 8.5
s-9.66699 2.5 -15 2.5c-9.33301 0 -17.5 -1.83301 -24.5 -5.5s-13.833 -10.5 -20.5 -20.5c-4 -6 -8.66699 -7 -14 -3l-18 13c-5.33301 4 -6.66602 8.66699 -3.99902 14c18 34.667 43.333 52 76 52c10.667 0 20.334 -2 29.001 -6s18.334 -9.66699 29.001 -17
c1.33301 -1.33301 5 -4 11 -8s11.833 -7.16699 17.5 -9.5s11.167 -3.5 16.5 -3.5c8.66699 0 16.334 2 23.001 6s13.334 11.333 20.001 22c1.33301 2.66699 3.33301 4.33398 6 5.00098s5.33398 0.333984 8.00098 -0.999023l18 -12c2.66699 -2 4 -4.66699 4 -8
s-1.33301 -7.33301 -4 -12c-9.33301 -16.667 -21 -28.834 -35 -36.501s-27.333 -11.5 -40 -11.5c-9.33301 0 -17.666 1.83301 -24.999 5.5z" />
    <glyph glyph-name="Imacron" unicode="&#x12a;" horiz-adv-x="215" 
d="M72 10v680c0 6.66699 3.33301 10 10 10h51c6.66699 0 10 -3.33301 10 -10v-680c0 -6.66699 -3.33301 -10 -10 -10h-51c-6.66699 -0 -10 3.33301 -10 10zM5 799v32c0 6.66699 3.33301 10 10 10h183c6.66699 0 10 -3.33301 10 -10v-32c0 -6.66699 -3.33301 -10 -10 -10
h-183c-6.66699 0 -10 3.33301 -10 10z" />
    <glyph glyph-name="imacron" unicode="&#x12b;" horiz-adv-x="169" 
d="M49 10v486c0 6.66699 3.33301 10 10 10h51c6.66699 0 10 -3.33301 10 -10v-486c0 -6.66699 -3.33301 -10 -10 -10h-51c-6.66699 -0 -10 3.33301 -10 10zM-18 605v32c0 6.66699 3.33301 10 10 10h183c6.66699 0 10 -3.33301 10 -10v-32c0 -6.66699 -3.33301 -10 -10 -10
h-183c-6.66699 0 -10 3.33301 -10 10z" />
    <glyph glyph-name="ibreve" unicode="&#x12d;" horiz-adv-x="169" 
d="M49 10v486c0 6.66699 3.33301 10 10 10h51c6.66699 0 10 -3.33301 10 -10v-486c0 -6.66699 -3.33301 -10 -10 -10h-51c-6.66699 -0 -10 3.33301 -10 10zM12 607c-19.333 18 -30.335 40.667 -33.002 68c0 6.66699 3.33301 10 10 10h23
c6.66699 0 10.334 -3.33301 11.001 -10c2 -17.333 8.66699 -31.333 20 -42s25 -16 41 -16s29.667 5.33301 41 16s18 24.667 20 42c0.666992 6.66699 4.33398 10 11.001 10h23c6.66699 0 10 -3.33301 10 -10c-2.66699 -27.333 -13.667 -50 -33 -68s-43.333 -27 -72 -27
s-52.667 9 -72 27z" />
    <glyph glyph-name="Iogonek" unicode="&#x12e;" horiz-adv-x="186" 
d="M59 10v680c0 6.66699 3.33301 10 10 10h51c6.66699 0 10 -3.33301 10 -10v-680c0 -6.66699 -3.33301 -10 -10 -10h-51c-6.66699 -0 -10 3.33301 -10 10zM142 -173c0 -4 -2.33301 -7.00195 -7 -9.00195c-8.66699 -2 -18.334 -3 -29.001 -3
c-22.667 0 -41.667 6.16699 -57 18.5s-23 33.5 -23 63.5c0 36.667 14.667 68.667 44 96l4 4c2.66699 2 6 3 10 3h28c4.66699 0 7.5 -1.16699 8.5 -3.5s-0.166992 -5.16602 -3.5 -8.49902c-14 -14.667 -24.833 -30.167 -32.5 -46.5s-10.5 -32.166 -8.5 -47.499
c2.66699 -12.667 7.5 -22 14.5 -28s15.5 -9 25.5 -9c4.66699 0 8.33398 0.333008 11.001 1l4 1c4 0 6.66699 -2.66699 8 -8l3 -21v-3z" />
    <glyph glyph-name="iogonek" unicode="&#x12f;" horiz-adv-x="224" 
d="M85 10v486c0 6.66699 3.33301 10 10 10h51c6.66699 0 10 -3.33301 10 -10v-486c0 -6.66699 -3.33301 -10 -10 -10h-51c-6.66699 -0 -10 3.33301 -10 10zM80.5 614c-10.333 10.667 -15.5 24 -15.5 40c0 16.667 5.16699 30.167 15.5 40.5s23.833 15.5 40.5 15.5
c16 0 29.333 -5.16699 40 -15.5s16 -23.833 16 -40.5c0 -16 -5.33301 -29.333 -16 -40s-24 -16 -40 -16c-16.667 0 -30.167 5.33301 -40.5 16zM169 -173c0 -4 -2.33301 -7.00195 -7 -9.00195c-8.66699 -2 -18.334 -3 -29.001 -3c-22.667 0 -41.667 6.16699 -57 18.5
s-23 33.5 -23 63.5c0 36.667 14.667 68.667 44 96l4 4c2.66699 2 6 3 10 3h28c4.66699 0 7.5 -1.16699 8.5 -3.5s-0.166992 -5.16602 -3.5 -8.49902c-14 -14.667 -24.833 -30.167 -32.5 -46.5s-10.5 -32.166 -8.5 -47.499c2.66699 -12.667 7.5 -22 14.5 -28s15.5 -9 25.5 -9
c4.66699 0 8.33398 0.333008 11.001 1l4 1c4 0 6.66699 -2.66699 8 -8l3 -21v-3z" />
    <glyph glyph-name="Idotaccent" unicode="&#x130;" horiz-adv-x="215" 
d="M72 10v680c0 6.66699 3.33301 10 10 10h51c6.66699 0 10 -3.33301 10 -10v-680c0 -6.66699 -3.33301 -10 -10 -10h-51c-6.66699 -0 -10 3.33301 -10 10zM67.5 808c-10.333 10.667 -15.5 24 -15.5 40c0 16.667 5.16699 30.167 15.5 40.5s23.833 15.5 40.5 15.5
c16 0 29.333 -5.16699 40 -15.5s16 -23.833 16 -40.5c0 -16 -5.33301 -29.333 -16 -40s-24 -16 -40 -16c-16.667 0 -30.167 5.33301 -40.5 16z" />
    <glyph glyph-name="dotlessi" unicode="&#x131;" horiz-adv-x="169" 
d="M49 10v486c0 6.66699 3.33301 10 10 10h51c6.66699 0 10 -3.33301 10 -10v-486c0 -6.66699 -3.33301 -10 -10 -10h-51c-6.66699 -0 -10 3.33301 -10 10z" />
    <glyph glyph-name="ij" unicode="&#x133;" horiz-adv-x="409" 
d="M63.5 614c-10.333 10.667 -15.5 24 -15.5 40c0 16.667 5.16699 30.167 15.5 40.5s23.833 15.5 40.5 15.5c16 0 29.167 -5.16699 39.5 -15.5s15.5 -23.833 15.5 -40.5c0 -16 -5.16699 -29.333 -15.5 -40s-23.5 -16 -39.5 -16c-16.667 0 -30.167 5.33301 -40.5 16zM69 10
v486c0 6.66699 3.33301 10 10 10h51c6.66699 0 10 -3.33301 10 -10v-486c0 -6.66699 -3.33301 -10 -10 -10h-51c-6.66699 -0 -10 3.33301 -10 10zM265 614c-10.667 10.667 -16 24 -16 40c0 16.667 5.33301 30.167 16 40.5s24 15.5 40 15.5
c16.667 0 30.167 -5.16699 40.5 -15.5s15.5 -23.833 15.5 -40.5c0 -16 -5.33301 -29.333 -16 -40s-24 -16 -40 -16s-29.333 5.33301 -40 16zM179 -198v42c0 6.66699 3.33301 10 10 10c54 2 81 36 81 102v540c0 6.66699 3.33301 10 10 10h51c6.66699 0 10 -3.33301 10 -10
v-540c0 -54.667 -10.667 -95.667 -32 -123s-61.333 -41 -120 -41c-6.66699 0 -10 3.33301 -10 10z" />
    <glyph glyph-name="Jcircumflex" unicode="&#x134;" horiz-adv-x="426" 
d="M68 38.5c-30.667 31 -46 71.833 -46 122.5v84c0 6.66699 3.33301 10 10 10h51c6.66699 0 10 -3.33301 10 -10v-85c0 -31.333 8.66699 -56.833 26 -76.5s40.333 -29.5 69 -29.5c28 0 50.833 9.83301 68.5 29.5s26.5 45.167 26.5 76.5v530c0 6.66699 3.33301 10 10 10h51
c6.66699 0 10 -3.33301 10 -10v-529c0 -50.667 -15.333 -91.5 -46 -122.5s-70.667 -46.5 -120 -46.5s-89.333 15.5 -120 46.5zM207.5 776.5c-1 2.33301 -0.5 5.16699 1.5 8.5l65 103c3.33301 4.66699 7.33301 7 12 7h60c4.66699 0 8.66699 -2.33301 12 -7l67 -103
c1.33301 -2.66699 2 -4.66699 2 -6c0 -4 -2.66699 -6 -8 -6h-44c-4.66699 0 -8.66699 2.33301 -12 7l-43 73c-0.666992 1.33301 -1.66699 2 -3 2s-2.33301 -0.666992 -3 -2l-44 -73c-3.33301 -4.66699 -7.33301 -7 -12 -7h-43c-4 0 -6.5 1.16699 -7.5 3.5z" />
    <glyph glyph-name="jcircumflex" unicode="&#x135;" horiz-adv-x="198" 
d="M-30 -198v42c0 6.66699 3.33301 10 10 10c54 2 81 36 81 102v540c0 6.66699 3.33301 10 10 10h51c6.66699 0 10 -3.33301 10 -10v-540c0 -54.667 -10.667 -95.667 -32 -123s-61.333 -41 -120 -41c-6.66699 0 -10 3.33301 -10 10zM-13.5 581.5
c-1 2.33301 -0.5 5.16699 1.5 8.5l65 103c3.33301 4.66699 7.33301 7 12 7h60c4.66699 0 8.66699 -2.33301 12 -7l67 -103c1.33301 -2.66699 2 -4.66699 2 -6c0 -4 -2.66699 -6 -8 -6h-44c-4.66699 0 -8.66699 2.33301 -12 7l-43 73c-0.666992 1.33301 -1.66699 2 -3 2
s-2.33301 -0.666992 -3 -2l-44 -73c-3.33301 -4.66699 -7.33301 -7 -12 -7h-43c-4 0 -6.5 1.16699 -7.5 3.5z" />
    <glyph glyph-name="uni0136" unicode="&#x136;" horiz-adv-x="452" 
d="M72 10v680c0 6.66699 3.33301 10 10 10h51c6.66699 0 10 -3.33301 10 -10v-324c0 -2 0.666992 -3.33301 2 -4s2.33301 0 3 2l193 329c3.33301 4.66699 7.33301 7 12 7h56c4 0 6.66699 -1.16699 8 -3.5s1 -5.16602 -1 -8.49902l-156 -271
c-1.33301 -2.66699 -1.66602 -4.66699 -0.999023 -6l172 -399l1 -4c0 -5.33301 -3 -8 -9 -8h-57c-5.33301 0 -9 2.66699 -11 8l-144 340c-0.666992 2.66699 -2.33398 2.66699 -5.00098 0l-62 -96c-0.666992 -0.666992 -1 -2.33398 -1 -5.00098v-237
c0 -6.66699 -3.33301 -10 -10 -10h-51c-6.66699 -0 -10 3.33301 -10 10zM200 -186.5c-1.33301 2.33301 -1 5.16602 1 8.49902l62 109c3.33301 4.66699 7.33301 7 12 7h41c4 0 6.5 -1.16699 7.5 -3.5s0.5 -5.16602 -1.5 -8.49902l-70 -109
c-3.33301 -4.66699 -7.33301 -7 -12 -7h-32c-4 0 -6.66699 1.16699 -8 3.5z" />
    <glyph glyph-name="uni0137" unicode="&#x137;" horiz-adv-x="405" 
d="M61 10l0.000976562 680c0 6.66699 3.33301 10 10 10h51c6.66699 0 10 -3.33301 10 -10v-402c0 -1.33301 0.666992 -2.33301 2 -3s2.33301 -0.333984 3 0.999023l150 214c2.66699 4 6.66699 6 12 6h52c4 0 6.66699 -1.16699 8 -3.5s0.666016 -5.16602 -2.00098 -8.49902
l-99 -142c-2 -2 -2.33301 -4 -1 -6l118 -335l1 -4c0 -4.66699 -3 -7 -9 -7h-53c-6 0 -10 2.66699 -12 8l-89 278c-0.666992 4 -2.66699 4.33301 -6 1l-73 -104c-1.33301 -1.33301 -2 -3 -2 -5v-168c0 -6.66699 -3.33301 -10 -10 -10h-51c-6.66699 -0 -10 3.33301 -10 10z
M166.001 -186.5c-1.33301 2.33301 -1 5.16602 1 8.49902l62 109c3.33301 4.66699 7.33301 7 12 7h41c4 0 6.5 -1.16699 7.5 -3.5s0.5 -5.16602 -1.5 -8.49902l-70 -109c-3.33301 -4.66699 -7.33301 -7 -12 -7h-32c-4 0 -6.66699 1.16699 -8 3.5z" />
    <glyph glyph-name="Lacute" unicode="&#x139;" horiz-adv-x="396" 
d="M72 10v680c0 6.66699 3.33301 10 10 10h51c6.66699 0 10 -3.33301 10 -10v-624c0 -2.66699 1.33301 -4 4 -4h229c6.66699 0 10 -3.33301 10 -10v-42c0 -6.66699 -3.33301 -10 -10 -10h-294c-6.66699 -0 -10 3.33301 -10 10zM65 769.5
c-1.33301 2.33301 -1 5.16602 1 8.49902l62 109c3.33301 4.66699 7.33301 7 12 7h41c4 0 6.5 -1.16699 7.5 -3.5s0.5 -5.16602 -1.5 -8.49902l-70 -109c-3.33301 -4.66699 -7.33301 -7 -12 -7h-32c-4 0 -6.66699 1.16699 -8 3.5z" />
    <glyph glyph-name="lacute" unicode="&#x13a;" horiz-adv-x="181" 
d="M55 10v680c0 6.66699 3.33301 10 10 10h51c6.66699 0 10 -3.33301 10 -10v-680c0 -6.66699 -3.33301 -10 -10 -10h-51c-6.66699 -0 -10 3.33301 -10 10zM49 769.5c-1.33301 2.33301 -1 5.16602 1 8.49902l62 109c3.33301 4.66699 7.33301 7 12 7h41
c4 0 6.5 -1.16699 7.5 -3.5s0.5 -5.16602 -1.5 -8.49902l-70 -109c-3.33301 -4.66699 -7.33301 -7 -12 -7h-32c-4 0 -6.66699 1.16699 -8 3.5z" />
    </font>
</defs>
</svg>
