<svg width="40" height="25" viewBox="0 0 40 25" fill="none" xmlns="http://www.w3.org/2000/svg">
<path d="M39.4733 11.5251L36.2311 6.67593C35.6453 5.79718 34.6627 5.35825 33.6102 5.35825H28.4209C28.0627 5.35825 27.5556 5.24662 27.5556 5.3703V3.01401C27.5556 1.26187 25.9547 0 24.2107 0H1.05289C0.470667 0 0 0.308992 0 0.893041C0 1.47709 0.470667 1.78608 1.05289 1.78608H24.2107C24.7924 1.78608 25.3333 2.42996 25.3333 3.01401V20.0934H20.8947C20.2849 17.4143 17.9707 16.5088 15.728 17.12C14.2867 17.5148 13.16 18.3073 12.7684 20.0934H12.6316C12.0498 20.0934 11.5556 19.4102 11.5556 18.8266V13.5894C11.5556 13.0054 11.0262 12.532 10.4444 12.532C9.86222 12.532 9.33333 13.0058 9.33333 13.5894V18.8266C9.33333 20.5792 10.8871 21.8795 12.6316 21.8795H12.7787C13.3884 24.1121 15.7022 25.4642 17.9462 24.8529C19.3876 24.4582 20.5138 23.6656 20.9058 21.8795H28.568C29.1773 24.1121 31.4916 25.4642 33.7356 24.8529C35.1764 24.4582 36.3036 23.6656 36.6951 21.8795H36.8418C38.5862 21.8795 40 20.5792 40 18.8266V13.2273C39.9898 12.6213 39.8076 12.0297 39.4733 11.5251ZM16.8422 23.057C15.6796 23.057 14.7369 22.1099 14.7369 20.9418C14.7369 19.7737 15.6796 18.8271 16.8422 18.8271C18.0049 18.8271 18.9476 19.7737 18.9476 20.9418C18.9476 22.1099 18.0049 23.057 16.8422 23.057ZM32.6316 23.057C31.4689 23.057 30.5267 22.1099 30.5267 20.9418C30.5267 19.7737 31.4689 18.8271 32.6316 18.8271C33.7942 18.8271 34.7369 19.7737 34.7369 20.9418C34.7369 22.1099 33.7942 23.057 32.6316 23.057ZM37.8947 18.9311C37.8947 19.5147 37.424 20.0934 36.8422 20.0934H36.684C36.0747 17.4143 33.7609 16.5088 31.5178 17.12C30.076 17.5148 28.9493 18.3073 28.5578 20.0934H27.5556V8.35217C27.5556 7.76812 27.8396 7.14433 28.4209 7.14433H33.6102C33.9609 7.14433 34.2876 7.39349 34.484 7.68462L37.7262 12.6084C37.8396 12.7772 37.9022 13.0464 37.9049 13.2505L37.8947 18.9311Z" fill="#666666"/>
<path d="M16.8422 5.13498C16.8422 4.55093 16.3715 4.01868 15.7898 4.01868H4.21065C3.62887 4.01868 3.1582 4.55093 3.1582 5.13498C3.1582 5.71903 3.62887 6.25128 4.21065 6.25128H15.7898C16.3711 6.25128 16.8422 5.71903 16.8422 5.13498Z" fill="#666666"/>
<path d="M16.8421 9.37691C16.8421 8.79286 16.3714 8.48387 15.7897 8.48387H7.36832C6.78654 8.48387 6.31543 8.79286 6.31543 9.37691C6.31543 9.96096 6.78654 10.27 7.36832 10.27H15.7892C16.371 10.27 16.8421 9.96096 16.8421 9.37691Z" fill="#666666"/>
</svg>
