<svg width="13" height="12" viewBox="0 0 13 12" fill="none" xmlns="http://www.w3.org/2000/svg">
<path d="M6.13067 0.887972C6.26731 0.559455 6.73269 0.559454 6.86933 0.887971L8.12545 3.90804C8.18305 4.04654 8.31329 4.14116 8.46281 4.15315L11.7232 4.41454C12.0779 4.44297 12.2217 4.88557 11.9515 5.11704L9.46739 7.24493C9.35347 7.34251 9.30373 7.49562 9.33853 7.64153L10.0975 10.8231C10.18 11.1692 9.80352 11.4428 9.49988 11.2573L6.7085 9.55235C6.5805 9.47417 6.4195 9.47417 6.2915 9.55235L3.50013 11.2573C3.19649 11.4428 2.81998 11.1692 2.90254 10.8231L3.66147 7.64153C3.69627 7.49562 3.64653 7.34251 3.53261 7.24493L1.04851 5.11704C0.7783 4.88557 0.922111 4.44297 1.27677 4.41454L4.53719 4.15315C4.68671 4.14116 4.81695 4.04654 4.87455 3.90804L6.13067 0.887972Z" fill="#4C4500"/>
</svg>
