<svg width="688" height="374" viewBox="0 0 688 374" fill="none" xmlns="http://www.w3.org/2000/svg">
<path d="M346.207 374C532.764 374 683.998 363.991 683.998 351.645C683.998 339.298 532.764 329.289 346.207 329.289C159.65 329.289 8.41602 339.298 8.41602 351.645C8.41602 363.991 159.65 374 346.207 374Z" fill="#F2F2F2"/>
<path d="M333.261 106.913C278.226 106.913 238.711 142.21 238.711 224.572C238.711 317.916 278.226 342.624 333.261 342.624C388.296 342.624 430.165 315.562 430.165 224.572C430.165 127.307 388.296 106.913 333.261 106.913ZM333.623 311.64C295.504 311.64 275.589 289.284 275.589 224.633C275.589 167.587 296.319 137.504 334.438 137.504C372.557 137.504 393.287 157.264 393.287 224.633C393.287 287.654 371.742 311.64 333.623 311.64Z" fill="#2F2E41"/>
<path d="M205.755 277.519H183V210.533C183 206.975 181.586 203.563 179.069 201.048C176.553 198.532 173.14 197.118 169.581 197.118H164.249C162.486 197.118 160.741 197.465 159.113 198.139C157.485 198.814 156.006 199.802 154.76 201.048C153.514 202.293 152.525 203.772 151.851 205.4C151.176 207.027 150.829 208.772 150.829 210.533V277.519H86.6458C85.3254 277.519 84.0274 277.178 82.8778 276.529C81.7282 275.879 80.7659 274.944 80.0844 273.814C79.4028 272.683 79.0252 271.396 78.988 270.076C78.9508 268.757 79.2555 267.45 79.8723 266.283L147.803 137.752C148.65 136.149 149.164 134.392 149.312 132.586C149.461 130.78 149.242 128.962 148.669 127.243C148.096 125.523 147.18 123.938 145.977 122.582C144.773 121.226 143.308 120.128 141.669 119.355L137.658 117.461C134.545 115.992 130.985 115.774 127.715 116.855C124.446 117.936 121.717 120.232 120.094 123.268L37.2427 278.207C35.8319 280.845 35.0937 283.791 35.0938 286.782C35.0937 289.171 35.5644 291.537 36.4789 293.744C37.3933 295.951 38.7337 297.956 40.4234 299.645C42.1131 301.334 44.119 302.674 46.3267 303.588C48.5344 304.502 50.9006 304.973 53.2902 304.973H150.829V347.33C150.829 349.442 151.245 351.533 152.054 353.484C152.862 355.435 154.047 357.208 155.541 358.701C157.034 360.194 158.808 361.378 160.759 362.187C162.711 362.995 164.802 363.411 166.915 363.411H166.915C169.027 363.411 171.119 362.995 173.07 362.187C175.022 361.378 176.795 360.194 178.289 358.701C179.782 357.208 180.967 355.435 181.775 353.484C182.584 351.533 183 349.442 183 347.33V304.973H205.755C209.397 304.973 212.889 303.527 215.464 300.952C218.039 298.378 219.486 294.887 219.486 291.246C219.486 287.605 218.039 284.114 215.464 281.54C212.889 278.965 209.397 277.519 205.755 277.519Z" fill="#7A00E6"/>
<path d="M627.112 277.519H604.357V210.533C604.357 206.975 602.944 203.563 600.427 201.048C597.91 198.532 594.497 197.118 590.938 197.118H585.606C583.844 197.118 582.099 197.465 580.471 198.139C578.843 198.814 577.363 199.802 576.117 201.048C574.871 202.293 573.883 203.772 573.208 205.4C572.534 207.027 572.187 208.772 572.187 210.533V277.519H508.003C506.683 277.519 505.385 277.178 504.235 276.529C503.086 275.879 502.123 274.944 501.442 273.814C500.76 272.683 500.383 271.396 500.345 270.076C500.308 268.757 500.613 267.45 501.23 266.283L569.161 137.752C570.008 136.15 570.521 134.392 570.67 132.586C570.819 130.78 570.6 128.962 570.026 127.243C569.453 125.523 568.537 123.938 567.334 122.582C566.131 121.226 564.665 120.128 563.026 119.355L559.016 117.461C555.902 115.992 552.342 115.774 549.073 116.855C545.803 117.936 543.075 120.232 541.451 123.268L458.6 278.207C457.189 280.845 456.451 283.791 456.451 286.782C456.451 291.607 458.368 296.234 461.781 299.645C465.193 303.056 469.822 304.973 474.648 304.973H572.187V347.33C572.187 351.595 573.881 355.685 576.898 358.701C579.915 361.716 584.006 363.411 588.272 363.411C592.538 363.411 596.629 361.716 599.646 358.701C602.663 355.685 604.357 351.595 604.357 347.33V304.973H627.112C630.754 304.973 634.247 303.527 636.822 300.952C639.397 298.378 640.843 294.887 640.843 291.246C640.843 287.605 639.397 284.114 636.822 281.54C634.247 278.965 630.754 277.519 627.112 277.519Z" fill="#7A00E6"/>
<path d="M212.032 269.675H189.277V202.689C189.277 200.928 188.93 199.183 188.256 197.556C187.581 195.928 186.593 194.449 185.347 193.204C184.101 191.958 182.621 190.97 180.993 190.296C179.365 189.621 177.62 189.274 175.858 189.274H170.526C166.967 189.274 163.554 190.688 161.037 193.204C158.521 195.719 157.107 199.132 157.107 202.689V269.675H92.9231C91.6028 269.675 90.3048 269.334 89.1551 268.685C88.0055 268.036 87.0432 267.1 86.3617 265.97C85.6802 264.839 85.3025 263.552 85.2654 262.232C85.2282 260.913 85.5328 259.606 86.1496 258.439L154.081 129.908C154.928 128.306 155.441 126.548 155.59 124.742C155.739 122.936 155.52 121.118 154.946 119.399C154.373 117.679 153.457 116.094 152.254 114.738C151.051 113.382 149.585 112.284 147.946 111.511L143.936 109.617C140.822 108.148 137.262 107.93 133.993 109.011C130.723 110.092 127.994 112.388 126.371 115.424L43.52 270.363C42.1092 273.001 41.3711 275.947 41.3711 278.938V278.938C41.3711 283.763 43.2882 288.39 46.7007 291.801C50.1132 295.213 54.7415 297.129 59.5675 297.129H157.107V339.487C157.107 341.598 157.523 343.689 158.331 345.64C159.139 347.591 160.324 349.364 161.818 350.857C163.312 352.35 165.085 353.535 167.036 354.343C168.988 355.151 171.08 355.567 173.192 355.567H173.192C177.458 355.567 181.549 353.873 184.566 350.857C187.583 347.841 189.277 343.751 189.277 339.487V297.129H212.032C213.835 297.129 215.621 296.774 217.287 296.084C218.953 295.394 220.467 294.383 221.742 293.109C223.017 291.834 224.028 290.321 224.718 288.655C225.408 286.99 225.763 285.205 225.763 283.402V283.402C225.763 281.599 225.408 279.814 224.718 278.149C224.028 276.484 223.017 274.97 221.742 273.696C220.467 272.421 218.953 271.41 217.287 270.72C215.621 270.03 213.835 269.675 212.032 269.675V269.675Z" stroke="#3F3D56" stroke-miterlimit="10"/>
<path d="M638.882 269.675H616.127V202.689C616.127 199.132 614.713 195.719 612.197 193.204C609.68 190.688 606.267 189.274 602.708 189.274H597.376C595.613 189.274 593.868 189.621 592.24 190.296C590.612 190.97 589.133 191.958 587.887 193.204C586.641 194.449 585.652 195.928 584.978 197.556C584.303 199.183 583.956 200.928 583.956 202.689V269.675H519.773C518.452 269.675 517.154 269.334 516.005 268.685C514.855 268.036 513.893 267.1 513.211 265.97C512.53 264.839 512.152 263.552 512.115 262.232C512.078 260.913 512.382 259.606 512.999 258.439L580.93 129.908C581.777 128.306 582.291 126.548 582.439 124.742C582.588 122.936 582.369 121.118 581.796 119.399C581.223 117.679 580.307 116.094 579.104 114.738C577.9 113.382 576.435 112.284 574.796 111.511L570.785 109.617C567.672 108.148 564.112 107.93 560.842 109.011C557.573 110.092 554.844 112.388 553.221 115.424L470.37 270.363C468.959 273.001 468.221 275.947 468.221 278.938C468.221 283.763 470.138 288.39 473.55 291.801C476.963 295.213 481.591 297.129 486.417 297.129H583.956V339.487C583.956 343.751 585.651 347.841 588.668 350.857C591.684 353.873 595.776 355.567 600.042 355.567V355.567C604.308 355.567 608.399 353.873 611.416 350.857C614.432 347.841 616.127 343.751 616.127 339.487V297.129H638.882C640.685 297.129 642.47 296.774 644.136 296.084C645.802 295.394 647.316 294.383 648.591 293.109C649.866 291.834 650.878 290.321 651.568 288.655C652.258 286.99 652.613 285.205 652.613 283.402V283.402C652.613 279.761 651.166 276.27 648.591 273.696C646.016 271.121 642.523 269.675 638.882 269.675V269.675Z" stroke="#3F3D56" stroke-miterlimit="10"/>
<path d="M345.816 99.853C290.78 99.853 251.266 135.151 251.266 217.513C251.266 310.856 290.78 335.565 345.816 335.565C400.851 335.565 442.72 308.503 442.72 217.513C442.72 120.247 400.851 99.853 345.816 99.853ZM346.178 304.581C308.059 304.581 288.144 282.225 288.144 217.573C288.144 160.527 308.874 130.445 346.993 130.445C385.112 130.445 405.841 150.205 405.841 217.573C405.841 280.595 384.296 304.581 346.178 304.581V304.581Z" stroke="#3F3D56" stroke-miterlimit="10"/>
<path d="M301.701 19.942C306.264 19.942 309.962 16.2444 309.962 11.6832C309.962 7.12196 306.264 3.42438 301.701 3.42438C297.138 3.42438 293.439 7.12196 293.439 11.6832C293.439 16.2444 297.138 19.942 301.701 19.942Z" fill="#2F2E41"/>
<path d="M321.85 60.0273C334.648 60.0273 345.022 46.5897 345.022 30.0136C345.022 13.4376 334.648 0 321.85 0C309.052 0 298.678 13.4376 298.678 30.0136C298.678 46.5897 309.052 60.0273 321.85 60.0273Z" fill="#2F2E41"/>
<path opacity="0.1" d="M321.85 50.9628C310.242 50.9628 300.628 39.9069 298.941 25.4814C298.765 26.9858 298.677 28.4991 298.678 30.0136C298.678 46.5897 309.052 60.0273 321.85 60.0273C334.648 60.0273 345.022 46.5897 345.022 30.0136C345.023 28.4991 344.935 26.9858 344.759 25.4814C343.072 39.9069 333.458 50.9628 321.85 50.9628Z" fill="black"/>
<path d="M369.004 117.91C368.506 119.954 366.36 121.591 363.984 122.735C358.988 125.14 352.825 125.858 346.848 126.099C345.323 126.191 343.793 126.163 342.273 126.014C339.327 125.729 336.563 124.459 334.428 122.409C334.276 122.31 334.151 122.174 334.066 122.013C333.98 121.853 333.937 121.673 333.94 121.491C333.942 121.31 333.991 121.131 334.082 120.974C334.172 120.816 334.301 120.683 334.456 120.589C337.638 117.094 342.949 114.952 348.298 113.409C352.355 112.239 359.429 109.209 363.853 109.618C368.138 110.014 369.632 115.329 369.004 117.91Z" fill="#3F3D56"/>
<path opacity="0.1" d="M369.004 117.91C368.506 119.954 366.36 121.591 363.984 122.735C358.988 125.14 352.825 125.858 346.848 126.099C345.323 126.191 343.793 126.163 342.273 126.014C339.327 125.729 336.563 124.459 334.428 122.409C334.276 122.31 334.151 122.174 334.066 122.013C333.98 121.853 333.937 121.673 333.94 121.491C333.942 121.31 333.991 121.131 334.082 120.974C334.172 120.816 334.301 120.683 334.456 120.589C337.638 117.094 342.949 114.952 348.298 113.409C352.355 112.239 359.429 109.209 363.853 109.618C368.138 110.014 369.632 115.329 369.004 117.91Z" fill="black"/>
<path d="M305.481 102.631C303.956 105.619 303.68 109.09 304.713 112.281C305.764 115.448 307.732 118.233 310.367 120.281C316.831 125.461 325.728 126.174 334.012 126.102C341.273 126.039 348.523 125.542 355.724 124.614C358.137 124.401 360.508 123.85 362.769 122.979C365.473 121.81 367.849 119.665 368.811 116.881C369.774 114.098 369.091 110.689 366.804 108.832C364.796 107.199 362.026 106.975 359.442 106.82L344.657 105.931C346.118 104.454 348.063 103.618 349.842 102.544C352.201 101.118 353.769 98.7254 355.485 96.568C358.129 93.4092 361.006 90.4526 364.091 87.7229C364.572 90.4822 366.318 92.7481 368.373 94.652C370.428 96.5559 372.797 98.0886 374.933 99.9014C380.106 104.292 383.831 110.251 389.272 114.305C393.015 113.322 396.514 111.576 399.549 109.176L397.434 105.347C397.258 104.953 396.984 104.611 396.637 104.353C396.039 103.985 395.267 104.175 394.572 104.07C392.715 103.792 391.903 101.648 391.174 99.9175C389.173 95.1664 385.342 91.4803 382.07 87.496C379.655 84.5549 377.512 81.4002 375.669 78.0711C374.57 76.0855 373.563 74.0182 372.072 72.3076C370.58 70.597 368.49 69.2521 366.22 69.2473C364.214 69.2431 362.364 70.261 360.64 71.285C355.387 74.4039 350.333 77.8458 345.508 81.5908C342.982 83.5508 340.472 85.6216 337.51 86.8234C336.263 87.3294 334.948 87.6752 333.752 88.2908C331.656 89.3691 330.065 91.1935 328.352 92.813C322.245 98.5892 313.883 102.332 305.481 102.631Z" fill="#3F3D56"/>
<path d="M336.395 61.5179C336.326 63.2835 335.95 65.0237 335.284 66.6605C334.947 67.4768 334.445 68.2149 333.809 68.8287C333.174 69.4424 332.419 69.9188 331.591 70.2279C330.416 70.5427 329.184 70.5826 327.99 70.3447C326.95 70.2361 325.947 69.8946 325.056 69.3456C323.67 68.3928 322.979 66.6927 322.727 65.0289C322.475 63.367 322.588 61.669 322.427 59.995C322.27 58.643 322.013 57.3045 321.657 55.9905C321.548 55.5534 321.438 55.1183 321.329 54.6832C321.222 54.2481 321.117 53.813 321.02 53.378C320.932 52.969 320.849 52.5581 320.779 52.1452C320.72 51.7967 320.668 51.4462 320.629 51.0937C320.594 50.0486 320.42 49.0129 320.112 48.0138C319.822 47.3658 319.46 46.7528 319.032 46.1868C318.848 45.9249 318.671 45.663 318.508 45.3911C318.036 44.6844 317.816 43.839 317.885 42.992C317.905 42.8611 317.936 42.7323 317.98 42.6073C317.996 42.5589 318.014 42.5106 318.034 42.4643C318.216 42.4151 318.382 42.3224 318.519 42.1943C318.657 42.0661 318.761 41.9064 318.822 41.729C318.891 41.3479 318.859 40.9553 318.727 40.5909C318.577 40.0817 318.371 39.5906 318.113 39.1265C317.944 38.8203 317.369 38.2684 317.365 37.9179C317.357 37.2128 318.735 36.6448 319.294 36.3668C320.997 35.514 322.897 35.1289 324.799 35.2509C326.018 35.3335 327.339 35.7081 328.012 36.7294C328.617 37.6499 328.536 38.8424 328.794 39.9121C328.821 40.0675 328.887 40.2137 328.986 40.3371C329.117 40.4569 329.283 40.5329 329.459 40.5546C329.758 40.614 330.064 40.6262 330.366 40.5909H330.368C330.448 40.5846 330.527 40.5731 330.606 40.5566C331.076 40.4698 331.521 40.2777 331.907 39.9946C332.157 39.9282 332.409 39.8738 332.663 39.8315C332.673 39.8304 332.683 39.8284 332.693 39.8254C333.703 43.0101 333.834 46.4244 334.66 49.6675C335.069 51.281 335.655 52.8743 335.738 54.5341C335.744 54.6066 335.746 54.6812 335.748 54.7557C335.76 55.2895 335.718 55.8273 335.74 56.3591C335.748 56.5986 335.775 56.837 335.821 57.0722C335.911 57.4504 336.023 57.823 336.157 58.1882L336.163 58.2063C336.201 58.3231 336.238 58.442 336.268 58.5608C336.29 58.6474 336.31 58.732 336.326 58.8186L336.328 58.8247C336.477 59.7148 336.5 60.6215 336.395 61.5179Z" fill="#FBBEBE"/>
<path d="M322.254 40.6896C328.819 40.6896 334.142 35.3687 334.142 28.805C334.142 22.2414 328.819 16.9204 322.254 16.9204C315.688 16.9204 310.365 22.2414 310.365 28.805C310.365 35.3687 315.688 40.6896 322.254 40.6896Z" fill="#FBBEBE"/>
<path d="M397.73 93.5579C397.386 90.3155 396.233 87.2113 394.377 84.5297C394.686 86.3627 394.995 88.1951 395.304 90.0268C394.919 90.1381 394.51 90.1348 394.127 90.017C393.744 89.8993 393.404 89.6724 393.148 89.3641C392.648 88.7392 392.265 88.0288 392.018 87.2672C390.667 83.9153 388.901 80.7462 386.761 77.834C379.193 77.2035 371.711 74.0672 365.055 70.4112C358.398 66.7572 352.168 62.376 345.599 58.5669C344.46 57.8787 343.274 57.2729 342.048 56.754C339.993 55.9301 337.686 55.503 335.737 54.5342C335.607 54.4697 335.476 54.4012 335.347 54.3307C334.906 54.0914 334.49 53.8115 334.101 53.4948C333.892 53.3245 333.692 53.1415 333.505 52.9468C332.533 51.8162 331.762 50.5271 331.226 49.1357C330.18 46.8233 329.807 44.0334 328.764 41.7209C329.243 41.2728 329.782 40.8925 330.366 40.5909H330.368C330.452 40.5466 330.537 40.5043 330.623 40.464C331.036 40.2696 331.466 40.1125 331.907 39.9947C332.157 39.9282 332.409 39.8738 332.663 39.8315C332.673 39.8305 332.683 39.8284 332.693 39.8255C333.87 39.6337 335.076 39.7291 336.209 40.1034C337.865 40.6634 339.262 41.7814 340.654 42.8389C342.916 44.432 345.086 46.1523 347.152 47.9916C348.301 49.0914 349.349 50.3 350.584 51.2991C351.61 52.091 352.692 52.808 353.822 53.4444C360.506 57.4247 367.19 61.4044 373.875 65.3834C376.138 66.731 378.403 68.0786 380.615 69.5047C383.976 71.6721 387.216 74.0208 390.454 76.3676C392.363 77.7494 394.27 79.1319 396.177 80.5151C396.803 80.9141 397.352 81.4216 397.799 82.0138C398.194 82.6861 398.439 83.4357 398.518 84.2114C398.997 87.3454 398.727 90.5482 397.73 93.5579Z" fill="#FBBEBE"/>
<path d="M339.342 70.4555C338.54 74.0511 334.905 76.2246 333.005 79.383C330.643 83.303 331.606 87.8594 332.493 92.3493C330.873 93.7453 329.252 95.1412 327.631 96.5372C326.736 97.3046 325.842 98.0761 324.878 98.7549C323.474 99.6957 322.006 100.538 320.486 101.277C319.051 102.014 317.616 102.752 316.182 103.491C314.848 104.24 313.435 104.839 311.968 105.275C309.141 106.001 306.139 105.493 303.342 104.653C303.013 104.566 302.695 104.437 302.399 104.268C302.225 104.164 302.073 104.027 301.952 103.863C301.676 103.369 301.576 102.796 301.668 102.238C301.952 97.5322 303.103 92.9254 304.249 88.3529C304.862 85.6097 305.686 82.9179 306.713 80.3016C307.721 78.0598 308.88 75.8887 310.181 73.8033C311.617 71.1795 313.319 68.7098 315.259 66.4329C316.203 65.5565 316.998 64.5318 317.612 63.3993C318.328 61.7677 318.052 59.8963 318.197 58.1197C318.308 56.7849 318.662 55.4816 319.243 54.2743V54.2723C319.553 53.622 319.927 53.004 320.359 52.4272C320.554 52.8824 320.75 53.337 320.945 53.7909C321.074 54.089 321.202 54.3865 321.328 54.6833C321.493 55.066 321.657 55.4474 321.82 55.8274C322.289 56.9192 322.758 58.0103 323.226 59.1007C323.732 60.4741 324.453 61.7585 325.362 62.9058C325.778 63.4933 326.338 63.963 326.99 64.2691C327.641 64.5752 328.361 64.7072 329.078 64.6522C329.796 64.5972 330.487 64.3571 331.084 63.9553C331.681 63.5535 332.164 63.0038 332.485 62.3599C333.162 61.1579 333.653 59.8599 333.94 58.5105C334.338 56.8674 334.393 55.16 334.101 53.4948C333.615 50.288 332.251 47.0127 331.26 44.0335C330.856 43.0401 330.623 41.986 330.569 40.9153C330.571 40.7949 330.583 40.675 330.605 40.5567C330.611 40.5265 330.617 40.4943 330.623 40.4641C331.036 40.2696 331.466 40.1125 331.907 39.9947C332.157 39.9282 332.408 39.8738 332.662 39.8315C333.535 44.5532 334.409 49.2748 335.284 53.9964C335.304 54.1072 335.326 54.2179 335.346 54.3307C335.471 55.0076 335.598 55.6844 335.739 56.3592C335.866 56.9715 336.003 57.5819 336.156 58.1882L336.162 58.2063C336.215 58.4118 336.269 58.6152 336.326 58.8187L336.328 58.8247C336.483 59.3807 336.656 59.9326 336.851 60.4765C338.036 63.7538 340.102 67.0533 339.342 70.4555Z" fill="#7A00E6"/>
<path d="M387.59 120.985C387.553 121.678 387.687 122.369 387.981 122.997C388.725 124.357 390.51 124.666 392.055 124.793C401.079 125.534 410.158 125.258 419.12 123.968C419.607 123.935 420.078 123.789 420.498 123.541C421.772 122.648 420.987 120.471 419.595 119.775C418.204 119.078 416.553 119.246 415.026 118.944C413.509 118.562 412.065 117.936 410.75 117.09C407.654 115.312 404.603 113.458 401.597 111.528C399.808 110.379 397.696 109.153 395.68 109.835C390.221 111.681 387.554 115.098 387.59 120.985Z" fill="#3F3D56"/>
<path d="M321.066 53.1262V53.1282C321.052 53.2128 321.038 53.2954 321.02 53.378C320.998 53.515 320.971 53.6539 320.945 53.7909C320.695 55.07 320.389 56.343 320.036 57.608C319.069 61.1029 317.774 64.5414 316.488 67.9295C313.038 77.0142 309.588 86.0995 306.137 95.1855C305.267 97.4738 304.398 99.7641 303.409 102.006C303.078 102.753 302.738 103.507 302.399 104.268C301.186 106.994 300.022 109.808 299.635 112.708C299.274 114.617 299.232 116.573 299.512 118.495C299.899 120.397 301.053 122.254 302.861 122.957C303.743 123.302 305.007 123.763 304.765 124.679C304.634 125.183 304.062 125.429 303.548 125.513C302.869 125.621 302.175 125.579 301.515 125.389C300.855 125.199 300.244 124.866 299.727 124.414C298.762 123.557 298.021 122.226 296.737 122.083C295.849 121.986 295.031 122.518 294.216 122.891C290.896 124.408 287.027 123.346 283.539 122.268C283.813 120.856 285.232 119.926 286.64 119.644C288.049 119.36 289.505 119.561 290.942 119.523C291.402 119.547 291.859 119.43 292.25 119.186C292.6 118.865 292.846 118.445 292.955 117.982C293.88 115.241 294.569 112.425 295.012 109.566C295.476 106.579 295.669 103.545 296.33 100.594C296.844 98.2916 297.638 96.0618 298.319 93.8017C299.636 89.1483 300.717 84.4314 301.559 79.6691C301.985 77.6905 302.289 75.6879 302.472 73.6724C302.587 72.0005 302.532 70.3205 302.693 68.6547C302.964 66.4874 303.416 64.3467 304.046 62.2551C304.662 59.9729 305.278 57.692 305.893 55.4124C306.806 52.0384 307.785 48.5335 310.099 45.9108C310.902 44.9875 311.886 44.239 312.991 43.7116C314.096 43.1842 315.297 42.8893 316.52 42.845C316.979 42.8444 317.436 42.8937 317.884 42.992C317.959 43.0101 318.034 43.0283 318.108 43.0484C318.596 43.176 319.065 43.3699 319.5 43.6245C320.214 43.1713 320.576 43.3304 321.05 44.0294C321.465 44.7691 321.661 45.6118 321.614 46.4587C321.654 48.6939 321.47 50.9275 321.066 53.1262Z" fill="#FBBEBE"/>
<path d="M321.851 55.7972L321.821 55.8274L321.658 55.9906L320.038 57.6081L319.244 54.2743L316.521 42.845C316.98 42.8444 317.438 42.8937 317.886 42.992C317.905 42.8611 317.937 42.7323 317.98 42.6073L318.109 43.0484L319.032 46.1867L320.779 52.1452L321.067 53.1261V53.1282L321.851 55.7972Z" fill="#7A00E6"/>
<path d="M332.131 19.3345C332.129 20.3929 331.919 21.4405 331.513 22.4177C331.106 23.3948 330.511 24.2822 329.761 25.0293C329.489 25.3012 329.198 25.5529 328.89 25.7823C327.499 26.8302 325.806 27.3974 324.064 27.3982H314.398C312.261 27.3949 310.214 26.5443 308.705 25.0332C307.195 23.522 306.348 21.4739 306.348 19.3385C306.348 17.2031 307.195 15.1549 308.705 13.6438C310.214 12.1327 312.261 11.2821 314.398 11.2788H324.064C326.201 11.2843 328.248 12.1346 329.759 13.6439C331.27 15.1533 332.123 17.199 332.131 19.3345Z" fill="#2F2E41"/>
<path d="M341.195 19.942C345.758 19.942 349.456 16.2444 349.456 11.6832C349.456 7.12196 345.758 3.42438 341.195 3.42438C336.632 3.42438 332.934 7.12196 332.934 11.6832C332.934 16.2444 336.632 19.942 341.195 19.942Z" fill="#2F2E41"/>
<path opacity="0.1" d="M340.994 3.42438C340.892 3.42438 340.792 3.4284 340.691 3.43202C342.829 3.50969 344.852 4.413 346.337 5.9519C347.821 7.49081 348.651 9.54532 348.651 11.6832C348.651 13.821 347.821 15.8755 346.337 17.4144C344.852 18.9533 342.829 19.8566 340.691 19.9343C340.792 19.9379 340.892 19.942 340.994 19.942C343.185 19.942 345.286 19.0718 346.835 17.523C348.385 15.9742 349.255 13.8735 349.255 11.6832C349.255 9.4928 348.385 7.39215 346.835 5.84332C345.286 4.2945 343.185 3.42438 340.994 3.42438Z" fill="black"/>
<path opacity="0.1" d="M301.701 3.42438C301.803 3.42438 301.903 3.4284 302.004 3.43202C299.867 3.50969 297.843 4.413 296.358 5.9519C294.874 7.49081 294.045 9.54532 294.045 11.6832C294.045 13.821 294.874 15.8755 296.358 17.4144C297.843 18.9533 299.867 19.8566 302.004 19.9343C301.903 19.9379 301.803 19.942 301.701 19.942C299.512 19.94 297.412 19.0691 295.864 17.5204C294.317 15.9718 293.447 13.8723 293.447 11.6832C293.447 9.49406 294.317 7.39451 295.864 5.84589C297.412 4.29728 299.512 3.4263 301.701 3.42438Z" fill="black"/>
<path opacity="0.1" d="M328.89 25.7823C327.5 26.8302 325.806 27.3974 324.065 27.3982H314.398C312.657 27.3974 310.963 26.8302 309.572 25.7823H328.89Z" fill="black"/>
<path d="M391.316 85.6249C391.316 85.6249 393.399 91.6242 395.305 90.0268L393.786 82.185L391.316 85.6249Z" fill="#FBBEBE"/>
<path d="M307.98 218.368C313.992 218.368 318.866 212.062 318.866 204.284C318.866 196.506 313.992 190.201 307.98 190.201C301.968 190.201 297.094 196.506 297.094 204.284C297.094 212.062 301.968 218.368 307.98 218.368Z" fill="#2F2E41"/>
<path d="M367.214 218.688C373.227 218.688 378.1 212.382 378.1 204.604C378.1 196.826 373.227 190.521 367.214 190.521C361.202 190.521 356.328 196.826 356.328 204.604C356.328 212.382 361.202 218.688 367.214 218.688Z" fill="#2F2E41"/>
<path d="M358.888 246.215C358.888 252.578 350 257.737 339.037 257.737C328.074 257.737 319.186 252.578 319.186 246.215C319.186 240.703 325.852 236.094 334.759 234.967C336.177 234.78 337.606 234.688 339.037 234.692C341.434 234.684 343.824 234.942 346.164 235.46C353.605 237.118 358.888 241.311 358.888 246.215Z" fill="#2F2E41"/>
<path d="M310.54 215.167C316.553 215.167 321.427 208.862 321.427 201.083C321.427 193.305 316.553 187 310.54 187C304.528 187 299.654 193.305 299.654 201.083C299.654 208.862 304.528 215.167 310.54 215.167Z" stroke="#3F3D56" stroke-miterlimit="10"/>
<path d="M369.775 215.487C375.787 215.487 380.661 209.182 380.661 201.404C380.661 193.625 375.787 187.32 369.775 187.32C363.763 187.32 358.889 193.625 358.889 201.404C358.889 209.182 363.763 215.487 369.775 215.487Z" stroke="#3F3D56" stroke-miterlimit="10"/>
<path d="M341.599 254.537C352.563 254.537 361.45 249.378 361.45 243.014C361.45 236.65 352.563 231.491 341.599 231.491C330.636 231.491 321.748 236.65 321.748 243.014C321.748 249.378 330.636 254.537 341.599 254.537Z" stroke="#3F3D56" stroke-miterlimit="10"/>
<path d="M346.401 236.42C346.406 237.225 346.104 238.002 345.555 238.592C345.296 238.874 344.982 239.1 344.631 239.255C344.281 239.41 343.902 239.491 343.519 239.493H337.115C336.326 239.465 335.58 239.127 335.04 238.551C334.5 237.975 334.21 237.209 334.234 236.42C334.23 235.796 334.413 235.185 334.759 234.665C336.176 234.466 337.605 234.368 339.036 234.372C341.436 234.364 343.828 234.639 346.164 235.191C346.322 235.582 346.402 235.999 346.401 236.42Z" fill="white"/>
<path d="M310.542 200.443C312.31 200.443 313.743 199.01 313.743 197.243C313.743 195.475 312.31 194.042 310.542 194.042C308.773 194.042 307.34 195.475 307.34 197.243C307.34 199.01 308.773 200.443 310.542 200.443Z" fill="white"/>
<path d="M370.094 200.443C371.863 200.443 373.296 199.01 373.296 197.243C373.296 195.475 371.863 194.042 370.094 194.042C368.326 194.042 366.893 195.475 366.893 197.243C366.893 199.01 368.326 200.443 370.094 200.443Z" fill="white"/>
<path opacity="0.3" d="M373.298 230.531C375.066 230.531 376.499 229.098 376.499 227.33C376.499 225.562 375.066 224.129 373.298 224.129C371.529 224.129 370.096 225.562 370.096 227.33C370.096 229.098 371.529 230.531 373.298 230.531Z" fill="#7A00E6"/>
<path opacity="0.3" d="M295.173 230.531C296.941 230.531 298.374 229.098 298.374 227.33C298.374 225.562 296.941 224.129 295.173 224.129C293.404 224.129 291.971 225.562 291.971 227.33C291.971 229.098 293.404 230.531 295.173 230.531Z" fill="#7A00E6"/>
</svg>
