<svg width="507" height="380" viewBox="0 0 507 380" fill="none" xmlns="http://www.w3.org/2000/svg">
<path d="M404.825 227.507C405.201 227.395 405.585 227.313 405.973 227.262L421.483 195.774L416.748 188.682L426.528 180.143L438.821 195.173L413.783 231.58C414.399 232.957 414.581 234.488 414.305 235.971C414.028 237.454 413.306 238.817 412.235 239.88C411.165 240.943 409.795 241.655 408.309 241.921C406.823 242.187 405.292 241.995 403.918 241.371C402.544 240.746 401.393 239.718 400.618 238.424C399.842 237.13 399.48 235.631 399.579 234.126C399.677 232.621 400.232 231.181 401.169 229.999C402.106 228.817 403.382 227.948 404.825 227.507V227.507Z" fill="#FFB9B9"/>
<path d="M431.302 184.493C431.091 184.716 430.848 184.907 430.582 185.06L414.713 194.251C414.332 194.472 413.909 194.612 413.47 194.661C413.032 194.71 412.589 194.668 412.168 194.537C411.747 194.406 411.358 194.19 411.025 193.901C410.692 193.612 410.423 193.257 410.234 192.859L402.516 176.567C402.187 175.882 402.117 175.101 402.317 174.368C402.516 173.634 402.974 172.997 403.605 172.573L413.442 165.887C414.056 165.469 414.797 165.28 415.536 165.35C416.276 165.42 416.967 165.746 417.492 166.271L431.242 180.057C431.826 180.644 432.16 181.435 432.171 182.263C432.182 183.091 431.871 183.891 431.302 184.493H431.302Z" fill="#8800FF"/>
<path d="M453.584 364.92L445.206 367.197L432.425 335.993L444.791 332.631L453.584 364.92Z" fill="#FFB9B9"/>
<path d="M438.569 366.433L454.728 362.04L457.496 372.205L431.163 379.363C430.8 378.028 430.703 376.635 430.879 375.263C431.054 373.89 431.498 372.566 432.186 371.365C432.874 370.165 433.791 369.111 434.887 368.265C435.982 367.418 437.233 366.796 438.569 366.433Z" fill="#2F2E41"/>
<path d="M381.956 371.307L373.274 371.307L369.142 337.844L381.958 337.845L381.956 371.307Z" fill="#FFB9B9"/>
<path d="M367.071 368.828H383.817V379.363H356.527C356.527 377.979 356.8 376.609 357.329 375.331C357.859 374.053 358.636 372.892 359.615 371.914C360.594 370.935 361.757 370.159 363.036 369.63C364.315 369.101 365.686 368.828 367.071 368.828Z" fill="#2F2E41"/>
<path d="M391.105 154.778C400.712 154.778 408.501 146.997 408.501 137.398C408.501 127.799 400.712 120.018 391.105 120.018C381.498 120.018 373.709 127.799 373.709 137.398C373.709 146.997 381.498 154.778 391.105 154.778Z" fill="#FFB9B9"/>
<path d="M381.425 347.449H369.559C368.747 347.447 367.967 347.138 367.376 346.583C366.785 346.028 366.427 345.269 366.375 344.461C362.839 288.302 364.907 248.018 372.883 217.686C372.918 217.553 372.961 217.422 373.013 217.295L373.648 215.708C373.883 215.116 374.291 214.608 374.819 214.251C375.347 213.894 375.97 213.704 376.607 213.706H401.009C401.469 213.705 401.923 213.805 402.341 213.997C402.759 214.189 403.13 214.469 403.429 214.818L406.743 218.681C406.808 218.757 406.868 218.833 406.926 218.914C421.872 239.737 435.265 280.446 450.777 335.163C451.006 335.959 450.915 336.812 450.524 337.541C450.133 338.27 449.472 338.818 448.682 339.067L435.93 343.144C435.197 343.375 434.407 343.335 433.702 343.032C432.997 342.729 432.424 342.183 432.087 341.494L398.995 272.919C398.763 272.44 398.384 272.048 397.912 271.801C397.44 271.554 396.901 271.466 396.375 271.549C395.849 271.632 395.364 271.882 394.991 272.262C394.618 272.642 394.378 273.132 394.306 273.659L384.583 344.696C384.476 345.457 384.098 346.155 383.518 346.661C382.938 347.166 382.195 347.446 381.425 347.449Z" fill="#2F2E41"/>
<path d="M405.405 218.964C405.372 218.964 405.339 218.963 405.305 218.963L375.665 218.028C374.903 218.006 374.174 217.712 373.611 217.198C373.049 216.685 372.689 215.986 372.599 215.23C368.842 184.843 379.147 176.702 383.751 174.613C384.136 174.44 384.47 174.17 384.719 173.83C384.969 173.49 385.127 173.091 385.177 172.672L385.575 169.487C385.643 168.924 385.86 168.39 386.205 167.94C393.425 158.596 403.283 155.604 408.517 154.652C408.942 154.576 409.377 154.587 409.798 154.684C410.218 154.781 410.614 154.962 410.962 155.217C411.31 155.472 411.602 155.795 411.821 156.166C412.04 156.537 412.182 156.949 412.237 157.376L412.833 161.95C412.894 162.386 413.068 162.798 413.339 163.146C428.396 182.813 411.621 211.851 408.106 217.472C407.819 217.928 407.42 218.305 406.948 218.566C406.476 218.826 405.945 218.964 405.405 218.964Z" fill="#8800FF"/>
<path d="M426.202 139.355C422.321 133.895 417.668 129.028 412.387 124.905C407.997 121.479 403.11 118.552 397.719 117.152C392.328 115.751 386.374 115.99 381.455 118.602C376.536 121.213 371.45 126.403 371.419 131.968C371.409 133.756 371.864 136.175 373.627 135.866L374.137 135.933C378.388 135.076 382.639 134.218 386.89 133.36C388.701 139.638 390.512 145.916 392.322 152.194C392.704 153.517 393.216 154.997 394.473 155.561C395.657 156.092 397.026 155.592 398.224 155.092C398.421 155.01 400.114 151.213 400.114 151.213C400.156 151.094 400.23 150.989 400.326 150.908C400.423 150.828 400.54 150.774 400.664 150.753C400.788 150.732 400.916 150.745 401.034 150.79C401.152 150.835 401.255 150.911 401.334 151.009L402.34 152.265C402.532 152.505 402.797 152.676 403.095 152.752C403.393 152.828 403.708 152.805 403.992 152.687C410.924 149.795 417.857 146.904 424.79 144.012C425.748 143.612 426.819 143.091 427.097 142.091C427.363 141.133 426.778 140.165 426.202 139.355Z" fill="#2F2E41"/>
<path d="M505.898 380H292.708C292.52 380 292.34 379.925 292.207 379.793C292.075 379.66 292 379.48 292 379.292C292 379.105 292.075 378.925 292.207 378.792C292.34 378.659 292.52 378.585 292.708 378.585H505.898C506.086 378.585 506.266 378.659 506.399 378.792C506.532 378.925 506.606 379.105 506.606 379.292C506.606 379.48 506.532 379.66 506.399 379.793C506.266 379.925 506.086 380 505.898 380Z" fill="#29004C"/>
<path d="M390.32 269.725C389.838 269.723 389.37 269.568 388.982 269.282L385.758 266.942C385.49 266.747 385.168 266.642 384.837 266.642C384.505 266.642 384.183 266.747 383.915 266.942L380.691 269.282C380.302 269.565 379.834 269.717 379.353 269.717C378.873 269.717 378.405 269.565 378.016 269.283C377.627 269 377.337 268.602 377.189 268.146C377.04 267.689 377.04 267.197 377.189 266.74L378.42 262.954C378.523 262.639 378.524 262.3 378.421 261.985C378.319 261.671 378.119 261.397 377.851 261.203L374.627 258.862C374.238 258.58 373.948 258.182 373.8 257.725C373.651 257.268 373.651 256.776 373.8 256.32C373.948 255.863 374.238 255.465 374.627 255.183C375.016 254.901 375.484 254.749 375.964 254.749H379.949C380.281 254.749 380.604 254.645 380.871 254.45C381.139 254.256 381.339 253.981 381.441 253.666L382.672 249.88C382.82 249.423 383.11 249.025 383.499 248.743C383.887 248.46 384.356 248.308 384.836 248.308C385.317 248.308 385.785 248.46 386.174 248.743C386.563 249.025 386.853 249.423 387.001 249.88L388.233 253.666C388.334 253.981 388.534 254.256 388.802 254.45C389.069 254.645 389.392 254.749 389.723 254.749H393.709C394.189 254.749 394.657 254.901 395.046 255.183C395.435 255.465 395.725 255.863 395.873 256.32C396.022 256.776 396.022 257.268 395.873 257.725C395.725 258.182 395.435 258.58 395.046 258.862L391.822 261.202C391.554 261.396 391.354 261.671 391.252 261.985C391.15 262.3 391.15 262.639 391.253 262.954L392.484 266.74C392.638 267.197 392.641 267.69 392.492 268.148C392.343 268.606 392.051 269.004 391.658 269.282C391.27 269.568 390.801 269.723 390.32 269.725Z" fill="#FFC52E"/>
<path d="M402.641 262.155C403.551 261.517 404.311 260.687 404.866 259.724C405.421 258.76 405.758 257.687 405.853 256.58C405.948 255.473 405.798 254.358 405.416 253.315C405.033 252.271 404.426 251.324 403.637 250.541L409.142 184.114L392.75 186.367L392.438 250.907C391.208 252.318 390.539 254.13 390.558 256.001C390.577 257.872 391.281 259.672 392.539 261.058C393.797 262.445 395.519 263.322 397.381 263.524C399.243 263.726 401.114 263.239 402.641 262.155Z" fill="#FFB9B9"/>
<path d="M410.214 193.679C409.907 193.679 409.601 193.635 409.307 193.548L391.709 188.377C391.286 188.253 390.893 188.042 390.556 187.758C390.219 187.475 389.944 187.124 389.749 186.729C389.554 186.334 389.444 185.903 389.424 185.463C389.405 185.023 389.477 184.583 389.636 184.172L396.148 167.363C396.42 166.653 396.938 166.065 397.608 165.705C398.278 165.345 399.055 165.237 399.798 165.402L411.424 167.927C412.15 168.085 412.798 168.491 413.256 169.075C413.714 169.659 413.953 170.385 413.933 171.127L413.392 190.581C413.369 191.409 413.024 192.195 412.431 192.773C411.838 193.352 411.042 193.676 410.214 193.679H410.214Z" fill="#8800FF"/>
<g filter="url(#filter0_d)">
<rect x="30" y="194" width="269" height="83" rx="5" fill="white"/>
</g>
<rect x="9" y="177" width="311" height="100" rx="5" fill="white"/>
<path d="M145.679 314.526C145.089 314.524 144.515 314.334 144.04 313.984L140.09 311.117C139.762 310.878 139.367 310.749 138.961 310.749C138.556 310.749 138.16 310.878 137.833 311.117L133.883 313.984C133.407 314.33 132.833 314.516 132.244 314.516C131.655 314.516 131.082 314.33 130.605 313.984C130.129 313.638 129.775 313.151 129.593 312.591C129.411 312.032 129.41 311.429 129.592 310.87L131.101 306.231C131.227 305.846 131.228 305.43 131.102 305.045C130.977 304.659 130.732 304.323 130.403 304.085L126.454 301.219C125.977 300.873 125.623 300.385 125.441 299.826C125.259 299.266 125.259 298.664 125.441 298.104C125.623 297.545 125.977 297.057 126.454 296.711C126.93 296.366 127.504 296.179 128.093 296.179H132.975C133.38 296.18 133.776 296.052 134.104 295.814C134.432 295.576 134.676 295.239 134.801 294.854L136.31 290.215C136.491 289.655 136.846 289.168 137.322 288.822C137.799 288.476 138.373 288.29 138.961 288.29C139.55 288.29 140.124 288.476 140.6 288.822C141.077 289.168 141.431 289.655 141.613 290.215L143.122 294.854C143.246 295.239 143.49 295.576 143.819 295.814C144.147 296.052 144.542 296.18 144.948 296.179H149.83C150.419 296.179 150.993 296.366 151.469 296.711C151.945 297.057 152.3 297.545 152.482 298.104C152.664 298.664 152.664 299.266 152.482 299.826C152.3 300.385 151.945 300.873 151.469 301.219L147.519 304.085C147.191 304.323 146.946 304.659 146.821 305.045C146.695 305.43 146.696 305.846 146.822 306.231L148.33 310.87C148.519 311.429 148.522 312.034 148.34 312.594C148.157 313.155 147.799 313.643 147.317 313.984C146.843 314.334 146.269 314.524 145.679 314.526Z" fill="#FFC52E"/>
<path d="M185.702 314.526C185.112 314.524 184.538 314.334 184.063 313.984L180.113 311.117C179.786 310.878 179.39 310.749 178.985 310.749C178.579 310.749 178.184 310.878 177.856 311.117L173.906 313.984C173.43 314.33 172.856 314.516 172.268 314.516C171.679 314.516 171.105 314.33 170.629 313.984C170.152 313.638 169.798 313.151 169.616 312.591C169.434 312.032 169.434 311.429 169.616 310.87L171.124 306.231C171.25 305.846 171.251 305.43 171.125 305.045C171 304.659 170.755 304.323 170.427 304.085L166.477 301.219C166.001 300.873 165.646 300.385 165.464 299.826C165.282 299.266 165.282 298.664 165.464 298.104C165.646 297.545 166.001 297.057 166.477 296.711C166.954 296.366 167.527 296.179 168.116 296.179H172.998C173.404 296.18 173.799 296.052 174.127 295.814C174.456 295.576 174.7 295.239 174.824 294.854L176.333 290.215C176.515 289.655 176.869 289.168 177.346 288.822C177.822 288.476 178.396 288.29 178.985 288.29C179.574 288.29 180.147 288.476 180.624 288.822C181.1 289.168 181.455 289.655 181.636 290.215L183.145 294.854C183.27 295.239 183.514 295.576 183.842 295.814C184.17 296.052 184.566 296.18 184.972 296.179H189.853C190.442 296.179 191.016 296.366 191.492 296.711C191.969 297.057 192.323 297.545 192.505 298.104C192.687 298.664 192.687 299.266 192.505 299.826C192.323 300.385 191.969 300.873 191.492 301.219L187.543 304.085C187.214 304.323 186.969 304.659 186.844 305.045C186.718 305.43 186.719 305.846 186.845 306.231L188.354 310.87C188.542 311.429 188.546 312.034 188.363 312.594C188.181 313.155 187.822 313.643 187.341 313.984C186.866 314.334 186.292 314.524 185.702 314.526Z" fill="#FFC52E"/>
<path d="M225.725 314.526C225.135 314.524 224.561 314.334 224.087 313.984L220.137 311.117C219.809 310.879 219.414 310.75 219.008 310.75C218.602 310.75 218.207 310.879 217.879 311.117L213.93 313.984C213.453 314.33 212.88 314.516 212.291 314.516C211.702 314.516 211.128 314.33 210.652 313.984C210.176 313.638 209.821 313.151 209.639 312.591C209.457 312.032 209.457 311.429 209.639 310.87L211.148 306.231C211.274 305.846 211.274 305.43 211.149 305.045C211.023 304.659 210.779 304.323 210.45 304.085L206.5 301.219C206.024 300.873 205.67 300.385 205.488 299.826C205.306 299.266 205.306 298.664 205.488 298.104C205.67 297.545 206.024 297.057 206.501 296.711C206.977 296.366 207.551 296.179 208.139 296.179H213.021C213.427 296.18 213.822 296.052 214.151 295.814C214.479 295.576 214.723 295.239 214.848 294.854L216.356 290.215C216.538 289.655 216.893 289.168 217.369 288.822C217.845 288.476 218.419 288.29 219.008 288.29C219.597 288.29 220.171 288.476 220.647 288.822C221.123 289.168 221.478 289.655 221.66 290.215L223.168 294.854C223.293 295.239 223.537 295.576 223.865 295.814C224.194 296.052 224.589 296.18 224.995 296.179H229.877C230.466 296.179 231.039 296.366 231.516 296.711C231.992 297.057 232.346 297.545 232.528 298.104C232.71 298.664 232.71 299.266 232.528 299.826C232.346 300.385 231.992 300.873 231.516 301.219L227.566 304.085C227.237 304.323 226.993 304.659 226.867 305.045C226.742 305.43 226.742 305.846 226.869 306.231L228.377 310.87C228.566 311.429 228.569 312.033 228.386 312.594C228.204 313.155 227.846 313.643 227.364 313.984C226.889 314.334 226.315 314.524 225.725 314.526Z" fill="#FFC52E"/>
<path d="M265.749 314.526C265.159 314.524 264.585 314.334 264.11 313.984L260.16 311.117C259.832 310.878 259.437 310.749 259.031 310.749C258.626 310.749 258.23 310.878 257.903 311.117L253.953 313.984C253.477 314.33 252.903 314.516 252.314 314.516C251.725 314.516 251.152 314.33 250.675 313.984C250.199 313.638 249.844 313.151 249.662 312.591C249.48 312.032 249.48 311.429 249.662 310.87L251.171 306.231C251.297 305.846 251.298 305.43 251.172 305.045C251.047 304.659 250.802 304.324 250.473 304.086L246.524 301.219C246.047 300.873 245.693 300.385 245.511 299.826C245.329 299.266 245.329 298.664 245.511 298.104C245.693 297.545 246.047 297.057 246.524 296.711C247 296.366 247.574 296.179 248.162 296.179H253.044C253.45 296.18 253.846 296.052 254.174 295.814C254.502 295.576 254.746 295.239 254.871 294.854L256.379 290.215C256.561 289.655 256.916 289.168 257.392 288.822C257.869 288.476 258.442 288.29 259.031 288.29C259.62 288.29 260.194 288.476 260.67 288.822C261.147 289.168 261.501 289.655 261.683 290.215L263.192 294.854C263.316 295.239 263.56 295.576 263.889 295.814C264.217 296.052 264.612 296.18 265.018 296.179H269.9C270.489 296.179 271.062 296.366 271.539 296.711C272.015 297.057 272.37 297.545 272.552 298.104C272.733 298.664 272.734 299.266 272.552 299.826C272.37 300.385 272.015 300.873 271.539 301.219L267.589 304.086C267.261 304.323 267.016 304.659 266.891 305.045C266.765 305.43 266.766 305.846 266.892 306.231L268.4 310.87C268.589 311.429 268.592 312.034 268.41 312.595C268.227 313.155 267.869 313.643 267.387 313.984C266.913 314.334 266.339 314.524 265.749 314.526Z" fill="#FFC52E"/>
<path d="M292.337 314.801C291.689 314.799 291.059 314.59 290.538 314.206C290.009 313.831 289.615 313.296 289.414 312.68C289.214 312.063 289.217 311.399 289.425 310.785L290.933 306.146C291.041 305.816 291.042 305.46 290.934 305.13C290.827 304.799 290.617 304.511 290.336 304.308L286.386 301.44C285.862 301.061 285.473 300.525 285.273 299.91C285.073 299.296 285.073 298.634 285.273 298.019C285.473 297.405 285.862 296.869 286.386 296.489C286.909 296.11 287.539 295.905 288.186 295.905H293.068C293.416 295.906 293.755 295.796 294.036 295.592C294.317 295.388 294.527 295.099 294.633 294.769L296.142 290.13C296.342 289.515 296.731 288.98 297.255 288.6C297.778 288.22 298.408 288.016 299.055 288.016C299.702 288.016 300.332 288.22 300.855 288.6C301.378 288.98 301.768 289.515 301.968 290.13L303.476 294.769C303.583 295.099 303.792 295.388 304.073 295.592C304.355 295.796 304.694 295.906 305.042 295.905H309.924C310.57 295.905 311.2 296.11 311.724 296.49C312.247 296.869 312.636 297.405 312.836 298.019C313.036 298.634 313.036 299.296 312.836 299.91C312.636 300.525 312.247 301.061 311.724 301.44L307.774 304.308C307.492 304.511 307.283 304.799 307.175 305.129C307.068 305.46 307.068 305.816 307.176 306.146L308.685 310.785C308.885 311.399 308.885 312.061 308.685 312.676C308.485 313.29 308.095 313.826 307.572 314.206C307.049 314.586 306.419 314.79 305.772 314.79C305.125 314.79 304.495 314.586 303.972 314.206L300.022 311.339C299.741 311.134 299.402 311.024 299.055 311.024C298.707 311.024 298.368 311.134 298.087 311.339L294.138 314.206C293.616 314.59 292.985 314.799 292.337 314.801ZM299.055 309.608C299.702 309.608 300.332 309.813 300.855 310.194L304.804 313.061C305.085 313.265 305.424 313.375 305.772 313.375C306.119 313.375 306.458 313.265 306.739 313.061C307.021 312.857 307.23 312.569 307.337 312.239C307.445 311.908 307.445 311.553 307.337 311.222L305.829 306.584C305.628 305.969 305.627 305.307 305.827 304.692C306.027 304.077 306.417 303.542 306.941 303.163L310.891 300.295C311.172 300.091 311.381 299.803 311.489 299.473C311.596 299.143 311.596 298.787 311.489 298.457C311.381 298.126 311.172 297.839 310.891 297.635C310.61 297.43 310.271 297.32 309.923 297.32H305.041C304.394 297.322 303.764 297.118 303.24 296.738C302.717 296.358 302.328 295.821 302.129 295.206L300.62 290.567C300.513 290.237 300.303 289.949 300.022 289.745C299.741 289.541 299.402 289.431 299.055 289.431C298.707 289.431 298.368 289.541 298.087 289.745C297.806 289.949 297.597 290.237 297.489 290.567L295.98 295.206C295.782 295.821 295.392 296.358 294.869 296.738C294.346 297.118 293.715 297.322 293.068 297.32H288.186C287.838 297.32 287.5 297.43 287.218 297.634C286.937 297.839 286.728 298.126 286.62 298.457C286.513 298.787 286.513 299.143 286.62 299.473C286.728 299.803 286.937 300.091 287.218 300.295L291.168 303.163C291.692 303.542 292.082 304.077 292.282 304.692C292.482 305.307 292.482 305.969 292.281 306.584L290.772 311.222C290.664 311.553 290.664 311.908 290.772 312.239C290.879 312.569 291.089 312.857 291.37 313.061C291.651 313.265 291.99 313.375 292.337 313.375C292.685 313.375 293.024 313.265 293.305 313.061L297.255 310.194C297.778 309.813 298.408 309.608 299.055 309.608Z" fill="#B3B3B3"/>
<path d="M47.955 198.138C46.734 198.138 45.563 198.622 44.6996 199.485C43.8362 200.348 43.3512 201.518 43.3512 202.737C43.3512 203.957 43.8362 205.127 44.6996 205.99C45.563 206.852 46.734 207.337 47.955 207.337H280.976C282.197 207.337 283.368 206.852 284.232 205.99C285.095 205.127 285.58 203.957 285.58 202.737C285.58 201.518 285.095 200.348 284.232 199.485C283.368 198.622 282.197 198.138 280.976 198.138H47.955Z" fill="#CCCCCC"/>
<path d="M47.955 222.197C46.734 222.197 45.563 222.682 44.6996 223.545C43.8362 224.407 43.3512 225.577 43.3512 226.797C43.3512 228.017 43.8362 229.187 44.6996 230.049C45.563 230.912 46.734 231.397 47.955 231.397H280.976C282.197 231.397 283.368 230.912 284.232 230.049C285.095 229.187 285.58 228.017 285.58 226.797C285.58 225.577 285.095 224.407 284.232 223.545C283.368 222.682 282.197 222.197 280.976 222.197H47.955Z" fill="#CCCCCC"/>
<path d="M47.955 246.257C46.734 246.257 45.563 246.742 44.6996 247.604C43.8362 248.467 43.3512 249.637 43.3512 250.857C43.3512 252.076 43.8362 253.246 44.6996 254.109C45.563 254.972 46.734 255.456 47.955 255.456H280.976C282.197 255.456 283.368 254.972 284.232 254.109C285.095 253.246 285.58 252.076 285.58 250.857C285.58 249.637 285.095 248.467 284.232 247.604C283.368 246.742 282.197 246.257 280.976 246.257H47.955Z" fill="#CCCCCC"/>
<path d="M47.955 198.138C46.734 198.138 45.563 198.622 44.6996 199.485C43.8362 200.348 43.3512 201.518 43.3512 202.737C43.3512 203.957 43.8362 205.127 44.6996 205.99C45.563 206.852 46.734 207.337 47.955 207.337H280.976C282.197 207.337 283.368 206.852 284.232 205.99C285.095 205.127 285.58 203.957 285.58 202.737C285.58 201.518 285.095 200.348 284.232 199.485C283.368 198.622 282.197 198.138 280.976 198.138H47.955Z" fill="#8800FF"/>
<path d="M47.955 222.197C46.734 222.197 45.563 222.682 44.6996 223.545C43.8362 224.407 43.3512 225.577 43.3512 226.797C43.3512 228.017 43.8362 229.187 44.6996 230.049C45.563 230.912 46.734 231.397 47.955 231.397H280.976C282.197 231.397 283.368 230.912 284.232 230.049C285.095 229.187 285.58 228.017 285.58 226.797C285.58 225.577 285.095 224.407 284.232 223.545C283.368 222.682 282.197 222.197 280.976 222.197H47.955Z" fill="#8800FF"/>
<path d="M47.955 246.257C46.734 246.257 45.563 246.742 44.6996 247.604C43.8362 248.467 43.3512 249.637 43.3512 250.857C43.3512 252.076 43.8362 253.246 44.6996 254.109C45.563 254.972 46.734 255.456 47.955 255.456H280.976C282.197 255.456 283.368 254.972 284.232 254.109C285.095 253.246 285.58 252.076 285.58 250.857C285.58 249.637 285.095 248.467 284.232 247.604C283.368 246.742 282.197 246.257 280.976 246.257H47.955Z" fill="#8800FF"/>
<path d="M314.973 99.7765H13.9579C12.6434 99.7751 11.3832 99.2527 10.4538 98.3241C9.5243 97.3955 9.00148 96.1364 9 94.8231V4.95345C9.00148 3.64016 9.5243 2.38109 10.4538 1.45246C11.3832 0.523825 12.6434 0.00147402 13.9579 0H314.973C316.288 0.00147215 317.548 0.523825 318.477 1.45246C319.407 2.38109 319.93 3.64016 319.931 4.95345V94.8231C319.93 96.1364 319.407 97.3955 318.477 98.3241C317.548 99.2527 316.288 99.7751 314.973 99.7765ZM13.9579 1.41527C13.019 1.41636 12.1189 1.78947 11.455 2.45277C10.7911 3.11607 10.4176 4.0154 10.4165 4.95345V94.8231C10.4176 95.7611 10.7911 96.6605 11.455 97.3238C12.1189 97.9871 13.019 98.3602 13.9579 98.3613H314.973C315.912 98.3602 316.812 97.9871 317.476 97.3238C318.14 96.6605 318.514 95.7611 318.515 94.8231V4.95345C318.514 4.01539 318.14 3.11607 317.476 2.45276C316.812 1.78946 315.912 1.41634 314.973 1.41527H13.9579Z" fill="#B3B3B3"/>
<path d="M145.679 137.617C145.089 137.615 144.515 137.425 144.04 137.075L140.09 134.208C139.762 133.969 139.367 133.84 138.961 133.84C138.556 133.84 138.16 133.969 137.833 134.208L133.883 137.075C133.407 137.421 132.833 137.607 132.244 137.607C131.655 137.607 131.082 137.421 130.605 137.075C130.129 136.73 129.775 136.242 129.593 135.683C129.411 135.123 129.41 134.521 129.592 133.961L131.101 129.322C131.227 128.937 131.228 128.522 131.102 128.136C130.977 127.75 130.732 127.414 130.403 127.177L126.454 124.31C125.977 123.964 125.623 123.476 125.441 122.917C125.259 122.358 125.259 121.755 125.441 121.195C125.623 120.636 125.977 120.148 126.454 119.803C126.93 119.457 127.504 119.271 128.093 119.271H132.975C133.38 119.271 133.776 119.143 134.104 118.905C134.432 118.667 134.676 118.331 134.801 117.945L136.31 113.306C136.491 112.747 136.846 112.259 137.322 111.913C137.799 111.567 138.373 111.381 138.961 111.381C139.55 111.381 140.124 111.567 140.6 111.913C141.077 112.259 141.431 112.747 141.613 113.306L143.122 117.945C143.246 118.331 143.49 118.667 143.819 118.905C144.147 119.143 144.542 119.271 144.948 119.271H149.83C150.419 119.271 150.993 119.457 151.469 119.803C151.945 120.148 152.3 120.636 152.482 121.195C152.664 121.755 152.664 122.358 152.482 122.917C152.3 123.476 151.945 123.964 151.469 124.31L147.519 127.177C147.191 127.414 146.946 127.75 146.821 128.136C146.695 128.522 146.696 128.937 146.822 129.322L148.33 133.961C148.519 134.52 148.522 135.125 148.34 135.686C148.157 136.247 147.799 136.734 147.317 137.075C146.843 137.425 146.269 137.615 145.679 137.617Z" fill="#FFC52E"/>
<path d="M185.702 137.617C185.112 137.615 184.538 137.425 184.063 137.075L180.113 134.208C179.786 133.969 179.39 133.84 178.985 133.84C178.579 133.84 178.184 133.969 177.856 134.208L173.906 137.075C173.43 137.421 172.856 137.607 172.268 137.607C171.679 137.607 171.105 137.421 170.629 137.075C170.152 136.73 169.798 136.242 169.616 135.683C169.434 135.123 169.434 134.521 169.616 133.961L171.124 129.322C171.25 128.937 171.251 128.522 171.125 128.136C171 127.75 170.755 127.414 170.427 127.177L166.477 124.31C166.001 123.964 165.646 123.476 165.464 122.917C165.282 122.357 165.282 121.755 165.464 121.195C165.646 120.636 166.001 120.148 166.477 119.803C166.954 119.457 167.527 119.271 168.116 119.271H172.998C173.404 119.271 173.799 119.143 174.127 118.905C174.456 118.667 174.7 118.331 174.824 117.945L176.333 113.306C176.515 112.747 176.869 112.259 177.346 111.913C177.822 111.567 178.396 111.381 178.985 111.381C179.574 111.381 180.147 111.567 180.624 111.913C181.1 112.259 181.455 112.747 181.636 113.306L183.145 117.945C183.27 118.331 183.514 118.667 183.842 118.905C184.17 119.143 184.566 119.271 184.972 119.271H189.853C190.442 119.271 191.016 119.457 191.492 119.803C191.969 120.148 192.323 120.636 192.505 121.195C192.687 121.755 192.687 122.357 192.505 122.917C192.323 123.476 191.969 123.964 191.492 124.31L187.543 127.177C187.214 127.414 186.969 127.75 186.844 128.136C186.718 128.522 186.719 128.937 186.845 129.322L188.354 133.961C188.542 134.52 188.546 135.125 188.363 135.686C188.181 136.247 187.822 136.734 187.341 137.075C186.866 137.425 186.292 137.615 185.702 137.617Z" fill="#FFC52E"/>
<path d="M225.725 137.617C225.135 137.615 224.561 137.425 224.087 137.075L220.137 134.208C219.809 133.97 219.414 133.841 219.008 133.841C218.602 133.841 218.207 133.97 217.879 134.208L213.93 137.075C213.453 137.421 212.88 137.607 212.291 137.607C211.702 137.607 211.128 137.421 210.652 137.075C210.176 136.73 209.821 136.242 209.639 135.683C209.457 135.123 209.457 134.521 209.639 133.961L211.148 129.322C211.274 128.937 211.274 128.522 211.149 128.136C211.023 127.75 210.779 127.414 210.45 127.177L206.5 124.31C206.024 123.964 205.67 123.476 205.488 122.917C205.306 122.357 205.306 121.755 205.488 121.195C205.67 120.636 206.024 120.148 206.501 119.803C206.977 119.457 207.551 119.271 208.139 119.271H213.021C213.427 119.271 213.822 119.143 214.151 118.905C214.479 118.667 214.723 118.331 214.848 117.945L216.356 113.306C216.538 112.747 216.893 112.259 217.369 111.913C217.845 111.567 218.419 111.381 219.008 111.381C219.597 111.381 220.171 111.567 220.647 111.913C221.123 112.259 221.478 112.747 221.66 113.306L223.168 117.945C223.293 118.331 223.537 118.667 223.865 118.905C224.194 119.143 224.589 119.271 224.995 119.271H229.877C230.466 119.271 231.039 119.457 231.516 119.803C231.992 120.148 232.346 120.636 232.528 121.195C232.71 121.755 232.71 122.357 232.528 122.917C232.346 123.476 231.992 123.964 231.516 124.31L227.566 127.177C227.237 127.414 226.993 127.75 226.867 128.136C226.742 128.522 226.742 128.937 226.869 129.322L228.377 133.961C228.566 134.52 228.569 135.125 228.386 135.686C228.204 136.247 227.846 136.734 227.364 137.075C226.889 137.425 226.315 137.615 225.725 137.617Z" fill="#FFC52E"/>
<path d="M292.337 137.892C291.689 137.89 291.059 137.681 290.538 137.297C290.009 136.922 289.615 136.387 289.414 135.771C289.214 135.154 289.217 134.49 289.425 133.876L290.933 129.237C291.041 128.907 291.042 128.551 290.934 128.221C290.827 127.89 290.617 127.603 290.336 127.399L286.386 124.532C285.862 124.152 285.473 123.616 285.273 123.002C285.073 122.387 285.073 121.725 285.273 121.111C285.473 120.496 285.862 119.96 286.386 119.581C286.909 119.201 287.539 118.996 288.186 118.996H293.068C293.416 118.997 293.755 118.887 294.036 118.683C294.317 118.479 294.527 118.191 294.633 117.86L296.142 113.221C296.342 112.607 296.731 112.071 297.255 111.691C297.778 111.311 298.408 111.107 299.055 111.107C299.702 111.107 300.332 111.311 300.855 111.691C301.378 112.071 301.768 112.607 301.968 113.221L303.476 117.86C303.583 118.191 303.792 118.479 304.073 118.683C304.355 118.887 304.694 118.997 305.042 118.996H309.924C310.57 118.996 311.2 119.201 311.724 119.581C312.247 119.961 312.636 120.496 312.836 121.111C313.036 121.725 313.036 122.387 312.836 123.002C312.636 123.616 312.247 124.152 311.724 124.532L307.774 127.399C307.492 127.602 307.283 127.89 307.175 128.221C307.068 128.551 307.068 128.907 307.176 129.237L308.685 133.876C308.885 134.491 308.885 135.153 308.685 135.767C308.485 136.382 308.095 136.917 307.572 137.297C307.049 137.677 306.419 137.881 305.772 137.881C305.125 137.881 304.495 137.677 303.972 137.297L300.022 134.43C299.741 134.225 299.402 134.115 299.055 134.115C298.707 134.115 298.368 134.225 298.087 134.43L294.138 137.297C293.616 137.681 292.985 137.89 292.337 137.892ZM299.055 132.699C299.702 132.699 300.332 132.904 300.855 133.285L304.804 136.152C305.085 136.356 305.424 136.466 305.772 136.466C306.119 136.466 306.458 136.356 306.739 136.152C307.021 135.948 307.23 135.66 307.337 135.33C307.445 135 307.445 134.644 307.337 134.313L305.829 129.675C305.628 129.06 305.627 128.398 305.827 127.783C306.027 127.168 306.417 126.633 306.941 126.254L310.891 123.387C311.172 123.182 311.381 122.895 311.489 122.564C311.596 122.234 311.596 121.878 311.489 121.548C311.381 121.218 311.172 120.93 310.891 120.726C310.61 120.522 310.271 120.412 309.923 120.412H305.041C304.394 120.413 303.764 120.209 303.24 119.829C302.717 119.449 302.328 118.913 302.129 118.297L300.62 113.659C300.513 113.328 300.303 113.04 300.022 112.836C299.741 112.632 299.402 112.522 299.055 112.522C298.707 112.522 298.368 112.632 298.087 112.836C297.806 113.04 297.597 113.328 297.489 113.659L295.98 118.297C295.782 118.913 295.392 119.449 294.869 119.829C294.346 120.209 293.715 120.413 293.068 120.412H288.186C287.838 120.412 287.5 120.522 287.218 120.726C286.937 120.93 286.728 121.218 286.62 121.548C286.513 121.878 286.513 122.234 286.62 122.564C286.728 122.895 286.937 123.182 287.218 123.387L291.168 126.254C291.692 126.633 292.082 127.168 292.282 127.783C292.482 128.398 292.482 129.06 292.281 129.675L290.772 134.313C290.664 134.644 290.664 135 290.772 135.33C290.879 135.66 291.089 135.948 291.37 136.152C291.651 136.356 291.99 136.466 292.337 136.466C292.685 136.466 293.024 136.356 293.305 136.152L297.255 133.285C297.778 132.904 298.408 132.699 299.055 132.699Z" fill="#B3B3B3"/>
<path d="M251.966 137.779C251.318 137.776 250.688 137.568 250.166 137.184C249.637 136.809 249.243 136.273 249.043 135.657C248.842 135.041 248.846 134.376 249.053 133.762L250.562 129.124C250.67 128.793 250.67 128.437 250.563 128.107C250.455 127.777 250.246 127.489 249.964 127.285L246.014 124.418C245.491 124.038 245.102 123.503 244.902 122.888C244.702 122.273 244.702 121.611 244.902 120.997C245.102 120.382 245.491 119.847 246.014 119.467C246.538 119.087 247.168 118.883 247.815 118.883H252.697C253.044 118.883 253.383 118.774 253.665 118.569C253.946 118.365 254.155 118.077 254.262 117.746L255.771 113.108C255.971 112.493 256.36 111.957 256.883 111.578C257.407 111.198 258.037 110.993 258.683 110.993C259.33 110.993 259.96 111.198 260.484 111.578C261.007 111.957 261.396 112.493 261.596 113.108L263.105 117.746C263.212 118.077 263.421 118.365 263.702 118.569C263.983 118.774 264.322 118.883 264.67 118.883H269.552C270.199 118.883 270.829 119.087 271.352 119.467C271.875 119.847 272.265 120.382 272.465 120.997C272.665 121.612 272.665 122.273 272.465 122.888C272.265 123.503 271.875 124.038 271.352 124.418L267.403 127.285C267.121 127.489 266.911 127.777 266.804 128.107C266.696 128.437 266.697 128.793 266.805 129.124L268.313 133.762C268.513 134.377 268.513 135.039 268.313 135.653C268.113 136.268 267.724 136.804 267.201 137.183C266.677 137.563 266.047 137.768 265.4 137.768C264.754 137.768 264.124 137.563 263.6 137.183L259.651 134.317C259.37 134.112 259.031 134.001 258.683 134.001C258.335 134.001 257.997 134.112 257.716 134.317L253.766 137.183C253.245 137.568 252.614 137.776 251.966 137.779ZM258.683 132.585C259.33 132.586 259.96 132.791 260.483 133.172L264.433 136.038C264.714 136.243 265.053 136.353 265.4 136.353C265.748 136.353 266.087 136.243 266.368 136.039C266.649 135.834 266.859 135.547 266.966 135.216C267.073 134.886 267.073 134.53 266.966 134.2L265.457 129.561C265.256 128.947 265.256 128.284 265.456 127.669C265.656 127.055 266.046 126.519 266.57 126.14L270.519 123.273C270.801 123.069 271.01 122.781 271.117 122.451C271.225 122.12 271.225 121.765 271.117 121.434C271.01 121.104 270.801 120.816 270.519 120.612C270.238 120.408 269.9 120.298 269.552 120.298H264.67C264.023 120.299 263.392 120.095 262.869 119.715C262.345 119.335 261.956 118.799 261.757 118.184L260.249 113.545C260.141 113.215 259.932 112.927 259.651 112.723C259.37 112.518 259.031 112.409 258.683 112.409C258.336 112.409 257.997 112.518 257.716 112.723C257.434 112.927 257.225 113.215 257.118 113.545L255.609 118.184C255.41 118.799 255.021 119.335 254.498 119.715C253.974 120.095 253.344 120.299 252.697 120.298H247.815C247.467 120.298 247.128 120.408 246.847 120.612C246.566 120.816 246.356 121.104 246.249 121.434C246.142 121.765 246.142 122.12 246.249 122.451C246.356 122.781 246.566 123.069 246.847 123.273L250.797 126.14C251.321 126.519 251.711 127.055 251.911 127.669C252.111 128.284 252.11 128.947 251.909 129.561L250.4 134.2C250.293 134.53 250.293 134.886 250.4 135.216C250.508 135.546 250.717 135.834 250.998 136.038C251.28 136.243 251.618 136.352 251.966 136.352C252.314 136.352 252.652 136.242 252.933 136.038L256.883 133.172C257.406 132.791 258.036 132.586 258.683 132.585Z" fill="#B3B3B3"/>
<path d="M47.955 21.2291C46.734 21.2291 45.563 21.7137 44.6996 22.5763C43.8362 23.4389 43.3512 24.6088 43.3512 25.8287C43.3512 27.0486 43.8362 28.2185 44.6996 29.0811C45.563 29.9437 46.734 30.4283 47.955 30.4283H280.976C282.197 30.4283 283.368 29.9437 284.232 29.0811C285.095 28.2185 285.58 27.0486 285.58 25.8287C285.58 24.6088 285.095 23.4389 284.232 22.5763C283.368 21.7137 282.197 21.2291 280.976 21.2291H47.955Z" fill="#CCCCCC"/>
<path d="M47.955 45.2886C46.734 45.2886 45.563 45.7732 44.6996 46.6358C43.8362 47.4984 43.3512 48.6684 43.3512 49.8883C43.3512 51.1082 43.8362 52.2781 44.6996 53.1407C45.563 54.0033 46.734 54.4879 47.955 54.4879H280.976C282.197 54.4879 283.368 54.0033 284.232 53.1407C285.095 52.2781 285.58 51.1082 285.58 49.8883C285.58 48.6684 285.095 47.4984 284.232 46.6358C283.368 45.7732 282.197 45.2886 280.976 45.2886H47.955Z" fill="#CCCCCC"/>
<path d="M47.955 69.3482C46.734 69.3482 45.563 69.8328 44.6996 70.6954C43.8362 71.558 43.3512 72.7279 43.3512 73.9478C43.3512 75.1677 43.8362 76.3377 44.6996 77.2003C45.563 78.0629 46.734 78.5475 47.955 78.5475H280.976C282.197 78.5475 283.368 78.0629 284.232 77.2003C285.095 76.3377 285.58 75.1677 285.58 73.9478C285.58 72.7279 285.095 71.558 284.232 70.6954C283.368 69.8328 282.197 69.3482 280.976 69.3482H47.955Z" fill="#CCCCCC"/>
<path d="M47.955 21.2291C46.734 21.2291 45.563 21.7137 44.6996 22.5763C43.8362 23.4389 43.3512 24.6088 43.3512 25.8287C43.3512 27.0486 43.8362 28.2185 44.6996 29.0811C45.563 29.9437 46.734 30.4283 47.955 30.4283H280.976C282.197 30.4283 283.368 29.9437 284.232 29.0811C285.095 28.2185 285.58 27.0486 285.58 25.8287C285.58 24.6088 285.095 23.4389 284.232 22.5763C283.368 21.7137 282.197 21.2291 280.976 21.2291H47.955Z" fill="#CCCCCC"/>
<path d="M47.955 45.2886C46.734 45.2886 45.563 45.7732 44.6996 46.6358C43.8362 47.4984 43.3512 48.6684 43.3512 49.8883C43.3512 51.1082 43.8362 52.2781 44.6996 53.1407C45.563 54.0033 46.734 54.4879 47.955 54.4879H280.976C282.197 54.4879 283.368 54.0033 284.232 53.1407C285.095 52.2781 285.58 51.1082 285.58 49.8883C285.58 48.6684 285.095 47.4984 284.232 46.6358C283.368 45.7732 282.197 45.2886 280.976 45.2886H47.955Z" fill="#CCCCCC"/>
<path d="M47.955 69.3482C46.734 69.3482 45.563 69.8328 44.6996 70.6954C43.8362 71.558 43.3512 72.7279 43.3512 73.9478C43.3512 75.1677 43.8362 76.3377 44.6996 77.2003C45.563 78.0629 46.734 78.5475 47.955 78.5475H280.976C282.197 78.5475 283.368 78.0629 284.232 77.2003C285.095 76.3377 285.58 75.1677 285.58 73.9478C285.58 72.7279 285.095 71.558 284.232 70.6954C283.368 69.8328 282.197 69.3482 280.976 69.3482H47.955Z" fill="#CCCCCC"/>
<defs>
<filter id="filter0_d" x="0" y="174" width="329" height="143" filterUnits="userSpaceOnUse" color-interpolation-filters="sRGB">
<feFlood flood-opacity="0" result="BackgroundImageFix"/>
<feColorMatrix in="SourceAlpha" type="matrix" values="0 0 0 0 0 0 0 0 0 0 0 0 0 0 0 0 0 0 127 0"/>
<feOffset dy="10"/>
<feGaussianBlur stdDeviation="15"/>
<feColorMatrix type="matrix" values="0 0 0 0 0.533333 0 0 0 0 0 0 0 0 0 1 0 0 0 0.2 0"/>
<feBlend mode="normal" in2="BackgroundImageFix" result="effect1_dropShadow"/>
<feBlend mode="normal" in="SourceGraphic" in2="effect1_dropShadow" result="shape"/>
</filter>
</defs>
</svg>
