<svg width="266" height="212" viewBox="0 0 266 212" fill="none" xmlns="http://www.w3.org/2000/svg">
<g clip-path="url(#clip0)">
<path d="M198.427 209.453C194.745 206.333 192.508 201.403 193.095 196.605C193.681 191.806 197.314 187.394 202.026 186.375C206.738 185.356 212.11 188.177 213.541 192.794C214.328 183.893 215.236 174.619 219.954 167.038C224.226 160.175 231.626 155.264 239.645 154.385C247.665 153.507 256.108 156.825 261.109 163.174C266.111 169.522 267.335 178.752 263.832 186.041C261.252 191.41 256.498 195.406 251.517 198.657C235.421 209.073 216.117 213.309 197.155 210.585" fill="#F3E6FF"/>
<path d="M253.179 157.009C246.562 162.415 240.491 168.461 235.055 175.059C226.548 185.351 219.664 196.89 214.643 209.274C214.275 210.177 215.738 210.571 216.101 209.677C224.317 189.551 237.432 171.811 254.248 158.082C255.003 157.465 253.928 156.397 253.179 157.009Z" fill="white"/>
<path d="M65.0337 211.589H44.1525C43.447 211.589 42.7705 211.307 42.2716 210.807C41.7727 210.306 41.492 209.628 41.4912 208.92V165.389C41.492 164.681 41.7727 164.003 42.2716 163.503C42.7705 163.002 43.447 162.721 44.1525 162.72H65.0337C65.7393 162.721 66.4158 163.002 66.9147 163.503C67.4136 164.003 67.6943 164.681 67.6951 165.389V208.92C67.6943 209.628 67.4136 210.306 66.9147 210.807C66.4158 211.307 65.7393 211.589 65.0337 211.589Z" fill="#F5D152"/>
<path d="M114.575 212H93.6938C92.8797 211.999 92.0991 211.674 91.5234 211.097C90.9478 210.52 90.624 209.737 90.623 208.92V124.322C90.624 123.506 90.9478 122.723 91.5234 122.145C92.0991 121.568 92.8797 121.243 93.6938 121.242H114.575C115.389 121.243 116.17 121.568 116.745 122.145C117.321 122.723 117.645 123.506 117.646 124.322V208.92C117.645 209.737 117.321 210.52 116.745 211.097C116.17 211.674 115.389 211.999 114.575 212ZM93.6938 122.064C93.0968 122.064 92.5244 122.303 92.1022 122.726C91.6801 123.149 91.4426 123.723 91.4419 124.322V208.92C91.4426 209.519 91.6801 210.093 92.1022 210.516C92.5244 210.94 93.0968 211.178 93.6938 211.179H114.575C115.172 211.178 115.744 210.94 116.167 210.516C116.589 210.093 116.826 209.519 116.827 208.92V124.322C116.826 123.723 116.589 123.149 116.167 122.726C115.744 122.303 115.172 122.064 114.575 122.064H93.6938Z" fill="#F5526F"/>
<path d="M164.117 212H143.236C142.422 211.999 141.641 211.674 141.065 211.097C140.49 210.519 140.166 209.737 140.165 208.92V70.5247C140.166 69.7082 140.49 68.9253 141.065 68.3478C141.641 67.7704 142.422 67.4456 143.236 67.4447H164.117C164.931 67.4456 165.712 67.7704 166.287 68.3478C166.863 68.9253 167.187 69.7082 167.188 70.5247V208.92C167.187 209.737 166.863 210.519 166.287 211.097C165.712 211.674 164.931 211.999 164.117 212ZM143.236 68.2661C142.639 68.2667 142.066 68.5049 141.644 68.9284C141.222 69.3518 140.985 69.9259 140.984 70.5247V208.92C140.985 209.519 141.222 210.093 141.644 210.516C142.066 210.94 142.639 211.178 143.236 211.179H164.117C164.714 211.178 165.286 210.94 165.709 210.516C166.131 210.093 166.368 209.519 166.369 208.92V70.5247C166.368 69.9259 166.131 69.3518 165.709 68.9284C165.286 68.5049 164.714 68.2667 164.117 68.2661H143.236Z" fill="#F5526F"/>
<path d="M214.359 212H193.641C192.941 212 192.269 211.965 191.774 211.902C191.279 211.84 191.001 211.755 191 211.667V187.333C191.001 187.245 191.279 187.16 191.774 187.098C192.269 187.035 192.941 187 193.641 187H214.359C215.059 187 215.731 187.035 216.226 187.098C216.721 187.16 216.999 187.245 217 187.333V211.667C216.999 211.755 216.721 211.84 216.226 211.902C215.731 211.965 215.059 212 214.359 212Z" fill="#5FEE3C"/>
<path d="M84.2537 91.3155C84.3294 90.7166 84.2733 90.1083 84.0893 89.5335C83.9054 88.9587 83.598 88.4313 83.1888 87.9885C82.7796 87.5457 82.2786 87.1983 81.7211 86.9708C81.1636 86.7432 80.5632 86.641 79.962 86.6714L72.6836 73.2798L71.0459 79.0292L76.0324 91.3023C76.1502 92.3119 76.6331 93.243 77.3897 93.9193C78.1462 94.5955 79.1238 94.9699 80.1372 94.9716C81.1506 94.9732 82.1293 94.6019 82.888 93.9281C83.6467 93.2542 84.1326 92.3246 84.2537 91.3155V91.3155Z" fill="#FFB9B9"/>
<path d="M28.1758 144.191L32.2296 147.16L45.5751 132.888L39.5917 128.506L28.1758 144.191Z" fill="#FFB9B9"/>
<path d="M37.2998 156.661L24.5582 147.331L28.1522 142.393L35.9709 148.118C37.2765 149.074 38.15 150.511 38.3993 152.113C38.6485 153.715 38.253 155.351 37.2998 156.661L37.2998 156.661Z" fill="#2F2E41"/>
<path d="M49.6239 159.905L54.6435 159.904L57.0314 140.485L49.623 140.485L49.6239 159.905Z" fill="#FFB9B9"/>
<path d="M64.3242 164.579L48.5484 164.58L48.5481 158.466L58.2287 158.466C59.8453 158.466 61.3957 159.11 62.5388 160.256C63.6819 161.403 64.3241 162.958 64.3242 164.579Z" fill="#2F2E41"/>
<path d="M64.6997 84.1626C64.6997 84.1626 67.1563 107.981 61.0148 124.408L56.511 155.619H48.7317L49.5506 118.659L46.6846 85.8053C46.6846 85.8053 52.4167 71.0212 64.6997 84.1626Z" fill="#2F2E41"/>
<path d="M38.0859 85.805L46.2746 114.141L30.3066 139.603L38.2906 146.379L56.5105 117.837L51.1878 82.9304L38.0859 85.805Z" fill="#2F2E41"/>
<path d="M58.9692 22.264C64.5231 22.264 69.0254 17.7482 69.0254 12.1776C69.0254 6.60701 64.5231 2.09116 58.9692 2.09116C53.4154 2.09116 48.9131 6.60701 48.9131 12.1776C48.9131 17.7482 53.4154 22.264 58.9692 22.264Z" fill="#FFB9B9"/>
<path d="M50.5741 26.053C50.5741 26.053 56.7156 21.9463 63.676 30.981L65.5184 87.8586C65.5184 87.8586 60.1958 80.4666 49.141 87.4479C38.0863 94.4293 35.6297 86.6266 35.6297 86.6266C35.6297 86.6266 27.8504 27.901 50.5741 26.053Z" fill="#8800FF"/>
<path d="M63.1804 30.8376C64.9467 30.9334 66.6154 31.6809 67.8653 32.9364C69.1152 34.1919 69.8582 35.8666 69.9511 37.6384L71.2503 62.3972L79.8484 85.8053L74.9352 89.9119L58.9672 61.9865L55.698 39.033C55.5482 37.9809 55.6327 36.9086 55.9456 35.8933C56.2585 34.8779 56.792 33.9448 57.5075 33.161C58.2231 32.3773 59.103 31.7624 60.0839 31.3606C61.0649 30.9589 62.1224 30.7803 63.1804 30.8376Z" fill="#8800FF"/>
<path d="M51.5798 19.7435C53.2238 21.4999 56.2769 20.557 56.4911 18.1574C56.5079 17.9711 56.5067 17.7836 56.4875 17.5976C56.3769 16.5346 55.7646 15.5696 55.9113 14.4474C55.9445 14.168 56.0482 13.9019 56.2127 13.674C57.5228 11.9145 60.598 14.461 61.8344 12.8681C62.5925 11.8914 61.7014 10.3536 62.2831 9.26201C63.051 7.82122 65.3253 8.53196 66.7515 7.74292C68.3384 6.865 68.2435 4.42297 67.1989 2.9376C65.925 1.12615 63.6914 0.159533 61.4857 0.0202135C59.2799 -0.119106 57.0894 0.478966 55.0301 1.2839C52.6904 2.19846 50.3702 3.46242 48.9303 5.52595C47.1793 8.03543 47.0108 11.4092 47.8865 14.3435C48.4193 16.1285 50.2373 18.3091 51.5798 19.7435Z" fill="#2F2E41"/>
<path d="M265.511 211.978H0.486092C0.357041 211.978 0.233401 211.926 0.14228 211.834C0.0511597 211.743 0 211.618 0 211.489C0 211.36 0.0511597 211.235 0.14228 211.144C0.233401 211.052 0.357041 211 0.486092 211H265.511C265.64 211 265.764 211.052 265.855 211.144C265.946 211.235 265.997 211.36 265.997 211.489C265.997 211.618 265.946 211.743 265.855 211.834C265.764 211.926 265.64 211.978 265.511 211.978Z" fill="#1B0033"/>
<path d="M212.199 160.582C212.172 160.677 212.146 160.772 212.181 160.833L213.979 163.895C214.245 164.43 214.327 165.067 214.168 165.637L213.968 166.349C213.636 167.535 212.343 168.247 211.136 167.909L204.375 166.015C203.466 167.961 201.254 168.979 199.081 168.37C196.908 167.761 195.56 165.695 195.78 163.607L189.02 161.713C187.812 161.375 187.077 160.095 187.41 158.909L187.609 158.197C187.782 157.58 188.121 157.112 188.675 156.807L191.754 155.111C191.816 155.077 191.878 155.043 191.904 154.948L194.456 145.838C195.905 140.666 201.158 137.532 206.409 138.491L207.021 136.309C207.167 135.787 207.721 135.481 208.252 135.63C208.783 135.779 209.098 136.328 208.952 136.85L208.341 139.032C213.361 141.002 216.186 146.347 214.737 151.519L212.199 160.582Z" fill="#8800FF"/>
<path d="M188.284 153.371C188.525 153.439 188.793 153.411 189.04 153.276C189.532 153.004 189.692 152.435 189.412 151.947C188.585 150.436 188.335 148.728 188.8 147.068C189.265 145.407 190.318 144.065 191.858 143.217C192.35 142.945 192.51 142.376 192.23 141.888C191.95 141.4 191.37 141.238 190.878 141.509C188.907 142.595 187.466 144.391 186.868 146.527C186.27 148.662 186.568 150.946 187.688 152.897C187.828 153.141 188.042 153.303 188.284 153.371Z" fill="#8800FF"/>
<path d="M184.668 155.684C185.16 155.413 185.32 154.843 185.04 154.356C183.548 151.686 183.147 148.657 183.971 145.715C184.795 142.773 186.725 140.346 189.373 138.887C189.866 138.616 190.025 138.046 189.745 137.559C189.465 137.071 188.886 136.909 188.393 137.18C185.252 138.91 182.996 141.758 182.039 145.174C181.082 148.59 181.531 152.196 183.315 155.305C183.455 155.549 183.67 155.712 183.912 155.779C184.153 155.847 184.421 155.82 184.668 155.684Z" fill="#8800FF"/>
<path d="M216.098 161.163C216.34 161.23 216.608 161.203 216.854 161.067C220.918 158.829 222.354 153.704 220.044 149.68C219.764 149.192 219.185 149.03 218.692 149.301C218.199 149.572 218.04 150.142 218.32 150.629C220.105 153.739 219.015 157.63 215.874 159.36C215.381 159.631 215.222 160.201 215.502 160.689C215.642 160.933 215.857 161.095 216.098 161.163Z" fill="#8800FF"/>
<path d="M219.339 165.397C222.479 163.667 224.735 160.819 225.692 157.403C226.649 153.986 226.201 150.381 224.416 147.271C224.136 146.783 223.557 146.621 223.064 146.892C222.572 147.164 222.412 147.733 222.692 148.221C224.184 150.89 224.585 153.92 223.761 156.862C222.937 159.803 221.007 162.231 218.359 163.689C217.866 163.961 217.707 164.53 217.987 165.018C218.127 165.262 218.341 165.424 218.583 165.492C218.824 165.56 219.092 165.532 219.339 165.397Z" fill="#8800FF"/>
</g>
<defs>
<clipPath id="clip0">
<rect width="266" height="212" fill="white"/>
</clipPath>
</defs>
</svg>
