<svg width="20" height="10" viewBox="0 0 20 10" fill="none" xmlns="http://www.w3.org/2000/svg">
<path d="M0.781235 4.21874L17.3265 4.21874L14.5857 1.49125C14.2799 1.18687 14.2787 0.692223 14.5831 0.386403C14.8874 0.0805441 15.3821 0.0794116 15.688 0.383747L19.7701 4.44624C19.7704 4.44648 19.7706 4.44675 19.7708 4.44699C20.0759 4.75136 20.0769 5.24761 19.7709 5.553C19.7706 5.55324 19.7705 5.55351 19.7702 5.55374L15.688 9.61624C15.3823 9.92054 14.8876 9.91948 14.5831 9.61358C14.2788 9.30776 14.2799 8.81312 14.5858 8.50874L17.3265 5.78124L0.781235 5.78124C0.349751 5.78124 -1.52588e-05 5.43148 -1.52588e-05 4.99999C-1.52588e-05 4.56851 0.349751 4.21874 0.781235 4.21874Z" fill="white"/>
</svg>
