<svg width="279" height="99" viewBox="0 0 279 99" fill="none" xmlns="http://www.w3.org/2000/svg">
<path d="M276.36 98.6998C275.297 98.6998 267.859 98.6998 266.69 98.6998C267.328 98.447 271.366 96.5778 272.534 96.1143C262.267 85.7728 251.612 76.2859 237.682 68.8238C237.257 68.9084 233.438 71.505 232.582 71.888C232.582 71.1219 233.751 67.1959 233.751 66.9087C219.05 59.8549 201.187 55.2017 177.223 54.5182C177.117 54.6582 175.523 59.7114 174.885 60.9718C173.747 59.7114 172.123 55.4023 171.324 54.5182C155.158 54.5182 131.306 58.1445 115.488 63.821C115.488 65.2863 117.401 67.9617 118.251 70.5524C116.287 68.8429 112.092 66.8089 110.707 65.8612C89.4815 74.5251 80.5983 89.4177 76.1735 94.7087C81.9113 97.0193 88.9012 98.0648 89.7742 98.2113C84.3552 98.5722 71.7452 98.2113 66.3979 98.2113C79.5478 73.2523 113.224 50.2471 171.324 50.2471C229.424 50.2471 258.572 71.3474 276.36 98.6998Z" fill="url(#paint0_linear)"/>
<path d="M278.154 96.9054C253.284 43.8703 169.804 22.2061 143.44 34.2379C105.699 51.4624 62.0666 94.8146 25.1629 73.4688C23.1108 73.433 60.3208 70.498 60.3208 52.563C56.476 52.2362 48.3225 61.1454 34.7966 57.9545C50.1769 53.3332 47.7771 46.876 44.941 45.5902C42.6168 45.0571 39.8142 40.4596 0 56.7442C23.125 21.2042 47.2317 29.2271 49.1381 29.8966C66.1026 26.9667 53.6674 8.99073 32.9422 25.9355C35.9964 19.0035 38.5053 13.1027 47.3408 9.65093C54.5242 7.94587 69.484 6.23974 76.5742 8.2203C80.5011 9.31722 89.1085 4.79089 75.1554 3.59923C115.297 -12.5755 259.72 27.0356 278.154 96.9054Z" fill="url(#paint1_linear)"/>
<path d="M276.36 93.3163C252.452 42.2455 172.204 21.3837 146.861 32.9699C110.58 49.5564 68.637 91.303 33.1618 70.7478C31.1892 70.7133 66.9587 67.887 66.9587 50.6162C63.2627 50.3016 55.4249 58.8807 42.4226 55.808C57.2075 51.3579 54.9006 45.1399 52.1743 43.9017C49.9401 43.3883 47.246 38.9611 8.97296 54.6425C31.2028 20.4188 54.3763 28.1446 56.209 28.7893C72.5167 25.9679 60.5629 8.65774 40.64 24.9749C43.576 18.2997 45.9877 12.6174 54.4812 9.29349C61.3865 7.65158 75.7673 6.00864 82.583 7.91584C86.3579 8.97214 94.6321 4.61345 81.2191 3.46593C119.807 -12.1097 258.639 26.0343 276.36 93.3163Z" fill="url(#paint2_linear)"/>
<defs>
<linearGradient id="paint0_linear" x1="80.8704" y1="84.9264" x2="276.401" y2="90.9745" gradientUnits="userSpaceOnUse">
<stop stop-color="#F8C914"/>
<stop offset="1" stop-color="#FF1D0F" stop-opacity="0.99"/>
</linearGradient>
<linearGradient id="paint1_linear" x1="262.665" y1="40.9496" x2="52.1305" y2="51.9802" gradientUnits="userSpaceOnUse">
<stop stop-color="#FC1043"/>
<stop offset="0.837442" stop-color="#2AF6FF"/>
</linearGradient>
<linearGradient id="paint2_linear" x1="261.471" y1="39.433" x2="59.0836" y2="50.0182" gradientUnits="userSpaceOnUse">
<stop stop-color="#FC1043"/>
<stop offset="0.837442" stop-color="#F8C614"/>
</linearGradient>
</defs>
</svg>
