<svg width="1088" height="554" viewBox="0 0 1088 554" fill="none" xmlns="http://www.w3.org/2000/svg">
<path d="M25.6758 532.957C25.6758 533.793 25.5312 534.527 25.2422 535.16C24.9531 535.789 24.5391 536.273 24 536.613C23.4648 536.949 22.8477 537.117 22.1484 537.117C21.457 537.117 20.8398 536.949 20.2969 536.613C19.7578 536.273 19.3398 535.791 19.043 535.166C18.75 534.541 18.6016 533.82 18.5977 533.004V532.523C18.5977 531.691 18.7441 530.957 19.0371 530.32C19.334 529.684 19.75 529.197 20.2852 528.861C20.8242 528.521 21.4414 528.352 22.1367 528.352C22.832 528.352 23.4473 528.52 23.9824 528.855C24.5215 529.188 24.9375 529.668 25.2305 530.297C25.5234 530.922 25.6719 531.65 25.6758 532.482V532.957ZM24.1934 532.512C24.1934 531.566 24.0137 530.842 23.6543 530.338C23.2988 529.834 22.793 529.582 22.1367 529.582C21.4961 529.582 20.9941 529.834 20.6309 530.338C20.2715 530.838 20.0879 531.547 20.0801 532.465V532.957C20.0801 533.895 20.2617 534.619 20.625 535.131C20.9922 535.643 21.5 535.898 22.1484 535.898C22.8047 535.898 23.3086 535.648 23.6602 535.148C24.0156 534.648 24.1934 533.918 24.1934 532.957V532.512ZM30 531.012C30.7969 531.012 31.4355 531.279 31.916 531.814C32.3965 532.346 32.6367 533.068 32.6367 533.982V534.053C32.6367 534.967 32.375 535.707 31.8516 536.273C31.332 536.84 30.625 537.123 29.7305 537.123C28.8594 537.123 28.1562 536.834 27.6211 536.256C27.0859 535.678 26.8184 534.889 26.8184 533.889V533.479C26.8184 532.111 27.0605 531.029 27.5449 530.232C28.0293 529.436 28.752 528.938 29.7129 528.738C30.252 528.629 30.5996 528.514 30.7559 528.393C30.916 528.268 30.9961 528.1 30.9961 527.889H32.1445C32.1445 528.283 32.0801 528.604 31.9512 528.85C31.8223 529.096 31.625 529.297 31.3594 529.453C31.0938 529.605 30.6367 529.75 29.9883 529.887C29.3945 530.012 28.9414 530.234 28.6289 530.555C28.3203 530.875 28.1133 531.318 28.0078 531.885C28.5742 531.303 29.2383 531.012 30 531.012ZM29.7188 532.154C29.2578 532.154 28.8965 532.311 28.6348 532.623C28.373 532.932 28.2422 533.408 28.2422 534.053C28.2422 534.662 28.3711 535.137 28.6289 535.477C28.8867 535.816 29.2539 535.986 29.7305 535.986C30.2031 535.986 30.5684 535.816 30.8262 535.477C31.0879 535.133 31.2188 534.617 31.2188 533.93C31.2188 533.383 31.0879 532.951 30.8262 532.635C30.5684 532.314 30.1992 532.154 29.7188 532.154ZM36.457 532.676H37.8516C38.3711 532.676 38.8242 532.766 39.2109 532.945C39.5977 533.125 39.8906 533.377 40.0898 533.701C40.293 534.025 40.3945 534.402 40.3945 534.832C40.3945 535.484 40.1641 536.008 39.7031 536.402C39.2422 536.797 38.6289 536.996 37.8633 537H35.0332V531.809H33.2051V530.66H36.457V532.676ZM36.457 533.818V535.863H37.8457C38.1934 535.863 38.4668 535.777 38.666 535.605C38.8691 535.43 38.9707 535.182 38.9707 534.861C38.9707 534.541 38.8711 534.289 38.6719 534.105C38.4766 533.918 38.2109 533.822 37.875 533.818H36.457ZM44.1855 537.117C43.2832 537.117 42.5508 536.834 41.9883 536.268C41.4297 535.697 41.1504 534.939 41.1504 533.994V533.818C41.1504 533.186 41.2715 532.621 41.5137 532.125C41.7598 531.625 42.1035 531.236 42.5449 530.959C42.9863 530.682 43.4785 530.543 44.0215 530.543C44.8848 530.543 45.5508 530.818 46.0195 531.369C46.4922 531.92 46.7285 532.699 46.7285 533.707V534.281H42.5859C42.6289 534.805 42.8027 535.219 43.1074 535.523C43.416 535.828 43.8027 535.98 44.2676 535.98C44.9199 535.98 45.4512 535.717 45.8613 535.189L46.6289 535.922C46.375 536.301 46.0352 536.596 45.6094 536.807C45.1875 537.014 44.7129 537.117 44.1855 537.117ZM44.0156 531.686C43.625 531.686 43.3086 531.822 43.0664 532.096C42.8281 532.369 42.6758 532.75 42.6094 533.238H45.3223V533.133C45.291 532.656 45.1641 532.297 44.9414 532.055C44.7188 531.809 44.4102 531.686 44.0156 531.686ZM50.0918 534.492H49.3711V537H47.9473V530.66H49.3711V533.191H49.998L51.75 530.66H53.5078L51.2168 533.695L53.7012 537H51.8496L50.0918 534.492ZM59.4727 531.791H57.416V537H55.9922V531.791H53.959V530.66H59.4727V531.791ZM61.957 532.676H63.3516C63.8711 532.676 64.3242 532.766 64.7109 532.945C65.0977 533.125 65.3906 533.377 65.5898 533.701C65.793 534.025 65.8945 534.402 65.8945 534.832C65.8945 535.484 65.6641 536.008 65.2031 536.402C64.7422 536.797 64.1289 536.996 63.3633 537H60.5332V530.66H61.957V532.676ZM68.373 537H66.9492V530.66H68.373V537ZM61.957 533.818V535.863H63.3457C63.6934 535.863 63.9668 535.777 64.166 535.605C64.3691 535.43 64.4707 535.182 64.4707 534.861C64.4707 534.541 64.3711 534.289 64.1719 534.105C63.9766 533.918 63.7109 533.822 63.375 533.818H61.957ZM75.7324 533.344H74.7246V537H73.248V528.469H74.7246V532.055H75.5391L78.0469 528.469H79.8633L76.9336 532.553L80.1211 537H78.3398L75.7324 533.344ZM82.8633 528.469L85.3242 535.008L87.7793 528.469H89.6953V537H88.2188V534.188L88.3652 530.426L85.8457 537H84.7852L82.2715 530.432L82.418 534.188V537H80.9414V528.469H82.8633ZM97.9629 534.223C97.877 535.133 97.541 535.844 96.9551 536.355C96.3691 536.863 95.5898 537.117 94.6172 537.117C93.9375 537.117 93.3379 536.957 92.8184 536.637C92.3027 536.312 91.9043 535.854 91.623 535.26C91.3418 534.666 91.1953 533.977 91.1836 533.191V532.395C91.1836 531.59 91.3262 530.881 91.6113 530.268C91.8965 529.654 92.3047 529.182 92.8359 528.85C93.3711 528.518 93.9883 528.352 94.6875 528.352C95.6289 528.352 96.3867 528.607 96.9609 529.119C97.5352 529.631 97.8691 530.354 97.9629 531.287H96.4863C96.416 530.674 96.2363 530.232 95.9473 529.963C95.6621 529.689 95.2422 529.553 94.6875 529.553C94.043 529.553 93.5469 529.789 93.1992 530.262C92.8555 530.73 92.6797 531.42 92.6719 532.33V533.086C92.6719 534.008 92.8359 534.711 93.1641 535.195C93.4961 535.68 93.9805 535.922 94.6172 535.922C95.1992 535.922 95.6367 535.791 95.9297 535.529C96.2227 535.268 96.4082 534.832 96.4863 534.223H97.9629Z" fill="#3C3C3B"/>
<path d="M218.908 532.957C218.908 533.793 218.764 534.527 218.475 535.16C218.186 535.789 217.771 536.273 217.232 536.613C216.697 536.949 216.08 537.117 215.381 537.117C214.689 537.117 214.072 536.949 213.529 536.613C212.99 536.273 212.572 535.791 212.275 535.166C211.982 534.541 211.834 533.82 211.83 533.004V532.523C211.83 531.691 211.977 530.957 212.27 530.32C212.566 529.684 212.982 529.197 213.518 528.861C214.057 528.521 214.674 528.352 215.369 528.352C216.064 528.352 216.68 528.52 217.215 528.855C217.754 529.188 218.17 529.668 218.463 530.297C218.756 530.922 218.904 531.65 218.908 532.482V532.957ZM217.426 532.512C217.426 531.566 217.246 530.842 216.887 530.338C216.531 529.834 216.025 529.582 215.369 529.582C214.729 529.582 214.227 529.834 213.863 530.338C213.504 530.838 213.32 531.547 213.312 532.465V532.957C213.312 533.895 213.494 534.619 213.857 535.131C214.225 535.643 214.732 535.898 215.381 535.898C216.037 535.898 216.541 535.648 216.893 535.148C217.248 534.648 217.426 533.918 217.426 532.957V532.512ZM223.232 531.012C224.029 531.012 224.668 531.279 225.148 531.814C225.629 532.346 225.869 533.068 225.869 533.982V534.053C225.869 534.967 225.607 535.707 225.084 536.273C224.564 536.84 223.857 537.123 222.963 537.123C222.092 537.123 221.389 536.834 220.854 536.256C220.318 535.678 220.051 534.889 220.051 533.889V533.479C220.051 532.111 220.293 531.029 220.777 530.232C221.262 529.436 221.984 528.938 222.945 528.738C223.484 528.629 223.832 528.514 223.988 528.393C224.148 528.268 224.229 528.1 224.229 527.889H225.377C225.377 528.283 225.312 528.604 225.184 528.85C225.055 529.096 224.857 529.297 224.592 529.453C224.326 529.605 223.869 529.75 223.221 529.887C222.627 530.012 222.174 530.234 221.861 530.555C221.553 530.875 221.346 531.318 221.24 531.885C221.807 531.303 222.471 531.012 223.232 531.012ZM222.951 532.154C222.49 532.154 222.129 532.311 221.867 532.623C221.605 532.932 221.475 533.408 221.475 534.053C221.475 534.662 221.604 535.137 221.861 535.477C222.119 535.816 222.486 535.986 222.963 535.986C223.436 535.986 223.801 535.816 224.059 535.477C224.32 535.133 224.451 534.617 224.451 533.93C224.451 533.383 224.32 532.951 224.059 532.635C223.801 532.314 223.432 532.154 222.951 532.154ZM229.689 532.676H231.084C231.604 532.676 232.057 532.766 232.443 532.945C232.83 533.125 233.123 533.377 233.322 533.701C233.525 534.025 233.627 534.402 233.627 534.832C233.627 535.484 233.396 536.008 232.936 536.402C232.475 536.797 231.861 536.996 231.096 537H228.266V531.809H226.438V530.66H229.689V532.676ZM229.689 533.818V535.863H231.078C231.426 535.863 231.699 535.777 231.898 535.605C232.102 535.43 232.203 535.182 232.203 534.861C232.203 534.541 232.104 534.289 231.904 534.105C231.709 533.918 231.443 533.822 231.107 533.818H229.689ZM237.418 537.117C236.516 537.117 235.783 536.834 235.221 536.268C234.662 535.697 234.383 534.939 234.383 533.994V533.818C234.383 533.186 234.504 532.621 234.746 532.125C234.992 531.625 235.336 531.236 235.777 530.959C236.219 530.682 236.711 530.543 237.254 530.543C238.117 530.543 238.783 530.818 239.252 531.369C239.725 531.92 239.961 532.699 239.961 533.707V534.281H235.818C235.861 534.805 236.035 535.219 236.34 535.523C236.648 535.828 237.035 535.98 237.5 535.98C238.152 535.98 238.684 535.717 239.094 535.189L239.861 535.922C239.607 536.301 239.268 536.596 238.842 536.807C238.42 537.014 237.945 537.117 237.418 537.117ZM237.248 531.686C236.857 531.686 236.541 531.822 236.299 532.096C236.061 532.369 235.908 532.75 235.842 533.238H238.555V533.133C238.523 532.656 238.396 532.297 238.174 532.055C237.951 531.809 237.643 531.686 237.248 531.686ZM243.324 534.492H242.604V537H241.18V530.66H242.604V533.191H243.23L244.982 530.66H246.74L244.449 533.695L246.934 537H245.082L243.324 534.492ZM252.705 531.791H250.648V537H249.225V531.791H247.191V530.66H252.705V531.791ZM255.189 532.676H256.584C257.104 532.676 257.557 532.766 257.943 532.945C258.33 533.125 258.623 533.377 258.822 533.701C259.025 534.025 259.127 534.402 259.127 534.832C259.127 535.484 258.896 536.008 258.436 536.402C257.975 536.797 257.361 536.996 256.596 537H253.766V530.66H255.189V532.676ZM261.605 537H260.182V530.66H261.605V537ZM255.189 533.818V535.863H256.578C256.926 535.863 257.199 535.777 257.398 535.605C257.602 535.43 257.703 535.182 257.703 534.861C257.703 534.541 257.604 534.289 257.404 534.105C257.209 533.918 256.943 533.822 256.607 533.818H255.189ZM271.215 535.014H267.91L267.219 537H265.678L268.9 528.469H270.23L273.459 537H271.912L271.215 535.014ZM268.326 533.818H270.799L269.562 530.279L268.326 533.818ZM281.182 537H279.705V529.664H275.949V537H274.473V528.469H281.182V537ZM285.5 533.344H284.492V537H283.016V528.469H284.492V532.055H285.307L287.814 528.469H289.631L286.701 532.553L289.889 537H288.107L285.5 533.344ZM297.518 530.66H298.936V537H297.518V532.77L295.033 537H293.615V530.66H295.033V534.891L297.518 530.66ZM308.814 537H307.391V531.809H304.918V537H303.494V530.66H308.814V537ZM314.287 530.66H315.705V537H314.287V532.77L311.803 537H310.385V530.66H311.803V534.891L314.287 530.66ZM318.652 530.66V535.863H320.633V530.66H322.057V535.863H324.043V530.66H325.461V535.863H326.545L326.428 538.881H325.133V537H317.229V530.66H318.652ZM330.289 537.117C329.387 537.117 328.654 536.834 328.092 536.268C327.533 535.697 327.254 534.939 327.254 533.994V533.818C327.254 533.186 327.375 532.621 327.617 532.125C327.863 531.625 328.207 531.236 328.648 530.959C329.09 530.682 329.582 530.543 330.125 530.543C330.988 530.543 331.654 530.818 332.123 531.369C332.596 531.92 332.832 532.699 332.832 533.707V534.281H328.689C328.732 534.805 328.906 535.219 329.211 535.523C329.52 535.828 329.906 535.98 330.371 535.98C331.023 535.98 331.555 535.717 331.965 535.189L332.732 535.922C332.479 536.301 332.139 536.596 331.713 536.807C331.291 537.014 330.816 537.117 330.289 537.117ZM330.119 531.686C329.729 531.686 329.412 531.822 329.17 532.096C328.932 532.369 328.779 532.75 328.713 533.238H331.426V533.133C331.395 532.656 331.268 532.297 331.045 532.055C330.822 531.809 330.514 531.686 330.119 531.686ZM334.051 537V530.66H336.623C337.49 530.66 338.15 530.812 338.604 531.117C339.057 531.418 339.283 531.852 339.283 532.418C339.283 532.711 339.191 532.975 339.008 533.209C338.828 533.439 338.561 533.617 338.205 533.742C338.619 533.828 338.947 534.002 339.189 534.264C339.432 534.525 339.553 534.834 339.553 535.189C339.553 535.779 339.334 536.229 338.896 536.537C338.463 536.846 337.838 537 337.021 537H334.051ZM335.475 534.299V535.875H337.033C337.764 535.875 338.129 535.613 338.129 535.09C338.129 534.562 337.758 534.299 337.016 534.299H335.475ZM335.475 533.279H336.646C337.455 533.279 337.859 533.041 337.859 532.564C337.859 532.064 337.477 531.807 336.711 531.791H335.475V533.279ZM340.52 533.771C340.52 533.15 340.643 532.592 340.889 532.096C341.135 531.596 341.48 531.213 341.926 530.947C342.371 530.678 342.883 530.543 343.461 530.543C344.316 530.543 345.01 530.818 345.541 531.369C346.076 531.92 346.365 532.65 346.408 533.561L346.414 533.895C346.414 534.52 346.293 535.078 346.051 535.57C345.812 536.062 345.469 536.443 345.02 536.713C344.574 536.982 344.059 537.117 343.473 537.117C342.578 537.117 341.861 536.82 341.322 536.227C340.787 535.629 340.52 534.834 340.52 533.842V533.771ZM341.943 533.895C341.943 534.547 342.078 535.059 342.348 535.43C342.617 535.797 342.992 535.98 343.473 535.98C343.953 535.98 344.326 535.793 344.592 535.418C344.861 535.043 344.996 534.494 344.996 533.771C344.996 533.131 344.857 532.623 344.58 532.248C344.307 531.873 343.934 531.686 343.461 531.686C342.996 531.686 342.627 531.871 342.354 532.242C342.08 532.609 341.943 533.16 341.943 533.895ZM351.576 530.66H352.994V537H351.576V532.77L349.092 537H347.674V530.66H349.092V534.891L351.576 530.66ZM352.244 528.229C352.244 528.721 352.072 529.119 351.729 529.424C351.385 529.729 350.926 529.881 350.352 529.881C349.777 529.881 349.318 529.729 348.975 529.424C348.631 529.119 348.459 528.721 348.459 528.229H349.525C349.525 528.486 349.598 528.688 349.742 528.832C349.891 528.973 350.094 529.043 350.352 529.043C350.609 529.043 350.811 528.973 350.955 528.832C351.1 528.688 351.172 528.486 351.172 528.229H352.244ZM239.07 551H237.646V545.809H235.174V551H233.75V544.66H239.07V551ZM246.137 547.895C246.137 548.875 245.914 549.658 245.469 550.244C245.023 550.826 244.426 551.117 243.676 551.117C242.98 551.117 242.424 550.889 242.006 550.432V553.438H240.582V544.66H241.895L241.953 545.305C242.371 544.797 242.939 544.543 243.658 544.543C244.432 544.543 245.037 544.832 245.475 545.41C245.916 545.984 246.137 546.783 246.137 547.807V547.895ZM244.719 547.771C244.719 547.139 244.592 546.637 244.338 546.266C244.088 545.895 243.729 545.709 243.26 545.709C242.678 545.709 242.26 545.949 242.006 546.43V549.242C242.264 549.734 242.686 549.98 243.271 549.98C243.725 549.98 244.078 549.799 244.332 549.436C244.59 549.068 244.719 548.514 244.719 547.771ZM247.08 547.771C247.08 547.15 247.203 546.592 247.449 546.096C247.695 545.596 248.041 545.213 248.486 544.947C248.932 544.678 249.443 544.543 250.021 544.543C250.877 544.543 251.57 544.818 252.102 545.369C252.637 545.92 252.926 546.65 252.969 547.561L252.975 547.895C252.975 548.52 252.854 549.078 252.611 549.57C252.373 550.062 252.029 550.443 251.58 550.713C251.135 550.982 250.619 551.117 250.033 551.117C249.139 551.117 248.422 550.82 247.883 550.227C247.348 549.629 247.08 548.834 247.08 547.842V547.771ZM248.504 547.895C248.504 548.547 248.639 549.059 248.908 549.43C249.178 549.797 249.553 549.98 250.033 549.98C250.514 549.98 250.887 549.793 251.152 549.418C251.422 549.043 251.557 548.494 251.557 547.771C251.557 547.131 251.418 546.623 251.141 546.248C250.867 545.873 250.494 545.686 250.021 545.686C249.557 545.686 249.188 545.871 248.914 546.242C248.641 546.609 248.504 547.16 248.504 547.895ZM257.943 549.248L259.818 544.66H261.6V551H260.176V546.805L258.43 551H257.463L255.711 546.781V551H254.287V544.66H256.08L257.943 549.248ZM264.734 546.676H266.129C266.648 546.676 267.102 546.766 267.488 546.945C267.875 547.125 268.168 547.377 268.367 547.701C268.57 548.025 268.672 548.402 268.672 548.832C268.672 549.484 268.441 550.008 267.98 550.402C267.52 550.797 266.906 550.996 266.141 551H263.311V544.66H264.734V546.676ZM271.15 551H269.727V544.66H271.15V551ZM264.734 547.818V549.863H266.123C266.471 549.863 266.744 549.777 266.943 549.605C267.146 549.43 267.248 549.182 267.248 548.861C267.248 548.541 267.148 548.289 266.949 548.105C266.754 547.918 266.488 547.822 266.152 547.818H264.734ZM274.338 544.66V549.863H276.318V544.66H277.742V549.863H279.729V544.66H281.146V551H272.914V544.66H274.338ZM288.078 544.66V551H286.654V545.809H284.861L284.744 548.018C284.67 549.08 284.465 549.844 284.129 550.309C283.797 550.77 283.287 551 282.6 551H282.16L282.154 549.816L282.447 549.787C282.76 549.744 282.986 549.555 283.127 549.219C283.271 548.879 283.363 548.262 283.402 547.367L283.52 544.66H288.078ZM292.385 551.117C291.482 551.117 290.75 550.834 290.188 550.268C289.629 549.697 289.35 548.939 289.35 547.994V547.818C289.35 547.186 289.471 546.621 289.713 546.125C289.959 545.625 290.303 545.236 290.744 544.959C291.186 544.682 291.678 544.543 292.221 544.543C293.084 544.543 293.75 544.818 294.219 545.369C294.691 545.92 294.928 546.699 294.928 547.707V548.281H290.785C290.828 548.805 291.002 549.219 291.307 549.523C291.615 549.828 292.002 549.98 292.467 549.98C293.119 549.98 293.65 549.717 294.061 549.189L294.828 549.922C294.574 550.301 294.234 550.596 293.809 550.807C293.387 551.014 292.912 551.117 292.385 551.117ZM292.215 545.686C291.824 545.686 291.508 545.822 291.266 546.096C291.027 546.369 290.875 546.75 290.809 547.238H293.521V547.133C293.49 546.656 293.363 546.297 293.141 546.055C292.918 545.809 292.609 545.686 292.215 545.686ZM301.408 551H299.984V548.439H297.518V551H296.094V544.66H297.518V547.303H299.984V544.66H301.408V551ZM308.299 551H306.875V548.439H304.408V551H302.984V544.66H304.408V547.303H306.875V544.66H308.299V551ZM309.553 547.771C309.553 547.15 309.676 546.592 309.922 546.096C310.168 545.596 310.514 545.213 310.959 544.947C311.404 544.678 311.916 544.543 312.494 544.543C313.35 544.543 314.043 544.818 314.574 545.369C315.109 545.92 315.398 546.65 315.441 547.561L315.447 547.895C315.447 548.52 315.326 549.078 315.084 549.57C314.846 550.062 314.502 550.443 314.053 550.713C313.607 550.982 313.092 551.117 312.506 551.117C311.611 551.117 310.895 550.82 310.355 550.227C309.82 549.629 309.553 548.834 309.553 547.842V547.771ZM310.977 547.895C310.977 548.547 311.111 549.059 311.381 549.43C311.65 549.797 312.025 549.98 312.506 549.98C312.986 549.98 313.359 549.793 313.625 549.418C313.895 549.043 314.029 548.494 314.029 547.771C314.029 547.131 313.891 546.623 313.613 546.248C313.34 545.873 312.967 545.686 312.494 545.686C312.029 545.686 311.66 545.871 311.387 546.242C311.113 546.609 310.977 547.16 310.977 547.895ZM319.256 549.98C319.611 549.98 319.906 549.877 320.141 549.67C320.375 549.463 320.5 549.207 320.516 548.902H321.857C321.842 549.297 321.719 549.666 321.488 550.01C321.258 550.35 320.945 550.619 320.551 550.818C320.156 551.018 319.73 551.117 319.273 551.117C318.387 551.117 317.684 550.83 317.164 550.256C316.645 549.682 316.385 548.889 316.385 547.877V547.73C316.385 546.766 316.643 545.994 317.158 545.416C317.674 544.834 318.377 544.543 319.268 544.543C320.021 544.543 320.635 544.764 321.107 545.205C321.584 545.643 321.834 546.219 321.857 546.934H320.516C320.5 546.57 320.375 546.271 320.141 546.037C319.91 545.803 319.615 545.686 319.256 545.686C318.795 545.686 318.439 545.854 318.189 546.189C317.939 546.521 317.812 547.027 317.809 547.707V547.936C317.809 548.623 317.932 549.137 318.178 549.477C318.428 549.812 318.787 549.98 319.256 549.98ZM327.922 545.791H325.865V551H324.441V545.791H322.408V544.66H327.922V545.791ZM332.832 544.66H334.25V551H332.832V546.77L330.348 551H328.93V544.66H330.348V548.891L332.832 544.66Z" fill="#3C3C3B"/>
<path d="M477.033 532.957C477.033 533.793 476.889 534.527 476.6 535.16C476.311 535.789 475.896 536.273 475.357 536.613C474.822 536.949 474.205 537.117 473.506 537.117C472.814 537.117 472.197 536.949 471.654 536.613C471.115 536.273 470.697 535.791 470.4 535.166C470.107 534.541 469.959 533.82 469.955 533.004V532.523C469.955 531.691 470.102 530.957 470.395 530.32C470.691 529.684 471.107 529.197 471.643 528.861C472.182 528.521 472.799 528.352 473.494 528.352C474.189 528.352 474.805 528.52 475.34 528.855C475.879 529.188 476.295 529.668 476.588 530.297C476.881 530.922 477.029 531.65 477.033 532.482V532.957ZM475.551 532.512C475.551 531.566 475.371 530.842 475.012 530.338C474.656 529.834 474.15 529.582 473.494 529.582C472.854 529.582 472.352 529.834 471.988 530.338C471.629 530.838 471.445 531.547 471.438 532.465V532.957C471.438 533.895 471.619 534.619 471.982 535.131C472.35 535.643 472.857 535.898 473.506 535.898C474.162 535.898 474.666 535.648 475.018 535.148C475.373 534.648 475.551 533.918 475.551 532.957V532.512ZM481.357 531.012C482.154 531.012 482.793 531.279 483.273 531.814C483.754 532.346 483.994 533.068 483.994 533.982V534.053C483.994 534.967 483.732 535.707 483.209 536.273C482.689 536.84 481.982 537.123 481.088 537.123C480.217 537.123 479.514 536.834 478.979 536.256C478.443 535.678 478.176 534.889 478.176 533.889V533.479C478.176 532.111 478.418 531.029 478.902 530.232C479.387 529.436 480.109 528.938 481.07 528.738C481.609 528.629 481.957 528.514 482.113 528.393C482.273 528.268 482.354 528.1 482.354 527.889H483.502C483.502 528.283 483.438 528.604 483.309 528.85C483.18 529.096 482.982 529.297 482.717 529.453C482.451 529.605 481.994 529.75 481.346 529.887C480.752 530.012 480.299 530.234 479.986 530.555C479.678 530.875 479.471 531.318 479.365 531.885C479.932 531.303 480.596 531.012 481.357 531.012ZM481.076 532.154C480.615 532.154 480.254 532.311 479.992 532.623C479.73 532.932 479.6 533.408 479.6 534.053C479.6 534.662 479.729 535.137 479.986 535.477C480.244 535.816 480.611 535.986 481.088 535.986C481.561 535.986 481.926 535.816 482.184 535.477C482.445 535.133 482.576 534.617 482.576 533.93C482.576 533.383 482.445 532.951 482.184 532.635C481.926 532.314 481.557 532.154 481.076 532.154ZM487.814 532.676H489.209C489.729 532.676 490.182 532.766 490.568 532.945C490.955 533.125 491.248 533.377 491.447 533.701C491.65 534.025 491.752 534.402 491.752 534.832C491.752 535.484 491.521 536.008 491.061 536.402C490.6 536.797 489.986 536.996 489.221 537H486.391V531.809H484.562V530.66H487.814V532.676ZM487.814 533.818V535.863H489.203C489.551 535.863 489.824 535.777 490.023 535.605C490.227 535.43 490.328 535.182 490.328 534.861C490.328 534.541 490.229 534.289 490.029 534.105C489.834 533.918 489.568 533.822 489.232 533.818H487.814ZM495.543 537.117C494.641 537.117 493.908 536.834 493.346 536.268C492.787 535.697 492.508 534.939 492.508 533.994V533.818C492.508 533.186 492.629 532.621 492.871 532.125C493.117 531.625 493.461 531.236 493.902 530.959C494.344 530.682 494.836 530.543 495.379 530.543C496.242 530.543 496.908 530.818 497.377 531.369C497.85 531.92 498.086 532.699 498.086 533.707V534.281H493.943C493.986 534.805 494.16 535.219 494.465 535.523C494.773 535.828 495.16 535.98 495.625 535.98C496.277 535.98 496.809 535.717 497.219 535.189L497.986 535.922C497.732 536.301 497.393 536.596 496.967 536.807C496.545 537.014 496.07 537.117 495.543 537.117ZM495.373 531.686C494.982 531.686 494.666 531.822 494.424 532.096C494.186 532.369 494.033 532.75 493.967 533.238H496.68V533.133C496.648 532.656 496.521 532.297 496.299 532.055C496.076 531.809 495.768 531.686 495.373 531.686ZM501.449 534.492H500.729V537H499.305V530.66H500.729V533.191H501.355L503.107 530.66H504.865L502.574 533.695L505.059 537H503.207L501.449 534.492ZM510.83 531.791H508.773V537H507.35V531.791H505.316V530.66H510.83V531.791ZM513.314 532.676H514.709C515.229 532.676 515.682 532.766 516.068 532.945C516.455 533.125 516.748 533.377 516.947 533.701C517.15 534.025 517.252 534.402 517.252 534.832C517.252 535.484 517.021 536.008 516.561 536.402C516.1 536.797 515.486 536.996 514.721 537H511.891V530.66H513.314V532.676ZM519.73 537H518.307V530.66H519.73V537ZM513.314 533.818V535.863H514.703C515.051 535.863 515.324 535.777 515.523 535.605C515.727 535.43 515.828 535.182 515.828 534.861C515.828 534.541 515.729 534.289 515.529 534.105C515.334 533.918 515.068 533.822 514.732 533.818H513.314ZM528.648 531.809H525.895V537H524.477V530.66H528.648V531.809ZM535.006 533.895C535.006 534.875 534.783 535.658 534.338 536.244C533.893 536.826 533.295 537.117 532.545 537.117C531.85 537.117 531.293 536.889 530.875 536.432V539.438H529.451V530.66H530.764L530.822 531.305C531.24 530.797 531.809 530.543 532.527 530.543C533.301 530.543 533.906 530.832 534.344 531.41C534.785 531.984 535.006 532.783 535.006 533.807V533.895ZM533.588 533.771C533.588 533.139 533.461 532.637 533.207 532.266C532.957 531.895 532.598 531.709 532.129 531.709C531.547 531.709 531.129 531.949 530.875 532.43V535.242C531.133 535.734 531.555 535.98 532.141 535.98C532.594 535.98 532.947 535.799 533.201 535.436C533.459 535.068 533.588 534.514 533.588 533.771ZM540.004 537C539.941 536.879 539.887 536.682 539.84 536.408C539.387 536.881 538.832 537.117 538.176 537.117C537.539 537.117 537.02 536.936 536.617 536.572C536.215 536.209 536.014 535.76 536.014 535.225C536.014 534.549 536.264 534.031 536.764 533.672C537.268 533.309 537.986 533.127 538.92 533.127H539.793V532.711C539.793 532.383 539.701 532.121 539.518 531.926C539.334 531.727 539.055 531.627 538.68 531.627C538.355 531.627 538.09 531.709 537.883 531.873C537.676 532.033 537.572 532.238 537.572 532.488H536.148C536.148 532.141 536.264 531.816 536.494 531.516C536.725 531.211 537.037 530.973 537.432 530.801C537.83 530.629 538.273 530.543 538.762 530.543C539.504 530.543 540.096 530.73 540.537 531.105C540.979 531.477 541.205 532 541.217 532.676V535.535C541.217 536.105 541.297 536.561 541.457 536.9V537H540.004ZM538.439 535.975C538.721 535.975 538.984 535.906 539.23 535.77C539.48 535.633 539.668 535.449 539.793 535.219V534.023H539.025C538.498 534.023 538.102 534.115 537.836 534.299C537.57 534.482 537.438 534.742 537.438 535.078C537.438 535.352 537.527 535.57 537.707 535.734C537.891 535.895 538.135 535.975 538.439 535.975ZM548.289 534.451H547.533V537H546.109V534.451H545.359L543.9 537H542.154L544.258 533.701L542.266 530.66H544.006L545.441 533.15H546.109V530.66H547.533V533.15H548.207L549.648 530.66H551.389L549.402 533.684L551.518 537H549.748L548.289 534.451ZM552.426 535.863C552.82 535.422 553.084 535.004 553.217 534.609C553.354 534.211 553.436 533.703 553.463 533.086L553.545 530.66H557.945V535.863H558.824V538.887H557.406V537H553.34V538.887H551.898L551.904 535.863H552.426ZM554.096 535.863H556.527V531.885H554.928L554.887 533.098C554.832 534.262 554.568 535.184 554.096 535.863ZM563.629 537C563.566 536.879 563.512 536.682 563.465 536.408C563.012 536.881 562.457 537.117 561.801 537.117C561.164 537.117 560.645 536.936 560.242 536.572C559.84 536.209 559.639 535.76 559.639 535.225C559.639 534.549 559.889 534.031 560.389 533.672C560.893 533.309 561.611 533.127 562.545 533.127H563.418V532.711C563.418 532.383 563.326 532.121 563.143 531.926C562.959 531.727 562.68 531.627 562.305 531.627C561.98 531.627 561.715 531.709 561.508 531.873C561.301 532.033 561.197 532.238 561.197 532.488H559.773C559.773 532.141 559.889 531.816 560.119 531.516C560.35 531.211 560.662 530.973 561.057 530.801C561.455 530.629 561.898 530.543 562.387 530.543C563.129 530.543 563.721 530.73 564.162 531.105C564.604 531.477 564.83 532 564.842 532.676V535.535C564.842 536.105 564.922 536.561 565.082 536.9V537H563.629ZM562.064 535.975C562.346 535.975 562.609 535.906 562.855 535.77C563.105 535.633 563.293 535.449 563.418 535.219V534.023H562.65C562.123 534.023 561.727 534.115 561.461 534.299C561.195 534.482 561.062 534.742 561.062 535.078C561.062 535.352 561.152 535.57 561.332 535.734C561.516 535.895 561.76 535.975 562.064 535.975ZM571.703 537H570.279V534.439H567.812V537H566.389V530.66H567.812V533.303H570.279V530.66H571.703V537ZM575.828 535.98C576.184 535.98 576.479 535.877 576.713 535.67C576.947 535.463 577.072 535.207 577.088 534.902H578.43C578.414 535.297 578.291 535.666 578.061 536.01C577.83 536.35 577.518 536.619 577.123 536.818C576.729 537.018 576.303 537.117 575.846 537.117C574.959 537.117 574.256 536.83 573.736 536.256C573.217 535.682 572.957 534.889 572.957 533.877V533.73C572.957 532.766 573.215 531.994 573.73 531.416C574.246 530.834 574.949 530.543 575.84 530.543C576.594 530.543 577.207 530.764 577.68 531.205C578.156 531.643 578.406 532.219 578.43 532.934H577.088C577.072 532.57 576.947 532.271 576.713 532.037C576.482 531.803 576.188 531.686 575.828 531.686C575.367 531.686 575.012 531.854 574.762 532.189C574.512 532.521 574.385 533.027 574.381 533.707V533.936C574.381 534.623 574.504 535.137 574.75 535.477C575 535.812 575.359 535.98 575.828 535.98ZM581.758 534.492H581.037V537H579.613V530.66H581.037V533.191H581.664L583.416 530.66H585.174L582.883 533.695L585.367 537H583.516L581.758 534.492ZM585.543 533.771C585.543 533.15 585.666 532.592 585.912 532.096C586.158 531.596 586.504 531.213 586.949 530.947C587.395 530.678 587.906 530.543 588.484 530.543C589.34 530.543 590.033 530.818 590.564 531.369C591.1 531.92 591.389 532.65 591.432 533.561L591.438 533.895C591.438 534.52 591.316 535.078 591.074 535.57C590.836 536.062 590.492 536.443 590.043 536.713C589.598 536.982 589.082 537.117 588.496 537.117C587.602 537.117 586.885 536.82 586.346 536.227C585.811 535.629 585.543 534.834 585.543 533.842V533.771ZM586.967 533.895C586.967 534.547 587.102 535.059 587.371 535.43C587.641 535.797 588.016 535.98 588.496 535.98C588.977 535.98 589.35 535.793 589.615 535.418C589.885 535.043 590.02 534.494 590.02 533.771C590.02 533.131 589.881 532.623 589.604 532.248C589.33 531.873 588.957 531.686 588.484 531.686C588.02 531.686 587.65 531.871 587.377 532.242C587.104 532.609 586.967 533.16 586.967 533.895ZM596.863 531.809H594.109V537H592.691V530.66H596.863V531.809ZM597.285 533.771C597.285 533.15 597.408 532.592 597.654 532.096C597.9 531.596 598.246 531.213 598.691 530.947C599.137 530.678 599.648 530.543 600.227 530.543C601.082 530.543 601.775 530.818 602.307 531.369C602.842 531.92 603.131 532.65 603.174 533.561L603.18 533.895C603.18 534.52 603.059 535.078 602.816 535.57C602.578 536.062 602.234 536.443 601.785 536.713C601.34 536.982 600.824 537.117 600.238 537.117C599.344 537.117 598.627 536.82 598.088 536.227C597.553 535.629 597.285 534.834 597.285 533.842V533.771ZM598.709 533.895C598.709 534.547 598.844 535.059 599.113 535.43C599.383 535.797 599.758 535.98 600.238 535.98C600.719 535.98 601.092 535.793 601.357 535.418C601.627 535.043 601.762 534.494 601.762 533.771C601.762 533.131 601.623 532.623 601.346 532.248C601.072 531.873 600.699 531.686 600.227 531.686C599.762 531.686 599.393 531.871 599.119 532.242C598.846 532.609 598.709 533.16 598.709 533.895ZM499.439 549.98C499.795 549.98 500.09 549.877 500.324 549.67C500.559 549.463 500.684 549.207 500.699 548.902H502.041C502.025 549.297 501.902 549.666 501.672 550.01C501.441 550.35 501.129 550.619 500.734 550.818C500.34 551.018 499.914 551.117 499.457 551.117C498.57 551.117 497.867 550.83 497.348 550.256C496.828 549.682 496.568 548.889 496.568 547.877V547.73C496.568 546.766 496.826 545.994 497.342 545.416C497.857 544.834 498.561 544.543 499.451 544.543C500.205 544.543 500.818 544.764 501.291 545.205C501.768 545.643 502.018 546.219 502.041 546.934H500.699C500.684 546.57 500.559 546.271 500.324 546.037C500.094 545.803 499.799 545.686 499.439 545.686C498.979 545.686 498.623 545.854 498.373 546.189C498.123 546.521 497.996 547.027 497.992 547.707V547.936C497.992 548.623 498.115 549.137 498.361 549.477C498.611 549.812 498.971 549.98 499.439 549.98ZM508.105 545.791H506.049V551H504.625V545.791H502.592V544.66H508.105V545.791ZM514.609 547.895C514.609 548.875 514.387 549.658 513.941 550.244C513.496 550.826 512.898 551.117 512.148 551.117C511.453 551.117 510.896 550.889 510.479 550.432V553.438H509.055V544.66H510.367L510.426 545.305C510.844 544.797 511.412 544.543 512.131 544.543C512.904 544.543 513.51 544.832 513.947 545.41C514.389 545.984 514.609 546.783 514.609 547.807V547.895ZM513.191 547.771C513.191 547.139 513.064 546.637 512.811 546.266C512.561 545.895 512.201 545.709 511.732 545.709C511.15 545.709 510.732 545.949 510.479 546.43V549.242C510.736 549.734 511.158 549.98 511.744 549.98C512.197 549.98 512.551 549.799 512.805 549.436C513.062 549.068 513.191 548.514 513.191 547.771ZM515.553 547.771C515.553 547.15 515.676 546.592 515.922 546.096C516.168 545.596 516.514 545.213 516.959 544.947C517.404 544.678 517.916 544.543 518.494 544.543C519.35 544.543 520.043 544.818 520.574 545.369C521.109 545.92 521.398 546.65 521.441 547.561L521.447 547.895C521.447 548.52 521.326 549.078 521.084 549.57C520.846 550.062 520.502 550.443 520.053 550.713C519.607 550.982 519.092 551.117 518.506 551.117C517.611 551.117 516.895 550.82 516.355 550.227C515.82 549.629 515.553 548.834 515.553 547.842V547.771ZM516.977 547.895C516.977 548.547 517.111 549.059 517.381 549.43C517.65 549.797 518.025 549.98 518.506 549.98C518.986 549.98 519.359 549.793 519.625 549.418C519.895 549.043 520.029 548.494 520.029 547.771C520.029 547.131 519.891 546.623 519.613 546.248C519.34 545.873 518.967 545.686 518.494 545.686C518.029 545.686 517.66 545.871 517.387 546.242C517.113 546.609 516.977 547.16 516.977 547.895ZM526.609 544.66H528.027V551H526.609V546.77L524.125 551H522.707V544.66H524.125V548.891L526.609 544.66ZM534.531 545.791H532.475V551H531.051V545.791H529.018V544.66H534.531V545.791ZM537.9 551.117C536.998 551.117 536.266 550.834 535.703 550.268C535.145 549.697 534.865 548.939 534.865 547.994V547.818C534.865 547.186 534.986 546.621 535.229 546.125C535.475 545.625 535.818 545.236 536.26 544.959C536.701 544.682 537.193 544.543 537.736 544.543C538.6 544.543 539.266 544.818 539.734 545.369C540.207 545.92 540.443 546.699 540.443 547.707V548.281H536.301C536.344 548.805 536.518 549.219 536.822 549.523C537.131 549.828 537.518 549.98 537.982 549.98C538.635 549.98 539.166 549.717 539.576 549.189L540.344 549.922C540.09 550.301 539.75 550.596 539.324 550.807C538.902 551.014 538.428 551.117 537.9 551.117ZM537.73 545.686C537.34 545.686 537.023 545.822 536.781 546.096C536.543 546.369 536.391 546.75 536.324 547.238H539.037V547.133C539.006 546.656 538.879 546.297 538.656 546.055C538.434 545.809 538.125 545.686 537.73 545.686ZM546.941 544.66V551H545.518V545.809H543.725L543.607 548.018C543.533 549.08 543.328 549.844 542.992 550.309C542.66 550.77 542.15 551 541.463 551H541.023L541.018 549.816L541.311 549.787C541.623 549.744 541.85 549.555 541.99 549.219C542.135 548.879 542.227 548.262 542.266 547.367L542.383 544.66H546.941ZM549.988 546.676H551.383C551.902 546.676 552.355 546.766 552.742 546.945C553.129 547.125 553.422 547.377 553.621 547.701C553.824 548.025 553.926 548.402 553.926 548.832C553.926 549.484 553.695 550.008 553.234 550.402C552.773 550.797 552.16 550.996 551.395 551H548.564V544.66H549.988V546.676ZM549.988 547.818V549.863H551.377C551.725 549.863 551.998 549.777 552.197 549.605C552.4 549.43 552.502 549.182 552.502 548.861C552.502 548.541 552.402 548.289 552.203 548.105C552.008 547.918 551.742 547.822 551.406 547.818H549.988ZM557.67 549.98C558.025 549.98 558.32 549.877 558.555 549.67C558.789 549.463 558.914 549.207 558.93 548.902H560.271C560.256 549.297 560.133 549.666 559.902 550.01C559.672 550.35 559.359 550.619 558.965 550.818C558.57 551.018 558.145 551.117 557.688 551.117C556.801 551.117 556.098 550.83 555.578 550.256C555.059 549.682 554.799 548.889 554.799 547.877V547.73C554.799 546.766 555.057 545.994 555.572 545.416C556.088 544.834 556.791 544.543 557.682 544.543C558.436 544.543 559.049 544.764 559.521 545.205C559.998 545.643 560.248 546.219 560.271 546.934H558.93C558.914 546.57 558.789 546.271 558.555 546.037C558.324 545.803 558.029 545.686 557.67 545.686C557.209 545.686 556.854 545.854 556.604 546.189C556.354 546.521 556.227 547.027 556.223 547.707V547.936C556.223 548.623 556.346 549.137 556.592 549.477C556.842 549.812 557.201 549.98 557.67 549.98ZM566.336 545.791H564.279V551H562.855V545.791H560.822V544.66H566.336V545.791ZM567.396 551V544.66H569.969C570.836 544.66 571.496 544.812 571.949 545.117C572.402 545.418 572.629 545.852 572.629 546.418C572.629 546.711 572.537 546.975 572.354 547.209C572.174 547.439 571.906 547.617 571.551 547.742C571.965 547.828 572.293 548.002 572.535 548.264C572.777 548.525 572.898 548.834 572.898 549.189C572.898 549.779 572.68 550.229 572.242 550.537C571.809 550.846 571.184 551 570.367 551H567.396ZM568.82 548.299V549.875H570.379C571.109 549.875 571.475 549.613 571.475 549.09C571.475 548.562 571.104 548.299 570.361 548.299H568.82ZM568.82 547.279H569.992C570.801 547.279 571.205 547.041 571.205 546.564C571.205 546.064 570.822 545.807 570.057 545.791H568.82V547.279ZM577.92 551C577.857 550.879 577.803 550.682 577.756 550.408C577.303 550.881 576.748 551.117 576.092 551.117C575.455 551.117 574.936 550.936 574.533 550.572C574.131 550.209 573.93 549.76 573.93 549.225C573.93 548.549 574.18 548.031 574.68 547.672C575.184 547.309 575.902 547.127 576.836 547.127H577.709V546.711C577.709 546.383 577.617 546.121 577.434 545.926C577.25 545.727 576.971 545.627 576.596 545.627C576.271 545.627 576.006 545.709 575.799 545.873C575.592 546.033 575.488 546.238 575.488 546.488H574.064C574.064 546.141 574.18 545.816 574.41 545.516C574.641 545.211 574.953 544.973 575.348 544.801C575.746 544.629 576.189 544.543 576.678 544.543C577.42 544.543 578.012 544.73 578.453 545.105C578.895 545.477 579.121 546 579.133 546.676V549.535C579.133 550.105 579.213 550.561 579.373 550.9V551H577.92ZM576.355 549.975C576.637 549.975 576.9 549.906 577.146 549.77C577.396 549.633 577.584 549.449 577.709 549.219V548.023H576.941C576.414 548.023 576.018 548.115 575.752 548.299C575.486 548.482 575.354 548.742 575.354 549.078C575.354 549.352 575.443 549.57 575.623 549.734C575.807 549.895 576.051 549.975 576.355 549.975Z" fill="#3C3C3B"/>
<path d="M726.695 532.957C726.695 533.793 726.551 534.527 726.262 535.16C725.973 535.789 725.559 536.273 725.02 536.613C724.484 536.949 723.867 537.117 723.168 537.117C722.477 537.117 721.859 536.949 721.316 536.613C720.777 536.273 720.359 535.791 720.062 535.166C719.77 534.541 719.621 533.82 719.617 533.004V532.523C719.617 531.691 719.764 530.957 720.057 530.32C720.354 529.684 720.77 529.197 721.305 528.861C721.844 528.521 722.461 528.352 723.156 528.352C723.852 528.352 724.467 528.52 725.002 528.855C725.541 529.188 725.957 529.668 726.25 530.297C726.543 530.922 726.691 531.65 726.695 532.482V532.957ZM725.213 532.512C725.213 531.566 725.033 530.842 724.674 530.338C724.318 529.834 723.812 529.582 723.156 529.582C722.516 529.582 722.014 529.834 721.65 530.338C721.291 530.838 721.107 531.547 721.1 532.465V532.957C721.1 533.895 721.281 534.619 721.645 535.131C722.012 535.643 722.52 535.898 723.168 535.898C723.824 535.898 724.328 535.648 724.68 535.148C725.035 534.648 725.213 533.918 725.213 532.957V532.512ZM731.02 531.012C731.816 531.012 732.455 531.279 732.936 531.814C733.416 532.346 733.656 533.068 733.656 533.982V534.053C733.656 534.967 733.395 535.707 732.871 536.273C732.352 536.84 731.645 537.123 730.75 537.123C729.879 537.123 729.176 536.834 728.641 536.256C728.105 535.678 727.838 534.889 727.838 533.889V533.479C727.838 532.111 728.08 531.029 728.564 530.232C729.049 529.436 729.771 528.938 730.732 528.738C731.271 528.629 731.619 528.514 731.775 528.393C731.936 528.268 732.016 528.1 732.016 527.889H733.164C733.164 528.283 733.1 528.604 732.971 528.85C732.842 529.096 732.645 529.297 732.379 529.453C732.113 529.605 731.656 529.75 731.008 529.887C730.414 530.012 729.961 530.234 729.648 530.555C729.34 530.875 729.133 531.318 729.027 531.885C729.594 531.303 730.258 531.012 731.02 531.012ZM730.738 532.154C730.277 532.154 729.916 532.311 729.654 532.623C729.393 532.932 729.262 533.408 729.262 534.053C729.262 534.662 729.391 535.137 729.648 535.477C729.906 535.816 730.273 535.986 730.75 535.986C731.223 535.986 731.588 535.816 731.846 535.477C732.107 535.133 732.238 534.617 732.238 533.93C732.238 533.383 732.107 532.951 731.846 532.635C731.588 532.314 731.219 532.154 730.738 532.154ZM737.477 532.676H738.871C739.391 532.676 739.844 532.766 740.23 532.945C740.617 533.125 740.91 533.377 741.109 533.701C741.312 534.025 741.414 534.402 741.414 534.832C741.414 535.484 741.184 536.008 740.723 536.402C740.262 536.797 739.648 536.996 738.883 537H736.053V531.809H734.225V530.66H737.477V532.676ZM737.477 533.818V535.863H738.865C739.213 535.863 739.486 535.777 739.686 535.605C739.889 535.43 739.99 535.182 739.99 534.861C739.99 534.541 739.891 534.289 739.691 534.105C739.496 533.918 739.23 533.822 738.895 533.818H737.477ZM745.205 537.117C744.303 537.117 743.57 536.834 743.008 536.268C742.449 535.697 742.17 534.939 742.17 533.994V533.818C742.17 533.186 742.291 532.621 742.533 532.125C742.779 531.625 743.123 531.236 743.564 530.959C744.006 530.682 744.498 530.543 745.041 530.543C745.904 530.543 746.57 530.818 747.039 531.369C747.512 531.92 747.748 532.699 747.748 533.707V534.281H743.605C743.648 534.805 743.822 535.219 744.127 535.523C744.436 535.828 744.822 535.98 745.287 535.98C745.939 535.98 746.471 535.717 746.881 535.189L747.648 535.922C747.395 536.301 747.055 536.596 746.629 536.807C746.207 537.014 745.732 537.117 745.205 537.117ZM745.035 531.686C744.645 531.686 744.328 531.822 744.086 532.096C743.848 532.369 743.695 532.75 743.629 533.238H746.342V533.133C746.311 532.656 746.184 532.297 745.961 532.055C745.738 531.809 745.43 531.686 745.035 531.686ZM751.111 534.492H750.391V537H748.967V530.66H750.391V533.191H751.018L752.77 530.66H754.527L752.236 533.695L754.721 537H752.869L751.111 534.492ZM760.492 531.791H758.436V537H757.012V531.791H754.979V530.66H760.492V531.791ZM762.977 532.676H764.371C764.891 532.676 765.344 532.766 765.73 532.945C766.117 533.125 766.41 533.377 766.609 533.701C766.812 534.025 766.914 534.402 766.914 534.832C766.914 535.484 766.684 536.008 766.223 536.402C765.762 536.797 765.148 536.996 764.383 537H761.553V530.66H762.977V532.676ZM769.393 537H767.969V530.66H769.393V537ZM762.977 533.818V535.863H764.365C764.713 535.863 764.986 535.777 765.186 535.605C765.389 535.43 765.49 535.182 765.49 534.861C765.49 534.541 765.391 534.289 765.191 534.105C764.996 533.918 764.73 533.822 764.395 533.818H762.977ZM782.072 539.098H780.666V537H775.047V539.098H773.617L773.57 535.816H774.256C774.596 535.488 774.867 535.012 775.07 534.387C775.273 533.758 775.404 533.047 775.463 532.254L775.686 528.469H781.064V535.816H782.148L782.072 539.098ZM775.932 535.816H779.588V529.664H777.098L776.957 532.066C776.852 533.672 776.51 534.922 775.932 535.816ZM789.238 529.664H786.578V537H785.107V529.664H782.471V528.469H789.238V529.664ZM795.59 528.469H797.072V537H795.59V530.924L791.846 537H790.363V528.469H791.846V534.551L795.59 528.469Z" fill="#3C3C3B"/>
<path d="M918.162 532.957C918.162 533.793 918.018 534.527 917.729 535.16C917.439 535.789 917.025 536.273 916.486 536.613C915.951 536.949 915.334 537.117 914.635 537.117C913.943 537.117 913.326 536.949 912.783 536.613C912.244 536.273 911.826 535.791 911.529 535.166C911.236 534.541 911.088 533.82 911.084 533.004V532.523C911.084 531.691 911.23 530.957 911.523 530.32C911.82 529.684 912.236 529.197 912.771 528.861C913.311 528.521 913.928 528.352 914.623 528.352C915.318 528.352 915.934 528.52 916.469 528.855C917.008 529.188 917.424 529.668 917.717 530.297C918.01 530.922 918.158 531.65 918.162 532.482V532.957ZM916.68 532.512C916.68 531.566 916.5 530.842 916.141 530.338C915.785 529.834 915.279 529.582 914.623 529.582C913.982 529.582 913.48 529.834 913.117 530.338C912.758 530.838 912.574 531.547 912.566 532.465V532.957C912.566 533.895 912.748 534.619 913.111 535.131C913.479 535.643 913.986 535.898 914.635 535.898C915.291 535.898 915.795 535.648 916.146 535.148C916.502 534.648 916.68 533.918 916.68 532.957V532.512ZM922.486 531.012C923.283 531.012 923.922 531.279 924.402 531.814C924.883 532.346 925.123 533.068 925.123 533.982V534.053C925.123 534.967 924.861 535.707 924.338 536.273C923.818 536.84 923.111 537.123 922.217 537.123C921.346 537.123 920.643 536.834 920.107 536.256C919.572 535.678 919.305 534.889 919.305 533.889V533.479C919.305 532.111 919.547 531.029 920.031 530.232C920.516 529.436 921.238 528.938 922.199 528.738C922.738 528.629 923.086 528.514 923.242 528.393C923.402 528.268 923.482 528.1 923.482 527.889H924.631C924.631 528.283 924.566 528.604 924.438 528.85C924.309 529.096 924.111 529.297 923.846 529.453C923.58 529.605 923.123 529.75 922.475 529.887C921.881 530.012 921.428 530.234 921.115 530.555C920.807 530.875 920.6 531.318 920.494 531.885C921.061 531.303 921.725 531.012 922.486 531.012ZM922.205 532.154C921.744 532.154 921.383 532.311 921.121 532.623C920.859 532.932 920.729 533.408 920.729 534.053C920.729 534.662 920.857 535.137 921.115 535.477C921.373 535.816 921.74 535.986 922.217 535.986C922.689 535.986 923.055 535.816 923.312 535.477C923.574 535.133 923.705 534.617 923.705 533.93C923.705 533.383 923.574 532.951 923.312 532.635C923.055 532.314 922.686 532.154 922.205 532.154ZM928.943 532.676H930.338C930.857 532.676 931.311 532.766 931.697 532.945C932.084 533.125 932.377 533.377 932.576 533.701C932.779 534.025 932.881 534.402 932.881 534.832C932.881 535.484 932.65 536.008 932.189 536.402C931.729 536.797 931.115 536.996 930.35 537H927.52V531.809H925.691V530.66H928.943V532.676ZM928.943 533.818V535.863H930.332C930.68 535.863 930.953 535.777 931.152 535.605C931.355 535.43 931.457 535.182 931.457 534.861C931.457 534.541 931.357 534.289 931.158 534.105C930.963 533.918 930.697 533.822 930.361 533.818H928.943ZM936.672 537.117C935.77 537.117 935.037 536.834 934.475 536.268C933.916 535.697 933.637 534.939 933.637 533.994V533.818C933.637 533.186 933.758 532.621 934 532.125C934.246 531.625 934.59 531.236 935.031 530.959C935.473 530.682 935.965 530.543 936.508 530.543C937.371 530.543 938.037 530.818 938.506 531.369C938.979 531.92 939.215 532.699 939.215 533.707V534.281H935.072C935.115 534.805 935.289 535.219 935.594 535.523C935.902 535.828 936.289 535.98 936.754 535.98C937.406 535.98 937.938 535.717 938.348 535.189L939.115 535.922C938.861 536.301 938.521 536.596 938.096 536.807C937.674 537.014 937.199 537.117 936.672 537.117ZM936.502 531.686C936.111 531.686 935.795 531.822 935.553 532.096C935.314 532.369 935.162 532.75 935.096 533.238H937.809V533.133C937.777 532.656 937.65 532.297 937.428 532.055C937.205 531.809 936.896 531.686 936.502 531.686ZM942.578 534.492H941.857V537H940.434V530.66H941.857V533.191H942.484L944.236 530.66H945.994L943.703 533.695L946.188 537H944.336L942.578 534.492ZM951.959 531.791H949.902V537H948.479V531.791H946.445V530.66H951.959V531.791ZM954.443 532.676H955.838C956.357 532.676 956.811 532.766 957.197 532.945C957.584 533.125 957.877 533.377 958.076 533.701C958.279 534.025 958.381 534.402 958.381 534.832C958.381 535.484 958.15 536.008 957.689 536.402C957.229 536.797 956.615 536.996 955.85 537H953.02V530.66H954.443V532.676ZM960.859 537H959.436V530.66H960.859V537ZM954.443 533.818V535.863H955.832C956.18 535.863 956.453 535.777 956.652 535.605C956.855 535.43 956.957 535.182 956.957 534.861C956.957 534.541 956.857 534.289 956.658 534.105C956.463 533.918 956.197 533.822 955.861 533.818H954.443ZM970.932 537H969.508V531.809H967.035V537H965.611V530.66H970.932V537ZM977.998 533.895C977.998 534.875 977.775 535.658 977.33 536.244C976.885 536.826 976.287 537.117 975.537 537.117C974.842 537.117 974.285 536.889 973.867 536.432V539.438H972.443V530.66H973.756L973.814 531.305C974.232 530.797 974.801 530.543 975.52 530.543C976.293 530.543 976.898 530.832 977.336 531.41C977.777 531.984 977.998 532.783 977.998 533.807V533.895ZM976.58 533.771C976.58 533.139 976.453 532.637 976.199 532.266C975.949 531.895 975.59 531.709 975.121 531.709C974.539 531.709 974.121 531.949 973.867 532.43V535.242C974.125 535.734 974.547 535.98 975.133 535.98C975.586 535.98 975.939 535.799 976.193 535.436C976.451 535.068 976.58 534.514 976.58 533.771ZM978.941 533.771C978.941 533.15 979.064 532.592 979.311 532.096C979.557 531.596 979.902 531.213 980.348 530.947C980.793 530.678 981.305 530.543 981.883 530.543C982.738 530.543 983.432 530.818 983.963 531.369C984.498 531.92 984.787 532.65 984.83 533.561L984.836 533.895C984.836 534.52 984.715 535.078 984.473 535.57C984.234 536.062 983.891 536.443 983.441 536.713C982.996 536.982 982.48 537.117 981.895 537.117C981 537.117 980.283 536.82 979.744 536.227C979.209 535.629 978.941 534.834 978.941 533.842V533.771ZM980.365 533.895C980.365 534.547 980.5 535.059 980.77 535.43C981.039 535.797 981.414 535.98 981.895 535.98C982.375 535.98 982.748 535.793 983.014 535.418C983.283 535.043 983.418 534.494 983.418 533.771C983.418 533.131 983.279 532.623 983.002 532.248C982.729 531.873 982.355 531.686 981.883 531.686C981.418 531.686 981.049 531.871 980.775 532.242C980.502 532.609 980.365 533.16 980.365 533.895ZM989.805 535.248L991.68 530.66H993.461V537H992.037V532.805L990.291 537H989.324L987.572 532.781V537H986.148V530.66H987.941L989.805 535.248ZM996.596 532.676H997.99C998.51 532.676 998.963 532.766 999.35 532.945C999.736 533.125 1000.03 533.377 1000.23 533.701C1000.43 534.025 1000.53 534.402 1000.53 534.832C1000.53 535.484 1000.3 536.008 999.842 536.402C999.381 536.797 998.768 536.996 998.002 537H995.172V530.66H996.596V532.676ZM1003.01 537H1001.59V530.66H1003.01V537ZM996.596 533.818V535.863H997.984C998.332 535.863 998.605 535.777 998.805 535.605C999.008 535.43 999.109 535.182 999.109 534.861C999.109 534.541 999.01 534.289 998.811 534.105C998.615 533.918 998.35 533.822 998.014 533.818H996.596ZM1006.2 530.66V535.863H1008.18V530.66H1009.6V535.863H1011.59V530.66H1013.01V537H1004.78V530.66H1006.2ZM1019.94 530.66V537H1018.52V531.809H1016.72L1016.61 534.018C1016.53 535.08 1016.33 535.844 1015.99 536.309C1015.66 536.77 1015.15 537 1014.46 537H1014.02L1014.02 535.816L1014.31 535.787C1014.62 535.744 1014.85 535.555 1014.99 535.219C1015.13 534.879 1015.22 534.262 1015.26 533.367L1015.38 530.66H1019.94ZM1024.25 537.117C1023.34 537.117 1022.61 536.834 1022.05 536.268C1021.49 535.697 1021.21 534.939 1021.21 533.994V533.818C1021.21 533.186 1021.33 532.621 1021.57 532.125C1021.82 531.625 1022.16 531.236 1022.61 530.959C1023.05 530.682 1023.54 530.543 1024.08 530.543C1024.95 530.543 1025.61 530.818 1026.08 531.369C1026.55 531.92 1026.79 532.699 1026.79 533.707V534.281H1022.65C1022.69 534.805 1022.86 535.219 1023.17 535.523C1023.48 535.828 1023.86 535.98 1024.33 535.98C1024.98 535.98 1025.51 535.717 1025.92 535.189L1026.69 535.922C1026.44 536.301 1026.1 536.596 1025.67 536.807C1025.25 537.014 1024.77 537.117 1024.25 537.117ZM1024.08 531.686C1023.69 531.686 1023.37 531.822 1023.13 532.096C1022.89 532.369 1022.74 532.75 1022.67 533.238H1025.38V533.133C1025.35 532.656 1025.22 532.297 1025 532.055C1024.78 531.809 1024.47 531.686 1024.08 531.686ZM1033.27 537H1031.85V534.439H1029.38V537H1027.96V530.66H1029.38V533.303H1031.85V530.66H1033.27V537ZM1040.16 537H1038.74V534.439H1036.27V537H1034.85V530.66H1036.27V533.303H1038.74V530.66H1040.16V537ZM1041.41 533.771C1041.41 533.15 1041.54 532.592 1041.78 532.096C1042.03 531.596 1042.38 531.213 1042.82 530.947C1043.27 530.678 1043.78 530.543 1044.36 530.543C1045.21 530.543 1045.9 530.818 1046.44 531.369C1046.97 531.92 1047.26 532.65 1047.3 533.561L1047.31 533.895C1047.31 534.52 1047.19 535.078 1046.95 535.57C1046.71 536.062 1046.36 536.443 1045.91 536.713C1045.47 536.982 1044.95 537.117 1044.37 537.117C1043.47 537.117 1042.76 536.82 1042.22 536.227C1041.68 535.629 1041.41 534.834 1041.41 533.842V533.771ZM1042.84 533.895C1042.84 534.547 1042.97 535.059 1043.24 535.43C1043.51 535.797 1043.89 535.98 1044.37 535.98C1044.85 535.98 1045.22 535.793 1045.49 535.418C1045.76 535.043 1045.89 534.494 1045.89 533.771C1045.89 533.131 1045.75 532.623 1045.47 532.248C1045.2 531.873 1044.83 531.686 1044.36 531.686C1043.89 531.686 1043.52 531.871 1043.25 532.242C1042.97 532.609 1042.84 533.16 1042.84 533.895ZM1052.73 531.809H1049.98V537H1048.56V530.66H1052.73V531.809ZM1053.16 533.771C1053.16 533.15 1053.28 532.592 1053.53 532.096C1053.77 531.596 1054.12 531.213 1054.56 530.947C1055.01 530.678 1055.52 530.543 1056.1 530.543C1056.95 530.543 1057.65 530.818 1058.18 531.369C1058.71 531.92 1059 532.65 1059.04 533.561L1059.05 533.895C1059.05 534.52 1058.93 535.078 1058.69 535.57C1058.45 536.062 1058.11 536.443 1057.66 536.713C1057.21 536.982 1056.7 537.117 1056.11 537.117C1055.21 537.117 1054.5 536.82 1053.96 536.227C1053.42 535.629 1053.16 534.834 1053.16 533.842V533.771ZM1054.58 533.895C1054.58 534.547 1054.71 535.059 1054.98 535.43C1055.25 535.797 1055.63 535.98 1056.11 535.98C1056.59 535.98 1056.96 535.793 1057.23 535.418C1057.5 535.043 1057.63 534.494 1057.63 533.771C1057.63 533.131 1057.49 532.623 1057.22 532.248C1056.94 531.873 1056.57 531.686 1056.1 531.686C1055.63 531.686 1055.26 531.871 1054.99 532.242C1054.72 532.609 1054.58 533.16 1054.58 533.895ZM947.939 549.98C948.295 549.98 948.59 549.877 948.824 549.67C949.059 549.463 949.184 549.207 949.199 548.902H950.541C950.525 549.297 950.402 549.666 950.172 550.01C949.941 550.35 949.629 550.619 949.234 550.818C948.84 551.018 948.414 551.117 947.957 551.117C947.07 551.117 946.367 550.83 945.848 550.256C945.328 549.682 945.068 548.889 945.068 547.877V547.73C945.068 546.766 945.326 545.994 945.842 545.416C946.357 544.834 947.061 544.543 947.951 544.543C948.705 544.543 949.318 544.764 949.791 545.205C950.268 545.643 950.518 546.219 950.541 546.934H949.199C949.184 546.57 949.059 546.271 948.824 546.037C948.594 545.803 948.299 545.686 947.939 545.686C947.479 545.686 947.123 545.854 946.873 546.189C946.623 546.521 946.496 547.027 946.492 547.707V547.936C946.492 548.623 946.615 549.137 946.861 549.477C947.111 549.812 947.471 549.98 947.939 549.98ZM956.605 545.791H954.549V551H953.125V545.791H951.092V544.66H956.605V545.791ZM963.109 547.895C963.109 548.875 962.887 549.658 962.441 550.244C961.996 550.826 961.398 551.117 960.648 551.117C959.953 551.117 959.396 550.889 958.979 550.432V553.438H957.555V544.66H958.867L958.926 545.305C959.344 544.797 959.912 544.543 960.631 544.543C961.404 544.543 962.01 544.832 962.447 545.41C962.889 545.984 963.109 546.783 963.109 547.807V547.895ZM961.691 547.771C961.691 547.139 961.564 546.637 961.311 546.266C961.061 545.895 960.701 545.709 960.232 545.709C959.65 545.709 959.232 545.949 958.979 546.43V549.242C959.236 549.734 959.658 549.98 960.244 549.98C960.697 549.98 961.051 549.799 961.305 549.436C961.562 549.068 961.691 548.514 961.691 547.771ZM964.053 547.771C964.053 547.15 964.176 546.592 964.422 546.096C964.668 545.596 965.014 545.213 965.459 544.947C965.904 544.678 966.416 544.543 966.994 544.543C967.85 544.543 968.543 544.818 969.074 545.369C969.609 545.92 969.898 546.65 969.941 547.561L969.947 547.895C969.947 548.52 969.826 549.078 969.584 549.57C969.346 550.062 969.002 550.443 968.553 550.713C968.107 550.982 967.592 551.117 967.006 551.117C966.111 551.117 965.395 550.82 964.855 550.227C964.32 549.629 964.053 548.834 964.053 547.842V547.771ZM965.477 547.895C965.477 548.547 965.611 549.059 965.881 549.43C966.15 549.797 966.525 549.98 967.006 549.98C967.486 549.98 967.859 549.793 968.125 549.418C968.395 549.043 968.529 548.494 968.529 547.771C968.529 547.131 968.391 546.623 968.113 546.248C967.84 545.873 967.467 545.686 966.994 545.686C966.529 545.686 966.16 545.871 965.887 546.242C965.613 546.609 965.477 547.16 965.477 547.895ZM975.109 544.66H976.527V551H975.109V546.77L972.625 551H971.207V544.66H972.625V548.891L975.109 544.66ZM983.031 545.791H980.975V551H979.551V545.791H977.518V544.66H983.031V545.791ZM986.4 551.117C985.498 551.117 984.766 550.834 984.203 550.268C983.645 549.697 983.365 548.939 983.365 547.994V547.818C983.365 547.186 983.486 546.621 983.729 546.125C983.975 545.625 984.318 545.236 984.76 544.959C985.201 544.682 985.693 544.543 986.236 544.543C987.1 544.543 987.766 544.818 988.234 545.369C988.707 545.92 988.943 546.699 988.943 547.707V548.281H984.801C984.844 548.805 985.018 549.219 985.322 549.523C985.631 549.828 986.018 549.98 986.482 549.98C987.135 549.98 987.666 549.717 988.076 549.189L988.844 549.922C988.59 550.301 988.25 550.596 987.824 550.807C987.402 551.014 986.928 551.117 986.4 551.117ZM986.23 545.686C985.84 545.686 985.523 545.822 985.281 546.096C985.043 546.369 984.891 546.75 984.824 547.238H987.537V547.133C987.506 546.656 987.379 546.297 987.156 546.055C986.934 545.809 986.625 545.686 986.23 545.686ZM995.441 544.66V551H994.018V545.809H992.225L992.107 548.018C992.033 549.08 991.828 549.844 991.492 550.309C991.16 550.77 990.65 551 989.963 551H989.523L989.518 549.816L989.811 549.787C990.123 549.744 990.35 549.555 990.49 549.219C990.635 548.879 990.727 548.262 990.766 547.367L990.883 544.66H995.441ZM998.488 546.676H999.883C1000.4 546.676 1000.86 546.766 1001.24 546.945C1001.63 547.125 1001.92 547.377 1002.12 547.701C1002.32 548.025 1002.43 548.402 1002.43 548.832C1002.43 549.484 1002.2 550.008 1001.73 550.402C1001.27 550.797 1000.66 550.996 999.895 551H997.064V544.66H998.488V546.676ZM998.488 547.818V549.863H999.877C1000.22 549.863 1000.5 549.777 1000.7 549.605C1000.9 549.43 1001 549.182 1001 548.861C1001 548.541 1000.9 548.289 1000.7 548.105C1000.51 547.918 1000.24 547.822 999.906 547.818H998.488ZM1006.17 549.98C1006.53 549.98 1006.82 549.877 1007.05 549.67C1007.29 549.463 1007.41 549.207 1007.43 548.902H1008.77C1008.76 549.297 1008.63 549.666 1008.4 550.01C1008.17 550.35 1007.86 550.619 1007.46 550.818C1007.07 551.018 1006.64 551.117 1006.19 551.117C1005.3 551.117 1004.6 550.83 1004.08 550.256C1003.56 549.682 1003.3 548.889 1003.3 547.877V547.73C1003.3 546.766 1003.56 545.994 1004.07 545.416C1004.59 544.834 1005.29 544.543 1006.18 544.543C1006.94 544.543 1007.55 544.764 1008.02 545.205C1008.5 545.643 1008.75 546.219 1008.77 546.934H1007.43C1007.41 546.57 1007.29 546.271 1007.05 546.037C1006.82 545.803 1006.53 545.686 1006.17 545.686C1005.71 545.686 1005.35 545.854 1005.1 546.189C1004.85 546.521 1004.73 547.027 1004.72 547.707V547.936C1004.72 548.623 1004.85 549.137 1005.09 549.477C1005.34 549.812 1005.7 549.98 1006.17 549.98ZM1014.84 545.791H1012.78V551H1011.36V545.791H1009.32V544.66H1014.84V545.791ZM1015.9 551V544.66H1018.47C1019.34 544.66 1020 544.812 1020.45 545.117C1020.9 545.418 1021.13 545.852 1021.13 546.418C1021.13 546.711 1021.04 546.975 1020.85 547.209C1020.67 547.439 1020.41 547.617 1020.05 547.742C1020.46 547.828 1020.79 548.002 1021.04 548.264C1021.28 548.525 1021.4 548.834 1021.4 549.189C1021.4 549.779 1021.18 550.229 1020.74 550.537C1020.31 550.846 1019.68 551 1018.87 551H1015.9ZM1017.32 548.299V549.875H1018.88C1019.61 549.875 1019.97 549.613 1019.97 549.09C1019.97 548.562 1019.6 548.299 1018.86 548.299H1017.32ZM1017.32 547.279H1018.49C1019.3 547.279 1019.71 547.041 1019.71 546.564C1019.71 546.064 1019.32 545.807 1018.56 545.791H1017.32V547.279ZM1026.42 551C1026.36 550.879 1026.3 550.682 1026.26 550.408C1025.8 550.881 1025.25 551.117 1024.59 551.117C1023.96 551.117 1023.44 550.936 1023.03 550.572C1022.63 550.209 1022.43 549.76 1022.43 549.225C1022.43 548.549 1022.68 548.031 1023.18 547.672C1023.68 547.309 1024.4 547.127 1025.34 547.127H1026.21V546.711C1026.21 546.383 1026.12 546.121 1025.93 545.926C1025.75 545.727 1025.47 545.627 1025.1 545.627C1024.77 545.627 1024.51 545.709 1024.3 545.873C1024.09 546.033 1023.99 546.238 1023.99 546.488H1022.56C1022.56 546.141 1022.68 545.816 1022.91 545.516C1023.14 545.211 1023.45 544.973 1023.85 544.801C1024.25 544.629 1024.69 544.543 1025.18 544.543C1025.92 544.543 1026.51 544.73 1026.95 545.105C1027.39 545.477 1027.62 546 1027.63 546.676V549.535C1027.63 550.105 1027.71 550.561 1027.87 550.9V551H1026.42ZM1024.86 549.975C1025.14 549.975 1025.4 549.906 1025.65 549.77C1025.9 549.633 1026.08 549.449 1026.21 549.219V548.023H1025.44C1024.91 548.023 1024.52 548.115 1024.25 548.299C1023.99 548.482 1023.85 548.742 1023.85 549.078C1023.85 549.352 1023.94 549.57 1024.12 549.734C1024.31 549.895 1024.55 549.975 1024.86 549.975Z" fill="#3C3C3B"/>
<line y1="505" x2="1088" y2="505" stroke="black" stroke-width="2"/>
<line y1="469" x2="1088" y2="469" stroke="#CECECE" stroke-width="2"/>
<line y1="451.5" x2="1088" y2="451.5" stroke="#DDDDDD"/>
<line y1="379.5" x2="1088" y2="379.5" stroke="#DDDDDD"/>
<line y1="307.5" x2="1088" y2="307.5" stroke="#DDDDDD"/>
<line y1="235.5" x2="1088" y2="235.5" stroke="#DDDDDD"/>
<line y1="163.5" x2="1088" y2="163.5" stroke="#DDDDDD"/>
<line y1="91.5" x2="1088" y2="91.5" stroke="#DDDDDD"/>
<line y1="19.5" x2="1088" y2="19.5" stroke="#DDDDDD"/>
<line y1="415.5" x2="1088" y2="415.5" stroke="#DDDDDD"/>
<line y1="343.5" x2="1088" y2="343.5" stroke="#DDDDDD"/>
<line y1="271.5" x2="1088" y2="271.5" stroke="#DDDDDD"/>
<line y1="199.5" x2="1088" y2="199.5" stroke="#DDDDDD"/>
<line y1="127.5" x2="1088" y2="127.5" stroke="#DDDDDD"/>
<line y1="55.5" x2="1088" y2="55.5" stroke="#DDDDDD"/>
<line y1="433" x2="1088" y2="433" stroke="#CECECE" stroke-width="2"/>
<line y1="397" x2="1088" y2="397" stroke="#CECECE" stroke-width="2"/>
<line y1="361" x2="1088" y2="361" stroke="#CECECE" stroke-width="2"/>
<line y1="325" x2="1088" y2="325" stroke="#CECECE" stroke-width="2"/>
<line y1="289" x2="1088" y2="289" stroke="#CECECE" stroke-width="2"/>
<line y1="253" x2="1088" y2="253" stroke="#CECECE" stroke-width="2"/>
<line y1="217" x2="1088" y2="217" stroke="#CECECE" stroke-width="2"/>
<line y1="181" x2="1088" y2="181" stroke="#CECECE" stroke-width="2"/>
<line y1="145" x2="1088" y2="145" stroke="#CECECE" stroke-width="2"/>
<line y1="109" x2="1088" y2="109" stroke="#CECECE" stroke-width="2"/>
<line y1="73" x2="1088" y2="73" stroke="#CECECE" stroke-width="2"/>
<line y1="37" x2="1088" y2="37" stroke="#CECECE" stroke-width="2"/>
<line y1="1" x2="1088" y2="1" stroke="#CECECE" stroke-width="2"/>
<rect x="9" y="420" width="53" height="84" fill="#FECF9B"/>
<rect x="697" y="363" width="53" height="141" fill="#FECF9B"/>
<rect x="939" y="363" width="53" height="141" fill="#FECF9B"/>
<rect x="479" y="230" width="53" height="274" fill="#FECF9B"/>
<rect x="228" y="482" width="53" height="22" fill="#FECF9B"/>
<rect x="64" y="398" width="53" height="106" fill="#37FF9F"/>
<rect x="752" y="326" width="53" height="178" fill="#37FF9F"/>
<rect x="994" y="326" width="53" height="178" fill="#37FF9F"/>
<rect x="534" y="158" width="53" height="346" fill="#37FF9F"/>
<rect x="283" y="476" width="53" height="28" fill="#37FF9F"/>
<path d="M87.1465 383H81.8027V382.461L84.7266 379.145C85.2109 378.586 85.5469 378.125 85.7344 377.762C85.9219 377.398 86.0156 377.045 86.0156 376.701C86.0156 376.162 85.8574 375.736 85.541 375.424C85.2246 375.107 84.7891 374.949 84.2344 374.949C83.6602 374.949 83.1953 375.133 82.8398 375.5C82.4883 375.867 82.3125 376.344 82.3125 376.93H81.6152C81.6152 376.449 81.7227 376.012 81.9375 375.617C82.1562 375.223 82.4648 374.914 82.8633 374.691C83.2656 374.465 83.7227 374.352 84.2344 374.352C85.0156 374.352 85.625 374.557 86.0625 374.967C86.5039 375.377 86.7246 375.936 86.7246 376.643C86.7246 377.041 86.5996 377.477 86.3496 377.949C86.1035 378.422 85.668 379.012 85.043 379.719L82.6641 382.408H87.1465V383ZM92.8359 379.051C92.5859 379.418 92.2754 379.703 91.9043 379.906C91.5332 380.105 91.1309 380.205 90.6973 380.205C90.2129 380.205 89.7852 380.08 89.4141 379.83C89.043 379.58 88.7559 379.234 88.5527 378.793C88.3496 378.352 88.248 377.869 88.248 377.346C88.248 376.783 88.3555 376.271 88.5703 375.811C88.7891 375.35 89.0918 374.992 89.4785 374.738C89.8691 374.48 90.3184 374.352 90.8262 374.352C91.6816 374.352 92.3477 374.652 92.8242 375.254C93.3008 375.852 93.5391 376.701 93.5391 377.803V378.436C93.5391 379.975 93.2109 381.131 92.5547 381.904C91.8984 382.678 90.8965 383.064 89.5488 383.064H89.4199L89.4258 382.455H89.6719C90.6914 382.439 91.4668 382.15 91.998 381.588C92.5293 381.025 92.8086 380.18 92.8359 379.051ZM90.7852 379.602C91.2539 379.602 91.6738 379.463 92.0449 379.186C92.4199 378.904 92.6855 378.541 92.8418 378.096V377.691C92.8418 376.824 92.6602 376.152 92.2969 375.676C91.9375 375.195 91.4512 374.955 90.8379 374.955C90.2832 374.955 89.8281 375.18 89.4727 375.629C89.1172 376.074 88.9395 376.637 88.9395 377.316C88.9395 377.969 89.1094 378.514 89.4492 378.951C89.793 379.385 90.2383 379.602 90.7852 379.602ZM99.4219 380.252H100.752V380.844H99.4219V383H98.7188V380.844H94.7051V380.445L98.6543 374.469H99.4219V380.252ZM95.5664 380.252H98.7188V375.377L98.4082 375.916L95.5664 380.252Z" fill="#3C3C3B"/>
<path d="M551.066 144H550.363V136.312L548.043 137.174V136.518L550.949 135.439H551.066V144ZM559.715 135.873L556.07 144H555.338L558.959 136.066H554.107V135.469H559.715V135.873ZM565.252 135.404V136.02H565.17C564.15 136.02 563.348 136.32 562.762 136.922C562.176 137.52 561.852 138.352 561.789 139.418C562.023 139.094 562.322 138.844 562.686 138.668C563.049 138.488 563.455 138.398 563.904 138.398C564.654 138.398 565.25 138.658 565.691 139.178C566.137 139.693 566.359 140.369 566.359 141.205C566.359 141.76 566.256 142.26 566.049 142.705C565.842 143.15 565.545 143.498 565.158 143.748C564.771 143.994 564.33 144.117 563.834 144.117C563.018 144.117 562.354 143.822 561.842 143.232C561.33 142.639 561.074 141.873 561.074 140.936V140.232C561.074 138.705 561.422 137.523 562.117 136.688C562.812 135.848 563.799 135.42 565.076 135.404H565.252ZM563.793 139.002C563.348 139.002 562.932 139.135 562.545 139.4C562.162 139.662 561.906 139.996 561.777 140.402V141C561.777 141.742 561.967 142.348 562.346 142.816C562.729 143.285 563.225 143.52 563.834 143.52C564.381 143.52 564.822 143.303 565.158 142.869C565.498 142.436 565.668 141.889 565.668 141.229C565.668 140.557 565.498 140.018 565.158 139.611C564.822 139.205 564.367 139.002 563.793 139.002ZM568.246 139.629L568.662 135.469H572.928V136.119H569.266L568.967 139.002C569.424 138.689 569.959 138.533 570.572 138.533C571.342 138.533 571.955 138.783 572.412 139.283C572.869 139.783 573.098 140.449 573.098 141.281C573.098 142.18 572.875 142.877 572.43 143.373C571.984 143.869 571.357 144.117 570.549 144.117C569.807 144.117 569.205 143.91 568.744 143.496C568.283 143.082 568.02 142.502 567.953 141.756H568.627C568.693 142.338 568.891 142.779 569.219 143.08C569.547 143.377 569.99 143.525 570.549 143.525C571.158 143.525 571.617 143.332 571.926 142.945C572.238 142.559 572.395 142.008 572.395 141.293C572.395 140.668 572.221 140.158 571.873 139.764C571.525 139.369 571.051 139.172 570.449 139.172C570.117 139.172 569.828 139.215 569.582 139.301C569.336 139.383 569.076 139.545 568.803 139.787L568.246 139.629Z" fill="#3C3C3B"/>
<path d="M769.277 306.629L769.693 302.469H773.959V303.119H770.297L769.998 306.002C770.455 305.689 770.99 305.533 771.604 305.533C772.373 305.533 772.986 305.783 773.443 306.283C773.9 306.783 774.129 307.449 774.129 308.281C774.129 309.18 773.906 309.877 773.461 310.373C773.016 310.869 772.389 311.117 771.58 311.117C770.838 311.117 770.236 310.91 769.775 310.496C769.314 310.082 769.051 309.502 768.984 308.756H769.658C769.725 309.338 769.922 309.779 770.25 310.08C770.578 310.377 771.021 310.525 771.58 310.525C772.189 310.525 772.648 310.332 772.957 309.945C773.27 309.559 773.426 309.008 773.426 308.293C773.426 307.668 773.252 307.158 772.904 306.764C772.557 306.369 772.082 306.172 771.48 306.172C771.148 306.172 770.859 306.215 770.613 306.301C770.367 306.383 770.107 306.545 769.834 306.787L769.277 306.629ZM778.723 311H778.02V303.312L775.699 304.174V303.518L778.605 302.439H778.723V311ZM786.422 308.252H787.752V308.844H786.422V311H785.719V308.844H781.705V308.445L785.654 302.469H786.422V308.252ZM782.566 308.252H785.719V303.377L785.408 303.916L782.566 308.252Z" fill="#3C3C3B"/>
<path d="M1015.11 308.252H1016.44V308.844H1015.11V311H1014.41V308.844H1010.39V308.445L1014.34 302.469H1015.11V308.252ZM1011.25 308.252H1014.41V303.377L1014.1 303.916L1011.25 308.252ZM1019.02 306.354H1019.74C1020.15 306.354 1020.5 306.283 1020.8 306.143C1021.1 305.998 1021.33 305.803 1021.48 305.557C1021.64 305.307 1021.72 305.02 1021.72 304.695C1021.72 304.148 1021.57 303.721 1021.26 303.412C1020.95 303.104 1020.51 302.949 1019.93 302.949C1019.38 302.949 1018.94 303.111 1018.58 303.436C1018.24 303.756 1018.06 304.18 1018.06 304.707H1017.36C1017.36 304.266 1017.47 303.863 1017.69 303.5C1017.92 303.133 1018.22 302.85 1018.62 302.65C1019.01 302.451 1019.45 302.352 1019.93 302.352C1020.71 302.352 1021.31 302.562 1021.76 302.984C1022.21 303.406 1022.43 303.984 1022.43 304.719C1022.43 305.129 1022.3 305.508 1022.04 305.855C1021.78 306.199 1021.42 306.457 1020.97 306.629C1021.5 306.777 1021.9 307.033 1022.18 307.396C1022.45 307.756 1022.59 308.186 1022.59 308.686C1022.59 309.416 1022.35 310.004 1021.87 310.449C1021.39 310.895 1020.76 311.117 1019.96 311.117C1019.45 311.117 1018.99 311.016 1018.56 310.812C1018.14 310.609 1017.81 310.326 1017.58 309.963C1017.35 309.596 1017.23 309.17 1017.23 308.686H1017.93C1017.93 309.229 1018.12 309.672 1018.5 310.016C1018.88 310.355 1019.37 310.525 1019.96 310.525C1020.57 310.525 1021.04 310.371 1021.37 310.062C1021.71 309.75 1021.88 309.299 1021.88 308.709C1021.88 308.139 1021.7 307.703 1021.33 307.402C1020.97 307.102 1020.43 306.951 1019.72 306.951H1019.02V306.354ZM1028.42 308.252H1029.75V308.844H1028.42V311H1027.72V308.844H1023.71V308.445L1027.65 302.469H1028.42V308.252ZM1024.57 308.252H1027.72V303.377L1027.41 303.916L1024.57 308.252Z" fill="#3C3C3B"/>
<path d="M304.066 461H303.363V453.312L301.043 454.174V453.518L303.949 452.439H304.066V461ZM309.018 456.354H309.744C310.146 456.354 310.498 456.283 310.799 456.143C311.1 455.998 311.328 455.803 311.484 455.557C311.645 455.307 311.725 455.02 311.725 454.695C311.725 454.148 311.57 453.721 311.262 453.412C310.953 453.104 310.51 452.949 309.932 452.949C309.385 452.949 308.936 453.111 308.584 453.436C308.236 453.756 308.062 454.18 308.062 454.707H307.359C307.359 454.266 307.471 453.863 307.693 453.5C307.916 453.133 308.225 452.85 308.619 452.65C309.014 452.451 309.451 452.352 309.932 452.352C310.705 452.352 311.314 452.562 311.76 452.984C312.205 453.406 312.428 453.984 312.428 454.719C312.428 455.129 312.297 455.508 312.035 455.855C311.777 456.199 311.422 456.457 310.969 456.629C311.5 456.777 311.902 457.033 312.176 457.396C312.449 457.756 312.586 458.186 312.586 458.686C312.586 459.416 312.348 460.004 311.871 460.449C311.395 460.895 310.758 461.117 309.961 461.117C309.453 461.117 308.986 461.016 308.561 460.812C308.139 460.609 307.811 460.326 307.576 459.963C307.346 459.596 307.23 459.17 307.23 458.686H307.934C307.934 459.229 308.123 459.672 308.502 460.016C308.881 460.355 309.367 460.525 309.961 460.525C310.566 460.525 311.037 460.371 311.373 460.062C311.713 459.75 311.883 459.299 311.883 458.709C311.883 458.139 311.699 457.703 311.332 457.402C310.969 457.102 310.432 456.951 309.721 456.951H309.018V456.354ZM319.459 461H314.115V460.461L317.039 457.145C317.523 456.586 317.859 456.125 318.047 455.762C318.234 455.398 318.328 455.045 318.328 454.701C318.328 454.162 318.17 453.736 317.854 453.424C317.537 453.107 317.102 452.949 316.547 452.949C315.973 452.949 315.508 453.133 315.152 453.5C314.801 453.867 314.625 454.344 314.625 454.93H313.928C313.928 454.449 314.035 454.012 314.25 453.617C314.469 453.223 314.777 452.914 315.176 452.691C315.578 452.465 316.035 452.352 316.547 452.352C317.328 452.352 317.938 452.557 318.375 452.967C318.816 453.377 319.037 453.936 319.037 454.643C319.037 455.041 318.912 455.477 318.662 455.949C318.416 456.422 317.98 457.012 317.355 457.719L314.977 460.408H319.459V461Z" fill="#3C3C3B"/>
<path d="M30.1465 405H24.8027V404.461L27.7266 401.145C28.2109 400.586 28.5469 400.125 28.7344 399.762C28.9219 399.398 29.0156 399.045 29.0156 398.701C29.0156 398.162 28.8574 397.736 28.541 397.424C28.2246 397.107 27.7891 396.949 27.2344 396.949C26.6602 396.949 26.1953 397.133 25.8398 397.5C25.4883 397.867 25.3125 398.344 25.3125 398.93H24.6152C24.6152 398.449 24.7227 398.012 24.9375 397.617C25.1562 397.223 25.4648 396.914 25.8633 396.691C26.2656 396.465 26.7227 396.352 27.2344 396.352C28.0156 396.352 28.625 396.557 29.0625 396.967C29.5039 397.377 29.7246 397.936 29.7246 398.643C29.7246 399.041 29.5996 399.477 29.3496 399.949C29.1035 400.422 28.668 401.012 28.043 401.719L25.6641 404.408H30.1465V405ZM36.7148 396.873L33.0703 405H32.3379L35.959 397.066H31.1074V396.469H36.7148V396.873ZM42.4922 401.051C42.2422 401.418 41.9316 401.703 41.5605 401.906C41.1895 402.105 40.7871 402.205 40.3535 402.205C39.8691 402.205 39.4414 402.08 39.0703 401.83C38.6992 401.58 38.4121 401.234 38.209 400.793C38.0059 400.352 37.9043 399.869 37.9043 399.346C37.9043 398.783 38.0117 398.271 38.2266 397.811C38.4453 397.35 38.748 396.992 39.1348 396.738C39.5254 396.48 39.9746 396.352 40.4824 396.352C41.3379 396.352 42.0039 396.652 42.4805 397.254C42.957 397.852 43.1953 398.701 43.1953 399.803V400.436C43.1953 401.975 42.8672 403.131 42.2109 403.904C41.5547 404.678 40.5527 405.064 39.2051 405.064H39.0762L39.082 404.455H39.3281C40.3477 404.439 41.123 404.15 41.6543 403.588C42.1855 403.025 42.4648 402.18 42.4922 401.051ZM40.4414 401.602C40.9102 401.602 41.3301 401.463 41.7012 401.186C42.0762 400.904 42.3418 400.541 42.498 400.096V399.691C42.498 398.824 42.3164 398.152 41.9531 397.676C41.5938 397.195 41.1074 396.955 40.4941 396.955C39.9395 396.955 39.4844 397.18 39.1289 397.629C38.7734 398.074 38.5957 398.637 38.5957 399.316C38.5957 399.969 38.7656 400.514 39.1055 400.951C39.4492 401.385 39.8945 401.602 40.4414 401.602Z" fill="#3C3C3B"/>
<path d="M494.066 215H493.363V207.312L491.043 208.174V207.518L493.949 206.439H494.066V215ZM501.766 212.252H503.096V212.844H501.766V215H501.062V212.844H497.049V212.445L500.998 206.469H501.766V212.252ZM497.91 212.252H501.062V207.377L500.752 207.916L497.91 212.252ZM504.59 210.629L505.006 206.469H509.271V207.119H505.609L505.311 210.002C505.768 209.689 506.303 209.533 506.916 209.533C507.686 209.533 508.299 209.783 508.756 210.283C509.213 210.783 509.441 211.449 509.441 212.281C509.441 213.18 509.219 213.877 508.773 214.373C508.328 214.869 507.701 215.117 506.893 215.117C506.15 215.117 505.549 214.91 505.088 214.496C504.627 214.082 504.363 213.502 504.297 212.756H504.971C505.037 213.338 505.234 213.779 505.562 214.08C505.891 214.377 506.334 214.525 506.893 214.525C507.502 214.525 507.961 214.332 508.27 213.945C508.582 213.559 508.738 213.008 508.738 212.293C508.738 211.668 508.564 211.158 508.217 210.764C507.869 210.369 507.395 210.172 506.793 210.172C506.461 210.172 506.172 210.215 505.926 210.301C505.68 210.383 505.42 210.545 505.146 210.787L504.59 210.629ZM515.078 212.252H516.408V212.844H515.078V215H514.375V212.844H510.361V212.445L514.311 206.469H515.078V212.252ZM511.223 212.252H514.375V207.377L514.064 207.916L511.223 212.252Z" fill="#3C3C3B"/>
<path d="M717.109 345.252H718.439V345.844H717.109V348H716.406V345.844H712.393V345.445L716.342 339.469H717.109V345.252ZM713.254 345.252H716.406V340.377L716.096 340.916L713.254 345.252ZM723.596 339.404V340.02H723.514C722.494 340.02 721.691 340.32 721.105 340.922C720.52 341.52 720.195 342.352 720.133 343.418C720.367 343.094 720.666 342.844 721.029 342.668C721.393 342.488 721.799 342.398 722.248 342.398C722.998 342.398 723.594 342.658 724.035 343.178C724.48 343.693 724.703 344.369 724.703 345.205C724.703 345.76 724.6 346.26 724.393 346.705C724.186 347.15 723.889 347.498 723.502 347.748C723.115 347.994 722.674 348.117 722.178 348.117C721.361 348.117 720.697 347.822 720.186 347.232C719.674 346.639 719.418 345.873 719.418 344.936V344.232C719.418 342.705 719.766 341.523 720.461 340.688C721.156 339.848 722.143 339.42 723.42 339.404H723.596ZM722.137 343.002C721.691 343.002 721.275 343.135 720.889 343.4C720.506 343.662 720.25 343.996 720.121 344.402V345C720.121 345.742 720.311 346.348 720.689 346.816C721.072 347.285 721.568 347.52 722.178 347.52C722.725 347.52 723.166 347.303 723.502 346.869C723.842 346.436 724.012 345.889 724.012 345.229C724.012 344.557 723.842 344.018 723.502 343.611C723.166 343.205 722.711 343.002 722.137 343.002ZM730.422 345.252H731.752V345.844H730.422V348H729.719V345.844H725.705V345.445L729.654 339.469H730.422V345.252ZM726.566 345.252H729.719V340.377L729.408 340.916L726.566 345.252Z" fill="#3C3C3B"/>
<path d="M956.361 343.354H957.088C957.49 343.354 957.842 343.283 958.143 343.143C958.443 342.998 958.672 342.803 958.828 342.557C958.988 342.307 959.068 342.02 959.068 341.695C959.068 341.148 958.914 340.721 958.605 340.412C958.297 340.104 957.854 339.949 957.275 339.949C956.729 339.949 956.279 340.111 955.928 340.436C955.58 340.756 955.406 341.18 955.406 341.707H954.703C954.703 341.266 954.814 340.863 955.037 340.5C955.26 340.133 955.568 339.85 955.963 339.65C956.357 339.451 956.795 339.352 957.275 339.352C958.049 339.352 958.658 339.562 959.104 339.984C959.549 340.406 959.771 340.984 959.771 341.719C959.771 342.129 959.641 342.508 959.379 342.855C959.121 343.199 958.766 343.457 958.312 343.629C958.844 343.777 959.246 344.033 959.52 344.396C959.793 344.756 959.93 345.186 959.93 345.686C959.93 346.416 959.691 347.004 959.215 347.449C958.738 347.895 958.102 348.117 957.305 348.117C956.797 348.117 956.33 348.016 955.904 347.812C955.482 347.609 955.154 347.326 954.92 346.963C954.689 346.596 954.574 346.17 954.574 345.686H955.277C955.277 346.229 955.467 346.672 955.846 347.016C956.225 347.355 956.711 347.525 957.305 347.525C957.91 347.525 958.381 347.371 958.717 347.062C959.057 346.75 959.227 346.299 959.227 345.709C959.227 345.139 959.043 344.703 958.676 344.402C958.312 344.102 957.775 343.951 957.064 343.951H956.361V343.354ZM965.596 339.404V340.02H965.514C964.494 340.02 963.691 340.32 963.105 340.922C962.52 341.52 962.195 342.352 962.133 343.418C962.367 343.094 962.666 342.844 963.029 342.668C963.393 342.488 963.799 342.398 964.248 342.398C964.998 342.398 965.594 342.658 966.035 343.178C966.48 343.693 966.703 344.369 966.703 345.205C966.703 345.76 966.6 346.26 966.393 346.705C966.186 347.15 965.889 347.498 965.502 347.748C965.115 347.994 964.674 348.117 964.178 348.117C963.361 348.117 962.697 347.822 962.186 347.232C961.674 346.639 961.418 345.873 961.418 344.936V344.232C961.418 342.705 961.766 341.523 962.461 340.688C963.156 339.848 964.143 339.42 965.42 339.404H965.596ZM964.137 343.002C963.691 343.002 963.275 343.135 962.889 343.4C962.506 343.662 962.25 343.996 962.121 344.402V345C962.121 345.742 962.311 346.348 962.689 346.816C963.072 347.285 963.568 347.52 964.178 347.52C964.725 347.52 965.166 347.303 965.502 346.869C965.842 346.436 966.012 345.889 966.012 345.229C966.012 344.557 965.842 344.018 965.502 343.611C965.166 343.205 964.711 343.002 964.137 343.002ZM973.459 348H968.115V347.461L971.039 344.145C971.523 343.586 971.859 343.125 972.047 342.762C972.234 342.398 972.328 342.045 972.328 341.701C972.328 341.162 972.17 340.736 971.854 340.424C971.537 340.107 971.102 339.949 970.547 339.949C969.973 339.949 969.508 340.133 969.152 340.5C968.801 340.867 968.625 341.344 968.625 341.93H967.928C967.928 341.449 968.035 341.012 968.25 340.617C968.469 340.223 968.777 339.914 969.176 339.691C969.578 339.465 970.035 339.352 970.547 339.352C971.328 339.352 971.938 339.557 972.375 339.967C972.816 340.377 973.037 340.936 973.037 341.643C973.037 342.041 972.912 342.477 972.662 342.949C972.416 343.422 971.98 344.012 971.355 344.719L968.977 347.408H973.459V348Z" fill="#3C3C3B"/>
<path d="M248.066 467H247.363V459.312L245.043 460.174V459.518L247.949 458.439H248.066V467ZM256.604 463.443C256.604 464.646 256.383 465.561 255.941 466.186C255.5 466.807 254.85 467.117 253.99 467.117C253.146 467.117 252.5 466.812 252.051 466.203C251.602 465.59 251.371 464.699 251.359 463.531V462.002C251.359 460.803 251.582 459.895 252.027 459.277C252.473 458.66 253.123 458.352 253.979 458.352C254.822 458.352 255.467 458.65 255.912 459.248C256.357 459.842 256.588 460.719 256.604 461.879V463.443ZM255.9 461.914C255.9 460.938 255.74 460.199 255.42 459.699C255.104 459.199 254.623 458.949 253.979 458.949C253.346 458.949 252.869 459.193 252.549 459.682C252.229 460.17 252.064 460.891 252.057 461.844V463.52C252.057 464.492 252.221 465.236 252.549 465.752C252.881 466.268 253.361 466.525 253.99 466.525C254.615 466.525 255.088 466.273 255.408 465.77C255.732 465.266 255.896 464.527 255.9 463.555V461.914ZM263.459 467H258.115V466.461L261.039 463.145C261.523 462.586 261.859 462.125 262.047 461.762C262.234 461.398 262.328 461.045 262.328 460.701C262.328 460.162 262.17 459.736 261.854 459.424C261.537 459.107 261.102 458.949 260.547 458.949C259.973 458.949 259.508 459.133 259.152 459.5C258.801 459.867 258.625 460.344 258.625 460.93H257.928C257.928 460.449 258.035 460.012 258.25 459.617C258.469 459.223 258.777 458.914 259.176 458.691C259.578 458.465 260.035 458.352 260.547 458.352C261.328 458.352 261.938 458.557 262.375 458.967C262.816 459.377 263.037 459.936 263.037 460.643C263.037 461.041 262.912 461.477 262.662 461.949C262.416 462.422 261.98 463.012 261.355 463.719L258.977 466.408H263.459V467Z" fill="#3C3C3B"/>
</svg>
