<svg width="1088" height="506" viewBox="0 0 1088 506" fill="none" xmlns="http://www.w3.org/2000/svg">
<line y1="505" x2="1088" y2="505" stroke="black" stroke-width="2"/>
<line y1="469" x2="1088" y2="469" stroke="#CECECE" stroke-width="2"/>
<line y1="451.5" x2="1088" y2="451.5" stroke="#DDDDDD"/>
<line y1="379.5" x2="1088" y2="379.5" stroke="#DDDDDD"/>
<line y1="307.5" x2="1088" y2="307.5" stroke="#DDDDDD"/>
<line y1="235.5" x2="1088" y2="235.5" stroke="#DDDDDD"/>
<line y1="163.5" x2="1088" y2="163.5" stroke="#DDDDDD"/>
<line y1="91.5" x2="1088" y2="91.5" stroke="#DDDDDD"/>
<line y1="19.5" x2="1088" y2="19.5" stroke="#DDDDDD"/>
<line y1="415.5" x2="1088" y2="415.5" stroke="#DDDDDD"/>
<line y1="343.5" x2="1088" y2="343.5" stroke="#DDDDDD"/>
<line y1="271.5" x2="1088" y2="271.5" stroke="#DDDDDD"/>
<line y1="199.5" x2="1088" y2="199.5" stroke="#DDDDDD"/>
<line y1="127.5" x2="1088" y2="127.5" stroke="#DDDDDD"/>
<line y1="55.5" x2="1088" y2="55.5" stroke="#DDDDDD"/>
<line y1="433" x2="1088" y2="433" stroke="#CECECE" stroke-width="2"/>
<line y1="397" x2="1088" y2="397" stroke="#CECECE" stroke-width="2"/>
<line y1="361" x2="1088" y2="361" stroke="#CECECE" stroke-width="2"/>
<line y1="325" x2="1088" y2="325" stroke="#CECECE" stroke-width="2"/>
<line y1="289" x2="1088" y2="289" stroke="#CECECE" stroke-width="2"/>
<line y1="253" x2="1088" y2="253" stroke="#CECECE" stroke-width="2"/>
<line y1="217" x2="1088" y2="217" stroke="#CECECE" stroke-width="2"/>
<line y1="181" x2="1088" y2="181" stroke="#CECECE" stroke-width="2"/>
<line y1="145" x2="1088" y2="145" stroke="#CECECE" stroke-width="2"/>
<line y1="109" x2="1088" y2="109" stroke="#CECECE" stroke-width="2"/>
<line y1="73" x2="1088" y2="73" stroke="#CECECE" stroke-width="2"/>
<line y1="37" x2="1088" y2="37" stroke="#CECECE" stroke-width="2"/>
<line y1="1" x2="1088" y2="1" stroke="#CECECE" stroke-width="2"/>
<rect x="9" y="344" width="17" height="160" fill="#FECF9B"/>
<rect x="95" y="283" width="17" height="221" fill="#FECF9B"/>
<rect x="178" y="216" width="17" height="288" fill="#FECF9B"/>
<rect x="261" y="235" width="17" height="269" fill="#FECF9B"/>
<rect x="339" y="247" width="17" height="257" fill="#FECF9B"/>
<rect x="403" y="391" width="17" height="113" fill="#FECF9B"/>
<rect x="467" y="229" width="17" height="275" fill="#FECF9B"/>
<rect x="551" y="240" width="17" height="264" fill="#FECF9B"/>
<rect x="652" y="227" width="17" height="277" fill="#FECF9B"/>
<rect x="734" y="247" width="17" height="257" fill="#FECF9B"/>
<rect x="820" y="227" width="17" height="277" fill="#FECF9B"/>
<rect x="917" y="247" width="17" height="257" fill="#FECF9B"/>
<rect x="1015" y="247" width="17" height="257" fill="#FECF9B"/>
<rect x="28" y="236" width="17" height="268" fill="#37FF9F"/>
<rect x="114" y="272" width="17" height="232" fill="#37FF9F"/>
<rect x="197" y="103" width="17" height="401" fill="#37FF9F"/>
<rect x="281" y="135" width="17" height="369" fill="#37FF9F"/>
<rect x="358" y="95" width="17" height="409" fill="#37FF9F"/>
<rect x="422" y="254" width="17" height="250" fill="#37FF9F"/>
<rect x="486" y="107" width="17" height="397" fill="#37FF9F"/>
<rect x="570" y="226" width="17" height="278" fill="#37FF9F"/>
<rect x="671" y="55" width="17" height="449" fill="#37FF9F"/>
<rect x="753" y="105" width="17" height="399" fill="#37FF9F"/>
<rect x="839" y="74" width="17" height="430" fill="#37FF9F"/>
<rect x="936" y="110" width="17" height="394" fill="#37FF9F"/>
<rect x="1034" y="110" width="17" height="394" fill="#37FF9F"/>
<line x1="36.25" y1="225" x2="36.25" y2="235" stroke="#3C3C3B" stroke-width="0.5"/>
<line x1="123.25" y1="261" x2="123.25" y2="271" stroke="#3C3C3B" stroke-width="0.5"/>
<line x1="17.25" y1="331" x2="17.25" y2="341" stroke="#3C3C3B" stroke-width="0.5"/>
<line x1="103.25" y1="272" x2="103.25" y2="282" stroke="#3C3C3B" stroke-width="0.5"/>
<line x1="186.25" y1="203" x2="186.25" y2="213" stroke="#3C3C3B" stroke-width="0.5"/>
<line x1="270.25" y1="224" x2="270.25" y2="234" stroke="#3C3C3B" stroke-width="0.5"/>
<line x1="347.25" y1="235" x2="347.25" y2="245" stroke="#3C3C3B" stroke-width="0.5"/>
<line x1="430.25" y1="241" x2="430.25" y2="251" stroke="#3C3C3B" stroke-width="0.5"/>
<line x1="494.25" y1="95" x2="494.25" y2="105" stroke="#3C3C3B" stroke-width="0.5"/>
<line x1="679.25" y1="43" x2="679.25" y2="53" stroke="#3C3C3B" stroke-width="0.5"/>
<line x1="761.25" y1="94" x2="761.25" y2="104" stroke="#3C3C3B" stroke-width="0.5"/>
<line x1="846.25" y1="60" x2="846.25" y2="70" stroke="#3C3C3B" stroke-width="0.5"/>
<line x1="943.25" y1="99" x2="943.25" y2="109" stroke="#3C3C3B" stroke-width="0.5"/>
<line x1="1041.25" y1="99" x2="1041.25" y2="109" stroke="#3C3C3B" stroke-width="0.5"/>
<line x1="475.25" y1="218" x2="475.25" y2="228" stroke="#3C3C3B" stroke-width="0.5"/>
<line x1="560.25" y1="229" x2="560.25" y2="239" stroke="#3C3C3B" stroke-width="0.5"/>
<line x1="659.25" y1="216" x2="659.25" y2="226" stroke="#3C3C3B" stroke-width="0.5"/>
<line x1="742.25" y1="235" x2="742.25" y2="245" stroke="#3C3C3B" stroke-width="0.5"/>
<line x1="827.25" y1="216" x2="827.25" y2="226" stroke="#3C3C3B" stroke-width="0.5"/>
<line x1="924.25" y1="235" x2="924.25" y2="245" stroke="#3C3C3B" stroke-width="0.5"/>
<line x1="1022.25" y1="235" x2="1022.25" y2="245" stroke="#3C3C3B" stroke-width="0.5"/>
<line x1="579.25" y1="215" x2="579.25" y2="225" stroke="#3C3C3B" stroke-width="0.5"/>
<line x1="411.25" y1="379" x2="411.25" y2="389" stroke="#3C3C3B" stroke-width="0.5"/>
<line x1="366.25" y1="82" x2="366.25" y2="92" stroke="#3C3C3B" stroke-width="0.5"/>
<line x1="205.25" y1="90" x2="205.25" y2="100" stroke="#3C3C3B" stroke-width="0.5"/>
<line x1="289.25" y1="125" x2="289.25" y2="135" stroke="#3C3C3B" stroke-width="0.5"/>
<path d="M32.1465 222H26.8027V221.461L29.7266 218.145C30.2109 217.586 30.5469 217.125 30.7344 216.762C30.9219 216.398 31.0156 216.045 31.0156 215.701C31.0156 215.162 30.8574 214.736 30.541 214.424C30.2246 214.107 29.7891 213.949 29.2344 213.949C28.6602 213.949 28.1953 214.133 27.8398 214.5C27.4883 214.867 27.3125 215.344 27.3125 215.93H26.6152C26.6152 215.449 26.7227 215.012 26.9375 214.617C27.1562 214.223 27.4648 213.914 27.8633 213.691C28.2656 213.465 28.7227 213.352 29.2344 213.352C30.0156 213.352 30.625 213.557 31.0625 213.967C31.5039 214.377 31.7246 214.936 31.7246 215.643C31.7246 216.041 31.5996 216.477 31.3496 216.949C31.1035 217.422 30.668 218.012 30.043 218.719L27.6641 221.408H32.1465V222ZM36.7227 222H36.0195V214.312L33.6992 215.174V214.518L36.6055 213.439H36.7227V222ZM45.459 222H40.1152V221.461L43.0391 218.145C43.5234 217.586 43.8594 217.125 44.0469 216.762C44.2344 216.398 44.3281 216.045 44.3281 215.701C44.3281 215.162 44.1699 214.736 43.8535 214.424C43.5371 214.107 43.1016 213.949 42.5469 213.949C41.9727 213.949 41.5078 214.133 41.1523 214.5C40.8008 214.867 40.625 215.344 40.625 215.93H39.9277C39.9277 215.449 40.0352 215.012 40.25 214.617C40.4688 214.223 40.7773 213.914 41.1758 213.691C41.5781 213.465 42.0352 213.352 42.5469 213.352C43.3281 213.352 43.9375 213.557 44.375 213.967C44.8164 214.377 45.0371 214.936 45.0371 215.643C45.0371 216.041 44.9121 216.477 44.6621 216.949C44.416 217.422 43.9805 218.012 43.3555 218.719L40.9766 221.408H45.459V222Z" fill="#3C3C3B"/>
<path d="M119.146 258H113.803V257.461L116.727 254.145C117.211 253.586 117.547 253.125 117.734 252.762C117.922 252.398 118.016 252.045 118.016 251.701C118.016 251.162 117.857 250.736 117.541 250.424C117.225 250.107 116.789 249.949 116.234 249.949C115.66 249.949 115.195 250.133 114.84 250.5C114.488 250.867 114.312 251.344 114.312 251.93H113.615C113.615 251.449 113.723 251.012 113.938 250.617C114.156 250.223 114.465 249.914 114.863 249.691C115.266 249.465 115.723 249.352 116.234 249.352C117.016 249.352 117.625 249.557 118.062 249.967C118.504 250.377 118.725 250.936 118.725 251.643C118.725 252.041 118.6 252.477 118.35 252.949C118.104 253.422 117.668 254.012 117.043 254.719L114.664 257.408H119.146V258ZM125.604 254.443C125.604 255.646 125.383 256.561 124.941 257.186C124.5 257.807 123.85 258.117 122.99 258.117C122.146 258.117 121.5 257.812 121.051 257.203C120.602 256.59 120.371 255.699 120.359 254.531V253.002C120.359 251.803 120.582 250.895 121.027 250.277C121.473 249.66 122.123 249.352 122.979 249.352C123.822 249.352 124.467 249.65 124.912 250.248C125.357 250.842 125.588 251.719 125.604 252.879V254.443ZM124.9 252.914C124.9 251.938 124.74 251.199 124.42 250.699C124.104 250.199 123.623 249.949 122.979 249.949C122.346 249.949 121.869 250.193 121.549 250.682C121.229 251.17 121.064 251.891 121.057 252.844V254.52C121.057 255.492 121.221 256.236 121.549 256.752C121.881 257.268 122.361 257.525 122.99 257.525C123.615 257.525 124.088 257.273 124.408 256.77C124.732 256.266 124.896 255.527 124.9 254.555V252.914ZM127.59 253.629L128.006 249.469H132.271V250.119H128.609L128.311 253.002C128.768 252.689 129.303 252.533 129.916 252.533C130.686 252.533 131.299 252.783 131.756 253.283C132.213 253.783 132.441 254.449 132.441 255.281C132.441 256.18 132.219 256.877 131.773 257.373C131.328 257.869 130.701 258.117 129.893 258.117C129.15 258.117 128.549 257.91 128.088 257.496C127.627 257.082 127.363 256.502 127.297 255.756H127.971C128.037 256.338 128.234 256.779 128.562 257.08C128.891 257.377 129.334 257.525 129.893 257.525C130.502 257.525 130.961 257.332 131.27 256.945C131.582 256.559 131.738 256.008 131.738 255.293C131.738 254.668 131.564 254.158 131.217 253.764C130.869 253.369 130.395 253.172 129.793 253.172C129.461 253.172 129.172 253.215 128.926 253.301C128.68 253.383 128.42 253.545 128.146 253.787L127.59 253.629Z" fill="#3C3C3B"/>
<path d="M11.0664 328H10.3633V320.312L8.04297 321.174V320.518L10.9492 319.439H11.0664V328ZM16.0176 323.354H16.7441C17.1465 323.354 17.498 323.283 17.7988 323.143C18.0996 322.998 18.3281 322.803 18.4844 322.557C18.6445 322.307 18.7246 322.02 18.7246 321.695C18.7246 321.148 18.5703 320.721 18.2617 320.412C17.9531 320.104 17.5098 319.949 16.9316 319.949C16.3848 319.949 15.9355 320.111 15.584 320.436C15.2363 320.756 15.0625 321.18 15.0625 321.707H14.3594C14.3594 321.266 14.4707 320.863 14.6934 320.5C14.916 320.133 15.2246 319.85 15.6191 319.65C16.0137 319.451 16.4512 319.352 16.9316 319.352C17.7051 319.352 18.3145 319.562 18.7598 319.984C19.2051 320.406 19.4277 320.984 19.4277 321.719C19.4277 322.129 19.2969 322.508 19.0352 322.855C18.7773 323.199 18.4219 323.457 17.9688 323.629C18.5 323.777 18.9023 324.033 19.1758 324.396C19.4492 324.756 19.5859 325.186 19.5859 325.686C19.5859 326.416 19.3477 327.004 18.8711 327.449C18.3945 327.895 17.7578 328.117 16.9609 328.117C16.4531 328.117 15.9863 328.016 15.5605 327.812C15.1387 327.609 14.8105 327.326 14.5762 326.963C14.3457 326.596 14.2305 326.17 14.2305 325.686H14.9336C14.9336 326.229 15.123 326.672 15.502 327.016C15.8809 327.355 16.3672 327.525 16.9609 327.525C17.5664 327.525 18.0371 327.371 18.373 327.062C18.7129 326.75 18.8828 326.299 18.8828 325.709C18.8828 325.139 18.6992 324.703 18.332 324.402C17.9688 324.102 17.4316 323.951 16.7207 323.951H16.0176V323.354ZM22.6738 323.354H23.4004C23.8027 323.354 24.1543 323.283 24.4551 323.143C24.7559 322.998 24.9844 322.803 25.1406 322.557C25.3008 322.307 25.3809 322.02 25.3809 321.695C25.3809 321.148 25.2266 320.721 24.918 320.412C24.6094 320.104 24.166 319.949 23.5879 319.949C23.041 319.949 22.5918 320.111 22.2402 320.436C21.8926 320.756 21.7188 321.18 21.7188 321.707H21.0156C21.0156 321.266 21.127 320.863 21.3496 320.5C21.5723 320.133 21.8809 319.85 22.2754 319.65C22.6699 319.451 23.1074 319.352 23.5879 319.352C24.3613 319.352 24.9707 319.562 25.416 319.984C25.8613 320.406 26.084 320.984 26.084 321.719C26.084 322.129 25.9531 322.508 25.6914 322.855C25.4336 323.199 25.0781 323.457 24.625 323.629C25.1562 323.777 25.5586 324.033 25.832 324.396C26.1055 324.756 26.2422 325.186 26.2422 325.686C26.2422 326.416 26.0039 327.004 25.5273 327.449C25.0508 327.895 24.4141 328.117 23.6172 328.117C23.1094 328.117 22.6426 328.016 22.2168 327.812C21.7949 327.609 21.4668 327.326 21.2324 326.963C21.002 326.596 20.8867 326.17 20.8867 325.686H21.5898C21.5898 326.229 21.7793 326.672 22.1582 327.016C22.5371 327.355 23.0234 327.525 23.6172 327.525C24.2227 327.525 24.6934 327.371 25.0293 327.062C25.3691 326.75 25.5391 326.299 25.5391 325.709C25.5391 325.139 25.3555 324.703 24.9883 324.402C24.625 324.102 24.0879 323.951 23.377 323.951H22.6738V323.354Z" fill="#3C3C3B"/>
<path d="M99.1465 269H93.8027V268.461L96.7266 265.145C97.2109 264.586 97.5469 264.125 97.7344 263.762C97.9219 263.398 98.0156 263.045 98.0156 262.701C98.0156 262.162 97.8574 261.736 97.541 261.424C97.2246 261.107 96.7891 260.949 96.2344 260.949C95.6602 260.949 95.1953 261.133 94.8398 261.5C94.4883 261.867 94.3125 262.344 94.3125 262.93H93.6152C93.6152 262.449 93.7227 262.012 93.9375 261.617C94.1562 261.223 94.4648 260.914 94.8633 260.691C95.2656 260.465 95.7227 260.352 96.2344 260.352C97.0156 260.352 97.625 260.557 98.0625 260.967C98.5039 261.377 98.7246 261.936 98.7246 262.643C98.7246 263.041 98.5996 263.477 98.3496 263.949C98.1035 264.422 97.668 265.012 97.043 265.719L94.6641 268.408H99.1465V269ZM105.604 265.443C105.604 266.646 105.383 267.561 104.941 268.186C104.5 268.807 103.85 269.117 102.99 269.117C102.146 269.117 101.5 268.812 101.051 268.203C100.602 267.59 100.371 266.699 100.359 265.531V264.002C100.359 262.803 100.582 261.895 101.027 261.277C101.473 260.66 102.123 260.352 102.979 260.352C103.822 260.352 104.467 260.65 104.912 261.248C105.357 261.842 105.588 262.719 105.604 263.879V265.443ZM104.9 263.914C104.9 262.938 104.74 262.199 104.42 261.699C104.104 261.199 103.623 260.949 102.979 260.949C102.346 260.949 101.869 261.193 101.549 261.682C101.229 262.17 101.064 262.891 101.057 263.844V265.52C101.057 266.492 101.221 267.236 101.549 267.752C101.881 268.268 102.361 268.525 102.99 268.525C103.615 268.525 104.088 268.273 104.408 267.77C104.732 267.266 104.896 266.527 104.9 265.555V263.914ZM111.422 266.252H112.752V266.844H111.422V269H110.719V266.844H106.705V266.445L110.654 260.469H111.422V266.252ZM107.566 266.252H110.719V261.377L110.408 261.916L107.566 266.252Z" fill="#3C3C3B"/>
<path d="M182.146 200H176.803V199.461L179.727 196.145C180.211 195.586 180.547 195.125 180.734 194.762C180.922 194.398 181.016 194.045 181.016 193.701C181.016 193.162 180.857 192.736 180.541 192.424C180.225 192.107 179.789 191.949 179.234 191.949C178.66 191.949 178.195 192.133 177.84 192.5C177.488 192.867 177.312 193.344 177.312 193.93H176.615C176.615 193.449 176.723 193.012 176.938 192.617C177.156 192.223 177.465 191.914 177.863 191.691C178.266 191.465 178.723 191.352 179.234 191.352C180.016 191.352 180.625 191.557 181.062 191.967C181.504 192.377 181.725 192.936 181.725 193.643C181.725 194.041 181.6 194.477 181.35 194.949C181.104 195.422 180.668 196.012 180.043 196.719L177.664 199.408H182.146V200ZM185.018 195.354H185.744C186.146 195.354 186.498 195.283 186.799 195.143C187.1 194.998 187.328 194.803 187.484 194.557C187.645 194.307 187.725 194.02 187.725 193.695C187.725 193.148 187.57 192.721 187.262 192.412C186.953 192.104 186.51 191.949 185.932 191.949C185.385 191.949 184.936 192.111 184.584 192.436C184.236 192.756 184.062 193.18 184.062 193.707H183.359C183.359 193.266 183.471 192.863 183.693 192.5C183.916 192.133 184.225 191.85 184.619 191.65C185.014 191.451 185.451 191.352 185.932 191.352C186.705 191.352 187.314 191.562 187.76 191.984C188.205 192.406 188.428 192.984 188.428 193.719C188.428 194.129 188.297 194.508 188.035 194.855C187.777 195.199 187.422 195.457 186.969 195.629C187.5 195.777 187.902 196.033 188.176 196.396C188.449 196.756 188.586 197.186 188.586 197.686C188.586 198.416 188.348 199.004 187.871 199.449C187.395 199.895 186.758 200.117 185.961 200.117C185.453 200.117 184.986 200.016 184.561 199.812C184.139 199.609 183.811 199.326 183.576 198.963C183.346 198.596 183.23 198.17 183.23 197.686H183.934C183.934 198.229 184.123 198.672 184.502 199.016C184.881 199.355 185.367 199.525 185.961 199.525C186.566 199.525 187.037 199.371 187.373 199.062C187.713 198.75 187.883 198.299 187.883 197.709C187.883 197.139 187.699 196.703 187.332 196.402C186.969 196.102 186.432 195.951 185.721 195.951H185.018V195.354ZM190.59 195.629L191.006 191.469H195.271V192.119H191.609L191.311 195.002C191.768 194.689 192.303 194.533 192.916 194.533C193.686 194.533 194.299 194.783 194.756 195.283C195.213 195.783 195.441 196.449 195.441 197.281C195.441 198.18 195.219 198.877 194.773 199.373C194.328 199.869 193.701 200.117 192.893 200.117C192.15 200.117 191.549 199.91 191.088 199.496C190.627 199.082 190.363 198.502 190.297 197.756H190.971C191.037 198.338 191.234 198.779 191.562 199.08C191.891 199.377 192.334 199.525 192.893 199.525C193.502 199.525 193.961 199.332 194.27 198.945C194.582 198.559 194.738 198.008 194.738 197.293C194.738 196.668 194.564 196.158 194.217 195.764C193.869 195.369 193.395 195.172 192.793 195.172C192.461 195.172 192.172 195.215 191.926 195.301C191.68 195.383 191.42 195.545 191.146 195.787L190.59 195.629Z" fill="#3C3C3B"/>
<path d="M266.146 221H260.803V220.461L263.727 217.145C264.211 216.586 264.547 216.125 264.734 215.762C264.922 215.398 265.016 215.045 265.016 214.701C265.016 214.162 264.857 213.736 264.541 213.424C264.225 213.107 263.789 212.949 263.234 212.949C262.66 212.949 262.195 213.133 261.84 213.5C261.488 213.867 261.312 214.344 261.312 214.93H260.615C260.615 214.449 260.723 214.012 260.938 213.617C261.156 213.223 261.465 212.914 261.863 212.691C262.266 212.465 262.723 212.352 263.234 212.352C264.016 212.352 264.625 212.557 265.062 212.967C265.504 213.377 265.725 213.936 265.725 214.643C265.725 215.041 265.6 215.477 265.35 215.949C265.104 216.422 264.668 217.012 264.043 217.719L261.664 220.408H266.146V221ZM270.723 221H270.02V213.312L267.699 214.174V213.518L270.605 212.439H270.723V221ZM279.371 212.873L275.727 221H274.994L278.615 213.066H273.764V212.469H279.371V212.873Z" fill="#3C3C3B"/>
<path d="M343.146 232H337.803V231.461L340.727 228.145C341.211 227.586 341.547 227.125 341.734 226.762C341.922 226.398 342.016 226.045 342.016 225.701C342.016 225.162 341.857 224.736 341.541 224.424C341.225 224.107 340.789 223.949 340.234 223.949C339.66 223.949 339.195 224.133 338.84 224.5C338.488 224.867 338.312 225.344 338.312 225.93H337.615C337.615 225.449 337.723 225.012 337.938 224.617C338.156 224.223 338.465 223.914 338.863 223.691C339.266 223.465 339.723 223.352 340.234 223.352C341.016 223.352 341.625 223.557 342.062 223.967C342.504 224.377 342.725 224.936 342.725 225.643C342.725 226.041 342.6 226.477 342.35 226.949C342.104 227.422 341.668 228.012 341.043 228.719L338.664 231.408H343.146V232ZM349.604 228.443C349.604 229.646 349.383 230.561 348.941 231.186C348.5 231.807 347.85 232.117 346.99 232.117C346.146 232.117 345.5 231.812 345.051 231.203C344.602 230.59 344.371 229.699 344.359 228.531V227.002C344.359 225.803 344.582 224.895 345.027 224.277C345.473 223.66 346.123 223.352 346.979 223.352C347.822 223.352 348.467 223.65 348.912 224.248C349.357 224.842 349.588 225.719 349.604 226.879V228.443ZM348.9 226.914C348.9 225.938 348.74 225.199 348.42 224.699C348.104 224.199 347.623 223.949 346.979 223.949C346.346 223.949 345.869 224.193 345.549 224.682C345.229 225.17 345.064 225.891 345.057 226.844V228.52C345.057 229.492 345.221 230.236 345.549 230.752C345.881 231.268 346.361 231.525 346.99 231.525C347.615 231.525 348.088 231.273 348.408 230.77C348.732 230.266 348.896 229.527 348.9 228.555V226.914ZM356.459 232H351.115V231.461L354.039 228.145C354.523 227.586 354.859 227.125 355.047 226.762C355.234 226.398 355.328 226.045 355.328 225.701C355.328 225.162 355.17 224.736 354.854 224.424C354.537 224.107 354.102 223.949 353.547 223.949C352.973 223.949 352.508 224.133 352.152 224.5C351.801 224.867 351.625 225.344 351.625 225.93H350.928C350.928 225.449 351.035 225.012 351.25 224.617C351.469 224.223 351.777 223.914 352.176 223.691C352.578 223.465 353.035 223.352 353.547 223.352C354.328 223.352 354.938 223.557 355.375 223.967C355.816 224.377 356.037 224.936 356.037 225.643C356.037 226.041 355.912 226.477 355.662 226.949C355.416 227.422 354.98 228.012 354.355 228.719L351.977 231.408H356.459V232Z" fill="#3C3C3B"/>
<path d="M426.146 238H420.803V237.461L423.727 234.145C424.211 233.586 424.547 233.125 424.734 232.762C424.922 232.398 425.016 232.045 425.016 231.701C425.016 231.162 424.857 230.736 424.541 230.424C424.225 230.107 423.789 229.949 423.234 229.949C422.66 229.949 422.195 230.133 421.84 230.5C421.488 230.867 421.312 231.344 421.312 231.93H420.615C420.615 231.449 420.723 231.012 420.938 230.617C421.156 230.223 421.465 229.914 421.863 229.691C422.266 229.465 422.723 229.352 423.234 229.352C424.016 229.352 424.625 229.557 425.062 229.967C425.504 230.377 425.725 230.936 425.725 231.643C425.725 232.041 425.6 232.477 425.35 232.949C425.104 233.422 424.668 234.012 424.043 234.719L421.664 237.408H426.146V238ZM432.604 234.443C432.604 235.646 432.383 236.561 431.941 237.186C431.5 237.807 430.85 238.117 429.99 238.117C429.146 238.117 428.5 237.812 428.051 237.203C427.602 236.59 427.371 235.699 427.359 234.531V233.002C427.359 231.803 427.582 230.895 428.027 230.277C428.473 229.66 429.123 229.352 429.979 229.352C430.822 229.352 431.467 229.65 431.912 230.248C432.357 230.842 432.588 231.719 432.604 232.879V234.443ZM431.9 232.914C431.9 231.938 431.74 231.199 431.42 230.699C431.104 230.199 430.623 229.949 429.979 229.949C429.346 229.949 428.869 230.193 428.549 230.682C428.229 231.17 428.064 231.891 428.057 232.844V234.52C428.057 235.492 428.221 236.236 428.549 236.752C428.881 237.268 429.361 237.525 429.99 237.525C430.615 237.525 431.088 237.273 431.408 236.77C431.732 236.266 431.896 235.527 431.9 234.555V232.914ZM439.26 234.443C439.26 235.646 439.039 236.561 438.598 237.186C438.156 237.807 437.506 238.117 436.646 238.117C435.803 238.117 435.156 237.812 434.707 237.203C434.258 236.59 434.027 235.699 434.016 234.531V233.002C434.016 231.803 434.238 230.895 434.684 230.277C435.129 229.66 435.779 229.352 436.635 229.352C437.479 229.352 438.123 229.65 438.568 230.248C439.014 230.842 439.244 231.719 439.26 232.879V234.443ZM438.557 232.914C438.557 231.938 438.396 231.199 438.076 230.699C437.76 230.199 437.279 229.949 436.635 229.949C436.002 229.949 435.525 230.193 435.205 230.682C434.885 231.17 434.721 231.891 434.713 232.844V234.52C434.713 235.492 434.877 236.236 435.205 236.752C435.537 237.268 436.018 237.525 436.646 237.525C437.271 237.525 437.744 237.273 438.064 236.77C438.389 236.266 438.553 235.527 438.557 234.555V232.914Z" fill="#3C3C3B"/>
<path d="M486.361 87.3535H487.088C487.49 87.3535 487.842 87.2832 488.143 87.1426C488.443 86.998 488.672 86.8027 488.828 86.5566C488.988 86.3066 489.068 86.0195 489.068 85.6953C489.068 85.1484 488.914 84.7207 488.605 84.4121C488.297 84.1035 487.854 83.9492 487.275 83.9492C486.729 83.9492 486.279 84.1113 485.928 84.4355C485.58 84.7559 485.406 85.1797 485.406 85.707H484.703C484.703 85.2656 484.814 84.8633 485.037 84.5C485.26 84.1328 485.568 83.8496 485.963 83.6504C486.357 83.4512 486.795 83.3516 487.275 83.3516C488.049 83.3516 488.658 83.5625 489.104 83.9844C489.549 84.4062 489.771 84.9844 489.771 85.7188C489.771 86.1289 489.641 86.5078 489.379 86.8555C489.121 87.1992 488.766 87.457 488.312 87.6289C488.844 87.7773 489.246 88.0332 489.52 88.3965C489.793 88.7559 489.93 89.1855 489.93 89.6855C489.93 90.416 489.691 91.0039 489.215 91.4492C488.738 91.8945 488.102 92.1172 487.305 92.1172C486.797 92.1172 486.33 92.0156 485.904 91.8125C485.482 91.6094 485.154 91.3262 484.92 90.9629C484.689 90.5957 484.574 90.1699 484.574 89.6855H485.277C485.277 90.2285 485.467 90.6719 485.846 91.0156C486.225 91.3555 486.711 91.5254 487.305 91.5254C487.91 91.5254 488.381 91.3711 488.717 91.0625C489.057 90.75 489.227 90.2988 489.227 89.709C489.227 89.1387 489.043 88.7031 488.676 88.4023C488.312 88.1016 487.775 87.9512 487.064 87.9512H486.361V87.3535ZM496.604 88.4434C496.604 89.6465 496.383 90.5605 495.941 91.1855C495.5 91.8066 494.85 92.1172 493.99 92.1172C493.146 92.1172 492.5 91.8125 492.051 91.2031C491.602 90.5898 491.371 89.6992 491.359 88.5312V87.002C491.359 85.8027 491.582 84.8945 492.027 84.2773C492.473 83.6602 493.123 83.3516 493.979 83.3516C494.822 83.3516 495.467 83.6504 495.912 84.248C496.357 84.8418 496.588 85.7188 496.604 86.8789V88.4434ZM495.9 86.9141C495.9 85.9375 495.74 85.1992 495.42 84.6992C495.104 84.1992 494.623 83.9492 493.979 83.9492C493.346 83.9492 492.869 84.1934 492.549 84.6816C492.229 85.1699 492.064 85.8906 492.057 86.8438V88.5195C492.057 89.4922 492.221 90.2363 492.549 90.752C492.881 91.2676 493.361 91.5254 493.99 91.5254C494.615 91.5254 495.088 91.2734 495.408 90.7695C495.732 90.2656 495.896 89.5273 495.9 88.5547V86.9141ZM503.26 88.4434C503.26 89.6465 503.039 90.5605 502.598 91.1855C502.156 91.8066 501.506 92.1172 500.646 92.1172C499.803 92.1172 499.156 91.8125 498.707 91.2031C498.258 90.5898 498.027 89.6992 498.016 88.5312V87.002C498.016 85.8027 498.238 84.8945 498.684 84.2773C499.129 83.6602 499.779 83.3516 500.635 83.3516C501.479 83.3516 502.123 83.6504 502.568 84.248C503.014 84.8418 503.244 85.7188 503.26 86.8789V88.4434ZM502.557 86.9141C502.557 85.9375 502.396 85.1992 502.076 84.6992C501.76 84.1992 501.279 83.9492 500.635 83.9492C500.002 83.9492 499.525 84.1934 499.205 84.6816C498.885 85.1699 498.721 85.8906 498.713 86.8438V88.5195C498.713 89.4922 498.877 90.2363 499.205 90.752C499.537 91.2676 500.018 91.5254 500.646 91.5254C501.271 91.5254 501.744 91.2734 502.064 90.7695C502.389 90.2656 502.553 89.5273 502.557 88.5547V86.9141Z" fill="#3C3C3B"/>
<path d="M671.361 35.3535H672.088C672.49 35.3535 672.842 35.2832 673.143 35.1426C673.443 34.998 673.672 34.8027 673.828 34.5566C673.988 34.3066 674.068 34.0195 674.068 33.6953C674.068 33.1484 673.914 32.7207 673.605 32.4121C673.297 32.1035 672.854 31.9492 672.275 31.9492C671.729 31.9492 671.279 32.1113 670.928 32.4355C670.58 32.7559 670.406 33.1797 670.406 33.707H669.703C669.703 33.2656 669.814 32.8633 670.037 32.5C670.26 32.1328 670.568 31.8496 670.963 31.6504C671.357 31.4512 671.795 31.3516 672.275 31.3516C673.049 31.3516 673.658 31.5625 674.104 31.9844C674.549 32.4062 674.771 32.9844 674.771 33.7188C674.771 34.1289 674.641 34.5078 674.379 34.8555C674.121 35.1992 673.766 35.457 673.312 35.6289C673.844 35.7773 674.246 36.0332 674.52 36.3965C674.793 36.7559 674.93 37.1855 674.93 37.6855C674.93 38.416 674.691 39.0039 674.215 39.4492C673.738 39.8945 673.102 40.1172 672.305 40.1172C671.797 40.1172 671.33 40.0156 670.904 39.8125C670.482 39.6094 670.154 39.3262 669.92 38.9629C669.689 38.5957 669.574 38.1699 669.574 37.6855H670.277C670.277 38.2285 670.467 38.6719 670.846 39.0156C671.225 39.3555 671.711 39.5254 672.305 39.5254C672.91 39.5254 673.381 39.3711 673.717 39.0625C674.057 38.75 674.227 38.2988 674.227 37.709C674.227 37.1387 674.043 36.7031 673.676 36.4023C673.312 36.1016 672.775 35.9512 672.064 35.9512H671.361V35.3535ZM676.934 35.6289L677.35 31.4688H681.615V32.1191H677.953L677.654 35.002C678.111 34.6895 678.646 34.5332 679.26 34.5332C680.029 34.5332 680.643 34.7832 681.1 35.2832C681.557 35.7832 681.785 36.4492 681.785 37.2812C681.785 38.1797 681.562 38.877 681.117 39.373C680.672 39.8691 680.045 40.1172 679.236 40.1172C678.494 40.1172 677.893 39.9102 677.432 39.4961C676.971 39.082 676.707 38.502 676.641 37.7559H677.314C677.381 38.3379 677.578 38.7793 677.906 39.0801C678.234 39.377 678.678 39.5254 679.236 39.5254C679.846 39.5254 680.305 39.332 680.613 38.9453C680.926 38.5586 681.082 38.0078 681.082 37.293C681.082 36.668 680.908 36.1582 680.561 35.7637C680.213 35.3691 679.738 35.1719 679.137 35.1719C678.805 35.1719 678.516 35.2148 678.27 35.3008C678.023 35.3828 677.764 35.5449 677.49 35.7871L676.934 35.6289ZM688.26 36.4434C688.26 37.6465 688.039 38.5605 687.598 39.1855C687.156 39.8066 686.506 40.1172 685.646 40.1172C684.803 40.1172 684.156 39.8125 683.707 39.2031C683.258 38.5898 683.027 37.6992 683.016 36.5312V35.002C683.016 33.8027 683.238 32.8945 683.684 32.2773C684.129 31.6602 684.779 31.3516 685.635 31.3516C686.479 31.3516 687.123 31.6504 687.568 32.248C688.014 32.8418 688.244 33.7188 688.26 34.8789V36.4434ZM687.557 34.9141C687.557 33.9375 687.396 33.1992 687.076 32.6992C686.76 32.1992 686.279 31.9492 685.635 31.9492C685.002 31.9492 684.525 32.1934 684.205 32.6816C683.885 33.1699 683.721 33.8906 683.713 34.8438V36.5195C683.713 37.4922 683.877 38.2363 684.205 38.752C684.537 39.2676 685.018 39.5254 685.646 39.5254C686.271 39.5254 686.744 39.2734 687.064 38.7695C687.389 38.2656 687.553 37.5273 687.557 36.5547V34.9141Z" fill="#3C3C3B"/>
<path d="M753.361 86.3535H754.088C754.49 86.3535 754.842 86.2832 755.143 86.1426C755.443 85.998 755.672 85.8027 755.828 85.5566C755.988 85.3066 756.068 85.0195 756.068 84.6953C756.068 84.1484 755.914 83.7207 755.605 83.4121C755.297 83.1035 754.854 82.9492 754.275 82.9492C753.729 82.9492 753.279 83.1113 752.928 83.4355C752.58 83.7559 752.406 84.1797 752.406 84.707H751.703C751.703 84.2656 751.814 83.8633 752.037 83.5C752.26 83.1328 752.568 82.8496 752.963 82.6504C753.357 82.4512 753.795 82.3516 754.275 82.3516C755.049 82.3516 755.658 82.5625 756.104 82.9844C756.549 83.4062 756.771 83.9844 756.771 84.7188C756.771 85.1289 756.641 85.5078 756.379 85.8555C756.121 86.1992 755.766 86.457 755.312 86.6289C755.844 86.7773 756.246 87.0332 756.52 87.3965C756.793 87.7559 756.93 88.1855 756.93 88.6855C756.93 89.416 756.691 90.0039 756.215 90.4492C755.738 90.8945 755.102 91.1172 754.305 91.1172C753.797 91.1172 753.33 91.0156 752.904 90.8125C752.482 90.6094 752.154 90.3262 751.92 89.9629C751.689 89.5957 751.574 89.1699 751.574 88.6855H752.277C752.277 89.2285 752.467 89.6719 752.846 90.0156C753.225 90.3555 753.711 90.5254 754.305 90.5254C754.91 90.5254 755.381 90.3711 755.717 90.0625C756.057 89.75 756.227 89.2988 756.227 88.709C756.227 88.1387 756.043 87.7031 755.676 87.4023C755.312 87.1016 754.775 86.9512 754.064 86.9512H753.361V86.3535ZM763.604 87.4434C763.604 88.6465 763.383 89.5605 762.941 90.1855C762.5 90.8066 761.85 91.1172 760.99 91.1172C760.146 91.1172 759.5 90.8125 759.051 90.2031C758.602 89.5898 758.371 88.6992 758.359 87.5312V86.002C758.359 84.8027 758.582 83.8945 759.027 83.2773C759.473 82.6602 760.123 82.3516 760.979 82.3516C761.822 82.3516 762.467 82.6504 762.912 83.248C763.357 83.8418 763.588 84.7188 763.604 85.8789V87.4434ZM762.9 85.9141C762.9 84.9375 762.74 84.1992 762.42 83.6992C762.104 83.1992 761.623 82.9492 760.979 82.9492C760.346 82.9492 759.869 83.1934 759.549 83.6816C759.229 84.1699 759.064 84.8906 759.057 85.8438V87.5195C759.057 88.4922 759.221 89.2363 759.549 89.752C759.881 90.2676 760.361 90.5254 760.99 90.5254C761.615 90.5254 762.088 90.2734 762.408 89.7695C762.732 89.2656 762.896 88.5273 762.9 87.5547V85.9141ZM765.59 86.6289L766.006 82.4688H770.271V83.1191H766.609L766.311 86.002C766.768 85.6895 767.303 85.5332 767.916 85.5332C768.686 85.5332 769.299 85.7832 769.756 86.2832C770.213 86.7832 770.441 87.4492 770.441 88.2812C770.441 89.1797 770.219 89.877 769.773 90.373C769.328 90.8691 768.701 91.1172 767.893 91.1172C767.15 91.1172 766.549 90.9102 766.088 90.4961C765.627 90.082 765.363 89.502 765.297 88.7559H765.971C766.037 89.3379 766.234 89.7793 766.562 90.0801C766.891 90.377 767.334 90.5254 767.893 90.5254C768.502 90.5254 768.961 90.332 769.27 89.9453C769.582 89.5586 769.738 89.0078 769.738 88.293C769.738 87.668 769.564 87.1582 769.217 86.7637C768.869 86.3691 768.395 86.1719 767.793 86.1719C767.461 86.1719 767.172 86.2148 766.926 86.3008C766.68 86.3828 766.42 86.5449 766.146 86.7871L765.59 86.6289Z" fill="#3C3C3B"/>
<path d="M838.361 52.3535H839.088C839.49 52.3535 839.842 52.2832 840.143 52.1426C840.443 51.998 840.672 51.8027 840.828 51.5566C840.988 51.3066 841.068 51.0195 841.068 50.6953C841.068 50.1484 840.914 49.7207 840.605 49.4121C840.297 49.1035 839.854 48.9492 839.275 48.9492C838.729 48.9492 838.279 49.1113 837.928 49.4355C837.58 49.7559 837.406 50.1797 837.406 50.707H836.703C836.703 50.2656 836.814 49.8633 837.037 49.5C837.26 49.1328 837.568 48.8496 837.963 48.6504C838.357 48.4512 838.795 48.3516 839.275 48.3516C840.049 48.3516 840.658 48.5625 841.104 48.9844C841.549 49.4062 841.771 49.9844 841.771 50.7188C841.771 51.1289 841.641 51.5078 841.379 51.8555C841.121 52.1992 840.766 52.457 840.312 52.6289C840.844 52.7773 841.246 53.0332 841.52 53.3965C841.793 53.7559 841.93 54.1855 841.93 54.6855C841.93 55.416 841.691 56.0039 841.215 56.4492C840.738 56.8945 840.102 57.1172 839.305 57.1172C838.797 57.1172 838.33 57.0156 837.904 56.8125C837.482 56.6094 837.154 56.3262 836.92 55.9629C836.689 55.5957 836.574 55.1699 836.574 54.6855H837.277C837.277 55.2285 837.467 55.6719 837.846 56.0156C838.225 56.3555 838.711 56.5254 839.305 56.5254C839.91 56.5254 840.381 56.3711 840.717 56.0625C841.057 55.75 841.227 55.2988 841.227 54.709C841.227 54.1387 841.043 53.7031 840.676 53.4023C840.312 53.1016 839.775 52.9512 839.064 52.9512H838.361V52.3535ZM847.766 54.252H849.096V54.8438H847.766V57H847.062V54.8438H843.049V54.4453L846.998 48.4688H847.766V54.252ZM843.91 54.252H847.062V49.377L846.752 49.916L843.91 54.252ZM855.26 53.4434C855.26 54.6465 855.039 55.5605 854.598 56.1855C854.156 56.8066 853.506 57.1172 852.646 57.1172C851.803 57.1172 851.156 56.8125 850.707 56.2031C850.258 55.5898 850.027 54.6992 850.016 53.5312V52.002C850.016 50.8027 850.238 49.8945 850.684 49.2773C851.129 48.6602 851.779 48.3516 852.635 48.3516C853.479 48.3516 854.123 48.6504 854.568 49.248C855.014 49.8418 855.244 50.7188 855.26 51.8789V53.4434ZM854.557 51.9141C854.557 50.9375 854.396 50.1992 854.076 49.6992C853.76 49.1992 853.279 48.9492 852.635 48.9492C852.002 48.9492 851.525 49.1934 851.205 49.6816C850.885 50.1699 850.721 50.8906 850.713 51.8438V53.5195C850.713 54.4922 850.877 55.2363 851.205 55.752C851.537 56.2676 852.018 56.5254 852.646 56.5254C853.271 56.5254 853.744 56.2734 854.064 55.7695C854.389 55.2656 854.553 54.5273 854.557 53.5547V51.9141Z" fill="#3C3C3B"/>
<path d="M935.361 91.3535H936.088C936.49 91.3535 936.842 91.2832 937.143 91.1426C937.443 90.998 937.672 90.8027 937.828 90.5566C937.988 90.3066 938.068 90.0195 938.068 89.6953C938.068 89.1484 937.914 88.7207 937.605 88.4121C937.297 88.1035 936.854 87.9492 936.275 87.9492C935.729 87.9492 935.279 88.1113 934.928 88.4355C934.58 88.7559 934.406 89.1797 934.406 89.707H933.703C933.703 89.2656 933.814 88.8633 934.037 88.5C934.26 88.1328 934.568 87.8496 934.963 87.6504C935.357 87.4512 935.795 87.3516 936.275 87.3516C937.049 87.3516 937.658 87.5625 938.104 87.9844C938.549 88.4062 938.771 88.9844 938.771 89.7188C938.771 90.1289 938.641 90.5078 938.379 90.8555C938.121 91.1992 937.766 91.457 937.312 91.6289C937.844 91.7773 938.246 92.0332 938.52 92.3965C938.793 92.7559 938.93 93.1855 938.93 93.6855C938.93 94.416 938.691 95.0039 938.215 95.4492C937.738 95.8945 937.102 96.1172 936.305 96.1172C935.797 96.1172 935.33 96.0156 934.904 95.8125C934.482 95.6094 934.154 95.3262 933.92 94.9629C933.689 94.5957 933.574 94.1699 933.574 93.6855H934.277C934.277 94.2285 934.467 94.6719 934.846 95.0156C935.225 95.3555 935.711 95.5254 936.305 95.5254C936.91 95.5254 937.381 95.3711 937.717 95.0625C938.057 94.75 938.227 94.2988 938.227 93.709C938.227 93.1387 938.043 92.7031 937.676 92.4023C937.312 92.1016 936.775 91.9512 936.064 91.9512H935.361V91.3535ZM945.604 92.4434C945.604 93.6465 945.383 94.5605 944.941 95.1855C944.5 95.8066 943.85 96.1172 942.99 96.1172C942.146 96.1172 941.5 95.8125 941.051 95.2031C940.602 94.5898 940.371 93.6992 940.359 92.5312V91.002C940.359 89.8027 940.582 88.8945 941.027 88.2773C941.473 87.6602 942.123 87.3516 942.979 87.3516C943.822 87.3516 944.467 87.6504 944.912 88.248C945.357 88.8418 945.588 89.7188 945.604 90.8789V92.4434ZM944.9 90.9141C944.9 89.9375 944.74 89.1992 944.42 88.6992C944.104 88.1992 943.623 87.9492 942.979 87.9492C942.346 87.9492 941.869 88.1934 941.549 88.6816C941.229 89.1699 941.064 89.8906 941.057 90.8438V92.5195C941.057 93.4922 941.221 94.2363 941.549 94.752C941.881 95.2676 942.361 95.5254 942.99 95.5254C943.615 95.5254 944.088 95.2734 944.408 94.7695C944.732 94.2656 944.896 93.5273 944.9 92.5547V90.9141ZM952.26 92.4434C952.26 93.6465 952.039 94.5605 951.598 95.1855C951.156 95.8066 950.506 96.1172 949.646 96.1172C948.803 96.1172 948.156 95.8125 947.707 95.2031C947.258 94.5898 947.027 93.6992 947.016 92.5312V91.002C947.016 89.8027 947.238 88.8945 947.684 88.2773C948.129 87.6602 948.779 87.3516 949.635 87.3516C950.479 87.3516 951.123 87.6504 951.568 88.248C952.014 88.8418 952.244 89.7188 952.26 90.8789V92.4434ZM951.557 90.9141C951.557 89.9375 951.396 89.1992 951.076 88.6992C950.76 88.1992 950.279 87.9492 949.635 87.9492C949.002 87.9492 948.525 88.1934 948.205 88.6816C947.885 89.1699 947.721 89.8906 947.713 90.8438V92.5195C947.713 93.4922 947.877 94.2363 948.205 94.752C948.537 95.2676 949.018 95.5254 949.646 95.5254C950.271 95.5254 950.744 95.2734 951.064 94.7695C951.389 94.2656 951.553 93.5273 951.557 92.5547V90.9141Z" fill="#3C3C3B"/>
<path d="M1033.36 91.3535H1034.09C1034.49 91.3535 1034.84 91.2832 1035.14 91.1426C1035.44 90.998 1035.67 90.8027 1035.83 90.5566C1035.99 90.3066 1036.07 90.0195 1036.07 89.6953C1036.07 89.1484 1035.91 88.7207 1035.61 88.4121C1035.3 88.1035 1034.85 87.9492 1034.28 87.9492C1033.73 87.9492 1033.28 88.1113 1032.93 88.4355C1032.58 88.7559 1032.41 89.1797 1032.41 89.707H1031.7C1031.7 89.2656 1031.81 88.8633 1032.04 88.5C1032.26 88.1328 1032.57 87.8496 1032.96 87.6504C1033.36 87.4512 1033.79 87.3516 1034.28 87.3516C1035.05 87.3516 1035.66 87.5625 1036.1 87.9844C1036.55 88.4062 1036.77 88.9844 1036.77 89.7188C1036.77 90.1289 1036.64 90.5078 1036.38 90.8555C1036.12 91.1992 1035.77 91.457 1035.31 91.6289C1035.84 91.7773 1036.25 92.0332 1036.52 92.3965C1036.79 92.7559 1036.93 93.1855 1036.93 93.6855C1036.93 94.416 1036.69 95.0039 1036.21 95.4492C1035.74 95.8945 1035.1 96.1172 1034.3 96.1172C1033.8 96.1172 1033.33 96.0156 1032.9 95.8125C1032.48 95.6094 1032.15 95.3262 1031.92 94.9629C1031.69 94.5957 1031.57 94.1699 1031.57 93.6855H1032.28C1032.28 94.2285 1032.47 94.6719 1032.85 95.0156C1033.22 95.3555 1033.71 95.5254 1034.3 95.5254C1034.91 95.5254 1035.38 95.3711 1035.72 95.0625C1036.06 94.75 1036.23 94.2988 1036.23 93.709C1036.23 93.1387 1036.04 92.7031 1035.68 92.4023C1035.31 92.1016 1034.78 91.9512 1034.06 91.9512H1033.36V91.3535ZM1043.6 92.4434C1043.6 93.6465 1043.38 94.5605 1042.94 95.1855C1042.5 95.8066 1041.85 96.1172 1040.99 96.1172C1040.15 96.1172 1039.5 95.8125 1039.05 95.2031C1038.6 94.5898 1038.37 93.6992 1038.36 92.5312V91.002C1038.36 89.8027 1038.58 88.8945 1039.03 88.2773C1039.47 87.6602 1040.12 87.3516 1040.98 87.3516C1041.82 87.3516 1042.47 87.6504 1042.91 88.248C1043.36 88.8418 1043.59 89.7188 1043.6 90.8789V92.4434ZM1042.9 90.9141C1042.9 89.9375 1042.74 89.1992 1042.42 88.6992C1042.1 88.1992 1041.62 87.9492 1040.98 87.9492C1040.35 87.9492 1039.87 88.1934 1039.55 88.6816C1039.23 89.1699 1039.06 89.8906 1039.06 90.8438V92.5195C1039.06 93.4922 1039.22 94.2363 1039.55 94.752C1039.88 95.2676 1040.36 95.5254 1040.99 95.5254C1041.62 95.5254 1042.09 95.2734 1042.41 94.7695C1042.73 94.2656 1042.9 93.5273 1042.9 92.5547V90.9141ZM1050.26 92.4434C1050.26 93.6465 1050.04 94.5605 1049.6 95.1855C1049.16 95.8066 1048.51 96.1172 1047.65 96.1172C1046.8 96.1172 1046.16 95.8125 1045.71 95.2031C1045.26 94.5898 1045.03 93.6992 1045.02 92.5312V91.002C1045.02 89.8027 1045.24 88.8945 1045.68 88.2773C1046.13 87.6602 1046.78 87.3516 1047.63 87.3516C1048.48 87.3516 1049.12 87.6504 1049.57 88.248C1050.01 88.8418 1050.24 89.7188 1050.26 90.8789V92.4434ZM1049.56 90.9141C1049.56 89.9375 1049.4 89.1992 1049.08 88.6992C1048.76 88.1992 1048.28 87.9492 1047.63 87.9492C1047 87.9492 1046.53 88.1934 1046.21 88.6816C1045.88 89.1699 1045.72 89.8906 1045.71 90.8438V92.5195C1045.71 93.4922 1045.88 94.2363 1046.21 94.752C1046.54 95.2676 1047.02 95.5254 1047.65 95.5254C1048.27 95.5254 1048.74 95.2734 1049.06 94.7695C1049.39 94.2656 1049.55 93.5273 1049.56 92.5547V90.9141Z" fill="#3C3C3B"/>
<path d="M471.146 215H465.803V214.461L468.727 211.145C469.211 210.586 469.547 210.125 469.734 209.762C469.922 209.398 470.016 209.045 470.016 208.701C470.016 208.162 469.857 207.736 469.541 207.424C469.225 207.107 468.789 206.949 468.234 206.949C467.66 206.949 467.195 207.133 466.84 207.5C466.488 207.867 466.312 208.344 466.312 208.93H465.615C465.615 208.449 465.723 208.012 465.938 207.617C466.156 207.223 466.465 206.914 466.863 206.691C467.266 206.465 467.723 206.352 468.234 206.352C469.016 206.352 469.625 206.557 470.062 206.967C470.504 207.377 470.725 207.936 470.725 208.643C470.725 209.041 470.6 209.477 470.35 209.949C470.104 210.422 469.668 211.012 469.043 211.719L466.664 214.408H471.146V215ZM477.803 215H472.459V214.461L475.383 211.145C475.867 210.586 476.203 210.125 476.391 209.762C476.578 209.398 476.672 209.045 476.672 208.701C476.672 208.162 476.514 207.736 476.197 207.424C475.881 207.107 475.445 206.949 474.891 206.949C474.316 206.949 473.852 207.133 473.496 207.5C473.145 207.867 472.969 208.344 472.969 208.93H472.271C472.271 208.449 472.379 208.012 472.594 207.617C472.812 207.223 473.121 206.914 473.52 206.691C473.922 206.465 474.379 206.352 474.891 206.352C475.672 206.352 476.281 206.557 476.719 206.967C477.16 207.377 477.381 207.936 477.381 208.643C477.381 209.041 477.256 209.477 477.006 209.949C476.76 210.422 476.324 211.012 475.699 211.719L473.32 214.408H477.803V215ZM484.26 211.443C484.26 212.646 484.039 213.561 483.598 214.186C483.156 214.807 482.506 215.117 481.646 215.117C480.803 215.117 480.156 214.812 479.707 214.203C479.258 213.59 479.027 212.699 479.016 211.531V210.002C479.016 208.803 479.238 207.895 479.684 207.277C480.129 206.66 480.779 206.352 481.635 206.352C482.479 206.352 483.123 206.65 483.568 207.248C484.014 207.842 484.244 208.719 484.26 209.879V211.443ZM483.557 209.914C483.557 208.938 483.396 208.199 483.076 207.699C482.76 207.199 482.279 206.949 481.635 206.949C481.002 206.949 480.525 207.193 480.205 207.682C479.885 208.17 479.721 208.891 479.713 209.844V211.52C479.713 212.492 479.877 213.236 480.205 213.752C480.537 214.268 481.018 214.525 481.646 214.525C482.271 214.525 482.744 214.273 483.064 213.77C483.389 213.266 483.553 212.527 483.557 211.555V209.914Z" fill="#3C3C3B"/>
<path d="M556.146 226H550.803V225.461L553.727 222.145C554.211 221.586 554.547 221.125 554.734 220.762C554.922 220.398 555.016 220.045 555.016 219.701C555.016 219.162 554.857 218.736 554.541 218.424C554.225 218.107 553.789 217.949 553.234 217.949C552.66 217.949 552.195 218.133 551.84 218.5C551.488 218.867 551.312 219.344 551.312 219.93H550.615C550.615 219.449 550.723 219.012 550.938 218.617C551.156 218.223 551.465 217.914 551.863 217.691C552.266 217.465 552.723 217.352 553.234 217.352C554.016 217.352 554.625 217.557 555.062 217.967C555.504 218.377 555.725 218.936 555.725 219.643C555.725 220.041 555.6 220.477 555.35 220.949C555.104 221.422 554.668 222.012 554.043 222.719L551.664 225.408H556.146V226ZM560.723 226H560.02V218.312L557.699 219.174V218.518L560.605 217.439H560.723V226ZM569.143 219.666C569.143 220.107 569.014 220.504 568.756 220.855C568.498 221.203 568.158 221.459 567.736 221.623C568.229 221.791 568.623 222.062 568.92 222.438C569.217 222.812 569.365 223.246 569.365 223.738C569.365 224.469 569.117 225.049 568.621 225.479C568.125 225.904 567.469 226.117 566.652 226.117C565.828 226.117 565.168 225.904 564.672 225.479C564.18 225.053 563.934 224.473 563.934 223.738C563.934 223.254 564.076 222.822 564.361 222.443C564.646 222.064 565.037 221.791 565.533 221.623C565.111 221.459 564.775 221.203 564.525 220.855C564.275 220.504 564.15 220.107 564.15 219.666C564.15 218.959 564.377 218.396 564.83 217.979C565.287 217.561 565.891 217.352 566.641 217.352C567.391 217.352 567.994 217.562 568.451 217.984C568.912 218.406 569.143 218.967 569.143 219.666ZM568.662 223.744C568.662 223.213 568.473 222.777 568.094 222.438C567.715 222.094 567.23 221.922 566.641 221.922C566.051 221.922 565.568 222.09 565.193 222.426C564.818 222.762 564.631 223.201 564.631 223.744C564.631 224.287 564.812 224.721 565.176 225.045C565.539 225.365 566.031 225.525 566.652 225.525C567.258 225.525 567.744 225.365 568.111 225.045C568.479 224.725 568.662 224.291 568.662 223.744ZM568.439 219.66C568.439 219.172 568.27 218.766 567.93 218.441C567.594 218.113 567.164 217.949 566.641 217.949C566.109 217.949 565.678 218.107 565.346 218.424C565.018 218.736 564.854 219.148 564.854 219.66C564.854 220.16 565.018 220.562 565.346 220.867C565.678 221.172 566.111 221.324 566.646 221.324C567.174 221.324 567.604 221.172 567.936 220.867C568.271 220.559 568.439 220.156 568.439 219.66Z" fill="#3C3C3B"/>
<path d="M655.146 213H649.803V212.461L652.727 209.145C653.211 208.586 653.547 208.125 653.734 207.762C653.922 207.398 654.016 207.045 654.016 206.701C654.016 206.162 653.857 205.736 653.541 205.424C653.225 205.107 652.789 204.949 652.234 204.949C651.66 204.949 651.195 205.133 650.84 205.5C650.488 205.867 650.312 206.344 650.312 206.93H649.615C649.615 206.449 649.723 206.012 649.938 205.617C650.156 205.223 650.465 204.914 650.863 204.691C651.266 204.465 651.723 204.352 652.234 204.352C653.016 204.352 653.625 204.557 654.062 204.967C654.504 205.377 654.725 205.936 654.725 206.643C654.725 207.041 654.6 207.477 654.35 207.949C654.104 208.422 653.668 209.012 653.043 209.719L650.664 212.408H655.146V213ZM661.803 213H656.459V212.461L659.383 209.145C659.867 208.586 660.203 208.125 660.391 207.762C660.578 207.398 660.672 207.045 660.672 206.701C660.672 206.162 660.514 205.736 660.197 205.424C659.881 205.107 659.445 204.949 658.891 204.949C658.316 204.949 657.852 205.133 657.496 205.5C657.145 205.867 656.969 206.344 656.969 206.93H656.271C656.271 206.449 656.379 206.012 656.594 205.617C656.812 205.223 657.121 204.914 657.52 204.691C657.922 204.465 658.379 204.352 658.891 204.352C659.672 204.352 660.281 204.557 660.719 204.967C661.16 205.377 661.381 205.936 661.381 206.643C661.381 207.041 661.256 207.477 661.006 207.949C660.76 208.422 660.324 209.012 659.699 209.719L657.32 212.408H661.803V213ZM668.26 209.443C668.26 210.646 668.039 211.561 667.598 212.186C667.156 212.807 666.506 213.117 665.646 213.117C664.803 213.117 664.156 212.812 663.707 212.203C663.258 211.59 663.027 210.699 663.016 209.531V208.002C663.016 206.803 663.238 205.895 663.684 205.277C664.129 204.66 664.779 204.352 665.635 204.352C666.479 204.352 667.123 204.65 667.568 205.248C668.014 205.842 668.244 206.719 668.26 207.879V209.443ZM667.557 207.914C667.557 206.938 667.396 206.199 667.076 205.699C666.76 205.199 666.279 204.949 665.635 204.949C665.002 204.949 664.525 205.193 664.205 205.682C663.885 206.17 663.721 206.891 663.713 207.844V209.52C663.713 210.492 663.877 211.236 664.205 211.752C664.537 212.268 665.018 212.525 665.646 212.525C666.271 212.525 666.744 212.273 667.064 211.77C667.389 211.266 667.553 210.527 667.557 209.555V207.914Z" fill="#3C3C3B"/>
<path d="M738.146 232H732.803V231.461L735.727 228.145C736.211 227.586 736.547 227.125 736.734 226.762C736.922 226.398 737.016 226.045 737.016 225.701C737.016 225.162 736.857 224.736 736.541 224.424C736.225 224.107 735.789 223.949 735.234 223.949C734.66 223.949 734.195 224.133 733.84 224.5C733.488 224.867 733.312 225.344 733.312 225.93H732.615C732.615 225.449 732.723 225.012 732.938 224.617C733.156 224.223 733.465 223.914 733.863 223.691C734.266 223.465 734.723 223.352 735.234 223.352C736.016 223.352 736.625 223.557 737.062 223.967C737.504 224.377 737.725 224.936 737.725 225.643C737.725 226.041 737.6 226.477 737.35 226.949C737.104 227.422 736.668 228.012 736.043 228.719L733.664 231.408H738.146V232ZM744.604 228.443C744.604 229.646 744.383 230.561 743.941 231.186C743.5 231.807 742.85 232.117 741.99 232.117C741.146 232.117 740.5 231.812 740.051 231.203C739.602 230.59 739.371 229.699 739.359 228.531V227.002C739.359 225.803 739.582 224.895 740.027 224.277C740.473 223.66 741.123 223.352 741.979 223.352C742.822 223.352 743.467 223.65 743.912 224.248C744.357 224.842 744.588 225.719 744.604 226.879V228.443ZM743.9 226.914C743.9 225.938 743.74 225.199 743.42 224.699C743.104 224.199 742.623 223.949 741.979 223.949C741.346 223.949 740.869 224.193 740.549 224.682C740.229 225.17 740.064 225.891 740.057 226.844V228.52C740.057 229.492 740.221 230.236 740.549 230.752C740.881 231.268 741.361 231.525 741.99 231.525C742.615 231.525 743.088 231.273 743.408 230.77C743.732 230.266 743.896 229.527 743.9 228.555V226.914ZM749.379 232H748.676V224.312L746.355 225.174V224.518L749.262 223.439H749.379V232Z" fill="#3C3C3B"/>
<path d="M823.146 213H817.803V212.461L820.727 209.145C821.211 208.586 821.547 208.125 821.734 207.762C821.922 207.398 822.016 207.045 822.016 206.701C822.016 206.162 821.857 205.736 821.541 205.424C821.225 205.107 820.789 204.949 820.234 204.949C819.66 204.949 819.195 205.133 818.84 205.5C818.488 205.867 818.312 206.344 818.312 206.93H817.615C817.615 206.449 817.723 206.012 817.938 205.617C818.156 205.223 818.465 204.914 818.863 204.691C819.266 204.465 819.723 204.352 820.234 204.352C821.016 204.352 821.625 204.557 822.062 204.967C822.504 205.377 822.725 205.936 822.725 206.643C822.725 207.041 822.6 207.477 822.35 207.949C822.104 208.422 821.668 209.012 821.043 209.719L818.664 212.408H823.146V213ZM827.723 213H827.02V205.312L824.699 206.174V205.518L827.605 204.439H827.723V213ZM831.59 208.629L832.006 204.469H836.271V205.119H832.609L832.311 208.002C832.768 207.689 833.303 207.533 833.916 207.533C834.686 207.533 835.299 207.783 835.756 208.283C836.213 208.783 836.441 209.449 836.441 210.281C836.441 211.18 836.219 211.877 835.773 212.373C835.328 212.869 834.701 213.117 833.893 213.117C833.15 213.117 832.549 212.91 832.088 212.496C831.627 212.082 831.363 211.502 831.297 210.756H831.971C832.037 211.338 832.234 211.779 832.562 212.08C832.891 212.377 833.334 212.525 833.893 212.525C834.502 212.525 834.961 212.332 835.27 211.945C835.582 211.559 835.738 211.008 835.738 210.293C835.738 209.668 835.564 209.158 835.217 208.764C834.869 208.369 834.395 208.172 833.793 208.172C833.461 208.172 833.172 208.215 832.926 208.301C832.68 208.383 832.42 208.545 832.146 208.787L831.59 208.629Z" fill="#3C3C3B"/>
<path d="M920.146 232H914.803V231.461L917.727 228.145C918.211 227.586 918.547 227.125 918.734 226.762C918.922 226.398 919.016 226.045 919.016 225.701C919.016 225.162 918.857 224.736 918.541 224.424C918.225 224.107 917.789 223.949 917.234 223.949C916.66 223.949 916.195 224.133 915.84 224.5C915.488 224.867 915.312 225.344 915.312 225.93H914.615C914.615 225.449 914.723 225.012 914.938 224.617C915.156 224.223 915.465 223.914 915.863 223.691C916.266 223.465 916.723 223.352 917.234 223.352C918.016 223.352 918.625 223.557 919.062 223.967C919.504 224.377 919.725 224.936 919.725 225.643C919.725 226.041 919.6 226.477 919.35 226.949C919.104 227.422 918.668 228.012 918.043 228.719L915.664 231.408H920.146V232ZM926.604 228.443C926.604 229.646 926.383 230.561 925.941 231.186C925.5 231.807 924.85 232.117 923.99 232.117C923.146 232.117 922.5 231.812 922.051 231.203C921.602 230.59 921.371 229.699 921.359 228.531V227.002C921.359 225.803 921.582 224.895 922.027 224.277C922.473 223.66 923.123 223.352 923.979 223.352C924.822 223.352 925.467 223.65 925.912 224.248C926.357 224.842 926.588 225.719 926.604 226.879V228.443ZM925.9 226.914C925.9 225.938 925.74 225.199 925.42 224.699C925.104 224.199 924.623 223.949 923.979 223.949C923.346 223.949 922.869 224.193 922.549 224.682C922.229 225.17 922.064 225.891 922.057 226.844V228.52C922.057 229.492 922.221 230.236 922.549 230.752C922.881 231.268 923.361 231.525 923.99 231.525C924.615 231.525 925.088 231.273 925.408 230.77C925.732 230.266 925.896 229.527 925.9 228.555V226.914ZM933.459 232H928.115V231.461L931.039 228.145C931.523 227.586 931.859 227.125 932.047 226.762C932.234 226.398 932.328 226.045 932.328 225.701C932.328 225.162 932.17 224.736 931.854 224.424C931.537 224.107 931.102 223.949 930.547 223.949C929.973 223.949 929.508 224.133 929.152 224.5C928.801 224.867 928.625 225.344 928.625 225.93H927.928C927.928 225.449 928.035 225.012 928.25 224.617C928.469 224.223 928.777 223.914 929.176 223.691C929.578 223.465 930.035 223.352 930.547 223.352C931.328 223.352 931.938 223.557 932.375 223.967C932.816 224.377 933.037 224.936 933.037 225.643C933.037 226.041 932.912 226.477 932.662 226.949C932.416 227.422 931.98 228.012 931.355 228.719L928.977 231.408H933.459V232Z" fill="#3C3C3B"/>
<path d="M1018.15 232H1012.8V231.461L1015.73 228.145C1016.21 227.586 1016.55 227.125 1016.73 226.762C1016.92 226.398 1017.02 226.045 1017.02 225.701C1017.02 225.162 1016.86 224.736 1016.54 224.424C1016.22 224.107 1015.79 223.949 1015.23 223.949C1014.66 223.949 1014.2 224.133 1013.84 224.5C1013.49 224.867 1013.31 225.344 1013.31 225.93H1012.62C1012.62 225.449 1012.72 225.012 1012.94 224.617C1013.16 224.223 1013.46 223.914 1013.86 223.691C1014.27 223.465 1014.72 223.352 1015.23 223.352C1016.02 223.352 1016.62 223.557 1017.06 223.967C1017.5 224.377 1017.72 224.936 1017.72 225.643C1017.72 226.041 1017.6 226.477 1017.35 226.949C1017.1 227.422 1016.67 228.012 1016.04 228.719L1013.66 231.408H1018.15V232ZM1024.6 228.443C1024.6 229.646 1024.38 230.561 1023.94 231.186C1023.5 231.807 1022.85 232.117 1021.99 232.117C1021.15 232.117 1020.5 231.812 1020.05 231.203C1019.6 230.59 1019.37 229.699 1019.36 228.531V227.002C1019.36 225.803 1019.58 224.895 1020.03 224.277C1020.47 223.66 1021.12 223.352 1021.98 223.352C1022.82 223.352 1023.47 223.65 1023.91 224.248C1024.36 224.842 1024.59 225.719 1024.6 226.879V228.443ZM1023.9 226.914C1023.9 225.938 1023.74 225.199 1023.42 224.699C1023.1 224.199 1022.62 223.949 1021.98 223.949C1021.35 223.949 1020.87 224.193 1020.55 224.682C1020.23 225.17 1020.06 225.891 1020.06 226.844V228.52C1020.06 229.492 1020.22 230.236 1020.55 230.752C1020.88 231.268 1021.36 231.525 1021.99 231.525C1022.62 231.525 1023.09 231.273 1023.41 230.77C1023.73 230.266 1023.9 229.527 1023.9 228.555V226.914ZM1031.46 232H1026.12V231.461L1029.04 228.145C1029.52 227.586 1029.86 227.125 1030.05 226.762C1030.23 226.398 1030.33 226.045 1030.33 225.701C1030.33 225.162 1030.17 224.736 1029.85 224.424C1029.54 224.107 1029.1 223.949 1028.55 223.949C1027.97 223.949 1027.51 224.133 1027.15 224.5C1026.8 224.867 1026.62 225.344 1026.62 225.93H1025.93C1025.93 225.449 1026.04 225.012 1026.25 224.617C1026.47 224.223 1026.78 223.914 1027.18 223.691C1027.58 223.465 1028.04 223.352 1028.55 223.352C1029.33 223.352 1029.94 223.557 1030.38 223.967C1030.82 224.377 1031.04 224.936 1031.04 225.643C1031.04 226.041 1030.91 226.477 1030.66 226.949C1030.42 227.422 1029.98 228.012 1029.36 228.719L1026.98 231.408H1031.46V232Z" fill="#3C3C3B"/>
<path d="M575.146 212H569.803V211.461L572.727 208.145C573.211 207.586 573.547 207.125 573.734 206.762C573.922 206.398 574.016 206.045 574.016 205.701C574.016 205.162 573.857 204.736 573.541 204.424C573.225 204.107 572.789 203.949 572.234 203.949C571.66 203.949 571.195 204.133 570.84 204.5C570.488 204.867 570.312 205.344 570.312 205.93H569.615C569.615 205.449 569.723 205.012 569.938 204.617C570.156 204.223 570.465 203.914 570.863 203.691C571.266 203.465 571.723 203.352 572.234 203.352C573.016 203.352 573.625 203.557 574.062 203.967C574.504 204.377 574.725 204.936 574.725 205.643C574.725 206.041 574.6 206.477 574.35 206.949C574.104 207.422 573.668 208.012 573.043 208.719L570.664 211.408H575.146V212ZM581.803 212H576.459V211.461L579.383 208.145C579.867 207.586 580.203 207.125 580.391 206.762C580.578 206.398 580.672 206.045 580.672 205.701C580.672 205.162 580.514 204.736 580.197 204.424C579.881 204.107 579.445 203.949 578.891 203.949C578.316 203.949 577.852 204.133 577.496 204.5C577.145 204.867 576.969 205.344 576.969 205.93H576.271C576.271 205.449 576.379 205.012 576.594 204.617C576.812 204.223 577.121 203.914 577.52 203.691C577.922 203.465 578.379 203.352 578.891 203.352C579.672 203.352 580.281 203.557 580.719 203.967C581.16 204.377 581.381 204.936 581.381 205.643C581.381 206.041 581.256 206.477 581.006 206.949C580.76 207.422 580.324 208.012 579.699 208.719L577.32 211.408H581.803V212ZM588.26 208.443C588.26 209.646 588.039 210.561 587.598 211.186C587.156 211.807 586.506 212.117 585.646 212.117C584.803 212.117 584.156 211.812 583.707 211.203C583.258 210.59 583.027 209.699 583.016 208.531V207.002C583.016 205.803 583.238 204.895 583.684 204.277C584.129 203.66 584.779 203.352 585.635 203.352C586.479 203.352 587.123 203.65 587.568 204.248C588.014 204.842 588.244 205.719 588.26 206.879V208.443ZM587.557 206.914C587.557 205.938 587.396 205.199 587.076 204.699C586.76 204.199 586.279 203.949 585.635 203.949C585.002 203.949 584.525 204.193 584.205 204.682C583.885 205.17 583.721 205.891 583.713 206.844V208.52C583.713 209.492 583.877 210.236 584.205 210.752C584.537 211.268 585.018 211.525 585.646 211.525C586.271 211.525 586.744 211.273 587.064 210.77C587.389 210.266 587.553 209.527 587.557 208.555V206.914Z" fill="#3C3C3B"/>
<path d="M405.066 376H404.363V368.312L402.043 369.174V368.518L404.949 367.439H405.066V376ZM413.604 372.443C413.604 373.646 413.383 374.561 412.941 375.186C412.5 375.807 411.85 376.117 410.99 376.117C410.146 376.117 409.5 375.812 409.051 375.203C408.602 374.59 408.371 373.699 408.359 372.531V371.002C408.359 369.803 408.582 368.895 409.027 368.277C409.473 367.66 410.123 367.352 410.979 367.352C411.822 367.352 412.467 367.65 412.912 368.248C413.357 368.842 413.588 369.719 413.604 370.879V372.443ZM412.9 370.914C412.9 369.938 412.74 369.199 412.42 368.699C412.104 368.199 411.623 367.949 410.979 367.949C410.346 367.949 409.869 368.193 409.549 368.682C409.229 369.17 409.064 369.891 409.057 370.844V372.52C409.057 373.492 409.221 374.236 409.549 374.752C409.881 375.268 410.361 375.525 410.99 375.525C411.615 375.525 412.088 375.273 412.408 374.77C412.732 374.266 412.896 373.527 412.9 372.555V370.914ZM420.143 369.666C420.143 370.107 420.014 370.504 419.756 370.855C419.498 371.203 419.158 371.459 418.736 371.623C419.229 371.791 419.623 372.062 419.92 372.438C420.217 372.812 420.365 373.246 420.365 373.738C420.365 374.469 420.117 375.049 419.621 375.479C419.125 375.904 418.469 376.117 417.652 376.117C416.828 376.117 416.168 375.904 415.672 375.479C415.18 375.053 414.934 374.473 414.934 373.738C414.934 373.254 415.076 372.822 415.361 372.443C415.646 372.064 416.037 371.791 416.533 371.623C416.111 371.459 415.775 371.203 415.525 370.855C415.275 370.504 415.15 370.107 415.15 369.666C415.15 368.959 415.377 368.396 415.83 367.979C416.287 367.561 416.891 367.352 417.641 367.352C418.391 367.352 418.994 367.562 419.451 367.984C419.912 368.406 420.143 368.967 420.143 369.666ZM419.662 373.744C419.662 373.213 419.473 372.777 419.094 372.438C418.715 372.094 418.23 371.922 417.641 371.922C417.051 371.922 416.568 372.09 416.193 372.426C415.818 372.762 415.631 373.201 415.631 373.744C415.631 374.287 415.812 374.721 416.176 375.045C416.539 375.365 417.031 375.525 417.652 375.525C418.258 375.525 418.744 375.365 419.111 375.045C419.479 374.725 419.662 374.291 419.662 373.744ZM419.439 369.66C419.439 369.172 419.27 368.766 418.93 368.441C418.594 368.113 418.164 367.949 417.641 367.949C417.109 367.949 416.678 368.107 416.346 368.424C416.018 368.736 415.854 369.148 415.854 369.66C415.854 370.16 416.018 370.562 416.346 370.867C416.678 371.172 417.111 371.324 417.646 371.324C418.174 371.324 418.604 371.172 418.936 370.867C419.271 370.559 419.439 370.156 419.439 369.66Z" fill="#3C3C3B"/>
<path d="M358.361 74.3535H359.088C359.49 74.3535 359.842 74.2832 360.143 74.1426C360.443 73.998 360.672 73.8027 360.828 73.5566C360.988 73.3066 361.068 73.0195 361.068 72.6953C361.068 72.1484 360.914 71.7207 360.605 71.4121C360.297 71.1035 359.854 70.9492 359.275 70.9492C358.729 70.9492 358.279 71.1113 357.928 71.4355C357.58 71.7559 357.406 72.1797 357.406 72.707H356.703C356.703 72.2656 356.814 71.8633 357.037 71.5C357.26 71.1328 357.568 70.8496 357.963 70.6504C358.357 70.4512 358.795 70.3516 359.275 70.3516C360.049 70.3516 360.658 70.5625 361.104 70.9844C361.549 71.4062 361.771 71.9844 361.771 72.7188C361.771 73.1289 361.641 73.5078 361.379 73.8555C361.121 74.1992 360.766 74.457 360.312 74.6289C360.844 74.7773 361.246 75.0332 361.52 75.3965C361.793 75.7559 361.93 76.1855 361.93 76.6855C361.93 77.416 361.691 78.0039 361.215 78.4492C360.738 78.8945 360.102 79.1172 359.305 79.1172C358.797 79.1172 358.33 79.0156 357.904 78.8125C357.482 78.6094 357.154 78.3262 356.92 77.9629C356.689 77.5957 356.574 77.1699 356.574 76.6855H357.277C357.277 77.2285 357.467 77.6719 357.846 78.0156C358.225 78.3555 358.711 78.5254 359.305 78.5254C359.91 78.5254 360.381 78.3711 360.717 78.0625C361.057 77.75 361.227 77.2988 361.227 76.709C361.227 76.1387 361.043 75.7031 360.676 75.4023C360.312 75.1016 359.775 74.9512 359.064 74.9512H358.361V74.3535ZM366.723 79H366.02V71.3125L363.699 72.1738V71.5176L366.605 70.4395H366.723V79ZM375.26 75.4434C375.26 76.6465 375.039 77.5605 374.598 78.1855C374.156 78.8066 373.506 79.1172 372.646 79.1172C371.803 79.1172 371.156 78.8125 370.707 78.2031C370.258 77.5898 370.027 76.6992 370.016 75.5312V74.002C370.016 72.8027 370.238 71.8945 370.684 71.2773C371.129 70.6602 371.779 70.3516 372.635 70.3516C373.479 70.3516 374.123 70.6504 374.568 71.248C375.014 71.8418 375.244 72.7188 375.26 73.8789V75.4434ZM374.557 73.9141C374.557 72.9375 374.396 72.1992 374.076 71.6992C373.76 71.1992 373.279 70.9492 372.635 70.9492C372.002 70.9492 371.525 71.1934 371.205 71.6816C370.885 72.1699 370.721 72.8906 370.713 73.8438V75.5195C370.713 76.4922 370.877 77.2363 371.205 77.752C371.537 78.2676 372.018 78.5254 372.646 78.5254C373.271 78.5254 373.744 78.2734 374.064 77.7695C374.389 77.2656 374.553 76.5273 374.557 75.5547V73.9141Z" fill="#3C3C3B"/>
<path d="M197.361 82.3535H198.088C198.49 82.3535 198.842 82.2832 199.143 82.1426C199.443 81.998 199.672 81.8027 199.828 81.5566C199.988 81.3066 200.068 81.0195 200.068 80.6953C200.068 80.1484 199.914 79.7207 199.605 79.4121C199.297 79.1035 198.854 78.9492 198.275 78.9492C197.729 78.9492 197.279 79.1113 196.928 79.4355C196.58 79.7559 196.406 80.1797 196.406 80.707H195.703C195.703 80.2656 195.814 79.8633 196.037 79.5C196.26 79.1328 196.568 78.8496 196.963 78.6504C197.357 78.4512 197.795 78.3516 198.275 78.3516C199.049 78.3516 199.658 78.5625 200.104 78.9844C200.549 79.4062 200.771 79.9844 200.771 80.7188C200.771 81.1289 200.641 81.5078 200.379 81.8555C200.121 82.1992 199.766 82.457 199.312 82.6289C199.844 82.7773 200.246 83.0332 200.52 83.3965C200.793 83.7559 200.93 84.1855 200.93 84.6855C200.93 85.416 200.691 86.0039 200.215 86.4492C199.738 86.8945 199.102 87.1172 198.305 87.1172C197.797 87.1172 197.33 87.0156 196.904 86.8125C196.482 86.6094 196.154 86.3262 195.92 85.9629C195.689 85.5957 195.574 85.1699 195.574 84.6855H196.277C196.277 85.2285 196.467 85.6719 196.846 86.0156C197.225 86.3555 197.711 86.5254 198.305 86.5254C198.91 86.5254 199.381 86.3711 199.717 86.0625C200.057 85.75 200.227 85.2988 200.227 84.709C200.227 84.1387 200.043 83.7031 199.676 83.4023C199.312 83.1016 198.775 82.9512 198.064 82.9512H197.361V82.3535ZM207.604 83.4434C207.604 84.6465 207.383 85.5605 206.941 86.1855C206.5 86.8066 205.85 87.1172 204.99 87.1172C204.146 87.1172 203.5 86.8125 203.051 86.2031C202.602 85.5898 202.371 84.6992 202.359 83.5312V82.002C202.359 80.8027 202.582 79.8945 203.027 79.2773C203.473 78.6602 204.123 78.3516 204.979 78.3516C205.822 78.3516 206.467 78.6504 206.912 79.248C207.357 79.8418 207.588 80.7188 207.604 81.8789V83.4434ZM206.9 81.9141C206.9 80.9375 206.74 80.1992 206.42 79.6992C206.104 79.1992 205.623 78.9492 204.979 78.9492C204.346 78.9492 203.869 79.1934 203.549 79.6816C203.229 80.1699 203.064 80.8906 203.057 81.8438V83.5195C203.057 84.4922 203.221 85.2363 203.549 85.752C203.881 86.2676 204.361 86.5254 204.99 86.5254C205.615 86.5254 206.088 86.2734 206.408 85.7695C206.732 85.2656 206.896 84.5273 206.9 83.5547V81.9141ZM209.59 82.6289L210.006 78.4688H214.271V79.1191H210.609L210.311 82.002C210.768 81.6895 211.303 81.5332 211.916 81.5332C212.686 81.5332 213.299 81.7832 213.756 82.2832C214.213 82.7832 214.441 83.4492 214.441 84.2812C214.441 85.1797 214.219 85.877 213.773 86.373C213.328 86.8691 212.701 87.1172 211.893 87.1172C211.15 87.1172 210.549 86.9102 210.088 86.4961C209.627 86.082 209.363 85.502 209.297 84.7559H209.971C210.037 85.3379 210.234 85.7793 210.562 86.0801C210.891 86.377 211.334 86.5254 211.893 86.5254C212.502 86.5254 212.961 86.332 213.27 85.9453C213.582 85.5586 213.738 85.0078 213.738 84.293C213.738 83.668 213.564 83.1582 213.217 82.7637C212.869 82.3691 212.395 82.1719 211.793 82.1719C211.461 82.1719 211.172 82.2148 210.926 82.3008C210.68 82.3828 210.42 82.5449 210.146 82.7871L209.59 82.6289Z" fill="#3C3C3B"/>
<path d="M285.146 122H279.803V121.461L282.727 118.145C283.211 117.586 283.547 117.125 283.734 116.762C283.922 116.398 284.016 116.045 284.016 115.701C284.016 115.162 283.857 114.736 283.541 114.424C283.225 114.107 282.789 113.949 282.234 113.949C281.66 113.949 281.195 114.133 280.84 114.5C280.488 114.867 280.312 115.344 280.312 115.93H279.615C279.615 115.449 279.723 115.012 279.938 114.617C280.156 114.223 280.465 113.914 280.863 113.691C281.266 113.465 281.723 113.352 282.234 113.352C283.016 113.352 283.625 113.557 284.062 113.967C284.504 114.377 284.725 114.936 284.725 115.643C284.725 116.041 284.6 116.477 284.35 116.949C284.104 117.422 283.668 118.012 283.043 118.719L280.664 121.408H285.146V122ZM291.486 115.666C291.486 116.107 291.357 116.504 291.1 116.855C290.842 117.203 290.502 117.459 290.08 117.623C290.572 117.791 290.967 118.062 291.264 118.438C291.561 118.812 291.709 119.246 291.709 119.738C291.709 120.469 291.461 121.049 290.965 121.479C290.469 121.904 289.812 122.117 288.996 122.117C288.172 122.117 287.512 121.904 287.016 121.479C286.523 121.053 286.277 120.473 286.277 119.738C286.277 119.254 286.42 118.822 286.705 118.443C286.99 118.064 287.381 117.791 287.877 117.623C287.455 117.459 287.119 117.203 286.869 116.855C286.619 116.504 286.494 116.107 286.494 115.666C286.494 114.959 286.721 114.396 287.174 113.979C287.631 113.561 288.234 113.352 288.984 113.352C289.734 113.352 290.338 113.562 290.795 113.984C291.256 114.406 291.486 114.967 291.486 115.666ZM291.006 119.744C291.006 119.213 290.816 118.777 290.438 118.438C290.059 118.094 289.574 117.922 288.984 117.922C288.395 117.922 287.912 118.09 287.537 118.426C287.162 118.762 286.975 119.201 286.975 119.744C286.975 120.287 287.156 120.721 287.52 121.045C287.883 121.365 288.375 121.525 288.996 121.525C289.602 121.525 290.088 121.365 290.455 121.045C290.822 120.725 291.006 120.291 291.006 119.744ZM290.783 115.66C290.783 115.172 290.613 114.766 290.273 114.441C289.938 114.113 289.508 113.949 288.984 113.949C288.453 113.949 288.021 114.107 287.689 114.424C287.361 114.736 287.197 115.148 287.197 115.66C287.197 116.16 287.361 116.562 287.689 116.867C288.021 117.172 288.455 117.324 288.99 117.324C289.518 117.324 289.947 117.172 290.279 116.867C290.615 116.559 290.783 116.156 290.783 115.66ZM298.26 118.443C298.26 119.646 298.039 120.561 297.598 121.186C297.156 121.807 296.506 122.117 295.646 122.117C294.803 122.117 294.156 121.812 293.707 121.203C293.258 120.59 293.027 119.699 293.016 118.531V117.002C293.016 115.803 293.238 114.895 293.684 114.277C294.129 113.66 294.779 113.352 295.635 113.352C296.479 113.352 297.123 113.65 297.568 114.248C298.014 114.842 298.244 115.719 298.26 116.879V118.443ZM297.557 116.914C297.557 115.938 297.396 115.199 297.076 114.699C296.76 114.199 296.279 113.949 295.635 113.949C295.002 113.949 294.525 114.193 294.205 114.682C293.885 115.17 293.721 115.891 293.713 116.844V118.52C293.713 119.492 293.877 120.236 294.205 120.752C294.537 121.268 295.018 121.525 295.646 121.525C296.271 121.525 296.744 121.273 297.064 120.77C297.389 120.266 297.553 119.527 297.557 118.555V116.914Z" fill="#3C3C3B"/>
</svg>
