<svg width="1088" height="553" viewBox="0 0 1088 553" fill="none" xmlns="http://www.w3.org/2000/svg">
<path d="M34.9844 536V527.469H37.9082C38.873 527.469 39.6074 527.662 40.1113 528.049C40.6152 528.436 40.8672 529.012 40.8672 529.777C40.8672 530.168 40.7617 530.52 40.5508 530.832C40.3398 531.145 40.0312 531.387 39.625 531.559C40.0859 531.684 40.4414 531.92 40.6914 532.268C40.9453 532.611 41.0723 533.025 41.0723 533.51C41.0723 534.311 40.8145 534.926 40.2988 535.355C39.7871 535.785 39.0527 536 38.0957 536H34.9844ZM36.4668 532.15V534.816H38.1133C38.5781 534.816 38.9414 534.701 39.2031 534.471C39.4648 534.24 39.5957 533.92 39.5957 533.51C39.5957 532.623 39.1426 532.17 38.2363 532.15H36.4668ZM36.4668 531.061H37.9199C38.3809 531.061 38.7402 530.957 38.998 530.75C39.2598 530.539 39.3906 530.242 39.3906 529.859C39.3906 529.438 39.2695 529.133 39.0273 528.945C38.7891 528.758 38.416 528.664 37.9082 528.664H36.4668V531.061ZM42.1504 532.771C42.1504 532.15 42.2734 531.592 42.5195 531.096C42.7656 530.596 43.1113 530.213 43.5566 529.947C44.002 529.678 44.5137 529.543 45.0918 529.543C45.9473 529.543 46.6406 529.818 47.1719 530.369C47.707 530.92 47.9961 531.65 48.0391 532.561L48.0449 532.895C48.0449 533.52 47.9238 534.078 47.6816 534.57C47.4434 535.062 47.0996 535.443 46.6504 535.713C46.2051 535.982 45.6895 536.117 45.1035 536.117C44.209 536.117 43.4922 535.82 42.9531 535.227C42.418 534.629 42.1504 533.834 42.1504 532.842V532.771ZM43.5742 532.895C43.5742 533.547 43.709 534.059 43.9785 534.43C44.248 534.797 44.623 534.98 45.1035 534.98C45.584 534.98 45.957 534.793 46.2227 534.418C46.4922 534.043 46.627 533.494 46.627 532.771C46.627 532.131 46.4883 531.623 46.2109 531.248C45.9375 530.873 45.5645 530.686 45.0918 530.686C44.627 530.686 44.2578 530.871 43.9844 531.242C43.7109 531.609 43.5742 532.16 43.5742 532.895ZM52.041 536.117C51.1387 536.117 50.4062 535.834 49.8438 535.268C49.2852 534.697 49.0059 533.939 49.0059 532.994V532.818C49.0059 532.186 49.127 531.621 49.3691 531.125C49.6152 530.625 49.959 530.236 50.4004 529.959C50.8418 529.682 51.334 529.543 51.877 529.543C52.7402 529.543 53.4062 529.818 53.875 530.369C54.3477 530.92 54.584 531.699 54.584 532.707V533.281H50.4414C50.4844 533.805 50.6582 534.219 50.9629 534.523C51.2715 534.828 51.6582 534.98 52.123 534.98C52.7754 534.98 53.3066 534.717 53.7168 534.189L54.4844 534.922C54.2305 535.301 53.8906 535.596 53.4648 535.807C53.043 536.014 52.5684 536.117 52.041 536.117ZM51.8711 530.686C51.4805 530.686 51.1641 530.822 50.9219 531.096C50.6836 531.369 50.5312 531.75 50.4648 532.238H53.1777V532.133C53.1465 531.656 53.0195 531.297 52.7969 531.055C52.5742 530.809 52.2656 530.686 51.8711 530.686ZM61.0645 536H59.6406V533.439H57.1738V536H55.75V529.66H57.1738V532.303H59.6406V529.66H61.0645V536ZM67.9551 536H66.5312V533.439H64.0645V536H62.6406V529.66H64.0645V532.303H66.5312V529.66H67.9551V536ZM73.2637 536C73.2012 535.879 73.1465 535.682 73.0996 535.408C72.6465 535.881 72.0918 536.117 71.4355 536.117C70.7988 536.117 70.2793 535.936 69.877 535.572C69.4746 535.209 69.2734 534.76 69.2734 534.225C69.2734 533.549 69.5234 533.031 70.0234 532.672C70.5273 532.309 71.2461 532.127 72.1797 532.127H73.0527V531.711C73.0527 531.383 72.9609 531.121 72.7773 530.926C72.5938 530.727 72.3145 530.627 71.9395 530.627C71.6152 530.627 71.3496 530.709 71.1426 530.873C70.9355 531.033 70.832 531.238 70.832 531.488H69.4082C69.4082 531.141 69.5234 530.816 69.7539 530.516C69.9844 530.211 70.2969 529.973 70.6914 529.801C71.0898 529.629 71.5332 529.543 72.0215 529.543C72.7637 529.543 73.3555 529.73 73.7969 530.105C74.2383 530.477 74.4648 531 74.4766 531.676V534.535C74.4766 535.105 74.5566 535.561 74.7168 535.9V536H73.2637ZM71.6992 534.975C71.9805 534.975 72.2441 534.906 72.4902 534.77C72.7402 534.633 72.9277 534.449 73.0527 534.219V533.023H72.2852C71.7578 533.023 71.3613 533.115 71.0957 533.299C70.8301 533.482 70.6973 533.742 70.6973 534.078C70.6973 534.352 70.7871 534.57 70.9668 534.734C71.1504 534.895 71.3945 534.975 71.6992 534.975ZM81.0449 529.66V536H79.627V533.674H78.2969L76.9434 536H75.4668L76.9609 533.439C76.5703 533.275 76.2695 533.041 76.0586 532.736C75.8516 532.432 75.748 532.082 75.748 531.688C75.748 531.098 75.9746 530.615 76.4277 530.24C76.8848 529.861 77.5 529.668 78.2734 529.66H81.0449ZM77.1719 531.723C77.1719 531.988 77.2695 532.205 77.4648 532.373C77.6641 532.537 77.918 532.619 78.2266 532.619H79.627V530.791H78.3145C77.9668 530.791 77.6895 530.879 77.4824 531.055C77.2754 531.23 77.1719 531.453 77.1719 531.723ZM18.0391 543.66H19.457V550H18.0391V545.77L15.5547 550H14.1367V543.66H15.5547V547.891L18.0391 543.66ZM26.3418 550H24.918V547.439H22.4512V550H21.0273V543.66H22.4512V546.303H24.918V543.66H26.3418V550ZM27.625 546.918C27.625 545.883 27.8281 545.062 28.2344 544.457C28.6445 543.848 29.2148 543.543 29.9453 543.543C30.2422 543.543 30.5117 543.598 30.7539 543.707V541H32.1719V543.73C32.4219 543.605 32.7148 543.543 33.0508 543.543C33.7773 543.543 34.3457 543.846 34.7559 544.451C35.1699 545.053 35.377 545.916 35.377 547.041C35.377 547.99 35.1699 548.74 34.7559 549.291C34.3418 549.842 33.7773 550.117 33.0625 550.117C32.7383 550.117 32.4414 550.059 32.1719 549.941V552.438H30.7539V549.965C30.5156 550.066 30.2422 550.117 29.9336 550.117C29.25 550.117 28.7031 549.865 28.293 549.361C27.8867 548.854 27.666 548.156 27.6309 547.27L27.625 546.918ZM33.9531 546.918C33.9531 546.207 33.8398 545.658 33.6133 545.271C33.3867 544.881 33.0664 544.686 32.6523 544.686C32.4766 544.686 32.3164 544.711 32.1719 544.762V548.922C32.3008 548.961 32.4648 548.98 32.6641 548.98C33.5234 548.98 33.9531 548.293 33.9531 546.918ZM29.043 547.041C29.043 547.674 29.1484 548.156 29.3594 548.488C29.5703 548.816 29.8828 548.98 30.2969 548.98C30.4727 548.98 30.625 548.961 30.7539 548.922V544.744C30.6211 544.705 30.4727 544.686 30.3086 544.686C29.9023 544.686 29.5898 544.875 29.3711 545.254C29.1523 545.629 29.043 546.225 29.043 547.041ZM42.1562 546.895C42.1562 547.875 41.9336 548.658 41.4883 549.244C41.043 549.826 40.4453 550.117 39.6953 550.117C39 550.117 38.4434 549.889 38.0254 549.432V552.438H36.6016V543.66H37.9141L37.9727 544.305C38.3906 543.797 38.959 543.543 39.6777 543.543C40.4512 543.543 41.0566 543.832 41.4941 544.41C41.9355 544.984 42.1562 545.783 42.1562 546.807V546.895ZM40.7383 546.771C40.7383 546.139 40.6113 545.637 40.3574 545.266C40.1074 544.895 39.748 544.709 39.2793 544.709C38.6973 544.709 38.2793 544.949 38.0254 545.43V548.242C38.2832 548.734 38.7051 548.98 39.291 548.98C39.7441 548.98 40.0977 548.799 40.3516 548.436C40.6094 548.068 40.7383 547.514 40.7383 546.771ZM47.1543 550C47.0918 549.879 47.0371 549.682 46.9902 549.408C46.5371 549.881 45.9824 550.117 45.3262 550.117C44.6895 550.117 44.1699 549.936 43.7676 549.572C43.3652 549.209 43.1641 548.76 43.1641 548.225C43.1641 547.549 43.4141 547.031 43.9141 546.672C44.418 546.309 45.1367 546.127 46.0703 546.127H46.9434V545.711C46.9434 545.383 46.8516 545.121 46.668 544.926C46.4844 544.727 46.2051 544.627 45.8301 544.627C45.5059 544.627 45.2402 544.709 45.0332 544.873C44.8262 545.033 44.7227 545.238 44.7227 545.488H43.2988C43.2988 545.141 43.4141 544.816 43.6445 544.516C43.875 544.211 44.1875 543.973 44.582 543.801C44.9805 543.629 45.4238 543.543 45.9121 543.543C46.6543 543.543 47.2461 543.73 47.6875 544.105C48.1289 544.477 48.3555 545 48.3672 545.676V548.535C48.3672 549.105 48.4473 549.561 48.6074 549.9V550H47.1543ZM45.5898 548.975C45.8711 548.975 46.1348 548.906 46.3809 548.77C46.6309 548.633 46.8184 548.449 46.9434 548.219V547.023H46.1758C45.6484 547.023 45.252 547.115 44.9863 547.299C44.7207 547.482 44.5879 547.742 44.5879 548.078C44.5879 548.352 44.6777 548.57 44.8574 548.734C45.041 548.895 45.2852 548.975 45.5898 548.975ZM52.4629 548.98C52.8184 548.98 53.1133 548.877 53.3477 548.67C53.582 548.463 53.707 548.207 53.7227 547.902H55.0645C55.0488 548.297 54.9258 548.666 54.6953 549.01C54.4648 549.35 54.1523 549.619 53.7578 549.818C53.3633 550.018 52.9375 550.117 52.4805 550.117C51.5938 550.117 50.8906 549.83 50.3711 549.256C49.8516 548.682 49.5918 547.889 49.5918 546.877V546.73C49.5918 545.766 49.8496 544.994 50.3652 544.416C50.8809 543.834 51.584 543.543 52.4746 543.543C53.2285 543.543 53.8418 543.764 54.3145 544.205C54.791 544.643 55.041 545.219 55.0645 545.934H53.7227C53.707 545.57 53.582 545.271 53.3477 545.037C53.1172 544.803 52.8223 544.686 52.4629 544.686C52.002 544.686 51.6465 544.854 51.3965 545.189C51.1465 545.521 51.0195 546.027 51.0156 546.707V546.936C51.0156 547.623 51.1387 548.137 51.3848 548.477C51.6348 548.812 51.9941 548.98 52.4629 548.98ZM61.1289 544.791H59.0723V550H57.6484V544.791H55.6152V543.66H61.1289V544.791ZM67.6328 546.895C67.6328 547.875 67.4102 548.658 66.9648 549.244C66.5195 549.826 65.9219 550.117 65.1719 550.117C64.4766 550.117 63.9199 549.889 63.502 549.432V552.438H62.0781V543.66H63.3906L63.4492 544.305C63.8672 543.797 64.4355 543.543 65.1543 543.543C65.9277 543.543 66.5332 543.832 66.9707 544.41C67.4121 544.984 67.6328 545.783 67.6328 546.807V546.895ZM66.2148 546.771C66.2148 546.139 66.0879 545.637 65.834 545.266C65.584 544.895 65.2246 544.709 64.7559 544.709C64.1738 544.709 63.7559 544.949 63.502 545.43V548.242C63.7598 548.734 64.1816 548.98 64.7676 548.98C65.2207 548.98 65.5742 548.799 65.8281 548.436C66.0859 548.068 66.2148 547.514 66.2148 546.771ZM70.9902 547.961L72.2793 543.66H73.7969L71.2773 550.961C70.8906 552.027 70.2344 552.561 69.3086 552.561C69.1016 552.561 68.873 552.525 68.623 552.455V551.354L68.8926 551.371C69.252 551.371 69.5215 551.305 69.7012 551.172C69.8848 551.043 70.0293 550.824 70.1348 550.516L70.3398 549.971L68.1133 543.66H69.6484L70.9902 547.961ZM76.873 547.492H76.1523V550H74.7285V543.66H76.1523V546.191H76.7793L78.5312 543.66H80.2891L77.998 546.695L80.4824 550H78.6309L76.873 547.492ZM86.2539 544.791H84.1973V550H82.7734V544.791H80.7402V543.66H86.2539V544.791ZM89.4941 547.961L90.7832 543.66H92.3008L89.7812 550.961C89.3945 552.027 88.7383 552.561 87.8125 552.561C87.6055 552.561 87.377 552.525 87.127 552.455V551.354L87.3965 551.371C87.7559 551.371 88.0254 551.305 88.2051 551.172C88.3887 551.043 88.5332 550.824 88.6387 550.516L88.8438 549.971L86.6172 543.66H88.1523L89.4941 547.961ZM98.6758 546.895C98.6758 547.875 98.4531 548.658 98.0078 549.244C97.5625 549.826 96.9648 550.117 96.2148 550.117C95.5195 550.117 94.9629 549.889 94.5449 549.432V552.438H93.1211V543.66H94.4336L94.4922 544.305C94.9102 543.797 95.4785 543.543 96.1973 543.543C96.9707 543.543 97.5762 543.832 98.0137 544.41C98.4551 544.984 98.6758 545.783 98.6758 546.807V546.895ZM97.2578 546.771C97.2578 546.139 97.1309 545.637 96.877 545.266C96.627 544.895 96.2676 544.709 95.7988 544.709C95.2168 544.709 94.7988 544.949 94.5449 545.43V548.242C94.8027 548.734 95.2246 548.98 95.8105 548.98C96.2637 548.98 96.6172 548.799 96.8711 548.436C97.1289 548.068 97.2578 547.514 97.2578 546.771ZM103.674 550C103.611 549.879 103.557 549.682 103.51 549.408C103.057 549.881 102.502 550.117 101.846 550.117C101.209 550.117 100.689 549.936 100.287 549.572C99.8848 549.209 99.6836 548.76 99.6836 548.225C99.6836 547.549 99.9336 547.031 100.434 546.672C100.938 546.309 101.656 546.127 102.59 546.127H103.463V545.711C103.463 545.383 103.371 545.121 103.188 544.926C103.004 544.727 102.725 544.627 102.35 544.627C102.025 544.627 101.76 544.709 101.553 544.873C101.346 545.033 101.242 545.238 101.242 545.488H99.8184C99.8184 545.141 99.9336 544.816 100.164 544.516C100.395 544.211 100.707 543.973 101.102 543.801C101.5 543.629 101.943 543.543 102.432 543.543C103.174 543.543 103.766 543.73 104.207 544.105C104.648 544.477 104.875 545 104.887 545.676V548.535C104.887 549.105 104.967 549.561 105.127 549.9V550H103.674ZM102.109 548.975C102.391 548.975 102.654 548.906 102.9 548.77C103.15 548.633 103.338 548.449 103.463 548.219V547.023H102.695C102.168 547.023 101.771 547.115 101.506 547.299C101.24 547.482 101.107 547.742 101.107 548.078C101.107 548.352 101.197 548.57 101.377 548.734C101.561 548.895 101.805 548.975 102.109 548.975Z" fill="#3C3C3B"/>
<path d="M222.496 527.469V536H221.02V528.664H218.406L218.254 531.963C218.195 532.994 218.068 533.795 217.873 534.365C217.682 534.932 217.402 535.346 217.035 535.607C216.668 535.869 216.176 536 215.559 536H215.184V534.816L215.418 534.799C215.758 534.768 216.02 534.648 216.203 534.441C216.391 534.234 216.531 533.922 216.625 533.504C216.723 533.082 216.791 532.463 216.83 531.646L216.994 527.469H222.496ZM223.879 532.771C223.879 532.15 224.002 531.592 224.248 531.096C224.494 530.596 224.84 530.213 225.285 529.947C225.73 529.678 226.242 529.543 226.82 529.543C227.676 529.543 228.369 529.818 228.9 530.369C229.436 530.92 229.725 531.65 229.768 532.561L229.773 532.895C229.773 533.52 229.652 534.078 229.41 534.57C229.172 535.062 228.828 535.443 228.379 535.713C227.934 535.982 227.418 536.117 226.832 536.117C225.938 536.117 225.221 535.82 224.682 535.227C224.146 534.629 223.879 533.834 223.879 532.842V532.771ZM225.303 532.895C225.303 533.547 225.438 534.059 225.707 534.43C225.977 534.797 226.352 534.98 226.832 534.98C227.312 534.98 227.686 534.793 227.951 534.418C228.221 534.043 228.355 533.494 228.355 532.771C228.355 532.131 228.217 531.623 227.939 531.248C227.666 530.873 227.293 530.686 226.82 530.686C226.355 530.686 225.986 530.871 225.713 531.242C225.439 531.609 225.303 532.16 225.303 532.895ZM235.199 530.809H232.445V536H231.027V529.66H235.199V530.809ZM239.963 529.66H241.381V536H239.963V531.77L237.479 536H236.061V529.66H237.479V533.891L239.963 529.66ZM245.5 534.98C245.855 534.98 246.15 534.877 246.385 534.67C246.619 534.463 246.744 534.207 246.76 533.902H248.102C248.086 534.297 247.963 534.666 247.732 535.01C247.502 535.35 247.189 535.619 246.795 535.818C246.4 536.018 245.975 536.117 245.518 536.117C244.631 536.117 243.928 535.83 243.408 535.256C242.889 534.682 242.629 533.889 242.629 532.877V532.73C242.629 531.766 242.887 530.994 243.402 530.416C243.918 529.834 244.621 529.543 245.512 529.543C246.266 529.543 246.879 529.764 247.352 530.205C247.828 530.643 248.078 531.219 248.102 531.934H246.76C246.744 531.57 246.619 531.271 246.385 531.037C246.154 530.803 245.859 530.686 245.5 530.686C245.039 530.686 244.684 530.854 244.434 531.189C244.184 531.521 244.057 532.027 244.053 532.707V532.936C244.053 533.623 244.176 534.137 244.422 534.477C244.672 534.812 245.031 534.98 245.5 534.98ZM254.166 530.791H252.109V536H250.686V530.791H248.652V529.66H254.166V530.791ZM259.076 529.66H260.494V536H259.076V531.77L256.592 536H255.174V529.66H256.592V533.891L259.076 529.66ZM267.092 536H265.668V533.885C265.301 533.971 264.914 534.014 264.508 534.014C263.641 534.014 262.979 533.807 262.521 533.393C262.064 532.975 261.836 532.377 261.836 531.6V529.654H263.26V531.6C263.26 532.061 263.361 532.387 263.564 532.578C263.771 532.77 264.086 532.865 264.508 532.865C264.891 532.865 265.277 532.82 265.668 532.73V529.66H267.092V536ZM271.398 536.117C270.496 536.117 269.764 535.834 269.201 535.268C268.643 534.697 268.363 533.939 268.363 532.994V532.818C268.363 532.186 268.484 531.621 268.727 531.125C268.973 530.625 269.316 530.236 269.758 529.959C270.199 529.682 270.691 529.543 271.234 529.543C272.098 529.543 272.764 529.818 273.232 530.369C273.705 530.92 273.941 531.699 273.941 532.707V533.281H269.799C269.842 533.805 270.016 534.219 270.32 534.523C270.629 534.828 271.016 534.98 271.48 534.98C272.133 534.98 272.664 534.717 273.074 534.189L273.842 534.922C273.588 535.301 273.248 535.596 272.822 535.807C272.4 536.014 271.926 536.117 271.398 536.117ZM271.229 530.686C270.838 530.686 270.521 530.822 270.279 531.096C270.041 531.369 269.889 531.75 269.822 532.238H272.535V532.133C272.504 531.656 272.377 531.297 272.154 531.055C271.932 530.809 271.623 530.686 271.229 530.686ZM277.656 534.98C278.012 534.98 278.307 534.877 278.541 534.67C278.775 534.463 278.9 534.207 278.916 533.902H280.258C280.242 534.297 280.119 534.666 279.889 535.01C279.658 535.35 279.346 535.619 278.951 535.818C278.557 536.018 278.131 536.117 277.674 536.117C276.787 536.117 276.084 535.83 275.564 535.256C275.045 534.682 274.785 533.889 274.785 532.877V532.73C274.785 531.766 275.043 530.994 275.559 530.416C276.074 529.834 276.777 529.543 277.668 529.543C278.422 529.543 279.035 529.764 279.508 530.205C279.984 530.643 280.234 531.219 280.258 531.934H278.916C278.9 531.57 278.775 531.271 278.541 531.037C278.311 530.803 278.016 530.686 277.656 530.686C277.195 530.686 276.84 530.854 276.59 531.189C276.34 531.521 276.213 532.027 276.209 532.707V532.936C276.209 533.623 276.332 534.137 276.578 534.477C276.828 534.812 277.188 534.98 277.656 534.98ZM283.586 533.492H282.865V536H281.441V529.66H282.865V532.191H283.492L285.244 529.66H287.002L284.711 532.695L287.195 536H285.344L283.586 533.492ZM291.936 529.66H293.354V536H291.936V531.77L289.451 536H288.033V529.66H289.451V533.891L291.936 529.66ZM297.66 536.117C296.758 536.117 296.025 535.834 295.463 535.268C294.904 534.697 294.625 533.939 294.625 532.994V532.818C294.625 532.186 294.746 531.621 294.988 531.125C295.234 530.625 295.578 530.236 296.02 529.959C296.461 529.682 296.953 529.543 297.496 529.543C298.359 529.543 299.025 529.818 299.494 530.369C299.967 530.92 300.203 531.699 300.203 532.707V533.281H296.061C296.104 533.805 296.277 534.219 296.582 534.523C296.891 534.828 297.277 534.98 297.742 534.98C298.395 534.98 298.926 534.717 299.336 534.189L300.104 534.922C299.85 535.301 299.51 535.596 299.084 535.807C298.662 536.014 298.188 536.117 297.66 536.117ZM297.49 530.686C297.1 530.686 296.783 530.822 296.541 531.096C296.303 531.369 296.15 531.75 296.084 532.238H298.797V532.133C298.766 531.656 298.639 531.297 298.416 531.055C298.193 530.809 297.885 530.686 297.49 530.686ZM309.104 531.395C309.104 531.676 309.018 531.936 308.846 532.174C308.678 532.408 308.439 532.596 308.131 532.736C308.857 532.99 309.221 533.48 309.221 534.207C309.221 534.789 308.984 535.254 308.512 535.602C308.039 535.945 307.406 536.117 306.613 536.117C306.129 536.117 305.688 536.037 305.289 535.877C304.891 535.713 304.58 535.482 304.357 535.186C304.135 534.885 304.023 534.529 304.023 534.119H305.441C305.441 534.377 305.557 534.594 305.787 534.77C306.018 534.941 306.309 535.027 306.66 535.027C307.008 535.027 307.283 534.947 307.486 534.787C307.693 534.623 307.797 534.41 307.797 534.148C307.797 533.84 307.707 533.617 307.527 533.48C307.348 533.344 307.07 533.275 306.695 533.275H305.676V532.25H306.73C307.367 532.242 307.686 531.98 307.686 531.465C307.686 531.207 307.594 531.006 307.41 530.861C307.227 530.717 306.975 530.645 306.654 530.645C306.342 530.645 306.078 530.723 305.863 530.879C305.648 531.031 305.541 531.225 305.541 531.459H304.123C304.123 530.9 304.357 530.443 304.826 530.088C305.295 529.729 305.891 529.549 306.613 529.549C307.398 529.549 308.01 529.709 308.447 530.029C308.885 530.35 309.104 530.805 309.104 531.395ZM310.164 532.771C310.164 532.15 310.287 531.592 310.533 531.096C310.779 530.596 311.125 530.213 311.57 529.947C312.016 529.678 312.527 529.543 313.105 529.543C313.961 529.543 314.654 529.818 315.186 530.369C315.721 530.92 316.01 531.65 316.053 532.561L316.059 532.895C316.059 533.52 315.938 534.078 315.695 534.57C315.457 535.062 315.113 535.443 314.664 535.713C314.219 535.982 313.703 536.117 313.117 536.117C312.223 536.117 311.506 535.82 310.967 535.227C310.432 534.629 310.164 533.834 310.164 532.842V532.771ZM311.588 532.895C311.588 533.547 311.723 534.059 311.992 534.43C312.262 534.797 312.637 534.98 313.117 534.98C313.598 534.98 313.971 534.793 314.236 534.418C314.506 534.043 314.641 533.494 314.641 532.771C314.641 532.131 314.502 531.623 314.225 531.248C313.951 530.873 313.578 530.686 313.105 530.686C312.641 530.686 312.271 530.871 311.998 531.242C311.725 531.609 311.588 532.16 311.588 532.895ZM322.633 536H321.209V533.439H318.742V536H317.318V529.66H318.742V532.303H321.209V529.66H322.633V536ZM325.686 531.676H327.08C327.6 531.676 328.053 531.766 328.439 531.945C328.826 532.125 329.119 532.377 329.318 532.701C329.521 533.025 329.623 533.402 329.623 533.832C329.623 534.484 329.393 535.008 328.932 535.402C328.471 535.797 327.857 535.996 327.092 536H324.262V529.66H325.686V531.676ZM332.102 536H330.678V529.66H332.102V536ZM325.686 532.818V534.863H327.074C327.422 534.863 327.695 534.777 327.895 534.605C328.098 534.43 328.199 534.182 328.199 533.861C328.199 533.541 328.1 533.289 327.9 533.105C327.705 532.918 327.439 532.822 327.104 532.818H325.686Z" fill="#3C3C3B"/>
<path d="M450.072 531.957C450.072 532.793 449.928 533.527 449.639 534.16C449.35 534.789 448.936 535.273 448.396 535.613C447.861 535.949 447.244 536.117 446.545 536.117C445.854 536.117 445.236 535.949 444.693 535.613C444.154 535.273 443.736 534.791 443.439 534.166C443.146 533.541 442.998 532.82 442.994 532.004V531.523C442.994 530.691 443.141 529.957 443.434 529.32C443.73 528.684 444.146 528.197 444.682 527.861C445.221 527.521 445.838 527.352 446.533 527.352C447.229 527.352 447.844 527.52 448.379 527.855C448.918 528.188 449.334 528.668 449.627 529.297C449.92 529.922 450.068 530.65 450.072 531.482V531.957ZM448.59 531.512C448.59 530.566 448.41 529.842 448.051 529.338C447.695 528.834 447.189 528.582 446.533 528.582C445.893 528.582 445.391 528.834 445.027 529.338C444.668 529.838 444.484 530.547 444.477 531.465V531.957C444.477 532.895 444.658 533.619 445.021 534.131C445.389 534.643 445.896 534.898 446.545 534.898C447.201 534.898 447.705 534.648 448.057 534.148C448.412 533.648 448.59 532.918 448.59 531.957V531.512ZM454.396 530.012C455.193 530.012 455.832 530.279 456.312 530.814C456.793 531.346 457.033 532.068 457.033 532.982V533.053C457.033 533.967 456.771 534.707 456.248 535.273C455.729 535.84 455.021 536.123 454.127 536.123C453.256 536.123 452.553 535.834 452.018 535.256C451.482 534.678 451.215 533.889 451.215 532.889V532.479C451.215 531.111 451.457 530.029 451.941 529.232C452.426 528.436 453.148 527.938 454.109 527.738C454.648 527.629 454.996 527.514 455.152 527.393C455.312 527.268 455.393 527.1 455.393 526.889H456.541C456.541 527.283 456.477 527.604 456.348 527.85C456.219 528.096 456.021 528.297 455.756 528.453C455.49 528.605 455.033 528.75 454.385 528.887C453.791 529.012 453.338 529.234 453.025 529.555C452.717 529.875 452.51 530.318 452.404 530.885C452.971 530.303 453.635 530.012 454.396 530.012ZM454.115 531.154C453.654 531.154 453.293 531.311 453.031 531.623C452.77 531.932 452.639 532.408 452.639 533.053C452.639 533.662 452.768 534.137 453.025 534.477C453.283 534.816 453.65 534.986 454.127 534.986C454.6 534.986 454.965 534.816 455.223 534.477C455.484 534.133 455.615 533.617 455.615 532.93C455.615 532.383 455.484 531.951 455.223 531.635C454.965 531.314 454.596 531.154 454.115 531.154ZM460.854 531.676H462.248C462.768 531.676 463.221 531.766 463.607 531.945C463.994 532.125 464.287 532.377 464.486 532.701C464.689 533.025 464.791 533.402 464.791 533.832C464.791 534.484 464.561 535.008 464.1 535.402C463.639 535.797 463.025 535.996 462.26 536H459.43V530.809H457.602V529.66H460.854V531.676ZM460.854 532.818V534.863H462.242C462.59 534.863 462.863 534.777 463.062 534.605C463.266 534.43 463.367 534.182 463.367 533.861C463.367 533.541 463.268 533.289 463.068 533.105C462.873 532.918 462.607 532.822 462.271 532.818H460.854ZM468.582 536.117C467.68 536.117 466.947 535.834 466.385 535.268C465.826 534.697 465.547 533.939 465.547 532.994V532.818C465.547 532.186 465.668 531.621 465.91 531.125C466.156 530.625 466.5 530.236 466.941 529.959C467.383 529.682 467.875 529.543 468.418 529.543C469.281 529.543 469.947 529.818 470.416 530.369C470.889 530.92 471.125 531.699 471.125 532.707V533.281H466.982C467.025 533.805 467.199 534.219 467.504 534.523C467.812 534.828 468.199 534.98 468.664 534.98C469.316 534.98 469.848 534.717 470.258 534.189L471.025 534.922C470.771 535.301 470.432 535.596 470.006 535.807C469.584 536.014 469.109 536.117 468.582 536.117ZM468.412 530.686C468.021 530.686 467.705 530.822 467.463 531.096C467.225 531.369 467.072 531.75 467.006 532.238H469.719V532.133C469.688 531.656 469.561 531.297 469.338 531.055C469.115 530.809 468.807 530.686 468.412 530.686ZM474.488 533.492H473.768V536H472.344V529.66H473.768V532.191H474.395L476.146 529.66H477.904L475.613 532.695L478.098 536H476.246L474.488 533.492ZM483.869 530.791H481.812V536H480.389V530.791H478.355V529.66H483.869V530.791ZM486.354 531.676H487.748C488.268 531.676 488.721 531.766 489.107 531.945C489.494 532.125 489.787 532.377 489.986 532.701C490.189 533.025 490.291 533.402 490.291 533.832C490.291 534.484 490.061 535.008 489.6 535.402C489.139 535.797 488.525 535.996 487.76 536H484.93V529.66H486.354V531.676ZM492.77 536H491.346V529.66H492.77V536ZM486.354 532.818V534.863H487.742C488.09 534.863 488.363 534.777 488.562 534.605C488.766 534.43 488.867 534.182 488.867 533.861C488.867 533.541 488.768 533.289 488.568 533.105C488.373 532.918 488.107 532.822 487.771 532.818H486.354ZM497.199 532.771C497.199 532.15 497.322 531.592 497.568 531.096C497.814 530.596 498.16 530.213 498.605 529.947C499.051 529.678 499.562 529.543 500.141 529.543C500.996 529.543 501.689 529.818 502.221 530.369C502.756 530.92 503.045 531.65 503.088 532.561L503.094 532.895C503.094 533.52 502.973 534.078 502.73 534.57C502.492 535.062 502.148 535.443 501.699 535.713C501.254 535.982 500.738 536.117 500.152 536.117C499.258 536.117 498.541 535.82 498.002 535.227C497.467 534.629 497.199 533.834 497.199 532.842V532.771ZM498.623 532.895C498.623 533.547 498.758 534.059 499.027 534.43C499.297 534.797 499.672 534.98 500.152 534.98C500.633 534.98 501.006 534.793 501.271 534.418C501.541 534.043 501.676 533.494 501.676 532.771C501.676 532.131 501.537 531.623 501.26 531.248C500.986 530.873 500.613 530.686 500.141 530.686C499.676 530.686 499.307 530.871 499.033 531.242C498.76 531.609 498.623 532.16 498.623 532.895ZM507.283 530.012C508.08 530.012 508.719 530.279 509.199 530.814C509.68 531.346 509.92 532.068 509.92 532.982V533.053C509.92 533.967 509.658 534.707 509.135 535.273C508.615 535.84 507.908 536.123 507.014 536.123C506.143 536.123 505.439 535.834 504.904 535.256C504.369 534.678 504.102 533.889 504.102 532.889V532.479C504.102 531.111 504.344 530.029 504.828 529.232C505.312 528.436 506.035 527.938 506.996 527.738C507.535 527.629 507.883 527.514 508.039 527.393C508.199 527.268 508.279 527.1 508.279 526.889H509.428C509.428 527.283 509.363 527.604 509.234 527.85C509.105 528.096 508.908 528.297 508.643 528.453C508.377 528.605 507.92 528.75 507.271 528.887C506.678 529.012 506.225 529.234 505.912 529.555C505.604 529.875 505.396 530.318 505.291 530.885C505.857 530.303 506.521 530.012 507.283 530.012ZM507.002 531.154C506.541 531.154 506.18 531.311 505.918 531.623C505.656 531.932 505.525 532.408 505.525 533.053C505.525 533.662 505.654 534.137 505.912 534.477C506.17 534.816 506.537 534.986 507.014 534.986C507.486 534.986 507.852 534.816 508.109 534.477C508.371 534.133 508.502 533.617 508.502 532.93C508.502 532.383 508.371 531.951 508.109 531.635C507.852 531.314 507.482 531.154 507.002 531.154ZM516.482 532.895C516.482 533.875 516.26 534.658 515.814 535.244C515.369 535.826 514.771 536.117 514.021 536.117C513.326 536.117 512.77 535.889 512.352 535.432V538.438H510.928V529.66H512.24L512.299 530.305C512.717 529.797 513.285 529.543 514.004 529.543C514.777 529.543 515.383 529.832 515.82 530.41C516.262 530.984 516.482 531.783 516.482 532.807V532.895ZM515.064 532.771C515.064 532.139 514.938 531.637 514.684 531.266C514.434 530.895 514.074 530.709 513.605 530.709C513.023 530.709 512.605 530.949 512.352 531.43V534.242C512.609 534.734 513.031 534.98 513.617 534.98C514.07 534.98 514.424 534.799 514.678 534.436C514.936 534.068 515.064 533.514 515.064 532.771ZM521.48 536C521.418 535.879 521.363 535.682 521.316 535.408C520.863 535.881 520.309 536.117 519.652 536.117C519.016 536.117 518.496 535.936 518.094 535.572C517.691 535.209 517.49 534.76 517.49 534.225C517.49 533.549 517.74 533.031 518.24 532.672C518.744 532.309 519.463 532.127 520.396 532.127H521.27V531.711C521.27 531.383 521.178 531.121 520.994 530.926C520.811 530.727 520.531 530.627 520.156 530.627C519.832 530.627 519.566 530.709 519.359 530.873C519.152 531.033 519.049 531.238 519.049 531.488H517.625C517.625 531.141 517.74 530.816 517.971 530.516C518.201 530.211 518.514 529.973 518.908 529.801C519.307 529.629 519.75 529.543 520.238 529.543C520.98 529.543 521.572 529.73 522.014 530.105C522.455 530.477 522.682 531 522.693 531.676V534.535C522.693 535.105 522.773 535.561 522.934 535.9V536H521.48ZM519.916 534.975C520.197 534.975 520.461 534.906 520.707 534.77C520.957 534.633 521.145 534.449 521.27 534.219V533.023H520.502C519.975 533.023 519.578 533.115 519.312 533.299C519.047 533.482 518.914 533.742 518.914 534.078C518.914 534.352 519.004 534.57 519.184 534.734C519.367 534.895 519.611 534.975 519.916 534.975ZM525.617 529.66V534.863H527.598V529.66H529.021V534.863H531.008V529.66H532.426V534.863H533.51L533.393 537.881H532.098V536H524.193V529.66H525.617ZM537.254 536.117C536.352 536.117 535.619 535.834 535.057 535.268C534.498 534.697 534.219 533.939 534.219 532.994V532.818C534.219 532.186 534.34 531.621 534.582 531.125C534.828 530.625 535.172 530.236 535.613 529.959C536.055 529.682 536.547 529.543 537.09 529.543C537.953 529.543 538.619 529.818 539.088 530.369C539.561 530.92 539.797 531.699 539.797 532.707V533.281H535.654C535.697 533.805 535.871 534.219 536.176 534.523C536.484 534.828 536.871 534.98 537.336 534.98C537.988 534.98 538.52 534.717 538.93 534.189L539.697 534.922C539.443 535.301 539.104 535.596 538.678 535.807C538.256 536.014 537.781 536.117 537.254 536.117ZM537.084 530.686C536.693 530.686 536.377 530.822 536.135 531.096C535.896 531.369 535.744 531.75 535.678 532.238H538.391V532.133C538.359 531.656 538.232 531.297 538.01 531.055C537.787 530.809 537.479 530.686 537.084 530.686ZM546.277 536H544.854V533.439H542.387V536H540.963V529.66H542.387V532.303H544.854V529.66H546.277V536ZM551.756 529.66H553.174V536H551.756V531.77L549.271 536H547.854V529.66H549.271V533.891L551.756 529.66ZM559.766 529.66V536H558.348V533.674H557.018L555.664 536H554.188L555.682 533.439C555.291 533.275 554.99 533.041 554.779 532.736C554.572 532.432 554.469 532.082 554.469 531.688C554.469 531.098 554.695 530.615 555.148 530.24C555.605 529.861 556.221 529.668 556.994 529.66H559.766ZM555.893 531.723C555.893 531.988 555.99 532.205 556.186 532.373C556.385 532.537 556.639 532.619 556.947 532.619H558.348V530.791H557.035C556.688 530.791 556.41 530.879 556.203 531.055C555.996 531.23 555.893 531.453 555.893 531.723ZM474.371 548.98C474.727 548.98 475.021 548.877 475.256 548.67C475.49 548.463 475.615 548.207 475.631 547.902H476.973C476.957 548.297 476.834 548.666 476.604 549.01C476.373 549.35 476.061 549.619 475.666 549.818C475.271 550.018 474.846 550.117 474.389 550.117C473.502 550.117 472.799 549.83 472.279 549.256C471.76 548.682 471.5 547.889 471.5 546.877V546.73C471.5 545.766 471.758 544.994 472.273 544.416C472.789 543.834 473.492 543.543 474.383 543.543C475.137 543.543 475.75 543.764 476.223 544.205C476.699 544.643 476.949 545.219 476.973 545.934H475.631C475.615 545.57 475.49 545.271 475.256 545.037C475.025 544.803 474.73 544.686 474.371 544.686C473.91 544.686 473.555 544.854 473.305 545.189C473.055 545.521 472.928 546.027 472.924 546.707V546.936C472.924 547.623 473.047 548.137 473.293 548.477C473.543 548.812 473.902 548.98 474.371 548.98ZM480.77 546.771C480.77 546.15 480.893 545.592 481.139 545.096C481.385 544.596 481.73 544.213 482.176 543.947C482.621 543.678 483.133 543.543 483.711 543.543C484.566 543.543 485.26 543.818 485.791 544.369C486.326 544.92 486.615 545.65 486.658 546.561L486.664 546.895C486.664 547.52 486.543 548.078 486.301 548.57C486.062 549.062 485.719 549.443 485.27 549.713C484.824 549.982 484.309 550.117 483.723 550.117C482.828 550.117 482.111 549.82 481.572 549.227C481.037 548.629 480.77 547.834 480.77 546.842V546.771ZM482.193 546.895C482.193 547.547 482.328 548.059 482.598 548.43C482.867 548.797 483.242 548.98 483.723 548.98C484.203 548.98 484.576 548.793 484.842 548.418C485.111 548.043 485.246 547.494 485.246 546.771C485.246 546.131 485.107 545.623 484.83 545.248C484.557 544.873 484.184 544.686 483.711 544.686C483.246 544.686 482.877 544.871 482.604 545.242C482.33 545.609 482.193 546.16 482.193 546.895ZM492.682 544.791H490.625V550H489.201V544.791H487.168V543.66H492.682V544.791ZM495.91 545.746L497.117 543.66H498.699L496.76 546.783L498.764 550H497.193L495.928 547.832L494.668 550H493.086L495.09 546.783L493.156 543.66H494.727L495.91 545.746ZM499.168 546.771C499.168 546.15 499.291 545.592 499.537 545.096C499.783 544.596 500.129 544.213 500.574 543.947C501.02 543.678 501.531 543.543 502.109 543.543C502.965 543.543 503.658 543.818 504.189 544.369C504.725 544.92 505.014 545.65 505.057 546.561L505.062 546.895C505.062 547.52 504.941 548.078 504.699 548.57C504.461 549.062 504.117 549.443 503.668 549.713C503.223 549.982 502.707 550.117 502.121 550.117C501.227 550.117 500.51 549.82 499.971 549.227C499.436 548.629 499.168 547.834 499.168 546.842V546.771ZM500.592 546.895C500.592 547.547 500.727 548.059 500.996 548.43C501.266 548.797 501.641 548.98 502.121 548.98C502.602 548.98 502.975 548.793 503.24 548.418C503.51 548.043 503.645 547.494 503.645 546.771C503.645 546.131 503.506 545.623 503.229 545.248C502.955 544.873 502.582 544.686 502.109 544.686C501.645 544.686 501.275 544.871 501.002 545.242C500.729 545.609 500.592 546.16 500.592 546.895ZM505.871 548.863C506.266 548.422 506.529 548.004 506.662 547.609C506.799 547.211 506.881 546.703 506.908 546.086L506.99 543.66H511.391V548.863H512.27V551.887H510.852V550H506.785V551.887H505.344L505.35 548.863H505.871ZM507.541 548.863H509.973V544.885H508.373L508.332 546.098C508.277 547.262 508.014 548.184 507.541 548.863ZM517.074 550C517.012 549.879 516.957 549.682 516.91 549.408C516.457 549.881 515.902 550.117 515.246 550.117C514.609 550.117 514.09 549.936 513.688 549.572C513.285 549.209 513.084 548.76 513.084 548.225C513.084 547.549 513.334 547.031 513.834 546.672C514.338 546.309 515.057 546.127 515.99 546.127H516.863V545.711C516.863 545.383 516.771 545.121 516.588 544.926C516.404 544.727 516.125 544.627 515.75 544.627C515.426 544.627 515.16 544.709 514.953 544.873C514.746 545.033 514.643 545.238 514.643 545.488H513.219C513.219 545.141 513.334 544.816 513.564 544.516C513.795 544.211 514.107 543.973 514.502 543.801C514.9 543.629 515.344 543.543 515.832 543.543C516.574 543.543 517.166 543.73 517.607 544.105C518.049 544.477 518.275 545 518.287 545.676V548.535C518.287 549.105 518.367 549.561 518.527 549.9V550H517.074ZM515.51 548.975C515.791 548.975 516.055 548.906 516.301 548.77C516.551 548.633 516.738 548.449 516.863 548.219V547.023H516.096C515.568 547.023 515.172 547.115 514.906 547.299C514.641 547.482 514.508 547.742 514.508 548.078C514.508 548.352 514.598 548.57 514.777 548.734C514.961 548.895 515.205 548.975 515.51 548.975ZM523.543 548.248L525.418 543.66H527.199V550H525.775V545.805L524.029 550H523.062L521.311 545.781V550H519.887V543.66H521.68L523.543 548.248ZM532.76 543.66H534.178V550H532.76V545.77L530.275 550H528.857V543.66H530.275V547.891L532.76 543.66Z" fill="#3C3C3B"/>
<path d="M703.891 531.957C703.891 532.793 703.746 533.527 703.457 534.16C703.168 534.789 702.754 535.273 702.215 535.613C701.68 535.949 701.062 536.117 700.363 536.117C699.672 536.117 699.055 535.949 698.512 535.613C697.973 535.273 697.555 534.791 697.258 534.166C696.965 533.541 696.816 532.82 696.812 532.004V531.523C696.812 530.691 696.959 529.957 697.252 529.32C697.549 528.684 697.965 528.197 698.5 527.861C699.039 527.521 699.656 527.352 700.352 527.352C701.047 527.352 701.662 527.52 702.197 527.855C702.736 528.188 703.152 528.668 703.445 529.297C703.738 529.922 703.887 530.65 703.891 531.482V531.957ZM702.408 531.512C702.408 530.566 702.229 529.842 701.869 529.338C701.514 528.834 701.008 528.582 700.352 528.582C699.711 528.582 699.209 528.834 698.846 529.338C698.486 529.838 698.303 530.547 698.295 531.465V531.957C698.295 532.895 698.477 533.619 698.84 534.131C699.207 534.643 699.715 534.898 700.363 534.898C701.02 534.898 701.523 534.648 701.875 534.148C702.23 533.648 702.408 532.918 702.408 531.957V531.512ZM708.215 530.012C709.012 530.012 709.65 530.279 710.131 530.814C710.611 531.346 710.852 532.068 710.852 532.982V533.053C710.852 533.967 710.59 534.707 710.066 535.273C709.547 535.84 708.84 536.123 707.945 536.123C707.074 536.123 706.371 535.834 705.836 535.256C705.301 534.678 705.033 533.889 705.033 532.889V532.479C705.033 531.111 705.275 530.029 705.76 529.232C706.244 528.436 706.967 527.938 707.928 527.738C708.467 527.629 708.814 527.514 708.971 527.393C709.131 527.268 709.211 527.1 709.211 526.889H710.359C710.359 527.283 710.295 527.604 710.166 527.85C710.037 528.096 709.84 528.297 709.574 528.453C709.309 528.605 708.852 528.75 708.203 528.887C707.609 529.012 707.156 529.234 706.844 529.555C706.535 529.875 706.328 530.318 706.223 530.885C706.789 530.303 707.453 530.012 708.215 530.012ZM707.934 531.154C707.473 531.154 707.111 531.311 706.85 531.623C706.588 531.932 706.457 532.408 706.457 533.053C706.457 533.662 706.586 534.137 706.844 534.477C707.102 534.816 707.469 534.986 707.945 534.986C708.418 534.986 708.783 534.816 709.041 534.477C709.303 534.133 709.434 533.617 709.434 532.93C709.434 532.383 709.303 531.951 709.041 531.635C708.783 531.314 708.414 531.154 707.934 531.154ZM714.672 531.676H716.066C716.586 531.676 717.039 531.766 717.426 531.945C717.812 532.125 718.105 532.377 718.305 532.701C718.508 533.025 718.609 533.402 718.609 533.832C718.609 534.484 718.379 535.008 717.918 535.402C717.457 535.797 716.844 535.996 716.078 536H713.248V530.809H711.42V529.66H714.672V531.676ZM714.672 532.818V534.863H716.061C716.408 534.863 716.682 534.777 716.881 534.605C717.084 534.43 717.186 534.182 717.186 533.861C717.186 533.541 717.086 533.289 716.887 533.105C716.691 532.918 716.426 532.822 716.09 532.818H714.672ZM722.4 536.117C721.498 536.117 720.766 535.834 720.203 535.268C719.645 534.697 719.365 533.939 719.365 532.994V532.818C719.365 532.186 719.486 531.621 719.729 531.125C719.975 530.625 720.318 530.236 720.76 529.959C721.201 529.682 721.693 529.543 722.236 529.543C723.1 529.543 723.766 529.818 724.234 530.369C724.707 530.92 724.943 531.699 724.943 532.707V533.281H720.801C720.844 533.805 721.018 534.219 721.322 534.523C721.631 534.828 722.018 534.98 722.482 534.98C723.135 534.98 723.666 534.717 724.076 534.189L724.844 534.922C724.59 535.301 724.25 535.596 723.824 535.807C723.402 536.014 722.928 536.117 722.4 536.117ZM722.23 530.686C721.84 530.686 721.523 530.822 721.281 531.096C721.043 531.369 720.891 531.75 720.824 532.238H723.537V532.133C723.506 531.656 723.379 531.297 723.156 531.055C722.934 530.809 722.625 530.686 722.23 530.686ZM728.307 533.492H727.586V536H726.162V529.66H727.586V532.191H728.213L729.965 529.66H731.723L729.432 532.695L731.916 536H730.064L728.307 533.492ZM737.688 530.791H735.631V536H734.207V530.791H732.174V529.66H737.688V530.791ZM740.172 531.676H741.566C742.086 531.676 742.539 531.766 742.926 531.945C743.312 532.125 743.605 532.377 743.805 532.701C744.008 533.025 744.109 533.402 744.109 533.832C744.109 534.484 743.879 535.008 743.418 535.402C742.957 535.797 742.344 535.996 741.578 536H738.748V529.66H740.172V531.676ZM746.588 536H745.164V529.66H746.588V536ZM740.172 532.818V534.863H741.561C741.908 534.863 742.182 534.777 742.381 534.605C742.584 534.43 742.686 534.182 742.686 533.861C742.686 533.541 742.586 533.289 742.387 533.105C742.191 532.918 741.926 532.822 741.59 532.818H740.172ZM756.273 530.791H754.217V536H752.793V530.791H750.76V529.66H756.273V530.791ZM762.303 529.66V536H760.885V533.674H759.555L758.201 536H756.725L758.219 533.439C757.828 533.275 757.527 533.041 757.316 532.736C757.109 532.432 757.006 532.082 757.006 531.688C757.006 531.098 757.232 530.615 757.686 530.24C758.143 529.861 758.758 529.668 759.531 529.66H762.303ZM758.43 531.723C758.43 531.988 758.527 532.205 758.723 532.373C758.922 532.537 759.176 532.619 759.484 532.619H760.885V530.791H759.572C759.225 530.791 758.947 530.879 758.74 531.055C758.533 531.23 758.43 531.453 758.43 531.723ZM769.463 533.451H768.707V536H767.283V533.451H766.533L765.074 536H763.328L765.432 532.701L763.439 529.66H765.18L766.615 532.15H767.283V529.66H768.707V532.15H769.381L770.822 529.66H772.562L770.576 532.684L772.691 536H770.922L769.463 533.451ZM776.248 536.117C775.346 536.117 774.613 535.834 774.051 535.268C773.492 534.697 773.213 533.939 773.213 532.994V532.818C773.213 532.186 773.334 531.621 773.576 531.125C773.822 530.625 774.166 530.236 774.607 529.959C775.049 529.682 775.541 529.543 776.084 529.543C776.947 529.543 777.613 529.818 778.082 530.369C778.555 530.92 778.791 531.699 778.791 532.707V533.281H774.648C774.691 533.805 774.865 534.219 775.17 534.523C775.479 534.828 775.865 534.98 776.33 534.98C776.982 534.98 777.514 534.717 777.924 534.189L778.691 534.922C778.438 535.301 778.098 535.596 777.672 535.807C777.25 536.014 776.775 536.117 776.248 536.117ZM776.078 530.686C775.688 530.686 775.371 530.822 775.129 531.096C774.891 531.369 774.738 531.75 774.672 532.238H777.385V532.133C777.354 531.656 777.227 531.297 777.004 531.055C776.781 530.809 776.473 530.686 776.078 530.686ZM785.289 529.66V536H783.865V530.809H782.072L781.955 533.018C781.881 534.08 781.676 534.844 781.34 535.309C781.008 535.77 780.498 536 779.811 536H779.371L779.365 534.816L779.658 534.787C779.971 534.744 780.197 534.555 780.338 534.219C780.482 533.879 780.574 533.262 780.613 532.367L780.73 529.66H785.289ZM786.537 532.771C786.537 532.15 786.66 531.592 786.906 531.096C787.152 530.596 787.498 530.213 787.943 529.947C788.389 529.678 788.9 529.543 789.479 529.543C790.334 529.543 791.027 529.818 791.559 530.369C792.094 530.92 792.383 531.65 792.426 532.561L792.432 532.895C792.432 533.52 792.311 534.078 792.068 534.57C791.83 535.062 791.486 535.443 791.037 535.713C790.592 535.982 790.076 536.117 789.49 536.117C788.596 536.117 787.879 535.82 787.34 535.227C786.805 534.629 786.537 533.834 786.537 532.842V532.771ZM787.961 532.895C787.961 533.547 788.096 534.059 788.365 534.43C788.635 534.797 789.01 534.98 789.49 534.98C789.971 534.98 790.344 534.793 790.609 534.418C790.879 534.043 791.014 533.494 791.014 532.771C791.014 532.131 790.875 531.623 790.598 531.248C790.324 530.873 789.951 530.686 789.479 530.686C789.014 530.686 788.645 530.871 788.371 531.242C788.098 531.609 787.961 532.16 787.961 532.895ZM797.594 529.66H799.012V536H797.594V531.77L795.109 536H793.691V529.66H795.109V533.891L797.594 529.66ZM798.262 527.229C798.262 527.721 798.09 528.119 797.746 528.424C797.402 528.729 796.943 528.881 796.369 528.881C795.795 528.881 795.336 528.729 794.992 528.424C794.648 528.119 794.477 527.721 794.477 527.229H795.543C795.543 527.486 795.615 527.688 795.76 527.832C795.908 527.973 796.111 528.043 796.369 528.043C796.627 528.043 796.828 527.973 796.973 527.832C797.117 527.688 797.189 527.486 797.189 527.229H798.262ZM677.518 543.66H678.936V550H677.518V545.77L675.033 550H673.615V543.66H675.033V547.891L677.518 543.66ZM688.826 543.66V550H687.402V544.809H685.609L685.492 547.018C685.418 548.08 685.213 548.844 684.877 549.309C684.545 549.77 684.035 550 683.348 550H682.908L682.902 548.816L683.195 548.787C683.508 548.744 683.734 548.555 683.875 548.219C684.02 547.879 684.111 547.262 684.15 546.367L684.268 543.66H688.826ZM693.133 550.117C692.23 550.117 691.498 549.834 690.936 549.268C690.377 548.697 690.098 547.939 690.098 546.994V546.818C690.098 546.186 690.219 545.621 690.461 545.125C690.707 544.625 691.051 544.236 691.492 543.959C691.934 543.682 692.426 543.543 692.969 543.543C693.832 543.543 694.498 543.818 694.967 544.369C695.439 544.92 695.676 545.699 695.676 546.707V547.281H691.533C691.576 547.805 691.75 548.219 692.055 548.523C692.363 548.828 692.75 548.98 693.215 548.98C693.867 548.98 694.398 548.717 694.809 548.189L695.576 548.922C695.322 549.301 694.982 549.596 694.557 549.807C694.135 550.014 693.66 550.117 693.133 550.117ZM692.963 544.686C692.572 544.686 692.256 544.822 692.014 545.096C691.775 545.369 691.623 545.75 691.557 546.238H694.27V546.133C694.238 545.656 694.111 545.297 693.889 545.055C693.666 544.809 693.357 544.686 692.963 544.686ZM701.008 544.809H698.254V550H696.836V543.66H701.008V544.809ZM704.066 547.492H703.346V550H701.922V543.66H703.346V546.191H703.973L705.725 543.66H707.482L705.191 546.695L707.676 550H705.824L704.066 547.492ZM707.852 546.771C707.852 546.15 707.975 545.592 708.221 545.096C708.467 544.596 708.812 544.213 709.258 543.947C709.703 543.678 710.215 543.543 710.793 543.543C711.648 543.543 712.342 543.818 712.873 544.369C713.408 544.92 713.697 545.65 713.74 546.561L713.746 546.895C713.746 547.52 713.625 548.078 713.383 548.57C713.145 549.062 712.801 549.443 712.352 549.713C711.906 549.982 711.391 550.117 710.805 550.117C709.91 550.117 709.193 549.82 708.654 549.227C708.119 548.629 707.852 547.834 707.852 546.842V546.771ZM709.275 546.895C709.275 547.547 709.41 548.059 709.68 548.43C709.949 548.797 710.324 548.98 710.805 548.98C711.285 548.98 711.658 548.793 711.924 548.418C712.193 548.043 712.328 547.494 712.328 546.771C712.328 546.131 712.189 545.623 711.912 545.248C711.639 544.873 711.266 544.686 710.793 544.686C710.328 544.686 709.959 544.871 709.686 545.242C709.412 545.609 709.275 546.16 709.275 546.895ZM718.908 543.66H720.326V550H718.908V545.77L716.424 550H715.006V543.66H716.424V547.891L718.908 543.66ZM719.576 541.229C719.576 541.721 719.404 542.119 719.061 542.424C718.717 542.729 718.258 542.881 717.684 542.881C717.109 542.881 716.65 542.729 716.307 542.424C715.963 542.119 715.791 541.721 715.791 541.229H716.857C716.857 541.486 716.93 541.688 717.074 541.832C717.223 541.973 717.426 542.043 717.684 542.043C717.941 542.043 718.143 541.973 718.287 541.832C718.432 541.688 718.504 541.486 718.504 541.229H719.576ZM730.205 550H728.781V544.809H726.309V550H724.885V543.66H730.205V550ZM737.271 546.895C737.271 547.875 737.049 548.658 736.604 549.244C736.158 549.826 735.561 550.117 734.811 550.117C734.115 550.117 733.559 549.889 733.141 549.432V552.438H731.717V543.66H733.029L733.088 544.305C733.506 543.797 734.074 543.543 734.793 543.543C735.566 543.543 736.172 543.832 736.609 544.41C737.051 544.984 737.271 545.783 737.271 546.807V546.895ZM735.854 546.771C735.854 546.139 735.727 545.637 735.473 545.266C735.223 544.895 734.863 544.709 734.395 544.709C733.812 544.709 733.395 544.949 733.141 545.43V548.242C733.398 548.734 733.82 548.98 734.406 548.98C734.859 548.98 735.213 548.799 735.467 548.436C735.725 548.068 735.854 547.514 735.854 546.771ZM738.215 546.771C738.215 546.15 738.338 545.592 738.584 545.096C738.83 544.596 739.176 544.213 739.621 543.947C740.066 543.678 740.578 543.543 741.156 543.543C742.012 543.543 742.705 543.818 743.236 544.369C743.771 544.92 744.061 545.65 744.104 546.561L744.109 546.895C744.109 547.52 743.988 548.078 743.746 548.57C743.508 549.062 743.164 549.443 742.715 549.713C742.27 549.982 741.754 550.117 741.168 550.117C740.273 550.117 739.557 549.82 739.018 549.227C738.482 548.629 738.215 547.834 738.215 546.842V546.771ZM739.639 546.895C739.639 547.547 739.773 548.059 740.043 548.43C740.312 548.797 740.688 548.98 741.168 548.98C741.648 548.98 742.021 548.793 742.287 548.418C742.557 548.043 742.691 547.494 742.691 546.771C742.691 546.131 742.553 545.623 742.275 545.248C742.002 544.873 741.629 544.686 741.156 544.686C740.691 544.686 740.322 544.871 740.049 545.242C739.775 545.609 739.639 546.16 739.639 546.895ZM749.078 548.248L750.953 543.66H752.734V550H751.311V545.805L749.564 550H748.598L746.846 545.781V550H745.422V543.66H747.215L749.078 548.248ZM755.869 545.676H757.264C757.783 545.676 758.236 545.766 758.623 545.945C759.01 546.125 759.303 546.377 759.502 546.701C759.705 547.025 759.807 547.402 759.807 547.832C759.807 548.484 759.576 549.008 759.115 549.402C758.654 549.797 758.041 549.996 757.275 550H754.445V543.66H755.869V545.676ZM762.285 550H760.861V543.66H762.285V550ZM755.869 546.818V548.863H757.258C757.605 548.863 757.879 548.777 758.078 548.605C758.281 548.43 758.383 548.182 758.383 547.861C758.383 547.541 758.283 547.289 758.084 547.105C757.889 546.918 757.623 546.822 757.287 546.818H755.869ZM765.473 543.66V548.863H767.453V543.66H768.877V548.863H770.863V543.66H772.281V550H764.049V543.66H765.473ZM779.213 543.66V550H777.789V544.809H775.996L775.879 547.018C775.805 548.08 775.6 548.844 775.264 549.309C774.932 549.77 774.422 550 773.734 550H773.295L773.289 548.816L773.582 548.787C773.895 548.744 774.121 548.555 774.262 548.219C774.406 547.879 774.498 547.262 774.537 546.367L774.654 543.66H779.213ZM783.52 550.117C782.617 550.117 781.885 549.834 781.322 549.268C780.764 548.697 780.484 547.939 780.484 546.994V546.818C780.484 546.186 780.605 545.621 780.848 545.125C781.094 544.625 781.438 544.236 781.879 543.959C782.32 543.682 782.812 543.543 783.355 543.543C784.219 543.543 784.885 543.818 785.354 544.369C785.826 544.92 786.062 545.699 786.062 546.707V547.281H781.92C781.963 547.805 782.137 548.219 782.441 548.523C782.75 548.828 783.137 548.98 783.602 548.98C784.254 548.98 784.785 548.717 785.195 548.189L785.963 548.922C785.709 549.301 785.369 549.596 784.943 549.807C784.521 550.014 784.047 550.117 783.52 550.117ZM783.35 544.686C782.959 544.686 782.643 544.822 782.4 545.096C782.162 545.369 782.01 545.75 781.943 546.238H784.656V546.133C784.625 545.656 784.498 545.297 784.275 545.055C784.053 544.809 783.744 544.686 783.35 544.686ZM792.543 550H791.119V547.439H788.652V550H787.229V543.66H788.652V546.303H791.119V543.66H792.543V550ZM799.434 550H798.01V547.439H795.543V550H794.119V543.66H795.543V546.303H798.01V543.66H799.434V550ZM800.688 546.771C800.688 546.15 800.811 545.592 801.057 545.096C801.303 544.596 801.648 544.213 802.094 543.947C802.539 543.678 803.051 543.543 803.629 543.543C804.484 543.543 805.178 543.818 805.709 544.369C806.244 544.92 806.533 545.65 806.576 546.561L806.582 546.895C806.582 547.52 806.461 548.078 806.219 548.57C805.98 549.062 805.637 549.443 805.188 549.713C804.742 549.982 804.227 550.117 803.641 550.117C802.746 550.117 802.029 549.82 801.49 549.227C800.955 548.629 800.688 547.834 800.688 546.842V546.771ZM802.111 546.895C802.111 547.547 802.246 548.059 802.516 548.43C802.785 548.797 803.16 548.98 803.641 548.98C804.121 548.98 804.494 548.793 804.76 548.418C805.029 548.043 805.164 547.494 805.164 546.771C805.164 546.131 805.025 545.623 804.748 545.248C804.475 544.873 804.102 544.686 803.629 544.686C803.164 544.686 802.795 544.871 802.521 545.242C802.248 545.609 802.111 546.16 802.111 546.895ZM810.391 548.98C810.746 548.98 811.041 548.877 811.275 548.67C811.51 548.463 811.635 548.207 811.65 547.902H812.992C812.977 548.297 812.854 548.666 812.623 549.01C812.393 549.35 812.08 549.619 811.686 549.818C811.291 550.018 810.865 550.117 810.408 550.117C809.521 550.117 808.818 549.83 808.299 549.256C807.779 548.682 807.52 547.889 807.52 546.877V546.73C807.52 545.766 807.777 544.994 808.293 544.416C808.809 543.834 809.512 543.543 810.402 543.543C811.156 543.543 811.77 543.764 812.242 544.205C812.719 544.643 812.969 545.219 812.992 545.934H811.65C811.635 545.57 811.51 545.271 811.275 545.037C811.045 544.803 810.75 544.686 810.391 544.686C809.93 544.686 809.574 544.854 809.324 545.189C809.074 545.521 808.947 546.027 808.943 546.707V546.936C808.943 547.623 809.066 548.137 809.312 548.477C809.562 548.812 809.922 548.98 810.391 548.98ZM819.057 544.791H817V550H815.576V544.791H813.543V543.66H819.057V544.791ZM823.967 543.66H825.385V550H823.967V545.77L821.482 550H820.064V543.66H821.482V547.891L823.967 543.66Z" fill="#3C3C3B"/>
<path d="M942.955 531.957C942.955 532.793 942.811 533.527 942.521 534.16C942.232 534.789 941.818 535.273 941.279 535.613C940.744 535.949 940.127 536.117 939.428 536.117C938.736 536.117 938.119 535.949 937.576 535.613C937.037 535.273 936.619 534.791 936.322 534.166C936.029 533.541 935.881 532.82 935.877 532.004V531.523C935.877 530.691 936.023 529.957 936.316 529.32C936.613 528.684 937.029 528.197 937.564 527.861C938.104 527.521 938.721 527.352 939.416 527.352C940.111 527.352 940.727 527.52 941.262 527.855C941.801 528.188 942.217 528.668 942.51 529.297C942.803 529.922 942.951 530.65 942.955 531.482V531.957ZM941.473 531.512C941.473 530.566 941.293 529.842 940.934 529.338C940.578 528.834 940.072 528.582 939.416 528.582C938.775 528.582 938.273 528.834 937.91 529.338C937.551 529.838 937.367 530.547 937.359 531.465V531.957C937.359 532.895 937.541 533.619 937.904 534.131C938.271 534.643 938.779 534.898 939.428 534.898C940.084 534.898 940.588 534.648 940.939 534.148C941.295 533.648 941.473 532.918 941.473 531.957V531.512ZM947.279 530.012C948.076 530.012 948.715 530.279 949.195 530.814C949.676 531.346 949.916 532.068 949.916 532.982V533.053C949.916 533.967 949.654 534.707 949.131 535.273C948.611 535.84 947.904 536.123 947.01 536.123C946.139 536.123 945.436 535.834 944.9 535.256C944.365 534.678 944.098 533.889 944.098 532.889V532.479C944.098 531.111 944.34 530.029 944.824 529.232C945.309 528.436 946.031 527.938 946.992 527.738C947.531 527.629 947.879 527.514 948.035 527.393C948.195 527.268 948.275 527.1 948.275 526.889H949.424C949.424 527.283 949.359 527.604 949.23 527.85C949.102 528.096 948.904 528.297 948.639 528.453C948.373 528.605 947.916 528.75 947.268 528.887C946.674 529.012 946.221 529.234 945.908 529.555C945.6 529.875 945.393 530.318 945.287 530.885C945.854 530.303 946.518 530.012 947.279 530.012ZM946.998 531.154C946.537 531.154 946.176 531.311 945.914 531.623C945.652 531.932 945.521 532.408 945.521 533.053C945.521 533.662 945.65 534.137 945.908 534.477C946.166 534.816 946.533 534.986 947.01 534.986C947.482 534.986 947.848 534.816 948.105 534.477C948.367 534.133 948.498 533.617 948.498 532.93C948.498 532.383 948.367 531.951 948.105 531.635C947.848 531.314 947.479 531.154 946.998 531.154ZM953.736 531.676H955.131C955.65 531.676 956.104 531.766 956.49 531.945C956.877 532.125 957.17 532.377 957.369 532.701C957.572 533.025 957.674 533.402 957.674 533.832C957.674 534.484 957.443 535.008 956.982 535.402C956.521 535.797 955.908 535.996 955.143 536H952.312V530.809H950.484V529.66H953.736V531.676ZM953.736 532.818V534.863H955.125C955.473 534.863 955.746 534.777 955.945 534.605C956.148 534.43 956.25 534.182 956.25 533.861C956.25 533.541 956.15 533.289 955.951 533.105C955.756 532.918 955.49 532.822 955.154 532.818H953.736ZM961.465 536.117C960.562 536.117 959.83 535.834 959.268 535.268C958.709 534.697 958.43 533.939 958.43 532.994V532.818C958.43 532.186 958.551 531.621 958.793 531.125C959.039 530.625 959.383 530.236 959.824 529.959C960.266 529.682 960.758 529.543 961.301 529.543C962.164 529.543 962.83 529.818 963.299 530.369C963.771 530.92 964.008 531.699 964.008 532.707V533.281H959.865C959.908 533.805 960.082 534.219 960.387 534.523C960.695 534.828 961.082 534.98 961.547 534.98C962.199 534.98 962.73 534.717 963.141 534.189L963.908 534.922C963.654 535.301 963.314 535.596 962.889 535.807C962.467 536.014 961.992 536.117 961.465 536.117ZM961.295 530.686C960.904 530.686 960.588 530.822 960.346 531.096C960.107 531.369 959.955 531.75 959.889 532.238H962.602V532.133C962.57 531.656 962.443 531.297 962.221 531.055C961.998 530.809 961.689 530.686 961.295 530.686ZM967.371 533.492H966.65V536H965.227V529.66H966.65V532.191H967.277L969.029 529.66H970.787L968.496 532.695L970.98 536H969.129L967.371 533.492ZM976.752 530.791H974.695V536H973.271V530.791H971.238V529.66H976.752V530.791ZM979.236 531.676H980.631C981.15 531.676 981.604 531.766 981.99 531.945C982.377 532.125 982.67 532.377 982.869 532.701C983.072 533.025 983.174 533.402 983.174 533.832C983.174 534.484 982.943 535.008 982.482 535.402C982.021 535.797 981.408 535.996 980.643 536H977.812V529.66H979.236V531.676ZM985.652 536H984.229V529.66H985.652V536ZM979.236 532.818V534.863H980.625C980.973 534.863 981.246 534.777 981.445 534.605C981.648 534.43 981.75 534.182 981.75 533.861C981.75 533.541 981.65 533.289 981.451 533.105C981.256 532.918 980.99 532.822 980.654 532.818H979.236ZM992.625 530.686C992.293 530.686 992.012 530.789 991.781 530.996C991.551 531.199 991.436 531.455 991.436 531.764H990.094C990.094 531.373 990.207 531.008 990.434 530.668C990.66 530.324 990.971 530.051 991.365 529.848C991.76 529.645 992.18 529.543 992.625 529.543C993.484 529.543 994.174 529.838 994.693 530.428C995.217 531.018 995.479 531.805 995.479 532.789V532.936C995.479 533.541 995.359 534.09 995.121 534.582C994.887 535.074 994.555 535.453 994.125 535.719C993.695 535.984 993.197 536.117 992.631 536.117C992.15 536.117 991.715 536.018 991.324 535.818C990.934 535.615 990.631 535.332 990.416 534.969C990.201 534.605 990.094 534.195 990.094 533.738H991.436C991.436 534.102 991.551 534.4 991.781 534.635C992.012 534.865 992.295 534.98 992.631 534.98C993.029 534.98 993.352 534.832 993.598 534.535C993.844 534.234 993.99 533.816 994.037 533.281H992.045V532.297H994.031C993.977 531.781 993.826 531.385 993.58 531.107C993.334 530.826 993.016 530.686 992.625 530.686ZM1002.07 536H1000.65V533.439H998.18V536H996.756V529.66H998.18V532.303H1000.65V529.66H1002.07V536ZM1006.38 536.117C1005.48 536.117 1004.75 535.834 1004.19 535.268C1003.63 534.697 1003.35 533.939 1003.35 532.994V532.818C1003.35 532.186 1003.47 531.621 1003.71 531.125C1003.96 530.625 1004.3 530.236 1004.74 529.959C1005.18 529.682 1005.68 529.543 1006.22 529.543C1007.08 529.543 1007.75 529.818 1008.22 530.369C1008.69 530.92 1008.93 531.699 1008.93 532.707V533.281H1004.78C1004.83 533.805 1005 534.219 1005.3 534.523C1005.61 534.828 1006 534.98 1006.46 534.98C1007.12 534.98 1007.65 534.717 1008.06 534.189L1008.83 534.922C1008.57 535.301 1008.23 535.596 1007.81 535.807C1007.38 536.014 1006.91 536.117 1006.38 536.117ZM1006.21 530.686C1005.82 530.686 1005.51 530.822 1005.26 531.096C1005.03 531.369 1004.87 531.75 1004.81 532.238H1007.52V532.133C1007.49 531.656 1007.36 531.297 1007.14 531.055C1006.92 530.809 1006.61 530.686 1006.21 530.686ZM1015.59 532.895C1015.59 533.875 1015.37 534.658 1014.92 535.244C1014.47 535.826 1013.88 536.117 1013.13 536.117C1012.43 536.117 1011.88 535.889 1011.46 535.432V538.438H1010.03V529.66H1011.35L1011.4 530.305C1011.82 529.797 1012.39 529.543 1013.11 529.543C1013.88 529.543 1014.49 529.832 1014.93 530.41C1015.37 530.984 1015.59 531.783 1015.59 532.807V532.895ZM1014.17 532.771C1014.17 532.139 1014.04 531.637 1013.79 531.266C1013.54 530.895 1013.18 530.709 1012.71 530.709C1012.13 530.709 1011.71 530.949 1011.46 531.43V534.242C1011.71 534.734 1012.14 534.98 1012.72 534.98C1013.18 534.98 1013.53 534.799 1013.78 534.436C1014.04 534.068 1014.17 533.514 1014.17 532.771ZM1021.02 530.809H1018.27V536H1016.85V529.66H1021.02V530.809ZM1024.5 536.117C1023.6 536.117 1022.87 535.834 1022.3 535.268C1021.74 534.697 1021.46 533.939 1021.46 532.994V532.818C1021.46 532.186 1021.59 531.621 1021.83 531.125C1022.07 530.625 1022.42 530.236 1022.86 529.959C1023.3 529.682 1023.79 529.543 1024.34 529.543C1025.2 529.543 1025.87 529.818 1026.33 530.369C1026.81 530.92 1027.04 531.699 1027.04 532.707V533.281H1022.9C1022.94 533.805 1023.12 534.219 1023.42 534.523C1023.73 534.828 1024.12 534.98 1024.58 534.98C1025.23 534.98 1025.77 534.717 1026.18 534.189L1026.94 534.922C1026.69 535.301 1026.35 535.596 1025.92 535.807C1025.5 536.014 1025.03 536.117 1024.5 536.117ZM1024.33 530.686C1023.94 530.686 1023.62 530.822 1023.38 531.096C1023.14 531.369 1022.99 531.75 1022.92 532.238H1025.64V532.133C1025.61 531.656 1025.48 531.297 1025.26 531.055C1025.03 530.809 1024.72 530.686 1024.33 530.686ZM1033.07 530.791H1031.02V536H1029.59V530.791H1027.56V529.66H1033.07V530.791ZM1037.98 529.66H1039.4V536H1037.98V531.77L1035.5 536H1034.08V529.66H1035.5V533.891L1037.98 529.66ZM1043.17 533.492H1042.45V536H1041.02V529.66H1042.45V532.191H1043.07L1044.83 529.66H1046.58L1044.29 532.695L1046.78 536H1044.93L1043.17 533.492ZM1051.52 529.66H1052.94V536H1051.52V531.77L1049.03 536H1047.62V529.66H1049.03V533.891L1051.52 529.66Z" fill="#3C3C3B"/>
<line y1="505" x2="1088" y2="505" stroke="black" stroke-width="2"/>
<line y1="469" x2="1088" y2="469" stroke="#CECECE" stroke-width="2"/>
<line y1="451.5" x2="1088" y2="451.5" stroke="#DDDDDD"/>
<line y1="379.5" x2="1088" y2="379.5" stroke="#DDDDDD"/>
<line y1="307.5" x2="1088" y2="307.5" stroke="#DDDDDD"/>
<line y1="235.5" x2="1088" y2="235.5" stroke="#DDDDDD"/>
<line y1="163.5" x2="1088" y2="163.5" stroke="#DDDDDD"/>
<line y1="91.5" x2="1088" y2="91.5" stroke="#DDDDDD"/>
<line y1="19.5" x2="1088" y2="19.5" stroke="#DDDDDD"/>
<line y1="415.5" x2="1088" y2="415.5" stroke="#DDDDDD"/>
<line y1="343.5" x2="1088" y2="343.5" stroke="#DDDDDD"/>
<line y1="271.5" x2="1088" y2="271.5" stroke="#DDDDDD"/>
<line y1="199.5" x2="1088" y2="199.5" stroke="#DDDDDD"/>
<line y1="127.5" x2="1088" y2="127.5" stroke="#DDDDDD"/>
<line y1="55.5" x2="1088" y2="55.5" stroke="#DDDDDD"/>
<line y1="433" x2="1088" y2="433" stroke="#CECECE" stroke-width="2"/>
<line y1="397" x2="1088" y2="397" stroke="#CECECE" stroke-width="2"/>
<line y1="361" x2="1088" y2="361" stroke="#CECECE" stroke-width="2"/>
<line y1="325" x2="1088" y2="325" stroke="#CECECE" stroke-width="2"/>
<line y1="289" x2="1088" y2="289" stroke="#CECECE" stroke-width="2"/>
<line y1="253" x2="1088" y2="253" stroke="#CECECE" stroke-width="2"/>
<line y1="217" x2="1088" y2="217" stroke="#CECECE" stroke-width="2"/>
<line y1="181" x2="1088" y2="181" stroke="#CECECE" stroke-width="2"/>
<line y1="145" x2="1088" y2="145" stroke="#CECECE" stroke-width="2"/>
<line y1="109" x2="1088" y2="109" stroke="#CECECE" stroke-width="2"/>
<line y1="73" x2="1088" y2="73" stroke="#CECECE" stroke-width="2"/>
<line y1="37" x2="1088" y2="37" stroke="#CECECE" stroke-width="2"/>
<line y1="1" x2="1088" y2="1" stroke="#CECECE" stroke-width="2"/>
<rect x="9" y="420" width="53" height="84" fill="#FECF9B"/>
<rect x="697" y="363" width="53" height="141" fill="#FECF9B"/>
<rect x="939" y="363" width="53" height="141" fill="#FECF9B"/>
<rect x="451" y="230" width="53" height="274" fill="#FECF9B"/>
<rect x="226" y="482" width="53" height="22" fill="#FECF9B"/>
<rect x="64" y="398" width="53" height="106" fill="#37FF9F"/>
<rect x="752" y="326" width="53" height="178" fill="#37FF9F"/>
<rect x="994" y="326" width="53" height="178" fill="#37FF9F"/>
<rect x="506" y="158" width="53" height="346" fill="#37FF9F"/>
<rect x="281" y="476" width="53" height="28" fill="#37FF9F"/>
<line x1="91.25" y1="386" x2="91.25" y2="396" stroke="#3C3C3B" stroke-width="0.5"/>
<line x1="532.25" y1="147" x2="532.25" y2="157" stroke="#3C3C3B" stroke-width="0.5"/>
<line x1="778.25" y1="314" x2="778.25" y2="324" stroke="#3C3C3B" stroke-width="0.5"/>
<line x1="1020.25" y1="314" x2="1020.25" y2="324" stroke="#3C3C3B" stroke-width="0.5"/>
<line x1="308.25" y1="464" x2="308.25" y2="474" stroke="#3C3C3B" stroke-width="0.5"/>
<line x1="34.25" y1="408" x2="34.25" y2="418" stroke="#3C3C3B" stroke-width="0.5"/>
<line x1="476.25" y1="218" x2="476.25" y2="228" stroke="#3C3C3B" stroke-width="0.5"/>
<line x1="722.25" y1="351" x2="722.25" y2="361" stroke="#3C3C3B" stroke-width="0.5"/>
<line x1="964.25" y1="351" x2="964.25" y2="361" stroke="#3C3C3B" stroke-width="0.5"/>
<line x1="252.25" y1="470" x2="252.25" y2="480" stroke="#3C3C3B" stroke-width="0.5"/>
<path d="M87.1465 383H81.8027V382.461L84.7266 379.145C85.2109 378.586 85.5469 378.125 85.7344 377.762C85.9219 377.398 86.0156 377.045 86.0156 376.701C86.0156 376.162 85.8574 375.736 85.541 375.424C85.2246 375.107 84.7891 374.949 84.2344 374.949C83.6602 374.949 83.1953 375.133 82.8398 375.5C82.4883 375.867 82.3125 376.344 82.3125 376.93H81.6152C81.6152 376.449 81.7227 376.012 81.9375 375.617C82.1562 375.223 82.4648 374.914 82.8633 374.691C83.2656 374.465 83.7227 374.352 84.2344 374.352C85.0156 374.352 85.625 374.557 86.0625 374.967C86.5039 375.377 86.7246 375.936 86.7246 376.643C86.7246 377.041 86.5996 377.477 86.3496 377.949C86.1035 378.422 85.668 379.012 85.043 379.719L82.6641 382.408H87.1465V383ZM92.8359 379.051C92.5859 379.418 92.2754 379.703 91.9043 379.906C91.5332 380.105 91.1309 380.205 90.6973 380.205C90.2129 380.205 89.7852 380.08 89.4141 379.83C89.043 379.58 88.7559 379.234 88.5527 378.793C88.3496 378.352 88.248 377.869 88.248 377.346C88.248 376.783 88.3555 376.271 88.5703 375.811C88.7891 375.35 89.0918 374.992 89.4785 374.738C89.8691 374.48 90.3184 374.352 90.8262 374.352C91.6816 374.352 92.3477 374.652 92.8242 375.254C93.3008 375.852 93.5391 376.701 93.5391 377.803V378.436C93.5391 379.975 93.2109 381.131 92.5547 381.904C91.8984 382.678 90.8965 383.064 89.5488 383.064H89.4199L89.4258 382.455H89.6719C90.6914 382.439 91.4668 382.15 91.998 381.588C92.5293 381.025 92.8086 380.18 92.8359 379.051ZM90.7852 379.602C91.2539 379.602 91.6738 379.463 92.0449 379.186C92.4199 378.904 92.6855 378.541 92.8418 378.096V377.691C92.8418 376.824 92.6602 376.152 92.2969 375.676C91.9375 375.195 91.4512 374.955 90.8379 374.955C90.2832 374.955 89.8281 375.18 89.4727 375.629C89.1172 376.074 88.9395 376.637 88.9395 377.316C88.9395 377.969 89.1094 378.514 89.4492 378.951C89.793 379.385 90.2383 379.602 90.7852 379.602ZM99.4219 380.252H100.752V380.844H99.4219V383H98.7188V380.844H94.7051V380.445L98.6543 374.469H99.4219V380.252ZM95.5664 380.252H98.7188V375.377L98.4082 375.916L95.5664 380.252Z" fill="#3C3C3B"/>
<path d="M523.066 144H522.363V136.312L520.043 137.174V136.518L522.949 135.439H523.066V144ZM531.715 135.873L528.07 144H527.338L530.959 136.066H526.107V135.469H531.715V135.873ZM537.252 135.404V136.02H537.17C536.15 136.02 535.348 136.32 534.762 136.922C534.176 137.52 533.852 138.352 533.789 139.418C534.023 139.094 534.322 138.844 534.686 138.668C535.049 138.488 535.455 138.398 535.904 138.398C536.654 138.398 537.25 138.658 537.691 139.178C538.137 139.693 538.359 140.369 538.359 141.205C538.359 141.76 538.256 142.26 538.049 142.705C537.842 143.15 537.545 143.498 537.158 143.748C536.771 143.994 536.33 144.117 535.834 144.117C535.018 144.117 534.354 143.822 533.842 143.232C533.33 142.639 533.074 141.873 533.074 140.936V140.232C533.074 138.705 533.422 137.523 534.117 136.688C534.812 135.848 535.799 135.42 537.076 135.404H537.252ZM535.793 139.002C535.348 139.002 534.932 139.135 534.545 139.4C534.162 139.662 533.906 139.996 533.777 140.402V141C533.777 141.742 533.967 142.348 534.346 142.816C534.729 143.285 535.225 143.52 535.834 143.52C536.381 143.52 536.822 143.303 537.158 142.869C537.498 142.436 537.668 141.889 537.668 141.229C537.668 140.557 537.498 140.018 537.158 139.611C536.822 139.205 536.367 139.002 535.793 139.002ZM540.246 139.629L540.662 135.469H544.928V136.119H541.266L540.967 139.002C541.424 138.689 541.959 138.533 542.572 138.533C543.342 138.533 543.955 138.783 544.412 139.283C544.869 139.783 545.098 140.449 545.098 141.281C545.098 142.18 544.875 142.877 544.43 143.373C543.984 143.869 543.357 144.117 542.549 144.117C541.807 144.117 541.205 143.91 540.744 143.496C540.283 143.082 540.02 142.502 539.953 141.756H540.627C540.693 142.338 540.891 142.779 541.219 143.08C541.547 143.377 541.99 143.525 542.549 143.525C543.158 143.525 543.617 143.332 543.926 142.945C544.238 142.559 544.395 142.008 544.395 141.293C544.395 140.668 544.221 140.158 543.873 139.764C543.525 139.369 543.051 139.172 542.449 139.172C542.117 139.172 541.828 139.215 541.582 139.301C541.336 139.383 541.076 139.545 540.803 139.787L540.246 139.629Z" fill="#3C3C3B"/>
<path d="M769.277 306.629L769.693 302.469H773.959V303.119H770.297L769.998 306.002C770.455 305.689 770.99 305.533 771.604 305.533C772.373 305.533 772.986 305.783 773.443 306.283C773.9 306.783 774.129 307.449 774.129 308.281C774.129 309.18 773.906 309.877 773.461 310.373C773.016 310.869 772.389 311.117 771.58 311.117C770.838 311.117 770.236 310.91 769.775 310.496C769.314 310.082 769.051 309.502 768.984 308.756H769.658C769.725 309.338 769.922 309.779 770.25 310.08C770.578 310.377 771.021 310.525 771.58 310.525C772.189 310.525 772.648 310.332 772.957 309.945C773.27 309.559 773.426 309.008 773.426 308.293C773.426 307.668 773.252 307.158 772.904 306.764C772.557 306.369 772.082 306.172 771.48 306.172C771.148 306.172 770.859 306.215 770.613 306.301C770.367 306.383 770.107 306.545 769.834 306.787L769.277 306.629ZM778.723 311H778.02V303.312L775.699 304.174V303.518L778.605 302.439H778.723V311ZM786.422 308.252H787.752V308.844H786.422V311H785.719V308.844H781.705V308.445L785.654 302.469H786.422V308.252ZM782.566 308.252H785.719V303.377L785.408 303.916L782.566 308.252Z" fill="#3C3C3B"/>
<path d="M1015.11 308.252H1016.44V308.844H1015.11V311H1014.41V308.844H1010.39V308.445L1014.34 302.469H1015.11V308.252ZM1011.25 308.252H1014.41V303.377L1014.1 303.916L1011.25 308.252ZM1019.02 306.354H1019.74C1020.15 306.354 1020.5 306.283 1020.8 306.143C1021.1 305.998 1021.33 305.803 1021.48 305.557C1021.64 305.307 1021.72 305.02 1021.72 304.695C1021.72 304.148 1021.57 303.721 1021.26 303.412C1020.95 303.104 1020.51 302.949 1019.93 302.949C1019.38 302.949 1018.94 303.111 1018.58 303.436C1018.24 303.756 1018.06 304.18 1018.06 304.707H1017.36C1017.36 304.266 1017.47 303.863 1017.69 303.5C1017.92 303.133 1018.22 302.85 1018.62 302.65C1019.01 302.451 1019.45 302.352 1019.93 302.352C1020.71 302.352 1021.31 302.562 1021.76 302.984C1022.21 303.406 1022.43 303.984 1022.43 304.719C1022.43 305.129 1022.3 305.508 1022.04 305.855C1021.78 306.199 1021.42 306.457 1020.97 306.629C1021.5 306.777 1021.9 307.033 1022.18 307.396C1022.45 307.756 1022.59 308.186 1022.59 308.686C1022.59 309.416 1022.35 310.004 1021.87 310.449C1021.39 310.895 1020.76 311.117 1019.96 311.117C1019.45 311.117 1018.99 311.016 1018.56 310.812C1018.14 310.609 1017.81 310.326 1017.58 309.963C1017.35 309.596 1017.23 309.17 1017.23 308.686H1017.93C1017.93 309.229 1018.12 309.672 1018.5 310.016C1018.88 310.355 1019.37 310.525 1019.96 310.525C1020.57 310.525 1021.04 310.371 1021.37 310.062C1021.71 309.75 1021.88 309.299 1021.88 308.709C1021.88 308.139 1021.7 307.703 1021.33 307.402C1020.97 307.102 1020.43 306.951 1019.72 306.951H1019.02V306.354ZM1028.42 308.252H1029.75V308.844H1028.42V311H1027.72V308.844H1023.71V308.445L1027.65 302.469H1028.42V308.252ZM1024.57 308.252H1027.72V303.377L1027.41 303.916L1024.57 308.252Z" fill="#3C3C3B"/>
<path d="M302.066 461H301.363V453.312L299.043 454.174V453.518L301.949 452.439H302.066V461ZM307.018 456.354H307.744C308.146 456.354 308.498 456.283 308.799 456.143C309.1 455.998 309.328 455.803 309.484 455.557C309.645 455.307 309.725 455.02 309.725 454.695C309.725 454.148 309.57 453.721 309.262 453.412C308.953 453.104 308.51 452.949 307.932 452.949C307.385 452.949 306.936 453.111 306.584 453.436C306.236 453.756 306.062 454.18 306.062 454.707H305.359C305.359 454.266 305.471 453.863 305.693 453.5C305.916 453.133 306.225 452.85 306.619 452.65C307.014 452.451 307.451 452.352 307.932 452.352C308.705 452.352 309.314 452.562 309.76 452.984C310.205 453.406 310.428 453.984 310.428 454.719C310.428 455.129 310.297 455.508 310.035 455.855C309.777 456.199 309.422 456.457 308.969 456.629C309.5 456.777 309.902 457.033 310.176 457.396C310.449 457.756 310.586 458.186 310.586 458.686C310.586 459.416 310.348 460.004 309.871 460.449C309.395 460.895 308.758 461.117 307.961 461.117C307.453 461.117 306.986 461.016 306.561 460.812C306.139 460.609 305.811 460.326 305.576 459.963C305.346 459.596 305.23 459.17 305.23 458.686H305.934C305.934 459.229 306.123 459.672 306.502 460.016C306.881 460.355 307.367 460.525 307.961 460.525C308.566 460.525 309.037 460.371 309.373 460.062C309.713 459.75 309.883 459.299 309.883 458.709C309.883 458.139 309.699 457.703 309.332 457.402C308.969 457.102 308.432 456.951 307.721 456.951H307.018V456.354ZM317.459 461H312.115V460.461L315.039 457.145C315.523 456.586 315.859 456.125 316.047 455.762C316.234 455.398 316.328 455.045 316.328 454.701C316.328 454.162 316.17 453.736 315.854 453.424C315.537 453.107 315.102 452.949 314.547 452.949C313.973 452.949 313.508 453.133 313.152 453.5C312.801 453.867 312.625 454.344 312.625 454.93H311.928C311.928 454.449 312.035 454.012 312.25 453.617C312.469 453.223 312.777 452.914 313.176 452.691C313.578 452.465 314.035 452.352 314.547 452.352C315.328 452.352 315.938 452.557 316.375 452.967C316.816 453.377 317.037 453.936 317.037 454.643C317.037 455.041 316.912 455.477 316.662 455.949C316.416 456.422 315.98 457.012 315.355 457.719L312.977 460.408H317.459V461Z" fill="#3C3C3B"/>
<path d="M30.1465 405H24.8027V404.461L27.7266 401.145C28.2109 400.586 28.5469 400.125 28.7344 399.762C28.9219 399.398 29.0156 399.045 29.0156 398.701C29.0156 398.162 28.8574 397.736 28.541 397.424C28.2246 397.107 27.7891 396.949 27.2344 396.949C26.6602 396.949 26.1953 397.133 25.8398 397.5C25.4883 397.867 25.3125 398.344 25.3125 398.93H24.6152C24.6152 398.449 24.7227 398.012 24.9375 397.617C25.1562 397.223 25.4648 396.914 25.8633 396.691C26.2656 396.465 26.7227 396.352 27.2344 396.352C28.0156 396.352 28.625 396.557 29.0625 396.967C29.5039 397.377 29.7246 397.936 29.7246 398.643C29.7246 399.041 29.5996 399.477 29.3496 399.949C29.1035 400.422 28.668 401.012 28.043 401.719L25.6641 404.408H30.1465V405ZM36.7148 396.873L33.0703 405H32.3379L35.959 397.066H31.1074V396.469H36.7148V396.873ZM42.4922 401.051C42.2422 401.418 41.9316 401.703 41.5605 401.906C41.1895 402.105 40.7871 402.205 40.3535 402.205C39.8691 402.205 39.4414 402.08 39.0703 401.83C38.6992 401.58 38.4121 401.234 38.209 400.793C38.0059 400.352 37.9043 399.869 37.9043 399.346C37.9043 398.783 38.0117 398.271 38.2266 397.811C38.4453 397.35 38.748 396.992 39.1348 396.738C39.5254 396.48 39.9746 396.352 40.4824 396.352C41.3379 396.352 42.0039 396.652 42.4805 397.254C42.957 397.852 43.1953 398.701 43.1953 399.803V400.436C43.1953 401.975 42.8672 403.131 42.2109 403.904C41.5547 404.678 40.5527 405.064 39.2051 405.064H39.0762L39.082 404.455H39.3281C40.3477 404.439 41.123 404.15 41.6543 403.588C42.1855 403.025 42.4648 402.18 42.4922 401.051ZM40.4414 401.602C40.9102 401.602 41.3301 401.463 41.7012 401.186C42.0762 400.904 42.3418 400.541 42.498 400.096V399.691C42.498 398.824 42.3164 398.152 41.9531 397.676C41.5938 397.195 41.1074 396.955 40.4941 396.955C39.9395 396.955 39.4844 397.18 39.1289 397.629C38.7734 398.074 38.5957 398.637 38.5957 399.316C38.5957 399.969 38.7656 400.514 39.1055 400.951C39.4492 401.385 39.8945 401.602 40.4414 401.602Z" fill="#3C3C3B"/>
<path d="M466.066 215H465.363V207.312L463.043 208.174V207.518L465.949 206.439H466.066V215ZM473.766 212.252H475.096V212.844H473.766V215H473.062V212.844H469.049V212.445L472.998 206.469H473.766V212.252ZM469.91 212.252H473.062V207.377L472.752 207.916L469.91 212.252ZM476.59 210.629L477.006 206.469H481.271V207.119H477.609L477.311 210.002C477.768 209.689 478.303 209.533 478.916 209.533C479.686 209.533 480.299 209.783 480.756 210.283C481.213 210.783 481.441 211.449 481.441 212.281C481.441 213.18 481.219 213.877 480.773 214.373C480.328 214.869 479.701 215.117 478.893 215.117C478.15 215.117 477.549 214.91 477.088 214.496C476.627 214.082 476.363 213.502 476.297 212.756H476.971C477.037 213.338 477.234 213.779 477.562 214.08C477.891 214.377 478.334 214.525 478.893 214.525C479.502 214.525 479.961 214.332 480.27 213.945C480.582 213.559 480.738 213.008 480.738 212.293C480.738 211.668 480.564 211.158 480.217 210.764C479.869 210.369 479.395 210.172 478.793 210.172C478.461 210.172 478.172 210.215 477.926 210.301C477.68 210.383 477.42 210.545 477.146 210.787L476.59 210.629ZM487.078 212.252H488.408V212.844H487.078V215H486.375V212.844H482.361V212.445L486.311 206.469H487.078V212.252ZM483.223 212.252H486.375V207.377L486.064 207.916L483.223 212.252Z" fill="#3C3C3B"/>
<path d="M717.109 345.252H718.439V345.844H717.109V348H716.406V345.844H712.393V345.445L716.342 339.469H717.109V345.252ZM713.254 345.252H716.406V340.377L716.096 340.916L713.254 345.252ZM723.596 339.404V340.02H723.514C722.494 340.02 721.691 340.32 721.105 340.922C720.52 341.52 720.195 342.352 720.133 343.418C720.367 343.094 720.666 342.844 721.029 342.668C721.393 342.488 721.799 342.398 722.248 342.398C722.998 342.398 723.594 342.658 724.035 343.178C724.48 343.693 724.703 344.369 724.703 345.205C724.703 345.76 724.6 346.26 724.393 346.705C724.186 347.15 723.889 347.498 723.502 347.748C723.115 347.994 722.674 348.117 722.178 348.117C721.361 348.117 720.697 347.822 720.186 347.232C719.674 346.639 719.418 345.873 719.418 344.936V344.232C719.418 342.705 719.766 341.523 720.461 340.688C721.156 339.848 722.143 339.42 723.42 339.404H723.596ZM722.137 343.002C721.691 343.002 721.275 343.135 720.889 343.4C720.506 343.662 720.25 343.996 720.121 344.402V345C720.121 345.742 720.311 346.348 720.689 346.816C721.072 347.285 721.568 347.52 722.178 347.52C722.725 347.52 723.166 347.303 723.502 346.869C723.842 346.436 724.012 345.889 724.012 345.229C724.012 344.557 723.842 344.018 723.502 343.611C723.166 343.205 722.711 343.002 722.137 343.002ZM730.422 345.252H731.752V345.844H730.422V348H729.719V345.844H725.705V345.445L729.654 339.469H730.422V345.252ZM726.566 345.252H729.719V340.377L729.408 340.916L726.566 345.252Z" fill="#3C3C3B"/>
<path d="M956.361 343.354H957.088C957.49 343.354 957.842 343.283 958.143 343.143C958.443 342.998 958.672 342.803 958.828 342.557C958.988 342.307 959.068 342.02 959.068 341.695C959.068 341.148 958.914 340.721 958.605 340.412C958.297 340.104 957.854 339.949 957.275 339.949C956.729 339.949 956.279 340.111 955.928 340.436C955.58 340.756 955.406 341.18 955.406 341.707H954.703C954.703 341.266 954.814 340.863 955.037 340.5C955.26 340.133 955.568 339.85 955.963 339.65C956.357 339.451 956.795 339.352 957.275 339.352C958.049 339.352 958.658 339.562 959.104 339.984C959.549 340.406 959.771 340.984 959.771 341.719C959.771 342.129 959.641 342.508 959.379 342.855C959.121 343.199 958.766 343.457 958.312 343.629C958.844 343.777 959.246 344.033 959.52 344.396C959.793 344.756 959.93 345.186 959.93 345.686C959.93 346.416 959.691 347.004 959.215 347.449C958.738 347.895 958.102 348.117 957.305 348.117C956.797 348.117 956.33 348.016 955.904 347.812C955.482 347.609 955.154 347.326 954.92 346.963C954.689 346.596 954.574 346.17 954.574 345.686H955.277C955.277 346.229 955.467 346.672 955.846 347.016C956.225 347.355 956.711 347.525 957.305 347.525C957.91 347.525 958.381 347.371 958.717 347.062C959.057 346.75 959.227 346.299 959.227 345.709C959.227 345.139 959.043 344.703 958.676 344.402C958.312 344.102 957.775 343.951 957.064 343.951H956.361V343.354ZM965.596 339.404V340.02H965.514C964.494 340.02 963.691 340.32 963.105 340.922C962.52 341.52 962.195 342.352 962.133 343.418C962.367 343.094 962.666 342.844 963.029 342.668C963.393 342.488 963.799 342.398 964.248 342.398C964.998 342.398 965.594 342.658 966.035 343.178C966.48 343.693 966.703 344.369 966.703 345.205C966.703 345.76 966.6 346.26 966.393 346.705C966.186 347.15 965.889 347.498 965.502 347.748C965.115 347.994 964.674 348.117 964.178 348.117C963.361 348.117 962.697 347.822 962.186 347.232C961.674 346.639 961.418 345.873 961.418 344.936V344.232C961.418 342.705 961.766 341.523 962.461 340.688C963.156 339.848 964.143 339.42 965.42 339.404H965.596ZM964.137 343.002C963.691 343.002 963.275 343.135 962.889 343.4C962.506 343.662 962.25 343.996 962.121 344.402V345C962.121 345.742 962.311 346.348 962.689 346.816C963.072 347.285 963.568 347.52 964.178 347.52C964.725 347.52 965.166 347.303 965.502 346.869C965.842 346.436 966.012 345.889 966.012 345.229C966.012 344.557 965.842 344.018 965.502 343.611C965.166 343.205 964.711 343.002 964.137 343.002ZM973.459 348H968.115V347.461L971.039 344.145C971.523 343.586 971.859 343.125 972.047 342.762C972.234 342.398 972.328 342.045 972.328 341.701C972.328 341.162 972.17 340.736 971.854 340.424C971.537 340.107 971.102 339.949 970.547 339.949C969.973 339.949 969.508 340.133 969.152 340.5C968.801 340.867 968.625 341.344 968.625 341.93H967.928C967.928 341.449 968.035 341.012 968.25 340.617C968.469 340.223 968.777 339.914 969.176 339.691C969.578 339.465 970.035 339.352 970.547 339.352C971.328 339.352 971.938 339.557 972.375 339.967C972.816 340.377 973.037 340.936 973.037 341.643C973.037 342.041 972.912 342.477 972.662 342.949C972.416 343.422 971.98 344.012 971.355 344.719L968.977 347.408H973.459V348Z" fill="#3C3C3B"/>
<path d="M246.066 467H245.363V459.312L243.043 460.174V459.518L245.949 458.439H246.066V467ZM254.604 463.443C254.604 464.646 254.383 465.561 253.941 466.186C253.5 466.807 252.85 467.117 251.99 467.117C251.146 467.117 250.5 466.812 250.051 466.203C249.602 465.59 249.371 464.699 249.359 463.531V462.002C249.359 460.803 249.582 459.895 250.027 459.277C250.473 458.66 251.123 458.352 251.979 458.352C252.822 458.352 253.467 458.65 253.912 459.248C254.357 459.842 254.588 460.719 254.604 461.879V463.443ZM253.9 461.914C253.9 460.938 253.74 460.199 253.42 459.699C253.104 459.199 252.623 458.949 251.979 458.949C251.346 458.949 250.869 459.193 250.549 459.682C250.229 460.17 250.064 460.891 250.057 461.844V463.52C250.057 464.492 250.221 465.236 250.549 465.752C250.881 466.268 251.361 466.525 251.99 466.525C252.615 466.525 253.088 466.273 253.408 465.77C253.732 465.266 253.896 464.527 253.9 463.555V461.914ZM261.459 467H256.115V466.461L259.039 463.145C259.523 462.586 259.859 462.125 260.047 461.762C260.234 461.398 260.328 461.045 260.328 460.701C260.328 460.162 260.17 459.736 259.854 459.424C259.537 459.107 259.102 458.949 258.547 458.949C257.973 458.949 257.508 459.133 257.152 459.5C256.801 459.867 256.625 460.344 256.625 460.93H255.928C255.928 460.449 256.035 460.012 256.25 459.617C256.469 459.223 256.777 458.914 257.176 458.691C257.578 458.465 258.035 458.352 258.547 458.352C259.328 458.352 259.938 458.557 260.375 458.967C260.816 459.377 261.037 459.936 261.037 460.643C261.037 461.041 260.912 461.477 260.662 461.949C260.416 462.422 259.98 463.012 259.355 463.719L256.977 466.408H261.459V467Z" fill="#3C3C3B"/>
</svg>
