<svg width="1088" height="546" viewBox="0 0 1088 546" fill="none" xmlns="http://www.w3.org/2000/svg">
<path d="M25.4941 539.32H24.5391V543H23.0625V539.32H22.0664L19.9746 543H18.1289L20.877 538.459L18.3105 534.469H20.1035L22.1426 538.031H23.0625V534.469H24.5391V538.031H25.418L27.4395 534.469H29.2266L26.6836 538.447L29.4082 543H27.5684L25.4941 539.32ZM34.1367 536.66H35.5547V543H34.1367V538.77L31.6523 543H30.2344V536.66H31.6523V540.891L34.1367 536.66ZM42.457 536.66V543H41.0332V537.809H39.2402L39.123 540.018C39.0488 541.08 38.8438 541.844 38.5078 542.309C38.1758 542.77 37.666 543 36.9785 543H36.5391L36.5332 541.816L36.8262 541.787C37.1387 541.744 37.3652 541.555 37.5059 541.219C37.6504 540.879 37.7422 540.262 37.7812 539.367L37.8984 536.66H42.457ZM43.7051 539.771C43.7051 539.15 43.8281 538.592 44.0742 538.096C44.3203 537.596 44.666 537.213 45.1113 536.947C45.5566 536.678 46.0684 536.543 46.6465 536.543C47.502 536.543 48.1953 536.818 48.7266 537.369C49.2617 537.92 49.5508 538.65 49.5938 539.561L49.5996 539.895C49.5996 540.52 49.4785 541.078 49.2363 541.57C48.998 542.062 48.6543 542.443 48.2051 542.713C47.7598 542.982 47.2441 543.117 46.6582 543.117C45.7637 543.117 45.0469 542.82 44.5078 542.227C43.9727 541.629 43.7051 540.834 43.7051 539.842V539.771ZM45.1289 539.895C45.1289 540.547 45.2637 541.059 45.5332 541.43C45.8027 541.797 46.1777 541.98 46.6582 541.98C47.1387 541.98 47.5117 541.793 47.7773 541.418C48.0469 541.043 48.1816 540.494 48.1816 539.771C48.1816 539.131 48.043 538.623 47.7656 538.248C47.4922 537.873 47.1191 537.686 46.6465 537.686C46.1816 537.686 45.8125 537.871 45.5391 538.242C45.2656 538.609 45.1289 539.16 45.1289 539.895ZM54.7617 536.66H56.1797V543H54.7617V538.77L52.2773 543H50.8594V536.66H52.2773V540.891L54.7617 536.66ZM55.4297 534.229C55.4297 534.721 55.2578 535.119 54.9141 535.424C54.5703 535.729 54.1113 535.881 53.5371 535.881C52.9629 535.881 52.5039 535.729 52.1602 535.424C51.8164 535.119 51.6445 534.721 51.6445 534.229H52.7109C52.7109 534.486 52.7832 534.688 52.9277 534.832C53.0762 534.973 53.2793 535.043 53.5371 535.043C53.7949 535.043 53.9961 534.973 54.1406 534.832C54.2852 534.688 54.3574 534.486 54.3574 534.229H55.4297ZM62.9355 540.492H62.2148V543H60.791V536.66H62.2148V539.191H62.8418L64.5938 536.66H66.3516L64.0605 539.695L66.5449 543H64.6934L62.9355 540.492ZM66.7207 539.771C66.7207 539.15 66.8438 538.592 67.0898 538.096C67.3359 537.596 67.6816 537.213 68.127 536.947C68.5723 536.678 69.084 536.543 69.6621 536.543C70.5176 536.543 71.2109 536.818 71.7422 537.369C72.2773 537.92 72.5664 538.65 72.6094 539.561L72.6152 539.895C72.6152 540.52 72.4941 541.078 72.252 541.57C72.0137 542.062 71.6699 542.443 71.2207 542.713C70.7754 542.982 70.2598 543.117 69.6738 543.117C68.7793 543.117 68.0625 542.82 67.5234 542.227C66.9883 541.629 66.7207 540.834 66.7207 539.842V539.771ZM68.1445 539.895C68.1445 540.547 68.2793 541.059 68.5488 541.43C68.8184 541.797 69.1934 541.98 69.6738 541.98C70.1543 541.98 70.5273 541.793 70.793 541.418C71.0625 541.043 71.1973 540.494 71.1973 539.771C71.1973 539.131 71.0586 538.623 70.7812 538.248C70.5078 537.873 70.1348 537.686 69.6621 537.686C69.1973 537.686 68.8281 537.871 68.5547 538.242C68.2812 538.609 68.1445 539.16 68.1445 539.895ZM77.584 541.248L79.459 536.66H81.2402V543H79.8164V538.805L78.0703 543H77.1035L75.3516 538.781V543H73.9277V536.66H75.7207L77.584 541.248ZM88.2188 543H86.7949V537.809H84.3223V543H82.8984V536.66H88.2188V543ZM95.1211 536.66V543H93.6973V537.809H91.9043L91.7871 540.018C91.7129 541.08 91.5078 541.844 91.1719 542.309C90.8398 542.77 90.3301 543 89.6426 543H89.2031L89.1973 541.816L89.4902 541.787C89.8027 541.744 90.0293 541.555 90.1699 541.219C90.3145 540.879 90.4062 540.262 90.4453 539.367L90.5625 536.66H95.1211ZM99.4277 543.117C98.5254 543.117 97.793 542.834 97.2305 542.268C96.6719 541.697 96.3926 540.939 96.3926 539.994V539.818C96.3926 539.186 96.5137 538.621 96.7559 538.125C97.002 537.625 97.3457 537.236 97.7871 536.959C98.2285 536.682 98.7207 536.543 99.2637 536.543C100.127 536.543 100.793 536.818 101.262 537.369C101.734 537.92 101.971 538.699 101.971 539.707V540.281H97.8281C97.8711 540.805 98.0449 541.219 98.3496 541.523C98.6582 541.828 99.0449 541.98 99.5098 541.98C100.162 541.98 100.693 541.717 101.104 541.189L101.871 541.922C101.617 542.301 101.277 542.596 100.852 542.807C100.43 543.014 99.9551 543.117 99.4277 543.117ZM99.2578 537.686C98.8672 537.686 98.5508 537.822 98.3086 538.096C98.0703 538.369 97.918 538.75 97.8516 539.238H100.564V539.133C100.533 538.656 100.406 538.297 100.184 538.055C99.9609 537.809 99.6523 537.686 99.2578 537.686ZM105.334 540.492H104.613V543H103.189V536.66H104.613V539.191H105.24L106.992 536.66H108.75L106.459 539.695L108.943 543H107.092L105.334 540.492ZM112.236 541.98C112.592 541.98 112.887 541.877 113.121 541.67C113.355 541.463 113.48 541.207 113.496 540.902H114.838C114.822 541.297 114.699 541.666 114.469 542.01C114.238 542.35 113.926 542.619 113.531 542.818C113.137 543.018 112.711 543.117 112.254 543.117C111.367 543.117 110.664 542.83 110.145 542.256C109.625 541.682 109.365 540.889 109.365 539.877V539.73C109.365 538.766 109.623 537.994 110.139 537.416C110.654 536.834 111.357 536.543 112.248 536.543C113.002 536.543 113.615 536.764 114.088 537.205C114.564 537.643 114.814 538.219 114.838 538.934H113.496C113.48 538.57 113.355 538.271 113.121 538.037C112.891 537.803 112.596 537.686 112.236 537.686C111.775 537.686 111.42 537.854 111.17 538.189C110.92 538.521 110.793 539.027 110.789 539.707V539.936C110.789 540.623 110.912 541.137 111.158 541.477C111.408 541.812 111.768 541.98 112.236 541.98Z" fill="#3C3C3B"/>
<path d="M234.414 538.957C234.414 539.793 234.27 540.527 233.98 541.16C233.691 541.789 233.277 542.273 232.738 542.613C232.203 542.949 231.586 543.117 230.887 543.117C230.195 543.117 229.578 542.949 229.035 542.613C228.496 542.273 228.078 541.791 227.781 541.166C227.488 540.541 227.34 539.82 227.336 539.004V538.523C227.336 537.691 227.482 536.957 227.775 536.32C228.072 535.684 228.488 535.197 229.023 534.861C229.562 534.521 230.18 534.352 230.875 534.352C231.57 534.352 232.186 534.52 232.721 534.855C233.26 535.188 233.676 535.668 233.969 536.297C234.262 536.922 234.41 537.65 234.414 538.482V538.957ZM232.932 538.512C232.932 537.566 232.752 536.842 232.393 536.338C232.037 535.834 231.531 535.582 230.875 535.582C230.234 535.582 229.732 535.834 229.369 536.338C229.01 536.838 228.826 537.547 228.818 538.465V538.957C228.818 539.895 229 540.619 229.363 541.131C229.73 541.643 230.238 541.898 230.887 541.898C231.543 541.898 232.047 541.648 232.398 541.148C232.754 540.648 232.932 539.918 232.932 538.957V538.512ZM238.738 537.012C239.535 537.012 240.174 537.279 240.654 537.814C241.135 538.346 241.375 539.068 241.375 539.982V540.053C241.375 540.967 241.113 541.707 240.59 542.273C240.07 542.84 239.363 543.123 238.469 543.123C237.598 543.123 236.895 542.834 236.359 542.256C235.824 541.678 235.557 540.889 235.557 539.889V539.479C235.557 538.111 235.799 537.029 236.283 536.232C236.768 535.436 237.49 534.938 238.451 534.738C238.99 534.629 239.338 534.514 239.494 534.393C239.654 534.268 239.734 534.1 239.734 533.889H240.883C240.883 534.283 240.818 534.604 240.689 534.85C240.561 535.096 240.363 535.297 240.098 535.453C239.832 535.605 239.375 535.75 238.727 535.887C238.133 536.012 237.68 536.234 237.367 536.555C237.059 536.875 236.852 537.318 236.746 537.885C237.312 537.303 237.977 537.012 238.738 537.012ZM238.457 538.154C237.996 538.154 237.635 538.311 237.373 538.623C237.111 538.932 236.98 539.408 236.98 540.053C236.98 540.662 237.109 541.137 237.367 541.477C237.625 541.816 237.992 541.986 238.469 541.986C238.941 541.986 239.307 541.816 239.564 541.477C239.826 541.133 239.957 540.617 239.957 539.93C239.957 539.383 239.826 538.951 239.564 538.635C239.307 538.314 238.938 538.154 238.457 538.154ZM243.818 536.66V541.863H245.799V536.66H247.223V541.863H249.209V536.66H250.627V541.863H251.711L251.594 544.881H250.299V543H242.395V536.66H243.818ZM255.455 543.117C254.553 543.117 253.82 542.834 253.258 542.268C252.699 541.697 252.42 540.939 252.42 539.994V539.818C252.42 539.186 252.541 538.621 252.783 538.125C253.029 537.625 253.373 537.236 253.814 536.959C254.256 536.682 254.748 536.543 255.291 536.543C256.154 536.543 256.82 536.818 257.289 537.369C257.762 537.92 257.998 538.699 257.998 539.707V540.281H253.855C253.898 540.805 254.072 541.219 254.377 541.523C254.686 541.828 255.072 541.98 255.537 541.98C256.189 541.98 256.721 541.717 257.131 541.189L257.898 541.922C257.645 542.301 257.305 542.596 256.879 542.807C256.457 543.014 255.982 543.117 255.455 543.117ZM255.285 537.686C254.895 537.686 254.578 537.822 254.336 538.096C254.098 538.369 253.945 538.75 253.879 539.238H256.592V539.133C256.561 538.656 256.434 538.297 256.211 538.055C255.988 537.809 255.68 537.686 255.285 537.686ZM261.713 541.98C262.068 541.98 262.363 541.877 262.598 541.67C262.832 541.463 262.957 541.207 262.973 540.902H264.314C264.299 541.297 264.176 541.666 263.945 542.01C263.715 542.35 263.402 542.619 263.008 542.818C262.613 543.018 262.188 543.117 261.73 543.117C260.844 543.117 260.141 542.83 259.621 542.256C259.102 541.682 258.842 540.889 258.842 539.877V539.73C258.842 538.766 259.1 537.994 259.615 537.416C260.131 536.834 260.834 536.543 261.725 536.543C262.479 536.543 263.092 536.764 263.564 537.205C264.041 537.643 264.291 538.219 264.314 538.934H262.973C262.957 538.57 262.832 538.271 262.598 538.037C262.367 537.803 262.072 537.686 261.713 537.686C261.252 537.686 260.896 537.854 260.646 538.189C260.396 538.521 260.27 539.027 260.266 539.707V539.936C260.266 540.623 260.389 541.137 260.635 541.477C260.885 541.812 261.244 541.98 261.713 541.98ZM270.379 537.791H268.322V543H266.898V537.791H264.865V536.66H270.379V537.791ZM271.439 543V536.66H274.012C274.879 536.66 275.539 536.812 275.992 537.117C276.445 537.418 276.672 537.852 276.672 538.418C276.672 538.711 276.58 538.975 276.396 539.209C276.217 539.439 275.949 539.617 275.594 539.742C276.008 539.828 276.336 540.002 276.578 540.264C276.82 540.525 276.941 540.834 276.941 541.189C276.941 541.779 276.723 542.229 276.285 542.537C275.852 542.846 275.227 543 274.41 543H271.439ZM272.863 540.299V541.875H274.422C275.152 541.875 275.518 541.613 275.518 541.09C275.518 540.562 275.146 540.299 274.404 540.299H272.863ZM272.863 539.279H274.035C274.844 539.279 275.248 539.041 275.248 538.564C275.248 538.064 274.865 537.807 274.1 537.791H272.863V539.279ZM280.967 543.117C280.064 543.117 279.332 542.834 278.77 542.268C278.211 541.697 277.932 540.939 277.932 539.994V539.818C277.932 539.186 278.053 538.621 278.295 538.125C278.541 537.625 278.885 537.236 279.326 536.959C279.768 536.682 280.26 536.543 280.803 536.543C281.666 536.543 282.332 536.818 282.801 537.369C283.273 537.92 283.51 538.699 283.51 539.707V540.281H279.367C279.41 540.805 279.584 541.219 279.889 541.523C280.197 541.828 280.584 541.98 281.049 541.98C281.701 541.98 282.232 541.717 282.643 541.189L283.41 541.922C283.156 542.301 282.816 542.596 282.391 542.807C281.969 543.014 281.494 543.117 280.967 543.117ZM280.797 537.686C280.406 537.686 280.09 537.822 279.848 538.096C279.609 538.369 279.457 538.75 279.391 539.238H282.104V539.133C282.072 538.656 281.945 538.297 281.723 538.055C281.5 537.809 281.191 537.686 280.797 537.686ZM289.99 543H288.566V540.439H286.1V543H284.676V536.66H286.1V539.303H288.566V536.66H289.99V543ZM296.881 543H295.457V540.439H292.99V543H291.566V536.66H292.99V539.303H295.457V536.66H296.881V543ZM299.934 538.676H301.328C301.848 538.676 302.301 538.766 302.688 538.945C303.074 539.125 303.367 539.377 303.566 539.701C303.77 540.025 303.871 540.402 303.871 540.832C303.871 541.484 303.641 542.008 303.18 542.402C302.719 542.797 302.105 542.996 301.34 543H298.51V536.66H299.934V538.676ZM306.35 543H304.926V536.66H306.35V543ZM299.934 539.818V541.863H301.322C301.67 541.863 301.943 541.777 302.143 541.605C302.346 541.43 302.447 541.182 302.447 540.861C302.447 540.541 302.348 540.289 302.148 540.105C301.953 539.918 301.688 539.822 301.352 539.818H299.934ZM310.85 543.117C309.947 543.117 309.215 542.834 308.652 542.268C308.094 541.697 307.814 540.939 307.814 539.994V539.818C307.814 539.186 307.936 538.621 308.178 538.125C308.424 537.625 308.768 537.236 309.209 536.959C309.65 536.682 310.143 536.543 310.686 536.543C311.549 536.543 312.215 536.818 312.684 537.369C313.156 537.92 313.393 538.699 313.393 539.707V540.281H309.25C309.293 540.805 309.467 541.219 309.771 541.523C310.08 541.828 310.467 541.98 310.932 541.98C311.584 541.98 312.115 541.717 312.525 541.189L313.293 541.922C313.039 542.301 312.699 542.596 312.273 542.807C311.852 543.014 311.377 543.117 310.85 543.117ZM310.68 537.686C310.289 537.686 309.973 537.822 309.73 538.096C309.492 538.369 309.34 538.75 309.273 539.238H311.986V539.133C311.955 538.656 311.828 538.297 311.605 538.055C311.383 537.809 311.074 537.686 310.68 537.686ZM322.293 538.395C322.293 538.676 322.207 538.936 322.035 539.174C321.867 539.408 321.629 539.596 321.32 539.736C322.047 539.99 322.41 540.48 322.41 541.207C322.41 541.789 322.174 542.254 321.701 542.602C321.229 542.945 320.596 543.117 319.803 543.117C319.318 543.117 318.877 543.037 318.479 542.877C318.08 542.713 317.77 542.482 317.547 542.186C317.324 541.885 317.213 541.529 317.213 541.119H318.631C318.631 541.377 318.746 541.594 318.977 541.77C319.207 541.941 319.498 542.027 319.85 542.027C320.197 542.027 320.473 541.947 320.676 541.787C320.883 541.623 320.986 541.41 320.986 541.148C320.986 540.84 320.896 540.617 320.717 540.48C320.537 540.344 320.26 540.275 319.885 540.275H318.865V539.25H319.92C320.557 539.242 320.875 538.98 320.875 538.465C320.875 538.207 320.783 538.006 320.6 537.861C320.416 537.717 320.164 537.645 319.844 537.645C319.531 537.645 319.268 537.723 319.053 537.879C318.838 538.031 318.73 538.225 318.73 538.459H317.312C317.312 537.9 317.547 537.443 318.016 537.088C318.484 536.729 319.08 536.549 319.803 536.549C320.588 536.549 321.199 536.709 321.637 537.029C322.074 537.35 322.293 537.805 322.293 538.395ZM323.646 541.863C324.041 541.422 324.305 541.004 324.438 540.609C324.574 540.211 324.656 539.703 324.684 539.086L324.766 536.66H329.166V541.863H330.045V544.887H328.627V543H324.561V544.887H323.119L323.125 541.863H323.646ZM325.316 541.863H327.748V537.885H326.148L326.107 539.098C326.053 540.262 325.789 541.184 325.316 541.863ZM334.85 543C334.787 542.879 334.732 542.682 334.686 542.408C334.232 542.881 333.678 543.117 333.021 543.117C332.385 543.117 331.865 542.936 331.463 542.572C331.061 542.209 330.859 541.76 330.859 541.225C330.859 540.549 331.109 540.031 331.609 539.672C332.113 539.309 332.832 539.127 333.766 539.127H334.639V538.711C334.639 538.383 334.547 538.121 334.363 537.926C334.18 537.727 333.9 537.627 333.525 537.627C333.201 537.627 332.936 537.709 332.729 537.873C332.521 538.033 332.418 538.238 332.418 538.488H330.994C330.994 538.141 331.109 537.816 331.34 537.516C331.57 537.211 331.883 536.973 332.277 536.801C332.676 536.629 333.119 536.543 333.607 536.543C334.35 536.543 334.941 536.73 335.383 537.105C335.824 537.477 336.051 538 336.062 538.676V541.535C336.062 542.105 336.143 542.561 336.303 542.9V543H334.85ZM333.285 541.975C333.566 541.975 333.83 541.906 334.076 541.77C334.326 541.633 334.514 541.449 334.639 541.219V540.023H333.871C333.344 540.023 332.947 540.115 332.682 540.299C332.416 540.482 332.283 540.742 332.283 541.078C332.283 541.352 332.373 541.57 332.553 541.734C332.736 541.895 332.98 541.975 333.285 541.975ZM342.924 543H341.5V540.439H339.033V543H337.609V536.66H339.033V539.303H341.5V536.66H342.924V543ZM348.402 536.66H349.82V543H348.402V538.77L345.918 543H344.5V536.66H345.918V540.891L348.402 536.66ZM356.412 536.66V543H354.994V540.674H353.664L352.311 543H350.834L352.328 540.439C351.938 540.275 351.637 540.041 351.426 539.736C351.219 539.432 351.115 539.082 351.115 538.688C351.115 538.098 351.342 537.615 351.795 537.24C352.252 536.861 352.867 536.668 353.641 536.66H356.412ZM352.539 538.723C352.539 538.988 352.637 539.205 352.832 539.373C353.031 539.537 353.285 539.619 353.594 539.619H354.994V537.791H353.682C353.334 537.791 353.057 537.879 352.85 538.055C352.643 538.23 352.539 538.453 352.539 538.723Z" fill="#3C3C3B"/>
<path d="M476.1 538.957C476.1 539.793 475.955 540.527 475.666 541.16C475.377 541.789 474.963 542.273 474.424 542.613C473.889 542.949 473.271 543.117 472.572 543.117C471.881 543.117 471.264 542.949 470.721 542.613C470.182 542.273 469.764 541.791 469.467 541.166C469.174 540.541 469.025 539.82 469.021 539.004V538.523C469.021 537.691 469.168 536.957 469.461 536.32C469.758 535.684 470.174 535.197 470.709 534.861C471.248 534.521 471.865 534.352 472.561 534.352C473.256 534.352 473.871 534.52 474.406 534.855C474.945 535.188 475.361 535.668 475.654 536.297C475.947 536.922 476.096 537.65 476.1 538.482V538.957ZM474.617 538.512C474.617 537.566 474.438 536.842 474.078 536.338C473.723 535.834 473.217 535.582 472.561 535.582C471.92 535.582 471.418 535.834 471.055 536.338C470.695 536.838 470.512 537.547 470.504 538.465V538.957C470.504 539.895 470.686 540.619 471.049 541.131C471.416 541.643 471.924 541.898 472.572 541.898C473.229 541.898 473.732 541.648 474.084 541.148C474.439 540.648 474.617 539.918 474.617 538.957V538.512ZM480.424 537.012C481.221 537.012 481.859 537.279 482.34 537.814C482.82 538.346 483.061 539.068 483.061 539.982V540.053C483.061 540.967 482.799 541.707 482.275 542.273C481.756 542.84 481.049 543.123 480.154 543.123C479.283 543.123 478.58 542.834 478.045 542.256C477.51 541.678 477.242 540.889 477.242 539.889V539.479C477.242 538.111 477.484 537.029 477.969 536.232C478.453 535.436 479.176 534.938 480.137 534.738C480.676 534.629 481.023 534.514 481.18 534.393C481.34 534.268 481.42 534.1 481.42 533.889H482.568C482.568 534.283 482.504 534.604 482.375 534.85C482.246 535.096 482.049 535.297 481.783 535.453C481.518 535.605 481.061 535.75 480.412 535.887C479.818 536.012 479.365 536.234 479.053 536.555C478.744 536.875 478.537 537.318 478.432 537.885C478.998 537.303 479.662 537.012 480.424 537.012ZM480.143 538.154C479.682 538.154 479.32 538.311 479.059 538.623C478.797 538.932 478.666 539.408 478.666 540.053C478.666 540.662 478.795 541.137 479.053 541.477C479.311 541.816 479.678 541.986 480.154 541.986C480.627 541.986 480.992 541.816 481.25 541.477C481.512 541.133 481.643 540.617 481.643 539.93C481.643 539.383 481.512 538.951 481.25 538.635C480.992 538.314 480.623 538.154 480.143 538.154ZM486.881 538.676H488.275C488.795 538.676 489.248 538.766 489.635 538.945C490.021 539.125 490.314 539.377 490.514 539.701C490.717 540.025 490.818 540.402 490.818 540.832C490.818 541.484 490.588 542.008 490.127 542.402C489.666 542.797 489.053 542.996 488.287 543H485.457V537.809H483.629V536.66H486.881V538.676ZM486.881 539.818V541.863H488.27C488.617 541.863 488.891 541.777 489.09 541.605C489.293 541.43 489.395 541.182 489.395 540.861C489.395 540.541 489.295 540.289 489.096 540.105C488.9 539.918 488.635 539.822 488.299 539.818H486.881ZM494.609 543.117C493.707 543.117 492.975 542.834 492.412 542.268C491.854 541.697 491.574 540.939 491.574 539.994V539.818C491.574 539.186 491.695 538.621 491.938 538.125C492.184 537.625 492.527 537.236 492.969 536.959C493.41 536.682 493.902 536.543 494.445 536.543C495.309 536.543 495.975 536.818 496.443 537.369C496.916 537.92 497.152 538.699 497.152 539.707V540.281H493.01C493.053 540.805 493.227 541.219 493.531 541.523C493.84 541.828 494.227 541.98 494.691 541.98C495.344 541.98 495.875 541.717 496.285 541.189L497.053 541.922C496.799 542.301 496.459 542.596 496.033 542.807C495.611 543.014 495.137 543.117 494.609 543.117ZM494.439 537.686C494.049 537.686 493.732 537.822 493.49 538.096C493.252 538.369 493.1 538.75 493.033 539.238H495.746V539.133C495.715 538.656 495.588 538.297 495.365 538.055C495.143 537.809 494.834 537.686 494.439 537.686ZM500.516 540.492H499.795V543H498.371V536.66H499.795V539.191H500.422L502.174 536.66H503.932L501.641 539.695L504.125 543H502.273L500.516 540.492ZM509.896 537.791H507.84V543H506.416V537.791H504.383V536.66H509.896V537.791ZM512.381 538.676H513.775C514.295 538.676 514.748 538.766 515.135 538.945C515.521 539.125 515.814 539.377 516.014 539.701C516.217 540.025 516.318 540.402 516.318 540.832C516.318 541.484 516.088 542.008 515.627 542.402C515.166 542.797 514.553 542.996 513.787 543H510.957V536.66H512.381V538.676ZM518.797 543H517.373V536.66H518.797V543ZM512.381 539.818V541.863H513.77C514.117 541.863 514.391 541.777 514.59 541.605C514.793 541.43 514.895 541.182 514.895 540.861C514.895 540.541 514.795 540.289 514.596 540.105C514.4 539.918 514.135 539.822 513.799 539.818H512.381ZM526.479 537.012C527.275 537.012 527.914 537.279 528.395 537.814C528.875 538.346 529.115 539.068 529.115 539.982V540.053C529.115 540.967 528.854 541.707 528.33 542.273C527.811 542.84 527.104 543.123 526.209 543.123C525.338 543.123 524.635 542.834 524.1 542.256C523.564 541.678 523.297 540.889 523.297 539.889V539.479C523.297 538.111 523.539 537.029 524.023 536.232C524.508 535.436 525.23 534.938 526.191 534.738C526.73 534.629 527.078 534.514 527.234 534.393C527.395 534.268 527.475 534.1 527.475 533.889H528.623C528.623 534.283 528.559 534.604 528.43 534.85C528.301 535.096 528.104 535.297 527.838 535.453C527.572 535.605 527.115 535.75 526.467 535.887C525.873 536.012 525.42 536.234 525.107 536.555C524.799 536.875 524.592 537.318 524.486 537.885C525.053 537.303 525.717 537.012 526.479 537.012ZM526.197 538.154C525.736 538.154 525.375 538.311 525.113 538.623C524.852 538.932 524.721 539.408 524.721 540.053C524.721 540.662 524.85 541.137 525.107 541.477C525.365 541.816 525.732 541.986 526.209 541.986C526.682 541.986 527.047 541.816 527.305 541.477C527.566 541.133 527.697 540.617 527.697 539.93C527.697 539.383 527.566 538.951 527.305 538.635C527.047 538.314 526.678 538.154 526.197 538.154ZM535.619 536.66V543H534.195V537.809H532.402L532.285 540.018C532.211 541.08 532.006 541.844 531.67 542.309C531.338 542.77 530.828 543 530.141 543H529.701L529.695 541.816L529.988 541.787C530.301 541.744 530.527 541.555 530.668 541.219C530.812 540.879 530.904 540.262 530.943 539.367L531.061 536.66H535.619ZM540.922 543C540.859 542.879 540.805 542.682 540.758 542.408C540.305 542.881 539.75 543.117 539.094 543.117C538.457 543.117 537.938 542.936 537.535 542.572C537.133 542.209 536.932 541.76 536.932 541.225C536.932 540.549 537.182 540.031 537.682 539.672C538.186 539.309 538.904 539.127 539.838 539.127H540.711V538.711C540.711 538.383 540.619 538.121 540.436 537.926C540.252 537.727 539.973 537.627 539.598 537.627C539.273 537.627 539.008 537.709 538.801 537.873C538.594 538.033 538.49 538.238 538.49 538.488H537.066C537.066 538.141 537.182 537.816 537.412 537.516C537.643 537.211 537.955 536.973 538.35 536.801C538.748 536.629 539.191 536.543 539.68 536.543C540.422 536.543 541.014 536.73 541.455 537.105C541.896 537.477 542.123 538 542.135 538.676V541.535C542.135 542.105 542.215 542.561 542.375 542.9V543H540.922ZM539.357 541.975C539.639 541.975 539.902 541.906 540.148 541.77C540.398 541.633 540.586 541.449 540.711 541.219V540.023H539.943C539.416 540.023 539.02 540.115 538.754 540.299C538.488 540.482 538.355 540.742 538.355 541.078C538.355 541.352 538.445 541.57 538.625 541.734C538.809 541.895 539.053 541.975 539.357 541.975ZM547.848 537.809H545.094V543H543.676V536.66H547.848V537.809ZM548.27 539.771C548.27 539.15 548.393 538.592 548.639 538.096C548.885 537.596 549.23 537.213 549.676 536.947C550.121 536.678 550.633 536.543 551.211 536.543C552.066 536.543 552.76 536.818 553.291 537.369C553.826 537.92 554.115 538.65 554.158 539.561L554.164 539.895C554.164 540.52 554.043 541.078 553.801 541.57C553.562 542.062 553.219 542.443 552.77 542.713C552.324 542.982 551.809 543.117 551.223 543.117C550.328 543.117 549.611 542.82 549.072 542.227C548.537 541.629 548.27 540.834 548.27 539.842V539.771ZM549.693 539.895C549.693 540.547 549.828 541.059 550.098 541.43C550.367 541.797 550.742 541.98 551.223 541.98C551.703 541.98 552.076 541.793 552.342 541.418C552.611 541.043 552.746 540.494 552.746 539.771C552.746 539.131 552.607 538.623 552.33 538.248C552.057 537.873 551.684 537.686 551.211 537.686C550.746 537.686 550.377 537.871 550.104 538.242C549.83 538.609 549.693 539.16 549.693 539.895ZM557.492 540.961L558.781 536.66H560.299L557.779 543.961C557.393 545.027 556.736 545.561 555.811 545.561C555.604 545.561 555.375 545.525 555.125 545.455V544.354L555.395 544.371C555.754 544.371 556.023 544.305 556.203 544.172C556.387 544.043 556.531 543.824 556.637 543.516L556.842 542.971L554.615 536.66H556.15L557.492 540.961ZM563.645 541.98C564 541.98 564.295 541.877 564.529 541.67C564.764 541.463 564.889 541.207 564.904 540.902H566.246C566.23 541.297 566.107 541.666 565.877 542.01C565.646 542.35 565.334 542.619 564.939 542.818C564.545 543.018 564.119 543.117 563.662 543.117C562.775 543.117 562.072 542.83 561.553 542.256C561.033 541.682 560.773 540.889 560.773 539.877V539.73C560.773 538.766 561.031 537.994 561.547 537.416C562.062 536.834 562.766 536.543 563.656 536.543C564.41 536.543 565.023 536.764 565.496 537.205C565.973 537.643 566.223 538.219 566.246 538.934H564.904C564.889 538.57 564.764 538.271 564.529 538.037C564.299 537.803 564.004 537.686 563.645 537.686C563.184 537.686 562.828 537.854 562.578 538.189C562.328 538.521 562.201 539.027 562.197 539.707V539.936C562.197 540.623 562.32 541.137 562.566 541.477C562.816 541.812 563.176 541.98 563.645 541.98ZM572.311 537.791H570.254V543H568.83V537.791H566.797V536.66H572.311V537.791ZM578.814 539.895C578.814 540.875 578.592 541.658 578.146 542.244C577.701 542.826 577.104 543.117 576.354 543.117C575.658 543.117 575.102 542.889 574.684 542.432V545.438H573.26V536.66H574.572L574.631 537.305C575.049 536.797 575.617 536.543 576.336 536.543C577.109 536.543 577.715 536.832 578.152 537.41C578.594 537.984 578.814 538.783 578.814 539.807V539.895ZM577.396 539.771C577.396 539.139 577.27 538.637 577.016 538.266C576.766 537.895 576.406 537.709 575.938 537.709C575.355 537.709 574.938 537.949 574.684 538.43V541.242C574.941 541.734 575.363 541.98 575.949 541.98C576.402 541.98 576.756 541.799 577.01 541.436C577.268 541.068 577.396 540.514 577.396 539.771ZM579.758 539.771C579.758 539.15 579.881 538.592 580.127 538.096C580.373 537.596 580.719 537.213 581.164 536.947C581.609 536.678 582.121 536.543 582.699 536.543C583.555 536.543 584.248 536.818 584.779 537.369C585.314 537.92 585.604 538.65 585.646 539.561L585.652 539.895C585.652 540.52 585.531 541.078 585.289 541.57C585.051 542.062 584.707 542.443 584.258 542.713C583.812 542.982 583.297 543.117 582.711 543.117C581.816 543.117 581.1 542.82 580.561 542.227C580.025 541.629 579.758 540.834 579.758 539.842V539.771ZM581.182 539.895C581.182 540.547 581.316 541.059 581.586 541.43C581.855 541.797 582.23 541.98 582.711 541.98C583.191 541.98 583.564 541.793 583.83 541.418C584.1 541.043 584.234 540.494 584.234 539.771C584.234 539.131 584.096 538.623 583.818 538.248C583.545 537.873 583.172 537.686 582.699 537.686C582.234 537.686 581.865 537.871 581.592 538.242C581.318 538.609 581.182 539.16 581.182 539.895ZM590.814 536.66H592.232V543H590.814V538.77L588.33 543H586.912V536.66H588.33V540.891L590.814 536.66ZM591.482 534.229C591.482 534.721 591.311 535.119 590.967 535.424C590.623 535.729 590.164 535.881 589.59 535.881C589.016 535.881 588.557 535.729 588.213 535.424C587.869 535.119 587.697 534.721 587.697 534.229H588.764C588.764 534.486 588.836 534.688 588.98 534.832C589.129 534.973 589.332 535.043 589.59 535.043C589.848 535.043 590.049 534.973 590.193 534.832C590.338 534.688 590.41 534.486 590.41 534.229H591.482ZM596.352 541.98C596.707 541.98 597.002 541.877 597.236 541.67C597.471 541.463 597.596 541.207 597.611 540.902H598.953C598.938 541.297 598.814 541.666 598.584 542.01C598.354 542.35 598.041 542.619 597.646 542.818C597.252 543.018 596.826 543.117 596.369 543.117C595.482 543.117 594.779 542.83 594.26 542.256C593.74 541.682 593.48 540.889 593.48 539.877V539.73C593.48 538.766 593.738 537.994 594.254 537.416C594.77 536.834 595.473 536.543 596.363 536.543C597.117 536.543 597.73 536.764 598.203 537.205C598.68 537.643 598.93 538.219 598.953 538.934H597.611C597.596 538.57 597.471 538.271 597.236 538.037C597.006 537.803 596.711 537.686 596.352 537.686C595.891 537.686 595.535 537.854 595.285 538.189C595.035 538.521 594.908 539.027 594.904 539.707V539.936C594.904 540.623 595.027 541.137 595.273 541.477C595.523 541.812 595.883 541.98 596.352 541.98ZM605.018 537.791H602.961V543H601.537V537.791H599.504V536.66H605.018V537.791ZM606.078 543V536.66H608.65C609.518 536.66 610.178 536.812 610.631 537.117C611.084 537.418 611.311 537.852 611.311 538.418C611.311 538.711 611.219 538.975 611.035 539.209C610.855 539.439 610.588 539.617 610.232 539.742C610.646 539.828 610.975 540.002 611.217 540.264C611.459 540.525 611.58 540.834 611.58 541.189C611.58 541.779 611.361 542.229 610.924 542.537C610.49 542.846 609.865 543 609.049 543H606.078ZM607.502 540.299V541.875H609.061C609.791 541.875 610.156 541.613 610.156 541.09C610.156 540.562 609.785 540.299 609.043 540.299H607.502ZM607.502 539.279H608.674C609.482 539.279 609.887 539.041 609.887 538.564C609.887 538.064 609.504 537.807 608.738 537.791H607.502V539.279ZM616.602 543C616.539 542.879 616.484 542.682 616.438 542.408C615.984 542.881 615.43 543.117 614.773 543.117C614.137 543.117 613.617 542.936 613.215 542.572C612.812 542.209 612.611 541.76 612.611 541.225C612.611 540.549 612.861 540.031 613.361 539.672C613.865 539.309 614.584 539.127 615.518 539.127H616.391V538.711C616.391 538.383 616.299 538.121 616.115 537.926C615.932 537.727 615.652 537.627 615.277 537.627C614.953 537.627 614.688 537.709 614.48 537.873C614.273 538.033 614.17 538.238 614.17 538.488H612.746C612.746 538.141 612.861 537.816 613.092 537.516C613.322 537.211 613.635 536.973 614.029 536.801C614.428 536.629 614.871 536.543 615.359 536.543C616.102 536.543 616.693 536.73 617.135 537.105C617.576 537.477 617.803 538 617.814 538.676V541.535C617.814 542.105 617.895 542.561 618.055 542.9V543H616.602ZM615.037 541.975C615.318 541.975 615.582 541.906 615.828 541.77C616.078 541.633 616.266 541.449 616.391 541.219V540.023H615.623C615.096 540.023 614.699 540.115 614.434 540.299C614.168 540.482 614.035 540.742 614.035 541.078C614.035 541.352 614.125 541.57 614.305 541.734C614.488 541.895 614.732 541.975 615.037 541.975Z" fill="#3C3C3B"/>
<path d="M737.061 540.223C736.975 541.133 736.639 541.844 736.053 542.355C735.467 542.863 734.688 543.117 733.715 543.117C733.035 543.117 732.436 542.957 731.916 542.637C731.4 542.312 731.002 541.854 730.721 541.26C730.439 540.666 730.293 539.977 730.281 539.191V538.395C730.281 537.59 730.424 536.881 730.709 536.268C730.994 535.654 731.402 535.182 731.934 534.85C732.469 534.518 733.086 534.352 733.785 534.352C734.727 534.352 735.484 534.607 736.059 535.119C736.633 535.631 736.967 536.354 737.061 537.287H735.584C735.514 536.674 735.334 536.232 735.045 535.963C734.76 535.689 734.34 535.553 733.785 535.553C733.141 535.553 732.645 535.789 732.297 536.262C731.953 536.73 731.777 537.42 731.77 538.33V539.086C731.77 540.008 731.934 540.711 732.262 541.195C732.594 541.68 733.078 541.922 733.715 541.922C734.297 541.922 734.734 541.791 735.027 541.529C735.32 541.268 735.506 540.832 735.584 540.223H737.061ZM743.629 543H742.205V537.809H739.732V543H738.309V536.66H743.629V543ZM744.877 539.771C744.877 539.15 745 538.592 745.246 538.096C745.492 537.596 745.838 537.213 746.283 536.947C746.729 536.678 747.24 536.543 747.818 536.543C748.674 536.543 749.367 536.818 749.898 537.369C750.434 537.92 750.723 538.65 750.766 539.561L750.771 539.895C750.771 540.52 750.65 541.078 750.408 541.57C750.17 542.062 749.826 542.443 749.377 542.713C748.932 542.982 748.416 543.117 747.83 543.117C746.936 543.117 746.219 542.82 745.68 542.227C745.145 541.629 744.877 540.834 744.877 539.842V539.771ZM746.301 539.895C746.301 540.547 746.436 541.059 746.705 541.43C746.975 541.797 747.35 541.98 747.83 541.98C748.311 541.98 748.684 541.793 748.949 541.418C749.219 541.043 749.354 540.494 749.354 539.771C749.354 539.131 749.215 538.623 748.938 538.248C748.664 537.873 748.291 537.686 747.818 537.686C747.354 537.686 746.984 537.871 746.711 538.242C746.438 538.609 746.301 539.16 746.301 539.895ZM757.527 539.895C757.527 540.875 757.305 541.658 756.859 542.244C756.414 542.826 755.816 543.117 755.066 543.117C754.371 543.117 753.814 542.889 753.396 542.432V545.438H751.973V536.66H753.285L753.344 537.305C753.762 536.797 754.33 536.543 755.049 536.543C755.822 536.543 756.428 536.832 756.865 537.41C757.307 537.984 757.527 538.783 757.527 539.807V539.895ZM756.109 539.771C756.109 539.139 755.982 538.637 755.729 538.266C755.479 537.895 755.119 537.709 754.65 537.709C754.068 537.709 753.65 537.949 753.396 538.43V541.242C753.654 541.734 754.076 541.98 754.662 541.98C755.115 541.98 755.469 541.799 755.723 541.436C755.98 541.068 756.109 540.514 756.109 539.771ZM763.48 537.791H761.424V543H760V537.791H757.967V536.66H763.48V537.791ZM768.391 536.66H769.809V543H768.391V538.77L765.906 543H764.488V536.66H765.906V540.891L768.391 536.66ZM771.432 543V536.66H774.004C774.871 536.66 775.531 536.812 775.984 537.117C776.438 537.418 776.664 537.852 776.664 538.418C776.664 538.711 776.572 538.975 776.389 539.209C776.209 539.439 775.941 539.617 775.586 539.742C776 539.828 776.328 540.002 776.57 540.264C776.812 540.525 776.934 540.834 776.934 541.189C776.934 541.779 776.715 542.229 776.277 542.537C775.844 542.846 775.219 543 774.402 543H771.432ZM772.855 540.299V541.875H774.414C775.145 541.875 775.51 541.613 775.51 541.09C775.51 540.562 775.139 540.299 774.396 540.299H772.855ZM772.855 539.279H774.027C774.836 539.279 775.24 539.041 775.24 538.564C775.24 538.064 774.857 537.807 774.092 537.791H772.855V539.279ZM783.537 543H782.113V540.439H779.646V543H778.223V536.66H779.646V539.303H782.113V536.66H783.537V543ZM786.59 538.676H787.984C788.504 538.676 788.957 538.766 789.344 538.945C789.73 539.125 790.023 539.377 790.223 539.701C790.426 540.025 790.527 540.402 790.527 540.832C790.527 541.484 790.297 542.008 789.836 542.402C789.375 542.797 788.762 542.996 787.996 543H785.166V536.66H786.59V538.676ZM793.006 543H791.582V536.66H793.006V543ZM786.59 539.818V541.863H787.979C788.326 541.863 788.6 541.777 788.799 541.605C789.002 541.43 789.104 541.182 789.104 540.861C789.104 540.541 789.004 540.289 788.805 540.105C788.609 539.918 788.344 539.822 788.008 539.818H786.59ZM797.506 543.117C796.604 543.117 795.871 542.834 795.309 542.268C794.75 541.697 794.471 540.939 794.471 539.994V539.818C794.471 539.186 794.592 538.621 794.834 538.125C795.08 537.625 795.424 537.236 795.865 536.959C796.307 536.682 796.799 536.543 797.342 536.543C798.205 536.543 798.871 536.818 799.34 537.369C799.812 537.92 800.049 538.699 800.049 539.707V540.281H795.906C795.949 540.805 796.123 541.219 796.428 541.523C796.736 541.828 797.123 541.98 797.588 541.98C798.24 541.98 798.771 541.717 799.182 541.189L799.949 541.922C799.695 542.301 799.355 542.596 798.93 542.807C798.508 543.014 798.033 543.117 797.506 543.117ZM797.336 537.686C796.945 537.686 796.629 537.822 796.387 538.096C796.148 538.369 795.996 538.75 795.93 539.238H798.643V539.133C798.611 538.656 798.484 538.297 798.262 538.055C798.039 537.809 797.73 537.686 797.336 537.686ZM803.881 539.771C803.881 539.15 804.004 538.592 804.25 538.096C804.496 537.596 804.842 537.213 805.287 536.947C805.732 536.678 806.244 536.543 806.822 536.543C807.678 536.543 808.371 536.818 808.902 537.369C809.438 537.92 809.727 538.65 809.77 539.561L809.775 539.895C809.775 540.52 809.654 541.078 809.412 541.57C809.174 542.062 808.83 542.443 808.381 542.713C807.936 542.982 807.42 543.117 806.834 543.117C805.939 543.117 805.223 542.82 804.684 542.227C804.148 541.629 803.881 540.834 803.881 539.842V539.771ZM805.305 539.895C805.305 540.547 805.439 541.059 805.709 541.43C805.979 541.797 806.354 541.98 806.834 541.98C807.314 541.98 807.688 541.793 807.953 541.418C808.223 541.043 808.357 540.494 808.357 539.771C808.357 539.131 808.219 538.623 807.941 538.248C807.668 537.873 807.295 537.686 806.822 537.686C806.357 537.686 805.988 537.871 805.715 538.242C805.441 538.609 805.305 539.16 805.305 539.895ZM813.965 537.012C814.762 537.012 815.4 537.279 815.881 537.814C816.361 538.346 816.602 539.068 816.602 539.982V540.053C816.602 540.967 816.34 541.707 815.816 542.273C815.297 542.84 814.59 543.123 813.695 543.123C812.824 543.123 812.121 542.834 811.586 542.256C811.051 541.678 810.783 540.889 810.783 539.889V539.479C810.783 538.111 811.025 537.029 811.51 536.232C811.994 535.436 812.717 534.938 813.678 534.738C814.217 534.629 814.564 534.514 814.721 534.393C814.881 534.268 814.961 534.1 814.961 533.889H816.109C816.109 534.283 816.045 534.604 815.916 534.85C815.787 535.096 815.59 535.297 815.324 535.453C815.059 535.605 814.602 535.75 813.953 535.887C813.359 536.012 812.906 536.234 812.594 536.555C812.285 536.875 812.078 537.318 811.973 537.885C812.539 537.303 813.203 537.012 813.965 537.012ZM813.684 538.154C813.223 538.154 812.861 538.311 812.6 538.623C812.338 538.932 812.207 539.408 812.207 540.053C812.207 540.662 812.336 541.137 812.594 541.477C812.852 541.816 813.219 541.986 813.695 541.986C814.168 541.986 814.533 541.816 814.791 541.477C815.053 541.133 815.184 540.617 815.184 539.93C815.184 539.383 815.053 538.951 814.791 538.635C814.533 538.314 814.164 538.154 813.684 538.154ZM820.422 538.676H821.816C822.336 538.676 822.789 538.766 823.176 538.945C823.562 539.125 823.855 539.377 824.055 539.701C824.258 540.025 824.359 540.402 824.359 540.832C824.359 541.484 824.129 542.008 823.668 542.402C823.207 542.797 822.594 542.996 821.828 543H818.998V537.809H817.17V536.66H820.422V538.676ZM820.422 539.818V541.863H821.811C822.158 541.863 822.432 541.777 822.631 541.605C822.834 541.43 822.936 541.182 822.936 540.861C822.936 540.541 822.836 540.289 822.637 540.105C822.441 539.918 822.176 539.822 821.84 539.818H820.422ZM828.15 543.117C827.248 543.117 826.516 542.834 825.953 542.268C825.395 541.697 825.115 540.939 825.115 539.994V539.818C825.115 539.186 825.236 538.621 825.479 538.125C825.725 537.625 826.068 537.236 826.51 536.959C826.951 536.682 827.443 536.543 827.986 536.543C828.85 536.543 829.516 536.818 829.984 537.369C830.457 537.92 830.693 538.699 830.693 539.707V540.281H826.551C826.594 540.805 826.768 541.219 827.072 541.523C827.381 541.828 827.768 541.98 828.232 541.98C828.885 541.98 829.416 541.717 829.826 541.189L830.594 541.922C830.34 542.301 830 542.596 829.574 542.807C829.152 543.014 828.678 543.117 828.15 543.117ZM827.98 537.686C827.59 537.686 827.273 537.822 827.031 538.096C826.793 538.369 826.641 538.75 826.574 539.238H829.287V539.133C829.256 538.656 829.129 538.297 828.906 538.055C828.684 537.809 828.375 537.686 827.98 537.686ZM834.057 540.492H833.336V543H831.912V536.66H833.336V539.191H833.963L835.715 536.66H837.473L835.182 539.695L837.666 543H835.814L834.057 540.492ZM843.438 537.791H841.381V543H839.957V537.791H837.924V536.66H843.438V537.791ZM845.922 538.676H847.316C847.836 538.676 848.289 538.766 848.676 538.945C849.062 539.125 849.355 539.377 849.555 539.701C849.758 540.025 849.859 540.402 849.859 540.832C849.859 541.484 849.629 542.008 849.168 542.402C848.707 542.797 848.094 542.996 847.328 543H844.498V536.66H845.922V538.676ZM852.338 543H850.914V536.66H852.338V543ZM845.922 539.818V541.863H847.311C847.658 541.863 847.932 541.777 848.131 541.605C848.334 541.43 848.436 541.182 848.436 540.861C848.436 540.541 848.336 540.289 848.137 540.105C847.941 539.918 847.676 539.822 847.34 539.818H845.922Z" fill="#3C3C3B"/>
<path d="M971.344 535.664H968.684V543H967.213V535.664H964.576V534.469H971.344V535.664ZM973.951 539.83V543H972.469V534.469H975.732C976.686 534.469 977.441 534.717 978 535.213C978.562 535.709 978.844 536.365 978.844 537.182C978.844 538.018 978.568 538.668 978.018 539.133C977.471 539.598 976.703 539.83 975.715 539.83H973.951ZM973.951 538.641H975.732C976.26 538.641 976.662 538.518 976.939 538.271C977.217 538.021 977.355 537.662 977.355 537.193C977.355 536.732 977.215 536.365 976.934 536.092C976.652 535.814 976.266 535.672 975.773 535.664H973.951V538.641ZM982.67 539.344H981.662V543H980.186V534.469H981.662V538.055H982.477L984.984 534.469H986.801L983.871 538.553L987.059 543H985.277L982.67 539.344ZM988.143 543.732H987.023L990.381 534.469H991.5L988.143 543.732ZM998.789 535.664H996.129V543H994.658V535.664H992.021V534.469H998.789V535.664ZM1001.4 539.83V543H999.914V534.469H1003.18C1004.13 534.469 1004.89 534.717 1005.45 535.213C1006.01 535.709 1006.29 536.365 1006.29 537.182C1006.29 538.018 1006.01 538.668 1005.46 539.133C1004.92 539.598 1004.15 539.83 1003.16 539.83H1001.4ZM1001.4 538.641H1003.18C1003.71 538.641 1004.11 538.518 1004.38 538.271C1004.66 538.021 1004.8 537.662 1004.8 537.193C1004.8 536.732 1004.66 536.365 1004.38 536.092C1004.1 535.814 1003.71 535.672 1003.22 535.664H1001.4V538.641ZM1007.58 534.469H1009.06V541.816H1012.82V534.469H1014.3V541.805H1015.33L1015.21 545.057H1013.85V543H1007.58V534.469Z" fill="#3C3C3B"/>
<line y1="505" x2="1088" y2="505" stroke="black" stroke-width="2"/>
<line y1="469" x2="1088" y2="469" stroke="#CECECE" stroke-width="2"/>
<line y1="451.5" x2="1088" y2="451.5" stroke="#DDDDDD"/>
<line y1="379.5" x2="1088" y2="379.5" stroke="#DDDDDD"/>
<line y1="307.5" x2="1088" y2="307.5" stroke="#DDDDDD"/>
<line y1="235.5" x2="1088" y2="235.5" stroke="#DDDDDD"/>
<line y1="163.5" x2="1088" y2="163.5" stroke="#DDDDDD"/>
<line y1="91.5" x2="1088" y2="91.5" stroke="#DDDDDD"/>
<line y1="19.5" x2="1088" y2="19.5" stroke="#DDDDDD"/>
<line y1="415.5" x2="1088" y2="415.5" stroke="#DDDDDD"/>
<line y1="343.5" x2="1088" y2="343.5" stroke="#DDDDDD"/>
<line y1="271.5" x2="1088" y2="271.5" stroke="#DDDDDD"/>
<line y1="199.5" x2="1088" y2="199.5" stroke="#DDDDDD"/>
<line y1="127.5" x2="1088" y2="127.5" stroke="#DDDDDD"/>
<line y1="55.5" x2="1088" y2="55.5" stroke="#DDDDDD"/>
<line y1="433" x2="1088" y2="433" stroke="#CECECE" stroke-width="2"/>
<line y1="397" x2="1088" y2="397" stroke="#CECECE" stroke-width="2"/>
<line y1="361" x2="1088" y2="361" stroke="#CECECE" stroke-width="2"/>
<line y1="325" x2="1088" y2="325" stroke="#CECECE" stroke-width="2"/>
<line y1="289" x2="1088" y2="289" stroke="#CECECE" stroke-width="2"/>
<line y1="253" x2="1088" y2="253" stroke="#CECECE" stroke-width="2"/>
<line y1="217" x2="1088" y2="217" stroke="#CECECE" stroke-width="2"/>
<line y1="181" x2="1088" y2="181" stroke="#CECECE" stroke-width="2"/>
<line y1="145" x2="1088" y2="145" stroke="#CECECE" stroke-width="2"/>
<line y1="109" x2="1088" y2="109" stroke="#CECECE" stroke-width="2"/>
<line y1="73" x2="1088" y2="73" stroke="#CECECE" stroke-width="2"/>
<line y1="37" x2="1088" y2="37" stroke="#CECECE" stroke-width="2"/>
<line y1="1" x2="1088" y2="1" stroke="#CECECE" stroke-width="2"/>
<rect x="9" y="420" width="53" height="84" fill="#FECF9B"/>
<rect x="735" y="363" width="53" height="141" fill="#FECF9B"/>
<rect x="939" y="363" width="53" height="141" fill="#FECF9B"/>
<rect x="484" y="230" width="53" height="274" fill="#FECF9B"/>
<rect x="244" y="482" width="53" height="22" fill="#FECF9B"/>
<rect x="64" y="398" width="53" height="106" fill="#37FF9F"/>
<rect x="790" y="326" width="53" height="178" fill="#37FF9F"/>
<rect x="994" y="326" width="53" height="178" fill="#37FF9F"/>
<rect x="539" y="158" width="53" height="346" fill="#37FF9F"/>
<rect x="299" y="476" width="53" height="28" fill="#37FF9F"/>
<line x1="565.25" y1="147" x2="565.25" y2="157" stroke="#3C3C3B" stroke-width="0.5"/>
<line x1="816.25" y1="314" x2="816.25" y2="324" stroke="#3C3C3B" stroke-width="0.5"/>
<line x1="1020.25" y1="314" x2="1020.25" y2="324" stroke="#3C3C3B" stroke-width="0.5"/>
<line x1="326.25" y1="464" x2="326.25" y2="474" stroke="#3C3C3B" stroke-width="0.5"/>
<line x1="34.25" y1="408" x2="34.25" y2="418" stroke="#3C3C3B" stroke-width="0.5"/>
<line x1="509.25" y1="218" x2="509.25" y2="228" stroke="#3C3C3B" stroke-width="0.5"/>
<line x1="760.25" y1="351" x2="760.25" y2="361" stroke="#3C3C3B" stroke-width="0.5"/>
<line x1="964.25" y1="351" x2="964.25" y2="361" stroke="#3C3C3B" stroke-width="0.5"/>
<line x1="270.25" y1="470" x2="270.25" y2="480" stroke="#3C3C3B" stroke-width="0.5"/>
<path d="M87.1465 383H81.8027V382.461L84.7266 379.145C85.2109 378.586 85.5469 378.125 85.7344 377.762C85.9219 377.398 86.0156 377.045 86.0156 376.701C86.0156 376.162 85.8574 375.736 85.541 375.424C85.2246 375.107 84.7891 374.949 84.2344 374.949C83.6602 374.949 83.1953 375.133 82.8398 375.5C82.4883 375.867 82.3125 376.344 82.3125 376.93H81.6152C81.6152 376.449 81.7227 376.012 81.9375 375.617C82.1562 375.223 82.4648 374.914 82.8633 374.691C83.2656 374.465 83.7227 374.352 84.2344 374.352C85.0156 374.352 85.625 374.557 86.0625 374.967C86.5039 375.377 86.7246 375.936 86.7246 376.643C86.7246 377.041 86.5996 377.477 86.3496 377.949C86.1035 378.422 85.668 379.012 85.043 379.719L82.6641 382.408H87.1465V383ZM92.8359 379.051C92.5859 379.418 92.2754 379.703 91.9043 379.906C91.5332 380.105 91.1309 380.205 90.6973 380.205C90.2129 380.205 89.7852 380.08 89.4141 379.83C89.043 379.58 88.7559 379.234 88.5527 378.793C88.3496 378.352 88.248 377.869 88.248 377.346C88.248 376.783 88.3555 376.271 88.5703 375.811C88.7891 375.35 89.0918 374.992 89.4785 374.738C89.8691 374.48 90.3184 374.352 90.8262 374.352C91.6816 374.352 92.3477 374.652 92.8242 375.254C93.3008 375.852 93.5391 376.701 93.5391 377.803V378.436C93.5391 379.975 93.2109 381.131 92.5547 381.904C91.8984 382.678 90.8965 383.064 89.5488 383.064H89.4199L89.4258 382.455H89.6719C90.6914 382.439 91.4668 382.15 91.998 381.588C92.5293 381.025 92.8086 380.18 92.8359 379.051ZM90.7852 379.602C91.2539 379.602 91.6738 379.463 92.0449 379.186C92.4199 378.904 92.6855 378.541 92.8418 378.096V377.691C92.8418 376.824 92.6602 376.152 92.2969 375.676C91.9375 375.195 91.4512 374.955 90.8379 374.955C90.2832 374.955 89.8281 375.18 89.4727 375.629C89.1172 376.074 88.9395 376.637 88.9395 377.316C88.9395 377.969 89.1094 378.514 89.4492 378.951C89.793 379.385 90.2383 379.602 90.7852 379.602ZM99.4219 380.252H100.752V380.844H99.4219V383H98.7188V380.844H94.7051V380.445L98.6543 374.469H99.4219V380.252ZM95.5664 380.252H98.7188V375.377L98.4082 375.916L95.5664 380.252Z" fill="#3C3C3B"/>
<path d="M556.066 144H555.363V136.312L553.043 137.174V136.518L555.949 135.439H556.066V144ZM564.715 135.873L561.07 144H560.338L563.959 136.066H559.107V135.469H564.715V135.873ZM570.252 135.404V136.02H570.17C569.15 136.02 568.348 136.32 567.762 136.922C567.176 137.52 566.852 138.352 566.789 139.418C567.023 139.094 567.322 138.844 567.686 138.668C568.049 138.488 568.455 138.398 568.904 138.398C569.654 138.398 570.25 138.658 570.691 139.178C571.137 139.693 571.359 140.369 571.359 141.205C571.359 141.76 571.256 142.26 571.049 142.705C570.842 143.15 570.545 143.498 570.158 143.748C569.771 143.994 569.33 144.117 568.834 144.117C568.018 144.117 567.354 143.822 566.842 143.232C566.33 142.639 566.074 141.873 566.074 140.936V140.232C566.074 138.705 566.422 137.523 567.117 136.688C567.812 135.848 568.799 135.42 570.076 135.404H570.252ZM568.793 139.002C568.348 139.002 567.932 139.135 567.545 139.4C567.162 139.662 566.906 139.996 566.777 140.402V141C566.777 141.742 566.967 142.348 567.346 142.816C567.729 143.285 568.225 143.52 568.834 143.52C569.381 143.52 569.822 143.303 570.158 142.869C570.498 142.436 570.668 141.889 570.668 141.229C570.668 140.557 570.498 140.018 570.158 139.611C569.822 139.205 569.367 139.002 568.793 139.002ZM573.246 139.629L573.662 135.469H577.928V136.119H574.266L573.967 139.002C574.424 138.689 574.959 138.533 575.572 138.533C576.342 138.533 576.955 138.783 577.412 139.283C577.869 139.783 578.098 140.449 578.098 141.281C578.098 142.18 577.875 142.877 577.43 143.373C576.984 143.869 576.357 144.117 575.549 144.117C574.807 144.117 574.205 143.91 573.744 143.496C573.283 143.082 573.02 142.502 572.953 141.756H573.627C573.693 142.338 573.891 142.779 574.219 143.08C574.547 143.377 574.99 143.525 575.549 143.525C576.158 143.525 576.617 143.332 576.926 142.945C577.238 142.559 577.395 142.008 577.395 141.293C577.395 140.668 577.221 140.158 576.873 139.764C576.525 139.369 576.051 139.172 575.449 139.172C575.117 139.172 574.828 139.215 574.582 139.301C574.336 139.383 574.076 139.545 573.803 139.787L573.246 139.629Z" fill="#3C3C3B"/>
<path d="M807.277 306.629L807.693 302.469H811.959V303.119H808.297L807.998 306.002C808.455 305.689 808.99 305.533 809.604 305.533C810.373 305.533 810.986 305.783 811.443 306.283C811.9 306.783 812.129 307.449 812.129 308.281C812.129 309.18 811.906 309.877 811.461 310.373C811.016 310.869 810.389 311.117 809.58 311.117C808.838 311.117 808.236 310.91 807.775 310.496C807.314 310.082 807.051 309.502 806.984 308.756H807.658C807.725 309.338 807.922 309.779 808.25 310.08C808.578 310.377 809.021 310.525 809.58 310.525C810.189 310.525 810.648 310.332 810.957 309.945C811.27 309.559 811.426 309.008 811.426 308.293C811.426 307.668 811.252 307.158 810.904 306.764C810.557 306.369 810.082 306.172 809.48 306.172C809.148 306.172 808.859 306.215 808.613 306.301C808.367 306.383 808.107 306.545 807.834 306.787L807.277 306.629ZM816.723 311H816.02V303.312L813.699 304.174V303.518L816.605 302.439H816.723V311ZM824.422 308.252H825.752V308.844H824.422V311H823.719V308.844H819.705V308.445L823.654 302.469H824.422V308.252ZM820.566 308.252H823.719V303.377L823.408 303.916L820.566 308.252Z" fill="#3C3C3B"/>
<path d="M1015.11 308.252H1016.44V308.844H1015.11V311H1014.41V308.844H1010.39V308.445L1014.34 302.469H1015.11V308.252ZM1011.25 308.252H1014.41V303.377L1014.1 303.916L1011.25 308.252ZM1019.02 306.354H1019.74C1020.15 306.354 1020.5 306.283 1020.8 306.143C1021.1 305.998 1021.33 305.803 1021.48 305.557C1021.64 305.307 1021.72 305.02 1021.72 304.695C1021.72 304.148 1021.57 303.721 1021.26 303.412C1020.95 303.104 1020.51 302.949 1019.93 302.949C1019.38 302.949 1018.94 303.111 1018.58 303.436C1018.24 303.756 1018.06 304.18 1018.06 304.707H1017.36C1017.36 304.266 1017.47 303.863 1017.69 303.5C1017.92 303.133 1018.22 302.85 1018.62 302.65C1019.01 302.451 1019.45 302.352 1019.93 302.352C1020.71 302.352 1021.31 302.562 1021.76 302.984C1022.21 303.406 1022.43 303.984 1022.43 304.719C1022.43 305.129 1022.3 305.508 1022.04 305.855C1021.78 306.199 1021.42 306.457 1020.97 306.629C1021.5 306.777 1021.9 307.033 1022.18 307.396C1022.45 307.756 1022.59 308.186 1022.59 308.686C1022.59 309.416 1022.35 310.004 1021.87 310.449C1021.39 310.895 1020.76 311.117 1019.96 311.117C1019.45 311.117 1018.99 311.016 1018.56 310.812C1018.14 310.609 1017.81 310.326 1017.58 309.963C1017.35 309.596 1017.23 309.17 1017.23 308.686H1017.93C1017.93 309.229 1018.12 309.672 1018.5 310.016C1018.88 310.355 1019.37 310.525 1019.96 310.525C1020.57 310.525 1021.04 310.371 1021.37 310.062C1021.71 309.75 1021.88 309.299 1021.88 308.709C1021.88 308.139 1021.7 307.703 1021.33 307.402C1020.97 307.102 1020.43 306.951 1019.72 306.951H1019.02V306.354ZM1028.42 308.252H1029.75V308.844H1028.42V311H1027.72V308.844H1023.71V308.445L1027.65 302.469H1028.42V308.252ZM1024.57 308.252H1027.72V303.377L1027.41 303.916L1024.57 308.252Z" fill="#3C3C3B"/>
<path d="M320.066 461H319.363V453.312L317.043 454.174V453.518L319.949 452.439H320.066V461ZM325.018 456.354H325.744C326.146 456.354 326.498 456.283 326.799 456.143C327.1 455.998 327.328 455.803 327.484 455.557C327.645 455.307 327.725 455.02 327.725 454.695C327.725 454.148 327.57 453.721 327.262 453.412C326.953 453.104 326.51 452.949 325.932 452.949C325.385 452.949 324.936 453.111 324.584 453.436C324.236 453.756 324.062 454.18 324.062 454.707H323.359C323.359 454.266 323.471 453.863 323.693 453.5C323.916 453.133 324.225 452.85 324.619 452.65C325.014 452.451 325.451 452.352 325.932 452.352C326.705 452.352 327.314 452.562 327.76 452.984C328.205 453.406 328.428 453.984 328.428 454.719C328.428 455.129 328.297 455.508 328.035 455.855C327.777 456.199 327.422 456.457 326.969 456.629C327.5 456.777 327.902 457.033 328.176 457.396C328.449 457.756 328.586 458.186 328.586 458.686C328.586 459.416 328.348 460.004 327.871 460.449C327.395 460.895 326.758 461.117 325.961 461.117C325.453 461.117 324.986 461.016 324.561 460.812C324.139 460.609 323.811 460.326 323.576 459.963C323.346 459.596 323.23 459.17 323.23 458.686H323.934C323.934 459.229 324.123 459.672 324.502 460.016C324.881 460.355 325.367 460.525 325.961 460.525C326.566 460.525 327.037 460.371 327.373 460.062C327.713 459.75 327.883 459.299 327.883 458.709C327.883 458.139 327.699 457.703 327.332 457.402C326.969 457.102 326.432 456.951 325.721 456.951H325.018V456.354ZM335.459 461H330.115V460.461L333.039 457.145C333.523 456.586 333.859 456.125 334.047 455.762C334.234 455.398 334.328 455.045 334.328 454.701C334.328 454.162 334.17 453.736 333.854 453.424C333.537 453.107 333.102 452.949 332.547 452.949C331.973 452.949 331.508 453.133 331.152 453.5C330.801 453.867 330.625 454.344 330.625 454.93H329.928C329.928 454.449 330.035 454.012 330.25 453.617C330.469 453.223 330.777 452.914 331.176 452.691C331.578 452.465 332.035 452.352 332.547 452.352C333.328 452.352 333.938 452.557 334.375 452.967C334.816 453.377 335.037 453.936 335.037 454.643C335.037 455.041 334.912 455.477 334.662 455.949C334.416 456.422 333.98 457.012 333.355 457.719L330.977 460.408H335.459V461Z" fill="#3C3C3B"/>
<path d="M30.1465 405H24.8027V404.461L27.7266 401.145C28.2109 400.586 28.5469 400.125 28.7344 399.762C28.9219 399.398 29.0156 399.045 29.0156 398.701C29.0156 398.162 28.8574 397.736 28.541 397.424C28.2246 397.107 27.7891 396.949 27.2344 396.949C26.6602 396.949 26.1953 397.133 25.8398 397.5C25.4883 397.867 25.3125 398.344 25.3125 398.93H24.6152C24.6152 398.449 24.7227 398.012 24.9375 397.617C25.1562 397.223 25.4648 396.914 25.8633 396.691C26.2656 396.465 26.7227 396.352 27.2344 396.352C28.0156 396.352 28.625 396.557 29.0625 396.967C29.5039 397.377 29.7246 397.936 29.7246 398.643C29.7246 399.041 29.5996 399.477 29.3496 399.949C29.1035 400.422 28.668 401.012 28.043 401.719L25.6641 404.408H30.1465V405ZM36.7148 396.873L33.0703 405H32.3379L35.959 397.066H31.1074V396.469H36.7148V396.873ZM42.4922 401.051C42.2422 401.418 41.9316 401.703 41.5605 401.906C41.1895 402.105 40.7871 402.205 40.3535 402.205C39.8691 402.205 39.4414 402.08 39.0703 401.83C38.6992 401.58 38.4121 401.234 38.209 400.793C38.0059 400.352 37.9043 399.869 37.9043 399.346C37.9043 398.783 38.0117 398.271 38.2266 397.811C38.4453 397.35 38.748 396.992 39.1348 396.738C39.5254 396.48 39.9746 396.352 40.4824 396.352C41.3379 396.352 42.0039 396.652 42.4805 397.254C42.957 397.852 43.1953 398.701 43.1953 399.803V400.436C43.1953 401.975 42.8672 403.131 42.2109 403.904C41.5547 404.678 40.5527 405.064 39.2051 405.064H39.0762L39.082 404.455H39.3281C40.3477 404.439 41.123 404.15 41.6543 403.588C42.1855 403.025 42.4648 402.18 42.4922 401.051ZM40.4414 401.602C40.9102 401.602 41.3301 401.463 41.7012 401.186C42.0762 400.904 42.3418 400.541 42.498 400.096V399.691C42.498 398.824 42.3164 398.152 41.9531 397.676C41.5938 397.195 41.1074 396.955 40.4941 396.955C39.9395 396.955 39.4844 397.18 39.1289 397.629C38.7734 398.074 38.5957 398.637 38.5957 399.316C38.5957 399.969 38.7656 400.514 39.1055 400.951C39.4492 401.385 39.8945 401.602 40.4414 401.602Z" fill="#3C3C3B"/>
<path d="M499.066 215H498.363V207.312L496.043 208.174V207.518L498.949 206.439H499.066V215ZM506.766 212.252H508.096V212.844H506.766V215H506.062V212.844H502.049V212.445L505.998 206.469H506.766V212.252ZM502.91 212.252H506.062V207.377L505.752 207.916L502.91 212.252ZM509.59 210.629L510.006 206.469H514.271V207.119H510.609L510.311 210.002C510.768 209.689 511.303 209.533 511.916 209.533C512.686 209.533 513.299 209.783 513.756 210.283C514.213 210.783 514.441 211.449 514.441 212.281C514.441 213.18 514.219 213.877 513.773 214.373C513.328 214.869 512.701 215.117 511.893 215.117C511.15 215.117 510.549 214.91 510.088 214.496C509.627 214.082 509.363 213.502 509.297 212.756H509.971C510.037 213.338 510.234 213.779 510.562 214.08C510.891 214.377 511.334 214.525 511.893 214.525C512.502 214.525 512.961 214.332 513.27 213.945C513.582 213.559 513.738 213.008 513.738 212.293C513.738 211.668 513.564 211.158 513.217 210.764C512.869 210.369 512.395 210.172 511.793 210.172C511.461 210.172 511.172 210.215 510.926 210.301C510.68 210.383 510.42 210.545 510.146 210.787L509.59 210.629ZM520.078 212.252H521.408V212.844H520.078V215H519.375V212.844H515.361V212.445L519.311 206.469H520.078V212.252ZM516.223 212.252H519.375V207.377L519.064 207.916L516.223 212.252Z" fill="#3C3C3B"/>
<path d="M755.109 345.252H756.439V345.844H755.109V348H754.406V345.844H750.393V345.445L754.342 339.469H755.109V345.252ZM751.254 345.252H754.406V340.377L754.096 340.916L751.254 345.252ZM761.596 339.404V340.02H761.514C760.494 340.02 759.691 340.32 759.105 340.922C758.52 341.52 758.195 342.352 758.133 343.418C758.367 343.094 758.666 342.844 759.029 342.668C759.393 342.488 759.799 342.398 760.248 342.398C760.998 342.398 761.594 342.658 762.035 343.178C762.48 343.693 762.703 344.369 762.703 345.205C762.703 345.76 762.6 346.26 762.393 346.705C762.186 347.15 761.889 347.498 761.502 347.748C761.115 347.994 760.674 348.117 760.178 348.117C759.361 348.117 758.697 347.822 758.186 347.232C757.674 346.639 757.418 345.873 757.418 344.936V344.232C757.418 342.705 757.766 341.523 758.461 340.688C759.156 339.848 760.143 339.42 761.42 339.404H761.596ZM760.137 343.002C759.691 343.002 759.275 343.135 758.889 343.4C758.506 343.662 758.25 343.996 758.121 344.402V345C758.121 345.742 758.311 346.348 758.689 346.816C759.072 347.285 759.568 347.52 760.178 347.52C760.725 347.52 761.166 347.303 761.502 346.869C761.842 346.436 762.012 345.889 762.012 345.229C762.012 344.557 761.842 344.018 761.502 343.611C761.166 343.205 760.711 343.002 760.137 343.002ZM768.422 345.252H769.752V345.844H768.422V348H767.719V345.844H763.705V345.445L767.654 339.469H768.422V345.252ZM764.566 345.252H767.719V340.377L767.408 340.916L764.566 345.252Z" fill="#3C3C3B"/>
<path d="M956.361 343.354H957.088C957.49 343.354 957.842 343.283 958.143 343.143C958.443 342.998 958.672 342.803 958.828 342.557C958.988 342.307 959.068 342.02 959.068 341.695C959.068 341.148 958.914 340.721 958.605 340.412C958.297 340.104 957.854 339.949 957.275 339.949C956.729 339.949 956.279 340.111 955.928 340.436C955.58 340.756 955.406 341.18 955.406 341.707H954.703C954.703 341.266 954.814 340.863 955.037 340.5C955.26 340.133 955.568 339.85 955.963 339.65C956.357 339.451 956.795 339.352 957.275 339.352C958.049 339.352 958.658 339.562 959.104 339.984C959.549 340.406 959.771 340.984 959.771 341.719C959.771 342.129 959.641 342.508 959.379 342.855C959.121 343.199 958.766 343.457 958.312 343.629C958.844 343.777 959.246 344.033 959.52 344.396C959.793 344.756 959.93 345.186 959.93 345.686C959.93 346.416 959.691 347.004 959.215 347.449C958.738 347.895 958.102 348.117 957.305 348.117C956.797 348.117 956.33 348.016 955.904 347.812C955.482 347.609 955.154 347.326 954.92 346.963C954.689 346.596 954.574 346.17 954.574 345.686H955.277C955.277 346.229 955.467 346.672 955.846 347.016C956.225 347.355 956.711 347.525 957.305 347.525C957.91 347.525 958.381 347.371 958.717 347.062C959.057 346.75 959.227 346.299 959.227 345.709C959.227 345.139 959.043 344.703 958.676 344.402C958.312 344.102 957.775 343.951 957.064 343.951H956.361V343.354ZM965.596 339.404V340.02H965.514C964.494 340.02 963.691 340.32 963.105 340.922C962.52 341.52 962.195 342.352 962.133 343.418C962.367 343.094 962.666 342.844 963.029 342.668C963.393 342.488 963.799 342.398 964.248 342.398C964.998 342.398 965.594 342.658 966.035 343.178C966.48 343.693 966.703 344.369 966.703 345.205C966.703 345.76 966.6 346.26 966.393 346.705C966.186 347.15 965.889 347.498 965.502 347.748C965.115 347.994 964.674 348.117 964.178 348.117C963.361 348.117 962.697 347.822 962.186 347.232C961.674 346.639 961.418 345.873 961.418 344.936V344.232C961.418 342.705 961.766 341.523 962.461 340.688C963.156 339.848 964.143 339.42 965.42 339.404H965.596ZM964.137 343.002C963.691 343.002 963.275 343.135 962.889 343.4C962.506 343.662 962.25 343.996 962.121 344.402V345C962.121 345.742 962.311 346.348 962.689 346.816C963.072 347.285 963.568 347.52 964.178 347.52C964.725 347.52 965.166 347.303 965.502 346.869C965.842 346.436 966.012 345.889 966.012 345.229C966.012 344.557 965.842 344.018 965.502 343.611C965.166 343.205 964.711 343.002 964.137 343.002ZM973.459 348H968.115V347.461L971.039 344.145C971.523 343.586 971.859 343.125 972.047 342.762C972.234 342.398 972.328 342.045 972.328 341.701C972.328 341.162 972.17 340.736 971.854 340.424C971.537 340.107 971.102 339.949 970.547 339.949C969.973 339.949 969.508 340.133 969.152 340.5C968.801 340.867 968.625 341.344 968.625 341.93H967.928C967.928 341.449 968.035 341.012 968.25 340.617C968.469 340.223 968.777 339.914 969.176 339.691C969.578 339.465 970.035 339.352 970.547 339.352C971.328 339.352 971.938 339.557 972.375 339.967C972.816 340.377 973.037 340.936 973.037 341.643C973.037 342.041 972.912 342.477 972.662 342.949C972.416 343.422 971.98 344.012 971.355 344.719L968.977 347.408H973.459V348Z" fill="#3C3C3B"/>
<path d="M264.066 467H263.363V459.312L261.043 460.174V459.518L263.949 458.439H264.066V467ZM272.604 463.443C272.604 464.646 272.383 465.561 271.941 466.186C271.5 466.807 270.85 467.117 269.99 467.117C269.146 467.117 268.5 466.812 268.051 466.203C267.602 465.59 267.371 464.699 267.359 463.531V462.002C267.359 460.803 267.582 459.895 268.027 459.277C268.473 458.66 269.123 458.352 269.979 458.352C270.822 458.352 271.467 458.65 271.912 459.248C272.357 459.842 272.588 460.719 272.604 461.879V463.443ZM271.9 461.914C271.9 460.938 271.74 460.199 271.42 459.699C271.104 459.199 270.623 458.949 269.979 458.949C269.346 458.949 268.869 459.193 268.549 459.682C268.229 460.17 268.064 460.891 268.057 461.844V463.52C268.057 464.492 268.221 465.236 268.549 465.752C268.881 466.268 269.361 466.525 269.99 466.525C270.615 466.525 271.088 466.273 271.408 465.77C271.732 465.266 271.896 464.527 271.9 463.555V461.914ZM279.459 467H274.115V466.461L277.039 463.145C277.523 462.586 277.859 462.125 278.047 461.762C278.234 461.398 278.328 461.045 278.328 460.701C278.328 460.162 278.17 459.736 277.854 459.424C277.537 459.107 277.102 458.949 276.547 458.949C275.973 458.949 275.508 459.133 275.152 459.5C274.801 459.867 274.625 460.344 274.625 460.93H273.928C273.928 460.449 274.035 460.012 274.25 459.617C274.469 459.223 274.777 458.914 275.176 458.691C275.578 458.465 276.035 458.352 276.547 458.352C277.328 458.352 277.938 458.557 278.375 458.967C278.816 459.377 279.037 459.936 279.037 460.643C279.037 461.041 278.912 461.477 278.662 461.949C278.416 462.422 277.98 463.012 277.355 463.719L274.977 466.408H279.459V467Z" fill="#3C3C3B"/>
</svg>
