<svg width="1088" height="506" viewBox="0 0 1088 506" fill="none" xmlns="http://www.w3.org/2000/svg">
<line y1="505" x2="1088" y2="505" stroke="black" stroke-width="2"/>
<line y1="469" x2="1088" y2="469" stroke="#CECECE" stroke-width="2"/>
<line y1="451.5" x2="1088" y2="451.5" stroke="#DDDDDD"/>
<line y1="379.5" x2="1088" y2="379.5" stroke="#DDDDDD"/>
<line y1="307.5" x2="1088" y2="307.5" stroke="#DDDDDD"/>
<line y1="235.5" x2="1088" y2="235.5" stroke="#DDDDDD"/>
<line y1="163.5" x2="1088" y2="163.5" stroke="#DDDDDD"/>
<line y1="91.5" x2="1088" y2="91.5" stroke="#DDDDDD"/>
<line y1="19.5" x2="1088" y2="19.5" stroke="#DDDDDD"/>
<line y1="415.5" x2="1088" y2="415.5" stroke="#DDDDDD"/>
<line y1="343.5" x2="1088" y2="343.5" stroke="#DDDDDD"/>
<line y1="271.5" x2="1088" y2="271.5" stroke="#DDDDDD"/>
<line y1="199.5" x2="1088" y2="199.5" stroke="#DDDDDD"/>
<line y1="127.5" x2="1088" y2="127.5" stroke="#DDDDDD"/>
<line y1="55.5" x2="1088" y2="55.5" stroke="#DDDDDD"/>
<line y1="433" x2="1088" y2="433" stroke="#CECECE" stroke-width="2"/>
<line y1="397" x2="1088" y2="397" stroke="#CECECE" stroke-width="2"/>
<line y1="361" x2="1088" y2="361" stroke="#CECECE" stroke-width="2"/>
<line y1="325" x2="1088" y2="325" stroke="#CECECE" stroke-width="2"/>
<line y1="289" x2="1088" y2="289" stroke="#CECECE" stroke-width="2"/>
<line y1="253" x2="1088" y2="253" stroke="#CECECE" stroke-width="2"/>
<line y1="217" x2="1088" y2="217" stroke="#CECECE" stroke-width="2"/>
<line y1="181" x2="1088" y2="181" stroke="#CECECE" stroke-width="2"/>
<line y1="145" x2="1088" y2="145" stroke="#CECECE" stroke-width="2"/>
<line y1="109" x2="1088" y2="109" stroke="#CECECE" stroke-width="2"/>
<line y1="73" x2="1088" y2="73" stroke="#CECECE" stroke-width="2"/>
<line y1="37" x2="1088" y2="37" stroke="#CECECE" stroke-width="2"/>
<line y1="1" x2="1088" y2="1" stroke="#CECECE" stroke-width="2"/>
<rect x="230" y="56" width="115" height="448" fill="#FECF9B"/>
<rect x="656" y="473" width="115" height="31" fill="#FECF9B"/>
<rect x="347" y="20" width="115" height="484" fill="#37FF9F"/>
<rect x="773" y="470" width="115" height="34" fill="#37FF9F"/>
<line x1="405.25" y1="7" x2="405.25" y2="17" stroke="#3C3C3B" stroke-width="0.5"/>
<line x1="831.25" y1="455" x2="831.25" y2="465" stroke="#3C3C3B" stroke-width="0.5"/>
<line x1="288.25" y1="44" x2="288.25" y2="54" stroke="#3C3C3B" stroke-width="0.5"/>
<line x1="714.25" y1="460" x2="714.25" y2="470" stroke="#3C3C3B" stroke-width="0.5"/>
<path d="M830.146 452H824.803V451.461L827.727 448.145C828.211 447.586 828.547 447.125 828.734 446.762C828.922 446.398 829.016 446.045 829.016 445.701C829.016 445.162 828.857 444.736 828.541 444.424C828.225 444.107 827.789 443.949 827.234 443.949C826.66 443.949 826.195 444.133 825.84 444.5C825.488 444.867 825.312 445.344 825.312 445.93H824.615C824.615 445.449 824.723 445.012 824.938 444.617C825.156 444.223 825.465 443.914 825.863 443.691C826.266 443.465 826.723 443.352 827.234 443.352C828.016 443.352 828.625 443.557 829.062 443.967C829.504 444.377 829.725 444.936 829.725 445.643C829.725 446.041 829.6 446.477 829.35 446.949C829.104 447.422 828.668 448.012 828.043 448.719L825.664 451.408H830.146V452ZM835.596 443.404V444.02H835.514C834.494 444.02 833.691 444.32 833.105 444.922C832.52 445.52 832.195 446.352 832.133 447.418C832.367 447.094 832.666 446.844 833.029 446.668C833.393 446.488 833.799 446.398 834.248 446.398C834.998 446.398 835.594 446.658 836.035 447.178C836.48 447.693 836.703 448.369 836.703 449.205C836.703 449.76 836.6 450.26 836.393 450.705C836.186 451.15 835.889 451.498 835.502 451.748C835.115 451.994 834.674 452.117 834.178 452.117C833.361 452.117 832.697 451.822 832.186 451.232C831.674 450.639 831.418 449.873 831.418 448.936V448.232C831.418 446.705 831.766 445.523 832.461 444.688C833.156 443.848 834.143 443.42 835.42 443.404H835.596ZM834.137 447.002C833.691 447.002 833.275 447.135 832.889 447.4C832.506 447.662 832.25 447.996 832.121 448.402V449C832.121 449.742 832.311 450.348 832.689 450.816C833.072 451.285 833.568 451.52 834.178 451.52C834.725 451.52 835.166 451.303 835.502 450.869C835.842 450.436 836.012 449.889 836.012 449.229C836.012 448.557 835.842 448.018 835.502 447.611C835.166 447.205 834.711 447.002 834.137 447.002Z" fill="#3C3C3B"/>
<path d="M284.146 41H278.803V40.4609L281.727 37.1445C282.211 36.5859 282.547 36.125 282.734 35.7617C282.922 35.3984 283.016 35.0449 283.016 34.7012C283.016 34.1621 282.857 33.7363 282.541 33.4238C282.225 33.1074 281.789 32.9492 281.234 32.9492C280.66 32.9492 280.195 33.1328 279.84 33.5C279.488 33.8672 279.312 34.3438 279.312 34.9297H278.615C278.615 34.4492 278.723 34.0117 278.938 33.6172C279.156 33.2227 279.465 32.9141 279.863 32.6914C280.266 32.4648 280.723 32.3516 281.234 32.3516C282.016 32.3516 282.625 32.5566 283.062 32.9668C283.504 33.377 283.725 33.9355 283.725 34.6426C283.725 35.041 283.6 35.4766 283.35 35.9492C283.104 36.4219 282.668 37.0117 282.043 37.7188L279.664 40.4082H284.146V41ZM285.934 36.6289L286.35 32.4688H290.615V33.1191H286.953L286.654 36.002C287.111 35.6895 287.646 35.5332 288.26 35.5332C289.029 35.5332 289.643 35.7832 290.1 36.2832C290.557 36.7832 290.785 37.4492 290.785 38.2812C290.785 39.1797 290.562 39.877 290.117 40.373C289.672 40.8691 289.045 41.1172 288.236 41.1172C287.494 41.1172 286.893 40.9102 286.432 40.4961C285.971 40.082 285.707 39.502 285.641 38.7559H286.314C286.381 39.3379 286.578 39.7793 286.906 40.0801C287.234 40.377 287.678 40.5254 288.236 40.5254C288.846 40.5254 289.305 40.332 289.613 39.9453C289.926 39.5586 290.082 39.0078 290.082 38.293C290.082 37.668 289.908 37.1582 289.561 36.7637C289.213 36.3691 288.738 36.1719 288.137 36.1719C287.805 36.1719 287.516 36.2148 287.27 36.3008C287.023 36.3828 286.764 36.5449 286.49 36.7871L285.934 36.6289ZM292.59 36.6289L293.006 32.4688H297.271V33.1191H293.609L293.311 36.002C293.768 35.6895 294.303 35.5332 294.916 35.5332C295.686 35.5332 296.299 35.7832 296.756 36.2832C297.213 36.7832 297.441 37.4492 297.441 38.2812C297.441 39.1797 297.219 39.877 296.773 40.373C296.328 40.8691 295.701 41.1172 294.893 41.1172C294.15 41.1172 293.549 40.9102 293.088 40.4961C292.627 40.082 292.363 39.502 292.297 38.7559H292.971C293.037 39.3379 293.234 39.7793 293.562 40.0801C293.891 40.377 294.334 40.5254 294.893 40.5254C295.502 40.5254 295.961 40.332 296.27 39.9453C296.582 39.5586 296.738 39.0078 296.738 38.293C296.738 37.668 296.564 37.1582 296.217 36.7637C295.869 36.3691 295.395 36.1719 294.793 36.1719C294.461 36.1719 294.172 36.2148 293.926 36.3008C293.68 36.3828 293.42 36.5449 293.146 36.7871L292.59 36.6289Z" fill="#3C3C3B"/>
<path d="M713.146 457H707.803V456.461L710.727 453.145C711.211 452.586 711.547 452.125 711.734 451.762C711.922 451.398 712.016 451.045 712.016 450.701C712.016 450.162 711.857 449.736 711.541 449.424C711.225 449.107 710.789 448.949 710.234 448.949C709.66 448.949 709.195 449.133 708.84 449.5C708.488 449.867 708.312 450.344 708.312 450.93H707.615C707.615 450.449 707.723 450.012 707.938 449.617C708.156 449.223 708.465 448.914 708.863 448.691C709.266 448.465 709.723 448.352 710.234 448.352C711.016 448.352 711.625 448.557 712.062 448.967C712.504 449.377 712.725 449.936 712.725 450.643C712.725 451.041 712.6 451.477 712.35 451.949C712.104 452.422 711.668 453.012 711.043 453.719L708.664 456.408H713.146V457ZM718.766 454.252H720.096V454.844H718.766V457H718.062V454.844H714.049V454.445L717.998 448.469H718.766V454.252ZM714.91 454.252H718.062V449.377L717.752 449.916L714.91 454.252Z" fill="#3C3C3B"/>
</svg>
