<svg width="1088" height="545" viewBox="0 0 1088 545" fill="none" xmlns="http://www.w3.org/2000/svg">
<line y1="505" x2="1088" y2="505" stroke="black" stroke-width="2"/>
<line y1="469" x2="1088" y2="469" stroke="#CECECE" stroke-width="2"/>
<line y1="451.5" x2="1088" y2="451.5" stroke="#DDDDDD"/>
<line y1="379.5" x2="1088" y2="379.5" stroke="#DDDDDD"/>
<line y1="307.5" x2="1088" y2="307.5" stroke="#DDDDDD"/>
<line y1="235.5" x2="1088" y2="235.5" stroke="#DDDDDD"/>
<line y1="163.5" x2="1088" y2="163.5" stroke="#DDDDDD"/>
<line y1="91.5" x2="1088" y2="91.5" stroke="#DDDDDD"/>
<line y1="19.5" x2="1088" y2="19.5" stroke="#DDDDDD"/>
<line y1="415.5" x2="1088" y2="415.5" stroke="#DDDDDD"/>
<line y1="343.5" x2="1088" y2="343.5" stroke="#DDDDDD"/>
<line y1="271.5" x2="1088" y2="271.5" stroke="#DDDDDD"/>
<line y1="199.5" x2="1088" y2="199.5" stroke="#DDDDDD"/>
<line y1="127.5" x2="1088" y2="127.5" stroke="#DDDDDD"/>
<line y1="55.5" x2="1088" y2="55.5" stroke="#DDDDDD"/>
<line y1="433" x2="1088" y2="433" stroke="#CECECE" stroke-width="2"/>
<line y1="397" x2="1088" y2="397" stroke="#CECECE" stroke-width="2"/>
<line y1="361" x2="1088" y2="361" stroke="#CECECE" stroke-width="2"/>
<line y1="325" x2="1088" y2="325" stroke="#CECECE" stroke-width="2"/>
<line y1="289" x2="1088" y2="289" stroke="#CECECE" stroke-width="2"/>
<line y1="253" x2="1088" y2="253" stroke="#CECECE" stroke-width="2"/>
<line y1="217" x2="1088" y2="217" stroke="#CECECE" stroke-width="2"/>
<line y1="181" x2="1088" y2="181" stroke="#CECECE" stroke-width="2"/>
<line y1="145" x2="1088" y2="145" stroke="#CECECE" stroke-width="2"/>
<line y1="109" x2="1088" y2="109" stroke="#CECECE" stroke-width="2"/>
<line y1="73" x2="1088" y2="73" stroke="#CECECE" stroke-width="2"/>
<line y1="37" x2="1088" y2="37" stroke="#CECECE" stroke-width="2"/>
<line y1="1" x2="1088" y2="1" stroke="#CECECE" stroke-width="2"/>
<path d="M15.4551 542V538.678H13.4863L11.7227 542H10.5215L12.502 538.367C11.4004 537.934 10.8496 537.158 10.8496 536.041C10.8496 535.229 11.1152 534.598 11.6465 534.148C12.1816 533.695 12.9238 533.469 13.873 533.469H16.5859V542H15.4551ZM11.9746 536.041C11.9746 536.557 12.1348 536.971 12.4551 537.283C12.7793 537.596 13.2285 537.754 13.8027 537.758H15.4551V534.395H13.8555C13.2461 534.395 12.7793 534.539 12.4551 534.828C12.1348 535.117 11.9746 535.521 11.9746 536.041ZM23.6406 542H22.5566V539.293H19.6445V542H18.5547V535.66H19.6445V538.408H22.5566V535.66H23.6406V542ZM25.4863 542V535.66H27.959C28.8027 535.66 29.4492 535.809 29.8984 536.105C30.3516 536.398 30.5781 536.83 30.5781 537.4C30.5781 537.693 30.4902 537.959 30.3145 538.197C30.1387 538.432 29.8789 538.611 29.5352 538.736C29.918 538.826 30.2246 539.002 30.4551 539.264C30.6895 539.525 30.8066 539.838 30.8066 540.201C30.8066 540.783 30.5918 541.229 30.1621 541.537C29.7363 541.846 29.1328 542 28.3516 542H25.4863ZM26.5703 539.217V541.127H28.3633C28.8164 541.127 29.1543 541.043 29.377 540.875C29.6035 540.707 29.7168 540.471 29.7168 540.166C29.7168 539.533 29.252 539.217 28.3223 539.217H26.5703ZM26.5703 538.35H27.9707C28.9863 538.35 29.4941 538.053 29.4941 537.459C29.4941 536.865 29.0137 536.559 28.0527 536.539H26.5703V538.35ZM36.1562 542C36.0938 541.875 36.043 541.652 36.0039 541.332C35.5 541.855 34.8984 542.117 34.1992 542.117C33.5742 542.117 33.0605 541.941 32.6582 541.59C32.2598 541.234 32.0605 540.785 32.0605 540.242C32.0605 539.582 32.3105 539.07 32.8105 538.707C33.3145 538.34 34.0215 538.156 34.9316 538.156H35.9863V537.658C35.9863 537.279 35.873 536.979 35.6465 536.756C35.4199 536.529 35.0859 536.416 34.6445 536.416C34.2578 536.416 33.9336 536.514 33.6719 536.709C33.4102 536.904 33.2793 537.141 33.2793 537.418H32.1895C32.1895 537.102 32.3008 536.797 32.5234 536.504C32.75 536.207 33.0547 535.973 33.4375 535.801C33.8242 535.629 34.248 535.543 34.709 535.543C35.4395 535.543 36.0117 535.727 36.4258 536.094C36.8398 536.457 37.0547 536.959 37.0703 537.6V540.518C37.0703 541.1 37.1445 541.562 37.293 541.906V542H36.1562ZM34.3574 541.174C34.6973 541.174 35.0195 541.086 35.3242 540.91C35.6289 540.734 35.8496 540.506 35.9863 540.225V538.924H35.1367C33.8086 538.924 33.1445 539.312 33.1445 540.09C33.1445 540.43 33.2578 540.695 33.4844 540.887C33.7109 541.078 34.002 541.174 34.3574 541.174ZM44.125 538.9C44.125 539.865 43.9043 540.643 43.4629 541.232C43.0215 541.822 42.4238 542.117 41.6699 542.117C40.9004 542.117 40.2949 541.873 39.8535 541.385V544.438H38.7695V535.66H39.7598L39.8125 536.363C40.2539 535.816 40.8672 535.543 41.6523 535.543C42.4141 535.543 43.0156 535.83 43.457 536.404C43.9023 536.979 44.125 537.777 44.125 538.801V538.9ZM43.041 538.777C43.041 538.062 42.8887 537.498 42.584 537.084C42.2793 536.67 41.8613 536.463 41.3301 536.463C40.6738 536.463 40.1816 536.754 39.8535 537.336V540.365C40.1777 540.943 40.6738 541.232 41.3418 541.232C41.8613 541.232 42.2734 541.027 42.5781 540.617C42.8867 540.203 43.041 539.59 43.041 538.777ZM46.6914 537.846H48.3379C49.0566 537.854 49.625 538.041 50.043 538.408C50.4609 538.775 50.6699 539.273 50.6699 539.902C50.6699 540.535 50.4551 541.043 50.0254 541.426C49.5957 541.809 49.0176 542 48.291 542H45.6074V535.66H46.6914V537.846ZM46.6914 538.73V541.115H48.3027C48.709 541.115 49.0234 541.012 49.2461 540.805C49.4688 540.594 49.5801 540.307 49.5801 539.943C49.5801 539.592 49.4707 539.305 49.252 539.082C49.0371 538.855 48.7344 538.738 48.3438 538.73H46.6914Z" fill="#3C3C3B"/>
<path d="M109.203 534.324H109.385C110.029 534.328 110.617 534.479 111.148 534.775C111.68 535.072 112.092 535.482 112.385 536.006C112.682 536.525 112.83 537.107 112.83 537.752C112.83 538.4 112.682 538.988 112.385 539.516C112.088 540.043 111.678 540.455 111.154 540.752C110.631 541.045 110.049 541.195 109.408 541.203H109.203V542.352H108.113V541.203H107.949C107.297 541.203 106.703 541.055 106.168 540.758C105.637 540.461 105.223 540.051 104.926 539.527C104.633 539.004 104.486 538.416 104.486 537.764C104.486 537.111 104.633 536.523 104.926 536C105.223 535.477 105.637 535.066 106.168 534.77C106.703 534.473 107.297 534.324 107.949 534.324H108.113V533.117H109.203V534.324ZM107.949 535.209C107.215 535.209 106.633 535.436 106.203 535.889C105.777 536.338 105.564 536.963 105.564 537.764C105.564 538.568 105.777 539.195 106.203 539.645C106.629 540.09 107.215 540.312 107.961 540.312H108.113V535.209H107.949ZM109.203 535.209V540.312H109.367C110.113 540.312 110.695 540.084 111.113 539.627C111.535 539.166 111.746 538.541 111.746 537.752C111.746 536.971 111.535 536.352 111.113 535.895C110.695 535.438 110.105 535.209 109.344 535.209H109.203ZM116.709 542.117C115.85 542.117 115.15 541.836 114.611 541.273C114.072 540.707 113.803 539.951 113.803 539.006V538.807C113.803 538.178 113.922 537.617 114.16 537.125C114.402 536.629 114.738 536.242 115.168 535.965C115.602 535.684 116.07 535.543 116.574 535.543C117.398 535.543 118.039 535.814 118.496 536.357C118.953 536.9 119.182 537.678 119.182 538.689V539.141H114.887C114.902 539.766 115.084 540.271 115.432 540.658C115.783 541.041 116.229 541.232 116.768 541.232C117.15 541.232 117.475 541.154 117.74 540.998C118.006 540.842 118.238 540.635 118.438 540.377L119.1 540.893C118.568 541.709 117.771 542.117 116.709 542.117ZM116.574 536.434C116.137 536.434 115.77 536.594 115.473 536.914C115.176 537.23 114.992 537.676 114.922 538.25H118.098V538.168C118.066 537.617 117.918 537.191 117.652 536.891C117.387 536.586 117.027 536.434 116.574 536.434ZM120.541 542V535.66H123.014C123.857 535.66 124.504 535.809 124.953 536.105C125.406 536.398 125.633 536.83 125.633 537.4C125.633 537.693 125.545 537.959 125.369 538.197C125.193 538.432 124.934 538.611 124.59 538.736C124.973 538.826 125.279 539.002 125.51 539.264C125.744 539.525 125.861 539.838 125.861 540.201C125.861 540.783 125.646 541.229 125.217 541.537C124.791 541.846 124.188 542 123.406 542H120.541ZM121.625 539.217V541.127H123.418C123.871 541.127 124.209 541.043 124.432 540.875C124.658 540.707 124.771 540.471 124.771 540.166C124.771 539.533 124.307 539.217 123.377 539.217H121.625ZM121.625 538.35H123.025C124.041 538.35 124.549 538.053 124.549 537.459C124.549 536.865 124.068 536.559 123.107 536.539H121.625V538.35ZM132.652 538.9C132.652 539.865 132.432 540.643 131.99 541.232C131.549 541.822 130.951 542.117 130.197 542.117C129.428 542.117 128.822 541.873 128.381 541.385V544.438H127.297V535.66H128.287L128.34 536.363C128.781 535.816 129.395 535.543 130.18 535.543C130.941 535.543 131.543 535.83 131.984 536.404C132.43 536.979 132.652 537.777 132.652 538.801V538.9ZM131.568 538.777C131.568 538.062 131.416 537.498 131.111 537.084C130.807 536.67 130.389 536.463 129.857 536.463C129.201 536.463 128.709 536.754 128.381 537.336V540.365C128.705 540.943 129.201 541.232 129.869 541.232C130.389 541.232 130.801 541.027 131.105 540.617C131.414 540.203 131.568 539.59 131.568 538.777ZM137.949 542C137.887 541.875 137.836 541.652 137.797 541.332C137.293 541.855 136.691 542.117 135.992 542.117C135.367 542.117 134.854 541.941 134.451 541.59C134.053 541.234 133.854 540.785 133.854 540.242C133.854 539.582 134.104 539.07 134.604 538.707C135.107 538.34 135.814 538.156 136.725 538.156H137.779V537.658C137.779 537.279 137.666 536.979 137.439 536.756C137.213 536.529 136.879 536.416 136.438 536.416C136.051 536.416 135.727 536.514 135.465 536.709C135.203 536.904 135.072 537.141 135.072 537.418H133.982C133.982 537.102 134.094 536.797 134.316 536.504C134.543 536.207 134.848 535.973 135.23 535.801C135.617 535.629 136.041 535.543 136.502 535.543C137.232 535.543 137.805 535.727 138.219 536.094C138.633 536.457 138.848 536.959 138.863 537.6V540.518C138.863 541.1 138.938 541.562 139.086 541.906V542H137.949ZM136.15 541.174C136.49 541.174 136.812 541.086 137.117 540.91C137.422 540.734 137.643 540.506 137.779 540.225V538.924H136.93C135.602 538.924 134.938 539.312 134.938 540.09C134.938 540.43 135.051 540.695 135.277 540.887C135.504 541.078 135.795 541.174 136.15 541.174ZM145.76 535.66V542H144.67V536.557H142.514L142.385 538.93C142.314 540.02 142.131 540.799 141.834 541.268C141.541 541.736 141.074 541.98 140.434 542H140V541.045L140.311 541.021C140.662 540.982 140.914 540.779 141.066 540.412C141.219 540.045 141.316 539.365 141.359 538.373L141.477 535.66H145.76ZM148.684 537.846H150.33C151.049 537.854 151.617 538.041 152.035 538.408C152.453 538.775 152.662 539.273 152.662 539.902C152.662 540.535 152.447 541.043 152.018 541.426C151.588 541.809 151.01 542 150.283 542H147.6V535.66H148.684V537.846ZM148.684 538.73V541.115H150.295C150.701 541.115 151.016 541.012 151.238 540.805C151.461 540.594 151.572 540.307 151.572 539.943C151.572 539.592 151.463 539.305 151.244 539.082C151.029 538.855 150.727 538.738 150.336 538.73H148.684Z" fill="#3C3C3B"/>
<path d="M208.443 533.469L211.232 540.43L214.021 533.469H215.48V542H214.355V538.678L214.461 535.092L211.66 542H210.799L208.004 535.109L208.115 538.678V542H206.99V533.469H208.443ZM221.211 542C221.148 541.875 221.098 541.652 221.059 541.332C220.555 541.855 219.953 542.117 219.254 542.117C218.629 542.117 218.115 541.941 217.713 541.59C217.314 541.234 217.115 540.785 217.115 540.242C217.115 539.582 217.365 539.07 217.865 538.707C218.369 538.34 219.076 538.156 219.986 538.156H221.041V537.658C221.041 537.279 220.928 536.979 220.701 536.756C220.475 536.529 220.141 536.416 219.699 536.416C219.312 536.416 218.988 536.514 218.727 536.709C218.465 536.904 218.334 537.141 218.334 537.418H217.244C217.244 537.102 217.355 536.797 217.578 536.504C217.805 536.207 218.109 535.973 218.492 535.801C218.879 535.629 219.303 535.543 219.764 535.543C220.494 535.543 221.066 535.727 221.48 536.094C221.895 536.457 222.109 536.959 222.125 537.6V540.518C222.125 541.1 222.199 541.562 222.348 541.906V542H221.211ZM219.412 541.174C219.752 541.174 220.074 541.086 220.379 540.91C220.684 540.734 220.904 540.506 221.041 540.225V538.924H220.191C218.863 538.924 218.199 539.312 218.199 540.09C218.199 540.43 218.312 540.695 218.539 540.887C218.766 541.078 219.057 541.174 219.412 541.174ZM229.18 538.9C229.18 539.865 228.959 540.643 228.518 541.232C228.076 541.822 227.479 542.117 226.725 542.117C225.955 542.117 225.35 541.873 224.908 541.385V544.438H223.824V535.66H224.814L224.867 536.363C225.309 535.816 225.922 535.543 226.707 535.543C227.469 535.543 228.07 535.83 228.512 536.404C228.957 536.979 229.18 537.777 229.18 538.801V538.9ZM228.096 538.777C228.096 538.062 227.943 537.498 227.639 537.084C227.334 536.67 226.916 536.463 226.385 536.463C225.729 536.463 225.236 536.754 224.908 537.336V540.365C225.232 540.943 225.729 541.232 226.396 541.232C226.916 541.232 227.328 541.027 227.633 540.617C227.941 540.203 228.096 539.59 228.096 538.777ZM234.805 536.539H232.678V542H231.594V536.539H229.508V535.66H234.805V536.539Z" fill="#3C3C3B"/>
<path d="M293.701 539.773H290.127L289.324 542H288.164L291.422 533.469H292.406L295.67 542H294.516L293.701 539.773ZM290.467 538.848H293.367L291.914 534.857L290.467 538.848ZM301.834 542H300.75V536.557H297.832V542H296.742V535.66H301.834V542ZM308.93 538.9C308.93 539.865 308.709 540.643 308.268 541.232C307.826 541.822 307.229 542.117 306.475 542.117C305.705 542.117 305.1 541.873 304.658 541.385V544.438H303.574V535.66H304.564L304.617 536.363C305.059 535.816 305.672 535.543 306.457 535.543C307.219 535.543 307.82 535.83 308.262 536.404C308.707 536.979 308.93 537.777 308.93 538.801V538.9ZM307.846 538.777C307.846 538.062 307.693 537.498 307.389 537.084C307.084 536.67 306.666 536.463 306.135 536.463C305.479 536.463 304.986 536.754 304.658 537.336V540.365C304.982 540.943 305.479 541.232 306.146 541.232C306.666 541.232 307.078 541.027 307.383 540.617C307.691 540.203 307.846 539.59 307.846 538.777ZM312.943 542.117C312.084 542.117 311.385 541.836 310.846 541.273C310.307 540.707 310.037 539.951 310.037 539.006V538.807C310.037 538.178 310.156 537.617 310.395 537.125C310.637 536.629 310.973 536.242 311.402 535.965C311.836 535.684 312.305 535.543 312.809 535.543C313.633 535.543 314.273 535.814 314.73 536.357C315.188 536.9 315.416 537.678 315.416 538.689V539.141H311.121C311.137 539.766 311.318 540.271 311.666 540.658C312.018 541.041 312.463 541.232 313.002 541.232C313.385 541.232 313.709 541.154 313.975 540.998C314.24 540.842 314.473 540.635 314.672 540.377L315.334 540.893C314.803 541.709 314.006 542.117 312.943 542.117ZM312.809 536.434C312.371 536.434 312.004 536.594 311.707 536.914C311.41 537.23 311.227 537.676 311.156 538.25H314.332V538.168C314.301 537.617 314.152 537.191 313.887 536.891C313.621 536.586 313.262 536.434 312.809 536.434ZM321.873 535.66V542H320.783V536.557H318.627L318.498 538.93C318.428 540.02 318.244 540.799 317.947 541.268C317.654 541.736 317.188 541.98 316.547 542H316.113V541.045L316.424 541.021C316.775 540.982 317.027 540.779 317.18 540.412C317.332 540.045 317.43 539.365 317.473 538.373L317.59 535.66H321.873ZM324.797 537.846H326.443C327.162 537.854 327.73 538.041 328.148 538.408C328.566 538.775 328.775 539.273 328.775 539.902C328.775 540.535 328.561 541.043 328.131 541.426C327.701 541.809 327.123 542 326.396 542H323.713V535.66H324.797V537.846ZM324.797 538.73V541.115H326.408C326.814 541.115 327.129 541.012 327.352 540.805C327.574 540.594 327.686 540.307 327.686 539.943C327.686 539.592 327.576 539.305 327.357 539.082C327.143 538.855 326.84 538.738 326.449 538.73H324.797Z" fill="#3C3C3B"/>
<path d="M384.443 533.469L387.232 540.43L390.021 533.469H391.48V542H390.355V538.678L390.461 535.092L387.66 542H386.799L384.004 535.109L384.115 538.678V542H382.99V533.469H384.443ZM397.211 542C397.148 541.875 397.098 541.652 397.059 541.332C396.555 541.855 395.953 542.117 395.254 542.117C394.629 542.117 394.115 541.941 393.713 541.59C393.314 541.234 393.115 540.785 393.115 540.242C393.115 539.582 393.365 539.07 393.865 538.707C394.369 538.34 395.076 538.156 395.986 538.156H397.041V537.658C397.041 537.279 396.928 536.979 396.701 536.756C396.475 536.529 396.141 536.416 395.699 536.416C395.312 536.416 394.988 536.514 394.727 536.709C394.465 536.904 394.334 537.141 394.334 537.418H393.244C393.244 537.102 393.355 536.797 393.578 536.504C393.805 536.207 394.109 535.973 394.492 535.801C394.879 535.629 395.303 535.543 395.764 535.543C396.494 535.543 397.066 535.727 397.48 536.094C397.895 536.457 398.109 536.959 398.125 537.6V540.518C398.125 541.1 398.199 541.562 398.348 541.906V542H397.211ZM395.412 541.174C395.752 541.174 396.074 541.086 396.379 540.91C396.684 540.734 396.904 540.506 397.041 540.225V538.924H396.191C394.863 538.924 394.199 539.312 394.199 540.09C394.199 540.43 394.312 540.695 394.539 540.887C394.766 541.078 395.057 541.174 395.412 541.174ZM403.926 535.66H405.01V542H403.926V537.377L401.002 542H399.918V535.66H401.002V540.289L403.926 535.66ZM404.219 533.352C404.219 533.824 404.057 534.205 403.732 534.494C403.412 534.779 402.99 534.922 402.467 534.922C401.943 534.922 401.52 534.777 401.195 534.488C400.871 534.199 400.709 533.82 400.709 533.352H401.594C401.594 533.625 401.668 533.84 401.816 533.996C401.965 534.148 402.182 534.225 402.467 534.225C402.74 534.225 402.953 534.148 403.105 533.996C403.262 533.844 403.34 533.629 403.34 533.352H404.219Z" fill="#3C3C3B"/>
<path d="M464.369 533.469H465.494V542H464.369V535.426L460.168 542H459.037V533.469H460.168V540.043L464.369 533.469ZM468.559 538.35H470.082C470.164 537.506 470.463 536.828 470.979 536.316C471.498 535.801 472.152 535.543 472.941 535.543C473.77 535.543 474.447 535.822 474.975 536.381C475.502 536.939 475.787 537.666 475.83 538.561L475.836 538.9C475.836 539.518 475.715 540.074 475.473 540.57C475.23 541.066 474.891 541.449 474.453 541.719C474.016 541.984 473.516 542.117 472.953 542.117C472.137 542.117 471.469 541.852 470.949 541.32C470.43 540.785 470.139 540.092 470.076 539.24H468.559V542H467.475V535.66H468.559V538.35ZM471.148 538.9C471.148 539.604 471.311 540.168 471.635 540.594C471.963 541.02 472.402 541.232 472.953 541.232C473.504 541.232 473.939 541.016 474.26 540.582C474.584 540.148 474.746 539.545 474.746 538.771C474.746 538.08 474.582 537.518 474.254 537.084C473.926 536.65 473.488 536.434 472.941 536.434C472.402 536.434 471.969 536.646 471.641 537.072C471.312 537.498 471.148 538.107 471.148 538.9ZM482.352 542H481.268V539.293H478.355V542H477.266V535.66H478.355V538.408H481.268V535.66H482.352V542ZM485.281 537.846H486.928C487.646 537.854 488.215 538.041 488.633 538.408C489.051 538.775 489.26 539.273 489.26 539.902C489.26 540.535 489.045 541.043 488.615 541.426C488.186 541.809 487.607 542 486.881 542H484.197V535.66H485.281V537.846ZM485.281 538.73V541.115H486.893C487.299 541.115 487.613 541.012 487.836 540.805C488.059 540.594 488.17 540.307 488.17 539.943C488.17 539.592 488.061 539.305 487.842 539.082C487.627 538.855 487.324 538.738 486.934 538.73H485.281Z" fill="#3C3C3B"/>
<path d="M548.369 533.469H549.494V542H548.369V535.426L544.168 542H543.037V533.469H544.168V540.043L548.369 533.469ZM552.559 538.35H554.082C554.164 537.506 554.463 536.828 554.979 536.316C555.498 535.801 556.152 535.543 556.941 535.543C557.77 535.543 558.447 535.822 558.975 536.381C559.502 536.939 559.787 537.666 559.83 538.561L559.836 538.9C559.836 539.518 559.715 540.074 559.473 540.57C559.23 541.066 558.891 541.449 558.453 541.719C558.016 541.984 557.516 542.117 556.953 542.117C556.137 542.117 555.469 541.852 554.949 541.32C554.43 540.785 554.139 540.092 554.076 539.24H552.559V542H551.475V535.66H552.559V538.35ZM555.148 538.9C555.148 539.604 555.311 540.168 555.635 540.594C555.963 541.02 556.402 541.232 556.953 541.232C557.504 541.232 557.939 541.016 558.26 540.582C558.584 540.148 558.746 539.545 558.746 538.771C558.746 538.08 558.582 537.518 558.254 537.084C557.926 536.65 557.488 536.434 556.941 536.434C556.402 536.434 555.969 536.646 555.641 537.072C555.312 537.498 555.148 538.107 555.148 538.9ZM566.287 535.66V542H565.197V536.557H563.041L562.912 538.93C562.842 540.02 562.658 540.799 562.361 541.268C562.068 541.736 561.602 541.98 560.961 542H560.527V541.045L560.838 541.021C561.189 540.982 561.441 540.779 561.594 540.412C561.746 540.045 561.844 539.365 561.887 538.373L562.004 535.66H566.287ZM569.211 537.846H570.857C571.576 537.854 572.145 538.041 572.562 538.408C572.98 538.775 573.189 539.273 573.189 539.902C573.189 540.535 572.975 541.043 572.545 541.426C572.115 541.809 571.537 542 570.811 542H568.127V535.66H569.211V537.846ZM569.211 538.73V541.115H570.822C571.229 541.115 571.543 541.012 571.766 540.805C571.988 540.594 572.1 540.307 572.1 539.943C572.1 539.592 571.99 539.305 571.771 539.082C571.557 538.855 571.254 538.738 570.863 538.73H569.211Z" fill="#3C3C3B"/>
<path d="M631.701 539.773H628.127L627.324 542H626.164L629.422 533.469H630.406L633.67 542H632.516L631.701 539.773ZM628.467 538.848H631.367L629.914 534.857L628.467 538.848ZM634.748 542V535.66H637.221C638.064 535.66 638.711 535.809 639.16 536.105C639.613 536.398 639.84 536.83 639.84 537.4C639.84 537.693 639.752 537.959 639.576 538.197C639.4 538.432 639.141 538.611 638.797 538.736C639.18 538.826 639.486 539.002 639.717 539.264C639.951 539.525 640.068 539.838 640.068 540.201C640.068 540.783 639.854 541.229 639.424 541.537C638.998 541.846 638.395 542 637.613 542H634.748ZM635.832 539.217V541.127H637.625C638.078 541.127 638.416 541.043 638.639 540.875C638.865 540.707 638.979 540.471 638.979 540.166C638.979 539.533 638.514 539.217 637.584 539.217H635.832ZM635.832 538.35H637.232C638.248 538.35 638.756 538.053 638.756 537.459C638.756 536.865 638.275 536.559 637.314 536.539H635.832V538.35ZM645.6 536.557H642.676V542H641.586V535.66H645.6V536.557ZM648.617 540.412L650.094 535.66H651.254L648.705 542.979C648.311 544.033 647.684 544.561 646.824 544.561L646.619 544.543L646.215 544.467V543.588L646.508 543.611C646.875 543.611 647.16 543.537 647.363 543.389C647.57 543.24 647.74 542.969 647.873 542.574L648.113 541.93L645.852 535.66H647.035L648.617 540.412ZM654.688 541.232C655.074 541.232 655.412 541.115 655.701 540.881C655.99 540.646 656.15 540.354 656.182 540.002H657.207C657.188 540.365 657.062 540.711 656.832 541.039C656.602 541.367 656.293 541.629 655.906 541.824C655.523 542.02 655.117 542.117 654.688 542.117C653.824 542.117 653.137 541.83 652.625 541.256C652.117 540.678 651.863 539.889 651.863 538.889V538.707C651.863 538.09 651.977 537.541 652.203 537.061C652.43 536.58 652.754 536.207 653.176 535.941C653.602 535.676 654.104 535.543 654.682 535.543C655.393 535.543 655.982 535.756 656.451 536.182C656.924 536.607 657.176 537.16 657.207 537.84H656.182C656.15 537.43 655.994 537.094 655.713 536.832C655.436 536.566 655.092 536.434 654.682 536.434C654.131 536.434 653.703 536.633 653.398 537.031C653.098 537.426 652.947 537.998 652.947 538.748V538.953C652.947 539.684 653.098 540.246 653.398 540.641C653.699 541.035 654.129 541.232 654.688 541.232ZM663.137 536.539H661.01V542H659.926V536.539H657.84V535.66H663.137V536.539Z" fill="#3C3C3B"/>
<path d="M723.266 539.293C723.16 540.195 722.826 540.893 722.264 541.385C721.705 541.873 720.961 542.117 720.031 542.117C719.023 542.117 718.215 541.756 717.605 541.033C717 540.311 716.697 539.344 716.697 538.133V537.312C716.697 536.52 716.838 535.822 717.119 535.221C717.404 534.619 717.807 534.158 718.326 533.838C718.846 533.514 719.447 533.352 720.131 533.352C721.037 533.352 721.764 533.605 722.311 534.113C722.857 534.617 723.176 535.316 723.266 536.211H722.135C722.037 535.531 721.824 535.039 721.496 534.734C721.172 534.43 720.717 534.277 720.131 534.277C719.412 534.277 718.848 534.543 718.438 535.074C718.031 535.605 717.828 536.361 717.828 537.342V538.168C717.828 539.094 718.021 539.83 718.408 540.377C718.795 540.924 719.336 541.197 720.031 541.197C720.656 541.197 721.135 541.057 721.467 540.775C721.803 540.49 722.025 539.996 722.135 539.293H723.266ZM727.268 542.117C726.408 542.117 725.709 541.836 725.17 541.273C724.631 540.707 724.361 539.951 724.361 539.006V538.807C724.361 538.178 724.48 537.617 724.719 537.125C724.961 536.629 725.297 536.242 725.727 535.965C726.16 535.684 726.629 535.543 727.133 535.543C727.957 535.543 728.598 535.814 729.055 536.357C729.512 536.9 729.74 537.678 729.74 538.689V539.141H725.445C725.461 539.766 725.643 540.271 725.99 540.658C726.342 541.041 726.787 541.232 727.326 541.232C727.709 541.232 728.033 541.154 728.299 540.998C728.564 540.842 728.797 540.635 728.996 540.377L729.658 540.893C729.127 541.709 728.33 542.117 727.268 542.117ZM727.133 536.434C726.695 536.434 726.328 536.594 726.031 536.914C725.734 537.23 725.551 537.676 725.48 538.25H728.656V538.168C728.625 537.617 728.477 537.191 728.211 536.891C727.945 536.586 727.586 536.434 727.133 536.434ZM736.18 542H735.096V539.293H732.184V542H731.094V535.66H732.184V538.408H735.096V535.66H736.18V542ZM742.637 536.539H740.51V542H739.426V536.539H737.34V535.66H742.637V536.539ZM748.537 535.66V542H747.447V539.533H745.812L744.318 542H743.146L744.74 539.369C744.334 539.221 744.021 538.992 743.803 538.684C743.588 538.371 743.48 538.008 743.48 537.594C743.48 537.016 743.697 536.551 744.131 536.199C744.564 535.844 745.145 535.664 745.871 535.66H748.537ZM744.57 537.605C744.57 537.914 744.676 538.164 744.887 538.355C745.098 538.543 745.377 538.639 745.725 538.643H747.447V536.539H745.889C745.486 536.539 745.166 536.639 744.928 536.838C744.689 537.033 744.57 537.289 744.57 537.605ZM753.061 536.023C753.857 536.023 754.494 536.291 754.971 536.826C755.451 537.357 755.691 538.059 755.691 538.93V539.029C755.691 539.627 755.576 540.162 755.346 540.635C755.115 541.104 754.783 541.469 754.35 541.73C753.92 541.988 753.424 542.117 752.861 542.117C752.01 542.117 751.324 541.834 750.805 541.268C750.285 540.697 750.025 539.934 750.025 538.977V538.449C750.025 537.117 750.271 536.059 750.764 535.273C751.26 534.488 751.99 534.01 752.955 533.838C753.502 533.74 753.871 533.621 754.062 533.48C754.254 533.34 754.35 533.146 754.35 532.9H755.24C755.24 533.389 755.129 533.77 754.906 534.043C754.688 534.316 754.336 534.51 753.852 534.623L753.043 534.805C752.398 534.957 751.914 535.215 751.59 535.578C751.27 535.938 751.061 536.418 750.963 537.02C751.537 536.355 752.236 536.023 753.061 536.023ZM752.85 536.914C752.318 536.914 751.896 537.094 751.584 537.453C751.271 537.809 751.115 538.303 751.115 538.936V539.029C751.115 539.709 751.271 540.248 751.584 540.646C751.9 541.041 752.326 541.238 752.861 541.238C753.4 541.238 753.826 541.039 754.139 540.641C754.451 540.242 754.607 539.66 754.607 538.895C754.607 538.297 754.449 537.818 754.133 537.459C753.82 537.096 753.393 536.914 752.85 536.914ZM762.16 538.9C762.16 539.865 761.939 540.643 761.498 541.232C761.057 541.822 760.459 542.117 759.705 542.117C758.936 542.117 758.33 541.873 757.889 541.385V544.438H756.805V535.66H757.795L757.848 536.363C758.289 535.816 758.902 535.543 759.688 535.543C760.449 535.543 761.051 535.83 761.492 536.404C761.938 536.979 762.16 537.777 762.16 538.801V538.9ZM761.076 538.777C761.076 538.062 760.924 537.498 760.619 537.084C760.314 536.67 759.896 536.463 759.365 536.463C758.709 536.463 758.217 536.754 757.889 537.336V540.365C758.213 540.943 758.709 541.232 759.377 541.232C759.896 541.232 760.309 541.027 760.613 540.617C760.922 540.203 761.076 539.59 761.076 538.777ZM764.727 537.846H766.373C767.092 537.854 767.66 538.041 768.078 538.408C768.496 538.775 768.705 539.273 768.705 539.902C768.705 540.535 768.49 541.043 768.061 541.426C767.631 541.809 767.053 542 766.326 542H763.643V535.66H764.727V537.846ZM764.727 538.73V541.115H766.338C766.744 541.115 767.059 541.012 767.281 540.805C767.504 540.594 767.615 540.307 767.615 539.943C767.615 539.592 767.506 539.305 767.287 539.082C767.072 538.855 766.77 538.738 766.379 538.73H764.727Z" fill="#3C3C3B"/>
<path d="M829.553 538.01C829.553 538.846 829.412 539.576 829.131 540.201C828.85 540.822 828.451 541.297 827.936 541.625C827.42 541.953 826.818 542.117 826.131 542.117C825.459 542.117 824.863 541.953 824.344 541.625C823.824 541.293 823.42 540.822 823.131 540.213C822.846 539.6 822.699 538.891 822.691 538.086V537.471C822.691 536.65 822.834 535.926 823.119 535.297C823.404 534.668 823.807 534.188 824.326 533.855C824.85 533.52 825.447 533.352 826.119 533.352C826.803 533.352 827.404 533.518 827.924 533.85C828.447 534.178 828.85 534.656 829.131 535.285C829.412 535.91 829.553 536.639 829.553 537.471V538.01ZM828.434 537.459C828.434 536.447 828.23 535.672 827.824 535.133C827.418 534.59 826.85 534.318 826.119 534.318C825.408 534.318 824.848 534.59 824.438 535.133C824.031 535.672 823.822 536.422 823.811 537.383V538.01C823.811 538.99 824.016 539.762 824.426 540.324C824.84 540.883 825.408 541.162 826.131 541.162C826.857 541.162 827.42 540.898 827.818 540.371C828.217 539.84 828.422 539.08 828.434 538.092V537.459ZM833.045 539.299H832.254V542H831.164V535.66H832.254V538.344H832.963L835.096 535.66H836.408L833.9 538.707L836.619 542H835.242L833.045 539.299ZM842.262 536.539H840.135V542H839.051V536.539H836.965V535.66H842.262V536.539ZM848.162 535.66V542H847.072V539.533H845.438L843.943 542H842.771L844.365 539.369C843.959 539.221 843.646 538.992 843.428 538.684C843.213 538.371 843.105 538.008 843.105 537.594C843.105 537.016 843.322 536.551 843.756 536.199C844.189 535.844 844.77 535.664 845.496 535.66H848.162ZM844.195 537.605C844.195 537.914 844.301 538.164 844.512 538.355C844.723 538.543 845.002 538.639 845.35 538.643H847.072V536.539H845.514C845.111 536.539 844.791 536.639 844.553 536.838C844.314 537.033 844.195 537.289 844.195 537.605ZM852.686 536.023C853.482 536.023 854.119 536.291 854.596 536.826C855.076 537.357 855.316 538.059 855.316 538.93V539.029C855.316 539.627 855.201 540.162 854.971 540.635C854.74 541.104 854.408 541.469 853.975 541.73C853.545 541.988 853.049 542.117 852.486 542.117C851.635 542.117 850.949 541.834 850.43 541.268C849.91 540.697 849.65 539.934 849.65 538.977V538.449C849.65 537.117 849.896 536.059 850.389 535.273C850.885 534.488 851.615 534.01 852.58 533.838C853.127 533.74 853.496 533.621 853.688 533.48C853.879 533.34 853.975 533.146 853.975 532.9H854.865C854.865 533.389 854.754 533.77 854.531 534.043C854.312 534.316 853.961 534.51 853.477 534.623L852.668 534.805C852.023 534.957 851.539 535.215 851.215 535.578C850.895 535.938 850.686 536.418 850.588 537.02C851.162 536.355 851.861 536.023 852.686 536.023ZM852.475 536.914C851.943 536.914 851.521 537.094 851.209 537.453C850.896 537.809 850.74 538.303 850.74 538.936V539.029C850.74 539.709 850.896 540.248 851.209 540.646C851.525 541.041 851.951 541.238 852.486 541.238C853.025 541.238 853.451 541.039 853.764 540.641C854.076 540.242 854.232 539.66 854.232 538.895C854.232 538.297 854.074 537.818 853.758 537.459C853.445 537.096 853.018 536.914 852.475 536.914ZM861.785 538.9C861.785 539.865 861.564 540.643 861.123 541.232C860.682 541.822 860.084 542.117 859.33 542.117C858.561 542.117 857.955 541.873 857.514 541.385V544.438H856.43V535.66H857.42L857.473 536.363C857.914 535.816 858.527 535.543 859.312 535.543C860.074 535.543 860.676 535.83 861.117 536.404C861.562 536.979 861.785 537.777 861.785 538.801V538.9ZM860.701 538.777C860.701 538.062 860.549 537.498 860.244 537.084C859.939 536.67 859.521 536.463 858.99 536.463C858.334 536.463 857.842 536.754 857.514 537.336V540.365C857.838 540.943 858.334 541.232 859.002 541.232C859.521 541.232 859.934 541.027 860.238 540.617C860.547 540.203 860.701 539.59 860.701 538.777ZM864.352 537.846H865.998C866.717 537.854 867.285 538.041 867.703 538.408C868.121 538.775 868.33 539.273 868.33 539.902C868.33 540.535 868.115 541.043 867.686 541.426C867.256 541.809 866.678 542 865.951 542H863.268V535.66H864.352V537.846ZM864.352 538.73V541.115H865.963C866.369 541.115 866.684 541.012 866.906 540.805C867.129 540.594 867.24 540.307 867.24 539.943C867.24 539.592 867.131 539.305 866.912 539.082C866.697 538.855 866.395 538.738 866.004 538.73H864.352Z" fill="#3C3C3B"/>
<path d="M928.547 542H927.416V538.057H923.115V542H921.99V533.469H923.115V537.137H927.416V533.469H928.547V542ZM930.088 538.771C930.088 538.15 930.209 537.592 930.451 537.096C930.697 536.6 931.037 536.217 931.471 535.947C931.908 535.678 932.406 535.543 932.965 535.543C933.828 535.543 934.525 535.842 935.057 536.439C935.592 537.037 935.859 537.832 935.859 538.824V538.9C935.859 539.518 935.74 540.072 935.502 540.564C935.268 541.053 934.93 541.434 934.488 541.707C934.051 541.98 933.547 542.117 932.977 542.117C932.117 542.117 931.42 541.818 930.885 541.221C930.354 540.623 930.088 539.832 930.088 538.848V538.771ZM931.178 538.9C931.178 539.604 931.34 540.168 931.664 540.594C931.992 541.02 932.43 541.232 932.977 541.232C933.527 541.232 933.965 541.018 934.289 540.588C934.613 540.154 934.775 539.549 934.775 538.771C934.775 538.076 934.609 537.514 934.277 537.084C933.949 536.65 933.512 536.434 932.965 536.434C932.43 536.434 931.998 536.646 931.67 537.072C931.342 537.498 931.178 538.107 931.178 538.9ZM942.064 535.66V542H940.975V539.533H939.34L937.846 542H936.674L938.268 539.369C937.861 539.221 937.549 538.992 937.33 538.684C937.115 538.371 937.008 538.008 937.008 537.594C937.008 537.016 937.225 536.551 937.658 536.199C938.092 535.844 938.672 535.664 939.398 535.66H942.064ZM938.098 537.605C938.098 537.914 938.203 538.164 938.414 538.355C938.625 538.543 938.904 538.639 939.252 538.643H940.975V536.539H939.416C939.014 536.539 938.693 536.639 938.455 536.838C938.217 537.033 938.098 537.289 938.098 537.605ZM946.588 536.023C947.385 536.023 948.021 536.291 948.498 536.826C948.979 537.357 949.219 538.059 949.219 538.93V539.029C949.219 539.627 949.104 540.162 948.873 540.635C948.643 541.104 948.311 541.469 947.877 541.73C947.447 541.988 946.951 542.117 946.389 542.117C945.537 542.117 944.852 541.834 944.332 541.268C943.812 540.697 943.553 539.934 943.553 538.977V538.449C943.553 537.117 943.799 536.059 944.291 535.273C944.787 534.488 945.518 534.01 946.482 533.838C947.029 533.74 947.398 533.621 947.59 533.48C947.781 533.34 947.877 533.146 947.877 532.9H948.768C948.768 533.389 948.656 533.77 948.434 534.043C948.215 534.316 947.863 534.51 947.379 534.623L946.57 534.805C945.926 534.957 945.441 535.215 945.117 535.578C944.797 535.938 944.588 536.418 944.49 537.02C945.064 536.355 945.764 536.023 946.588 536.023ZM946.377 536.914C945.846 536.914 945.424 537.094 945.111 537.453C944.799 537.809 944.643 538.303 944.643 538.936V539.029C944.643 539.709 944.799 540.248 945.111 540.646C945.428 541.041 945.854 541.238 946.389 541.238C946.928 541.238 947.354 541.039 947.666 540.641C947.979 540.242 948.135 539.66 948.135 538.895C948.135 538.297 947.977 537.818 947.66 537.459C947.348 537.096 946.92 536.914 946.377 536.914ZM955.688 538.9C955.688 539.865 955.467 540.643 955.025 541.232C954.584 541.822 953.986 542.117 953.232 542.117C952.463 542.117 951.857 541.873 951.416 541.385V544.438H950.332V535.66H951.322L951.375 536.363C951.816 535.816 952.43 535.543 953.215 535.543C953.977 535.543 954.578 535.83 955.02 536.404C955.465 536.979 955.688 537.777 955.688 538.801V538.9ZM954.604 538.777C954.604 538.062 954.451 537.498 954.146 537.084C953.842 536.67 953.424 536.463 952.893 536.463C952.236 536.463 951.744 536.754 951.416 537.336V540.365C951.74 540.943 952.236 541.232 952.904 541.232C953.424 541.232 953.836 541.027 954.141 540.617C954.449 540.203 954.604 539.59 954.604 538.777ZM958.254 537.846H959.9C960.619 537.854 961.188 538.041 961.605 538.408C962.023 538.775 962.232 539.273 962.232 539.902C962.232 540.535 962.018 541.043 961.588 541.426C961.158 541.809 960.58 542 959.854 542H957.17V535.66H958.254V537.846ZM958.254 538.73V541.115H959.865C960.271 541.115 960.586 541.012 960.809 540.805C961.031 540.594 961.143 540.307 961.143 539.943C961.143 539.592 961.033 539.305 960.814 539.082C960.6 538.855 960.297 538.738 959.906 538.73H958.254Z" fill="#3C3C3B"/>
<path d="M1023.67 544.092H1022.55V542H1016.42V544.098H1015.3L1015.29 541.08H1015.99C1016.36 540.666 1016.65 540.111 1016.86 539.416C1017.08 538.717 1017.22 537.951 1017.27 537.119L1017.46 533.469H1022.56V541.08H1023.68L1023.67 544.092ZM1017.27 541.08H1021.43V534.395H1018.54L1018.42 536.902C1018.37 537.883 1018.24 538.719 1018.03 539.41C1017.82 540.102 1017.57 540.658 1017.27 541.08ZM1027.47 542.117C1026.62 542.117 1025.92 541.836 1025.38 541.273C1024.84 540.707 1024.57 539.951 1024.57 539.006V538.807C1024.57 538.178 1024.69 537.617 1024.93 537.125C1025.17 536.629 1025.5 536.242 1025.93 535.965C1026.37 535.684 1026.84 535.543 1027.34 535.543C1028.16 535.543 1028.8 535.814 1029.26 536.357C1029.72 536.9 1029.95 537.678 1029.95 538.689V539.141H1025.65C1025.67 539.766 1025.85 540.271 1026.2 540.658C1026.55 541.041 1026.99 541.232 1027.53 541.232C1027.92 541.232 1028.24 541.154 1028.51 540.998C1028.77 540.842 1029 540.635 1029.2 540.377L1029.87 540.893C1029.33 541.709 1028.54 542.117 1027.47 542.117ZM1027.34 536.434C1026.9 536.434 1026.54 536.594 1026.24 536.914C1025.94 537.23 1025.76 537.676 1025.69 538.25H1028.86V538.168C1028.83 537.617 1028.68 537.191 1028.42 536.891C1028.15 536.586 1027.79 536.434 1027.34 536.434ZM1033.18 539.299H1032.39V542H1031.3V535.66H1032.39V538.344H1033.1L1035.23 535.66H1036.54L1034.04 538.707L1036.76 542H1035.38L1033.18 539.299ZM1041.6 542C1041.54 541.875 1041.49 541.652 1041.45 541.332C1040.95 541.855 1040.34 542.117 1039.64 542.117C1039.02 542.117 1038.51 541.941 1038.1 541.59C1037.71 541.234 1037.51 540.785 1037.51 540.242C1037.51 539.582 1037.76 539.07 1038.26 538.707C1038.76 538.34 1039.47 538.156 1040.38 538.156H1041.43V537.658C1041.43 537.279 1041.32 536.979 1041.09 536.756C1040.87 536.529 1040.53 536.416 1040.09 536.416C1039.7 536.416 1039.38 536.514 1039.12 536.709C1038.86 536.904 1038.72 537.141 1038.72 537.418H1037.63C1037.63 537.102 1037.75 536.797 1037.97 536.504C1038.2 536.207 1038.5 535.973 1038.88 535.801C1039.27 535.629 1039.69 535.543 1040.15 535.543C1040.88 535.543 1041.46 535.727 1041.87 536.094C1042.29 536.457 1042.5 536.959 1042.52 537.6V540.518C1042.52 541.1 1042.59 541.562 1042.74 541.906V542H1041.6ZM1039.8 541.174C1040.14 541.174 1040.46 541.086 1040.77 540.91C1041.07 540.734 1041.29 540.506 1041.43 540.225V538.924H1040.58C1039.25 538.924 1038.59 539.312 1038.59 540.09C1038.59 540.43 1038.7 540.695 1038.93 540.887C1039.16 541.078 1039.45 541.174 1039.8 541.174ZM1047 536.023C1047.79 536.023 1048.43 536.291 1048.91 536.826C1049.39 537.357 1049.63 538.059 1049.63 538.93V539.029C1049.63 539.627 1049.51 540.162 1049.28 540.635C1049.05 541.104 1048.72 541.469 1048.29 541.73C1047.86 541.988 1047.36 542.117 1046.8 542.117C1045.95 542.117 1045.26 541.834 1044.74 541.268C1044.22 540.697 1043.96 539.934 1043.96 538.977V538.449C1043.96 537.117 1044.21 536.059 1044.7 535.273C1045.2 534.488 1045.93 534.01 1046.89 533.838C1047.44 533.74 1047.81 533.621 1048 533.48C1048.19 533.34 1048.29 533.146 1048.29 532.9H1049.18C1049.18 533.389 1049.07 533.77 1048.84 534.043C1048.62 534.316 1048.27 534.51 1047.79 534.623L1046.98 534.805C1046.34 534.957 1045.85 535.215 1045.53 535.578C1045.21 535.938 1045 536.418 1044.9 537.02C1045.47 536.355 1046.17 536.023 1047 536.023ZM1046.79 536.914C1046.26 536.914 1045.83 537.094 1045.52 537.453C1045.21 537.809 1045.05 538.303 1045.05 538.936V539.029C1045.05 539.709 1045.21 540.248 1045.52 540.646C1045.84 541.041 1046.26 541.238 1046.8 541.238C1047.34 541.238 1047.76 541.039 1048.08 540.641C1048.39 540.242 1048.54 539.66 1048.54 538.895C1048.54 538.297 1048.39 537.818 1048.07 537.459C1047.76 537.096 1047.33 536.914 1046.79 536.914ZM1056.1 538.9C1056.1 539.865 1055.88 540.643 1055.44 541.232C1054.99 541.822 1054.4 542.117 1053.64 542.117C1052.87 542.117 1052.27 541.873 1051.83 541.385V544.438H1050.74V535.66H1051.73L1051.79 536.363C1052.23 535.816 1052.84 535.543 1053.62 535.543C1054.39 535.543 1054.99 535.83 1055.43 536.404C1055.88 536.979 1056.1 537.777 1056.1 538.801V538.9ZM1055.01 538.777C1055.01 538.062 1054.86 537.498 1054.56 537.084C1054.25 536.67 1053.83 536.463 1053.3 536.463C1052.65 536.463 1052.15 536.754 1051.83 537.336V540.365C1052.15 540.943 1052.65 541.232 1053.31 541.232C1053.83 541.232 1054.25 541.027 1054.55 540.617C1054.86 540.203 1055.01 539.59 1055.01 538.777Z" fill="#3C3C3B"/>
<rect x="9" y="344" width="17" height="160" fill="#FECF9B"/>
<rect x="111" y="283" width="17" height="221" fill="#FECF9B"/>
<rect x="204" y="216" width="17" height="288" fill="#FECF9B"/>
<rect x="291" y="235" width="17" height="269" fill="#FECF9B"/>
<rect x="376" y="247" width="17" height="257" fill="#FECF9B"/>
<rect x="456" y="391" width="17" height="113" fill="#FECF9B"/>
<rect x="542" y="229" width="17" height="275" fill="#FECF9B"/>
<rect x="628" y="240" width="17" height="264" fill="#FECF9B"/>
<rect x="723" y="227" width="17" height="277" fill="#FECF9B"/>
<rect x="828" y="247" width="17" height="257" fill="#FECF9B"/>
<rect x="925" y="227" width="17" height="277" fill="#FECF9B"/>
<rect x="1018" y="247" width="17" height="257" fill="#FECF9B"/>
<rect x="28" y="236" width="17" height="268" fill="#37FF9F"/>
<rect x="130" y="272" width="17" height="232" fill="#37FF9F"/>
<rect x="223" y="103" width="17" height="401" fill="#37FF9F"/>
<rect x="311" y="135" width="17" height="369" fill="#37FF9F"/>
<rect x="395" y="95" width="17" height="409" fill="#37FF9F"/>
<rect x="475" y="254" width="17" height="250" fill="#37FF9F"/>
<rect x="561" y="107" width="17" height="397" fill="#37FF9F"/>
<rect x="647" y="226" width="17" height="278" fill="#37FF9F"/>
<rect x="742" y="55" width="17" height="449" fill="#37FF9F"/>
<rect x="847" y="105" width="17" height="399" fill="#37FF9F"/>
<rect x="944" y="74" width="17" height="430" fill="#37FF9F"/>
<rect x="1037" y="110" width="17" height="394" fill="#37FF9F"/>
<line x1="36.25" y1="225" x2="36.25" y2="235" stroke="#3C3C3B" stroke-width="0.5"/>
<line x1="139.25" y1="261" x2="139.25" y2="271" stroke="#3C3C3B" stroke-width="0.5"/>
<line x1="17.25" y1="331" x2="17.25" y2="341" stroke="#3C3C3B" stroke-width="0.5"/>
<line x1="119.25" y1="272" x2="119.25" y2="282" stroke="#3C3C3B" stroke-width="0.5"/>
<line x1="212.25" y1="203" x2="212.25" y2="213" stroke="#3C3C3B" stroke-width="0.5"/>
<line x1="300.25" y1="224" x2="300.25" y2="234" stroke="#3C3C3B" stroke-width="0.5"/>
<line x1="384.25" y1="235" x2="384.25" y2="245" stroke="#3C3C3B" stroke-width="0.5"/>
<line x1="483.25" y1="241" x2="483.25" y2="251" stroke="#3C3C3B" stroke-width="0.5"/>
<line x1="569.25" y1="95" x2="569.25" y2="105" stroke="#3C3C3B" stroke-width="0.5"/>
<line x1="750.25" y1="43" x2="750.25" y2="53" stroke="#3C3C3B" stroke-width="0.5"/>
<line x1="855.25" y1="94" x2="855.25" y2="104" stroke="#3C3C3B" stroke-width="0.5"/>
<line x1="951.25" y1="60" x2="951.25" y2="70" stroke="#3C3C3B" stroke-width="0.5"/>
<line x1="1044.25" y1="99" x2="1044.25" y2="109" stroke="#3C3C3B" stroke-width="0.5"/>
<line x1="550.25" y1="218" x2="550.25" y2="228" stroke="#3C3C3B" stroke-width="0.5"/>
<line x1="637.25" y1="229" x2="637.25" y2="239" stroke="#3C3C3B" stroke-width="0.5"/>
<line x1="730.25" y1="216" x2="730.25" y2="226" stroke="#3C3C3B" stroke-width="0.5"/>
<line x1="836.25" y1="235" x2="836.25" y2="245" stroke="#3C3C3B" stroke-width="0.5"/>
<line x1="932.25" y1="216" x2="932.25" y2="226" stroke="#3C3C3B" stroke-width="0.5"/>
<line x1="1025.25" y1="235" x2="1025.25" y2="245" stroke="#3C3C3B" stroke-width="0.5"/>
<line x1="656.25" y1="215" x2="656.25" y2="225" stroke="#3C3C3B" stroke-width="0.5"/>
<line x1="464.25" y1="379" x2="464.25" y2="389" stroke="#3C3C3B" stroke-width="0.5"/>
<line x1="403.25" y1="82" x2="403.25" y2="92" stroke="#3C3C3B" stroke-width="0.5"/>
<line x1="231.25" y1="90" x2="231.25" y2="100" stroke="#3C3C3B" stroke-width="0.5"/>
<line x1="319.25" y1="125" x2="319.25" y2="135" stroke="#3C3C3B" stroke-width="0.5"/>
<path d="M32.1465 222H26.8027V221.461L29.7266 218.145C30.2109 217.586 30.5469 217.125 30.7344 216.762C30.9219 216.398 31.0156 216.045 31.0156 215.701C31.0156 215.162 30.8574 214.736 30.541 214.424C30.2246 214.107 29.7891 213.949 29.2344 213.949C28.6602 213.949 28.1953 214.133 27.8398 214.5C27.4883 214.867 27.3125 215.344 27.3125 215.93H26.6152C26.6152 215.449 26.7227 215.012 26.9375 214.617C27.1562 214.223 27.4648 213.914 27.8633 213.691C28.2656 213.465 28.7227 213.352 29.2344 213.352C30.0156 213.352 30.625 213.557 31.0625 213.967C31.5039 214.377 31.7246 214.936 31.7246 215.643C31.7246 216.041 31.5996 216.477 31.3496 216.949C31.1035 217.422 30.668 218.012 30.043 218.719L27.6641 221.408H32.1465V222ZM36.7227 222H36.0195V214.312L33.6992 215.174V214.518L36.6055 213.439H36.7227V222ZM45.459 222H40.1152V221.461L43.0391 218.145C43.5234 217.586 43.8594 217.125 44.0469 216.762C44.2344 216.398 44.3281 216.045 44.3281 215.701C44.3281 215.162 44.1699 214.736 43.8535 214.424C43.5371 214.107 43.1016 213.949 42.5469 213.949C41.9727 213.949 41.5078 214.133 41.1523 214.5C40.8008 214.867 40.625 215.344 40.625 215.93H39.9277C39.9277 215.449 40.0352 215.012 40.25 214.617C40.4688 214.223 40.7773 213.914 41.1758 213.691C41.5781 213.465 42.0352 213.352 42.5469 213.352C43.3281 213.352 43.9375 213.557 44.375 213.967C44.8164 214.377 45.0371 214.936 45.0371 215.643C45.0371 216.041 44.9121 216.477 44.6621 216.949C44.416 217.422 43.9805 218.012 43.3555 218.719L40.9766 221.408H45.459V222Z" fill="#3C3C3B"/>
<path d="M135.146 258H129.803V257.461L132.727 254.145C133.211 253.586 133.547 253.125 133.734 252.762C133.922 252.398 134.016 252.045 134.016 251.701C134.016 251.162 133.857 250.736 133.541 250.424C133.225 250.107 132.789 249.949 132.234 249.949C131.66 249.949 131.195 250.133 130.84 250.5C130.488 250.867 130.312 251.344 130.312 251.93H129.615C129.615 251.449 129.723 251.012 129.938 250.617C130.156 250.223 130.465 249.914 130.863 249.691C131.266 249.465 131.723 249.352 132.234 249.352C133.016 249.352 133.625 249.557 134.062 249.967C134.504 250.377 134.725 250.936 134.725 251.643C134.725 252.041 134.6 252.477 134.35 252.949C134.104 253.422 133.668 254.012 133.043 254.719L130.664 257.408H135.146V258ZM141.604 254.443C141.604 255.646 141.383 256.561 140.941 257.186C140.5 257.807 139.85 258.117 138.99 258.117C138.146 258.117 137.5 257.812 137.051 257.203C136.602 256.59 136.371 255.699 136.359 254.531V253.002C136.359 251.803 136.582 250.895 137.027 250.277C137.473 249.66 138.123 249.352 138.979 249.352C139.822 249.352 140.467 249.65 140.912 250.248C141.357 250.842 141.588 251.719 141.604 252.879V254.443ZM140.9 252.914C140.9 251.938 140.74 251.199 140.42 250.699C140.104 250.199 139.623 249.949 138.979 249.949C138.346 249.949 137.869 250.193 137.549 250.682C137.229 251.17 137.064 251.891 137.057 252.844V254.52C137.057 255.492 137.221 256.236 137.549 256.752C137.881 257.268 138.361 257.525 138.99 257.525C139.615 257.525 140.088 257.273 140.408 256.77C140.732 256.266 140.896 255.527 140.9 254.555V252.914ZM143.59 253.629L144.006 249.469H148.271V250.119H144.609L144.311 253.002C144.768 252.689 145.303 252.533 145.916 252.533C146.686 252.533 147.299 252.783 147.756 253.283C148.213 253.783 148.441 254.449 148.441 255.281C148.441 256.18 148.219 256.877 147.773 257.373C147.328 257.869 146.701 258.117 145.893 258.117C145.15 258.117 144.549 257.91 144.088 257.496C143.627 257.082 143.363 256.502 143.297 255.756H143.971C144.037 256.338 144.234 256.779 144.562 257.08C144.891 257.377 145.334 257.525 145.893 257.525C146.502 257.525 146.961 257.332 147.27 256.945C147.582 256.559 147.738 256.008 147.738 255.293C147.738 254.668 147.564 254.158 147.217 253.764C146.869 253.369 146.395 253.172 145.793 253.172C145.461 253.172 145.172 253.215 144.926 253.301C144.68 253.383 144.42 253.545 144.146 253.787L143.59 253.629Z" fill="#3C3C3B"/>
<path d="M11.0664 328H10.3633V320.312L8.04297 321.174V320.518L10.9492 319.439H11.0664V328ZM16.0176 323.354H16.7441C17.1465 323.354 17.498 323.283 17.7988 323.143C18.0996 322.998 18.3281 322.803 18.4844 322.557C18.6445 322.307 18.7246 322.02 18.7246 321.695C18.7246 321.148 18.5703 320.721 18.2617 320.412C17.9531 320.104 17.5098 319.949 16.9316 319.949C16.3848 319.949 15.9355 320.111 15.584 320.436C15.2363 320.756 15.0625 321.18 15.0625 321.707H14.3594C14.3594 321.266 14.4707 320.863 14.6934 320.5C14.916 320.133 15.2246 319.85 15.6191 319.65C16.0137 319.451 16.4512 319.352 16.9316 319.352C17.7051 319.352 18.3145 319.562 18.7598 319.984C19.2051 320.406 19.4277 320.984 19.4277 321.719C19.4277 322.129 19.2969 322.508 19.0352 322.855C18.7773 323.199 18.4219 323.457 17.9688 323.629C18.5 323.777 18.9023 324.033 19.1758 324.396C19.4492 324.756 19.5859 325.186 19.5859 325.686C19.5859 326.416 19.3477 327.004 18.8711 327.449C18.3945 327.895 17.7578 328.117 16.9609 328.117C16.4531 328.117 15.9863 328.016 15.5605 327.812C15.1387 327.609 14.8105 327.326 14.5762 326.963C14.3457 326.596 14.2305 326.17 14.2305 325.686H14.9336C14.9336 326.229 15.123 326.672 15.502 327.016C15.8809 327.355 16.3672 327.525 16.9609 327.525C17.5664 327.525 18.0371 327.371 18.373 327.062C18.7129 326.75 18.8828 326.299 18.8828 325.709C18.8828 325.139 18.6992 324.703 18.332 324.402C17.9688 324.102 17.4316 323.951 16.7207 323.951H16.0176V323.354ZM22.6738 323.354H23.4004C23.8027 323.354 24.1543 323.283 24.4551 323.143C24.7559 322.998 24.9844 322.803 25.1406 322.557C25.3008 322.307 25.3809 322.02 25.3809 321.695C25.3809 321.148 25.2266 320.721 24.918 320.412C24.6094 320.104 24.166 319.949 23.5879 319.949C23.041 319.949 22.5918 320.111 22.2402 320.436C21.8926 320.756 21.7188 321.18 21.7188 321.707H21.0156C21.0156 321.266 21.127 320.863 21.3496 320.5C21.5723 320.133 21.8809 319.85 22.2754 319.65C22.6699 319.451 23.1074 319.352 23.5879 319.352C24.3613 319.352 24.9707 319.562 25.416 319.984C25.8613 320.406 26.084 320.984 26.084 321.719C26.084 322.129 25.9531 322.508 25.6914 322.855C25.4336 323.199 25.0781 323.457 24.625 323.629C25.1562 323.777 25.5586 324.033 25.832 324.396C26.1055 324.756 26.2422 325.186 26.2422 325.686C26.2422 326.416 26.0039 327.004 25.5273 327.449C25.0508 327.895 24.4141 328.117 23.6172 328.117C23.1094 328.117 22.6426 328.016 22.2168 327.812C21.7949 327.609 21.4668 327.326 21.2324 326.963C21.002 326.596 20.8867 326.17 20.8867 325.686H21.5898C21.5898 326.229 21.7793 326.672 22.1582 327.016C22.5371 327.355 23.0234 327.525 23.6172 327.525C24.2227 327.525 24.6934 327.371 25.0293 327.062C25.3691 326.75 25.5391 326.299 25.5391 325.709C25.5391 325.139 25.3555 324.703 24.9883 324.402C24.625 324.102 24.0879 323.951 23.377 323.951H22.6738V323.354Z" fill="#3C3C3B"/>
<path d="M115.146 269H109.803V268.461L112.727 265.145C113.211 264.586 113.547 264.125 113.734 263.762C113.922 263.398 114.016 263.045 114.016 262.701C114.016 262.162 113.857 261.736 113.541 261.424C113.225 261.107 112.789 260.949 112.234 260.949C111.66 260.949 111.195 261.133 110.84 261.5C110.488 261.867 110.312 262.344 110.312 262.93H109.615C109.615 262.449 109.723 262.012 109.938 261.617C110.156 261.223 110.465 260.914 110.863 260.691C111.266 260.465 111.723 260.352 112.234 260.352C113.016 260.352 113.625 260.557 114.062 260.967C114.504 261.377 114.725 261.936 114.725 262.643C114.725 263.041 114.6 263.477 114.35 263.949C114.104 264.422 113.668 265.012 113.043 265.719L110.664 268.408H115.146V269ZM121.604 265.443C121.604 266.646 121.383 267.561 120.941 268.186C120.5 268.807 119.85 269.117 118.99 269.117C118.146 269.117 117.5 268.812 117.051 268.203C116.602 267.59 116.371 266.699 116.359 265.531V264.002C116.359 262.803 116.582 261.895 117.027 261.277C117.473 260.66 118.123 260.352 118.979 260.352C119.822 260.352 120.467 260.65 120.912 261.248C121.357 261.842 121.588 262.719 121.604 263.879V265.443ZM120.9 263.914C120.9 262.938 120.74 262.199 120.42 261.699C120.104 261.199 119.623 260.949 118.979 260.949C118.346 260.949 117.869 261.193 117.549 261.682C117.229 262.17 117.064 262.891 117.057 263.844V265.52C117.057 266.492 117.221 267.236 117.549 267.752C117.881 268.268 118.361 268.525 118.99 268.525C119.615 268.525 120.088 268.273 120.408 267.77C120.732 267.266 120.896 266.527 120.9 265.555V263.914ZM127.422 266.252H128.752V266.844H127.422V269H126.719V266.844H122.705V266.445L126.654 260.469H127.422V266.252ZM123.566 266.252H126.719V261.377L126.408 261.916L123.566 266.252Z" fill="#3C3C3B"/>
<path d="M208.146 200H202.803V199.461L205.727 196.145C206.211 195.586 206.547 195.125 206.734 194.762C206.922 194.398 207.016 194.045 207.016 193.701C207.016 193.162 206.857 192.736 206.541 192.424C206.225 192.107 205.789 191.949 205.234 191.949C204.66 191.949 204.195 192.133 203.84 192.5C203.488 192.867 203.312 193.344 203.312 193.93H202.615C202.615 193.449 202.723 193.012 202.938 192.617C203.156 192.223 203.465 191.914 203.863 191.691C204.266 191.465 204.723 191.352 205.234 191.352C206.016 191.352 206.625 191.557 207.062 191.967C207.504 192.377 207.725 192.936 207.725 193.643C207.725 194.041 207.6 194.477 207.35 194.949C207.104 195.422 206.668 196.012 206.043 196.719L203.664 199.408H208.146V200ZM211.018 195.354H211.744C212.146 195.354 212.498 195.283 212.799 195.143C213.1 194.998 213.328 194.803 213.484 194.557C213.645 194.307 213.725 194.02 213.725 193.695C213.725 193.148 213.57 192.721 213.262 192.412C212.953 192.104 212.51 191.949 211.932 191.949C211.385 191.949 210.936 192.111 210.584 192.436C210.236 192.756 210.062 193.18 210.062 193.707H209.359C209.359 193.266 209.471 192.863 209.693 192.5C209.916 192.133 210.225 191.85 210.619 191.65C211.014 191.451 211.451 191.352 211.932 191.352C212.705 191.352 213.314 191.562 213.76 191.984C214.205 192.406 214.428 192.984 214.428 193.719C214.428 194.129 214.297 194.508 214.035 194.855C213.777 195.199 213.422 195.457 212.969 195.629C213.5 195.777 213.902 196.033 214.176 196.396C214.449 196.756 214.586 197.186 214.586 197.686C214.586 198.416 214.348 199.004 213.871 199.449C213.395 199.895 212.758 200.117 211.961 200.117C211.453 200.117 210.986 200.016 210.561 199.812C210.139 199.609 209.811 199.326 209.576 198.963C209.346 198.596 209.23 198.17 209.23 197.686H209.934C209.934 198.229 210.123 198.672 210.502 199.016C210.881 199.355 211.367 199.525 211.961 199.525C212.566 199.525 213.037 199.371 213.373 199.062C213.713 198.75 213.883 198.299 213.883 197.709C213.883 197.139 213.699 196.703 213.332 196.402C212.969 196.102 212.432 195.951 211.721 195.951H211.018V195.354ZM216.59 195.629L217.006 191.469H221.271V192.119H217.609L217.311 195.002C217.768 194.689 218.303 194.533 218.916 194.533C219.686 194.533 220.299 194.783 220.756 195.283C221.213 195.783 221.441 196.449 221.441 197.281C221.441 198.18 221.219 198.877 220.773 199.373C220.328 199.869 219.701 200.117 218.893 200.117C218.15 200.117 217.549 199.91 217.088 199.496C216.627 199.082 216.363 198.502 216.297 197.756H216.971C217.037 198.338 217.234 198.779 217.562 199.08C217.891 199.377 218.334 199.525 218.893 199.525C219.502 199.525 219.961 199.332 220.27 198.945C220.582 198.559 220.738 198.008 220.738 197.293C220.738 196.668 220.564 196.158 220.217 195.764C219.869 195.369 219.395 195.172 218.793 195.172C218.461 195.172 218.172 195.215 217.926 195.301C217.68 195.383 217.42 195.545 217.146 195.787L216.59 195.629Z" fill="#3C3C3B"/>
<path d="M296.146 221H290.803V220.461L293.727 217.145C294.211 216.586 294.547 216.125 294.734 215.762C294.922 215.398 295.016 215.045 295.016 214.701C295.016 214.162 294.857 213.736 294.541 213.424C294.225 213.107 293.789 212.949 293.234 212.949C292.66 212.949 292.195 213.133 291.84 213.5C291.488 213.867 291.312 214.344 291.312 214.93H290.615C290.615 214.449 290.723 214.012 290.938 213.617C291.156 213.223 291.465 212.914 291.863 212.691C292.266 212.465 292.723 212.352 293.234 212.352C294.016 212.352 294.625 212.557 295.062 212.967C295.504 213.377 295.725 213.936 295.725 214.643C295.725 215.041 295.6 215.477 295.35 215.949C295.104 216.422 294.668 217.012 294.043 217.719L291.664 220.408H296.146V221ZM300.723 221H300.02V213.312L297.699 214.174V213.518L300.605 212.439H300.723V221ZM309.371 212.873L305.727 221H304.994L308.615 213.066H303.764V212.469H309.371V212.873Z" fill="#3C3C3B"/>
<path d="M380.146 232H374.803V231.461L377.727 228.145C378.211 227.586 378.547 227.125 378.734 226.762C378.922 226.398 379.016 226.045 379.016 225.701C379.016 225.162 378.857 224.736 378.541 224.424C378.225 224.107 377.789 223.949 377.234 223.949C376.66 223.949 376.195 224.133 375.84 224.5C375.488 224.867 375.312 225.344 375.312 225.93H374.615C374.615 225.449 374.723 225.012 374.938 224.617C375.156 224.223 375.465 223.914 375.863 223.691C376.266 223.465 376.723 223.352 377.234 223.352C378.016 223.352 378.625 223.557 379.062 223.967C379.504 224.377 379.725 224.936 379.725 225.643C379.725 226.041 379.6 226.477 379.35 226.949C379.104 227.422 378.668 228.012 378.043 228.719L375.664 231.408H380.146V232ZM386.604 228.443C386.604 229.646 386.383 230.561 385.941 231.186C385.5 231.807 384.85 232.117 383.99 232.117C383.146 232.117 382.5 231.812 382.051 231.203C381.602 230.59 381.371 229.699 381.359 228.531V227.002C381.359 225.803 381.582 224.895 382.027 224.277C382.473 223.66 383.123 223.352 383.979 223.352C384.822 223.352 385.467 223.65 385.912 224.248C386.357 224.842 386.588 225.719 386.604 226.879V228.443ZM385.9 226.914C385.9 225.938 385.74 225.199 385.42 224.699C385.104 224.199 384.623 223.949 383.979 223.949C383.346 223.949 382.869 224.193 382.549 224.682C382.229 225.17 382.064 225.891 382.057 226.844V228.52C382.057 229.492 382.221 230.236 382.549 230.752C382.881 231.268 383.361 231.525 383.99 231.525C384.615 231.525 385.088 231.273 385.408 230.77C385.732 230.266 385.896 229.527 385.9 228.555V226.914ZM393.459 232H388.115V231.461L391.039 228.145C391.523 227.586 391.859 227.125 392.047 226.762C392.234 226.398 392.328 226.045 392.328 225.701C392.328 225.162 392.17 224.736 391.854 224.424C391.537 224.107 391.102 223.949 390.547 223.949C389.973 223.949 389.508 224.133 389.152 224.5C388.801 224.867 388.625 225.344 388.625 225.93H387.928C387.928 225.449 388.035 225.012 388.25 224.617C388.469 224.223 388.777 223.914 389.176 223.691C389.578 223.465 390.035 223.352 390.547 223.352C391.328 223.352 391.938 223.557 392.375 223.967C392.816 224.377 393.037 224.936 393.037 225.643C393.037 226.041 392.912 226.477 392.662 226.949C392.416 227.422 391.98 228.012 391.355 228.719L388.977 231.408H393.459V232Z" fill="#3C3C3B"/>
<path d="M479.146 238H473.803V237.461L476.727 234.145C477.211 233.586 477.547 233.125 477.734 232.762C477.922 232.398 478.016 232.045 478.016 231.701C478.016 231.162 477.857 230.736 477.541 230.424C477.225 230.107 476.789 229.949 476.234 229.949C475.66 229.949 475.195 230.133 474.84 230.5C474.488 230.867 474.312 231.344 474.312 231.93H473.615C473.615 231.449 473.723 231.012 473.938 230.617C474.156 230.223 474.465 229.914 474.863 229.691C475.266 229.465 475.723 229.352 476.234 229.352C477.016 229.352 477.625 229.557 478.062 229.967C478.504 230.377 478.725 230.936 478.725 231.643C478.725 232.041 478.6 232.477 478.35 232.949C478.104 233.422 477.668 234.012 477.043 234.719L474.664 237.408H479.146V238ZM485.604 234.443C485.604 235.646 485.383 236.561 484.941 237.186C484.5 237.807 483.85 238.117 482.99 238.117C482.146 238.117 481.5 237.812 481.051 237.203C480.602 236.59 480.371 235.699 480.359 234.531V233.002C480.359 231.803 480.582 230.895 481.027 230.277C481.473 229.66 482.123 229.352 482.979 229.352C483.822 229.352 484.467 229.65 484.912 230.248C485.357 230.842 485.588 231.719 485.604 232.879V234.443ZM484.9 232.914C484.9 231.938 484.74 231.199 484.42 230.699C484.104 230.199 483.623 229.949 482.979 229.949C482.346 229.949 481.869 230.193 481.549 230.682C481.229 231.17 481.064 231.891 481.057 232.844V234.52C481.057 235.492 481.221 236.236 481.549 236.752C481.881 237.268 482.361 237.525 482.99 237.525C483.615 237.525 484.088 237.273 484.408 236.77C484.732 236.266 484.896 235.527 484.9 234.555V232.914ZM492.26 234.443C492.26 235.646 492.039 236.561 491.598 237.186C491.156 237.807 490.506 238.117 489.646 238.117C488.803 238.117 488.156 237.812 487.707 237.203C487.258 236.59 487.027 235.699 487.016 234.531V233.002C487.016 231.803 487.238 230.895 487.684 230.277C488.129 229.66 488.779 229.352 489.635 229.352C490.479 229.352 491.123 229.65 491.568 230.248C492.014 230.842 492.244 231.719 492.26 232.879V234.443ZM491.557 232.914C491.557 231.938 491.396 231.199 491.076 230.699C490.76 230.199 490.279 229.949 489.635 229.949C489.002 229.949 488.525 230.193 488.205 230.682C487.885 231.17 487.721 231.891 487.713 232.844V234.52C487.713 235.492 487.877 236.236 488.205 236.752C488.537 237.268 489.018 237.525 489.646 237.525C490.271 237.525 490.744 237.273 491.064 236.77C491.389 236.266 491.553 235.527 491.557 234.555V232.914Z" fill="#3C3C3B"/>
<path d="M561.361 87.3535H562.088C562.49 87.3535 562.842 87.2832 563.143 87.1426C563.443 86.998 563.672 86.8027 563.828 86.5566C563.988 86.3066 564.068 86.0195 564.068 85.6953C564.068 85.1484 563.914 84.7207 563.605 84.4121C563.297 84.1035 562.854 83.9492 562.275 83.9492C561.729 83.9492 561.279 84.1113 560.928 84.4355C560.58 84.7559 560.406 85.1797 560.406 85.707H559.703C559.703 85.2656 559.814 84.8633 560.037 84.5C560.26 84.1328 560.568 83.8496 560.963 83.6504C561.357 83.4512 561.795 83.3516 562.275 83.3516C563.049 83.3516 563.658 83.5625 564.104 83.9844C564.549 84.4062 564.771 84.9844 564.771 85.7188C564.771 86.1289 564.641 86.5078 564.379 86.8555C564.121 87.1992 563.766 87.457 563.312 87.6289C563.844 87.7773 564.246 88.0332 564.52 88.3965C564.793 88.7559 564.93 89.1855 564.93 89.6855C564.93 90.416 564.691 91.0039 564.215 91.4492C563.738 91.8945 563.102 92.1172 562.305 92.1172C561.797 92.1172 561.33 92.0156 560.904 91.8125C560.482 91.6094 560.154 91.3262 559.92 90.9629C559.689 90.5957 559.574 90.1699 559.574 89.6855H560.277C560.277 90.2285 560.467 90.6719 560.846 91.0156C561.225 91.3555 561.711 91.5254 562.305 91.5254C562.91 91.5254 563.381 91.3711 563.717 91.0625C564.057 90.75 564.227 90.2988 564.227 89.709C564.227 89.1387 564.043 88.7031 563.676 88.4023C563.312 88.1016 562.775 87.9512 562.064 87.9512H561.361V87.3535ZM571.604 88.4434C571.604 89.6465 571.383 90.5605 570.941 91.1855C570.5 91.8066 569.85 92.1172 568.99 92.1172C568.146 92.1172 567.5 91.8125 567.051 91.2031C566.602 90.5898 566.371 89.6992 566.359 88.5312V87.002C566.359 85.8027 566.582 84.8945 567.027 84.2773C567.473 83.6602 568.123 83.3516 568.979 83.3516C569.822 83.3516 570.467 83.6504 570.912 84.248C571.357 84.8418 571.588 85.7188 571.604 86.8789V88.4434ZM570.9 86.9141C570.9 85.9375 570.74 85.1992 570.42 84.6992C570.104 84.1992 569.623 83.9492 568.979 83.9492C568.346 83.9492 567.869 84.1934 567.549 84.6816C567.229 85.1699 567.064 85.8906 567.057 86.8438V88.5195C567.057 89.4922 567.221 90.2363 567.549 90.752C567.881 91.2676 568.361 91.5254 568.99 91.5254C569.615 91.5254 570.088 91.2734 570.408 90.7695C570.732 90.2656 570.896 89.5273 570.9 88.5547V86.9141ZM578.26 88.4434C578.26 89.6465 578.039 90.5605 577.598 91.1855C577.156 91.8066 576.506 92.1172 575.646 92.1172C574.803 92.1172 574.156 91.8125 573.707 91.2031C573.258 90.5898 573.027 89.6992 573.016 88.5312V87.002C573.016 85.8027 573.238 84.8945 573.684 84.2773C574.129 83.6602 574.779 83.3516 575.635 83.3516C576.479 83.3516 577.123 83.6504 577.568 84.248C578.014 84.8418 578.244 85.7188 578.26 86.8789V88.4434ZM577.557 86.9141C577.557 85.9375 577.396 85.1992 577.076 84.6992C576.76 84.1992 576.279 83.9492 575.635 83.9492C575.002 83.9492 574.525 84.1934 574.205 84.6816C573.885 85.1699 573.721 85.8906 573.713 86.8438V88.5195C573.713 89.4922 573.877 90.2363 574.205 90.752C574.537 91.2676 575.018 91.5254 575.646 91.5254C576.271 91.5254 576.744 91.2734 577.064 90.7695C577.389 90.2656 577.553 89.5273 577.557 88.5547V86.9141Z" fill="#3C3C3B"/>
<path d="M742.361 35.3535H743.088C743.49 35.3535 743.842 35.2832 744.143 35.1426C744.443 34.998 744.672 34.8027 744.828 34.5566C744.988 34.3066 745.068 34.0195 745.068 33.6953C745.068 33.1484 744.914 32.7207 744.605 32.4121C744.297 32.1035 743.854 31.9492 743.275 31.9492C742.729 31.9492 742.279 32.1113 741.928 32.4355C741.58 32.7559 741.406 33.1797 741.406 33.707H740.703C740.703 33.2656 740.814 32.8633 741.037 32.5C741.26 32.1328 741.568 31.8496 741.963 31.6504C742.357 31.4512 742.795 31.3516 743.275 31.3516C744.049 31.3516 744.658 31.5625 745.104 31.9844C745.549 32.4062 745.771 32.9844 745.771 33.7188C745.771 34.1289 745.641 34.5078 745.379 34.8555C745.121 35.1992 744.766 35.457 744.312 35.6289C744.844 35.7773 745.246 36.0332 745.52 36.3965C745.793 36.7559 745.93 37.1855 745.93 37.6855C745.93 38.416 745.691 39.0039 745.215 39.4492C744.738 39.8945 744.102 40.1172 743.305 40.1172C742.797 40.1172 742.33 40.0156 741.904 39.8125C741.482 39.6094 741.154 39.3262 740.92 38.9629C740.689 38.5957 740.574 38.1699 740.574 37.6855H741.277C741.277 38.2285 741.467 38.6719 741.846 39.0156C742.225 39.3555 742.711 39.5254 743.305 39.5254C743.91 39.5254 744.381 39.3711 744.717 39.0625C745.057 38.75 745.227 38.2988 745.227 37.709C745.227 37.1387 745.043 36.7031 744.676 36.4023C744.312 36.1016 743.775 35.9512 743.064 35.9512H742.361V35.3535ZM747.934 35.6289L748.35 31.4688H752.615V32.1191H748.953L748.654 35.002C749.111 34.6895 749.646 34.5332 750.26 34.5332C751.029 34.5332 751.643 34.7832 752.1 35.2832C752.557 35.7832 752.785 36.4492 752.785 37.2812C752.785 38.1797 752.562 38.877 752.117 39.373C751.672 39.8691 751.045 40.1172 750.236 40.1172C749.494 40.1172 748.893 39.9102 748.432 39.4961C747.971 39.082 747.707 38.502 747.641 37.7559H748.314C748.381 38.3379 748.578 38.7793 748.906 39.0801C749.234 39.377 749.678 39.5254 750.236 39.5254C750.846 39.5254 751.305 39.332 751.613 38.9453C751.926 38.5586 752.082 38.0078 752.082 37.293C752.082 36.668 751.908 36.1582 751.561 35.7637C751.213 35.3691 750.738 35.1719 750.137 35.1719C749.805 35.1719 749.516 35.2148 749.27 35.3008C749.023 35.3828 748.764 35.5449 748.49 35.7871L747.934 35.6289ZM759.26 36.4434C759.26 37.6465 759.039 38.5605 758.598 39.1855C758.156 39.8066 757.506 40.1172 756.646 40.1172C755.803 40.1172 755.156 39.8125 754.707 39.2031C754.258 38.5898 754.027 37.6992 754.016 36.5312V35.002C754.016 33.8027 754.238 32.8945 754.684 32.2773C755.129 31.6602 755.779 31.3516 756.635 31.3516C757.479 31.3516 758.123 31.6504 758.568 32.248C759.014 32.8418 759.244 33.7188 759.26 34.8789V36.4434ZM758.557 34.9141C758.557 33.9375 758.396 33.1992 758.076 32.6992C757.76 32.1992 757.279 31.9492 756.635 31.9492C756.002 31.9492 755.525 32.1934 755.205 32.6816C754.885 33.1699 754.721 33.8906 754.713 34.8438V36.5195C754.713 37.4922 754.877 38.2363 755.205 38.752C755.537 39.2676 756.018 39.5254 756.646 39.5254C757.271 39.5254 757.744 39.2734 758.064 38.7695C758.389 38.2656 758.553 37.5273 758.557 36.5547V34.9141Z" fill="#3C3C3B"/>
<path d="M847.361 86.3535H848.088C848.49 86.3535 848.842 86.2832 849.143 86.1426C849.443 85.998 849.672 85.8027 849.828 85.5566C849.988 85.3066 850.068 85.0195 850.068 84.6953C850.068 84.1484 849.914 83.7207 849.605 83.4121C849.297 83.1035 848.854 82.9492 848.275 82.9492C847.729 82.9492 847.279 83.1113 846.928 83.4355C846.58 83.7559 846.406 84.1797 846.406 84.707H845.703C845.703 84.2656 845.814 83.8633 846.037 83.5C846.26 83.1328 846.568 82.8496 846.963 82.6504C847.357 82.4512 847.795 82.3516 848.275 82.3516C849.049 82.3516 849.658 82.5625 850.104 82.9844C850.549 83.4062 850.771 83.9844 850.771 84.7188C850.771 85.1289 850.641 85.5078 850.379 85.8555C850.121 86.1992 849.766 86.457 849.312 86.6289C849.844 86.7773 850.246 87.0332 850.52 87.3965C850.793 87.7559 850.93 88.1855 850.93 88.6855C850.93 89.416 850.691 90.0039 850.215 90.4492C849.738 90.8945 849.102 91.1172 848.305 91.1172C847.797 91.1172 847.33 91.0156 846.904 90.8125C846.482 90.6094 846.154 90.3262 845.92 89.9629C845.689 89.5957 845.574 89.1699 845.574 88.6855H846.277C846.277 89.2285 846.467 89.6719 846.846 90.0156C847.225 90.3555 847.711 90.5254 848.305 90.5254C848.91 90.5254 849.381 90.3711 849.717 90.0625C850.057 89.75 850.227 89.2988 850.227 88.709C850.227 88.1387 850.043 87.7031 849.676 87.4023C849.312 87.1016 848.775 86.9512 848.064 86.9512H847.361V86.3535ZM857.604 87.4434C857.604 88.6465 857.383 89.5605 856.941 90.1855C856.5 90.8066 855.85 91.1172 854.99 91.1172C854.146 91.1172 853.5 90.8125 853.051 90.2031C852.602 89.5898 852.371 88.6992 852.359 87.5312V86.002C852.359 84.8027 852.582 83.8945 853.027 83.2773C853.473 82.6602 854.123 82.3516 854.979 82.3516C855.822 82.3516 856.467 82.6504 856.912 83.248C857.357 83.8418 857.588 84.7188 857.604 85.8789V87.4434ZM856.9 85.9141C856.9 84.9375 856.74 84.1992 856.42 83.6992C856.104 83.1992 855.623 82.9492 854.979 82.9492C854.346 82.9492 853.869 83.1934 853.549 83.6816C853.229 84.1699 853.064 84.8906 853.057 85.8438V87.5195C853.057 88.4922 853.221 89.2363 853.549 89.752C853.881 90.2676 854.361 90.5254 854.99 90.5254C855.615 90.5254 856.088 90.2734 856.408 89.7695C856.732 89.2656 856.896 88.5273 856.9 87.5547V85.9141ZM859.59 86.6289L860.006 82.4688H864.271V83.1191H860.609L860.311 86.002C860.768 85.6895 861.303 85.5332 861.916 85.5332C862.686 85.5332 863.299 85.7832 863.756 86.2832C864.213 86.7832 864.441 87.4492 864.441 88.2812C864.441 89.1797 864.219 89.877 863.773 90.373C863.328 90.8691 862.701 91.1172 861.893 91.1172C861.15 91.1172 860.549 90.9102 860.088 90.4961C859.627 90.082 859.363 89.502 859.297 88.7559H859.971C860.037 89.3379 860.234 89.7793 860.562 90.0801C860.891 90.377 861.334 90.5254 861.893 90.5254C862.502 90.5254 862.961 90.332 863.27 89.9453C863.582 89.5586 863.738 89.0078 863.738 88.293C863.738 87.668 863.564 87.1582 863.217 86.7637C862.869 86.3691 862.395 86.1719 861.793 86.1719C861.461 86.1719 861.172 86.2148 860.926 86.3008C860.68 86.3828 860.42 86.5449 860.146 86.7871L859.59 86.6289Z" fill="#3C3C3B"/>
<path d="M943.361 52.3535H944.088C944.49 52.3535 944.842 52.2832 945.143 52.1426C945.443 51.998 945.672 51.8027 945.828 51.5566C945.988 51.3066 946.068 51.0195 946.068 50.6953C946.068 50.1484 945.914 49.7207 945.605 49.4121C945.297 49.1035 944.854 48.9492 944.275 48.9492C943.729 48.9492 943.279 49.1113 942.928 49.4355C942.58 49.7559 942.406 50.1797 942.406 50.707H941.703C941.703 50.2656 941.814 49.8633 942.037 49.5C942.26 49.1328 942.568 48.8496 942.963 48.6504C943.357 48.4512 943.795 48.3516 944.275 48.3516C945.049 48.3516 945.658 48.5625 946.104 48.9844C946.549 49.4062 946.771 49.9844 946.771 50.7188C946.771 51.1289 946.641 51.5078 946.379 51.8555C946.121 52.1992 945.766 52.457 945.312 52.6289C945.844 52.7773 946.246 53.0332 946.52 53.3965C946.793 53.7559 946.93 54.1855 946.93 54.6855C946.93 55.416 946.691 56.0039 946.215 56.4492C945.738 56.8945 945.102 57.1172 944.305 57.1172C943.797 57.1172 943.33 57.0156 942.904 56.8125C942.482 56.6094 942.154 56.3262 941.92 55.9629C941.689 55.5957 941.574 55.1699 941.574 54.6855H942.277C942.277 55.2285 942.467 55.6719 942.846 56.0156C943.225 56.3555 943.711 56.5254 944.305 56.5254C944.91 56.5254 945.381 56.3711 945.717 56.0625C946.057 55.75 946.227 55.2988 946.227 54.709C946.227 54.1387 946.043 53.7031 945.676 53.4023C945.312 53.1016 944.775 52.9512 944.064 52.9512H943.361V52.3535ZM952.766 54.252H954.096V54.8438H952.766V57H952.062V54.8438H948.049V54.4453L951.998 48.4688H952.766V54.252ZM948.91 54.252H952.062V49.377L951.752 49.916L948.91 54.252ZM960.26 53.4434C960.26 54.6465 960.039 55.5605 959.598 56.1855C959.156 56.8066 958.506 57.1172 957.646 57.1172C956.803 57.1172 956.156 56.8125 955.707 56.2031C955.258 55.5898 955.027 54.6992 955.016 53.5312V52.002C955.016 50.8027 955.238 49.8945 955.684 49.2773C956.129 48.6602 956.779 48.3516 957.635 48.3516C958.479 48.3516 959.123 48.6504 959.568 49.248C960.014 49.8418 960.244 50.7188 960.26 51.8789V53.4434ZM959.557 51.9141C959.557 50.9375 959.396 50.1992 959.076 49.6992C958.76 49.1992 958.279 48.9492 957.635 48.9492C957.002 48.9492 956.525 49.1934 956.205 49.6816C955.885 50.1699 955.721 50.8906 955.713 51.8438V53.5195C955.713 54.4922 955.877 55.2363 956.205 55.752C956.537 56.2676 957.018 56.5254 957.646 56.5254C958.271 56.5254 958.744 56.2734 959.064 55.7695C959.389 55.2656 959.553 54.5273 959.557 53.5547V51.9141Z" fill="#3C3C3B"/>
<path d="M1036.36 91.3535H1037.09C1037.49 91.3535 1037.84 91.2832 1038.14 91.1426C1038.44 90.998 1038.67 90.8027 1038.83 90.5566C1038.99 90.3066 1039.07 90.0195 1039.07 89.6953C1039.07 89.1484 1038.91 88.7207 1038.61 88.4121C1038.3 88.1035 1037.85 87.9492 1037.28 87.9492C1036.73 87.9492 1036.28 88.1113 1035.93 88.4355C1035.58 88.7559 1035.41 89.1797 1035.41 89.707H1034.7C1034.7 89.2656 1034.81 88.8633 1035.04 88.5C1035.26 88.1328 1035.57 87.8496 1035.96 87.6504C1036.36 87.4512 1036.79 87.3516 1037.28 87.3516C1038.05 87.3516 1038.66 87.5625 1039.1 87.9844C1039.55 88.4062 1039.77 88.9844 1039.77 89.7188C1039.77 90.1289 1039.64 90.5078 1039.38 90.8555C1039.12 91.1992 1038.77 91.457 1038.31 91.6289C1038.84 91.7773 1039.25 92.0332 1039.52 92.3965C1039.79 92.7559 1039.93 93.1855 1039.93 93.6855C1039.93 94.416 1039.69 95.0039 1039.21 95.4492C1038.74 95.8945 1038.1 96.1172 1037.3 96.1172C1036.8 96.1172 1036.33 96.0156 1035.9 95.8125C1035.48 95.6094 1035.15 95.3262 1034.92 94.9629C1034.69 94.5957 1034.57 94.1699 1034.57 93.6855H1035.28C1035.28 94.2285 1035.47 94.6719 1035.85 95.0156C1036.22 95.3555 1036.71 95.5254 1037.3 95.5254C1037.91 95.5254 1038.38 95.3711 1038.72 95.0625C1039.06 94.75 1039.23 94.2988 1039.23 93.709C1039.23 93.1387 1039.04 92.7031 1038.68 92.4023C1038.31 92.1016 1037.78 91.9512 1037.06 91.9512H1036.36V91.3535ZM1046.6 92.4434C1046.6 93.6465 1046.38 94.5605 1045.94 95.1855C1045.5 95.8066 1044.85 96.1172 1043.99 96.1172C1043.15 96.1172 1042.5 95.8125 1042.05 95.2031C1041.6 94.5898 1041.37 93.6992 1041.36 92.5312V91.002C1041.36 89.8027 1041.58 88.8945 1042.03 88.2773C1042.47 87.6602 1043.12 87.3516 1043.98 87.3516C1044.82 87.3516 1045.47 87.6504 1045.91 88.248C1046.36 88.8418 1046.59 89.7188 1046.6 90.8789V92.4434ZM1045.9 90.9141C1045.9 89.9375 1045.74 89.1992 1045.42 88.6992C1045.1 88.1992 1044.62 87.9492 1043.98 87.9492C1043.35 87.9492 1042.87 88.1934 1042.55 88.6816C1042.23 89.1699 1042.06 89.8906 1042.06 90.8438V92.5195C1042.06 93.4922 1042.22 94.2363 1042.55 94.752C1042.88 95.2676 1043.36 95.5254 1043.99 95.5254C1044.62 95.5254 1045.09 95.2734 1045.41 94.7695C1045.73 94.2656 1045.9 93.5273 1045.9 92.5547V90.9141ZM1053.26 92.4434C1053.26 93.6465 1053.04 94.5605 1052.6 95.1855C1052.16 95.8066 1051.51 96.1172 1050.65 96.1172C1049.8 96.1172 1049.16 95.8125 1048.71 95.2031C1048.26 94.5898 1048.03 93.6992 1048.02 92.5312V91.002C1048.02 89.8027 1048.24 88.8945 1048.68 88.2773C1049.13 87.6602 1049.78 87.3516 1050.63 87.3516C1051.48 87.3516 1052.12 87.6504 1052.57 88.248C1053.01 88.8418 1053.24 89.7188 1053.26 90.8789V92.4434ZM1052.56 90.9141C1052.56 89.9375 1052.4 89.1992 1052.08 88.6992C1051.76 88.1992 1051.28 87.9492 1050.63 87.9492C1050 87.9492 1049.53 88.1934 1049.21 88.6816C1048.88 89.1699 1048.72 89.8906 1048.71 90.8438V92.5195C1048.71 93.4922 1048.88 94.2363 1049.21 94.752C1049.54 95.2676 1050.02 95.5254 1050.65 95.5254C1051.27 95.5254 1051.74 95.2734 1052.06 94.7695C1052.39 94.2656 1052.55 93.5273 1052.56 92.5547V90.9141Z" fill="#3C3C3B"/>
<path d="M546.146 215H540.803V214.461L543.727 211.145C544.211 210.586 544.547 210.125 544.734 209.762C544.922 209.398 545.016 209.045 545.016 208.701C545.016 208.162 544.857 207.736 544.541 207.424C544.225 207.107 543.789 206.949 543.234 206.949C542.66 206.949 542.195 207.133 541.84 207.5C541.488 207.867 541.312 208.344 541.312 208.93H540.615C540.615 208.449 540.723 208.012 540.938 207.617C541.156 207.223 541.465 206.914 541.863 206.691C542.266 206.465 542.723 206.352 543.234 206.352C544.016 206.352 544.625 206.557 545.062 206.967C545.504 207.377 545.725 207.936 545.725 208.643C545.725 209.041 545.6 209.477 545.35 209.949C545.104 210.422 544.668 211.012 544.043 211.719L541.664 214.408H546.146V215ZM552.803 215H547.459V214.461L550.383 211.145C550.867 210.586 551.203 210.125 551.391 209.762C551.578 209.398 551.672 209.045 551.672 208.701C551.672 208.162 551.514 207.736 551.197 207.424C550.881 207.107 550.445 206.949 549.891 206.949C549.316 206.949 548.852 207.133 548.496 207.5C548.145 207.867 547.969 208.344 547.969 208.93H547.271C547.271 208.449 547.379 208.012 547.594 207.617C547.812 207.223 548.121 206.914 548.52 206.691C548.922 206.465 549.379 206.352 549.891 206.352C550.672 206.352 551.281 206.557 551.719 206.967C552.16 207.377 552.381 207.936 552.381 208.643C552.381 209.041 552.256 209.477 552.006 209.949C551.76 210.422 551.324 211.012 550.699 211.719L548.32 214.408H552.803V215ZM559.26 211.443C559.26 212.646 559.039 213.561 558.598 214.186C558.156 214.807 557.506 215.117 556.646 215.117C555.803 215.117 555.156 214.812 554.707 214.203C554.258 213.59 554.027 212.699 554.016 211.531V210.002C554.016 208.803 554.238 207.895 554.684 207.277C555.129 206.66 555.779 206.352 556.635 206.352C557.479 206.352 558.123 206.65 558.568 207.248C559.014 207.842 559.244 208.719 559.26 209.879V211.443ZM558.557 209.914C558.557 208.938 558.396 208.199 558.076 207.699C557.76 207.199 557.279 206.949 556.635 206.949C556.002 206.949 555.525 207.193 555.205 207.682C554.885 208.17 554.721 208.891 554.713 209.844V211.52C554.713 212.492 554.877 213.236 555.205 213.752C555.537 214.268 556.018 214.525 556.646 214.525C557.271 214.525 557.744 214.273 558.064 213.77C558.389 213.266 558.553 212.527 558.557 211.555V209.914Z" fill="#3C3C3B"/>
<path d="M633.146 226H627.803V225.461L630.727 222.145C631.211 221.586 631.547 221.125 631.734 220.762C631.922 220.398 632.016 220.045 632.016 219.701C632.016 219.162 631.857 218.736 631.541 218.424C631.225 218.107 630.789 217.949 630.234 217.949C629.66 217.949 629.195 218.133 628.84 218.5C628.488 218.867 628.312 219.344 628.312 219.93H627.615C627.615 219.449 627.723 219.012 627.938 218.617C628.156 218.223 628.465 217.914 628.863 217.691C629.266 217.465 629.723 217.352 630.234 217.352C631.016 217.352 631.625 217.557 632.062 217.967C632.504 218.377 632.725 218.936 632.725 219.643C632.725 220.041 632.6 220.477 632.35 220.949C632.104 221.422 631.668 222.012 631.043 222.719L628.664 225.408H633.146V226ZM637.723 226H637.02V218.312L634.699 219.174V218.518L637.605 217.439H637.723V226ZM646.143 219.666C646.143 220.107 646.014 220.504 645.756 220.855C645.498 221.203 645.158 221.459 644.736 221.623C645.229 221.791 645.623 222.062 645.92 222.438C646.217 222.812 646.365 223.246 646.365 223.738C646.365 224.469 646.117 225.049 645.621 225.479C645.125 225.904 644.469 226.117 643.652 226.117C642.828 226.117 642.168 225.904 641.672 225.479C641.18 225.053 640.934 224.473 640.934 223.738C640.934 223.254 641.076 222.822 641.361 222.443C641.646 222.064 642.037 221.791 642.533 221.623C642.111 221.459 641.775 221.203 641.525 220.855C641.275 220.504 641.15 220.107 641.15 219.666C641.15 218.959 641.377 218.396 641.83 217.979C642.287 217.561 642.891 217.352 643.641 217.352C644.391 217.352 644.994 217.562 645.451 217.984C645.912 218.406 646.143 218.967 646.143 219.666ZM645.662 223.744C645.662 223.213 645.473 222.777 645.094 222.438C644.715 222.094 644.23 221.922 643.641 221.922C643.051 221.922 642.568 222.09 642.193 222.426C641.818 222.762 641.631 223.201 641.631 223.744C641.631 224.287 641.812 224.721 642.176 225.045C642.539 225.365 643.031 225.525 643.652 225.525C644.258 225.525 644.744 225.365 645.111 225.045C645.479 224.725 645.662 224.291 645.662 223.744ZM645.439 219.66C645.439 219.172 645.27 218.766 644.93 218.441C644.594 218.113 644.164 217.949 643.641 217.949C643.109 217.949 642.678 218.107 642.346 218.424C642.018 218.736 641.854 219.148 641.854 219.66C641.854 220.16 642.018 220.562 642.346 220.867C642.678 221.172 643.111 221.324 643.646 221.324C644.174 221.324 644.604 221.172 644.936 220.867C645.271 220.559 645.439 220.156 645.439 219.66Z" fill="#3C3C3B"/>
<path d="M726.146 213H720.803V212.461L723.727 209.145C724.211 208.586 724.547 208.125 724.734 207.762C724.922 207.398 725.016 207.045 725.016 206.701C725.016 206.162 724.857 205.736 724.541 205.424C724.225 205.107 723.789 204.949 723.234 204.949C722.66 204.949 722.195 205.133 721.84 205.5C721.488 205.867 721.312 206.344 721.312 206.93H720.615C720.615 206.449 720.723 206.012 720.938 205.617C721.156 205.223 721.465 204.914 721.863 204.691C722.266 204.465 722.723 204.352 723.234 204.352C724.016 204.352 724.625 204.557 725.062 204.967C725.504 205.377 725.725 205.936 725.725 206.643C725.725 207.041 725.6 207.477 725.35 207.949C725.104 208.422 724.668 209.012 724.043 209.719L721.664 212.408H726.146V213ZM732.803 213H727.459V212.461L730.383 209.145C730.867 208.586 731.203 208.125 731.391 207.762C731.578 207.398 731.672 207.045 731.672 206.701C731.672 206.162 731.514 205.736 731.197 205.424C730.881 205.107 730.445 204.949 729.891 204.949C729.316 204.949 728.852 205.133 728.496 205.5C728.145 205.867 727.969 206.344 727.969 206.93H727.271C727.271 206.449 727.379 206.012 727.594 205.617C727.812 205.223 728.121 204.914 728.52 204.691C728.922 204.465 729.379 204.352 729.891 204.352C730.672 204.352 731.281 204.557 731.719 204.967C732.16 205.377 732.381 205.936 732.381 206.643C732.381 207.041 732.256 207.477 732.006 207.949C731.76 208.422 731.324 209.012 730.699 209.719L728.32 212.408H732.803V213ZM739.26 209.443C739.26 210.646 739.039 211.561 738.598 212.186C738.156 212.807 737.506 213.117 736.646 213.117C735.803 213.117 735.156 212.812 734.707 212.203C734.258 211.59 734.027 210.699 734.016 209.531V208.002C734.016 206.803 734.238 205.895 734.684 205.277C735.129 204.66 735.779 204.352 736.635 204.352C737.479 204.352 738.123 204.65 738.568 205.248C739.014 205.842 739.244 206.719 739.26 207.879V209.443ZM738.557 207.914C738.557 206.938 738.396 206.199 738.076 205.699C737.76 205.199 737.279 204.949 736.635 204.949C736.002 204.949 735.525 205.193 735.205 205.682C734.885 206.17 734.721 206.891 734.713 207.844V209.52C734.713 210.492 734.877 211.236 735.205 211.752C735.537 212.268 736.018 212.525 736.646 212.525C737.271 212.525 737.744 212.273 738.064 211.77C738.389 211.266 738.553 210.527 738.557 209.555V207.914Z" fill="#3C3C3B"/>
<path d="M832.146 232H826.803V231.461L829.727 228.145C830.211 227.586 830.547 227.125 830.734 226.762C830.922 226.398 831.016 226.045 831.016 225.701C831.016 225.162 830.857 224.736 830.541 224.424C830.225 224.107 829.789 223.949 829.234 223.949C828.66 223.949 828.195 224.133 827.84 224.5C827.488 224.867 827.312 225.344 827.312 225.93H826.615C826.615 225.449 826.723 225.012 826.938 224.617C827.156 224.223 827.465 223.914 827.863 223.691C828.266 223.465 828.723 223.352 829.234 223.352C830.016 223.352 830.625 223.557 831.062 223.967C831.504 224.377 831.725 224.936 831.725 225.643C831.725 226.041 831.6 226.477 831.35 226.949C831.104 227.422 830.668 228.012 830.043 228.719L827.664 231.408H832.146V232ZM838.604 228.443C838.604 229.646 838.383 230.561 837.941 231.186C837.5 231.807 836.85 232.117 835.99 232.117C835.146 232.117 834.5 231.812 834.051 231.203C833.602 230.59 833.371 229.699 833.359 228.531V227.002C833.359 225.803 833.582 224.895 834.027 224.277C834.473 223.66 835.123 223.352 835.979 223.352C836.822 223.352 837.467 223.65 837.912 224.248C838.357 224.842 838.588 225.719 838.604 226.879V228.443ZM837.9 226.914C837.9 225.938 837.74 225.199 837.42 224.699C837.104 224.199 836.623 223.949 835.979 223.949C835.346 223.949 834.869 224.193 834.549 224.682C834.229 225.17 834.064 225.891 834.057 226.844V228.52C834.057 229.492 834.221 230.236 834.549 230.752C834.881 231.268 835.361 231.525 835.99 231.525C836.615 231.525 837.088 231.273 837.408 230.77C837.732 230.266 837.896 229.527 837.9 228.555V226.914ZM843.379 232H842.676V224.312L840.355 225.174V224.518L843.262 223.439H843.379V232Z" fill="#3C3C3B"/>
<path d="M928.146 213H922.803V212.461L925.727 209.145C926.211 208.586 926.547 208.125 926.734 207.762C926.922 207.398 927.016 207.045 927.016 206.701C927.016 206.162 926.857 205.736 926.541 205.424C926.225 205.107 925.789 204.949 925.234 204.949C924.66 204.949 924.195 205.133 923.84 205.5C923.488 205.867 923.312 206.344 923.312 206.93H922.615C922.615 206.449 922.723 206.012 922.938 205.617C923.156 205.223 923.465 204.914 923.863 204.691C924.266 204.465 924.723 204.352 925.234 204.352C926.016 204.352 926.625 204.557 927.062 204.967C927.504 205.377 927.725 205.936 927.725 206.643C927.725 207.041 927.6 207.477 927.35 207.949C927.104 208.422 926.668 209.012 926.043 209.719L923.664 212.408H928.146V213ZM932.723 213H932.02V205.312L929.699 206.174V205.518L932.605 204.439H932.723V213ZM936.59 208.629L937.006 204.469H941.271V205.119H937.609L937.311 208.002C937.768 207.689 938.303 207.533 938.916 207.533C939.686 207.533 940.299 207.783 940.756 208.283C941.213 208.783 941.441 209.449 941.441 210.281C941.441 211.18 941.219 211.877 940.773 212.373C940.328 212.869 939.701 213.117 938.893 213.117C938.15 213.117 937.549 212.91 937.088 212.496C936.627 212.082 936.363 211.502 936.297 210.756H936.971C937.037 211.338 937.234 211.779 937.562 212.08C937.891 212.377 938.334 212.525 938.893 212.525C939.502 212.525 939.961 212.332 940.27 211.945C940.582 211.559 940.738 211.008 940.738 210.293C940.738 209.668 940.564 209.158 940.217 208.764C939.869 208.369 939.395 208.172 938.793 208.172C938.461 208.172 938.172 208.215 937.926 208.301C937.68 208.383 937.42 208.545 937.146 208.787L936.59 208.629Z" fill="#3C3C3B"/>
<path d="M1021.15 232H1015.8V231.461L1018.73 228.145C1019.21 227.586 1019.55 227.125 1019.73 226.762C1019.92 226.398 1020.02 226.045 1020.02 225.701C1020.02 225.162 1019.86 224.736 1019.54 224.424C1019.22 224.107 1018.79 223.949 1018.23 223.949C1017.66 223.949 1017.2 224.133 1016.84 224.5C1016.49 224.867 1016.31 225.344 1016.31 225.93H1015.62C1015.62 225.449 1015.72 225.012 1015.94 224.617C1016.16 224.223 1016.46 223.914 1016.86 223.691C1017.27 223.465 1017.72 223.352 1018.23 223.352C1019.02 223.352 1019.62 223.557 1020.06 223.967C1020.5 224.377 1020.72 224.936 1020.72 225.643C1020.72 226.041 1020.6 226.477 1020.35 226.949C1020.1 227.422 1019.67 228.012 1019.04 228.719L1016.66 231.408H1021.15V232ZM1027.6 228.443C1027.6 229.646 1027.38 230.561 1026.94 231.186C1026.5 231.807 1025.85 232.117 1024.99 232.117C1024.15 232.117 1023.5 231.812 1023.05 231.203C1022.6 230.59 1022.37 229.699 1022.36 228.531V227.002C1022.36 225.803 1022.58 224.895 1023.03 224.277C1023.47 223.66 1024.12 223.352 1024.98 223.352C1025.82 223.352 1026.47 223.65 1026.91 224.248C1027.36 224.842 1027.59 225.719 1027.6 226.879V228.443ZM1026.9 226.914C1026.9 225.938 1026.74 225.199 1026.42 224.699C1026.1 224.199 1025.62 223.949 1024.98 223.949C1024.35 223.949 1023.87 224.193 1023.55 224.682C1023.23 225.17 1023.06 225.891 1023.06 226.844V228.52C1023.06 229.492 1023.22 230.236 1023.55 230.752C1023.88 231.268 1024.36 231.525 1024.99 231.525C1025.62 231.525 1026.09 231.273 1026.41 230.77C1026.73 230.266 1026.9 229.527 1026.9 228.555V226.914ZM1034.46 232H1029.12V231.461L1032.04 228.145C1032.52 227.586 1032.86 227.125 1033.05 226.762C1033.23 226.398 1033.33 226.045 1033.33 225.701C1033.33 225.162 1033.17 224.736 1032.85 224.424C1032.54 224.107 1032.1 223.949 1031.55 223.949C1030.97 223.949 1030.51 224.133 1030.15 224.5C1029.8 224.867 1029.62 225.344 1029.62 225.93H1028.93C1028.93 225.449 1029.04 225.012 1029.25 224.617C1029.47 224.223 1029.78 223.914 1030.18 223.691C1030.58 223.465 1031.04 223.352 1031.55 223.352C1032.33 223.352 1032.94 223.557 1033.38 223.967C1033.82 224.377 1034.04 224.936 1034.04 225.643C1034.04 226.041 1033.91 226.477 1033.66 226.949C1033.42 227.422 1032.98 228.012 1032.36 228.719L1029.98 231.408H1034.46V232Z" fill="#3C3C3B"/>
<path d="M652.146 212H646.803V211.461L649.727 208.145C650.211 207.586 650.547 207.125 650.734 206.762C650.922 206.398 651.016 206.045 651.016 205.701C651.016 205.162 650.857 204.736 650.541 204.424C650.225 204.107 649.789 203.949 649.234 203.949C648.66 203.949 648.195 204.133 647.84 204.5C647.488 204.867 647.312 205.344 647.312 205.93H646.615C646.615 205.449 646.723 205.012 646.938 204.617C647.156 204.223 647.465 203.914 647.863 203.691C648.266 203.465 648.723 203.352 649.234 203.352C650.016 203.352 650.625 203.557 651.062 203.967C651.504 204.377 651.725 204.936 651.725 205.643C651.725 206.041 651.6 206.477 651.35 206.949C651.104 207.422 650.668 208.012 650.043 208.719L647.664 211.408H652.146V212ZM658.803 212H653.459V211.461L656.383 208.145C656.867 207.586 657.203 207.125 657.391 206.762C657.578 206.398 657.672 206.045 657.672 205.701C657.672 205.162 657.514 204.736 657.197 204.424C656.881 204.107 656.445 203.949 655.891 203.949C655.316 203.949 654.852 204.133 654.496 204.5C654.145 204.867 653.969 205.344 653.969 205.93H653.271C653.271 205.449 653.379 205.012 653.594 204.617C653.812 204.223 654.121 203.914 654.52 203.691C654.922 203.465 655.379 203.352 655.891 203.352C656.672 203.352 657.281 203.557 657.719 203.967C658.16 204.377 658.381 204.936 658.381 205.643C658.381 206.041 658.256 206.477 658.006 206.949C657.76 207.422 657.324 208.012 656.699 208.719L654.32 211.408H658.803V212ZM665.26 208.443C665.26 209.646 665.039 210.561 664.598 211.186C664.156 211.807 663.506 212.117 662.646 212.117C661.803 212.117 661.156 211.812 660.707 211.203C660.258 210.59 660.027 209.699 660.016 208.531V207.002C660.016 205.803 660.238 204.895 660.684 204.277C661.129 203.66 661.779 203.352 662.635 203.352C663.479 203.352 664.123 203.65 664.568 204.248C665.014 204.842 665.244 205.719 665.26 206.879V208.443ZM664.557 206.914C664.557 205.938 664.396 205.199 664.076 204.699C663.76 204.199 663.279 203.949 662.635 203.949C662.002 203.949 661.525 204.193 661.205 204.682C660.885 205.17 660.721 205.891 660.713 206.844V208.52C660.713 209.492 660.877 210.236 661.205 210.752C661.537 211.268 662.018 211.525 662.646 211.525C663.271 211.525 663.744 211.273 664.064 210.77C664.389 210.266 664.553 209.527 664.557 208.555V206.914Z" fill="#3C3C3B"/>
<path d="M458.066 376H457.363V368.312L455.043 369.174V368.518L457.949 367.439H458.066V376ZM466.604 372.443C466.604 373.646 466.383 374.561 465.941 375.186C465.5 375.807 464.85 376.117 463.99 376.117C463.146 376.117 462.5 375.812 462.051 375.203C461.602 374.59 461.371 373.699 461.359 372.531V371.002C461.359 369.803 461.582 368.895 462.027 368.277C462.473 367.66 463.123 367.352 463.979 367.352C464.822 367.352 465.467 367.65 465.912 368.248C466.357 368.842 466.588 369.719 466.604 370.879V372.443ZM465.9 370.914C465.9 369.938 465.74 369.199 465.42 368.699C465.104 368.199 464.623 367.949 463.979 367.949C463.346 367.949 462.869 368.193 462.549 368.682C462.229 369.17 462.064 369.891 462.057 370.844V372.52C462.057 373.492 462.221 374.236 462.549 374.752C462.881 375.268 463.361 375.525 463.99 375.525C464.615 375.525 465.088 375.273 465.408 374.77C465.732 374.266 465.896 373.527 465.9 372.555V370.914ZM473.143 369.666C473.143 370.107 473.014 370.504 472.756 370.855C472.498 371.203 472.158 371.459 471.736 371.623C472.229 371.791 472.623 372.062 472.92 372.438C473.217 372.812 473.365 373.246 473.365 373.738C473.365 374.469 473.117 375.049 472.621 375.479C472.125 375.904 471.469 376.117 470.652 376.117C469.828 376.117 469.168 375.904 468.672 375.479C468.18 375.053 467.934 374.473 467.934 373.738C467.934 373.254 468.076 372.822 468.361 372.443C468.646 372.064 469.037 371.791 469.533 371.623C469.111 371.459 468.775 371.203 468.525 370.855C468.275 370.504 468.15 370.107 468.15 369.666C468.15 368.959 468.377 368.396 468.83 367.979C469.287 367.561 469.891 367.352 470.641 367.352C471.391 367.352 471.994 367.562 472.451 367.984C472.912 368.406 473.143 368.967 473.143 369.666ZM472.662 373.744C472.662 373.213 472.473 372.777 472.094 372.438C471.715 372.094 471.23 371.922 470.641 371.922C470.051 371.922 469.568 372.09 469.193 372.426C468.818 372.762 468.631 373.201 468.631 373.744C468.631 374.287 468.812 374.721 469.176 375.045C469.539 375.365 470.031 375.525 470.652 375.525C471.258 375.525 471.744 375.365 472.111 375.045C472.479 374.725 472.662 374.291 472.662 373.744ZM472.439 369.66C472.439 369.172 472.27 368.766 471.93 368.441C471.594 368.113 471.164 367.949 470.641 367.949C470.109 367.949 469.678 368.107 469.346 368.424C469.018 368.736 468.854 369.148 468.854 369.66C468.854 370.16 469.018 370.562 469.346 370.867C469.678 371.172 470.111 371.324 470.646 371.324C471.174 371.324 471.604 371.172 471.936 370.867C472.271 370.559 472.439 370.156 472.439 369.66Z" fill="#3C3C3B"/>
<path d="M395.361 74.3535H396.088C396.49 74.3535 396.842 74.2832 397.143 74.1426C397.443 73.998 397.672 73.8027 397.828 73.5566C397.988 73.3066 398.068 73.0195 398.068 72.6953C398.068 72.1484 397.914 71.7207 397.605 71.4121C397.297 71.1035 396.854 70.9492 396.275 70.9492C395.729 70.9492 395.279 71.1113 394.928 71.4355C394.58 71.7559 394.406 72.1797 394.406 72.707H393.703C393.703 72.2656 393.814 71.8633 394.037 71.5C394.26 71.1328 394.568 70.8496 394.963 70.6504C395.357 70.4512 395.795 70.3516 396.275 70.3516C397.049 70.3516 397.658 70.5625 398.104 70.9844C398.549 71.4062 398.771 71.9844 398.771 72.7188C398.771 73.1289 398.641 73.5078 398.379 73.8555C398.121 74.1992 397.766 74.457 397.312 74.6289C397.844 74.7773 398.246 75.0332 398.52 75.3965C398.793 75.7559 398.93 76.1855 398.93 76.6855C398.93 77.416 398.691 78.0039 398.215 78.4492C397.738 78.8945 397.102 79.1172 396.305 79.1172C395.797 79.1172 395.33 79.0156 394.904 78.8125C394.482 78.6094 394.154 78.3262 393.92 77.9629C393.689 77.5957 393.574 77.1699 393.574 76.6855H394.277C394.277 77.2285 394.467 77.6719 394.846 78.0156C395.225 78.3555 395.711 78.5254 396.305 78.5254C396.91 78.5254 397.381 78.3711 397.717 78.0625C398.057 77.75 398.227 77.2988 398.227 76.709C398.227 76.1387 398.043 75.7031 397.676 75.4023C397.312 75.1016 396.775 74.9512 396.064 74.9512H395.361V74.3535ZM403.723 79H403.02V71.3125L400.699 72.1738V71.5176L403.605 70.4395H403.723V79ZM412.26 75.4434C412.26 76.6465 412.039 77.5605 411.598 78.1855C411.156 78.8066 410.506 79.1172 409.646 79.1172C408.803 79.1172 408.156 78.8125 407.707 78.2031C407.258 77.5898 407.027 76.6992 407.016 75.5312V74.002C407.016 72.8027 407.238 71.8945 407.684 71.2773C408.129 70.6602 408.779 70.3516 409.635 70.3516C410.479 70.3516 411.123 70.6504 411.568 71.248C412.014 71.8418 412.244 72.7188 412.26 73.8789V75.4434ZM411.557 73.9141C411.557 72.9375 411.396 72.1992 411.076 71.6992C410.76 71.1992 410.279 70.9492 409.635 70.9492C409.002 70.9492 408.525 71.1934 408.205 71.6816C407.885 72.1699 407.721 72.8906 407.713 73.8438V75.5195C407.713 76.4922 407.877 77.2363 408.205 77.752C408.537 78.2676 409.018 78.5254 409.646 78.5254C410.271 78.5254 410.744 78.2734 411.064 77.7695C411.389 77.2656 411.553 76.5273 411.557 75.5547V73.9141Z" fill="#3C3C3B"/>
<path d="M223.361 82.3535H224.088C224.49 82.3535 224.842 82.2832 225.143 82.1426C225.443 81.998 225.672 81.8027 225.828 81.5566C225.988 81.3066 226.068 81.0195 226.068 80.6953C226.068 80.1484 225.914 79.7207 225.605 79.4121C225.297 79.1035 224.854 78.9492 224.275 78.9492C223.729 78.9492 223.279 79.1113 222.928 79.4355C222.58 79.7559 222.406 80.1797 222.406 80.707H221.703C221.703 80.2656 221.814 79.8633 222.037 79.5C222.26 79.1328 222.568 78.8496 222.963 78.6504C223.357 78.4512 223.795 78.3516 224.275 78.3516C225.049 78.3516 225.658 78.5625 226.104 78.9844C226.549 79.4062 226.771 79.9844 226.771 80.7188C226.771 81.1289 226.641 81.5078 226.379 81.8555C226.121 82.1992 225.766 82.457 225.312 82.6289C225.844 82.7773 226.246 83.0332 226.52 83.3965C226.793 83.7559 226.93 84.1855 226.93 84.6855C226.93 85.416 226.691 86.0039 226.215 86.4492C225.738 86.8945 225.102 87.1172 224.305 87.1172C223.797 87.1172 223.33 87.0156 222.904 86.8125C222.482 86.6094 222.154 86.3262 221.92 85.9629C221.689 85.5957 221.574 85.1699 221.574 84.6855H222.277C222.277 85.2285 222.467 85.6719 222.846 86.0156C223.225 86.3555 223.711 86.5254 224.305 86.5254C224.91 86.5254 225.381 86.3711 225.717 86.0625C226.057 85.75 226.227 85.2988 226.227 84.709C226.227 84.1387 226.043 83.7031 225.676 83.4023C225.312 83.1016 224.775 82.9512 224.064 82.9512H223.361V82.3535ZM233.604 83.4434C233.604 84.6465 233.383 85.5605 232.941 86.1855C232.5 86.8066 231.85 87.1172 230.99 87.1172C230.146 87.1172 229.5 86.8125 229.051 86.2031C228.602 85.5898 228.371 84.6992 228.359 83.5312V82.002C228.359 80.8027 228.582 79.8945 229.027 79.2773C229.473 78.6602 230.123 78.3516 230.979 78.3516C231.822 78.3516 232.467 78.6504 232.912 79.248C233.357 79.8418 233.588 80.7188 233.604 81.8789V83.4434ZM232.9 81.9141C232.9 80.9375 232.74 80.1992 232.42 79.6992C232.104 79.1992 231.623 78.9492 230.979 78.9492C230.346 78.9492 229.869 79.1934 229.549 79.6816C229.229 80.1699 229.064 80.8906 229.057 81.8438V83.5195C229.057 84.4922 229.221 85.2363 229.549 85.752C229.881 86.2676 230.361 86.5254 230.99 86.5254C231.615 86.5254 232.088 86.2734 232.408 85.7695C232.732 85.2656 232.896 84.5273 232.9 83.5547V81.9141ZM235.59 82.6289L236.006 78.4688H240.271V79.1191H236.609L236.311 82.002C236.768 81.6895 237.303 81.5332 237.916 81.5332C238.686 81.5332 239.299 81.7832 239.756 82.2832C240.213 82.7832 240.441 83.4492 240.441 84.2812C240.441 85.1797 240.219 85.877 239.773 86.373C239.328 86.8691 238.701 87.1172 237.893 87.1172C237.15 87.1172 236.549 86.9102 236.088 86.4961C235.627 86.082 235.363 85.502 235.297 84.7559H235.971C236.037 85.3379 236.234 85.7793 236.562 86.0801C236.891 86.377 237.334 86.5254 237.893 86.5254C238.502 86.5254 238.961 86.332 239.27 85.9453C239.582 85.5586 239.738 85.0078 239.738 84.293C239.738 83.668 239.564 83.1582 239.217 82.7637C238.869 82.3691 238.395 82.1719 237.793 82.1719C237.461 82.1719 237.172 82.2148 236.926 82.3008C236.68 82.3828 236.42 82.5449 236.146 82.7871L235.59 82.6289Z" fill="#3C3C3B"/>
<path d="M315.146 122H309.803V121.461L312.727 118.145C313.211 117.586 313.547 117.125 313.734 116.762C313.922 116.398 314.016 116.045 314.016 115.701C314.016 115.162 313.857 114.736 313.541 114.424C313.225 114.107 312.789 113.949 312.234 113.949C311.66 113.949 311.195 114.133 310.84 114.5C310.488 114.867 310.312 115.344 310.312 115.93H309.615C309.615 115.449 309.723 115.012 309.938 114.617C310.156 114.223 310.465 113.914 310.863 113.691C311.266 113.465 311.723 113.352 312.234 113.352C313.016 113.352 313.625 113.557 314.062 113.967C314.504 114.377 314.725 114.936 314.725 115.643C314.725 116.041 314.6 116.477 314.35 116.949C314.104 117.422 313.668 118.012 313.043 118.719L310.664 121.408H315.146V122ZM321.486 115.666C321.486 116.107 321.357 116.504 321.1 116.855C320.842 117.203 320.502 117.459 320.08 117.623C320.572 117.791 320.967 118.062 321.264 118.438C321.561 118.812 321.709 119.246 321.709 119.738C321.709 120.469 321.461 121.049 320.965 121.479C320.469 121.904 319.812 122.117 318.996 122.117C318.172 122.117 317.512 121.904 317.016 121.479C316.523 121.053 316.277 120.473 316.277 119.738C316.277 119.254 316.42 118.822 316.705 118.443C316.99 118.064 317.381 117.791 317.877 117.623C317.455 117.459 317.119 117.203 316.869 116.855C316.619 116.504 316.494 116.107 316.494 115.666C316.494 114.959 316.721 114.396 317.174 113.979C317.631 113.561 318.234 113.352 318.984 113.352C319.734 113.352 320.338 113.562 320.795 113.984C321.256 114.406 321.486 114.967 321.486 115.666ZM321.006 119.744C321.006 119.213 320.816 118.777 320.438 118.438C320.059 118.094 319.574 117.922 318.984 117.922C318.395 117.922 317.912 118.09 317.537 118.426C317.162 118.762 316.975 119.201 316.975 119.744C316.975 120.287 317.156 120.721 317.52 121.045C317.883 121.365 318.375 121.525 318.996 121.525C319.602 121.525 320.088 121.365 320.455 121.045C320.822 120.725 321.006 120.291 321.006 119.744ZM320.783 115.66C320.783 115.172 320.613 114.766 320.273 114.441C319.938 114.113 319.508 113.949 318.984 113.949C318.453 113.949 318.021 114.107 317.689 114.424C317.361 114.736 317.197 115.148 317.197 115.66C317.197 116.16 317.361 116.562 317.689 116.867C318.021 117.172 318.455 117.324 318.99 117.324C319.518 117.324 319.947 117.172 320.279 116.867C320.615 116.559 320.783 116.156 320.783 115.66ZM328.26 118.443C328.26 119.646 328.039 120.561 327.598 121.186C327.156 121.807 326.506 122.117 325.646 122.117C324.803 122.117 324.156 121.812 323.707 121.203C323.258 120.59 323.027 119.699 323.016 118.531V117.002C323.016 115.803 323.238 114.895 323.684 114.277C324.129 113.66 324.779 113.352 325.635 113.352C326.479 113.352 327.123 113.65 327.568 114.248C328.014 114.842 328.244 115.719 328.26 116.879V118.443ZM327.557 116.914C327.557 115.938 327.396 115.199 327.076 114.699C326.76 114.199 326.279 113.949 325.635 113.949C325.002 113.949 324.525 114.193 324.205 114.682C323.885 115.17 323.721 115.891 323.713 116.844V118.52C323.713 119.492 323.877 120.236 324.205 120.752C324.537 121.268 325.018 121.525 325.646 121.525C326.271 121.525 326.744 121.273 327.064 120.77C327.389 120.266 327.553 119.527 327.557 118.555V116.914Z" fill="#3C3C3B"/>
</svg>
