<svg width="220" height="60" viewBox="0 0 220 60" fill="none" xmlns="http://www.w3.org/2000/svg">
<g clip-path="url(#clip0)">
<path fill-rule="evenodd" clip-rule="evenodd" d="M0 38.2461H43.4625V44.3596H0V38.2461ZM0 0.807373H43.4625V36.0677H33.6638V21.5598C33.6638 15.0595 28.2943 9.74253 21.731 9.74253C15.1687 9.74253 9.79817 15.0595 9.79817 21.5598V36.0677H0V0.807373Z" fill="#006946"/>
<path fill-rule="evenodd" clip-rule="evenodd" d="M215.002 21.7011V17.9751H216.956C217.406 17.9751 217.724 18.0811 217.907 18.2942C218.09 18.506 218.183 18.7531 218.183 19.0351C218.183 19.2794 218.133 19.4703 218.033 19.6094C217.934 19.7485 217.821 19.848 217.701 19.9085C217.679 19.9221 217.657 19.9323 217.634 19.9412C217.612 19.9489 217.592 19.957 217.573 19.9629V19.9782C217.769 20.0324 217.902 20.1237 217.97 20.2526C218.039 20.3815 218.078 20.518 218.094 20.6614C218.097 20.6988 218.099 20.7355 218.1 20.772C218.101 20.8095 218.103 20.8455 218.103 20.883C218.106 21.1071 218.114 21.2697 218.126 21.3718C218.137 21.4739 218.166 21.5637 218.213 21.6411C218.216 21.6505 218.221 21.6615 218.228 21.6704C218.236 21.6806 218.24 21.6913 218.248 21.7011H218.198H217.307C217.254 21.6245 217.216 21.5339 217.199 21.4305C217.181 21.3258 217.168 21.1515 217.162 20.9078C217.162 20.8906 217.16 20.8728 217.159 20.8524C217.158 20.832 217.156 20.8141 217.156 20.7975C217.147 20.6806 217.106 20.5716 217.033 20.4729C216.961 20.3746 216.801 20.3253 216.555 20.3253H215.927V21.7011H215.878H215.002ZM215.927 18.6983V19.6477H216.679C216.684 19.6477 216.687 19.6477 216.688 19.6477C216.689 19.6477 216.691 19.6477 216.695 19.6477C216.833 19.6444 216.959 19.6107 217.072 19.5469C217.19 19.483 217.246 19.3611 217.246 19.1806C217.246 18.9861 217.188 18.857 217.072 18.7932C216.959 18.7301 216.817 18.6983 216.65 18.6983H215.927ZM216.551 16.3813H216.555C217.504 16.3833 218.365 16.773 218.991 17.3983C219.611 18.0211 219.997 18.8812 220.001 19.8282V19.8378V19.8422C219.999 20.7929 219.611 21.6577 218.985 22.2822C218.364 22.904 217.505 23.2916 216.56 23.2949H216.551H216.547C215.599 23.2932 214.735 22.904 214.111 22.2784C213.492 21.6551 213.104 20.7942 213.103 19.848V19.8378V19.834C213.103 18.8838 213.492 18.0193 214.116 17.394C214.737 16.7717 215.598 16.3838 216.54 16.3813H216.551ZM216.555 17.0563H216.54C215.784 17.0584 215.089 17.3718 214.592 17.8713C214.088 18.3741 213.777 19.0701 213.775 19.834V19.8378V19.848C213.778 20.6073 214.088 21.3016 214.588 21.8019C215.089 22.3047 215.784 22.6186 216.547 22.6191H216.551H216.56C217.319 22.6181 218.013 22.3047 218.511 21.8049C219.013 21.3029 219.325 20.6066 219.326 19.8422V19.8378V19.8282C219.324 19.0683 219.013 18.3753 218.514 17.8738C218.014 17.3718 217.318 17.0571 216.555 17.0563Z" fill="#006946"/>
<path fill-rule="evenodd" clip-rule="evenodd" d="M50.499 36.634H55.7659V40.5291C55.7659 40.918 55.8309 41.1779 55.9608 41.3081C56.0909 41.5025 56.2857 41.5676 56.5458 41.5676C56.8711 41.5676 57.0665 41.5025 57.1961 41.3731C57.3262 41.2434 57.3912 40.9839 57.3912 40.5291V36.8287C57.3912 36.3749 57.3262 35.9857 57.0665 35.79C56.8064 35.5965 56.4159 35.3361 55.7659 35.0761L53.2952 34.1672C52.2547 33.7136 51.5395 33.3244 51.0844 32.8038C50.6939 32.3507 50.499 31.5059 50.499 30.3382V27.611C50.499 25.7938 50.8895 24.6254 51.6697 24.0416C52.4498 23.4572 54.205 23.1973 56.8711 23.1973C59.2765 23.1973 60.8372 23.4572 61.6179 23.9765C62.3326 24.5602 62.6576 25.8588 62.6576 27.9357V30.402H57.3912V27.1567C57.3912 26.7675 57.3262 26.5077 57.1961 26.3783C57.0665 26.1835 56.8711 26.1179 56.5458 26.1179C56.2857 26.1179 56.0907 26.1835 55.9608 26.3132C55.8309 26.5077 55.7659 26.7675 55.7659 27.1567V29.9489C55.7659 30.7274 56.351 31.3106 57.4564 31.7657C57.5863 31.8313 57.716 31.8956 57.8461 31.8956L60.4474 32.999C61.2923 33.3244 61.8776 33.7136 62.2029 34.1672C62.5282 34.6223 62.6576 35.4012 62.6576 36.4387V39.7506C62.6576 41.8266 62.3326 43.1903 61.5521 43.7093C60.8372 44.2284 59.1466 44.4895 56.4811 44.4895C54.0102 44.4895 52.3846 44.2284 51.6045 43.7093C50.8895 43.1258 50.499 41.8266 50.499 39.7506V36.634ZM65.5187 16.3814H70.7207V23.3275H72.8008V26.2481H70.7207V40.5291C70.7207 40.918 70.8505 41.1779 71.0455 41.3081C71.2398 41.4382 71.6304 41.5025 72.1507 41.5025H72.8008V44.4236H70.6549C68.6394 44.4236 67.274 44.1641 66.5587 43.6452C65.8434 43.1903 65.5187 41.9568 65.5187 40.1399V26.2481H64.088V23.3275H65.5187V16.3814ZM81.3179 34.6868L80.4083 35.0761C80.1482 35.1409 79.9532 35.3361 79.8228 35.4663C79.693 35.6603 79.6278 35.8556 79.6278 36.1153V36.3749V40.464C79.6278 40.8542 79.6924 41.1779 79.8228 41.3081C79.9532 41.5025 80.2127 41.5676 80.5381 41.5676C80.7983 41.5676 80.9932 41.5025 81.123 41.3731C81.2527 41.1779 81.3179 40.918 81.3179 40.464V34.6868ZM86.5846 27.2869V44.3593H81.3179V43.515C80.8628 43.8392 80.3431 44.0985 79.8228 44.2284C79.2379 44.4236 78.6523 44.4895 78.0674 44.4895C76.702 44.4895 75.7918 44.1641 75.2062 43.515C74.6213 42.8667 74.3612 41.6327 74.3612 39.7506V36.1792C74.3612 35.3361 74.5561 34.6868 74.9467 34.233C75.3366 33.778 75.9867 33.3887 76.897 32.9339L81.3179 31.1166V27.2218C81.3179 26.7675 81.2527 26.5077 81.123 26.3783C80.9932 26.2481 80.733 26.1179 80.4735 26.1179C80.1482 26.1179 79.9532 26.2481 79.8228 26.3783C79.693 26.5722 79.6278 26.8326 79.6278 27.2218V30.402H74.3612V27.2869C74.3612 25.5993 74.7511 24.4959 75.5316 23.9765C76.3767 23.4572 78.0022 23.1973 80.4735 23.1973C82.9442 23.1973 84.6336 23.4572 85.4141 24.0416C86.194 24.5602 86.5846 25.6644 86.5846 27.2869ZM101.409 28.1312V44.3593H96.2076V27.352C96.2076 26.9627 96.1424 26.7024 96.0126 26.5722C95.8822 26.4426 95.6221 26.3783 95.3625 26.3783C95.0372 26.3783 94.8422 26.4426 94.7118 26.5722C94.582 26.7024 94.5175 26.9627 94.5175 27.352V44.3593H89.2502V23.3275H94.5175V24.2356C94.9726 23.9115 95.4271 23.6516 95.9474 23.4572C96.4678 23.2619 96.9881 23.1973 97.5085 23.1973C98.9384 23.1973 99.9791 23.5222 100.564 24.171C101.149 24.8852 101.409 26.1835 101.409 28.1312ZM110.904 27.4171C110.904 26.9627 110.904 26.7024 110.775 26.5722C110.645 26.4426 110.385 26.3783 110.125 26.3783C109.8 26.3783 109.604 26.4426 109.474 26.6378C109.344 26.7675 109.279 27.027 109.279 27.4171V40.3343C109.279 40.659 109.344 40.9839 109.474 41.1141C109.54 41.2434 109.734 41.3081 110.06 41.3081C110.385 41.3081 110.58 41.2434 110.709 41.0482C110.839 40.918 110.904 40.659 110.904 40.3343V27.4171ZM110.904 16.3814H116.17V44.3593H110.904V43.515C110.514 43.7749 110.06 44.0344 109.54 44.2284C109.019 44.3593 108.499 44.4895 107.914 44.4895C106.484 44.4895 105.509 44.0985 104.924 43.4502C104.338 42.8011 104.013 41.5025 104.013 39.5551V28.1312C104.013 26.1835 104.338 24.8852 104.924 24.171C105.509 23.5222 106.549 23.1973 107.979 23.1973C108.499 23.1973 109.019 23.2619 109.54 23.4572C110.06 23.6516 110.514 23.9115 110.904 24.2356V16.3814ZM125.664 34.6868L124.819 35.0761C124.559 35.1409 124.365 35.3361 124.233 35.4663C124.103 35.6603 124.039 35.8556 124.039 36.1153V36.3749V40.464C124.039 40.8542 124.103 41.1779 124.233 41.3081C124.365 41.5025 124.559 41.5676 124.884 41.5676C125.21 41.5676 125.405 41.5025 125.534 41.3731C125.6 41.1779 125.664 40.918 125.664 40.464V34.6868ZM130.995 27.2869V44.3593H125.664V43.515C125.21 43.8392 124.754 44.0985 124.17 44.2284C123.649 44.4236 123.062 44.4895 122.478 44.4895C121.112 44.4895 120.137 44.1641 119.618 43.515C119.033 42.8667 118.772 41.6327 118.772 39.7506V36.1792C118.772 35.3361 118.967 34.6868 119.292 34.233C119.682 33.778 120.332 33.3887 121.308 32.9339L125.664 31.1166V27.2218C125.664 26.7675 125.6 26.5077 125.469 26.3783C125.339 26.2481 125.144 26.1179 124.819 26.1179C124.559 26.1179 124.365 26.2481 124.233 26.3783C124.103 26.5722 124.039 26.8326 124.039 27.2218V30.402H118.772V27.2869C118.772 25.5993 119.162 24.4959 119.942 23.9765C120.722 23.4572 122.347 23.1973 124.819 23.1973C127.355 23.1973 128.98 23.4572 129.76 24.0416C130.605 24.5602 130.995 25.6644 130.995 27.2869ZM145.56 28.1312V31.8956H140.553V27.352C140.553 26.9627 140.489 26.7024 140.358 26.5722C140.229 26.4426 140.034 26.3783 139.707 26.3783C139.448 26.3783 139.254 26.4426 139.123 26.5722C138.993 26.7024 138.929 26.9627 138.929 27.352V44.3593H133.662V23.3275H138.929V24.2356C139.318 23.9115 139.773 23.6516 140.294 23.4572C140.813 23.2619 141.334 23.1973 141.788 23.1973C143.154 23.1973 144.128 23.5222 144.715 24.2356C145.299 24.8852 145.56 26.1835 145.56 28.1312ZM147.836 12.4541H153.037V16.3814H198.03V19.3025H153.037V40.5291C153.037 40.918 153.167 41.1779 153.36 41.3081C153.556 41.4382 153.946 41.5025 154.469 41.5025H155.118V44.4236H152.972C150.957 44.4236 149.589 44.1641 148.875 43.6452C148.161 43.1903 147.836 41.9568 147.836 40.1399V19.3025H119.041V16.3814H147.836V12.4541ZM169.163 28.1312V39.5551C169.163 41.4382 168.901 42.7366 168.317 43.4502C167.732 44.1641 166.755 44.4895 165.391 44.4895C164.806 44.4895 164.221 44.4236 163.7 44.2284C163.181 44.0344 162.725 43.8392 162.27 43.4502V48.7756H157.004V23.3275H162.27V24.2356C162.725 23.9115 163.181 23.6516 163.7 23.4572C164.221 23.2619 164.741 23.1973 165.26 23.1973C166.692 23.1973 167.668 23.5222 168.251 24.171C168.901 24.8852 169.163 26.1835 169.163 28.1312ZM163.894 27.4171C163.894 27.2869 163.894 27.2218 163.894 27.1567C163.894 27.027 163.894 26.9627 163.894 26.9627C163.894 26.8326 163.83 26.7024 163.635 26.5722C163.506 26.4426 163.376 26.3783 163.116 26.3783C162.79 26.3783 162.593 26.4426 162.465 26.6378C162.335 26.7675 162.27 27.027 162.27 27.4171V40.2697C162.27 40.659 162.335 40.918 162.465 41.1141C162.593 41.2434 162.79 41.3081 163.116 41.3081C163.376 41.3081 163.571 41.2434 163.765 41.0482C163.83 40.918 163.894 40.659 163.894 40.2697V27.4171ZM178.395 34.6868L177.482 35.0761C177.224 35.1409 177.029 35.3361 176.898 35.4663C176.77 35.6603 176.704 35.8556 176.704 36.1153V36.3749V40.464C176.704 40.8542 176.77 41.1779 176.898 41.3081C177.029 41.5025 177.288 41.5676 177.615 41.5676C177.874 41.5676 178.07 41.5025 178.2 41.3731C178.328 41.1779 178.395 40.918 178.395 40.464V34.6868ZM183.661 27.2869V44.3593H178.395V43.515C177.939 43.8392 177.419 44.0985 176.898 44.2284C176.313 44.4236 175.794 44.4895 175.143 44.4895C173.843 44.4895 172.867 44.1641 172.284 43.515C171.762 42.8667 171.438 41.6327 171.438 39.7506V36.1792C171.438 35.3361 171.632 34.6868 172.023 34.233C172.413 33.778 173.062 33.3887 173.972 32.9339L178.395 31.1166V27.2218C178.395 26.7675 178.328 26.5077 178.2 26.3783C178.07 26.2481 177.874 26.1179 177.55 26.1179C177.224 26.1179 177.029 26.2481 176.898 26.3783C176.77 26.5722 176.704 26.8326 176.704 27.2218V30.402H171.438V27.2869C171.438 25.5993 171.827 24.4959 172.673 23.9765C173.453 23.4572 175.078 23.1973 177.55 23.1973C180.019 23.1973 181.71 23.4572 182.49 24.0416C183.271 24.5602 183.661 25.6644 183.661 27.2869ZM198.29 28.1312V31.8956H193.285V27.352C193.285 26.9627 193.218 26.7024 193.09 26.5722C192.959 26.4426 192.763 26.3783 192.439 26.3783C192.114 26.3783 191.918 26.4426 191.787 26.5722C191.659 26.7024 191.592 26.9627 191.592 27.352V44.3593H186.391V23.3275H191.592V24.2356C192.049 23.9115 192.504 23.6516 193.023 23.4572C193.544 23.2619 193.998 23.1973 194.519 23.1973C195.884 23.1973 196.861 23.5222 197.379 24.2356C197.965 24.8852 198.29 26.1835 198.29 28.1312ZM200.306 16.3814H205.248V30.9873H205.508L207.589 23.3275H212.53L209.734 32.5447L213.179 44.3593H207.784L205.508 34.4263H205.248V44.3593H200.306V16.3814Z" fill="#006946"/>
<path d="M3.73154 59.8147V58.0051C3.73154 57.6899 3.79318 57.1488 3.91645 56.3819C4.03897 55.6149 4.10596 55.181 4.11793 55.0815H4.10596L2.30593 59.8147H0.275391V52.0378H2.27052V53.9648C2.27052 54.2078 2.2555 54.4536 2.22595 54.7012C2.1964 54.9487 2.14801 55.3181 2.08026 55.8101C2.012 56.2994 1.97073 56.6715 1.95443 56.9217H1.96641L3.73154 52.0378H5.72667V59.8147H3.73154Z" fill="#393536"/>
<path d="M9.03899 56.5324V59.8147H6.94629V52.0378H9.03899V54.973H10.4055V52.0378H12.4987V59.8147H10.4055V56.5324H9.03899Z" fill="#393536"/>
<path d="M17.0677 58.0153L16.4982 57.1162L15.5448 59.8147H13.3311L15.2646 55.4822L13.3311 52.0378H15.5916L17.0677 55.1465V52.0378H19.0628V55.1465L20.5353 52.0378H22.8083L20.8751 55.472L22.8083 59.8147H20.5982L19.6418 57.1067L19.0628 58.0268V59.8147H17.0677V58.0153Z" fill="#393536"/>
<path d="M23.4727 59.8147V52.0378H28.3337V53.51H25.565V55.0151H28.1295V56.4878H25.565V58.342H28.3337V59.8147H23.4727Z" fill="#393536"/>
<path d="M31.4533 56.5324V59.8147H29.3604V52.0378H31.4533V54.973H32.8193V52.0378H34.9125V59.8147H32.8193V56.5324H31.4533Z" fill="#393536"/>
<path d="M36.2139 59.8147V52.0378H41.0749V53.51H38.3062V55.0151H40.8712V56.4878H38.3062V58.342H41.0749V59.8147H36.2139Z" fill="#393536"/>
<path d="M44.1949 55.3852H44.5701C45.2314 55.3852 45.5617 55.0526 45.5617 54.3872C45.5617 54.0286 45.4743 53.7793 45.3011 53.6412C45.1264 53.5021 44.8712 53.4326 44.5347 53.4326H44.1949V55.3852ZM42.1025 59.8147V52.0378H45.1381C45.6015 52.0378 46.0197 52.1029 46.3933 52.2318C46.7675 52.3632 47.0747 52.6044 47.3162 52.9574C47.5571 53.3101 47.6778 53.7938 47.6778 54.4089C47.6778 55.0062 47.5583 55.4822 47.3197 55.8369C47.0805 56.1917 46.7726 56.4372 46.3956 56.5753C46.0186 56.7124 45.6004 56.78 45.1399 56.78H44.1949V59.8147H42.1025Z" fill="#393536"/>
<path d="M50.7125 56.5324V59.8147H48.6201V52.0378H50.7125V54.973H52.0791V52.0378H54.1717V59.8147H52.0791V56.5324H50.7125Z" fill="#393536"/>
<path d="M58.1587 53.2862C57.9577 53.2862 57.7871 53.3423 57.6457 53.4534C57.5041 53.5656 57.4335 53.7264 57.4335 53.935V57.8765C57.4335 58.0935 57.5056 58.2632 57.6497 58.3849C57.7944 58.5074 57.9638 58.5695 58.1587 58.5695C58.3487 58.5695 58.5168 58.5074 58.6627 58.3836C58.8097 58.2606 58.8825 58.0914 58.8825 57.8765V53.935C58.8825 53.7277 58.8107 53.5682 58.6663 53.4546C58.5213 53.3423 58.3523 53.2862 58.1587 53.2862ZM55.3408 54.0519C55.3408 53.6307 55.4417 53.2555 55.6434 52.9276C55.8451 52.5983 56.1584 52.3393 56.5838 52.1491C57.0092 51.9602 57.5379 51.865 58.1696 51.865C58.8015 51.865 59.3283 51.9615 59.7486 52.1529C60.1688 52.3457 60.4783 52.6072 60.6772 52.9391C60.8759 53.2696 60.975 53.6453 60.975 54.0633V57.5511C60.975 58.3449 60.746 58.949 60.2872 59.365C59.8288 59.781 59.1191 59.9885 58.1587 59.9885C56.2796 59.9885 55.3408 59.1769 55.3408 57.5511V54.0519Z" fill="#393536"/>
<path d="M62.0996 59.8147V52.0378H66.9609V53.51H64.1926V55.0151H66.7574V56.4878H64.1926V58.342H66.9609V59.8147H62.0996Z" fill="#393536"/>
<path d="M73.84 53.2862C73.6398 53.2862 73.469 53.3423 73.3281 53.4534C73.186 53.5656 73.1156 53.7264 73.1156 53.935V57.8765C73.1156 58.0935 73.1879 58.2632 73.3314 58.3849C73.4761 58.5074 73.6457 58.5695 73.84 58.5695C74.0304 58.5695 74.1993 58.5074 74.3447 58.3836C74.4914 58.2606 74.5651 58.0914 74.5651 57.8765V53.935C74.5651 53.7277 74.492 53.5682 74.3479 53.4546C74.2038 53.3423 74.0343 53.2862 73.84 53.2862ZM71.0225 54.0519C71.0225 53.6307 71.1242 53.2555 71.3257 52.9276C71.5272 52.5983 71.8401 52.3393 72.2659 52.1491C72.6911 51.9602 73.2192 51.865 73.8511 51.865C74.4836 51.865 75.0104 51.9615 75.4304 52.1529C75.8503 52.3457 76.16 52.6072 76.3589 52.9391C76.5578 53.2696 76.6575 53.6453 76.6575 54.0633V57.5511C76.6575 58.3449 76.4273 58.949 75.969 59.365C75.5106 59.781 74.8011 59.9885 73.84 59.9885C71.9614 59.9885 71.0225 59.1769 71.0225 57.5511V54.0519Z" fill="#393536"/>
<path d="M79.874 58.4148H80.2137C80.5456 58.4148 80.7999 58.3459 80.9766 58.2093C81.1527 58.0702 81.2401 57.8206 81.2401 57.4615C81.2401 56.7979 80.9101 56.4674 80.2483 56.4674H79.874V58.4148ZM82.5096 52.0378V53.4326H79.874V55.0674H80.8182C81.5504 55.0674 82.1562 55.2448 82.6361 55.5957C83.1167 55.9492 83.3566 56.5643 83.3566 57.4411C83.3566 58.06 83.236 58.5462 82.9947 58.8972C82.7541 59.2494 82.4457 59.4906 82.0727 59.6195C81.6985 59.7496 81.2805 59.8147 80.8182 59.8147H77.7842V52.0378H82.5096Z" fill="#393536"/>
<path d="M90.2145 52.0378L88.3516 58.0268C88.1925 58.5398 88.0191 58.9291 87.8319 59.1945C87.6448 59.4599 87.4055 59.6437 87.1134 59.7471C86.8212 59.8504 86.4241 59.9015 85.9227 59.9015C85.4011 59.9015 85.0509 59.8339 84.8716 59.696V58.3732C84.974 58.4097 85.1468 58.4288 85.3913 58.4288C85.6547 58.4288 85.8203 58.342 85.8868 58.1672L83.9268 52.0378H86.1144L86.9021 55.4273C86.9262 55.537 86.9464 55.7616 86.9627 56.1036C86.9797 56.4436 86.996 56.7519 87.0116 57.0301H87.0351C87.1023 56.244 87.1694 55.7093 87.2386 55.4273L88.0504 52.0378H90.2145Z" fill="#393536"/>
<path d="M94.263 56.7394H96.3555V57.4643C96.3555 58.3435 96.1272 58.9867 95.6708 59.3925C95.2137 59.7971 94.4984 60 93.5236 60C92.882 60 92.3519 59.9119 91.9332 59.7346C91.5153 59.5597 91.2036 59.2815 91.0001 58.9063C90.7967 58.5299 90.6943 58.0449 90.6943 57.4528V54.0633C90.6943 53.6452 90.7948 53.2695 90.9956 52.9377C91.1958 52.6046 91.51 52.3443 91.9365 52.1516C92.3623 51.9615 92.8918 51.865 93.5236 51.865C94.1541 51.865 94.681 51.9627 95.1048 52.1567C95.5293 52.3507 95.8436 52.6149 96.0483 52.9498C96.2531 53.2861 96.3555 53.6606 96.3555 54.0753V54.7787H94.263V53.9038C94.263 53.7136 94.1828 53.5656 94.0237 53.4559C93.8646 53.35 93.6905 53.2951 93.5014 53.2951C93.3045 53.2951 93.1363 53.3449 92.9967 53.4431C92.8572 53.5401 92.7868 53.683 92.7868 53.8693V57.7476C92.7868 58.3014 93.0254 58.5796 93.5014 58.5796C94.0094 58.5796 94.263 58.3091 94.263 57.768V56.7394Z" fill="#393536"/>
<path d="M98.7024 59.8147V53.5973H97.0586V52.0378H102.158V53.5973H100.623V59.8147H98.7024Z" fill="#393536"/>
<path d="M105.072 55.3852H105.447C106.108 55.3852 106.439 55.0526 106.439 54.3872C106.439 54.0286 106.352 53.7793 106.177 53.6412C106.003 53.5021 105.748 53.4326 105.412 53.4326H105.072V55.3852ZM102.979 59.8147V52.0378H106.015C106.478 52.0378 106.897 52.1029 107.271 52.2318C107.644 52.3632 107.952 52.6044 108.193 52.9574C108.434 53.3101 108.555 53.7938 108.555 54.4089C108.555 55.0062 108.435 55.4822 108.197 55.8369C107.957 56.1917 107.649 56.4372 107.273 56.5753C106.896 56.7124 106.477 56.78 106.017 56.78H105.072V59.8147H102.979Z" fill="#393536"/>
<path d="M112.181 53.2862C111.982 53.2862 111.81 53.3423 111.669 53.4534C111.528 53.5656 111.457 53.7264 111.457 53.935V57.8765C111.457 58.0935 111.529 58.2632 111.674 58.3849C111.817 58.5074 111.987 58.5695 112.181 58.5695C112.372 58.5695 112.541 58.5074 112.686 58.3836C112.833 58.2606 112.906 58.0914 112.906 57.8765V53.935C112.906 53.7277 112.833 53.5682 112.689 53.4546C112.545 53.3423 112.376 53.2862 112.181 53.2862ZM109.364 54.0519C109.364 53.6307 109.465 53.2555 109.667 52.9276C109.869 52.5983 110.183 52.3393 110.608 52.1491C111.032 51.9602 111.562 51.865 112.193 51.865C112.826 51.865 113.352 51.9615 113.771 52.1529C114.192 52.3457 114.502 52.6072 114.7 52.9391C114.9 53.2696 114.999 53.6453 114.999 54.0633V57.5511C114.999 58.3449 114.769 58.949 114.311 59.365C113.852 59.781 113.143 59.9885 112.181 59.9885C110.303 59.9885 109.364 59.1769 109.364 57.5511V54.0519Z" fill="#393536"/>
<path d="M118.844 51.5824C119.174 51.5824 119.48 51.5301 119.759 51.425C120.04 51.3195 120.265 51.1618 120.437 50.9507C120.609 50.7389 120.696 50.4836 120.696 50.1858H119.922C119.851 50.4097 119.734 50.5577 119.573 50.6304C119.412 50.7032 119.185 50.7389 118.894 50.7389C118.222 50.7389 117.863 50.5551 117.818 50.1858H117.02C117.075 51.1179 117.683 51.5824 118.844 51.5824ZM119.583 59.8149V58.0053C119.583 57.6901 119.643 57.149 119.766 56.3821C119.89 55.6151 119.958 55.1812 119.969 55.0817H119.958L118.157 59.8149H116.126V52.038H118.121V53.965C118.121 54.208 118.106 54.4538 118.078 54.7014C118.047 54.9489 117.998 55.3183 117.931 55.8103C117.863 56.2996 117.821 56.6717 117.806 56.9219H117.818L119.583 52.038H121.578V59.8149H119.583Z" fill="#393536"/>
<path d="M126.168 56.7394H128.262V57.4643C128.262 58.3435 128.033 58.9867 127.577 59.3925C127.12 59.7971 126.404 60 125.43 60C124.788 60 124.258 59.9119 123.839 59.7346C123.421 59.5597 123.11 59.2815 122.906 58.9063C122.703 58.5299 122.6 58.0449 122.6 57.4528V54.0633C122.6 53.6452 122.702 53.2695 122.902 52.9377C123.103 52.6046 123.416 52.3443 123.842 52.1516C124.268 51.9615 124.798 51.865 125.43 51.865C126.06 51.865 126.588 51.9627 127.01 52.1567C127.436 52.3507 127.75 52.6149 127.955 52.9498C128.159 53.2861 128.262 53.6606 128.262 54.0753V54.7787H126.168V53.9038C126.168 53.7136 126.089 53.5656 125.93 53.4559C125.771 53.35 125.596 53.2951 125.407 53.2951C125.21 53.2951 125.042 53.3449 124.903 53.4431C124.762 53.5401 124.692 53.683 124.692 53.8693V57.7476C124.692 58.3014 124.931 58.5796 125.407 58.5796C125.915 58.5796 126.168 58.3091 126.168 57.768V56.7394Z" fill="#393536"/>
<path d="M130.608 59.8147V53.5973H128.965V52.0378H134.065V53.5973H132.53V59.8147H130.608Z" fill="#393536"/>
<path d="M136.919 56.4449V58.4173H137.391C137.777 58.4173 138.043 58.3459 138.188 58.2004C138.333 58.0549 138.406 57.8022 138.406 57.4423C138.406 57.1016 138.333 56.8507 138.188 56.6894C138.043 56.5273 137.793 56.4449 137.438 56.4449H136.919ZM136.919 53.4326V55.0488H137.537C137.828 55.0488 138.039 54.9781 138.166 54.839C138.293 54.6973 138.356 54.472 138.356 54.1601C138.356 53.6751 138.083 53.4326 137.537 53.4326H136.919ZM137.814 59.8147H134.9V52.0378H138.236C138.598 52.0378 138.941 52.1055 139.267 52.242C139.593 52.3798 139.859 52.593 140.066 52.8877C140.272 53.1813 140.376 53.5475 140.376 53.9865C140.376 54.4651 140.251 54.8441 139.999 55.1261C139.748 55.4081 139.478 55.5766 139.192 55.634C139.62 55.7935 139.939 56.0174 140.149 56.3066C140.356 56.595 140.46 56.9987 140.46 57.5189C140.46 58.2545 140.237 58.8206 139.793 59.218C139.346 59.6156 138.686 59.8147 137.814 59.8147Z" fill="#393536"/>
<path d="M144.098 53.2862C143.899 53.2862 143.727 53.3423 143.586 53.4534C143.444 53.5656 143.374 53.7264 143.374 53.935V57.8765C143.374 58.0935 143.445 58.2632 143.591 58.3849C143.735 58.5074 143.904 58.5695 144.098 58.5695C144.288 58.5695 144.458 58.5074 144.603 58.3836C144.75 58.2606 144.824 58.0914 144.824 57.8765V53.935C144.824 53.7277 144.752 53.5682 144.606 53.4546C144.462 53.3423 144.293 53.2862 144.098 53.2862ZM141.28 54.0519C141.28 53.6307 141.382 53.2555 141.585 52.9276C141.785 52.5983 142.099 52.3393 142.524 52.1491C142.95 51.9602 143.479 51.865 144.111 51.865C144.743 51.865 145.268 51.9615 145.689 52.1529C146.109 52.3457 146.419 52.6072 146.617 52.9391C146.817 53.2696 146.916 53.6453 146.916 54.0633V57.5511C146.916 58.3449 146.686 58.949 146.227 59.365C145.77 59.781 145.059 59.9885 144.098 59.9885C142.22 59.9885 141.28 59.1769 141.28 57.5511V54.0519Z" fill="#393536"/>
<path d="M152.445 59.8147V53.5973H150.801V52.0378H155.901V53.5973H154.366V59.8147H152.445Z" fill="#393536"/>
<path d="M156.722 59.8147V52.0378H161.583V53.51H158.814V55.0151H161.379V56.4878H158.814V58.342H161.583V59.8147H156.722Z" fill="#393536"/>
<path d="M164.702 55.3852H165.076C165.738 55.3852 166.07 55.0526 166.07 54.3872C166.07 54.0286 165.982 53.7793 165.807 53.6412C165.634 53.5021 165.378 53.4326 165.041 53.4326H164.702V55.3852ZM162.61 59.8147V52.0378H165.646C166.108 52.0378 166.526 52.1029 166.9 52.2318C167.275 52.3632 167.582 52.6044 167.824 52.9574C168.065 53.3101 168.185 53.7938 168.185 54.4089C168.185 55.0062 168.067 55.4822 167.826 55.8369C167.588 56.1917 167.28 56.4372 166.903 56.5753C166.526 56.7124 166.107 56.78 165.647 56.78H164.702V59.8147H162.61Z" fill="#393536"/>
<path d="M171.22 55.3852H171.595C172.256 55.3852 172.588 55.0526 172.588 54.3872C172.588 54.0286 172.5 53.7793 172.326 53.6412C172.152 53.5021 171.896 53.4326 171.559 53.4326H171.22V55.3852ZM169.128 59.8147V52.0378H172.164C172.626 52.0378 173.045 52.1029 173.418 52.2318C173.792 52.3632 174.1 52.6044 174.341 52.9574C174.582 53.3101 174.704 53.7938 174.704 54.4089C174.704 55.0062 174.584 55.4822 174.345 55.8369C174.106 56.1917 173.797 56.4372 173.421 56.5753C173.044 56.7124 172.626 56.78 172.165 56.78H171.22V59.8147H169.128Z" fill="#393536"/>
<path d="M179.104 59.8147V58.0051C179.104 57.6899 179.165 57.1488 179.289 56.3819C179.411 55.6149 179.478 55.181 179.491 55.0815H179.478L177.677 59.8147H175.647V52.0378H177.643V53.9648C177.643 54.2078 177.628 54.4536 177.598 54.7012C177.568 54.9487 177.52 55.3181 177.452 55.8101C177.385 56.2994 177.343 56.6715 177.327 56.9217H177.338L179.104 52.0378H181.098V59.8147H179.104Z" fill="#393536"/>
<path d="M183.554 59.8147V53.5973H181.91V52.0378H187.011V53.5973H185.476V59.8147H183.554Z" fill="#393536"/>
<path d="M190.515 53.2862C190.314 53.2862 190.143 53.3423 190.002 53.4534C189.862 53.5656 189.79 53.7264 189.79 53.935V57.8765C189.79 58.0935 189.862 58.2632 190.007 58.3849C190.151 58.5074 190.32 58.5695 190.515 58.5695C190.705 58.5695 190.874 58.5074 191.02 58.3836C191.167 58.2606 191.24 58.0914 191.24 57.8765V53.935C191.24 53.7277 191.168 53.5682 191.023 53.4546C190.879 53.3423 190.709 53.2862 190.515 53.2862ZM187.697 54.0519C187.697 53.6307 187.799 53.2555 188.001 52.9276C188.203 52.5983 188.515 52.3393 188.941 52.1491C189.367 51.9602 189.895 51.865 190.527 51.865C191.159 51.865 191.686 51.9615 192.106 52.1529C192.526 52.3457 192.835 52.6072 193.034 52.9391C193.233 53.2696 193.332 53.6453 193.332 54.0633V57.5511C193.332 58.3449 193.103 58.949 192.644 59.365C192.186 59.781 191.475 59.9885 190.515 59.9885C188.637 59.9885 187.697 59.1769 187.697 57.5511V54.0519Z" fill="#393536"/>
<path d="M196.55 55.3852H196.925C197.587 55.3852 197.917 55.0526 197.917 54.3872C197.917 54.0286 197.83 53.7793 197.656 53.6412C197.481 53.5021 197.227 53.4326 196.89 53.4326H196.55V55.3852ZM194.458 59.8147V52.0378H197.493C197.956 52.0378 198.374 52.1029 198.749 52.2318C199.123 52.3632 199.43 52.6044 199.672 52.9574C199.912 53.3101 200.032 53.7938 200.032 54.4089C200.032 55.0062 199.914 55.4822 199.674 55.8369C199.434 56.1917 199.128 56.4372 198.751 56.5753C198.374 56.7124 197.955 56.78 197.494 56.78H196.55V59.8147H194.458Z" fill="#393536"/>
<path d="M204.433 59.8147V58.0051C204.433 57.6899 204.495 57.1488 204.619 56.3819C204.742 55.6149 204.809 55.181 204.82 55.0815H204.809L203.008 59.8147H200.979V52.0378H202.973V53.9648C202.973 54.2078 202.959 54.4536 202.929 54.7012C202.899 54.9487 202.85 55.3181 202.783 55.8101C202.716 56.2994 202.672 56.6715 202.658 56.9217H202.669L204.433 52.0378H206.429V59.8147H204.433Z" fill="#393536"/>
<path d="M211.107 59.8147V58.0051C211.107 57.6899 211.169 57.1488 211.292 56.3819C211.415 55.6149 211.483 55.181 211.494 55.0815H211.483L209.682 59.8147H207.65V52.0378H209.647V53.9648C209.647 54.2078 209.632 54.4536 209.603 54.7012C209.572 54.9487 209.523 55.3181 209.457 55.8101C209.388 56.2994 209.346 56.6715 209.33 56.9217H209.342L211.107 52.0378H213.102V59.8147H211.107Z" fill="#393536"/>
</g>
<defs>
<clipPath id="clip0">
<rect width="220" height="60" fill="white"/>
</clipPath>
</defs>
</svg>
