<svg width="1088" height="532" viewBox="0 0 1088 532" fill="none" xmlns="http://www.w3.org/2000/svg">
<line y1="505" x2="1088" y2="505" stroke="black" stroke-width="2"/>
<line y1="469" x2="1088" y2="469" stroke="#CECECE" stroke-width="2"/>
<line y1="451.5" x2="1088" y2="451.5" stroke="#DDDDDD"/>
<line y1="379.5" x2="1088" y2="379.5" stroke="#DDDDDD"/>
<line y1="307.5" x2="1088" y2="307.5" stroke="#DDDDDD"/>
<line y1="235.5" x2="1088" y2="235.5" stroke="#DDDDDD"/>
<line y1="163.5" x2="1088" y2="163.5" stroke="#DDDDDD"/>
<line y1="91.5" x2="1088" y2="91.5" stroke="#DDDDDD"/>
<line y1="19.5" x2="1088" y2="19.5" stroke="#DDDDDD"/>
<line y1="415.5" x2="1088" y2="415.5" stroke="#DDDDDD"/>
<line y1="343.5" x2="1088" y2="343.5" stroke="#DDDDDD"/>
<line y1="271.5" x2="1088" y2="271.5" stroke="#DDDDDD"/>
<line y1="199.5" x2="1088" y2="199.5" stroke="#DDDDDD"/>
<line y1="127.5" x2="1088" y2="127.5" stroke="#DDDDDD"/>
<line y1="55.5" x2="1088" y2="55.5" stroke="#DDDDDD"/>
<line y1="433" x2="1088" y2="433" stroke="#CECECE" stroke-width="2"/>
<line y1="397" x2="1088" y2="397" stroke="#CECECE" stroke-width="2"/>
<line y1="361" x2="1088" y2="361" stroke="#CECECE" stroke-width="2"/>
<line y1="325" x2="1088" y2="325" stroke="#CECECE" stroke-width="2"/>
<line y1="289" x2="1088" y2="289" stroke="#CECECE" stroke-width="2"/>
<line y1="253" x2="1088" y2="253" stroke="#CECECE" stroke-width="2"/>
<line y1="217" x2="1088" y2="217" stroke="#CECECE" stroke-width="2"/>
<line y1="181" x2="1088" y2="181" stroke="#CECECE" stroke-width="2"/>
<line y1="145" x2="1088" y2="145" stroke="#CECECE" stroke-width="2"/>
<line y1="109" x2="1088" y2="109" stroke="#CECECE" stroke-width="2"/>
<line y1="73" x2="1088" y2="73" stroke="#CECECE" stroke-width="2"/>
<line y1="37" x2="1088" y2="37" stroke="#CECECE" stroke-width="2"/>
<line y1="1" x2="1088" y2="1" stroke="#CECECE" stroke-width="2"/>
<path d="M424.709 529H423.232V521.664H419.477V529H418V520.469H424.709V529ZM426.098 525.771C426.098 525.15 426.221 524.592 426.467 524.096C426.713 523.596 427.059 523.213 427.504 522.947C427.949 522.678 428.461 522.543 429.039 522.543C429.895 522.543 430.588 522.818 431.119 523.369C431.654 523.92 431.943 524.65 431.986 525.561L431.992 525.895C431.992 526.52 431.871 527.078 431.629 527.57C431.391 528.062 431.047 528.443 430.598 528.713C430.152 528.982 429.637 529.117 429.051 529.117C428.156 529.117 427.439 528.82 426.9 528.227C426.365 527.629 426.098 526.834 426.098 525.842V525.771ZM427.521 525.895C427.521 526.547 427.656 527.059 427.926 527.43C428.195 527.797 428.57 527.98 429.051 527.98C429.531 527.98 429.904 527.793 430.17 527.418C430.439 527.043 430.574 526.494 430.574 525.771C430.574 525.131 430.436 524.623 430.158 524.248C429.885 523.873 429.512 523.686 429.039 523.686C428.574 523.686 428.205 523.871 427.932 524.242C427.658 524.609 427.521 525.16 427.521 525.895ZM432.801 527.863C433.195 527.422 433.459 527.004 433.592 526.609C433.729 526.211 433.811 525.703 433.838 525.086L433.92 522.66H438.32V527.863H439.199V530.887H437.781V529H433.715V530.887H432.273L432.279 527.863H432.801ZM434.471 527.863H436.902V523.885H435.303L435.262 525.098C435.207 526.262 434.943 527.184 434.471 527.863ZM443.201 523.012C443.998 523.012 444.637 523.279 445.117 523.814C445.598 524.346 445.838 525.068 445.838 525.982V526.053C445.838 526.967 445.576 527.707 445.053 528.273C444.533 528.84 443.826 529.123 442.932 529.123C442.061 529.123 441.357 528.834 440.822 528.256C440.287 527.678 440.02 526.889 440.02 525.889V525.479C440.02 524.111 440.262 523.029 440.746 522.232C441.23 521.436 441.953 520.938 442.914 520.738C443.453 520.629 443.801 520.514 443.957 520.393C444.117 520.268 444.197 520.1 444.197 519.889H445.346C445.346 520.283 445.281 520.604 445.152 520.85C445.023 521.096 444.826 521.297 444.561 521.453C444.295 521.605 443.838 521.75 443.189 521.887C442.596 522.012 442.143 522.234 441.83 522.555C441.521 522.875 441.314 523.318 441.209 523.885C441.775 523.303 442.439 523.012 443.201 523.012ZM442.92 524.154C442.459 524.154 442.098 524.311 441.836 524.623C441.574 524.932 441.443 525.408 441.443 526.053C441.443 526.662 441.572 527.137 441.83 527.477C442.088 527.816 442.455 527.986 442.932 527.986C443.404 527.986 443.77 527.816 444.027 527.477C444.289 527.133 444.42 526.617 444.42 525.93C444.42 525.383 444.289 524.951 444.027 524.635C443.77 524.314 443.4 524.154 442.92 524.154ZM446.688 525.771C446.688 525.15 446.811 524.592 447.057 524.096C447.303 523.596 447.648 523.213 448.094 522.947C448.539 522.678 449.051 522.543 449.629 522.543C450.484 522.543 451.178 522.818 451.709 523.369C452.244 523.92 452.533 524.65 452.576 525.561L452.582 525.895C452.582 526.52 452.461 527.078 452.219 527.57C451.98 528.062 451.637 528.443 451.188 528.713C450.742 528.982 450.227 529.117 449.641 529.117C448.746 529.117 448.029 528.82 447.49 528.227C446.955 527.629 446.688 526.834 446.688 525.842V525.771ZM448.111 525.895C448.111 526.547 448.246 527.059 448.516 527.43C448.785 527.797 449.16 527.98 449.641 527.98C450.121 527.98 450.494 527.793 450.76 527.418C451.029 527.043 451.164 526.494 451.164 525.771C451.164 525.131 451.025 524.623 450.748 524.248C450.475 523.873 450.102 523.686 449.629 523.686C449.164 523.686 448.795 523.871 448.521 524.242C448.248 524.609 448.111 525.16 448.111 525.895ZM459.338 525.895C459.338 526.875 459.115 527.658 458.67 528.244C458.225 528.826 457.627 529.117 456.877 529.117C456.182 529.117 455.625 528.889 455.207 528.432V531.438H453.783V522.66H455.096L455.154 523.305C455.572 522.797 456.141 522.543 456.859 522.543C457.633 522.543 458.238 522.832 458.676 523.41C459.117 523.984 459.338 524.783 459.338 525.807V525.895ZM457.92 525.771C457.92 525.139 457.793 524.637 457.539 524.266C457.289 523.895 456.93 523.709 456.461 523.709C455.879 523.709 455.461 523.949 455.207 524.43V527.242C455.465 527.734 455.887 527.98 456.473 527.98C456.926 527.98 457.279 527.799 457.533 527.436C457.791 527.068 457.92 526.514 457.92 525.771ZM468.924 522.66V529H467.5V523.809H465.707L465.59 526.018C465.516 527.08 465.311 527.844 464.975 528.309C464.643 528.77 464.133 529 463.445 529H463.006L463 527.816L463.293 527.787C463.605 527.744 463.832 527.555 463.973 527.219C464.117 526.879 464.209 526.262 464.248 525.367L464.365 522.66H468.924ZM470.172 525.771C470.172 525.15 470.295 524.592 470.541 524.096C470.787 523.596 471.133 523.213 471.578 522.947C472.023 522.678 472.535 522.543 473.113 522.543C473.969 522.543 474.662 522.818 475.193 523.369C475.729 523.92 476.018 524.65 476.061 525.561L476.066 525.895C476.066 526.52 475.945 527.078 475.703 527.57C475.465 528.062 475.121 528.443 474.672 528.713C474.227 528.982 473.711 529.117 473.125 529.117C472.23 529.117 471.514 528.82 470.975 528.227C470.439 527.629 470.172 526.834 470.172 525.842V525.771ZM471.596 525.895C471.596 526.547 471.73 527.059 472 527.43C472.27 527.797 472.645 527.98 473.125 527.98C473.605 527.98 473.979 527.793 474.244 527.418C474.514 527.043 474.648 526.494 474.648 525.771C474.648 525.131 474.51 524.623 474.232 524.248C473.959 523.873 473.586 523.686 473.113 523.686C472.648 523.686 472.279 523.871 472.006 524.242C471.732 524.609 471.596 525.16 471.596 525.895ZM482.084 523.791H480.027V529H478.604V523.791H476.57V522.66H482.084V523.791ZM485.289 526.492H484.568V529H483.145V522.66H484.568V525.191H485.195L486.947 522.66H488.705L486.414 525.695L488.898 529H487.047L485.289 526.492ZM493.469 529C493.406 528.879 493.352 528.682 493.305 528.408C492.852 528.881 492.297 529.117 491.641 529.117C491.004 529.117 490.484 528.936 490.082 528.572C489.68 528.209 489.479 527.76 489.479 527.225C489.479 526.549 489.729 526.031 490.229 525.672C490.732 525.309 491.451 525.127 492.385 525.127H493.258V524.711C493.258 524.383 493.166 524.121 492.982 523.926C492.799 523.727 492.52 523.627 492.145 523.627C491.82 523.627 491.555 523.709 491.348 523.873C491.141 524.033 491.037 524.238 491.037 524.488H489.613C489.613 524.141 489.729 523.816 489.959 523.516C490.189 523.211 490.502 522.973 490.896 522.801C491.295 522.629 491.738 522.543 492.227 522.543C492.969 522.543 493.561 522.73 494.002 523.105C494.443 523.477 494.67 524 494.682 524.676V527.535C494.682 528.105 494.762 528.561 494.922 528.9V529H493.469ZM491.904 527.975C492.186 527.975 492.449 527.906 492.695 527.77C492.945 527.633 493.133 527.449 493.258 527.219V526.023H492.49C491.963 526.023 491.566 526.115 491.301 526.299C491.035 526.482 490.902 526.742 490.902 527.078C490.902 527.352 490.992 527.57 491.172 527.734C491.355 527.895 491.6 527.975 491.904 527.975ZM504.537 529H503.113V523.809H500.641V529H499.217V522.66H504.537V529ZM505.785 525.771C505.785 525.15 505.908 524.592 506.154 524.096C506.4 523.596 506.746 523.213 507.191 522.947C507.637 522.678 508.148 522.543 508.727 522.543C509.582 522.543 510.275 522.818 510.807 523.369C511.342 523.92 511.631 524.65 511.674 525.561L511.68 525.895C511.68 526.52 511.559 527.078 511.316 527.57C511.078 528.062 510.734 528.443 510.285 528.713C509.84 528.982 509.324 529.117 508.738 529.117C507.844 529.117 507.127 528.82 506.588 528.227C506.053 527.629 505.785 526.834 505.785 525.842V525.771ZM507.209 525.895C507.209 526.547 507.344 527.059 507.613 527.43C507.883 527.797 508.258 527.98 508.738 527.98C509.219 527.98 509.592 527.793 509.857 527.418C510.127 527.043 510.262 526.494 510.262 525.771C510.262 525.131 510.123 524.623 509.846 524.248C509.572 523.873 509.199 523.686 508.727 523.686C508.262 523.686 507.893 523.871 507.619 524.242C507.346 524.609 507.209 525.16 507.209 525.895ZM521.424 525.895C521.424 526.875 521.201 527.658 520.756 528.244C520.311 528.826 519.713 529.117 518.963 529.117C518.268 529.117 517.711 528.889 517.293 528.432V531.438H515.869V522.66H517.182L517.24 523.305C517.658 522.797 518.227 522.543 518.945 522.543C519.719 522.543 520.324 522.832 520.762 523.41C521.203 523.984 521.424 524.783 521.424 525.807V525.895ZM520.006 525.771C520.006 525.139 519.879 524.637 519.625 524.266C519.375 523.895 519.016 523.709 518.547 523.709C517.965 523.709 517.547 523.949 517.293 524.43V527.242C517.551 527.734 517.973 527.98 518.559 527.98C519.012 527.98 519.365 527.799 519.619 527.436C519.877 527.068 520.006 526.514 520.006 525.771ZM526.422 529C526.359 528.879 526.305 528.682 526.258 528.408C525.805 528.881 525.25 529.117 524.594 529.117C523.957 529.117 523.438 528.936 523.035 528.572C522.633 528.209 522.432 527.76 522.432 527.225C522.432 526.549 522.682 526.031 523.182 525.672C523.686 525.309 524.404 525.127 525.338 525.127H526.211V524.711C526.211 524.383 526.119 524.121 525.936 523.926C525.752 523.727 525.473 523.627 525.098 523.627C524.773 523.627 524.508 523.709 524.301 523.873C524.094 524.033 523.99 524.238 523.99 524.488H522.566C522.566 524.141 522.682 523.816 522.912 523.516C523.143 523.211 523.455 522.973 523.85 522.801C524.248 522.629 524.691 522.543 525.18 522.543C525.922 522.543 526.514 522.73 526.955 523.105C527.396 523.477 527.623 524 527.635 524.676V527.535C527.635 528.105 527.715 528.561 527.875 528.9V529H526.422ZM524.857 527.975C525.139 527.975 525.402 527.906 525.648 527.77C525.898 527.633 526.086 527.449 526.211 527.219V526.023H525.443C524.916 526.023 524.52 526.115 524.254 526.299C523.988 526.482 523.855 526.742 523.855 527.078C523.855 527.352 523.945 527.57 524.125 527.734C524.309 527.895 524.553 527.975 524.857 527.975ZM531.73 527.98C532.086 527.98 532.381 527.877 532.615 527.67C532.85 527.463 532.975 527.207 532.99 526.902H534.332C534.316 527.297 534.193 527.666 533.963 528.01C533.732 528.35 533.42 528.619 533.025 528.818C532.631 529.018 532.205 529.117 531.748 529.117C530.861 529.117 530.158 528.83 529.639 528.256C529.119 527.682 528.859 526.889 528.859 525.877V525.73C528.859 524.766 529.117 523.994 529.633 523.416C530.148 522.834 530.852 522.543 531.742 522.543C532.496 522.543 533.109 522.764 533.582 523.205C534.059 523.643 534.309 524.219 534.332 524.934H532.99C532.975 524.57 532.85 524.271 532.615 524.037C532.385 523.803 532.09 523.686 531.73 523.686C531.27 523.686 530.914 523.854 530.664 524.189C530.414 524.521 530.287 525.027 530.283 525.707V525.936C530.283 526.623 530.406 527.137 530.652 527.477C530.902 527.812 531.262 527.98 531.73 527.98ZM537.684 524.746L538.891 522.66H540.473L538.533 525.783L540.537 529H538.967L537.701 526.832L536.441 529H534.859L536.863 525.783L534.93 522.66H536.5L537.684 524.746ZM540.941 525.771C540.941 525.15 541.064 524.592 541.311 524.096C541.557 523.596 541.902 523.213 542.348 522.947C542.793 522.678 543.305 522.543 543.883 522.543C544.738 522.543 545.432 522.818 545.963 523.369C546.498 523.92 546.787 524.65 546.83 525.561L546.836 525.895C546.836 526.52 546.715 527.078 546.473 527.57C546.234 528.062 545.891 528.443 545.441 528.713C544.996 528.982 544.48 529.117 543.895 529.117C543 529.117 542.283 528.82 541.744 528.227C541.209 527.629 540.941 526.834 540.941 525.842V525.771ZM542.365 525.895C542.365 526.547 542.5 527.059 542.77 527.43C543.039 527.797 543.414 527.98 543.895 527.98C544.375 527.98 544.748 527.793 545.014 527.418C545.283 527.043 545.418 526.494 545.418 525.771C545.418 525.131 545.279 524.623 545.002 524.248C544.729 523.873 544.355 523.686 543.883 523.686C543.418 523.686 543.049 523.871 542.775 524.242C542.502 524.609 542.365 525.16 542.365 525.895ZM547.645 527.863C548.039 527.422 548.303 527.004 548.436 526.609C548.572 526.211 548.654 525.703 548.682 525.086L548.764 522.66H553.164V527.863H554.043V530.887H552.625V529H548.559V530.887H547.117L547.123 527.863H547.645ZM549.314 527.863H551.746V523.885H550.146L550.105 525.098C550.051 526.262 549.787 527.184 549.314 527.863ZM557.277 526.961L558.566 522.66H560.084L557.564 529.961C557.178 531.027 556.521 531.561 555.596 531.561C555.389 531.561 555.16 531.525 554.91 531.455V530.354L555.18 530.371C555.539 530.371 555.809 530.305 555.988 530.172C556.172 530.043 556.316 529.824 556.422 529.516L556.627 528.971L554.4 522.66H555.936L557.277 526.961ZM566.5 527.98C566.855 527.98 567.15 527.877 567.385 527.67C567.619 527.463 567.744 527.207 567.76 526.902H569.102C569.086 527.297 568.963 527.666 568.732 528.01C568.502 528.35 568.189 528.619 567.795 528.818C567.4 529.018 566.975 529.117 566.518 529.117C565.631 529.117 564.928 528.83 564.408 528.256C563.889 527.682 563.629 526.889 563.629 525.877V525.73C563.629 524.766 563.887 523.994 564.402 523.416C564.918 522.834 565.621 522.543 566.512 522.543C567.266 522.543 567.879 522.764 568.352 523.205C568.828 523.643 569.078 524.219 569.102 524.934H567.76C567.744 524.57 567.619 524.271 567.385 524.037C567.154 523.803 566.859 523.686 566.5 523.686C566.039 523.686 565.684 523.854 565.434 524.189C565.184 524.521 565.057 525.027 565.053 525.707V525.936C565.053 526.623 565.176 527.137 565.422 527.477C565.672 527.812 566.031 527.98 566.5 527.98ZM575.166 523.791H573.109V529H571.686V523.791H569.652V522.66H575.166V523.791ZM575.676 525.771C575.676 525.15 575.799 524.592 576.045 524.096C576.291 523.596 576.637 523.213 577.082 522.947C577.527 522.678 578.039 522.543 578.617 522.543C579.473 522.543 580.166 522.818 580.697 523.369C581.232 523.92 581.521 524.65 581.564 525.561L581.57 525.895C581.57 526.52 581.449 527.078 581.207 527.57C580.969 528.062 580.625 528.443 580.176 528.713C579.73 528.982 579.215 529.117 578.629 529.117C577.734 529.117 577.018 528.82 576.479 528.227C575.943 527.629 575.676 526.834 575.676 525.842V525.771ZM577.1 525.895C577.1 526.547 577.234 527.059 577.504 527.43C577.773 527.797 578.148 527.98 578.629 527.98C579.109 527.98 579.482 527.793 579.748 527.418C580.018 527.043 580.152 526.494 580.152 525.771C580.152 525.131 580.014 524.623 579.736 524.248C579.463 523.873 579.09 523.686 578.617 523.686C578.152 523.686 577.783 523.871 577.51 524.242C577.236 524.609 577.1 525.16 577.1 525.895ZM587.857 529H586.434V526.885C586.066 526.971 585.68 527.014 585.273 527.014C584.406 527.014 583.744 526.807 583.287 526.393C582.83 525.975 582.602 525.377 582.602 524.6V522.654H584.025V524.6C584.025 525.061 584.127 525.387 584.33 525.578C584.537 525.77 584.852 525.865 585.273 525.865C585.656 525.865 586.043 525.82 586.434 525.73V522.66H587.857V529ZM594.742 529H593.318V526.439H590.852V529H589.428V522.66H590.852V525.303H593.318V522.66H594.742V529ZM597.795 524.676H599.189C599.709 524.676 600.162 524.766 600.549 524.945C600.936 525.125 601.229 525.377 601.428 525.701C601.631 526.025 601.732 526.402 601.732 526.832C601.732 527.484 601.502 528.008 601.041 528.402C600.58 528.797 599.967 528.996 599.201 529H596.371V522.66H597.795V524.676ZM604.211 529H602.787V522.66H604.211V529ZM597.795 525.818V527.863H599.184C599.531 527.863 599.805 527.777 600.004 527.605C600.207 527.43 600.309 527.182 600.309 526.861C600.309 526.541 600.209 526.289 600.01 526.105C599.814 525.918 599.549 525.822 599.213 525.818H597.795ZM608.195 524.746L609.402 522.66H610.984L609.045 525.783L611.049 529H609.479L608.213 526.832L606.953 529H605.371L607.375 525.783L605.441 522.66H607.012L608.195 524.746ZM615.051 529V522.66H617.623C618.49 522.66 619.15 522.812 619.604 523.117C620.057 523.418 620.283 523.852 620.283 524.418C620.283 524.711 620.191 524.975 620.008 525.209C619.828 525.439 619.561 525.617 619.205 525.742C619.619 525.828 619.947 526.002 620.189 526.264C620.432 526.525 620.553 526.834 620.553 527.189C620.553 527.779 620.334 528.229 619.896 528.537C619.463 528.846 618.838 529 618.021 529H615.051ZM616.475 526.299V527.875H618.033C618.764 527.875 619.129 527.613 619.129 527.09C619.129 526.562 618.758 526.299 618.016 526.299H616.475ZM616.475 525.279H617.646C618.455 525.279 618.859 525.041 618.859 524.564C618.859 524.064 618.477 523.807 617.711 523.791H616.475V525.279ZM621.52 525.771C621.52 525.15 621.643 524.592 621.889 524.096C622.135 523.596 622.48 523.213 622.926 522.947C623.371 522.678 623.883 522.543 624.461 522.543C625.316 522.543 626.01 522.818 626.541 523.369C627.076 523.92 627.365 524.65 627.408 525.561L627.414 525.895C627.414 526.52 627.293 527.078 627.051 527.57C626.812 528.062 626.469 528.443 626.02 528.713C625.574 528.982 625.059 529.117 624.473 529.117C623.578 529.117 622.861 528.82 622.322 528.227C621.787 527.629 621.52 526.834 621.52 525.842V525.771ZM622.943 525.895C622.943 526.547 623.078 527.059 623.348 527.43C623.617 527.797 623.992 527.98 624.473 527.98C624.953 527.98 625.326 527.793 625.592 527.418C625.861 527.043 625.996 526.494 625.996 525.771C625.996 525.131 625.857 524.623 625.58 524.248C625.307 523.873 624.934 523.686 624.461 523.686C623.996 523.686 623.627 523.871 623.354 524.242C623.08 524.609 622.943 525.16 622.943 525.895ZM628.223 527.863C628.617 527.422 628.881 527.004 629.014 526.609C629.15 526.211 629.232 525.703 629.26 525.086L629.342 522.66H633.742V527.863H634.621V530.887H633.203V529H629.137V530.887H627.695L627.701 527.863H628.223ZM629.893 527.863H632.324V523.885H630.725L630.684 525.098C630.629 526.262 630.365 527.184 629.893 527.863Z" fill="#3C3C3B"/>
<rect x="403" y="56" width="115" height="448" fill="#FECF9B"/>
<rect x="520" y="115" width="115" height="389" fill="#37FF9F"/>
<line x1="578.25" y1="103" x2="578.25" y2="113" stroke="#3C3C3B" stroke-width="0.5"/>
<line x1="461.25" y1="44" x2="461.25" y2="54" stroke="#3C3C3B" stroke-width="0.5"/>
<path d="M459.109 38.252H460.439V38.8438H459.109V41H458.406V38.8438H454.393V38.4453L458.342 32.4688H459.109V38.252ZM455.254 38.252H458.406V33.377L458.096 33.916L455.254 38.252ZM461.934 36.6289L462.35 32.4688H466.615V33.1191H462.953L462.654 36.002C463.111 35.6895 463.646 35.5332 464.26 35.5332C465.029 35.5332 465.643 35.7832 466.1 36.2832C466.557 36.7832 466.785 37.4492 466.785 38.2812C466.785 39.1797 466.562 39.877 466.117 40.373C465.672 40.8691 465.045 41.1172 464.236 41.1172C463.494 41.1172 462.893 40.9102 462.432 40.4961C461.971 40.082 461.707 39.502 461.641 38.7559H462.314C462.381 39.3379 462.578 39.7793 462.906 40.0801C463.234 40.377 463.678 40.5254 464.236 40.5254C464.846 40.5254 465.305 40.332 465.613 39.9453C465.926 39.5586 466.082 39.0078 466.082 38.293C466.082 37.668 465.908 37.1582 465.561 36.7637C465.213 36.3691 464.738 36.1719 464.137 36.1719C463.805 36.1719 463.516 36.2148 463.27 36.3008C463.023 36.3828 462.764 36.5449 462.49 36.7871L461.934 36.6289Z" fill="#3C3C3B"/>
<path d="M576.109 97.252H577.439V97.8438H576.109V100H575.406V97.8438H571.393V97.4453L575.342 91.4688H576.109V97.252ZM572.254 97.252H575.406V92.377L575.096 92.916L572.254 97.252ZM581.723 100H581.02V92.3125L578.699 93.1738V92.5176L581.605 91.4395H581.723V100Z" fill="#3C3C3B"/>
</svg>
