<svg width="1088" height="550" viewBox="0 0 1088 550" fill="none" xmlns="http://www.w3.org/2000/svg">
<line y1="505" x2="1088" y2="505" stroke="black" stroke-width="2"/>
<line y1="469" x2="1088" y2="469" stroke="#CECECE" stroke-width="2"/>
<line y1="451.5" x2="1088" y2="451.5" stroke="#DDDDDD"/>
<line y1="379.5" x2="1088" y2="379.5" stroke="#DDDDDD"/>
<line y1="307.5" x2="1088" y2="307.5" stroke="#DDDDDD"/>
<line y1="235.5" x2="1088" y2="235.5" stroke="#DDDDDD"/>
<line y1="163.5" x2="1088" y2="163.5" stroke="#DDDDDD"/>
<line y1="91.5" x2="1088" y2="91.5" stroke="#DDDDDD"/>
<line y1="19.5" x2="1088" y2="19.5" stroke="#DDDDDD"/>
<line y1="415.5" x2="1088" y2="415.5" stroke="#DDDDDD"/>
<line y1="343.5" x2="1088" y2="343.5" stroke="#DDDDDD"/>
<line y1="271.5" x2="1088" y2="271.5" stroke="#DDDDDD"/>
<line y1="199.5" x2="1088" y2="199.5" stroke="#DDDDDD"/>
<line y1="127.5" x2="1088" y2="127.5" stroke="#DDDDDD"/>
<line y1="55.5" x2="1088" y2="55.5" stroke="#DDDDDD"/>
<line y1="433" x2="1088" y2="433" stroke="#CECECE" stroke-width="2"/>
<line y1="397" x2="1088" y2="397" stroke="#CECECE" stroke-width="2"/>
<line y1="361" x2="1088" y2="361" stroke="#CECECE" stroke-width="2"/>
<line y1="325" x2="1088" y2="325" stroke="#CECECE" stroke-width="2"/>
<line y1="289" x2="1088" y2="289" stroke="#CECECE" stroke-width="2"/>
<line y1="253" x2="1088" y2="253" stroke="#CECECE" stroke-width="2"/>
<line y1="217" x2="1088" y2="217" stroke="#CECECE" stroke-width="2"/>
<line y1="181" x2="1088" y2="181" stroke="#CECECE" stroke-width="2"/>
<line y1="145" x2="1088" y2="145" stroke="#CECECE" stroke-width="2"/>
<line y1="109" x2="1088" y2="109" stroke="#CECECE" stroke-width="2"/>
<line y1="73" x2="1088" y2="73" stroke="#CECECE" stroke-width="2"/>
<line y1="37" x2="1088" y2="37" stroke="#CECECE" stroke-width="2"/>
<line y1="1" x2="1088" y2="1" stroke="#CECECE" stroke-width="2"/>
<path d="M116.887 529.83V533H115.404V524.469H118.668C119.621 524.469 120.377 524.717 120.936 525.213C121.498 525.709 121.779 526.365 121.779 527.182C121.779 528.018 121.504 528.668 120.953 529.133C120.406 529.598 119.639 529.83 118.65 529.83H116.887ZM116.887 528.641H118.668C119.195 528.641 119.598 528.518 119.875 528.271C120.152 528.021 120.291 527.662 120.291 527.193C120.291 526.732 120.15 526.365 119.869 526.092C119.588 525.814 119.201 525.672 118.709 525.664H116.887V528.641ZM126.66 533C126.598 532.879 126.543 532.682 126.496 532.408C126.043 532.881 125.488 533.117 124.832 533.117C124.195 533.117 123.676 532.936 123.273 532.572C122.871 532.209 122.67 531.76 122.67 531.225C122.67 530.549 122.92 530.031 123.42 529.672C123.924 529.309 124.643 529.127 125.576 529.127H126.449V528.711C126.449 528.383 126.357 528.121 126.174 527.926C125.99 527.727 125.711 527.627 125.336 527.627C125.012 527.627 124.746 527.709 124.539 527.873C124.332 528.033 124.229 528.238 124.229 528.488H122.805C122.805 528.141 122.92 527.816 123.15 527.516C123.381 527.211 123.693 526.973 124.088 526.801C124.486 526.629 124.93 526.543 125.418 526.543C126.16 526.543 126.752 526.73 127.193 527.105C127.635 527.477 127.861 528 127.873 528.676V531.535C127.873 532.105 127.953 532.561 128.113 532.9V533H126.66ZM125.096 531.975C125.377 531.975 125.641 531.906 125.887 531.77C126.137 531.633 126.324 531.449 126.449 531.219V530.023H125.682C125.154 530.023 124.758 530.115 124.492 530.299C124.227 530.482 124.094 530.742 124.094 531.078C124.094 531.352 124.184 531.57 124.363 531.734C124.547 531.895 124.791 531.975 125.096 531.975ZM131.969 531.98C132.324 531.98 132.619 531.877 132.854 531.67C133.088 531.463 133.213 531.207 133.229 530.902H134.57C134.555 531.297 134.432 531.666 134.201 532.01C133.971 532.35 133.658 532.619 133.264 532.818C132.869 533.018 132.443 533.117 131.986 533.117C131.1 533.117 130.396 532.83 129.877 532.256C129.357 531.682 129.098 530.889 129.098 529.877V529.73C129.098 528.766 129.355 527.994 129.871 527.416C130.387 526.834 131.09 526.543 131.98 526.543C132.734 526.543 133.348 526.764 133.82 527.205C134.297 527.643 134.547 528.219 134.57 528.934H133.229C133.213 528.57 133.088 528.271 132.854 528.037C132.623 527.803 132.328 527.686 131.969 527.686C131.508 527.686 131.152 527.854 130.902 528.189C130.652 528.521 130.525 529.027 130.521 529.707V529.936C130.521 530.623 130.645 531.137 130.891 531.477C131.141 531.812 131.5 531.98 131.969 531.98ZM140.729 533H139.305V530.885C138.938 530.971 138.551 531.014 138.145 531.014C137.277 531.014 136.615 530.807 136.158 530.393C135.701 529.975 135.473 529.377 135.473 528.6V526.654H136.896V528.6C136.896 529.061 136.998 529.387 137.201 529.578C137.408 529.77 137.723 529.865 138.145 529.865C138.527 529.865 138.914 529.82 139.305 529.73V526.66H140.729V533ZM145.035 533.117C144.133 533.117 143.4 532.834 142.838 532.268C142.279 531.697 142 530.939 142 529.994V529.818C142 529.186 142.121 528.621 142.363 528.125C142.609 527.625 142.953 527.236 143.395 526.959C143.836 526.682 144.328 526.543 144.871 526.543C145.734 526.543 146.4 526.818 146.869 527.369C147.342 527.92 147.578 528.699 147.578 529.707V530.281H143.436C143.479 530.805 143.652 531.219 143.957 531.523C144.266 531.828 144.652 531.98 145.117 531.98C145.77 531.98 146.301 531.717 146.711 531.189L147.479 531.922C147.225 532.301 146.885 532.596 146.459 532.807C146.037 533.014 145.562 533.117 145.035 533.117ZM144.865 527.686C144.475 527.686 144.158 527.822 143.916 528.096C143.678 528.369 143.525 528.75 143.459 529.238H146.172V529.133C146.141 528.656 146.014 528.297 145.791 528.055C145.568 527.809 145.26 527.686 144.865 527.686ZM153.607 527.791H151.551V533H150.127V527.791H148.094V526.66H153.607V527.791ZM161.506 526.66H162.924V533H161.506V528.77L159.021 533H157.604V526.66H159.021V530.891L161.506 526.66ZM169.809 533H168.385V530.439H165.918V533H164.494V526.66H165.918V529.303H168.385V526.66H169.809V533ZM171.092 529.918C171.092 528.883 171.295 528.062 171.701 527.457C172.111 526.848 172.682 526.543 173.412 526.543C173.709 526.543 173.979 526.598 174.221 526.707V524H175.639V526.73C175.889 526.605 176.182 526.543 176.518 526.543C177.244 526.543 177.812 526.846 178.223 527.451C178.637 528.053 178.844 528.916 178.844 530.041C178.844 530.99 178.637 531.74 178.223 532.291C177.809 532.842 177.244 533.117 176.529 533.117C176.205 533.117 175.908 533.059 175.639 532.941V535.438H174.221V532.965C173.982 533.066 173.709 533.117 173.4 533.117C172.717 533.117 172.17 532.865 171.76 532.361C171.354 531.854 171.133 531.156 171.098 530.27L171.092 529.918ZM177.42 529.918C177.42 529.207 177.307 528.658 177.08 528.271C176.854 527.881 176.533 527.686 176.119 527.686C175.943 527.686 175.783 527.711 175.639 527.762V531.922C175.768 531.961 175.932 531.98 176.131 531.98C176.99 531.98 177.42 531.293 177.42 529.918ZM172.51 530.041C172.51 530.674 172.615 531.156 172.826 531.488C173.037 531.816 173.35 531.98 173.764 531.98C173.939 531.98 174.092 531.961 174.221 531.922V527.744C174.088 527.705 173.939 527.686 173.775 527.686C173.369 527.686 173.057 527.875 172.838 528.254C172.619 528.629 172.51 529.225 172.51 530.041ZM184.029 526.66H185.447V533H184.029V528.77L181.545 533H180.127V526.66H181.545V530.891L184.029 526.66ZM192.35 526.66V533H190.926V527.809H189.133L189.016 530.018C188.941 531.08 188.736 531.844 188.4 532.309C188.068 532.77 187.559 533 186.871 533H186.432L186.426 531.816L186.719 531.787C187.031 531.744 187.258 531.555 187.398 531.219C187.543 530.879 187.635 530.262 187.674 529.367L187.791 526.66H192.35ZM195.396 528.676H196.791C197.311 528.676 197.764 528.766 198.15 528.945C198.537 529.125 198.83 529.377 199.029 529.701C199.232 530.025 199.334 530.402 199.334 530.832C199.334 531.484 199.104 532.008 198.643 532.402C198.182 532.797 197.568 532.996 196.803 533H193.973V526.66H195.396V528.676ZM195.396 529.818V531.863H196.785C197.133 531.863 197.406 531.777 197.605 531.605C197.809 531.43 197.91 531.182 197.91 530.861C197.91 530.541 197.811 530.289 197.611 530.105C197.416 529.918 197.15 529.822 196.814 529.818H195.396ZM204.584 527.791H202.527V533H201.104V527.791H199.07V526.66H204.584V527.791ZM211.088 529.895C211.088 530.875 210.865 531.658 210.42 532.244C209.975 532.826 209.377 533.117 208.627 533.117C207.932 533.117 207.375 532.889 206.957 532.432V535.438H205.533V526.66H206.846L206.904 527.305C207.322 526.797 207.891 526.543 208.609 526.543C209.383 526.543 209.988 526.832 210.426 527.41C210.867 527.984 211.088 528.783 211.088 529.807V529.895ZM209.67 529.771C209.67 529.139 209.543 528.637 209.289 528.266C209.039 527.895 208.68 527.709 208.211 527.709C207.629 527.709 207.211 527.949 206.957 528.43V531.242C207.215 531.734 207.637 531.98 208.223 531.98C208.676 531.98 209.029 531.799 209.283 531.436C209.541 531.068 209.67 530.514 209.67 529.771ZM216.086 533C216.023 532.879 215.969 532.682 215.922 532.408C215.469 532.881 214.914 533.117 214.258 533.117C213.621 533.117 213.102 532.936 212.699 532.572C212.297 532.209 212.096 531.76 212.096 531.225C212.096 530.549 212.346 530.031 212.846 529.672C213.35 529.309 214.068 529.127 215.002 529.127H215.875V528.711C215.875 528.383 215.783 528.121 215.6 527.926C215.416 527.727 215.137 527.627 214.762 527.627C214.438 527.627 214.172 527.709 213.965 527.873C213.758 528.033 213.654 528.238 213.654 528.488H212.23C212.23 528.141 212.346 527.816 212.576 527.516C212.807 527.211 213.119 526.973 213.514 526.801C213.912 526.629 214.355 526.543 214.844 526.543C215.586 526.543 216.178 526.73 216.619 527.105C217.061 527.477 217.287 528 217.299 528.676V531.535C217.299 532.105 217.379 532.561 217.539 532.9V533H216.086ZM214.521 531.975C214.803 531.975 215.066 531.906 215.312 531.77C215.562 531.633 215.75 531.449 215.875 531.219V530.023H215.107C214.58 530.023 214.184 530.115 213.918 530.299C213.652 530.482 213.52 530.742 213.52 531.078C213.52 531.352 213.609 531.57 213.789 531.734C213.973 531.895 214.217 531.975 214.521 531.975ZM218.846 526.66H220.27V531.863H222.742V526.66H224.166V531.863H225.027L224.91 534.881H223.615V533H218.846V526.66ZM229.99 526.66H231.408V533H229.99V528.77L227.506 533H226.088V526.66H227.506V530.891L229.99 526.66ZM232.656 529.771C232.656 529.15 232.779 528.592 233.025 528.096C233.271 527.596 233.617 527.213 234.062 526.947C234.508 526.678 235.02 526.543 235.598 526.543C236.453 526.543 237.146 526.818 237.678 527.369C238.213 527.92 238.502 528.65 238.545 529.561L238.551 529.895C238.551 530.52 238.43 531.078 238.188 531.57C237.949 532.062 237.605 532.443 237.156 532.713C236.711 532.982 236.195 533.117 235.609 533.117C234.715 533.117 233.998 532.82 233.459 532.227C232.924 531.629 232.656 530.834 232.656 529.842V529.771ZM234.08 529.895C234.08 530.547 234.215 531.059 234.484 531.43C234.754 531.797 235.129 531.98 235.609 531.98C236.09 531.98 236.463 531.793 236.729 531.418C236.998 531.043 237.133 530.494 237.133 529.771C237.133 529.131 236.994 528.623 236.717 528.248C236.443 527.873 236.07 527.686 235.598 527.686C235.133 527.686 234.764 527.871 234.49 528.242C234.217 528.609 234.08 529.16 234.08 529.895ZM245.125 533H243.701V530.439H241.234V533H239.811V526.66H241.234V529.303H243.701V526.66H245.125V533ZM252.016 533H250.592V530.439H248.125V533H246.701V526.66H248.125V529.303H250.592V526.66H252.016V533ZM253.27 529.771C253.27 529.15 253.393 528.592 253.639 528.096C253.885 527.596 254.23 527.213 254.676 526.947C255.121 526.678 255.633 526.543 256.211 526.543C257.066 526.543 257.76 526.818 258.291 527.369C258.826 527.92 259.115 528.65 259.158 529.561L259.164 529.895C259.164 530.52 259.043 531.078 258.801 531.57C258.562 532.062 258.219 532.443 257.77 532.713C257.324 532.982 256.809 533.117 256.223 533.117C255.328 533.117 254.611 532.82 254.072 532.227C253.537 531.629 253.27 530.834 253.27 529.842V529.771ZM254.693 529.895C254.693 530.547 254.828 531.059 255.098 531.43C255.367 531.797 255.742 531.98 256.223 531.98C256.703 531.98 257.076 531.793 257.342 531.418C257.611 531.043 257.746 530.494 257.746 529.771C257.746 529.131 257.607 528.623 257.33 528.248C257.057 527.873 256.684 527.686 256.211 527.686C255.746 527.686 255.377 527.871 255.104 528.242C254.83 528.609 254.693 529.16 254.693 529.895ZM264.59 527.809H261.836V533H260.418V526.66H264.59V527.809ZM265.012 529.771C265.012 529.15 265.135 528.592 265.381 528.096C265.627 527.596 265.973 527.213 266.418 526.947C266.863 526.678 267.375 526.543 267.953 526.543C268.809 526.543 269.502 526.818 270.033 527.369C270.568 527.92 270.857 528.65 270.9 529.561L270.906 529.895C270.906 530.52 270.785 531.078 270.543 531.57C270.305 532.062 269.961 532.443 269.512 532.713C269.066 532.982 268.551 533.117 267.965 533.117C267.07 533.117 266.354 532.82 265.814 532.227C265.279 531.629 265.012 530.834 265.012 529.842V529.771ZM266.436 529.895C266.436 530.547 266.57 531.059 266.84 531.43C267.109 531.797 267.484 531.98 267.965 531.98C268.445 531.98 268.818 531.793 269.084 531.418C269.354 531.043 269.488 530.494 269.488 529.771C269.488 529.131 269.35 528.623 269.072 528.248C268.799 527.873 268.426 527.686 267.953 527.686C267.488 527.686 267.119 527.871 266.846 528.242C266.572 528.609 266.436 529.16 266.436 529.895ZM280.088 527.791H278.031V533H276.607V527.791H274.574V526.66H280.088V527.791ZM280.598 529.771C280.598 529.15 280.721 528.592 280.967 528.096C281.213 527.596 281.559 527.213 282.004 526.947C282.449 526.678 282.961 526.543 283.539 526.543C284.395 526.543 285.088 526.818 285.619 527.369C286.154 527.92 286.443 528.65 286.486 529.561L286.492 529.895C286.492 530.52 286.371 531.078 286.129 531.57C285.891 532.062 285.547 532.443 285.098 532.713C284.652 532.982 284.137 533.117 283.551 533.117C282.656 533.117 281.939 532.82 281.4 532.227C280.865 531.629 280.598 530.834 280.598 529.842V529.771ZM282.021 529.895C282.021 530.547 282.156 531.059 282.426 531.43C282.695 531.797 283.07 531.98 283.551 531.98C284.031 531.98 284.404 531.793 284.67 531.418C284.939 531.043 285.074 530.494 285.074 529.771C285.074 529.131 284.936 528.623 284.658 528.248C284.385 527.873 284.012 527.686 283.539 527.686C283.074 527.686 282.705 527.871 282.432 528.242C282.158 528.609 282.021 529.16 282.021 529.895ZM293.066 533H291.643V530.439H289.176V533H287.752V526.66H289.176V529.303H291.643V526.66H293.066V533ZM299.957 533H298.533V530.439H296.066V533H294.643V526.66H296.066V529.303H298.533V526.66H299.957V533ZM304.27 533.117C303.367 533.117 302.635 532.834 302.072 532.268C301.514 531.697 301.234 530.939 301.234 529.994V529.818C301.234 529.186 301.355 528.621 301.598 528.125C301.844 527.625 302.188 527.236 302.629 526.959C303.07 526.682 303.562 526.543 304.105 526.543C304.969 526.543 305.635 526.818 306.104 527.369C306.576 527.92 306.812 528.699 306.812 529.707V530.281H302.67C302.713 530.805 302.887 531.219 303.191 531.523C303.5 531.828 303.887 531.98 304.352 531.98C305.004 531.98 305.535 531.717 305.945 531.189L306.713 531.922C306.459 532.301 306.119 532.596 305.693 532.807C305.271 533.014 304.797 533.117 304.27 533.117ZM304.1 527.686C303.709 527.686 303.393 527.822 303.15 528.096C302.912 528.369 302.76 528.75 302.693 529.238H305.406V529.133C305.375 528.656 305.248 528.297 305.025 528.055C304.803 527.809 304.494 527.686 304.1 527.686ZM313.311 526.66V533H311.887V527.809H310.094L309.977 530.018C309.902 531.08 309.697 531.844 309.361 532.309C309.029 532.77 308.52 533 307.832 533H307.393L307.387 531.816L307.68 531.787C307.992 531.744 308.219 531.555 308.359 531.219C308.504 530.879 308.596 530.262 308.635 529.367L308.752 526.66H313.311ZM319.902 526.66V533H318.484V530.674H317.154L315.801 533H314.324L315.818 530.439C315.428 530.275 315.127 530.041 314.916 529.736C314.709 529.432 314.605 529.082 314.605 528.688C314.605 528.098 314.832 527.615 315.285 527.24C315.742 526.861 316.357 526.668 317.131 526.66H319.902ZM316.029 528.723C316.029 528.988 316.127 529.205 316.322 529.373C316.521 529.537 316.775 529.619 317.084 529.619H318.484V527.791H317.172C316.824 527.791 316.547 527.879 316.34 528.055C316.133 528.23 316.029 528.453 316.029 528.723ZM329.846 533H328.422V527.809H325.949V533H324.525V526.66H329.846V533ZM331.094 529.771C331.094 529.15 331.217 528.592 331.463 528.096C331.709 527.596 332.055 527.213 332.5 526.947C332.945 526.678 333.457 526.543 334.035 526.543C334.891 526.543 335.584 526.818 336.115 527.369C336.65 527.92 336.939 528.65 336.982 529.561L336.988 529.895C336.988 530.52 336.867 531.078 336.625 531.57C336.387 532.062 336.043 532.443 335.594 532.713C335.148 532.982 334.633 533.117 334.047 533.117C333.152 533.117 332.436 532.82 331.896 532.227C331.361 531.629 331.094 530.834 331.094 529.842V529.771ZM332.518 529.895C332.518 530.547 332.652 531.059 332.922 531.43C333.191 531.797 333.566 531.98 334.047 531.98C334.527 531.98 334.9 531.793 335.166 531.418C335.436 531.043 335.57 530.494 335.57 529.771C335.57 529.131 335.432 528.623 335.154 528.248C334.881 527.873 334.508 527.686 334.035 527.686C333.57 527.686 333.201 527.871 332.928 528.242C332.654 528.609 332.518 529.16 332.518 529.895ZM174.432 547H173.008V541.809H170.535V547H169.111V540.66H174.432V547ZM181.334 540.66V547H179.91V541.809H178.117L178 544.018C177.926 545.08 177.721 545.844 177.385 546.309C177.053 546.77 176.543 547 175.855 547H175.416L175.41 545.816L175.703 545.787C176.016 545.744 176.242 545.555 176.383 545.219C176.527 544.879 176.619 544.262 176.658 543.367L176.775 540.66H181.334ZM182.582 543.771C182.582 543.15 182.705 542.592 182.951 542.096C183.197 541.596 183.543 541.213 183.988 540.947C184.434 540.678 184.945 540.543 185.523 540.543C186.379 540.543 187.072 540.818 187.604 541.369C188.139 541.92 188.428 542.65 188.471 543.561L188.477 543.895C188.477 544.52 188.355 545.078 188.113 545.57C187.875 546.062 187.531 546.443 187.082 546.713C186.637 546.982 186.121 547.117 185.535 547.117C184.641 547.117 183.924 546.82 183.385 546.227C182.85 545.629 182.582 544.834 182.582 543.842V543.771ZM184.006 543.895C184.006 544.547 184.141 545.059 184.41 545.43C184.68 545.797 185.055 545.98 185.535 545.98C186.016 545.98 186.389 545.793 186.654 545.418C186.924 545.043 187.059 544.494 187.059 543.771C187.059 543.131 186.92 542.623 186.643 542.248C186.369 541.873 185.996 541.686 185.523 541.686C185.059 541.686 184.689 541.871 184.416 542.242C184.143 542.609 184.006 543.16 184.006 543.895ZM191.113 540.66V545.863H193.094V540.66H194.518V545.863H196.504V540.66H197.922V545.863H199.006L198.889 548.881H197.594V547H189.689V540.66H191.113ZM203.852 547C203.789 546.879 203.734 546.682 203.688 546.408C203.234 546.881 202.68 547.117 202.023 547.117C201.387 547.117 200.867 546.936 200.465 546.572C200.062 546.209 199.861 545.76 199.861 545.225C199.861 544.549 200.111 544.031 200.611 543.672C201.115 543.309 201.834 543.127 202.768 543.127H203.641V542.711C203.641 542.383 203.549 542.121 203.365 541.926C203.182 541.727 202.902 541.627 202.527 541.627C202.203 541.627 201.938 541.709 201.73 541.873C201.523 542.033 201.42 542.238 201.42 542.488H199.996C199.996 542.141 200.111 541.816 200.342 541.516C200.572 541.211 200.885 540.973 201.279 540.801C201.678 540.629 202.121 540.543 202.609 540.543C203.352 540.543 203.943 540.73 204.385 541.105C204.826 541.477 205.053 542 205.064 542.676V545.535C205.064 546.105 205.145 546.561 205.305 546.9V547H203.852ZM202.287 545.975C202.568 545.975 202.832 545.906 203.078 545.77C203.328 545.633 203.516 545.449 203.641 545.219V544.023H202.873C202.346 544.023 201.949 544.115 201.684 544.299C201.418 544.482 201.285 544.742 201.285 545.078C201.285 545.352 201.375 545.57 201.555 545.734C201.738 545.895 201.982 545.975 202.287 545.975ZM206.582 545.863C206.977 545.422 207.24 545.004 207.373 544.609C207.51 544.211 207.592 543.703 207.619 543.086L207.701 540.66H212.102V545.863H212.98V548.887H211.562V547H207.496V548.887H206.055L206.061 545.863H206.582ZM208.252 545.863H210.684V541.885H209.084L209.043 543.098C208.988 544.262 208.725 545.184 208.252 545.863ZM217.85 540.66H219.268V547H217.85V542.77L215.365 547H213.947V540.66H215.365V544.891L217.85 540.66ZM223.879 547V540.66H226.451C227.318 540.66 227.979 540.812 228.432 541.117C228.885 541.418 229.111 541.852 229.111 542.418C229.111 542.711 229.02 542.975 228.836 543.209C228.656 543.439 228.389 543.617 228.033 543.742C228.447 543.828 228.775 544.002 229.018 544.264C229.26 544.525 229.381 544.834 229.381 545.189C229.381 545.779 229.162 546.229 228.725 546.537C228.291 546.846 227.666 547 226.85 547H223.879ZM225.303 544.299V545.875H226.861C227.592 545.875 227.957 545.613 227.957 545.09C227.957 544.562 227.586 544.299 226.844 544.299H225.303ZM225.303 543.279H226.475C227.283 543.279 227.688 543.041 227.688 542.564C227.688 542.064 227.305 541.807 226.539 541.791H225.303V543.279ZM230.348 543.771C230.348 543.15 230.471 542.592 230.717 542.096C230.963 541.596 231.309 541.213 231.754 540.947C232.199 540.678 232.711 540.543 233.289 540.543C234.145 540.543 234.838 540.818 235.369 541.369C235.904 541.92 236.193 542.65 236.236 543.561L236.242 543.895C236.242 544.52 236.121 545.078 235.879 545.57C235.641 546.062 235.297 546.443 234.848 546.713C234.402 546.982 233.887 547.117 233.301 547.117C232.406 547.117 231.689 546.82 231.15 546.227C230.615 545.629 230.348 544.834 230.348 543.842V543.771ZM231.771 543.895C231.771 544.547 231.906 545.059 232.176 545.43C232.445 545.797 232.82 545.98 233.301 545.98C233.781 545.98 234.154 545.793 234.42 545.418C234.689 545.043 234.824 544.494 234.824 543.771C234.824 543.131 234.686 542.623 234.408 542.248C234.135 541.873 233.762 541.686 233.289 541.686C232.824 541.686 232.455 541.871 232.182 542.242C231.908 542.609 231.771 543.16 231.771 543.895ZM237.051 545.863C237.445 545.422 237.709 545.004 237.842 544.609C237.979 544.211 238.061 543.703 238.088 543.086L238.17 540.66H242.57V545.863H243.449V548.887H242.031V547H237.965V548.887H236.523L236.529 545.863H237.051ZM238.721 545.863H241.152V541.885H239.553L239.512 543.098C239.457 544.262 239.193 545.184 238.721 545.863ZM244.199 543.771C244.199 543.15 244.322 542.592 244.568 542.096C244.814 541.596 245.16 541.213 245.605 540.947C246.051 540.678 246.562 540.543 247.141 540.543C247.996 540.543 248.689 540.818 249.221 541.369C249.756 541.92 250.045 542.65 250.088 543.561L250.094 543.895C250.094 544.52 249.973 545.078 249.73 545.57C249.492 546.062 249.148 546.443 248.699 546.713C248.254 546.982 247.738 547.117 247.152 547.117C246.258 547.117 245.541 546.82 245.002 546.227C244.467 545.629 244.199 544.834 244.199 543.842V543.771ZM245.623 543.895C245.623 544.547 245.758 545.059 246.027 545.43C246.297 545.797 246.672 545.98 247.152 545.98C247.633 545.98 248.006 545.793 248.271 545.418C248.541 545.043 248.676 544.494 248.676 543.771C248.676 543.131 248.537 542.623 248.26 542.248C247.986 541.873 247.613 541.686 247.141 541.686C246.676 541.686 246.307 541.871 246.033 542.242C245.76 542.609 245.623 543.16 245.623 543.895ZM253.902 545.98C254.258 545.98 254.553 545.877 254.787 545.67C255.021 545.463 255.146 545.207 255.162 544.902H256.504C256.488 545.297 256.365 545.666 256.135 546.01C255.904 546.35 255.592 546.619 255.197 546.818C254.803 547.018 254.377 547.117 253.92 547.117C253.033 547.117 252.33 546.83 251.811 546.256C251.291 545.682 251.031 544.889 251.031 543.877V543.73C251.031 542.766 251.289 541.994 251.805 541.416C252.32 540.834 253.023 540.543 253.914 540.543C254.668 540.543 255.281 540.764 255.754 541.205C256.23 541.643 256.48 542.219 256.504 542.934H255.162C255.146 542.57 255.021 542.271 254.787 542.037C254.557 541.803 254.262 541.686 253.902 541.686C253.441 541.686 253.086 541.854 252.836 542.189C252.586 542.521 252.459 543.027 252.455 543.707V543.936C252.455 544.623 252.578 545.137 252.824 545.477C253.074 545.812 253.434 545.98 253.902 545.98ZM260.564 541.012C261.361 541.012 262 541.279 262.48 541.814C262.961 542.346 263.201 543.068 263.201 543.982V544.053C263.201 544.967 262.939 545.707 262.416 546.273C261.896 546.84 261.189 547.123 260.295 547.123C259.424 547.123 258.721 546.834 258.186 546.256C257.65 545.678 257.383 544.889 257.383 543.889V543.479C257.383 542.111 257.625 541.029 258.109 540.232C258.594 539.436 259.316 538.938 260.277 538.738C260.816 538.629 261.164 538.514 261.32 538.393C261.48 538.268 261.561 538.1 261.561 537.889H262.709C262.709 538.283 262.645 538.604 262.516 538.85C262.387 539.096 262.189 539.297 261.924 539.453C261.658 539.605 261.201 539.75 260.553 539.887C259.959 540.012 259.506 540.234 259.193 540.555C258.885 540.875 258.678 541.318 258.572 541.885C259.139 541.303 259.803 541.012 260.564 541.012ZM260.283 542.154C259.822 542.154 259.461 542.311 259.199 542.623C258.938 542.932 258.807 543.408 258.807 544.053C258.807 544.662 258.936 545.137 259.193 545.477C259.451 545.816 259.818 545.986 260.295 545.986C260.768 545.986 261.133 545.816 261.391 545.477C261.652 545.133 261.783 544.617 261.783 543.93C261.783 543.383 261.652 542.951 261.391 542.635C261.133 542.314 260.764 542.154 260.283 542.154ZM264.051 543.771C264.051 543.15 264.174 542.592 264.42 542.096C264.666 541.596 265.012 541.213 265.457 540.947C265.902 540.678 266.414 540.543 266.992 540.543C267.848 540.543 268.541 540.818 269.072 541.369C269.607 541.92 269.896 542.65 269.939 543.561L269.945 543.895C269.945 544.52 269.824 545.078 269.582 545.57C269.344 546.062 269 546.443 268.551 546.713C268.105 546.982 267.59 547.117 267.004 547.117C266.109 547.117 265.393 546.82 264.854 546.227C264.318 545.629 264.051 544.834 264.051 543.842V543.771ZM265.475 543.895C265.475 544.547 265.609 545.059 265.879 545.43C266.148 545.797 266.523 545.98 267.004 545.98C267.484 545.98 267.857 545.793 268.123 545.418C268.393 545.043 268.527 544.494 268.527 543.771C268.527 543.131 268.389 542.623 268.111 542.248C267.838 541.873 267.465 541.686 266.992 541.686C266.527 541.686 266.158 541.871 265.885 542.242C265.611 542.609 265.475 543.16 265.475 543.895ZM276.701 543.895C276.701 544.875 276.479 545.658 276.033 546.244C275.588 546.826 274.99 547.117 274.24 547.117C273.545 547.117 272.988 546.889 272.57 546.432V549.438H271.146V540.66H272.459L272.518 541.305C272.936 540.797 273.504 540.543 274.223 540.543C274.996 540.543 275.602 540.832 276.039 541.41C276.48 541.984 276.701 542.783 276.701 543.807V543.895ZM275.283 543.771C275.283 543.139 275.156 542.637 274.902 542.266C274.652 541.895 274.293 541.709 273.824 541.709C273.242 541.709 272.824 541.949 272.57 542.43V545.242C272.828 545.734 273.25 545.98 273.836 545.98C274.289 545.98 274.643 545.799 274.896 545.436C275.154 545.068 275.283 544.514 275.283 543.771ZM281.699 547C281.637 546.879 281.582 546.682 281.535 546.408C281.082 546.881 280.527 547.117 279.871 547.117C279.234 547.117 278.715 546.936 278.312 546.572C277.91 546.209 277.709 545.76 277.709 545.225C277.709 544.549 277.959 544.031 278.459 543.672C278.963 543.309 279.682 543.127 280.615 543.127H281.488V542.711C281.488 542.383 281.396 542.121 281.213 541.926C281.029 541.727 280.75 541.627 280.375 541.627C280.051 541.627 279.785 541.709 279.578 541.873C279.371 542.033 279.268 542.238 279.268 542.488H277.844C277.844 542.141 277.959 541.816 278.189 541.516C278.42 541.211 278.732 540.973 279.127 540.801C279.525 540.629 279.969 540.543 280.457 540.543C281.199 540.543 281.791 540.73 282.232 541.105C282.674 541.477 282.9 542 282.912 542.676V545.535C282.912 546.105 282.992 546.561 283.152 546.9V547H281.699ZM280.135 545.975C280.416 545.975 280.68 545.906 280.926 545.77C281.176 545.633 281.363 545.449 281.488 545.219V544.023H280.721C280.193 544.023 279.797 544.115 279.531 544.299C279.266 544.482 279.133 544.742 279.133 545.078C279.133 545.352 279.223 545.57 279.402 545.734C279.586 545.895 279.83 545.975 280.135 545.975Z" fill="#3C3C3B"/>
<path d="M694.887 529.83V533H693.404V524.469H696.668C697.621 524.469 698.377 524.717 698.936 525.213C699.498 525.709 699.779 526.365 699.779 527.182C699.779 528.018 699.504 528.668 698.953 529.133C698.406 529.598 697.639 529.83 696.65 529.83H694.887ZM694.887 528.641H696.668C697.195 528.641 697.598 528.518 697.875 528.271C698.152 528.021 698.291 527.662 698.291 527.193C698.291 526.732 698.15 526.365 697.869 526.092C697.588 525.814 697.201 525.672 696.709 525.664H694.887V528.641ZM704.66 533C704.598 532.879 704.543 532.682 704.496 532.408C704.043 532.881 703.488 533.117 702.832 533.117C702.195 533.117 701.676 532.936 701.273 532.572C700.871 532.209 700.67 531.76 700.67 531.225C700.67 530.549 700.92 530.031 701.42 529.672C701.924 529.309 702.643 529.127 703.576 529.127H704.449V528.711C704.449 528.383 704.357 528.121 704.174 527.926C703.99 527.727 703.711 527.627 703.336 527.627C703.012 527.627 702.746 527.709 702.539 527.873C702.332 528.033 702.229 528.238 702.229 528.488H700.805C700.805 528.141 700.92 527.816 701.15 527.516C701.381 527.211 701.693 526.973 702.088 526.801C702.486 526.629 702.93 526.543 703.418 526.543C704.16 526.543 704.752 526.73 705.193 527.105C705.635 527.477 705.861 528 705.873 528.676V531.535C705.873 532.105 705.953 532.561 706.113 532.9V533H704.66ZM703.096 531.975C703.377 531.975 703.641 531.906 703.887 531.77C704.137 531.633 704.324 531.449 704.449 531.219V530.023H703.682C703.154 530.023 702.758 530.115 702.492 530.299C702.227 530.482 702.094 530.742 702.094 531.078C702.094 531.352 702.184 531.57 702.363 531.734C702.547 531.895 702.791 531.975 703.096 531.975ZM709.969 531.98C710.324 531.98 710.619 531.877 710.854 531.67C711.088 531.463 711.213 531.207 711.229 530.902H712.57C712.555 531.297 712.432 531.666 712.201 532.01C711.971 532.35 711.658 532.619 711.264 532.818C710.869 533.018 710.443 533.117 709.986 533.117C709.1 533.117 708.396 532.83 707.877 532.256C707.357 531.682 707.098 530.889 707.098 529.877V529.73C707.098 528.766 707.355 527.994 707.871 527.416C708.387 526.834 709.09 526.543 709.98 526.543C710.734 526.543 711.348 526.764 711.82 527.205C712.297 527.643 712.547 528.219 712.57 528.934H711.229C711.213 528.57 711.088 528.271 710.854 528.037C710.623 527.803 710.328 527.686 709.969 527.686C709.508 527.686 709.152 527.854 708.902 528.189C708.652 528.521 708.525 529.027 708.521 529.707V529.936C708.521 530.623 708.645 531.137 708.891 531.477C709.141 531.812 709.5 531.98 709.969 531.98ZM718.729 533H717.305V530.885C716.938 530.971 716.551 531.014 716.145 531.014C715.277 531.014 714.615 530.807 714.158 530.393C713.701 529.975 713.473 529.377 713.473 528.6V526.654H714.896V528.6C714.896 529.061 714.998 529.387 715.201 529.578C715.408 529.77 715.723 529.865 716.145 529.865C716.527 529.865 716.914 529.82 717.305 529.73V526.66H718.729V533ZM723.035 533.117C722.133 533.117 721.4 532.834 720.838 532.268C720.279 531.697 720 530.939 720 529.994V529.818C720 529.186 720.121 528.621 720.363 528.125C720.609 527.625 720.953 527.236 721.395 526.959C721.836 526.682 722.328 526.543 722.871 526.543C723.734 526.543 724.4 526.818 724.869 527.369C725.342 527.92 725.578 528.699 725.578 529.707V530.281H721.436C721.479 530.805 721.652 531.219 721.957 531.523C722.266 531.828 722.652 531.98 723.117 531.98C723.77 531.98 724.301 531.717 724.711 531.189L725.479 531.922C725.225 532.301 724.885 532.596 724.459 532.807C724.037 533.014 723.562 533.117 723.035 533.117ZM722.865 527.686C722.475 527.686 722.158 527.822 721.916 528.096C721.678 528.369 721.525 528.75 721.459 529.238H724.172V529.133C724.141 528.656 724.014 528.297 723.791 528.055C723.568 527.809 723.26 527.686 722.865 527.686ZM731.607 527.791H729.551V533H728.127V527.791H726.094V526.66H731.607V527.791ZM739.506 526.66H740.924V533H739.506V528.77L737.021 533H735.604V526.66H737.021V530.891L739.506 526.66ZM747.809 533H746.385V530.439H743.918V533H742.494V526.66H743.918V529.303H746.385V526.66H747.809V533ZM749.092 529.918C749.092 528.883 749.295 528.062 749.701 527.457C750.111 526.848 750.682 526.543 751.412 526.543C751.709 526.543 751.979 526.598 752.221 526.707V524H753.639V526.73C753.889 526.605 754.182 526.543 754.518 526.543C755.244 526.543 755.812 526.846 756.223 527.451C756.637 528.053 756.844 528.916 756.844 530.041C756.844 530.99 756.637 531.74 756.223 532.291C755.809 532.842 755.244 533.117 754.529 533.117C754.205 533.117 753.908 533.059 753.639 532.941V535.438H752.221V532.965C751.982 533.066 751.709 533.117 751.4 533.117C750.717 533.117 750.17 532.865 749.76 532.361C749.354 531.854 749.133 531.156 749.098 530.27L749.092 529.918ZM755.42 529.918C755.42 529.207 755.307 528.658 755.08 528.271C754.854 527.881 754.533 527.686 754.119 527.686C753.943 527.686 753.783 527.711 753.639 527.762V531.922C753.768 531.961 753.932 531.98 754.131 531.98C754.99 531.98 755.42 531.293 755.42 529.918ZM750.51 530.041C750.51 530.674 750.615 531.156 750.826 531.488C751.037 531.816 751.35 531.98 751.764 531.98C751.939 531.98 752.092 531.961 752.221 531.922V527.744C752.088 527.705 751.939 527.686 751.775 527.686C751.369 527.686 751.057 527.875 750.838 528.254C750.619 528.629 750.51 529.225 750.51 530.041ZM762.029 526.66H763.447V533H762.029V528.77L759.545 533H758.127V526.66H759.545V530.891L762.029 526.66ZM770.35 526.66V533H768.926V527.809H767.133L767.016 530.018C766.941 531.08 766.736 531.844 766.4 532.309C766.068 532.77 765.559 533 764.871 533H764.432L764.426 531.816L764.719 531.787C765.031 531.744 765.258 531.555 765.398 531.219C765.543 530.879 765.635 530.262 765.674 529.367L765.791 526.66H770.35ZM773.396 528.676H774.791C775.311 528.676 775.764 528.766 776.15 528.945C776.537 529.125 776.83 529.377 777.029 529.701C777.232 530.025 777.334 530.402 777.334 530.832C777.334 531.484 777.104 532.008 776.643 532.402C776.182 532.797 775.568 532.996 774.803 533H771.973V526.66H773.396V528.676ZM773.396 529.818V531.863H774.785C775.133 531.863 775.406 531.777 775.605 531.605C775.809 531.43 775.91 531.182 775.91 530.861C775.91 530.541 775.811 530.289 775.611 530.105C775.416 529.918 775.15 529.822 774.814 529.818H773.396ZM782.584 527.791H780.527V533H779.104V527.791H777.07V526.66H782.584V527.791ZM789.088 529.895C789.088 530.875 788.865 531.658 788.42 532.244C787.975 532.826 787.377 533.117 786.627 533.117C785.932 533.117 785.375 532.889 784.957 532.432V535.438H783.533V526.66H784.846L784.904 527.305C785.322 526.797 785.891 526.543 786.609 526.543C787.383 526.543 787.988 526.832 788.426 527.41C788.867 527.984 789.088 528.783 789.088 529.807V529.895ZM787.67 529.771C787.67 529.139 787.543 528.637 787.289 528.266C787.039 527.895 786.68 527.709 786.211 527.709C785.629 527.709 785.211 527.949 784.957 528.43V531.242C785.215 531.734 785.637 531.98 786.223 531.98C786.676 531.98 787.029 531.799 787.283 531.436C787.541 531.068 787.67 530.514 787.67 529.771ZM794.086 533C794.023 532.879 793.969 532.682 793.922 532.408C793.469 532.881 792.914 533.117 792.258 533.117C791.621 533.117 791.102 532.936 790.699 532.572C790.297 532.209 790.096 531.76 790.096 531.225C790.096 530.549 790.346 530.031 790.846 529.672C791.35 529.309 792.068 529.127 793.002 529.127H793.875V528.711C793.875 528.383 793.783 528.121 793.6 527.926C793.416 527.727 793.137 527.627 792.762 527.627C792.438 527.627 792.172 527.709 791.965 527.873C791.758 528.033 791.654 528.238 791.654 528.488H790.23C790.23 528.141 790.346 527.816 790.576 527.516C790.807 527.211 791.119 526.973 791.514 526.801C791.912 526.629 792.355 526.543 792.844 526.543C793.586 526.543 794.178 526.73 794.619 527.105C795.061 527.477 795.287 528 795.299 528.676V531.535C795.299 532.105 795.379 532.561 795.539 532.9V533H794.086ZM792.521 531.975C792.803 531.975 793.066 531.906 793.312 531.77C793.562 531.633 793.75 531.449 793.875 531.219V530.023H793.107C792.58 530.023 792.184 530.115 791.918 530.299C791.652 530.482 791.52 530.742 791.52 531.078C791.52 531.352 791.609 531.57 791.789 531.734C791.973 531.895 792.217 531.975 792.521 531.975ZM796.846 526.66H798.27V531.863H800.742V526.66H802.166V531.863H803.027L802.91 534.881H801.615V533H796.846V526.66ZM807.99 526.66H809.408V533H807.99V528.77L805.506 533H804.088V526.66H805.506V530.891L807.99 526.66ZM810.656 529.771C810.656 529.15 810.779 528.592 811.025 528.096C811.271 527.596 811.617 527.213 812.062 526.947C812.508 526.678 813.02 526.543 813.598 526.543C814.453 526.543 815.146 526.818 815.678 527.369C816.213 527.92 816.502 528.65 816.545 529.561L816.551 529.895C816.551 530.52 816.43 531.078 816.188 531.57C815.949 532.062 815.605 532.443 815.156 532.713C814.711 532.982 814.195 533.117 813.609 533.117C812.715 533.117 811.998 532.82 811.459 532.227C810.924 531.629 810.656 530.834 810.656 529.842V529.771ZM812.08 529.895C812.08 530.547 812.215 531.059 812.484 531.43C812.754 531.797 813.129 531.98 813.609 531.98C814.09 531.98 814.463 531.793 814.729 531.418C814.998 531.043 815.133 530.494 815.133 529.771C815.133 529.131 814.994 528.623 814.717 528.248C814.443 527.873 814.07 527.686 813.598 527.686C813.133 527.686 812.764 527.871 812.49 528.242C812.217 528.609 812.08 529.16 812.08 529.895ZM823.125 533H821.701V530.439H819.234V533H817.811V526.66H819.234V529.303H821.701V526.66H823.125V533ZM830.016 533H828.592V530.439H826.125V533H824.701V526.66H826.125V529.303H828.592V526.66H830.016V533ZM831.27 529.771C831.27 529.15 831.393 528.592 831.639 528.096C831.885 527.596 832.23 527.213 832.676 526.947C833.121 526.678 833.633 526.543 834.211 526.543C835.066 526.543 835.76 526.818 836.291 527.369C836.826 527.92 837.115 528.65 837.158 529.561L837.164 529.895C837.164 530.52 837.043 531.078 836.801 531.57C836.562 532.062 836.219 532.443 835.77 532.713C835.324 532.982 834.809 533.117 834.223 533.117C833.328 533.117 832.611 532.82 832.072 532.227C831.537 531.629 831.27 530.834 831.27 529.842V529.771ZM832.693 529.895C832.693 530.547 832.828 531.059 833.098 531.43C833.367 531.797 833.742 531.98 834.223 531.98C834.703 531.98 835.076 531.793 835.342 531.418C835.611 531.043 835.746 530.494 835.746 529.771C835.746 529.131 835.607 528.623 835.33 528.248C835.057 527.873 834.684 527.686 834.211 527.686C833.746 527.686 833.377 527.871 833.104 528.242C832.83 528.609 832.693 529.16 832.693 529.895ZM842.59 527.809H839.836V533H838.418V526.66H842.59V527.809ZM843.012 529.771C843.012 529.15 843.135 528.592 843.381 528.096C843.627 527.596 843.973 527.213 844.418 526.947C844.863 526.678 845.375 526.543 845.953 526.543C846.809 526.543 847.502 526.818 848.033 527.369C848.568 527.92 848.857 528.65 848.9 529.561L848.906 529.895C848.906 530.52 848.785 531.078 848.543 531.57C848.305 532.062 847.961 532.443 847.512 532.713C847.066 532.982 846.551 533.117 845.965 533.117C845.07 533.117 844.354 532.82 843.814 532.227C843.279 531.629 843.012 530.834 843.012 529.842V529.771ZM844.436 529.895C844.436 530.547 844.57 531.059 844.84 531.43C845.109 531.797 845.484 531.98 845.965 531.98C846.445 531.98 846.818 531.793 847.084 531.418C847.354 531.043 847.488 530.494 847.488 529.771C847.488 529.131 847.35 528.623 847.072 528.248C846.799 527.873 846.426 527.686 845.953 527.686C845.488 527.686 845.119 527.871 844.846 528.242C844.572 528.609 844.436 529.16 844.436 529.895ZM858.088 527.791H856.031V533H854.607V527.791H852.574V526.66H858.088V527.791ZM858.598 529.771C858.598 529.15 858.721 528.592 858.967 528.096C859.213 527.596 859.559 527.213 860.004 526.947C860.449 526.678 860.961 526.543 861.539 526.543C862.395 526.543 863.088 526.818 863.619 527.369C864.154 527.92 864.443 528.65 864.486 529.561L864.492 529.895C864.492 530.52 864.371 531.078 864.129 531.57C863.891 532.062 863.547 532.443 863.098 532.713C862.652 532.982 862.137 533.117 861.551 533.117C860.656 533.117 859.939 532.82 859.4 532.227C858.865 531.629 858.598 530.834 858.598 529.842V529.771ZM860.021 529.895C860.021 530.547 860.156 531.059 860.426 531.43C860.695 531.797 861.07 531.98 861.551 531.98C862.031 531.98 862.404 531.793 862.67 531.418C862.939 531.043 863.074 530.494 863.074 529.771C863.074 529.131 862.936 528.623 862.658 528.248C862.385 527.873 862.012 527.686 861.539 527.686C861.074 527.686 860.705 527.871 860.432 528.242C860.158 528.609 860.021 529.16 860.021 529.895ZM871.066 533H869.643V530.439H867.176V533H865.752V526.66H867.176V529.303H869.643V526.66H871.066V533ZM877.957 533H876.533V530.439H874.066V533H872.643V526.66H874.066V529.303H876.533V526.66H877.957V533ZM882.27 533.117C881.367 533.117 880.635 532.834 880.072 532.268C879.514 531.697 879.234 530.939 879.234 529.994V529.818C879.234 529.186 879.355 528.621 879.598 528.125C879.844 527.625 880.188 527.236 880.629 526.959C881.07 526.682 881.562 526.543 882.105 526.543C882.969 526.543 883.635 526.818 884.104 527.369C884.576 527.92 884.812 528.699 884.812 529.707V530.281H880.67C880.713 530.805 880.887 531.219 881.191 531.523C881.5 531.828 881.887 531.98 882.352 531.98C883.004 531.98 883.535 531.717 883.945 531.189L884.713 531.922C884.459 532.301 884.119 532.596 883.693 532.807C883.271 533.014 882.797 533.117 882.27 533.117ZM882.1 527.686C881.709 527.686 881.393 527.822 881.15 528.096C880.912 528.369 880.76 528.75 880.693 529.238H883.406V529.133C883.375 528.656 883.248 528.297 883.025 528.055C882.803 527.809 882.494 527.686 882.1 527.686ZM891.311 526.66V533H889.887V527.809H888.094L887.977 530.018C887.902 531.08 887.697 531.844 887.361 532.309C887.029 532.77 886.52 533 885.832 533H885.393L885.387 531.816L885.68 531.787C885.992 531.744 886.219 531.555 886.359 531.219C886.504 530.879 886.596 530.262 886.635 529.367L886.752 526.66H891.311ZM897.902 526.66V533H896.484V530.674H895.154L893.801 533H892.324L893.818 530.439C893.428 530.275 893.127 530.041 892.916 529.736C892.709 529.432 892.605 529.082 892.605 528.688C892.605 528.098 892.832 527.615 893.285 527.24C893.742 526.861 894.357 526.668 895.131 526.66H897.902ZM894.029 528.723C894.029 528.988 894.127 529.205 894.322 529.373C894.521 529.537 894.775 529.619 895.084 529.619H896.484V527.791H895.172C894.824 527.791 894.547 527.879 894.34 528.055C894.133 528.23 894.029 528.453 894.029 528.723ZM907.846 533H906.422V527.809H903.949V533H902.525V526.66H907.846V533ZM909.094 529.771C909.094 529.15 909.217 528.592 909.463 528.096C909.709 527.596 910.055 527.213 910.5 526.947C910.945 526.678 911.457 526.543 912.035 526.543C912.891 526.543 913.584 526.818 914.115 527.369C914.65 527.92 914.939 528.65 914.982 529.561L914.988 529.895C914.988 530.52 914.867 531.078 914.625 531.57C914.387 532.062 914.043 532.443 913.594 532.713C913.148 532.982 912.633 533.117 912.047 533.117C911.152 533.117 910.436 532.82 909.896 532.227C909.361 531.629 909.094 530.834 909.094 529.842V529.771ZM910.518 529.895C910.518 530.547 910.652 531.059 910.922 531.43C911.191 531.797 911.566 531.98 912.047 531.98C912.527 531.98 912.9 531.793 913.166 531.418C913.436 531.043 913.57 530.494 913.57 529.771C913.57 529.131 913.432 528.623 913.154 528.248C912.881 527.873 912.508 527.686 912.035 527.686C911.57 527.686 911.201 527.871 910.928 528.242C910.654 528.609 910.518 529.16 910.518 529.895ZM745.834 543.771C745.834 543.15 745.957 542.592 746.203 542.096C746.449 541.596 746.795 541.213 747.24 540.947C747.686 540.678 748.197 540.543 748.775 540.543C749.631 540.543 750.324 540.818 750.855 541.369C751.391 541.92 751.68 542.65 751.723 543.561L751.729 543.895C751.729 544.52 751.607 545.078 751.365 545.57C751.127 546.062 750.783 546.443 750.334 546.713C749.889 546.982 749.373 547.117 748.787 547.117C747.893 547.117 747.176 546.82 746.637 546.227C746.102 545.629 745.834 544.834 745.834 543.842V543.771ZM747.258 543.895C747.258 544.547 747.393 545.059 747.662 545.43C747.932 545.797 748.307 545.98 748.787 545.98C749.268 545.98 749.641 545.793 749.906 545.418C750.176 545.043 750.311 544.494 750.311 543.771C750.311 543.131 750.172 542.623 749.895 542.248C749.621 541.873 749.248 541.686 748.775 541.686C748.311 541.686 747.941 541.871 747.668 542.242C747.395 542.609 747.258 543.16 747.258 543.895ZM755.918 541.012C756.715 541.012 757.354 541.279 757.834 541.814C758.314 542.346 758.555 543.068 758.555 543.982V544.053C758.555 544.967 758.293 545.707 757.77 546.273C757.25 546.84 756.543 547.123 755.648 547.123C754.777 547.123 754.074 546.834 753.539 546.256C753.004 545.678 752.736 544.889 752.736 543.889V543.479C752.736 542.111 752.979 541.029 753.463 540.232C753.947 539.436 754.67 538.938 755.631 538.738C756.17 538.629 756.518 538.514 756.674 538.393C756.834 538.268 756.914 538.1 756.914 537.889H758.062C758.062 538.283 757.998 538.604 757.869 538.85C757.74 539.096 757.543 539.297 757.277 539.453C757.012 539.605 756.555 539.75 755.906 539.887C755.312 540.012 754.859 540.234 754.547 540.555C754.238 540.875 754.031 541.318 753.926 541.885C754.492 541.303 755.156 541.012 755.918 541.012ZM755.637 542.154C755.176 542.154 754.814 542.311 754.553 542.623C754.291 542.932 754.16 543.408 754.16 544.053C754.16 544.662 754.289 545.137 754.547 545.477C754.805 545.816 755.172 545.986 755.648 545.986C756.121 545.986 756.486 545.816 756.744 545.477C757.006 545.133 757.137 544.617 757.137 543.93C757.137 543.383 757.006 542.951 756.744 542.635C756.486 542.314 756.117 542.154 755.637 542.154ZM762.375 542.676H763.77C764.289 542.676 764.742 542.766 765.129 542.945C765.516 543.125 765.809 543.377 766.008 543.701C766.211 544.025 766.312 544.402 766.312 544.832C766.312 545.484 766.082 546.008 765.621 546.402C765.16 546.797 764.547 546.996 763.781 547H760.951V541.809H759.123V540.66H762.375V542.676ZM762.375 543.818V545.863H763.764C764.111 545.863 764.385 545.777 764.584 545.605C764.787 545.43 764.889 545.182 764.889 544.861C764.889 544.541 764.789 544.289 764.59 544.105C764.395 543.918 764.129 543.822 763.793 543.818H762.375ZM770.104 547.117C769.201 547.117 768.469 546.834 767.906 546.268C767.348 545.697 767.068 544.939 767.068 543.994V543.818C767.068 543.186 767.189 542.621 767.432 542.125C767.678 541.625 768.021 541.236 768.463 540.959C768.904 540.682 769.396 540.543 769.939 540.543C770.803 540.543 771.469 540.818 771.938 541.369C772.41 541.92 772.646 542.699 772.646 543.707V544.281H768.504C768.547 544.805 768.721 545.219 769.025 545.523C769.334 545.828 769.721 545.98 770.186 545.98C770.838 545.98 771.369 545.717 771.779 545.189L772.547 545.922C772.293 546.301 771.953 546.596 771.527 546.807C771.105 547.014 770.631 547.117 770.104 547.117ZM769.934 541.686C769.543 541.686 769.227 541.822 768.984 542.096C768.746 542.369 768.594 542.75 768.527 543.238H771.24V543.133C771.209 542.656 771.082 542.297 770.859 542.055C770.637 541.809 770.328 541.686 769.934 541.686ZM777.521 545.248L779.396 540.66H781.178V547H779.754V542.805L778.008 547H777.041L775.289 542.781V547H773.865V540.66H775.658L777.521 545.248ZM784.998 544.961L786.287 540.66H787.805L785.285 547.961C784.898 549.027 784.242 549.561 783.316 549.561C783.109 549.561 782.881 549.525 782.631 549.455V548.354L782.9 548.371C783.26 548.371 783.529 548.305 783.709 548.172C783.893 548.043 784.037 547.824 784.143 547.516L784.348 546.971L782.121 540.66H783.656L784.998 544.961ZM794.221 545.98C794.576 545.98 794.871 545.877 795.105 545.67C795.34 545.463 795.465 545.207 795.48 544.902H796.822C796.807 545.297 796.684 545.666 796.453 546.01C796.223 546.35 795.91 546.619 795.516 546.818C795.121 547.018 794.695 547.117 794.238 547.117C793.352 547.117 792.648 546.83 792.129 546.256C791.609 545.682 791.35 544.889 791.35 543.877V543.73C791.35 542.766 791.607 541.994 792.123 541.416C792.639 540.834 793.342 540.543 794.232 540.543C794.986 540.543 795.6 540.764 796.072 541.205C796.549 541.643 796.799 542.219 796.822 542.934H795.48C795.465 542.57 795.34 542.271 795.105 542.037C794.875 541.803 794.58 541.686 794.221 541.686C793.76 541.686 793.404 541.854 793.154 542.189C792.904 542.521 792.777 543.027 792.773 543.707V543.936C792.773 544.623 792.896 545.137 793.143 545.477C793.393 545.812 793.752 545.98 794.221 545.98ZM802.887 541.791H800.83V547H799.406V541.791H797.373V540.66H802.887V541.791ZM803.396 543.771C803.396 543.15 803.52 542.592 803.766 542.096C804.012 541.596 804.357 541.213 804.803 540.947C805.248 540.678 805.76 540.543 806.338 540.543C807.193 540.543 807.887 540.818 808.418 541.369C808.953 541.92 809.242 542.65 809.285 543.561L809.291 543.895C809.291 544.52 809.17 545.078 808.928 545.57C808.689 546.062 808.346 546.443 807.896 546.713C807.451 546.982 806.936 547.117 806.35 547.117C805.455 547.117 804.738 546.82 804.199 546.227C803.664 545.629 803.396 544.834 803.396 543.842V543.771ZM804.82 543.895C804.82 544.547 804.955 545.059 805.225 545.43C805.494 545.797 805.869 545.98 806.35 545.98C806.83 545.98 807.203 545.793 807.469 545.418C807.738 545.043 807.873 544.494 807.873 543.771C807.873 543.131 807.734 542.623 807.457 542.248C807.184 541.873 806.811 541.686 806.338 541.686C805.873 541.686 805.504 541.871 805.23 542.242C804.957 542.609 804.82 543.16 804.82 543.895ZM815.578 547H814.154V544.885C813.787 544.971 813.4 545.014 812.994 545.014C812.127 545.014 811.465 544.807 811.008 544.393C810.551 543.975 810.322 543.377 810.322 542.6V540.654H811.746V542.6C811.746 543.061 811.848 543.387 812.051 543.578C812.258 543.77 812.572 543.865 812.994 543.865C813.377 543.865 813.764 543.82 814.154 543.73V540.66H815.578V547ZM822.463 547H821.039V544.439H818.572V547H817.148V540.66H818.572V543.303H821.039V540.66H822.463V547ZM825.516 542.676H826.91C827.43 542.676 827.883 542.766 828.27 542.945C828.656 543.125 828.949 543.377 829.148 543.701C829.352 544.025 829.453 544.402 829.453 544.832C829.453 545.484 829.223 546.008 828.762 546.402C828.301 546.797 827.688 546.996 826.922 547H824.092V540.66H825.516V542.676ZM831.932 547H830.508V540.66H831.932V547ZM825.516 543.818V545.863H826.904C827.252 545.863 827.525 545.777 827.725 545.605C827.928 545.43 828.029 545.182 828.029 544.861C828.029 544.541 827.93 544.289 827.73 544.105C827.535 543.918 827.27 543.822 826.934 543.818H825.516ZM835.916 542.746L837.123 540.66H838.705L836.766 543.783L838.77 547H837.199L835.934 544.832L834.674 547H833.092L835.096 543.783L833.162 540.66H834.732L835.916 542.746ZM842.771 547V540.66H845.344C846.211 540.66 846.871 540.812 847.324 541.117C847.777 541.418 848.004 541.852 848.004 542.418C848.004 542.711 847.912 542.975 847.729 543.209C847.549 543.439 847.281 543.617 846.926 543.742C847.34 543.828 847.668 544.002 847.91 544.264C848.152 544.525 848.273 544.834 848.273 545.189C848.273 545.779 848.055 546.229 847.617 546.537C847.184 546.846 846.559 547 845.742 547H842.771ZM844.195 544.299V545.875H845.754C846.484 545.875 846.85 545.613 846.85 545.09C846.85 544.562 846.479 544.299 845.736 544.299H844.195ZM844.195 543.279H845.367C846.176 543.279 846.58 543.041 846.58 542.564C846.58 542.064 846.197 541.807 845.432 541.791H844.195V543.279ZM849.24 543.771C849.24 543.15 849.363 542.592 849.609 542.096C849.855 541.596 850.201 541.213 850.646 540.947C851.092 540.678 851.604 540.543 852.182 540.543C853.037 540.543 853.73 540.818 854.262 541.369C854.797 541.92 855.086 542.65 855.129 543.561L855.135 543.895C855.135 544.52 855.014 545.078 854.771 545.57C854.533 546.062 854.189 546.443 853.74 546.713C853.295 546.982 852.779 547.117 852.193 547.117C851.299 547.117 850.582 546.82 850.043 546.227C849.508 545.629 849.24 544.834 849.24 543.842V543.771ZM850.664 543.895C850.664 544.547 850.799 545.059 851.068 545.43C851.338 545.797 851.713 545.98 852.193 545.98C852.674 545.98 853.047 545.793 853.312 545.418C853.582 545.043 853.717 544.494 853.717 543.771C853.717 543.131 853.578 542.623 853.301 542.248C853.027 541.873 852.654 541.686 852.182 541.686C851.717 541.686 851.348 541.871 851.074 542.242C850.801 542.609 850.664 543.16 850.664 543.895ZM855.943 545.863C856.338 545.422 856.602 545.004 856.734 544.609C856.871 544.211 856.953 543.703 856.98 543.086L857.062 540.66H861.463V545.863H862.342V548.887H860.924V547H856.857V548.887H855.416L855.422 545.863H855.943ZM857.613 545.863H860.045V541.885H858.445L858.404 543.098C858.35 544.262 858.086 545.184 857.613 545.863Z" fill="#3C3C3B"/>
<rect x="111" y="209" width="115" height="295" fill="#FECF9B"/>
<rect x="678" y="209" width="115" height="295" fill="#FECF9B"/>
<rect x="228" y="115" width="115" height="389" fill="#37FF9F"/>
<rect x="795" y="115" width="115" height="389" fill="#37FF9F"/>
<line x1="286.25" y1="103" x2="286.25" y2="113" stroke="#3C3C3B" stroke-width="0.5"/>
<line x1="853.25" y1="103" x2="853.25" y2="113" stroke="#3C3C3B" stroke-width="0.5"/>
<line x1="169.25" y1="196" x2="169.25" y2="206" stroke="#3C3C3B" stroke-width="0.5"/>
<line x1="736.25" y1="196" x2="736.25" y2="206" stroke="#3C3C3B" stroke-width="0.5"/>
<path d="M168.146 193H162.803V192.461L165.727 189.145C166.211 188.586 166.547 188.125 166.734 187.762C166.922 187.398 167.016 187.045 167.016 186.701C167.016 186.162 166.857 185.736 166.541 185.424C166.225 185.107 165.789 184.949 165.234 184.949C164.66 184.949 164.195 185.133 163.84 185.5C163.488 185.867 163.312 186.344 163.312 186.93H162.615C162.615 186.449 162.723 186.012 162.938 185.617C163.156 185.223 163.465 184.914 163.863 184.691C164.266 184.465 164.723 184.352 165.234 184.352C166.016 184.352 166.625 184.557 167.062 184.967C167.504 185.377 167.725 185.936 167.725 186.643C167.725 187.041 167.6 187.477 167.35 187.949C167.104 188.422 166.668 189.012 166.043 189.719L163.664 192.408H168.146V193ZM174.486 186.666C174.486 187.107 174.357 187.504 174.1 187.855C173.842 188.203 173.502 188.459 173.08 188.623C173.572 188.791 173.967 189.062 174.264 189.438C174.561 189.812 174.709 190.246 174.709 190.738C174.709 191.469 174.461 192.049 173.965 192.479C173.469 192.904 172.812 193.117 171.996 193.117C171.172 193.117 170.512 192.904 170.016 192.479C169.523 192.053 169.277 191.473 169.277 190.738C169.277 190.254 169.42 189.822 169.705 189.443C169.99 189.064 170.381 188.791 170.877 188.623C170.455 188.459 170.119 188.203 169.869 187.855C169.619 187.504 169.494 187.107 169.494 186.666C169.494 185.959 169.721 185.396 170.174 184.979C170.631 184.561 171.234 184.352 171.984 184.352C172.734 184.352 173.338 184.562 173.795 184.984C174.256 185.406 174.486 185.967 174.486 186.666ZM174.006 190.744C174.006 190.213 173.816 189.777 173.438 189.438C173.059 189.094 172.574 188.922 171.984 188.922C171.395 188.922 170.912 189.09 170.537 189.426C170.162 189.762 169.975 190.201 169.975 190.744C169.975 191.287 170.156 191.721 170.52 192.045C170.883 192.365 171.375 192.525 171.996 192.525C172.602 192.525 173.088 192.365 173.455 192.045C173.822 191.725 174.006 191.291 174.006 190.744ZM173.783 186.66C173.783 186.172 173.613 185.766 173.273 185.441C172.938 185.113 172.508 184.949 171.984 184.949C171.453 184.949 171.021 185.107 170.689 185.424C170.361 185.736 170.197 186.148 170.197 186.66C170.197 187.16 170.361 187.562 170.689 187.867C171.021 188.172 171.455 188.324 171.99 188.324C172.518 188.324 172.947 188.172 173.279 187.867C173.615 187.559 173.783 187.156 173.783 186.66Z" fill="#3C3C3B"/>
<path d="M735.146 193H729.803V192.461L732.727 189.145C733.211 188.586 733.547 188.125 733.734 187.762C733.922 187.398 734.016 187.045 734.016 186.701C734.016 186.162 733.857 185.736 733.541 185.424C733.225 185.107 732.789 184.949 732.234 184.949C731.66 184.949 731.195 185.133 730.84 185.5C730.488 185.867 730.312 186.344 730.312 186.93H729.615C729.615 186.449 729.723 186.012 729.938 185.617C730.156 185.223 730.465 184.914 730.863 184.691C731.266 184.465 731.723 184.352 732.234 184.352C733.016 184.352 733.625 184.557 734.062 184.967C734.504 185.377 734.725 185.936 734.725 186.643C734.725 187.041 734.6 187.477 734.35 187.949C734.104 188.422 733.668 189.012 733.043 189.719L730.664 192.408H735.146V193ZM741.486 186.666C741.486 187.107 741.357 187.504 741.1 187.855C740.842 188.203 740.502 188.459 740.08 188.623C740.572 188.791 740.967 189.062 741.264 189.438C741.561 189.812 741.709 190.246 741.709 190.738C741.709 191.469 741.461 192.049 740.965 192.479C740.469 192.904 739.812 193.117 738.996 193.117C738.172 193.117 737.512 192.904 737.016 192.479C736.523 192.053 736.277 191.473 736.277 190.738C736.277 190.254 736.42 189.822 736.705 189.443C736.99 189.064 737.381 188.791 737.877 188.623C737.455 188.459 737.119 188.203 736.869 187.855C736.619 187.504 736.494 187.107 736.494 186.666C736.494 185.959 736.721 185.396 737.174 184.979C737.631 184.561 738.234 184.352 738.984 184.352C739.734 184.352 740.338 184.562 740.795 184.984C741.256 185.406 741.486 185.967 741.486 186.666ZM741.006 190.744C741.006 190.213 740.816 189.777 740.438 189.438C740.059 189.094 739.574 188.922 738.984 188.922C738.395 188.922 737.912 189.09 737.537 189.426C737.162 189.762 736.975 190.201 736.975 190.744C736.975 191.287 737.156 191.721 737.52 192.045C737.883 192.365 738.375 192.525 738.996 192.525C739.602 192.525 740.088 192.365 740.455 192.045C740.822 191.725 741.006 191.291 741.006 190.744ZM740.783 186.66C740.783 186.172 740.613 185.766 740.273 185.441C739.938 185.113 739.508 184.949 738.984 184.949C738.453 184.949 738.021 185.107 737.689 185.424C737.361 185.736 737.197 186.148 737.197 186.66C737.197 187.16 737.361 187.562 737.689 187.867C738.021 188.172 738.455 188.324 738.99 188.324C739.518 188.324 739.947 188.172 740.279 187.867C740.615 187.559 740.783 187.156 740.783 186.66Z" fill="#3C3C3B"/>
<path d="M281.361 95.3535H282.088C282.49 95.3535 282.842 95.2832 283.143 95.1426C283.443 94.998 283.672 94.8027 283.828 94.5566C283.988 94.3066 284.068 94.0195 284.068 93.6953C284.068 93.1484 283.914 92.7207 283.605 92.4121C283.297 92.1035 282.854 91.9492 282.275 91.9492C281.729 91.9492 281.279 92.1113 280.928 92.4355C280.58 92.7559 280.406 93.1797 280.406 93.707H279.703C279.703 93.2656 279.814 92.8633 280.037 92.5C280.26 92.1328 280.568 91.8496 280.963 91.6504C281.357 91.4512 281.795 91.3516 282.275 91.3516C283.049 91.3516 283.658 91.5625 284.104 91.9844C284.549 92.4062 284.771 92.9844 284.771 93.7188C284.771 94.1289 284.641 94.5078 284.379 94.8555C284.121 95.1992 283.766 95.457 283.312 95.6289C283.844 95.7773 284.246 96.0332 284.52 96.3965C284.793 96.7559 284.93 97.1855 284.93 97.6855C284.93 98.416 284.691 99.0039 284.215 99.4492C283.738 99.8945 283.102 100.117 282.305 100.117C281.797 100.117 281.33 100.016 280.904 99.8125C280.482 99.6094 280.154 99.3262 279.92 98.9629C279.689 98.5957 279.574 98.1699 279.574 97.6855H280.277C280.277 98.2285 280.467 98.6719 280.846 99.0156C281.225 99.3555 281.711 99.5254 282.305 99.5254C282.91 99.5254 283.381 99.3711 283.717 99.0625C284.057 98.75 284.227 98.2988 284.227 97.709C284.227 97.1387 284.043 96.7031 283.676 96.4023C283.312 96.1016 282.775 95.9512 282.064 95.9512H281.361V95.3535ZM291.486 93.666C291.486 94.1074 291.357 94.5039 291.1 94.8555C290.842 95.2031 290.502 95.459 290.08 95.623C290.572 95.791 290.967 96.0625 291.264 96.4375C291.561 96.8125 291.709 97.2461 291.709 97.7383C291.709 98.4688 291.461 99.0488 290.965 99.4785C290.469 99.9043 289.812 100.117 288.996 100.117C288.172 100.117 287.512 99.9043 287.016 99.4785C286.523 99.0527 286.277 98.4727 286.277 97.7383C286.277 97.2539 286.42 96.8223 286.705 96.4434C286.99 96.0645 287.381 95.791 287.877 95.623C287.455 95.459 287.119 95.2031 286.869 94.8555C286.619 94.5039 286.494 94.1074 286.494 93.666C286.494 92.959 286.721 92.3965 287.174 91.9785C287.631 91.5605 288.234 91.3516 288.984 91.3516C289.734 91.3516 290.338 91.5625 290.795 91.9844C291.256 92.4062 291.486 92.9668 291.486 93.666ZM291.006 97.7441C291.006 97.2129 290.816 96.7773 290.438 96.4375C290.059 96.0938 289.574 95.9219 288.984 95.9219C288.395 95.9219 287.912 96.0898 287.537 96.4258C287.162 96.7617 286.975 97.2012 286.975 97.7441C286.975 98.2871 287.156 98.7207 287.52 99.0449C287.883 99.3652 288.375 99.5254 288.996 99.5254C289.602 99.5254 290.088 99.3652 290.455 99.0449C290.822 98.7246 291.006 98.291 291.006 97.7441ZM290.783 93.6602C290.783 93.1719 290.613 92.7656 290.273 92.4414C289.938 92.1133 289.508 91.9492 288.984 91.9492C288.453 91.9492 288.021 92.1074 287.689 92.4238C287.361 92.7363 287.197 93.1484 287.197 93.6602C287.197 94.1602 287.361 94.5625 287.689 94.8672C288.021 95.1719 288.455 95.3242 288.99 95.3242C289.518 95.3242 289.947 95.1719 290.279 94.8672C290.615 94.5586 290.783 94.1562 290.783 93.6602Z" fill="#3C3C3B"/>
<path d="M848.361 95.3535H849.088C849.49 95.3535 849.842 95.2832 850.143 95.1426C850.443 94.998 850.672 94.8027 850.828 94.5566C850.988 94.3066 851.068 94.0195 851.068 93.6953C851.068 93.1484 850.914 92.7207 850.605 92.4121C850.297 92.1035 849.854 91.9492 849.275 91.9492C848.729 91.9492 848.279 92.1113 847.928 92.4355C847.58 92.7559 847.406 93.1797 847.406 93.707H846.703C846.703 93.2656 846.814 92.8633 847.037 92.5C847.26 92.1328 847.568 91.8496 847.963 91.6504C848.357 91.4512 848.795 91.3516 849.275 91.3516C850.049 91.3516 850.658 91.5625 851.104 91.9844C851.549 92.4062 851.771 92.9844 851.771 93.7188C851.771 94.1289 851.641 94.5078 851.379 94.8555C851.121 95.1992 850.766 95.457 850.312 95.6289C850.844 95.7773 851.246 96.0332 851.52 96.3965C851.793 96.7559 851.93 97.1855 851.93 97.6855C851.93 98.416 851.691 99.0039 851.215 99.4492C850.738 99.8945 850.102 100.117 849.305 100.117C848.797 100.117 848.33 100.016 847.904 99.8125C847.482 99.6094 847.154 99.3262 846.92 98.9629C846.689 98.5957 846.574 98.1699 846.574 97.6855H847.277C847.277 98.2285 847.467 98.6719 847.846 99.0156C848.225 99.3555 848.711 99.5254 849.305 99.5254C849.91 99.5254 850.381 99.3711 850.717 99.0625C851.057 98.75 851.227 98.2988 851.227 97.709C851.227 97.1387 851.043 96.7031 850.676 96.4023C850.312 96.1016 849.775 95.9512 849.064 95.9512H848.361V95.3535ZM858.486 93.666C858.486 94.1074 858.357 94.5039 858.1 94.8555C857.842 95.2031 857.502 95.459 857.08 95.623C857.572 95.791 857.967 96.0625 858.264 96.4375C858.561 96.8125 858.709 97.2461 858.709 97.7383C858.709 98.4688 858.461 99.0488 857.965 99.4785C857.469 99.9043 856.812 100.117 855.996 100.117C855.172 100.117 854.512 99.9043 854.016 99.4785C853.523 99.0527 853.277 98.4727 853.277 97.7383C853.277 97.2539 853.42 96.8223 853.705 96.4434C853.99 96.0645 854.381 95.791 854.877 95.623C854.455 95.459 854.119 95.2031 853.869 94.8555C853.619 94.5039 853.494 94.1074 853.494 93.666C853.494 92.959 853.721 92.3965 854.174 91.9785C854.631 91.5605 855.234 91.3516 855.984 91.3516C856.734 91.3516 857.338 91.5625 857.795 91.9844C858.256 92.4062 858.486 92.9668 858.486 93.666ZM858.006 97.7441C858.006 97.2129 857.816 96.7773 857.438 96.4375C857.059 96.0938 856.574 95.9219 855.984 95.9219C855.395 95.9219 854.912 96.0898 854.537 96.4258C854.162 96.7617 853.975 97.2012 853.975 97.7441C853.975 98.2871 854.156 98.7207 854.52 99.0449C854.883 99.3652 855.375 99.5254 855.996 99.5254C856.602 99.5254 857.088 99.3652 857.455 99.0449C857.822 98.7246 858.006 98.291 858.006 97.7441ZM857.783 93.6602C857.783 93.1719 857.613 92.7656 857.273 92.4414C856.938 92.1133 856.508 91.9492 855.984 91.9492C855.453 91.9492 855.021 92.1074 854.689 92.4238C854.361 92.7363 854.197 93.1484 854.197 93.6602C854.197 94.1602 854.361 94.5625 854.689 94.8672C855.021 95.1719 855.455 95.3242 855.99 95.3242C856.518 95.3242 856.947 95.1719 857.279 94.8672C857.615 94.5586 857.783 94.1562 857.783 93.6602Z" fill="#3C3C3B"/>
</svg>
