<svg width="1088" height="569" viewBox="0 0 1088 569" fill="none" xmlns="http://www.w3.org/2000/svg">
<line y1="512" x2="1088" y2="512" stroke="black" stroke-width="2"/>
<line y1="476" x2="1088" y2="476" stroke="#CECECE" stroke-width="2"/>
<line y1="458.5" x2="1088" y2="458.5" stroke="#DDDDDD"/>
<line y1="386.5" x2="1088" y2="386.5" stroke="#DDDDDD"/>
<line y1="314.5" x2="1088" y2="314.5" stroke="#DDDDDD"/>
<line y1="242.5" x2="1088" y2="242.5" stroke="#DDDDDD"/>
<line y1="170.5" x2="1088" y2="170.5" stroke="#DDDDDD"/>
<line y1="98.5" x2="1088" y2="98.5" stroke="#DDDDDD"/>
<line y1="26.5" x2="1088" y2="26.5" stroke="#DDDDDD"/>
<line y1="422.5" x2="1088" y2="422.5" stroke="#DDDDDD"/>
<line y1="350.5" x2="1088" y2="350.5" stroke="#DDDDDD"/>
<line y1="278.5" x2="1088" y2="278.5" stroke="#DDDDDD"/>
<line y1="206.5" x2="1088" y2="206.5" stroke="#DDDDDD"/>
<line y1="134.5" x2="1088" y2="134.5" stroke="#DDDDDD"/>
<line y1="62.5" x2="1088" y2="62.5" stroke="#DDDDDD"/>
<line y1="440" x2="1088" y2="440" stroke="#CECECE" stroke-width="2"/>
<line y1="404" x2="1088" y2="404" stroke="#CECECE" stroke-width="2"/>
<line y1="368" x2="1088" y2="368" stroke="#CECECE" stroke-width="2"/>
<line y1="332" x2="1088" y2="332" stroke="#CECECE" stroke-width="2"/>
<line y1="296" x2="1088" y2="296" stroke="#CECECE" stroke-width="2"/>
<line y1="260" x2="1088" y2="260" stroke="#CECECE" stroke-width="2"/>
<line y1="224" x2="1088" y2="224" stroke="#CECECE" stroke-width="2"/>
<line y1="188" x2="1088" y2="188" stroke="#CECECE" stroke-width="2"/>
<line y1="152" x2="1088" y2="152" stroke="#CECECE" stroke-width="2"/>
<line y1="116" x2="1088" y2="116" stroke="#CECECE" stroke-width="2"/>
<line y1="80" x2="1088" y2="80" stroke="#CECECE" stroke-width="2"/>
<line y1="44" x2="1088" y2="44" stroke="#CECECE" stroke-width="2"/>
<line y1="8" x2="1088" y2="8" stroke="#CECECE" stroke-width="2"/>
<path d="M30.6172 552H29.1406V544.664H25.3848V552H23.9082V543.469H30.6172V552ZM32.0059 548.771C32.0059 548.15 32.1289 547.592 32.375 547.096C32.6211 546.596 32.9668 546.213 33.4121 545.947C33.8574 545.678 34.3691 545.543 34.9473 545.543C35.8027 545.543 36.4961 545.818 37.0273 546.369C37.5625 546.92 37.8516 547.65 37.8945 548.561L37.9004 548.895C37.9004 549.52 37.7793 550.078 37.5371 550.57C37.2988 551.062 36.9551 551.443 36.5059 551.713C36.0605 551.982 35.5449 552.117 34.959 552.117C34.0645 552.117 33.3477 551.82 32.8086 551.227C32.2734 550.629 32.0059 549.834 32.0059 548.842V548.771ZM33.4297 548.895C33.4297 549.547 33.5645 550.059 33.834 550.43C34.1035 550.797 34.4785 550.98 34.959 550.98C35.4395 550.98 35.8125 550.793 36.0781 550.418C36.3477 550.043 36.4824 549.494 36.4824 548.771C36.4824 548.131 36.3438 547.623 36.0664 547.248C35.793 546.873 35.4199 546.686 34.9473 546.686C34.4824 546.686 34.1133 546.871 33.8398 547.242C33.5664 547.609 33.4297 548.16 33.4297 548.895ZM38.709 550.863C39.1035 550.422 39.3672 550.004 39.5 549.609C39.6367 549.211 39.7188 548.703 39.7461 548.086L39.8281 545.66H44.2285V550.863H45.1074V553.887H43.6895V552H39.623V553.887H38.1816L38.1875 550.863H38.709ZM40.3789 550.863H42.8105V546.885H41.2109L41.1699 548.098C41.1152 549.262 40.8516 550.184 40.3789 550.863ZM49.1094 546.012C49.9062 546.012 50.5449 546.279 51.0254 546.814C51.5059 547.346 51.7461 548.068 51.7461 548.982V549.053C51.7461 549.967 51.4844 550.707 50.9609 551.273C50.4414 551.84 49.7344 552.123 48.8398 552.123C47.9688 552.123 47.2656 551.834 46.7305 551.256C46.1953 550.678 45.9277 549.889 45.9277 548.889V548.479C45.9277 547.111 46.1699 546.029 46.6543 545.232C47.1387 544.436 47.8613 543.938 48.8223 543.738C49.3613 543.629 49.709 543.514 49.8652 543.393C50.0254 543.268 50.1055 543.1 50.1055 542.889H51.2539C51.2539 543.283 51.1895 543.604 51.0605 543.85C50.9316 544.096 50.7344 544.297 50.4688 544.453C50.2031 544.605 49.7461 544.75 49.0977 544.887C48.5039 545.012 48.0508 545.234 47.7383 545.555C47.4297 545.875 47.2227 546.318 47.1172 546.885C47.6836 546.303 48.3477 546.012 49.1094 546.012ZM48.8281 547.154C48.3672 547.154 48.0059 547.311 47.7441 547.623C47.4824 547.932 47.3516 548.408 47.3516 549.053C47.3516 549.662 47.4805 550.137 47.7383 550.477C47.9961 550.816 48.3633 550.986 48.8398 550.986C49.3125 550.986 49.6777 550.816 49.9355 550.477C50.1973 550.133 50.3281 549.617 50.3281 548.93C50.3281 548.383 50.1973 547.951 49.9355 547.635C49.6777 547.314 49.3086 547.154 48.8281 547.154ZM52.5957 548.771C52.5957 548.15 52.7188 547.592 52.9648 547.096C53.2109 546.596 53.5566 546.213 54.002 545.947C54.4473 545.678 54.959 545.543 55.5371 545.543C56.3926 545.543 57.0859 545.818 57.6172 546.369C58.1523 546.92 58.4414 547.65 58.4844 548.561L58.4902 548.895C58.4902 549.52 58.3691 550.078 58.127 550.57C57.8887 551.062 57.5449 551.443 57.0957 551.713C56.6504 551.982 56.1348 552.117 55.5488 552.117C54.6543 552.117 53.9375 551.82 53.3984 551.227C52.8633 550.629 52.5957 549.834 52.5957 548.842V548.771ZM54.0195 548.895C54.0195 549.547 54.1543 550.059 54.4238 550.43C54.6934 550.797 55.0684 550.98 55.5488 550.98C56.0293 550.98 56.4023 550.793 56.668 550.418C56.9375 550.043 57.0723 549.494 57.0723 548.771C57.0723 548.131 56.9336 547.623 56.6562 547.248C56.3828 546.873 56.0098 546.686 55.5371 546.686C55.0723 546.686 54.7031 546.871 54.4297 547.242C54.1562 547.609 54.0195 548.16 54.0195 548.895ZM65.2461 548.895C65.2461 549.875 65.0234 550.658 64.5781 551.244C64.1328 551.826 63.5352 552.117 62.7852 552.117C62.0898 552.117 61.5332 551.889 61.1152 551.432V554.438H59.6914V545.66H61.0039L61.0625 546.305C61.4805 545.797 62.0488 545.543 62.7676 545.543C63.541 545.543 64.1465 545.832 64.584 546.41C65.0254 546.984 65.2461 547.783 65.2461 548.807V548.895ZM63.8281 548.771C63.8281 548.139 63.7012 547.637 63.4473 547.266C63.1973 546.895 62.8379 546.709 62.3691 546.709C61.7871 546.709 61.3691 546.949 61.1152 547.43V550.242C61.373 550.734 61.7949 550.98 62.3809 550.98C62.834 550.98 63.1875 550.799 63.4414 550.436C63.6992 550.068 63.8281 549.514 63.8281 548.771ZM74.832 545.66V552H73.4082V546.809H71.6152L71.498 549.018C71.4238 550.08 71.2188 550.844 70.8828 551.309C70.5508 551.77 70.041 552 69.3535 552H68.9141L68.9082 550.816L69.2012 550.787C69.5137 550.744 69.7402 550.555 69.8809 550.219C70.0254 549.879 70.1172 549.262 70.1562 548.367L70.2734 545.66H74.832ZM76.0801 548.771C76.0801 548.15 76.2031 547.592 76.4492 547.096C76.6953 546.596 77.041 546.213 77.4863 545.947C77.9316 545.678 78.4434 545.543 79.0215 545.543C79.877 545.543 80.5703 545.818 81.1016 546.369C81.6367 546.92 81.9258 547.65 81.9688 548.561L81.9746 548.895C81.9746 549.52 81.8535 550.078 81.6113 550.57C81.373 551.062 81.0293 551.443 80.5801 551.713C80.1348 551.982 79.6191 552.117 79.0332 552.117C78.1387 552.117 77.4219 551.82 76.8828 551.227C76.3477 550.629 76.0801 549.834 76.0801 548.842V548.771ZM77.5039 548.895C77.5039 549.547 77.6387 550.059 77.9082 550.43C78.1777 550.797 78.5527 550.98 79.0332 550.98C79.5137 550.98 79.8867 550.793 80.1523 550.418C80.4219 550.043 80.5566 549.494 80.5566 548.771C80.5566 548.131 80.418 547.623 80.1406 547.248C79.8672 546.873 79.4941 546.686 79.0215 546.686C78.5566 546.686 78.1875 546.871 77.9141 547.242C77.6406 547.609 77.5039 548.16 77.5039 548.895ZM87.9922 546.791H85.9355V552H84.5117V546.791H82.4785V545.66H87.9922V546.791ZM91.1973 549.492H90.4766V552H89.0527V545.66H90.4766V548.191H91.1035L92.8555 545.66H94.6133L92.3223 548.695L94.8066 552H92.9551L91.1973 549.492ZM99.377 552C99.3145 551.879 99.2598 551.682 99.2129 551.408C98.7598 551.881 98.2051 552.117 97.5488 552.117C96.9121 552.117 96.3926 551.936 95.9902 551.572C95.5879 551.209 95.3867 550.76 95.3867 550.225C95.3867 549.549 95.6367 549.031 96.1367 548.672C96.6406 548.309 97.3594 548.127 98.293 548.127H99.166V547.711C99.166 547.383 99.0742 547.121 98.8906 546.926C98.707 546.727 98.4277 546.627 98.0527 546.627C97.7285 546.627 97.4629 546.709 97.2559 546.873C97.0488 547.033 96.9453 547.238 96.9453 547.488H95.5215C95.5215 547.141 95.6367 546.816 95.8672 546.516C96.0977 546.211 96.4102 545.973 96.8047 545.801C97.2031 545.629 97.6465 545.543 98.1348 545.543C98.877 545.543 99.4688 545.73 99.9102 546.105C100.352 546.477 100.578 547 100.59 547.676V550.535C100.59 551.105 100.67 551.561 100.83 551.9V552H99.377ZM97.8125 550.975C98.0938 550.975 98.3574 550.906 98.6035 550.77C98.8535 550.633 99.041 550.449 99.166 550.219V549.023H98.3984C97.8711 549.023 97.4746 549.115 97.209 549.299C96.9434 549.482 96.8105 549.742 96.8105 550.078C96.8105 550.352 96.9004 550.57 97.0801 550.734C97.2637 550.895 97.5078 550.975 97.8125 550.975ZM110.445 552H109.021V546.809H106.549V552H105.125V545.66H110.445V552ZM111.693 548.771C111.693 548.15 111.816 547.592 112.062 547.096C112.309 546.596 112.654 546.213 113.1 545.947C113.545 545.678 114.057 545.543 114.635 545.543C115.49 545.543 116.184 545.818 116.715 546.369C117.25 546.92 117.539 547.65 117.582 548.561L117.588 548.895C117.588 549.52 117.467 550.078 117.225 550.57C116.986 551.062 116.643 551.443 116.193 551.713C115.748 551.982 115.232 552.117 114.646 552.117C113.752 552.117 113.035 551.82 112.496 551.227C111.961 550.629 111.693 549.834 111.693 548.842V548.771ZM113.117 548.895C113.117 549.547 113.252 550.059 113.521 550.43C113.791 550.797 114.166 550.98 114.646 550.98C115.127 550.98 115.5 550.793 115.766 550.418C116.035 550.043 116.17 549.494 116.17 548.771C116.17 548.131 116.031 547.623 115.754 547.248C115.48 546.873 115.107 546.686 114.635 546.686C114.17 546.686 113.801 546.871 113.527 547.242C113.254 547.609 113.117 548.16 113.117 548.895ZM127.332 548.895C127.332 549.875 127.109 550.658 126.664 551.244C126.219 551.826 125.621 552.117 124.871 552.117C124.176 552.117 123.619 551.889 123.201 551.432V554.438H121.777V545.66H123.09L123.148 546.305C123.566 545.797 124.135 545.543 124.854 545.543C125.627 545.543 126.232 545.832 126.67 546.41C127.111 546.984 127.332 547.783 127.332 548.807V548.895ZM125.914 548.771C125.914 548.139 125.787 547.637 125.533 547.266C125.283 546.895 124.924 546.709 124.455 546.709C123.873 546.709 123.455 546.949 123.201 547.43V550.242C123.459 550.734 123.881 550.98 124.467 550.98C124.92 550.98 125.273 550.799 125.527 550.436C125.785 550.068 125.914 549.514 125.914 548.771ZM132.33 552C132.268 551.879 132.213 551.682 132.166 551.408C131.713 551.881 131.158 552.117 130.502 552.117C129.865 552.117 129.346 551.936 128.943 551.572C128.541 551.209 128.34 550.76 128.34 550.225C128.34 549.549 128.59 549.031 129.09 548.672C129.594 548.309 130.312 548.127 131.246 548.127H132.119V547.711C132.119 547.383 132.027 547.121 131.844 546.926C131.66 546.727 131.381 546.627 131.006 546.627C130.682 546.627 130.416 546.709 130.209 546.873C130.002 547.033 129.898 547.238 129.898 547.488H128.475C128.475 547.141 128.59 546.816 128.82 546.516C129.051 546.211 129.363 545.973 129.758 545.801C130.156 545.629 130.6 545.543 131.088 545.543C131.83 545.543 132.422 545.73 132.863 546.105C133.305 546.477 133.531 547 133.543 547.676V550.535C133.543 551.105 133.623 551.561 133.783 551.9V552H132.33ZM130.766 550.975C131.047 550.975 131.311 550.906 131.557 550.77C131.807 550.633 131.994 550.449 132.119 550.219V549.023H131.352C130.824 549.023 130.428 549.115 130.162 549.299C129.896 549.482 129.764 549.742 129.764 550.078C129.764 550.352 129.854 550.57 130.033 550.734C130.217 550.895 130.461 550.975 130.766 550.975ZM137.639 550.98C137.994 550.98 138.289 550.877 138.523 550.67C138.758 550.463 138.883 550.207 138.898 549.902H140.24C140.225 550.297 140.102 550.666 139.871 551.01C139.641 551.35 139.328 551.619 138.934 551.818C138.539 552.018 138.113 552.117 137.656 552.117C136.77 552.117 136.066 551.83 135.547 551.256C135.027 550.682 134.768 549.889 134.768 548.877V548.73C134.768 547.766 135.025 546.994 135.541 546.416C136.057 545.834 136.76 545.543 137.65 545.543C138.404 545.543 139.018 545.764 139.49 546.205C139.967 546.643 140.217 547.219 140.24 547.934H138.898C138.883 547.57 138.758 547.271 138.523 547.037C138.293 546.803 137.998 546.686 137.639 546.686C137.178 546.686 136.822 546.854 136.572 547.189C136.322 547.521 136.195 548.027 136.191 548.707V548.936C136.191 549.623 136.314 550.137 136.561 550.477C136.811 550.812 137.17 550.98 137.639 550.98ZM143.592 547.746L144.799 545.66H146.381L144.441 548.783L146.445 552H144.875L143.609 549.832L142.35 552H140.768L142.771 548.783L140.838 545.66H142.408L143.592 547.746ZM146.85 548.771C146.85 548.15 146.973 547.592 147.219 547.096C147.465 546.596 147.811 546.213 148.256 545.947C148.701 545.678 149.213 545.543 149.791 545.543C150.646 545.543 151.34 545.818 151.871 546.369C152.406 546.92 152.695 547.65 152.738 548.561L152.744 548.895C152.744 549.52 152.623 550.078 152.381 550.57C152.143 551.062 151.799 551.443 151.35 551.713C150.904 551.982 150.389 552.117 149.803 552.117C148.908 552.117 148.191 551.82 147.652 551.227C147.117 550.629 146.85 549.834 146.85 548.842V548.771ZM148.273 548.895C148.273 549.547 148.408 550.059 148.678 550.43C148.947 550.797 149.322 550.98 149.803 550.98C150.283 550.98 150.656 550.793 150.922 550.418C151.191 550.043 151.326 549.494 151.326 548.771C151.326 548.131 151.188 547.623 150.91 547.248C150.637 546.873 150.264 546.686 149.791 546.686C149.326 546.686 148.957 546.871 148.684 547.242C148.41 547.609 148.273 548.16 148.273 548.895ZM153.553 550.863C153.947 550.422 154.211 550.004 154.344 549.609C154.48 549.211 154.562 548.703 154.59 548.086L154.672 545.66H159.072V550.863H159.951V553.887H158.533V552H154.467V553.887H153.025L153.031 550.863H153.553ZM155.223 550.863H157.654V546.885H156.055L156.014 548.098C155.959 549.262 155.695 550.184 155.223 550.863ZM163.186 549.961L164.475 545.66H165.992L163.473 552.961C163.086 554.027 162.43 554.561 161.504 554.561C161.297 554.561 161.068 554.525 160.818 554.455V553.354L161.088 553.371C161.447 553.371 161.717 553.305 161.896 553.172C162.08 553.043 162.225 552.824 162.33 552.516L162.535 551.971L160.309 545.66H161.844L163.186 549.961ZM172.408 550.98C172.764 550.98 173.059 550.877 173.293 550.67C173.527 550.463 173.652 550.207 173.668 549.902H175.01C174.994 550.297 174.871 550.666 174.641 551.01C174.41 551.35 174.098 551.619 173.703 551.818C173.309 552.018 172.883 552.117 172.426 552.117C171.539 552.117 170.836 551.83 170.316 551.256C169.797 550.682 169.537 549.889 169.537 548.877V548.73C169.537 547.766 169.795 546.994 170.311 546.416C170.826 545.834 171.529 545.543 172.42 545.543C173.174 545.543 173.787 545.764 174.26 546.205C174.736 546.643 174.986 547.219 175.01 547.934H173.668C173.652 547.57 173.527 547.271 173.293 547.037C173.062 546.803 172.768 546.686 172.408 546.686C171.947 546.686 171.592 546.854 171.342 547.189C171.092 547.521 170.965 548.027 170.961 548.707V548.936C170.961 549.623 171.084 550.137 171.33 550.477C171.58 550.812 171.939 550.98 172.408 550.98ZM181.074 546.791H179.018V552H177.594V546.791H175.561V545.66H181.074V546.791ZM181.584 548.771C181.584 548.15 181.707 547.592 181.953 547.096C182.199 546.596 182.545 546.213 182.99 545.947C183.436 545.678 183.947 545.543 184.525 545.543C185.381 545.543 186.074 545.818 186.605 546.369C187.141 546.92 187.43 547.65 187.473 548.561L187.479 548.895C187.479 549.52 187.357 550.078 187.115 550.57C186.877 551.062 186.533 551.443 186.084 551.713C185.639 551.982 185.123 552.117 184.537 552.117C183.643 552.117 182.926 551.82 182.387 551.227C181.852 550.629 181.584 549.834 181.584 548.842V548.771ZM183.008 548.895C183.008 549.547 183.143 550.059 183.412 550.43C183.682 550.797 184.057 550.98 184.537 550.98C185.018 550.98 185.391 550.793 185.656 550.418C185.926 550.043 186.061 549.494 186.061 548.771C186.061 548.131 185.922 547.623 185.645 547.248C185.371 546.873 184.998 546.686 184.525 546.686C184.061 546.686 183.691 546.871 183.418 547.242C183.145 547.609 183.008 548.16 183.008 548.895ZM193.766 552H192.342V549.885C191.975 549.971 191.588 550.014 191.182 550.014C190.314 550.014 189.652 549.807 189.195 549.393C188.738 548.975 188.51 548.377 188.51 547.6V545.654H189.934V547.6C189.934 548.061 190.035 548.387 190.238 548.578C190.445 548.77 190.76 548.865 191.182 548.865C191.564 548.865 191.951 548.82 192.342 548.73V545.66H193.766V552ZM200.65 552H199.227V549.439H196.76V552H195.336V545.66H196.76V548.303H199.227V545.66H200.65V552ZM203.703 547.676H205.098C205.617 547.676 206.07 547.766 206.457 547.945C206.844 548.125 207.137 548.377 207.336 548.701C207.539 549.025 207.641 549.402 207.641 549.832C207.641 550.484 207.41 551.008 206.949 551.402C206.488 551.797 205.875 551.996 205.109 552H202.279V545.66H203.703V547.676ZM210.119 552H208.695V545.66H210.119V552ZM203.703 548.818V550.863H205.092C205.439 550.863 205.713 550.777 205.912 550.605C206.115 550.43 206.217 550.182 206.217 549.861C206.217 549.541 206.117 549.289 205.918 549.105C205.723 548.918 205.457 548.822 205.121 548.818H203.703ZM214.104 547.746L215.311 545.66H216.893L214.953 548.783L216.957 552H215.387L214.121 549.832L212.861 552H211.279L213.283 548.783L211.35 545.66H212.92L214.104 547.746ZM220.959 552V545.66H223.531C224.398 545.66 225.059 545.812 225.512 546.117C225.965 546.418 226.191 546.852 226.191 547.418C226.191 547.711 226.1 547.975 225.916 548.209C225.736 548.439 225.469 548.617 225.113 548.742C225.527 548.828 225.855 549.002 226.098 549.264C226.34 549.525 226.461 549.834 226.461 550.189C226.461 550.779 226.242 551.229 225.805 551.537C225.371 551.846 224.746 552 223.93 552H220.959ZM222.383 549.299V550.875H223.941C224.672 550.875 225.037 550.613 225.037 550.09C225.037 549.562 224.666 549.299 223.924 549.299H222.383ZM222.383 548.279H223.555C224.363 548.279 224.768 548.041 224.768 547.564C224.768 547.064 224.385 546.807 223.619 546.791H222.383V548.279ZM227.428 548.771C227.428 548.15 227.551 547.592 227.797 547.096C228.043 546.596 228.389 546.213 228.834 545.947C229.279 545.678 229.791 545.543 230.369 545.543C231.225 545.543 231.918 545.818 232.449 546.369C232.984 546.92 233.273 547.65 233.316 548.561L233.322 548.895C233.322 549.52 233.201 550.078 232.959 550.57C232.721 551.062 232.377 551.443 231.928 551.713C231.482 551.982 230.967 552.117 230.381 552.117C229.486 552.117 228.77 551.82 228.23 551.227C227.695 550.629 227.428 549.834 227.428 548.842V548.771ZM228.852 548.895C228.852 549.547 228.986 550.059 229.256 550.43C229.525 550.797 229.9 550.98 230.381 550.98C230.861 550.98 231.234 550.793 231.5 550.418C231.77 550.043 231.904 549.494 231.904 548.771C231.904 548.131 231.766 547.623 231.488 547.248C231.215 546.873 230.842 546.686 230.369 546.686C229.904 546.686 229.535 546.871 229.262 547.242C228.988 547.609 228.852 548.16 228.852 548.895ZM234.131 550.863C234.525 550.422 234.789 550.004 234.922 549.609C235.059 549.211 235.141 548.703 235.168 548.086L235.25 545.66H239.65V550.863H240.529V553.887H239.111V552H235.045V553.887H233.604L233.609 550.863H234.131ZM235.801 550.863H238.232V546.885H236.633L236.592 548.098C236.537 549.262 236.273 550.184 235.801 550.863Z" fill="#3C3C3B"/>
<path d="M458.734 552H457.258V544.664H453.502V552H452.025V543.469H458.734V552ZM460.123 548.771C460.123 548.15 460.246 547.592 460.492 547.096C460.738 546.596 461.084 546.213 461.529 545.947C461.975 545.678 462.486 545.543 463.064 545.543C463.92 545.543 464.613 545.818 465.145 546.369C465.68 546.92 465.969 547.65 466.012 548.561L466.018 548.895C466.018 549.52 465.896 550.078 465.654 550.57C465.416 551.062 465.072 551.443 464.623 551.713C464.178 551.982 463.662 552.117 463.076 552.117C462.182 552.117 461.465 551.82 460.926 551.227C460.391 550.629 460.123 549.834 460.123 548.842V548.771ZM461.547 548.895C461.547 549.547 461.682 550.059 461.951 550.43C462.221 550.797 462.596 550.98 463.076 550.98C463.557 550.98 463.93 550.793 464.195 550.418C464.465 550.043 464.6 549.494 464.6 548.771C464.6 548.131 464.461 547.623 464.184 547.248C463.91 546.873 463.537 546.686 463.064 546.686C462.6 546.686 462.23 546.871 461.957 547.242C461.684 547.609 461.547 548.16 461.547 548.895ZM466.826 550.863C467.221 550.422 467.484 550.004 467.617 549.609C467.754 549.211 467.836 548.703 467.863 548.086L467.945 545.66H472.346V550.863H473.225V553.887H471.807V552H467.74V553.887H466.299L466.305 550.863H466.826ZM468.496 550.863H470.928V546.885H469.328L469.287 548.098C469.232 549.262 468.969 550.184 468.496 550.863ZM477.227 546.012C478.023 546.012 478.662 546.279 479.143 546.814C479.623 547.346 479.863 548.068 479.863 548.982V549.053C479.863 549.967 479.602 550.707 479.078 551.273C478.559 551.84 477.852 552.123 476.957 552.123C476.086 552.123 475.383 551.834 474.848 551.256C474.312 550.678 474.045 549.889 474.045 548.889V548.479C474.045 547.111 474.287 546.029 474.771 545.232C475.256 544.436 475.979 543.938 476.939 543.738C477.479 543.629 477.826 543.514 477.982 543.393C478.143 543.268 478.223 543.1 478.223 542.889H479.371C479.371 543.283 479.307 543.604 479.178 543.85C479.049 544.096 478.852 544.297 478.586 544.453C478.32 544.605 477.863 544.75 477.215 544.887C476.621 545.012 476.168 545.234 475.855 545.555C475.547 545.875 475.34 546.318 475.234 546.885C475.801 546.303 476.465 546.012 477.227 546.012ZM476.945 547.154C476.484 547.154 476.123 547.311 475.861 547.623C475.6 547.932 475.469 548.408 475.469 549.053C475.469 549.662 475.598 550.137 475.855 550.477C476.113 550.816 476.48 550.986 476.957 550.986C477.43 550.986 477.795 550.816 478.053 550.477C478.314 550.133 478.445 549.617 478.445 548.93C478.445 548.383 478.314 547.951 478.053 547.635C477.795 547.314 477.426 547.154 476.945 547.154ZM480.713 548.771C480.713 548.15 480.836 547.592 481.082 547.096C481.328 546.596 481.674 546.213 482.119 545.947C482.564 545.678 483.076 545.543 483.654 545.543C484.51 545.543 485.203 545.818 485.734 546.369C486.27 546.92 486.559 547.65 486.602 548.561L486.607 548.895C486.607 549.52 486.486 550.078 486.244 550.57C486.006 551.062 485.662 551.443 485.213 551.713C484.768 551.982 484.252 552.117 483.666 552.117C482.771 552.117 482.055 551.82 481.516 551.227C480.98 550.629 480.713 549.834 480.713 548.842V548.771ZM482.137 548.895C482.137 549.547 482.271 550.059 482.541 550.43C482.811 550.797 483.186 550.98 483.666 550.98C484.146 550.98 484.52 550.793 484.785 550.418C485.055 550.043 485.189 549.494 485.189 548.771C485.189 548.131 485.051 547.623 484.773 547.248C484.5 546.873 484.127 546.686 483.654 546.686C483.189 546.686 482.82 546.871 482.547 547.242C482.273 547.609 482.137 548.16 482.137 548.895ZM493.363 548.895C493.363 549.875 493.141 550.658 492.695 551.244C492.25 551.826 491.652 552.117 490.902 552.117C490.207 552.117 489.65 551.889 489.232 551.432V554.438H487.809V545.66H489.121L489.18 546.305C489.598 545.797 490.166 545.543 490.885 545.543C491.658 545.543 492.264 545.832 492.701 546.41C493.143 546.984 493.363 547.783 493.363 548.807V548.895ZM491.945 548.771C491.945 548.139 491.818 547.637 491.564 547.266C491.314 546.895 490.955 546.709 490.486 546.709C489.904 546.709 489.486 546.949 489.232 547.43V550.242C489.49 550.734 489.912 550.98 490.498 550.98C490.951 550.98 491.305 550.799 491.559 550.436C491.816 550.068 491.945 549.514 491.945 548.771ZM502.949 545.66V552H501.525V546.809H499.732L499.615 549.018C499.541 550.08 499.336 550.844 499 551.309C498.668 551.77 498.158 552 497.471 552H497.031L497.025 550.816L497.318 550.787C497.631 550.744 497.857 550.555 497.998 550.219C498.143 549.879 498.234 549.262 498.273 548.367L498.391 545.66H502.949ZM504.197 548.771C504.197 548.15 504.32 547.592 504.566 547.096C504.812 546.596 505.158 546.213 505.604 545.947C506.049 545.678 506.561 545.543 507.139 545.543C507.994 545.543 508.688 545.818 509.219 546.369C509.754 546.92 510.043 547.65 510.086 548.561L510.092 548.895C510.092 549.52 509.971 550.078 509.729 550.57C509.49 551.062 509.146 551.443 508.697 551.713C508.252 551.982 507.736 552.117 507.15 552.117C506.256 552.117 505.539 551.82 505 551.227C504.465 550.629 504.197 549.834 504.197 548.842V548.771ZM505.621 548.895C505.621 549.547 505.756 550.059 506.025 550.43C506.295 550.797 506.67 550.98 507.15 550.98C507.631 550.98 508.004 550.793 508.27 550.418C508.539 550.043 508.674 549.494 508.674 548.771C508.674 548.131 508.535 547.623 508.258 547.248C507.984 546.873 507.611 546.686 507.139 546.686C506.674 546.686 506.305 546.871 506.031 547.242C505.758 547.609 505.621 548.16 505.621 548.895ZM516.109 546.791H514.053V552H512.629V546.791H510.596V545.66H516.109V546.791ZM519.314 549.492H518.594V552H517.17V545.66H518.594V548.191H519.221L520.973 545.66H522.73L520.439 548.695L522.924 552H521.072L519.314 549.492ZM527.494 552C527.432 551.879 527.377 551.682 527.33 551.408C526.877 551.881 526.322 552.117 525.666 552.117C525.029 552.117 524.51 551.936 524.107 551.572C523.705 551.209 523.504 550.76 523.504 550.225C523.504 549.549 523.754 549.031 524.254 548.672C524.758 548.309 525.477 548.127 526.41 548.127H527.283V547.711C527.283 547.383 527.191 547.121 527.008 546.926C526.824 546.727 526.545 546.627 526.17 546.627C525.846 546.627 525.58 546.709 525.373 546.873C525.166 547.033 525.062 547.238 525.062 547.488H523.639C523.639 547.141 523.754 546.816 523.984 546.516C524.215 546.211 524.527 545.973 524.922 545.801C525.32 545.629 525.764 545.543 526.252 545.543C526.994 545.543 527.586 545.73 528.027 546.105C528.469 546.477 528.695 547 528.707 547.676V550.535C528.707 551.105 528.787 551.561 528.947 551.9V552H527.494ZM525.93 550.975C526.211 550.975 526.475 550.906 526.721 550.77C526.971 550.633 527.158 550.449 527.283 550.219V549.023H526.516C525.988 549.023 525.592 549.115 525.326 549.299C525.061 549.482 524.928 549.742 524.928 550.078C524.928 550.352 525.018 550.57 525.197 550.734C525.381 550.895 525.625 550.975 525.93 550.975ZM538.562 552H537.139V546.809H534.666V552H533.242V545.66H538.562V552ZM539.811 548.771C539.811 548.15 539.934 547.592 540.18 547.096C540.426 546.596 540.771 546.213 541.217 545.947C541.662 545.678 542.174 545.543 542.752 545.543C543.607 545.543 544.301 545.818 544.832 546.369C545.367 546.92 545.656 547.65 545.699 548.561L545.705 548.895C545.705 549.52 545.584 550.078 545.342 550.57C545.104 551.062 544.76 551.443 544.311 551.713C543.865 551.982 543.35 552.117 542.764 552.117C541.869 552.117 541.152 551.82 540.613 551.227C540.078 550.629 539.811 549.834 539.811 548.842V548.771ZM541.234 548.895C541.234 549.547 541.369 550.059 541.639 550.43C541.908 550.797 542.283 550.98 542.764 550.98C543.244 550.98 543.617 550.793 543.883 550.418C544.152 550.043 544.287 549.494 544.287 548.771C544.287 548.131 544.148 547.623 543.871 547.248C543.598 546.873 543.225 546.686 542.752 546.686C542.287 546.686 541.918 546.871 541.645 547.242C541.371 547.609 541.234 548.16 541.234 548.895ZM555.273 552H553.85V546.809H551.377V552H549.953V545.66H555.273V552ZM562.176 545.66V552H560.752V546.809H558.959L558.842 549.018C558.768 550.08 558.562 550.844 558.227 551.309C557.895 551.77 557.385 552 556.697 552H556.258L556.252 550.816L556.545 550.787C556.857 550.744 557.084 550.555 557.225 550.219C557.369 549.879 557.461 549.262 557.5 548.367L557.617 545.66H562.176ZM563.424 548.771C563.424 548.15 563.547 547.592 563.793 547.096C564.039 546.596 564.385 546.213 564.83 545.947C565.275 545.678 565.787 545.543 566.365 545.543C567.221 545.543 567.914 545.818 568.445 546.369C568.98 546.92 569.27 547.65 569.312 548.561L569.318 548.895C569.318 549.52 569.197 550.078 568.955 550.57C568.717 551.062 568.373 551.443 567.924 551.713C567.479 551.982 566.963 552.117 566.377 552.117C565.482 552.117 564.766 551.82 564.227 551.227C563.691 550.629 563.424 549.834 563.424 548.842V548.771ZM564.848 548.895C564.848 549.547 564.982 550.059 565.252 550.43C565.521 550.797 565.896 550.98 566.377 550.98C566.857 550.98 567.23 550.793 567.496 550.418C567.766 550.043 567.9 549.494 567.9 548.771C567.9 548.131 567.762 547.623 567.484 547.248C567.211 546.873 566.838 546.686 566.365 546.686C565.9 546.686 565.531 546.871 565.258 547.242C564.984 547.609 564.848 548.16 564.848 548.895ZM571.955 545.66V550.863H573.936V545.66H575.359V550.863H577.346V545.66H578.764V550.863H579.848L579.73 553.881H578.436V552H570.531V545.66H571.955ZM584.693 552C584.631 551.879 584.576 551.682 584.529 551.408C584.076 551.881 583.521 552.117 582.865 552.117C582.229 552.117 581.709 551.936 581.307 551.572C580.904 551.209 580.703 550.76 580.703 550.225C580.703 549.549 580.953 549.031 581.453 548.672C581.957 548.309 582.676 548.127 583.609 548.127H584.482V547.711C584.482 547.383 584.391 547.121 584.207 546.926C584.023 546.727 583.744 546.627 583.369 546.627C583.045 546.627 582.779 546.709 582.572 546.873C582.365 547.033 582.262 547.238 582.262 547.488H580.838C580.838 547.141 580.953 546.816 581.184 546.516C581.414 546.211 581.727 545.973 582.121 545.801C582.52 545.629 582.963 545.543 583.451 545.543C584.193 545.543 584.785 545.73 585.227 546.105C585.668 546.477 585.895 547 585.906 547.676V550.535C585.906 551.105 585.986 551.561 586.146 551.9V552H584.693ZM583.129 550.975C583.41 550.975 583.674 550.906 583.92 550.77C584.17 550.633 584.357 550.449 584.482 550.219V549.023H583.715C583.188 549.023 582.791 549.115 582.525 549.299C582.26 549.482 582.127 549.742 582.127 550.078C582.127 550.352 582.217 550.57 582.396 550.734C582.58 550.895 582.824 550.975 583.129 550.975ZM587.424 550.863C587.818 550.422 588.082 550.004 588.215 549.609C588.352 549.211 588.434 548.703 588.461 548.086L588.543 545.66H592.943V550.863H593.822V553.887H592.404V552H588.338V553.887H586.896L586.902 550.863H587.424ZM589.094 550.863H591.525V546.885H589.926L589.885 548.098C589.83 549.262 589.566 550.184 589.094 550.863ZM598.691 545.66H600.109V552H598.691V547.77L596.207 552H594.789V545.66H596.207V549.891L598.691 545.66ZM498.021 566V559.66H500.594C501.461 559.66 502.121 559.812 502.574 560.117C503.027 560.418 503.254 560.852 503.254 561.418C503.254 561.711 503.162 561.975 502.979 562.209C502.799 562.439 502.531 562.617 502.176 562.742C502.59 562.828 502.918 563.002 503.16 563.264C503.402 563.525 503.523 563.834 503.523 564.189C503.523 564.779 503.305 565.229 502.867 565.537C502.434 565.846 501.809 566 500.992 566H498.021ZM499.445 563.299V564.875H501.004C501.734 564.875 502.1 564.613 502.1 564.09C502.1 563.562 501.729 563.299 500.986 563.299H499.445ZM499.445 562.279H500.617C501.426 562.279 501.83 562.041 501.83 561.564C501.83 561.064 501.447 560.807 500.682 560.791H499.445V562.279ZM504.49 562.771C504.49 562.15 504.613 561.592 504.859 561.096C505.105 560.596 505.451 560.213 505.896 559.947C506.342 559.678 506.854 559.543 507.432 559.543C508.287 559.543 508.98 559.818 509.512 560.369C510.047 560.92 510.336 561.65 510.379 562.561L510.385 562.895C510.385 563.52 510.264 564.078 510.021 564.57C509.783 565.062 509.439 565.443 508.99 565.713C508.545 565.982 508.029 566.117 507.443 566.117C506.549 566.117 505.832 565.82 505.293 565.227C504.758 564.629 504.49 563.834 504.49 562.842V562.771ZM505.914 562.895C505.914 563.547 506.049 564.059 506.318 564.43C506.588 564.797 506.963 564.98 507.443 564.98C507.924 564.98 508.297 564.793 508.562 564.418C508.832 564.043 508.967 563.494 508.967 562.771C508.967 562.131 508.828 561.623 508.551 561.248C508.277 560.873 507.904 560.686 507.432 560.686C506.967 560.686 506.598 560.871 506.324 561.242C506.051 561.609 505.914 562.16 505.914 562.895ZM511.193 564.863C511.588 564.422 511.852 564.004 511.984 563.609C512.121 563.211 512.203 562.703 512.23 562.086L512.312 559.66H516.713V564.863H517.592V567.887H516.174V566H512.107V567.887H510.666L510.672 564.863H511.193ZM512.863 564.863H515.295V560.885H513.695L513.654 562.098C513.6 563.262 513.336 564.184 512.863 564.863ZM518.342 562.771C518.342 562.15 518.465 561.592 518.711 561.096C518.957 560.596 519.303 560.213 519.748 559.947C520.193 559.678 520.705 559.543 521.283 559.543C522.139 559.543 522.832 559.818 523.363 560.369C523.898 560.92 524.188 561.65 524.23 562.561L524.236 562.895C524.236 563.52 524.115 564.078 523.873 564.57C523.635 565.062 523.291 565.443 522.842 565.713C522.396 565.982 521.881 566.117 521.295 566.117C520.4 566.117 519.684 565.82 519.145 565.227C518.609 564.629 518.342 563.834 518.342 562.842V562.771ZM519.766 562.895C519.766 563.547 519.9 564.059 520.17 564.43C520.439 564.797 520.814 564.98 521.295 564.98C521.775 564.98 522.148 564.793 522.414 564.418C522.684 564.043 522.818 563.494 522.818 562.771C522.818 562.131 522.68 561.623 522.402 561.248C522.129 560.873 521.756 560.686 521.283 560.686C520.818 560.686 520.449 560.871 520.176 561.242C519.902 561.609 519.766 562.16 519.766 562.895ZM528.045 564.98C528.4 564.98 528.695 564.877 528.93 564.67C529.164 564.463 529.289 564.207 529.305 563.902H530.646C530.631 564.297 530.508 564.666 530.277 565.01C530.047 565.35 529.734 565.619 529.34 565.818C528.945 566.018 528.52 566.117 528.062 566.117C527.176 566.117 526.473 565.83 525.953 565.256C525.434 564.682 525.174 563.889 525.174 562.877V562.73C525.174 561.766 525.432 560.994 525.947 560.416C526.463 559.834 527.166 559.543 528.057 559.543C528.811 559.543 529.424 559.764 529.896 560.205C530.373 560.643 530.623 561.219 530.646 561.934H529.305C529.289 561.57 529.164 561.271 528.93 561.037C528.699 560.803 528.404 560.686 528.045 560.686C527.584 560.686 527.229 560.854 526.979 561.189C526.729 561.521 526.602 562.027 526.598 562.707V562.936C526.598 563.623 526.721 564.137 526.967 564.477C527.217 564.812 527.576 564.98 528.045 564.98ZM534.707 560.012C535.504 560.012 536.143 560.279 536.623 560.814C537.104 561.346 537.344 562.068 537.344 562.982V563.053C537.344 563.967 537.082 564.707 536.559 565.273C536.039 565.84 535.332 566.123 534.438 566.123C533.566 566.123 532.863 565.834 532.328 565.256C531.793 564.678 531.525 563.889 531.525 562.889V562.479C531.525 561.111 531.768 560.029 532.252 559.232C532.736 558.436 533.459 557.938 534.42 557.738C534.959 557.629 535.307 557.514 535.463 557.393C535.623 557.268 535.703 557.1 535.703 556.889H536.852C536.852 557.283 536.787 557.604 536.658 557.85C536.529 558.096 536.332 558.297 536.066 558.453C535.801 558.605 535.344 558.75 534.695 558.887C534.102 559.012 533.648 559.234 533.336 559.555C533.027 559.875 532.82 560.318 532.715 560.885C533.281 560.303 533.945 560.012 534.707 560.012ZM534.426 561.154C533.965 561.154 533.604 561.311 533.342 561.623C533.08 561.932 532.949 562.408 532.949 563.053C532.949 563.662 533.078 564.137 533.336 564.477C533.594 564.816 533.961 564.986 534.438 564.986C534.91 564.986 535.275 564.816 535.533 564.477C535.795 564.133 535.926 563.617 535.926 562.93C535.926 562.383 535.795 561.951 535.533 561.635C535.275 561.314 534.906 561.154 534.426 561.154ZM538.193 562.771C538.193 562.15 538.316 561.592 538.562 561.096C538.809 560.596 539.154 560.213 539.6 559.947C540.045 559.678 540.557 559.543 541.135 559.543C541.99 559.543 542.684 559.818 543.215 560.369C543.75 560.92 544.039 561.65 544.082 562.561L544.088 562.895C544.088 563.52 543.967 564.078 543.725 564.57C543.486 565.062 543.143 565.443 542.693 565.713C542.248 565.982 541.732 566.117 541.146 566.117C540.252 566.117 539.535 565.82 538.996 565.227C538.461 564.629 538.193 563.834 538.193 562.842V562.771ZM539.617 562.895C539.617 563.547 539.752 564.059 540.021 564.43C540.291 564.797 540.666 564.98 541.146 564.98C541.627 564.98 542 564.793 542.266 564.418C542.535 564.043 542.67 563.494 542.67 562.771C542.67 562.131 542.531 561.623 542.254 561.248C541.98 560.873 541.607 560.686 541.135 560.686C540.67 560.686 540.301 560.871 540.027 561.242C539.754 561.609 539.617 562.16 539.617 562.895ZM550.844 562.895C550.844 563.875 550.621 564.658 550.176 565.244C549.73 565.826 549.133 566.117 548.383 566.117C547.688 566.117 547.131 565.889 546.713 565.432V568.438H545.289V559.66H546.602L546.66 560.305C547.078 559.797 547.646 559.543 548.365 559.543C549.139 559.543 549.744 559.832 550.182 560.41C550.623 560.984 550.844 561.783 550.844 562.807V562.895ZM549.426 562.771C549.426 562.139 549.299 561.637 549.045 561.266C548.795 560.895 548.436 560.709 547.967 560.709C547.385 560.709 546.967 560.949 546.713 561.43V564.242C546.971 564.734 547.393 564.98 547.979 564.98C548.432 564.98 548.785 564.799 549.039 564.436C549.297 564.068 549.426 563.514 549.426 562.771ZM555.842 566C555.779 565.879 555.725 565.682 555.678 565.408C555.225 565.881 554.67 566.117 554.014 566.117C553.377 566.117 552.857 565.936 552.455 565.572C552.053 565.209 551.852 564.76 551.852 564.225C551.852 563.549 552.102 563.031 552.602 562.672C553.105 562.309 553.824 562.127 554.758 562.127H555.631V561.711C555.631 561.383 555.539 561.121 555.355 560.926C555.172 560.727 554.893 560.627 554.518 560.627C554.193 560.627 553.928 560.709 553.721 560.873C553.514 561.033 553.41 561.238 553.41 561.488H551.986C551.986 561.141 552.102 560.816 552.332 560.516C552.562 560.211 552.875 559.973 553.27 559.801C553.668 559.629 554.111 559.543 554.6 559.543C555.342 559.543 555.934 559.73 556.375 560.105C556.816 560.477 557.043 561 557.055 561.676V564.535C557.055 565.105 557.135 565.561 557.295 565.9V566H555.842ZM554.277 564.975C554.559 564.975 554.822 564.906 555.068 564.77C555.318 564.633 555.506 564.449 555.631 564.219V563.023H554.863C554.336 563.023 553.939 563.115 553.674 563.299C553.408 563.482 553.275 563.742 553.275 564.078C553.275 564.352 553.365 564.57 553.545 564.734C553.729 564.895 553.973 564.975 554.277 564.975Z" fill="#3C3C3B"/>
<path d="M821.963 552H820.486V544.664H816.73V552H815.254V543.469H821.963V552ZM823.352 548.771C823.352 548.15 823.475 547.592 823.721 547.096C823.967 546.596 824.312 546.213 824.758 545.947C825.203 545.678 825.715 545.543 826.293 545.543C827.148 545.543 827.842 545.818 828.373 546.369C828.908 546.92 829.197 547.65 829.24 548.561L829.246 548.895C829.246 549.52 829.125 550.078 828.883 550.57C828.645 551.062 828.301 551.443 827.852 551.713C827.406 551.982 826.891 552.117 826.305 552.117C825.41 552.117 824.693 551.82 824.154 551.227C823.619 550.629 823.352 549.834 823.352 548.842V548.771ZM824.775 548.895C824.775 549.547 824.91 550.059 825.18 550.43C825.449 550.797 825.824 550.98 826.305 550.98C826.785 550.98 827.158 550.793 827.424 550.418C827.693 550.043 827.828 549.494 827.828 548.771C827.828 548.131 827.689 547.623 827.412 547.248C827.139 546.873 826.766 546.686 826.293 546.686C825.828 546.686 825.459 546.871 825.186 547.242C824.912 547.609 824.775 548.16 824.775 548.895ZM830.055 550.863C830.449 550.422 830.713 550.004 830.846 549.609C830.982 549.211 831.064 548.703 831.092 548.086L831.174 545.66H835.574V550.863H836.453V553.887H835.035V552H830.969V553.887H829.527L829.533 550.863H830.055ZM831.725 550.863H834.156V546.885H832.557L832.516 548.098C832.461 549.262 832.197 550.184 831.725 550.863ZM840.455 546.012C841.252 546.012 841.891 546.279 842.371 546.814C842.852 547.346 843.092 548.068 843.092 548.982V549.053C843.092 549.967 842.83 550.707 842.307 551.273C841.787 551.84 841.08 552.123 840.186 552.123C839.314 552.123 838.611 551.834 838.076 551.256C837.541 550.678 837.273 549.889 837.273 548.889V548.479C837.273 547.111 837.516 546.029 838 545.232C838.484 544.436 839.207 543.938 840.168 543.738C840.707 543.629 841.055 543.514 841.211 543.393C841.371 543.268 841.451 543.1 841.451 542.889H842.6C842.6 543.283 842.535 543.604 842.406 543.85C842.277 544.096 842.08 544.297 841.814 544.453C841.549 544.605 841.092 544.75 840.443 544.887C839.85 545.012 839.396 545.234 839.084 545.555C838.775 545.875 838.568 546.318 838.463 546.885C839.029 546.303 839.693 546.012 840.455 546.012ZM840.174 547.154C839.713 547.154 839.352 547.311 839.09 547.623C838.828 547.932 838.697 548.408 838.697 549.053C838.697 549.662 838.826 550.137 839.084 550.477C839.342 550.816 839.709 550.986 840.186 550.986C840.658 550.986 841.023 550.816 841.281 550.477C841.543 550.133 841.674 549.617 841.674 548.93C841.674 548.383 841.543 547.951 841.281 547.635C841.023 547.314 840.654 547.154 840.174 547.154ZM843.941 548.771C843.941 548.15 844.064 547.592 844.311 547.096C844.557 546.596 844.902 546.213 845.348 545.947C845.793 545.678 846.305 545.543 846.883 545.543C847.738 545.543 848.432 545.818 848.963 546.369C849.498 546.92 849.787 547.65 849.83 548.561L849.836 548.895C849.836 549.52 849.715 550.078 849.473 550.57C849.234 551.062 848.891 551.443 848.441 551.713C847.996 551.982 847.48 552.117 846.895 552.117C846 552.117 845.283 551.82 844.744 551.227C844.209 550.629 843.941 549.834 843.941 548.842V548.771ZM845.365 548.895C845.365 549.547 845.5 550.059 845.77 550.43C846.039 550.797 846.414 550.98 846.895 550.98C847.375 550.98 847.748 550.793 848.014 550.418C848.283 550.043 848.418 549.494 848.418 548.771C848.418 548.131 848.279 547.623 848.002 547.248C847.729 546.873 847.355 546.686 846.883 546.686C846.418 546.686 846.049 546.871 845.775 547.242C845.502 547.609 845.365 548.16 845.365 548.895ZM856.592 548.895C856.592 549.875 856.369 550.658 855.924 551.244C855.479 551.826 854.881 552.117 854.131 552.117C853.436 552.117 852.879 551.889 852.461 551.432V554.438H851.037V545.66H852.35L852.408 546.305C852.826 545.797 853.395 545.543 854.113 545.543C854.887 545.543 855.492 545.832 855.93 546.41C856.371 546.984 856.592 547.783 856.592 548.807V548.895ZM855.174 548.771C855.174 548.139 855.047 547.637 854.793 547.266C854.543 546.895 854.184 546.709 853.715 546.709C853.133 546.709 852.715 546.949 852.461 547.43V550.242C852.719 550.734 853.141 550.98 853.727 550.98C854.18 550.98 854.533 550.799 854.787 550.436C855.045 550.068 855.174 549.514 855.174 548.771ZM866.178 545.66V552H864.754V546.809H862.961L862.844 549.018C862.77 550.08 862.564 550.844 862.229 551.309C861.896 551.77 861.387 552 860.699 552H860.26L860.254 550.816L860.547 550.787C860.859 550.744 861.086 550.555 861.227 550.219C861.371 549.879 861.463 549.262 861.502 548.367L861.619 545.66H866.178ZM867.426 548.771C867.426 548.15 867.549 547.592 867.795 547.096C868.041 546.596 868.387 546.213 868.832 545.947C869.277 545.678 869.789 545.543 870.367 545.543C871.223 545.543 871.916 545.818 872.447 546.369C872.982 546.92 873.271 547.65 873.314 548.561L873.32 548.895C873.32 549.52 873.199 550.078 872.957 550.57C872.719 551.062 872.375 551.443 871.926 551.713C871.48 551.982 870.965 552.117 870.379 552.117C869.484 552.117 868.768 551.82 868.229 551.227C867.693 550.629 867.426 549.834 867.426 548.842V548.771ZM868.85 548.895C868.85 549.547 868.984 550.059 869.254 550.43C869.523 550.797 869.898 550.98 870.379 550.98C870.859 550.98 871.232 550.793 871.498 550.418C871.768 550.043 871.902 549.494 871.902 548.771C871.902 548.131 871.764 547.623 871.486 547.248C871.213 546.873 870.84 546.686 870.367 546.686C869.902 546.686 869.533 546.871 869.26 547.242C868.986 547.609 868.85 548.16 868.85 548.895ZM879.338 546.791H877.281V552H875.857V546.791H873.824V545.66H879.338V546.791ZM882.543 549.492H881.822V552H880.398V545.66H881.822V548.191H882.449L884.201 545.66H885.959L883.668 548.695L886.152 552H884.301L882.543 549.492ZM890.723 552C890.66 551.879 890.605 551.682 890.559 551.408C890.105 551.881 889.551 552.117 888.895 552.117C888.258 552.117 887.738 551.936 887.336 551.572C886.934 551.209 886.732 550.76 886.732 550.225C886.732 549.549 886.982 549.031 887.482 548.672C887.986 548.309 888.705 548.127 889.639 548.127H890.512V547.711C890.512 547.383 890.42 547.121 890.236 546.926C890.053 546.727 889.773 546.627 889.398 546.627C889.074 546.627 888.809 546.709 888.602 546.873C888.395 547.033 888.291 547.238 888.291 547.488H886.867C886.867 547.141 886.982 546.816 887.213 546.516C887.443 546.211 887.756 545.973 888.15 545.801C888.549 545.629 888.992 545.543 889.48 545.543C890.223 545.543 890.814 545.73 891.256 546.105C891.697 546.477 891.924 547 891.936 547.676V550.535C891.936 551.105 892.016 551.561 892.176 551.9V552H890.723ZM889.158 550.975C889.439 550.975 889.703 550.906 889.949 550.77C890.199 550.633 890.387 550.449 890.512 550.219V549.023H889.744C889.217 549.023 888.82 549.115 888.555 549.299C888.289 549.482 888.156 549.742 888.156 550.078C888.156 550.352 888.246 550.57 888.426 550.734C888.609 550.895 888.854 550.975 889.158 550.975ZM901.785 552H900.361V549.439H897.895V552H896.471V545.66H897.895V548.303H900.361V545.66H901.785V552ZM907.094 552C907.031 551.879 906.977 551.682 906.93 551.408C906.477 551.881 905.922 552.117 905.266 552.117C904.629 552.117 904.109 551.936 903.707 551.572C903.305 551.209 903.104 550.76 903.104 550.225C903.104 549.549 903.354 549.031 903.854 548.672C904.357 548.309 905.076 548.127 906.01 548.127H906.883V547.711C906.883 547.383 906.791 547.121 906.607 546.926C906.424 546.727 906.145 546.627 905.77 546.627C905.445 546.627 905.18 546.709 904.973 546.873C904.766 547.033 904.662 547.238 904.662 547.488H903.238C903.238 547.141 903.354 546.816 903.584 546.516C903.814 546.211 904.127 545.973 904.521 545.801C904.92 545.629 905.363 545.543 905.852 545.543C906.594 545.543 907.186 545.73 907.627 546.105C908.068 546.477 908.295 547 908.307 547.676V550.535C908.307 551.105 908.387 551.561 908.547 551.9V552H907.094ZM905.529 550.975C905.811 550.975 906.074 550.906 906.32 550.77C906.57 550.633 906.758 550.449 906.883 550.219V549.023H906.115C905.588 549.023 905.191 549.115 904.926 549.299C904.66 549.482 904.527 549.742 904.527 550.078C904.527 550.352 904.617 550.57 904.797 550.734C904.98 550.895 905.225 550.975 905.529 550.975ZM915.062 546.686C914.73 546.686 914.449 546.789 914.219 546.996C913.988 547.199 913.873 547.455 913.873 547.764H912.531C912.531 547.373 912.645 547.008 912.871 546.668C913.098 546.324 913.408 546.051 913.803 545.848C914.197 545.645 914.617 545.543 915.062 545.543C915.922 545.543 916.611 545.838 917.131 546.428C917.654 547.018 917.916 547.805 917.916 548.789V548.936C917.916 549.541 917.797 550.09 917.559 550.582C917.324 551.074 916.992 551.453 916.562 551.719C916.133 551.984 915.635 552.117 915.068 552.117C914.588 552.117 914.152 552.018 913.762 551.818C913.371 551.615 913.068 551.332 912.854 550.969C912.639 550.605 912.531 550.195 912.531 549.738H913.873C913.873 550.102 913.988 550.4 914.219 550.635C914.449 550.865 914.732 550.98 915.068 550.98C915.467 550.98 915.789 550.832 916.035 550.535C916.281 550.234 916.428 549.816 916.475 549.281H914.482V548.297H916.469C916.414 547.781 916.264 547.385 916.018 547.107C915.771 546.826 915.453 546.686 915.062 546.686ZM921.391 549.492H920.67V552H919.246V545.66H920.67V548.191H921.297L923.049 545.66H924.807L922.516 548.695L925 552H923.148L921.391 549.492ZM928.293 550.98C928.648 550.98 928.943 550.877 929.178 550.67C929.412 550.463 929.537 550.207 929.553 549.902H930.895C930.879 550.297 930.756 550.666 930.525 551.01C930.295 551.35 929.982 551.619 929.588 551.818C929.193 552.018 928.768 552.117 928.311 552.117C927.424 552.117 926.721 551.83 926.201 551.256C925.682 550.682 925.422 549.889 925.422 548.877V548.73C925.422 547.766 925.68 546.994 926.195 546.416C926.711 545.834 927.414 545.543 928.305 545.543C929.059 545.543 929.672 545.764 930.145 546.205C930.621 546.643 930.871 547.219 930.895 547.934H929.553C929.537 547.57 929.412 547.271 929.178 547.037C928.947 546.803 928.652 546.686 928.293 546.686C927.832 546.686 927.477 546.854 927.227 547.189C926.977 547.521 926.85 548.027 926.846 548.707V548.936C926.846 549.623 926.969 550.137 927.215 550.477C927.465 550.812 927.824 550.98 928.293 550.98ZM937.346 552H935.922V546.809H933.449V552H932.025V545.66H937.346V552ZM944.248 545.66V552H942.824V546.809H941.031L940.914 549.018C940.84 550.08 940.635 550.844 940.299 551.309C939.967 551.77 939.457 552 938.77 552H938.33L938.324 550.816L938.617 550.787C938.93 550.744 939.156 550.555 939.297 550.219C939.441 549.879 939.533 549.262 939.572 548.367L939.689 545.66H944.248ZM947.98 549.961L949.27 545.66H950.787L948.268 552.961C947.881 554.027 947.225 554.561 946.299 554.561C946.092 554.561 945.863 554.525 945.613 554.455V553.354L945.883 553.371C946.242 553.371 946.512 553.305 946.691 553.172C946.875 553.043 947.02 552.824 947.125 552.516L947.33 551.971L945.104 545.66H946.639L947.98 549.961ZM955.305 552C955.242 551.879 955.188 551.682 955.141 551.408C954.688 551.881 954.133 552.117 953.477 552.117C952.84 552.117 952.32 551.936 951.918 551.572C951.516 551.209 951.314 550.76 951.314 550.225C951.314 549.549 951.564 549.031 952.064 548.672C952.568 548.309 953.287 548.127 954.221 548.127H955.094V547.711C955.094 547.383 955.002 547.121 954.818 546.926C954.635 546.727 954.355 546.627 953.98 546.627C953.656 546.627 953.391 546.709 953.184 546.873C952.977 547.033 952.873 547.238 952.873 547.488H951.449C951.449 547.141 951.564 546.816 951.795 546.516C952.025 546.211 952.338 545.973 952.732 545.801C953.131 545.629 953.574 545.543 954.062 545.543C954.805 545.543 955.396 545.73 955.838 546.105C956.279 546.477 956.506 547 956.518 547.676V550.535C956.518 551.105 956.598 551.561 956.758 551.9V552H955.305ZM953.74 550.975C954.021 550.975 954.285 550.906 954.531 550.77C954.781 550.633 954.969 550.449 955.094 550.219V549.023H954.326C953.799 549.023 953.402 549.115 953.137 549.299C952.871 549.482 952.738 549.742 952.738 550.078C952.738 550.352 952.828 550.57 953.008 550.734C953.191 550.895 953.436 550.975 953.74 550.975ZM962.904 546.791H960.848V552H959.424V546.791H957.391V545.66H962.904V546.791ZM967.814 545.66H969.232V552H967.814V547.77L965.33 552H963.912V545.66H965.33V549.891L967.814 545.66ZM976.299 548.895C976.299 549.875 976.076 550.658 975.631 551.244C975.186 551.826 974.588 552.117 973.838 552.117C973.143 552.117 972.586 551.889 972.168 551.432V554.438H970.744V545.66H972.057L972.115 546.305C972.533 545.797 973.102 545.543 973.82 545.543C974.594 545.543 975.199 545.832 975.637 546.41C976.078 546.984 976.299 547.783 976.299 548.807V548.895ZM974.881 548.771C974.881 548.139 974.754 547.637 974.5 547.266C974.25 546.895 973.891 546.709 973.422 546.709C972.84 546.709 972.422 546.949 972.168 547.43V550.242C972.426 550.734 972.848 550.98 973.434 550.98C973.887 550.98 974.24 550.799 974.494 550.436C974.752 550.068 974.881 549.514 974.881 548.771ZM979.656 549.961L980.945 545.66H982.463L979.943 552.961C979.557 554.027 978.9 554.561 977.975 554.561C977.768 554.561 977.539 554.525 977.289 554.455V553.354L977.559 553.371C977.918 553.371 978.188 553.305 978.367 553.172C978.551 553.043 978.695 552.824 978.801 552.516L979.006 551.971L976.779 545.66H978.314L979.656 549.961ZM985.996 552.117C985.094 552.117 984.361 551.834 983.799 551.268C983.24 550.697 982.961 549.939 982.961 548.994V548.818C982.961 548.186 983.082 547.621 983.324 547.125C983.57 546.625 983.914 546.236 984.355 545.959C984.797 545.682 985.289 545.543 985.832 545.543C986.695 545.543 987.361 545.818 987.83 546.369C988.303 546.92 988.539 547.699 988.539 548.707V549.281H984.396C984.439 549.805 984.613 550.219 984.918 550.523C985.227 550.828 985.613 550.98 986.078 550.98C986.73 550.98 987.262 550.717 987.672 550.189L988.439 550.922C988.186 551.301 987.846 551.596 987.42 551.807C986.998 552.014 986.523 552.117 985.996 552.117ZM985.826 546.686C985.436 546.686 985.119 546.822 984.877 547.096C984.639 547.369 984.486 547.75 984.42 548.238H987.133V548.133C987.102 547.656 986.975 547.297 986.752 547.055C986.529 546.809 986.221 546.686 985.826 546.686ZM993.414 550.248L995.289 545.66H997.07V552H995.646V547.805L993.9 552H992.934L991.182 547.781V552H989.758V545.66H991.551L993.414 550.248ZM998.406 548.771C998.406 548.15 998.529 547.592 998.775 547.096C999.021 546.596 999.367 546.213 999.812 545.947C1000.26 545.678 1000.77 545.543 1001.35 545.543C1002.2 545.543 1002.9 545.818 1003.43 546.369C1003.96 546.92 1004.25 547.65 1004.29 548.561L1004.3 548.895C1004.3 549.52 1004.18 550.078 1003.94 550.57C1003.7 551.062 1003.36 551.443 1002.91 551.713C1002.46 551.982 1001.95 552.117 1001.36 552.117C1000.46 552.117 999.748 551.82 999.209 551.227C998.674 550.629 998.406 549.834 998.406 548.842V548.771ZM999.83 548.895C999.83 549.547 999.965 550.059 1000.23 550.43C1000.5 550.797 1000.88 550.98 1001.36 550.98C1001.84 550.98 1002.21 550.793 1002.48 550.418C1002.75 550.043 1002.88 549.494 1002.88 548.771C1002.88 548.131 1002.74 547.623 1002.47 547.248C1002.19 546.873 1001.82 546.686 1001.35 546.686C1000.88 546.686 1000.51 546.871 1000.24 547.242C999.967 547.609 999.83 548.16 999.83 548.895ZM1009.46 545.66H1010.88V552H1009.46V547.77L1006.98 552H1005.56V545.66H1006.98V549.891L1009.46 545.66ZM1010.13 543.229C1010.13 543.721 1009.96 544.119 1009.62 544.424C1009.27 544.729 1008.81 544.881 1008.24 544.881C1007.66 544.881 1007.21 544.729 1006.86 544.424C1006.52 544.119 1006.35 543.721 1006.35 543.229H1007.41C1007.41 543.486 1007.48 543.688 1007.63 543.832C1007.78 543.973 1007.98 544.043 1008.24 544.043C1008.5 544.043 1008.7 543.973 1008.84 543.832C1008.99 543.688 1009.06 543.486 1009.06 543.229H1010.13ZM897.268 563.492H896.547V566H895.123V559.66H896.547V562.191H897.174L898.926 559.66H900.684L898.393 562.695L900.877 566H899.025L897.268 563.492ZM907.211 562.895C907.211 563.875 906.988 564.658 906.543 565.244C906.098 565.826 905.5 566.117 904.75 566.117C904.055 566.117 903.498 565.889 903.08 565.432V568.438H901.656V559.66H902.969L903.027 560.305C903.445 559.797 904.014 559.543 904.732 559.543C905.506 559.543 906.111 559.832 906.549 560.41C906.99 560.984 907.211 561.783 907.211 562.807V562.895ZM905.793 562.771C905.793 562.139 905.666 561.637 905.412 561.266C905.162 560.895 904.803 560.709 904.334 560.709C903.752 560.709 903.334 560.949 903.08 561.43V564.242C903.338 564.734 903.76 564.98 904.346 564.98C904.799 564.98 905.152 564.799 905.406 564.436C905.664 564.068 905.793 563.514 905.793 562.771ZM908.154 562.771C908.154 562.15 908.277 561.592 908.523 561.096C908.77 560.596 909.115 560.213 909.561 559.947C910.006 559.678 910.518 559.543 911.096 559.543C911.951 559.543 912.645 559.818 913.176 560.369C913.711 560.92 914 561.65 914.043 562.561L914.049 562.895C914.049 563.52 913.928 564.078 913.686 564.57C913.447 565.062 913.104 565.443 912.654 565.713C912.209 565.982 911.693 566.117 911.107 566.117C910.213 566.117 909.496 565.82 908.957 565.227C908.422 564.629 908.154 563.834 908.154 562.842V562.771ZM909.578 562.895C909.578 563.547 909.713 564.059 909.982 564.43C910.252 564.797 910.627 564.98 911.107 564.98C911.588 564.98 911.961 564.793 912.227 564.418C912.496 564.043 912.631 563.494 912.631 562.771C912.631 562.131 912.492 561.623 912.215 561.248C911.941 560.873 911.568 560.686 911.096 560.686C910.631 560.686 910.262 560.871 909.988 561.242C909.715 561.609 909.578 562.16 909.578 562.895ZM915.361 566V559.66H917.934C918.801 559.66 919.461 559.812 919.914 560.117C920.367 560.418 920.594 560.852 920.594 561.418C920.594 561.711 920.502 561.975 920.318 562.209C920.139 562.439 919.871 562.617 919.516 562.742C919.93 562.828 920.258 563.002 920.5 563.264C920.742 563.525 920.863 563.834 920.863 564.189C920.863 564.779 920.645 565.229 920.207 565.537C919.773 565.846 919.148 566 918.332 566H915.361ZM916.785 563.299V564.875H918.344C919.074 564.875 919.439 564.613 919.439 564.09C919.439 563.562 919.068 563.299 918.326 563.299H916.785ZM916.785 562.279H917.957C918.766 562.279 919.17 562.041 919.17 561.564C919.17 561.064 918.787 560.807 918.021 560.791H916.785V562.279ZM927.484 559.66V566H926.061V560.809H924.268L924.15 563.018C924.076 564.08 923.871 564.844 923.535 565.309C923.203 565.77 922.693 566 922.006 566H921.566L921.561 564.816L921.854 564.787C922.166 564.744 922.393 564.555 922.533 564.219C922.678 563.879 922.77 563.262 922.809 562.367L922.926 559.66H927.484ZM931.791 566.117C930.889 566.117 930.156 565.834 929.594 565.268C929.035 564.697 928.756 563.939 928.756 562.994V562.818C928.756 562.186 928.877 561.621 929.119 561.125C929.365 560.625 929.709 560.236 930.15 559.959C930.592 559.682 931.084 559.543 931.627 559.543C932.49 559.543 933.156 559.818 933.625 560.369C934.098 560.92 934.334 561.699 934.334 562.707V563.281H930.191C930.234 563.805 930.408 564.219 930.713 564.523C931.021 564.828 931.408 564.98 931.873 564.98C932.525 564.98 933.057 564.717 933.467 564.189L934.234 564.922C933.98 565.301 933.641 565.596 933.215 565.807C932.793 566.014 932.318 566.117 931.791 566.117ZM931.621 560.686C931.23 560.686 930.914 560.822 930.672 561.096C930.434 561.369 930.281 561.75 930.215 562.238H932.928V562.133C932.896 561.656 932.77 561.297 932.547 561.055C932.324 560.809 932.016 560.686 931.621 560.686Z" fill="#3C3C3B"/>
<rect x="403" y="63" width="115" height="448" fill="#FECF9B"/>
<rect x="791" y="480" width="115" height="31" fill="#FECF9B"/>
<rect x="17" y="480" width="115" height="31" fill="#FECF9B"/>
<rect x="520" y="27" width="115" height="484" fill="#37FF9F"/>
<rect x="908" y="477" width="115" height="34" fill="#37FF9F"/>
<rect x="134" y="477" width="115" height="34" fill="#37FF9F"/>
<line x1="578.25" y1="14" x2="578.25" y2="24" stroke="#3C3C3B" stroke-width="0.5"/>
<line x1="966.25" y1="462" x2="966.25" y2="472" stroke="#3C3C3B" stroke-width="0.5"/>
<line x1="192.25" y1="462" x2="192.25" y2="472" stroke="#3C3C3B" stroke-width="0.5"/>
<line x1="461.25" y1="51" x2="461.25" y2="61" stroke="#3C3C3B" stroke-width="0.5"/>
<line x1="849.25" y1="467" x2="849.25" y2="477" stroke="#3C3C3B" stroke-width="0.5"/>
<line x1="75.25" y1="467" x2="75.25" y2="477" stroke="#3C3C3B" stroke-width="0.5"/>
<path d="M965.146 459H959.803V458.461L962.727 455.145C963.211 454.586 963.547 454.125 963.734 453.762C963.922 453.398 964.016 453.045 964.016 452.701C964.016 452.162 963.857 451.736 963.541 451.424C963.225 451.107 962.789 450.949 962.234 450.949C961.66 450.949 961.195 451.133 960.84 451.5C960.488 451.867 960.312 452.344 960.312 452.93H959.615C959.615 452.449 959.723 452.012 959.938 451.617C960.156 451.223 960.465 450.914 960.863 450.691C961.266 450.465 961.723 450.352 962.234 450.352C963.016 450.352 963.625 450.557 964.062 450.967C964.504 451.377 964.725 451.936 964.725 452.643C964.725 453.041 964.6 453.477 964.35 453.949C964.104 454.422 963.668 455.012 963.043 455.719L960.664 458.408H965.146V459ZM970.596 450.404V451.02H970.514C969.494 451.02 968.691 451.32 968.105 451.922C967.52 452.52 967.195 453.352 967.133 454.418C967.367 454.094 967.666 453.844 968.029 453.668C968.393 453.488 968.799 453.398 969.248 453.398C969.998 453.398 970.594 453.658 971.035 454.178C971.48 454.693 971.703 455.369 971.703 456.205C971.703 456.76 971.6 457.26 971.393 457.705C971.186 458.15 970.889 458.498 970.502 458.748C970.115 458.994 969.674 459.117 969.178 459.117C968.361 459.117 967.697 458.822 967.186 458.232C966.674 457.639 966.418 456.873 966.418 455.936V455.232C966.418 453.705 966.766 452.523 967.461 451.688C968.156 450.848 969.143 450.42 970.42 450.404H970.596ZM969.137 454.002C968.691 454.002 968.275 454.135 967.889 454.4C967.506 454.662 967.25 454.996 967.121 455.402V456C967.121 456.742 967.311 457.348 967.689 457.816C968.072 458.285 968.568 458.52 969.178 458.52C969.725 458.52 970.166 458.303 970.502 457.869C970.842 457.436 971.012 456.889 971.012 456.229C971.012 455.557 970.842 455.018 970.502 454.611C970.166 454.205 969.711 454.002 969.137 454.002Z" fill="#3C3C3B"/>
<path d="M191.146 459H185.803V458.461L188.727 455.145C189.211 454.586 189.547 454.125 189.734 453.762C189.922 453.398 190.016 453.045 190.016 452.701C190.016 452.162 189.857 451.736 189.541 451.424C189.225 451.107 188.789 450.949 188.234 450.949C187.66 450.949 187.195 451.133 186.84 451.5C186.488 451.867 186.312 452.344 186.312 452.93H185.615C185.615 452.449 185.723 452.012 185.938 451.617C186.156 451.223 186.465 450.914 186.863 450.691C187.266 450.465 187.723 450.352 188.234 450.352C189.016 450.352 189.625 450.557 190.062 450.967C190.504 451.377 190.725 451.936 190.725 452.643C190.725 453.041 190.6 453.477 190.35 453.949C190.104 454.422 189.668 455.012 189.043 455.719L186.664 458.408H191.146V459ZM196.596 450.404V451.02H196.514C195.494 451.02 194.691 451.32 194.105 451.922C193.52 452.52 193.195 453.352 193.133 454.418C193.367 454.094 193.666 453.844 194.029 453.668C194.393 453.488 194.799 453.398 195.248 453.398C195.998 453.398 196.594 453.658 197.035 454.178C197.48 454.693 197.703 455.369 197.703 456.205C197.703 456.76 197.6 457.26 197.393 457.705C197.186 458.15 196.889 458.498 196.502 458.748C196.115 458.994 195.674 459.117 195.178 459.117C194.361 459.117 193.697 458.822 193.186 458.232C192.674 457.639 192.418 456.873 192.418 455.936V455.232C192.418 453.705 192.766 452.523 193.461 451.688C194.156 450.848 195.143 450.42 196.42 450.404H196.596ZM195.137 454.002C194.691 454.002 194.275 454.135 193.889 454.4C193.506 454.662 193.25 454.996 193.121 455.402V456C193.121 456.742 193.311 457.348 193.689 457.816C194.072 458.285 194.568 458.52 195.178 458.52C195.725 458.52 196.166 458.303 196.502 457.869C196.842 457.436 197.012 456.889 197.012 456.229C197.012 455.557 196.842 455.018 196.502 454.611C196.166 454.205 195.711 454.002 195.137 454.002Z" fill="#3C3C3B"/>
<path d="M457.146 48H451.803V47.4609L454.727 44.1445C455.211 43.5859 455.547 43.125 455.734 42.7617C455.922 42.3984 456.016 42.0449 456.016 41.7012C456.016 41.1621 455.857 40.7363 455.541 40.4238C455.225 40.1074 454.789 39.9492 454.234 39.9492C453.66 39.9492 453.195 40.1328 452.84 40.5C452.488 40.8672 452.312 41.3438 452.312 41.9297H451.615C451.615 41.4492 451.723 41.0117 451.938 40.6172C452.156 40.2227 452.465 39.9141 452.863 39.6914C453.266 39.4648 453.723 39.3516 454.234 39.3516C455.016 39.3516 455.625 39.5566 456.062 39.9668C456.504 40.377 456.725 40.9355 456.725 41.6426C456.725 42.041 456.6 42.4766 456.35 42.9492C456.104 43.4219 455.668 44.0117 455.043 44.7188L452.664 47.4082H457.146V48ZM458.934 43.6289L459.35 39.4688H463.615V40.1191H459.953L459.654 43.002C460.111 42.6895 460.646 42.5332 461.26 42.5332C462.029 42.5332 462.643 42.7832 463.1 43.2832C463.557 43.7832 463.785 44.4492 463.785 45.2812C463.785 46.1797 463.562 46.877 463.117 47.373C462.672 47.8691 462.045 48.1172 461.236 48.1172C460.494 48.1172 459.893 47.9102 459.432 47.4961C458.971 47.082 458.707 46.502 458.641 45.7559H459.314C459.381 46.3379 459.578 46.7793 459.906 47.0801C460.234 47.377 460.678 47.5254 461.236 47.5254C461.846 47.5254 462.305 47.332 462.613 46.9453C462.926 46.5586 463.082 46.0078 463.082 45.293C463.082 44.668 462.908 44.1582 462.561 43.7637C462.213 43.3691 461.738 43.1719 461.137 43.1719C460.805 43.1719 460.516 43.2148 460.27 43.3008C460.023 43.3828 459.764 43.5449 459.49 43.7871L458.934 43.6289ZM465.59 43.6289L466.006 39.4688H470.271V40.1191H466.609L466.311 43.002C466.768 42.6895 467.303 42.5332 467.916 42.5332C468.686 42.5332 469.299 42.7832 469.756 43.2832C470.213 43.7832 470.441 44.4492 470.441 45.2812C470.441 46.1797 470.219 46.877 469.773 47.373C469.328 47.8691 468.701 48.1172 467.893 48.1172C467.15 48.1172 466.549 47.9102 466.088 47.4961C465.627 47.082 465.363 46.502 465.297 45.7559H465.971C466.037 46.3379 466.234 46.7793 466.562 47.0801C466.891 47.377 467.334 47.5254 467.893 47.5254C468.502 47.5254 468.961 47.332 469.27 46.9453C469.582 46.5586 469.738 46.0078 469.738 45.293C469.738 44.668 469.564 44.1582 469.217 43.7637C468.869 43.3691 468.395 43.1719 467.793 43.1719C467.461 43.1719 467.172 43.2148 466.926 43.3008C466.68 43.3828 466.42 43.5449 466.146 43.7871L465.59 43.6289Z" fill="#3C3C3B"/>
<path d="M574.146 11H568.803V10.4609L571.727 7.14453C572.211 6.58594 572.547 6.125 572.734 5.76172C572.922 5.39844 573.016 5.04492 573.016 4.70117C573.016 4.16211 572.857 3.73633 572.541 3.42383C572.225 3.10742 571.789 2.94922 571.234 2.94922C570.66 2.94922 570.195 3.13281 569.84 3.5C569.488 3.86719 569.312 4.34375 569.312 4.92969H568.615C568.615 4.44922 568.723 4.01172 568.938 3.61719C569.156 3.22266 569.465 2.91406 569.863 2.69141C570.266 2.46484 570.723 2.35156 571.234 2.35156C572.016 2.35156 572.625 2.55664 573.062 2.9668C573.504 3.37695 573.725 3.93555 573.725 4.64258C573.725 5.04102 573.6 5.47656 573.35 5.94922C573.104 6.42188 572.668 7.01172 572.043 7.71875L569.664 10.4082H574.146V11ZM575.934 6.62891L576.35 2.46875H580.615V3.11914H576.953L576.654 6.00195C577.111 5.68945 577.646 5.5332 578.26 5.5332C579.029 5.5332 579.643 5.7832 580.1 6.2832C580.557 6.7832 580.785 7.44922 580.785 8.28125C580.785 9.17969 580.562 9.87695 580.117 10.373C579.672 10.8691 579.045 11.1172 578.236 11.1172C577.494 11.1172 576.893 10.9102 576.432 10.4961C575.971 10.082 575.707 9.50195 575.641 8.75586H576.314C576.381 9.33789 576.578 9.7793 576.906 10.0801C577.234 10.377 577.678 10.5254 578.236 10.5254C578.846 10.5254 579.305 10.332 579.613 9.94531C579.926 9.55859 580.082 9.00781 580.082 8.29297C580.082 7.66797 579.908 7.1582 579.561 6.76367C579.213 6.36914 578.738 6.17188 578.137 6.17188C577.805 6.17188 577.516 6.21484 577.27 6.30078C577.023 6.38281 576.764 6.54492 576.49 6.78711L575.934 6.62891ZM582.59 6.62891L583.006 2.46875H587.271V3.11914H583.609L583.311 6.00195C583.768 5.68945 584.303 5.5332 584.916 5.5332C585.686 5.5332 586.299 5.7832 586.756 6.2832C587.213 6.7832 587.441 7.44922 587.441 8.28125C587.441 9.17969 587.219 9.87695 586.773 10.373C586.328 10.8691 585.701 11.1172 584.893 11.1172C584.15 11.1172 583.549 10.9102 583.088 10.4961C582.627 10.082 582.363 9.50195 582.297 8.75586H582.971C583.037 9.33789 583.234 9.7793 583.562 10.0801C583.891 10.377 584.334 10.5254 584.893 10.5254C585.502 10.5254 585.961 10.332 586.27 9.94531C586.582 9.55859 586.738 9.00781 586.738 8.29297C586.738 7.66797 586.564 7.1582 586.217 6.76367C585.869 6.36914 585.395 6.17188 584.793 6.17188C584.461 6.17188 584.172 6.21484 583.926 6.30078C583.68 6.38281 583.42 6.54492 583.146 6.78711L582.59 6.62891Z" fill="#3C3C3B"/>
<path d="M848.146 464H842.803V463.461L845.727 460.145C846.211 459.586 846.547 459.125 846.734 458.762C846.922 458.398 847.016 458.045 847.016 457.701C847.016 457.162 846.857 456.736 846.541 456.424C846.225 456.107 845.789 455.949 845.234 455.949C844.66 455.949 844.195 456.133 843.84 456.5C843.488 456.867 843.312 457.344 843.312 457.93H842.615C842.615 457.449 842.723 457.012 842.938 456.617C843.156 456.223 843.465 455.914 843.863 455.691C844.266 455.465 844.723 455.352 845.234 455.352C846.016 455.352 846.625 455.557 847.062 455.967C847.504 456.377 847.725 456.936 847.725 457.643C847.725 458.041 847.6 458.477 847.35 458.949C847.104 459.422 846.668 460.012 846.043 460.719L843.664 463.408H848.146V464ZM853.766 461.252H855.096V461.844H853.766V464H853.062V461.844H849.049V461.445L852.998 455.469H853.766V461.252ZM849.91 461.252H853.062V456.377L852.752 456.916L849.91 461.252Z" fill="#3C3C3B"/>
<path d="M74.1465 464H68.8027V463.461L71.7266 460.145C72.2109 459.586 72.5469 459.125 72.7344 458.762C72.9219 458.398 73.0156 458.045 73.0156 457.701C73.0156 457.162 72.8574 456.736 72.541 456.424C72.2246 456.107 71.7891 455.949 71.2344 455.949C70.6602 455.949 70.1953 456.133 69.8398 456.5C69.4883 456.867 69.3125 457.344 69.3125 457.93H68.6152C68.6152 457.449 68.7227 457.012 68.9375 456.617C69.1562 456.223 69.4648 455.914 69.8633 455.691C70.2656 455.465 70.7227 455.352 71.2344 455.352C72.0156 455.352 72.625 455.557 73.0625 455.967C73.5039 456.377 73.7246 456.936 73.7246 457.643C73.7246 458.041 73.5996 458.477 73.3496 458.949C73.1035 459.422 72.668 460.012 72.043 460.719L69.6641 463.408H74.1465V464ZM79.7656 461.252H81.0957V461.844H79.7656V464H79.0625V461.844H75.0488V461.445L78.998 455.469H79.7656V461.252ZM75.9102 461.252H79.0625V456.377L78.752 456.916L75.9102 461.252Z" fill="#3C3C3B"/>
</svg>
