<?xml version="1.0" standalone="no"?>
<!DOCTYPE svg PUBLIC "-//W3C//DTD SVG 1.1//EN" "http://www.w3.org/Graphics/SVG/1.1/DTD/svg11.dtd" >
<svg xmlns="http://www.w3.org/2000/svg" xmlns:xlink="http://www.w3.org/1999/xlink" version="1.1">
<metadata>
Created by FontForge 20170731 at Wed Sep  9 20:29:20 2020
 By Aleksey,,,
Copyright (c) 2015 by Typetype. Designer Ivan Gladkikh, technical designers Maria Mizernitskaya, Nadyr Rakhimov. All rights reserved.
</metadata>
<defs>
<font id="TTFirs-Medium" horiz-adv-x="1105" >
  <font-face 
    font-family="TTFirs-Medium"
    font-weight="400"
    font-stretch="normal"
    units-per-em="2048"
    panose-1="2 0 6 3 3 0 0 2 0 3"
    ascent="1575"
    descent="-473"
    x-height="942"
    cap-height="1413"
    bbox="-184 -573 2314 1987"
    underline-thickness="102"
    underline-position="-307"
    unicode-range="U+000D-F6D4"
  />
<missing-glyph horiz-adv-x="0" 
 />
    <glyph glyph-name=".notdef" horiz-adv-x="0" 
 />
    <glyph glyph-name=".null" horiz-adv-x="0" 
 />
    <glyph glyph-name=".null" horiz-adv-x="0" 
 />
    <glyph glyph-name="nonmarkingreturn" unicode="&#xd;" horiz-adv-x="0" 
 />
    <glyph glyph-name="space" unicode=" " horiz-adv-x="358" 
 />
    <glyph glyph-name="exclam" unicode="!" horiz-adv-x="491" 
d="M174 1413h143v-717l-30 -278h-82l-31 278v717zM154 72q0 39 26 65q27 27 66 27q38 0 65 -27t27 -65q0 -39 -27 -66q-26 -26 -65 -26q-40 0 -66 26t-26 66z" />
    <glyph glyph-name="quotedbl" unicode="&#x22;" horiz-adv-x="655" 
d="M123 1413h113v-276l-21 -215h-72l-20 215v276zM420 1413h112v-276l-20 -215h-72l-20 215v276z" />
    <glyph glyph-name="numbersign" unicode="#" horiz-adv-x="1331" 
d="M154 0l112 399h-225v123h266l103 369h-236v123h277l112 399h133l-112 -399h338l112 399h133l-112 -399h235v-123h-276l-103 -369h246v-123h-287l-112 -399h-133l112 399h-338l-112 -399h-133zM440 522h338l103 369h-338z" />
    <glyph glyph-name="dollar" unicode="$" horiz-adv-x="1095" 
d="M481 143q-81 5 -144 31q-66 27 -114 70q-48 42 -85 96q-33 48 -56 111l133 20q15 -44 41 -80q26 -37 66 -64q40 -28 93 -44q56 -17 128 -17q80 0 140 18q61 18 99 46q41 30 59 65q19 37 19 76q0 61 -54 93q-52 30 -134 52q-77 20 -175 39q-94 18 -175 53q-84 37 -135 93
q-54 60 -54 162q0 59 25 115t69 96q45 40 110 66t144 30v205h133v-205q153 -8 247 -89q93 -81 132 -198l-133 -20q-16 37 -40 72q-26 37 -60 59q-38 24 -87 39q-46 14 -120 14q-153 0 -220 -53t-67 -131q0 -68 55 -103q54 -34 134 -57q72 -20 175 -40q101 -19 175 -50
q82 -34 134 -89q54 -57 54 -153q0 -57 -27 -113q-25 -52 -78 -100q-50 -46 -120 -76q-73 -32 -154 -39v-204h-133v204z" />
    <glyph glyph-name="percent" unicode="%" horiz-adv-x="1454" 
d="M369 0h-154l870 1413h154zM184 1106q0 -46 16 -91q15 -42 42 -72t59 -46t68 -16q35 0 67 16q34 17 60 46q27 30 42 72t15 91t-15 91t-42 72q-26 29 -60 46q-32 16 -67 16q-36 0 -68 -16t-59 -46t-42 -72q-16 -45 -16 -91zM676 1106q0 -75 -25 -141q-25 -65 -67 -110
q-44 -47 -99 -72q-54 -25 -116 -25q-63 0 -117 25t-98 72t-68 110q-25 66 -25 141q0 73 25 140q24 64 68 111q43 46 98 71q57 26 117 26q59 0 116 -26t99 -71q43 -46 67 -111q25 -67 25 -140zM901 307q0 -49 15 -91t42 -72q26 -29 60 -46q32 -16 67 -16q36 0 68 16t59 46
t42 72q16 45 16 91t-16 91q-15 42 -42 72t-59 46t-68 16q-35 0 -67 -16q-34 -17 -60 -46q-27 -30 -42 -72t-15 -91zM1393 307q0 -75 -25 -141q-24 -63 -68 -110q-43 -46 -98 -71q-57 -26 -117 -26q-59 0 -116 26t-99 71t-67 110q-25 66 -25 141q0 73 25 140q24 65 67 111
q44 46 99 72q54 25 116 25q63 0 117 -25t98 -72t68 -111q25 -67 25 -140z" />
    <glyph glyph-name="ampersand" unicode="&#x26;" horiz-adv-x="1208" 
d="M215 1270v143h819v-133h-655v-10l829 -1270h-164l-81 123h-11q-45 -55 -104 -92q-56 -37 -129 -64q-75 -28 -176 -28q-107 0 -190 32q-86 33 -145 89q-60 57 -93 134q-33 76 -33 164q0 71 16 129q16 57 44 109q24 44 63 88q38 43 71 68q84 68 195 108v10zM543 72
q80 0 139 26q60 26 106 60q57 40 93 88l-338 512q-93 -34 -160 -88q-58 -45 -109 -124q-49 -76 -49 -188q0 -56 24 -109t65 -91q42 -39 101 -63q56 -23 128 -23z" />
    <glyph glyph-name="quotesingle" unicode="'" horiz-adv-x="358" 
d="M123 1413h113v-276l-21 -215h-72l-20 215v276z" />
    <glyph glyph-name="parenleft" unicode="(" horiz-adv-x="706" 
d="M266 594q0 -99 17 -190t43 -166q31 -89 60 -145q38 -73 69 -120q83 -128 190 -219l-61 -102q-134 102 -232 239q-42 58 -84 134q-40 73 -73 161q-34 91 -53 191q-19 99 -19 217q0 117 19 216q18 96 53 189q34 91 73 162t84 133q100 139 232 242l61 -102
q-107 -93 -190 -222q-33 -51 -69 -119q-28 -54 -60 -144q-26 -72 -43 -166q-17 -91 -17 -189z" />
    <glyph glyph-name="parenright" unicode=")" horiz-adv-x="706" 
d="M440 594q0 103 -16 189q-17 94 -43 166q-28 78 -62 144q-36 68 -69 119q-82 128 -189 222l62 102q127 -100 229 -242q42 -59 85 -133q43 -76 74 -162q31 -87 52 -189t21 -216q0 -115 -21 -217q-22 -107 -52 -191t-74 -161q-45 -79 -85 -134q-100 -140 -229 -239l-62 102
q107 92 189 219q31 47 69 120q35 67 62 145q26 75 43 166q16 86 16 190z" />
    <glyph glyph-name="asterisk" unicode="*" horiz-adv-x="757" 
d="M225 809l-82 61l144 205h-205v103h246v235h102v-235h246v-103h-205l143 -205l-82 -61l-153 215z" />
    <glyph glyph-name="plus" unicode="+" horiz-adv-x="860" 
d="M369 563h-328v133h328v338h123v-338h327v-133h-327v-338h-123v338z" />
    <glyph glyph-name="comma" unicode="," horiz-adv-x="317" 
d="M72 72q0 39 26 65q27 27 66 27q38 0 65 -27t27 -65q0 -15 -5 -32q-4 -14 -11 -26q-3 -6 -8.5 -14t-6.5 -10l-102 -174h-62l62 174q-17 8 -27 18q-8 8 -17 26q-7 14 -7 38z" />
    <glyph glyph-name="hyphen" unicode="-" horiz-adv-x="808" 
d="M41 563v133h727v-133h-727z" />
    <glyph glyph-name="period" unicode="." horiz-adv-x="307" 
d="M61 72q0 38 27 65t66 27q38 0 65 -27t27 -65q0 -39 -27 -66q-26 -26 -65 -26q-40 0 -66 26q-27 27 -27 66z" />
    <glyph glyph-name="slash" unicode="/" horiz-adv-x="778" 
d="M594 1413h143l-553 -1413h-143z" />
    <glyph glyph-name="zero" unicode="0" horiz-adv-x="1474" 
d="M1229 707q0 145 -42 263q-41 115 -112 200t-157 127q-90 44 -181 44q-90 0 -180 -44q-88 -43 -158 -127q-70 -83 -111 -200q-42 -118 -42 -263t42 -264q41 -117 111 -200q70 -84 158 -127q90 -44 180 -44q91 0 181 44q86 42 157 127t112 200q42 119 42 264zM102 707
q0 167 54 314q52 143 141 243q87 98 203 155q115 56 237 56q123 0 238 -56q116 -57 203 -155q88 -100 141 -243q53 -144 53 -314q0 -171 -53 -315q-52 -141 -141 -242q-88 -100 -203 -156q-113 -55 -238 -55q-124 0 -237 55q-115 56 -203 156q-89 101 -141 242
q-54 147 -54 315z" />
    <glyph glyph-name="one" unicode="1" horiz-adv-x="614" 
d="M317 1147q-29 -31 -63 -51q-32 -21 -80 -36q-50 -16 -113 -16v123q54 0 102 21t85 55q36 33 58 79t22 91h133v-1413h-144v1147z" />
    <glyph glyph-name="two" unicode="2" horiz-adv-x="1187" 
d="M942 1055q0 61 -24 113t-70 92q-45 39 -107 60t-137 21q-165 0 -255 -74t-134 -192l-143 21q22 78 67 146q44 68 111 121q65 52 154 82q88 30 200 30q106 0 196 -32t152 -88q66 -60 99 -133q34 -75 34 -167q0 -122 -64 -205t-161 -150q-85 -59 -210 -121
q-118 -59 -210 -118q-96 -61 -160 -139q-65 -79 -65 -189h881v-133h-1024v123q0 137 64 234q63 96 161 169q92 69 210 128q114 57 210 114t161 125q64 67 64 162z" />
    <glyph glyph-name="three" unicode="3" horiz-adv-x="1208" 
d="M195 379q27 -67 65 -122q39 -57 91 -97q54 -42 118 -65q63 -23 145 -23q83 0 148 26q68 27 117 73t76 108q28 64 28 131t-28 131q-27 61 -76 107t-117 73t-148 27h-194v133l440 389v10h-686v133h901v-133l-440 -389v-10q107 0 198 -36q88 -35 155 -100q64 -63 102 -149
q36 -82 36 -186q0 -105 -36 -187q-38 -86 -105 -149q-69 -65 -162 -100q-92 -35 -209 -35t-206 32q-95 34 -163 88q-72 57 -119 130q-48 75 -75 159z" />
    <glyph glyph-name="four" unicode="4" horiz-adv-x="1208" 
d="M850 0v317h-789v134l492 962h154l-492 -962h635v399h143v-399h195v-134h-195v-317h-143z" />
    <glyph glyph-name="five" unicode="5" horiz-adv-x="1177" 
d="M205 748l112 665h717v-133h-594l-71 -399h215q114 0 209 -36q91 -35 161 -100q67 -63 105 -149q37 -84 37 -186q0 -103 -37 -187q-38 -86 -105 -149q-70 -65 -161 -100q-92 -35 -209 -35q-118 0 -207 32q-95 34 -163 88q-72 57 -119 130q-48 75 -75 159l144 31
q27 -67 65 -122t92 -97q55 -42 117 -65q63 -23 146 -23q82 0 147 26q68 27 117 73q50 47 77 108t27 131t-27 131q-26 59 -77 107q-49 46 -117 73q-67 27 -147 27h-379z" />
    <glyph glyph-name="six" unicode="6" horiz-adv-x="1208" 
d="M82 451q0 79 19 140q19 62 42 109q28 55 62 99l471 614h164l-369 -481h10q33 12 39 14q20 7 46 11q36 6 67 6q110 0 203 -40t162 -109q68 -68 109 -163q40 -93 40 -200q0 -110 -40 -202q-41 -93 -111 -162q-70 -68 -169 -109q-95 -39 -213 -39t-213 39q-99 41 -169 109
q-69 67 -110 162q-40 92 -40 202zM225 451q0 -80 29 -150q29 -71 81 -121q54 -52 124 -80q71 -28 155 -28q85 0 156 28q70 28 124 80q52 50 81 121q29 70 29 150q0 79 -29 149q-29 71 -81 121q-54 52 -124 80q-71 28 -156 28q-84 0 -155 -28q-70 -28 -124 -80
q-52 -50 -81 -121q-29 -70 -29 -149z" />
    <glyph glyph-name="seven" unicode="7" horiz-adv-x="972" 
d="M195 0l593 1270v10h-768v133h922v-143l-594 -1270h-153z" />
    <glyph glyph-name="eight" unicode="8" horiz-adv-x="1269" 
d="M635 72q98 0 172 26q78 27 129 70q56 46 81 98q27 56 27 113q0 62 -27 119q-26 56 -81 101q-54 44 -129 71q-74 26 -172 26t-172 -26q-75 -27 -129 -71q-55 -45 -81 -101q-28 -59 -28 -119q0 -55 28 -113q25 -52 81 -98q51 -43 129 -70q74 -26 172 -26zM635 829
q78 0 144 23q67 24 110 59q45 38 69 82q25 47 25 92q0 44 -25 92q-23 45 -69 83q-43 35 -110 59q-63 22 -144 22q-82 0 -145 -22q-66 -23 -109 -59q-48 -40 -70 -83q-24 -47 -24 -92q0 -47 24 -92q23 -43 70 -82q43 -36 109 -59t145 -23zM635 -61q-131 0 -229 36
q-104 38 -175 99q-70 60 -110 141q-39 79 -39 164q0 118 51 193t113 116q71 49 164 70v10q-77 23 -134 63q-50 34 -92 96q-41 61 -41 158q0 74 35 144q35 69 100 124q64 54 155 88q90 34 202 34t202 -34q91 -34 155 -88q65 -55 100 -124q34 -68 34 -144q0 -96 -42 -157
q-44 -64 -91 -97q-60 -41 -133 -63v-10q93 -21 164 -70q62 -41 113 -116t51 -193q0 -85 -39 -164t-111 -141t-174 -99q-98 -36 -229 -36z" />
    <glyph glyph-name="nine" unicode="9" horiz-adv-x="1208" 
d="M1126 963q0 -81 -19 -142q-20 -64 -42 -110q-29 -57 -61 -97l-472 -614h-163l368 481h-10q-25 -11 -39 -16q-17 -5 -48 -10q-24 -4 -67 -4q-111 0 -201 39q-94 41 -162 109t-109 162q-40 92 -40 202q0 107 40 200q40 94 111 163q70 68 169 109q98 40 213 40t213 -40
q99 -41 169 -109q69 -68 110 -163q40 -93 40 -200zM983 963q0 79 -29 149q-29 71 -81 121q-54 53 -123 80q-71 28 -156 28t-156 -28q-70 -28 -124 -80q-52 -50 -81 -121q-28 -68 -28 -149q0 -82 28 -150q29 -71 81 -121q54 -52 124 -80q71 -28 156 -28t156 28q69 27 123 80
q52 50 81 121q29 70 29 150z" />
    <glyph glyph-name="colon" unicode=":" horiz-adv-x="307" 
d="M61 72q0 38 27 65t66 27q38 0 65 -27t27 -65q0 -39 -27 -66q-26 -26 -65 -26q-40 0 -66 26q-27 27 -27 66zM61 881q0 38 27 65t66 27q38 0 65 -27t27 -65q0 -39 -27 -66t-65 -27q-39 0 -66 27t-27 66z" />
    <glyph glyph-name="semicolon" unicode=";" horiz-adv-x="317" 
d="M72 881q0 39 26 65q27 27 66 27q38 0 65 -27t27 -65q0 -39 -27 -66t-65 -27q-39 0 -66 27q-26 26 -26 66zM72 72q0 39 26 65q27 27 66 27q38 0 65 -27t27 -65q0 -15 -5 -32q-4 -14 -11 -26q-3 -6 -8.5 -14t-6.5 -10l-102 -174h-62l62 174q-17 8 -27 18q-8 8 -17 26
q-7 14 -7 38z" />
    <glyph glyph-name="less" unicode="&#x3c;" horiz-adv-x="993" 
d="M911 164v-133l-829 358v154l829 358v-133l-686 -297v-10z" />
    <glyph glyph-name="equal" unicode="=" horiz-adv-x="880" 
d="M82 748v122h717v-122h-717zM82 379v123h717v-123h-717z" />
    <glyph glyph-name="greater" unicode="&#x3e;" horiz-adv-x="993" 
d="M768 461v10l-686 297v133l829 -358v-154l-829 -358v133z" />
    <glyph glyph-name="question" unicode="?" horiz-adv-x="1075" 
d="M532 1341q-154 0 -241 -74q-88 -74 -127 -192l-144 21q23 80 66 149q44 70 107 121q64 52 147 80q85 29 192 29q103 0 190 -32q84 -31 145 -86t94 -125q32 -68 32 -147q0 -99 -34 -161q-37 -68 -82 -110q-49 -46 -109 -82t-109 -79q-46 -40 -82 -100q-34 -56 -34 -143
h-123q0 108 32 178q33 73 79 120q48 50 104 86q61 40 103 75q50 43 80 89q32 50 32 127q0 45 -24 92q-24 46 -65 83q-40 35 -101 59q-57 22 -128 22zM389 72q0 38 27 65t65 27q39 0 66 -27q26 -26 26 -65q0 -40 -26 -66t-66 -26q-39 0 -65 26q-27 27 -27 66z" />
    <glyph glyph-name="at" unicode="@" horiz-adv-x="1669" 
d="M1024 399h-10q-16 -24 -47 -47q-18 -12 -62 -30q-37 -15 -86 -15q-62 0 -119 27t-101 74t-71 110q-26 61 -26 137q0 77 26 138q27 63 71 110t101 74t119 27q46 0 86 -16q37 -15 62 -32q30 -22 47 -45h10v72h133v-532q72 0 128 23q58 24 100 69t66 106t24 139
q0 107 -43 197q-45 94 -124 163q-83 72 -197 112t-261 40q-137 0 -251 -49q-115 -49 -201 -135q-83 -83 -134 -205q-49 -117 -49 -256q0 -140 49 -257q50 -118 134 -203q87 -87 201 -136t251 -49q86 0 163 16q80 17 126 35q54 20 110 52v-123q-51 -30 -110 -51
q-51 -20 -126 -36q-77 -16 -163 -16q-164 0 -306 59t-243 160q-103 103 -161 243t-58 306q0 167 58 307q57 138 161 242q103 103 243 161t306 58q171 0 312 -51q142 -51 240 -139q99 -89 152 -203q54 -117 54 -242q0 -97 -37 -180q-37 -82 -102 -146q-63 -62 -155 -98
t-198 -36h-92v71zM1024 758q-22 36 -47 61q-24 24 -56 42q-35 20 -81 20q-36 0 -76 -19q-36 -17 -66 -49q-26 -28 -46 -72q-17 -38 -17 -86q0 -50 17 -88q19 -42 46 -71q30 -32 66 -49q35 -17 76 -17q46 0 81 20q32 18 56 42q25 25 47 61v205z" />
    <glyph glyph-name="A" unicode="A" horiz-adv-x="1372" 
d="M1331 0h-143l-92 358h-820l-92 -358h-143l348 1413h594zM307 492h758l-195 788h-368z" />
    <glyph glyph-name="B" unicode="B" horiz-adv-x="1382" 
d="M758 1413q90 0 168 -29t129 -77q53 -50 83 -114q29 -62 29 -138q0 -88 -28 -140q-29 -54 -64 -84q-39 -36 -92 -53v-10q98 -16 168 -57q33 -20 61 -45q35 -32 56 -63q24 -36 39 -84q14 -45 14 -109q0 -84 -33 -159q-33 -74 -93 -130q-59 -55 -145 -88t-190 -33h-706v1413
h604zM860 133q71 0 132 22q59 21 100 59q40 37 63 88t23 108q0 56 -23 107t-63 88q-43 39 -100 60q-58 21 -132 21h-563v-553h563zM297 1280v-461h461q122 0 194 66t72 170q0 92 -72 158q-73 67 -194 67h-461z" />
    <glyph glyph-name="C" unicode="C" horiz-adv-x="1546" 
d="M809 -61q-142 0 -273 61q-134 62 -233 166q-102 106 -161 244q-60 140 -60 297t60 297q58 136 161 243q99 104 233 166q133 62 273 62q131 0 238 -39q104 -38 187 -101q82 -62 134 -138q54 -79 76 -153l-144 -20q-24 62 -65 115q-43 57 -105 102q-64 47 -141 73
q-79 27 -180 27q-110 0 -216 -50q-102 -48 -187 -136q-82 -85 -132 -202q-49 -114 -49 -246q0 -135 49 -249q50 -117 132 -202q83 -86 187 -135t216 -49q108 0 192 28q86 29 151 77q67 50 112 111q48 65 77 132l144 -21q-29 -86 -88 -171q-56 -82 -143 -147
q-87 -66 -196 -104q-108 -38 -249 -38z" />
    <glyph glyph-name="D" unicode="D" horiz-adv-x="1413" 
d="M1188 707q0 128 -43 232q-43 105 -121 181q-77 76 -190 118q-112 42 -250 42h-287v-1147h287q138 0 250 42q113 42 190 118q78 76 121 181q43 104 43 233zM1331 707q0 -152 -53 -284q-52 -129 -152 -223q-102 -96 -236 -147q-139 -53 -306 -53h-430v1413h430
q167 0 306 -53q134 -51 236 -147q100 -94 152 -223q53 -132 53 -283z" />
    <glyph glyph-name="E" unicode="E" horiz-adv-x="1208" 
d="M1167 133v-133h-1013v1413h1013v-133h-870v-502h686v-133h-686v-512h870z" />
    <glyph glyph-name="F" unicode="F" horiz-adv-x="1157" 
d="M297 0h-143v1413h972v-133h-829v-543h666v-133h-666v-604z" />
    <glyph glyph-name="G" unicode="G" horiz-adv-x="1587" 
d="M809 72q114 0 216 42q100 41 176 111q74 68 118 158q43 87 43 180h-471v133h614v-61q0 -152 -52 -278q-53 -129 -145 -221q-91 -91 -222 -145q-126 -52 -277 -52q-143 0 -274 60q-132 61 -232 165q-102 106 -161 244q-60 140 -60 299t60 299q58 136 161 243
q100 104 232 165q133 61 274 61q131 0 238 -39q104 -38 187 -101q82 -62 134 -138q54 -79 76 -153l-144 -20q-24 62 -65 115q-43 57 -105 102q-64 47 -141 73q-79 27 -180 27q-110 0 -216 -50q-102 -48 -187 -136q-82 -85 -132 -202q-49 -114 -49 -246q0 -135 49 -249
q50 -117 132 -202q83 -86 187 -135t216 -49z" />
    <glyph glyph-name="H" unicode="H" horiz-adv-x="1402" 
d="M154 1413h143v-635h809v635h143v-1413h-143v645h-809v-645h-143v1413z" />
    <glyph glyph-name="I" unicode="I" horiz-adv-x="450" 
d="M297 0h-143v1413h143v-1413z" />
    <glyph glyph-name="J" unicode="J" horiz-adv-x="1095" 
d="M942 461q0 -119 -36 -215q-36 -97 -100 -165t-153 -106q-85 -36 -192 -36q-89 0 -162 27t-131 74q-60 49 -95 105q-39 62 -53 121l144 31q31 -94 105 -159q75 -66 192 -66q76 0 135 26q61 27 106 76q46 50 71 122q26 73 26 165v952h143v-952z" />
    <glyph glyph-name="K" unicode="K" horiz-adv-x="1269" 
d="M594 758l-297 -307v-451h-143v1413h143v-778l747 778h185l-533 -553l553 -860h-164z" />
    <glyph glyph-name="L" unicode="L" horiz-adv-x="1136" 
d="M297 133h819v-133h-962v1413h143v-1280z" />
    <glyph glyph-name="M" unicode="M" horiz-adv-x="1720" 
d="M307 1198h-10v-1198h-143v1413h153l553 -676l553 676h154v-1413h-144v1198h-10l-553 -676z" />
    <glyph glyph-name="N" unicode="N" horiz-adv-x="1423" 
d="M1116 246h10v1167h144v-1413h-154l-809 1167h-10v-1167h-143v1413h153z" />
    <glyph glyph-name="O" unicode="O" horiz-adv-x="1658" 
d="M82 707q0 155 60 294t164 245q104 105 239 167q136 62 284 62q149 0 285 -62q137 -62 239 -166q106 -107 164 -243q60 -140 60 -297t-60 -297q-59 -138 -164 -244q-102 -104 -239 -166q-134 -61 -285 -61q-150 0 -284 61q-137 62 -239 166q-105 106 -164 244
q-60 140 -60 297zM1434 707q0 127 -51 246q-49 115 -133 202t-192 136q-111 50 -229 50q-117 0 -228 -50q-108 -49 -192 -136q-85 -88 -134 -202q-50 -117 -50 -246q0 -130 50 -247q49 -114 134 -202q84 -87 192 -136q111 -50 228 -50q118 0 229 50q108 49 192 136t133 202
q51 119 51 247z" />
    <glyph glyph-name="P" unicode="P" horiz-adv-x="1372" 
d="M1147 911q0 78 -28 148q-27 67 -80 117q-52 49 -126 76q-76 28 -165 28h-451v-737h451q92 0 165 27t126 77t80 117q28 70 28 147zM1290 911q0 -107 -39 -199t-109 -159q-72 -69 -171 -106t-223 -37h-451v-410h-143v1413h594q121 0 223 -38q101 -37 171 -105
q69 -66 109 -160q39 -91 39 -199z" />
    <glyph glyph-name="Q" unicode="Q" horiz-adv-x="1669" 
d="M82 707q0 155 60 294t164 245q104 105 239 167q136 62 284 62q149 0 285 -62q137 -62 239 -166q106 -107 164 -243q60 -140 60 -297q0 -116 -29 -209t-63 -158q-40 -77 -92 -135l215 -215l-103 -103l-215 215q-53 -42 -127 -82q-65 -32 -144 -56q-84 -25 -190 -25
q-150 0 -284 61q-137 62 -239 166q-105 106 -164 244q-60 140 -60 297zM1434 707q0 127 -51 246q-49 115 -133 202t-192 136q-111 50 -229 50q-117 0 -228 -50q-108 -49 -192 -136q-85 -88 -134 -202q-50 -117 -50 -246q0 -130 50 -247q49 -114 134 -202q84 -87 192 -136
q111 -50 228 -50q90 0 154 20q70 22 115 45q53 27 100 68l-143 143l102 103l143 -144q37 44 66 107q26 57 46 127q22 77 22 166z" />
    <glyph glyph-name="R" unicode="R" horiz-adv-x="1392" 
d="M297 492v-492h-143v1413h634q114 0 208 -35q93 -34 159 -96q66 -61 100 -145q35 -85 35 -185q0 -70 -13 -122q-13 -53 -36 -97q-23 -43 -51 -75q-26 -29 -60 -56q-70 -56 -157 -80l287 -522h-154l-277 492h-532zM788 625q82 0 147 25q67 26 114 70t72 103q26 61 26 129
t-26 129t-72 104q-45 43 -114 69q-67 26 -147 26h-491v-655h491z" />
    <glyph glyph-name="S" unicode="S" horiz-adv-x="1259" 
d="M1034 369q0 68 -38 115q-36 45 -101 79q-62 33 -143 57q-53 16 -163 48q-75 22 -163 55q-79 30 -143 77q-66 49 -102 112q-38 67 -38 163q0 76 35 149q35 72 101 128q65 54 158 89q92 34 208 34q109 0 198 -29q83 -27 152 -79q65 -49 111 -118t72 -143l-144 -31
q-30 67 -60 111q-36 51 -80 84q-48 35 -108 53q-62 18 -141 18q-85 0 -150 -22t-113 -61q-47 -38 -71 -86t-24 -97q0 -92 65 -144t165 -88q107 -39 215 -67q112 -29 215 -79q98 -48 165 -125q66 -76 66 -203q0 -85 -37 -162q-37 -76 -108 -137q-71 -60 -171 -96
q-98 -35 -227 -35q-121 0 -213 32q-96 33 -166 89q-71 57 -120 134t-75 164l144 21q27 -67 65 -122t92 -97q53 -41 121 -65q65 -23 152 -23q96 0 171 24q74 24 125 67q50 42 77 95q26 51 26 111z" />
    <glyph glyph-name="T" unicode="T" horiz-adv-x="1187" 
d="M20 1280v133h1147v-133h-501v-1280h-144v1280h-502z" />
    <glyph glyph-name="U" unicode="U" horiz-adv-x="1413" 
d="M707 72q88 0 162 31q73 30 130 91q56 59 86 141q31 85 31 187v891h144v-891q0 -135 -40 -242t-114 -184q-72 -75 -175 -116t-224 -41q-122 0 -225 41t-175 116t-113 184q-40 107 -40 242v891h143v-891q0 -102 31 -187q30 -82 86 -141q57 -61 130 -91q74 -31 163 -31z" />
    <glyph glyph-name="V" unicode="V" horiz-adv-x="1392" 
d="M512 133h369l307 1280h143l-338 -1413h-594l-338 1413h144z" />
    <glyph glyph-name="W" unicode="W" horiz-adv-x="1894" 
d="M655 0h-297l-297 1413h144l266 -1280h72l276 1280h256l277 -1280h71l267 1280h143l-297 -1413h-297l-276 1270h-31z" />
    <glyph glyph-name="X" unicode="X" horiz-adv-x="1259" 
d="M195 0h-164q238 344 256 369q170 244 256 368l-471 676h164l389 -563h10l389 563h164l-471 -676q86 -124 256 -368q18 -25 256 -369h-164l-430 625h-10z" />
    <glyph glyph-name="Y" unicode="Y" horiz-adv-x="1310" 
d="M727 471v-471h-143v471l-564 942h160l471 -778h8l471 778h160z" />
    <glyph glyph-name="Z" unicode="Z" horiz-adv-x="1218" 
d="M61 143l912 1127v10h-881v133h1055v-143l-911 -1127v-10h921v-133h-1096v143z" />
    <glyph glyph-name="bracketleft" unicode="[" horiz-adv-x="645" 
d="M297 1341v-1495h307v-133h-450v1762h450v-134h-307z" />
    <glyph glyph-name="backslash" unicode="\" horiz-adv-x="778" 
d="M737 0h-143l-553 1413h143z" />
    <glyph glyph-name="bracketright" unicode="]" horiz-adv-x="645" 
d="M41 1341v134h451v-1762h-451v133h307v1495h-307z" />
    <glyph glyph-name="asciicircum" unicode="^" horiz-adv-x="880" 
d="M502 1413l297 -655h-133l-222 491h-8l-221 -491h-133l297 655h123z" />
    <glyph glyph-name="underscore" unicode="_" horiz-adv-x="727" 
d="M0 -379v133h727v-133h-727z" />
    <glyph glyph-name="grave" unicode="`" horiz-adv-x="501" 
d="M123 1423l317 -184l-41 -82l-338 143z" />
    <glyph glyph-name="a" unicode="a" 
d="M850 635q-29 59 -78 113q-40 40 -100 76t-140 36q-64 0 -124 -27q-59 -26 -105 -79q-45 -51 -72 -123q-26 -69 -26 -160t26 -160q27 -72 72 -123t105 -78q62 -28 124 -28q79 0 140 35q59 34 100 78q50 53 78 112v328zM983 0h-133v133h-10q-28 -48 -78 -88
q-38 -31 -100 -59q-60 -27 -140 -27q-86 0 -170 38q-81 37 -144 106q-61 66 -99 163q-37 93 -37 205t37 205q38 97 99 163q63 69 144 106q84 38 170 38q78 0 140 -28q59 -26 100 -60q51 -41 78 -86h10v133h133v-942z" />
    <glyph glyph-name="b" unicode="b" horiz-adv-x="1116" 
d="M266 307q28 -59 78 -112q40 -43 99 -78t141 -35q63 0 125 28q58 26 104 78q45 51 72 123q26 69 26 160t-26 160q-27 72 -72 123q-47 53 -104 79q-60 27 -125 27q-82 0 -141 -36q-60 -37 -99 -76q-49 -54 -78 -113v-328zM133 1413h133v-604h10q27 45 78 86q39 32 100 60
t140 28q86 0 170 -38q81 -37 144 -106q62 -68 100 -163q36 -91 36 -205t-36 -205q-38 -95 -100 -163q-63 -69 -144 -106q-84 -38 -170 -38q-82 0 -140 27q-64 29 -100 59q-50 40 -78 88h-10v-133h-133v1413z" />
    <glyph glyph-name="c" unicode="c" horiz-adv-x="1054" 
d="M553 -41q-97 0 -183 40q-90 42 -154 109q-67 70 -105 161q-39 93 -39 202q0 107 39 201t105 163q63 65 154 108q86 40 183 40q86 0 159 -25q72 -25 124 -63t87 -89q33 -47 50 -99l-133 -31q-11 32 -35 67q-22 32 -59 60t-83 42q-48 15 -110 15q-68 0 -132 -29
q-65 -29 -111 -80q-49 -54 -77 -124q-28 -71 -28 -156t28 -156q28 -70 77 -124q46 -51 111 -80q64 -29 132 -29q131 0 209 66q77 65 108 159l134 -31q-16 -59 -53 -118q-39 -61 -92 -102q-56 -43 -133 -70q-76 -27 -173 -27z" />
    <glyph glyph-name="d" unicode="d" horiz-adv-x="1116" 
d="M850 635q-29 59 -78 113q-40 40 -100 76t-140 36q-64 0 -124 -27q-59 -26 -105 -79q-45 -51 -72 -123q-26 -69 -26 -160t26 -160q27 -72 72 -123t105 -78q62 -28 124 -28q79 0 140 35q59 34 100 78q50 53 78 112v328zM983 0h-133v133h-10q-28 -48 -78 -88
q-38 -31 -100 -59q-60 -27 -140 -27q-86 0 -170 38q-81 37 -144 106q-61 66 -99 163q-37 93 -37 205t37 205q38 97 99 163q63 69 144 106q84 38 170 38q78 0 140 -28q59 -26 100 -60q51 -41 78 -86h10v604h133v-1413z" />
    <glyph glyph-name="e" unicode="e" horiz-adv-x="1075" 
d="M543 983q94 0 181 -38q85 -37 149 -106q67 -71 103 -163q38 -96 38 -205l-62 -61h-747q7 -66 37 -129t74 -104q46 -43 107 -69t130 -26q73 0 123 17q55 19 93 47q39 29 67 69q25 37 41 82l133 -27q-16 -55 -56 -115q-37 -57 -94 -100q-53 -40 -134 -69q-76 -27 -171 -27
q-98 0 -188 38q-88 37 -154 106q-65 68 -103 163q-38 96 -38 205t38 205q37 94 102 163q64 69 149 106q87 38 182 38zM543 860q-67 0 -124 -25q-58 -25 -104 -70q-45 -43 -73 -103q-30 -62 -37 -130h676q-7 68 -37 130q-28 58 -74 103q-47 46 -103 70q-57 25 -124 25z" />
    <glyph glyph-name="f" unicode="f" horiz-adv-x="583" 
d="M41 942h143v174q0 147 83 233q82 85 214 85q30 0 65 -7q25 -5 52 -14q23 -7 47 -20l-31 -123q-19 14 -36 20q-23 11 -41 15q-24 6 -56 6q-69 0 -116 -51q-48 -53 -48 -144v-174h256v-123h-256v-819h-133v819h-143v123z" />
    <glyph glyph-name="g" unicode="g" 
d="M983 10q0 -96 -33 -177q-33 -80 -90 -139q-57 -58 -136 -91q-80 -33 -171 -33t-158 22q-69 22 -122 62q-52 38 -87 89q-35 50 -53 103l133 31q29 -76 98 -131q67 -53 189 -53q132 0 214 85q83 86 83 232v164h-10q-28 -48 -78 -88q-38 -31 -100 -59q-60 -27 -140 -27
q-86 0 -170 38q-79 36 -144 104q-59 62 -99 156q-37 87 -37 194q0 106 37 193q40 94 99 156q65 68 144 104q84 38 170 38q78 0 140 -28q59 -26 100 -60q51 -41 78 -86h10v133h133v-932zM850 635q-29 59 -78 113q-40 40 -100 76t-140 36q-64 0 -124 -27q-59 -27 -105 -77
q-45 -50 -72 -117q-26 -65 -26 -147q0 -83 26 -148q27 -68 72 -117q44 -49 105 -76q62 -28 124 -28q79 0 140 35q59 34 100 78q50 53 78 112v287z" />
    <glyph glyph-name="h" unicode="h" horiz-adv-x="1095" 
d="M983 0h-133v553q0 147 -75 227t-191 80q-78 0 -137 -36q-60 -37 -99 -76q-48 -53 -82 -113v-635h-133v1413h133v-604h10q32 45 82 86q39 32 100 60t136 28q84 0 156 -30q70 -29 123 -85t81 -135q29 -81 29 -180v-553z" />
    <glyph glyph-name="i" unicode="i" horiz-adv-x="430" 
d="M283 0h-133v942h133v-942zM123 1331q0 39 27 66q26 26 65 26q40 0 66 -26t26 -66q0 -39 -26 -65q-27 -27 -66 -27q-38 0 -65 27t-27 65z" />
    <glyph glyph-name="j" unicode="j" horiz-adv-x="413" 
d="M276 -123q0 -140 -82 -223q-83 -84 -214 -84q-35 0 -65 6q-25 5 -52 14q-18 6 -47 21l30 123q19 -15 35 -21q19 -9 42 -14q25 -6 57 -6q70 0 116 49q47 50 47 135v1065h133v-1065zM117 1331q0 40 26 66t66 26q39 0 65 -26q27 -27 27 -66q0 -38 -27 -65t-65 -27
q-39 0 -66 27q-26 26 -26 65z" />
    <glyph glyph-name="k" unicode="k" horiz-adv-x="972" 
d="M266 0h-133v1413h133v-973l492 502h164l-349 -358l390 -584h-144l-327 492h-11l-215 -216v-276z" />
    <glyph glyph-name="l" unicode="l" horiz-adv-x="450" 
d="M184 1290h-164v123h297v-1413h-133v1290z" />
    <glyph glyph-name="m" unicode="m" horiz-adv-x="1597" 
d="M870 0h-133v573q0 68 -19 119q-20 52 -51 90q-31 37 -72 58q-39 20 -83 20q-66 0 -113 -36q-49 -38 -80 -76q-33 -45 -63 -113v-635h-133v942h133v-133h10q26 48 64 86q32 32 80 60t112 28q85 0 143 -29q56 -28 91 -63q41 -41 65 -92h10q22 51 62 92q33 33 88 63
q53 29 135 29q78 0 148 -28q64 -25 116 -81q50 -53 77 -129q28 -79 28 -172v-573h-133v573q0 130 -64 209q-63 78 -172 78q-107 0 -176 -78q-70 -79 -70 -209v-573z" />
    <glyph glyph-name="n" unicode="n" horiz-adv-x="1085" 
d="M973 0h-133v553q0 147 -75 227t-192 80q-77 0 -136 -36q-60 -37 -99 -76q-48 -53 -82 -113v-635h-133v942h133v-133h10q32 45 82 86q40 33 99 60q61 28 137 28q83 0 155 -30t124 -85q53 -56 81 -135q29 -81 29 -180v-553z" />
    <glyph glyph-name="o" unicode="o" horiz-adv-x="1126" 
d="M1055 471q0 -109 -38 -205q-36 -91 -105 -163q-65 -68 -155 -106t-194 -38q-103 0 -193 38q-92 39 -156 106q-67 70 -104 163q-38 96 -38 205t38 205q37 93 104 163q64 67 156 106q90 38 193 38q104 0 194 -38t155 -106q69 -72 105 -163q38 -96 38 -205zM922 471
q0 83 -29 156q-28 71 -78 124q-48 51 -114 80t-138 29t-138 -29t-114 -80q-50 -53 -78 -124t-28 -156t28 -156t78 -124q48 -51 115 -80t137 -29q72 0 138 29t114 80q50 53 78 124q29 73 29 156z" />
    <glyph glyph-name="p" unicode="p" 
d="M256 307q28 -59 78 -112q40 -43 99 -78t140 -35q63 0 125 28q60 27 105 78q43 49 71 123q27 72 27 160t-27 160q-28 74 -71 123q-46 53 -105 79q-60 27 -125 27q-82 0 -140 -36q-60 -37 -99 -76q-49 -54 -78 -113v-328zM123 942h133v-133h10q27 45 78 86q40 33 99 60
q61 28 141 28q86 0 170 -38q81 -37 144 -106q61 -66 99 -163q37 -93 37 -205t-37 -205q-38 -97 -99 -163q-63 -69 -144 -106q-84 -38 -170 -38q-82 0 -141 27q-61 28 -99 59q-50 40 -78 88h-10v-543h-133v1352z" />
    <glyph glyph-name="q" unicode="q" 
d="M850 635q-29 59 -78 113q-40 40 -100 76t-140 36q-64 0 -124 -27q-59 -26 -105 -79q-45 -51 -72 -123q-26 -69 -26 -160t26 -160q27 -72 72 -123t105 -78q62 -28 124 -28q79 0 140 35q59 34 100 78q50 53 78 112v328zM983 -410h-133v543h-10q-28 -48 -78 -88
q-38 -31 -100 -59q-60 -27 -140 -27q-86 0 -170 38q-81 37 -144 106q-61 66 -99 163q-37 93 -37 205t37 205q38 97 99 163q63 69 144 106q84 38 170 38q78 0 140 -28q59 -26 100 -60q51 -41 78 -86h10v133h133v-1352z" />
    <glyph glyph-name="r" unicode="r" horiz-adv-x="624" 
d="M604 850h-41q-74 0 -130 -34t-97 -75q-48 -48 -80 -106v-635h-133v942h133v-133h10q31 46 80 86q41 34 97 60q59 28 130 28h31v-133z" />
    <glyph glyph-name="s" unicode="s" horiz-adv-x="942" 
d="M113 707q0 53 24 103t73 88q46 36 119 61q71 24 163 24q80 0 145 -22q62 -21 115 -58q48 -33 81 -76q32 -41 48 -79l-133 -21q-12 16 -38 46q-17 20 -53 43q-31 20 -71 32q-41 12 -94 12q-65 0 -108 -14q-47 -15 -77 -36q-31 -22 -46 -49t-15 -54q0 -59 47 -89
q46 -29 118 -51q66 -20 152 -40q80 -19 153 -50q71 -30 118 -83t47 -138q0 -58 -27 -111q-28 -54 -79 -95q-53 -43 -128 -66q-80 -25 -176 -25q-85 0 -160 25q-74 25 -125 64q-54 42 -90 92t-55 106l133 20q15 -35 40 -67q27 -35 62 -60q38 -27 85 -42q48 -15 110 -15
q70 0 121 15t86 41q32 24 52 57q18 30 18 61q0 54 -48 87q-45 31 -117 52q-62 19 -153 40q-78 18 -152 50q-71 30 -118 82t-47 140z" />
    <glyph glyph-name="t" unicode="t" horiz-adv-x="686" 
d="M41 942h143v266h133v-266h256v-123h-256v-543q0 -90 48 -143q47 -51 116 -51q32 0 56 6q23 6 41 14q14 5 36 21l31 -123q-24 -13 -47 -20q-34 -12 -52 -15q-30 -6 -65 -6q-132 0 -214 85q-83 86 -83 232v543h-143v123z" />
    <glyph glyph-name="u" unicode="u" horiz-adv-x="1095" 
d="M123 942h133v-553q0 -147 75 -227t191 -80q77 0 136 35q61 36 100 78q50 53 82 112v635h133v-942h-133v133h-11q-34 -50 -81 -88q-36 -30 -100 -59q-58 -27 -136 -27q-84 0 -156 30t-124 85q-51 54 -80 135t-29 180v553z" />
    <glyph glyph-name="v" unicode="v" horiz-adv-x="1013" 
d="M61 942h134l174 -819h276l174 819h133l-204 -942h-482z" />
    <glyph glyph-name="w" unicode="w" horiz-adv-x="1433" 
d="M707 819l-175 -819h-276l-195 942h134l174 -819h61l174 819h225l175 -819h61l174 819h133l-194 -942h-277l-174 819h-20z" />
    <glyph glyph-name="x" unicode="x" horiz-adv-x="911" 
d="M461 389h-10l-277 -389h-154l349 492l-318 450h154l246 -348h10l246 348h153l-317 -450l348 -492h-154z" />
    <glyph glyph-name="y" unicode="y" horiz-adv-x="1013" 
d="M952 942l-204 -942q-28 -127 -61 -206q-35 -84 -76 -132q-43 -51 -94 -71q-53 -21 -118 -21q-34 0 -64 6q-25 5 -52 14q-18 6 -47 21l30 123q19 -15 35 -21q19 -9 42 -14q25 -6 56 -6q36 0 66 15q29 15 57 50q25 31 50 95q25 62 42 147h-348l-205 942h134l174 -819h276
l174 819h133z" />
    <glyph glyph-name="z" unicode="z" horiz-adv-x="911" 
d="M840 809l-615 -676v-10h635v-123h-809v133l615 676v10h-594v123h768v-133z" />
    <glyph glyph-name="braceleft" unicode="{" horiz-adv-x="632" 
d="M305 594q31 -8 55 -29q22 -16 40 -49t18 -86q0 -29 -17 -95q-5 -21 -16.5 -66t-17.5 -69t-18 -69.5t-17 -65.5q-17 -66 -17 -96q0 -54 37 -88q38 -35 107 -35h112v-133h-112q-138 0 -208 67q-69 66 -69 189q0 32 15 96q2 8 13 57.5t18 77.5q7 27 32 135q14 60 14 95
q0 40 -32 71t-80 31h-60v134h60q48 0 80 31t32 71q0 35 -14 95q-25 108 -32 135t-18 76t-13 60q-15 64 -15 95q0 123 69 189q70 67 208 67h112v-133h-112q-69 0 -107 -35q-37 -34 -37 -88q0 -29 17 -95q5 -20 17 -65.5t18 -70.5q6 -23 17.5 -68t16.5 -67q17 -66 17 -95
q0 -53 -18 -86t-40 -49q-24 -21 -55 -29v-10z" />
    <glyph glyph-name="bar" unicode="|" horiz-adv-x="512" 
d="M328 -205h-144v1741h144v-1741z" />
    <glyph glyph-name="braceright" unicode="}" horiz-adv-x="632" 
d="M328 604q-34 8 -58 29q-23 17 -39 49t-16 86q0 32 16 95q5 20 17 65.5t18 69.5q6 25 18 70.5t17 65.5q16 63 16 95q0 55 -36 88q-38 35 -107 35h-113v133h113q138 0 208 -67q69 -66 69 -189q0 -31 -15 -95q-28 -120 -32 -136q-7 -28 -18 -77.5t-13 -57.5q-15 -65 -15 -95
q0 -40 33 -71q32 -31 80 -31h59v-134h-59q-48 0 -80 -31q-33 -31 -33 -71q0 -30 15 -95q2 -8 13 -57.5t18 -77.5q7 -27 32 -135q15 -65 15 -96q0 -123 -69 -189q-70 -67 -208 -67h-113v133h113q69 0 107 35q36 33 36 88q0 33 -16 96q-5 20 -17 65.5t-18 69.5t-18 69.5
t-17 65.5q-16 63 -16 95q0 54 16 86t39 49q24 21 58 29v10z" />
    <glyph glyph-name="asciitilde" unicode="~" horiz-adv-x="860" 
d="M266 655q-30 0 -62 -38q-33 -39 -40 -115l-103 51q0 45 18 86q20 44 46 72q31 33 65 49q38 18 76 18q63 0 104 -25q31 -19 75 -57t68 -56q35 -26 81 -26q30 0 62 38q33 39 40 116l103 -51q0 -47 -18 -88q-20 -44 -46 -72q-29 -31 -65 -48q-35 -17 -76 -17q-63 0 -104 25
q-35 21 -75 56q-46 40 -69 57q-34 25 -80 25z" />
    <glyph glyph-name="nonbreakingspace" unicode="&#xa0;" horiz-adv-x="0" 
 />
    <glyph glyph-name="exclamdown" unicode="&#xa1;" horiz-adv-x="491" 
d="M317 -406h-143v682l31 277h82l30 -277v-682zM338 891q0 -39 -27 -66q-26 -26 -65 -26q-40 0 -66 26t-26 66q0 39 26 65q27 27 66 27q38 0 65 -27t27 -65z" />
    <glyph glyph-name="cent" unicode="&#xa2;" horiz-adv-x="1054" 
d="M481 -211v176q-81 15 -158 59q-73 42 -130 110q-55 66 -89 153q-32 83 -32 184t32 184q34 87 89 153q58 69 130 111q74 43 158 58v180h133v-178q74 -8 135 -35q61 -28 105 -64q44 -37 75 -83q28 -42 44 -90l-133 -31q-11 32 -35 67q-22 32 -59 60t-83 42q-48 15 -110 15
q-68 0 -132 -29q-65 -29 -111 -80q-49 -54 -77 -124q-28 -71 -28 -156t28 -156q28 -70 77 -124q46 -51 111 -80q64 -29 132 -29q131 0 209 66q77 65 108 159l134 -31q-14 -55 -47 -109q-31 -52 -80 -95q-50 -44 -115 -72q-69 -30 -148 -37v-174h-133z" />
    <glyph glyph-name="sterling" unicode="&#xa3;" horiz-adv-x="1024" 
d="M461 317q0 -47 -12 -78q-12 -32 -29 -55q-18 -24 -41 -41v-10h625v-133h-963v133h92q78 0 131 53t53 131v379h-163v133h163v318q0 131 80 209t228 78q29 0 64 -7q25 -5 52 -14q23 -7 47 -20l-20 -133q-19 13 -41 20q-26 9 -46 14q-25 6 -56 6q-77 0 -121 -42
q-43 -42 -43 -111v-318h256v-133h-256v-379z" />
    <glyph glyph-name="currency" unicode="&#xa4;" horiz-adv-x="1310" 
d="M707 1413q119 0 215 -36q94 -35 164 -99q67 -61 106 -150q37 -84 37 -186t-37 -186q-39 -89 -106 -150q-70 -64 -164 -99q-96 -36 -215 -36h-328v-143h512v-133h-512v-195h-143v195h-154v133h154v143h-154v133h154v809h471zM379 1280v-676h328q86 0 158 26q71 26 120 70
q49 45 75 107q25 60 25 135t-25 135q-26 62 -75 107q-49 44 -120 70q-72 26 -158 26h-328z" />
    <glyph glyph-name="yen" unicode="&#xa5;" horiz-adv-x="1228" 
d="M686 440v-143h318v-123h-318v-174h-143v174h-318v123h318v143h-318v123h267l-472 850h160l430 -778h8l431 778h159l-471 -850h267v-123h-318z" />
    <glyph glyph-name="brokenbar" unicode="&#xa6;" horiz-adv-x="471" 
d="M307 788h-143v748h143v-748zM307 -205h-143v748h143v-748z" />
    <glyph glyph-name="section" unicode="&#xa7;" horiz-adv-x="983" 
d="M256 707q0 -63 42 -100t95 -60q64 -25 139 -35q63 17 107 43q41 23 75 60t34 92q0 61 -43 98q-40 35 -97 59q-66 26 -137 37q-65 -17 -109 -43q-40 -22 -73 -60t-33 -91zM881 707q0 -70 -32 -117q-32 -48 -71 -76q-44 -34 -102 -55v-8q53 -15 102 -48q42 -29 71 -69
q32 -44 32 -109q0 -54 -25 -109q-23 -50 -75 -91q-49 -39 -125 -63q-72 -23 -175 -23q-84 0 -153 24q-68 24 -122 67q-49 39 -89 95q-38 53 -56 111l134 20q29 -76 100 -136q70 -59 186 -59q130 0 199 52q68 51 68 112q0 54 -47 89q-48 36 -115 59q-72 25 -151 47
q-81 22 -150 57q-68 34 -116 88q-46 52 -46 142q0 69 32 116q33 49 70 76q43 33 103 55v9q-51 17 -88 49q-34 28 -60 71t-26 115q0 54 24 104q24 49 72 88q45 36 116 61q69 24 156 24q73 0 134 -23q63 -24 109 -58q50 -38 83 -79q36 -46 53 -86l-133 -21q-31 54 -88 99
t-158 45q-58 0 -101 -15q-44 -15 -74 -36q-29 -20 -45 -49q-15 -27 -15 -54q0 -59 44 -94q46 -37 109 -61q60 -23 144 -49q78 -24 143 -58q66 -35 110 -89q44 -55 44 -140z" />
    <glyph glyph-name="dieresis" unicode="&#xa8;" horiz-adv-x="634" 
d="M61 1331q0 31 26 57q25 25 56 25q32 0 57 -25t25 -57q0 -31 -25 -56q-26 -26 -57 -26q-30 0 -56 26t-26 56zM410 1331q0 32 25 57t57 25q31 0 56 -25t25 -57q0 -31 -25 -56q-26 -26 -56 -26q-31 0 -57 26q-25 25 -25 56z" />
    <glyph glyph-name="copyright" unicode="&#xa9;" horiz-adv-x="1843" 
d="M922 246q-70 0 -129 25q-60 26 -104 71q-43 45 -69 107q-26 63 -26 135t26 135q25 61 69 106t104 71q61 26 129 26q57 0 105 -18q49 -19 85 -47q36 -29 64 -69q27 -39 43 -81l-113 -11q-16 38 -62 76q-44 37 -122 37q-86 0 -146 -63q-59 -62 -59 -162q0 -101 59 -163
q60 -63 146 -63q91 0 140 38q47 37 64 85l113 -10q-30 -92 -109 -159q-78 -66 -208 -66zM215 584q0 -150 57 -282q56 -130 154 -231t225 -157q129 -57 271 -57q141 0 270 57q127 56 225 157t154 231q57 132 57 282q0 149 -57 281t-154 232q-96 99 -225 156q-131 58 -270 58
q-140 0 -271 -58q-129 -57 -225 -156q-97 -100 -154 -232t-57 -281zM1761 584q0 -176 -66 -332q-65 -154 -181 -270q-118 -118 -267 -182q-153 -66 -325 -66q-173 0 -326 66q-149 64 -267 182q-116 116 -181 270q-66 156 -66 332t66 330t181 271q115 116 267 182
q155 67 326 67q170 0 325 -67q152 -66 267 -182q115 -117 181 -271t66 -330z" />
    <glyph glyph-name="ordfeminine" unicode="&#xaa;" horiz-adv-x="706" 
d="M297 840q48 0 86 16q40 17 68 39q33 23 61 57v92h-184q-86 0 -120 -27t-34 -75q0 -47 31 -75q30 -27 92 -27zM348 1413q64 0 113 -20q50 -21 87 -56q34 -33 56 -84q21 -50 21 -106v-389h-113v82h-10q-25 -29 -58 -52q-27 -20 -68 -35q-43 -16 -89 -16q-100 0 -163 60
t-63 145q0 88 67 147q65 58 189 58h195q0 78 -43 121t-121 43q-62 0 -96 -27q-36 -28 -57 -65l-93 30q23 62 84 113q62 51 162 51z" />
    <glyph glyph-name="guillemotleft" unicode="&#xab;" horiz-adv-x="860" 
d="M61 471l226 389h143l-225 -389l225 -389h-143zM430 471l225 389h144l-226 -389l226 -389h-144z" />
    <glyph glyph-name="logicalnot" unicode="&#xac;" horiz-adv-x="819" 
d="M625 635h-584v135h717v-360h-133v225z" />
    <glyph glyph-name="uni00AD" unicode="&#xad;" horiz-adv-x="808" 
d="M41 563v133h727v-133h-727z" />
    <glyph glyph-name="registered" unicode="&#xae;" horiz-adv-x="1843" 
d="M1014 911q110 0 172 -62q63 -63 63 -163q0 -59 -19 -96q-20 -38 -42 -60q-24 -22 -62 -38l154 -236h-143l-133 205h-216v-205h-122v655h348zM788 799v-226h226q54 0 88 33q35 33 35 80t-35 80q-34 33 -88 33h-226zM215 584q0 -150 57 -282q56 -130 154 -231t225 -157
q129 -57 271 -57q141 0 270 57q127 56 225 157t154 231q57 132 57 282q0 149 -57 281t-154 232q-96 99 -225 156q-131 58 -270 58q-140 0 -271 -58q-129 -57 -225 -156q-97 -100 -154 -232t-57 -281zM1761 584q0 -176 -66 -332q-65 -154 -181 -270q-118 -118 -267 -182
q-153 -66 -325 -66q-173 0 -326 66q-149 64 -267 182q-116 116 -181 270q-66 156 -66 332t66 330t181 271q115 116 267 182q155 67 326 67q170 0 325 -67q152 -66 267 -182q115 -117 181 -271t66 -330z" />
    <glyph glyph-name="macron" unicode="&#xaf;" horiz-adv-x="624" 
d="M61 1423h502v-123h-502v123z" />
    <glyph glyph-name="degree" unicode="&#xb0;" horiz-adv-x="655" 
d="M328 993q69 0 116 47q48 48 48 117t-48 117q-47 47 -116 47q-70 0 -117 -47t-47 -117t47 -117t117 -47zM328 901q-56 0 -107 20q-49 19 -84 54q-33 33 -55 82q-21 46 -21 100q0 53 21 100q22 49 55 82q36 36 84 55t107 19q58 0 106 -19t84 -55q33 -33 55 -82
q21 -47 21 -100t-21 -100q-22 -49 -55 -82q-34 -35 -84 -54q-51 -20 -106 -20z" />
    <glyph glyph-name="plusminus" unicode="&#xb1;" horiz-adv-x="880" 
d="M61 246h318v338h-318v133h318v338h123v-338h317v-133h-317v-338h317v-123h-758v123z" />
    <glyph glyph-name="twosuperior" unicode="&#xb2;" horiz-adv-x="645" 
d="M461 1219q0 46 -36 79t-108 33q-69 0 -108 -33t-55 -79l-93 20q23 87 85 140q64 55 171 55q63 0 109 -18q49 -19 80 -47t50 -69q17 -37 17 -81q0 -61 -28 -101t-72 -70q-45 -31 -94 -54q-31 -15 -94 -45q-43 -21 -72 -48t-29 -61h400v-103h-512v82q0 62 28 105
q27 42 72 74q46 34 94 56q60 28 94 47q44 24 72 51q29 27 29 67z" />
    <glyph glyph-name="threesuperior" unicode="&#xb3;" horiz-adv-x="614" 
d="M297 829q61 0 102 38t41 85t-41 85t-102 38h-102v82l163 143v11h-276v102h450v-102l-163 -144q35 -5 67 -22t60 -47q27 -28 42 -66t15 -80q0 -48 -18 -88q-18 -41 -53 -71q-37 -32 -81 -49t-104 -17q-108 0 -171 54q-62 53 -85 141l102 20q16 -46 55 -80q38 -33 99 -33z
" />
    <glyph glyph-name="acute" unicode="&#xb4;" horiz-adv-x="501" 
d="M440 1300l-338 -143l-41 82l318 184z" />
    <glyph glyph-name="mu" unicode="&#xb5;" horiz-adv-x="1095" 
d="M123 942h133v-553q0 -147 75 -227t191 -80q77 0 136 35q61 36 100 78q50 53 82 112v635h133v-942h-133v133h-11q-33 -51 -79 -88q-35 -29 -99 -59q-57 -27 -129 -27q-71 0 -123 22q-47 20 -77 50q-35 30 -56 71h-10v-512h-133v1352z" />
    <glyph glyph-name="paragraph" unicode="&#xb6;" horiz-adv-x="808" 
d="M82 1044q0 73 31 141q30 66 84 117q53 50 125 80q74 31 153 31h293v-133h-184v-1690h-133v1086q-73 0 -141 31q-66 30 -116 80q-51 51 -81 117q-31 68 -31 140z" />
    <glyph glyph-name="periodcentered" unicode="&#xb7;" horiz-adv-x="348" 
d="M82 717q0 38 27 65t65 27q39 0 66 -27q26 -26 26 -65q0 -40 -26 -66t-66 -26q-39 0 -65 26q-27 27 -27 66z" />
    <glyph glyph-name="cedilla" unicode="&#xb8;" horiz-adv-x="491" 
d="M297 -113q38 -11 65 -32q29 -25 47 -55q21 -34 21 -87q0 -87 -56 -140q-57 -54 -149 -54q-42 0 -69 10q-32 12 -52 25q-30 20 -43 36l62 72q11 -13 27 -20q26 -13 32 -15q18 -6 43 -6q48 0 75 27q28 28 28 65q0 38 -28 66q-26 26 -75 26h-71l92 215h102z" />
    <glyph glyph-name="onesuperior" unicode="&#xb9;" horiz-adv-x="368" 
d="M174 1229q-16 -17 -39 -27q-17 -8 -48 -17q-25 -7 -67 -7v82q62 0 108 46t46 107h113v-676h-113v492z" />
    <glyph glyph-name="ordmasculine" unicode="&#xba;" horiz-adv-x="737" 
d="M563 1075q0 110 -58 172q-59 64 -136 64q-78 0 -137 -64q-58 -62 -58 -172t58 -172q58 -63 137 -63q77 0 136 63q58 62 58 172zM676 1075q0 -77 -24 -139q-25 -63 -64 -107q-39 -43 -98 -68q-57 -24 -121 -24q-65 0 -122 24q-58 24 -97 68q-41 46 -65 107q-24 62 -24 139
q0 75 24 138q24 62 65 108q41 45 97 69q55 23 122 23q66 0 121 -23q58 -24 98 -69q40 -44 64 -108q24 -63 24 -138z" />
    <glyph glyph-name="guillemotright" unicode="&#xbb;" horiz-adv-x="860" 
d="M573 82h-143l225 389l-225 389h143l226 -389zM205 82h-144l226 389l-226 389h144l225 -389z" />
    <glyph glyph-name="onequarter" unicode="&#xbc;" horiz-adv-x="1361" 
d="M246 0h-154l871 1413h153zM195 1229q-17 -17 -39 -27q-16 -8 -48 -17q-25 -7 -67 -7v82q61 0 107 46q47 47 47 107h112v-676h-112v492zM1106 2v154h-338v102l195 420h122l-194 -420h215v123h113v-123h81v-102h-81v-154h-113z" />
    <glyph glyph-name="onehalf" unicode="&#xbd;" horiz-adv-x="1382" 
d="M246 0h-154l871 1413h153zM195 1229q-17 -17 -39 -27q-16 -8 -48 -17q-25 -7 -67 -7v82q61 0 107 46q47 47 47 107h112v-676h-112v492zM1178 483q0 47 -36 80t-108 33q-69 0 -108 -33t-56 -80l-92 21q23 87 85 140q63 54 171 54q65 0 109 -17q49 -19 80 -47t50 -69
q17 -37 17 -82q0 -60 -28 -100q-29 -41 -72 -71q-40 -28 -94 -53q-71 -33 -95 -45q-41 -20 -71 -48q-29 -27 -29 -62h399v-102h-512v82q0 60 29 104t72 75q42 31 94 55q48 22 94 48q43 24 72 51t29 66z" />
    <glyph glyph-name="threequarters" unicode="&#xbe;" horiz-adv-x="1495" 
d="M358 0h-153l870 1413h154zM1219 2v154h-338v102l194 420h123l-194 -420h215v123h112v-123h82v-102h-82v-154h-112zM297 829q61 0 102 38t41 85t-41 85t-102 38h-102v82l163 143v11h-276v102h450v-102l-163 -144q35 -5 67 -22t60 -47q27 -28 42 -66t15 -80q0 -48 -18 -88
q-18 -41 -53 -71q-37 -32 -81 -49t-104 -17q-108 0 -171 54q-62 53 -85 141l102 20q16 -46 55 -80q38 -33 99 -33z" />
    <glyph glyph-name="questiondown" unicode="&#xbf;" horiz-adv-x="1075" 
d="M543 -338q153 0 241 75t127 191l144 -20q-23 -82 -66 -150q-44 -70 -106 -120q-64 -52 -149 -80q-87 -29 -191 -29q-103 0 -190 32q-84 31 -145 86q-59 53 -93 124q-33 69 -33 147q0 97 34 156t83 99q53 43 108 68q59 26 109 63q48 35 83 88q33 50 33 140h123
q0 -109 -31 -174q-30 -63 -80 -108q-49 -44 -104 -71q-54 -26 -103 -60q-50 -34 -80 -79q-32 -47 -32 -122q0 -47 24 -92q24 -46 65 -82q40 -35 101 -59q60 -23 128 -23zM686 870q0 -38 -27 -65t-65 -27q-39 0 -66 27q-26 26 -26 65q0 40 26 66q27 27 66 27q38 0 65 -27
t27 -66z" />
    <glyph glyph-name="Agrave" unicode="&#xc0;" horiz-adv-x="1372" 
d="M1331 0h-143l-92 358h-820l-92 -358h-143l348 1413h594zM307 492h758l-195 788h-368zM553 1884l317 -184l-41 -82l-337 143z" />
    <glyph glyph-name="Aacute" unicode="&#xc1;" horiz-adv-x="1372" 
d="M1331 0h-143l-92 358h-820l-92 -358h-143l348 1413h594zM307 492h758l-195 788h-368zM881 1761l-338 -143l-41 82l317 184z" />
    <glyph glyph-name="Acircumflex" unicode="&#xc2;" horiz-adv-x="1372" 
d="M1331 0h-143l-92 358h-820l-92 -358h-143l348 1413h594zM307 492h758l-195 788h-368zM737 1894l246 -317h-123l-164 205h-10l-164 -205h-123l246 317h92z" />
    <glyph glyph-name="Atilde" unicode="&#xc3;" horiz-adv-x="1372" 
d="M1331 0h-143l-92 358h-820l-92 -358h-143l348 1413h594zM307 492h758l-195 788h-368zM594 1741q-22 0 -42 -20t-20 -42v-51h-102v51q0 87 42 130q42 44 112 44q45 0 73 -19q31 -21 49 -42q27 -31 37 -42q18 -19 45 -19q23 0 42 19q20 20 20 42v51h102v-51q0 -86 -42 -130
t-111 -44q-49 0 -75 19q-28 20 -47 42q-12 14 -38 42q-18 20 -45 20z" />
    <glyph glyph-name="Adieresis" unicode="&#xc4;" horiz-adv-x="1372" 
d="M1331 0h-143l-92 358h-820l-92 -358h-143l348 1413h594zM307 492h758l-195 788h-368zM430 1731q0 30 26 56q25 25 56 25t56 -25q26 -26 26 -56q0 -31 -26 -57q-25 -25 -56 -25t-56 25q-26 26 -26 57zM778 1731q0 30 26 56q25 25 56 25t56 -25q26 -26 26 -56
q0 -31 -26 -57q-25 -25 -56 -25t-56 25q-26 26 -26 57z" />
    <glyph glyph-name="Aring" unicode="&#xc5;" horiz-adv-x="1372" 
d="M1331 0h-143l-92 358h-820l-92 -358h-143l348 1413h594zM307 492h758l-195 788h-368zM492 1761q0 87 59 146t145 59q87 0 146 -59t59 -146q0 -86 -59 -145q-60 -60 -146 -60q-85 0 -145 60q-59 59 -59 145zM584 1761q0 -55 32 -88q33 -35 80 -35t80 35t33 88t-33 88
t-80 35t-80 -35q-32 -33 -32 -88z" />
    <glyph glyph-name="AE" unicode="&#xc6;" horiz-adv-x="1966" 
d="M1925 133v-133h-973v358h-676l-92 -358h-143l348 1413h1536v-133h-829v-502h645v-133h-645v-512h829zM307 492h645v788h-450z" />
    <glyph glyph-name="Ccedilla" unicode="&#xc7;" horiz-adv-x="1546" 
d="M1485 399q-27 -79 -82 -161q-51 -76 -130 -141q-74 -61 -177 -104q-102 -43 -224 -50l-32 -86q36 -10 65 -33q28 -25 46 -54q22 -36 22 -87q0 -87 -57 -141t-148 -54q-43 0 -70 10q-30 11 -51 25q-27 19 -43 37l62 71q12 -14 26 -20q18 -9 33 -14q21 -7 43 -7q48 0 75 27
t27 66q0 38 -27 65t-75 27h-72l70 166q-134 7 -259 72q-123 64 -218 168q-93 102 -151 239q-56 133 -56 287q0 157 60 297q58 136 161 243q99 104 233 166q133 62 273 62q131 0 238 -39q104 -38 187 -101q82 -62 134 -138q54 -79 76 -153l-144 -20q-24 62 -65 115
q-43 57 -105 102q-64 47 -141 73q-79 27 -180 27q-110 0 -216 -50q-102 -48 -187 -136q-82 -85 -132 -202q-49 -114 -49 -246q0 -135 49 -249q50 -117 132 -202q83 -86 187 -135t216 -49q108 0 192 28q86 29 151 77q67 50 112 111q48 65 77 132z" />
    <glyph glyph-name="Egrave" unicode="&#xc8;" horiz-adv-x="1208" 
d="M1167 133v-133h-1013v1413h1013v-133h-870v-502h686v-133h-686v-512h870zM532 1884l318 -184l-41 -82l-338 143z" />
    <glyph glyph-name="Eacute" unicode="&#xc9;" horiz-adv-x="1208" 
d="M1167 133v-133h-1013v1413h1013v-133h-870v-502h686v-133h-686v-512h870zM881 1761l-338 -143l-41 82l317 184z" />
    <glyph glyph-name="Ecircumflex" unicode="&#xca;" horiz-adv-x="1208" 
d="M1167 133v-133h-1013v1413h1013v-133h-870v-502h686v-133h-686v-512h870zM707 1905l245 -318h-123l-163 205h-11l-163 -205h-123l245 318h93z" />
    <glyph glyph-name="Edieresis" unicode="&#xcb;" horiz-adv-x="1208" 
d="M1167 133v-133h-1013v1413h1013v-133h-870v-502h686v-133h-686v-512h870zM399 1731q0 30 26 56q25 25 56 25q32 0 57 -25t25 -56q0 -32 -25 -57t-57 -25q-31 0 -56 25q-26 26 -26 57zM748 1731q0 31 25 56t56 25q32 0 57 -25t25 -56q0 -32 -25 -57t-57 -25q-31 0 -56 25
t-25 57z" />
    <glyph glyph-name="Igrave" unicode="&#xcc;" horiz-adv-x="501" 
d="M328 0h-144v1413h144v-1413zM63 1864l318 -185l-41 -82l-338 144z" />
    <glyph glyph-name="Iacute" unicode="&#xcd;" horiz-adv-x="501" 
d="M317 0h-143v1413h143v-1413zM502 1761l-338 -143l-41 82l317 184z" />
    <glyph glyph-name="Icircumflex" unicode="&#xce;" horiz-adv-x="501" 
d="M317 0h-143v1413h143v-1413zM299 1915l246 -318h-123l-164 205h-10l-164 -205h-123l246 318h92z" />
    <glyph glyph-name="Idieresis" unicode="&#xcf;" horiz-adv-x="491" 
d="M317 0h-143v1413h143v-1413zM-8 1720q0 32 25 57t57 25q31 0 56 -25q26 -26 26 -57q0 -30 -26 -56t-56 -26q-31 0 -57 26q-25 25 -25 56zM340 1720q0 31 26 57q25 25 56 25t56 -25q26 -26 26 -57q0 -30 -26 -56t-56 -26t-56 26t-26 56z" />
    <glyph glyph-name="Eth" unicode="&#xd0;" horiz-adv-x="1464" 
d="M1382 707q0 -152 -53 -284q-52 -130 -151 -223q-102 -96 -237 -147q-139 -53 -306 -53h-430v645h-164v133h164v635h430q167 0 306 -53q135 -51 237 -147q99 -93 151 -223q53 -132 53 -283zM1239 707q0 128 -43 232q-43 105 -121 181q-77 76 -190 118q-112 42 -250 42
h-287v-502h348v-133h-348v-512h287q137 0 250 42t190 118q78 76 121 181q43 104 43 233z" />
    <glyph glyph-name="Ntilde" unicode="&#xd1;" horiz-adv-x="1423" 
d="M1116 246h10v1167h144v-1413h-154l-809 1167h-10v-1167h-143v1413h153zM635 1751q-23 0 -42 -19q-20 -20 -20 -42v-52h-102v52q0 86 42 130t112 44q44 0 73 -20q28 -20 48 -42q12 -14 38 -42q18 -19 45 -19q23 0 42 19q20 20 20 42v51h102v-51q0 -86 -42 -130t-111 -44
q-47 0 -75 20t-47 42q-12 14 -38 42q-18 19 -45 19z" />
    <glyph glyph-name="Ograve" unicode="&#xd2;" horiz-adv-x="1658" 
d="M82 707q0 155 60 294t164 245q104 105 239 167q136 62 284 62q149 0 285 -62q137 -62 239 -166q106 -107 164 -243q60 -140 60 -297t-60 -297q-59 -138 -164 -244q-102 -104 -239 -166q-134 -61 -285 -61q-150 0 -284 61q-137 62 -239 166q-105 106 -164 244
q-60 140 -60 297zM1434 707q0 127 -51 246q-49 115 -133 202t-192 136q-111 50 -229 50q-117 0 -228 -50q-108 -49 -192 -136q-85 -88 -134 -202q-50 -117 -50 -246q0 -130 50 -247q49 -114 134 -202q84 -87 192 -136q111 -50 228 -50q118 0 229 50q108 49 192 136t133 202
q51 119 51 247zM686 1905l318 -185l-41 -82l-338 144z" />
    <glyph glyph-name="Oacute" unicode="&#xd3;" horiz-adv-x="1658" 
d="M82 707q0 155 60 294t164 245q104 105 239 167q136 62 284 62q149 0 285 -62q137 -62 239 -166q106 -107 164 -243q60 -140 60 -297t-60 -297q-59 -138 -164 -244q-102 -104 -239 -166q-134 -61 -285 -61q-150 0 -284 61q-137 62 -239 166q-105 106 -164 244
q-60 140 -60 297zM1434 707q0 127 -51 246q-49 115 -133 202t-192 136q-111 50 -229 50q-117 0 -228 -50q-108 -49 -192 -136q-85 -88 -134 -202q-50 -117 -50 -246q0 -130 50 -247q49 -114 134 -202q84 -87 192 -136q111 -50 228 -50q118 0 229 50q108 49 192 136t133 202
q51 119 51 247zM1044 1792l-337 -143l-41 82l317 184z" />
    <glyph glyph-name="Ocircumflex" unicode="&#xd4;" horiz-adv-x="1658" 
d="M82 707q0 155 60 294t164 245q104 105 239 167q136 62 284 62q149 0 285 -62q137 -62 239 -166q106 -107 164 -243q60 -140 60 -297t-60 -297q-59 -138 -164 -244q-102 -104 -239 -166q-134 -61 -285 -61q-150 0 -284 61q-137 62 -239 166q-105 106 -164 244
q-60 140 -60 297zM1434 707q0 127 -51 246q-49 115 -133 202t-192 136q-111 50 -229 50q-117 0 -228 -50q-108 -49 -192 -136q-85 -88 -134 -202q-50 -117 -50 -246q0 -130 50 -247q49 -114 134 -202q84 -87 192 -136q111 -50 228 -50q118 0 229 50q108 49 192 136t133 202
q51 119 51 247zM881 1935l245 -317h-122l-164 205h-11l-163 -205h-123l245 317h93z" />
    <glyph glyph-name="Otilde" unicode="&#xd5;" horiz-adv-x="1658" 
d="M82 707q0 155 60 294t164 245q104 105 239 167q136 62 284 62q149 0 285 -62q137 -62 239 -166q106 -107 164 -243q60 -140 60 -297t-60 -297q-59 -138 -164 -244q-102 -104 -239 -166q-134 -61 -285 -61q-150 0 -284 61q-137 62 -239 166q-105 106 -164 244
q-60 140 -60 297zM1434 707q0 127 -51 246q-49 115 -133 202t-192 136q-111 50 -229 50q-117 0 -228 -50q-108 -49 -192 -136q-85 -88 -134 -202q-50 -117 -50 -246q0 -130 50 -247q49 -114 134 -202q84 -87 192 -136q111 -50 228 -50q118 0 229 50q108 49 192 136t133 202
q51 119 51 247zM727 1772q-22 0 -42 -20q-19 -19 -19 -42v-51h-103v51q0 86 42 130t112 44q46 0 74 -19q29 -19 48 -42q12 -14 38 -42q18 -20 45 -20q22 0 42 20q19 19 19 42v51h102v-51q0 -87 -42 -130q-42 -44 -111 -44q-49 0 -75 19q-28 20 -47 42q-12 14 -38 42
q-18 20 -45 20z" />
    <glyph glyph-name="Odieresis" unicode="&#xd6;" horiz-adv-x="1658" 
d="M82 707q0 155 60 294t164 245q104 105 239 167q136 62 284 62q149 0 285 -62q137 -62 239 -166q106 -107 164 -243q60 -140 60 -297t-60 -297q-59 -138 -164 -244q-102 -104 -239 -166q-134 -61 -285 -61q-150 0 -284 61q-137 62 -239 166q-105 106 -164 244
q-60 140 -60 297zM1434 707q0 127 -51 246q-49 115 -133 202t-192 136q-111 50 -229 50q-117 0 -228 -50q-108 -49 -192 -136q-85 -88 -134 -202q-50 -117 -50 -246q0 -130 50 -247q49 -114 134 -202q84 -87 192 -136q111 -50 228 -50q118 0 229 50q108 49 192 136t133 202
q51 119 51 247zM584 1782q0 31 25 56q26 26 57 26q30 0 56 -26t26 -56q0 -31 -26 -57q-25 -25 -56 -25q-32 0 -57 25t-25 57zM932 1782q0 31 25 56q26 26 57 26q30 0 56 -26t26 -56q0 -31 -26 -57q-25 -25 -56 -25q-32 0 -57 25t-25 57z" />
    <glyph glyph-name="multiply" unicode="&#xd7;" horiz-adv-x="737" 
d="M61 870l82 82l226 -225l225 225l82 -82l-225 -225l225 -225l-82 -82l-225 225l-226 -225l-82 82l226 225z" />
    <glyph glyph-name="Oslash" unicode="&#xd8;" horiz-adv-x="1740" 
d="M123 707q0 155 60 294t164 245q104 105 239 167q136 62 284 62q86 0 160 -18q75 -18 136 -46q68 -31 113 -65q57 -43 91 -76q93 -89 156 -205l215 92v-133l-164 -72q14 -38 20 -69q11 -49 15 -78q6 -45 6 -98q0 -157 -60 -297q-59 -138 -164 -244q-102 -104 -239 -166
q-134 -61 -285 -61q-89 0 -160 17q-78 19 -137 46q-60 28 -112 66q-57 42 -90 75q-93 89 -156 205l-215 -92v133l164 72q-16 44 -21 69q-9 38 -14 78q-6 45 -6 99zM266 707q0 -42 4 -73t11 -59q3 -11 16 -53l1106 482q-51 92 -129 167q-43 39 -74 62q-43 31 -91 55
q-49 24 -110 39q-56 14 -129 14q-117 0 -228 -50q-108 -49 -192 -136q-85 -88 -134 -202q-50 -117 -50 -246zM1475 707q0 26 -6 72q-4 31 -11 59q-1 4 -6.5 24t-7.5 29l-1106 -481q50 -98 127 -170q68 -65 166 -116q100 -52 239 -52q118 0 229 50q108 49 192 136t133 202
q51 119 51 247z" />
    <glyph glyph-name="Ugrave" unicode="&#xd9;" horiz-adv-x="1413" 
d="M707 72q88 0 162 31q73 30 130 91q56 59 86 141q31 85 31 187v891h144v-891q0 -135 -40 -242t-114 -184q-72 -75 -175 -116t-224 -41q-122 0 -225 41t-175 116t-113 184q-40 107 -40 242v891h143v-891q0 -102 31 -187q30 -82 86 -141q57 -61 130 -91q74 -31 163 -31z
M573 1905l318 -185l-41 -82l-338 144z" />
    <glyph glyph-name="Uacute" unicode="&#xda;" horiz-adv-x="1413" 
d="M707 72q88 0 162 31q73 30 130 91q56 59 86 141q31 85 31 187v891h144v-891q0 -135 -40 -242t-114 -184q-72 -75 -175 -116t-224 -41q-122 0 -225 41t-175 116t-113 184q-40 107 -40 242v891h143v-891q0 -102 31 -187q30 -82 86 -141q57 -61 130 -91q74 -31 163 -31z
M942 1782l-338 -144l-41 82l318 185z" />
    <glyph glyph-name="Ucircumflex" unicode="&#xdb;" horiz-adv-x="1413" 
d="M707 72q88 0 162 31q73 30 130 91q56 59 86 141q31 85 31 187v891h144v-891q0 -135 -40 -242t-114 -184q-72 -75 -175 -116t-224 -41q-122 0 -225 41t-175 116t-113 184q-40 107 -40 242v891h143v-891q0 -102 31 -187q30 -82 86 -141q57 -61 130 -91q74 -31 163 -31z
M768 1915l246 -318h-123l-164 205h-10l-164 -205h-123l246 318h92z" />
    <glyph glyph-name="Udieresis" unicode="&#xdc;" horiz-adv-x="1413" 
d="M707 72q88 0 162 31q73 30 130 91q56 59 86 141q31 85 31 187v891h144v-891q0 -135 -40 -242t-114 -184q-72 -75 -175 -116t-224 -41q-122 0 -225 41t-175 116t-113 184q-40 107 -40 242v891h143v-891q0 -102 31 -187q30 -82 86 -141q57 -61 130 -91q74 -31 163 -31z
M440 1731q0 30 26 56q25 25 56 25q32 0 57 -25t25 -56q0 -32 -25 -57t-57 -25q-31 0 -56 25q-26 26 -26 57zM788 1731q0 30 26 56q25 25 56 25q32 0 57 -25t25 -56q0 -32 -25 -57t-57 -25q-31 0 -56 25q-26 26 -26 57z" />
    <glyph glyph-name="Yacute" unicode="&#xdd;" horiz-adv-x="1310" 
d="M727 471v-471h-143v471l-564 942h160l471 -778h8l471 778h160zM891 1761l-338 -143l-41 82l317 184z" />
    <glyph glyph-name="Thorn" unicode="&#xde;" horiz-adv-x="1269" 
d="M532 1321q150 0 271 -45t207 -126t132 -192q46 -110 46 -241q0 -132 -46 -242q-46 -109 -132 -191q-86 -81 -207 -126t-271 -45h-235v-154h-143v1516h143v-154h235zM297 1188v-942h235q114 0 209 36t162 99t105 149q36 82 36 187q0 104 -36 186q-39 88 -105 150
q-67 63 -162 99t-209 36h-235z" />
    <glyph glyph-name="germandbls" unicode="&#xdf;" horiz-adv-x="1095" 
d="M492 819q58 0 113 22q51 20 91 56q40 35 61 82t21 96q0 56 -19 101q-20 48 -53 81q-37 37 -79 55q-44 19 -95 19q-55 0 -100 -19q-47 -19 -82 -55q-34 -35 -54 -81q-20 -48 -20 -101v-1075h-133v1075q0 75 31 146q30 68 83 120q55 53 124 82q74 31 151 31q75 0 146 -31
q69 -30 121 -82q53 -53 82 -120q30 -69 30 -146q0 -91 -30 -150q-29 -57 -68 -91q-44 -38 -96 -56v-10q89 -16 153 -57q59 -39 106 -108q48 -70 48 -193q0 -84 -33 -159q-33 -74 -90 -130q-56 -55 -136 -88q-79 -33 -171 -33h-113v123h113q64 0 116 23q53 24 94 63
q38 37 63 91q24 52 24 110q0 56 -24 109q-25 54 -63 91q-41 39 -94 63q-52 23 -116 23h-102v123z" />
    <glyph glyph-name="agrave" unicode="&#xe0;" 
d="M850 635q-29 59 -78 113q-40 40 -100 76t-140 36q-64 0 -124 -27q-59 -26 -105 -79q-45 -51 -72 -123q-26 -69 -26 -160t26 -160q27 -72 72 -123t105 -78q62 -28 124 -28q79 0 140 35q59 34 100 78q50 53 78 112v328zM983 0h-133v133h-10q-28 -48 -78 -88
q-38 -31 -100 -59q-60 -27 -140 -27q-86 0 -170 38q-81 37 -144 106q-61 66 -99 163q-37 93 -37 205t37 205q38 97 99 163q63 69 144 106q84 38 170 38q78 0 140 -28q59 -26 100 -60q51 -41 78 -86h10v133h133v-942zM420 1454l317 -184l-41 -82l-338 143z" />
    <glyph glyph-name="aacute" unicode="&#xe1;" 
d="M850 635q-29 59 -78 113q-40 40 -100 76t-140 36q-64 0 -124 -27q-59 -26 -105 -79q-45 -51 -72 -123q-26 -69 -26 -160t26 -160q27 -72 72 -123t105 -78q62 -28 124 -28q79 0 140 35q59 34 100 78q50 53 78 112v328zM983 0h-133v133h-10q-28 -48 -78 -88
q-38 -31 -100 -59q-60 -27 -140 -27q-86 0 -170 38q-81 37 -144 106q-61 66 -99 163q-37 93 -37 205t37 205q38 97 99 163q63 69 144 106q84 38 170 38q78 0 140 -28q59 -26 100 -60q51 -41 78 -86h10v133h133v-942zM768 1331l-338 -143l-41 82l318 184z" />
    <glyph glyph-name="acircumflex" unicode="&#xe2;" 
d="M850 635q-29 59 -78 113q-40 40 -100 76t-140 36q-64 0 -124 -27q-59 -26 -105 -79q-45 -51 -72 -123q-26 -69 -26 -160t26 -160q27 -72 72 -123t105 -78q62 -28 124 -28q79 0 140 35q59 34 100 78q50 53 78 112v328zM983 0h-133v133h-10q-28 -48 -78 -88
q-38 -31 -100 -59q-60 -27 -140 -27q-86 0 -170 38q-81 37 -144 106q-61 66 -99 163q-37 93 -37 205t37 205q38 97 99 163q63 69 144 106q84 38 170 38q78 0 140 -28q59 -26 100 -60q51 -41 78 -86h10v133h133v-942zM604 1475l246 -318h-123l-164 205h-10l-164 -205h-123
l246 318h92z" />
    <glyph glyph-name="atilde" unicode="&#xe3;" 
d="M850 635q-29 59 -78 113q-40 40 -100 76t-140 36q-64 0 -124 -27q-59 -26 -105 -79q-45 -51 -72 -123q-26 -69 -26 -160t26 -160q27 -72 72 -123t105 -78q62 -28 124 -28q79 0 140 35q59 34 100 78q50 53 78 112v328zM983 0h-133v133h-10q-28 -48 -78 -88
q-38 -31 -100 -59q-60 -27 -140 -27q-86 0 -170 38q-81 37 -144 106q-61 66 -99 163q-37 93 -37 205t37 205q38 97 99 163q63 69 144 106q84 38 170 38q78 0 140 -28q59 -26 100 -60q51 -41 78 -86h10v133h133v-942zM471 1311q-22 0 -42 -20q-19 -19 -19 -42v-51h-103v51
q0 87 42 130q42 44 112 44q46 0 74 -19q29 -20 48 -42q12 -14 38 -42q18 -20 45 -20q22 0 42 20q19 19 19 42v51h102v-51q0 -86 -42 -130t-111 -44q-49 0 -75 19q-28 20 -47 42q-12 14 -38 42q-18 20 -45 20z" />
    <glyph glyph-name="adieresis" unicode="&#xe4;" 
d="M850 635q-29 59 -78 113q-40 40 -100 76t-140 36q-64 0 -124 -27q-59 -26 -105 -79q-45 -51 -72 -123q-26 -69 -26 -160t26 -160q27 -72 72 -123t105 -78q62 -28 124 -28q79 0 140 35q59 34 100 78q50 53 78 112v328zM983 0h-133v133h-10q-28 -48 -78 -88
q-38 -31 -100 -59q-60 -27 -140 -27q-86 0 -170 38q-81 37 -144 106q-61 66 -99 163q-37 93 -37 205t37 205q38 97 99 163q63 69 144 106q84 38 170 38q78 0 140 -28q59 -26 100 -60q51 -41 78 -86h10v133h133v-942zM297 1292q0 31 26 57q25 25 56 25t56 -25q26 -26 26 -57
q0 -30 -26 -56t-56 -26t-56 26t-26 56zM645 1292q0 31 26 57q25 25 56 25t56 -25q26 -26 26 -57q0 -30 -26 -56t-56 -26t-56 26t-26 56z" />
    <glyph glyph-name="aring" unicode="&#xe5;" 
d="M850 635q-29 59 -78 113q-40 40 -100 76t-140 36q-64 0 -124 -27q-59 -26 -105 -79q-45 -51 -72 -123q-26 -69 -26 -160t26 -160q27 -72 72 -123t105 -78q62 -28 124 -28q79 0 140 35q59 34 100 78q50 53 78 112v328zM983 0h-133v133h-10q-28 -48 -78 -88
q-38 -31 -100 -59q-60 -27 -140 -27q-86 0 -170 38q-81 37 -144 106q-61 66 -99 163q-37 93 -37 205t37 205q38 97 99 163q63 69 144 106q84 38 170 38q78 0 140 -28q59 -26 100 -60q51 -41 78 -86h10v133h133v-942zM348 1352q0 85 60 145q59 59 145 59t145 -59
q60 -60 60 -145q0 -86 -60 -146q-59 -59 -145 -59t-145 59q-60 60 -60 146zM440 1352q0 -54 33 -88q33 -35 80 -35t80 35q33 34 33 88t-33 88q-33 35 -80 35t-80 -35q-33 -34 -33 -88z" />
    <glyph glyph-name="ae" unicode="&#xe6;" horiz-adv-x="1751" 
d="M1239 983q91 0 176 -38t147 -106t100 -163q38 -96 38 -205l-62 -61h-727q7 -65 36 -129q26 -58 72 -104q43 -43 102 -69q60 -26 128 -26q72 0 122 17q55 19 90 47q40 32 63 69q24 40 39 82l133 -27q-16 -53 -55 -115q-36 -57 -91 -100q-52 -41 -130 -69q-75 -27 -169 -27
q-109 0 -186 36t-123 81q-53 50 -92 119h-10q-35 -67 -90 -119q-46 -45 -126 -81t-194 -36q-92 0 -160 24q-69 25 -111 62q-46 41 -66 91q-21 52 -21 110q0 56 24 109q23 51 71 91q46 39 113 63q63 23 150 23h348v62q0 134 -75 200t-191 66q-68 0 -113 -22t-75 -50
q-38 -36 -58 -71l-112 41q28 63 75 112q41 41 110 77t173 36t171 -32q70 -33 108 -70q46 -44 69 -103h10q35 57 88 103q44 38 114 70t167 32zM1239 860q-62 0 -118 -25q-54 -24 -100 -70q-45 -45 -73 -104q-30 -63 -37 -129h656q-7 66 -37 129q-28 59 -73 104
q-46 46 -100 70q-56 25 -118 25zM430 82q77 0 137 23q66 25 111 67q48 45 74 103t26 135h-348q-124 0 -174 -43q-51 -43 -51 -121t51 -121q50 -43 174 -43z" />
    <glyph glyph-name="ccedilla" unicode="&#xe7;" horiz-adv-x="1054" 
d="M1004 276q-15 -58 -48 -110q-34 -53 -82 -96q-50 -44 -115 -72q-69 -30 -151 -37l-35 -94q37 -11 66 -33q28 -25 46 -54q22 -36 22 -87q0 -87 -57 -141t-148 -54q-43 0 -70 10q-30 11 -51 25q-27 19 -43 37l61 72q13 -14 27 -21q18 -9 33 -14q18 -6 43 -6q49 0 75 26
q27 27 27 66q0 38 -27 65t-75 27h-72l76 178q-87 7 -167 51q-77 42 -138 111t-95 156t-34 190q0 107 39 201t105 163q63 65 154 108q86 40 183 40q86 0 159 -25q72 -25 124 -63t87 -89q33 -47 50 -99l-133 -31q-11 32 -35 67q-22 32 -59 60t-83 42q-48 15 -110 15
q-68 0 -132 -29q-65 -29 -111 -80q-49 -54 -77 -124q-28 -71 -28 -156t28 -156q28 -70 77 -124q46 -51 111 -80q64 -29 132 -29q131 0 209 66q77 65 108 159z" />
    <glyph glyph-name="egrave" unicode="&#xe8;" horiz-adv-x="1075" 
d="M543 983q94 0 181 -38q85 -37 149 -106q67 -71 103 -163q38 -96 38 -205l-62 -61h-747q7 -66 37 -129t74 -104q46 -43 107 -69t130 -26q73 0 123 17q55 19 93 47q39 29 67 69q25 37 41 82l133 -27q-16 -55 -56 -115q-37 -57 -94 -100q-53 -40 -134 -69q-76 -27 -171 -27
q-98 0 -188 38q-88 37 -154 106q-65 68 -103 163q-38 96 -38 205t38 205q37 94 102 163q64 69 149 106q87 38 182 38zM543 860q-67 0 -124 -25q-58 -25 -104 -70q-45 -43 -73 -103q-30 -62 -37 -130h676q-7 68 -37 130q-28 58 -74 103q-47 46 -103 70q-57 25 -124 25z
M420 1454l317 -184l-41 -82l-338 143z" />
    <glyph glyph-name="eacute" unicode="&#xe9;" horiz-adv-x="1075" 
d="M543 983q94 0 181 -38q85 -37 149 -106q67 -71 103 -163q38 -96 38 -205l-62 -61h-747q7 -66 37 -129t74 -104q46 -43 107 -69t130 -26q73 0 123 17q55 19 93 47q39 29 67 69q25 37 41 82l133 -27q-16 -55 -56 -115q-37 -57 -94 -100q-53 -40 -134 -69q-76 -27 -171 -27
q-98 0 -188 38q-88 37 -154 106q-65 68 -103 163q-38 96 -38 205t38 205q37 94 102 163q64 69 149 106q87 38 182 38zM543 860q-67 0 -124 -25q-58 -25 -104 -70q-45 -43 -73 -103q-30 -62 -37 -130h676q-7 68 -37 130q-28 58 -74 103q-47 46 -103 70q-57 25 -124 25z
M748 1331l-338 -143l-41 82l317 184z" />
    <glyph glyph-name="ecircumflex" unicode="&#xea;" horiz-adv-x="1075" 
d="M543 983q94 0 181 -38q85 -37 149 -106q67 -71 103 -163q38 -96 38 -205l-62 -61h-747q7 -66 37 -129t74 -104q46 -43 107 -69t130 -26q73 0 123 17q55 19 93 47q39 29 67 69q25 37 41 82l133 -27q-16 -55 -56 -115q-37 -57 -94 -100q-53 -40 -134 -69q-76 -27 -171 -27
q-98 0 -188 38q-88 37 -154 106q-65 68 -103 163q-38 96 -38 205t38 205q37 94 102 163q64 69 149 106q87 38 182 38zM543 860q-67 0 -124 -25q-58 -25 -104 -70q-45 -43 -73 -103q-30 -62 -37 -130h676q-7 68 -37 130q-28 58 -74 103q-47 46 -103 70q-57 25 -124 25z
M594 1464l246 -317h-123l-164 205h-10l-164 -205h-123l246 317h92z" />
    <glyph glyph-name="edieresis" unicode="&#xeb;" horiz-adv-x="1075" 
d="M543 983q94 0 181 -38q85 -37 149 -106q67 -71 103 -163q38 -96 38 -205l-62 -61h-747q7 -66 37 -129t74 -104q46 -43 107 -69t130 -26q73 0 123 17q55 19 93 47q39 29 67 69q25 37 41 82l133 -27q-16 -55 -56 -115q-37 -57 -94 -100q-53 -40 -134 -69q-76 -27 -171 -27
q-98 0 -188 38q-88 37 -154 106q-65 68 -103 163q-38 96 -38 205t38 205q37 94 102 163q64 69 149 106q87 38 182 38zM543 860q-67 0 -124 -25q-58 -25 -104 -70q-45 -43 -73 -103q-30 -62 -37 -130h676q-7 68 -37 130q-28 58 -74 103q-47 46 -103 70q-57 25 -124 25z
M276 1292q0 31 26 57q25 25 56 25q32 0 57 -25t25 -57q0 -31 -25 -56q-26 -26 -57 -26q-30 0 -56 26t-26 56zM625 1292q0 32 25 57t57 25q31 0 56 -25t25 -57q0 -31 -25 -56q-26 -26 -56 -26q-31 0 -57 26q-25 25 -25 56z" />
    <glyph glyph-name="igrave" unicode="&#xec;" horiz-adv-x="399" 
d="M2 1434l317 -185l-40 -82l-338 144zM266 0h-133v942h133v-942z" />
    <glyph glyph-name="iacute" unicode="&#xed;" horiz-adv-x="419" 
d="M461 1311l-338 -144l-41 82l317 185zM287 0h-133v942h133v-942z" />
    <glyph glyph-name="icircumflex" unicode="&#xee;" horiz-adv-x="460" 
d="M297 0h-133v942h133v-942zM279 1434l245 -318h-123l-163 205h-11l-164 -205h-122l245 318h93z" />
    <glyph glyph-name="idieresis" unicode="&#xef;" horiz-adv-x="430" 
d="M-39 1272q0 30 26 56t56 26t56 -26t26 -56q0 -31 -26 -57q-25 -25 -56 -25t-56 25q-26 26 -26 57zM309 1272q0 30 26 56t56 26t56 -26t26 -56q0 -31 -26 -57q-25 -25 -56 -25t-56 25q-26 26 -26 57zM287 0h-133v942h133v-942z" />
    <glyph glyph-name="eth" unicode="&#xf0;" 
d="M522 1167l144 113l-144 168l92 78l144 -174l143 116l72 -86l-144 -112q44 -54 82 -135q33 -75 57 -167q25 -97 25 -231v-307q0 -103 -35 -190q-35 -86 -96 -149t-145 -97q-85 -35 -185 -35q-99 0 -184 35q-84 34 -145 97q-63 64 -97 149q-34 84 -34 190q0 107 34 191
q33 82 96 148q60 63 142 97q84 35 178 35q90 0 155 -28q61 -26 101 -60q46 -38 72 -86h10q0 137 -19 225q-20 91 -42 146q-26 64 -62 100l-143 -113zM532 82q148 0 238 93t90 255t-90 255t-238 93q-147 0 -237 -93t-90 -255t90 -255t237 -93z" />
    <glyph glyph-name="ntilde" unicode="&#xf1;" horiz-adv-x="1085" 
d="M973 0h-133v553q0 147 -75 227t-192 80q-77 0 -136 -36q-60 -37 -99 -76q-48 -53 -82 -113v-635h-133v942h133v-133h10q32 45 82 86q40 33 99 60q61 28 137 28q83 0 155 -30t124 -85q53 -56 81 -135q29 -81 29 -180v-553zM430 1321q-23 0 -42 -19t-19 -42v-52h-103v52
q0 86 42 130t112 44q45 0 74 -20q28 -20 48 -42q12 -14 38 -42q18 -19 45 -19q23 0 42 19t19 42v51h102v-51q0 -86 -42 -130t-111 -44q-47 0 -75 20t-47 42q-12 14 -38 42q-18 19 -45 19z" />
    <glyph glyph-name="ograve" unicode="&#xf2;" horiz-adv-x="1126" 
d="M1055 471q0 -109 -38 -205q-36 -91 -105 -163q-65 -68 -155 -106t-194 -38q-103 0 -193 38q-92 39 -156 106q-67 70 -104 163q-38 96 -38 205t38 205q37 93 104 163q64 67 156 106q90 38 193 38q104 0 194 -38t155 -106q69 -72 105 -163q38 -96 38 -205zM922 471
q0 83 -29 156q-28 71 -78 124q-48 51 -114 80t-138 29t-138 -29t-114 -80q-50 -53 -78 -124t-28 -156t28 -156t78 -124q48 -51 115 -80t137 -29q72 0 138 29t114 80q50 53 78 124q29 73 29 156zM420 1434l317 -185l-41 -82l-338 144z" />
    <glyph glyph-name="oacute" unicode="&#xf3;" horiz-adv-x="1126" 
d="M1055 471q0 -109 -38 -205q-36 -91 -105 -163q-65 -68 -155 -106t-194 -38q-103 0 -193 38q-92 39 -156 106q-67 70 -104 163q-38 96 -38 205t38 205q37 93 104 163q64 67 156 106q90 38 193 38q104 0 194 -38t155 -106q69 -72 105 -163q38 -96 38 -205zM922 471
q0 83 -29 156q-28 71 -78 124q-48 51 -114 80t-138 29t-138 -29t-114 -80q-50 -53 -78 -124t-28 -156t28 -156t78 -124q48 -51 115 -80t137 -29q72 0 138 29t114 80q50 53 78 124q29 73 29 156zM768 1331l-338 -143l-41 82l318 184z" />
    <glyph glyph-name="ocircumflex" unicode="&#xf4;" horiz-adv-x="1126" 
d="M1055 471q0 -109 -38 -205q-36 -91 -105 -163q-65 -68 -155 -106t-194 -38q-103 0 -193 38q-92 39 -156 106q-67 70 -104 163q-38 96 -38 205t38 205q37 93 104 163q64 67 156 106q90 38 193 38q104 0 194 -38t155 -106q69 -72 105 -163q38 -96 38 -205zM922 471
q0 83 -29 156q-28 71 -78 124q-48 51 -114 80t-138 29t-138 -29t-114 -80q-50 -53 -78 -124t-28 -156t28 -156t78 -124q48 -51 115 -80t137 -29q72 0 138 29t114 80q50 53 78 124q29 73 29 156zM614 1485l246 -318h-123l-164 205h-10l-164 -205h-123l246 318h92z" />
    <glyph glyph-name="otilde" unicode="&#xf5;" horiz-adv-x="1126" 
d="M1055 471q0 -109 -38 -205q-36 -91 -105 -163q-65 -68 -155 -106t-194 -38q-103 0 -193 38q-92 39 -156 106q-67 70 -104 163q-38 96 -38 205t38 205q37 93 104 163q64 67 156 106q90 38 193 38q104 0 194 -38t155 -106q69 -72 105 -163q38 -96 38 -205zM922 471
q0 83 -29 156q-28 71 -78 124q-48 51 -114 80t-138 29t-138 -29t-114 -80q-50 -53 -78 -124t-28 -156t28 -156t78 -124q48 -51 115 -80t137 -29q72 0 138 29t114 80q50 53 78 124q29 73 29 156zM471 1292q-23 0 -42 -19t-19 -42v-51h-103v51q0 87 42 130q42 44 112 44
q45 0 74 -20q29 -19 48 -42q6 -7 12.5 -14t14 -15t11.5 -12q18 -20 45 -20q22 0 42 20q19 19 19 41v52h102v-52q0 -87 -42 -130q-42 -44 -111 -44q-47 0 -75 20t-47 42q-12 14 -38 42q-18 19 -45 19z" />
    <glyph glyph-name="odieresis" unicode="&#xf6;" horiz-adv-x="1126" 
d="M1055 471q0 -109 -38 -205q-36 -91 -105 -163q-65 -68 -155 -106t-194 -38q-103 0 -193 38q-92 39 -156 106q-67 70 -104 163q-38 96 -38 205t38 205q37 93 104 163q64 67 156 106q90 38 193 38q104 0 194 -38t155 -106q69 -72 105 -163q38 -96 38 -205zM922 471
q0 83 -29 156q-28 71 -78 124q-48 51 -114 80t-138 29t-138 -29t-114 -80q-50 -53 -78 -124t-28 -156t28 -156t78 -124q48 -51 115 -80t137 -29q72 0 138 29t114 80q50 53 78 124q29 73 29 156zM297 1313q0 30 26 56t56 26t56 -26t26 -56q0 -31 -26 -57q-25 -25 -56 -25
t-56 25q-26 26 -26 57zM645 1313q0 30 26 56t56 26t56 -26t26 -56q0 -31 -26 -57q-25 -25 -56 -25t-56 25q-26 26 -26 57z" />
    <glyph glyph-name="divide" unicode="&#xf7;" horiz-adv-x="819" 
d="M41 686h737v-123h-737v123zM317 1014q0 38 27 65t66 27q38 0 65 -27t27 -65q0 -39 -27 -66q-26 -26 -65 -26q-40 0 -66 26q-27 27 -27 66zM317 236q0 38 27 65t66 27q38 0 65 -27t27 -65q0 -39 -27 -66t-65 -27q-39 0 -66 27t-27 66z" />
    <glyph glyph-name="oslash" unicode="&#xf8;" horiz-adv-x="1187" 
d="M1085 471q0 -112 -37 -205q-36 -91 -105 -163q-64 -67 -156 -106q-90 -38 -193 -38q-122 0 -207 41q-84 40 -137 92q-62 57 -96 133l-154 -61v123l123 51q-5 13 -10 39q-11 42 -11 94q0 109 38 205q36 91 105 163q65 68 155 106t194 38q124 0 206 -42q86 -44 136 -91
q60 -59 98 -133l154 61v-123l-123 -51q1 -5 4.5 -18t5.5 -21q3 -13 7 -43q3 -24 3 -51zM236 471q0 -25 1 -35t3 -24q2 -13 6 -23l665 277q-29 54 -73 96q-38 36 -99 67q-62 31 -145 31q-72 0 -138 -29t-114 -80q-50 -53 -78 -124t-28 -156zM952 471q0 14 -2 34
q-1 6 -2.5 14.5t-1.5 10.5q-1 4 -2.5 12t-1.5 11l-666 -277q27 -53 74 -98q36 -34 99 -66q60 -30 145 -30q72 0 138 29t114 80q50 53 78 124t28 156z" />
    <glyph glyph-name="ugrave" unicode="&#xf9;" horiz-adv-x="1095" 
d="M123 942h133v-553q0 -147 75 -227t191 -80q77 0 136 35q61 36 100 78q50 53 82 112v635h133v-942h-133v133h-11q-34 -50 -81 -88q-36 -30 -100 -59q-58 -27 -136 -27q-84 0 -156 30t-124 85q-51 54 -80 135t-29 180v553zM420 1423l317 -184l-41 -82l-338 143z" />
    <glyph glyph-name="uacute" unicode="&#xfa;" horiz-adv-x="1095" 
d="M123 942h133v-553q0 -147 75 -227t191 -80q77 0 136 35q61 36 100 78q50 53 82 112v635h133v-942h-133v133h-11q-34 -50 -81 -88q-36 -30 -100 -59q-58 -27 -136 -27q-84 0 -156 30t-124 85q-51 54 -80 135t-29 180v553zM758 1292l-338 -143l-41 82l317 184z" />
    <glyph glyph-name="ucircumflex" unicode="&#xfb;" horiz-adv-x="1095" 
d="M123 942h133v-553q0 -147 75 -227t191 -80q77 0 136 35q61 36 100 78q50 53 82 112v635h133v-942h-133v133h-11q-34 -50 -81 -88q-36 -30 -100 -59q-58 -27 -136 -27q-84 0 -156 30t-124 85q-51 54 -80 135t-29 180v553zM594 1464l246 -317h-123l-164 205h-10l-164 -205
h-123l246 317h92z" />
    <glyph glyph-name="udieresis" unicode="&#xfc;" horiz-adv-x="1095" 
d="M123 942h133v-553q0 -147 75 -227t191 -80q77 0 136 35q61 36 100 78q50 53 82 112v635h133v-942h-133v133h-11q-34 -50 -81 -88q-36 -30 -100 -59q-58 -27 -136 -27q-84 0 -156 30t-124 85q-51 54 -80 135t-29 180v553zM276 1262q0 30 26 56q25 25 56 25q32 0 57 -25
t25 -56q0 -32 -25 -57t-57 -25q-31 0 -56 25q-26 26 -26 57zM625 1262q0 31 25 56t57 25q31 0 56 -25t25 -56q0 -32 -25 -57t-56 -25q-32 0 -57 25t-25 57z" />
    <glyph glyph-name="yacute" unicode="&#xfd;" horiz-adv-x="1013" 
d="M952 942l-204 -942q-28 -127 -61 -206q-35 -84 -76 -132q-43 -51 -94 -71q-53 -21 -118 -21q-34 0 -64 6q-25 5 -52 14q-18 6 -47 21l30 123q19 -15 35 -21q19 -9 42 -14q25 -6 56 -6q36 0 66 15q29 15 57 50q25 31 50 95q25 62 42 147h-348l-205 942h134l174 -819h276
l174 819h133zM717 1311l-338 -144l-41 82l317 185z" />
    <glyph glyph-name="thorn" unicode="&#xfe;" horiz-adv-x="1116" 
d="M266 307q28 -59 78 -112q40 -43 99 -78t141 -35q63 0 125 28q58 26 104 78q45 51 72 123q26 69 26 160t-26 160q-27 72 -72 123q-47 53 -104 79q-60 27 -125 27q-82 0 -141 -36q-60 -37 -99 -76q-49 -54 -78 -113v-328zM133 1413h133v-604h10q27 45 78 86q39 32 100 60
t140 28q86 0 170 -38q81 -37 144 -106q62 -68 100 -163q36 -91 36 -205t-36 -205q-38 -95 -100 -163q-63 -69 -144 -106q-84 -38 -170 -38q-82 0 -140 27q-64 29 -100 59q-50 40 -78 88h-10v-543h-133v1823z" />
    <glyph glyph-name="ydieresis" unicode="&#xff;" horiz-adv-x="1013" 
d="M952 942l-204 -942q-28 -127 -61 -206q-35 -84 -76 -132q-43 -51 -94 -71q-53 -21 -118 -21q-34 0 -64 6q-25 5 -52 14q-18 6 -47 21l30 123q19 -15 35 -21q19 -9 42 -14q25 -6 56 -6q36 0 66 15q29 15 57 50q25 31 50 95q25 62 42 147h-348l-205 942h134l174 -819h276
l174 819h133zM246 1251q0 32 25 57t57 25q31 0 56 -25q26 -26 26 -57q0 -30 -26 -56t-56 -26q-31 0 -57 26q-25 25 -25 56zM594 1251q0 31 26 57q25 25 56 25t56 -25q26 -26 26 -57q0 -30 -26 -56t-56 -26t-56 26t-26 56z" />
    <glyph glyph-name="Amacron" unicode="&#x100;" horiz-adv-x="1372" 
d="M1331 0h-143l-92 358h-820l-92 -358h-143l348 1413h594zM307 492h758l-195 788h-368zM430 1772h502v-123h-502v123z" />
    <glyph glyph-name="amacron" unicode="&#x101;" 
d="M850 635q-29 59 -78 113q-40 40 -100 76t-140 36q-64 0 -124 -27q-59 -26 -105 -79q-45 -51 -72 -123q-26 -69 -26 -160t26 -160q27 -72 72 -123t105 -78q62 -28 124 -28q79 0 140 35q59 34 100 78q50 53 78 112v328zM983 0h-133v133h-10q-28 -48 -78 -88
q-38 -31 -100 -59q-60 -27 -140 -27q-86 0 -170 38q-81 37 -144 106q-61 66 -99 163q-37 93 -37 205t37 205q38 97 99 163q63 69 144 106q84 38 170 38q78 0 140 -28q59 -26 100 -60q51 -41 78 -86h10v133h133v-942zM317 1374h502v-123h-502v123z" />
    <glyph glyph-name="Abreve" unicode="&#x102;" horiz-adv-x="1372" 
d="M1331 0h-143l-92 358h-820l-92 -358h-143l348 1413h594zM307 492h758l-195 788h-368zM686 1741q69 0 112 41q42 40 42 102h112q0 -117 -74 -191q-75 -75 -192 -75q-116 0 -191 75t-75 191h112q0 -62 42 -102q43 -41 112 -41z" />
    <glyph glyph-name="abreve" unicode="&#x103;" 
d="M850 635q-29 59 -78 113q-40 40 -100 76t-140 36q-64 0 -124 -27q-59 -26 -105 -79q-45 -51 -72 -123q-26 -69 -26 -160t26 -160q27 -72 72 -123t105 -78q62 -28 124 -28q79 0 140 35q59 34 100 78q50 53 78 112v328zM983 0h-133v133h-10q-28 -48 -78 -88
q-38 -31 -100 -59q-60 -27 -140 -27q-86 0 -170 38q-81 37 -144 106q-61 66 -99 163q-37 93 -37 205t37 205q38 97 99 163q63 69 144 106q84 38 170 38q78 0 140 -28q59 -26 100 -60q51 -41 78 -86h10v133h133v-942zM553 1311q69 0 112 41q42 40 42 102h112q0 -116 -75 -191
t-191 -75q-117 0 -192 75q-74 74 -74 191h112q0 -62 42 -102q43 -41 112 -41z" />
    <glyph glyph-name="Aogonek" unicode="&#x104;" horiz-adv-x="1382" 
d="M1208 -471q-48 0 -86 16q-39 17 -67 43q-28 27 -45 62q-17 36 -17 74q0 70 36 123t81 87q52 39 119 66h-41l-92 358h-820l-92 -358h-143l348 1413h594l348 -1413q-72 -29 -119 -63q-42 -31 -80 -80q-36 -47 -36 -113q0 -48 32 -80q33 -33 80 -33q41 0 74 15q12 6 29 16
l30 -92q-22 -16 -36 -21q-18 -8 -41 -14q-24 -6 -56 -6zM307 492h758l-195 788h-368z" />
    <glyph glyph-name="aogonek" unicode="&#x105;" horiz-adv-x="1116" 
d="M860 -471q-48 0 -86 16q-39 17 -67 43q-28 27 -45 62q-17 36 -17 74q0 70 36 123t81 87q52 39 119 66h-31v133h-10q-28 -48 -78 -88q-38 -31 -100 -59q-60 -27 -140 -27q-86 0 -170 38q-81 37 -144 106q-61 66 -99 163q-37 93 -37 205t37 205q38 97 99 163q63 69 144 106
q84 38 170 38q78 0 140 -28q59 -26 100 -60q51 -41 78 -86h10v133h133v-942q-72 -29 -119 -63q-44 -32 -81 -80q-35 -45 -35 -113q0 -48 32 -80q33 -33 80 -33q41 0 74 15q12 6 29 16l30 -92q-21 -15 -37 -21q-18 -8 -41 -14q-24 -6 -55 -6zM850 635q-29 59 -78 113
q-40 40 -100 76t-140 36q-64 0 -124 -27q-59 -26 -105 -79q-45 -51 -72 -123q-26 -69 -26 -160t26 -160q27 -72 72 -123t105 -78q62 -28 124 -28q79 0 140 35q59 34 100 78q50 53 78 112v328z" />
    <glyph glyph-name="Cacute" unicode="&#x106;" horiz-adv-x="1546" 
d="M809 -61q-142 0 -273 61q-134 62 -233 166q-102 106 -161 244q-60 140 -60 297t60 297q58 136 161 243q99 104 233 166q133 62 273 62q131 0 238 -39q104 -38 187 -101q82 -62 134 -138q54 -79 76 -153l-144 -20q-24 62 -65 115q-43 57 -105 102q-64 47 -141 73
q-79 27 -180 27q-110 0 -216 -50q-102 -48 -187 -136q-82 -85 -132 -202q-49 -114 -49 -246q0 -135 49 -249q50 -117 132 -202q83 -86 187 -135t216 -49q108 0 192 28q86 29 151 77q67 50 112 111q48 65 77 132l144 -21q-29 -86 -88 -171q-56 -82 -143 -147
q-87 -66 -196 -104q-108 -38 -249 -38zM1034 1792l-338 -143l-41 82l318 184z" />
    <glyph glyph-name="cacute" unicode="&#x107;" horiz-adv-x="1054" 
d="M553 -41q-97 0 -183 40q-90 42 -154 109q-67 70 -105 161q-39 93 -39 202q0 107 39 201t105 163q63 65 154 108q86 40 183 40q86 0 159 -25q72 -25 124 -63t87 -89q33 -47 50 -99l-133 -31q-11 32 -35 67q-22 32 -59 60t-83 42q-48 15 -110 15q-68 0 -132 -29
q-65 -29 -111 -80q-49 -54 -77 -124q-28 -71 -28 -156t28 -156q28 -70 77 -124q46 -51 111 -80q64 -29 132 -29q131 0 209 66q77 65 108 159l134 -31q-16 -59 -53 -118q-39 -61 -92 -102q-56 -43 -133 -70q-76 -27 -173 -27zM768 1331l-338 -143l-41 82l318 184z" />
    <glyph glyph-name="Ccircumflex" unicode="&#x108;" horiz-adv-x="1546" 
d="M809 -61q-142 0 -273 61q-134 62 -233 166q-102 106 -161 244q-60 140 -60 297t60 297q58 136 161 243q99 104 233 166q133 62 273 62q131 0 238 -39q104 -38 187 -101q82 -62 134 -138q54 -79 76 -153l-144 -20q-24 62 -65 115q-43 57 -105 102q-64 47 -141 73
q-79 27 -180 27q-110 0 -216 -50q-102 -48 -187 -136q-82 -85 -132 -202q-49 -114 -49 -246q0 -135 49 -249q50 -117 132 -202q83 -86 187 -135t216 -49q108 0 192 28q86 29 151 77q67 50 112 111q48 65 77 132l144 -21q-29 -86 -88 -171q-56 -82 -143 -147
q-87 -66 -196 -104q-108 -38 -249 -38zM850 1935l246 -317h-123l-164 205h-10l-164 -205h-123l246 317h92z" />
    <glyph glyph-name="ccircumflex" unicode="&#x109;" horiz-adv-x="1054" 
d="M553 -41q-97 0 -183 40q-90 42 -154 109q-67 70 -105 161q-39 93 -39 202q0 107 39 201t105 163q63 65 154 108q86 40 183 40q86 0 159 -25q72 -25 124 -63t87 -89q33 -47 50 -99l-133 -31q-11 32 -35 67q-22 32 -59 60t-83 42q-48 15 -110 15q-68 0 -132 -29
q-65 -29 -111 -80q-49 -54 -77 -124q-28 -71 -28 -156t28 -156q28 -70 77 -124q46 -51 111 -80q64 -29 132 -29q131 0 209 66q77 65 108 159l134 -31q-16 -59 -53 -118q-39 -61 -92 -102q-56 -43 -133 -70q-76 -27 -173 -27zM604 1485l246 -318h-123l-164 205h-10l-164 -205
h-123l246 318h92z" />
    <glyph glyph-name="Ccaron" unicode="&#x10c;" horiz-adv-x="1546" 
d="M809 -61q-142 0 -273 61q-134 62 -233 166q-102 106 -161 244q-60 140 -60 297t60 297q58 136 161 243q99 104 233 166q133 62 273 62q131 0 238 -39q104 -38 187 -101q82 -62 134 -138q54 -79 76 -153l-144 -20q-24 62 -65 115q-43 57 -105 102q-64 47 -141 73
q-79 27 -180 27q-110 0 -216 -50q-102 -48 -187 -136q-82 -85 -132 -202q-49 -114 -49 -246q0 -135 49 -249q50 -117 132 -202q83 -86 187 -135t216 -49q108 0 192 28q86 29 151 77q67 50 112 111q48 65 77 132l144 -21q-29 -86 -88 -171q-56 -82 -143 -147
q-87 -66 -196 -104q-108 -38 -249 -38zM778 1638l-246 318h123l164 -205h10l164 205h123l-246 -318h-92z" />
    <glyph glyph-name="ccaron" unicode="&#x10d;" horiz-adv-x="1054" 
d="M553 -41q-97 0 -183 40q-90 42 -154 109q-67 70 -105 161q-39 93 -39 202q0 107 39 201t105 163q63 65 154 108q86 40 183 40q86 0 159 -25q72 -25 124 -63t87 -89q33 -47 50 -99l-133 -31q-11 32 -35 67q-22 32 -59 60t-83 42q-48 15 -110 15q-68 0 -132 -29
q-65 -29 -111 -80q-49 -54 -77 -124q-28 -71 -28 -156t28 -156q28 -70 77 -124q46 -51 111 -80q64 -29 132 -29q131 0 209 66q77 65 108 159l134 -31q-16 -59 -53 -118q-39 -61 -92 -102q-56 -43 -133 -70q-76 -27 -173 -27zM502 1167l-246 318h123l164 -205h10l164 205h123
l-246 -318h-92z" />
    <glyph glyph-name="Dcaron" unicode="&#x10e;" horiz-adv-x="1413" 
d="M1188 707q0 128 -43 232q-43 105 -121 181q-77 76 -190 118q-112 42 -250 42h-287v-1147h287q138 0 250 42q113 42 190 118q78 76 121 181q43 104 43 233zM1331 707q0 -152 -53 -284q-52 -129 -152 -223q-102 -96 -236 -147q-139 -53 -306 -53h-430v1413h430
q167 0 306 -53q134 -51 236 -147q100 -94 152 -223q53 -132 53 -283zM614 1608l-245 317h123l163 -205h11l163 205h123l-245 -317h-93z" />
    <glyph glyph-name="dcaron" unicode="&#x10f;" horiz-adv-x="1228" 
d="M850 635q-29 59 -78 113q-40 40 -100 76t-140 36q-64 0 -124 -27q-59 -26 -105 -79q-45 -51 -72 -123q-26 -69 -26 -160t26 -160q27 -72 72 -123t105 -78q62 -28 124 -28q79 0 140 35q59 34 100 78q50 53 78 112v328zM983 0h-133v133h-10q-28 -48 -78 -88
q-38 -31 -100 -59q-60 -27 -140 -27q-86 0 -170 38q-81 37 -144 106q-61 66 -99 163q-37 93 -37 205t37 205q38 97 99 163q63 69 144 106q84 38 170 38q78 0 140 -28q59 -26 100 -60q51 -41 78 -86h10v604h133v-1413zM1085 1341q0 39 27 66t66 27q38 0 65 -27t27 -66
q0 -14 -5 -31q-3 -11 -12 -26q-3 -6 -8 -14.5t-6 -9.5l-102 -175h-62l62 175q-17 8 -27 18q-8 8 -17 26q-8 16 -8 37z" />
    <glyph glyph-name="Dcroat" unicode="&#x110;" horiz-adv-x="1464" 
d="M1382 707q0 -152 -53 -284q-52 -130 -151 -223q-102 -96 -237 -147q-139 -53 -306 -53h-430v645h-164v133h164v635h430q167 0 306 -53q135 -51 237 -147q99 -93 151 -223q53 -132 53 -283zM1239 707q0 128 -43 232q-43 105 -121 181q-77 76 -190 118q-112 42 -250 42
h-287v-502h348v-133h-348v-512h287q137 0 250 42t190 118q78 76 121 181q43 104 43 233z" />
    <glyph glyph-name="dcroat" unicode="&#x111;" horiz-adv-x="1146" 
d="M983 1239h143v-123h-143v-1116h-133v133h-10q-28 -48 -78 -88q-38 -31 -100 -59q-60 -27 -140 -27q-86 0 -170 38q-81 37 -144 106q-61 66 -99 163q-37 93 -37 205t37 205q38 97 99 163q63 69 144 106q84 38 170 38q78 0 140 -28q59 -26 100 -60q51 -41 78 -86h10v307
h-256v123h256v174h133v-174zM850 635q-29 59 -78 113q-40 40 -100 76t-140 36q-64 0 -124 -27q-59 -26 -105 -79q-45 -51 -72 -123q-26 -69 -26 -160t26 -160q27 -72 72 -123t105 -78q62 -28 124 -28q79 0 140 35q59 34 100 78q50 53 78 112v328z" />
    <glyph glyph-name="Emacron" unicode="&#x112;" horiz-adv-x="1208" 
d="M1167 133v-133h-1013v1413h1013v-133h-870v-502h686v-133h-686v-512h870zM420 1782h502v-123h-502v123z" />
    <glyph glyph-name="emacron" unicode="&#x113;" horiz-adv-x="1075" 
d="M543 983q94 0 181 -38q85 -37 149 -106q67 -71 103 -163q38 -96 38 -205l-62 -61h-747q7 -66 37 -129t74 -104q46 -43 107 -69t130 -26q73 0 123 17q55 19 93 47q39 29 67 69q25 37 41 82l133 -27q-16 -55 -56 -115q-37 -57 -94 -100q-53 -40 -134 -69q-76 -27 -171 -27
q-98 0 -188 38q-88 37 -154 106q-65 68 -103 163q-38 96 -38 205t38 205q37 94 102 163q64 69 149 106q87 38 182 38zM543 860q-67 0 -124 -25q-58 -25 -104 -70q-45 -43 -73 -103q-30 -62 -37 -130h676q-7 68 -37 130q-28 58 -74 103q-47 46 -103 70q-57 25 -124 25z
M297 1343h502v-122h-502v122z" />
    <glyph glyph-name="Edotaccent" unicode="&#x116;" horiz-adv-x="1208" 
d="M1167 133v-133h-1013v1413h1013v-133h-870v-502h686v-133h-686v-512h870zM563 1731q0 38 27 65t65 27q39 0 66 -27t27 -65q0 -39 -27 -66t-66 -27q-38 0 -65 27t-27 66z" />
    <glyph glyph-name="edotaccent" unicode="&#x117;" horiz-adv-x="1075" 
d="M543 983q94 0 181 -38q85 -37 149 -106q67 -71 103 -163q38 -96 38 -205l-62 -61h-747q7 -66 37 -129t74 -104q46 -43 107 -69t130 -26q73 0 123 17q55 19 93 47q39 29 67 69q25 37 41 82l133 -27q-16 -55 -56 -115q-37 -57 -94 -100q-53 -40 -134 -69q-76 -27 -171 -27
q-98 0 -188 38q-88 37 -154 106q-65 68 -103 163q-38 96 -38 205t38 205q37 94 102 163q64 69 149 106q87 38 182 38zM543 860q-67 0 -124 -25q-58 -25 -104 -70q-45 -43 -73 -103q-30 -62 -37 -130h676q-7 68 -37 130q-28 58 -74 103q-47 46 -103 70q-57 25 -124 25z
M461 1282q0 40 26 66t66 26q39 0 65 -26q27 -27 27 -66q0 -38 -27 -65t-65 -27q-39 0 -66 27q-26 26 -26 65z" />
    <glyph glyph-name="Eogonek" unicode="&#x118;" horiz-adv-x="1208" 
d="M1034 -471q-48 0 -86 16q-39 17 -67 43q-28 27 -45 62q-17 36 -17 74q0 70 36 123t81 87q52 39 119 66h-901v1413h1013v-133h-870v-502h686v-133h-686v-512h870v-133h-10q-72 -29 -119 -63q-44 -32 -81 -80q-35 -45 -35 -113q0 -48 32 -80q33 -33 80 -33q41 0 74 15
q12 6 29 16l30 -92q-21 -15 -37 -21q-20 -9 -40 -14q-24 -6 -56 -6z" />
    <glyph glyph-name="eogonek" unicode="&#x119;" horiz-adv-x="1075" 
d="M625 -471q-48 0 -86 16q-41 17 -68 43q-28 27 -45 62q-16 33 -16 74q0 44 14 79q15 36 36 67q20 28 49 51q25 19 52 38h-6q-98 0 -188 38q-88 37 -154 106q-65 68 -103 163q-38 96 -38 205t38 205q37 94 102 163q64 69 149 106q87 38 182 38q94 0 181 -38
q85 -37 149 -106q67 -71 103 -163q38 -96 38 -205l-62 -61h-747q7 -66 37 -129t74 -104q46 -43 107 -69t130 -26q73 0 123 17q55 19 93 47q39 29 67 69q25 37 41 82l133 -27q-28 -95 -109 -179q-80 -83 -209 -116q-31 -14 -57 -32q-34 -24 -58 -49q-30 -32 -47 -67
q-18 -37 -18 -83q0 -47 33 -80t80 -33q40 0 73 15q12 6 29 16l31 -92q-21 -15 -37 -21q-18 -8 -41 -14q-24 -6 -55 -6zM543 860q-67 0 -124 -25q-58 -25 -104 -70q-44 -42 -73 -104q-30 -63 -37 -129h676q-7 66 -37 129q-29 60 -74 104q-47 46 -103 70q-57 25 -124 25z" />
    <glyph glyph-name="Ecaron" unicode="&#x11a;" horiz-adv-x="1208" 
d="M1167 133v-133h-1013v1413h1013v-133h-870v-502h686v-133h-686v-512h870zM614 1608l-245 317h123l163 -205h11l163 205h123l-245 -317h-93z" />
    <glyph glyph-name="ecaron" unicode="&#x11b;" horiz-adv-x="1075" 
d="M543 983q94 0 181 -38q85 -37 149 -106q67 -71 103 -163q38 -96 38 -205l-62 -61h-747q7 -66 37 -129t74 -104q46 -43 107 -69t130 -26q73 0 123 17q55 19 93 47q39 29 67 69q25 37 41 82l133 -27q-16 -55 -56 -115q-37 -57 -94 -100q-53 -40 -134 -69q-76 -27 -171 -27
q-98 0 -188 38q-88 37 -154 106q-65 68 -103 163q-38 96 -38 205t38 205q37 94 102 163q64 69 149 106q87 38 182 38zM543 860q-67 0 -124 -25q-58 -25 -104 -70q-45 -43 -73 -103q-30 -62 -37 -130h676q-7 68 -37 130q-28 58 -74 103q-47 46 -103 70q-57 25 -124 25z
M502 1167l-246 318h123l164 -205h10l164 205h123l-246 -318h-92z" />
    <glyph glyph-name="Gbreve" unicode="&#x11e;" horiz-adv-x="1587" 
d="M809 72q114 0 216 42q100 41 176 111q74 68 118 158q43 87 43 180h-471v133h614v-61q0 -152 -52 -278q-53 -129 -145 -221q-91 -91 -222 -145q-126 -52 -277 -52q-143 0 -274 60q-132 61 -232 165q-102 106 -161 244q-60 140 -60 299t60 299q58 136 161 243
q100 104 232 165q133 61 274 61q131 0 238 -39q104 -38 187 -101q82 -62 134 -138q54 -79 76 -153l-144 -20q-24 62 -65 115q-43 57 -105 102q-64 47 -141 73q-79 27 -180 27q-110 0 -216 -50q-102 -48 -187 -136q-82 -85 -132 -202q-49 -114 -49 -246q0 -135 49 -249
q50 -117 132 -202q83 -86 187 -135t216 -49zM819 1761q69 0 112 41q42 40 42 103h112q0 -118 -74 -192q-75 -75 -192 -75q-116 0 -191 75t-75 192h113q0 -63 42 -103q43 -41 111 -41z" />
    <glyph glyph-name="gbreve" unicode="&#x11f;" 
d="M983 10q0 -96 -33 -177q-33 -80 -90 -139q-57 -58 -136 -91q-80 -33 -171 -33t-158 22q-69 22 -122 62q-52 38 -87 89q-35 50 -53 103l133 31q29 -76 98 -131q67 -53 189 -53q132 0 214 85q83 86 83 232v164h-10q-28 -48 -78 -88q-38 -31 -100 -59q-60 -27 -140 -27
q-86 0 -170 38q-79 36 -144 104q-59 62 -99 156q-37 87 -37 194q0 106 37 193q40 94 99 156q65 68 144 104q84 38 170 38q78 0 140 -28q59 -26 100 -60q51 -41 78 -86h10v133h133v-932zM850 635q-29 59 -78 113q-40 40 -100 76t-140 36q-64 0 -124 -27q-59 -27 -105 -77
q-45 -50 -72 -117q-26 -65 -26 -147q0 -83 26 -148q27 -68 72 -117q44 -49 105 -76q62 -28 124 -28q79 0 140 35q59 34 100 78q50 53 78 112v287zM532 1290q69 0 112 41q42 41 42 103h113q0 -117 -75 -192t-192 -75q-116 0 -191 75t-75 192h113q0 -62 42 -103
q43 -41 111 -41z" />
    <glyph glyph-name="Gcommaaccent" unicode="&#x122;" horiz-adv-x="1587" 
d="M809 72q114 0 216 42q100 41 176 111q74 68 118 158q43 87 43 180h-471v133h614v-61q0 -152 -52 -278q-53 -129 -145 -221q-91 -91 -222 -145q-126 -52 -277 -52q-143 0 -274 60q-132 61 -232 165q-102 106 -161 244q-60 140 -60 299t60 299q58 136 161 243
q100 104 232 165q133 61 274 61q131 0 238 -39q104 -38 187 -101q82 -62 134 -138q54 -79 76 -153l-144 -20q-24 62 -65 115q-43 57 -105 102q-64 47 -141 73q-79 27 -180 27q-110 0 -216 -50q-102 -48 -187 -136q-82 -85 -132 -202q-49 -114 -49 -246q0 -135 49 -249
q50 -117 132 -202q83 -86 187 -135t216 -49zM737 -307q0 38 27 65t65 27q39 0 66 -27t27 -65q0 -12 -6 -32q-4 -14 -11 -26q-3 -6 -8 -14.5t-6 -9.5l-103 -174h-61l61 174q-15 7 -26 18q-10 10 -18 26q-7 14 -7 38z" />
    <glyph glyph-name="gcommaaccent" unicode="&#x123;" 
d="M655 1270q0 -40 -26 -66t-66 -26q-39 0 -65 26q-27 27 -27 66q0 28 14 55q2 3 5.5 8t6.5 10t5 9l102 174h62l-62 -174q12 -6 25 -19q11 -11 18 -25q8 -16 8 -38zM983 10q0 -96 -33 -177q-33 -80 -90 -139q-57 -58 -136 -91q-80 -33 -171 -33t-158 22q-69 22 -122 62
q-52 38 -87 89q-35 50 -53 103l133 31q29 -76 98 -131q67 -53 189 -53q132 0 214 85q83 86 83 232v164h-10q-28 -48 -78 -88q-38 -31 -100 -59q-60 -27 -140 -27q-86 0 -170 38q-79 36 -144 104q-59 62 -99 156q-37 87 -37 194q0 106 37 193q40 94 99 156q65 68 144 104
q84 38 170 38q78 0 140 -28q59 -26 100 -60q51 -41 78 -86h10v133h133v-932zM850 635q-29 59 -78 113q-40 40 -100 76t-140 36q-64 0 -124 -27q-59 -27 -105 -77q-45 -50 -72 -117q-26 -65 -26 -147q0 -83 26 -148q27 -68 72 -117q44 -49 105 -76q62 -28 124 -28
q79 0 140 35q59 34 100 78q50 53 78 112v287z" />
    <glyph glyph-name="Imacron" unicode="&#x12a;" horiz-adv-x="501" 
d="M328 0h-144v1413h144v-1413zM2 1761h502v-123h-502v123z" />
    <glyph glyph-name="imacron" unicode="&#x12b;" horiz-adv-x="378" 
d="M-59 1354h501v-123h-501v123zM256 0h-133v942h133v-942z" />
    <glyph glyph-name="Iogonek" unicode="&#x12e;" horiz-adv-x="481" 
d="M195 -471q-48 0 -86 16q-41 17 -68 43q-28 27 -45 62q-16 33 -16 74q0 72 35 123q36 53 81 87q52 39 119 66h-41v1413h143v-1413q-70 -29 -118 -63q-44 -32 -81 -80q-36 -46 -36 -113q0 -47 33 -80t80 -33q40 0 73 15q12 6 29 16l31 -92q-21 -15 -37 -21q-18 -8 -41 -14
q-24 -6 -55 -6z" />
    <glyph glyph-name="iogonek" unicode="&#x12f;" horiz-adv-x="423" 
d="M154 -471q-48 0 -86 16q-41 17 -68 43q-28 27 -45 62q-16 33 -16 74q0 72 35 123q36 53 81 87q52 39 119 66h-31v942h133v-942q-70 -29 -118 -63q-44 -32 -81 -80q-36 -46 -36 -113q0 -47 33 -80t80 -33q40 0 73 15q12 6 29 16l31 -92q-21 -15 -37 -21q-18 -8 -41 -14
q-24 -6 -55 -6zM117 1331q0 40 26 66t66 26q39 0 65 -26q27 -27 27 -66q0 -38 -27 -65t-65 -27q-39 0 -66 27q-26 26 -26 65z" />
    <glyph glyph-name="Idotaccent" unicode="&#x130;" horiz-adv-x="471" 
d="M307 0h-143v1413h143v-1413zM143 1720q0 39 27 66q26 26 66 26q39 0 65 -26q27 -27 27 -66q0 -38 -27 -65t-65 -27q-39 0 -66 27t-27 65z" />
    <glyph glyph-name="dotlessi" unicode="&#x131;" horiz-adv-x="378" 
d="M256 0h-133v942h133v-942z" />
    <glyph glyph-name="Kcommaaccent" unicode="&#x136;" horiz-adv-x="1269" 
d="M594 758l-297 -307v-451h-143v1413h143v-778l747 778h185l-533 -553l553 -860h-164zM553 -256q0 39 27 66q26 26 65 26q40 0 66 -26t26 -66q0 -15 -5 -32q-4 -12 -11 -25q-2 -4 -14 -25l-103 -174h-61l61 174q-13 6 -26 19q-11 11 -18 25t-7 38z" />
    <glyph glyph-name="kcommaaccent" unicode="&#x137;" horiz-adv-x="972" 
d="M266 0h-133v1413h133v-973l492 502h164l-349 -358l390 -584h-144l-327 492h-11l-215 -216v-276zM451 -256q0 40 26 66t66 26q39 0 65 -26q27 -27 27 -66q0 -15 -5 -32q-3 -8 -12 -25q-2 -4 -14 -25l-102 -174h-62l62 174q-15 7 -27 19q-9 9 -17 25q-7 14 -7 38z" />
    <glyph glyph-name="Lacute" unicode="&#x139;" horiz-adv-x="1136" 
d="M297 133h819v-133h-962v1413h143v-1280zM532 1731l-337 -144l-41 82l317 184z" />
    <glyph glyph-name="lacute" unicode="&#x13a;" horiz-adv-x="471" 
d="M184 1290h-164v123h297v-1413h-133v1290zM481 1761l-338 -143l-41 82l318 184z" />
    <glyph glyph-name="Lcommaaccent" unicode="&#x13b;" horiz-adv-x="1136" 
d="M297 133h819v-133h-962v1413h143v-1280zM563 -287q0 39 27 66q26 26 65 26q40 0 66 -26q27 -27 27 -66q0 -11 -6 -31q-4 -14 -11 -26q-2 -4 -14 -25l-103 -174h-61l61 174q-13 6 -26 19q-11 11 -18 25t-7 38z" />
    <glyph glyph-name="lcommaaccent" unicode="&#x13c;" horiz-adv-x="491" 
d="M184 1290h-164v123h297v-1413h-133v1290zM164 -236q0 40 26 66q27 27 66 27t66 -27q26 -26 26 -66q0 -14 -5 -31q-4 -14 -11 -26q-3 -6 -8.5 -14t-6.5 -10l-102 -175h-61l61 175q-17 7 -27 18q-8 8 -17 26q-7 14 -7 37z" />
    <glyph glyph-name="Lcaron" unicode="&#x13d;" horiz-adv-x="1136" 
d="M297 133h819v-133h-962v1413h143v-1280zM461 1341q0 40 26 66q27 27 66 27q38 0 65 -27t27 -66q0 -14 -5 -31q-4 -14 -11 -26q-3 -6 -8.5 -14t-6.5 -10l-102 -175h-61l61 175q-16 8 -27 18q-8 8 -17 26q-7 14 -7 37z" />
    <glyph glyph-name="lcaron" unicode="&#x13e;" horiz-adv-x="563" 
d="M184 1290h-164v123h297v-1413h-133v1290zM420 1343q0 40 26 66q27 27 66 27t66 -27q26 -26 26 -66q0 -14 -5 -31q-4 -14 -11 -26q-3 -6 -8.5 -14t-6.5 -10l-102 -175h-61l61 175q-17 8 -27 18q-8 8 -17 26q-7 14 -7 37z" />
    <glyph glyph-name="Lslash" unicode="&#x141;" horiz-adv-x="1198" 
d="M358 819l267 123v-133l-267 -123v-553h820v-133h-963v625l-174 -82v133l174 82v655h143v-594z" />
    <glyph glyph-name="lslash" unicode="&#x142;" horiz-adv-x="491" 
d="M0 625l174 82v583h-164v123h297v-645l185 82v-143l-185 -82v-625h-133v563l-174 -82v144z" />
    <glyph glyph-name="Nacute" unicode="&#x143;" horiz-adv-x="1423" 
d="M1116 246h10v1167h144v-1413h-154l-809 1167h-10v-1167h-143v1413h153zM952 1772l-338 -144l-41 82l318 184z" />
    <glyph glyph-name="nacute" unicode="&#x144;" horiz-adv-x="1085" 
d="M973 0h-133v553q0 147 -75 227t-192 80q-77 0 -136 -36q-60 -37 -99 -76q-48 -53 -82 -113v-635h-133v942h133v-133h10q32 45 82 86q40 33 99 60q61 28 137 28q83 0 155 -30t124 -85q53 -56 81 -135q29 -81 29 -180v-553zM758 1331l-338 -143l-41 82l317 184z" />
    <glyph glyph-name="Ncommaaccent" unicode="&#x145;" horiz-adv-x="1423" 
d="M1116 246h10v1167h144v-1413h-154l-809 1167h-10v-1167h-143v1413h153zM635 -276q0 39 26 65q27 27 66 27t66 -27q26 -26 26 -65q0 -15 -5 -32q-4 -14 -11 -26q-3 -6 -8.5 -14t-6.5 -10l-102 -174h-61l61 174q-16 8 -27 18q-8 8 -17 26q-7 14 -7 38z" />
    <glyph glyph-name="ncommaaccent" unicode="&#x146;" horiz-adv-x="1085" 
d="M973 0h-133v553q0 147 -75 227t-192 80q-77 0 -136 -36q-60 -37 -99 -76q-48 -53 -82 -113v-635h-133v942h133v-133h10q32 45 82 86q40 33 99 60q61 28 137 28q83 0 155 -30t124 -85q53 -56 81 -135q29 -81 29 -180v-553zM461 -256q0 40 26 66t66 26q39 0 65 -26
q27 -27 27 -66q0 -15 -5 -32q-4 -12 -11 -25q-3 -6 -8.5 -14.5t-6.5 -10.5l-102 -174h-61l61 174q-15 7 -27 19q-9 9 -17 25q-7 14 -7 38z" />
    <glyph glyph-name="Ncaron" unicode="&#x147;" horiz-adv-x="1423" 
d="M1116 246h10v1167h144v-1413h-154l-809 1167h-10v-1167h-143v1413h153zM686 1618l-246 317h123l164 -204h10l164 204h123l-246 -317h-92z" />
    <glyph glyph-name="ncaron" unicode="&#x148;" horiz-adv-x="1085" 
d="M973 0h-133v553q0 147 -75 227t-192 80q-77 0 -136 -36q-60 -37 -99 -76q-48 -53 -82 -113v-635h-133v942h133v-133h10q32 45 82 86q40 33 99 60q61 28 137 28q83 0 155 -30t124 -85q53 -56 81 -135q29 -81 29 -180v-553zM512 1178l-246 317h123l164 -205h10l164 205h123
l-246 -317h-92z" />
    <glyph glyph-name="Omacron" unicode="&#x14c;" horiz-adv-x="1658" 
d="M82 707q0 155 60 294t164 245q104 105 239 167q136 62 284 62q149 0 285 -62q137 -62 239 -166q106 -107 164 -243q60 -140 60 -297t-60 -297q-59 -138 -164 -244q-102 -104 -239 -166q-134 -61 -285 -61q-150 0 -284 61q-137 62 -239 166q-105 106 -164 244
q-60 140 -60 297zM1434 707q0 127 -51 246q-49 115 -133 202t-192 136q-111 50 -229 50q-117 0 -228 -50q-108 -49 -192 -136q-85 -88 -134 -202q-50 -117 -50 -246q0 -130 50 -247q49 -114 134 -202q84 -87 192 -136q111 -50 228 -50q118 0 229 50q108 49 192 136t133 202
q51 119 51 247zM594 1823h502v-123h-502v123z" />
    <glyph glyph-name="omacron" unicode="&#x14d;" horiz-adv-x="1126" 
d="M1055 471q0 -109 -38 -205q-36 -91 -105 -163q-65 -68 -155 -106t-194 -38q-103 0 -193 38q-92 39 -156 106q-67 70 -104 163q-38 96 -38 205t38 205q37 93 104 163q64 67 156 106q90 38 193 38q104 0 194 -38t155 -106q69 -72 105 -163q38 -96 38 -205zM922 471
q0 83 -29 156q-28 71 -78 124q-48 51 -114 80t-138 29t-138 -29t-114 -80q-50 -53 -78 -124t-28 -156t28 -156t78 -124q48 -51 115 -80t137 -29q72 0 138 29t114 80q50 53 78 124q29 73 29 156zM328 1354h501v-123h-501v123z" />
    <glyph glyph-name="Ohungarumlaut" unicode="&#x150;" horiz-adv-x="1658" 
d="M82 707q0 155 60 294t164 245q104 105 239 167q136 62 284 62q149 0 285 -62q137 -62 239 -166q106 -107 164 -243q60 -140 60 -297t-60 -297q-59 -138 -164 -244q-102 -104 -239 -166q-134 -61 -285 -61q-150 0 -284 61q-137 62 -239 166q-105 106 -164 244
q-60 140 -60 297zM1434 707q0 127 -51 246q-49 115 -133 202t-192 136q-111 50 -229 50q-117 0 -228 -50q-108 -49 -192 -136q-85 -88 -134 -202q-50 -117 -50 -246q0 -130 50 -247q49 -114 134 -202q84 -87 192 -136q111 -50 228 -50q118 0 229 50q108 49 192 136t133 202
q51 119 51 247zM788 1935h123l-174 -307h-92zM1075 1935h123l-174 -307h-92z" />
    <glyph glyph-name="ohungarumlaut" unicode="&#x151;" horiz-adv-x="1126" 
d="M1055 471q0 -109 -38 -205q-36 -91 -105 -163q-65 -68 -155 -106t-194 -38q-103 0 -193 38q-92 39 -156 106q-67 70 -104 163q-38 96 -38 205t38 205q37 93 104 163q64 67 156 106q90 38 193 38q104 0 194 -38t155 -106q69 -72 105 -163q38 -96 38 -205zM922 471
q0 83 -29 156q-28 71 -78 124q-48 51 -114 80t-138 29t-138 -29t-114 -80q-50 -53 -78 -124t-28 -156t28 -156t78 -124q48 -51 115 -80t137 -29q72 0 138 29t114 80q50 53 78 124q29 73 29 156zM512 1454h123l-174 -307h-92zM799 1454h123l-174 -307h-93z" />
    <glyph glyph-name="OE" unicode="&#x152;" horiz-adv-x="2048" 
d="M2007 133v-133h-1188q-165 0 -301 53q-132 51 -232 147q-99 95 -151 223q-53 132 -53 284q0 151 53 283q52 128 151 223q100 96 232 147q136 53 301 53h1188v-133h-829v-502h645v-133h-645v-512h829zM225 707q0 -128 42 -233q42 -104 120 -181q77 -76 187 -118t245 -42
h215v1147h-215q-135 0 -245 -42t-187 -118q-78 -77 -120 -181q-42 -105 -42 -232z" />
    <glyph glyph-name="oe" unicode="&#x153;" horiz-adv-x="1853" 
d="M1343 -41q-109 0 -185 35t-122 78q-56 50 -90 112h-8q-39 -61 -98 -112q-50 -44 -123 -78q-75 -35 -174 -35q-95 0 -182 38q-85 37 -149 106q-65 69 -102 163q-38 96 -38 205t38 205q37 94 102 163q64 69 149 106q87 38 182 38q101 0 174 -36q72 -35 123 -77
q58 -52 96 -112h10q38 62 92 112q46 40 120 77q72 36 173 36q91 0 176 -38t147 -106t100 -163q38 -96 38 -205l-61 -61h-727q7 -68 35 -129q26 -58 72 -104q43 -43 102 -69q60 -26 128 -26q72 0 122 17q55 19 90 47q40 32 63 69q24 40 39 82l133 -27q-17 -56 -54 -115
q-35 -55 -92 -100q-52 -41 -130 -69q-75 -27 -169 -27zM881 471q0 83 -29 156q-27 69 -76 124q-45 50 -107 80q-61 29 -126 29t-126 -29q-64 -30 -108 -80q-49 -55 -76 -124q-28 -71 -28 -156t28 -156q27 -69 76 -124q44 -50 108 -80q61 -29 126 -29t126 29q62 30 107 80
q49 55 76 124q29 73 29 156zM1331 860q-62 0 -118 -25q-54 -24 -100 -70t-73 -103q-28 -60 -36 -130h655q-7 68 -37 130q-27 57 -73 103t-100 70q-56 25 -118 25z" />
    <glyph glyph-name="Racute" unicode="&#x154;" horiz-adv-x="1392" 
d="M297 492v-492h-143v1413h634q114 0 208 -35q93 -34 159 -96q66 -61 100 -145q35 -85 35 -185q0 -70 -13 -122q-13 -53 -36 -97q-23 -43 -51 -75q-26 -29 -60 -56q-70 -56 -157 -80l287 -522h-154l-277 492h-532zM788 625q82 0 147 25q67 26 114 70t72 103q26 61 26 129
t-26 129t-72 104q-45 43 -114 69q-67 26 -147 26h-491v-655h491zM881 1761l-338 -143l-41 82l317 184z" />
    <glyph glyph-name="racute" unicode="&#x155;" horiz-adv-x="604" 
d="M604 850h-41q-74 0 -130 -34t-97 -75q-48 -48 -80 -106v-635h-133v942h133v-133h10q31 46 80 86q41 34 97 60q59 28 130 28h31v-133zM584 1331l-338 -143l-41 82l317 184z" />
    <glyph glyph-name="Rcommaaccent" unicode="&#x156;" horiz-adv-x="1392" 
d="M297 492v-492h-143v1413h634q114 0 208 -35q93 -34 159 -96q66 -61 100 -145q35 -85 35 -185q0 -70 -13 -122q-13 -53 -36 -97q-23 -43 -51 -75q-26 -29 -60 -56q-70 -56 -157 -80l287 -522h-154l-277 492h-532zM788 625q82 0 147 25q67 26 114 70t72 103q26 61 26 129
t-26 129t-72 104q-45 43 -114 69q-67 26 -147 26h-491v-655h491zM614 -236q0 39 27 66t66 27q38 0 65 -27t27 -66q0 -14 -5 -31q-3 -11 -12 -26q-3 -6 -8 -14.5t-6 -9.5l-102 -175h-62l62 175q-16 7 -27 18q-8 8 -17 26q-8 16 -8 37z" />
    <glyph glyph-name="rcommaaccent" unicode="&#x157;" horiz-adv-x="634" 
d="M614 850h-41q-74 0 -130 -34t-97 -75q-48 -48 -80 -106v-635h-133v942h133v-133h10q31 46 80 86q40 32 98 60q59 28 130 28h30v-133zM123 -276q0 39 26 65q27 27 66 27t66 -27q26 -26 26 -65q0 -15 -5 -32q-4 -14 -11 -26q-3 -6 -8.5 -14t-6.5 -10l-102 -174h-61l61 174
q-16 8 -27 18q-8 8 -17 26q-7 14 -7 38z" />
    <glyph glyph-name="Rcaron" unicode="&#x158;" horiz-adv-x="1392" 
d="M297 492v-492h-143v1413h634q114 0 208 -35q93 -34 159 -96q66 -61 100 -145q35 -85 35 -185q0 -70 -13 -122q-13 -53 -36 -97q-23 -43 -51 -75q-26 -29 -60 -56q-70 -56 -157 -80l287 -522h-154l-277 492h-532zM788 625q82 0 147 25q67 26 114 70t72 103q26 61 26 129
t-26 129t-72 104q-45 43 -114 69q-67 26 -147 26h-491v-655h491zM625 1597l-246 318h123l164 -205h10l164 205h123l-246 -318h-92z" />
    <glyph glyph-name="rcaron" unicode="&#x159;" horiz-adv-x="624" 
d="M614 850h-41q-74 0 -130 -34t-97 -75q-48 -48 -80 -106v-635h-133v942h133v-133h10q31 46 80 86q40 32 98 60q59 28 130 28h30v-133zM348 1167l-246 318h123l164 -205h10l164 205h123l-246 -318h-92z" />
    <glyph glyph-name="Sacute" unicode="&#x15a;" horiz-adv-x="1259" 
d="M1034 369q0 68 -38 115q-36 45 -101 79q-62 33 -143 57q-53 16 -163 48q-75 22 -163 55q-79 30 -143 77q-66 49 -102 112q-38 67 -38 163q0 76 35 149q35 72 101 128q65 54 158 89q92 34 208 34q109 0 198 -29q83 -27 152 -79q65 -49 111 -118t72 -143l-144 -31
q-30 67 -60 111q-36 51 -80 84q-48 35 -108 53q-62 18 -141 18q-85 0 -150 -22t-113 -61q-47 -38 -71 -86t-24 -97q0 -92 65 -144t165 -88q107 -39 215 -67q112 -29 215 -79q98 -48 165 -125q66 -76 66 -203q0 -85 -37 -162q-37 -76 -108 -137q-71 -60 -171 -96
q-98 -35 -227 -35q-121 0 -213 32q-96 33 -166 89q-71 57 -120 134t-75 164l144 21q27 -67 65 -122t92 -97q53 -41 121 -65q65 -23 152 -23q96 0 171 24q74 24 125 67q50 42 77 95q26 51 26 111zM870 1792l-338 -143l-40 82l317 184z" />
    <glyph glyph-name="sacute" unicode="&#x15b;" horiz-adv-x="942" 
d="M113 707q0 53 24 103t73 88q46 36 119 61q71 24 163 24q80 0 145 -22q62 -21 115 -58q48 -33 81 -76q32 -41 48 -79l-133 -21q-12 16 -38 46q-17 20 -53 43q-31 20 -71 32q-41 12 -94 12q-65 0 -108 -14q-47 -15 -77 -36q-31 -22 -46 -49t-15 -54q0 -59 47 -89
q46 -29 118 -51q66 -20 152 -40q80 -19 153 -50q71 -30 118 -83t47 -138q0 -58 -27 -111q-28 -54 -79 -95q-53 -43 -128 -66q-80 -25 -176 -25q-85 0 -160 25q-74 25 -125 64q-54 42 -90 92t-55 106l133 20q15 -35 40 -67q27 -35 62 -60q38 -27 85 -42q48 -15 110 -15
q70 0 121 15t86 41q32 24 52 57q18 30 18 61q0 54 -48 87q-45 31 -117 52q-62 19 -153 40q-78 18 -152 50q-71 30 -118 82t-47 140zM686 1311l-338 -144l-41 82l318 185z" />
    <glyph glyph-name="Scedilla" unicode="&#x15e;" horiz-adv-x="1259" 
d="M1034 369q0 68 -38 115q-36 45 -101 79q-62 33 -143 57q-53 16 -163 48q-75 22 -163 55q-79 30 -143 77q-66 49 -102 112q-38 67 -38 163q0 76 35 149q35 72 101 128q65 54 158 89q92 34 208 34q109 0 198 -29q83 -27 152 -79q65 -49 111 -118t72 -143l-144 -31
q-30 67 -60 111q-36 51 -80 84q-48 35 -108 53q-62 18 -141 18q-85 0 -150 -22t-113 -61q-47 -38 -71 -86t-24 -97q0 -92 65 -144t165 -88q107 -39 215 -67q112 -29 215 -79q98 -48 165 -125q66 -76 66 -203q0 -76 -31 -149q-30 -71 -89 -128q-58 -57 -144 -96t-191 -51
l-37 -99q39 -11 66 -32q27 -23 46 -55q21 -35 21 -87q0 -87 -56 -140q-57 -54 -149 -54q-42 0 -69 10q-30 11 -51 25q-30 20 -43 36l61 72q11 -13 27 -20q26 -13 32 -15q18 -6 43 -6q48 0 75 27q28 28 28 65q0 38 -28 66q-26 26 -75 26h-71l73 175q-116 2 -205 35
q-94 35 -161 91q-72 59 -116 132q-46 76 -73 161l144 21q27 -67 65 -122t92 -97q53 -41 121 -65q65 -23 152 -23q96 0 171 24q74 24 125 67q50 42 77 95q26 51 26 111z" />
    <glyph glyph-name="scedilla" unicode="&#x15f;" horiz-adv-x="942" 
d="M113 707q0 53 24 103t73 88q46 36 119 61q71 24 163 24q80 0 145 -22q62 -21 115 -58q48 -33 81 -76q32 -41 48 -79l-133 -21q-12 16 -38 46q-17 20 -53 43q-31 20 -71 32q-41 12 -94 12q-65 0 -108 -14q-47 -15 -77 -36q-31 -22 -46 -49t-15 -54q0 -59 47 -89
q46 -29 118 -51q66 -20 152 -40q80 -19 153 -50q71 -30 118 -83t47 -138q0 -51 -23 -102q-22 -49 -65 -89t-108 -67q-66 -28 -146 -35l-37 -96q36 -10 65 -33q28 -25 46 -54q22 -36 22 -87q0 -87 -56 -140q-58 -55 -149 -55q-43 0 -70 10q-30 11 -51 25q-27 19 -43 37l62 72
q13 -15 26 -21q18 -9 33 -14q18 -6 43 -6q49 0 75 26q27 27 27 66q0 38 -27 65t-75 27h-72l74 176q-78 6 -144 32q-67 26 -114 65q-49 40 -82 88q-32 47 -51 100l133 20q15 -35 40 -67q27 -35 62 -60q38 -27 85 -42q48 -15 110 -15q70 0 121 15t86 41q32 24 52 57
q18 30 18 61q0 54 -48 87q-45 31 -117 52q-62 19 -153 40q-78 18 -152 50q-71 30 -118 82t-47 140z" />
    <glyph glyph-name="Scaron" unicode="&#x160;" horiz-adv-x="1259" 
d="M1034 369q0 68 -38 115q-36 45 -101 79q-62 33 -143 57q-53 16 -163 48q-75 22 -163 55q-79 30 -143 77q-66 49 -102 112q-38 67 -38 163q0 76 35 149q35 72 101 128q65 54 158 89q92 34 208 34q109 0 198 -29q83 -27 152 -79q65 -49 111 -118t72 -143l-144 -31
q-30 67 -60 111q-36 51 -80 84q-48 35 -108 53q-62 18 -141 18q-85 0 -150 -22t-113 -61q-47 -38 -71 -86t-24 -97q0 -92 65 -144t165 -88q107 -39 215 -67q112 -29 215 -79q98 -48 165 -125q66 -76 66 -203q0 -85 -37 -162q-37 -76 -108 -137q-71 -60 -171 -96
q-98 -35 -227 -35q-121 0 -213 32q-96 33 -166 89q-71 57 -120 134t-75 164l144 21q27 -67 65 -122t92 -97q53 -41 121 -65q65 -23 152 -23q96 0 171 24q74 24 125 67q50 42 77 95q26 51 26 111zM604 1628l-246 318h123l164 -205h10l164 205h123l-246 -318h-92z" />
    <glyph glyph-name="scaron" unicode="&#x161;" horiz-adv-x="942" 
d="M113 707q0 53 24 103t73 88q46 36 119 61q71 24 163 24q80 0 145 -22q62 -21 115 -58q48 -33 81 -76q32 -41 48 -79l-133 -21q-12 16 -38 46q-17 20 -53 43q-31 20 -71 32q-41 12 -94 12q-65 0 -108 -14q-47 -15 -77 -36q-31 -22 -46 -49t-15 -54q0 -59 47 -89
q46 -29 118 -51q66 -20 152 -40q80 -19 153 -50q71 -30 118 -83t47 -138q0 -58 -27 -111q-28 -54 -79 -95q-53 -43 -128 -66q-80 -25 -176 -25q-85 0 -160 25q-74 25 -125 64q-54 42 -90 92t-55 106l133 20q15 -35 40 -67q27 -35 62 -60q38 -27 85 -42q48 -15 110 -15
q70 0 121 15t86 41q32 24 52 57q18 30 18 61q0 54 -48 87q-45 31 -117 52q-62 19 -153 40q-78 18 -152 50q-71 30 -118 82t-47 140zM440 1157l-245 318h122l164 -205h11l163 205h123l-246 -318h-92z" />
    <glyph glyph-name="Tcommaaccent" unicode="&#x162;" horiz-adv-x="1187" 
d="M20 1280v133h1147v-133h-501v-1280h-144v1280h-502zM492 -276q0 39 26 65q27 27 66 27q38 0 65 -27t27 -65q0 -15 -5 -32q-3 -11 -12 -26q-3 -6 -8 -14.5t-6 -9.5l-102 -174h-62l62 174q-17 8 -27 18q-8 8 -17 26q-7 14 -7 38z" />
    <glyph glyph-name="tcommaaccent" unicode="&#x163;" horiz-adv-x="686" 
d="M41 942h143v266h133v-266h256v-123h-256v-543q0 -90 48 -143q47 -51 116 -51q32 0 56 6q23 6 41 14q14 5 36 21l31 -123q-24 -13 -47 -20q-34 -12 -52 -15q-30 -6 -65 -6q-132 0 -214 85q-83 86 -83 232v543h-143v123zM328 -307q0 39 26 65q27 27 66 27q38 0 65 -27
t27 -65q0 -15 -5 -32q-4 -14 -11 -26q-3 -6 -8.5 -14t-6.5 -10l-102 -174h-62l62 174q-17 7 -27 18q-8 8 -17 26q-7 14 -7 38z" />
    <glyph glyph-name="Tcaron" unicode="&#x164;" horiz-adv-x="1187" 
d="M20 1280v133h1147v-133h-501v-1280h-144v1280h-502zM532 1618l-245 317h123l163 -204h11l164 204h122l-245 -317h-93z" />
    <glyph glyph-name="tcaron" unicode="&#x165;" horiz-adv-x="737" 
d="M41 942h143v266h133v-266h256v-123h-256v-543q0 -90 48 -143q47 -51 116 -51q32 0 56 6q23 6 41 14q14 5 36 21l31 -123q-24 -13 -47 -20q-34 -12 -52 -15q-30 -6 -65 -6q-132 0 -214 85q-83 86 -83 232v543h-143v123zM594 1331q0 39 27 66q26 26 65 26q40 0 66 -26
t26 -66q0 -15 -5 -32q-4 -12 -11 -25q-2 -4 -14 -25l-103 -174h-61l61 174q-15 7 -27 19q-9 9 -17 25q-7 14 -7 38z" />
    <glyph glyph-name="Umacron" unicode="&#x16a;" horiz-adv-x="1413" 
d="M707 72q88 0 162 31q73 30 130 91q56 59 86 141q31 85 31 187v891h144v-891q0 -135 -40 -242t-114 -184q-72 -75 -175 -116t-224 -41q-122 0 -225 41t-175 116t-113 184q-40 107 -40 242v891h143v-891q0 -102 31 -187q30 -82 86 -141q57 -61 130 -91q74 -31 163 -31z
M471 1772h502v-123h-502v123z" />
    <glyph glyph-name="umacron" unicode="&#x16b;" horiz-adv-x="1095" 
d="M123 942h133v-553q0 -147 75 -227t191 -80q77 0 136 35q61 36 100 78q50 53 82 112v635h133v-942h-133v133h-11q-34 -50 -81 -88q-36 -30 -100 -59q-58 -27 -136 -27q-84 0 -156 30t-124 85q-51 54 -80 135t-29 180v553zM307 1333h502v-123h-502v123z" />
    <glyph glyph-name="Uring" unicode="&#x16e;" horiz-adv-x="1413" 
d="M707 72q88 0 162 31q73 30 130 91q56 59 86 141q31 85 31 187v891h144v-891q0 -135 -40 -242t-114 -184q-72 -75 -175 -116t-224 -41q-122 0 -225 41t-175 116t-113 184q-40 107 -40 242v891h143v-891q0 -102 31 -187q30 -82 86 -141q57 -61 130 -91q74 -31 163 -31z
M512 1782q0 86 59 145q60 60 146 60q85 0 145 -60t60 -145q0 -86 -60 -146q-59 -59 -145 -59q-87 0 -146 59t-59 146zM604 1782q0 -54 33 -88q33 -35 80 -35t80 35q32 33 32 88t-32 88q-33 35 -80 35t-80 -35q-33 -34 -33 -88z" />
    <glyph glyph-name="uring" unicode="&#x16f;" horiz-adv-x="1095" 
d="M123 942h133v-553q0 -147 75 -227t191 -80q77 0 136 35q61 36 100 78q50 53 82 112v635h133v-942h-133v133h-11q-34 -50 -81 -88q-36 -30 -100 -59q-58 -27 -136 -27q-84 0 -156 30t-124 85q-51 54 -80 135t-29 180v553zM348 1290q0 86 60 146q59 59 145 59t145 -59
q60 -60 60 -146q0 -85 -60 -145t-145 -60t-145 60t-60 145zM440 1290q0 -54 33 -88q33 -35 80 -35t80 35q33 34 33 88t-33 88q-33 35 -80 35t-80 -35q-33 -34 -33 -88z" />
    <glyph glyph-name="Uhungarumlaut" unicode="&#x170;" horiz-adv-x="1413" 
d="M707 72q88 0 162 31q73 30 130 91q56 59 86 141q31 85 31 187v891h144v-891q0 -135 -40 -242t-114 -184q-72 -75 -175 -116t-224 -41q-122 0 -225 41t-175 116t-113 184q-40 107 -40 242v891h143v-891q0 -102 31 -187q30 -82 86 -141q57 -61 130 -91q74 -31 163 -31z
M635 1925h123l-174 -307h-92zM922 1925h122l-174 -307h-92z" />
    <glyph glyph-name="uhungarumlaut" unicode="&#x171;" horiz-adv-x="1095" 
d="M123 942h133v-553q0 -147 75 -227t191 -80q77 0 136 35q61 36 100 78q50 53 82 112v635h133v-942h-133v133h-11q-34 -50 -81 -88q-36 -30 -100 -59q-58 -27 -136 -27q-84 0 -156 30t-124 85q-51 54 -80 135t-29 180v553zM481 1475h123l-174 -308h-92zM768 1475h123
l-174 -308h-92z" />
    <glyph glyph-name="Uogonek" unicode="&#x172;" horiz-adv-x="1413" 
d="M788 -471q-48 0 -86 16q-39 17 -67 43q-28 27 -45 62q-17 36 -17 74q0 75 38 128q36 51 85 87q-119 1 -221 44t-172 117q-70 75 -110 183q-39 106 -39 239v891h143v-891q0 -102 31 -187q30 -82 86 -141q57 -61 130 -91q74 -31 163 -31q88 0 162 31q73 30 130 91
q56 59 86 141q31 85 31 187v891h144v-891q0 -121 -33 -220q-34 -102 -92 -173q-60 -73 -143 -120q-80 -45 -185 -62q-47 -29 -90 -81q-41 -50 -41 -122q0 -47 33 -80t79 -33q41 0 74 15q12 6 29 16l31 -92q-21 -15 -37 -21q-18 -8 -41 -14q-24 -6 -56 -6z" />
    <glyph glyph-name="uogonek" unicode="&#x173;" 
d="M850 -471q-48 0 -86 16q-41 17 -68 43q-28 27 -45 62q-16 33 -16 74q0 70 36 123t81 87q53 39 118 66h-30v133h-11q-34 -50 -81 -88q-36 -30 -100 -59q-58 -27 -136 -27q-84 0 -156 30t-124 85q-51 54 -80 135t-29 180v553h133v-553q0 -147 75 -227t191 -80q77 0 136 35
q61 36 100 78q50 53 82 112v635h133v-942q-72 -29 -119 -63q-44 -32 -81 -80q-36 -47 -36 -113q0 -47 33 -80t80 -33q41 0 74 15q9 4 28 16l31 -92q-21 -15 -37 -21q-18 -8 -41 -14q-24 -6 -55 -6z" />
    <glyph glyph-name="Ydieresis" unicode="&#x178;" horiz-adv-x="1310" 
d="M727 471v-471h-143v471l-564 942h160l471 -778h8l471 778h160zM399 1720q0 31 26 57q25 25 56 25q32 0 57 -25t25 -57q0 -31 -25 -56q-26 -26 -57 -26q-30 0 -56 26t-26 56zM748 1720q0 32 25 57t56 25q32 0 57 -25t25 -57q0 -31 -25 -56q-26 -26 -57 -26q-30 0 -56 26
q-25 25 -25 56z" />
    <glyph glyph-name="Zacute" unicode="&#x179;" horiz-adv-x="1218" 
d="M61 143l912 1127v10h-881v133h1055v-143l-911 -1127v-10h921v-133h-1096v143zM870 1802l-338 -143l-40 82l317 184z" />
    <glyph glyph-name="zacute" unicode="&#x17a;" horiz-adv-x="911" 
d="M840 809l-615 -676v-10h635v-123h-809v133l615 676v10h-594v123h768v-133zM686 1321l-338 -143l-41 82l318 184z" />
    <glyph glyph-name="Zdotaccent" unicode="&#x17b;" horiz-adv-x="1218" 
d="M61 143l912 1127v10h-881v133h1055v-143l-911 -1127v-10h921v-133h-1096v143zM532 1751q0 39 27 66q26 26 66 26q39 0 65 -26q27 -27 27 -66q0 -38 -27 -65t-65 -27q-39 0 -66 27t-27 65z" />
    <glyph glyph-name="zdotaccent" unicode="&#x17c;" horiz-adv-x="911" 
d="M840 809l-615 -676v-10h635v-123h-809v133l615 676v10h-594v123h768v-133zM369 1272q0 39 26 65q27 27 66 27q38 0 65 -27t27 -65q0 -39 -27 -66q-26 -26 -65 -26q-40 0 -66 26t-26 66z" />
    <glyph glyph-name="Zcaron" unicode="&#x17d;" horiz-adv-x="1218" 
d="M61 143l912 1127v10h-881v133h1055v-143l-911 -1127v-10h921v-133h-1096v143zM584 1630l-246 318h123l164 -205h10l164 205h123l-246 -318h-92z" />
    <glyph glyph-name="zcaron" unicode="&#x17e;" horiz-adv-x="911" 
d="M840 809l-615 -676v-10h635v-123h-809v133l615 676v10h-594v123h768v-133zM410 1178l-246 317h123l164 -205h10l164 205h123l-246 -317h-92z" />
    <glyph glyph-name="florin" unicode="&#x192;" horiz-adv-x="583" 
d="M41 942h143v174q0 147 83 233q82 85 214 85q30 0 65 -7q25 -5 52 -14q23 -7 47 -20l-31 -123q-19 14 -36 20q-23 11 -41 15q-24 6 -56 6q-69 0 -116 -51q-48 -53 -48 -144v-174h256v-123h-256v-932q0 -146 -83 -232q-82 -85 -214 -85q-34 0 -64 6q-25 5 -52 14
q-18 6 -47 21l30 123q19 -15 35 -21q19 -9 42 -14q25 -6 56 -6q70 0 117 51q47 52 47 143v932h-143v123z" />
    <glyph glyph-name="Scommaaccent" unicode="&#x218;" horiz-adv-x="1259" 
d="M1034 369q0 68 -38 115q-36 45 -101 79q-62 33 -143 57q-53 16 -163 48q-75 22 -163 55q-79 30 -143 77q-66 49 -102 112q-38 67 -38 163q0 76 35 149q35 72 101 128q65 54 158 89q92 34 208 34q109 0 198 -29q83 -27 152 -79q65 -49 111 -118t72 -143l-144 -31
q-30 67 -60 111q-36 51 -80 84q-48 35 -108 53q-62 18 -141 18q-85 0 -150 -22t-113 -61q-47 -38 -71 -86t-24 -97q0 -92 65 -144t165 -88q107 -39 215 -67q112 -29 215 -79q98 -48 165 -125q66 -76 66 -203q0 -85 -37 -162q-37 -76 -108 -137q-71 -60 -171 -96
q-98 -35 -227 -35q-121 0 -213 32q-96 33 -166 89q-71 57 -120 134t-75 164l144 21q27 -67 65 -122t92 -97q53 -41 121 -65q65 -23 152 -23q96 0 171 24q74 24 125 67q50 42 77 95q26 51 26 111zM553 -305q0 38 27 65t65 27q39 0 66 -27q26 -26 26 -65q0 -15 -5 -32
q-4 -14 -11 -26q-3 -6 -8 -14.5t-6 -9.5l-103 -174h-61l61 174q-15 7 -26 18q-10 10 -18 26q-7 14 -7 38z" />
    <glyph glyph-name="scommaaccent" unicode="&#x219;" horiz-adv-x="942" 
d="M113 707q0 53 24 103t73 88q46 36 119 61q71 24 163 24q80 0 145 -22q62 -21 115 -58q48 -33 81 -76q32 -41 48 -79l-133 -21q-12 16 -38 46q-17 20 -53 43q-31 20 -71 32q-41 12 -94 12q-65 0 -108 -14q-47 -15 -77 -36q-31 -22 -46 -49t-15 -54q0 -59 47 -89
q46 -29 118 -51q66 -20 152 -40q80 -19 153 -50q71 -30 118 -83t47 -138q0 -58 -27 -111q-28 -54 -79 -95q-53 -43 -128 -66q-80 -25 -176 -25q-85 0 -160 25q-74 25 -125 64q-54 42 -90 92t-55 106l133 20q15 -35 40 -67q27 -35 62 -60q38 -27 85 -42q48 -15 110 -15
q70 0 121 15t86 41q32 24 52 57q18 30 18 61q0 54 -48 87q-45 31 -117 52q-62 19 -153 40q-78 18 -152 50q-71 30 -118 82t-47 140zM410 -307q0 39 26 65q27 27 66 27q38 0 65 -27t27 -65q0 -15 -5 -32q-4 -14 -11 -26q-3 -6 -8.5 -14t-6.5 -10l-102 -174h-62l62 174
q-17 7 -27 18q-8 8 -17 26q-7 14 -7 38z" />
    <glyph glyph-name="afii57929" unicode="&#x2bc;" horiz-adv-x="317" 
d="M72 1331q0 40 26 66t66 26q39 0 65 -26q27 -27 27 -66q0 -15 -5 -32q-4 -12 -11 -25q-3 -6 -8.5 -14.5t-6.5 -10.5l-102 -174h-62l62 174q-15 7 -27 19q-9 9 -17 25q-7 14 -7 38z" />
    <glyph glyph-name="circumflex" unicode="&#x2c6;" horiz-adv-x="706" 
d="M399 1413l246 -317h-123l-164 204h-10l-164 -204h-123l246 317h92z" />
    <glyph glyph-name="caron" unicode="&#x2c7;" horiz-adv-x="706" 
d="M307 1096l-246 317h123l164 -205h10l164 205h123l-246 -317h-92z" />
    <glyph glyph-name="breve" unicode="&#x2d8;" horiz-adv-x="655" 
d="M328 1270q68 0 111 41q42 41 42 102h113q0 -116 -75 -191t-191 -75q-117 0 -192 75t-75 191h113q0 -61 42 -102q43 -41 112 -41z" />
    <glyph glyph-name="dotaccent" unicode="&#x2d9;" horiz-adv-x="307" 
d="M61 1331q0 39 27 66q26 26 66 26q39 0 65 -26q27 -27 27 -66q0 -38 -27 -65t-65 -27q-39 0 -66 27t-27 65z" />
    <glyph glyph-name="ring" unicode="&#x2da;" horiz-adv-x="532" 
d="M61 1208q0 86 60 146q59 59 145 59q87 0 146 -59t59 -146q0 -86 -59 -145t-146 -59q-86 0 -145 59q-60 60 -60 145zM154 1208q0 -55 32 -88q33 -35 80 -35t80 35q33 34 33 88t-33 88q-33 35 -80 35t-80 -35q-32 -33 -32 -88z" />
    <glyph glyph-name="ogonek" unicode="&#x2db;" horiz-adv-x="471" 
d="M276 -471q-48 0 -86 16q-39 17 -67 43q-28 27 -45 62q-17 36 -17 74q0 70 36 123t81 87q52 39 119 66h102q-70 -29 -118 -63q-44 -32 -81 -80q-36 -46 -36 -113q0 -47 33 -80t79 -33q41 0 74 15q12 6 29 16l31 -92q-21 -15 -37 -21q-18 -8 -41 -14q-24 -6 -56 -6z" />
    <glyph glyph-name="tilde" unicode="&#x2dc;" horiz-adv-x="645" 
d="M225 1300q-23 0 -42 -19t-19 -42v-51h-103v51q0 87 42 130q42 44 112 44q46 0 74 -19q29 -20 48 -42q12 -14 38 -42q18 -20 45 -20q22 0 42 20q19 19 19 42v51h103v-51q0 -86 -42 -130t-112 -44q-49 0 -75 19q-28 20 -47 42q-12 14 -38 42q-18 19 -45 19z" />
    <glyph glyph-name="hungarumlaut" unicode="&#x2dd;" horiz-adv-x="675" 
d="M205 1413h123l-174 -307h-93zM492 1413h122l-174 -307h-92z" />
    <glyph glyph-name="afii10023" unicode="&#x401;" horiz-adv-x="1208" 
d="M1167 133v-133h-1013v1413h1013v-133h-870v-502h686v-133h-686v-512h870zM408 1731q0 31 25 56t56 25q32 0 57 -25t25 -56q0 -32 -25 -57t-57 -25q-31 0 -56 25t-25 57zM756 1731q0 31 25 56t57 25q31 0 56 -25q26 -26 26 -56q0 -31 -26 -57q-25 -25 -56 -25
q-32 0 -57 25t-25 57z" />
    <glyph glyph-name="afii10051" unicode="&#x402;" horiz-adv-x="1474" 
d="M1229 379q0 74 -26 140q-25 65 -75 111q-48 45 -119 71q-72 26 -159 26h-369v-727h-143v1280h-379v133h973v-133h-451v-420h369q121 0 220 -35q97 -34 164 -98q65 -62 102 -153q36 -88 36 -195v-266q0 -153 -80 -236q-79 -82 -227 -82q-26 0 -47 4q-23 4 -43 11
q-8 3 -23 8.5t-20 7.5l20 123q12 -5 33 -10q36 -11 80 -11q78 0 121 46t43 139v266z" />
    <glyph glyph-name="afii10052" unicode="&#x403;" 
d="M850 1761l-338 -143l-41 82l317 184zM297 1280v-1280h-143v1413h952v-133h-809z" />
    <glyph glyph-name="afii10053" unicode="&#x404;" horiz-adv-x="1546" 
d="M809 -61q-143 0 -274 60q-132 61 -232 165q-102 106 -161 244q-60 140 -60 299t60 299q58 136 161 243q100 104 232 165q133 61 274 61q131 0 238 -39q104 -38 187 -101q82 -62 134 -138q54 -79 76 -153l-144 -20q-24 62 -65 115q-43 57 -105 102q-64 47 -141 73
q-79 27 -180 27q-110 0 -208 -46q-100 -47 -179 -123q-80 -76 -132 -177q-53 -102 -65 -207h635v-133h-635q12 -118 63 -229q49 -105 129 -185t180 -124q102 -45 212 -45q108 0 192 28q86 29 151 77q67 50 112 111q48 65 77 132l144 -21q-29 -86 -88 -171q-56 -82 -143 -147
q-87 -66 -196 -104q-108 -38 -249 -38z" />
    <glyph glyph-name="afii10054" unicode="&#x405;" horiz-adv-x="1259" 
d="M1034 369q0 68 -38 115q-36 45 -101 79q-62 33 -143 57q-53 16 -163 48q-75 22 -163 55q-79 30 -143 77q-66 49 -102 112q-38 67 -38 163q0 76 35 149q35 72 101 128q65 54 158 89q92 34 208 34q109 0 198 -29q83 -27 152 -79q65 -49 111 -118t72 -143l-144 -31
q-30 67 -60 111q-36 51 -80 84q-48 35 -108 53q-62 18 -141 18q-85 0 -150 -22t-113 -61q-47 -38 -71 -86t-24 -97q0 -92 65 -144t165 -88q107 -39 215 -67q112 -29 215 -79q98 -48 165 -125q66 -76 66 -203q0 -85 -37 -162q-37 -76 -108 -137q-71 -60 -171 -96
q-98 -35 -227 -35q-121 0 -213 32q-96 33 -166 89q-71 57 -120 134t-75 164l144 21q27 -67 65 -122t92 -97q53 -41 121 -65q65 -23 152 -23q96 0 171 24q74 24 125 67q50 42 77 95q26 51 26 111z" />
    <glyph glyph-name="afii10055" unicode="&#x406;" horiz-adv-x="450" 
d="M297 0h-143v1413h143v-1413z" />
    <glyph glyph-name="afii10056" unicode="&#x407;" horiz-adv-x="491" 
d="M317 0h-143v1413h143v-1413zM-8 1710q0 31 25 56q26 26 57 26q30 0 56 -26t26 -56t-26 -56t-56 -26q-31 0 -57 26q-25 25 -25 56zM340 1710q0 30 26 56t56 26t56 -26t26 -56t-26 -56t-56 -26t-56 26t-26 56z" />
    <glyph glyph-name="afii10057" unicode="&#x408;" horiz-adv-x="1095" 
d="M942 461q0 -119 -36 -215q-36 -97 -100 -165t-153 -106q-85 -36 -192 -36q-89 0 -162 27t-131 74q-60 49 -95 105q-39 62 -53 121l144 31q31 -94 105 -159q75 -66 192 -66q76 0 135 26q61 27 106 76q46 50 71 122q26 73 26 165v952h143v-952z" />
    <glyph glyph-name="afii10058" unicode="&#x409;" horiz-adv-x="2119" 
d="M2038 471q0 -95 -39 -181t-108 -150t-165 -102q-97 -38 -210 -38h-543v1280h-502l-307 -1280h-144l338 1413h758v-471h400q113 0 210 -38q96 -38 165 -102t108 -150q39 -85 39 -181zM1894 471q0 69 -27 131q-26 59 -78 108q-46 43 -120 72q-69 27 -153 27h-400v-676h400
q84 0 153 27q74 29 120 72q52 49 78 108q27 61 27 131z" />
    <glyph glyph-name="afii10059" unicode="&#x40a;" horiz-adv-x="2211" 
d="M1044 0v727h-747v-727h-143v1413h143v-553h747v553h144v-553h471q106 0 190 -34q88 -36 149 -92q63 -58 97 -137q35 -81 35 -167t-35 -167q-34 -79 -97 -137q-61 -56 -149 -92q-84 -34 -190 -34h-615zM1987 430q0 62 -24 116t-67 94q-41 38 -103 63q-60 24 -134 24h-471
v-594h471q74 0 134 24q62 25 103 63q43 40 67 94t24 116z" />
    <glyph glyph-name="afii10060" unicode="&#x40b;" horiz-adv-x="1474" 
d="M1229 0v379q0 74 -26 140q-25 65 -75 111q-48 45 -119 71q-72 26 -159 26h-369v-727h-143v1280h-379v133h973v-133h-451v-420h369q121 0 220 -35q97 -34 164 -98q65 -62 102 -153q36 -88 36 -195v-379h-143z" />
    <glyph glyph-name="afii10061" unicode="&#x40c;" horiz-adv-x="1392" 
d="M901 1741l-338 -144l-41 82l318 185zM952 717q51 -18 92 -53q36 -30 64 -81q29 -53 29 -132v-195q0 -70 35 -106q36 -37 98 -37h61v-133h-61q-133 0 -204 71q-73 73 -73 205v195q0 86 -54 140t-140 54h-502v-645h-143v1413h143v-635h481q86 0 141 55q54 54 54 140v184
q0 132 73 205q72 72 203 72h62v-134h-62q-62 0 -97 -36q-36 -38 -36 -107v-184q0 -83 -25 -129q-25 -45 -57 -74q-40 -32 -82 -43v-10z" />
    <glyph glyph-name="afii10062" unicode="&#x40e;" horiz-adv-x="1310" 
d="M655 1589q-122 0 -199 77t-77 200h113q0 -70 47 -117t116 -47q70 0 117 47t47 117h113q0 -123 -77 -200t-200 -77zM860 307q-69 -175 -162 -262q-92 -86 -237 -86h-103v133h103q90 0 149 49q61 50 107 166l82 205h-410l-369 901h144l317 -768h359l307 768h143z" />
    <glyph glyph-name="afii10145" unicode="&#x40f;" horiz-adv-x="1402" 
d="M635 0h-481v1413h143v-1280h809v1280h143v-1413h-471v-266h-143v266z" />
    <glyph glyph-name="afii10017" unicode="&#x410;" horiz-adv-x="1372" 
d="M1331 0h-143l-92 358h-820l-92 -358h-143l348 1413h594zM307 492h758l-195 788h-368z" />
    <glyph glyph-name="afii10018" unicode="&#x411;" horiz-adv-x="1351" 
d="M1290 440q0 -91 -35 -172q-35 -80 -99 -140q-64 -59 -156 -94q-90 -34 -201 -34h-645v1413h993v-133h-850v-399h502q111 0 201 -34q92 -35 156 -94q63 -59 99 -141q35 -81 35 -172zM799 133q79 0 144 24q66 25 110 64q45 41 69 97q25 59 25 122q0 137 -91 222
q-92 86 -257 86h-502v-615h502z" />
    <glyph glyph-name="afii10019" unicode="&#x412;" horiz-adv-x="1382" 
d="M758 1413q90 0 168 -29t129 -77q53 -50 83 -114q29 -62 29 -138q0 -88 -28 -140q-29 -54 -64 -84q-39 -36 -92 -53v-10q98 -16 168 -57q33 -20 61 -45q35 -32 56 -63q24 -36 39 -84q14 -45 14 -109q0 -84 -33 -159q-33 -74 -93 -130q-59 -55 -145 -88t-190 -33h-706v1413
h604zM860 133q71 0 132 22q59 21 100 59q40 37 63 88t23 108q0 56 -23 107t-63 88q-43 39 -100 60q-58 21 -132 21h-563v-553h563zM297 1280v-461h461q122 0 194 66t72 170q0 92 -72 158q-73 67 -194 67h-461z" />
    <glyph glyph-name="afii10020" unicode="&#x413;" 
d="M297 1280v-1280h-143v1413h952v-133h-809z" />
    <glyph glyph-name="afii10021" unicode="&#x414;" horiz-adv-x="1474" 
d="M143 0v-256h-143v389h143l308 1280h573l307 -1280h144v-389h-144v256h-1188zM563 1280l-276 -1147h901l-277 1147h-348z" />
    <glyph glyph-name="afii10022" unicode="&#x415;" horiz-adv-x="1218" 
d="M1167 133v-133h-1013v1413h1013v-133h-870v-502h686v-133h-686v-512h870z" />
    <glyph glyph-name="afii10024" unicode="&#x416;" horiz-adv-x="2088" 
d="M1649 717q51 -18 92 -53q35 -28 63 -81q29 -53 29 -132v-195q0 -68 36 -106q36 -37 97 -37h62v-133h-62q-133 0 -204 71q-72 72 -72 205v195q0 85 -55 140q-54 54 -140 54h-379v-645h-143v645h-379q-86 0 -140 -54q-55 -55 -55 -140v-195q0 -133 -72 -205
q-71 -71 -204 -71h-62v133h62q61 0 97 37q36 38 36 106v195q0 79 29 132t63 81q40 35 92 53v10q-42 11 -82 43q-30 27 -56 74t-26 129v184q0 71 -35 107t-98 36h-61v134h61q132 0 204 -72q73 -73 73 -205v-184q0 -86 54 -140q55 -55 140 -55h359v635h143v-635h359
q85 0 140 55q54 54 54 140v184q0 132 73 205q72 72 204 72h61v-134h-61q-63 0 -98 -36q-36 -38 -36 -107v-184q0 -83 -25 -129q-26 -47 -56 -74q-40 -32 -82 -43v-10z" />
    <glyph glyph-name="afii10025" unicode="&#x417;" horiz-adv-x="1259" 
d="M205 379q27 -67 65 -122q37 -53 93 -97q54 -41 120 -65q65 -23 152 -23q96 0 171 24q74 24 125 67q50 42 77 95q26 51 26 111q0 59 -26 110q-27 53 -77 95q-51 43 -125 67q-78 25 -171 25h-113v133h113q80 0 146 24q67 24 114 64q48 40 73 89t25 99q0 49 -24 97t-71 86
q-48 39 -113 61t-150 22q-79 0 -141 -18q-60 -18 -108 -53q-44 -33 -80 -84q-30 -44 -60 -111l-144 31q26 74 72 143t111 118q69 52 152 79q89 29 198 29q116 0 208 -34q93 -35 158 -89q66 -56 101 -128q35 -73 35 -149q0 -101 -45 -164q-43 -60 -99 -100q-59 -41 -143 -63
v-11q93 -21 164 -67q30 -21 60 -48q28 -25 52 -65q21 -36 37 -84q15 -47 15 -104q0 -85 -37 -162q-37 -76 -108 -137q-71 -60 -171 -96q-98 -35 -227 -35q-121 0 -213 32q-96 33 -166 89q-71 57 -120 134t-75 164z" />
    <glyph glyph-name="afii10026" unicode="&#x418;" horiz-adv-x="1423" 
d="M307 0h-153v1413h143v-1167h10l809 1167h154v-1413h-144v1167h-10z" />
    <glyph glyph-name="afii10027" unicode="&#x419;" horiz-adv-x="1423" 
d="M717 1597q-123 0 -200 77t-77 200h113q0 -70 47 -117t117 -47t117 47t47 117h112q0 -123 -77 -200t-199 -77zM307 0h-153v1413h143v-1167h10l809 1167h154v-1413h-144v1167h-10z" />
    <glyph glyph-name="afii10028" unicode="&#x41a;" horiz-adv-x="1392" 
d="M952 717q51 -18 92 -53q36 -30 64 -81q29 -53 29 -132v-195q0 -70 35 -106q36 -37 98 -37h61v-133h-61q-133 0 -204 71q-73 73 -73 205v195q0 86 -54 140t-140 54h-502v-645h-143v1413h143v-635h481q86 0 141 55q54 54 54 140v184q0 132 73 205q72 72 203 72h62v-134h-62
q-62 0 -97 -36q-36 -38 -36 -107v-184q0 -83 -25 -129q-25 -45 -57 -74q-40 -32 -82 -43v-10z" />
    <glyph glyph-name="afii10029" unicode="&#x41b;" horiz-adv-x="1372" 
d="M389 1413h594l348 -1413h-143l-318 1280h-368l-318 -1280h-143z" />
    <glyph glyph-name="afii10030" unicode="&#x41c;" horiz-adv-x="1720" 
d="M307 1198h-10v-1198h-143v1413h153l553 -676l553 676h154v-1413h-144v1198h-10l-553 -676z" />
    <glyph glyph-name="afii10031" unicode="&#x41d;" horiz-adv-x="1402" 
d="M154 1413h143v-635h809v635h143v-1413h-143v645h-809v-645h-143v1413z" />
    <glyph glyph-name="afii10032" unicode="&#x41e;" horiz-adv-x="1658" 
d="M82 707q0 155 60 294t164 245q104 105 239 167q136 62 284 62q149 0 285 -62q137 -62 239 -166q106 -107 164 -243q60 -140 60 -297t-60 -297q-59 -138 -164 -244q-102 -104 -239 -166q-134 -61 -285 -61q-150 0 -284 61q-137 62 -239 166q-105 106 -164 244
q-60 140 -60 297zM1434 707q0 127 -51 246q-49 115 -133 202t-192 136q-111 50 -229 50q-117 0 -228 -50q-108 -49 -192 -136q-85 -88 -134 -202q-50 -117 -50 -246q0 -130 50 -247q49 -114 134 -202q84 -87 192 -136q111 -50 228 -50q118 0 229 50q108 49 192 136t133 202
q51 119 51 247z" />
    <glyph glyph-name="afii10033" unicode="&#x41f;" horiz-adv-x="1402" 
d="M154 1413h1095v-1413h-143v1280h-809v-1280h-143v1413z" />
    <glyph glyph-name="afii10034" unicode="&#x420;" horiz-adv-x="1372" 
d="M1147 911q0 78 -28 148q-27 67 -80 117q-52 49 -126 76q-76 28 -165 28h-451v-737h451q92 0 165 27t126 77t80 117q28 70 28 147zM1290 911q0 -107 -39 -199t-109 -159q-72 -69 -171 -106t-223 -37h-451v-410h-143v1413h594q121 0 223 -38q101 -37 171 -105
q69 -66 109 -160q39 -91 39 -199z" />
    <glyph glyph-name="afii10035" unicode="&#x421;" horiz-adv-x="1546" 
d="M809 -61q-142 0 -273 61q-134 62 -233 166q-102 106 -161 244q-60 140 -60 297t60 297q58 136 161 243q99 104 233 166q133 62 273 62q131 0 238 -39q104 -38 187 -101q82 -62 134 -138q54 -79 76 -153l-144 -20q-24 62 -65 115q-43 57 -105 102q-64 47 -141 73
q-79 27 -180 27q-110 0 -216 -50q-102 -48 -187 -136q-82 -85 -132 -202q-49 -114 -49 -246q0 -135 49 -249q50 -117 132 -202q83 -86 187 -135t216 -49q108 0 192 28q86 29 151 77q67 50 112 111q48 65 77 132l144 -21q-29 -86 -88 -171q-56 -82 -143 -147
q-87 -66 -196 -104q-108 -38 -249 -38z" />
    <glyph glyph-name="afii10036" unicode="&#x422;" horiz-adv-x="1187" 
d="M20 1280v133h1147v-133h-501v-1280h-144v1280h-502z" />
    <glyph glyph-name="afii10037" unicode="&#x423;" horiz-adv-x="1310" 
d="M860 307q-69 -175 -162 -262q-92 -86 -237 -86h-103v133h103q90 0 149 49q61 50 107 166l82 205h-410l-369 901h144l317 -768h359l307 768h143z" />
    <glyph glyph-name="afii10038" unicode="&#x424;" horiz-adv-x="1802" 
d="M973 1495v-143q163 0 308 -54q139 -52 240 -142q98 -87 154 -206q56 -118 56 -243q0 -126 -56 -244q-56 -119 -154 -206q-101 -90 -240 -142q-145 -54 -308 -54v-143h-144v143q-166 0 -309 54q-137 51 -238 142q-99 89 -155 206q-55 116 -55 244q0 127 55 243
q56 117 155 206q101 91 238 142q143 54 309 54v143h144zM973 195q138 0 251 43q114 44 194 113q81 71 125 163q44 93 44 193q0 99 -44 192q-44 92 -125 163q-82 71 -194 114q-113 43 -251 43v-1024zM829 1219q-140 0 -251 -43q-113 -44 -194 -114q-81 -71 -125 -163
q-44 -93 -44 -192q0 -100 44 -193q44 -92 125 -163q79 -68 194 -113q111 -43 251 -43v1024z" />
    <glyph glyph-name="afii10039" unicode="&#x425;" horiz-adv-x="1259" 
d="M195 0h-164q238 344 256 369q170 244 256 368l-471 676h164l389 -563h10l389 563h164l-471 -676q86 -124 256 -368q18 -25 256 -369h-164l-430 625h-10z" />
    <glyph glyph-name="afii10040" unicode="&#x426;" horiz-adv-x="1413" 
d="M154 0v1413h143v-1280h768v1280h143v-1280h164v-389h-143v256h-1075z" />
    <glyph glyph-name="afii10041" unicode="&#x427;" horiz-adv-x="1341" 
d="M276 1413v-471q0 -77 26 -141t75 -110q48 -45 120 -71t158 -26h389v819h144v-1413h-144v461h-389q-121 0 -220 35q-97 34 -164 98q-66 63 -102 151q-36 89 -36 197v471h143z" />
    <glyph glyph-name="afii10042" unicode="&#x428;" horiz-adv-x="2007" 
d="M154 1413h143v-1280h635v1280h143v-1280h635v1280h143v-1413h-1699v1413z" />
    <glyph glyph-name="afii10043" unicode="&#x429;" horiz-adv-x="2058" 
d="M154 1413h143v-1280h635v1280h143v-1280h635v1280h143v-1280h164v-389h-143v256h-1720v1413z" />
    <glyph glyph-name="afii10044" unicode="&#x42a;" horiz-adv-x="1454" 
d="M1372 471q0 -95 -39 -181q-40 -87 -107 -150q-69 -64 -165 -102q-97 -38 -211 -38h-533v1280h-317v133h461v-471h389q114 0 211 -38q96 -38 165 -102q67 -63 107 -150q39 -85 39 -181zM1229 471q0 67 -28 131q-26 59 -78 108q-46 44 -119 72q-69 27 -154 27h-389v-676
h389q85 0 154 27q73 28 119 72q52 49 78 108q28 64 28 131z" />
    <glyph glyph-name="afii10045" unicode="&#x42b;" horiz-adv-x="1699" 
d="M1546 0h-143v1413h143v-1413zM1044 471q0 69 -27 131q-26 59 -78 108q-46 43 -120 72q-69 27 -153 27h-369v-676h369q84 0 153 27q74 29 120 72q52 49 78 108q27 61 27 131zM1188 471q0 -95 -39 -181t-108 -150q-70 -65 -164 -102q-97 -38 -211 -38h-512v1413h143v-471
h369q114 0 211 -38q94 -37 164 -102q69 -64 108 -150q39 -85 39 -181z" />
    <glyph glyph-name="afii10046" unicode="&#x42c;" horiz-adv-x="1331" 
d="M1106 471q0 67 -28 131q-26 59 -78 108q-46 44 -119 72q-69 27 -154 27h-430v-676h430q85 0 154 27q73 28 119 72q52 49 78 108q28 64 28 131zM1249 471q0 -95 -39 -181q-40 -87 -107 -150q-69 -64 -165 -102q-97 -38 -211 -38h-573v1413h143v-471h430q114 0 211 -38
q96 -38 165 -102q67 -63 107 -150q39 -85 39 -181z" />
    <glyph glyph-name="afii10047" unicode="&#x42d;" horiz-adv-x="1546" 
d="M737 -61q-142 0 -250 38q-107 38 -195 104q-84 64 -142 147q-61 88 -89 171l144 21q28 -64 78 -132q47 -63 111 -111q66 -49 150 -77t193 -28q110 0 212 45q100 44 180 124t129 185q51 111 63 229h-635v133h635q-12 105 -65 207q-52 101 -132 177t-180 123
q-99 46 -207 46q-100 0 -181 -27q-78 -26 -142 -73q-63 -46 -104 -102q-40 -54 -64 -115l-144 20q22 74 76 153q52 76 134 138t188 101t237 39q142 0 275 -61q130 -60 231 -165q103 -107 161 -243q60 -139 60 -299q0 -159 -60 -299q-59 -138 -161 -244q-101 -105 -231 -165
t-275 -60z" />
    <glyph glyph-name="afii10048" unicode="&#x42e;" horiz-adv-x="2017" 
d="M297 0h-143v1413h143v-635h276q7 151 63 282q55 129 144 220q91 92 210 143q122 52 259 52t262 -57q128 -59 220 -158t149 -244q55 -140 55 -309q0 -171 -55 -311q-56 -141 -149 -242q-94 -101 -220 -159q-122 -56 -262 -56q-139 0 -259 51t-210 144t-144 223
q-56 135 -63 288h-276v-645zM1792 707q0 139 -44 259q-43 117 -120 200q-78 84 -174 129q-98 46 -205 46q-110 0 -206 -46t-173 -129q-75 -81 -119 -200q-44 -120 -44 -259q0 -140 44 -260q44 -119 119 -200q77 -83 173 -129t206 -46q107 0 205 46q96 45 174 129
q77 83 120 200q44 120 44 260z" />
    <glyph glyph-name="afii10049" unicode="&#x42f;" horiz-adv-x="1392" 
d="M584 430l-297 -430h-164l317 461q-98 38 -170 100q-33 29 -61 62q-31 35 -54 79q-21 40 -38 100q-15 54 -15 120q0 100 39 189t110 157q70 67 171 106q100 39 223 39h594v-1413h-143v430h-512zM1096 563v717h-451q-89 0 -162 -30t-126 -80q-52 -49 -82 -114
q-29 -62 -29 -134q0 -73 29 -135q30 -65 82 -114q53 -50 126 -80t162 -30h451z" />
    <glyph glyph-name="afii10065" unicode="&#x430;" 
d="M850 635q-29 59 -78 113q-40 40 -100 76t-140 36q-64 0 -124 -27q-59 -26 -105 -79q-45 -51 -72 -123q-26 -69 -26 -160t26 -160q27 -72 72 -123t105 -78q62 -28 124 -28q79 0 140 35q59 34 100 78q50 53 78 112v328zM983 0h-133v133h-10q-28 -48 -78 -88
q-38 -31 -100 -59q-60 -27 -140 -27q-86 0 -170 38q-81 37 -144 106q-61 66 -99 163q-37 93 -37 205t37 205q38 97 99 163q63 69 144 106q84 38 170 38q78 0 140 -28q59 -26 100 -60q51 -41 78 -86h10v133h133v-942z" />
    <glyph glyph-name="afii10066" unicode="&#x431;" 
d="M573 82q68 0 129 26q62 27 104 71q45 48 70 110t25 141q0 77 -25 140t-70 111q-43 46 -104 72q-59 25 -129 25t-129 -25t-103 -72q-45 -48 -70 -111t-25 -140q0 -79 25 -141t70 -110q42 -45 103 -71t129 -26zM573 -41q-96 0 -180 36q-82 35 -146 99q-62 62 -99 150
q-35 83 -35 186v451q0 169 84 264q85 95 223 125l317 71q29 7 51 31q21 22 21 62v41h133v-62q0 -85 -41 -129q-39 -42 -133 -65l-317 -72q-85 -18 -146 -88q-59 -68 -59 -178v-174q27 51 76 96q39 36 105 67q67 31 157 31q92 0 174 -36q81 -35 143 -99q60 -61 97 -150
q36 -86 36 -186t-36 -186q-38 -90 -98 -150q-64 -64 -146 -99q-84 -36 -181 -36z" />
    <glyph glyph-name="afii10067" unicode="&#x432;" horiz-adv-x="983" 
d="M545 942q134 0 210 -68q74 -67 74 -167q0 -59 -21 -94q-20 -32 -46 -52q-29 -23 -66 -29v-10q65 -11 117 -39q44 -24 82 -72q37 -47 37 -135q0 -54 -23 -105t-63 -88t-100 -60t-132 -23h-491v942h422zM614 123q87 0 136 49t49 115q0 71 -49 117q-50 47 -136 47h-358v-328
h358zM256 819v-246h289q75 0 113 35t38 88t-38 88t-113 35h-289z" />
    <glyph glyph-name="afii10068" unicode="&#x433;" horiz-adv-x="798" 
d="M123 942h676v-123h-543v-819h-133v942z" />
    <glyph glyph-name="afii10069" unicode="&#x434;" horiz-adv-x="1075" 
d="M0 123h133l174 819h461l174 -819h133v-348h-133v225h-809v-225h-133v348zM410 819l-144 -696h543l-143 696h-256z" />
    <glyph glyph-name="afii10070" unicode="&#x435;" horiz-adv-x="1075" 
d="M543 983q94 0 181 -38q85 -37 149 -106q67 -71 103 -163q38 -96 38 -205l-62 -61h-747q7 -66 37 -129t74 -104q46 -43 107 -69t130 -26q73 0 123 17q55 19 93 47q39 29 67 69q25 37 41 82l133 -27q-16 -55 -56 -115q-37 -57 -94 -100q-53 -40 -134 -69q-76 -27 -171 -27
q-98 0 -188 38q-88 37 -154 106q-65 68 -103 163q-38 96 -38 205t38 205q37 94 102 163q64 69 149 106q87 38 182 38zM543 860q-67 0 -124 -25q-58 -25 -104 -70q-45 -43 -73 -103q-30 -62 -37 -130h676q-7 68 -37 130q-28 58 -74 103q-47 46 -103 70q-57 25 -124 25z" />
    <glyph glyph-name="afii10072" unicode="&#x436;" horiz-adv-x="1546" 
d="M1219 471q36 -6 65 -27q26 -18 46 -51q22 -36 22 -96v-102q0 -93 92 -93h41v-122h-51q-110 0 -162 54q-53 55 -53 140v102q0 61 -35 98q-34 36 -88 36h-256v-410h-133v410h-256q-55 0 -89 -36q-34 -35 -34 -98v-102q0 -84 -54 -140q-52 -54 -161 -54h-52v122h41
q93 0 93 93v102q0 63 20 96q21 35 45 51q28 21 68 27v10q-34 8 -58 29q-23 17 -39 49t-16 86v103q0 92 -92 92h-41v123h51q109 0 162 -55t53 -140v-102q0 -61 35 -98q35 -36 88 -36h236v410h133v-410h235q53 0 88 36q35 37 35 98v102q0 85 53 140t162 55h51v-123h-41
q-92 0 -92 -92v-103q0 -55 -17 -86q-18 -33 -40 -49q-24 -21 -55 -29v-10z" />
    <glyph glyph-name="afii10073" unicode="&#x437;" horiz-adv-x="962" 
d="M481 82q70 0 121 15t86 41q32 24 52 57q18 30 18 61t-18 61q-20 33 -52 57q-35 26 -86 41t-121 15h-102v123h102q65 0 108 14q47 15 77 36q31 22 46 49t15 55q0 27 -15 54t-46 49q-30 21 -77 36q-43 14 -108 14q-53 0 -94 -12q-42 -12 -72 -32q-32 -21 -53 -43
q-22 -23 -37 -46l-133 21q16 40 47 79q36 44 82 76q53 37 115 58q65 22 145 22q93 0 163 -24q73 -25 119 -61q49 -38 73 -88t24 -103q0 -58 -31 -97q-29 -36 -67 -59q-44 -24 -96 -39v-10q59 -16 112 -47q42 -29 77 -75q36 -46 36 -124q0 -58 -27 -111q-28 -54 -79 -95
q-53 -43 -128 -66q-80 -25 -176 -25q-84 0 -159 25q-74 25 -125 64q-56 43 -91 92q-36 50 -55 106l133 20q15 -35 40 -67q26 -33 63 -60q38 -27 85 -42q48 -15 109 -15z" />
    <glyph glyph-name="afii10074" unicode="&#x438;" horiz-adv-x="1075" 
d="M123 942h133v-717h10l553 717h133v-942h-133v717h-10l-553 -717h-133v942z" />
    <glyph glyph-name="afii10075" unicode="&#x439;" horiz-adv-x="1075" 
d="M535 1255q69 0 111 42t42 112h103q0 -52 -20 -100t-54 -82q-35 -35 -82 -55q-45 -19 -100 -19q-56 0 -101 19q-46 20 -82 55q-34 34 -54 82q-19 45 -19 100h102q0 -70 42 -112t112 -42zM123 942h133v-717h10l553 717h133v-942h-133v717h-10l-553 -717h-133v942z" />
    <glyph glyph-name="afii10076" unicode="&#x43a;" horiz-adv-x="1034" 
d="M707 471q36 -6 65 -27q26 -18 46 -51q22 -36 22 -96v-102q0 -93 92 -93h41v-122h-51q-110 0 -162 54q-53 55 -53 140v102q0 61 -35 98q-34 36 -88 36h-328v-410h-133v942h133v-410h307q53 0 88 36q35 37 35 98v102q0 85 53 140t162 55h51v-123h-41q-92 0 -92 -92v-103
q0 -55 -17 -86q-18 -33 -40 -49q-24 -21 -55 -29v-10z" />
    <glyph glyph-name="afii10077" unicode="&#x43b;" horiz-adv-x="1034" 
d="M246 942h542l205 -942h-133q-59 270 -88 410q-25 124 -86 409h-338l-174 -819h-133z" />
    <glyph glyph-name="afii10078" unicode="&#x43c;" horiz-adv-x="1228" 
d="M1106 0h-133v737h-10l-349 -430l-348 430h-10v-737h-133v942h143l348 -430l349 430h143v-942z" />
    <glyph glyph-name="afii10079" unicode="&#x43d;" horiz-adv-x="1054" 
d="M123 942h133v-420h543v420h133v-942h-133v399h-543v-399h-133v942z" />
    <glyph glyph-name="afii10080" unicode="&#x43e;" horiz-adv-x="1126" 
d="M1055 471q0 -109 -38 -205q-36 -91 -105 -163q-65 -68 -155 -106t-194 -38q-103 0 -193 38q-92 39 -156 106q-67 70 -104 163q-38 96 -38 205t38 205q37 93 104 163q64 67 156 106q90 38 193 38q104 0 194 -38t155 -106q69 -72 105 -163q38 -96 38 -205zM922 471
q0 83 -29 156q-28 71 -78 124q-48 51 -114 80t-138 29t-138 -29t-114 -80q-50 -53 -78 -124t-28 -156t28 -156t78 -124q48 -51 115 -80t137 -29q72 0 138 29t114 80q50 53 78 124q29 73 29 156z" />
    <glyph glyph-name="afii10081" unicode="&#x43f;" horiz-adv-x="1054" 
d="M123 942h809v-942h-133v819h-543v-819h-133v942z" />
    <glyph glyph-name="afii10082" unicode="&#x440;" 
d="M256 307q28 -59 78 -112q40 -43 99 -78t140 -35q63 0 125 28q60 27 105 78q43 49 71 123q27 72 27 160t-27 160q-28 74 -71 123q-46 53 -105 79q-60 27 -125 27q-82 0 -140 -36q-60 -37 -99 -76q-49 -54 -78 -113v-328zM123 942h133v-133h10q27 45 78 86q40 33 99 60
q61 28 141 28q86 0 170 -38q81 -37 144 -106q61 -66 99 -163q37 -93 37 -205t-37 -205q-38 -97 -99 -163q-63 -69 -144 -106q-84 -38 -170 -38q-82 0 -141 27q-61 28 -99 59q-50 40 -78 88h-10v-543h-133v1352z" />
    <glyph glyph-name="afii10083" unicode="&#x441;" horiz-adv-x="1054" 
d="M553 -41q-97 0 -183 40q-90 42 -154 109q-67 70 -105 161q-39 93 -39 202q0 107 39 201t105 163q63 65 154 108q86 40 183 40q86 0 159 -25q72 -25 124 -63t87 -89q33 -47 50 -99l-133 -31q-11 32 -35 67q-22 32 -59 60t-83 42q-48 15 -110 15q-68 0 -132 -29
q-65 -29 -111 -80q-49 -54 -77 -124q-28 -71 -28 -156t28 -156q28 -70 77 -124q46 -51 111 -80q64 -29 132 -29q131 0 209 66q77 65 108 159l134 -31q-16 -59 -53 -118q-39 -61 -92 -102q-56 -43 -133 -70q-76 -27 -173 -27z" />
    <glyph glyph-name="afii10084" unicode="&#x442;" horiz-adv-x="849" 
d="M20 942h809v-123h-337v-819h-134v819h-338v123z" />
    <glyph glyph-name="afii10085" unicode="&#x443;" horiz-adv-x="972" 
d="M934 942l-205 -942q-29 -132 -60 -206q-35 -84 -76 -132q-43 -51 -94 -71q-52 -21 -118 -21q-35 0 -65 6q-25 5 -52 14q-18 6 -47 21l31 123q19 -15 35 -21q19 -9 42 -14q25 -6 56 -6q35 0 65 15q31 16 58 50q25 31 50 95q25 62 42 147h-348l-205 942h133l174 -819h277
l174 819h133z" />
    <glyph glyph-name="afii10086" unicode="&#x444;" horiz-adv-x="1259" 
d="M696 -410h-133v369q-101 5 -189 45t-157 111q-67 68 -106 160q-39 91 -39 196t39 196q38 90 106 159q67 68 157 111q87 41 189 46v430h133v-430q103 -5 190 -46q88 -42 156 -111q70 -71 107 -159q39 -92 39 -196q0 -105 -39 -196q-38 -90 -107 -160q-70 -72 -156 -111
q-88 -40 -190 -45v-369zM205 471q0 -81 28 -149q29 -70 78 -122q50 -53 114 -83q66 -31 138 -35v778q-72 -4 -138 -35q-64 -30 -114 -83t-78 -121t-28 -150zM1055 471q0 80 -29 150q-28 68 -78 121q-51 54 -113 83q-66 31 -139 35v-778q73 4 139 35q62 29 113 83
q49 52 78 122t29 149z" />
    <glyph glyph-name="afii10087" unicode="&#x445;" horiz-adv-x="931" 
d="M471 389h-10l-277 -389h-153l348 492l-318 450h154l246 -348h10l246 348h153l-317 -450l348 -492h-153z" />
    <glyph glyph-name="afii10088" unicode="&#x446;" horiz-adv-x="1064" 
d="M123 942h133v-819h502v819h133v-819h143v-344h-133v221h-778v942z" />
    <glyph glyph-name="afii10089" unicode="&#x447;" horiz-adv-x="993" 
d="M236 655q0 -109 67 -172t199 -63h235v522h133v-942h-133v297h-235q-90 0 -166 28q-73 27 -126 74t-80 113q-28 68 -28 143v287h134v-287z" />
    <glyph glyph-name="afii10090" unicode="&#x448;" horiz-adv-x="1484" 
d="M809 123h420v819h133v-942h-1239v942h133v-819h420v819h133v-819z" />
    <glyph glyph-name="afii10091" unicode="&#x449;" horiz-adv-x="1536" 
d="M809 123h420v819h133v-819h143v-344h-133v221h-1249v942h133v-819h420v819h133v-819z" />
    <glyph glyph-name="afii10092" unicode="&#x44a;" horiz-adv-x="1054" 
d="M236 0v819h-236v123h369v-287h256q84 0 152 -25q67 -25 117 -70q49 -45 74 -103q25 -59 25 -129t-25 -129q-26 -60 -74 -104q-48 -43 -117 -69q-70 -26 -152 -26h-389zM625 123q110 0 172 59q63 60 63 146q0 85 -63 145q-62 59 -172 59h-256v-409h256z" />
    <glyph glyph-name="afii10093" unicode="&#x44b;" horiz-adv-x="1290" 
d="M1034 942h133v-942h-133v942zM502 123q110 0 172 59q63 60 63 146q0 85 -63 145q-62 59 -172 59h-246v-409h246zM123 0v942h133v-287h246q84 0 152 -25q67 -25 117 -70q49 -45 74 -103q25 -59 25 -129t-25 -129q-26 -60 -74 -104q-48 -43 -117 -69q-70 -26 -152 -26h-379
z" />
    <glyph glyph-name="afii10094" unicode="&#x44c;" horiz-adv-x="962" 
d="M532 123q111 0 173 59q63 60 63 146q0 85 -63 145q-62 59 -173 59h-276v-409h276zM123 0v942h133v-287h276q85 0 153 -25q67 -25 117 -70q49 -45 74 -103q25 -59 25 -129t-25 -129q-26 -60 -74 -104q-48 -43 -117 -69q-70 -26 -153 -26h-409z" />
    <glyph glyph-name="afii10095" unicode="&#x44d;" horiz-adv-x="1054" 
d="M461 532h389q-7 61 -39 125q-30 59 -77 105q-47 45 -106 72q-58 26 -126 26q-62 0 -110 -15t-84 -42q-35 -26 -58 -60q-24 -35 -35 -67l-133 31q15 51 49 99q34 49 88 89q52 38 124 63q73 25 159 25q97 0 183 -40q91 -43 154 -108q66 -69 105 -163t39 -201
q0 -109 -39 -202q-38 -91 -105 -161q-64 -67 -154 -109q-86 -40 -183 -40q-96 0 -173 27t-133 70q-54 41 -94 102q-35 54 -51 118l133 31q30 -92 109 -159q78 -66 209 -66q65 0 125 27q61 27 106 71q49 48 78 105q32 64 39 125h-389v122z" />
    <glyph glyph-name="afii10096" unicode="&#x44e;" horiz-adv-x="1413" 
d="M891 983q93 0 174 -37q82 -37 143 -104q62 -68 98 -162q35 -92 35 -209t-35 -209q-36 -94 -98 -162q-61 -67 -143 -104q-81 -37 -174 -37q-89 0 -165 33q-79 34 -137 92q-63 63 -99 142q-38 84 -50 184h-184v-410h-133v942h133v-410h184q12 100 50 184q36 79 99 142
q58 58 137 92q76 33 165 33zM891 860q-68 0 -123 -26q-57 -27 -100 -76t-69 -122t-26 -165t26 -165t69 -122q42 -47 100 -75q57 -27 123 -27t123 27q58 28 100 75q43 49 69 122q25 71 25 165t-25 165q-26 73 -69 122t-100 76q-55 26 -123 26z" />
    <glyph glyph-name="afii10097" unicode="&#x44f;" horiz-adv-x="1003" 
d="M881 942v-942h-133v266h-338l-185 -266h-153l204 297q-57 23 -102 63q-39 34 -71 94q-31 58 -31 150q0 75 25 135q26 62 75 107q49 44 120 70q72 26 159 26h430zM451 819q-118 0 -182 -61t-64 -154q0 -92 64 -153q65 -62 182 -62h297v430h-297z" />
    <glyph glyph-name="afii10071" unicode="&#x451;" horiz-adv-x="1075" 
d="M543 983q94 0 181 -38q85 -37 149 -106q67 -71 103 -163q38 -96 38 -205l-62 -61h-747q7 -66 37 -129t74 -104q46 -43 107 -69t130 -26q73 0 123 17q55 19 93 47q39 29 67 69q25 37 41 82l133 -27q-16 -55 -56 -115q-37 -57 -94 -100q-53 -40 -134 -69q-76 -27 -171 -27
q-98 0 -188 38q-88 37 -154 106q-65 68 -103 163q-38 96 -38 205t38 205q37 94 102 163q64 69 149 106q87 38 182 38zM543 860q-67 0 -124 -25q-58 -25 -104 -70q-45 -43 -73 -103q-30 -62 -37 -130h676q-7 68 -37 130q-28 58 -74 103q-47 46 -103 70q-57 25 -124 25z
M264 1264q0 30 26 56t56 26t56 -26t26 -56q0 -31 -26 -57q-25 -25 -56 -25t-56 25q-26 26 -26 57zM612 1264q0 30 26 56t56 26q31 0 57 -26q25 -25 25 -56q0 -32 -25 -57t-57 -25q-31 0 -56 25q-26 26 -26 57z" />
    <glyph glyph-name="afii10099" unicode="&#x452;" horiz-adv-x="1095" 
d="M993 61q0 -138 -83 -223q-82 -84 -214 -84q-34 0 -64 6q-18 4 -52 15q-25 8 -48 20l31 123q17 -14 35 -20q23 -11 42 -15q26 -6 56 -6q71 0 117 49q47 50 47 135v369q0 148 -75 227q-75 80 -191 80q-78 0 -136 -36q-62 -38 -100 -76q-48 -53 -82 -113v-512h-133v1053
h-143v125h143v235h133v-235h256v-125h-256v-367h11q32 45 82 86q43 35 99 61q58 27 136 27q84 0 156 -30t124 -85t81 -135q28 -78 28 -180v-369z" />
    <glyph glyph-name="afii10100" unicode="&#x453;" horiz-adv-x="798" 
d="M676 1272l-338 -144l-41 82l317 185zM123 942h676v-123h-543v-819h-133v942z" />
    <glyph glyph-name="afii10101" unicode="&#x454;" horiz-adv-x="1054" 
d="M594 410h-389q7 -61 39 -125q29 -57 78 -105q45 -44 106 -71q60 -27 125 -27q131 0 209 66q77 65 108 159l134 -31q-16 -59 -53 -118q-39 -61 -92 -102q-56 -43 -133 -70q-76 -27 -173 -27t-183 40q-90 42 -154 109q-67 70 -105 161q-39 93 -39 202q0 107 39 201t105 163
q63 65 154 108q86 40 183 40q86 0 159 -25q72 -25 124 -63t87 -89q33 -47 50 -99l-133 -31q-11 32 -35 67q-22 32 -59 60t-83 42q-48 15 -110 15q-68 0 -126 -26q-59 -27 -106 -72q-47 -46 -77 -105q-32 -64 -39 -125h389v-122z" />
    <glyph glyph-name="afii10102" unicode="&#x455;" horiz-adv-x="942" 
d="M113 707q0 53 24 103t73 88q46 36 119 61q71 24 163 24q80 0 145 -22q62 -21 115 -58q48 -33 81 -76q32 -41 48 -79l-133 -21q-12 16 -38 46q-17 20 -53 43q-31 20 -71 32q-41 12 -94 12q-65 0 -108 -14q-47 -15 -77 -36q-31 -22 -46 -49t-15 -54q0 -59 47 -89
q46 -29 118 -51q66 -20 152 -40q80 -19 153 -50q71 -30 118 -83t47 -138q0 -58 -27 -111q-28 -54 -79 -95q-53 -43 -128 -66q-80 -25 -176 -25q-85 0 -160 25q-74 25 -125 64q-54 42 -90 92t-55 106l133 20q15 -35 40 -67q27 -35 62 -60q38 -27 85 -42q48 -15 110 -15
q70 0 121 15t86 41q32 24 52 57q18 30 18 61q0 54 -48 87q-45 31 -117 52q-62 19 -153 40q-78 18 -152 50q-71 30 -118 82t-47 140z" />
    <glyph glyph-name="afii10103" unicode="&#x456;" horiz-adv-x="430" 
d="M283 0h-133v942h133v-942zM123 1331q0 39 27 66q26 26 65 26q40 0 66 -26t26 -66q0 -39 -26 -65q-27 -27 -66 -27q-38 0 -65 27t-27 65z" />
    <glyph glyph-name="afii10104" unicode="&#x457;" horiz-adv-x="430" 
d="M-39 1290q0 31 26 57q25 25 56 25t56 -25q26 -26 26 -57q0 -30 -26 -56t-56 -26t-56 26t-26 56zM309 1290q0 31 26 57q25 25 56 25t56 -25q26 -26 26 -57q0 -30 -26 -56t-56 -26t-56 26t-26 56zM287 0h-133v942h133v-942z" />
    <glyph glyph-name="afii10105" unicode="&#x458;" horiz-adv-x="413" 
d="M276 -123q0 -140 -82 -223q-83 -84 -214 -84q-35 0 -65 6q-25 5 -52 14q-18 6 -47 21l30 123q19 -15 35 -21q19 -9 42 -14q25 -6 57 -6q70 0 116 49q47 50 47 135v1065h133v-1065zM117 1331q0 40 26 66t66 26q39 0 65 -26q27 -27 27 -66q0 -38 -27 -65t-65 -27
q-39 0 -66 27q-26 26 -26 65z" />
    <glyph glyph-name="afii10106" unicode="&#x459;" horiz-adv-x="1515" 
d="M686 0v819h-348l-184 -819h-134l216 942h583v-287h266q85 0 153 -25q67 -25 117 -70q48 -43 73 -103q26 -61 26 -129t-26 -129q-26 -62 -73 -104q-48 -43 -117 -69q-70 -26 -153 -26h-399zM1085 123q110 0 172 59q64 61 64 146q0 84 -64 145q-62 59 -172 59h-266v-409
h266z" />
    <glyph glyph-name="afii10107" unicode="&#x45a;" horiz-adv-x="1576" 
d="M737 0v471h-481v-471h-133v942h133v-348h481v348h133v-348h318q152 0 240 -83t88 -214t-88 -214t-240 -83h-451zM1188 123q92 0 143 48t51 126t-51 126t-143 48h-318v-348h318z" />
    <glyph glyph-name="afii10108" unicode="&#x45b;" horiz-adv-x="1095" 
d="M993 0h-133v430q0 148 -75 227q-75 80 -191 80q-78 0 -136 -36q-62 -38 -100 -76q-48 -53 -82 -113v-512h-133v1053h-143v125h143v235h133v-235h256v-125h-256v-367h11q32 45 82 86q43 35 99 61q58 27 136 27q84 0 156 -30t124 -85t81 -135q28 -78 28 -180v-430z" />
    <glyph glyph-name="afii10109" unicode="&#x45c;" horiz-adv-x="1034" 
d="M717 1272l-338 -144l-41 82l317 185zM707 471q36 -6 65 -27q26 -18 46 -51q22 -36 22 -96v-102q0 -93 92 -93h41v-122h-51q-110 0 -162 54q-53 55 -53 140v102q0 61 -35 98q-34 36 -88 36h-328v-410h-133v942h133v-410h307q53 0 88 36q35 37 35 98v102q0 85 53 140
t162 55h51v-123h-41q-92 0 -92 -92v-103q0 -55 -17 -86q-18 -33 -40 -49q-24 -21 -55 -29v-10z" />
    <glyph glyph-name="afii10110" unicode="&#x45e;" horiz-adv-x="1013" 
d="M952 942l-204 -942q-28 -127 -61 -206q-35 -84 -76 -132q-43 -51 -94 -71q-53 -21 -118 -21q-34 0 -64 6q-25 5 -52 14q-18 6 -47 21l30 123q19 -15 35 -21q19 -9 42 -14q25 -6 56 -6q36 0 66 15q29 15 57 50q25 31 50 95q25 62 42 147h-348l-205 942h134l174 -819h276
l174 819h133zM502 1241q69 0 111 42t42 112h103q0 -53 -20 -101t-54 -82t-82 -54q-45 -19 -100 -19q-56 0 -101 19q-48 20 -82 54t-54 82q-19 45 -19 101h102q0 -70 42 -112t112 -42z" />
    <glyph glyph-name="afii10193" unicode="&#x45f;" horiz-adv-x="1054" 
d="M932 0h-338v-225h-133v225h-338v942h133v-819h543v819h133v-942z" />
    <glyph glyph-name="afii10050" unicode="&#x490;" 
d="M297 1280v-1280h-143v1413h811v205h141v-338h-809z" />
    <glyph glyph-name="afii10098" unicode="&#x491;" horiz-adv-x="798" 
d="M256 0h-133v942h543v205h133v-328h-543v-819z" />
    <glyph glyph-name="uni1E9E" unicode="&#x1e9e;" horiz-adv-x="1351" 
d="M655 748v133l359 399h-328q-210 0 -304 -88q-95 -89 -95 -250v-942h-144v942q0 214 138 343q137 128 405 128h512v-123l-358 -399v-10q92 -7 174 -43q77 -33 136 -94q56 -58 88 -135q32 -78 32 -169q0 -97 -34 -177q-34 -81 -100 -139q-65 -57 -164 -91q-98 -33 -224 -33
h-123v133h123q92 0 162 24q72 25 119 64q50 42 73 97q24 57 24 122t-24 122q-23 55 -73 97q-49 41 -119 65t-162 24h-93z" />
    <glyph glyph-name="endash" unicode="&#x2013;" horiz-adv-x="1228" 
d="M61 492v122h1106v-122h-1106z" />
    <glyph glyph-name="emdash" unicode="&#x2014;" horiz-adv-x="1536" 
d="M61 492v122h1414v-122h-1414z" />
    <glyph glyph-name="quoteleft" unicode="&#x2018;" horiz-adv-x="317" 
d="M246 1167q0 -38 -27 -65t-65 -27q-39 0 -66 27t-27 65q0 27 15 56q15 24 16 26l103 174h61l-61 -174q12 -6 24 -18t19 -26q8 -16 8 -38z" />
    <glyph glyph-name="quoteright" unicode="&#x2019;" horiz-adv-x="317" 
d="M72 1331q0 40 26 66t66 26q39 0 65 -26q27 -27 27 -66q0 -15 -5 -32q-4 -12 -11 -25q-3 -6 -8.5 -14.5t-6.5 -10.5l-102 -174h-62l62 174q-15 7 -27 19q-9 9 -17 25q-7 14 -7 38z" />
    <glyph glyph-name="quotesinglbase" unicode="&#x201a;" horiz-adv-x="317" 
d="M72 72q0 39 26 65q27 27 66 27q38 0 65 -27t27 -65q0 -15 -5 -32q-4 -14 -11 -26q-3 -6 -8.5 -14t-6.5 -10l-102 -174h-62l62 174q-17 8 -27 18q-8 8 -17 26q-7 14 -7 38z" />
    <glyph glyph-name="quotedblleft" unicode="&#x201c;" horiz-adv-x="604" 
d="M246 1167q0 -38 -27 -65t-65 -27q-39 0 -66 27t-27 65q0 27 15 56q15 24 16 26l103 174h61l-61 -174q12 -6 24 -18t19 -26q8 -16 8 -38zM532 1167q0 -39 -26 -65q-27 -27 -66 -27q-38 0 -65 27t-27 65q0 29 14 56q1 2 7.5 11t9.5 15l102 174h62l-62 -174q14 -7 25 -18
q10 -10 18 -26t8 -38z" />
    <glyph glyph-name="quotedblright" unicode="&#x201d;" horiz-adv-x="604" 
d="M72 1331q0 40 26 66t66 26q39 0 65 -26q27 -27 27 -66q0 -15 -5 -32q-4 -12 -11 -25q-3 -6 -8.5 -14.5t-6.5 -10.5l-102 -174h-62l62 174q-15 7 -27 19q-9 9 -17 25q-7 14 -7 38zM358 1331q0 39 27 66q26 26 66 26q39 0 65 -26q27 -27 27 -66q0 -15 -5 -32q-3 -8 -12 -25
q-2 -4 -14 -25l-102 -174h-62l62 174q-15 7 -27 19q-9 9 -17 25t-8 38z" />
    <glyph glyph-name="quotedblbase" unicode="&#x201e;" horiz-adv-x="604" 
d="M72 72q0 39 26 65q27 27 66 27q38 0 65 -27t27 -65q0 -15 -5 -32q-4 -14 -11 -26q-3 -6 -8.5 -14t-6.5 -10l-102 -174h-62l62 174q-17 8 -27 18q-8 8 -17 26q-7 14 -7 38zM358 72q0 38 27 65t66 27q38 0 65 -27t27 -65q0 -15 -5 -32q-3 -11 -12 -26q-3 -6 -8 -14.5
t-6 -9.5l-102 -174h-62l62 174q-16 8 -27 18q-8 8 -17 26q-8 16 -8 38z" />
    <glyph glyph-name="dagger" unicode="&#x2020;" horiz-adv-x="819" 
d="M338 881h-297v133h297v399h143v-399h297v-133h-297v-881h-143v881z" />
    <glyph glyph-name="daggerdbl" unicode="&#x2021;" horiz-adv-x="819" 
d="M338 963h-297v133h297v317h143v-317h297v-133h-297v-512h297v-134h-297v-317h-143v317h-297v134h297v512z" />
    <glyph glyph-name="bullet" unicode="&#x2022;" horiz-adv-x="552" 
d="M143 604q0 53 40 93t93 40q54 0 94 -40t40 -93t-40 -93t-94 -40q-53 0 -93 40t-40 93z" />
    <glyph glyph-name="ellipsis" unicode="&#x2026;" horiz-adv-x="1126" 
d="M61 72q0 38 27 65t66 27q38 0 65 -27t27 -65q0 -39 -27 -66q-26 -26 -65 -26q-40 0 -66 26q-27 27 -27 66zM471 72q0 38 27 65t65 27q39 0 66 -27q26 -26 26 -65q0 -40 -26 -66t-66 -26q-39 0 -65 26q-27 27 -27 66zM881 72q0 39 26 65q27 27 66 27q38 0 65 -27t27 -65
q0 -39 -27 -66q-26 -26 -65 -26q-40 0 -66 26t-26 66z" />
    <glyph glyph-name="perthousand" unicode="&#x2030;" horiz-adv-x="2099" 
d="M369 0h-154l870 1413h154zM184 1106q0 -46 16 -91q15 -42 42 -72t59 -46t68 -16q35 0 67 16q34 17 60 46q27 30 42 72t15 91t-15 91t-42 72q-26 29 -60 46q-32 16 -67 16q-36 0 -68 -16t-59 -46t-42 -72q-16 -45 -16 -91zM676 1106q0 -75 -25 -141q-25 -65 -67 -110
q-44 -47 -99 -72q-54 -25 -116 -25q-63 0 -117 25t-98 72t-68 110q-25 66 -25 141q0 73 25 140q24 64 68 111q43 46 98 71q57 26 117 26q59 0 116 -26t99 -71q43 -46 67 -111q25 -67 25 -140zM870 307q0 -46 16 -91q15 -42 42 -72t59 -46t68 -16q35 0 67 16q34 17 60 46
q27 30 42 72t15 91t-15 91t-42 72q-26 29 -60 46q-32 16 -67 16q-36 0 -68 -16t-59 -46t-42 -72q-16 -45 -16 -91zM1362 307q0 -75 -25 -141q-25 -65 -67 -110t-99 -71t-116 -26q-60 0 -117 26q-55 25 -98 71q-44 47 -68 110t-24 141q0 76 24 140t68 111t98 72t117 25
q62 0 116 -25q55 -26 99 -72q43 -46 67 -111q25 -67 25 -140zM1546 307q0 -46 16 -91q15 -42 42 -72t59 -46t68 -16q35 0 67 16q34 17 60 46q27 30 42 72t15 91t-15 91t-42 72q-26 29 -60 46q-32 16 -67 16q-36 0 -68 -16t-59 -46t-42 -72q-16 -45 -16 -91zM2038 307
q0 -75 -25 -141q-25 -65 -67 -110t-99 -71t-116 -26q-60 0 -117 26q-55 25 -98 71q-44 47 -68 110q-25 66 -25 141q0 73 25 140q24 64 68 111t98 72t117 25q62 0 116 -25q55 -26 99 -72q43 -46 67 -111q25 -67 25 -140z" />
    <glyph glyph-name="guilsinglleft" unicode="&#x2039;" horiz-adv-x="675" 
d="M61 471l471 471l82 -82l-378 -389l378 -389l-82 -82z" />
    <glyph glyph-name="guilsinglright" unicode="&#x203a;" horiz-adv-x="675" 
d="M143 0l-82 82l379 389l-379 389l82 82l471 -471z" />
    <glyph glyph-name="fraction" unicode="&#x2044;" horiz-adv-x="1024" 
d="M154 0h-154l870 1413h154z" />
    <glyph glyph-name="foursuperior" unicode="&#x2074;" horiz-adv-x="614" 
d="M379 737v154h-338v102l195 420h122l-194 -420h215v123h113v-123h81v-102h-81v-154h-113z" />
    <glyph glyph-name="Euro" unicode="&#x20ac;" horiz-adv-x="1658" 
d="M901 -61q-118 0 -229 42q-114 43 -203 116q-93 77 -161 178q-68 102 -103 227h-164v123h143q-5 11 -6 24q-1 9 -3 26q-1 10 -1 32q0 20 1 29q2 18 3 26q1 10 6 26h-143v123h164q35 125 103 227q68 101 161 178q91 75 203 117q111 42 229 42q131 0 238 -39
q104 -38 187 -101q82 -62 134 -138q54 -79 76 -153l-143 -20q-23 59 -66 115q-45 59 -104 102q-63 46 -142 73t-180 27q-91 0 -172 -32q-86 -34 -157 -90q-72 -57 -128 -137q-56 -81 -86 -171h553v-123h-583q-5 -16 -6 -26q0 -4 -1.5 -12.5t-2.5 -13.5q-1 -9 -1 -29
q0 -22 1 -32q1 -6 2.5 -15.5t1.5 -10.5q1 -13 6 -24h583v-123h-553q30 -90 86 -171q54 -77 128 -136q74 -58 157 -91q81 -32 172 -32q109 0 193 28t150 77q67 50 112 111q50 68 78 132l143 -21q-29 -86 -88 -171q-58 -83 -142 -147q-86 -65 -197 -104q-108 -38 -249 -38z
" />
    <glyph glyph-name="uni20B4" unicode="&#x20b4;" horiz-adv-x="1300" 
d="M102 788v123h809q32 17 52 37q18 21 34 50q17 31 17 77q0 47 -25 97q-25 51 -69 87q-45 37 -110 60q-63 22 -144 22q-85 0 -148 -18t-109 -52q-47 -35 -78 -81q-32 -48 -55 -105l-143 21q22 75 66 143q46 72 108 118q68 51 155 79q90 29 204 29q112 0 205 -32
q92 -32 155 -87q62 -54 97 -128q34 -71 34 -153q0 -49 -11 -77q-12 -31 -26 -50q-15 -20 -35 -37h113v-123h-1096zM1198 625v-123h-809q-30 -16 -51 -37t-36 -51t-15 -76q0 -49 24 -97q24 -47 70 -86q47 -40 109 -61q63 -22 145 -22q83 0 146 18t109 52q45 34 79 81
q31 43 55 105l143 -21q-23 -81 -65 -144q-46 -70 -109 -117q-69 -52 -154 -79q-87 -28 -204 -28q-116 0 -206 31q-92 32 -155 87q-62 54 -97 128q-34 71 -34 153q0 45 11 76q12 34 24 51q16 22 37 37h-113v123h1096z" />
    <glyph glyph-name="uni20BD" unicode="&#x20bd;" horiz-adv-x="1310" 
d="M707 1413q119 0 215 -36q94 -35 164 -99q67 -61 106 -150q37 -84 37 -186t-37 -186q-39 -89 -106 -150q-70 -64 -164 -99q-96 -36 -215 -36h-328v-143h512v-133h-512v-195h-143v195h-154v133h154v143h-154v133h154v809h471zM379 1280v-676h328q86 0 158 26q71 26 120 70
q49 45 75 107q25 60 25 135t-25 135q-26 62 -75 107q-49 44 -120 70q-72 26 -158 26h-328z" />
    <glyph glyph-name="afii61352" unicode="&#x2116;" horiz-adv-x="2119" 
d="M1464 0v123h533v-123h-533zM1116 246h10v1167h144v-1413h-154l-809 1167h-10v-1167h-143v1413h153zM1546 645q0 -46 16 -91q15 -42 42 -72t59 -46t68 -16q35 0 67 16q34 17 60 46q27 30 42 72t15 91t-15 91t-42 72q-26 29 -60 46q-32 16 -67 16q-36 0 -68 -16t-59 -46
t-42 -72q-16 -45 -16 -91zM2038 645q0 -75 -25 -141q-25 -65 -67 -110t-99 -71t-116 -26q-60 0 -117 26q-55 25 -98 71q-44 47 -68 110q-25 66 -25 141q0 73 25 140q24 64 68 111t98 72t117 25q62 0 116 -25q55 -26 99 -72q43 -46 67 -111q25 -67 25 -140z" />
    <glyph glyph-name="trademark" unicode="&#x2122;" horiz-adv-x="1454" 
d="M1014 922l-236 297v-441h-123v635h133l226 -287l225 287h133v-635h-123v441zM573 1290h-215v-512h-122v512h-216v123h553v-123z" />
    <glyph glyph-name="minus" unicode="&#x2212;" horiz-adv-x="808" 
d="M41 563v133h727v-133h-727z" />
    <glyph glyph-name="commaaccent" unicode="&#xf6c3;" horiz-adv-x="317" 
d="M72 -317q0 39 26 65q27 27 66 27q38 0 65 -27t27 -65q0 -15 -5 -32q-4 -14 -11 -26q-3 -6 -8.5 -14t-6.5 -10l-102 -174h-62l62 174q-17 7 -27 18q-8 8 -17 26q-7 14 -7 38z" />
    <glyph glyph-name="cyrBreve" unicode="&#xf6d1;" horiz-adv-x="675" 
d="M338 1597q-123 0 -200 77t-77 200h113q0 -70 47 -117t117 -47t117 47t47 117h112q0 -124 -76 -200q-77 -77 -200 -77z" />
    <glyph glyph-name="cyrbreve" unicode="&#xf6d4;" horiz-adv-x="634" 
d="M317 1260q70 0 112 42t42 111h102q0 -55 -19 -100q-20 -48 -54 -82t-82 -54t-101 -20q-52 0 -100 20t-82 54t-54 82t-20 100h103q0 -69 42 -111t111 -42z" />
    <glyph glyph-name="Germandbls" horiz-adv-x="1351" 
d="M655 748v133l359 399h-328q-210 0 -304 -88q-95 -89 -95 -250v-942h-144v942q0 214 138 343q137 128 405 128h512v-123l-358 -399v-10q92 -7 174 -43q77 -33 136 -94q56 -58 88 -135q32 -78 32 -169q0 -97 -34 -177q-34 -81 -100 -139q-65 -57 -164 -91q-98 -33 -224 -33
h-123v133h123q92 0 162 24q72 25 119 64q50 42 73 97q24 57 24 122t-24 122q-23 55 -73 97q-49 41 -119 65t-162 24h-93z" />
    <glyph glyph-name="foundryicon" horiz-adv-x="2519" 
d="M205 1659h2109v-1884h-2109v1884zM2273 1618h-2027v-1802h2027v1802zM1526 1249q78 0 121 -40t43 -93t-43 -93t-121 -40h-113v-164h-113v430h226zM1526 614q78 0 121 -40t43 -93t-43 -93t-121 -40h-113v-164h-113v430h226zM860 614h123l82 -153h10l82 153h133l-164 -266
v-164h-112v164zM860 1249h123l82 -153h10l82 153h133l-164 -266v-164h-112v164zM481 522v92h338l51 -92h-143v-338h-113v338h-133zM481 1157v92h338l51 -92h-143v-338h-113v338h-133zM1618 952q40 8 77 42q39 36 46 81h164v-92h-174v-72h245v-92h-358v133zM1618 317
q40 8 77 42q39 36 46 81h164v-92h-174v-72h245v-92h-358v133zM1976 614v-92h-235q-7 29 -30 58q-20 26 -52 34h317zM1976 1249v-92h-235q-7 27 -30 57q-21 27 -52 35h317zM1567 1116q0 16 -13 29q-12 12 -28 12h-113v-82h113q16 0 28 12q13 13 13 29zM1567 481q0 16 -13 29
q-12 12 -28 12h-113v-82h113q15 0 28 13t13 28z" />
    </font>
</defs>
</svg>
