<svg width="66" height="66" viewBox="0 0 66 66" fill="none" xmlns="http://www.w3.org/2000/svg">
<path d="M18.4795 3.87891C17.3561 3.8805 16.2791 4.32758 15.4848 5.1221C14.6905 5.91661 14.2437 6.99371 14.2424 8.11719C14.2424 8.37101 14.3432 8.61443 14.5227 8.79391C14.7021 8.97339 14.9456 9.07422 15.1994 9.07422C15.4532 9.07422 15.6966 8.97339 15.8761 8.79391C16.0556 8.61443 16.1564 8.37101 16.1564 8.11719C16.157 7.50094 16.4021 6.91011 16.8378 6.47436C17.2736 6.03861 17.8644 5.79355 18.4806 5.79297H24.709C24.9628 5.79297 25.2062 5.69214 25.3857 5.51266C25.5652 5.33318 25.666 5.08976 25.666 4.83594C25.666 4.58212 25.5652 4.33869 25.3857 4.15921C25.2062 3.97974 24.9628 3.87891 24.709 3.87891H18.4795Z" fill="#BF3D3D"/>
<path d="M30.4422 3.87891H28.7469C28.4931 3.87891 28.2496 3.97974 28.0702 4.15921C27.8907 4.33869 27.7898 4.58212 27.7898 4.83594C27.7898 5.08976 27.8907 5.33318 28.0702 5.51266C28.2496 5.69214 28.4931 5.79297 28.7469 5.79297H30.4422C30.696 5.79297 30.9394 5.69214 31.1189 5.51266C31.2984 5.33318 31.3992 5.08976 31.3992 4.83594C31.3992 4.58212 31.2984 4.33869 31.1189 4.15921C30.9394 3.97974 30.696 3.87891 30.4422 3.87891Z" fill="#BF3D3D"/>
<path d="M25.1874 2.51172H30.4423C30.6961 2.51172 30.9396 2.41089 31.119 2.23141C31.2985 2.05193 31.3993 1.80851 31.3993 1.55469C31.3993 1.30087 31.2985 1.05744 31.119 0.877964C30.9396 0.698486 30.6961 0.597656 30.4423 0.597656H25.1874C24.9336 0.597656 24.6901 0.698486 24.5107 0.877964C24.3312 1.05744 24.2304 1.30087 24.2304 1.55469C24.2304 1.80851 24.3312 2.05193 24.5107 2.23141C24.6901 2.41089 24.9336 2.51172 25.1874 2.51172Z" fill="#BF3D3D"/>
<path d="M11.917 9.07422C12.0428 9.07443 12.1674 9.04984 12.2837 9.00183C12.4 8.95382 12.5056 8.88336 12.5946 8.79446C12.6836 8.70556 12.7542 8.59998 12.8024 8.48377C12.8505 8.36755 12.8752 8.24298 12.8752 8.11719C12.8768 6.6312 13.4677 5.20652 14.5183 4.15567C15.569 3.10481 16.9936 2.5136 18.4795 2.51172H21.0061C21.2599 2.51172 21.5034 2.41089 21.6828 2.23141C21.8623 2.05193 21.9631 1.80851 21.9631 1.55469C21.9631 1.30087 21.8623 1.05744 21.6828 0.877964C21.5034 0.698486 21.2599 0.597656 21.0061 0.597656H18.4795C16.4861 0.600117 14.575 1.39318 13.1655 2.80286C11.7561 4.21254 10.9633 6.12374 10.9611 8.11719C10.961 8.24279 10.9857 8.36719 11.0337 8.48326C11.0817 8.59933 11.1521 8.70482 11.2409 8.79368C11.3296 8.88255 11.435 8.95307 11.5511 9.0012C11.6671 9.04934 11.7914 9.07415 11.917 9.07422Z" fill="#BF3D3D"/>
<path d="M43.3758 3.87891C42.2521 3.88021 41.1748 4.32716 40.3803 5.12171C39.5858 5.91626 39.1388 6.99353 39.1375 8.11719C39.1375 8.37101 39.2383 8.61443 39.4178 8.79391C39.5973 8.97339 39.8407 9.07422 40.0945 9.07422C40.3483 9.07422 40.5918 8.97339 40.7712 8.79391C40.9507 8.61443 41.0516 8.37101 41.0516 8.11719C41.0521 7.50094 41.2972 6.91011 41.7329 6.47436C42.1687 6.03861 42.7595 5.79355 43.3758 5.79297H46.2616C46.5155 5.79297 46.7589 5.69214 46.9384 5.51266C47.1178 5.33318 47.2187 5.08976 47.2187 4.83594C47.2187 4.58212 47.1178 4.33869 46.9384 4.15921C46.7589 3.97974 46.5155 3.87891 46.2616 3.87891H43.3758Z" fill="#BF3D3D"/>
<path d="M49.3379 4.83594C49.3378 4.96164 49.3625 5.08612 49.4106 5.20226C49.4587 5.31841 49.5292 5.42394 49.618 5.51282C49.7069 5.6017 49.8125 5.6722 49.9286 5.72027C50.0447 5.76834 50.1692 5.79304 50.2949 5.79297H55.3387C55.5926 5.79297 55.836 5.69214 56.0155 5.51266C56.1949 5.33318 56.2958 5.08976 56.2958 4.83594C56.2958 4.58212 56.1949 4.33869 56.0155 4.15921C55.836 3.97974 55.5926 3.87891 55.3387 3.87891H50.2949C50.1692 3.87883 50.0447 3.90354 49.9286 3.95161C49.8125 3.99968 49.7069 4.07017 49.618 4.15905C49.5292 4.24794 49.4587 4.35347 49.4106 4.46961C49.3625 4.58576 49.3378 4.71024 49.3379 4.83594Z" fill="#BF3D3D"/>
<path d="M54.0202 2.51172H55.3387C55.5925 2.51172 55.8359 2.41089 56.0154 2.23141C56.1949 2.05193 56.2957 1.80851 56.2957 1.55469C56.2957 1.30087 56.1949 1.05744 56.0154 0.877964C55.8359 0.698486 55.5925 0.597656 55.3387 0.597656H54.0202C53.7664 0.597656 53.5229 0.698486 53.3435 0.877964C53.164 1.05744 53.0631 1.30087 53.0631 1.55469C53.0631 1.80851 53.164 2.05193 53.3435 2.23141C53.5229 2.41089 53.7664 2.51172 54.0202 2.51172Z" fill="#BF3D3D"/>
<path d="M36.8133 9.07422C37.0671 9.07422 37.3105 8.97339 37.49 8.79391C37.6695 8.61443 37.7703 8.37101 37.7703 8.11719C37.7719 6.63101 38.363 5.20617 39.4139 4.15528C40.4648 3.1044 41.8896 2.51331 43.3758 2.51172H48.7565C49.0103 2.51172 49.2537 2.41089 49.4332 2.23141C49.6127 2.05193 49.7135 1.80851 49.7135 1.55469C49.7135 1.30087 49.6127 1.05744 49.4332 0.877964C49.2537 0.698486 49.0103 0.597656 48.7565 0.597656H43.3758C41.3821 0.599828 39.4708 1.39276 38.0611 2.80247C36.6514 4.21219 35.8584 6.12355 35.8562 8.11719C35.8562 8.24289 35.8809 8.36737 35.929 8.48351C35.977 8.59966 36.0475 8.70519 36.1364 8.79407C36.2253 8.88295 36.3308 8.95345 36.447 9.00152C36.5631 9.04959 36.6876 9.07429 36.8133 9.07422Z" fill="#BF3D3D"/>
<path d="M57.8828 32.3083C57.629 32.3083 57.3856 32.4091 57.2061 32.5886C57.0266 32.768 56.9258 33.0115 56.9258 33.2653V36.5465C56.9258 36.8004 57.0266 37.0438 57.2061 37.2233C57.3856 37.4027 57.629 37.5036 57.8828 37.5036C58.1366 37.5036 58.3801 37.4027 58.5595 37.2233C58.739 37.0438 58.8398 36.8004 58.8398 36.5465V33.2653C58.8398 33.0115 58.739 32.768 58.5595 32.5886C58.3801 32.4091 58.1366 32.3083 57.8828 32.3083Z" fill="#BF3D3D"/>
<path d="M64.4453 60.207H62.1211V26.246L64.5596 25.9529C64.807 25.9173 65.0307 25.7863 65.1828 25.5879C65.3349 25.3895 65.4033 25.1395 65.3734 24.8913C65.3436 24.6431 65.2178 24.4165 65.023 24.2598C64.8282 24.1032 64.5798 24.029 64.331 24.0531L44.8388 26.3948L44.3138 15.3829C44.4822 15.3077 44.6252 15.1854 44.7257 15.0308C44.8261 14.8761 44.8796 14.6956 44.8798 14.5112V11.2299C44.8796 10.9762 44.7787 10.7328 44.5993 10.5534C44.4198 10.3739 44.1765 10.2731 43.9227 10.2729H32.9852C32.7314 10.2729 32.488 10.3737 32.3085 10.5532C32.129 10.7327 32.0282 10.9761 32.0282 11.2299V14.5112C32.0279 14.6964 32.0814 14.8777 32.1823 15.0331C32.2832 15.1884 32.4271 15.3111 32.5964 15.3862L32.0003 27.9403L20.0823 29.3709L19.4195 15.3818C19.5875 15.3066 19.7303 15.1844 19.8305 15.03C19.9308 14.8755 19.9842 14.6953 19.9844 14.5112V11.2299C19.9844 10.9761 19.8835 10.7327 19.7041 10.5532C19.5246 10.3737 19.2812 10.2729 19.0273 10.2729H8.08984C7.83602 10.2729 7.5926 10.3737 7.41312 10.5532C7.23364 10.7327 7.13281 10.9761 7.13281 11.2299V14.5112C7.13281 14.6967 7.18679 14.8782 7.28817 15.0336C7.38954 15.189 7.53394 15.3115 7.70375 15.3862L5.95758 52.0038H5.22969C4.98382 52.0038 4.74738 52.0985 4.5694 52.2681C4.39142 52.4377 4.28555 52.6694 4.27375 52.9149L3.92375 60.207H1.55469C1.42899 60.2069 1.30451 60.2316 1.18836 60.2797C1.07222 60.3277 0.966687 60.3982 0.877804 60.4871C0.788921 60.576 0.71843 60.6815 0.67036 60.7977C0.62229 60.9138 0.597585 61.0383 0.597656 61.164V64.4453C0.597585 64.5709 0.62229 64.6954 0.67036 64.8116C0.71843 64.9277 0.788921 65.0333 0.877804 65.1221C0.966687 65.211 1.07222 65.2815 1.18836 65.3296C1.30451 65.3777 1.42899 65.4024 1.55469 65.4023H64.4453C64.571 65.4024 64.6955 65.3777 64.8116 65.3296C64.9278 65.2815 65.0333 65.211 65.1222 65.1221C65.2111 65.0333 65.2816 64.9277 65.3296 64.8116C65.3777 64.6954 65.4024 64.5709 65.4023 64.4453V61.164C65.4024 61.0383 65.3777 60.9138 65.3296 60.7977C65.2816 60.6815 65.2111 60.576 65.1222 60.4871C65.0333 60.3982 64.9278 60.3277 64.8116 60.2797C64.6955 60.2316 64.571 60.2069 64.4453 60.207ZM54.8373 60.207V50.2265C54.8373 49.9727 54.7364 49.7293 54.557 49.5498C54.3775 49.3703 54.1341 49.2695 53.8802 49.2695H47.3177C47.192 49.2694 47.0676 49.2941 46.9514 49.3422C46.8353 49.3902 46.7297 49.4607 46.6409 49.5496C46.552 49.6385 46.4815 49.744 46.4334 49.8602C46.3853 49.9763 46.3606 50.1008 46.3607 50.2265V60.207H44.8841V50.2265C44.8841 49.9727 44.7833 49.7293 44.6038 49.5498C44.4244 49.3703 44.1809 49.2695 43.9271 49.2695H37.3646C37.2389 49.2694 37.1144 49.2941 36.9983 49.3422C36.8821 49.3902 36.7766 49.4607 36.6877 49.5496C36.5988 49.6385 36.5284 49.744 36.4803 49.8602C36.4322 49.9763 36.4075 50.1008 36.4076 50.2265V60.207H14.5156V31.968L60.207 26.4768V60.207H54.8373ZM52.9232 60.207H48.2748V51.1835H52.9232V60.207ZM42.9701 60.207H38.3216V51.1835H42.9701V60.207ZM33.9466 12.187H42.9701V13.5542H33.9466V12.187ZM34.5132 15.4682H42.4019L42.9334 26.6245L33.9297 27.7067L34.5132 15.4682ZM9.05016 12.187H18.0703V13.5542H9.04688L9.05016 12.187ZM9.61945 15.4682H17.5076L18.1764 29.5995L10.162 30.5636C9.92031 30.5932 9.69903 30.7138 9.54317 30.9008C9.3873 31.0878 9.30857 31.3272 9.323 31.5703C9.33742 31.8133 9.44392 32.0417 9.62082 32.2089C9.79772 32.3762 10.0317 32.4698 10.2752 32.4706C10.3137 32.4705 10.3522 32.4684 10.3905 32.464L12.6016 32.1977V52.0038H7.87383L9.61945 15.4682ZM6.14187 53.9179H12.6016V60.207H5.84L6.14187 53.9179ZM63.4883 63.4882H2.51172V62.121H63.4883V63.4882Z" fill="#BF3D3D"/>
<path d="M31.0575 46.0796H20.12C19.8662 46.0796 19.6228 46.1805 19.4433 46.3599C19.2638 46.5394 19.163 46.7828 19.163 47.0367C19.163 47.2905 19.2638 47.5339 19.4433 47.7134C19.6228 47.8929 19.8662 47.9937 20.12 47.9937H31.0575C31.3113 47.9937 31.5548 47.8929 31.7342 47.7134C31.9137 47.5339 32.0145 47.2905 32.0145 47.0367C32.0145 46.7828 31.9137 46.5394 31.7342 46.3599C31.5548 46.1805 31.3113 46.0796 31.0575 46.0796Z" fill="#BF3D3D"/>
<path d="M31.0575 39.5171H20.12C19.8662 39.5171 19.6228 39.618 19.4433 39.7974C19.2638 39.9769 19.163 40.2203 19.163 40.4742C19.163 40.728 19.2638 40.9714 19.4433 41.1509C19.6228 41.3304 19.8662 41.4312 20.12 41.4312H31.0575C31.3113 41.4312 31.5548 41.3304 31.7342 41.1509C31.9137 40.9714 32.0145 40.728 32.0145 40.4742C32.0145 40.2203 31.9137 39.9769 31.7342 39.7974C31.5548 39.618 31.3113 39.5171 31.0575 39.5171Z" fill="#BF3D3D"/>
<path d="M31.0575 42.7984H20.12C19.8662 42.7984 19.6228 42.8992 19.4433 43.0787C19.2638 43.2582 19.163 43.5016 19.163 43.7554C19.163 44.0092 19.2638 44.2527 19.4433 44.4321C19.6228 44.6116 19.8662 44.7124 20.12 44.7124H31.0575C31.3113 44.7124 31.5548 44.6116 31.7342 44.4321C31.9137 44.2527 32.0145 44.0092 32.0145 43.7554C32.0145 43.5016 31.9137 43.2582 31.7342 43.0787C31.5548 42.8992 31.3113 42.7984 31.0575 42.7984Z" fill="#BF3D3D"/>
<path d="M42.2847 41.1578H39.0035C38.8778 41.1577 38.7533 41.1824 38.6372 41.2305C38.521 41.2785 38.4155 41.349 38.3266 41.4379C38.2377 41.5268 38.1672 41.6323 38.1192 41.7485C38.0711 41.8646 38.0464 41.9891 38.0465 42.1148V45.396C38.0464 45.5217 38.0711 45.6462 38.1192 45.7624C38.1672 45.8785 38.2377 45.984 38.3266 46.0729C38.4155 46.1618 38.521 46.2323 38.6372 46.2804C38.7533 46.3284 38.8778 46.3531 39.0035 46.3531H42.2847C42.5386 46.3531 42.782 46.2522 42.9615 46.0728C43.1409 45.8933 43.2418 45.6499 43.2418 45.396V42.1148C43.2418 41.861 43.1409 41.6175 42.9615 41.4381C42.782 41.2586 42.5386 41.1578 42.2847 41.1578ZM41.3277 44.439H39.9605V43.0718H41.3277V44.439Z" fill="#BF3D3D"/>
<path d="M52.2395 41.1578H48.9583C48.8326 41.1577 48.7081 41.1824 48.5919 41.2305C48.4758 41.2785 48.3703 41.349 48.2814 41.4379C48.1925 41.5268 48.122 41.6323 48.0739 41.7485C48.0259 41.8646 48.0011 41.9891 48.0012 42.1148V45.396C48.0011 45.5217 48.0259 45.6462 48.0739 45.7624C48.122 45.8785 48.1925 45.984 48.2814 46.0729C48.3703 46.1618 48.4758 46.2323 48.5919 46.2804C48.7081 46.3284 48.8326 46.3531 48.9583 46.3531H52.2395C52.4933 46.3531 52.7367 46.2522 52.9162 46.0728C53.0957 45.8933 53.1965 45.6499 53.1965 45.396V42.1148C53.1965 41.861 53.0957 41.6175 52.9162 41.4381C52.7367 41.2586 52.4933 41.1578 52.2395 41.1578ZM51.2825 44.439H49.9153V43.0718H51.2825V44.439Z" fill="#BF3D3D"/>
</svg>
