<svg width="70" height="58" viewBox="0 0 70 58" fill="none" xmlns="http://www.w3.org/2000/svg">
<path d="M35 46.7734C34.2453 46.7734 33.6328 47.3859 33.6328 48.1406C33.6328 48.8953 34.2453 49.5078 35 49.5078C35.7547 49.5078 36.3672 48.8953 36.3672 48.1406C36.3672 47.3859 35.7547 46.7734 35 46.7734Z" fill="#BF3D3D"/>
<path d="M64.133 2.39043C60.7686 1.03541 56.3944 0.289062 51.8164 0.289062C47.2384 0.289062 42.8642 1.03541 39.4998 2.39043C37.5117 3.19119 35.9937 4.16982 35 5.26795C34.0063 4.16982 32.4883 3.19133 30.5002 2.39057C27.1358 1.03541 22.7616 0.289062 18.1836 0.289062C13.6056 0.289062 9.23139 1.03541 5.86701 2.39043C2.08359 3.9143 0 6.08129 0 8.49219V41.3047C0 43.7156 2.08359 45.8826 5.86701 47.4064C8.99609 48.6667 12.9989 49.3995 17.2266 49.4961V49.5078C17.2266 54.1844 24.8675 57.7109 35 57.7109C45.1325 57.7109 52.7734 54.1844 52.7734 49.5078V49.4961C57.0011 49.3995 61.0039 48.6667 64.133 47.4064C67.9164 45.8826 70 43.7156 70 41.3047V8.49219C70 6.08129 67.9164 3.9143 64.133 2.39043ZM67.2656 33.1016C67.2656 34.2687 65.6738 35.6348 63.1114 36.6669C60.3381 37.7839 56.6147 38.4597 52.7734 38.5568V33.1016C52.7734 33.0976 52.7732 33.0936 52.7732 33.0898C57.0009 32.9934 61.0038 32.2606 64.1331 31.0002C65.3613 30.5055 66.4089 29.9428 67.2658 29.3262L67.2656 33.1016ZM33.6328 16.6953C33.6328 17.8625 32.041 19.2286 29.4786 20.2607C26.4753 21.4704 22.3584 22.1641 18.1836 22.1641C14.0087 22.1641 9.89187 21.4704 6.88857 20.2607C4.32619 19.2286 2.73438 17.8625 2.73438 16.6953V12.92C3.59119 13.5366 4.63887 14.0993 5.86701 14.5939C9.23139 15.949 13.6056 16.6953 18.1836 16.6953C22.7616 16.6953 27.1358 15.949 30.5002 14.5939C31.7283 14.0993 32.776 13.5366 33.6328 12.92V16.6953ZM5.86701 22.7971C9.23139 24.1521 13.6056 24.8984 18.1836 24.8984C22.7616 24.8984 27.1358 24.1521 30.5002 22.7971C31.7283 22.3024 32.776 21.7397 33.6328 21.1231V24.9226C30.0959 25.0424 26.7039 25.6229 23.9604 26.5891C21.2086 27.5583 19.2285 28.8507 18.1517 30.3668C13.9878 30.3632 9.88422 29.6703 6.88857 28.4638C4.32619 27.4317 2.73438 26.0656 2.73438 24.8984V21.1231C3.59119 21.7397 4.63887 22.3024 5.86701 22.7971ZM2.73438 29.3262C3.59119 29.9428 4.63887 30.5055 5.86701 31.0002C8.99623 32.2605 12.9992 32.9933 17.227 33.0898C17.227 33.0938 17.2267 33.0977 17.2267 33.1016V38.5568C13.3853 38.4597 9.66205 37.7839 6.88871 36.6669C4.32619 35.6348 2.73438 34.2687 2.73438 33.1016V29.3262ZM20.1056 32.4299C21.1188 30.0719 26.967 27.6328 35 27.6328C43.033 27.6328 48.8812 30.0719 49.8933 32.4271C49.9915 32.657 50.0391 32.8775 50.0391 33.1016C50.0391 34.3036 48.5572 35.6388 46.0749 36.6731C43.1387 37.8966 39.2056 38.5703 35 38.5703C30.7944 38.5703 26.8613 37.8966 23.9251 36.6731C21.4428 35.6388 19.9609 34.3036 19.9609 33.1016C19.9609 32.8775 20.0087 32.657 20.1056 32.4299ZM67.2656 24.8984C67.2656 26.0656 65.6738 27.4317 63.1114 28.4638C60.1159 29.6703 56.0124 30.3632 51.8487 30.3668C50.7727 28.8515 48.7923 27.5586 46.0396 26.5891C43.2961 25.6228 39.9041 25.0424 36.3672 24.9226V21.1231C37.224 21.7397 38.2717 22.3024 39.4998 22.7971C42.8642 24.1521 47.2384 24.8984 51.8164 24.8984C56.3944 24.8984 60.7686 24.1521 64.133 22.7971C65.3611 22.3024 66.4088 21.7397 67.2656 21.1231V24.8984ZM67.2656 16.6953C67.2656 17.8625 65.6738 19.2286 63.1114 20.2607C60.1081 21.4704 55.9912 22.1641 51.8164 22.1641C47.6416 22.1641 43.5247 21.4704 40.5214 20.2607C37.959 19.2286 36.3672 17.8625 36.3672 16.6953V12.92C37.224 13.5366 38.2717 14.0993 39.4998 14.5939C42.8642 15.949 47.2384 16.6953 51.8164 16.6953C56.3944 16.6953 60.7686 15.949 64.133 14.5939C65.3611 14.0993 66.4088 13.5366 67.2656 12.92V16.6953ZM40.5214 4.92684C43.5247 3.71715 47.6416 3.02344 51.8164 3.02344C55.9912 3.02344 60.1081 3.71715 63.1114 4.92684C65.6738 5.95893 67.2656 7.32502 67.2656 8.49219C67.2656 9.65936 65.6738 11.0254 63.1114 12.0575C60.1081 13.2672 55.9912 13.9609 51.8164 13.9609C47.6416 13.9609 43.5247 13.2672 40.5214 12.0575C37.959 11.0254 36.3672 9.65936 36.3672 8.49219C36.3672 7.32502 37.959 5.95893 40.5214 4.92684ZM6.88857 4.92684C9.89187 3.71715 14.0087 3.02344 18.1836 3.02344C22.3584 3.02344 26.4753 3.71715 29.4786 4.92684C32.041 5.95893 33.6328 7.32502 33.6328 8.49219C33.6328 9.65936 32.041 11.0254 29.4786 12.0575C26.4753 13.2672 22.3584 13.9609 18.1836 13.9609C14.0087 13.9609 9.89187 13.2672 6.88857 12.0575C4.32619 11.0254 2.73438 9.65936 2.73438 8.49219C2.73438 7.32502 4.32619 5.95893 6.88857 4.92684ZM6.88857 44.87C4.32619 43.8379 2.73438 42.4719 2.73438 41.3047V37.5293C3.59119 38.1459 4.63887 38.7087 5.86701 39.2033C8.99609 40.4636 12.9989 41.1964 17.2266 41.2929V46.76C13.3852 46.6628 9.66191 45.9872 6.88857 44.87ZM46.0749 53.0793C43.1387 54.3028 39.2056 54.9766 35 54.9766C30.7944 54.9766 26.8613 54.3028 23.9251 53.0793C21.4428 52.045 19.9609 50.7098 19.9609 49.5078V45.8122C20.2706 46.0363 20.6128 46.259 20.9923 46.4785C23.1154 47.7071 26.0042 48.6159 29.3464 49.1064C29.4138 49.1162 29.4805 49.121 29.5467 49.121C30.2139 49.121 30.7978 48.632 30.8976 47.9522C31.0073 47.2052 30.4905 46.5107 29.7436 46.401C23.3896 45.4682 19.9609 43.0792 19.9609 41.3047V37.5969C23.0554 39.8612 28.5178 41.3047 35 41.3047C41.4822 41.3047 46.9446 39.8612 50.0391 37.5969V41.3047C50.0391 43.0792 46.6104 45.4682 40.2564 46.401C39.5094 46.5107 38.9926 47.2052 39.1024 47.9522C39.2022 48.6321 39.7861 49.121 40.4533 49.121C40.5193 49.121 40.5863 49.1162 40.6536 49.1064C43.9957 48.6159 46.8844 47.7072 49.0077 46.4785C49.3871 46.259 49.7294 46.0363 50.0391 45.8122V49.5078C50.0391 50.7098 48.5572 52.045 46.0749 53.0793ZM63.1114 44.87C60.3381 45.987 56.6147 46.6628 52.7734 46.7599V41.2928C57.0011 41.1963 61.0039 40.4635 64.133 39.2032C65.3611 38.7085 66.4088 38.1458 67.2656 37.5292V41.3047C67.2656 42.4719 65.6738 43.8379 63.1114 44.87Z" fill="#BF3D3D"/>
</svg>
