<svg width="70" height="68" viewBox="0 0 70 68" fill="none" xmlns="http://www.w3.org/2000/svg">
<path d="M68.3772 19.0257C68.3559 19.0112 68.3345 18.9969 68.3131 18.9829L60.0761 13.4928H60.3174V5.04835C60.3174 4.38215 59.7773 3.84201 59.111 3.84201H53.0793C52.4131 3.84201 51.873 4.38215 51.873 5.04835V8.022L40.479 0.422009C40.0737 0.151485 39.5453 0.151485 39.14 0.422009L11.3059 18.9829C9.58685 20.1034 9.10159 22.4054 10.2221 24.1245C11.3427 25.8435 13.6447 26.3288 15.3637 25.2082C15.3853 25.1942 15.4067 25.1799 15.4278 25.1654L19.3016 22.5826V46.0642H16.8889C16.8889 45.398 16.3487 44.8578 15.6825 44.8578H6.03174C5.36553 44.8578 4.82539 45.398 4.82539 46.0642H0V48.4769H4.82539V60.5403H0V62.953H4.82539C4.82539 63.6193 5.36553 64.1594 6.03174 64.1594H15.6825C16.3487 64.1594 16.8889 63.6193 16.8889 62.953V62.4934L25.8955 66.2331C30.8058 68.2367 36.2943 68.297 41.2475 66.402L59.8831 59.2978C60.9868 58.8782 61.8748 58.0314 62.3465 56.9491C62.8355 55.8513 62.8611 54.6026 62.4177 53.4856C62.0232 52.4872 61.2758 51.6686 60.3174 51.1851V22.5826L64.191 25.1654C65.8865 26.3214 68.198 25.8841 69.354 24.1887C70.51 22.4932 70.0727 20.1817 68.3772 19.0257ZM14.4762 61.7467H7.23809V47.2705H14.4762V61.7467ZM54.2857 6.2547H57.9047V12.0452L54.2857 9.63247V6.2547ZM60.1401 55.9743C59.9262 56.4661 59.5238 56.8512 59.023 57.0431L40.3873 64.1485C36.0083 65.8255 31.1551 65.7729 26.8135 64.0014L16.8889 59.8793V48.4769H19.947C23.9471 48.4815 27.8917 49.413 31.4712 51.1984C32.6537 51.7871 33.9563 52.0943 35.2772 52.0959H44.6349C45.6342 52.1018 46.4397 52.9165 46.4338 53.916C46.429 54.7535 45.85 55.4784 45.0342 55.6679C44.8761 55.6824 44.7205 55.715 44.5601 55.715H30.1587V58.1277H44.5601C44.5854 58.1277 44.6095 58.1277 44.6349 58.1277C44.659 58.1277 44.6819 58.1204 44.7073 58.1204C45.6645 58.1046 46.6098 57.9048 47.4915 57.5317L57.5778 53.2492C58.0582 53.0441 58.6017 53.0441 59.0821 53.2492C59.5814 53.4613 59.9733 53.867 60.1678 54.3735C60.3732 54.8894 60.3632 55.466 60.1401 55.9743ZM44.6349 49.6832H35.2772C34.3307 49.6816 33.3973 49.4616 32.5497 49.0402C29.1684 47.3554 25.4844 46.3641 21.7143 46.1245V20.9721L39.8095 8.90867L57.9047 20.9721V50.7231C57.4685 50.76 57.0402 50.8626 56.6344 51.0271L48.8125 54.3494C48.8352 54.2024 48.8502 54.0541 48.8571 53.9054C48.8571 51.5736 46.9667 49.6832 44.6349 49.6832ZM66.8679 23.222V23.2184C66.4446 23.4485 65.9283 23.4237 65.5288 23.1544L40.479 6.45737C40.0737 6.18684 39.5453 6.18684 39.14 6.45737L14.0901 23.158C13.4906 23.5572 12.6811 23.3946 12.282 22.7951C12.1395 22.581 12.0635 22.3296 12.0635 22.0723C12.0627 21.6361 12.2806 21.2283 12.6437 20.9866L39.8095 2.87693L66.9752 20.9902C67.3383 21.2321 67.5562 21.6397 67.5555 22.076C67.5592 22.5567 67.2937 22.9991 66.8679 23.222Z" fill="#BF3D3D"/>
<path d="M12.0634 56.9215H9.65074V59.3342H12.0634V56.9215Z" fill="#BF3D3D"/>
<path d="M43.2729 33.1496C42.9948 32.2555 42.3633 31.5139 41.5249 31.0968L39.1737 29.9206C38.6646 29.6664 38.4582 29.0477 38.7124 28.5386C38.8867 28.1897 39.2432 27.9691 39.6333 27.9688H39.9855C40.554 27.9701 41.0144 28.4305 41.0158 28.999V29.1751H43.4285V28.999C43.4229 27.5001 42.4467 26.1776 41.0158 25.731V24.3497H38.6031V25.731C36.7937 26.2938 35.7832 28.2167 36.346 30.026C36.624 30.9201 37.2556 31.6617 38.094 32.0788L40.4452 33.255C40.9543 33.5092 41.1607 34.1279 40.9064 34.637C40.7321 34.986 40.3757 35.2066 39.9855 35.2069H39.6333C39.0648 35.2055 38.6044 34.7451 38.6031 34.1766V34.0005H36.1904V34.1766C36.1959 35.6755 37.1722 36.998 38.6031 37.4446V38.8259H41.0158V37.4446C42.8252 36.8819 43.8356 34.959 43.2729 33.1496Z" fill="#BF3D3D"/>
<path d="M39.8095 19.5243C33.15 19.5315 27.7534 24.9283 27.746 31.5878C27.746 38.2503 33.147 43.6512 39.8095 43.6512C46.472 43.6512 51.873 38.2503 51.873 31.5878C51.873 24.9254 46.472 19.5243 39.8095 19.5243ZM39.8095 41.2385C34.4795 41.2385 30.1587 36.9177 30.1587 31.5878C30.1587 26.2578 34.4795 21.937 39.8095 21.937C45.137 21.943 49.4542 26.2602 49.4603 31.5878C49.4603 36.9179 45.1394 41.2385 39.8095 41.2385Z" fill="#BF3D3D"/>
<path d="M47.0476 30.3814H44.6349V32.7941H47.0476V30.3814Z" fill="#BF3D3D"/>
<path d="M34.9841 30.3814H32.5714V32.7941H34.9841V30.3814Z" fill="#BF3D3D"/>
</svg>
