<svg width="19" height="20" viewBox="0 0 19 20" fill="none" xmlns="http://www.w3.org/2000/svg">
<g clip-path="url(#clip0)">
<path d="M17.9514 20.0001C18.5304 20.0001 19 19.5059 19 18.8962V1.10383C19 0.494141 18.5304 0 17.9514 0H1.04864C0.469359 0 0 0.494141 0 1.10383V18.8962C0 19.5059 0.469359 20.0001 1.04864 20.0001H17.9514Z" fill="#395185"/>
<path d="M13.11 19.9999V12.2548H15.5798L15.9496 9.23644H13.11V7.30926C13.11 6.43535 13.3406 5.8398 14.5312 5.8398L16.0496 5.8391V3.13949C15.7869 3.1027 14.8856 3.02051 13.837 3.02051C11.6477 3.02051 10.1489 4.42715 10.1489 7.01043V9.23644H7.67285V12.2548H10.1489V19.9999H13.11Z" fill="white"/>
</g>
<defs>
<clipPath id="clip0">
<rect width="19" height="20" fill="white"/>
</clipPath>
</defs>
</svg>
