<svg width="120" height="18" viewBox="0 0 120 18" fill="none" xmlns="http://www.w3.org/2000/svg">
<path d="M72.2111 6.91459H68.4462V4.27957C68.4462 3.51336 68.4045 3.03681 68.321 2.84993C68.2435 2.65682 68.0677 2.56027 67.7934 2.56027C67.4834 2.56027 67.2867 2.67551 67.2032 2.90599C67.1198 3.13648 67.078 3.63483 67.078 4.40104V11.4278C67.078 12.1628 67.1198 12.6425 67.2032 12.8667C67.2867 13.091 67.4745 13.2031 67.7666 13.2031C68.0468 13.2031 68.2286 13.091 68.3121 12.8667C68.4015 12.6425 68.4462 12.1161 68.4462 11.2876V9.39075H72.2111V9.97943C72.2111 11.543 72.1037 12.6518 71.8891 13.3059C71.6805 13.96 71.2125 14.5331 70.4851 15.0252C69.7638 15.5173 68.8725 15.7634 67.8113 15.7634C66.7084 15.7634 65.7992 15.5547 65.0838 15.1373C64.3684 14.72 63.8945 14.1438 63.662 13.4087C63.4295 12.6674 63.3132 11.5555 63.3132 10.0729V5.65314C63.3132 4.563 63.349 3.74696 63.4205 3.205C63.4921 2.65682 63.7037 2.13044 64.0555 1.62586C64.4132 1.12128 64.905 0.72572 65.531 0.43917C66.1629 0.14639 66.8873 0 67.704 0C68.8129 0 69.728 0.224257 70.4494 0.67277C71.1707 1.12128 71.6447 1.68193 71.8712 2.3547C72.0978 3.02124 72.2111 4.06154 72.2111 5.4756V6.91459Z" fill="#282828"/>
<path d="M11.6164 15.4457V0.317697H6.70691L5.84842 7.38179L5.32976 3.53204C5.16879 2.29863 5.01677 1.22718 4.87369 0.317697H0V15.4457H3.29086V5.46626L4.67695 15.4457H7.01096L8.32551 5.23266V15.4457H11.6164Z" fill="#282828"/>
<path fill-rule="evenodd" clip-rule="evenodd" d="M16.5258 9.46551H21.2028V7.82096C21.2028 6.61869 21.0686 5.6874 20.8004 5.02709C20.538 4.36055 20.076 3.82794 19.4143 3.42926C18.7585 3.02435 17.9238 2.8219 16.9104 2.8219C16.0817 2.8219 15.3484 2.99009 14.7105 3.32648C14.0726 3.65663 13.6135 4.13629 13.3333 4.76546C13.0531 5.38839 12.913 6.24181 12.913 7.32572V10.9419C12.913 11.8638 12.9756 12.5677 13.1008 13.0536C13.226 13.5333 13.4496 13.9756 13.7715 14.3805C14.0994 14.7791 14.5555 15.0937 15.1397 15.3242C15.724 15.5547 16.3976 15.6699 17.1607 15.6699C17.9477 15.6699 18.6005 15.5547 19.1192 15.3242C19.6438 15.0875 20.076 14.7355 20.4158 14.2683C20.7556 13.8011 20.9703 13.362 21.0597 12.9508C21.1551 12.5397 21.2028 11.951 21.2028 11.1848V10.2691H17.7778V11.9043C17.7778 12.521 17.7301 12.9384 17.6347 13.1564C17.5453 13.3682 17.3634 13.4741 17.0892 13.4741C16.8686 13.4741 16.7196 13.3931 16.6421 13.2312C16.5646 13.0692 16.5258 12.7079 16.5258 12.1472V9.46551ZM17.581 6.54082V7.4472H16.5258V6.54082C16.5258 5.84314 16.5556 5.41642 16.6152 5.26069C16.6749 5.09873 16.8299 5.01775 17.0803 5.01775C17.283 5.01775 17.4171 5.11119 17.4827 5.29807C17.5483 5.48495 17.581 5.8992 17.581 6.54082Z" fill="#282828"/>
<path d="M29.5462 3.04616V5.6438H27.4804V15.4457H23.8766V5.6438H21.8019V3.04616H29.5462Z" fill="#282828"/>
<path fill-rule="evenodd" clip-rule="evenodd" d="M30.1185 7.84899H33.5077V6.55017C33.5077 5.85871 33.5375 5.432 33.5971 5.27004C33.6568 5.10184 33.8088 5.01775 34.0532 5.01775C34.2678 5.01775 34.4199 5.11742 34.5093 5.31676C34.6047 5.50987 34.6524 5.93035 34.6524 6.5782C34.6524 7.09524 34.6106 7.43785 34.5272 7.60604C34.4437 7.77424 33.8088 8.10128 32.6224 8.58717C31.5135 9.03568 30.819 9.42813 30.5388 9.76452C30.2586 10.1009 30.1185 10.7332 30.1185 11.6614V12.6799C30.1185 13.932 30.3808 14.7449 30.9054 15.1186C31.436 15.4862 32.0173 15.6699 32.6492 15.6699C33.1321 15.6699 33.5465 15.5609 33.8922 15.3429C34.244 15.1186 34.5302 14.7854 34.7507 14.3431V15.4457H38.2651V9.22256C38.2651 7.1731 38.2025 5.82133 38.0774 5.16725C37.9522 4.50694 37.5796 3.95253 36.9595 3.50401C36.3395 3.04927 35.4184 2.8219 34.1963 2.8219C33.1768 2.8219 32.3482 3.02124 31.7103 3.41992C31.0724 3.8186 30.6461 4.27957 30.4315 4.80283C30.2228 5.31987 30.1185 6.05805 30.1185 7.01737V7.84899ZM33.6419 10.6615C33.7372 10.3625 34.0741 9.99189 34.6524 9.5496V12.1005C34.6524 12.7235 34.6166 13.1097 34.5451 13.2592C34.4795 13.4025 34.3334 13.4741 34.1069 13.4741C33.8684 13.4741 33.7074 13.3807 33.624 13.1938C33.5465 13.0069 33.5077 12.5926 33.5077 11.951C33.5077 11.3904 33.5524 10.9606 33.6419 10.6615Z" fill="#282828"/>
<path d="M44.9989 15.4457V5.6438H43.7201V11.9043C43.7201 13.0443 43.5949 13.8603 43.3445 14.3524C43.0941 14.8383 42.6977 15.1436 42.1552 15.2682C41.6186 15.3865 40.7363 15.4457 39.5082 15.4457H38.918V13.418C39.377 13.4118 39.693 13.3526 39.8659 13.2405C40.0388 13.1221 40.1252 12.7141 40.1252 12.0164V3.04616H48.5848V15.4457H44.9989Z" fill="#282828"/>
<path d="M55.2828 5.6438V15.4457H58.8688V3.04616H50.4091V12.0164C50.4091 12.7141 50.3227 13.1221 50.1498 13.2405C49.9769 13.3526 49.6609 13.4118 49.2019 13.418V15.4457H49.7921C51.0202 15.4457 51.9025 15.3865 52.4391 15.2682C52.9816 15.1436 53.378 14.8383 53.6284 14.3524C53.8788 13.8603 54.004 13.0443 54.004 11.9043V5.6438H55.2828Z" fill="#282828"/>
<path fill-rule="evenodd" clip-rule="evenodd" d="M76.9595 9.46551H81.6365V7.82096C81.6365 6.61869 81.5024 5.6874 81.2341 5.02709C80.9718 4.36055 80.5097 3.82794 79.848 3.42926C79.1922 3.02435 78.3576 2.8219 77.3441 2.8219C76.5154 2.8219 75.7821 2.99009 75.1442 3.32648C74.5063 3.65663 74.0472 4.13629 73.7671 4.76546C73.4869 5.38839 73.3468 6.24181 73.3468 7.32572V10.9419C73.3468 11.8638 73.4093 12.5677 73.5345 13.0536C73.6597 13.5333 73.8833 13.9756 74.2052 14.3805C74.5331 14.7791 74.9892 15.0937 75.5734 15.3242C76.1577 15.5547 76.8314 15.6699 77.5945 15.6699C78.3814 15.6699 79.0342 15.5547 79.5529 15.3242C80.0775 15.0875 80.5097 14.7355 80.8495 14.2683C81.1894 13.8011 81.404 13.362 81.4934 12.9508C81.5888 12.5397 81.6365 11.951 81.6365 11.1848V10.2691H78.2115V11.9043C78.2115 12.521 78.1638 12.9384 78.0684 13.1564C77.979 13.3682 77.7972 13.4741 77.5229 13.4741C77.3023 13.4741 77.1533 13.3931 77.0758 13.2312C76.9983 13.0692 76.9595 12.7079 76.9595 12.1472V9.46551ZM78.0148 6.54082V7.4472H76.9595V6.54082C76.9595 5.84314 76.9893 5.41642 77.049 5.26069C77.1086 5.09873 77.2636 5.01775 77.514 5.01775C77.7167 5.01775 77.8508 5.11119 77.9164 5.29807C77.982 5.48495 78.0148 5.8992 78.0148 6.54082Z" fill="#282828"/>
<path d="M91.1424 6.47542L91.1424 9.43487L87.5296 7.33765L87.5296 11.9697C87.5296 12.63 87.4998 13.0474 87.4402 13.2218C87.3865 13.39 87.2435 13.4741 87.011 13.4741C86.7725 13.4741 86.6175 13.3807 86.546 13.1938C86.4744 13.0069 86.4386 12.5397 86.4386 11.7922V6.65295L86.4386 6.70433L82.8258 4.60711L82.8259 17.2117H86.4386V14.3711C86.7546 14.801 87.1034 15.1249 87.4849 15.3429C87.8665 15.5609 88.2808 15.6699 88.7279 15.6699C89.2883 15.6699 89.7653 15.5298 90.1587 15.2495C90.5582 14.9629 90.8205 14.5829 90.9457 14.1095C91.0768 13.6298 91.1424 12.8262 91.1424 11.6987V6.47542Z" fill="#282828"/>
<path d="M92.3407 10.1305L92.3407 15.4457H96.4811C98.2458 15.4457 99.3904 15.2183 99.9151 14.7636C99.9677 14.7178 100.018 14.6682 100.065 14.6145L96.77 12.7016C96.77 12.7016 96.7699 12.7017 96.77 12.7016C96.5934 12.793 96.3124 12.8387 95.9267 12.8387V9.97008L95.9267 12.2121L92.3407 10.1305Z" fill="#282828"/>
<path d="M91.1424 9.43467V6.47529C91.1424 5.49106 91.0917 4.79337 90.9904 4.38223C90.889 3.97109 90.6327 3.60979 90.2213 3.29832C89.8159 2.98063 89.333 2.82178 88.7726 2.82178C88.3136 2.82178 87.8903 2.93079 87.5028 3.14882C87.1153 3.36685 86.7606 3.697 86.4386 4.13929L86.5012 3.04603H82.8258V4.60692L86.4386 6.70413V6.65283C86.4386 5.93646 86.4714 5.48483 86.537 5.29795C86.6085 5.11107 86.7635 5.01763 87.002 5.01763C87.2464 5.01763 87.3955 5.09861 87.4491 5.26057C87.5028 5.42253 87.5296 5.88662 87.5296 6.65283V7.33745L91.1424 9.43467Z" fill="#BF3D3D"/>
<path fill-rule="evenodd" clip-rule="evenodd" d="M100.065 14.6143C100.496 14.1273 100.711 13.3142 100.711 12.1752V11.4463C100.711 10.7362 100.499 10.1475 100.076 9.6803C99.6587 9.20687 99.0864 8.90786 98.359 8.78327C99.7541 8.59016 100.452 7.7928 100.452 6.3912C100.452 5.17024 100.174 4.30748 99.6199 3.8029C99.0715 3.29832 98.0669 3.04603 96.6063 3.04603H92.3407V10.1303L95.9267 12.2119V9.96996C96.4453 9.96996 96.7732 10.0385 96.9103 10.1755C97.0475 10.3063 97.116 10.6396 97.116 11.1753V11.5958C97.116 12.1315 97.0385 12.4742 96.8835 12.6237C96.8523 12.6525 96.8145 12.6784 96.77 12.7015L100.065 14.6143ZM96.9282 7.43773C96.809 7.58101 96.4751 7.65264 95.9267 7.65264V5.64368C96.4453 5.64368 96.7732 5.7122 96.9103 5.84924C97.0475 5.98629 97.116 6.23235 97.116 6.58742C97.116 7.01102 97.0534 7.29446 96.9282 7.43773Z" fill="#BF3D3D"/>
<path d="M110.718 15.4456H107.57V8.74589L105.057 15.4456H101.766V3.04603H104.914V9.68964L107.382 3.04603H110.718V15.4456Z" fill="#BF3D3D"/>
<path d="M116.593 7.7274H120C120 6.56251 119.89 5.66236 119.669 5.02697C119.449 4.39158 119.004 3.86519 118.337 3.44783C117.669 3.03046 116.864 2.82178 115.922 2.82178C114.974 2.82178 114.169 3.03358 113.508 3.45717C112.846 3.87454 112.414 4.35108 112.211 4.88681C112.008 5.42253 111.907 6.21678 111.907 7.26954V10.7922C111.907 12.0007 112.029 12.9351 112.274 13.5954C112.524 14.2495 112.947 14.7603 113.543 15.1279C114.14 15.4892 114.947 15.6698 115.967 15.6698C116.766 15.6698 117.436 15.539 117.979 15.2774C118.521 15.0095 118.96 14.6171 119.294 14.1C119.633 13.5768 119.833 13.0691 119.893 12.5769C119.958 12.0786 119.994 11.3342 120 10.3437H116.781V11.8201C116.781 12.4617 116.736 12.8978 116.647 13.1282C116.563 13.3587 116.399 13.474 116.155 13.474C115.946 13.474 115.788 13.365 115.681 13.1469C115.573 12.9227 115.52 12.5894 115.52 12.1471V6.29776C115.52 5.7558 115.556 5.40696 115.627 5.25123C115.699 5.09549 115.839 5.01763 116.047 5.01763C116.256 5.01763 116.399 5.10795 116.477 5.2886C116.554 5.46302 116.593 5.79941 116.593 6.29776V7.7274Z" fill="#BF3D3D"/>
</svg>
