<svg width="192" height="38" viewBox="0 0 192 38" fill="none" xmlns="http://www.w3.org/2000/svg">
<path d="M12.3122 0.0057373H7.67153L6.49246 6.13533C6.35137 5.19231 6.16242 4.18194 5.92559 3.10421C5.63838 1.66275 5.44187 0.638904 5.35117 0.0057373H0L2.01047 9.90738L0 22.4158H5.38897L5.91048 18.765C6.1599 17.1753 6.34885 15.6732 6.49246 14.252C6.99633 17.4582 7.55564 20.1795 8.17037 22.4158H13.2948L10.3698 9.92086L12.3122 0.0057373Z" fill="#2B2B2B"/>
<path fill-rule="evenodd" clip-rule="evenodd" d="M50.4734 4.29064C51.2627 4.61305 51.9431 5.11482 52.4461 5.74558C52.8955 6.30292 53.2213 6.93163 53.406 7.59793C53.61 8.55668 53.6961 9.5324 53.6629 10.5078V15.0006C53.696 16.2281 53.6151 17.456 53.4211 18.6716C53.2587 19.4459 52.9135 20.1807 52.4083 20.8271C51.9186 21.4805 51.2287 21.9948 50.4205 22.3089C49.5354 22.639 48.5832 22.8018 47.624 22.7872C46.6116 22.8115 45.6027 22.6723 44.6461 22.3763C43.8892 22.1443 43.2265 21.7177 42.7414 21.1504C42.2658 20.5443 41.9388 19.8558 41.7815 19.1296C41.5496 17.9718 41.4508 16.796 41.4868 15.6203V10.9052C41.4378 9.55767 41.6162 8.21122 42.0158 6.91087C42.3436 5.97657 43.0077 5.16456 43.9054 4.60049C44.9392 3.98742 46.1639 3.68097 47.4048 3.72483C48.4629 3.70001 49.5132 3.89366 50.4734 4.29064ZM47.6708 6.9757C47.7869 6.97508 47.901 7.00502 47.9986 7.06229C48.1114 7.1285 48.1953 7.22724 48.2362 7.34197C48.363 7.92755 48.4113 8.52449 48.3798 9.12022V17.5535C48.4078 18.0263 48.3684 18.5001 48.2625 18.9637C48.2497 19.0214 48.2359 19.079 48.2211 19.1364C48.1724 19.2476 48.0873 19.3432 47.9767 19.4106C47.8661 19.478 47.7353 19.514 47.6013 19.514C47.4673 19.514 47.3365 19.478 47.2259 19.4106C47.1153 19.3432 47.0301 19.2476 46.9815 19.1364C46.8422 18.5796 46.7888 18.0086 46.8228 17.439V9.12022C46.7851 8.5238 46.8385 7.92557 46.9815 7.34197C47.0251 7.22738 47.1107 7.12919 47.2245 7.06321C47.324 7.00547 47.4402 6.97533 47.5582 6.97604C47.5763 6.97594 47.5944 6.97657 47.6125 6.97793C47.6319 6.97632 47.6514 6.97558 47.6708 6.9757Z" fill="#2B2B2B"/>
<path fill-rule="evenodd" clip-rule="evenodd" d="M36.4077 3.75198C37.1895 3.73341 37.9514 3.97334 38.5466 4.42556C39.1115 4.83638 39.5076 5.40255 39.6728 6.03542C39.8586 7.05949 39.9345 8.097 39.8995 9.13389V16.8464C39.9302 18.0477 39.8213 19.2486 39.5745 20.4299C39.414 21.0935 39.0065 21.6893 38.4181 22.1205C37.8194 22.5432 37.073 22.765 36.3094 22.747C35.6595 22.7492 35.0232 22.5805 34.4803 22.262C33.868 21.8819 33.3529 21.3906 32.9687 20.8205V25.0304H27.678V4.04836H33.0821L32.9838 5.70537C33.3777 5.12139 33.9089 4.62042 34.5408 4.23696C35.0974 3.9179 35.7459 3.74944 36.4077 3.75198ZM34.6028 17.6596C34.603 17.53 34.6 17.4004 34.5937 17.2708L34.5937 9.39651C34.6005 9.24398 34.6039 9.0914 34.6037 8.93886C34.6042 8.39573 34.5605 7.85309 34.4728 7.31523C34.3972 7.07947 34.178 6.95823 33.8152 6.95823C33.6661 6.9471 33.5172 6.98274 33.3944 7.05899C33.2716 7.13523 33.1825 7.2473 33.1425 7.37585C33.0318 7.89684 32.9766 8.42567 32.9776 8.95528C32.9775 9.10903 32.982 9.26285 32.9914 9.41657V17.0081C32.9821 17.1677 32.9776 17.3275 32.9779 17.4871C32.9776 18.0287 33.0327 18.5695 33.1426 19.1028C33.1857 19.2319 33.278 19.3435 33.4035 19.4185C33.5291 19.4935 33.68 19.5271 33.8303 19.5137C33.9694 19.5295 34.1102 19.5001 34.2268 19.4308C34.3435 19.3615 34.4281 19.257 34.4652 19.1365C34.5575 18.6483 34.6035 18.1543 34.6028 17.6596Z" fill="#2B2B2B"/>
<path fill-rule="evenodd" clip-rule="evenodd" d="M22.7425 4.29072C23.5341 4.61294 24.2169 5.11463 24.7228 5.74565C25.1715 6.30509 25.5019 6.93283 25.6978 7.598C25.8942 8.5575 25.9728 9.53321 25.9321 10.5079V15.0007C25.9652 16.2145 25.8868 17.4288 25.6978 18.6313C25.5308 19.4067 25.1804 20.1415 24.6699 20.7867C24.1772 21.4404 23.4848 21.9546 22.6745 22.2686C21.7933 22.614 20.8406 22.7907 19.878 22.7873C18.8632 22.8111 17.8519 22.6719 16.8925 22.3764C16.1389 22.1425 15.4791 21.7162 14.9954 21.1505C14.5173 20.5449 14.1877 19.8564 14.028 19.1297C13.8032 17.9712 13.707 16.7957 13.7408 15.6204V10.9053C13.6881 9.55761 13.8665 8.21066 14.2698 6.91095C14.5945 5.97526 15.2592 5.16244 16.1594 4.60056C17.1909 3.98844 18.4129 3.68201 19.6512 3.72491C20.7172 3.69494 21.7761 3.88876 22.7425 4.29072ZM20.6262 17.5538C20.6323 17.6564 20.6352 17.7591 20.6349 17.8617C20.6367 18.2904 20.5831 18.7181 20.4751 19.1365C20.4248 19.2471 20.3386 19.3419 20.2275 19.4087C20.1164 19.4754 19.9855 19.511 19.8515 19.511C19.7176 19.511 19.5866 19.4754 19.4755 19.4087C19.3644 19.3419 19.2782 19.2471 19.228 19.1365C19.1149 18.6845 19.0584 18.223 19.0594 17.7606C19.0589 17.6422 19.0622 17.5236 19.0692 17.4052V9.12011C19.0315 8.52369 19.0849 7.92547 19.228 7.34186C19.2741 7.22739 19.3613 7.1297 19.4761 7.06393C19.5909 6.99816 19.7268 6.968 19.8628 6.97812C19.9965 6.96532 20.131 6.9947 20.2429 7.06117C20.3547 7.12763 20.4369 7.22696 20.4751 7.34186C20.5083 7.48577 20.5364 7.63047 20.5594 7.77574C20.5714 7.85183 20.5821 7.92807 20.5913 8.00444C20.6361 8.37463 20.6479 8.74775 20.6262 9.1203V17.5538Z" fill="#2B2B2B"/>
<path d="M83.1927 10.7841C83.0718 11.0333 82.1421 11.5183 80.3962 12.2323C79.2476 12.612 78.2037 13.2069 77.3351 13.9768C76.927 14.4753 76.7154 15.4116 76.7154 16.7857V18.2945C76.7154 20.1469 77.1084 21.3458 77.8793 21.8982C78.5994 22.4259 79.5017 22.7161 80.434 22.7199C81.0898 22.738 81.7345 22.5654 82.2706 22.2282C82.8292 21.8452 83.2624 21.3358 83.5253 20.7531V22.3899H88.6875V13.2022C88.6875 12.5286 88.6875 11.8955 88.6875 11.3162L83.3968 9.88147C83.3811 10.1899 83.3122 10.4943 83.1927 10.7841ZM83.3817 17.4391C83.4193 18.0106 83.3684 18.584 83.2305 19.1432C83.1741 19.2512 83.081 19.3406 82.9642 19.3987C82.8475 19.4567 82.7132 19.4805 82.5805 19.4665C82.4284 19.4794 82.2759 19.4457 82.1481 19.371C82.0204 19.2963 81.925 19.1851 81.8776 19.0556C81.7173 18.4538 81.6562 17.8343 81.6962 17.2168C81.6739 16.574 81.7425 15.9313 81.9003 15.3038C82.2277 14.644 82.7502 14.0759 83.4119 13.6603L83.3817 17.4391Z" fill="#2B2B2B"/>
<path d="M76.7153 9.93521V11.1679H81.6962V9.43676L76.8287 8.0896C76.7479 8.7021 76.71 9.31851 76.7153 9.93521Z" fill="#2B2B2B"/>
<path d="M91.0003 12.6296C91.3782 13.3032 92.202 13.6467 93.4718 13.7679C92.7334 13.9426 92.0316 14.2224 91.3933 14.5964C90.9939 14.8838 90.7252 15.2908 90.6375 15.7415C90.4978 16.5254 90.4397 17.3191 90.4636 18.1125V22.4167H95.3311V17.3649C95.2694 16.7711 95.4033 16.1742 95.7166 15.6472C95.8963 15.4789 96.1177 15.3504 96.3632 15.2721C96.6086 15.1937 96.8712 15.1676 97.1299 15.1959V22.4167H102.421V15.0073L90.6979 11.8617C90.7603 12.1284 90.862 12.3866 91.0003 12.6296Z" fill="#2B2B2B"/>
<path d="M109.17 22.417H114.718L114.733 18.3621L109.17 16.86V22.417Z" fill="#2B2B2B"/>
<path d="M116.464 19.1497C116.464 20.7663 116.766 21.8441 117.363 22.4166H122.442C122.047 21.7545 121.82 21.0234 121.777 20.2746L116.433 18.8264L116.464 19.1497Z" fill="#2B2B2B"/>
<path d="M123.44 25.0302H128.753V22.154L123.44 20.7125V25.0302Z" fill="#2B2B2B"/>
<path d="M69.7694 18.5572H67.8874V5.69183L62.5816 4.25711V18.5572H60.6996V4.06177H55.4089V22.4169H75.0752V7.63849L69.7694 6.20376V18.5572Z" fill="#2B2B2B"/>
<path d="M67.8874 4.06177H62.5816V4.25711L67.8874 5.69183V4.06177Z" fill="#BF3D3D"/>
<path d="M69.7694 4.06177V6.20376L75.0752 7.63849V4.06177H69.7694Z" fill="#BF3D3D"/>
<path d="M86.7677 4.72178C85.5853 3.97985 84.1513 3.62526 82.709 3.71814C81.4176 3.66625 80.1406 3.97727 79.0584 4.60727C78.2123 5.09006 77.5569 5.79664 77.1839 6.62801C77.0056 7.0998 76.8864 7.58776 76.8287 8.08295L81.6962 9.43011V9.24825C81.6614 8.6103 81.707 7.97089 81.8322 7.34201C81.8783 7.22189 81.9699 7.11985 82.0913 7.05346C82.2127 6.98707 82.3563 6.96048 82.4973 6.97828C82.6485 6.97638 82.7963 7.01794 82.9188 7.09681C83.0413 7.17568 83.1321 7.28765 83.1776 7.4161C83.356 8.02679 83.4249 8.65879 83.3816 9.28866C83.3816 9.51094 83.3816 9.69955 83.3816 9.88141L88.6724 11.3161C88.6868 9.93853 88.601 8.56153 88.4154 7.19382C88.2295 6.2161 87.6422 5.33495 86.7677 4.72178Z" fill="#BF3D3D"/>
<path d="M98.4526 4.04822C95.1119 4.04822 92.9402 4.44563 91.9375 5.24046C90.9398 6.04202 90.4259 7.34877 90.4259 9.18091C90.3982 10.0854 90.4895 10.9897 90.698 11.8752L102.375 15.0343V4.04822H98.4526ZM97.0997 11.9965C96.8454 12.0231 96.5876 12.0007 96.3438 11.931C96.1 11.8613 95.8758 11.7458 95.6863 11.5923C95.3611 11.0619 95.2266 10.4553 95.3009 9.85449V9.61874C95.2277 9.05075 95.3461 8.4762 95.641 7.96846C95.7538 7.85185 95.8945 7.75925 96.0528 7.69747C96.2111 7.63569 96.3828 7.6063 96.5555 7.61146H97.0997V11.9965Z" fill="#BF3D3D"/>
<path d="M121.762 15.2229C121.762 12.8587 120.538 11.5182 118.028 11.1815C120.538 10.8581 121.807 9.53791 121.762 7.21406V3.36791C121.762 1.66375 121.996 0.538865 122.518 0H117.408C116.842 0.559073 116.547 1.65027 116.509 3.26687L116.396 7.64515C116.396 8.83065 115.829 9.43688 114.786 9.47056V0.0404149H109.238V16.8463L114.801 18.3484V12.9126C115.038 12.9106 115.272 12.9562 115.487 13.046C115.702 13.1357 115.891 13.2674 116.04 13.4312C116.376 13.8146 116.545 14.2929 116.517 14.7784V18.8199L121.86 20.2681C121.809 19.7755 121.786 19.2809 121.792 18.7862L121.762 15.2229Z" fill="#BF3D3D"/>
<path fill-rule="evenodd" clip-rule="evenodd" d="M132.117 22.72C131.467 22.7223 130.83 22.5536 130.288 22.235C129.662 21.8606 129.134 21.3714 128.738 20.8003V22.1475L123.447 20.7127V4.12243H128.844L128.753 5.73903C129.148 5.1533 129.682 4.652 130.318 4.27062C130.874 3.94977 131.523 3.78116 132.185 3.78564C132.964 3.76617 133.724 4.00632 134.316 4.45923C134.878 4.87238 135.273 5.43758 135.442 6.06909C135.618 7.08275 135.692 8.10849 135.661 9.13388V16.8397C135.706 18.0328 135.612 19.2268 135.382 20.4029C135.221 21.0665 134.814 21.6623 134.225 22.0936C133.627 22.5163 132.88 22.738 132.117 22.72ZM129.555 19.4958C129.421 19.5009 129.289 19.469 129.176 19.404C129.052 19.3331 128.959 19.2269 128.912 19.1028C128.767 18.4194 128.714 17.7229 128.753 17.0282V9.41672C128.716 8.7402 128.767 8.06214 128.904 7.39598C128.915 7.36266 128.928 7.33045 128.945 7.29969C128.991 7.19184 129.072 7.09837 129.179 7.03203C129.302 6.95578 129.451 6.92015 129.6 6.93127C129.963 6.93127 130.182 7.05251 130.257 7.28827C130.373 7.97018 130.413 8.6605 130.378 9.34943V17.2707C130.408 17.8883 130.365 18.5069 130.25 19.1164C130.213 19.2368 130.128 19.3413 130.011 19.4106C129.912 19.4699 129.794 19.5 129.675 19.4976C129.651 19.498 129.626 19.4969 129.602 19.4945C129.586 19.4954 129.571 19.4959 129.555 19.4958Z" fill="#BF3D3D"/>
<path d="M138.511 21.1098C138.991 21.6784 139.652 22.1054 140.408 22.3357C141.367 22.6318 142.379 22.771 143.393 22.7466C144.35 22.7618 145.3 22.5989 146.182 22.2683C146.991 21.9542 147.681 21.4399 148.17 20.7864C148.678 20.1415 149.024 19.4062 149.183 18.631C149.376 17.4288 149.456 16.2144 149.425 15.0004V10.5076C149.454 9.53228 149.368 8.55693 149.168 7.59772C148.979 6.93395 148.656 6.3063 148.216 5.74537C147.708 5.11584 147.026 4.61452 146.235 4.29043C145.276 3.89157 144.225 3.69783 143.167 3.72462C141.928 3.67987 140.706 3.98646 139.675 4.60028C138.775 5.16364 138.108 5.97564 137.778 6.91066C137.381 8.21147 137.206 9.55783 137.256 10.905V15.6201C137.219 16.7955 137.315 17.9713 137.543 19.1294C137.706 19.8429 138.035 20.5178 138.511 21.1098ZM142.562 9.12001C142.524 8.52359 142.578 7.92536 142.721 7.34176C142.766 7.22783 142.851 7.13033 142.965 7.06451C143.078 6.9987 143.213 6.96828 143.348 6.97802C143.483 6.96619 143.617 6.99587 143.73 7.06208C143.843 7.12829 143.927 7.22702 143.968 7.34176C144.099 7.92685 144.147 8.52424 144.112 9.12001V17.5869C144.146 18.1072 144.095 18.6291 143.96 19.1362C143.918 19.2496 143.834 19.3469 143.721 19.4118C143.608 19.4767 143.474 19.5054 143.341 19.4932C143.203 19.5009 143.066 19.4664 142.953 19.3953C142.841 19.3242 142.759 19.2209 142.721 19.1025C142.582 18.5457 142.528 17.9747 142.562 17.4051V9.12001Z" fill="#BF3D3D"/>
<path fill-rule="evenodd" clip-rule="evenodd" d="M163.468 17.5736C163.473 19.4417 163.085 20.717 162.304 21.3996C161.533 22.0732 159.848 22.4167 157.248 22.4167H151.163V4.04811H157.437C159.583 4.03015 161.062 4.40062 161.873 5.15952C162.684 5.91842 163.09 7.19598 163.09 8.9922C163.085 11.0668 162.06 12.2456 160.014 12.5285C161.015 12.6837 161.917 13.1635 162.546 13.8757C163.181 14.6292 163.506 15.5542 163.468 16.4959V17.5736ZM156.439 7.93084V7.90767C157.202 7.90767 157.686 8.00871 157.882 8.21078C158.089 8.48631 158.197 8.80946 158.195 9.13816C158.195 9.1959 158.192 9.25383 158.186 9.31173C158.239 9.73967 158.157 10.1723 157.95 10.5616C157.933 10.5792 157.913 10.5962 157.891 10.6124C157.689 10.8011 157.206 10.8984 156.409 10.8984L156.439 7.93084ZM157.882 14.6233C157.458 14.3699 156.945 14.2644 156.439 14.327V18.5773C156.938 18.6357 157.443 18.5172 157.845 18.2472C158.138 17.7902 158.257 17.2609 158.185 16.7384V16.112C158.255 15.5999 158.149 15.0811 157.882 14.6233Z" fill="#BF3D3D"/>
<path d="M168.902 22.1474C169.291 22.0613 169.651 21.8944 169.953 21.6602C170.255 21.426 170.491 21.1313 170.641 20.8002C171.087 19.638 171.275 18.4093 171.192 17.1831V7.90784H173.082V22.4168H178.373V4.04822H165.909V17.338C165.909 18.3686 165.788 18.9748 165.531 19.1432C165.107 19.3511 164.624 19.4447 164.141 19.4126V22.4168H165.01C166.314 22.4534 167.62 22.363 168.902 22.1474Z" fill="#BF3D3D"/>
<path fill-rule="evenodd" clip-rule="evenodd" d="M181.532 5.24046C182.53 4.44563 184.706 4.04822 188.04 4.04822H192V22.4168H186.709V15.1825C186.451 15.1548 186.188 15.1811 185.943 15.2594C185.697 15.3378 185.476 15.4659 185.296 15.6338C184.983 16.1608 184.849 16.7577 184.91 17.3515V22.4033H180.051V18.0991C180.025 17.3059 180.081 16.5123 180.217 15.7281C180.305 15.2774 180.573 14.8704 180.973 14.583C181.612 14.2103 182.313 13.9306 183.051 13.7545C181.781 13.6333 180.958 13.2898 180.58 12.6162C180.122 11.5194 179.931 10.3484 180.02 9.18091C180.02 7.34877 180.534 6.03528 181.532 5.24046ZM185.931 11.9439C186.175 12.0136 186.432 12.0361 186.687 12.01V7.62494H186.687V7.62489H186.15C185.976 7.61871 185.803 7.6476 185.643 7.70942C185.483 7.77123 185.342 7.86437 185.228 7.98189C184.933 8.48963 184.815 9.06417 184.888 9.63217V9.86792C184.832 10.3185 184.894 10.7724 185.065 11.195C185.11 11.305 185.162 11.4129 185.222 11.5181C185.238 11.5476 185.255 11.5768 185.273 11.6058C185.463 11.7589 185.687 11.8742 185.931 11.9439Z" fill="#BF3D3D"/>
<path d="M3.86125 30.5997L6.11767 26.7747H4.8869L3.1976 29.8999L1.52037 26.7747H0.217195L2.49775 30.66L0 35.0884H1.23077L3.17347 31.4082L5.09203 35.0884H6.3952L3.86125 30.5997Z" fill="#282828"/>
<path d="M9.82649 28.5846C8.01653 28.5846 6.97882 29.9481 6.97882 31.9149C6.97882 33.93 8.00446 35.2332 9.81442 35.2332C11.6123 35.2332 12.65 33.8697 12.65 31.9029C12.65 29.8878 11.6365 28.5846 9.82649 28.5846ZM9.82649 29.4775C10.8763 29.4775 11.4555 30.2498 11.4555 31.9029C11.4555 33.568 10.8763 34.3403 9.81442 34.3403C8.75258 34.3403 8.17339 33.568 8.17339 31.9149C8.17339 30.2498 8.76465 29.4775 9.82649 29.4775Z" fill="#282828"/>
<path d="M17.3678 28.5846C16.6438 28.5846 15.956 28.9345 15.4854 29.5861L15.401 28.7294H14.4477V37.6586L15.5578 37.5258V34.5092C15.9681 35.004 16.5352 35.2332 17.223 35.2332C18.864 35.2332 19.7208 33.8335 19.7208 31.9029C19.7208 29.8999 19.0571 28.5846 17.3678 28.5846ZM16.9576 34.3282C16.3784 34.3282 15.8836 34.0507 15.5578 33.556V30.4549C15.8957 29.9481 16.4146 29.4655 17.0903 29.4655C18.0435 29.4655 18.5262 30.2498 18.5262 31.9029C18.5262 33.568 17.9711 34.3282 16.9576 34.3282Z" fill="#282828"/>
<path d="M23.9432 28.5846C22.1333 28.5846 21.0956 29.9481 21.0956 31.9149C21.0956 33.93 22.1212 35.2332 23.9312 35.2332C25.7291 35.2332 26.7668 33.8697 26.7668 31.9029C26.7668 29.8878 25.7532 28.5846 23.9432 28.5846ZM23.9432 29.4775C24.993 29.4775 25.5722 30.2498 25.5722 31.9029C25.5722 33.568 24.993 34.3403 23.9312 34.3403C22.8693 34.3403 22.2902 33.568 22.2902 31.9149C22.2902 30.2498 22.8814 29.4775 23.9432 29.4775Z" fill="#282828"/>
<path d="M35.8767 28.7294H34.7908V34.1955H32.7515V28.7294H31.6897V34.1955H29.6505V28.7294H28.5645V35.0884H35.8767V28.7294Z" fill="#282828"/>
<path d="M42.9361 31.7219C42.9361 29.7792 42.0311 28.5846 40.3177 28.5846C38.6766 28.5846 37.6751 29.9964 37.6751 31.9753C37.6751 33.9904 38.7128 35.2332 40.4866 35.2332C41.3674 35.2332 42.0793 34.9316 42.7068 34.4368L42.2241 33.7732C41.6691 34.1593 41.1985 34.3282 40.571 34.3282C39.654 34.3282 38.9662 33.7611 38.8576 32.289H42.9119C42.924 32.1442 42.9361 31.9391 42.9361 31.7219ZM41.838 31.4685H38.8576C38.9421 30.0567 39.4971 29.4655 40.3418 29.4655C41.3433 29.4655 41.838 30.1533 41.838 31.3961V31.4685Z" fill="#282828"/>
<path d="M50.3442 28.7294H48.8841L47.5206 33.2785L46.2778 28.7294H44.8419L44.2748 35.0884H45.3487L45.5779 32.0718C45.6262 31.4082 45.6262 30.6118 45.6262 29.8154L46.9777 34.3886H48.0274L49.4754 29.8033C49.4754 30.7566 49.4754 31.384 49.5478 32.0839L49.8374 35.0884H50.9234L50.3442 28.7294Z" fill="#282828"/>
<path d="M57.415 28.7294H56.2687L54.6035 34.28L52.9022 28.7294H51.7197L53.8554 35.0884H54.2295C53.8675 36.0779 53.5055 36.5726 52.2144 36.7898L52.335 37.6586C54.0967 37.4655 54.8449 36.4761 55.2913 35.1246L57.415 28.7294Z" fill="#282828"/>
<path d="M66.318 34.1955V28.7294H62.3361L62.1672 31.0944C61.9862 33.5801 61.6483 33.8818 61.1777 34.1955H60.7313V36.8984H61.6363L61.8173 35.0884H65.8957L66.0767 36.8984H66.9817V34.1955H66.318ZM65.2079 34.1955H62.1672C62.8791 33.6887 63.0842 33.1578 63.2411 30.9496L63.3376 29.6103H65.2079V34.1955Z" fill="#282828"/>
<path d="M70.9716 28.5846C69.1617 28.5846 68.1239 29.9481 68.1239 31.9149C68.1239 33.93 69.1496 35.2332 70.9596 35.2332C72.7574 35.2332 73.7952 33.8697 73.7952 31.9029C73.7952 29.8878 72.7816 28.5846 70.9716 28.5846ZM70.9716 29.4775C72.0214 29.4775 72.6006 30.2498 72.6006 31.9029C72.6006 33.568 72.0214 34.3403 70.9596 34.3403C69.8977 34.3403 69.3185 33.568 69.3185 31.9149C69.3185 30.2498 69.9098 29.4775 70.9716 29.4775Z" fill="#282828"/>
<path d="M81.2761 28.7294H79.8161L78.4526 33.2785L77.2098 28.7294H75.7739L75.2067 35.0884H76.2807L76.5099 32.0718C76.5582 31.4082 76.5582 30.6118 76.5582 29.8154L77.9096 34.3886H78.9594L80.4074 29.8033C80.4074 30.7566 80.4074 31.384 80.4798 32.0839L80.7694 35.0884H81.8553L81.2761 28.7294Z" fill="#282828"/>
<path d="M88.347 28.7294H87.2007L85.5355 34.28L83.8341 28.7294H82.6516L84.7874 35.0884H85.1614C84.7994 36.0779 84.4375 36.5726 83.1463 36.7898L83.267 37.6586C85.0287 37.4655 85.7768 36.4761 86.2233 35.1246L88.347 28.7294Z" fill="#282828"/>
<path d="M92.3872 31.7822H95.802V30.841H92.3872V31.7822Z" fill="#282828"/>
<path d="M103.307 31.6857L105.262 28.7294H104.007L102.667 31.0582L101.34 28.7294H100.037L102.004 31.734L99.7836 35.0884H101.038L102.619 32.3976L104.176 35.0884H105.515L103.307 31.6857Z" fill="#282828"/>
<path d="M109.056 28.5846C107.246 28.5846 106.209 29.9481 106.209 31.9149C106.209 33.93 107.234 35.2332 109.044 35.2332C110.842 35.2332 111.88 33.8697 111.88 31.9029C111.88 29.8878 110.866 28.5846 109.056 28.5846ZM109.056 29.4775C110.106 29.4775 110.685 30.2498 110.685 31.9029C110.685 33.568 110.106 34.3403 109.044 34.3403C107.982 34.3403 107.403 33.568 107.403 31.9149C107.403 30.2498 107.994 29.4775 109.056 29.4775Z" fill="#282828"/>
<path d="M116.598 28.5846C115.874 28.5846 115.186 28.9345 114.715 29.5861L114.631 28.7294H113.677V37.6586L114.788 37.5258V34.5092C115.198 35.004 115.765 35.2332 116.453 35.2332C118.094 35.2332 118.951 33.8335 118.951 31.9029C118.951 29.8999 118.287 28.5846 116.598 28.5846ZM116.187 34.3282C115.608 34.3282 115.113 34.0507 114.788 33.556V30.4549C115.125 29.9481 115.644 29.4655 116.32 29.4655C117.273 29.4655 117.756 30.2498 117.756 31.9029C117.756 33.568 117.201 34.3282 116.187 34.3282Z" fill="#282828"/>
<path d="M123.173 28.5846C121.363 28.5846 120.325 29.9481 120.325 31.9149C120.325 33.93 121.351 35.2332 123.161 35.2332C124.959 35.2332 125.997 33.8697 125.997 31.9029C125.997 29.8878 124.983 28.5846 123.173 28.5846ZM123.173 29.4775C124.223 29.4775 124.802 30.2498 124.802 31.9029C124.802 33.568 124.223 34.3403 123.161 34.3403C122.099 34.3403 121.52 33.568 121.52 31.9149C121.52 30.2498 122.111 29.4775 123.173 29.4775Z" fill="#282828"/>
<path d="M135.106 28.7294H134.021V34.1955H131.981V28.7294H130.919V34.1955H128.88V28.7294H127.794V35.0884H135.106V28.7294Z" fill="#282828"/>
<path d="M141.587 33.6042V30.6962C141.587 29.3689 140.887 28.5846 139.354 28.5846C138.642 28.5846 137.943 28.7294 137.158 29.019L137.436 29.8275C138.087 29.6103 138.679 29.4896 139.149 29.4896C140.03 29.4896 140.477 29.8275 140.477 30.7445V31.2151H139.499C137.725 31.2151 136.7 31.9511 136.7 33.3147C136.7 34.4489 137.46 35.2332 138.727 35.2332C139.499 35.2332 140.175 34.9436 140.621 34.28C140.814 34.9074 141.225 35.1608 141.864 35.2332L142.118 34.461C141.792 34.3403 141.587 34.1593 141.587 33.6042ZM138.98 34.4006C138.256 34.4006 137.882 34.0024 137.882 33.2543C137.882 32.3855 138.473 31.9511 139.644 31.9511H140.477V33.4112C140.115 34.0748 139.632 34.4006 138.98 34.4006Z" fill="#282828"/>
<path d="M146.112 28.7294C144.495 28.7294 143.542 29.4051 143.542 30.6721C143.542 31.4685 143.916 32.0477 144.664 32.3976L143.144 35.0884H144.387L145.726 32.651H147.114V35.0884H148.224V28.7294H146.112ZM146.064 31.8064C145.111 31.8064 144.713 31.4685 144.713 30.6721C144.713 29.9119 145.183 29.5861 146.088 29.5861H147.114V31.8064H146.064Z" fill="#282828"/>
<path d="M158.402 28.7294H157.183L155.578 31.2875H154.746V28.7294H153.636V35.0884H154.746V32.1563H155.554L157.316 35.0884H158.631L156.471 31.6736L158.402 28.7294Z" fill="#282828"/>
<path d="M162.848 28.5846C162.124 28.5846 161.436 28.9345 160.966 29.5861L160.881 28.7294H159.928V37.6586L161.038 37.5258V34.5092C161.449 35.004 162.016 35.2332 162.703 35.2332C164.344 35.2332 165.201 33.8335 165.201 31.9029C165.201 29.8999 164.538 28.5846 162.848 28.5846ZM162.438 34.3282C161.859 34.3282 161.364 34.0507 161.038 33.556V30.4549C161.376 29.9481 161.895 29.4655 162.571 29.4655C163.524 29.4655 164.007 30.2498 164.007 31.9029C164.007 33.568 163.452 34.3282 162.438 34.3282Z" fill="#282828"/>
<path d="M169.424 28.5846C167.614 28.5846 166.576 29.9481 166.576 31.9149C166.576 33.93 167.602 35.2332 169.412 35.2332C171.209 35.2332 172.247 33.8697 172.247 31.9029C172.247 29.8878 171.234 28.5846 169.424 28.5846ZM169.424 29.4775C170.473 29.4775 171.053 30.2498 171.053 31.9029C171.053 33.568 170.473 34.3403 169.412 34.3403C168.35 34.3403 167.771 33.568 167.771 31.9149C167.771 30.2498 168.362 29.4775 169.424 29.4775Z" fill="#282828"/>
<path d="M177.399 31.6374C178.244 31.4926 178.69 31.0341 178.69 30.3101C178.69 29.1759 177.665 28.5846 176.132 28.5846C175.433 28.5846 174.696 28.6812 174.045 28.8139V35.0884H176.338C177.87 35.0884 179.016 34.5334 179.016 33.1337C179.016 32.2528 178.485 31.746 177.399 31.6374ZM176.144 29.4413C177.074 29.4413 177.556 29.6947 177.556 30.3584C177.556 31.0824 177.061 31.3116 176.35 31.3116H175.155V29.5137C175.481 29.4655 175.77 29.4413 176.144 29.4413ZM176.338 34.2196H175.155V32.1321H176.362C177.448 32.1321 177.846 32.4338 177.846 33.1095C177.846 34.0145 177.17 34.2196 176.338 34.2196Z" fill="#282828"/>
<path d="M181.294 28.7294L181.041 31.6374C180.86 33.737 180.812 34.0628 180.027 34.3524L180.305 35.2332C181.68 34.8109 181.922 34.1834 182.127 31.7581L182.308 29.6344H184.275V35.0884H185.385V28.7294H181.294Z" fill="#282828"/>
<path d="M189.888 28.7294C188.271 28.7294 187.318 29.4051 187.318 30.6721C187.318 31.4685 187.692 32.0477 188.44 32.3976L186.92 35.0884H188.163L189.502 32.651H190.89V35.0884H192V28.7294H189.888ZM189.84 31.8064C188.887 31.8064 188.489 31.4685 188.489 30.6721C188.489 29.9119 188.959 29.5861 189.864 29.5861H190.89V31.8064H189.84Z" fill="#282828"/>
</svg>
