<svg width="168" height="168" viewBox="0 0 168 168" fill="none" xmlns="http://www.w3.org/2000/svg">
<circle r="2.55707" transform="matrix(1 0 0 -1 2.55707 2.55695)" fill="#2F70FE"/>
<circle r="2.55707" transform="matrix(1 0 0 -1 2.55707 11.0806)" fill="#2F70FE"/>
<circle r="2.55707" transform="matrix(1 0 0 -1 2.55707 19.6041)" fill="#2F70FE"/>
<circle r="2.55707" transform="matrix(1 0 0 -1 2.55707 28.1277)" fill="#2F70FE"/>
<circle r="2.55707" transform="matrix(1 0 0 -1 2.55707 36.6512)" fill="#2F70FE"/>
<circle r="2.55707" transform="matrix(1 0 0 -1 2.55707 45.1749)" fill="#2F70FE"/>
<circle r="2.55707" transform="matrix(1 0 0 -1 2.55707 53.6983)" fill="#2F70FE"/>
<circle r="2.55707" transform="matrix(1 0 0 -1 2.55707 62.222)" fill="#2F70FE"/>
<circle r="2.55707" transform="matrix(1 0 0 -1 2.55707 70.7454)" fill="#2F70FE"/>
<circle r="2.55707" transform="matrix(1 0 0 -1 2.55707 79.2691)" fill="#2F70FE"/>
<circle r="2.55707" transform="matrix(1 0 0 -1 2.55707 87.7925)" fill="#2F70FE"/>
<circle r="2.55707" transform="matrix(1 0 0 -1 2.55707 96.3162)" fill="#2F70FE"/>
<circle r="2.55707" transform="matrix(1 0 0 -1 2.55707 104.84)" fill="#2F70FE"/>
<circle r="2.55707" transform="matrix(1 0 0 -1 2.55707 113.363)" fill="#2F70FE"/>
<circle r="2.55707" transform="matrix(1 0 0 -1 2.55707 121.887)" fill="#2F70FE"/>
<circle r="2.55707" transform="matrix(1 0 0 -1 2.55707 130.41)" fill="#2F70FE"/>
<circle r="2.55707" transform="matrix(1 0 0 -1 2.55707 138.934)" fill="#2F70FE"/>
<circle r="2.55707" transform="matrix(1 0 0 -1 2.55707 147.457)" fill="#2F70FE"/>
<circle r="2.55707" transform="matrix(1 0 0 -1 2.55707 155.981)" fill="#2F70FE"/>
<circle r="2.55707" transform="matrix(1 0 0 -1 2.55707 164.504)" fill="#2F70FE"/>
<circle r="2.55707" transform="matrix(1 0 0 -1 11.0805 2.55695)" fill="#2F70FE"/>
<circle r="2.55707" transform="matrix(1 0 0 -1 11.0805 11.0806)" fill="#2F70FE"/>
<circle r="2.55707" transform="matrix(1 0 0 -1 11.0805 19.6041)" fill="#2F70FE"/>
<circle r="2.55707" transform="matrix(1 0 0 -1 11.0805 28.1277)" fill="#2F70FE"/>
<circle r="2.55707" transform="matrix(1 0 0 -1 11.0805 36.6512)" fill="#2F70FE"/>
<circle r="2.55707" transform="matrix(1 0 0 -1 11.0805 45.1749)" fill="#2F70FE"/>
<circle r="2.55707" transform="matrix(1 0 0 -1 11.0805 53.6983)" fill="#2F70FE"/>
<circle r="2.55707" transform="matrix(1 0 0 -1 11.0805 62.222)" fill="#2F70FE"/>
<circle r="2.55707" transform="matrix(1 0 0 -1 11.0805 70.7454)" fill="#2F70FE"/>
<circle r="2.55707" transform="matrix(1 0 0 -1 11.0805 79.2691)" fill="#2F70FE"/>
<circle r="2.55707" transform="matrix(1 0 0 -1 11.0805 87.7925)" fill="#2F70FE"/>
<circle r="2.55707" transform="matrix(1 0 0 -1 11.0805 96.3162)" fill="#2F70FE"/>
<circle r="2.55707" transform="matrix(1 0 0 -1 11.0805 104.84)" fill="#2F70FE"/>
<circle r="2.55707" transform="matrix(1 0 0 -1 11.0805 113.363)" fill="#2F70FE"/>
<circle r="2.55707" transform="matrix(1 0 0 -1 11.0805 121.887)" fill="#2F70FE"/>
<circle r="2.55707" transform="matrix(1 0 0 -1 11.0805 130.41)" fill="#2F70FE"/>
<circle r="2.55707" transform="matrix(1 0 0 -1 11.0805 138.934)" fill="#2F70FE"/>
<circle r="2.55707" transform="matrix(1 0 0 -1 11.0805 147.457)" fill="#2F70FE"/>
<circle r="2.55707" transform="matrix(1 0 0 -1 11.0805 155.981)" fill="#2F70FE"/>
<circle r="2.55707" transform="matrix(1 0 0 -1 11.0805 164.504)" fill="#2F70FE"/>
<circle r="2.55707" transform="matrix(1 0 0 -1 19.6039 2.55695)" fill="#2F70FE"/>
<circle r="2.55707" transform="matrix(1 0 0 -1 19.6039 11.0806)" fill="#2F70FE"/>
<circle r="2.55707" transform="matrix(1 0 0 -1 19.6039 19.6041)" fill="#2F70FE"/>
<circle r="2.55707" transform="matrix(1 0 0 -1 19.6039 28.1277)" fill="#2F70FE"/>
<circle r="2.55707" transform="matrix(1 0 0 -1 19.6039 36.6512)" fill="#2F70FE"/>
<circle r="2.55707" transform="matrix(1 0 0 -1 19.6039 45.1749)" fill="#2F70FE"/>
<circle r="2.55707" transform="matrix(1 0 0 -1 19.6039 53.6983)" fill="#2F70FE"/>
<circle r="2.55707" transform="matrix(1 0 0 -1 19.6039 62.222)" fill="#2F70FE"/>
<circle r="2.55707" transform="matrix(1 0 0 -1 19.6039 70.7454)" fill="#2F70FE"/>
<circle r="2.55707" transform="matrix(1 0 0 -1 19.6039 79.2691)" fill="#2F70FE"/>
<circle r="2.55707" transform="matrix(1 0 0 -1 19.6039 87.7925)" fill="#2F70FE"/>
<circle r="2.55707" transform="matrix(1 0 0 -1 19.6039 96.3162)" fill="#2F70FE"/>
<circle r="2.55707" transform="matrix(1 0 0 -1 19.6039 104.84)" fill="#2F70FE"/>
<circle r="2.55707" transform="matrix(1 0 0 -1 19.6039 113.363)" fill="#2F70FE"/>
<circle r="2.55707" transform="matrix(1 0 0 -1 19.6039 121.887)" fill="#2F70FE"/>
<circle r="2.55707" transform="matrix(1 0 0 -1 19.6039 130.41)" fill="#2F70FE"/>
<circle r="2.55707" transform="matrix(1 0 0 -1 19.6039 138.934)" fill="#2F70FE"/>
<circle r="2.55707" transform="matrix(1 0 0 -1 19.6039 147.457)" fill="#2F70FE"/>
<circle r="2.55707" transform="matrix(1 0 0 -1 19.6039 155.981)" fill="#2F70FE"/>
<circle r="2.55707" transform="matrix(1 0 0 -1 19.6039 164.504)" fill="#2F70FE"/>
<circle r="2.55707" transform="matrix(1 0 0 -1 28.1274 2.55695)" fill="#2F70FE"/>
<circle r="2.55707" transform="matrix(1 0 0 -1 28.1274 11.0806)" fill="#2F70FE"/>
<circle r="2.55707" transform="matrix(1 0 0 -1 28.1274 19.6041)" fill="#2F70FE"/>
<circle r="2.55707" transform="matrix(1 0 0 -1 28.1274 28.1277)" fill="#2F70FE"/>
<circle r="2.55707" transform="matrix(1 0 0 -1 28.1274 36.6512)" fill="#2F70FE"/>
<circle r="2.55707" transform="matrix(1 0 0 -1 28.1274 45.1749)" fill="#2F70FE"/>
<circle r="2.55707" transform="matrix(1 0 0 -1 28.1274 53.6983)" fill="#2F70FE"/>
<circle r="2.55707" transform="matrix(1 0 0 -1 28.1274 62.222)" fill="#2F70FE"/>
<circle r="2.55707" transform="matrix(1 0 0 -1 28.1274 70.7454)" fill="#2F70FE"/>
<circle r="2.55707" transform="matrix(1 0 0 -1 28.1274 79.2691)" fill="#2F70FE"/>
<circle r="2.55707" transform="matrix(1 0 0 -1 28.1274 87.7925)" fill="#2F70FE"/>
<circle r="2.55707" transform="matrix(1 0 0 -1 28.1274 96.3162)" fill="#2F70FE"/>
<circle r="2.55707" transform="matrix(1 0 0 -1 28.1274 104.84)" fill="#2F70FE"/>
<circle r="2.55707" transform="matrix(1 0 0 -1 28.1274 113.363)" fill="#2F70FE"/>
<circle r="2.55707" transform="matrix(1 0 0 -1 28.1274 121.887)" fill="#2F70FE"/>
<circle r="2.55707" transform="matrix(1 0 0 -1 28.1274 130.41)" fill="#2F70FE"/>
<circle r="2.55707" transform="matrix(1 0 0 -1 28.1274 138.934)" fill="#2F70FE"/>
<circle r="2.55707" transform="matrix(1 0 0 -1 28.1274 147.457)" fill="#2F70FE"/>
<circle r="2.55707" transform="matrix(1 0 0 -1 28.1274 155.981)" fill="#2F70FE"/>
<circle r="2.55707" transform="matrix(1 0 0 -1 28.1274 164.504)" fill="#2F70FE"/>
<circle r="2.55707" transform="matrix(1 0 0 -1 36.6508 2.55695)" fill="#2F70FE"/>
<circle r="2.55707" transform="matrix(1 0 0 -1 36.6508 11.0806)" fill="#2F70FE"/>
<circle r="2.55707" transform="matrix(1 0 0 -1 36.6508 19.6041)" fill="#2F70FE"/>
<circle r="2.55707" transform="matrix(1 0 0 -1 36.6508 28.1277)" fill="#2F70FE"/>
<circle r="2.55707" transform="matrix(1 0 0 -1 36.6508 36.6512)" fill="#2F70FE"/>
<circle r="2.55707" transform="matrix(1 0 0 -1 36.6508 45.1749)" fill="#2F70FE"/>
<circle r="2.55707" transform="matrix(1 0 0 -1 36.6508 53.6983)" fill="#2F70FE"/>
<circle r="2.55707" transform="matrix(1 0 0 -1 36.6508 62.222)" fill="#2F70FE"/>
<circle r="2.55707" transform="matrix(1 0 0 -1 36.6508 70.7454)" fill="#2F70FE"/>
<circle r="2.55707" transform="matrix(1 0 0 -1 36.6508 79.2691)" fill="#2F70FE"/>
<circle r="2.55707" transform="matrix(1 0 0 -1 36.6508 87.7925)" fill="#2F70FE"/>
<circle r="2.55707" transform="matrix(1 0 0 -1 36.6508 96.3162)" fill="#2F70FE"/>
<circle r="2.55707" transform="matrix(1 0 0 -1 36.6508 104.84)" fill="#2F70FE"/>
<circle r="2.55707" transform="matrix(1 0 0 -1 36.6508 113.363)" fill="#2F70FE"/>
<circle r="2.55707" transform="matrix(1 0 0 -1 36.6508 121.887)" fill="#2F70FE"/>
<circle r="2.55707" transform="matrix(1 0 0 -1 36.6508 130.41)" fill="#2F70FE"/>
<circle r="2.55707" transform="matrix(1 0 0 -1 36.6508 138.934)" fill="#2F70FE"/>
<circle r="2.55707" transform="matrix(1 0 0 -1 36.6508 147.457)" fill="#2F70FE"/>
<circle r="2.55707" transform="matrix(1 0 0 -1 36.6508 155.981)" fill="#2F70FE"/>
<circle r="2.55707" transform="matrix(1 0 0 -1 36.6508 164.504)" fill="#2F70FE"/>
<circle r="2.55707" transform="matrix(1 0 0 -1 45.1752 2.55695)" fill="#2F70FE"/>
<circle r="2.55707" transform="matrix(1 0 0 -1 45.1752 11.0806)" fill="#2F70FE"/>
<circle r="2.55707" transform="matrix(1 0 0 -1 45.1752 19.6041)" fill="#2F70FE"/>
<circle r="2.55707" transform="matrix(1 0 0 -1 45.1752 28.1277)" fill="#2F70FE"/>
<circle r="2.55707" transform="matrix(1 0 0 -1 45.1752 36.6512)" fill="#2F70FE"/>
<circle r="2.55707" transform="matrix(1 0 0 -1 45.1752 45.1749)" fill="#2F70FE"/>
<circle r="2.55707" transform="matrix(1 0 0 -1 45.1752 53.6983)" fill="#2F70FE"/>
<circle r="2.55707" transform="matrix(1 0 0 -1 45.1752 62.222)" fill="#2F70FE"/>
<circle r="2.55707" transform="matrix(1 0 0 -1 45.1752 70.7454)" fill="#2F70FE"/>
<circle r="2.55707" transform="matrix(1 0 0 -1 45.1752 79.2691)" fill="#2F70FE"/>
<circle r="2.55707" transform="matrix(1 0 0 -1 45.1752 87.7925)" fill="#2F70FE"/>
<circle r="2.55707" transform="matrix(1 0 0 -1 45.1752 96.3162)" fill="#2F70FE"/>
<circle r="2.55707" transform="matrix(1 0 0 -1 45.1752 104.84)" fill="#2F70FE"/>
<circle r="2.55707" transform="matrix(1 0 0 -1 45.1752 113.363)" fill="#2F70FE"/>
<circle r="2.55707" transform="matrix(1 0 0 -1 45.1752 121.887)" fill="#2F70FE"/>
<circle r="2.55707" transform="matrix(1 0 0 -1 45.1752 130.41)" fill="#2F70FE"/>
<circle r="2.55707" transform="matrix(1 0 0 -1 45.1752 138.934)" fill="#2F70FE"/>
<circle r="2.55707" transform="matrix(1 0 0 -1 45.1752 147.457)" fill="#2F70FE"/>
<circle r="2.55707" transform="matrix(1 0 0 -1 45.1752 155.981)" fill="#2F70FE"/>
<circle r="2.55707" transform="matrix(1 0 0 -1 45.1752 164.504)" fill="#2F70FE"/>
<circle r="2.55707" transform="matrix(1 0 0 -1 53.6987 2.55695)" fill="#2F70FE"/>
<circle r="2.55707" transform="matrix(1 0 0 -1 53.6987 11.0806)" fill="#2F70FE"/>
<circle r="2.55707" transform="matrix(1 0 0 -1 53.6987 19.6041)" fill="#2F70FE"/>
<circle r="2.55707" transform="matrix(1 0 0 -1 53.6987 28.1277)" fill="#2F70FE"/>
<circle r="2.55707" transform="matrix(1 0 0 -1 53.6987 36.6512)" fill="#2F70FE"/>
<circle r="2.55707" transform="matrix(1 0 0 -1 53.6987 45.1749)" fill="#2F70FE"/>
<circle r="2.55707" transform="matrix(1 0 0 -1 53.6987 53.6983)" fill="#2F70FE"/>
<circle r="2.55707" transform="matrix(1 0 0 -1 53.6987 62.222)" fill="#2F70FE"/>
<circle r="2.55707" transform="matrix(1 0 0 -1 53.6987 70.7454)" fill="#2F70FE"/>
<circle r="2.55707" transform="matrix(1 0 0 -1 53.6987 79.2691)" fill="#2F70FE"/>
<circle r="2.55707" transform="matrix(1 0 0 -1 53.6987 87.7925)" fill="#2F70FE"/>
<circle r="2.55707" transform="matrix(1 0 0 -1 53.6987 96.3162)" fill="#2F70FE"/>
<circle r="2.55707" transform="matrix(1 0 0 -1 53.6987 104.84)" fill="#2F70FE"/>
<circle r="2.55707" transform="matrix(1 0 0 -1 53.6987 113.363)" fill="#2F70FE"/>
<circle r="2.55707" transform="matrix(1 0 0 -1 53.6987 121.887)" fill="#2F70FE"/>
<circle r="2.55707" transform="matrix(1 0 0 -1 53.6987 130.41)" fill="#2F70FE"/>
<circle r="2.55707" transform="matrix(1 0 0 -1 53.6987 138.934)" fill="#2F70FE"/>
<circle r="2.55707" transform="matrix(1 0 0 -1 53.6987 147.457)" fill="#2F70FE"/>
<circle r="2.55707" transform="matrix(1 0 0 -1 53.6987 155.981)" fill="#2F70FE"/>
<circle r="2.55707" transform="matrix(1 0 0 -1 53.6987 164.504)" fill="#2F70FE"/>
<circle r="2.55707" transform="matrix(1 0 0 -1 62.2221 2.55695)" fill="#2F70FE"/>
<circle r="2.55707" transform="matrix(1 0 0 -1 62.2221 11.0806)" fill="#2F70FE"/>
<circle r="2.55707" transform="matrix(1 0 0 -1 62.2221 19.6041)" fill="#2F70FE"/>
<circle r="2.55707" transform="matrix(1 0 0 -1 62.2221 28.1277)" fill="#2F70FE"/>
<circle r="2.55707" transform="matrix(1 0 0 -1 62.2221 36.6512)" fill="#2F70FE"/>
<circle r="2.55707" transform="matrix(1 0 0 -1 62.2221 45.1749)" fill="#2F70FE"/>
<circle r="2.55707" transform="matrix(1 0 0 -1 62.2221 53.6983)" fill="#2F70FE"/>
<circle r="2.55707" transform="matrix(1 0 0 -1 62.2221 62.222)" fill="#2F70FE"/>
<circle r="2.55707" transform="matrix(1 0 0 -1 62.2221 70.7454)" fill="#2F70FE"/>
<circle r="2.55707" transform="matrix(1 0 0 -1 62.2221 79.2691)" fill="#2F70FE"/>
<circle r="2.55707" transform="matrix(1 0 0 -1 62.2221 87.7925)" fill="#2F70FE"/>
<circle r="2.55707" transform="matrix(1 0 0 -1 62.2221 96.3162)" fill="#2F70FE"/>
<circle r="2.55707" transform="matrix(1 0 0 -1 62.2221 104.84)" fill="#2F70FE"/>
<circle r="2.55707" transform="matrix(1 0 0 -1 62.2221 113.363)" fill="#2F70FE"/>
<circle r="2.55707" transform="matrix(1 0 0 -1 62.2221 121.887)" fill="#2F70FE"/>
<circle r="2.55707" transform="matrix(1 0 0 -1 62.2221 130.41)" fill="#2F70FE"/>
<circle r="2.55707" transform="matrix(1 0 0 -1 62.2221 138.934)" fill="#2F70FE"/>
<circle r="2.55707" transform="matrix(1 0 0 -1 62.2221 147.457)" fill="#2F70FE"/>
<circle r="2.55707" transform="matrix(1 0 0 -1 62.2221 155.981)" fill="#2F70FE"/>
<circle r="2.55707" transform="matrix(1 0 0 -1 62.2221 164.504)" fill="#2F70FE"/>
<circle r="2.55707" transform="matrix(1 0 0 -1 70.7455 2.55695)" fill="#2F70FE"/>
<circle r="2.55707" transform="matrix(1 0 0 -1 70.7455 11.0806)" fill="#2F70FE"/>
<circle r="2.55707" transform="matrix(1 0 0 -1 70.7455 19.6041)" fill="#2F70FE"/>
<circle r="2.55707" transform="matrix(1 0 0 -1 70.7455 28.1277)" fill="#2F70FE"/>
<circle r="2.55707" transform="matrix(1 0 0 -1 70.7455 36.6512)" fill="#2F70FE"/>
<circle r="2.55707" transform="matrix(1 0 0 -1 70.7455 45.1749)" fill="#2F70FE"/>
<circle r="2.55707" transform="matrix(1 0 0 -1 70.7455 53.6983)" fill="#2F70FE"/>
<circle r="2.55707" transform="matrix(1 0 0 -1 70.7455 62.222)" fill="#2F70FE"/>
<circle r="2.55707" transform="matrix(1 0 0 -1 70.7455 70.7454)" fill="#2F70FE"/>
<circle r="2.55707" transform="matrix(1 0 0 -1 70.7455 79.2691)" fill="#2F70FE"/>
<circle r="2.55707" transform="matrix(1 0 0 -1 70.7455 87.7925)" fill="#2F70FE"/>
<circle r="2.55707" transform="matrix(1 0 0 -1 70.7455 96.3162)" fill="#2F70FE"/>
<circle r="2.55707" transform="matrix(1 0 0 -1 70.7455 104.84)" fill="#2F70FE"/>
<circle r="2.55707" transform="matrix(1 0 0 -1 70.7455 113.363)" fill="#2F70FE"/>
<circle r="2.55707" transform="matrix(1 0 0 -1 70.7455 121.887)" fill="#2F70FE"/>
<circle r="2.55707" transform="matrix(1 0 0 -1 70.7455 130.41)" fill="#2F70FE"/>
<circle r="2.55707" transform="matrix(1 0 0 -1 70.7455 138.934)" fill="#2F70FE"/>
<circle r="2.55707" transform="matrix(1 0 0 -1 70.7455 147.457)" fill="#2F70FE"/>
<circle r="2.55707" transform="matrix(1 0 0 -1 70.7455 155.981)" fill="#2F70FE"/>
<circle r="2.55707" transform="matrix(1 0 0 -1 70.7455 164.504)" fill="#2F70FE"/>
<circle r="2.55707" transform="matrix(1 0 0 -1 79.269 2.55695)" fill="#2F70FE"/>
<circle r="2.55707" transform="matrix(1 0 0 -1 79.269 11.0806)" fill="#2F70FE"/>
<circle r="2.55707" transform="matrix(1 0 0 -1 79.269 19.6041)" fill="#2F70FE"/>
<circle r="2.55707" transform="matrix(1 0 0 -1 79.269 28.1277)" fill="#2F70FE"/>
<circle r="2.55707" transform="matrix(1 0 0 -1 79.269 36.6512)" fill="#2F70FE"/>
<circle r="2.55707" transform="matrix(1 0 0 -1 79.269 45.1749)" fill="#2F70FE"/>
<circle r="2.55707" transform="matrix(1 0 0 -1 79.269 53.6983)" fill="#2F70FE"/>
<circle r="2.55707" transform="matrix(1 0 0 -1 79.269 62.222)" fill="#2F70FE"/>
<circle r="2.55707" transform="matrix(1 0 0 -1 79.269 70.7454)" fill="#2F70FE"/>
<circle r="2.55707" transform="matrix(1 0 0 -1 79.269 79.2691)" fill="#2F70FE"/>
<circle r="2.55707" transform="matrix(1 0 0 -1 79.269 87.7925)" fill="#2F70FE"/>
<circle r="2.55707" transform="matrix(1 0 0 -1 79.269 96.3162)" fill="#2F70FE"/>
<circle r="2.55707" transform="matrix(1 0 0 -1 79.269 104.84)" fill="#2F70FE"/>
<circle r="2.55707" transform="matrix(1 0 0 -1 79.269 113.363)" fill="#2F70FE"/>
<circle r="2.55707" transform="matrix(1 0 0 -1 79.269 121.887)" fill="#2F70FE"/>
<circle r="2.55707" transform="matrix(1 0 0 -1 79.269 130.41)" fill="#2F70FE"/>
<circle r="2.55707" transform="matrix(1 0 0 -1 79.269 138.934)" fill="#2F70FE"/>
<circle r="2.55707" transform="matrix(1 0 0 -1 79.269 147.457)" fill="#2F70FE"/>
<circle r="2.55707" transform="matrix(1 0 0 -1 79.269 155.981)" fill="#2F70FE"/>
<circle r="2.55707" transform="matrix(1 0 0 -1 79.269 164.504)" fill="#2F70FE"/>
<circle r="2.55707" transform="matrix(1 0 0 -1 87.7924 2.55695)" fill="#2F70FE"/>
<circle r="2.55707" transform="matrix(1 0 0 -1 87.7924 11.0806)" fill="#2F70FE"/>
<circle r="2.55707" transform="matrix(1 0 0 -1 87.7924 19.6041)" fill="#2F70FE"/>
<circle r="2.55707" transform="matrix(1 0 0 -1 87.7924 28.1277)" fill="#2F70FE"/>
<circle r="2.55707" transform="matrix(1 0 0 -1 87.7924 36.6512)" fill="#2F70FE"/>
<circle r="2.55707" transform="matrix(1 0 0 -1 87.7924 45.1749)" fill="#2F70FE"/>
<circle r="2.55707" transform="matrix(1 0 0 -1 87.7924 53.6983)" fill="#2F70FE"/>
<circle r="2.55707" transform="matrix(1 0 0 -1 87.7924 62.222)" fill="#2F70FE"/>
<circle r="2.55707" transform="matrix(1 0 0 -1 87.7924 70.7454)" fill="#2F70FE"/>
<circle r="2.55707" transform="matrix(1 0 0 -1 87.7924 79.2691)" fill="#2F70FE"/>
<circle r="2.55707" transform="matrix(1 0 0 -1 87.7924 87.7925)" fill="#2F70FE"/>
<circle r="2.55707" transform="matrix(1 0 0 -1 87.7924 96.3162)" fill="#2F70FE"/>
<circle r="2.55707" transform="matrix(1 0 0 -1 87.7924 104.84)" fill="#2F70FE"/>
<circle r="2.55707" transform="matrix(1 0 0 -1 87.7924 113.363)" fill="#2F70FE"/>
<circle r="2.55707" transform="matrix(1 0 0 -1 87.7924 121.887)" fill="#2F70FE"/>
<circle r="2.55707" transform="matrix(1 0 0 -1 87.7924 130.41)" fill="#2F70FE"/>
<circle r="2.55707" transform="matrix(1 0 0 -1 87.7924 138.934)" fill="#2F70FE"/>
<circle r="2.55707" transform="matrix(1 0 0 -1 87.7924 147.457)" fill="#2F70FE"/>
<circle r="2.55707" transform="matrix(1 0 0 -1 87.7924 155.981)" fill="#2F70FE"/>
<circle r="2.55707" transform="matrix(1 0 0 -1 87.7924 164.504)" fill="#2F70FE"/>
<circle r="2.55707" transform="matrix(1 0 0 -1 96.3159 2.55695)" fill="#2F70FE"/>
<circle r="2.55707" transform="matrix(1 0 0 -1 96.3159 11.0806)" fill="#2F70FE"/>
<circle r="2.55707" transform="matrix(1 0 0 -1 96.3159 19.6041)" fill="#2F70FE"/>
<circle r="2.55707" transform="matrix(1 0 0 -1 96.3159 28.1277)" fill="#2F70FE"/>
<circle r="2.55707" transform="matrix(1 0 0 -1 96.3159 36.6512)" fill="#2F70FE"/>
<circle r="2.55707" transform="matrix(1 0 0 -1 96.3159 45.1749)" fill="#2F70FE"/>
<circle r="2.55707" transform="matrix(1 0 0 -1 96.3159 53.6983)" fill="#2F70FE"/>
<circle r="2.55707" transform="matrix(1 0 0 -1 96.3159 62.222)" fill="#2F70FE"/>
<circle r="2.55707" transform="matrix(1 0 0 -1 96.3159 70.7454)" fill="#2F70FE"/>
<circle r="2.55707" transform="matrix(1 0 0 -1 96.3159 79.2691)" fill="#2F70FE"/>
<circle r="2.55707" transform="matrix(1 0 0 -1 96.3159 87.7925)" fill="#2F70FE"/>
<circle r="2.55707" transform="matrix(1 0 0 -1 96.3159 96.3162)" fill="#2F70FE"/>
<circle r="2.55707" transform="matrix(1 0 0 -1 96.3159 104.84)" fill="#2F70FE"/>
<circle r="2.55707" transform="matrix(1 0 0 -1 96.3159 113.363)" fill="#2F70FE"/>
<circle r="2.55707" transform="matrix(1 0 0 -1 96.3159 121.887)" fill="#2F70FE"/>
<circle r="2.55707" transform="matrix(1 0 0 -1 96.3159 130.41)" fill="#2F70FE"/>
<circle r="2.55707" transform="matrix(1 0 0 -1 96.3159 138.934)" fill="#2F70FE"/>
<circle r="2.55707" transform="matrix(1 0 0 -1 96.3159 147.457)" fill="#2F70FE"/>
<circle r="2.55707" transform="matrix(1 0 0 -1 96.3159 155.981)" fill="#2F70FE"/>
<circle r="2.55707" transform="matrix(1 0 0 -1 96.3159 164.504)" fill="#2F70FE"/>
<circle r="2.55707" transform="matrix(1 0 0 -1 104.839 2.55695)" fill="#2F70FE"/>
<circle r="2.55707" transform="matrix(1 0 0 -1 104.839 11.0806)" fill="#2F70FE"/>
<circle r="2.55707" transform="matrix(1 0 0 -1 104.839 19.6041)" fill="#2F70FE"/>
<circle r="2.55707" transform="matrix(1 0 0 -1 104.839 28.1277)" fill="#2F70FE"/>
<circle r="2.55707" transform="matrix(1 0 0 -1 104.839 36.6512)" fill="#2F70FE"/>
<circle r="2.55707" transform="matrix(1 0 0 -1 104.839 45.1749)" fill="#2F70FE"/>
<circle r="2.55707" transform="matrix(1 0 0 -1 104.839 53.6983)" fill="#2F70FE"/>
<circle r="2.55707" transform="matrix(1 0 0 -1 104.839 62.222)" fill="#2F70FE"/>
<circle r="2.55707" transform="matrix(1 0 0 -1 104.839 70.7454)" fill="#2F70FE"/>
<circle r="2.55707" transform="matrix(1 0 0 -1 104.839 79.2691)" fill="#2F70FE"/>
<circle r="2.55707" transform="matrix(1 0 0 -1 104.839 87.7925)" fill="#2F70FE"/>
<circle r="2.55707" transform="matrix(1 0 0 -1 104.839 96.3162)" fill="#2F70FE"/>
<circle r="2.55707" transform="matrix(1 0 0 -1 104.839 104.84)" fill="#2F70FE"/>
<circle r="2.55707" transform="matrix(1 0 0 -1 104.839 113.363)" fill="#2F70FE"/>
<circle r="2.55707" transform="matrix(1 0 0 -1 104.839 121.887)" fill="#2F70FE"/>
<circle r="2.55707" transform="matrix(1 0 0 -1 104.839 130.41)" fill="#2F70FE"/>
<circle r="2.55707" transform="matrix(1 0 0 -1 104.839 138.934)" fill="#2F70FE"/>
<circle r="2.55707" transform="matrix(1 0 0 -1 104.839 147.457)" fill="#2F70FE"/>
<circle r="2.55707" transform="matrix(1 0 0 -1 104.839 155.981)" fill="#2F70FE"/>
<circle r="2.55707" transform="matrix(1 0 0 -1 104.839 164.504)" fill="#2F70FE"/>
<circle r="2.55707" transform="matrix(1 0 0 -1 113.364 2.55695)" fill="#2F70FE"/>
<circle r="2.55707" transform="matrix(1 0 0 -1 113.364 11.0806)" fill="#2F70FE"/>
<circle r="2.55707" transform="matrix(1 0 0 -1 113.364 19.6041)" fill="#2F70FE"/>
<circle r="2.55707" transform="matrix(1 0 0 -1 113.364 28.1277)" fill="#2F70FE"/>
<circle r="2.55707" transform="matrix(1 0 0 -1 113.364 36.6512)" fill="#2F70FE"/>
<circle r="2.55707" transform="matrix(1 0 0 -1 113.364 45.1749)" fill="#2F70FE"/>
<circle r="2.55707" transform="matrix(1 0 0 -1 113.364 53.6983)" fill="#2F70FE"/>
<circle r="2.55707" transform="matrix(1 0 0 -1 113.364 62.222)" fill="#2F70FE"/>
<circle r="2.55707" transform="matrix(1 0 0 -1 113.364 70.7454)" fill="#2F70FE"/>
<circle r="2.55707" transform="matrix(1 0 0 -1 113.364 79.2691)" fill="#2F70FE"/>
<circle r="2.55707" transform="matrix(1 0 0 -1 113.364 87.7925)" fill="#2F70FE"/>
<circle r="2.55707" transform="matrix(1 0 0 -1 113.364 96.3162)" fill="#2F70FE"/>
<circle r="2.55707" transform="matrix(1 0 0 -1 113.364 104.84)" fill="#2F70FE"/>
<circle r="2.55707" transform="matrix(1 0 0 -1 113.364 113.363)" fill="#2F70FE"/>
<circle r="2.55707" transform="matrix(1 0 0 -1 113.364 121.887)" fill="#2F70FE"/>
<circle r="2.55707" transform="matrix(1 0 0 -1 113.364 130.41)" fill="#2F70FE"/>
<circle r="2.55707" transform="matrix(1 0 0 -1 113.364 138.934)" fill="#2F70FE"/>
<circle r="2.55707" transform="matrix(1 0 0 -1 113.364 147.457)" fill="#2F70FE"/>
<circle r="2.55707" transform="matrix(1 0 0 -1 113.364 155.981)" fill="#2F70FE"/>
<circle r="2.55707" transform="matrix(1 0 0 -1 113.364 164.504)" fill="#2F70FE"/>
<circle r="2.55707" transform="matrix(1 0 0 -1 121.887 2.55695)" fill="#2F70FE"/>
<circle r="2.55707" transform="matrix(1 0 0 -1 121.887 11.0806)" fill="#2F70FE"/>
<circle r="2.55707" transform="matrix(1 0 0 -1 121.887 19.6041)" fill="#2F70FE"/>
<circle r="2.55707" transform="matrix(1 0 0 -1 121.887 28.1277)" fill="#2F70FE"/>
<circle r="2.55707" transform="matrix(1 0 0 -1 121.887 36.6512)" fill="#2F70FE"/>
<circle r="2.55707" transform="matrix(1 0 0 -1 121.887 45.1749)" fill="#2F70FE"/>
<circle r="2.55707" transform="matrix(1 0 0 -1 121.887 53.6983)" fill="#2F70FE"/>
<circle r="2.55707" transform="matrix(1 0 0 -1 121.887 62.222)" fill="#2F70FE"/>
<circle r="2.55707" transform="matrix(1 0 0 -1 121.887 70.7454)" fill="#2F70FE"/>
<circle r="2.55707" transform="matrix(1 0 0 -1 121.887 79.2691)" fill="#2F70FE"/>
<circle r="2.55707" transform="matrix(1 0 0 -1 121.887 87.7925)" fill="#2F70FE"/>
<circle r="2.55707" transform="matrix(1 0 0 -1 121.887 96.3162)" fill="#2F70FE"/>
<circle r="2.55707" transform="matrix(1 0 0 -1 121.887 104.84)" fill="#2F70FE"/>
<circle r="2.55707" transform="matrix(1 0 0 -1 121.887 113.363)" fill="#2F70FE"/>
<circle r="2.55707" transform="matrix(1 0 0 -1 121.887 121.887)" fill="#2F70FE"/>
<circle r="2.55707" transform="matrix(1 0 0 -1 121.887 130.41)" fill="#2F70FE"/>
<circle r="2.55707" transform="matrix(1 0 0 -1 121.887 138.934)" fill="#2F70FE"/>
<circle r="2.55707" transform="matrix(1 0 0 -1 121.887 147.457)" fill="#2F70FE"/>
<circle r="2.55707" transform="matrix(1 0 0 -1 121.887 155.981)" fill="#2F70FE"/>
<circle r="2.55707" transform="matrix(1 0 0 -1 121.887 164.504)" fill="#2F70FE"/>
<circle r="2.55707" transform="matrix(1 0 0 -1 130.411 2.55695)" fill="#2F70FE"/>
<circle r="2.55707" transform="matrix(1 0 0 -1 130.411 11.0806)" fill="#2F70FE"/>
<circle r="2.55707" transform="matrix(1 0 0 -1 130.411 19.6041)" fill="#2F70FE"/>
<circle r="2.55707" transform="matrix(1 0 0 -1 130.411 28.1277)" fill="#2F70FE"/>
<circle r="2.55707" transform="matrix(1 0 0 -1 130.411 36.6512)" fill="#2F70FE"/>
<circle r="2.55707" transform="matrix(1 0 0 -1 130.411 45.1749)" fill="#2F70FE"/>
<circle r="2.55707" transform="matrix(1 0 0 -1 130.411 53.6983)" fill="#2F70FE"/>
<circle r="2.55707" transform="matrix(1 0 0 -1 130.411 62.222)" fill="#2F70FE"/>
<circle r="2.55707" transform="matrix(1 0 0 -1 130.411 70.7454)" fill="#2F70FE"/>
<circle r="2.55707" transform="matrix(1 0 0 -1 130.411 79.2691)" fill="#2F70FE"/>
<circle r="2.55707" transform="matrix(1 0 0 -1 130.411 87.7925)" fill="#2F70FE"/>
<circle r="2.55707" transform="matrix(1 0 0 -1 130.411 96.3162)" fill="#2F70FE"/>
<circle r="2.55707" transform="matrix(1 0 0 -1 130.411 104.84)" fill="#2F70FE"/>
<circle r="2.55707" transform="matrix(1 0 0 -1 130.411 113.363)" fill="#2F70FE"/>
<circle r="2.55707" transform="matrix(1 0 0 -1 130.411 121.887)" fill="#2F70FE"/>
<circle r="2.55707" transform="matrix(1 0 0 -1 130.411 130.41)" fill="#2F70FE"/>
<circle r="2.55707" transform="matrix(1 0 0 -1 130.411 138.934)" fill="#2F70FE"/>
<circle r="2.55707" transform="matrix(1 0 0 -1 130.411 147.457)" fill="#2F70FE"/>
<circle r="2.55707" transform="matrix(1 0 0 -1 130.411 155.981)" fill="#2F70FE"/>
<circle r="2.55707" transform="matrix(1 0 0 -1 130.411 164.504)" fill="#2F70FE"/>
<circle r="2.55707" transform="matrix(1 0 0 -1 138.934 2.55695)" fill="#2F70FE"/>
<circle r="2.55707" transform="matrix(1 0 0 -1 138.934 11.0806)" fill="#2F70FE"/>
<circle r="2.55707" transform="matrix(1 0 0 -1 138.934 19.6041)" fill="#2F70FE"/>
<circle r="2.55707" transform="matrix(1 0 0 -1 138.934 28.1277)" fill="#2F70FE"/>
<circle r="2.55707" transform="matrix(1 0 0 -1 138.934 36.6512)" fill="#2F70FE"/>
<circle r="2.55707" transform="matrix(1 0 0 -1 138.934 45.1749)" fill="#2F70FE"/>
<circle r="2.55707" transform="matrix(1 0 0 -1 138.934 53.6983)" fill="#2F70FE"/>
<circle r="2.55707" transform="matrix(1 0 0 -1 138.934 62.222)" fill="#2F70FE"/>
<circle r="2.55707" transform="matrix(1 0 0 -1 138.934 70.7454)" fill="#2F70FE"/>
<circle r="2.55707" transform="matrix(1 0 0 -1 138.934 79.2691)" fill="#2F70FE"/>
<circle r="2.55707" transform="matrix(1 0 0 -1 138.934 87.7925)" fill="#2F70FE"/>
<circle r="2.55707" transform="matrix(1 0 0 -1 138.934 96.3162)" fill="#2F70FE"/>
<circle r="2.55707" transform="matrix(1 0 0 -1 138.934 104.84)" fill="#2F70FE"/>
<circle r="2.55707" transform="matrix(1 0 0 -1 138.934 113.363)" fill="#2F70FE"/>
<circle r="2.55707" transform="matrix(1 0 0 -1 138.934 121.887)" fill="#2F70FE"/>
<circle r="2.55707" transform="matrix(1 0 0 -1 138.934 130.41)" fill="#2F70FE"/>
<circle r="2.55707" transform="matrix(1 0 0 -1 138.934 138.934)" fill="#2F70FE"/>
<circle r="2.55707" transform="matrix(1 0 0 -1 138.934 147.457)" fill="#2F70FE"/>
<circle r="2.55707" transform="matrix(1 0 0 -1 138.934 155.981)" fill="#2F70FE"/>
<circle r="2.55707" transform="matrix(1 0 0 -1 138.934 164.504)" fill="#2F70FE"/>
<circle r="2.55707" transform="matrix(1 0 0 -1 147.457 2.55695)" fill="#2F70FE"/>
<circle r="2.55707" transform="matrix(1 0 0 -1 147.457 11.0806)" fill="#2F70FE"/>
<circle r="2.55707" transform="matrix(1 0 0 -1 147.457 19.6041)" fill="#2F70FE"/>
<circle r="2.55707" transform="matrix(1 0 0 -1 147.457 28.1277)" fill="#2F70FE"/>
<circle r="2.55707" transform="matrix(1 0 0 -1 147.457 36.6512)" fill="#2F70FE"/>
<circle r="2.55707" transform="matrix(1 0 0 -1 147.457 45.1749)" fill="#2F70FE"/>
<circle r="2.55707" transform="matrix(1 0 0 -1 147.457 53.6983)" fill="#2F70FE"/>
<circle r="2.55707" transform="matrix(1 0 0 -1 147.457 62.222)" fill="#2F70FE"/>
<circle r="2.55707" transform="matrix(1 0 0 -1 147.457 70.7454)" fill="#2F70FE"/>
<circle r="2.55707" transform="matrix(1 0 0 -1 147.457 79.2691)" fill="#2F70FE"/>
<circle r="2.55707" transform="matrix(1 0 0 -1 147.457 87.7925)" fill="#2F70FE"/>
<circle r="2.55707" transform="matrix(1 0 0 -1 147.457 96.3162)" fill="#2F70FE"/>
<circle r="2.55707" transform="matrix(1 0 0 -1 147.457 104.84)" fill="#2F70FE"/>
<circle r="2.55707" transform="matrix(1 0 0 -1 147.457 113.363)" fill="#2F70FE"/>
<circle r="2.55707" transform="matrix(1 0 0 -1 147.457 121.887)" fill="#2F70FE"/>
<circle r="2.55707" transform="matrix(1 0 0 -1 147.457 130.41)" fill="#2F70FE"/>
<circle r="2.55707" transform="matrix(1 0 0 -1 147.457 138.934)" fill="#2F70FE"/>
<circle r="2.55707" transform="matrix(1 0 0 -1 147.457 147.457)" fill="#2F70FE"/>
<circle r="2.55707" transform="matrix(1 0 0 -1 147.457 155.981)" fill="#2F70FE"/>
<circle r="2.55707" transform="matrix(1 0 0 -1 147.457 164.504)" fill="#2F70FE"/>
<circle r="2.55707" transform="matrix(1 0 0 -1 155.981 2.55695)" fill="#2F70FE"/>
<circle r="2.55707" transform="matrix(1 0 0 -1 155.981 11.0806)" fill="#2F70FE"/>
<circle r="2.55707" transform="matrix(1 0 0 -1 155.981 19.6041)" fill="#2F70FE"/>
<circle r="2.55707" transform="matrix(1 0 0 -1 155.981 28.1277)" fill="#2F70FE"/>
<circle r="2.55707" transform="matrix(1 0 0 -1 155.981 36.6512)" fill="#2F70FE"/>
<circle r="2.55707" transform="matrix(1 0 0 -1 155.981 45.1749)" fill="#2F70FE"/>
<circle r="2.55707" transform="matrix(1 0 0 -1 155.981 53.6983)" fill="#2F70FE"/>
<circle r="2.55707" transform="matrix(1 0 0 -1 155.981 62.222)" fill="#2F70FE"/>
<circle r="2.55707" transform="matrix(1 0 0 -1 155.981 70.7454)" fill="#2F70FE"/>
<circle r="2.55707" transform="matrix(1 0 0 -1 155.981 79.2691)" fill="#2F70FE"/>
<circle r="2.55707" transform="matrix(1 0 0 -1 155.981 87.7925)" fill="#2F70FE"/>
<circle r="2.55707" transform="matrix(1 0 0 -1 155.981 96.3162)" fill="#2F70FE"/>
<circle r="2.55707" transform="matrix(1 0 0 -1 155.981 104.84)" fill="#2F70FE"/>
<circle r="2.55707" transform="matrix(1 0 0 -1 155.981 113.363)" fill="#2F70FE"/>
<circle r="2.55707" transform="matrix(1 0 0 -1 155.981 121.887)" fill="#2F70FE"/>
<circle r="2.55707" transform="matrix(1 0 0 -1 155.981 130.41)" fill="#2F70FE"/>
<circle r="2.55707" transform="matrix(1 0 0 -1 155.981 138.934)" fill="#2F70FE"/>
<circle r="2.55707" transform="matrix(1 0 0 -1 155.981 147.457)" fill="#2F70FE"/>
<circle r="2.55707" transform="matrix(1 0 0 -1 155.981 155.981)" fill="#2F70FE"/>
<circle r="2.55707" transform="matrix(1 0 0 -1 155.981 164.504)" fill="#2F70FE"/>
<circle r="2.55707" transform="matrix(1 0 0 -1 164.504 2.55695)" fill="#2F70FE"/>
<circle r="2.55707" transform="matrix(1 0 0 -1 164.504 11.0806)" fill="#2F70FE"/>
<circle r="2.55707" transform="matrix(1 0 0 -1 164.504 19.6041)" fill="#2F70FE"/>
<circle r="2.55707" transform="matrix(1 0 0 -1 164.504 28.1277)" fill="#2F70FE"/>
<circle r="2.55707" transform="matrix(1 0 0 -1 164.504 36.6512)" fill="#2F70FE"/>
<circle r="2.55707" transform="matrix(1 0 0 -1 164.504 45.1749)" fill="#2F70FE"/>
<circle r="2.55707" transform="matrix(1 0 0 -1 164.504 53.6983)" fill="#2F70FE"/>
<circle r="2.55707" transform="matrix(1 0 0 -1 164.504 62.222)" fill="#2F70FE"/>
<circle r="2.55707" transform="matrix(1 0 0 -1 164.504 70.7454)" fill="#2F70FE"/>
<circle r="2.55707" transform="matrix(1 0 0 -1 164.504 79.2691)" fill="#2F70FE"/>
<circle r="2.55707" transform="matrix(1 0 0 -1 164.504 87.7925)" fill="#2F70FE"/>
<circle r="2.55707" transform="matrix(1 0 0 -1 164.504 96.3162)" fill="#2F70FE"/>
<circle r="2.55707" transform="matrix(1 0 0 -1 164.504 104.84)" fill="#2F70FE"/>
<circle r="2.55707" transform="matrix(1 0 0 -1 164.504 113.363)" fill="#2F70FE"/>
<circle r="2.55707" transform="matrix(1 0 0 -1 164.504 121.887)" fill="#2F70FE"/>
<circle r="2.55707" transform="matrix(1 0 0 -1 164.504 130.41)" fill="#2F70FE"/>
<circle r="2.55707" transform="matrix(1 0 0 -1 164.504 138.934)" fill="#2F70FE"/>
<circle r="2.55707" transform="matrix(1 0 0 -1 164.504 147.457)" fill="#2F70FE"/>
<circle r="2.55707" transform="matrix(1 0 0 -1 164.504 155.981)" fill="#2F70FE"/>
<circle r="2.55707" transform="matrix(1 0 0 -1 164.504 164.504)" fill="#2F70FE"/>
</svg>
