<svg width="169" height="168" viewBox="0 0 169 168" fill="none" xmlns="http://www.w3.org/2000/svg">
<circle r="2.55707" transform="matrix(1 0 0 -1 3.55414 3.37726)" fill="#6DED02"/>
<circle r="2.55707" transform="matrix(1 0 0 -1 3.55414 11.9009)" fill="#6DED02"/>
<circle r="2.55707" transform="matrix(1 0 0 -1 3.55414 20.4244)" fill="#6DED02"/>
<circle r="2.55707" transform="matrix(1 0 0 -1 3.55414 28.9481)" fill="#6DED02"/>
<circle r="2.55707" transform="matrix(1 0 0 -1 3.55414 37.4715)" fill="#6DED02"/>
<circle r="2.55707" transform="matrix(1 0 0 -1 3.55414 45.9952)" fill="#6DED02"/>
<circle r="2.55707" transform="matrix(1 0 0 -1 3.55414 54.5186)" fill="#6DED02"/>
<circle r="2.55707" transform="matrix(1 0 0 -1 3.55414 63.0423)" fill="#6DED02"/>
<circle r="2.55707" transform="matrix(1 0 0 -1 3.55414 71.5657)" fill="#6DED02"/>
<circle r="2.55707" transform="matrix(1 0 0 -1 3.55414 80.0894)" fill="#6DED02"/>
<circle r="2.55707" transform="matrix(1 0 0 -1 3.55414 88.6129)" fill="#6DED02"/>
<circle r="2.55707" transform="matrix(1 0 0 -1 3.55414 97.1365)" fill="#6DED02"/>
<circle r="2.55707" transform="matrix(1 0 0 -1 3.55414 105.66)" fill="#6DED02"/>
<circle r="2.55707" transform="matrix(1 0 0 -1 3.55414 114.184)" fill="#6DED02"/>
<circle r="2.55707" transform="matrix(1 0 0 -1 3.55414 122.707)" fill="#6DED02"/>
<circle r="2.55707" transform="matrix(1 0 0 -1 3.55414 131.231)" fill="#6DED02"/>
<circle r="2.55707" transform="matrix(1 0 0 -1 3.55414 139.754)" fill="#6DED02"/>
<circle r="2.55707" transform="matrix(1 0 0 -1 3.55414 148.278)" fill="#6DED02"/>
<circle r="2.55707" transform="matrix(1 0 0 -1 3.55414 156.801)" fill="#6DED02"/>
<circle r="2.55707" transform="matrix(1 0 0 -1 3.55414 165.325)" fill="#6DED02"/>
<circle r="2.55707" transform="matrix(1 0 0 -1 12.0776 3.37726)" fill="#6DED02"/>
<circle r="2.55707" transform="matrix(1 0 0 -1 12.0776 11.9009)" fill="#6DED02"/>
<circle r="2.55707" transform="matrix(1 0 0 -1 12.0776 20.4244)" fill="#6DED02"/>
<circle r="2.55707" transform="matrix(1 0 0 -1 12.0776 28.9481)" fill="#6DED02"/>
<circle r="2.55707" transform="matrix(1 0 0 -1 12.0776 37.4715)" fill="#6DED02"/>
<circle r="2.55707" transform="matrix(1 0 0 -1 12.0776 45.9952)" fill="#6DED02"/>
<circle r="2.55707" transform="matrix(1 0 0 -1 12.0776 54.5186)" fill="#6DED02"/>
<circle r="2.55707" transform="matrix(1 0 0 -1 12.0776 63.0423)" fill="#6DED02"/>
<circle r="2.55707" transform="matrix(1 0 0 -1 12.0776 71.5657)" fill="#6DED02"/>
<circle r="2.55707" transform="matrix(1 0 0 -1 12.0776 80.0894)" fill="#6DED02"/>
<circle r="2.55707" transform="matrix(1 0 0 -1 12.0776 88.6129)" fill="#6DED02"/>
<circle r="2.55707" transform="matrix(1 0 0 -1 12.0776 97.1365)" fill="#6DED02"/>
<circle r="2.55707" transform="matrix(1 0 0 -1 12.0776 105.66)" fill="#6DED02"/>
<circle r="2.55707" transform="matrix(1 0 0 -1 12.0776 114.184)" fill="#6DED02"/>
<circle r="2.55707" transform="matrix(1 0 0 -1 12.0776 122.707)" fill="#6DED02"/>
<circle r="2.55707" transform="matrix(1 0 0 -1 12.0776 131.231)" fill="#6DED02"/>
<circle r="2.55707" transform="matrix(1 0 0 -1 12.0776 139.754)" fill="#6DED02"/>
<circle r="2.55707" transform="matrix(1 0 0 -1 12.0776 148.278)" fill="#6DED02"/>
<circle r="2.55707" transform="matrix(1 0 0 -1 12.0776 156.801)" fill="#6DED02"/>
<circle r="2.55707" transform="matrix(1 0 0 -1 12.0776 165.325)" fill="#6DED02"/>
<circle r="2.55707" transform="matrix(1 0 0 -1 20.601 3.37726)" fill="#6DED02"/>
<circle r="2.55707" transform="matrix(1 0 0 -1 20.601 11.9009)" fill="#6DED02"/>
<circle r="2.55707" transform="matrix(1 0 0 -1 20.601 20.4244)" fill="#6DED02"/>
<circle r="2.55707" transform="matrix(1 0 0 -1 20.601 28.9481)" fill="#6DED02"/>
<circle r="2.55707" transform="matrix(1 0 0 -1 20.601 37.4715)" fill="#6DED02"/>
<circle r="2.55707" transform="matrix(1 0 0 -1 20.601 45.9952)" fill="#6DED02"/>
<circle r="2.55707" transform="matrix(1 0 0 -1 20.601 54.5186)" fill="#6DED02"/>
<circle r="2.55707" transform="matrix(1 0 0 -1 20.601 63.0423)" fill="#6DED02"/>
<circle r="2.55707" transform="matrix(1 0 0 -1 20.601 71.5657)" fill="#6DED02"/>
<circle r="2.55707" transform="matrix(1 0 0 -1 20.601 80.0894)" fill="#6DED02"/>
<circle r="2.55707" transform="matrix(1 0 0 -1 20.601 88.6129)" fill="#6DED02"/>
<circle r="2.55707" transform="matrix(1 0 0 -1 20.601 97.1365)" fill="#6DED02"/>
<circle r="2.55707" transform="matrix(1 0 0 -1 20.601 105.66)" fill="#6DED02"/>
<circle r="2.55707" transform="matrix(1 0 0 -1 20.601 114.184)" fill="#6DED02"/>
<circle r="2.55707" transform="matrix(1 0 0 -1 20.601 122.707)" fill="#6DED02"/>
<circle r="2.55707" transform="matrix(1 0 0 -1 20.601 131.231)" fill="#6DED02"/>
<circle r="2.55707" transform="matrix(1 0 0 -1 20.601 139.754)" fill="#6DED02"/>
<circle r="2.55707" transform="matrix(1 0 0 -1 20.601 148.278)" fill="#6DED02"/>
<circle r="2.55707" transform="matrix(1 0 0 -1 20.601 156.801)" fill="#6DED02"/>
<circle r="2.55707" transform="matrix(1 0 0 -1 20.601 165.325)" fill="#6DED02"/>
<circle r="2.55707" transform="matrix(1 0 0 -1 29.1244 3.37726)" fill="#6DED02"/>
<circle r="2.55707" transform="matrix(1 0 0 -1 29.1244 11.9009)" fill="#6DED02"/>
<circle r="2.55707" transform="matrix(1 0 0 -1 29.1244 20.4244)" fill="#6DED02"/>
<circle r="2.55707" transform="matrix(1 0 0 -1 29.1244 28.9481)" fill="#6DED02"/>
<circle r="2.55707" transform="matrix(1 0 0 -1 29.1244 37.4715)" fill="#6DED02"/>
<circle r="2.55707" transform="matrix(1 0 0 -1 29.1244 45.9952)" fill="#6DED02"/>
<circle r="2.55707" transform="matrix(1 0 0 -1 29.1244 54.5186)" fill="#6DED02"/>
<circle r="2.55707" transform="matrix(1 0 0 -1 29.1244 63.0423)" fill="#6DED02"/>
<circle r="2.55707" transform="matrix(1 0 0 -1 29.1244 71.5657)" fill="#6DED02"/>
<circle r="2.55707" transform="matrix(1 0 0 -1 29.1244 80.0894)" fill="#6DED02"/>
<circle r="2.55707" transform="matrix(1 0 0 -1 29.1244 88.6129)" fill="#6DED02"/>
<circle r="2.55707" transform="matrix(1 0 0 -1 29.1244 97.1365)" fill="#6DED02"/>
<circle r="2.55707" transform="matrix(1 0 0 -1 29.1244 105.66)" fill="#6DED02"/>
<circle r="2.55707" transform="matrix(1 0 0 -1 29.1244 114.184)" fill="#6DED02"/>
<circle r="2.55707" transform="matrix(1 0 0 -1 29.1244 122.707)" fill="#6DED02"/>
<circle r="2.55707" transform="matrix(1 0 0 -1 29.1244 131.231)" fill="#6DED02"/>
<circle r="2.55707" transform="matrix(1 0 0 -1 29.1244 139.754)" fill="#6DED02"/>
<circle r="2.55707" transform="matrix(1 0 0 -1 29.1244 148.278)" fill="#6DED02"/>
<circle r="2.55707" transform="matrix(1 0 0 -1 29.1244 156.801)" fill="#6DED02"/>
<circle r="2.55707" transform="matrix(1 0 0 -1 29.1244 165.325)" fill="#6DED02"/>
<circle r="2.55707" transform="matrix(1 0 0 -1 37.6479 3.37726)" fill="#6DED02"/>
<circle r="2.55707" transform="matrix(1 0 0 -1 37.6479 11.9009)" fill="#6DED02"/>
<circle r="2.55707" transform="matrix(1 0 0 -1 37.6479 20.4244)" fill="#6DED02"/>
<circle r="2.55707" transform="matrix(1 0 0 -1 37.6479 28.9481)" fill="#6DED02"/>
<circle r="2.55707" transform="matrix(1 0 0 -1 37.6479 37.4715)" fill="#6DED02"/>
<circle r="2.55707" transform="matrix(1 0 0 -1 37.6479 45.9952)" fill="#6DED02"/>
<circle r="2.55707" transform="matrix(1 0 0 -1 37.6479 54.5186)" fill="#6DED02"/>
<circle r="2.55707" transform="matrix(1 0 0 -1 37.6479 63.0423)" fill="#6DED02"/>
<circle r="2.55707" transform="matrix(1 0 0 -1 37.6479 71.5657)" fill="#6DED02"/>
<circle r="2.55707" transform="matrix(1 0 0 -1 37.6479 80.0894)" fill="#6DED02"/>
<circle r="2.55707" transform="matrix(1 0 0 -1 37.6479 88.6129)" fill="#6DED02"/>
<circle r="2.55707" transform="matrix(1 0 0 -1 37.6479 97.1365)" fill="#6DED02"/>
<circle r="2.55707" transform="matrix(1 0 0 -1 37.6479 105.66)" fill="#6DED02"/>
<circle r="2.55707" transform="matrix(1 0 0 -1 37.6479 114.184)" fill="#6DED02"/>
<circle r="2.55707" transform="matrix(1 0 0 -1 37.6479 122.707)" fill="#6DED02"/>
<circle r="2.55707" transform="matrix(1 0 0 -1 37.6479 131.231)" fill="#6DED02"/>
<circle r="2.55707" transform="matrix(1 0 0 -1 37.6479 139.754)" fill="#6DED02"/>
<circle r="2.55707" transform="matrix(1 0 0 -1 37.6479 148.278)" fill="#6DED02"/>
<circle r="2.55707" transform="matrix(1 0 0 -1 37.6479 156.801)" fill="#6DED02"/>
<circle r="2.55707" transform="matrix(1 0 0 -1 37.6479 165.325)" fill="#6DED02"/>
<circle r="2.55707" transform="matrix(1 0 0 -1 46.1723 3.37726)" fill="#6DED02"/>
<circle r="2.55707" transform="matrix(1 0 0 -1 46.1723 11.9009)" fill="#6DED02"/>
<circle r="2.55707" transform="matrix(1 0 0 -1 46.1723 20.4244)" fill="#6DED02"/>
<circle r="2.55707" transform="matrix(1 0 0 -1 46.1723 28.9481)" fill="#6DED02"/>
<circle r="2.55707" transform="matrix(1 0 0 -1 46.1723 37.4715)" fill="#6DED02"/>
<circle r="2.55707" transform="matrix(1 0 0 -1 46.1723 45.9952)" fill="#6DED02"/>
<circle r="2.55707" transform="matrix(1 0 0 -1 46.1723 54.5186)" fill="#6DED02"/>
<circle r="2.55707" transform="matrix(1 0 0 -1 46.1723 63.0423)" fill="#6DED02"/>
<circle r="2.55707" transform="matrix(1 0 0 -1 46.1723 71.5657)" fill="#6DED02"/>
<circle r="2.55707" transform="matrix(1 0 0 -1 46.1723 80.0894)" fill="#6DED02"/>
<circle r="2.55707" transform="matrix(1 0 0 -1 46.1723 88.6129)" fill="#6DED02"/>
<circle r="2.55707" transform="matrix(1 0 0 -1 46.1723 97.1365)" fill="#6DED02"/>
<circle r="2.55707" transform="matrix(1 0 0 -1 46.1723 105.66)" fill="#6DED02"/>
<circle r="2.55707" transform="matrix(1 0 0 -1 46.1723 114.184)" fill="#6DED02"/>
<circle r="2.55707" transform="matrix(1 0 0 -1 46.1723 122.707)" fill="#6DED02"/>
<circle r="2.55707" transform="matrix(1 0 0 -1 46.1723 131.231)" fill="#6DED02"/>
<circle r="2.55707" transform="matrix(1 0 0 -1 46.1723 139.754)" fill="#6DED02"/>
<circle r="2.55707" transform="matrix(1 0 0 -1 46.1723 148.278)" fill="#6DED02"/>
<circle r="2.55707" transform="matrix(1 0 0 -1 46.1723 156.801)" fill="#6DED02"/>
<circle r="2.55707" transform="matrix(1 0 0 -1 46.1723 165.325)" fill="#6DED02"/>
<circle r="2.55707" transform="matrix(1 0 0 -1 54.6957 3.37726)" fill="#6DED02"/>
<circle r="2.55707" transform="matrix(1 0 0 -1 54.6957 11.9009)" fill="#6DED02"/>
<circle r="2.55707" transform="matrix(1 0 0 -1 54.6957 20.4244)" fill="#6DED02"/>
<circle r="2.55707" transform="matrix(1 0 0 -1 54.6957 28.9481)" fill="#6DED02"/>
<circle r="2.55707" transform="matrix(1 0 0 -1 54.6957 37.4715)" fill="#6DED02"/>
<circle r="2.55707" transform="matrix(1 0 0 -1 54.6957 45.9952)" fill="#6DED02"/>
<circle r="2.55707" transform="matrix(1 0 0 -1 54.6957 54.5186)" fill="#6DED02"/>
<circle r="2.55707" transform="matrix(1 0 0 -1 54.6957 63.0423)" fill="#6DED02"/>
<circle r="2.55707" transform="matrix(1 0 0 -1 54.6957 71.5657)" fill="#6DED02"/>
<circle r="2.55707" transform="matrix(1 0 0 -1 54.6957 80.0894)" fill="#6DED02"/>
<circle r="2.55707" transform="matrix(1 0 0 -1 54.6957 88.6129)" fill="#6DED02"/>
<circle r="2.55707" transform="matrix(1 0 0 -1 54.6957 97.1365)" fill="#6DED02"/>
<circle r="2.55707" transform="matrix(1 0 0 -1 54.6957 105.66)" fill="#6DED02"/>
<circle r="2.55707" transform="matrix(1 0 0 -1 54.6957 114.184)" fill="#6DED02"/>
<circle r="2.55707" transform="matrix(1 0 0 -1 54.6957 122.707)" fill="#6DED02"/>
<circle r="2.55707" transform="matrix(1 0 0 -1 54.6957 131.231)" fill="#6DED02"/>
<circle r="2.55707" transform="matrix(1 0 0 -1 54.6957 139.754)" fill="#6DED02"/>
<circle r="2.55707" transform="matrix(1 0 0 -1 54.6957 148.278)" fill="#6DED02"/>
<circle r="2.55707" transform="matrix(1 0 0 -1 54.6957 156.801)" fill="#6DED02"/>
<circle r="2.55707" transform="matrix(1 0 0 -1 54.6957 165.325)" fill="#6DED02"/>
<circle r="2.55707" transform="matrix(1 0 0 -1 63.2192 3.37726)" fill="#6DED02"/>
<circle r="2.55707" transform="matrix(1 0 0 -1 63.2192 11.9009)" fill="#6DED02"/>
<circle r="2.55707" transform="matrix(1 0 0 -1 63.2192 20.4244)" fill="#6DED02"/>
<circle r="2.55707" transform="matrix(1 0 0 -1 63.2192 28.9481)" fill="#6DED02"/>
<circle r="2.55707" transform="matrix(1 0 0 -1 63.2192 37.4715)" fill="#6DED02"/>
<circle r="2.55707" transform="matrix(1 0 0 -1 63.2192 45.9952)" fill="#6DED02"/>
<circle r="2.55707" transform="matrix(1 0 0 -1 63.2192 54.5186)" fill="#6DED02"/>
<circle r="2.55707" transform="matrix(1 0 0 -1 63.2192 63.0423)" fill="#6DED02"/>
<circle r="2.55707" transform="matrix(1 0 0 -1 63.2192 71.5657)" fill="#6DED02"/>
<circle r="2.55707" transform="matrix(1 0 0 -1 63.2192 80.0894)" fill="#6DED02"/>
<circle r="2.55707" transform="matrix(1 0 0 -1 63.2192 88.6129)" fill="#6DED02"/>
<circle r="2.55707" transform="matrix(1 0 0 -1 63.2192 97.1365)" fill="#6DED02"/>
<circle r="2.55707" transform="matrix(1 0 0 -1 63.2192 105.66)" fill="#6DED02"/>
<circle r="2.55707" transform="matrix(1 0 0 -1 63.2192 114.184)" fill="#6DED02"/>
<circle r="2.55707" transform="matrix(1 0 0 -1 63.2192 122.707)" fill="#6DED02"/>
<circle r="2.55707" transform="matrix(1 0 0 -1 63.2192 131.231)" fill="#6DED02"/>
<circle r="2.55707" transform="matrix(1 0 0 -1 63.2192 139.754)" fill="#6DED02"/>
<circle r="2.55707" transform="matrix(1 0 0 -1 63.2192 148.278)" fill="#6DED02"/>
<circle r="2.55707" transform="matrix(1 0 0 -1 63.2192 156.801)" fill="#6DED02"/>
<circle r="2.55707" transform="matrix(1 0 0 -1 63.2192 165.325)" fill="#6DED02"/>
<circle r="2.55707" transform="matrix(1 0 0 -1 71.7426 3.37726)" fill="#6DED02"/>
<circle r="2.55707" transform="matrix(1 0 0 -1 71.7426 11.9009)" fill="#6DED02"/>
<circle r="2.55707" transform="matrix(1 0 0 -1 71.7426 20.4244)" fill="#6DED02"/>
<circle r="2.55707" transform="matrix(1 0 0 -1 71.7426 28.9481)" fill="#6DED02"/>
<circle r="2.55707" transform="matrix(1 0 0 -1 71.7426 37.4715)" fill="#6DED02"/>
<circle r="2.55707" transform="matrix(1 0 0 -1 71.7426 45.9952)" fill="#6DED02"/>
<circle r="2.55707" transform="matrix(1 0 0 -1 71.7426 54.5186)" fill="#6DED02"/>
<circle r="2.55707" transform="matrix(1 0 0 -1 71.7426 63.0423)" fill="#6DED02"/>
<circle r="2.55707" transform="matrix(1 0 0 -1 71.7426 71.5657)" fill="#6DED02"/>
<circle r="2.55707" transform="matrix(1 0 0 -1 71.7426 80.0894)" fill="#6DED02"/>
<circle r="2.55707" transform="matrix(1 0 0 -1 71.7426 88.6129)" fill="#6DED02"/>
<circle r="2.55707" transform="matrix(1 0 0 -1 71.7426 97.1365)" fill="#6DED02"/>
<circle r="2.55707" transform="matrix(1 0 0 -1 71.7426 105.66)" fill="#6DED02"/>
<circle r="2.55707" transform="matrix(1 0 0 -1 71.7426 114.184)" fill="#6DED02"/>
<circle r="2.55707" transform="matrix(1 0 0 -1 71.7426 122.707)" fill="#6DED02"/>
<circle r="2.55707" transform="matrix(1 0 0 -1 71.7426 131.231)" fill="#6DED02"/>
<circle r="2.55707" transform="matrix(1 0 0 -1 71.7426 139.754)" fill="#6DED02"/>
<circle r="2.55707" transform="matrix(1 0 0 -1 71.7426 148.278)" fill="#6DED02"/>
<circle r="2.55707" transform="matrix(1 0 0 -1 71.7426 156.801)" fill="#6DED02"/>
<circle r="2.55707" transform="matrix(1 0 0 -1 71.7426 165.325)" fill="#6DED02"/>
<circle r="2.55707" transform="matrix(1 0 0 -1 80.266 3.37726)" fill="#6DED02"/>
<circle r="2.55707" transform="matrix(1 0 0 -1 80.266 11.9009)" fill="#6DED02"/>
<circle r="2.55707" transform="matrix(1 0 0 -1 80.266 20.4244)" fill="#6DED02"/>
<circle r="2.55707" transform="matrix(1 0 0 -1 80.266 28.9481)" fill="#6DED02"/>
<circle r="2.55707" transform="matrix(1 0 0 -1 80.266 37.4715)" fill="#6DED02"/>
<circle r="2.55707" transform="matrix(1 0 0 -1 80.266 45.9952)" fill="#6DED02"/>
<circle r="2.55707" transform="matrix(1 0 0 -1 80.266 54.5186)" fill="#6DED02"/>
<circle r="2.55707" transform="matrix(1 0 0 -1 80.266 63.0423)" fill="#6DED02"/>
<circle r="2.55707" transform="matrix(1 0 0 -1 80.266 71.5657)" fill="#6DED02"/>
<circle r="2.55707" transform="matrix(1 0 0 -1 80.266 80.0894)" fill="#6DED02"/>
<circle r="2.55707" transform="matrix(1 0 0 -1 80.266 88.6129)" fill="#6DED02"/>
<circle r="2.55707" transform="matrix(1 0 0 -1 80.266 97.1365)" fill="#6DED02"/>
<circle r="2.55707" transform="matrix(1 0 0 -1 80.266 105.66)" fill="#6DED02"/>
<circle r="2.55707" transform="matrix(1 0 0 -1 80.266 114.184)" fill="#6DED02"/>
<circle r="2.55707" transform="matrix(1 0 0 -1 80.266 122.707)" fill="#6DED02"/>
<circle r="2.55707" transform="matrix(1 0 0 -1 80.266 131.231)" fill="#6DED02"/>
<circle r="2.55707" transform="matrix(1 0 0 -1 80.266 139.754)" fill="#6DED02"/>
<circle r="2.55707" transform="matrix(1 0 0 -1 80.266 148.278)" fill="#6DED02"/>
<circle r="2.55707" transform="matrix(1 0 0 -1 80.266 156.801)" fill="#6DED02"/>
<circle r="2.55707" transform="matrix(1 0 0 -1 80.266 165.325)" fill="#6DED02"/>
<circle r="2.55707" transform="matrix(1 0 0 -1 88.7895 3.37726)" fill="#6DED02"/>
<circle r="2.55707" transform="matrix(1 0 0 -1 88.7895 11.9009)" fill="#6DED02"/>
<circle r="2.55707" transform="matrix(1 0 0 -1 88.7895 20.4244)" fill="#6DED02"/>
<circle r="2.55707" transform="matrix(1 0 0 -1 88.7895 28.9481)" fill="#6DED02"/>
<circle r="2.55707" transform="matrix(1 0 0 -1 88.7895 37.4715)" fill="#6DED02"/>
<circle r="2.55707" transform="matrix(1 0 0 -1 88.7895 45.9952)" fill="#6DED02"/>
<circle r="2.55707" transform="matrix(1 0 0 -1 88.7895 54.5186)" fill="#6DED02"/>
<circle r="2.55707" transform="matrix(1 0 0 -1 88.7895 63.0423)" fill="#6DED02"/>
<circle r="2.55707" transform="matrix(1 0 0 -1 88.7895 71.5657)" fill="#6DED02"/>
<circle r="2.55707" transform="matrix(1 0 0 -1 88.7895 80.0894)" fill="#6DED02"/>
<circle r="2.55707" transform="matrix(1 0 0 -1 88.7895 88.6129)" fill="#6DED02"/>
<circle r="2.55707" transform="matrix(1 0 0 -1 88.7895 97.1365)" fill="#6DED02"/>
<circle r="2.55707" transform="matrix(1 0 0 -1 88.7895 105.66)" fill="#6DED02"/>
<circle r="2.55707" transform="matrix(1 0 0 -1 88.7895 114.184)" fill="#6DED02"/>
<circle r="2.55707" transform="matrix(1 0 0 -1 88.7895 122.707)" fill="#6DED02"/>
<circle r="2.55707" transform="matrix(1 0 0 -1 88.7895 131.231)" fill="#6DED02"/>
<circle r="2.55707" transform="matrix(1 0 0 -1 88.7895 139.754)" fill="#6DED02"/>
<circle r="2.55707" transform="matrix(1 0 0 -1 88.7895 148.278)" fill="#6DED02"/>
<circle r="2.55707" transform="matrix(1 0 0 -1 88.7895 156.801)" fill="#6DED02"/>
<circle r="2.55707" transform="matrix(1 0 0 -1 88.7895 165.325)" fill="#6DED02"/>
<circle r="2.55707" transform="matrix(1 0 0 -1 97.3129 3.37726)" fill="#6DED02"/>
<circle r="2.55707" transform="matrix(1 0 0 -1 97.3129 11.9009)" fill="#6DED02"/>
<circle r="2.55707" transform="matrix(1 0 0 -1 97.3129 20.4244)" fill="#6DED02"/>
<circle r="2.55707" transform="matrix(1 0 0 -1 97.3129 28.9481)" fill="#6DED02"/>
<circle r="2.55707" transform="matrix(1 0 0 -1 97.3129 37.4715)" fill="#6DED02"/>
<circle r="2.55707" transform="matrix(1 0 0 -1 97.3129 45.9952)" fill="#6DED02"/>
<circle r="2.55707" transform="matrix(1 0 0 -1 97.3129 54.5186)" fill="#6DED02"/>
<circle r="2.55707" transform="matrix(1 0 0 -1 97.3129 63.0423)" fill="#6DED02"/>
<circle r="2.55707" transform="matrix(1 0 0 -1 97.3129 71.5657)" fill="#6DED02"/>
<circle r="2.55707" transform="matrix(1 0 0 -1 97.3129 80.0894)" fill="#6DED02"/>
<circle r="2.55707" transform="matrix(1 0 0 -1 97.3129 88.6129)" fill="#6DED02"/>
<circle r="2.55707" transform="matrix(1 0 0 -1 97.3129 97.1365)" fill="#6DED02"/>
<circle r="2.55707" transform="matrix(1 0 0 -1 97.3129 105.66)" fill="#6DED02"/>
<circle r="2.55707" transform="matrix(1 0 0 -1 97.3129 114.184)" fill="#6DED02"/>
<circle r="2.55707" transform="matrix(1 0 0 -1 97.3129 122.707)" fill="#6DED02"/>
<circle r="2.55707" transform="matrix(1 0 0 -1 97.3129 131.231)" fill="#6DED02"/>
<circle r="2.55707" transform="matrix(1 0 0 -1 97.3129 139.754)" fill="#6DED02"/>
<circle r="2.55707" transform="matrix(1 0 0 -1 97.3129 148.278)" fill="#6DED02"/>
<circle r="2.55707" transform="matrix(1 0 0 -1 97.3129 156.801)" fill="#6DED02"/>
<circle r="2.55707" transform="matrix(1 0 0 -1 97.3129 165.325)" fill="#6DED02"/>
<circle r="2.55707" transform="matrix(1 0 0 -1 105.836 3.37726)" fill="#6DED02"/>
<circle r="2.55707" transform="matrix(1 0 0 -1 105.836 11.9009)" fill="#6DED02"/>
<circle r="2.55707" transform="matrix(1 0 0 -1 105.836 20.4244)" fill="#6DED02"/>
<circle r="2.55707" transform="matrix(1 0 0 -1 105.836 28.9481)" fill="#6DED02"/>
<circle r="2.55707" transform="matrix(1 0 0 -1 105.836 37.4715)" fill="#6DED02"/>
<circle r="2.55707" transform="matrix(1 0 0 -1 105.836 45.9952)" fill="#6DED02"/>
<circle r="2.55707" transform="matrix(1 0 0 -1 105.836 54.5186)" fill="#6DED02"/>
<circle r="2.55707" transform="matrix(1 0 0 -1 105.836 63.0423)" fill="#6DED02"/>
<circle r="2.55707" transform="matrix(1 0 0 -1 105.836 71.5657)" fill="#6DED02"/>
<circle r="2.55707" transform="matrix(1 0 0 -1 105.836 80.0894)" fill="#6DED02"/>
<circle r="2.55707" transform="matrix(1 0 0 -1 105.836 88.6129)" fill="#6DED02"/>
<circle r="2.55707" transform="matrix(1 0 0 -1 105.836 97.1365)" fill="#6DED02"/>
<circle r="2.55707" transform="matrix(1 0 0 -1 105.836 105.66)" fill="#6DED02"/>
<circle r="2.55707" transform="matrix(1 0 0 -1 105.836 114.184)" fill="#6DED02"/>
<circle r="2.55707" transform="matrix(1 0 0 -1 105.836 122.707)" fill="#6DED02"/>
<circle r="2.55707" transform="matrix(1 0 0 -1 105.836 131.231)" fill="#6DED02"/>
<circle r="2.55707" transform="matrix(1 0 0 -1 105.836 139.754)" fill="#6DED02"/>
<circle r="2.55707" transform="matrix(1 0 0 -1 105.836 148.278)" fill="#6DED02"/>
<circle r="2.55707" transform="matrix(1 0 0 -1 105.836 156.801)" fill="#6DED02"/>
<circle r="2.55707" transform="matrix(1 0 0 -1 105.836 165.325)" fill="#6DED02"/>
<circle r="2.55707" transform="matrix(1 0 0 -1 114.361 3.37726)" fill="#6DED02"/>
<circle r="2.55707" transform="matrix(1 0 0 -1 114.361 11.9009)" fill="#6DED02"/>
<circle r="2.55707" transform="matrix(1 0 0 -1 114.361 20.4244)" fill="#6DED02"/>
<circle r="2.55707" transform="matrix(1 0 0 -1 114.361 28.9481)" fill="#6DED02"/>
<circle r="2.55707" transform="matrix(1 0 0 -1 114.361 37.4715)" fill="#6DED02"/>
<circle r="2.55707" transform="matrix(1 0 0 -1 114.361 45.9952)" fill="#6DED02"/>
<circle r="2.55707" transform="matrix(1 0 0 -1 114.361 54.5186)" fill="#6DED02"/>
<circle r="2.55707" transform="matrix(1 0 0 -1 114.361 63.0423)" fill="#6DED02"/>
<circle r="2.55707" transform="matrix(1 0 0 -1 114.361 71.5657)" fill="#6DED02"/>
<circle r="2.55707" transform="matrix(1 0 0 -1 114.361 80.0894)" fill="#6DED02"/>
<circle r="2.55707" transform="matrix(1 0 0 -1 114.361 88.6129)" fill="#6DED02"/>
<circle r="2.55707" transform="matrix(1 0 0 -1 114.361 97.1365)" fill="#6DED02"/>
<circle r="2.55707" transform="matrix(1 0 0 -1 114.361 105.66)" fill="#6DED02"/>
<circle r="2.55707" transform="matrix(1 0 0 -1 114.361 114.184)" fill="#6DED02"/>
<circle r="2.55707" transform="matrix(1 0 0 -1 114.361 122.707)" fill="#6DED02"/>
<circle r="2.55707" transform="matrix(1 0 0 -1 114.361 131.231)" fill="#6DED02"/>
<circle r="2.55707" transform="matrix(1 0 0 -1 114.361 139.754)" fill="#6DED02"/>
<circle r="2.55707" transform="matrix(1 0 0 -1 114.361 148.278)" fill="#6DED02"/>
<circle r="2.55707" transform="matrix(1 0 0 -1 114.361 156.801)" fill="#6DED02"/>
<circle r="2.55707" transform="matrix(1 0 0 -1 114.361 165.325)" fill="#6DED02"/>
<circle r="2.55707" transform="matrix(1 0 0 -1 122.884 3.37726)" fill="#6DED02"/>
<circle r="2.55707" transform="matrix(1 0 0 -1 122.884 11.9009)" fill="#6DED02"/>
<circle r="2.55707" transform="matrix(1 0 0 -1 122.884 20.4244)" fill="#6DED02"/>
<circle r="2.55707" transform="matrix(1 0 0 -1 122.884 28.9481)" fill="#6DED02"/>
<circle r="2.55707" transform="matrix(1 0 0 -1 122.884 37.4715)" fill="#6DED02"/>
<circle r="2.55707" transform="matrix(1 0 0 -1 122.884 45.9952)" fill="#6DED02"/>
<circle r="2.55707" transform="matrix(1 0 0 -1 122.884 54.5186)" fill="#6DED02"/>
<circle r="2.55707" transform="matrix(1 0 0 -1 122.884 63.0423)" fill="#6DED02"/>
<circle r="2.55707" transform="matrix(1 0 0 -1 122.884 71.5657)" fill="#6DED02"/>
<circle r="2.55707" transform="matrix(1 0 0 -1 122.884 80.0894)" fill="#6DED02"/>
<circle r="2.55707" transform="matrix(1 0 0 -1 122.884 88.6129)" fill="#6DED02"/>
<circle r="2.55707" transform="matrix(1 0 0 -1 122.884 97.1365)" fill="#6DED02"/>
<circle r="2.55707" transform="matrix(1 0 0 -1 122.884 105.66)" fill="#6DED02"/>
<circle r="2.55707" transform="matrix(1 0 0 -1 122.884 114.184)" fill="#6DED02"/>
<circle r="2.55707" transform="matrix(1 0 0 -1 122.884 122.707)" fill="#6DED02"/>
<circle r="2.55707" transform="matrix(1 0 0 -1 122.884 131.231)" fill="#6DED02"/>
<circle r="2.55707" transform="matrix(1 0 0 -1 122.884 139.754)" fill="#6DED02"/>
<circle r="2.55707" transform="matrix(1 0 0 -1 122.884 148.278)" fill="#6DED02"/>
<circle r="2.55707" transform="matrix(1 0 0 -1 122.884 156.801)" fill="#6DED02"/>
<circle r="2.55707" transform="matrix(1 0 0 -1 122.884 165.325)" fill="#6DED02"/>
<circle r="2.55707" transform="matrix(1 0 0 -1 131.408 3.37726)" fill="#6DED02"/>
<circle r="2.55707" transform="matrix(1 0 0 -1 131.408 11.9009)" fill="#6DED02"/>
<circle r="2.55707" transform="matrix(1 0 0 -1 131.408 20.4244)" fill="#6DED02"/>
<circle r="2.55707" transform="matrix(1 0 0 -1 131.408 28.9481)" fill="#6DED02"/>
<circle r="2.55707" transform="matrix(1 0 0 -1 131.408 37.4715)" fill="#6DED02"/>
<circle r="2.55707" transform="matrix(1 0 0 -1 131.408 45.9952)" fill="#6DED02"/>
<circle r="2.55707" transform="matrix(1 0 0 -1 131.408 54.5186)" fill="#6DED02"/>
<circle r="2.55707" transform="matrix(1 0 0 -1 131.408 63.0423)" fill="#6DED02"/>
<circle r="2.55707" transform="matrix(1 0 0 -1 131.408 71.5657)" fill="#6DED02"/>
<circle r="2.55707" transform="matrix(1 0 0 -1 131.408 80.0894)" fill="#6DED02"/>
<circle r="2.55707" transform="matrix(1 0 0 -1 131.408 88.6129)" fill="#6DED02"/>
<circle r="2.55707" transform="matrix(1 0 0 -1 131.408 97.1365)" fill="#6DED02"/>
<circle r="2.55707" transform="matrix(1 0 0 -1 131.408 105.66)" fill="#6DED02"/>
<circle r="2.55707" transform="matrix(1 0 0 -1 131.408 114.184)" fill="#6DED02"/>
<circle r="2.55707" transform="matrix(1 0 0 -1 131.408 122.707)" fill="#6DED02"/>
<circle r="2.55707" transform="matrix(1 0 0 -1 131.408 131.231)" fill="#6DED02"/>
<circle r="2.55707" transform="matrix(1 0 0 -1 131.408 139.754)" fill="#6DED02"/>
<circle r="2.55707" transform="matrix(1 0 0 -1 131.408 148.278)" fill="#6DED02"/>
<circle r="2.55707" transform="matrix(1 0 0 -1 131.408 156.801)" fill="#6DED02"/>
<circle r="2.55707" transform="matrix(1 0 0 -1 131.408 165.325)" fill="#6DED02"/>
<circle r="2.55707" transform="matrix(1 0 0 -1 139.931 3.37726)" fill="#6DED02"/>
<circle r="2.55707" transform="matrix(1 0 0 -1 139.931 11.9009)" fill="#6DED02"/>
<circle r="2.55707" transform="matrix(1 0 0 -1 139.931 20.4244)" fill="#6DED02"/>
<circle r="2.55707" transform="matrix(1 0 0 -1 139.931 28.9481)" fill="#6DED02"/>
<circle r="2.55707" transform="matrix(1 0 0 -1 139.931 37.4715)" fill="#6DED02"/>
<circle r="2.55707" transform="matrix(1 0 0 -1 139.931 45.9952)" fill="#6DED02"/>
<circle r="2.55707" transform="matrix(1 0 0 -1 139.931 54.5186)" fill="#6DED02"/>
<circle r="2.55707" transform="matrix(1 0 0 -1 139.931 63.0423)" fill="#6DED02"/>
<circle r="2.55707" transform="matrix(1 0 0 -1 139.931 71.5657)" fill="#6DED02"/>
<circle r="2.55707" transform="matrix(1 0 0 -1 139.931 80.0894)" fill="#6DED02"/>
<circle r="2.55707" transform="matrix(1 0 0 -1 139.931 88.6129)" fill="#6DED02"/>
<circle r="2.55707" transform="matrix(1 0 0 -1 139.931 97.1365)" fill="#6DED02"/>
<circle r="2.55707" transform="matrix(1 0 0 -1 139.931 105.66)" fill="#6DED02"/>
<circle r="2.55707" transform="matrix(1 0 0 -1 139.931 114.184)" fill="#6DED02"/>
<circle r="2.55707" transform="matrix(1 0 0 -1 139.931 122.707)" fill="#6DED02"/>
<circle r="2.55707" transform="matrix(1 0 0 -1 139.931 131.231)" fill="#6DED02"/>
<circle r="2.55707" transform="matrix(1 0 0 -1 139.931 139.754)" fill="#6DED02"/>
<circle r="2.55707" transform="matrix(1 0 0 -1 139.931 148.278)" fill="#6DED02"/>
<circle r="2.55707" transform="matrix(1 0 0 -1 139.931 156.801)" fill="#6DED02"/>
<circle r="2.55707" transform="matrix(1 0 0 -1 139.931 165.325)" fill="#6DED02"/>
<circle r="2.55707" transform="matrix(1 0 0 -1 148.455 3.37726)" fill="#6DED02"/>
<circle r="2.55707" transform="matrix(1 0 0 -1 148.455 11.9009)" fill="#6DED02"/>
<circle r="2.55707" transform="matrix(1 0 0 -1 148.455 20.4244)" fill="#6DED02"/>
<circle r="2.55707" transform="matrix(1 0 0 -1 148.455 28.9481)" fill="#6DED02"/>
<circle r="2.55707" transform="matrix(1 0 0 -1 148.455 37.4715)" fill="#6DED02"/>
<circle r="2.55707" transform="matrix(1 0 0 -1 148.455 45.9952)" fill="#6DED02"/>
<circle r="2.55707" transform="matrix(1 0 0 -1 148.455 54.5186)" fill="#6DED02"/>
<circle r="2.55707" transform="matrix(1 0 0 -1 148.455 63.0423)" fill="#6DED02"/>
<circle r="2.55707" transform="matrix(1 0 0 -1 148.455 71.5657)" fill="#6DED02"/>
<circle r="2.55707" transform="matrix(1 0 0 -1 148.455 80.0894)" fill="#6DED02"/>
<circle r="2.55707" transform="matrix(1 0 0 -1 148.455 88.6129)" fill="#6DED02"/>
<circle r="2.55707" transform="matrix(1 0 0 -1 148.455 97.1365)" fill="#6DED02"/>
<circle r="2.55707" transform="matrix(1 0 0 -1 148.455 105.66)" fill="#6DED02"/>
<circle r="2.55707" transform="matrix(1 0 0 -1 148.455 114.184)" fill="#6DED02"/>
<circle r="2.55707" transform="matrix(1 0 0 -1 148.455 122.707)" fill="#6DED02"/>
<circle r="2.55707" transform="matrix(1 0 0 -1 148.455 131.231)" fill="#6DED02"/>
<circle r="2.55707" transform="matrix(1 0 0 -1 148.455 139.754)" fill="#6DED02"/>
<circle r="2.55707" transform="matrix(1 0 0 -1 148.455 148.278)" fill="#6DED02"/>
<circle r="2.55707" transform="matrix(1 0 0 -1 148.455 156.801)" fill="#6DED02"/>
<circle r="2.55707" transform="matrix(1 0 0 -1 148.455 165.325)" fill="#6DED02"/>
<circle r="2.55707" transform="matrix(1 0 0 -1 156.978 3.37726)" fill="#6DED02"/>
<circle r="2.55707" transform="matrix(1 0 0 -1 156.978 11.9009)" fill="#6DED02"/>
<circle r="2.55707" transform="matrix(1 0 0 -1 156.978 20.4244)" fill="#6DED02"/>
<circle r="2.55707" transform="matrix(1 0 0 -1 156.978 28.9481)" fill="#6DED02"/>
<circle r="2.55707" transform="matrix(1 0 0 -1 156.978 37.4715)" fill="#6DED02"/>
<circle r="2.55707" transform="matrix(1 0 0 -1 156.978 45.9952)" fill="#6DED02"/>
<circle r="2.55707" transform="matrix(1 0 0 -1 156.978 54.5186)" fill="#6DED02"/>
<circle r="2.55707" transform="matrix(1 0 0 -1 156.978 63.0423)" fill="#6DED02"/>
<circle r="2.55707" transform="matrix(1 0 0 -1 156.978 71.5657)" fill="#6DED02"/>
<circle r="2.55707" transform="matrix(1 0 0 -1 156.978 80.0894)" fill="#6DED02"/>
<circle r="2.55707" transform="matrix(1 0 0 -1 156.978 88.6129)" fill="#6DED02"/>
<circle r="2.55707" transform="matrix(1 0 0 -1 156.978 97.1365)" fill="#6DED02"/>
<circle r="2.55707" transform="matrix(1 0 0 -1 156.978 105.66)" fill="#6DED02"/>
<circle r="2.55707" transform="matrix(1 0 0 -1 156.978 114.184)" fill="#6DED02"/>
<circle r="2.55707" transform="matrix(1 0 0 -1 156.978 122.707)" fill="#6DED02"/>
<circle r="2.55707" transform="matrix(1 0 0 -1 156.978 131.231)" fill="#6DED02"/>
<circle r="2.55707" transform="matrix(1 0 0 -1 156.978 139.754)" fill="#6DED02"/>
<circle r="2.55707" transform="matrix(1 0 0 -1 156.978 148.278)" fill="#6DED02"/>
<circle r="2.55707" transform="matrix(1 0 0 -1 156.978 156.801)" fill="#6DED02"/>
<circle r="2.55707" transform="matrix(1 0 0 -1 156.978 165.325)" fill="#6DED02"/>
<circle r="2.55707" transform="matrix(1 0 0 -1 165.501 3.37726)" fill="#6DED02"/>
<circle r="2.55707" transform="matrix(1 0 0 -1 165.501 11.9009)" fill="#6DED02"/>
<circle r="2.55707" transform="matrix(1 0 0 -1 165.501 20.4244)" fill="#6DED02"/>
<circle r="2.55707" transform="matrix(1 0 0 -1 165.501 28.9481)" fill="#6DED02"/>
<circle r="2.55707" transform="matrix(1 0 0 -1 165.501 37.4715)" fill="#6DED02"/>
<circle r="2.55707" transform="matrix(1 0 0 -1 165.501 45.9952)" fill="#6DED02"/>
<circle r="2.55707" transform="matrix(1 0 0 -1 165.501 54.5186)" fill="#6DED02"/>
<circle r="2.55707" transform="matrix(1 0 0 -1 165.501 63.0423)" fill="#6DED02"/>
<circle r="2.55707" transform="matrix(1 0 0 -1 165.501 71.5657)" fill="#6DED02"/>
<circle r="2.55707" transform="matrix(1 0 0 -1 165.501 80.0894)" fill="#6DED02"/>
<circle r="2.55707" transform="matrix(1 0 0 -1 165.501 88.6129)" fill="#6DED02"/>
<circle r="2.55707" transform="matrix(1 0 0 -1 165.501 97.1365)" fill="#6DED02"/>
<circle r="2.55707" transform="matrix(1 0 0 -1 165.501 105.66)" fill="#6DED02"/>
<circle r="2.55707" transform="matrix(1 0 0 -1 165.501 114.184)" fill="#6DED02"/>
<circle r="2.55707" transform="matrix(1 0 0 -1 165.501 122.707)" fill="#6DED02"/>
<circle r="2.55707" transform="matrix(1 0 0 -1 165.501 131.231)" fill="#6DED02"/>
<circle r="2.55707" transform="matrix(1 0 0 -1 165.501 139.754)" fill="#6DED02"/>
<circle r="2.55707" transform="matrix(1 0 0 -1 165.501 148.278)" fill="#6DED02"/>
<circle r="2.55707" transform="matrix(1 0 0 -1 165.501 156.801)" fill="#6DED02"/>
<circle r="2.55707" transform="matrix(1 0 0 -1 165.501 165.325)" fill="#6DED02"/>
</svg>
