<svg width="92" height="90" viewBox="0 0 92 90" fill="none" xmlns="http://www.w3.org/2000/svg">
<path d="M92 53.625C92 51.3213 91.0838 49.1745 89.5045 47.5913C91.2947 45.6325 92.207 43.0066 91.9578 40.2735C91.5093 35.4013 87.12 31.5833 81.9605 31.5833H58.282C59.455 28.0221 61.3333 21.494 61.3333 16.25C61.3333 7.93552 54.2685 0.916748 49.8333 0.916748C45.8543 0.916748 43.006 3.15925 42.8873 3.25125C42.431 3.61547 42.1665 4.16747 42.1665 4.75002V17.7488L31.1228 41.665L30.6665 41.8988V41.1666C30.6665 40.1086 29.8078 39.2498 28.7498 39.2498H9.58327C4.29723 39.25 0 43.5473 0 48.8333V79.5C0 84.7862 4.29723 89.0833 9.58327 89.0833H21.0833C25.227 89.0833 28.769 86.4383 30.103 82.7468C33.2925 84.3875 37.5858 85.25 40.25 85.25H75.4362C79.6107 85.25 83.264 82.4363 84.1225 78.557C84.5633 76.556 84.3065 74.5435 83.4325 72.7955C86.2615 71.3733 88.1667 68.4485 88.1667 65.125C88.1667 63.768 87.8562 62.4685 87.2697 61.2955C90.0987 59.8695 92 56.9485 92 53.625ZM83.9155 58.3553C83.1757 58.4435 82.5508 58.9456 82.3132 59.6548C82.0795 60.364 82.275 61.1421 82.8192 61.6558C83.793 62.572 84.3335 63.8063 84.3335 65.125C84.3335 67.5438 82.505 69.5755 80.0862 69.8553C79.3464 69.9435 78.7215 70.4456 78.4839 71.1548C78.2501 71.864 78.4456 72.6421 78.9899 73.1558C80.2511 74.3441 80.7571 76.0116 80.3776 77.729C79.9061 79.868 77.8284 81.4167 75.4364 81.4167H40.25C37.1373 81.4167 31.9163 79.9562 30.107 78.143C29.5588 77.5987 28.7308 77.4378 28.0178 77.729C27.301 78.0243 26.8333 78.7257 26.8333 79.5C26.8333 82.6702 24.2535 85.25 21.0833 85.25H9.58327C6.41305 85.25 3.83327 82.6702 3.83327 79.5V48.8333C3.83327 45.6631 6.41305 43.0833 9.58327 43.0833H26.8333V45C26.8333 45.6632 27.1783 46.2803 27.7455 46.633C28.3053 46.9703 29.0105 47.0048 29.6085 46.7135L33.4418 44.7968C33.829 44.6051 34.1395 44.2831 34.3235 43.8883L45.8235 18.9716C45.9385 18.7186 45.9998 18.4426 45.9998 18.1666V5.78879C46.7973 5.34802 48.1812 4.75002 49.8333 4.75002C51.934 4.75002 57.5 9.97102 57.5 16.25C57.5 22.9967 53.8277 32.7218 53.7932 32.8177C53.571 33.4043 53.6475 34.0675 54.004 34.5887C54.3643 35.1062 54.9547 35.4167 55.5833 35.4167H81.9605C85.1575 35.4167 87.8715 37.7052 88.1398 40.6262C88.343 42.8112 87.2925 44.889 85.4105 46.0505C84.824 46.4108 84.4752 47.0625 84.502 47.7562C84.5288 48.45 84.9275 49.071 85.5408 49.3893C87.1623 50.2135 88.1665 51.8387 88.1665 53.625C88.1667 56.0438 86.3382 58.0755 83.9155 58.3553Z" fill="white"/>
</svg>
