<svg width="77" height="73" viewBox="0 0 77 73" fill="none" xmlns="http://www.w3.org/2000/svg">
<path d="M37.9515 35.1644C43.0471 35.1644 47.459 33.4317 51.0648 30.0132C54.6695 26.5952 56.4977 22.4131 56.4977 17.5816C56.4977 12.7518 54.6701 8.56915 51.0643 5.15007C47.4584 1.73265 43.0466 0 37.9515 0C32.8552 0 28.444 1.73265 24.8387 5.15062C21.2335 8.56859 19.4053 12.7512 19.4053 17.5816C19.4053 22.4131 21.2335 26.5958 24.8387 30.0138C28.4452 33.4312 32.857 35.1644 37.9515 35.1644ZM28.0298 8.17539C30.7962 5.55274 34.0413 4.27789 37.9515 4.27789C41.8611 4.27789 45.1068 5.55274 47.8737 8.17539C50.6401 10.7986 51.9854 13.8757 51.9854 17.5816C51.9854 21.2887 50.6401 24.3652 47.8737 26.9884C45.1068 29.6116 41.8611 30.8865 37.9515 30.8865C34.0425 30.8865 30.7974 29.6111 28.0298 26.9884C25.2629 24.3658 23.9176 21.2887 23.9176 17.5816C23.9176 13.8757 25.2629 10.7986 28.0298 8.17539Z" fill="white"/>
<path d="M70.4022 56.1332C70.2982 54.7108 70.0879 53.1591 69.7783 51.5206C69.4658 49.8698 69.0634 48.3093 68.5816 46.8829C68.0835 45.4087 67.4073 43.9528 66.5702 42.5577C65.7025 41.1096 64.6826 39.8487 63.5383 38.8111C62.3416 37.7256 60.8765 36.8529 59.1822 36.2163C57.4939 35.5831 55.6228 35.2623 53.6213 35.2623C52.8353 35.2623 52.0751 35.568 50.607 36.4742C49.7035 37.0328 48.6467 37.6789 47.467 38.3934C46.4584 39.0027 45.0919 39.5736 43.4041 40.0904C41.7575 40.5956 40.0856 40.8518 38.4348 40.8518C36.7852 40.8518 35.1133 40.5956 33.4654 40.0904C31.7794 39.5741 30.4124 39.0033 29.4055 38.394C28.237 37.6861 27.1796 37.04 26.2625 36.4736C24.7957 35.5675 24.0355 35.2617 23.2494 35.2617C21.2474 35.2617 19.3769 35.5831 17.6891 36.2169C15.996 36.8524 14.5303 37.7251 13.3325 38.8117C12.1881 39.8498 11.1683 41.1102 10.3012 42.5577C9.46521 43.9528 8.78845 45.4081 8.29028 46.8835C7.80915 48.3098 7.40674 49.8698 7.09421 51.5206C6.78403 53.1569 6.5743 54.7091 6.47032 56.1349C6.3681 57.5289 6.31641 58.9798 6.31641 60.4457C6.31641 64.2563 7.59414 67.3412 10.1138 69.6163C12.6023 71.8613 15.8944 72.9997 19.8991 72.9997H56.9751C60.9787 72.9997 64.2708 71.8613 66.7599 69.6163C69.2801 67.3429 70.5579 64.2568 70.5579 60.4451C70.5573 58.9742 70.505 57.5234 70.4022 56.1332ZM63.6487 66.5169C62.0044 68.0006 59.8214 68.7218 56.9745 68.7218H19.8991C17.0517 68.7218 14.8687 68.0006 13.225 66.5175C11.6124 65.0622 10.8287 63.0755 10.8287 60.4457C10.8287 59.0778 10.8763 57.7272 10.9715 56.4306C11.0643 55.1586 11.254 53.7612 11.5354 52.2764C11.8133 50.8099 12.167 49.4337 12.5876 48.1879C12.9912 46.9932 13.5416 45.8103 14.2242 44.6707C14.8757 43.5847 15.6253 42.6529 16.4525 41.9022C17.2262 41.1999 18.2014 40.6251 19.3505 40.194C20.4132 39.7952 21.6075 39.5769 22.904 39.5441C23.062 39.6237 23.3434 39.7758 23.7993 40.0576C24.7269 40.6307 25.7961 41.2845 26.9781 42.0002C28.3104 42.8055 30.027 43.5329 32.0778 44.1606C34.1745 44.8033 36.3129 45.1297 38.4354 45.1297C40.5579 45.1297 42.6968 44.8033 44.7923 44.1611C46.8449 43.5323 48.5609 42.8055 49.895 41.9991C51.1046 41.2661 52.1438 40.6312 53.0714 40.0576C53.5273 39.7763 53.8087 39.6237 53.9667 39.5441C55.2639 39.5769 56.4582 39.7952 57.5215 40.194C58.67 40.6251 59.6452 41.2004 60.4188 41.9022C61.246 42.6524 61.9956 43.5841 62.6471 44.6713C63.3303 45.8103 63.8813 46.9938 64.2843 48.1873C64.7056 49.4349 65.0598 50.8105 65.3371 52.2758C65.6179 53.7634 65.8082 55.1614 65.901 56.4312V56.4323C65.9968 57.7239 66.045 59.0739 66.0456 60.4457C66.045 63.0761 65.2613 65.0622 63.6487 66.5169Z" fill="white"/>
</svg>
