<svg width="87" height="87" viewBox="0 0 87 87" fill="none" xmlns="http://www.w3.org/2000/svg">
<path d="M43.5 0C19.5145 0 0 19.5145 0 43.5C0 67.4855 19.5145 87 43.5 87C67.4855 87 87 67.4855 87 43.5C87 19.5145 67.4855 0 43.5 0ZM43.5 81.5625C22.512 81.5625 5.43752 64.488 5.43752 43.5C5.43752 22.512 22.512 5.43752 43.5 5.43752C64.488 5.43752 81.5625 22.512 81.5625 43.5C81.5625 64.488 64.488 81.5625 43.5 81.5625Z" fill="white"/>
<path d="M46.2188 16.3125H40.7812V44.6257L57.8902 61.7347L61.7347 57.8902L46.2188 42.3742V16.3125Z" fill="white"/>
</svg>
