<svg width="94" height="94" viewBox="0 0 94 94" fill="none" xmlns="http://www.w3.org/2000/svg">
<path d="M93.4026 45.1717C92.5628 44.0229 72.5542 17.0439 46.9995 17.0439C21.4449 17.0439 1.43534 44.0229 0.596497 45.1706C-0.198832 46.2604 -0.198832 47.7385 0.596497 48.8283C1.43534 49.9771 21.4449 76.956 46.9995 76.956C72.5542 76.956 92.5628 49.9769 93.4026 48.8292C94.199 47.7396 94.199 46.2604 93.4026 45.1717ZM46.9995 70.7583C28.1758 70.7583 11.8725 52.8518 7.04634 46.9979C11.8662 41.1388 28.1354 23.2417 46.9995 23.2417C65.8223 23.2417 82.1246 41.1451 86.9527 47.0021C82.1328 52.861 65.8636 70.7583 46.9995 70.7583Z" fill="white"/>
<path d="M46.9997 28.4065C36.7475 28.4065 28.4062 36.7477 28.4062 47C28.4062 57.2522 36.7475 65.5935 46.9997 65.5935C57.252 65.5935 65.5932 57.2522 65.5932 47C65.5932 36.7477 57.252 28.4065 46.9997 28.4065ZM46.9997 59.3955C40.1645 59.3955 34.6042 53.835 34.6042 47C34.6042 40.165 40.1647 34.6044 46.9997 34.6044C53.8348 34.6044 59.3953 40.165 59.3953 47C59.3953 53.835 53.8349 59.3955 46.9997 59.3955Z" fill="white"/>
</svg>
