<svg width="80" height="80" viewBox="0 0 80 80" fill="none" xmlns="http://www.w3.org/2000/svg">
<path d="M1.66602 78.3333H78.3327" stroke="white" stroke-width="3" stroke-miterlimit="10" stroke-linecap="round" stroke-linejoin="round"/>
<path d="M15 61.6665H5V78.3332H15V61.6665Z" stroke="white" stroke-width="3" stroke-miterlimit="10" stroke-linecap="round" stroke-linejoin="round"/>
<path d="M35 44.9998H25V78.3331H35V44.9998Z" stroke="white" stroke-width="3" stroke-miterlimit="10" stroke-linecap="round" stroke-linejoin="round"/>
<path d="M55 51.6665H45V78.3332H55V51.6665Z" stroke="white" stroke-width="3" stroke-miterlimit="10" stroke-linecap="round" stroke-linejoin="round"/>
<path d="M75 28.3333H65V78.3333H75V28.3333Z" stroke="white" stroke-width="3" stroke-miterlimit="10" stroke-linecap="round" stroke-linejoin="round"/>
<path d="M9.99935 41.6664C11.8403 41.6664 13.3327 40.174 13.3327 38.3331C13.3327 36.4921 11.8403 34.9998 9.99935 34.9998C8.1584 34.9998 6.66602 36.4921 6.66602 38.3331C6.66602 40.174 8.1584 41.6664 9.99935 41.6664Z" stroke="white" stroke-width="3" stroke-miterlimit="10" stroke-linecap="round" stroke-linejoin="round"/>
<path d="M29.9993 24.9999C31.8403 24.9999 33.3327 23.5075 33.3327 21.6666C33.3327 19.8256 31.8403 18.3333 29.9993 18.3333C28.1584 18.3333 26.666 19.8256 26.666 21.6666C26.666 23.5075 28.1584 24.9999 29.9993 24.9999Z" stroke="white" stroke-width="3" stroke-miterlimit="10" stroke-linecap="round" stroke-linejoin="round"/>
<path d="M49.9994 31.6664C51.8403 31.6664 53.3327 30.174 53.3327 28.3331C53.3327 26.4921 51.8403 24.9998 49.9994 24.9998C48.1584 24.9998 46.666 26.4921 46.666 28.3331C46.666 30.174 48.1584 31.6664 49.9994 31.6664Z" stroke="white" stroke-width="3" stroke-miterlimit="10" stroke-linecap="round" stroke-linejoin="round"/>
<path d="M69.9994 8.33317C71.8403 8.33317 73.3327 6.84079 73.3327 4.99984C73.3327 3.15889 71.8403 1.6665 69.9994 1.6665C68.1584 1.6665 66.666 3.15889 66.666 4.99984C66.666 6.84079 68.1584 8.33317 69.9994 8.33317Z" stroke="white" stroke-width="3" stroke-miterlimit="10" stroke-linecap="round" stroke-linejoin="round"/>
<path d="M12.666 36.3334L27.3327 23.6667" stroke="white" stroke-width="3" stroke-miterlimit="10" stroke-linecap="round" stroke-linejoin="round"/>
<path d="M33 22.6663L47 27.3329" stroke="white" stroke-width="3" stroke-miterlimit="10" stroke-linejoin="round"/>
<path d="M67.6654 7.66626L52.332 25.6663" stroke="white" stroke-width="3" stroke-miterlimit="10" stroke-linecap="round" stroke-linejoin="round"/>
</svg>
