<svg width="24" height="20" viewBox="0 0 24 20" fill="none" xmlns="http://www.w3.org/2000/svg">
<path d="M14.5003 19.5C14.3723 19.5 14.2442 19.451 14.1462 19.354C13.9513 19.159 13.9513 18.842 14.1462 18.647L22.7932 9.99998L14.1473 1.35398C13.9523 1.15898 13.9523 0.841982 14.1473 0.646982C14.3423 0.451982 14.6593 0.451982 14.8543 0.646982L23.8542 9.64698C24.0492 9.84198 24.0492 10.159 23.8542 10.354L14.8543 19.354C14.7563 19.451 14.6283 19.5 14.5003 19.5Z" fill="#2F70FE"/>
<path d="M23.5 10.5H0.5C0.224 10.5 0 10.276 0 10C0 9.724 0.224 9.5 0.5 9.5H23.5C23.776 9.5 24 9.724 24 10C24 10.276 23.776 10.5 23.5 10.5Z" fill="#2F70FE"/>
</svg>
