<svg width="103" height="102" viewBox="0 0 103 102" fill="none" xmlns="http://www.w3.org/2000/svg">
<path d="M102.07 50.7734C102.07 62.4846 98.0096 73.8334 90.5802 82.8862C83.1507 91.939 72.8122 98.1357 61.3261 100.42C49.84 102.705 37.917 100.937 27.5888 95.416C17.2605 89.8954 9.1659 80.9644 4.68425 70.1447C0.202594 59.3251 -0.38884 47.2862 3.01072 36.0793C6.41027 24.8725 13.5905 15.1911 23.3279 8.68476C33.0654 2.17841 44.7575 -0.750333 56.4123 0.397555C68.067 1.54544 78.9632 6.69894 87.2442 14.9799L86.0398 16.1843C78.0375 8.18188 67.5079 3.20178 56.2453 2.09252C44.9827 0.983251 33.684 3.81345 24.2741 10.1009C14.8643 16.3883 7.92572 25.744 4.64054 36.5737C1.35537 47.4035 1.9269 59.0373 6.25776 69.493C10.5886 79.9486 18.4108 88.5791 28.3916 93.9139C38.3724 99.2487 49.8942 100.958 60.9938 98.75C72.0934 96.5421 82.0841 90.5539 89.2636 81.8057C96.4431 73.0575 100.367 62.0905 100.367 50.7734H102.07Z" fill="#6DED02"/>
</svg>
