<svg width="24" height="20" viewBox="0 0 24 20" fill="none" xmlns="http://www.w3.org/2000/svg">
<path d="M21.8906 0.859375H2.10938C0.947719 0.859375 0 1.80606 0 2.96875V17.0312C0 18.19 0.9435 19.1406 2.10938 19.1406H21.8906C23.0494 19.1406 24 18.1971 24 17.0312V2.96875C24 1.81 23.0565 0.859375 21.8906 0.859375ZM21.5993 2.26562L12.0447 11.8203L2.40745 2.26562H21.5993ZM1.40625 16.7401V3.25323L8.1787 9.96761L1.40625 16.7401ZM2.40061 17.7344L9.17733 10.9577L11.5519 13.3118C11.8267 13.5843 12.2703 13.5835 12.5441 13.3097L14.8594 10.9944L21.5994 17.7344H2.40061ZM22.5938 16.74L15.8537 10L22.5938 3.25994V16.74Z" fill="#6DED02"/>
</svg>
