<svg width="40" height="33" viewBox="0 0 40 33" fill="none" xmlns="http://www.w3.org/2000/svg">
<path d="M39.6042 25.8612C39.6042 22.3592 37.2293 19.6653 34.5905 19.6653C33.535 19.6653 32.3476 19.8 31.6879 20.8776C31.0282 19.6653 30.7643 17.6449 31.5559 14.1429C32.7434 9.15918 36.4377 6.33061 40 5.11837L37.0974 0C28.5214 2.55918 22.5841 9.83265 22.5841 19.9347C22.5841 27.8816 26.5423 33 32.0837 33C36.9654 33 39.6042 30.0367 39.6042 25.8612Z" fill="#B6B6B6"/>
<path d="M17.0201 25.8612C17.0201 22.3592 14.6452 19.6653 12.0064 19.6653C10.9509 19.6653 9.76344 19.8 9.10375 20.8776C8.44406 19.6653 8.18018 17.6449 8.97181 14.1429C10.1593 9.15918 13.8535 6.33061 17.4159 5.11837L14.5132 0C5.93723 2.55918 0 9.83265 0 19.9347C0 27.8816 3.95815 33 9.49957 33C14.3813 33 17.0201 30.0367 17.0201 25.8612Z" fill="#B6B6B6"/>
</svg>
