<svg width="107" height="87" viewBox="0 0 107 87" fill="none" xmlns="http://www.w3.org/2000/svg">
<g clip-path="url(#clip0)">
<path d="M0 42.7779L37.2681 21.8704L0.54907 0L0 42.7779ZM6.86338 11.2791L24.2964 21.664L6.58884 31.6364L6.86338 11.2791Z" fill="#6DED02"/>
<path d="M17.5693 77.0275L37.1986 86.9998L35.9632 64.9919L17.5693 77.0275ZM19.1479 76.9587L35.2082 66.4362L36.3063 85.6931L19.1479 76.9587Z" fill="#6DED02"/>
<path d="M97.6661 43.8096L107 32.4617L92.5186 29.9858L97.6661 43.8096ZM97.8034 42.7779L93.3422 30.6736L105.971 32.8056L97.8034 42.7779Z" fill="#6DED02"/>
<path d="M55.8681 40.3708L55.1817 49.7242L54.4268 59.0088L62.8687 54.9511L71.242 50.9622L63.555 45.6665L55.8681 40.3708Z" fill="#6DED02"/>
<path d="M92.4492 78.8843L95.5377 82.323L98.6263 85.7617L100.068 81.4289L101.509 77.0273L96.9791 77.9214L92.4492 78.8843Z" fill="#6DED02"/>
</g>
<defs>
<clipPath id="clip0">
<rect width="107" height="87" fill="white"/>
</clipPath>
</defs>
</svg>
