<svg width="48" height="48" viewBox="0 0 48 48" fill="none" xmlns="http://www.w3.org/2000/svg">
<path d="M19 37C28.9411 37 37 28.9411 37 19C37 9.05887 28.9411 1 19 1C9.05887 1 1 9.05887 1 19C1 28.9411 9.05887 37 19 37Z" stroke="black" stroke-miterlimit="10" stroke-linecap="round" stroke-linejoin="round"/>
<path d="M31.7998 31.7998L46.9998 46.9998" stroke="black" stroke-miterlimit="10" stroke-linecap="round" stroke-linejoin="round"/>
<path d="M16 21.2002V24.6002L8 28.0002" stroke="black" stroke-miterlimit="10" stroke-linecap="round" stroke-linejoin="round"/>
<path d="M22 21.2002V24.6002L30 28.0002" stroke="black" stroke-miterlimit="10" stroke-linecap="round" stroke-linejoin="round"/>
<path d="M25.3996 14.4004C25.3996 18.6004 22.5996 22.0004 18.9996 22.0004C15.3996 22.0004 12.5996 18.6004 12.5996 14.4004C12.5996 10.2004 15.3996 6.80038 18.9996 6.80038C22.5996 6.60038 25.3996 10.0004 25.3996 14.4004Z" stroke="black" stroke-miterlimit="10" stroke-linecap="round" stroke-linejoin="round"/>
<path d="M25.3998 13.4C25.1998 13.4 24.9998 13.4 24.5998 13.4C22.5998 13.8 21.1998 13 19.9998 11C19.3998 12.4 17.1998 13.4 15.3998 13.4C14.5998 13.4 13.3998 13.2 12.7998 12.8" stroke="black" stroke-miterlimit="10" stroke-linecap="round" stroke-linejoin="round"/>
</svg>
