<svg width="108" height="128" viewBox="0 0 108 128" fill="none" xmlns="http://www.w3.org/2000/svg">
<g clip-path="url(#clip0)">
<path d="M49.6323 4.10657L76.6596 43.7435L97.696 0.613539L49.6323 4.10657ZM85.6406 8.752L75.6513 29.2288L62.7666 10.3995L85.6406 8.752Z" fill="#6DED02"/>
<path d="M12.8719 27.0267L3.55567 49.9181L28.1379 46.4249L12.8719 27.0267ZM13.1 28.784L26.4448 45.7199L4.93697 48.7956L13.1 28.784Z" fill="#6DED02"/>
<path d="M57.8091 113.339L71.4374 122.68L72.832 106.26L57.8091 113.339ZM58.9801 113.394L72.1389 107.247L70.953 121.563L58.9801 113.394Z" fill="#6DED02"/>
<path d="M57.6739 66.3029L47.1107 66.4339L36.618 66.4816L41.979 75.5252L47.2562 84.4987L52.4651 75.4008L57.6739 66.3029Z" fill="#6DED02"/>
<path d="M17.9452 110.877L14.381 114.658L10.8167 118.439L15.8174 119.634L20.8952 120.822L19.4588 115.846L17.9452 110.877Z" fill="#6DED02"/>
</g>
<defs>
<clipPath id="clip0">
<rect width="120" height="98" fill="white" transform="translate(97.6436) rotate(85.1112)"/>
</clipPath>
</defs>
</svg>
