<svg width="40" height="40" viewBox="0 0 40 40" fill="none" xmlns="http://www.w3.org/2000/svg">
<path d="M0.833008 39.1667H39.1663" stroke="black" stroke-miterlimit="10" stroke-linecap="round" stroke-linejoin="round"/>
<path d="M7.5 30.8335H2.5V39.1668H7.5V30.8335Z" stroke="black" stroke-miterlimit="10" stroke-linecap="round" stroke-linejoin="round"/>
<path d="M17.5 22.5H12.5V39.1667H17.5V22.5Z" stroke="black" stroke-miterlimit="10" stroke-linecap="round" stroke-linejoin="round"/>
<path d="M27.5 25.8335H22.5V39.1668H27.5V25.8335Z" stroke="black" stroke-miterlimit="10" stroke-linecap="round" stroke-linejoin="round"/>
<path d="M37.5 14.167H32.5V39.167H37.5V14.167Z" stroke="black" stroke-miterlimit="10" stroke-linecap="round" stroke-linejoin="round"/>
<path d="M4.99967 20.8333C5.92015 20.8333 6.66634 20.0871 6.66634 19.1667C6.66634 18.2462 5.92015 17.5 4.99967 17.5C4.0792 17.5 3.33301 18.2462 3.33301 19.1667C3.33301 20.0871 4.0792 20.8333 4.99967 20.8333Z" stroke="black" stroke-miterlimit="10" stroke-linecap="round" stroke-linejoin="round"/>
<path d="M14.9997 12.5003C15.9201 12.5003 16.6663 11.7541 16.6663 10.8337C16.6663 9.91318 15.9201 9.16699 14.9997 9.16699C14.0792 9.16699 13.333 9.91318 13.333 10.8337C13.333 11.7541 14.0792 12.5003 14.9997 12.5003Z" stroke="black" stroke-miterlimit="10" stroke-linecap="round" stroke-linejoin="round"/>
<path d="M24.9997 15.8333C25.9202 15.8333 26.6663 15.0871 26.6663 14.1667C26.6663 13.2462 25.9202 12.5 24.9997 12.5C24.0792 12.5 23.333 13.2462 23.333 14.1667C23.333 15.0871 24.0792 15.8333 24.9997 15.8333Z" stroke="black" stroke-miterlimit="10" stroke-linecap="round" stroke-linejoin="round"/>
<path d="M34.9997 4.16683C35.9202 4.16683 36.6663 3.42064 36.6663 2.50016C36.6663 1.57969 35.9202 0.833496 34.9997 0.833496C34.0792 0.833496 33.333 1.57969 33.333 2.50016C33.333 3.42064 34.0792 4.16683 34.9997 4.16683Z" stroke="black" stroke-miterlimit="10" stroke-linecap="round" stroke-linejoin="round"/>
<path d="M6.33301 18.1668L13.6663 11.8335" stroke="black" stroke-miterlimit="10" stroke-linecap="round" stroke-linejoin="round"/>
<path d="M16.5 11.3335L23.5 13.6668" stroke="black" stroke-miterlimit="10" stroke-linejoin="round"/>
<path d="M33.8327 3.8335L26.166 12.8335" stroke="black" stroke-miterlimit="10" stroke-linecap="round" stroke-linejoin="round"/>
</svg>
