<svg width="44" height="42" viewBox="0 0 44 42" fill="none" xmlns="http://www.w3.org/2000/svg">
<path d="M9.33154 22.4789C6.53602 22.4789 4.27204 21.4535 2.5396 19.4028C0.846532 17.3127 0 14.5915 0 11.2394C0 7.88732 0.846532 5.18592 2.5396 3.13521C4.27204 1.04507 6.53602 0 9.33154 0C12.0877 0 14.332 1.02535 16.0644 3.07606C17.7969 5.12676 18.6631 7.84789 18.6631 11.2394C18.6631 14.631 17.7969 17.3521 16.0644 19.4028C14.332 21.4535 12.0877 22.4789 9.33154 22.4789ZM34.3731 0.295774H37.8577L9.62685 41.7042H6.14228L34.3731 0.295774ZM9.33154 19.8169C11.2608 19.8169 12.7964 19.0676 13.9383 17.569C15.1195 16.031 15.7101 13.9211 15.7101 11.2394C15.7101 8.55775 15.1195 6.46761 13.9383 4.96901C12.7964 3.43099 11.2608 2.66197 9.33154 2.66197C7.36286 2.66197 5.80761 3.43099 4.66577 4.96901C3.52394 6.50704 2.95302 8.59718 2.95302 11.2394C2.95302 13.8817 3.52394 15.9718 4.66577 17.5099C5.80761 19.0479 7.36286 19.8169 9.33154 19.8169ZM34.6685 42C31.9123 42 29.668 40.9746 27.9356 38.9239C26.2031 36.8338 25.3369 34.1127 25.3369 30.7606C25.3369 27.4085 26.2031 24.707 27.9356 22.6563C29.668 20.5662 31.9123 19.5211 34.6685 19.5211C37.464 19.5211 39.7083 20.5662 41.4013 22.6563C43.1338 24.707 44 27.4085 44 30.7606C44 34.1127 43.1338 36.8338 41.4013 38.9239C39.7083 40.9746 37.464 42 34.6685 42ZM34.6685 39.338C36.6371 39.338 38.1924 38.569 39.3342 37.031C40.4761 35.493 41.047 33.4028 41.047 30.7606C41.047 28.1183 40.4761 26.0282 39.3342 24.4901C38.1924 22.9521 36.6371 22.1831 34.6685 22.1831C32.7392 22.1831 31.1839 22.9521 30.0027 24.4901C28.8608 25.9887 28.2899 28.0789 28.2899 30.7606C28.2899 33.4423 28.8608 35.5521 30.0027 37.0901C31.1839 38.5887 32.7392 39.338 34.6685 39.338Z" fill="#323232"/>
</svg>
