<svg width="121" height="133" viewBox="0 0 121 133" fill="none" xmlns="http://www.w3.org/2000/svg">
<g clip-path="url(#clip0)">
<path d="M79.3578 116.571L46.2882 89.5075L39.3318 131.676L79.3578 116.571ZM47.5273 121.68L50.8316 101.659L66.5799 114.504L47.5273 121.68Z" fill="#6DED02"/>
<path d="M104.83 87.7113L106.948 65.7963L86.9102 74.9806L104.83 87.7113ZM104.19 86.2668L88.5304 75.1562L106.057 67.104L104.19 86.2668Z" fill="#6DED02"/>
<path d="M44.6644 25.2687L30.6922 20.7213L33.6738 35.1074L44.6644 25.2687ZM43.6538 25.5175L34.0134 34.0896L31.3882 21.5542L43.6538 25.5175Z" fill="#6DED02"/>
<path d="M56.7219 65.438L65.6803 62.6624L74.5997 59.9759L67.7402 53.5979L60.9699 47.2586L58.8459 56.3483L56.7219 65.438Z" fill="#6DED02"/>
<path d="M79.2229 17.3216L81.2968 13.1909L83.3707 9.06024L78.8108 9.30011L74.1869 9.56511L76.6729 13.4559L79.2229 17.3216Z" fill="#6DED02"/>
</g>
<defs>
<clipPath id="clip0">
<rect width="107" height="87" fill="white" transform="translate(39.5322 132.188) rotate(-111.411)"/>
</clipPath>
</defs>
</svg>
