<svg width="105" height="108" viewBox="0 0 105 108" fill="none" xmlns="http://www.w3.org/2000/svg">
<g clip-path="url(#clip0)">
<path d="M77.74 20.8709L73.2122 53.7808L104.048 41.3995L77.74 20.8709ZM94.0762 39.9804L79.4355 45.8578L81.563 30.2029L94.0762 39.9804Z" fill="#6DED02"/>
<path d="M48.2152 15.5695L32.7988 22.9996L47.0465 32.6225L48.2152 15.5695ZM47.5162 16.578L46.5043 31.4741L34.0295 23.0647L47.5162 16.578Z" fill="#6DED02"/>
<path d="M31.2075 80.7701L33.8686 91.897L42.2109 84.1116L31.2075 80.7701ZM31.7836 81.3418L41.3968 84.2962L34.1388 91.0981L31.7836 81.3418Z" fill="#6DED02"/>
<path d="M52.9839 56.5493L47.4978 51.7106L42.0867 46.8619L40.6399 53.9966L39.1826 61.0563L46.0832 58.8028L52.9839 56.5493Z" fill="#6DED02"/>
<path d="M11.8771 60.9906L8.29035 61.2772L4.70361 61.5639L6.71709 64.4999L8.77329 67.4684L10.3465 64.2457L11.8771 60.9906Z" fill="#6DED02"/>
</g>
<defs>
<clipPath id="clip0">
<rect width="83.0939" height="67.86" fill="white" transform="translate(104.306 41.0601) rotate(127.234)"/>
</clipPath>
</defs>
</svg>
