<svg width="26" height="26" viewBox="0 0 26 26" fill="none" xmlns="http://www.w3.org/2000/svg">
<g clip-path="url(#clip0)">
<path d="M20.5478 16.1061C20.0156 15.5519 19.3735 15.2555 18.6931 15.2555C18.0181 15.2555 17.3706 15.5464 16.8164 16.1006L15.0823 17.8292C14.9396 17.7523 14.797 17.681 14.6598 17.6097C14.4622 17.5109 14.2757 17.4176 14.1165 17.3188C12.4922 16.2872 11.0161 14.9427 9.60032 13.2032C8.91439 12.3362 8.45344 11.6064 8.1187 10.8655C8.56868 10.454 8.98573 10.026 9.3918 9.6144C9.54545 9.46075 9.6991 9.30161 9.85275 9.14796C11.0051 7.99559 11.0051 6.503 9.85275 5.35063L8.35466 3.85255C8.18455 3.68244 8.00895 3.50684 7.84433 3.33124C7.51508 2.99101 7.16937 2.63981 6.81268 2.31057C6.2804 1.78377 5.64385 1.50391 4.97438 1.50391C4.30491 1.50391 3.65738 1.78377 3.10864 2.31057C3.10315 2.31605 3.10315 2.31605 3.09766 2.32154L1.23192 4.20375C0.52952 4.90614 0.128935 5.76219 0.0411349 6.75542C-0.0905646 8.35777 0.381359 9.85036 0.743532 10.8271C1.6325 13.2252 2.96047 15.4476 4.94145 17.8292C7.34497 20.6991 10.2369 22.9654 13.5403 24.5623C14.8025 25.1604 16.4871 25.8683 18.3693 25.989C18.4846 25.9945 18.6053 26 18.715 26C19.9826 26 21.0472 25.5445 21.8813 24.6391C21.8868 24.6281 21.8978 24.6227 21.9032 24.6117C22.1886 24.266 22.5178 23.9532 22.8636 23.6184C23.0995 23.3935 23.341 23.1575 23.5769 22.9106C24.1202 22.3454 24.4055 21.6869 24.4055 21.0119C24.4055 20.3314 24.1147 19.6784 23.5605 19.1297L20.5478 16.1061ZM22.5124 21.8844C22.5069 21.8844 22.5069 21.8899 22.5124 21.8844C22.2983 22.1149 22.0788 22.3234 21.8429 22.5539C21.4862 22.8941 21.124 23.2508 20.7838 23.6514C20.2296 24.244 19.5766 24.5239 18.7205 24.5239C18.6382 24.5239 18.5504 24.5239 18.4681 24.5184C16.8383 24.4141 15.3238 23.7776 14.1879 23.2343C11.0819 21.7308 8.35466 19.5961 6.08834 16.8908C4.21711 14.6354 2.96596 12.5502 2.13735 10.3113C1.62702 8.94493 1.44044 7.88036 1.52275 6.87615C1.57763 6.23411 1.82457 5.70183 2.28003 5.24637L4.15126 3.37514C4.42014 3.12271 4.70549 2.98553 4.98535 2.98553C5.33106 2.98553 5.61093 3.19405 5.78653 3.36965C5.79201 3.37514 5.7975 3.38062 5.80299 3.38611C6.13772 3.6989 6.456 4.02266 6.79073 4.36837C6.96084 4.54397 7.13644 4.71957 7.31204 4.90066L8.81013 6.39874C9.3918 6.98041 9.3918 7.51818 8.81013 8.09986C8.65099 8.25899 8.49734 8.41813 8.3382 8.57178C7.87725 9.0437 7.43826 9.4827 6.96085 9.91072C6.94987 9.9217 6.9389 9.92719 6.93341 9.93816C6.46148 10.4101 6.54928 10.871 6.64806 11.1838C6.65355 11.2003 6.65903 11.2167 6.66452 11.2332C7.05413 12.1771 7.60288 13.066 8.43698 14.1251L8.44246 14.1306C9.95701 15.9963 11.5539 17.4505 13.3153 18.5645C13.5403 18.7072 13.7708 18.8224 13.9903 18.9321C14.1879 19.0309 14.3744 19.1242 14.5336 19.223C14.5555 19.2339 14.5775 19.2504 14.5994 19.2614C14.786 19.3547 14.9616 19.3986 15.1427 19.3986C15.5981 19.3986 15.8835 19.1132 15.9768 19.0199L17.8535 17.1432C18.0401 16.9566 18.3364 16.7317 18.6821 16.7317C19.0223 16.7317 19.3022 16.9457 19.4723 17.1322C19.4778 17.1377 19.4778 17.1377 19.4833 17.1432L22.5069 20.1668C23.0721 20.7265 23.0721 21.3027 22.5124 21.8844Z" fill="#2F70FE"/>
<path d="M14.0512 6.18468C15.4889 6.42612 16.7949 7.10657 17.8375 8.14919C18.8802 9.19181 19.5551 10.4978 19.8021 11.9356C19.8624 12.2977 20.1752 12.5501 20.5319 12.5501C20.5758 12.5501 20.6142 12.5447 20.6581 12.5392C21.0642 12.4733 21.3331 12.0892 21.2672 11.6831C20.9709 9.9436 20.1478 8.35772 18.8911 7.10108C17.6345 5.84445 16.0486 5.02133 14.3091 4.72501C13.903 4.65916 13.5244 4.92804 13.4531 5.32863C13.3817 5.72921 13.6451 6.11883 14.0512 6.18468Z" fill="#2F70FE"/>
<path d="M25.9697 11.4691C25.4813 8.60468 24.1314 5.99813 22.0571 3.92387C19.9829 1.8496 17.3763 0.49968 14.5118 0.011294C14.1113 -0.0600432 13.7326 0.214331 13.6613 0.614917C13.5954 1.02099 13.8643 1.39963 14.2704 1.47096C16.8276 1.90447 19.1597 3.11721 21.0145 4.96649C22.8693 6.82125 24.0765 9.15343 24.51 11.7106C24.5704 12.0728 24.8832 12.3252 25.2399 12.3252C25.2838 12.3252 25.3222 12.3197 25.3661 12.3142C25.7667 12.2539 26.041 11.8697 25.9697 11.4691Z" fill="#2F70FE"/>
</g>
<defs>
<clipPath id="clip0">
<rect width="26" height="26" fill="white"/>
</clipPath>
</defs>
</svg>
