<svg width="20" height="30" viewBox="0 0 20 30" fill="none" xmlns="http://www.w3.org/2000/svg">
<path d="M16.1523 9.72656C16.1523 6.32525 13.3916 3.51562 10 3.51562C6.61275 3.51562 3.84766 6.32133 3.84766 9.72656C3.84766 13.119 6.6076 15.8789 10 15.8789C13.3924 15.8789 16.1523 13.119 16.1523 9.72656ZM5.60547 9.72656C5.60547 7.27107 7.57686 5.27344 10 5.27344C12.4231 5.27344 14.3945 7.27107 14.3945 9.72656C14.3945 12.1497 12.4231 14.1211 10 14.1211C7.57686 14.1211 5.60547 12.1497 5.60547 9.72656Z" fill="#2F70FE"/>
<path d="M19.668 9.72656C19.668 4.39383 15.339 0 10 0C4.96006 0 0.332031 4.02645 0.332031 9.72656C0.332031 13.2805 3.81168 18.651 5.8777 21.6021C3.581 22.0637 0.332031 23.2556 0.332031 25.6055C0.332031 28.9658 6.59107 30 10 30C13.4092 30 19.668 28.9658 19.668 25.6055C19.668 23.2555 16.4187 22.0636 14.1223 21.6021C16.1777 18.6662 19.668 13.2846 19.668 9.72656ZM2.08984 9.72656C2.08984 4.80451 6.1958 1.75781 10 1.75781C14.3617 1.75781 17.9102 5.33256 17.9102 9.72656C17.9102 13.4487 12.7093 20.7857 9.99994 24.2077C7.29039 20.7864 2.08984 13.451 2.08984 9.72656ZM17.9102 25.6055C17.9102 27.0739 13.6058 28.2422 10 28.2422C6.399 28.2422 2.08984 27.0729 2.08984 25.6055C2.08984 24.9059 3.65992 23.6932 7.01641 23.1866C8.29832 24.9261 9.26318 26.0937 9.3233 26.1663C9.49023 26.3678 9.73832 26.4844 10 26.4844C10.2617 26.4844 10.5098 26.3678 10.6767 26.1663C10.7368 26.0937 11.7017 24.9261 12.9836 23.1866C16.3401 23.6932 17.9102 24.9059 17.9102 25.6055Z" fill="#2F70FE"/>
</svg>
