<svg width="40" height="33" viewBox="0 0 40 33" fill="none" xmlns="http://www.w3.org/2000/svg">
<path d="M0.395815 7.13878C0.395815 10.6408 2.77071 13.3347 5.40947 13.3347C6.46498 13.3347 7.65242 13.2 8.31212 12.1224C8.97181 13.3347 9.23568 15.3551 8.44405 18.8571C7.25661 23.8408 3.56234 26.6694 0 27.8816L2.90264 33C11.4786 30.4408 17.4159 23.1673 17.4159 13.0653C17.4159 5.11837 13.4577 0 7.9163 0C3.03458 0 0.395815 2.96326 0.395815 7.13878Z" fill="#6DED02"/>
<path d="M22.9799 7.13878C22.9799 10.6408 25.3548 13.3347 27.9936 13.3347C29.0491 13.3347 30.2366 13.2 30.8963 12.1224C31.5559 13.3347 31.8198 15.3551 31.0282 18.8571C29.8407 23.8408 26.1465 26.6694 22.5841 27.8816L25.4868 33C34.0628 30.4408 40 23.1673 40 13.0653C40 5.11837 36.0418 0 30.5004 0C25.6187 0 22.9799 2.96326 22.9799 7.13878Z" fill="#6DED02"/>
</svg>
