<svg width="64" height="52" viewBox="0 0 64 52" fill="none" xmlns="http://www.w3.org/2000/svg">
<path d="M0.633304 11.249C0.633304 16.7673 4.43313 21.0122 8.65516 21.0122C10.344 21.0122 12.2439 20.8 13.2994 19.102C14.3549 21.0122 14.7771 24.1959 13.5105 29.7143C11.6106 37.5673 5.69974 42.0245 0 43.9347L4.64423 52C18.3658 47.9673 27.8654 36.5061 27.8654 20.5878C27.8654 8.06531 21.5323 0 12.6661 0C4.85533 0 0.633304 4.66939 0.633304 11.249Z" fill="#6DED02"/>
<path d="M36.7679 11.249C36.7679 16.7673 40.5677 21.0122 44.7898 21.0122C46.4786 21.0122 48.3785 20.8 49.434 19.102C50.4895 21.0122 50.9117 24.1959 49.6451 29.7143C47.7452 37.5673 41.8344 42.0245 36.1346 43.9347L40.7788 52C54.5004 47.9673 64 36.5061 64 20.5878C64 8.06531 57.667 0 48.8007 0C40.9899 0 36.7679 4.66939 36.7679 11.249Z" fill="#6DED02"/>
</svg>
