<svg width="28" height="28" viewBox="0 0 28 28" fill="none" xmlns="http://www.w3.org/2000/svg">
<g clip-path="url(#clip0)">
<path d="M23.2342 15.1995C22.7815 14.6278 22.911 14.3735 23.2342 13.8625C23.24 13.8567 26.9768 8.693 27.3618 6.94183L27.3642 6.94066C27.5555 6.3025 27.3642 5.8335 26.439 5.8335H23.3777C22.5983 5.8335 22.239 6.236 22.0465 6.68633C22.0465 6.68633 20.4878 10.4173 18.2828 12.8358C17.5712 13.5347 17.2422 13.7587 16.8537 13.7587C16.6623 13.7587 16.3648 13.5347 16.3648 12.8965V6.94066C16.3648 6.17533 16.1467 5.8335 15.5015 5.8335H10.6878C10.199 5.8335 9.9085 6.1905 9.9085 6.523C9.9085 7.24866 11.011 7.4155 11.1253 9.45716V13.887C11.1253 14.8577 10.9492 15.0362 10.5583 15.0362C9.51767 15.0362 6.99183 11.29 5.495 7.0025C5.19283 6.17066 4.89767 5.83466 4.1125 5.83466H1.05C0.176167 5.83466 0 6.23716 0 6.6875C0 7.48316 1.04067 11.4393 4.83933 16.666C7.371 20.2337 10.9363 22.1668 14.1797 22.1668C16.1292 22.1668 16.3672 21.7375 16.3672 20.999C16.3672 17.59 16.191 17.268 17.1675 17.268C17.6202 17.268 18.3995 17.492 20.2195 19.2128C22.2997 21.2533 22.6415 22.1668 23.8058 22.1668H26.8672C27.7398 22.1668 28.182 21.7375 27.9277 20.8905C27.3455 19.109 23.4115 15.4445 23.2342 15.1995Z" fill="white"/>
</g>
<defs>
<clipPath id="clip0">
<rect width="28" height="28" fill="white"/>
</clipPath>
</defs>
</svg>
