<?xml version="1.0" standalone="no"?>
<!DOCTYPE svg PUBLIC "-//W3C//DTD SVG 1.1//EN" "http://www.w3.org/Graphics/SVG/1.1/DTD/svg11.dtd" >
<svg>
<metadata>
Created by FontForge 20090914 at Sat Mar 30 18:55:44 2019
 By www-data
&#194;&#169; 2014 Apple Inc. All rights reserved.
</metadata>
<defs>
<font id="SFUIDisplay-Bold" horiz-adv-x="0" >
  <font-face 
    font-family="SF UI Display"
    font-weight="700"
    font-stretch="normal"
    units-per-em="2048"
    panose-1="0 0 8 0 0 0 0 0 0 0"
    ascent="1638"
    descent="-410"
    x-height="1101"
    cap-height="1443"
    bbox="-583 -882 2640 2178"
    underline-thickness="50"
    underline-position="-75"
    unicode-range="U+0020-U+FB02"
  />
<missing-glyph horiz-adv-x="1293" 
d="M119 1365h1053v-1365h-1053v1365zM533 236c22.667 -20 51.667 -30 87 -30c36.667 0 66.334 10 89.001 30c22 19.333 33 45 33 77c0 32.667 -11 58.667 -33 78c-22.667 20 -52.334 30 -89.001 30c-36 0 -65 -10 -87 -30s-33 -46 -33 -78c0 -31.333 11 -57 33 -77zM507 888
c0.666992 39.333 11.998 71 33.998 95c22.667 23.333 53 35 91 35c36 0 65 -10 87 -30s33 -46.667 33 -80c0 -25.333 -6.66699 -47.333 -20 -66c-14 -18 -41.667 -42 -83 -72c-85.333 -60 -124.666 -133.667 -117.999 -221l1 -18h166v15c0 32 6.33301 57.333 19 76
s42 44.334 88 77.001c88.667 64 133 136.667 133 218c0 75.333 -27 136 -81 182c-54 45.333 -125.667 68 -215 68c-95.333 0 -170.333 -25.333 -225 -76c-55.333 -50.667 -81.666 -118.334 -78.999 -203.001h169z" />
    <glyph glyph-name=".notdef" horiz-adv-x="1293" 
d="M119 1365h1053v-1365h-1053v1365zM533 236c22.667 -20 51.667 -30 87 -30c36.667 0 66.334 10 89.001 30c22 19.333 33 45 33 77c0 32.667 -11 58.667 -33 78c-22.667 20 -52.334 30 -89.001 30c-36 0 -65 -10 -87 -30s-33 -46 -33 -78c0 -31.333 11 -57 33 -77zM507 888
c0.666992 39.333 11.998 71 33.998 95c22.667 23.333 53 35 91 35c36 0 65 -10 87 -30s33 -46.667 33 -80c0 -25.333 -6.66699 -47.333 -20 -66c-14 -18 -41.667 -42 -83 -72c-85.333 -60 -124.666 -133.667 -117.999 -221l1 -18h166v15c0 32 6.33301 57.333 19 76
s42 44.334 88 77.001c88.667 64 133 136.667 133 218c0 75.333 -27 136 -81 182c-54 45.333 -125.667 68 -215 68c-95.333 0 -170.333 -25.333 -225 -76c-55.333 -50.667 -81.666 -118.334 -78.999 -203.001h169z" />
    <glyph glyph-name="space" unicode=" " horiz-adv-x="440" 
 />
    <glyph glyph-name="exclam" unicode="!" horiz-adv-x="648" 
d="M473 1443l-24 -968h-252l-24 968h300zM207 21c-31.333 30 -47 67 -47 111s15.667 81.333 47 112c32 30 70.667 45 116 45s84 -15 116 -45c31.333 -30.667 47 -68 47 -112s-15.667 -81 -47 -111c-32 -30.667 -70.667 -46 -116 -46s-84 15.333 -116 46z" />
    <glyph glyph-name="quotedbl" unicode="&#x22;" horiz-adv-x="929" 
d="M107 868v575h250v-575h-250zM570 868v575h250v-575h-250z" />
    <glyph glyph-name="numbersign" unicode="#" horiz-adv-x="1271" 
d="M1002 861l-53 -260h210l-40 -216h-212l-77 -385h-222l77 385h-234l-78 -385h-220l76 385h-206l41 216h208l52 260h-199l41 214h201l75 369h220l-73 -369h234l74 369h222l-74 -369h217l-40 -214h-220zM475 582h262l61 297h-263z" />
    <glyph glyph-name="dollar" unicode="$" horiz-adv-x="1326" 
d="M599 -137l-0.000976562 128.001c-157.333 9.33301 -280.666 51 -369.999 125c-90 74.667 -135.333 173.334 -136 296.001h286c3.33301 -52 25 -95.667 65 -131s91.667 -56.333 155 -63v390l-106 25c-246.667 57.333 -370 191.666 -370 402.999
c0 122.667 42 221.334 126 296.001c83.333 75.333 200 119 350 131v137h141v-138c140 -12.667 252 -57 336 -133c83.333 -75.333 126 -170.666 128 -285.999h-278c-1.33301 47.333 -19.333 88.666 -54 123.999s-78.667 56.666 -132 63.999v-373l107 -21
c256 -56 384 -191.333 384 -406c0 -126.667 -42.667 -228.334 -128 -305.001c-84.667 -76 -205.667 -120.667 -363 -134v-129h-141zM739.999 583.001v-365.999c65.333 4 116.333 22 153 54s55 74.667 55 128c0 95.333 -69.333 156.666 -208 183.999zM598.999 887.002
l0.000976562 344.999c-54.667 -3.33301 -99.334 -20.666 -134.001 -51.999c-35.333 -32 -53 -71.667 -53 -119c0 -89.333 62.333 -147.333 187 -174z" />
    <glyph glyph-name="percent" unicode="%" horiz-adv-x="1621" 
d="M1486 81c-59.333 -68 -139.332 -102 -239.999 -102s-180.667 34 -240 102c-59.333 67.333 -89 158.333 -89 273c0 114 29.667 204.333 89 271c58.667 66.667 138.667 100 240 100s181.666 -33.333 240.999 -100c58.667 -66.667 88 -157 88 -271
c0 -114.667 -29.667 -205.667 -89 -273zM1323 208c18.667 35.333 27.999 83.998 27.999 145.998c0 130.667 -35 196 -105 196c-32.667 0 -58.334 -17.333 -77.001 -52c-18.667 -35.333 -28 -83.666 -28 -144.999s9.33301 -109.666 28 -144.999
c18.667 -36 44.334 -54 77.001 -54s58.334 18 77.001 54zM613 838.998c-59.333 -68 -139.332 -102 -239.999 -102s-180.667 34 -240 102c-59.333 67.333 -89 158.333 -89 273c0 114 29.667 204.333 89 271c58.667 66.667 138.667 100 240 100s181.666 -33.333 240.999 -100
c58.667 -66.667 88 -157 88 -271c0 -114.667 -29.667 -205.667 -89 -273zM450.001 965.998c18.667 35.333 27.999 83.998 27.999 145.998c0 130.667 -35 196 -105 196c-32.667 0 -58.334 -17.333 -77.001 -52c-18.667 -35.333 -28 -83.666 -28 -144.999
s9.33301 -109.666 28 -144.999c18.667 -36 44.334 -54 77.001 -54s58.334 18 77.001 54zM146 -0.00390625l1054 1443h256l-1053 -1443h-257z" />
    <glyph glyph-name="ampersand" unicode="&#x26;" horiz-adv-x="1437" 
d="M1017 120c-113.333 -97.333 -262.333 -146 -447 -146c-152.667 0 -274.667 36.667 -366 110s-137 171.333 -137 294c0 158 89 286 267 384l65 35c-119.333 123.333 -179 233.333 -179 330s38.667 176.667 116 240c78 63.333 175.667 95 293 95
c118 0 214.667 -30.667 290 -92c74.667 -62 112 -141.333 112 -238c0 -144 -97.333 -269 -292 -375l274 -296c34.667 61.333 52 152.333 52 273v76h243v-93c0 -178 -40.667 -323.333 -122 -436l269 -281h-327zM340 401c0 -64.667 24 -116.667 72 -156s110.667 -59 188 -59
c114.667 0 202.667 33.333 264 100l-331 358c-8 -3.33301 -21.333 -10.333 -40 -21c-102 -64.667 -153 -138.667 -153 -222zM788 1112c0 46 -14.667 83.666 -44 112.999c-29.333 28.667 -67.333 43 -114 43s-85 -14.667 -115 -44s-45 -66.666 -45 -111.999
c0 -59.333 44.667 -132.333 134 -219c122.667 64 184 137 184 219z" />
    <glyph glyph-name="quotesingle" unicode="'" horiz-adv-x="466" 
d="M107 868v575h250v-575h-250z" />
    <glyph glyph-name="parenleft" unicode="(" horiz-adv-x="710" 
d="M402 -277c-180 226 -270 518.333 -270 877c0 323.333 93.333 604.333 280 843h269c-65.333 -75.333 -121 -183 -167 -323c-54 -164 -81 -336.667 -81 -518c0 -300.667 81.667 -593.667 245 -879h-276z" />
    <glyph glyph-name="parenright" unicode=")" horiz-adv-x="710" 
d="M30 -277c163.333 285.333 245 578.333 245 879c0 181.333 -27 354 -81 518c-46 139.333 -101.333 247 -166 323h268c187.333 -238 281 -519 281 -843c0 -360 -90.667 -652.333 -272 -877h-275z" />
    <glyph glyph-name="asterisk" unicode="*" horiz-adv-x="994" 
d="M557 979l39 -289h-200l39 289l-231 -179l-99 173l271 111l-271 110l99 174l233 -182l-41 293h200l-40 -293l232 182l99 -174l-270 -110l270 -111l-99 -173z" />
    <glyph glyph-name="plus" unicode="+" horiz-adv-x="1326" 
d="M793 14h-262v437h-408v255h408v432h262v-432h408v-255h-408v-437z" />
    <glyph glyph-name="comma" unicode="," horiz-adv-x="578" 
d="M88 -271l83 541h274l-136 -541h-221z" />
    <glyph glyph-name="hyphen" unicode="-" horiz-adv-x="905" 
d="M123 451v255h657v-255h-657z" />
    <glyph glyph-name="period" unicode="." horiz-adv-x="569" 
d="M170 35c-31.333 31.333 -47 69.333 -47 114c0 45.333 15.667 83.333 47 114c31.333 31.333 69.333 47 114 47c45.333 0 83.333 -15.667 114 -47c31.333 -30.667 47 -68.667 47 -114c0 -44.667 -15.667 -82.667 -47 -114s-69.333 -47 -114 -47s-82.667 15.667 -114 47z
" />
    <glyph glyph-name="slash" unicode="/" horiz-adv-x="687" 
d="M0 -293l415 1737h272l-420 -1737h-267z" />
    <glyph glyph-name="zero" unicode="0" horiz-adv-x="1333" 
d="M238 171c-104 134.667 -156 318.998 -156 552.998c0 232.667 52.333 416.334 157 551.001c104 134 246.333 201 427 201s323 -67 427 -201s156 -317.333 156 -550c0 -233.333 -51.667 -417.666 -155 -552.999c-104 -136 -246.667 -204 -428 -204s-324 67.667 -428 203z
M869 343.998c48.667 90 72.998 216.668 72.998 380.001c0 162 -24.667 287.667 -74 377c-48.667 88.667 -116 133 -202 133s-153.333 -44.333 -202 -133c-50 -90 -75 -215.667 -75 -377c0 -162.667 24.667 -289.334 74 -380.001c48.667 -89.333 116.334 -134 203.001 -134
s154.334 44.667 203.001 134z" />
    <glyph glyph-name="one" unicode="1" horiz-adv-x="983" 
d="M462 1166h-6l-368 -254v272l373 259h300v-1443h-299v1166z" />
    <glyph glyph-name="two" unicode="2" horiz-adv-x="1235" 
d="M84 1009c0 136.667 49.334 248.333 148.001 335c99.333 87.333 227.666 131 384.999 131c151.333 0 275 -39.333 371 -118c94.667 -78 142 -177.667 142 -299c0 -82 -26.667 -163.667 -80 -245c-38 -58 -104.333 -134 -199 -228l-352 -339v-6h651v-240h-1049v203l544 524
c73.333 73.333 123.333 132.333 150 177c27.333 44.667 41 92 41 142c0 54.667 -21.333 100.667 -64 138c-44 37.333 -99 56 -165 56c-70 0 -128 -22 -174 -66c-46 -43.333 -69 -98.333 -69 -165v-5h-280v5z" />
    <glyph glyph-name="three" unicode="3" horiz-adv-x="1290" 
d="M452 848l174.996 -0.00195312c68.667 0 124.334 18.667 167.001 56s64 85.666 64 144.999s-20 106.333 -60 141c-41.333 35.333 -99 53 -173 53c-70 0 -126.667 -19 -170 -57s-67 -88.667 -71 -152h-278c5.33301 134 56.333 241 153 321s223 120 379 120
c150.667 0 272.334 -35.333 365.001 -106c93.333 -70.667 140 -163.667 140 -279c0 -87.333 -27.667 -161.666 -83 -222.999c-54 -60 -125.667 -98 -215 -114v-6c108.667 -9.33301 194.667 -44.666 258 -105.999c64 -62 96 -142.667 96 -242c0 -128.667 -53 -233 -159 -313
c-105.333 -78.667 -241.666 -118 -408.999 -118c-162 0 -293 41 -393 123c-99.333 80.667 -152.666 188 -159.999 322h289c4.66699 -61.333 30.667 -110.333 78 -147c48 -36.667 111.333 -55 190 -55c75.333 0 137 19.333 185 58s72 88.334 72 149.001
c0 66 -23.333 118 -70 156c-46.667 37.333 -110.667 56 -192 56h-178v218z" />
    <glyph glyph-name="four" unicode="4" horiz-adv-x="1327" 
d="M789 257h-718v257c117.333 224 310.333 533.667 579 929h426v-944h188v-242h-188v-257h-287v257zM336 490l459 0.000976562v739h-6c-206.667 -302.667 -357.667 -546.334 -453 -731.001v-8z" />
    <glyph glyph-name="five" unicode="5" horiz-adv-x="1280" 
d="M272 93c-100.667 82.667 -153.336 189.334 -158.003 320.001h279c8.66699 -61.333 37.334 -111 86.001 -149c49.333 -38 109 -57 179 -57c78.667 0 143 25 193 75c49.333 49.333 74 113.333 74 192c0 80 -24.667 145.333 -74 196s-113 76 -191 76
c-115.333 0 -199.666 -44.333 -252.999 -133h-270l71 830h918v-240h-681l-33 -395h6c64 105.333 171 158 321 158c138 0 251.667 -45.667 341 -137c88.667 -90.667 133 -206.334 133 -347.001c0 -152.667 -51.333 -276.667 -154 -372
c-103.333 -94.667 -237.666 -142 -402.999 -142c-154.667 0 -282.667 41.667 -384 125z" />
    <glyph glyph-name="six" unicode="6" horiz-adv-x="1317" 
d="M204 233c-80.667 123.333 -120.996 282.334 -120.996 477.001c0 238 54.333 425.333 163 562c107.333 136 254.666 204 441.999 204c137.333 0 255 -37 353 -111s157 -170 177 -288h-297c-14.667 48 -43.334 86.667 -86.001 116s-92.334 44 -149.001 44
c-101.333 0 -180 -45.667 -236 -137c-56.667 -92.667 -83.334 -220 -80.001 -382h6c29.333 71.333 77.666 128 144.999 170c68.667 43.333 148.334 65 239.001 65c137.333 0 251 -45 341 -135c90.667 -90.667 136 -204.334 136 -341.001c0 -148.667 -52 -270.667 -156 -366
c-104 -96 -236.667 -144 -398 -144c-215.333 0 -375 88.667 -479 266zM867.004 284.001c50.667 50 76.001 111.332 76.001 183.999c0 74.667 -24.667 136.334 -74 185.001c-50 48.667 -112.667 73 -188 73s-138 -24.333 -188 -73c-50.667 -48.667 -76 -109.334 -76 -182.001
c0 -73.333 25.333 -135.666 76 -186.999c50.667 -50.667 113 -76 187 -76c73.333 0 135.666 25.333 186.999 76z" />
    <glyph glyph-name="seven" unicode="7" horiz-adv-x="1172" 
d="M797 1197v6h-734v240h1032v-243l-602 -1200h-317z" />
    <glyph glyph-name="eight" unicode="8" horiz-adv-x="1336" 
d="M243 86c-107.333 78 -161.001 179.666 -161.001 304.999c0 94.667 31.333 176 94 244c62.667 67.333 144.334 109.333 245.001 126v6c-84 19.333 -151.667 59 -203 119c-52 59.333 -78 128.666 -78 207.999c0 110.667 49.333 201.667 148 273c98.667 72 225 108 379 108
c154.667 0 281 -36 379 -108c98 -71.333 147 -162.666 147 -273.999c0 -78 -25.667 -147 -77 -207c-51.333 -59.333 -119 -99 -203 -119v-6c101.333 -17.333 183 -59.666 245 -126.999c62.667 -68 94 -149.333 94 -244c0 -125.333 -54 -227 -162 -305
c-108.667 -78 -249.667 -117 -423 -117c-174.667 0 -316 39.333 -424 118zM860.999 251.999c50 42 75 95.667 75 161s-25 119 -75 161c-50 42.667 -114.667 64 -194 64s-144.333 -21.333 -195 -64c-50 -42 -75 -95.667 -75 -161s25 -119 75 -161
c50.667 -42.667 115.667 -64 195 -64s144 21.333 194 64zM830.999 913.999c42.667 38 64 85.667 64 143c0 58 -21.333 106 -64 144c-42.667 37.333 -97.334 56 -164.001 56s-121.334 -19 -164.001 -57c-42.667 -37.333 -64 -85 -64 -143s21.333 -105.667 64 -143
s97.334 -56 164.001 -56s121.334 18.667 164.001 56z" />
    <glyph glyph-name="nine" unicode="9" horiz-adv-x="1321" 
d="M275 80c-98.667 74 -157.999 169.998 -177.999 287.998h298c14.667 -48.667 43.667 -87.667 87 -117c44 -29.333 95 -44 153 -44c100.667 0 178.667 45.333 234 136c56 92 82 220 78 384h-6c-26.667 -72 -73.334 -129 -140.001 -171
c-69.333 -43.333 -150.666 -65 -243.999 -65c-136.667 0 -250.334 45 -341.001 135c-92 90.667 -138 204.334 -138 341.001c0 148 52.333 270 157 366c104.667 95.333 237.667 143 399 143c218 0 378.333 -88 481 -264c80.667 -124 121 -283.333 121 -478
c0 -239.333 -53.333 -426.666 -160 -561.999c-107.333 -136 -256 -204 -446 -204c-138 0 -256.333 37.333 -355 112zM824.001 790.998c50.667 49.333 76 110.333 76 183c0 73.333 -25.333 135.333 -76 186c-50.667 50 -112.667 75 -186 75c-74 0 -136.667 -25 -188 -75
s-77 -111.333 -77 -184c0 -74 25 -135.333 75 -184c50 -49.333 112.667 -74 188 -74s138 24.333 188 73z" />
    <glyph glyph-name="colon" unicode=":" horiz-adv-x="569" 
d="M170 35c-31.333 31.333 -47 69.333 -47 114c0 45.333 15.667 83.333 47 114c31.333 31.333 69.333 47 114 47c45.333 0 83.333 -15.667 114 -47c31.333 -30.667 47 -68.667 47 -114c0 -44.667 -15.667 -82.667 -47 -114s-69.333 -47 -114 -47s-82.667 15.667 -114 47z
M170 750c-31.333 31.333 -47 69.333 -47 114c0 45.333 15.667 83.333 47 114c31.333 31.333 69.333 47 114 47c45.333 0 83.333 -15.667 114 -47c31.333 -30.667 47 -68.667 47 -114c0 -44.667 -15.667 -82.667 -47 -114s-69.333 -47 -114 -47s-82.667 15.667 -114 47z" />
    <glyph glyph-name="semicolon" unicode=";" horiz-adv-x="569" 
d="M170 750c-31.333 31.333 -47 69.333 -47 114c0 45.333 15.667 83.333 47 114c31.333 31.333 69.333 47 114 47c45.333 0 83.333 -15.667 114 -47c31.333 -30.667 47 -68.667 47 -114c0 -44.667 -15.667 -82.667 -47 -114s-69.333 -47 -114 -47s-82.667 15.667 -114 47z
M54 -271l82 541h276l-137 -541h-221z" />
    <glyph glyph-name="less" unicode="&#x3c;" horiz-adv-x="1326" 
d="M482 587v-10l657 -309v-291l-953 489v225l953 506v-291z" />
    <glyph glyph-name="equal" unicode="=" horiz-adv-x="1326" 
d="M138 220v251h1048v-251h-1048zM138 687v251h1048v-251h-1048z" />
    <glyph glyph-name="greater" unicode="&#x3e;" horiz-adv-x="1326" 
d="M186 1197l953 -505v-226l-953 -488v291l656 308v10l-656 320v290z" />
    <glyph glyph-name="question" unicode="?" horiz-adv-x="1093" 
d="M53 1038c2.66699 126 45.9971 226.334 129.997 301.001c86.667 78 205.334 117 356.001 117c142 0 257 -36 345 -108c86.667 -71.333 130 -164.333 130 -279c0 -142 -71.333 -255 -214 -339c-66.667 -38.667 -111.667 -73.334 -135 -104.001s-35 -70.667 -35 -120v-53
h-265l-2 58c-6.66699 77.333 4.33301 141.666 33 192.999c28 48.667 77 93.667 147 135c64.667 38.667 108.667 73.334 132 104.001c24 30.667 36 69.667 36 117c0 48 -17.333 87.333 -52 118c-35.333 30.667 -81.333 46 -138 46c-57.333 0 -103.666 -17 -138.999 -51
c-35.333 -33.333 -54.666 -78.333 -57.999 -135h-271zM385.997 21.001c-32 30 -48 67 -48 111s16 81.333 48 112c31.333 30 69.666 45 114.999 45s84 -15 116 -45c32 -30.667 48 -68 48 -112s-16 -81 -48 -111c-32 -30.667 -70.667 -46 -116 -46s-83.666 15.333 -114.999 46
z" />
    <glyph glyph-name="at" unicode="@" horiz-adv-x="1810" 
d="M768 779c-30 -40.667 -45.001 -97.667 -45.001 -171c0 -72.667 15 -129.667 45 -171c29.333 -41.333 70.333 -62 123 -62c54 0 96.667 21 128 63c31.333 41.333 47 98 47 170s-15.667 129 -47 171c-31.333 41.333 -73.666 62 -126.999 62c-52.667 0 -94 -20.667 -124 -62
zM1506 1244c150.667 -137.333 226 -316.665 226 -537.998c0 -158 -35 -283.667 -105 -377c-70.667 -94 -166.667 -141 -288 -141c-62.667 0 -115.667 14 -159 42c-44 28.667 -71.333 67 -82 115h-14c-42 -102.667 -122.333 -154 -241 -154c-104 0 -187.667 38.667 -251 116
c-64 78 -96 180.333 -96 307c0 121.333 31.333 220 94 296c62 75.333 143 113 243 113c116 0 195 -47.333 237 -142h14v120h203v-535c0 -75.333 31.667 -113 95 -113c50 0 90 29.667 120 89c30.667 61.333 46 144.333 46 249c0 181.333 -57.667 326.666 -173 435.999
c-114.667 108.667 -267 163 -457 163c-192.667 0 -350 -63 -472 -189c-122 -126.667 -183 -290.334 -183 -491.001c0 -207.333 64 -371 192 -491c124.667 -117.333 291.667 -176 501 -176c118.667 0 209.667 11.667 273 35v-160c-83.333 -24.667 -179.333 -37 -288 -37
c-256.667 0 -463.667 74.333 -621 223c-160.667 152 -241 355.667 -241 611c0 247.333 78.667 448.333 236 603c156.667 154 360 231 610 231c238 0 431.667 -68.333 581 -205z" />
    <glyph glyph-name="A" unicode="A" horiz-adv-x="1413" 
d="M954 350h-507l-110 -350h-310l501 1443h355l502 -1443h-321zM512 576h377l-185 591h-7z" />
    <glyph glyph-name="B" unicode="B" horiz-adv-x="1319" 
d="M119 0v1443h637c135.333 0 242.666 -32.333 321.999 -97s119 -152.334 119 -263.001c0 -78.667 -26 -147.667 -78 -207c-51.333 -59.333 -115.666 -94.666 -192.999 -105.999v-8c98.667 -7.33301 180 -43.333 244 -108c64 -66 96 -146.333 96 -241
c0 -127.333 -44.667 -228 -134 -302s-211 -111 -365 -111h-648zM421 843l226.001 0.000976562c80.667 0 143 17 187 51c44 33.333 66 80.666 66 141.999c0 58 -19.333 103 -58 135c-38.667 31.333 -93.334 47 -164.001 47h-257v-375zM690.001 225.001
c178.667 0 268 70.667 268 212c0 138 -91.667 207 -275 207h-262v-419h269z" />
    <glyph glyph-name="C" unicode="C" horiz-adv-x="1459" 
d="M258 174c-122.667 133.333 -183.999 316.002 -183.999 548.002c0 231.333 61.667 413.666 185 546.999c122 132.667 288 199 498 199c174.667 0 321 -50 439 -150c118.667 -101.333 183.667 -232.333 195 -393h-294c-14 88.667 -52 159.667 -114 213
c-62.667 53.333 -138 80 -226 80c-114 0 -205 -44.333 -273 -133c-68 -90 -102 -210.667 -102 -362c0 -154 33.667 -275.333 101 -364c67.333 -89.333 159 -134 275 -134c89.333 0 164.333 24.667 225 74s99 116.666 115 201.999h294
c-16.667 -160.667 -82.334 -288.667 -197.001 -384c-114.667 -94.667 -260.667 -142 -438 -142c-210.667 0 -377 66.333 -499 199z" />
    <glyph glyph-name="D" unicode="D" horiz-adv-x="1438" 
d="M675 1443c217.333 0 386.001 -62 506.001 -186c121.333 -125.333 182 -302 182 -530c0 -228.667 -60.667 -407 -182 -535c-120.667 -128 -289.334 -192 -506.001 -192h-556v1443h556zM421.001 250h218c135.333 0 238.333 40.333 309 121
c71.333 81.333 107 199.666 107 354.999c0 150.667 -36 266.334 -108 347.001s-174.667 121 -308 121h-218v-944z" />
    <glyph glyph-name="E" unicode="E" horiz-adv-x="1174" 
d="M1075 0h-956v1443h956v-249h-654v-348h617v-232h-617v-364h654v-250z" />
    <glyph glyph-name="F" unicode="F" horiz-adv-x="1123" 
d="M119 0v1443h945v-249h-643v-387h587v-239h-587v-568h-302z" />
    <glyph glyph-name="G" unicode="G" horiz-adv-x="1489" 
d="M1409 606c0 -196.667 -56.3359 -350.999 -169.003 -462.999c-113.333 -112 -270.333 -168 -471 -168c-216 0 -385.667 66.667 -509 200c-124 133.333 -186 317 -186 551c0 230.667 61.667 412 185 544c122.667 132 290.334 198 503.001 198
c168 0 310.333 -45.333 427 -136s185.667 -209 207 -355h-303c-22 75.333 -62 134.333 -120 177c-58.667 42.667 -128.667 64 -210 64c-119.333 0 -212.666 -43 -279.999 -129s-101 -205.667 -101 -359c0 -156 35.333 -279 106 -369c70 -90 165.333 -135 286 -135
c98.667 0 179.334 27.667 242.001 83c62 55.333 94.667 127.666 98 216.999l1 23h-314v220h608v-163z" />
    <glyph glyph-name="H" unicode="H" horiz-adv-x="1494" 
d="M1071 0v608h-650v-608h-302v1443h302v-586h650v586h302v-1443h-302z" />
    <glyph glyph-name="I" unicode="I" horiz-adv-x="542" 
d="M119 0v1443h302v-1443h-302z" />
    <glyph glyph-name="J" unicode="J" horiz-adv-x="1143" 
d="M323 425c1.33301 -58.667 19.332 -105.666 53.999 -140.999c35.333 -35.333 81.333 -53 138 -53c129.333 0 194 74.333 194 223v989h302v-991c0 -152.667 -43.667 -271.334 -131 -356.001c-86 -84 -206.667 -126 -362 -126c-147.333 0 -265.666 41.333 -354.999 124
c-88.667 82.667 -133 193 -133 331h293z" />
    <glyph glyph-name="K" unicode="K" horiz-adv-x="1353" 
d="M119 0v1443h302v-658h9l542 658h336l-534 -640l571 -803h-361l-428 603l-135 -162v-441h-302z" />
    <glyph glyph-name="L" unicode="L" horiz-adv-x="1112" 
d="M1052 0h-933v1443h302v-1193h631v-250z" />
    <glyph glyph-name="M" unicode="M" horiz-adv-x="1768" 
d="M1647 0h-269v974h-8l-392 -960h-190l-392 960h-8v-974h-269v1443h350l410 -1023h8l410 1023h350v-1443z" />
    <glyph glyph-name="N" unicode="N" horiz-adv-x="1463" 
d="M119 0v1443h252l674 -940h8v940h289v-1443h-250l-675 945h-9v-945h-289z" />
    <glyph glyph-name="O" unicode="O" horiz-adv-x="1541" 
d="M1278 1267c125.333 -134 187.999 -316 187.999 -546c0 -229.333 -62.667 -411 -188 -545s-294.666 -201 -507.999 -201c-214 0 -383.333 67 -508 201c-125.333 134 -188 315.667 -188 545c0 230 62.667 412 188 546c124.667 134 294 201 508 201s383.333 -67 508 -201z
M487.999 1082c-70.667 -89.333 -106 -209.666 -106 -360.999c0 -150.667 35 -270.667 105 -360c70 -88.667 164.333 -133 283 -133c118 0 212 44.333 282 133c70 89.333 105 209.333 105 360c0 151.333 -35 271.666 -105 360.999s-164 134 -282 134s-212 -44.667 -282 -134z
" />
    <glyph glyph-name="P" unicode="P" horiz-adv-x="1280" 
d="M721 1443c148.667 0 269 -45.334 361 -136.001c92.667 -90.667 139 -210 139 -358c0 -147.333 -47.667 -266.666 -143 -357.999c-95.333 -90.667 -219.333 -136 -372 -136h-285v-455h-302v1443h602zM421 690.999h219c86.667 0 154 22.333 202 67s72 108 72 190
s-24 145.333 -72 190c-47.333 44 -114.333 66 -201 66h-220v-513z" />
    <glyph glyph-name="Q" unicode="Q" horiz-adv-x="1541" 
d="M1125 -136l-102.999 151.001c-76 -26.667 -160 -40 -252 -40c-214.667 0 -384 66.333 -508 199c-125.333 134 -188 316.333 -188 547c0 229.333 62.667 411.333 188 546c124.667 134 294 201 508 201c213.333 0 382.666 -67 507.999 -201
c124.667 -134.667 187 -316.667 187 -546c0 -260.667 -76.667 -454.334 -230 -581.001l183 -276h-293zM873.001 239.001l-157.999 235.999h273l63 -86c70.667 81.333 106 192 106 332c0 151.333 -35 272.333 -105 363c-70 90 -164 135 -282 135
c-118.667 0 -213 -45 -283 -135c-70 -90.667 -105 -211.667 -105 -363s35 -271.666 105 -360.999c70 -90 164.333 -135 283 -135c35.333 0 69.666 4.66699 102.999 14z" />
    <glyph glyph-name="R" unicode="R" horiz-adv-x="1316" 
d="M421 747h265c76 0 135.333 20.333 178 61c42 40.667 63 97 63 169c0 70 -22 126 -66 168c-44 41.333 -103.333 62 -178 62h-262v-460zM421 0l-302.001 -0.000976562v1443h596c164.667 0 293.334 -41 386.001 -123c90.667 -81.333 136 -193.666 136 -336.999
c0 -94 -23 -177.333 -69 -250c-46.667 -74.667 -111 -128 -193 -160l304 -573h-342l-269 528h-247v-528z" />
    <glyph glyph-name="S" unicode="S" horiz-adv-x="1293" 
d="M356 411c6.66699 -58.667 37.9971 -106.334 93.9971 -143.001c55.333 -36 123.333 -54 204 -54c80 0 145.333 17.333 196 52c50 34 75 77.667 75 131c0 46.667 -18.667 84.334 -56 113.001s-99.666 52.667 -186.999 72l-188 41c-264.667 56.667 -397 191 -397 403
c0 132 51.667 239 155 321c102.667 80.667 235 121 397 121c166.667 0 300 -39.667 400 -119c98.667 -78.667 149.334 -183.667 152.001 -315h-283c-4.66699 60.667 -31.667 108.667 -81 144c-48.667 34.667 -111 52 -187 52c-74.667 0 -134.667 -16.333 -180 -49
c-46 -32.667 -69 -75.667 -69 -129c0 -44 18.667 -80 56 -108c36.667 -26.667 96.667 -49.667 180 -69l175 -37c144.667 -30.667 250 -78.667 316 -144c66 -64.667 99 -152 99 -262c0 -140 -52.667 -251 -158 -333c-105.333 -82.667 -247.666 -124 -426.999 -124
c-174 0 -312.333 38.667 -415 116c-103.333 78 -157.333 184.667 -162 320h291z" />
    <glyph glyph-name="T" unicode="T" horiz-adv-x="1242" 
d="M469 0v1194h-422v249h1147v-249h-423v-1194h-302z" />
    <glyph glyph-name="U" unicode="U" horiz-adv-x="1449" 
d="M421 540c0 -94 26.334 -168 79.001 -222c53.333 -56 128 -84 224 -84c95.333 0 169.666 28 222.999 84c52.667 54 79 128 79 222v903h302v-933c0 -160 -54.667 -289 -164 -387c-110 -98.667 -256.667 -148 -440 -148c-184 0 -331 49.333 -441 148
c-109.333 98 -164 227 -164 387v933h302v-903z" />
    <glyph glyph-name="V" unicode="V" horiz-adv-x="1389" 
d="M512 0l-485 1443h338l330 -1132h7l330 1132h329l-485 -1443h-364z" />
    <glyph glyph-name="W" unicode="W" horiz-adv-x="1977" 
d="M709 0h-285l-382 1443h313l227 -1045h8l270 1045h255l270 -1045h8l228 1045h313l-383 -1443h-285l-274 986h-9z" />
    <glyph glyph-name="X" unicode="X" horiz-adv-x="1404" 
d="M500 723v8l-455 712h355l306 -520h8l309 520h337l-472 -718v-7l466 -718h-344l-316 505h-8l-318 -505h-326z" />
    <glyph glyph-name="Y" unicode="Y" horiz-adv-x="1362" 
d="M529 0v539l-502 904h329l323 -616h7l324 616h324l-503 -904v-539h-302z" />
    <glyph glyph-name="Z" unicode="Z" horiz-adv-x="1292" 
d="M88 197l733 989v8h-716v249h1077v-196l-730 -990v-7h750v-250h-1114v197z" />
    <glyph glyph-name="bracketleft" unicode="[" horiz-adv-x="755" 
d="M721 1444v-215h-294v-1255h307v-214h-587v1684h574z" />
    <glyph glyph-name="backslash" unicode="\" horiz-adv-x="687" 
d="M0 1444h272l415 -1738h-266z" />
    <glyph glyph-name="bracketright" unicode="]" horiz-adv-x="755" 
d="M607 -240h-587v214h307v1255h-294v215h574v-1684z" />
    <glyph glyph-name="asciicircum" unicode="^" horiz-adv-x="978" 
d="M290 823h-256l326 611h259l324 -611h-263l-184 377h-17z" />
    <glyph glyph-name="underscore" unicode="_" horiz-adv-x="857" 
d="M-46 -325v218h949v-218h-949z" />
    <glyph glyph-name="grave" unicode="`" horiz-adv-x="1010" 
d="M519 1263l-263 310h273l221 -310h-231z" />
    <glyph glyph-name="a" unicode="a" horiz-adv-x="1147" 
d="M691 257c47.333 38.667 71.001 87.667 71.001 147v81l-231 -16c-124.667 -8 -187 -53.667 -187 -137c0 -40.667 16 -72.667 48 -96c31.333 -24 73.666 -36 126.999 -36c68.667 0 126 19 172 57zM159.001 78c-70.667 62 -105.998 141.668 -105.998 239.001
c0 99.333 37.333 177.333 112 234c73.333 55.333 180.666 87.333 321.999 96l275 17v73c0 52.667 -17 93.334 -51 122.001c-34 28 -81.333 42 -142 42c-52 0 -95.667 -12.667 -131 -38c-34.667 -24.667 -55.667 -57.334 -63 -98.001h-267
c4 105.333 49.333 190.666 136 255.999c87.333 66 199.666 99 336.999 99c141.333 0 254.666 -33.333 339.999 -100s128 -155 128 -265v-755h-282v170h-6c-29.333 -56.667 -75.333 -101.667 -138 -135c-60.667 -32 -127 -48 -199 -48
c-107.333 0 -195.666 30.333 -264.999 91z" />
    <glyph glyph-name="b" unicode="b" horiz-adv-x="1252" 
d="M399 188l-6 0.00195312v-188h-287v1512h292v-599h6c64.667 134 178 201 340 201c139.333 0 249 -50 329 -150c80 -100.667 120 -238.334 120 -413.001s-40 -312.334 -120 -413.001s-189.333 -151 -328 -151c-166 0 -281.333 67 -346 201zM465 788.002
c-45.333 -60 -68.332 -139.332 -68.999 -237.999c0.666992 -98.667 23.667 -177.667 69 -237c46 -60 106.333 -90 181 -90c75.333 0 135.666 29.667 180.999 89c44.667 59.333 67 139 67 239c0 99.333 -22.667 178.666 -68 237.999c-44.667 59.333 -104.667 89 -180 89
c-74.667 0 -135 -30 -181 -90z" />
    <glyph glyph-name="c" unicode="c" horiz-adv-x="1142" 
d="M821 695c-8 58.667 -31.332 105.333 -69.999 140c-40 36.667 -91 55 -153 55c-75.333 0 -135 -30 -179 -90c-44 -60.667 -66 -143.667 -66 -249c0 -106.667 22 -190 66 -250c44 -59.333 104 -89 180 -89c128.667 0 203 62.667 223 188h272
c-8.66699 -128 -57.667 -229.667 -147 -305c-90 -76 -207 -114 -351 -114c-165.333 0 -296.333 50.667 -393 152c-97.333 102.667 -146 242 -146 418c0 174 48.667 312.333 146 415c96.667 102.667 227 154 391 154c145.333 0 263.666 -40.333 354.999 -121
c88.667 -78 136.667 -179.333 144 -304h-272z" />
    <glyph glyph-name="d" unicode="d" horiz-adv-x="1249" 
d="M180 139c-82 102 -123.001 239.667 -123.001 413c0 172 41 308.667 123 410s191.667 152 329 152c78.667 0 148 -18.333 208 -55c58 -35.333 101 -84 129 -146h6v599h292v-1512h-288v188h-5c-27.333 -61.333 -71 -110 -131 -146c-61.333 -36.667 -132 -55 -212 -55
c-137.333 0 -246.666 50.667 -327.999 152zM423.999 790c-45.333 -59.333 -68 -138.999 -68 -238.999c0 -100.667 22.667 -180.667 68 -240c44.667 -58.667 105 -88 181 -88c75.333 0 135.666 29.667 180.999 89s68 138.666 68 237.999s-22.667 179 -68 239
c-45.333 59.333 -105.666 89 -180.999 89c-76 0 -136.333 -29.333 -181 -88z" />
    <glyph glyph-name="e" unicode="e" horiz-adv-x="1164" 
d="M422 836c-44 -44 -68.665 -101.333 -73.998 -172h475c-2.66699 72 -25.334 129.667 -68.001 173s-98 65 -166 65c-66.667 0 -122.334 -22 -167.001 -66zM1096 336c-16 -106.667 -69.667 -192.333 -161 -257c-91.333 -65.333 -204 -98 -338 -98
c-167.333 0 -299.333 50.333 -396 151c-96 100.667 -144 238.667 -144 414s47.667 314.666 143 417.999c96 104 224.667 156 386 156c158.667 0 284.667 -49.333 378 -148c94 -98.667 141 -231.667 141 -399v-90h-760v-18c0 -79.333 23.667 -143.666 71 -192.999
c47.333 -48.667 109.333 -73 186 -73c55.333 0 103 12.333 143 37c40.667 24 68 57.333 82 100h269z" />
    <glyph glyph-name="f" unicode="f" horiz-adv-x="734" 
d="M176 880h-148.998v221h149v98c0 106 27.333 182.333 82 229c55.333 46.667 146.666 70 273.999 70c45.333 0 90.333 -3.33301 135 -10v-203c-24.667 4.66699 -51.334 7 -80.001 7c-44 0 -75.667 -8.66699 -95 -26s-29.333 -45.333 -30 -84v-81h206v-221h-200v-880h-292
v880z" />
    <glyph glyph-name="g" unicode="g" horiz-adv-x="1244" 
d="M785 319c45.333 57.333 68 134.999 68 232.999c0 99.333 -22.667 178.333 -68 237c-45.333 59.333 -106 89 -182 89c-75.333 0 -135.333 -29.333 -180 -88s-67 -137.667 -67 -237s22.333 -177.666 67 -234.999c44 -56.667 104 -85 180 -85s136.667 28.667 182 86z
M244 -315.001c-93.333 59.333 -143.664 138.333 -150.997 237h288c9.33301 -36 35 -65 77 -87c41.333 -21.333 91 -32 149 -32c74.667 0 134 18 178 54c44.667 36 67 84.667 67 146v197h-6c-26.667 -59.333 -70.334 -106.333 -131.001 -141s-130.667 -52 -210 -52
c-135.333 0 -243.333 48.667 -324 146c-82.667 99.333 -124 233 -124 401c0 172.667 40.667 309 122 409c81.333 100.667 191.666 151 330.999 151c78 0 147.333 -18.333 208 -55c59.333 -35.333 103.666 -84 132.999 -146h5v188h288v-1076
c0 -130.667 -49.333 -234.667 -148 -312c-98 -77.333 -230 -116 -396 -116c-145.333 0 -264 29.333 -356 88z" />
    <glyph glyph-name="h" unicode="h" horiz-adv-x="1247" 
d="M106 1512h287v-608h6c63.333 142 182 213 356 213c122 0 218.667 -37 290 -111s107 -174.667 107 -302v-704h-292v643c0 72 -19.667 128.667 -59 170c-40 40.667 -94.667 61 -164 61c-71.333 0 -129 -23 -173 -69s-66 -106 -66 -180v-625h-292v1512z" />
    <glyph glyph-name="i" unicode="i" horiz-adv-x="500" 
d="M103 1101h292v-1101h-292v1101zM138 1265c-30.667 29.333 -46 65.666 -46 108.999s15.333 79.666 46 108.999c30.667 28.667 67.667 43 111 43c44 0 81.333 -14.333 112 -43c30.667 -29.333 46 -65.666 46 -108.999s-15.333 -79.666 -46 -108.999s-68 -44 -112 -44
c-43.333 0 -80.333 14.667 -111 44z" />
    <glyph glyph-name="j" unicode="j" horiz-adv-x="500" 
d="M396 -37c0 -226 -130.333 -339 -391 -339c-40 0 -66 1 -78 3v216c4 -0.666992 16.333 -1 37 -1c50.667 0 86.667 10 108 30c21.333 19.333 32 52 32 98v1131h292v-1138zM139 1265c-30.667 29.333 -46 65.666 -46 108.999s15.333 79.666 46 108.999
c30.667 28.667 67.667 43 111 43c44 0 81.333 -14.333 112 -43c30.667 -29.333 46 -65.666 46 -108.999s-15.333 -79.666 -46 -108.999s-68 -44 -112 -44c-43.333 0 -80.333 14.667 -111 44z" />
    <glyph glyph-name="k" unicode="k" horiz-adv-x="1126" 
d="M783 1101h332l-424 -473l444 -628h-336l-322 452l-79 -85v-367h-292v1512h292v-856h4z" />
    <glyph glyph-name="l" unicode="l" horiz-adv-x="505" 
d="M106 1512h292v-1512h-292v1512z" />
    <glyph glyph-name="m" unicode="m" horiz-adv-x="1811" 
d="M98 1101l282.001 -0.000976562v-200h6c23.333 66.667 63.333 119.334 120 158.001c56 38.667 120.667 58 194 58c79.333 0 145.666 -19.333 198.999 -58c53.333 -39.333 89.333 -95 108 -167h6c25.333 69.333 68.666 124 129.999 164c61.333 40.667 132 61 212 61
c108 0 195.333 -33.667 262 -101c66 -68 99 -157.333 99 -268v-748h-292v675c0 133.333 -61.333 200 -184 200c-57.333 0 -103.666 -19.333 -138.999 -58c-35.333 -38 -53 -88.333 -53 -151v-666h-282v686c0 58.667 -16 105 -48 139c-32 33.333 -76.333 50 -133 50
c-57.333 0 -104.333 -20 -141 -60c-36 -39.333 -54 -90.333 -54 -153v-662h-292v1101z" />
    <glyph glyph-name="n" unicode="n" horiz-adv-x="1227" 
d="M98 1101l282 0.000976562v-197h6c64.667 142 182.667 213 354 213c122 0 218 -36.333 288 -109c69.333 -72.667 104 -173.334 104 -302.001v-706h-292v645c0 73.333 -18.667 129.666 -56 168.999c-38 40 -91.333 60 -160 60c-70 0 -126.333 -22.667 -169 -68
c-43.333 -45.333 -65 -104.666 -65 -177.999v-628h-292v1101z" />
    <glyph glyph-name="o" unicode="o" horiz-adv-x="1201" 
d="M203 133c-97.333 101.333 -146.001 240.667 -146.001 418c0 175.333 49 314.333 147 417c98 101.333 230 152 396 152c166.667 0 298.667 -50.667 396 -152c98 -102 147 -241 147 -417c0 -178 -48.667 -317.667 -146 -419c-96.667 -100.667 -229 -151 -397 -151
c-167.333 0 -299.666 50.667 -396.999 152zM780.999 296.001c43.333 60.667 65.001 145.667 65.001 255c0 108 -22 192.667 -66 254c-43.333 60.667 -103.333 91 -180 91c-77.333 0 -137.666 -30.333 -180.999 -91c-44 -61.333 -66 -146 -66 -254
c0 -109.333 22 -194.333 66 -255c43.333 -60 103.666 -90 180.999 -90s137.666 30 180.999 90z" />
    <glyph glyph-name="p" unicode="p" horiz-adv-x="1244" 
d="M1065 964c80.667 -100.667 121 -238.332 121 -412.999s-40 -312.334 -120 -413.001c-80.667 -100.667 -190 -151 -328 -151c-164.667 0 -278.667 66 -342 198h-6v-531h-292v1447h288v-188h6c29.333 62 74.333 111 135 147s129.667 54 207 54c140 0 250.333 -50 331 -150z
M819 312.002c45.333 59.333 68 139 68 239c0 98.667 -22.667 178 -68 238c-46 59.333 -106.667 89 -182 89c-74.667 0 -134.667 -30 -180 -90s-68 -139.333 -68 -238s22.667 -178 68 -238c45.333 -59.333 105.333 -89 180 -89c76 0 136.667 29.667 182 89z" />
    <glyph glyph-name="q" unicode="q" horiz-adv-x="1244" 
d="M719 1059c59.333 -35.333 103.333 -84 132 -146h5v188h288v-1447h-292v531h-6c-26.667 -60 -70 -107.667 -130 -143c-62 -36.667 -132.333 -55 -211 -55c-137.333 0 -246.333 50.667 -327 152c-80.667 102 -121 239.667 -121 413c0 172.667 40.667 309.667 122 411
c81.333 100.667 191.666 151 330.999 151c78.667 0 148.334 -18.333 209.001 -55zM785 312c45.333 59.333 68 138.668 68 238.001s-22.667 178.666 -68 237.999c-46 60 -106.667 90 -182 90s-135.333 -29.333 -180 -88c-44.667 -59.333 -67 -139 -67 -239
c0 -100.667 22.333 -180.667 67 -240c44 -58.667 104 -88 180 -88s136.667 29.667 182 89z" />
    <glyph glyph-name="r" unicode="r" horiz-adv-x="759" 
d="M98 1101l282 -0.000976562v-197h6c38 140 125.333 210 262 210c32.667 0 60 -3.66699 82 -11v-259c-26 12 -61 18 -105 18c-74 0 -131.667 -21.667 -173 -65s-62 -103.666 -62 -180.999v-616h-292v1101z" />
    <glyph glyph-name="s" unicode="s" horiz-adv-x="1078" 
d="M205 1026c84 62.667 195.667 93.998 335 93.998c136 0 245.667 -32 329 -96c83.333 -63.333 126 -147.666 128 -252.999h-270c-3.33301 43.333 -22 78 -56 104c-34 25.333 -79 38 -135 38c-52.667 0 -95 -10.667 -127 -32c-32 -22 -48 -50.667 -48 -86
c0 -54 49 -92.333 147 -115l207 -45c110.667 -25.333 189.667 -61 237 -107c48 -46 72 -110 72 -192c0 -106.667 -44.667 -192.667 -134 -258c-89.333 -64.667 -206.333 -97 -351 -97c-143.333 0 -259 32.333 -347 97c-86 62.667 -132.667 147.667 -140 255h285
c14.667 -96.667 84.667 -145 210 -145c58 0 103.667 10.667 137 32c33.333 20.667 50 49 50 85c0 28.667 -10.333 51.334 -31 68.001c-21.333 16.667 -57 31 -107 43l-203 46c-209.333 47.333 -314 152.333 -314 315c0 103.333 42 186.333 126 249z" />
    <glyph glyph-name="t" unicode="t" horiz-adv-x="741" 
d="M468 1346v-245h204v-221h-204v-535c0 -84 43.667 -126 131 -126c28.667 0 53 1.66699 73 5v-216c-40 -8 -87 -12 -141 -12c-127.333 0 -218.333 23.333 -273 70s-82 123.667 -82 231v583h-149v221h149v245h292z" />
    <glyph glyph-name="u" unicode="u" horiz-adv-x="1227" 
d="M1127 0h-282.001v199h-6c-58 -143.333 -173.333 -215 -346 -215c-120.667 0 -217 36.667 -289 110c-74 74 -111 174.333 -111 301v706h292v-645c0 -73.333 19.667 -130 59 -170c38 -39.333 91.333 -59 160 -59s124.334 22.667 167.001 68s64 105 64 179v627h292v-1101z
" />
    <glyph glyph-name="v" unicode="v" horiz-adv-x="1106" 
d="M718 0h-328l-382 1101h312l234 -840h6l233 840h305z" />
    <glyph glyph-name="w" unicode="w" horiz-adv-x="1654" 
d="M1340 0h-310l-203 784h-6l-201 -784h-307l-294 1101h294l170 -822h6l199 822h280l200 -822h6l171 822h288z" />
    <glyph glyph-name="x" unicode="x" horiz-adv-x="1104" 
d="M541 385l-211 -385h-308l348 549l-345 552h329l202 -375h6l201 375h317l-346 -545l344 -556h-319l-212 385h-6z" />
    <glyph glyph-name="y" unicode="y" horiz-adv-x="1136" 
d="M128 -398v226c10 -2 32 -3 66 -3c108 0 173 42 195 126l10 42l-386 1108h320l238 -864h6l239 864h308l-381 -1123c-46.667 -140 -108 -238.333 -184 -295c-75.333 -56.667 -182 -85 -320 -85c-59.333 0 -96.333 1.33301 -111 4z" />
    <glyph glyph-name="z" unicode="z" horiz-adv-x="1059" 
d="M77 168l553 704v5h-545v224h883v-186l-521 -685v-6h534v-224h-904v168z" />
    <glyph glyph-name="braceleft" unicode="{" horiz-adv-x="837" 
d="M360 595c138 -12 207 -94.667 207 -248v-266c0 -78.667 15.667 -132.667 47 -162c30.667 -30 86.667 -45 168 -45h44v-212h-104c-152 0 -262 30 -330 90c-68.667 60 -103 157.333 -103 292v225c0 78 -12 132 -36 162c-24.667 30 -68.667 45 -132 45v269
c63.333 0 107 15.333 131 46c24.667 30 37 84.333 37 163v191c0 131.333 34 226.333 102 285s178.333 88 331 88h104v-212h-44c-82 0 -138.333 -15 -169 -45c-30.667 -29.333 -46 -83.333 -46 -162v-242c0 -142 -69 -219.333 -207 -232v-30z" />
    <glyph glyph-name="bar" unicode="|" horiz-adv-x="603" 
d="M164 -293v1736h273v-1736h-273z" />
    <glyph glyph-name="braceright" unicode="}" horiz-adv-x="837" 
d="M478 625c-139.333 12.667 -209 90 -209 232v242c0 78.667 -15.333 132.667 -46 162c-30.667 30 -86.667 45 -168 45h-45v212h105c152.667 0 263 -29 331 -87c67.333 -58.667 101 -154 101 -286v-191c0 -78.667 12.333 -133 37 -163c24.667 -30.667 68.667 -46 132 -46
v-269c-63.333 0 -107.333 -15 -132 -45s-37 -84 -37 -162v-225c0 -134.667 -34 -232 -102 -292s-178 -90 -330 -90h-105v212h45c81.333 0 137.333 15 168 45c30.667 29.333 46 83.333 46 162v266c0 153.333 69.667 236 209 248v30z" />
    <glyph glyph-name="asciitilde" unicode="~" horiz-adv-x="1199" 
d="M421 706c-74 0 -112.667 -59.333 -116 -178h-228c-6 130 20 233.333 78 310c57.333 76 138.333 114 243 114c86.667 0 173.334 -43.333 260.001 -130c52 -54 97.667 -81 137 -81c74 0 112.667 59.333 116 178h228c6 -130 -20 -233 -78 -309
c-57.333 -76.667 -138.333 -115 -243 -115c-85.333 0 -171 43 -257 129c-54.667 54.667 -101.334 82 -140.001 82z" />
    <glyph glyph-name="uni00A0" unicode="&#xa0;" horiz-adv-x="440" 
 />
    <glyph glyph-name="exclamdown" unicode="&#xa1;" horiz-adv-x="648" 
d="M197 645h252l24 -969h-300zM207 878c-31.333 30.667 -47 67.667 -47 111c0 44.667 15.667 82 47 112c32 30 70.667 45 116 45s84 -15 116 -45c31.333 -30 47 -67.333 47 -112c0 -43.333 -15.667 -80.333 -47 -111c-32 -30 -70.667 -45 -116 -45s-84 15 -116 45z" />
    <glyph glyph-name="cent" unicode="&#xa2;" horiz-adv-x="1326" 
d="M1211 542c-9.33301 -108 -51.998 -198.665 -127.998 -271.998c-75.333 -72.667 -171.333 -117.667 -288 -135v-182h-242v187c-134.667 25.333 -241.334 87.666 -320.001 186.999c-79.333 100.667 -119 226 -119 376c0 148 40 272 120 372
c78.667 99.333 185 161.333 319 186v187h242v-183c116 -17.333 212.333 -63.666 289 -138.999c77.333 -76.667 119.666 -168 126.999 -274h-272c-11.333 57.333 -40 103.666 -86 138.999c-45.333 34.667 -100.333 52 -165 52c-82.667 0 -150 -30.667 -202 -92
c-52.667 -62.667 -79 -145.334 -79 -248.001c0 -104 26.333 -188 79 -252c52 -62 119 -93 201 -93c144 0 228 61.333 252 184h272z" />
    <glyph glyph-name="sterling" unicode="&#xa3;" horiz-adv-x="1326" 
d="M1229 248v-247.999h-1124v232c89.333 13.333 162.333 50.333 219 111c56 60.667 84 132.334 84 215.001c0 21.333 -2.33301 46.666 -7 75.999h-292v207h224c-39.333 98.667 -59 180 -59 244c0 124.667 49 221.667 147 291c97.333 69.333 234.333 104 411 104
c138 0 248 -16.667 330 -50v-236c-78 34 -175.333 51 -292 51c-92.667 0 -164.667 -18 -216 -54c-51.333 -35.333 -77 -85.333 -77 -150c0 -50.667 15 -117.334 45 -200.001h414v-207h-349c2.66699 -25.333 4 -44.333 4 -57c0 -68 -17.333 -132 -52 -192
c-32 -54.667 -73.333 -97.667 -124 -129v-8h714z" />
    <glyph glyph-name="currency" unicode="&#xa4;" horiz-adv-x="1351" 
d="M510 484c46 -46.667 101 -70 165 -70s119 23.333 165 70c46 46 69 101 69 165s-23 119.333 -69 166s-101 70 -165 70s-119 -23.333 -165 -70s-69 -102 -69 -166s23 -119 69 -165zM1065 874c40 -69.333 60 -144.333 60 -225s-20 -155.667 -60 -225l149 -149l-166 -166
l-150 150c-68.667 -40 -143 -60 -223 -60s-154.667 20 -224 60l-150 -150l-166 166l150 150c-40 69.333 -60 144 -60 224s20 154.667 60 224l-150 150l166 166l149 -149c70.667 40 145.667 60 225 60c80 0 154.667 -20 224 -60l149 149l166 -166z" />
    <glyph glyph-name="yen" unicode="&#xa5;" horiz-adv-x="1326" 
d="M815 212v-212h-302v212h-271v166h271v136h-271v166h195l-427 763h327l323 -613h9l320 613h327l-425 -763h195v-166h-271v-136h271v-166h-271z" />
    <glyph glyph-name="brokenbar" unicode="&#xa6;" horiz-adv-x="604" 
d="M165 774v669h273v-669h-273zM165 -293v670h273v-670h-273z" />
    <glyph glyph-name="section" unicode="&#xa7;" horiz-adv-x="994" 
d="M553 413c39.333 5.33301 72.333 21.667 99 49s40 58.666 40 93.999c0 68 -47 115 -141 141l-109 37c-38.667 -5.33301 -71.667 -22 -99 -50s-41 -59 -41 -93c0 -67.333 47.333 -114.666 142 -141.999zM187 -191.999c-80.667 61.333 -123.335 141.337 -128.002 240.004
h253c4.66699 -38 24.667 -68.667 60 -92c34.667 -23.333 77 -35 127 -35c52 0 94 12 126 36s48 55.333 48 94c0 54.667 -49.667 97 -149 127l-175 58c-105.333 34 -182 74.667 -230 122c-47.333 47.333 -71 106.666 -71 177.999c0 62.667 19 117.667 57 165
c38.667 47.333 91.334 81.333 158.001 102v18c-136.667 63.333 -205 154.666 -205 273.999c0 100.667 40 181.667 120 243s186 92 318 92c122.667 0 223 -29.667 301 -89c78.667 -59.333 121.667 -138.333 129 -237h-251c-4.66699 36.667 -23.667 66 -57 88
c-33.333 22.667 -74.666 34 -123.999 34c-51.333 0 -92.666 -12 -123.999 -36c-31.333 -23.333 -47 -54.333 -47 -93c0 -53.333 49 -96 147 -128l171 -58c106.667 -35.333 184 -76.333 232 -123s72 -104.334 72 -173.001c0 -65.333 -21 -123.333 -63 -174
c-42.667 -50.667 -98.667 -85.334 -168 -104.001v-18c148.667 -55.333 223 -144 223 -266c0 -100.667 -40.667 -182 -122 -244s-188 -93 -320 -93c-124.667 0 -227.334 30.667 -308.001 92z" />
    <glyph glyph-name="dieresis" unicode="&#xa8;" horiz-adv-x="1010" 
d="M199 1298c-26 25.333 -39 56 -39 92s13 67 39 93c26 25.333 58 38 96 38s70 -12.667 96 -38c26 -26 39 -57 39 -93s-13 -66.667 -39 -92c-26 -26 -58 -39 -96 -39s-70 13 -96 39zM618 1298c-26 25.333 -39 56 -39 92s13 67 39 93c26 25.333 58 38 96 38
s70 -12.667 96 -38c26 -26 39 -57 39 -93s-13 -66.667 -39 -92c-26 -26 -58 -39 -96 -39s-70 13 -96 39z" />
    <glyph glyph-name="copyright" unicode="&#xa9;" horiz-adv-x="1697" 
d="M289 90c-153.333 153.333 -230 340 -230 560c0 220.667 76.667 407.667 230 561c153.333 152 339.666 228 558.999 228c220 0 406.333 -76 559 -228c152.667 -152.667 229 -339.667 229 -561c0 -220 -76.333 -406.667 -229 -560c-152.667 -152.667 -339 -229 -559 -229
c-219.333 0 -405.666 76.333 -558.999 229zM1291 206c120.667 120.667 181.001 268.667 181.001 444c0 176 -60.333 324.333 -181 445s-268.334 181 -443.001 181c-174 0 -321.667 -60.333 -443 -181s-182 -269 -182 -445c0 -175.333 60.667 -323.333 182 -444
s269 -181 443 -181s321.667 60.333 443 181zM1027 760c-8 38.667 -25.6689 69.667 -53.002 93c-29.333 24 -65.666 36 -108.999 36c-56 0 -100.333 -21 -133 -63s-49 -100 -49 -174c0 -75.333 16.333 -134.333 49 -177c32 -42 76.333 -63 133 -63
c91.333 0 145.333 40.667 162 122h188c-9.33301 -86 -45 -154.333 -107 -205c-62.667 -51.333 -144 -77 -244 -77c-118 0 -211.333 35.667 -280 107s-103 169 -103 293c0 122 34.333 218.667 103 290s161.334 107 278.001 107c99.333 0 181.333 -27 246 -81
c61.333 -52.667 97 -122 107 -208h-188z" />
    <glyph glyph-name="ordfeminine" unicode="&#xaa;" horiz-adv-x="964" 
d="M372 758c22.667 -18 53.667 -27 93 -27c46 0 84.333 14 115 42c30 28 45 63.333 45 106v67l-155 -12c-88 -6 -132 -39.667 -132 -101c0 -31.333 11.333 -56.333 34 -75zM161 620c-52 49.333 -78 115.001 -78 197.001c0 163.333 115.667 252.666 347 267.999l193 11v70
c0.666992 31.333 -10.666 56.333 -33.999 75c-24 18 -56.333 27 -97 27c-76.667 0 -120.667 -26 -132 -78h-245c6 85.333 43.333 152.333 112 201s160 73 274 73c117.333 0 209.666 -27 276.999 -81s101 -128 101 -222v-598h-250v107h-15
c-48 -82.667 -130.333 -124 -247 -124c-86 0 -154.667 24.667 -206 74z" />
    <glyph glyph-name="guillemotleft" unicode="&#xab;" horiz-adv-x="1356" 
d="M896 562l346 -411h-275l-344 411v8l348 411h271l-346 -409v-10zM385 562l346 -411h-275l-344 411v8l348 411h271l-346 -409v-10z" />
    <glyph glyph-name="logicalnot" unicode="&#xac;" horiz-adv-x="1326" 
d="M1184 66h-255v394h-789v248h1044v-642z" />
    <glyph glyph-name="registered" unicode="&#xae;" horiz-adv-x="1133" 
d="M222 670c-95.333 94 -142.999 207.667 -142.999 341s47.333 247.333 142 342c95.333 94 210.333 141 345 141s249.334 -47 344.001 -141s142 -208 142 -342c0 -133.333 -47.333 -247 -142 -341s-209.334 -141 -344.001 -141s-249.334 47 -344.001 141zM818.001 760
c68.667 68.667 103 152.334 103 251.001c0 99.333 -34.333 183.333 -103 252c-69.333 69.333 -153.333 104 -252 104s-182.667 -34.667 -252 -104c-69.333 -68.667 -104 -152.667 -104 -252c0 -98.667 34.667 -182.334 104 -251.001c69.333 -69.333 153.333 -104 252 -104
s182.667 34.667 252 104zM371.001 799v443h232c49.333 0 89.333 -13 120 -39c30 -26 45 -60.333 45 -103c0 -72.667 -31 -117 -93 -133l116 -168h-143l-96 151h-62v-151h-119zM490.001 1037h86c44 0 66 18.667 66 56c0 36.667 -21.333 55 -64 55h-88v-111z" />
    <glyph glyph-name="macron" unicode="&#xaf;" horiz-adv-x="1000" 
d="M834 1298h-669v143h669v-143z" />
    <glyph glyph-name="degree" unicode="&#xb0;" horiz-adv-x="719" 
d="M144 902c-58 58 -87 129.668 -87 215.001s29 156.666 87 213.999c58 58 129.333 87 214 87c85.333 0 157 -29 215 -87c58 -57.333 87 -128.666 87 -213.999c0 -84.667 -29 -156.334 -87 -215.001c-58 -58 -129.667 -87 -215 -87c-84.667 0 -156 29 -214 87zM453 1022
c25.333 26.667 38.001 58.335 38.001 95.002c0 37.333 -12.667 69 -38 95c-26 26 -57.333 39 -94 39c-36 0 -67 -13 -93 -39c-26.667 -26.667 -40 -58.334 -40 -95.001s13.333 -68.334 40 -95.001c26 -26.667 57 -40 93 -40c37.333 0 68.666 13.333 93.999 40z" />
    <glyph glyph-name="plusminus" unicode="&#xb1;" horiz-adv-x="1326" 
d="M163 75v218h996v-218h-996zM786 412h-248v239h-375v216h375v240h248v-240h375v-216h-375v-239z" />
    <glyph glyph-name="uni00B2" unicode="&#xb2;" horiz-adv-x="668" 
d="M30 1574c0 74.667 27 133.999 81 177.999c54 44.667 126.333 67 217 67c86 0 155.333 -19.333 208 -58c52 -39.333 78 -90.666 78 -153.999c0 -68.667 -42.667 -139 -128 -211l-146 -125v-4h282v-172h-578v153l290 248c38 35.333 57 66 57 92
c0 18.667 -6.66699 33.667 -20 45c-14 12 -32 18 -54 18s-40.333 -7.33301 -55 -22s-22 -33 -22 -55v-5h-210v5z" />
    <glyph glyph-name="uni00B3" unicode="&#xb3;" horiz-adv-x="696" 
d="M254 1527h86.9961c22.667 0 41.334 6 56.001 18c14 11.333 21 26.333 21 45c0 42 -26.667 63 -80 63c-24.667 0 -44.667 -7 -60 -21c-14.667 -14 -22.667 -32.333 -24 -55h-205c-1.33301 73.333 25 132 79 176c53.333 44 125 66 215 66c86 0 155.333 -18 208 -54
s79 -83.333 79 -142c0 -40.667 -13.333 -75.667 -40 -105c-27.333 -29.333 -63 -47.666 -107 -54.999v-5c52.667 -6 94.334 -23.667 125.001 -53c30 -30 45 -68 45 -114c0 -66.667 -28 -119.334 -84 -158.001c-56.667 -39.333 -132.667 -59 -228 -59
c-88.667 0 -161 22.333 -217 67c-55.333 44.667 -84.666 103.667 -87.999 177h219c2 -44 30.333 -66 85 -66c24.667 0 44.334 6 59.001 18c15.333 11.333 23 26.333 23 45c0 42.667 -28 64 -84 64h-84v148z" />
    <glyph glyph-name="acute" unicode="&#xb4;" horiz-adv-x="1010" 
d="M258 1263l221 310h273l-263 -310h-231z" />
    <glyph glyph-name="paragraph" unicode="&#xb6;" horiz-adv-x="1473" 
d="M633 -255v710h-20c-150 0 -275 47.333 -375 142c-99.333 94 -149 210 -149 348c0 144 49 263 147 357s224 141 378 141h299v-1698h-280zM1082 1443h280v-1698h-280v1698z" />
    <glyph glyph-name="periodcentered" unicode="&#xb7;" horiz-adv-x="632" 
d="M202 515c-31.333 31.333 -47 69.333 -47 114c0 45.333 15.667 83.333 47 114c31.333 31.333 69.333 47 114 47c45.333 0 83.333 -15.667 114 -47c31.333 -30.667 47 -68.667 47 -114c0 -44.667 -15.667 -82.667 -47 -114s-69.333 -47 -114 -47s-82.667 15.667 -114 47z
" />
    <glyph glyph-name="cedilla" unicode="&#xb8;" horiz-adv-x="1010" 
d="M372 -127l63.001 139l145 -12l-49 -116c58.667 0 104 -14 136 -42c32.667 -27.333 49 -66.333 49 -117c0 -57.333 -21.333 -102.666 -64 -135.999c-42.667 -32.667 -101.667 -49.334 -177 -50.001c-58.667 0 -105.334 5.33301 -140.001 16v120
c26.667 -9.33301 63.667 -14 111 -14c71.333 0 107 18.333 107 55c0 20.667 -9.66699 35 -29 43c-18.667 8.66699 -50.667 13 -96 13h-56v101z" />
    <glyph glyph-name="uni00B9" unicode="&#xb9;" horiz-adv-x="551" 
d="M229 1606h-4l-172 -112v190l174 114h230v-703h-228v511z" />
    <glyph glyph-name="ordmasculine" unicode="&#xba;" horiz-adv-x="1039" 
d="M390 808c30 -45.333 72.667 -67.999 128 -67.999s98.333 22.667 129 68c30 45.333 45 109.333 45 192c0 82 -15.333 145.667 -46 191c-30 45.333 -72.667 68 -128 68c-54.667 0 -97 -22.667 -127 -68c-30.667 -46 -46 -110 -46 -192c0 -82.667 15 -146.334 45 -191.001z
M193 659.001c-78 82 -117 195.668 -117 341.001c0 143.333 39.667 256.666 119 339.999c78.667 82.667 186.334 124 323.001 124c137.333 0 245.666 -41.333 324.999 -124c78.667 -82.667 118 -196 118 -340c0 -146 -39 -259.667 -117 -341c-78 -82 -186.667 -123 -326 -123
c-138.667 0 -247 41 -325 123z" />
    <glyph glyph-name="guillemotright" unicode="&#xbb;" horiz-adv-x="1356" 
d="M112 981h271l348 -411v-8l-344 -411h-275l346 411v10zM623 981h271l348 -411v-8l-344 -411h-275l346 411v10z" />
    <glyph glyph-name="onequarter" unicode="&#xbc;" horiz-adv-x="1625" 
d="M1288 96h-344v190c58.667 115.333 140 254.333 244 417h318v-432h80v-175h-80v-96h-218v96zM1132 261h163v294h-4c-68.667 -117.333 -121.667 -214 -159 -290v-4zM239 1254h-4l-172 -112v190l174 114h230v-703h-228v511zM112 0l1054 1443h256l-1053 -1443h-257z" />
    <glyph glyph-name="onehalf" unicode="&#xbd;" horiz-adv-x="1622" 
d="M993 479c0 74.667 27 133.999 81 177.999c54 44.667 126.333 67 217 67c86 0 155.333 -19.333 208 -58c52 -39.333 78 -90.666 78 -153.999c0 -68.667 -42.667 -139 -128 -211l-146 -125v-4h282v-172h-578v153l290 248c38 35.333 57 66 57 92
c0 18.667 -6.66699 33.667 -20 45c-14 12 -32 18 -54 18s-40.333 -7.33301 -55 -22s-22 -33 -22 -55v-5h-210v5zM239 1254h-4l-172 -112v190l174 114h230v-703h-228v511zM112 -0.000976562l1054 1443h256l-1053 -1443h-257z" />
    <glyph glyph-name="threequarters" unicode="&#xbe;" horiz-adv-x="1715" 
d="M254 1175h86.9961c22.667 0 41.334 6 56.001 18c14 11.333 21 26.333 21 45c0 42 -26.667 63 -80 63c-24.667 0 -44.667 -7 -60 -21c-14.667 -14 -22.667 -32.333 -24 -55h-205c-1.33301 73.333 25 132 79 176c53.333 44 125 66 215 66c86 0 155.333 -18 208 -54
s79 -83.333 79 -142c0 -40.667 -13.333 -75.667 -40 -105c-27.333 -29.333 -63 -47.666 -107 -54.999v-5c52.667 -6 94.334 -23.667 125.001 -53c30 -30 45 -68 45 -114c0 -66.667 -28 -119.334 -84 -158.001c-56.667 -39.333 -132.667 -59 -228 -59
c-88.667 0 -161 22.333 -217 67c-55.333 44.667 -84.666 103.667 -87.999 177h219c2 -44 30.333 -66 85 -66c24.667 0 44.334 6 59.001 18c15.333 11.333 23 26.333 23 45c0 42.667 -28 64 -84 64h-84v148zM1378 96h-344v190c58.667 115.333 140 254.333 244 417h318v-432
h80v-175h-80v-96h-218v96zM1222 261h163v294h-4c-68.667 -117.333 -121.667 -214 -159 -290v-4zM216.996 0l1054 1443h256l-1053 -1443h-257z" />
    <glyph glyph-name="questiondown" unicode="&#xbf;" horiz-adv-x="1093" 
d="M1039 80c-2.66699 -126 -46 -226.666 -130 -301.999c-86.667 -77.333 -205 -116 -355 -116c-142.667 0 -258 36 -346 108c-86.667 71.333 -130 164.666 -130 279.999c0 140.667 71.333 253.334 214 338.001c66.667 39.333 111.667 74.333 135 105s35 70.334 35 119.001
v53h264l2 -58c6.66699 -77.333 -4.33301 -141.333 -33 -192c-27.333 -49.333 -76.333 -94.666 -147 -135.999c-64.667 -38.667 -108.667 -73.334 -132 -104.001c-24 -30.667 -36 -69.334 -36 -116.001c0 -48.667 17.667 -88.334 53 -119.001s81.333 -46 138 -46
s103 17 139 51c34.667 33.333 53.667 78.333 57 135h272zM468 878.001c-32 30.667 -48 67.667 -48 111c0 44 16 81.333 48 112c31.333 30 70 45 116 45c45.333 0 83.666 -15 114.999 -45c32 -30.667 48 -68 48 -112c0 -43.333 -16 -80.333 -48 -111
c-31.333 -30 -69.666 -45 -114.999 -45s-84 15 -116 45z" />
    <glyph glyph-name="Agrave" unicode="&#xc0;" horiz-adv-x="1413" 
d="M954 350h-507l-110 -350h-310l501 1443h355l502 -1443h-321zM512 576h377l-185 591h-7zM318 1868h273l232 -310h-227z" />
    <glyph glyph-name="Aacute" unicode="&#xc1;" horiz-adv-x="1413" 
d="M954 350h-507l-110 -350h-310l501 1443h355l502 -1443h-321zM512 576h377l-185 591h-7zM587 1553l232 310h273l-277 -310h-228z" />
    <glyph glyph-name="Acircumflex" unicode="&#xc2;" horiz-adv-x="1413" 
d="M954 350h-507l-110 -350h-310l501 1443h355l502 -1443h-321zM512 576h377l-185 591h-7zM820 1861l274 -318h-222l-163 197h-6l-163 -197h-222l274 318h228z" />
    <glyph glyph-name="Atilde" unicode="&#xc3;" horiz-adv-x="1413" 
d="M954 350h-507l-110 -350h-310l501 1443h355l502 -1443h-321zM512 576h377l-185 591h-7zM693 1609c-50.667 45.333 -85.665 68 -104.998 68c-44.667 0 -67.667 -39.667 -69 -119h-158c0 84 20.333 150.667 61 200c39.333 47.333 90.666 71 153.999 71
c53.333 0 105.666 -22.333 156.999 -67c51.333 -45.333 86 -68 104 -68c42 0 63.667 40.667 65 122h158c0 -83.333 -20.667 -150.333 -62 -201c-39.333 -49.333 -90 -74 -152 -74c-50.667 0 -101.667 22.667 -153 68z" />
    <glyph glyph-name="Adieresis" unicode="&#xc4;" horiz-adv-x="1413" 
d="M954 350h-507l-110 -350h-310l501 1443h355l502 -1443h-321zM512 576h377l-185 591h-7zM401 1600c-26 25.333 -39 56 -39 92s13 67 39 93c26 25.333 58 38 96 38s70 -12.667 96 -38c26 -26 39 -57 39 -93s-13 -66.667 -39 -92c-26 -26 -58 -39 -96 -39s-70 13 -96 39z
M820 1600c-26 25.333 -39 56 -39 92s13 67 39 93c26 25.333 58 38 96 38s70 -12.667 96 -38c26 -26 39 -57 39 -93s-13 -66.667 -39 -92c-26 -26 -58 -39 -96 -39s-70 13 -96 39z" />
    <glyph glyph-name="Aring" unicode="&#xc5;" horiz-adv-x="1413" 
d="M954 350h-507l-110 -350h-310l501 1443h355l502 -1443h-321zM512 576h377l-185 591h-7zM551 1577c-44 42.667 -66 93.667 -66 153s22 110.333 66 153c43.333 42.667 95 64 155 64c60.667 0 112.667 -21.333 156 -64s65 -93.667 65 -153s-21.667 -110.333 -65 -153
s-95.333 -64 -156 -64c-60 0 -111.667 21.333 -155 64zM778 1659c20 20 30 43.667 30 71s-10 51 -30 71s-44 30 -72 30c-27.333 0 -51.333 -10 -72 -30c-20 -20 -30 -43.667 -30 -71s10 -51 30 -71c20.667 -19.333 44.667 -29 72 -29c28 0 52 9.66699 72 29z" />
    <glyph glyph-name="AE" unicode="&#xc6;" horiz-adv-x="2039" 
d="M574 599h391v612h-136zM965 373h-479l-158 -373h-301l613 1443h1270v-249h-669v-353h632v-232h-632v-360h669v-249h-945v373z" />
    <glyph glyph-name="Ccedilla" unicode="&#xc7;" horiz-adv-x="1459" 
d="M1392 501c-16 -149.333 -74.665 -270.997 -175.998 -364.997c-100.667 -92.667 -230.334 -145.334 -389.001 -158.001l-40 -94c58.667 0 104 -14 136 -42c32.667 -27.333 49 -66.333 49 -117c0 -57.333 -21.333 -102.666 -64 -135.999
c-42.667 -32.667 -101.667 -49.334 -177 -50.001c-58.667 0 -105.334 5.33301 -140.001 16v120c26.667 -9.33301 63.667 -14 111 -14c71.333 0 107 18.333 107 55c0 20.667 -9.66699 35 -29 43c-18.667 8.66699 -50.667 13 -96 13h-56v101l48 106
c-187.333 17.333 -334.333 91 -441 221c-107.333 131.333 -161 305.333 -161 522c0 231.333 61.667 413.666 185 546.999c122 132.667 288 199 498 199c174.667 0 321 -50 439 -150c118.667 -101.333 183.667 -232.333 195 -393h-294c-14 88.667 -52 159.667 -114 213
c-62.667 53.333 -138 80 -226 80c-114 0 -205 -44.333 -273 -133c-68 -90 -102 -210.667 -102 -362c0 -154 33.667 -275.333 101 -364c67.333 -89.333 159 -134 275 -134c89.333 0 164.333 24.667 225 74s99 116.666 115 201.999h294z" />
    <glyph glyph-name="Egrave" unicode="&#xc8;" horiz-adv-x="1174" 
d="M209 1868h273l232 -310h-227zM1075 0h-956v1443h956v-249h-654v-348h617v-232h-617v-364h654v-250z" />
    <glyph glyph-name="Eacute" unicode="&#xc9;" horiz-adv-x="1174" 
d="M478 1553l232 310h273l-277 -310h-228zM1075 0h-956v1443h956v-249h-654v-348h617v-232h-617v-364h654v-250z" />
    <glyph glyph-name="Ecircumflex" unicode="&#xca;" horiz-adv-x="1174" 
d="M711 1861l274 -318h-222l-163 197h-6l-163 -197h-222l274 318h228zM1075 0h-956v1443h956v-249h-654v-348h617v-232h-617v-364h654v-250z" />
    <glyph glyph-name="Edieresis" unicode="&#xcb;" horiz-adv-x="1174" 
d="M292 1600c-26 25.333 -39 56 -39 92s13 67 39 93c26 25.333 58 38 96 38s70 -12.667 96 -38c26 -26 39 -57 39 -93s-13 -66.667 -39 -92c-26 -26 -58 -39 -96 -39s-70 13 -96 39zM711 1600c-26 25.333 -39 56 -39 92s13 67 39 93c26 25.333 58 38 96 38
s70 -12.667 96 -38c26 -26 39 -57 39 -93s-13 -66.667 -39 -92c-26 -26 -58 -39 -96 -39s-70 13 -96 39zM1075 0h-956v1443h956v-249h-654v-348h617v-232h-617v-364h654v-250z" />
    <glyph glyph-name="Igrave" unicode="&#xcc;" horiz-adv-x="542" 
d="M120 0v1443h302v-1443h-302zM-117 1868h273l232 -310h-227z" />
    <glyph glyph-name="Iacute" unicode="&#xcd;" horiz-adv-x="542" 
d="M119 0v1443h302v-1443h-302zM151 1553l232 310h273l-277 -310h-228z" />
    <glyph glyph-name="Icircumflex" unicode="&#xce;" horiz-adv-x="542" 
d="M120 0v1443h302v-1443h-302zM385 1861l274 -318h-222l-163 197h-6l-163 -197h-222l274 318h228z" />
    <glyph glyph-name="Idieresis" unicode="&#xcf;" horiz-adv-x="542" 
d="M120 0v1443h302v-1443h-302zM-34 1600c-26 25.333 -39 56 -39 92s13 67 39 93c26 25.333 58 38 96 38s70 -12.667 96 -38c26 -26 39 -57 39 -93s-13 -66.667 -39 -92c-26 -26 -58 -39 -96 -39s-70 13 -96 39zM385 1600c-26 25.333 -39 56 -39 92s13 67 39 93
c26 25.333 58 38 96 38s70 -12.667 96 -38c26 -26 39 -57 39 -93s-13 -66.667 -39 -92c-26 -26 -58 -39 -96 -39s-70 13 -96 39z" />
    <glyph glyph-name="Eth" unicode="&#xd0;" horiz-adv-x="1479" 
d="M639 250c135.333 0 238.333 40.333 309 121c71.333 81.333 107 199.666 107 354.999c0 150.667 -36 266.334 -108 347.001s-174.667 121 -308 121h-218v-351h265v-221h-265v-372h218zM675 1443c217.333 0 386.001 -62 506.001 -186c121.333 -125.333 182 -302 182 -530
c0 -228.667 -60.667 -407 -182 -535c-120.667 -128 -289.334 -192 -506.001 -192h-556v622h-87v221h87v600h556z" />
    <glyph glyph-name="Ntilde" unicode="&#xd1;" horiz-adv-x="1463" 
d="M718 1609c-50.667 45.333 -85.665 68 -104.998 68c-44.667 0 -67.667 -39.667 -69 -119h-158c0 84 20.333 150.667 61 200c39.333 47.333 90.666 71 153.999 71c53.333 0 105.666 -22.333 156.999 -67c51.333 -45.333 86 -68 104 -68c42 0 63.667 40.667 65 122h158
c0 -83.333 -20.667 -150.333 -62 -201c-39.333 -49.333 -90 -74 -152 -74c-50.667 0 -101.667 22.667 -153 68zM119.002 0v1443h252l674 -940h8v940h289v-1443h-250l-675 945h-9v-945h-289z" />
    <glyph glyph-name="Ograve" unicode="&#xd2;" horiz-adv-x="1541" 
d="M382 1868h273l232 -310h-227zM1278 1267c125.333 -134 187.999 -316 187.999 -546c0 -229.333 -62.667 -411 -188 -545s-294.666 -201 -507.999 -201c-214 0 -383.333 67 -508 201c-125.333 134 -188 315.667 -188 545c0 230 62.667 412 188 546
c124.667 134 294 201 508 201s383.333 -67 508 -201zM487.999 1082c-70.667 -89.333 -106 -209.666 -106 -360.999c0 -150.667 35 -270.667 105 -360c70 -88.667 164.333 -133 283 -133c118 0 212 44.333 282 133c70 89.333 105 209.333 105 360
c0 151.333 -35 271.666 -105 360.999s-164 134 -282 134s-212 -44.667 -282 -134z" />
    <glyph glyph-name="Oacute" unicode="&#xd3;" horiz-adv-x="1541" 
d="M651 1553l232 310h273l-277 -310h-228zM1278 1267c125.333 -134 187.999 -316 187.999 -546c0 -229.333 -62.667 -411 -188 -545s-294.666 -201 -507.999 -201c-214 0 -383.333 67 -508 201c-125.333 134 -188 315.667 -188 545c0 230 62.667 412 188 546
c124.667 134 294 201 508 201s383.333 -67 508 -201zM487.999 1082c-70.667 -89.333 -106 -209.666 -106 -360.999c0 -150.667 35 -270.667 105 -360c70 -88.667 164.333 -133 283 -133c118 0 212 44.333 282 133c70 89.333 105 209.333 105 360
c0 151.333 -35 271.666 -105 360.999s-164 134 -282 134s-212 -44.667 -282 -134z" />
    <glyph glyph-name="Ocircumflex" unicode="&#xd4;" horiz-adv-x="1541" 
d="M884 1861l274 -318h-222l-163 197h-6l-163 -197h-222l274 318h228zM1278 1267c125.333 -134 187.999 -316 187.999 -546c0 -229.333 -62.667 -411 -188 -545s-294.666 -201 -507.999 -201c-214 0 -383.333 67 -508 201c-125.333 134 -188 315.667 -188 545
c0 230 62.667 412 188 546c124.667 134 294 201 508 201s383.333 -67 508 -201zM487.999 1082c-70.667 -89.333 -106 -209.666 -106 -360.999c0 -150.667 35 -270.667 105 -360c70 -88.667 164.333 -133 283 -133c118 0 212 44.333 282 133c70 89.333 105 209.333 105 360
c0 151.333 -35 271.666 -105 360.999s-164 134 -282 134s-212 -44.667 -282 -134z" />
    <glyph glyph-name="Otilde" unicode="&#xd5;" horiz-adv-x="1541" 
d="M1278 1267c125.333 -134 187.999 -316 187.999 -546c0 -229.333 -62.667 -411 -188 -545s-294.666 -201 -507.999 -201c-214 0 -383.333 67 -508 201c-125.333 134 -188 315.667 -188 545c0 230 62.667 412 188 546c124.667 134 294 201 508 201s383.333 -67 508 -201z
M487.999 1082c-70.667 -89.333 -106 -209.666 -106 -360.999c0 -150.667 35 -270.667 105 -360c70 -88.667 164.333 -133 283 -133c118 0 212 44.333 282 133c70 89.333 105 209.333 105 360c0 151.333 -35 271.666 -105 360.999s-164 134 -282 134s-212 -44.667 -282 -134z
M756.999 1609c-50.667 45.333 -85.665 68 -104.998 68c-44.667 0 -67.667 -39.667 -69 -119h-158c0 84 20.333 150.667 61 200c39.333 47.333 90.666 71 153.999 71c53.333 0 105.666 -22.333 156.999 -67c51.333 -45.333 86 -68 104 -68c42 0 63.667 40.667 65 122h158
c0 -83.333 -20.667 -150.333 -62 -201c-39.333 -49.333 -90 -74 -152 -74c-50.667 0 -101.667 22.667 -153 68z" />
    <glyph glyph-name="Odieresis" unicode="&#xd6;" horiz-adv-x="1541" 
d="M465 1600c-26 25.333 -39 56 -39 92s13 67 39 93c26 25.333 58 38 96 38s70 -12.667 96 -38c26 -26 39 -57 39 -93s-13 -66.667 -39 -92c-26 -26 -58 -39 -96 -39s-70 13 -96 39zM884 1600c-26 25.333 -39 56 -39 92s13 67 39 93c26 25.333 58 38 96 38
s70 -12.667 96 -38c26 -26 39 -57 39 -93s-13 -66.667 -39 -92c-26 -26 -58 -39 -96 -39s-70 13 -96 39zM1278 1267c125.333 -134 187.999 -316 187.999 -546c0 -229.333 -62.667 -411 -188 -545s-294.666 -201 -507.999 -201c-214 0 -383.333 67 -508 201
c-125.333 134 -188 315.667 -188 545c0 230 62.667 412 188 546c124.667 134 294 201 508 201s383.333 -67 508 -201zM487.999 1082c-70.667 -89.333 -106 -209.666 -106 -360.999c0 -150.667 35 -270.667 105 -360c70 -88.667 164.333 -133 283 -133
c118 0 212 44.333 282 133c70 89.333 105 209.333 105 360c0 151.333 -35 271.666 -105 360.999s-164 134 -282 134s-212 -44.667 -282 -134z" />
    <glyph glyph-name="multiply" unicode="&#xd7;" horiz-adv-x="1327" 
d="M358 105l-175 175l304 304l-304 305l175 175l305 -304l304 304l175 -175l-304 -305l304 -304l-175 -175l-304 304z" />
    <glyph glyph-name="Oslash" unicode="&#xd8;" horiz-adv-x="1541" 
d="M575 282c56.667 -36 121.667 -54 195 -54c118 0 212 44.333 282 133c70 89.333 105 209.333 105 360c0 129.333 -25.667 236 -77 320zM997 1139c-62.667 51.333 -138.333 76.999 -227 76.999c-118 0 -212 -44.667 -282 -134c-70.667 -89.333 -106 -209.666 -106 -360.999
c0 -148.667 33.667 -267 101 -355zM1249 1296c144.667 -135.333 216.999 -327 216.999 -575c0 -229.333 -62.667 -411 -188 -545s-294.666 -201 -507.999 -201c-131.333 0 -247 26 -347 78l-80 -120l-102 68l80 120c-164.667 133.333 -247 333.333 -247 600
c0 230 62.667 412 188 546c124.667 134 294 201 508 201c146.667 0 273.667 -32.667 381 -98l90 136l108 -60z" />
    <glyph glyph-name="Ugrave" unicode="&#xd9;" horiz-adv-x="1449" 
d="M336 1868h273l232 -310h-227zM421 540c0 -94 26.334 -168 79.001 -222c53.333 -56 128 -84 224 -84c95.333 0 169.666 28 222.999 84c52.667 54 79 128 79 222v903h302v-933c0 -160 -54.667 -289 -164 -387c-110 -98.667 -256.667 -148 -440 -148
c-184 0 -331 49.333 -441 148c-109.333 98 -164 227 -164 387v933h302v-903z" />
    <glyph glyph-name="Uacute" unicode="&#xda;" horiz-adv-x="1449" 
d="M605 1553l232 310h273l-277 -310h-228zM421 540c0 -94 26.334 -168 79.001 -222c53.333 -56 128 -84 224 -84c95.333 0 169.666 28 222.999 84c52.667 54 79 128 79 222v903h302v-933c0 -160 -54.667 -289 -164 -387c-110 -98.667 -256.667 -148 -440 -148
c-184 0 -331 49.333 -441 148c-109.333 98 -164 227 -164 387v933h302v-903z" />
    <glyph glyph-name="Ucircumflex" unicode="&#xdb;" horiz-adv-x="1449" 
d="M838 1861l274 -318h-222l-163 197h-6l-163 -197h-222l274 318h228zM421 540c0 -94 26.334 -168 79.001 -222c53.333 -56 128 -84 224 -84c95.333 0 169.666 28 222.999 84c52.667 54 79 128 79 222v903h302v-933c0 -160 -54.667 -289 -164 -387
c-110 -98.667 -256.667 -148 -440 -148c-184 0 -331 49.333 -441 148c-109.333 98 -164 227 -164 387v933h302v-903z" />
    <glyph glyph-name="Udieresis" unicode="&#xdc;" horiz-adv-x="1449" 
d="M419 1600c-26 25.333 -39 56 -39 92s13 67 39 93c26 25.333 58 38 96 38s70 -12.667 96 -38c26 -26 39 -57 39 -93s-13 -66.667 -39 -92c-26 -26 -58 -39 -96 -39s-70 13 -96 39zM838 1600c-26 25.333 -39 56 -39 92s13 67 39 93c26 25.333 58 38 96 38
s70 -12.667 96 -38c26 -26 39 -57 39 -93s-13 -66.667 -39 -92c-26 -26 -58 -39 -96 -39s-70 13 -96 39zM421 540c0 -94 26.334 -168 79.001 -222c53.333 -56 128 -84 224 -84c95.333 0 169.666 28 222.999 84c52.667 54 79 128 79 222v903h302v-933
c0 -160 -54.667 -289 -164 -387c-110 -98.667 -256.667 -148 -440 -148c-184 0 -331 49.333 -441 148c-109.333 98 -164 227 -164 387v933h302v-903z" />
    <glyph glyph-name="Yacute" unicode="&#xdd;" horiz-adv-x="1362" 
d="M529 0v539l-502 904h329l323 -616h7l324 616h324l-503 -904v-539h-302zM561 1553l232 310h273l-277 -310h-228z" />
    <glyph glyph-name="Thorn" unicode="&#xde;" horiz-adv-x="1330" 
d="M454 1443l0.000976562 -235h307c139.333 0 252.666 -40.333 339.999 -121c90 -84 135 -196 135 -336s-46.667 -251.667 -140 -335c-90 -81.333 -206.667 -122 -350 -122h-294v-294h-302v1443h304zM452.001 531l226 0.000976562c78 0 139 18.333 183 55
c45.333 38 68 92.667 68 164s-22.667 125.666 -68 162.999c-43.333 36.667 -104 55 -182 55h-227v-437z" />
    <glyph glyph-name="germandbls" unicode="&#xdf;" horiz-adv-x="1360" 
d="M147 0l0.000976562 1081c0 123.333 45 221 135 293c90 72.667 211.667 109 365 109c146 0 265 -35 357 -105c91.333 -70 137 -160.667 137 -272c0 -81.333 -19.667 -151.666 -59 -210.999s-92.333 -98.666 -159 -117.999v-12c102.667 -9.33301 184 -47 244 -113
c60.667 -66 91 -150.333 91 -253c0 -127.333 -43.667 -228 -131 -302c-86.667 -74.667 -204.334 -112 -353.001 -112c-76.667 0 -137 5.33301 -181 16v233c34 -11.333 76.667 -17 128 -17c75.333 0 134.333 17.667 177 53s64 84 64 146c0 64.667 -24 115 -72 151
c-48.667 36 -116 54 -202 54h-72v238h50c59.333 0 106.333 17.667 141 53c34.667 36 52 84.667 52 146c0 57.333 -19 103 -57 137c-37.333 34.667 -87.333 52 -150 52c-69.333 0 -122.333 -19.333 -159 -58c-36.667 -38 -55 -93.333 -55 -166v-1023h-291z" />
    <glyph glyph-name="agrave" unicode="&#xe0;" horiz-adv-x="1147" 
d="M691 257c47.333 38.667 71.001 87.667 71.001 147v81l-231 -16c-124.667 -8 -187 -53.667 -187 -137c0 -40.667 16 -72.667 48 -96c31.333 -24 73.666 -36 126.999 -36c68.667 0 126 19 172 57zM159.001 78c-70.667 62 -105.998 141.668 -105.998 239.001
c0 99.333 37.333 177.333 112 234c73.333 55.333 180.666 87.333 321.999 96l275 17v73c0 52.667 -17 93.334 -51 122.001c-34 28 -81.333 42 -142 42c-52 0 -95.667 -12.667 -131 -38c-34.667 -24.667 -55.667 -57.334 -63 -98.001h-267
c4 105.333 49.333 190.666 136 255.999c87.333 66 199.666 99 336.999 99c141.333 0 254.666 -33.333 339.999 -100s128 -155 128 -265v-755h-282v170h-6c-29.333 -56.667 -75.333 -101.667 -138 -135c-60.667 -32 -127 -48 -199 -48
c-107.333 0 -195.666 30.333 -264.999 91zM465.003 1263l-263 310h273l221 -310h-231z" />
    <glyph glyph-name="aacute" unicode="&#xe1;" horiz-adv-x="1147" 
d="M691 257c47.333 38.667 71.001 87.667 71.001 147v81l-231 -16c-124.667 -8 -187 -53.667 -187 -137c0 -40.667 16 -72.667 48 -96c31.333 -24 73.666 -36 126.999 -36c68.667 0 126 19 172 57zM159.001 78c-70.667 62 -105.998 141.668 -105.998 239.001
c0 99.333 37.333 177.333 112 234c73.333 55.333 180.666 87.333 321.999 96l275 17v73c0 52.667 -17 93.334 -51 122.001c-34 28 -81.333 42 -142 42c-52 0 -95.667 -12.667 -131 -38c-34.667 -24.667 -55.667 -57.334 -63 -98.001h-267
c4 105.333 49.333 190.666 136 255.999c87.333 66 199.666 99 336.999 99c141.333 0 254.666 -33.333 339.999 -100s128 -155 128 -265v-755h-282v170h-6c-29.333 -56.667 -75.333 -101.667 -138 -135c-60.667 -32 -127 -48 -199 -48
c-107.333 0 -195.666 30.333 -264.999 91zM458.003 1263l221 310h273l-263 -310h-231z" />
    <glyph glyph-name="acircumflex" unicode="&#xe2;" horiz-adv-x="1147" 
d="M691 257c47.333 38.667 71.001 87.667 71.001 147v81l-231 -16c-124.667 -8 -187 -53.667 -187 -137c0 -40.667 16 -72.667 48 -96c31.333 -24 73.666 -36 126.999 -36c68.667 0 126 19 172 57zM159.001 78c-70.667 62 -105.998 141.668 -105.998 239.001
c0 99.333 37.333 177.333 112 234c73.333 55.333 180.666 87.333 321.999 96l275 17v73c0 52.667 -17 93.334 -51 122.001c-34 28 -81.333 42 -142 42c-52 0 -95.667 -12.667 -131 -38c-34.667 -24.667 -55.667 -57.334 -63 -98.001h-267
c4 105.333 49.333 190.666 136 255.999c87.333 66 199.666 99 336.999 99c141.333 0 254.666 -33.333 339.999 -100s128 -155 128 -265v-755h-282v170h-6c-29.333 -56.667 -75.333 -101.667 -138 -135c-60.667 -32 -127 -48 -199 -48
c-107.333 0 -195.666 30.333 -264.999 91zM952.003 1253h-223l-149 189h-7l-148 -189h-224l266 318h219z" />
    <glyph glyph-name="atilde" unicode="&#xe3;" horiz-adv-x="1147" 
d="M691 257c47.333 38.667 71.001 87.667 71.001 147v81l-231 -16c-124.667 -8 -187 -53.667 -187 -137c0 -40.667 16 -72.667 48 -96c31.333 -24 73.666 -36 126.999 -36c68.667 0 126 19 172 57zM159.001 78c-70.667 62 -105.998 141.668 -105.998 239.001
c0 99.333 37.333 177.333 112 234c73.333 55.333 180.666 87.333 321.999 96l275 17v73c0 52.667 -17 93.334 -51 122.001c-34 28 -81.333 42 -142 42c-52 0 -95.667 -12.667 -131 -38c-34.667 -24.667 -55.667 -57.334 -63 -98.001h-267
c4 105.333 49.333 190.666 136 255.999c87.333 66 199.666 99 336.999 99c141.333 0 254.666 -33.333 339.999 -100s128 -155 128 -265v-755h-282v170h-6c-29.333 -56.667 -75.333 -101.667 -138 -135c-60.667 -32 -127 -48 -199 -48
c-107.333 0 -195.666 30.333 -264.999 91zM566.003 1326c-50.667 45.333 -85.665 68 -104.998 68c-44.667 0 -67.667 -39.667 -69 -119h-158c0 84 20.333 150.667 61 200c39.333 47.333 90.666 71 153.999 71c53.333 0 105.666 -22.333 156.999 -67
c51.333 -45.333 86 -68 104 -68c42 0 63.667 40.667 65 122h158c0 -83.333 -20.667 -150.333 -62 -201c-39.333 -49.333 -90 -74 -152 -74c-50.667 0 -101.667 22.667 -153 68z" />
    <glyph glyph-name="adieresis" unicode="&#xe4;" horiz-adv-x="1147" 
d="M691 257c47.333 38.667 71.001 87.667 71.001 147v81l-231 -16c-124.667 -8 -187 -53.667 -187 -137c0 -40.667 16 -72.667 48 -96c31.333 -24 73.666 -36 126.999 -36c68.667 0 126 19 172 57zM159.001 78c-70.667 62 -105.998 141.668 -105.998 239.001
c0 99.333 37.333 177.333 112 234c73.333 55.333 180.666 87.333 321.999 96l275 17v73c0 52.667 -17 93.334 -51 122.001c-34 28 -81.333 42 -142 42c-52 0 -95.667 -12.667 -131 -38c-34.667 -24.667 -55.667 -57.334 -63 -98.001h-267
c4 105.333 49.333 190.666 136 255.999c87.333 66 199.666 99 336.999 99c141.333 0 254.666 -33.333 339.999 -100s128 -155 128 -265v-755h-282v170h-6c-29.333 -56.667 -75.333 -101.667 -138 -135c-60.667 -32 -127 -48 -199 -48
c-107.333 0 -195.666 30.333 -264.999 91zM272.003 1298c-26 25.333 -39 56 -39 92s13 67 39 93c26 25.333 58 38 96 38s70 -12.667 96 -38c26 -26 39 -57 39 -93s-13 -66.667 -39 -92c-26 -26 -58 -39 -96 -39s-70 13 -96 39zM691.003 1298c-26 25.333 -39 56 -39 92
s13 67 39 93c26 25.333 58 38 96 38s70 -12.667 96 -38c26 -26 39 -57 39 -93s-13 -66.667 -39 -92c-26 -26 -58 -39 -96 -39s-70 13 -96 39z" />
    <glyph glyph-name="aring" unicode="&#xe5;" horiz-adv-x="1147" 
d="M691 257c47.333 38.667 71.001 87.667 71.001 147v81l-231 -16c-124.667 -8 -187 -53.667 -187 -137c0 -40.667 16 -72.667 48 -96c31.333 -24 73.666 -36 126.999 -36c68.667 0 126 19 172 57zM159.001 78c-70.667 62 -105.998 141.668 -105.998 239.001
c0 99.333 37.333 177.333 112 234c73.333 55.333 180.666 87.333 321.999 96l275 17v73c0 52.667 -17 93.334 -51 122.001c-34 28 -81.333 42 -142 42c-52 0 -95.667 -12.667 -131 -38c-34.667 -24.667 -55.667 -57.334 -63 -98.001h-267
c4 105.333 49.333 190.666 136 255.999c87.333 66 199.666 99 336.999 99c141.333 0 254.666 -33.333 339.999 -100s128 -155 128 -265v-755h-282v170h-6c-29.333 -56.667 -75.333 -101.667 -138 -135c-60.667 -32 -127 -48 -199 -48
c-107.333 0 -195.666 30.333 -264.999 91zM422.003 1274c-44 42.667 -66 93.667 -66 153s22 110.333 66 153c43.333 42.667 95 64 155 64c60.667 0 112.667 -21.333 156 -64s65 -93.667 65 -153s-21.667 -110.333 -65 -153s-95.333 -64 -156 -64
c-60 0 -111.667 21.333 -155 64zM649.003 1356c20 20 30 43.667 30 71s-10 51 -30 71s-44 30 -72 30c-27.333 0 -51.333 -10 -72 -30c-20 -20 -30 -43.667 -30 -71s10 -51 30 -71c20.667 -19.333 44.667 -29 72 -29c28 0 52 9.66699 72 29z" />
    <glyph glyph-name="ae" unicode="&#xe6;" horiz-adv-x="1844" 
d="M1041 36c-71.333 36.667 -124.667 87.334 -160 152.001h-9c-80.667 -134 -215.667 -201 -405 -201c-124 0 -224 30.333 -300 91c-76 60 -114 139 -114 237c0 99.333 37 177.333 111 234s181.333 89 322 97l276 15v67c0 51.333 -18 93 -54 125s-83.333 48 -142 48
c-55.333 0 -100.666 -12.333 -135.999 -37c-34.667 -24.667 -54.334 -57.667 -59.001 -99h-268c5.33301 106 50 191.667 134 257c83.333 65.333 190.666 98 321.999 98c177.333 0 298 -56 362 -168h9c76.667 112 194 168 352 168c153.333 0 275.333 -49.667 366 -149
c91.333 -98.667 137 -231.334 137 -398.001v-89h-751v-19c0 -80 23.333 -144.333 70 -193s108.334 -73 185.001 -73c115.333 0 188 45.667 218 137h269c-16.667 -107.333 -69.334 -193.333 -158.001 -258c-89.333 -64.667 -200.333 -97 -333 -97
c-91.333 0 -172.666 18.333 -243.999 55zM1110 836c-43.333 -43.333 -67.666 -100.667 -72.999 -172h466c-2.66699 72.667 -24.334 130.667 -65.001 174c-41.333 42.667 -95.333 64 -162 64s-122 -22 -166 -66zM690.999 258.999c47.333 39.333 71 87.666 71 144.999v78
l-233 -14c-123.333 -7.33301 -185 -52.666 -185 -135.999c0 -40.667 15.333 -72.667 46 -96c30.667 -24 72 -36 124 -36c70 0 129 19.667 177 59z" />
    <glyph glyph-name="ccedilla" unicode="&#xe7;" horiz-adv-x="1142" 
d="M1094 400c-8 -116.667 -49.998 -212.001 -125.998 -286.001s-176.333 -117.333 -301 -130l-42 -100c58.667 0 104 -14 136 -42c32.667 -27.333 49 -66.333 49 -117c0 -57.333 -21.333 -102.666 -64 -135.999c-42.667 -32.667 -101.667 -49.334 -177 -50.001
c-58.667 0 -105.334 5.33301 -140.001 16v120c26.667 -9.33301 63.667 -14 111 -14c71.333 0 107 18.333 107 55c0 20.667 -9.66699 35 -29 43c-18.667 8.66699 -50.667 13 -96 13h-56v101l51 112c-142.667 16.667 -254.667 74.667 -336 174
c-82.667 100 -124 230.667 -124 392c0 174 48.667 312.333 146 415c96.667 102.667 227 154 391 154c145.333 0 263.666 -40.333 354.999 -121c88.667 -78 136.667 -179.333 144 -304h-272c-8 58.667 -31.333 105.334 -70 140.001c-40 36.667 -91 55 -153 55
c-75.333 0 -135 -30 -179 -90c-44 -60.667 -66 -143.667 -66 -249c0 -106.667 22 -190 66 -250c44 -59.333 104 -89 180 -89c128.667 0 203 62.667 223 188h272z" />
    <glyph glyph-name="egrave" unicode="&#xe8;" horiz-adv-x="1164" 
d="M473 1263l-263 310h273l221 -310h-231zM422 836c-44 -44 -68.665 -101.333 -73.998 -172h475c-2.66699 72 -25.334 129.667 -68.001 173s-98 65 -166 65c-66.667 0 -122.334 -22 -167.001 -66zM1096 336c-16 -106.667 -69.667 -192.333 -161 -257
c-91.333 -65.333 -204 -98 -338 -98c-167.333 0 -299.333 50.333 -396 151c-96 100.667 -144 238.667 -144 414s47.667 314.666 143 417.999c96 104 224.667 156 386 156c158.667 0 284.667 -49.333 378 -148c94 -98.667 141 -231.667 141 -399v-90h-760v-18
c0 -79.333 23.667 -143.666 71 -192.999c47.333 -48.667 109.333 -73 186 -73c55.333 0 103 12.333 143 37c40.667 24 68 57.333 82 100h269z" />
    <glyph glyph-name="eacute" unicode="&#xe9;" horiz-adv-x="1164" 
d="M466 1263l221 310h273l-263 -310h-231zM422 836c-44 -44 -68.665 -101.333 -73.998 -172h475c-2.66699 72 -25.334 129.667 -68.001 173s-98 65 -166 65c-66.667 0 -122.334 -22 -167.001 -66zM1096 336c-16 -106.667 -69.667 -192.333 -161 -257
c-91.333 -65.333 -204 -98 -338 -98c-167.333 0 -299.333 50.333 -396 151c-96 100.667 -144 238.667 -144 414s47.667 314.666 143 417.999c96 104 224.667 156 386 156c158.667 0 284.667 -49.333 378 -148c94 -98.667 141 -231.667 141 -399v-90h-760v-18
c0 -79.333 23.667 -143.666 71 -192.999c47.333 -48.667 109.333 -73 186 -73c55.333 0 103 12.333 143 37c40.667 24 68 57.333 82 100h269z" />
    <glyph glyph-name="ecircumflex" unicode="&#xea;" horiz-adv-x="1164" 
d="M960 1253h-223l-149 189h-7l-148 -189h-224l266 318h219zM422 836c-44 -44 -68.665 -101.333 -73.998 -172h475c-2.66699 72 -25.334 129.667 -68.001 173s-98 65 -166 65c-66.667 0 -122.334 -22 -167.001 -66zM1096 336c-16 -106.667 -69.667 -192.333 -161 -257
c-91.333 -65.333 -204 -98 -338 -98c-167.333 0 -299.333 50.333 -396 151c-96 100.667 -144 238.667 -144 414s47.667 314.666 143 417.999c96 104 224.667 156 386 156c158.667 0 284.667 -49.333 378 -148c94 -98.667 141 -231.667 141 -399v-90h-760v-18
c0 -79.333 23.667 -143.666 71 -192.999c47.333 -48.667 109.333 -73 186 -73c55.333 0 103 12.333 143 37c40.667 24 68 57.333 82 100h269z" />
    <glyph glyph-name="edieresis" unicode="&#xeb;" horiz-adv-x="1164" 
d="M422 836c-44 -44 -68.665 -101.333 -73.998 -172h475c-2.66699 72 -25.334 129.667 -68.001 173s-98 65 -166 65c-66.667 0 -122.334 -22 -167.001 -66zM1096 336c-16 -106.667 -69.667 -192.333 -161 -257c-91.333 -65.333 -204 -98 -338 -98
c-167.333 0 -299.333 50.333 -396 151c-96 100.667 -144 238.667 -144 414s47.667 314.666 143 417.999c96 104 224.667 156 386 156c158.667 0 284.667 -49.333 378 -148c94 -98.667 141 -231.667 141 -399v-90h-760v-18c0 -79.333 23.667 -143.666 71 -192.999
c47.333 -48.667 109.333 -73 186 -73c55.333 0 103 12.333 143 37c40.667 24 68 57.333 82 100h269zM280.002 1298c-26 25.333 -39 56 -39 92s13 67 39 93c26 25.333 58 38 96 38s70 -12.667 96 -38c26 -26 39 -57 39 -93s-13 -66.667 -39 -92c-26 -26 -58 -39 -96 -39
s-70 13 -96 39zM699.002 1298c-26 25.333 -39 56 -39 92s13 67 39 93c26 25.333 58 38 96 38s70 -12.667 96 -38c26 -26 39 -57 39 -93s-13 -66.667 -39 -92c-26 -26 -58 -39 -96 -39s-70 13 -96 39z" />
    <glyph glyph-name="igrave" unicode="&#xec;" horiz-adv-x="500" 
d="M138 1263l-263 310h273l221 -310h-231zM104 1101h292v-1101h-292v1101z" />
    <glyph glyph-name="iacute" unicode="&#xed;" horiz-adv-x="500" 
d="M130 1263l221 310h273l-263 -310h-231zM103 1101h292v-1101h-292v1101z" />
    <glyph glyph-name="icircumflex" unicode="&#xee;" horiz-adv-x="500" 
d="M625 1253h-223l-149 189h-7l-148 -189h-224l266 318h219zM104 1101h292v-1101h-292v1101z" />
    <glyph glyph-name="idieresis" unicode="&#xef;" horiz-adv-x="500" 
d="M104 1101h292v-1101h-292v1101zM-55 1298c-26 25.333 -39 56 -39 92s13 67 39 93c26 25.333 58 38 96 38s70 -12.667 96 -38c26 -26 39 -57 39 -93s-13 -66.667 -39 -92c-26 -26 -58 -39 -96 -39s-70 13 -96 39zM364 1298c-26 25.333 -39 56 -39 92s13 67 39 93
c26 25.333 58 38 96 38s70 -12.667 96 -38c26 -26 39 -57 39 -93s-13 -66.667 -39 -92c-26 -26 -58 -39 -96 -39s-70 13 -96 39z" />
    <glyph glyph-name="eth" unicode="&#xf0;" horiz-adv-x="1253" 
d="M228 133c-99.333 100.667 -148.998 234.667 -148.998 402c0 156.667 43.667 282.667 131 378c86 94 198 141 336 141c124 0 215.333 -43.333 274 -130h17c-29.333 97.333 -86.333 193.333 -171 288l-285 -95l-55 140l228 76c-52.667 48 -133.334 109.333 -242.001 184
h363c42 -32 81.667 -66.667 119 -104l265 89l57 -141l-202 -66c166.667 -198.667 250 -430 250 -694c0 -189.333 -50 -340 -150 -452c-98.667 -111.333 -230 -167 -394 -167c-162.667 0 -293.334 50.333 -392.001 151zM445.002 763
c-44.667 -56.667 -67 -133.332 -67 -229.999s22.333 -173.334 67 -230.001s105.334 -85 182.001 -85s137.667 28.333 183 85c44.667 56 67 132.667 67 230c0 96 -22.667 172.667 -68 230c-45.333 56.667 -106 85 -182 85c-76.667 0 -137.334 -28.333 -182.001 -85z" />
    <glyph glyph-name="ntilde" unicode="&#xf1;" horiz-adv-x="1227" 
d="M603 1326c-50.667 45.333 -85.665 68 -104.998 68c-44.667 0 -67.667 -39.667 -69 -119h-158c0 84 20.333 150.667 61 200c39.333 47.333 90.666 71 153.999 71c53.333 0 105.666 -22.333 156.999 -67c51.333 -45.333 86 -68 104 -68c42 0 63.667 40.667 65 122h158
c0 -83.333 -20.667 -150.333 -62 -201c-39.333 -49.333 -90 -74 -152 -74c-50.667 0 -101.667 22.667 -153 68zM98.002 1101l282 0.000976562v-197h6c64.667 142 182.667 213 354 213c122 0 218 -36.333 288 -109c69.333 -72.667 104 -173.334 104 -302.001v-706h-292v645
c0 73.333 -18.667 129.666 -56 168.999c-38 40 -91.333 60 -160 60c-70 0 -126.333 -22.667 -169 -68c-43.333 -45.333 -65 -104.666 -65 -177.999v-628h-292v1101z" />
    <glyph glyph-name="ograve" unicode="&#xf2;" horiz-adv-x="1201" 
d="M488 1263l-263 310h273l221 -310h-231zM203 133c-97.333 101.333 -146.001 240.667 -146.001 418c0 175.333 49 314.333 147 417c98 101.333 230 152 396 152c166.667 0 298.667 -50.667 396 -152c98 -102 147 -241 147 -417c0 -178 -48.667 -317.667 -146 -419
c-96.667 -100.667 -229 -151 -397 -151c-167.333 0 -299.666 50.667 -396.999 152zM780.999 296.001c43.333 60.667 65.001 145.667 65.001 255c0 108 -22 192.667 -66 254c-43.333 60.667 -103.333 91 -180 91c-77.333 0 -137.666 -30.333 -180.999 -91
c-44 -61.333 -66 -146 -66 -254c0 -109.333 22 -194.333 66 -255c43.333 -60 103.666 -90 180.999 -90s137.666 30 180.999 90z" />
    <glyph glyph-name="oacute" unicode="&#xf3;" horiz-adv-x="1201" 
d="M481 1263l221 310h273l-263 -310h-231zM203 133c-97.333 101.333 -146.001 240.667 -146.001 418c0 175.333 49 314.333 147 417c98 101.333 230 152 396 152c166.667 0 298.667 -50.667 396 -152c98 -102 147 -241 147 -417c0 -178 -48.667 -317.667 -146 -419
c-96.667 -100.667 -229 -151 -397 -151c-167.333 0 -299.666 50.667 -396.999 152zM780.999 296.001c43.333 60.667 65.001 145.667 65.001 255c0 108 -22 192.667 -66 254c-43.333 60.667 -103.333 91 -180 91c-77.333 0 -137.666 -30.333 -180.999 -91
c-44 -61.333 -66 -146 -66 -254c0 -109.333 22 -194.333 66 -255c43.333 -60 103.666 -90 180.999 -90s137.666 30 180.999 90z" />
    <glyph glyph-name="ocircumflex" unicode="&#xf4;" horiz-adv-x="1201" 
d="M975 1253h-223l-149 189h-7l-148 -189h-224l266 318h219zM203 133c-97.333 101.333 -146.001 240.667 -146.001 418c0 175.333 49 314.333 147 417c98 101.333 230 152 396 152c166.667 0 298.667 -50.667 396 -152c98 -102 147 -241 147 -417
c0 -178 -48.667 -317.667 -146 -419c-96.667 -100.667 -229 -151 -397 -151c-167.333 0 -299.666 50.667 -396.999 152zM780.999 296.001c43.333 60.667 65.001 145.667 65.001 255c0 108 -22 192.667 -66 254c-43.333 60.667 -103.333 91 -180 91
c-77.333 0 -137.666 -30.333 -180.999 -91c-44 -61.333 -66 -146 -66 -254c0 -109.333 22 -194.333 66 -255c43.333 -60 103.666 -90 180.999 -90s137.666 30 180.999 90z" />
    <glyph glyph-name="otilde" unicode="&#xf5;" horiz-adv-x="1201" 
d="M589 1326c-50.667 45.333 -85.665 68 -104.998 68c-44.667 0 -67.667 -39.667 -69 -119h-158c0 84 20.333 150.667 61 200c39.333 47.333 90.666 71 153.999 71c53.333 0 105.666 -22.333 156.999 -67c51.333 -45.333 86 -68 104 -68c42 0 63.667 40.667 65 122h158
c0 -83.333 -20.667 -150.333 -62 -201c-39.333 -49.333 -90 -74 -152 -74c-50.667 0 -101.667 22.667 -153 68zM203.002 133c-97.333 101.333 -146.001 240.667 -146.001 418c0 175.333 49 314.333 147 417c98 101.333 230 152 396 152c166.667 0 298.667 -50.667 396 -152
c98 -102 147 -241 147 -417c0 -178 -48.667 -317.667 -146 -419c-96.667 -100.667 -229 -151 -397 -151c-167.333 0 -299.666 50.667 -396.999 152zM781.001 296.001c43.333 60.667 65.001 145.667 65.001 255c0 108 -22 192.667 -66 254
c-43.333 60.667 -103.333 91 -180 91c-77.333 0 -137.666 -30.333 -180.999 -91c-44 -61.333 -66 -146 -66 -254c0 -109.333 22 -194.333 66 -255c43.333 -60 103.666 -90 180.999 -90s137.666 30 180.999 90z" />
    <glyph glyph-name="odieresis" unicode="&#xf6;" horiz-adv-x="1201" 
d="M295 1298c-26 25.333 -39 56 -39 92s13 67 39 93c26 25.333 58 38 96 38s70 -12.667 96 -38c26 -26 39 -57 39 -93s-13 -66.667 -39 -92c-26 -26 -58 -39 -96 -39s-70 13 -96 39zM714 1298c-26 25.333 -39 56 -39 92s13 67 39 93c26 25.333 58 38 96 38
s70 -12.667 96 -38c26 -26 39 -57 39 -93s-13 -66.667 -39 -92c-26 -26 -58 -39 -96 -39s-70 13 -96 39zM203 133c-97.333 101.333 -146.001 240.667 -146.001 418c0 175.333 49 314.333 147 417c98 101.333 230 152 396 152c166.667 0 298.667 -50.667 396 -152
c98 -102 147 -241 147 -417c0 -178 -48.667 -317.667 -146 -419c-96.667 -100.667 -229 -151 -397 -151c-167.333 0 -299.666 50.667 -396.999 152zM780.999 296.001c43.333 60.667 65.001 145.667 65.001 255c0 108 -22 192.667 -66 254
c-43.333 60.667 -103.333 91 -180 91c-77.333 0 -137.666 -30.333 -180.999 -91c-44 -61.333 -66 -146 -66 -254c0 -109.333 22 -194.333 66 -255c43.333 -60 103.666 -90 180.999 -90s137.666 30 180.999 90z" />
    <glyph glyph-name="divide" unicode="&#xf7;" horiz-adv-x="1326" 
d="M542 854c-30.667 29.333 -46 67.333 -46 114c0 47.333 15.333 85.666 46 114.999c31.333 29.333 71.666 44 120.999 44s89.666 -14.667 120.999 -44c30.667 -29.333 46 -67.666 46 -114.999c0 -46.667 -15.333 -84.667 -46 -114
c-31.333 -29.333 -71.666 -44 -120.999 -44s-89.666 14.667 -120.999 44zM542 76c-30.667 29.333 -46 67.333 -46 114c0 47.333 15.333 85.666 46 114.999c31.333 29.333 71.666 44 120.999 44s89.666 -14.667 120.999 -44c30.667 -29.333 46 -67.666 46 -114.999
c0 -46.667 -15.333 -84.667 -46 -114c-31.333 -29.333 -71.666 -44 -120.999 -44s-89.666 14.667 -120.999 44zM123 470v218h1079v-218h-1079z" />
    <glyph glyph-name="oslash" unicode="&#xf8;" horiz-adv-x="1201" 
d="M482 237c35.333 -20.667 74.668 -31 118.001 -31c77.333 0 137.666 30 180.999 90c43.333 60.667 65 145.667 65 255c0 81.333 -12.667 150 -38 206zM728.002 857c-36 26 -78.668 39 -128.001 39c-77.333 0 -137.666 -30.333 -180.999 -91c-44 -61.333 -66 -146 -66 -254
c0 -88.667 15 -162 45 -220zM961.001 1001c121.333 -102.667 182 -252.667 182 -450c0 -178 -48.667 -317.667 -146 -419c-96.667 -100.667 -229 -151 -397 -151c-91.333 0 -174 16 -248 48l-62 -99l-104 64l62 98c-127.333 101.333 -191 254.333 -191 459
c0 175.333 49 314.333 147 417c98 101.333 230 152 396 152c96.667 0 183 -18 259 -54l64 102l106 -59z" />
    <glyph glyph-name="ugrave" unicode="&#xf9;" horiz-adv-x="1227" 
d="M499 1263l-263 310h273l221 -310h-231zM1127 0h-282.001v199h-6c-58 -143.333 -173.333 -215 -346 -215c-120.667 0 -217 36.667 -289 110c-74 74 -111 174.333 -111 301v706h292v-645c0 -73.333 19.667 -130 59 -170c38 -39.333 91.333 -59 160 -59
s124.334 22.667 167.001 68s64 105 64 179v627h292v-1101z" />
    <glyph glyph-name="uacute" unicode="&#xfa;" horiz-adv-x="1227" 
d="M492 1263l221 310h273l-263 -310h-231zM1127 0h-282.001v199h-6c-58 -143.333 -173.333 -215 -346 -215c-120.667 0 -217 36.667 -289 110c-74 74 -111 174.333 -111 301v706h292v-645c0 -73.333 19.667 -130 59 -170c38 -39.333 91.333 -59 160 -59
s124.334 22.667 167.001 68s64 105 64 179v627h292v-1101z" />
    <glyph glyph-name="ucircumflex" unicode="&#xfb;" horiz-adv-x="1227" 
d="M986 1253h-223l-149 189h-7l-148 -189h-224l266 318h219zM1127 0h-282.001v199h-6c-58 -143.333 -173.333 -215 -346 -215c-120.667 0 -217 36.667 -289 110c-74 74 -111 174.333 -111 301v706h292v-645c0 -73.333 19.667 -130 59 -170c38 -39.333 91.333 -59 160 -59
s124.334 22.667 167.001 68s64 105 64 179v627h292v-1101z" />
    <glyph glyph-name="udieresis" unicode="&#xfc;" horiz-adv-x="1227" 
d="M1127 0h-282.001v199h-6c-58 -143.333 -173.333 -215 -346 -215c-120.667 0 -217 36.667 -289 110c-74 74 -111 174.333 -111 301v706h292v-645c0 -73.333 19.667 -130 59 -170c38 -39.333 91.333 -59 160 -59s124.334 22.667 167.001 68s64 105 64 179v627h292v-1101z
M305.999 1298c-26 25.333 -39 56 -39 92s13 67 39 93c26 25.333 58 38 96 38s70 -12.667 96 -38c26 -26 39 -57 39 -93s-13 -66.667 -39 -92c-26 -26 -58 -39 -96 -39s-70 13 -96 39zM724.999 1298c-26 25.333 -39 56 -39 92s13 67 39 93c26 25.333 58 38 96 38
s70 -12.667 96 -38c26 -26 39 -57 39 -93s-13 -66.667 -39 -92c-26 -26 -58 -39 -96 -39s-70 13 -96 39z" />
    <glyph glyph-name="yacute" unicode="&#xfd;" horiz-adv-x="1136" 
d="M128 -398v226c10 -2 32 -3 66 -3c108 0 173 42 195 126l10 42l-386 1108h320l238 -864h6l239 864h308l-381 -1123c-46.667 -140 -108 -238.333 -184 -295c-75.333 -56.667 -182 -85 -320 -85c-59.333 0 -96.333 1.33301 -111 4zM450 1263l221 310h273l-263 -310h-231z
" />
    <glyph glyph-name="thorn" unicode="&#xfe;" horiz-adv-x="1253" 
d="M1073 968c79.333 -100.667 119.002 -239.667 119.002 -417s-39.667 -316.333 -119 -417c-78.667 -101.333 -187.334 -152 -326.001 -152c-164 0 -275 62 -333 186h-17v-514h-291v1853h287v-587h18c64 132.667 175.333 199 334 199
c139.333 0 248.666 -50.333 327.999 -151zM827.002 307c44 58.667 66 140.001 66 244.001c0 103.333 -22 184.666 -66 243.999c-44 58.667 -105 88 -183 88c-77.333 0 -138.333 -29.667 -183 -89c-44.667 -60 -67.334 -141.333 -68.001 -244
c0.666992 -103.333 23.334 -184.333 68.001 -243c44.667 -59.333 105.667 -89 183 -89c78 0 139 29.667 183 89z" />
    <glyph glyph-name="ydieresis" unicode="&#xff;" horiz-adv-x="1136" 
d="M128 -398v226c10 -2 32 -3 66 -3c108 0 173 42 195 126l10 42l-386 1108h320l238 -864h6l239 864h308l-381 -1123c-46.667 -140 -108 -238.333 -184 -295c-75.333 -56.667 -182 -85 -320 -85c-59.333 0 -96.333 1.33301 -111 4zM264 1298c-26 25.333 -39 56 -39 92
s13 67 39 93c26 25.333 58 38 96 38s70 -12.667 96 -38c26 -26 39 -57 39 -93s-13 -66.667 -39 -92c-26 -26 -58 -39 -96 -39s-70 13 -96 39zM683 1298c-26 25.333 -39 56 -39 92s13 67 39 93c26 25.333 58 38 96 38s70 -12.667 96 -38c26 -26 39 -57 39 -93
s-13 -66.667 -39 -92c-26 -26 -58 -39 -96 -39s-70 13 -96 39z" />
    <glyph glyph-name="Amacron" unicode="&#x100;" horiz-adv-x="1413" 
d="M954 350h-507l-110 -350h-310l501 1443h355l502 -1443h-321zM512 576h377l-185 591h-7zM1052 1624h-692v143h692v-143z" />
    <glyph glyph-name="amacron" unicode="&#x101;" horiz-adv-x="1147" 
d="M691 257c47.333 38.667 71.001 87.667 71.001 147v81l-231 -16c-124.667 -8 -187 -53.667 -187 -137c0 -40.667 16 -72.667 48 -96c31.333 -24 73.666 -36 126.999 -36c68.667 0 126 19 172 57zM159.001 78c-70.667 62 -105.998 141.668 -105.998 239.001
c0 99.333 37.333 177.333 112 234c73.333 55.333 180.666 87.333 321.999 96l275 17v73c0 52.667 -17 93.334 -51 122.001c-34 28 -81.333 42 -142 42c-52 0 -95.667 -12.667 -131 -38c-34.667 -24.667 -55.667 -57.334 -63 -98.001h-267
c4 105.333 49.333 190.666 136 255.999c87.333 66 199.666 99 336.999 99c141.333 0 254.666 -33.333 339.999 -100s128 -155 128 -265v-755h-282v170h-6c-29.333 -56.667 -75.333 -101.667 -138 -135c-60.667 -32 -127 -48 -199 -48
c-107.333 0 -195.666 30.333 -264.999 91zM912.003 1298h-669v143h669v-143z" />
    <glyph glyph-name="Abreve" unicode="&#x102;" horiz-adv-x="1413" 
d="M954 350h-507l-110 -350h-310l501 1443h355l502 -1443h-321zM512 576h377l-185 591h-7zM531 1860c1.33301 -50 17.6699 -91 49.0029 -123c32.667 -32.667 74.667 -49 126 -49s93.333 16.333 126 49c31.333 32 47.666 73 48.999 123h178
c-1.33301 -91.333 -33.333 -166.333 -96 -225c-64.667 -61.333 -150.334 -92 -257.001 -92s-192.334 30.667 -257.001 92c-62.667 58.667 -94.667 133.667 -96 225h178z" />
    <glyph glyph-name="abreve" unicode="&#x103;" horiz-adv-x="1147" 
d="M691 257c47.333 38.667 71.001 87.667 71.001 147v81l-231 -16c-124.667 -8 -187 -53.667 -187 -137c0 -40.667 16 -72.667 48 -96c31.333 -24 73.666 -36 126.999 -36c68.667 0 126 19 172 57zM159.001 78c-70.667 62 -105.998 141.668 -105.998 239.001
c0 99.333 37.333 177.333 112 234c73.333 55.333 180.666 87.333 321.999 96l275 17v73c0 52.667 -17 93.334 -51 122.001c-34 28 -81.333 42 -142 42c-52 0 -95.667 -12.667 -131 -38c-34.667 -24.667 -55.667 -57.334 -63 -98.001h-267
c4 105.333 49.333 190.666 136 255.999c87.333 66 199.666 99 336.999 99c141.333 0 254.666 -33.333 339.999 -100s128 -155 128 -265v-755h-282v170h-6c-29.333 -56.667 -75.333 -101.667 -138 -135c-60.667 -32 -127 -48 -199 -48
c-107.333 0 -195.666 30.333 -264.999 91zM397.003 1570c1.33301 -50.667 18.3311 -92.334 50.998 -125.001c33.333 -33.333 76 -50 128 -50c52.667 0 95.667 16.667 129 50c32 32.667 48.667 74.334 50 125.001h180c-1.33301 -93.333 -33.666 -169.666 -96.999 -228.999
c-66 -62 -153.333 -93 -262 -93c-108 0 -195 31 -261 93c-63.333 59.333 -95.666 135.666 -96.999 228.999h179z" />
    <glyph glyph-name="Aogonek" unicode="&#x104;" horiz-adv-x="1413" 
d="M1054 -390c-46.667 42 -70 96.334 -70 163.001c0 97.333 50.333 176.666 151 237.999h-74l-107 339h-507l-110 -350h-310l501 1443h355l499 -1436h-53c-96.667 -48 -145 -109.333 -145 -184c0 -32.667 11 -59 33 -79c21.333 -20 49 -30 83 -30c18.667 0 39 1.66699 61 5
v-155c-32 -11.333 -74 -17 -126 -17c-74 0 -134.333 21 -181 63zM512 576.001h377l-182 584h-12z" />
    <glyph glyph-name="aogonek" unicode="&#x105;" horiz-adv-x="1147" 
d="M747 -392c-46 41.333 -69.0029 94.666 -69.0029 159.999c0 100 53.333 181.333 160 244h-71v158h-6c-29.333 -55.333 -74.333 -99.666 -135 -132.999c-61.333 -33.333 -128.666 -50 -201.999 -50c-108.667 0 -197.667 31 -267 93c-69.333 61.333 -104 140.333 -104 237
c0 99.333 37 177 111 233s181.667 88.333 323 97l275 17v73c0 52 -17 92.333 -51 121c-33.333 28.667 -80.666 43 -141.999 43c-51.333 0 -94.666 -12.333 -129.999 -37s-56.666 -57.667 -63.999 -99h-267c4 105.333 49.667 191 137 257c87.333 65.333 199.333 98 336 98
c141.333 0 254.666 -33.333 339.999 -100s128 -155 128 -265v-745h-29c-96.667 -48 -145 -110.333 -145 -187c0 -32.667 10.667 -59 32 -79s49.333 -30 84 -30c18.667 0 38 1.66699 58 5v-155c-32.667 -11.333 -73.667 -17 -123 -17c-73.333 0 -133 20.333 -179 61z
M692.997 258c46 38.667 69 87.333 69 146v81l-231 -16c-124.667 -8 -187 -53.667 -187 -137c0 -40 15.667 -72 47 -96c32 -24 74.667 -36 128 -36c69.333 0 127.333 19.333 174 58z" />
    <glyph glyph-name="Cacute" unicode="&#x106;" horiz-adv-x="1459" 
d="M625 1554l232 310h273l-277 -310h-228zM258 174c-122.667 133.333 -183.999 316.002 -183.999 548.002c0 231.333 61.667 413.666 185 546.999c122 132.667 288 199 498 199c174.667 0 321 -50 439 -150c118.667 -101.333 183.667 -232.333 195 -393h-294
c-14 88.667 -52 159.667 -114 213c-62.667 53.333 -138 80 -226 80c-114 0 -205 -44.333 -273 -133c-68 -90 -102 -210.667 -102 -362c0 -154 33.667 -275.333 101 -364c67.333 -89.333 159 -134 275 -134c89.333 0 164.333 24.667 225 74s99 116.666 115 201.999h294
c-16.667 -160.667 -82.334 -288.667 -197.001 -384c-114.667 -94.667 -260.667 -142 -438 -142c-210.667 0 -377 66.333 -499 199z" />
    <glyph glyph-name="cacute" unicode="&#x107;" horiz-adv-x="1142" 
d="M821 695c-8 58.667 -31.332 105.333 -69.999 140c-40 36.667 -91 55 -153 55c-75.333 0 -135 -30 -179 -90c-44 -60.667 -66 -143.667 -66 -249c0 -106.667 22 -190 66 -250c44 -59.333 104 -89 180 -89c128.667 0 203 62.667 223 188h272
c-8.66699 -128 -57.667 -229.667 -147 -305c-90 -76 -207 -114 -351 -114c-165.333 0 -296.333 50.667 -393 152c-97.333 102.667 -146 242 -146 418c0 174 48.667 312.333 146 415c96.667 102.667 227 154 391 154c145.333 0 263.666 -40.333 354.999 -121
c88.667 -78 136.667 -179.333 144 -304h-272zM462.001 1263l221 310h273l-263 -310h-231z" />
    <glyph glyph-name="Ccircumflex" unicode="&#x108;" horiz-adv-x="1459" 
d="M258 174c-122.667 133.333 -183.999 316.002 -183.999 548.002c0 231.333 61.667 413.666 185 546.999c122 132.667 288 199 498 199c174.667 0 321 -50 439 -150c118.667 -101.333 183.667 -232.333 195 -393h-294c-14 88.667 -52 159.667 -114 213
c-62.667 53.333 -138 80 -226 80c-114 0 -205 -44.333 -273 -133c-68 -90 -102 -210.667 -102 -362c0 -154 33.667 -275.333 101 -364c67.333 -89.333 159 -134 275 -134c89.333 0 164.333 24.667 225 74s99 116.666 115 201.999h294
c-16.667 -160.667 -82.334 -288.667 -197.001 -384c-114.667 -94.667 -260.667 -142 -438 -142c-210.667 0 -377 66.333 -499 199zM858.001 1862l274 -318h-222l-163 197h-6l-163 -197h-222l274 318h228z" />
    <glyph glyph-name="ccircumflex" unicode="&#x109;" horiz-adv-x="1142" 
d="M956 1253h-223l-149 189h-7l-148 -189h-224l266 318h219zM821 695c-8 58.667 -31.332 105.333 -69.999 140c-40 36.667 -91 55 -153 55c-75.333 0 -135 -30 -179 -90c-44 -60.667 -66 -143.667 -66 -249c0 -106.667 22 -190 66 -250c44 -59.333 104 -89 180 -89
c128.667 0 203 62.667 223 188h272c-8.66699 -128 -57.667 -229.667 -147 -305c-90 -76 -207 -114 -351 -114c-165.333 0 -296.333 50.667 -393 152c-97.333 102.667 -146 242 -146 418c0 174 48.667 312.333 146 415c96.667 102.667 227 154 391 154
c145.333 0 263.666 -40.333 354.999 -121c88.667 -78 136.667 -179.333 144 -304h-272z" />
    <glyph glyph-name="Cdotaccent" unicode="&#x10a;" horiz-adv-x="1459" 
d="M638 1606c-28.667 28.667 -43 63.667 -43 105s14.333 76.333 43 105s64 43 106 43s77.333 -14.333 106 -43s43 -63.667 43 -105s-14.333 -76.333 -43 -105c-28.667 -29.333 -64 -44 -106 -44s-77.333 14.667 -106 44zM258 174
c-122.667 133.333 -183.999 316.002 -183.999 548.002c0 231.333 61.667 413.666 185 546.999c122 132.667 288 199 498 199c174.667 0 321 -50 439 -150c118.667 -101.333 183.667 -232.333 195 -393h-294c-14 88.667 -52 159.667 -114 213c-62.667 53.333 -138 80 -226 80
c-114 0 -205 -44.333 -273 -133c-68 -90 -102 -210.667 -102 -362c0 -154 33.667 -275.333 101 -364c67.333 -89.333 159 -134 275 -134c89.333 0 164.333 24.667 225 74s99 116.666 115 201.999h294c-16.667 -160.667 -82.334 -288.667 -197.001 -384
c-114.667 -94.667 -260.667 -142 -438 -142c-210.667 0 -377 66.333 -499 199z" />
    <glyph glyph-name="cdotaccent" unicode="&#x10b;" horiz-adv-x="1142" 
d="M821 695c-8 58.667 -31.332 105.333 -69.999 140c-40 36.667 -91 55 -153 55c-75.333 0 -135 -30 -179 -90c-44 -60.667 -66 -143.667 -66 -249c0 -106.667 22 -190 66 -250c44 -59.333 104 -89 180 -89c128.667 0 203 62.667 223 188h272
c-8.66699 -128 -57.667 -229.667 -147 -305c-90 -76 -207 -114 -351 -114c-165.333 0 -296.333 50.667 -393 152c-97.333 102.667 -146 242 -146 418c0 174 48.667 312.333 146 415c96.667 102.667 227 154 391 154c145.333 0 263.666 -40.333 354.999 -121
c88.667 -78 136.667 -179.333 144 -304h-272zM473.001 1307c-29.333 28.667 -44 63.334 -44 104.001c0 41.333 14.667 76.333 44 105c29.333 29.333 65 44 107 44s77.667 -14.667 107 -44c28.667 -28.667 43 -63.667 43 -105c0 -40.667 -14.333 -75.334 -43 -104.001
c-29.333 -29.333 -65 -44 -107 -44s-77.667 14.667 -107 44z" />
    <glyph glyph-name="Ccaron" unicode="&#x10c;" horiz-adv-x="1459" 
d="M258 174c-122.667 133.333 -183.999 316.002 -183.999 548.002c0 231.333 61.667 413.666 185 546.999c122 132.667 288 199 498 199c174.667 0 321 -50 439 -150c118.667 -101.333 183.667 -232.333 195 -393h-294c-14 88.667 -52 159.667 -114 213
c-62.667 53.333 -138 80 -226 80c-114 0 -205 -44.333 -273 -133c-68 -90 -102 -210.667 -102 -362c0 -154 33.667 -275.333 101 -364c67.333 -89.333 159 -134 275 -134c89.333 0 164.333 24.667 225 74s99 116.666 115 201.999h294
c-16.667 -160.667 -82.334 -288.667 -197.001 -384c-114.667 -94.667 -260.667 -142 -438 -142c-210.667 0 -377 66.333 -499 199zM356.001 1862h222l163 -197h6l163 197h222l-274 -318h-228z" />
    <glyph glyph-name="ccaron" unicode="&#x10d;" horiz-adv-x="1142" 
d="M471 1253l-266 318h224l148 -188h7l149 188h223l-266 -318h-219zM821 695c-8 58.667 -31.332 105.333 -69.999 140c-40 36.667 -91 55 -153 55c-75.333 0 -135 -30 -179 -90c-44 -60.667 -66 -143.667 -66 -249c0 -106.667 22 -190 66 -250c44 -59.333 104 -89 180 -89
c128.667 0 203 62.667 223 188h272c-8.66699 -128 -57.667 -229.667 -147 -305c-90 -76 -207 -114 -351 -114c-165.333 0 -296.333 50.667 -393 152c-97.333 102.667 -146 242 -146 418c0 174 48.667 312.333 146 415c96.667 102.667 227 154 391 154
c145.333 0 263.666 -40.333 354.999 -121c88.667 -78 136.667 -179.333 144 -304h-272z" />
    <glyph glyph-name="Dcaron" unicode="&#x10e;" horiz-adv-x="1438" 
d="M255 1861h222l163 -197h6l163 197h222l-274 -318h-228zM675 1443c217.333 0 386.001 -62 506.001 -186c121.333 -125.333 182 -302 182 -530c0 -228.667 -60.667 -407 -182 -535c-120.667 -128 -289.334 -192 -506.001 -192h-556v1443h556zM421.001 250h218
c135.333 0 238.333 40.333 309 121c71.333 81.333 107 199.666 107 354.999c0 150.667 -36 266.334 -108 347.001s-174.667 121 -308 121h-218v-944z" />
    <glyph glyph-name="dcaron" unicode="&#x10f;" horiz-adv-x="1449" 
d="M1513 1507l-40 -503h-177v503h217zM180 139c-82 102 -123.001 239.667 -123.001 413c0 172 41 308.667 123 410s191.667 152 329 152c78.667 0 148 -18.333 208 -55c58 -35.333 101 -84 129 -146h6v599h292v-1512h-288v188h-5c-27.333 -61.333 -71 -110 -131 -146
c-61.333 -36.667 -132 -55 -212 -55c-137.333 0 -246.666 50.667 -327.999 152zM423.999 790c-45.333 -59.333 -68 -138.999 -68 -238.999c0 -100.667 22.667 -180.667 68 -240c44.667 -58.667 105 -88 181 -88c75.333 0 135.666 29.667 180.999 89s68 138.666 68 237.999
s-22.667 179 -68 239c-45.333 59.333 -105.666 89 -180.999 89c-76 0 -136.333 -29.333 -181 -88z" />
    <glyph glyph-name="Dcroat" unicode="&#x110;" horiz-adv-x="1517" 
d="M692 250c135.333 0 238.333 40.333 309 121c71.333 81.333 107 199.666 107 354.999c0 150.667 -36 266.334 -108 347.001s-174.667 121 -308 121h-218v-351h265v-221h-265v-372h218zM728 1443c217.333 0 386.001 -62 506.001 -186c121.333 -125.333 182 -302 182 -530
c0 -228.667 -60.667 -407 -182 -535c-120.667 -128 -289.334 -192 -506.001 -192h-556v622h-88v221h88v600h556z" />
    <glyph glyph-name="dcroat" unicode="&#x111;" horiz-adv-x="1295" 
d="M811 307c44 58.667 66 139.667 66 243c0 102.667 -22.333 183.667 -67 243c-44.667 60 -105.667 90 -183 90s-138.333 -29.333 -183 -88c-44 -59.333 -66 -140.666 -66 -243.999c0 -104.667 22 -186.334 66 -245.001s105 -88 183 -88s139.333 29.667 184 89zM1259 1262
l-94.001 0.000976562v-1262h-287v173h-18c-63.333 -127.333 -175 -191 -335 -191c-138 0 -246.667 51 -326 153c-80 101.333 -120 240.333 -120 417c0 175.333 40.333 313.666 121 414.999s190 152 328 152c74.667 0 141.334 -17.333 200.001 -52
c57.333 -34 100.333 -81.333 129 -142h17v337h-223v150h223v144h291v-144h94v-150z" />
    <glyph glyph-name="Emacron" unicode="&#x112;" horiz-adv-x="1174" 
d="M1075 0h-956v1443h956v-249h-654v-348h617v-232h-617v-364h654v-250zM943 1624h-692v143h692v-143z" />
    <glyph glyph-name="emacron" unicode="&#x113;" horiz-adv-x="1164" 
d="M422 836c-44 -44 -68.665 -101.333 -73.998 -172h475c-2.66699 72 -25.334 129.667 -68.001 173s-98 65 -166 65c-66.667 0 -122.334 -22 -167.001 -66zM1096 336c-16 -106.667 -69.667 -192.333 -161 -257c-91.333 -65.333 -204 -98 -338 -98
c-167.333 0 -299.333 50.333 -396 151c-96 100.667 -144 238.667 -144 414s47.667 314.666 143 417.999c96 104 224.667 156 386 156c158.667 0 284.667 -49.333 378 -148c94 -98.667 141 -231.667 141 -399v-90h-760v-18c0 -79.333 23.667 -143.666 71 -192.999
c47.333 -48.667 109.333 -73 186 -73c55.333 0 103 12.333 143 37c40.667 24 68 57.333 82 100h269zM920.002 1298h-669v143h669v-143z" />
    <glyph glyph-name="Ebreve" unicode="&#x114;" horiz-adv-x="1174" 
d="M1075 0h-956v1443h956v-249h-654v-348h617v-232h-617v-364h654v-250zM422 1860c1.33301 -50 17.6699 -91 49.0029 -123c32.667 -32.667 74.667 -49 126 -49s93.333 16.333 126 49c31.333 32 47.666 73 48.999 123h178c-1.33301 -91.333 -33.333 -166.333 -96 -225
c-64.667 -61.333 -150.334 -92 -257.001 -92s-192.334 30.667 -257.001 92c-62.667 58.667 -94.667 133.667 -96 225h178z" />
    <glyph glyph-name="ebreve" unicode="&#x115;" horiz-adv-x="1164" 
d="M422 836c-44 -44 -68.665 -101.333 -73.998 -172h475c-2.66699 72 -25.334 129.667 -68.001 173s-98 65 -166 65c-66.667 0 -122.334 -22 -167.001 -66zM1096 336c-16 -106.667 -69.667 -192.333 -161 -257c-91.333 -65.333 -204 -98 -338 -98
c-167.333 0 -299.333 50.333 -396 151c-96 100.667 -144 238.667 -144 414s47.667 314.666 143 417.999c96 104 224.667 156 386 156c158.667 0 284.667 -49.333 378 -148c94 -98.667 141 -231.667 141 -399v-90h-760v-18c0 -79.333 23.667 -143.666 71 -192.999
c47.333 -48.667 109.333 -73 186 -73c55.333 0 103 12.333 143 37c40.667 24 68 57.333 82 100h269zM405.002 1570c1.33301 -50.667 18.3311 -92.334 50.998 -125.001c33.333 -33.333 76 -50 128 -50c52.667 0 95.667 16.667 129 50c32 32.667 48.667 74.334 50 125.001h180
c-1.33301 -93.333 -33.666 -169.666 -96.999 -228.999c-66 -62 -153.333 -93 -262 -93c-108 0 -195 31 -261 93c-63.333 59.333 -95.666 135.666 -96.999 228.999h179z" />
    <glyph glyph-name="Edotaccent" unicode="&#x116;" horiz-adv-x="1174" 
d="M491 1605c-28.667 28.667 -43 63.667 -43 105s14.333 76.333 43 105s64 43 106 43s77.333 -14.333 106 -43s43 -63.667 43 -105s-14.333 -76.333 -43 -105c-28.667 -29.333 -64 -44 -106 -44s-77.333 14.667 -106 44zM1075 0h-956v1443h956v-249h-654v-348h617v-232h-617
v-364h654v-250z" />
    <glyph glyph-name="edotaccent" unicode="&#x117;" horiz-adv-x="1164" 
d="M477 1307c-29.333 28.667 -44 63.334 -44 104.001c0 41.333 14.667 76.333 44 105c29.333 29.333 65 44 107 44s77.667 -14.667 107 -44c28.667 -28.667 43 -63.667 43 -105c0 -40.667 -14.333 -75.334 -43 -104.001c-29.333 -29.333 -65 -44 -107 -44
s-77.667 14.667 -107 44zM422 836c-44 -44 -68.665 -101.333 -73.998 -172h475c-2.66699 72 -25.334 129.667 -68.001 173s-98 65 -166 65c-66.667 0 -122.334 -22 -167.001 -66zM1096 336c-16 -106.667 -69.667 -192.333 -161 -257c-91.333 -65.333 -204 -98 -338 -98
c-167.333 0 -299.333 50.333 -396 151c-96 100.667 -144 238.667 -144 414s47.667 314.666 143 417.999c96 104 224.667 156 386 156c158.667 0 284.667 -49.333 378 -148c94 -98.667 141 -231.667 141 -399v-90h-760v-18c0 -79.333 23.667 -143.666 71 -192.999
c47.333 -48.667 109.333 -73 186 -73c55.333 0 103 12.333 143 37c40.667 24 68 57.333 82 100h269z" />
    <glyph glyph-name="Eogonek" unicode="&#x118;" horiz-adv-x="1174" 
d="M119 0l0.000976562 1443h956v-249h-654v-348h617v-232h-617v-364h654v-221c-126 -57.333 -189 -128.333 -189 -213c0 -30.667 10.667 -55.334 32 -74.001s49.666 -28 84.999 -28c29.333 0 53.333 2.66699 72 8v-154c-31.333 -14 -77 -21 -137 -21
c-77.333 0 -139 19.667 -185 59s-69 91.666 -69 156.999c0 96.667 48.333 175.667 145 237h-710z" />
    <glyph glyph-name="eogonek" unicode="&#x119;" horiz-adv-x="1164" 
d="M581 -397c-45.333 39.333 -68.002 90.666 -68.002 153.999c0 86.667 40.667 161.334 122 224.001v2c-6 -1.33301 -18.667 -2 -38 -2c-167.333 0 -299.333 50.333 -396 151c-96 100.667 -144 238.667 -144 414s47.667 314.666 143 417.999c96 104 224.667 156 386 156
c158.667 0 284.667 -49.333 378 -148c94 -98.667 141 -231.667 141 -399v-90h-760v-18c0 -79.333 23.667 -143.666 71 -192.999c47.333 -48.667 109.333 -73 186 -73c55.333 0 103.333 12.333 144 37c40 24.667 67 58 81 100h269
c-13.333 -100 -83.666 -199.667 -210.999 -299c-61.333 -48 -103.333 -85 -126 -111c-32.667 -37.333 -49 -74 -49 -110c0 -30 10.667 -54.333 32 -73c20.667 -18.667 48 -28 82 -28c28 0 52.333 3 73 9v-158c-31.333 -14.667 -77.666 -22 -138.999 -22
c-72.667 0 -131.667 19.667 -177 59zM421.998 836c-44 -44 -68.665 -101.333 -73.998 -172h475c-2.66699 72 -25.334 129.667 -68.001 173s-98 65 -166 65c-66.667 0 -122.334 -22 -167.001 -66z" />
    <glyph glyph-name="Ecaron" unicode="&#x11a;" horiz-adv-x="1174" 
d="M209 1861h222l163 -197h6l163 197h222l-274 -318h-228zM1075 0h-956v1443h956v-249h-654v-348h617v-232h-617v-364h654v-250z" />
    <glyph glyph-name="ecaron" unicode="&#x11b;" horiz-adv-x="1164" 
d="M475 1253l-266 318h224l148 -188h7l149 188h223l-266 -318h-219zM422 836c-44 -44 -68.665 -101.333 -73.998 -172h475c-2.66699 72 -25.334 129.667 -68.001 173s-98 65 -166 65c-66.667 0 -122.334 -22 -167.001 -66zM1096 336
c-16 -106.667 -69.667 -192.333 -161 -257c-91.333 -65.333 -204 -98 -338 -98c-167.333 0 -299.333 50.333 -396 151c-96 100.667 -144 238.667 -144 414s47.667 314.666 143 417.999c96 104 224.667 156 386 156c158.667 0 284.667 -49.333 378 -148
c94 -98.667 141 -231.667 141 -399v-90h-760v-18c0 -79.333 23.667 -143.666 71 -192.999c47.333 -48.667 109.333 -73 186 -73c55.333 0 103 12.333 143 37c40.667 24 68 57.333 82 100h269z" />
    <glyph glyph-name="Gcircumflex" unicode="&#x11c;" horiz-adv-x="1489" 
d="M864 1861l274 -318h-222l-163 197h-6l-163 -197h-222l274 318h228zM1409 606c0 -196.667 -56.3359 -350.999 -169.003 -462.999c-113.333 -112 -270.333 -168 -471 -168c-216 0 -385.667 66.667 -509 200c-124 133.333 -186 317 -186 551c0 230.667 61.667 412 185 544
c122.667 132 290.334 198 503.001 198c168 0 310.333 -45.333 427 -136s185.667 -209 207 -355h-303c-22 75.333 -62 134.333 -120 177c-58.667 42.667 -128.667 64 -210 64c-119.333 0 -212.666 -43 -279.999 -129s-101 -205.667 -101 -359c0 -156 35.333 -279 106 -369
c70 -90 165.333 -135 286 -135c98.667 0 179.334 27.667 242.001 83c62 55.333 94.667 127.666 98 216.999l1 23h-314v220h608v-163z" />
    <glyph glyph-name="gcircumflex" unicode="&#x11d;" horiz-adv-x="1244" 
d="M983 1253h-223l-149 189h-7l-148 -189h-224l266 318h219zM785 319c45.333 57.333 68 134.999 68 232.999c0 99.333 -22.667 178.333 -68 237c-45.333 59.333 -106 89 -182 89c-75.333 0 -135.333 -29.333 -180 -88s-67 -137.667 -67 -237s22.333 -177.666 67 -234.999
c44 -56.667 104 -85 180 -85s136.667 28.667 182 86zM244 -315.001c-93.333 59.333 -143.664 138.333 -150.997 237h288c9.33301 -36 35 -65 77 -87c41.333 -21.333 91 -32 149 -32c74.667 0 134 18 178 54c44.667 36 67 84.667 67 146v197h-6
c-26.667 -59.333 -70.334 -106.333 -131.001 -141s-130.667 -52 -210 -52c-135.333 0 -243.333 48.667 -324 146c-82.667 99.333 -124 233 -124 401c0 172.667 40.667 309 122 409c81.333 100.667 191.666 151 330.999 151c78 0 147.333 -18.333 208 -55
c59.333 -35.333 103.666 -84 132.999 -146h5v188h288v-1076c0 -130.667 -49.333 -234.667 -148 -312c-98 -77.333 -230 -116 -396 -116c-145.333 0 -264 29.333 -356 88z" />
    <glyph glyph-name="Gbreve" unicode="&#x11e;" horiz-adv-x="1489" 
d="M1409 606c0 -196.667 -56.3359 -350.999 -169.003 -462.999c-113.333 -112 -270.333 -168 -471 -168c-216 0 -385.667 66.667 -509 200c-124 133.333 -186 317 -186 551c0 230.667 61.667 412 185 544c122.667 132 290.334 198 503.001 198
c168 0 310.333 -45.333 427 -136s185.667 -209 207 -355h-303c-22 75.333 -62 134.333 -120 177c-58.667 42.667 -128.667 64 -210 64c-119.333 0 -212.666 -43 -279.999 -129s-101 -205.667 -101 -359c0 -156 35.333 -279 106 -369c70 -90 165.333 -135 286 -135
c98.667 0 179.334 27.667 242.001 83c62 55.333 94.667 127.666 98 216.999l1 23h-314v220h608v-163zM574.997 1860c1.33301 -50 17.6699 -91 49.0029 -123c32.667 -32.667 74.667 -49 126 -49s93.333 16.333 126 49c31.333 32 47.666 73 48.999 123h178
c-1.33301 -91.333 -33.333 -166.333 -96 -225c-64.667 -61.333 -150.334 -92 -257.001 -92s-192.334 30.667 -257.001 92c-62.667 58.667 -94.667 133.667 -96 225h178z" />
    <glyph glyph-name="gbreve" unicode="&#x11f;" horiz-adv-x="1244" 
d="M428 1570c1.33301 -50.667 18.3311 -92.334 50.998 -125.001c33.333 -33.333 76 -50 128 -50c52.667 0 95.667 16.667 129 50c32 32.667 48.667 74.334 50 125.001h180c-1.33301 -93.333 -33.666 -169.666 -96.999 -228.999c-66 -62 -153.333 -93 -262 -93
c-108 0 -195 31 -261 93c-63.333 59.333 -95.666 135.666 -96.999 228.999h179zM784.998 319c45.333 57.333 68 134.999 68 232.999c0 99.333 -22.667 178.333 -68 237c-45.333 59.333 -106 89 -182 89c-75.333 0 -135.333 -29.333 -180 -88s-67 -137.667 -67 -237
s22.333 -177.666 67 -234.999c44 -56.667 104 -85 180 -85s136.667 28.667 182 86zM243.998 -315.001c-93.333 59.333 -143.664 138.333 -150.997 237h288c9.33301 -36 35 -65 77 -87c41.333 -21.333 91 -32 149 -32c74.667 0 134 18 178 54c44.667 36 67 84.667 67 146v197
h-6c-26.667 -59.333 -70.334 -106.333 -131.001 -141s-130.667 -52 -210 -52c-135.333 0 -243.333 48.667 -324 146c-82.667 99.333 -124 233 -124 401c0 172.667 40.667 309 122 409c81.333 100.667 191.666 151 330.999 151c78 0 147.333 -18.333 208 -55
c59.333 -35.333 103.666 -84 132.999 -146h5v188h288v-1076c0 -130.667 -49.333 -234.667 -148 -312c-98 -77.333 -230 -116 -396 -116c-145.333 0 -264 29.333 -356 88z" />
    <glyph glyph-name="Gdotaccent" unicode="&#x120;" horiz-adv-x="1489" 
d="M644 1605c-28.667 28.667 -43 63.667 -43 105s14.333 76.333 43 105s64 43 106 43s77.333 -14.333 106 -43s43 -63.667 43 -105s-14.333 -76.333 -43 -105c-28.667 -29.333 -64 -44 -106 -44s-77.333 14.667 -106 44zM1409 606
c0 -196.667 -56.3359 -350.999 -169.003 -462.999c-113.333 -112 -270.333 -168 -471 -168c-216 0 -385.667 66.667 -509 200c-124 133.333 -186 317 -186 551c0 230.667 61.667 412 185 544c122.667 132 290.334 198 503.001 198c168 0 310.333 -45.333 427 -136
s185.667 -209 207 -355h-303c-22 75.333 -62 134.333 -120 177c-58.667 42.667 -128.667 64 -210 64c-119.333 0 -212.666 -43 -279.999 -129s-101 -205.667 -101 -359c0 -156 35.333 -279 106 -369c70 -90 165.333 -135 286 -135c98.667 0 179.334 27.667 242.001 83
c62 55.333 94.667 127.666 98 216.999l1 23h-314v220h608v-163z" />
    <glyph glyph-name="gdotaccent" unicode="&#x121;" horiz-adv-x="1244" 
d="M500 1307c-29.333 28.667 -44 63.334 -44 104.001c0 41.333 14.667 76.333 44 105c29.333 29.333 65 44 107 44s77.667 -14.667 107 -44c28.667 -28.667 43 -63.667 43 -105c0 -40.667 -14.333 -75.334 -43 -104.001c-29.333 -29.333 -65 -44 -107 -44
s-77.667 14.667 -107 44zM785 319c45.333 57.333 68 134.999 68 232.999c0 99.333 -22.667 178.333 -68 237c-45.333 59.333 -106 89 -182 89c-75.333 0 -135.333 -29.333 -180 -88s-67 -137.667 -67 -237s22.333 -177.666 67 -234.999c44 -56.667 104 -85 180 -85
s136.667 28.667 182 86zM244 -315.001c-93.333 59.333 -143.664 138.333 -150.997 237h288c9.33301 -36 35 -65 77 -87c41.333 -21.333 91 -32 149 -32c74.667 0 134 18 178 54c44.667 36 67 84.667 67 146v197h-6c-26.667 -59.333 -70.334 -106.333 -131.001 -141
s-130.667 -52 -210 -52c-135.333 0 -243.333 48.667 -324 146c-82.667 99.333 -124 233 -124 401c0 172.667 40.667 309 122 409c81.333 100.667 191.666 151 330.999 151c78 0 147.333 -18.333 208 -55c59.333 -35.333 103.666 -84 132.999 -146h5v188h288v-1076
c0 -130.667 -49.333 -234.667 -148 -312c-98 -77.333 -230 -116 -396 -116c-145.333 0 -264 29.333 -356 88z" />
    <glyph glyph-name="uni0122" unicode="&#x122;" horiz-adv-x="1489" 
d="M511 -500l121 345h256l-160 -345h-217zM1409 606c0 -196.667 -56.3359 -350.999 -169.003 -462.999c-113.333 -112 -270.333 -168 -471 -168c-216 0 -385.667 66.667 -509 200c-124 133.333 -186 317 -186 551c0 230.667 61.667 412 185 544
c122.667 132 290.334 198 503.001 198c168 0 310.333 -45.333 427 -136s185.667 -209 207 -355h-303c-22 75.333 -62 134.333 -120 177c-58.667 42.667 -128.667 64 -210 64c-119.333 0 -212.666 -43 -279.999 -129s-101 -205.667 -101 -359c0 -156 35.333 -279 106 -369
c70 -90 165.333 -135 286 -135c98.667 0 179.334 27.667 242.001 83c62 55.333 94.667 127.666 98 216.999l1 23h-314v220h608v-163z" />
    <glyph glyph-name="uni0123" unicode="&#x123;" horiz-adv-x="1244" 
d="M370 -882l121 345h256l-160 -345h-217zM785 319c45.333 57.333 68 134.999 68 232.999c0 99.333 -22.667 178.333 -68 237c-45.333 59.333 -106 89 -182 89c-75.333 0 -135.333 -29.333 -180 -88s-67 -137.667 -67 -237s22.333 -177.666 67 -234.999
c44 -56.667 104 -85 180 -85s136.667 28.667 182 86zM244 -315.001c-93.333 59.333 -143.664 138.333 -150.997 237h288c9.33301 -36 35 -65 77 -87c41.333 -21.333 91 -32 149 -32c74.667 0 134 18 178 54c44.667 36 67 84.667 67 146v197h-6
c-26.667 -59.333 -70.334 -106.333 -131.001 -141s-130.667 -52 -210 -52c-135.333 0 -243.333 48.667 -324 146c-82.667 99.333 -124 233 -124 401c0 172.667 40.667 309 122 409c81.333 100.667 191.666 151 330.999 151c78 0 147.333 -18.333 208 -55
c59.333 -35.333 103.666 -84 132.999 -146h5v188h288v-1076c0 -130.667 -49.333 -234.667 -148 -312c-98 -77.333 -230 -116 -396 -116c-145.333 0 -264 29.333 -356 88z" />
    <glyph glyph-name="Hcircumflex" unicode="&#x124;" horiz-adv-x="1494" 
d="M1071 0v608h-650v-608h-302v1443h302v-586h650v586h302v-1443h-302zM860 1861l274 -318h-222l-163 197h-6l-163 -197h-222l274 318h228z" />
    <glyph glyph-name="hcircumflex" unicode="&#x125;" horiz-adv-x="1247" 
d="M107 1512h287v-608h6c63.333 142 182 213 356 213c122 0 218.667 -37 290 -111s107 -174.667 107 -302v-704h-292v643c0 72 -19.667 128.667 -59 170c-40 40.667 -94.667 61 -164 61c-71.333 0 -129 -23 -173 -69s-66 -106 -66 -180v-625h-292v1512zM366 1930l274 -318
h-222l-163 197h-6l-163 -197h-222l274 318h228z" />
    <glyph glyph-name="Hbar" unicode="&#x126;" horiz-adv-x="1536" 
d="M1092 1052h-650v-195h650v195zM1500 1052h-106v-1052h-302v608h-650v-608h-302v1052h-105v211h105v180h302v-180h650v180h302v-180h106v-211z" />
    <glyph glyph-name="hbar" unicode="&#x127;" horiz-adv-x="1291" 
d="M426 919c28.667 62.667 74.3359 111.333 137.003 146c61.333 34.667 132.666 52 213.999 52c121.333 0 217.666 -36.667 288.999 -110c72 -74 108 -175 108 -303v-704h-292v643c0 72.667 -20 129.667 -60 171c-40 40.667 -94.333 61 -163 61
c-70.667 0 -128.334 -23 -173.001 -69s-67 -106.333 -67 -181v-625h-292v1242h-90v150h90v165h287v-165h231v-150h-231v-323h12z" />
    <glyph glyph-name="Itilde" unicode="&#x128;" horiz-adv-x="542" 
d="M120 0v1443h302v-1443h-302zM258 1609c-50.667 45.333 -85.665 68 -104.998 68c-44.667 0 -67.667 -39.667 -69 -119h-158c0 84 20.333 150.667 61 200c39.333 47.333 90.666 71 153.999 71c53.333 0 105.666 -22.333 156.999 -67c51.333 -45.333 86 -68 104 -68
c42 0 63.667 40.667 65 122h158c0 -83.333 -20.667 -150.333 -62 -201c-39.333 -49.333 -90 -74 -152 -74c-50.667 0 -101.667 22.667 -153 68z" />
    <glyph glyph-name="itilde" unicode="&#x129;" horiz-adv-x="500" 
d="M104 1101h292v-1101h-292v1101zM239 1326c-50.667 45.333 -85.665 68 -104.998 68c-44.667 0 -67.667 -39.667 -69 -119h-158c0 84 20.333 150.667 61 200c39.333 47.333 90.666 71 153.999 71c53.333 0 105.666 -22.333 156.999 -67c51.333 -45.333 86 -68 104 -68
c42 0 63.667 40.667 65 122h158c0 -83.333 -20.667 -150.333 -62 -201c-39.333 -49.333 -90 -74 -152 -74c-50.667 0 -101.667 22.667 -153 68z" />
    <glyph glyph-name="Imacron" unicode="&#x12a;" horiz-adv-x="542" 
d="M120 0v1443h302v-1443h-302zM617 1624h-692v143h692v-143z" />
    <glyph glyph-name="imacron" unicode="&#x12b;" horiz-adv-x="500" 
d="M104 1101h292v-1101h-292v1101zM585 1298h-669v143h669v-143z" />
    <glyph glyph-name="Ibreve" unicode="&#x12c;" horiz-adv-x="542" 
d="M120 0v1443h302v-1443h-302zM96 1860c1.33301 -50 17.6699 -91 49.0029 -123c32.667 -32.667 74.667 -49 126 -49s93.333 16.333 126 49c31.333 32 47.666 73 48.999 123h178c-1.33301 -91.333 -33.333 -166.333 -96 -225c-64.667 -61.333 -150.334 -92 -257.001 -92
s-192.334 30.667 -257.001 92c-62.667 58.667 -94.667 133.667 -96 225h178z" />
    <glyph glyph-name="ibreve" unicode="&#x12d;" horiz-adv-x="500" 
d="M104 1101h292v-1101h-292v1101zM70 1570c1.33301 -50.667 18.3311 -92.334 50.998 -125.001c33.333 -33.333 76 -50 128 -50c52.667 0 95.667 16.667 129 50c32 32.667 48.667 74.334 50 125.001h180c-1.33301 -93.333 -33.666 -169.666 -96.999 -228.999
c-66 -62 -153.333 -93 -262 -93c-108 0 -195 31 -261 93c-63.333 59.333 -95.666 135.666 -96.999 228.999h179z" />
    <glyph glyph-name="Iogonek" unicode="&#x12e;" horiz-adv-x="542" 
d="M93 -392c-46 41.333 -69 94.666 -69 159.999c0 98.667 51.333 180 154 244h-59v1431h302v-1436h-54c-97.333 -49.333 -146 -110.666 -146 -183.999c0 -32.667 10.667 -59 32 -79s49 -30 83 -30c18.667 0 38 1.66699 58 5v-155c-34 -11.333 -74.667 -17 -122 -17
c-73.333 0 -133 20.333 -179 61z" />
    <glyph glyph-name="iogonek" unicode="&#x12f;" horiz-adv-x="500" 
d="M138 1265c-30.667 29.333 -46 65.666 -46 108.999s15.333 79.666 46 108.999c30.667 28.667 67.667 43 111 43c44 0 81.333 -14.333 112 -43c30.667 -29.333 46 -65.666 46 -108.999s-15.333 -79.666 -46 -108.999s-68 -44 -112 -44c-43.333 0 -80.333 14.667 -111 44z
M93 -392c-46 41.333 -68.999 94.667 -68.999 160c0 102.667 52 184 156 244h-77v1089h292v-1091h-29c-96.667 -48 -145 -110.333 -145 -187c0 -32.667 10.667 -59 32 -79s49 -30 83 -30c22.667 0 42 1.66699 58 5v-155c-32.667 -11.333 -73.334 -17 -122.001 -17
c-73.333 0 -133 20.333 -179 61z" />
    <glyph glyph-name="Idotaccent" unicode="&#x130;" horiz-adv-x="542" 
d="M119 0v1443h302v-1443h-302zM164 1605c-28.667 28.667 -43 63.667 -43 105s14.333 76.333 43 105s64 43 106 43s77.333 -14.333 106 -43s43 -63.667 43 -105s-14.333 -76.333 -43 -105c-28.667 -29.333 -64 -44 -106 -44s-77.333 14.667 -106 44z" />
    <glyph glyph-name="dotlessi" unicode="&#x131;" horiz-adv-x="500" 
d="M103 1101h292v-1101h-292v1101z" />
    <glyph glyph-name="IJ" unicode="&#x132;" horiz-adv-x="1685" 
d="M119 0v1443h302v-1443h-302zM865 425c1.33301 -58.667 19.332 -105.666 53.999 -140.999c35.333 -35.333 81.333 -53 138 -53c129.333 0 194 74.333 194 223v989h302v-991c0 -152.667 -43.667 -271.334 -131 -356.001c-86 -84 -206.667 -126 -362 -126
c-147.333 0 -265.666 41.333 -354.999 124c-88.667 82.667 -133 193 -133 331h293z" />
    <glyph glyph-name="ij" unicode="&#x133;" horiz-adv-x="1000" 
d="M103 1101h292v-1101h-292v1101zM138 1265c-30.667 29.333 -46 65.666 -46 108.999s15.333 79.666 46 108.999c30.667 28.667 67.667 43 111 43c44 0 81.333 -14.333 112 -43c30.667 -29.333 46 -65.666 46 -108.999s-15.333 -79.666 -46 -108.999s-68 -44 -112 -44
c-43.333 0 -80.333 14.667 -111 44zM895 -37c0 -226 -130.333 -339 -391 -339c-40 0 -66 1 -78 3v216c4 -0.666992 16.333 -1 37 -1c50.667 0 86.667 10 108 30c21.333 19.333 32 52 32 98v1131h292v-1138zM638 1265c-30.667 29.333 -46 65.666 -46 108.999
s15.333 79.666 46 108.999c30.667 28.667 67.667 43 111 43c44 0 81.333 -14.333 112 -43c30.667 -29.333 46 -65.666 46 -108.999s-15.333 -79.666 -46 -108.999s-68 -44 -112 -44c-43.333 0 -80.333 14.667 -111 44z" />
    <glyph glyph-name="Jcircumflex" unicode="&#x134;" horiz-adv-x="1143" 
d="M323 425c1.33301 -58.667 19.332 -105.666 53.999 -140.999c35.333 -35.333 81.333 -53 138 -53c129.333 0 194 74.333 194 223v989h302v-991c0 -152.667 -43.667 -271.334 -131 -356.001c-86 -84 -206.667 -126 -362 -126c-147.333 0 -265.666 41.333 -354.999 124
c-88.667 82.667 -133 193 -133 331h293zM977.999 1861l274 -318h-222l-163 197h-6l-163 -197h-222l274 318h228z" />
    <glyph glyph-name="jcircumflex" unicode="&#x135;" horiz-adv-x="499" 
d="M395 -37c0 -226 -130 -339 -390 -339c-40 0 -66 1 -78 3v216c4 -0.666992 16 -1 36 -1c50.667 0 87 10 109 30c21.333 19.333 32 52 32 98v1131h291v-1138zM625 1253h-223l-149 189h-7l-148 -189h-224l266 318h219z" />
    <glyph glyph-name="uni0136" unicode="&#x136;" horiz-adv-x="1353" 
d="M119 0v1443h302v-658h9l542 658h336l-534 -640l571 -803h-361l-428 603l-135 -162v-441h-302zM426 -500l121 345h256l-160 -345h-217z" />
    <glyph glyph-name="uni0137" unicode="&#x137;" horiz-adv-x="1126" 
d="M783 1101h332l-424 -473l444 -628h-336l-322 452l-79 -85v-367h-292v1512h292v-856h4zM345 -500l121 345h256l-160 -345h-217z" />
    <glyph glyph-name="Lacute" unicode="&#x139;" horiz-adv-x="1112" 
d="M151 1553l232 310h273l-277 -310h-228zM1052 0h-933v1443h302v-1193h631v-250z" />
    <glyph glyph-name="lacute" unicode="&#x13a;" horiz-adv-x="505" 
d="M133 1622l232 310h273l-277 -310h-228zM106 1512h292v-1512h-292v1512z" />
    <glyph glyph-name="uni013B" unicode="&#x13b;" horiz-adv-x="1112" 
d="M337 -500l121 345h256l-160 -345h-217zM1052 0h-933v1443h302v-1193h631v-250z" />
    <glyph glyph-name="uni013C" unicode="&#x13c;" horiz-adv-x="505" 
d="M14 -500l121 345h256l-160 -345h-217zM107 1512h292v-1512h-292v1512z" />
    <glyph glyph-name="Lcaron" unicode="&#x13d;" horiz-adv-x="1112" 
d="M920 1443l-50 -503h-196v503h246zM1052 0h-933v1443h302v-1193h631v-250z" />
    <glyph glyph-name="lcaron" unicode="&#x13e;" horiz-adv-x="714" 
d="M767 1507l-40 -503h-176v503h216zM106 1512h292v-1512h-292v1512z" />
    <glyph glyph-name="Lslash" unicode="&#x141;" horiz-adv-x="1128" 
d="M1068 250v-250h-933v638l-97 -49v199l97 49v606h302v-454l293 148v-200l-293 -147v-540h631z" />
    <glyph glyph-name="lslash" unicode="&#x142;" horiz-adv-x="549" 
d="M537 882l-138 -72v-810h-292v658l-99 -52v200l99 51v655h292v-503l138 72v-199z" />
    <glyph glyph-name="Nacute" unicode="&#x143;" horiz-adv-x="1463" 
d="M612 1553l232 310h273l-277 -310h-228zM119 0v1443h252l674 -940h8v940h289v-1443h-250l-675 945h-9v-945h-289z" />
    <glyph glyph-name="nacute" unicode="&#x144;" horiz-adv-x="1227" 
d="M495 1263l221 310h273l-263 -310h-231zM98 1101l282 0.000976562v-197h6c64.667 142 182.667 213 354 213c122 0 218 -36.333 288 -109c69.333 -72.667 104 -173.334 104 -302.001v-706h-292v645c0 73.333 -18.667 129.666 -56 168.999c-38 40 -91.333 60 -160 60
c-70 0 -126.333 -22.667 -169 -68c-43.333 -45.333 -65 -104.666 -65 -177.999v-628h-292v1101z" />
    <glyph glyph-name="uni0145" unicode="&#x145;" horiz-adv-x="1463" 
d="M492 -500l121 345h256l-160 -345h-217zM119 0v1443h252l674 -940h8v940h289v-1443h-250l-675 945h-9v-945h-289z" />
    <glyph glyph-name="uni0146" unicode="&#x146;" horiz-adv-x="1227" 
d="M375 -500l121 345h256l-160 -345h-217zM98 1101l282 0.000976562v-197h6c64.667 142 182.667 213 354 213c122 0 218 -36.333 288 -109c69.333 -72.667 104 -173.334 104 -302.001v-706h-292v645c0 73.333 -18.667 129.666 -56 168.999c-38 40 -91.333 60 -160 60
c-70 0 -126.333 -22.667 -169 -68c-43.333 -45.333 -65 -104.666 -65 -177.999v-628h-292v1101z" />
    <glyph glyph-name="Ncaron" unicode="&#x147;" horiz-adv-x="1463" 
d="M343 1861h222l163 -197h6l163 197h222l-274 -318h-228zM119 0v1443h252l674 -940h8v940h289v-1443h-250l-675 945h-9v-945h-289z" />
    <glyph glyph-name="ncaron" unicode="&#x148;" horiz-adv-x="1227" 
d="M504 1253l-266 318h224l148 -188h7l149 188h223l-266 -318h-219zM98 1101l282 0.000976562v-197h6c64.667 142 182.667 213 354 213c122 0 218 -36.333 288 -109c69.333 -72.667 104 -173.334 104 -302.001v-706h-292v645c0 73.333 -18.667 129.666 -56 168.999
c-38 40 -91.333 60 -160 60c-70 0 -126.333 -22.667 -169 -68c-43.333 -45.333 -65 -104.666 -65 -177.999v-628h-292v1101z" />
    <glyph glyph-name="Omacron" unicode="&#x14c;" horiz-adv-x="1541" 
d="M1278 1267c125.333 -134 187.999 -316 187.999 -546c0 -229.333 -62.667 -411 -188 -545s-294.666 -201 -507.999 -201c-214 0 -383.333 67 -508 201c-125.333 134 -188 315.667 -188 545c0 230 62.667 412 188 546c124.667 134 294 201 508 201s383.333 -67 508 -201z
M487.999 1082c-70.667 -89.333 -106 -209.666 -106 -360.999c0 -150.667 35 -270.667 105 -360c70 -88.667 164.333 -133 283 -133c118 0 212 44.333 282 133c70 89.333 105 209.333 105 360c0 151.333 -35 271.666 -105 360.999s-164 134 -282 134s-212 -44.667 -282 -134z
M1116 1624h-692v143h692v-143z" />
    <glyph glyph-name="omacron" unicode="&#x14d;" horiz-adv-x="1201" 
d="M935 1298h-669v143h669v-143zM203 133c-97.333 101.333 -146.001 240.667 -146.001 418c0 175.333 49 314.333 147 417c98 101.333 230 152 396 152c166.667 0 298.667 -50.667 396 -152c98 -102 147 -241 147 -417c0 -178 -48.667 -317.667 -146 -419
c-96.667 -100.667 -229 -151 -397 -151c-167.333 0 -299.666 50.667 -396.999 152zM780.999 296.001c43.333 60.667 65.001 145.667 65.001 255c0 108 -22 192.667 -66 254c-43.333 60.667 -103.333 91 -180 91c-77.333 0 -137.666 -30.333 -180.999 -91
c-44 -61.333 -66 -146 -66 -254c0 -109.333 22 -194.333 66 -255c43.333 -60 103.666 -90 180.999 -90s137.666 30 180.999 90z" />
    <glyph glyph-name="Obreve" unicode="&#x14e;" horiz-adv-x="1541" 
d="M1278 1267c125.333 -134 187.999 -316 187.999 -546c0 -229.333 -62.667 -411 -188 -545s-294.666 -201 -507.999 -201c-214 0 -383.333 67 -508 201c-125.333 134 -188 315.667 -188 545c0 230 62.667 412 188 546c124.667 134 294 201 508 201s383.333 -67 508 -201z
M487.999 1082c-70.667 -89.333 -106 -209.666 -106 -360.999c0 -150.667 35 -270.667 105 -360c70 -88.667 164.333 -133 283 -133c118 0 212 44.333 282 133c70 89.333 105 209.333 105 360c0 151.333 -35 271.666 -105 360.999s-164 134 -282 134s-212 -44.667 -282 -134z
M594.999 1860c1.33301 -50 17.6699 -91 49.0029 -123c32.667 -32.667 74.667 -49 126 -49s93.333 16.333 126 49c31.333 32 47.666 73 48.999 123h178c-1.33301 -91.333 -33.333 -166.333 -96 -225c-64.667 -61.333 -150.334 -92 -257.001 -92s-192.334 30.667 -257.001 92
c-62.667 58.667 -94.667 133.667 -96 225h178z" />
    <glyph glyph-name="obreve" unicode="&#x14f;" horiz-adv-x="1201" 
d="M420 1570c1.33301 -50.667 18.3311 -92.334 50.998 -125.001c33.333 -33.333 76 -50 128 -50c52.667 0 95.667 16.667 129 50c32 32.667 48.667 74.334 50 125.001h180c-1.33301 -93.333 -33.666 -169.666 -96.999 -228.999c-66 -62 -153.333 -93 -262 -93
c-108 0 -195 31 -261 93c-63.333 59.333 -95.666 135.666 -96.999 228.999h179zM202.998 133c-97.333 101.333 -146.001 240.667 -146.001 418c0 175.333 49 314.333 147 417c98 101.333 230 152 396 152c166.667 0 298.667 -50.667 396 -152c98 -102 147 -241 147 -417
c0 -178 -48.667 -317.667 -146 -419c-96.667 -100.667 -229 -151 -397 -151c-167.333 0 -299.666 50.667 -396.999 152zM780.997 296.001c43.333 60.667 65.001 145.667 65.001 255c0 108 -22 192.667 -66 254c-43.333 60.667 -103.333 91 -180 91
c-77.333 0 -137.666 -30.333 -180.999 -91c-44 -61.333 -66 -146 -66 -254c0 -109.333 22 -194.333 66 -255c43.333 -60 103.666 -90 180.999 -90s137.666 30 180.999 90z" />
    <glyph glyph-name="Ohungarumlaut" unicode="&#x150;" horiz-adv-x="1541" 
d="M853 1553l232 310h268l-278 -310h-222zM458 1553l231 310h269l-278 -310h-222zM1278 1267c125.333 -134 187.999 -316 187.999 -546c0 -229.333 -62.667 -411 -188 -545s-294.666 -201 -507.999 -201c-214 0 -383.333 67 -508 201c-125.333 134 -188 315.667 -188 545
c0 230 62.667 412 188 546c124.667 134 294 201 508 201s383.333 -67 508 -201zM487.999 1082c-70.667 -89.333 -106 -209.666 -106 -360.999c0 -150.667 35 -270.667 105 -360c70 -88.667 164.333 -133 283 -133c118 0 212 44.333 282 133c70 89.333 105 209.333 105 360
c0 151.333 -35 271.666 -105 360.999s-164 134 -282 134s-212 -44.667 -282 -134z" />
    <glyph glyph-name="ohungarumlaut" unicode="&#x151;" horiz-adv-x="1201" 
d="M864 1573h252l-233 -310h-208zM494 1573h251l-233 -310h-208zM203 133c-97.333 101.333 -146.001 240.667 -146.001 418c0 175.333 49 314.333 147 417c98 101.333 230 152 396 152c166.667 0 298.667 -50.667 396 -152c98 -102 147 -241 147 -417
c0 -178 -48.667 -317.667 -146 -419c-96.667 -100.667 -229 -151 -397 -151c-167.333 0 -299.666 50.667 -396.999 152zM780.999 296.001c43.333 60.667 65.001 145.667 65.001 255c0 108 -22 192.667 -66 254c-43.333 60.667 -103.333 91 -180 91
c-77.333 0 -137.666 -30.333 -180.999 -91c-44 -61.333 -66 -146 -66 -254c0 -109.333 22 -194.333 66 -255c43.333 -60 103.666 -90 180.999 -90s137.666 30 180.999 90z" />
    <glyph glyph-name="OE" unicode="&#x152;" horiz-adv-x="2216" 
d="M493 1084c-70.667 -90.667 -105.999 -211.667 -105.999 -363c0 -150.667 35.333 -271 106 -361s165.667 -135 285 -135s214.333 45 285 135s106 210.333 106 361c0 151.333 -35.667 272.333 -107 363c-70.667 90 -165.334 135 -284.001 135s-213.667 -45 -285 -135z
M1202 236c-36 -80.667 -97.001 -145.333 -183.001 -194c-86.667 -49.333 -183 -74 -289 -74c-193.333 0 -350 69 -470 207c-120.667 139.333 -181 321.333 -181 546c0 226 60.667 408.333 182 547c120.667 138 278.334 207 473.001 207c106 0 200 -23.667 282 -71
s144 -114 186 -200v239h916v-249h-644v-348h606v-232h-606v-364h644v-250h-916v236z" />
    <glyph glyph-name="oe" unicode="&#x153;" horiz-adv-x="1944" 
d="M999 177h-13.999c-88.667 -130.667 -220.334 -196 -395.001 -196c-162.667 0 -292 51.333 -388 154c-96.667 102.667 -145 240.334 -145 413.001c0 173.333 48.333 312 145 416c96 104 224.333 156 385 156c176.667 0 309.334 -65.667 398.001 -197h14
c37.333 61.333 90.666 109.333 159.999 144c69.333 35.333 145.666 53 228.999 53c150 0 270.667 -50 362 -150c90.667 -100 136 -232.333 136 -397v-90h-750v-27c0 -76.667 23.667 -138.667 71 -186s109.333 -71 186 -71c54 0 100.333 11.333 139 34
c38.667 23.333 64 54.333 76 93h269c-15.333 -100.667 -67.666 -183.334 -156.999 -248.001s-196 -97 -320 -97c-187.333 0 -321 65.333 -401 196zM1601 664c-2.66699 72 -24.667 130 -66 174c-41.333 43.333 -95 65 -161 65c-66.667 0 -122 -22.333 -166 -67
c-44 -44 -68 -101.333 -72 -172h465zM411.001 301c42.667 -59.333 102.334 -89 179.001 -89c77.333 0 137.333 29.667 180 89c43.333 59.333 65 142.333 65 249s-21.667 190 -65 250s-103.333 90 -180 90s-136.334 -30.333 -179.001 -91c-43.333 -60 -65 -143.333 -65 -250
c0 -106 21.667 -188.667 65 -248z" />
    <glyph glyph-name="Racute" unicode="&#x154;" horiz-adv-x="1316" 
d="M496 1553l232 310h273l-277 -310h-228zM421 747h265c76 0 135.333 20.333 178 61c42 40.667 63 97 63 169c0 70 -22 126 -66 168c-44 41.333 -103.333 62 -178 62h-262v-460zM421 0l-302.001 -0.000976562v1443h596c164.667 0 293.334 -41 386.001 -123
c90.667 -81.333 136 -193.666 136 -336.999c0 -94 -23 -177.333 -69 -250c-46.667 -74.667 -111 -128 -193 -160l304 -573h-342l-269 528h-247v-528z" />
    <glyph glyph-name="racute" unicode="&#x155;" horiz-adv-x="759" 
d="M283 1263l221 310h273l-263 -310h-231zM98 1101l282 -0.000976562v-197h6c38 140 125.333 210 262 210c32.667 0 60 -3.66699 82 -11v-259c-26 12 -61 18 -105 18c-74 0 -131.667 -21.667 -173 -65s-62 -103.666 -62 -180.999v-616h-292v1101z" />
    <glyph glyph-name="uni0156" unicode="&#x156;" horiz-adv-x="1316" 
d="M421 747h265c76 0 135.333 20.333 178 61c42 40.667 63 97 63 169c0 70 -22 126 -66 168c-44 41.333 -103.333 62 -178 62h-262v-460zM421 0l-302.001 -0.000976562v1443h596c164.667 0 293.334 -41 386.001 -123c90.667 -81.333 136 -193.666 136 -336.999
c0 -94 -23 -177.333 -69 -250c-46.667 -74.667 -111 -128 -193 -160l304 -573h-342l-269 528h-247v-528zM375.999 -500.001l121 345h256l-160 -345h-217z" />
    <glyph glyph-name="uni0157" unicode="&#x157;" horiz-adv-x="759" 
d="M99 1101l282 -0.000976562v-197h6c38 140 125.333 210 262 210c32.667 0 60 -3.66699 82 -11v-259c-26 12 -61 18 -105 18c-74 0 -131.667 -21.667 -173 -65s-62 -103.666 -62 -180.999v-616h-292v1101zM8 -500.001l121 345h256l-160 -345h-217z" />
    <glyph glyph-name="Rcaron" unicode="&#x158;" horiz-adv-x="1316" 
d="M421 747h265c76 0 135.333 20.333 178 61c42 40.667 63 97 63 169c0 70 -22 126 -66 168c-44 41.333 -103.333 62 -178 62h-262v-460zM421 0l-302.001 -0.000976562v1443h596c164.667 0 293.334 -41 386.001 -123c90.667 -81.333 136 -193.666 136 -336.999
c0 -94 -23 -177.333 -69 -250c-46.667 -74.667 -111 -128 -193 -160l304 -573h-342l-269 528h-247v-528zM226.999 1861h222l163 -197h6l163 197h222l-274 -318h-228z" />
    <glyph glyph-name="rcaron" unicode="&#x159;" horiz-adv-x="759" 
d="M292 1253l-266 318h224l148 -188h7l149 188h223l-266 -318h-219zM98 1101l282 -0.000976562v-197h6c38 140 125.333 210 262 210c32.667 0 60 -3.66699 82 -11v-259c-26 12 -61 18 -105 18c-74 0 -131.667 -21.667 -173 -65s-62 -103.666 -62 -180.999v-616h-292v1101z
" />
    <glyph glyph-name="Sacute" unicode="&#x15a;" horiz-adv-x="1293" 
d="M534 1553l232 310h273l-277 -310h-228zM356 411c6.66699 -58.667 37.9971 -106.334 93.9971 -143.001c55.333 -36 123.333 -54 204 -54c80 0 145.333 17.333 196 52c50 34 75 77.667 75 131c0 46.667 -18.667 84.334 -56 113.001s-99.666 52.667 -186.999 72l-188 41
c-264.667 56.667 -397 191 -397 403c0 132 51.667 239 155 321c102.667 80.667 235 121 397 121c166.667 0 300 -39.667 400 -119c98.667 -78.667 149.334 -183.667 152.001 -315h-283c-4.66699 60.667 -31.667 108.667 -81 144c-48.667 34.667 -111 52 -187 52
c-74.667 0 -134.667 -16.333 -180 -49c-46 -32.667 -69 -75.667 -69 -129c0 -44 18.667 -80 56 -108c36.667 -26.667 96.667 -49.667 180 -69l175 -37c144.667 -30.667 250 -78.667 316 -144c66 -64.667 99 -152 99 -262c0 -140 -52.667 -251 -158 -333
c-105.333 -82.667 -247.666 -124 -426.999 -124c-174 0 -312.333 38.667 -415 116c-103.333 78 -157.333 184.667 -162 320h291z" />
    <glyph glyph-name="sacute" unicode="&#x15b;" horiz-adv-x="1078" 
d="M205 1026c84 62.667 195.667 93.998 335 93.998c136 0 245.667 -32 329 -96c83.333 -63.333 126 -147.666 128 -252.999h-270c-3.33301 43.333 -22 78 -56 104c-34 25.333 -79 38 -135 38c-52.667 0 -95 -10.667 -127 -32c-32 -22 -48 -50.667 -48 -86
c0 -54 49 -92.333 147 -115l207 -45c110.667 -25.333 189.667 -61 237 -107c48 -46 72 -110 72 -192c0 -106.667 -44.667 -192.667 -134 -258c-89.333 -64.667 -206.333 -97 -351 -97c-143.333 0 -259 32.333 -347 97c-86 62.667 -132.667 147.667 -140 255h285
c14.667 -96.667 84.667 -145 210 -145c58 0 103.667 10.667 137 32c33.333 20.667 50 49 50 85c0 28.667 -10.333 51.334 -31 68.001c-21.333 16.667 -57 31 -107 43l-203 46c-209.333 47.333 -314 152.333 -314 315c0 103.333 42 186.333 126 249zM423 1263l221 310h273
l-263 -310h-231z" />
    <glyph glyph-name="Scircumflex" unicode="&#x15c;" horiz-adv-x="1293" 
d="M356 411c6.66699 -58.667 37.9971 -106.334 93.9971 -143.001c55.333 -36 123.333 -54 204 -54c80 0 145.333 17.333 196 52c50 34 75 77.667 75 131c0 46.667 -18.667 84.334 -56 113.001s-99.666 52.667 -186.999 72l-188 41c-264.667 56.667 -397 191 -397 403
c0 132 51.667 239 155 321c102.667 80.667 235 121 397 121c166.667 0 300 -39.667 400 -119c98.667 -78.667 149.334 -183.667 152.001 -315h-283c-4.66699 60.667 -31.667 108.667 -81 144c-48.667 34.667 -111 52 -187 52c-74.667 0 -134.667 -16.333 -180 -49
c-46 -32.667 -69 -75.667 -69 -129c0 -44 18.667 -80 56 -108c36.667 -26.667 96.667 -49.667 180 -69l175 -37c144.667 -30.667 250 -78.667 316 -144c66 -64.667 99 -152 99 -262c0 -140 -52.667 -251 -158 -333c-105.333 -82.667 -247.666 -124 -426.999 -124
c-174 0 -312.333 38.667 -415 116c-103.333 78 -157.333 184.667 -162 320h291zM766.997 1861l274 -318h-222l-163 197h-6l-163 -197h-222l274 318h228z" />
    <glyph glyph-name="scircumflex" unicode="&#x15d;" horiz-adv-x="1078" 
d="M917 1253h-223l-149 189h-7l-148 -189h-224l266 318h219zM205 1026c84 62.667 195.667 93.998 335 93.998c136 0 245.667 -32 329 -96c83.333 -63.333 126 -147.666 128 -252.999h-270c-3.33301 43.333 -22 78 -56 104c-34 25.333 -79 38 -135 38
c-52.667 0 -95 -10.667 -127 -32c-32 -22 -48 -50.667 -48 -86c0 -54 49 -92.333 147 -115l207 -45c110.667 -25.333 189.667 -61 237 -107c48 -46 72 -110 72 -192c0 -106.667 -44.667 -192.667 -134 -258c-89.333 -64.667 -206.333 -97 -351 -97
c-143.333 0 -259 32.333 -347 97c-86 62.667 -132.667 147.667 -140 255h285c14.667 -96.667 84.667 -145 210 -145c58 0 103.667 10.667 137 32c33.333 20.667 50 49 50 85c0 28.667 -10.333 51.334 -31 68.001c-21.333 16.667 -57 31 -107 43l-203 46
c-209.333 47.333 -314 152.333 -314 315c0 103.333 42 186.333 126 249z" />
    <glyph glyph-name="Scedilla" unicode="&#x15e;" horiz-adv-x="1293" 
d="M812 838c144.667 -30.667 250 -78.667 316 -144c66 -64.667 99 -152 99 -262c0 -128 -44.667 -232.333 -134 -313c-88.667 -80 -210.334 -126.667 -365.001 -140l-40 -95c58.667 0 104 -14 136 -42c32.667 -27.333 49 -66.333 49 -117
c0 -57.333 -21.333 -102.666 -64 -135.999c-42.667 -32.667 -101.667 -49.334 -177 -50.001c-58.667 0 -105.334 5.33301 -140.001 16v120c26.667 -9.33301 63.667 -14 111 -14c71.333 0 107 18.333 107 55c0 20.667 -9.66699 35 -29 43c-18.667 8.66699 -50.667 13 -96 13
h-56v101l47 104c-155.333 10 -278 53.333 -368 130c-91.333 76.667 -139 178 -143 304h291c6.66699 -58.667 38 -106.334 94 -143.001c55.333 -36 123.333 -54 204 -54c80 0 145.333 17.333 196 52c50 34 75 77.667 75 131c0 46.667 -18.667 84.334 -56 113.001
s-99.666 52.667 -186.999 72l-188 41c-264.667 56.667 -397 191 -397 403c0 132 51.667 239 155 321c102.667 80.667 235 121 397 121c166.667 0 300 -39.667 400 -119c98.667 -78.667 149.334 -183.667 152.001 -315h-283c-4.66699 60.667 -31.667 108.667 -81 144
c-48.667 34.667 -111 52 -187 52c-74.667 0 -134.667 -16.333 -180 -49c-46 -32.667 -69 -75.667 -69 -129c0 -44 18.667 -80 56 -108c36.667 -26.667 96.667 -49.667 180 -69z" />
    <glyph glyph-name="scedilla" unicode="&#x15f;" horiz-adv-x="1078" 
d="M715 635c110.667 -25.333 189.667 -61.001 237 -107.001c48 -46 72 -110 72 -192c0 -96 -36.667 -175.333 -110 -238c-72.667 -62.667 -170 -100.334 -292 -113.001l-43 -101c58.667 0 104 -14 136 -42c32.667 -27.333 49 -66.333 49 -117
c0 -57.333 -21.333 -102.666 -64 -135.999c-42.667 -32.667 -101.667 -49.334 -177 -50.001c-58.667 0 -105.334 5.33301 -140.001 16v120c26.667 -9.33301 63.667 -14 111 -14c71.333 0 107 18.333 107 55c0 20.667 -9.66699 35 -29 43c-18.667 8.66699 -50.667 13 -96 13
h-56v101l50 111c-124 10 -223 46.333 -297 109c-73.333 62 -113.666 142 -120.999 240h285c14.667 -96.667 84.667 -145 210 -145c58 0 103.667 10.667 137 32c33.333 20.667 50 49 50 85c0 28.667 -10.333 51.334 -31 68.001c-21.333 16.667 -57 31 -107 43l-203 46
c-209.333 47.333 -314 152.333 -314 315c0 103.333 42 186.333 126 249s195.667 94 335 94c136 0 245.667 -32 329 -96c83.333 -63.333 126 -147.666 128 -252.999h-270c-3.33301 43.333 -22 78 -56 104c-34 25.333 -79 38 -135 38c-52.667 0 -95 -10.667 -127 -32
c-32 -22 -48 -50.667 -48 -86c0 -54 49 -92.333 147 -115z" />
    <glyph glyph-name="Scaron" unicode="&#x160;" horiz-adv-x="1293" 
d="M356 411c6.66699 -58.667 37.9971 -106.334 93.9971 -143.001c55.333 -36 123.333 -54 204 -54c80 0 145.333 17.333 196 52c50 34 75 77.667 75 131c0 46.667 -18.667 84.334 -56 113.001s-99.666 52.667 -186.999 72l-188 41c-264.667 56.667 -397 191 -397 403
c0 132 51.667 239 155 321c102.667 80.667 235 121 397 121c166.667 0 300 -39.667 400 -119c98.667 -78.667 149.334 -183.667 152.001 -315h-283c-4.66699 60.667 -31.667 108.667 -81 144c-48.667 34.667 -111 52 -187 52c-74.667 0 -134.667 -16.333 -180 -49
c-46 -32.667 -69 -75.667 -69 -129c0 -44 18.667 -80 56 -108c36.667 -26.667 96.667 -49.667 180 -69l175 -37c144.667 -30.667 250 -78.667 316 -144c66 -64.667 99 -152 99 -262c0 -140 -52.667 -251 -158 -333c-105.333 -82.667 -247.666 -124 -426.999 -124
c-174 0 -312.333 38.667 -415 116c-103.333 78 -157.333 184.667 -162 320h291zM264.997 1861h222l163 -197h6l163 197h222l-274 -318h-228z" />
    <glyph glyph-name="scaron" unicode="&#x161;" horiz-adv-x="1078" 
d="M432 1253l-266 318h224l148 -188h7l149 188h223l-266 -318h-219zM205 1026c84 62.667 195.667 93.998 335 93.998c136 0 245.667 -32 329 -96c83.333 -63.333 126 -147.666 128 -252.999h-270c-3.33301 43.333 -22 78 -56 104c-34 25.333 -79 38 -135 38
c-52.667 0 -95 -10.667 -127 -32c-32 -22 -48 -50.667 -48 -86c0 -54 49 -92.333 147 -115l207 -45c110.667 -25.333 189.667 -61 237 -107c48 -46 72 -110 72 -192c0 -106.667 -44.667 -192.667 -134 -258c-89.333 -64.667 -206.333 -97 -351 -97
c-143.333 0 -259 32.333 -347 97c-86 62.667 -132.667 147.667 -140 255h285c14.667 -96.667 84.667 -145 210 -145c58 0 103.667 10.667 137 32c33.333 20.667 50 49 50 85c0 28.667 -10.333 51.334 -31 68.001c-21.333 16.667 -57 31 -107 43l-203 46
c-209.333 47.333 -314 152.333 -314 315c0 103.333 42 186.333 126 249z" />
    <glyph glyph-name="uni0162" unicode="&#x162;" horiz-adv-x="1242" 
d="M712 0l-48.999 -116c58.667 0 104 -14 136 -42c32.667 -27.333 49 -66.333 49 -117c0 -57.333 -21.333 -102.666 -64 -135.999c-42.667 -32.667 -101.667 -49.334 -177 -50.001c-58.667 0 -105.334 5.33301 -140.001 16v120c26.667 -9.33301 63.667 -14 111 -14
c71.333 0 107 18.333 107 55c0 20.667 -9.66699 35 -29 43c-18.667 8.66699 -50.667 13 -96 13h-56v101l58 127h-93v1194h-422v249h1147v-249h-423v-1194h-59z" />
    <glyph glyph-name="uni0163" unicode="&#x163;" horiz-adv-x="741" 
d="M468 880l0.000976562 -535c0 -84 43.667 -126 131 -126c28.667 0 53 1.66699 73 5v-216c-40 -8 -87 -12 -141 -12h-8l-47 -112c58.667 0 104 -14 136 -42c32.667 -27.333 49 -66.333 49 -117c0 -57.333 -21.333 -102.666 -64 -135.999
c-42.667 -32.667 -101.667 -49.334 -177 -50.001c-58.667 0 -105.334 5.33301 -140.001 16v120c26.667 -9.33301 63.667 -14 111 -14c71.333 0 107 18.333 107 55c0 20.667 -9.66699 35 -29 43c-18.667 8.66699 -50.667 13 -96 13h-56v101l62 137
c-71.333 16 -123 47 -155 93c-32 45.333 -48 110 -48 194v583h-149v221h149v245h292v-245h204v-221h-204z" />
    <glyph glyph-name="Tcaron" unicode="&#x164;" horiz-adv-x="1242" 
d="M232 1861h222l163 -197h6l163 197h222l-274 -318h-228zM469 0v1194h-422v249h1147v-249h-423v-1194h-302z" />
    <glyph glyph-name="tcaron" unicode="&#x165;" horiz-adv-x="835" 
d="M834 1744l-40 -503h-177v503h217zM468 1346v-245h204v-221h-204v-535c0 -84 43.667 -126 131 -126c28.667 0 53 1.66699 73 5v-216c-40 -8 -87 -12 -141 -12c-127.333 0 -218.333 23.333 -273 70s-82 123.667 -82 231v583h-149v221h149v245h292z" />
    <glyph glyph-name="Tbar" unicode="&#x166;" horiz-adv-x="1298" 
d="M781 1194v-394h301v-211h-301v-589h-302v589h-265v211h265v394h-422v249h1147v-249h-423z" />
    <glyph glyph-name="tbar" unicode="&#x167;" horiz-adv-x="792" 
d="M468 493v-148c0 -84 43.667 -126 131 -126c28.667 0 53 1.66699 73 5v-216c-40 -8 -87 -12 -141 -12c-127.333 0 -218.333 23.333 -273 70s-82 123.667 -82 231v196h-139v160h139v227h-149v221h149v245h292v-245h204v-221h-204v-227h232v-160h-232z" />
    <glyph glyph-name="Utilde" unicode="&#x168;" horiz-adv-x="1449" 
d="M421 540c0 -94 26.334 -168 79.001 -222c53.333 -56 128 -84 224 -84c95.333 0 169.666 28 222.999 84c52.667 54 79 128 79 222v903h302v-933c0 -160 -54.667 -289 -164 -387c-110 -98.667 -256.667 -148 -440 -148c-184 0 -331 49.333 -441 148
c-109.333 98 -164 227 -164 387v933h302v-903zM711.001 1609c-50.667 45.333 -85.665 68 -104.998 68c-44.667 0 -67.667 -39.667 -69 -119h-158c0 84 20.333 150.667 61 200c39.333 47.333 90.666 71 153.999 71c53.333 0 105.666 -22.333 156.999 -67
c51.333 -45.333 86 -68 104 -68c42 0 63.667 40.667 65 122h158c0 -83.333 -20.667 -150.333 -62 -201c-39.333 -49.333 -90 -74 -152 -74c-50.667 0 -101.667 22.667 -153 68z" />
    <glyph glyph-name="utilde" unicode="&#x169;" horiz-adv-x="1227" 
d="M1127 0h-282.001v199h-6c-58 -143.333 -173.333 -215 -346 -215c-120.667 0 -217 36.667 -289 110c-74 74 -111 174.333 -111 301v706h292v-645c0 -73.333 19.667 -130 59 -170c38 -39.333 91.333 -59 160 -59s124.334 22.667 167.001 68s64 105 64 179v627h292v-1101z
M599.999 1326c-50.667 45.333 -85.665 68 -104.998 68c-44.667 0 -67.667 -39.667 -69 -119h-158c0 84 20.333 150.667 61 200c39.333 47.333 90.666 71 153.999 71c53.333 0 105.666 -22.333 156.999 -67c51.333 -45.333 86 -68 104 -68c42 0 63.667 40.667 65 122h158
c0 -83.333 -20.667 -150.333 -62 -201c-39.333 -49.333 -90 -74 -152 -74c-50.667 0 -101.667 22.667 -153 68z" />
    <glyph glyph-name="Umacron" unicode="&#x16a;" horiz-adv-x="1449" 
d="M421 540c0 -94 26.334 -168 79.001 -222c53.333 -56 128 -84 224 -84c95.333 0 169.666 28 222.999 84c52.667 54 79 128 79 222v903h302v-933c0 -160 -54.667 -289 -164 -387c-110 -98.667 -256.667 -148 -440 -148c-184 0 -331 49.333 -441 148
c-109.333 98 -164 227 -164 387v933h302v-903zM1070 1624h-692v143h692v-143z" />
    <glyph glyph-name="umacron" unicode="&#x16b;" horiz-adv-x="1227" 
d="M1127 0h-282.001v199h-6c-58 -143.333 -173.333 -215 -346 -215c-120.667 0 -217 36.667 -289 110c-74 74 -111 174.333 -111 301v706h292v-645c0 -73.333 19.667 -130 59 -170c38 -39.333 91.333 -59 160 -59s124.334 22.667 167.001 68s64 105 64 179v627h292v-1101z
M945.999 1298h-669v143h669v-143z" />
    <glyph glyph-name="Ubreve" unicode="&#x16c;" horiz-adv-x="1449" 
d="M421 540c0 -94 26.334 -168 79.001 -222c53.333 -56 128 -84 224 -84c95.333 0 169.666 28 222.999 84c52.667 54 79 128 79 222v903h302v-933c0 -160 -54.667 -289 -164 -387c-110 -98.667 -256.667 -148 -440 -148c-184 0 -331 49.333 -441 148
c-109.333 98 -164 227 -164 387v933h302v-903zM549.001 1860c1.33301 -50 17.6699 -91 49.0029 -123c32.667 -32.667 74.667 -49 126 -49s93.333 16.333 126 49c31.333 32 47.666 73 48.999 123h178c-1.33301 -91.333 -33.333 -166.333 -96 -225
c-64.667 -61.333 -150.334 -92 -257.001 -92s-192.334 30.667 -257.001 92c-62.667 58.667 -94.667 133.667 -96 225h178z" />
    <glyph glyph-name="ubreve" unicode="&#x16d;" horiz-adv-x="1227" 
d="M1127 0h-282.001v199h-6c-58 -143.333 -173.333 -215 -346 -215c-120.667 0 -217 36.667 -289 110c-74 74 -111 174.333 -111 301v706h292v-645c0 -73.333 19.667 -130 59 -170c38 -39.333 91.333 -59 160 -59s124.334 22.667 167.001 68s64 105 64 179v627h292v-1101z
M430.999 1570c1.33301 -50.667 18.3311 -92.334 50.998 -125.001c33.333 -33.333 76 -50 128 -50c52.667 0 95.667 16.667 129 50c32 32.667 48.667 74.334 50 125.001h180c-1.33301 -93.333 -33.666 -169.666 -96.999 -228.999c-66 -62 -153.333 -93 -262 -93
c-108 0 -195 31 -261 93c-63.333 59.333 -95.666 135.666 -96.999 228.999h179z" />
    <glyph glyph-name="Uring" unicode="&#x16e;" horiz-adv-x="1449" 
d="M569 1577c-44 42.667 -66 93.667 -66 153s22 110.333 66 153c43.333 42.667 95 64 155 64c60.667 0 112.667 -21.333 156 -64s65 -93.667 65 -153s-21.667 -110.333 -65 -153s-95.333 -64 -156 -64c-60 0 -111.667 21.333 -155 64zM796 1659c20 20 30 43.667 30 71
s-10 51 -30 71s-44 30 -72 30c-27.333 0 -51.333 -10 -72 -30c-20 -20 -30 -43.667 -30 -71s10 -51 30 -71c20.667 -19.333 44.667 -29 72 -29c28 0 52 9.66699 72 29zM421 540c0 -94 26.334 -168 79.001 -222c53.333 -56 128 -84 224 -84c95.333 0 169.666 28 222.999 84
c52.667 54 79 128 79 222v903h302v-933c0 -160 -54.667 -289 -164 -387c-110 -98.667 -256.667 -148 -440 -148c-184 0 -331 49.333 -441 148c-109.333 98 -164 227 -164 387v933h302v-903z" />
    <glyph glyph-name="uring" unicode="&#x16f;" horiz-adv-x="1227" 
d="M1127 0h-282.001v199h-6c-58 -143.333 -173.333 -215 -346 -215c-120.667 0 -217 36.667 -289 110c-74 74 -111 174.333 -111 301v706h292v-645c0 -73.333 19.667 -130 59 -170c38 -39.333 91.333 -59 160 -59s124.334 22.667 167.001 68s64 105 64 179v627h292v-1101z
M455.999 1274c-44 42.667 -66 93.667 -66 153s22 110.333 66 153c43.333 42.667 95 64 155 64c60.667 0 112.667 -21.333 156 -64s65 -93.667 65 -153s-21.667 -110.333 -65 -153s-95.333 -64 -156 -64c-60 0 -111.667 21.333 -155 64zM682.999 1356c20 20 30 43.667 30 71
s-10 51 -30 71s-44 30 -72 30c-27.333 0 -51.333 -10 -72 -30c-20 -20 -30 -43.667 -30 -71s10 -51 30 -71c20.667 -19.333 44.667 -29 72 -29c28 0 52 9.66699 72 29z" />
    <glyph glyph-name="Uhungarumlaut" unicode="&#x170;" horiz-adv-x="1449" 
d="M421 540c0 -94 26.334 -168 79.001 -222c53.333 -56 128 -84 224 -84c95.333 0 169.666 28 222.999 84c52.667 54 79 128 79 222v903h302v-933c0 -160 -54.667 -289 -164 -387c-110 -98.667 -256.667 -148 -440 -148c-184 0 -331 49.333 -441 148
c-109.333 98 -164 227 -164 387v933h302v-903zM807.001 1553l232 310h268l-278 -310h-222zM412.001 1553l231 310h269l-278 -310h-222z" />
    <glyph glyph-name="uhungarumlaut" unicode="&#x171;" horiz-adv-x="1227" 
d="M875 1573h252l-233 -310h-208zM505 1573h251l-233 -310h-208zM1127 0h-282.001v199h-6c-58 -143.333 -173.333 -215 -346 -215c-120.667 0 -217 36.667 -289 110c-74 74 -111 174.333 -111 301v706h292v-645c0 -73.333 19.667 -130 59 -170
c38 -39.333 91.333 -59 160 -59s124.334 22.667 167.001 68s64 105 64 179v627h292v-1101z" />
    <glyph glyph-name="Uogonek" unicode="&#x172;" horiz-adv-x="1449" 
d="M766 -398c-46 38.667 -68.999 89 -68.999 151c0 89.333 41.333 166.333 124 231v2c-25.333 -7.33301 -57.666 -11 -96.999 -11c-182.667 0 -329 48.667 -439 146c-110.667 98 -166 227.667 -166 389v933h302v-903c0 -95.333 27 -170.333 81 -225c54 -54 128 -81 222 -81
s168 27 222 81c53.333 54.667 80 129.667 80 225v903h302v-933c0 -170.667 -72.333 -315.667 -217 -435c-100.667 -82 -150.334 -122.667 -149.001 -122c-45.333 -44 -68 -90 -68 -138c0 -30 11 -54.667 33 -74s50.333 -29 85 -29c22.667 0 45.667 2.33301 69 7v-155
c-36.667 -13.333 -81.334 -20 -134.001 -20c-74.667 0 -135 19.333 -181 58z" />
    <glyph glyph-name="uogonek" unicode="&#x173;" horiz-adv-x="1227" 
d="M1127 -436c-32.667 -11.333 -73.334 -17 -122.001 -17c-73.333 0 -133 20.333 -179 61c-46 41.333 -69 94.666 -69 159.999c0 100 53.333 181.333 160 244h-72v187h-6c-58 -143.333 -173.333 -215 -346 -215c-121.333 0 -218.333 37.333 -291 112
s-109 174.334 -109 299.001v706h292v-645c0 -72.667 19.333 -129 58 -169c38 -40 91.667 -60 161 -60c68.667 0 124.334 22.667 167.001 68c42.667 46 64 105.667 64 179v627h292v-1091h-29c-96 -48.667 -144 -111 -144 -187c0 -32.667 10.667 -59 32 -79s49 -30 83 -30
c18.667 0 38 1.66699 58 5v-155z" />
    <glyph glyph-name="Wcircumflex" unicode="&#x174;" horiz-adv-x="1977" 
d="M1102 1861l274 -318h-222l-163 197h-6l-163 -197h-222l274 318h228zM709 0h-285l-382 1443h313l227 -1045h8l270 1045h255l270 -1045h8l228 1045h313l-383 -1443h-285l-274 986h-9z" />
    <glyph glyph-name="wcircumflex" unicode="&#x175;" horiz-adv-x="1654" 
d="M1201 1253h-223l-149 189h-7l-148 -189h-224l266 318h219zM1340 0h-310l-203 784h-6l-201 -784h-307l-294 1101h294l170 -822h6l199 822h280l200 -822h6l171 822h288z" />
    <glyph glyph-name="Ycircumflex" unicode="&#x176;" horiz-adv-x="1362" 
d="M529 0v539l-502 904h329l323 -616h7l324 616h324l-503 -904v-539h-302zM794 1861l274 -318h-222l-163 197h-6l-163 -197h-222l274 318h228z" />
    <glyph glyph-name="ycircumflex" unicode="&#x177;" horiz-adv-x="1136" 
d="M128 -398v226c10 -2 32 -3 66 -3c108 0 173 42 195 126l10 42l-386 1108h320l238 -864h6l239 864h308l-381 -1123c-46.667 -140 -108 -238.333 -184 -295c-75.333 -56.667 -182 -85 -320 -85c-59.333 0 -96.333 1.33301 -111 4zM944 1253h-223l-149 189h-7l-148 -189
h-224l266 318h219z" />
    <glyph glyph-name="Ydieresis" unicode="&#x178;" horiz-adv-x="1362" 
d="M529 0v539l-502 904h329l323 -616h7l324 616h324l-503 -904v-539h-302zM375 1600c-26 25.333 -39 56 -39 92s13 67 39 93c26 25.333 58 38 96 38s70 -12.667 96 -38c26 -26 39 -57 39 -93s-13 -66.667 -39 -92c-26 -26 -58 -39 -96 -39s-70 13 -96 39zM794 1600
c-26 25.333 -39 56 -39 92s13 67 39 93c26 25.333 58 38 96 38s70 -12.667 96 -38c26 -26 39 -57 39 -93s-13 -66.667 -39 -92c-26 -26 -58 -39 -96 -39s-70 13 -96 39z" />
    <glyph glyph-name="Zacute" unicode="&#x179;" horiz-adv-x="1292" 
d="M526 1553l232 310h273l-277 -310h-228zM88 197l733 989v8h-716v249h1077v-196l-730 -990v-7h750v-250h-1114v197z" />
    <glyph glyph-name="zacute" unicode="&#x17a;" horiz-adv-x="1059" 
d="M410 1263l221 310h273l-263 -310h-231zM77 168l553 704v5h-545v224h883v-186l-521 -685v-6h534v-224h-904v168z" />
    <glyph glyph-name="Zdotaccent" unicode="&#x17b;" horiz-adv-x="1292" 
d="M539 1605c-28.667 28.667 -43 63.667 -43 105s14.333 76.333 43 105s64 43 106 43s77.333 -14.333 106 -43s43 -63.667 43 -105s-14.333 -76.333 -43 -105c-28.667 -29.333 -64 -44 -106 -44s-77.333 14.667 -106 44zM88 197l733 989v8h-716v249h1077v-196l-730 -990v-7
h750v-250h-1114v197z" />
    <glyph glyph-name="zdotaccent" unicode="&#x17c;" horiz-adv-x="1059" 
d="M421 1307c-29.333 28.667 -44 63.334 -44 104.001c0 41.333 14.667 76.333 44 105c29.333 29.333 65 44 107 44s77.667 -14.667 107 -44c28.667 -28.667 43 -63.667 43 -105c0 -40.667 -14.333 -75.334 -43 -104.001c-29.333 -29.333 -65 -44 -107 -44
s-77.667 14.667 -107 44zM77 168l553 704v5h-545v224h883v-186l-521 -685v-6h534v-224h-904v168z" />
    <glyph glyph-name="Zcaron" unicode="&#x17d;" horiz-adv-x="1292" 
d="M88 197l733 989v8h-716v249h1077v-196l-730 -990v-7h750v-250h-1114v197zM257 1861h222l163 -197h6l163 197h222l-274 -318h-228z" />
    <glyph glyph-name="zcaron" unicode="&#x17e;" horiz-adv-x="1059" 
d="M419 1253l-266 318h224l148 -188h7l149 188h223l-266 -318h-219zM77 168l553 704v5h-545v224h883v-186l-521 -685v-6h534v-224h-904v168z" />
    <glyph glyph-name="florin" unicode="&#x192;" horiz-adv-x="1326" 
d="M1259 1190c-49.333 24 -105.667 36 -169 36c-132.667 0 -209.334 -66 -230.001 -198l-24 -156h350v-210h-382l-43 -278c-42.667 -272 -202.334 -408 -479.001 -408c-89.333 0 -161.333 13.333 -216 40v239c52.667 -28.667 112.334 -43 179.001 -43s117 16 151 48
s56.667 84.333 68 157l38 245h-318v210h350l29 187c21.333 136.667 72 237.667 152 303c80.667 65.333 194.334 98 341.001 98c84 0 151.667 -12 203 -36v-234z" />
    <glyph glyph-name="Ohorn" unicode="&#x1a0;" horiz-adv-x="1593" 
d="M488 1082c-70.667 -89.333 -106 -209.666 -106 -360.999c0 -150.667 35 -270.667 105 -360c70 -88.667 164.333 -133 283 -133c118 0 212 44.333 282 133c70 89.333 105 209.333 105 360c0 151.333 -35 271.666 -105 360.999s-164 134 -282 134s-212 -44.667 -282 -134z
M1277 176c-126 -134 -295.334 -201 -508.001 -201c-213.333 0 -382.333 67.333 -507 202c-125.333 134.667 -188 316.334 -188 545.001s62 410 186 544c124 134.667 291.667 202 503 202c108 0 213.333 -23.667 316 -71c102 -47.333 167.667 -71 197 -71
c62 0 93 42.667 93 128v181h231v-270c0 -68 -15.333 -122 -46 -162s-71.667 -60 -123 -60c-27.333 0 -47.666 3.33301 -60.999 10l-4 -5c66.667 -122.667 100 -266.334 100 -431.001c0 -226.667 -63 -407 -189 -541z" />
    <glyph glyph-name="ohorn" unicode="&#x1a1;" horiz-adv-x="1326" 
d="M781 297c43.333 60.667 65 145.333 65 254c0 108 -21.667 192.667 -65 254c-43.333 60.667 -103.666 91 -180.999 91c-76.667 0 -137 -30.667 -181 -92s-66 -145.666 -66 -252.999c0 -108.667 21.667 -193.334 65 -254.001c44 -60.667 104.667 -91 182 -91
s137.666 30.333 180.999 91zM998 131.999c-97.333 -100.667 -230.667 -151 -400 -151c-166.667 0 -298.667 50.667 -396 152c-96.667 101.333 -145 239 -145 413c0 174.667 48 314 144 418c96.667 104 225.667 156 387 156c100.667 0 196.667 -24.667 288 -74
c91.333 -50 147 -75 167 -75c60.667 0 91 43 91 129v144h222v-201c0 -81.333 -20.667 -146.333 -62 -195c-42 -48 -98 -72 -168 -72c-4 0 -10 0.666992 -18 2l-3 -2c-1.33301 -2 -2.33301 -3 -3 -3c27.333 -70 41 -145.667 41 -227c0 -175.333 -48.333 -313.333 -145 -414z
" />
    <glyph glyph-name="Uhorn" unicode="&#x1af;" horiz-adv-x="1657" 
d="M1330 1389c28 -14.667 54.666 -19.998 79.999 -15.998c46.667 4 70 45 70 123v147h223v-204c0 -86.667 -23.667 -154.334 -71 -203.001c-47.333 -49.333 -112.666 -74 -195.999 -74c-53.333 0 -89.333 7.33301 -108 22v-674c0 -161.333 -55 -291 -165 -389
c-110 -97.333 -256.333 -146 -439 -146s-329 48.667 -439 146c-110.667 98 -166 227.667 -166 389v933h302v-903c0 -94.667 27 -169.334 81 -224.001c54 -54 128 -81 222 -81s168 27 222 81c53.333 54 80 128.667 80 224v903h304v-54z" />
    <glyph glyph-name="uhorn" unicode="&#x1b0;" horiz-adv-x="1465" 
d="M839 199c-58 -143.333 -173.334 -215.001 -346.001 -215.001c-121.333 0 -218.333 37.333 -291 112s-109 174.334 -109 299.001v706h292v-645c0 -72.667 19 -129 57 -169c38.667 -40 92.667 -60 162 -60c68.667 0 124.334 22.667 167.001 68c42.667 46 64 105.667 64 179
v627h292v-50c30 -11.333 56 -14.333 78 -9c24.667 2.66699 42 13 52 31c10.667 18 16 47.667 16 89v147h222v-200c0 -89.333 -22 -158.333 -66 -207c-44 -48 -106.667 -72 -188 -72c-56.667 0 -94.667 6.33301 -114 19v-849h-282v199h-6z" />
    <glyph glyph-name="uni01C4" unicode="&#x1c4;" horiz-adv-x="2730" 
d="M675 1443c217.333 0 386.001 -62 506.001 -186c121.333 -125.333 182 -302 182 -530c0 -228.667 -60.667 -407 -182 -535c-120.667 -128 -289.334 -192 -506.001 -192h-556v1443h556zM421.001 250h218c135.333 0 238.333 40.333 309 121
c71.333 81.333 107 199.666 107 354.999c0 150.667 -36 266.334 -108 347.001s-174.667 121 -308 121h-218v-944zM1526 197l733 989v8h-716v249h1077v-196l-730 -990v-7h750v-250h-1114v197zM1695 1861h222l163 -197h6l163 197h222l-274 -318h-228z" />
    <glyph glyph-name="uni01C5" unicode="&#x1c5;" horiz-adv-x="2497" 
d="M675 1443c217.333 0 386.001 -62 506.001 -186c121.333 -125.333 182 -302 182 -530c0 -228.667 -60.667 -407 -182 -535c-120.667 -128 -289.334 -192 -506.001 -192h-556v1443h556zM421.001 250h218c135.333 0 238.333 40.333 309 121
c71.333 81.333 107 199.666 107 354.999c0 150.667 -36 266.334 -108 347.001s-174.667 121 -308 121h-218v-944zM1857 1253l-266 318h224l148 -188h7l149 188h223l-266 -318h-219zM1515 168l553 704v5h-545v224h883v-186l-521 -685v-6h534v-224h-904v168z" />
    <glyph glyph-name="uni01C6" unicode="&#x1c6;" horiz-adv-x="2308" 
d="M180 139c-82 102 -123.001 239.667 -123.001 413c0 172 41 308.667 123 410s191.667 152 329 152c78.667 0 148 -18.333 208 -55c58 -35.333 101 -84 129 -146h6v599h292v-1512h-288v188h-5c-27.333 -61.333 -71 -110 -131 -146c-61.333 -36.667 -132 -55 -212 -55
c-137.333 0 -246.666 50.667 -327.999 152zM423.999 790c-45.333 -59.333 -68 -138.999 -68 -238.999c0 -100.667 22.667 -180.667 68 -240c44.667 -58.667 105 -88 181 -88c75.333 0 135.666 29.667 180.999 89s68 138.666 68 237.999s-22.667 179 -68 239
c-45.333 59.333 -105.666 89 -180.999 89c-76 0 -136.333 -29.333 -181 -88zM1668 1253l-266 318h224l148 -188h7l149 188h223l-266 -318h-219zM1326 168.001l553 704v5h-545v224h883v-186l-521 -685v-6h534v-224h-904v168z" />
    <glyph glyph-name="uni01C7" unicode="&#x1c7;" horiz-adv-x="2255" 
d="M1435 425c1.33301 -58.667 19.332 -105.666 53.999 -140.999c35.333 -35.333 81.333 -53 138 -53c129.333 0 194 74.333 194 223v989h302v-991c0 -152.667 -43.667 -271.334 -131 -356.001c-86 -84 -206.667 -126 -362 -126c-147.333 0 -265.666 41.333 -354.999 124
c-88.667 82.667 -133 193 -133 331h293zM1052 0.000976562h-933v1443h302v-1193h631v-250z" />
    <glyph glyph-name="uni01C8" unicode="&#x1c8;" horiz-adv-x="1612" 
d="M1507 -37c0 -226 -130.333 -339 -391 -339c-40 0 -66 1 -78 3v216c4 -0.666992 16.333 -1 37 -1c50.667 0 86.667 10 108 30c21.333 19.333 32 52 32 98v1131h292v-1138zM1250 1265c-30.667 29.333 -46 65.666 -46 108.999s15.333 79.666 46 108.999
c30.667 28.667 67.667 43 111 43c44 0 81.333 -14.333 112 -43c30.667 -29.333 46 -65.666 46 -108.999s-15.333 -79.666 -46 -108.999s-68 -44 -112 -44c-43.333 0 -80.333 14.667 -111 44zM1052 0h-933v1443h302v-1193h631v-250z" />
    <glyph glyph-name="uni01C9" unicode="&#x1c9;" horiz-adv-x="1005" 
d="M900 -37c0 -226 -130.333 -339 -391 -339c-40 0 -66 1 -78 3v216c4 -0.666992 16.333 -1 37 -1c50.667 0 86.667 10 108 30c21.333 19.333 32 52 32 98v1131h292v-1138zM643 1265c-30.667 29.333 -46 65.666 -46 108.999s15.333 79.666 46 108.999
c30.667 28.667 67.667 43 111 43c44 0 81.333 -14.333 112 -43c30.667 -29.333 46 -65.666 46 -108.999s-15.333 -79.666 -46 -108.999s-68 -44 -112 -44c-43.333 0 -80.333 14.667 -111 44zM106 1512h292v-1512h-292v1512z" />
    <glyph glyph-name="uni01CA" unicode="&#x1ca;" horiz-adv-x="2606" 
d="M1786 425c1.33301 -58.667 19.332 -105.666 53.999 -140.999c35.333 -35.333 81.333 -53 138 -53c129.333 0 194 74.333 194 223v989h302v-991c0 -152.667 -43.667 -271.334 -131 -356.001c-86 -84 -206.667 -126 -362 -126c-147.333 0 -265.666 41.333 -354.999 124
c-88.667 82.667 -133 193 -133 331h293zM118.999 0.000976562v1443h252l674 -940h8v940h289v-1443h-250l-675 945h-9v-945h-289z" />
    <glyph glyph-name="uni01CB" unicode="&#x1cb;" horiz-adv-x="1963" 
d="M1858 -37c0 -226 -130.333 -339 -391 -339c-40 0 -66 1 -78 3v216c4 -0.666992 16.333 -1 37 -1c50.667 0 86.667 10 108 30c21.333 19.333 32 52 32 98v1131h292v-1138zM1601 1265c-30.667 29.333 -46 65.666 -46 108.999s15.333 79.666 46 108.999
c30.667 28.667 67.667 43 111 43c44 0 81.333 -14.333 112 -43c30.667 -29.333 46 -65.666 46 -108.999s-15.333 -79.666 -46 -108.999s-68 -44 -112 -44c-43.333 0 -80.333 14.667 -111 44zM119 0v1443h252l674 -940h8v940h289v-1443h-250l-675 945h-9v-945h-289z" />
    <glyph glyph-name="uni01CC" unicode="&#x1cc;" horiz-adv-x="1727" 
d="M1622 -37c0 -226 -130.333 -339 -391 -339c-40 0 -66 1 -78 3v216c4 -0.666992 16.333 -1 37 -1c50.667 0 86.667 10 108 30c21.333 19.333 32 52 32 98v1131h292v-1138zM1365 1265c-30.667 29.333 -46 65.666 -46 108.999s15.333 79.666 46 108.999
c30.667 28.667 67.667 43 111 43c44 0 81.333 -14.333 112 -43c30.667 -29.333 46 -65.666 46 -108.999s-15.333 -79.666 -46 -108.999s-68 -44 -112 -44c-43.333 0 -80.333 14.667 -111 44zM98 1101l282 0.000976562v-197h6c64.667 142 182.667 213 354 213
c122 0 218 -36.333 288 -109c69.333 -72.667 104 -173.334 104 -302.001v-706h-292v645c0 73.333 -18.667 129.666 -56 168.999c-38 40 -91.333 60 -160 60c-70 0 -126.333 -22.667 -169 -68c-43.333 -45.333 -65 -104.666 -65 -177.999v-628h-292v1101z" />
    <glyph glyph-name="uni01CD" unicode="&#x1cd;" horiz-adv-x="1413" 
d="M954 350h-507l-110 -350h-310l501 1443h355l502 -1443h-321zM512 576h377l-185 591h-7zM318 1861h222l163 -197h6l163 197h222l-274 -318h-228z" />
    <glyph glyph-name="uni01CE" unicode="&#x1ce;" horiz-adv-x="1147" 
d="M691 257c47.333 38.667 71.001 87.667 71.001 147v81l-231 -16c-124.667 -8 -187 -53.667 -187 -137c0 -40.667 16 -72.667 48 -96c31.333 -24 73.666 -36 126.999 -36c68.667 0 126 19 172 57zM159.001 78c-70.667 62 -105.998 141.668 -105.998 239.001
c0 99.333 37.333 177.333 112 234c73.333 55.333 180.666 87.333 321.999 96l275 17v73c0 52.667 -17 93.334 -51 122.001c-34 28 -81.333 42 -142 42c-52 0 -95.667 -12.667 -131 -38c-34.667 -24.667 -55.667 -57.334 -63 -98.001h-267
c4 105.333 49.333 190.666 136 255.999c87.333 66 199.666 99 336.999 99c141.333 0 254.666 -33.333 339.999 -100s128 -155 128 -265v-755h-282v170h-6c-29.333 -56.667 -75.333 -101.667 -138 -135c-60.667 -32 -127 -48 -199 -48
c-107.333 0 -195.666 30.333 -264.999 91zM467.003 1253l-266 318h224l148 -188h7l149 188h223l-266 -318h-219z" />
    <glyph glyph-name="uni01CF" unicode="&#x1cf;" horiz-adv-x="542" 
d="M120 0v1443h302v-1443h-302zM-117 1861h222l163 -197h6l163 197h222l-274 -318h-228z" />
    <glyph glyph-name="uni01D0" unicode="&#x1d0;" horiz-adv-x="500" 
d="M140 1253l-266 318h224l148 -188h7l149 188h223l-266 -318h-219zM104 1101h292v-1101h-292v1101z" />
    <glyph glyph-name="uni01D1" unicode="&#x1d1;" horiz-adv-x="1541" 
d="M382 1861h222l163 -197h6l163 197h222l-274 -318h-228zM1278 1267c125.333 -134 187.999 -316 187.999 -546c0 -229.333 -62.667 -411 -188 -545s-294.666 -201 -507.999 -201c-214 0 -383.333 67 -508 201c-125.333 134 -188 315.667 -188 545c0 230 62.667 412 188 546
c124.667 134 294 201 508 201s383.333 -67 508 -201zM487.999 1082c-70.667 -89.333 -106 -209.666 -106 -360.999c0 -150.667 35 -270.667 105 -360c70 -88.667 164.333 -133 283 -133c118 0 212 44.333 282 133c70 89.333 105 209.333 105 360
c0 151.333 -35 271.666 -105 360.999s-164 134 -282 134s-212 -44.667 -282 -134z" />
    <glyph glyph-name="uni01D2" unicode="&#x1d2;" horiz-adv-x="1201" 
d="M490 1253l-266 318h224l148 -188h7l149 188h223l-266 -318h-219zM203 133c-97.333 101.333 -146.001 240.667 -146.001 418c0 175.333 49 314.333 147 417c98 101.333 230 152 396 152c166.667 0 298.667 -50.667 396 -152c98 -102 147 -241 147 -417
c0 -178 -48.667 -317.667 -146 -419c-96.667 -100.667 -229 -151 -397 -151c-167.333 0 -299.666 50.667 -396.999 152zM780.999 296.001c43.333 60.667 65.001 145.667 65.001 255c0 108 -22 192.667 -66 254c-43.333 60.667 -103.333 91 -180 91
c-77.333 0 -137.666 -30.333 -180.999 -91c-44 -61.333 -66 -146 -66 -254c0 -109.333 22 -194.333 66 -255c43.333 -60 103.666 -90 180.999 -90s137.666 30 180.999 90z" />
    <glyph glyph-name="uni01D3" unicode="&#x1d3;" horiz-adv-x="1449" 
d="M336 1861h222l163 -197h6l163 197h222l-274 -318h-228zM421 540c0 -94 26.334 -168 79.001 -222c53.333 -56 128 -84 224 -84c95.333 0 169.666 28 222.999 84c52.667 54 79 128 79 222v903h302v-933c0 -160 -54.667 -289 -164 -387
c-110 -98.667 -256.667 -148 -440 -148c-184 0 -331 49.333 -441 148c-109.333 98 -164 227 -164 387v933h302v-903z" />
    <glyph glyph-name="uni01D4" unicode="&#x1d4;" horiz-adv-x="1227" 
d="M501 1253l-266 318h224l148 -188h7l149 188h223l-266 -318h-219zM1127 0h-282.001v199h-6c-58 -143.333 -173.333 -215 -346 -215c-120.667 0 -217 36.667 -289 110c-74 74 -111 174.333 -111 301v706h292v-645c0 -73.333 19.667 -130 59 -170
c38 -39.333 91.333 -59 160 -59s124.334 22.667 167.001 68s64 105 64 179v627h292v-1101z" />
    <glyph glyph-name="uni01D5" unicode="&#x1d5;" horiz-adv-x="1449" 
d="M421 540c0 -94 26.334 -168 79.001 -222c53.333 -56 128 -84 224 -84c95.333 0 169.666 28 222.999 84c52.667 54 79 128 79 222v903h302v-933c0 -160 -54.667 -289 -164 -387c-110 -98.667 -256.667 -148 -440 -148c-184 0 -331 49.333 -441 148
c-109.333 98 -164 227 -164 387v933h302v-903zM611.001 1777c24.667 -24.667 37 -54 37 -88c0 -34.667 -12.333 -64 -37 -88c-24.667 -24.667 -55 -37 -91 -37c-36.667 0 -67.334 12.333 -92.001 37c-24.667 24 -37 53.333 -37 88s12.333 64 37 88s55.334 36 92.001 36
c36 0 66.333 -12 91 -36zM1070 2073v-143h-692v143h692zM1020 1777c24.667 -24 37 -53.333 37 -88s-12.333 -64 -37 -88c-24.667 -24.667 -55.334 -37 -92.001 -37c-36 0 -66.333 12.333 -91 37c-24.667 24 -37 53.333 -37 88c0 34 12.333 63.333 37 88
c24.667 24 55 36 91 36c36.667 0 67.334 -12 92.001 -36z" />
    <glyph glyph-name="uni01D6" unicode="&#x1d6;" horiz-adv-x="1227" 
d="M1127 0h-282.001v199h-6c-58 -143.333 -173.333 -215 -346 -215c-120.667 0 -217 36.667 -289 110c-74 74 -111 174.333 -111 301v706h292v-645c0 -73.333 19.667 -130 59 -170c38 -39.333 91.333 -59 160 -59s124.334 22.667 167.001 68s64 105 64 179v627h292v-1101z
M316.999 1295c-24.667 24 -37 53 -37 87c0 34.667 12.333 64 37 88s55 36 91 36s66.333 -12 91 -36s37 -53.333 37 -88c0 -34 -12.333 -63 -37 -87c-24.667 -24.667 -55 -37 -91 -37s-66.333 12.333 -91 37zM722.999 1295c-24.667 24 -37 53 -37 87
c0 34.667 12.333 64 37 88s55 36 91 36s66.333 -12 91 -36s37 -53.333 37 -88c0 -34 -12.333 -63 -37 -87c-24.667 -24.667 -55 -37 -91 -37s-66.333 12.333 -91 37zM945.999 1659h-669v143h669v-143z" />
    <glyph glyph-name="uni01D7" unicode="&#x1d7;" horiz-adv-x="1449" 
d="M806 2130h254l-237 -243h-211zM428 1601c-24.667 24 -37 53.333 -37 88s12.333 64 37 88s55.334 36 92.001 36c36 0 66.333 -12 91 -36c24.667 -24.667 37 -54 37 -88c0 -34.667 -12.333 -64 -37 -88c-24.667 -24.667 -55 -37 -91 -37
c-36.667 0 -67.334 12.333 -92.001 37zM837 1601c-24.667 24 -37 53.333 -37 88c0 34 12.333 63.333 37 88c24.667 24 55 36 91 36c36.667 0 67.334 -12 92.001 -36s37 -53.333 37 -88s-12.333 -64 -37 -88c-24.667 -24.667 -55.334 -37 -92.001 -37
c-36 0 -66.333 12.333 -91 37zM421 540c0 -94 26.334 -168 79.001 -222c53.333 -56 128 -84 224 -84c95.333 0 169.666 28 222.999 84c52.667 54 79 128 79 222v903h302v-933c0 -160 -54.667 -289 -164 -387c-110 -98.667 -256.667 -148 -440 -148
c-184 0 -331 49.333 -441 148c-109.333 98 -164 227 -164 387v933h302v-903z" />
    <glyph glyph-name="uni01D8" unicode="&#x1d8;" horiz-adv-x="1227" 
d="M684 1891h255l-218 -269h-219zM306 1298c-26 25.333 -39 56 -39 92s13 67 39 93c26 25.333 58 38 96 38s70 -12.667 96 -38c26 -26 39 -57 39 -93s-13 -66.667 -39 -92c-26 -26 -58 -39 -96 -39s-70 13 -96 39zM725 1298c-26 25.333 -39 56 -39 92s13 67 39 93
c26 25.333 58 38 96 38s70 -12.667 96 -38c26 -26 39 -57 39 -93s-13 -66.667 -39 -92c-26 -26 -58 -39 -96 -39s-70 13 -96 39zM1127 0h-282.001v199h-6c-58 -143.333 -173.333 -215 -346 -215c-120.667 0 -217 36.667 -289 110c-74 74 -111 174.333 -111 301v706h292v-645
c0 -73.333 19.667 -130 59 -170c38 -39.333 91.333 -59 160 -59s124.334 22.667 167.001 68s64 105 64 179v627h292v-1101z" />
    <glyph glyph-name="uni01D9" unicode="&#x1d9;" horiz-adv-x="1449" 
d="M357 2142h225l133 -136h18l133 136h225l-257 -254h-220zM611 1777c24.667 -24.667 37 -54 37 -88c0 -34.667 -12.333 -64 -37 -88c-24.667 -24.667 -55 -37 -91 -37c-36.667 0 -67.334 12.333 -92.001 37c-24.667 24 -37 53.333 -37 88s12.333 64 37 88
s55.334 36 92.001 36c36 0 66.333 -12 91 -36zM1020 1777c24.667 -24 37 -53.333 37 -88s-12.333 -64 -37 -88c-24.667 -24.667 -55.334 -37 -92.001 -37c-36 0 -66.333 12.333 -91 37c-24.667 24 -37 53.333 -37 88c0 34 12.333 63.333 37 88c24.667 24 55 36 91 36
c36.667 0 67.334 -12 92.001 -36zM421 540c0 -94 26.334 -168 79.001 -222c53.333 -56 128 -84 224 -84c95.333 0 169.666 28 222.999 84c52.667 54 79 128 79 222v903h302v-933c0 -160 -54.667 -289 -164 -387c-110 -98.667 -256.667 -148 -440 -148
c-184 0 -331 49.333 -441 148c-109.333 98 -164 227 -164 387v933h302v-903z" />
    <glyph glyph-name="uni01DA" unicode="&#x1da;" horiz-adv-x="1227" 
d="M315 1296c-25.333 24.667 -38 54.334 -38 89.001c0 35.333 12.667 65 38 89c25.333 24.667 56.333 37 93 37s67.667 -12.333 93 -37c24.667 -24 37 -53.667 37 -89c0 -34.667 -12.333 -64.334 -37 -89.001c-25.333 -25.333 -56.333 -38 -93 -38s-67.667 12.667 -93 38z
M722 1296c-25.333 24.667 -38.001 54.334 -38.001 89.001c0 35.333 12.667 65 38 89c24.667 24.667 55.334 37 92.001 37s67.667 -12.333 93 -37c25.333 -24 38 -53.667 38 -89c0 -34.667 -12.667 -64.334 -38 -89.001c-25.333 -25.333 -56.333 -38 -93 -38
c-36 0 -66.667 12.667 -92 38zM489.999 1603l-258 297h222l153 -180h8l153 180h222l-258 -297h-242zM1127 0h-282.001v199h-6c-58 -143.333 -173.333 -215 -346 -215c-120.667 0 -217 36.667 -289 110c-74 74 -111 174.333 -111 301v706h292v-645
c0 -73.333 19.667 -130 59 -170c38 -39.333 91.333 -59 160 -59s124.334 22.667 167.001 68s64 105 64 179v627h292v-1101z" />
    <glyph glyph-name="uni01DB" unicode="&#x1db;" horiz-adv-x="1449" 
d="M625 1887l-237 243h254l194 -243h-211zM428 1601c-24.667 24 -37 53.333 -37 88s12.333 64 37 88s55.334 36 92.001 36c36 0 66.333 -12 91 -36c24.667 -24.667 37 -54 37 -88c0 -34.667 -12.333 -64 -37 -88c-24.667 -24.667 -55 -37 -91 -37
c-36.667 0 -67.334 12.333 -92.001 37zM837 1601c-24.667 24 -37 53.333 -37 88c0 34 12.333 63.333 37 88c24.667 24 55 36 91 36c36.667 0 67.334 -12 92.001 -36s37 -53.333 37 -88s-12.333 -64 -37 -88c-24.667 -24.667 -55.334 -37 -92.001 -37
c-36 0 -66.333 12.333 -91 37zM421 540c0 -94 26.334 -168 79.001 -222c53.333 -56 128 -84 224 -84c95.333 0 169.666 28 222.999 84c52.667 54 79 128 79 222v903h302v-933c0 -160 -54.667 -289 -164 -387c-110 -98.667 -256.667 -148 -440 -148
c-184 0 -331 49.333 -441 148c-109.333 98 -164 227 -164 387v933h302v-903z" />
    <glyph glyph-name="uni01DC" unicode="&#x1dc;" horiz-adv-x="1227" 
d="M508 1634l-221 266h265l173 -266h-217zM306 1298c-26 25.333 -39 56 -39 92s13 67 39 93c26 25.333 58 38 96 38s70 -12.667 96 -38c26 -26 39 -57 39 -93s-13 -66.667 -39 -92c-26 -26 -58 -39 -96 -39s-70 13 -96 39zM725 1298c-26 25.333 -39 56 -39 92s13 67 39 93
c26 25.333 58 38 96 38s70 -12.667 96 -38c26 -26 39 -57 39 -93s-13 -66.667 -39 -92c-26 -26 -58 -39 -96 -39s-70 13 -96 39zM1127 0h-282.001v199h-6c-58 -143.333 -173.333 -215 -346 -215c-120.667 0 -217 36.667 -289 110c-74 74 -111 174.333 -111 301v706h292v-645
c0 -73.333 19.667 -130 59 -170c38 -39.333 91.333 -59 160 -59s124.334 22.667 167.001 68s64 105 64 179v627h292v-1101z" />
    <glyph glyph-name="uni01DE" unicode="&#x1de;" horiz-adv-x="1413" 
d="M954 350h-507l-110 -350h-310l501 1443h355l502 -1443h-321zM512 576h377l-185 591h-7zM593 1777c24.667 -24.667 37 -54 37 -88c0 -34.667 -12.333 -64 -37 -88c-24.667 -24.667 -55 -37 -91 -37c-36.667 0 -67.334 12.333 -92.001 37c-24.667 24 -37 53.333 -37 88
s12.333 64 37 88s55.334 36 92.001 36c36 0 66.333 -12 91 -36zM1052 2073v-143h-692v143h692zM1002 1777c24.667 -24 37 -53.333 37 -88s-12.333 -64 -37 -88c-24.667 -24.667 -55.334 -37 -92.001 -37c-36 0 -66.333 12.333 -91 37c-24.667 24 -37 53.333 -37 88
c0 34 12.333 63.333 37 88c24.667 24 55 36 91 36c36.667 0 67.334 -12 92.001 -36z" />
    <glyph glyph-name="uni01DF" unicode="&#x1df;" horiz-adv-x="1147" 
d="M691 257c47.333 38.667 71.001 87.667 71.001 147v81l-231 -16c-124.667 -8 -187 -53.667 -187 -137c0 -40.667 16 -72.667 48 -96c31.333 -24 73.666 -36 126.999 -36c68.667 0 126 19 172 57zM159.001 78c-70.667 62 -105.998 141.668 -105.998 239.001
c0 99.333 37.333 177.333 112 234c73.333 55.333 180.666 87.333 321.999 96l275 17v73c0 52.667 -17 93.334 -51 122.001c-34 28 -81.333 42 -142 42c-52 0 -95.667 -12.667 -131 -38c-34.667 -24.667 -55.667 -57.334 -63 -98.001h-267
c4 105.333 49.333 190.666 136 255.999c87.333 66 199.666 99 336.999 99c141.333 0 254.666 -33.333 339.999 -100s128 -155 128 -265v-755h-282v170h-6c-29.333 -56.667 -75.333 -101.667 -138 -135c-60.667 -32 -127 -48 -199 -48
c-107.333 0 -195.666 30.333 -264.999 91zM283.003 1295c-24.667 24 -37 53 -37 87c0 34.667 12.333 64 37 88s55 36 91 36s66.333 -12 91 -36s37 -53.333 37 -88c0 -34 -12.333 -63 -37 -87c-24.667 -24.667 -55 -37 -91 -37s-66.333 12.333 -91 37zM689.003 1295
c-24.667 24 -37 53 -37 87c0 34.667 12.333 64 37 88s55 36 91 36s66.333 -12 91 -36s37 -53.333 37 -88c0 -34 -12.333 -63 -37 -87c-24.667 -24.667 -55 -37 -91 -37s-66.333 12.333 -91 37zM912.003 1659h-669v143h669v-143z" />
    <glyph glyph-name="uni01E0" unicode="&#x1e0;" horiz-adv-x="1413" 
d="M954 350h-507l-110 -350h-310l501 1443h355l502 -1443h-321zM512 576h377l-185 591h-7zM607 1594c-26 26 -39 57.667 -39 95c0 36.667 13 67.667 39 93c26.667 26 59.667 39 99 39s72.333 -13 99 -39c26 -25.333 39 -56.333 39 -93c0 -37.333 -13 -69 -39 -95
c-26.667 -26 -59.667 -39 -99 -39s-72.333 13 -99 39zM1052 1930h-692v143h692v-143z" />
    <glyph glyph-name="uni01E1" unicode="&#x1e1;" horiz-adv-x="1147" 
d="M691 257c47.333 38.667 71.001 87.667 71.001 147v81l-231 -16c-124.667 -8 -187 -53.667 -187 -137c0 -40.667 16 -72.667 48 -96c31.333 -24 73.666 -36 126.999 -36c68.667 0 126 19 172 57zM159.001 78c-70.667 62 -105.998 141.668 -105.998 239.001
c0 99.333 37.333 177.333 112 234c73.333 55.333 180.666 87.333 321.999 96l275 17v73c0 52.667 -17 93.334 -51 122.001c-34 28 -81.333 42 -142 42c-52 0 -95.667 -12.667 -131 -38c-34.667 -24.667 -55.667 -57.334 -63 -98.001h-267
c4 105.333 49.333 190.666 136 255.999c87.333 66 199.666 99 336.999 99c141.333 0 254.666 -33.333 339.999 -100s128 -155 128 -265v-755h-282v170h-6c-29.333 -56.667 -75.333 -101.667 -138 -135c-60.667 -32 -127 -48 -199 -48
c-107.333 0 -195.666 30.333 -264.999 91zM471.003 1295c-29.333 28.667 -44 63.334 -44 104.001s14.667 75.334 44 104.001c29.333 29.333 64.666 44 105.999 44s76.666 -14.667 105.999 -44c29.333 -28.667 44 -63.334 44 -104.001s-14.667 -75.334 -44 -104.001
s-64.666 -43 -105.999 -43s-76.666 14.333 -105.999 43zM912.003 1664h-669v143h669v-143z" />
    <glyph glyph-name="uni01E2" unicode="&#x1e2;" horiz-adv-x="2039" 
d="M574 599h391v612h-136zM965 373h-479l-158 -373h-301l613 1443h1270v-249h-669v-353h632v-232h-632v-360h669v-249h-945v373zM1793 1624h-692v143h692v-143z" />
    <glyph glyph-name="uni01E3" unicode="&#x1e3;" horiz-adv-x="1844" 
d="M1041 36c-71.333 36.667 -124.667 87.334 -160 152.001h-9c-80.667 -134 -215.667 -201 -405 -201c-124 0 -224 30.333 -300 91c-76 60 -114 139 -114 237c0 99.333 37 177.333 111 234s181.333 89 322 97l276 15v67c0 51.333 -18 93 -54 125s-83.333 48 -142 48
c-55.333 0 -100.666 -12.333 -135.999 -37c-34.667 -24.667 -54.334 -57.667 -59.001 -99h-268c5.33301 106 50 191.667 134 257c83.333 65.333 190.666 98 321.999 98c177.333 0 298 -56 362 -168h9c76.667 112 194 168 352 168c153.333 0 275.333 -49.667 366 -149
c91.333 -98.667 137 -231.334 137 -398.001v-89h-751v-19c0 -80 23.333 -144.333 70 -193s108.334 -73 185.001 -73c115.333 0 188 45.667 218 137h269c-16.667 -107.333 -69.334 -193.333 -158.001 -258c-89.333 -64.667 -200.333 -97 -333 -97
c-91.333 0 -172.666 18.333 -243.999 55zM1110 836c-43.333 -43.333 -67.666 -100.667 -72.999 -172h466c-2.66699 72.667 -24.334 130.667 -65.001 174c-41.333 42.667 -95.333 64 -162 64s-122 -22 -166 -66zM690.999 258.999c47.333 39.333 71 87.666 71 144.999v78
l-233 -14c-123.333 -7.33301 -185 -52.666 -185 -135.999c0 -40.667 15.333 -72.667 46 -96c30.667 -24 72 -36 124 -36c70 0 129 19.667 177 59zM1253 1298h-669v143h669v-143z" />
    <glyph glyph-name="Gcaron" unicode="&#x1e6;" horiz-adv-x="1489" 
d="M362 1861h222l163 -197h6l163 197h222l-274 -318h-228zM1409 606c0 -196.667 -56.3359 -350.999 -169.003 -462.999c-113.333 -112 -270.333 -168 -471 -168c-216 0 -385.667 66.667 -509 200c-124 133.333 -186 317 -186 551c0 230.667 61.667 412 185 544
c122.667 132 290.334 198 503.001 198c168 0 310.333 -45.333 427 -136s185.667 -209 207 -355h-303c-22 75.333 -62 134.333 -120 177c-58.667 42.667 -128.667 64 -210 64c-119.333 0 -212.666 -43 -279.999 -129s-101 -205.667 -101 -359c0 -156 35.333 -279 106 -369
c70 -90 165.333 -135 286 -135c98.667 0 179.334 27.667 242.001 83c62 55.333 94.667 127.666 98 216.999l1 23h-314v220h608v-163z" />
    <glyph glyph-name="gcaron" unicode="&#x1e7;" horiz-adv-x="1244" 
d="M498 1253l-266 318h224l148 -188h7l149 188h223l-266 -318h-219zM785 319c45.333 57.333 68 134.999 68 232.999c0 99.333 -22.667 178.333 -68 237c-45.333 59.333 -106 89 -182 89c-75.333 0 -135.333 -29.333 -180 -88s-67 -137.667 -67 -237
s22.333 -177.666 67 -234.999c44 -56.667 104 -85 180 -85s136.667 28.667 182 86zM244 -315.001c-93.333 59.333 -143.664 138.333 -150.997 237h288c9.33301 -36 35 -65 77 -87c41.333 -21.333 91 -32 149 -32c74.667 0 134 18 178 54c44.667 36 67 84.667 67 146v197h-6
c-26.667 -59.333 -70.334 -106.333 -131.001 -141s-130.667 -52 -210 -52c-135.333 0 -243.333 48.667 -324 146c-82.667 99.333 -124 233 -124 401c0 172.667 40.667 309 122 409c81.333 100.667 191.666 151 330.999 151c78 0 147.333 -18.333 208 -55
c59.333 -35.333 103.666 -84 132.999 -146h5v188h288v-1076c0 -130.667 -49.333 -234.667 -148 -312c-98 -77.333 -230 -116 -396 -116c-145.333 0 -264 29.333 -356 88z" />
    <glyph glyph-name="uni01E8" unicode="&#x1e8;" horiz-adv-x="1353" 
d="M119 0v1443h302v-658h9l542 658h336l-534 -640l571 -803h-361l-428 603l-135 -162v-441h-302zM277 1861h222l163 -197h6l163 197h222l-274 -318h-228z" />
    <glyph glyph-name="uni01E9" unicode="&#x1e9;" horiz-adv-x="1126" 
d="M784 1101h332l-424 -473l444 -628h-336l-322 452l-79 -85v-367h-292v1512h292v-856h4zM-136 1930h222l163 -197h6l163 197h222l-274 -318h-228z" />
    <glyph glyph-name="uni01EA" unicode="&#x1ea;" horiz-adv-x="1541" 
d="M1125 -436c-32.667 -13.333 -76.332 -20 -130.999 -20c-76.667 0 -138 19.333 -184 58c-46 38 -69 88.667 -69 152c0 94 40.667 170.333 122 229v3c-26.667 -7.33301 -57.667 -11 -93 -11c-215.333 0 -385.333 66.667 -510 200c-124 133.333 -186 315.666 -186 546.999
c0 230 62.333 412 187 546c124.667 133.333 294.334 200 509.001 200s384 -66.667 508 -200c124.667 -133.333 187 -315.333 187 -546c0 -262.667 -88 -468 -264 -616c-22 -18.667 -54.333 -44 -97 -76c-40 -29.333 -68 -51 -84 -65c-54.667 -48.667 -82 -98 -82 -148
c0 -31.333 10.667 -56.666 32 -75.999s49.666 -29 84.999 -29c27.333 0 50.666 2.66699 69.999 8v-156zM487.002 1082c-70 -88.667 -104.999 -208.666 -104.999 -359.999c0 -152 34.667 -272.333 104 -361c70 -88.667 164.667 -133 284 -133s213.666 44.333 282.999 133
s104 209 104 361c0 151.333 -34.667 271.666 -104 360.999c-70 88.667 -164.333 133 -283 133s-213 -44.667 -283 -134z" />
    <glyph glyph-name="uni01EB" unicode="&#x1eb;" horiz-adv-x="1201" 
d="M618 -393c-46 41.333 -68.999 95.333 -68.999 162c0 79.333 40 150 120 212v2c-8 -1.33301 -31 -2 -69 -2c-168.667 0 -301.334 51 -398.001 153c-96.667 101.333 -145 240.333 -145 417c0 174.667 48.667 313.334 146 416.001c97.333 102 229.666 153 396.999 153
s299.666 -51 396.999 -153s146 -240.667 146 -416c0 -192.667 -68.667 -349.667 -206 -471c-75.333 -66.667 -126 -118.334 -152 -155.001c-26 -36 -39 -73 -39 -111c0 -31.333 10.667 -56.333 32 -75s49.333 -28 84 -28c28.667 0 54.334 3 77.001 9v-154
c-39.333 -14.667 -87 -22 -143 -22c-73.333 0 -132.666 21 -177.999 63zM781.001 297c43.333 60.667 65 145.333 65 254c0 108 -21.667 192.667 -65 254c-43.333 60.667 -103.666 91 -180.999 91c-76.667 0 -137 -30.667 -181 -92s-66 -145.666 -66 -252.999
c0 -108.667 21.667 -193.334 65 -254.001c44 -60.667 104.667 -91 182 -91s137.666 30.333 180.999 91z" />
    <glyph glyph-name="uni01EC" unicode="&#x1ec;" horiz-adv-x="1541" 
d="M1125 -436c-32.667 -13.333 -76.332 -20 -130.999 -20c-76.667 0 -138 19.333 -184 58c-46 38 -69 88.667 -69 152c0 94 40.667 170.333 122 229v3c-26.667 -7.33301 -57.667 -11 -93 -11c-215.333 0 -385.333 66.667 -510 200c-124 133.333 -186 315.666 -186 546.999
c0 230 62.333 412 187 546c124.667 133.333 294.334 200 509.001 200s384 -66.667 508 -200c124.667 -133.333 187 -315.333 187 -546c0 -262.667 -88 -468 -264 -616c-22 -18.667 -54.333 -44 -97 -76c-40 -29.333 -68 -51 -84 -65c-54.667 -48.667 -82 -98 -82 -148
c0 -31.333 10.667 -56.666 32 -75.999s49.666 -29 84.999 -29c27.333 0 50.666 2.66699 69.999 8v-156zM487.002 1082c-70 -88.667 -104.999 -208.666 -104.999 -359.999c0 -152 34.667 -272.333 104 -361c70 -88.667 164.667 -133 284 -133s213.666 44.333 282.999 133
s104 209 104 361c0 151.333 -34.667 271.666 -104 360.999c-70 88.667 -164.333 133 -283 133s-213 -44.667 -283 -134zM1116 1624h-692v143h692v-143z" />
    <glyph glyph-name="uni01ED" unicode="&#x1ed;" horiz-adv-x="1201" 
d="M935 1298h-669v143h669v-143zM618 -393c-46 41.333 -68.999 95.333 -68.999 162c0 79.333 40 150 120 212v2c-8 -1.33301 -31 -2 -69 -2c-168.667 0 -301.334 51 -398.001 153c-96.667 101.333 -145 240.333 -145 417c0 174.667 48.667 313.334 146 416.001
c97.333 102 229.666 153 396.999 153s299.666 -51 396.999 -153s146 -240.667 146 -416c0 -192.667 -68.667 -349.667 -206 -471c-75.333 -66.667 -126 -118.334 -152 -155.001c-26 -36 -39 -73 -39 -111c0 -31.333 10.667 -56.333 32 -75s49.333 -28 84 -28
c28.667 0 54.334 3 77.001 9v-154c-39.333 -14.667 -87 -22 -143 -22c-73.333 0 -132.666 21 -177.999 63zM781.001 297c43.333 60.667 65 145.333 65 254c0 108 -21.667 192.667 -65 254c-43.333 60.667 -103.666 91 -180.999 91c-76.667 0 -137 -30.667 -181 -92
s-66 -145.666 -66 -252.999c0 -108.667 21.667 -193.334 65 -254.001c44 -60.667 104.667 -91 182 -91s137.666 30.333 180.999 91z" />
    <glyph glyph-name="uni01F1" unicode="&#x1f1;" horiz-adv-x="2730" 
d="M1526 197l733 989v8h-716v249h1077v-196l-730 -990v-7h750v-250h-1114v197zM675 1443c217.333 0 386.001 -62 506.001 -186c121.333 -125.333 182 -302 182 -530c0 -228.667 -60.667 -407 -182 -535c-120.667 -128 -289.334 -192 -506.001 -192h-556v1443h556z
M421.001 250h218c135.333 0 238.333 40.333 309 121c71.333 81.333 107 199.666 107 354.999c0 150.667 -36 266.334 -108 347.001s-174.667 121 -308 121h-218v-944z" />
    <glyph glyph-name="uni01F2" unicode="&#x1f2;" horiz-adv-x="2497" 
d="M1515 168l553 704v5h-545v224h883v-186l-521 -685v-6h534v-224h-904v168zM675 1443c217.333 0 386.001 -62 506.001 -186c121.333 -125.333 182 -302 182 -530c0 -228.667 -60.667 -407 -182 -535c-120.667 -128 -289.334 -192 -506.001 -192h-556v1443h556zM421.001 250
h218c135.333 0 238.333 40.333 309 121c71.333 81.333 107 199.666 107 354.999c0 150.667 -36 266.334 -108 347.001s-174.667 121 -308 121h-218v-944z" />
    <glyph glyph-name="uni01F3" unicode="&#x1f3;" horiz-adv-x="2308" 
d="M1326 168l553 704v5h-545v224h883v-186l-521 -685v-6h534v-224h-904v168zM180 139c-82 102 -123.001 239.667 -123.001 413c0 172 41 308.667 123 410s191.667 152 329 152c78.667 0 148 -18.333 208 -55c58 -35.333 101 -84 129 -146h6v599h292v-1512h-288v188h-5
c-27.333 -61.333 -71 -110 -131 -146c-61.333 -36.667 -132 -55 -212 -55c-137.333 0 -246.666 50.667 -327.999 152zM423.999 790c-45.333 -59.333 -68 -138.999 -68 -238.999c0 -100.667 22.667 -180.667 68 -240c44.667 -58.667 105 -88 181 -88
c75.333 0 135.666 29.667 180.999 89s68 138.666 68 237.999s-22.667 179 -68 239c-45.333 59.333 -105.666 89 -180.999 89c-76 0 -136.333 -29.333 -181 -88z" />
    <glyph glyph-name="uni01F4" unicode="&#x1f4;" horiz-adv-x="1489" 
d="M631 1553l232 310h273l-277 -310h-228zM1409 606c0 -196.667 -56.3359 -350.999 -169.003 -462.999c-113.333 -112 -270.333 -168 -471 -168c-216 0 -385.667 66.667 -509 200c-124 133.333 -186 317 -186 551c0 230.667 61.667 412 185 544
c122.667 132 290.334 198 503.001 198c168 0 310.333 -45.333 427 -136s185.667 -209 207 -355h-303c-22 75.333 -62 134.333 -120 177c-58.667 42.667 -128.667 64 -210 64c-119.333 0 -212.666 -43 -279.999 -129s-101 -205.667 -101 -359c0 -156 35.333 -279 106 -369
c70 -90 165.333 -135 286 -135c98.667 0 179.334 27.667 242.001 83c62 55.333 94.667 127.666 98 216.999l1 23h-314v220h608v-163z" />
    <glyph glyph-name="uni01F5" unicode="&#x1f5;" horiz-adv-x="1244" 
d="M489 1263l221 310h273l-263 -310h-231zM785 319c45.333 57.333 68 134.999 68 232.999c0 99.333 -22.667 178.333 -68 237c-45.333 59.333 -106 89 -182 89c-75.333 0 -135.333 -29.333 -180 -88s-67 -137.667 -67 -237s22.333 -177.666 67 -234.999
c44 -56.667 104 -85 180 -85s136.667 28.667 182 86zM244 -315.001c-93.333 59.333 -143.664 138.333 -150.997 237h288c9.33301 -36 35 -65 77 -87c41.333 -21.333 91 -32 149 -32c74.667 0 134 18 178 54c44.667 36 67 84.667 67 146v197h-6
c-26.667 -59.333 -70.334 -106.333 -131.001 -141s-130.667 -52 -210 -52c-135.333 0 -243.333 48.667 -324 146c-82.667 99.333 -124 233 -124 401c0 172.667 40.667 309 122 409c81.333 100.667 191.666 151 330.999 151c78 0 147.333 -18.333 208 -55
c59.333 -35.333 103.666 -84 132.999 -146h5v188h288v-1076c0 -130.667 -49.333 -234.667 -148 -312c-98 -77.333 -230 -116 -396 -116c-145.333 0 -264 29.333 -356 88z" />
    <glyph glyph-name="uni01F8" unicode="&#x1f8;" horiz-adv-x="1463" 
d="M343 1868h273l232 -310h-227zM119 0v1443h252l674 -940h8v940h289v-1443h-250l-675 945h-9v-945h-289z" />
    <glyph glyph-name="uni01F9" unicode="&#x1f9;" horiz-adv-x="1227" 
d="M502 1263l-263 310h273l221 -310h-231zM98 1101l282 0.000976562v-197h6c64.667 142 182.667 213 354 213c122 0 218 -36.333 288 -109c69.333 -72.667 104 -173.334 104 -302.001v-706h-292v645c0 73.333 -18.667 129.666 -56 168.999c-38 40 -91.333 60 -160 60
c-70 0 -126.333 -22.667 -169 -68c-43.333 -45.333 -65 -104.666 -65 -177.999v-628h-292v1101z" />
    <glyph glyph-name="Aringacute" unicode="&#x1fa;" horiz-adv-x="1413" 
d="M954 350h-507l-110 -350h-310l501 1443h355l502 -1443h-321zM512 576h377l-185 591h-7zM559 1555c-40 38.667 -60 86.667 -60 144s20 105.333 60 144c39.333 38.667 88.333 58 147 58s107.667 -19.333 147 -58s59 -86.667 59 -144s-19.667 -105.333 -59 -144
s-88.333 -58 -147 -58s-107.667 19.333 -147 58zM773 1633c18 18 27 40 27 66c0 26.667 -9 48.667 -27 66c-18 18 -40.333 27 -67 27s-49 -9 -67 -27c-18 -17.333 -27 -39.333 -27 -66c0 -26 9 -48 27 -66s40.333 -27 67 -27s49 9 67 27zM977 2148l-170 -193h-197l118 193
h249z" />
    <glyph glyph-name="aringacute" unicode="&#x1fb;" horiz-adv-x="1147" 
d="M691 257c47.333 38.667 71.001 87.667 71.001 147v81l-231 -16c-124.667 -8 -187 -53.667 -187 -137c0 -40.667 16 -72.667 48 -96c31.333 -24 73.666 -36 126.999 -36c68.667 0 126 19 172 57zM159.001 78c-70.667 62 -105.998 141.668 -105.998 239.001
c0 99.333 37.333 177.333 112 234c73.333 55.333 180.666 87.333 321.999 96l275 17v73c0 52.667 -17 93.334 -51 122.001c-34 28 -81.333 42 -142 42c-52 0 -95.667 -12.667 -131 -38c-34.667 -24.667 -55.667 -57.334 -63 -98.001h-267
c4 105.333 49.333 190.666 136 255.999c87.333 66 199.666 99 336.999 99c141.333 0 254.666 -33.333 339.999 -100s128 -155 128 -265v-755h-282v170h-6c-29.333 -56.667 -75.333 -101.667 -138 -135c-60.667 -32 -127 -48 -199 -48
c-107.333 0 -195.666 30.333 -264.999 91zM423.003 1272c-42 40.667 -63 91 -63 151c0 60.667 21 111.334 63 152.001c41.333 41.333 93.333 62 156 62c62 0 114 -20.667 156 -62c41.333 -40.667 62 -91.334 62 -152.001c0 -60 -20.667 -110.333 -62 -151
c-42 -41.333 -94 -62 -156 -62s-114 20.667 -156 62zM509.003 1355c19.333 -18.667 42.666 -28 69.999 -28s50.333 9.33301 69 28s28 41.334 28 68.001c0 27.333 -9.33301 50.333 -28 69s-41.667 28 -69 28s-50.666 -9.33301 -69.999 -28
c-18.667 -18.667 -28 -41.667 -28 -69c0 -26.667 9.33301 -49.334 28 -68.001zM619.003 1925h236l-174 -213h-195z" />
    <glyph glyph-name="AEacute" unicode="&#x1fc;" horiz-adv-x="2039" 
d="M1328 1553l232 310h273l-277 -310h-228zM574 599h391v612h-136zM965 373h-479l-158 -373h-301l613 1443h1270v-249h-669v-353h632v-232h-632v-360h669v-249h-945v373z" />
    <glyph glyph-name="aeacute" unicode="&#x1fd;" horiz-adv-x="1844" 
d="M799 1263l221 310h273l-263 -310h-231zM1041 36c-71.333 36.667 -124.667 87.334 -160 152.001h-9c-80.667 -134 -215.667 -201 -405 -201c-124 0 -224 30.333 -300 91c-76 60 -114 139 -114 237c0 99.333 37 177.333 111 234s181.333 89 322 97l276 15v67
c0 51.333 -18 93 -54 125s-83.333 48 -142 48c-55.333 0 -100.666 -12.333 -135.999 -37c-34.667 -24.667 -54.334 -57.667 -59.001 -99h-268c5.33301 106 50 191.667 134 257c83.333 65.333 190.666 98 321.999 98c177.333 0 298 -56 362 -168h9
c76.667 112 194 168 352 168c153.333 0 275.333 -49.667 366 -149c91.333 -98.667 137 -231.334 137 -398.001v-89h-751v-19c0 -80 23.333 -144.333 70 -193s108.334 -73 185.001 -73c115.333 0 188 45.667 218 137h269c-16.667 -107.333 -69.334 -193.333 -158.001 -258
c-89.333 -64.667 -200.333 -97 -333 -97c-91.333 0 -172.666 18.333 -243.999 55zM1110 836c-43.333 -43.333 -67.666 -100.667 -72.999 -172h466c-2.66699 72.667 -24.334 130.667 -65.001 174c-41.333 42.667 -95.333 64 -162 64s-122 -22 -166 -66zM690.999 258.999
c47.333 39.333 71 87.666 71 144.999v78l-233 -14c-123.333 -7.33301 -185 -52.666 -185 -135.999c0 -40.667 15.333 -72.667 46 -96c30.667 -24 72 -36 124 -36c70 0 129 19.667 177 59z" />
    <glyph glyph-name="Oslashacute" unicode="&#x1fe;" horiz-adv-x="1541" 
d="M904 1553h-228l232 310h273zM575 282c56.667 -36 121.667 -54 195 -54c118 0 212 44.333 282 133c70 89.333 105 209.333 105 360c0 129.333 -25.667 236 -77 320zM997 1139c-62.667 51.333 -138.333 76.999 -227 76.999c-118 0 -212 -44.667 -282 -134
c-70.667 -89.333 -106 -209.666 -106 -360.999c0 -148.667 33.667 -267 101 -355zM1249 1296c144.667 -135.333 216.999 -327 216.999 -575c0 -229.333 -62.667 -411 -188 -545s-294.666 -201 -507.999 -201c-131.333 0 -247 26 -347 78l-80 -120l-102 68l80 120
c-164.667 133.333 -247 333.333 -247 600c0 230 62.667 412 188 546c124.667 134 294 201 508 201c146.667 0 273.667 -32.667 381 -98l90 136l108 -60z" />
    <glyph glyph-name="oslashacute" unicode="&#x1ff;" horiz-adv-x="1201" 
d="M734 1263h-231l221 310h273zM482 237c35.333 -20.667 74.668 -31 118.001 -31c77.333 0 137.666 30 180.999 90c43.333 60.667 65 145.667 65 255c0 81.333 -12.667 150 -38 206zM728.002 857c-36 26 -78.668 39 -128.001 39c-77.333 0 -137.666 -30.333 -180.999 -91
c-44 -61.333 -66 -146 -66 -254c0 -88.667 15 -162 45 -220zM961.001 1001c121.333 -102.667 182 -252.667 182 -450c0 -178 -48.667 -317.667 -146 -419c-96.667 -100.667 -229 -151 -397 -151c-91.333 0 -174 16 -248 48l-62 -99l-104 64l62 98
c-127.333 101.333 -191 254.333 -191 459c0 175.333 49 314.333 147 417c98 101.333 230 152 396 152c96.667 0 183 -18 259 -54l64 102l106 -59z" />
    <glyph glyph-name="uni0200" unicode="&#x200;" horiz-adv-x="1413" 
d="M954 350h-507l-110 -350h-310l501 1443h355l502 -1443h-321zM512 576h377l-185 591h-7zM518 1863h269l231 -310h-222zM123 1863h268l232 -310h-222z" />
    <glyph glyph-name="uni0201" unicode="&#x201;" horiz-adv-x="1147" 
d="M691 257c47.333 38.667 71.001 87.667 71.001 147v81l-231 -16c-124.667 -8 -187 -53.667 -187 -137c0 -40.667 16 -72.667 48 -96c31.333 -24 73.666 -36 126.999 -36c68.667 0 126 19 172 57zM159.001 78c-70.667 62 -105.998 141.668 -105.998 239.001
c0 99.333 37.333 177.333 112 234c73.333 55.333 180.666 87.333 321.999 96l275 17v73c0 52.667 -17 93.334 -51 122.001c-34 28 -81.333 42 -142 42c-52 0 -95.667 -12.667 -131 -38c-34.667 -24.667 -55.667 -57.334 -63 -98.001h-267
c4 105.333 49.333 190.666 136 255.999c87.333 66 199.666 99 336.999 99c141.333 0 254.666 -33.333 339.999 -100s128 -155 128 -265v-755h-282v170h-6c-29.333 -56.667 -75.333 -101.667 -138 -135c-60.667 -32 -127 -48 -199 -48
c-107.333 0 -195.666 30.333 -264.999 91zM294.003 1263l-233 310h252l189 -310h-208zM664.003 1263l-233 310h252l189 -310h-208z" />
    <glyph glyph-name="uni0202" unicode="&#x202;" horiz-adv-x="1413" 
d="M954 350h-507l-110 -350h-310l501 1443h355l502 -1443h-321zM512 576h377l-185 591h-7zM353 1543c1.33301 91.333 33.3291 166.333 95.9961 225c64.667 61.333 150.334 92 257.001 92s192.334 -30.667 257.001 -92c62.667 -58.667 94.667 -133.667 96 -225h-178
c-1.33301 50 -17.666 91 -48.999 123c-32.667 32.667 -74.667 49 -126 49s-93.333 -16.333 -126 -49c-31.333 -32 -47.666 -73 -48.999 -123h-178z" />
    <glyph glyph-name="uni0203" unicode="&#x203;" horiz-adv-x="1147" 
d="M691 257c47.333 38.667 71.001 87.667 71.001 147v81l-231 -16c-124.667 -8 -187 -53.667 -187 -137c0 -40.667 16 -72.667 48 -96c31.333 -24 73.666 -36 126.999 -36c68.667 0 126 19 172 57zM159.001 78c-70.667 62 -105.998 141.668 -105.998 239.001
c0 99.333 37.333 177.333 112 234c73.333 55.333 180.666 87.333 321.999 96l275 17v73c0 52.667 -17 93.334 -51 122.001c-34 28 -81.333 42 -142 42c-52 0 -95.667 -12.667 -131 -38c-34.667 -24.667 -55.667 -57.334 -63 -98.001h-267
c4 105.333 49.333 190.666 136 255.999c87.333 66 199.666 99 336.999 99c141.333 0 254.666 -33.333 339.999 -100s128 -155 128 -265v-755h-282v170h-6c-29.333 -56.667 -75.333 -101.667 -138 -135c-60.667 -32 -127 -48 -199 -48
c-107.333 0 -195.666 30.333 -264.999 91zM218.003 1253c1.33301 93.333 33.668 169.666 97.001 228.999c66 62 153.333 93 262 93s196 -31 262 -93c63.333 -59.333 95.666 -135.666 96.999 -228.999h-180c-1.33301 50.667 -18 92.667 -50 126c-34 33.333 -77 50 -129 50
s-94.667 -16.667 -128 -50c-32.667 -33.333 -49.667 -75.333 -51 -126h-180z" />
    <glyph glyph-name="uni0204" unicode="&#x204;" horiz-adv-x="1174" 
d="M409 1863h269l231 -310h-222zM14 1863h268l232 -310h-222zM1075 0h-956v1443h956v-249h-654v-348h617v-232h-617v-364h654v-250z" />
    <glyph glyph-name="uni0205" unicode="&#x205;" horiz-adv-x="1164" 
d="M422 836c-44 -44 -68.665 -101.333 -73.998 -172h475c-2.66699 72 -25.334 129.667 -68.001 173s-98 65 -166 65c-66.667 0 -122.334 -22 -167.001 -66zM1096 336c-16 -106.667 -69.667 -192.333 -161 -257c-91.333 -65.333 -204 -98 -338 -98
c-167.333 0 -299.333 50.333 -396 151c-96 100.667 -144 238.667 -144 414s47.667 314.666 143 417.999c96 104 224.667 156 386 156c158.667 0 284.667 -49.333 378 -148c94 -98.667 141 -231.667 141 -399v-90h-760v-18c0 -79.333 23.667 -143.666 71 -192.999
c47.333 -48.667 109.333 -73 186 -73c55.333 0 103 12.333 143 37c40.667 24 68 57.333 82 100h269zM302.002 1263l-233 310h252l189 -310h-208zM672.002 1263l-233 310h252l189 -310h-208z" />
    <glyph glyph-name="uni0206" unicode="&#x206;" horiz-adv-x="1174" 
d="M1075 0h-956v1443h956v-249h-654v-348h617v-232h-617v-364h654v-250zM244 1543c1.33301 91.333 33.3291 166.333 95.9961 225c64.667 61.333 150.334 92 257.001 92s192.334 -30.667 257.001 -92c62.667 -58.667 94.667 -133.667 96 -225h-178
c-1.33301 50 -17.666 91 -48.999 123c-32.667 32.667 -74.667 49 -126 49s-93.333 -16.333 -126 -49c-31.333 -32 -47.666 -73 -48.999 -123h-178z" />
    <glyph glyph-name="uni0207" unicode="&#x207;" horiz-adv-x="1164" 
d="M422 836c-44 -44 -68.665 -101.333 -73.998 -172h475c-2.66699 72 -25.334 129.667 -68.001 173s-98 65 -166 65c-66.667 0 -122.334 -22 -167.001 -66zM1096 336c-16 -106.667 -69.667 -192.333 -161 -257c-91.333 -65.333 -204 -98 -338 -98
c-167.333 0 -299.333 50.333 -396 151c-96 100.667 -144 238.667 -144 414s47.667 314.666 143 417.999c96 104 224.667 156 386 156c158.667 0 284.667 -49.333 378 -148c94 -98.667 141 -231.667 141 -399v-90h-760v-18c0 -79.333 23.667 -143.666 71 -192.999
c47.333 -48.667 109.333 -73 186 -73c55.333 0 103 12.333 143 37c40.667 24 68 57.333 82 100h269zM226.002 1253c1.33301 93.333 33.668 169.666 97.001 228.999c66 62 153.333 93 262 93s196 -31 262 -93c63.333 -59.333 95.666 -135.666 96.999 -228.999h-180
c-1.33301 50.667 -18 92.667 -50 126c-34 33.333 -77 50 -129 50s-94.667 -16.667 -128 -50c-32.667 -33.333 -49.667 -75.333 -51 -126h-180z" />
    <glyph glyph-name="uni0208" unicode="&#x208;" horiz-adv-x="542" 
d="M120 0v1443h302v-1443h-302zM83 1863h269l231 -310h-222zM-312 1863h268l232 -310h-222z" />
    <glyph glyph-name="uni0209" unicode="&#x209;" horiz-adv-x="500" 
d="M104 1101h292v-1101h-292v1101zM-33 1263l-233 310h252l189 -310h-208zM337 1263l-233 310h252l189 -310h-208z" />
    <glyph glyph-name="uni020A" unicode="&#x20a;" horiz-adv-x="542" 
d="M120 0v1443h302v-1443h-302zM-82 1543c1.33301 91.333 33.3291 166.333 95.9961 225c64.667 61.333 150.334 92 257.001 92s192.334 -30.667 257.001 -92c62.667 -58.667 94.667 -133.667 96 -225h-178c-1.33301 50 -17.666 91 -48.999 123
c-32.667 32.667 -74.667 49 -126 49s-93.333 -16.333 -126 -49c-31.333 -32 -47.666 -73 -48.999 -123h-178z" />
    <glyph glyph-name="uni020B" unicode="&#x20b;" horiz-adv-x="500" 
d="M104 1101h292v-1101h-292v1101zM-109 1253c1.33301 93.333 33.668 169.666 97.001 228.999c66 62 153.333 93 262 93s196 -31 262 -93c63.333 -59.333 95.666 -135.666 96.999 -228.999h-180c-1.33301 50.667 -18 92.667 -50 126c-34 33.333 -77 50 -129 50
s-94.667 -16.667 -128 -50c-32.667 -33.333 -49.667 -75.333 -51 -126h-180z" />
    <glyph glyph-name="uni020C" unicode="&#x20c;" horiz-adv-x="1541" 
d="M582 1863h269l231 -310h-222zM187 1863h268l232 -310h-222zM1278 1267c125.333 -134 187.999 -316 187.999 -546c0 -229.333 -62.667 -411 -188 -545s-294.666 -201 -507.999 -201c-214 0 -383.333 67 -508 201c-125.333 134 -188 315.667 -188 545
c0 230 62.667 412 188 546c124.667 134 294 201 508 201s383.333 -67 508 -201zM487.999 1082c-70.667 -89.333 -106 -209.666 -106 -360.999c0 -150.667 35 -270.667 105 -360c70 -88.667 164.333 -133 283 -133c118 0 212 44.333 282 133c70 89.333 105 209.333 105 360
c0 151.333 -35 271.666 -105 360.999s-164 134 -282 134s-212 -44.667 -282 -134z" />
    <glyph glyph-name="uni020D" unicode="&#x20d;" horiz-adv-x="1201" 
d="M203 133c-97.333 101.333 -146.001 240.667 -146.001 418c0 175.333 49 314.333 147 417c98 101.333 230 152 396 152c166.667 0 298.667 -50.667 396 -152c98 -102 147 -241 147 -417c0 -178 -48.667 -317.667 -146 -419c-96.667 -100.667 -229 -151 -397 -151
c-167.333 0 -299.666 50.667 -396.999 152zM780.999 296.001c43.333 60.667 65.001 145.667 65.001 255c0 108 -22 192.667 -66 254c-43.333 60.667 -103.333 91 -180 91c-77.333 0 -137.666 -30.333 -180.999 -91c-44 -61.333 -66 -146 -66 -254
c0 -109.333 22 -194.333 66 -255c43.333 -60 103.666 -90 180.999 -90s137.666 30 180.999 90zM317 1263l-233 310h252l189 -310h-208zM687 1263l-233 310h252l189 -310h-208z" />
    <glyph glyph-name="uni020E" unicode="&#x20e;" horiz-adv-x="1541" 
d="M417 1543c1.33301 91.333 33.3291 166.333 95.9961 225c64.667 61.333 150.334 92 257.001 92s192.334 -30.667 257.001 -92c62.667 -58.667 94.667 -133.667 96 -225h-178c-1.33301 50 -17.666 91 -48.999 123c-32.667 32.667 -74.667 49 -126 49
s-93.333 -16.333 -126 -49c-31.333 -32 -47.666 -73 -48.999 -123h-178zM1278 1267c125.333 -134 187.999 -316 187.999 -546c0 -229.333 -62.667 -411 -188 -545s-294.666 -201 -507.999 -201c-214 0 -383.333 67 -508 201c-125.333 134 -188 315.667 -188 545
c0 230 62.667 412 188 546c124.667 134 294 201 508 201s383.333 -67 508 -201zM487.995 1082c-70.667 -89.333 -106 -209.666 -106 -360.999c0 -150.667 35 -270.667 105 -360c70 -88.667 164.333 -133 283 -133c118 0 212 44.333 282 133c70 89.333 105 209.333 105 360
c0 151.333 -35 271.666 -105 360.999s-164 134 -282 134s-212 -44.667 -282 -134z" />
    <glyph glyph-name="uni020F" unicode="&#x20f;" horiz-adv-x="1201" 
d="M203 133c-97.333 101.333 -146.001 240.667 -146.001 418c0 175.333 49 314.333 147 417c98 101.333 230 152 396 152c166.667 0 298.667 -50.667 396 -152c98 -102 147 -241 147 -417c0 -178 -48.667 -317.667 -146 -419c-96.667 -100.667 -229 -151 -397 -151
c-167.333 0 -299.666 50.667 -396.999 152zM780.999 296.001c43.333 60.667 65.001 145.667 65.001 255c0 108 -22 192.667 -66 254c-43.333 60.667 -103.333 91 -180 91c-77.333 0 -137.666 -30.333 -180.999 -91c-44 -61.333 -66 -146 -66 -254
c0 -109.333 22 -194.333 66 -255c43.333 -60 103.666 -90 180.999 -90s137.666 30 180.999 90zM241 1253c1.33301 93.333 33.668 169.666 97.001 228.999c66 62 153.333 93 262 93s196 -31 262 -93c63.333 -59.333 95.666 -135.666 96.999 -228.999h-180
c-1.33301 50.667 -18 92.667 -50 126c-34 33.333 -77 50 -129 50s-94.667 -16.667 -128 -50c-32.667 -33.333 -49.667 -75.333 -51 -126h-180z" />
    <glyph glyph-name="uni0210" unicode="&#x210;" horiz-adv-x="1316" 
d="M427 1863h269l231 -310h-222zM32 1863h268l232 -310h-222zM421 747h265c76 0 135.333 20.333 178 61c42 40.667 63 97 63 169c0 70 -22 126 -66 168c-44 41.333 -103.333 62 -178 62h-262v-460zM421 0l-302.001 -0.000976562v1443h596
c164.667 0 293.334 -41 386.001 -123c90.667 -81.333 136 -193.666 136 -336.999c0 -94 -23 -177.333 -69 -250c-46.667 -74.667 -111 -128 -193 -160l304 -573h-342l-269 528h-247v-528z" />
    <glyph glyph-name="uni0211" unicode="&#x211;" horiz-adv-x="759" 
d="M99 1101l282 -0.000976562v-197h6c38 140 125.333 210 262 210c32.667 0 60 -3.66699 82 -11v-259c-26 12 -61 18 -105 18c-74 0 -131.667 -21.667 -173 -65s-62 -103.666 -62 -180.999v-616h-292v1101zM120 1263l-233 310h252l189 -310h-208zM490 1263l-233 310h252
l189 -310h-208z" />
    <glyph glyph-name="uni0212" unicode="&#x212;" horiz-adv-x="1316" 
d="M421 747h265c76 0 135.333 20.333 178 61c42 40.667 63 97 63 169c0 70 -22 126 -66 168c-44 41.333 -103.333 62 -178 62h-262v-460zM421 0l-302.001 -0.000976562v1443h596c164.667 0 293.334 -41 386.001 -123c90.667 -81.333 136 -193.666 136 -336.999
c0 -94 -23 -177.333 -69 -250c-46.667 -74.667 -111 -128 -193 -160l304 -573h-342l-269 528h-247v-528zM261.999 1543c1.33301 91.333 33.3291 166.333 95.9961 225c64.667 61.333 150.334 92 257.001 92s192.334 -30.667 257.001 -92
c62.667 -58.667 94.667 -133.667 96 -225h-178c-1.33301 50 -17.666 91 -48.999 123c-32.667 32.667 -74.667 49 -126 49s-93.333 -16.333 -126 -49c-31.333 -32 -47.666 -73 -48.999 -123h-178z" />
    <glyph glyph-name="uni0213" unicode="&#x213;" horiz-adv-x="759" 
d="M98 1101l282 -0.000976562v-197h6c38 140 125.333 210 262 210c32.667 0 60 -3.66699 82 -11v-259c-26 12 -61 18 -105 18c-74 0 -131.667 -21.667 -173 -65s-62 -103.666 -62 -180.999v-616h-292v1101zM43 1253c1.33301 93.333 33.668 169.666 97.001 228.999
c66 62 153.333 93 262 93s196 -31 262 -93c63.333 -59.333 95.666 -135.666 96.999 -228.999h-180c-1.33301 50.667 -18 92.667 -50 126c-34 33.333 -77 50 -129 50s-94.667 -16.667 -128 -50c-32.667 -33.333 -49.667 -75.333 -51 -126h-180z" />
    <glyph glyph-name="uni0214" unicode="&#x214;" horiz-adv-x="1449" 
d="M536 1863h269l231 -310h-222zM141 1863h268l232 -310h-222zM421 540c0 -94 26.334 -168 79.001 -222c53.333 -56 128 -84 224 -84c95.333 0 169.666 28 222.999 84c52.667 54 79 128 79 222v903h302v-933c0 -160 -54.667 -289 -164 -387
c-110 -98.667 -256.667 -148 -440 -148c-184 0 -331 49.333 -441 148c-109.333 98 -164 227 -164 387v933h302v-903z" />
    </font>
</defs>
</svg>
