<svg width="16" height="16" viewBox="0 0 16 16" fill="none" xmlns="http://www.w3.org/2000/svg">
<path d="M5.78902 16C3.40774 15.9863 1.43799 11.1253 1.43799 8.64968C1.43799 4.6058 4.47158 3.72049 5.64071 3.72049C6.16758 3.72049 6.73018 3.9274 7.22639 4.11049C7.57339 4.23821 7.93227 4.37005 8.13186 4.37005C8.25133 4.37005 8.53286 4.2579 8.78143 4.15949C9.31152 3.94846 9.97114 3.68618 10.7393 3.68618C10.7406 3.68618 10.7425 3.68618 10.7438 3.68618C11.3174 3.68618 13.0565 3.81205 14.102 5.38218L14.3469 5.75021L13.9944 6.01618C13.4909 6.39612 12.5721 7.08918 12.5721 8.46202C12.5721 10.088 13.6126 10.7133 14.1125 11.0141C14.3332 11.1468 14.5616 11.2837 14.5616 11.5831C14.5616 11.7785 13.0015 15.9757 10.7361 15.9757C10.1817 15.9757 9.78986 15.8091 9.44424 15.6622C9.09452 15.5134 8.79283 15.3852 8.29433 15.3852C8.04164 15.3852 7.72211 15.5047 7.38383 15.6315C6.92155 15.8041 6.3983 16 5.80458 16H5.78902Z" fill="#33548C"/>
<path d="M10.9795 0C11.0385 2.12737 9.51713 3.60325 7.9975 3.51069C7.74709 1.81297 9.51694 0 10.9795 0Z" fill="#33548C"/>
</svg>
