<svg width="16" height="16" viewBox="0 0 16 16" fill="none" xmlns="http://www.w3.org/2000/svg">
<g clip-path="url(#clip0)">
<path d="M14.4 1.6H13.6V0.8C13.6 0.32 13.28 0 12.8 0C12.32 0 12 0.32 12 0.8V1.6H4V0.8C4 0.32 3.68 0 3.2 0C2.72 0 2.4 0.32 2.4 0.8V1.6H0.8C0.4 1.6 0 1.92 0 2.4V13.6C0 14.08 0.4 14.4 0.8 14.4H5.68C5.12 13.44 4.8 12.32 4.8 11.2C4.8 7.68 7.68 4.8 11.2 4.8C12.72 4.8 14.08 5.36 15.2 6.24V2.4C15.2 2 14.8 1.6 14.4 1.6Z" fill="#33548C"/>
<path d="M11.1999 6.4C8.5599 6.4 6.3999 8.56 6.3999 11.2C6.3999 13.84 8.5599 16 11.1999 16C13.8399 16 15.9999 13.84 15.9999 11.2C15.9999 8.56 13.8399 6.4 11.1999 6.4ZM12.7999 12H11.1999C10.7199 12 10.3999 11.68 10.3999 11.2V8.80001C10.3999 8.32 10.7199 8 11.1999 8C11.6799 8 11.9999 8.32 11.9999 8.80001V10.4H12.7999C13.2799 10.4 13.5999 10.72 13.5999 11.2C13.5999 11.68 13.2799 12 12.7999 12Z" fill="#30A8C4"/>
</g>
<defs>
<clipPath id="clip0">
<rect width="16" height="16" fill="white"/>
</clipPath>
</defs>
</svg>
