<svg width="30" height="24" viewBox="0 0 30 24" fill="none" xmlns="http://www.w3.org/2000/svg">
<path d="M28.7652 5.95672C28.6346 5.95672 28.5006 5.97534 28.3668 6.01233L26.8528 6.4294L25.2807 2.59972C24.8354 1.51469 23.5188 0.632072 22.346 0.632072H7.63284C6.45993 0.632072 5.1434 1.51469 4.69814 2.59972L3.12806 6.42417L1.63309 6.01233C1.49943 5.97547 1.36525 5.95672 1.23477 5.95672C0.519366 5.95672 0 6.50325 0 7.25641V8.1491C0 9.02827 0.715148 9.74342 1.59432 9.74342H1.76549L1.5118 10.3615C1.09804 11.3696 0.761447 13.0761 0.761447 14.1657V21.7739C0.761447 22.6531 1.47672 23.3682 2.35577 23.3682H4.43808C5.31725 23.3682 6.0324 22.6531 6.0324 21.7739V19.8739H23.9467V21.7739C23.9467 22.6531 24.6618 23.3682 25.541 23.3682H27.6232C28.5024 23.3682 29.2175 22.6531 29.2175 21.7739V14.1657C29.2175 13.0762 28.8809 11.3696 28.467 10.3615L28.2133 9.74342H28.4057C29.2847 9.74342 30 9.02827 30 8.1491V7.25641C30 6.50325 29.4808 5.95672 28.7652 5.95672ZM4.27137 8.87739L6.64946 3.08465C6.9159 2.43569 7.70784 1.90472 8.40934 1.90472H21.5697C22.2712 1.90472 23.0632 2.43569 23.3295 3.08465L25.7076 8.87739C25.974 9.52634 25.618 10.0573 24.9165 10.0573H5.06254C4.36104 10.0573 4.00506 9.52634 4.27137 8.87739ZM9.5802 16.2044C9.5802 16.5551 9.29323 16.8421 8.94248 16.8421H4.42481C4.07406 16.8421 3.78708 16.5551 3.78708 16.2044V14.0362C3.78708 13.6855 4.07406 13.3985 4.42481 13.3985H8.94248C9.29323 13.3985 9.5802 13.6855 9.5802 14.0362V16.2044ZM26.1491 16.2044C26.1491 16.5551 25.8622 16.8421 25.5114 16.8421H20.9939C20.6431 16.8421 20.3561 16.5551 20.3561 16.2044V14.0362C20.3561 13.6855 20.6431 13.3985 20.9939 13.3985H25.5114C25.8622 13.3985 26.1491 13.6855 26.1491 14.0362V16.2044Z" fill="white"/>
</svg>
