<svg width="35" height="22" viewBox="0 0 35 22" fill="none" xmlns="http://www.w3.org/2000/svg">
<path fill-rule="evenodd" clip-rule="evenodd" d="M16.7084 0.0221518C13.2796 0.321479 10.3831 2.01901 8.45738 4.85782C8.13867 5.32763 7.70917 6.05068 7.71083 6.11459C7.71132 6.13272 7.81296 6.24588 7.93675 6.36603C8.30411 6.72258 8.52257 7.12485 8.56508 7.52302C8.57701 7.63458 8.59681 7.72585 8.60912 7.72585C8.62143 7.72585 8.68964 7.56931 8.76069 7.37795C9.46891 5.47076 11.167 3.58234 13.176 2.46785C14.0261 1.99624 15.0432 1.66864 16.2056 1.49201C16.6965 1.41741 18.2531 1.4061 18.7716 1.47334C20.2497 1.66504 21.691 2.14714 22.713 2.79172C23.1535 3.06956 23.9433 3.72541 24.5467 4.31456C25.0917 4.84669 25.3209 5.12259 25.6534 5.64695C25.7629 5.81964 25.859 5.96091 25.8669 5.96091C25.8748 5.96091 25.9629 5.91638 26.0628 5.86197C26.3135 5.72532 26.6792 5.62207 26.9985 5.59787C27.1463 5.58667 27.2672 5.56851 27.2672 5.55752C27.2672 5.50148 26.8052 4.79941 26.5464 4.46217C25.8079 3.49997 25.0527 2.74936 24.1637 2.09409C22.6157 0.953023 21.0838 0.339909 19.1531 0.0885746C18.5375 0.00843952 17.2624 -0.0261805 16.7084 0.0221518ZM18.8236 3.05595C18.6997 3.10985 18.5806 3.23031 18.5355 3.34744C18.5175 3.39411 18.4928 3.55448 18.4806 3.70382C18.4683 3.85316 18.3965 4.73139 18.321 5.65544C18.2454 6.57948 18.1744 7.42975 18.1631 7.54491L18.1425 7.75429L18.3444 7.77764C19.1275 7.86823 19.8157 8.12544 20.0895 8.42989L20.2253 8.58089L20.5011 8.38247C20.6529 8.27335 20.9617 8.04666 21.1874 7.87875C21.4131 7.71085 22.0268 7.25461 22.5513 6.86493C23.0758 6.47525 23.5439 6.10282 23.5916 6.03731C23.6565 5.94808 23.6777 5.87734 23.6758 5.75522C23.6727 5.55249 23.5939 5.43054 23.2091 5.03262C22.3011 4.09363 21.2347 3.51704 19.6804 3.12444C19.1869 2.99981 18.989 2.98399 18.8236 3.05595ZM15.5121 3.13327C15.2115 3.18245 14.2274 3.57162 13.7208 3.84165C13.5652 3.92461 13.2687 4.1012 13.0619 4.23412C12.5829 4.54206 11.9504 5.15043 11.7327 5.51268C11.5761 5.77331 11.4203 6.15247 11.4203 6.27303C11.4203 6.331 11.439 6.31916 11.5198 6.21007C11.9065 5.68744 12.5295 5.5082 13.1984 5.72702L13.3987 5.79256L13.5782 5.61695C13.8117 5.38839 14.2715 5.09676 14.6507 4.93673C15.1572 4.723 15.1081 4.69809 15.1767 5.20361C15.3893 6.77078 15.4496 7.25525 15.4341 7.27039C15.4245 7.27986 15.1065 7.09733 14.7275 6.86479C14.3485 6.63223 14.0341 6.44603 14.029 6.45095C14.024 6.45591 14.0434 6.5042 14.0722 6.55831C14.1385 6.68284 14.1408 7.07089 14.0766 7.30705C14.0503 7.40341 13.9881 7.56945 13.9383 7.67602C13.8884 7.7826 13.8476 7.87281 13.8476 7.87648C13.8476 7.88015 13.9571 7.82995 14.091 7.76491C14.2894 7.66852 14.3848 7.64381 14.6074 7.63119C14.8454 7.61771 14.9043 7.62657 15.0662 7.70022C15.1684 7.74669 15.3209 7.84783 15.4051 7.92498C15.4894 8.00213 15.5703 8.06526 15.5849 8.06526C15.5995 8.06526 15.6867 8.01968 15.7785 7.96398C15.9745 7.84508 16.3558 7.74404 16.7377 7.70986L17.0096 7.68553L16.99 7.57841C16.9609 7.4195 16.5293 4.36679 16.483 3.99232C16.4611 3.81498 16.4287 3.61459 16.4109 3.54704C16.3229 3.21137 15.9852 3.05588 15.5121 3.13327ZM20.111 4.69144C20.7923 4.98632 21.3961 5.3256 21.6671 5.56573L21.8058 5.68866L21.7047 5.76537C21.4519 5.95711 19.6591 7.18035 19.6475 7.16894C19.6403 7.16192 19.6588 6.88343 19.6886 6.55006C19.7184 6.21669 19.7691 5.6423 19.8013 5.2736C19.8334 4.9049 19.8705 4.60326 19.8835 4.60326C19.8966 4.60326 19.999 4.64294 20.111 4.69144ZM12.1692 7.00443C11.8913 7.42486 11.6625 8.00573 11.7279 8.12452C11.7865 8.23086 11.9193 8.33105 12.1221 8.42195C12.3186 8.50999 12.3912 8.5106 12.3912 8.42419C12.3912 8.32131 12.6472 7.89182 12.8681 7.62402C13.1512 7.28081 13.1691 7.24178 13.1022 7.11504C13.0416 7.00039 12.6817 6.81378 12.4667 6.78558L12.326 6.76711L12.1692 7.00443ZM5.87214 6.89918C4.37563 7.03453 3.49628 7.32843 3.26603 7.77018C3.16675 7.96065 3.1886 8.31615 3.31444 8.55741C3.44659 8.81071 3.67455 9.07318 3.84973 9.17364L4.00518 9.26284L4.078 9.19156C4.15533 9.11588 4.15522 9.11533 4.0161 8.87985C3.94183 8.7541 3.95331 8.56759 4.0435 8.43515C4.14971 8.27919 4.59291 8.0676 5.1266 7.91812C5.63371 7.77605 5.83746 7.73966 5.83746 7.79112C5.83746 7.84094 4.92316 9.59244 4.59585 10.1696C3.65669 11.8258 2.31136 13.7001 1.91238 13.9083C1.67939 14.0299 1.32393 13.9633 1.1322 13.7621C1.02551 13.6501 0.883125 13.3325 0.85743 13.1492C0.803301 12.7627 1.22097 12.0567 1.80873 11.5411C2.07553 11.3071 2.14859 11.2713 2.25051 11.3247C2.3434 11.3733 2.43113 11.3498 2.46342 11.2674C2.52174 11.1187 1.68022 10.5919 1.32084 10.5523C1.1149 10.5296 0.989823 10.6029 0.695112 10.9189C0.452726 11.1789 0.202435 11.5708 0.0790576 11.8836C0.01137 12.0552 -0.00104399 12.1488 6.56459e-05 12.4776C0.00117528 12.8086 0.0158779 12.9118 0.0967424 13.1564C0.260517 13.6519 0.530158 14.0514 0.896129 14.3408C1.36224 14.7094 1.89938 14.8451 2.27162 14.6884C2.67386 14.519 3.29564 13.9128 3.94731 13.0546C4.76462 11.9783 6.03851 9.91886 6.98056 8.151C7.17714 7.78209 7.1952 7.73091 7.17637 7.59636C7.13514 7.30196 6.96755 7.02727 6.76678 6.92501C6.67877 6.8802 6.22635 6.86714 5.87214 6.89918ZM26.319 6.9394C26.2531 7.01071 26.1587 7.31312 26.158 7.45524C26.1574 7.59154 26.0659 7.68495 25.8095 7.81135C24.9231 8.2483 23.45 9.19363 22.739 9.7819L22.5626 9.92785L22.1495 9.84656C21.0634 9.6329 20.3807 9.64254 19.9715 9.87724C19.6112 10.0839 19.2663 10.7476 19.247 11.2712C19.2394 11.4796 19.2997 11.5682 19.3406 11.4086C19.3715 11.2882 19.7861 11.0304 20.1408 10.911C20.5082 10.7873 20.9624 10.7127 21.3477 10.7127H21.6607L21.2988 11.0775C21.0997 11.2782 20.8421 11.551 20.7262 11.6836C20.0418 12.4672 19.4997 13.384 19.4999 13.7578C19.4999 13.9258 19.658 14.2462 19.8565 14.4801C20.1487 14.8246 20.5112 15.0324 20.4763 14.8352C20.414 14.4841 20.454 14.1312 20.6082 13.6693C20.9017 12.7904 21.3725 12.0899 22.4203 10.9726L22.6062 10.7743L23.0036 10.8653C23.494 10.9776 24.0145 11.1223 24.0562 11.1579C24.074 11.173 24.0182 11.3364 23.927 11.5364C23.6944 12.0466 23.5241 12.525 23.4911 12.7616C23.4538 13.0282 23.5161 13.326 23.6678 13.6068C23.8089 13.8679 24.1463 14.2204 24.238 14.2024C24.307 14.1889 24.3059 14.2066 24.264 13.7479C24.2379 13.4615 24.2755 13.2698 24.4452 12.8243C24.6254 12.3511 25.0003 11.595 25.0542 11.5959C25.0794 11.5963 25.139 11.6265 25.1867 11.663C25.3061 11.7545 25.4237 11.7501 25.4615 11.6528C25.4983 11.5579 25.4444 11.2402 25.3707 11.1181C25.3206 11.0351 25.3271 11.0159 25.5184 10.6768C25.839 10.109 26.5243 9.02345 27.178 8.04829C27.3104 7.85082 27.4056 7.67198 27.4057 7.62063C27.4063 7.38433 26.8839 6.96492 26.5017 6.89473C26.4066 6.87729 26.3676 6.88679 26.319 6.9394ZM31.5585 6.93672C31.5289 6.9694 31.4857 7.05873 31.4625 7.13527L31.4205 7.27443L30.8783 7.31543C29.4689 7.42204 28.9582 7.45381 28.6503 7.45405C28.2535 7.45439 28.1719 7.41057 28.0447 7.12896C28.0005 7.03134 27.9487 6.94191 27.9295 6.93027C27.8616 6.88923 27.7781 7.08185 27.7607 7.3192C27.7299 7.74017 27.8703 8.01611 28.1948 8.17251C28.347 8.2459 28.3966 8.25129 28.845 8.24359C29.112 8.23897 29.7128 8.19892 30.18 8.15453C30.6473 8.11013 31.0324 8.07592 31.0359 8.0785C31.0393 8.08108 30.9037 8.31459 30.7346 8.59746C30.5655 8.88032 30.3137 9.31542 30.1752 9.56431C29.9548 9.96033 29.8472 10.1038 29.3141 10.7127C28.979 11.0954 28.4878 11.6717 28.2226 11.9935C27.9573 12.3153 27.734 12.5725 27.7264 12.565C27.7002 12.5394 28.0872 11.7807 28.3693 11.3044C28.5249 11.0418 28.8477 10.5398 29.0867 10.1888C29.3257 9.83787 29.5212 9.52317 29.5212 9.48947C29.5212 9.30754 29.0234 8.89533 28.6848 8.79693C28.4817 8.73787 28.4647 8.74351 28.1632 8.96962C28.0552 9.05061 27.9264 9.1319 27.8771 9.15026C27.7921 9.18189 27.7874 9.17792 27.7874 9.07396C27.7874 9.01361 27.8029 8.91135 27.8219 8.84669C27.8762 8.66117 27.8172 8.62722 27.5194 8.67247C27.1624 8.72667 26.8195 8.83987 26.7214 8.93582C26.6367 9.0188 26.6353 9.02851 26.6496 9.45077C26.6605 9.77284 26.6798 9.91292 26.7265 10.0074L26.7888 10.1338L26.6353 10.3129C26.3149 10.6868 26.2306 10.866 26.2959 11.0342C26.3155 11.0844 26.3453 11.1204 26.3623 11.1142C26.3793 11.1081 26.5829 10.8795 26.8147 10.6064L27.2362 10.1097L27.5427 10.0548C27.7114 10.0246 27.8575 9.99991 27.8676 9.99991C27.8776 9.99991 27.7416 10.2786 27.5653 10.6193C27.077 11.5629 26.7582 12.3679 26.6936 12.8209C26.6471 13.1469 26.8903 13.7298 27.2047 14.0457C27.4152 14.2573 27.5167 14.2603 27.5482 14.0559C27.5753 13.8801 27.6064 13.8085 27.8229 13.4245C28.0901 12.9507 29.1341 11.4254 29.1912 11.4254C29.1981 11.4254 29.1421 11.5667 29.0667 11.7394C28.7234 12.5251 28.6467 12.9443 28.7757 13.3278C28.9002 13.6977 29.3093 14.2086 29.4811 14.2086C29.5585 14.2086 29.5633 14.1989 29.544 14.0821C29.5264 13.9764 29.5482 13.9069 29.6758 13.6611C30.0006 13.0354 30.5739 12.1882 31.4061 11.1043C31.9857 10.3492 32.0862 10.195 32.0868 10.0593C32.0879 9.80604 31.8636 10.0229 30.6562 11.4424C29.7779 12.475 29.8248 12.442 30.1489 11.7988C30.4718 11.1581 30.8438 10.5082 31.3855 9.63867C31.6856 9.15691 32.4496 7.97308 32.4823 7.93917C32.5046 7.91605 33.649 7.82788 33.9279 7.82777C34.3521 7.82764 34.6706 7.88507 34.6143 7.95156C34.5926 7.97711 34.4895 8.02236 34.3852 8.05202C34.262 8.08708 34.2074 8.1176 34.2293 8.13908C34.2817 8.19037 34.7289 8.24773 34.8719 8.22146L35 8.19794V7.65844C35 7.26408 34.9883 7.11151 34.9567 7.09145C34.8931 7.0512 34.0924 7.07367 33.1672 7.14165L32.3573 7.20119L32.238 7.1218C32.0697 7.00989 31.7712 6.87803 31.6851 6.87766C31.6452 6.87745 31.5882 6.90403 31.5585 6.93672ZM25.335 8.87045C25.1116 9.25381 24.8323 9.75224 24.5838 10.2108C24.4027 10.5449 24.3805 10.572 24.3099 10.5454C24.2677 10.5295 24.1005 10.4637 23.9383 10.3993C23.7762 10.3348 23.5695 10.2555 23.479 10.2231L23.3144 10.1641L23.5708 9.9508C24.1041 9.50718 25.4601 8.5252 25.4938 8.55822C25.5019 8.5661 25.4304 8.70661 25.335 8.87045ZM6.98687 8.83033C6.92372 8.9089 6.84307 9.17806 6.84307 9.31026C6.84307 9.33979 6.76397 9.49921 6.66729 9.66457C6.27709 10.3321 5.69893 11.5866 5.44909 12.3079C5.27044 12.8237 5.24655 13.0842 5.35182 13.3677C5.44961 13.6311 5.60728 13.8753 5.80147 14.0644C5.92207 14.1818 5.97346 14.2086 6.07749 14.2086C6.41007 14.2086 6.80385 13.7928 7.42275 12.788C7.43956 12.7608 7.45153 12.8228 7.45219 12.9408C7.45357 13.1786 7.5387 13.4454 7.6945 13.6999C7.85048 13.9548 8.11082 14.2086 8.2162 14.2086C8.28847 14.2086 8.29946 14.1927 8.29946 14.0881C8.29946 13.9568 8.46268 13.6128 8.75441 13.1293C9.06258 12.6184 9.93756 11.384 9.87788 11.5442C9.86397 11.5816 9.79344 11.7648 9.72111 11.9515C9.57214 12.336 9.52158 12.5066 9.47664 12.7769C9.41381 13.1548 9.61132 13.6545 9.9655 14.0135C10.1952 14.2463 10.3107 14.2736 10.3107 14.0953C10.3107 13.9087 10.6825 13.2385 11.2471 12.4073C11.5193 12.0066 11.9511 11.4246 11.9656 11.4388C11.97 11.4431 11.9252 11.6289 11.866 11.8518C11.6214 12.7721 11.7734 13.5742 12.2878 14.0786C12.5224 14.3085 12.7018 14.3748 12.8841 14.2988C13.0468 14.231 13.0986 14.1627 13.5184 13.4619C14.2762 12.197 14.7492 11.4569 14.7492 11.5359C14.7492 11.5467 14.7201 11.6221 14.6845 11.7033C14.6489 11.7846 14.5592 12.0264 14.4851 12.2407C14.3678 12.5801 14.3504 12.6701 14.3504 12.9384C14.3504 13.2338 14.3566 13.2587 14.502 13.5458C14.6697 13.877 14.9626 14.2086 15.0876 14.2086C15.1437 14.2086 15.1706 14.1782 15.1969 14.0849C15.2559 13.8761 15.5971 13.3202 16.319 12.257C16.6949 11.7033 16.7481 11.634 16.6968 11.7648C16.5163 12.2257 15.7972 13.7588 15.4154 14.4969C15.2037 14.9063 15.1111 15.0469 14.942 15.2158C14.6262 15.5314 14.5175 15.5378 14.1675 15.2617C13.9969 15.1271 13.9455 15.1012 13.9295 15.1421C13.8966 15.226 13.9859 15.3916 14.1568 15.5633C14.4774 15.8855 14.8841 16.0398 15.2008 15.9594C15.6614 15.8425 16.0024 15.352 16.8442 13.5951C17.8877 11.4172 18.1321 10.9539 18.7419 9.99634C18.926 9.7072 19.0144 9.53515 19.0144 9.46561C19.0144 9.2326 18.6393 8.86196 18.3178 8.77721C18.0856 8.71601 18.0216 8.79024 17.9398 9.21587C17.8749 9.55344 17.3912 10.3005 16.5749 11.3236C16.1112 11.9049 15.3039 12.8282 15.28 12.8048C15.2729 12.7979 15.3174 12.6566 15.3787 12.4907C15.5501 12.0272 15.9785 11.2182 16.5179 10.3393C16.9509 9.63395 17.0054 9.5284 16.9894 9.42671C16.9513 9.18508 16.6643 8.90551 16.3389 8.79313C16.0871 8.70617 16.0156 8.77748 15.9287 9.20229C15.8643 9.5175 15.536 10.038 15.0618 10.5769C14.5859 11.1177 13.9627 11.8539 13.4845 12.4402C13.0746 12.9427 12.5456 13.4753 12.4898 13.4416C12.4622 13.4249 12.4567 13.3006 12.4712 13.0241C12.5097 12.2905 12.7406 11.6722 13.2676 10.8922C13.5551 10.4667 13.8598 10.0874 13.8761 10.1348C13.8822 10.1525 13.8223 10.3158 13.743 10.4975C13.6061 10.8111 13.602 10.8303 13.6618 10.8731C13.7791 10.9571 13.9991 10.8683 14.1984 10.6564C14.4032 10.4387 14.8084 9.65286 14.9061 9.28399C14.9824 8.99572 14.9506 8.93134 14.7077 8.88199C14.5789 8.85582 14.4675 8.8549 14.3379 8.87897C14.1777 8.9087 14.14 8.90486 14.0607 8.85086C13.8913 8.73543 13.8247 8.73981 13.6459 8.87815C13.4011 9.06754 13.078 9.42929 12.8074 9.81676C12.6757 10.0054 12.3293 10.4331 12.0375 10.7673C11.7457 11.1015 11.2839 11.646 11.0113 11.9772C10.7386 12.3084 10.509 12.5794 10.5009 12.5794C10.4763 12.5794 10.5203 12.478 10.7291 12.0533C10.9667 11.5702 11.3796 10.8901 11.9052 10.1165C12.1153 9.80726 12.2872 9.53155 12.2872 9.50386C12.2872 9.33901 11.9924 9.04195 11.6746 8.88667C11.3916 8.74833 11.3033 8.73231 11.218 8.80372C11.147 8.86318 11.0389 9.16665 11.0389 9.30669C11.0389 9.43326 10.6093 10.1004 10.3085 10.4411C10.1519 10.6185 9.94397 10.8536 9.84646 10.9637C9.74895 11.0738 9.4507 11.4257 9.1837 11.7457C8.91669 12.0658 8.64733 12.3881 8.58509 12.462L8.47197 12.5964L8.544 12.4097C8.71422 11.9687 9.25697 11.0444 9.88568 10.1249C10.1004 9.81096 10.276 9.53318 10.276 9.50766C10.276 9.32767 10.0327 9.06771 9.71927 8.91284C9.36211 8.73638 9.22018 8.80518 9.07818 9.22364C9.04642 9.31725 8.94624 9.50352 8.85559 9.63748C8.76492 9.77148 8.48324 10.2019 8.22959 10.5939C7.37104 11.9209 6.77344 12.7565 6.41971 13.1246C6.27334 13.2769 6.12333 13.394 6.07468 13.394C6.0356 13.394 6.16845 12.9609 6.29872 12.6635C6.56115 12.0645 7.08178 11.099 7.71552 10.0361C8.03114 9.50674 8.04906 9.41656 7.88269 9.19513C7.76566 9.03934 7.5232 8.87421 7.2967 8.79598C7.09568 8.72657 7.06773 8.72966 6.98687 8.83033ZM22.7117 14.0773C22.704 14.1029 22.6633 14.2536 22.6212 14.4123C22.3782 15.3286 21.7766 16.0207 20.9371 16.3498C20.4226 16.5514 20.1996 16.5906 19.4569 16.6096C18.7815 16.6269 18.7727 16.628 18.789 16.6991C18.7981 16.7388 18.8379 16.9618 18.8775 17.1948C18.9598 17.6798 19.0099 17.8038 19.1786 17.9399C19.4313 18.1438 19.7072 18.1541 20.2348 17.9796C21.4275 17.585 22.634 16.864 23.3567 16.1142C23.5705 15.8923 23.8441 15.5335 23.8914 15.4128C23.9056 15.3766 23.793 15.2399 23.5343 14.9794C23.1472 14.5897 22.9744 14.3932 22.8158 14.1621C22.7602 14.0812 22.7203 14.0487 22.7117 14.0773ZM11.7749 15.0317C11.7123 15.1069 11.6284 15.3343 11.6284 15.4286C11.6284 15.89 12.2123 16.4415 13.5149 17.2104C14.5015 17.7928 15.5309 18.1797 16.0938 18.1797C16.3546 18.1797 16.5997 18.0945 16.718 17.9625C16.8004 17.8707 16.8253 17.8049 16.843 17.632C16.8805 17.2668 16.9336 16.5085 16.9337 16.3382L16.9338 16.1767L16.7293 16.3133C16.2289 16.6476 15.7377 16.8027 15.1827 16.8016C14.858 16.801 14.7599 16.7869 14.5238 16.7074C14.1632 16.586 14.0198 16.5017 13.5746 16.1493C13.3719 15.9889 13.0074 15.7009 12.7646 15.5092C12.178 15.0462 11.8818 14.9033 11.7749 15.0317ZM25.855 15.2936C25.3431 16.131 24.4192 17.1393 23.5222 17.8395C22.1641 18.8997 20.6582 19.5325 18.945 19.763C18.3591 19.8418 17.1235 19.8414 16.5003 19.7622C14.8984 19.5585 13.5954 19.099 12.4024 18.3172C11.2899 17.5881 10.4373 16.7381 9.60883 15.5323C9.40868 15.241 9.27393 15.0761 9.23887 15.0796C9.20853 15.0826 8.91843 15.1732 8.59421 15.281C8.26999 15.3886 7.98387 15.4817 7.95839 15.4877C7.89694 15.502 8.11661 15.9023 8.46119 16.4039C9.68997 18.1925 11.5131 19.6683 13.5418 20.5167C14.6075 20.9623 15.7435 21.1804 17.2285 21.2244C19.2799 21.2851 21.4105 20.8062 23.0149 19.9237C23.9439 19.4128 24.6114 18.9155 25.3774 18.1636C26.0461 17.5073 26.6369 16.7563 27.1604 15.8975L27.2378 15.7706L26.9801 15.6556C26.6424 15.5049 26.3633 15.3282 26.1802 15.1489L26.0321 15.0039L25.855 15.2936Z" fill="#747474"/>
</svg>
