<svg width="16" height="16" viewBox="0 0 16 16" fill="none" xmlns="http://www.w3.org/2000/svg">
<path d="M8.00005 0.0333061C3.58179 0.0333061 0 3.6151 0 8.03335C0 11.996 2.88417 15.2778 6.6658 15.9133V9.70238H4.73595V7.46734H6.6658V5.81931C6.6658 3.90712 7.83371 2.86509 9.53976 2.86509C10.3569 2.86509 11.0591 2.92597 11.2629 2.95279V4.95154L10.0796 4.95211C9.15202 4.95211 8.97318 5.39282 8.97318 6.03976V7.4662H11.1866L10.8979 9.70123H8.97318V15.9667C12.9314 15.4849 16 12.1196 16 8.03106C16 3.6151 12.4182 0.0333061 8.00005 0.0333061Z" fill="#33548C"/>
</svg>
