<svg width="16" height="16" viewBox="0 0 16 16" fill="none" xmlns="http://www.w3.org/2000/svg">
<g clip-path="url(#clip0)">
<path d="M6.00005 2.00003H3.3334C2.96522 2.00003 2.66675 2.2985 2.66675 2.66669V5.33334C2.66675 5.70152 2.96522 5.99999 3.3334 5.99999H6.00005C6.36823 5.99999 6.6667 5.70152 6.6667 5.33334V2.66669C6.6667 2.2985 6.36823 2.00003 6.00005 2.00003ZM5.33339 4.66668H4.00006V3.33334H5.33339V4.66668Z" fill="url(#paint0_linear)"/>
<path d="M15.3989 1.98864C14.6513 0.754335 13.3118 0.0109299 11.3368 0.000711199C10.8637 -0.0017263 10.5387 0.475679 10.7144 0.914959L12.0477 4.2483C12.149 4.50139 12.3941 4.66736 12.6667 4.66736H13.3334V10.6673C13.3334 11.4045 12.7372 12.0007 12 12.0007C11.2629 12.0007 10.6667 11.4045 10.6667 10.6673V6.0007C10.6667 4.75739 9.81721 3.71367 8.66662 3.41792V0.667366C8.66662 0.299179 8.36815 0.000711199 7.99997 0.000711199H1.33334C0.965152 0.000711199 0.666685 0.299179 0.666685 0.667366V12.6673C0.298468 12.6673 0 12.9658 0 13.334V15.334C0 15.7022 0.298468 16.0007 0.666654 16.0007H8.66662C9.03481 16.0007 9.33328 15.7022 9.33328 15.334V13.334C9.33328 12.9658 9.03481 12.6674 8.66662 12.6674V4.8458C9.06528 5.07614 9.33334 5.50661 9.33334 6.0007V10.6673C9.33334 12.1409 10.5265 13.334 12 13.334C13.4735 13.334 14.6666 12.1408 14.6666 10.6673V4.66736H15.3333C15.7015 4.66736 15.9999 4.36889 15.9999 4.0007C16 3.47314 15.851 2.73524 15.3989 1.98864ZM7.99997 14.6673H1.33334V14.0007H7.99997V14.6673ZM1.99999 12.6673V1.33405H7.33331V12.6674H1.99999V12.6673ZM12.3566 1.43049C13.2747 1.61471 13.8799 2.05439 14.2584 2.67936C14.3846 2.8878 14.4797 3.10899 14.5473 3.33405H13.118L12.3566 1.43049Z" fill="url(#paint1_linear)"/>
<path d="M5.33348 7.33334H4.00015C3.63196 7.33334 3.3335 7.63181 3.3335 8C3.3335 8.36818 3.63196 8.66665 4.00015 8.66665H5.33348C5.70167 8.66665 6.00013 8.36818 6.00013 8C6.00013 7.63181 5.70167 7.33334 5.33348 7.33334Z" fill="url(#paint2_linear)"/>
</g>
<defs>
<linearGradient id="paint0_linear" x1="4.66672" y1="2.00003" x2="4.66672" y2="5.99999" gradientUnits="userSpaceOnUse">
<stop stop-color="#30A8C4"/>
<stop offset="1" stop-color="#33548C"/>
</linearGradient>
<linearGradient id="paint1_linear" x1="7.99997" y1="0.000701904" x2="7.99997" y2="16.0007" gradientUnits="userSpaceOnUse">
<stop stop-color="#30A8C4"/>
<stop offset="1" stop-color="#33548C"/>
</linearGradient>
<linearGradient id="paint2_linear" x1="4.66682" y1="7.33334" x2="4.66682" y2="8.66665" gradientUnits="userSpaceOnUse">
<stop stop-color="#30A8C4"/>
<stop offset="1" stop-color="#33548C"/>
</linearGradient>
<clipPath id="clip0">
<rect width="16" height="16" fill="white"/>
</clipPath>
</defs>
</svg>
