<svg width="16" height="16" viewBox="0 0 16 16" fill="none" xmlns="http://www.w3.org/2000/svg">
<g clip-path="url(#clip0)">
<path d="M3.54991 6.03325L0.824781 4.45991C0.298219 5.524 3.125e-05 6.72406 0 7.99994C0 9.25816 0.301406 10.4603 0.836062 11.5338L3.54972 9.96709C3.28206 9.36441 3.13041 8.69966 3.13044 7.99994C3.13047 7.30025 3.28222 6.63572 3.54991 6.03325Z" fill="#33548C"/>
<path d="M13.2476 1.9615C11.8417 0.738564 10.0045 -0.00134192 7.99441 1.82717e-06C5.24437 0.00184558 2.78981 1.40578 1.34766 3.557L4.075 5.13169C4.96191 3.92188 6.38875 3.13041 8.00003 3.13044C9.17462 3.13047 10.2513 3.55035 11.0923 4.2461C11.2982 4.41638 11.5992 4.40078 11.7881 4.21188L13.2734 2.72653C13.4876 2.51235 13.4761 2.16025 13.2476 1.9615Z" fill="#33548C"/>
<path d="M15.9455 7.07438C15.9144 6.80953 15.6917 6.60906 15.4251 6.60906L8.86989 6.60872C8.58177 6.60872 8.34814 6.84231 8.34814 7.13047V9.21569C8.34814 9.50381 8.58174 9.73744 8.86989 9.73744H12.5433C12.2049 10.618 11.6172 11.375 10.869 11.9253L12.4293 14.6278C13.9998 13.5635 15.1939 11.9544 15.7198 10.0549C16.0058 9.02216 16.0572 8.02347 15.9455 7.07438Z" fill="#33548C"/>
<path d="M9.96697 12.4494C9.36525 12.7175 8.701 12.8695 8.0005 12.8696C6.38741 12.8696 4.96137 12.0781 4.07509 10.8688L1.35938 12.4367C2.78944 14.5668 5.2165 16 8.00044 16C9.25894 16 10.4568 15.6923 11.5282 15.1536L9.96697 12.4494Z" fill="#33548C"/>
</g>
<defs>
<clipPath id="clip0">
<rect width="16" height="16" fill="white"/>
</clipPath>
</defs>
</svg>
