<svg width="16" height="14" viewBox="0 0 16 14" fill="none" xmlns="http://www.w3.org/2000/svg">
<path d="M8.02852 13.2861C8.01924 13.2922 8.01015 13.2982 8.00127 13.304C7.99235 13.2981 7.98322 13.2921 7.97388 13.286C7.78419 13.1611 7.51142 12.9783 7.18129 12.7478C6.52041 12.2865 5.63271 11.6365 4.72269 10.8804C3.81097 10.1229 2.88686 9.26711 2.14708 8.39499C1.39946 7.51361 0.878801 6.66009 0.7113 5.90717L0.705949 5.88312L0.698259 5.85971C0.570458 5.47066 0.5 5.05527 0.5 4.62194C0.5 3.10714 1.338 1.78776 2.57834 1.10052C3.15693 0.782629 3.81588 0.600611 4.51851 0.600611C5.76374 0.600611 6.87654 1.1666 7.6169 2.05704L8.00227 2.52053L8.38657 2.05615C9.1226 1.16673 10.236 0.600611 11.4796 0.600611C12.1845 0.600611 12.8447 0.782827 13.4213 1.10038C14.6621 1.78879 15.5 3.10792 15.5 4.62194C15.5 5.05411 15.4289 5.47013 15.3009 5.85971L15.2933 5.88305L15.2879 5.90703C15.1201 6.66012 14.5995 7.51372 13.8521 8.3951C13.1126 9.26724 12.189 10.123 11.2778 10.8805C10.3682 11.6366 9.48108 12.2866 8.82061 12.7479C8.49069 12.9784 8.21809 13.1612 8.02852 13.2861Z" fill="#333333" fill-opacity="0.25" stroke="white"/>
</svg>
