<svg width="30" height="30" viewBox="0 0 30 30" fill="none" xmlns="http://www.w3.org/2000/svg">
<path d="M29.1211 3.64056H24.3516V4.64445C24.3516 5.12984 23.958 5.52336 23.4727 5.52336C22.9873 5.52336 22.5938 5.12984 22.5938 4.64445V3.64056H18.7031V4.64445C18.7031 5.12984 18.3096 5.52336 17.8242 5.52336C17.3388 5.52336 16.9453 5.12984 16.9453 4.64445V3.64056H13.0547V4.64445C13.0547 5.12984 12.6612 5.52336 12.1758 5.52336C11.6904 5.52336 11.2969 5.12984 11.2969 4.64445V3.64056H7.40625V4.64445C7.40625 5.12984 7.01273 5.52336 6.52734 5.52336C6.04195 5.52336 5.64844 5.12984 5.64844 4.64445V3.64056H0.878906C0.393516 3.64056 0 4.03408 0 4.51947V7.53119H30V4.51947C30 4.03408 29.6065 3.64056 29.1211 3.64056Z" fill="white"/>
<path d="M0 10.168V29.1211C0 29.6065 0.393516 30 0.878906 30H29.1211C29.6065 30 30 29.6065 30 29.1211V10.168V9.28909H0V10.168ZM8.47266 13.1173C8.47266 12.6319 8.86617 12.2384 9.35156 12.2384H20.6484C21.1338 12.2384 21.5273 12.6319 21.5273 13.1173V24.4141C21.5273 24.8995 21.1338 25.293 20.6484 25.293H9.35156C8.86617 25.293 8.47266 24.8995 8.47266 24.4141V13.1173Z" fill="white"/>
<path d="M19.7695 17.1219L15.6214 21.2699C15.4498 21.4415 15.2249 21.5274 15 21.5274C14.7751 21.5274 14.5501 21.4416 14.3786 21.2699L12.025 18.9164C11.6818 18.5731 11.6818 18.0167 12.025 17.6734C12.3682 17.3302 12.9247 17.3302 13.268 17.6734L15 19.4055L19.7695 14.636V13.9961H10.2305V23.5352H19.7695V17.1219Z" fill="white"/>
<path d="M24.3516 0.878906C24.3516 0.393516 23.958 0 23.4727 0C22.9873 0 22.5938 0.393516 22.5938 0.878906V1.88279H24.3516V0.878906Z" fill="white"/>
<path d="M13.0547 0.878906C13.0547 0.393516 12.6612 0 12.1758 0C11.6904 0 11.2969 0.393516 11.2969 0.878906V1.88279H13.0547V0.878906Z" fill="white"/>
<path d="M7.40625 0.878906C7.40625 0.393516 7.01273 0 6.52734 0C6.04195 0 5.64844 0.393516 5.64844 0.878906V1.88279H7.40625V0.878906Z" fill="white"/>
<path d="M18.7031 0.878906C18.7031 0.393516 18.3096 0 17.8242 0C17.3388 0 16.9453 0.393516 16.9453 0.878906V1.88279H18.7031V0.878906Z" fill="white"/>
</svg>
