<svg width="16" height="16" viewBox="0 0 16 16" fill="none" xmlns="http://www.w3.org/2000/svg">
<path d="M8.6875 11.9078V8.625H12.6562C13.6901 8.625 14.5312 7.78387 14.5312 6.75V4.09216C15.3814 3.82569 16 3.03062 16 2.09375C16 0.93925 15.0608 0 13.9062 0C12.7517 0 11.8125 0.93925 11.8125 2.09375C11.8125 3.03062 12.4311 3.82572 13.2812 4.09216V6.75C13.2812 7.09462 13.0009 7.375 12.6562 7.375H8.6875V4.09216C9.53766 3.82569 10.1562 3.03062 10.1562 2.09375C10.1562 0.93925 9.217 0 8.0625 0C6.908 0 5.96875 0.93925 5.96875 2.09375C5.96875 3.03062 6.58734 3.82572 7.4375 4.09216V7.375H3.34375C2.99913 7.375 2.71875 7.09462 2.71875 6.75V4.09216C3.56891 3.82569 4.1875 3.03062 4.1875 2.09375C4.1875 0.93925 3.24825 0 2.09375 0C0.93925 0 0 0.93925 0 2.09375C0 3.03062 0.618594 3.82572 1.46875 4.09216V6.75C1.46875 7.22984 1.65016 7.668 1.94772 8C1.65016 8.332 1.46875 8.77016 1.46875 9.25V11.9078C0.618594 12.1743 0 12.9694 0 13.9062C0 15.0608 0.93925 16 2.09375 16C3.24825 16 4.1875 15.0608 4.1875 13.9062C4.1875 12.9694 3.56891 12.1743 2.71875 11.9078V9.25C2.71875 8.90537 2.99913 8.625 3.34375 8.625H7.4375V11.9078C6.58734 12.1743 5.96875 12.9694 5.96875 13.9062C5.96875 15.0608 6.908 16 8.0625 16C9.217 16 10.1562 15.0608 10.1562 13.9062C10.1562 12.9694 9.53766 12.1743 8.6875 11.9078ZM13.9062 1.25C14.3715 1.25 14.75 1.6285 14.75 2.09375C14.75 2.559 14.3715 2.9375 13.9062 2.9375C13.441 2.9375 13.0625 2.559 13.0625 2.09375C13.0625 1.6285 13.441 1.25 13.9062 1.25ZM8.0625 1.25C8.52775 1.25 8.90625 1.6285 8.90625 2.09375C8.90625 2.559 8.52775 2.9375 8.0625 2.9375C7.59725 2.9375 7.21875 2.559 7.21875 2.09375C7.21875 1.6285 7.59725 1.25 8.0625 1.25ZM2.09375 1.25C2.559 1.25 2.9375 1.6285 2.9375 2.09375C2.9375 2.559 2.559 2.9375 2.09375 2.9375C1.6285 2.9375 1.25 2.559 1.25 2.09375C1.25 1.6285 1.6285 1.25 2.09375 1.25ZM2.09375 14.75C1.6285 14.75 1.25 14.3715 1.25 13.9062C1.25 13.441 1.6285 13.0625 2.09375 13.0625C2.559 13.0625 2.9375 13.441 2.9375 13.9062C2.9375 14.3715 2.559 14.75 2.09375 14.75ZM8.0625 14.75C7.59725 14.75 7.21875 14.3715 7.21875 13.9062C7.21875 13.441 7.59725 13.0625 8.0625 13.0625C8.52775 13.0625 8.90625 13.441 8.90625 13.9062C8.90625 14.3715 8.52775 14.75 8.0625 14.75ZM16 12.3594C16 11.403 15.222 10.625 14.2656 10.625H12.1875V16H13.4375V14.0938H13.6039L14.5747 16H15.9774L14.9376 13.9582C15.5612 13.6951 16 13.0776 16 12.3594ZM13.4375 11.875H14.2656C14.5327 11.875 14.75 12.0923 14.75 12.3594C14.75 12.6265 14.5327 12.8438 14.2656 12.8438H13.4375V11.875Z" fill="url(#paint0_linear)"/>
<defs>
<linearGradient id="paint0_linear" x1="8" y1="0" x2="8" y2="16" gradientUnits="userSpaceOnUse">
<stop stop-color="#30A8C4"/>
<stop offset="1" stop-color="#33548C"/>
</linearGradient>
</defs>
</svg>
