<svg width="16" height="16" viewBox="0 0 16 16" fill="none" xmlns="http://www.w3.org/2000/svg">
<g clip-path="url(#clip0)">
<path d="M7.99772 0C3.57741 0 0 3.57803 0 8C0 12.6034 3.86662 16.2553 8.46631 15.986V12.0772C8.01884 12.6823 7.51419 13.2712 6.97584 13.8073C6.79244 13.9898 6.49578 13.9892 6.31313 13.8057C6.13053 13.6222 6.13122 13.3254 6.31466 13.1428C7.77078 11.693 8.95541 9.85287 9.33266 8.45481C9.88125 6.42194 7.19481 5.857 6.67362 7.53119C6.59666 7.77834 6.334 7.91631 6.08687 7.83934C5.83978 7.76237 5.70184 7.49963 5.77878 7.25244C6.08544 6.26741 6.98406 5.60559 8.01488 5.60559C9.08338 5.60559 10.0582 6.33994 10.2916 7.42003C10.5295 7.19625 10.8062 7.01337 11.1104 6.88272C10.8806 6.19447 10.426 5.59878 9.79816 5.19369C9.58069 5.05337 9.51806 4.76328 9.65834 4.54572C9.79862 4.32812 10.0886 4.2655 10.3062 4.40584C11.1408 4.94431 11.7377 5.74275 12.0248 6.66281C12.369 6.63966 12.7061 6.67894 13.0269 6.77591C12.4924 4.40537 10.3633 2.79309 8.01491 2.79309C6.28628 2.79309 4.77181 3.64731 3.85334 4.90369C3.37275 5.56109 3.12669 6.41269 2.87947 6.92541C2.76703 7.15856 2.48694 7.25641 2.25378 7.14397C2.02069 7.0315 1.92284 6.75131 2.03528 6.51813C2.26106 6.04994 2.53516 5.11866 3.09681 4.35031C4.16928 2.88325 5.94869 1.85559 8.01491 1.85559C11.141 1.85559 13.7991 4.248 14.0618 7.35C14.652 7.86569 15.0255 8.62362 15.0255 9.46728C15.0255 9.94241 15.0427 10.1041 14.9502 10.375C15.084 10.375 15.489 10.375 15.6354 10.375C17.2306 5.22931 13.3924 0 7.99772 0ZM6.85284 3.89372C7.40106 3.73662 7.99878 3.68634 8.60569 3.77209C8.86197 3.80828 9.04037 4.04544 9.00419 4.30178C8.968 4.55813 8.73072 4.73641 8.47466 4.70038C8.019 4.63606 7.55387 4.66803 7.11097 4.79494C6.86231 4.86622 6.60275 4.72241 6.53144 4.47341C6.46016 4.22456 6.60406 3.965 6.85284 3.89372ZM7.56822 7.81053C7.64522 7.56341 7.90794 7.42534 8.15503 7.5025C8.40213 7.5795 8.54003 7.84231 8.46303 8.08947C7.77356 10.3027 6.31369 11.9937 4.7475 12.87C4.52128 12.9966 4.23591 12.9154 4.10975 12.6898C3.98341 12.4639 4.06406 12.1783 4.28994 12.0518C4.84594 11.7407 6.72563 10.5153 7.56822 7.81053ZM5.81141 8.45478C6.03275 8.58894 6.10344 8.87722 5.96931 9.09863C5.36556 10.0952 4.4325 11.0489 3.36819 11.4447C3.12562 11.5349 2.85584 11.4114 2.76562 11.1687C2.67544 10.926 2.799 10.6562 3.04156 10.566C3.89956 10.2469 4.67778 9.42153 5.16778 8.61272C5.30191 8.39128 5.59009 8.32063 5.81141 8.45478ZM2.34109 8.81525C3.08831 8.55572 3.62734 7.86238 3.98894 6.69559C4.22438 5.93587 4.66722 5.26163 5.26956 4.74572C5.46609 4.57734 5.76197 4.60028 5.93028 4.79691C6.09862 4.99353 6.07572 5.28947 5.87913 5.45781C5.41122 5.85856 5.06716 6.38259 4.88413 6.97316C4.4345 8.42406 3.68231 9.34178 2.64853 9.70084C2.40419 9.78572 2.13706 9.65653 2.05212 9.41178C1.96725 9.16728 2.09663 8.90016 2.34109 8.81525Z" fill="#33548C"/>
<path d="M14.5581 11.3125H11.2793V9.46728C11.2793 8.95113 11.699 8.53125 12.215 8.53125C12.731 8.53125 13.1508 8.95116 13.1508 9.46728V9.92188C13.1508 10.1807 13.3606 10.3906 13.6194 10.3906C13.8782 10.3906 14.088 10.1807 14.088 9.92188V9.46728C14.088 8.43419 13.2478 7.59375 12.215 7.59375C11.1823 7.59375 10.3421 8.43422 10.3421 9.46728V11.3125H9.87195C9.61313 11.3125 9.40332 11.5224 9.40332 11.7812V15.5312C9.40332 15.7901 9.61313 16 9.87195 16H14.5581C14.8169 16 15.0267 15.7901 15.0267 15.5312V11.7812C15.0267 11.5224 14.8169 11.3125 14.5581 11.3125ZM12.6836 14.0938H11.7464C11.4876 14.0938 11.2778 13.8839 11.2778 13.625C11.2778 13.3661 11.4876 13.1562 11.7464 13.1562H12.6836C12.9424 13.1562 13.1523 13.3661 13.1523 13.625C13.1523 13.8839 12.9424 14.0938 12.6836 14.0938Z" fill="#30A8C4"/>
</g>
<defs>
<clipPath id="clip0">
<rect width="16" height="16" fill="white"/>
</clipPath>
</defs>
</svg>
