<svg width="16" height="16" viewBox="0 0 16 16" fill="none" xmlns="http://www.w3.org/2000/svg">
<path d="M15.4734 9.75263C14.8827 8.60963 13.9735 7.82473 12.8443 7.48276C12.121 7.26373 11.4773 7.26951 11.0485 7.31776C10.9348 7.06341 10.784 6.82938 10.6026 6.62248C10.93 6.16476 11.3972 5.94557 11.9243 5.6986C12.6551 5.3562 13.4834 4.96811 13.8829 3.88045C14.101 3.28701 13.9623 2.60645 13.4925 1.96405C13.0978 1.42421 12.4845 0.930207 11.7655 0.57302C10.8226 0.104552 9.7949 -0.0861349 8.87133 0.0361149C7.74602 0.185083 6.81768 0.78402 6.18656 1.76827C5.49206 2.85139 5.2669 4.03117 5.53534 5.18007C5.70747 5.91651 6.03459 6.47129 6.29078 6.81841C6.12922 7.04023 6.00006 7.28688 5.90975 7.55151C5.35059 7.49644 4.92716 7.20166 4.45019 6.86895C3.78825 6.40723 3.03803 5.88398 1.89629 6.08176C1.27335 6.1897 0.753257 6.65004 0.431789 7.37807C0.161664 7.98979 0.0405394 8.76797 0.0906643 9.56919C0.156414 10.62 0.505195 11.6055 1.07276 12.3441C1.76441 13.2442 2.74735 13.7487 3.91522 13.8031C4.00016 13.8071 4.08431 13.809 4.16791 13.809C5.34906 13.809 6.39168 13.4148 7.19549 12.6612C7.74649 12.1446 8.0633 11.5847 8.23596 11.1893C8.33099 11.1992 8.42737 11.2045 8.52502 11.2045C8.7088 11.2045 8.88837 11.186 9.06224 11.1516C9.29402 11.6635 9.2503 12.1772 9.20068 12.7565C9.1318 13.5606 9.05371 14.4719 9.7959 15.3618C10.1436 15.7787 10.6785 16 11.3236 16C11.4298 16 11.539 15.994 11.6507 15.9819C12.3156 15.9099 13.0501 15.6257 13.7189 15.1817C14.5961 14.5993 15.2751 13.8045 15.631 12.9437C16.0647 11.8947 16.0102 10.7913 15.4734 9.75263ZM7.06496 2.33145C8.11615 0.692051 10.004 0.863051 11.3012 1.50755C12.3932 2.05008 13.1119 2.95311 12.9034 3.52064C12.6519 4.20536 12.1354 4.44733 11.4815 4.75367C10.901 5.02567 10.2575 5.32726 9.77815 5.97988C9.40171 5.78748 8.97608 5.67817 8.52512 5.67817C7.98756 5.67817 7.48571 5.83301 7.06084 6.09967C6.85931 5.80154 6.65828 5.39942 6.55153 4.94257C6.34575 4.06217 6.5185 3.1837 7.06496 2.33145ZM6.48184 11.8998C5.82231 12.5182 4.97481 12.808 3.96384 12.7607C2.0185 12.67 1.22263 10.9497 1.13219 9.50397C1.05604 8.28707 1.47876 7.21307 2.07444 7.10985C2.79294 6.98532 3.26094 7.3116 3.85322 7.72473C4.37884 8.09135 4.9614 8.49772 5.76575 8.58675C5.81759 9.58075 6.39728 10.437 7.22903 10.8807C7.07159 11.2042 6.82393 11.5791 6.48184 11.8998ZM8.52505 10.1609C7.57687 10.1609 6.8054 9.3895 6.8054 8.44129C6.8054 7.4931 7.57687 6.72166 8.52505 6.72166C9.47324 6.72166 10.2447 7.4931 10.2447 8.44129C10.2447 9.3895 9.47327 10.1609 8.52505 10.1609ZM13.1418 14.3124C12.126 14.9867 10.9845 15.1577 10.5973 14.6934C10.1301 14.1333 10.1788 13.565 10.2404 12.8455C10.2951 12.2067 10.3558 11.4984 10.0301 10.7568C10.7867 10.2634 11.2882 9.41006 11.2882 8.44132C11.2882 8.40869 11.2869 8.37638 11.2857 8.34404C11.6446 8.31863 12.0931 8.34563 12.5418 8.48154C13.4071 8.74357 14.0815 9.33241 14.5464 10.2318C15.4405 11.9617 14.3486 13.5112 13.1418 14.3124Z" fill="url(#paint0_linear)"/>
<defs>
<linearGradient id="paint0_linear" x1="8.00004" y1="3.05176e-05" x2="8.00004" y2="16" gradientUnits="userSpaceOnUse">
<stop stop-color="#30A8C4"/>
<stop offset="1" stop-color="#33548C"/>
</linearGradient>
</defs>
</svg>
