<svg width="30" height="22" viewBox="0 0 30 22" fill="none" xmlns="http://www.w3.org/2000/svg">
<path d="M7.20835 0.414307L0 21.5855H3.64337L8.87099 0.414307H7.20835Z" fill="url(#paint0_linear)"/>
<path d="M22.7915 0.414307H21.1289L26.3565 21.5855H29.9999L22.7915 0.414307Z" fill="url(#paint1_linear)"/>
<path d="M10.2929 0.414307L5.07642 21.5855H12.7956L13.0082 18.4698H16.9919L17.2044 21.5855H24.9236L19.7073 0.414307H10.2929ZM14.3136 0.657028H15.6865L15.904 3.62588H14.096L14.3136 0.657028ZM13.8785 6.59467H16.1216L16.3392 9.56346H13.6608L13.8785 6.59467ZM13.2258 15.5009L13.4433 12.5323H16.5567L16.7744 15.5009H13.2258Z" fill="url(#paint2_linear)"/>
<defs>
<linearGradient id="paint0_linear" x1="4.43549" y1="0.414307" x2="4.43549" y2="21.5855" gradientUnits="userSpaceOnUse">
<stop stop-color="#33548C"/>
<stop offset="1" stop-color="#30A8C4"/>
</linearGradient>
<linearGradient id="paint1_linear" x1="25.5644" y1="0.414307" x2="25.5644" y2="21.5855" gradientUnits="userSpaceOnUse">
<stop stop-color="#33548C"/>
<stop offset="1" stop-color="#30A8C4"/>
</linearGradient>
<linearGradient id="paint2_linear" x1="15" y1="0.414307" x2="15" y2="21.5855" gradientUnits="userSpaceOnUse">
<stop stop-color="#33548C"/>
<stop offset="1" stop-color="#30A8C4"/>
</linearGradient>
</defs>
</svg>
