<svg width="16" height="16" viewBox="0 0 16 16" fill="none" xmlns="http://www.w3.org/2000/svg">
<path d="M15.7632 12.1564C14.7843 11.3332 13.6993 10.6899 12.5558 10.2267C12.3622 8.71658 11.9249 7.36099 11.3073 6.30299L14.4724 3.13793C14.7327 2.87759 14.7327 2.45546 14.4724 2.19512C14.212 1.93478 13.7899 1.93478 13.5296 2.19512L10.5105 5.21421C10.2948 4.98215 10.0663 4.77949 9.82634 4.60965C10.3438 4.12324 10.6675 3.43296 10.6675 2.66665C10.6675 1.19381 9.47368 0 8.00081 0C6.52794 0 5.33416 1.19381 5.33416 2.66665C5.33416 3.43296 5.65782 4.12324 6.17532 4.60965C4.78422 5.59418 3.77701 7.68114 3.4491 10.2013C2.2941 10.6674 1.20454 11.3206 0.231389 12.1624C-0.047079 12.4033 -0.0775477 12.8243 0.163327 13.1028C0.404201 13.3813 0.825201 13.4117 1.10367 13.1708C1.78961 12.5775 2.54201 12.0901 3.33751 11.7077C3.33554 11.8048 3.3342 11.9021 3.3342 12C3.3342 13.2299 3.49482 14.4238 3.79876 15.5126C3.87913 15.8007 4.14166 16 4.44082 16H6.66747C7.03566 16 7.33413 15.7015 7.33413 15.3333V12.9429C7.70425 12.579 8.29734 12.579 8.66747 12.9429V15.3333C8.66747 15.7015 8.96593 16 9.33412 16H11.5608C11.8599 16 12.1225 15.8007 12.2029 15.5125C12.5068 14.4238 12.6675 13.2299 12.6675 11.9999C12.6675 11.9103 12.6663 11.8212 12.6647 11.7322C13.4573 12.1122 14.2114 12.5935 14.905 13.1769C15.1868 13.4138 15.6074 13.3775 15.8444 13.0957C16.0813 12.8139 16.045 12.3934 15.7632 12.1564ZM11.1312 9.75058C10.1949 9.5002 9.23418 9.36255 8.2725 9.33779L10.3256 7.2847C10.6763 7.97186 10.9561 8.81039 11.1312 9.75058ZM6.6675 2.66668C6.6675 1.93022 7.26434 1.33334 8.00084 1.33334C8.73734 1.33334 9.33418 1.93018 9.33418 2.66668C9.33418 3.40318 8.73731 3.99999 8.00081 3.99999C7.26431 3.99999 6.6675 3.40315 6.6675 2.66668ZM8.00081 5.33333C8.55215 5.33333 9.09015 5.63118 9.56756 6.15708L6.27482 9.44986C5.80329 9.51533 5.3355 9.60792 4.87444 9.72883C5.3611 7.14427 6.64053 5.33333 8.00081 5.33333ZM11.3341 12C11.3341 12.9272 11.2334 13.8288 11.0421 14.6666H10.0008V12.9347C10.0008 12.5865 9.86253 12.2523 9.61621 12.0059C8.72387 11.1136 7.27775 11.1136 6.38541 12.0059C6.1391 12.2522 6.00082 12.5864 6.00082 12.9347V14.6667H4.95947C4.76826 13.8288 4.66747 12.9272 4.66747 12C4.66747 11.7183 4.67676 11.4412 4.69438 11.1694C6.82613 10.4922 9.15684 10.4998 11.3086 11.1924C11.3253 11.4568 11.3341 11.7262 11.3341 12Z" fill="url(#paint0_linear)"/>
<defs>
<linearGradient id="paint0_linear" x1="8.00083" y1="0" x2="8.00083" y2="16" gradientUnits="userSpaceOnUse">
<stop stop-color="#30A8C4"/>
<stop offset="1" stop-color="#33548C"/>
</linearGradient>
</defs>
</svg>
