<svg width="10" height="10" viewBox="0 0 10 10" fill="none" xmlns="http://www.w3.org/2000/svg">
<path d="M9.98987 3.8383C9.96074 3.7483 9.87727 3.687 9.78248 3.687H6.24648L5.20737 0.361423C5.15041 0.180551 4.84911 0.180551 4.79217 0.361423L3.75306 3.687H0.21751C0.122723 3.687 0.0392469 3.7483 0.010124 3.8383C-0.018143 3.92829 0.0140369 4.02654 0.0909915 4.08177L2.99874 6.15824L1.75312 9.48033C1.71963 9.5699 1.74833 9.67076 1.82398 9.72902C1.90006 9.78772 2.00397 9.7886 2.08311 9.73382L4.99999 7.64995L7.91686 9.73382C7.95512 9.76078 7.99903 9.77425 8.04338 9.77425C8.08991 9.77425 8.13686 9.75947 8.17599 9.72902C8.25164 9.67076 8.28034 9.5699 8.24685 9.48033L7.00123 6.15824L9.90898 4.08177C9.98596 4.02654 10.0181 3.92829 9.98987 3.8383Z" fill="#30A8C4"/>
</svg>
