<svg width="16" height="16" viewBox="0 0 16 16" fill="none" xmlns="http://www.w3.org/2000/svg">
<path d="M8 14.9165L9.46886 14.5775L8.33894 13.4476L8 14.9165Z" fill="#30A8C4"/>
<path d="M7.7097 13.9488L7.95273 12.8957C7.95332 12.8931 7.9542 12.8907 7.95488 12.8882C7.95604 12.8838 7.9572 12.8795 7.95857 12.8752C7.95995 12.8709 7.96132 12.8673 7.96279 12.8634C7.96426 12.8596 7.96554 12.8561 7.9671 12.8525C7.96895 12.8483 7.97098 12.8441 7.97304 12.84C7.97457 12.8369 7.97616 12.8339 7.97776 12.831C7.98016 12.8266 7.98273 12.8224 7.98535 12.8182C7.98704 12.8156 7.98873 12.8129 7.99051 12.8103C7.99338 12.8062 7.99641 12.8021 7.99954 12.7982C8.00145 12.7957 8.00335 12.7933 8.00535 12.7909C8.00848 12.787 8.01201 12.7833 8.01545 12.7797C8.01685 12.7782 8.0181 12.7766 8.01954 12.7752L11.2947 9.5C10.3804 7.61934 8.68963 6.5 6.74963 6.5C5.32707 6.5 4.01282 7.10891 3.04898 8.21453C2.07829 9.32806 1.53132 10.8802 1.50098 12.5986C2.07485 12.888 4.43126 14 6.74963 14C7.07032 13.9995 7.39077 13.9824 7.7097 13.9488Z" fill="#33548C"/>
<path d="M8.54785 12.9517L12.4364 9.0632L13.8504 10.4772L9.96185 14.3657L8.54785 12.9517Z" fill="#30A8C4"/>
<path d="M6.75 6C8.13071 6 9.25 4.88071 9.25 3.5C9.25 2.11929 8.13071 1 6.75 1C5.36929 1 4.25 2.11929 4.25 3.5C4.25 4.88071 5.36929 6 6.75 6Z" fill="#33548C"/>
<path d="M14.5001 9.41637C14.5 9.2186 14.4414 9.02528 14.3315 8.86085C14.2216 8.69642 14.0654 8.56826 13.8827 8.49259C13.7 8.41692 13.4989 8.39712 13.305 8.43571C13.111 8.47429 12.9328 8.56953 12.793 8.70937L14.2072 10.1236C14.3003 10.0309 14.3742 9.9207 14.4245 9.79931C14.4748 9.67792 14.5004 9.54776 14.5001 9.41637Z" fill="#30A8C4"/>
</svg>
