<svg width="16" height="16" viewBox="0 0 16 16" fill="none" xmlns="http://www.w3.org/2000/svg">
<path d="M7.99977 11.3033C10.3516 11.3033 12.2581 9.39682 12.2581 7.04502C12.2581 4.69321 10.3516 2.7867 7.99977 2.7867C5.64797 2.7867 3.74146 4.69321 3.74146 7.04502C3.74146 9.39682 5.64797 11.3033 7.99977 11.3033Z" fill="#30A8C4"/>
<path d="M13.0036 2.07258C11.6671 0.736063 9.89007 0 7.9999 0C6.10974 0 4.33271 0.736063 2.99619 2.07258C1.65965 3.40916 0.923584 5.18616 0.923584 7.07632C0.923584 10.4109 3.25482 13.2898 6.49343 13.9914L7.9999 16L9.50641 13.9913C12.745 13.2898 15.0762 10.4109 15.0762 7.07632C15.0762 5.18616 14.3402 3.40916 13.0036 2.07258ZM7.9999 1.84736C10.8659 1.84736 13.1976 4.17904 13.1976 7.04501C13.1976 9.91098 10.8659 12.2427 7.9999 12.2427C5.1339 12.2427 2.80225 9.91098 2.80225 7.04501C2.80225 4.17904 5.1339 1.84736 7.9999 1.84736Z" fill="#33548C"/>
</svg>
