<svg width="30" height="30" viewBox="0 0 30 30" fill="none" xmlns="http://www.w3.org/2000/svg">
<path d="M11.25 0C5.04562 0 0 5.04562 0 11.25C0 19.0481 10.155 29.2931 10.5863 29.7262C10.77 29.9081 11.01 30 11.25 30C11.49 30 11.73 29.9081 11.9137 29.7262C12.0413 29.5988 13.035 28.5919 14.355 27.0581C13.5938 25.7025 13.125 24.1631 13.125 22.5C13.125 17.3906 17.2162 13.2544 22.2994 13.1456C22.4175 12.5025 22.5 11.8669 22.5 11.25C22.5 5.04562 17.4544 0 11.25 0ZM11.25 16.875C8.14875 16.875 5.625 14.3512 5.625 11.25C5.625 8.14875 8.14875 5.625 11.25 5.625C14.3512 5.625 16.875 8.14875 16.875 11.25C16.875 14.3512 14.3512 16.875 11.25 16.875Z" fill="url(#paint0_linear)"/>
<path d="M22.5 15C18.3581 15 15 18.3581 15 22.5C15 26.6419 18.3581 30 22.5 30C26.6419 30 30 26.6419 30 22.5C30 18.3581 26.6419 15 22.5 15ZM25.9762 21.2888L22.2263 25.0387C22.0425 25.2206 21.8025 25.3125 21.5625 25.3125C21.3225 25.3125 21.0825 25.2206 20.8987 25.0387L19.0237 23.1637C18.6581 22.7981 18.6581 22.2038 19.0237 21.8381C19.3894 21.4725 19.9837 21.4725 20.3494 21.8381L21.5606 23.0494L24.6469 19.9631C25.0125 19.5975 25.6069 19.5975 25.9725 19.9631C26.3381 20.3288 26.3419 20.9213 25.9762 21.2888Z" fill="url(#paint1_linear)"/>
<defs>
<linearGradient id="paint0_linear" x1="11.25" y1="0" x2="11.25" y2="30" gradientUnits="userSpaceOnUse">
<stop stop-color="#33548C"/>
<stop offset="1" stop-color="#30A8C4"/>
</linearGradient>
<linearGradient id="paint1_linear" x1="22.5" y1="15" x2="22.5" y2="30" gradientUnits="userSpaceOnUse">
<stop stop-color="#33548C"/>
<stop offset="1" stop-color="#30A8C4"/>
</linearGradient>
</defs>
</svg>
