<svg width="30" height="30" viewBox="0 0 30 30" fill="none" xmlns="http://www.w3.org/2000/svg">
<path d="M6.25094 11.25C6.25094 8.49252 8.49344 6.25002 11.2509 6.25002C11.9421 6.25002 12.5009 5.69004 12.5009 5.00004C12.5009 4.31004 11.9422 3.75 11.251 3.75C7.11473 3.75 3.75098 7.11375 3.75098 11.25C3.75098 11.94 4.30973 12.5 5.00096 12.5C5.69219 12.5 6.25094 11.94 6.25094 11.25Z" fill="url(#paint0_linear)"/>
<path d="M11.251 7.5C9.1835 7.5 7.50098 9.18252 7.50098 11.25C7.50098 11.94 8.05973 12.5 8.75096 12.5C9.44219 12.5 10.0009 11.94 10.0009 11.25C10.0009 10.5612 10.5609 10 11.2509 10C11.9421 10 12.5009 9.44004 12.5009 8.75004C12.5009 8.06004 11.9422 7.5 11.251 7.5Z" fill="url(#paint1_linear)"/>
<path d="M11.251 2.50002C11.9422 2.50002 12.501 1.94004 12.501 1.25004C12.501 0.560039 11.9422 0 11.251 0C5.04725 0 0.000976562 5.0475 0.000976562 11.25C0.000976562 11.94 0.559727 12.5 1.25096 12.5C1.94219 12.5 2.50094 11.94 2.50094 11.25C2.50094 6.42498 6.42719 2.50002 11.251 2.50002Z" fill="url(#paint2_linear)"/>
<path d="M28.9421 9.86998L25.2121 6.13996C23.8496 4.77496 21.4671 4.77496 20.1046 6.13996L15.4909 10.7537C14.3584 11.8862 14.1521 13.5824 14.8396 14.9387L7.24087 22.5387C6.16585 23.6137 5.43964 24.9712 5.14087 26.4624C4.9471 27.4337 5.24839 28.4312 5.94964 29.1324C6.50962 29.6937 7.26214 29.9999 8.03839 29.9999C8.23087 29.9999 8.42587 29.9799 8.62087 29.9412C10.1108 29.6437 11.4683 28.9174 12.5446 27.8412L20.1421 20.2437C20.6434 20.4999 21.1946 20.6512 21.7746 20.6512C22.7383 20.6512 23.6458 20.2749 24.3283 19.5924L28.9421 14.9787C30.3509 13.57 30.3509 11.2787 28.9421 9.86998ZM10.7771 26.0725C10.0508 26.7988 9.13585 27.2887 8.12962 27.49C7.92712 27.5325 7.78339 27.4288 7.71712 27.365C7.65214 27.3 7.55089 27.1613 7.59214 26.9537C7.79341 25.9462 8.28337 25.0312 9.00841 24.3062L16.4709 16.8438L18.2397 18.6112L10.7771 26.0725ZM23.7509 12.5C23.0609 12.5 22.5009 11.94 22.5009 11.25C22.5009 10.56 23.0609 10 23.7509 10C24.4409 10 25.0009 10.56 25.0009 11.25C25.0009 11.94 24.4409 12.5 23.7509 12.5Z" fill="url(#paint3_linear)"/>
<defs>
<linearGradient id="paint0_linear" x1="8.12594" y1="3.75" x2="8.12594" y2="12.5" gradientUnits="userSpaceOnUse">
<stop stop-color="#33548C"/>
<stop offset="1" stop-color="#30A8C4"/>
</linearGradient>
<linearGradient id="paint1_linear" x1="10.0009" y1="7.5" x2="10.0009" y2="12.5" gradientUnits="userSpaceOnUse">
<stop stop-color="#33548C"/>
<stop offset="1" stop-color="#30A8C4"/>
</linearGradient>
<linearGradient id="paint2_linear" x1="6.25097" y1="0" x2="6.25097" y2="12.5" gradientUnits="userSpaceOnUse">
<stop stop-color="#33548C"/>
<stop offset="1" stop-color="#30A8C4"/>
</linearGradient>
<linearGradient id="paint3_linear" x1="17.541" y1="5.11621" x2="17.541" y2="29.9999" gradientUnits="userSpaceOnUse">
<stop stop-color="#33548C"/>
<stop offset="1" stop-color="#30A8C4"/>
</linearGradient>
</defs>
</svg>
