<svg width="30" height="30" viewBox="0 0 30 30" fill="none" xmlns="http://www.w3.org/2000/svg">
<path d="M0 11.25V26.25C0 27.2855 0.839424 28.125 1.875 28.125H7.5V9.375H1.875C0.839424 9.375 0 10.2144 0 11.25Z" fill="url(#paint0_linear)"/>
<path d="M26.5375 11.2496H20.9985C20.5142 11.2496 20.2716 10.9264 20.1901 10.7873C20.1086 10.649 19.9439 10.2801 20.1782 9.85711L22.131 6.34056C22.5595 5.5706 22.6035 4.66515 22.2528 3.85673C21.9022 3.04741 21.21 2.46055 20.354 2.24724L18.977 1.903C18.642 1.81877 18.2867 1.92589 18.0533 2.18498L10.5771 10.4906C9.80164 11.354 9.375 12.4673 9.375 13.6263V23.4371C9.375 26.0217 11.478 28.1246 14.0625 28.1246L23.389 28.1237C25.4947 28.1237 27.3541 26.7055 27.9098 24.6758L29.9112 15.4912C29.9698 15.2358 30 14.974 30 14.7121C30 12.8032 28.4463 11.2496 26.5375 11.2496L26.5375 11.2496Z" fill="url(#paint1_linear)"/>
<defs>
<linearGradient id="paint0_linear" x1="3.75" y1="9.375" x2="3.75" y2="28.125" gradientUnits="userSpaceOnUse">
<stop stop-color="#33548C"/>
<stop offset="1" stop-color="#30A8C4"/>
</linearGradient>
<linearGradient id="paint1_linear" x1="19.6875" y1="1.87476" x2="19.6875" y2="28.1246" gradientUnits="userSpaceOnUse">
<stop stop-color="#33548C"/>
<stop offset="1" stop-color="#30A8C4"/>
</linearGradient>
</defs>
</svg>
