<svg width="8" height="11" viewBox="0 0 8 11" fill="none" xmlns="http://www.w3.org/2000/svg">
<path d="M7.96003 3.97995C7.96003 3.48355 7.86225 2.99202 7.67229 2.53341C7.48233 2.0748 7.20389 1.65809 6.85289 1.30709C6.50188 0.956082 6.08518 0.677649 5.62657 0.487687C5.16796 0.297724 4.67642 0.199951 4.18003 0.199951C3.68363 0.199951 3.19209 0.297724 2.73348 0.487687C2.27487 0.677649 1.85817 0.956082 1.50716 1.30709C1.15616 1.65809 0.877723 2.0748 0.68776 2.53341C0.497797 2.99202 0.400024 3.48355 0.400024 3.97995C0.400024 4.72893 0.621424 5.42553 0.996724 6.01305H0.992405C2.2668 8.00835 4.18003 11 4.18003 11L7.36765 6.01305H7.36387C7.75289 5.40629 7.95978 4.70071 7.96003 3.97995ZM4.18003 5.59995C3.75037 5.59995 3.33832 5.42927 3.03451 5.12546C2.7307 4.82166 2.56002 4.4096 2.56002 3.97995C2.56002 3.5503 2.7307 3.13825 3.03451 2.83444C3.33832 2.53063 3.75037 2.35995 4.18003 2.35995C4.60968 2.35995 5.02173 2.53063 5.32554 2.83444C5.62935 3.13825 5.80002 3.5503 5.80002 3.97995C5.80002 4.4096 5.62935 4.82166 5.32554 5.12546C5.02173 5.42927 4.60968 5.59995 4.18003 5.59995Z" fill="white"/>
</svg>
