<svg width="12" height="10" viewBox="0 0 12 10" fill="none" xmlns="http://www.w3.org/2000/svg">
<path fill-rule="evenodd" clip-rule="evenodd" d="M1.68922 1.74994L6.00002 4.76751L10.3108 1.74994C10.2371 1.65881 10.1246 1.5999 10 1.5999H2.00002C1.87543 1.5999 1.76294 1.65881 1.68922 1.74994ZM10.4 3.1523L6.3441 5.99144C6.13751 6.13606 5.86254 6.13606 5.65595 5.99144L1.60002 3.1523V7.9999C1.60002 8.21853 1.78139 8.3999 2.00002 8.3999H10C10.2187 8.3999 10.4 8.21853 10.4 7.9999V3.1523ZM0.400024 1.9999C0.400024 1.11853 1.11865 0.399902 2.00002 0.399902H10C10.8814 0.399902 11.6 1.11853 11.6 1.9999V7.9999C11.6 8.88127 10.8814 9.5999 10 9.5999H2.00002C1.11865 9.5999 0.400024 8.88127 0.400024 7.9999V1.9999Z" fill="white"/>
</svg>
