<svg width="12" height="12" viewBox="0 0 12 12" fill="none" xmlns="http://www.w3.org/2000/svg">
<path d="M4.98805 7.0076C5.72362 7.76957 6.61363 8.35786 7.59558 8.73114L8.92401 7.65168C8.96339 7.62398 9.01009 7.60915 9.05791 7.60915C9.10573 7.60915 9.15242 7.62398 9.19181 7.65168L11.6584 9.27447C11.752 9.33196 11.8313 9.4109 11.8899 9.50505C11.9486 9.59919 11.985 9.70597 11.9962 9.81695C12.0075 9.92793 11.9934 10.0401 11.9549 10.1445C11.9165 10.2489 11.8548 10.3428 11.7747 10.4187L10.6189 11.5845C10.4534 11.7515 10.25 11.8741 10.0268 11.9413C9.80357 12.0085 9.56756 12.0182 9.3398 11.9695C7.06781 11.4904 4.97365 10.3682 3.29668 8.73114C1.65693 7.07785 0.522231 4.97419 0.0302282 2.67534C-0.0183754 2.44637 -0.00823114 2.20845 0.0596777 1.98466C0.127587 1.76086 0.250957 1.55877 0.417833 1.39798L1.61589 0.21776C1.69002 0.139962 1.78044 0.080299 1.88036 0.0432384C1.98027 0.00617783 2.08711 -0.00732002 2.19286 0.00375561C2.29861 0.0148312 2.40054 0.0501933 2.49101 0.107194C2.58148 0.164195 2.65815 0.241357 2.71528 0.332903L4.35731 2.81927C4.38564 2.85831 4.40092 2.90562 4.40092 2.9542C4.40092 3.00279 4.38564 3.0501 4.35731 3.08914L3.27554 4.41688C3.65102 5.39953 4.236 6.28451 4.98805 7.0076Z" fill="white"/>
</svg>
