<svg width="19" height="20" viewBox="0 0 19 20" fill="none" xmlns="http://www.w3.org/2000/svg">
<g clip-path="url(#clip0)">
<path d="M17.9514 20.0001C18.5304 20.0001 19 19.5059 19 18.8962V1.10383C19 0.494141 18.5304 0 17.9514 0H1.04864C0.469359 0 0 0.494141 0 1.10383V18.8962C0 19.5059 0.469359 20.0001 1.04864 20.0001H17.9514Z" fill="#395185"/>
<path d="M13.1096 20.0001V12.255H15.5794L15.9492 9.23669H13.1096V7.3095C13.1096 6.4356 13.3402 5.84005 14.5308 5.84005L16.0492 5.83934V3.13974C15.7865 3.10294 14.8852 3.02075 13.8366 3.02075C11.6473 3.02075 10.1485 4.42739 10.1485 7.01067V9.23669H7.67242V12.255H10.1485V20.0001H13.1096Z" fill="white"/>
</g>
<defs>
<clipPath id="clip0">
<rect width="19" height="20" fill="white"/>
</clipPath>
</defs>
</svg>
