<svg width="20" height="20" viewBox="0 0 20 20" fill="none" xmlns="http://www.w3.org/2000/svg">
<path d="M10.0001 6.87579C8.27974 6.87579 6.87583 8.2797 6.87583 10C6.87583 11.7203 8.27974 13.1242 10.0001 13.1242C11.7204 13.1242 13.1243 11.7203 13.1243 10C13.1243 8.2797 11.7204 6.87579 10.0001 6.87579ZM19.3704 10C19.3704 8.70626 19.3821 7.42423 19.3094 6.13283C19.2368 4.63283 18.8946 3.30158 17.7977 2.2047C16.6985 1.10548 15.3696 0.765638 13.8696 0.692982C12.5758 0.620326 11.2938 0.632045 10.0024 0.632045C8.70864 0.632045 7.42661 0.620326 6.13521 0.692982C4.63521 0.765638 3.30396 1.10783 2.20708 2.2047C1.10786 3.30392 0.768019 4.63283 0.695363 6.13283C0.622706 7.42658 0.634425 8.70861 0.634425 10C0.634425 11.2914 0.622706 12.5758 0.695363 13.8672C0.768019 15.3672 1.11021 16.6984 2.20708 17.7953C3.3063 18.8945 4.63521 19.2344 6.13521 19.307C7.42896 19.3797 8.71099 19.368 10.0024 19.368C11.2961 19.368 12.5782 19.3797 13.8696 19.307C15.3696 19.2344 16.7008 18.8922 17.7977 17.7953C18.8969 16.6961 19.2368 15.3672 19.3094 13.8672C19.3844 12.5758 19.3704 11.2938 19.3704 10ZM10.0001 14.807C7.33989 14.807 5.19302 12.6602 5.19302 10C5.19302 7.33986 7.33989 5.19298 10.0001 5.19298C12.6602 5.19298 14.8071 7.33986 14.8071 10C14.8071 12.6602 12.6602 14.807 10.0001 14.807ZM15.004 6.11876C14.3829 6.11876 13.8813 5.6172 13.8813 4.99611C13.8813 4.37501 14.3829 3.87345 15.004 3.87345C15.6251 3.87345 16.1266 4.37501 16.1266 4.99611C16.1268 5.14359 16.0979 5.28966 16.0415 5.42595C15.9852 5.56224 15.9025 5.68607 15.7982 5.79036C15.6939 5.89464 15.5701 5.97733 15.4338 6.03368C15.2975 6.09004 15.1514 6.11895 15.004 6.11876Z" fill="white"/>
</svg>
