<svg width="16" height="10" viewBox="0 0 16 10" fill="none" xmlns="http://www.w3.org/2000/svg">
<path d="M4.14382 1.38201C3.88145 1.15049 3.538 1.03244 3.18873 1.05373C2.83947 1.07501 2.5129 1.2339 2.28059 1.49557L2.20174 1.58403C1.97055 1.84635 1.85284 2.18967 1.87446 2.53866C1.89608 2.88765 2.05526 3.21382 2.31707 3.44559C2.57887 3.67737 2.92193 3.79582 3.27097 3.77497C3.62001 3.75412 3.94652 3.59566 4.17887 3.33437L4.25794 3.2459C4.48953 2.9834 4.60758 2.63977 4.58619 2.29037C4.5648 1.94096 4.40571 1.61429 4.14382 1.38201ZM3.96767 2.98925L3.88861 3.07838C3.72455 3.26376 3.49357 3.37637 3.24649 3.39144C2.9994 3.40652 2.75645 3.32282 2.57107 3.15877C2.3857 2.99471 2.27309 2.76374 2.25801 2.51665C2.24293 2.26957 2.32663 2.02661 2.49068 1.84124L2.56953 1.75211C2.73358 1.5667 2.96457 1.45406 3.21168 1.43897C3.45878 1.42387 3.70176 1.50755 3.88717 1.67161C4.07257 1.83567 4.18522 2.06665 4.20031 2.31376C4.21541 2.56087 4.13172 2.80385 3.96767 2.98925Z" fill="#BF3D3D"/>
<path d="M4.17843 6.66508C3.94632 6.40288 3.61956 6.24363 3.27004 6.22235C2.92051 6.20108 2.57684 6.31952 2.31464 6.55163C2.05245 6.78374 1.89319 7.1105 1.87191 7.46003C1.85064 7.80955 1.96908 8.15322 2.20119 8.41542L2.28003 8.50388C2.39407 8.63666 2.53338 8.74544 2.68984 8.82389C2.84631 8.90234 3.01681 8.9489 3.19143 8.96086C3.36605 8.97281 3.54131 8.94993 3.70701 8.89353C3.8727 8.83714 4.02553 8.74837 4.15661 8.63237C4.28768 8.51637 4.39439 8.37547 4.47051 8.21786C4.54664 8.06025 4.59066 7.88908 4.60003 7.7143C4.6094 7.53952 4.58392 7.36462 4.52507 7.19978C4.46623 7.03494 4.3752 6.88344 4.25727 6.7541L4.17843 6.66508ZM3.88728 8.32839C3.70181 8.49217 3.45895 8.5757 3.21197 8.56065C2.96499 8.5456 2.73407 8.4332 2.56986 8.24811L2.49102 8.15899C2.32696 7.97364 2.24325 7.73071 2.25831 7.48365C2.27336 7.23658 2.38595 7.00562 2.5713 6.84156C2.75664 6.67751 2.99957 6.5938 3.24663 6.60886C3.4937 6.62391 3.72466 6.7365 3.88872 6.92184L3.96756 7.01097C4.13134 7.19644 4.21487 7.4393 4.19982 7.68628C4.18477 7.93325 4.07237 8.16418 3.88728 8.32839Z" fill="#BF3D3D"/>
<path d="M6.08722 4.45309C5.97905 4.45309 5.87331 4.48516 5.78337 4.54526C5.69343 4.60535 5.62333 4.69077 5.58194 4.79071C5.54054 4.89064 5.52971 5.00061 5.55082 5.1067C5.57192 5.21279 5.62401 5.31024 5.7005 5.38673C5.77698 5.46322 5.87443 5.51531 5.98053 5.53641C6.08662 5.55751 6.19658 5.54668 6.29652 5.50529C6.39646 5.46389 6.48187 5.39379 6.54197 5.30385C6.60207 5.21391 6.63414 5.10817 6.63414 5C6.63399 4.855 6.57633 4.71597 6.47379 4.61344C6.37126 4.5109 6.23223 4.45323 6.08722 4.45309ZM6.08722 5.1599C6.0556 5.1599 6.02469 5.15052 5.99839 5.13295C5.9721 5.11538 5.9516 5.09041 5.9395 5.06119C5.9274 5.03198 5.92423 4.99983 5.9304 4.96881C5.93657 4.93779 5.9518 4.9093 5.97416 4.88694C5.99652 4.86458 6.02501 4.84935 6.05603 4.84318C6.08705 4.83701 6.1192 4.84018 6.14841 4.85228C6.17763 4.86438 6.2026 4.88487 6.22017 4.91117C6.23774 4.93746 6.24712 4.96838 6.24712 5C6.24706 5.04239 6.2302 5.08303 6.20022 5.113C6.17025 5.14297 6.12961 5.15984 6.08722 5.1599Z" fill="#BF3D3D"/>
<path d="M7.37391 5L12.185 0.994216C12.2049 0.977649 12.2212 0.957274 12.233 0.934296C12.2448 0.911317 12.2519 0.8862 12.2539 0.86043C12.2559 0.834659 12.2526 0.808757 12.2444 0.784255C12.2362 0.759752 12.2231 0.737146 12.206 0.717771C12.0406 0.53203 11.8391 0.381824 11.6138 0.276256C11.3886 0.170688 11.1442 0.111957 10.8956 0.103623C10.6137 0.0943133 10.3328 0.141354 10.0694 0.241989C9.80592 0.342624 9.5652 0.494829 9.36132 0.689685L6.16374 3.75346C6.13831 3.75191 6.11299 3.74959 6.08722 3.74959C6.0219 3.75007 5.95672 3.75569 5.89228 3.7664L5.33718 3.30418C5.5606 2.80928 5.59916 2.25066 5.44585 1.72975C5.29253 1.20884 4.95752 0.760176 4.50162 0.465205C4.04572 0.170234 3.49917 0.0485149 2.96118 0.122146C2.4232 0.195777 1.92945 0.459877 1.56957 0.866498L1.49062 0.954961C1.13545 1.35534 0.933228 1.86837 0.919674 2.4034C0.90612 2.93844 1.08211 3.46104 1.41655 3.87889C1.75099 4.29674 2.22235 4.58293 2.74736 4.68691C3.27237 4.79089 3.81724 4.70595 4.28569 4.44711L4.83803 4.97645C4.83803 4.98441 4.83681 4.99215 4.83681 5.00022C4.83681 5.0083 4.83781 5.01604 4.83803 5.024L4.28569 5.55289C3.81731 5.29445 3.27268 5.20979 2.74795 5.31386C2.22321 5.41793 1.75211 5.70403 1.41781 6.12166C1.0835 6.53929 0.907486 7.0616 0.920828 7.59638C0.934171 8.13117 1.13602 8.64405 1.49073 9.04449L1.56946 9.13351C1.76649 9.35726 2.00593 9.53973 2.27394 9.67036C2.54194 9.80098 2.83318 9.87716 3.13082 9.8945C3.17793 9.89727 3.22492 9.89882 3.27181 9.89882C3.65074 9.89827 4.02352 9.80285 4.35611 9.62126C4.68871 9.43967 4.97054 9.17769 5.1759 8.85922C5.38125 8.54075 5.5036 8.17593 5.53177 7.79804C5.55994 7.42015 5.49304 7.04122 5.33718 6.69582L5.89228 6.23361C5.95672 6.24431 6.0219 6.24993 6.08722 6.25041C6.11299 6.25041 6.13831 6.24809 6.16374 6.24654L9.36198 9.31143C9.75217 9.68443 10.27 9.89444 10.8098 9.89859C10.8383 9.89859 10.8669 9.89797 10.8956 9.89671C11.1442 9.88838 11.3886 9.82965 11.6138 9.72408C11.8391 9.61851 12.0406 9.46831 12.206 9.28257C12.2231 9.26319 12.2362 9.24058 12.2444 9.21608C12.2526 9.19158 12.2559 9.16568 12.2539 9.13991C12.2519 9.11414 12.2448 9.08902 12.233 9.06604C12.2212 9.04306 12.2049 9.02269 12.185 9.00612L7.37391 5ZM6.08722 5.86339C6.02187 5.86315 5.95676 5.85544 5.89316 5.84039C5.70314 5.79651 5.5336 5.68953 5.41221 5.53691C5.29081 5.38428 5.22472 5.19502 5.22472 5C5.22472 4.80498 5.29081 4.61572 5.41221 4.4631C5.5336 4.31047 5.70314 4.20349 5.89316 4.15961H5.89405C6.01721 4.13067 6.14525 4.12928 6.26901 4.15553C6.39278 4.18179 6.50922 4.23504 6.61003 4.31149C6.71084 4.38795 6.79352 4.48571 6.85219 4.59781C6.91085 4.7099 6.94404 4.83357 6.9494 4.95997V4.9623C6.94995 4.97501 6.95128 4.9874 6.95128 5.00022C6.95128 5.01305 6.94995 5.02544 6.9494 5.03815V5.04047C6.93889 5.26213 6.84348 5.47123 6.68297 5.62444C6.52245 5.77765 6.30912 5.86322 6.08722 5.86339ZM9.62847 0.969336C9.79433 0.810014 9.9904 0.68551 10.2051 0.603164C10.4199 0.520818 10.6489 0.482297 10.8788 0.489871C11.2069 0.501094 11.5219 0.622068 11.7731 0.833436L7.26587 4.58633C7.20994 4.42809 7.12285 4.28266 7.00975 4.15866C6.89664 4.03465 6.75983 3.93459 6.60738 3.86437L9.62847 0.969336ZM4.44714 4.06551C4.41572 4.03539 4.37507 4.01675 4.33174 4.01259C4.28842 4.00844 4.24496 4.01902 4.2084 4.04262C3.82607 4.28875 3.36757 4.38817 2.91763 4.3225C2.4677 4.25683 2.05674 4.03052 1.7607 3.68538C1.46467 3.34025 1.30357 2.89962 1.30718 2.44493C1.31079 1.99024 1.47886 1.55223 1.78033 1.21183L1.85929 1.12337C2.1653 0.777698 2.5877 0.556555 3.04613 0.502C3.50456 0.447445 3.96705 0.563284 4.34565 0.827485C4.72424 1.09169 4.99253 1.48582 5.09948 1.93493C5.20643 2.38403 5.14459 2.85678 4.92572 3.26327C4.9045 3.30257 4.89753 3.34801 4.906 3.39187C4.91446 3.43572 4.93784 3.4753 4.97216 3.50389L5.46688 3.91634C5.22489 4.05521 5.03598 4.27065 4.92992 4.52872L4.44714 4.06551ZM4.97216 6.49612C4.93784 6.5247 4.91446 6.56428 4.906 6.60814C4.89753 6.652 4.9045 6.69743 4.92572 6.73673C5.14461 7.14324 5.20647 7.61601 5.09952 8.06515C4.99258 8.51428 4.72429 8.90844 4.34568 9.17267C3.96708 9.4369 3.50456 9.55276 3.0461 9.49822C2.58765 9.44368 2.16522 9.22254 1.85918 8.87686L1.78045 8.78839C1.47882 8.44804 1.31062 8.01 1.30693 7.55524C1.30325 7.10049 1.46433 6.65978 1.7604 6.31458C2.05647 5.96939 2.46751 5.74306 2.91752 5.67744C3.36753 5.61182 3.82608 5.71134 4.2084 5.95761C4.24494 5.98127 4.28841 5.99188 4.33175 5.98773C4.37509 5.98357 4.41575 5.96489 4.44714 5.93472L4.92992 5.47206C5.03598 5.73012 5.22489 5.94557 5.46688 6.08444L4.97216 6.49612ZM10.8788 9.51013C10.6491 9.51741 10.4203 9.47881 10.2058 9.3966C9.99123 9.31439 9.79523 9.19021 9.62925 9.03133L6.60738 6.13563C6.75983 6.06542 6.89664 5.96535 7.00975 5.84135C7.12285 5.71734 7.20994 5.57192 7.26587 5.41367L11.7731 9.16657C11.5219 9.37794 11.2069 9.49891 10.8788 9.51013Z" fill="#BF3D3D"/>
<path d="M8.41897 4.80649C8.36765 4.80649 8.31843 4.82688 8.28214 4.86317C8.24585 4.89946 8.22546 4.94868 8.22546 5C8.22546 5.05132 8.24585 5.10054 8.28214 5.13683C8.31843 5.17312 8.36765 5.19351 8.41897 5.19351H9.39847C9.44979 5.19351 9.49901 5.17312 9.5353 5.13683C9.57159 5.10054 9.59198 5.05132 9.59198 5C9.59198 4.94868 9.57159 4.89946 9.5353 4.86317C9.49901 4.82688 9.44979 4.80649 9.39847 4.80649H8.41897Z" fill="#BF3D3D"/>
<path d="M10.235 4.80649C10.1837 4.80649 10.1345 4.82688 10.0982 4.86317C10.0619 4.89946 10.0415 4.94868 10.0415 5C10.0415 5.05132 10.0619 5.10054 10.0982 5.13683C10.1345 5.17312 10.1837 5.19351 10.235 5.19351H11.2144C11.2657 5.19351 11.3149 5.17312 11.3512 5.13683C11.3875 5.10054 11.4079 5.05132 11.4079 5C11.4079 4.94868 11.3875 4.89946 11.3512 4.86317C11.3149 4.82688 11.2657 4.80649 11.2144 4.80649H10.235Z" fill="#BF3D3D"/>
<path d="M13.0304 4.80649H12.051C11.9997 4.80649 11.9505 4.82688 11.9142 4.86317C11.8779 4.89946 11.8575 4.94868 11.8575 5C11.8575 5.05132 11.8779 5.10054 11.9142 5.13683C11.9505 5.17312 11.9997 5.19351 12.051 5.19351H13.0304C13.0817 5.19351 13.1309 5.17312 13.1672 5.13683C13.2035 5.10054 13.2239 5.05132 13.2239 5C13.2239 4.94868 13.2035 4.89946 13.1672 4.86317C13.1309 4.82688 13.0817 4.80649 13.0304 4.80649Z" fill="#BF3D3D"/>
<path d="M14.8463 4.80649H13.8669C13.8156 4.80649 13.7664 4.82688 13.7301 4.86317C13.6938 4.89946 13.6734 4.94868 13.6734 5C13.6734 5.05132 13.6938 5.10054 13.7301 5.13683C13.7664 5.17312 13.8156 5.19351 13.8669 5.19351H14.8463C14.8976 5.19351 14.9468 5.17312 14.9831 5.13683C15.0194 5.10054 15.0398 5.05132 15.0398 5C15.0398 4.94868 15.0194 4.89946 14.9831 4.86317C14.9468 4.82688 14.8976 4.80649 14.8463 4.80649Z" fill="#BF3D3D"/>
</svg>
