<svg width="10" height="10" viewBox="0 0 10 10" fill="none" xmlns="http://www.w3.org/2000/svg">
<path d="M9.21875 0.78125H0.78125C0.656974 0.781395 0.53783 0.830827 0.449954 0.918704C0.362077 1.00658 0.312645 1.12572 0.3125 1.25V8.75C0.312645 8.87428 0.362077 8.99342 0.449954 9.0813C0.53783 9.16917 0.656974 9.21861 0.78125 9.21875H9.21875C9.34303 9.21861 9.46217 9.16917 9.55005 9.0813C9.63792 8.99342 9.68736 8.87428 9.6875 8.75V1.25C9.68736 1.12572 9.63792 1.00658 9.55005 0.918704C9.46217 0.830827 9.34303 0.781395 9.21875 0.78125ZM9.0625 8.59375H0.9375V1.40625H9.0625V8.59375Z" fill="#BF3D3D"/>
<path d="M2.96875 4.6875H3.59375V3.90625H4.375V3.28125H3.59375V2.5H2.96875V3.28125H2.1875V3.90625H2.96875V4.6875Z" fill="#BF3D3D"/>
<path d="M3.83367 5.56814L3.28125 6.12057L2.72883 5.56814L2.28689 6.01008L2.83932 6.5625L2.28689 7.11492L2.72883 7.55686L3.28125 7.00443L3.83367 7.55686L4.27561 7.11492L3.72318 6.5625L4.27561 6.01008L3.83367 5.56814Z" fill="#BF3D3D"/>
<path d="M5.625 3.28125H7.8125V3.90625H5.625V3.28125Z" fill="#BF3D3D"/>
<path d="M5.625 5.625H7.8125V6.25H5.625V5.625Z" fill="#BF3D3D"/>
<path d="M5.625 6.875H7.8125V7.5H5.625V6.875Z" fill="#BF3D3D"/>
</svg>
