<svg width="30" height="28" viewBox="0 0 30 28" fill="none" xmlns="http://www.w3.org/2000/svg">
<path d="M29.3398 8.66956L10.6225 3.57572C10.3255 3.49491 10.0103 3.58379 9.79068 3.81024C9.57101 4.03669 9.47861 4.36798 9.54693 4.68449L12.4242 18.0209H11.2976L7.85497 2.06372C7.77833 1.70852 7.51307 1.43337 7.17616 1.35953L1.05703 0.0194508C0.581889 -0.0845826 0.116654 0.23907 0.0183922 0.742467C-0.0799283 1.24586 0.225756 1.73833 0.701069 1.84236L6.26702 3.06126L9.73993 19.1589C9.83122 19.5821 10.1868 19.8823 10.5968 19.8823C11.4344 19.8823 27.1835 19.8823 27.8906 19.8823C28.3355 19.8823 28.7021 19.5292 28.7611 19.0797L29.9916 9.69909C30.0531 9.23029 29.7726 8.78732 29.3398 8.66956ZM27.1254 18.0208H14.2272L11.5818 5.75868L28.1426 10.2657L27.1254 18.0208Z" fill="#BF3D3D"/>
<path d="M16.7966 9.5822C16.3112 9.5822 15.9177 9.99889 15.9177 10.5129V14.6082C15.9177 15.1222 16.3112 15.5389 16.7966 15.5389C17.282 15.5389 17.6755 15.1222 17.6755 14.6082V10.5129C17.6755 9.99889 17.282 9.5822 16.7966 9.5822Z" fill="#BF3D3D"/>
<path d="M24.3194 11.8159C23.834 11.8159 23.4405 12.2326 23.4405 12.7466V14.6082C23.4405 15.1222 23.834 15.5389 24.3194 15.5389C24.8048 15.5389 25.1983 15.1222 25.1983 14.6082V12.7467C25.1983 12.2327 24.8048 11.8159 24.3194 11.8159Z" fill="#BF3D3D"/>
<path d="M14.8492 21.1233C13.2338 21.1233 11.9195 22.515 11.9195 24.2257C11.9195 25.9364 13.2338 27.3281 14.8492 27.3281C16.4646 27.3281 17.7789 25.9364 17.7789 24.2257C17.7789 22.515 16.4646 21.1233 14.8492 21.1233ZM14.8492 25.4667C14.203 25.4667 13.6773 24.91 13.6773 24.2258C13.6773 23.5415 14.203 22.9847 14.8492 22.9847C15.4954 22.9847 16.0211 23.5414 16.0211 24.2258C16.0211 24.91 15.4954 25.4667 14.8492 25.4667Z" fill="#BF3D3D"/>
<path d="M23.6382 21.1233C22.0228 21.1233 20.7085 22.515 20.7085 24.2257C20.7085 25.9364 22.0228 27.3281 23.6382 27.3281C25.2537 27.3281 26.5679 25.9364 26.5679 24.2257C26.5679 22.515 25.2537 21.1233 23.6382 21.1233ZM23.6382 25.4667C22.992 25.4667 22.4663 24.91 22.4663 24.2258C22.4663 23.5415 22.992 22.9847 23.6382 22.9847C24.2844 22.9847 24.8101 23.5414 24.8101 24.2258C24.8101 24.91 24.2844 25.4667 23.6382 25.4667Z" fill="#BF3D3D"/>
<path d="M20.558 10.8231C20.0726 10.8231 19.6791 11.2398 19.6791 11.7539V14.6082C19.6791 15.1222 20.0726 15.5389 20.558 15.5389C21.0434 15.5389 21.4369 15.1222 21.4369 14.6082V11.7539C21.4369 11.2398 21.0434 10.8231 20.558 10.8231Z" fill="#BF3D3D"/>
</svg>
