<svg width="54" height="34" viewBox="0 0 54 34" fill="none" xmlns="http://www.w3.org/2000/svg">
<path d="M12.5223 1.5C7.87494 1.5 4.36751 3.62832 2 6.75565L6.51581 10.3608C8.138 8.31931 9.62865 7.36374 11.6893 7.36374C13.8376 7.36374 15.1528 8.66679 15.1528 10.8385C15.1528 14.1396 12.9169 16.7892 3.09607 26.2146V31.6005H22.9569L23.7899 25.7368H11.9523C21.2908 17.571 23.1322 14.3134 23.1322 10.0133C23.1322 5.45259 19.4933 1.5 12.5223 1.5ZM50.5093 2.15153H31.6569V18.3528H36.8304C38.1457 17.571 39.1102 17.3104 40.2063 17.3104C42.4861 17.3104 44.0206 18.4831 44.0206 21.8711C44.0206 24.9984 42.3546 26.6489 39.5486 26.6489C37.225 26.6489 35.4274 25.563 34.0244 23.7822L29.684 27.7348C31.92 30.4278 35.1644 32.3824 39.8994 32.3824C47.265 32.3824 52 28.1257 52 21.7842C52 15.6164 48.2734 12.0982 43.4068 12.0982C42.0915 12.0982 40.6009 12.4022 39.1541 13.0537V7.62435H49.6763L50.5093 2.15153Z" stroke="#BF3D3D" stroke-width="2.5" stroke-linecap="round" stroke-linejoin="round"/>
</svg>
