<svg width="48" height="48" viewBox="0 0 48 48" fill="none" xmlns="http://www.w3.org/2000/svg">
<path d="M22.1461 32.1997C22.4968 31.8484 22.4968 31.2798 22.1461 30.9285C21.7951 30.5783 21.2263 30.5783 20.8749 30.9285C20.5246 31.2798 20.5246 31.8484 20.8749 32.1997C21.2263 32.5499 21.7951 32.5499 22.1461 32.1997Z" fill="#BF3D3D"/>
<path d="M17.8913 10.88C17.8913 16.3279 22.3248 20.7604 27.7743 20.7604C33.2239 20.7604 37.6574 16.3279 37.6574 10.88C37.6574 5.43218 33.2239 1 27.7743 1C22.3248 1 17.8913 5.43218 17.8913 10.88ZM35.8607 10.88C35.8607 15.3375 32.2332 18.9639 27.7743 18.9639C23.3155 18.9639 19.688 15.3375 19.688 10.88C19.688 6.42292 23.3155 2.79653 27.7743 2.79653C32.2332 2.79653 35.8607 6.42292 35.8607 10.88Z" fill="#BF3D3D"/>
<path d="M11.3489 46.7344C11.6971 47.0854 12.2641 47.0892 12.6169 46.7418L16.9729 42.4517C17.7129 41.7119 17.9379 40.6166 17.6125 39.6645L18.5495 38.7611C19.054 38.274 19.7182 38.0055 20.4203 38.0055H32.3645C34.4835 38.0055 36.4863 37.192 38.0046 35.7148C38.0671 35.6541 37.5303 36.2862 46.1531 25.9836C47.432 24.471 47.2407 22.1996 45.7262 20.9197C44.2212 19.6517 41.9667 19.8339 40.6843 21.3205L35.3825 26.768C34.7131 25.9443 33.6922 25.4309 32.5891 25.4309H22.5702C21.1445 24.8346 19.6318 24.5328 18.071 24.5328C13.7445 24.5328 9.96673 26.5304 7.93935 30.2758C7.08522 30.114 6.18439 30.3723 5.53633 31.0201L1.26216 35.3056C0.913201 35.6555 0.912498 36.2216 1.26075 36.5726L11.3489 46.7344ZM18.0706 26.329C19.4468 26.329 20.7773 26.6059 22.0261 27.1519C22.1398 27.2018 22.2623 27.2274 22.3862 27.2274H32.5891C33.5633 27.2274 34.3862 28.0216 34.3862 29.0236C34.3862 30.0143 33.5802 30.8201 32.5891 30.8201H25.2586C24.7626 30.8201 24.3603 31.2223 24.3603 31.7182C24.3603 32.2144 24.7626 32.6163 25.2586 32.6163H32.5891C34.5709 32.6163 36.183 31.0047 36.183 29.0236C36.183 28.8656 36.1717 28.7091 36.1514 28.554C41.28 23.2837 42.0032 22.5432 42.0341 22.5064C42.6744 21.7508 43.8112 21.655 44.5674 22.2923C45.3243 22.9321 45.4201 24.0678 44.778 24.8276L36.7194 34.4584C35.5426 35.5878 33.9976 36.2093 32.3645 36.2093H20.4203C19.2499 36.2093 18.1419 36.6568 17.3015 37.4686L16.5379 38.2052L9.49912 31.1689C11.1442 28.0837 14.2311 26.329 18.0706 26.329ZM6.80788 32.2895C7.10417 31.9933 7.55915 31.94 7.92039 32.1632C8.07591 32.258 7.62936 31.8515 15.7024 39.9108C16.0615 40.2699 16.0422 40.8419 15.7073 41.1767L11.9938 44.834L3.16561 35.9412L6.80788 32.2895Z" fill="#BF3D3D"/>
<path d="M26.6962 5.49114V6.54365C25.6504 6.91425 24.8991 7.91271 24.8991 9.08384C24.8991 10.5694 26.1082 11.7785 27.5946 11.7785C28.09 11.7785 28.493 12.1814 28.493 12.6765C28.493 13.1717 28.09 13.5746 27.5946 13.5746C27.2109 13.5746 26.7963 13.3335 26.428 12.8952C26.1086 12.5155 25.5419 12.4667 25.1621 12.7857C24.7822 13.1051 24.7331 13.6715 25.0526 14.0512C25.5328 14.6222 26.0977 15.0202 26.6962 15.221V16.2692C26.6962 16.7655 27.0986 17.1673 27.5946 17.1673C28.0907 17.1673 28.493 16.7655 28.493 16.2692V15.2167C29.5388 14.8458 30.2901 13.8473 30.2901 12.6765C30.2901 11.1906 29.081 9.98193 27.5946 9.98193C27.0993 9.98193 26.6962 9.57904 26.6962 9.08384C26.6962 8.58865 27.0993 8.18541 27.5946 8.18541C27.913 8.18541 28.249 8.3479 28.5663 8.65498C28.923 8.99997 29.4917 8.99049 29.8368 8.63427C30.1819 8.27771 30.1725 7.70916 29.8161 7.36418C29.3601 6.92303 28.9037 6.6735 28.493 6.53733V5.49114C28.493 4.99489 28.0907 4.5927 27.5946 4.5927C27.0986 4.5927 26.6962 4.99489 26.6962 5.49114Z" fill="#BF3D3D"/>
<path d="M22.1461 32.1997C22.4968 31.8484 22.4968 31.2798 22.1461 30.9285C21.7951 30.5783 21.2263 30.5783 20.8749 30.9285C20.5246 31.2798 20.5246 31.8484 20.8749 32.1997C21.2263 32.5499 21.7951 32.5499 22.1461 32.1997Z" stroke="#BF3D3D"/>
<path d="M17.8913 10.88C17.8913 16.3279 22.3248 20.7604 27.7743 20.7604C33.2239 20.7604 37.6574 16.3279 37.6574 10.88C37.6574 5.43218 33.2239 1 27.7743 1C22.3248 1 17.8913 5.43218 17.8913 10.88ZM35.8607 10.88C35.8607 15.3375 32.2332 18.9639 27.7743 18.9639C23.3155 18.9639 19.688 15.3375 19.688 10.88C19.688 6.42292 23.3155 2.79653 27.7743 2.79653C32.2332 2.79653 35.8607 6.42292 35.8607 10.88Z" stroke="#BF3D3D"/>
<path d="M11.3489 46.7344C11.6971 47.0854 12.2641 47.0892 12.6169 46.7418L16.9729 42.4517C17.7129 41.7119 17.9379 40.6166 17.6125 39.6645L18.5495 38.7611C19.054 38.274 19.7182 38.0055 20.4203 38.0055H32.3645C34.4835 38.0055 36.4863 37.192 38.0046 35.7148C38.0671 35.6541 37.5303 36.2862 46.1531 25.9836C47.432 24.471 47.2407 22.1996 45.7262 20.9197C44.2212 19.6517 41.9667 19.8339 40.6843 21.3205L35.3825 26.768C34.7131 25.9443 33.6922 25.4309 32.5891 25.4309H22.5702C21.1445 24.8346 19.6318 24.5328 18.071 24.5328C13.7445 24.5328 9.96673 26.5304 7.93935 30.2758C7.08522 30.114 6.18439 30.3723 5.53633 31.0201L1.26216 35.3056C0.913201 35.6555 0.912498 36.2216 1.26075 36.5726L11.3489 46.7344ZM18.0706 26.329C19.4468 26.329 20.7773 26.6059 22.0261 27.1519C22.1398 27.2018 22.2623 27.2274 22.3862 27.2274H32.5891C33.5633 27.2274 34.3862 28.0216 34.3862 29.0236C34.3862 30.0143 33.5802 30.8201 32.5891 30.8201H25.2586C24.7626 30.8201 24.3603 31.2223 24.3603 31.7182C24.3603 32.2144 24.7626 32.6163 25.2586 32.6163H32.5891C34.5709 32.6163 36.183 31.0047 36.183 29.0236C36.183 28.8656 36.1717 28.7091 36.1514 28.554C41.28 23.2837 42.0032 22.5432 42.0341 22.5064C42.6744 21.7508 43.8112 21.655 44.5674 22.2923C45.3243 22.9321 45.4201 24.0678 44.778 24.8276L36.7194 34.4584C35.5426 35.5878 33.9976 36.2093 32.3645 36.2093H20.4203C19.2499 36.2093 18.1419 36.6568 17.3015 37.4686L16.5379 38.2052L9.49912 31.1689C11.1442 28.0837 14.2311 26.329 18.0706 26.329ZM6.80788 32.2895C7.10417 31.9933 7.55915 31.94 7.92039 32.1632C8.07591 32.258 7.62936 31.8515 15.7024 39.9108C16.0615 40.2699 16.0422 40.8419 15.7073 41.1767L11.9938 44.834L3.16561 35.9412L6.80788 32.2895Z" stroke="#BF3D3D"/>
<path d="M26.6962 5.49114V6.54365C25.6504 6.91425 24.8991 7.91271 24.8991 9.08384C24.8991 10.5694 26.1082 11.7785 27.5946 11.7785C28.09 11.7785 28.493 12.1814 28.493 12.6765C28.493 13.1717 28.09 13.5746 27.5946 13.5746C27.2109 13.5746 26.7963 13.3335 26.428 12.8952C26.1086 12.5155 25.5419 12.4667 25.1621 12.7857C24.7822 13.1051 24.7331 13.6715 25.0526 14.0512C25.5328 14.6222 26.0977 15.0202 26.6962 15.221V16.2692C26.6962 16.7655 27.0986 17.1673 27.5946 17.1673C28.0907 17.1673 28.493 16.7655 28.493 16.2692V15.2167C29.5388 14.8458 30.2901 13.8473 30.2901 12.6765C30.2901 11.1906 29.081 9.98193 27.5946 9.98193C27.0993 9.98193 26.6962 9.57904 26.6962 9.08384C26.6962 8.58865 27.0993 8.18541 27.5946 8.18541C27.913 8.18541 28.249 8.3479 28.5663 8.65498C28.923 8.99997 29.4917 8.99049 29.8368 8.63427C30.1819 8.27771 30.1725 7.70916 29.8161 7.36418C29.3601 6.92303 28.9037 6.6735 28.493 6.53733V5.49114C28.493 4.99489 28.0907 4.5927 27.5946 4.5927C27.0986 4.5927 26.6962 4.99489 26.6962 5.49114Z" stroke="#BF3D3D"/>
</svg>
