<svg width="32" height="50" viewBox="0 0 32 50" fill="none" xmlns="http://www.w3.org/2000/svg">
<path d="M29.4683 16.9486L24.7154 12.8295C27.1596 6.65459 22.5771 0 16 0C9.41357 0 4.84453 6.66514 7.28457 12.8295L2.53174 16.9486C1.16104 18.1364 0.375 19.8579 0.375 21.6717V45.3125C0.375 47.8972 2.47783 50 5.0625 50H26.9375C29.5222 50 31.625 47.8972 31.625 45.3125V21.6717C31.625 19.858 30.8389 18.1365 29.4683 16.9486ZM16 3.125C19.9318 3.125 22.8937 6.72715 22.1311 10.5897L21.1382 9.7293C18.1876 7.17197 13.8072 7.17646 10.8617 9.7293L9.86895 10.5897C9.10742 6.73242 12.0633 3.125 16 3.125ZM28.5 45.3125C28.5 46.174 27.799 46.875 26.9375 46.875H5.0625C4.20098 46.875 3.5 46.174 3.5 45.3125V21.6717C3.5 20.7648 3.89307 19.9041 4.57832 19.3102L8.93408 15.5352C10.3555 17.1617 12.304 18.2557 14.4374 18.6182V18.75C14.4374 19.6129 15.137 20.3125 15.9999 20.3125C16.8629 20.3125 17.5624 19.6129 17.5624 18.75V15.625C17.5624 14.7621 16.8629 14.0625 15.9999 14.0625C15.2038 14.0625 14.5481 14.6584 14.4512 15.4282C13.2321 15.1148 12.1288 14.4389 11.2956 13.4886L12.9084 12.0908C14.6839 10.5521 17.3194 10.5549 19.0916 12.0908C20.7259 13.5072 24.8319 17.0658 27.4216 19.3103C28.107 19.9042 28.5 20.7649 28.5 21.6718V45.3125Z" fill="#BF3D3D"/>
<path d="M22.428 25.3291C21.747 24.7994 20.7652 24.9221 20.2354 25.6032L9.29785 39.6657C8.49443 40.6988 9.24697 42.1876 10.5302 42.1876C10.9958 42.1876 11.4566 41.9803 11.7647 41.5843L22.7022 27.5218C23.2319 26.8406 23.1092 25.8589 22.428 25.3291Z" fill="#BF3D3D"/>
<path d="M21.4688 42.1875C23.1946 42.1875 24.5938 40.7884 24.5938 39.0625C24.5938 37.3366 23.1946 35.9375 21.4688 35.9375C19.7429 35.9375 18.3438 37.3366 18.3438 39.0625C18.3438 40.7884 19.7429 42.1875 21.4688 42.1875Z" fill="#BF3D3D"/>
<path d="M10.5312 31.25C12.2571 31.25 13.6562 29.8509 13.6562 28.125C13.6562 26.3991 12.2571 25 10.5312 25C8.80536 25 7.40625 26.3991 7.40625 28.125C7.40625 29.8509 8.80536 31.25 10.5312 31.25Z" fill="#BF3D3D"/>
</svg>
