<svg width="50" height="50" viewBox="0 0 50 50" fill="none" xmlns="http://www.w3.org/2000/svg">
<path d="M25 0L0 7.40059V50H50V7.40059L25 0ZM41.2109 47.0703H8.78906V44.1406H41.2109V47.0703ZM41.2109 41.2109H8.78906V38.2812H41.2109V41.2109ZM41.2109 35.3516H8.78906V32.4219H41.2109V35.3516ZM41.2109 29.4922H8.78906V26.5625H41.2109V29.4922ZM47.0703 47.0703H44.1406V23.6328H5.85938V47.0703H2.92969V9.5916L25 3.08955L47.0703 9.5916V47.0703Z" fill="#BF3D3D"/>
<path d="M5.85938 12.8906V21.6797H44.1406V12.8906H5.85938ZM17.6433 18.75H8.78906V15.8203H17.6433V18.75ZM29.4272 18.75H20.573V15.8203H29.4272V18.75ZM41.2109 18.75H32.3567V15.8203H41.2109V18.75Z" fill="#BF3D3D"/>
</svg>
