<svg width="44" height="50" viewBox="0 0 44 50" fill="none" xmlns="http://www.w3.org/2000/svg">
<path d="M38.538 13.5609L39.9539 12.145L40.6446 12.8357C40.9307 13.1218 41.3056 13.2648 41.6804 13.2648C42.0552 13.2648 42.4302 13.1218 42.7161 12.8357C43.2882 12.2638 43.2882 11.3362 42.7161 10.7642L39.2631 7.31104C38.6912 6.73906 37.7637 6.73896 37.1915 7.31104C36.6194 7.88301 36.6194 8.81055 37.1915 9.38262L37.8822 10.0733L36.4663 11.4893C33.5727 8.95078 30.1175 7.24414 26.3945 6.49238V2.92969H26.8828C27.6918 2.92969 28.3477 2.27383 28.3477 1.46484C28.3477 0.655859 27.6918 0 26.8828 0H17.1172C16.3082 0 15.6523 0.655859 15.6523 1.46484C15.6523 2.27383 16.3082 2.92969 17.1172 2.92969H17.6055V6.49238C13.8825 7.24414 10.4273 8.95078 7.53359 11.4894L6.11768 10.0734L6.8084 9.38272C7.38047 8.81065 7.38047 7.8832 6.8084 7.31113C6.23643 6.73906 5.30889 6.73906 4.73682 7.31113L1.28369 10.7643C0.711621 11.3363 0.711621 12.2638 1.28369 12.8358C1.56973 13.1219 1.94463 13.2649 2.31943 13.2649C2.69424 13.2649 3.06924 13.122 3.35518 12.8358L4.0459 12.1451L5.46182 13.561C1.94766 17.567 0.0273438 22.6492 0.0273438 28.0273C0.0273438 33.8965 2.31289 39.4143 6.46299 43.5644C10.6131 47.7145 16.1309 50 22 50C27.8691 50 33.3869 47.7145 37.537 43.5644C41.6871 39.4143 43.9727 33.8965 43.9727 28.0273C43.9727 22.6493 42.0523 17.567 38.538 13.5609ZM20.5352 2.92969H23.4648V6.10391C22.9793 6.07207 22.491 6.05469 22 6.05469C21.509 6.05469 21.0207 6.07207 20.5352 6.10391V2.92969ZM22 47.0703C11.4997 47.0703 2.95703 38.5276 2.95703 28.0273C2.95703 17.5271 11.4997 8.98438 22 8.98438C32.5003 8.98438 41.043 17.5271 41.043 28.0273C41.043 38.5276 32.5003 47.0703 22 47.0703Z" fill="#BF3D3D"/>
<path d="M22 14.8438C22.809 14.8438 23.4648 14.1879 23.4648 13.3789C23.4648 12.5699 22.809 11.9141 22 11.9141C21.191 11.9141 20.5352 12.5699 20.5352 13.3789C20.5352 14.1879 21.191 14.8438 22 14.8438Z" fill="#BF3D3D"/>
<path d="M22 44.1406C22.809 44.1406 23.4648 43.4848 23.4648 42.6758C23.4648 41.8668 22.809 41.2109 22 41.2109C21.191 41.2109 20.5352 41.8668 20.5352 42.6758C20.5352 43.4848 21.191 44.1406 22 44.1406Z" fill="#BF3D3D"/>
<path d="M16.0952 15.7222C16.3047 14.9407 15.841 14.1373 15.0595 13.9278C14.278 13.7183 13.4746 14.1819 13.2651 14.9634C13.0556 15.745 13.5192 16.5483 14.3008 16.7579C15.0823 16.9674 15.8857 16.5037 16.0952 15.7222Z" fill="#BF3D3D"/>
<path d="M28.5918 39.4447C27.8912 39.8491 27.6511 40.745 28.0557 41.4456C28.4602 42.1462 29.3561 42.3863 30.0566 41.9818C30.7572 41.5773 30.9974 40.6814 30.5928 39.9808C30.1883 39.2802 29.2924 39.0402 28.5918 39.4447Z" fill="#BF3D3D"/>
<path d="M9.69812 22.1175C10.4796 21.908 10.9433 21.1046 10.7338 20.3231C10.5242 19.5416 9.72084 19.0779 8.93933 19.2874C8.15783 19.497 7.69415 20.3004 7.90369 21.0819C8.11322 21.8634 8.91662 22.327 9.69812 22.1175Z" fill="#BF3D3D"/>
<path d="M35.4184 34.083C34.7178 33.6785 33.8219 33.9186 33.4174 34.6191C33.0129 35.3197 33.2529 36.2156 33.9535 36.6201C34.6541 37.0246 35.55 36.7846 35.9545 36.084C36.359 35.3834 36.1189 34.4875 35.4184 34.083Z" fill="#BF3D3D"/>
<path d="M7.35156 29.4922C8.16057 29.4922 8.81641 28.8364 8.81641 28.0273C8.81641 27.2183 8.16057 26.5625 7.35156 26.5625C6.54255 26.5625 5.88672 27.2183 5.88672 28.0273C5.88672 28.8364 6.54255 29.4922 7.35156 29.4922Z" fill="#BF3D3D"/>
<path d="M36.6484 29.4922C37.4574 29.4922 38.1133 28.8364 38.1133 28.0273C38.1133 27.2183 37.4574 26.5625 36.6484 26.5625C35.8394 26.5625 35.1836 27.2183 35.1836 28.0273C35.1836 28.8364 35.8394 29.4922 36.6484 29.4922Z" fill="#BF3D3D"/>
<path d="M10.734 35.7365C10.9435 34.9549 10.4798 34.1515 9.69833 33.942C8.91682 33.7325 8.11343 34.1962 7.90389 34.9777C7.69436 35.7592 8.15803 36.5626 8.93954 36.7721C9.72105 36.9816 10.5244 36.518 10.734 35.7365Z" fill="#BF3D3D"/>
<path d="M35.4184 21.9717C36.119 21.5672 36.3591 20.6713 35.9545 19.9707C35.55 19.2701 34.6541 19.03 33.9535 19.4346C33.2529 19.839 33.0128 20.7349 33.4174 21.4355C33.8219 22.1361 34.7177 22.3763 35.4184 21.9717Z" fill="#BF3D3D"/>
<path d="M15.0639 42.1281C15.8454 41.9186 16.3091 41.1152 16.0995 40.3337C15.89 39.5522 15.0866 39.0885 14.3051 39.2981C13.5236 39.5076 13.0599 40.311 13.2694 41.0925C13.479 41.874 14.2824 42.3377 15.0639 42.1281Z" fill="#BF3D3D"/>
<path d="M30.0566 14.0728C29.3561 13.6683 28.4602 13.9084 28.0557 14.609C27.6512 15.3096 27.8912 16.2055 28.5918 16.6099C29.2924 17.0144 30.1883 16.7744 30.5928 16.0738C30.9974 15.3732 30.7572 14.4773 30.0566 14.0728Z" fill="#BF3D3D"/>
<path d="M22 23.6328C20.9118 23.6328 19.9155 24.0312 19.1472 24.6888L15.1209 22.3642C14.4201 21.9596 13.5242 22.1997 13.1199 22.9004C12.7154 23.601 12.9555 24.4969 13.6561 24.9014L17.6803 27.2247C17.6319 27.4852 17.6055 27.7531 17.6055 28.0273C17.6055 30.4505 19.5769 32.4219 22 32.4219C24.4231 32.4219 26.3945 30.4505 26.3945 28.0273C26.3945 25.6042 24.4231 23.6328 22 23.6328ZM22 29.4922C21.1923 29.4922 20.5352 28.8351 20.5352 28.0273C20.5352 27.8036 20.5871 27.5923 20.6771 27.4023C20.6998 27.3696 20.7217 27.336 20.7419 27.301C20.762 27.2661 20.7794 27.2304 20.7964 27.1946C21.061 26.8132 21.5016 26.5625 22 26.5625C22.8077 26.5625 23.4648 27.2196 23.4648 28.0273C23.4648 28.8351 22.8077 29.4922 22 29.4922Z" fill="#BF3D3D"/>
</svg>
