<svg width="50" height="33" viewBox="0 0 50 33" fill="none" xmlns="http://www.w3.org/2000/svg">
<path d="M46.4998 14.094L45.205 8.91483C45.559 8.83964 45.8246 8.52557 45.8246 8.1493V7.31425C45.8246 5.50116 44.3495 4.02616 42.5365 4.02616H36.6389V2.3037C36.6389 1.41151 35.9131 0.68573 35.0209 0.68573H4.9582C4.06602 0.68573 3.34023 1.41151 3.34023 2.3037V16.5C3.34023 16.9323 3.69072 17.2829 4.12314 17.2829C4.55547 17.2829 4.90605 16.9324 4.90605 16.5V2.3037C4.90605 2.27489 4.92939 2.25155 4.9582 2.25155H35.0208C35.0496 2.25155 35.0729 2.27489 35.0729 2.3037V16.5002C35.0729 16.9325 35.4234 17.2831 35.8559 17.2831C36.2882 17.2831 36.6388 16.9326 36.6388 16.5002V15.6127H45.874L45.8761 15.6129L45.8782 15.6128C47.0146 15.6136 47.9796 16.3595 48.311 17.3873H45.8767C45.4443 17.3873 45.0938 17.7378 45.0938 18.1702V19.8403C45.0938 21.193 46.1941 22.2933 47.5468 22.2933H48.4341V25.738H46.387C45.7146 23.7963 43.8688 22.3976 41.7013 22.3976C39.5338 22.3976 37.6879 23.7963 37.0155 25.738H36.6386V19.8402C36.6386 19.4079 36.2881 19.0573 35.8557 19.0573C35.4233 19.0573 35.0728 19.4078 35.0728 19.8402V25.7378H18.8298C18.1573 23.7961 16.3115 22.3975 14.144 22.3975C11.9766 22.3975 10.1307 23.7961 9.4583 25.7378H4.9582C4.92939 25.7378 4.90605 25.7144 4.90605 25.6856V23.9633H8.29854C8.73086 23.9633 9.08145 23.6128 9.08145 23.1804C9.08145 22.7479 8.73096 22.3975 8.29854 22.3975H0.78291C0.350586 22.3975 0 22.7479 0 23.1804C0 23.6128 0.350488 23.9633 0.78291 23.9633H3.34033V25.6856C3.34033 26.5778 4.06611 27.3036 4.9583 27.3036H9.18721C9.18701 27.321 9.18584 27.3383 9.18584 27.3558C9.18584 30.0897 11.4102 32.314 14.144 32.314C16.8779 32.314 19.1022 30.0897 19.1022 27.3558C19.1022 27.3382 19.1011 27.321 19.1009 27.3036H36.7444C36.7442 27.321 36.7431 27.3383 36.7431 27.3558C36.7431 30.0897 38.9674 32.314 41.7013 32.314C44.4352 32.314 46.6595 30.0897 46.6595 27.3558C46.6595 27.3382 46.6583 27.321 46.6581 27.3036H49.217C49.6493 27.3036 49.9999 26.9531 49.9999 26.5207V18.17C50 16.1083 48.4788 14.3953 46.4998 14.094ZM36.6389 5.59188H42.5365C43.4862 5.59188 44.2589 6.36454 44.2589 7.31425V7.36639H36.6389V5.59188ZM36.6389 14.047V8.93212H43.5954L44.8741 14.047H36.6389ZM14.144 30.7484C12.2734 30.7484 10.7516 29.2267 10.7516 27.3559C10.7516 25.4852 12.2734 23.9635 14.144 23.9635C16.0147 23.9635 17.5365 25.4852 17.5365 27.3559C17.5365 29.2267 16.0147 30.7484 14.144 30.7484ZM41.7015 30.7484C39.8309 30.7484 38.309 29.2267 38.309 27.3559C38.309 25.4852 39.8309 23.9635 41.7015 23.9635C43.5721 23.9635 45.0939 25.4852 45.0939 27.3559C45.0939 29.2267 43.5721 30.7484 41.7015 30.7484ZM48.4343 20.7275H47.547C47.0577 20.7275 46.6597 20.3295 46.6597 19.8402V18.9529H48.4342L48.4343 20.7275Z" fill="#BF3D3D"/>
<path d="M14.144 25.738C13.2519 25.738 12.5261 26.4638 12.5261 27.356C12.5261 28.2481 13.2519 28.9739 14.144 28.9739C15.0362 28.9739 15.762 28.2481 15.762 27.356C15.762 26.4638 15.0362 25.738 14.144 25.738Z" fill="#BF3D3D"/>
<path d="M41.7015 25.738C40.8093 25.738 40.0835 26.4638 40.0835 27.356C40.0835 28.2481 40.8093 28.9739 41.7015 28.9739C42.5937 28.9739 43.3194 28.2481 43.3194 27.356C43.3194 26.4638 42.5937 25.738 41.7015 25.738Z" fill="#BF3D3D"/>
<path d="M32.5156 22.3978H20.8246C20.3923 22.3978 20.0417 22.7482 20.0417 23.1807C20.0417 23.6131 20.3922 23.9636 20.8246 23.9636H32.5156C32.9479 23.9636 33.2985 23.6131 33.2985 23.1807C33.2985 22.7482 32.948 22.3978 32.5156 22.3978Z" fill="#BF3D3D"/>
<path d="M12.4739 19.0574H2.45303C2.0207 19.0574 1.67012 19.4079 1.67012 19.8403C1.67012 20.2728 2.02061 20.6232 2.45303 20.6232H12.4739C12.9063 20.6232 13.2568 20.2728 13.2568 19.8403C13.2568 19.4079 12.9063 19.0574 12.4739 19.0574Z" fill="#BF3D3D"/>
<path d="M27.2237 8.43065C26.9181 8.12499 26.4223 8.12499 26.1166 8.43075L19.1545 15.3928L15.5327 11.771C15.227 11.4652 14.7312 11.4652 14.4256 11.771C14.1198 12.0767 14.1198 12.5723 14.4256 12.8781L18.601 17.0535C18.7538 17.2064 18.9542 17.2828 19.1545 17.2828C19.3548 17.2828 19.5553 17.2064 19.708 17.0535L27.2236 9.53788C27.5294 9.23202 27.5294 8.73641 27.2237 8.43065Z" fill="#BF3D3D"/>
<path d="M46.4998 14.094L45.205 8.91483C45.559 8.83964 45.8246 8.52557 45.8246 8.1493V7.31425C45.8246 5.50116 44.3495 4.02616 42.5365 4.02616H36.6389V2.3037C36.6389 1.41151 35.9131 0.68573 35.0209 0.68573H4.9582C4.06602 0.68573 3.34023 1.41151 3.34023 2.3037V16.5C3.34023 16.9323 3.69072 17.2829 4.12314 17.2829C4.55547 17.2829 4.90605 16.9324 4.90605 16.5V2.3037C4.90605 2.27489 4.92939 2.25155 4.9582 2.25155H35.0208C35.0496 2.25155 35.0729 2.27489 35.0729 2.3037V16.5002C35.0729 16.9325 35.4234 17.2831 35.8559 17.2831C36.2882 17.2831 36.6388 16.9326 36.6388 16.5002V15.6127H45.874L45.8761 15.6129L45.8782 15.6128C47.0146 15.6136 47.9796 16.3595 48.311 17.3873H45.8767C45.4443 17.3873 45.0938 17.7378 45.0938 18.1702V19.8403C45.0938 21.193 46.1941 22.2933 47.5468 22.2933H48.4341V25.738H46.387C45.7146 23.7963 43.8688 22.3976 41.7013 22.3976C39.5338 22.3976 37.6879 23.7963 37.0155 25.738H36.6386V19.8402C36.6386 19.4079 36.2881 19.0573 35.8557 19.0573C35.4233 19.0573 35.0728 19.4078 35.0728 19.8402V25.7378H18.8298C18.1573 23.7961 16.3115 22.3975 14.144 22.3975C11.9766 22.3975 10.1307 23.7961 9.4583 25.7378H4.9582C4.92939 25.7378 4.90605 25.7144 4.90605 25.6856V23.9633H8.29854C8.73086 23.9633 9.08145 23.6128 9.08145 23.1804C9.08145 22.7479 8.73096 22.3975 8.29854 22.3975H0.78291C0.350586 22.3975 0 22.7479 0 23.1804C0 23.6128 0.350488 23.9633 0.78291 23.9633H3.34033V25.6856C3.34033 26.5778 4.06611 27.3036 4.9583 27.3036H9.18721C9.18701 27.321 9.18584 27.3383 9.18584 27.3558C9.18584 30.0897 11.4102 32.314 14.144 32.314C16.8779 32.314 19.1022 30.0897 19.1022 27.3558C19.1022 27.3382 19.1011 27.321 19.1009 27.3036H36.7444C36.7442 27.321 36.7431 27.3383 36.7431 27.3558C36.7431 30.0897 38.9674 32.314 41.7013 32.314C44.4352 32.314 46.6595 30.0897 46.6595 27.3558C46.6595 27.3382 46.6583 27.321 46.6581 27.3036H49.217C49.6493 27.3036 49.9999 26.9531 49.9999 26.5207V18.17C50 16.1083 48.4788 14.3953 46.4998 14.094ZM36.6389 5.59188H42.5365C43.4862 5.59188 44.2589 6.36454 44.2589 7.31425V7.36639H36.6389V5.59188ZM36.6389 14.047V8.93212H43.5954L44.8741 14.047H36.6389ZM14.144 30.7484C12.2734 30.7484 10.7516 29.2267 10.7516 27.3559C10.7516 25.4852 12.2734 23.9635 14.144 23.9635C16.0147 23.9635 17.5365 25.4852 17.5365 27.3559C17.5365 29.2267 16.0147 30.7484 14.144 30.7484ZM41.7015 30.7484C39.8309 30.7484 38.309 29.2267 38.309 27.3559C38.309 25.4852 39.8309 23.9635 41.7015 23.9635C43.5721 23.9635 45.0939 25.4852 45.0939 27.3559C45.0939 29.2267 43.5721 30.7484 41.7015 30.7484ZM48.4343 20.7275H47.547C47.0577 20.7275 46.6597 20.3295 46.6597 19.8402V18.9529H48.4342L48.4343 20.7275Z" stroke="#BF3D3D"/>
<path d="M14.144 25.738C13.2519 25.738 12.5261 26.4638 12.5261 27.356C12.5261 28.2481 13.2519 28.9739 14.144 28.9739C15.0362 28.9739 15.762 28.2481 15.762 27.356C15.762 26.4638 15.0362 25.738 14.144 25.738Z" stroke="#BF3D3D"/>
<path d="M41.7015 25.738C40.8093 25.738 40.0835 26.4638 40.0835 27.356C40.0835 28.2481 40.8093 28.9739 41.7015 28.9739C42.5937 28.9739 43.3194 28.2481 43.3194 27.356C43.3194 26.4638 42.5937 25.738 41.7015 25.738Z" stroke="#BF3D3D"/>
<path d="M32.5156 22.3978H20.8246C20.3923 22.3978 20.0417 22.7482 20.0417 23.1807C20.0417 23.6131 20.3922 23.9636 20.8246 23.9636H32.5156C32.9479 23.9636 33.2985 23.6131 33.2985 23.1807C33.2985 22.7482 32.948 22.3978 32.5156 22.3978Z" stroke="#BF3D3D"/>
<path d="M12.4739 19.0574H2.45303C2.0207 19.0574 1.67012 19.4079 1.67012 19.8403C1.67012 20.2728 2.02061 20.6232 2.45303 20.6232H12.4739C12.9063 20.6232 13.2568 20.2728 13.2568 19.8403C13.2568 19.4079 12.9063 19.0574 12.4739 19.0574Z" stroke="#BF3D3D"/>
<path d="M27.2237 8.43065C26.9181 8.12499 26.4223 8.12499 26.1166 8.43075L19.1545 15.3928L15.5327 11.771C15.227 11.4652 14.7312 11.4652 14.4256 11.771C14.1198 12.0767 14.1198 12.5723 14.4256 12.8781L18.601 17.0535C18.7538 17.2064 18.9542 17.2828 19.1545 17.2828C19.3548 17.2828 19.5553 17.2064 19.708 17.0535L27.2236 9.53788C27.5294 9.23202 27.5294 8.73641 27.2237 8.43065Z" stroke="#BF3D3D"/>
</svg>
