<svg width="491" height="311" viewBox="0 0 491 311" fill="none" xmlns="http://www.w3.org/2000/svg">
<g clip-path="url(#clip0)">
<path d="M450.33 135.828C458.661 142.64 445.028 202.433 445.028 202.433C445.028 202.433 441.999 293.638 435.561 297.8C429.124 301.963 414.734 297.422 409.053 296.665C403.373 295.908 408.296 239.521 416.627 218.706C424.958 197.892 418.52 167.617 418.52 167.617L373.457 176.321C373.457 176.321 400.722 199.406 399.586 204.326C398.45 209.245 369.292 225.897 363.99 226.654C358.689 227.41 348.464 196.378 339.376 175.186C330.287 153.993 401.48 140.369 401.48 140.369L411.325 121.826C411.325 121.826 441.999 129.016 450.33 135.828Z" fill="#2F2E41"/>
<path d="M427.713 299.371C427.713 299.371 430.461 308.982 427.713 308.982C424.965 308.982 419.927 311.729 412.141 310.813C404.355 309.898 406.645 300.286 412.141 298.913C417.637 297.54 416.263 286.555 416.263 286.555C418.095 282.894 426.797 287.471 426.797 287.471L427.713 299.371Z" fill="#2F2E41"/>
<path d="M388.7 222.939C388.7 222.939 393.415 231.755 390.728 232.334C388.042 232.913 383.697 236.659 375.893 237.405C368.089 238.151 368.3 228.273 373.382 225.773C378.465 223.272 374.804 212.824 374.804 212.824C375.822 208.859 385.294 211.499 385.294 211.499L388.7 222.939Z" fill="#2F2E41"/>
<path d="M445.218 53.8956C444.46 55.4094 447.868 74.3314 447.868 74.3314L444.839 79.6296C444.839 79.6296 427.419 72.8177 430.07 71.6823C432.721 70.547 432.342 56.5447 432.342 56.5447C432.342 56.5447 445.975 52.3819 445.218 53.8956Z" fill="#FFB9B9"/>
<path d="M438.661 59.7283C425.838 59.7283 415.443 49.3397 415.443 36.5247C415.443 23.7097 425.838 13.3211 438.661 13.3211C451.484 13.3211 461.88 23.7097 461.88 36.5247C461.88 49.3397 451.484 59.7283 438.661 59.7283Z" fill="#2F2E41"/>
<path d="M440.262 24.4038C434.956 24.4038 430.655 20.105 430.655 14.8023C430.655 9.49954 434.956 5.20081 440.262 5.20081C445.569 5.20081 449.87 9.49954 449.87 14.8023C449.87 20.105 445.569 24.4038 440.262 24.4038Z" fill="#2F2E41"/>
<path d="M436.059 19.1511C435.727 19.1856 435.392 19.2029 435.058 19.203C433.797 19.203 432.547 18.9547 431.382 18.4721C430.216 17.9896 429.157 17.2824 428.265 16.3908C427.372 15.4992 426.665 14.4407 426.182 13.2758C425.699 12.1109 425.451 10.8624 425.451 9.6015C425.451 8.34061 425.699 7.09207 426.182 5.92717C426.665 4.76226 427.372 3.7038 428.265 2.81221C429.157 1.92063 430.216 1.21339 431.382 0.730871C432.547 0.24835 433.797 -3.75774e-08 435.058 0C435.392 8.59131e-05 435.727 0.0174122 436.059 0.0519114C433.697 0.299221 431.51 1.41196 429.921 3.17544C428.332 4.93891 427.452 7.22816 427.452 9.6015C427.452 11.9748 428.332 14.2641 429.921 16.0276C431.51 17.791 433.697 18.9038 436.059 19.1511Z" fill="#2F2E41"/>
<path d="M438.023 63.7351C429.239 63.7351 422.118 56.6189 422.118 47.8406C422.118 39.0623 429.239 31.9461 438.023 31.9461C446.806 31.9461 453.927 39.0623 453.927 47.8406C453.927 56.6189 446.806 63.7351 438.023 63.7351Z" fill="#FFB9B9"/>
<path d="M460.933 72.25C465.856 73.3853 474.187 85.4954 474.187 85.4954L460.933 98.7408C460.933 98.7408 451.466 134.314 450.33 135.828C442.887 145.745 409.432 123.718 409.432 123.718C409.432 123.718 410.758 112.932 410 107.634C409.272 102.539 412.84 92.3073 412.84 92.3073C412.84 92.3073 400.344 87.0092 402.994 81.711C405.645 76.4128 421.929 64.3028 428.745 68.4656C435.561 72.6284 449.194 68.4656 449.194 68.4656C449.194 68.4656 456.01 71.1147 460.933 72.25Z" fill="#8800FF"/>
<path d="M364.18 148.506C364.18 148.506 342.595 167.049 337.293 163.265C331.991 159.48 357.742 146.235 357.742 146.235L364.18 148.506Z" fill="#FFB9B9"/>
<path d="M461.122 142.072C458.093 145.478 443.703 136.774 445.548 132.909C447.392 129.043 458.85 136.774 458.85 136.774C458.85 136.774 464.152 138.666 461.122 142.072Z" fill="#FFB9B9"/>
<path d="M460.933 90.7936L476.837 120.312C476.837 120.312 458.661 135.45 456.389 135.828C454.117 136.206 460.933 146.046 460.933 146.046C460.933 146.046 481.382 131.665 489.334 124.475C497.286 117.284 474.187 85.4954 474.187 85.4954L467.37 81.3326L460.933 90.7936Z" fill="#8800FF"/>
<path d="M414.734 89.6583L396.178 118.42C396.178 118.42 367.777 150.209 363.99 151.722C360.203 153.236 355.659 146.046 355.659 146.046L389.741 104.796L402.616 81.711L407.539 79.8188L414.734 89.6583Z" fill="#8800FF"/>
<path d="M438.661 38.5573C429.818 38.5573 422.648 34.2586 422.648 28.9558C422.648 23.6531 429.818 19.3543 438.661 19.3543C447.505 19.3543 454.674 23.6531 454.674 28.9558C454.674 34.2586 447.505 38.5573 438.661 38.5573Z" fill="#2F2E41"/>
<path d="M393.74 236.119C394.265 236.119 394.768 236.328 395.139 236.699C395.51 237.07 395.719 237.573 395.72 238.097V305.568C395.719 306.093 395.51 306.596 395.139 306.967C394.768 307.337 394.265 307.546 393.74 307.547H163.527C163.003 307.546 162.5 307.337 162.128 306.967C161.757 306.596 161.549 306.093 161.548 305.568V238.097C161.549 237.573 161.757 237.07 162.128 236.699C162.5 236.328 163.003 236.119 163.527 236.119L393.74 236.119Z" fill="#F3E6FF"/>
<path d="M390.759 302.589H166.509V241.076H390.759V302.589Z" fill="white"/>
<path d="M178.5 258.5C181.667 267.667 192.5 285.8 210.5 285C233 284 234.5 275.5 240.5 276C246.5 276.5 252.5 287 266.5 286C280.5 285 285 276 290.5 276C296 276 311.5 284.5 314.5 282C316.9 280 327.167 265.5 332 258.5" stroke="#F5526F"/>
<path d="M326.395 247C326.826 246.999 327.253 247.084 327.651 247.248C328.049 247.413 328.411 247.654 328.716 247.958C329.021 248.263 329.263 248.624 329.428 249.022C329.593 249.42 329.678 249.846 329.678 250.277C329.678 250.708 329.593 251.134 329.428 251.532C329.263 251.93 329.021 252.291 328.716 252.595C328.411 252.9 328.049 253.141 327.651 253.305C327.253 253.47 326.826 253.554 326.395 253.554H313.279C312.409 253.554 311.575 253.209 310.96 252.594C310.345 251.979 310 251.146 310 250.277C310 249.408 310.345 248.574 310.96 247.96C311.575 247.345 312.409 247 313.279 247H326.395Z" fill="#1B0033"/>
<path d="M178.42 294.534H329.826V295.396H178.42V294.534Z" fill="#8800FF"/>
<path d="M361.475 290.919C350.927 290.919 342.377 282.374 342.377 271.833C342.377 261.292 350.927 252.747 361.475 252.747C372.023 252.747 380.573 261.292 380.573 271.833C380.573 282.374 372.023 290.919 361.475 290.919Z" fill="#8800FF"/>
<path d="M354 280H368V262H354V280ZM361 273.5C360.901 273.5 360.804 273.471 360.722 273.416C360.64 273.361 360.576 273.283 360.538 273.191C360.5 273.1 360.49 272.999 360.51 272.902C360.529 272.806 360.577 272.716 360.646 272.647L363.146 270.147C363.241 270.055 363.367 270.005 363.498 270.006C363.629 270.007 363.755 270.06 363.847 270.153C363.94 270.245 363.993 270.371 363.994 270.502C363.995 270.633 363.945 270.759 363.854 270.854L361.354 273.354C361.26 273.447 361.133 273.5 361 273.5ZM366.854 271.647C366.947 271.74 367 271.867 367 272C367 272.133 366.947 272.26 366.854 272.354L362.354 276.854C362.259 276.945 362.133 276.995 362.002 276.994C361.871 276.993 361.745 276.94 361.653 276.847C361.56 276.755 361.507 276.629 361.506 276.498C361.505 276.367 361.555 276.241 361.646 276.147L366.146 271.647C366.24 271.553 366.367 271.5 366.5 271.5C366.633 271.5 366.76 271.553 366.854 271.647ZM364.865 264.658C364.955 264.755 365.004 264.883 364.999 265.016C364.995 265.148 364.939 265.274 364.842 265.365L356.842 272.865C356.795 272.911 356.738 272.948 356.676 272.973C356.614 272.998 356.548 273.01 356.481 273.009C356.414 273.008 356.348 272.993 356.287 272.966C356.226 272.939 356.171 272.9 356.126 272.851C356.08 272.803 356.045 272.745 356.021 272.683C355.998 272.62 355.988 272.553 355.991 272.487C355.994 272.42 356.01 272.354 356.039 272.294C356.068 272.234 356.108 272.18 356.158 272.136L364.158 264.636C364.255 264.545 364.383 264.496 364.516 264.501C364.648 264.505 364.774 264.561 364.865 264.658ZM355.646 268.647L359.646 264.647C359.741 264.555 359.867 264.505 359.998 264.506C360.129 264.507 360.255 264.56 360.347 264.653C360.44 264.745 360.493 264.871 360.494 265.002C360.495 265.133 360.445 265.259 360.354 265.354L356.354 269.354C356.259 269.445 356.133 269.495 356.002 269.494C355.871 269.493 355.745 269.44 355.653 269.347C355.56 269.255 355.507 269.129 355.506 268.998C355.505 268.867 355.555 268.741 355.646 268.647Z" fill="#FBF8FF"/>
<path d="M361 284C361.276 284 361.5 283.776 361.5 283.5C361.5 283.224 361.276 283 361 283C360.724 283 360.5 283.224 360.5 283.5C360.5 283.776 360.724 284 361 284Z" fill="#FBF8FF"/>
<path d="M354 283C354 284.382 354.631 285.434 355.609 285.829C355.732 285.878 355.859 285.917 355.988 285.947L356.017 285.951C356.176 285.983 356.338 286 356.5 286H365.5C365.662 285.999 365.824 285.982 365.983 285.95L366.011 285.946C366.141 285.916 366.268 285.877 366.391 285.828C367.37 285.434 368 284.382 368 283V281H354V283ZM361 282C361.297 282 361.587 282.088 361.833 282.253C362.08 282.418 362.272 282.652 362.386 282.926C362.499 283.2 362.529 283.502 362.471 283.793C362.413 284.084 362.27 284.351 362.061 284.561C361.851 284.77 361.584 284.913 361.293 284.971C361.002 285.029 360.7 284.999 360.426 284.886C360.152 284.772 359.918 284.58 359.753 284.333C359.588 284.087 359.5 283.797 359.5 283.5C359.5 283.102 359.658 282.721 359.939 282.439C360.221 282.158 360.602 282 361 282Z" fill="#FBF8FF"/>
<path d="M366.054 258.067C366.035 258.063 366.018 258.055 365.999 258.051C365.835 258.017 365.668 258 365.5 258H356.5C356.332 258 356.165 258.017 356 258.05C355.981 258.054 355.964 258.062 355.945 258.066C355.393 258.192 354.9 258.501 354.547 258.943C354.194 259.385 354.001 259.934 354 260.5V261H368V260.5C367.999 259.934 367.806 259.385 367.452 258.943C367.099 258.501 366.606 258.192 366.054 258.067ZM357.855 259.855C357.808 259.902 357.753 259.939 357.692 259.964C357.631 259.989 357.566 260.002 357.5 260.002C357.367 260.002 357.239 259.949 357.145 259.855C357.051 259.761 356.998 259.633 356.998 259.5C356.998 259.367 357.051 259.239 357.145 259.145C357.215 259.074 357.304 259.026 357.402 259.007C357.499 258.987 357.6 258.997 357.692 259.035C357.783 259.073 357.862 259.138 357.917 259.221C357.972 259.303 358.001 259.401 358 259.5C357.998 259.632 357.946 259.759 357.855 259.855ZM362.5 260H359.5C359.367 260 359.24 259.947 359.146 259.854C359.053 259.76 359 259.633 359 259.5C359 259.367 359.053 259.24 359.146 259.146C359.24 259.053 359.367 259 359.5 259H362.5C362.633 259 362.76 259.053 362.854 259.146C362.947 259.24 363 259.367 363 259.5C363 259.633 362.947 259.76 362.854 259.854C362.76 259.947 362.633 260 362.5 260Z" fill="#FBF8FF"/>
<path d="M210.133 247C210.501 247 210.866 247.072 211.207 247.212C211.547 247.353 211.857 247.559 212.118 247.819C212.378 248.08 212.585 248.389 212.726 248.729C212.867 249.069 212.94 249.434 212.94 249.802C212.94 250.17 212.867 250.535 212.726 250.875C212.585 251.215 212.378 251.524 212.118 251.785C211.857 252.045 211.547 252.251 211.207 252.392C210.866 252.532 210.501 252.605 210.133 252.604H180.8C180.057 252.603 179.345 252.308 178.82 251.782C178.295 251.257 178 250.545 178 249.802C178 249.06 178.295 248.347 178.82 247.822C179.345 247.297 180.057 247.001 180.8 247H210.133Z" fill="#8800FF"/>
<g filter="url(#filter0_d)">
<rect x="54.4296" y="139.428" width="208" height="60" fill="#C4C4C4"/>
</g>
<path d="M273.192 128.43C273.717 128.43 274.22 128.639 274.591 129.01C274.962 129.381 275.171 129.883 275.172 130.408V197.879C275.171 198.404 274.962 198.907 274.591 199.277C274.22 199.648 273.717 199.857 273.192 199.857H42.9795C42.4547 199.857 41.9515 199.648 41.5804 199.277C41.2094 198.907 41.0006 198.404 41 197.879V130.408C41.0006 129.883 41.2094 129.381 41.5804 129.01C41.9515 128.639 42.4547 128.43 42.9795 128.43L273.192 128.43Z" fill="#F3E6FF"/>
<path d="M270.211 194.9H45.9607V133.387H270.211V194.9Z" fill="white"/>
<path d="M240.927 183.23C230.38 183.23 221.829 174.685 221.829 164.144C221.829 153.603 230.38 145.058 240.927 145.058C251.475 145.058 260.025 153.603 260.025 164.144C260.025 174.685 251.475 183.23 240.927 183.23Z" fill="#8800FF"/>
<path d="M251.663 165.228H247.83V162.161H248.596C248.8 162.161 248.995 162.08 249.138 161.937C249.282 161.793 249.363 161.598 249.363 161.394V160.628H251.663V159.094H249.363V157.561H251.663V156.028H249.363V154.494H251.663V152.961H249.363V152.194C249.363 151.991 249.282 151.796 249.138 151.652C248.995 151.509 248.8 151.428 248.596 151.428H245.53C245.326 151.428 245.131 151.509 244.988 151.652C244.844 151.796 244.763 151.991 244.763 152.194V152.961H242.463V154.494H244.763V156.028H242.463V157.561H244.763V159.094H242.463V160.628H244.763V161.394C244.763 161.598 244.844 161.793 244.988 161.937C245.131 162.08 245.326 162.161 245.53 162.161H246.296V165.228H242.463C242.26 165.228 242.065 165.309 241.921 165.452C241.777 165.596 241.696 165.791 241.696 165.994V173.661C241.696 173.864 241.777 174.059 241.921 174.203C242.065 174.347 242.26 174.428 242.463 174.428H251.663C251.866 174.428 252.061 174.347 252.205 174.203C252.349 174.059 252.43 173.864 252.43 173.661V165.994C252.43 165.791 252.349 165.596 252.205 165.452C252.061 165.309 251.866 165.228 251.663 165.228Z" fill="#FBF8FF"/>
<path d="M238.63 159.861C238.63 159.658 238.549 159.463 238.405 159.319C238.261 159.175 238.066 159.094 237.863 159.094H231.73C231.526 159.094 231.331 159.175 231.188 159.319C231.044 159.463 230.963 159.658 230.963 159.861V162.161H238.63V159.861Z" fill="#FBF8FF"/>
<path d="M237.096 157.561V155.261C237.096 155.058 237.015 154.863 236.872 154.719L233.805 151.652C233.698 151.545 233.561 151.472 233.412 151.443C233.264 151.413 233.11 151.428 232.97 151.486C232.83 151.544 232.71 151.643 232.626 151.769C232.541 151.895 232.496 152.043 232.496 152.194V157.561H237.096Z" fill="#FBF8FF"/>
<path d="M229.43 163.694V173.661C229.43 173.864 229.51 174.059 229.654 174.203C229.798 174.347 229.993 174.428 230.196 174.428H239.396C239.6 174.428 239.795 174.347 239.938 174.203C240.082 174.059 240.163 173.864 240.163 173.661V163.694H229.43Z" fill="#FBF8FF"/>
<path d="M55.4296 177.928C58.5963 187.094 72.4296 156.728 90.4296 155.928C112.93 154.928 112.93 172.928 118.93 173.428C124.93 173.928 131.43 179.928 145.43 178.928C159.43 177.928 163.93 162.928 169.43 162.928C174.93 162.928 190.43 177.428 193.43 174.928C195.83 172.928 197.43 179.928 208.93 182.928" stroke="#5FEE3C"/>
<path d="M206.203 138.428C207.073 138.428 207.907 138.773 208.522 139.388C209.137 140.002 209.482 140.836 209.482 141.705C209.482 142.574 209.137 143.407 208.522 144.022C207.907 144.636 207.073 144.982 206.203 144.982H193.087C192.218 144.982 191.384 144.636 190.769 144.022C190.154 143.407 189.808 142.574 189.808 141.705C189.808 140.836 190.154 140.002 190.769 139.388C191.384 138.773 192.218 138.428 193.087 138.428H206.203Z" fill="#1B0033"/>
<path d="M57.8717 186.783H209.278V187.645H57.8717V186.783Z" fill="#8800FF"/>
<path d="M90.0079 138.879C90.7509 138.88 91.4632 139.175 91.9882 139.701C92.5133 140.226 92.8082 140.938 92.8082 141.681C92.8082 142.423 92.5133 143.135 91.9882 143.661C91.4632 144.186 90.7509 144.482 90.0079 144.483H60.6756C59.9319 144.483 59.2188 144.187 58.693 143.662C58.1671 143.136 57.8717 142.424 57.8717 141.681C57.8717 140.937 58.1671 140.225 58.693 139.699C59.2188 139.174 59.9319 138.879 60.6756 138.879H90.0079Z" fill="#8800FF"/>
<g filter="url(#filter1_d)">
<rect x="118" y="30.9415" width="208" height="60" fill="#C4C4C4"/>
</g>
<path d="M337.192 20.0019C337.717 20.0025 338.22 20.2111 338.591 20.582C338.962 20.9528 339.171 21.4556 339.172 21.9801V89.4514C339.171 89.9759 338.962 90.4787 338.591 90.8496C338.22 91.2204 337.717 91.429 337.192 91.4296H106.979C106.455 91.429 105.952 91.2204 105.58 90.8496C105.209 90.4787 105.001 89.9759 105 89.4514V21.9801C105.001 21.4556 105.209 20.9528 105.58 20.582C105.952 20.2111 106.455 20.0025 106.979 20.0019L337.192 20.0019Z" fill="#F3E6FF"/>
<path d="M334.211 86.4723H109.961V24.9593H334.211V86.4723Z" fill="white"/>
<path d="M304.927 74.8019C294.379 74.8019 285.829 66.2567 285.829 55.7158C285.829 45.1749 294.379 36.6297 304.927 36.6297C315.475 36.6297 324.025 45.1749 324.025 55.7158C324.025 66.2567 315.475 74.8019 304.927 74.8019Z" fill="#8800FF"/>
<path d="M299.549 50.5608H291.719V51.4738H299.549V50.5608Z" fill="#FBF8FF"/>
<path d="M299.549 48.142H291.719V49.5193H299.549V48.142Z" fill="#FBF8FF"/>
<path d="M295.634 62.5884C296.342 62.5884 296.917 62.0139 296.917 61.3053C296.917 60.5967 296.342 60.0222 295.634 60.0222C294.925 60.0222 294.351 60.5967 294.351 61.3053C294.351 62.0139 294.925 62.5884 295.634 62.5884Z" fill="#FBF8FF"/>
<path d="M291.719 64.5429H299.549V52.5154H291.719V64.5429ZM295.634 54.1242C295.932 54.1242 296.172 54.3658 296.172 54.6627C296.172 54.9597 295.931 55.2012 295.634 55.2012C295.336 55.2012 295.095 54.9597 295.095 54.6627C295.095 54.3658 295.337 54.1242 295.634 54.1242ZM295.634 55.9691C296.04 55.9691 296.369 56.2982 296.369 56.7048C296.369 57.1114 296.04 57.4405 295.634 57.4405C295.227 57.4405 294.898 57.1114 294.898 56.7048C294.899 56.2993 295.228 55.9691 295.634 55.9691ZM295.635 58.9807C296.917 58.9807 297.958 60.0233 297.958 61.3053C297.958 62.5873 296.916 63.6299 295.635 63.6299C294.354 63.6299 293.31 62.5873 293.31 61.3053C293.31 60.0233 294.353 58.9807 295.635 58.9807Z" fill="#FBF8FF"/>
<path d="M300.244 59.8538C300.244 60.2848 300.594 60.6338 301.025 60.6338H306.387C306.731 61.313 307.007 62.113 306.828 62.5717C306.779 62.6936 306.665 62.8642 306.292 62.9595H304.471C304.184 62.9595 303.951 63.1933 303.951 63.4803C303.951 63.7673 304.184 64.0011 304.471 64.0011H313.774C314.061 64.0011 314.294 63.7673 314.294 63.4803C314.294 63.1933 314.061 62.9595 313.774 62.9595H311.953C311.58 62.8642 311.466 62.6958 311.417 62.5717C311.238 62.113 311.513 61.313 311.857 60.6338H317.219C317.65 60.6338 318 60.2848 318 59.8538V58.7768H300.244V59.8538ZM310.447 62.9507C310.448 62.954 310.45 62.9562 310.451 62.9595H307.792C307.793 62.9562 307.795 62.954 307.796 62.9507C308.072 62.246 307.843 61.3618 307.534 60.6349H310.708C310.4 61.3618 310.171 62.2449 310.447 62.9507ZM315.252 59.343C315.47 59.343 315.647 59.5202 315.647 59.7374C315.647 59.9546 315.469 60.1319 315.252 60.1319C315.034 60.1319 314.858 59.9557 314.858 59.7374C314.858 59.5191 315.034 59.343 315.252 59.343ZM314.058 59.343C314.276 59.343 314.452 59.5202 314.452 59.7374C314.452 59.9546 314.275 60.1319 314.058 60.1319C313.839 60.1319 313.663 59.9557 313.663 59.7374C313.663 59.5191 313.839 59.343 314.058 59.343ZM312.896 59.343C313.115 59.343 313.291 59.5202 313.291 59.7374C313.291 59.9546 313.114 60.1319 312.896 60.1319C312.678 60.1319 312.502 59.9557 312.502 59.7374C312.502 59.5191 312.678 59.343 312.896 59.343Z" fill="#FBF8FF"/>
<path d="M317.344 48.142H301.024C300.593 48.142 300.243 48.4911 300.243 48.9221V57.7353H317.999V48.9221C317.999 48.4988 317.7 48.142 317.344 48.142Z" fill="#FBF8FF"/>
<path d="M122 38.9415C125.167 48.1081 136 66.2415 154 65.4415C176.5 64.4415 178 55.9415 184 56.4415C190 56.9415 196 67.4415 210 66.4415C224 65.4415 228.5 56.4415 234 56.4415C239.5 56.4415 255 64.9415 258 62.4415C260.4 60.4415 262 50.9415 273.5 53.9415" stroke="#F5D152"/>
<path d="M270.206 30.7112C271.076 30.7112 271.91 31.0564 272.525 31.6709C273.14 32.2855 273.485 33.119 273.485 33.988C273.485 34.8571 273.14 35.6906 272.525 36.3051C271.91 36.9197 271.076 37.2649 270.206 37.2649H257.091C256.221 37.2649 255.387 36.9197 254.772 36.3051C254.157 35.6906 253.812 34.8571 253.812 33.988C253.812 33.119 254.157 32.2855 254.772 31.6709C255.387 31.0564 256.221 30.7112 257.091 30.7112H270.206Z" fill="#1B0033"/>
<path d="M121.872 78.355H273.278V79.2172H121.872V78.355Z" fill="#8800FF"/>
<path d="M154.008 31.1619C154.751 31.1619 155.465 31.4571 155.99 31.9826C156.516 32.5081 156.812 33.2208 156.812 33.964C156.812 34.7071 156.516 35.4198 155.99 35.9453C155.465 36.4708 154.751 36.766 154.008 36.766H124.675C123.932 36.766 123.219 36.4708 122.693 35.9453C122.167 35.4198 121.872 34.7071 121.872 33.964C121.872 33.2208 122.167 32.5081 122.693 31.9826C123.219 31.4571 123.932 31.1619 124.675 31.1619H154.008Z" fill="#8800FF"/>
</g>
<defs>
<filter id="filter0_d" x="44.4296" y="129.428" width="228" height="80" filterUnits="userSpaceOnUse" color-interpolation-filters="sRGB">
<feFlood flood-opacity="0" result="BackgroundImageFix"/>
<feColorMatrix in="SourceAlpha" type="matrix" values="0 0 0 0 0 0 0 0 0 0 0 0 0 0 0 0 0 0 127 0"/>
<feOffset/>
<feGaussianBlur stdDeviation="5"/>
<feColorMatrix type="matrix" values="0 0 0 0 0.533333 0 0 0 0 0 0 0 0 0 1 0 0 0 0.3 0"/>
<feBlend mode="normal" in2="BackgroundImageFix" result="effect1_dropShadow"/>
<feBlend mode="normal" in="SourceGraphic" in2="effect1_dropShadow" result="shape"/>
</filter>
<filter id="filter1_d" x="87.9999" y="10.9415" width="268" height="120" filterUnits="userSpaceOnUse" color-interpolation-filters="sRGB">
<feFlood flood-opacity="0" result="BackgroundImageFix"/>
<feColorMatrix in="SourceAlpha" type="matrix" values="0 0 0 0 0 0 0 0 0 0 0 0 0 0 0 0 0 0 127 0"/>
<feOffset dy="10"/>
<feGaussianBlur stdDeviation="15"/>
<feColorMatrix type="matrix" values="0 0 0 0 0.533333 0 0 0 0 0 0 0 0 0 1 0 0 0 0.2 0"/>
<feBlend mode="normal" in2="BackgroundImageFix" result="effect1_dropShadow"/>
<feBlend mode="normal" in="SourceGraphic" in2="effect1_dropShadow" result="shape"/>
</filter>
<clipPath id="clip0">
<rect width="491" height="311" fill="white" transform="matrix(-1 0 0 1 491 0)"/>
</clipPath>
</defs>
</svg>
