<svg width="45" height="47" viewBox="0 0 45 47" fill="none" xmlns="http://www.w3.org/2000/svg">
<g filter="url(#filter0_d)">
<path d="M40.0714 11.4667V9.31667C40.0714 8.92089 39.7436 8.6 39.3393 8.6H37.875V6.45H41.5357C41.94 6.45 42.2679 6.12911 42.2679 5.73333V2.86667C42.2679 1.28346 40.9567 0 39.3393 0H15.9107C14.2933 0 12.9821 1.28346 12.9821 2.86667V7.88333H2.73214C2.32782 7.88333 2 8.20422 2 8.6V42.2833C2 42.6791 2.32782 43 2.73214 43H29.0893C29.4936 43 29.8214 42.6791 29.8214 42.2833V31.5333H34.2143V36.55C34.2158 36.6357 34.2331 36.7205 34.2655 36.8001H34.2604L36.4568 42.5334C36.5981 42.9043 37.0198 43.0929 37.3987 42.9546C37.5977 42.8819 37.7547 42.7283 37.8289 42.5334L40.0253 36.8001H40.0202C40.0526 36.7205 40.0699 36.6357 40.0714 36.55V12.9C40.8802 12.9 41.5357 13.5417 41.5357 14.3333V23.65H43V14.3333C43 12.7501 41.6888 11.4667 40.0714 11.4667ZM37.875 2.86667C37.875 2.07502 38.5305 1.43333 39.3393 1.43333C40.148 1.43333 40.8036 2.07502 40.8036 2.86667V5.01667H37.875V2.86667ZM28.3571 41.5667H3.46429V9.31667H28.3571V41.5667ZM34.2143 9.31667V30.1H29.8214V8.6C29.8214 8.20422 29.4936 7.88333 29.0893 7.88333H14.4464V2.86667C14.4464 2.07502 15.102 1.43333 15.9107 1.43333H36.8178C36.5543 1.86719 36.4137 2.36195 36.4107 2.86667V8.6H34.9464C34.5421 8.6 34.2143 8.92089 34.2143 9.31667ZM37.1429 40.2423L36.0029 37.2667H38.2828L37.1429 40.2423ZM38.6071 35.8333H35.6786V15.7667H38.6071V35.8333ZM38.6071 14.3333H35.6786V12.9H38.6071V14.3333ZM38.6071 11.4667H35.6786V10.0333H38.6071V11.4667Z" fill="url(#paint0_linear)"/>
<path d="M25.4286 11.4666H6.39286C5.98853 11.4666 5.66071 11.7875 5.66071 12.1833V16.4833C5.66071 16.8791 5.98853 17.2 6.39286 17.2H25.4286C25.8329 17.2 26.1607 16.8791 26.1607 16.4833V12.1833C26.1607 11.7875 25.8329 11.4666 25.4286 11.4666ZM24.6964 15.7666H7.125V12.9H24.6964V15.7666Z" fill="url(#paint1_linear)"/>
<path d="M10.7857 19.35H6.39286C5.98853 19.35 5.66071 19.6709 5.66071 20.0667V24.3667C5.66071 24.7624 5.98853 25.0833 6.39286 25.0833H10.7857C11.19 25.0833 11.5179 24.7624 11.5179 24.3667V20.0667C11.5179 19.6709 11.19 19.35 10.7857 19.35ZM10.0536 23.65H7.125V20.7833H10.0536V23.65Z" fill="url(#paint2_linear)"/>
<path d="M18.1071 19.35H13.7143C13.31 19.35 12.9821 19.6709 12.9821 20.0667V24.3667C12.9821 24.7624 13.31 25.0833 13.7143 25.0833H18.1071C18.5115 25.0833 18.8393 24.7624 18.8393 24.3667V20.0667C18.8393 19.6709 18.5115 19.35 18.1071 19.35ZM17.375 23.65H14.4464V20.7833H17.375V23.65Z" fill="url(#paint3_linear)"/>
<path d="M25.4286 19.35H21.0357C20.6314 19.35 20.3036 19.6709 20.3036 20.0667V24.3667C20.3036 24.7624 20.6314 25.0833 21.0357 25.0833H25.4286C25.8329 25.0833 26.1607 24.7624 26.1607 24.3667V20.0667C26.1607 19.6709 25.8329 19.35 25.4286 19.35ZM24.6964 23.65H21.7679V20.7833H24.6964V23.65Z" fill="url(#paint4_linear)"/>
<path d="M10.7857 26.5167H6.39286C5.98853 26.5167 5.66071 26.8375 5.66071 27.2333V31.5333C5.66071 31.9291 5.98853 32.25 6.39286 32.25H10.7857C11.19 32.25 11.5179 31.9291 11.5179 31.5333V27.2333C11.5179 26.8375 11.19 26.5167 10.7857 26.5167ZM10.0536 30.8167H7.125V27.95H10.0536V30.8167Z" fill="url(#paint5_linear)"/>
<path d="M18.1071 26.5167H13.7143C13.31 26.5167 12.9821 26.8375 12.9821 27.2333V31.5333C12.9821 31.9291 13.31 32.25 13.7143 32.25H18.1071C18.5115 32.25 18.8393 31.9291 18.8393 31.5333V27.2333C18.8393 26.8375 18.5115 26.5167 18.1071 26.5167ZM17.375 30.8167H14.4464V27.95H17.375V30.8167Z" fill="url(#paint6_linear)"/>
<path d="M10.7857 33.6833H6.39286C5.98853 33.6833 5.66071 34.0042 5.66071 34.4V38.7C5.66071 39.0958 5.98853 39.4167 6.39286 39.4167H10.7857C11.19 39.4167 11.5179 39.0958 11.5179 38.7V34.4C11.5179 34.0042 11.19 33.6833 10.7857 33.6833ZM10.0536 37.9833H7.125V35.1167H10.0536V37.9833Z" fill="url(#paint7_linear)"/>
<path d="M18.1071 33.6833H13.7143C13.31 33.6833 12.9821 34.0042 12.9821 34.4V38.7C12.9821 39.0958 13.31 39.4167 13.7143 39.4167H18.1071C18.5115 39.4167 18.8393 39.0958 18.8393 38.7V34.4C18.8393 34.0042 18.5115 33.6833 18.1071 33.6833ZM17.375 37.9833H14.4464V35.1167H17.375V37.9833Z" fill="url(#paint8_linear)"/>
<path d="M25.4286 26.5167H21.0357C20.6314 26.5167 20.3036 26.8375 20.3036 27.2333V38.7C20.3036 39.0958 20.6314 39.4167 21.0357 39.4167H25.4286C25.8329 39.4167 26.1607 39.0958 26.1607 38.7V27.2333C26.1607 26.8375 25.8329 26.5167 25.4286 26.5167ZM24.6964 37.9833H21.7679V27.95H24.6964V37.9833Z" fill="url(#paint9_linear)"/>
</g>
<defs>
<filter id="filter0_d" x="0" y="0" width="45" height="47" filterUnits="userSpaceOnUse" color-interpolation-filters="sRGB">
<feFlood flood-opacity="0" result="BackgroundImageFix"/>
<feColorMatrix in="SourceAlpha" type="matrix" values="0 0 0 0 0 0 0 0 0 0 0 0 0 0 0 0 0 0 127 0"/>
<feOffset dy="2"/>
<feGaussianBlur stdDeviation="1"/>
<feColorMatrix type="matrix" values="0 0 0 0 0.875 0 0 0 0 0.666458 0 0 0 0 0.473958 0 0 0 0.77 0"/>
<feBlend mode="normal" in2="BackgroundImageFix" result="effect1_dropShadow"/>
<feBlend mode="normal" in="SourceGraphic" in2="effect1_dropShadow" result="shape"/>
</filter>
<linearGradient id="paint0_linear" x1="2" y1="30" x2="41.5" y2="30" gradientUnits="userSpaceOnUse">
<stop stop-color="#AE1F00"/>
<stop offset="0.720541" stop-color="#DB0202"/>
</linearGradient>
<linearGradient id="paint1_linear" x1="2" y1="30" x2="41.5" y2="30" gradientUnits="userSpaceOnUse">
<stop stop-color="#AE1F00"/>
<stop offset="0.720541" stop-color="#DB0202"/>
</linearGradient>
<linearGradient id="paint2_linear" x1="2" y1="30" x2="41.5" y2="30" gradientUnits="userSpaceOnUse">
<stop stop-color="#AE1F00"/>
<stop offset="0.720541" stop-color="#DB0202"/>
</linearGradient>
<linearGradient id="paint3_linear" x1="2" y1="30" x2="41.5" y2="30" gradientUnits="userSpaceOnUse">
<stop stop-color="#AE1F00"/>
<stop offset="0.720541" stop-color="#DB0202"/>
</linearGradient>
<linearGradient id="paint4_linear" x1="2" y1="30" x2="41.5" y2="30" gradientUnits="userSpaceOnUse">
<stop stop-color="#AE1F00"/>
<stop offset="0.720541" stop-color="#DB0202"/>
</linearGradient>
<linearGradient id="paint5_linear" x1="2" y1="30" x2="41.5" y2="30" gradientUnits="userSpaceOnUse">
<stop stop-color="#AE1F00"/>
<stop offset="0.720541" stop-color="#DB0202"/>
</linearGradient>
<linearGradient id="paint6_linear" x1="2" y1="30" x2="41.5" y2="30" gradientUnits="userSpaceOnUse">
<stop stop-color="#AE1F00"/>
<stop offset="0.720541" stop-color="#DB0202"/>
</linearGradient>
<linearGradient id="paint7_linear" x1="2" y1="30" x2="41.5" y2="30" gradientUnits="userSpaceOnUse">
<stop stop-color="#AE1F00"/>
<stop offset="0.720541" stop-color="#DB0202"/>
</linearGradient>
<linearGradient id="paint8_linear" x1="2" y1="30" x2="41.5" y2="30" gradientUnits="userSpaceOnUse">
<stop stop-color="#AE1F00"/>
<stop offset="0.720541" stop-color="#DB0202"/>
</linearGradient>
<linearGradient id="paint9_linear" x1="2" y1="30" x2="41.5" y2="30" gradientUnits="userSpaceOnUse">
<stop stop-color="#AE1F00"/>
<stop offset="0.720541" stop-color="#DB0202"/>
</linearGradient>
</defs>
</svg>
