<svg width="48" height="51" viewBox="0 0 48 51" fill="none" xmlns="http://www.w3.org/2000/svg">
<g filter="url(#filter0_d)">
<path d="M44.5817 32.6393C43.0101 30.2366 40.6566 28.6051 37.5887 27.7932C36.5497 27.5192 35.4846 27.2782 34.4559 27.0447L33.2143 26.7606C31.9414 26.4663 31.2764 25.799 31.1179 24.6572C31.0686 24.2817 30.988 23.9087 30.9101 23.5358C30.8426 23.2186 30.7776 22.9015 30.7283 22.5843C30.7023 22.4219 30.7309 22.2139 30.8036 22.0464C31.0972 21.3411 31.4323 20.59 31.8609 19.6817C31.9388 19.5143 32.0349 19.4102 32.0895 19.3823C33.9598 18.4512 35.0015 16.2742 34.5157 14.3104C34.2845 13.3793 33.8299 12.8185 33.1181 12.5953C32.8869 12.5242 32.8688 12.4912 32.8714 12.169L32.874 11.8798C32.8947 10.1443 32.9155 8.35048 32.8844 6.58457C32.8428 4.30361 31.7829 2.59352 29.7282 1.50251C26.0265 -0.453686 22.2625 -0.501893 18.54 1.37058C16.267 2.51487 15.1137 4.34167 15.1111 6.80024C15.1085 8.61689 15.1163 10.4361 15.1293 12.2553C15.1319 12.5217 15.1241 12.5242 14.9838 12.5623C14.3162 12.7475 13.859 13.2245 13.5784 14.0186C13.0303 15.5841 13.5966 18.0148 15.176 18.9282C15.9553 19.3798 16.293 19.9684 16.5865 20.7753L16.6125 20.8488C16.6982 21.0924 16.797 21.3664 16.9788 21.5897C17.4178 22.1301 17.3035 22.7137 17.1736 23.3911L17.1373 23.5865C17.1243 23.6652 17.1061 23.7463 17.0879 23.825C17.0645 23.9265 17.0437 24.0254 17.0282 24.1269C16.7268 25.9005 16.2618 26.3825 14.4045 26.8392C14.0097 26.9356 13.6122 27.0295 13.2122 27.1259C11.5003 27.5293 9.73129 27.948 8.12593 28.6787C3.96965 30.5715 1.9071 33.7329 2.00321 38.074C2.04218 39.8501 2.03178 41.6591 2.02139 43.4073C2.0162 44.209 2.0136 45.0108 2.0136 45.81C2.0136 46.8681 2.15128 47 3.2423 47H44.7843C45.8623 47 46 46.8655 46 45.7948V42.636C46 40.8802 45.9974 39.127 46 37.3712C46 35.6738 45.522 34.0805 44.5817 32.6393ZM11.3496 45.3381C11.3522 45.4218 11.3548 45.5081 11.3548 45.5944H3.43972C3.44492 44.7114 3.43713 43.831 3.42933 42.9481C3.41115 40.7508 3.39037 38.4775 3.55662 36.2625C3.71767 34.1337 4.90741 32.3577 7.29207 30.6958C7.50508 31.1906 7.7129 31.6828 7.91811 32.1725C8.487 33.5273 9.02472 34.8086 9.68453 36.062C11.1081 38.7692 11.6588 41.4181 11.3678 44.1634C11.3289 44.5541 11.3392 44.9347 11.3496 45.3381ZM32.4791 17.3602C32.5622 16.8527 32.6402 16.3757 32.6947 15.8936C32.7545 15.3786 32.7908 14.861 32.8246 14.318L32.8428 14.0618C33.1052 14.3053 33.1779 14.6428 33.1909 15.0589C33.222 15.985 32.9935 16.7335 32.4791 17.3602ZM36.6328 43.0749C36.451 41.0807 36.864 39.1092 37.8979 37.0439C38.646 35.547 39.311 33.984 39.95 32.4693C40.202 31.8781 40.4514 31.287 40.7085 30.6958C43.314 32.5074 44.5869 34.7579 44.5973 37.5691C44.6051 39.3807 44.6025 41.1923 44.6025 43.0039V45.5994H36.6484C36.651 45.4015 36.6562 45.2062 36.6614 45.0083C36.6744 44.3765 36.6899 43.7194 36.6328 43.0749ZM35.2378 45.2696C35.2378 45.3787 35.2326 45.4853 35.2249 45.602H12.7654C12.7628 45.3711 12.7576 45.1402 12.7524 44.9119C12.7368 44.1888 12.7238 43.5062 12.7784 42.8212C12.9472 40.7813 12.5394 38.8022 11.5263 36.7674C10.7444 35.1943 10.069 33.5984 9.34943 31.9111C9.07667 31.2667 8.80132 30.6171 8.51558 29.9625L10.1131 29.3079C10.1807 29.4526 10.2404 29.5794 10.2976 29.7088L11.0301 31.3935C11.9653 33.5451 12.9004 35.6967 13.8174 37.8558C14.059 38.4242 14.4123 38.6576 15.0357 38.6576C15.0383 38.6576 15.0383 38.6576 15.0409 38.6576C21.013 38.6424 26.985 38.6424 32.9545 38.6576C32.9571 38.6576 32.9597 38.6576 32.9597 38.6576C33.5831 38.6576 33.9364 38.4242 34.178 37.8558C35.0898 35.7094 36.0197 33.5705 36.9471 31.4341L37.6978 29.7088C37.7524 29.5794 37.8147 29.4526 37.8823 29.3079L39.472 29.96C39.4305 30.0666 39.3941 30.1604 39.3552 30.2518L38.2745 32.7129C37.3627 34.7909 36.4484 36.8714 35.5522 38.957C35.3677 39.3883 35.2586 39.9135 35.2482 40.4337C35.2248 41.5577 35.23 42.6842 35.2326 43.8082L35.2378 45.2696ZM31.4686 10.3143L31.0894 10.19C30.2503 9.91848 29.445 9.65715 28.6787 9.39581C28.6553 9.37805 28.619 9.31209 28.6138 9.28164C28.4761 6.9753 28.3566 4.66643 28.2423 2.35756C30.188 2.97157 31.44 4.58524 31.466 6.55159C31.479 7.49543 31.4738 8.43928 31.4712 9.39581L31.4686 10.3143ZM16.5528 11.8798C16.571 11.8544 16.6463 11.7935 16.7164 11.763C19.1323 10.6923 21.5663 10.157 23.9977 10.157C26.4317 10.157 28.8657 10.6923 31.2816 11.763C31.3413 11.7884 31.4297 11.895 31.44 11.933C31.466 12.405 31.4634 12.8794 31.4582 13.3539V13.5213C26.5616 9.96162 21.5507 9.95908 16.5554 13.5213V13.4528C16.5502 12.849 16.5502 12.3288 16.5528 11.8798ZM23.9821 8.74375C22.9534 8.74375 21.9326 8.84016 20.9039 9.03299L20.9013 8.78942C20.8961 8.36824 20.8909 7.95975 20.9117 7.55379C20.9532 6.71904 21.0026 5.88684 21.0519 5.05209C21.1117 4.05496 21.1688 3.05783 21.2156 2.0607C21.2286 1.81459 21.2676 1.76385 21.5013 1.69788C23.2132 1.23103 24.8913 1.23357 26.4941 1.71564C26.5954 1.74609 26.7383 1.86534 26.7538 1.8831C26.8889 3.86213 26.998 5.8437 27.1123 7.87856L27.1773 9.04568C26.0966 8.84777 25.0368 8.74375 23.9821 8.74375ZM19.7427 3.07305C19.7038 3.89004 19.6648 4.68927 19.6206 5.49103L19.6076 5.71938C19.5453 6.85605 19.4856 7.99273 19.3998 9.12941C19.392 9.2309 19.3245 9.37552 19.3219 9.39074C18.5504 9.66983 17.7711 9.91848 16.9476 10.1824L16.5372 10.3143V6.8865C16.5398 4.65374 17.6308 3.13141 19.7765 2.3601L19.7427 3.07305ZM16.7294 15.0614C18.5712 13.7928 20.7558 12.4227 23.3795 12.1918C23.5379 12.1791 23.699 12.1741 23.8107 12.169L23.9172 12.1639C25.6057 12.1715 27.1513 12.6105 28.9281 13.5898C29.2009 13.7395 29.4632 13.9045 29.7256 14.0694C30.0607 14.28 30.4062 14.4982 30.7724 14.6834C31.2686 14.9346 31.4037 15.234 31.3102 15.8708C30.8893 18.7379 30.0581 20.9148 28.6943 22.7264C27.6345 24.132 26.5642 24.9287 25.3199 25.2357C24.0055 25.5605 22.9015 25.4641 21.9274 24.9414C19.67 23.7311 18.2413 21.7699 17.2957 18.5806C17.0541 17.7712 16.9216 16.9035 16.7944 16.0687C16.7528 15.8048 16.7138 15.5435 16.6697 15.2822C16.6619 15.2264 16.7034 15.0893 16.7294 15.0614ZM18.4569 23.9037C18.4595 23.8986 18.4595 23.8935 18.4621 23.8884C19.7791 25.3752 21.4754 26.7656 23.9873 26.7707C23.9925 26.7707 23.9977 26.7707 24.0029 26.7707C26.5019 26.7707 28.2007 25.3905 29.523 23.891C29.7697 25.596 30.2711 27.4456 32.5518 28.014C32.4324 28.6153 32.1622 29.1811 31.7154 29.7697C30.8088 30.9698 29.5463 31.8553 27.9618 32.4008C24.3276 33.6593 20.9428 33.2838 17.9062 31.2997C16.6099 30.4522 15.8046 29.3866 15.4462 28.0393L15.5111 28.014C15.7423 27.9302 15.9527 27.8516 16.1501 27.7552C17.4568 27.1158 18.1374 26.1745 18.2309 24.8754C18.2569 24.5709 18.3504 24.2614 18.4569 23.9037ZM20.7974 34.1211C24.0029 34.8492 27.037 34.5169 29.8191 33.1442C32.0401 32.0456 33.4325 30.4294 33.952 28.3362L36.4821 28.9477L36.3782 29.1963C36.2431 29.5236 36.1107 29.8357 35.9782 30.1452L35.1158 32.1293C34.43 33.71 33.7416 35.2882 33.0714 36.8739C32.9337 37.1987 32.8246 37.2748 32.4895 37.2748C32.4869 37.2748 32.4869 37.2748 32.4843 37.2748C26.8733 37.2571 21.1844 37.2571 15.5735 37.2748C15.5709 37.2748 15.5683 37.2748 15.5683 37.2748C15.1838 37.2748 15.0617 37.1987 14.924 36.8714C14.1343 34.9989 13.3239 33.1341 12.5134 31.2692L11.6276 29.2293C11.5912 29.1405 11.5549 29.0517 11.5159 28.9477L13.9993 28.3514C14.059 28.4884 14.1136 28.6254 14.1681 28.7599C14.3629 29.2369 14.5474 29.686 14.8045 30.1122C16.0722 32.1801 18.0309 33.4918 20.7974 34.1211ZM15.5111 17.3525C15.0435 16.7639 14.8097 16.0408 14.8019 15.1655C14.7993 14.6682 14.8877 14.3561 15.1319 14.1176L15.5111 17.3525Z" fill="url(#paint0_linear)"/>
</g>
<defs>
<filter id="filter0_d" x="0" y="0" width="48" height="51" filterUnits="userSpaceOnUse" color-interpolation-filters="sRGB">
<feFlood flood-opacity="0" result="BackgroundImageFix"/>
<feColorMatrix in="SourceAlpha" type="matrix" values="0 0 0 0 0 0 0 0 0 0 0 0 0 0 0 0 0 0 127 0"/>
<feOffset dy="2"/>
<feGaussianBlur stdDeviation="1"/>
<feColorMatrix type="matrix" values="0 0 0 0 0.875 0 0 0 0 0.666458 0 0 0 0 0.473958 0 0 0 0.77 0"/>
<feBlend mode="normal" in2="BackgroundImageFix" result="effect1_dropShadow"/>
<feBlend mode="normal" in="SourceGraphic" in2="effect1_dropShadow" result="shape"/>
</filter>
<linearGradient id="paint0_linear" x1="2" y1="32.7907" x2="44.3902" y2="32.7907" gradientUnits="userSpaceOnUse">
<stop stop-color="#AE1F00"/>
<stop offset="0.720541" stop-color="#DB0202"/>
</linearGradient>
</defs>
</svg>
