<svg width="20" height="20" viewBox="0 0 20 20" fill="none" xmlns="http://www.w3.org/2000/svg">
<path d="M10 0C15.5228 0 20 4.47716 20 10C20 15.5228 15.5228 20 10 20C4.47715 20 0 15.5228 0 10C0.00585938 4.47962 4.47958 0.00590124 10 0ZM10 18.5714C14.7339 18.5714 18.5714 14.7339 18.5714 10C18.5714 5.26612 14.7339 1.42856 10 1.42856C5.26612 1.42856 1.42856 5.26612 1.42856 10C1.43366 14.7318 5.26821 18.5663 10 18.5714Z" fill="#D85B1E"/>
<path d="M10 3.57142C10.3945 3.57142 10.7143 3.89122 10.7143 4.28572V9.28574H15.7143C16.1088 9.28574 16.4286 9.60554 16.4286 10C16.4286 10.3945 16.1088 10.7143 15.7143 10.7143H10C9.60549 10.7143 9.2857 10.3945 9.2857 10V4.28572C9.2857 3.89122 9.60549 3.57142 10 3.57142Z" fill="#D85B1E"/>
</svg>
