<svg width="20" height="20" viewBox="0 0 20 20" fill="none" xmlns="http://www.w3.org/2000/svg">
<path d="M16.4662 0H2.73206C1.18143 0 0 1.17692 0 2.72164V16.4034C0 17.9481 1.18143 19.125 2.73206 19.125H16.4662C18.0168 19.125 19.1983 17.9481 19.1983 16.4034V2.72164C19.1983 1.17692 18.0168 0 16.4662 0ZM9.59914 15.3C12.7742 15.3 15.3586 12.799 15.3586 9.78317C15.3586 9.26827 15.2848 8.67981 15.1371 8.23846H16.7616V16.0356C16.7616 16.4034 16.4662 16.7712 16.0232 16.7712H3.1751C2.8059 16.7712 2.43671 16.4769 2.43671 16.0356V8.1649H4.13502C3.98734 8.67981 3.9135 9.19471 3.9135 9.70962C3.83966 12.799 6.42404 15.3 9.59914 15.3ZM9.59914 13.0933C7.53163 13.0933 5.90716 11.475 5.90716 9.48894C5.90716 7.50289 7.53163 5.88462 9.59914 5.88462C11.6666 5.88462 13.2911 7.50289 13.2911 9.48894C13.2911 11.5486 11.6666 13.0933 9.59914 13.0933ZM16.6877 5.2226C16.6877 5.66394 16.3185 6.03173 15.8755 6.03173H13.808C13.365 6.03173 12.9958 5.66394 12.9958 5.2226V3.23654C12.9958 2.79519 13.365 2.4274 13.808 2.4274H15.8755C16.3185 2.4274 16.6877 2.79519 16.6877 3.23654V5.2226Z" fill="white"/>
</svg>
