<svg width="20" height="20" viewBox="0 0 20 20" fill="none" xmlns="http://www.w3.org/2000/svg">
<path d="M17.0477 2.99592C15.1556 1.09219 12.5962 0 10.0213 0C7.38391 0.000868885 4.88011 1.05396 2.96973 2.96551C1.06369 4.87271 0.0087252 7.37249 4.95346e-05 10.0026C-0.00862613 12.6649 1.12268 15.2976 3.10333 17.2239C4.94431 19.0147 7.29194 20.0009 9.71332 20.0009C9.81049 20.0009 9.90765 19.9991 9.99962 19.9965C12.5433 20.0686 14.9907 19.0894 16.8942 17.2439C18.854 15.3436 19.9862 12.7222 20.0009 10.0504C20.0139 7.43157 18.9659 4.92658 17.0477 2.99592ZM18.5261 10.0209C18.4228 14.8623 14.7634 18.522 10.0135 18.5333H9.99181C7.68668 18.5333 5.54293 17.6566 3.95442 16.0657C2.36243 14.4704 1.48879 12.3191 1.49487 10.0087C1.50788 5.23503 5.25056 1.49622 10.017 1.49622H10.0308C14.7174 1.50317 18.4488 5.24807 18.5261 10.0209Z" fill="#D85B1E"/>
<path d="M11.0811 4.26704C9.64787 3.95076 8.18602 4.28355 7.07033 5.18197C5.9156 6.11168 5.25365 7.55316 5.25538 9.14322C5.27534 9.77143 5.44972 10.5534 5.72213 11.2364C6.45523 13.0784 7.66895 14.7223 9.32774 16.1221C9.58888 16.3419 9.79796 16.4401 10.007 16.4401C10.2075 16.4401 10.4044 16.3506 10.6447 16.1508C12.3981 14.6911 13.6326 12.9924 14.3145 11.1008C14.6182 10.2597 14.9001 9.24575 14.6945 8.10751C14.3614 6.27156 12.8423 4.6563 11.0811 4.26704ZM13.2457 9.16755C13.1901 10.0225 12.8119 11.0887 12.2055 12.0922C11.7014 12.9263 11.0455 13.7388 10.2005 14.5764C10.0365 14.738 9.97147 14.7388 9.81098 14.5764C8.5504 13.3026 7.20828 11.716 6.80746 9.60373C6.58623 8.43682 6.92805 7.31596 7.74617 6.52875C8.34045 5.95702 9.12039 5.64248 9.94198 5.64248C10.1858 5.64248 10.4304 5.67029 10.6699 5.7259C12.3044 6.10734 13.2431 7.36114 13.2457 9.16755Z" fill="#D85B1E"/>
<path d="M10.073 6.71388C10.0695 6.71388 10.0652 6.71388 10.0617 6.71388C9.41191 6.71649 8.8263 6.9563 8.41161 7.38988C8.00992 7.81042 7.80257 8.38214 7.82773 8.99992C7.86851 10.0087 8.68315 11.0522 9.97409 11.0522C9.99405 11.0522 10.014 11.0522 10.0331 11.0514C11.259 11.0218 12.1682 10.0747 12.1473 8.85221C12.1604 8.13712 11.8324 7.65141 11.5557 7.36902C11.1583 6.96412 10.5909 6.71388 10.073 6.71388ZM11.1557 8.90348C11.1627 9.23539 11.0325 9.55862 10.7983 9.78887C10.5944 9.98958 10.335 10.0947 10.0721 10.0834C9.61752 10.066 8.8532 9.89401 8.83758 8.93215C8.83151 8.58894 8.94689 8.27875 9.16032 8.05805C9.36853 7.8443 9.66264 7.72353 9.98884 7.72005H10.0079C10.7107 7.72005 11.1392 8.16232 11.1557 8.90348Z" fill="#D85B1E"/>
</svg>
