<svg width="7" height="8" viewBox="0 0 7 8" fill="none" xmlns="http://www.w3.org/2000/svg">
<path d="M3.97457 7.59791L3.97457 0.40191C3.97457 0.180061 3.76421 -1.41441e-07 3.50504 -1.5277e-07C3.24587 -1.64098e-07 3.03552 0.180061 3.03552 0.40191L3.03552 7.5979C3.03552 7.81975 3.24587 7.99981 3.50504 7.99981C3.76421 7.99981 3.97457 7.81975 3.97457 7.59791Z" fill="#FF6B22"/>
<path d="M3.83653 7.88244L6.86267 5.32064C7.04578 5.1639 7.04578 4.90908 6.86267 4.75234C6.67956 4.5956 6.38188 4.5956 6.19877 4.75234L3.50504 7.02961L0.801013 4.75234C0.617904 4.5956 0.32022 4.5956 0.137111 4.75234C0.0460408 4.83112 7.38003e-07 4.93399 7.33505e-07 5.03688C7.29007e-07 5.13978 0.0459969 5.24264 0.137111 5.32143L3.17263 7.88244C3.35578 8.03918 3.65342 8.03918 3.83653 7.88244Z" fill="#FF6B22"/>
</svg>
