<svg width="13" height="20" viewBox="0 0 13 20" fill="none" xmlns="http://www.w3.org/2000/svg">
<path d="M12.577 12.3077C13.0755 11.8395 13.1467 11.1706 12.7194 10.5017C12.3633 9.96656 11.7223 9.699 11.0101 9.83278C10.7253 9.89967 10.4404 10.0335 10.1555 10.2341C7.94768 11.6388 4.95645 11.5719 2.74864 10.1672C2.6062 10.1003 2.46376 10.0334 2.32132 9.96656C1.5379 9.63211 0.754488 9.7659 0.32717 10.4348C-0.171369 11.1037 -0.100158 11.8395 0.54082 12.4415C0.68326 12.5753 0.8257 12.6421 0.896919 12.7759L0.968144 12.8428C1.96522 13.5786 3.17596 14.0468 4.7428 14.2475L3.81694 15.1171C3.03352 15.8529 2.17888 16.6555 1.39547 17.3913C1.18181 17.592 0.896919 17.9264 0.896919 18.3947C0.896919 18.9967 1.25303 19.5987 1.894 19.8662C2.10766 20 2.32132 20 2.53498 20C2.89108 20 3.3184 19.8662 3.60327 19.5318C4.67157 18.5284 5.52622 17.7258 6.38085 16.9231C6.45207 16.8562 6.45207 16.8562 6.45207 16.8562C6.45207 16.8562 6.52329 16.8562 6.52329 16.9231C7.09305 17.5251 7.73403 18.0602 8.30379 18.6622C8.58867 18.9298 8.87354 19.1973 9.15842 19.4649C9.51452 19.7993 9.7994 19.9331 10.2267 19.9331C10.8677 20 11.5799 19.5987 11.8648 18.9967C12.1497 18.4615 12.0072 17.7926 11.5087 17.3913C10.7965 16.7224 10.0843 15.9866 9.30086 15.3177L8.09013 14.1806C8.7311 14.1137 9.4433 13.9799 10.0843 13.7124C11.1526 13.3779 11.936 12.9097 12.577 12.3077Z" fill="white"/>
<path d="M6.45207 10.4348C9.51452 10.4348 12.0072 8.16053 12.0072 5.28428C12.0072 3.87959 11.4375 2.54181 10.3692 1.53846C9.30086 0.535119 7.94769 0 6.52329 0C3.46084 0 1.03936 2.34113 0.968143 5.1505C0.968143 6.55518 1.5379 7.82608 2.6062 8.82943C3.60328 9.89966 4.95645 10.4348 6.45207 10.4348ZM4.88523 3.74582C5.31255 3.34448 5.88231 3.14381 6.45207 3.14381C7.73402 3.14381 8.65989 4.08027 8.65989 5.21739C8.65989 6.42141 7.6628 7.29096 6.45207 7.29096C5.17011 7.29096 4.24426 6.35452 4.24426 5.21739C4.24426 4.68228 4.45791 4.14716 4.88523 3.74582Z" fill="white"/>
<path d="M12.577 12.3077C13.0755 11.8395 13.1467 11.1706 12.7194 10.5017C12.3633 9.96656 11.7223 9.699 11.0101 9.83278C10.7253 9.89967 10.4404 10.0335 10.1555 10.2341C7.94768 11.6388 4.95645 11.5719 2.74864 10.1672C2.6062 10.1003 2.46376 10.0334 2.32132 9.96656C1.5379 9.63211 0.754488 9.7659 0.32717 10.4348C-0.171369 11.1037 -0.100158 11.8395 0.54082 12.4415C0.68326 12.5753 0.8257 12.6421 0.896919 12.7759L0.968144 12.8428C1.96522 13.5786 3.17596 14.0468 4.7428 14.2475L3.81694 15.1171C3.03352 15.8529 2.17888 16.6555 1.39547 17.3913C1.18181 17.592 0.896919 17.9264 0.896919 18.3947C0.896919 18.9967 1.25303 19.5987 1.894 19.8662C2.10766 20 2.32132 20 2.53498 20C2.89108 20 3.3184 19.8662 3.60327 19.5318C4.67157 18.5284 5.52622 17.7258 6.38085 16.9231C6.45207 16.8562 6.45207 16.8562 6.45207 16.8562C6.45207 16.8562 6.52329 16.8562 6.52329 16.9231C7.09305 17.5251 7.73403 18.0602 8.30379 18.6622C8.58867 18.9298 8.87354 19.1973 9.15842 19.4649C9.51452 19.7993 9.7994 19.9331 10.2267 19.9331C10.8677 20 11.5799 19.5987 11.8648 18.9967C12.1497 18.4615 12.0072 17.7926 11.5087 17.3913C10.7965 16.7224 10.0843 15.9866 9.30086 15.3177L8.09013 14.1806C8.7311 14.1137 9.4433 13.9799 10.0843 13.7124C11.1526 13.3779 11.936 12.9097 12.577 12.3077Z" fill="white"/>
</svg>
