<svg width="20" height="20" viewBox="0 0 20 20" fill="none" xmlns="http://www.w3.org/2000/svg">
<path d="M17.0522 3.00302C15.1601 1.09567 12.6003 0.000876539 10.0292 0H10.0257C7.38796 0 4.88242 1.05185 2.97197 2.96358C1.0659 4.86918 0.00959782 7.36644 -0.000903941 9.9943C-0.0114057 12.6572 1.11753 15.2912 3.09712 17.2187C4.94543 19.0192 7.28294 20 9.7071 20C9.80162 20 9.89701 19.9982 9.99152 19.9956C10.0773 19.9982 10.1622 19.9991 10.2479 19.9991C12.6992 19.9991 15.0472 19.0279 16.8859 17.2485C18.848 15.35 19.9822 12.7291 19.9988 10.0583C20.0155 7.44094 18.9688 4.93492 17.0522 3.00302ZM18.687 10.0285C18.5785 14.9625 14.8468 18.6887 10.0055 18.6957C10.0012 18.6957 9.9959 18.6957 9.99152 18.6957C7.63913 18.6957 5.45301 17.8008 3.83312 16.1757C2.21147 14.5488 1.32319 12.3557 1.33194 10.0013C1.34945 5.13652 5.16071 1.33322 10.0152 1.33322C10.0222 1.33322 10.03 1.33322 10.037 1.33322C14.8136 1.34549 18.6126 5.16457 18.687 10.0285Z" fill="#D85B1E"/>
<path d="M15.2364 11.6344C14.6588 11.268 14.0427 10.9157 13.4038 10.5878C12.7116 10.2328 12.6057 9.94446 12.1051 10.5843C11.9108 10.8324 11.7594 10.9516 11.6133 10.97C11.4662 10.9893 11.2921 10.9113 11.0462 10.7176C10.4764 10.2697 9.93998 9.73847 9.45252 9.1398C9.21185 8.8444 9.11996 8.66208 9.13572 8.50957C9.15147 8.35705 9.27924 8.19577 9.57679 7.95296C10.1579 7.47788 9.77282 7.24122 9.42539 6.58469C9.10246 5.97549 8.7664 5.38383 8.42685 4.82723C8.0199 4.16106 7.33991 3.93053 6.60654 4.21102C6.27311 4.33899 5.92305 4.48362 5.46973 4.68084C4.79411 4.97536 4.35479 5.5267 4.16488 6.31997C3.9671 7.14304 4.08174 8.00731 4.51669 8.96274C5.60362 11.3531 7.34779 13.2911 9.84984 14.8855C10.9726 15.6008 11.9598 15.9303 13.0529 15.9523H13.0599C14.2229 15.9058 15.015 15.3746 15.4131 14.3745C15.4578 14.2632 15.5024 14.1527 15.5479 14.0414C15.6337 13.831 15.7229 13.6137 15.8035 13.3954C16.0669 12.6863 15.8551 12.0271 15.2364 11.6344ZM8.25007 7.38672C8.16255 7.56203 7.844 7.89336 7.79587 8.38597C7.74686 8.88473 7.93064 9.39049 8.34108 9.89099C8.90118 10.5721 9.52953 11.2014 10.2086 11.7624C10.7084 12.1753 11.2159 12.3593 11.7165 12.3094C12.2092 12.2603 12.4508 12.0324 12.8883 11.7694C12.8883 11.7694 12.7737 11.737 12.9557 11.8509C13.3662 12.1069 13.8108 12.3681 14.3551 12.6731C14.5739 12.7958 14.6089 12.9212 14.489 13.1517C14.398 13.3261 14.3253 13.5111 14.2562 13.689L14.2413 13.7267C13.9744 14.4113 13.6392 14.6155 12.8052 14.6085C12.0141 14.5384 11.1354 14.1781 10.1946 13.5383C8.49861 12.3847 7.129 10.9376 6.12434 9.23534C5.63163 8.40088 5.40846 7.66108 5.41984 6.90638C5.42859 6.36731 5.68064 6.00091 6.17072 5.81772L6.23635 5.79405C6.26961 5.78178 6.30374 5.76951 6.33875 5.75636C6.77194 5.58806 7.00998 5.49515 7.15351 5.54424C7.29878 5.5942 7.43706 5.81684 7.68735 6.2218C7.76436 6.34627 7.837 6.47775 7.90701 6.60485C7.98927 6.75386 8.07504 6.90901 8.16955 7.05626C8.28332 7.2342 8.28945 7.30783 8.25007 7.38672Z" fill="#D85B1E"/>
</svg>
