<svg width="218" height="235" viewBox="0 0 218 235" fill="none" xmlns="http://www.w3.org/2000/svg">
<g filter="url(#filter0_d)">
<path d="M12.1228 152.809L46.3084 129.501L61.1475 156.115L26.9869 178.093L26.6963 160.805L12.1228 152.809Z" fill="url(#paint0_linear)"/>
<path d="M179.141 195.124L160.177 158.35L134.456 174.688L154.031 210.28L162.518 195.216L179.141 195.124Z" fill="url(#paint1_linear)"/>
<g filter="url(#filter1_d)">
<path d="M112.709 4.82026C114.092 2.59817 117.327 2.59817 118.71 4.82026C119.992 6.88065 122.922 7.06499 124.453 5.18158C126.104 3.15037 129.313 3.55577 130.406 5.93369C131.421 8.13858 134.304 8.68869 136.059 7.01197C137.951 5.20367 141.084 6.00807 141.871 8.50432C142.601 10.8189 145.393 11.7261 147.344 10.2826C149.448 8.72568 152.456 9.91639 152.924 12.4916C153.358 14.8795 156.014 16.1294 158.13 14.9418C160.413 13.6609 163.247 15.2191 163.389 17.8327C163.52 20.2561 165.999 21.8291 168.248 20.9161C170.673 19.9314 173.29 21.8326 173.102 24.4433C172.929 26.864 175.191 28.7354 177.536 28.1113C180.066 27.4383 182.424 29.6525 181.911 32.2192C181.435 34.5991 183.445 36.7392 185.85 36.414C188.444 36.0634 190.506 38.5556 189.675 41.0378C188.905 43.3393 190.631 45.7144 193.057 45.6932C195.675 45.6704 197.408 48.4014 196.273 50.7599C195.22 52.9468 196.635 55.5194 199.045 55.8026C201.645 56.108 203.022 59.0347 201.6 61.2324C200.282 63.2701 201.363 65.9997 203.719 66.5827C206.259 67.2115 207.259 70.2878 205.573 72.2899C204.01 74.1463 204.74 76.9898 207.004 77.8636C209.446 78.8059 210.052 81.9831 208.128 83.7581C206.345 85.404 206.713 88.3166 208.85 89.4672C211.154 90.7081 211.357 93.9363 209.226 95.4562C207.251 96.8656 207.251 99.8014 209.226 101.211C211.357 102.731 211.154 105.959 208.85 107.2C206.713 108.35 206.345 111.263 208.128 112.909C210.052 114.684 209.446 117.861 207.004 118.803C204.74 119.677 204.01 122.521 205.573 124.377C207.259 126.379 206.259 129.455 203.719 130.084C201.363 130.667 200.282 133.397 201.6 135.435C203.022 137.632 201.645 140.559 199.045 140.864C196.635 141.148 195.22 143.72 196.273 145.907C197.408 148.266 195.675 150.997 193.057 150.974C190.631 150.953 188.905 153.328 189.675 155.629C190.506 158.111 188.444 160.604 185.85 160.253C183.445 159.928 181.435 162.068 181.911 164.448C182.424 167.014 180.066 169.229 177.536 168.556C175.191 167.932 172.929 169.803 173.102 172.224C173.29 174.834 170.673 176.736 168.248 175.751C165.999 174.838 163.52 176.411 163.389 178.834C163.247 181.448 160.413 183.006 158.13 181.725C156.014 180.538 153.358 181.788 152.924 184.175C152.456 186.751 149.448 187.941 147.344 186.384C145.393 184.941 142.601 185.848 141.871 188.163C141.084 190.659 137.951 191.463 136.059 189.655C134.304 187.978 131.421 188.528 130.406 190.733C129.313 193.111 126.104 193.517 124.453 191.485C122.922 189.602 119.992 189.786 118.71 191.847C117.327 194.069 114.092 194.069 112.709 191.847C111.426 189.786 108.496 189.602 106.966 191.485C105.315 193.517 102.106 193.111 101.012 190.733C99.9981 188.528 97.1143 187.978 95.3597 189.655C93.4674 191.463 90.3345 190.659 89.5474 188.163C88.8176 185.848 86.0255 184.941 84.0746 186.384C81.9705 187.941 78.9631 186.751 78.4951 184.175C78.0611 181.788 75.4048 180.538 73.2883 181.725C71.0057 183.006 68.1713 181.448 68.0297 178.834C67.8984 176.411 65.4197 174.838 63.171 175.751C60.7459 176.736 58.1291 174.834 58.3162 172.224C58.4897 169.803 56.2277 167.932 53.8823 168.556C51.3529 169.229 48.9951 167.014 49.5079 164.448C49.9834 162.068 47.9738 159.928 45.5687 160.253C42.9749 160.604 40.9131 158.111 41.7436 155.629C42.5137 153.328 40.7881 150.953 38.3612 150.974C35.7439 150.997 34.0108 148.266 35.1458 145.907C36.1982 143.72 34.7839 141.148 32.3736 140.864C29.774 140.559 28.3968 137.632 29.8185 135.435C31.1368 133.397 30.056 130.667 27.7002 130.084C25.1594 129.455 24.1599 126.379 25.8458 124.377C27.409 122.521 26.6789 119.677 24.4147 118.803C21.9728 117.861 21.3667 114.684 23.2903 112.909C25.0738 111.263 24.7059 108.35 22.569 107.2C20.2645 105.959 20.0614 102.731 22.1922 101.211C24.168 99.8014 24.168 96.8656 22.1922 95.4562C20.0614 93.9363 20.2645 90.7081 22.569 89.4672C24.7059 88.3166 25.0738 85.404 23.2903 83.7581C21.3667 81.9831 21.9728 78.8059 24.4147 77.8636C26.6789 76.9898 27.409 74.1463 25.8458 72.2899C24.1599 70.2878 25.1594 67.2115 27.7002 66.5827C30.056 65.9997 31.1368 63.2701 29.8185 61.2324C28.3968 59.0347 29.774 56.108 32.3736 55.8026C34.7839 55.5194 36.1982 52.9468 35.1458 50.7599C34.0108 48.4014 35.7439 45.6704 38.3612 45.6932C40.7881 45.7144 42.5137 43.3393 41.7436 41.0378C40.9131 38.5556 42.9749 36.0634 45.5687 36.414C47.9738 36.7392 49.9834 34.5991 49.5079 32.2192C48.9951 29.6525 51.3529 27.4384 53.8823 28.1113C56.2277 28.7354 58.4897 26.864 58.3162 24.4433C58.1291 21.8326 60.7459 19.9314 63.171 20.9161C65.4197 21.8291 67.8984 20.2561 68.0297 17.8327C68.1713 15.2191 71.0057 13.6609 73.2883 14.9418C75.4048 16.1294 78.0611 14.8795 78.4951 12.4916C78.9631 9.91639 81.9705 8.72569 84.0745 10.2826C86.0255 11.7261 88.8176 10.8189 89.5474 8.50432C90.3345 6.00807 93.4674 5.20367 95.3597 7.01197C97.1143 8.68869 99.9981 8.13858 101.012 5.93369C102.106 3.55577 105.315 3.15037 106.966 5.18158C108.496 7.06499 111.426 6.88065 112.709 4.82026Z" fill="url(#paint2_linear)"/>
</g>
<circle cx="115.709" cy="98.3337" r="85.2224" fill="white"/>
<circle cx="115.709" cy="98.3336" r="80.6466" fill="url(#paint3_linear)" stroke="url(#paint4_linear)" stroke-width="2"/>
<path d="M73.755 54.0451C73.2576 55.4689 72.8556 56.7526 72.5492 57.8962C72.3587 58.6071 72.2328 59.1697 72.1715 59.584L71.6383 59.4411C71.7478 57.549 71.5196 56.113 70.954 55.1332C70.4079 54.1421 69.6635 53.5202 68.7207 53.2676L68.4193 53.1869C68.0021 53.0751 67.6826 53.0309 67.461 53.0543C67.259 53.0664 67.0924 53.1626 66.9613 53.3428C66.8498 53.5117 66.734 53.8203 66.6139 54.2684L63.4087 66.2305C63.2513 66.8177 63.1838 67.2552 63.2061 67.5428C63.2285 67.8303 63.3508 68.0536 63.5733 68.2126C63.8112 68.3757 64.2041 68.5473 64.7522 68.7273L64.628 69.1909C63.6977 68.892 62.3361 68.5023 60.5434 68.0219C58.6733 67.5208 57.2917 67.1755 56.3983 66.9858L56.5225 66.5221C57.0254 66.6237 57.3974 66.6572 57.6386 66.6224C57.8798 66.5877 58.0743 66.4493 58.2219 66.2073C58.3851 65.9694 58.5453 65.5568 58.7027 64.9695L61.7837 53.4711C61.941 52.8838 62.0163 52.4485 62.0094 52.165C62.0025 51.8816 61.8956 51.6625 61.6886 51.5076C61.4971 51.3569 61.1582 51.1998 60.6719 51.0364L60.7962 50.5728C62.5765 51.0995 65.2749 51.8474 68.8913 52.8164C71.1632 53.4251 72.7844 53.8347 73.755 54.0451ZM83.4005 72.1339C83.4689 72.6823 83.5859 73.1112 83.7515 73.4206C83.9366 73.7186 84.143 73.9065 84.3707 73.984L84.2465 74.4477C83.1462 74.1032 81.746 73.7031 80.046 73.2476C78.2841 72.7755 76.9797 72.4509 76.1327 72.2736L76.2569 71.81C76.8525 71.9364 77.2884 71.9787 77.5647 71.9368C77.8451 71.8794 78.0246 71.7039 78.1033 71.4102C78.1779 71.132 78.1845 70.7363 78.1233 70.2229L77.7743 66.0546L73.0915 64.7998L72.4178 65.7374C71.5558 66.9144 71.0316 67.8506 70.8453 68.5461C70.6755 69.1798 70.7373 69.6601 71.0306 69.9872C71.324 70.3143 71.8142 70.5864 72.5014 70.8037L72.3772 71.2673C71.2305 70.9104 70.2244 70.6159 69.359 70.384C68.6326 70.1894 68.0314 70.0532 67.5553 69.9753L67.6795 69.5116C68.0825 69.5534 68.5098 69.4111 68.9617 69.0849C69.4135 68.7588 69.9393 68.1874 70.5391 67.3708L79.2324 55.5127C79.7186 55.6762 80.124 55.8014 80.4486 55.8883C80.7577 55.9711 81.1637 56.0634 81.6665 56.165L83.4005 72.1339ZM77.7362 65.5474L77.1795 59.1866L73.4011 64.3859L77.7362 65.5474ZM92.8707 69.6524L91.8147 73.5934C91.6407 74.2425 91.5763 74.7304 91.6212 75.0572C91.6816 75.3881 91.8673 75.6532 92.1784 75.8525C92.509 76.0404 93.0529 76.2359 93.8102 76.4388L93.6673 76.972C91.5934 76.3666 90.0077 75.9169 88.9104 75.6228C88.1841 75.4282 87.1676 75.1724 85.8612 74.8555L84.7422 74.5805L84.8664 74.1169C85.3693 74.2185 85.7413 74.2519 85.9825 74.2171C86.2392 74.1865 86.4413 74.0502 86.589 73.8082C86.7367 73.5662 86.8892 73.1515 87.0466 72.5642L90.1275 61.0658C90.2849 60.4786 90.3524 60.0411 90.3301 59.7535C90.3232 59.4701 90.224 59.253 90.0325 59.1023C89.841 58.9516 89.5021 58.7946 89.0158 58.6311L89.14 58.1675C90.0085 58.4499 91.3315 58.8292 93.1088 59.3054L95.7809 59.9966C96.0942 60.064 96.4517 60.1515 96.8535 60.2592C99.1408 60.872 100.76 61.7531 101.711 62.9024C102.681 64.0404 102.98 65.3048 102.608 66.6958C102.38 67.5458 101.929 68.3028 101.254 68.9667C100.583 69.6152 99.6209 70.0531 98.3674 70.2804C97.1139 70.5078 95.5675 70.375 93.7284 69.8822L92.8707 69.6524ZM96.6196 60.6686C96.2641 60.5733 95.9792 60.5549 95.7647 60.6134C95.5657 60.6761 95.3981 60.8382 95.2617 61.0998C95.1253 61.3614 94.9826 61.7704 94.8335 62.3268L92.9949 69.1887L93.6208 69.3565C94.7026 69.6463 95.5521 69.4433 96.1693 68.7473C96.8019 68.0555 97.3025 67.0218 97.6711 65.6463C98.0728 64.1472 98.1988 62.9966 98.0493 62.1946C97.8998 61.3926 97.4232 60.8839 96.6196 60.6686ZM113.601 80.226C113.669 80.7744 113.786 81.2033 113.952 81.5127C114.137 81.8108 114.343 81.9986 114.571 82.0762L114.447 82.5398C113.346 82.1953 111.946 81.7953 110.246 81.3398C108.484 80.8677 107.18 80.543 106.333 80.3657L106.457 79.9021C107.053 80.0286 107.489 80.0708 107.765 80.0289C108.045 79.9715 108.225 79.796 108.304 79.5024C108.378 79.2242 108.385 78.8284 108.324 78.3151L107.975 74.1467L103.292 72.8919L102.618 73.8295C101.756 75.0065 101.232 75.9428 101.046 76.6382C100.876 77.2719 100.938 77.7523 101.231 78.0793C101.524 78.4064 102.015 78.6786 102.702 78.8958L102.577 79.3595C101.431 79.0025 100.425 78.7081 99.5592 78.4762C98.8329 78.2816 98.2316 78.1453 97.7556 78.0674L97.8798 77.6038C98.2827 77.6455 98.7101 77.5033 99.1619 77.1771C99.6137 76.8509 100.14 76.2795 100.739 75.4629L109.433 63.6049C109.919 63.7683 110.324 63.8935 110.649 63.9805C110.958 64.0633 111.364 64.1555 111.867 64.2571L113.601 80.226ZM107.936 73.6396L107.38 67.2788L103.601 72.478L107.936 73.6396ZM137.136 71.5249C136.633 71.4233 136.253 71.3878 135.997 71.4184C135.755 71.4532 135.561 71.5915 135.413 71.8336C135.266 72.0756 135.113 72.4903 134.956 73.0775L131.875 84.5759C131.717 85.1632 131.642 85.5986 131.649 85.882C131.671 86.1696 131.778 86.3887 131.97 86.5394C132.161 86.6901 132.5 86.8472 132.987 87.0106L132.862 87.4743C132.04 87.2043 130.748 86.8332 128.986 86.3612C127.209 85.8849 125.835 85.5416 124.864 85.3312L124.989 84.8676C125.492 84.9692 125.864 85.0026 126.105 84.9679C126.361 84.9373 126.564 84.8009 126.711 84.5589C126.859 84.3169 127.011 83.9022 127.169 83.3149L128.66 77.7512L123.444 76.3536L121.953 81.9173C121.795 82.5046 121.72 82.94 121.727 83.2234C121.749 83.511 121.856 83.7301 122.048 83.8808C122.239 84.0315 122.578 84.1886 123.065 84.352L122.94 84.8157C122.056 84.5291 120.772 84.1602 119.088 83.7088C117.218 83.2077 115.836 82.8623 114.942 82.6726L115.067 82.209C115.57 82.3106 115.942 82.344 116.183 82.3093C116.439 82.2787 116.642 82.1424 116.789 81.9003C116.937 81.6583 117.089 81.2436 117.247 80.6564L120.328 69.158C120.485 68.5707 120.553 68.1333 120.53 67.8457C120.523 67.5622 120.424 67.3452 120.233 67.1945C120.041 67.0438 119.702 66.8867 119.216 66.7233L119.34 66.2596C120.209 66.542 121.578 66.9338 123.448 67.4349C125.117 67.8821 126.414 68.2047 127.338 68.4027L127.214 68.8663C126.711 68.7647 126.331 68.7292 126.075 68.7598C125.833 68.7946 125.639 68.933 125.491 69.175C125.344 69.417 125.191 69.8317 125.034 70.4189L123.568 75.8899L128.784 77.2876L130.25 71.8166C130.407 71.2293 130.475 70.7919 130.452 70.5043C130.445 70.2208 130.346 70.0038 130.155 69.8531C129.963 69.7024 129.624 69.5453 129.138 69.3819L129.262 68.9182C130.208 69.2213 131.57 69.611 133.347 70.0872C135.109 70.5593 136.413 70.884 137.26 71.0612L137.136 71.5249ZM153.583 75.4349C153.015 77.1214 152.551 78.6369 152.191 79.9815C152 80.6924 151.874 81.255 151.813 81.6692L151.28 81.5264C151.312 79.3651 151.047 77.7287 150.483 76.6169C149.92 75.5052 149.174 74.8251 148.247 74.5767L148.224 74.5705L144.671 87.8307C144.497 88.4798 144.432 88.9677 144.477 89.2945C144.538 89.6254 144.724 89.8905 145.035 90.0898C145.365 90.2778 145.909 90.4732 146.666 90.6761L146.542 91.1398C144.375 90.5095 142.689 90.0329 141.484 89.7099C140.387 89.4158 138.789 89.0125 136.69 88.4998L136.814 88.0362C137.571 88.2391 138.132 88.3397 138.497 88.3381C138.882 88.3252 139.175 88.1884 139.377 87.9279C139.595 87.6716 139.791 87.2188 139.965 86.5697L143.518 73.3095L143.495 73.3033C142.552 73.0507 141.559 73.2649 140.515 73.9459C139.491 74.6157 138.45 75.9022 137.394 77.8056L136.86 77.6627C137.014 77.2733 137.187 76.7232 137.377 76.0122C137.737 74.6677 138.093 73.1231 138.445 71.3787C139.901 71.8184 142.421 72.5187 146.007 73.4794C149.577 74.436 152.102 75.0878 153.583 75.4349ZM173.029 81.1425C172.527 81.0409 172.155 81.0075 171.913 81.0422C171.672 81.077 171.47 81.2133 171.307 81.4512C171.159 81.6932 171.007 82.1079 170.849 82.6952L167.768 94.1936C167.611 94.7808 167.536 95.2162 167.543 95.4996C167.565 95.7872 167.672 96.0064 167.863 96.1571C168.055 96.3078 168.394 96.4648 168.88 96.6282L168.756 97.0919C167.887 96.8095 166.518 96.4177 164.648 95.9167C162.979 95.4694 161.682 95.1468 160.758 94.9489L160.882 94.4852C161.385 94.5868 161.757 94.6203 161.998 94.5855C162.239 94.5508 162.434 94.4124 162.582 94.1703C162.745 93.9325 162.905 93.5199 163.062 92.9326L165.92 82.2688L157.283 91.7816C157.179 92.234 157.142 92.5885 157.172 92.8451C157.207 93.0864 157.322 93.2746 157.518 93.4098C157.729 93.5492 158.055 93.6944 158.494 93.8454L158.37 94.3091C157.486 94.0225 156.202 93.6536 154.517 93.2022C152.647 92.7011 151.266 92.3557 150.372 92.166L150.497 91.7024C150.999 91.804 151.371 91.8374 151.613 91.8027C151.854 91.7679 152.048 91.6295 152.196 91.3875C152.359 91.1496 152.519 90.737 152.677 90.1498L155.758 78.6514C155.915 78.0641 155.983 77.6267 155.96 77.3391C155.953 77.0557 155.854 76.8386 155.663 76.6879C155.471 76.5372 155.132 76.3801 154.646 76.2167L154.77 75.753C155.639 76.0354 157.008 76.4272 158.878 76.9283C160.547 77.3755 161.844 77.6981 162.768 77.8961L162.644 78.3597C162.141 78.2581 161.769 78.2247 161.528 78.2594C161.287 78.2942 161.084 78.4305 160.921 78.6684C160.774 78.9104 160.621 79.3251 160.464 79.9123L157.594 90.6225L166.224 81.1328C166.337 80.6496 166.376 80.2874 166.341 80.0462C166.311 79.7895 166.198 79.5935 166.002 79.4583C165.81 79.3076 165.487 79.1546 165.032 78.9995L165.156 78.5359C166.04 78.8224 167.324 79.1914 169.009 79.6428C170.879 80.1438 172.26 80.4892 173.154 80.6789L173.029 81.1425ZM189.874 85.6561C189.372 85.5545 189 85.5211 188.758 85.5558C188.517 85.5906 188.315 85.7269 188.152 85.9648C188.004 86.2068 187.852 86.6215 187.694 87.2088L184.613 98.7071C184.456 99.2944 184.381 99.7298 184.388 100.013C184.394 100.297 184.494 100.514 184.685 100.664C184.892 100.819 185.239 100.978 185.725 101.142L185.601 101.605C184.732 101.323 183.363 100.931 181.493 100.43C179.824 99.983 178.527 99.6604 177.603 99.4625L177.727 98.9988C178.23 99.1004 178.602 99.1339 178.843 99.0991C179.084 99.0643 179.279 98.926 179.427 98.6839C179.59 98.446 179.75 98.0335 179.907 97.4462L181.336 92.1143L180.061 91.7726C179.52 91.6277 179.036 91.7961 178.609 92.278C178.197 92.7639 177.769 93.5271 177.324 94.5676L176.355 96.7926C175.972 97.6672 175.435 98.219 174.744 98.448C174.057 98.6615 173.196 98.6296 172.161 98.3521C171.434 98.1575 170.82 97.8852 170.317 97.5352C169.811 97.2007 169.409 96.7534 169.112 96.1934L169.494 95.9728C169.641 96.2275 169.854 96.3922 170.132 96.4667C170.41 96.5412 170.655 96.491 170.868 96.3161C171.08 96.1411 171.317 95.7822 171.579 95.2394L172.665 92.9464C173.088 92.0493 173.767 91.494 174.702 91.2808C175.641 91.0521 176.947 91.0624 178.619 91.3117L178.642 91.318C176.632 90.5972 175.302 89.752 174.651 88.7824C174.003 87.7974 173.837 86.7176 174.152 85.543C174.541 84.0902 175.401 83.1694 176.731 82.7803C178.061 82.3913 179.908 82.5136 182.273 83.1472C182.675 83.2548 183.028 83.3578 183.333 83.4561L185.993 84.1936C187.77 84.6698 189.105 85.0028 189.999 85.1925L189.874 85.6561ZM182.271 83.6187C181.482 83.4075 180.824 83.5788 180.294 84.1327C179.78 84.6907 179.354 85.6033 179.014 86.8706C178.687 88.0916 178.633 89.0959 178.853 89.8835C179.076 90.6558 179.737 91.1889 180.834 91.4829L181.46 91.6506L182.988 85.9478C183.137 85.3914 183.218 84.9659 183.231 84.6711C183.244 84.3764 183.172 84.15 183.015 83.9922C182.874 83.8384 182.626 83.7139 182.271 83.6187Z" fill="#EF560B"/>
<path d="M85.3364 91.3787C84.9346 91.271 84.6254 91.3124 84.4087 91.5028C84.192 91.6932 83.9967 92.113 83.8228 92.7621L81.7605 100.459C81.5908 101.092 81.55 101.553 81.6383 101.842C81.7307 102.115 81.9779 102.306 82.3797 102.413L82.2492 102.9C80.7203 102.424 79.7009 102.118 79.1909 101.981C78.6808 101.845 77.5212 101.567 75.7119 101.149L75.8423 100.662C76.3214 100.79 76.6847 100.763 76.9323 100.581C77.1995 100.388 77.418 99.9741 77.5877 99.3405L79.65 91.644C79.8198 91.0103 79.8585 90.5569 79.7661 90.2837C79.6778 89.995 79.4327 89.7968 79.0309 89.6891L78.8222 89.6332C78.5286 89.5545 78.3055 89.5527 78.1528 89.6278C78.0043 89.6874 77.8821 89.8037 77.786 89.9767C77.7054 90.1539 77.5695 90.5067 77.3782 91.0352C76.7029 92.8752 76.1132 94.3653 75.6089 95.5056C75.1241 96.6346 74.5798 97.6152 73.9759 98.4472C73.4318 99.1794 72.8819 99.6863 72.326 99.968C71.7743 100.234 71.1971 100.287 70.5944 100.125C69.9298 99.9471 69.385 99.5693 68.9601 98.9916C68.5351 98.4139 68.4365 97.7001 68.6643 96.85C68.8547 96.1391 69.2068 95.6289 69.7204 95.3192C70.2495 95.0138 70.8464 94.9501 71.5109 95.1281C72.16 95.3021 72.6007 95.6355 72.8331 96.1284C73.085 96.61 73.1344 97.1368 72.9811 97.7086C72.6995 98.7595 71.8702 99.3821 70.493 99.5762C70.5774 99.632 70.6892 99.6785 70.8283 99.7158C71.7092 99.9518 72.6142 99.4489 73.5433 98.2071C74.1389 97.4059 74.7013 96.3888 75.2305 95.1558C75.7793 93.9114 76.3329 92.4944 76.8913 90.9048C77.1033 90.299 77.0879 89.8311 76.8451 89.501C76.6177 89.175 76.1717 88.923 75.5072 88.745L75.6376 88.2581C75.9693 88.3801 76.4289 88.5198 77.0161 88.6772C77.418 88.7849 77.7214 88.8579 77.9265 88.8963L79.3004 89.2396C79.9186 89.4052 80.579 89.5987 81.2817 89.8201C81.8607 90.0084 82.2893 90.1398 82.5674 90.2144C82.9384 90.3137 83.9048 90.5396 85.4669 90.8919L85.3364 91.3787ZM96.4527 93.9101C97.3337 94.1461 97.937 94.2746 98.2626 94.2956L98.1322 94.7825C97.7786 94.8037 97.4172 94.947 97.0479 95.2125C96.6941 95.4821 96.306 95.9413 95.8837 96.5901L90.6752 104.437L88.9499 106.982C88.4564 107.711 87.9673 108.176 87.4827 108.377C86.9042 108.62 86.1358 108.613 85.1776 108.356C84.4049 108.149 83.7359 107.771 83.1708 107.222C82.6015 106.689 82.4141 106.059 82.6088 105.332C82.7537 104.791 83.0783 104.414 83.5825 104.202C84.0868 103.989 84.6789 103.974 85.3589 104.156C86.008 104.33 86.4787 104.613 86.7709 105.006C87.0632 105.399 87.1347 105.874 86.9857 106.43C86.8863 106.801 86.6617 107.114 86.312 107.368C85.9736 107.642 85.5365 107.79 85.0005 107.812C85.1468 107.884 85.4054 107.97 85.7763 108.069C86.8427 108.355 87.7424 107.933 88.4755 106.805L88.697 106.442L86.4946 93.0556C86.4036 92.468 86.2649 92.0582 86.0786 91.826C85.9078 91.5981 85.7142 91.4551 85.4979 91.3971L85.6283 90.9103C86.8398 91.3343 88.087 91.7182 89.3697 92.0619C90.3743 92.331 91.5072 92.5849 92.7684 92.8235L92.638 93.3103C92.1898 93.1902 91.8338 93.1279 91.5699 93.1235C91.3216 93.1232 91.1684 93.2312 91.1104 93.4476C91.0773 93.5712 91.075 93.7032 91.1037 93.8434L92.1351 101.4L93.9039 98.6934C94.4377 97.8757 94.7957 97.1268 94.9779 96.4468C95.1726 95.7204 95.1692 95.1149 94.9677 94.6303C94.7663 94.1456 94.4147 93.8195 93.913 93.6519L94.0435 93.1651C94.5987 93.3801 95.4018 93.6285 96.4527 93.9101ZM112.089 98.5469C111.609 98.4185 111.236 98.4511 110.969 98.6445C110.722 98.8266 110.513 99.2345 110.343 99.8682L108.281 107.565C108.111 108.198 108.086 108.664 108.205 108.961C108.344 109.246 108.653 109.453 109.132 109.582L109.001 110.068C107.349 109.559 106.237 109.228 105.665 109.075C105.294 108.976 104.152 108.694 102.238 108.231L101.537 108.068L101.667 107.581C102.332 107.76 102.863 107.753 103.263 107.562C103.677 107.375 103.98 106.926 104.17 106.215L104.847 103.688C104.431 103.758 103.866 103.765 103.153 103.706C102.459 103.636 101.765 103.508 101.069 103.322C99.7865 102.978 98.9564 102.49 98.5789 101.859C98.3557 101.518 98.2551 101.151 98.2772 100.76C98.2993 100.368 98.3953 99.8554 98.5651 99.2218L99.1924 96.8804C99.3622 96.2467 99.3777 95.7871 99.2389 95.5014C99.1197 95.2044 98.8206 94.9918 98.3415 94.8634L98.4719 94.3766C100.124 94.8856 101.206 95.2085 101.716 95.3451C102.226 95.4818 103.324 95.7428 105.009 96.1282L104.879 96.6151C104.477 96.5074 104.166 96.5565 103.945 96.7624C103.728 96.9528 103.535 97.3648 103.365 97.9985L102.732 100.363C102.566 100.981 102.471 101.461 102.445 101.802C102.424 102.128 102.499 102.404 102.67 102.632C102.845 102.845 103.164 103.013 103.628 103.138C104.184 103.287 104.632 103.316 104.971 103.224L106.17 98.7501C106.34 98.1164 106.379 97.663 106.286 97.3897C106.198 97.1011 105.953 96.9029 105.551 96.7952L105.682 96.3084C107.211 96.7843 108.23 97.0906 108.74 97.2273C109.25 97.3639 110.41 97.6415 112.219 98.0601L112.089 98.5469ZM134.718 104.61C134.239 104.482 133.865 104.515 133.598 104.708C133.351 104.89 133.142 105.298 132.972 105.932L130.91 113.628C130.74 114.262 130.715 114.727 130.834 115.024C130.973 115.31 131.282 115.517 131.761 115.645L131.63 116.132C129.978 115.623 128.943 115.312 128.526 115.201C128.186 115.11 127.641 114.98 126.891 114.812C126.048 114.619 125.302 114.436 124.653 114.262C123.957 114.076 123.165 113.847 122.277 113.576C121.636 113.371 121.192 113.236 120.945 113.169C120.698 113.103 120.246 112.999 119.588 112.855C118.683 112.646 117.876 112.446 117.165 112.256C116.547 112.09 115.824 111.88 114.998 111.626C114.295 111.404 113.751 111.242 113.365 111.138C112.978 111.035 112.014 110.801 110.471 110.437C110.344 110.42 110.179 110.384 109.978 110.33L110.109 109.843C110.588 109.972 110.951 109.945 111.199 109.763C111.466 109.569 111.684 109.156 111.854 108.522L113.916 100.826C114.086 100.192 114.102 99.7323 113.963 99.4467C113.844 99.1497 113.545 98.937 113.065 98.8087L113.196 98.3218C114.848 98.8309 115.93 99.1538 116.44 99.2904C116.95 99.4271 118.048 99.6881 119.733 100.074L119.603 100.56C119.201 100.453 118.89 100.502 118.669 100.708C118.452 100.898 118.259 101.31 118.089 101.944L116.027 109.64C115.857 110.274 115.816 110.735 115.905 111.024C115.997 111.297 116.244 111.487 116.646 111.595L117.782 111.899C118.184 112.007 118.493 111.966 118.71 111.775C118.931 111.569 119.126 111.15 119.296 110.516L121.358 102.82C121.528 102.186 121.566 101.732 121.474 101.459C121.386 101.171 121.141 100.972 120.739 100.865L120.869 100.378C122.398 100.854 123.41 101.158 123.904 101.291C124.399 101.423 125.489 101.682 127.175 102.067L127.044 102.554C126.643 102.447 126.331 102.496 126.11 102.702C125.894 102.892 125.7 103.304 125.531 103.938L123.468 111.634C123.299 112.268 123.258 112.729 123.346 113.018C123.439 113.291 123.686 113.481 124.088 113.589L125.224 113.893C125.625 114.001 125.935 113.96 126.151 113.769C126.372 113.563 126.567 113.144 126.737 112.51L128.799 104.814C128.969 104.18 129.008 103.726 128.915 103.453C128.827 103.165 128.582 102.966 128.18 102.859L128.311 102.372C129.84 102.848 130.859 103.154 131.369 103.291C131.879 103.427 133.039 103.705 134.848 104.124L134.718 104.61ZM140.417 116.126C141.546 116.428 142.619 116.161 143.639 115.324L143.996 115.569C143.366 116.56 142.538 117.332 141.511 117.885C140.501 118.442 139.362 118.551 138.094 118.212C136.472 117.777 135.308 116.927 134.604 115.661C133.899 114.396 133.843 112.658 134.435 110.448C135.002 108.331 135.968 106.892 137.331 106.131C138.714 105.358 140.302 105.212 142.095 105.693C145.016 106.475 146.013 108.598 145.085 112.059L139.104 110.457C139.039 110.638 138.957 110.914 138.857 111.285C138.46 112.769 138.431 113.896 138.771 114.666C139.127 115.441 139.676 115.927 140.417 116.126ZM141.79 106.182C140.924 105.95 140.038 107.22 139.129 109.992L141.818 110.712C142.165 109.48 142.344 108.443 142.354 107.601C142.38 106.763 142.192 106.29 141.79 106.182ZM162.015 111.925C161.536 111.796 161.163 111.829 160.896 112.022C160.648 112.204 160.439 112.612 160.27 113.246L158.207 120.942C158.038 121.576 158.012 122.041 158.131 122.338C158.27 122.624 158.579 122.831 159.058 122.959L158.928 123.446C157.275 122.937 156.202 122.616 155.707 122.484C155.182 122.343 154.076 122.08 152.39 121.695L152.521 121.208C152.923 121.315 153.232 121.274 153.449 121.084C153.669 120.878 153.865 120.458 154.035 119.824L155.904 112.846L150.203 119.195C150.101 119.698 150.103 120.063 150.208 120.29C150.313 120.517 150.55 120.68 150.921 120.779L150.791 121.266C149.262 120.79 148.25 120.486 147.756 120.353C147.23 120.212 146.063 119.933 144.254 119.514L144.384 119.027C144.863 119.156 145.226 119.129 145.474 118.947C145.741 118.753 145.96 118.34 146.129 117.706L148.192 110.01C148.361 109.376 148.377 108.916 148.238 108.631C148.119 108.334 147.82 108.121 147.341 107.993L147.471 107.506C149.124 108.015 150.197 108.336 150.692 108.468C151.217 108.609 152.323 108.872 154.009 109.258L153.878 109.744C153.476 109.637 153.165 109.686 152.944 109.892C152.728 110.082 152.534 110.494 152.364 111.128L150.476 118.175L156.165 111.873C156.295 111.328 156.301 110.932 156.185 110.686C156.084 110.443 155.849 110.272 155.478 110.173L155.608 109.686C157.137 110.162 158.149 110.466 158.643 110.599C159.169 110.74 160.336 111.019 162.146 111.438L162.015 111.925ZM159.774 103.969C160.361 104.127 160.788 104.448 161.056 104.934C161.343 105.409 161.407 105.939 161.25 106.527C161.138 106.944 160.905 107.287 160.552 107.557C160.213 107.831 159.824 108.016 159.384 108.114C158.269 108.378 156.893 108.291 155.255 107.852C153.601 107.409 152.358 106.794 151.525 106.008C151.208 105.708 150.971 105.354 150.815 104.948C150.659 104.542 150.637 104.13 150.749 103.713C150.91 103.11 151.226 102.673 151.696 102.401C152.167 102.13 152.703 102.075 153.306 102.236C153.878 102.39 154.305 102.711 154.588 103.201C154.875 103.676 154.94 104.206 154.782 104.794C154.658 105.257 154.411 105.622 154.042 105.887C153.692 106.142 153.273 106.286 152.783 106.32C153.571 106.78 154.436 107.136 155.379 107.389C156.322 107.641 157.244 107.756 158.144 107.732C157.738 107.457 157.446 107.123 157.271 106.728C157.114 106.321 157.096 105.894 157.216 105.446C157.374 104.859 157.688 104.429 158.158 104.158C158.648 103.875 159.186 103.812 159.774 103.969ZM93.0323 122.429C92.5533 122.3 92.1801 122.333 91.9129 122.526C91.6654 122.708 91.4567 123.116 91.2869 123.75L89.2246 131.446C89.0548 132.08 89.0682 132.556 89.2647 132.873C89.4653 133.176 89.8901 133.414 90.5392 133.588C90.1577 134.579 89.8635 135.46 89.6564 136.233C89.4908 136.851 89.3856 137.337 89.3408 137.689L88.8077 137.546C88.8939 136.112 88.7081 135.043 88.2503 134.341C87.7925 133.638 86.9686 133.128 85.7786 132.809L84.7586 132.536C84.4453 132.468 83.8405 132.314 82.9441 132.074C82.2487 131.888 81.4878 131.667 80.6615 131.413C80.0207 131.208 79.5457 131.064 79.2366 130.981C78.7112 130.841 77.5438 130.561 75.7345 130.142L75.8649 129.656C76.344 129.784 76.7073 129.757 76.9549 129.575C77.2221 129.381 77.4406 128.968 77.6103 128.334L79.6726 120.638C79.8424 120.004 79.8579 119.544 79.7191 119.259C79.5999 118.962 79.3007 118.749 78.8216 118.621L78.9521 118.134C80.6046 118.643 81.6782 118.964 82.1728 119.096C82.6982 119.237 83.8038 119.5 85.4895 119.886L85.359 120.372C84.9572 120.265 84.6459 120.314 84.4251 120.52C84.2084 120.71 84.0152 121.122 83.8454 121.756L81.7831 129.452C81.6134 130.086 81.5726 130.547 81.6609 130.836C81.7533 131.109 82.0005 131.3 82.4023 131.407L83.5382 131.712C83.94 131.819 84.2493 131.778 84.4659 131.587C84.6868 131.382 84.8821 130.962 85.0518 130.328L87.1141 122.632C87.2839 121.998 87.3226 121.545 87.2301 121.271C87.1418 120.983 86.8968 120.785 86.495 120.677L86.6254 120.19C88.1543 120.666 89.1661 120.97 89.6606 121.103C90.1861 121.243 91.3535 121.523 93.1628 121.942L93.0323 122.429ZM98.816 133.967C99.9442 134.269 101.018 134.002 102.037 133.165L102.394 133.41C101.764 134.4 100.936 135.172 99.91 135.726C98.8993 136.283 97.7603 136.392 96.493 136.052C94.8703 135.618 93.7066 134.767 93.0022 133.502C92.2977 132.237 92.2415 130.499 92.8337 128.289C93.401 126.172 94.3664 124.732 95.7299 123.971C97.1129 123.199 98.7008 123.053 100.494 123.533C103.414 124.316 104.411 126.438 103.484 129.9L97.5025 128.297C97.4374 128.479 97.3551 128.755 97.2557 129.126C96.8582 130.61 96.8295 131.736 97.1698 132.507C97.5254 133.281 98.0742 133.768 98.816 133.967ZM100.188 124.023C99.3229 123.791 98.4361 125.061 97.5278 127.832L100.217 128.553C100.564 127.32 100.742 126.283 100.753 125.441C100.778 124.603 100.59 124.131 100.188 124.023ZM119.95 129.641C119.471 129.513 119.098 129.545 118.831 129.739C118.583 129.921 118.374 130.329 118.205 130.962L116.142 138.659C115.972 139.293 115.947 139.758 116.066 140.055C116.205 140.34 116.514 140.547 116.993 140.676L116.863 141.163C115.21 140.654 114.137 140.333 113.642 140.2C113.117 140.06 112.011 139.796 110.325 139.411L110.456 138.924C110.858 139.032 111.167 138.99 111.384 138.8C111.604 138.594 111.8 138.174 111.969 137.541L112.988 133.739L109.719 132.863L108.701 136.665C108.531 137.299 108.49 137.76 108.579 138.048C108.671 138.322 108.918 138.512 109.32 138.62L109.189 139.107C107.661 138.631 106.649 138.326 106.154 138.194C105.629 138.053 104.461 137.773 102.652 137.355L102.783 136.868C103.262 136.996 103.625 136.97 103.873 136.787C104.14 136.594 104.358 136.18 104.528 135.547L106.59 127.85C106.76 127.217 106.776 126.757 106.637 126.471C106.518 126.174 106.218 125.962 105.739 125.833L105.87 125.347C107.522 125.856 108.596 126.176 109.09 126.309C109.616 126.45 110.721 126.713 112.407 127.098L112.277 127.585C111.875 127.477 111.564 127.526 111.343 127.732C111.126 127.923 110.933 128.335 110.763 128.968L109.844 132.399L113.112 133.275L114.032 129.844C114.202 129.211 114.24 128.757 114.148 128.484C114.059 128.195 113.814 127.997 113.413 127.889L113.543 127.403C115.072 127.879 116.084 128.183 116.578 128.315C117.104 128.456 118.271 128.736 120.08 129.154L119.95 129.641ZM126.737 136.33C128.622 136.835 129.961 137.525 130.754 138.4C131.55 139.259 131.818 140.176 131.557 141.149C131.388 141.783 131.02 142.322 130.453 142.767C129.887 143.211 129.1 143.489 128.093 143.6C127.086 143.711 125.872 143.577 124.45 143.196C124.172 143.121 123.712 142.981 123.071 142.777C122.338 142.547 121.724 142.366 121.229 142.233C120.765 142.109 119.691 141.854 118.005 141.469L118.136 140.982C118.537 141.09 118.847 141.048 119.063 140.858C119.284 140.652 119.479 140.232 119.649 139.599L121.711 131.902C121.881 131.268 121.92 130.815 121.827 130.542C121.739 130.253 121.494 130.055 121.092 129.947L121.223 129.46C122.752 129.936 123.771 130.243 124.281 130.379C124.791 130.516 125.951 130.793 127.76 131.212L127.63 131.699C127.151 131.57 126.777 131.603 126.51 131.796C126.263 131.979 126.054 132.386 125.884 133.02L125.108 135.918L126.737 136.33ZM140.357 135.109C139.878 134.981 139.504 135.013 139.237 135.207C138.99 135.389 138.781 135.797 138.611 136.43L136.549 144.127C136.379 144.76 136.354 145.226 136.473 145.523C136.612 145.808 136.921 146.015 137.4 146.144L137.269 146.631C135.493 146.088 134.342 145.747 133.817 145.606C133.292 145.465 132.186 145.202 130.5 144.817L130.631 144.33C131.11 144.458 131.473 144.431 131.721 144.249C131.988 144.056 132.206 143.642 132.376 143.009L134.438 135.312C134.608 134.679 134.624 134.219 134.485 133.933C134.366 133.636 134.067 133.424 133.587 133.295L133.718 132.808C135.494 133.351 136.66 133.696 137.217 133.845C137.711 133.978 138.801 134.237 140.487 134.622L140.357 135.109ZM124.256 142.622C125.708 143.011 126.698 142.224 127.224 140.262C127.518 139.164 127.495 138.322 127.156 137.734C126.832 137.15 126.129 136.713 125.047 136.423L124.977 136.405L123.605 141.528C123.505 141.899 123.495 142.153 123.574 142.29C123.658 142.412 123.885 142.522 124.256 142.622Z" fill="black"/>
</g>
<defs>
<filter id="filter0_d" x="0" y="3.15381" width="217.708" height="231.19" filterUnits="userSpaceOnUse" color-interpolation-filters="sRGB">
<feFlood flood-opacity="0" result="BackgroundImageFix"/>
<feColorMatrix in="SourceAlpha" type="matrix" values="0 0 0 0 0 0 0 0 0 0 0 0 0 0 0 0 0 0 127 0"/>
<feOffset dy="12"/>
<feGaussianBlur stdDeviation="3.5"/>
<feColorMatrix type="matrix" values="0 0 0 0 0.204167 0 0 0 0 0.072675 0 0 0 0 0.00850695 0 0 0 0.39 0"/>
<feBlend mode="normal" in2="BackgroundImageFix" result="effect1_dropShadow"/>
<feBlend mode="normal" in="SourceGraphic" in2="effect1_dropShadow" result="shape"/>
</filter>
<filter id="filter1_d" x="16.7103" y="2.15381" width="197.998" height="198.36" filterUnits="userSpaceOnUse" color-interpolation-filters="sRGB">
<feFlood flood-opacity="0" result="BackgroundImageFix"/>
<feColorMatrix in="SourceAlpha" type="matrix" values="0 0 0 0 0 0 0 0 0 0 0 0 0 0 0 0 0 0 127 0"/>
<feOffset dy="3"/>
<feGaussianBlur stdDeviation="2"/>
<feColorMatrix type="matrix" values="0 0 0 0 0 0 0 0 0 0 0 0 0 0 0 0 0 0 0.2 0"/>
<feBlend mode="normal" in2="BackgroundImageFix" result="effect1_dropShadow"/>
<feBlend mode="normal" in="SourceGraphic" in2="effect1_dropShadow" result="shape"/>
</filter>
<linearGradient id="paint0_linear" x1="47.4816" y1="156.38" x2="15.8192" y2="148.358" gradientUnits="userSpaceOnUse">
<stop stop-color="#EED184"/>
<stop offset="1" stop-color="#EF6B2A"/>
</linearGradient>
<linearGradient id="paint1_linear" x1="146.347" y1="181.428" x2="178.01" y2="189.449" gradientUnits="userSpaceOnUse">
<stop stop-color="#EED184"/>
<stop offset="1" stop-color="#EF6B2A"/>
</linearGradient>
<linearGradient id="paint2_linear" x1="160.406" y1="97.7375" x2="27.5072" y2="97.7375" gradientUnits="userSpaceOnUse">
<stop stop-color="#F3CC64"/>
<stop offset="1" stop-color="#ED6C2C"/>
</linearGradient>
<linearGradient id="paint3_linear" x1="43.9594" y1="120.601" x2="197.356" y2="120.601" gradientUnits="userSpaceOnUse">
<stop offset="0.168034" stop-color="#FFEEBE"/>
<stop offset="0.58224" stop-color="#FFF9EA"/>
<stop offset="1" stop-color="white"/>
</linearGradient>
<linearGradient id="paint4_linear" x1="152.821" y1="97.8388" x2="42.4749" y2="97.8388" gradientUnits="userSpaceOnUse">
<stop stop-color="#F3CC64"/>
<stop offset="1" stop-color="#ED6C2C"/>
</linearGradient>
</defs>
</svg>
