<svg width="203" height="219" viewBox="0 0 203 219" fill="none" xmlns="http://www.w3.org/2000/svg">
<g filter="url(#filter0_d)">
<path d="M48.1539 179.917L63.6409 148.851L85.4057 162.261L69.3923 192.344L62.0997 179.804L48.1539 179.917Z" fill="url(#paint0_linear)"/>
<path d="M187.781 142.504L158.835 123.343L146.692 145.84L175.601 163.885L175.647 149.379L187.781 142.504Z" fill="url(#paint1_linear)"/>
<g filter="url(#filter1_d)">
<path d="M78.304 25.9105C78.9424 23.8094 81.5637 23.107 83.1671 24.6074C84.6539 25.9987 87.0683 25.5118 87.8997 23.6531C88.7965 21.6486 91.485 21.2803 92.8878 22.9699C94.1884 24.5365 96.6449 24.3561 97.7027 22.6163C98.8436 20.7399 101.557 20.7115 102.737 22.5636C103.831 24.2808 106.291 24.4097 107.558 22.8162C108.925 21.0977 111.621 21.4096 112.56 23.3949C113.43 25.2357 115.854 25.6719 117.311 24.2498C118.883 22.7162 121.518 23.3635 122.2 25.4508C122.833 27.3862 125.183 28.1227 126.807 26.8945C128.559 25.5699 131.092 26.5424 131.508 28.6987C131.893 30.6982 134.132 31.7235 135.897 30.7085C137.801 29.6139 140.193 30.8962 140.334 33.0876C140.466 35.1195 142.559 36.4174 144.438 35.6317C146.463 34.7843 148.675 36.3563 148.541 38.5482C148.417 40.5805 150.331 42.1306 152.293 41.5865C154.409 40.9996 156.407 42.8365 155.999 44.9943C155.621 46.995 157.326 48.7727 159.341 48.4788C161.514 48.1619 163.265 50.2346 162.591 52.3243C161.965 54.2619 163.433 56.2392 165.469 56.2002C167.665 56.158 169.143 58.434 168.211 60.4226C167.347 62.2665 168.557 64.4123 170.581 64.6287C172.765 64.8621 173.946 67.3053 172.772 69.1614C171.684 70.8826 172.615 73.163 174.597 73.6315C176.734 74.1367 177.599 76.7086 176.202 78.4031C174.907 79.9743 175.545 82.3534 177.452 83.0665C179.509 83.8356 180.045 86.4957 178.447 88.0018C176.965 89.3982 177.299 91.8385 179.102 92.785C181.047 93.8058 181.245 96.5122 179.471 97.8061C177.826 99.0058 177.852 101.469 179.522 102.634C181.323 103.89 181.181 106.6 179.258 107.661C177.475 108.645 177.192 111.092 178.703 112.457C180.332 113.93 179.852 116.6 177.812 117.412C175.92 118.165 175.332 120.557 176.66 122.101C178.092 123.766 177.28 126.355 175.154 126.905C173.183 127.415 172.3 129.714 173.424 131.412C174.636 133.244 173.507 135.711 171.328 135.99C169.309 136.249 168.145 138.419 169.047 140.245C170.02 142.214 168.59 144.52 166.394 144.524C164.358 144.527 162.931 146.535 163.597 148.459C164.316 150.534 162.608 152.643 160.429 152.372C158.408 152.12 156.741 153.933 157.161 155.926C157.614 158.074 155.655 159.953 153.527 159.41C151.554 158.907 149.673 160.497 149.84 162.526C150.02 164.715 147.841 166.333 145.798 165.528C143.903 164.782 141.838 166.123 141.749 168.158C141.653 170.351 139.289 171.684 137.363 170.629C135.577 169.651 133.359 170.723 133.016 172.73C132.646 174.895 130.133 175.92 128.355 174.633C126.705 173.439 124.371 174.224 123.779 176.173C123.14 178.274 120.519 178.976 118.916 177.476C117.429 176.084 115.015 176.571 114.183 178.43C113.286 180.434 110.598 180.803 109.195 179.113C107.894 177.547 105.438 177.727 104.38 179.467C103.239 181.343 100.526 181.371 99.3459 179.519C98.2518 177.802 95.7921 177.673 94.5246 179.267C93.1575 180.985 90.4618 180.673 89.5233 178.688C88.6531 176.847 86.229 176.411 84.7717 177.833C83.2001 179.367 80.5647 178.72 79.8825 176.632C79.2498 174.697 76.8995 173.96 75.2755 175.189C73.524 176.513 70.9905 175.541 70.5753 173.384C70.1902 171.385 67.9507 170.36 66.1856 171.375C64.2819 172.469 61.8903 171.187 61.7486 168.995C61.6171 166.963 59.5238 165.666 57.6454 166.451C55.6195 167.299 53.4075 165.727 53.5415 163.535C53.6658 161.502 51.7516 159.952 49.7895 160.497C47.6734 161.083 45.6759 159.247 46.0836 157.089C46.4616 155.088 44.7568 153.31 42.742 153.604C40.569 153.921 38.8174 151.848 39.4923 149.759C40.1181 147.821 38.6496 145.844 36.6138 145.883C34.4183 145.925 32.9403 143.649 33.8718 141.66C34.7355 139.817 33.5264 137.671 31.5018 137.454C29.3182 137.221 28.1371 134.778 29.3105 132.922C30.3985 131.2 29.4679 128.92 27.4864 128.452C25.3493 127.946 24.4837 125.374 25.8805 123.68C27.1757 122.109 26.5382 119.73 24.631 119.017C22.5741 118.247 22.0377 115.587 23.6358 114.081C25.1177 112.685 24.7834 110.245 22.9806 109.298C21.0363 108.277 20.8376 105.571 22.6119 104.277C24.2571 103.077 24.2313 100.614 22.5613 99.4493C20.7603 98.1929 20.9024 95.4829 22.8248 94.4216C24.6074 93.4375 24.8905 90.9908 23.3797 89.6257C21.7504 88.1534 22.231 85.4826 24.2713 84.6706C26.1631 83.9178 26.7507 81.5258 25.4229 79.9821C23.9909 78.3173 24.8025 75.7277 26.9285 75.1779C28.8998 74.668 29.7824 72.3686 28.6586 70.6707C27.4466 68.8395 28.5763 66.3721 30.7544 66.093C32.7741 65.8343 33.938 63.6636 33.0359 61.8382C32.0629 59.8695 33.4929 57.5631 35.6889 57.5593C37.725 57.5557 39.1518 55.548 38.4856 53.6239C37.7671 51.5489 39.4748 49.4399 41.654 49.7113C43.6745 49.963 45.3417 48.1499 44.9218 46.1575C44.4691 44.0087 46.4277 42.1305 48.5556 42.6728C50.5287 43.1757 52.41 41.586 52.2432 39.5566C52.0633 37.3681 54.2419 35.7501 56.285 36.5549C58.1795 37.3011 60.2452 35.9596 60.334 33.9254C60.4299 31.7315 62.7941 30.3994 64.7203 31.4539C66.5063 32.4317 68.7238 31.3597 69.0669 29.3526C69.4369 27.1881 71.9495 26.1627 73.7283 27.4504C75.3777 28.6443 77.7121 27.8587 78.304 25.9105Z" fill="url(#paint2_linear)"/>
</g>
<circle cx="101.041" cy="101.041" r="71.5" transform="rotate(-15 101.041 101.041)" fill="white"/>
<circle cx="101.042" cy="101.041" r="67.5" transform="rotate(-15 101.042 101.041)" fill="url(#paint3_linear)" stroke="url(#paint4_linear)" stroke-width="2"/>
<path d="M71.0754 97.5004C71.514 99.1373 72.0585 100.211 72.7087 100.721C73.3882 101.181 74.3468 101.245 75.5845 100.914L75.9215 102.171C71.5668 103.167 68.7906 103.825 67.5928 104.146C66.1954 104.521 63.1173 105.41 58.3584 106.813L56.6377 107.338L56.3007 106.081C58.0175 105.621 59.1988 104.919 59.8447 103.976C60.5305 103.022 60.6273 101.627 60.1352 99.79L56.1877 85.0577C55.6742 83.1413 55.1401 81.7867 54.5853 80.9939C54.0598 80.1505 53.4003 79.6854 52.6067 79.5985C51.8424 79.4609 50.7416 79.5847 49.3043 79.9698L48.9513 78.6523C52.8026 77.5348 55.8872 76.4301 58.2049 75.3384C60.5519 74.196 62.5046 72.8598 64.063 71.3296L71.0754 97.5004ZM89.9222 64.2081C93.3158 63.2988 96.5067 63.1498 99.4948 63.7613C102.523 64.3621 105.102 65.6823 107.231 67.7219C109.351 69.7215 110.827 72.2784 111.662 75.3926C112.518 78.5866 112.529 81.6644 111.697 84.6262C110.864 87.5879 109.269 90.1764 106.91 92.3918C104.551 94.6072 101.594 96.1909 98.041 97.143C94.6873 98.0416 91.4965 98.1906 88.4685 97.5898C85.4804 96.9783 82.9069 95.6781 80.7479 93.6891C78.6181 91.6495 77.1306 89.0527 76.2855 85.8986C75.4403 82.7446 75.434 79.6867 76.2665 76.7249C77.099 73.7632 78.6748 71.18 80.9939 68.9754C83.3528 66.76 86.329 65.1709 89.9222 64.2081ZM89.6721 65.4305C88.4344 65.7621 87.4877 66.7005 86.8319 68.2455C86.2053 69.7399 85.9281 71.7398 86.0004 74.2451C86.1018 76.6999 86.5805 79.5242 87.4363 82.7182C88.7949 87.7887 90.4447 91.3904 92.3855 93.5234C94.3264 95.6564 96.2949 96.4555 98.2912 95.9206C99.5289 95.589 100.461 94.676 101.088 93.1815C101.743 91.6365 102.015 89.6166 101.903 87.122C101.831 84.6167 101.367 81.767 100.511 78.573C99.1523 73.5025 97.5079 69.9208 95.5777 67.8277C93.6369 65.6946 91.6683 64.8956 89.6721 65.4305ZM135.644 52.5845L122.006 92.1005L121.138 91.7949L134.775 52.2789L135.644 52.5845ZM118.35 59.2889C120.333 58.7575 122.082 58.8963 123.596 59.7052C125.103 60.4884 126.119 61.8588 126.644 63.8164C126.989 65.1043 127.009 66.3136 126.705 67.4443C126.401 68.5749 125.819 69.5453 124.959 70.3554C124.099 71.1655 123.038 71.7396 121.776 72.0778C119.793 72.6092 118.035 72.4868 116.502 71.7105C114.987 70.9015 113.968 69.5182 113.443 67.5606C113.105 66.2985 113.088 65.1021 113.393 63.9714C113.716 62.8081 114.307 61.8214 115.167 61.0114C116.027 60.2013 117.087 59.6271 118.35 59.2889ZM118.459 60.0051C116.99 60.3985 116.771 62.5142 117.799 66.3521C118.296 68.2067 118.878 69.5553 119.546 70.3979C120.213 71.2405 120.92 71.5618 121.667 71.3616C123.11 70.9751 123.32 68.8758 122.299 65.0636C121.795 63.1832 121.209 61.8218 120.542 60.9792C119.9 60.1296 119.206 59.8049 118.459 60.0051ZM135.001 73.2137C136.984 72.6823 138.733 72.821 140.247 73.63C141.755 74.4132 142.771 75.7836 143.295 77.7412C143.64 79.0291 143.661 80.2384 143.356 81.369C143.052 82.4997 142.47 83.4701 141.61 84.2801C140.751 85.0902 139.69 85.6644 138.428 86.0026C136.444 86.534 134.686 86.4116 133.153 85.6353C131.639 84.8263 130.619 83.443 130.095 81.4854C129.756 80.2233 129.74 79.0269 130.044 77.8962C130.367 76.7329 130.959 75.7462 131.818 74.9361C132.678 74.126 133.739 73.5519 135.001 73.2137ZM135.11 73.9299C133.642 74.3233 133.422 76.439 134.45 80.2769C134.947 82.1315 135.529 83.4801 136.197 84.3227C136.864 85.1653 137.572 85.4866 138.319 85.2864C139.761 84.8999 139.972 82.8005 138.95 78.9884C138.446 77.108 137.861 75.7465 137.193 74.9039C136.551 74.0544 135.857 73.7297 135.11 73.9299Z" fill="#EF560B"/>
<path d="M60.1975 121.97C59.8382 122.066 59.608 122.227 59.5071 122.453C59.4145 122.664 59.432 123.007 59.5593 123.482L61.106 129.255C61.2333 129.73 61.3914 130.042 61.5802 130.19C61.7775 130.323 62.0558 130.342 62.4151 130.246L62.5129 130.611C61.2487 130.9 60.4311 131.094 60.0602 131.193C59.6661 131.299 58.8493 131.543 57.6099 131.925L57.5121 131.559C57.8134 131.479 57.9988 131.336 58.0681 131.131C58.1343 130.914 58.1037 130.568 57.9764 130.093L57.2124 127.242L54.7609 127.899L55.5249 130.75C55.6522 131.225 55.7987 131.54 55.9643 131.695C56.1268 131.837 56.3587 131.868 56.6601 131.788L56.7579 132.153C55.5864 132.417 54.8152 132.599 54.4443 132.698C54.0502 132.804 53.187 133.06 51.8549 133.467L51.7571 133.101C52.1164 133.005 52.3423 132.851 52.4348 132.64C52.5358 132.414 52.5226 132.064 52.3953 131.589L50.8486 125.816C50.7212 125.341 50.5589 125.037 50.3617 124.903C50.1729 124.755 49.8988 124.729 49.5395 124.825L49.4417 124.46C50.7059 124.171 51.5235 123.977 51.8944 123.878C52.2885 123.772 53.1053 123.528 54.3447 123.147L54.4425 123.512C54.1412 123.592 53.9574 123.741 53.8912 123.958C53.8218 124.162 53.8508 124.503 53.9782 124.978L54.6677 127.551L57.1192 126.894L56.4297 124.321C56.3024 123.846 56.1574 123.537 55.9949 123.394C55.8293 123.239 55.5959 123.203 55.2945 123.283L55.1967 122.918C56.3682 122.654 57.1394 122.472 57.5103 122.373C57.9044 122.267 58.7675 122.011 60.0997 121.604L60.1975 121.97ZM65.5408 129.93C64.799 130.129 64.184 130.082 63.6959 129.791C63.2163 129.484 62.8957 129.03 62.7342 128.427C62.5944 127.905 62.6128 127.441 62.7894 127.033C62.9744 126.611 63.2275 126.257 63.5487 125.973C63.8699 125.688 64.2997 125.368 64.8381 125.012C65.4081 124.636 65.8147 124.322 66.0579 124.07C66.3011 123.819 66.3807 123.537 66.2969 123.224L65.8822 121.676C65.7829 121.305 65.6016 121 65.3385 120.76C65.0754 120.52 64.7178 120.46 64.2658 120.581C63.9064 120.678 63.6083 120.863 63.3713 121.138C63.8027 121.171 64.1484 121.302 64.4084 121.531C64.6768 121.745 64.8561 122.02 64.9462 122.356C65.0673 122.808 65.0029 123.216 64.7529 123.581C64.5113 123.932 64.1645 124.168 63.7125 124.289C63.2604 124.41 62.8638 124.367 62.5227 124.16C62.1901 123.939 61.9647 123.608 61.8467 123.168C61.7535 122.82 61.7597 122.495 61.8653 122.194C61.9708 121.892 62.1811 121.587 62.4961 121.279C63.0458 120.734 63.9234 120.3 65.1289 119.977C65.7664 119.807 66.334 119.723 66.8318 119.726C67.3265 119.718 67.7812 119.838 68.1958 120.087C68.4929 120.269 68.7259 120.535 68.8948 120.888C69.0722 121.225 69.2479 121.719 69.4218 122.368L70.6704 127.027C70.748 127.317 70.8182 127.51 70.8809 127.605C70.9552 127.696 71.0445 127.728 71.1489 127.7C71.23 127.679 71.3107 127.632 71.391 127.561C71.4682 127.478 71.5381 127.391 71.6006 127.3L71.8536 127.549C71.4701 128.111 70.8148 128.517 69.8875 128.765C69.192 128.952 68.6741 128.966 68.3338 128.809C67.9904 128.64 67.7528 128.356 67.6209 127.956C67.3121 128.983 66.6188 129.641 65.5408 129.93ZM66.9068 128.073C67.1502 128.008 67.3382 127.852 67.4709 127.605L66.4879 123.937C66.4301 124.138 66.2995 124.416 66.0958 124.768C65.8636 125.154 65.7052 125.513 65.6205 125.846C65.5328 126.168 65.5542 126.572 65.6846 127.059C65.9082 127.893 66.3156 128.231 66.9068 128.073ZM80.5666 115.841C81.4707 115.599 82.3003 115.774 83.0555 116.367C83.8106 116.959 84.3792 117.969 84.7612 119.394C85.255 121.237 85.2382 122.658 84.7107 123.657C84.18 124.644 83.3062 125.3 82.0891 125.626C81.4168 125.806 80.8483 125.841 80.3836 125.729L80.7703 127.172C80.9132 127.705 81.1343 128.044 81.4336 128.187C81.7445 128.327 82.1492 128.331 82.6476 128.197L82.7454 128.562L82.2365 128.68C80.8363 129.018 79.9333 129.241 79.5276 129.35C79.1799 129.443 78.3863 129.681 77.1469 130.063L77.0491 129.697C77.4084 129.601 77.6328 129.442 77.7222 129.219C77.8263 129.005 77.8146 128.66 77.6873 128.185L75.3719 119.543C75.229 119.01 75.0496 118.642 74.8337 118.439C74.6294 118.233 74.3476 118.178 73.9883 118.274L73.8904 117.909C74.2591 117.848 74.6231 117.769 74.9824 117.673C76.1879 117.35 77.1746 116.998 77.9425 116.619L78.2732 117.853C78.5735 116.841 79.3379 116.17 80.5666 115.841ZM80.9409 125.375C81.5784 125.204 81.9447 124.739 82.0396 123.981C82.143 123.208 82.0022 122.103 81.6171 120.665C81.235 119.24 80.8636 118.271 80.5028 117.759C80.1389 117.235 79.7772 117.021 79.4179 117.118C79.0818 117.208 78.8188 117.409 78.629 117.72C78.4477 118.017 78.4052 118.346 78.5015 118.705L80.2951 125.399C80.4706 125.451 80.6859 125.443 80.9409 125.375ZM91.738 113.183C92.3987 113.006 92.8387 112.863 93.0581 112.755L93.1559 113.12C92.9343 113.266 92.7533 113.495 92.613 113.806C92.4843 114.113 92.4044 114.557 92.3734 115.137L91.9331 122.187L91.7666 124.487C91.7194 125.145 91.5762 125.631 91.337 125.943C91.0522 126.318 90.5505 126.601 89.8318 126.794C89.2523 126.949 88.676 126.955 88.1031 126.81C87.5332 126.677 87.1753 126.338 87.0293 125.793C86.9206 125.388 86.9902 125.021 87.2379 124.694C87.4856 124.367 87.8645 124.135 88.3745 123.998C88.8613 123.868 89.2733 123.875 89.6105 124.021C89.9477 124.167 90.1722 124.448 90.2841 124.865C90.3586 125.143 90.33 125.431 90.1981 125.727C90.081 126.032 89.8525 126.292 89.5126 126.507C89.6348 126.499 89.8349 126.458 90.1131 126.383C90.9129 126.169 91.3392 125.558 91.3921 124.55L91.3999 124.231L84.9495 116.362C84.6701 116.015 84.4263 115.8 84.2183 115.72C84.0218 115.636 83.8425 115.615 83.6802 115.659L83.5824 115.294C84.5283 115.115 85.4823 114.896 86.4444 114.639C87.1978 114.437 88.0288 114.177 88.9375 113.859L89.0353 114.224C88.6992 114.314 88.4446 114.407 88.2715 114.503C88.1101 114.596 88.0511 114.724 88.0946 114.886C88.1194 114.979 88.1675 115.065 88.2387 115.145L91.7423 119.667L91.8762 117.246C91.9163 116.514 91.868 115.894 91.7313 115.384C91.5854 114.839 91.3561 114.447 91.0435 114.208C90.7309 113.968 90.3803 113.888 89.9916 113.968L89.8937 113.603C90.335 113.534 90.9498 113.394 91.738 113.183ZM101.906 110.794C101.605 110.875 101.419 111.017 101.35 111.222C101.281 111.427 101.311 111.773 101.442 112.26L102.988 118.032C103.116 118.508 103.262 118.822 103.428 118.977C103.59 119.12 103.822 119.151 104.124 119.07L104.221 119.435C103.05 119.699 102.273 119.883 101.89 119.985C101.508 120.088 100.65 120.342 99.3183 120.749L99.2205 120.384C99.5798 120.287 99.8057 120.134 99.8982 119.923C99.9992 119.697 99.986 119.346 99.8587 118.871L98.312 113.099C98.1847 112.623 98.0397 112.314 97.8773 112.171C97.7116 112.017 97.4782 111.98 97.1768 112.061L97.0203 112.103C96.8001 112.162 96.6545 112.244 96.5835 112.35C96.5094 112.445 96.4736 112.566 96.4761 112.715C96.4902 112.86 96.5342 113.14 96.6081 113.555C96.8595 115.003 97.0353 116.192 97.1353 117.122C97.2439 118.037 97.258 118.878 97.1778 119.645C97.0989 120.325 96.9319 120.86 96.6765 121.252C96.418 121.632 96.0627 121.882 95.6106 122.003C95.1122 122.137 94.6167 122.096 94.124 121.88C93.6314 121.664 93.2996 121.237 93.1288 120.6C92.986 120.066 93.0233 119.603 93.2408 119.209C93.4699 118.812 93.8336 118.547 94.3321 118.414C94.8189 118.283 95.2302 118.335 95.5659 118.568C95.9102 118.786 96.1398 119.11 96.2547 119.538C96.4659 120.327 96.1606 121.042 95.3389 121.685C95.4147 121.689 95.5047 121.677 95.6091 121.649C96.2697 121.472 96.669 120.806 96.8067 119.651C96.8932 118.908 96.8771 118.036 96.7584 117.037C96.6482 116.023 96.4764 114.895 96.243 113.653C96.1535 113.18 95.968 112.882 95.6865 112.758C95.4166 112.632 95.0324 112.636 94.534 112.769L94.4362 112.404C94.6974 112.359 95.0482 112.277 95.4887 112.159C95.7901 112.079 96.0145 112.012 96.1621 111.96L97.1833 111.668C97.6469 111.544 98.1484 111.422 98.6878 111.302C99.1345 111.207 99.4622 111.132 99.6708 111.076C99.949 111.001 100.661 110.786 101.808 110.429L101.906 110.794ZM107.21 108.702C108.635 108.32 109.838 108.401 110.816 108.947C111.791 109.481 112.504 110.588 112.955 112.268C113.405 113.949 113.341 115.265 112.763 116.214C112.186 117.164 111.184 117.83 109.758 118.212C108.332 118.594 107.132 118.518 106.156 117.985C105.181 117.451 104.468 116.344 104.018 114.663C103.568 112.982 103.631 111.667 104.209 110.717C104.784 109.756 105.784 109.084 107.21 108.702ZM107.303 109.05C106.932 109.149 106.734 109.593 106.71 110.383C106.685 111.172 106.872 112.308 107.269 113.792C107.667 115.276 108.073 116.353 108.489 117.024C108.902 117.684 109.294 117.964 109.665 117.865C110.036 117.765 110.235 117.327 110.263 116.549C110.287 115.76 110.101 114.623 109.703 113.14C109.306 111.656 108.899 110.579 108.483 109.907C108.067 109.236 107.674 108.95 107.303 109.05ZM123.411 105.032C123.052 105.128 122.821 105.289 122.72 105.515C122.628 105.726 122.645 106.069 122.773 106.544L124.319 112.317C124.447 112.792 124.605 113.104 124.794 113.252C124.991 113.385 125.269 113.404 125.629 113.308L125.726 113.673C124.462 113.962 123.645 114.156 123.274 114.255C122.879 114.361 122.063 114.605 120.823 114.987L120.725 114.621C121.027 114.541 121.212 114.398 121.282 114.193C121.348 113.976 121.317 113.631 121.19 113.155L120.426 110.304L117.974 110.961L118.738 113.812C118.866 114.287 119.012 114.602 119.178 114.757C119.34 114.899 119.572 114.93 119.874 114.85L119.971 115.215C118.8 115.479 118.029 115.661 117.658 115.76C117.264 115.866 116.4 116.122 115.068 116.529L114.97 116.163C115.33 116.067 115.556 115.913 115.648 115.702C115.749 115.476 115.736 115.126 115.609 114.651L114.062 108.878C113.935 108.403 113.772 108.099 113.575 107.965C113.386 107.817 113.112 107.791 112.753 107.887L112.655 107.522C113.919 107.233 114.737 107.039 115.108 106.94C115.502 106.834 116.319 106.59 117.558 106.209L117.656 106.574C117.355 106.654 117.171 106.803 117.105 107.02C117.035 107.224 117.064 107.565 117.192 108.04L117.881 110.613L120.333 109.956L119.643 107.383C119.516 106.908 119.371 106.599 119.208 106.456C119.043 106.301 118.809 106.265 118.508 106.345L118.41 105.98C119.582 105.716 120.353 105.534 120.724 105.435C121.118 105.329 121.981 105.073 123.313 104.666L123.411 105.032ZM134.804 101.979C134.445 102.075 134.214 102.236 134.114 102.462C134.021 102.673 134.038 103.016 134.166 103.492L135.712 109.264C135.84 109.739 135.998 110.051 136.187 110.199C136.384 110.333 136.662 110.351 137.022 110.255L137.119 110.62C135.855 110.909 135.038 111.103 134.667 111.203C134.273 111.308 133.456 111.552 132.216 111.934L132.119 111.569C132.42 111.488 132.605 111.345 132.675 111.14C132.741 110.924 132.71 110.578 132.583 110.103L131.819 107.251L129.367 107.908L130.131 110.759C130.259 111.235 130.405 111.549 130.571 111.704C130.733 111.847 130.965 111.878 131.267 111.797L131.364 112.162C130.193 112.426 129.422 112.608 129.051 112.707C128.657 112.813 127.793 113.069 126.461 113.476L126.364 113.111C126.723 113.014 126.949 112.861 127.041 112.65C127.142 112.424 127.129 112.073 127.002 111.598L125.455 105.826C125.328 105.35 125.165 105.046 124.968 104.913C124.779 104.764 124.505 104.738 124.146 104.835L124.048 104.47C125.312 104.18 126.13 103.986 126.501 103.887C126.895 103.781 127.712 103.538 128.951 103.156L129.049 103.521C128.748 103.602 128.564 103.75 128.498 103.967C128.428 104.172 128.457 104.512 128.585 104.987L129.274 107.56L131.726 106.903L131.036 104.33C130.909 103.855 130.764 103.546 130.601 103.403C130.436 103.249 130.202 103.212 129.901 103.293L129.803 102.927C130.975 102.663 131.746 102.481 132.117 102.382C132.511 102.276 133.374 102.02 134.706 101.614L134.804 101.979ZM141.72 103.778C143.134 103.399 144.263 103.345 145.106 103.616C145.946 103.876 146.463 104.371 146.659 105.101C146.786 105.576 146.749 106.064 146.548 106.566C146.347 107.067 145.94 107.542 145.328 107.992C144.715 108.442 143.876 108.81 142.81 109.095C142.601 109.151 142.25 109.233 141.757 109.34C141.194 109.466 140.728 109.579 140.357 109.678C140.009 109.771 139.215 110.009 137.976 110.39L137.878 110.025C138.18 109.945 138.365 109.802 138.434 109.597C138.501 109.38 138.47 109.034 138.343 108.559L136.796 102.787C136.669 102.312 136.524 102.003 136.361 101.86C136.196 101.705 135.962 101.669 135.661 101.749L135.563 101.384C136.734 101.12 137.511 100.937 137.894 100.834C138.276 100.732 139.134 100.477 140.466 100.07L140.564 100.436C140.204 100.532 139.974 100.693 139.873 100.919C139.781 101.13 139.798 101.473 139.925 101.948L140.508 104.122L141.72 103.778ZM150.109 97.8779C149.75 97.9742 149.52 98.1352 149.419 98.361C149.326 98.5722 149.343 98.9154 149.471 99.3906L151.017 105.163C151.145 105.638 151.303 105.95 151.492 106.098C151.689 106.232 151.967 106.25 152.327 106.154L152.424 106.519C151.067 106.833 150.192 107.043 149.798 107.148C149.404 107.254 148.587 107.498 147.347 107.879L147.25 107.514C147.609 107.418 147.835 107.264 147.927 107.053C148.028 106.827 148.015 106.477 147.888 106.002L146.341 100.229C146.214 99.7539 146.052 99.4496 145.854 99.3161C145.665 99.1679 145.391 99.1419 145.032 99.2382L144.934 98.8731C146.291 98.5592 147.178 98.3463 147.596 98.2345C147.967 98.1351 148.772 97.8945 150.011 97.5128L150.109 97.8779ZM142.468 108.795C143.558 108.503 143.905 107.621 143.511 106.149C143.29 105.326 142.96 104.788 142.519 104.533C142.09 104.275 141.469 104.255 140.658 104.473L140.606 104.487L141.635 108.329C141.71 108.607 141.799 108.776 141.901 108.836C142.001 108.883 142.19 108.87 142.468 108.795ZM158.135 103.219C158.981 102.992 159.578 102.416 159.926 101.49L160.25 101.515C160.212 102.395 159.964 103.207 159.505 103.951C159.057 104.692 158.358 105.19 157.408 105.445C156.191 105.771 155.116 105.655 154.184 105.097C153.252 104.539 152.564 103.432 152.12 101.774C151.694 100.186 151.782 98.8894 152.382 97.8838C152.991 96.8635 153.967 96.1732 155.312 95.8129C157.502 95.2259 158.946 96.2306 159.641 98.8271L155.156 100.029C155.181 100.171 155.231 100.381 155.306 100.66C155.604 101.772 156.008 102.515 156.518 102.888C157.039 103.257 157.578 103.368 158.135 103.219ZM155.297 96.2455C154.648 96.4194 154.548 97.5767 154.998 99.7173L157.014 99.1769C156.778 98.2465 156.505 97.5059 156.195 96.9551C155.898 96.4013 155.599 96.1647 155.297 96.2455ZM91.3723 146.308C91.6015 146.607 91.7869 146.812 91.9285 146.923C92.0785 147.02 92.2741 147.054 92.5153 147.027L92.6131 147.392C92.1449 147.592 91.6906 147.751 91.2501 147.869C90.404 148.096 89.7276 148.122 89.2211 147.947C88.7115 147.76 88.2723 147.35 87.9036 146.716C87.8734 146.649 87.7774 146.476 87.6155 146.197C87.4621 145.902 87.277 145.629 87.0603 145.377C86.8551 145.121 86.6408 144.924 86.4172 144.785C86.0583 144.558 85.6554 144.492 85.2088 144.587L85.9728 147.438C86.1001 147.914 86.2466 148.228 86.4122 148.383C86.5747 148.526 86.8067 148.557 87.108 148.476L87.2059 148.841C85.9416 149.13 85.1298 149.323 84.7705 149.419C84.388 149.521 83.6234 149.751 82.4767 150.108L82.3789 149.743C82.6802 149.662 82.8656 149.519 82.9349 149.314C83.0011 149.098 82.9705 148.752 82.8432 148.277L82.0745 145.408C81.6171 145.555 81.297 145.821 81.1143 146.206C80.8413 146.763 80.734 147.569 80.7925 148.621C80.8366 149.342 80.6615 149.917 80.267 150.346C79.881 150.76 79.2765 151.077 78.4535 151.298C78.0247 151.413 77.5575 151.501 77.052 151.562L76.9542 151.197C77.1767 151.1 77.323 150.973 77.3932 150.818C77.4718 150.648 77.5357 150.376 77.5847 150.003C77.623 149.682 77.6553 149.269 77.6818 148.765C77.7122 148.322 77.7458 147.984 77.7826 147.751C77.8163 147.506 77.8837 147.27 77.9847 147.044C78.3563 146.299 79.1044 145.775 80.2287 145.474C80.5301 145.393 80.8129 145.336 81.0772 145.303C80.7734 145.235 80.5193 145.098 80.315 144.892C80.1075 144.674 79.8749 144.339 79.6169 143.886L79.3554 143.397C79.0944 142.933 78.8864 142.597 78.7316 142.39C78.5767 142.183 78.3895 142.041 78.1699 141.963C77.9619 141.882 77.6809 141.877 77.3269 141.947C77.7244 142.039 78.0399 142.197 78.2736 142.42C78.5073 142.643 78.663 142.9 78.7407 143.189C78.8649 143.653 78.7784 144.049 78.4812 144.377C78.1956 144.702 77.8441 144.92 77.4269 145.032C76.9748 145.153 76.5666 145.114 76.2023 144.913C75.8349 144.701 75.5844 144.346 75.4508 143.847C75.3142 143.337 75.3678 142.888 75.6116 142.5C75.8669 142.108 76.3308 141.822 77.0031 141.642C77.4899 141.512 77.8841 141.499 78.1857 141.605C78.4989 141.707 78.7612 141.898 78.9725 142.177C79.1955 142.452 79.4766 142.899 79.8159 143.516C80.077 143.98 80.2865 144.322 80.4444 144.54C80.6139 144.756 80.8174 144.913 81.0549 145.01C81.2923 145.108 81.6042 145.137 81.9907 145.095L81.2965 142.504C81.1692 142.029 81.0069 141.725 80.8096 141.591C80.6208 141.443 80.3467 141.417 79.9874 141.514L79.8896 141.148C81.2466 140.834 82.1279 140.623 82.5336 140.514C82.9161 140.412 83.7271 140.17 84.9665 139.788L85.0643 140.153C84.705 140.249 84.4748 140.411 84.3739 140.636C84.2814 140.847 84.2988 141.191 84.4261 141.666L85.1156 144.239C85.4509 144.1 85.6927 143.935 85.8408 143.747C85.9975 143.543 86.0954 143.306 86.1345 143.034C86.1821 142.748 86.2029 142.339 86.1968 141.806C86.182 141.102 86.1965 140.577 86.2401 140.229C86.2954 139.879 86.4272 139.583 86.6356 139.341C86.8556 139.096 87.209 138.908 87.6959 138.777C88.3682 138.597 88.9069 138.614 89.3122 138.829C89.7291 139.04 90.0059 139.401 90.1426 139.911C90.2761 140.409 90.2368 140.842 90.0247 141.209C89.8095 141.565 89.4758 141.804 89.0238 141.925C88.6065 142.037 88.1871 142.025 87.7657 141.889C87.3558 141.751 87.0888 141.449 86.9646 140.986C86.8869 140.696 86.8935 140.396 86.9844 140.086C87.0752 139.776 87.2696 139.482 87.5677 139.203C87.2262 139.319 86.9813 139.472 86.8331 139.661C86.6849 139.849 86.5971 140.078 86.5696 140.346C86.5421 140.614 86.5329 141.021 86.542 141.565L86.5542 142.027C86.5571 142.548 86.5232 142.955 86.4525 143.247C86.3786 143.528 86.2328 143.772 86.015 143.979C86.2839 143.87 86.569 143.775 86.8704 143.694C87.9716 143.399 88.8637 143.483 89.5468 143.946C89.7588 144.088 89.9422 144.263 90.097 144.47C90.2635 144.674 90.4632 144.955 90.6963 145.315C90.9325 145.687 91.1579 146.018 91.3723 146.308ZM95.4299 146.768C94.6881 146.967 94.0731 146.92 93.585 146.628C93.1054 146.322 92.7848 145.868 92.6233 145.265C92.4835 144.743 92.5019 144.279 92.6785 143.871C92.8635 143.449 93.1166 143.095 93.4378 142.81C93.759 142.526 94.1888 142.206 94.7272 141.85C95.2972 141.474 95.7038 141.16 95.947 140.908C96.1902 140.657 96.2698 140.375 96.186 140.062L95.7713 138.514C95.672 138.143 95.4907 137.838 95.2276 137.598C94.9645 137.358 94.6069 137.298 94.1549 137.419C93.7955 137.515 93.4974 137.701 93.2604 137.976C93.6918 138.009 94.0375 138.14 94.2975 138.369C94.5659 138.582 94.7452 138.857 94.8353 139.194C94.9564 139.646 94.892 140.054 94.642 140.419C94.4004 140.77 94.0537 141.006 93.6016 141.127C93.1495 141.248 92.7529 141.205 92.4118 140.998C92.0792 140.777 91.8538 140.446 91.7358 140.005C91.6426 139.658 91.6488 139.333 91.7544 139.031C91.8599 138.73 92.0702 138.425 92.3852 138.117C92.9349 137.572 93.8125 137.138 95.018 136.815C95.6555 136.644 96.2231 136.561 96.7209 136.564C97.2156 136.556 97.6703 136.676 98.0849 136.925C98.382 137.106 98.615 137.373 98.7839 137.726C98.9613 138.063 99.137 138.556 99.3109 139.206L100.559 143.865C100.637 144.155 100.707 144.347 100.77 144.442C100.844 144.534 100.934 144.566 101.038 144.538C101.119 144.517 101.2 144.47 101.28 144.399C101.357 144.316 101.427 144.229 101.49 144.138L101.743 144.387C101.359 144.949 100.704 145.355 99.7766 145.603C99.0811 145.789 98.5632 145.804 98.2229 145.647C97.8795 145.478 97.6419 145.194 97.51 144.794C97.2012 145.821 96.5079 146.479 95.4299 146.768ZM96.7959 144.911C97.0393 144.846 97.2273 144.69 97.36 144.443L96.377 140.774C96.3192 140.976 96.1886 141.253 95.9849 141.606C95.7527 141.991 95.5943 142.351 95.5097 142.684C95.4219 143.006 95.4433 143.41 95.5737 143.897C95.7973 144.731 96.2047 145.069 96.7959 144.911ZM110.316 133.387C110.015 133.468 109.83 133.61 109.76 133.815C109.691 134.02 109.722 134.366 109.852 134.853L111.399 140.625C111.526 141.101 111.673 141.415 111.838 141.57C112.001 141.713 112.233 141.744 112.534 141.663L112.632 142.028C111.46 142.292 110.683 142.476 110.301 142.578C109.918 142.681 109.061 142.935 107.729 143.342L107.631 142.977C107.99 142.88 108.216 142.727 108.309 142.516C108.41 142.29 108.397 141.939 108.269 141.464L106.722 135.692C106.595 135.216 106.45 134.907 106.288 134.765C106.122 134.61 105.889 134.573 105.587 134.654L105.431 134.696C105.211 134.755 105.065 134.838 104.994 134.943C104.92 135.038 104.884 135.159 104.887 135.308C104.901 135.453 104.945 135.733 105.019 136.148C105.27 137.596 105.446 138.785 105.546 139.715C105.654 140.63 105.668 141.471 105.588 142.238C105.509 142.918 105.342 143.453 105.087 143.845C104.828 144.225 104.473 144.475 104.021 144.596C103.523 144.73 103.027 144.689 102.534 144.473C102.042 144.257 101.71 143.83 101.539 143.193C101.396 142.66 101.434 142.196 101.651 141.802C101.88 141.406 102.244 141.14 102.743 141.007C103.229 140.876 103.641 140.928 103.976 141.161C104.321 141.379 104.55 141.703 104.665 142.132C104.876 142.92 104.571 143.635 103.749 144.278C103.825 144.282 103.915 144.271 104.02 144.243C104.68 144.066 105.079 143.399 105.217 142.244C105.304 141.501 105.288 140.629 105.169 139.63C105.059 138.616 104.887 137.488 104.653 136.246C104.564 135.773 104.379 135.475 104.097 135.352C103.827 135.225 103.443 135.229 102.944 135.362L102.847 134.997C103.108 134.952 103.459 134.87 103.899 134.752C104.201 134.672 104.425 134.605 104.573 134.553L105.594 134.261C106.057 134.137 106.559 134.015 107.098 133.895C107.545 133.8 107.873 133.725 108.081 133.669C108.359 133.594 109.072 133.379 110.219 133.022L110.316 133.387ZM120.697 129.935C122.065 129.568 123.221 129.662 124.164 130.217C125.117 130.757 125.818 131.867 126.268 133.548C126.718 135.228 126.666 136.541 126.112 137.484C125.569 138.425 124.613 139.079 123.245 139.445C121.901 139.805 120.763 139.731 119.832 139.223C118.897 138.703 118.198 137.648 117.735 136.058L116.414 136.412L117.131 139.089C117.258 139.565 117.405 139.879 117.57 140.034C117.733 140.177 117.965 140.208 118.266 140.127L118.364 140.492C117.193 140.756 116.421 140.938 116.05 141.038C115.656 141.143 114.793 141.399 113.461 141.806L113.363 141.441C113.723 141.344 113.948 141.191 114.041 140.98C114.142 140.754 114.129 140.403 114.001 139.928L112.455 134.156C112.327 133.68 112.165 133.376 111.968 133.243C111.779 133.094 111.505 133.068 111.146 133.165L111.048 132.8C112.312 132.511 113.13 132.316 113.501 132.217C113.895 132.111 114.711 131.868 115.951 131.486L116.049 131.851C115.747 131.932 115.564 132.08 115.497 132.297C115.428 132.502 115.457 132.842 115.584 133.317L116.32 136.064L117.642 135.71C117.227 134.07 117.294 132.791 117.844 131.873C118.39 130.944 119.341 130.298 120.697 129.935ZM123.152 139.097C123.477 139.01 123.645 138.617 123.656 137.919C123.665 137.208 123.452 136.042 123.017 134.419C122.582 132.796 122.183 131.679 121.821 131.068C121.458 130.457 121.115 130.195 120.79 130.282C120.466 130.369 120.299 130.768 120.291 131.478C120.282 132.189 120.496 133.355 120.93 134.978C121.365 136.601 121.764 137.718 122.126 138.329C122.486 138.928 122.828 139.184 123.152 139.097ZM130.058 127.426C131.066 127.156 131.93 127.111 132.649 127.291C133.368 127.471 133.82 127.903 134.003 128.587C134.36 129.92 133.28 131.06 130.764 132.008C132.155 131.635 133.274 131.522 134.12 131.667C134.978 131.81 135.516 132.287 135.734 133.099C135.96 133.945 135.725 134.735 135.027 135.468C134.34 136.199 133.25 136.764 131.754 137.165C130.665 137.457 129.795 137.504 129.146 137.305C128.47 137.101 128.053 136.703 127.894 136.112C127.783 135.695 127.83 135.316 128.037 134.975C128.244 134.633 128.602 134.395 129.112 134.258C129.599 134.127 130.034 134.154 130.419 134.336C130.8 134.508 131.047 134.802 131.158 135.219C131.255 135.578 131.215 135.918 131.04 136.238C130.877 136.555 130.629 136.814 130.298 137.015C130.563 137.031 130.829 137.003 131.096 136.932C131.733 136.761 132.193 136.439 132.477 135.965C132.768 135.477 132.819 134.88 132.63 134.173C132.487 133.639 132.236 133.191 131.878 132.827C131.531 132.461 131.081 132.264 130.528 132.239C130.29 132.464 130.067 132.605 129.858 132.66C129.603 132.729 129.449 132.664 129.396 132.467C129.347 132.282 129.455 132.153 129.722 132.082C129.884 132.039 130.137 132.008 130.48 131.991C130.78 131.674 130.961 131.328 131.021 130.951C131.093 130.571 131.069 130.156 130.948 129.704C130.796 129.136 130.568 128.749 130.265 128.545C129.97 128.326 129.596 128.277 129.144 128.398C128.495 128.572 128.064 128.955 127.849 129.546C127.632 130.126 127.594 130.82 127.736 131.626L127.336 131.734C126.926 130.204 126.611 129.145 126.392 128.558L126.792 128.451C126.898 128.708 126.997 128.892 127.089 129.004C127.178 129.105 127.275 129.141 127.379 129.113C127.484 129.085 127.654 128.934 127.891 128.659C128.168 128.349 128.474 128.099 128.809 127.91C129.143 127.721 129.56 127.56 130.058 127.426ZM145.837 123.869C145.478 123.965 145.248 124.126 145.147 124.352C145.054 124.563 145.072 124.907 145.199 125.382L146.746 131.154C146.873 131.629 147.031 131.941 147.22 132.089C147.417 132.223 147.696 132.241 148.055 132.145L148.153 132.51C146.889 132.799 146.071 132.994 145.7 133.093C145.306 133.199 144.489 133.442 143.25 133.824L143.152 133.459C143.453 133.378 143.639 133.235 143.708 133.03C143.774 132.814 143.744 132.468 143.616 131.993L142.214 126.759L140.892 133.021C141.014 133.386 141.152 133.622 141.305 133.73C141.458 133.838 141.674 133.855 141.952 133.78L142.05 134.145C140.879 134.41 140.107 134.591 139.736 134.691C139.342 134.796 138.479 135.053 137.147 135.459L137.049 135.094C137.409 134.998 137.634 134.844 137.727 134.633C137.828 134.407 137.815 134.057 137.687 133.581L136.141 127.809C136.013 127.334 135.851 127.029 135.654 126.896C135.465 126.748 135.191 126.722 134.832 126.818L134.734 126.453C135.998 126.164 136.816 125.97 137.187 125.87C137.581 125.765 138.397 125.521 139.637 125.139L139.735 125.504C139.433 125.585 139.25 125.734 139.183 125.95C139.114 126.155 139.143 126.495 139.27 126.97L140.687 132.256L142.018 126.029C141.898 125.627 141.754 125.367 141.586 125.25C141.43 125.131 141.213 125.108 140.934 125.183L140.837 124.818C142.008 124.554 142.779 124.372 143.15 124.272C143.544 124.167 144.407 123.911 145.74 123.504L145.837 123.869Z" fill="black"/>
</g>
<defs>
<filter id="filter0_d" x="7.29272" y="19.1917" width="194.488" height="199.152" filterUnits="userSpaceOnUse" color-interpolation-filters="sRGB">
<feFlood flood-opacity="0" result="BackgroundImageFix"/>
<feColorMatrix in="SourceAlpha" type="matrix" values="0 0 0 0 0 0 0 0 0 0 0 0 0 0 0 0 0 0 127 0"/>
<feOffset dy="12"/>
<feGaussianBlur stdDeviation="7"/>
<feColorMatrix type="matrix" values="0 0 0 0 0 0 0 0 0 0 0 0 0 0 0 0 0 0 0.37 0"/>
<feBlend mode="normal" in2="BackgroundImageFix" result="effect1_dropShadow"/>
<feBlend mode="normal" in="SourceGraphic" in2="effect1_dropShadow" result="shape"/>
</filter>
<filter id="filter1_d" x="17.2927" y="20.1917" width="167.498" height="167.7" filterUnits="userSpaceOnUse" color-interpolation-filters="sRGB">
<feFlood flood-opacity="0" result="BackgroundImageFix"/>
<feColorMatrix in="SourceAlpha" type="matrix" values="0 0 0 0 0 0 0 0 0 0 0 0 0 0 0 0 0 0 127 0"/>
<feOffset dy="3"/>
<feGaussianBlur stdDeviation="2"/>
<feColorMatrix type="matrix" values="0 0 0 0 0 0 0 0 0 0 0 0 0 0 0 0 0 0 0.2 0"/>
<feBlend mode="normal" in2="BackgroundImageFix" result="effect1_dropShadow"/>
<feBlend mode="normal" in="SourceGraphic" in2="effect1_dropShadow" result="shape"/>
</filter>
<linearGradient id="paint0_linear" x1="75.5074" y1="168.052" x2="49.0376" y2="175.144" gradientUnits="userSpaceOnUse">
<stop stop-color="#EED184"/>
<stop offset="1" stop-color="#EF6B2A"/>
</linearGradient>
<linearGradient id="paint1_linear" x1="158.159" y1="145.905" x2="184.629" y2="138.813" gradientUnits="userSpaceOnUse">
<stop stop-color="#EED184"/>
<stop offset="1" stop-color="#EF6B2A"/>
</linearGradient>
<linearGradient id="paint2_linear" x1="137.134" y1="90.8528" x2="29.4335" y2="119.711" gradientUnits="userSpaceOnUse">
<stop stop-color="#F3CC64"/>
<stop offset="1" stop-color="#FF6012"/>
</linearGradient>
<linearGradient id="paint3_linear" x1="40.8445" y1="119.723" x2="169.541" y2="119.723" gradientUnits="userSpaceOnUse">
<stop offset="0.168034" stop-color="#FFEEBE"/>
<stop offset="0.58224" stop-color="#FFF9EA"/>
<stop offset="1" stop-color="white"/>
</linearGradient>
<linearGradient id="paint4_linear" x1="132.178" y1="100.626" x2="39.5991" y2="100.626" gradientUnits="userSpaceOnUse">
<stop stop-color="#F3CC64"/>
<stop offset="1" stop-color="#ED6E2E"/>
</linearGradient>
</defs>
</svg>
