<svg width="26" height="15" viewBox="0 0 26 15" fill="none" xmlns="http://www.w3.org/2000/svg">
<path d="M25.7585 13.4589C25.7585 13.3562 25.655 13.3562 25.655 13.2534C25.2413 12.4315 24.3102 11.4041 23.0689 10.274C22.4482 9.76028 22.1378 9.34931 21.9309 9.14384C21.6206 8.73288 21.6206 8.42467 21.724 8.01371C21.8275 7.70549 22.2413 7.19178 22.9654 6.26712C23.3792 5.75342 23.5861 5.44521 23.8964 5.13699C25.4481 3.08219 26.1723 1.74657 25.9654 1.13013L25.862 1.0274C25.7585 0.924658 25.655 0.821921 25.4481 0.821921C25.2412 0.719182 24.9309 0.719182 24.6206 0.821921H20.6896C20.5861 0.821921 20.5861 0.821921 20.3792 0.821921C20.2758 0.821921 20.1723 0.821921 20.1723 0.821921H20.0689H19.9654L19.862 0.924652C19.7585 1.02739 19.7585 1.02739 19.7585 1.13013C19.3447 2.26027 18.8275 3.18492 18.3102 4.21232C17.9999 4.72602 17.6896 5.23973 17.3792 5.65069C17.0689 6.06165 16.862 6.36986 16.6551 6.57534C16.4482 6.78082 16.2413 6.88356 16.1378 7.08904C16.0344 7.19178 15.8275 7.29452 15.8275 7.19178C15.7241 7.19178 15.6206 7.19178 15.6206 7.08904C15.5172 6.9863 15.4137 6.88356 15.3103 6.78082C15.2068 6.67808 15.2068 6.4726 15.1034 6.26712C15.1034 6.06164 15.1034 5.85616 15.1034 5.75342C15.1034 5.65068 15.1034 5.34247 15.1034 5.13699C15.1034 4.82877 15.1034 4.62328 15.1034 4.52054C15.1034 4.21233 15.1034 3.80138 15.1034 3.39042C15.1034 2.97946 15.1034 2.67123 15.1034 2.46575C15.1034 2.26027 15.1034 1.95205 15.1034 1.74657C15.1034 1.43835 15.1034 1.23287 15.1034 1.13013C15.1034 1.02739 14.9999 0.821915 14.9999 0.719175C14.8965 0.616436 14.793 0.513693 14.6896 0.410953C14.5861 0.308213 14.3792 0.308216 14.2758 0.205476C13.7586 0.102737 13.1379 0 12.4137 0C10.7586 0 9.62065 0.102743 9.20686 0.308223C8.99996 0.410962 8.79307 0.513696 8.68962 0.719175C8.48272 0.924655 8.48272 1.0274 8.58617 1.0274C9.1034 1.13014 9.5172 1.33561 9.7241 1.64383L9.82755 1.84932C9.931 1.95206 9.93098 2.15753 10.0344 2.46575C10.1379 2.77397 10.1379 3.08219 10.1379 3.49315C10.1379 4.10959 10.1379 4.72603 10.1379 5.13699C10.1379 5.65069 10.0344 5.9589 10.0344 6.26712C10.0344 6.57534 9.931 6.78082 9.82755 6.88356C9.7241 7.08904 9.72409 7.19178 9.62064 7.19178C9.62064 7.19178 9.62064 7.29452 9.51719 7.29452C9.41374 7.29452 9.3103 7.39726 9.1034 7.39726C8.99996 7.39726 8.79307 7.29452 8.68962 7.19178C8.48272 7.08905 8.27583 6.88357 8.17238 6.67809C7.96549 6.47261 7.75858 6.16438 7.55169 5.75342C7.34479 5.34246 7.03444 4.93151 6.82754 4.31507L6.62067 3.90411C6.51722 3.69864 6.31032 3.28767 6.10343 2.77397C5.89653 2.26027 5.68963 1.84932 5.48273 1.33562C5.37929 1.13014 5.27585 1.02739 5.1724 0.924652H5.06895C5.06895 0.924652 4.96549 0.821921 4.86204 0.821921C4.75859 0.821921 4.65516 0.719175 4.55171 0.719175H0.827585C0.413794 0.719175 0.206902 0.821912 0.103454 0.924652L0 1.0274C0 1.0274 0 1.13013 0 1.23287C0 1.33561 6.31064e-06 1.43835 0.103454 1.64383C0.620693 2.8767 1.24138 4.10959 1.86206 5.34247C2.48275 6.4726 3.10344 7.5 3.51723 8.21918C4.03447 8.93836 4.44826 9.65754 4.9655 10.274C5.48273 10.8904 5.79307 11.3014 5.89652 11.5069C6.10341 11.7123 6.20686 11.8151 6.3103 11.9178L6.62067 12.226C6.82756 12.4315 7.1379 12.7397 7.55169 13.0479C7.96548 13.3562 8.48271 13.6644 8.99995 13.9726C9.51719 14.2808 10.1379 14.4863 10.7586 14.6918C11.4827 14.8973 12.1034 15 12.7241 14.8973H14.2758C14.5861 14.8973 14.793 14.7945 14.9999 14.589L15.1034 14.4863C15.1034 14.3836 15.2068 14.3836 15.2068 14.2808C15.2068 14.1781 15.2068 14.0754 15.2068 13.8699C15.2068 13.4589 15.2068 13.1507 15.3103 12.8425C15.4137 12.5343 15.4137 12.3288 15.5172 12.1233C15.6206 11.9178 15.7241 11.8151 15.8275 11.7123C15.931 11.6096 16.0344 11.5069 16.0344 11.5069H16.1378C16.3447 11.4041 16.6551 11.5069 16.862 11.7123C17.1723 11.9178 17.4827 12.226 17.6896 12.5343C17.8965 12.8425 18.2068 13.1507 18.6206 13.5616C19.0344 13.9726 19.3447 14.2808 19.5516 14.3836L19.862 14.589C20.0689 14.6918 20.2758 14.7945 20.5861 14.8973C20.8965 15 21.1033 15 21.3102 15L24.8275 14.8973C25.1378 14.8973 25.4481 14.7945 25.655 14.6918C25.8619 14.5891 25.9654 14.4863 25.9654 14.2808C25.9654 14.1781 25.9654 13.9726 25.9654 13.8699C25.7585 13.6644 25.7585 13.5616 25.7585 13.4589Z" fill="white"/>
</svg>
