<svg width="18" height="32" viewBox="0 0 18 32" fill="none" xmlns="http://www.w3.org/2000/svg">
<path d="M9.0625 0C6.58333 0 4.45312 0.875 2.67188 2.625C0.890625 4.375 0 6.47917 0 8.9375V23.0625C0 25.5208 0.890625 27.625 2.67188 29.375C4.45312 31.125 6.58333 32 9.0625 32C11.5208 32 13.625 31.125 15.375 29.375C17.125 27.625 18 25.5208 18 23.0625V8.9375C18 6.47917 17.125 4.375 15.375 2.625C13.625 0.875 11.5208 0 9.0625 0ZM16 23.0625C16 24.9792 15.3229 26.6146 13.9688 27.9688C12.6146 29.3229 10.9792 30 9.0625 30C7.125 30 5.46354 29.3177 4.07812 27.9531C2.69271 26.5885 2 24.9583 2 23.0625V8.9375C2 7.04167 2.69271 5.41146 4.07812 4.04688C5.46354 2.68229 7.125 2 9.0625 2C10.9792 2 12.6146 2.67708 13.9688 4.03125C15.3229 5.38542 16 7.02083 16 8.9375V23.0625ZM9.01562 6C8.73438 6 8.49479 6.09896 8.29688 6.29688C8.09896 6.49479 8 6.72917 8 7V12C8 12.2708 8.09896 12.5052 8.29688 12.7031C8.49479 12.901 8.73438 13 9.01562 13C9.29688 13 9.53125 12.901 9.71875 12.7031C9.90625 12.5052 10 12.2708 10 12V7C10 6.72917 9.90625 6.49479 9.71875 6.29688C9.53125 6.09896 9.29688 6 9.01562 6Z" fill="white"/>
</svg>
