<svg width="30" height="151" viewBox="0 0 30 151" fill="none" xmlns="http://www.w3.org/2000/svg">
<path d="M28.955 72.9936L29.955 72.985L28.955 72.9936ZM0.0137498 3.54153C-0.0806154 2.99738 0.28402 2.47974 0.828183 2.38538L9.69584 0.847623C10.24 0.753248 10.7576 1.11788 10.852 1.66205C10.9464 2.20622 10.5817 2.72384 10.0376 2.8182L2.1552 4.1851L3.5221 12.0675C3.61646 12.6116 3.25183 13.1293 2.70767 13.2236C2.1635 13.318 1.64587 12.9534 1.55151 12.4092L0.0137498 3.54153ZM2.24625 149.719C13.1846 136.515 19.6603 125.053 23.3807 113.069C27.1043 101.075 28.0891 88.4922 27.9551 73.0023L29.955 72.985C30.0897 88.5567 29.1042 101.379 25.2908 113.662C21.4743 125.955 14.8463 137.644 3.78641 150.995L2.24625 149.719ZM27.9551 73.0023C27.6876 42.0785 18.6044 16.9956 0.423154 4.18819L1.57494 2.55315C20.5254 15.9024 29.6851 41.7853 29.955 72.985L27.9551 73.0023Z" fill="white"/>
</svg>
