<svg width="58" height="323" viewBox="0 0 58 323" fill="none" xmlns="http://www.w3.org/2000/svg">
<path d="M56.997 157.387L57.997 157.391L56.997 157.387ZM0.567024 4.86124C0.367519 4.34625 0.623276 3.76703 1.13827 3.56754L9.53054 0.316437C10.0455 0.116913 10.6248 0.372681 10.8243 0.887665C11.0238 1.40265 10.768 1.98187 10.253 2.18137L2.79321 5.07123L5.68308 12.531C5.88258 13.0461 5.62683 13.6252 5.11184 13.8248C4.59684 14.0243 4.01763 13.7685 3.81813 13.2535L0.567024 4.86124ZM0.6633 320.952C19.5588 292.131 33.3148 268.245 42.3885 243.07C51.4569 217.91 55.8641 191.417 55.997 157.383L57.997 157.391C57.8633 191.609 53.4297 218.335 44.27 243.748C35.1155 269.147 21.2561 293.19 2.33587 322.048L0.6633 320.952ZM55.997 157.383C56.1299 123.33 51.8883 89.4717 42.8362 62.0369C33.7707 34.5616 19.9541 13.7419 1.09557 5.41479L1.90343 3.58521C21.5453 12.2581 35.6107 33.7553 44.7355 61.4102C53.8736 89.1057 58.1305 123.191 57.997 157.391L55.997 157.383Z" fill="white"/>
</svg>
