<svg width="43" height="263" viewBox="0 0 43 263" fill="none" xmlns="http://www.w3.org/2000/svg">
<path d="M1.00261 124.682L0.00261921 124.686L1.00261 124.682ZM42.9982 2.49048C43.031 1.93918 42.6106 1.46567 42.0593 1.43292L33.0752 0.898987C32.5239 0.866211 32.0504 1.28659 32.0176 1.83789C31.9848 2.38922 32.4052 2.8627 32.9565 2.89548L40.9424 3.37006L40.4678 11.356C40.4351 11.9073 40.8554 12.3808 41.4067 12.4135C41.9581 12.4463 42.4315 12.0259 42.4643 11.4746L42.9982 2.49048ZM42.8207 261.836C26.7196 238.695 16.5827 218.097 10.4357 196.463C4.28678 174.822 2.11622 152.097 2.0026 124.677L0.00261921 124.686C0.11664 152.202 2.29423 175.127 8.51181 197.009C14.7312 218.898 24.9791 239.695 41.179 262.978L42.8207 261.836ZM2.0026 124.677C1.7755 69.873 16.4156 26.4825 42.6639 3.17896L41.3361 1.68335C14.4693 25.5359 -0.225565 69.6196 0.00261921 124.686L2.0026 124.677Z" fill="white"/>
</svg>
