<svg width="138" height="277" viewBox="0 0 138 277" fill="none" xmlns="http://www.w3.org/2000/svg">
<g opacity="0.37">
<path d="M54.2833 258.325L63.2541 268.007L67.8056 253.978L58.8348 244.296L54.2833 258.325Z" fill="url(#paint0_linear)"/>
<path d="M54.2799 258.328L63.2507 268.01L48.8707 271.505L39.8999 261.823L54.2799 258.328Z" fill="url(#paint1_linear)"/>
<path d="M39.902 261.824L54.284 258.329L58.836 244.298L44.4366 247.793L39.902 261.824Z" fill="url(#paint2_linear)"/>
</g>
<g opacity="0.6">
<path d="M78.7273 38.7834L71.0771 67.463L103.166 59.2251L110.817 30.5456L78.7273 38.7834Z" fill="url(#paint3_linear)"/>
<path d="M78.679 38.7468L71.0288 67.4265L47.1803 44.3318L54.8306 15.6521L78.679 38.7468Z" fill="url(#paint4_linear)"/>
<path d="M54.8053 15.6814L78.6759 38.7989L110.795 30.5529L86.904 7.40185L54.8053 15.6814Z" fill="url(#paint5_linear)"/>
</g>
<g opacity="0.37">
<path d="M112.186 173.34L106.793 193.557L129.415 187.75L134.808 167.532L112.186 173.34Z" fill="url(#paint6_linear)"/>
<path d="M112.152 173.314L106.759 193.532L89.9473 177.251L95.3403 157.033L112.152 173.314Z" fill="url(#paint7_linear)"/>
<path d="M95.3216 157.054L112.149 173.351L134.791 167.538L117.949 151.217L95.3216 157.054Z" fill="url(#paint8_linear)"/>
</g>
<g opacity="0.6">
<path d="M22.3926 124.221L17.8119 141.394L37.0257 136.461L41.6064 119.289L22.3926 124.221Z" fill="url(#paint9_linear)"/>
<path d="M22.3635 124.2L17.7828 141.372L3.50331 127.544L8.08398 110.371L22.3635 124.2Z" fill="url(#paint10_linear)"/>
<path d="M8.06895 110.389L22.3617 124.231L41.5933 119.293L27.2883 105.431L8.06895 110.389Z" fill="url(#paint11_linear)"/>
</g>
<defs>
<linearGradient id="paint0_linear" x1="59.6571" y1="258.446" x2="77.2038" y2="227.837" gradientUnits="userSpaceOnUse">
<stop offset="0.0303" stop-color="#7C1DC9"/>
<stop offset="0.2138" stop-color="#6E41D2"/>
<stop offset="0.6184" stop-color="#4C9BE8"/>
<stop offset="1" stop-color="#2AF6FF"/>
</linearGradient>
<linearGradient id="paint1_linear" x1="38.7348" y1="283.211" x2="64.292" y2="245.337" gradientUnits="userSpaceOnUse">
<stop offset="0.0303" stop-color="#7C1DC9"/>
<stop offset="0.2138" stop-color="#6E41D2"/>
<stop offset="0.6184" stop-color="#4C9BE8"/>
<stop offset="1" stop-color="#2AF6FF"/>
</linearGradient>
<linearGradient id="paint2_linear" x1="43.526" y1="229.793" x2="51.8784" y2="258.67" gradientUnits="userSpaceOnUse">
<stop offset="0.0303" stop-color="#7C1DC9"/>
<stop offset="0.2138" stop-color="#6E41D2"/>
<stop offset="0.6184" stop-color="#4C9BE8"/>
<stop offset="1" stop-color="#2AF6FF"/>
</linearGradient>
<linearGradient id="paint3_linear" x1="84.9277" y1="49.132" x2="164.068" y2="45.8217" gradientUnits="userSpaceOnUse">
<stop offset="0.0303" stop-color="#7C1DC9"/>
<stop offset="0.2138" stop-color="#6E41D2"/>
<stop offset="0.6184" stop-color="#4C9BE8"/>
<stop offset="1" stop-color="#2AF6FF"/>
</linearGradient>
<linearGradient id="paint4_linear" x1="12.8181" y1="39.1733" x2="115.327" y2="42.3732" gradientUnits="userSpaceOnUse">
<stop offset="0.0303" stop-color="#7C1DC9"/>
<stop offset="0.2138" stop-color="#6E41D2"/>
<stop offset="0.6184" stop-color="#4C9BE8"/>
<stop offset="1" stop-color="#2AF6FF"/>
</linearGradient>
<linearGradient id="paint5_linear" x1="120.024" y1="-16.0037" x2="75.0969" y2="34.5941" gradientUnits="userSpaceOnUse">
<stop offset="0.0303" stop-color="#7C1DC9"/>
<stop offset="0.2138" stop-color="#6E41D2"/>
<stop offset="0.6184" stop-color="#4C9BE8"/>
<stop offset="1" stop-color="#2AF6FF"/>
</linearGradient>
<linearGradient id="paint6_linear" x1="116.557" y1="180.635" x2="172.347" y2="178.301" gradientUnits="userSpaceOnUse">
<stop offset="0.0303" stop-color="#7C1DC9"/>
<stop offset="0.2138" stop-color="#6E41D2"/>
<stop offset="0.6184" stop-color="#4C9BE8"/>
<stop offset="1" stop-color="#2AF6FF"/>
</linearGradient>
<linearGradient id="paint7_linear" x1="65.7238" y1="173.615" x2="137.987" y2="175.87" gradientUnits="userSpaceOnUse">
<stop offset="0.0303" stop-color="#7C1DC9"/>
<stop offset="0.2138" stop-color="#6E41D2"/>
<stop offset="0.6184" stop-color="#4C9BE8"/>
<stop offset="1" stop-color="#2AF6FF"/>
</linearGradient>
<linearGradient id="paint8_linear" x1="141.297" y1="134.718" x2="109.626" y2="170.386" gradientUnits="userSpaceOnUse">
<stop offset="0.0303" stop-color="#7C1DC9"/>
<stop offset="0.2138" stop-color="#6E41D2"/>
<stop offset="0.6184" stop-color="#4C9BE8"/>
<stop offset="1" stop-color="#2AF6FF"/>
</linearGradient>
<linearGradient id="paint9_linear" x1="26.1051" y1="130.418" x2="73.491" y2="128.436" gradientUnits="userSpaceOnUse">
<stop offset="0.0303" stop-color="#7C1DC9"/>
<stop offset="0.2138" stop-color="#6E41D2"/>
<stop offset="0.6184" stop-color="#4C9BE8"/>
<stop offset="1" stop-color="#2AF6FF"/>
</linearGradient>
<linearGradient id="paint10_linear" x1="-17.0714" y1="124.455" x2="44.3066" y2="126.371" gradientUnits="userSpaceOnUse">
<stop offset="0.0303" stop-color="#7C1DC9"/>
<stop offset="0.2138" stop-color="#6E41D2"/>
<stop offset="0.6184" stop-color="#4C9BE8"/>
<stop offset="1" stop-color="#2AF6FF"/>
</linearGradient>
<linearGradient id="paint11_linear" x1="47.1194" y1="91.4171" x2="20.2188" y2="121.713" gradientUnits="userSpaceOnUse">
<stop offset="0.0303" stop-color="#7C1DC9"/>
<stop offset="0.2138" stop-color="#6E41D2"/>
<stop offset="0.6184" stop-color="#4C9BE8"/>
<stop offset="1" stop-color="#2AF6FF"/>
</linearGradient>
</defs>
</svg>
