<svg width="629" height="351" viewBox="0 0 629 351" fill="none" xmlns="http://www.w3.org/2000/svg">
<path d="M319.992 72L377.869 136.451C393.684 154.07 401.015 174.652 399.887 198.245C399.018 221.838 389.783 241.55 372.182 257.38C354.864 272.976 334.232 280.127 310.31 278.856C286.53 277.21 266.838 267.73 251.258 250.371C235.561 232.893 228.159 212.241 229.076 188.389C230.227 164.302 239.462 144.473 256.804 128.877L319.992 72ZM318.441 132.9L286.342 161.785C277.412 169.806 272.642 179.686 272.008 191.423C270.997 203.255 274.452 213.582 282.347 222.379C290.243 231.176 300.136 235.716 312.002 235.975C323.611 236.469 333.856 232.705 342.786 224.661C351.856 216.498 356.744 206.642 357.496 195.046C358.13 183.332 354.535 173.123 346.757 164.443L318.441 132.9Z" fill="#5974B7"/>
<path d="M195.84 236.664H163.008V279H117.504V236.664H8.928V205.272L103.968 77.4H152.928L64.8 198.648H118.944V160.92H163.008V198.648H195.84V236.664Z" fill="black"/>
<path d="M625.84 236.664H593.008V279H547.504V236.664H438.928V205.272L533.968 77.4H582.928L494.8 198.648H548.944V160.92H593.008V198.648H625.84V236.664Z" fill="black"/>
</svg>
