<svg width="140" height="98" viewBox="0 0 140 98" fill="none" xmlns="http://www.w3.org/2000/svg">
<path d="M50.5292 21.5454L63.9531 36.5248C67.6211 40.6196 69.3215 45.4032 69.0599 50.8865C68.8583 56.3699 66.7163 60.9512 62.6341 64.6304C58.6173 68.255 53.832 69.917 48.2837 69.6217C42.7681 69.2391 38.2008 67.0359 34.5873 63.0013C30.9465 58.9393 29.2297 54.1393 29.4422 48.5959C29.7093 42.9977 31.8512 38.3891 35.8735 34.7645L50.5292 21.5454ZM50.1695 35.6993L42.7245 42.4127C40.6534 44.277 39.547 46.5731 39.3998 49.3011C39.1655 52.051 39.9666 54.451 41.7979 56.4956C43.6292 58.5402 45.9237 59.5954 48.6761 59.6555C51.3685 59.7703 53.7448 58.8956 55.8159 57.0259C57.9197 55.1289 59.0533 52.8382 59.2277 50.143C59.3749 47.4205 58.541 45.0478 56.737 43.0305L50.1695 35.6993Z" fill="#5974B7"/>
<path d="M26.0684 73.2024C19.1793 66.5163 15.7402 58.2339 15.7402 48.3606C15.7402 38.8208 19.212 30.7898 26.1502 24.2623C33.0938 17.7402 40.5006 14.4765 50.6653 14.4765V0H51.8153C37.7155 0 25.5506 4.76717 15.3315 14.3125C5.10685 23.8523 0 35.2016 0 48.3606C0 61.7382 5.13956 73.3062 15.4132 83.0647C25.6869 92.8287 37.8245 97.7052 51.8153 97.7052H70.515V83.2287H51.8153C41.5361 83.2342 32.9575 79.8939 26.0684 73.2024Z" fill="#5974B7"/>
<path d="M61.1569 0.00537109V14.4818H80.685V97.7105H96.4252V0.00537109H61.1569Z" fill="#5974B7"/>
<path d="M140 0.00537109V14.4818H120.477V97.7105H104.732V0.00537109H140Z" fill="#E08F4D"/>
</svg>
