<svg width="184" height="35" viewBox="0 0 184 35" fill="none" xmlns="http://www.w3.org/2000/svg">
<path d="M62.7406 18.6095C61.2859 18.6095 60.0964 18.2059 59.1701 17.3966C58.2439 16.5874 57.7798 15.4564 57.7798 14.0017C57.7798 12.5119 58.2985 11.3672 59.3339 10.5658C60.3694 9.76627 61.7773 9.36652 63.5596 9.36652C64.8505 9.36652 66.0322 9.55762 67.1047 9.93982V9.69412C67.1047 8.09512 66.1238 7.29562 64.1602 7.29562C62.8342 7.29562 61.4789 7.56862 60.0983 8.11267L59.0356 4.46032C60.89 3.69592 62.879 3.31567 65.0065 3.31567C67.5512 3.31567 69.4232 3.91432 70.6225 5.11552C71.6755 6.15097 72.2039 7.71487 72.2039 9.80527V18.2839H67.0793V16.757C65.9659 17.9914 64.5209 18.6095 62.7406 18.6095ZM64.595 15.3647C65.3575 15.3647 65.9756 15.1424 66.4495 14.6959C66.9214 14.2513 67.1593 13.6643 67.1593 12.937V12.2545C66.5587 12.001 65.8859 11.8723 65.141 11.8723C64.3961 11.8723 63.815 12.04 63.3958 12.3754C62.9785 12.7127 62.7698 13.171 62.7698 13.7521C62.7698 14.2415 62.9375 14.6335 63.2749 14.924C63.6083 15.2204 64.049 15.3647 64.595 15.3647Z" fill="white"/>
<path d="M74.8442 18.2813V3.53149H80.0234V9.01099L84.0307 3.53149H89.8924L84.8477 9.5843L90.0269 18.2813H84.329L81.521 13.5642L80.0215 15.3641V18.2813H74.8442Z" fill="white"/>
<path d="M91.2847 18.2813V3.53149H100.036C101.836 3.53149 103.18 3.9761 104.071 4.86725C104.707 5.4659 105.026 6.26735 105.026 7.26575C105.026 8.7926 104.262 9.8924 102.737 10.5651C103.681 10.8752 104.387 11.3139 104.851 11.8872C105.315 12.4605 105.545 13.2366 105.545 14.2194C105.545 15.4908 105.054 16.4873 104.073 17.2049C103.092 17.9225 101.719 18.2813 99.9563 18.2813H91.2847ZM96.3293 9.39319H98.0746C98.6557 9.39319 99.11 9.27425 99.4376 9.0383C99.7652 8.80235 99.929 8.48449 99.929 8.08474C99.929 7.70254 99.775 7.39835 99.4649 7.17215C99.1549 6.94595 98.72 6.8309 98.1565 6.8309H96.3293V9.39319ZM96.3293 14.9273H98.4568C99.0574 14.9273 99.5234 14.8044 99.8608 14.5587C100.196 14.313 100.366 13.9718 100.366 13.5369C100.366 13.1372 100.198 12.8096 99.8608 12.5561C99.5234 12.3026 99.0379 12.1739 98.4022 12.1739H96.3293V14.9273Z" fill="white"/>
<path d="M112.113 18.6089C110.658 18.6089 109.468 18.2052 108.542 17.396C107.616 16.5867 107.152 15.4557 107.152 14.001C107.152 12.5113 107.669 11.3666 108.706 10.5652C109.741 9.76565 111.149 9.36591 112.932 9.36591C114.223 9.36591 115.404 9.55701 116.477 9.93921V9.6935C116.477 8.09451 115.496 7.29501 113.532 7.29501C112.204 7.29501 110.851 7.56801 109.47 8.11206L108.408 4.45971C110.262 3.69531 112.251 3.31506 114.379 3.31506C116.923 3.31506 118.795 3.91371 119.995 5.11491C121.05 6.15036 121.576 7.71426 121.576 9.80466V18.2832H116.451V16.7564C115.34 17.9907 113.895 18.6089 112.113 18.6089ZM113.967 15.3641C114.73 15.3641 115.348 15.1418 115.822 14.6952C116.293 14.2506 116.529 13.6637 116.529 12.9364V12.2539C115.931 12.0004 115.258 11.8717 114.513 11.8717C113.766 11.8717 113.185 12.0394 112.768 12.3748C112.351 12.7121 112.142 13.1704 112.142 13.7514C112.142 14.2409 112.31 14.6328 112.647 14.9234C112.98 15.2198 113.421 15.3641 113.967 15.3641Z" fill="white"/>
<path d="M123.918 12.0374V7.48413H132.861V12.0374H123.918Z" fill="white"/>
<path d="M138.531 18.2813V7.70255H134.224V3.53149H148.018V7.70255H143.71V18.2813H138.531Z" fill="#E08F4D"/>
<path d="M157.206 18.6362C154.88 18.6362 152.944 17.8854 151.399 16.3859C149.855 14.8863 149.081 13.065 149.081 10.92C149.081 8.79256 149.859 6.97711 151.413 5.46781C152.967 3.96046 154.917 3.20581 157.261 3.20581C159.587 3.20581 161.524 3.95656 163.068 5.45416C164.613 6.95371 165.385 8.77696 165.385 10.92C165.385 13.0475 164.609 14.8649 163.054 16.3722C161.5 17.8815 159.552 18.6362 157.206 18.6362ZM157.261 14.2467C158.187 14.2467 158.932 13.9289 159.498 13.2932C160.061 12.6575 160.342 11.8677 160.342 10.922C160.342 10.0133 160.042 9.23131 159.443 8.57806C158.844 7.92286 158.098 7.59721 157.208 7.59721C156.282 7.59721 155.535 7.91506 154.972 8.55076C154.408 9.18841 154.125 9.97816 154.125 10.922C154.125 11.8307 154.426 12.6126 155.024 13.2678C155.625 13.9191 156.37 14.2467 157.261 14.2467Z" fill="#E08F4D"/>
<path d="M167.567 22.6434V3.53146H172.746V5.49511C174 3.96826 175.489 3.20581 177.217 3.20581C179.035 3.20581 180.579 3.90976 181.852 5.31961C183.124 6.72946 183.761 8.58781 183.761 10.8947C183.761 13.221 183.13 15.0891 181.866 16.497C180.602 17.9069 179.062 18.6108 177.244 18.6108C175.462 18.6108 173.965 17.903 172.746 16.4834V22.6454H167.567V22.6434ZM175.636 14.274C176.49 14.274 177.207 13.9562 177.791 13.3205C178.372 12.6848 178.662 11.8658 178.662 10.8674C178.662 9.90406 178.372 9.10846 177.791 8.48251C177.209 7.85656 176.49 7.54261 175.636 7.54261C174.799 7.54261 174.091 7.86046 173.508 8.49616C172.927 9.13186 172.637 9.94112 172.637 10.922C172.637 11.8853 172.927 12.6848 173.508 13.3205C174.091 13.9562 174.799 14.274 175.636 14.274Z" fill="#E08F4D"/>
<path d="M58.2849 28.472V27.4873H58.5657C58.7958 27.0641 58.9109 26.4655 58.9109 25.6933V25.2428H60.7497V27.4873H61.1397L61.0792 28.472H60.7594V27.8266H58.671L58.6008 28.472H58.2849ZM58.9752 27.4873H60.3655V25.5821H59.2814V25.9429C59.2794 26.5942 59.178 27.109 58.9752 27.4873Z" fill="white"/>
<path d="M63.8132 27.4892C63.5539 27.7544 63.2321 27.887 62.848 27.887C62.4638 27.887 62.146 27.7564 61.8905 27.4931C61.635 27.2299 61.5083 26.912 61.5083 26.5376C61.5083 26.1671 61.637 25.8512 61.8963 25.586C62.1557 25.3208 62.4755 25.1882 62.8597 25.1882C63.2419 25.1882 63.5636 25.3189 63.8191 25.5821C64.0765 25.8454 64.2032 26.1632 64.2032 26.5376C64.2032 26.9081 64.0745 27.226 63.8132 27.4892ZM62.8597 27.5419C63.1366 27.5419 63.3628 27.4463 63.5422 27.2513C63.7196 27.0583 63.8093 26.8204 63.8093 26.5357C63.8093 26.2549 63.7177 26.0189 63.5324 25.822C63.3472 25.625 63.119 25.5275 62.8499 25.5275C62.573 25.5275 62.3468 25.625 62.1693 25.82C61.9919 26.015 61.9042 26.2549 61.9042 26.5376C61.9042 26.8184 61.9958 27.0544 62.1791 27.2494C62.3624 27.4444 62.5886 27.5419 62.8597 27.5419Z" fill="white"/>
<path d="M66.0634 27.887C65.691 27.887 65.377 27.7544 65.1216 27.4892C64.8661 27.224 64.7394 26.9081 64.7394 26.5376C64.7394 26.1671 64.8661 25.8512 65.1216 25.586C65.377 25.3208 65.691 25.1882 66.0634 25.1882C66.4632 25.1882 66.8083 25.3423 67.0989 25.6484L66.8532 25.9078C66.6133 25.6543 66.3481 25.5275 66.0576 25.5275C65.7982 25.5275 65.5779 25.625 65.4004 25.82C65.223 26.015 65.1333 26.2549 65.1333 26.5376C65.1333 26.8184 65.2249 27.0544 65.4063 27.2494C65.5876 27.4444 65.8138 27.5419 66.0829 27.5419C66.3598 27.5419 66.6192 27.4132 66.8629 27.1519L67.1184 27.3859C66.8181 27.7213 66.4651 27.887 66.0634 27.887Z" fill="white"/>
<path d="M68.3782 27.8285V25.584H67.4539V25.2448H69.6925V25.584H68.7682V27.8285H68.3782Z" fill="white"/>
<path d="M70.6518 28.6416C70.4646 28.6416 70.2813 28.5987 70.1019 28.511L70.2325 28.2068C70.3554 28.2692 70.4899 28.3023 70.6381 28.3023C70.7551 28.3023 70.8526 28.2672 70.9326 28.1951C71.0125 28.1229 71.0905 27.9981 71.1666 27.8187L69.9927 25.2448H70.4178L71.3577 27.3995L72.1884 25.2448H72.5979L71.5137 27.9143C71.4045 28.1775 71.2816 28.3647 71.149 28.4759C71.0125 28.587 70.8487 28.6416 70.6518 28.6416Z" fill="white"/>
<path d="M73.2063 27.8285V25.2448H75.4449V27.8285H75.0607V25.584H73.5904V27.8285H73.2063Z" fill="white"/>
<path d="M76.3049 27.8285V25.2448H76.6891V26.3602H78.1789V25.2448H78.563V27.8285H78.1789V26.6995H76.6891V27.8285H76.3049Z" fill="white"/>
<path d="M81.5678 27.4892C81.3085 27.7544 80.9867 27.887 80.6026 27.887C80.2184 27.887 79.9006 27.7564 79.6451 27.4931C79.3897 27.2299 79.2629 26.912 79.2629 26.5376C79.2629 26.1671 79.3916 25.8512 79.651 25.586C79.9103 25.3208 80.2301 25.1882 80.6143 25.1882C80.9965 25.1882 81.3182 25.3189 81.5737 25.5821C81.8311 25.8454 81.9578 26.1632 81.9578 26.5376C81.9578 26.9081 81.8272 27.226 81.5678 27.4892ZM80.6123 27.5419C80.8892 27.5419 81.1154 27.4463 81.2948 27.2513C81.4723 27.0583 81.562 26.8204 81.562 26.5357C81.562 26.2549 81.4703 26.0189 81.2851 25.822C81.0998 25.625 80.8717 25.5275 80.6026 25.5275C80.3257 25.5275 80.0995 25.625 79.922 25.82C79.7446 26.015 79.6568 26.2549 79.6568 26.5376C79.6568 26.8184 79.7485 27.0544 79.9318 27.2494C80.1151 27.4444 80.3432 27.5419 80.6123 27.5419Z" fill="white"/>
<path d="M83.7811 27.887C83.4184 27.887 83.1123 27.7622 82.8646 27.5107C82.617 27.2591 82.4922 26.9354 82.4922 26.5376C82.4922 26.1613 82.6111 25.8415 82.8471 25.5802C83.083 25.3189 83.3794 25.1882 83.7324 25.1882C84.1029 25.1882 84.3954 25.3189 84.6118 25.5782C84.8283 25.8376 84.9375 26.1652 84.9375 26.5571C84.9375 26.6059 84.9355 26.6527 84.9316 26.6917H82.8822C82.9095 26.9549 83.007 27.1636 83.1805 27.3196C83.3521 27.4756 83.5569 27.5516 83.7928 27.5516C84.1029 27.5516 84.3739 27.4288 84.6079 27.187L84.8478 27.4015C84.5553 27.7252 84.2023 27.887 83.7811 27.887ZM82.8822 26.3836H84.5475C84.5241 26.134 84.4422 25.9253 84.2998 25.7615C84.1575 25.5977 83.9664 25.5139 83.7226 25.5139C83.5023 25.5139 83.3151 25.5958 83.1571 25.7596C82.9992 25.9214 82.9095 26.1301 82.8822 26.3836Z" fill="white"/>
<path d="M89.2549 27.4892C88.9955 27.7544 88.6738 27.887 88.2896 27.887C87.9055 27.887 87.5876 27.7564 87.3322 27.4931C87.0767 27.2299 86.95 26.912 86.95 26.5376C86.95 26.1671 87.0786 25.8512 87.338 25.586C87.5974 25.3208 87.9172 25.1882 88.3013 25.1882C88.6835 25.1882 89.0053 25.3189 89.2607 25.5821C89.5181 25.8454 89.6449 26.1632 89.6449 26.5376C89.6449 26.9081 89.5142 27.226 89.2549 27.4892ZM88.2994 27.5419C88.5763 27.5419 88.8025 27.4463 88.9819 27.2513C89.1593 27.0583 89.249 26.8204 89.249 26.5357C89.249 26.2549 89.1574 26.0189 88.9721 25.822C88.7869 25.625 88.5587 25.5275 88.2896 25.5275C88.0127 25.5275 87.7865 25.625 87.6091 25.82C87.4316 26.015 87.3439 26.2549 87.3439 26.5376C87.3439 26.8184 87.4355 27.0544 87.6188 27.2494C87.8021 27.4444 88.0303 27.5419 88.2994 27.5419Z" fill="white"/>
<path d="M91.5538 27.887C91.158 27.887 90.8401 27.7563 90.6022 27.495C90.3643 27.2337 90.2454 26.8788 90.2454 26.4323C90.2454 26.2685 90.2493 26.13 90.2551 26.015C90.261 25.8999 90.2746 25.7732 90.2941 25.6328C90.3136 25.4924 90.3448 25.3734 90.3897 25.272C90.4326 25.1726 90.4891 25.0731 90.5574 24.9776C90.6256 24.882 90.7153 24.8001 90.8245 24.7319C90.9337 24.6656 91.0624 24.6149 91.2087 24.5817L92.6478 24.2424L92.7219 24.5681L91.3218 24.9132C91.0624 24.9795 90.8752 25.0848 90.7641 25.2311C90.6529 25.3754 90.5866 25.5762 90.5671 25.8336C90.7875 25.4592 91.1443 25.274 91.6377 25.274C91.977 25.274 92.2695 25.3988 92.5132 25.6503C92.757 25.9019 92.8779 26.2041 92.8779 26.5571C92.8779 26.9237 92.7511 27.2376 92.4976 27.497C92.2441 27.7583 91.9302 27.887 91.5538 27.887ZM91.5636 27.5418C91.8268 27.5418 92.0452 27.4482 92.2188 27.2591C92.3923 27.0719 92.4781 26.8398 92.4781 26.5668C92.4781 26.2977 92.3884 26.0676 92.211 25.8765C92.0335 25.6854 91.8132 25.5918 91.5538 25.5918C91.2906 25.5918 91.0722 25.6854 90.8986 25.8746C90.7251 26.0618 90.6393 26.2938 90.6393 26.5668C90.6393 26.8359 90.729 27.066 90.9064 27.2571C91.0839 27.4482 91.3042 27.5418 91.5636 27.5418Z" fill="white"/>
<path d="M95.717 27.4892C95.4577 27.7544 95.1359 27.887 94.7518 27.887C94.3676 27.887 94.0498 27.7564 93.7943 27.4931C93.5389 27.2299 93.4121 26.912 93.4121 26.5376C93.4121 26.1671 93.5408 25.8512 93.8002 25.586C94.0576 25.3208 94.3793 25.1882 94.7635 25.1882C95.1457 25.1882 95.4674 25.3189 95.7229 25.5821C95.9803 25.8454 96.107 26.1632 96.107 26.5376C96.107 26.9081 95.9764 27.226 95.717 27.4892ZM94.7635 27.5419C95.0404 27.5419 95.2666 27.4463 95.446 27.2513C95.6234 27.0583 95.7131 26.8204 95.7131 26.5357C95.7131 26.2549 95.6215 26.0189 95.4362 25.822C95.251 25.625 95.0228 25.5275 94.7537 25.5275C94.4768 25.5275 94.2506 25.625 94.0732 25.82C93.8957 26.015 93.808 26.2549 93.808 26.5376C93.808 26.8184 93.8996 27.0544 94.0829 27.2494C94.2662 27.4444 94.4924 27.5419 94.7635 27.5419Z" fill="white"/>
<path d="M96.8013 28.6279V25.2447H97.1854V25.7653C97.4448 25.3812 97.7743 25.1901 98.176 25.1901C98.5056 25.1901 98.7942 25.3129 99.0399 25.5567C99.2856 25.8024 99.4104 26.13 99.4104 26.5395C99.4104 26.9431 99.2875 27.2668 99.0399 27.5145C98.7942 27.7621 98.5056 27.885 98.176 27.885C97.7685 27.885 97.4389 27.7017 97.1854 27.3351V28.6299H96.8013V28.6279ZM98.1058 27.5379C98.3652 27.5379 98.5816 27.4462 98.7552 27.2649C98.9287 27.0835 99.0145 26.8398 99.0145 26.5317C99.0145 26.2353 98.9268 25.9935 98.7493 25.8102C98.5719 25.6249 98.3574 25.5333 98.1039 25.5333C97.8543 25.5333 97.6359 25.6288 97.4487 25.818C97.2615 26.0071 97.1679 26.247 97.1679 26.5375C97.1679 26.8281 97.2615 27.066 97.4487 27.2551C97.6378 27.4443 97.8562 27.5379 98.1058 27.5379Z" fill="white"/>
<path d="M100.52 28.6416C100.333 28.6416 100.149 28.5987 99.97 28.511L100.101 28.2068C100.224 28.2692 100.358 28.3023 100.506 28.3023C100.623 28.3023 100.721 28.2672 100.801 28.1951C100.881 28.1229 100.959 27.9981 101.035 27.8187L99.8608 25.2448H100.286L101.226 27.3995L102.057 25.2448H102.466L101.382 27.9143C101.273 28.1775 101.15 28.3647 101.017 28.4759C100.883 28.587 100.717 28.6416 100.52 28.6416Z" fill="white"/>
<path d="M102.694 28.472V27.4873H102.975C103.205 27.0641 103.32 26.4655 103.32 25.6933V25.2428H105.159V27.4873H105.549L105.488 28.472H105.169V27.8266H103.08L103.01 28.472H102.694ZM103.384 27.4873H104.775V25.5821H103.691V25.9429C103.689 26.5942 103.587 27.109 103.384 27.4873Z" fill="white"/>
<path d="M108.222 27.4892C107.963 27.7544 107.641 27.887 107.257 27.887C106.875 27.887 106.555 27.7564 106.3 27.4931C106.044 27.2299 105.917 26.912 105.917 26.5376C105.917 26.1671 106.046 25.8512 106.306 25.586C106.565 25.3208 106.885 25.1882 107.269 25.1882C107.651 25.1882 107.973 25.3189 108.228 25.5821C108.486 25.8454 108.612 26.1632 108.612 26.5376C108.612 26.9081 108.484 27.226 108.222 27.4892ZM107.269 27.5419C107.546 27.5419 107.772 27.4463 107.951 27.2513C108.129 27.0583 108.218 26.8204 108.218 26.5357C108.218 26.2549 108.127 26.0189 107.942 25.822C107.756 25.625 107.528 25.5275 107.259 25.5275C106.982 25.5275 106.756 25.625 106.58 25.82C106.403 26.015 106.315 26.2549 106.315 26.5376C106.315 26.8184 106.407 27.0544 106.59 27.2494C106.772 27.4444 106.998 27.5419 107.269 27.5419Z" fill="white"/>
<path d="M109.307 27.8285V25.2448H110.557C110.814 25.2448 111.019 25.3032 111.171 25.4203C111.325 25.5373 111.401 25.6933 111.401 25.8902C111.401 26.1671 111.259 26.3641 110.972 26.485C111.352 26.5883 111.541 26.8009 111.541 27.1246C111.541 27.341 111.456 27.5126 111.286 27.6394C111.116 27.7661 110.888 27.8285 110.601 27.8285H109.307ZM109.693 26.3524H110.488C110.648 26.3524 110.775 26.3173 110.871 26.2451C110.966 26.173 111.013 26.0716 111.013 25.937C111.013 25.8278 110.968 25.7381 110.878 25.6718C110.789 25.6055 110.662 25.5724 110.498 25.5724H109.693V26.3524ZM109.693 27.497H110.553C110.736 27.497 110.88 27.458 110.988 27.382C111.095 27.3059 111.147 27.1987 111.147 27.0622C111.147 26.9354 111.091 26.8379 110.98 26.7677C110.869 26.6975 110.709 26.6624 110.502 26.6624H109.693V27.497Z" fill="white"/>
<path d="M113.006 27.883C112.743 27.883 112.516 27.8109 112.325 27.6685C112.136 27.5262 112.041 27.3253 112.041 27.0679C112.041 26.7988 112.14 26.5902 112.341 26.4439C112.542 26.2977 112.809 26.2236 113.146 26.2236C113.413 26.2236 113.677 26.2606 113.936 26.3328V26.2528C113.936 26.0266 113.87 25.8531 113.735 25.7322C113.602 25.6132 113.413 25.5528 113.17 25.5528C112.916 25.5528 112.655 25.6152 112.386 25.738L112.271 25.4241C112.59 25.2778 112.904 25.2037 113.211 25.2037C113.577 25.2037 113.856 25.2993 114.045 25.4884C114.225 25.6678 114.314 25.9213 114.314 26.2489V27.8284H113.934V27.4443C113.706 27.7368 113.396 27.883 113.006 27.883ZM113.082 27.573C113.322 27.573 113.524 27.5086 113.692 27.378C113.858 27.2473 113.942 27.0816 113.942 26.8768V26.637C113.688 26.5629 113.437 26.5278 113.187 26.5278C112.951 26.5278 112.766 26.5746 112.631 26.6701C112.499 26.7637 112.432 26.8944 112.432 27.0582C112.432 27.2142 112.495 27.3409 112.62 27.4326C112.744 27.5242 112.899 27.573 113.082 27.573Z" fill="white"/>
<path d="M115.129 27.8285V25.2448H115.514V26.3602H117.003V25.2448H117.387V27.8285H117.003V26.6995H115.514V27.8285H115.129Z" fill="white"/>
<path d="M118.249 27.8285V25.2448H118.633V27.2884L120.168 25.2448H120.542V27.8285H120.158V25.7849L118.62 27.8285H118.249Z" fill="white"/>
<path d="M122.534 27.887C122.171 27.887 121.865 27.7622 121.617 27.5107C121.367 27.2591 121.245 26.9354 121.245 26.5376C121.245 26.1613 121.364 25.8415 121.6 25.5802C121.835 25.3189 122.132 25.1882 122.485 25.1882C122.855 25.1882 123.148 25.3189 123.364 25.5782C123.581 25.8376 123.69 26.1652 123.69 26.5571C123.69 26.6059 123.688 26.6527 123.684 26.6917H121.633C121.66 26.9549 121.757 27.1636 121.931 27.3196C122.103 27.4756 122.307 27.5516 122.543 27.5516C122.853 27.5516 123.124 27.4288 123.358 27.187L123.598 27.4015C123.308 27.7252 122.953 27.887 122.534 27.887ZM121.633 26.3836H123.296C123.273 26.134 123.191 25.9253 123.048 25.7615C122.906 25.5977 122.715 25.5139 122.471 25.5139C122.251 25.5139 122.064 25.5958 121.906 25.7596C121.752 25.9214 121.66 26.1301 121.633 26.3836Z" fill="white"/>
<path d="M125.482 28.472V27.4873H125.763C125.993 27.0641 126.108 26.4655 126.108 25.6933V25.2428H127.947V27.4873H128.337L128.276 28.472H127.957V27.8266H125.868L125.798 28.472H125.482ZM126.172 27.4873H127.563V25.5821H126.478V25.9429C126.476 26.5942 126.375 27.109 126.172 27.4873Z" fill="white"/>
<path d="M128.74 27.8675C128.641 27.8675 128.538 27.8539 128.43 27.8266L128.475 27.497C128.551 27.5204 128.614 27.5321 128.661 27.5321C128.735 27.5321 128.793 27.5224 128.84 27.5048C128.887 27.4873 128.937 27.4385 128.992 27.3605C129.047 27.2825 129.09 27.1714 129.119 27.0271C129.15 26.8847 129.175 26.6819 129.197 26.4167C129.218 26.1535 129.23 25.8337 129.23 25.4573V25.2428H131.059V27.8266H130.675V25.5821H129.595V25.6426C129.595 26.0365 129.579 26.3699 129.55 26.6468C129.519 26.9237 129.481 27.1402 129.437 27.2962C129.392 27.4522 129.329 27.575 129.249 27.6608C129.169 27.7466 129.091 27.8032 129.017 27.8285C128.943 27.8558 128.85 27.8675 128.74 27.8675Z" fill="white"/>
<path d="M131.689 27.8285L132.478 26.8282C132.276 26.7814 132.11 26.6897 131.981 26.5532C131.853 26.4167 131.788 26.249 131.788 26.0482C131.788 25.8083 131.876 25.6133 132.048 25.4671C132.221 25.3189 132.459 25.2448 132.763 25.2448H133.978V27.8285H133.594V26.8886H132.878C132.849 26.9296 132.746 27.0661 132.568 27.2981C132.391 27.5321 132.256 27.7076 132.163 27.8285H131.689ZM132.794 26.563H133.594V25.584H132.785C132.595 25.584 132.445 25.627 132.338 25.7108C132.229 25.7947 132.176 25.9136 132.176 26.0638C132.176 26.2178 132.235 26.3387 132.348 26.4284C132.461 26.5181 132.611 26.563 132.794 26.563Z" fill="white"/>
<path d="M137.502 27.887C137.129 27.887 136.815 27.7544 136.56 27.4892C136.304 27.224 136.178 26.9081 136.178 26.5376C136.178 26.1671 136.304 25.8512 136.56 25.586C136.815 25.3208 137.129 25.1882 137.502 25.1882C137.902 25.1882 138.247 25.3423 138.537 25.6484L138.292 25.9078C138.052 25.6543 137.786 25.5275 137.496 25.5275C137.237 25.5275 137.016 25.625 136.839 25.82C136.661 26.015 136.572 26.2549 136.572 26.5376C136.572 26.8184 136.663 27.0544 136.845 27.2494C137.026 27.4444 137.252 27.5419 137.521 27.5419C137.798 27.5419 138.058 27.4132 138.301 27.1519L138.557 27.3859C138.256 27.7213 137.905 27.887 137.502 27.887Z" fill="white"/>
<path d="M139.192 27.8285V25.2448H139.577V27.2884L141.111 25.2448H141.486V27.8285H141.101V25.7849L139.563 27.8285H139.192Z" fill="white"/>
<path d="M143.51 27.887C143.137 27.887 142.823 27.7544 142.568 27.4892C142.312 27.224 142.186 26.9081 142.186 26.5376C142.186 26.1671 142.312 25.8512 142.568 25.586C142.823 25.3208 143.137 25.1882 143.51 25.1882C143.909 25.1882 144.255 25.3423 144.545 25.6484L144.299 25.9078C144.059 25.6543 143.794 25.5275 143.504 25.5275C143.244 25.5275 143.024 25.625 142.847 25.82C142.669 26.015 142.579 26.2549 142.579 26.5376C142.579 26.8184 142.671 27.0544 142.852 27.2494C143.034 27.4444 143.26 27.5419 143.529 27.5419C143.806 27.5419 144.065 27.4132 144.309 27.1519L144.565 27.3859C144.264 27.7213 143.913 27.887 143.51 27.887Z" fill="white"/>
<path d="M145.824 27.8285V25.584H144.9V25.2448H147.138V25.584H146.214V27.8285H145.824Z" fill="white"/>
<path d="M148.827 27.887C148.465 27.887 148.158 27.7622 147.911 27.5107C147.661 27.2591 147.538 26.9354 147.538 26.5376C147.538 26.1613 147.657 25.8415 147.893 25.5802C148.129 25.3189 148.426 25.1882 148.779 25.1882C149.149 25.1882 149.442 25.3189 149.658 25.5782C149.874 25.8376 149.984 26.1652 149.984 26.5571C149.984 26.6059 149.982 26.6527 149.978 26.6917H147.928C147.956 26.9549 148.053 27.1636 148.227 27.3196C148.398 27.4756 148.603 27.5516 148.839 27.5516C149.149 27.5516 149.42 27.4288 149.654 27.187L149.894 27.4015C149.603 27.7252 149.248 27.887 148.827 27.887ZM147.928 26.3836H149.592C149.568 26.134 149.486 25.9253 149.344 25.7615C149.202 25.5977 149.011 25.5139 148.767 25.5139C148.546 25.5139 148.359 25.5958 148.201 25.7596C148.047 25.9214 147.956 26.1301 147.928 26.3836Z" fill="white"/>
<path d="M150.658 27.8285V25.2448H151.023L151.988 26.6039L152.953 25.2448H153.324V27.8285H152.934V25.859L151.978 27.1675L151.035 25.859V27.8285H150.658Z" fill="white"/>
<path d="M157.825 27.4892C157.565 27.7544 157.244 27.887 156.859 27.887C156.477 27.887 156.157 27.7564 155.902 27.4931C155.647 27.2299 155.52 26.912 155.52 26.5376C155.52 26.1671 155.648 25.8512 155.908 25.586C156.165 25.3208 156.487 25.1882 156.869 25.1882C157.253 25.1882 157.573 25.3189 157.829 25.5821C158.084 25.8454 158.213 26.1632 158.213 26.5376C158.215 26.9081 158.086 27.226 157.825 27.4892ZM156.871 27.5419C157.148 27.5419 157.374 27.4463 157.554 27.2513C157.731 27.0583 157.821 26.8204 157.821 26.5357C157.821 26.2549 157.727 26.0189 157.544 25.822C157.361 25.625 157.132 25.5275 156.861 25.5275C156.584 25.5275 156.358 25.625 156.181 25.82C156.005 26.015 155.916 26.2549 155.916 26.5376C155.916 26.8184 156.007 27.0544 156.191 27.2494C156.374 27.4444 156.6 27.5419 156.871 27.5419Z" fill="white"/>
<path d="M159.535 27.8285V25.584H158.61V25.2448H160.849V25.584H159.925V27.8285H159.535Z" fill="white"/>
<path d="M163.554 27.4892C163.294 27.7544 162.973 27.887 162.588 27.887C162.206 27.887 161.886 27.7564 161.631 27.4931C161.376 27.2299 161.249 26.912 161.249 26.5376C161.249 26.1671 161.377 25.8512 161.637 25.586C161.894 25.3208 162.216 25.1882 162.598 25.1882C162.982 25.1882 163.302 25.3189 163.558 25.5821C163.813 25.8454 163.942 26.1632 163.942 26.5376C163.942 26.9081 163.813 27.226 163.554 27.4892ZM162.598 27.5419C162.875 27.5419 163.101 27.4463 163.281 27.2513C163.458 27.0583 163.548 26.8204 163.548 26.5357C163.548 26.2549 163.454 26.0189 163.271 25.822C163.088 25.625 162.859 25.5275 162.588 25.5275C162.312 25.5275 162.085 25.625 161.908 25.82C161.732 26.015 161.643 26.2549 161.643 26.5376C161.643 26.8184 161.734 27.0544 161.918 27.2494C162.101 27.4444 162.329 27.5419 162.598 27.5419Z" fill="white"/>
<path d="M164.638 27.8285V25.2448H166.877V27.8285H166.492V25.584H165.022V27.8285H164.638Z" fill="white"/>
<path d="M167.612 27.8675C167.512 27.8675 167.409 27.8539 167.302 27.8266L167.346 27.497C167.422 27.5204 167.485 27.5321 167.532 27.5321C167.606 27.5321 167.664 27.5224 167.711 27.5048C167.758 27.4873 167.809 27.4385 167.863 27.3605C167.918 27.2825 167.961 27.1714 167.99 27.0271C168.021 26.8847 168.046 26.6819 168.068 26.4167C168.089 26.1515 168.101 25.8337 168.101 25.4573V25.2428H169.93V27.8266H169.546V25.5821H168.466V25.6426C168.466 26.0365 168.45 26.3699 168.421 26.6468C168.39 26.9237 168.353 27.1402 168.308 27.2962C168.263 27.4522 168.2 27.575 168.121 27.6608C168.041 27.7466 167.963 27.8032 167.888 27.8285C167.814 27.8558 167.721 27.8675 167.612 27.8675Z" fill="white"/>
<path d="M171.919 27.887C171.557 27.887 171.25 27.7622 171.003 27.5107C170.753 27.2591 170.63 26.9354 170.63 26.5376C170.63 26.1613 170.749 25.8415 170.985 25.5802C171.221 25.3189 171.518 25.1882 171.871 25.1882C172.241 25.1882 172.534 25.3189 172.75 25.5782C172.966 25.8376 173.076 26.1652 173.076 26.5571C173.076 26.6059 173.074 26.6527 173.07 26.6917H171.02C171.048 26.9549 171.145 27.1636 171.319 27.3196C171.49 27.4756 171.695 27.5516 171.931 27.5516C172.241 27.5516 172.512 27.4288 172.746 27.187L172.986 27.4015C172.695 27.7252 172.34 27.887 171.919 27.887ZM171.02 26.3836H172.684C172.66 26.134 172.578 25.9253 172.436 25.7615C172.294 25.5977 172.103 25.5139 171.859 25.5139C171.639 25.5139 171.451 25.5958 171.293 25.7596C171.139 25.9214 171.048 26.1301 171.02 26.3836Z" fill="white"/>
<path d="M173.748 27.8285V25.2448H174.132V26.3602H175.622V25.2448H176.006V27.8285H175.622V26.6995H174.132V27.8285H173.748Z" fill="white"/>
<path d="M176.868 27.8285V25.2448H177.253V27.2884L178.787 25.2448H179.162V27.8285H178.777V25.7849L177.239 27.8285H176.868Z" fill="white"/>
<path d="M179.791 27.8285L180.581 26.8282C180.378 26.7814 180.212 26.6897 180.084 26.5532C179.955 26.4167 179.891 26.249 179.891 26.0482C179.891 25.8083 179.978 25.6133 180.15 25.4671C180.324 25.3189 180.562 25.2448 180.866 25.2448H182.081V27.8285H181.696V26.8886H180.981C180.952 26.9296 180.848 27.0661 180.671 27.2981C180.493 27.5321 180.359 27.7076 180.265 27.8285H179.791ZM180.897 26.563H181.696V25.584H180.887C180.698 25.584 180.548 25.627 180.441 25.7108C180.331 25.7947 180.279 25.9136 180.279 26.0638C180.279 26.2178 180.337 26.3387 180.452 26.4284C180.563 26.5181 180.714 26.563 180.897 26.563Z" fill="white"/>
<path d="M182.8 28.4369L182.74 28.2614C182.962 28.1776 183.075 28.0489 183.075 27.8773V27.8265H182.896V27.302H183.356V27.7525C183.356 27.9533 183.311 28.1054 183.223 28.2127C183.136 28.3199 182.995 28.394 182.8 28.4369Z" fill="white"/>
<path d="M58.6652 33.7545V31.1708H59.9151C60.1725 31.1708 60.3773 31.2293 60.5294 31.3463C60.6834 31.4633 60.7595 31.6193 60.7595 31.8162C60.7595 32.0931 60.6171 32.2901 60.3285 32.411C60.7088 32.5143 60.8979 32.7269 60.8979 33.0506C60.8979 33.267 60.8121 33.4386 60.6425 33.5654C60.4728 33.6921 60.2447 33.7545 59.958 33.7545H58.6652ZM59.0513 32.2803H59.8469C60.0068 32.2803 60.1335 32.2452 60.2291 32.1731C60.3246 32.1009 60.3714 31.9995 60.3714 31.865C60.3714 31.7558 60.3266 31.6661 60.2369 31.5998C60.1472 31.5335 60.0204 31.5003 59.8566 31.5003H59.0513V32.2803ZM59.0513 33.425H59.9112C60.0945 33.425 60.2388 33.386 60.3461 33.3099C60.4533 33.2339 60.506 33.1266 60.506 32.9901C60.506 32.8634 60.4494 32.7659 60.3383 32.6957C60.2271 32.6255 60.0672 32.5904 59.8605 32.5904H59.0513V33.425Z" fill="white"/>
<path d="M63.7391 33.4172C63.4798 33.6824 63.158 33.815 62.7739 33.815C62.3897 33.815 62.0719 33.6844 61.8164 33.4211C61.561 33.1579 61.4342 32.84 61.4342 32.4656C61.4342 32.0951 61.5629 31.7792 61.8223 31.514C62.0816 31.2488 62.4014 31.1162 62.7856 31.1162C63.1678 31.1162 63.4895 31.2469 63.745 31.5101C64.0024 31.7734 64.1291 32.0912 64.1291 32.4656C64.1291 32.8342 63.9985 33.152 63.7391 33.4172ZM62.7856 33.4699C63.0625 33.4699 63.2887 33.3743 63.4681 33.1793C63.6455 32.9863 63.7352 32.7484 63.7352 32.4637C63.7352 32.1829 63.6436 31.9469 63.4583 31.75C63.2731 31.553 63.0449 31.4555 62.7758 31.4555C62.4989 31.4555 62.2727 31.553 62.0953 31.748C61.9178 31.943 61.8301 32.1829 61.8301 32.4656C61.8301 32.7464 61.9217 32.9824 62.105 33.1774C62.2883 33.3724 62.5145 33.4699 62.7856 33.4699Z" fill="white"/>
<path d="M64.443 34.4V33.4152H64.7238C64.9539 32.9921 65.069 32.3934 65.069 31.6212V31.1708H66.9078V33.4152H67.2978L67.2374 34.4H66.9176V33.7545H64.8291L64.7589 34.4H64.443ZM65.1333 33.4152H66.5237V31.5101H65.4395V31.8708C65.4395 32.5202 65.3361 33.035 65.1333 33.4152Z" fill="white"/>
<path d="M69.9713 33.4172C69.7119 33.6824 69.3902 33.815 69.006 33.815C68.6219 33.815 68.304 33.6844 68.0486 33.4211C67.7931 33.1579 67.6664 32.84 67.6664 32.4656C67.6664 32.0951 67.7951 31.7792 68.0544 31.514C68.3138 31.2488 68.6336 31.1162 69.0177 31.1162C69.3999 31.1162 69.7217 31.2469 69.9771 31.5101C70.2345 31.7734 70.3613 32.0912 70.3613 32.4656C70.3613 32.8342 70.2326 33.152 69.9713 33.4172ZM69.0177 33.4699C69.2946 33.4699 69.5208 33.3743 69.7002 33.1793C69.8777 32.9863 69.9674 32.7484 69.9674 32.4637C69.9674 32.1829 69.8757 31.9469 69.6905 31.75C69.5052 31.553 69.2771 31.4555 69.008 31.4555C68.7311 31.4555 68.5049 31.553 68.3274 31.748C68.15 31.943 68.0622 32.1829 68.0622 32.4656C68.0622 32.7464 68.1539 32.9824 68.3372 33.1774C68.5205 33.3724 68.7467 33.4699 69.0177 33.4699Z" fill="white"/>
<path d="M72.2215 33.815C71.8491 33.815 71.5351 33.6824 71.2797 33.4172C71.0242 33.152 70.8975 32.8361 70.8975 32.4656C70.8975 32.0951 71.0242 31.7792 71.2797 31.514C71.5351 31.2488 71.8491 31.1162 72.2215 31.1162C72.6213 31.1162 72.9664 31.2703 73.257 31.5764L73.0113 31.8358C72.7714 31.5823 72.5062 31.4555 72.2157 31.4555C71.9563 31.4555 71.736 31.553 71.5585 31.748C71.3811 31.943 71.2914 32.1829 71.2914 32.4656C71.2914 32.7464 71.383 32.9824 71.5644 33.1774C71.7457 33.3724 71.9719 33.4699 72.241 33.4699C72.5179 33.4699 72.7773 33.3412 73.021 33.0799L73.2765 33.3139C72.9762 33.6473 72.6252 33.815 72.2215 33.815Z" fill="white"/>
<path d="M73.9102 33.7545V31.1708H74.2943V32.2862H75.7841V31.1708H76.1683V33.7545H75.7841V32.6255H74.2943V33.7545H73.9102Z" fill="white"/>
<path d="M77.7985 33.8091C77.5353 33.8091 77.3091 33.7369 77.118 33.5946C76.9288 33.4522 76.8333 33.2514 76.8333 32.994C76.8333 32.7249 76.9327 32.5162 77.1335 32.37C77.3344 32.2237 77.6015 32.1496 77.9389 32.1496C78.206 32.1496 78.4693 32.1867 78.7287 32.2588V32.1789C78.7287 31.9527 78.6624 31.7791 78.5298 31.6582C78.3972 31.5393 78.208 31.4788 77.9642 31.4788C77.7107 31.4788 77.4495 31.5412 77.1804 31.6641L77.0653 31.3501C77.3851 31.2039 77.6991 31.1298 78.0052 31.1298C78.3718 31.1298 78.6506 31.2253 78.8398 31.4145C79.0192 31.5939 79.1089 31.8474 79.1089 32.175V33.7545H78.7287V33.3703C78.4986 33.6628 78.1885 33.8091 77.7985 33.8091ZM77.8746 33.499C78.1144 33.499 78.3172 33.4347 78.4849 33.304C78.6507 33.1734 78.7345 33.0076 78.7345 32.8029V32.563C78.481 32.4889 78.2295 32.4538 77.9799 32.4538C77.7439 32.4538 77.5587 32.5006 77.4241 32.5962C77.2915 32.6898 77.2233 32.8204 77.2233 32.9842C77.2233 33.1402 77.2857 33.267 77.4105 33.3586C77.5353 33.4503 77.6913 33.499 77.8746 33.499Z" fill="white"/>
<path d="M81.139 33.8149C80.7432 33.8149 80.4253 33.6843 80.1874 33.423C79.9495 33.1617 79.8306 32.8068 79.8306 32.3602C79.8306 32.1964 79.8345 32.058 79.8403 31.943C79.8462 31.8279 79.8598 31.7012 79.8793 31.5608C79.8988 31.4204 79.93 31.3014 79.9749 31.2C80.0178 31.1006 80.0743 31.0011 80.1426 30.9056C80.2108 30.81 80.3005 30.7281 80.4097 30.6599C80.5189 30.5936 80.6476 30.5429 80.7939 30.5097L82.233 30.1704L82.3071 30.4961L80.907 30.8412C80.6476 30.9075 80.4604 31.0128 80.3493 31.1591C80.2381 31.3034 80.1718 31.5042 80.1523 31.7616C80.3727 31.3872 80.7295 31.202 81.2229 31.202C81.5622 31.202 81.8547 31.3268 82.0984 31.5783C82.3422 31.8299 82.4631 32.1321 82.4631 32.485C82.4631 32.8516 82.3363 33.1656 82.0828 33.4249C81.8293 33.6843 81.5154 33.8149 81.139 33.8149ZM81.1488 33.4698C81.412 33.4698 81.6304 33.3762 81.804 33.187C81.9775 32.9998 82.0633 32.7678 82.0633 32.4948C82.0633 32.2257 81.9736 31.9956 81.7962 31.8045C81.6187 31.6154 81.3984 31.5198 81.139 31.5198C80.8758 31.5198 80.6574 31.6134 80.4838 31.8026C80.3103 31.9897 80.2245 32.2218 80.2245 32.4948C80.2245 32.7639 80.3142 32.994 80.4916 33.1851C80.6691 33.3742 80.8875 33.4698 81.1488 33.4698Z" fill="white"/>
<path d="M82.8276 33.7545L83.8865 32.2745L82.8822 31.1688H83.3463L84.6606 32.6684V31.1688H85.0448V32.6684L86.3591 31.1688H86.8232L85.819 32.2745L86.8778 33.7545H86.4274L85.5674 32.5494L85.0428 33.1247V33.7545H84.6587V33.1247L84.1341 32.5494L83.2742 33.7545H82.8276Z" fill="white"/>
<path d="M88.5412 33.815C88.1784 33.815 87.8723 33.6902 87.6247 33.4387C87.377 33.1871 87.2522 32.8634 87.2522 32.4656C87.2522 32.0893 87.3711 31.7695 87.6071 31.5082C87.8431 31.2469 88.1394 31.1162 88.4924 31.1162C88.8629 31.1162 89.1554 31.2469 89.3719 31.5062C89.5883 31.7656 89.6975 32.0932 89.6975 32.4851C89.6975 32.5339 89.6956 32.5807 89.6917 32.6197H87.6422C87.6695 32.8829 87.767 33.0916 87.9406 33.2476C88.1122 33.4036 88.3169 33.4796 88.5529 33.4796C88.8629 33.4796 89.134 33.3568 89.368 33.115L89.6078 33.3295C89.3153 33.6532 88.9604 33.815 88.5412 33.815ZM87.6402 32.3096H89.3056C89.2822 32.06 89.2003 31.8514 89.0579 31.6876C88.9156 31.5238 88.7245 31.4399 88.4807 31.4399C88.2603 31.4399 88.0732 31.5218 87.9152 31.6856C87.7592 31.8494 87.6675 32.0561 87.6402 32.3096Z" fill="white"/>
<path d="M90.3701 33.7545V31.1708H90.7543V32.2862H92.2441V31.1708H92.6282V33.7545H92.2441V32.6255H90.7543V33.7545H90.3701Z" fill="white"/>
<path d="M93.4883 33.7545V31.1708H93.8724V33.2144L95.4071 31.1708H95.7815V33.7545H95.3973V31.7109L93.8588 33.7545H93.4883Z" fill="white"/>
<path d="M96.4133 33.7545L97.2031 32.7542C97.0003 32.7074 96.8345 32.6157 96.7058 32.4792C96.5771 32.3427 96.5128 32.175 96.5128 31.9742C96.5128 31.7343 96.5986 31.5393 96.7721 31.3931C96.9457 31.2449 97.1836 31.1708 97.4878 31.1708H98.7026V33.7545H98.3184V32.8146H97.6028C97.5736 32.8556 97.4702 32.9921 97.2928 33.2241C97.1153 33.4581 96.9808 33.6336 96.8872 33.7545H96.4133ZM97.517 32.489H98.3165V31.5101H97.5073C97.3181 31.5101 97.168 31.553 97.0607 31.6368C96.9515 31.7207 96.8989 31.8396 96.8989 31.9898C96.8989 32.1438 96.9554 32.2647 97.0705 32.3544C97.1855 32.4441 97.3337 32.489 97.517 32.489Z" fill="white"/>
<path d="M99.422 34.3649L99.3616 34.1894C99.5839 34.1055 99.697 33.9768 99.697 33.8052V33.7545H99.5176V33.23H99.9778V33.6804C99.9778 33.8813 99.9329 34.0334 99.8452 34.1406C99.7555 34.2459 99.6151 34.32 99.422 34.3649Z" fill="white"/>
<path d="M102.285 33.7545V31.1708H102.669V32.6606L104.083 31.1708H104.558L103.478 32.2901L104.588 33.7545H104.133L103.213 32.5689L102.667 33.1286V33.7545H102.285Z" fill="white"/>
<path d="M105.888 33.8091C105.625 33.8091 105.399 33.7369 105.208 33.5946C105.019 33.4522 104.923 33.2514 104.923 32.994C104.923 32.7249 105.023 32.5162 105.223 32.37C105.424 32.2237 105.691 32.1496 106.029 32.1496C106.296 32.1496 106.559 32.1867 106.818 32.2588V32.1789C106.818 31.9527 106.752 31.7791 106.62 31.6582C106.487 31.5393 106.298 31.4788 106.054 31.4788C105.801 31.4788 105.539 31.5412 105.27 31.6641L105.155 31.3501C105.475 31.2039 105.789 31.1298 106.095 31.1298C106.462 31.1298 106.74 31.2253 106.93 31.4145C107.109 31.5939 107.199 31.8474 107.199 32.175V33.7545H106.818V33.3703C106.588 33.6628 106.278 33.8091 105.888 33.8091ZM105.964 33.499C106.204 33.499 106.407 33.4347 106.575 33.304C106.742 33.1734 106.824 33.0076 106.824 32.8029V32.563C106.571 32.4889 106.319 32.4538 106.07 32.4538C105.834 32.4538 105.648 32.5006 105.514 32.5962C105.381 32.6898 105.313 32.8204 105.313 32.9842C105.313 33.1402 105.375 33.267 105.5 33.3586C105.627 33.4522 105.781 33.499 105.964 33.499Z" fill="white"/>
<path d="M108.014 33.7545V31.1708H108.398V32.2862H109.888V31.1708H110.272V33.7545H109.888V32.6255H108.398V33.7545H108.014Z" fill="white"/>
<path d="M111.902 33.8091C111.639 33.8091 111.413 33.7369 111.223 33.5946C111.034 33.4522 110.939 33.2514 110.939 32.994C110.939 32.7249 111.038 32.5162 111.237 32.37C111.438 32.2237 111.705 32.1496 112.042 32.1496C112.31 32.1496 112.573 32.1867 112.832 32.2588V32.1789C112.832 31.9527 112.766 31.7791 112.631 31.6582C112.499 31.5393 112.31 31.4788 112.068 31.4788C111.814 31.4788 111.553 31.5412 111.284 31.6641L111.169 31.3501C111.489 31.2039 111.803 31.1298 112.109 31.1298C112.475 31.1298 112.754 31.2253 112.943 31.4145C113.123 31.5939 113.212 31.8474 113.212 32.175V33.7545H112.834V33.3703C112.602 33.6628 112.292 33.8091 111.902 33.8091ZM111.978 33.499C112.218 33.499 112.421 33.4347 112.588 33.304C112.754 33.1734 112.838 33.0076 112.838 32.8029V32.563C112.585 32.4889 112.333 32.4538 112.083 32.4538C111.845 32.4538 111.662 32.5006 111.528 32.5962C111.395 32.6898 111.327 32.8204 111.327 32.9842C111.327 33.1402 111.389 33.267 111.514 33.3586C111.639 33.4522 111.793 33.499 111.978 33.499Z" fill="white"/>
<path d="M113.901 33.7955C113.801 33.7955 113.698 33.7818 113.591 33.7545L113.636 33.425C113.712 33.4484 113.774 33.4601 113.821 33.4601C113.895 33.4601 113.954 33.4503 114 33.4328C114.047 33.4152 114.098 33.3665 114.152 33.2885C114.207 33.2105 114.25 33.0993 114.279 32.955C114.31 32.8127 114.336 32.6099 114.357 32.3447C114.379 32.0814 114.39 31.7616 114.39 31.3853V31.1708H116.219V33.7545H115.835V31.5101H114.755V31.5705C114.755 31.9644 114.739 32.2979 114.71 32.5748C114.679 32.8517 114.642 33.0681 114.597 33.2241C114.552 33.3801 114.49 33.503 114.41 33.5888C114.33 33.6746 114.252 33.7311 114.178 33.7565C114.104 33.7818 114.01 33.7955 113.901 33.7955Z" fill="white"/>
<path d="M117.079 33.7545V31.1708H117.463V33.2144L118.998 31.1708H119.373V33.7545H118.988V31.7109L117.45 33.7545H117.079Z" fill="white"/>
<path d="M121.053 33.815C120.658 33.815 120.301 33.6863 119.985 33.4309L120.18 33.1462C120.443 33.3685 120.732 33.4816 121.044 33.4816C121.219 33.4816 121.371 33.4406 121.496 33.3587C121.621 33.2768 121.683 33.1637 121.683 33.0214C121.683 32.8888 121.627 32.7835 121.514 32.7094C121.401 32.6353 121.241 32.5963 121.034 32.5963H120.689V32.2823H121.038C121.208 32.2823 121.346 32.2414 121.453 32.1595C121.56 32.0776 121.613 31.9703 121.613 31.8377C121.613 31.7207 121.56 31.6271 121.455 31.5569C121.35 31.4867 121.215 31.4516 121.053 31.4516C120.747 31.4516 120.486 31.5394 120.27 31.711L120.08 31.4419C120.361 31.2254 120.693 31.1162 121.081 31.1162C121.367 31.1162 121.596 31.1806 121.763 31.3093C121.931 31.438 122.015 31.6037 122.015 31.8065C122.015 32.0893 121.876 32.2882 121.599 32.4013C121.919 32.5144 122.079 32.7269 122.079 33.037C122.079 33.2534 121.986 33.4367 121.798 33.5888C121.611 33.739 121.364 33.815 121.053 33.815Z" fill="white"/>
<path d="M123.563 33.8091C123.3 33.8091 123.074 33.7369 122.883 33.5946C122.693 33.4522 122.598 33.2514 122.598 32.994C122.598 32.7249 122.697 32.5162 122.898 32.37C123.099 32.2237 123.366 32.1496 123.704 32.1496C123.971 32.1496 124.234 32.1867 124.493 32.2588V32.1789C124.493 31.9527 124.427 31.7791 124.292 31.6582C124.16 31.5393 123.971 31.4788 123.727 31.4788C123.473 31.4788 123.212 31.5412 122.943 31.6641L122.828 31.3501C123.148 31.2039 123.462 31.1298 123.768 31.1298C124.135 31.1298 124.413 31.2253 124.603 31.4145C124.782 31.5939 124.872 31.8474 124.872 32.175V33.7545H124.491V33.3703C124.263 33.6628 123.953 33.8091 123.563 33.8091ZM123.637 33.499C123.877 33.499 124.08 33.4347 124.248 33.304C124.413 33.1734 124.497 33.0076 124.497 32.8029V32.563C124.244 32.4889 123.992 32.4538 123.743 32.4538C123.507 32.4538 123.321 32.5006 123.187 32.5962C123.054 32.6898 122.988 32.8204 122.988 32.9842C122.988 33.1402 123.05 33.267 123.175 33.3586C123.3 33.4503 123.454 33.499 123.637 33.499Z" fill="white"/>
<path d="M127.916 34.4V33.7545H125.687V31.1708H126.071V33.4152H127.52V31.1708H127.904V33.4152H128.294L128.233 34.4H127.916Z" fill="white"/>
<path d="M128.826 33.7545V31.1708H129.21V33.2144L130.745 31.1708H131.119V33.7545H130.735V31.7109L129.197 33.7545H128.826Z" fill="white"/>
<path d="M131.979 33.7545V31.1708H132.363V33.2144L133.898 31.1708H134.272V33.7545H133.888V31.7109L132.35 33.7545H131.979Z" fill="white"/>
<path d="M136.632 33.7545V31.1708H137.016V33.2144L138.551 31.1708H138.925V33.7545H138.541V31.7109L137.003 33.7545H136.632Z" fill="white"/>
<path d="M140.906 34.4V33.4152H141.187C141.417 32.9921 141.532 32.3934 141.532 31.6212V31.1708H143.371V33.4152H143.761L143.701 34.4H143.381V33.7545H141.293L141.222 34.4H140.906ZM141.597 33.4152H142.987V31.5101H141.903V31.8708C141.901 32.5202 141.8 33.035 141.597 33.4152Z" fill="white"/>
<path d="M144.29 34.5541V31.1708H144.674V31.6915C144.933 31.3073 145.265 31.1162 145.662 31.1162C145.992 31.1162 146.281 31.2391 146.526 31.4828C146.774 31.7285 146.897 32.0561 146.897 32.4656C146.897 32.8693 146.774 33.193 146.526 33.4406C146.281 33.6883 145.992 33.8111 145.662 33.8111C145.257 33.8111 144.925 33.6278 144.674 33.2612V34.556H144.29V34.5541ZM145.594 33.464C145.853 33.464 146.07 33.3724 146.243 33.191C146.417 33.0097 146.503 32.7659 146.503 32.4578C146.503 32.1614 146.415 31.9196 146.238 31.7363C146.062 31.5511 145.846 31.4594 145.592 31.4594C145.343 31.4594 145.124 31.555 144.937 31.7441C144.75 31.9333 144.656 32.1731 144.656 32.4637C144.656 32.7542 144.75 32.9921 144.937 33.1813C145.126 33.3704 145.345 33.464 145.594 33.464Z" fill="white"/>
<path d="M148.738 33.815C148.375 33.815 148.069 33.6902 147.821 33.4387C147.572 33.1871 147.449 32.8634 147.449 32.4656C147.449 32.0893 147.568 31.7695 147.804 31.5082C148.04 31.2469 148.336 31.1162 148.689 31.1162C149.059 31.1162 149.352 31.2469 149.568 31.5062C149.785 31.7656 149.894 32.0932 149.894 32.4851C149.894 32.5339 149.892 32.5807 149.888 32.6197H147.839C147.866 32.8829 147.964 33.0916 148.137 33.2476C148.309 33.4036 148.513 33.4796 148.749 33.4796C149.059 33.4796 149.33 33.3568 149.564 33.115L149.804 33.3295C149.514 33.6532 149.159 33.815 148.738 33.815ZM147.839 32.3096H149.502C149.479 32.06 149.397 31.8514 149.254 31.6876C149.112 31.5238 148.921 31.4399 148.677 31.4399C148.457 31.4399 148.27 31.5218 148.112 31.6856C147.958 31.8494 147.866 32.0561 147.839 32.3096Z" fill="white"/>
<path d="M150.567 33.7545V31.1708H150.951V32.2862H152.441V31.1708H152.825V33.7545H152.441V32.6255H150.951V33.7545H150.567Z" fill="white"/>
<path d="M154.457 33.8091C154.194 33.8091 153.967 33.7369 153.776 33.5946C153.587 33.4522 153.492 33.2514 153.492 32.994C153.492 32.7249 153.591 32.5162 153.792 32.37C153.993 32.2237 154.26 32.1496 154.597 32.1496C154.864 32.1496 155.128 32.1867 155.387 32.2588V32.1789C155.387 31.9527 155.321 31.7791 155.186 31.6582C155.054 31.5393 154.864 31.4788 154.621 31.4788C154.367 31.4788 154.106 31.5412 153.837 31.6641L153.722 31.3501C154.042 31.2039 154.356 31.1298 154.662 31.1298C155.028 31.1298 155.307 31.2253 155.496 31.4145C155.676 31.5939 155.765 31.8474 155.765 32.175V33.7545H155.385V33.3703C155.157 33.6628 154.847 33.8091 154.457 33.8091ZM154.531 33.499C154.771 33.499 154.974 33.4347 155.141 33.304C155.307 33.1734 155.391 33.0076 155.391 32.8029V32.563C155.137 32.4889 154.886 32.4538 154.636 32.4538C154.4 32.4538 154.215 32.5006 154.081 32.5962C153.948 32.6898 153.882 32.8204 153.882 32.9842C153.882 33.1402 153.944 33.267 154.069 33.3586C154.194 33.4503 154.348 33.499 154.531 33.499Z" fill="white"/>
<path d="M156.251 33.7545L157.312 32.2745L156.308 31.1688H156.772L158.086 32.6684V31.1688H158.47V32.6684L159.784 31.1688H160.248L159.244 32.2745L160.303 33.7545H159.853L158.993 32.5494L158.468 33.1247V33.7545H158.084V33.1247L157.559 32.5494L156.699 33.7545H156.251Z" fill="white"/>
<path d="M161.604 33.8091C161.34 33.8091 161.114 33.7369 160.923 33.5946C160.734 33.4522 160.638 33.2514 160.638 32.994C160.638 32.7249 160.738 32.5162 160.939 32.37C161.14 32.2237 161.407 32.1496 161.744 32.1496C162.011 32.1496 162.274 32.1867 162.534 32.2588V32.1789C162.534 31.9527 162.468 31.7791 162.333 31.6582C162.2 31.5393 162.011 31.4788 161.767 31.4788C161.514 31.4788 161.253 31.5412 160.984 31.6641L160.869 31.3501C161.188 31.2039 161.502 31.1298 161.808 31.1298C162.175 31.1298 162.454 31.2253 162.643 31.4145C162.822 31.5939 162.912 31.8474 162.912 32.175V33.7545H162.532V33.3703C162.304 33.6628 161.994 33.8091 161.604 33.8091ZM161.68 33.499C161.92 33.499 162.122 33.4347 162.29 33.304C162.456 33.1734 162.54 33.0076 162.54 32.8029V32.563C162.286 32.4889 162.035 32.4538 161.785 32.4538C161.549 32.4538 161.364 32.5006 161.229 32.5962C161.097 32.6898 161.03 32.8204 161.03 32.9842C161.03 33.1402 161.093 33.267 161.218 33.3586C161.342 33.4503 161.496 33.499 161.68 33.499Z" fill="white"/>
<path d="M18.0784 7.68506L22.8813 13.0281C24.1936 14.4886 24.802 16.1949 24.7084 18.1507C24.6363 20.1066 23.8699 21.7407 22.4094 23.053C20.9722 24.3459 19.2601 24.9387 17.275 24.8334C15.3016 24.6969 13.6675 23.911 12.3747 22.4719C11.0721 21.0231 10.4578 19.311 10.5339 17.3337C10.6294 15.3369 11.3958 13.693 12.8349 12.4002L18.0784 7.68506ZM17.9497 12.7336L15.286 15.1282C14.545 15.7932 14.1492 16.6122 14.0965 17.5852C14.0127 18.5661 14.2993 19.4221 14.9545 20.1514C15.6097 20.8807 16.4307 21.2571 17.4154 21.2785C18.3787 21.3195 19.2289 21.0075 19.9699 20.3406C20.7226 19.6639 21.1282 18.8469 21.1906 17.8855C21.2433 16.9144 20.9449 16.0681 20.2995 15.3486L17.9497 12.7336Z" fill="white"/>
<path d="M9.32685 26.1105C6.86205 23.7257 5.6316 20.7714 5.6316 17.2497C5.6316 13.847 6.87375 10.9824 9.3561 8.6541C11.8404 6.32775 14.4904 5.1636 18.1272 5.1636V0H18.5386C13.494 0 9.1416 1.7004 5.48535 5.1051C1.82715 8.50785 0 12.5561 0 17.2497C0 22.0214 1.83885 26.1476 5.5146 29.6283C9.19035 33.111 13.533 34.8504 18.5386 34.8504H25.2291V29.6868H18.5386C14.8609 29.6888 11.7916 28.4973 9.32685 26.1105Z" fill="white"/>
<path d="M21.881 0.00195312V5.16555H28.8678V34.8523H34.4994V0.00195312H21.881Z" fill="white"/>
<path d="M50.0897 0.00195312V5.16555H43.1047V34.8523H37.4712V0.00195312H50.0897Z" fill="#E08F4D"/>
</svg>
