<svg width="117" height="115" viewBox="0 0 117 115" fill="none" xmlns="http://www.w3.org/2000/svg">
<path d="M111.912 31.6084C110.605 31.2542 109.246 32.0336 108.892 33.3403L91.8 96.4018C89.9915 103.074 83.1014 107.009 76.4488 105.206L18.3966 89.4718C11.7242 87.6633 7.78928 80.7732 9.59239 74.1205L28.0313 6.08938L97.587 24.9415L81.0049 86.1221C80.6507 87.4288 81.4301 88.7878 82.7368 89.142C84.0436 89.4961 85.4026 88.7168 85.7567 87.41L102.983 23.8535C103.337 22.5467 102.558 21.1878 101.251 20.8336L26.9433 0.693528C25.6366 0.339346 24.2776 1.11873 23.9234 2.4255L4.84587 72.8128C2.32903 82.0988 7.82805 91.687 17.114 94.2038L75.1464 109.933C84.4324 112.45 94.0206 106.951 96.5374 97.6646L113.624 34.6229C113.998 33.3215 113.219 31.9625 111.912 31.6084Z" fill="white"/>
<path d="M84.7658 36.1742C86.0725 36.5284 87.4315 35.749 87.7857 34.4422C88.1399 33.1355 87.3605 31.7765 86.0537 31.4223L34.2581 17.3838C32.9514 17.0297 31.5924 17.809 31.2382 19.1158C30.8841 20.4226 31.6634 21.7815 32.9702 22.1357L84.7658 36.1742Z" fill="white"/>
<path d="M72.9275 79.852L21.1319 65.8135C19.8252 65.4593 18.4662 66.2387 18.112 67.5455C17.7578 68.8523 18.5372 70.2112 19.844 70.5654L71.6197 84.5985C72.9265 84.9527 74.2855 84.1733 74.6397 82.8666C74.9938 81.5598 74.2342 80.2062 72.9275 79.852Z" fill="white"/>
<path d="M69.6272 92.0286L26.0484 80.2172C24.7417 79.863 23.3827 80.6424 23.0285 81.9492C22.6743 83.256 23.4537 84.6149 24.7605 84.9691L68.3392 96.7805C69.646 97.1347 71.005 96.3553 71.3591 95.0486C71.7133 93.7418 70.9339 92.3828 69.6272 92.0286Z" fill="white"/>
<path d="M27.5537 29.5732L20.5881 55.273C20.2339 56.5798 21.0133 57.9387 22.3201 58.2929L48.1188 65.2853C49.4256 65.6395 50.7846 64.8601 51.1387 63.5533L58.1043 37.8536C58.4585 36.5468 57.6791 35.1878 56.3724 34.8336L30.5736 27.8412C29.2668 27.4871 27.9078 28.2664 27.5537 29.5732ZM31.6616 33.2371L52.7085 38.9416L47.0308 59.8895L25.9839 54.185L31.6616 33.2371Z" fill="white"/>
<path d="M83.7844 44.8137L66.6974 40.1825C65.3906 39.8284 64.0316 40.6077 63.6774 41.9145C63.3233 43.2213 64.1026 44.5802 65.4094 44.9344L82.4964 49.5656C83.8032 49.9198 85.1621 49.1404 85.5163 47.8337C85.8705 46.5269 85.1109 45.1733 83.7844 44.8137Z" fill="white"/>
<path d="M80.8758 55.5451L63.7888 50.9139C62.482 50.5597 61.1231 51.3391 60.7689 52.6458C60.4147 53.9526 61.1941 55.3116 62.5009 55.6657L79.5879 60.297C80.8946 60.6511 82.2536 59.8717 82.6078 58.565C82.9619 57.2582 82.2024 55.9046 80.8758 55.5451Z" fill="white"/>
<path d="M79.5167 69.9694C79.8709 68.6626 79.0915 67.3037 77.7847 66.9495L60.6977 62.3183C59.391 61.9641 58.032 62.7435 57.6778 64.0503C57.3236 65.357 58.103 66.716 59.4098 67.0702L76.4968 71.7014C77.8234 72.0609 79.1625 71.2762 79.5167 69.9694Z" fill="white"/>
</svg>
