<svg width="257" height="50" viewBox="0 0 257 50" fill="none" xmlns="http://www.w3.org/2000/svg">
<path d="M87.48 26.6522C85.4534 26.6522 83.7962 26.0881 82.5058 24.9572C81.2154 23.8263 80.5688 22.2458 80.5688 20.213C80.5688 18.1311 81.2915 16.5315 82.734 15.4116C84.1766 14.2943 86.138 13.7357 88.621 13.7357C90.4195 13.7357 92.0658 14.0027 93.5599 14.5368V14.1935C93.5599 11.959 92.1935 10.8417 89.4578 10.8417C87.6104 10.8417 85.7224 11.2232 83.799 11.9835L82.3184 6.8796C84.9019 5.8114 87.6729 5.28003 90.6368 5.28003C94.1821 5.28003 96.79 6.1166 98.4608 7.79519C99.9278 9.24217 100.664 11.4276 100.664 14.3488V26.1971H93.5246V24.0634C91.9734 25.7883 89.9604 26.6522 87.48 26.6522ZM90.0636 22.1178C91.1258 22.1178 91.987 21.8071 92.6471 21.1831C93.3046 20.5618 93.636 19.7416 93.636 18.7252V17.7714C92.7993 17.4172 91.862 17.2373 90.8243 17.2373C89.7865 17.2373 88.9769 17.4717 88.3928 17.9404C87.8115 18.4118 87.5208 19.0522 87.5208 19.8642C87.5208 20.5482 87.7544 21.0959 88.2244 21.5019C88.689 21.9161 89.3029 22.1178 90.0636 22.1178Z" fill="#5974B7"/>
<path d="M104.343 26.1935V5.58154H111.558V13.2388L117.141 5.58154H125.307L118.279 14.04L125.494 26.1935H117.556L113.644 19.6017L111.555 22.1169V26.1935H104.343Z" fill="#5974B7"/>
<path d="M127.247 26.1935V5.58154H139.439C141.946 5.58154 143.818 6.20284 145.06 7.44817C145.945 8.28475 146.391 9.40473 146.391 10.7999C146.391 12.9336 145.326 14.4705 143.202 15.4106C144.516 15.8439 145.5 16.457 146.146 17.2582C146.793 18.0593 147.114 19.1439 147.114 20.5173C147.114 22.294 146.429 23.6865 145.062 24.6893C143.696 25.6921 141.783 26.1935 139.328 26.1935H127.247ZM134.275 13.7729H136.706C137.516 13.7729 138.149 13.6067 138.605 13.277C139.061 12.9472 139.29 12.503 139.29 11.9444C139.29 11.4103 139.075 10.9852 138.643 10.6691C138.211 10.353 137.605 10.1922 136.82 10.1922H134.275V13.7729ZM134.275 21.5065H137.238C138.075 21.5065 138.725 21.3348 139.194 20.9914C139.662 20.6481 139.898 20.1712 139.898 19.5635C139.898 19.0049 139.664 18.5471 139.194 18.1929C138.725 17.8386 138.048 17.6588 137.162 17.6588H134.275V21.5065Z" fill="#5974B7"/>
<path d="M156.263 26.6512C154.237 26.6512 152.579 26.0871 151.289 24.9563C149.999 23.8254 149.352 22.2449 149.352 20.212C149.352 18.1301 150.072 16.5306 151.517 15.4106C152.96 14.2933 154.921 13.7347 157.404 13.7347C159.203 13.7347 160.849 14.0018 162.343 14.5359V14.1925C162.343 11.958 160.977 10.8408 158.241 10.8408C156.391 10.8408 154.506 11.2223 152.582 11.9825L151.102 6.87863C153.685 5.81043 156.456 5.27905 159.42 5.27905C162.965 5.27905 165.573 6.11562 167.244 7.79422C168.714 9.24119 169.447 11.4266 169.447 14.3478V26.1961H162.308V24.0625C160.759 25.7874 158.746 26.6512 156.263 26.6512ZM158.847 22.1168C159.909 22.1168 160.77 21.8062 161.43 21.1821C162.088 20.5608 162.416 19.7406 162.416 18.7242V17.7704C161.582 17.4162 160.645 17.2363 159.607 17.2363C158.567 17.2363 157.757 17.4707 157.176 17.9394C156.595 18.4108 156.304 19.0512 156.304 19.8632C156.304 20.5472 156.538 21.0949 157.008 21.501C157.472 21.9152 158.086 22.1168 158.847 22.1168Z" fill="#5974B7"/>
<path d="M172.71 17.4681V11.1052H185.169V17.4681H172.71Z" fill="#5974B7"/>
<path d="M193.069 26.1935V11.4103H187.068V5.58154H206.285V11.4103H200.284V26.1935H193.069Z" fill="#E08F4D"/>
<path d="M219.086 26.6894C215.845 26.6894 213.148 25.6403 210.996 23.5447C208.844 21.4492 207.766 18.9041 207.766 15.9066C207.766 12.9336 208.85 10.3966 211.015 8.28747C213.18 6.18104 215.897 5.12646 219.162 5.12646C222.403 5.12646 225.101 6.17559 227.253 8.26839C229.404 10.3639 230.48 12.9118 230.48 15.9066C230.48 18.8795 229.399 21.4192 227.234 23.5257C225.068 25.6348 222.354 26.6894 219.086 26.6894ZM219.162 20.5554C220.453 20.5554 221.49 20.1112 222.278 19.2229C223.063 18.3345 223.455 17.2309 223.455 15.9093C223.455 14.6394 223.036 13.5467 222.202 12.6338C221.368 11.7182 220.328 11.2632 219.089 11.2632C217.799 11.2632 216.758 11.7073 215.973 12.5957C215.188 13.4868 214.794 14.5904 214.794 15.9093C214.794 17.1791 215.212 18.2719 216.046 19.1875C216.883 20.0976 217.921 20.5554 219.162 20.5554Z" fill="#E08F4D"/>
<path d="M233.52 32.2893V5.58154H240.735V8.32562C242.482 6.19194 244.558 5.12646 246.965 5.12646C249.497 5.12646 251.648 6.11019 253.422 8.08037C255.194 10.0505 256.082 12.6475 256.082 15.8711C256.082 19.1221 255.202 21.7326 253.441 23.7001C251.681 25.6703 249.535 26.654 247.003 26.654C244.52 26.654 242.433 25.6648 240.735 23.681V32.292H233.52V32.2893ZM244.762 20.5936C245.951 20.5936 246.951 20.1494 247.763 19.2611C248.573 18.3727 248.978 17.2282 248.978 15.833C248.978 14.4868 248.573 13.375 247.763 12.5003C246.954 11.6256 245.951 11.1869 244.762 11.1869C243.596 11.1869 242.61 11.631 241.798 12.5194C240.988 13.4077 240.583 14.5386 240.583 15.9093C240.583 17.2555 240.988 18.3727 241.798 19.2611C242.61 20.1494 243.596 20.5936 244.762 20.5936Z" fill="#E08F4D"/>
<path d="M81.2725 40.4342V39.0581H81.6637C81.9842 38.4668 82.1445 37.6302 82.1445 36.5511V35.9216H84.7063V39.0581H85.2496L85.1654 40.4342H84.7199V39.5323H81.8104L81.7126 40.4342H81.2725ZM82.2342 39.0581H84.1711V36.3958H82.6607V36.8999C82.6579 37.8101 82.5167 38.5295 82.2342 39.0581Z" fill="#5974B7"/>
<path d="M88.9743 39.061C88.613 39.4316 88.1647 39.6169 87.6295 39.6169C87.0944 39.6169 86.6515 39.4343 86.2956 39.0664C85.9398 38.6985 85.7632 38.2544 85.7632 37.7312C85.7632 37.2134 85.9425 36.772 86.3038 36.4014C86.6651 36.0308 87.1107 35.8455 87.6458 35.8455C88.1783 35.8455 88.6266 36.028 88.9824 36.3959C89.341 36.7638 89.5176 37.208 89.5176 37.7312C89.5176 38.2489 89.3383 38.6931 88.9743 39.061ZM87.6458 39.1345C88.0316 39.1345 88.3467 39.001 88.5967 38.7285C88.8439 38.4587 88.9689 38.1263 88.9689 37.7284C88.9689 37.336 88.8412 37.0063 88.5831 36.7311C88.325 36.4559 88.0072 36.3196 87.6323 36.3196C87.2465 36.3196 86.9313 36.4559 86.6841 36.7284C86.4369 37.0009 86.3147 37.336 86.3147 37.7312C86.3147 38.1236 86.4424 38.4533 86.6977 38.7258C86.9531 38.9983 87.2682 39.1345 87.6458 39.1345Z" fill="#5974B7"/>
<path d="M92.1092 39.6169C91.5904 39.6169 91.153 39.4316 90.7971 39.061C90.4412 38.6904 90.2646 38.2489 90.2646 37.7312C90.2646 37.2134 90.4412 36.772 90.7971 36.4014C91.153 36.0308 91.5904 35.8455 92.1092 35.8455C92.6662 35.8455 93.147 36.0607 93.5518 36.4886L93.2095 36.851C92.8753 36.4967 92.5059 36.3196 92.1011 36.3196C91.7398 36.3196 91.4328 36.4559 91.1856 36.7284C90.9384 37.0009 90.8134 37.336 90.8134 37.7312C90.8134 38.1236 90.9411 38.4533 91.1937 38.7258C91.4464 38.9983 91.7615 39.1345 92.1364 39.1345C92.5222 39.1345 92.8835 38.9547 93.2231 38.5895L93.579 38.9165C93.1606 39.3852 92.6689 39.6169 92.1092 39.6169Z" fill="#5974B7"/>
<path d="M95.3339 39.535V36.3985H94.0461V35.9243H97.1649V36.3985H95.8772V39.535H95.3339Z" fill="#5974B7"/>
<path d="M98.5015 40.6713C98.2407 40.6713 97.9853 40.6113 97.7354 40.4887L97.9174 40.0636C98.0885 40.1508 98.276 40.1971 98.4825 40.1971C98.6455 40.1971 98.7813 40.1481 98.8927 40.0472C99.0041 39.9464 99.1127 39.772 99.2187 39.5213L97.5833 35.9243H98.1755L99.4849 38.9354L100.642 35.9243H101.213L99.7022 39.6548C99.5501 40.0227 99.379 40.2843 99.1942 40.4396C99.0041 40.595 98.7759 40.6713 98.5015 40.6713Z" fill="#5974B7"/>
<path d="M102.06 39.535V35.9243H105.179V39.535H104.644V36.3985H102.595V39.535H102.06Z" fill="#5974B7"/>
<path d="M106.377 39.535V35.9243H106.912V37.483H108.988V35.9243H109.523V39.535H108.988V37.9572H106.912V39.535H106.377Z" fill="#5974B7"/>
<path d="M113.709 39.061C113.348 39.4316 112.9 39.6169 112.365 39.6169C111.829 39.6169 111.387 39.4343 111.031 39.0664C110.675 38.6985 110.498 38.2544 110.498 37.7312C110.498 37.2134 110.678 36.772 111.039 36.4014C111.4 36.0308 111.846 35.8455 112.381 35.8455C112.913 35.8455 113.362 36.028 113.718 36.3959C114.076 36.7638 114.253 37.208 114.253 37.7312C114.253 38.2489 114.071 38.6931 113.709 39.061ZM112.378 39.1345C112.764 39.1345 113.079 39.001 113.329 38.7285C113.576 38.4587 113.701 38.1263 113.701 37.7284C113.701 37.336 113.574 37.0063 113.315 36.7311C113.057 36.4559 112.74 36.3196 112.365 36.3196C111.979 36.3196 111.664 36.4559 111.417 36.7284C111.169 37.0009 111.047 37.336 111.047 37.7312C111.047 38.1236 111.175 38.4533 111.43 38.7258C111.685 38.9983 112.003 39.1345 112.378 39.1345Z" fill="#5974B7"/>
<path d="M116.793 39.6169C116.287 39.6169 115.861 39.4425 115.516 39.0909C115.171 38.7394 114.997 38.2871 114.997 37.7312C114.997 37.2052 115.163 36.7583 115.492 36.3932C115.82 36.028 116.233 35.8455 116.725 35.8455C117.241 35.8455 117.649 36.028 117.95 36.3905C118.252 36.7529 118.404 37.2107 118.404 37.7584C118.404 37.8265 118.401 37.8919 118.396 37.9464H115.54C115.578 38.3143 115.714 38.6059 115.956 38.8239C116.195 39.0419 116.48 39.1482 116.809 39.1482C117.241 39.1482 117.619 38.9765 117.945 38.6386L118.279 38.9383C117.871 39.3907 117.38 39.6169 116.793 39.6169ZM115.54 37.5159H117.86C117.828 37.1671 117.714 36.8755 117.515 36.6466C117.317 36.4177 117.051 36.3005 116.711 36.3005C116.404 36.3005 116.144 36.415 115.923 36.6439C115.703 36.8701 115.578 37.1616 115.54 37.5159Z" fill="#5974B7"/>
<path d="M124.419 39.061C124.057 39.4316 123.609 39.6169 123.074 39.6169C122.539 39.6169 122.096 39.4343 121.74 39.0664C121.384 38.6985 121.208 38.2544 121.208 37.7312C121.208 37.2134 121.387 36.772 121.748 36.4014C122.109 36.0308 122.555 35.8455 123.09 35.8455C123.623 35.8455 124.071 36.028 124.427 36.3959C124.785 36.7638 124.962 37.208 124.962 37.7312C124.962 38.2489 124.78 38.6931 124.419 39.061ZM123.087 39.1345C123.473 39.1345 123.788 39.001 124.038 38.7285C124.286 38.4587 124.41 38.1263 124.41 37.7284C124.41 37.336 124.283 37.0063 124.025 36.7311C123.767 36.4559 123.449 36.3196 123.074 36.3196C122.688 36.3196 122.373 36.4559 122.126 36.7284C121.879 37.0009 121.756 37.336 121.756 37.7312C121.756 38.1236 121.884 38.4533 122.139 38.7258C122.395 38.9983 122.713 39.1345 123.087 39.1345Z" fill="#5974B7"/>
<path d="M127.621 39.6167C127.07 39.6167 126.627 39.4341 126.296 39.069C125.964 38.7038 125.799 38.2079 125.799 37.5838C125.799 37.3549 125.804 37.1615 125.812 37.0007C125.82 36.8399 125.839 36.6628 125.867 36.4666C125.894 36.2704 125.937 36.1042 126 35.9625C126.059 35.8235 126.138 35.6845 126.233 35.551C126.328 35.4175 126.453 35.303 126.605 35.2076C126.758 35.115 126.937 35.0442 127.141 34.9978L129.146 34.5237L129.249 34.9787L127.298 35.4611C126.937 35.5537 126.676 35.7009 126.521 35.9052C126.366 36.1069 126.274 36.3876 126.247 36.7473C126.554 36.2241 127.051 35.9652 127.738 35.9652C128.211 35.9652 128.618 36.1396 128.958 36.4911C129.298 36.8426 129.466 37.265 129.466 37.7582C129.466 38.2705 129.29 38.7093 128.936 39.0717C128.583 39.4368 128.146 39.6167 127.621 39.6167ZM127.635 39.1344C128.002 39.1344 128.306 39.0036 128.548 38.7392C128.79 38.4776 128.909 38.1534 128.909 37.7719C128.909 37.3958 128.784 37.0743 128.537 36.8072C128.29 36.5402 127.983 36.4094 127.621 36.4094C127.255 36.4094 126.95 36.5402 126.709 36.8045C126.467 37.0661 126.347 37.3904 126.347 37.7719C126.347 38.1479 126.472 38.4695 126.72 38.7365C126.967 39.0036 127.274 39.1344 127.635 39.1344Z" fill="#5974B7"/>
<path d="M133.422 39.061C133.06 39.4316 132.612 39.6169 132.077 39.6169C131.542 39.6169 131.099 39.4343 130.743 39.0664C130.387 38.6985 130.21 38.2544 130.21 37.7312C130.21 37.2134 130.39 36.772 130.751 36.4014C131.11 36.0308 131.558 35.8455 132.093 35.8455C132.626 35.8455 133.074 36.028 133.43 36.3959C133.788 36.7638 133.965 37.208 133.965 37.7312C133.965 38.2489 133.783 38.6931 133.422 39.061ZM132.093 39.1345C132.479 39.1345 132.794 39.001 133.044 38.7285C133.291 38.4587 133.416 38.1263 133.416 37.7284C133.416 37.336 133.288 37.0063 133.03 36.7311C132.772 36.4559 132.454 36.3196 132.08 36.3196C131.694 36.3196 131.379 36.4559 131.131 36.7284C130.884 37.0009 130.762 37.336 130.762 37.7312C130.762 38.1236 130.89 38.4533 131.145 38.7258C131.4 38.9983 131.715 39.1345 132.093 39.1345Z" fill="#5974B7"/>
<path d="M134.932 40.6523V35.9244H135.467V36.652C135.829 36.1152 136.288 35.8481 136.847 35.8481C137.307 35.8481 137.709 36.0198 138.051 36.3604C138.393 36.7038 138.567 37.1616 138.567 37.7338C138.567 38.2979 138.396 38.7503 138.051 39.0963C137.709 39.4424 137.307 39.6141 136.847 39.6141C136.28 39.6141 135.82 39.3579 135.467 38.8456V40.655H134.932V40.6523ZM136.75 39.129C137.111 39.129 137.412 39.001 137.654 38.7475C137.896 38.4941 138.016 38.1535 138.016 37.7229C138.016 37.3087 137.893 36.9708 137.646 36.7147C137.399 36.4558 137.1 36.3277 136.747 36.3277C136.399 36.3277 136.095 36.4613 135.834 36.7256C135.573 36.9899 135.443 37.3251 135.443 37.7311C135.443 38.1371 135.573 38.4696 135.834 38.7339C136.098 38.9982 136.402 39.129 136.75 39.129Z" fill="#5974B7"/>
<path d="M140.113 40.6713C139.852 40.6713 139.597 40.6113 139.347 40.4887L139.529 40.0636C139.7 40.1508 139.887 40.1971 140.094 40.1971C140.257 40.1971 140.393 40.1481 140.504 40.0472C140.615 39.9464 140.724 39.772 140.83 39.5213L139.195 35.9243H139.787L141.096 38.9354L142.254 35.9243H142.824L141.314 39.6548C141.161 40.0227 140.99 40.2843 140.806 40.4396C140.618 40.595 140.387 40.6713 140.113 40.6713Z" fill="#5974B7"/>
<path d="M143.142 40.4342V39.0581H143.533C143.854 38.4668 144.014 37.6302 144.014 36.5511V35.9216H146.576V39.0581H147.119L147.035 40.4342H146.589V39.5323H143.68L143.582 40.4342H143.142ZM144.104 39.0581H146.041V36.3958H144.53V36.8999C144.527 37.8101 144.386 38.5295 144.104 39.0581Z" fill="#5974B7"/>
<path d="M150.843 39.061C150.482 39.4316 150.034 39.6169 149.499 39.6169C148.966 39.6169 148.521 39.4343 148.165 39.0664C147.809 38.6985 147.632 38.2544 147.632 37.7312C147.632 37.2134 147.812 36.772 148.173 36.4014C148.534 36.0308 148.98 35.8455 149.515 35.8455C150.047 35.8455 150.496 36.028 150.852 36.3959C151.21 36.7638 151.387 37.208 151.387 37.7312C151.387 38.2489 151.207 38.6931 150.843 39.061ZM149.515 39.1345C149.901 39.1345 150.216 39.001 150.466 38.7285C150.713 38.4587 150.838 38.1263 150.838 37.7284C150.838 37.336 150.71 37.0063 150.452 36.7311C150.194 36.4559 149.876 36.3196 149.501 36.3196C149.116 36.3196 148.8 36.4559 148.556 36.7284C148.309 37.0009 148.187 37.336 148.187 37.7312C148.187 38.1236 148.314 38.4533 148.57 38.7258C148.822 38.9983 149.137 39.1345 149.515 39.1345Z" fill="#5974B7"/>
<path d="M152.354 39.535V35.9243H154.095C154.454 35.9243 154.739 36.0061 154.951 36.1696C155.166 36.3331 155.272 36.5511 155.272 36.8263C155.272 37.2132 155.073 37.4885 154.674 37.6574C155.204 37.8019 155.467 38.0989 155.467 38.5512C155.467 38.8537 155.348 39.0935 155.111 39.2706C154.875 39.4477 154.557 39.535 154.158 39.535H152.354ZM152.892 37.4721H154C154.223 37.4721 154.4 37.4231 154.533 37.3222C154.666 37.2214 154.731 37.0797 154.731 36.8917C154.731 36.7391 154.669 36.6137 154.544 36.5211C154.419 36.4284 154.242 36.3821 154.014 36.3821H152.892V37.4721ZM152.892 39.0717H154.09C154.345 39.0717 154.546 39.0172 154.696 38.9109C154.845 38.8046 154.919 38.6548 154.919 38.464C154.919 38.2869 154.84 38.1506 154.685 38.0525C154.53 37.9544 154.307 37.9054 154.019 37.9054H152.892V39.0717Z" fill="#5974B7"/>
<path d="M157.508 39.6111C157.141 39.6111 156.826 39.5103 156.559 39.3114C156.296 39.1124 156.163 38.8318 156.163 38.4721C156.163 38.096 156.301 37.8044 156.581 37.6C156.861 37.3957 157.233 37.2921 157.703 37.2921C158.075 37.2921 158.442 37.3439 158.803 37.4447V37.333C158.803 37.0169 158.711 36.7744 158.524 36.6054C158.339 36.4392 158.075 36.3547 157.736 36.3547C157.383 36.3547 157.019 36.4419 156.644 36.6136L156.483 36.1749C156.929 35.9705 157.366 35.8669 157.793 35.8669C158.304 35.8669 158.692 36.0005 158.956 36.2648C159.206 36.5155 159.331 36.8697 159.331 37.3275V39.5348H158.801V38.998C158.483 39.4067 158.051 39.6111 157.508 39.6111ZM157.614 39.1778C157.948 39.1778 158.23 39.0879 158.464 38.9053C158.695 38.7228 158.812 38.4911 158.812 38.205V37.8698C158.458 37.7663 158.108 37.7172 157.76 37.7172C157.432 37.7172 157.173 37.7826 156.986 37.9161C156.801 38.0469 156.709 38.2295 156.709 38.4584C156.709 38.6764 156.796 38.8536 156.97 38.9816C157.144 39.1097 157.358 39.1778 157.614 39.1778Z" fill="#5974B7"/>
<path d="M160.466 39.535V35.9243H161.001V37.483H163.077V35.9243H163.612V39.535H163.077V37.9572H161.001V39.535H160.466Z" fill="#5974B7"/>
<path d="M164.813 39.535V35.9243H165.348V38.7801L167.486 35.9243H168.008V39.535H167.472V36.6791L165.329 39.535H164.813Z" fill="#5974B7"/>
<path d="M170.781 39.6169C170.276 39.6169 169.849 39.4425 169.504 39.0909C169.157 38.7394 168.986 38.2871 168.986 37.7312C168.986 37.2052 169.151 36.7583 169.48 36.3932C169.809 36.028 170.222 35.8455 170.713 35.8455C171.23 35.8455 171.637 36.028 171.939 36.3905C172.24 36.7529 172.392 37.2107 172.392 37.7584C172.392 37.8265 172.39 37.8919 172.384 37.9464H169.526C169.564 38.3143 169.7 38.6059 169.942 38.8239C170.181 39.0419 170.466 39.1482 170.795 39.1482C171.227 39.1482 171.604 38.9765 171.93 38.6386L172.265 38.9383C171.86 39.3907 171.365 39.6169 170.781 39.6169ZM169.526 37.5159H171.844C171.811 37.1671 171.697 36.8755 171.499 36.6466C171.3 36.4177 171.034 36.3005 170.694 36.3005C170.387 36.3005 170.127 36.415 169.907 36.6439C169.692 36.8701 169.564 37.1616 169.526 37.5159Z" fill="#5974B7"/>
<path d="M174.889 40.4342V39.0581H175.28C175.6 38.4668 175.761 37.6302 175.761 36.5511V35.9216H178.323V39.0581H178.866L178.782 40.4342H178.336V39.5323H175.427L175.329 40.4342H174.889ZM175.85 39.0581H177.787V36.3958H176.277V36.8999C176.274 37.8101 176.133 38.5295 175.85 39.0581Z" fill="#5974B7"/>
<path d="M179.428 39.5895C179.29 39.5895 179.146 39.5704 178.996 39.5323L179.059 39.0718C179.165 39.1045 179.252 39.1208 179.317 39.1208C179.42 39.1208 179.502 39.1072 179.567 39.0826C179.632 39.0581 179.703 38.99 179.779 38.881C179.855 38.772 179.915 38.6167 179.955 38.415C179.999 38.2161 180.034 37.9327 180.064 37.5621C180.094 37.1942 180.11 36.7473 180.11 36.2214V35.9216H182.658V39.5323H182.123V36.3958H180.618V36.4803C180.618 37.0307 180.596 37.4967 180.556 37.8836C180.512 38.2706 180.461 38.5731 180.398 38.7911C180.336 39.0091 180.249 39.1807 180.137 39.3007C180.026 39.4206 179.917 39.4996 179.814 39.535C179.711 39.5731 179.58 39.5895 179.428 39.5895Z" fill="#5974B7"/>
<path d="M183.536 39.535L184.636 38.137C184.354 38.0716 184.123 37.9435 183.943 37.7528C183.764 37.562 183.674 37.3277 183.674 37.047C183.674 36.7118 183.797 36.4393 184.036 36.235C184.278 36.0279 184.609 35.9243 185.033 35.9243H186.725V39.535H186.19V38.2215H185.193C185.152 38.2787 185.008 38.4695 184.761 38.7937C184.514 39.1207 184.326 39.366 184.196 39.535H183.536ZM185.076 37.7664H186.19V36.3985H185.063C184.799 36.3985 184.59 36.4584 184.441 36.5756C184.288 36.6928 184.215 36.859 184.215 37.0688C184.215 37.2841 184.297 37.453 184.454 37.5784C184.612 37.7037 184.821 37.7664 185.076 37.7664Z" fill="#5974B7"/>
<path d="M191.634 39.6169C191.116 39.6169 190.678 39.4316 190.322 39.061C189.966 38.6904 189.79 38.2489 189.79 37.7312C189.79 37.2134 189.966 36.772 190.322 36.4014C190.678 36.0308 191.116 35.8455 191.634 35.8455C192.191 35.8455 192.672 36.0607 193.077 36.4886L192.735 36.851C192.401 36.4967 192.031 36.3196 191.626 36.3196C191.265 36.3196 190.958 36.4559 190.711 36.7284C190.464 37.0009 190.339 37.336 190.339 37.7312C190.339 38.1236 190.466 38.4533 190.719 38.7258C190.972 38.9983 191.287 39.1345 191.662 39.1345C192.047 39.1345 192.409 38.9547 192.748 38.5895L193.104 38.9165C192.686 39.3852 192.197 39.6169 191.634 39.6169Z" fill="#5974B7"/>
<path d="M193.99 39.535V35.9243H194.525V38.7801L196.663 35.9243H197.185V39.535H196.649V36.6791L194.506 39.535H193.99Z" fill="#5974B7"/>
<path d="M200.004 39.6169C199.485 39.6169 199.048 39.4316 198.692 39.061C198.336 38.6904 198.16 38.2489 198.16 37.7312C198.16 37.2134 198.336 36.772 198.692 36.4014C199.048 36.0308 199.485 35.8455 200.004 35.8455C200.561 35.8455 201.042 36.0607 201.447 36.4886L201.105 36.851C200.77 36.4967 200.401 36.3196 199.996 36.3196C199.635 36.3196 199.328 36.4559 199.081 36.7284C198.833 37.0009 198.708 37.336 198.708 37.7312C198.708 38.1236 198.836 38.4533 199.089 38.7258C199.341 38.9983 199.657 39.1345 200.031 39.1345C200.417 39.1345 200.779 38.9547 201.118 38.5895L201.474 38.9165C201.056 39.3852 200.567 39.6169 200.004 39.6169Z" fill="#5974B7"/>
<path d="M203.229 39.535V36.3985H201.941V35.9243H205.06V36.3985H203.772V39.535H203.229Z" fill="#5974B7"/>
<path d="M207.413 39.6169C206.907 39.6169 206.481 39.4425 206.136 39.0909C205.788 38.7394 205.617 38.2871 205.617 37.7312C205.617 37.2052 205.783 36.7583 206.111 36.3932C206.44 36.028 206.853 35.8455 207.345 35.8455C207.861 35.8455 208.268 36.028 208.57 36.3905C208.872 36.7529 209.024 37.2107 209.024 37.7584C209.024 37.8265 209.021 37.8919 209.016 37.9464H206.16C206.198 38.3143 206.334 38.6059 206.576 38.8239C206.815 39.0419 207.1 39.1482 207.429 39.1482C207.861 39.1482 208.239 38.9765 208.565 38.6386L208.899 38.9383C208.494 39.3907 207.999 39.6169 207.413 39.6169ZM206.16 37.5159H208.478C208.445 37.1671 208.331 36.8755 208.133 36.6466C207.934 36.4177 207.668 36.3005 207.328 36.3005C207.021 36.3005 206.761 36.415 206.541 36.6439C206.326 36.8701 206.198 37.1616 206.16 37.5159Z" fill="#5974B7"/>
<path d="M209.964 39.535V35.9243H210.472L211.816 37.8236L213.161 35.9243H213.677V39.535H213.134V36.7827L211.803 38.6112L210.488 36.7827V39.535H209.964Z" fill="#5974B7"/>
<path d="M219.947 39.061C219.586 39.4316 219.138 39.6169 218.603 39.6169C218.07 39.6169 217.625 39.4343 217.269 39.0664C216.913 38.6985 216.736 38.2544 216.736 37.7312C216.736 37.2134 216.916 36.772 217.277 36.4014C217.636 36.0308 218.084 35.8455 218.616 35.8455C219.151 35.8455 219.597 36.028 219.953 36.3959C220.309 36.7638 220.488 37.208 220.488 37.7312C220.491 38.2489 220.311 38.6931 219.947 39.061ZM218.619 39.1345C219.005 39.1345 219.32 39.001 219.57 38.7285C219.817 38.4587 219.942 38.1263 219.942 37.7284C219.942 37.336 219.812 37.0063 219.556 36.7311C219.301 36.4559 218.983 36.3196 218.605 36.3196C218.22 36.3196 217.904 36.4559 217.657 36.7284C217.413 37.0009 217.288 37.336 217.288 37.7312C217.288 38.1236 217.415 38.4533 217.671 38.7258C217.926 38.9983 218.241 39.1345 218.619 39.1345Z" fill="#5974B7"/>
<path d="M222.33 39.535V36.3985H221.042V35.9243H224.161V36.3985H222.873V39.535H222.33Z" fill="#5974B7"/>
<path d="M227.929 39.061C227.568 39.4316 227.119 39.6169 226.584 39.6169C226.052 39.6169 225.606 39.4343 225.25 39.0664C224.894 38.6985 224.718 38.2544 224.718 37.7312C224.718 37.2134 224.897 36.772 225.258 36.4014C225.617 36.0308 226.065 35.8455 226.598 35.8455C227.133 35.8455 227.578 36.028 227.934 36.3959C228.29 36.7638 228.47 37.208 228.47 37.7312C228.47 38.2489 228.29 38.6931 227.929 39.061ZM226.598 39.1345C226.984 39.1345 227.299 39.001 227.549 38.7285C227.796 38.4587 227.921 38.1263 227.921 37.7284C227.921 37.336 227.79 37.0063 227.535 36.7311C227.28 36.4559 226.962 36.3196 226.584 36.3196C226.198 36.3196 225.883 36.4559 225.636 36.7284C225.392 37.0009 225.267 37.336 225.267 37.7312C225.267 38.1236 225.394 38.4533 225.65 38.7258C225.905 38.9983 226.223 39.1345 226.598 39.1345Z" fill="#5974B7"/>
<path d="M229.439 39.535V35.9243H232.558V39.535H232.023V36.3985H229.975V39.535H229.439Z" fill="#5974B7"/>
<path d="M233.582 39.5895C233.444 39.5895 233.3 39.5704 233.15 39.5323L233.213 39.0718C233.319 39.1045 233.406 39.1208 233.471 39.1208C233.574 39.1208 233.656 39.1072 233.721 39.0826C233.786 39.0581 233.857 38.99 233.933 38.881C234.009 38.772 234.069 38.6167 234.109 38.415C234.153 38.2161 234.188 37.9327 234.218 37.5621C234.248 37.1915 234.264 36.7473 234.264 36.2214V35.9216H236.813V39.5323H236.277V36.3958H234.772V36.4803C234.772 37.0307 234.751 37.4967 234.71 37.8836C234.666 38.2706 234.615 38.5731 234.552 38.7911C234.49 39.0091 234.403 39.1807 234.291 39.3007C234.18 39.4206 234.071 39.4996 233.968 39.535C233.865 39.5731 233.734 39.5895 233.582 39.5895Z" fill="#5974B7"/>
<path d="M239.584 39.6169C239.078 39.6169 238.652 39.4425 238.307 39.0909C237.959 38.7394 237.788 38.2871 237.788 37.7312C237.788 37.2052 237.954 36.7583 238.282 36.3932C238.611 36.028 239.024 35.8455 239.516 35.8455C240.032 35.8455 240.439 36.028 240.741 36.3905C241.042 36.7529 241.194 37.2107 241.194 37.7584C241.194 37.8265 241.192 37.8919 241.186 37.9464H238.331C238.369 38.3143 238.505 38.6059 238.747 38.8239C238.986 39.0419 239.271 39.1482 239.6 39.1482C240.032 39.1482 240.409 38.9765 240.735 38.6386L241.07 38.9383C240.665 39.3907 240.17 39.6169 239.584 39.6169ZM238.331 37.5159H240.648C240.616 37.1671 240.502 36.8755 240.303 36.6466C240.105 36.4177 239.839 36.3005 239.499 36.3005C239.192 36.3005 238.932 36.415 238.711 36.6439C238.497 36.8701 238.369 37.1616 238.331 37.5159Z" fill="#5974B7"/>
<path d="M242.132 39.535V35.9243H242.667V37.483H244.743V35.9243H245.278V39.535H244.743V37.9572H242.667V39.535H242.132Z" fill="#5974B7"/>
<path d="M246.479 39.535V35.9243H247.014V38.7801L249.152 35.9243H249.673V39.535H249.138V36.6791L246.995 39.535H246.479Z" fill="#5974B7"/>
<path d="M250.551 39.535L251.651 38.137C251.368 38.0716 251.137 37.9435 250.958 37.7528C250.779 37.562 250.689 37.3277 250.689 37.047C250.689 36.7118 250.811 36.4393 251.05 36.235C251.292 36.0279 251.624 35.9243 252.047 35.9243H253.74V39.535H253.205V38.2215H252.208C252.167 38.2787 252.023 38.4695 251.776 38.7937C251.529 39.1207 251.341 39.366 251.211 39.535H250.551ZM252.091 37.7664H253.205V36.3985H252.077C251.814 36.3985 251.605 36.4584 251.455 36.5756C251.303 36.6928 251.23 36.859 251.23 37.0688C251.23 37.2841 251.311 37.453 251.471 37.5784C251.626 37.7037 251.836 37.7664 252.091 37.7664Z" fill="#5974B7"/>
<path d="M254.742 40.3853L254.658 40.14C254.968 40.0229 255.125 39.843 255.125 39.6032V39.5323H254.876V38.7993H255.517V39.4288C255.517 39.7095 255.454 39.922 255.332 40.0719C255.21 40.2218 255.014 40.3253 254.742 40.3853Z" fill="#5974B7"/>
<path d="M81.8022 47.8162V44.2056H83.5436C83.9022 44.2056 84.1875 44.2873 84.3994 44.4508C84.614 44.6143 84.7199 44.8323 84.7199 45.1075C84.7199 45.4945 84.5216 45.7697 84.1196 45.9386C84.6493 46.0831 84.9128 46.3801 84.9128 46.8324C84.9128 47.1349 84.7933 47.3747 84.5569 47.5518C84.3206 47.729 84.0027 47.8162 83.6034 47.8162H81.8022ZM82.3401 45.7561H83.4485C83.6713 45.7561 83.8479 45.707 83.981 45.6062C84.1141 45.5054 84.1793 45.3637 84.1793 45.1757C84.1793 45.0231 84.1168 44.8977 83.9919 44.8051C83.8669 44.7124 83.6903 44.6661 83.4621 44.6661H82.3401V45.7561ZM82.3401 47.3556H83.5382C83.7936 47.3556 83.9946 47.3011 84.144 47.1949C84.2934 47.0886 84.3668 46.9387 84.3668 46.748C84.3668 46.5708 84.288 46.4346 84.1331 46.3365C83.9783 46.2384 83.7555 46.1894 83.4676 46.1894H82.3401V47.3556Z" fill="#5974B7"/>
<path d="M88.871 47.3449C88.5097 47.7155 88.0614 47.9008 87.5263 47.9008C86.9911 47.9008 86.5483 47.7182 86.1924 47.3503C85.8365 46.9825 85.6599 46.5383 85.6599 46.0151C85.6599 45.4973 85.8392 45.0559 86.2005 44.6853C86.5618 44.3147 87.0074 44.1294 87.5426 44.1294C88.075 44.1294 88.5233 44.312 88.8792 44.6798C89.2378 45.0477 89.4143 45.4919 89.4143 46.0151C89.4143 46.5301 89.2323 46.9743 88.871 47.3449ZM87.5426 47.4185C87.9283 47.4185 88.2435 47.2849 88.4934 47.0124C88.7406 46.7427 88.8656 46.4102 88.8656 46.0124C88.8656 45.62 88.7379 45.2902 88.4798 45.015C88.2217 44.7398 87.9039 44.6035 87.529 44.6035C87.1432 44.6035 86.8281 44.7398 86.5809 45.0123C86.3336 45.2848 86.2114 45.62 86.2114 46.0151C86.2114 46.4075 86.3391 46.7372 86.5944 47.0097C86.8498 47.2822 87.1649 47.4185 87.5426 47.4185Z" fill="#5974B7"/>
<path d="M89.8518 48.7181V47.342H90.243C90.5636 46.7507 90.7239 45.9141 90.7239 44.835V44.2056H93.2857V47.342H93.829L93.7448 48.7181H93.2993V47.8162H90.3897L90.2919 48.7181H89.8518ZM90.8135 47.342H92.7505V44.6797H91.24V45.1838C91.24 46.0913 91.096 46.8106 90.8135 47.342Z" fill="#5974B7"/>
<path d="M97.5534 47.3449C97.1921 47.7155 96.7438 47.9008 96.2086 47.9008C95.6735 47.9008 95.2306 47.7182 94.8748 47.3503C94.5189 46.9825 94.3423 46.5383 94.3423 46.0151C94.3423 45.4973 94.5216 45.0559 94.8829 44.6853C95.2442 44.3147 95.6898 44.1294 96.2249 44.1294C96.7574 44.1294 97.2056 44.312 97.5615 44.6798C97.9201 45.0477 98.0967 45.4919 98.0967 46.0151C98.0967 46.5301 97.9174 46.9743 97.5534 47.3449ZM96.2249 47.4185C96.6107 47.4185 96.9258 47.2849 97.1758 47.0124C97.423 46.7427 97.5479 46.4102 97.5479 46.0124C97.5479 45.62 97.4203 45.2902 97.1622 45.015C96.9041 44.7398 96.5862 44.6035 96.2113 44.6035C95.8256 44.6035 95.5105 44.7398 95.2632 45.0123C95.016 45.2848 94.8938 45.62 94.8938 46.0151C94.8938 46.4075 95.0215 46.7372 95.2768 47.0097C95.5322 47.2822 95.8473 47.4185 96.2249 47.4185Z" fill="#5974B7"/>
<path d="M100.689 47.9008C100.17 47.9008 99.7323 47.7155 99.3765 47.3449C99.0206 46.9743 98.844 46.5328 98.844 46.0151C98.844 45.4973 99.0206 45.0559 99.3765 44.6853C99.7323 44.3147 100.17 44.1294 100.689 44.1294C101.246 44.1294 101.726 44.3447 102.131 44.7725L101.789 45.1349C101.455 44.7807 101.085 44.6035 100.68 44.6035C100.319 44.6035 100.012 44.7398 99.765 45.0123C99.5177 45.2848 99.3928 45.62 99.3928 46.0151C99.3928 46.4075 99.5205 46.7372 99.7731 47.0097C100.026 47.2822 100.341 47.4185 100.716 47.4185C101.102 47.4185 101.463 47.2386 101.802 46.8735L102.158 47.2005C101.74 47.6665 101.251 47.9008 100.689 47.9008Z" fill="#5974B7"/>
<path d="M103.041 47.8162V44.2056H103.576V45.7643H105.652V44.2056H106.187V47.8162H105.652V46.2384H103.576V47.8162H103.041Z" fill="#5974B7"/>
<path d="M108.458 47.8926C108.092 47.8926 107.776 47.7918 107.51 47.5929C107.247 47.3939 107.114 47.1133 107.114 46.7536C107.114 46.3775 107.252 46.0859 107.532 45.8816C107.812 45.6772 108.184 45.5736 108.654 45.5736C109.026 45.5736 109.393 45.6254 109.754 45.7262V45.6145C109.754 45.2984 109.662 45.0559 109.477 44.8869C109.292 44.7207 109.029 44.6362 108.689 44.6362C108.336 44.6362 107.972 44.7234 107.597 44.8951L107.437 44.4564C107.882 44.252 108.32 44.1484 108.746 44.1484C109.257 44.1484 109.645 44.282 109.909 44.5463C110.159 44.797 110.284 45.1513 110.284 45.6091V47.8163H109.754V47.2795C109.434 47.6882 109.002 47.8926 108.458 47.8926ZM108.564 47.4593C108.898 47.4593 109.181 47.3694 109.415 47.1868C109.645 47.0043 109.762 46.7726 109.762 46.4865V46.1513C109.409 46.0478 109.059 45.9987 108.711 45.9987C108.382 45.9987 108.124 46.0641 107.937 46.1977C107.752 46.3285 107.657 46.511 107.657 46.7399C107.657 46.9579 107.744 47.1351 107.918 47.2631C108.092 47.3912 108.309 47.4593 108.564 47.4593Z" fill="#5974B7"/>
<path d="M113.112 47.9006C112.56 47.9006 112.118 47.7181 111.786 47.3529C111.455 46.9878 111.289 46.4918 111.289 45.8678C111.289 45.6389 111.294 45.4454 111.303 45.2846C111.311 45.1239 111.33 44.9467 111.357 44.7505C111.384 44.5543 111.428 44.3881 111.49 44.2464C111.55 44.1074 111.629 43.9685 111.724 43.8349C111.819 43.7014 111.944 43.587 112.096 43.4916C112.248 43.3989 112.427 43.3281 112.631 43.2818L114.636 42.8076L114.739 43.2627L112.789 43.745C112.427 43.8377 112.167 43.9848 112.012 44.1892C111.857 44.3908 111.764 44.6715 111.737 45.0312C112.044 44.508 112.541 44.2491 113.229 44.2491C113.701 44.2491 114.109 44.4235 114.449 44.7751C114.788 45.1266 114.957 45.549 114.957 46.0422C114.957 46.5545 114.78 46.9932 114.427 47.3556C114.074 47.7181 113.636 47.9006 113.112 47.9006ZM113.126 47.4183C113.492 47.4183 113.797 47.2875 114.038 47.0232C114.28 46.7616 114.4 46.4373 114.4 46.0558C114.4 45.6798 114.275 45.3582 114.027 45.0912C113.78 44.8268 113.473 44.6933 113.112 44.6933C112.745 44.6933 112.441 44.8241 112.199 45.0884C111.957 45.35 111.838 45.6743 111.838 46.0558C111.838 46.4319 111.963 46.7534 112.21 47.0205C112.457 47.2848 112.761 47.4183 113.126 47.4183Z" fill="#5974B7"/>
<path d="M115.464 47.8162L116.94 45.748L115.54 44.2029H116.187L118.018 46.2984V44.2029H118.553V46.2984L120.384 44.2029H121.031L119.632 45.748L121.107 47.8162H120.479L119.281 46.1322L118.55 46.936V47.8162H118.015V46.936L117.285 46.1322L116.086 47.8162H115.464Z" fill="#5974B7"/>
<path d="M123.424 47.9008C122.919 47.9008 122.492 47.7264 122.147 47.3749C121.802 47.0233 121.628 46.571 121.628 46.0151C121.628 45.4892 121.794 45.0423 122.123 44.6771C122.452 44.312 122.865 44.1294 123.356 44.1294C123.872 44.1294 124.28 44.312 124.581 44.6744C124.883 45.0368 125.035 45.4946 125.035 46.0423C125.035 46.1105 125.032 46.1759 125.027 46.2304H122.172C122.21 46.5982 122.346 46.8898 122.587 47.1078C122.826 47.3258 123.112 47.4321 123.44 47.4321C123.872 47.4321 124.25 47.2604 124.576 46.9225L124.91 47.2223C124.503 47.6746 124.008 47.9008 123.424 47.9008ZM122.169 45.7971H124.489C124.456 45.4483 124.342 45.1567 124.144 44.9278C123.946 44.6989 123.68 44.5817 123.34 44.5817C123.033 44.5817 122.772 44.6962 122.552 44.9251C122.335 45.154 122.207 45.4428 122.169 45.7971Z" fill="#5974B7"/>
<path d="M125.973 47.8162V44.2056H126.508V45.7643H128.583V44.2056H129.119V47.8162H128.583V46.2384H126.508V47.8162H125.973Z" fill="#5974B7"/>
<path d="M130.316 47.8162V44.2056H130.852V47.0613L132.99 44.2056H133.511V47.8162H132.976V44.9604L130.833 47.8162H130.316Z" fill="#5974B7"/>
<path d="M134.392 47.8162L135.492 46.4182C135.209 46.3528 134.978 46.2248 134.799 46.034C134.62 45.8433 134.53 45.6089 134.53 45.3283C134.53 44.9931 134.65 44.7206 134.891 44.5162C135.133 44.3091 135.465 44.2056 135.888 44.2056H137.581V47.8162H137.046V46.5027H136.049C136.008 46.5599 135.864 46.7507 135.617 47.075C135.37 47.402 135.182 47.6472 135.052 47.8162H134.392ZM135.929 46.0476H137.043V44.6797H135.916C135.652 44.6797 135.443 44.7397 135.294 44.8568C135.141 44.974 135.068 45.1402 135.068 45.3501C135.068 45.5653 135.147 45.7343 135.307 45.8596C135.467 45.985 135.674 46.0476 135.929 46.0476Z" fill="#5974B7"/>
<path d="M138.583 48.6692L138.499 48.4239C138.809 48.3068 138.966 48.1269 138.966 47.8871V47.8163H138.716V47.0833H139.357V47.7127C139.357 47.9934 139.295 48.2059 139.173 48.3558C139.048 48.503 138.852 48.6065 138.583 48.6692Z" fill="#5974B7"/>
<path d="M142.571 47.8162V44.2056H143.106V46.2874L145.076 44.2056H145.739L144.234 45.7697L145.78 47.8162H145.147L143.864 46.1594L143.104 46.9414V47.8162H142.571Z" fill="#5974B7"/>
<path d="M147.592 47.8926C147.225 47.8926 146.91 47.7918 146.644 47.5929C146.38 47.3939 146.247 47.1133 146.247 46.7536C146.247 46.3775 146.386 46.0859 146.665 45.8816C146.945 45.6772 147.317 45.5736 147.787 45.5736C148.16 45.5736 148.526 45.6254 148.888 45.7262V45.6145C148.888 45.2984 148.795 45.0559 148.611 44.8869C148.426 44.7207 148.162 44.6362 147.823 44.6362C147.47 44.6362 147.106 44.7234 146.731 44.8951L146.57 44.4564C147.016 44.252 147.453 44.1484 147.88 44.1484C148.391 44.1484 148.779 44.282 149.043 44.5463C149.292 44.797 149.417 45.1513 149.417 45.6091V47.8163H148.888V47.2795C148.567 47.6882 148.135 47.8926 147.592 47.8926ZM147.698 47.4593C148.032 47.4593 148.314 47.3694 148.548 47.1868C148.782 47.0043 148.896 46.7726 148.896 46.4865V46.1513C148.543 46.0478 148.192 45.9987 147.844 45.9987C147.516 45.9987 147.258 46.0641 147.07 46.1977C146.885 46.3285 146.79 46.511 146.79 46.7399C146.79 46.9579 146.877 47.1351 147.051 47.2631C147.228 47.3939 147.442 47.4593 147.698 47.4593Z" fill="#5974B7"/>
<path d="M150.553 47.8162V44.2056H151.088V45.7643H153.164V44.2056H153.699V47.8162H153.164V46.2384H151.088V47.8162H150.553Z" fill="#5974B7"/>
<path d="M155.97 47.8926C155.603 47.8926 155.288 47.7918 155.025 47.5929C154.761 47.3939 154.628 47.1133 154.628 46.7536C154.628 46.3775 154.766 46.0859 155.044 45.8816C155.323 45.6772 155.696 45.5736 156.166 45.5736C156.538 45.5736 156.904 45.6254 157.266 45.7262V45.6145C157.266 45.2984 157.173 45.0559 156.986 44.8869C156.801 44.7207 156.538 44.6362 156.201 44.6362C155.848 44.6362 155.484 44.7234 155.109 44.8951L154.948 44.4564C155.394 44.252 155.831 44.1484 156.258 44.1484C156.769 44.1484 157.157 44.282 157.421 44.5463C157.671 44.797 157.796 45.1513 157.796 45.6091V47.8163H157.269V47.2795C156.945 47.6882 156.513 47.8926 155.97 47.8926ZM156.076 47.4593C156.41 47.4593 156.693 47.3694 156.926 47.1868C157.157 47.0043 157.274 46.7726 157.274 46.4865V46.1513C156.921 46.0478 156.57 45.9987 156.223 45.9987C155.891 45.9987 155.636 46.0641 155.448 46.1977C155.264 46.3285 155.169 46.511 155.169 46.7399C155.169 46.9579 155.255 47.1351 155.429 47.2631C155.603 47.3939 155.818 47.4593 156.076 47.4593Z" fill="#5974B7"/>
<path d="M158.754 47.8734C158.616 47.8734 158.472 47.8543 158.323 47.8162L158.385 47.3557C158.491 47.3884 158.578 47.4047 158.643 47.4047C158.746 47.4047 158.828 47.3911 158.893 47.3666C158.958 47.342 159.029 47.2739 159.105 47.1649C159.181 47.0559 159.241 46.9006 159.282 46.6989C159.325 46.5 159.36 46.2166 159.39 45.846C159.42 45.4781 159.436 45.0312 159.436 44.5053V44.2056H161.985V47.8162H161.449V44.6797H159.944V44.7642C159.944 45.3146 159.923 45.7806 159.882 46.1676C159.838 46.5545 159.787 46.857 159.724 47.075C159.662 47.293 159.575 47.4647 159.464 47.5846C159.352 47.7045 159.243 47.7835 159.14 47.8189C159.037 47.8543 158.907 47.8734 158.754 47.8734Z" fill="#5974B7"/>
<path d="M163.183 47.8162V44.2056H163.718V47.0613L165.856 44.2056H166.377V47.8162H165.842V44.9604L163.699 47.8162H163.183Z" fill="#5974B7"/>
<path d="M168.719 47.9008C168.168 47.9008 167.671 47.721 167.23 47.364L167.502 46.9661C167.869 47.2768 168.271 47.4348 168.706 47.4348C168.95 47.4348 169.162 47.3776 169.336 47.2632C169.51 47.1487 169.597 46.9906 169.597 46.7917C169.597 46.6064 169.518 46.4593 169.36 46.3557C169.203 46.2522 168.98 46.1977 168.692 46.1977H168.211V45.7589H168.697C168.934 45.7589 169.127 45.7017 169.276 45.5873C169.426 45.4728 169.499 45.3229 169.499 45.1376C169.499 44.9741 169.426 44.8433 169.279 44.7452C169.132 44.6471 168.945 44.5981 168.719 44.5981C168.293 44.5981 167.929 44.7207 167.627 44.9605L167.364 44.5845C167.755 44.282 168.217 44.1294 168.757 44.1294C169.157 44.1294 169.474 44.2193 169.708 44.3992C169.942 44.579 170.058 44.8106 170.058 45.094C170.058 45.4892 169.866 45.7671 169.48 45.9252C169.925 46.0832 170.148 46.3802 170.148 46.8135C170.148 47.116 170.018 47.3722 169.757 47.5847C169.496 47.7945 169.151 47.9008 168.719 47.9008Z" fill="#5974B7"/>
<path d="M172.216 47.8926C171.849 47.8926 171.534 47.7918 171.267 47.5929C171.004 47.3939 170.871 47.1133 170.871 46.7536C170.871 46.3775 171.009 46.0859 171.289 45.8816C171.569 45.6772 171.941 45.5736 172.411 45.5736C172.783 45.5736 173.15 45.6254 173.511 45.7262V45.6145C173.511 45.2984 173.419 45.0559 173.232 44.8869C173.047 44.7207 172.783 44.6362 172.444 44.6362C172.091 44.6362 171.727 44.7234 171.352 44.8951L171.191 44.4564C171.637 44.252 172.074 44.1484 172.501 44.1484C173.012 44.1484 173.4 44.282 173.664 44.5463C173.914 44.797 174.038 45.1513 174.038 45.6091V47.8163H173.509V47.2795C173.191 47.6882 172.759 47.8926 172.216 47.8926ZM172.319 47.4593C172.653 47.4593 172.936 47.3694 173.169 47.1868C173.4 47.0043 173.517 46.7726 173.517 46.4865V46.1513C173.164 46.0478 172.813 45.9987 172.466 45.9987C172.137 45.9987 171.879 46.0641 171.691 46.1977C171.507 46.3285 171.414 46.511 171.414 46.7399C171.414 46.9579 171.501 47.1351 171.675 47.2631C171.849 47.3912 172.063 47.4593 172.319 47.4593Z" fill="#5974B7"/>
<path d="M178.279 48.7181V47.8162H175.174V44.2056H175.709V47.342H177.728V44.2056H178.263V47.342H178.806L178.722 48.7181H178.279Z" fill="#5974B7"/>
<path d="M179.548 47.8162V44.2056H180.083V47.0613L182.221 44.2056H182.743V47.8162H182.207V44.9604L180.064 47.8162H179.548Z" fill="#5974B7"/>
<path d="M183.941 47.8162V44.2056H184.476V47.0613L186.614 44.2056H187.135V47.8162H186.6V44.9604L184.457 47.8162H183.941Z" fill="#5974B7"/>
<path d="M190.423 47.8162V44.2056H190.958V47.0613L193.096 44.2056H193.618V47.8162H193.082V44.9604L190.939 47.8162H190.423Z" fill="#5974B7"/>
<path d="M196.378 48.7181V47.342H196.769C197.089 46.7507 197.25 45.9141 197.25 44.835V44.2056H199.812V47.342H200.355L200.271 48.7181H199.825V47.8162H196.916L196.818 48.7181H196.378ZM197.339 47.342H199.276V44.6797H197.766V45.1838C197.763 46.0913 197.622 46.8106 197.339 47.342Z" fill="#5974B7"/>
<path d="M201.091 48.9336V44.2057H201.626V44.9333C201.988 44.3964 202.449 44.1294 203.004 44.1294C203.463 44.1294 203.865 44.3011 204.207 44.6417C204.552 44.985 204.723 45.4428 204.723 46.0151C204.723 46.5792 204.552 47.0315 204.207 47.3776C203.865 47.7237 203.463 47.8953 203.004 47.8953C202.439 47.8953 201.977 47.6392 201.626 47.1269V48.9363H201.091V48.9336ZM202.909 47.4103C203.27 47.4103 203.571 47.2822 203.813 47.0288C204.055 46.7754 204.174 46.4347 204.174 46.0042C204.174 45.59 204.052 45.2521 203.805 44.9959C203.561 44.7371 203.259 44.609 202.906 44.609C202.558 44.609 202.254 44.7425 201.993 45.0068C201.732 45.2712 201.602 45.6063 201.602 46.0124C201.602 46.4184 201.732 46.7508 201.993 47.0152C202.257 47.2795 202.561 47.4103 202.909 47.4103Z" fill="#5974B7"/>
<path d="M207.288 47.9008C206.783 47.9008 206.356 47.7264 206.011 47.3749C205.663 47.0233 205.492 46.571 205.492 46.0151C205.492 45.4892 205.658 45.0423 205.987 44.6771C206.315 44.312 206.728 44.1294 207.22 44.1294C207.736 44.1294 208.144 44.312 208.445 44.6744C208.747 45.0368 208.899 45.4946 208.899 46.0423C208.899 46.1105 208.896 46.1759 208.891 46.2304H206.036C206.074 46.5982 206.209 46.8898 206.451 47.1078C206.69 47.3258 206.975 47.4321 207.304 47.4321C207.736 47.4321 208.114 47.2604 208.44 46.9225L208.774 47.2223C208.369 47.6746 207.875 47.9008 207.288 47.9008ZM206.036 45.7971H208.353C208.32 45.4483 208.206 45.1567 208.008 44.9278C207.809 44.6989 207.543 44.5817 207.204 44.5817C206.897 44.5817 206.636 44.6962 206.416 44.9251C206.201 45.154 206.074 45.4428 206.036 45.7971Z" fill="#5974B7"/>
<path d="M209.836 47.8162V44.2056H210.371V45.7643H212.447V44.2056H212.982V47.8162H212.447V46.2384H210.371V47.8162H209.836Z" fill="#5974B7"/>
<path d="M215.256 47.8926C214.889 47.8926 214.574 47.7918 214.308 47.5929C214.044 47.3939 213.911 47.1133 213.911 46.7536C213.911 46.3775 214.05 46.0859 214.329 45.8816C214.609 45.6772 214.981 45.5736 215.451 45.5736C215.824 45.5736 216.19 45.6254 216.552 45.7262V45.6145C216.552 45.2984 216.459 45.0559 216.272 44.8869C216.087 44.7207 215.824 44.6362 215.484 44.6362C215.131 44.6362 214.767 44.7234 214.392 44.8951L214.232 44.4564C214.677 44.252 215.115 44.1484 215.541 44.1484C216.052 44.1484 216.44 44.282 216.704 44.5463C216.954 44.797 217.079 45.1513 217.079 45.6091V47.8163H216.549V47.2795C216.231 47.6882 215.799 47.8926 215.256 47.8926ZM215.359 47.4593C215.693 47.4593 215.976 47.3694 216.209 47.1868C216.44 47.0043 216.557 46.7726 216.557 46.4865V46.1513C216.204 46.0478 215.854 45.9987 215.506 45.9987C215.177 45.9987 214.919 46.0641 214.732 46.1977C214.547 46.3285 214.454 46.511 214.454 46.7399C214.454 46.9579 214.541 47.1351 214.715 47.2631C214.889 47.3912 215.104 47.4593 215.359 47.4593Z" fill="#5974B7"/>
<path d="M217.755 47.8162L219.233 45.748L217.834 44.2029H218.48L220.312 46.2984V44.2029H220.847V46.2984L222.678 44.2029H223.324L221.925 45.748L223.4 47.8162H222.773L221.575 46.1322L220.844 46.936V47.8162H220.309V46.936L219.578 46.1322L218.38 47.8162H217.755Z" fill="#5974B7"/>
<path d="M225.212 47.8926C224.846 47.8926 224.531 47.7918 224.264 47.5929C224.001 47.3939 223.868 47.1133 223.868 46.7536C223.868 46.3775 224.006 46.0859 224.286 45.8816C224.566 45.6772 224.938 45.5736 225.408 45.5736C225.78 45.5736 226.147 45.6254 226.508 45.7262V45.6145C226.508 45.2984 226.416 45.0559 226.228 44.8869C226.044 44.7207 225.78 44.6362 225.441 44.6362C225.087 44.6362 224.723 44.7234 224.349 44.8951L224.188 44.4564C224.634 44.252 225.071 44.1484 225.498 44.1484C226.008 44.1484 226.397 44.282 226.66 44.5463C226.91 44.797 227.035 45.1513 227.035 45.6091V47.8163H226.506V47.2795C226.188 47.6882 225.756 47.8926 225.212 47.8926ZM225.318 47.4593C225.653 47.4593 225.935 47.3694 226.169 47.1868C226.4 47.0043 226.516 46.7726 226.516 46.4865V46.1513C226.163 46.0478 225.813 45.9987 225.465 45.9987C225.136 45.9987 224.878 46.0641 224.691 46.1977C224.506 46.3285 224.414 46.511 224.414 46.7399C224.414 46.9579 224.501 47.1351 224.675 47.2631C224.848 47.3912 225.063 47.4593 225.318 47.4593Z" fill="#5974B7"/>
<path d="M25.2584 11.3857L31.9496 18.8522C33.7779 20.8933 34.6255 23.2776 34.4951 26.0108C34.3946 28.744 33.3269 31.0276 31.2921 32.8615C29.29 34.6682 26.9047 35.4966 24.1392 35.3494C21.3899 35.1587 19.1133 34.0605 17.3122 32.0494C15.4974 30.0248 14.6417 27.6322 14.7476 24.869C14.8808 22.0786 15.9484 19.7815 17.9533 17.9748L25.2584 11.3857ZM25.0791 18.4408L21.3682 21.7871C20.3358 22.7163 19.7843 23.8608 19.711 25.2206C19.5942 26.5913 19.9935 27.7875 20.9063 28.8067C21.8191 29.8258 22.9628 30.3518 24.3348 30.3817C25.6768 30.439 26.8613 30.003 27.8936 29.071C28.9422 28.1254 29.5073 26.9837 29.5942 25.6402C29.6676 24.2832 29.2519 23.1005 28.3527 22.095L25.0791 18.4408Z" fill="#5974B7"/>
<path d="M13.066 37.1342C9.63209 33.8016 7.91787 29.6732 7.91787 24.7518C7.91787 19.9967 9.64839 15.9937 13.1067 12.74C16.5677 9.48911 20.2597 7.86228 25.3263 7.86228V0.646484H25.8995C18.8715 0.646484 12.8079 3.02268 7.71412 7.78053C2.61766 12.5357 0.0721436 18.1928 0.0721436 24.7518C0.0721436 31.4199 2.63396 37.186 7.75488 42.0501C12.8758 46.917 18.9258 49.3477 25.8995 49.3477H35.2204V42.1319H25.8995C20.7759 42.1346 16.4998 40.4696 13.066 37.1342Z" fill="#5974B7"/>
<path d="M30.5558 0.64917V7.86496H40.2896V49.3503H48.1353V0.64917H30.5558Z" fill="#5974B7"/>
<path d="M69.8552 0.64917V7.86496H60.1241V49.3503H52.2756V0.64917H69.8552Z" fill="#E08F4D"/>
</svg>
