<svg width="174" height="40" viewBox="0 0 174 40" fill="none" xmlns="http://www.w3.org/2000/svg">
<g clip-path="url(#clip0)">
<path d="M15.3476 30.6423C6.885 30.6423 0 23.5408 0 15.2615C0 9.05454 4.18846 3.44888 8.33156 0C8.33156 0 9.21864 0.496956 12.1319 3.34948C15.0452 6.20201 15.5492 7.05678 15.5492 7.05678C15.5492 7.05678 10.7005 11.3256 10.3527 14.4614C10.2495 15.185 10.3071 15.922 10.5215 16.6214C10.7359 17.3208 11.1019 17.9658 11.5944 18.5118C12.0868 19.0579 12.6937 19.4918 13.3731 19.7835C14.0526 20.0752 14.7882 20.2178 15.5291 20.2013H15.5593C16.3004 20.2186 17.0365 20.0766 17.7163 19.7852C18.3961 19.4938 19.0035 19.0599 19.496 18.5136C19.9886 17.9674 20.3547 17.322 20.5688 16.6222C20.7828 15.9224 20.8398 15.1851 20.7356 14.4614C20.3929 11.3256 15.5391 7.05678 15.5391 7.05678C15.5391 7.05678 16.0432 6.21195 18.9615 3.34948C21.8798 0.487017 22.7618 0 22.7618 0C26.8999 3.44888 31.0934 9.05454 31.0934 15.2615C31.0934 23.5408 23.8102 30.6423 15.3476 30.6423Z" fill="#253746"/>
<path d="M66.7431 5.22299C66.0914 5.01923 65.4107 4.92023 64.727 4.92979C63.9886 4.92172 63.2526 5.01369 62.5396 5.20312V25.474C64.2578 25.832 66.033 25.832 67.7512 25.474V14.9733L76.1785 25.464C76.8691 25.6625 77.5863 25.7563 78.3055 25.7423C79.0182 25.7596 79.7297 25.6742 80.4174 25.4889V5.18821C79.592 4.99588 78.745 4.90903 77.8972 4.92979C76.9918 4.90355 76.0868 4.99545 75.2057 5.20312V15.7535L66.7431 5.22299Z" fill="#253746"/>
<path d="M87.9476 25.7472C88.8699 25.771 89.7915 25.6775 90.6895 25.469V5.20308C90.5887 5.17326 90.4577 5.14345 90.2762 5.10866C89.5073 4.9783 88.7278 4.91841 87.9476 4.92975C87.0239 4.90364 86.1005 4.99551 85.2007 5.20308V25.469C86.101 25.6742 87.0238 25.7677 87.9476 25.7472Z" fill="#253746"/>
<path d="M103.144 13.6514H101.047V10.0137H103.144C103.386 10.0137 103.626 10.0607 103.85 10.1522C104.074 10.2436 104.277 10.3775 104.448 10.5464C104.62 10.7153 104.756 10.9158 104.848 11.1365C104.941 11.3572 104.989 11.5937 104.989 11.8326C104.989 12.0714 104.941 12.3079 104.848 12.5286C104.756 12.7493 104.62 12.9498 104.448 13.1187C104.277 13.2876 104.074 13.4216 103.85 13.513C103.626 13.6044 103.386 13.6514 103.144 13.6514ZM108.119 6.77355C106.365 5.25286 104.172 5.05408 102.07 5.05408H95.6138V25.4839C95.7045 25.4839 95.8103 25.5336 95.9666 25.5635C96.7855 25.7016 97.6158 25.7631 98.4464 25.7473C99.3392 25.7863 100.233 25.7027 101.103 25.4989V18.7552C101.103 18.7552 101.4 18.7552 101.728 18.785C102.055 18.8148 105.911 19.103 108.325 16.7276C109.639 15.4272 110.378 13.6678 110.382 11.8326C110.417 10.8755 110.231 9.92306 109.839 9.04682C109.447 8.17058 108.859 7.39335 108.119 6.77355Z" fill="#253746"/>
<path d="M166.762 13.6514H164.665V10.0137H166.762C167.251 10.0137 167.721 10.2053 168.067 10.5464C168.412 10.8875 168.607 11.3502 168.607 11.8326C168.607 12.315 168.412 12.7776 168.067 13.1187C167.721 13.4598 167.251 13.6514 166.762 13.6514ZM171.732 6.77355C169.978 5.25286 167.79 5.05408 165.683 5.05408H159.232V25.4839C159.323 25.4839 159.428 25.5336 159.585 25.5635C160.404 25.7016 161.234 25.7631 162.065 25.7473C162.957 25.7863 163.851 25.7027 164.721 25.4989V18.7552C164.721 18.7552 165.018 18.7552 165.346 18.785C165.673 18.8148 169.534 19.103 171.943 16.7276C173.257 15.4272 173.996 13.6678 174 11.8326C174.035 10.8751 173.849 9.92224 173.456 9.04592C173.063 8.1696 172.473 7.39263 171.732 6.77355Z" fill="#253746"/>
<path d="M144.192 20.6734L139.777 14.4117V25.4938C139.701 25.4938 139.605 25.5386 139.464 25.5634C138.622 25.7052 137.768 25.7668 136.914 25.7473C136.034 25.7903 135.152 25.7134 134.293 25.5187V5.18324C134.387 5.15284 134.483 5.12795 134.58 5.10869C135.279 4.97605 135.99 4.91608 136.702 4.92979C137.534 4.88502 138.367 4.97056 139.172 5.18324L144.615 12.9208L150.064 5.17827C150.868 4.96518 151.702 4.87962 152.533 4.92482C153.243 4.91076 153.953 4.97073 154.65 5.10372C154.749 5.12243 154.847 5.14733 154.943 5.17827V25.5187C154.084 25.7134 153.202 25.7903 152.322 25.7473C151.468 25.767 150.614 25.7055 149.771 25.5634C149.63 25.5634 149.534 25.5137 149.459 25.4938V14.4117L145.044 20.6734H144.192Z" fill="#253746"/>
<path d="M121.672 25.9709C125.77 25.9709 130.371 23.665 130.371 17.0803V5.20803C128.693 4.87407 126.967 4.84041 125.276 5.10864C125.104 5.14342 124.983 5.17324 124.883 5.20306V16.1361C124.883 16.4989 124.883 17.4878 124.837 17.8059C124.837 18.6336 124.504 19.4274 123.91 20.0127C123.317 20.5979 122.511 20.9268 121.672 20.9268C120.832 20.9268 120.027 20.5979 119.434 20.0127C118.84 19.4274 118.507 18.6336 118.507 17.8059C118.476 17.4828 118.461 16.4989 118.461 16.1361V5.20306C118.36 5.17324 118.239 5.14342 118.068 5.10864C117.32 4.97828 116.56 4.91838 115.8 4.92973C114.85 4.91315 113.901 5.00655 112.972 5.20803V17.0803C112.972 23.665 117.579 25.9709 121.672 25.9709Z" fill="#253746"/>
<path d="M49.7222 25.9709C53.8199 25.9709 58.4217 23.6651 58.4217 17.0804V5.20811C56.7446 4.87411 55.0202 4.84045 53.331 5.10872C53.1596 5.14351 53.0387 5.17333 52.9379 5.20314V16.1362C52.9379 16.499 52.9379 17.4879 52.8925 17.806C52.8598 18.6128 52.5118 19.3758 51.9213 19.9353C51.3308 20.4947 50.5436 20.8072 49.7247 20.8072C48.9057 20.8072 48.1186 20.4947 47.5281 19.9353C46.9376 19.3758 46.5895 18.6128 46.5569 17.806C46.5317 17.4829 46.5115 16.499 46.5115 16.1362V5.20314C46.4107 5.17333 46.2948 5.14351 46.1234 5.10872C44.4325 4.8405 42.7065 4.87416 41.0277 5.20811V17.0804C41.0277 23.6651 45.6295 25.9709 49.7222 25.9709Z" fill="#253746"/>
<path d="M45.0448 35.1596H42.4289V38.0072H41.0277V31.1989H42.4289V33.9719H45.0448V31.1989H46.441V38.0072H45.0448V35.1596Z" fill="#00AFD7"/>
<path d="M49.3543 37.0431C49.5789 37.0558 49.8017 36.9965 49.9893 36.8741C50.1307 36.7776 50.2493 36.6521 50.3371 36.5064V35.8753C50.1341 35.8605 49.9303 35.8605 49.7272 35.8753C49.5565 35.8873 49.3875 35.9173 49.2232 35.9647C49.0896 35.9994 48.9667 36.0659 48.8654 36.1585C48.8209 36.1999 48.7857 36.25 48.7623 36.3057C48.7388 36.3614 48.7276 36.4213 48.7293 36.4815C48.7261 36.5599 48.7397 36.638 48.7692 36.7108C48.7987 36.7836 48.8435 36.8494 48.9006 36.904C49.0305 37.0097 49.1962 37.063 49.3643 37.053L49.3543 37.0431ZM47.6809 33.4352C47.9919 33.3081 48.3166 33.2164 48.6486 33.1619C49.0359 33.0911 49.4291 33.0561 49.823 33.0575C50.1249 33.05 50.4261 33.0903 50.7151 33.1768C50.9288 33.2465 51.1224 33.3658 51.2796 33.5247C51.42 33.6762 51.522 33.8585 51.577 34.0564C51.6358 34.2854 51.6646 34.5209 51.6627 34.7571C51.6627 35.0453 51.6627 35.3286 51.6325 35.6218C51.6022 35.915 51.6022 36.1933 51.5972 36.4716C51.5921 36.7499 51.5972 37.0183 51.6224 37.2816C51.6398 37.536 51.6924 37.7868 51.7786 38.0271H50.695L50.4782 37.3562H50.4026C50.251 37.5601 50.0568 37.7295 49.8331 37.8531C49.5497 38.012 49.2262 38.0878 48.9006 38.0718C48.6815 38.0735 48.4636 38.0399 48.2555 37.9724C48.068 37.9116 47.8961 37.8116 47.7515 37.6792C47.6146 37.554 47.5064 37.4016 47.4339 37.232C47.3769 37.0487 47.358 36.856 47.3785 36.6654C47.37 36.399 47.442 36.1361 47.5851 35.91C47.7399 35.6958 47.9483 35.5246 48.19 35.4131C48.4863 35.2776 48.8029 35.1903 49.1275 35.1547C49.5335 35.1035 49.9434 35.0885 50.3522 35.11C50.413 34.8461 50.3828 34.5698 50.2666 34.3248C50.1658 34.1657 49.9389 34.0912 49.5861 34.0912C49.3039 34.0924 49.0223 34.1174 48.7444 34.1657C48.493 34.2027 48.2474 34.2712 48.0136 34.3695L47.6809 33.4352Z" fill="#00AFD7"/>
<path d="M56.4509 37.7041C56.2259 37.8564 55.975 37.9675 55.71 38.0321C55.4169 38.106 55.1154 38.1428 54.8129 38.1415C54.4676 38.1489 54.1245 38.0863 53.8048 37.9576C53.537 37.8499 53.2999 37.6793 53.1143 37.4606C52.9284 37.2213 52.7976 36.9449 52.7312 36.6506C52.6475 36.3073 52.6069 35.9551 52.6103 35.602C52.5659 34.9188 52.7735 34.2428 53.1949 33.6987C53.4098 33.4699 53.6739 33.2913 53.9678 33.1761C54.2616 33.0609 54.5779 33.0119 54.8935 33.0327C55.1968 33.0256 55.4999 33.0556 55.7957 33.1222C56.0078 33.1761 56.2138 33.2511 56.4106 33.3458L56.0981 34.3745C55.9469 34.3067 55.7901 34.2519 55.6294 34.2105C55.4645 34.1702 55.2952 34.1501 55.1254 34.1509C54.968 34.1403 54.8103 34.1663 54.665 34.2267C54.5197 34.2871 54.3908 34.3803 54.2887 34.4988C54.0693 34.824 53.968 35.2128 54.0014 35.602C54.0006 35.7947 54.0243 35.9867 54.0719 36.1735C54.1162 36.3373 54.1896 36.4921 54.2887 36.6307C54.3856 36.7619 54.5137 36.8677 54.6616 36.9388C54.8287 37.0156 55.0116 37.053 55.1959 37.0482C55.3906 37.0537 55.5849 37.0268 55.7705 36.9686C55.917 36.9158 56.0573 36.8475 56.1889 36.7649L56.4509 37.7041Z" fill="#00AFD7"/>
<path d="M58.2403 35.5771C58.2389 35.7758 58.2592 35.974 58.3008 36.1685C58.3377 36.3423 58.4005 36.5097 58.4873 36.6654C58.5652 36.7971 58.6763 36.9066 58.8098 36.9835C58.9563 37.0575 59.119 37.095 59.2836 37.0928C59.4337 37.103 59.5839 37.075 59.7198 37.0115C59.8558 36.948 59.9729 36.851 60.0598 36.73C60.258 36.386 60.3475 35.9914 60.3169 35.597C60.3322 35.2203 60.2507 34.8459 60.08 34.5086C60.0004 34.3726 59.8833 34.2617 59.7424 34.1887C59.6014 34.1157 59.4423 34.0836 59.2836 34.0961C59.1366 34.0901 58.9902 34.1189 58.8569 34.1803C58.7235 34.2417 58.6071 34.3339 58.5175 34.449C58.3044 34.7932 58.2074 35.195 58.2403 35.597V35.5771ZM56.8744 35.597C56.8291 34.9063 57.0546 34.2249 57.5044 33.6936C57.7369 33.4656 58.0155 33.2884 58.322 33.1737C58.6286 33.059 58.9562 33.0092 59.2836 33.0277C59.6468 33.0214 60.0078 33.0838 60.3471 33.2116C60.6306 33.3197 60.8856 33.4895 61.0931 33.7085C61.2954 33.9458 61.4464 34.2215 61.5366 34.5186C61.639 34.8604 61.6883 35.2157 61.6828 35.5721C61.7292 36.2605 61.5054 36.9402 61.0578 37.4705C60.8274 37.6999 60.5499 37.8781 60.2439 37.9929C59.9378 38.1078 59.6104 38.1567 59.2836 38.1364C58.9203 38.1451 58.5588 38.0826 58.2201 37.9525C57.9357 37.8434 57.6793 37.6737 57.4691 37.4556C57.2623 37.2205 57.1093 36.9442 57.0205 36.6455C56.9186 36.2984 56.8694 35.9384 56.8744 35.5771V35.597Z" fill="#00AFD7"/>
<path d="M66.2694 37.704C66.0455 37.8582 65.7942 37.9695 65.5285 38.032C65.2372 38.1063 64.9373 38.143 64.6364 38.1414C64.2811 38.1521 63.9274 38.0895 63.5981 37.9575C63.3318 37.8496 63.0964 37.679 62.9126 37.4605C62.725 37.2216 62.5926 36.9451 62.5245 36.6505C62.4451 36.3065 62.4062 35.9547 62.4086 35.6019C62.3609 34.9091 62.5725 34.223 63.0033 33.6737C63.2175 33.4453 63.4807 33.267 63.7737 33.1518C64.0667 33.0366 64.3821 32.9874 64.6969 33.0078C65.0002 33.0003 65.3033 33.0304 65.5991 33.0973C65.813 33.1504 66.0208 33.2253 66.219 33.3209L65.9015 34.3496C65.7517 34.2826 65.5966 34.2277 65.4378 34.1856C65.2729 34.1452 65.1036 34.1252 64.9338 34.126C64.7764 34.1154 64.6188 34.1413 64.4734 34.2017C64.3281 34.2622 64.1992 34.3554 64.0971 34.4738C63.8777 34.799 63.7765 35.1879 63.8098 35.5771C63.8065 35.7699 63.8303 35.9622 63.8803 36.1486C63.9247 36.3124 63.998 36.4672 64.0971 36.6058C64.1914 36.7375 64.3179 36.8435 64.465 36.9139C64.6339 36.9905 64.8184 37.0279 65.0043 37.0232C65.1974 37.0283 65.3899 37.0015 65.5739 36.9437C65.7209 36.892 65.8612 36.8236 65.9922 36.7399L66.2694 37.704Z" fill="#00AFD7"/>
<path d="M70.1251 36.089H68.4568V38.0073H67.1312V33.1421H68.4568V34.9709H70.1251V33.1421H71.4507V38.0073H70.1251V36.089Z" fill="#00AFD7"/>
<path d="M73.7894 35.5771C73.788 35.7758 73.8083 35.974 73.8499 36.1684C73.882 36.3436 73.9451 36.5118 74.0364 36.6654C74.1139 36.7957 74.223 36.9049 74.3539 36.9835C74.5019 37.0583 74.6664 37.0959 74.8327 37.0928C74.9828 37.103 75.133 37.075 75.269 37.0115C75.4049 36.948 75.522 36.851 75.6089 36.73C75.8025 36.3844 75.89 35.9907 75.8609 35.5969C75.8776 35.2207 75.7979 34.8464 75.6291 34.5086C75.5495 34.3726 75.4324 34.2617 75.2915 34.1887C75.1505 34.1157 74.9914 34.0836 74.8327 34.0961C74.6856 34.0896 74.5391 34.1183 74.4057 34.1798C74.2723 34.2412 74.1559 34.3336 74.0666 34.449C73.8512 34.7922 73.754 35.1948 73.7894 35.5969V35.5771ZM72.4184 35.5969C72.3724 34.9054 72.6001 34.2232 73.0535 33.6936C73.2856 33.4651 73.5641 33.2876 73.8708 33.1728C74.1775 33.058 74.5053 33.0086 74.8327 33.0277C75.1959 33.0214 75.5569 33.0838 75.8962 33.2116C76.1779 33.3203 76.4311 33.4902 76.6371 33.7085C76.8429 33.9443 76.9958 34.2204 77.0857 34.5186C77.1857 34.861 77.2349 35.2158 77.2319 35.5721C77.2837 36.2618 77.0614 36.9444 76.6119 37.4754C76.3825 37.7048 76.1059 37.8829 75.8007 37.9978C75.4955 38.1126 75.1688 38.1616 74.8428 38.1414C74.4794 38.151 74.1177 38.0885 73.7793 37.9575C73.494 37.8501 73.2372 37.6801 73.0283 37.4605C72.8163 37.2195 72.6629 36.934 72.5797 36.6256C72.4719 36.2863 72.4175 35.9327 72.4184 35.5771V35.5969Z" fill="#00AFD7"/>
<path d="M80.3922 34.0216C80.2504 34.011 80.108 34.0318 79.9755 34.0826C79.8429 34.1333 79.7235 34.2127 79.6261 34.3148C79.447 34.5437 79.3432 34.8212 79.3287 35.11H81.2138C81.2624 34.8258 81.2032 34.5339 81.0475 34.29C80.9696 34.1943 80.8692 34.119 80.755 34.0704C80.6407 34.0219 80.5162 34.0018 80.3922 34.0117V34.0216ZM82.2874 37.5798C82.0354 37.7573 81.754 37.8902 81.4557 37.9724C81.0926 38.0791 80.7156 38.1327 80.3368 38.1315C80.0022 38.1597 79.6655 38.1126 79.352 37.9938C79.0386 37.875 78.7566 37.6876 78.5273 37.4457C78.1215 36.904 77.92 36.2396 77.9578 35.5672C77.9359 35.2197 77.9839 34.8713 78.0989 34.5421C78.2139 34.2129 78.3938 33.9094 78.6281 33.6489C78.8687 33.4264 79.1529 33.2548 79.4632 33.1445C79.7735 33.0343 80.1034 32.9878 80.4326 33.0078C80.6879 33.0078 80.9422 33.0412 81.1886 33.1072C81.427 33.1673 81.6502 33.2756 81.8438 33.4253C82.043 33.5869 82.2002 33.7931 82.3025 34.0266C82.4278 34.3256 82.4879 34.6474 82.4789 34.9708C82.4789 35.11 82.4789 35.2541 82.4537 35.4131C82.4285 35.5721 82.4083 35.7262 82.3781 35.9101H79.3187C79.3125 36.2477 79.4307 36.5761 79.6513 36.8344C79.7832 36.9492 79.9376 37.0362 80.1049 37.0901C80.2722 37.1439 80.4489 37.1635 80.6241 37.1475C81.0694 37.151 81.5053 37.021 81.8741 36.7748L82.2874 37.5798Z" fill="#00AFD7"/>
<path d="M87.1966 35.5771C87.1952 35.7758 87.2155 35.974 87.2571 36.1684C87.2916 36.3429 87.3546 36.5108 87.4436 36.6654C87.5215 36.7971 87.6326 36.9066 87.7661 36.9835C87.9126 37.0575 88.0753 37.095 88.2399 37.0928C88.39 37.103 88.5402 37.075 88.6761 37.0115C88.8121 36.948 88.9292 36.851 89.0161 36.73C89.2143 36.386 89.3038 35.9914 89.2732 35.5969C89.2885 35.2203 89.207 34.8459 89.0363 34.5086C88.9567 34.3726 88.8396 34.2617 88.6987 34.1887C88.5577 34.1157 88.3986 34.0836 88.2399 34.0961C88.0928 34.0896 87.9463 34.1183 87.8129 34.1798C87.6795 34.2412 87.5631 34.3336 87.4738 34.449C87.2584 34.7922 87.1612 35.1948 87.1966 35.5969V35.5771ZM85.8307 35.5969C85.7833 34.9061 86.0091 34.2239 86.4607 33.6936C86.6928 33.4651 86.9713 33.2876 87.278 33.1728C87.5846 33.058 87.9125 33.0086 88.2399 33.0277C88.6031 33.0214 88.9641 33.0838 89.3034 33.2116C89.5863 33.3207 89.8411 33.4904 90.0494 33.7085C90.2518 33.9458 90.4027 34.2215 90.4929 34.5186C90.5929 34.861 90.6421 35.2158 90.6391 35.5721C90.6841 36.2612 90.4585 36.9409 90.009 37.4705C89.7796 37.6998 89.503 37.8779 89.1978 37.9928C88.8926 38.1077 88.566 38.1566 88.2399 38.1364C87.8765 38.1455 87.515 38.083 87.1764 37.9525C86.892 37.8434 86.6356 37.6737 86.4254 37.4556C86.2167 37.2217 86.0635 36.945 85.9768 36.6455C85.8738 36.2988 85.8262 35.9383 85.8357 35.5771L85.8307 35.5969Z" fill="#00AFD7"/>
<path d="M92.7408 35.6317C92.7267 35.9932 92.8158 36.3513 92.9979 36.6654C93.0896 36.7845 93.2074 36.8817 93.3425 36.9496C93.4776 37.0176 93.6265 37.0547 93.7782 37.058C93.9298 37.0613 94.0803 37.0309 94.2183 36.9689C94.3564 36.907 94.4785 36.8151 94.5755 36.7002C94.756 36.3734 94.8398 36.0032 94.8174 35.6317C94.8423 35.2857 94.7634 34.94 94.5906 34.6378C94.5082 34.5207 94.3957 34.4272 94.2647 34.3669C94.1336 34.3067 93.9887 34.2818 93.8447 34.2949C93.6877 34.2857 93.5308 34.3128 93.3864 34.3741C93.242 34.4354 93.1141 34.5291 93.013 34.6478C92.8116 34.9358 92.7156 35.2828 92.7408 35.6317ZM92.4888 34.0614C92.6609 33.7955 92.9031 33.5808 93.1894 33.4402C93.4955 33.3071 93.8278 33.2426 94.1622 33.2513C94.432 33.2379 94.7018 33.279 94.9549 33.3721C95.208 33.4653 95.4391 33.6085 95.634 33.793C95.8321 34.023 95.9822 34.2894 96.0756 34.5768C96.169 34.8642 96.2039 35.167 96.1783 35.4677C96.2293 36.1833 96.0083 36.8919 95.5583 37.4556C95.3324 37.6876 95.0582 37.8686 94.7545 37.9861C94.4509 38.1037 94.125 38.1549 93.7993 38.1364C93.46 38.1585 93.1202 38.1022 92.8069 37.9719C92.4936 37.8417 92.2156 37.641 91.9949 37.386C91.522 36.7025 91.3014 35.8798 91.3699 35.0553C91.3648 34.578 91.3985 34.101 91.4707 33.629C91.526 33.287 91.6242 32.9532 91.763 32.6351C91.8698 32.3922 92.0219 32.1714 92.2116 31.9841C92.3813 31.8225 92.5794 31.6929 92.7963 31.6014C93.0149 31.5046 93.2453 31.4361 93.4818 31.3977C93.7287 31.3629 93.9858 31.3281 94.258 31.3032C94.6158 31.2685 94.9182 31.2287 95.1703 31.179C95.3752 31.154 95.5689 31.0731 95.7297 30.9454L95.765 32.0536C95.5962 32.1857 95.3941 32.2699 95.1803 32.2972C94.9283 32.3419 94.5856 32.3816 94.1723 32.4164C93.9418 32.4261 93.7126 32.4544 93.4868 32.5009C93.3031 32.5458 93.1313 32.6288 92.9828 32.7444C92.8277 32.8788 92.7098 33.0498 92.64 33.2414C92.5417 33.5089 92.479 33.7879 92.4535 34.0713L92.4888 34.0614Z" fill="#00AFD7"/>
<path d="M98.2852 35.5771C98.2838 35.7758 98.3041 35.974 98.3456 36.1684C98.3777 36.3436 98.4409 36.5118 98.5321 36.6654C98.6097 36.7956 98.7188 36.9049 98.8497 36.9835C99.0052 37.0624 99.1789 37.1001 99.3537 37.0928C99.5038 37.103 99.654 37.075 99.7899 37.0115C99.9259 36.948 100.043 36.851 100.13 36.73C100.326 36.385 100.415 35.9912 100.387 35.5969C100.402 35.2203 100.321 34.8459 100.15 34.5086C100.07 34.3726 99.9534 34.2617 99.8125 34.1887C99.6715 34.1157 99.5124 34.0836 99.3537 34.0961C99.2066 34.0896 99.0601 34.1183 98.9267 34.1798C98.7933 34.2412 98.6769 34.3336 98.5876 34.449C98.3722 34.7922 98.2749 35.1948 98.3104 35.5969L98.2852 35.5771ZM96.9445 35.5969C96.897 34.9061 97.1228 34.2239 97.5745 33.6936C97.8066 33.4651 98.0851 33.2876 98.3918 33.1728C98.6984 33.058 99.0263 33.0086 99.3537 33.0277C99.7169 33.0214 100.078 33.0838 100.417 33.2116C100.699 33.3203 100.952 33.4902 101.158 33.7085C101.364 33.9443 101.517 34.2204 101.607 34.5186C101.707 34.861 101.756 35.2158 101.753 35.5721C101.801 36.2615 101.575 36.9422 101.123 37.4705C100.893 37.6998 100.617 37.8779 100.312 37.9928C100.006 38.1077 99.6797 38.1566 99.3537 38.1364C98.9903 38.146 98.6286 38.0835 98.2902 37.9525C98.0049 37.8451 97.7481 37.6752 97.5392 37.4556C97.3305 37.2217 97.1773 36.945 97.0906 36.6455C96.9739 36.3009 96.9127 35.9404 96.9092 35.5771L96.9445 35.5969Z" fill="#00AFD7"/>
<path d="M104.964 34.0763C104.745 34.0645 104.53 34.1317 104.359 34.2652C104.195 34.4139 104.076 34.605 104.016 34.8168V36.8394C104.111 36.9111 104.216 36.968 104.329 37.0084C104.471 37.057 104.621 37.0789 104.772 37.073C104.936 37.0827 105.099 37.0529 105.249 36.9862C105.398 36.9195 105.528 36.818 105.629 36.6903C105.853 36.3047 105.953 35.8611 105.916 35.4181C105.937 35.0723 105.859 34.7277 105.689 34.4242C105.612 34.306 105.504 34.2108 105.376 34.1486C105.248 34.0865 105.106 34.0598 104.964 34.0714V34.0763ZM102.69 33.142H103.658L103.809 33.7235H103.855C104.014 33.4932 104.229 33.3054 104.48 33.1768C104.757 33.0541 105.058 32.9946 105.362 33.0029C105.631 32.9834 105.902 33.0258 106.152 33.1267C106.402 33.2276 106.625 33.3842 106.803 33.5843C107.172 34.1327 107.34 34.7879 107.282 35.443C107.287 35.8226 107.236 36.2009 107.131 36.5661C107.042 36.8775 106.887 37.1671 106.677 37.4159C106.477 37.648 106.225 37.8317 105.941 37.9526C105.46 38.1336 104.937 38.1817 104.429 38.0917C104.288 38.0611 104.151 38.0144 104.021 37.9526V39.9404H102.695L102.69 33.142Z" fill="#00AFD7"/>
<path d="M109.994 35.8753L110.175 36.6356H110.236L110.372 35.8653L111.148 33.147H112.514L110.961 37.5301C110.83 37.8929 110.709 38.2259 110.589 38.524C110.484 38.7978 110.352 39.0608 110.195 39.3092C110.071 39.5034 109.91 39.6721 109.722 39.8062C109.54 39.9311 109.323 39.9955 109.102 39.9901C108.81 40.0026 108.52 39.9463 108.255 39.8261L108.502 38.8322C108.599 38.8714 108.704 38.8917 108.809 38.8918C108.979 38.8855 109.14 38.8183 109.263 38.7029C109.441 38.5122 109.557 38.2734 109.596 38.0171L107.458 33.147H109.051L109.994 35.8753Z" fill="#00AFD7"/>
<path d="M115.815 36.9437V34.2154H114.742C114.742 34.449 114.706 34.7124 114.671 34.9559C114.636 35.1994 114.595 35.4528 114.54 35.7212C114.485 35.9896 114.429 36.2182 114.364 36.412C114.31 36.5967 114.235 36.7751 114.142 36.9437H115.815ZM117.887 39.1154H116.934L116.778 38.0072H113.345L113.194 39.1154H112.221V36.8891H112.826C112.907 36.7726 112.978 36.6496 113.038 36.5213C113.143 36.2955 113.227 36.061 113.29 35.8206C113.39 35.4566 113.464 35.0864 113.512 34.7124C113.577 34.1931 113.607 33.6702 113.602 33.147H117.131V36.8891H117.877L117.887 39.1154Z" fill="#00AFD7"/>
<path d="M119.787 35.5771C119.786 35.7758 119.806 35.974 119.847 36.1685C119.882 36.343 119.945 36.5108 120.034 36.6654C120.112 36.7971 120.223 36.9066 120.356 36.9835C120.503 37.0575 120.666 37.095 120.83 37.0928C120.98 37.103 121.131 37.075 121.266 37.0115C121.402 36.948 121.519 36.851 121.606 36.73C121.805 36.386 121.894 35.9914 121.863 35.597C121.879 35.2203 121.797 34.8459 121.627 34.5086C121.547 34.3726 121.43 34.2617 121.289 34.1887C121.148 34.1157 120.989 34.0836 120.83 34.0961C120.683 34.0896 120.537 34.1183 120.403 34.1798C120.27 34.2412 120.153 34.3336 120.064 34.449C119.849 34.7922 119.751 35.1948 119.787 35.597V35.5771ZM118.421 35.597C118.376 34.9063 118.601 34.2249 119.051 33.6936C119.283 33.4656 119.562 33.2884 119.869 33.1737C120.175 33.059 120.503 33.0092 120.83 33.0277C121.193 33.0214 121.554 33.0838 121.894 33.2116C122.177 33.3197 122.432 33.4895 122.64 33.7085C122.842 33.9458 122.993 34.2215 123.083 34.5186C123.183 34.861 123.232 35.2158 123.229 35.5721C123.276 36.2605 123.052 36.9402 122.604 37.4705C122.374 37.6999 122.097 37.8781 121.79 37.9929C121.484 38.1078 121.157 38.1567 120.83 38.1364C120.467 38.1451 120.105 38.0826 119.767 37.9525C119.482 37.8434 119.226 37.6737 119.016 37.4556C118.809 37.2205 118.656 36.9442 118.567 36.6455C118.471 36.2977 118.43 35.9373 118.446 35.5771L118.421 35.597Z" fill="#00AFD7"/>
<path d="M125.503 37.0332L125.77 37.063H126.077C126.347 37.0822 126.618 37.0325 126.863 36.9189C126.939 36.8714 127 36.8049 127.041 36.7263C127.082 36.6477 127.1 36.5598 127.095 36.4717C127.097 36.3919 127.08 36.3128 127.046 36.2404C127.012 36.168 126.962 36.1044 126.899 36.0542C126.685 35.9279 126.436 35.8722 126.188 35.8952H125.503V37.0332ZM126.208 35.1299C126.398 35.1382 126.585 35.0859 126.743 34.9808C126.807 34.9383 126.861 34.8807 126.898 34.8131C126.935 34.7455 126.954 34.67 126.954 34.5932C126.959 34.5195 126.945 34.4457 126.913 34.3788C126.882 34.3119 126.833 34.254 126.773 34.2105C126.576 34.104 126.351 34.059 126.128 34.0813H125.755H125.503V35.105L126.208 35.1299ZM124.192 33.1421L125.054 33.0824C125.39 33.0625 125.753 33.0526 126.143 33.0526C126.694 33.0094 127.246 33.1159 127.74 33.3607C127.901 33.4561 128.031 33.5935 128.116 33.7576C128.202 33.9218 128.239 34.1061 128.224 34.29C128.224 34.525 128.154 34.7547 128.023 34.951C127.871 35.1773 127.642 35.3429 127.378 35.4181V35.4579C127.682 35.5039 127.963 35.6491 128.174 35.8703C128.346 36.0882 128.434 36.3597 128.421 36.6357C128.433 36.8528 128.384 37.069 128.28 37.2609C128.176 37.4527 128.021 37.6128 127.831 37.724C127.246 38.0045 126.595 38.1279 125.946 38.0818C125.664 38.0818 125.361 38.0818 125.039 38.0818C124.716 38.0818 124.439 38.042 124.202 38.0172L124.192 33.1421Z" fill="#00AFD7"/>
<path d="M131.047 37.0432C131.27 37.0551 131.491 36.9959 131.677 36.8742C131.819 36.779 131.938 36.6533 132.025 36.5065V35.8753C131.823 35.8606 131.621 35.8606 131.42 35.8753C131.249 35.8878 131.08 35.9178 130.916 35.9648C130.783 36.0017 130.661 36.068 130.558 36.1586C130.515 36.2009 130.481 36.2513 130.459 36.3069C130.436 36.3624 130.425 36.4218 130.427 36.4816C130.423 36.5596 130.435 36.6376 130.464 36.7104C130.493 36.7833 130.537 36.8492 130.593 36.904C130.725 37.0097 130.892 37.0629 131.062 37.0531L131.047 37.0432ZM129.373 33.4353C129.686 33.3076 130.012 33.2158 130.346 33.1619C130.743 33.0859 131.146 33.0477 131.551 33.0476C131.851 33.0401 132.151 33.0804 132.438 33.1669C132.654 33.2354 132.849 33.3548 133.007 33.5148C133.146 33.6676 133.248 33.8494 133.305 34.0465C133.364 34.2755 133.392 34.511 133.39 34.7472C133.39 35.0355 133.39 35.3187 133.36 35.6119C133.33 35.9051 133.325 36.1834 133.325 36.4617C133.325 36.74 133.325 37.0084 133.325 37.2718C133.343 37.5256 133.394 37.7761 133.476 38.0172H132.393L132.181 37.3463H132.13C131.979 37.5502 131.785 37.7196 131.561 37.8433C131.277 38.0008 130.954 38.0766 130.628 38.0619C130.409 38.0644 130.191 38.0308 129.983 37.9625C129.796 37.9017 129.624 37.8017 129.479 37.6693C129.342 37.5442 129.234 37.3917 129.162 37.2221C129.084 37.0396 129.047 36.8433 129.051 36.6456C129.04 36.379 129.112 36.1154 129.257 35.8902C129.412 35.6759 129.621 35.5047 129.862 35.3933C130.159 35.2578 130.475 35.1705 130.8 35.1349C131.204 35.0836 131.612 35.0686 132.02 35.0901C132.081 34.8268 132.053 34.5507 131.939 34.3049C131.838 34.1459 131.611 34.0714 131.253 34.0714C130.971 34.0729 130.69 34.0979 130.412 34.1459C130.16 34.1835 129.915 34.252 129.681 34.3497L129.373 33.4353Z" fill="#00AFD7"/>
<path d="M137.524 36.089H135.855V38.0073H134.53V33.1421H135.855V34.9709H137.524V33.1421H138.849V38.0073H137.524V36.089Z" fill="#00AFD7"/>
<path d="M143.139 35.7909L143.189 35.1001H143.159L142.72 35.8107L140.901 38.0073H140.064V33.1421H141.395V35.4579L141.334 36.1189H141.374L141.793 35.4281L143.627 33.1421H144.469V38.0073H143.139V35.7909Z" fill="#00AFD7"/>
<path d="M147.876 34.0217C147.734 34.0107 147.591 34.0313 147.457 34.082C147.324 34.1328 147.203 34.2123 147.105 34.3149C146.928 34.5448 146.825 34.8217 146.808 35.11H148.688C148.73 34.8285 148.669 34.5413 148.516 34.3C148.44 34.2044 148.34 34.129 148.227 34.0804C148.113 34.0319 147.99 34.0117 147.866 34.0217H147.876ZM149.761 37.5898C149.508 37.7654 149.227 37.8981 148.93 37.9824C148.567 38.0891 148.19 38.1426 147.811 38.1414C147.476 38.1708 147.139 38.1242 146.826 38.0054C146.512 37.8865 146.23 37.6985 146.001 37.4556C145.591 36.9158 145.388 36.2505 145.427 35.5771C145.4 35.2297 145.443 34.8805 145.554 34.5496C145.665 34.2186 145.841 33.9126 146.072 33.649C146.314 33.4266 146.599 33.255 146.91 33.1448C147.221 33.0346 147.551 32.988 147.881 33.0079C148.137 33.0085 148.391 33.0419 148.637 33.1073C148.874 33.1673 149.096 33.2756 149.288 33.4253C149.488 33.5867 149.647 33.7928 149.751 34.0266C149.875 34.3261 149.933 34.6478 149.923 34.9709C149.923 35.11 149.923 35.2541 149.898 35.4132C149.882 35.58 149.856 35.7459 149.822 35.9101H146.768C146.762 36.2468 146.878 36.5743 147.095 36.8344C147.227 36.9493 147.381 37.0363 147.549 37.0901C147.716 37.144 147.893 37.1635 148.068 37.1475C148.324 37.1521 148.578 37.11 148.819 37.0233C148.998 36.9641 149.168 36.8805 149.323 36.7748L149.761 37.5898Z" fill="#00AFD7"/>
</g>
<defs>
<clipPath id="clip0">
<rect width="174" height="40" fill="white"/>
</clipPath>
</defs>
</svg>
