<svg width="255" height="40" viewBox="0 0 255 40" fill="none" xmlns="http://www.w3.org/2000/svg">
<g clip-path="url(#clip0)">
<path d="M193.665 0.592651H192.774V40.0001H193.665V0.592651Z" fill="#D92227"/>
<path d="M248.262 16.4444C247.817 16.4444 247.372 16 247.372 15.5556C247.372 15.1111 247.817 14.6667 248.262 14.6667C248.707 14.6667 249.152 15.1111 249.152 15.5556C249.152 16.1481 248.855 16.4444 248.262 16.4444ZM247.223 12.2963C247.223 12.1481 247.372 12 247.52 12C247.668 12 247.817 12.2963 247.817 12.4444C247.817 12.5926 247.668 12.7407 247.52 12.7407C247.372 12.5926 247.223 12.4444 247.223 12.2963ZM246.036 10.0741C245.888 10.0741 245.74 9.92592 245.74 9.77777C245.74 9.62962 246.036 9.48148 246.185 9.48148C246.333 9.48148 246.481 9.62962 246.481 9.77777C246.481 9.92592 246.333 10.0741 246.036 10.0741ZM240.695 17.7778H237.876V14.963L245.294 10.3704L245.591 10.6667L240.695 17.7778ZM236.541 8.14814C236.393 8.14814 236.244 7.85185 236.244 7.7037C236.244 7.55555 236.393 7.4074 236.541 7.4074C236.689 7.4074 236.986 7.55555 236.986 7.7037C236.986 7.99999 236.838 8.14814 236.541 8.14814C236.541 8.14814 236.689 8.14814 236.541 8.14814ZM234.019 10.0741C233.871 10.0741 233.722 9.92592 233.722 9.77777C233.722 9.62962 233.871 9.48148 234.019 9.48148C234.167 9.48148 234.316 9.62962 234.316 9.77777C234.316 9.92592 234.167 10.0741 234.019 10.0741ZM232.387 12.5926C232.239 12.5926 232.09 12.4444 231.942 12.2963C231.794 12.1481 232.09 12 232.239 11.8518C232.387 11.7037 232.535 12 232.684 12.1481C232.832 12.4444 232.684 12.5926 232.387 12.5926ZM231.942 16.4444C231.497 16.4444 231.052 16 231.052 15.5556C231.052 15.1111 231.497 14.6667 231.942 14.6667C232.387 14.6667 232.832 15.1111 232.832 15.5556C232.832 16.1481 232.387 16.4444 231.942 16.4444ZM240.102 6.37037C240.547 6.37037 240.992 6.81481 240.992 7.25925C240.992 7.7037 240.547 8.14814 240.102 8.14814C239.657 8.14814 239.212 7.7037 239.212 7.25925C239.212 6.81481 239.657 6.37037 240.102 6.37037ZM243.662 7.55555C243.811 7.55555 243.959 7.85185 243.959 8C243.959 8.14814 243.811 8.29629 243.662 8.29629C243.514 8.29629 243.217 8.14814 243.217 8C243.217 7.7037 243.366 7.55555 243.662 7.55555C243.662 7.55555 243.514 7.55555 243.662 7.55555ZM240.102 5.18518C236.689 5.18518 233.574 6.81481 231.645 9.48148V5.48148H216.216V11.8518H223.634L216.809 25.7778H224.672L229.568 15.7037C229.568 21.4815 234.316 26.0741 240.25 26.0741C246.185 26.0741 250.635 21.3333 250.635 15.4074C250.635 9.77777 245.888 5.18518 240.102 5.18518Z" fill="#D92227"/>
<path d="M214.732 31.4074C214.732 30.9629 214.435 30.8148 213.99 30.8148C213.545 30.8148 213.397 30.9629 213.397 31.2592C213.397 31.5555 213.545 31.5555 213.693 31.5555C214.287 31.7037 214.88 31.8518 215.325 32.1481C215.77 32.2963 216.067 32.7407 216.067 33.3333C216.067 34.2222 215.325 34.9629 213.99 34.9629C212.655 34.9629 211.913 34.3703 211.913 33.1852H213.1C213.1 33.7778 213.545 33.9259 213.99 33.9259C214.584 33.9259 214.732 33.7778 214.732 33.4815C214.732 33.1852 214.584 33.037 214.139 33.037L212.952 32.5926C212.358 32.4444 212.061 32 212.061 31.4074C212.061 30.5185 212.803 29.9259 213.99 29.9259C215.177 29.9259 215.919 30.5185 215.919 31.4074H214.732Z" fill="#D92227"/>
<path d="M218.441 30.074H217.254V34.8147H218.441V30.074Z" fill="#D92227"/>
<path d="M219.776 30.074H220.963L222.744 33.0369L222.595 30.074H223.93V34.8147H222.595L220.963 31.7036V34.8147H219.776V30.074Z" fill="#D92227"/>
<path d="M229.271 32.8889C229.271 33.1852 229.123 33.4815 228.975 33.7778C228.678 34.5185 227.788 34.9629 227.046 34.9629C225.711 34.9629 224.672 33.9259 224.672 32.7407C224.672 32.5926 224.672 32.5926 224.672 32.4444C224.524 31.1111 225.562 30.0741 226.898 29.9259C227.046 29.9259 227.046 29.9259 227.194 29.9259C228.233 29.9259 229.271 30.6666 229.271 31.7037H228.084C228.084 31.2592 227.639 30.9629 227.194 30.9629C226.452 30.9629 226.007 31.5555 226.007 32.4444C226.007 33.3333 226.452 33.9259 227.194 33.9259C227.936 33.9259 228.084 33.6296 228.084 33.037L229.271 32.8889Z" fill="#D92227"/>
<path d="M233.871 30.9629H231.349V31.8518H233.722V32.7406H231.349V33.7777H234.019V34.8147H230.162V30.074H233.871V30.9629Z" fill="#D92227"/>
<path d="M240.695 34.8148H239.508V31.8518H238.322V30.9629C239.063 30.9629 239.657 30.8148 239.805 29.9259H240.695V34.8148Z" fill="#D92227"/>
<path d="M242.772 31.7036C242.772 32.1481 243.069 32.4444 243.514 32.4444C243.959 32.4444 244.256 32.1481 244.256 31.7036C244.256 31.2592 243.959 30.9629 243.514 30.9629C243.217 30.8147 242.921 31.2592 242.772 31.7036C242.772 31.5555 242.772 31.5555 242.772 31.7036ZM242.772 33.4814C242.772 33.7777 243.069 33.9259 243.366 33.9259C243.959 33.9259 244.256 33.1851 244.256 32.7407C243.959 33.037 243.514 33.3333 243.217 33.1851C242.476 33.3333 241.734 32.7407 241.585 31.8518C241.585 31.7036 241.585 31.7036 241.585 31.5555C241.585 30.6666 242.327 29.7777 243.366 29.7777H243.514C244.701 29.7777 245.443 30.6666 245.443 32.1481C245.443 33.6296 244.701 34.6666 243.514 34.6666C242.624 34.8147 241.882 34.2222 241.734 33.3333L242.772 33.4814Z" fill="#D92227"/>
<path d="M248.41 31.2592L247.223 32.8889H248.41V31.2592ZM250.19 33.7778H249.597V34.8148H248.41V33.7778H246.333V32.5926L248.41 29.9259H249.597V32.7407H250.19V33.7778Z" fill="#D92227"/>
<path d="M252.119 31.7036C252.119 32.1481 252.416 32.4444 252.861 32.4444C253.306 32.4444 253.603 32.1481 253.603 31.7036C253.603 31.2592 253.306 30.9629 252.861 30.9629C252.416 30.8147 252.119 31.2592 252.119 31.7036C252.119 31.5555 252.119 31.5555 252.119 31.7036ZM252.119 33.4814C252.119 33.7777 252.416 33.9259 252.712 33.9259C253.306 33.9259 253.603 33.1851 253.603 32.7407C253.306 33.037 252.861 33.3333 252.564 33.1851C251.822 33.3333 251.08 32.7407 250.932 31.8518C250.932 31.7036 250.932 31.7036 250.932 31.5555C250.932 30.6666 251.674 29.7777 252.712 29.7777H252.861C254.048 29.7777 254.79 30.6666 254.79 32.1481C254.79 33.6296 254.048 34.6666 252.712 34.6666C251.822 34.8147 251.08 34.2222 250.932 33.3333H252.119V33.4814Z" fill="#D92227"/>
<path d="M177.196 6.96289C175.861 6.96289 174.674 8.14808 174.674 9.48141C174.674 10.8147 175.861 11.9999 177.196 11.9999C178.532 11.9999 179.719 10.8147 179.719 9.48141C179.719 7.99993 178.532 6.96289 177.196 6.96289ZM177.196 11.4073C176.01 11.4073 175.119 10.5184 175.119 9.33326C175.119 8.14808 176.01 7.25919 177.196 7.25919C178.383 7.25919 179.274 8.14808 179.274 9.33326C179.274 10.5184 178.383 11.4073 177.196 11.4073Z" fill="#D92227"/>
<path d="M177.345 8.29626C177.79 8.29626 178.087 8.44441 178.087 8.88886C178.087 9.18515 177.938 9.3333 177.79 9.48145C178.087 9.48145 178.087 9.77775 178.087 9.92589C178.087 10.074 178.087 10.2222 178.235 10.5185H177.79C177.79 10.3703 177.79 10.2222 177.79 10.074C177.79 9.77775 177.642 9.6296 177.345 9.6296H176.603V10.5185H176.158V8.29626H177.345ZM176.603 9.3333H177.048C177.345 9.3333 177.493 9.3333 177.493 9.03701C177.493 8.74071 177.196 8.74071 177.048 8.74071H176.603V9.3333Z" fill="#D92227"/>
<path d="M104.203 18.5185C104.203 18.8148 104.203 19.2593 104.203 19.5556C104.499 20.4444 105.389 21.1852 106.28 21.1852C107.467 21.3333 108.653 21.037 109.395 20C110.137 18.963 110.285 17.7778 109.989 16.5926C109.84 15.7037 109.247 14.8148 108.357 14.2222C107.021 13.4815 105.538 13.4815 104.203 14.0741C103.757 14.2222 103.461 14.3704 103.016 14.5185L102.422 14.8148V13.7778H95.0042V17.6296H95.4492C96.0427 17.6296 96.4878 18.0741 96.6361 18.6667V27.5556C96.6361 28.1482 96.191 28.5926 95.4492 28.7407H95.0042V32.5926H104.203V28.7407H103.757C103.164 28.7407 102.571 28.2963 102.571 27.5556V24.2963V24.1482C102.571 22.6667 102.571 21.3333 102.571 20C102.571 19.1111 103.164 18.2222 104.054 17.9259C104.203 18.0741 104.203 18.2222 104.203 18.5185Z" fill="#D92227"/>
<path d="M93.3722 26.3704H87.8828V27.4074C87.8828 28.2963 87.2894 28.8889 86.3992 28.8889H86.2508C85.3607 28.8889 84.7672 28.2963 84.7672 27.4074V24.7408H93.3722V20.4445C93.2238 16.4445 89.8115 13.3334 85.8058 13.4815C82.0967 13.6297 78.9811 16.7408 78.8328 20.4445V25.7778C78.8328 29.7778 81.9484 33.0371 85.9541 33.1852C89.8115 33.3334 93.0755 30.2223 93.3722 26.3704ZM84.7672 18.963C84.7672 18.0741 85.3607 17.4815 86.2508 17.4815H86.3992C87.2894 17.4815 87.8828 18.0741 87.8828 18.963V21.1852H84.7672V18.963Z" fill="#D92227"/>
<path d="M131.353 19.1112V19.5556C131.353 20.5926 131.353 21.6297 131.353 22.6667V27.4074C131.353 28.1482 131.056 28.5926 130.611 28.5926V32.5926H138.771V28.7408H138.474C137.881 28.7408 137.436 28.2963 137.287 27.5556V27.4074V17.4815C137.287 17.0371 137.139 16.7408 136.991 16.2963C135.952 13.7778 132.391 12.7408 128.979 14.2223C128.386 14.5186 127.94 14.8149 127.495 15.2593C126.16 13.6297 123.045 13.1852 120.374 14.2223C120.226 14.3704 119.929 14.5186 119.632 14.8149H119.335V13.7778H111.769V17.6297H112.362C112.956 17.6297 113.549 18.0741 113.549 18.8149V27.7037C113.549 28.2963 113.104 28.8889 112.362 28.8889H111.917V32.5926H120.226V28.5926C119.632 28.4445 119.484 28.1482 119.484 27.4074C119.484 25.7778 119.484 24.1482 119.484 22.6667V19.2593C119.484 18.3704 120.077 17.7778 120.967 17.7778C121.858 17.7778 122.451 18.3704 122.451 19.2593V22.2223C122.451 24 122.451 25.6297 122.451 27.4074C122.451 28.1482 122.303 28.4445 121.709 28.5926V32.5926H129.127V28.5926C128.682 28.4445 128.386 27.8519 128.386 27.4074V23.5556C128.386 22.2223 128.386 20.8889 128.386 19.7037V19.2593C128.386 18.3704 128.979 17.7778 129.869 17.7778C130.759 17.7778 131.204 18.3704 131.353 19.1112Z" fill="#D92227"/>
<path d="M163.696 27.1112L163.992 26.8149L164.289 27.2593C164.437 27.4075 164.586 27.5556 164.734 27.7038C164.883 27.8519 164.883 28.2963 164.734 28.4445V32.5926H172.894V28.5926C172.152 28.4445 171.41 28 171.114 27.4075C169.482 25.3334 167.701 23.2593 167.701 23.2593C167.701 23.2593 169.333 20.7408 170.224 19.2593C170.965 18.0741 171.41 17.6297 172.449 17.4815V13.7778H165.624V17.6297C165.773 17.7778 165.773 17.7778 165.773 17.926C165.773 18.0741 165.773 18.2223 165.624 18.3704C165.476 18.5186 165.328 18.8149 165.031 18.963C164.882 19.1112 164.734 19.1112 164.734 19.2593C164.437 19.1112 164.289 18.963 164.289 18.8149C164.141 18.6667 163.992 18.5186 163.844 18.3704C163.696 18.2223 163.696 18.0741 163.696 17.926C163.696 17.7778 163.844 17.6297 163.992 17.6297V13.7778H156.129V17.4815C156.723 17.6297 157.168 17.926 157.464 18.3704C158.058 19.1112 158.651 19.8519 159.245 20.7408C159.838 21.6297 160.432 22.3704 161.173 23.1112L160.432 24.1482C159.69 25.0371 159.096 25.7778 157.909 27.2593C157.613 27.5556 157.019 28.4445 156.129 28.4445V32.5926H162.805V28.4445C162.509 28.1482 162.509 27.8519 162.805 27.7038C163.399 27.4075 163.547 27.2593 163.696 27.1112Z" fill="#D92227"/>
<path d="M149.453 26.3704V27.4074C149.453 28.2963 148.859 28.8889 147.969 28.8889H147.821C146.931 28.8889 146.337 28.2963 146.337 27.4074V24.7407H154.942V20.4444C154.942 16.4444 151.678 13.1852 147.673 13.1852C143.667 13.1852 140.403 16.4444 140.403 20.4444V25.7778C140.403 29.7778 143.518 33.037 147.524 33.1852C151.382 33.1852 154.646 30.2222 154.942 26.3704H149.453ZM146.337 18.963C146.337 18.0741 146.931 17.4815 147.821 17.4815H147.969C148.859 17.4815 149.453 18.0741 149.453 18.963V21.1852H146.337V18.963Z" fill="#D92227"/>
<path d="M20.0816 0C8.95443 0 0.0527344 8.88889 0.0527344 20C0.0527344 31.1111 8.95443 40 20.0816 40C31.2087 40 40.1104 31.1111 40.1104 20C40.1104 8.88889 31.2087 0 20.0816 0ZM32.6923 28.8889C32.6923 30.6667 31.2087 32.1481 29.4283 32.1481H10.8831C9.10279 32.1481 7.61918 30.6667 7.61918 28.8889V17.9259H13.9987V25.9259H32.6923V28.8889ZM32.6923 15.4074H23.939V23.5556H16.3725V15.4074H7.47081V11.2593C7.47081 9.33333 8.95443 7.85185 10.8831 7.85185H29.28C31.2087 7.85185 32.6923 9.33333 32.6923 11.2593V15.4074Z" fill="#D92227"/>
<path d="M30.3185 11.2593C30.3185 10.6667 29.8734 10.2223 29.2799 10.2223H11.0315C10.438 10.2223 9.99292 10.6667 9.99292 11.2593V13.0371H18.7463V21.1853H21.5651V13.0371H30.3185V11.2593Z" fill="#D92227"/>
<path d="M47.9735 28.5925C47.9735 31.111 50.0505 33.1851 52.4243 33.1851H52.721C55.2432 33.1851 57.3202 31.111 57.3202 28.5925V27.4073H55.2432V27.9999C55.2432 28.2962 55.0948 28.7407 54.6497 28.7407C54.353 28.7407 53.9079 28.5925 53.9079 28.1481V27.9999V26.8147C53.9079 23.7036 53.9079 17.3333 53.9079 17.1851H56.2817V13.037H53.9079V6.96289H50.0505V10.5184C50.0505 13.037 47.2316 13.037 46.1931 13.037V17.1851H47.9735V26.8147V28.5925Z" fill="#D92227"/>
<path d="M69.6344 19.5555C69.6344 22.074 69.6344 24.4444 69.6344 27.4073V27.5555C69.6344 27.9999 69.3376 28.4444 68.8925 28.5925V32.5925H77.2008V28.7407H76.7557C76.1623 28.7407 75.7172 28.2962 75.5688 27.5555V24.2962C75.5688 22.9629 75.5688 21.1851 75.5688 19.8518C75.5688 18.8147 75.5688 17.9259 75.5688 17.6296C75.5688 17.4814 75.5688 17.1851 75.5688 17.037C75.5688 16.7407 75.4205 16.5925 75.4205 16.2962C74.3819 13.7777 70.8212 12.7407 67.4089 14.2221C67.1122 14.3703 66.9638 14.3703 66.6671 14.5184V6.96289H59.1007V10.8147H59.3974C59.8425 10.8147 60.2876 11.111 60.4359 11.5555V11.7036V11.8518V27.5555C60.4359 28.1481 59.9909 28.5925 59.249 28.7407H58.804V32.5925H67.1122V28.5925C66.6671 28.4444 66.3704 27.9999 66.3704 27.5555V27.4073C66.3704 26.8147 66.3704 26.2221 66.3704 25.6296C66.3704 23.7036 66.3704 21.6296 66.3704 19.7036C66.3704 19.7036 66.3704 19.7036 66.3704 19.5555V19.2592C66.3704 18.3703 67.1122 17.7777 68.0024 17.7777C68.8925 17.7777 69.6344 18.3703 69.6344 19.2592V19.5555Z" fill="#D92227"/>
</g>
<defs>
<clipPath id="clip0">
<rect width="254.737" height="40" fill="white" transform="translate(0.0527344)"/>
</clipPath>
</defs>
</svg>
