<svg width="99" height="40" viewBox="0 0 99 40" fill="none" xmlns="http://www.w3.org/2000/svg">
<g clip-path="url(#clip0)">
<path fill-rule="evenodd" clip-rule="evenodd" d="M3.53233 0H96.023C97.4994 0 98.7198 1.15874 98.7198 2.60046V37.4073C98.7198 38.8349 97.4994 40 96.023 40H3.53233C2.05478 40 0.848877 38.8349 0.848877 37.4073V2.60046C0.848877 1.15874 2.05478 0 3.53233 0Z" fill="#8FC036"/>
<path fill-rule="evenodd" clip-rule="evenodd" d="M6.83107 4.90649H78.7864C80.2617 4.90649 81.4889 6.07345 81.4889 7.49731V32.7276C81.4889 34.1547 80.2617 35.3216 78.7864 35.3216H6.83107C5.34093 35.3216 4.13916 34.1547 4.13916 32.7276V7.49731C4.13916 6.07345 5.34093 4.90649 6.83107 4.90649Z" fill="#FEFEFE"/>
<path fill-rule="evenodd" clip-rule="evenodd" d="M15.9021 14.184H18.3395V17.6615H15.7663C14.972 17.6276 14.5886 17.9629 14.6408 18.8413V29.4505H11.0475V19.6198C10.8984 16.7019 12.8539 14.184 15.9021 14.184Z" fill="#262727"/>
<path fill-rule="evenodd" clip-rule="evenodd" d="M42.8713 29.4506H46.4525V8.1239H42.8713V29.4506Z" fill="#262727"/>
<path d="M28.6848 20.4872C28.6982 19.2152 28.2675 17.5661 26.9353 17.0078C26.6015 16.8817 26.2379 16.8152 25.8519 16.8152C23.6014 16.8152 23.0886 18.7023 22.9368 20.4872H28.6848ZM31.9795 20.6798C31.9795 20.9257 31.9795 21.2267 31.9551 21.6133C31.9551 21.9858 31.9268 22.3629 31.8974 22.6945H22.8021C22.8021 23.3257 22.8842 23.8936 23.0738 24.3853C23.2542 24.8776 23.5182 25.2835 23.8665 25.6253C24.203 25.9583 24.6081 26.2142 25.082 26.3647C25.5623 26.5441 26.0834 26.6331 26.6686 26.6331C26.8529 26.6331 31.0456 26.6331 31.2272 26.6189V29.4037C30.8598 29.423 26.5221 29.423 26.1613 29.423C25.1209 29.423 24.1721 29.284 23.3282 28.9633C22.5114 28.6445 21.7954 28.1643 21.2071 27.5523C20.623 26.9326 20.1896 26.1721 19.8791 25.2528C19.564 24.3514 19.4175 23.2932 19.4175 22.1069C19.4175 20.9065 19.564 19.8349 19.8791 18.8606C20.1896 17.8964 20.623 17.0597 21.1938 16.367C21.7374 15.6633 22.4374 15.1358 23.2436 14.7633C24.0401 14.3766 24.942 14.184 25.9259 14.184C26.9109 14.184 27.7708 14.3555 28.5407 14.6762C29.2903 14.9881 29.911 15.4367 30.4249 16.0142C30.9323 16.5808 31.3187 17.2702 31.593 18.0615C31.8502 18.8606 31.9795 19.728 31.9795 20.6798Z" fill="#262727"/>
<path fill-rule="evenodd" clip-rule="evenodd" d="M39.2473 8.1239H41.6656V11.6046H39.0844C38.2958 11.5707 37.9147 11.917 37.954 12.7891V14.3767H40.4826V16.8492H37.954V29.4506H34.3794V16.8492H32.2395V14.3767H34.3794V13.5643C34.2245 10.645 36.1773 8.1239 39.2473 8.1239Z" fill="#262727"/>
<path d="M57.6056 20.4872C57.6205 19.2152 57.1844 17.5661 55.8522 17.0078C55.5131 16.8817 55.1575 16.8152 54.7741 16.8152C52.5183 16.8152 52.0135 18.7023 51.8415 20.4872H57.6056ZM60.8991 20.6798C60.8991 20.9257 60.8991 21.2267 60.872 21.6133C60.872 21.9858 60.8357 22.3629 60.814 22.6945H51.7149C51.7149 23.3257 51.8064 23.8936 51.9933 24.3853C52.1791 24.8776 52.4511 25.2835 52.7659 25.6253C53.1215 25.9583 53.5277 26.2142 53.9962 26.3647C54.478 26.5441 55.0026 26.6331 55.5951 26.6331C55.7809 26.6331 59.9637 26.6331 60.1372 26.6189V29.4037C59.7767 29.423 55.4444 29.423 55.0823 29.423C54.0404 29.423 53.0837 29.284 52.2452 28.9633C51.4203 28.6445 50.7081 28.1643 50.132 27.5523C49.5414 26.9326 49.1066 26.1721 48.7945 25.2528C48.474 24.3514 48.334 23.2932 48.334 22.1069C48.334 20.9065 48.474 19.8349 48.7945 18.8606C49.1066 17.8964 49.5414 17.0597 50.1038 16.367C50.6638 15.6633 51.3406 15.1358 52.1509 14.7633C52.9585 14.3766 53.852 14.184 54.8427 14.184C55.8251 14.184 56.6903 14.3555 57.4549 14.6762C58.1965 14.9881 58.8195 15.4367 59.346 16.0142C59.8534 16.5808 60.2368 17.2702 60.5126 18.0615C60.7644 18.8606 60.8991 19.728 60.8991 20.6798Z" fill="#262727"/>
<path fill-rule="evenodd" clip-rule="evenodd" d="M72.8594 22.1069C74.0127 23.1313 74.6574 24.6831 74.5567 26.4051V29.4505H70.9619V25.0909C71.0008 24.3129 70.7089 23.9647 70.0883 23.9051H67.3052C66.6849 23.9647 66.3739 24.3129 66.4113 25.0909V29.4505H62.8047V26.4051C62.7333 24.6831 63.3807 23.1313 64.526 22.1069C63.3807 21.1051 62.7333 19.5487 62.8047 17.8349V14.184H66.4113V19.128C66.3739 19.9225 66.6849 20.2753 67.3052 20.306H70.0883C70.7089 20.2753 71.0008 19.9225 70.9619 19.128V14.184H74.5567V17.8349C74.6574 19.5487 74.0127 21.1051 72.8594 22.1069Z" fill="#262727"/>
</g>
<defs>
<clipPath id="clip0">
<rect width="97.9894" height="40" fill="white" transform="translate(0.789551)"/>
</clipPath>
</defs>
</svg>
