<svg width="13" height="10" viewBox="0 0 13 10" fill="none" xmlns="http://www.w3.org/2000/svg">
<path d="M12.7833 1.2375C12.7445 1.1897 12.6956 1.15109 12.6402 1.12443C12.5847 1.09778 12.524 1.08374 12.4625 1.08333H3.78745L4.05829 1.91667H11.9166L10.8041 6.91667H4.55412L2.64995 0.887499C2.62936 0.823524 2.59359 0.76548 2.54571 0.71832C2.49782 0.67116 2.43924 0.636283 2.37495 0.616666L0.666621 0.0916656C0.614092 0.075524 0.558899 0.0698867 0.504191 0.0750757C0.449484 0.0802646 0.396334 0.0961782 0.347777 0.121908C0.249711 0.173871 0.176304 0.262662 0.143704 0.368749C0.111105 0.474836 0.121983 0.589527 0.173947 0.687593C0.22591 0.785659 0.314701 0.859066 0.420788 0.891666L1.91662 1.35L3.82912 7.39166L3.14579 7.95L3.09162 8.00417C2.92259 8.19895 2.82679 8.44659 2.8207 8.70442C2.81462 8.96224 2.89864 9.21412 3.05829 9.41667C3.17185 9.55477 3.31617 9.66439 3.47968 9.73674C3.64319 9.80909 3.82137 9.84217 3.99995 9.83333H10.9541C11.0646 9.83333 11.1706 9.78943 11.2487 9.71129C11.3269 9.63315 11.3708 9.52717 11.3708 9.41667C11.3708 9.30616 11.3269 9.20018 11.2487 9.12204C11.1706 9.0439 11.0646 9 10.9541 9H3.93329C3.88531 8.99836 3.83856 8.98438 3.79756 8.9594C3.75656 8.93441 3.7227 8.89928 3.69924 8.8574C3.67579 8.81551 3.66353 8.76828 3.66365 8.72027C3.66378 8.67226 3.67628 8.6251 3.69995 8.58333L4.70412 7.75H11.1375C11.2338 7.75235 11.3279 7.72126 11.4039 7.662C11.4799 7.60274 11.533 7.51899 11.5541 7.425L12.875 1.59167C12.8876 1.52955 12.886 1.46536 12.8701 1.40398C12.8542 1.34261 12.8245 1.28567 12.7833 1.2375Z" fill="white"/>
</svg>
