<svg width="24" height="24" viewBox="0 0 24 24" fill="none" xmlns="http://www.w3.org/2000/svg">
<path d="M24 7.35485C24 7.25808 23.9883 7.15727 23.9648 7.05243C23.9414 6.94759 23.9141 6.85082 23.8828 6.76211C23.8516 6.6734 23.8086 6.58872 23.7539 6.50808C23.6992 6.42743 23.6367 6.35082 23.5664 6.27824C23.4961 6.20566 23.4219 6.14114 23.3438 6.08469C23.2656 6.02824 23.1797 5.97985 23.0859 5.93953C22.9922 5.89921 22.8984 5.86695 22.8047 5.84275C22.7109 5.81856 22.6094 5.80646 22.5 5.80646H19.9453C20.6641 5.08066 21.0234 4.20162 21.0234 3.16937C21.0234 2.6855 20.9375 2.24195 20.7656 1.83872C20.5938 1.4355 20.2852 1.08872 19.8398 0.798399C19.3945 0.508076 18.8438 0.362915 18.1875 0.362915C17.9219 0.362915 17.6523 0.391141 17.3789 0.447592C17.1055 0.504044 16.8438 0.588721 16.5938 0.701625C16.3438 0.814528 16.0977 0.939528 15.8555 1.07662C15.6133 1.21372 15.3789 1.37098 15.1523 1.5484C14.9258 1.72582 14.707 1.90727 14.4961 2.09275C14.2852 2.27824 14.082 2.47985 13.8867 2.69759C13.6914 2.91533 13.5078 3.12501 13.3359 3.32662C13.1641 3.52824 12.9961 3.73792 12.832 3.95566C12.668 4.1734 12.5234 4.37098 12.3984 4.5484C12.2734 4.72582 12.1562 4.9113 12.0469 5.10485C11.7188 4.58872 11.3633 4.09275 10.9805 3.61695C10.5977 3.14114 10.1328 2.64114 9.58594 2.11695C9.03906 1.59275 8.4375 1.16937 7.78125 0.846786C7.125 0.524205 6.47656 0.362915 5.83594 0.362915C5.17969 0.362915 4.62891 0.508076 4.18359 0.798399C3.73828 1.08872 3.42969 1.4355 3.25781 1.83872C3.08594 2.24195 3 2.6855 3 3.16937C3 4.20162 3.36719 5.08872 4.10156 5.83066H1.5C1.07812 5.83066 0.722656 5.97985 0.433594 6.27824C0.144531 6.57662 0 6.94356 0 7.37904V12H1.52344V22.0887C1.52344 22.5081 1.66797 22.871 1.95703 23.1774C2.24609 23.4839 2.60156 23.6371 3.02344 23.6371H21C21.4219 23.6371 21.7773 23.4839 22.0664 23.1774C22.3555 22.871 22.5 22.5081 22.5 22.0887V12H24V7.35485ZM18.1875 1.9113C19.0781 1.9113 19.5234 2.33066 19.5234 3.16937C19.5234 3.71775 19.3438 4.19759 18.9844 4.60888C18.625 5.02017 18.1758 5.32259 17.6367 5.51614C17.0977 5.70969 16.5234 5.80646 15.9141 5.80646H13.3828C13.6797 5.35485 13.9961 4.9234 14.332 4.51211C14.668 4.10082 15.0469 3.68953 15.4688 3.27824C15.8906 2.86695 16.3398 2.5363 16.8164 2.2863C17.293 2.0363 17.75 1.9113 18.1875 1.9113ZM5.83594 1.9113C6.67969 1.9113 7.53516 2.30646 8.40234 3.09679C9.26953 3.88711 10.0391 4.79033 10.7109 5.80646H8.17969C7.22656 5.80646 6.375 5.56453 5.625 5.08066C4.875 4.59679 4.5 3.95162 4.5 3.14517C4.5 2.37098 4.89844 1.96775 5.69531 1.9355C5.74219 1.91937 5.78906 1.9113 5.83594 1.9113ZM22.5 10.4516H12.75V7.35485H22.5V10.4516ZM1.5 7.35485H11.25V10.4516H1.5V7.35485ZM3.02344 12H11.25V22.0887H3.02344V12ZM21 22.0887H12.75V12H21V22.0887Z" fill="#DD161B"/>
</svg>
