<svg width="15" height="15" viewBox="0 0 15 15" fill="none" xmlns="http://www.w3.org/2000/svg">
<path d="M6.34173 8.59999C7.21151 9.48234 8.26393 10.1636 9.42506 10.5958L10.9959 9.34582C11.0425 9.31375 11.0977 9.29658 11.1542 9.29658C11.2108 9.29658 11.266 9.31375 11.3126 9.34582L14.2292 11.225C14.34 11.2916 14.4337 11.383 14.503 11.492C14.5724 11.601 14.6154 11.7247 14.6287 11.8532C14.6421 11.9817 14.6253 12.1115 14.5799 12.2325C14.5344 12.3534 14.4614 12.4621 14.3667 12.55L13.0001 13.9C12.8043 14.0934 12.5638 14.2353 12.2999 14.3131C12.036 14.3909 11.7569 14.4021 11.4876 14.3458C8.80098 13.791 6.3247 12.4915 4.34173 10.5958C2.40276 8.68134 1.06101 6.24534 0.479225 3.58332C0.421753 3.31817 0.433748 3.04267 0.514049 2.78352C0.594349 2.52437 0.740232 2.29036 0.937559 2.10416L2.35423 0.737491C2.44189 0.647402 2.5488 0.578313 2.66695 0.535398C2.7851 0.492482 2.91143 0.476852 3.03648 0.489678C3.16153 0.502503 3.28205 0.543452 3.38903 0.609457C3.49601 0.675463 3.58667 0.764815 3.65423 0.870824L5.59589 3.74999C5.62938 3.7952 5.64746 3.84998 5.64746 3.90624C5.64746 3.9625 5.62938 4.01728 5.59589 4.06249L4.31673 5.59999C4.76072 6.73788 5.45245 7.76267 6.34173 8.59999Z" fill="#DD161B"/>
</svg>
