<svg width="11" height="12" viewBox="0 0 11 12" fill="none" xmlns="http://www.w3.org/2000/svg">
<path d="M10.5286 4.48266L7.30524 4.01421L5.86433 1.09302C5.82497 1.01304 5.76022 0.94829 5.68024 0.908934C5.47966 0.809911 5.23591 0.89243 5.13561 1.09302L3.6947 4.01421L0.471357 4.48266C0.38249 4.49536 0.30124 4.53725 0.239033 4.60073C0.163828 4.67803 0.122387 4.78202 0.123815 4.88986C0.125243 4.99769 0.169424 5.10055 0.24665 5.17583L2.57878 7.44956L2.0278 10.6602C2.01488 10.7349 2.02315 10.8117 2.05166 10.8819C2.08017 10.9522 2.12779 11.013 2.18912 11.0575C2.25045 11.1021 2.32303 11.1285 2.39863 11.1339C2.47424 11.1393 2.54984 11.1234 2.61686 11.088L5.49997 9.57222L8.38308 11.088C8.46179 11.1299 8.55319 11.1439 8.64079 11.1287C8.86169 11.0906 9.01022 10.8811 8.97214 10.6602L8.42116 7.44956L10.7533 5.17583C10.8168 5.11362 10.8587 5.03237 10.8714 4.9435C10.9056 4.72134 10.7508 4.51567 10.5286 4.48266Z" fill="#FFC328"/>
</svg>
