<svg width="50" height="50" viewBox="0 0 50 50" fill="none" xmlns="http://www.w3.org/2000/svg">
<path d="M14.2578 43.1641C14.2578 42.6248 13.8206 42.1875 13.2812 42.1875H6.83594C6.29658 42.1875 5.85938 42.6248 5.85938 43.1641C5.85938 43.7033 6.29658 44.1406 6.83594 44.1406H13.2812C13.8206 44.1406 14.2578 43.7033 14.2578 43.1641Z" fill="#656463"/>
<path d="M49.0234 9.96094H20.1172V6.83594C20.1172 3.0665 17.0506 0 13.2812 0H6.83594C3.0666 0 0 3.0665 0 6.83594V17.2849C0 17.8241 0.437207 18.2614 0.976562 18.2614C1.51592 18.2614 1.95312 17.8241 1.95312 17.2849V6.83594C1.95312 4.14355 4.14355 1.95312 6.83594 1.95312H13.2812C15.9736 1.95312 18.1641 4.14355 18.1641 6.83594V38.3864C16.9223 37.1176 15.1926 36.3281 13.2812 36.3281H6.83594C5.01074 36.3281 3.29404 37.039 2.00156 38.3304C1.98496 38.347 1.96953 38.3645 1.95312 38.3812V26.0741C1.95312 25.5349 1.51592 25.0976 0.976562 25.0976C0.437207 25.0976 0 25.5349 0 26.0741V43.1641C0 46.9335 3.0666 50 6.83594 50H49.0234C49.5628 50 50 49.5627 50 49.0234V10.9375C50 10.3982 49.5628 9.96094 49.0234 9.96094ZM33.9704 11.9141L48.0469 25.9905V35.6569L24.304 11.9141H33.9704ZM48.0469 23.2282L36.7327 11.9141H48.0469V23.2282ZM21.5418 11.9141L48.0469 38.4191V48.0469H48.0071L20.1172 20.1569V11.9141H21.5418ZM35.5774 48.0469L20.1172 32.5857V22.9191L45.2449 48.0469H35.5774ZM1.95312 43.1641C1.95312 40.4591 4.14316 38.2812 6.83594 38.2812H13.2812C15.9736 38.2812 18.1641 40.4717 18.1641 43.1641C18.1641 45.869 15.974 48.0469 13.2812 48.0469H6.83594C4.14355 48.0469 1.95312 45.8564 1.95312 43.1641ZM20.1172 43.1641V35.348L32.8152 48.0469H18.0641C19.3998 46.7396 20.1172 44.9966 20.1172 43.1641Z" fill="#656463"/>
<path d="M0.976562 22.6562C1.5159 22.6562 1.95312 22.219 1.95312 21.6797C1.95312 21.1403 1.5159 20.7031 0.976562 20.7031C0.437222 20.7031 0 21.1403 0 21.6797C0 22.219 0.437222 22.6562 0.976562 22.6562Z" fill="#656463"/>
</svg>
