<svg width="54" height="50" viewBox="0 0 54 50" fill="none" xmlns="http://www.w3.org/2000/svg">
<path d="M49.8347 21.3089H47.159C47.0065 20.7571 46.6786 20.27 46.2248 19.9211C45.7709 19.5723 45.2159 19.3807 44.6435 19.3753H41.7871V12.3903C41.7903 12.2596 41.7587 12.1304 41.6956 12.016C41.6324 11.9016 41.54 11.806 41.4277 11.7391L21.2778 0.100781C21.1642 0.0347715 21.0352 0 20.9039 0C20.7725 0 20.6435 0.0347715 20.5299 0.100781L0.373832 11.7391C0.259784 11.8052 0.165177 11.9002 0.0995468 12.0145C0.0339167 12.1288 -0.00041783 12.2584 3.83758e-06 12.3903V35.667C7.1907e-06 35.799 0.0347537 35.9286 0.100751 36.0429C0.166749 36.1572 0.261672 36.2522 0.37598 36.3182L20.5341 47.9565C20.6484 48.0225 20.7781 48.0572 20.9101 48.0572C21.0455 48.0573 21.1787 48.0226 21.2968 47.9565L31.9043 41.838V46.261C31.9032 46.6821 31.9857 47.0993 32.1469 47.4883C32.3081 47.8773 32.5448 48.2305 32.8435 48.5274C33.1421 48.8243 33.4966 49.059 33.8866 49.218C34.2766 49.3769 34.6942 49.4569 35.1152 49.4534H49.8347C50.2569 49.4573 50.6757 49.3777 51.067 49.2192C51.4583 49.0606 51.8143 48.8262 52.1147 48.5295C52.4151 48.2328 52.6538 47.8796 52.8171 47.4903C52.9804 47.101 53.0652 46.6832 53.0664 46.261V24.5511C53.0659 23.6932 52.7256 22.8704 52.12 22.2628C51.5143 21.6551 50.6926 21.3122 49.8347 21.3089ZM44.6702 20.8792C44.9597 20.8792 45.2373 20.9942 45.442 21.1989C45.6467 21.4036 45.7617 21.6812 45.7617 21.9707V22.0435C45.7617 22.333 45.6467 22.6106 45.442 22.8153C45.2373 23.02 44.9597 23.135 44.6702 23.135H40.3005C40.011 23.135 39.7334 23.02 39.5287 22.8153C39.324 22.6106 39.209 22.333 39.209 22.0435V21.9707C39.209 21.6812 39.324 21.4036 39.5287 21.1989C39.7334 20.9942 40.011 20.8792 40.3005 20.8792H44.6702ZM20.9101 1.62026L29.2862 6.45618L10.6333 17.2254L2.25726 12.3895L20.9101 1.62026ZM20.1953 46.0028L1.50391 35.2328V13.691L20.1953 24.4611V46.0028ZM20.9101 23.1587L12.1372 18.0936L30.7901 7.32447L39.5635 12.3895L20.9101 23.1587ZM31.9043 24.5511V40.1016L21.6992 46.0028V24.4611L40.2832 13.691V19.3753H40.3065C39.7341 19.3806 39.179 19.5723 38.7252 19.9211C38.2713 20.27 37.9434 20.7571 37.791 21.3089H35.1152C34.2595 21.313 33.4405 21.6569 32.8383 22.265C32.2361 22.873 31.9002 23.6953 31.9043 24.5511ZM51.5625 46.261C51.5615 46.4858 51.5158 46.7081 51.4281 46.9151C51.3404 47.122 51.2125 47.3095 51.0517 47.4666C50.891 47.6237 50.7006 47.7473 50.4917 47.8302C50.2828 47.9131 50.0595 47.9536 49.8347 47.9495H35.1152C34.8916 47.9533 34.6695 47.9123 34.4619 47.829C34.2543 47.7457 34.0654 47.6218 33.9064 47.4645C33.7474 47.3072 33.6214 47.1197 33.5358 46.913C33.4503 46.7064 33.4069 46.4847 33.4082 46.261V24.5511C33.4059 24.3248 33.4483 24.1003 33.5329 23.8904C33.6175 23.6805 33.7427 23.4894 33.9012 23.3279C34.0598 23.1664 34.2486 23.0378 34.4569 22.9494C34.6653 22.8611 34.889 22.8146 35.1152 22.8128H37.8203C37.9816 23.345 38.3111 23.8107 38.7593 24.1399C39.2075 24.4692 39.7504 24.6443 40.3065 24.6389H44.6435C45.1996 24.6443 45.7425 24.4692 46.1907 24.1399C46.6389 23.8107 46.9683 23.345 47.1295 22.8128H49.8347C50.2939 22.8157 50.7333 23.0001 51.057 23.3257C51.3807 23.6514 51.5624 24.0919 51.5625 24.5511V46.261Z" fill="#656463"/>
<path d="M35.9809 32.1582H36.7679C36.9674 32.1582 37.1586 32.079 37.2997 31.938C37.4407 31.7969 37.5199 31.6057 37.5199 31.4062C37.5199 31.2068 37.4407 31.0156 37.2997 30.8745C37.1586 30.7335 36.9674 30.6543 36.7679 30.6543H36.7383V28.6133H38.8123C38.8595 28.7645 38.955 28.896 39.0841 28.9877C39.2132 29.0794 39.3689 29.1263 39.5272 29.1211C39.7269 29.1216 39.9186 29.0429 40.0603 28.9023C40.2021 28.7616 40.2822 28.5705 40.2832 28.3708V27.8649C40.2815 27.6642 40.2007 27.4723 40.0584 27.3309C39.9161 27.1895 39.7238 27.1098 39.5231 27.1094H35.9809C35.8822 27.1099 35.7846 27.1298 35.6937 27.1681C35.6028 27.2063 35.5203 27.2622 35.451 27.3323C35.3816 27.4025 35.3268 27.4857 35.2897 27.577C35.2525 27.6684 35.2337 27.7662 35.2344 27.8649V31.4071C35.2338 31.5055 35.2527 31.6031 35.2899 31.6942C35.3272 31.7853 35.382 31.8681 35.4514 31.9379C35.5208 32.0077 35.6033 32.0631 35.6941 32.1009C35.785 32.1387 35.8825 32.1582 35.9809 32.1582Z" fill="#656463"/>
<path d="M35.9863 39.0332H39.5312C39.7307 39.0332 39.9219 38.954 40.063 38.813C40.204 38.6719 40.2832 38.4807 40.2832 38.2812V34.7363C40.2832 34.5369 40.204 34.3456 40.063 34.2046C39.9219 34.0636 39.7307 33.9844 39.5312 33.9844H35.9863C35.7869 33.9844 35.5956 34.0636 35.4546 34.2046C35.3136 34.3456 35.2344 34.5369 35.2344 34.7363V38.2812C35.2344 38.4807 35.3136 38.6719 35.4546 38.813C35.5956 38.954 35.7869 39.0332 35.9863 39.0332ZM36.7383 35.4883H38.7793V37.5293H36.7383V35.4883Z" fill="#656463"/>
<path d="M36.7681 44.4043H36.7383V42.3633H38.7717C38.7756 42.561 38.8568 42.7494 38.998 42.8879C39.1391 43.0265 39.329 43.1042 39.5268 43.1044C39.7245 43.1046 39.9145 43.0272 40.0559 42.889C40.1974 42.7507 40.279 42.5625 40.2833 42.3648V41.6402C40.2825 41.4369 40.2028 41.2419 40.061 41.0962C39.9192 40.9505 39.7263 40.8656 39.5231 40.8594H35.9809C35.7791 40.8662 35.588 40.9517 35.4485 41.0976C35.309 41.2436 35.2321 41.4383 35.2344 41.6402V45.1825C35.2343 45.2796 35.2537 45.3757 35.2915 45.4651C35.3292 45.5546 35.3845 45.6356 35.4541 45.7032C35.5238 45.7709 35.6062 45.8239 35.6967 45.8592C35.7872 45.8944 35.8838 45.911 35.9809 45.9082H36.7681C36.9675 45.9082 37.1588 45.829 37.2998 45.688C37.4408 45.5469 37.52 45.3557 37.52 45.1563C37.52 44.9568 37.4408 44.7656 37.2998 44.6245C37.1588 44.4835 36.9675 44.4043 36.7681 44.4043Z" fill="#656463"/>
<path d="M41.2534 28.0326L39.0513 30.2347L38.3814 29.5647C38.3116 29.4949 38.2287 29.4395 38.1374 29.4017C38.0462 29.3639 37.9484 29.3445 37.8496 29.3445C37.7509 29.3445 37.6531 29.3639 37.5619 29.4017C37.4706 29.4395 37.3877 29.4949 37.3179 29.5647C37.2481 29.6346 37.1927 29.7175 37.1549 29.8087C37.1171 29.8999 37.0977 29.9977 37.0977 30.0965C37.0977 30.1952 37.1171 30.293 37.1549 30.3843C37.1927 30.4755 37.2481 30.5584 37.3179 30.6282L38.5196 31.8298C38.5895 31.8997 38.6724 31.9551 38.7636 31.9929C38.8548 32.0307 38.9526 32.0501 39.0514 32.0501C39.1501 32.0501 39.2479 32.0307 39.3392 31.9929C39.4304 31.9551 39.5133 31.8997 39.5831 31.8298L42.3172 29.0957C42.4582 28.9547 42.5375 28.7634 42.5375 28.564C42.5375 28.3646 42.4582 28.1733 42.3172 28.0323C42.1762 27.8912 41.9849 27.812 41.7855 27.812C41.586 27.812 41.3948 27.8912 41.2537 28.0323L41.2534 28.0326Z" fill="#656463"/>
<path d="M41.2534 41.9169L39.0513 44.119L38.3814 43.449C38.3116 43.3792 38.2287 43.3238 38.1374 43.286C38.0462 43.2482 37.9484 43.2288 37.8496 43.2288C37.7509 43.2288 37.6531 43.2482 37.5619 43.286C37.4706 43.3238 37.3877 43.3792 37.3179 43.449C37.2481 43.5189 37.1927 43.6018 37.1549 43.693C37.1171 43.7842 37.0977 43.882 37.0977 43.9808C37.0977 44.0795 37.1171 44.1773 37.1549 44.2685C37.1927 44.3598 37.2481 44.4427 37.3179 44.5125L38.5196 45.7141C38.5895 45.784 38.6724 45.8393 38.7636 45.8771C38.8548 45.9149 38.9526 45.9344 39.0514 45.9344C39.1501 45.9344 39.2479 45.9149 39.3392 45.8771C39.4304 45.8393 39.5133 45.784 39.5831 45.7141L42.3172 42.98C42.4582 42.839 42.5375 42.6477 42.5375 42.4483C42.5375 42.2488 42.4582 42.0576 42.3172 41.9165C42.1762 41.7755 41.9849 41.6963 41.7855 41.6963C41.586 41.6963 41.3948 41.7755 41.2537 41.9165L41.2534 41.9169Z" fill="#656463"/>
<path d="M48.969 28.9355H44.2461C44.0467 28.9355 43.8554 29.0148 43.7144 29.1558C43.5734 29.2968 43.4941 29.4881 43.4941 29.6875C43.4941 29.8869 43.5734 30.0782 43.7144 30.2192C43.8554 30.3602 44.0467 30.4395 44.2461 30.4395H48.969C49.1684 30.4395 49.3597 30.3602 49.5007 30.2192C49.6417 30.0782 49.721 29.8869 49.721 29.6875C49.721 29.4881 49.6417 29.2968 49.5007 29.1558C49.3597 29.0148 49.1684 28.9355 48.969 28.9355Z" fill="#656463"/>
<path d="M48.969 35.8105H44.2461C44.0467 35.8105 43.8554 35.8898 43.7144 36.0308C43.5734 36.1718 43.4941 36.3631 43.4941 36.5625C43.4941 36.7619 43.5734 36.9532 43.7144 37.0942C43.8554 37.2352 44.0467 37.3145 44.2461 37.3145H48.969C49.1684 37.3145 49.3597 37.2352 49.5007 37.0942C49.6417 36.9532 49.721 36.7619 49.721 36.5625C49.721 36.3631 49.6417 36.1718 49.5007 36.0308C49.3597 35.8898 49.1684 35.8105 48.969 35.8105Z" fill="#656463"/>
<path d="M48.969 42.6855H44.2461C44.0467 42.6855 43.8554 42.7648 43.7144 42.9058C43.5734 43.0468 43.4941 43.2381 43.4941 43.4375C43.4941 43.6369 43.5734 43.8282 43.7144 43.9692C43.8554 44.1102 44.0467 44.1895 44.2461 44.1895H48.969C49.1684 44.1895 49.3597 44.1102 49.5007 43.9692C49.6417 43.8282 49.721 43.6369 49.721 43.4375C49.721 43.2381 49.6417 43.0468 49.5007 42.9058C49.3597 42.7648 49.1684 42.6855 48.969 42.6855Z" fill="#656463"/>
</svg>
