<svg width="50" height="50" viewBox="0 0 50 50" fill="none" xmlns="http://www.w3.org/2000/svg">
<path d="M9.40576 12.1826H16.3594C16.8987 12.1826 17.3359 12.6198 17.3359 13.1592V17.9342C17.3359 18.4735 16.8986 18.9107 16.3594 18.9107H9.40576C8.86641 18.9107 8.4292 18.4735 8.4292 17.9342V13.1592C8.4292 12.6198 8.86641 12.1826 9.40576 12.1826ZM10.3823 16.9576H15.3827V14.1357H10.3823V16.9576Z" fill="#656463"/>
<path d="M21.525 12.1826H28.4785C29.0179 12.1826 29.4551 12.6198 29.4551 13.1592V17.9342C29.4551 18.4735 29.0178 18.9107 28.4785 18.9107H21.525C20.9856 18.9107 20.5484 18.4735 20.5484 17.9342V13.1592C20.5484 12.6198 20.9856 12.1826 21.525 12.1826ZM22.5016 16.9576H27.5019V14.1357H22.5016V16.9576Z" fill="#656463"/>
<path d="M33.6403 12.1826H40.5967C41.136 12.1826 41.5732 12.6198 41.5732 13.1592V17.9342C41.5732 18.4735 41.1359 18.9107 40.5967 18.9107H33.6403C33.101 18.9107 32.6638 18.4735 32.6638 17.9342V13.1592C32.6637 12.6198 33.101 12.1826 33.6403 12.1826ZM34.6169 16.9576H39.6201V14.1357H34.6169V16.9576Z" fill="#656463"/>
<path d="M0.0248985 12.3228C0.026165 11.9464 0.243649 11.6041 0.583981 11.4432L24.5839 0.09375C24.8482 -0.03125 25.1546 -0.03125 25.4189 0.09375L49.416 11.4432C49.7562 11.6041 49.9738 11.9463 49.9751 12.3228L50 19.866C50.0009 20.1256 49.8983 20.3748 49.7151 20.5587C49.5318 20.7425 49.283 20.8458 49.0234 20.8458H46.1164V49.0234C46.1164 49.5628 45.6791 50 45.1398 50H4.86034C4.32099 50 3.88378 49.5628 3.88378 49.0234V20.8458H0.976555C0.716988 20.8458 0.468159 20.7425 0.284855 20.5587C0.101654 20.3748 -0.00088501 20.1256 -7.62939e-06 19.866L0.0248985 12.3228ZM16.3254 48.0469H19.0394V45.3329H16.3254V48.0469ZM11.6583 43.3798H14.3723V40.6657H11.6583V43.3798ZM11.6583 29.5723H38.3417V27.6223H11.6583V29.5723ZM11.6583 31.5254V38.7127H15.3488C15.8882 38.7127 16.3254 39.1499 16.3254 39.6893V43.3799H20.0159C20.5553 43.3799 20.9925 43.8171 20.9925 44.3564V48.0469H24.3402V44.3563C24.3402 43.817 24.7775 43.3798 25.3168 43.3798H29.0073V39.6892C29.0073 39.1498 29.4446 38.7126 29.9839 38.7126H33.6744V35.0221C33.6744 34.4827 34.1117 34.0455 34.651 34.0455H38.3415V31.5254H11.6583ZM35.6277 38.7127H38.3417V35.9987H35.6277V38.7127ZM38.3417 40.6658H35.6277V43.3799H38.3417V40.6658ZM33.6745 40.6658H30.9605V43.3799H33.6745V40.6658ZM30.9606 45.3329V48.0469H33.6746V45.3329H30.9606ZM29.0074 45.3329H26.2935V48.0469H29.0074V45.3329ZM38.3417 45.3329H35.6277V48.0469H38.3417V45.3329ZM14.3723 48.0469V45.3329H11.6583V48.0469H14.3723ZM4.86025 18.8927C5.3996 18.8927 5.83681 19.3299 5.83681 19.8692V48.0469H9.70507V23.7164H8.85185C8.3125 23.7164 7.87529 23.2792 7.87529 22.7398C7.87529 22.2005 8.31259 21.7633 8.85185 21.7633H20.6165C21.1559 21.7633 21.5931 22.2005 21.5931 22.7398C21.5931 23.2792 21.1558 23.7164 20.6165 23.7164H11.6582V25.6691H38.3417V23.7164H29.3861C28.8468 23.7164 28.4096 23.2792 28.4096 22.7398C28.4096 22.2005 28.8469 21.7633 29.3861 21.7633H41.1508C41.6901 21.7633 42.1273 22.2005 42.1273 22.7398C42.1273 23.2792 41.69 23.7164 41.1508 23.7164H40.2948V48.0469H44.1632V19.8692C44.1632 19.3299 44.6005 18.8927 45.1397 18.8927H48.0435L48.0239 12.9454L25.0015 2.05684L1.97607 12.9454L1.95644 18.8927H4.86025Z" fill="#656463"/>
<path d="M25.001 21.7632C25.5403 21.7632 25.9775 22.2004 25.9775 22.7397C25.9775 23.2791 25.5402 23.7163 25.001 23.7163H24.9953C24.456 23.7163 24.0215 23.2791 24.0215 22.7397C24.0215 22.2004 24.4616 21.7632 25.001 21.7632Z" fill="#656463"/>
</svg>
