<svg width="54" height="34" viewBox="0 0 54 34" fill="none" xmlns="http://www.w3.org/2000/svg">
<path d="M6.75 20.353C7.21596 20.353 7.59375 20.7308 7.59375 21.1967V27.1089H8.93616C9.26701 24.1824 11.9075 22.0783 14.8339 22.4091C17.3046 22.6884 19.2543 24.6382 19.5337 27.1089H37.125V2.64014H7.59375V5.29373C7.59375 5.75969 7.21596 6.13748 6.75 6.13748C6.28404 6.13748 5.90625 5.75969 5.90625 5.29373V1.79639C5.90625 1.33043 6.28404 0.952637 6.75 0.952637H37.9688C38.4347 0.952637 38.8125 1.33043 38.8125 1.79639V2.64014H48.4751C50.5933 2.64288 52.3098 4.35928 52.3125 6.47751V7.70264C52.3125 8.1686 51.9347 8.54639 51.4688 8.54639H50.4875L51.1312 16.2794C52.8161 16.7179 53.9941 18.2364 54 19.9775V27.1089C54 27.5748 53.6222 27.9526 53.1562 27.9526H51.4477C51.2164 30.9699 48.5828 33.2284 45.5656 32.9971C42.8698 32.7905 40.7278 30.6484 40.5211 27.9526C40.5135 27.9526 40.5076 27.9568 40.5 27.9568H38.8125C38.8125 28.4228 38.4347 28.8006 37.9688 28.8006H19.4569C18.8558 31.6846 16.0305 33.5353 13.1465 32.9342C11.0691 32.5013 9.44588 30.878 9.01294 28.8006H6.75C6.28404 28.8006 5.90625 28.4228 5.90625 27.9568V21.1967C5.90625 20.7307 6.28404 20.353 6.75 20.353ZM45.9844 31.3276C48.0813 31.3276 49.7812 29.6277 49.7812 27.5308C49.7812 25.4338 48.0813 23.7339 45.9844 23.7339C43.8874 23.7339 42.1875 25.4338 42.1875 27.5308C42.1898 29.6267 43.8884 31.3253 45.9844 31.3276ZM38.8125 26.2651H40.5C40.5495 26.2703 40.5984 26.2801 40.646 26.2947C41.3246 23.3465 44.2646 21.5067 47.2127 22.1853C49.2455 22.6531 50.836 24.235 51.3152 26.2651H52.3125V19.9775C52.3111 18.7908 51.3494 17.829 50.1626 17.8276H38.8125V26.2651ZM38.8125 16.1401H49.4269L48.7941 8.54639H38.8125V16.1401ZM38.8125 6.85889H50.625V6.47751C50.6236 5.29078 49.6619 4.32901 48.4751 4.32764H38.8125V6.85889ZM10.5938 27.9189C10.7022 29.8492 12.3008 31.3579 14.2341 31.3546H14.2349C16.0052 31.3507 17.5168 30.0757 17.8192 28.3315C17.6713 28.0731 17.6882 27.752 17.8622 27.5105C17.7494 25.5034 16.0309 23.9677 14.0238 24.0805C12.0167 24.1932 10.481 25.9117 10.5938 27.9189Z" fill="#656463"/>
<path d="M7.59375 7.70264H19.4062C19.8722 7.70264 20.25 8.08043 20.25 8.54639C20.25 9.01235 19.8722 9.39014 19.4062 9.39014H7.59375C7.12779 9.39014 6.75 9.01235 6.75 8.54639C6.75 8.08043 7.12779 7.70264 7.59375 7.70264Z" fill="#656463"/>
<path d="M5.90625 16.9839H24.4688C24.9347 16.9839 25.3125 17.3617 25.3125 17.8276C25.3125 18.2936 24.9347 18.6714 24.4688 18.6714H5.90625C5.44029 18.6714 5.0625 18.2936 5.0625 17.8276C5.0625 17.3617 5.44029 16.9839 5.90625 16.9839Z" fill="#656463"/>
<path d="M7.59375 11.9214H16.875C17.341 11.9214 17.7188 12.2992 17.7188 12.7651C17.7188 13.2311 17.341 13.6089 16.875 13.6089H7.59375C7.12779 13.6089 6.75 13.2311 6.75 12.7651C6.75 12.2992 7.12779 11.9214 7.59375 11.9214Z" fill="#656463"/>
<path d="M4.21875 9.39014H2.53125C2.06529 9.39014 1.6875 9.01235 1.6875 8.54639C1.6875 8.08043 2.06529 7.70264 2.53125 7.70264H4.21875C4.68471 7.70264 5.0625 8.08043 5.0625 8.54639C5.0625 9.01235 4.68471 9.39014 4.21875 9.39014Z" fill="#656463"/>
<path d="M1.6875 16.9839H3.375C3.84096 16.9839 4.21875 17.3617 4.21875 17.8276C4.21875 18.2936 3.84096 18.6714 3.375 18.6714H1.6875C1.22154 18.6714 0.84375 18.2936 0.84375 17.8276C0.84375 17.3617 1.22154 16.9839 1.6875 16.9839Z" fill="#656463"/>
<path d="M0.84375 11.9214H4.21875C4.68471 11.9214 5.0625 12.2992 5.0625 12.7651C5.0625 13.2311 4.68471 13.6089 4.21875 13.6089H0.84375C0.377789 13.6089 0 13.2311 0 12.7651C0 12.2992 0.377789 11.9214 0.84375 11.9214Z" fill="#656463"/>
</svg>
