<svg width="63" height="60" viewBox="0 0 63 60" fill="none" xmlns="http://www.w3.org/2000/svg">
<path d="M23.8506 34.769H17.0762V33.5522L19.6533 30.9614C20.4144 30.1821 20.918 29.6307 21.1641 29.3071C21.4147 28.979 21.597 28.6714 21.7109 28.3843C21.8249 28.0972 21.8818 27.7896 21.8818 27.4614C21.8818 27.0103 21.7451 26.6548 21.4717 26.395C21.2028 26.1353 20.8291 26.0054 20.3506 26.0054C19.9678 26.0054 19.5964 26.076 19.2363 26.2173C18.8809 26.3586 18.4684 26.6138 17.999 26.9829L17.1309 25.9233C17.6868 25.4539 18.2269 25.1213 18.751 24.9253C19.2751 24.7293 19.8333 24.6313 20.4258 24.6313C21.3555 24.6313 22.1006 24.8752 22.6611 25.3628C23.2217 25.8459 23.502 26.4976 23.502 27.3179C23.502 27.769 23.4199 28.1974 23.2559 28.603C23.0964 29.0086 22.848 29.4279 22.5107 29.8608C22.1781 30.2892 21.6221 30.8703 20.8428 31.604L19.1064 33.2856V33.354H23.8506V34.769ZM31.8486 29.772C31.8486 31.5083 31.5684 32.798 31.0078 33.6411C30.4518 34.4842 29.5996 34.9058 28.4512 34.9058C27.3392 34.9058 26.4961 34.4705 25.9219 33.6001C25.3477 32.7297 25.0605 31.4536 25.0605 29.772C25.0605 28.0083 25.3385 26.7095 25.8945 25.8755C26.4551 25.0369 27.3073 24.6177 28.4512 24.6177C29.5677 24.6177 30.4131 25.0552 30.9873 25.9302C31.5615 26.8052 31.8486 28.0858 31.8486 29.772ZM26.6875 29.772C26.6875 31.1346 26.8265 32.1076 27.1045 32.6909C27.387 33.2743 27.8359 33.5659 28.4512 33.5659C29.0664 33.5659 29.5153 33.2697 29.7979 32.6772C30.085 32.0848 30.2285 31.1164 30.2285 29.772C30.2285 28.4321 30.085 27.4637 29.7979 26.8667C29.5153 26.2651 29.0664 25.9644 28.4512 25.9644C27.8359 25.9644 27.387 26.2583 27.1045 26.8462C26.8265 27.4341 26.6875 28.4093 26.6875 29.772ZM39.8467 29.772C39.8467 31.5083 39.5664 32.798 39.0059 33.6411C38.4499 34.4842 37.5977 34.9058 36.4492 34.9058C35.3372 34.9058 34.4941 34.4705 33.9199 33.6001C33.3457 32.7297 33.0586 31.4536 33.0586 29.772C33.0586 28.0083 33.3366 26.7095 33.8926 25.8755C34.4531 25.0369 35.3053 24.6177 36.4492 24.6177C37.5658 24.6177 38.4111 25.0552 38.9854 25.9302C39.5596 26.8052 39.8467 28.0858 39.8467 29.772ZM34.6855 29.772C34.6855 31.1346 34.8245 32.1076 35.1025 32.6909C35.3851 33.2743 35.834 33.5659 36.4492 33.5659C37.0645 33.5659 37.5133 33.2697 37.7959 32.6772C38.083 32.0848 38.2266 31.1164 38.2266 29.772C38.2266 28.4321 38.083 27.4637 37.7959 26.8667C37.5133 26.2651 37.0645 25.9644 36.4492 25.9644C35.834 25.9644 35.3851 26.2583 35.1025 26.8462C34.8245 27.4341 34.6855 28.4093 34.6855 29.772ZM45.7871 34.769H44.1807V28.3159C44.1807 27.5457 44.1989 26.9351 44.2354 26.4839C44.1305 26.5933 44.0007 26.714 43.8457 26.8462C43.6953 26.9784 43.1849 27.3976 42.3145 28.104L41.5078 27.0854L44.4473 24.7749H45.7871V34.769Z" fill="#656463"/>
<path d="M50.2272 60C50.082 59.9999 49.9389 59.9644 49.8103 59.8964L31.3855 50.1678L12.9607 59.8937C12.8128 59.9719 12.6461 60.0071 12.4794 59.9952C12.3127 59.9833 12.1526 59.9248 12.0172 59.8264C11.8818 59.728 11.7765 59.5935 11.7132 59.4382C11.6498 59.2828 11.631 59.1128 11.6588 58.9473L15.1773 38.3426L0.271054 23.7501C0.151167 23.6328 0.0663481 23.4842 0.0261937 23.321C-0.0139606 23.1578 -0.00784796 22.9866 0.0438402 22.8268C0.0955284 22.6669 0.190729 22.5248 0.318672 22.4164C0.446616 22.3081 0.602195 22.2379 0.76781 22.2137L21.3697 19.2077L30.5785 0.460866C30.6611 0.320475 30.7788 0.204136 30.9198 0.12332C31.0609 0.0425033 31.2204 0 31.3828 0C31.5452 0 31.7048 0.0425033 31.8458 0.12332C31.9869 0.204136 32.1045 0.320475 32.1871 0.460866L41.4013 19.2077L62.0014 22.2137C62.167 22.2379 62.3226 22.3081 62.4506 22.4164C62.5785 22.5248 62.6737 22.6669 62.7254 22.8268C62.7771 22.9866 62.7832 23.1578 62.743 23.321C62.7029 23.4842 62.6181 23.6328 62.4982 23.7501L47.5919 38.339L51.1123 58.9473C51.1343 59.0765 51.128 59.2091 51.0938 59.3357C51.0595 59.4623 50.9981 59.5798 50.9139 59.6801C50.8297 59.7803 50.7247 59.8609 50.6062 59.9162C50.4878 59.9714 50.3579 60 50.2272 60ZM31.3855 48.2505C31.5308 48.2506 31.6739 48.2861 31.8025 48.3541L49.0365 57.4496L45.7448 38.1778C45.7203 38.0339 45.731 37.8862 45.776 37.7473C45.821 37.6085 45.8989 37.4827 46.003 37.3808L59.9454 23.7338L40.6768 20.9214C40.5329 20.9004 40.3963 20.8446 40.2787 20.7588C40.1611 20.673 40.066 20.5598 40.0016 20.4288L31.3855 2.89416L22.7694 20.4333C22.7051 20.5643 22.61 20.6775 22.4924 20.7633C22.3747 20.8491 22.2381 20.9049 22.0942 20.9259L2.82567 23.7338L16.7698 37.3826C16.8739 37.4845 16.9519 37.6103 16.9969 37.7491C17.0418 37.888 17.0525 38.0357 17.028 38.1796L13.7364 57.4514L30.9704 48.3559C31.0982 48.2876 31.2407 48.2514 31.3855 48.2505Z" fill="#656463"/>
</svg>
