<svg width="58" height="36" viewBox="0 0 58 36" fill="none" xmlns="http://www.w3.org/2000/svg">
<path d="M4.67239 19.1919C4.73651 19.1919 4.80166 19.1846 4.8668 19.1696C5.32372 19.0638 5.60742 18.6113 5.50047 18.1592C5.42059 17.8216 5.2545 17.1191 5.48789 16.8171C5.65421 16.6018 6.09606 16.4712 6.73188 16.4491C9.25667 16.3614 10.0309 15.2068 10.7796 14.0901C11.1808 13.4919 11.5955 12.8733 12.3509 12.294C13.0947 11.7236 13.4135 11.7129 13.4651 11.7158C13.5121 11.7652 13.8442 12.1865 13.7215 14.0398C13.6571 15.0119 13.8467 15.7262 14.3013 16.2233C14.9372 16.9188 15.8635 16.95 16.6077 16.9753C16.9426 16.9866 17.259 16.9974 17.4883 17.0606C18.211 17.2597 18.8451 17.1968 19.3545 17.1462C19.6684 17.1151 19.993 17.0829 20.0619 17.1575C20.4013 17.5239 20.7889 17.7017 21.2142 17.6923C22.016 17.6704 22.5593 17.015 23.3817 16.0228C23.4569 15.9321 23.535 15.838 23.6161 15.7407C23.6606 15.6873 23.6928 15.6591 23.7109 15.6452C23.8283 15.6712 24.0889 15.8279 24.2653 15.9341C24.8935 16.312 25.8429 16.8831 27.0254 16.3817C28.3268 15.8298 28.6634 15.4207 29.3008 14.5478C29.5315 14.232 29.8186 13.8388 30.2557 13.3232C31.0253 12.415 32.139 12.151 32.5986 12.3613C32.6714 12.3946 32.8927 12.496 32.788 13.1027C32.6384 13.9698 32.8073 14.6225 33.29 15.0423C34.1263 15.7696 35.4302 15.3734 36.3824 15.084C36.6001 15.0178 36.847 14.9428 36.9548 14.9268C37.0373 14.9195 37.2851 14.9793 37.4495 15.0194C38.2733 15.2208 39.9874 15.6391 40.838 13.2336C41.4121 11.6105 41.8323 11.5493 43.0801 11.368C43.2125 11.3488 43.3497 11.3288 43.492 11.3063C46.2591 10.8681 46.7761 9.07504 47.1914 7.63416C47.3094 7.22503 47.4207 6.83866 47.5757 6.48491C47.8286 5.90715 48.296 5.61059 48.8875 5.2352C49.6472 4.75297 50.5929 4.15289 50.9913 2.81214C51.1824 2.16923 51.7296 1.80068 52.0237 1.70583C52.0151 1.86986 51.9602 2.16228 51.7784 2.60359C51.1392 4.15614 51.0078 5.01331 51.3095 5.66104C51.5858 6.25417 52.1388 6.43558 52.4693 6.54389C52.5968 6.58571 52.7172 6.62518 52.7754 6.66487C52.7754 6.66487 52.7806 6.66935 52.7902 6.67978C53.102 7.0268 53.6391 7.05774 53.9898 6.74896C54.3404 6.44029 54.3717 5.90872 54.0596 5.56181C53.963 5.45429 53.8584 5.36168 53.7483 5.28611C53.4836 5.1048 53.2175 5.01757 53.0038 4.9475C52.9576 4.93236 52.9016 4.91397 52.8553 4.89715C52.8579 4.73133 52.9215 4.28441 53.3521 3.2382C53.8487 2.03222 53.8472 1.11965 53.3481 0.525969C52.9788 0.0865632 52.3958 -0.089244 51.7487 0.0430599C50.846 0.227725 49.7359 1.07537 49.3608 2.33764C49.1413 3.07607 48.6501 3.38799 47.97 3.81955C47.2694 4.26423 46.4753 4.76821 46.0163 5.81633C45.817 6.27132 45.6849 6.72968 45.5571 7.17289C45.1745 8.50008 44.9219 9.37687 43.2235 9.64574C43.0887 9.66716 42.9586 9.68599 42.8331 9.70416C41.4522 9.90486 40.1477 10.0943 39.2339 12.6782C38.8938 13.6402 38.6532 13.5814 37.8566 13.3867C37.4882 13.2968 37.1074 13.2038 36.7048 13.2634C36.4694 13.2983 36.1977 13.3807 35.8834 13.4763C35.5635 13.5735 34.7487 13.8206 34.4393 13.7726C34.4315 13.7103 34.4279 13.5897 34.4631 13.3857C34.6658 12.2113 34.2355 11.2578 33.3124 10.8349C32.0337 10.2491 30.1188 10.8673 28.9536 12.2424C28.4773 12.8044 28.1702 13.2248 27.9236 13.5626C27.4035 14.2747 27.28 14.4439 26.356 14.8358C26.0122 14.9816 25.7378 14.8517 25.1482 14.4969C24.5651 14.1461 23.352 13.4162 22.3061 14.6694C22.2236 14.7681 22.1443 14.8638 22.0679 14.9559C21.7792 15.3042 21.4347 15.7199 21.2148 15.9203C20.5868 15.3335 19.8131 15.4104 19.185 15.4726C18.7602 15.5148 18.3593 15.5546 17.9443 15.4402C17.5197 15.3231 17.0856 15.3085 16.6659 15.2942C16.2199 15.2792 15.7145 15.262 15.5613 15.0945C15.5034 15.0312 15.3734 14.8123 15.4173 14.1497C15.5084 12.775 15.4877 10.8727 14.261 10.2275C13.0807 9.60695 11.7478 10.6286 11.3099 10.9644C10.3339 11.713 9.79595 12.5154 9.36362 13.1601C8.69314 14.16 8.32391 14.7107 6.67228 14.768C5.48551 14.8093 4.63296 15.1549 4.13797 15.7952C3.41673 16.7285 3.70654 17.9535 3.84578 18.5424C3.93744 18.9302 4.28662 19.1919 4.67239 19.1919ZM56.3151 13.9268C56.076 13.6337 55.8414 13.3694 55.6147 13.1138C54.5854 11.9534 54.2778 11.5175 54.5759 10.7933C54.6438 10.6289 54.7036 10.4527 54.7538 10.2697C54.8767 9.82155 54.6093 9.3595 54.1565 9.23773C53.704 9.1163 53.2368 9.38057 53.1138 9.82884C53.0817 9.946 53.0442 10.0568 53.0024 10.1584C52.2826 11.9065 53.3273 13.0843 54.3376 14.2232C54.5529 14.4661 54.7758 14.7172 54.993 14.9834C55.7405 15.8992 56.2376 17.3968 56.3033 18.1105C54.5456 17.6583 53.5642 16.8517 53.3844 15.7097L53.3374 15.4065C53.1303 14.059 52.916 12.6656 51.7225 12.3704C50.9726 12.1851 50.0054 12.4314 49.3699 12.9698C48.8116 13.4431 48.5408 14.1037 48.6075 14.8297C48.6282 15.056 48.659 15.2933 48.6915 15.5446C48.8051 16.4216 48.9767 17.7469 48.4824 18.0815C47.2599 18.9094 47.1287 20.1969 46.9897 21.5599C46.9596 21.8549 46.9286 22.1599 46.886 22.4755C46.7649 23.3753 47.0913 23.8528 47.3865 24.095C48.1303 24.7049 49.1968 24.3561 50.0535 24.0756C50.2442 24.0133 50.4241 23.9543 50.5568 23.9214C50.8646 23.8453 51.299 24.3832 51.9218 25.6156C52.1038 25.9762 52.3062 26.2854 52.4846 26.5583C53.074 27.4594 53.5394 28.1711 53.0162 30.6009C52.788 31.6603 52.4566 32.0069 52.3503 32.0635C52.2695 32.0114 52.1224 31.772 52.2117 31.4848C52.5889 30.2716 52.5799 29.3303 52.1846 28.6871C51.9271 28.2682 51.5267 27.9993 51.0266 27.9095C50.5218 27.8189 50.2037 27.888 49.8534 28.1646C49.7648 28.2344 49.5294 28.4203 48.3426 28.6208C47.0105 28.8459 46.7529 28.6367 46.1297 28.1314C45.8467 27.9019 45.4945 27.6161 45.0059 27.3372C44.178 26.8648 43.5775 26.9928 43.2193 27.1835C42.1704 27.7422 42.0225 29.3319 41.8681 31.8793C41.8464 32.2379 41.7687 32.4879 41.6492 32.5834C41.3789 32.7998 40.5179 32.67 39.8259 32.5658C39.0046 32.4419 38.0737 32.3018 37.2238 32.4941C36.0676 32.7556 35.2326 32.458 34.5615 32.2187C34.1627 32.0765 33.8182 31.9539 33.4503 31.9539C32.5625 31.9539 32.3171 32.8071 32.2123 33.1715C32.1758 33.2984 32.1095 33.5289 32.0539 33.6025C32.012 33.6089 31.8564 33.6188 31.5176 33.5008C29.7982 32.903 28.771 33.5406 28.0914 33.9624C27.7252 34.1898 27.5065 34.3184 27.273 34.3184C26.5078 34.3184 24.6753 34.1261 24.1888 32.3446C23.701 30.5583 22.2947 30.4224 21.5393 30.3493C21.4565 30.3413 21.3566 30.3317 21.2731 30.3204C20.9697 28.57 19.13 28.4851 16.8228 28.379C15.2989 28.3088 14.597 28.715 14.3992 29.7812C14.3922 29.8179 14.3837 29.8642 14.376 29.8964C14.3466 29.9112 14.2887 29.9353 14.1877 29.9602C13.1159 30.2253 12.0136 28.8846 11.8806 28.4778C11.6542 27.7854 10.8654 26.6957 8.12564 27.1799C6.60034 27.4495 6.50155 28.9248 6.44852 29.7174C6.44071 29.834 6.43062 29.9849 6.41623 30.1098C5.38366 30.1987 4.90634 31.2673 4.58356 32.0321C4.35561 31.2598 3.89869 30.2235 2.50878 29.4632C2.15009 29.267 1.71809 28.9435 1.69736 28.5164C1.68626 28.2851 1.79287 28.0869 1.87478 27.9894C2.50108 28.0051 4.35346 27.9486 5.12523 26.7916C5.44903 26.3062 5.6899 25.4667 4.99823 24.2239C4.65267 23.6031 4.53621 22.9641 4.64214 22.2704C4.71227 21.8112 4.39289 21.3827 3.92894 21.3133C3.46522 21.2443 3.03198 21.5599 2.96185 22.0191C2.80029 23.0771 2.98462 24.0919 3.50975 25.0354C3.72354 25.4195 3.79729 25.7296 3.70711 25.865C3.46783 26.2236 2.34156 26.3558 1.83275 26.3057C1.03571 26.2271 0.350275 26.9943 0.110088 27.7563C-0.0359501 28.2199 -0.353857 29.8191 1.68682 30.9352C2.69821 31.4883 2.87541 32.1833 3.04682 32.8553C3.183 33.3891 3.38875 34.1958 4.26215 34.3689C5.35046 34.5842 5.81679 33.476 6.1254 32.7427C6.24629 32.4558 6.46495 31.9366 6.62028 31.7906C7.07584 31.8181 7.38503 31.6464 7.56584 31.4942C8.06061 31.0777 8.10502 30.4141 8.14422 29.8285C8.19928 29.0064 8.2719 28.8624 8.4244 28.8355C9.65524 28.618 10.2059 28.8184 10.2638 28.9956C10.6405 30.1477 12.5129 32.1079 14.5999 31.5917C15.8484 31.2829 15.9984 30.4735 16.0706 30.0846C16.0709 30.0829 16.0712 30.0812 16.0715 30.0795C16.1784 30.061 16.3825 30.0422 16.7437 30.0588C17.82 30.1083 18.7519 30.1624 19.2552 30.3223C19.5829 30.4263 19.5906 30.5024 19.6092 30.6865C19.7281 31.8639 20.8398 31.9713 21.3741 32.0229C22.0803 32.0911 22.3738 32.1444 22.5483 32.7831C23.3634 35.768 26.3708 36 27.273 36C28.0069 36 28.5544 35.66 28.9945 35.3869C29.6043 35.0083 30.0072 34.7581 30.9541 35.0874C31.7175 35.3527 32.335 35.3556 32.8418 35.096C33.47 34.7741 33.6906 34.1613 33.8152 33.7407C33.874 33.7612 33.9324 33.782 33.9856 33.801C34.7721 34.0813 35.9607 34.5046 37.6024 34.1335C38.1378 34.0125 38.8658 34.1222 39.5702 34.2284C40.6982 34.3982 41.8644 34.5738 42.7176 33.8912C43.2273 33.4834 43.5123 32.8403 43.5644 31.98C43.6242 30.9925 43.7324 29.2078 44.005 28.7188C44.0424 28.7339 44.0925 28.7575 44.1565 28.794C44.5247 29.0043 44.793 29.2218 45.0525 29.4323C45.9468 30.1575 46.6783 30.6081 48.6286 30.2788C49.8929 30.0652 50.4229 29.8226 50.7512 29.5988C50.8034 29.7374 50.8453 30.16 50.5872 30.9904C50.3422 31.7786 50.5471 32.6528 51.1096 33.2176C51.5742 33.6838 52.2092 33.8587 52.8096 33.6852C53.4322 33.5054 54.2615 32.885 54.6779 30.9516C55.3476 27.8416 54.6173 26.7247 53.9109 25.6448C53.7415 25.3856 53.5814 25.1409 53.4414 24.8637C52.8722 23.7369 51.9189 21.8514 50.1443 22.2901C49.9503 22.3381 49.741 22.4066 49.5194 22.479C49.2811 22.557 48.8425 22.7005 48.5648 22.7414C48.5663 22.7277 48.568 22.7132 48.5701 22.6979C48.6162 22.3555 48.6486 22.0369 48.6801 21.7287C48.8091 20.4639 48.8952 19.8395 49.4417 19.4695C50.794 18.5538 50.5529 16.691 50.3767 15.3308C50.3461 15.0952 50.3175 14.8728 50.2994 14.6773C50.2826 14.4942 50.335 14.3655 50.4749 14.247C50.7186 14.0405 51.0947 13.9768 51.2661 13.9947C51.4357 14.2222 51.5679 15.0822 51.6566 15.6593L51.7046 15.9685C51.9188 17.3292 52.8947 19.1063 56.3277 19.8447C56.9208 19.9726 57.454 19.7615 57.7538 19.2807C58.5416 18.0181 57.2699 15.0967 56.3151 13.9268Z" fill="#656463"/>
</svg>
