<svg width="137" height="131" viewBox="0 0 137 131" fill="none" xmlns="http://www.w3.org/2000/svg">
<path d="M92.8759 14.7582L14.8532 49.0417C12.4593 50.0935 11.3732 52.8913 12.4275 55.2907L37.8802 113.216C38.9344 115.616 41.7297 116.708 44.1238 115.656L122.147 81.3726C124.54 80.3207 125.626 77.523 124.572 75.1235L99.1195 17.198C98.0652 14.7987 95.2699 13.7062 92.8759 14.7582ZM121.682 76.3935C122.034 77.1933 121.672 78.1258 120.874 78.4764L42.8512 112.76C42.0532 113.111 41.1215 112.746 40.7701 111.947L15.3173 54.0209C14.9659 53.2211 15.3278 52.2886 16.1258 51.938L94.1486 17.6545C94.9466 17.3039 95.8782 17.6679 96.2297 18.4677L121.682 76.3935Z" fill="#C55A11" fill-opacity="0.2"/>
<path d="M93.5355 19.441C93.1216 19.5814 92.7804 19.8804 92.5871 20.2723L70.6322 64.7919C69.9244 66.2283 68.2863 66.9481 66.7496 66.4979L19.1082 52.559C18.5432 52.394 17.9329 52.5428 17.5074 52.9495C17.0819 53.3562 16.9057 53.9591 17.0452 54.531C17.1847 55.103 17.6187 55.5569 18.1837 55.722L65.8245 69.6592C68.897 70.5618 72.1734 69.1222 73.5867 66.2484L95.542 21.7306C95.7355 21.3388 95.7653 20.8863 95.625 20.4724C95.4847 20.0585 95.1857 19.7174 94.7937 19.5242C94.402 19.3304 93.9494 19.3007 93.5355 19.441Z" fill="#C55A11" fill-opacity="0.2"/>
<path d="M54.6883 76.2857C54.0905 76.4102 53.597 76.8349 53.3985 77.3958L41.4338 108.899C41.2095 109.452 41.3083 110.067 41.692 110.506C42.0758 110.946 42.6841 111.141 43.2818 111.017C43.8797 110.892 44.3731 110.468 44.5717 109.907L56.5364 78.4036C56.7606 77.851 56.6618 77.2358 56.2782 76.7963C55.8945 76.3567 55.2862 76.1612 54.6883 76.2857Z" fill="#C55A11" fill-opacity="0.2"/>
<path d="M87.6971 62.3256C87.1488 62.0919 86.5008 62.1683 86.0038 62.5252C85.5067 62.8821 85.2389 63.4635 85.3033 64.0445C85.3678 64.6258 85.7548 65.1154 86.3145 65.3243L117.672 77.8427C118.511 78.1557 119.481 77.7549 119.857 76.9398C120.233 76.1246 119.877 75.1939 119.055 74.8438L87.6971 62.3256Z" fill="#C55A11" fill-opacity="0.2"/>
</svg>
