<svg width="20" height="12" viewBox="0 0 20 12" fill="none" xmlns="http://www.w3.org/2000/svg">
<path d="M0.19983 2.29275L9.53928 11.6316C9.67272 11.7651 9.82623 11.832 9.99989 11.832C10.1735 11.832 10.3273 11.7651 10.4608 11.6316L19.7995 2.29275C19.9333 2.15896 20 2.00545 20 1.83172C20 1.65806 19.9331 1.50434 19.7995 1.37083L18.7977 0.369111C18.6642 0.235535 18.5104 0.16878 18.3368 0.16878C18.1631 0.16878 18.0094 0.235534 17.8758 0.369111L9.99989 8.24489L2.12368 0.368618C1.99017 0.235041 1.83638 0.168709 1.663 0.168709C1.48906 0.168709 1.33534 0.235462 1.20183 0.368618L0.199901 1.37076C0.0663938 1.50427 6.00172e-05 1.65806 6.00021e-05 1.83165C-1.0585e-05 2.00545 0.0663232 2.15917 0.19983 2.29275Z" fill="#656463"/>
</svg>
