<svg width="112" height="155" viewBox="0 0 112 155" fill="none" xmlns="http://www.w3.org/2000/svg">
<path d="M86.133 67.4813L4.8717 23.1212C2.37848 21.7602 -0.748645 22.6824 -2.11286 25.1815L-35.0466 85.5114C-36.4107 88.0103 -35.4955 91.1395 -33.0021 92.5006L48.2592 136.861C50.7524 138.222 53.8795 137.299 55.2437 134.8L88.1775 74.4705C89.5416 71.9716 88.6264 68.8424 86.133 67.4813ZM52.2339 133.158C51.7792 133.991 50.7369 134.298 49.9058 133.844L-31.3555 89.4842C-32.1866 89.0305 -32.4917 87.9876 -32.037 87.1546L0.89688 26.8245C1.35162 25.9915 2.39384 25.684 3.22497 26.1377L84.4863 70.4978C85.3174 70.9515 85.6225 71.9945 85.1678 72.8275L52.2339 133.158Z" fill="#C55A11" fill-opacity="0.2"/>
<path d="M82.5434 71.1577C82.148 70.8948 81.6644 70.7997 81.199 70.8936L28.338 81.5512C26.6329 81.8955 24.9268 80.9642 24.2943 79.3437L4.6703 29.1167C4.43739 28.5213 3.90441 28.0951 3.27226 27.999C2.6401 27.9028 2.00455 28.1513 1.60521 28.6509C1.20587 29.1504 1.1034 29.8249 1.33631 30.4203L20.9614 80.6458C22.2237 83.8874 25.6362 85.7503 29.0458 85.059L81.9055 74.4028C82.3709 74.3093 82.7799 74.0346 83.0428 73.6393C83.3056 73.244 83.4007 72.7604 83.3068 72.2951C83.2134 71.8296 82.9387 71.4206 82.5434 71.1577Z" fill="#C55A11" fill-opacity="0.2"/>
<path d="M7.87112 75.4619C7.36728 75.0303 6.67456 74.8877 6.06037 75.0891L-28.9758 85.7025C-29.5999 85.8762 -30.0635 86.3694 -30.187 86.9911C-30.3105 87.613 -30.0748 88.2658 -29.5712 88.6974C-29.0673 89.129 -28.3746 89.2716 -27.7604 89.0702L7.27578 78.4568C7.89982 78.2831 8.36341 77.7899 8.4869 77.1682C8.6104 76.5465 8.37495 75.8936 7.87112 75.4619Z" fill="#C55A11" fill-opacity="0.2"/>
<path d="M41.7832 94.5913C41.6203 93.9646 41.1246 93.458 40.4878 93.2672C39.851 93.0765 39.1732 93.2319 38.7162 93.6729C38.259 94.114 38.0947 94.7718 38.2864 95.3919L48.3271 130.67C48.6145 131.6 49.603 132.168 50.5534 131.951C51.5039 131.733 52.0681 130.809 51.824 129.87L41.7832 94.5913Z" fill="#C55A11" fill-opacity="0.2"/>
</svg>
