<svg width="10" height="6" viewBox="0 0 10 6" fill="none" xmlns="http://www.w3.org/2000/svg">
<path d="M0.099915 1.06141L4.76964 5.73082C4.83636 5.79761 4.91312 5.83105 4.99994 5.83105C5.08677 5.83105 5.16367 5.79761 5.23042 5.73082L9.89976 1.06141C9.96666 0.994519 10 0.917763 10 0.8309C10 0.744071 9.96655 0.66721 9.89976 0.600456L9.39887 0.0995945C9.33208 0.0328063 9.25522 -0.000570839 9.16839 -0.000570847C9.08156 -0.000570854 9.0047 0.0328063 8.93791 0.0995945L4.99994 4.03749L1.06184 0.0993482C0.995086 0.0325596 0.91819 -0.000606377 0.831501 -0.000606385C0.744532 -0.000606392 0.667671 0.0327703 0.600916 0.0993482L0.0999503 0.60042C0.0331969 0.667174 3.00086e-05 0.74407 3.0001e-05 0.830864C-5.29251e-06 0.917762 0.0331616 0.994623 0.099915 1.06141Z" fill="#C57B48"/>
</svg>
