<svg width="20" height="20" viewBox="0 0 20 20" fill="none" xmlns="http://www.w3.org/2000/svg">
<g clip-path="url(#clip0)">
<path d="M10 20C4.48589 20 0 15.5141 0 10C0 4.48589 4.48589 0 10 0C11.8679 0 13.6899 0.518403 15.2693 1.4994C15.5453 1.67068 15.6299 2.0334 15.4586 2.30946C15.2871 2.58549 14.9243 2.67069 14.6486 2.4988C13.2558 1.63358 11.6483 1.1765 10 1.1765C5.13466 1.1765 1.17646 5.13484 1.17646 10C1.17646 14.8653 5.13466 18.8235 10 18.8235C14.8652 18.8235 18.8235 14.8652 18.8235 10C18.8235 9.02207 18.6648 8.06188 18.3517 7.14615C18.2466 6.83885 18.4109 6.50431 18.7182 6.39922C19.0261 6.29474 19.36 6.45835 19.4651 6.76565C19.8199 7.80426 20 8.89249 20 10C20 15.5141 15.5141 20 10 20Z" fill="#E1E1E1"/>
<path d="M10.0012 13.3929C9.85195 13.3929 9.70765 13.3362 9.59844 13.2333L4.89256 8.81265C4.65574 8.59025 4.64409 8.21798 4.86653 7.98116C5.08898 7.74465 5.4612 7.73239 5.69802 7.95545L9.95126 11.9508L17.6798 2.77619C17.8887 2.52772 18.26 2.49587 18.5085 2.7054C18.757 2.91466 18.7888 3.28566 18.5793 3.53413L10.4509 13.1837C10.347 13.3071 10.1966 13.3825 10.0355 13.392C10.0241 13.3926 10.0125 13.3929 10.0012 13.3929Z" fill="#656463"/>
</g>
<defs>
<clipPath id="clip0">
<rect width="20" height="20" fill="white"/>
</clipPath>
</defs>
</svg>
