<svg version="1.1" id="Layer_1" xmlns="http://www.w3.org/2000/svg" xmlns:xlink="http://www.w3.org/1999/xlink" x="0px" y="0px"
	 viewBox="0 0 512 512" style="enable-background:new 0 0 512 512;" xml:space="preserve">
	<path id="XMLID_4_" class="st0" d="M512,136.4c0,8.4-2.8,16.8-9.3,22.3L263.4,398l-44.7,44.7c-6.5,6.5-14,9.3-22.3,9.3
		c-8.4,0-16.8-2.8-22.3-9.3L129.4,398L9.3,277.9c-6.5-6.5-9.3-14-9.3-22.3c0-8.4,2.8-16.8,9.3-22.3L54,188.5
		c6.5-6.5,14-9.3,22.3-9.3s16.8,2.8,22.3,9.3l96.8,97.7L412.4,69.4c6.5-6.5,14-9.3,22.3-9.3s16.8,2.8,22.3,9.3l44.7,44.7
		C509.2,119.6,512,127.1,512,136.4z" fill="#E08F4D" />
</svg>
