<svg width="19" height="19" viewBox="0 0 19 19" fill="none" xmlns="http://www.w3.org/2000/svg">
<g clip-path="url(#clip0)">
<path d="M17.7362 9.7461C17.6598 9.58968 17.6598 9.4103 17.7362 9.25392L18.4449 7.80425C18.8394 6.99709 18.5268 6.03503 17.7332 5.61396L16.3078 4.85767C16.1541 4.77611 16.0486 4.63094 16.0185 4.45953L15.7398 2.87018C15.5845 1.98527 14.766 1.39064 13.8766 1.51647L12.2789 1.74247C12.1065 1.76681 11.936 1.71137 11.8109 1.59036L10.6512 0.468475C10.0054 -0.156221 8.99384 -0.156258 8.34814 0.468475L7.18841 1.59047C7.06327 1.71152 6.89276 1.76685 6.72035 1.74258L5.12269 1.51659C4.233 1.39067 3.41474 1.98539 3.25951 2.87029L2.98075 4.45957C2.95065 4.63101 2.84522 4.77614 2.69148 4.85775L1.26612 5.61403C0.472502 6.03507 0.159894 6.9972 0.554439 7.80436L1.26304 9.25399C1.33948 9.41041 1.33948 9.5898 1.26304 9.74617L0.554402 11.1958C0.159857 12.003 0.472465 12.965 1.26608 13.3861L2.69144 14.1424C2.84522 14.2239 2.95065 14.3691 2.98075 14.5405L3.25951 16.1299C3.40082 16.9354 4.09157 17.5004 4.88545 17.5003C4.96364 17.5003 5.04298 17.4948 5.12272 17.4835L6.72039 17.2575C6.89268 17.2331 7.06331 17.2886 7.18844 17.4097L8.34814 18.5315C8.67107 18.8439 9.08528 19.0001 9.49964 19C9.91389 19 10.3284 18.8439 10.6511 18.5315L11.8109 17.4097C11.936 17.2886 12.1066 17.2334 12.2789 17.2575L13.8766 17.4835C14.7664 17.6094 15.5845 17.0147 15.7398 16.1298L16.0186 14.5406C16.0487 14.3691 16.1541 14.224 16.3078 14.1424L17.7332 13.3861C18.5268 12.9651 18.8394 12.0029 18.4449 11.1958L17.7362 9.7461ZM17.2196 12.418L15.7942 13.1743C15.3398 13.4155 15.0281 13.8444 14.9392 14.3512L14.6604 15.9405C14.6079 16.2399 14.3311 16.441 14.0301 16.3985L12.4324 16.1725C11.9229 16.1003 11.4187 16.2643 11.0489 16.622L9.88921 17.7438C9.67079 17.9551 9.32853 17.9551 9.11003 17.7438L7.95033 16.6219C7.6378 16.3196 7.22923 16.1558 6.80269 16.1558C6.72454 16.1558 6.64576 16.1613 6.56686 16.1724L4.9692 16.3984C4.6684 16.441 4.39138 16.2398 4.33883 15.9404L4.06003 14.3511C3.97112 13.8443 3.65947 13.4154 3.205 13.1743L1.77963 12.418C1.51111 12.2755 1.40535 11.95 1.53883 11.677L2.24747 10.2273C2.47339 9.76506 2.47339 9.23492 2.24747 8.77269L1.53883 7.32302C1.40535 7.04993 1.51111 6.72445 1.77963 6.58199L3.205 5.8257C3.65944 5.58453 3.97112 5.15562 4.05999 4.64886L4.33876 3.05955C4.3913 2.76015 4.66806 2.55902 4.96913 2.60155L6.56679 2.82754C7.07611 2.89964 7.58046 2.73573 7.95026 2.37804L9.10999 1.25615C9.32842 1.04485 9.67067 1.04485 9.88917 1.25615L11.0489 2.37804C11.4187 2.73577 11.9229 2.89964 12.4323 2.82754L14.03 2.60155C14.3308 2.55898 14.6079 2.76015 14.6604 3.05955L14.9391 4.6489C15.028 5.15566 15.3397 5.5846 15.7942 5.8257L17.2195 6.58199C17.4881 6.72445 17.5938 7.04993 17.4603 7.32302L16.7517 8.77265C16.5258 9.23485 16.5258 9.76506 16.7517 10.2273L17.4603 11.6769C17.5939 11.95 17.4881 12.2756 17.2196 12.418Z" fill="#656463"/>
<path d="M13.5039 5.49646C13.29 5.28249 12.943 5.28249 12.7291 5.49646L5.4969 12.7287C5.28293 12.9426 5.28293 13.2896 5.4969 13.5035C5.60389 13.6105 5.74413 13.664 5.88432 13.664C6.02452 13.664 6.1648 13.6106 6.27174 13.5035L13.5039 6.27138C13.718 6.05737 13.718 5.71047 13.5039 5.49646Z" fill="#656463"/>
<path d="M7.30776 4.56874C6.19998 4.56874 5.29871 5.47001 5.29871 6.57779C5.29871 7.68557 6.19998 8.58684 7.30776 8.58684C8.41554 8.58684 9.31681 7.68557 9.31681 6.57779C9.31681 5.47001 8.41554 4.56874 7.30776 4.56874ZM7.30776 7.49097C6.80422 7.49097 6.39458 7.08132 6.39458 6.57775C6.39458 6.07422 6.80422 5.66457 7.30776 5.66457C7.81129 5.66457 8.22098 6.07422 8.22098 6.57775C8.22094 7.08132 7.81129 7.49097 7.30776 7.49097Z" fill="#656463"/>
<path d="M11.6913 10.4132C10.5835 10.4132 9.68225 11.3145 9.68225 12.4223C9.68225 13.53 10.5835 14.4313 11.6913 14.4313C12.7991 14.4313 13.7004 13.53 13.7004 12.4223C13.7004 11.3145 12.7991 10.4132 11.6913 10.4132ZM11.6913 13.3354C11.1878 13.3354 10.7781 12.9258 10.7781 12.4223C10.7781 11.9187 11.1877 11.5091 11.6913 11.5091C12.1948 11.5091 12.6045 11.9187 12.6045 12.4223C12.6045 12.9258 12.1948 13.3354 11.6913 13.3354Z" fill="#656463"/>
</g>
<defs>
<clipPath id="clip0">
<rect width="19" height="19" fill="white"/>
</clipPath>
</defs>
</svg>
