<svg width="28" height="28" viewBox="0 0 28 28" fill="none" xmlns="http://www.w3.org/2000/svg">
<path d="M3.5 15.7385C3.74161 15.7385 3.9375 15.9344 3.9375 16.176V19.2416H4.63356C4.80512 17.7242 6.17427 16.6331 7.69163 16.8046C8.97274 16.9495 9.9837 17.9605 10.1286 19.2416H19.25V6.55408H3.9375V7.93001C3.9375 8.17162 3.74161 8.36751 3.5 8.36751C3.25839 8.36751 3.0625 8.17162 3.0625 7.93001V6.11658C3.0625 5.87497 3.25839 5.67908 3.5 5.67908H19.6875C19.9291 5.67908 20.125 5.87497 20.125 6.11658V6.55408H25.1353C26.2335 6.5555 27.1236 7.44548 27.125 8.54383V9.17908C27.125 9.42069 26.9291 9.61658 26.6875 9.61658H26.1787L26.5125 13.6263C27.3861 13.8537 27.9969 14.641 28 15.5438V19.2416C28 19.4832 27.8041 19.6791 27.5625 19.6791H26.6766C26.5566 21.2436 25.1911 22.4146 23.6266 22.2947C22.2288 22.1876 21.1181 21.0769 21.0109 19.6791C21.007 19.6791 21.0039 19.6813 21 19.6813H20.125C20.125 19.9229 19.9291 20.1188 19.6875 20.1188H10.0888C9.77709 21.6142 8.31212 22.5738 6.81669 22.2621C5.73951 22.0376 4.89787 21.1959 4.67337 20.1188H3.5C3.25839 20.1188 3.0625 19.9229 3.0625 19.6813V16.176C3.0625 15.9343 3.25839 15.7385 3.5 15.7385ZM23.8438 21.4291C24.931 21.4291 25.8125 20.5476 25.8125 19.4603C25.8125 18.373 24.931 17.4916 23.8438 17.4916C22.7565 17.4916 21.875 18.373 21.875 19.4603C21.8762 20.5471 22.7569 21.4279 23.8438 21.4291ZM20.125 18.8041H21C21.0256 18.8068 21.051 18.8118 21.0757 18.8194C21.4275 17.2907 22.952 16.3367 24.4806 16.6886C25.5347 16.9312 26.3594 17.7514 26.6079 18.8041H27.125V15.5438C27.1243 14.9285 26.6256 14.4298 26.0103 14.4291H20.125V18.8041ZM20.125 13.5541H25.6287L25.3006 9.61658H20.125V13.5541ZM20.125 8.74158H26.25V8.54383C26.2493 7.92848 25.7506 7.42979 25.1353 7.42908H20.125V8.74158ZM5.49309 19.6616C5.5493 20.6625 6.3782 21.4448 7.38062 21.4431H7.38106C8.29899 21.441 9.08277 20.7799 9.23956 19.8755C9.16289 19.7415 9.17164 19.5751 9.26188 19.4498C9.20341 18.4091 8.31234 17.6128 7.27158 17.6713C6.23088 17.7297 5.43457 18.6208 5.49309 19.6616Z" fill="#808080"/>
<path d="M3.9375 9.17908H10.0625C10.3041 9.17908 10.5 9.37497 10.5 9.61658C10.5 9.85819 10.3041 10.0541 10.0625 10.0541H3.9375C3.69589 10.0541 3.5 9.85819 3.5 9.61658C3.5 9.37497 3.69589 9.17908 3.9375 9.17908Z" fill="#808080"/>
<path d="M3.0625 13.9916H12.6875C12.9291 13.9916 13.125 14.1875 13.125 14.4291C13.125 14.6707 12.9291 14.8666 12.6875 14.8666H3.0625C2.82089 14.8666 2.625 14.6707 2.625 14.4291C2.625 14.1875 2.82089 13.9916 3.0625 13.9916Z" fill="#808080"/>
<path d="M3.9375 11.3666H8.75C8.99161 11.3666 9.1875 11.5625 9.1875 11.8041C9.1875 12.0457 8.99161 12.2416 8.75 12.2416H3.9375C3.69589 12.2416 3.5 12.0457 3.5 11.8041C3.5 11.5625 3.69589 11.3666 3.9375 11.3666Z" fill="#808080"/>
<path d="M2.1875 10.0541H1.3125C1.07089 10.0541 0.875 9.85819 0.875 9.61658C0.875 9.37497 1.07089 9.17908 1.3125 9.17908H2.1875C2.42911 9.17908 2.625 9.37497 2.625 9.61658C2.625 9.85819 2.42911 10.0541 2.1875 10.0541Z" fill="#808080"/>
<path d="M0.875 13.9916H1.75C1.99161 13.9916 2.1875 14.1875 2.1875 14.4291C2.1875 14.6707 1.99161 14.8666 1.75 14.8666H0.875C0.633391 14.8666 0.4375 14.6707 0.4375 14.4291C0.4375 14.1875 0.633391 13.9916 0.875 13.9916Z" fill="#808080"/>
<path d="M0.4375 11.3666H2.1875C2.42911 11.3666 2.625 11.5625 2.625 11.8041C2.625 12.0457 2.42911 12.2416 2.1875 12.2416H0.4375C0.195891 12.2416 0 12.0457 0 11.8041C0 11.5625 0.195891 11.3666 0.4375 11.3666Z" fill="#808080"/>
</svg>
