<svg width="34" height="34" viewBox="0 0 34 34" fill="none" xmlns="http://www.w3.org/2000/svg">
<path d="M5.84375 13.2812C6.43055 13.2812 6.90625 12.8056 6.90625 12.2188C6.90625 11.6319 6.43055 11.1562 5.84375 11.1562C5.25695 11.1562 4.78125 11.6319 4.78125 12.2188C4.78125 12.8056 5.25695 13.2812 5.84375 13.2812Z" fill="#656463"/>
<path d="M8.5 13.2812C9.0868 13.2812 9.5625 12.8056 9.5625 12.2188C9.5625 11.6319 9.0868 11.1562 8.5 11.1562C7.9132 11.1562 7.4375 11.6319 7.4375 12.2188C7.4375 12.8056 7.9132 13.2812 8.5 13.2812Z" fill="#656463"/>
<path d="M9.03125 11.1562C9.1428 11.1563 9.25152 11.1212 9.34201 11.056C9.4325 10.9908 9.50016 10.8987 9.53541 10.7929L10.5979 7.60537C10.6245 7.52551 10.6318 7.44047 10.619 7.35726C10.6063 7.27404 10.574 7.19505 10.5248 7.12677C10.4755 7.05849 10.4108 7.00289 10.3358 6.96455C10.2609 6.92621 10.1779 6.90623 10.0938 6.90625H5.38316L5.30825 6.30913C5.2922 6.18066 5.22979 6.06248 5.13275 5.97679C5.03571 5.8911 4.91071 5.84379 4.78125 5.84375H3.71875C3.57785 5.84375 3.44273 5.89972 3.3431 5.99935C3.24347 6.09898 3.1875 6.2341 3.1875 6.375C3.1875 6.5159 3.24347 6.65102 3.3431 6.75065C3.44273 6.85028 3.57785 6.90625 3.71875 6.90625H4.31216L4.386 7.49647V7.51188L4.78338 10.6909C4.79947 10.8197 4.86219 10.9382 4.95968 11.0239C5.05716 11.1097 5.18267 11.1567 5.3125 11.1562H9.03125ZM5.78159 10.0937L5.51597 7.96875H9.35691L8.64822 10.0937H5.78159Z" fill="#656463"/>
<path d="M32.4062 11.6875H29.2188C29.0779 11.6875 28.9427 11.7435 28.8431 11.8431C28.7435 11.9427 28.6875 12.0779 28.6875 12.2188V12.9519L27.5559 12.3888C27.3352 12.2771 27.0914 12.2189 26.8441 12.2188H20.1875V3.71875C20.1875 3.01427 19.9076 2.33864 19.4095 1.8405C18.9114 1.34235 18.2357 1.0625 17.5312 1.0625H3.71875C3.01427 1.0625 2.33864 1.34235 1.8405 1.8405C1.34235 2.33864 1.0625 3.01427 1.0625 3.71875V30.2812C1.0625 30.9857 1.34235 31.6614 1.8405 32.1595C2.33864 32.6576 3.01427 32.9375 3.71875 32.9375H17.5312C18.2357 32.9375 18.9114 32.6576 19.4095 32.1595C19.9076 31.6614 20.1875 30.9857 20.1875 30.2812V25.5H22.8438C22.9846 25.5 23.1198 25.444 23.2194 25.3444C23.319 25.2448 23.375 25.1096 23.375 24.9688V20.9578C24.0575 21.2274 24.7929 21.3364 25.5243 21.2766C26.2557 21.2167 26.9635 20.9895 27.5931 20.6125L28.305 20.1875L28.6875 20.1822V20.7188C28.6875 20.8596 28.7435 20.9948 28.8431 21.0944C28.9427 21.194 29.0779 21.25 29.2188 21.25H32.4062C32.5471 21.25 32.6823 21.194 32.7819 21.0944C32.8815 20.9948 32.9375 20.8596 32.9375 20.7188V12.2188C32.9375 12.0779 32.8815 11.9427 32.7819 11.8431C32.6823 11.7435 32.5471 11.6875 32.4062 11.6875ZM2.125 3.71875C2.12626 3.29645 2.29458 2.89181 2.59319 2.59319C2.89181 2.29458 3.29645 2.12626 3.71875 2.125H17.5312C17.9536 2.12626 18.3582 2.29458 18.6568 2.59319C18.9554 2.89181 19.1237 3.29645 19.125 3.71875V4.25H2.125V3.71875ZM19.125 30.2812C19.1237 30.7036 18.9554 31.1082 18.6568 31.4068C18.3582 31.7054 17.9536 31.8737 17.5312 31.875H3.71875C3.29645 31.8737 2.89181 31.7054 2.59319 31.4068C2.29458 31.1082 2.12626 30.7036 2.125 30.2812V28.7087L19.125 28.6875V30.2812ZM19.125 27.625L2.125 27.6462V5.3125H19.125V12.2188H19.0613C18.6957 12.2191 18.3413 12.3447 18.0572 12.5747L15.2203 14.875H7.4375V14.3438C7.4375 14.2029 7.38153 14.0677 7.2819 13.9681C7.18227 13.8685 7.04715 13.8125 6.90625 13.8125C6.76535 13.8125 6.63023 13.8685 6.5306 13.9681C6.43097 14.0677 6.375 14.2029 6.375 14.3438V26.0312C6.375 26.1721 6.43097 26.3073 6.5306 26.4069C6.63023 26.5065 6.76535 26.5625 6.90625 26.5625C7.04715 26.5625 7.18227 26.5065 7.2819 26.4069C7.38153 26.3073 7.4375 26.1721 7.4375 26.0312V25.5H19.125V27.625ZM8.95688 15.9375C8.86063 16.3025 8.66928 16.6354 8.40237 16.9024C8.13545 17.1693 7.8025 17.3606 7.4375 17.4569V15.9375H8.95688ZM7.4375 22.9181C7.8025 23.0144 8.13545 23.2057 8.40237 23.4726C8.66928 23.7396 8.86063 24.0725 8.95688 24.4375H7.4375V22.9181ZM22.3125 24.4375H20.7931C20.8894 24.0725 21.0807 23.7396 21.3476 23.4726C21.6146 23.2057 21.9475 23.0144 22.3125 22.9181V24.4375ZM22.3125 21.8291C21.6607 21.9392 21.0594 22.2495 20.5919 22.7169C20.1245 23.1844 19.8142 23.7857 19.7041 24.4375H10.0459C9.93581 23.7857 9.6255 23.1844 9.15807 22.7169C8.69065 22.2495 8.0893 21.9392 7.4375 21.8291V18.5459C8.0893 18.4358 8.69065 18.1255 9.15807 17.6581C9.6255 17.1906 9.93581 16.5893 10.0459 15.9375H20.6816L19.5553 17.0637C19.3987 17.2097 19.2731 17.3856 19.186 17.5811C19.0989 17.7766 19.0521 17.9876 19.0483 18.2016C19.0445 18.4156 19.0839 18.6282 19.1641 18.8266C19.2442 19.0251 19.3635 19.2054 19.5149 19.3567C19.6662 19.508 19.8465 19.6274 20.0449 19.7075C20.2434 19.7877 20.4559 19.827 20.6699 19.8233C20.8839 19.8195 21.095 19.7726 21.2905 19.6855C21.486 19.5984 21.6619 19.4728 21.8078 19.3162L22.3125 18.8116V21.8291ZM28.6875 19.1197L28.1509 19.125C28.0573 19.1251 27.9654 19.1508 27.8853 19.1994L27.0459 19.7041C26.55 19.9981 25.993 20.174 25.4182 20.2182C24.8433 20.2624 24.266 20.1738 23.7309 19.9591L23.375 19.8103V17.7491L24.0497 17.0744L24.3259 17.17C25.0887 17.4198 25.9113 17.4198 26.6741 17.17L27.2638 16.9734C27.33 16.9511 27.3913 16.916 27.4439 16.87C27.4966 16.824 27.5397 16.7681 27.5708 16.7054C27.6019 16.6428 27.6203 16.5746 27.6251 16.5048C27.6298 16.4351 27.6208 16.365 27.5984 16.2987C27.5761 16.2325 27.541 16.1712 27.495 16.1186C27.449 16.0659 27.3931 16.0228 27.3304 15.9917C27.2678 15.9606 27.1996 15.9422 27.1298 15.9374C27.0601 15.9327 26.99 15.9417 26.9237 15.9641L26.3394 16.1606C25.7944 16.3413 25.2056 16.3413 24.6606 16.1606L24.0763 15.9641C23.9822 15.9325 23.8812 15.9277 23.7846 15.9502C23.6879 15.9727 23.5995 16.0217 23.5291 16.0916L21.0534 18.5672C20.953 18.6644 20.8187 18.7187 20.6789 18.7187C20.5391 18.7187 20.4048 18.6644 20.3044 18.5672C20.2549 18.5177 20.2158 18.4589 20.1893 18.3941C20.1629 18.3294 20.1496 18.26 20.1503 18.19C20.1496 18.1208 20.1629 18.0522 20.1894 17.9883C20.2159 17.9244 20.255 17.8665 20.3044 17.8181L22.3709 15.7516C22.4699 15.652 22.5254 15.5174 22.5254 15.377C22.5254 15.2367 22.4699 15.102 22.3709 15.0025C22.2169 14.8484 21.7919 14.875 21.7812 14.875H16.9044L18.7266 13.3981C18.822 13.323 18.9398 13.2818 19.0613 13.2812H26.8441C26.9255 13.2817 27.0057 13.3017 27.0778 13.3397L28.6875 14.1419V19.1197ZM31.875 20.1875H29.75V12.75H31.875V20.1875Z" fill="#656463"/>
<path d="M11.1562 19.6562H10.0938C9.95285 19.6562 9.81773 19.7122 9.7181 19.8118C9.61847 19.9115 9.5625 20.0466 9.5625 20.1875C9.5625 20.3284 9.61847 20.4635 9.7181 20.5632C9.81773 20.6628 9.95285 20.7188 10.0938 20.7188H11.1562C11.2971 20.7188 11.4323 20.6628 11.5319 20.5632C11.6315 20.4635 11.6875 20.3284 11.6875 20.1875C11.6875 20.0466 11.6315 19.9115 11.5319 19.8118C11.4323 19.7122 11.2971 19.6562 11.1562 19.6562Z" fill="#656463"/>
<path d="M18.0625 20.1875C18.0625 20.3284 18.1185 20.4635 18.2181 20.5632C18.3177 20.6628 18.4529 20.7188 18.5938 20.7188H19.6562C19.7971 20.7188 19.9323 20.6628 20.0319 20.5632C20.1315 20.4635 20.1875 20.3284 20.1875 20.1875C20.1875 20.0466 20.1315 19.9115 20.0319 19.8118C19.9323 19.7122 19.7971 19.6562 19.6562 19.6562H18.5938C18.4529 19.6562 18.3177 19.7122 18.2181 19.8118C18.1185 19.9115 18.0625 20.0466 18.0625 20.1875Z" fill="#656463"/>
<path d="M8.5 3.71875H9.5625C9.7034 3.71875 9.83852 3.66278 9.93815 3.56315C10.0378 3.46352 10.0938 3.3284 10.0938 3.1875C10.0938 3.0466 10.0378 2.91148 9.93815 2.81185C9.83852 2.71222 9.7034 2.65625 9.5625 2.65625H8.5C8.3591 2.65625 8.22398 2.71222 8.12435 2.81185C8.02472 2.91148 7.96875 3.0466 7.96875 3.1875C7.96875 3.3284 8.02472 3.46352 8.12435 3.56315C8.22398 3.66278 8.3591 3.71875 8.5 3.71875Z" fill="#656463"/>
<path d="M11.6875 3.71875H12.75C12.8909 3.71875 13.026 3.66278 13.1257 3.56315C13.2253 3.46352 13.2812 3.3284 13.2812 3.1875C13.2812 3.0466 13.2253 2.91148 13.1257 2.81185C13.026 2.71222 12.8909 2.65625 12.75 2.65625H11.6875C11.5466 2.65625 11.4115 2.71222 11.3118 2.81185C11.2122 2.91148 11.1562 3.0466 11.1562 3.1875C11.1562 3.3284 11.2122 3.46352 11.3118 3.56315C11.4115 3.66278 11.5466 3.71875 11.6875 3.71875Z" fill="#656463"/>
<path d="M11.6875 29.75H9.03125C8.89035 29.75 8.75523 29.806 8.6556 29.9056C8.55597 30.0052 8.5 30.1404 8.5 30.2812C8.5 30.4221 8.55597 30.5573 8.6556 30.6569C8.75523 30.7565 8.89035 30.8125 9.03125 30.8125H11.6875C11.8284 30.8125 11.9635 30.7565 12.0632 30.6569C12.1628 30.5573 12.2188 30.4221 12.2188 30.2812C12.2188 30.1404 12.1628 30.0052 12.0632 29.9056C11.9635 29.806 11.8284 29.75 11.6875 29.75Z" fill="#656463"/>
<path d="M14.3438 18.5938H15.4062C15.5471 18.5938 15.6823 18.6497 15.7819 18.7493C15.8815 18.849 15.9375 18.9841 15.9375 19.125C15.9375 19.2659 15.9935 19.401 16.0931 19.5007C16.1927 19.6003 16.3279 19.6562 16.4688 19.6562C16.6096 19.6562 16.7448 19.6003 16.8444 19.5007C16.944 19.401 17 19.2659 17 19.125C17 18.7023 16.8321 18.2969 16.5332 17.998C16.2343 17.6992 15.8289 17.5312 15.4062 17.5312V17C15.4062 16.8591 15.3503 16.724 15.2507 16.6243C15.151 16.5247 15.0159 16.4688 14.875 16.4688C14.7341 16.4688 14.599 16.5247 14.4993 16.6243C14.3997 16.724 14.3438 16.8591 14.3438 17V17.5312C13.9211 17.5312 13.5157 17.6992 13.2168 17.998C12.9179 18.2969 12.75 18.7023 12.75 19.125C12.75 19.5477 12.9179 19.9531 13.2168 20.252C13.5157 20.5508 13.9211 20.7188 14.3438 20.7188H15.4062C15.5471 20.7188 15.6823 20.7747 15.7819 20.8743C15.8815 20.974 15.9375 21.1091 15.9375 21.25C15.9375 21.3909 15.8815 21.526 15.7819 21.6257C15.6823 21.7253 15.5471 21.7812 15.4062 21.7812H14.3438C14.2029 21.7812 14.0677 21.7253 13.9681 21.6257C13.8685 21.526 13.8125 21.3909 13.8125 21.25C13.8125 21.1091 13.7565 20.974 13.6569 20.8743C13.5573 20.7747 13.4221 20.7188 13.2812 20.7188C13.1404 20.7188 13.0052 20.7747 12.9056 20.8743C12.806 20.974 12.75 21.1091 12.75 21.25C12.75 21.6727 12.9179 22.0781 13.2168 22.377C13.5157 22.6758 13.9211 22.8438 14.3438 22.8438V23.375C14.3438 23.5159 14.3997 23.651 14.4993 23.7507C14.599 23.8503 14.7341 23.9062 14.875 23.9062C15.0159 23.9062 15.151 23.8503 15.2507 23.7507C15.3503 23.651 15.4062 23.5159 15.4062 23.375V22.8438C15.8289 22.8438 16.2343 22.6758 16.5332 22.377C16.8321 22.0781 17 21.6727 17 21.25C17 20.8273 16.8321 20.4219 16.5332 20.123C16.2343 19.8242 15.8289 19.6562 15.4062 19.6562H14.3438C14.2029 19.6562 14.0677 19.6003 13.9681 19.5007C13.8685 19.401 13.8125 19.2659 13.8125 19.125C13.8125 18.9841 13.8685 18.849 13.9681 18.7493C14.0677 18.6497 14.2029 18.5938 14.3438 18.5938Z" fill="#656463"/>
<path d="M12.2188 8.5H16.4688C16.6096 8.5 16.7448 8.44403 16.8444 8.3444C16.944 8.24477 17 8.10965 17 7.96875C17 7.82785 16.944 7.69273 16.8444 7.5931C16.7448 7.49347 16.6096 7.4375 16.4688 7.4375H12.2188C12.0779 7.4375 11.9427 7.49347 11.8431 7.5931C11.7435 7.69273 11.6875 7.82785 11.6875 7.96875C11.6875 8.10965 11.7435 8.24477 11.8431 8.3444C11.9427 8.44403 12.0779 8.5 12.2188 8.5Z" fill="#656463"/>
<path d="M12.2188 10.0938H16.4688C16.6096 10.0938 16.7448 10.0378 16.8444 9.93815C16.944 9.83852 17 9.7034 17 9.5625C17 9.4216 16.944 9.28648 16.8444 9.18685C16.7448 9.08722 16.6096 9.03125 16.4688 9.03125H12.2188C12.0779 9.03125 11.9427 9.08722 11.8431 9.18685C11.7435 9.28648 11.6875 9.4216 11.6875 9.5625C11.6875 9.7034 11.7435 9.83852 11.8431 9.93815C11.9427 10.0378 12.0779 10.0938 12.2188 10.0938Z" fill="#656463"/>
<path d="M12.2188 11.6875H16.4688C16.6096 11.6875 16.7448 11.6315 16.8444 11.5319C16.944 11.4323 17 11.2971 17 11.1562C17 11.0154 16.944 10.8802 16.8444 10.7806C16.7448 10.681 16.6096 10.625 16.4688 10.625H12.2188C12.0779 10.625 11.9427 10.681 11.8431 10.7806C11.7435 10.8802 11.6875 11.0154 11.6875 11.1562C11.6875 11.2971 11.7435 11.4323 11.8431 11.5319C11.9427 11.6315 12.0779 11.6875 12.2188 11.6875Z" fill="#656463"/>
</svg>
