<svg width="30" height="32" viewBox="0 0 30 32" fill="none" xmlns="http://www.w3.org/2000/svg">
<path d="M23.4139 22.7289L20.4433 21.7389L19.3768 19.606C20.3376 18.6281 21.0046 17.3342 21.2296 15.9847L21.3626 15.1875H22.5C23.5339 15.1875 24.375 14.3464 24.375 13.3125V9.375C24.375 4.20563 20.1694 0 15 0C9.81738 0 5.625 4.19356 5.625 9.375V13.3125C5.625 14.1272 6.14756 14.822 6.875 15.08V15.8125C6.875 16.8464 7.71613 17.6875 8.75 17.6875H9.29887C9.56981 18.2761 9.9205 18.8212 10.3472 19.3109C10.4358 19.4126 10.5281 19.5112 10.6226 19.6072L9.55675 21.7389L6.58606 22.729C3.132 23.8808 0.625 27.5169 0.625 31.375C0.625 31.7202 0.904813 32 1.25 32H28.75C29.0951 32 29.375 31.7202 29.375 31.375C29.375 27.5169 26.8681 23.8807 23.4139 22.7289ZM23.125 13.3125C23.125 13.6571 22.8446 13.9375 22.5 13.9375H21.5461C21.705 12.7069 21.8109 11.3973 21.8534 10.1075C21.8547 10.0711 21.8557 10.0358 21.8568 10H23.125V13.3125ZM7.5 13.9375C7.15538 13.9375 6.875 13.6571 6.875 13.3125V10H8.14363C8.14569 10.0652 8.14787 10.1307 8.15031 10.1966C8.15037 10.1989 8.1505 10.2011 8.15056 10.2033C8.15056 10.2035 8.15056 10.2037 8.15056 10.2039C8.19431 11.4584 8.29881 12.7339 8.45406 13.9374H7.5V13.9375ZM8.75 16.4375C8.40538 16.4375 8.125 16.1571 8.125 15.8125V15.1875H8.63737L8.77038 15.9849C8.79575 16.1365 8.82694 16.2875 8.863 16.4375H8.75ZM8.12606 8.75H6.89875C7.21531 4.56119 10.7111 1.25 15 1.25C19.2699 1.25 22.781 4.56075 23.1012 8.75H21.874C21.829 5.29831 19.0182 2.5 15.5594 2.5H14.4407C10.982 2.5 8.171 5.29831 8.12606 8.75ZM14.4406 3.75H15.5594C18.3599 3.75 20.6266 6.04069 20.625 8.83813C20.625 9.03481 20.6234 9.20606 20.6201 9.36187C20.6201 9.36387 20.6201 9.36594 20.6201 9.368L19.8383 9.25631C17.7146 8.95306 15.7093 7.95044 14.1919 6.43306C14.0747 6.31588 13.9157 6.25 13.75 6.25C12.0715 6.25 10.4648 7.01475 9.40263 8.30675C9.66438 5.76181 11.8158 3.75 14.4406 3.75ZM10.1587 16.4375C9.84587 15.3967 9.48787 12.3342 9.40875 10.3717L10.2499 9.25006C11.0225 8.22031 12.2244 7.5805 13.503 7.50706C15.1853 9.10806 17.3617 10.1653 19.6616 10.4937L20.5817 10.6252C20.5202 11.9305 20.3945 13.2404 20.2144 14.4451C20.2144 14.4454 20.2143 14.4459 20.2143 14.4463C20.157 14.8336 20.1119 15.0829 19.9966 15.7791C19.6656 17.7644 18.1842 19.5597 16.2287 20.0486C15.4239 20.2496 14.576 20.2495 13.7716 20.0486C12.5506 19.7434 11.4309 18.8985 10.7084 17.6875H11.9825C12.2405 18.4149 12.9352 18.9375 13.75 18.9375H15C16.0359 18.9375 16.875 18.0985 16.875 17.0625C16.875 16.0286 16.0339 15.1875 15 15.1875H13.75C12.9171 15.1875 12.2326 15.7255 11.9814 16.4375H10.1587ZM13.6974 21.3135C14.1261 21.4038 14.5632 21.45 15 21.45C15.3419 21.45 15.6839 21.4214 16.0221 21.3659L14.9177 22.5338L13.6974 21.3135ZM14.0584 23.4424L12.0761 25.5388C11.5303 24.4942 11.0614 23.407 10.6768 22.294L11.4212 20.8051L14.0584 23.4424ZM18.4729 20.5934L19.3231 22.2939C18.9379 23.4088 18.4688 24.4964 17.9236 25.5397L15.8019 23.418L18.4729 20.5934ZM13.125 17.0625C13.125 16.7174 13.4049 16.4375 13.75 16.4375H15C15.3446 16.4375 15.625 16.7179 15.625 17.0625C15.625 17.4076 15.3451 17.6875 15 17.6875H13.75C13.4054 17.6875 13.125 17.4071 13.125 17.0625ZM1.9 30.75C2.14769 27.6538 4.20825 24.8396 6.98138 23.9148L9.61225 23.0381C10.0943 24.3709 10.6914 25.6663 11.3912 26.8968C11.3924 26.8989 11.3935 26.9011 11.3947 26.9031C11.3947 26.9032 11.3947 26.9032 11.3947 26.9032C11.9061 27.8026 12.4816 28.6814 13.1055 29.5157L13.8744 30.75H1.9ZM15 30.1929L14.1524 28.8321C14.1429 28.8168 14.1327 28.802 14.122 28.7876C13.6159 28.1125 13.1438 27.4064 12.7137 26.6838L14.9427 24.3266L17.2913 26.6752C16.8584 27.4032 16.3847 28.1122 15.8781 28.7875C15.8475 28.8283 15.8909 28.764 15 30.1929ZM16.1256 30.75L16.8944 29.5158C17.5211 28.6783 18.1007 27.7924 18.6172 26.8825C18.6203 26.877 18.6233 26.8714 18.6264 26.8659C18.6268 26.8652 18.6271 26.8646 18.6275 26.8639C19.3184 25.6451 19.9093 24.3609 20.3878 23.0381L23.0186 23.9148C25.7917 24.8396 27.8523 27.6538 28.1 30.75H16.1256Z" fill="#656463"/>
</svg>
