<svg width="32" height="32" viewBox="0 0 32 32" fill="none" xmlns="http://www.w3.org/2000/svg">
<g clip-path="url(#clip0)">
<path d="M15.9893 32.0002C15.884 32.0002 15.7773 31.9748 15.6813 31.9242L0.358667 23.9242C0.138667 23.8095 0 23.5815 0 23.3335V8.33348C0 8.10282 0.12 7.88815 0.316 7.76682C0.512 7.64548 0.758667 7.63482 0.964 7.73748L16.2867 15.4042C16.512 15.5175 16.6547 15.7482 16.6547 16.0002V31.3335C16.6547 31.5668 16.5333 31.7828 16.3333 31.9042C16.2293 31.9682 16.1093 32.0002 15.9893 32.0002ZM1.33333 22.9295L15.3227 30.2335V16.4122L1.33333 9.41215V22.9295Z" fill="#656463"/>
<path d="M16.0114 32.0002C15.8914 32.0002 15.7714 31.9682 15.6661 31.9042C15.4674 31.7829 15.3447 31.5669 15.3447 31.3335V16.0002C15.3447 15.7482 15.4874 15.5175 15.7127 15.4042L31.0354 7.7375C31.2394 7.6335 31.4874 7.64417 31.6834 7.76683C31.8807 7.88817 32.0007 8.10283 32.0007 8.3335V23.3335C32.0007 23.5815 31.8621 23.8095 31.6421 23.9242L16.3194 31.9242C16.2234 31.9749 16.1167 32.0002 16.0114 32.0002ZM16.6781 16.4122V30.2335L30.6674 22.9295V9.41217L16.6781 16.4122ZM31.3341 23.3335H31.3474H31.3341Z" fill="#656463"/>
<path d="M0.668052 9.00031C0.422719 9.00031 0.188052 8.86564 0.0707191 8.63231C-0.0946143 8.30298 0.0400524 7.90298 0.369386 7.73764L15.7134 0.0709766C15.9014 -0.0223568 16.1227 -0.0223568 16.3094 0.0709766L31.6321 7.73764C31.9614 7.90298 32.0947 8.30298 31.9307 8.63231C31.7654 8.96165 31.3667 9.09365 31.0361 8.93098L16.0121 1.41231L0.966719 8.92964C0.870719 8.97764 0.769386 9.00031 0.668052 9.00031Z" fill="#656463"/>
<path d="M24.0009 20C23.6329 20 23.3342 19.7014 23.3342 19.3334V12.4121L8.37956 4.92939C8.05022 4.76539 7.91689 4.36405 8.08222 4.03472C8.24756 3.70539 8.64756 3.57339 8.97689 3.73605L24.2996 11.4027C24.5249 11.5174 24.6676 11.7481 24.6676 12.0001V19.3334C24.6676 19.7014 24.3689 20 24.0009 20Z" fill="#656463"/>
</g>
<defs>
<clipPath id="clip0">
<rect width="32" height="32" fill="white"/>
</clipPath>
</defs>
</svg>
