<svg width="33" height="30" viewBox="0 0 33 30" fill="none" xmlns="http://www.w3.org/2000/svg">
<path d="M32.9999 4.09597C32.9999 4.09235 32.9994 4.08873 32.9993 4.08505C32.9989 4.07063 32.9981 4.05641 32.9964 4.04231C32.9957 4.03714 32.9948 4.03197 32.994 4.0268C32.9921 4.0138 32.9897 4.001 32.9867 3.98846C32.9856 3.98348 32.9843 3.97857 32.9829 3.97359C32.9792 3.95995 32.9749 3.94656 32.97 3.93337C32.9691 3.93085 32.9685 3.92827 32.9676 3.92581L31.6563 0.558595C31.5241 0.2193 31.204 0 30.8408 0H28.4532C28.1929 0 27.982 0.211606 27.982 0.472672C27.982 0.733737 28.1929 0.945344 28.4532 0.945344H30.7951L31.8387 3.62511H21.9726L21.3544 0.945344H24.9982C25.2584 0.945344 25.4694 0.733737 25.4694 0.472672C25.4694 0.211606 25.2584 0 24.9982 0H20.7617H16.0137H5.9346C5.57134 0 5.25127 0.2193 5.11907 0.558724L3.80778 3.92581C3.80681 3.92833 3.8063 3.93092 3.80533 3.93337C3.80043 3.9465 3.79618 3.95988 3.79244 3.97359C3.79109 3.97857 3.7898 3.98348 3.78864 3.98846C3.78567 4.00106 3.78329 4.01387 3.78135 4.0268C3.78058 4.03197 3.77961 4.03714 3.77897 4.04231C3.77736 4.05641 3.77645 4.07063 3.77607 4.08505C3.776 4.08867 3.77555 4.09229 3.77549 4.09597C3.77549 4.09656 3.77542 4.09714 3.77542 4.09772V11.042C3.77542 11.3031 3.98638 11.5147 4.24664 11.5147C4.5069 11.5147 4.71785 11.3031 4.71785 11.042V4.57046H14.7063V11.7551C14.7063 12.0361 14.8713 12.2921 15.1267 12.4074C15.2202 12.4496 15.3198 12.4702 15.4187 12.4702C15.5899 12.4702 15.7592 12.4086 15.892 12.2905L18.3877 10.0727L20.8834 12.2904C21.0929 12.4768 21.3934 12.5227 21.6488 12.4074C21.9042 12.2921 22.0692 12.0361 22.0692 11.7551V4.57046H32.0575V25.7714C32.0575 26.1106 31.7824 26.3866 31.4442 26.3866H22.8041C22.8041 26.3812 22.8035 26.3758 22.8034 26.3705C22.8029 26.328 22.8014 26.2857 22.7977 26.2437C23.609 26.4594 24.4758 26.0412 24.8009 25.2414C24.9719 24.8207 24.9694 24.3585 24.7938 23.9398C24.7772 23.9004 24.759 23.8621 24.7398 23.8244C24.7362 23.8175 24.7328 23.8105 24.7293 23.8036C24.7104 23.7677 24.6903 23.7326 24.6691 23.6984C24.6649 23.6917 24.6607 23.6853 24.6565 23.6787C24.6341 23.6436 24.6108 23.6091 24.586 23.5759C24.5855 23.5753 24.585 23.5747 24.5846 23.5741C24.56 23.5413 24.5339 23.5098 24.507 23.479C24.5021 23.4733 24.4973 23.4676 24.4923 23.462C24.4657 23.4323 24.4381 23.4035 24.4095 23.3758C24.4038 23.3703 24.3982 23.3651 24.3925 23.3598C24.3625 23.3315 24.3319 23.3041 24.2999 23.2781C24.2988 23.2773 24.2977 23.2765 24.2966 23.2756C24.2651 23.2502 24.2325 23.2262 24.1991 23.203C24.1931 23.1988 24.1872 23.1945 24.1811 23.1904C24.1478 23.1679 24.1136 23.1466 24.0786 23.1264C24.0757 23.1247 24.073 23.1228 24.07 23.1211C24.2692 22.9482 24.4264 22.7294 24.5288 22.4777C24.6997 22.057 24.6972 21.5947 24.5216 21.176C24.3679 20.8096 24.0978 20.5149 23.7518 20.3321C23.7024 20.306 23.6514 20.2821 23.599 20.2607L16.2651 17.261L19.6789 16.2011C20.4911 15.9489 20.9485 15.08 20.6986 14.2643C20.6053 13.9598 20.4204 13.703 20.1815 13.5153C19.8261 13.2359 19.351 13.1098 18.8798 13.209C18.8776 13.2095 18.8754 13.2099 18.8731 13.2105C18.847 13.2164 16.23 13.8067 13.4967 14.3413C13.3755 14.365 13.2574 14.3879 13.1409 14.4104C13.0477 14.4284 12.9558 14.4461 12.8656 14.4633C12.8397 14.4683 12.8137 14.4732 12.788 14.4781C12.6288 14.5084 12.4746 14.5374 12.3247 14.5654C12.2643 14.5766 12.2045 14.5877 12.1457 14.5986C8.7131 15.2329 7.74882 15.2443 7.48121 15.2079C7.48018 15.2078 7.47928 15.2077 7.47824 15.2075C7.47418 15.2069 7.47019 15.2063 7.46645 15.2057C7.46374 15.2053 7.46123 15.2048 7.45872 15.2044C7.45691 15.2041 7.45498 15.2038 7.45324 15.2035C7.43654 15.2005 7.42352 15.1973 7.41347 15.1943L7.33625 15.1627L7.43248 14.9261C7.5271 14.6933 7.52568 14.4375 7.42855 14.2059C7.40425 14.148 7.37467 14.0933 7.34038 14.0423C7.23751 13.8896 7.09204 13.7706 6.91802 13.6994L4.38708 12.6643C4.15512 12.5693 3.90007 12.5708 3.66914 12.6682C3.43814 12.7656 3.2589 12.9475 3.16428 13.1802L0.0694428 20.7938C-0.12585 21.2743 0.104956 21.8244 0.583906 22.0204L3.11491 23.0556C3.23047 23.1029 3.35003 23.1252 3.46779 23.1252C3.83794 23.1252 4.18947 22.904 4.33765 22.5396L4.36091 22.4823L4.94447 22.721C4.94479 22.7211 4.94512 22.7213 4.9455 22.7214C5.50366 22.9497 6.01793 23.2754 6.46305 23.6796C6.544 23.7531 6.62263 23.8292 6.69888 23.9078C6.77513 23.9863 6.84886 24.0674 6.92008 24.1508C6.95566 24.1925 6.99066 24.2349 7.02488 24.2777C7.67347 25.089 8.52374 25.7254 9.48363 26.118L10.1402 26.3865H5.33119C4.99307 26.3865 4.71792 26.1105 4.71792 25.7713V24.5753C4.71792 24.3143 4.50696 24.1027 4.2467 24.1027C3.98644 24.1027 3.77549 24.3143 3.77549 24.5753V25.7713C3.77549 26.6318 4.47332 27.3318 5.33119 27.3318H12.4515L18.5217 29.8146C18.7307 29.9001 18.9469 29.9406 19.1598 29.9405C19.8287 29.9405 20.4641 29.5407 20.7319 28.8819C20.8417 28.6118 20.877 28.3294 20.8474 28.0579C21.1632 28.1033 21.4905 28.0616 21.7873 27.9331C22.0888 27.8024 22.3388 27.5943 22.5163 27.3318H31.4443C32.3021 27.3318 33 26.6318 33 25.7713V4.09778C32.9999 4.09714 32.9999 4.09662 32.9999 4.09597ZM16.3883 0.945344H20.3871L21.0052 3.62511H15.7701L16.3883 0.945344ZM14.8028 3.62511H4.93667L5.98023 0.945344H15.421L14.8028 3.62511ZM21.1269 11.2438H21.1268L18.8605 9.22987C18.7257 9.11014 18.5567 9.05027 18.3878 9.05027C18.2188 9.05027 18.0498 9.11014 17.915 9.22987L15.6488 11.2438V4.57046H21.1269V11.2438ZM3.46663 22.1785L0.943747 21.1467L4.0353 13.5413L6.55818 14.5732L3.46663 22.1785ZM22.2924 25.0311L21.7515 24.8098C21.7513 24.8097 21.751 24.8096 21.7508 24.8095C21.7506 24.8094 21.7504 24.8093 21.7502 24.8092C21.7501 24.8092 21.7501 24.8092 21.75 24.8092L16.1177 22.5056C15.8768 22.407 15.6018 22.523 15.5035 22.7648C15.4052 23.0065 15.5209 23.2824 15.7619 23.381L21.3943 25.6847C21.4179 25.6943 21.4406 25.705 21.4626 25.7167C21.4688 25.72 21.4745 25.724 21.4806 25.7274C21.4961 25.7362 21.5116 25.745 21.5262 25.7548C21.5332 25.7595 21.5397 25.7649 21.5465 25.7698C21.5595 25.7791 21.5727 25.7883 21.5849 25.7984C21.5923 25.8045 21.599 25.8113 21.6062 25.8176C21.6172 25.8274 21.6284 25.8368 21.6387 25.8472C21.6458 25.8543 21.6522 25.8621 21.6591 25.8695C21.6685 25.8797 21.6783 25.8897 21.6872 25.9004C21.6939 25.9086 21.6999 25.9174 21.7063 25.9258C21.7144 25.9364 21.7227 25.9469 21.7301 25.9578C21.7364 25.967 21.7417 25.9767 21.7475 25.9861C21.7542 25.997 21.7613 26.0076 21.7675 26.0188C21.773 26.0289 21.7776 26.0394 21.7827 26.0497C21.7882 26.0608 21.794 26.0716 21.7989 26.083C21.8036 26.0938 21.8074 26.1051 21.8116 26.1161C21.8159 26.1273 21.8205 26.1383 21.8242 26.1497C21.828 26.1611 21.8308 26.1728 21.834 26.1844C21.8371 26.1958 21.8407 26.2071 21.8433 26.2187C21.846 26.2304 21.8476 26.2423 21.8498 26.254C21.8519 26.2658 21.8543 26.2774 21.8559 26.2893C21.8574 26.3012 21.858 26.3132 21.859 26.3252C21.86 26.3372 21.8614 26.3492 21.8618 26.3612C21.8621 26.373 21.8616 26.385 21.8614 26.3969C21.8613 26.4092 21.8615 26.4215 21.8607 26.4338C21.86 26.4455 21.8583 26.4572 21.857 26.4689C21.8556 26.4815 21.8546 26.4941 21.8525 26.5067C21.8507 26.5182 21.8478 26.5296 21.8454 26.5411C21.8427 26.5539 21.8404 26.5666 21.837 26.5793C21.834 26.5905 21.83 26.6016 21.8265 26.6127C21.8225 26.6254 21.8188 26.6381 21.8141 26.6505C21.8101 26.6591 21.8062 26.6678 21.8025 26.6765C21.8017 26.6785 21.8012 26.6806 21.8005 26.6825C21.7269 26.853 21.591 26.9885 21.4136 27.0653C21.2183 27.1498 20.9947 27.1528 20.8 27.0732L19.8021 26.665C19.7975 26.6631 19.7928 26.6618 19.7881 26.6601C19.7834 26.658 19.779 26.6555 19.7742 26.6536L15.1931 24.7799C14.952 24.6814 14.6771 24.7973 14.5789 25.0391C14.4806 25.2809 14.5963 25.5567 14.8373 25.6553L19.4183 27.529C19.4232 27.531 19.4282 27.5325 19.4332 27.5343C19.4376 27.5362 19.4417 27.5386 19.4463 27.5404C19.8308 27.6977 20.0161 28.1394 19.8593 28.5251C19.7025 28.9108 19.2624 29.0968 18.8777 28.9393L12.7228 26.4219C12.7225 26.4218 12.7223 26.4217 12.722 26.4215L9.83967 25.2426C9.3323 25.0351 8.86115 24.747 8.44523 24.3927C8.19567 24.18 7.96602 23.9436 7.76029 23.6863C7.55759 23.4328 7.33522 23.1964 7.09597 22.9791C6.56959 22.5011 5.96147 22.116 5.30154 21.846C5.30148 21.846 5.30141 21.8459 5.30135 21.8459L4.71702 21.607L5.88084 18.7438L6.98067 16.0382L7.06181 16.0714C7.13819 16.1026 7.24712 16.1469 7.54025 16.1581C7.90647 16.1747 8.51233 16.1363 9.59772 15.9825C10.336 15.8779 11.2417 15.7266 12.2989 15.5315C12.3249 15.5267 12.3508 15.522 12.3771 15.5171C12.4265 15.5079 12.4764 15.4986 12.5266 15.4893C12.5656 15.4821 12.6048 15.4747 12.6443 15.4673C12.6893 15.4588 12.7344 15.4503 12.78 15.4417C12.8282 15.4326 12.8771 15.4234 12.9262 15.414C12.9655 15.4065 13.0048 15.399 13.0445 15.3915C13.1043 15.38 13.1652 15.3683 13.2264 15.3566C13.2578 15.3505 13.2889 15.3445 13.3206 15.3385C13.4142 15.3204 13.509 15.302 13.6056 15.2832C16.3294 14.7518 18.9585 14.1602 19.0766 14.1336C19.0884 14.1312 19.1002 14.1297 19.112 14.128C19.4147 14.0831 19.7112 14.2586 19.798 14.542C19.8285 14.6415 19.8321 14.7431 19.8129 14.8386C19.7706 15.049 19.6183 15.2304 19.4005 15.298L14.7288 16.7484C14.5386 16.8075 14.406 16.9799 14.3974 17.1794C14.3888 17.3789 14.5059 17.5623 14.6903 17.6377L23.2434 21.1361C23.4297 21.2122 23.5752 21.3566 23.6532 21.5426C23.7312 21.7286 23.7324 21.934 23.6564 22.1207C23.5804 22.3076 23.4365 22.4536 23.2511 22.5318C23.1584 22.5709 23.0609 22.5906 22.9633 22.5912C22.9618 22.5912 22.9604 22.591 22.959 22.591C22.9361 22.591 22.9132 22.5901 22.8903 22.588C22.8835 22.5873 22.8768 22.5859 22.8701 22.5851C22.8526 22.583 22.8351 22.581 22.8178 22.5776C22.8068 22.5755 22.796 22.5723 22.7851 22.5697C22.7721 22.5666 22.759 22.5639 22.7461 22.5601C22.7328 22.5562 22.7197 22.5509 22.7065 22.5462C22.6961 22.5425 22.6855 22.5394 22.6752 22.5352L17.0422 20.2312C16.8012 20.1326 16.5263 20.2487 16.428 20.4905C16.3297 20.7322 16.4454 21.0081 16.6864 21.1067L23.5156 23.8998C23.5622 23.9188 23.6062 23.9422 23.6472 23.9693C23.7704 24.0508 23.8669 24.1669 23.9253 24.3064C23.9936 24.4691 24.003 24.6466 23.9534 24.8136C23.9463 24.8375 23.938 24.8612 23.9285 24.8845C23.9187 24.9086 23.9078 24.9319 23.8959 24.9544C23.8681 25.0068 23.8343 25.0541 23.7965 25.0973C23.773 25.124 23.748 25.149 23.7213 25.1719C23.717 25.1755 23.7132 25.1796 23.7088 25.1831C23.5369 25.3242 23.307 25.3848 23.0824 25.3393C23.0368 25.3301 22.9915 25.3169 22.9469 25.2987L22.2924 25.0311Z" fill="#656463"/>
</svg>
