<svg width="90" height="84" viewBox="0 0 90 84" fill="none" xmlns="http://www.w3.org/2000/svg">
<path d="M-32.4951 50.056C-31.2942 50.06 -30.3239 51.0369 -30.3279 52.2378L-30.379 67.4742L-26.9194 67.4858C-26.0415 59.9468 -19.2183 54.5471 -11.6796 55.4248C-5.3146 56.1659 -0.306805 61.2076 0.391867 67.5774L45.7273 67.7294L45.9387 4.66992L-30.1676 4.41476L-30.1905 11.2535C-30.1945 12.4543 -31.1714 13.4247 -32.3723 13.4206C-33.5731 13.4166 -34.5435 12.4397 -34.5394 11.2389L-34.5092 2.22572C-34.5052 1.02487 -33.5283 0.0545147 -32.3275 0.0585407L48.1278 0.328281C49.3286 0.332307 50.299 1.30919 50.2949 2.51004L50.2877 4.6845L75.1896 4.76799C80.6483 4.79336 85.0572 9.2316 85.046 14.6906L85.0354 17.8479C85.0313 19.0488 84.0545 20.0191 82.8536 20.0151L80.3247 20.0066L81.917 39.9412C86.2554 41.0859 89.2781 45.0096 89.2782 49.4966L89.2166 67.8752C89.2126 69.0761 88.2357 70.0464 87.0349 70.0424L82.6316 70.0276C82.0094 77.8015 75.2029 83.5993 67.429 82.9771C60.4833 82.4213 54.9817 76.8824 54.4722 69.9332C54.4527 69.9331 54.4374 69.944 54.4178 69.9439L50.0689 69.9293C50.0649 71.1302 49.088 72.1005 47.8872 72.0965L0.179375 71.9365C-1.39458 79.3639 -8.69177 84.1089 -16.1192 82.535C-21.4692 81.4013 -25.6383 77.2038 -26.7362 71.8463L-32.5681 71.8268C-33.7689 71.8227 -34.7393 70.8458 -34.7353 69.645L-34.6768 52.2232C-34.6728 51.0221 -33.6959 50.052 -32.4951 50.056ZM68.5228 78.6783C73.9268 78.6964 78.3225 74.3301 78.3407 68.926C78.3588 63.5219 73.9925 59.1262 68.5884 59.1081C63.1843 59.09 58.7886 63.4563 58.7705 68.8604C58.7583 74.262 63.1211 78.6542 68.5228 78.6783ZM50.0835 65.5695L54.4325 65.5841C54.5599 65.5978 54.6859 65.6236 54.8084 65.6615C56.5827 58.0695 64.1755 53.3535 71.7672 55.1277C77.002 56.3511 81.0875 60.4414 82.3048 65.6775L84.875 65.6862L84.9293 49.4821C84.936 46.4237 82.4657 43.9367 79.4073 43.9229L50.1564 43.8249L50.0835 65.5695ZM50.171 39.4759L77.5258 39.5677L75.9606 19.992L50.2366 19.9058L50.171 39.4759ZM50.2512 15.5568L80.6937 15.6589L80.697 14.676C80.7037 11.6176 78.2334 9.13071 75.1751 9.11692L50.2731 9.03343L50.2512 15.5568ZM-22.6544 69.5877C-22.3917 74.5632 -18.2849 78.4652 -13.3026 78.4735L-13.3005 78.4735C-8.73813 78.4788 -4.83156 75.2059 -4.03721 70.7134C-4.41606 70.0462 -4.3698 69.219 -3.91923 68.598C-4.19245 63.4245 -8.60802 59.4519 -13.7818 59.7251C-18.9553 59.9983 -22.9279 64.4139 -22.6544 69.5877Z" fill="white" fill-opacity="0.5"/>
<path d="M-30.2112 17.4614L0.231296 17.5635C1.43214 17.5675 2.4025 18.5444 2.39847 19.7453C2.39445 20.9461 1.41756 21.9165 0.216715 21.9124L-30.2258 21.8104C-31.4267 21.8064 -32.397 20.8295 -32.393 19.6286C-32.389 18.4278 -31.4121 17.4574 -30.2112 17.4614Z" fill="white" fill-opacity="0.5"/>
<path d="M-34.6405 41.366L13.1977 41.5264C14.3986 41.5304 15.3689 42.5073 15.3649 43.7081C15.3609 44.909 14.384 45.8793 13.1831 45.8753L-34.6551 45.7149C-35.856 45.7109 -36.8263 44.734 -36.8223 43.5332C-36.8183 42.3323 -35.8414 41.362 -34.6405 41.366Z" fill="white" fill-opacity="0.5"/>
</svg>
