<svg width="43" height="50" viewBox="0 0 43 50" fill="none" xmlns="http://www.w3.org/2000/svg">
<path fill-rule="evenodd" clip-rule="evenodd" d="M42.7728 2.82234C42.6884 2.70148 42.1823 2.41947 42.0979 2.25833C42.0135 2.13747 41.6761 1.85546 41.2965 1.81518C40.8746 1.73461 39.9045 1.97632 38.4282 2.09718C36.9518 2.21804 35.5177 3.10434 34.7584 3.62807C33.9992 4.19208 32.1854 4.79637 30.8356 5.03809C29.4436 5.27981 27.0815 6.00496 25.9848 6.36754C24.8881 6.73012 24.1288 6.89126 23.0321 6.85098C21.9354 6.81069 21.2605 7.41499 21.2605 7.41499C21.2605 7.41499 20.9653 7.49556 20.5435 7.61642C19.6998 7.85814 18.3922 8.22072 17.8861 8.46243C17.0846 8.82501 16.241 8.74444 14.0476 9.67103C12.9931 10.1142 12.1916 10.6379 11.6433 11.0408C11.5589 10.8393 11.4324 10.6782 11.4324 10.5573C11.2637 9.91274 10.3779 7.81785 9.74514 7.25384C9.15461 6.68983 7.93137 5.11866 7.93137 5.11866C7.93137 5.11866 7.76264 4.67551 8.14227 4.95752C8.5219 5.23952 9.95605 6.16611 12.1495 5.80353C14.3429 5.44095 16.1145 5.15895 16.705 5.36038C17.3377 5.56181 17.2955 5.92439 17.2955 6.24668C17.2955 6.56897 17.9282 7.25384 18.8562 6.97184C19.7842 6.68983 21.4293 5.84382 22.1463 5.72296C22.8212 5.6021 22.9899 5.80353 23.243 5.64239C23.4961 5.52153 23.6227 5.36038 23.9179 5.32009C24.2132 5.27981 25.1412 5.19924 24.5928 4.75608C24.0445 4.31293 23.7914 4.23236 22.8212 4.23236C21.8511 4.23236 21.0918 4.15179 20.5013 3.91007C19.9107 3.66835 19.8264 3.50721 18.7297 3.50721C17.6752 3.50721 16.1988 3.26549 14.6381 2.86262C13.0774 2.45976 11.7276 1.69432 10.167 1.53317C8.60626 1.33174 7.80482 1.13031 7.4252 0.969164C7.00339 0.767732 6.28631 0.364868 5.06307 0.405154C3.83982 0.445441 3.46019 0.808018 2.91184 1.41231C2.40567 2.01661 2.49003 2.66119 2.74312 3.26549C3.16493 4.15179 3.62892 6.36754 3.92418 7.65671C4.21945 8.98616 5.02088 10.517 5.69578 11.4436C6.37067 12.3702 6.79248 14.3442 6.62376 14.5457C6.49722 14.7068 4.43035 16.9226 3.46019 17.97C3.46019 17.97 3.46019 18.0103 3.41801 18.0103C3.33365 18.0909 3.24929 18.2117 3.16493 18.252C2.36349 19.1383 1.2246 18.7758 0.887157 21.7167C0.507529 24.6576 1.68859 27.4776 1.8995 27.8402C2.02604 28.0819 3.79764 29.6128 5.48487 30.4991C5.52706 30.5394 5.56924 30.5797 5.61142 30.5797C5.61142 30.5797 5.6536 30.5797 5.6536 30.62C5.69578 30.6602 5.73796 30.6602 5.78014 30.7005H5.82232C6.62376 31.0228 8.14227 31.2645 8.05791 32.9163C7.97355 34.8903 7.88919 36.0183 7.97355 36.7435C8.05791 37.4686 8.22663 38.5564 8.05791 39.2815C7.88919 40.0067 8.05791 43.431 8.39536 45.1231C8.69062 46.8554 9.23897 48.5071 9.36552 48.8697C9.53424 49.2726 9.78732 49.3531 10.2513 49.3531C10.3357 49.3531 10.42 49.3531 10.5044 49.3531C10.5466 49.3531 10.5888 49.3531 10.6731 49.3531C10.9684 49.3531 11.348 49.3128 11.6433 49.2726C11.7276 49.3128 11.9386 49.2726 12.1495 49.2726C12.276 49.3128 12.74 49.2726 13.0774 49.2323C13.3305 49.2726 13.5836 49.3128 13.5836 49.3128C13.5836 49.3128 14.1741 49.474 14.2585 49.3128C14.3429 49.3128 14.8912 49.4337 14.9756 49.3128C15.1021 49.1517 15.1021 49.1114 15.3974 49.1517C15.6926 49.192 16.1145 48.7488 15.8614 48.7085C15.6083 48.6683 15.777 48.5071 15.6505 48.4265C15.5239 48.346 14.9334 48.3863 14.385 48.3057C13.8367 48.2251 13.7945 47.9028 13.0353 47.9028C12.9087 47.9028 12.8243 47.9028 12.6978 47.9028C12.6134 47.9028 12.5291 47.9028 12.4447 47.9028C12.0651 47.9028 11.6855 47.9834 11.348 48.0237C11.2637 48.0237 11.2215 47.9834 11.1371 47.9431C10.7575 47.7014 10.7153 46.9359 10.6731 45.8079C10.6309 44.6799 11.2637 42.1419 11.1371 40.9333C11.0106 39.765 10.5888 38.0729 10.6309 36.8241C10.6731 35.6155 10.5888 34.3666 11.348 33.2386C11.5589 32.9163 11.6855 32.6343 11.7698 32.3523C11.8964 32.7148 11.9807 32.9968 12.0651 33.0774C12.2338 33.2386 12.6978 33.6414 13.0353 33.4803C13.3727 33.3191 13.5414 33.3191 13.7101 33.44C13.8789 33.5609 14.0476 33.2789 14.0476 33.2789C14.0476 33.2789 14.132 33.158 14.2585 33.1983C14.385 33.2386 14.385 33.2789 14.5959 33.158C14.7647 33.0371 14.9334 32.9163 15.1865 32.9968C15.4396 33.1177 15.6926 33.158 15.8192 32.5537C15.9457 31.9494 16.1145 31.7883 16.1988 31.7883C16.2832 31.7883 16.9159 31.6674 17.3799 30.9825C17.8017 30.2977 18.3079 28.5653 17.7595 27.5582C17.2112 26.551 16.705 26.269 16.0723 26.0676C15.4396 25.8662 16.1145 25.8259 15.8614 25.3827C15.6083 24.9396 14.7225 24.3756 13.9632 24.8993C13.2462 25.423 13.5836 25.8662 13.668 26.1079C13.7101 26.3093 12.9087 26.1884 12.6978 26.5107C12.4869 26.833 11.6855 27.1956 11.6855 27.1956C11.6855 27.1956 11.3058 27.4776 10.7997 27.3165C10.7575 27.1553 10.6731 27.0345 10.5888 26.9539C10.167 26.4705 9.28115 26.0273 8.85935 25.7453C8.64844 25.5842 7.88919 25.1813 7.4252 24.4561C7.38301 24.3756 7.34083 24.3353 7.29865 24.2547C7.25647 24.2144 7.25647 24.1338 7.21429 24.0936C7.21429 24.0533 7.17211 24.013 7.17211 23.9727C7.17211 23.9324 7.12993 23.8921 7.12993 23.8116C7.12993 23.7713 7.08775 23.731 7.08775 23.6504C7.08775 23.6101 7.08775 23.5698 7.04557 23.4893C7.04557 23.449 7.04557 23.3684 7.04557 23.3281C7.04557 23.2878 7.04557 23.2475 7.04557 23.167C7.04557 23.0864 7.04557 23.0461 7.04557 22.9655C7.04557 22.9252 7.04557 22.885 7.04557 22.8044C7.04557 22.7238 7.08775 22.6432 7.08775 22.5627C7.08775 22.5224 7.08775 22.4821 7.12993 22.4418C7.17211 22.321 7.21429 22.1598 7.25647 22.0389C8.14227 19.6621 9.36552 19.5412 9.99823 19.5009C10.6309 19.4606 12.3604 18.6952 12.8665 17.6074C12.8665 17.5672 12.9087 17.5269 12.9087 17.5269C13.1618 17.1643 13.2883 16.7614 13.4571 16.5197C13.8789 15.9557 14.385 15.3111 15.4817 14.868C16.5784 14.4248 19.5733 12.5314 20.5435 11.6048C21.5558 10.6782 22.1885 10.1142 23.2852 9.95303C24.3819 9.7516 25.6473 9.83217 27.5455 9.63074C29.4436 9.42931 32.3119 7.49556 33.5352 6.64955C34.7584 5.80353 35.4333 5.56181 35.8129 5.64239C36.1926 5.72296 36.066 5.96468 36.9096 6.04525C37.7533 6.12582 37.9642 5.64239 38.1751 5.19924C38.4282 4.75608 38.7234 4.43379 39.103 4.35322C39.5249 4.27265 39.9467 4.19208 40.3263 4.19208C40.7059 4.19208 41.0855 3.95036 41.0855 3.95036L41.3386 3.8295C41.3386 3.8295 41.7604 3.95036 42.3088 3.86978C42.8993 3.78921 42.6041 2.98348 42.5619 2.86262L42.7728 2.82234Z" fill="#656463"/>
</svg>
