<svg width="43" height="56" viewBox="0 0 43 56" fill="none" xmlns="http://www.w3.org/2000/svg">
<path fill-rule="evenodd" clip-rule="evenodd" d="M19.4102 27.0531C19.5368 27.2546 19.6211 27.4157 19.7055 27.456C20.1695 27.8186 21.1818 28.7049 21.688 29.3495C21.9833 29.7121 22.8691 30.7192 23.6705 31.5249C23.7549 34.4256 23.7127 39.0182 23.5861 39.9851C23.0378 41.8383 23.4174 43.4497 23.5861 44.0943C23.7549 44.7389 24.0501 47.1158 24.0501 48.1229C24.0501 49.1704 23.7549 49.4524 23.2065 50.0164C22.6582 50.6207 23.2065 51.3459 23.5861 51.3459C23.9658 51.3459 24.5985 51.9502 24.8094 52.4336C25.0203 52.9573 25.189 55.1731 25.189 55.1731C25.653 55.6968 25.4421 55.0119 25.8217 54.2868C26.2014 53.5616 25.7374 49.5733 25.7374 49.2912C25.7374 49.0092 26.4123 42.4426 26.4123 41.8785C26.581 41.2743 26.581 39.4614 26.581 39.2196C26.581 39.0182 27.8464 35.0299 28.0151 34.4256C28.4369 34.7076 28.9009 34.9493 29.1962 34.9493C29.8711 35.5939 31.2631 35.9162 31.8114 35.8356C32.3598 36.1982 35.1015 37.0845 34.8906 36.2787C35.2703 36.2787 36.7466 35.9162 36.367 34.8284C35.9873 33.7407 34.975 31.9681 34.975 31.9681C34.975 31.9681 35.1859 31.3235 33.6674 29.4703C32.9503 28.6243 32.0645 27.6977 31.3052 27.0129L30.0398 25.8446C29.8711 25.6834 29.7446 25.6028 29.7446 25.6028C29.7446 25.6028 32.6129 24.2734 33.8361 23.0245C34.9328 21.8965 36.0295 20.9699 35.6499 18.875C37.2528 16.9413 38.6869 12.3083 38.6869 11.6637C38.6869 11.0192 39.3196 9.81056 39.5305 9.24655C39.7414 8.64226 39.1509 3.1633 39.1509 3.1633C39.1509 3.1633 39.6992 2.55901 39.9945 2.19643C40.2898 1.83385 41.0069 1.83385 41.0912 1.47127C41.1756 1.1087 39.9945 1.63242 39.9945 1.63242L40.7538 0.907265C40.7538 0.907265 41.8505 0.746119 42.1457 0.62526C41.977 0.464115 41.6818 0.423828 41.3443 0.423828C40.8803 0.423828 40.332 0.584974 39.9102 0.786406C39.2353 1.14898 37.6746 3.80789 37.6746 4.45247C37.6746 5.09705 37.5058 9.36741 37.5058 10.3343C37.5058 11.3012 36.6622 12.55 36.367 13.2752C36.0717 14.0003 35.6077 14.4435 34.8906 15.4104C34.2157 16.337 34.3423 16.7801 34.3423 16.8204C34.047 16.4578 33.7096 16.1758 33.3299 16.0147C32.9503 15.2089 32.3176 14.4032 32.3176 13.9601C32.3176 13.5169 32.5285 12.6306 32.5285 12.6306C32.5285 12.6306 33.0768 12.4292 33.1612 11.986C33.2456 11.5429 32.5285 10.8983 32.5285 10.8983L32.6972 10.5357L31.5583 10.0926C31.5583 10.0926 30.3351 8.84369 29.5758 9.36741C28.8166 9.28684 27.509 10.0926 27.4246 10.6969C26.8763 11.14 26.4966 12.55 27.045 12.9126C27.4246 13.7183 29.0275 15.0478 29.6602 13.7989C29.8711 14.2421 29.8289 14.8867 29.8289 14.8867C29.8289 14.8867 28.5635 14.7658 27.9308 15.1284C27.4668 14.9269 26.9184 14.8061 26.3701 14.9672C24.9781 15.3298 23.1222 16.1355 21.8989 16.1355C20.6757 16.1355 15.5296 15.9341 14.3485 15.8535C13.2096 15.773 11.3537 15.9341 10.9741 16.2161C10.5944 16.4981 8.65411 17.2635 8.65411 17.8276C9.49772 17.6261 10.1304 17.2233 10.1304 17.2233C10.1304 17.2233 8.61193 18.7541 8.99155 18.9153C9.62427 18.311 10.7632 17.5858 10.7632 17.5858C10.7632 17.5858 12.0708 17.747 12.9144 16.7801C13.6736 17.0621 15.3609 17.465 16.795 17.747C16.4576 17.9081 16.2045 18.1096 16.2467 18.3916C16.331 19.1973 16.795 20.4462 17.1746 20.9699C17.5543 21.4533 17.6386 22.2994 17.8495 23.0245C17.3012 23.0648 16.7107 23.0648 16.1623 22.9439C14.8547 22.6619 13.4627 21.8965 11.5646 22.0576C9.62427 22.2188 7.26214 22.4202 6.03889 22.2591C4.81564 22.0979 2.87532 21.1713 1.65208 21.2116C0.42883 21.2922 0.175745 21.6548 0.977182 22.6216C1.73644 23.5885 4.26729 24.0317 5.364 23.8705C6.4607 23.7094 7.51522 23.7094 8.4432 24.1525C9.37118 24.5957 12.6613 24.7971 13.2096 24.7568C13.6315 24.9985 15.5718 25.5626 17.3434 25.9654L19.4524 27.1337L19.4102 27.0531Z" fill="#656463"/>
</svg>
