<svg width="38" height="58" viewBox="0 0 38 58" fill="none" xmlns="http://www.w3.org/2000/svg">
<path fill-rule="evenodd" clip-rule="evenodd" d="M12.4891 44.9335C11.4767 46.1018 11.4767 46.1018 11.0971 46.6255C10.7597 47.1492 10.7597 47.2701 10.5488 47.6326C10.2957 48.0355 10.4222 47.6729 10.1691 47.8744H10.127C10.1691 47.7132 10.2535 47.0283 10.4644 46.4643C10.6753 45.7795 10.8862 45.0543 11.0971 44.6112C11.2237 44.168 11.7298 42.7983 11.8142 42.1537C11.8986 41.4688 12.3625 40.7034 12.3625 40.7034C12.3625 40.7034 12.3204 41.7508 12.2782 42.5566C12.236 43.3623 12.2782 43.8054 12.4047 44.45C12.4047 44.5709 12.4469 44.732 12.5313 44.9335H12.4891ZM16.1166 27.3686C16.3697 27.288 16.4963 27.2477 16.6228 26.8449C16.7493 26.3211 16.4119 25.878 17.2555 26.2406C18.0991 26.5629 18.0991 26.7643 18.7318 26.5629C19.3224 26.3614 19.4911 26.4017 19.8707 26.2003C20.2504 25.9989 20.5878 25.8377 20.5878 25.8377C20.5878 25.8377 19.9551 26.6031 19.8286 27.006C19.702 27.4089 19.702 27.6506 19.7864 27.8117C19.8707 27.9729 20.2082 28.2146 20.5878 28.2146C21.0096 28.2146 21.1362 28.1743 21.1362 28.1743L21.0096 29.3023C21.0096 29.3023 20.166 30.6318 19.9129 31.0347C19.6598 31.4375 19.5755 32.2432 19.3646 32.4044C19.1115 32.6058 18.7318 32.6461 18.6475 33.0087C18.5631 33.331 17.9304 34.8216 17.7195 35.2647C17.6351 35.5064 17.2555 36.433 16.7915 37.4402C16.7493 36.1913 16.7072 34.5396 16.665 34.0561C16.6228 33.331 16.2854 31.9209 16.1588 31.4778C16.0323 31.0347 16.2854 30.3095 16.2854 29.7455C16.2854 29.1815 16.3275 28.4966 16.2432 28.2146C16.201 28.0132 16.1166 27.8117 16.0323 27.4089L16.1166 27.3686ZM33.9591 0.698997C33.5373 0.416992 33.453 0.416992 33.2421 0.416992C33.0312 0.416992 33.0733 0.578138 33.0733 0.578138C33.0733 0.578138 32.8203 0.416992 32.8203 0.578138C32.8203 0.698997 32.8624 0.819856 32.8624 0.819856C32.8624 0.819856 32.989 0.940715 33.1999 1.18243C33.3686 1.42415 32.989 1.10186 33.3686 1.54501C33.706 2.02845 33.706 2.10902 33.7904 2.71332C33.8748 3.31761 34.17 3.80105 34.3388 4.04277C34.5497 4.36506 34.4653 4.48592 34.4653 4.72764C34.4653 5.00964 34.5075 5.21107 34.5075 5.21107C34.5075 5.21107 34.2544 5.1305 34.2544 5.4125C34.2544 5.7348 34.2122 5.97651 34.0013 6.82253C33.7904 7.62826 33.2842 9.68286 33.0733 10.2066C32.8624 10.7303 32.7359 12.1403 32.3563 12.8655C31.9766 13.5504 31.3439 15.1618 31.0487 15.5244C30.7956 15.887 30.5003 16.4107 30.1629 16.6524C29.8254 16.8941 29.741 17.1358 29.3192 17.0956C28.9818 17.0553 28.8553 16.8136 28.6865 16.4913C28.5178 16.169 28.4334 16.169 28.3913 15.887C28.3491 15.605 28.3069 15.2827 28.3069 15.0007C28.3069 14.7187 28.3069 14.6381 28.3069 14.6381C28.3069 14.6381 28.7287 14.5575 28.8553 14.3158C28.9396 14.1144 29.1505 13.7921 29.2349 13.4295C29.3192 13.1072 29.2349 12.9461 29.1505 12.8252C29.0662 12.7043 29.1083 12.7043 29.1083 12.7043C29.1083 12.7043 29.3192 12.1806 29.1927 11.6166C29.0662 11.0526 29.3192 11.1332 29.1927 10.7303C29.0662 10.2872 29.0662 10.2872 28.8131 10.0454C28.56 9.80372 28.3069 9.60229 28.3069 9.60229C28.3069 9.60229 28.4334 9.52172 28.56 9.60229C28.6865 9.68286 28.2225 9.19943 28.2225 9.19943L28.3913 9.15914C28.3913 9.15914 27.8007 8.99799 27.9695 8.87713C28.096 8.79656 28.2225 8.71599 28.2225 8.71599L27.632 8.75628L27.6742 8.63542C27.6742 8.63542 27.3789 8.83685 27.3367 8.75628C27.2946 8.63542 27.2102 8.3937 27.2102 8.3937L26.7884 8.6757C26.7884 8.6757 26.9571 8.43398 26.8306 8.51456C26.704 8.59513 26.7884 8.63542 26.5775 8.75628C26.3666 8.87713 26.2822 8.51456 26.2822 8.51456L25.9448 8.75628L25.7761 8.71599L25.3542 8.59513L25.5651 8.83685L25.059 8.75628C25.059 8.75628 25.3542 8.99799 25.2277 8.99799C25.1433 8.95771 24.595 8.83685 24.595 8.83685C24.595 8.83685 25.2699 8.99799 25.0168 8.99799C24.7637 8.99799 24.3419 8.99799 24.2154 8.99799C24.0888 9.03828 24.2575 9.15914 24.2575 9.15914L23.8357 9.19943L24.2154 9.32028L23.5826 9.52172L23.8357 9.68286L23.3296 9.96487L23.4561 10.0857L23.0765 10.4886L23.2452 10.5289L22.9921 10.972L23.1187 10.8512C23.1187 10.8512 23.0343 11.3749 23.0765 12.0195C23.1187 12.6238 23.0765 12.8252 23.2452 13.1072C23.4139 13.4295 23.4561 13.7921 23.4983 13.9532C23.5405 14.0741 23.5826 14.9201 24.0466 15.7661C24.4684 16.6524 24.9324 16.733 24.9324 16.9747C24.9746 17.2164 25.0168 17.297 25.0168 17.297C25.0168 17.297 24.7215 16.9344 24.6793 17.4984C24.6372 18.0624 24.9324 18.2236 24.4684 18.425C24.0466 18.6264 23.5405 18.6667 23.0343 18.8279C22.4859 18.989 21.558 19.2307 20.9674 19.9156C20.4191 20.5602 20.0816 21.0839 19.702 21.4465C19.3224 21.8091 19.4489 21.8091 18.6053 22.1716C17.7617 22.4939 17.6351 22.6148 17.1712 22.5745C16.7493 22.5342 16.7915 22.5342 16.4963 22.5342C16.7072 22.0105 16.7072 22.0105 16.7493 21.5673C16.8337 21.0839 16.665 20.6408 16.4119 20.2782C16.1166 19.9156 15.8636 19.6739 15.6948 19.4725C15.4839 19.271 15.3152 18.8682 15.3152 18.7876C15.3152 18.707 15.3152 18.2639 15.3574 17.9013C15.3996 17.579 15.6948 16.6121 15.8214 16.2093C15.9057 15.8064 16.3275 14.7992 16.4541 14.3158C16.5806 13.7921 16.7915 13.2684 16.7915 12.7446C16.7915 12.2209 17.129 10.7706 17.129 10.6094C17.129 10.4483 17.2133 9.92458 17.2133 9.52172C17.2133 9.11885 17.129 8.35341 17.0868 7.99083C17.0446 7.62826 16.9603 7.38654 16.9603 7.38654L17.0868 7.30597C17.0868 7.30597 16.8337 6.33909 16.8337 6.17795C16.7915 6.05709 16.665 6.0168 16.665 6.0168C16.665 6.0168 16.6228 5.81537 16.4963 5.61394C16.4119 5.45279 16.0323 4.44563 15.8214 3.96219C15.6105 3.47876 15.5683 3.39819 15.3996 2.87446C15.273 2.35074 14.809 2.43131 14.4294 2.31045C14.0076 2.22988 13.3749 2.31045 12.9953 2.35074C12.9531 2.35074 12.9109 2.35074 12.8687 2.35074L11.8564 2.55217C11.8142 2.59246 11.8142 2.67303 11.8142 2.7536C11.8564 2.91475 12.0251 3.07589 12.0673 3.15647C12.1516 3.19675 12.6156 3.68019 12.8265 3.80105C13.0374 3.92191 14.4294 3.84134 14.4294 3.84134C14.4294 3.84134 14.4716 3.92191 14.5981 4.36506C14.6825 4.8485 14.809 6.25852 14.809 6.25852L14.7668 6.29881C14.7668 6.29881 14.8512 7.46711 14.8512 7.54768C14.8512 7.62826 14.9778 7.66854 14.9778 7.66854C14.9778 7.66854 14.9778 8.19227 15.0621 8.91742C15.1465 9.72315 15.1043 10.126 15.0199 10.6094C14.9356 11.0929 14.6825 12.6238 14.3872 13.0669C14.1341 13.4698 14.1341 13.6712 13.8389 14.1547C13.5014 14.6381 13.3327 15.0812 13.1218 15.3632C12.9109 15.6452 12.7422 16.169 12.6156 16.1287C12.4891 16.1287 12.3204 16.0884 12.1095 15.8467C11.8564 15.605 11.9407 15.5244 11.9407 15.3632C11.9407 15.2021 11.9407 14.7589 11.9407 14.5575C11.9829 14.3158 11.8986 13.7115 11.9407 13.5504C11.9829 13.3892 11.9829 13.3892 12.1938 13.2684C12.4047 13.1072 12.4047 12.8655 12.3625 12.6641C12.3625 12.4223 12.4047 12.3418 12.4047 12.1403C12.4047 11.8986 12.4047 11.7778 12.4047 11.6569C12.4469 11.536 12.3625 11.4152 12.2782 11.1735C12.1516 10.9317 12.2782 10.7706 12.1516 10.4886C12.0251 10.2469 11.9407 10.2469 12.1938 10.2469C12.4469 10.2066 12.3204 10.2066 12.1516 10.0052C12.0251 9.76344 12.1095 9.88429 12.2782 9.84401C12.4047 9.80372 12.236 9.60229 12.1095 9.44114C11.9829 9.23971 12.3204 9.52172 12.3204 9.36057C12.3204 9.15914 12.1095 9.19943 12.0673 9.03828C12.0251 8.91742 12.1095 8.91742 11.9407 8.79656C11.772 8.6757 11.7298 8.55484 11.7298 8.47427C11.7298 8.35341 11.5611 8.43398 11.3924 8.35341C11.2237 8.27284 11.1393 8.27284 11.0549 8.11169C11.0128 7.95055 11.0128 8.07141 10.7175 8.03112C10.4222 7.99083 10.5066 8.07141 10.3379 7.95055C10.127 7.82969 10.1691 7.86997 9.95823 7.91026C9.78951 7.95055 9.74733 7.99083 9.70515 7.86997C9.66297 7.74912 9.66297 7.7894 9.3677 7.82969C9.07244 7.82969 9.24116 7.86997 9.07244 7.86997C8.90371 7.91026 8.98807 7.95055 8.69281 7.86997C8.39754 7.7894 8.43972 7.99083 8.271 8.11169C8.14446 8.23255 8.0601 8.23255 7.80701 8.47427C7.51174 8.6757 7.51174 8.71599 7.46956 8.91742C7.42738 9.11885 7.3852 9.28 7.21648 9.44114C7.04776 9.562 7.08994 9.68286 7.13212 10.0052C7.1743 10.3274 6.96339 10.2469 6.92121 10.6497C6.87903 11.0526 7.00557 11.1332 7.1743 11.2943C7.30084 11.4152 7.25866 11.6972 7.25866 12.0195C7.25866 12.3418 7.30084 12.6238 7.30084 12.8655C7.30084 13.1072 7.42738 13.5101 7.59611 13.7921C7.80701 14.1144 7.93355 14.5575 8.14446 14.8798C8.35536 15.2424 8.77717 15.3632 8.77717 15.3632C8.77717 15.3632 8.77717 15.4035 8.81935 15.605C8.86153 15.8064 8.77717 16.1287 8.60845 16.2093C8.4819 16.3301 8.10228 16.4107 7.97573 16.5315C7.80701 16.6524 7.84919 16.7733 7.46956 16.4913C7.13212 16.2495 5.86669 15.4841 5.48706 15.2021C5.10744 14.9201 4.93871 14.6381 4.64345 14.3158C4.39036 13.9935 3.25148 12.4626 3.12494 12.2612C3.04058 12.0598 2.95621 11.7375 2.95621 11.0123C2.99839 10.2066 3.08276 8.75628 3.12494 8.35341C3.16712 7.91026 3.37802 7.14482 3.46238 6.78224C3.58893 6.45995 3.58893 5.97651 3.84201 5.69451C4.0951 5.4125 4.26382 5.57365 4.72781 5.57365C5.1918 5.57365 5.99323 5.61394 6.2885 5.33193C6.62595 5.09021 6.71031 4.8485 6.83685 4.72764C6.96339 4.56649 7.04776 4.40534 6.96339 4.2442C6.92121 4.20391 6.87903 4.16363 6.83685 4.12334C6.2885 4.08305 4.85435 3.88162 4.47472 4.16363C4.22164 4.36506 3.79983 4.28449 3.33584 4.36506C2.91403 4.44563 2.91403 4.60678 2.70313 5.17079C2.49222 5.69451 2.07042 6.45995 1.85951 7.42682C1.64861 8.3937 1.31116 9.52172 1.26898 9.96487C1.18462 10.4483 1.01589 11.3346 0.931533 11.7778C0.847171 12.2209 0.931533 12.3821 1.10026 12.7446C1.26898 13.0669 1.52206 13.8324 1.94387 14.5575C2.36568 15.2424 3.75765 17.1761 4.22164 17.7401C4.68563 18.3041 5.82451 19.553 6.33068 20.117C6.79467 20.681 7.46956 21.7285 7.55393 21.8091C7.63829 21.9299 7.68047 22.1314 7.97573 22.5342C8.271 22.9371 8.86153 23.7831 9.07244 24.0651C9.28334 24.3874 9.11462 24.468 9.19898 25.1126C9.24116 25.3543 9.3677 26.2003 9.83169 27.288L9.91605 27.4492C10.127 27.7715 9.83169 27.7715 9.57861 28.3355C9.28334 28.8592 9.03026 29.2218 8.77717 29.9066C8.52408 30.5915 8.18664 31.9209 8.0601 32.767C7.93355 33.613 7.72265 36.2316 7.63829 38.5682C7.51174 40.8645 7.42738 41.5897 7.59611 42.1537C7.76483 42.6774 8.35536 42.9594 8.35536 42.9594C8.35536 42.9594 8.35536 44.1277 8.35536 44.9737C8.39754 45.8198 8.10228 47.1492 8.10228 47.6729C8.0601 48.2369 7.80701 48.5189 7.63829 48.8009C7.42738 49.0427 7.21648 49.2441 7.04776 49.6067C6.87903 49.929 6.75249 50.4527 6.75249 50.775C6.75249 51.1376 7.30084 52.0239 7.30084 52.0239C7.1743 52.2253 7.08994 52.3864 6.92121 52.5476C6.66813 52.8296 6.45722 52.9504 6.0776 53.313C5.69797 53.6353 5.06526 54.0382 5.02307 54.2396C4.98089 54.4008 5.02307 54.7633 6.0776 54.7633C7.08994 54.7633 8.0601 54.5216 8.39754 54.1188C8.73499 53.7159 9.07244 53.4742 9.40988 53.313C9.74733 53.1519 9.83169 53.5145 9.83169 53.5145L9.95823 53.877C9.95823 53.877 11.0971 53.6353 11.3502 53.595C11.6033 53.5547 11.6033 53.5547 11.6033 53.5547C11.6033 53.5547 12.4469 54.2396 12.7422 54.0785C13.0374 53.9173 13.6701 52.7087 14.0498 52.185L14.7668 51.2584C14.809 51.339 14.809 51.3793 14.809 51.4196C14.8934 51.7016 14.7668 51.6613 14.7247 51.903C14.7247 52.1447 14.7247 52.1447 14.8512 52.2253C14.9778 52.3462 14.9778 52.3462 14.9778 52.6684C14.9778 52.9907 14.809 53.877 14.7247 54.5216C14.6825 55.1662 14.5981 55.4885 14.7247 56.2539C14.8512 56.9791 14.7668 57.5431 15.8636 57.7042C16.9603 57.8251 17.1712 57.0999 17.2555 56.0928C17.3399 55.0856 17.0868 54.7633 17.0446 54.4008C17.0446 54.0382 17.0446 53.313 17.129 52.8296C17.2133 52.3864 17.2133 51.7419 17.129 51.4599C17.0024 51.2181 16.4963 50.6541 16.3697 50.493C16.201 50.2915 16.1588 49.9693 16.1588 49.4455C17.129 48.2369 19.1537 45.9406 19.8707 45.014C20.7143 43.9263 23.203 41.2674 23.7936 40.7034C24.3841 40.1394 24.6372 39.8574 24.8059 39.8977C25.0168 39.8977 25.8182 40.502 26.1557 40.8645C26.4931 41.1868 27.1258 41.8314 27.7164 42.5566C28.2647 43.2414 29.4036 44.6515 29.6989 45.4572C29.9941 46.2629 29.9098 47.2298 30.5847 47.7132C31.3017 48.2369 31.9766 48.5995 31.9766 49.2441C31.9766 49.8887 32.0188 50.3318 31.8923 50.8556C31.7657 51.3793 31.5548 51.4599 31.2596 51.903C30.9221 52.3059 30.9643 53.031 31.0908 53.8367C31.1752 54.6425 31.6814 55.0051 31.6814 55.0051C31.6814 55.0051 32.3141 55.0453 32.5672 55.1259C32.8203 55.2065 33.6217 55.4079 33.8748 55.5691C34.1279 55.7705 34.17 56.0928 34.8027 56.1734C35.4355 56.2942 36.7431 56.5762 37.1227 56.2942C37.5023 56.0122 37.1649 55.6093 36.8696 55.2871C36.5322 54.9648 36.1104 54.8842 35.9416 54.441C35.7729 54.0382 35.4355 53.313 35.3089 52.8296C35.1824 52.3059 35.1824 52.185 35.1824 52.185C35.1824 52.185 36.1104 48.3175 36.1104 47.6729C36.1525 47.0283 36.5743 45.6586 36.7431 44.5709C36.954 43.5234 36.9962 42.9594 36.49 42.194C35.9838 41.4688 35.1824 40.502 34.5918 39.6962C34.0435 38.8905 34.2544 38.4876 33.4108 37.8833C32.5672 37.279 32.6937 37.279 32.4406 36.6345C32.2297 36.0302 31.9766 36.1913 31.597 36.0302C31.2596 35.8287 31.5548 36.0704 31.4705 35.4259C31.3861 34.741 31.7657 34.9021 31.0487 34.6201C30.3316 34.3784 30.205 33.1698 29.9098 32.4447C29.6145 31.6792 29.3614 30.6721 29.4458 30.2289C29.5301 29.8261 30.0785 28.4563 30.0785 28.4563L30.1207 28.0132C30.1207 28.0132 31.133 26.2406 31.9345 25.032C32.7359 23.8234 33.1999 21.2451 33.2421 20.4796C33.2842 19.7142 33.5795 19.3113 33.706 19.0696C33.8748 18.8279 34.7184 15.8467 34.9293 15.1215C35.1824 14.3561 35.8995 12.1806 36.0682 11.6166C36.1947 11.0526 36.4056 8.6757 36.49 7.7894C36.6165 6.9031 36.5743 5.97651 36.5743 5.69451C36.5743 5.45279 36.1525 5.09021 36.1525 5.09021C36.1525 5.09021 36.3213 4.00248 36.026 3.3579C35.2667 1.94788 35.098 2.06873 34.0435 0.900429L33.9591 0.698997Z" fill="#656463"/>
</svg>
