<svg width="42" height="52" viewBox="0 0 42 52" fill="none" xmlns="http://www.w3.org/2000/svg">
<path fill-rule="evenodd" clip-rule="evenodd" d="M13.086 0.438477C13.5078 0.84134 13.4656 1.32478 13.2969 1.76793C13.0438 2.41251 12.7063 2.97652 12.4111 3.58081C12.3689 3.6211 12.3689 3.66138 12.3689 3.74196C12.4954 3.66138 12.622 3.58081 12.7485 3.50024C13.5078 2.97652 14.3514 2.65423 15.2372 2.41251C15.4059 2.37222 15.5746 2.29165 15.7434 2.25136C16.123 2.1305 16.4604 2.21108 16.6292 2.53337C16.8401 2.97652 17.1775 3.05709 17.6837 3.0168C18.4008 2.97652 19.0335 3.13766 19.4553 3.78224C19.5818 3.94339 19.6662 4.10453 19.7927 4.26568C20.1724 4.70883 20.2145 5.23255 20.2567 5.79656C20.2567 6.11885 20.3833 6.40086 20.6785 6.60229C21.0582 6.88429 21.016 7.24687 20.5942 7.4483C20.552 7.48859 20.5098 7.48859 20.4676 7.48859C20.5098 7.77059 20.5098 8.01231 20.552 8.29431C20.552 8.37489 20.4676 8.45546 20.4254 8.49575C20.3411 8.57632 20.2989 8.65689 20.3833 8.77775C20.5098 8.97918 20.3833 9.2209 20.1302 9.34176C19.9193 9.42233 19.7084 9.46262 19.4975 9.5029C19.2866 9.54319 19.16 9.62376 19.16 9.8252C19.2022 10.2281 19.2444 10.6309 19.2866 10.9935C19.2866 11.0338 19.3709 11.0741 19.3709 11.1546C19.4131 11.1949 19.4553 11.3158 19.4553 11.3158C19.2866 11.5172 19.4553 11.6784 19.5396 11.8395C19.9615 12.6452 20.3833 13.451 20.7629 14.2567C21.016 14.8207 21.2691 15.425 21.3956 16.0293C21.5643 16.835 21.3534 17.5199 20.8051 18.1645C20.552 18.4868 20.3411 18.8493 20.2145 19.2119C20.0458 19.7356 19.9193 20.2191 19.5396 20.7025C20.1302 21.0651 20.7207 21.4277 21.3534 21.7902C22.197 22.2737 23.125 22.6363 23.8843 23.2003C24.517 23.6434 25.1919 23.8448 25.909 24.0866C26.162 24.1671 26.4151 24.288 26.4573 24.57C26.4995 24.7311 26.626 24.7311 26.7526 24.7311C28.0602 24.7311 29.3678 24.9326 30.6332 25.2549C32.1939 25.6577 33.6702 26.3023 35.02 27.1483C35.3575 27.3498 35.7371 27.5512 36.1167 27.7929C36.3698 27.9541 36.5385 28.1958 36.7916 28.3569C38.521 29.8072 39.8287 31.5395 40.6301 33.5941C41.4315 35.689 41.5581 36.6962 41.4737 38.9522C41.4315 39.2745 41.4315 39.5968 41.3472 39.8788C41.0519 41.5306 40.4614 43.0614 39.5334 44.4715C38.521 46.0023 37.2978 47.3318 35.7793 48.3792C33.4593 49.9907 30.8441 50.9173 27.9758 51.1993C27.7649 51.1993 27.554 51.2798 27.3431 51.2798C26.7104 51.2798 26.0777 51.2798 25.4028 51.2798C25.3606 51.2798 25.3184 51.2396 25.2762 51.2396C24.8123 51.1993 24.3483 51.159 23.8421 51.0784C21.6487 50.7964 19.624 50.031 17.7259 48.9432C17.6837 48.903 17.5993 48.8627 17.5571 48.8627C17.5571 48.9432 17.5993 48.9432 17.5993 48.9835C17.6837 49.1044 17.7681 49.2252 17.8102 49.3461C17.6837 49.4267 17.5571 49.5072 17.4306 49.5475C16.7557 49.6281 16.0808 49.6684 15.4059 49.7087C14.9841 49.7087 14.5201 49.7087 14.0983 49.7087C13.5078 49.7087 12.9172 49.7087 12.3267 49.749C11.8205 49.7893 11.2722 49.8295 10.766 49.8698C10.5973 49.8698 10.3442 49.8698 10.2599 49.6684C10.1755 49.4267 10.0911 49.1447 10.2177 48.903C10.2599 48.8224 10.302 48.7015 10.302 48.6209C10.2599 47.9361 10.2599 47.2512 10.1333 46.5663C9.92241 45.5995 9.62714 44.6729 9.28969 43.7463C8.91006 42.6989 8.36171 41.732 8.31953 40.604C8.27735 39.9594 8.27735 39.3148 8.27735 38.7105C8.31953 37.8645 8.48826 37.0185 8.40389 36.2128C8.31953 35.0847 8.06645 33.9567 7.85554 32.8287C7.729 32.0633 7.5181 31.3381 7.43373 30.613C7.30719 29.4446 7.30719 28.3166 7.22283 27.1483C7.18065 26.544 7.13847 25.9397 7.01192 25.3757C6.75884 24.3686 6.71666 23.3614 6.92756 22.3542C6.92756 22.314 6.92756 22.2334 6.88538 22.1931C6.21049 21.2665 5.53559 20.3399 4.90288 19.4133C4.43889 18.7285 4.05926 18.0033 3.59527 17.3185C2.8782 16.2307 2.11894 15.143 1.35969 14.0553C1.19096 13.8135 1.14878 13.5718 1.06442 13.2898C0.980058 13.0481 0.937877 12.8467 0.853516 12.605C0.853516 12.4841 0.853516 12.3632 0.853516 12.2424C1.23314 11.5575 1.73931 10.9935 2.32985 10.5101C2.70947 10.1878 3.13128 9.94605 3.51091 9.62376C4.27017 9.01947 4.98724 8.41517 5.70432 7.81088C6.42139 7.20658 7.09629 6.60229 7.77118 6.03828C7.68682 5.79656 7.5181 5.55484 7.77118 5.43398C8.06645 5.27284 8.06645 4.99083 8.23517 4.7894C8.40389 4.54768 8.65698 4.30597 8.91006 4.26568C9.20533 4.22539 9.33187 4.06425 9.5006 3.86282C9.88023 3.41967 10.2177 2.97652 10.5973 2.57365C11.0613 2.09022 11.5253 1.60678 11.9893 1.12334C12.2424 0.84134 12.4533 0.559336 12.8751 0.438477C13.0016 0.438477 13.1282 0.438477 13.2547 0.438477H13.086ZM24.4326 25.8592C24.1374 26.1009 24.0108 26.0606 23.8421 25.7383C23.7577 25.5369 23.589 25.4966 23.4203 25.4966C23.3359 25.4966 23.2516 25.4966 23.2094 25.5369C21.8596 25.7383 20.5942 26.1815 19.4131 26.826C17.2197 27.9943 15.3637 29.4849 13.9296 31.459C12.8751 32.9093 12.158 34.5207 11.8627 36.2933C11.6518 37.4616 11.6518 38.6299 11.8627 39.7982C12.2002 41.9737 13.2547 43.8672 14.6888 45.5995C15.6168 46.7275 16.7557 47.6944 18.0211 48.5001C20.2989 49.9101 22.7454 50.6756 25.445 50.8367C26.8369 50.9173 28.1867 50.8367 29.5365 50.5547C31.9408 50.0713 34.1342 49.1447 36.0324 47.6138C37.1291 46.7275 38.1414 45.7606 38.9429 44.5923C40.4614 42.2557 41.1363 39.7579 40.8832 37.0185C40.7566 35.6487 40.377 34.3596 39.7865 33.1107C38.985 31.4187 37.804 30.0087 36.3698 28.8001C35.484 28.0749 34.5139 27.4706 33.4593 26.9872C32.6579 26.6649 31.8986 26.3023 31.0972 26.0203C30.1692 25.698 29.1991 25.5369 28.2289 25.416C27.7649 25.3757 27.3009 25.3354 26.7948 25.2952C26.8791 25.6577 26.6682 25.9397 26.2042 26.1009C25.9933 26.1815 25.8246 26.1009 25.7402 25.8994C25.4872 26.1815 25.3184 25.9397 25.1497 25.7786C24.8544 26.0606 24.8544 26.0606 24.5592 25.8592H24.4326ZM9.33187 7.28716C9.28969 7.36773 9.24751 7.4483 9.20533 7.52887C8.69916 8.45546 8.23517 9.42233 7.68682 10.3489C7.01192 11.5172 5.9574 12.3229 4.69198 12.887C4.43889 13.0078 4.39671 13.0481 4.56543 13.2898C4.81852 13.6121 5.11378 13.9747 5.40905 14.297C6.75884 15.5861 8.10863 16.8753 9.5006 18.1645C9.62714 18.2853 9.75368 18.3256 9.92241 18.3256C10.8926 18.245 11.7362 18.4465 12.622 18.8091C12.9594 18.9299 13.2969 19.0911 13.6343 19.2119C13.8452 19.2925 14.0983 19.2925 14.1827 19.0911C14.3514 18.7688 14.5201 18.4062 14.5623 18.0436C14.731 17.117 14.8576 16.2307 14.9841 15.3041C15.0263 14.9013 15.0263 14.5387 14.7732 14.1358C14.4779 13.6927 14.3936 13.169 14.4779 12.605C14.5201 12.2424 14.5623 11.8798 14.5623 11.5575C14.5623 11.3561 14.4358 11.1144 14.4779 10.9129C14.5623 10.3086 14.6467 9.70434 14.731 9.10004C14.731 9.01947 14.7732 8.89861 14.731 8.77775C14.5201 8.37489 14.3092 8.01231 14.0983 7.64973C13.803 7.12601 13.5921 6.562 13.7609 5.95771C13.803 5.75627 13.8874 5.59513 13.9718 5.3937C13.1703 5.35341 12.5376 5.6757 11.9049 6.07857C11.8627 6.07857 11.8627 6.11885 11.8627 6.15914C11.694 6.44114 11.4409 6.562 11.1035 6.562C10.5973 6.562 10.2177 6.84401 10.0068 7.24687C9.88023 7.48859 9.7115 7.56916 9.45842 7.40801C9.37405 7.36773 9.33187 7.32744 9.24751 7.28716H9.33187ZM11.694 34.3193C13.6765 29.1224 17.6837 26.2217 23.1672 25.0534C21.3534 24.1268 19.624 23.1197 17.6837 22.4348C17.4728 22.6363 17.2619 22.8377 17.051 22.9988C16.3761 23.5628 15.7012 24.0866 14.8576 24.3686C14.6888 24.4089 14.5623 24.5297 14.4358 24.6506C14.0561 25.0937 13.6765 25.5772 13.2969 26.0203C13.0016 26.3829 12.6642 26.6246 12.1158 26.6246C12.158 26.9469 12.158 27.3095 12.2002 27.6318C12.2424 29.0015 12.158 30.3712 11.8627 31.7007C11.694 32.5467 11.5253 33.3927 11.694 34.3193ZM17.3041 48.8224C14.6888 46.9289 12.622 44.6729 11.6518 41.5708C11.6518 42.7391 11.7362 43.8672 11.9893 44.9952C12.2002 45.9218 12.4954 46.8484 13.1703 47.5735C13.2969 47.7346 13.5078 47.8555 13.6765 47.9361C14.8154 48.4195 16.0386 48.5807 17.2619 48.7821L17.3041 48.8224Z" fill="#656463"/>
</svg>
