<svg width="61" height="26" viewBox="0 0 61 26" fill="none" xmlns="http://www.w3.org/2000/svg">
<path fill-rule="evenodd" clip-rule="evenodd" d="M55.7581 17.4118C55.716 17.4118 55.6738 17.4521 55.6316 17.4521C55.1676 17.6132 54.6193 17.6938 54.0287 17.6938C53.1007 17.7341 52.0462 17.6132 51.0339 17.4118C50.9073 17.3715 50.7386 17.3312 50.6121 17.3312C49.9794 17.2103 49.3466 17.0492 48.7561 16.8478C47.6594 16.4852 46.0565 16.1629 45.3395 16.1226C45.2551 16.1226 45.1707 16.1226 45.0864 16.1226C44.3693 16.1629 43.357 16.5255 42.5133 16.9686C42.0072 17.1298 41.4166 17.2506 40.8261 17.3312C39.0967 17.5326 37.1142 17.2909 35.5957 16.8881C34.8364 16.6866 34.2037 16.4449 33.7397 16.2032C33.4023 16.042 33.0648 15.9212 32.6852 15.8809C30.9558 15.5586 28.7624 16.2435 26.5268 16.9686C24.713 17.5326 21.8869 17.0492 19.6513 16.3643C18.5546 16.0018 16.9517 15.6795 16.2346 15.6392C15.4754 15.5586 14.3787 16.0018 13.4085 16.4449C12.9023 16.6061 12.3118 16.7269 11.7213 16.8075C9.10607 17.0895 5.98468 16.4449 4.63489 15.6795C3.49601 15.0752 2.06186 15.196 0.458984 15.5586V16.4046L0.501165 16.3643C2.14622 15.4378 8.89516 17.4521 8.89516 17.4521C8.97953 17.4521 9.02171 17.4521 9.10607 17.4924C10.498 17.7341 11.5526 17.7744 12.5649 17.4924C13.1554 17.3312 13.746 17.0492 14.3787 16.6866C14.5052 16.6061 14.6739 16.5255 14.8427 16.4852C15.2645 16.4046 15.6863 16.3241 16.0659 16.3241C17.9641 16.3241 20.3262 17.2103 20.3262 17.2103C20.3262 17.2103 20.284 17.1701 20.1996 17.1298C20.6215 17.2506 21.2963 17.4924 21.3807 17.5326C23.321 18.3787 26.2315 18.1369 28.214 17.5326C28.7624 17.3715 29.2685 17.1701 29.6482 16.9686C30.2387 16.6463 31.5041 16.6866 32.8961 16.8881C33.7819 17.0089 34.7099 17.2103 35.5113 17.4118C35.7222 17.4521 35.9331 17.4924 36.144 17.5729C37.2407 17.8549 38.0422 18.0966 38.0422 18.0966C40.1512 18.4995 41.501 18.3787 43.0195 17.5729C43.1882 17.4924 43.357 17.4118 43.5257 17.2909C43.6522 17.2103 43.8209 17.1298 43.9897 17.0895C44.4115 17.0089 44.7911 16.9283 45.1707 16.9283C45.466 16.9283 45.8034 16.9686 46.0987 16.9686C47.1111 17.0895 48.1234 17.3715 48.7561 17.5729C48.8827 17.6132 48.967 17.6535 49.0936 17.6938C49.3045 17.7744 49.431 17.8146 49.431 17.8146C49.431 17.8146 49.3888 17.7744 49.3045 17.7341C49.5575 17.8146 49.895 17.9355 50.1903 18.0161C50.4012 18.0966 50.5277 18.1369 50.5277 18.1369C52.9742 19.1844 57.0236 18.4995 58.7108 17.6132C58.7108 17.6132 58.753 17.6132 58.753 17.5729C59.0904 17.3715 59.7231 17.3312 60.4402 17.3312V16.4852C59.0482 16.6061 57.4454 17.0895 55.8425 17.6132L55.7581 17.4118ZM55.6316 19.0635C55.1676 19.2247 54.6193 19.3052 54.0287 19.3052C53.1007 19.3455 52.0462 19.2247 51.0339 19.0232C50.9073 18.9829 50.7386 18.9427 50.6121 18.9427C49.9794 18.8218 49.3466 18.6607 48.7561 18.4592C47.6594 18.0966 46.0565 17.7744 45.3395 17.7341C45.2551 17.7341 45.1707 17.7341 45.0864 17.7341C44.3693 17.7744 43.357 18.1369 42.5133 18.5801C42.0072 18.7412 41.4166 18.8621 40.8261 18.9427C39.0967 19.1441 37.1142 18.9024 35.5957 18.4995C34.8364 18.2981 34.2037 18.0564 33.7397 17.8146C33.4023 17.6535 33.0648 17.5326 32.6852 17.4924C30.9558 17.1701 28.7624 17.8549 26.5268 18.5801C24.713 19.1441 21.8869 18.6607 19.6513 17.9758C18.5546 17.6132 16.9517 17.2909 16.2346 17.2506C15.4754 17.1701 14.3787 17.6132 13.4085 18.0564C12.9023 18.2578 12.3118 18.3384 11.7213 18.4189C9.10607 18.7009 5.98468 18.0564 4.63489 17.2909C3.49601 16.6866 2.06186 16.8075 0.458984 17.1701V18.0161C0.458984 18.0161 0.501165 18.0161 0.501165 17.9758C2.14622 17.0492 8.89516 19.0635 8.89516 19.0635C8.97953 19.0635 9.02171 19.0635 9.10607 19.1038C10.498 19.3455 11.5526 19.3858 12.5649 19.1038C13.1554 18.9427 13.746 18.6607 14.3787 18.2981C14.5052 18.2175 14.6739 18.1369 14.8427 18.0966C15.2645 18.0161 15.6863 17.9355 16.0659 17.9355C17.9641 17.9355 20.3262 18.8218 20.3262 18.8218C20.3262 18.8218 20.284 18.7815 20.1996 18.7412C20.6215 18.8621 21.2963 19.1038 21.3807 19.1441C23.321 19.9901 26.2315 19.7484 28.214 19.1441C28.7624 18.9829 29.2685 18.7815 29.6482 18.5801C30.2387 18.2578 31.5041 18.2981 32.8961 18.4995C33.7819 18.6204 34.7099 18.8218 35.5113 19.0232C35.7222 19.0635 35.9331 19.1038 36.144 19.1844C37.2407 19.4664 38.0422 19.7081 38.0422 19.7081C40.1512 20.111 41.501 20.0304 43.0195 19.1844C43.1882 19.1038 43.357 19.0232 43.5257 18.9024C43.6522 18.8218 43.8209 18.7412 43.9897 18.7009C44.4115 18.6204 44.7911 18.5398 45.1707 18.5398C45.466 18.5398 45.8034 18.5801 46.0987 18.5801C47.1111 18.7009 48.1234 18.9829 48.7561 19.1844C48.8827 19.2247 48.967 19.2649 49.0936 19.3052C49.3045 19.3858 49.431 19.4261 49.431 19.4261C49.431 19.4261 49.3888 19.3858 49.3045 19.3455C49.5575 19.4261 49.895 19.547 50.1903 19.6275C50.4012 19.7081 50.5277 19.7484 50.5277 19.7484C52.9742 20.7958 57.0236 20.111 58.7108 19.2247C58.7108 19.2247 58.753 19.2247 58.753 19.1844C59.0904 18.9829 59.7231 18.9427 60.4402 18.9427V18.0966C59.0482 18.2175 57.4454 18.7009 55.8425 19.2247C55.8003 19.2247 55.7581 19.2649 55.716 19.2649L55.6316 19.0635ZM55.6316 21.4807C55.1676 21.6418 54.6193 21.7224 54.0287 21.7224C53.1007 21.7627 52.0462 21.6418 51.0339 21.4404C50.9073 21.4001 50.7386 21.3598 50.6121 21.3598C49.9794 21.239 49.3466 21.0778 48.7561 20.8764C47.6594 20.5138 46.0565 20.1915 45.3395 20.1512C45.2551 20.1512 45.1707 20.1512 45.0864 20.1512C44.3693 20.1915 43.357 20.5541 42.5133 20.9973C42.0072 21.1584 41.4166 21.2793 40.8261 21.3598C39.0967 21.5613 37.1142 21.3195 35.5957 20.9167C34.8364 20.7153 34.2037 20.4735 33.7397 20.2318C33.4023 20.0707 33.0648 19.9498 32.6852 19.9095C30.9558 19.5872 28.7624 20.2721 26.5268 20.9973C24.713 21.5613 21.8869 21.0778 19.6513 20.393C18.5546 20.0304 16.9517 19.7081 16.2346 19.6678C15.4754 19.5872 14.3787 20.0304 13.4085 20.4735C12.9023 20.6347 12.3118 20.7555 11.7213 20.8361C9.10607 21.1181 5.98468 20.4735 4.63489 19.7081C3.49601 19.1038 2.06186 19.2247 0.458984 19.5872V20.4332C0.458984 20.4332 0.501165 20.4332 0.501165 20.393C2.14622 19.4664 8.89516 21.4807 8.89516 21.4807C8.97953 21.4807 9.02171 21.521 9.10607 21.521C10.498 21.7627 11.5526 21.803 12.5649 21.521C13.1554 21.3598 13.746 21.0778 14.3787 20.7153C14.5052 20.6347 14.6739 20.5541 14.8427 20.5138C15.2645 20.4332 15.6863 20.3527 16.0659 20.3527C17.9641 20.3527 20.3262 21.239 20.3262 21.239C20.3262 21.239 20.284 21.1987 20.1996 21.1584C20.6215 21.2793 21.2963 21.521 21.3807 21.5613C23.321 22.4073 26.2315 22.1253 28.214 21.5613C28.7624 21.4001 29.2685 21.1987 29.6482 20.9973C30.2387 20.675 31.5041 20.7153 32.8961 20.9167C33.7819 21.0375 34.7099 21.239 35.5113 21.4404C35.7222 21.4807 35.9331 21.521 36.144 21.6016C37.2407 21.8836 38.0422 22.1253 38.0422 22.1253C40.1512 22.5281 41.501 22.4073 43.0195 21.6016C43.1882 21.521 43.357 21.4404 43.5257 21.3195C43.6522 21.239 43.8209 21.1584 43.9897 21.1181C44.4115 21.0375 44.7911 20.957 45.1707 20.957C45.466 20.957 45.8034 20.9973 46.0987 20.9973C47.1111 21.1181 48.1234 21.4001 48.7561 21.6016C48.8827 21.6418 48.967 21.6821 49.0936 21.7224C49.3045 21.803 49.431 21.8433 49.431 21.8433C49.431 21.8433 49.3888 21.803 49.3045 21.7627C49.5575 21.8433 49.895 21.9641 50.1903 22.0447C50.4012 22.1253 50.5277 22.1656 50.5277 22.1656C52.9742 23.213 57.0236 22.5281 58.7108 21.6418L58.753 21.6016C59.0904 21.4001 59.7231 21.3598 60.4402 21.3598V20.5138C59.0482 20.6347 57.4454 21.1181 55.8425 21.6418C55.8003 21.6418 55.7581 21.6821 55.716 21.6821L55.6316 21.4807ZM55.6316 24.7036C55.1676 24.8647 54.6193 24.9453 54.0287 24.9453C53.1007 24.9856 52.0462 24.8647 51.0339 24.6633C50.9073 24.623 50.7386 24.5827 50.6121 24.5827C49.9794 24.4619 49.3466 24.3007 48.7561 24.0993C47.6594 23.7367 46.0565 23.4144 45.3395 23.3741C45.2551 23.3741 45.1707 23.3741 45.0864 23.3741C44.3693 23.4144 43.357 23.777 42.5133 24.2202C42.0072 24.3813 41.4166 24.5022 40.8261 24.5827C39.0967 24.7842 37.1142 24.5424 35.5957 24.1396C34.8364 23.9382 34.2037 23.6964 33.7397 23.4547C33.4023 23.2936 33.0648 23.1727 32.6852 23.1324C30.9558 22.8101 28.7624 23.495 26.5268 24.2202C24.713 24.7842 21.8869 24.3007 19.6513 23.6159C18.5546 23.2533 16.9517 22.931 16.2346 22.8907C15.4754 22.8101 14.3787 23.2533 13.4085 23.6964C12.9023 23.8576 12.3118 23.9784 11.7213 24.059C9.10607 24.341 5.98468 23.6964 4.63489 22.931C3.49601 22.3267 2.06186 22.4476 0.458984 22.8101V23.6562C0.458984 23.6562 0.501165 23.6562 0.501165 23.6159C2.14622 22.6893 8.89516 24.7036 8.89516 24.7036C8.97953 24.7036 9.02171 24.7439 9.10607 24.7439C10.498 24.9856 11.5526 25.0259 12.5649 24.7439C13.1554 24.5827 13.746 24.3007 14.3787 23.9382C14.5052 23.8576 14.6739 23.777 14.8427 23.7367C15.2645 23.6562 15.6863 23.5756 16.0659 23.5756C17.9641 23.5756 20.3262 24.4619 20.3262 24.4619C20.3262 24.4619 20.284 24.4216 20.1996 24.3813C20.6215 24.5022 21.2963 24.7439 21.3807 24.7842C23.321 25.6302 26.2315 25.3885 28.214 24.7842C28.7624 24.623 29.2685 24.4216 29.6482 24.2202C30.2387 23.8979 31.5041 23.9382 32.8961 24.1396C33.7819 24.2604 34.7099 24.4619 35.5113 24.6633C35.7222 24.7036 35.9331 24.7439 36.144 24.8245C37.2407 25.1065 38.0422 25.3079 38.0422 25.3482C40.1512 25.751 41.501 25.6705 43.0195 24.8245C43.1882 24.7439 43.357 24.6633 43.5257 24.5424C43.6522 24.4619 43.8209 24.3813 43.9897 24.341C44.4115 24.2604 44.7911 24.1799 45.1707 24.1799C45.466 24.1799 45.8034 24.2202 46.0987 24.2202C47.1111 24.341 48.1234 24.623 48.7561 24.8245C48.8827 24.8647 48.967 24.905 49.0936 24.9453C49.3045 25.0259 49.431 25.0662 49.431 25.0662C49.431 25.0662 49.3888 25.0259 49.3045 24.9856C49.5575 25.0662 49.895 25.187 50.1903 25.2676C50.4012 25.3482 50.5277 25.3885 50.5277 25.3885C52.9742 26.4359 57.0236 25.751 58.7108 24.8647C58.7108 24.8647 58.753 24.8647 58.753 24.8245C59.0904 24.623 59.7231 24.5827 60.4402 24.5827V23.7367C59.0482 23.8576 57.4454 24.341 55.8425 24.8647C55.8003 24.8647 55.7581 24.905 55.716 24.905L55.6316 24.7036ZM16.8674 7.46107C17.711 8.02508 17.8375 8.30708 18.1328 8.50852C18.4702 8.70995 19.3138 8.79052 19.6935 8.66966C20.1153 8.50852 22.6883 6.69563 23.5741 6.41363C24.4177 6.13163 26.2315 5.24533 27.4548 5.00361C28.678 4.76189 29.2685 3.67416 30.0278 5.16476C30.787 6.65535 31.715 6.89706 32.3056 7.50136C32.8961 8.06537 33.6553 8.50852 33.8241 8.83081C33.3179 9.11281 32.8961 9.39481 32.6008 9.7171C32.4743 9.87825 32.3056 9.99911 32.1368 10.12C32.0947 10.1603 32.0103 10.2005 31.9681 10.2408C31.8838 10.3214 31.7572 10.402 31.6728 10.4423C31.5885 10.4825 31.5041 10.5228 31.4198 10.6034C31.3354 10.6437 31.251 10.7243 31.1667 10.7645C31.0823 10.8048 30.998 10.8451 30.9136 10.8854C30.8292 10.9257 30.7449 10.966 30.6605 11.0063C30.6183 11.0465 30.5761 11.0465 30.534 11.0465C30.4074 11.0868 30.2809 11.1674 30.1543 11.2077C30.1122 11.2077 30.07 11.248 29.9856 11.248C29.8591 11.2883 29.7325 11.3286 29.6482 11.3688C29.606 11.3688 29.5638 11.4091 29.5216 11.4091C29.4373 11.4494 29.3107 11.4494 29.2264 11.4897C29.1842 11.4897 29.142 11.4897 29.0998 11.53C29.0155 11.5703 28.9311 11.5703 28.8467 11.6106C28.1297 11.7717 25.177 13.1817 24.0381 13.5443C22.8992 13.8666 22.0978 13.9874 19.356 15.5183C21.5916 16.2435 24.4177 16.7269 26.2315 16.1226C28.9311 15.2766 31.6307 14.3903 33.4023 15.3572C34.7521 16.0823 38.1265 17.1701 40.7417 16.8881C40.8261 16.8881 40.8683 16.8478 40.9526 16.8478C40.9948 16.8478 40.9948 16.8478 41.037 16.8075C41.0792 16.8075 41.1214 16.7672 41.1635 16.7672C42.3024 16.4449 44.074 16.0018 44.3693 14.7126C45.1286 14.5112 45.93 14.1083 46.4783 14.0277C47.3641 13.8666 47.4063 13.8666 48.2078 13.0206C48.3343 12.8997 48.4608 12.8191 48.5874 12.7386C48.8405 12.5774 49.1357 12.4163 49.3888 12.2551C49.431 12.2149 49.4732 12.1746 49.5154 12.1343C49.5575 12.094 49.5997 12.0537 49.6419 12.0134C49.7263 11.9328 49.8106 11.812 49.895 11.6911C49.895 11.6911 49.895 11.6508 49.9372 11.6508C49.9794 11.6106 49.9794 11.53 50.0215 11.4897C50.0215 11.4494 50.0215 11.4494 50.0637 11.4091C50.0637 11.3688 50.1059 11.2883 50.1059 11.248C50.1059 11.2077 50.1059 11.1674 50.1481 11.1674C50.1481 11.1271 50.1903 11.0465 50.1903 10.966C50.1903 10.9257 50.1903 10.8854 50.1903 10.8451C50.1903 10.7645 50.1903 10.684 50.2324 10.6034C50.2324 10.5631 50.2324 10.5228 50.2324 10.4825C50.2324 10.3617 50.2324 10.2408 50.2324 10.0797C50.1903 7.70279 48.5874 6.69563 46.1409 6.77621C45.1707 6.81649 43.9475 7.70279 43.9475 7.70279C43.9475 7.70279 43.2726 8.06537 42.9351 8.2668C42.893 8.30708 42.8508 8.34737 42.8086 8.38766L42.7664 8.42794C42.7242 8.46823 42.7242 8.50852 42.6821 8.5488C42.6821 8.58909 42.6399 8.58909 42.6399 8.62937C42.5977 8.66966 42.5977 8.70995 42.5555 8.75023C42.5555 8.79052 42.5133 8.83081 42.5133 8.83081C42.4712 8.87109 42.4712 8.91138 42.429 8.95166C42.3446 9.1531 42.2181 9.35453 42.1337 9.55596C42.0493 9.67682 42.0072 9.79768 41.9228 9.83796C41.8806 9.87825 41.7541 9.99911 41.6275 10.12C41.1214 9.67682 40.3621 9.03224 39.4763 8.50852C39.4763 8.50852 39.4341 8.46823 39.392 8.46823C39.3498 8.46823 39.3498 8.42794 39.3076 8.42794C39.0123 7.58193 38.3796 6.33306 37.2407 5.80934C35.4269 4.96332 34.963 4.19789 34.035 3.06987C33.107 1.98214 30.6605 0.894411 30.0278 0.733266C29.3951 0.572121 29.0576 -0.435036 27.3282 0.491548C25.641 1.37785 21.5073 4.68132 20.748 5.48705C19.9887 6.29277 19.82 6.41363 19.2295 6.41363C18.639 6.41363 18.428 6.29277 17.711 5.68848C16.9517 5.08418 16.4034 4.88275 16.2768 4.80218C16.1503 4.76189 15.5176 3.87559 15.5176 3.59359C15.5597 3.31159 14.927 2.78787 14.8849 3.79502C14.8427 4.80218 15.3488 5.40647 15.6019 6.05105C15.855 6.69563 15.9394 6.89706 16.783 7.46107H16.8674Z" fill="#656463"/>
</svg>
