<svg width="59" height="58" viewBox="0 0 59 58" fill="none" xmlns="http://www.w3.org/2000/svg">
<path fill-rule="evenodd" clip-rule="evenodd" d="M39.1448 33.3657C39.1448 33.3657 38.8879 34.0968 38.3741 34.828C37.8603 35.5592 36.5757 37.0216 36.3188 37.7528C36.0619 38.2402 36.0619 38.484 35.805 38.7277C35.2912 37.9965 34.7774 36.7779 34.0067 34.5843C33.4929 33.1219 32.7222 32.147 31.9515 31.4158C32.4653 30.9284 32.9791 30.1972 32.9791 29.9535C32.9791 29.466 33.4929 28.7348 34.2636 28.9785C35.0343 28.9785 36.5757 28.9785 37.8603 29.9535C38.8879 30.9284 39.6586 31.1721 39.9155 31.6596C39.4017 32.3907 39.4017 32.8782 39.4017 33.1219L39.1448 33.3657ZM58.6694 52.1328C58.4125 51.8891 58.1556 51.4016 57.6418 51.1579C57.128 50.9141 56.8711 50.4267 56.8711 50.183C56.8711 49.9392 56.6142 49.6955 56.3573 49.208C55.8435 48.7206 55.8435 47.2582 55.3297 45.5521C55.0728 44.5772 54.559 43.846 54.3021 43.1148C53.7883 41.8962 53.2745 41.165 52.7607 40.9213C52.2469 40.4338 51.7331 38.7277 51.2192 37.9965C50.9623 37.2653 50.4485 36.5341 49.164 33.3657C48.3933 31.4158 47.1088 30.4409 46.0812 29.7097C45.8243 29.2223 45.5674 28.7348 45.0536 28.2474C44.5398 27.5162 44.0259 26.5412 43.5121 25.8101C42.9983 25.0789 42.4845 24.5914 42.2276 23.8602C41.7138 23.129 41.4569 22.6416 40.9431 21.9104C40.6862 21.4229 40.1724 20.6918 41.2 19.9606C42.2276 19.2294 42.4845 18.7419 42.7414 18.2545C42.9983 17.767 43.5121 16.7921 43.769 16.3046C44.0259 15.8172 45.3105 14.3548 45.8243 13.1362C46.0812 11.9175 46.595 10.4551 46.595 10.4551C46.595 10.4551 46.8519 9.96768 47.1088 9.96768C47.3657 9.96768 47.8795 9.23649 47.8795 9.23649C47.8795 8.99276 48.3933 8.01785 48.6502 7.77412C48.6502 7.53039 48.9071 7.04293 48.6502 7.04293C48.3933 7.04293 48.3933 6.7992 48.6502 6.55547C48.6502 6.31174 48.6502 6.06802 48.6502 6.06802C48.3933 6.06802 48.3933 5.82429 48.3933 5.82429C48.3933 5.58056 48.1364 5.58056 47.8795 5.58056C47.8795 5.58056 47.6226 5.58056 47.3657 5.82429C47.1088 6.06802 46.8519 6.55547 46.8519 6.7992C46.595 7.04293 46.3381 7.77412 46.3381 7.28666C46.3381 6.7992 46.3381 6.55547 46.3381 6.55547C46.3381 6.31174 46.0812 6.31174 46.0812 6.55547C46.0812 6.7992 46.0812 7.28666 45.8243 7.77412C45.5674 8.26158 45.5674 8.74903 45.8243 8.99276C45.8243 9.23649 45.8243 9.96768 45.5674 10.2114C45.5674 10.2114 45.0536 11.4301 44.0259 12.405C42.9983 13.3799 42.4845 14.3548 42.4845 14.8423C42.4845 15.3297 41.4569 16.3046 40.9431 17.2795C40.4293 18.2545 39.6586 18.2545 39.1448 18.7419C38.3741 19.2294 38.1172 19.4731 37.8603 20.2043C37.3465 20.9355 37.0896 20.9355 36.5757 21.1792C36.5757 20.9355 36.5757 20.9355 36.3188 20.6918C36.0619 20.448 36.0619 20.2043 35.805 20.2043C35.805 19.9606 35.805 19.9606 35.805 19.9606C35.805 19.7168 35.805 19.7168 35.5481 19.7168C35.2912 19.7168 35.2912 19.7168 35.0343 19.4731C35.0343 19.4731 34.7774 19.2294 34.5205 18.7419C34.5205 18.4982 34.2636 18.4982 33.7498 18.2545C33.7498 18.2545 33.7498 18.2545 34.0067 18.2545C34.0067 18.2545 33.7498 18.2545 33.4929 18.0107C33.236 17.767 32.9791 18.0107 32.4653 17.767C32.2084 17.767 31.9515 17.767 31.6946 17.767C31.1808 17.767 30.9239 18.0107 30.667 18.2545C30.4101 18.4982 30.4101 18.4982 29.8963 18.7419C29.6394 18.9857 29.6394 19.2294 29.6394 19.4731C29.6394 19.7168 29.6394 19.7168 29.6394 19.9606C29.6394 20.2043 29.6394 20.448 29.3824 20.6918C29.1255 20.9355 29.3824 21.1792 29.6394 21.4229C29.8963 21.6667 29.8963 21.6667 29.8963 21.9104C29.8963 22.1541 30.1532 22.3979 30.1532 22.6416C30.4101 22.8853 30.667 23.129 30.9239 23.129C31.1808 23.129 31.1808 23.129 31.4377 23.129C31.6946 23.129 31.9515 23.6165 32.2084 23.6165C32.4653 23.6165 32.2084 23.3728 32.4653 23.6165C32.7222 23.6165 32.7222 23.6165 32.7222 23.3728V23.129C32.9791 23.129 33.236 23.129 33.4929 23.6165C33.4929 23.6165 33.4929 23.6165 33.4929 23.8602C33.236 24.104 32.9791 24.3477 32.9791 24.3477C32.7222 24.8351 31.9515 25.8101 31.4377 26.0538C30.9239 26.2975 29.8963 27.2724 29.8963 28.4911C29.8963 28.7348 29.8963 28.7348 29.8963 28.9785C29.6394 28.4911 29.3824 28.0036 29.1255 27.7599C28.3548 26.785 27.841 25.5663 27.5841 24.8351C27.0703 24.104 26.5565 23.3728 26.0427 22.3979C25.5289 21.4229 25.0151 20.6918 24.7582 20.2043C24.5013 19.4731 23.9875 18.7419 25.272 17.767C26.5565 16.7921 26.8134 16.3046 27.3272 15.8172C27.5841 15.086 28.3548 13.8673 28.6117 13.6236C29.1255 13.1362 30.667 11.1863 31.1808 9.96768C31.6946 8.5053 32.2084 6.7992 32.2084 6.7992C32.2084 6.7992 32.4653 6.31174 32.7222 6.06802C33.236 6.06802 33.7498 5.33683 33.7498 5.0931C33.7498 4.84937 34.5205 3.87445 34.5205 3.387C34.5205 3.14327 34.7774 2.65581 34.7774 2.65581C34.5205 2.65581 34.5205 2.41208 34.7774 2.16835C34.7774 1.92462 35.0343 1.68089 34.7774 1.43716C34.5205 1.43716 34.5205 1.19344 34.5205 1.19344C34.5205 0.949707 34.2636 0.949707 34.0067 0.949707C34.0067 1.19344 33.4929 0.705978 33.236 1.19344C32.9791 1.68089 32.7222 2.16835 32.4653 2.41208C32.2084 2.89954 31.9515 3.387 31.6946 2.89954C31.6946 2.41208 31.6946 2.16835 31.6946 1.92462C31.4377 1.68089 31.4377 1.68089 31.1808 1.92462C30.9239 2.16835 30.9239 2.89954 30.667 3.387C30.4101 3.87445 30.4101 4.60564 30.667 4.84937C30.9239 5.33683 30.4101 5.82429 30.4101 6.31174C30.4101 6.31174 29.8963 7.77412 28.6117 8.99276C27.3272 10.2114 26.5565 11.1863 26.5565 11.9175C26.5565 12.6487 25.272 13.6236 24.5013 14.8423C23.9875 16.0609 22.9599 16.0609 22.1891 16.5484C21.4184 17.0358 21.1615 17.5233 20.6477 18.2545C20.1339 19.2294 19.877 19.2294 19.3632 19.4731C19.3632 19.2294 19.3632 18.9857 19.1063 18.9857C18.8494 18.7419 18.8494 18.4982 18.5925 18.2545C18.3356 18.0107 18.5925 18.0107 18.5925 17.767C18.5925 17.5233 18.5925 17.5233 18.0787 17.5233C17.8218 17.5233 17.5649 17.5233 17.5649 17.2795C17.5649 17.2795 17.308 16.7921 17.0511 16.3046C16.7942 16.0609 16.5373 15.8172 16.2804 15.8172C16.2804 15.8172 16.2804 15.8172 16.5373 15.8172C16.5373 15.5734 16.2804 15.5734 16.0235 15.3297C15.7666 15.086 15.5097 15.086 14.9959 15.086C14.482 15.086 14.482 15.086 13.9682 15.086C13.4544 15.086 12.9406 15.3297 12.6837 15.5734C12.4268 15.8172 12.1699 16.0609 11.6561 16.3046C11.1423 16.5484 11.3992 17.0358 11.1423 17.2795C11.1423 17.5233 11.1423 17.5233 11.1423 17.767C11.1423 18.0107 11.1423 18.4982 10.8854 18.4982C10.6285 18.7419 10.6285 18.9857 10.8854 19.2294C11.1423 19.4731 11.1423 19.4731 11.1423 19.7168C11.1423 19.9606 11.3992 20.2043 11.6561 20.448C11.913 20.6918 12.4268 20.9355 12.6837 21.1792C12.9406 21.4229 12.9406 21.1792 13.1975 21.4229C13.4544 21.4229 13.7113 21.9104 13.9682 22.1541C14.482 22.1541 14.2251 21.9104 14.2251 22.1541C14.482 22.1541 14.482 22.1541 14.7389 21.9104C14.7389 21.6667 14.7389 21.6667 14.7389 21.6667C14.9959 21.6667 15.2528 21.9104 15.7666 22.1541C15.7666 22.1541 15.7666 22.1541 15.7666 22.3979C15.5097 22.6416 15.2528 22.8853 15.2528 23.129C14.7389 23.8602 13.9682 24.8351 13.4544 25.0789C12.9406 25.3226 11.6561 26.5412 11.6561 28.0036C11.6561 29.2223 10.1147 30.4409 9.60088 30.9284C9.34398 31.1721 7.54565 32.6345 6.77494 33.8531C6.00423 35.0718 4.97661 36.5341 4.46281 37.0216C3.949 37.5091 2.66448 38.2402 2.15068 38.2402C1.63687 38.484 1.12306 38.9714 0.866159 39.2152C0.609255 39.4589 1.37997 39.2152 1.63687 39.2152C1.89377 39.2152 2.15068 39.4589 2.40758 39.4589C2.66448 39.4589 3.43519 39.2152 3.17829 39.4589C2.92139 39.9463 2.40758 40.1901 2.66448 40.1901C2.66448 40.4338 2.92139 40.4338 3.17829 39.9463C3.43519 39.4589 3.6921 39.4589 3.949 39.4589C4.2059 39.4589 4.97661 38.7277 4.71971 38.484C4.71971 38.2402 4.97661 37.7528 5.49042 37.5091C5.74733 37.2653 8.57326 35.8029 9.34398 34.5843C10.1147 33.6094 11.1423 31.9033 11.913 31.4158C12.6837 30.9284 13.7113 29.7097 13.7113 29.2223C13.9682 28.7348 14.2251 27.7599 15.2528 28.0036C16.0235 28.2474 18.0787 28.2474 19.3632 29.466C20.6477 30.6846 21.4184 31.1721 21.9322 31.6596C21.1615 32.8782 20.6477 33.6094 20.6477 34.0968C20.6477 34.0968 20.3908 35.0718 19.877 35.8029C19.1063 36.5341 17.8218 38.484 17.5649 39.2152C17.308 39.9463 16.7942 40.6775 16.2804 41.165C15.7666 41.6524 14.9959 42.6274 14.7389 43.3585C14.482 44.0897 13.7113 45.0647 13.1975 46.0396C13.1975 46.0396 13.1975 46.2833 12.9406 46.527C12.1699 47.9894 10.6285 50.4267 10.3716 50.9141C9.85778 51.4016 8.83017 52.6202 8.31636 53.1077C7.80255 53.5952 7.03184 53.8389 6.51804 54.3264C6.00423 54.8138 5.74733 54.8138 5.23352 55.0575C4.71971 55.0575 4.71971 55.3013 4.2059 55.3013C3.6921 55.545 3.17829 55.545 3.43519 56.0325C3.949 56.5199 4.97661 56.5199 5.23352 56.2762C5.49042 56.2762 6.00423 56.2762 6.51804 56.2762C7.03184 56.2762 7.54565 55.7887 8.05946 55.7887C8.57326 55.7887 9.60088 56.0325 10.1147 56.0325C10.6285 55.7887 11.1423 55.7887 10.8854 54.8138C10.8854 53.8389 10.8854 53.3514 12.1699 52.3765C13.4544 51.4016 15.7666 49.6955 16.2804 48.2331V47.9894C16.7942 46.7708 16.7942 46.0396 17.5649 45.3084C18.5925 44.5772 20.3908 41.6524 21.1615 41.165C21.9322 40.6775 24.7582 38.2402 25.5289 37.5091C25.5289 37.2653 25.7858 37.2653 25.7858 37.0216C26.5565 37.2653 27.5841 37.0216 28.0979 37.0216C28.6117 37.0216 29.1255 37.9965 30.1532 38.9714C30.667 39.7026 31.1808 41.4087 31.9515 42.3836C31.6946 42.6274 31.6946 42.8711 31.4377 43.1148C31.4377 43.1148 31.4377 43.3585 31.1808 43.3585C30.667 44.5772 29.3824 46.7708 28.8686 47.0145C28.6117 47.5019 27.5841 48.4769 27.0703 48.7206C26.5565 48.9643 26.0427 49.208 25.5289 49.6955C25.0151 50.183 25.0151 50.183 24.5013 50.183C23.9875 50.183 23.9875 50.4267 23.4737 50.4267C22.9599 50.4267 22.4461 50.6704 22.9599 50.9141C23.2168 51.1579 24.2444 51.1579 24.5013 51.1579C24.7582 51.1579 25.272 51.1579 25.5289 51.1579C25.7858 51.1579 26.2996 50.6704 26.8134 50.6704C27.3272 50.6704 28.0979 50.9141 28.6117 50.9141C29.1255 50.9141 29.3824 50.6704 29.3824 49.9392C29.3824 49.208 29.3824 48.7206 30.4101 47.9894C31.4377 47.2582 33.4929 45.7958 34.0067 44.5772C34.2636 45.0647 34.5205 45.5521 34.5205 46.0396C34.7774 46.527 34.7774 47.0145 35.0343 47.2582C35.5481 47.9894 36.0619 48.4769 36.5757 49.208C37.3465 49.9392 37.8603 50.9141 38.3741 51.6453C38.8879 52.3765 39.4017 53.3514 39.4017 53.5952C39.4017 54.0826 39.4017 54.3264 39.6586 54.3264C39.9155 54.5701 39.9155 54.5701 39.9155 55.545C39.9155 56.7636 40.4293 56.5199 40.6862 56.5199C40.9431 56.5199 41.2 57.0074 41.7138 57.2511C42.2276 57.4948 42.9983 57.2511 42.9983 57.2511C43.2552 57.2511 43.2552 57.0074 43.5121 57.0074C43.769 57.0074 43.769 56.7636 43.769 56.7636C43.769 56.5199 43.769 56.5199 44.0259 56.2762C44.0259 56.0325 43.769 56.0325 43.5121 55.545C43.2552 55.3013 42.9983 54.8138 42.4845 54.3264C41.9707 54.0826 41.7138 53.5952 41.7138 53.1077C41.7138 52.864 41.4569 52.6202 40.9431 51.8891C40.4293 51.1579 40.1724 49.4518 39.6586 47.7457C39.1448 46.527 38.8879 45.5521 38.631 44.8209C37.8603 43.3585 37.3465 42.6274 36.8326 42.1399C36.5757 41.8962 36.3188 41.4087 36.0619 40.9213C36.8326 39.9463 37.8603 38.2402 38.3741 37.9965C38.8879 37.5091 41.4569 35.5592 41.9707 34.828C41.9707 34.5843 42.2276 34.5843 42.2276 34.3406C42.7414 34.5843 43.769 34.3406 44.0259 34.3406C44.2828 34.3406 45.0536 35.0718 45.5674 36.0467C46.3381 37.0216 46.8519 38.9714 47.6226 39.4589C48.3933 39.9463 49.164 40.9213 49.4209 42.1399C49.4209 42.6274 49.6778 42.8711 49.9347 43.3585C50.1916 43.846 50.7054 44.5772 51.2192 44.8209C51.7331 45.5521 52.5038 46.2833 52.7607 47.0145C53.2745 47.7457 53.5314 48.4769 53.5314 48.7206C53.5314 48.9643 53.5314 49.208 53.5314 49.4518C53.7883 49.6955 53.7883 49.6955 53.7883 50.4267C53.7883 51.4016 54.3021 51.1579 54.559 51.1579C54.8159 51.1579 54.8159 51.6453 55.3297 51.8891C55.8435 52.1328 56.3573 51.8891 56.3573 51.8891H56.6142C56.6142 51.8891 56.8711 51.8891 56.8711 51.6453C56.8711 51.4016 56.8711 51.4016 57.128 51.4016C57.128 51.1579 57.128 51.1579 56.8711 50.9141L58.6694 52.1328Z" fill="#656463"/>
</svg>
