<svg width="17" height="16" viewBox="0 0 17 16" fill="none" xmlns="http://www.w3.org/2000/svg">
<path d="M8.5 0C6.02839 0 4.01758 1.89253 4.01758 4.21875C4.01758 6.54497 6.02839 8.4375 8.5 8.4375C10.9716 8.4375 12.9824 6.54497 12.9824 4.21875C12.9824 1.89253 10.9716 0 8.5 0ZM8.5 7.5C6.57764 7.5 5.01367 6.02803 5.01367 4.21875C5.01367 2.40947 6.57764 0.9375 8.5 0.9375C10.4224 0.9375 11.9863 2.40947 11.9863 4.21875C11.9863 6.02803 10.4224 7.5 8.5 7.5Z" fill="#808080"/>
<path d="M9.88899 9.40625H7.11098C4.81326 9.40625 2.54565 10.4047 1.0293 12.5456V16H15.9707V12.5456C14.4565 10.4078 12.1896 9.40625 9.88899 9.40625ZM14.9746 15.0625H14.9746H2.02539V12.8324C3.18853 11.2713 5.07848 10.3438 7.11101 10.3438H9.88902C11.9215 10.3438 13.8115 11.2713 14.9746 12.8324V15.0625Z" fill="#808080"/>
</svg>
