<svg width="18" height="18" viewBox="0 0 18 18" fill="none" xmlns="http://www.w3.org/2000/svg">
<g clip-path="url(#clip0)">
<path d="M13.0505 8.75845V3.35173C13.0505 3.20608 12.9325 3.08806 12.7868 3.08806C12.6412 3.08806 12.5231 3.20608 12.5231 3.35173V8.65882C11.8087 8.54326 11.1659 8.35419 10.786 8.22924C10.786 7.38233 10.786 2.32668 10.786 1.39719C10.786 1.15331 10.8844 0.927466 11.063 0.761212C11.6205 0.242411 12.5231 0.643439 12.5231 1.4205V3.43865C12.5231 3.5843 12.5038 3.64866 12.6495 3.64866C12.7951 3.64866 13.0505 3.69055 13.0505 3.54489V1.4205C13.0505 0.187427 11.5993 -0.458147 10.7037 0.375197C10.4208 0.638447 10.2586 1.01096 10.2586 1.39719V5.82368C9.60527 5.30231 8.65925 5.47412 8.21558 6.15777C7.59813 5.38085 6.42025 5.48902 5.92613 6.30215C5.0891 5.32048 3.46516 5.90735 3.46516 7.20788C3.46516 7.32907 3.40625 12.5157 3.40625 12.6487C3.40625 12.7943 3.50388 12.8919 3.64949 12.8919C3.79511 12.8919 3.89274 13.2808 3.89274 13.1351L3.9925 11.0959C4.23143 11.2866 4.5338 11.401 4.86255 11.401C5.32616 11.401 5.73755 11.1738 5.99187 10.8252C6.55343 11.5949 7.69702 11.5925 8.25488 10.819C8.71659 11.4591 9.60165 11.5872 10.2214 11.1235C10.7523 11.3412 11.5247 11.5831 11.6405 11.5831C11.9482 11.5831 12.0047 11.1418 11.7069 11.0642C10.5566 10.7641 9.7704 10.3365 9.73742 10.3184C9.47776 10.176 8.66175 9.6466 9.06224 8.81101C9.28085 8.35485 9.38435 8.3371 10.2993 8.62243C10.3942 8.65207 10.4393 8.66862 10.4357 8.66739C11.7125 9.11251 12.7449 9.22627 12.7413 9.22561C13.5209 9.37129 14.0636 10.0767 14.0037 10.8663C13.9958 10.9385 13.9557 11.8 13.6652 13.256C13.6005 13.5801 13.5358 13.858 13.272 14.3109C13.0798 14.6408 12.8362 14.9419 12.5452 15.2099C12.5008 15.2507 12.183 15.5274 11.5783 15.6736C11.4368 15.7079 11.3498 15.8504 11.384 15.9919C11.4181 16.1328 11.5599 16.2206 11.7023 16.1862C11.7875 16.1656 11.8679 16.1426 11.9441 16.1182V16.7803C11.9442 17.1621 11.6336 17.4727 11.2518 17.4727H10.9172C10.7716 17.4727 10.6536 17.5907 10.6536 17.7364C10.6536 17.882 10.7716 18 10.9172 18H11.2518C11.9243 18 12.4715 17.4529 12.4715 16.7803V15.952C12.4987 15.9306 12.7223 15.7686 12.9127 15.5884C13.5307 15.016 14.031 14.214 14.1701 13.4249C14.23 13.0884 14.4344 12.1625 14.5253 10.9632L14.5296 10.9063C14.6043 9.92114 13.9795 9.03397 13.0505 8.75845ZM4.86262 10.8736C4.38288 10.8736 3.99257 10.4833 3.99257 10.0036V7.20781C3.99257 6.66356 4.4894 6.25051 5.02659 6.35348C5.38638 6.42263 5.67252 6.71418 5.72391 7.09035C5.72543 10.1682 5.72061 9.99619 5.72746 10.0981C5.68014 10.5336 5.31037 10.8736 4.86262 10.8736ZM7.99128 10.0036C7.99125 10.4834 7.60094 10.8737 7.1212 10.8737C6.67338 10.8737 6.30364 10.5336 6.25636 10.0981C6.26075 10.0326 6.26641 7.24444 6.25115 7.0257C6.25115 6.54596 6.64146 6.15566 7.12123 6.15566C7.60098 6.15566 7.99128 6.54596 7.99128 7.0257V10.0036ZM9.60759 10.8455C9.05964 10.9891 8.51859 10.5732 8.51859 10.0036V9.75203C8.66758 10.153 8.99917 10.5382 9.60759 10.8455ZM10.2586 8.05775C10.0444 7.99282 9.78907 7.92018 9.56698 7.90728C9.02501 7.87596 8.70225 8.23314 8.51855 8.74611C8.51855 8.20027 8.51855 7.46653 8.51855 6.91647C8.51855 6.43673 8.90886 6.04643 9.38864 6.04643C9.86838 6.04643 10.2586 6.43673 10.2586 6.91647V8.05775Z" fill="white"/>
<path d="M11.0194 17.4725H5.86633C5.48056 17.4725 5.16675 17.1586 5.16675 16.7729C5.14738 16.6123 5.28308 15.8161 4.71605 15.0588C4.23202 14.4124 3.92146 13.4573 3.89274 12.6485C3.8876 12.503 3.80476 12.5745 3.65943 12.5802C3.51388 12.5853 3.40125 12.5029 3.40642 12.6485C3.43898 13.5653 3.74514 14.6419 4.29393 15.3749C4.74098 15.9719 4.62021 16.6005 4.63944 16.7729C4.63941 17.4494 5.18981 17.9998 5.86633 17.9998L11.19 17.9998C11.3357 17.9998 11.0194 17.8778 11.0194 17.7321C11.0194 17.5865 11.1651 17.4725 11.0194 17.4725Z" fill="white"/>
</g>
<defs>
<clipPath id="clip0">
<rect width="18" height="18" fill="white"/>
</clipPath>
</defs>
</svg>
