<svg width="5" height="7" viewBox="0 0 5 7" fill="none" xmlns="http://www.w3.org/2000/svg">
<path d="M3.68593 6.92987L0.673074 3.66115C0.62998 3.61445 0.608399 3.56072 0.608399 3.49994C0.608399 3.43916 0.62998 3.38534 0.673074 3.33861L3.68593 0.0701625C3.72909 0.0233381 3.77862 -4.3924e-07 3.83466 -4.47005e-07C3.89069 -4.54768e-07 3.94028 0.0234117 3.98335 0.0701625L4.30653 0.420781C4.34962 0.467531 4.37116 0.521333 4.37116 0.582111C4.37116 0.642889 4.34962 0.696691 4.30653 0.743442L1.76567 3.49994L4.30669 6.25654C4.34978 6.30326 4.37118 6.35709 4.37118 6.41777C4.37118 6.47865 4.34964 6.53245 4.30669 6.57917L3.98338 6.92984C3.94031 6.97657 3.89069 6.99978 3.83469 6.99978C3.77862 6.99981 3.72902 6.97659 3.68593 6.92987Z" fill="#C57B48"/>
</svg>
