<svg width="5" height="7" viewBox="0 0 5 7" fill="none" xmlns="http://www.w3.org/2000/svg">
<path d="M1.14219 6.92987L4.15505 3.66115C4.19814 3.61445 4.21973 3.56072 4.21973 3.49994C4.21973 3.43916 4.19815 3.38534 4.15505 3.33861L1.1422 0.0701625C1.09903 0.0233381 1.04951 -4.3924e-07 0.99346 -4.47005e-07C0.937436 -4.54768e-07 0.887842 0.0234117 0.844771 0.0701625L0.521598 0.420781C0.478504 0.467531 0.456968 0.521333 0.456968 0.582111C0.456968 0.642889 0.478504 0.696691 0.521598 0.743442L3.06246 3.49994L0.521439 6.25654C0.478345 6.30326 0.456945 6.35709 0.456945 6.41777C0.456945 6.47865 0.47848 6.53245 0.521439 6.57917L0.844747 6.92984C0.887819 6.97657 0.937435 6.99978 0.993437 6.99978C1.04951 6.99981 1.0991 6.97659 1.14219 6.92987Z" fill="#C57B48"/>
</svg>
