<svg width="50" height="50" viewBox="0 0 50 50" fill="none" xmlns="http://www.w3.org/2000/svg">
<path d="M13.2812 43.75H11.7188V45.3125H13.2812V43.75Z" fill="#656463"/>
<path d="M29.6875 34.375H16.4062V22.6563C16.4062 22.449 16.3239 22.2503 16.1774 22.1038C16.0309 21.9573 15.8322 21.875 15.625 21.875H1.5625C1.3553 21.875 1.15659 21.9573 1.01007 22.1038C0.86356 22.2503 0.78125 22.449 0.78125 22.6563V47.6563C0.78125 47.8635 0.86356 48.0622 1.01007 48.2087C1.15659 48.3552 1.3553 48.4375 1.5625 48.4375H29.6875C29.8947 48.4375 30.0934 48.3552 30.2399 48.2087C30.3864 48.0622 30.4688 47.8635 30.4688 47.6563V35.1563C30.4688 34.9491 30.3864 34.7503 30.2399 34.6038C30.0934 34.4573 29.8947 34.375 29.6875 34.375ZM21.0938 35.9375H24.2188V39.0625H21.0938V35.9375ZM7.03125 23.4375H10.1562V26.5625H7.03125V23.4375ZM2.34375 23.4375H5.46875V27.3438C5.46875 27.551 5.55106 27.7497 5.69757 27.8962C5.84409 28.0427 6.0428 28.125 6.25 28.125H10.9375C11.1447 28.125 11.3434 28.0427 11.4899 27.8962C11.6364 27.7497 11.7188 27.551 11.7188 27.3438V23.4375H14.8438V34.375H2.34375V23.4375ZM7.03125 35.9375H10.1562V39.0625H7.03125V35.9375ZM2.34375 35.9375H5.46875V39.8438C5.46875 40.051 5.55106 40.2497 5.69757 40.3962C5.84409 40.5427 6.0428 40.625 6.25 40.625H10.9375C11.1447 40.625 11.3434 40.5427 11.4899 40.3962C11.6364 40.2497 11.7188 40.051 11.7188 39.8438V35.9375H14.8438V46.875H2.34375V35.9375ZM28.9062 46.875H16.4062V35.9375H19.5312V39.8438C19.5312 40.051 19.6136 40.2497 19.7601 40.3962C19.9066 40.5427 20.1053 40.625 20.3125 40.625H25C25.2072 40.625 25.4059 40.5427 25.5524 40.3962C25.6989 40.2497 25.7812 40.051 25.7812 39.8438V35.9375H28.9062V46.875Z" fill="#656463"/>
<path d="M27.3438 43.75H25.7812V45.3125H27.3438V43.75Z" fill="#656463"/>
<path d="M13.2812 31.25H11.7188V32.8125H13.2812V31.25Z" fill="#656463"/>
<path d="M46.6938 10.9157C46.7538 10.9302 46.8153 10.9376 46.8771 10.9375C47.014 10.9374 47.1485 10.9014 47.2671 10.8332C47.3858 10.7649 47.4845 10.6668 47.5534 10.5485C47.6244 10.4236 47.6606 10.2819 47.6583 10.1383V7.03128C47.6583 6.85597 47.5993 6.68576 47.4909 6.54802C47.3824 6.41029 47.2308 6.31303 47.0604 6.2719L24.4041 0.803151C24.2837 0.77395 24.158 0.77395 24.0375 0.803151L1.38126 6.2719C1.21084 6.31303 1.05922 6.41029 0.95076 6.54802C0.842305 6.68576 0.783326 6.85597 0.783311 7.03128V10.1341C0.780641 10.2977 0.827407 10.4583 0.917491 10.5948C1.00689 10.7263 1.1342 10.8274 1.28249 10.8847C1.43078 10.942 1.593 10.9528 1.74757 10.9157L3.12706 10.5827V20.3125H4.68956V10.2056L24.2208 5.49114L43.7521 10.2056V46.875H39.0646V16.4063C39.0646 16.1991 38.9823 16.0004 38.8357 15.8538C38.6892 15.7073 38.4905 15.625 38.2833 15.625H10.1583C9.95111 15.625 9.7524 15.7073 9.60588 15.8538C9.45937 16.0004 9.37706 16.1991 9.37706 16.4063V19.5313C9.37706 19.7385 9.45937 19.9372 9.60588 20.0837C9.7524 20.2302 9.95111 20.3125 10.1583 20.3125H37.5021V21.875H17.9708V23.4375H37.5021V25H17.9708V26.5625H37.5021V28.125H17.9708V29.6875H37.5021V46.875H32.0333V48.4375H47.6583V46.875H45.3146V10.5827L46.6938 10.9157ZM10.9396 18.75V17.1875H37.5021V18.75H10.9396ZM24.2208 3.90628C24.1591 3.90624 24.0975 3.91359 24.0375 3.92815L2.34581 9.16399V7.64651L24.2208 2.36624L46.0958 7.64651V9.16409L24.4041 3.92815C24.3441 3.91359 24.2826 3.90624 24.2208 3.90628Z" fill="#656463"/>
<path d="M25.7812 13.2812C26.4029 13.2812 26.999 13.0343 27.4385 12.5948C27.8781 12.1552 28.125 11.5591 28.125 10.9375C28.125 10.3159 27.8781 9.71976 27.4385 9.28022C26.999 8.84068 26.4029 8.59375 25.7812 8.59375H22.6562C22.0346 8.59375 21.4385 8.84068 20.999 9.28022C20.5594 9.71976 20.3125 10.3159 20.3125 10.9375C20.3125 11.5591 20.5594 12.1552 20.999 12.5948C21.4385 13.0343 22.0346 13.2812 22.6562 13.2812H25.7812ZM21.875 10.9375C21.8752 10.7304 21.9576 10.5318 22.1041 10.3853C22.2505 10.2389 22.4491 10.1565 22.6562 10.1562H25.7812C25.9885 10.1562 26.1872 10.2386 26.3337 10.3851C26.4802 10.5316 26.5625 10.7303 26.5625 10.9375C26.5625 11.1447 26.4802 11.3434 26.3337 11.4899C26.1872 11.6364 25.9885 11.7187 25.7812 11.7187H22.6562C22.4491 11.7185 22.2505 11.6361 22.1041 11.4897C21.9576 11.3432 21.8752 11.1446 21.875 10.9375Z" fill="#656463"/>
</svg>
