<svg width="16" height="16" viewBox="0 0 16 16" fill="none" xmlns="http://www.w3.org/2000/svg">
<path d="M7.99951 3.91223C7.69127 3.91223 7.44141 4.16018 7.44141 4.46599V5.13054C7.44141 5.43638 7.6913 5.6843 7.99951 5.6843C8.30772 5.6843 8.55762 5.43635 8.55762 5.13054V4.46599C8.55762 4.16018 8.30775 3.91223 7.99951 3.91223Z" fill="#808080"/>
<path d="M7.99951 6.31146C7.69127 6.31146 7.44141 6.55934 7.44141 6.86506V11.4047C7.44141 11.7104 7.6913 11.9583 7.99951 11.9583C8.30772 11.9583 8.55762 11.7104 8.55762 11.4047V6.86509C8.55762 6.55934 8.30775 6.31146 7.99951 6.31146Z" fill="#808080"/>
<path d="M8 0.000244141C3.57847 0.000244141 0 3.54922 0 7.93535C0 12.321 3.578 15.8705 8 15.8705C12.4215 15.8705 16 12.3215 16 7.93535C16 3.54969 12.422 0.000244141 8 0.000244141ZM8 14.7632C4.20431 14.7632 1.11628 11.7003 1.11628 7.93535C1.11628 4.17045 4.20431 1.10747 8 1.10747C11.7957 1.10747 14.8837 4.17045 14.8837 7.93535C14.8837 11.7003 11.7957 14.7632 8 14.7632Z" fill="#808080"/>
</svg>
