<svg width="19" height="16" viewBox="0 0 19 16" fill="none" xmlns="http://www.w3.org/2000/svg">
<path d="M13.6126 0.3562C12.0277 0.347782 10.5209 1.0396 9.49998 2.24454C8.48543 1.03137 6.97448 0.337579 5.38731 0.3562C2.41197 0.3562 0 2.75339 0 5.71051C0 10.778 8.89872 15.726 9.25949 15.9172C9.40505 16.0139 9.5949 16.0139 9.74051 15.9172C10.1013 15.726 19 10.8497 19 5.71051C19 2.75339 16.588 0.3562 13.6126 0.3562ZM9.49998 14.9611C8.10504 14.1484 0.962027 9.8219 0.962027 5.71051C0.962027 3.28147 2.9433 1.31229 5.38736 1.31229C6.88403 1.29275 8.28467 2.04304 9.09115 3.29625C9.25489 3.52066 9.57073 3.57067 9.79653 3.40788C9.83967 3.37677 9.8776 3.33912 9.90885 3.29625C11.2464 1.26324 13.9889 0.6928 16.0345 2.02213C17.2867 2.83593 18.0404 4.22346 18.0379 5.71046C18.038 9.86967 10.8949 14.1723 9.49998 14.9611Z" fill="#C57B48"/>
</svg>
