<svg width="25" height="23" viewBox="0 0 25 23" fill="none" xmlns="http://www.w3.org/2000/svg">
<path d="M21.3486 1.59707C20.3364 1.03944 19.1755 0.71875 17.9368 0.71875C15.7515 0.71875 13.7944 1.71461 12.5021 3.27619C11.2037 1.71461 9.24851 0.71875 7.06017 0.71875C5.82454 0.71875 4.66571 1.03944 3.65125 1.59707C1.4747 2.80246 0 5.11998 0 7.78333C0 8.5458 0.124074 9.27705 0.3488 9.96116C1.56073 15.4088 12.5021 22.2793 12.5021 22.2793C12.5021 22.2793 23.4363 15.4089 24.6499 9.96116C24.8746 9.27705 25 8.54481 25 7.78333C25 5.12098 23.5253 2.80417 21.3486 1.59707Z" fill="#C57B48"/>
</svg>
