<svg width="12" height="7" viewBox="0 0 12 7" fill="none" xmlns="http://www.w3.org/2000/svg">
<path d="M0.119862 1.39163L5.72355 6.88214C5.80361 6.96067 5.89572 7 5.99992 7C6.10411 7 6.19639 6.96067 6.27649 6.88214L11.8797 1.39163C11.96 1.31297 12 1.22272 12 1.12058C12 1.01848 11.9599 0.928107 11.8797 0.849615L11.2786 0.260678C11.1985 0.182145 11.1063 0.142899 11.0021 0.142899C10.8979 0.142899 10.8056 0.182145 10.7255 0.260678L5.99992 4.89104L1.27418 0.260389C1.19407 0.181856 1.10179 0.142858 0.997768 0.142858C0.893405 0.142858 0.801171 0.182103 0.721066 0.260389L0.119905 0.849573C0.0398002 0.928065 5.22921e-07 1.01848 5.13999e-07 1.12054C-4.14566e-05 1.22272 0.0397573 1.3131 0.119862 1.39163Z" fill="#656463"/>
</svg>
