<svg width="61" height="64" viewBox="0 0 61 64" fill="none" xmlns="http://www.w3.org/2000/svg">
<path d="M20.9041 26.6154L20.9041 26.6154L34.3814 42.6648C34.3814 42.6648 34.3814 42.6648 34.3814 42.6648C35.7847 44.334 38.3776 44.6532 40.1581 43.3745L44.1022 40.5417C46.5263 38.8007 50.0514 39.2341 51.9628 41.5082L58.8042 49.6482C60.7184 51.9257 60.3002 55.1996 57.8723 56.9433L54.7169 59.2095C46.0371 65.4434 33.4779 63.8988 26.6351 55.7569L26.6927 55.7086L26.6351 55.7569L5.27983 30.3346C-1.54964 22.2088 -0.058299 10.5339 8.60423 4.31249L8.60449 4.3123L11.7631 2.06438C11.7631 2.06435 11.7632 2.06433 11.7632 2.0643C14.1811 0.327875 17.7059 0.761328 19.6172 3.0352L20.9041 26.6154ZM20.9041 26.6154C19.4998 24.9446 19.8042 22.5599 21.5855 21.2806L25.5297 18.4478C27.9468 16.712 28.394 13.4517 26.4597 11.1506L26.4597 11.1505L19.6173 3.03529L20.9041 26.6154ZM14.1245 4.90377L14.1243 4.90396L12.7531 5.8797L21.7723 16.6108L23.162 15.6128C23.9258 15.0642 24.0562 14.0432 23.4541 13.3267L14.1245 4.90377ZM14.1245 4.90377C14.8899 4.35404 16.006 4.49104 16.6116 5.21138L16.6117 5.21146L23.4541 13.3267L14.1245 4.90377ZM8.28772 28.1607L8.2877 28.1607C3.0684 21.9507 3.82361 13.3133 9.77987 8.09461L18.7718 18.7933C15.7204 21.3379 15.2974 25.6971 17.896 28.789C17.896 28.789 17.896 28.789 17.896 28.789L31.3728 44.8377L31.3728 44.8377L31.373 44.8379L31.3731 44.8379L31.3733 44.8382L31.3733 44.8382C31.3734 44.8383 31.3734 44.8384 31.3735 44.8385C33.9694 47.9269 38.6389 48.6284 42.0608 46.5169L51.0517 57.2144C44.1265 61.2498 34.8981 59.8359 29.6431 53.5833L8.28772 28.1607ZM55.5048 54.1084L54.115 55.1065L45.0897 44.368L46.4699 43.3766C47.2355 42.8269 48.3516 42.964 48.9553 43.6822L55.7967 51.8222C56.3975 52.537 56.2666 53.5614 55.5048 54.1084Z" fill="white" stroke="white" stroke-width="0.15"/>
</svg>
