<svg width="12" height="8" viewBox="0 0 12 8" fill="none" xmlns="http://www.w3.org/2000/svg">
<path d="M0.119897 1.77448L5.72357 7.37776C5.80363 7.45791 5.89574 7.49805 5.99993 7.49805C6.10413 7.49805 6.1964 7.45791 6.27651 7.37776L11.8797 1.77448C11.96 1.6942 12 1.6021 12 1.49786C12 1.39367 11.9599 1.30143 11.8797 1.22133L11.2786 0.620295C11.1985 0.540148 11.1063 0.500096 11.0021 0.500096C10.8979 0.500096 10.8056 0.540148 10.7255 0.620294L5.99993 5.34576L1.27421 0.619998C1.1941 0.539852 1.10183 0.500053 0.997801 0.500053C0.893438 0.500053 0.801204 0.540105 0.7211 0.619998L0.11994 1.22129C0.0398355 1.30139 3.58196e-05 1.39366 3.58105e-05 1.49782C-6.16028e-06 1.6021 0.0397935 1.69433 0.119897 1.77448Z" fill="white"/>
</svg>
