<svg width="20" height="19" viewBox="0 0 20 19" fill="none" xmlns="http://www.w3.org/2000/svg">
<path d="M5.17865 1.84452L5.17838 1.84471L4.83654 2.08798L7.32854 5.053L7.68269 4.79868C7.68269 4.79868 7.68269 4.79868 7.68269 4.79868C7.87411 4.66117 7.90656 4.40725 7.75572 4.22767L5.17865 1.84452ZM5.17865 1.84452C5.37312 1.70485 5.65848 1.7398 5.81249 1.92297L5.81256 1.92305L7.75564 4.22758L5.17865 1.84452ZM15.5517 16.642L13.0691 13.6882C12.0788 14.2721 10.749 14.0622 10.0046 13.1764M15.5517 16.642L10.0622 13.128M15.5517 16.642C13.6136 17.7356 11.0568 17.3292 9.59566 15.5906L3.53107 8.37102L3.53106 8.371C2.0797 6.64416 2.27608 4.25013 3.9078 2.78391L6.39178 5.73938C5.53978 6.48559 5.432 7.73195 6.17721 8.61864C6.17722 8.61865 6.17722 8.61865 6.17723 8.61866L10.004 13.1757L15.5517 16.642ZM10.0046 13.1764L10.0622 13.128M10.0046 13.1764L10.0048 13.1766L10.0622 13.128M10.0046 13.1764L10.0044 13.1762L10.062 13.1279L10.0622 13.128M15.9341 12.1615L15.8766 12.2098L15.9341 12.1615C15.3733 11.4942 14.3407 11.3673 13.6294 11.8781L12.5093 12.6826C12.0266 13.0293 11.3218 12.9425 10.9413 12.4899L7.11394 7.93218L7.11392 7.93215C6.73521 7.48155 6.81705 6.84031 7.29746 6.49528L8.41755 5.69083C9.12918 5.17976 9.2612 4.21796 8.69165 3.54037L8.69157 3.54028L6.74848 1.23575C6.18774 0.568603 5.15521 0.441539 4.44568 0.951039C4.44564 0.951066 4.4456 0.951093 4.44556 0.95112L3.54876 1.58936L3.54849 1.58955C1.06301 3.37461 0.634892 6.72609 2.59443 9.05758L8.65899 16.2771L8.65901 16.2772C10.6203 18.6107 14.2185 19.0533 16.7063 17.2665L17.6024 16.623C18.3173 16.1095 18.4407 15.1438 17.877 14.4731L15.9341 12.1615ZM16.8676 15.7308L16.9112 15.7916L16.8676 15.7309L16.5134 15.9852L14.0195 13.0179L14.3643 12.7702C14.5588 12.6305 14.8442 12.6656 14.9976 12.8481L16.9405 15.1597C17.091 15.3389 17.0584 15.5938 16.8676 15.7308Z" fill="#808080" stroke="#808080" stroke-width="0.15"/>
</svg>
