<svg width="21" height="37" viewBox="0 0 21 37" fill="none" xmlns="http://www.w3.org/2000/svg">
<path d="M1.24784 16.4898L12.7928 0.980469H20.8357L20.5025 2.1215C20.3849 2.53403 20.202 2.8939 19.9733 3.20987L8.40219 18.7543L19.9864 34.325C20.1432 34.5357 20.2738 34.7726 20.3849 35.0272L20.8945 36.2648H12.5968L1.24784 21.0188C0.797016 20.4132 0.555271 19.6057 0.555271 18.7543C0.548738 17.9029 0.797016 17.0954 1.24784 16.4898ZM2.12335 19.8426L13.1064 34.5971H18.4313L6.6381 18.7543L18.6339 2.64813H13.309L2.12988 17.6659C1.91427 17.9556 1.79667 18.3417 1.79667 18.7543C1.79667 19.1668 1.91427 19.553 2.12335 19.8426Z" fill="#C57B48"/>
</svg>