<svg width="18" height="18" viewBox="0 0 18 18" fill="none" xmlns="http://www.w3.org/2000/svg">
<g clip-path="url(#clip0)">
<path d="M14.2711 6.38579C12.745 4.70022 11.838 3.2164 11.3459 2.26842C10.8128 1.24162 10.6382 0.604905 10.6368 0.599838L10.4782 0L9.91152 0.25275C9.84529 0.282273 8.27967 0.996259 7.40241 2.75073C6.96205 3.63151 6.87397 4.61214 6.87767 5.27965C6.87981 5.66811 6.60458 6.00542 6.22325 6.08167C5.9559 6.13508 5.68088 6.05197 5.48791 5.859L4.43239 4.80349L4.0693 5.30417C4.03161 5.35614 3.14426 6.57992 2.98271 6.82444C2.19385 8.01859 1.78251 9.40965 1.79317 10.8472C1.80746 12.7672 2.56251 14.566 3.91922 15.9124C5.27587 17.2586 7.08045 18 9.00055 18C12.9748 18 16.208 14.7667 16.208 10.7925C16.2081 9.35152 15.5021 7.74536 14.2711 6.38579ZM9.00059 16.9444C7.36089 16.9444 5.82039 16.3118 4.66284 15.1631C3.50524 14.0143 2.86104 12.4788 2.84883 10.8394C2.83968 9.61212 3.19056 8.42497 3.86352 7.40633C3.94568 7.28198 4.27528 6.82215 4.56139 6.42534L4.74152 6.60547C5.18459 7.04855 5.81578 7.23972 6.43037 7.11681C7.30611 6.94165 7.93821 6.16661 7.93332 5.27387C7.93026 4.7214 7.99951 3.91712 8.34663 3.22281C8.76916 2.37778 9.40081 1.82552 9.83973 1.5184C10.2367 2.52814 11.243 4.61422 13.4886 7.09436C13.9889 7.64687 15.1525 9.11327 15.1525 10.7925C15.1525 14.1846 12.3927 16.9444 9.00059 16.9444Z" fill="#808080"/>
<path d="M10.0695 8.95526L6.75977 13.8021H7.92992L11.2396 8.95526H10.0695Z" fill="#808080"/>
<path d="M10.7762 11.171C10.0422 11.171 9.48828 11.6626 9.48828 12.5212C9.48828 13.3867 10.0422 13.8714 10.7762 13.8714C11.5102 13.8714 12.0641 13.3867 12.0641 12.5212C12.0641 11.6626 11.5101 11.171 10.7762 11.171ZM10.7762 13.1236C10.6238 13.1236 10.4715 12.9851 10.4715 12.5212C10.4715 12.0573 10.6238 11.9188 10.7762 11.9188C10.9285 11.9188 11.0808 12.0573 11.0808 12.5212C11.0808 12.9851 10.9285 13.1236 10.7762 13.1236Z" fill="#808080"/>
<path d="M8.51328 10.2362C8.51328 9.37765 7.95936 8.88605 7.22539 8.88605C6.49142 8.88605 5.9375 9.37765 5.9375 10.2362C5.9375 11.1017 6.49142 11.5864 7.22539 11.5864C7.95936 11.5864 8.51328 11.1017 8.51328 10.2362ZM6.92074 10.2362C6.92074 9.77231 7.07306 9.63382 7.22539 9.63382C7.37772 9.63382 7.53004 9.77231 7.53004 10.2362C7.53004 10.7001 7.37772 10.8386 7.22539 10.8386C7.07306 10.8386 6.92074 10.7001 6.92074 10.2362Z" fill="#808080"/>
</g>
<defs>
<clipPath id="clip0">
<rect width="18" height="18" fill="white"/>
</clipPath>
</defs>
</svg>
