<svg width="7" height="5" viewBox="0 0 7 5" fill="none" xmlns="http://www.w3.org/2000/svg">
<path d="M6.92987 1.66134L3.66115 4.92984C3.61445 4.97659 3.56072 5 3.49994 5C3.43916 5 3.38534 4.97659 3.33861 4.92984L0.0701626 1.66134C0.0233382 1.61452 -3.00665e-07 1.56079 -3.05981e-07 1.49999C-3.11294e-07 1.43921 0.0234119 1.38541 0.0701626 1.33868L0.420781 0.988089C0.467531 0.941338 0.521333 0.917975 0.582111 0.917975C0.64289 0.917975 0.696691 0.941338 0.743442 0.988089L3.49994 3.74454L6.25654 0.987916C6.30326 0.941165 6.35709 0.91795 6.41777 0.91795C6.47865 0.91795 6.53245 0.941313 6.57918 0.987916L6.92984 1.33866C6.97657 1.38538 6.99978 1.43921 6.99978 1.49996C6.99981 1.56079 6.97659 1.61459 6.92987 1.66134Z" fill="#C57B48"/>
</svg>
