<svg width="7" height="5" viewBox="0 0 7 5" fill="none" xmlns="http://www.w3.org/2000/svg">
<path d="M0.070133 3.33866L3.33885 0.0701633C3.38555 0.0234126 3.43928 3.11288e-07 3.50006 3.05975e-07C3.56084 3.00661e-07 3.61466 0.0234126 3.66139 0.0701632L6.92984 3.33866C6.97666 3.38548 7 3.43921 7 3.50001C7 3.56079 6.97659 3.61459 6.92984 3.66132L6.57922 4.01191C6.53247 4.05866 6.47867 4.08203 6.41789 4.08203C6.35711 4.08203 6.30331 4.05866 6.25656 4.01191L3.50006 1.25546L0.743461 4.01208C0.696735 4.05883 0.642909 4.08205 0.582229 4.08205C0.521353 4.08205 0.467551 4.05869 0.420825 4.01208L0.0701578 3.66134C0.0234316 3.61462 0.000215842 3.56079 0.000215836 3.50004C0.000191036 3.43921 0.0234068 3.38541 0.070133 3.33866Z" fill="#C57B48"/>
</svg>
