<svg width="20" height="12" viewBox="0 0 20 12" fill="none" xmlns="http://www.w3.org/2000/svg">
<path d="M0.19983 2.2925L9.53928 11.6313C9.67272 11.7649 9.82623 11.8318 9.99989 11.8318C10.1735 11.8318 10.3273 11.7649 10.4608 11.6313L19.7995 2.2925C19.9333 2.15872 20 2.0052 20 1.83148C20 1.65782 19.9331 1.5041 19.7995 1.37059L18.7977 0.368867C18.6642 0.23529 18.5104 0.168536 18.3368 0.168536C18.1631 0.168536 18.0094 0.23529 17.8758 0.368867L9.99989 8.24465L2.12368 0.368374C1.99017 0.234797 1.83638 0.168465 1.663 0.168465C1.48906 0.168465 1.33534 0.235218 1.20183 0.368374L0.199901 1.37052C0.0663938 1.50403 6.00172e-05 1.65782 6.00021e-05 1.8314C-1.0585e-05 2.0052 0.0663232 2.15892 0.19983 2.2925Z" fill="#656463"/>
</svg>
