<svg width="8" height="8" viewBox="0 0 8 8" fill="none" xmlns="http://www.w3.org/2000/svg">
<g clip-path="url(#clip0)">
<path d="M0.0799311 2.51699L3.81571 6.25251C3.86909 6.30594 3.93049 6.3327 3.99996 6.3327C4.06942 6.3327 4.13094 6.30594 4.18434 6.25251L7.91981 2.51699C7.97333 2.46347 8 2.40207 8 2.33258C8 2.26312 7.97324 2.20163 7.91981 2.14822L7.51909 1.74753C7.46566 1.6941 7.40417 1.6674 7.33471 1.6674C7.26525 1.6674 7.20376 1.6941 7.15033 1.74753L3.99996 4.89785L0.849471 1.74734C0.796068 1.69391 0.734551 1.66737 0.6652 1.66737C0.595625 1.66737 0.534136 1.69407 0.480733 1.74734L0.0799598 2.1482C0.0265569 2.2016 2.3244e-05 2.26311 2.32379e-05 2.33255C-4.42474e-06 2.40207 0.0265282 2.46356 0.0799311 2.51699Z" fill="#656463"/>
</g>
<defs>
<clipPath id="clip0">
<rect width="8" height="8" fill="white" transform="translate(8 8) rotate(-180)"/>
</clipPath>
</defs>
</svg>
