<svg width="22" height="22" viewBox="0 0 22 22" fill="none" xmlns="http://www.w3.org/2000/svg">
<path d="M22 1.68358V7.62171C22 7.8242 21.8358 7.98837 21.6333 7.98837C21.4308 7.98837 21.2667 7.8242 21.2667 7.62171V1.68358C21.2667 1.48109 21.4308 1.31692 21.6333 1.31692C21.8358 1.31692 22 1.48109 22 1.68358ZM11 5.08836C13.1221 5.08836 14.8724 3.46591 15.0755 1.3963L17.3514 1.62391C17.5526 1.64385 17.7325 1.49704 17.7527 1.29551C17.7728 1.09403 17.6258 0.914364 17.4243 0.894197L14.765 0.628272C14.5486 0.606822 14.3618 0.77691 14.3618 0.993106C14.3618 2.84688 12.8537 4.35503 10.9999 4.35503C9.14613 4.35503 7.63799 2.84688 7.63799 0.993106C7.63799 0.790614 7.47381 0.626439 7.27132 0.626439C7.06883 0.626439 6.90465 0.790614 6.90465 0.993106C6.90475 3.25122 8.74188 5.08836 11 5.08836ZM4.0738 18.4872C4.0738 18.6897 4.23798 18.8539 4.44047 18.8539H17.5595C17.762 18.8539 17.9261 18.6897 17.9261 18.4872V7.62171C17.9261 7.41921 17.762 7.25504 17.5595 7.25504C17.357 7.25504 17.1928 7.41921 17.1928 7.62171V18.1205H4.80714V7.62171C4.80714 7.41921 4.64296 7.25504 4.44047 7.25504H0.733333V2.01542L4.88991 1.5998C5.0914 1.57963 5.23843 1.39997 5.21831 1.19848C5.19814 0.997001 5.01834 0.850014 4.81699 0.870089L0.330183 1.31875C0.142725 1.3375 0 1.49521 0 1.68358V7.62171C0 7.8242 0.164175 7.98837 0.366667 7.98837H4.0738V18.4872ZM21.5717 20.7712C21.5378 20.6595 21.5381 20.6764 20.8384 19.9767C20.6953 19.8335 20.4631 19.8335 20.3199 19.9767C20.1891 20.1075 20.1591 20.3344 20.3357 20.511H3.52917C3.32668 20.511 3.1625 20.6752 3.1625 20.8777C3.1625 21.0802 3.32668 21.2443 3.52917 21.2443H20.3357C20.1619 21.4181 20.1866 21.6453 20.3199 21.7786C20.4632 21.9218 20.6953 21.9218 20.8384 21.7786C21.2625 21.3546 21.4863 21.1341 21.5137 21.0977C21.5839 21.0042 21.6055 20.8832 21.5717 20.7712ZM2.13845 19.9767C1.99526 19.8335 1.76312 19.8335 1.61993 19.9767L0.978267 20.6184C0.835038 20.7616 0.835038 20.9937 0.978267 21.1369L1.61993 21.7786C1.69153 21.8502 1.78535 21.886 1.87921 21.886C2.20289 21.886 2.37018 21.4917 2.13849 21.26L1.7561 20.8776L2.13849 20.4952C2.28163 20.3521 2.28163 20.1199 2.13845 19.9767ZM19.3875 1.36701V16.1568C19.3875 16.3593 19.5517 16.5235 19.7542 16.5235C19.9567 16.5235 20.1208 16.3593 20.1208 16.1568V1.36701C20.1973 1.44351 20.2807 1.49017 20.3958 1.49017C20.7195 1.49017 20.8868 1.09591 20.6551 0.864222C20.6336 0.842726 20.01 0.217468 19.9865 0.198218C19.9127 0.137443 19.8154 0.107376 19.7181 0.117001C19.5516 0.13318 19.5382 0.179289 18.8533 0.864222C18.71 1.00741 18.71 1.23955 18.8533 1.38273C18.984 1.51354 19.211 1.54356 19.3875 1.36701ZM19.4949 18.7077C19.6381 18.851 19.8702 18.8509 20.0134 18.7077L20.6551 18.0661C20.7983 17.9229 20.7983 17.6907 20.6551 17.5476C20.5119 17.4044 20.2797 17.4044 20.1366 17.5476L19.7542 17.9299L19.3718 17.5475C19.2286 17.4043 18.9965 17.4043 18.8533 17.5475C18.71 17.6907 18.71 17.9228 18.8533 18.066L19.4949 18.7077Z" fill="#C57B48"/>
</svg>
