<svg width="34" height="34" viewBox="0 0 34 34" fill="none" xmlns="http://www.w3.org/2000/svg">
<g clip-path="url(#clip0)">
<path d="M33.899 2.59435V11.7442C33.899 12.0562 33.646 12.3092 33.334 12.3092C33.022 12.3092 32.769 12.0562 32.769 11.7442V2.59435C32.769 2.28234 33.022 2.02936 33.334 2.02936C33.646 2.02936 33.899 2.28234 33.899 2.59435ZM16.9495 7.84064C20.2193 7.84064 22.9163 5.34066 23.2294 2.15168L26.7361 2.5024C27.0462 2.53312 27.3234 2.30691 27.3544 1.99638C27.3854 1.68593 27.159 1.40908 26.8484 1.37801L22.7508 0.968255C22.4173 0.935204 22.1296 1.19729 22.1296 1.53041C22.1296 4.38683 19.8058 6.71068 16.9494 6.71068C14.0929 6.71068 11.7691 4.38683 11.7691 1.53041C11.7691 1.2184 11.5161 0.96543 11.2041 0.96543C10.8921 0.96543 10.6391 1.2184 10.6391 1.53041C10.6393 5.00986 13.47 7.84064 16.9495 7.84064ZM6.27718 28.4864C6.27718 28.7984 6.53015 29.0514 6.84216 29.0514H27.0568C27.3688 29.0514 27.6217 28.7984 27.6217 28.4864V11.7442C27.6217 11.4322 27.3688 11.1792 27.0568 11.1792C26.7448 11.1792 26.4918 11.4322 26.4918 11.7442V27.9214H7.40714V11.7442C7.40714 11.4322 7.15417 11.1792 6.84216 11.1792H1.12997V3.10566L7.53469 2.46525C7.84515 2.43418 8.0717 2.15733 8.0407 1.84688C8.00963 1.53642 7.73257 1.30993 7.42233 1.34086L0.508767 2.03219C0.21992 2.06107 0 2.30409 0 2.59435V11.7442C0 12.0562 0.252971 12.3092 0.564983 12.3092H6.27718V28.4864ZM33.239 32.0058C33.1868 31.8336 33.1873 31.8597 32.1092 30.7816C31.8886 30.5609 31.5309 30.5609 31.3102 30.7816C31.1087 30.9831 31.0624 31.3327 31.3345 31.6048H5.43796C5.12595 31.6048 4.87298 31.8578 4.87298 32.1698C4.87298 32.4818 5.12595 32.7348 5.43796 32.7348H31.3345C31.0667 33.0026 31.1048 33.3526 31.3102 33.558C31.5309 33.7787 31.8886 33.7787 32.1092 33.558C32.7626 32.9046 33.1074 32.5649 33.1496 32.5089C33.2579 32.3647 33.2911 32.1783 33.239 32.0058ZM3.29505 30.7816C3.07443 30.5609 2.71672 30.5609 2.4961 30.7816L1.50738 31.7703C1.28668 31.9909 1.28668 32.3486 1.50738 32.5693L2.4961 33.558C2.60641 33.6683 2.75097 33.7234 2.89561 33.7234C3.39435 33.7234 3.65212 33.1159 3.29512 32.7589L2.70592 32.1697L3.29512 31.5805C3.51568 31.3599 3.51568 31.0022 3.29505 30.7816ZM29.8735 2.10656V24.8957C29.8735 25.2077 30.1265 25.4606 30.4385 25.4606C30.7505 25.4606 31.0035 25.2077 31.0035 24.8957V2.10656C31.1213 2.22443 31.2498 2.29632 31.4272 2.29632C31.9259 2.29632 32.1837 1.68882 31.8267 1.33182C31.7936 1.2987 30.8327 0.335262 30.7965 0.305601C30.6827 0.211955 30.5329 0.165626 30.383 0.180457C30.1264 0.205387 30.1058 0.276433 29.0503 1.33182C28.8296 1.55245 28.8296 1.91015 29.0503 2.13078C29.2518 2.33234 29.6014 2.3786 29.8735 2.10656ZM30.039 28.8262C30.2597 29.0469 30.6173 29.0469 30.8379 28.8262L31.8266 27.8375C32.0473 27.6169 32.0473 27.2592 31.8266 27.0386C31.606 26.8179 31.2483 26.8179 31.0277 27.0386L30.4385 27.6277L29.8493 27.0385C29.6286 26.8179 29.2709 26.8179 29.0503 27.0385C28.8296 27.2591 28.8296 27.6168 29.0503 27.8374L30.039 28.8262Z" fill="#656463"/>
</g>
<defs>
<clipPath id="clip0">
<rect width="33.899" height="33.899" fill="white"/>
</clipPath>
</defs>
</svg>
