<svg width="6" height="4" viewBox="0 0 6 4" fill="none" xmlns="http://www.w3.org/2000/svg">
<path d="M0.0599492 0.888215L2.86179 3.68986C2.90182 3.72993 2.94787 3.75 2.99997 3.75C3.05206 3.75 3.0982 3.72993 3.13825 3.68986L5.93986 0.888215C5.98 0.848079 6 0.802025 6 0.749907C6 0.69781 5.97993 0.651693 5.93986 0.611641L5.63932 0.311124C5.59925 0.271051 5.55313 0.251025 5.50103 0.251025C5.44894 0.251025 5.40282 0.271051 5.36275 0.311124L2.99997 2.67386L0.637104 0.310977C0.597052 0.270903 0.550914 0.251004 0.498901 0.251004C0.446719 0.251004 0.400603 0.27103 0.360551 0.310976L0.0599707 0.61162C0.0199187 0.651672 1.83866e-05 0.697809 1.83821e-05 0.749886C-2.6033e-06 0.802025 0.0198972 0.848141 0.0599492 0.888215Z" fill="#656463"/>
</svg>
