<svg width="22" height="21" viewBox="0 0 22 21" fill="none" xmlns="http://www.w3.org/2000/svg">
<path d="M21.9703 7.70026C21.8996 7.48564 21.7141 7.33233 21.4888 7.29729L14.7738 6.35118L11.7521 0.32851C11.6504 0.127024 11.4428 0 11.2175 0C10.9922 0 10.7846 0.127024 10.683 0.33289L7.70098 6.37308L0.986009 7.36299C0.760704 7.39803 0.575159 7.55134 0.504475 7.76596C0.433791 7.98059 0.49564 8.21712 0.659096 8.37042L5.53187 13.0528L4.40534 19.6843C4.36558 19.9077 4.45836 20.1311 4.6439 20.2625C4.74551 20.3369 4.86921 20.3764 4.9929 20.3764C5.09009 20.3764 5.18287 20.3544 5.27122 20.3063L11.2661 17.157L17.2786 20.2712C17.367 20.315 17.4598 20.3369 17.5525 20.3369C17.8795 20.3369 18.1489 20.0697 18.1489 19.7456C18.1489 19.6974 18.1445 19.6536 18.1313 19.6098L16.9694 13.0177L21.8113 8.3091C21.9835 8.15142 22.041 7.91489 21.9703 7.70026ZM15.918 12.3914C15.7766 12.5272 15.7148 12.7243 15.7501 12.917L16.7618 18.6681L11.54 15.9656C11.3677 15.8736 11.1601 15.878 10.9834 15.9656L5.77926 18.6988L6.75558 12.9389C6.78651 12.7462 6.72466 12.5534 6.58329 12.4177L2.35993 8.3529L8.18693 7.4944C8.38131 7.46374 8.54919 7.34547 8.63312 7.17027L11.2219 1.92726L13.8461 7.15713C13.9344 7.33233 14.1023 7.4506 14.2967 7.48126L20.1281 8.30472L15.918 12.3914Z" fill="#C57B48"/>
</svg>
