<svg width="16" height="16" viewBox="0 0 16 16" fill="none" xmlns="http://www.w3.org/2000/svg">
<path d="M10.2824 1.97709C10.1216 0.850025 9.14059 0 8.00058 0C7.26742 0 6.57113 0.353787 6.13821 0.946715C6.04979 1.06764 6.07624 1.23726 6.19716 1.32569C6.31769 1.4138 6.48771 1.38766 6.57598 1.26658C6.90736 0.813161 7.43983 0.542398 8.0005 0.542398C8.87237 0.542398 9.62245 1.19213 9.74544 2.0536C9.76482 2.1889 9.8809 2.28654 10.0137 2.28654C10.0263 2.28654 10.0393 2.28559 10.0523 2.28384C10.2005 2.26263 10.3036 2.12526 10.2824 1.97709Z" fill="white"/>
<path d="M14.1976 5.013L13.3841 3.65704C13.3351 3.57528 13.2469 3.52539 13.1515 3.52539H12.3719C12.2222 3.52539 12.1007 3.64687 12.1007 3.79655C12.1007 3.94623 12.2222 4.06771 12.3719 4.06771H12.998L13.4862 4.88127H2.5118L2.99993 4.06771H3.28714C3.43682 4.06771 3.5583 3.94623 3.5583 3.79655C3.5583 3.64687 3.43682 3.52539 3.28714 3.52539H2.84644C2.7511 3.52539 2.66283 3.57528 2.61389 3.65704L1.80033 5.013C1.75004 5.09689 1.74885 5.20121 1.79692 5.28622C1.84498 5.37123 1.93508 5.42383 2.03288 5.42383H13.9651C14.0629 5.42383 14.1529 5.37123 14.201 5.28622C14.2492 5.20121 14.2479 5.09674 14.1976 5.013Z" fill="white"/>
<path d="M12.8484 2.5124C12.8104 2.45115 12.7498 2.40769 12.6798 2.39132L8.98291 1.52668C8.91291 1.51023 8.83918 1.52247 8.77801 1.56029C8.71699 1.59826 8.67345 1.65888 8.65709 1.72896L8.3783 2.92069C8.34414 3.06648 8.43471 3.21235 8.58058 3.24635C8.72637 3.28052 8.87239 3.18994 8.9064 3.04408L9.12345 2.11651L12.2921 2.85769L11.7942 4.98653C11.76 5.13231 11.8506 5.27818 11.9965 5.31219C12.0174 5.31703 12.0381 5.31934 12.0586 5.31934C12.1818 5.31934 12.2932 5.23496 12.3222 5.10999L12.8819 2.71714C12.8985 2.64715 12.8864 2.57342 12.8484 2.5124Z" fill="white"/>
<path d="M8.14265 3.15354L7.89556 1.06364C7.88714 0.992211 7.85067 0.926983 7.79411 0.882492C7.73754 0.838 7.66611 0.817661 7.59437 0.826083L3.05863 1.3622C2.90998 1.37984 2.80367 1.51459 2.82123 1.6634L3.23318 5.14906C3.24954 5.28707 3.36657 5.38852 3.50219 5.38852C3.51276 5.38852 3.52364 5.38781 3.53445 5.38662C3.68302 5.36898 3.78932 5.23423 3.77184 5.08542L3.39168 1.86885L7.38884 1.39645L7.60398 3.21702C7.62162 3.36575 7.75573 3.47142 7.90518 3.45457C8.05382 3.4371 8.16013 3.30227 8.14265 3.15354Z" fill="white"/>
<path d="M10.2886 5.04948L9.75029 2.81108C9.73345 2.74125 9.68951 2.68078 9.62825 2.64321C9.567 2.60594 9.49351 2.59426 9.4232 2.61095L5.05453 3.66158C4.9089 3.69654 4.81928 3.84304 4.85424 3.98867L5.12325 5.10748C5.15821 5.25326 5.30471 5.34296 5.45027 5.30777C5.5959 5.27281 5.68551 5.1263 5.65056 4.98067L5.44486 4.12549L9.28623 3.20181L9.76109 5.17644C9.79089 5.30077 9.90212 5.3842 10.0245 5.3842C10.0456 5.3842 10.0669 5.38173 10.0883 5.37657C10.2339 5.34153 10.3235 5.19511 10.2886 5.04948Z" fill="white"/>
<path d="M9.4452 12.9632C9.43161 12.9354 9.43161 12.9035 9.4452 12.8757L9.57122 12.6179C9.64139 12.4743 9.58579 12.3032 9.44466 12.2283L9.19118 12.0939C9.16383 12.0793 9.14509 12.0535 9.13973 12.0231L9.09016 11.7404C9.06255 11.583 8.91699 11.4773 8.75882 11.4997L8.4747 11.5399C8.44403 11.5442 8.41371 11.5343 8.39146 11.5128L8.18523 11.3133C8.0704 11.2022 7.8905 11.2022 7.77567 11.3133L7.56943 11.5128C7.54718 11.5344 7.51685 11.5442 7.48619 11.5399L7.20207 11.4997C7.04385 11.4773 6.89834 11.5831 6.87074 11.7404L6.82116 12.0231C6.81581 12.0535 6.79706 12.0794 6.76972 12.0939L6.51624 12.2284C6.37511 12.3032 6.31952 12.4743 6.38968 12.6179L6.51569 12.8757C6.52929 12.9035 6.52929 12.9354 6.51569 12.9632L6.38967 13.221C6.31951 13.3645 6.3751 13.5356 6.51623 13.6105L6.76971 13.745C6.79706 13.7595 6.81581 13.7853 6.82116 13.8158L6.87074 14.0984C6.89587 14.2417 7.0187 14.3422 7.15988 14.3422C7.17379 14.3422 7.1879 14.3412 7.20208 14.3392L7.4862 14.299C7.51684 14.2946 7.54718 14.3045 7.56944 14.326L7.77567 14.5255C7.8331 14.5811 7.90676 14.6089 7.98045 14.6089C8.05412 14.6089 8.12782 14.5811 8.18522 14.5255L8.39146 14.326C8.41372 14.3045 8.44405 14.2947 8.4747 14.299L8.75882 14.3392C8.91706 14.3616 9.06255 14.2558 9.09016 14.0984L9.13974 13.8158C9.14509 13.7853 9.16384 13.7595 9.19118 13.745L9.44466 13.6105C9.58579 13.5356 9.64139 13.3645 9.57122 13.221L9.4452 12.9632ZM9.35332 13.4384L9.09984 13.5728C9.01903 13.6157 8.9636 13.692 8.94779 13.7821L8.89822 14.0648C8.88888 14.118 8.83966 14.1538 8.78612 14.1462L8.502 14.106C8.41139 14.0932 8.32173 14.1223 8.25597 14.186L8.04973 14.3855C8.01088 14.423 7.95002 14.423 7.91116 14.3855L7.70493 14.186C7.64935 14.1322 7.57669 14.1031 7.50084 14.1031C7.48694 14.1031 7.47293 14.104 7.4589 14.106L7.17478 14.1462C7.12128 14.1538 7.07202 14.118 7.06268 14.0648L7.0131 13.7821C6.99728 13.692 6.94186 13.6157 6.86104 13.5728L6.60756 13.4383C6.55981 13.413 6.541 13.3551 6.56474 13.3066L6.69076 13.0488C6.73094 12.9666 6.73094 12.8723 6.69076 12.7901L6.56474 12.5323C6.541 12.4837 6.55981 12.4258 6.60756 12.4005L6.86104 12.266C6.94186 12.2231 6.99728 12.1468 7.01309 12.0567L7.06266 11.7741C7.07201 11.7208 7.12122 11.6851 7.17476 11.6926L7.45888 11.7328C7.54946 11.7456 7.63915 11.7165 7.70491 11.6529L7.91115 11.4534C7.95 11.4158 8.01086 11.4158 8.04972 11.4534L8.25595 11.6529C8.32172 11.7165 8.41139 11.7456 8.50198 11.7328L8.7861 11.6926C8.8396 11.6851 8.88887 11.7208 8.89821 11.7741L8.94778 12.0567C8.96359 12.1468 9.01901 12.2231 9.09983 12.266L9.35331 12.4005C9.40107 12.4258 9.41987 12.4837 9.39614 12.5323L9.27012 12.7901C9.22994 12.8723 9.22994 12.9666 9.27012 13.0488L9.39614 13.3065C9.41988 13.3551 9.40107 13.413 9.35332 13.4384Z" fill="white"/>
<path d="M8.69466 12.2072C8.65662 12.1692 8.59491 12.1692 8.55686 12.2072L7.27073 13.4934C7.23267 13.5314 7.23267 13.5931 7.27073 13.6312C7.28975 13.6502 7.31469 13.6597 7.33962 13.6597C7.36456 13.6597 7.3895 13.6502 7.40852 13.6312L8.69466 12.3451C8.73272 12.307 8.73272 12.2453 8.69466 12.2072Z" fill="white"/>
<path d="M7.59165 12.0425C7.39465 12.0425 7.23438 12.2028 7.23438 12.3998C7.23438 12.5968 7.39465 12.757 7.59165 12.757C7.78866 12.757 7.94894 12.5968 7.94894 12.3998C7.94894 12.2028 7.78866 12.0425 7.59165 12.0425ZM7.59165 12.5622C7.50211 12.5622 7.42926 12.4893 7.42926 12.3998C7.42926 12.3102 7.50211 12.2374 7.59165 12.2374C7.6812 12.2374 7.75406 12.3102 7.75406 12.3998C7.75405 12.4893 7.6812 12.5622 7.59165 12.5622Z" fill="white"/>
<path d="M8.369 13.082C8.172 13.082 8.01172 13.2423 8.01172 13.4393C8.01172 13.6363 8.172 13.7966 8.369 13.7966C8.566 13.7966 8.72628 13.6363 8.72628 13.4393C8.72628 13.2423 8.566 13.082 8.369 13.082ZM8.369 13.6017C8.27945 13.6017 8.2066 13.5289 8.2066 13.4393C8.2066 13.3498 8.27945 13.2769 8.369 13.2769C8.45855 13.2769 8.5314 13.3498 8.5314 13.4393C8.5314 13.5289 8.45855 13.6017 8.369 13.6017Z" fill="white"/>
<path d="M14.2082 5.1386C14.2007 4.99448 14.0817 4.88135 13.9373 4.88135H2.00508C1.86064 4.88135 1.74163 4.9944 1.73416 5.1386L1.19176 15.7149C1.18795 15.7891 1.2148 15.8617 1.26597 15.9155C1.31721 15.9693 1.38824 15.9999 1.46261 15.9999H14.4795C14.5538 15.9999 14.6249 15.9694 14.6764 15.9155C14.7275 15.8617 14.7543 15.7891 14.7506 15.7149L14.2082 5.1386ZM1.74799 15.4575L2.26258 5.42367H13.6795L14.1941 15.4575H1.74799Z" fill="white"/>
<path d="M10.0323 5.96582C9.58366 5.96582 9.21875 6.33073 9.21875 6.77938C9.21875 7.22802 9.58366 7.59293 10.0323 7.59293C10.481 7.59293 10.8459 7.22802 10.8459 6.77938C10.8459 6.33073 10.481 5.96582 10.0323 5.96582ZM10.0323 7.05062C9.8827 7.05062 9.76115 6.92898 9.76115 6.77946C9.76115 6.62993 9.88278 6.5083 10.0323 6.5083C10.1818 6.5083 10.3035 6.62993 10.3035 6.77946C10.3035 6.92898 10.1818 7.05062 10.0323 7.05062Z" fill="white"/>
<path d="M5.9659 5.96631C5.51725 5.96631 5.15234 6.33122 5.15234 6.77987C5.15234 7.22851 5.51725 7.59342 5.9659 7.59342C6.41455 7.59342 6.77946 7.22851 6.77946 6.77987C6.77946 6.33122 6.41455 5.96631 5.9659 5.96631ZM5.9659 7.0511C5.81638 7.0511 5.69474 6.92947 5.69474 6.77994C5.69474 6.63042 5.81638 6.50879 5.9659 6.50879C6.11543 6.50879 6.23706 6.63042 6.23706 6.77994C6.23706 6.92947 6.11543 7.0511 5.9659 7.0511Z" fill="white"/>
<path d="M10.0343 6.77979H10.0134C9.86368 6.77979 9.74221 6.90126 9.74221 7.05094C9.74221 7.08797 9.74952 7.12332 9.7631 7.1555V8.54244C9.7631 9.51434 8.97235 10.3052 8.00037 10.3052C7.02839 10.3052 6.23763 9.51442 6.23763 8.54244V7.05102C6.23763 6.90134 6.11615 6.77986 5.96647 6.77986C5.81679 6.77986 5.69531 6.90134 5.69531 7.05102V8.54252C5.69531 9.81355 6.72934 10.8476 8.00037 10.8476C9.27139 10.8476 10.3054 9.81355 10.3054 8.54252V7.05102C10.3054 6.90134 10.1839 6.77979 10.0343 6.77979Z" fill="white"/>
</svg>
