<svg width="123" height="123" viewBox="0 0 123 123" fill="none" xmlns="http://www.w3.org/2000/svg">
<path d="M3.6145 92.7371L28.2056 76.9281C31.326 74.9384 35.4515 75.6797 37.6841 78.6314L44.6147 87.8583C45.5049 89.074 47.1539 89.45 48.4832 88.7406L49.8432 88.0204C54.351 85.6607 59.9598 82.7229 71.3463 71.7089C82.7328 60.6948 85.8635 55.1837 88.3732 50.766L89.1347 49.4309C89.8985 48.1266 89.5848 46.459 88.3994 45.5211L79.4166 38.2866C76.5427 35.9559 75.9396 31.8089 78.0306 28.7562L94.6569 4.71019C96.7996 1.60172 101.008 0.728501 104.211 2.72772L114.277 9.00722C117.441 10.9394 119.734 14.021 120.676 17.6063C124.113 31.0104 120.972 53.9912 86.4806 87.3462C59.0437 113.874 38.8339 120.792 25.0268 120.56C21.849 120.521 18.6907 120.054 15.6371 119.173C12.0847 118.113 9.08144 115.717 7.25787 112.489L1.31394 102.224C-0.579344 98.9548 0.434378 94.7752 3.6145 92.7371ZM4.79847 100.227L10.7282 110.499C12.0374 112.828 14.1973 114.561 16.7554 115.335C29.016 118.923 50.5824 116.484 83.6953 84.4656C116.808 52.4473 119.97 30.9769 116.796 18.6008C116.108 16.0151 114.446 13.7953 112.159 12.4064L102.093 6.1349C100.703 5.26664 98.8766 5.64549 97.9468 6.99439L88.9149 20.0727L81.3343 31.0385C80.4263 32.3627 80.6871 34.1622 81.9337 35.1743L90.9186 42.4089C93.6535 44.574 94.3803 48.4204 92.6234 51.434L91.8784 52.7353C89.2407 57.3854 85.9612 63.1702 74.1514 74.5879C62.3415 86.0052 56.4516 89.0888 51.7177 91.5686L50.3902 92.2712C47.3195 93.9256 43.4994 93.0703 41.4275 90.2642L34.4988 81.0413C33.529 79.7621 31.7399 79.4412 30.3855 80.3033L5.79656 96.1123C4.41625 96.9955 3.97622 98.8093 4.79847 100.227Z" fill="white" fill-opacity="0.5"/>
<path d="M53.7499 20.906C34.9601 20.6111 19.4777 35.5821 19.1408 54.3712C19.1222 55.477 18.2108 56.3582 17.105 56.3396C15.9992 56.321 15.118 55.4097 15.1366 54.3039C15.5127 33.3041 32.8167 16.5719 53.8172 16.9018C54.923 16.9204 55.8043 17.8317 55.7857 18.9375C55.7671 20.0433 54.8558 20.9246 53.7499 20.906Z" fill="white" fill-opacity="0.5"/>
<path d="M53.5468 32.9183C41.389 32.7283 31.3712 42.4149 31.1526 54.5722C31.134 55.678 30.2225 56.5593 29.1169 56.5407C28.0111 56.5221 27.1298 55.6108 27.1484 54.5049C27.4065 40.1369 39.2457 28.689 53.6141 28.9141C54.7199 28.9326 55.6011 29.844 55.5826 30.9498C55.564 32.0556 54.6526 32.9369 53.5468 32.9183Z" fill="white" fill-opacity="0.5"/>
<path d="M53.3447 44.9317C47.8185 44.8454 43.2651 49.2483 43.1654 54.7744C43.1469 55.8802 42.2353 56.7614 41.1297 56.7429C40.0241 56.7243 39.1427 55.8129 39.1612 54.7071C39.3002 46.9706 45.6751 40.8061 53.412 40.9274C54.5178 40.946 55.399 41.8574 55.3804 42.9632C55.3618 44.069 54.4505 44.9502 53.3447 44.9317Z" fill="white" fill-opacity="0.5"/>
</svg>
