<svg width="17" height="16" viewBox="0 0 17 16" fill="none" xmlns="http://www.w3.org/2000/svg">
<path d="M8.49805 0C6.02644 0 4.01562 1.89253 4.01562 4.21875C4.01562 6.54497 6.02644 8.4375 8.49805 8.4375C10.9697 8.4375 12.9805 6.54497 12.9805 4.21875C12.9805 1.89253 10.9697 0 8.49805 0ZM8.49805 7.5C6.57569 7.5 5.01172 6.02803 5.01172 4.21875C5.01172 2.40947 6.57569 0.9375 8.49805 0.9375C10.4204 0.9375 11.9844 2.40947 11.9844 4.21875C11.9844 6.02803 10.4204 7.5 8.49805 7.5Z" fill="#808080"/>
<path d="M9.89094 9.40625H7.11293C4.81521 9.40625 2.5476 10.4047 1.03125 12.5456V16H15.9727V12.5456C14.4585 10.4078 12.1915 9.40625 9.89094 9.40625ZM14.9766 15.0625H14.9766H2.02734V12.8324C3.19048 11.2713 5.08044 10.3438 7.11297 10.3438H9.89097C11.9235 10.3438 13.8134 11.2713 14.9766 12.8324V15.0625Z" fill="#808080"/>
</svg>
