<svg width="39" height="25" viewBox="0 0 39 25" fill="none" xmlns="http://www.w3.org/2000/svg">
<path d="M4.875 14.9215C5.21153 14.9215 5.48438 15.1944 5.48438 15.5309V19.8008H6.45389C6.69284 17.6872 8.59988 16.1676 10.7133 16.4065C12.4977 16.6082 13.9059 18.0164 14.1076 19.8008H26.8125V2.12891H5.48438V4.04539C5.48438 4.38192 5.21153 4.65476 4.875 4.65476C4.53847 4.65476 4.26562 4.38192 4.26562 4.04539V1.51953C4.26562 1.183 4.53847 0.910156 4.875 0.910156H27.4219C27.7584 0.910156 28.0312 1.183 28.0312 1.51953V2.12891H35.0098C36.5396 2.13089 37.7793 3.37051 37.7812 4.90034V5.78515C37.7812 6.12168 37.5084 6.39453 37.1719 6.39453H36.4632L36.9281 11.9794C38.145 12.2962 38.9957 13.3929 39 14.6503V19.8008C39 20.1373 38.7272 20.4101 38.3906 20.4101H37.1566C36.9896 22.5893 35.0876 24.2204 32.9085 24.0534C30.9615 23.9042 29.4145 22.3571 29.2652 20.4101C29.2597 20.4101 29.2555 20.4132 29.25 20.4132H28.0312C28.0312 20.7497 27.7584 21.0226 27.4219 21.0226H14.0522C13.6181 23.1055 11.5776 24.4421 9.49467 24.008C7.99432 23.6953 6.82203 22.5229 6.50934 21.0226H4.875C4.53847 21.0226 4.26562 20.7497 4.26562 20.4132V15.5309C4.26562 15.1943 4.53847 14.9215 4.875 14.9215ZM33.2109 22.8476C34.7254 22.8476 35.9531 21.6199 35.9531 20.1055C35.9531 18.591 34.7254 17.3633 33.2109 17.3633C31.6965 17.3633 30.4688 18.591 30.4688 20.1055C30.4704 21.6192 31.6972 22.846 33.2109 22.8476ZM28.0312 19.1914H29.25C29.2857 19.1951 29.3211 19.2022 29.3554 19.2127C29.8455 17.0835 31.9689 15.7548 34.098 16.2448C35.5662 16.5827 36.7149 17.7252 37.061 19.1914H37.7812V14.6503C37.7803 13.7933 37.0856 13.0986 36.2286 13.0977H28.0312V19.1914ZM28.0312 11.8789H35.6972L35.2402 6.39453H28.0312V11.8789ZM28.0312 5.17578H36.5625V4.90034C36.5615 4.04326 35.8669 3.34865 35.0098 3.34766H28.0312V5.17578ZM7.65108 20.3858C7.72939 21.7799 8.88392 22.8695 10.2802 22.8671H10.2808C11.5593 22.8643 12.651 21.9435 12.8694 20.6838C12.7626 20.4971 12.7748 20.2653 12.9005 20.0908C12.819 18.6413 11.5779 17.5321 10.1283 17.6136C8.67872 17.695 7.56958 18.9361 7.65108 20.3858Z" fill="#656463"/>
<path d="M5.48438 5.78516H14.0156C14.3522 5.78516 14.625 6.058 14.625 6.39453C14.625 6.73106 14.3522 7.00391 14.0156 7.00391H5.48438C5.14785 7.00391 4.875 6.73106 4.875 6.39453C4.875 6.058 5.14785 5.78516 5.48438 5.78516Z" fill="#656463"/>
<path d="M4.26562 12.4883H17.6719C18.0084 12.4883 18.2812 12.7611 18.2812 13.0976C18.2812 13.4342 18.0084 13.707 17.6719 13.707H4.26562C3.9291 13.707 3.65625 13.4342 3.65625 13.0976C3.65625 12.7611 3.9291 12.4883 4.26562 12.4883Z" fill="#656463"/>
<path d="M5.48438 8.83203H12.1875C12.524 8.83203 12.7969 9.10488 12.7969 9.44141C12.7969 9.77793 12.524 10.0508 12.1875 10.0508H5.48438C5.14785 10.0508 4.875 9.77793 4.875 9.44141C4.875 9.10488 5.14785 8.83203 5.48438 8.83203Z" fill="#656463"/>
<path d="M3.04688 7.00391H1.82812C1.4916 7.00391 1.21875 6.73106 1.21875 6.39453C1.21875 6.058 1.4916 5.78516 1.82812 5.78516H3.04688C3.3834 5.78516 3.65625 6.058 3.65625 6.39453C3.65625 6.73106 3.3834 7.00391 3.04688 7.00391Z" fill="#656463"/>
<path d="M1.21875 12.4883H2.4375C2.77403 12.4883 3.04688 12.7611 3.04688 13.0976C3.04688 13.4342 2.77403 13.707 2.4375 13.707H1.21875C0.882223 13.707 0.609375 13.4342 0.609375 13.0976C0.609375 12.7611 0.882223 12.4883 1.21875 12.4883Z" fill="#656463"/>
<path d="M0.609375 8.83203H3.04688C3.3834 8.83203 3.65625 9.10488 3.65625 9.44141C3.65625 9.77793 3.3834 10.0508 3.04688 10.0508H0.609375C0.272848 10.0508 0 9.77793 0 9.44141C0 9.10488 0.272848 8.83203 0.609375 8.83203Z" fill="#656463"/>
</svg>
