<svg width="21" height="27" viewBox="0 0 21 27" fill="none" xmlns="http://www.w3.org/2000/svg">
<path d="M18.1783 9.42591C15.955 6.95385 14.6337 4.7777 13.9167 3.3874C13.1402 1.8815 12.8858 0.947697 12.8838 0.940266L12.6527 0.0605469L11.8272 0.431229C11.7307 0.474526 9.44988 1.52165 8.17189 4.09475C7.53036 5.38649 7.40205 6.82468 7.40743 7.80364C7.41056 8.37336 7.00959 8.86805 6.45408 8.97988C6.06459 9.05822 5.66394 8.93633 5.38282 8.65332L3.84514 7.10531L3.31618 7.83961C3.26127 7.91583 1.96857 9.71062 1.73323 10.0692C0.584005 11.8206 -0.0152377 13.8607 0.000294442 15.969C0.0211065 18.7849 1.12107 21.423 3.09755 23.3975C5.07392 25.3719 7.70285 26.4592 10.5001 26.4592C16.2898 26.4592 21 21.7173 21 15.8887C21.0001 13.7754 19.9715 11.4198 18.1783 9.42591ZM10.5001 24.9111C8.1114 24.9111 5.86719 23.9833 4.18085 22.2986C2.49446 20.6139 1.55597 18.3619 1.53818 15.9575C1.52485 14.1576 2.03603 12.4166 3.0164 10.9226C3.13609 10.7402 3.61626 10.0659 4.03306 9.48391L4.29547 9.74808C4.94095 10.3979 5.86047 10.6783 6.7558 10.498C8.03159 10.2411 8.95244 9.10446 8.94532 7.79518C8.94086 6.98492 9.04174 5.80537 9.54743 4.78709C10.163 3.54779 11.0832 2.73784 11.7226 2.28743C12.3009 3.7683 13.7669 6.82773 17.0383 10.4651C17.7671 11.2754 19.4622 13.426 19.4622 15.8888C19.4622 20.8636 15.4418 24.9111 10.5001 24.9111Z" fill="#808080"/>
<path d="M12.0579 13.1943L7.23633 20.3026H8.94102L13.7626 13.1943H12.0579Z" fill="#808080"/>
<path d="M13.0872 16.4438C12.0179 16.4438 11.2109 17.1648 11.2109 18.4241C11.2109 19.6935 12.0179 20.4043 13.0872 20.4043C14.1564 20.4043 14.9634 19.6935 14.9634 18.4241C14.9634 17.1648 14.1564 16.4438 13.0872 16.4438ZM13.0872 19.3076C12.8652 19.3076 12.6433 19.1044 12.6433 18.424C12.6433 17.7437 12.8652 17.5405 13.0872 17.5405C13.3091 17.5405 13.531 17.7437 13.531 18.424C13.531 19.1044 13.3091 19.3076 13.0872 19.3076Z" fill="#808080"/>
<path d="M9.78955 15.0729C9.78955 13.8137 8.98259 13.0928 7.91333 13.0928C6.84407 13.0928 6.03711 13.8137 6.03711 15.0729C6.03711 16.3422 6.84407 17.0531 7.91333 17.0531C8.98259 17.0531 9.78955 16.3422 9.78955 15.0729ZM7.46951 15.0729C7.46951 14.3926 7.69142 14.1894 7.91333 14.1894C8.13524 14.1894 8.35715 14.3926 8.35715 15.0729C8.35715 15.7533 8.13524 15.9564 7.91333 15.9564C7.69142 15.9564 7.46951 15.7533 7.46951 15.0729Z" fill="#808080"/>
</svg>
