<svg width="33" height="33" viewBox="0 0 33 33" fill="none" xmlns="http://www.w3.org/2000/svg">
<g clip-path="url(#clip0)">
<path d="M32.7698 11.8557L29.083 2.27C28.3843 0.457915 26.349 -0.444695 24.5369 0.253932C24.5106 0.264097 24.4843 0.274536 24.4582 0.285319L6.03407 7.92268C4.27974 8.64232 3.41751 10.6281 4.08956 12.4013L4.59615 13.7535H3.43407C1.53839 13.7556 0.00212912 15.2918 0 17.1875V29.5502C0.00212912 31.4458 1.53839 32.9821 3.43407 32.9842H26.7857C28.6814 32.9821 30.2177 31.4458 30.2198 29.5502V17.1875C30.2187 17.0011 30.2021 16.8151 30.1703 16.6315L30.8082 16.3732C32.5782 15.6477 33.4481 13.6443 32.7698 11.8557ZM3.43407 14.8524H26.7857C28.019 14.8559 29.0363 15.819 29.1071 17.0502H1.11264C1.18352 15.819 2.20082 14.8559 3.43407 14.8524ZM8.95659 11.5425L12.6291 9.70572L13.3841 11.5942L9.71154 13.4304L8.95659 11.5425ZM29.1209 29.5502C29.1194 30.8393 28.0748 31.8839 26.7857 31.8854H3.43407C2.14499 31.8839 1.10041 30.8393 1.0989 29.5502V22.5447H29.1209V29.5502ZM29.1209 21.4458H1.0989V18.1491H29.1209V21.4458ZM30.3962 15.3579L29.822 15.5903C29.2289 14.4623 28.0602 13.7553 26.7857 13.7535H11.5231L14.328 12.3508C14.5838 12.2231 14.699 11.9206 14.5929 11.6552L13.4275 8.74308C13.3148 8.46135 12.9951 8.32426 12.7133 8.4369C12.6991 8.4426 12.6852 8.44885 12.6715 8.45572L8.01271 10.7865C7.75714 10.9144 7.64224 11.2168 7.74842 11.4821L8.65721 13.7535H5.76923L5.11868 12.0184C4.65749 10.8001 5.24986 9.43607 6.45495 8.94143L24.8786 1.30407C26.1102 0.793355 27.5227 1.37776 28.0335 2.60943C28.0415 2.62859 28.0492 2.64789 28.0566 2.66726L31.7434 12.253C32.2098 13.482 31.6124 14.8589 30.3962 15.3579Z" fill="#656463"/>
<path d="M19.7662 30.3398C20.7901 30.9346 22.0544 30.9346 23.0783 30.3398C24.6527 31.2544 26.6704 30.7196 27.585 29.1453C28.4996 27.5709 27.9648 25.5532 26.3905 24.6386C25.8852 24.3451 25.311 24.1911 24.7267 24.1924C24.1474 24.1927 23.5786 24.3466 23.0783 24.6386C21.504 23.724 19.4863 24.2587 18.5717 25.833C17.6571 27.4074 18.1919 29.4251 19.7662 30.3398ZM23.997 25.4255C24.2308 25.3394 24.4776 25.294 24.7267 25.2914C25.9405 25.2914 26.9245 26.2754 26.9245 27.4892C26.9245 28.703 25.9405 29.687 24.7267 29.687C24.4776 29.6844 24.2308 29.6391 23.997 29.553C24.9698 28.349 24.9698 26.6293 23.997 25.4255ZM23.0783 26.0508C23.811 26.8698 23.811 28.1086 23.0783 28.9277C22.3457 28.1086 22.3457 26.8698 23.0783 26.0508ZM21.43 25.2914C21.6791 25.294 21.9259 25.3394 22.1597 25.4255C21.1869 26.6293 21.1869 28.3491 22.1597 29.553C21.9259 29.6391 21.6791 29.6844 21.43 29.687C20.2162 29.687 19.2322 28.703 19.2322 27.4892C19.2322 26.2753 20.2162 25.2914 21.43 25.2914Z" fill="#656463"/>
<path d="M23.1786 11.3562L23.625 12.3604L28.8668 10.0303L28.4204 9.02611L23.1786 11.3562Z" fill="#656463"/>
<path d="M27.251 6.69969L19.6797 10.1943L20.14 11.1916L27.7113 7.69699L27.251 6.69969Z" fill="#656463"/>
</g>
<defs>
<clipPath id="clip0">
<rect width="33" height="33" fill="white"/>
</clipPath>
</defs>
</svg>
