<svg width="121" height="44" viewBox="0 0 121 44" fill="none" xmlns="http://www.w3.org/2000/svg">
<g clip-path="url(#clip0)">
<path fill-rule="evenodd" clip-rule="evenodd" d="M1.32739 41.9282L0.847197 42.2519L0.286972 41.9282L0.046875 41.0381L0.447036 38.0443L0.286972 37.4779L0.92723 32.5421L1.24736 31.8948L1.08729 31.0047L1.88762 26.0689L2.68794 24.6124V24.127L2.52787 23.2369C2.76797 21.7804 3.0881 19.6766 3.64833 16.9255C4.20855 14.2554 4.52868 12.2325 4.68875 11.0188L5.16894 10.1287L5.00887 9.07682L5.64913 6.00206L5.48907 5.43566C5.88923 5.03108 6.36942 4.62651 6.92965 4.22194C7.48987 3.81736 8.0501 3.4937 8.69036 3.17005L9.65074 3.08913C9.81081 2.76547 9.97087 2.52273 10.1309 2.44181C10.291 2.3609 10.5311 2.27998 10.8512 2.27998H11.2514C11.3314 2.52273 11.5715 3.00822 11.8116 3.4937C12.1317 4.06011 12.2118 4.46468 12.2118 4.86926C12.2118 5.03108 12.1317 5.35474 11.9717 5.75932C11.9717 5.92115 11.8916 6.00206 11.8916 6.08298C11.6516 6.81121 11.4115 7.53944 11.1714 8.34859C10.9313 9.15773 10.6912 10.0478 10.4511 11.0188L9.97087 11.8279L10.0509 12.2325L9.09052 15.55V16.2782L8.45026 17.1683L8.2902 18.7866C8.13013 19.2721 7.97007 19.8385 7.81 20.4858C7.64994 21.1331 7.40984 22.0232 7.24978 23.156C8.45026 22.2659 9.73078 21.1331 11.0913 19.9194C12.4519 18.7057 13.8124 17.2492 15.333 15.7118L16.1334 15.3073L16.6936 14.0935L17.4139 13.608L17.654 12.7989C19.1746 11.1806 20.5351 9.56231 21.4955 7.94401C22.5359 6.32572 23.0161 5.19291 23.0962 4.46468C23.0962 4.38377 23.0962 4.30285 23.0962 4.30285C23.0962 4.30285 23.0962 4.22194 23.0161 4.22194L22.1358 2.9273C22.3759 2.27998 23.3363 1.7945 24.8569 1.30901C25.4971 1.14718 26.0574 0.985348 26.4575 0.823519L28.2182 0.661689L28.8585 0.418945L29.8989 0.985348L29.9789 1.95633L29.7388 2.27998L29.8989 2.9273C29.8189 3.4937 29.6588 4.14102 29.3387 4.70743C29.0986 5.27383 28.6984 5.92115 28.2983 6.56846L27.578 7.13487L26.9377 8.51042C26.1374 9.48139 25.4971 10.2905 24.9369 10.9379C24.3767 11.5852 23.8965 12.1516 23.3363 12.718L22.3759 13.2035L21.4955 14.4981L20.8553 15.1454L17.4139 18.5438L16.6136 19.1102L15.8933 20.4049C14.6127 21.2949 13.7324 21.9423 13.1722 22.5087C12.6119 22.9942 12.2918 23.4796 12.2918 23.8033C12.2918 23.9651 12.2918 24.127 12.3718 24.3697C12.3718 24.4506 12.4519 24.6124 12.4519 24.6124L12.772 25.6643L15.173 30.3574L16.6936 34.2413C16.7736 34.4031 16.9337 34.6459 17.1738 34.9695C18.6144 37.1542 19.6548 38.287 20.3751 38.287C20.6952 38.287 21.0153 38.2061 21.4955 38.0443C21.9757 37.8825 22.5359 37.6397 23.1762 37.2351L23.8965 36.5878L24.7768 36.1833L25.097 35.6168L26.0574 35.5359L26.6976 35.0504L27.4979 35.3741L27.1778 37.0733L25.8173 38.368L24.8569 38.5298L23.0161 40.6336L22.4559 41.4427L22.2958 41.5236C20.215 42.6564 18.7744 43.2228 17.9741 43.1419C17.8941 43.1419 17.734 43.1419 17.654 43.061C17.4939 43.061 17.4139 42.9801 17.1738 42.9801C16.4535 42.7373 15.8132 42.4137 15.333 41.8473C14.8528 41.3618 14.2926 40.3908 13.6524 38.9344L12.3718 37.7206L11.2514 35.5359L10.6111 33.5131L9.81081 33.0276L7.56991 28.4964L6.68955 26.3926L5.72916 28.3345C5.48907 29.4673 5.329 30.4383 5.16894 31.2475C5.00887 32.0566 4.84881 32.7039 4.68875 33.2703V34.565L4.12852 38.287L3.48826 41.4427C3.24816 41.5236 3.00807 41.6045 2.848 41.6855C2.68794 41.7664 2.52787 41.7664 2.44784 41.7664C2.28778 41.7664 2.04768 41.6855 1.72755 41.6045C1.56749 41.5236 1.48746 41.5236 1.40742 41.5236L1.32739 41.9282ZM105.209 18.2202L104.649 18.382C104.489 18.3011 104.329 18.3011 104.249 18.1393C104.089 18.0584 104.009 17.8965 103.929 17.8156L103.689 17.2492C103.609 17.0874 103.529 16.9255 103.529 16.6828C103.449 16.521 103.449 16.3591 103.449 16.1973C103.529 15.55 103.689 14.9027 104.169 14.3363C104.569 13.7699 105.289 13.1226 106.25 12.3134L106.57 12.2325L107.05 12.3134L107.13 11.8279L108.331 10.8569L109.051 10.6951C109.211 10.5333 109.371 10.4524 109.611 10.4524C109.771 10.3715 110.011 10.3715 110.251 10.3715C110.651 10.3715 110.972 10.5333 111.212 10.6951C111.452 10.9379 111.532 11.1806 111.532 11.4233V11.5043L111.052 13.2844L110.571 14.4981L110.251 14.7409V15.2263L109.771 16.1164C109.611 16.3591 109.371 16.6019 109.051 16.9255C108.731 17.1683 108.571 17.3301 108.491 17.492H108.09L107.93 17.7347C107.37 17.9774 106.97 18.1393 106.65 18.2202C106.41 18.3011 106.17 18.3011 105.93 18.3011H105.689L105.369 18.0584L105.209 18.2202ZM109.451 41.4427L109.051 41.6855L107.93 42.1709H106.97C106.89 42.1709 106.73 42.1709 106.65 42.1709C106.49 42.1709 106.33 42.1709 106.09 42.1709C105.609 42.1709 105.129 42.0091 104.809 41.8473C104.489 41.6045 104.169 41.3618 103.929 40.9572L103.769 40.3908L103.368 39.9862V39.6626L103.288 39.4198L102.968 39.258L102.408 37.8015V37.2351L102.088 36.9115L101.528 35.6978C101.448 35.5359 101.288 35.3741 101.128 35.1314C100.888 34.7268 100.727 34.565 100.567 34.565C100.487 34.565 100.407 34.565 100.247 34.6459C100.167 34.7268 100.007 34.7268 99.9271 34.8077H99.4469L99.2068 35.2123L98.6466 35.7787H98.2464L97.9263 36.0214C97.8463 36.1023 97.7662 36.1833 97.6862 36.3451L97.6062 36.426L97.3661 36.7497L97.286 36.8306C97.126 36.9924 97.046 37.0733 96.9659 37.1542L96.6458 37.5588L96.0055 37.7206L95.9255 37.8825L95.5253 38.2061L94.8851 38.5298L94.1648 39.258L93.8447 39.8244L92.9643 39.9862L92.8042 40.3099C92.4841 40.5526 92.164 40.7954 91.8439 41.0381C91.5237 41.2809 91.1236 41.4427 90.7234 41.6045L90.0832 42.09C89.8431 42.09 89.603 42.09 89.5229 42.1709C89.3629 42.2519 89.2828 42.3328 89.1228 42.4946L88.1624 43.2228L87.6822 43.1419C87.6021 43.1419 87.6021 43.2228 87.5221 43.2228C87.282 43.3847 87.122 43.4656 87.0419 43.6274L84.9611 43.7083L84.5609 43.4656L84.2408 43.5465C83.9207 43.4656 83.7606 43.3847 83.6005 43.1419C83.5205 42.9801 83.4405 42.7373 83.4405 42.4137C83.4405 42.09 83.5205 41.7664 83.6806 41.3618C83.8406 40.9572 84.0007 40.5526 84.2408 39.9862L84.4009 39.5008L84.801 38.9344L84.8811 38.5298L86.0015 35.455L86.1616 35.1314V34.6459C86.2416 34.1604 86.3216 33.6749 86.4017 33.3512C86.4817 33.0276 86.4817 32.7039 86.4817 32.4612C86.4817 31.8948 86.4817 31.4093 86.3216 31.0047C86.1616 30.6001 85.9215 30.1956 85.5213 29.8719L85.4413 29.3864C85.1211 29.3055 84.801 29.1437 84.4809 28.9818C84.1608 28.82 83.8406 28.4964 83.5205 28.1727L82.9603 28.0109L82.4801 28.6582L81.0395 29.3864L80.5593 30.0337L80.1591 30.3574L79.4389 31.0856L78.8786 31.8948L77.5181 33.1894L77.198 33.594L76.5577 33.7558L76.3176 33.9986L75.5973 34.8886C75.5173 35.1314 75.3572 35.2932 75.1972 35.3741C75.0371 35.455 74.9571 35.5359 74.797 35.5359C74.717 35.6168 74.6369 35.6978 74.6369 35.6978L74.3168 36.1023L73.6765 36.2642L73.5965 36.426L73.1964 36.7497L72.5561 37.0733L71.8358 37.8015L71.5157 38.368L70.6353 38.5298L70.4753 38.8534C70.1551 39.0962 69.835 39.3389 69.5149 39.5817C69.1947 39.8244 68.7946 39.9862 68.3944 40.1481L67.7542 40.6336C67.5141 40.6336 67.274 40.6336 67.1939 40.7145C67.0339 40.7954 66.9538 40.8763 66.7938 41.0381L65.8334 41.7664L65.3532 41.6855C65.2732 41.6855 65.2732 41.7664 65.1931 41.7664C64.953 41.9282 64.793 42.0091 64.7129 42.1709L62.6321 42.2519L62.2319 42.0091L61.9118 42.09C61.5917 42.0091 61.4316 41.9282 61.2715 41.6855C61.1915 41.5236 61.1115 41.2809 61.1115 40.9572C61.1115 40.6336 61.1915 40.3099 61.3516 39.9053C61.5116 39.5008 61.6717 39.0962 61.9118 38.5298L62.0719 38.0443L62.472 37.4779L62.5521 37.0733L63.6725 33.9986L63.8326 33.6749V33.1894C63.9126 32.7039 63.9926 32.2184 64.0727 31.8948C64.1527 31.5711 64.1527 31.2475 64.1527 31.0047C64.1527 30.4383 64.1527 29.9528 63.9926 29.5482C63.8326 29.1437 63.5925 28.7391 63.1923 28.4154L63.1123 27.93C62.7922 27.849 62.472 27.6872 62.1519 27.5254C61.8318 27.3635 61.5116 27.0399 61.1915 26.7162L60.6313 26.5544L60.1511 27.2017L58.7105 27.93L58.2303 28.5773L57.8302 28.9009L57.1099 29.6292L56.5496 30.4383L55.1891 31.7329L54.869 32.1375L54.2287 32.2993L53.9886 32.5421L53.2683 33.4322C53.1883 33.6749 53.0282 33.8367 52.8682 33.9176C52.7081 33.9986 52.548 34.0795 52.388 34.0795L52.1479 34.4031C51.8277 34.4031 51.5076 34.565 51.1074 34.8886C50.7073 35.2123 50.4672 35.3741 50.2271 35.455L49.6669 35.8596C49.0266 36.1023 48.5464 36.3451 48.1463 36.6687C48.0662 36.7497 47.9862 36.8306 47.9862 36.8306C47.9062 36.8306 47.8261 36.8306 47.7461 36.7497C47.6661 36.7497 47.6661 36.6687 47.586 36.5878L47.506 36.426V36.3451C47.506 36.1023 47.8261 35.6168 48.3863 34.8886C48.7865 34.3222 49.1066 33.8367 49.3467 33.5131L49.7469 33.1085C50.1471 33.0276 50.4672 32.7848 50.7873 32.2993C51.1074 31.8139 51.3475 31.4902 51.5076 31.4093C51.5876 31.1665 51.7477 30.9238 51.9078 30.8429C52.0678 30.6811 52.2279 30.6001 52.388 30.5192L53.6685 29.3055L53.7485 28.7391L55.9094 26.5544L56.2295 26.3926L56.3896 26.1498L56.5496 25.4216L57.1099 24.6934L57.35 24.5315V24.046L57.1099 23.4796V23.3987C57.1099 23.3178 57.1099 23.3178 57.1099 23.2369C57.1099 22.8323 57.43 22.3468 58.0703 21.8613C58.7105 21.2949 59.4308 20.9713 60.2311 20.7285L60.8714 20.324L61.5917 20.2431L63.0322 20.324L63.1123 20.4858L63.5124 20.5667L64.2327 20.8904L64.4728 21.2949L64.953 21.6995L65.5933 21.9423C65.9134 22.2659 66.3936 22.6705 67.1139 23.3178C67.8342 23.8842 68.3144 24.3697 68.3944 24.7743L69.1147 25.6643L69.1947 25.988L69.1147 26.4735L69.3548 26.8781L69.4348 27.3635C69.5149 27.7681 69.5149 28.0918 69.5149 28.3345C69.5149 28.5773 69.5149 28.7391 69.5149 28.9009C69.4348 30.0337 69.0347 31.4902 68.3144 33.3512C67.5941 35.2123 67.1139 36.5069 66.8738 37.1542H67.274L67.9942 36.6687H68.3944L70.5553 35.2123H70.9554L71.2756 34.565L72.236 33.8367L72.7162 33.594L73.0363 33.3512L73.7566 32.623L73.9166 32.5421C73.9967 32.3803 74.0767 32.2184 74.2368 32.0566C74.3968 31.8948 74.5569 31.8139 74.717 31.7329L75.9975 30.5192L76.0775 29.9528L78.2384 27.7681L78.5585 27.6063L78.7186 27.3635L78.8786 26.6353L79.4389 25.9071L79.679 25.7453V25.2598L79.4389 24.6934V24.6124C79.4389 24.5315 79.4389 24.5315 79.4389 24.4506C79.4389 24.046 79.759 23.5606 80.3992 23.0751C81.0395 22.5087 81.7598 22.185 82.5601 21.9423L83.2004 21.5377L83.9207 21.4568L85.3612 21.5377L85.4413 21.6995L85.8414 21.7804L86.5617 22.1041L86.8018 22.5087L87.282 22.9132L87.9223 23.156C88.2424 23.4796 88.7226 23.8842 89.4429 24.5315C90.1632 25.0979 90.6434 25.5834 90.7234 25.988L91.4437 26.8781L91.5237 27.2017L91.4437 27.6872L91.6838 28.0918L91.7638 28.5773C91.8439 28.9818 91.8439 29.3055 91.8439 29.5482C91.8439 29.791 91.8439 29.9528 91.8439 30.1146C91.7638 31.2475 91.3637 32.7039 90.6434 34.565C89.9231 36.426 89.4429 37.7206 89.2028 38.368H89.603L90.3232 37.8825H90.7234L92.8843 36.426H93.2844L93.6046 35.8596L94.565 35.1314L94.8051 35.0504C95.2052 34.7268 95.5253 34.484 95.6854 34.3222L96.0055 33.9986L96.2456 33.8367C96.4057 33.594 96.5658 33.4322 96.8059 33.2703C97.046 33.0276 97.3661 32.7848 97.6062 32.5421L98.1664 31.9757L98.5666 31.8139L98.7266 31.4902C98.8867 31.3284 99.2869 30.9238 99.7671 30.2765C100.327 29.6292 100.807 29.1437 101.128 28.7391L101.848 28.4154L102.168 27.7681L102.808 27.2826L104.969 27.4445L106.09 28.1727C106.49 28.4154 106.73 29.3055 106.81 31.0047C106.81 31.0856 106.81 31.2475 106.81 31.3284L107.05 34.1604L107.29 34.565C107.53 35.6168 107.77 36.3451 108.01 36.7497C108.25 37.0733 108.731 37.3161 109.291 37.3161C109.531 37.3161 109.771 37.3161 110.091 37.1542C110.411 37.0733 110.651 36.9115 110.892 36.6687H111.532L111.772 36.2642L113.052 35.2932L113.293 34.8077C114.173 34.4031 115.133 33.9986 116.014 33.4322C116.894 32.8657 117.534 32.623 117.774 32.623C117.934 32.623 118.094 32.7039 118.174 32.7848C118.255 32.8657 118.335 33.0276 118.335 33.2703C118.335 33.2703 118.335 33.3512 118.255 33.4322C118.094 33.6749 118.014 33.9986 117.854 34.3222L117.454 34.7268C116.974 35.1314 116.574 35.6168 116.174 36.1023C115.773 36.5878 115.533 36.8306 115.453 36.8306H115.373L114.973 37.3161L114.333 37.9634L113.933 38.2061L113.293 38.6916C112.972 38.9344 112.492 39.3389 111.932 39.9053C110.972 40.7954 110.171 41.2809 109.691 41.4427H109.451ZM36.5416 30.762V31.4093L36.3815 32.0566L36.3015 32.5421L36.0614 33.1894C36.0614 33.2703 36.0614 33.3512 35.9814 33.4322C35.9814 33.5131 35.9814 33.6749 35.9013 33.8367C35.9013 34.0795 35.9013 34.2413 35.9013 34.484C35.9013 34.6459 35.9814 34.8886 36.0614 35.0504V35.2932C36.2215 35.5359 36.3815 35.6168 36.4615 35.7787C36.6216 35.8596 36.7817 35.9405 36.9417 36.0214L37.502 36.1023C37.662 35.9405 38.0622 35.7787 38.5424 35.6168C39.0226 35.455 39.4227 35.2932 39.6628 35.1314L40.5432 34.6459L42.7841 32.623L43.5044 31.7329L43.9045 31.5711V31.0856L44.0646 30.6811C44.3047 30.3574 44.6248 29.5482 45.025 28.4154L45.105 28.2536L45.1851 27.6063C44.945 26.7971 44.6248 26.3117 44.3047 25.988C43.9846 25.6643 43.5044 25.5025 43.0242 25.5025C42.8641 25.5025 42.7841 25.5025 42.624 25.5025C42.464 25.5025 42.3039 25.5834 42.2239 25.5834L41.5836 25.7453L41.1834 26.3117C40.7033 26.6353 40.143 27.1208 39.6628 27.7681C39.1826 28.4154 38.7825 28.82 38.5424 28.9009L37.8221 28.6582C37.662 28.6582 37.582 28.6582 37.502 28.6582C37.4219 28.6582 37.4219 28.6582 37.4219 28.6582C37.4219 28.9009 37.4219 29.1437 37.3419 29.2246C37.3419 29.3864 37.2619 29.4673 37.1818 29.6292L36.4615 30.6811L36.5416 30.762ZM29.8989 31.7329C28.8585 32.7039 27.738 33.5131 26.3775 34.3222C25.097 35.1314 24.2966 35.5359 24.0565 35.5359C23.8965 35.5359 23.7364 35.455 23.6564 35.2932C23.5764 35.2123 23.4963 35.0504 23.4963 34.8077C23.4963 34.6459 23.5764 34.4031 23.7364 34.2413C23.8965 34.0795 24.0565 33.9176 24.3767 33.8367V33.2703C25.257 32.3803 26.0574 31.5711 26.7776 30.9238C27.4979 30.2765 27.8981 29.9528 28.0582 29.9528C28.3783 29.791 28.6184 29.4673 28.9385 28.9818C29.0185 28.82 29.0986 28.7391 29.1786 28.5773L29.7388 28.1727L30.139 27.7681L30.4591 27.6063L30.6192 27.1208L32.0598 25.7453L33.3403 24.6934L34.5408 23.3178C34.8609 22.9132 35.2611 22.5896 35.6612 22.2659C36.0614 21.9423 36.5416 21.6186 36.9417 21.3759L37.502 21.1331L37.662 20.7285C38.6224 19.8385 39.4227 19.2721 39.9029 19.0293C40.3831 18.7866 40.9434 18.7057 41.6636 18.7866C42.0638 18.7866 42.3839 18.8675 42.624 19.0293C42.8641 19.1912 43.0242 19.2721 43.0242 19.4339C43.0242 19.5148 42.8641 19.7576 42.464 20.2431C42.0638 20.7285 41.7437 21.214 41.5036 21.6186L42.7041 21.0522L43.5044 20.8095C43.6644 20.7285 43.8245 20.7285 43.9045 20.6476C44.0646 20.6476 44.2247 20.6476 44.3847 20.6476C44.5448 20.6476 44.6248 20.6476 44.7849 20.6476C44.8649 20.6476 44.945 20.7285 45.025 20.7285H45.5852C46.9458 20.9713 48.0662 21.6186 48.8665 22.5896C49.6669 23.5606 49.987 24.6934 49.907 25.988C49.907 26.0689 49.907 26.1498 49.8269 26.2307C49.8269 26.3926 49.7469 26.4735 49.7469 26.5544L49.3467 27.849L49.1867 28.3345L48.7865 29.3055L48.0662 30.6811L47.6661 31.1665L47.1058 31.5711L46.8657 32.1375C46.8657 32.2184 46.5456 32.623 45.9854 33.1894C45.4252 33.7558 44.6248 34.484 43.7445 35.3741L43.2643 36.1023L42.7841 36.426L42.3039 36.5069L41.6636 36.9924C41.3435 37.2351 41.0234 37.4779 40.6232 37.7206C40.3031 37.9634 39.983 38.1252 39.6628 38.2061H38.7024L38.2223 38.287L37.8221 38.7725C37.502 38.8534 37.2619 38.9344 36.8617 39.0153C36.4615 39.0962 36.3015 39.1771 36.2215 39.1771L35.7413 39.0962C35.5812 39.1771 35.5012 39.258 35.2611 39.258C35.101 39.3389 34.8609 39.3389 34.6208 39.3389C33.4203 39.258 32.3799 38.8534 31.6596 38.0443C30.9393 37.3161 30.5392 36.3451 30.6192 35.2123V34.8886L30.7793 34.484C30.7793 34.3222 30.6992 34.2413 30.6992 34.0795C30.6192 33.7558 30.6192 33.5131 30.6192 33.3512C30.6192 33.0276 30.9393 32.0566 31.4195 30.4383L31.5796 29.8719L31.1794 30.1146L30.6192 30.6811L30.059 31.0047L29.8989 31.4093V31.7329Z" fill="#EF7F1A"/>
<path d="M116.976 0.5C117.537 0.5 118.097 0.661829 118.657 0.985488C119.217 1.30915 119.617 1.71372 119.938 2.28012C120.258 2.84653 120.418 3.41293 120.418 4.06025C120.418 4.62665 120.258 5.27397 119.938 5.84037C119.617 6.40677 119.217 6.81135 118.657 7.13501C118.097 7.45867 117.537 7.6205 116.896 7.6205C116.336 7.6205 115.696 7.45867 115.136 7.13501C114.575 6.81135 114.175 6.40677 113.855 5.84037C113.535 5.27397 113.375 4.70757 113.375 4.06025C113.375 3.41293 113.535 2.84653 113.855 2.28012C114.175 1.71372 114.575 1.30915 115.136 0.985488C115.696 0.661829 116.256 0.5 116.816 0.5H116.976ZM116.976 1.0664C116.496 1.0664 116.016 1.22823 115.536 1.47098C115.056 1.71372 114.736 2.11829 114.415 2.52287C114.175 3.00836 114.015 3.49384 114.015 3.97933C114.015 4.46482 114.175 4.95031 114.415 5.4358C114.656 5.92129 115.056 6.24495 115.456 6.48769C115.936 6.73043 116.416 6.89226 116.896 6.89226C117.377 6.89226 117.857 6.73043 118.337 6.48769C118.817 6.24495 119.137 5.84037 119.377 5.4358C119.617 4.95031 119.778 4.46482 119.778 3.97933C119.778 3.49384 119.617 3.00836 119.377 2.52287C119.137 2.03738 118.737 1.71372 118.257 1.47098C117.777 1.22823 117.297 1.0664 116.816 1.0664H116.976ZM115.456 5.92129V2.19921H116.736C117.137 2.19921 117.457 2.19921 117.697 2.28012C117.857 2.36104 118.017 2.44195 118.177 2.60378C118.257 2.76561 118.337 2.92744 118.337 3.17019C118.337 3.41293 118.257 3.65567 118.017 3.89842C117.857 4.14116 117.537 4.22208 117.217 4.22208C117.377 4.30299 117.457 4.38391 117.537 4.38391C117.697 4.54574 117.857 4.78848 118.097 5.11214L118.577 5.84037H117.857L117.537 5.27397C117.297 4.78848 117.056 4.54574 116.896 4.38391C116.816 4.30299 116.656 4.22208 116.416 4.22208H116.096V5.84037H115.456V5.92129ZM116.096 3.8175H116.816C117.137 3.8175 117.377 3.73659 117.537 3.65567C117.697 3.57476 117.697 3.41293 117.697 3.2511C117.697 3.17019 117.697 3.00836 117.617 2.92744C117.537 2.84653 117.457 2.76561 117.377 2.76561C117.297 2.6847 117.056 2.6847 116.736 2.6847H116.016V3.8175H116.096Z" fill="#EF7F1A"/>
</g>
<defs>
<clipPath id="clip0">
<rect width="120.46" height="43.2085" fill="white" transform="translate(0 0.5)"/>
</clipPath>
</defs>
</svg>
