<svg width="140" height="44" viewBox="0 0 140 44" fill="none" xmlns="http://www.w3.org/2000/svg">
<path fill-rule="evenodd" clip-rule="evenodd" d="M53.6986 28.9758C52.3507 27.839 49.9784 27.7848 48.4148 28.7592C46.5277 29.9501 45.3954 31.7365 44.4788 33.6853C44.4249 33.7394 44.4788 33.8477 44.4788 33.956C45.4493 33.577 46.4198 33.2522 47.3364 32.8733C48.7383 32.2778 50.1401 31.6283 51.5419 30.9245C52.4046 30.4915 53.1594 29.7877 53.6986 28.9216V28.9758ZM91.5482 40.0729C91.9256 39.8564 92.303 39.7481 92.6265 39.4775C94.298 37.9076 95.538 36.0671 96.185 33.8477C96.5625 32.6568 97.1016 31.4659 96.4007 30.1125C95.6459 28.651 94.1901 28.1638 92.7883 29.0299C91.8178 29.6795 91.0629 30.5456 90.5238 31.6283C89.9307 32.8192 90.0385 34.1184 89.8768 35.4175C89.715 36.825 90.0924 38.07 90.6316 39.3692C90.7934 39.8023 91.0629 40.0188 91.5482 40.0729ZM70.305 31.7365C70.2511 31.3035 70.1971 30.7621 70.1432 30.1667C70.1432 30.0584 70.1432 30.0043 70.1432 29.896C69.9815 28.7051 69.9815 28.7051 68.8492 28.8675C68.7414 28.8675 68.6875 28.8675 68.5796 28.8675C67.3396 29.0299 66.0995 29.2464 65.0751 30.1667C63.7271 31.4117 62.541 32.8733 61.5705 34.4431C60.6539 35.8506 60.9774 37.5287 62.3253 38.5572C64.7516 40.4519 68.2561 39.4775 69.3884 36.6085C69.9815 35.0927 70.1971 33.4688 70.305 31.6824V31.7365ZM73.3782 34.7679C73.6478 34.6597 73.8635 34.6055 74.0792 34.4973C76.6672 33.0898 78.8238 31.1952 80.657 28.9758C81.7893 27.6224 83.0833 26.4315 84.5929 25.5113C84.7547 25.403 84.9164 25.403 85.0782 25.403C85.0782 25.5654 85.186 25.7819 85.1321 25.9443C84.4312 28.3803 83.7303 30.7621 83.0293 33.1981C82.9754 33.3064 82.9754 33.4146 82.9754 33.6853C83.4068 33.4146 83.6763 33.2522 83.9998 33.0357C85.5095 32.1696 86.9653 31.3035 88.1514 29.9501C88.6367 29.4088 89.4454 29.1381 90.0924 28.8134C91.8178 28.0555 93.597 27.3518 95.3763 26.648C96.185 26.3233 97.0477 26.1067 97.9104 26.3774C99.3661 26.7563 100.283 28.1096 100.067 29.7336C99.9592 30.4915 99.7975 31.2493 99.6896 32.0072C99.6357 32.2237 99.6357 32.4402 99.6357 32.8192C99.9592 32.6568 100.121 32.6026 100.283 32.4944C102.979 30.3832 105.674 28.272 108.37 26.1609C108.532 26.0526 108.909 25.8902 109.017 25.9985C109.179 26.215 109.287 26.4857 109.287 26.7563C109.125 28.5968 108.963 30.3832 108.802 32.2237C108.802 32.332 108.802 32.4944 108.802 32.8192C111.983 29.6253 115.002 26.4315 119.261 24.7534C119.154 26.4315 118.992 28.0555 118.884 29.8419C119.154 29.6795 119.369 29.6253 119.531 29.5171C121.418 28.3262 123.305 27.1352 125.192 25.9985C125.785 25.6195 126.432 25.3489 127.079 25.0782C127.996 24.6993 128.697 25.0241 129.02 25.9985C129.344 26.9728 129.344 27.9472 129.074 28.9758C128.481 31.2493 127.888 33.4688 127.349 35.7423C127.133 36.5543 127.133 37.4746 127.133 38.3407C127.187 39.3151 127.942 39.9105 128.913 40.0188C130.26 40.1271 131.501 39.7481 132.741 39.261C134.52 38.5572 136.245 37.7994 138.024 37.0415C138.294 36.9332 138.725 36.8791 138.564 36.3378C138.51 36.2295 138.725 36.0671 138.833 35.9589C138.995 35.7965 139.211 35.6882 139.426 35.5258C139.588 35.8506 139.696 36.1754 139.858 36.5002C140.073 36.9332 139.912 37.0956 139.426 37.1498C139.103 37.2039 138.725 37.3122 138.456 37.4204C136.461 38.3407 134.52 39.261 132.525 40.1271C130.8 40.8849 128.966 41.5345 127.187 42.13C126.109 42.4548 124.977 42.3465 124.276 41.318C123.898 40.7767 123.683 40.0188 123.737 39.4233C123.79 38.2324 124.06 37.0956 124.33 35.9047C124.707 34.2808 125.192 32.6568 125.57 31.0328C125.839 29.8419 125.57 28.5968 125.354 27.2976C124.276 27.7848 123.143 28.0555 122.389 28.9216C120.609 31.0328 118.992 33.2522 117.698 35.6882C116.997 37.0956 115.919 38.3407 114.948 39.5316C114.571 39.9647 113.978 40.1812 113.438 40.506C113.384 40.4519 113.331 40.3977 113.277 40.3436C114.193 36.2837 115.11 32.2237 116.08 28.2179C116.026 28.1638 115.972 28.1096 115.865 28.0555C115.487 28.3262 115.002 28.5427 114.678 28.8675C112.684 31.1411 110.689 33.4688 108.694 35.7965C107.615 37.0415 106.537 38.3407 105.405 39.5857C104.596 40.4519 103.626 41.1015 102.278 41.5345C104.111 37.7994 105.674 34.1725 105.728 30.0043C105.513 30.0584 105.297 30.1125 105.135 30.2208C103.248 31.1952 101.361 32.1696 99.474 33.1981C99.2583 33.3064 98.9887 33.577 98.8809 33.8477C97.0477 37.7452 93.8666 40.1812 90.0385 41.8593C87.9358 42.7796 86.48 41.8593 86.3722 39.5316C86.3183 37.5828 86.3183 35.6341 86.3183 33.6853C86.3183 33.144 86.2644 32.9274 85.6713 33.144C85.0782 33.3605 84.4312 33.5229 83.7842 33.6312C82.9215 33.7936 82.4902 34.3349 82.1667 35.0927C81.5736 36.4461 80.9805 37.7994 80.3335 39.1527C79.6865 40.506 78.3925 41.2639 77.2063 42.0758C77.0985 42.13 76.8289 42.13 76.8289 42.0758C76.775 41.9134 76.7211 41.6969 76.775 41.5887C77.1524 40.6143 77.5298 39.694 77.9072 38.7196C78.8778 36.3378 79.7943 33.9018 80.7648 31.52C80.7648 31.4659 80.7648 31.4117 80.7648 31.3035C80.657 31.3035 80.5492 31.3035 80.4953 31.3035C77.6377 33.0357 74.7801 34.6597 71.9764 36.5002C70.5746 37.4204 69.4423 38.6655 68.0944 39.6399C66.2612 40.9932 64.3202 41.8593 61.9479 41.6428C60.6539 41.5345 59.5216 40.9932 58.5511 40.1812C58.1198 39.8564 57.7424 39.694 57.1493 39.8023C54.5074 40.3977 51.8115 40.9932 49.1696 41.5345C47.1208 41.9134 45.018 42.2924 42.9153 41.8593C40.7047 41.4263 39.7342 39.7481 40.3272 37.5287C40.489 36.9332 40.4351 36.2837 40.6507 35.7423C42.0526 32.0613 44.5328 29.3005 48.1991 27.7307C50.0323 26.9187 51.9733 26.4315 53.9143 25.8361C54.1299 25.7819 54.4534 25.7819 54.6691 25.8902C55.4239 26.215 56.1788 26.5939 56.8258 26.9187C56.3944 28.5427 55.1544 29.2464 53.9143 29.9501C50.9489 31.5741 47.9834 33.1981 45.018 34.7138C43.9397 35.2551 43.4544 36.013 43.6701 37.2039C43.8318 38.3407 44.4788 39.0986 45.5572 39.4775C47.0668 39.9647 48.6304 40.0729 50.194 39.8564C52.2968 39.5316 54.3995 39.0444 56.4484 38.6114C57.365 38.449 57.5267 38.1783 57.6345 37.3122C57.958 35.0927 59.1442 33.4146 60.8695 32.1696C63.4575 30.2749 66.1534 28.5427 68.7953 26.8104C69.2806 26.4857 69.3884 26.1609 69.2806 25.6195C69.011 23.6708 68.6875 21.722 68.5257 19.7732C68.4179 18.2575 69.2266 17.1207 70.3589 16.2005C72.7312 14.3058 75.4271 13.0066 78.3386 12.1946C81.5736 11.3285 84.8086 10.6248 88.0975 9.86694C91.656 9.05495 95.2685 8.24296 98.827 7.4851C99.0426 7.43097 99.2583 7.4851 99.5279 7.59337C99.0965 7.86403 98.7191 8.18883 98.2878 8.45949C96.185 9.86694 93.8127 10.5707 91.3325 11.0037C87.9897 11.6533 84.6468 12.3029 81.2501 13.0066C79.2013 13.4397 77.2063 13.8186 75.2114 14.3599C74.4027 14.5765 73.6478 15.0095 73.0008 15.4967C71.7068 16.5253 71.6529 17.9868 71.8686 19.4484C72.246 21.7761 72.7852 24.0497 73.0547 26.3233C73.2704 28.4344 73.2165 30.5456 73.2704 32.6568C73.2704 33.3064 73.2704 33.9018 73.2704 34.6597L73.3782 34.7679Z" fill="#6D3E67"/>
<path fill-rule="evenodd" clip-rule="evenodd" d="M13.5331 38.1781C13.9105 38.2863 14.0723 38.3946 14.234 38.4487C16.5525 39.1525 18.8709 39.8562 21.2432 40.4517C24.1008 41.2095 27.0662 41.5343 30.0316 41.4802C33.3206 41.426 35.639 39.9645 36.8791 36.8248C38.2809 33.252 38.3887 29.6793 37.2026 26.0524C35.9625 22.3172 33.8597 19.2317 30.3012 17.2829C29.7621 17.0123 29.6003 17.1205 29.3307 17.6077C27.228 21.5053 25.1791 25.4028 22.9685 29.1921C20.8119 32.8731 17.8465 35.688 14.1262 37.7992C13.9644 37.9074 13.8566 38.0157 13.587 38.1781H13.5331ZM0 40.5599C0.485251 39.2066 1.50967 38.6111 2.53409 38.0698C5.17601 36.6624 7.97968 36.6624 10.7834 37.4744C12.2391 37.9074 13.4253 37.4744 14.5036 36.5541C17.0377 34.2805 19.1944 31.6822 20.8119 28.7049C22.8607 24.8073 24.7478 20.8015 26.7427 16.8499C27.2819 15.7672 27.228 15.7672 26.0957 15.3883C23.346 14.5222 20.5962 14.3598 17.7386 14.7928C16.876 14.9011 16.0133 15.0093 15.1506 15.1176C11.6999 15.4965 9.59719 18.9069 10.7834 22.209C11.0529 22.9668 11.3225 23.7247 11.5382 24.4825C11.7539 25.3487 11.646 25.6735 10.8373 26.1065C10.2981 26.3772 9.70502 26.6478 9.16585 26.8102C9.0041 26.8644 8.6806 26.702 8.57277 26.5396C6.52393 23.8871 6.57785 20.6933 8.78843 18.0408C10.352 16.1461 12.4548 15.0635 14.6654 14.0891C18.8709 12.3027 23.292 12.0862 27.7671 12.8982C28.1985 12.9523 28.4141 12.844 28.522 12.411C29.3307 9.65022 30.1934 6.94359 30.9482 4.18283C31.4874 2.17993 32.8892 1.09728 34.8842 0.393555C34.6685 1.31381 34.5607 2.17993 34.2911 2.99192C33.2127 6.40227 32.1344 9.75849 31.0021 13.1688C30.8404 13.656 30.9482 13.8726 31.3796 14.0891C33.1588 15.0093 34.9381 15.9837 36.3938 17.3912C38.9818 19.9354 40.5993 23.021 41.2463 26.6478C41.7855 29.7334 41.5159 32.7648 40.2219 35.6339C39.3053 37.6909 37.7417 39.2066 35.9086 40.4517C33.698 42.0215 31.2717 43.1583 28.5759 43.5913C26.1496 43.9703 23.7234 43.862 21.405 43.3207C18.5474 42.6711 15.6359 41.9132 12.8322 41.1012C11.1608 40.614 9.54327 40.5599 7.87185 40.7223C5.7691 40.9388 3.72026 41.1554 1.6175 41.2636C1.13225 41.2636 0.593085 40.8847 0.107834 40.6682L0 40.5599Z" fill="#6D3E67"/>
</svg>
