<svg width="20" height="20" viewBox="0 0 20 20" fill="none" xmlns="http://www.w3.org/2000/svg">
<path d="M16.5407 4.65926C16.5407 5.32593 16 5.85926 15.3407 5.85926C14.6815 5.85926 14.1407 5.31852 14.1407 4.65926C14.1407 3.99259 14.6815 3.45926 15.3407 3.45926C16 3.45926 16.5407 4 16.5407 4.65926ZM10 13.3333C11.8444 13.363 13.3556 11.8889 13.3852 10.0519C13.4148 8.21481 11.9407 6.6963 10.0963 6.66667C10.0667 6.66667 10.0296 6.66667 10 6.66667C8.15556 6.66667 6.66667 8.15556 6.66667 10C6.66667 11.8444 8.15556 13.3333 10 13.3333ZM10 4.86667C12.837 4.82963 15.163 7.1037 15.2 9.94074C15.237 12.7778 12.963 15.1037 10.1259 15.1407C10.0815 15.1407 10.0444 15.1407 10 15.1407C7.16296 15.1037 4.88889 12.7778 4.92593 9.94074C4.96296 7.14815 7.21481 4.8963 10 4.86667ZM10 1.8C7.33333 1.8 7.01481 1.80741 5.96296 1.85926C4.98519 1.9037 4.45185 2.06667 4.1037 2.2C3.66667 2.36296 3.27407 2.62222 2.95556 2.94815C2.62222 3.27407 2.36296 3.66667 2.20741 4.1037C2.07407 4.45926 1.91111 4.98519 1.86667 5.96296C1.81481 7.01481 1.8 7.32593 1.8 10C1.8 12.6667 1.80741 12.9852 1.85926 14.037C1.9037 15.0148 2.06667 15.5407 2.2 15.8963C2.38519 16.363 2.6 16.6963 2.94815 17.0444C3.2963 17.3926 3.62963 17.6074 4.0963 17.7926C4.45185 17.9259 4.97778 18.0889 5.95556 18.1407C7.00741 18.1926 7.32593 18.2 9.99259 18.2C12.6593 18.2 12.9778 18.1926 14.037 18.1407C15.0148 18.0963 15.5407 17.9333 15.8963 17.7926C16.3333 17.6296 16.7259 17.3778 17.0444 17.0444C17.3778 16.7185 17.6296 16.3259 17.7926 15.8963C17.9259 15.5407 18.0963 15.0148 18.1407 14.037C18.1926 12.9852 18.2 12.6667 18.2 10C18.2 7.33333 18.1926 7.01481 18.1407 5.95556C18.0963 4.97778 17.9333 4.45185 17.7926 4.0963C17.6296 3.65926 17.3778 3.26667 17.0444 2.94815C16.7185 2.61481 16.3259 2.36296 15.8963 2.2C15.5407 2.06667 15.0148 1.9037 14.037 1.85926C12.9852 1.81481 12.6741 1.8 10 1.8ZM10 0C12.7185 0 13.0593 0.00740741 14.1259 0.0592593C15.1926 0.111111 15.9185 0.274074 16.5556 0.525926C17.2222 0.777778 17.8296 1.17037 18.3259 1.68148C18.837 2.17778 19.2296 2.78519 19.4815 3.45185C19.7259 4.08889 19.8963 4.81481 19.9481 5.88148C19.9926 6.94074 20 7.28148 20 10C20 12.7185 19.9926 13.0593 19.9407 14.1259C19.8889 15.1926 19.7185 15.9185 19.4741 16.5556C19.2222 17.2222 18.8296 17.8296 18.3185 18.3259C17.8222 18.837 17.2148 19.2296 16.5481 19.4815C15.9111 19.7259 15.1852 19.8963 14.1185 19.9481C13.0593 19.9852 12.7185 20 10 20C7.28148 20 6.94074 19.9852 5.87407 19.9407C4.80741 19.8889 4.08148 19.7259 3.44444 19.4741C2.77778 19.2222 2.17037 18.8296 1.67407 18.3185C1.16296 17.8222 0.77037 17.2148 0.518519 16.5481C0.274074 15.9111 0.103704 15.1852 0.0518519 14.1185C0.0148148 13.0593 0 12.7185 0 10C0 7.28148 0.0148148 6.94074 0.0592593 5.87407C0.111111 4.81481 0.281481 4.08148 0.525926 3.45185C0.777778 2.78519 1.17037 2.17778 1.68148 1.68148C2.17778 1.17037 2.78519 0.777778 3.45185 0.525926C4.08889 0.274074 4.81481 0.111111 5.87407 0.0592593C6.94074 0.00740741 7.28889 0 10 0Z" fill="#633484"/>
</svg>
