<svg width="21" height="12" viewBox="0 0 21 12" fill="none" xmlns="http://www.w3.org/2000/svg">
<path d="M20.8133 10.7111C20.4472 10.0568 19.749 9.24886 18.7253 8.28738L18.6914 8.254C18.2033 7.79997 17.9051 7.49951 17.7831 7.34594C17.5593 7.05215 17.5051 6.75837 17.6271 6.45791C17.7153 6.23089 18.0406 5.75016 18.6101 5.02237C18.9084 4.63511 19.1456 4.3213 19.3219 4.0876C20.5828 2.40502 21.1319 1.33004 20.9624 0.862657L20.8946 0.755826C20.8539 0.689057 20.7387 0.628965 20.5557 0.57555C20.3726 0.522134 20.1421 0.50878 19.8574 0.548842L16.7052 0.568873C16.651 0.548842 16.5832 0.548842 16.4883 0.57555L16.3459 0.608934L16.2917 0.635642L16.251 0.662349C16.2035 0.695734 16.1629 0.729119 16.129 0.775857C16.0815 0.835949 16.0476 0.896041 16.0205 0.969487C15.6951 1.81746 15.3019 2.64539 14.8477 3.43994C14.6105 3.84056 14.3664 4.2345 14.1021 4.62176C13.8783 4.9556 13.6885 5.19597 13.5326 5.35622C13.3767 5.51646 13.2411 5.64333 13.1191 5.7368C12.9971 5.83028 12.9022 5.87034 12.8344 5.85699C12.7734 5.84363 12.7124 5.83028 12.6513 5.81025C12.5497 5.74348 12.4615 5.65 12.4073 5.54317C12.3395 5.40963 12.2988 5.26274 12.2785 5.11585C12.2582 4.96896 12.2446 4.82207 12.2378 4.6685C12.231 4.54164 12.2378 4.36804 12.2446 4.14102C12.2514 3.91401 12.2582 3.76044 12.2582 3.68031C12.2582 3.39988 12.2649 3.09942 12.2717 2.77893L12.2988 2.00441C12.3056 1.81746 12.3124 1.61047 12.3124 1.40349C12.3124 1.18983 12.2988 1.0229 12.2717 0.902718C12.2514 0.775857 12.2107 0.662349 12.1633 0.548842C12.1158 0.442011 12.0412 0.348535 11.9396 0.288442C11.8243 0.221673 11.7023 0.168258 11.5735 0.14155C11.1871 0.0547504 10.6922 0.00801229 10.0957 0.00133538C8.73986 -0.0120184 7.86537 0.0747813 7.47897 0.261735C7.32305 0.348535 7.18069 0.455365 7.06545 0.588903C6.93665 0.749149 6.91631 0.835949 7.01121 0.849303C7.44507 0.916072 7.75691 1.06964 7.93994 1.32336L8.00773 1.4569C8.05518 1.55038 8.10941 1.7173 8.16365 1.96435C8.2111 2.20472 8.245 2.47179 8.26533 2.76558C8.29923 3.29973 8.29923 3.75376 8.26533 4.13434C8.23144 4.51493 8.19076 4.80871 8.16365 5.02237C8.14331 5.20265 8.08908 5.37625 8.01451 5.5365C7.97383 5.61662 7.93316 5.70342 7.8857 5.77686C7.87215 5.79689 7.85181 5.81693 7.83148 5.83028C7.73657 5.86366 7.63488 5.88369 7.5332 5.88369C7.43151 5.88369 7.30949 5.83028 7.16035 5.73013C6.99088 5.60994 6.84174 5.46305 6.70616 5.30948C6.50957 5.07579 6.33332 4.82207 6.1774 4.55499C5.95369 4.18776 5.75032 3.80717 5.56729 3.41324L5.39103 3.09275C5.23512 2.79896 5.08598 2.4985 4.94362 2.19804C4.76059 1.82413 4.59111 1.45022 4.44197 1.06296C4.39452 0.922749 4.29961 0.802565 4.17759 0.709088L4.12336 0.675703C4.06913 0.635642 4.00812 0.608934 3.94711 0.582227C3.86576 0.548842 3.78441 0.522134 3.69628 0.50878L0.699964 0.528811C0.394909 0.528811 0.184761 0.59558 0.076297 0.735796L0.0356221 0.802565C0.00850605 0.85598 -0.00505144 0.916072 0.00172756 0.976164C0.00172756 1.05629 0.0220635 1.15644 0.0695165 1.26995C0.496594 2.28484 0.977903 3.2797 1.49989 4.25453C2.01509 5.216 2.4625 5.98385 2.84213 6.57142C3.22175 7.15898 3.60816 7.70649 4.00134 8.22729C4.39452 8.74809 4.6589 9.08193 4.78092 9.22883C4.90972 9.37572 5.01141 9.48255 5.0792 9.556L5.35036 9.81639C5.52661 9.98999 5.78422 10.2037 6.12317 10.444C6.46212 10.6911 6.83496 10.9314 7.24848 11.1651C7.662 11.3988 8.13653 11.5991 8.68563 11.746C9.20761 11.8929 9.74315 11.953 10.2855 11.9263H11.5464C11.804 11.9063 11.9938 11.8261 12.1294 11.6859L12.17 11.6325C12.1972 11.5858 12.2243 11.519 12.2514 11.4322C12.2785 11.3387 12.2921 11.2386 12.2921 11.1317C12.2853 10.8179 12.3056 10.5308 12.3598 10.2838C12.4141 10.0301 12.4751 9.8431 12.5497 9.71624C12.6513 9.52261 12.7937 9.36237 12.97 9.2355C12.9971 9.22215 13.031 9.2088 13.0581 9.19544C13.2343 9.13535 13.4377 9.19544 13.675 9.36904C13.9122 9.54264 14.1359 9.74963 14.3461 10.0033C14.5562 10.2571 14.8071 10.5375 15.0986 10.8513C15.3901 11.1651 15.6477 11.3988 15.8646 11.5524L16.0815 11.6859C16.2578 11.7861 16.4544 11.8662 16.651 11.9263C16.8814 11.9997 17.0916 12.0198 17.2611 11.9797L20.0608 11.933C20.3387 11.933 20.5557 11.8862 20.7048 11.7928C20.8607 11.6993 20.9488 11.5991 20.976 11.4923C21.0031 11.3855 21.0099 11.2586 20.9827 11.1184C20.9692 11.0182 20.9421 10.9248 20.9082 10.8313C20.8675 10.7979 20.8404 10.7512 20.8133 10.7111Z" fill="#633484"/>
</svg>
