<svg width="351" height="152" viewBox="0 0 351 152" fill="none" xmlns="http://www.w3.org/2000/svg">
<path d="M80.4377 133.274C91.5993 133.254 102.504 129.877 111.774 123.572C121.044 117.267 128.263 108.315 132.518 97.8495C136.773 87.3837 137.873 75.8733 135.68 64.7734C133.486 53.6735 128.097 43.4823 120.194 35.4883C112.291 27.4942 102.228 22.0561 91.2786 19.8613C80.3288 17.6666 68.9832 18.8137 58.676 23.1578C48.3689 27.5018 39.5629 34.8477 33.3713 44.2669C27.1796 53.6861 23.8803 64.7557 23.8904 76.0764C23.9242 91.2626 29.8976 105.815 40.4993 116.538C51.1011 127.262 65.4648 133.281 80.4377 133.274Z" fill="url(#paint0_linear)"/>
<path d="M17.6104 38.5315C23.9762 27.3254 33.0928 17.9808 44.0736 11.4063C55.0544 4.83182 67.5258 1.25124 80.2749 1.01275C93.0241 0.774252 105.617 3.88595 116.829 10.0453C128.042 16.2046 137.492 25.2019 144.261 36.1622C147.599 41.5821 150.241 47.412 152.124 53.5106" stroke="url(#paint1_linear)" stroke-width="2" stroke-linecap="round" stroke-linejoin="round"/>
<path d="M153.043 94.6806C149.363 108.814 141.685 121.545 130.955 131.305C120.226 141.064 106.914 147.424 92.6625 149.601C78.4109 151.777 63.8429 149.675 50.7556 143.553C37.6683 137.43 26.6342 127.557 19.0144 115.149C14.8122 108.365 11.7294 100.931 9.8877 93.14" stroke="url(#paint2_linear)" stroke-width="2" stroke-linecap="round" stroke-linejoin="round"/>
<path d="M17.6486 72.0112C17.9787 65.8501 19.1913 59.7705 21.2482 53.9637C25.1864 42.7937 32.0575 32.9267 41.12 25.4275C50.1824 17.9283 61.092 13.0817 72.6715 11.4108C84.2509 9.73983 96.0603 11.308 106.825 15.9461C117.59 20.5842 126.902 28.116 133.756 37.7288" stroke="url(#paint3_linear)" stroke-width="2" stroke-linecap="round" stroke-linejoin="round"/>
<path d="M142.142 97.3476C137.678 110.094 129.411 121.113 118.489 128.874C107.567 136.635 94.5322 140.753 81.1966 140.654C67.8609 140.556 54.8867 136.247 44.0768 128.326C33.2669 120.405 25.1583 109.265 20.8779 96.4543" stroke="url(#paint4_linear)" stroke-width="2" stroke-linecap="round" stroke-linejoin="round"/>
<path d="M11.6875 92.7645C12.5146 92.3237 13.2431 91.7146 13.8274 90.9752C14.4118 90.2358 14.8394 89.382 15.0835 88.4673C15.3277 87.5526 15.3831 86.5967 15.2463 85.6593C15.1096 84.7219 14.7836 83.8232 14.2887 83.0194C13.7939 82.2156 13.1408 81.5241 12.3704 80.988C11.5999 80.4519 10.7287 80.0828 9.81126 79.9039C8.89377 79.7249 7.94975 79.7399 7.03823 79.9479C6.12671 80.1558 5.26732 80.5524 4.5138 81.1126C3.68674 81.5534 2.95825 82.1626 2.37391 82.902C1.78957 83.6414 1.36195 84.4951 1.1178 85.4098C0.87365 86.3245 0.818221 87.2804 0.954981 88.2179C1.09174 89.1553 1.41775 90.054 1.91261 90.8577C2.40747 91.6615 3.06054 92.3531 3.83096 92.8891C4.60138 93.4252 5.47258 93.7943 6.39007 93.9733C7.30755 94.1522 8.25158 94.1373 9.16309 93.9293C10.0746 93.7213 10.934 93.3248 11.6875 92.7645ZM5.40733 82.5497C6.25845 81.9965 7.25232 81.7121 8.26299 81.7323C9.27366 81.7526 10.2557 82.0767 11.0846 82.6636C11.9135 83.2504 12.5519 84.0736 12.9191 85.0289C13.2863 85.9841 13.3657 87.0284 13.1471 88.0295C12.9286 89.0305 12.422 89.9432 11.6916 90.652C10.9611 91.3607 10.0397 91.8336 9.04403 92.0107C8.04836 92.1878 7.02326 92.0612 6.09861 91.6468C5.17396 91.2325 4.39139 90.5491 3.85004 89.6832C3.1271 88.5269 2.88508 87.1273 3.17691 85.7904C3.46875 84.4536 4.27069 83.2884 5.40733 82.5497Z" fill="url(#paint5_linear)"/>
<path d="M77.4253 63.9326L60.0143 89.023C59.6966 89.5516 59.259 89.9954 58.7379 90.3177C58.1402 90.6513 57.467 90.8209 56.7849 90.8096C55.8816 90.826 55.0042 90.5032 54.3213 89.9034C54.0261 89.6348 53.7646 89.3304 53.5427 88.9971L36.0424 63.9326C35.715 63.508 35.5195 62.9943 35.4807 62.4567C35.4807 61.421 36.17 60.929 37.5869 60.929H38.1868C38.6461 60.8728 39.1119 60.9177 39.5524 61.0607C39.993 61.2037 40.398 61.4414 40.7397 61.7576L56.7976 84.8801L72.7789 61.7576C73.1491 61.2268 74.0554 60.929 75.3319 60.929H75.7403C75.868 60.929 75.9446 60.929 75.9829 60.929C77.3997 61.0455 78.089 61.5375 78.089 62.4437C77.9859 62.986 77.7585 63.496 77.4253 63.9326Z" fill="white"/>
<path d="M86.5392 88.8676C86.5727 89.129 86.5465 89.3947 86.4627 89.6442C86.3789 89.8936 86.2398 90.1203 86.0561 90.3066C85.8724 90.493 85.6489 90.6341 85.4029 90.7191C85.1569 90.804 84.895 90.8306 84.6373 90.7967H83.0545C82.7963 90.8333 82.5332 90.8086 82.286 90.7246C82.0388 90.6406 81.8142 90.4996 81.6299 90.3126C81.4455 90.1256 81.3064 89.8978 81.2236 89.6471C81.1408 89.3963 81.1165 89.1295 81.1526 88.8676V62.8192C81.1165 62.5573 81.1408 62.2905 81.2236 62.0398C81.3064 61.7891 81.4455 61.5612 81.6299 61.3743C81.8142 61.1873 82.0388 61.0462 82.286 60.9622C82.5332 60.8782 82.7963 60.8536 83.0545 60.8902H84.6373C84.895 60.8563 85.1569 60.8828 85.4029 60.9678C85.6489 61.0527 85.8724 61.1938 86.0561 61.3802C86.2398 61.5666 86.3789 61.7932 86.4627 62.0427C86.5465 62.2922 86.5727 62.5578 86.5392 62.8192V88.8676Z" fill="white"/>
<path d="M129.377 72.0889C129.386 73.3207 129.024 74.5257 128.339 75.5435C127.655 76.5612 126.681 77.3432 125.548 77.7854C123.008 78.9436 120.238 79.4929 117.455 79.3908H108.52L126.505 87.1587C126.914 87.2678 127.277 87.5086 127.539 87.8448C127.802 88.1809 127.949 88.5944 127.96 89.023C127.96 90.3176 127.22 90.8744 125.803 90.8355C124.801 90.8458 123.799 90.7896 122.804 90.6672L98.3082 79.9604V88.8288C98.3443 89.0907 98.32 89.3575 98.2372 89.6082C98.1543 89.8589 98.0153 90.0868 97.8309 90.2737C97.6466 90.4607 97.422 90.6018 97.1748 90.6858C96.9275 90.7698 96.6645 90.7944 96.4063 90.7578H94.7597C94.502 90.7917 94.24 90.7652 93.9941 90.6802C93.7481 90.5953 93.5246 90.4542 93.3409 90.2678C93.1571 90.0814 93.018 89.8548 92.9343 89.6053C92.8505 89.3558 92.8243 89.0902 92.8577 88.8288V62.8192C92.8243 62.5578 92.8505 62.2922 92.9343 62.0427C93.018 61.7932 93.1571 61.5665 93.3409 61.3802C93.5246 61.1938 93.7481 61.0527 93.9941 60.9678C94.24 60.8828 94.502 60.8563 94.7597 60.8902H116.46C119.284 60.7997 122.101 61.2386 124.769 62.1848C127.846 63.4795 129.39 65.4991 129.39 68.4121L129.377 72.0889ZM123.978 72.0889V68.3085C123.978 66.3406 121.425 65.3179 116.447 65.3179H98.3082V74.8724H117.455C121.757 74.9242 123.978 73.9791 123.978 72.1925V72.0889Z" fill="white"/>
<path d="M164.263 63.4406C164.299 63.7025 164.275 63.9693 164.192 64.22C164.109 64.4708 163.97 64.6986 163.786 64.8856C163.601 65.0725 163.377 65.2136 163.13 65.2976C162.882 65.3816 162.619 65.4063 162.361 65.3697H150.452V88.8676C150.486 89.1302 150.459 89.3972 150.375 89.6478C150.29 89.8984 150.15 90.1258 149.965 90.3125C149.78 90.4991 149.554 90.6399 149.307 90.7239C149.059 90.8078 148.796 90.8328 148.537 90.7967H146.967C146.708 90.8328 146.445 90.8078 146.197 90.7239C145.95 90.6399 145.724 90.4991 145.539 90.3125C145.354 90.1258 145.214 89.8984 145.129 89.6478C145.045 89.3972 145.018 89.1302 145.052 88.8676V65.3697H133.181C132.923 65.4036 132.662 65.377 132.416 65.292C132.17 65.2071 131.946 65.066 131.762 64.8796C131.579 64.6933 131.44 64.4666 131.356 64.2171C131.272 63.9676 131.246 63.702 131.279 63.4406V62.8192C131.246 62.5578 131.272 62.2922 131.356 62.0427C131.44 61.7932 131.579 61.5665 131.762 61.3802C131.946 61.1938 132.17 61.0527 132.416 60.9678C132.662 60.8828 132.923 60.8563 133.181 60.8902H162.361C162.619 60.8563 162.881 60.8828 163.127 60.9678C163.373 61.0527 163.596 61.1938 163.78 61.3802C163.964 61.5665 164.103 61.7932 164.186 62.0427C164.27 62.2922 164.296 62.5578 164.263 62.8192V63.4406Z" fill="white"/>
<path d="M204.255 82.3814C204.255 88.0002 199.43 90.7967 189.818 90.7967H182.287C174.794 90.7967 170.25 89.3985 168.705 86.602C168.079 85.2895 167.789 83.8378 167.863 82.3814V62.8192C167.826 62.5548 167.85 62.2854 167.934 62.0324C168.019 61.7793 168.16 61.5499 168.347 61.3623C168.535 61.1748 168.763 61.0344 169.013 60.9524C169.264 60.8704 169.53 60.8491 169.79 60.8902H171.373C171.631 60.8563 171.893 60.8828 172.139 60.9678C172.385 61.0527 172.608 61.1938 172.792 61.3802C172.976 61.5666 173.115 61.7932 173.198 62.0427C173.282 62.2922 173.308 62.5578 173.275 62.8192V82.0189C173.275 83.8962 174.411 85.1779 176.721 85.7864C178.583 86.1899 180.486 86.368 182.389 86.3172H189.805C191.709 86.3825 193.615 86.2305 195.485 85.864C197.745 85.2556 198.932 83.9868 198.932 82.0578V62.8192C198.896 62.5573 198.92 62.2905 199.003 62.0398C199.086 61.7891 199.225 61.5612 199.409 61.3743C199.593 61.1873 199.818 61.0462 200.065 60.9622C200.312 60.8782 200.576 60.8536 200.834 60.8902H202.417C202.669 60.8669 202.924 60.9014 203.162 60.991C203.4 61.0807 203.615 61.2233 203.791 61.4084C203.967 61.5934 204.1 61.8162 204.181 62.0604C204.261 62.3045 204.286 62.5638 204.255 62.8192V82.3814Z" fill="white"/>
<path d="M248.28 88.039C248.324 88.2826 248.35 88.5293 248.356 88.777C248.368 89.1441 248.302 89.5094 248.163 89.8487C248.024 90.1879 247.816 90.4934 247.552 90.7448C246.992 91.243 246.267 91.5068 245.523 91.4828C245.048 91.4485 244.59 91.2912 244.192 91.026C243.794 90.7608 243.47 90.3966 243.251 89.9681L238.464 82.964H215.743L211.007 89.9681C210.897 90.2009 210.745 90.4115 210.56 90.5895C210.394 90.758 210.194 90.8889 209.974 90.9736C209.754 91.0584 209.519 91.0951 209.284 91.0814C208.843 91.1114 208.401 91.0246 208.003 90.8294C207.604 90.6342 207.263 90.3374 207.012 89.9681C206.816 89.6906 206.701 89.3632 206.68 89.023C206.684 88.8552 206.714 88.6892 206.769 88.531L223.785 62.2107C224.126 61.6558 224.615 61.2104 225.196 60.9262C225.776 60.642 226.425 60.5308 227.065 60.6053C228.814 60.683 229.822 61.2267 230.192 62.2107L248.28 88.039ZM235.311 78.4068L227.116 66.2241L218.896 78.4068H235.311Z" fill="white"/>
<path d="M285.948 88.8676C285.982 89.129 285.955 89.3946 285.872 89.6441C285.788 89.8936 285.649 90.1203 285.465 90.3066C285.281 90.493 285.058 90.6341 284.812 90.719C284.566 90.804 284.304 90.8306 284.046 90.7967H267.159C264.897 90.8675 262.634 90.7419 260.393 90.4212C255.122 89.3596 252.454 86.8091 252.454 82.9122V62.7803C252.418 62.5184 252.442 62.2516 252.525 62.0009C252.608 61.7502 252.747 61.5224 252.931 61.3354C253.115 61.1484 253.34 61.0074 253.587 60.9234C253.834 60.8394 254.097 60.8147 254.356 60.8513H255.938C256.198 60.813 256.463 60.8363 256.712 60.9193C256.962 61.0022 257.188 61.1427 257.375 61.3296C257.562 61.5165 257.703 61.7448 257.789 61.9965C257.874 62.2482 257.9 62.5165 257.866 62.7803V82.9122C257.866 84.5176 259.142 85.5015 261.695 86.0323C263.523 86.2809 265.367 86.3761 267.21 86.3172H284.148C284.398 86.3 284.648 86.339 284.881 86.4314C285.114 86.5237 285.324 86.6672 285.496 86.8516C285.668 87.0359 285.798 87.2565 285.876 87.4976C285.954 87.7387 285.979 87.9943 285.948 88.2462V88.8676Z" fill="white"/>
<path d="M179.9 108.171C179.9 109.712 178.776 110.475 176.504 110.475H172.445C172.015 110.472 171.586 110.415 171.169 110.307C169.663 109.945 168.909 109.258 168.909 108.262V107.278C168.916 106.881 169.041 106.497 169.27 106.175C169.498 105.853 169.818 105.61 170.186 105.478C170.895 105.154 171.668 104.999 172.445 105.025H178.304C178.228 104.494 177.577 104.235 176.351 104.235H175.075C174.991 104.248 174.906 104.241 174.826 104.215C174.745 104.188 174.672 104.143 174.613 104.082C174.553 104.022 174.508 103.948 174.482 103.866C174.456 103.785 174.449 103.698 174.462 103.614V103.445C174.451 103.36 174.46 103.273 174.488 103.192C174.516 103.111 174.562 103.037 174.622 102.977C174.683 102.917 174.757 102.872 174.837 102.845C174.918 102.818 175.004 102.811 175.087 102.824H175.994C178.623 102.824 179.938 103.601 179.938 105.167L179.9 108.171ZM178.24 108.262V106.436H172.343C171.996 106.444 171.651 106.505 171.322 106.617C170.811 106.773 170.556 106.993 170.556 107.278V108.249C170.556 108.559 170.85 108.792 171.45 108.922L172.394 109.064H176.517C177.666 109.064 178.24 108.792 178.24 108.262Z" fill="white"/>
<path d="M192.409 108.184C192.399 108.618 192.249 109.037 191.982 109.376C191.714 109.716 191.344 109.956 190.928 110.061C190.109 110.356 189.244 110.497 188.375 110.475H185.899C183.206 110.475 181.853 109.712 181.853 108.184V103.445C181.84 103.361 181.846 103.274 181.873 103.193C181.899 103.111 181.943 103.037 182.003 102.977C182.063 102.916 182.136 102.871 182.216 102.844C182.297 102.818 182.382 102.811 182.465 102.824H182.899C182.983 102.811 183.068 102.818 183.148 102.844C183.229 102.871 183.302 102.916 183.362 102.977C183.421 103.037 183.466 103.111 183.492 103.193C183.518 103.274 183.525 103.361 183.512 103.445V108.184C183.512 108.766 184.303 109.064 185.899 109.064H188.375C189.933 109.064 190.711 108.779 190.711 108.21V103.445C190.698 103.361 190.705 103.274 190.731 103.193C190.757 103.111 190.802 103.037 190.862 102.977C190.922 102.916 190.995 102.871 191.075 102.844C191.155 102.818 191.241 102.811 191.324 102.824H191.771C191.855 102.811 191.94 102.818 192.021 102.845C192.102 102.872 192.175 102.917 192.236 102.977C192.297 103.037 192.343 103.111 192.37 103.192C192.398 103.273 192.407 103.36 192.396 103.445L192.409 108.184Z" fill="white"/>
<path d="M194.477 104.287C194.393 104.3 194.307 104.292 194.227 104.266C194.146 104.239 194.072 104.194 194.012 104.134C193.951 104.074 193.905 104 193.877 103.919C193.85 103.838 193.841 103.751 193.852 103.666V103.497C193.841 103.412 193.85 103.325 193.877 103.244C193.905 103.163 193.951 103.089 194.012 103.029C194.072 102.968 194.146 102.923 194.227 102.897C194.307 102.87 194.393 102.863 194.477 102.876H195.051V101.374C195.041 101.289 195.049 101.202 195.077 101.121C195.105 101.039 195.151 100.966 195.212 100.905C195.272 100.845 195.346 100.8 195.427 100.774C195.507 100.747 195.593 100.74 195.677 100.753H196.111C196.194 100.739 196.28 100.746 196.36 100.773C196.44 100.799 196.513 100.845 196.573 100.905C196.633 100.966 196.677 101.04 196.704 101.121C196.73 101.203 196.737 101.289 196.724 101.374V102.876H199.353C199.437 102.862 199.522 102.869 199.602 102.896C199.682 102.922 199.755 102.968 199.815 103.028C199.875 103.089 199.92 103.163 199.946 103.245C199.972 103.326 199.979 103.413 199.966 103.497V103.666C199.979 103.75 199.972 103.837 199.946 103.918C199.92 104 199.875 104.074 199.815 104.134C199.755 104.195 199.682 104.24 199.602 104.267C199.522 104.293 199.437 104.3 199.353 104.287H196.724V109.841C196.736 109.926 196.729 110.013 196.703 110.095C196.677 110.177 196.632 110.251 196.573 110.313C196.513 110.374 196.441 110.421 196.361 110.449C196.28 110.477 196.195 110.486 196.111 110.475H195.677C195.592 110.489 195.505 110.481 195.423 110.454C195.341 110.427 195.267 110.38 195.206 110.319C195.145 110.257 195.099 110.182 195.072 110.099C195.046 110.016 195.038 109.927 195.051 109.841V104.287H194.477Z" fill="white"/>
<path d="M211.824 108.093C211.83 108.52 211.704 108.938 211.463 109.289C211.223 109.639 210.88 109.905 210.484 110.048C209.74 110.36 208.939 110.506 208.135 110.475H205.378C203.591 110.475 202.416 110.022 201.829 109.181C201.629 108.874 201.522 108.513 201.523 108.145V105.271C201.528 104.953 201.609 104.642 201.757 104.362C201.906 104.083 202.119 103.844 202.378 103.666C203.25 103.048 204.304 102.752 205.365 102.824H208.084C210.535 102.824 211.773 103.64 211.773 105.258L211.824 108.093ZM210.126 108.093V105.154C210.126 104.546 209.45 104.235 208.084 104.235H205.391C204.959 104.236 204.529 104.297 204.114 104.416C203.527 104.598 203.233 104.883 203.233 105.271V108.093C203.233 108.469 203.527 108.741 204.127 108.909C204.545 109.014 204.973 109.066 205.403 109.064H208.084C208.516 109.07 208.947 109.009 209.36 108.883C209.858 108.715 210.126 108.443 210.126 108.093Z" fill="white"/>
<path d="M224.295 110.229C224.295 111.097 223.746 111.744 222.648 112.158C221.778 112.46 220.862 112.605 219.942 112.586H219.24C219.157 112.599 219.072 112.592 218.991 112.566C218.911 112.539 218.838 112.494 218.778 112.433C218.718 112.372 218.674 112.298 218.648 112.217C218.621 112.135 218.615 112.049 218.628 111.964V111.796C218.615 111.711 218.621 111.625 218.648 111.543C218.674 111.462 218.718 111.388 218.778 111.327C218.838 111.267 218.911 111.221 218.991 111.195C219.072 111.168 219.157 111.161 219.24 111.175H220.453C220.887 111.157 221.317 111.079 221.729 110.941C222.329 110.76 222.636 110.579 222.636 110.411H218.079C217.177 110.44 216.278 110.304 215.424 110.009C214.994 109.895 214.613 109.641 214.341 109.285C214.069 108.929 213.92 108.492 213.917 108.041V105.206C213.922 104.803 214.047 104.411 214.274 104.081C214.502 103.751 214.823 103.498 215.194 103.355C215.971 102.981 216.824 102.799 217.683 102.824H220.134C221.047 102.799 221.956 102.948 222.814 103.264C223.253 103.369 223.646 103.617 223.932 103.97C224.218 104.324 224.381 104.762 224.397 105.219L224.295 110.229ZM222.61 109.012V105.297C222.61 104.908 222.304 104.624 221.678 104.429C221.23 104.298 220.766 104.233 220.3 104.235H217.67C217.243 104.223 216.815 104.253 216.394 104.326C215.832 104.455 215.564 104.74 215.564 105.167V108.029C215.564 108.676 216.381 109.012 218.028 109.012H222.61Z" fill="white"/>
<path d="M231.277 103.614C231.288 103.699 231.279 103.786 231.251 103.867C231.224 103.948 231.178 104.022 231.117 104.082C231.056 104.142 230.983 104.188 230.902 104.214C230.821 104.241 230.736 104.248 230.652 104.235H229.886C228.609 104.235 228.022 104.559 228.022 105.193V109.841C228.035 109.926 228.028 110.013 228.002 110.095C227.975 110.177 227.931 110.251 227.872 110.313C227.812 110.374 227.74 110.421 227.659 110.449C227.579 110.477 227.494 110.486 227.41 110.475H226.963C226.878 110.489 226.791 110.481 226.709 110.454C226.627 110.427 226.553 110.38 226.492 110.319C226.431 110.257 226.385 110.182 226.358 110.099C226.332 110.016 226.324 109.927 226.337 109.841V105.193C226.337 104.783 226.459 104.382 226.687 104.042C226.914 103.703 227.237 103.441 227.614 103.29C228.361 102.957 229.172 102.797 229.988 102.824H230.652C230.736 102.811 230.821 102.818 230.902 102.845C230.983 102.872 231.056 102.917 231.117 102.977C231.178 103.037 231.224 103.111 231.251 103.192C231.279 103.273 231.288 103.36 231.277 103.445V103.614Z" fill="white"/>
<path d="M244.093 108.171C244.093 109.712 242.957 110.475 240.685 110.475H236.626C236.195 110.471 235.767 110.414 235.349 110.307C233.843 109.945 233.09 109.258 233.09 108.261V107.278C233.096 106.881 233.222 106.497 233.45 106.175C233.678 105.853 233.998 105.61 234.366 105.478C235.076 105.154 235.848 104.999 236.626 105.025H242.497C242.408 104.494 241.757 104.235 240.544 104.235H239.268C239.184 104.248 239.099 104.241 239.019 104.215C238.938 104.188 238.866 104.143 238.806 104.082C238.746 104.022 238.701 103.948 238.675 103.866C238.649 103.785 238.642 103.698 238.655 103.614V103.445C238.642 103.361 238.649 103.274 238.675 103.193C238.701 103.111 238.746 103.037 238.806 102.977C238.866 102.916 238.938 102.871 239.019 102.844C239.099 102.818 239.184 102.811 239.268 102.824H240.187C242.816 102.824 244.131 103.601 244.131 105.167L244.093 108.171ZM242.434 108.261V106.436H236.536C236.185 106.444 235.836 106.505 235.502 106.617C234.992 106.773 234.736 106.993 234.736 107.278V108.249C234.736 108.559 235.043 108.792 235.63 108.922L236.587 109.064H240.698C241.859 109.064 242.434 108.792 242.434 108.261Z" fill="white"/>
<path d="M256.487 108.041C256.487 109.621 255.288 110.411 252.901 110.411H247.654V111.964C247.667 112.049 247.661 112.135 247.634 112.217C247.608 112.298 247.563 112.372 247.504 112.433C247.444 112.494 247.371 112.539 247.291 112.566C247.21 112.592 247.125 112.599 247.042 112.586H246.608C246.524 112.599 246.439 112.592 246.358 112.566C246.278 112.539 246.205 112.494 246.145 112.433C246.086 112.372 246.041 112.298 246.015 112.217C245.989 112.135 245.982 112.049 245.995 111.964V105.09C245.973 104.673 246.086 104.26 246.316 103.914C246.546 103.568 246.882 103.308 247.271 103.174C248.093 102.897 248.959 102.778 249.824 102.824H252.479C255.147 102.824 256.475 103.575 256.475 105.077L256.487 108.041ZM254.802 108.041V105.064C254.802 104.662 254.496 104.403 253.871 104.274C253.416 104.244 252.96 104.244 252.505 104.274H249.952C248.484 104.274 247.744 104.572 247.744 105.167V109.051H252.939C254.164 109.012 254.802 108.689 254.802 108.067V108.041Z" fill="white"/>
<path d="M268.971 109.841C268.984 109.926 268.977 110.013 268.95 110.095C268.924 110.177 268.88 110.251 268.82 110.313C268.761 110.374 268.688 110.421 268.608 110.449C268.528 110.477 268.443 110.486 268.358 110.475H267.924C267.84 110.486 267.755 110.477 267.675 110.449C267.594 110.421 267.522 110.374 267.462 110.313C267.403 110.251 267.359 110.177 267.332 110.095C267.306 110.013 267.299 109.926 267.312 109.841V105.336C267.312 104.87 267.031 104.559 266.469 104.403C266.012 104.309 265.545 104.27 265.078 104.287H260.189V109.841C260.202 109.926 260.194 110.013 260.168 110.095C260.142 110.177 260.098 110.251 260.038 110.313C259.979 110.374 259.906 110.421 259.826 110.449C259.746 110.477 259.661 110.486 259.576 110.475H259.142C259.058 110.486 258.973 110.477 258.893 110.449C258.812 110.421 258.74 110.374 258.68 110.313C258.621 110.251 258.577 110.177 258.55 110.095C258.524 110.013 258.517 109.926 258.53 109.841V101.374C258.517 101.289 258.523 101.203 258.55 101.121C258.576 101.04 258.62 100.966 258.68 100.905C258.74 100.845 258.813 100.799 258.893 100.773C258.974 100.746 259.059 100.739 259.142 100.753H259.576C259.66 100.739 259.745 100.746 259.825 100.773C259.906 100.799 259.979 100.845 260.039 100.905C260.098 100.966 260.143 101.04 260.169 101.121C260.195 101.203 260.202 101.289 260.189 101.374V102.876H264.682C265.629 102.836 266.576 102.945 267.49 103.199C267.937 103.328 268.327 103.607 268.596 103.991C268.865 104.375 268.998 104.84 268.971 105.31V109.841Z" fill="white"/>
<path d="M277.013 106.617C277.024 106.703 277.015 106.789 276.987 106.871C276.959 106.952 276.913 107.026 276.853 107.086C276.792 107.146 276.718 107.191 276.638 107.218C276.557 107.244 276.471 107.251 276.387 107.239H271.218C271.134 107.252 271.049 107.245 270.969 107.219C270.888 107.192 270.815 107.147 270.756 107.086C270.696 107.025 270.651 106.951 270.625 106.87C270.599 106.789 270.592 106.702 270.605 106.617V106.19C270.592 106.105 270.599 106.019 270.625 105.937C270.651 105.856 270.696 105.782 270.756 105.721C270.815 105.661 270.888 105.615 270.969 105.589C271.049 105.562 271.134 105.555 271.218 105.569H276.387C276.471 105.556 276.557 105.563 276.638 105.59C276.718 105.616 276.792 105.661 276.853 105.722C276.913 105.782 276.959 105.855 276.987 105.937C277.015 106.018 277.024 106.105 277.013 106.19V106.617Z" fill="white"/>
<path d="M287.901 108.287C287.901 109.75 286.803 110.475 284.621 110.475H278.991C278.907 110.486 278.822 110.477 278.742 110.449C278.661 110.421 278.589 110.374 278.529 110.313C278.47 110.251 278.426 110.177 278.399 110.095C278.373 110.013 278.366 109.926 278.379 109.841V109.737C278.366 109.652 278.373 109.565 278.399 109.484C278.426 109.402 278.47 109.327 278.529 109.266C278.589 109.204 278.661 109.158 278.742 109.129C278.822 109.101 278.907 109.092 278.991 109.103H284.672C285.718 109.103 286.229 108.844 286.229 108.326V108.041C286.229 107.575 285.757 107.342 284.812 107.342H282.119C281.307 107.376 280.496 107.271 279.719 107.032C279.342 106.918 279.013 106.681 278.782 106.358C278.551 106.035 278.432 105.644 278.443 105.245V104.818C278.443 103.523 279.642 102.863 282.029 102.863H283.306C283.39 102.85 283.475 102.857 283.556 102.884C283.637 102.91 283.71 102.956 283.771 103.016C283.832 103.076 283.878 103.15 283.905 103.231C283.933 103.312 283.942 103.399 283.931 103.484V103.653C283.942 103.738 283.933 103.825 283.905 103.906C283.878 103.987 283.832 104.061 283.771 104.121C283.71 104.181 283.637 104.226 283.556 104.253C283.475 104.28 283.39 104.287 283.306 104.274H282.119C281.48 104.274 281.11 104.274 280.995 104.274C280.434 104.274 280.166 104.52 280.166 104.792V105.193C280.166 105.478 280.344 105.659 280.715 105.763C281.178 105.842 281.649 105.872 282.119 105.854H284.876C286.918 105.854 287.939 106.553 287.939 107.925L287.901 108.287Z" fill="white"/>
<path d="M299.989 106.786C299.989 107.239 299.836 107.472 299.53 107.472H291.271C291.271 108.533 291.986 109.064 293.428 109.064H294.705C294.789 109.053 294.874 109.062 294.954 109.09C295.035 109.119 295.107 109.165 295.167 109.227C295.226 109.288 295.27 109.363 295.297 109.445C295.323 109.527 295.33 109.614 295.317 109.699V109.841C295.33 109.926 295.323 110.013 295.297 110.095C295.27 110.177 295.226 110.251 295.167 110.313C295.107 110.374 295.035 110.421 294.954 110.449C294.874 110.477 294.789 110.486 294.705 110.475H293.607C292.737 110.501 291.87 110.356 291.054 110.048C290.633 109.919 290.265 109.655 290.005 109.295C289.745 108.936 289.607 108.5 289.612 108.054V105.245C289.613 104.802 289.754 104.372 290.014 104.015C290.273 103.659 290.637 103.396 291.054 103.264C291.865 102.933 292.733 102.775 293.607 102.798H296.709C297.454 102.778 298.195 102.924 298.879 103.225C299.223 103.352 299.522 103.582 299.734 103.885C299.946 104.188 300.062 104.55 300.066 104.921L299.989 106.786ZM298.368 106.009V105.077C298.368 104.792 298.049 104.572 297.411 104.416C296.994 104.306 296.565 104.249 296.134 104.248H293.722C292.05 104.248 291.169 104.546 291.169 105.141V106.009H298.368Z" fill="white"/>
<path d="M311.477 108.287C311.477 109.75 310.38 110.475 308.184 110.475H302.542C302.458 110.486 302.372 110.477 302.292 110.449C302.212 110.421 302.139 110.374 302.08 110.313C302.021 110.251 301.976 110.177 301.95 110.095C301.924 110.013 301.917 109.926 301.929 109.841V109.737C301.917 109.652 301.924 109.565 301.95 109.484C301.976 109.402 302.021 109.327 302.08 109.266C302.139 109.204 302.212 109.158 302.292 109.129C302.372 109.101 302.458 109.092 302.542 109.103H308.184C309.218 109.103 309.741 108.844 309.741 108.326V108.041C309.741 107.575 309.269 107.342 308.324 107.342H305.618C304.807 107.376 303.996 107.271 303.219 107.032C302.842 106.918 302.512 106.681 302.281 106.358C302.051 106.035 301.931 105.644 301.942 105.245V104.818C301.942 103.523 303.142 102.863 305.529 102.863H306.805C306.889 102.85 306.975 102.857 307.056 102.884C307.136 102.91 307.21 102.956 307.271 103.016C307.331 103.076 307.377 103.15 307.405 103.231C307.433 103.312 307.442 103.399 307.431 103.484V103.653C307.442 103.738 307.433 103.825 307.405 103.906C307.377 103.987 307.331 104.061 307.271 104.121C307.21 104.181 307.136 104.226 307.056 104.253C306.975 104.28 306.889 104.287 306.805 104.274H305.606C304.98 104.274 304.61 104.274 304.482 104.274C303.933 104.274 303.653 104.52 303.653 104.792V105.193C303.653 105.478 303.844 105.659 304.214 105.763C304.715 105.859 305.224 105.898 305.733 105.879H308.478C310.533 105.879 311.554 106.579 311.554 107.951L311.477 108.287Z" fill="white"/>
<path d="M322.71 108.287C322.71 109.75 321.613 110.475 319.417 110.475H313.801C313.716 110.486 313.631 110.477 313.551 110.449C313.471 110.421 313.398 110.374 313.339 110.313C313.279 110.251 313.235 110.177 313.209 110.095C313.182 110.013 313.175 109.926 313.188 109.841V109.737C313.175 109.652 313.182 109.565 313.209 109.484C313.235 109.402 313.279 109.327 313.339 109.266C313.398 109.204 313.471 109.158 313.551 109.129C313.631 109.101 313.716 109.092 313.801 109.103H319.443C320.477 109.103 321 108.844 321 108.326V108.041C321 107.575 320.515 107.342 319.57 107.342H316.864C316.053 107.376 315.241 107.271 314.464 107.032C314.086 106.92 313.756 106.683 313.525 106.36C313.293 106.037 313.175 105.644 313.188 105.245V104.818C313.188 103.523 314.375 102.863 316.775 102.863H318.051C318.135 102.85 318.22 102.856 318.3 102.883C318.381 102.91 318.454 102.955 318.513 103.016C318.573 103.076 318.618 103.15 318.644 103.232C318.67 103.313 318.677 103.4 318.664 103.484V103.653C318.677 103.737 318.67 103.824 318.644 103.905C318.618 103.987 318.573 104.061 318.513 104.121C318.454 104.182 318.381 104.227 318.3 104.254C318.22 104.28 318.135 104.287 318.051 104.274H316.851C316.226 104.274 315.843 104.274 315.728 104.274C315.179 104.274 314.898 104.52 314.898 104.792V105.193C314.898 105.478 315.077 105.659 315.447 105.763C315.948 105.859 316.457 105.898 316.966 105.879H319.723C321.766 105.879 322.8 106.578 322.8 107.951L322.71 108.287Z" fill="white"/>
<path d="M326.361 102.41C326.364 102.539 326.334 102.666 326.274 102.78C326.213 102.894 326.125 102.989 326.016 103.057C325.805 103.21 325.549 103.287 325.289 103.277C325.025 103.283 324.767 103.206 324.548 103.057C324.44 102.988 324.351 102.893 324.289 102.78C324.227 102.666 324.195 102.539 324.195 102.41C324.195 102.28 324.227 102.153 324.289 102.04C324.351 101.927 324.44 101.831 324.548 101.762C324.767 101.613 325.025 101.536 325.289 101.542C325.548 101.534 325.804 101.611 326.016 101.762C326.125 101.83 326.213 101.926 326.274 102.039C326.334 102.153 326.364 102.281 326.361 102.41ZM326.118 109.841C326.131 109.926 326.124 110.013 326.098 110.095C326.072 110.177 326.027 110.251 325.968 110.313C325.908 110.374 325.836 110.421 325.756 110.449C325.675 110.477 325.59 110.486 325.506 110.475H325.097C325.012 110.489 324.925 110.481 324.843 110.454C324.762 110.427 324.687 110.38 324.626 110.319C324.565 110.257 324.52 110.182 324.493 110.099C324.466 110.016 324.459 109.927 324.472 109.841V104.054C324.461 103.969 324.47 103.882 324.498 103.801C324.525 103.719 324.572 103.646 324.632 103.585C324.693 103.525 324.766 103.48 324.847 103.453C324.928 103.427 325.013 103.42 325.097 103.432H325.518C325.602 103.419 325.687 103.426 325.768 103.453C325.848 103.479 325.921 103.525 325.981 103.585C326.04 103.646 326.085 103.72 326.111 103.801C326.137 103.883 326.144 103.969 326.131 104.054L326.118 109.841Z" fill="white"/>
<path d="M338.475 108.093C338.487 108.513 338.371 108.926 338.142 109.276C337.914 109.626 337.584 109.896 337.198 110.048C336.455 110.36 335.654 110.506 334.85 110.475H332.029C331.38 110.573 330.717 110.505 330.1 110.279C329.483 110.054 328.931 109.676 328.493 109.181C328.292 108.874 328.185 108.513 328.186 108.145V105.271C328.192 104.953 328.272 104.642 328.421 104.362C328.57 104.083 328.783 103.844 329.042 103.666C329.914 103.048 330.968 102.752 332.029 102.824H334.798C337.249 102.824 338.475 103.64 338.475 105.258V108.093ZM336.79 108.093V105.154C336.79 104.546 336.113 104.235 334.747 104.235H332.054C331.622 104.236 331.193 104.297 330.778 104.416C330.19 104.598 329.897 104.883 329.897 105.271V108.093C329.897 108.469 330.19 108.741 330.79 108.909C331.208 109.015 331.637 109.067 332.067 109.064H334.773C335.184 109.064 335.592 109.003 335.986 108.883C336.522 108.715 336.79 108.443 336.79 108.093Z" fill="white"/>
<path d="M350.818 109.841C350.83 109.926 350.823 110.013 350.797 110.095C350.771 110.177 350.727 110.251 350.667 110.313C350.608 110.374 350.535 110.421 350.455 110.449C350.375 110.477 350.289 110.486 350.205 110.475H349.771C349.686 110.489 349.599 110.481 349.517 110.454C349.435 110.427 349.361 110.381 349.3 110.319C349.239 110.257 349.194 110.182 349.167 110.099C349.14 110.016 349.133 109.927 349.146 109.841V104.973C349.146 104.675 348.967 104.468 348.597 104.365C348.084 104.261 347.562 104.218 347.04 104.235H344.333C343.798 104.211 343.262 104.254 342.738 104.365C342.368 104.468 342.176 104.675 342.176 104.986V109.841C342.189 109.926 342.182 110.013 342.156 110.095C342.129 110.177 342.085 110.251 342.026 110.313C341.966 110.374 341.894 110.421 341.813 110.449C341.733 110.477 341.648 110.486 341.564 110.475H341.13C341.045 110.486 340.96 110.477 340.88 110.449C340.8 110.421 340.727 110.374 340.668 110.313C340.608 110.251 340.564 110.177 340.538 110.095C340.511 110.013 340.504 109.926 340.517 109.841V104.999C340.517 103.549 341.793 102.824 344.346 102.824H347.052C349.605 102.824 350.882 103.536 350.882 104.986L350.818 109.841Z" fill="white"/>
<defs>
<linearGradient id="paint0_linear" x1="47.8879" y1="-12.7369" x2="112.006" y2="157.137" gradientUnits="userSpaceOnUse">
<stop stop-color="#E20613"/>
<stop offset="1" stop-color="#E20613"/>
</linearGradient>
<linearGradient id="paint1_linear" x1="13584.7" y1="90950.4" x2="9762.97" y2="84834.7" gradientUnits="userSpaceOnUse">
<stop stop-color="#E20613"/>
<stop offset="1" stop-color="#E20613"/>
</linearGradient>
<linearGradient id="paint2_linear" x1="15370.4" y1="96776.6" x2="10553.4" y2="89260" gradientUnits="userSpaceOnUse">
<stop stop-color="#E20613"/>
<stop offset="1" stop-color="#E20613"/>
</linearGradient>
<linearGradient id="paint3_linear" x1="6809.91" y1="103295" x2="6784.7" y2="106182" gradientUnits="userSpaceOnUse">
<stop stop-color="#E20613"/>
<stop offset="1" stop-color="#E20613"/>
</linearGradient>
<linearGradient id="paint4_linear" x1="7709.01" y1="72258.2" x2="7699.66" y2="73830" gradientUnits="userSpaceOnUse">
<stop stop-color="#E20613"/>
<stop offset="1" stop-color="#E20613"/>
</linearGradient>
<linearGradient id="paint5_linear" x1="293.533" y1="23826.8" x2="-32.4685" y2="24172.3" gradientUnits="userSpaceOnUse">
<stop stop-color="#E20613"/>
<stop offset="1" stop-color="#E20613"/>
</linearGradient>
</defs>
</svg>
