<svg width="586" height="343" viewBox="0 0 586 343" fill="none" xmlns="http://www.w3.org/2000/svg">
<path d="M131.25 213.5C136.25 213.5 140 214.583 142.5 216.75C145 218.917 146.25 222 146.25 226C146.25 234.333 141.25 238.5 131.25 238.5H118.5V258.25C118.5 263.417 117 267.417 114 270.25C111.167 273.083 107.417 274.5 102.75 274.5C98.0833 274.5 94.25 273.083 91.25 270.25C88.4167 267.417 87 263.417 87 258.25V238.5H21.5C17 238.5 13.5 237.25 11 234.75C8.5 232.083 7.25 228.833 7.25 225C7.25 221 8.58333 217.167 11.25 213.5L88.5 102.5C90.1667 100.167 92.25 98.4167 94.75 97.25C97.25 95.9167 99.8333 95.25 102.5 95.25C106.833 95.25 110.583 96.6667 113.75 99.5C116.917 102.333 118.5 106.333 118.5 111.5V213.5H131.25ZM40.5 213.5H87V146.25L40.5 213.5ZM566.797 213.5C571.797 213.5 575.547 214.583 578.047 216.75C580.547 218.917 581.797 222 581.797 226C581.797 234.333 576.797 238.5 566.797 238.5H554.047V258.25C554.047 263.417 552.547 267.417 549.547 270.25C546.714 273.083 542.964 274.5 538.297 274.5C533.63 274.5 529.797 273.083 526.797 270.25C523.964 267.417 522.547 263.417 522.547 258.25V238.5H457.047C452.547 238.5 449.047 237.25 446.547 234.75C444.047 232.083 442.797 228.833 442.797 225C442.797 221 444.13 217.167 446.797 213.5L524.047 102.5C525.714 100.167 527.797 98.4167 530.297 97.25C532.797 95.9167 535.38 95.25 538.047 95.25C542.38 95.25 546.13 96.6667 549.297 99.5C552.464 102.333 554.047 106.333 554.047 111.5V213.5H566.797ZM476.047 213.5H522.547V146.25L476.047 213.5Z" fill="#656463"/>
<path d="M292.773 275.25C271.94 275.25 256.023 267.583 245.023 252.25C234.023 236.75 228.523 214.25 228.523 184.75C228.523 155.417 234.023 133.083 245.023 117.75C256.023 102.25 271.94 94.5 292.773 94.5C313.607 94.5 329.523 102.25 340.523 117.75C351.523 133.083 357.023 155.417 357.023 184.75C357.023 214.083 351.523 236.5 340.523 252C329.523 267.5 313.607 275.25 292.773 275.25ZM292.773 250C304.107 250 312.357 244.833 317.523 234.5C322.69 224 325.273 207.417 325.273 184.75C325.273 161.917 322.69 145.417 317.523 135.25C312.357 124.917 304.107 119.75 292.773 119.75C281.44 119.75 273.19 124.917 268.023 135.25C262.857 145.583 260.273 162.083 260.273 184.75C260.273 207.417 262.857 224 268.023 234.5C273.19 244.833 281.44 250 292.773 250Z" fill="#C57B48"/>
<g clip-path="url(#clip0)">
<mask id="path-2-outside-1" maskUnits="userSpaceOnUse" x="158.762" y="-4.13281" width="348" height="327" fill="black">
<rect fill="white" x="158.762" y="-4.13281" width="348" height="327"/>
<path d="M502 73.4712C496.885 81.7985 490.382 88.4777 481.365 92.5546C479.458 93.4221 477.724 94.6365 475.99 95.7641C472.088 98.4532 467.927 100.362 463.332 101.576C456.222 103.571 449.893 107.127 443.824 111.291C436.281 116.496 428.651 121.44 421.282 126.818C417.814 129.334 414.953 132.717 411.831 135.666C407.67 139.569 403.768 143.646 399.346 147.203C396.139 149.805 392.324 151.54 388.942 153.882C381.746 158.826 374.55 163.771 367.527 168.889C364.233 171.231 361.285 174.093 358.164 176.695C353.222 180.772 347.239 183.114 341.43 185.63C339.783 186.411 338.396 187.278 337.615 189.013C334.928 195.258 330.333 200.029 325.391 204.54C318.888 210.525 312.472 216.684 305.883 222.582C299.12 228.654 291.924 234.119 283.688 238.196C279.266 240.365 275.798 243.748 272.763 247.651C264.96 257.887 256.203 267.255 246.32 275.322C241.551 279.226 235.655 281.654 230.28 284.777C224.471 288.247 218.489 291.717 213.547 296.488C211.899 298.049 211.032 299.871 210.946 302.213C210.772 305.509 209.992 308.718 206.611 310.453C205.657 310.974 204.443 311.234 203.316 311.06C199.501 310.627 195.686 309.759 191.872 309.412C190.311 309.239 188.664 309.933 187.19 310.54C181.901 312.969 176.612 315.484 171.323 318C169.156 318 166.988 318 164.821 318C162.046 316.265 162.133 315.137 164.734 313.316C166.728 311.928 168.376 309.933 170.543 308.632C174.271 306.376 177.392 303.427 180.774 300.651C186.409 295.967 192.132 291.37 198.374 287.727C206.871 282.695 214.761 276.884 222.043 270.291C230.193 262.918 238.083 255.198 245.713 247.217C248.747 244.095 250.828 239.931 253.169 236.201C255.683 232.298 258.631 228.828 262.186 225.879C265.914 222.756 268.515 218.852 270.683 214.602C274.844 206.188 280.653 198.988 287.416 192.569C288.023 191.962 288.456 190.921 288.543 189.967C288.803 187.798 288.803 185.63 289.063 183.461C289.323 181.813 288.716 180.512 287.763 179.211C285.855 176.782 284.295 174.093 282.474 171.578C281.694 170.45 280.74 169.496 279.873 168.455C275.104 162.556 272.417 155.79 271.463 148.33C270.162 138.268 270.596 128.206 272.85 118.231C275.364 106.954 281.78 98.8869 291.924 93.5956C292.618 93.2486 293.398 92.8149 294.092 92.4679C294.785 92.1209 295.566 91.7739 296.433 91.3402C295.479 89.8656 294.612 88.5645 293.745 87.1766C287.936 77.9818 281.954 68.8738 276.491 59.5055C273.977 55.2551 272.417 50.3975 270.249 45.8869C269.209 43.6316 267.908 41.463 266.694 39.2944C265.394 36.9523 264.007 34.6103 262.706 32.2682C262.446 31.8345 262.099 31.314 262.186 30.9671C262.793 27.8443 260.539 26.3697 258.718 24.5481C257.331 23.2469 256.203 21.6856 254.73 20.5579C253.256 19.517 251.435 18.823 249.701 18.0424C248.227 17.3484 246.58 17.0014 245.279 16.0473C244.499 15.4401 244.325 14.0522 243.892 13.0113C244.759 12.6643 245.626 12.0571 246.493 12.0571C247.707 12.0571 248.921 12.4041 250.048 12.8378C253.863 14.3991 256.117 13.9654 258.891 10.9294C261.839 7.71993 264.7 4.33696 267.735 1.21421C268.342 0.520262 269.469 0.0865465 270.336 -0.0869396C271.81 -0.347169 272.59 0.520262 271.983 1.99489C269.815 7.63319 269.815 13.445 269.815 19.3435C269.815 20.2977 270.076 21.4253 270.596 22.206C272.417 25.242 274.151 28.278 276.231 31.0538C279.092 34.9573 281.867 39.1209 285.335 42.4172C289.843 46.6676 292.358 51.7854 294.092 57.4237C295.912 63.4957 299.294 68.7003 302.762 73.9049C303.455 75.0325 304.496 76.0735 305.71 76.6807C309.178 78.4155 311.432 81.3648 313.686 84.4008C315.593 86.9163 316.287 87.0898 318.541 84.8345C327.992 75.6397 336.315 65.5775 344.378 55.1684C348.193 50.224 352.615 45.9736 358.25 43.2846C359.377 42.7641 360.331 42.0702 361.372 41.3762C369.088 36.4319 376.718 31.5743 384.347 26.5432C385.041 26.1095 385.734 25.3288 386.081 24.4613C388.335 19.6905 390.416 14.9196 392.584 10.062C392.757 9.71502 393.017 9.36805 393.277 8.93434C394.925 9.80177 394.838 11.2764 394.665 12.5775C394.491 13.9654 394.144 15.2666 393.711 17.2617C395.965 16.5677 397.699 16.0473 399.52 15.5268C400.907 15.0931 402.294 14.6594 403.768 14.4859C406.716 14.0522 409.664 13.7052 412.612 13.3582C413.132 13.2715 413.739 13.0113 414.172 13.1847C415.039 13.3582 415.82 13.7919 416.6 14.1389C415.906 14.5726 415.299 15.1798 414.606 15.3533C411.918 15.787 409.23 16.0473 406.543 16.481C405.676 16.6545 404.895 17.0882 404.115 17.4352C404.115 17.6954 404.202 17.8689 404.202 18.1291C404.895 18.3026 405.676 18.5628 406.369 18.5628C409.404 18.5628 412.438 18.4761 415.473 18.4761C416.253 18.4761 417.033 18.3026 417.727 18.5628C418.421 18.823 419.028 19.4302 419.721 19.864C419.114 20.2109 418.507 20.9049 417.9 20.9049C414.606 21.1651 411.311 21.1651 407.93 21.3386C407.15 21.4253 406.283 21.6856 405.502 21.8591C405.502 22.0325 405.502 22.2928 405.502 22.4663C406.283 22.6397 407.15 22.9867 407.93 22.9867C410.791 22.9 413.565 22.6397 416.426 22.553C417.12 22.553 417.727 23.1602 418.421 23.5072C417.814 23.8541 417.207 24.5481 416.6 24.6348C412.958 24.9818 409.317 25.1553 405.676 25.7625C407.15 25.7625 408.623 25.7625 410.097 25.7625C410.964 25.7625 411.831 25.8492 412.698 26.0227C413.045 26.1095 413.305 26.7167 413.392 27.0636C413.392 27.2371 412.872 27.6708 412.525 27.6708C411.311 27.8443 410.011 27.6708 408.884 28.0178C404.809 29.1455 400.82 30.6201 396.659 31.4875C388.075 33.3091 382.266 39.2077 376.544 45.1062C372.296 49.4433 367.961 53.3468 363.192 57.0767C356.516 62.3681 349.58 67.3124 344.725 74.5988C343.338 76.6807 341.344 78.3288 339.696 80.1504C339.176 80.6708 338.743 81.1913 338.569 82.1455C339.35 81.625 340.043 81.1913 340.823 80.5841C343.164 78.8492 345.158 78.8492 347.413 80.5841C350.534 83.0129 353.568 85.4417 356.69 87.7838C357.297 88.2175 357.903 88.7379 358.597 88.9114C361.111 89.6054 362.065 91.427 362.065 93.769C362.065 96.2846 362.672 98.4532 363.712 100.708C364.493 102.443 364.666 104.612 364.493 106.52C364.233 109.816 363.626 113.113 362.845 116.322C361.632 121.614 359.031 126.124 353.915 128.726C353.395 128.987 353.048 129.767 352.788 130.375C352.615 130.895 352.615 131.589 352.528 132.196C351.314 139.396 343.771 142.345 338.136 137.748C336.835 136.707 336.575 134.452 335.795 132.803C335.448 132.109 335.101 131.155 334.494 130.895C329.032 128.64 324.35 125.257 320.535 120.746C320.189 120.312 319.929 119.879 319.408 118.925C316.721 126.384 314.206 133.15 311.779 139.916C311.692 140.263 311.519 140.87 311.692 141.044C313.426 143.039 315.16 145.121 317.154 146.943C318.541 148.157 320.449 148.244 322.183 147.289C327.905 144.253 333.454 145.294 338.916 148.07C340.477 148.851 341.951 148.938 343.598 148.33C353.308 144.514 363.106 140.697 372.816 136.794C375.937 135.579 379.232 134.452 382.093 132.717C385.041 130.982 387.815 128.9 390.156 126.384C398.393 117.623 408.017 110.597 418.421 104.785C423.883 101.663 430.212 100.015 436.021 97.5857C442.35 94.8967 448.592 92.0342 454.922 89.2584C456.916 88.391 457.436 86.3959 457.956 84.4875C460.037 76.4204 460.557 75.8132 468.794 76.1602C474.083 76.4204 478.938 75.3795 483.62 73.0374C487.348 71.2158 491.336 69.7412 495.238 68.5268C497.232 67.9196 499.659 67.5726 501.393 69.6545C502 71.0424 502 72.2568 502 73.4712Z"/>
</mask>
<path d="M502 73.4712C496.885 81.7985 490.382 88.4777 481.365 92.5546C479.458 93.4221 477.724 94.6365 475.99 95.7641C472.088 98.4532 467.927 100.362 463.332 101.576C456.222 103.571 449.893 107.127 443.824 111.291C436.281 116.496 428.651 121.44 421.282 126.818C417.814 129.334 414.953 132.717 411.831 135.666C407.67 139.569 403.768 143.646 399.346 147.203C396.139 149.805 392.324 151.54 388.942 153.882C381.746 158.826 374.55 163.771 367.527 168.889C364.233 171.231 361.285 174.093 358.164 176.695C353.222 180.772 347.239 183.114 341.43 185.63C339.783 186.411 338.396 187.278 337.615 189.013C334.928 195.258 330.333 200.029 325.391 204.54C318.888 210.525 312.472 216.684 305.883 222.582C299.12 228.654 291.924 234.119 283.688 238.196C279.266 240.365 275.798 243.748 272.763 247.651C264.96 257.887 256.203 267.255 246.32 275.322C241.551 279.226 235.655 281.654 230.28 284.777C224.471 288.247 218.489 291.717 213.547 296.488C211.899 298.049 211.032 299.871 210.946 302.213C210.772 305.509 209.992 308.718 206.611 310.453C205.657 310.974 204.443 311.234 203.316 311.06C199.501 310.627 195.686 309.759 191.872 309.412C190.311 309.239 188.664 309.933 187.19 310.54C181.901 312.969 176.612 315.484 171.323 318C169.156 318 166.988 318 164.821 318C162.046 316.265 162.133 315.137 164.734 313.316C166.728 311.928 168.376 309.933 170.543 308.632C174.271 306.376 177.392 303.427 180.774 300.651C186.409 295.967 192.132 291.37 198.374 287.727C206.871 282.695 214.761 276.884 222.043 270.291C230.193 262.918 238.083 255.198 245.713 247.217C248.747 244.095 250.828 239.931 253.169 236.201C255.683 232.298 258.631 228.828 262.186 225.879C265.914 222.756 268.515 218.852 270.683 214.602C274.844 206.188 280.653 198.988 287.416 192.569C288.023 191.962 288.456 190.921 288.543 189.967C288.803 187.798 288.803 185.63 289.063 183.461C289.323 181.813 288.716 180.512 287.763 179.211C285.855 176.782 284.295 174.093 282.474 171.578C281.694 170.45 280.74 169.496 279.873 168.455C275.104 162.556 272.417 155.79 271.463 148.33C270.162 138.268 270.596 128.206 272.85 118.231C275.364 106.954 281.78 98.8869 291.924 93.5956C292.618 93.2486 293.398 92.8149 294.092 92.4679C294.785 92.1209 295.566 91.7739 296.433 91.3402C295.479 89.8656 294.612 88.5645 293.745 87.1766C287.936 77.9818 281.954 68.8738 276.491 59.5055C273.977 55.2551 272.417 50.3975 270.249 45.8869C269.209 43.6316 267.908 41.463 266.694 39.2944C265.394 36.9523 264.007 34.6103 262.706 32.2682C262.446 31.8345 262.099 31.314 262.186 30.9671C262.793 27.8443 260.539 26.3697 258.718 24.5481C257.331 23.2469 256.203 21.6856 254.73 20.5579C253.256 19.517 251.435 18.823 249.701 18.0424C248.227 17.3484 246.58 17.0014 245.279 16.0473C244.499 15.4401 244.325 14.0522 243.892 13.0113C244.759 12.6643 245.626 12.0571 246.493 12.0571C247.707 12.0571 248.921 12.4041 250.048 12.8378C253.863 14.3991 256.117 13.9654 258.891 10.9294C261.839 7.71993 264.7 4.33696 267.735 1.21421C268.342 0.520262 269.469 0.0865465 270.336 -0.0869396C271.81 -0.347169 272.59 0.520262 271.983 1.99489C269.815 7.63319 269.815 13.445 269.815 19.3435C269.815 20.2977 270.076 21.4253 270.596 22.206C272.417 25.242 274.151 28.278 276.231 31.0538C279.092 34.9573 281.867 39.1209 285.335 42.4172C289.843 46.6676 292.358 51.7854 294.092 57.4237C295.912 63.4957 299.294 68.7003 302.762 73.9049C303.455 75.0325 304.496 76.0735 305.71 76.6807C309.178 78.4155 311.432 81.3648 313.686 84.4008C315.593 86.9163 316.287 87.0898 318.541 84.8345C327.992 75.6397 336.315 65.5775 344.378 55.1684C348.193 50.224 352.615 45.9736 358.25 43.2846C359.377 42.7641 360.331 42.0702 361.372 41.3762C369.088 36.4319 376.718 31.5743 384.347 26.5432C385.041 26.1095 385.734 25.3288 386.081 24.4613C388.335 19.6905 390.416 14.9196 392.584 10.062C392.757 9.71502 393.017 9.36805 393.277 8.93434C394.925 9.80177 394.838 11.2764 394.665 12.5775C394.491 13.9654 394.144 15.2666 393.711 17.2617C395.965 16.5677 397.699 16.0473 399.52 15.5268C400.907 15.0931 402.294 14.6594 403.768 14.4859C406.716 14.0522 409.664 13.7052 412.612 13.3582C413.132 13.2715 413.739 13.0113 414.172 13.1847C415.039 13.3582 415.82 13.7919 416.6 14.1389C415.906 14.5726 415.299 15.1798 414.606 15.3533C411.918 15.787 409.23 16.0473 406.543 16.481C405.676 16.6545 404.895 17.0882 404.115 17.4352C404.115 17.6954 404.202 17.8689 404.202 18.1291C404.895 18.3026 405.676 18.5628 406.369 18.5628C409.404 18.5628 412.438 18.4761 415.473 18.4761C416.253 18.4761 417.033 18.3026 417.727 18.5628C418.421 18.823 419.028 19.4302 419.721 19.864C419.114 20.2109 418.507 20.9049 417.9 20.9049C414.606 21.1651 411.311 21.1651 407.93 21.3386C407.15 21.4253 406.283 21.6856 405.502 21.8591C405.502 22.0325 405.502 22.2928 405.502 22.4663C406.283 22.6397 407.15 22.9867 407.93 22.9867C410.791 22.9 413.565 22.6397 416.426 22.553C417.12 22.553 417.727 23.1602 418.421 23.5072C417.814 23.8541 417.207 24.5481 416.6 24.6348C412.958 24.9818 409.317 25.1553 405.676 25.7625C407.15 25.7625 408.623 25.7625 410.097 25.7625C410.964 25.7625 411.831 25.8492 412.698 26.0227C413.045 26.1095 413.305 26.7167 413.392 27.0636C413.392 27.2371 412.872 27.6708 412.525 27.6708C411.311 27.8443 410.011 27.6708 408.884 28.0178C404.809 29.1455 400.82 30.6201 396.659 31.4875C388.075 33.3091 382.266 39.2077 376.544 45.1062C372.296 49.4433 367.961 53.3468 363.192 57.0767C356.516 62.3681 349.58 67.3124 344.725 74.5988C343.338 76.6807 341.344 78.3288 339.696 80.1504C339.176 80.6708 338.743 81.1913 338.569 82.1455C339.35 81.625 340.043 81.1913 340.823 80.5841C343.164 78.8492 345.158 78.8492 347.413 80.5841C350.534 83.0129 353.568 85.4417 356.69 87.7838C357.297 88.2175 357.903 88.7379 358.597 88.9114C361.111 89.6054 362.065 91.427 362.065 93.769C362.065 96.2846 362.672 98.4532 363.712 100.708C364.493 102.443 364.666 104.612 364.493 106.52C364.233 109.816 363.626 113.113 362.845 116.322C361.632 121.614 359.031 126.124 353.915 128.726C353.395 128.987 353.048 129.767 352.788 130.375C352.615 130.895 352.615 131.589 352.528 132.196C351.314 139.396 343.771 142.345 338.136 137.748C336.835 136.707 336.575 134.452 335.795 132.803C335.448 132.109 335.101 131.155 334.494 130.895C329.032 128.64 324.35 125.257 320.535 120.746C320.189 120.312 319.929 119.879 319.408 118.925C316.721 126.384 314.206 133.15 311.779 139.916C311.692 140.263 311.519 140.87 311.692 141.044C313.426 143.039 315.16 145.121 317.154 146.943C318.541 148.157 320.449 148.244 322.183 147.289C327.905 144.253 333.454 145.294 338.916 148.07C340.477 148.851 341.951 148.938 343.598 148.33C353.308 144.514 363.106 140.697 372.816 136.794C375.937 135.579 379.232 134.452 382.093 132.717C385.041 130.982 387.815 128.9 390.156 126.384C398.393 117.623 408.017 110.597 418.421 104.785C423.883 101.663 430.212 100.015 436.021 97.5857C442.35 94.8967 448.592 92.0342 454.922 89.2584C456.916 88.391 457.436 86.3959 457.956 84.4875C460.037 76.4204 460.557 75.8132 468.794 76.1602C474.083 76.4204 478.938 75.3795 483.62 73.0374C487.348 71.2158 491.336 69.7412 495.238 68.5268C497.232 67.9196 499.659 67.5726 501.393 69.6545C502 71.0424 502 72.2568 502 73.4712Z" fill="#C57B48"/>
<path d="M502 73.4712C496.885 81.7985 490.382 88.4777 481.365 92.5546C479.458 93.4221 477.724 94.6365 475.99 95.7641C472.088 98.4532 467.927 100.362 463.332 101.576C456.222 103.571 449.893 107.127 443.824 111.291C436.281 116.496 428.651 121.44 421.282 126.818C417.814 129.334 414.953 132.717 411.831 135.666C407.67 139.569 403.768 143.646 399.346 147.203C396.139 149.805 392.324 151.54 388.942 153.882C381.746 158.826 374.55 163.771 367.527 168.889C364.233 171.231 361.285 174.093 358.164 176.695C353.222 180.772 347.239 183.114 341.43 185.63C339.783 186.411 338.396 187.278 337.615 189.013C334.928 195.258 330.333 200.029 325.391 204.54C318.888 210.525 312.472 216.684 305.883 222.582C299.12 228.654 291.924 234.119 283.688 238.196C279.266 240.365 275.798 243.748 272.763 247.651C264.96 257.887 256.203 267.255 246.32 275.322C241.551 279.226 235.655 281.654 230.28 284.777C224.471 288.247 218.489 291.717 213.547 296.488C211.899 298.049 211.032 299.871 210.946 302.213C210.772 305.509 209.992 308.718 206.611 310.453C205.657 310.974 204.443 311.234 203.316 311.06C199.501 310.627 195.686 309.759 191.872 309.412C190.311 309.239 188.664 309.933 187.19 310.54C181.901 312.969 176.612 315.484 171.323 318C169.156 318 166.988 318 164.821 318C162.046 316.265 162.133 315.137 164.734 313.316C166.728 311.928 168.376 309.933 170.543 308.632C174.271 306.376 177.392 303.427 180.774 300.651C186.409 295.967 192.132 291.37 198.374 287.727C206.871 282.695 214.761 276.884 222.043 270.291C230.193 262.918 238.083 255.198 245.713 247.217C248.747 244.095 250.828 239.931 253.169 236.201C255.683 232.298 258.631 228.828 262.186 225.879C265.914 222.756 268.515 218.852 270.683 214.602C274.844 206.188 280.653 198.988 287.416 192.569C288.023 191.962 288.456 190.921 288.543 189.967C288.803 187.798 288.803 185.63 289.063 183.461C289.323 181.813 288.716 180.512 287.763 179.211C285.855 176.782 284.295 174.093 282.474 171.578C281.694 170.45 280.74 169.496 279.873 168.455C275.104 162.556 272.417 155.79 271.463 148.33C270.162 138.268 270.596 128.206 272.85 118.231C275.364 106.954 281.78 98.8869 291.924 93.5956C292.618 93.2486 293.398 92.8149 294.092 92.4679C294.785 92.1209 295.566 91.7739 296.433 91.3402C295.479 89.8656 294.612 88.5645 293.745 87.1766C287.936 77.9818 281.954 68.8738 276.491 59.5055C273.977 55.2551 272.417 50.3975 270.249 45.8869C269.209 43.6316 267.908 41.463 266.694 39.2944C265.394 36.9523 264.007 34.6103 262.706 32.2682C262.446 31.8345 262.099 31.314 262.186 30.9671C262.793 27.8443 260.539 26.3697 258.718 24.5481C257.331 23.2469 256.203 21.6856 254.73 20.5579C253.256 19.517 251.435 18.823 249.701 18.0424C248.227 17.3484 246.58 17.0014 245.279 16.0473C244.499 15.4401 244.325 14.0522 243.892 13.0113C244.759 12.6643 245.626 12.0571 246.493 12.0571C247.707 12.0571 248.921 12.4041 250.048 12.8378C253.863 14.3991 256.117 13.9654 258.891 10.9294C261.839 7.71993 264.7 4.33696 267.735 1.21421C268.342 0.520262 269.469 0.0865465 270.336 -0.0869396C271.81 -0.347169 272.59 0.520262 271.983 1.99489C269.815 7.63319 269.815 13.445 269.815 19.3435C269.815 20.2977 270.076 21.4253 270.596 22.206C272.417 25.242 274.151 28.278 276.231 31.0538C279.092 34.9573 281.867 39.1209 285.335 42.4172C289.843 46.6676 292.358 51.7854 294.092 57.4237C295.912 63.4957 299.294 68.7003 302.762 73.9049C303.455 75.0325 304.496 76.0735 305.71 76.6807C309.178 78.4155 311.432 81.3648 313.686 84.4008C315.593 86.9163 316.287 87.0898 318.541 84.8345C327.992 75.6397 336.315 65.5775 344.378 55.1684C348.193 50.224 352.615 45.9736 358.25 43.2846C359.377 42.7641 360.331 42.0702 361.372 41.3762C369.088 36.4319 376.718 31.5743 384.347 26.5432C385.041 26.1095 385.734 25.3288 386.081 24.4613C388.335 19.6905 390.416 14.9196 392.584 10.062C392.757 9.71502 393.017 9.36805 393.277 8.93434C394.925 9.80177 394.838 11.2764 394.665 12.5775C394.491 13.9654 394.144 15.2666 393.711 17.2617C395.965 16.5677 397.699 16.0473 399.52 15.5268C400.907 15.0931 402.294 14.6594 403.768 14.4859C406.716 14.0522 409.664 13.7052 412.612 13.3582C413.132 13.2715 413.739 13.0113 414.172 13.1847C415.039 13.3582 415.82 13.7919 416.6 14.1389C415.906 14.5726 415.299 15.1798 414.606 15.3533C411.918 15.787 409.23 16.0473 406.543 16.481C405.676 16.6545 404.895 17.0882 404.115 17.4352C404.115 17.6954 404.202 17.8689 404.202 18.1291C404.895 18.3026 405.676 18.5628 406.369 18.5628C409.404 18.5628 412.438 18.4761 415.473 18.4761C416.253 18.4761 417.033 18.3026 417.727 18.5628C418.421 18.823 419.028 19.4302 419.721 19.864C419.114 20.2109 418.507 20.9049 417.9 20.9049C414.606 21.1651 411.311 21.1651 407.93 21.3386C407.15 21.4253 406.283 21.6856 405.502 21.8591C405.502 22.0325 405.502 22.2928 405.502 22.4663C406.283 22.6397 407.15 22.9867 407.93 22.9867C410.791 22.9 413.565 22.6397 416.426 22.553C417.12 22.553 417.727 23.1602 418.421 23.5072C417.814 23.8541 417.207 24.5481 416.6 24.6348C412.958 24.9818 409.317 25.1553 405.676 25.7625C407.15 25.7625 408.623 25.7625 410.097 25.7625C410.964 25.7625 411.831 25.8492 412.698 26.0227C413.045 26.1095 413.305 26.7167 413.392 27.0636C413.392 27.2371 412.872 27.6708 412.525 27.6708C411.311 27.8443 410.011 27.6708 408.884 28.0178C404.809 29.1455 400.82 30.6201 396.659 31.4875C388.075 33.3091 382.266 39.2077 376.544 45.1062C372.296 49.4433 367.961 53.3468 363.192 57.0767C356.516 62.3681 349.58 67.3124 344.725 74.5988C343.338 76.6807 341.344 78.3288 339.696 80.1504C339.176 80.6708 338.743 81.1913 338.569 82.1455C339.35 81.625 340.043 81.1913 340.823 80.5841C343.164 78.8492 345.158 78.8492 347.413 80.5841C350.534 83.0129 353.568 85.4417 356.69 87.7838C357.297 88.2175 357.903 88.7379 358.597 88.9114C361.111 89.6054 362.065 91.427 362.065 93.769C362.065 96.2846 362.672 98.4532 363.712 100.708C364.493 102.443 364.666 104.612 364.493 106.52C364.233 109.816 363.626 113.113 362.845 116.322C361.632 121.614 359.031 126.124 353.915 128.726C353.395 128.987 353.048 129.767 352.788 130.375C352.615 130.895 352.615 131.589 352.528 132.196C351.314 139.396 343.771 142.345 338.136 137.748C336.835 136.707 336.575 134.452 335.795 132.803C335.448 132.109 335.101 131.155 334.494 130.895C329.032 128.64 324.35 125.257 320.535 120.746C320.189 120.312 319.929 119.879 319.408 118.925C316.721 126.384 314.206 133.15 311.779 139.916C311.692 140.263 311.519 140.87 311.692 141.044C313.426 143.039 315.16 145.121 317.154 146.943C318.541 148.157 320.449 148.244 322.183 147.289C327.905 144.253 333.454 145.294 338.916 148.07C340.477 148.851 341.951 148.938 343.598 148.33C353.308 144.514 363.106 140.697 372.816 136.794C375.937 135.579 379.232 134.452 382.093 132.717C385.041 130.982 387.815 128.9 390.156 126.384C398.393 117.623 408.017 110.597 418.421 104.785C423.883 101.663 430.212 100.015 436.021 97.5857C442.35 94.8967 448.592 92.0342 454.922 89.2584C456.916 88.391 457.436 86.3959 457.956 84.4875C460.037 76.4204 460.557 75.8132 468.794 76.1602C474.083 76.4204 478.938 75.3795 483.62 73.0374C487.348 71.2158 491.336 69.7412 495.238 68.5268C497.232 67.9196 499.659 67.5726 501.393 69.6545C502 71.0424 502 72.2568 502 73.4712Z" stroke="white" stroke-width="8" mask="url(#path-2-outside-1)"/>
</g>
<defs>
<clipPath id="clip0">
<rect width="339" height="318" fill="white" transform="translate(163)"/>
</clipPath>
</defs>
</svg>
