<svg width="136" height="56" viewBox="0 0 136 56" fill="none" xmlns="http://www.w3.org/2000/svg">
<path d="M1.778 49.07C1.61 49.07 1.47467 49.0187 1.372 48.916C1.26933 48.804 1.218 48.6593 1.218 48.482V39.634C1.218 39.4567 1.26933 39.3167 1.372 39.214C1.47467 39.1113 1.61 39.06 1.778 39.06C1.95533 39.06 2.09533 39.1113 2.198 39.214C2.30067 39.3167 2.352 39.4567 2.352 39.634V43.498H3.962L7.35 39.284C7.462 39.1347 7.60667 39.06 7.784 39.06C7.924 39.06 8.04533 39.1113 8.148 39.214C8.25067 39.3073 8.302 39.424 8.302 39.564C8.302 39.6853 8.25067 39.8113 8.148 39.942L5.124 43.694C5.60933 43.8247 5.992 44.0393 6.272 44.338C6.56133 44.6273 6.89267 45.108 7.266 45.78L8.638 48.216C8.694 48.328 8.722 48.4307 8.722 48.524C8.722 48.6827 8.666 48.8133 8.554 48.916C8.45133 49.0187 8.32533 49.07 8.176 49.07C7.97067 49.07 7.80733 48.9627 7.686 48.748L6.146 46.018C5.82867 45.4487 5.51133 45.052 5.194 44.828C4.87667 44.5947 4.44733 44.478 3.906 44.478H2.352V48.482C2.352 48.6593 2.30067 48.804 2.198 48.916C2.09533 49.0187 1.95533 49.07 1.778 49.07ZM14.755 42.392C14.8577 42.168 15.021 42.056 15.245 42.056C15.385 42.056 15.511 42.1027 15.623 42.196C15.735 42.2893 15.791 42.406 15.791 42.546C15.791 42.63 15.7723 42.7047 15.735 42.77L11.801 51.254C11.7543 51.3567 11.6843 51.436 11.591 51.492C11.507 51.548 11.4183 51.576 11.325 51.576C11.185 51.576 11.059 51.5293 10.947 51.436C10.8443 51.352 10.793 51.24 10.793 51.1C10.793 51.0253 10.8117 50.9507 10.849 50.876L11.829 48.762L9.05702 42.77C9.01968 42.7047 9.00102 42.6347 9.00102 42.56C9.00102 42.42 9.06168 42.2987 9.18302 42.196C9.31368 42.0933 9.45368 42.042 9.60302 42.042C9.69635 42.042 9.78502 42.07 9.86902 42.126C9.96235 42.182 10.0323 42.2613 10.079 42.364L12.417 47.614L14.755 42.392ZM20.4624 42.014C21.0598 42.014 21.5871 42.1633 22.0444 42.462C22.5018 42.7607 22.8564 43.1807 23.1084 43.722C23.3604 44.254 23.4864 44.8747 23.4864 45.584C23.4864 46.2933 23.3604 46.914 23.1084 47.446C22.8564 47.9687 22.5018 48.3747 22.0444 48.664C21.5964 48.9533 21.0691 49.098 20.4624 49.098C19.9304 49.098 19.4638 48.9813 19.0624 48.748C18.6704 48.5147 18.3718 48.1833 18.1664 47.754V51.044C18.1664 51.212 18.1151 51.3427 18.0124 51.436C17.9191 51.5387 17.7838 51.59 17.6064 51.59C17.4291 51.59 17.2891 51.5387 17.1864 51.436C17.0838 51.3333 17.0324 51.2027 17.0324 51.044V42.602C17.0324 42.434 17.0838 42.2987 17.1864 42.196C17.2891 42.0933 17.4291 42.042 17.6064 42.042C17.7838 42.042 17.9191 42.0933 18.0124 42.196C18.1151 42.2987 18.1664 42.434 18.1664 42.602V43.358C18.3718 42.9287 18.6704 42.5973 19.0624 42.364C19.4638 42.1307 19.9304 42.014 20.4624 42.014ZM20.2384 48.16C20.9011 48.16 21.4144 47.936 21.7784 47.488C22.1424 47.04 22.3244 46.4053 22.3244 45.584C22.3244 44.7627 22.1424 44.1233 21.7784 43.666C21.4144 43.1993 20.9011 42.966 20.2384 42.966C19.5758 42.966 19.0624 43.19 18.6984 43.638C18.3438 44.086 18.1664 44.7253 18.1664 45.556C18.1664 46.3867 18.3438 47.0307 18.6984 47.488C19.0624 47.936 19.5758 48.16 20.2384 48.16ZM25.7409 49C25.5635 49 25.4189 48.9487 25.3069 48.846C25.2042 48.7433 25.1529 48.608 25.1529 48.44V42.602C25.1529 42.434 25.2042 42.2987 25.3069 42.196C25.4095 42.0933 25.5495 42.042 25.7269 42.042C25.8949 42.042 26.0302 42.0933 26.1329 42.196C26.2355 42.2987 26.2869 42.434 26.2869 42.602V44.618H27.7289C29.4649 44.618 30.3329 45.3133 30.3329 46.704C30.3329 47.2173 30.2069 47.6467 29.9549 47.992C29.7029 48.3373 29.3715 48.594 28.9609 48.762C28.5595 48.9207 28.1302 49 27.6729 49H25.7409ZM27.4909 48.146C27.9669 48.146 28.3682 48.0293 28.6949 47.796C29.0215 47.5627 29.1849 47.2033 29.1849 46.718C29.1849 45.8873 28.6202 45.472 27.4909 45.472H26.2869V48.146H27.4909ZM37.035 47.418C37.1377 47.418 37.2264 47.46 37.301 47.544C37.3757 47.628 37.413 47.7353 37.413 47.866C37.413 48.0993 37.2497 48.314 36.923 48.51C36.587 48.706 36.2324 48.8553 35.859 48.958C35.4857 49.0513 35.1217 49.098 34.767 49.098C33.7124 49.098 32.877 48.7853 32.261 48.16C31.6544 47.5347 31.351 46.6713 31.351 45.57C31.351 44.87 31.4864 44.254 31.757 43.722C32.0277 43.1807 32.4057 42.7607 32.891 42.462C33.3857 42.1633 33.9457 42.014 34.571 42.014C35.4577 42.014 36.1624 42.3033 36.685 42.882C37.2077 43.4607 37.469 44.2447 37.469 45.234C37.469 45.4207 37.4317 45.556 37.357 45.64C37.2824 45.724 37.161 45.766 36.993 45.766H32.485C32.569 47.3713 33.3297 48.174 34.767 48.174C35.131 48.174 35.4437 48.1273 35.705 48.034C35.9664 47.9313 36.2464 47.796 36.545 47.628C36.7877 47.488 36.951 47.418 37.035 47.418ZM34.585 42.896C33.9877 42.896 33.507 43.0827 33.143 43.456C32.7884 43.8293 32.5784 44.3567 32.513 45.038H36.475C36.4564 44.3473 36.2837 43.82 35.957 43.456C35.6304 43.0827 35.173 42.896 34.585 42.896ZM42.5698 42.014C43.1672 42.014 43.6945 42.1633 44.1518 42.462C44.6092 42.7607 44.9638 43.1807 45.2158 43.722C45.4678 44.254 45.5938 44.8747 45.5938 45.584C45.5938 46.2933 45.4678 46.914 45.2158 47.446C44.9638 47.9687 44.6092 48.3747 44.1518 48.664C43.7038 48.9533 43.1765 49.098 42.5698 49.098C42.0378 49.098 41.5712 48.9813 41.1698 48.748C40.7778 48.5147 40.4792 48.1833 40.2738 47.754V51.044C40.2738 51.212 40.2225 51.3427 40.1198 51.436C40.0265 51.5387 39.8912 51.59 39.7138 51.59C39.5365 51.59 39.3965 51.5387 39.2938 51.436C39.1912 51.3333 39.1398 51.2027 39.1398 51.044V42.602C39.1398 42.434 39.1912 42.2987 39.2938 42.196C39.3965 42.0933 39.5365 42.042 39.7138 42.042C39.8912 42.042 40.0265 42.0933 40.1198 42.196C40.2225 42.2987 40.2738 42.434 40.2738 42.602V43.358C40.4792 42.9287 40.7778 42.5973 41.1698 42.364C41.5712 42.1307 42.0378 42.014 42.5698 42.014ZM42.3458 48.16C43.0085 48.16 43.5218 47.936 43.8858 47.488C44.2498 47.04 44.4318 46.4053 44.4318 45.584C44.4318 44.7627 44.2498 44.1233 43.8858 43.666C43.5218 43.1993 43.0085 42.966 42.3458 42.966C41.6832 42.966 41.1698 43.19 40.8058 43.638C40.4512 44.086 40.2738 44.7253 40.2738 45.556C40.2738 46.3867 40.4512 47.0307 40.8058 47.488C41.1698 47.936 41.6832 48.16 42.3458 48.16ZM50.1023 49.098C49.4676 49.098 48.9029 48.9533 48.4083 48.664C47.9229 48.3747 47.5449 47.964 47.2743 47.432C47.0129 46.9 46.8823 46.284 46.8823 45.584C46.8823 44.884 47.0176 44.2633 47.2883 43.722C47.5683 43.1807 47.9556 42.7607 48.4503 42.462C48.9449 42.1633 49.5143 42.014 50.1583 42.014C50.5129 42.014 50.8629 42.0653 51.2083 42.168C51.5629 42.2613 51.8709 42.4013 52.1323 42.588C52.3003 42.7 52.4169 42.812 52.4823 42.924C52.5569 43.0267 52.5943 43.1433 52.5943 43.274C52.5943 43.4047 52.5569 43.512 52.4823 43.596C52.4169 43.68 52.3283 43.722 52.2163 43.722C52.1509 43.722 52.0809 43.7033 52.0063 43.666C51.9316 43.6287 51.8663 43.5913 51.8103 43.554C51.7636 43.5167 51.7309 43.4933 51.7123 43.484C51.4696 43.3253 51.2363 43.1993 51.0123 43.106C50.7976 43.0127 50.5316 42.966 50.2143 42.966C49.5329 42.966 49.0009 43.1993 48.6183 43.666C48.2449 44.1233 48.0583 44.7627 48.0583 45.584C48.0583 46.4053 48.2449 47.04 48.6183 47.488C49.0009 47.936 49.5329 48.16 50.2143 48.16C50.5316 48.16 50.8023 48.1133 51.0263 48.02C51.2596 47.9267 51.4929 47.8007 51.7263 47.642C51.8289 47.5767 51.9269 47.5207 52.0203 47.474C52.1136 47.4273 52.1929 47.404 52.2583 47.404C52.3609 47.404 52.4449 47.446 52.5103 47.53C52.5849 47.614 52.6223 47.7213 52.6223 47.852C52.6223 47.9733 52.5896 48.0853 52.5243 48.188C52.4589 48.2813 52.3376 48.3887 52.1603 48.51C51.8989 48.6873 51.5816 48.832 51.2083 48.944C50.8443 49.0467 50.4756 49.098 50.1023 49.098ZM57.1655 45.304C57.5015 45.3973 57.7722 45.5513 57.9775 45.766C58.1828 45.9807 58.4255 46.326 58.7055 46.802L59.5875 48.244C59.6435 48.3373 59.6715 48.4353 59.6715 48.538C59.6715 48.6873 59.6155 48.8133 59.5035 48.916C59.3915 49.0187 59.2608 49.07 59.1115 49.07C58.9062 49.07 58.7428 48.972 58.6215 48.776L57.5575 46.984C57.3148 46.5827 57.0862 46.312 56.8715 46.172C56.6568 46.032 56.3488 45.962 55.9475 45.962H55.1635V48.51C55.1635 48.6873 55.1122 48.8273 55.0095 48.93C54.9068 49.0233 54.7668 49.07 54.5895 49.07C54.4215 49.07 54.2862 49.0233 54.1835 48.93C54.0808 48.8273 54.0295 48.6873 54.0295 48.51V42.602C54.0295 42.434 54.0808 42.2987 54.1835 42.196C54.2862 42.0933 54.4215 42.042 54.5895 42.042C54.7668 42.042 54.9068 42.0933 55.0095 42.196C55.1122 42.2987 55.1635 42.434 55.1635 42.602V45.08H56.1155L58.4395 42.28C58.5702 42.1213 58.7148 42.042 58.8735 42.042C59.0042 42.042 59.1162 42.0887 59.2095 42.182C59.3122 42.2753 59.3635 42.392 59.3635 42.532C59.3635 42.6533 59.3122 42.7793 59.2095 42.91L57.1655 45.304ZM63.8829 42.014C65.5909 42.014 66.4449 42.91 66.4449 44.702V48.51C66.4449 48.678 66.3935 48.8133 66.2909 48.916C66.1975 49.0187 66.0669 49.07 65.8989 49.07C65.7309 49.07 65.5955 49.0187 65.4929 48.916C65.3902 48.8133 65.3389 48.678 65.3389 48.51V47.838C65.1615 48.2393 64.8909 48.552 64.5269 48.776C64.1629 48.9907 63.7429 49.098 63.2669 49.098C62.8282 49.098 62.4222 49.0093 62.0489 48.832C61.6849 48.6547 61.3955 48.4073 61.1809 48.09C60.9662 47.7727 60.8589 47.4227 60.8589 47.04C60.8589 46.5267 60.9895 46.13 61.2509 45.85C61.5122 45.5607 61.9415 45.3553 62.5389 45.234C63.1362 45.1033 63.9669 45.038 65.0309 45.038H65.3389V44.576C65.3389 44.016 65.2222 43.6053 64.9889 43.344C64.7649 43.0827 64.3962 42.952 63.8829 42.952C63.2482 42.952 62.6042 43.1247 61.9509 43.47C61.6989 43.6287 61.5215 43.708 61.4189 43.708C61.3069 43.708 61.2135 43.666 61.1389 43.582C61.0642 43.498 61.0269 43.3907 61.0269 43.26C61.0269 43.1293 61.0642 43.0173 61.1389 42.924C61.2229 42.8213 61.3535 42.7187 61.5309 42.616C61.8575 42.4293 62.2262 42.2847 62.6369 42.182C63.0569 42.07 63.4722 42.014 63.8829 42.014ZM63.4209 48.202C63.9809 48.202 64.4382 48.0153 64.7929 47.642C65.1569 47.2593 65.3389 46.7693 65.3389 46.172V45.766H65.0869C64.2655 45.766 63.6402 45.8033 63.2109 45.878C62.7815 45.9433 62.4735 46.06 62.2869 46.228C62.1095 46.3867 62.0209 46.6247 62.0209 46.942C62.0209 47.306 62.1515 47.6093 62.4129 47.852C62.6835 48.0853 63.0195 48.202 63.4209 48.202ZM73.1967 49.07C73.0194 49.07 72.8794 49.0233 72.7767 48.93C72.674 48.8273 72.6227 48.6873 72.6227 48.51V46.438H71.7547C71.3814 46.438 71.0594 46.522 70.7887 46.69C70.5274 46.858 70.2894 47.1053 70.0747 47.432L69.1647 48.832C69.034 49.0187 68.8707 49.112 68.6747 49.112C68.5347 49.112 68.4087 49.0607 68.2967 48.958C68.1847 48.8553 68.1287 48.734 68.1287 48.594C68.1287 48.5007 68.166 48.3933 68.2407 48.272L68.8287 47.334C69.0247 47.026 69.2394 46.7693 69.4727 46.564C69.7154 46.3587 69.9627 46.2233 70.2147 46.158C69.58 46.0647 69.1227 45.8453 68.8427 45.5C68.5627 45.1547 68.4227 44.7487 68.4227 44.282C68.4227 43.61 68.6327 43.092 69.0527 42.728C69.482 42.364 70.0514 42.182 70.7607 42.182H73.1687C73.346 42.182 73.486 42.2333 73.5887 42.336C73.6914 42.4387 73.7427 42.574 73.7427 42.742V48.51C73.7427 48.6873 73.6914 48.8273 73.5887 48.93C73.4954 49.0233 73.3647 49.07 73.1967 49.07ZM72.6227 43.036H71.0687C70.574 43.036 70.1914 43.1433 69.9207 43.358C69.65 43.5727 69.5147 43.8947 69.5147 44.324C69.5147 44.7813 69.6594 45.108 69.9487 45.304C70.2474 45.4907 70.63 45.584 71.0967 45.584H72.6227V43.036ZM79.0665 50.848C78.9079 50.848 78.7772 50.7967 78.6745 50.694C78.5812 50.6007 78.5345 50.47 78.5345 50.302V48.692C78.5345 48.5147 78.5812 48.3747 78.6745 48.272C78.7679 48.16 78.8892 48.104 79.0385 48.104H79.2905C79.6265 47.6187 79.8645 47.04 80.0045 46.368C80.1445 45.696 80.2145 44.8187 80.2145 43.736V42.77C80.2145 42.5927 80.2659 42.4527 80.3685 42.35C80.4712 42.238 80.6112 42.182 80.7885 42.182H84.3025C84.4799 42.182 84.6199 42.2333 84.7225 42.336C84.8345 42.4387 84.8905 42.5787 84.8905 42.756V48.104H85.3665C85.5439 48.104 85.6839 48.1553 85.7865 48.258C85.8985 48.3607 85.9545 48.5007 85.9545 48.678V50.302C85.9545 50.47 85.9079 50.6007 85.8145 50.694C85.7212 50.7967 85.5905 50.848 85.4225 50.848C85.2639 50.848 85.1332 50.7967 85.0305 50.694C84.9372 50.6007 84.8905 50.47 84.8905 50.302V49H79.5985V50.302C79.5985 50.47 79.5472 50.6007 79.4445 50.694C79.3512 50.7967 79.2252 50.848 79.0665 50.848ZM83.7705 43.078H81.2365V43.736C81.2365 45.7893 80.9379 47.2453 80.3405 48.104H83.7705V43.078ZM90.0108 49.098C89.3668 49.098 88.7975 48.9533 88.3028 48.664C87.8175 48.3747 87.4395 47.964 87.1688 47.432C86.9075 46.8907 86.7768 46.2653 86.7768 45.556C86.7768 44.8467 86.9075 44.226 87.1688 43.694C87.4395 43.1527 87.8175 42.7373 88.3028 42.448C88.7975 42.1587 89.3668 42.014 90.0108 42.014C90.6548 42.014 91.2241 42.1587 91.7188 42.448C92.2135 42.7373 92.5915 43.1527 92.8528 43.694C93.1235 44.226 93.2588 44.8467 93.2588 45.556C93.2588 46.2653 93.1235 46.8907 92.8528 47.432C92.5915 47.964 92.2135 48.3747 91.7188 48.664C91.2241 48.9533 90.6548 49.098 90.0108 49.098ZM90.0108 48.16C90.6828 48.16 91.1961 47.9407 91.5508 47.502C91.9148 47.054 92.0968 46.4053 92.0968 45.556C92.0968 44.7253 91.9148 44.086 91.5508 43.638C91.1868 43.1807 90.6735 42.952 90.0108 42.952C89.3481 42.952 88.8348 43.1807 88.4708 43.638C88.1068 44.086 87.9248 44.7253 87.9248 45.556C87.9248 46.396 88.1021 47.04 88.4568 47.488C88.8208 47.936 89.3388 48.16 90.0108 48.16ZM97.7624 49.098C97.1278 49.098 96.5631 48.9533 96.0684 48.664C95.5831 48.3747 95.2051 47.964 94.9344 47.432C94.6731 46.9 94.5424 46.284 94.5424 45.584C94.5424 44.884 94.6778 44.2633 94.9484 43.722C95.2284 43.1807 95.6158 42.7607 96.1104 42.462C96.6051 42.1633 97.1744 42.014 97.8184 42.014C98.1731 42.014 98.5231 42.0653 98.8684 42.168C99.2231 42.2613 99.5311 42.4013 99.7924 42.588C99.9604 42.7 100.077 42.812 100.142 42.924C100.217 43.0267 100.254 43.1433 100.254 43.274C100.254 43.4047 100.217 43.512 100.142 43.596C100.077 43.68 99.9884 43.722 99.8764 43.722C99.8111 43.722 99.7411 43.7033 99.6664 43.666C99.5918 43.6287 99.5264 43.5913 99.4704 43.554C99.4238 43.5167 99.3911 43.4933 99.3724 43.484C99.1298 43.3253 98.8964 43.1993 98.6724 43.106C98.4578 43.0127 98.1918 42.966 97.8744 42.966C97.1931 42.966 96.6611 43.1993 96.2784 43.666C95.9051 44.1233 95.7184 44.7627 95.7184 45.584C95.7184 46.4053 95.9051 47.04 96.2784 47.488C96.6611 47.936 97.1931 48.16 97.8744 48.16C98.1918 48.16 98.4624 48.1133 98.6864 48.02C98.9198 47.9267 99.1531 47.8007 99.3864 47.642C99.4891 47.5767 99.5871 47.5207 99.6804 47.474C99.7738 47.4273 99.8531 47.404 99.9184 47.404C100.021 47.404 100.105 47.446 100.17 47.53C100.245 47.614 100.282 47.7213 100.282 47.852C100.282 47.9733 100.25 48.0853 100.184 48.188C100.119 48.2813 99.9978 48.3887 99.8204 48.51C99.5591 48.6873 99.2418 48.832 98.8684 48.944C98.5044 49.0467 98.1358 49.098 97.7624 49.098ZM103.734 49.07C103.566 49.07 103.43 49.0233 103.328 48.93C103.225 48.8273 103.174 48.692 103.174 48.524V43.078H101.172C101.032 43.078 100.92 43.036 100.836 42.952C100.752 42.868 100.71 42.7607 100.71 42.63C100.71 42.4993 100.752 42.392 100.836 42.308C100.92 42.224 101.032 42.182 101.172 42.182H106.296C106.436 42.182 106.548 42.224 106.632 42.308C106.716 42.392 106.758 42.4993 106.758 42.63C106.758 42.7607 106.716 42.868 106.632 42.952C106.548 43.036 106.436 43.078 106.296 43.078H104.308V48.524C104.308 48.692 104.252 48.8273 104.14 48.93C104.037 49.0233 103.902 49.07 103.734 49.07ZM110.668 42.014C112.376 42.014 113.23 42.91 113.23 44.702V48.51C113.23 48.678 113.179 48.8133 113.076 48.916C112.983 49.0187 112.852 49.07 112.684 49.07C112.516 49.07 112.381 49.0187 112.278 48.916C112.175 48.8133 112.124 48.678 112.124 48.51V47.838C111.947 48.2393 111.676 48.552 111.312 48.776C110.948 48.9907 110.528 49.098 110.052 49.098C109.613 49.098 109.207 49.0093 108.834 48.832C108.47 48.6547 108.181 48.4073 107.966 48.09C107.751 47.7727 107.644 47.4227 107.644 47.04C107.644 46.5267 107.775 46.13 108.036 45.85C108.297 45.5607 108.727 45.3553 109.324 45.234C109.921 45.1033 110.752 45.038 111.816 45.038H112.124V44.576C112.124 44.016 112.007 43.6053 111.774 43.344C111.55 43.0827 111.181 42.952 110.668 42.952C110.033 42.952 109.389 43.1247 108.736 43.47C108.484 43.6287 108.307 43.708 108.204 43.708C108.092 43.708 107.999 43.666 107.924 43.582C107.849 43.498 107.812 43.3907 107.812 43.26C107.812 43.1293 107.849 43.0173 107.924 42.924C108.008 42.8213 108.139 42.7187 108.316 42.616C108.643 42.4293 109.011 42.2847 109.422 42.182C109.842 42.07 110.257 42.014 110.668 42.014ZM110.206 48.202C110.766 48.202 111.223 48.0153 111.578 47.642C111.942 47.2593 112.124 46.7693 112.124 46.172V45.766H111.872C111.051 45.766 110.425 45.8033 109.996 45.878C109.567 45.9433 109.259 46.06 109.072 46.228C108.895 46.3867 108.806 46.6247 108.806 46.942C108.806 47.306 108.937 47.6093 109.198 47.852C109.469 48.0853 109.805 48.202 110.206 48.202ZM115.866 49C115.689 49 115.544 48.9487 115.432 48.846C115.329 48.7433 115.278 48.608 115.278 48.44V42.77C115.278 42.5927 115.329 42.4527 115.432 42.35C115.535 42.238 115.675 42.182 115.852 42.182H118.274C119.021 42.182 119.599 42.3267 120.01 42.616C120.421 42.9053 120.626 43.3393 120.626 43.918C120.626 44.254 120.528 44.5667 120.332 44.856C120.136 45.1453 119.837 45.36 119.436 45.5C119.856 45.5747 120.187 45.752 120.43 46.032C120.682 46.312 120.808 46.6667 120.808 47.096C120.808 47.4133 120.719 47.7167 120.542 48.006C120.374 48.2953 120.103 48.5333 119.73 48.72C119.357 48.9067 118.89 49 118.33 49H115.866ZM118.19 45.122C118.582 45.122 118.899 45.024 119.142 44.828C119.385 44.6227 119.506 44.3473 119.506 44.002C119.506 43.3487 119.053 43.022 118.148 43.022H116.412V45.122H118.19ZM118.218 48.16C119.179 48.16 119.66 47.7913 119.66 47.054C119.66 46.6807 119.52 46.4007 119.24 46.214C118.96 46.0273 118.577 45.934 118.092 45.934H116.412V48.16H118.218ZM125.648 45.304C125.984 45.3973 126.255 45.5513 126.46 45.766C126.665 45.9807 126.908 46.326 127.188 46.802L128.07 48.244C128.126 48.3373 128.154 48.4353 128.154 48.538C128.154 48.6873 128.098 48.8133 127.986 48.916C127.874 49.0187 127.743 49.07 127.594 49.07C127.389 49.07 127.225 48.972 127.104 48.776L126.04 46.984C125.797 46.5827 125.569 46.312 125.354 46.172C125.139 46.032 124.831 45.962 124.43 45.962H123.646V48.51C123.646 48.6873 123.595 48.8273 123.492 48.93C123.389 49.0233 123.249 49.07 123.072 49.07C122.904 49.07 122.769 49.0233 122.666 48.93C122.563 48.8273 122.512 48.6873 122.512 48.51V42.602C122.512 42.434 122.563 42.2987 122.666 42.196C122.769 42.0933 122.904 42.042 123.072 42.042C123.249 42.042 123.389 42.0933 123.492 42.196C123.595 42.2987 123.646 42.434 123.646 42.602V45.08H124.598L126.922 42.28C127.053 42.1213 127.197 42.042 127.356 42.042C127.487 42.042 127.599 42.0887 127.692 42.182C127.795 42.2753 127.846 42.392 127.846 42.532C127.846 42.6533 127.795 42.7793 127.692 42.91L125.648 45.304ZM132.365 42.014C134.073 42.014 134.927 42.91 134.927 44.702V48.51C134.927 48.678 134.876 48.8133 134.773 48.916C134.68 49.0187 134.549 49.07 134.381 49.07C134.213 49.07 134.078 49.0187 133.975 48.916C133.873 48.8133 133.821 48.678 133.821 48.51V47.838C133.644 48.2393 133.373 48.552 133.009 48.776C132.645 48.9907 132.225 49.098 131.749 49.098C131.311 49.098 130.905 49.0093 130.531 48.832C130.167 48.6547 129.878 48.4073 129.663 48.09C129.449 47.7727 129.341 47.4227 129.341 47.04C129.341 46.5267 129.472 46.13 129.733 45.85C129.995 45.5607 130.424 45.3553 131.021 45.234C131.619 45.1033 132.449 45.038 133.513 45.038H133.821V44.576C133.821 44.016 133.705 43.6053 133.471 43.344C133.247 43.0827 132.879 42.952 132.365 42.952C131.731 42.952 131.087 43.1247 130.433 43.47C130.181 43.6287 130.004 43.708 129.901 43.708C129.789 43.708 129.696 43.666 129.621 43.582C129.547 43.498 129.509 43.3907 129.509 43.26C129.509 43.1293 129.547 43.0173 129.621 42.924C129.705 42.8213 129.836 42.7187 130.013 42.616C130.34 42.4293 130.709 42.2847 131.119 42.182C131.539 42.07 131.955 42.014 132.365 42.014ZM131.903 48.202C132.463 48.202 132.921 48.0153 133.275 47.642C133.639 47.2593 133.821 46.7693 133.821 46.172V45.766H133.569C132.748 45.766 132.123 45.8033 131.693 45.878C131.264 45.9433 130.956 46.06 130.769 46.228C130.592 46.3867 130.503 46.6247 130.503 46.942C130.503 47.306 130.634 47.6093 130.895 47.852C131.166 48.0853 131.502 48.202 131.903 48.202Z" fill="#656463"/>
<path d="M54.473 25.5433C54.2113 25.5433 54 25.332 54 25.0703C54 22.7225 55.91 20.8125 58.2578 20.8125C58.5195 20.8125 58.7308 21.0241 58.7308 21.2855C58.7308 21.5472 58.5195 21.7585 58.2578 21.7585C56.4317 21.7585 54.946 23.2442 54.946 25.0703C54.946 25.332 54.7347 25.5433 54.473 25.5433Z" fill="#656463"/>
<path d="M61.5682 21.7589L58.2581 21.7585C57.9967 21.7585 57.7852 21.5467 57.7852 21.2855C57.7852 21.0241 57.9972 20.8125 58.2581 20.8125L61.5682 20.813C61.8298 20.813 62.0412 21.025 62.0412 21.286C62.0412 21.5476 61.8291 21.7589 61.5682 21.7589Z" fill="#656463"/>
<path d="M70.0808 21.7589L68.1888 21.7585C67.9271 21.7585 67.7158 21.5467 67.7158 21.2855C67.7158 21.0241 67.9278 20.8125 68.1888 20.8125L70.0808 20.813C70.3424 20.813 70.5538 21.025 70.5538 21.286C70.5538 21.5476 70.3418 21.7589 70.0808 21.7589Z" fill="#656463"/>
<path d="M54.4735 28.8522C54.2125 28.8522 54.0005 28.6409 54.0005 28.3792L54 25.0697C54 24.8087 54.2113 24.5967 54.473 24.5967C54.734 24.5967 54.946 24.8082 54.946 25.0697L54.9464 28.3792C54.9464 28.6402 54.7351 28.8522 54.4735 28.8522Z" fill="#656463"/>
<path d="M54.947 29.3252C54.4252 29.3252 54.001 28.901 54.001 28.3792C54.001 28.1176 54.2125 27.9062 54.474 27.9062C54.7356 27.9062 54.947 28.1176 54.947 28.3792V28.3802C55.2086 28.3802 55.42 28.5913 55.42 28.8527C55.42 29.1139 55.2086 29.3252 54.947 29.3252Z" fill="#656463"/>
<path d="M73.3923 29.3259H54.9461C54.6847 29.3259 54.4731 29.1145 54.4731 28.8529C54.4731 28.5912 54.6847 28.3799 54.9461 28.3799H73.3923C73.654 28.3799 73.8653 28.5912 73.8653 28.8529C73.8653 29.1145 73.654 29.3259 73.3923 29.3259Z" fill="#656463"/>
<path d="M61.5682 21.7582C61.3065 21.7582 61.0952 21.5469 61.0952 21.2852V18.5746C61.0952 18.3129 61.3065 18.1016 61.5682 18.1016C61.8299 18.1016 62.0412 18.3129 62.0412 18.5746V21.2852C62.0412 21.5469 61.8299 21.7582 61.5682 21.7582Z" fill="#656463"/>
<path d="M68.1888 21.7578C67.9271 21.7578 67.7158 21.5465 67.7158 21.2848V18.5746C67.7158 18.3129 67.9271 18.1016 68.1888 18.1016C68.4505 18.1016 68.6618 18.3129 68.6618 18.5746V21.2848C68.6618 21.5465 68.4505 21.7578 68.1888 21.7578Z" fill="#656463"/>
<path d="M64.8799 19.866C60.7072 19.866 57.312 16.471 57.312 12.2982C57.312 12.0367 57.5233 11.8252 57.785 11.8252C58.0467 11.8252 58.258 12.0367 58.258 12.2982C58.258 15.9498 61.2283 18.9201 64.8799 18.9201C68.5315 18.9201 71.5018 15.9498 71.5018 12.2982C71.5018 12.0367 71.7131 11.8252 71.9747 11.8252C72.2364 11.8252 72.4477 12.0367 72.4477 12.2982C72.4477 16.471 69.0525 19.866 64.8799 19.866Z" fill="#656463"/>
<path d="M71.9747 8.51351C71.7131 8.51351 71.5018 8.30219 71.5018 8.04052C71.5018 4.38892 68.5315 1.41864 64.8799 1.41864C61.2283 1.41864 58.258 4.38892 58.258 8.04052C58.258 8.30219 58.0467 8.51351 57.785 8.51351C57.5233 8.51351 57.312 8.30219 57.312 8.04052C57.312 3.86789 60.7072 0.472656 64.8799 0.472656C69.0525 0.472656 72.4477 3.86789 72.4477 8.04052C72.4477 8.30219 72.2364 8.51351 71.9747 8.51351Z" fill="#656463"/>
<path d="M57.785 12.7714C57.5233 12.7714 57.312 12.56 57.312 12.2984V9.93295C57.312 9.67128 57.5233 9.45996 57.785 9.45996C58.0467 9.45996 58.258 9.67128 58.258 9.93295V12.2984C58.258 12.56 58.0467 12.7714 57.785 12.7714Z" fill="#656463"/>
<path d="M71.973 12.7714C71.7113 12.7714 71.5 12.56 71.5 12.2984V9.93295C71.5 9.67128 71.7113 9.45996 71.973 9.45996C72.2347 9.45996 72.446 9.67128 72.446 9.93295V12.2984C72.446 12.56 72.2347 12.7714 71.973 12.7714Z" fill="#656463"/>
<path d="M72.9199 10.4059H56.8382C56.5766 10.4059 56.3652 10.1946 56.3652 9.93295C56.3652 9.67128 56.5766 9.45996 56.8382 9.45996H72.9199C73.1816 9.45996 73.3929 9.67128 73.3929 9.93295C73.3929 10.1946 73.1816 10.4059 72.9199 10.4059Z" fill="#656463"/>
<path d="M72.9195 10.4058C72.7909 10.4058 72.6623 10.3539 72.569 10.2506C72.5567 10.2379 70.8407 8.51388 64.8787 8.51388C58.9166 8.51388 57.2011 10.2379 57.184 10.2555C57.0048 10.4428 56.7069 10.4532 56.5177 10.2772C56.3284 10.1008 56.3133 9.80745 56.4872 9.61553C56.563 9.53169 58.4171 7.56836 64.8787 7.56836C71.3403 7.56836 73.1944 9.53169 73.2701 9.61553C73.4454 9.80883 73.4309 10.1084 73.2373 10.2839C73.1466 10.3652 73.0332 10.4058 72.9195 10.4058Z" fill="#656463"/>
<path d="M71.973 9.77114C71.7113 9.77114 71.5 9.55958 71.5 9.29814V8.04037C71.5 7.7787 71.7113 7.56738 71.973 7.56738C72.2347 7.56738 72.446 7.7787 72.446 8.04037V9.29814C72.446 9.55958 72.2347 9.77114 71.973 9.77114Z" fill="#656463"/>
<path d="M57.785 9.77114C57.5233 9.77114 57.312 9.55958 57.312 9.29814V8.04037C57.312 7.7787 57.5233 7.56738 57.785 7.56738C58.0467 7.56738 58.258 7.7787 58.258 8.04037V9.29814C58.258 9.55958 58.0467 9.77114 57.785 9.77114Z" fill="#656463"/>
<path d="M64.8783 6.62182C63.8348 6.62182 62.9863 5.7733 62.9863 4.72986C62.9863 3.68641 63.8348 2.83789 64.8783 2.83789C65.9217 2.83789 66.7703 3.68641 66.7703 4.72986C66.7703 5.7733 65.9217 6.62182 64.8783 6.62182ZM64.8783 3.78387C64.3566 3.78387 63.9323 4.20813 63.9323 4.72986C63.9323 5.25158 64.3566 5.67584 64.8783 5.67584C65.4 5.67584 65.8243 5.25158 65.8243 4.72986C65.8243 4.20813 65.4 3.78387 64.8783 3.78387Z" fill="#656463"/>
<path d="M64.8792 1.41897C64.6176 1.41897 64.4062 1.20765 64.4062 0.945983V0.472991C64.4062 0.211322 64.6176 0 64.8792 0C65.1409 0 65.3522 0.211322 65.3522 0.472991V0.945983C65.3522 1.20765 65.1409 1.41897 64.8792 1.41897Z" fill="#656463"/>
<path d="M63.4596 22.7035C63.3887 22.7035 63.3161 22.6873 63.2492 22.6538L61.3572 21.7092C61.1235 21.5928 61.0283 21.3085 61.1452 21.075C61.262 20.8404 61.5477 20.7475 61.7794 20.863L63.6713 21.8076C63.9051 21.924 64.0002 22.2083 63.8834 22.4418C63.8007 22.6079 63.6332 22.7035 63.4596 22.7035Z" fill="#656463"/>
<path d="M63.4595 22.7028C63.2613 22.7028 63.0764 22.5769 63.0105 22.3788C62.9283 22.131 63.0623 21.8633 63.3105 21.7804L64.7295 21.3088C64.9773 21.228 65.245 21.361 65.3279 21.6088C65.4101 21.8566 65.2762 22.1243 65.0279 22.2072L63.6089 22.6788C63.5593 22.6947 63.5087 22.7028 63.4595 22.7028Z" fill="#656463"/>
<path d="M66.2975 22.703C66.1238 22.703 65.9564 22.6074 65.8737 22.4409C65.7568 22.2074 65.852 21.9231 66.0857 21.8067L67.9777 20.8621C68.2112 20.7461 68.4959 20.8404 68.6119 21.0741C68.7287 21.3076 68.6336 21.5919 68.3999 21.7083L66.5079 22.6529C66.4409 22.6868 66.3679 22.703 66.2975 22.703Z" fill="#656463"/>
<path d="M66.2984 22.7028C66.2492 22.7028 66.1986 22.6947 66.1494 22.6788L64.7304 22.2072C64.4826 22.1242 64.3482 21.857 64.4304 21.6088C64.5133 21.3614 64.7815 21.2279 65.0288 21.3087L66.4478 21.7803C66.6956 21.8633 66.83 22.1305 66.7478 22.3787C66.6815 22.5769 66.4965 22.7028 66.2984 22.7028Z" fill="#656463"/>
<path d="M64.8942 24.5954C64.6328 24.5954 64.4189 24.3838 64.4189 24.1224C64.4189 23.8607 64.628 23.6494 64.8892 23.6494H64.8942C65.1555 23.6494 65.3672 23.8607 65.3672 24.1224C65.3672 24.3838 65.1555 24.5954 64.8942 24.5954Z" fill="#656463"/>
<path d="M80.9607 29.3254H70.0819C69.8202 29.3254 69.6089 29.1141 69.6089 28.8524V21.2855C69.6089 21.0241 69.8202 20.8125 70.0819 20.8125H80.9607C81.2224 20.8125 81.4337 21.0241 81.4337 21.2855V28.8524C81.4337 29.1141 81.2224 29.3254 80.9607 29.3254ZM70.5549 28.3794H80.4877V21.7585H70.5549V28.3794Z" fill="#656463"/>
<path d="M70.0813 21.6787C69.9797 21.6787 69.8765 21.6461 69.7903 21.578C69.5848 21.417 69.5483 21.1195 69.7095 20.9142L71.1285 19.1008C71.2883 18.8952 71.5865 18.8578 71.7922 19.02C71.9978 19.1807 72.0343 19.4784 71.8731 19.6837L70.4541 21.4972C70.3613 21.6163 70.2218 21.6787 70.0813 21.6787Z" fill="#656463"/>
<path d="M80.9609 21.7581C80.8166 21.7581 80.6752 21.6928 80.5822 21.569L79.1632 19.6756C79.0061 19.4671 79.0486 19.1703 79.2576 19.014C79.4667 18.8565 79.7634 18.8994 79.9193 19.1084L81.3383 21.0018C81.4953 21.2106 81.4528 21.5071 81.2438 21.6635C81.1591 21.7274 81.0593 21.7581 80.9609 21.7581Z" fill="#656463"/>
<path d="M79.5407 19.8649H71.4998C71.2382 19.8649 71.0269 19.6534 71.0269 19.3919C71.0269 19.1303 71.2382 18.9189 71.4998 18.9189H79.5407C79.8024 18.9189 80.0137 19.1303 80.0137 19.3919C80.0137 19.6534 79.8024 19.8649 79.5407 19.8649Z" fill="#656463"/>
<path d="M74.3388 21.7274C74.3 21.7274 74.2607 21.7226 74.2219 21.7126C73.969 21.6484 73.8156 21.3911 73.8798 21.138L74.3528 19.2763C74.4173 19.0223 74.6764 18.8677 74.9277 18.9345C75.1806 18.9987 75.3339 19.256 75.2697 19.5091L74.7967 21.3708C74.7422 21.5851 74.5496 21.7274 74.3388 21.7274Z" fill="#656463"/>
<path d="M76.7022 21.7587C76.4901 21.7587 76.2978 21.6155 76.2437 21.4003L75.7707 19.5069C75.707 19.2538 75.8613 18.997 76.1151 18.9335C76.3682 18.8693 76.625 19.024 76.6885 19.2778L77.1615 21.1712C77.2253 21.4243 77.071 21.6811 76.8172 21.7446C76.7788 21.7541 76.74 21.7587 76.7022 21.7587Z" fill="#656463"/>
<path d="M74.3382 24.122C74.0766 24.122 73.8652 23.9104 73.8652 23.649V21.2542C73.8652 20.9926 74.0766 20.7812 74.3382 20.7812C74.5999 20.7812 74.8112 20.9926 74.8112 21.2542V23.649C74.8112 23.9104 74.5999 24.122 74.3382 24.122Z" fill="#656463"/>
<path d="M76.7039 24.1221C76.4423 24.1221 76.231 23.9105 76.231 23.6491V21.2855C76.231 21.0241 76.4423 20.8125 76.7039 20.8125C76.9656 20.8125 77.1769 21.0241 77.1769 21.2855V23.6491C77.1769 23.9105 76.9656 24.1221 76.7039 24.1221Z" fill="#656463"/>
<path d="M76.7032 24.1218H74.3382C74.0766 24.1218 73.8652 23.9102 73.8652 23.6488C73.8652 23.3871 74.0766 23.1758 74.3382 23.1758H76.7032C76.9649 23.1758 77.1762 23.3871 77.1762 23.6488C77.1762 23.9102 76.9649 24.1218 76.7032 24.1218Z" fill="#656463"/>
</svg>
