<svg width="72" height="55" viewBox="0 0 72 55" fill="none" xmlns="http://www.w3.org/2000/svg">
<path d="M5.404 48.112C4.47067 48.112 3.66333 47.9113 2.982 47.51C2.30067 47.0993 1.77333 46.516 1.4 45.76C1.036 44.9947 0.854 44.094 0.854 43.058C0.854 42.0313 1.036 41.14 1.4 40.384C1.77333 39.6187 2.30067 39.0353 2.982 38.634C3.66333 38.2233 4.47067 38.018 5.404 38.018C6.02933 38.018 6.61733 38.1207 7.168 38.326C7.728 38.522 8.21333 38.8067 8.624 39.18C8.77333 39.32 8.848 39.4833 8.848 39.67C8.848 39.8007 8.81067 39.9173 8.736 40.02C8.66133 40.1133 8.57267 40.16 8.47 40.16C8.358 40.16 8.22267 40.1087 8.064 40.006C7.588 39.6327 7.154 39.3713 6.762 39.222C6.37933 39.0727 5.936 38.998 5.432 38.998C4.34933 38.998 3.514 39.3527 2.926 40.062C2.34733 40.762 2.058 41.7607 2.058 43.058C2.058 44.3647 2.34733 45.3727 2.926 46.082C3.514 46.782 4.34933 47.132 5.432 47.132C5.92667 47.132 6.37 47.0573 6.762 46.908C7.154 46.7587 7.588 46.4973 8.064 46.124C8.22267 46.0213 8.358 45.97 8.47 45.97C8.57267 45.97 8.66133 46.0167 8.736 46.11C8.81067 46.2033 8.848 46.32 8.848 46.46C8.848 46.6467 8.77333 46.81 8.624 46.95C8.21333 47.3233 7.728 47.6127 7.168 47.818C6.61733 48.014 6.02933 48.112 5.404 48.112ZM13.1739 41.014C14.8819 41.014 15.7359 41.91 15.7359 43.702V47.51C15.7359 47.678 15.6846 47.8133 15.5819 47.916C15.4886 48.0187 15.3579 48.07 15.1899 48.07C15.0219 48.07 14.8866 48.0187 14.7839 47.916C14.6812 47.8133 14.6299 47.678 14.6299 47.51V46.838C14.4526 47.2393 14.1819 47.552 13.8179 47.776C13.4539 47.9907 13.0339 48.098 12.5579 48.098C12.1192 48.098 11.7132 48.0093 11.3399 47.832C10.9759 47.6547 10.6866 47.4073 10.4719 47.09C10.2572 46.7727 10.1499 46.4227 10.1499 46.04C10.1499 45.5267 10.2806 45.13 10.5419 44.85C10.8032 44.5607 11.2326 44.3553 11.8299 44.234C12.4272 44.1033 13.2579 44.038 14.3219 44.038H14.6299V43.576C14.6299 43.016 14.5132 42.6053 14.2799 42.344C14.0559 42.0827 13.6872 41.952 13.1739 41.952C12.5392 41.952 11.8952 42.1247 11.2419 42.47C10.9899 42.6287 10.8126 42.708 10.7099 42.708C10.5979 42.708 10.5046 42.666 10.4299 42.582C10.3552 42.498 10.3179 42.3907 10.3179 42.26C10.3179 42.1293 10.3552 42.0173 10.4299 41.924C10.5139 41.8213 10.6446 41.7187 10.8219 41.616C11.1486 41.4293 11.5172 41.2847 11.9279 41.182C12.3479 41.07 12.7632 41.014 13.1739 41.014ZM12.7119 47.202C13.2719 47.202 13.7292 47.0153 14.0839 46.642C14.4479 46.2593 14.6299 45.7693 14.6299 45.172V44.766H14.3779C13.5566 44.766 12.9312 44.8033 12.5019 44.878C12.0726 44.9433 11.7646 45.06 11.5779 45.228C11.4006 45.3867 11.3119 45.6247 11.3119 45.942C11.3119 46.306 11.4426 46.6093 11.7039 46.852C11.9746 47.0853 12.3106 47.202 12.7119 47.202ZM24.1817 41.042C24.3591 41.042 24.4991 41.0933 24.6017 41.196C24.7137 41.2987 24.7697 41.4387 24.7697 41.616V47.538C24.7697 47.6967 24.7184 47.8273 24.6157 47.93C24.5224 48.0233 24.3964 48.07 24.2377 48.07C24.0791 48.07 23.9484 48.0233 23.8457 47.93C23.7524 47.8273 23.7057 47.6967 23.7057 47.538L23.7197 42.988L21.7877 46.6C21.7411 46.6933 21.6711 46.768 21.5777 46.824C21.4937 46.88 21.3957 46.908 21.2837 46.908C21.1717 46.908 21.0691 46.88 20.9757 46.824C20.8917 46.768 20.8264 46.6933 20.7797 46.6L18.8337 42.988L18.8477 47.538C18.8477 47.6967 18.7964 47.8273 18.6937 47.93C18.6004 48.0233 18.4744 48.07 18.3157 48.07C18.1571 48.07 18.0264 48.0233 17.9237 47.93C17.8304 47.8273 17.7837 47.6967 17.7837 47.538V41.63C17.7837 41.4527 17.8351 41.3127 17.9377 41.21C18.0404 41.098 18.1804 41.042 18.3577 41.042C18.6377 41.042 18.8431 41.168 18.9737 41.42L21.2837 45.76L23.5657 41.448C23.7057 41.1773 23.9111 41.042 24.1817 41.042ZM29.6632 48.098C29.0192 48.098 28.4498 47.9533 27.9552 47.664C27.4698 47.3747 27.0918 46.964 26.8212 46.432C26.5598 45.8907 26.4292 45.2653 26.4292 44.556C26.4292 43.8467 26.5598 43.226 26.8212 42.694C27.0918 42.1527 27.4698 41.7373 27.9552 41.448C28.4498 41.1587 29.0192 41.014 29.6632 41.014C30.3072 41.014 30.8765 41.1587 31.3712 41.448C31.8658 41.7373 32.2438 42.1527 32.5052 42.694C32.7758 43.226 32.9112 43.8467 32.9112 44.556C32.9112 45.2653 32.7758 45.8907 32.5052 46.432C32.2438 46.964 31.8658 47.3747 31.3712 47.664C30.8765 47.9533 30.3072 48.098 29.6632 48.098ZM29.6632 47.16C30.3352 47.16 30.8485 46.9407 31.2032 46.502C31.5672 46.054 31.7492 45.4053 31.7492 44.556C31.7492 43.7253 31.5672 43.086 31.2032 42.638C30.8392 42.1807 30.3258 41.952 29.6632 41.952C29.0005 41.952 28.4872 42.1807 28.1232 42.638C27.7592 43.086 27.5772 43.7253 27.5772 44.556C27.5772 45.396 27.7545 46.04 28.1092 46.488C28.4732 46.936 28.9912 47.16 29.6632 47.16ZM35.1608 48C34.9834 48 34.8388 47.9487 34.7268 47.846C34.6241 47.7433 34.5728 47.608 34.5728 47.44V41.77C34.5728 41.5927 34.6241 41.4527 34.7268 41.35C34.8294 41.238 34.9694 41.182 35.1468 41.182H37.5688C38.3154 41.182 38.8941 41.3267 39.3048 41.616C39.7154 41.9053 39.9208 42.3393 39.9208 42.918C39.9208 43.254 39.8228 43.5667 39.6268 43.856C39.4308 44.1453 39.1321 44.36 38.7308 44.5C39.1508 44.5747 39.4821 44.752 39.7248 45.032C39.9768 45.312 40.1028 45.6667 40.1028 46.096C40.1028 46.4133 40.0141 46.7167 39.8368 47.006C39.6688 47.2953 39.3981 47.5333 39.0248 47.72C38.6514 47.9067 38.1848 48 37.6248 48H35.1608ZM37.4848 44.122C37.8768 44.122 38.1941 44.024 38.4368 43.828C38.6794 43.6227 38.8008 43.3473 38.8008 43.002C38.8008 42.3487 38.3481 42.022 37.4428 42.022H35.7068V44.122H37.4848ZM37.5128 47.16C38.4741 47.16 38.9548 46.7913 38.9548 46.054C38.9548 45.6807 38.8148 45.4007 38.5348 45.214C38.2548 45.0273 37.8721 44.934 37.3868 44.934H35.7068V47.16H37.5128ZM42.3248 48C42.1475 48 42.0028 47.9487 41.8908 47.846C41.7882 47.7433 41.7368 47.608 41.7368 47.44V41.602C41.7368 41.434 41.7882 41.2987 41.8908 41.196C41.9935 41.0933 42.1335 41.042 42.3108 41.042C42.4788 41.042 42.6142 41.0933 42.7168 41.196C42.8195 41.2987 42.8708 41.434 42.8708 41.602V43.618H43.9068C45.6428 43.618 46.5108 44.3273 46.5108 45.746C46.5108 46.25 46.3848 46.6747 46.1328 47.02C45.8808 47.356 45.5495 47.6033 45.1388 47.762C44.7375 47.9207 44.3128 48 43.8648 48H42.3248ZM48.1628 48.07C47.9948 48.07 47.8595 48.0233 47.7568 47.93C47.6542 47.8273 47.6028 47.692 47.6028 47.524V41.602C47.6028 41.434 47.6542 41.2987 47.7568 41.196C47.8595 41.0933 47.9948 41.042 48.1628 41.042C48.3402 41.042 48.4802 41.0933 48.5828 41.196C48.6855 41.2987 48.7368 41.434 48.7368 41.602V47.524C48.7368 47.692 48.6855 47.8273 48.5828 47.93C48.4802 48.0233 48.3402 48.07 48.1628 48.07ZM43.6828 47.146C44.1308 47.146 44.5228 47.0387 44.8588 46.824C45.2042 46.6093 45.3768 46.2547 45.3768 45.76C45.3768 45.256 45.2228 44.9153 44.9148 44.738C44.6162 44.5607 44.2055 44.472 43.6828 44.472H42.8568V47.146H43.6828ZM51.3756 48C51.1983 48 51.0536 47.9487 50.9416 47.846C50.839 47.7433 50.7876 47.608 50.7876 47.44V41.77C50.7876 41.5927 50.839 41.4527 50.9416 41.35C51.0443 41.238 51.1843 41.182 51.3616 41.182H53.7836C54.5303 41.182 55.109 41.3267 55.5196 41.616C55.9303 41.9053 56.1356 42.3393 56.1356 42.918C56.1356 43.254 56.0376 43.5667 55.8416 43.856C55.6456 44.1453 55.347 44.36 54.9456 44.5C55.3656 44.5747 55.697 44.752 55.9396 45.032C56.1916 45.312 56.3176 45.6667 56.3176 46.096C56.3176 46.4133 56.229 46.7167 56.0516 47.006C55.8836 47.2953 55.613 47.5333 55.2396 47.72C54.8663 47.9067 54.3996 48 53.8396 48H51.3756ZM53.6996 44.122C54.0916 44.122 54.409 44.024 54.6516 43.828C54.8943 43.6227 55.0156 43.3473 55.0156 43.002C55.0156 42.3487 54.563 42.022 53.6576 42.022H51.9216V44.122H53.6996ZM53.7276 47.16C54.689 47.16 55.1696 46.7913 55.1696 46.054C55.1696 45.6807 55.0296 45.4007 54.7496 45.214C54.4696 45.0273 54.087 44.934 53.6016 44.934H51.9216V47.16H53.7276ZM60.8077 48.098C60.1637 48.098 59.5944 47.9533 59.0997 47.664C58.6144 47.3747 58.2364 46.964 57.9657 46.432C57.7044 45.8907 57.5737 45.2653 57.5737 44.556C57.5737 43.8467 57.7044 43.226 57.9657 42.694C58.2364 42.1527 58.6144 41.7373 59.0997 41.448C59.5944 41.1587 60.1637 41.014 60.8077 41.014C61.4517 41.014 62.021 41.1587 62.5157 41.448C63.0104 41.7373 63.3884 42.1527 63.6497 42.694C63.9204 43.226 64.0557 43.8467 64.0557 44.556C64.0557 45.2653 63.9204 45.8907 63.6497 46.432C63.3884 46.964 63.0104 47.3747 62.5157 47.664C62.021 47.9533 61.4517 48.098 60.8077 48.098ZM60.8077 47.16C61.4797 47.16 61.993 46.9407 62.3477 46.502C62.7117 46.054 62.8937 45.4053 62.8937 44.556C62.8937 43.7253 62.7117 43.086 62.3477 42.638C61.9837 42.1807 61.4704 41.952 60.8077 41.952C60.145 41.952 59.6317 42.1807 59.2677 42.638C58.9037 43.086 58.7217 43.7253 58.7217 44.556C58.7217 45.396 58.899 46.04 59.2537 46.488C59.6177 46.936 60.1357 47.16 60.8077 47.16ZM67.8033 48.098C66.8233 48.098 66.0066 47.8787 65.3533 47.44C65.176 47.328 65.0873 47.1833 65.0873 47.006C65.0873 46.894 65.1293 46.796 65.2133 46.712C65.3066 46.6187 65.414 46.572 65.5353 46.572C65.638 46.572 65.7313 46.6 65.8153 46.656C66.114 46.8333 66.408 46.964 66.6973 47.048C66.996 47.132 67.3413 47.174 67.7333 47.174C68.2093 47.174 68.6293 47.0713 68.9933 46.866C69.3666 46.6607 69.5533 46.3573 69.5533 45.956C69.5533 45.2747 69.0866 44.934 68.1533 44.934H67.0893C66.9586 44.934 66.8513 44.892 66.7673 44.808C66.6833 44.724 66.6413 44.6167 66.6413 44.486C66.6413 44.3647 66.6833 44.2667 66.7673 44.192C66.8513 44.108 66.9586 44.066 67.0893 44.066H68.0553C68.466 44.066 68.7973 43.9633 69.0493 43.758C69.3013 43.5527 69.4273 43.2867 69.4273 42.96C69.4273 42.6427 69.3013 42.3953 69.0493 42.218C68.7973 42.0407 68.424 41.952 67.9293 41.952C67.5186 41.952 67.1593 41.9987 66.8513 42.092C66.5526 42.1853 66.268 42.316 65.9973 42.484C65.904 42.5307 65.82 42.554 65.7453 42.554C65.6146 42.554 65.5026 42.512 65.4093 42.428C65.3253 42.3347 65.2833 42.2273 65.2833 42.106C65.2833 41.9287 65.3766 41.7933 65.5633 41.7C66.3006 41.2427 67.1406 41.014 68.0833 41.014C68.942 41.014 69.5766 41.182 69.9873 41.518C70.398 41.8447 70.6033 42.288 70.6033 42.848C70.6033 43.184 70.496 43.5013 70.2813 43.8C70.0666 44.0893 69.768 44.2993 69.3853 44.43C69.852 44.514 70.1926 44.696 70.4073 44.976C70.622 45.256 70.7293 45.6013 70.7293 46.012C70.7293 46.656 70.4493 47.1647 69.8893 47.538C69.3293 47.9113 68.634 48.098 67.8033 48.098Z" fill="#656463"/>
<path d="M49.9999 3.8305C49.9999 3.82711 49.9995 3.82373 49.9993 3.82028C49.999 3.8068 49.9982 3.7935 49.9966 3.78032C49.996 3.77548 49.9951 3.77064 49.9944 3.76581C49.9926 3.75365 49.9903 3.74168 49.9875 3.72995C49.9864 3.7253 49.9852 3.7207 49.984 3.71605C49.9804 3.70329 49.9764 3.69077 49.9718 3.67844C49.971 3.67608 49.9705 3.67366 49.9695 3.67136L48.7377 0.52239C48.6135 0.205087 48.3128 0 47.9716 0H45.7287C45.4842 0 45.2861 0.197892 45.2861 0.442036C45.2861 0.686181 45.4842 0.884073 45.7287 0.884073H47.9288L48.9091 3.39016H39.6409L39.0602 0.884073H42.4831C42.7276 0.884073 42.9258 0.686181 42.9258 0.442036C42.9258 0.197892 42.7276 0 42.4831 0H38.5035H34.0432H24.5749C24.2337 0 23.933 0.205086 23.8088 0.522511L22.577 3.67136C22.5761 3.67372 22.5756 3.67614 22.5747 3.67844C22.5701 3.69071 22.5661 3.70323 22.5626 3.71605C22.5613 3.7207 22.5601 3.7253 22.559 3.72995C22.5562 3.74174 22.554 3.75371 22.5522 3.76581C22.5515 3.77064 22.5505 3.77548 22.5499 3.78032C22.5484 3.7935 22.5476 3.8068 22.5472 3.82028C22.5472 3.82367 22.5467 3.82705 22.5467 3.8305C22.5467 3.83104 22.5466 3.83159 22.5466 3.83213V10.3263C22.5466 10.5705 22.7448 10.7684 22.9893 10.7684C23.2338 10.7684 23.4319 10.5705 23.4319 10.3263V4.27423H32.815V10.9932C32.815 11.256 32.97 11.4954 33.2099 11.6032C33.2978 11.6427 33.3913 11.662 33.4843 11.662C33.6451 11.662 33.8041 11.6043 33.9288 11.4939L36.2733 9.41984L38.6177 11.4939C38.8145 11.6682 39.0968 11.711 39.3368 11.6032C39.5766 11.4954 39.7316 11.256 39.7316 10.9932V4.27423H49.1146V24.1011C49.1146 24.4182 48.8562 24.6764 48.5385 24.6764H40.4221C40.4221 24.6713 40.4215 24.6663 40.4214 24.6613C40.4209 24.6216 40.4195 24.582 40.4161 24.5427C41.1782 24.7445 41.9925 24.3534 42.2979 23.6055C42.4585 23.212 42.4561 22.7797 42.2911 22.3882C42.2756 22.3513 42.2584 22.3155 42.2404 22.2802C42.2371 22.2738 42.2339 22.2673 42.2305 22.2608C42.2128 22.2272 42.1939 22.1944 42.174 22.1624C42.1701 22.1562 42.1661 22.1501 42.1622 22.144C42.1411 22.1111 42.1192 22.0789 42.0959 22.0479C42.0955 22.0473 42.095 22.0467 42.0946 22.0462C42.0715 22.0155 42.047 21.986 42.0218 21.9572C42.0172 21.9519 42.0126 21.9466 42.008 21.9414C41.983 21.9135 41.957 21.8866 41.9301 21.8607C41.9248 21.8556 41.9195 21.8507 41.9142 21.8458C41.886 21.8193 41.8572 21.7937 41.8272 21.7694C41.8261 21.7686 41.8251 21.7678 41.8241 21.767C41.7945 21.7433 41.7638 21.7208 41.7325 21.6992C41.7269 21.6952 41.7213 21.6912 41.7156 21.6874C41.6843 21.6663 41.6522 21.6464 41.6192 21.6275C41.6165 21.6259 41.614 21.6241 41.6113 21.6225C41.7983 21.4609 41.946 21.2563 42.0422 21.0208C42.2028 20.6274 42.2004 20.1951 42.0354 19.8035C41.8911 19.4609 41.6374 19.1853 41.3123 19.0143C41.2659 18.9899 41.218 18.9675 41.1688 18.9475L34.2794 16.1423L37.4863 15.1511C38.2492 14.9152 38.6789 14.1026 38.4441 13.3398C38.3565 13.055 38.1828 12.8148 37.9584 12.6393C37.6245 12.3781 37.1782 12.2601 36.7356 12.3529C36.7335 12.3534 36.7314 12.3537 36.7293 12.3543C36.7048 12.3598 34.2464 12.9118 31.6787 13.4118C31.5649 13.434 31.4539 13.4554 31.3445 13.4764C31.2569 13.4932 31.1706 13.5098 31.0859 13.5259C31.0615 13.5305 31.0371 13.5351 31.013 13.5397C30.8634 13.5681 30.7185 13.5952 30.5777 13.6213C30.521 13.6318 30.4648 13.6422 30.4096 13.6524C27.185 14.2456 26.2792 14.2562 26.0278 14.2223C26.0268 14.2221 26.026 14.222 26.025 14.2218C26.0212 14.2213 26.0174 14.2207 26.0139 14.2202C26.0114 14.2198 26.009 14.2194 26.0067 14.219C26.005 14.2187 26.0032 14.2184 26.0015 14.2181C25.9858 14.2153 25.9736 14.2123 25.9642 14.2095L25.8916 14.18L25.982 13.9586C26.0709 13.741 26.0696 13.5018 25.9783 13.2852C25.9555 13.231 25.9277 13.1798 25.8955 13.1322C25.7989 12.9893 25.6622 12.8781 25.4987 12.8115L23.1212 11.8434C22.9033 11.7546 22.6637 11.756 22.4468 11.8471C22.2298 11.9383 22.0614 12.1083 21.9725 12.3259L19.0652 19.4461C18.8818 19.8954 19.0986 20.4099 19.5485 20.5932L21.9261 21.5613C22.0347 21.6055 22.147 21.6264 22.2576 21.6264C22.6053 21.6264 22.9356 21.4195 23.0748 21.0787L23.0966 21.0252L23.6448 21.2483C23.6451 21.2485 23.6454 21.2486 23.6458 21.2488C24.1701 21.4623 24.6532 21.7669 25.0713 22.1449C25.1474 22.2136 25.2213 22.2848 25.2929 22.3582C25.3645 22.4317 25.4338 22.5075 25.5007 22.5855C25.5341 22.6245 25.567 22.6641 25.5991 22.7042C26.2084 23.4629 27.0071 24.058 27.9089 24.4252L28.5256 24.6763H24.0081C23.6905 24.6763 23.432 24.4182 23.432 24.101V22.9825C23.432 22.7384 23.2338 22.5405 22.9893 22.5405C22.7448 22.5405 22.5467 22.7384 22.5467 22.9825V24.101C22.5467 24.9057 23.2022 25.5604 24.0081 25.5604H30.6969L36.3992 27.8822C36.5955 27.9622 36.7986 28.0001 36.9986 28C37.627 28 38.2238 27.626 38.4754 27.01C38.5786 26.7573 38.6117 26.4932 38.5839 26.2394C38.8805 26.2819 39.1881 26.2429 39.4668 26.1227C39.7501 26.0005 39.9849 25.8058 40.1517 25.5603H48.5386C49.3444 25.5603 50 24.9057 50 24.1009V3.83219C49.9999 3.83159 49.9999 3.8311 49.9999 3.8305ZM34.3951 0.884073H38.1515L38.7322 3.39016H33.8144L34.3951 0.884073ZM32.9057 3.39016H23.6375L24.6178 0.884073H33.4864L32.9057 3.39016ZM38.8464 10.515H38.8464L36.7174 8.63165C36.5908 8.51968 36.4321 8.46369 36.2734 8.46369C36.1146 8.46369 35.9558 8.51968 35.8292 8.63165L33.7003 10.515V4.27423H38.8464V10.515ZM22.2565 20.7411L19.8866 19.7761L22.7907 12.6637L25.1607 13.6287L22.2565 20.7411ZM39.9413 23.4087L39.4333 23.2018C39.433 23.2017 39.4328 23.2016 39.4325 23.2015C39.4324 23.2014 39.4322 23.2013 39.432 23.2013C39.4319 23.2013 39.4319 23.2012 39.4318 23.2012L34.1409 21.0469C33.9146 20.9547 33.6562 21.0632 33.5639 21.2893C33.4715 21.5154 33.5802 21.7734 33.8067 21.8656L39.0977 24.02C39.1198 24.029 39.1412 24.039 39.1618 24.0499C39.1677 24.053 39.173 24.0567 39.1787 24.0599C39.1933 24.0682 39.2079 24.0764 39.2216 24.0855C39.2282 24.0899 39.2343 24.095 39.2407 24.0996C39.2528 24.1083 39.2653 24.1169 39.2768 24.1263C39.2837 24.132 39.29 24.1384 39.2967 24.1443C39.307 24.1534 39.3176 24.1622 39.3273 24.1719C39.334 24.1786 39.34 24.1859 39.3464 24.1928C39.3553 24.2023 39.3644 24.2117 39.3728 24.2217C39.3791 24.2294 39.3847 24.2376 39.3908 24.2455C39.3983 24.2554 39.4062 24.2652 39.4132 24.2754C39.419 24.284 39.4241 24.2931 39.4295 24.3019C39.4358 24.312 39.4425 24.322 39.4482 24.3324C39.4534 24.3419 39.4578 24.3517 39.4626 24.3613C39.4677 24.3717 39.4732 24.3818 39.4778 24.3924C39.4822 24.4026 39.4858 24.4131 39.4897 24.4234C39.4937 24.4339 39.4981 24.4442 39.5016 24.4548C39.5051 24.4655 39.5077 24.4765 39.5107 24.4873C39.5137 24.498 39.517 24.5085 39.5195 24.5193C39.522 24.5303 39.5235 24.5414 39.5255 24.5524C39.5275 24.5634 39.5298 24.5743 39.5313 24.5854C39.5327 24.5965 39.5333 24.6078 39.5342 24.619C39.5351 24.6302 39.5364 24.6414 39.5368 24.6527C39.5372 24.6637 39.5366 24.6749 39.5365 24.686C39.5364 24.6975 39.5366 24.709 39.5358 24.7206C39.5352 24.7315 39.5335 24.7424 39.5323 24.7534C39.531 24.7652 39.5301 24.777 39.5281 24.7887C39.5264 24.7995 39.5237 24.8102 39.5214 24.8209C39.5189 24.8328 39.5168 24.8447 39.5136 24.8566C39.5108 24.8671 39.507 24.8774 39.5037 24.8878C39.4999 24.8997 39.4965 24.9115 39.4921 24.9232C39.4883 24.9313 39.4846 24.9394 39.4812 24.9475C39.4804 24.9494 39.4799 24.9513 39.4792 24.9531C39.4101 25.1126 39.2824 25.2393 39.1158 25.3111C38.9323 25.3902 38.7223 25.3929 38.5394 25.3185L37.602 24.9368C37.5976 24.935 37.5932 24.9338 37.5888 24.9322C37.5844 24.9302 37.5802 24.9279 37.5758 24.9261L33.2723 23.1738C33.0458 23.0817 32.7876 23.1901 32.6953 23.4163C32.603 23.6423 32.7117 23.9003 32.9381 23.9925L37.2415 25.7448C37.2461 25.7466 37.2507 25.748 37.2554 25.7497C37.2596 25.7515 37.2635 25.7537 37.2678 25.7554C37.6289 25.9025 37.803 26.3156 37.6557 26.6762C37.5084 27.037 37.095 27.2109 36.7336 27.0637L30.9517 24.7094C30.9515 24.7093 30.9512 24.7092 30.951 24.7091L28.2433 23.6065C27.7667 23.4125 27.3241 23.1431 26.9334 22.8117C26.699 22.6129 26.4832 22.3917 26.29 22.1511C26.0996 21.914 25.8907 21.6929 25.6659 21.4897C25.1714 21.0427 24.6002 20.6825 23.9802 20.4301C23.9802 20.4301 23.9801 20.43 23.9801 20.43L23.4311 20.2065L24.5244 17.529L25.5576 14.9987L25.6338 15.0297C25.7056 15.0589 25.8079 15.1004 26.0833 15.1108C26.4273 15.1263 26.9964 15.0905 28.016 14.9467C28.7096 14.8488 29.5603 14.7073 30.5535 14.5249C30.5779 14.5204 30.6022 14.5159 30.6269 14.5114C30.6734 14.5028 30.7203 14.4941 30.7674 14.4854C30.804 14.4786 30.8408 14.4717 30.878 14.4648C30.9202 14.4569 30.9627 14.4489 31.0054 14.4409C31.0508 14.4324 31.0967 14.4237 31.1428 14.415C31.1797 14.4079 31.2166 14.401 31.2539 14.3939C31.3101 14.3832 31.3674 14.3723 31.4248 14.3613C31.4543 14.3556 31.4835 14.35 31.5133 14.3443C31.6012 14.3274 31.6903 14.3102 31.781 14.2926C34.3398 13.7956 36.8095 13.2425 36.9205 13.2176C36.9315 13.2153 36.9426 13.2139 36.9537 13.2123C37.238 13.1703 37.5166 13.3345 37.5982 13.5994C37.6268 13.6926 37.6301 13.7875 37.6121 13.8769C37.5724 14.0736 37.4293 14.2433 37.2247 14.3065L32.8362 15.6629C32.6575 15.7181 32.5329 15.8794 32.5248 16.066C32.5167 16.2525 32.6268 16.424 32.8 16.4945L40.8347 19.7662C41.0097 19.8374 41.1464 19.9724 41.2197 20.1464C41.293 20.3203 41.2941 20.5123 41.2227 20.687C41.1513 20.8618 41.0161 20.9983 40.8419 21.0714C40.7549 21.108 40.6633 21.1265 40.5715 21.127C40.5702 21.127 40.5689 21.1268 40.5676 21.1268C40.546 21.1268 40.5245 21.126 40.503 21.124C40.4967 21.1234 40.4904 21.122 40.484 21.1213C40.4676 21.1193 40.4512 21.1174 40.4349 21.1143C40.4246 21.1123 40.4144 21.1093 40.4042 21.1069C40.392 21.104 40.3797 21.1015 40.3676 21.0979C40.355 21.0942 40.3427 21.0893 40.3304 21.0849C40.3206 21.0814 40.3106 21.0785 40.3009 21.0746L35.0094 18.92C34.783 18.8278 34.5247 18.9363 34.4324 19.1624C34.34 19.3885 34.4487 19.6465 34.6751 19.7387L41.0904 22.3508C41.1341 22.3686 41.1755 22.3904 41.2141 22.4158C41.3298 22.492 41.4204 22.6005 41.4753 22.731C41.5394 22.8832 41.5483 23.0492 41.5017 23.2054C41.495 23.2277 41.4872 23.2498 41.4783 23.2716C41.4691 23.2942 41.4589 23.316 41.4477 23.3371C41.4216 23.386 41.3898 23.4303 41.3543 23.4706C41.3323 23.4957 41.3087 23.519 41.2836 23.5404C41.2796 23.5438 41.276 23.5477 41.2719 23.5509C41.1104 23.6828 40.8944 23.7396 40.6834 23.697C40.6406 23.6883 40.5981 23.6761 40.5562 23.659L39.9413 23.4087Z" fill="#656463"/>
</svg>
