<svg width="298" height="194" viewBox="0 0 298 194" fill="none" xmlns="http://www.w3.org/2000/svg">
<path d="M37.9529 99.9461C37.7196 99.9462 37.4932 99.8669 37.311 99.7212C35.8814 98.576 2.3017 71.4461 2.05521 50.4865C2.01096 47.4768 2.56024 44.4878 3.67168 41.6905C4.78312 38.8931 6.43492 36.3422 8.53267 34.1835C10.4019 32.2545 12.6379 30.7185 15.1092 29.6659C17.5805 28.6134 20.2373 28.0654 22.9234 28.0542C25.7737 28.0754 28.5871 28.701 31.1779 29.8896C33.7686 31.0782 36.0778 32.8029 37.9529 34.9497C39.8279 32.803 42.1369 31.0784 44.7274 29.8898C47.318 28.7012 50.1312 28.0755 52.9814 28.0542C55.9528 28.0782 58.8863 28.7245 61.5927 29.9514C64.2991 31.1783 66.7185 32.9587 68.6949 35.1777C70.5961 37.2338 72.0386 39.6706 72.9265 42.3266C73.8145 44.9825 74.1277 47.7969 73.8454 50.5831C71.4833 73.5207 39.933 98.6695 38.5917 99.7294C38.4092 99.8715 38.1842 99.9478 37.9529 99.9461ZM22.9234 30.1083C20.5092 30.1204 18.1217 30.615 15.9014 31.563C13.6811 32.511 11.6726 33.8932 9.99413 35.6285C8.08676 37.5931 6.58528 39.9144 5.57552 42.4596C4.56576 45.0048 4.06751 47.724 4.10926 50.4619C4.32391 68.9227 33.2573 93.6936 37.9549 97.5932C42.5016 93.8548 69.7096 70.6943 71.7986 50.3694C72.0494 47.8701 71.7664 45.3459 70.9682 42.9642C70.17 40.5824 68.875 38.3974 67.1687 36.5539C65.3749 34.5609 63.1889 32.9597 60.7477 31.8506C58.3064 30.7415 55.6625 30.1483 52.9814 30.1083C50.2299 30.1368 47.5205 30.7881 45.0567 32.0133C42.5928 33.2385 40.4384 35.0057 38.755 37.1824C38.6552 37.2973 38.5319 37.3895 38.3935 37.4526C38.255 37.5158 38.1046 37.5485 37.9524 37.5485C37.8002 37.5485 37.6498 37.5158 37.5113 37.4526C37.3728 37.3895 37.2495 37.2973 37.1498 37.1824C35.4664 35.0057 33.312 33.2385 30.8481 32.0133C28.3842 30.7881 25.6749 30.1368 22.9234 30.1083Z" fill="#C57B48" fill-opacity="0.5"/>
<path d="M43.8675 73.243H32.1307C31.9719 73.243 31.8152 73.2062 31.673 73.1354C31.5309 73.0647 31.4071 72.9619 31.3113 72.8352C31.2156 72.7085 31.1505 72.5613 31.1212 72.4052C31.092 72.2492 31.0993 72.0884 31.1427 71.9356L33.0016 65.3873C31.703 64.5718 30.6324 63.4403 29.8899 62.0986C29.1474 60.7569 28.7572 59.2489 28.7559 57.7154C28.7559 55.264 29.7297 52.9129 31.4631 51.1795C33.1966 49.446 35.5476 48.4722 37.9991 48.4722C40.4506 48.4722 42.8016 49.446 44.5351 51.1795C46.2685 52.9129 47.2424 55.264 47.2424 57.7154C47.2411 59.2488 46.8511 60.7568 46.1088 62.0984C45.3665 63.4401 44.2961 64.5717 42.9976 65.3873L44.8566 71.9356C44.8999 72.0885 44.9073 72.2493 44.8779 72.4055C44.8486 72.5617 44.7835 72.7089 44.6876 72.8356C44.5918 72.9623 44.4678 73.0651 44.3255 73.1358C44.1832 73.2065 44.0264 73.2432 43.8675 73.243ZM33.4894 71.189H42.5088L40.8019 65.1768C40.7368 64.9491 40.7524 64.706 40.8459 64.4886C40.9395 64.2711 41.1053 64.0926 41.3154 63.9834C42.4767 63.398 43.4532 62.5025 44.1368 61.3962C44.8204 60.2899 45.1843 59.0159 45.1883 57.7154C45.1883 55.8087 44.4309 53.9801 43.0826 52.6319C41.7344 51.2837 39.9058 50.5262 37.9991 50.5262C36.0924 50.5262 34.2638 51.2837 32.9156 52.6319C31.5673 53.9801 30.8099 55.8087 30.8099 57.7154C30.814 59.0148 31.1774 60.2878 31.86 61.3935C32.5427 62.4991 33.5178 63.3944 34.6777 63.9803C34.8877 64.0895 35.0536 64.268 35.1471 64.4855C35.2407 64.7029 35.2563 64.9461 35.1912 65.1737L33.4894 71.189Z" fill="#C57B48" fill-opacity="0.5"/>
<g clip-path="url(#clip0)">
<path d="M108.228 123.915C107.255 125.896 107.415 128.245 108.647 130.075C109.878 131.905 111.993 132.939 114.193 132.785C116.394 132.632 118.345 131.314 119.31 129.331L121.012 125.848C121.989 123.867 121.833 121.514 120.602 119.68C119.37 117.846 117.251 116.811 115.047 116.966C112.844 117.122 110.891 118.444 109.929 120.433L108.228 123.915ZM117.479 119.032C119.745 120.143 120.685 122.879 119.58 125.149L117.878 128.631C116.769 130.9 114.031 131.84 111.761 130.732C109.492 129.623 108.551 126.884 109.66 124.615L111.361 121.133C112.472 118.866 115.209 117.926 117.479 119.032Z" fill="#C57B48" fill-opacity="0.5"/>
<path d="M78.0023 104.329L72.9872 114.593C72.7939 114.989 72.9578 115.466 73.3533 115.659L76.3369 117.118C76.7325 117.311 77.2095 117.147 77.4028 116.751L80.0855 111.261L80.4435 111.436L78.5777 115.255C78.3842 115.651 78.5482 116.128 78.9438 116.321L81.9272 117.779C82.3228 117.972 82.7998 117.809 82.9931 117.413L84.8594 113.594L85.2176 113.769L82.593 119.139C82.3997 119.535 82.5637 120.012 82.9593 120.206L85.9427 121.664C86.3383 121.857 86.8158 121.693 87.0091 121.297L89.633 115.927L103.758 122.829C101.734 128.177 104.271 134.173 109.519 136.443C114.768 138.714 120.874 136.458 123.386 131.321L125.088 127.839C127.572 122.746 125.657 116.6 120.719 113.819C115.782 111.038 109.533 112.587 106.466 117.351L79.0682 103.963C78.6728 103.77 78.1957 103.934 78.0023 104.329ZM119.47 114.953C123.986 117.166 125.859 122.618 123.656 127.139L121.954 130.621C120.543 133.575 117.654 135.545 114.388 135.78C111.123 136.016 107.982 134.481 106.161 131.76C104.34 129.039 104.119 125.55 105.582 122.621L107.284 119.138C109.498 114.622 114.949 112.749 119.471 114.952L119.47 114.953ZM105.699 118.75L104.416 121.376L89.6172 114.145C89.2216 113.951 88.7441 114.115 88.5508 114.511L85.9269 119.881L84.3756 119.123L86.9995 113.753C87.1928 113.357 87.0288 112.88 86.6332 112.686L84.8431 111.812C84.4476 111.618 83.9701 111.782 83.7773 112.178L81.9109 115.997L80.3594 115.239L82.2259 111.42C82.4187 111.024 82.2547 110.547 81.8598 110.354L80.0691 109.479C79.6737 109.286 79.1967 109.45 79.0032 109.845L76.3205 115.335L74.7691 114.577L79.0846 105.746L105.699 118.75Z" fill="#C57B48" fill-opacity="0.5"/>
<path d="M72.6717 106.161L66.585 103.186C66.1894 102.993 65.7119 103.157 65.5191 103.552C65.3258 103.948 65.4898 104.426 65.8854 104.619L71.972 107.593C72.3667 107.782 72.8401 107.617 73.0321 107.224C73.2239 106.831 73.0632 106.356 72.6717 106.161Z" fill="#C57B48" fill-opacity="0.5"/>
<path d="M91.233 95.7176C91.4263 95.322 91.2623 94.8445 90.8667 94.6512C90.4712 94.4579 89.9942 94.6217 89.8009 95.0173L86.8266 101.104C86.638 101.499 86.8027 101.972 87.1958 102.165C87.5887 102.357 88.0635 102.196 88.2588 101.804L91.233 95.7176Z" fill="#C57B48" fill-opacity="0.5"/>
<path d="M77.1011 122.814C76.7055 122.621 76.228 122.785 76.0352 123.18L73.0606 129.268C72.8678 129.663 73.0316 130.14 73.4272 130.334C73.8223 130.527 74.2998 130.363 74.4931 129.967L77.4672 123.88C77.6606 123.485 77.4967 123.008 77.1011 122.814Z" fill="#C57B48" fill-opacity="0.5"/>
<path d="M75.2033 92.7736C74.7871 92.9165 74.5655 93.3701 74.7084 93.7863L76.9093 100.193C77.0524 100.61 77.5058 100.831 77.922 100.688C78.3386 100.545 78.5599 100.092 78.4168 99.6755L76.216 93.2684C76.073 92.8523 75.6199 92.6305 75.2033 92.7736Z" fill="#C57B48" fill-opacity="0.5"/>
<path d="M88.5391 131.591C88.9558 131.448 89.1771 130.995 89.034 130.578L86.8331 124.171C86.6902 123.755 86.2371 123.533 85.8204 123.676C85.4043 123.819 85.1827 124.273 85.3256 124.689L87.5265 131.096C87.6696 131.513 88.123 131.734 88.5391 131.591Z" fill="#C57B48" fill-opacity="0.5"/>
<path d="M94.3374 108.814L100.745 106.613C101.161 106.47 101.383 106.017 101.239 105.6C101.096 105.184 100.643 104.962 100.227 105.106L93.8196 107.306C93.4034 107.449 93.1818 107.903 93.3247 108.319C93.4678 108.736 93.9213 108.957 94.3374 108.814Z" fill="#C57B48" fill-opacity="0.5"/>
<path d="M69.3224 115.721L62.9153 117.922C62.4992 118.065 62.2775 118.519 62.4204 118.935C62.5636 119.352 63.017 119.573 63.4331 119.43L69.8402 117.229C70.2569 117.086 70.4782 116.633 70.3351 116.216C70.1921 115.8 69.739 115.578 69.3224 115.721Z" fill="#C57B48" fill-opacity="0.5"/>
</g>
<path d="M110 152.256C124.019 171.639 162.12 205.914 202.373 187.954C252.691 165.505 214.171 119.052 212.512 116.19C193.737 83.8045 230.912 43.69 223.777 26.7611C219.434 16.4565 210.259 10.6415 199.745 12.4083C186.602 14.6168 182.902 21.6175 180.594 27.4971C176.839 37.0656 178.842 49.333 180.594 52.8905C185.333 72.3956 207.255 84.5403 223.777 88.9565C240.299 93.3727 257.197 89.3245 274.094 81.9641C290.992 74.6037 295.873 42.586 294.371 33.7535C292.869 24.921 292.494 22.3452 292.494 17.5609C292.494 12.7767 290.992 6.15228 297 1" stroke="#C57B48" stroke-opacity="0.5"/>
<defs>
<clipPath id="clip0">
<rect width="59.5051" height="59.5051" fill="white" transform="translate(111.277 78) rotate(71.0424)"/>
</clipPath>
</defs>
</svg>
