<svg width="344" height="262" viewBox="0 0 344 262" fill="none" xmlns="http://www.w3.org/2000/svg">
<path d="M51.4354 149.216C51.1192 149.216 50.8124 149.109 50.5655 148.911C48.628 147.359 3.11866 110.591 2.78461 82.1854C2.72463 78.1064 3.46906 74.0556 4.97535 70.2644C6.48164 66.4733 8.72026 63.0161 11.5633 60.0905C14.0966 57.4761 17.1269 55.3945 20.4762 53.968C23.8255 52.5415 27.4261 51.7988 31.0665 51.7837C34.9294 51.8124 38.7423 52.6602 42.2535 54.2711C45.7646 55.882 48.8941 58.2194 51.4354 61.1289C53.9765 58.2195 57.1058 55.8823 60.6167 54.2714C64.1276 52.6605 67.9402 51.8126 71.803 51.7837C75.83 51.8162 79.8056 52.6921 83.4736 54.3549C87.1415 56.0177 90.4204 58.4305 93.0989 61.4379C95.6756 64.2245 97.6304 67.527 98.8339 71.1265C100.037 74.726 100.462 78.5402 100.079 82.3162C96.8779 113.403 54.119 147.486 52.3012 148.922C52.0539 149.115 51.7488 149.219 51.4354 149.216ZM31.0665 54.5675C27.7946 54.5839 24.559 55.2542 21.5498 56.539C18.5407 57.8238 15.8187 59.6971 13.5439 62.0489C10.9589 64.7114 8.92405 67.8573 7.55555 71.3067C6.18706 74.7562 5.51181 78.4415 5.56839 82.152C5.8593 107.171 45.0717 140.742 51.4382 146.027C57.6001 140.961 94.4741 109.572 97.3052 82.0267C97.6451 78.6394 97.2616 75.2185 96.1798 71.9906C95.0981 68.7627 93.3429 65.8015 91.0305 63.303C88.5994 60.602 85.6368 58.432 82.3283 56.9288C79.0198 55.4257 75.4365 54.6218 71.803 54.5675C68.0739 54.6062 64.4021 55.4889 61.0629 57.1493C57.7237 58.8098 54.8039 61.2048 52.5225 64.1548C52.3872 64.3106 52.2201 64.4355 52.0325 64.521C51.8448 64.6066 51.641 64.6509 51.4347 64.6509C51.2284 64.6509 51.0246 64.6066 50.8369 64.521C50.6493 64.4355 50.4822 64.3106 50.3469 64.1548C48.0655 61.2048 45.1457 58.8098 41.8065 57.1493C38.4673 55.4889 34.7955 54.6062 31.0665 54.5675Z" fill="white"/>
<path d="M59.453 113.027H43.5464C43.3312 113.027 43.1189 112.977 42.9262 112.881C42.7335 112.785 42.5657 112.646 42.436 112.474C42.3062 112.303 42.218 112.103 42.1784 111.892C42.1387 111.68 42.1487 111.462 42.2074 111.255L44.7267 102.381C42.9668 101.275 41.5158 99.7418 40.5095 97.9235C39.5033 96.1051 38.9745 94.0613 38.9727 91.9831C38.9727 88.6607 40.2925 85.4744 42.6417 83.1251C44.991 80.7759 48.1773 79.4561 51.4997 79.4561C54.8221 79.4561 58.0084 80.7759 60.3576 83.1251C62.7069 85.4744 64.0267 88.6607 64.0267 91.9831C64.025 94.0612 63.4965 96.1049 62.4904 97.9232C61.4844 99.7416 60.0337 101.275 58.274 102.381L60.7934 111.255C60.8521 111.462 60.8621 111.68 60.8223 111.892C60.7826 112.104 60.6943 112.303 60.5644 112.475C60.4345 112.647 60.2665 112.786 60.0736 112.882C59.8808 112.978 59.6683 113.027 59.453 113.027ZM45.3879 110.243H57.6115L55.2982 102.095C55.21 101.787 55.2311 101.457 55.3579 101.162C55.4847 100.868 55.7095 100.626 55.9941 100.478C57.568 99.6845 58.8914 98.4709 59.8179 96.9715C60.7443 95.4722 61.2375 93.7456 61.2429 91.9831C61.2429 89.399 60.2164 86.9208 58.3892 85.0936C56.562 83.2664 54.0838 82.2398 51.4997 82.2398C48.9156 82.2398 46.4374 83.2664 44.6102 85.0936C42.783 86.9208 41.7564 89.399 41.7564 91.9831C41.7619 93.7441 42.2545 95.4693 43.1796 96.9678C44.1048 98.4663 45.4264 99.6797 46.9983 100.474C47.283 100.622 47.5077 100.864 47.6345 101.158C47.7613 101.453 47.7824 101.783 47.6943 102.091L45.3879 110.243Z" fill="white"/>
<g clip-path="url(#clip0)">
<path d="M164.553 191.921C162.582 194.217 161.988 197.391 162.994 200.244C164.001 203.097 166.455 205.195 169.429 205.747C172.404 206.298 175.447 205.218 177.409 202.916L180.864 198.876C182.842 196.581 183.442 193.403 182.437 190.545C181.431 187.687 178.973 185.585 175.993 185.035C173.014 184.484 169.967 185.57 168.008 187.881L164.553 191.921ZM178.513 188.612C181.14 190.865 181.449 194.821 179.203 197.455L175.748 201.494C173.496 204.127 169.537 204.436 166.905 202.185C164.272 199.934 163.963 195.974 166.215 193.342L169.669 189.302C171.922 186.673 175.879 186.364 178.513 188.612Z" fill="white"/>
<path d="M131.141 155.539L120.959 167.447C120.566 167.906 120.62 168.595 121.079 168.988L124.54 171.948C124.999 172.341 125.689 172.287 126.081 171.828L131.528 165.459L131.943 165.814L128.155 170.245C127.762 170.703 127.816 171.393 128.275 171.786L131.736 174.746C132.195 175.138 132.884 175.084 133.277 174.625L137.066 170.194L137.482 170.55L132.153 176.78C131.761 177.239 131.815 177.93 132.273 178.322L135.734 181.282C136.193 181.674 136.884 181.62 137.276 181.162L142.604 174.931L158.99 188.945C154.467 195.351 155.777 204.183 161.967 209C168.156 213.817 177.039 212.917 182.138 206.958L185.593 202.919C190.639 197.009 190.206 188.19 184.605 182.803C179.004 177.416 170.175 177.327 164.466 182.6L132.682 155.419C132.223 155.027 131.534 155.081 131.141 155.539ZM182.557 183.879C187.794 188.369 188.409 196.25 183.932 201.497L180.477 205.537C177.589 208.976 173.077 210.6 168.66 209.791C164.243 208.983 160.599 205.867 159.115 201.629C157.632 197.39 158.535 192.682 161.484 189.295L164.939 185.255C169.429 180.017 177.31 179.402 182.558 183.879L182.557 183.879ZM162.967 184.195L160.362 187.241L143.195 172.559C142.736 172.167 142.045 172.221 141.653 172.68L136.325 178.91L134.526 177.371L139.853 171.14C140.246 170.682 140.192 169.991 139.733 169.599L137.656 167.823C137.197 167.43 136.507 167.484 136.115 167.943L132.326 172.374L130.526 170.834L134.315 166.404C134.707 165.945 134.653 165.255 134.195 164.863L132.118 163.086C131.659 162.695 130.969 162.749 130.577 163.207L125.13 169.576L123.33 168.037L132.092 157.791L162.967 184.195Z" fill="white"/>
<path d="M123.436 156.141L116.375 150.102C115.916 149.71 115.226 149.763 114.834 150.222C114.442 150.681 114.496 151.372 114.955 151.764L122.016 157.802C122.475 158.189 123.16 158.132 123.55 157.677C123.94 157.22 123.889 156.535 123.436 156.141Z" fill="white"/>
<path d="M151.666 148.646C152.058 148.187 152.004 147.496 151.545 147.104C151.087 146.711 150.397 146.765 150.004 147.224L143.966 154.286C143.58 154.745 143.636 155.43 144.092 155.82C144.548 156.21 145.233 156.16 145.627 155.707L151.666 148.646Z" fill="white"/>
<path d="M123.6 179.775C123.141 179.382 122.451 179.436 122.059 179.895L116.02 186.957C115.628 187.416 115.682 188.106 116.141 188.498C116.599 188.891 117.289 188.837 117.682 188.378L123.72 181.316C124.113 180.857 124.059 180.167 123.6 179.775Z" fill="white"/>
<path d="M131.393 139.234C130.791 139.281 130.341 139.807 130.388 140.409L131.111 149.672C131.158 150.274 131.684 150.724 132.286 150.677C132.888 150.63 133.338 150.104 133.291 149.502L132.567 140.239C132.521 139.637 131.995 139.187 131.393 139.234Z" fill="white"/>
<path d="M135.774 195.355C136.376 195.308 136.826 194.782 136.779 194.18L136.056 184.917C136.009 184.315 135.483 183.865 134.881 183.912C134.279 183.959 133.829 184.485 133.876 185.087L134.599 194.35C134.646 194.953 135.172 195.402 135.774 195.355Z" fill="white"/>
<path d="M151.294 167.101L160.557 166.378C161.159 166.331 161.609 165.806 161.562 165.204C161.515 164.602 160.989 164.152 160.387 164.199L151.124 164.922C150.522 164.969 150.072 165.495 150.119 166.097C150.166 166.699 150.692 167.148 151.294 167.101Z" fill="white"/>
<path d="M115.705 167.687L106.442 168.41C105.84 168.457 105.39 168.983 105.437 169.584C105.484 170.187 106.011 170.636 106.612 170.589L115.875 169.866C116.478 169.819 116.927 169.294 116.88 168.691C116.833 168.09 116.308 167.64 115.705 167.687Z" fill="white"/>
</g>
<path d="M94.5 206C113.167 232.334 163.9 278.901 217.5 254.501C284.5 224.001 233.209 160.889 231 157C206 113 255.5 58.5 246 35.5C240.217 21.5 228 13.5996 214 16C196.5 19.0005 191.572 28.5118 188.5 36.5C183.5 49.5 186.167 66.1667 188.5 71.0001C194.81 97.5001 224 114 246 120C268 126 290.5 120.5 313 110.5C335.5 100.5 342 57.0001 340 45.0001C338 33.0001 337.5 29.5005 337.5 23.0005C337.5 16.5005 335.5 7.50049 343.5 0.500488" stroke="white"/>
<defs>
<clipPath id="clip0">
<rect width="81.6106" height="81.6106" fill="white" transform="translate(184.363 132) rotate(85.5367)"/>
</clipPath>
</defs>
</svg>
