<svg width="85" height="26" viewBox="0 0 85 26" fill="none" xmlns="http://www.w3.org/2000/svg">
<path d="M15.2811 0.169568C14.7333 0.508703 14.7333 0.461601 14.7333 6.13269V11.3233L14.4594 11.5965L14.1856 11.8697H11.3333C9.66167 11.8697 8.415 11.832 8.31111 11.7755C7.96167 11.5871 7.89556 11.1538 7.83889 8.73272L7.79167 6.40588L7.50833 6.17037L7.225 5.94428L4.04222 5.93486C1.19 5.93486 0.831111 5.9537 0.576111 6.09501C0.406111 6.18921 0.255 6.35878 0.226667 6.47182C0.188889 6.59429 0.132222 6.68849 0.085 6.68849C0.0377778 6.68849 0 8.2146 0 10.2211C0 13.4241 0.0188889 13.7821 0.160556 14.0176C0.255 14.1589 0.396667 14.319 0.472222 14.385C0.585556 14.4792 3.05056 14.498 11.3333 14.498C22.0528 14.498 22.0528 14.498 22.2889 14.3096L22.525 14.1118V0.395657L22.2889 0.197829C22.0622 0.00942099 21.9583 0.00942099 18.7944 0.00942099C15.9706 0.0188414 15.4983 0.0376819 15.2811 0.169568ZM25.5 0.273191L25.1694 0.546384V13.9328L25.4433 14.2154L25.7267 14.5074H47.3544L47.6661 14.1683L47.9778 13.8197V0.631167L47.7322 0.310874L47.4961 0H40.7433L40.46 0.292033L40.1861 0.574646L40.1389 5.94428L40.0917 11.3233L39.78 11.5965L39.4778 11.8697H36.6067C33.8489 11.8697 33.7356 11.8603 33.49 11.6719C33.3578 11.5683 33.1972 11.3893 33.1311 11.2762C33.0461 11.1255 33.0083 9.6465 32.9894 5.80297L32.9611 0.527544L32.7061 0.263772L32.4511 0H25.8211L25.5 0.273191ZM50.9433 0.292033L50.6694 0.574646V13.9328L50.9433 14.2154L51.2267 14.5074H57.8567L58.1778 14.2342L58.5083 13.9611L58.5367 11.9545C58.565 10.0704 58.5839 9.92911 58.7633 9.73129C58.9239 9.56172 58.99 9.54288 59.2072 9.63708C59.415 9.72186 60.2083 10.2965 60.35 10.4567C60.3783 10.4849 60.7561 10.7864 61.2 11.1161C61.6439 11.4458 62.3428 11.9922 62.7583 12.3125C63.1739 12.6422 63.5611 12.9436 63.6083 12.9813C63.665 13.019 64.0617 13.3299 64.5056 13.669C64.9494 14.0082 65.4028 14.3379 65.5161 14.3944C65.6578 14.4792 67.0083 14.5074 70.2572 14.5074C74.6961 14.5074 74.8 14.5074 74.8944 14.319C75.0739 13.9799 74.8 13.6784 72.8167 12.1052C72.165 11.5965 71.6172 11.1443 71.5889 11.1161C71.5606 11.0878 71.0978 10.7016 70.55 10.2682C70.0022 9.82549 69.4733 9.40157 69.3694 9.30737C69.2656 9.22258 69.0294 9.02475 68.8406 8.88345C68.2172 8.40301 67.1122 7.49865 66.9422 7.32908C66.7061 7.09357 66.7344 6.81096 67.0178 6.54719C67.1594 6.4153 67.3011 6.31168 67.3294 6.31168C67.3578 6.31168 67.49 6.21747 67.6222 6.09501C67.7544 5.97254 68.1511 5.65225 68.5194 5.36963C69.3222 4.74789 70.6161 3.71164 70.89 3.48555C71.0033 3.39135 71.3811 3.08989 71.74 2.8167C72.0989 2.53409 72.4106 2.28916 72.4389 2.2609C72.4672 2.23264 72.7411 2.00655 73.0528 1.77104C74.1483 0.932621 74.4883 0.536963 74.375 0.188408C74.3183 0 74.2617 0 70.1533 0H65.9883L65.4122 0.320293C65.0911 0.499281 64.7133 0.753632 64.5622 0.885518C64.4111 1.02682 64.26 1.13045 64.2317 1.13045C64.2033 1.13045 64.0239 1.26234 63.8444 1.41306C63.3628 1.82756 63.41 1.78046 62.0878 2.78844C61.4172 3.29714 60.8128 3.76816 60.7372 3.84353C60.6711 3.90947 60.2744 4.22034 59.8589 4.54064C59.1883 5.04934 59.0656 5.10586 58.8483 5.0305L58.6028 4.94572L58.5556 2.69424L58.5083 0.45218L58.225 0.226089L57.9417 0H51.2267L50.9433 0.292033ZM77.3311 0.21667C76.7833 0.659429 76.7833 0.668849 76.7833 7.41386C76.7833 12.8871 76.8022 13.6125 76.9344 13.8763C77.265 14.5263 77.1328 14.5074 80.7972 14.5074C84.3956 14.5074 84.3389 14.5074 84.6128 13.9611C84.6789 13.848 84.7828 13.7538 84.8583 13.7538C84.9811 13.7538 85 12.906 85 7.30082C85 1.58263 84.9811 0.847837 84.8583 0.847837C84.7733 0.847837 84.66 0.734792 84.5939 0.584065C84.3294 -0.00942072 84.4239 0.00942099 80.8444 0.00942099C77.6239 0.00942099 77.5861 0.00942069 77.3311 0.21667ZM31.9411 18.4452C31.875 18.464 31.7806 18.5865 31.7333 18.7089C31.6483 18.935 31.6294 18.935 30.3733 18.935C28.7017 18.935 28.8056 18.7937 28.8056 21.1394C28.8056 22.7409 28.7489 23.4662 28.5317 24.3518C28.4372 24.7757 28.5033 24.9829 28.73 24.9452C28.8811 24.9264 28.9756 24.7757 29.1078 24.3989C29.2494 23.9844 29.2967 23.4662 29.3439 21.7612C29.3911 19.9807 29.4289 19.6227 29.5517 19.5285C29.665 19.4437 30.4111 19.4155 32.3283 19.406H34.9539L34.9256 19.1894C34.8972 18.9916 34.8594 18.9821 33.6883 18.9539C32.5267 18.9256 32.4794 18.9256 32.3944 18.7089C32.3094 18.4734 32.1394 18.3698 31.9411 18.4452ZM24.395 18.5771C24.3572 18.643 24.2722 18.7843 24.225 18.8879C24.14 19.0575 23.9983 19.0858 22.8556 19.1329C22.1567 19.1611 21.5711 19.1988 21.5617 19.2082C21.5428 19.2082 21.5333 19.4908 21.5333 19.8205C21.5333 20.2727 21.5711 20.4329 21.675 20.48C21.8733 20.5553 22.1944 20.2162 22.1944 19.9336C22.1944 19.8111 22.2606 19.6792 22.3456 19.651C22.5628 19.5662 26.945 19.585 27.0772 19.6698C27.1339 19.7075 27.2 19.8865 27.2189 20.0655C27.2472 20.3575 27.2756 20.3952 27.5306 20.3952C27.8044 20.3952 27.8139 20.3763 27.8422 19.9053C27.88 19.1894 27.7478 19.1234 26.2744 19.1234H25.1128L24.9239 18.7937C24.7161 18.4546 24.5272 18.3792 24.395 18.5771ZM36.1439 18.822C36.0022 18.9727 35.9833 19.2742 35.9833 21.1111C35.9833 22.3264 35.9456 23.3626 35.8794 23.551C35.6244 24.3989 35.5111 24.8887 35.5678 24.9735C35.5961 25.0206 35.7094 25.0583 35.8228 25.0583C36.0872 25.0583 36.3233 24.6155 36.4083 23.9749C36.4461 23.7112 36.5406 23.3532 36.6256 23.1742L36.7861 22.8445L37.5322 22.8162C37.995 22.7974 38.3161 22.8257 38.4011 22.901C38.4956 22.9764 38.5333 23.2496 38.5333 23.8713C38.5333 24.7945 38.5994 24.9641 38.9772 24.9641C39.185 24.9641 39.1944 24.9452 39.1944 24.0315C39.1944 22.8539 39.2322 22.7974 40.1672 22.7974C41.0928 22.7974 41.2722 22.9293 41.2722 23.5887C41.2722 23.9938 41.225 24.1257 41.0456 24.2952C40.8567 24.4742 40.7811 24.4931 40.63 24.4083C40.3467 24.2576 40.1956 24.2764 40.0633 24.5025C39.8461 24.851 40.1106 25.0018 40.9322 25.0112C41.3194 25.0112 41.6689 24.9735 41.7161 24.9358C41.7539 24.8887 41.8011 23.5416 41.82 21.9307C41.8483 19.293 41.8294 18.9915 41.6878 18.8314C41.5367 18.6618 41.3478 18.6524 38.9111 18.6524C36.4933 18.6524 36.2856 18.6618 36.1439 18.822ZM38.42 19.3307C38.5428 19.4531 38.5711 20.1314 38.4767 20.3858C38.4294 20.5082 38.2594 20.5365 37.6267 20.5365C36.7294 20.5365 36.6444 20.4706 36.6444 19.7829C36.6444 19.472 36.6822 19.3872 36.8617 19.3118C37.1733 19.1894 38.2878 19.1988 38.42 19.3307ZM41.0644 19.3684C41.3194 19.5474 41.3478 20.1032 41.1117 20.3669C40.9889 20.5082 40.8189 20.5365 40.1767 20.5365C39.4967 20.5365 39.3739 20.5082 39.2889 20.3575C39.1283 20.0561 39.1756 19.4249 39.3644 19.3213C39.6289 19.1611 40.8189 19.1988 41.0644 19.3684ZM38.42 21.1206C38.4861 21.1865 38.5333 21.4314 38.5333 21.6669C38.5333 21.9025 38.4861 22.1474 38.42 22.2133C38.3539 22.2793 38.0139 22.3264 37.57 22.3264C36.9467 22.3264 36.8239 22.2981 36.7389 22.1474C36.5972 21.8742 36.6256 21.3278 36.7956 21.1582C36.975 20.9698 38.2406 20.9416 38.42 21.1206ZM41.0644 21.1582C41.31 21.3278 41.3478 21.8083 41.1211 22.1191C40.9983 22.3075 40.8944 22.3264 40.2333 22.3264C39.3644 22.3264 39.1944 22.2227 39.1944 21.6669C39.1944 21.1206 39.3644 21.0075 40.1672 21.0075C40.6394 21.0075 40.9228 21.0546 41.0644 21.1582ZM44.37 18.756C44.2756 18.8031 44.2 18.9444 44.2 19.0669C44.2 19.2836 44.455 19.3872 45.7583 19.6792C46.6272 19.8771 46.9767 19.9807 47.0806 20.0561C47.2317 20.1785 47.8739 20.2727 48.0722 20.2068C48.4594 20.0843 48.1478 19.5756 47.6094 19.4531C47.4489 19.4249 47.2978 19.3495 47.2694 19.3024C47.2317 19.2553 47.09 19.2176 46.9389 19.2176C46.7878 19.2176 46.495 19.1611 46.3061 19.0858C46.1078 19.0198 45.7111 18.9162 45.4278 18.8597C45.1444 18.8031 44.8233 18.7278 44.7194 18.6995C44.6156 18.6713 44.455 18.6995 44.37 18.756ZM51.1983 18.9727C51.0472 19.1517 51.1983 19.4437 51.51 19.6133C51.6328 19.6792 51.935 19.8582 52.1806 20.009C52.5489 20.235 52.6528 20.2633 52.8511 20.1785C52.9739 20.1126 53.0778 20.009 53.0778 19.943C53.0778 19.8111 52.5772 19.3118 52.3222 19.1894C52.2467 19.1517 52.0767 19.0575 51.9444 18.9821C51.6422 18.8031 51.34 18.8031 51.1983 18.9727ZM57.5733 19.18C57.2806 19.472 57.3844 19.6416 58.225 20.2727C59.0183 20.8662 59.1789 20.9416 59.4056 20.8191C59.7078 20.659 59.6322 20.414 59.1506 19.9524C58.7539 19.585 57.9322 19.0292 57.7717 19.0292C57.7433 19.0292 57.6489 19.0952 57.5733 19.18Z" fill="#2A70AA"/>
<path d="M33.8589 20.1689C33.6511 20.216 33.1506 20.2726 32.7539 20.3102C32.1211 20.3573 32.0172 20.3856 32.0172 20.5363C32.0172 20.6871 32.1022 20.7153 32.4989 20.7436C33.075 20.7813 33.245 20.9414 33.0939 21.3559C33.0183 21.5914 32.9522 21.6291 32.4895 21.6668C32.0456 21.7045 31.97 21.7421 31.97 21.9023C31.97 22.0624 32.0456 22.1001 32.5367 22.1378C33.0467 22.1755 33.1033 22.2037 33.1317 22.411C33.2072 22.9103 33.0939 23.0516 32.5839 23.0987C32.0267 23.1552 31.9417 23.2117 32.1117 23.4096C32.2817 23.6074 34.6806 23.6168 34.8411 23.419C34.9922 23.24 34.8317 23.1458 34.2839 23.0798L33.8589 23.0327V22.1849L34.3784 22.1378C34.8317 22.1001 34.8978 22.0624 34.9261 21.874C34.9545 21.6856 34.9261 21.6668 34.4917 21.6668C33.9439 21.6668 33.7834 21.5255 33.8306 21.0827C33.8589 20.8095 33.8967 20.7718 34.2178 20.7153C34.69 20.64 34.9261 20.4139 34.7561 20.216C34.6239 20.0559 34.4445 20.0465 33.8589 20.1689ZM22.6767 20.3385C22.6011 20.3856 22.5728 20.4892 22.6011 20.574C22.6483 20.6871 22.79 20.7247 23.1206 20.7247C23.6306 20.7247 23.8856 20.8849 23.6872 21.0827C23.6211 21.1487 23.5267 21.1958 23.4606 21.1958C23.4039 21.1958 23.2245 21.2617 23.0828 21.3371C22.9317 21.4124 22.7239 21.4784 22.6295 21.4784C22.2989 21.4784 21.7228 21.7893 21.7228 21.9682C21.7228 22.1001 21.7983 22.1378 22.0533 22.1378C22.3556 22.1378 22.5917 22.0624 23.3756 21.7045C24.1689 21.3465 24.5656 21.6291 23.8856 22.0719C23.6778 22.2132 23.4606 22.3262 23.4228 22.3262C23.3756 22.3262 23.2056 22.4016 23.0261 22.4864C22.8561 22.5711 22.6011 22.6936 22.4595 22.769C22.3272 22.8349 22.1289 22.8914 22.0345 22.8914C21.8456 22.8914 21.4395 23.1364 21.4395 23.2494C21.4395 23.2871 21.4772 23.3719 21.5245 23.4472C21.5906 23.5509 21.685 23.5509 22.0628 23.4096C22.705 23.1835 23.6967 22.6936 24.0461 22.4487C24.4522 22.1472 24.6506 22.1661 24.6506 22.5052C24.6506 22.7313 24.5656 22.8349 24.1595 23.0893C23.4795 23.5132 23.2622 23.6262 22.7145 23.8523C21.6283 24.2951 21.4206 24.4741 21.7983 24.6625C22.0061 24.7755 22.195 24.7096 23.2811 24.1915C23.7817 23.9465 23.98 23.8335 24.3483 23.5697C24.7639 23.2683 24.9717 23.3248 25.0095 23.7487C25.0283 23.9277 24.9906 24.1915 24.9433 24.3328C24.8489 24.5683 24.8017 24.5871 24.32 24.5871C23.8761 24.5871 23.8006 24.6154 23.8006 24.7661C23.8006 25.1052 24.9433 25.1712 25.3495 24.8603C25.5761 24.6813 25.595 24.6154 25.595 23.8806C25.595 23.061 25.5667 22.948 25 21.7892C24.7545 21.29 24.7356 21.1863 24.8395 21.0545C25.0378 20.8189 25.34 20.9132 25.4439 21.2429C25.5289 21.5349 25.7556 22.0719 25.8878 22.3262C26.275 23.0422 26.4072 23.2494 26.7567 23.6168C26.9739 23.8523 27.2761 24.1067 27.4272 24.182C27.6822 24.3139 27.72 24.3139 27.8333 24.1538C27.8995 24.0596 27.9561 23.9654 27.9561 23.9277C27.9561 23.8994 27.6822 23.6074 27.3422 23.2871C27.0022 22.9574 26.7283 22.6182 26.7283 22.524C26.7283 22.3262 26.9078 22.1378 27.1061 22.1378C27.2761 22.1378 27.6728 21.761 27.6728 21.6103C27.6728 21.5537 27.6256 21.469 27.5689 21.4124C27.4556 21.2994 27.0967 21.403 26.8133 21.6385C26.53 21.874 26.2089 21.7892 26.0106 21.4313C25.7839 21.0074 25.9067 20.7813 26.3883 20.7436C26.6906 20.7153 26.7378 20.6871 26.7095 20.5081C26.6811 20.3008 26.6528 20.3008 24.745 20.282C23.6778 20.2631 22.7522 20.2914 22.6767 20.3385ZM62.485 20.4892C62.4 20.6117 62.3339 20.7624 62.3339 20.8095C62.3339 21.045 61.8711 21.7421 61.3706 22.2791C60.5867 23.1175 59.2267 23.7393 58.1784 23.7393C57.8761 23.7393 57.6684 23.7958 57.5645 23.89C57.3473 24.1067 57.4228 24.427 57.7061 24.4929C58.0367 24.5683 59.3023 24.4175 59.6611 24.248C59.8217 24.182 60.0011 24.1161 60.0484 24.1161C60.2467 24.1161 61.3328 23.4096 61.8334 22.9574C62.6645 22.1943 63.3823 20.7436 63.0895 20.395C62.9195 20.1878 62.655 20.2255 62.485 20.4892Z" fill="#2A70AA"/>
<path d="M29.6553 20.5083C29.6553 20.6308 29.7592 20.7156 29.9669 20.7721C30.3069 20.8757 30.4203 21.1866 30.1747 21.3844C30.0992 21.4503 30.0331 21.6388 30.0331 21.8177C30.0331 22.1192 30.0519 22.1286 30.4392 22.1569L30.8358 22.1851L30.8642 22.6091C30.9019 23.325 30.5714 23.504 30.3069 22.9011C30.1653 22.5902 29.9669 22.5149 29.8819 22.7504C29.8536 22.8257 29.9103 23.1554 30.0142 23.4757L30.2125 24.0692L29.9292 24.333C29.5703 24.6533 29.5797 25.0301 29.9386 24.983C30.0614 24.9736 30.2786 24.8605 30.4108 24.7286C30.6469 24.512 30.6564 24.512 31.1664 24.6533C31.5064 24.7475 32.2619 24.8134 33.3197 24.8417L34.9631 24.8888L34.9253 24.625L34.8969 24.3518L33.1781 24.3047C30.9964 24.2482 31.0531 24.2859 31.3458 23.0895C31.6103 21.9967 31.5914 21.8366 31.1664 21.7047C30.8075 21.5822 30.7131 21.375 30.8736 21.0641C30.9303 20.9605 30.9869 20.7627 30.9964 20.6308C31.0247 20.4047 31.0058 20.3953 30.3447 20.367C29.7308 20.3387 29.6553 20.3576 29.6553 20.5083ZM50.2725 20.6967C50.0836 20.7627 50.1214 21.2619 50.3197 21.3279C50.4047 21.3561 50.6125 21.4692 50.7636 21.5634C51.4814 22.025 51.7742 22.1475 51.9064 22.0344C52.1614 21.8272 52.0575 21.5163 51.6419 21.2337C50.8392 20.7061 50.5369 20.5837 50.2725 20.6967ZM55.4481 20.9699C55.3347 21.1489 55.2497 21.3185 55.2497 21.3467C55.2497 21.5822 53.7953 23.1743 53.5781 23.1743C53.5119 23.1743 53.4553 23.212 53.4553 23.2685C53.4553 23.3156 53.3419 23.3909 53.2003 23.4192C53.0492 23.4569 52.8792 23.5228 52.8131 23.5794C52.6525 23.7018 52.0386 23.8337 51.2642 23.9091C50.5653 23.9844 50.4047 24.0786 50.452 24.4084C50.4803 24.625 50.5181 24.6344 51.2547 24.6627C51.8308 24.6815 52.1614 24.6439 52.5864 24.5026C53.2003 24.2953 53.6631 24.0975 53.7386 24.0221C53.767 23.9939 53.9558 23.862 54.1636 23.7207C54.6925 23.3627 55.552 22.4583 55.8825 21.9025C56.3736 21.0735 56.3831 20.6308 55.9108 20.6308C55.7031 20.6308 55.5992 20.7061 55.4481 20.9699ZM44.1431 21.0453C43.9825 21.4598 44.1525 21.5445 45.6636 21.846C46.1453 21.9402 46.7214 22.1192 47.0614 22.2888C47.4108 22.4583 47.7319 22.4583 47.8831 22.2793C48.2042 21.8931 47.6375 21.6105 45.4558 21.0641C44.7097 20.8757 44.2092 20.8663 44.1431 21.0453ZM43.6708 23.212C43.6425 23.2873 43.6331 23.4475 43.6519 23.5699C43.6803 23.7583 43.7464 23.796 44.2658 23.8431C44.5775 23.8714 44.9647 23.9468 45.1158 24.0033C45.2575 24.0598 45.5786 24.1257 45.8242 24.1634C46.0697 24.1917 46.2964 24.2576 46.3247 24.3141C46.3625 24.3612 46.4664 24.3989 46.5797 24.3989C46.6836 24.3989 46.9197 24.4649 47.1086 24.5497C48.1192 24.983 48.0531 24.9642 48.2136 24.8134C48.2892 24.7286 48.3553 24.5968 48.3553 24.5026C48.3553 24.333 48.0814 24.0221 47.9397 24.0221C47.8925 24.0221 47.7319 23.9656 47.5714 23.8997C47.0519 23.683 46.3058 23.4569 46.1075 23.4569C45.9942 23.4569 45.7203 23.4004 45.5031 23.325C45.2764 23.2496 44.7853 23.1649 44.4075 23.1272C43.8503 23.0801 43.7181 23.0895 43.6708 23.212Z" fill="#2A70AA"/>
</svg>
