<svg width="23" height="23" viewBox="0 0 23 23" fill="none" xmlns="http://www.w3.org/2000/svg">
<path d="M12.3687 4.95802C12.3393 4.40935 11.7786 4.50269 11.2314 4.50269C11.6356 4.61033 12.0179 4.76009 12.3687 4.95802Z" fill="#006843"/>
<path d="M6.51986 3.58295C4.39586 3.58295 3.41822 6.27137 5.11615 7.62351C5.69498 6.07795 6.84724 4.96818 8.35782 4.53015C7.9446 3.95889 7.27699 3.58295 6.51986 3.58295Z" fill="#006843"/>
<path d="M2.13191 7.20279C2.21847 7.48054 2.33062 7.74701 2.46385 7.99946L1.76614 8.69756C1.57877 8.88493 1.57877 9.18905 1.76614 9.3768L2.99595 10.607C3.08552 10.6966 3.20823 10.747 3.33613 10.747C3.46263 10.747 3.58452 10.6966 3.67563 10.607L4.37256 9.9089C4.47715 9.96425 4.59308 9.99818 4.7014 10.0459C4.7014 10.038 4.70063 10.0297 4.70063 10.0218C4.70063 9.45129 4.76615 8.91313 4.88281 8.40778C4.04135 7.86623 3.47988 6.9262 3.47988 5.85293C3.47988 4.17641 4.84365 2.81226 6.51978 2.81226C7.65474 2.81226 8.63466 3.4441 9.15775 4.36722C9.71622 4.29796 10.2408 4.29796 10.8723 4.41728C10.791 4.17157 10.6955 3.93108 10.5758 3.70567L11.2735 3.00723C11.3645 2.91728 11.4149 2.79495 11.4149 2.66778C11.4149 2.54056 11.3645 2.41828 11.2735 2.32833L10.0443 1.09891C9.95031 1.00483 9.82759 0.958162 9.70493 0.958162C9.58221 0.958162 9.45955 1.00483 9.3662 1.09891L8.66626 1.79734C8.41342 1.66338 8.14773 1.55123 7.8693 1.46656V0.479808C7.8693 0.214896 7.65552 0 7.38983 0H5.6505C5.38632 0 5.17026 0.214896 5.17026 0.479808V1.46652C4.89255 1.55118 4.62681 1.66333 4.37319 1.79729L3.67563 1.09963C3.58151 1.00556 3.45885 0.958889 3.33613 0.958889C3.21347 0.958889 3.09007 1.00556 2.99673 1.09924L1.76614 2.32867C1.67658 2.41901 1.62617 2.5409 1.62617 2.66851C1.62617 2.79607 1.67658 2.91801 1.76614 3.00796L2.46385 3.70601C2.33057 3.9589 2.21847 4.22497 2.13346 4.50268H1.14748C0.881793 4.50268 0.667236 4.71792 0.667236 4.98322V6.72259C0.667236 6.98712 0.881793 7.20279 1.14748 7.20279H2.13191Z" fill="#006843"/>
<path d="M17.199 16.51C17.9682 16.0881 18.4966 15.2805 18.4966 14.3434C18.4966 12.9759 17.3835 11.8635 16.0159 11.8635C15.535 11.8635 15.0893 12.0073 14.7085 12.2451C14.4805 13.1528 14.1215 14.021 13.6519 14.7751C14.9832 15.0254 16.2048 15.6316 17.199 16.51Z" fill="#006843"/>
<path d="M22.332 13.4049C22.332 13.1186 22.0994 12.8867 21.8141 12.8867H20.75C20.6581 12.5868 20.5362 12.2993 20.3917 12.0264L21.145 11.2731C21.2429 11.176 21.2971 11.0443 21.2971 10.9069C21.2971 10.7695 21.2429 10.6378 21.145 10.5404L19.8189 9.21385C19.7181 9.11255 19.5848 9.06176 19.4524 9.06176C19.3199 9.06176 19.1875 9.11255 19.0866 9.21385L18.3318 9.96758C18.0592 9.82306 17.7725 9.70194 17.4714 9.61044V8.54624C17.4714 8.26024 17.2404 8.02838 16.9544 8.02838H15.0781C14.9524 8.02838 14.8417 8.07879 14.7515 8.15333C14.9095 8.72982 14.996 9.35493 14.996 10.0218C14.996 10.4451 14.963 10.875 14.9012 11.3024C15.2504 11.1736 15.6222 11.0928 16.0159 11.0928C17.8086 11.0928 19.2672 12.5511 19.2672 14.3434C19.2672 15.489 18.6689 16.493 17.771 17.0721C18.4243 17.7886 18.9436 18.6387 19.2816 19.5912C19.3372 19.6104 19.3952 19.6243 19.4531 19.6243C19.5856 19.6243 19.7181 19.5739 19.8197 19.4726L21.1466 18.1461C21.2437 18.049 21.2972 17.9173 21.2972 17.7799C21.2972 17.6426 21.2437 17.5109 21.1466 17.4134L20.3917 16.6596C20.5362 16.3872 20.6581 16.0996 20.75 15.7994H21.8142C21.9511 15.7994 22.0844 15.7452 22.1807 15.6473C22.2779 15.5506 22.3328 15.4185 22.3328 15.2811L22.332 13.4049Z" fill="#006843"/>
<path d="M18.225 20.0601C17.4204 17.6927 15.2943 16.0644 12.8399 15.8428C12.018 16.7131 11.0004 17.2653 9.84805 17.2653C8.69656 17.2653 7.67821 16.7132 6.85711 15.8428C4.40127 16.0644 2.27504 17.6927 1.47042 20.0605L1.02565 21.3697C0.898429 21.7464 0.95935 22.1616 1.19121 22.4848C1.42302 22.8081 1.79635 23 2.19372 23H17.5017C17.8998 23 18.2731 22.8081 18.505 22.4848C18.736 22.1616 18.7978 21.7464 18.6698 21.3697L18.225 20.0601Z" fill="#006843"/>
<path d="M5.85669 10.0218C5.85669 12.9583 7.64424 16.1092 9.84791 16.1092C12.0525 16.1092 13.8399 12.9583 13.8399 10.0218C13.84 3.93481 5.85669 3.92274 5.85669 10.0218Z" fill="#006843"/>
</svg>
