<svg width="18" height="22" viewBox="0 0 18 22" fill="none" xmlns="http://www.w3.org/2000/svg">
<path d="M15.0548 0H2.94528C1.77829 0 0.828857 0.949437 0.828857 2.11643V19.8836C0.828857 21.0506 1.77829 22 2.94528 22H15.0548C16.2218 22 17.1712 21.0506 17.1712 19.8836V2.11643C17.1712 0.949437 16.2218 0 15.0548 0ZM3.72964 3.65647C3.72964 3.30052 4.01821 3.01194 4.37417 3.01194H13.6259C13.9819 3.01194 14.2704 3.30052 14.2704 3.65647V4.92912C14.2704 5.28507 13.9819 5.57365 13.6259 5.57365H4.37417C4.01821 5.57365 3.72964 5.28507 3.72964 4.92912V3.65647ZM5.8996 18.1292C5.8996 18.4852 5.61102 18.7737 5.25507 18.7737H4.37421C4.01826 18.7737 3.72968 18.4852 3.72968 18.1292V17.5185C3.72968 17.1626 4.01826 16.874 4.37421 16.874H5.25507C5.61102 16.874 5.8996 17.1626 5.8996 17.5185V18.1292ZM5.8996 14.3149C5.8996 14.6708 5.61102 14.9594 5.25507 14.9594H4.37421C4.01826 14.9594 3.72968 14.6708 3.72968 14.3149V13.7042C3.72968 13.3482 4.01826 13.0597 4.37421 13.0597H5.25507C5.61102 13.0597 5.8996 13.3482 5.8996 13.7042V14.3149ZM10.1378 18.1292C10.1378 18.4852 9.84925 18.7737 9.49329 18.7737H8.61243C8.25644 18.7737 7.9679 18.4852 7.9679 18.1292V17.5185C7.9679 17.1626 8.25644 16.874 8.61243 16.874H9.49329C9.84925 16.874 10.1378 17.1626 10.1378 17.5185V18.1292ZM10.1378 14.3149C10.1378 14.6708 9.84925 14.9594 9.49329 14.9594H8.61243C8.25644 14.9594 7.9679 14.6708 7.9679 14.3149V13.7042C7.9679 13.3482 8.25644 13.0597 8.61243 13.0597H9.49329C9.84925 13.0597 10.1378 13.3482 10.1378 13.7042V14.3149ZM10.1378 10.5005C10.1378 10.8565 9.84925 11.145 9.49329 11.145H4.37417C4.01821 11.145 3.72964 10.8564 3.72964 10.5005V9.88982C3.72964 9.53386 4.01821 9.24529 4.37417 9.24529H9.49329C9.84925 9.24529 10.1378 9.53386 10.1378 9.88982V10.5005ZM14.376 18.1292C14.376 18.4852 14.0875 18.7737 13.7315 18.7737H12.8507C12.4947 18.7737 12.2061 18.4852 12.2061 18.1292V17.5185C12.2061 17.1626 12.4947 16.874 12.8507 16.874H13.7315C14.0875 16.874 14.376 17.1626 14.376 17.5185V18.1292ZM14.376 14.3149C14.376 14.6708 14.0875 14.9594 13.7315 14.9594H12.8507C12.4947 14.9594 12.2061 14.6708 12.2061 14.3149V13.7042C12.2061 13.3482 12.4947 13.0597 12.8507 13.0597H13.7315C14.0875 13.0597 14.376 13.3482 14.376 13.7042V14.3149ZM14.376 10.5005C14.376 10.8565 14.0875 11.145 13.7315 11.145H12.8507C12.4947 11.145 12.2061 10.8564 12.2061 10.5005V9.88982C12.2061 9.53386 12.4947 9.24529 12.8507 9.24529H13.7315C14.0875 9.24529 14.376 9.53386 14.376 9.88982V10.5005Z" fill="#006843"/>
</svg>
