<svg width="22" height="20" viewBox="0 0 22 20" fill="none" xmlns="http://www.w3.org/2000/svg">
<path d="M22 6.26172C22 4.82613 22 3.82182 22 3.72656C22 2.66038 21.1326 1.79297 20.0664 1.79297H19.8086V4.15625C19.8086 4.5122 19.52 4.80078 19.1641 4.80078C18.8081 4.80078 18.5195 4.5122 18.5195 4.15625C18.5195 3.4327 18.5195 1.43925 18.5195 0.71875C18.5195 0.362797 18.231 0.0742188 17.875 0.0742188C17.519 0.0742188 17.2305 0.362797 17.2305 0.71875V1.79297H12.9336V4.15625C12.9336 4.5122 12.645 4.80078 12.2891 4.80078C11.9331 4.80078 11.6445 4.5122 11.6445 4.15625C11.6445 3.4327 11.6445 1.43925 11.6445 0.71875C11.6445 0.362797 11.356 0.0742188 11 0.0742188C10.644 0.0742188 10.3555 0.362797 10.3555 0.71875V1.79297H6.05859V4.15625C6.05859 4.5122 5.77002 4.80078 5.41406 4.80078C5.05811 4.80078 4.76953 4.5122 4.76953 4.15625C4.76953 3.4327 4.76953 1.43925 4.76953 0.71875C4.76953 0.362797 4.48095 0.0742188 4.125 0.0742188C3.76905 0.0742188 3.48047 0.362797 3.48047 0.71875V1.79297H1.93359C0.86741 1.79297 0 2.66038 0 3.72656V6.26172H22Z" fill="#006843"/>
<path d="M0 7.55078V17.9922C0 19.0584 0.86741 19.9258 1.93359 19.9258H20.0664C21.1326 19.9258 22 19.0584 22 17.9922C22 17.7161 22 11.6839 22 7.55078C21.5989 7.55078 0.221891 7.55078 0 7.55078ZM6.1875 16.4883H4.8125C4.45655 16.4883 4.16797 16.1997 4.16797 15.8438C4.16797 15.4878 4.45655 15.1992 4.8125 15.1992H6.1875C6.54345 15.1992 6.83203 15.4878 6.83203 15.8438C6.83203 16.1997 6.54345 16.4883 6.1875 16.4883ZM6.1875 13.7383H4.8125C4.45655 13.7383 4.16797 13.4497 4.16797 13.0938C4.16797 12.7378 4.45655 12.4492 4.8125 12.4492H6.1875C6.54345 12.4492 6.83203 12.7378 6.83203 13.0938C6.83203 13.4497 6.54345 13.7383 6.1875 13.7383ZM6.1875 10.9883H4.8125C4.45655 10.9883 4.16797 10.6997 4.16797 10.3438C4.16797 9.9878 4.45655 9.69922 4.8125 9.69922H6.1875C6.54345 9.69922 6.83203 9.9878 6.83203 10.3438C6.83203 10.6997 6.54345 10.9883 6.1875 10.9883ZM11.6875 16.4883H10.3125C9.95655 16.4883 9.66797 16.1997 9.66797 15.8438C9.66797 15.4878 9.95655 15.1992 10.3125 15.1992H11.6875C12.0435 15.1992 12.332 15.4878 12.332 15.8438C12.332 16.1997 12.0435 16.4883 11.6875 16.4883ZM11.6875 13.7383H10.3125C9.95655 13.7383 9.66797 13.4497 9.66797 13.0938C9.66797 12.7378 9.95655 12.4492 10.3125 12.4492H11.6875C12.0435 12.4492 12.332 12.7378 12.332 13.0938C12.332 13.4497 12.0435 13.7383 11.6875 13.7383ZM11.6875 10.9883H10.3125C9.95655 10.9883 9.66797 10.6997 9.66797 10.3438C9.66797 9.9878 9.95655 9.69922 10.3125 9.69922H11.6875C12.0435 9.69922 12.332 9.9878 12.332 10.3438C12.332 10.6997 12.0435 10.9883 11.6875 10.9883ZM17.1875 16.4883H15.8125C15.4565 16.4883 15.168 16.1997 15.168 15.8438C15.168 15.4878 15.4565 15.1992 15.8125 15.1992H17.1875C17.5435 15.1992 17.832 15.4878 17.832 15.8438C17.832 16.1997 17.5435 16.4883 17.1875 16.4883ZM17.1875 13.7383H15.8125C15.4565 13.7383 15.168 13.4497 15.168 13.0938C15.168 12.7378 15.4565 12.4492 15.8125 12.4492H17.1875C17.5435 12.4492 17.832 12.7378 17.832 13.0938C17.832 13.4497 17.5435 13.7383 17.1875 13.7383ZM17.1875 10.9883H15.8125C15.4565 10.9883 15.168 10.6997 15.168 10.3438C15.168 9.9878 15.4565 9.69922 15.8125 9.69922H17.1875C17.5435 9.69922 17.832 9.9878 17.832 10.3438C17.832 10.6997 17.5435 10.9883 17.1875 10.9883Z" fill="#006843"/>
</svg>
