<svg width="18" height="24" viewBox="0 0 18 24" fill="none" xmlns="http://www.w3.org/2000/svg">
<path d="M13.0048 1.81877H11.2487C11.0296 1.81199 10.8413 1.66133 10.7866 1.44911C10.6202 0.584593 9.84886 -0.0299024 8.96901 0.00117326C8.08386 -0.0143351 7.31629 0.610126 7.15141 1.47995C7.09445 1.68633 6.90322 1.82656 6.68929 1.81883H4.99487V4.89957H13.0048V1.81877Z" fill="#006843"/>
<path d="M17.934 22.5828V4.93029C17.9359 4.23271 17.3718 3.66568 16.6743 3.6638C16.6423 3.66374 16.6103 3.66486 16.5784 3.66716H13.929V5.23834C13.929 5.48482 13.775 5.8237 13.5285 5.8237H4.44038C4.19389 5.8237 4.07071 5.48482 4.07071 5.23834V3.66722H1.42126C0.72557 3.61615 0.120155 4.13878 0.0691484 4.83453C0.0667898 4.86643 0.0656694 4.89839 0.0657874 4.93035V22.5829C0.048569 23.3484 0.655163 23.9828 1.42061 24C1.42085 24 1.42109 24 1.42132 24H16.5785C17.344 23.9832 17.9508 23.349 17.934 22.5836C17.934 22.5833 17.934 22.5831 17.934 22.5828ZM6.50446 18.5163L4.10149 20.7652C4.02466 20.8572 3.91303 20.913 3.79345 20.9193C3.66472 20.9142 3.54307 20.8589 3.45456 20.7652L2.19149 19.4713C2.02361 19.2833 2.03735 18.9955 2.22227 18.8244C2.40194 18.6483 2.68953 18.6483 2.8692 18.8244L3.79339 19.8102L5.88831 17.8385C6.09835 17.6936 6.38617 17.7463 6.53111 17.9563C6.6494 18.1277 6.63843 18.357 6.50446 18.5163ZM6.50446 13.5871L4.10149 15.8361C4.02466 15.928 3.91303 15.9838 3.79345 15.9901C3.66472 15.985 3.54307 15.9297 3.45456 15.8361L2.19149 14.5422C2.02361 14.3542 2.03735 14.0664 2.22227 13.8952C2.40194 13.7191 2.68953 13.7191 2.8692 13.8952L3.79339 14.881L5.88831 12.9094C6.09835 12.7644 6.38617 12.8171 6.53111 13.0272C6.6494 13.1985 6.63843 13.4278 6.50446 13.5871ZM6.50446 8.65795L4.10149 10.9069C4.02466 10.9988 3.91303 11.0546 3.79345 11.0609C3.66472 11.0558 3.54307 11.0005 3.45456 10.9069L2.19149 9.61298C2.02361 9.425 2.03735 9.13718 2.22227 8.96606C2.40194 8.78992 2.68953 8.78992 2.8692 8.96606L3.79339 9.95187L5.88831 7.98019C6.09835 7.83524 6.38617 7.88796 6.53111 8.098C6.6494 8.26936 6.63843 8.49862 6.50446 8.65795ZM15.4694 20.3031H8.38368C8.12847 20.3031 7.92155 20.0962 7.92155 19.841C7.92155 19.5858 8.12847 19.3789 8.38368 19.3789H15.4693C15.7245 19.3789 15.9315 19.5858 15.9315 19.841C15.9315 20.0962 15.7246 20.3031 15.4694 20.3031ZM15.4694 15.3739H8.38368C8.12847 15.3739 7.92155 15.167 7.92155 14.9118C7.92155 14.6566 8.12847 14.4497 8.38368 14.4497H15.4693C15.7245 14.4497 15.9315 14.6566 15.9315 14.9118C15.9315 15.167 15.7246 15.3739 15.4694 15.3739ZM15.4694 10.4448H8.38368C8.12847 10.4448 7.92155 10.2379 7.92155 9.98265C7.92155 9.72744 8.12847 9.52052 8.38368 9.52052H15.4693C15.7245 9.52052 15.9315 9.72744 15.9315 9.98265C15.9315 10.2379 15.7246 10.4448 15.4694 10.4448Z" fill="#006843"/>
</svg>
