<svg width="22" height="22" viewBox="0 0 22 22" fill="none" xmlns="http://www.w3.org/2000/svg">
<path fill-rule="evenodd" clip-rule="evenodd" d="M21.6638 7.4623C21.2999 5.30798 20.1856 3.4427 18.6162 2.11638C17.0457 0.788712 15.0209 0 12.8383 0V0.0025177C12.4836 0.0025177 12.1961 0.290039 12.1961 0.644699V8.91031C12.1931 8.95848 12.1954 9.00783 12.2036 9.05751C12.2621 9.40797 12.5935 9.64481 12.944 9.5864L21.1351 8.20267C21.4856 8.14409 21.7222 7.81259 21.6638 7.4623Z" fill="#006843"/>
<path d="M3.99219 18.3419C3.57844 18.7557 3.61185 19.4392 4.06839 19.8051C5.77589 21.1735 7.94883 22 10.3029 22V21.9971H10.3098C12.578 21.9971 14.8462 21.2272 16.6886 19.6871C17.0599 19.3766 17.0871 18.8153 16.7448 18.473L10.8841 12.6123C10.563 12.2914 10.0427 12.2914 9.7218 12.6123L3.99219 18.3419Z" fill="#006843"/>
<path d="M20.2185 10.9996C20.1788 10.6203 19.8597 10.3419 19.4928 10.3419C19.4486 10.3419 19.404 10.3459 19.3588 10.3543L13.3776 11.4619C12.7269 11.5824 12.4781 12.3832 12.9461 12.8512L17.5073 17.4124C17.884 17.789 18.511 17.7115 18.7908 17.2581C19.3246 16.3942 19.7298 15.4424 19.9802 14.4298C19.9842 14.4133 19.9881 14.397 19.9921 14.3806C20.0401 14.1825 20.0824 13.983 20.118 13.7822C20.2791 12.8817 20.3179 11.947 20.2185 10.9996Z" fill="#006843"/>
<path d="M9.39136 11.1195L10.0622 10.4486C10.2163 10.2945 10.3029 10.0856 10.3029 9.86754V2.84047C10.3029 2.43478 9.97328 2.10983 9.57481 2.10983C9.55585 2.10983 9.53671 2.11067 9.51741 2.11201C4.38432 2.51266 0.34375 6.80484 0.34375 12.0408C0.34375 13.9565 0.88472 15.7459 1.82214 17.2645C2.09976 17.7144 2.72684 17.784 3.10063 17.4102L9.39136 11.1195Z" fill="#006843"/>
</svg>
