<svg width="20" height="20" viewBox="0 0 20 20" fill="none" xmlns="http://www.w3.org/2000/svg">
<path d="M16.443 7.02652C16.4431 7.04125 16.4453 7.05554 16.4453 7.07031C16.4453 11.5936 12.5028 15.2734 7.65628 15.2734H5.16284C6.2062 18.035 9.02429 20 12.3438 20H19.4141C19.655 20 19.8713 19.8524 19.9594 19.6281C20.0475 19.4038 19.9892 19.1486 19.8123 18.9844L18.2096 17.4978C19.3689 16.2314 20 14.6057 20 12.9297C20 10.5017 18.5907 8.29984 16.443 7.02652Z" fill="#006843"/>
<path d="M0.187695 13.0859C0.0108984 13.2501 -0.0475 13.5053 0.040625 13.7296C0.12875 13.9539 0.345039 14.1016 0.585938 14.1016H7.65625C11.8562 14.1016 15.2734 10.9476 15.2734 7.07031C15.2734 3.19305 11.8562 0 7.65625 0C3.45625 0 0 3.19305 0 7.07031C0 8.74629 0.631133 10.333 1.79043 11.5993L0.187695 13.0859ZM4.14062 3.55469H11.1719C11.4957 3.55469 11.7578 3.81676 11.7578 4.14062C11.7578 4.46449 11.4957 4.72656 11.1719 4.72656H4.14062C3.81676 4.72656 3.55469 4.46449 3.55469 4.14062C3.55469 3.81676 3.81676 3.55469 4.14062 3.55469ZM4.14062 5.89844H11.1719C11.4957 5.89844 11.7578 6.16051 11.7578 6.48438C11.7578 6.80824 11.4957 7.07031 11.1719 7.07031H4.14062C3.81676 7.07031 3.55469 6.80824 3.55469 6.48438C3.55469 6.16051 3.81676 5.89844 4.14062 5.89844ZM4.14062 8.24219H11.1719C11.4957 8.24219 11.7578 8.50426 11.7578 8.82812C11.7578 9.15199 11.4957 9.41406 11.1719 9.41406H4.14062C3.81676 9.41406 3.55469 9.15199 3.55469 8.82812C3.55469 8.50426 3.81676 8.24219 4.14062 8.24219Z" fill="#006843"/>
</svg>
