<svg width="19" height="19" viewBox="0 0 19 19" fill="none" xmlns="http://www.w3.org/2000/svg">
<g clip-path="url(#clip0)" filter="url(#filter0_d)">
<path d="M5.8335 3.09375C5.8335 1.89338 6.8102 0.916667 8.01058 0.916667H12.1965C12.0457 0.389125 11.565 0 10.9897 0H5.71891C5.02362 0 4.4585 0.565125 4.4585 1.26042V8.36458C4.4585 9.05988 5.02362 9.625 5.71891 9.625H5.8335V3.09375Z" fill="white"/>
<path d="M13.2812 1.83337H8.01042C7.31513 1.83337 6.75 2.3985 6.75 3.09379V9.73962C6.75 10.4349 7.31513 11 8.01042 11H13.2812C13.9765 11 14.5417 10.4349 14.5417 9.73962V3.09379C14.5417 2.3985 13.9765 1.83337 13.2812 1.83337ZM12.3646 9.62504H8.92708C8.73733 9.62504 8.58333 9.47104 8.58333 9.28129C8.58333 9.09154 8.73733 8.93754 8.92708 8.93754H12.3646C12.5543 8.93754 12.7083 9.09154 12.7083 9.28129C12.7083 9.47104 12.5543 9.62504 12.3646 9.62504ZM12.3646 7.79171H8.92708C8.73733 7.79171 8.58333 7.63771 8.58333 7.44796C8.58333 7.25821 8.73733 7.10421 8.92708 7.10421H12.3646C12.5543 7.10421 12.7083 7.25821 12.7083 7.44796C12.7083 7.63771 12.5543 7.79171 12.3646 7.79171ZM12.3646 6.18754H8.92708C8.73733 6.18754 8.58333 6.03354 8.58333 5.84379C8.58333 5.65404 8.73733 5.50004 8.92708 5.50004H12.3646C12.5543 5.50004 12.7083 5.65404 12.7083 5.84379C12.7083 6.03354 12.5543 6.18754 12.3646 6.18754ZM12.3646 4.35421H8.92708C8.73733 4.35421 8.58333 4.20021 8.58333 4.01046C8.58333 3.82071 8.73733 3.66671 8.92708 3.66671H12.3646C12.5543 3.66671 12.7083 3.82071 12.7083 4.01046C12.7083 4.20021 12.5543 4.35421 12.3646 4.35421Z" fill="white"/>
</g>
<defs>
<filter id="filter0_d" x="0" y="0" width="19" height="19" filterUnits="userSpaceOnUse" color-interpolation-filters="sRGB">
<feFlood flood-opacity="0" result="BackgroundImageFix"/>
<feColorMatrix in="SourceAlpha" type="matrix" values="0 0 0 0 0 0 0 0 0 0 0 0 0 0 0 0 0 0 127 0"/>
<feOffset dy="4"/>
<feGaussianBlur stdDeviation="2"/>
<feColorMatrix type="matrix" values="0 0 0 0 0 0 0 0 0 0 0 0 0 0 0 0 0 0 0.25 0"/>
<feBlend mode="normal" in2="BackgroundImageFix" result="effect1_dropShadow"/>
<feBlend mode="normal" in="SourceGraphic" in2="effect1_dropShadow" result="shape"/>
</filter>
<clipPath id="clip0">
<rect width="11" height="11" fill="white" transform="translate(4)"/>
</clipPath>
</defs>
</svg>
