<svg width="18" height="18" viewBox="0 0 18 18" fill="none" xmlns="http://www.w3.org/2000/svg">
<path d="M14.6471 5.37885H8.15294L6.86118 3.84356C6.81772 3.79132 6.7526 3.76203 6.68471 3.76415H1.44529C0.645353 3.76997 0 4.42009 0 5.22003V14.663C0.000970588 15.4656 0.651441 16.1161 1.45412 16.1171H14.6471C15.4497 16.1161 16.1002 15.4656 16.1012 14.663V6.83297C16.1002 6.03029 15.4497 5.37982 14.6471 5.37885Z" fill="#3C3C3B"/>
<path d="M16.5545 3.49763H10.0587L8.7669 1.96233C8.72345 1.9101 8.65833 1.8808 8.59043 1.88292H3.35279C2.62696 1.88411 2.0132 2.42032 1.91455 3.13939H6.69161C6.94211 3.13877 7.17995 3.24933 7.34102 3.44116L8.44396 4.75233H14.6469C15.7942 4.75427 16.7238 5.68388 16.7257 6.83116V14.2217C17.4531 14.131 17.9993 13.513 17.9998 12.78V4.94998C17.9979 4.15141 17.3531 3.50345 16.5545 3.49763Z" fill="#3C3C3B"/>
</svg>
