<svg width="20" height="20" viewBox="0 0 20 20" fill="none" xmlns="http://www.w3.org/2000/svg">
<path d="M16.2745 5.97653H9.05882L7.62353 4.27065C7.57525 4.21261 7.50289 4.18006 7.42745 4.18242H1.60588C0.717059 4.18889 0 4.91124 0 5.80006V16.2922C0.00107843 17.1841 0.723824 17.9068 1.61569 17.9079H16.2745C17.1664 17.9068 17.8891 17.1841 17.8902 16.2922V7.59222C17.8891 6.70036 17.1664 5.97761 16.2745 5.97653Z" fill="#006843"/>
<path d="M18.3941 3.88629H11.1765L9.74117 2.18041C9.69288 2.12237 9.62053 2.08982 9.54509 2.09218H3.72548C2.91901 2.0935 2.23705 2.68928 2.12744 3.48825H7.43528C7.71362 3.48757 7.97788 3.61041 8.15685 3.82355L9.38234 5.28041H16.2745C17.5493 5.28257 18.5821 6.31546 18.5843 7.59022V15.802C19.3925 15.7011 19.9994 15.0145 20 14.2V5.50002C19.9979 4.61271 19.2814 3.89276 18.3941 3.88629Z" fill="#006843"/>
</svg>
