<svg width="36" height="36" viewBox="0 0 36 36" fill="none" xmlns="http://www.w3.org/2000/svg">
<g clip-path="url(#clip0)">
<path d="M32.8935 30.3645L30.3165 26.0715C29.1285 24.0901 28.5 21.8221 28.5 19.5105V15.75C28.5 9.96153 23.7885 5.25003 18 5.25003C12.2115 5.25003 7.50001 9.96153 7.50001 15.75V19.5105C7.50001 21.8221 6.87148 24.0901 5.68348 26.0715L3.10646 30.3645C2.96696 30.5955 2.96394 30.8851 3.09598 31.1191C3.22951 31.3545 3.47996 31.5001 3.74996 31.5001H32.2499C32.5199 31.5001 32.7705 31.3546 32.9039 31.1191C33.036 30.885 33.033 30.5955 32.8935 30.3645ZM5.07451 30L6.96901 26.8425C8.29798 24.6285 8.99998 22.0935 8.99998 19.5105V15.75C8.99998 10.7865 13.0365 6.75001 18 6.75001C22.9635 6.75001 27 10.7865 27 15.75V19.5105C27 22.0935 27.702 24.6285 29.0295 26.8425L30.9255 30H5.07451Z" fill="#3C3C3B"/>
<path d="M18 0C16.3454 0 14.9999 1.3455 14.9999 3.00002V6.00005C14.9999 6.41398 15.336 6.75 15.75 6.75C16.164 6.75 16.5 6.41398 16.5 5.99998V3.00002C16.5 2.17202 17.172 1.50005 18 1.50005C18.828 1.50005 19.5 2.17202 19.5 3.00002V6.00005C19.5 6.41398 19.836 6.75 20.25 6.75C20.664 6.75 21 6.41398 21 5.99998V3.00002C21 1.3455 19.6545 0 18 0Z" fill="#3C3C3B"/>
<path d="M21.2459 30.3705C21.0345 30.0135 20.5769 29.8965 20.2185 30.102C19.86 30.312 19.74 30.7725 19.95 31.1295C20.1449 31.461 20.2515 31.8585 20.2515 32.25C20.2515 33.4905 19.242 34.5 18.0015 34.5C16.7609 34.5 15.7515 33.4905 15.7515 32.25C15.7515 31.8585 15.858 31.461 16.053 31.1295C16.2614 30.7709 16.1415 30.3119 15.7844 30.102C15.423 29.8965 14.9669 30.0135 14.757 30.3705C14.4254 30.9375 14.2499 31.587 14.2499 32.25C14.25 34.3185 15.9315 36 18 36C20.0685 36 21.7499 34.3185 21.753 32.25C21.753 31.587 21.5775 30.9375 21.2459 30.3705Z" fill="#3C3C3B"/>
</g>
<defs>
<clipPath id="clip0">
<rect width="36" height="36" fill="white"/>
</clipPath>
</defs>
</svg>
