<svg width="14" height="14" viewBox="0 0 14 14" fill="none" xmlns="http://www.w3.org/2000/svg">
<path d="M4.375 5.6875H3.5V7.4375H4.375C4.85713 7.4375 5.25 7.04462 5.25 6.5625C5.25 6.08037 4.85713 5.6875 4.375 5.6875Z" fill="#FF7000"/>
<path d="M13.5625 2.18809H7.875V0.87559C7.875 0.745215 7.81725 0.62184 7.71663 0.538715C7.61688 0.45559 7.483 0.419715 7.357 0.445965L0.357 1.75846C0.149625 1.79696 0 1.97721 0 2.18809V11.8131C0 12.0231 0.149625 12.2042 0.357 12.2427L7.357 13.5552C7.38325 13.5605 7.41038 13.5631 7.4375 13.5631C7.539 13.5631 7.63788 13.5281 7.71663 13.4625C7.81725 13.3793 7.875 13.2551 7.875 13.1256V11.8131H13.5625C13.804 11.8131 14 11.6171 14 11.3756V2.62559C14 2.38409 13.804 2.18809 13.5625 2.18809ZM4.375 8.31309H3.5V9.62559C3.5 9.86709 3.304 10.0631 3.0625 10.0631C2.821 10.0631 2.625 9.86709 2.625 9.62559V5.25059C2.625 5.00909 2.821 4.81309 3.0625 4.81309H4.375C5.34013 4.81309 6.125 5.59796 6.125 6.56309C6.125 7.52821 5.34013 8.31309 4.375 8.31309ZM13.125 10.9381H7.875V10.0631H11.8125C12.054 10.0631 12.25 9.86709 12.25 9.62559C12.25 9.38409 12.054 9.18809 11.8125 9.18809H7.875V6.12559V3.06309H13.125V10.9381Z" fill="#FF7000"/>
<path d="M9.625 6.56172V3.98047C8.62663 4.18347 7.875 5.06634 7.875 6.12422C7.875 7.33259 8.85413 8.31172 10.0625 8.31172C11.1204 8.31172 12.0033 7.56009 12.2063 6.56172H9.625Z" fill="#FF7000"/>
<path d="M10.5 3.98047V5.68672H12.2063C12.0321 4.83009 11.3566 4.15459 10.5 3.98047Z" fill="#FF7000"/>
</svg>
