<svg width="20" height="20" viewBox="0 0 20 20" xmlns="http://www.w3.org/2000/svg">
<path d="M19.7998 18.7904L12.6841 11.6748C15.1834 8.61812 14.7315 4.11414 11.6749 1.61486C8.61821 -0.884432 4.11419 -0.432537 1.6149 2.62412C-0.884392 5.68078 -0.432496 10.1848 2.62417 12.6841C5.25704 14.8368 9.042 14.8368 11.6749 12.6841L18.7905 19.7997C19.0741 20.0736 19.5259 20.0657 19.7998 19.7822C20.0669 19.5055 20.0669 19.067 19.7998 18.7904ZM7.16094 12.8711C4.00875 12.8675 1.45426 10.3131 1.45074 7.16089C1.45074 4.00724 4.00729 1.4507 7.16094 1.4507C10.3146 1.4507 12.8711 4.00724 12.8711 7.16089C12.8711 10.3145 10.3146 12.8711 7.16094 12.8711Z" fill="#006843"/>
</svg>
