<svg width="10" height="12" viewBox="0 0 10 12" fill="none" xmlns="http://www.w3.org/2000/svg">
<path d="M3.6875 7.5H4.0625V7.875H3.6875V7.5ZM7.8125 2.625H8.85985L7.25 1.01515V2.0625C7.25017 2.21163 7.30948 2.35461 7.41494 2.46006C7.52039 2.56552 7.66337 2.62483 7.8125 2.625ZM3.7358 8.25L3.55909 8.87824C3.55457 8.89431 3.54794 8.9097 3.53935 8.92402C3.51375 8.96568 3.50013 9.0136 3.5 9.06251C3.5 9.23482 3.66823 9.375 3.875 9.375C4.08177 9.375 4.25 9.23482 4.25 9.06251C4.24986 9.0136 4.23625 8.96567 4.21065 8.92399C4.20206 8.90969 4.19543 8.8943 4.19091 8.87824L4.0142 8.25H3.7358ZM6.875 2.0625V0.75H4.0625V1.5H4.4375C4.48723 1.5 4.53492 1.51975 4.57008 1.55492C4.60525 1.59008 4.625 1.63777 4.625 1.6875C4.625 1.73723 4.60525 1.78492 4.57008 1.82008C4.53492 1.85525 4.48723 1.875 4.4375 1.875H4.0625V2.625H4.4375C4.48723 2.625 4.53492 2.64475 4.57008 2.67992C4.60525 2.71508 4.625 2.76277 4.625 2.8125C4.625 2.86223 4.60525 2.90992 4.57008 2.94508C4.53492 2.98025 4.48723 3 4.4375 3H4.0625V3.75H4.4375C4.48723 3.75 4.53492 3.76975 4.57008 3.80492C4.60525 3.84008 4.625 3.88777 4.625 3.9375C4.625 3.98723 4.60525 4.03492 4.57008 4.07008C4.53492 4.10525 4.48723 4.125 4.4375 4.125H4.0625V4.875H4.4375C4.48723 4.875 4.53492 4.89475 4.57008 4.92992C4.60525 4.96508 4.625 5.01277 4.625 5.0625C4.625 5.11223 4.60525 5.15992 4.57008 5.19508C4.53492 5.23025 4.48723 5.25 4.4375 5.25H4.0625V6H4.4375C4.48723 6 4.53492 6.01975 4.57008 6.05492C4.60525 6.09008 4.625 6.13777 4.625 6.1875C4.625 6.23723 4.60525 6.28492 4.57008 6.32008C4.53492 6.35525 4.48723 6.375 4.4375 6.375H4.0625V7.125H4.25C4.29973 7.125 4.34742 7.14475 4.38258 7.17992C4.41775 7.21508 4.4375 7.26277 4.4375 7.3125V8.0625C4.43751 8.10996 4.41944 8.15564 4.38697 8.19026L4.54566 8.75454C4.59747 8.84894 4.62475 8.95483 4.625 9.06251C4.625 9.44159 4.28855 9.75 3.875 9.75C3.46145 9.75 3.125 9.44159 3.125 9.06251C3.12525 8.95482 3.15253 8.84892 3.20434 8.75452L3.36303 8.19026C3.33056 8.15564 3.31249 8.10996 3.3125 8.0625V7.3125C3.3125 7.26277 3.33225 7.21508 3.36742 7.17992C3.40258 7.14475 3.45027 7.125 3.5 7.125H3.6875V6.375H3.3125C3.26277 6.375 3.21508 6.35525 3.17992 6.32008C3.14475 6.28492 3.125 6.23723 3.125 6.1875C3.125 6.13777 3.14475 6.09008 3.17992 6.05492C3.21508 6.01975 3.26277 6 3.3125 6H3.6875V5.25H3.3125C3.26277 5.25 3.21508 5.23025 3.17992 5.19508C3.14475 5.15992 3.125 5.11223 3.125 5.0625C3.125 5.01277 3.14475 4.96508 3.17992 4.92992C3.21508 4.89475 3.26277 4.875 3.3125 4.875H3.6875V4.125H3.3125C3.26277 4.125 3.21508 4.10525 3.17992 4.07008C3.14475 4.03492 3.125 3.98723 3.125 3.9375C3.125 3.88777 3.14475 3.84008 3.17992 3.80492C3.21508 3.76975 3.26277 3.75 3.3125 3.75H3.6875V3H3.3125C3.26277 3 3.21508 2.98025 3.17992 2.94508C3.14475 2.90992 3.125 2.86223 3.125 2.8125C3.125 2.76277 3.14475 2.71508 3.17992 2.67992C3.21508 2.64475 3.26277 2.625 3.3125 2.625H3.6875V1.875H3.3125C3.26277 1.875 3.21508 1.85525 3.17992 1.82008C3.14475 1.78492 3.125 1.73723 3.125 1.6875C3.125 1.63777 3.14475 1.59008 3.17992 1.55492C3.21508 1.51975 3.26277 1.5 3.3125 1.5H3.6875V0.75H1.4375C1.28837 0.750174 1.1454 0.809493 1.03994 0.914944C0.934493 1.0204 0.875174 1.16337 0.875 1.3125V10.6875C0.875174 10.8366 0.934493 10.9796 1.03994 11.0851C1.1454 11.1905 1.28837 11.2498 1.4375 11.25H8.5625C8.71163 11.2498 8.8546 11.1905 8.96006 11.0851C9.06551 10.9796 9.12483 10.8366 9.125 10.6875V3H7.8125C7.56395 2.99972 7.32565 2.90086 7.1499 2.7251C6.97414 2.54935 6.87528 2.31105 6.875 2.0625Z" fill="#F7901E"/>
</svg>
