<svg width="174" height="27" viewBox="0 0 174 27" fill="none" xmlns="http://www.w3.org/2000/svg">
<path d="M8.8641 11.5617C8.49405 11.5621 8.14381 11.6895 7.86115 11.9232C7.8194 11.9578 7.77922 11.9942 7.74053 12.0333C7.4404 12.337 7.27565 12.7407 7.27583 13.1696C7.2764 13.5982 7.44227 14.0018 7.74262 14.3047C8.04328 14.6078 8.44292 14.7743 8.86747 14.7741C9.29202 14.7739 9.69323 14.6076 9.99103 14.3025C10.2912 13.9988 10.4559 13.5951 10.4557 13.1662C10.4555 12.7373 10.2893 12.334 9.98894 12.0312C9.68828 11.728 9.28902 11.5612 8.8641 11.5617Z" fill="#FAF4FF"/>
<path d="M168.5 2.02784L12.3548 2.02784C11.5341 2.02859 10.747 2.31696 10.1223 2.83349C9.97062 2.9589 9.82891 3.09739 9.69825 3.24872L3.21961 10.7591C2.06142 12.0973 2.06329 14.111 3.22329 15.4456L9.71919 22.9428C10.3888 23.7164 11.3583 24.1591 12.3788 24.1579L168.524 24.1579C170.469 24.1558 172.051 22.5575 172.048 20.5945L172.032 5.58323C172.03 3.62136 170.446 2.02611 168.5 2.02784ZM12.3514 13.0936C12.3526 14.1924 11.8527 15.1756 11.0702 15.8226C10.47 16.3188 9.70403 16.6175 8.86971 16.6179C6.94767 16.6203 5.38262 15.0423 5.38031 13.1006C5.37762 11.1593 6.93935 9.57789 8.8617 9.57594C9.79249 9.57458 10.6684 9.94039 11.3273 10.6045C11.9872 11.269 12.3504 12.153 12.3514 13.0936Z" fill="#FF2500"/>
<path d="M168.054 0.0788689L12.3527 0.113208C10.785 0.114662 9.29534 0.799084 8.26872 1.99103L1.7913 9.49973C0.0105806 11.5569 0.0138645 14.6562 1.79799 16.7082L8.29295 24.2043C9.3231 25.3936 10.8132 26.0747 12.381 26.0732L168.082 26.0392C169.381 26.0377 170.574 25.5735 171.508 24.801C172.724 23.7952 173.502 22.2666 173.5 20.5591L173.484 5.54741C173.481 2.52943 171.045 0.0759488 168.054 0.0788689ZM171.589 5.54959L171.604 20.5609C171.606 22.5242 170.025 24.1221 168.08 24.1243L12.3788 24.1586C11.3584 24.1598 10.3892 23.7167 9.71923 22.9435L3.22372 15.446C2.06371 14.1114 2.06153 12.0973 3.22004 10.7595L9.69867 3.24911C9.82934 3.09778 9.97105 2.95928 10.1227 2.83387C10.747 2.31767 11.5342 2.02929 12.3552 2.02822L168.056 1.99419C170.001 1.99206 171.586 3.58732 171.589 5.54959Z" fill="#FF2500"/>
<path d="M8.85969 7.74232C5.89717 7.74531 3.4904 10.1824 3.49455 13.1742C3.4981 16.1664 5.91 18.5983 8.87203 18.5947C10.1573 18.5934 11.3383 18.1337 12.2632 17.3689C13.4691 16.3718 14.2395 14.8567 14.2377 13.1634C14.2362 11.7138 13.6764 10.3515 12.6605 9.32746C11.6445 8.30347 10.2941 7.74021 8.85969 7.74232ZM11.3159 13.1656C11.3162 13.8265 11.0623 14.4487 10.5997 14.9168C10.1408 15.3868 9.52248 15.6432 8.86822 15.6435C8.21395 15.6437 7.59807 15.3873 7.13472 14.92C6.67138 14.4528 6.41623 13.8313 6.41536 13.1708C6.41508 12.5099 6.66898 11.8877 7.13151 11.4196C7.19112 11.3594 7.25304 11.3032 7.31738 11.25C7.75299 10.8898 8.29323 10.6941 8.86302 10.6929C9.51787 10.6922 10.1332 10.9491 10.5965 11.4164C11.0594 11.883 11.3156 12.5046 11.3159 13.1656Z" fill="#FF2500"/>
</svg>
