<svg width="27" height="18" viewBox="0 0 27 18" fill="none" xmlns="http://www.w3.org/2000/svg">
<path d="M22.4527 12.4769C23.2673 12.7796 23.8214 13.5634 23.8214 14.4417C23.8214 15.5945 22.8794 16.5366 21.7266 16.5366C20.5734 16.5366 19.6314 15.5945 19.6314 14.4417C19.6314 13.8261 19.9004 13.2527 20.3633 12.8536H10.2583C10.7212 13.2527 10.9899 13.8261 10.9899 14.4417C10.9899 15.5945 10.0479 16.5366 8.89507 16.5366C7.74194 16.5366 6.80021 15.5945 6.80021 14.4417C6.80021 13.7376 7.1548 13.0887 7.73201 12.7011C7.01899 9.27022 6.35786 5.83068 5.68264 2.39242C5.64708 2.21048 5.64356 2.10446 5.40556 2.10446C3.8703 2.10446 2.33471 2.10446 0.799438 2.10446V0.5C2.33471 0.5 3.8703 0.5 5.40556 0.5C6.22269 0.5 7.05711 1.07304 7.21887 1.89785L7.30727 2.3495H25.2231C26.3384 2.3495 26.7049 3.46451 26.3058 4.34506L23.9406 9.5633C23.6638 10.1748 22.9787 10.6713 22.2964 10.6713H8.94664C8.98572 10.8644 9.02512 11.0566 9.06484 11.2494H20.7973C21.5594 11.2494 22.2314 11.7514 22.4527 12.4769ZM7.69165 3.95363C8.00556 5.66315 8.36944 7.36338 8.71441 9.06714H22.2964C22.4047 9.05945 22.4482 9.00083 22.4806 8.90538L24.7247 3.95363H7.69165Z" fill="#29004C"/>
</svg>
