<svg width="21" height="20" viewBox="0 0 21 20" fill="none" xmlns="http://www.w3.org/2000/svg">
<path d="M3.11571 1.5C1.58076 1.5 0.324097 2.75724 0.324097 4.29219V13.3798C0.324097 14.9148 1.58076 16.1714 3.11571 16.1714H4.07267V19.2789C4.07267 19.2801 4.07267 19.2818 4.07267 19.2836C4.07267 19.6336 4.3608 19.9212 4.71025 19.9212C4.88151 19.9212 5.04525 19.8529 5.16501 19.7308L8.72439 16.1714H17.948C19.4829 16.1714 20.735 14.9148 20.735 13.3798V4.29219C20.735 2.75724 19.4829 1.5 17.948 1.5H3.11571ZM3.11571 2.77575H17.948C18.7985 2.77575 19.4592 3.44169 19.4592 4.29219V13.3798C19.4592 14.2303 18.7985 14.8963 17.948 14.8963H8.45998C8.29104 14.8945 8.12846 14.9605 8.00811 15.0791L5.34842 17.7399V15.5315C5.34668 15.1832 5.06087 14.8974 4.71315 14.8963H3.11571C2.26578 14.8963 1.59985 14.2303 1.59985 13.3798V4.29219C1.59985 3.44169 2.26578 2.77575 3.11571 2.77575ZM5.53761 6.77831C5.41322 6.78005 5.30155 6.85642 5.25469 6.97156L4.8549 7.96728L3.78512 8.04076C3.62369 8.05175 3.49757 8.18772 3.49757 8.34914C3.49757 8.43997 3.53749 8.52618 3.60692 8.58519L4.43022 9.27485L4.16871 10.3151C4.16292 10.3388 4.16003 10.3631 4.16003 10.3874C4.16003 10.557 4.29947 10.697 4.46899 10.697C4.52685 10.697 4.58297 10.6808 4.63215 10.6507L5.53877 10.0796L6.44944 10.6507C6.49862 10.6814 6.5559 10.6976 6.61376 10.6976C6.78328 10.6976 6.92329 10.5581 6.92329 10.3886C6.92329 10.3637 6.91982 10.3394 6.91403 10.3151L6.65136 9.27485L7.47467 8.58519C7.5441 8.52618 7.58402 8.43997 7.58402 8.34914C7.58402 8.18772 7.45789 8.05175 7.29647 8.04076L6.22669 7.96728L5.8269 6.97156C5.77888 6.85411 5.66432 6.77774 5.53761 6.77831ZM10.5284 6.77831C10.404 6.78005 10.2923 6.85642 10.2455 6.97156L9.84566 7.96728L8.77646 8.04076C8.61561 8.05175 8.48891 8.18772 8.48891 8.34914C8.48891 8.43997 8.52941 8.52618 8.59826 8.58519L9.42214 9.27485L9.15889 10.3151C9.15369 10.3388 9.15079 10.3631 9.15079 10.3874C9.15079 10.557 9.29023 10.697 9.45975 10.697C9.51703 10.697 9.57373 10.6808 9.62233 10.6507L10.5307 10.0796L11.4414 10.6507C11.4905 10.6808 11.5467 10.697 11.6039 10.697C11.774 10.697 11.9135 10.557 11.9135 10.3874C11.9135 10.3631 11.9106 10.3388 11.9048 10.3151L11.6421 9.27485L12.4654 8.58519C12.5349 8.52618 12.5748 8.43997 12.5748 8.34914C12.5748 8.18772 12.4481 8.05175 12.2872 8.04076L11.2186 7.96728L10.8182 6.97156C10.7708 6.85411 10.6551 6.77716 10.5284 6.77831ZM15.5203 6.77831C15.3959 6.78005 15.2837 6.85642 15.2374 6.97156L14.8376 7.96728L13.7672 8.04076C13.6064 8.05175 13.4797 8.18772 13.4797 8.34914C13.4797 8.43997 13.5196 8.52618 13.589 8.58519L14.4123 9.27485L14.1508 10.3151C14.145 10.3388 14.1421 10.3631 14.1421 10.3874C14.1421 10.557 14.2822 10.697 14.4517 10.697C14.509 10.697 14.5657 10.6808 14.6143 10.6507L15.5226 10.0796L16.4321 10.6507C16.4813 10.6814 16.538 10.6976 16.5964 10.6976C16.766 10.6976 16.9054 10.5581 16.9054 10.3886C16.9054 10.3637 16.9025 10.3394 16.8967 10.3151L16.6335 9.27485L17.4574 8.58519C17.5268 8.52618 17.5667 8.43997 17.5667 8.34914C17.5667 8.18772 17.44 8.05175 17.2792 8.04076L16.2088 7.96728L15.809 6.97156C15.7616 6.85411 15.6464 6.77774 15.5203 6.77831Z" fill="#29004C"/>
</svg>
