<svg width="16" height="18" viewBox="0 0 16 18" fill="none" xmlns="http://www.w3.org/2000/svg">
<path d="M5.8 17.7314C6.06785 17.8927 6.37355 17.9846 6.68806 17.9982C7.00257 18.0119 7.31543 17.9469 7.59692 17.8094L10.0585 16.6093C10.3644 16.4597 10.6217 16.23 10.8016 15.9461C10.9814 15.6621 11.0767 15.3349 11.0769 15.0012V9.74777L15.4585 5.47243C15.8048 5.13516 15.9996 4.6776 16 4.20033V1.80014C16 1.32271 15.8055 0.864841 15.4593 0.527249C15.1131 0.189657 14.6435 0 14.1538 0H1.84615C1.35652 0 0.886947 0.189657 0.540726 0.527249C0.194505 0.864841 0 1.32271 0 1.80014V4.20033C0.000430897 4.6776 0.195219 5.13516 0.541539 5.47243L4.92308 9.74777V16.2013C4.92342 16.508 5.00417 16.8096 5.15764 17.0774C5.31112 17.3452 5.53223 17.5703 5.8 17.7314ZM1.84615 4.20033V1.80014H14.1538V4.20033L9.23077 9.00071V15.0012L6.76923 16.2013V9.00071L1.84615 4.20033Z" fill="#FDFAFF"/>
</svg>
