<svg width="22" height="22" viewBox="0 0 22 22" fill="none" xmlns="http://www.w3.org/2000/svg">
<path d="M10.9077 1.52397C10.9189 1.49698 10.9324 1.48467 10.9439 1.47744C10.9577 1.46874 10.9771 1.46238 11 1.46238C11.0229 1.46238 11.0423 1.46874 11.0561 1.47744C11.0676 1.48467 11.0811 1.49698 11.0923 1.52397L13.5716 7.48495C13.73 7.86581 14.0882 8.12603 14.4994 8.159L20.9348 8.67492C20.9639 8.67725 20.9798 8.68634 20.9902 8.69499C21.0027 8.70539 21.0148 8.72194 21.0219 8.74369C21.0289 8.76544 21.0289 8.78593 21.0249 8.80172C21.0215 8.81484 21.014 8.83153 20.9918 8.85054L16.0888 13.0505C15.7755 13.3189 15.6387 13.74 15.7344 14.1412L17.2324 20.421C17.2391 20.4494 17.2354 20.4674 17.2304 20.4799C17.2244 20.4951 17.2124 20.5117 17.1939 20.5251C17.1754 20.5386 17.1559 20.5449 17.1396 20.5459C17.1261 20.5468 17.1079 20.5448 17.083 20.5296L11.5734 17.1643C11.2214 16.9493 10.7786 16.9493 10.4266 17.1643L4.91704 20.5296C4.8921 20.5448 4.8739 20.5468 4.86039 20.5459C4.84413 20.5449 4.82464 20.5386 4.80614 20.5251C4.78764 20.5117 4.77563 20.4951 4.7696 20.4799C4.76459 20.4674 4.76086 20.4494 4.76765 20.421L6.26562 14.1412C6.36133 13.7399 6.22452 13.3189 5.91125 13.0505L1.00817 8.85054C0.985973 8.83152 0.978454 8.81483 0.975112 8.80172C0.97109 8.78593 0.971056 8.76544 0.978123 8.7437C0.98519 8.72194 0.997257 8.70539 1.00979 8.69499C1.02021 8.68634 1.0361 8.67725 1.06524 8.67492L7.50061 8.159C7.91178 8.12603 8.26995 7.86581 8.42836 7.48495L10.9077 1.52397Z" fill="#FBF8FF" stroke="#B3B3B3"/>
</svg>