<svg width="22" height="22" viewBox="0 0 22 22" fill="none" xmlns="http://www.w3.org/2000/svg">
<path d="M10.446 1.33196C10.651 0.839181 11.349 0.839182 11.554 1.33196L14.0333 7.29293C14.1197 7.50067 14.3151 7.64261 14.5393 7.66059L20.9747 8.17652C21.5067 8.21916 21.7224 8.88307 21.3171 9.23027L16.414 13.4303C16.2432 13.5766 16.1685 13.8063 16.2207 14.0252L17.7187 20.305C17.8425 20.8241 17.2778 21.2344 16.8223 20.9563L11.3128 17.591C11.1207 17.4737 10.8793 17.4737 10.6872 17.591L5.17767 20.9563C4.72221 21.2345 4.15746 20.8241 4.28129 20.305L5.77926 14.0252C5.83147 13.8063 5.75684 13.5766 5.58597 13.4303L0.682895 9.23027C0.277573 8.88307 0.493289 8.21916 1.02528 8.17652L7.46065 7.66059C7.68493 7.64261 7.88029 7.50067 7.9667 7.29293L10.446 1.33196Z" fill="#FFC52E"/>
</svg>
