<svg width="24" height="24" viewBox="0 0 24 24" fill="none" xmlns="http://www.w3.org/2000/svg">
<path d="M23.6749 21.9235L19.1959 17.4909C22.5951 13.2579 22.2752 7.02829 18.396 3.15474C16.3565 1.11814 13.6771 0 10.7977 0C7.9183 0 5.19888 1.11814 3.15932 3.15474C1.11976 5.19135 0 7.86689 0 10.782C0 13.6972 1.11976 16.3727 3.15932 18.4093C5.19888 20.406 7.87831 21.5641 10.7977 21.5641C13.2372 21.5641 15.6366 20.7255 17.5162 19.208L21.9553 23.6406C22.1952 23.8802 22.4752 24 22.7951 24C23.115 24 23.435 23.8802 23.6349 23.6406C24.1148 23.1614 24.1148 22.4027 23.6749 21.9235ZM19.1959 10.782C19.1959 13.0183 18.3161 15.1348 16.7164 16.6922C15.1167 18.2496 13.0372 19.1681 10.7977 19.1681C8.55816 19.1681 6.43862 18.2895 4.87895 16.6922C3.31929 15.0948 2.39948 13.0183 2.39948 10.782C2.39948 8.54576 3.27929 6.42929 4.87895 4.87188C6.47861 3.31448 8.51817 2.39601 10.7977 2.39601C13.0372 2.39601 15.1567 3.27454 16.7164 4.87188C18.2761 6.46922 19.1959 8.50582 19.1959 10.782Z" fill="#B3B3B3"/>
</svg>
