<svg width="16" height="16" viewBox="0 0 16 16" fill="none" xmlns="http://www.w3.org/2000/svg">
<g clip-path="url(#clip0)">
<path d="M8.00004 0C3.58885 0 0 3.58885 0 8.00004C0 12.4112 3.58885 16.0001 8.00004 16.0001C12.4112 16.0001 16.0001 12.4112 16.0001 8.00004C16.0001 3.58885 12.4112 0 8.00004 0ZM8.00004 15.4483C3.89298 15.4483 0.551752 12.1069 0.551752 8.00004C0.551752 3.89314 3.89298 0.551752 8.00004 0.551752C12.1071 0.551752 15.4483 3.89314 15.4483 8.00004C15.4483 12.1069 12.107 15.4483 8.00004 15.4483Z" fill="#AAAAAA"/>
<path d="M8.00003 1.37891C4.34943 1.37891 1.37933 4.34885 1.37933 7.99961C1.37933 8.15187 1.50291 8.27544 1.65517 8.27544C1.80743 8.27544 1.931 8.15187 1.931 7.99961C1.931 4.65313 4.65348 1.93066 7.99995 1.93066C8.15222 1.93066 8.27579 1.80709 8.27579 1.65482C8.27579 1.50256 8.1523 1.37891 8.00003 1.37891Z" fill="#AAAAAA"/>
<path d="M8.07755 6.18175C7.95519 6.17924 7.8515 6.22078 7.76608 6.30613C7.68081 6.39147 7.63701 6.49524 7.6345 6.6176L7.55425 10.7593C7.55174 10.8816 7.59167 10.9856 7.6737 11.0707C7.75573 11.1561 7.85781 11.1997 7.98017 11.2022C8.10253 11.2047 8.20791 11.1651 8.29641 11.0829C8.38499 11.001 8.43033 10.8987 8.43283 10.7763L8.51309 6.63466C8.51567 6.50599 8.47583 6.39891 8.3938 6.31356C8.31161 6.22838 8.20638 6.18425 8.07755 6.18175Z" fill="#AAAAAA"/>
<path d="M8.49942 4.35508C8.4047 4.25648 8.28978 4.20613 8.15457 4.20338L8.09662 4.20225C7.96149 4.19967 7.84479 4.24557 7.74627 4.34045C7.64775 4.43477 7.59748 4.54953 7.59465 4.68474L7.59393 4.72321C7.59118 4.8585 7.63725 4.97537 7.73197 5.07397C7.82661 5.17232 7.94137 5.22292 8.07666 5.22566L8.13461 5.2268C8.26982 5.22938 8.3866 5.18323 8.48512 5.0886C8.58364 4.99371 8.63383 4.87863 8.63657 4.7435L8.6373 4.70503C8.64013 4.56982 8.59422 4.45311 8.49942 4.35508Z" fill="#AAAAAA"/>
<path d="M12.4138 15.4482H8.55171C8.39945 15.4482 8.27588 15.5718 8.27588 15.7241C8.27588 15.8763 8.39945 15.9999 8.55171 15.9999H12.4138C12.5661 15.9999 12.6896 15.8763 12.6896 15.7241C12.6896 15.5718 12.5661 15.4482 12.4138 15.4482Z" fill="#AAAAAA"/>
</g>
<defs>
<clipPath id="clip0">
<rect width="16" height="16" fill="white"/>
</clipPath>
</defs>
</svg>
