<svg width="70" height="70" viewBox="0 0 70 70" fill="none" xmlns="http://www.w3.org/2000/svg">
<circle cx="35" cy="35" r="35" fill="#FF2E2E"/>
<path d="M35.0014 11.6667C36.5765 11.6667 38.0754 12.3432 39.1186 13.5246C40.1611 14.7045 40.6453 16.2782 40.4559 17.7949L37.9002 41.151C37.7386 42.63 36.4903 43.7501 35.0014 43.7501C33.5124 43.7501 32.2642 42.63 32.1025 41.1496L29.5533 17.8397C29.3575 16.2782 29.8417 14.7045 30.8849 13.5246C31.9273 12.3432 33.4263 11.6667 35.0014 11.6667Z" fill="white"/>
<path d="M35.0015 49.5833C37.4133 49.5833 39.3765 51.5464 39.3765 53.9583C39.3765 56.3701 37.4133 58.3333 35.0015 58.3333C32.5897 58.3333 30.6265 56.3701 30.6265 53.9583C30.6265 51.5464 32.5897 49.5833 35.0015 49.5833Z" fill="white"/>
</svg>
